<?xml version="1.0" encoding="UTF-8" standalone="no"?>
<svg xmlns:ffdec="https://www.free-decompiler.com/flash" xmlns:xlink="http://www.w3.org/1999/xlink" ffdec:objectType="frame" height="280.0px" width="720.0px" xmlns="http://www.w3.org/2000/svg">
  <g transform="matrix(1.0, 0.0, 0.0, 1.0, 0.0, 0.0)">
    <use ffdec:characterId="1" height="151.5" transform="matrix(1.0, 0.0, 0.0, 1.0, 533.95, 43.45)" width="178.0" xlink:href="#shape0"/>
  </g>
  <defs>
    <g id="shape0" transform="matrix(1.0, 0.0, 0.0, 1.0, -533.95, -43.45)">
      <path d="M657.6 44.4 L657.6 45.55 656.15 45.55 656.15 54.45 657.6 54.45 657.6 55.65 649.35 55.65 649.35 54.45 650.7 54.45 650.7 45.55 649.35 45.55 649.35 44.4 657.6 44.4 M652.15 45.55 L652.15 54.45 654.7 54.45 654.7 45.55 652.15 45.55 M675.3 61.5 L681.05 74.05 679.9 74.65 675.3 64.65 670.75 74.65 669.55 74.05 675.3 61.5 M666.6 79.3 L667.3 79.95 Q665.75 81.4 665.1 82.7 664.4 84.15 664.4 86.15 664.4 87.8 665.1 89.3 665.75 90.7 667.3 92.4 L666.6 93.05 Q665.05 91.3 664.3 89.75 663.5 88.05 663.5 86.15 663.5 83.95 664.3 82.25 665.0 80.8 666.6 79.3 M650.9 86.2 L643.4 86.2 643.4 90.0 651.9 90.0 651.9 81.3 643.4 81.3 643.4 84.8 650.9 84.8 650.9 86.2 M651.9 91.4 L643.4 91.4 643.4 92.4 641.95 92.4 641.95 79.95 653.35 79.95 653.35 92.15 651.9 92.15 651.9 91.4 M683.75 83.75 Q683.75 87.9 682.1 90.45 L688.15 90.45 688.15 80.65 683.75 80.65 683.75 83.75 M682.5 79.45 L689.4 79.45 689.4 90.45 690.85 90.45 690.85 93.9 689.6 93.9 689.6 91.65 680.85 91.65 680.85 93.9 679.6 93.9 679.6 90.45 680.65 90.45 Q682.5 87.8 682.5 83.75 L682.5 79.45 M674.3 78.8 Q674.75 78.4 675.3 78.4 675.9 78.4 676.3 78.8 676.75 79.25 676.75 79.8 676.75 80.4 676.3 80.8 675.9 81.25 675.3 81.25 674.75 81.25 674.3 80.8 673.9 80.4 673.9 79.8 673.9 79.25 674.3 78.8 M675.3 78.9 Q674.9 78.9 674.65 79.15 674.4 79.4 674.4 79.8 674.4 80.25 674.65 80.5 674.9 80.75 675.3 80.75 L676.0 80.5 676.25 79.8 676.0 79.15 Q675.75 78.9 675.3 78.9 M669.35 96.05 L669.35 111.95 668.1 111.95 668.1 96.05 669.35 96.05 M696.2 61.5 L701.95 74.05 700.8 74.65 696.2 64.65 691.65 74.65 690.45 74.05 696.2 61.5 M703.75 79.3 Q705.35 80.8 706.05 82.25 706.85 83.95 706.85 86.15 706.85 88.05 706.05 89.75 705.3 91.3 703.75 93.05 L703.05 92.4 Q704.6 90.7 705.25 89.3 705.95 87.8 705.95 86.15 705.95 84.15 705.25 82.7 704.6 81.4 703.05 79.95 L703.75 79.3 M696.45 79.8 Q696.45 80.4 696.0 80.8 695.6 81.25 695.0 81.25 694.45 81.25 694.0 80.8 693.6 80.4 693.6 79.8 693.6 79.25 694.0 78.8 694.45 78.4 695.0 78.4 695.6 78.4 696.0 78.8 696.45 79.25 696.45 79.8 M695.0 78.9 Q694.6 78.9 694.35 79.15 694.1 79.4 694.1 79.8 694.1 80.25 694.35 80.5 L695.0 80.75 Q695.45 80.75 695.7 80.5 L695.95 79.8 695.7 79.15 Q695.45 78.9 695.0 78.9 M701.1 97.3 Q702.7 98.8 703.4 100.25 704.2 101.95 704.2 104.15 704.2 106.05 703.4 107.75 702.65 109.3 701.1 111.05 L700.4 110.4 702.6 107.3 Q703.3 105.8 703.3 104.15 703.3 102.15 702.6 100.7 701.95 99.4 700.4 97.95 L701.1 97.3 M711.95 111.3 L707.15 111.3 707.15 110.55 711.95 110.55 711.95 111.3 M695.9 102.55 Q695.4 102.05 694.65 102.05 693.8 102.05 693.35 102.5 L692.05 104.2 690.4 106.25 Q689.3 107.4 687.65 107.4 686.35 107.4 685.4 106.45 684.45 105.5 684.45 104.0 684.45 102.65 685.4 101.7 686.35 100.75 687.65 100.75 688.7 100.75 689.65 101.4 L688.9 102.45 687.65 102.05 Q686.9 102.05 686.35 102.65 685.8 103.2 685.8 104.0 685.8 104.95 686.35 105.5 686.95 106.15 687.65 106.15 688.7 106.15 689.65 105.2 L690.9 103.5 692.35 101.65 Q693.2 100.75 694.6 100.75 696.05 100.75 696.95 101.7 697.9 102.65 697.9 104.05 697.9 105.55 697.05 106.45 696.1 107.4 694.9 107.4 L692.9 106.95 693.55 105.75 694.8 106.05 Q695.55 106.05 696.05 105.55 696.6 105.0 696.6 104.05 696.6 103.25 695.9 102.55 M693.9 142.25 L677.95 142.25 677.95 141.05 693.9 141.05 693.9 142.25 M693.95 141.05 L709.9 141.05 709.9 142.25 693.95 142.25 693.95 141.05 M682.35 104.15 Q682.25 106.75 680.35 108.15 678.6 109.45 675.4 109.45 L675.1 108.0 Q678.75 108.0 680.05 106.5 681.05 105.5 681.0 103.65 681.0 102.3 680.3 101.5 679.65 100.75 678.55 100.7 677.3 100.65 675.35 101.3 L671.85 102.8 671.3 101.25 675.3 99.9 678.35 99.4 Q680.0 99.4 681.05 100.3 682.5 101.55 682.35 104.15 M661.9 111.95 L645.95 111.95 645.95 111.25 661.9 111.25 661.9 111.95 M661.95 111.3 L661.95 110.55 666.75 110.55 666.75 111.3 661.95 111.3 M661.9 142.25 L645.95 142.25 645.95 141.05 661.9 141.05 661.9 142.25 M661.95 141.05 L677.9 141.05 677.9 142.25 661.95 142.25 661.95 141.05 M677.45 186.0 L677.45 186.7 661.5 186.7 661.5 186.0 677.45 186.0 M677.5 186.0 L693.45 186.0 693.45 186.7 677.5 186.7 677.5 186.0 M661.45 186.7 L645.5 186.7 645.5 186.0 661.45 186.0 661.45 186.7 M661.0 176.95 L645.05 176.95 645.05 175.0 661.0 175.0 661.0 176.95 M693.5 186.0 L709.45 186.0 709.45 186.7 693.5 186.7 693.5 186.0 M632.95 44.9 L626.8 55.9 620.7 44.9 632.95 44.9 M623.05 46.25 L627.1 53.55 631.2 46.25 623.05 46.25 M595.55 45.55 L600.1 53.45 604.7 45.55 595.55 45.55 M606.9 44.4 L600.1 55.9 593.35 44.4 606.9 44.4 M567.05 44.8 L567.05 50.3 565.8 50.3 565.8 49.25 563.4 49.25 563.4 54.7 573.65 54.7 573.65 49.25 571.3 49.25 571.3 50.2 570.05 50.2 570.05 44.8 567.05 44.8 M571.3 47.9 L574.9 47.9 574.9 56.65 573.65 56.65 573.65 56.05 563.4 56.05 563.4 56.8 562.15 56.8 562.15 47.9 565.8 47.9 565.8 43.45 571.3 43.45 571.3 47.9 M595.25 64.45 L584.6 64.45 584.6 63.2 595.25 63.2 595.25 64.45 M595.25 68.55 L584.6 68.55 584.6 67.3 595.25 67.3 595.25 68.55 M595.25 72.75 L584.6 72.75 584.6 71.5 595.25 71.5 595.25 72.75 M600.6 71.5 L611.25 71.5 611.25 72.75 600.6 72.75 600.6 71.5 M600.6 67.3 L611.25 67.3 611.25 68.55 600.6 68.55 600.6 67.3 M600.6 63.2 L611.25 63.2 611.25 64.45 600.6 64.45 600.6 63.2 M568.6 67.3 L579.25 67.3 579.25 68.55 568.6 68.55 568.6 67.3 M568.6 71.5 L579.25 71.5 579.25 72.75 568.6 72.75 568.6 71.5 M568.6 63.2 L579.25 63.2 579.25 64.45 568.6 64.45 568.6 63.2 M579.2 82.0 Q577.8 82.0 576.9 82.95 575.8 84.0 575.8 85.65 L575.8 91.55 574.65 91.55 574.65 85.65 Q574.65 83.45 575.95 82.15 577.3 80.75 579.2 80.75 581.05 80.75 582.45 82.15 583.75 83.45 583.75 85.65 L583.75 91.55 582.55 91.55 582.55 85.65 Q582.55 84.0 581.5 82.95 580.55 82.0 579.2 82.0 M607.15 79.25 L611.1 79.25 611.1 93.2 607.15 93.2 607.15 92.2 610.05 92.2 610.05 80.25 607.15 80.25 607.15 79.25 M601.7 80.25 L601.7 92.2 604.6 92.2 604.6 93.2 600.65 93.2 600.65 79.25 604.6 79.25 604.6 80.25 601.7 80.25 M632.6 63.2 L643.25 63.2 643.25 64.45 632.6 64.45 632.6 63.2 M632.6 71.5 L643.25 71.5 643.25 72.75 632.6 72.75 632.6 71.5 M632.6 67.3 L643.25 67.3 643.25 68.55 632.6 68.55 632.6 67.3 M616.6 63.2 L627.25 63.2 627.25 64.45 616.6 64.45 616.6 63.2 M616.6 67.3 L627.25 67.3 627.25 68.55 616.6 68.55 616.6 67.3 M616.6 71.5 L627.25 71.5 627.25 72.75 616.6 72.75 616.6 71.5 M621.6 84.05 Q621.6 85.45 622.0 85.8 622.35 86.2 622.85 86.2 623.35 86.2 623.75 85.8 624.1 85.45 624.1 84.05 624.1 82.7 623.75 82.3 623.35 81.95 622.85 81.95 622.35 81.95 622.0 82.3 621.6 82.7 621.6 84.05 M620.85 81.45 Q621.6 80.7 622.85 80.7 624.1 80.7 624.85 81.45 625.6 82.2 625.6 84.05 625.6 86.0 624.85 86.75 624.1 87.5 622.85 87.5 621.7 87.5 620.85 86.7 620.1 85.95 620.1 84.05 620.1 82.2 620.85 81.45 M622.5 91.15 L630.75 80.75 631.5 81.4 623.25 91.75 622.5 91.15 M631.0 86.2 Q630.5 86.2 630.1 86.55 629.75 86.95 629.75 88.3 629.75 89.7 630.1 90.05 630.5 90.45 631.0 90.45 631.5 90.45 631.85 90.05 632.25 89.7 632.25 88.3 632.25 86.95 631.85 86.55 631.5 86.2 631.0 86.2 M631.0 84.95 Q632.25 84.95 633.0 85.7 633.75 86.45 633.75 88.3 633.75 90.25 633.0 91.0 632.25 91.75 631.0 91.75 629.8 91.75 629.0 90.95 628.25 90.2 628.25 88.3 628.25 86.45 629.0 85.7 629.75 84.95 631.0 84.95 M546.9 44.25 L546.9 56.05 545.45 56.05 545.45 55.2 538.5 55.2 538.5 56.3 537.1 56.3 537.1 44.25 546.9 44.25 M538.5 45.45 L538.5 49.0 545.45 49.0 545.45 45.45 538.5 45.45 M552.6 67.3 L563.25 67.3 563.25 68.55 552.6 68.55 552.6 67.3 M552.6 71.5 L563.25 71.5 563.25 72.75 552.6 72.75 552.6 71.5 M552.6 63.2 L563.25 63.2 563.25 64.45 552.6 64.45 552.6 63.2 M547.25 72.75 L536.6 72.75 536.6 71.5 547.25 71.5 547.25 72.75 M547.25 68.55 L536.6 68.55 536.6 67.3 547.25 67.3 547.25 68.55 M547.25 64.45 L536.6 64.45 536.6 63.2 547.25 63.2 547.25 64.45 M545.45 54.0 L545.45 50.2 538.5 50.2 538.5 54.0 545.45 54.0 M548.5 80.4 L556.75 80.4 556.75 81.55 555.3 81.55 555.3 90.45 556.75 90.45 556.75 91.65 548.5 91.65 548.5 90.45 549.85 90.45 549.85 81.55 548.5 81.55 548.5 80.4 M551.3 81.55 L551.3 90.45 553.85 90.45 553.85 81.55 551.3 81.55 M549.95 111.25 L565.9 111.25 565.9 111.95 549.95 111.95 549.95 111.25 M549.9 111.95 L533.95 111.95 533.95 111.25 549.9 111.25 549.9 111.95 M565.95 111.25 L581.9 111.25 581.9 111.95 565.95 111.95 565.95 111.25 M533.95 141.05 L549.9 141.05 549.9 142.25 533.95 142.25 533.95 141.05 M565.9 141.05 L565.9 142.25 549.95 142.25 549.95 141.05 565.9 141.05 M565.95 141.05 L581.9 141.05 581.9 142.25 565.95 142.25 565.95 141.05 M544.6 175.0 L560.55 175.0 560.55 176.95 544.6 176.95 544.6 175.0 M533.95 186.0 L549.9 186.0 549.9 186.7 533.95 186.7 533.95 186.0 M560.6 193.0 L567.6 193.0 567.6 186.0 569.55 186.0 569.55 193.0 576.55 193.0 576.55 194.95 560.6 194.95 560.6 193.0 M560.6 175.0 L576.55 175.0 576.55 176.95 569.55 176.95 569.55 183.95 567.6 183.95 567.6 176.95 560.6 176.95 560.6 175.0 M645.9 111.95 L629.95 111.95 629.95 111.25 645.9 111.25 645.9 111.95 M629.9 111.95 L613.95 111.95 613.95 111.25 629.9 111.25 629.9 111.95 M613.9 111.95 L597.95 111.95 597.95 111.25 613.9 111.25 613.9 111.95 M613.9 142.25 L597.95 142.25 597.95 141.05 613.9 141.05 613.9 142.25 M613.95 141.05 L629.9 141.05 629.9 142.25 613.95 142.25 613.95 141.05 M629.95 142.25 L629.95 141.05 645.9 141.05 645.9 142.25 629.95 142.25 M597.9 111.95 L581.95 111.95 581.95 111.25 597.9 111.25 597.9 111.95 M581.95 141.05 L597.9 141.05 597.9 142.25 581.95 142.25 581.95 141.05 M576.6 175.0 L592.55 175.0 592.55 176.95 576.6 176.95 576.6 175.0 M581.5 186.0 L597.45 186.0 597.45 186.7 581.5 186.7 581.5 186.0 M597.5 186.0 L613.45 186.0 613.45 186.7 597.5 186.7 597.5 186.0 M613.5 186.0 L629.45 186.0 629.45 186.7 613.5 186.7 613.5 186.0 M613.05 175.0 L629.0 175.0 629.0 176.95 613.05 176.95 613.05 175.0 M638.0 176.95 L638.0 183.95 636.05 183.95 636.05 176.95 629.05 176.95 629.05 175.0 645.0 175.0 645.0 176.95 638.0 176.95 M629.5 193.0 L636.5 193.0 636.5 186.0 638.45 186.0 638.45 193.0 645.45 193.0 645.45 194.95 629.5 194.95 629.5 193.0" fill="#666666" fill-rule="evenodd" stroke="none"/>
    </g>
  </defs>
</svg>
