<?xml version="1.0" encoding="UTF-8" standalone="no"?>
<svg xmlns:ffdec="https://www.free-decompiler.com/flash" xmlns:xlink="http://www.w3.org/1999/xlink" ffdec:objectType="frame" height="280.0px" width="720.0px" xmlns="http://www.w3.org/2000/svg">
  <g transform="matrix(1.0, 0.0, 0.0, 1.0, 0.0, 0.0)">
    <use ffdec:characterId="1" height="213.95" transform="matrix(1.0, 0.0, 0.0, 1.0, 288.95, 2.0)" width="156.2" xlink:href="#shape0"/>
  </g>
  <defs>
    <g id="shape0" transform="matrix(1.0, 0.0, 0.0, 1.0, -288.95, -2.0)">
      <path d="M426.65 14.0 L427.85 14.0 427.85 19.6 422.25 19.6 422.25 18.4 426.65 18.4 426.65 14.0 M426.95 7.6 L422.55 7.6 422.55 6.4 428.15 6.4 428.15 11.95 426.95 11.95 426.95 7.6 M422.5 7.6 L412.55 7.6 412.55 6.4 422.5 6.4 422.5 7.6 M412.5 7.6 L402.55 7.6 402.55 6.4 412.5 6.4 412.5 7.6 M412.25 18.4 L422.2 18.4 422.2 19.6 417.85 19.6 417.85 23.95 416.65 23.95 416.65 19.6 412.25 19.6 412.25 18.4 M406.65 19.6 L402.25 19.6 402.25 18.4 412.2 18.4 412.2 19.6 407.85 19.6 407.85 23.95 406.65 23.95 406.65 19.6 M416.4 26.0 L417.6 26.0 417.6 35.95 416.4 35.95 416.4 26.0 M406.4 26.0 L407.6 26.0 407.6 35.95 406.4 35.95 406.4 26.0 M406.65 38.0 L407.85 38.0 407.85 42.4 412.2 42.4 412.2 43.6 402.25 43.6 402.25 42.4 406.65 42.4 406.65 38.0 M412.25 42.4 L416.65 42.4 416.65 38.0 417.85 38.0 417.85 42.4 422.2 42.4 422.2 43.6 412.25 43.6 412.25 42.4 M422.25 42.4 L427.85 42.4 427.85 47.95 426.65 47.95 426.65 43.6 422.25 43.6 422.25 42.4 M426.25 50.0 L427.45 50.0 427.45 55.6 421.85 55.6 421.85 54.4 426.25 54.4 426.25 50.0 M421.8 55.6 L417.45 55.6 417.45 59.95 416.25 59.95 416.25 55.6 411.85 55.6 411.85 54.4 421.8 54.4 421.8 55.6 M411.8 55.6 L407.45 55.6 407.45 59.95 406.25 59.95 406.25 55.6 401.85 55.6 401.85 54.4 411.8 54.4 411.8 55.6 M406.65 74.0 L406.65 83.95 405.45 83.95 405.45 74.0 406.65 74.0 M405.45 71.95 L405.45 62.0 406.65 62.0 406.65 71.95 405.45 71.95 M416.65 74.0 L416.65 83.95 415.45 83.95 415.45 74.0 416.65 74.0 M415.45 71.95 L415.45 62.0 416.65 62.0 416.65 71.95 415.45 71.95 M416.95 86.0 L416.95 95.95 415.75 95.95 415.75 86.0 416.95 86.0 M406.95 86.0 L406.95 95.95 405.75 95.95 405.75 86.0 406.95 86.0 M406.95 98.0 L406.95 107.95 405.75 107.95 405.75 98.0 406.95 98.0 M424.6 89.7 L424.6 86.9 428.05 86.9 428.05 89.7 430.3 89.7 430.3 95.15 429.5 95.15 429.5 94.8 423.1 94.8 423.1 95.25 422.35 95.25 422.35 89.7 424.6 89.7 M423.1 90.55 L423.1 93.95 429.5 93.95 429.5 90.55 428.05 90.55 428.05 91.1 427.25 91.1 427.25 87.75 425.35 87.75 425.35 91.2 424.6 91.2 424.6 90.55 423.1 90.55 M416.95 98.0 L416.95 107.95 415.75 107.95 415.75 98.0 416.95 98.0 M422.95 98.9 L422.95 105.8 425.9 105.8 425.9 98.9 426.7 98.9 426.7 105.8 429.65 105.8 429.65 98.9 430.45 98.9 430.45 106.5 422.15 106.5 422.15 98.9 422.95 98.9 M402.5 7.6 L392.55 7.6 392.55 6.4 402.5 6.4 402.5 7.6 M392.5 7.6 L382.55 7.6 382.55 6.4 392.5 6.4 392.5 7.6 M392.2 19.6 L382.25 19.6 382.25 18.4 392.2 18.4 392.2 19.6 M392.25 18.4 L402.2 18.4 402.2 19.6 392.25 19.6 392.25 18.4 M382.5 7.6 L372.55 7.6 372.55 6.4 382.5 6.4 382.5 7.6 M367.15 11.95 L367.15 2.0 367.95 2.0 367.95 11.95 367.15 11.95 M368.4 14.05 L368.4 23.95 367.65 23.95 367.65 14.05 368.4 14.05 M366.8 23.95 L356.85 23.95 356.85 23.55 366.8 23.55 366.8 23.95 M372.25 18.4 L382.2 18.4 382.2 19.6 372.25 19.6 372.25 18.4 M373.9 32.9 L372.95 33.7 Q371.45 31.55 368.5 29.6 L369.3 28.85 Q372.45 30.85 373.9 32.9 M371.6 42.15 L367.1 42.15 367.1 41.5 371.6 41.5 371.6 42.15 M372.1 41.5 L376.6 41.5 376.6 42.15 372.1 42.15 372.1 41.5 M366.6 42.15 L362.1 42.15 362.1 41.5 366.6 41.5 366.6 42.15 M367.1 43.9 L371.6 43.9 371.6 44.55 367.1 44.55 367.1 43.9 M366.6 44.55 L362.1 44.55 362.1 43.9 366.6 43.9 366.6 44.55 M372.1 43.9 L376.6 43.9 376.6 44.55 372.1 44.55 372.1 43.9 M382.25 42.4 L392.2 42.4 392.2 43.6 382.25 43.6 382.25 42.4 M377.65 38.05 L378.4 38.05 378.4 47.95 377.65 47.95 377.65 38.05 M392.25 43.6 L392.25 42.4 402.2 42.4 402.2 43.6 392.25 43.6 M359.25 3.55 L355.15 10.9 354.75 10.7 358.9 3.3 359.25 3.55 M351.4 7.6 L341.45 7.6 341.45 6.4 351.4 6.4 351.4 7.6 M351.4 19.6 L341.45 19.6 341.45 18.4 351.4 18.4 351.4 19.6 M356.05 14.05 L356.05 23.95 355.3 23.95 355.3 14.05 356.05 14.05 M341.4 7.6 L331.45 7.6 331.45 6.4 341.4 6.4 341.4 7.6 M331.4 7.6 L321.45 7.6 321.45 6.4 331.4 6.4 331.4 7.6 M325.85 19.6 L321.45 19.6 321.45 18.4 331.4 18.4 331.4 19.6 327.05 19.6 327.05 23.95 325.85 23.95 325.85 19.6 M331.45 18.4 L341.4 18.4 341.4 19.6 337.05 19.6 337.05 23.95 335.85 23.95 335.85 19.6 331.45 19.6 331.45 18.4 M335.55 26.0 L336.75 26.0 336.75 35.95 335.55 35.95 335.55 26.0 M325.55 26.0 L326.75 26.0 326.75 35.95 325.55 35.95 325.55 26.0 M331.45 42.4 L335.85 42.4 335.85 38.0 337.05 38.0 337.05 42.4 341.4 42.4 341.4 43.6 331.45 43.6 331.45 42.4 M325.85 38.0 L327.05 38.0 327.05 42.4 331.4 42.4 331.4 43.6 321.45 43.6 321.45 42.4 325.85 42.4 325.85 38.0 M353.2 27.25 L353.65 27.75 345.15 34.85 344.7 34.35 353.2 27.25 M351.6 42.15 L347.1 42.15 347.1 41.5 351.6 41.5 351.6 42.15 M352.1 41.5 L356.6 41.5 356.6 42.15 352.1 42.15 352.1 41.5 M346.05 38.05 L346.05 47.95 345.3 47.95 345.3 38.05 346.05 38.05 M347.1 43.9 L351.6 43.9 351.6 44.55 347.1 44.55 347.1 43.9 M352.1 43.9 L356.6 43.9 356.6 44.55 352.1 44.55 352.1 43.9 M361.6 42.15 L357.1 42.15 357.1 41.5 361.6 41.5 361.6 42.15 M357.1 43.9 L361.6 43.9 361.6 44.55 357.1 44.55 357.1 43.9 M363.55 51.15 L363.55 59.4 362.9 59.4 362.9 54.6 Q362.25 54.55 361.8 54.1 361.3 53.6 361.3 52.6 361.3 51.55 361.8 51.05 362.35 50.5 363.15 50.5 L365.3 50.5 365.3 51.15 365.1 51.15 365.1 59.4 364.4 59.4 364.4 51.15 363.55 51.15 M354.95 59.6 L351.95 59.6 351.95 59.1 354.95 59.1 354.95 59.6 M358.0 59.1 L358.0 59.6 355.0 59.6 355.0 59.1 358.0 59.1 M350.9 56.9 L349.95 57.7 Q348.45 55.55 345.5 53.6 L346.3 52.85 Q349.45 54.85 350.9 56.9 M352.0 63.2 Q351.0 64.1 350.6 64.95 350.2 65.85 350.2 67.1 350.2 68.15 350.6 69.1 L352.0 71.0 351.55 71.4 Q350.55 70.35 350.1 69.35 349.6 68.3 349.6 67.1 349.6 65.7 350.1 64.65 350.55 63.75 351.55 62.85 L352.0 63.2 M353.3 70.35 L361.8 63.25 362.25 63.75 353.75 70.85 353.3 70.35 M363.6 71.0 L364.95 69.1 365.4 67.1 Q365.4 65.85 364.95 64.95 364.55 64.1 363.6 63.2 L364.0 62.85 Q365.05 63.75 365.45 64.65 365.95 65.7 365.95 67.1 365.95 68.3 365.45 69.35 365.0 70.35 364.0 71.4 L363.6 71.0 M341.4 55.6 L337.05 55.6 337.05 59.95 335.85 59.95 335.85 55.6 331.45 55.6 331.45 54.4 341.4 54.4 341.4 55.6 M331.4 55.6 L327.05 55.6 327.05 59.95 325.85 59.95 325.85 55.6 321.45 55.6 321.45 54.4 331.4 54.4 331.4 55.6 M326.75 74.0 L326.75 83.95 325.55 83.95 325.55 74.0 326.75 74.0 M326.75 71.95 L325.55 71.95 325.55 62.0 326.75 62.0 326.75 71.95 M336.75 74.0 L336.75 83.95 335.55 83.95 335.55 74.0 336.75 74.0 M336.75 71.95 L335.55 71.95 335.55 62.0 336.75 62.0 336.75 71.95 M337.05 86.0 L337.05 95.95 335.85 95.95 335.85 86.0 337.05 86.0 M327.05 86.0 L327.05 95.95 325.85 95.95 325.85 86.0 327.05 86.0 M327.05 98.0 L327.05 107.95 325.85 107.95 325.85 98.0 327.05 98.0 M337.05 98.0 L337.05 107.95 335.85 107.95 335.85 98.0 337.05 98.0 M362.25 75.75 L353.75 82.85 353.3 82.35 361.8 75.25 362.25 75.75 M363.6 83.0 L364.95 81.1 365.4 79.1 Q365.4 77.85 364.95 76.95 364.55 76.1 363.6 75.2 L364.0 74.85 Q365.05 75.75 365.45 76.65 365.95 77.7 365.95 79.1 365.95 80.3 365.45 81.35 365.0 82.35 364.0 83.4 L363.6 83.0 M350.2 79.1 Q350.2 80.15 350.6 81.1 L352.0 83.0 351.55 83.4 Q350.55 82.35 350.1 81.35 349.6 80.3 349.6 79.1 349.6 77.7 350.1 76.65 350.55 75.75 351.55 74.85 L352.0 75.2 Q351.0 76.1 350.6 76.95 350.2 77.85 350.2 79.1 M352.3 87.2 Q351.3 88.1 350.9 88.95 350.5 89.85 350.5 91.1 350.5 92.15 350.9 93.1 L352.3 95.0 351.85 95.4 Q350.85 94.35 350.4 93.35 349.9 92.3 349.9 91.1 349.9 89.7 350.4 88.65 350.85 87.75 351.85 86.85 L352.3 87.2 M353.6 94.35 L362.1 87.25 362.55 87.75 354.05 94.85 353.6 94.35 M363.9 95.0 L365.25 93.1 365.7 91.1 Q365.7 89.85 365.25 88.95 364.85 88.1 363.9 87.2 L364.3 86.85 365.75 88.65 Q366.25 89.7 366.25 91.1 366.25 92.3 365.75 93.35 L364.3 95.4 363.9 95.0 M391.8 55.6 L381.85 55.6 381.85 54.4 391.8 54.4 391.8 55.6 M391.85 55.6 L391.85 54.4 401.8 54.4 401.8 55.6 391.85 55.6 M377.75 51.55 Q377.6 54.0 376.4 55.95 375.25 57.9 373.35 59.05 L372.7 58.25 Q376.6 56.05 376.8 51.25 L377.75 51.55 M369.1 59.1 L369.1 59.6 366.1 59.6 366.1 59.1 369.1 59.1 M365.7 103.1 Q365.7 101.85 365.25 100.95 364.85 100.1 363.9 99.2 L364.3 98.85 365.75 100.65 Q366.25 101.7 366.25 103.1 366.25 104.3 365.75 105.35 L364.3 107.4 363.9 107.0 365.25 105.1 365.7 103.1 M365.5 115.1 Q365.5 113.85 365.05 112.95 364.65 112.1 363.7 111.2 L364.1 110.85 365.55 112.65 Q366.05 113.7 366.05 115.1 366.05 116.3 365.55 117.35 L364.1 119.4 363.7 119.0 365.05 117.1 365.5 115.1 M380.25 135.7 L381.15 137.3 385.05 137.3 385.95 135.7 386.7 136.1 383.1 142.65 379.5 136.1 380.25 135.7 M376.2 124.9 L373.35 131.15 372.6 130.8 376.2 122.95 379.8 130.8 379.05 131.15 376.2 124.9 M381.15 131.55 L391.1 131.55 391.1 131.95 381.15 131.95 381.15 131.55 M377.0 134.65 L375.0 136.35 374.1 136.35 375.6 134.65 377.0 134.65 M372.3 135.2 Q371.3 136.1 370.9 136.95 370.5 137.85 370.5 139.1 370.5 140.15 370.9 141.1 L372.3 143.0 371.85 143.4 Q370.85 142.35 370.4 141.35 369.9 140.3 369.9 139.1 369.9 137.7 370.4 136.65 370.85 135.75 371.85 134.85 L372.3 135.2 M365.75 129.35 L364.3 131.4 363.9 131.0 365.25 129.1 365.7 127.1 Q365.7 125.85 365.25 124.95 364.85 124.1 363.9 123.2 L364.3 122.85 365.75 124.65 Q366.25 125.7 366.25 127.1 366.25 128.3 365.75 129.35 M365.75 141.35 L364.3 143.4 363.9 143.0 365.25 141.1 365.7 139.1 Q365.7 137.85 365.25 136.95 364.85 136.1 363.9 135.2 L364.3 134.85 365.75 136.65 Q366.25 137.7 366.25 139.1 366.25 140.3 365.75 141.35 M369.0 147.2 Q368.0 148.1 367.6 148.95 367.2 149.85 367.2 151.1 367.2 152.15 367.6 153.1 L369.0 155.0 368.55 155.4 Q367.55 154.35 367.1 153.35 366.6 152.3 366.6 151.1 366.6 149.7 367.1 148.65 367.55 147.75 368.55 146.85 L369.0 147.2 M384.65 138.1 L381.55 138.1 383.1 140.9 384.65 138.1 M375.45 148.2 Q376.8 148.2 377.6 149.0 378.45 149.85 378.45 151.05 378.45 152.2 377.6 153.1 376.8 153.9 375.45 153.9 L371.7 153.9 371.7 153.15 375.45 153.15 Q376.45 153.15 377.1 152.5 377.7 151.9 377.7 151.05 377.7 150.2 377.1 149.6 376.45 148.95 375.45 148.95 L371.7 148.95 371.7 148.2 375.45 148.2 M400.95 134.85 Q402.0 135.75 402.4 136.65 402.9 137.7 402.9 139.1 402.9 140.3 402.4 141.35 401.95 142.35 400.95 143.4 L400.55 143.0 401.9 141.1 Q402.35 140.15 402.35 139.1 402.35 137.85 401.9 136.95 401.5 136.1 400.55 135.2 L400.95 134.85 M396.2 124.9 L393.35 131.15 392.6 130.8 396.2 122.95 399.8 130.8 399.05 131.15 396.2 124.9 M390.35 134.65 L391.8 136.35 390.9 136.35 388.95 134.65 390.35 134.65 M397.65 146.85 Q398.7 147.75 399.1 148.65 399.6 149.7 399.6 151.1 399.6 152.3 399.1 153.35 398.65 154.35 397.65 155.4 L397.25 155.0 398.6 153.1 399.05 151.1 Q399.05 149.85 398.6 148.95 398.2 148.1 397.25 147.2 L397.65 146.85 M387.95 148.2 L387.95 148.95 384.25 148.95 Q383.25 148.95 382.55 149.6 382.0 150.2 382.0 151.05 382.0 151.9 382.55 152.5 383.25 153.15 384.25 153.15 L387.95 153.15 387.95 153.9 384.25 153.9 Q382.9 153.9 382.05 153.1 381.2 152.2 381.2 151.05 381.2 149.85 382.05 149.0 382.9 148.2 384.25 148.2 L387.95 148.2 M362.55 99.75 L354.05 106.85 353.6 106.35 362.1 99.25 362.55 99.75 M350.9 100.95 Q350.5 101.85 350.5 103.1 350.5 104.15 350.9 105.1 L352.3 107.0 351.85 107.4 Q350.85 106.35 350.4 105.35 349.9 104.3 349.9 103.1 349.9 101.7 350.4 100.65 350.85 99.75 351.85 98.85 L352.3 99.2 Q351.3 100.1 350.9 100.95 M352.1 111.2 Q351.1 112.1 350.7 112.95 350.3 113.85 350.3 115.1 350.3 116.15 350.7 117.1 L352.1 119.0 351.65 119.4 Q350.65 118.35 350.2 117.35 349.7 116.3 349.7 115.1 349.7 113.7 350.2 112.65 350.65 111.75 351.65 110.85 L352.1 111.2 M353.4 118.35 L361.9 111.25 362.35 111.75 353.85 118.85 353.4 118.35 M352.3 123.2 Q351.3 124.1 350.9 124.95 350.5 125.85 350.5 127.1 350.5 128.15 350.9 129.1 L352.3 131.0 351.85 131.4 Q350.85 130.35 350.4 129.35 349.9 128.3 349.9 127.1 349.9 125.7 350.4 124.65 350.85 123.75 351.85 122.85 L352.3 123.2 M336.85 110.0 L336.85 119.95 335.65 119.95 335.65 110.0 336.85 110.0 M326.85 110.0 L326.85 119.95 325.65 119.95 325.65 110.0 326.85 110.0 M331.0 134.85 Q332.05 135.75 332.45 136.65 332.95 137.7 332.95 139.1 332.95 140.3 332.45 141.35 332.0 142.35 331.0 143.4 L330.6 143.0 331.95 141.1 332.4 139.1 Q332.4 137.85 331.95 136.95 331.55 136.1 330.6 135.2 L331.0 134.85 M329.65 131.15 L326.8 124.9 323.95 131.15 323.2 130.8 326.8 122.95 330.4 130.8 329.65 131.15 M326.45 139.85 L326.45 138.15 328.1 138.15 328.1 139.85 326.45 139.85 M333.4 147.15 L337.4 148.1 337.1 148.9 Q335.4 148.25 333.2 147.9 L333.4 147.15 M329.15 148.1 Q330.15 148.1 330.8 148.7 331.7 149.5 331.65 151.1 331.55 152.75 330.4 153.6 329.3 154.4 327.3 154.4 L327.1 153.5 Q329.4 153.5 330.2 152.55 330.8 151.95 330.8 150.75 330.8 149.95 330.35 149.45 329.95 149.0 329.25 148.95 328.5 148.9 327.25 149.35 326.7 149.55 325.1 150.25 L324.75 149.3 327.25 148.45 Q328.35 148.1 329.15 148.1 M362.55 135.75 L354.05 142.85 353.6 142.35 362.1 135.25 362.55 135.75 M352.3 135.2 Q351.3 136.1 350.9 136.95 350.5 137.85 350.5 139.1 350.5 140.15 350.9 141.1 L352.3 143.0 351.85 143.4 Q350.85 142.35 350.4 141.35 349.9 140.3 349.9 139.1 349.9 137.7 350.4 136.65 350.85 135.75 351.85 134.85 L352.3 135.2 M353.6 130.35 L362.1 123.25 362.55 123.75 354.05 130.85 353.6 130.35 M349.0 147.2 Q348.0 148.1 347.6 148.95 347.2 149.85 347.2 151.1 347.2 152.15 347.6 153.1 348.0 153.95 349.0 155.0 L348.55 155.4 Q347.55 154.35 347.1 153.35 346.6 152.3 346.6 151.1 346.6 149.7 347.1 148.65 347.55 147.75 348.55 146.85 L349.0 147.2 M359.25 147.75 L350.75 154.85 350.3 154.35 358.8 147.25 359.25 147.75 M361.0 146.85 L362.45 148.65 Q362.95 149.7 362.95 151.1 362.95 152.3 362.45 153.35 L361.0 155.4 360.6 155.0 361.95 153.1 Q362.4 152.15 362.4 151.1 362.4 149.85 361.95 148.95 361.55 148.1 360.6 147.2 L361.0 146.85 M363.25 159.75 L354.75 166.85 354.3 166.35 362.8 159.25 363.25 159.75 M345.4 159.65 Q345.9 159.65 346.25 160.0 346.75 160.5 346.75 161.65 L346.75 164.35 Q346.75 165.45 346.25 166.0 345.9 166.35 345.4 166.35 L344.55 166.0 Q344.05 165.45 344.05 164.35 L344.05 161.65 Q344.05 160.5 344.55 160.0 344.9 159.65 345.4 159.65 M345.4 160.4 Q345.25 160.4 345.1 160.55 344.8 160.8 344.8 161.65 L344.8 164.35 Q344.8 165.15 345.1 165.45 L345.4 165.6 345.7 165.45 346.0 164.35 346.0 161.65 Q346.0 160.8 345.7 160.55 345.55 160.4 345.4 160.4 M353.0 159.2 Q352.0 160.1 351.6 160.95 351.2 161.85 351.2 163.1 351.2 164.15 351.6 165.1 L353.0 167.0 352.55 167.4 Q351.55 166.35 351.1 165.35 350.6 164.3 350.6 163.1 350.6 161.7 351.1 160.65 351.55 159.75 352.55 158.85 L353.0 159.2 M348.25 163.0 Q348.25 161.15 346.95 159.9 345.7 158.6 343.85 158.6 342.0 158.6 340.7 159.9 339.45 161.15 339.45 163.0 339.45 164.85 340.7 166.15 342.0 167.4 343.85 167.4 345.7 167.4 346.95 166.15 348.25 164.85 348.25 163.0 M347.25 166.4 Q345.85 167.8 343.85 167.8 341.85 167.8 340.45 166.4 339.05 165.0 339.05 163.0 339.05 161.0 340.45 159.6 341.85 158.2 343.85 158.2 345.85 158.2 347.25 159.6 348.65 161.0 348.65 163.0 348.65 165.0 347.25 166.4 M347.6 171.75 L339.1 178.85 338.65 178.35 347.15 171.25 347.6 171.75 M352.45 172.1 Q351.65 176.5 349.2 178.7 L348.6 177.85 Q350.85 176.0 351.65 171.45 L352.45 171.85 Q352.7 172.0 352.45 172.1 M342.3 159.75 L342.8 159.75 342.8 166.25 342.0 166.25 342.0 161.0 340.9 161.0 340.9 160.5 Q342.2 160.5 342.3 159.75 M337.25 155.1 Q335.2 153.95 332.85 153.5 L333.15 152.75 Q336.0 153.35 337.75 154.2 L337.25 155.1 M337.15 150.85 L336.85 151.7 Q334.9 150.95 333.15 150.65 L333.3 149.85 335.2 150.25 337.15 150.85 M328.0 158.05 L328.0 167.95 327.25 167.95 327.25 158.05 328.0 158.05 M327.6 171.75 L319.1 178.85 318.65 178.35 327.15 171.25 327.6 171.75 M326.4 167.95 L316.45 167.95 316.45 167.55 326.4 167.55 326.4 167.95 M328.8 167.55 L338.75 167.55 338.75 167.95 328.8 167.95 328.8 167.55 M337.6 171.75 L329.1 178.85 328.65 178.35 337.15 171.25 337.6 171.75 M337.9 183.75 L329.4 190.85 328.95 190.35 337.45 183.25 337.9 183.75 M327.9 183.75 L319.4 190.85 318.95 190.35 327.45 183.25 327.9 183.75 M330.8 194.0 L340.75 194.0 340.75 194.45 330.8 194.45 330.8 194.0 M330.75 194.45 L320.8 194.45 320.8 194.0 330.75 194.0 330.75 194.45 M340.8 194.0 L350.75 194.0 350.75 194.45 340.8 194.45 340.8 194.0 M338.95 190.35 L347.45 183.25 347.9 183.75 339.4 190.85 338.95 190.35 M360.7 177.6 L360.7 178.5 360.2 179.55 359.8 179.55 360.2 178.5 359.8 178.5 359.8 177.6 360.7 177.6 M361.85 177.6 L362.75 177.6 362.75 178.5 362.25 179.55 361.85 179.55 362.25 178.5 361.85 178.5 361.85 177.6 M363.9 178.5 L363.9 177.6 364.8 177.6 364.8 178.5 364.3 179.55 363.9 179.55 364.3 178.5 363.9 178.5 M355.7 177.6 L356.6 177.6 356.6 178.5 356.1 179.55 355.7 179.55 356.1 178.5 355.7 178.5 355.7 177.6 M354.55 178.5 L354.05 179.55 353.65 179.55 354.05 178.5 353.65 178.5 353.65 177.6 354.55 177.6 354.55 178.5 M357.75 177.6 L358.65 177.6 358.65 178.5 358.15 179.55 357.75 179.55 358.15 178.5 357.75 178.5 357.75 177.6 M357.9 183.75 L349.4 190.85 348.95 190.35 357.45 183.25 357.9 183.75 M350.8 194.0 L360.75 194.0 360.75 194.45 350.8 194.45 350.8 194.0 M358.95 190.35 L367.45 183.25 367.9 183.75 359.4 190.85 358.95 190.35 M360.8 194.0 L370.75 194.0 370.75 194.45 360.8 194.45 360.8 194.0 M398.1 158.05 L398.1 167.95 397.35 167.95 397.35 158.05 398.1 158.05 M385.75 158.05 L385.75 167.95 385.0 167.95 385.0 158.05 385.75 158.05 M386.55 167.55 L396.5 167.55 396.5 167.95 386.55 167.95 386.55 167.55 M388.9 171.75 L380.4 178.85 379.95 178.35 388.45 171.25 388.9 171.75 M398.9 167.55 L408.85 167.55 408.85 167.95 398.9 167.95 398.9 167.55 M398.9 171.75 L390.4 178.85 389.95 178.35 398.45 171.25 398.9 171.75 M365.0 158.85 Q366.05 159.75 366.45 160.65 366.95 161.7 366.95 163.1 366.95 164.3 366.45 165.35 L365.0 167.4 364.6 167.0 365.95 165.1 366.4 163.1 Q366.4 161.85 365.95 160.95 L364.6 159.2 365.0 158.85 M373.4 158.05 L373.4 167.95 372.65 167.95 372.65 158.05 373.4 158.05 M368.8 167.1 L371.8 167.1 371.8 167.6 368.8 167.6 368.8 167.1 M374.2 167.55 L384.15 167.55 384.15 167.95 374.2 167.95 374.2 167.55 M377.9 183.75 L369.4 190.85 368.95 190.35 377.45 183.25 377.9 183.75 M366.35 173.6 L367.15 172.85 Q370.3 174.85 371.75 176.9 L370.8 177.7 Q369.3 175.55 366.35 173.6 M370.8 194.0 L380.75 194.0 380.75 194.45 370.8 194.45 370.8 194.0 M380.8 194.0 L390.75 194.0 390.75 194.45 380.8 194.45 380.8 194.0 M378.95 190.35 L387.45 183.25 387.9 183.75 379.4 190.85 378.95 190.35 M397.9 183.75 L389.4 190.85 388.95 190.35 397.45 183.25 397.9 183.75 M399.95 178.35 L408.45 171.25 408.9 171.75 400.4 178.85 399.95 178.35 M390.8 194.0 L400.75 194.0 400.75 194.45 390.8 194.45 390.8 194.0 M398.95 190.35 L407.45 183.25 407.9 183.75 399.4 190.85 398.95 190.35 M402.35 194.05 L402.35 203.95 401.6 203.95 401.6 194.05 402.35 194.05 M426.35 110.05 L427.1 110.05 427.1 119.95 426.35 119.95 426.35 110.05 M424.75 110.05 L424.75 119.95 424.0 119.95 424.0 110.05 424.75 110.05 M416.75 110.0 L416.75 119.95 415.55 119.95 415.55 110.0 416.75 110.0 M406.75 110.0 L406.75 119.95 405.55 119.95 405.55 110.0 406.75 110.0 M421.75 117.6 L422.65 117.6 422.65 118.5 421.75 118.5 421.75 117.6 M415.9 130.8 L419.5 122.95 423.1 130.8 422.35 131.15 419.5 124.9 416.65 131.15 415.9 130.8 M417.2 135.3 Q415.4 137.0 415.4 139.1 415.4 141.25 417.2 142.95 L416.75 143.4 Q414.8 141.55 414.8 139.1 414.8 136.7 416.75 134.85 L417.2 135.3 M418.65 134.25 L419.25 134.5 419.55 135.15 419.25 135.75 Q419.0 136.05 418.65 136.05 L418.0 135.75 417.75 135.15 Q417.75 134.8 418.0 134.5 418.3 134.25 418.65 134.25 M418.05 135.15 L418.2 135.55 Q418.35 135.75 418.65 135.75 418.9 135.75 419.05 135.55 L419.2 135.15 419.05 134.7 418.65 134.55 Q418.35 134.55 418.2 134.7 418.05 134.85 418.05 135.15 M421.95 141.8 Q423.1 140.15 423.1 137.6 L423.1 134.9 427.4 134.9 427.4 141.8 428.3 141.8 428.3 143.95 427.55 143.95 427.55 142.5 422.05 142.5 422.05 143.95 421.3 143.95 421.3 141.8 421.95 141.8 M422.85 141.8 L426.65 141.8 426.65 135.65 423.9 135.65 423.9 137.6 Q423.9 140.2 422.85 141.8 M416.25 148.2 L416.25 148.95 412.55 148.95 Q411.55 148.95 410.85 149.6 410.3 150.2 410.3 151.05 410.3 151.9 410.85 152.5 411.55 153.15 412.55 153.15 L416.25 153.15 416.25 153.9 412.55 153.9 Q411.2 153.9 410.35 153.1 409.5 152.2 409.5 151.05 409.5 149.85 410.35 149.0 411.2 148.2 412.55 148.2 L416.25 148.2 M435.85 134.85 Q437.8 136.7 437.8 139.1 437.8 141.55 435.85 143.4 L435.4 142.95 Q437.2 141.25 437.2 139.1 437.2 137.0 435.4 135.3 L435.85 134.85 M435.4 131.15 L432.55 124.9 429.7 131.15 428.95 130.8 432.55 122.95 436.15 130.8 435.4 131.15 M430.05 135.15 L430.3 134.5 430.95 134.25 Q431.3 134.25 431.55 134.5 L431.85 135.15 431.55 135.75 Q431.3 136.05 430.95 136.05 L430.3 135.75 430.05 135.15 M431.35 134.7 L430.95 134.55 Q430.65 134.55 430.5 134.7 430.35 134.85 430.35 135.15 L430.5 135.55 Q430.65 135.75 430.95 135.75 431.2 135.75 431.35 135.55 L431.5 135.15 431.35 134.7 M433.45 148.2 Q434.8 148.2 435.6 149.0 436.45 149.85 436.45 151.05 436.45 152.2 435.6 153.1 434.8 153.9 433.45 153.9 L429.7 153.9 429.7 153.15 433.45 153.15 Q434.45 153.15 435.1 152.5 435.7 151.9 435.7 151.05 435.7 150.2 435.1 149.6 434.45 148.95 433.45 148.95 L429.7 148.95 429.7 148.2 433.45 148.2 M432.5 158.05 L432.5 167.95 431.75 167.95 431.75 158.05 432.5 158.05 M435.4 170.05 L435.4 179.95 434.65 179.95 434.65 170.05 435.4 170.05 M420.45 158.05 L420.45 167.95 419.7 167.95 419.7 158.05 420.45 158.05 M408.9 167.55 L418.85 167.55 418.85 167.95 408.9 167.95 408.9 167.55 M418.9 171.75 L410.4 178.85 409.95 178.35 418.45 171.25 418.9 171.75 M421.0 170.05 L421.0 179.95 420.25 179.95 420.25 170.05 421.0 170.05 M423.35 170.05 L423.35 179.95 422.6 179.95 422.6 170.05 423.35 170.05 M419.7 182.05 L419.7 191.95 418.95 191.95 418.95 182.05 419.7 182.05 M423.45 183.75 L423.45 187.45 Q423.45 188.45 424.15 189.1 424.7 189.7 425.6 189.7 426.45 189.7 427.0 189.1 427.7 188.45 427.7 187.45 L427.7 183.75 428.45 183.75 428.45 187.45 Q428.45 188.8 427.6 189.6 426.75 190.5 425.6 190.5 424.4 190.5 423.55 189.6 422.75 188.8 422.75 187.45 L422.75 183.75 423.45 183.75 M419.6 194.05 L419.6 203.95 418.85 203.95 418.85 194.05 419.6 194.05 M440.95 175.5 Q440.05 174.95 439.45 174.95 438.8 174.95 438.45 175.35 L438.0 176.0 437.2 175.5 438.05 174.4 Q438.6 173.85 439.35 173.85 440.15 173.85 441.1 174.45 L442.9 175.1 Q443.4 175.1 443.9 174.6 L444.35 173.9 445.15 174.6 444.25 175.6 Q443.6 176.2 442.75 176.2 442.1 176.2 440.95 175.5 M438.45 183.75 L438.45 187.45 Q438.45 188.8 437.6 189.6 436.75 190.5 435.6 190.5 434.4 190.5 433.55 189.6 432.75 188.8 432.75 187.45 L432.75 183.75 433.45 183.75 433.45 187.45 Q433.45 188.45 434.15 189.1 434.7 189.7 435.6 189.7 436.45 189.7 437.0 189.1 437.7 188.45 437.7 187.45 L437.7 183.75 438.45 183.75 M401.5 206.05 L402.25 206.05 402.25 215.95 401.5 215.95 401.5 206.05 M356.6 206.85 L356.6 208.45 358.5 208.45 358.5 214.6 Q358.5 215.25 358.0 215.25 L357.05 215.25 357.0 214.5 357.7 214.5 357.8 214.35 357.8 212.3 357.45 212.85 356.4 211.2 Q356.1 212.4 355.4 213.1 L354.9 212.6 354.9 215.35 354.2 215.35 354.2 208.45 355.8 208.45 355.8 206.6 356.55 206.6 Q356.9 206.65 356.6 206.85 M354.9 209.1 L354.9 212.45 Q355.8 211.55 355.8 210.15 L355.8 209.1 354.9 209.1 M356.6 210.35 L357.8 211.7 357.8 209.1 356.6 209.1 356.6 210.35 M352.35 207.1 L351.1 208.75 351.65 209.25 352.85 207.7 353.45 208.15 353.3 208.3 351.4 210.7 353.0 210.55 352.6 209.85 353.2 209.55 354.15 211.15 353.45 211.5 353.25 211.1 352.4 211.25 352.4 215.4 351.6 215.4 351.6 211.35 350.15 211.5 Q350.1 211.8 349.95 211.65 L349.8 210.75 350.55 210.75 351.2 209.9 349.85 208.75 350.3 208.15 350.55 208.35 351.9 206.5 352.5 206.95 352.35 207.1 M353.5 211.95 L353.9 213.85 353.15 214.05 352.85 212.15 353.5 211.95 M351.2 212.45 L350.75 214.7 350.0 214.35 350.4 212.0 351.2 212.2 Q351.5 212.3 351.2 212.45 M334.95 206.6 L334.85 206.8 334.7 207.5 338.25 207.5 338.25 208.25 334.5 208.25 334.3 208.9 337.75 208.9 337.75 209.5 335.95 209.5 336.35 210.15 338.8 210.15 338.8 210.9 336.85 210.9 339.05 212.3 338.7 213.1 Q336.95 212.2 335.95 210.9 L333.35 210.9 Q332.25 212.35 330.6 213.25 L330.15 212.55 332.35 210.9 330.4 210.9 330.4 210.15 332.85 210.15 333.25 209.5 331.4 209.5 331.4 208.9 333.5 208.9 333.8 208.25 330.85 208.25 330.85 207.5 334.0 207.5 334.2 206.5 334.95 206.6 M335.15 209.5 L334.05 209.5 333.7 210.15 335.5 210.15 335.15 209.5 M332.6 212.1 L334.15 212.1 334.15 211.1 334.9 211.1 Q335.25 211.1 334.95 211.3 L334.95 212.1 336.55 212.1 336.55 212.75 334.95 212.75 334.95 213.45 337.75 213.45 337.75 214.05 334.95 214.05 334.95 215.5 334.15 215.5 334.15 214.05 331.35 214.05 331.35 213.45 334.15 213.45 334.15 212.75 332.6 212.75 332.6 212.1 M315.85 11.95 L315.85 6.4 321.4 6.4 321.4 7.6 317.05 7.6 317.05 11.95 315.85 11.95 M317.05 18.4 L321.4 18.4 321.4 19.6 315.85 19.6 315.85 14.0 317.05 14.0 317.05 18.4 M315.85 47.95 L315.85 42.4 321.4 42.4 321.4 43.6 317.05 43.6 317.05 47.95 315.85 47.95 M317.05 54.4 L321.4 54.4 321.4 55.6 315.85 55.6 315.85 50.0 317.05 50.0 317.05 54.4 M313.2 95.25 L312.45 95.25 312.45 89.7 314.7 89.7 314.7 86.9 318.15 86.9 318.15 89.7 320.4 89.7 320.4 95.15 319.6 95.15 319.6 94.8 313.2 94.8 313.2 95.25 M313.2 93.95 L319.6 93.95 319.6 90.55 318.15 90.55 318.15 91.1 317.35 91.1 317.35 87.75 315.45 87.75 315.45 91.2 314.7 91.2 314.7 90.55 313.2 90.55 313.2 93.95 M313.05 98.9 L313.05 105.8 316.0 105.8 316.0 98.9 316.8 98.9 316.8 105.8 319.75 105.8 319.75 98.9 320.55 98.9 320.55 106.5 312.25 106.5 312.25 98.9 313.05 98.9 M315.05 110.05 L315.05 119.95 314.3 119.95 314.3 110.05 315.05 110.05 M317.4 110.05 L317.4 119.95 316.65 119.95 316.65 110.05 317.4 110.05 M312.05 117.6 L312.95 117.6 312.95 118.5 312.05 118.5 312.05 117.6 M302.35 135.2 Q301.35 136.1 300.95 136.95 300.55 137.85 300.55 139.1 300.55 140.15 300.95 141.1 301.35 141.95 302.35 143.0 L301.9 143.4 Q300.9 142.35 300.45 141.35 299.95 140.3 299.95 139.1 299.95 137.7 300.45 136.65 300.9 135.75 301.9 134.85 L302.35 135.2 M302.35 147.2 Q301.35 148.1 300.95 148.95 300.55 149.85 300.55 151.1 300.55 152.15 300.95 153.1 301.35 153.95 302.35 155.0 L301.9 155.4 Q300.9 154.35 300.45 153.35 299.95 152.3 299.95 151.1 299.95 149.7 300.45 148.65 300.9 147.75 301.9 146.85 L302.35 147.2 M323.4 136.1 L319.8 142.65 316.2 136.1 316.95 135.7 317.85 137.3 321.75 137.3 322.65 135.7 323.4 136.1 M321.7 131.95 L311.75 131.95 311.75 131.55 321.7 131.55 321.7 131.95 M303.95 131.15 L303.2 130.8 306.8 122.95 310.4 130.8 309.65 131.15 306.8 124.9 303.95 131.15 M313.1 138.15 L313.1 139.85 311.45 139.85 311.45 138.15 313.1 138.15 M308.0 148.1 Q309.0 148.1 309.65 148.7 310.55 149.5 310.5 151.1 310.4 152.75 309.25 153.6 308.15 154.4 306.15 154.4 L305.95 153.5 Q308.25 153.5 309.05 152.55 309.65 151.95 309.65 150.75 309.65 149.95 309.2 149.45 308.8 149.0 308.1 148.95 L306.1 149.35 303.95 150.25 303.6 149.3 306.1 148.45 308.0 148.1 M319.8 140.9 L321.35 138.1 318.25 138.1 319.8 140.9 M315.65 158.05 L315.65 167.95 314.9 167.95 314.9 158.05 315.65 158.05 M304.1 167.55 L314.05 167.55 314.05 167.95 304.1 167.95 304.1 167.55 M307.6 171.75 L299.1 178.85 298.65 178.35 307.15 171.25 307.6 171.75 M317.6 171.75 L309.1 178.85 308.65 178.35 317.15 171.25 317.6 171.75 M303.3 158.05 L303.3 167.95 302.55 167.95 302.55 158.05 303.3 158.05 M297.9 183.75 L289.4 190.85 288.95 190.35 297.45 183.25 297.9 183.75 M290.8 194.0 L300.75 194.0 300.75 194.45 290.8 194.45 290.8 194.0 M290.0 194.05 L290.0 203.95 289.25 203.95 289.25 194.05 290.0 194.05 M300.8 194.0 L310.75 194.0 310.75 194.45 300.8 194.45 300.8 194.0 M298.95 190.35 L307.45 183.25 307.9 183.75 299.4 190.85 298.95 190.35 M317.9 183.75 L309.4 190.85 308.95 190.35 317.45 183.25 317.9 183.75 M310.8 194.0 L320.75 194.0 320.75 194.45 310.8 194.45 310.8 194.0 M289.25 206.05 L290.0 206.05 290.0 215.95 289.25 215.95 289.25 206.05" fill="#666666" fill-rule="evenodd" stroke="none"/>
    </g>
  </defs>
</svg>
