<?xml version="1.0" encoding="UTF-8" standalone="no"?>
<svg xmlns:ffdec="https://www.free-decompiler.com/flash" xmlns:xlink="http://www.w3.org/1999/xlink" ffdec:objectType="frame" height="280.0px" width="720.0px" xmlns="http://www.w3.org/2000/svg">
  <g transform="matrix(1.0, 0.0, 0.0, 1.0, 0.0, 0.0)">
    <use ffdec:characterId="1" height="0.0" transform="matrix(1.0, 0.0, 0.0, 1.0, 35.85, 26.85)" width="0.0" xlink:href="#sprite0"/>
    <use ffdec:characterId="3" height="211.45" transform="matrix(1.0, 0.0, 0.0, 1.0, 165.8, 4.25)" width="391.65" xlink:href="#text0"/>
    <use ffdec:characterId="4" height="10.8" transform="matrix(1.0, 0.0, 0.0, 1.0, 303.0, 12.85)" width="82.95" xlink:href="#text1"/>
    <use ffdec:characterId="5" height="11.1" transform="matrix(1.0, 0.0, 0.0, 1.0, 455.0, 178.1)" width="172.25" xlink:href="#text2"/>
  </g>
  <defs>
    <g id="text0" transform="matrix(1.0, 0.0, 0.0, 1.0, 0.0, -5.25)">
      <g transform="matrix(1.0, 0.0, 0.0, 1.0, 0.0, 0.0)">
        <use fill="#000000" height="211.45" transform="matrix(0.2344, 0.0, 0.0, 0.2344, 31.8, 10.3)" width="391.65" xlink:href="#font___________1"/>
        <use fill="#000000" height="211.45" transform="matrix(0.2344, 0.0, 0.0, 0.2344, 43.8, 10.3)" width="391.65" xlink:href="#font___________1"/>
        <use fill="#000000" height="211.45" transform="matrix(0.2344, 0.0, 0.0, 0.2344, 55.8, 10.3)" width="391.65" xlink:href="#font___________1"/>
        <use fill="#000000" height="211.45" transform="matrix(0.2344, 0.0, 0.0, 0.2344, 67.8, 10.3)" width="391.65" xlink:href="#font___________1"/>
        <use fill="#000000" height="211.45" transform="matrix(0.2344, 0.0, 0.0, 0.2344, 79.8, 10.3)" width="391.65" xlink:href="#font___________1"/>
        <use fill="#000000" height="211.45" transform="matrix(0.2344, 0.0, 0.0, 0.2344, 91.8, 10.3)" width="391.65" xlink:href="#font___________1"/>
        <use fill="#000000" height="211.45" transform="matrix(0.2344, 0.0, 0.0, 0.2344, 103.8, 10.3)" width="391.65" xlink:href="#font___________1"/>
      </g>
      <g transform="matrix(1.0, 0.0, 0.0, 1.0, 0.0, 0.0)">
        <use fill="#000000" height="211.45" transform="matrix(0.2344, 0.0, 0.0, 0.2344, 19.55, 24.3)" width="391.65" xlink:href="#font___________3"/>
        <use fill="#000000" height="211.45" transform="matrix(0.2344, 0.0, 0.0, 0.2344, 31.55, 24.3)" width="391.65" xlink:href="#font___________1"/>
        <use fill="#000000" height="211.45" transform="matrix(0.2344, 0.0, 0.0, 0.2344, 43.55, 24.3)" width="391.65" xlink:href="#font___________1"/>
        <use fill="#000000" height="211.45" transform="matrix(0.2344, 0.0, 0.0, 0.2344, 55.55, 24.3)" width="391.65" xlink:href="#font___________4"/>
        <use fill="#000000" height="211.45" transform="matrix(0.2344, 0.0, 0.0, 0.2344, 59.2, 24.3)" width="391.65" xlink:href="#font___________4"/>
        <use fill="#000000" height="211.45" transform="matrix(0.2344, 0.0, 0.0, 0.2344, 110.55, 24.3)" width="391.65" xlink:href="#font___________5"/>
        <use fill="#000000" height="211.45" transform="matrix(0.2344, 0.0, 0.0, 0.2344, 116.55, 24.3)" width="391.65" xlink:href="#font___________6"/>
      </g>
      <g transform="matrix(1.0, 0.0, 0.0, 1.0, 0.0, 0.0)">
        <use fill="#000000" height="211.45" transform="matrix(0.2344, 0.0, 0.0, 0.2344, 7.95, 38.3)" width="391.65" xlink:href="#font___________7"/>
        <use fill="#000000" height="211.45" transform="matrix(0.2344, 0.0, 0.0, 0.2344, 19.95, 38.3)" width="391.65" xlink:href="#font___________8"/>
        <use fill="#000000" height="211.45" transform="matrix(0.2344, 0.0, 0.0, 0.2344, 24.0, 38.3)" width="391.65" xlink:href="#font___________1"/>
        <use fill="#000000" height="211.45" transform="matrix(0.2344, 0.0, 0.0, 0.2344, 36.0, 38.3)" width="391.65" xlink:href="#font___________1"/>
        <use fill="#000000" height="211.45" transform="matrix(0.2344, 0.0, 0.0, 0.2344, 48.0, 38.3)" width="391.65" xlink:href="#font___________1"/>
        <use fill="#000000" height="211.45" transform="matrix(0.2344, 0.0, 0.0, 0.2344, 60.0, 38.3)" width="391.65" xlink:href="#font___________9"/>
        <use fill="#000000" height="211.45" transform="matrix(0.2344, 0.0, 0.0, 0.2344, 64.05, 38.3)" width="391.65" xlink:href="#font___________4"/>
        <use fill="#000000" height="211.45" transform="matrix(0.2344, 0.0, 0.0, 0.2344, 67.7, 38.3)" width="391.65" xlink:href="#font___________4"/>
        <use fill="#000000" height="211.45" transform="matrix(0.2344, 0.0, 0.0, 0.2344, 71.35, 38.3)" width="391.65" xlink:href="#font___________1"/>
        <use fill="#000000" height="211.45" transform="matrix(0.2344, 0.0, 0.0, 0.2344, 83.35, 38.3)" width="391.65" xlink:href="#font___________1"/>
        <use fill="#000000" height="211.45" transform="matrix(0.2344, 0.0, 0.0, 0.2344, 95.35, 38.3)" width="391.65" xlink:href="#font___________1"/>
        <use fill="#000000" height="211.45" transform="matrix(0.2344, 0.0, 0.0, 0.2344, 107.35, 38.3)" width="391.65" xlink:href="#font___________5"/>
        <use fill="#000000" height="211.45" transform="matrix(0.2344, 0.0, 0.0, 0.2344, 113.35, 38.3)" width="391.65" xlink:href="#font__________.0"/>
        <use fill="#000000" height="211.45" transform="matrix(0.2344, 0.0, 0.0, 0.2344, 115.8, 38.3)" width="391.65" xlink:href="#font___________5"/>
        <use fill="#000000" height="211.45" transform="matrix(0.2344, 0.0, 0.0, 0.2344, 248.35, 38.3)" width="391.65" xlink:href="#font__________r0"/>
        <use fill="#000000" height="211.45" transform="matrix(0.2344, 0.0, 0.0, 0.2344, 252.5, 38.3)" width="391.65" xlink:href="#font___________10"/>
        <use fill="#000000" height="211.45" transform="matrix(0.2344, 0.0, 0.0, 0.2344, 258.5, 38.3)" width="391.65" xlink:href="#font___________10"/>
        <use fill="#000000" height="211.45" transform="matrix(0.2344, 0.0, 0.0, 0.2344, 264.5, 38.3)" width="391.65" xlink:href="#font___________10"/>
        <use fill="#000000" height="211.45" transform="matrix(0.2344, 0.0, 0.0, 0.2344, 270.5, 38.3)" width="391.65" xlink:href="#font___________10"/>
        <use fill="#000000" height="211.45" transform="matrix(0.2344, 0.0, 0.0, 0.2344, 276.5, 38.3)" width="391.65" xlink:href="#font___________10"/>
        <use fill="#000000" height="211.45" transform="matrix(0.2344, 0.0, 0.0, 0.2344, 282.5, 38.3)" width="391.65" xlink:href="#font___________10"/>
        <use fill="#000000" height="211.45" transform="matrix(0.2344, 0.0, 0.0, 0.2344, 288.5, 38.3)" width="391.65" xlink:href="#font___________10"/>
        <use fill="#000000" height="211.45" transform="matrix(0.2344, 0.0, 0.0, 0.2344, 294.5, 38.3)" width="391.65" xlink:href="#font___________10"/>
        <use fill="#000000" height="211.45" transform="matrix(0.2344, 0.0, 0.0, 0.2344, 300.5, 38.3)" width="391.65" xlink:href="#font___________10"/>
        <use fill="#000000" height="211.45" transform="matrix(0.2344, 0.0, 0.0, 0.2344, 306.5, 38.3)" width="391.65" xlink:href="#font___________10"/>
        <use fill="#000000" height="211.45" transform="matrix(0.2344, 0.0, 0.0, 0.2344, 312.5, 38.3)" width="391.65" xlink:href="#font___________10"/>
        <use fill="#000000" height="211.45" transform="matrix(0.2344, 0.0, 0.0, 0.2344, 318.5, 38.3)" width="391.65" xlink:href="#font___________10"/>
        <use fill="#000000" height="211.45" transform="matrix(0.2344, 0.0, 0.0, 0.2344, 324.5, 38.3)" width="391.65" xlink:href="#font___________10"/>
        <use fill="#000000" height="211.45" transform="matrix(0.2344, 0.0, 0.0, 0.2344, 330.5, 38.3)" width="391.65" xlink:href="#font___________10"/>
      </g>
      <g transform="matrix(1.0, 0.0, 0.0, 1.0, 0.0, 0.0)">
        <use fill="#000000" height="211.45" transform="matrix(0.2344, 0.0, 0.0, 0.2344, 7.95, 52.3)" width="391.65" xlink:href="#font___________6"/>
        <use fill="#000000" height="211.45" transform="matrix(0.2344, 0.0, 0.0, 0.2344, 10.75, 52.3)" width="391.65" xlink:href="#font___________1"/>
        <use fill="#000000" height="211.45" transform="matrix(0.2344, 0.0, 0.0, 0.2344, 22.75, 52.3)" width="391.65" xlink:href="#font___________1"/>
        <use fill="#000000" height="211.45" transform="matrix(0.2344, 0.0, 0.0, 0.2344, 34.75, 52.3)" width="391.65" xlink:href="#font___________11"/>
        <use fill="#000000" height="211.45" transform="matrix(0.2344, 0.0, 0.0, 0.2344, 46.75, 52.3)" width="391.65" xlink:href="#font___________1"/>
        <use fill="#000000" height="211.45" transform="matrix(0.2344, 0.0, 0.0, 0.2344, 58.75, 52.3)" width="391.65" xlink:href="#font___________1"/>
        <use fill="#000000" height="211.45" transform="matrix(0.2344, 0.0, 0.0, 0.2344, 70.75, 52.3)" width="391.65" xlink:href="#font___________1"/>
        <use fill="#000000" height="211.45" transform="matrix(0.2344, 0.0, 0.0, 0.2344, 82.75, 52.3)" width="391.65" xlink:href="#font___________1"/>
        <use fill="#000000" height="211.45" transform="matrix(0.2344, 0.0, 0.0, 0.2344, 94.75, 52.3)" width="391.65" xlink:href="#font___________1"/>
        <use fill="#000000" height="211.45" transform="matrix(0.2344, 0.0, 0.0, 0.2344, 106.75, 52.3)" width="391.65" xlink:href="#font__________i0"/>
        <use fill="#000000" height="211.45" transform="matrix(0.2344, 0.0, 0.0, 0.2344, 109.3, 52.3)" width="391.65" xlink:href="#font___________5"/>
        <use fill="#000000" height="211.45" transform="matrix(0.2344, 0.0, 0.0, 0.2344, 118.95, 52.3)" width="391.65" xlink:href="#font___________6"/>
        <use fill="#000000" height="211.45" transform="matrix(0.2344, 0.0, 0.0, 0.2344, 164.5, 52.3)" width="391.65" xlink:href="#font___________12"/>
        <use fill="#000000" height="211.45" transform="matrix(0.2344, 0.0, 0.0, 0.2344, 176.5, 52.3)" width="391.65" xlink:href="#font___________1"/>
        <use fill="#000000" height="211.45" transform="matrix(0.2344, 0.0, 0.0, 0.2344, 188.5, 52.3)" width="391.65" xlink:href="#font___________12"/>
        <use fill="#000000" height="211.45" transform="matrix(0.2344, 0.0, 0.0, 0.2344, 250.55, 52.3)" width="391.65" xlink:href="#font___________6"/>
        <use fill="#000000" height="211.45" transform="matrix(0.2344, 0.0, 0.0, 0.2344, 253.35, 52.3)" width="391.65" xlink:href="#font___________6"/>
        <use fill="#000000" height="211.45" transform="matrix(0.2344, 0.0, 0.0, 0.2344, 259.8, 52.3)" width="391.65" xlink:href="#font___________13"/>
        <use fill="#000000" height="211.45" transform="matrix(0.2344, 0.0, 0.0, 0.2344, 265.8, 52.3)" width="391.65" xlink:href="#font___________14"/>
        <use fill="#000000" height="211.45" transform="matrix(0.2344, 0.0, 0.0, 0.2344, 277.8, 52.3)" width="391.65" xlink:href="#font___________14"/>
        <use fill="#000000" height="211.45" transform="matrix(0.2344, 0.0, 0.0, 0.2344, 289.8, 52.3)" width="391.65" xlink:href="#font___________14"/>
        <use fill="#000000" height="211.45" transform="matrix(0.2344, 0.0, 0.0, 0.2344, 301.8, 52.3)" width="391.65" xlink:href="#font___________4"/>
        <use fill="#000000" height="211.45" transform="matrix(0.2344, 0.0, 0.0, 0.2344, 305.45, 52.3)" width="391.65" xlink:href="#font___________1"/>
        <use fill="#000000" height="211.45" transform="matrix(0.2344, 0.0, 0.0, 0.2344, 317.45, 52.3)" width="391.65" xlink:href="#font___________1"/>
      </g>
      <g transform="matrix(1.0, 0.0, 0.0, 1.0, 0.0, 0.0)">
        <use fill="#000000" height="211.45" transform="matrix(0.2344, 0.0, 0.0, 0.2344, 7.95, 66.3)" width="391.65" xlink:href="#font___________6"/>
        <use fill="#000000" height="211.45" transform="matrix(0.2344, 0.0, 0.0, 0.2344, 14.4, 66.3)" width="391.65" xlink:href="#font___________6"/>
        <use fill="#000000" height="211.45" transform="matrix(0.2344, 0.0, 0.0, 0.2344, 17.2, 66.3)" width="391.65" xlink:href="#font__________:0"/>
        <use fill="#000000" height="211.45" transform="matrix(0.2344, 0.0, 0.0, 0.2344, 19.65, 66.3)" width="391.65" xlink:href="#font__________:0"/>
        <use fill="#000000" height="211.45" transform="matrix(0.2344, 0.0, 0.0, 0.2344, 22.1, 66.3)" width="391.65" xlink:href="#font__________:0"/>
        <use fill="#000000" height="211.45" transform="matrix(0.2344, 0.0, 0.0, 0.2344, 24.55, 66.3)" width="391.65" xlink:href="#font__________:0"/>
        <use fill="#000000" height="211.45" transform="matrix(0.2344, 0.0, 0.0, 0.2344, 27.0, 66.3)" width="391.65" xlink:href="#font__________:0"/>
        <use fill="#000000" height="211.45" transform="matrix(0.2344, 0.0, 0.0, 0.2344, 29.45, 66.3)" width="391.65" xlink:href="#font__________:0"/>
        <use fill="#000000" height="211.45" transform="matrix(0.2344, 0.0, 0.0, 0.2344, 31.9, 66.3)" width="391.65" xlink:href="#font___________15"/>
        <use fill="#000000" height="211.45" transform="matrix(0.2344, 0.0, 0.0, 0.2344, 35.55, 66.3)" width="391.65" xlink:href="#font___________1"/>
        <use fill="#000000" height="211.45" transform="matrix(0.2344, 0.0, 0.0, 0.2344, 47.55, 66.3)" width="391.65" xlink:href="#font___________1"/>
        <use fill="#000000" height="211.45" transform="matrix(0.2344, 0.0, 0.0, 0.2344, 59.55, 66.3)" width="391.65" xlink:href="#font___________1"/>
        <use fill="#000000" height="211.45" transform="matrix(0.2344, 0.0, 0.0, 0.2344, 71.55, 66.3)" width="391.65" xlink:href="#font___________16"/>
        <use fill="#000000" height="211.45" transform="matrix(0.2344, 0.0, 0.0, 0.2344, 75.2, 66.3)" width="391.65" xlink:href="#font___________4"/>
        <use fill="#000000" height="211.45" transform="matrix(0.2344, 0.0, 0.0, 0.2344, 78.85, 66.3)" width="391.65" xlink:href="#font___________6"/>
        <use fill="#000000" height="211.45" transform="matrix(0.2344, 0.0, 0.0, 0.2344, 81.65, 66.3)" width="391.65" xlink:href="#font___________1"/>
        <use fill="#000000" height="211.45" transform="matrix(0.2344, 0.0, 0.0, 0.2344, 93.65, 66.3)" width="391.65" xlink:href="#font___________1"/>
        <use fill="#000000" height="211.45" transform="matrix(0.2344, 0.0, 0.0, 0.2344, 105.65, 66.3)" width="391.65" xlink:href="#font___________6"/>
        <use fill="#000000" height="211.45" transform="matrix(0.2344, 0.0, 0.0, 0.2344, 116.4, 66.3)" width="391.65" xlink:href="#font__________.0"/>
        <use fill="#000000" height="211.45" transform="matrix(0.2344, 0.0, 0.0, 0.2344, 118.85, 66.3)" width="391.65" xlink:href="#font___________6"/>
        <use fill="#000000" height="211.45" transform="matrix(0.2344, 0.0, 0.0, 0.2344, 121.65, 66.3)" width="391.65" xlink:href="#font___________1"/>
        <use fill="#000000" height="211.45" transform="matrix(0.2344, 0.0, 0.0, 0.2344, 133.65, 66.3)" width="391.65" xlink:href="#font___________1"/>
        <use fill="#000000" height="211.45" transform="matrix(0.2344, 0.0, 0.0, 0.2344, 145.65, 66.3)" width="391.65" xlink:href="#font___________1"/>
        <use fill="#000000" height="211.45" transform="matrix(0.2344, 0.0, 0.0, 0.2344, 157.65, 66.3)" width="391.65" xlink:href="#font___________4"/>
        <use fill="#000000" height="211.45" transform="matrix(0.2344, 0.0, 0.0, 0.2344, 161.3, 66.3)" width="391.65" xlink:href="#font___________17"/>
        <use fill="#000000" height="211.45" transform="matrix(0.2344, 0.0, 0.0, 0.2344, 175.25, 66.3)" width="391.65" xlink:href="#font___________18"/>
        <use fill="#000000" height="211.45" transform="matrix(0.2344, 0.0, 0.0, 0.2344, 181.25, 66.3)" width="391.65" xlink:href="#font___________4"/>
        <use fill="#000000" height="211.45" transform="matrix(0.2344, 0.0, 0.0, 0.2344, 184.9, 66.3)" width="391.65" xlink:href="#font___________19"/>
        <use fill="#000000" height="211.45" transform="matrix(0.2344, 0.0, 0.0, 0.2344, 193.7, 66.3)" width="391.65" xlink:href="#font___________20"/>
        <use fill="#000000" height="211.45" transform="matrix(0.2344, 0.0, 0.0, 0.2344, 198.65, 66.3)" width="391.65" xlink:href="#font___________21"/>
        <use fill="#000000" height="211.45" transform="matrix(0.2344, 0.0, 0.0, 0.2344, 204.65, 66.3)" width="391.65" xlink:href="#font___________1"/>
        <use fill="#000000" height="211.45" transform="matrix(0.2344, 0.0, 0.0, 0.2344, 216.65, 66.3)" width="391.65" xlink:href="#font___________1"/>
        <use fill="#000000" height="211.45" transform="matrix(0.2344, 0.0, 0.0, 0.2344, 228.65, 66.3)" width="391.65" xlink:href="#font___________1"/>
        <use fill="#000000" height="211.45" transform="matrix(0.2344, 0.0, 0.0, 0.2344, 240.65, 66.3)" width="391.65" xlink:href="#font___________1"/>
        <use fill="#000000" height="211.45" transform="matrix(0.2344, 0.0, 0.0, 0.2344, 252.65, 66.3)" width="391.65" xlink:href="#font___________6"/>
        <use fill="#000000" height="211.45" transform="matrix(0.2344, 0.0, 0.0, 0.2344, 255.45, 66.3)" width="391.65" xlink:href="#font___________6"/>
        <use fill="#000000" height="211.45" transform="matrix(0.2344, 0.0, 0.0, 0.2344, 258.25, 66.3)" width="391.65" xlink:href="#font__________r0"/>
        <use fill="#000000" height="211.45" transform="matrix(0.2344, 0.0, 0.0, 0.2344, 262.4, 66.3)" width="391.65" xlink:href="#font___________22"/>
        <use fill="#000000" height="211.45" transform="matrix(0.2344, 0.0, 0.0, 0.2344, 274.4, 66.3)" width="391.65" xlink:href="#font___________22"/>
        <use fill="#000000" height="211.45" transform="matrix(0.2344, 0.0, 0.0, 0.2344, 286.4, 66.3)" width="391.65" xlink:href="#font___________22"/>
        <use fill="#000000" height="211.45" transform="matrix(0.2344, 0.0, 0.0, 0.2344, 298.4, 66.3)" width="391.65" xlink:href="#font___________15"/>
        <use fill="#000000" height="211.45" transform="matrix(0.2344, 0.0, 0.0, 0.2344, 302.05, 66.3)" width="391.65" xlink:href="#font___________23"/>
        <use fill="#000000" height="211.45" transform="matrix(0.2344, 0.0, 0.0, 0.2344, 311.0, 66.3)" width="391.65" xlink:href="#font___________1"/>
        <use fill="#000000" height="211.45" transform="matrix(0.2344, 0.0, 0.0, 0.2344, 323.0, 66.3)" width="391.65" xlink:href="#font___________1"/>
        <use fill="#000000" height="211.45" transform="matrix(0.2344, 0.0, 0.0, 0.2344, 335.0, 66.3)" width="391.65" xlink:href="#font___________23"/>
      </g>
      <g transform="matrix(1.0, 0.0, 0.0, 1.0, 0.0, 0.0)">
        <use fill="#000000" height="211.45" transform="matrix(0.2344, 0.0, 0.0, 0.2344, 7.95, 80.3)" width="391.65" xlink:href="#font___________6"/>
        <use fill="#000000" height="211.45" transform="matrix(0.2344, 0.0, 0.0, 0.2344, 14.4, 80.3)" width="391.65" xlink:href="#font___________6"/>
        <use fill="#000000" height="211.45" transform="matrix(0.2344, 0.0, 0.0, 0.2344, 17.2, 80.3)" width="391.65" xlink:href="#font__________:0"/>
        <use fill="#000000" height="211.45" transform="matrix(0.2344, 0.0, 0.0, 0.2344, 19.65, 80.3)" width="391.65" xlink:href="#font__________:0"/>
        <use fill="#000000" height="211.45" transform="matrix(0.2344, 0.0, 0.0, 0.2344, 22.1, 80.3)" width="391.65" xlink:href="#font__________:0"/>
        <use fill="#000000" height="211.45" transform="matrix(0.2344, 0.0, 0.0, 0.2344, 24.55, 80.3)" width="391.65" xlink:href="#font___________5"/>
        <use fill="#000000" height="211.45" transform="matrix(0.2344, 0.0, 0.0, 0.2344, 45.8, 80.3)" width="391.65" xlink:href="#font___________6"/>
        <use fill="#000000" height="211.45" transform="matrix(0.2344, 0.0, 0.0, 0.2344, 48.6, 80.3)" width="391.65" xlink:href="#font___________6"/>
        <use fill="#000000" height="211.45" transform="matrix(0.2344, 0.0, 0.0, 0.2344, 74.6, 80.3)" width="391.65" xlink:href="#font__________.0"/>
        <use fill="#000000" height="211.45" transform="matrix(0.2344, 0.0, 0.0, 0.2344, 77.05, 80.3)" width="391.65" xlink:href="#font___________6"/>
        <use fill="#000000" height="211.45" transform="matrix(0.2344, 0.0, 0.0, 0.2344, 79.85, 80.3)" width="391.65" xlink:href="#font___________1"/>
        <use fill="#000000" height="211.45" transform="matrix(0.2344, 0.0, 0.0, 0.2344, 91.85, 80.3)" width="391.65" xlink:href="#font___________1"/>
        <use fill="#000000" height="211.45" transform="matrix(0.2344, 0.0, 0.0, 0.2344, 103.85, 80.3)" width="391.65" xlink:href="#font___________6"/>
        <use fill="#000000" height="211.45" transform="matrix(0.2344, 0.0, 0.0, 0.2344, 110.3, 80.3)" width="391.65" xlink:href="#font__________.0"/>
        <use fill="#000000" height="211.45" transform="matrix(0.2344, 0.0, 0.0, 0.2344, 112.75, 80.3)" width="391.65" xlink:href="#font___________5"/>
        <use fill="#000000" height="211.45" transform="matrix(0.2344, 0.0, 0.0, 0.2344, 118.75, 80.3)" width="391.65" xlink:href="#font__________.0"/>
        <use fill="#000000" height="211.45" transform="matrix(0.2344, 0.0, 0.0, 0.2344, 156.65, 80.3)" width="391.65" xlink:href="#font___________3"/>
        <use fill="#000000" height="211.45" transform="matrix(0.2344, 0.0, 0.0, 0.2344, 192.5, 80.3)" width="391.65" xlink:href="#font___________24"/>
        <use fill="#000000" height="211.45" transform="matrix(0.2344, 0.0, 0.0, 0.2344, 244.25, 80.3)" width="391.65" xlink:href="#font__________.0"/>
        <use fill="#000000" height="211.45" transform="matrix(0.2344, 0.0, 0.0, 0.2344, 246.7, 80.3)" width="391.65" xlink:href="#font__________.0"/>
        <use fill="#000000" height="211.45" transform="matrix(0.2344, 0.0, 0.0, 0.2344, 249.15, 80.3)" width="391.65" xlink:href="#font___________6"/>
        <use fill="#000000" height="211.45" transform="matrix(0.2344, 0.0, 0.0, 0.2344, 251.95, 80.3)" width="391.65" xlink:href="#font___________6"/>
        <use fill="#000000" height="211.45" transform="matrix(0.2344, 0.0, 0.0, 0.2344, 254.75, 80.3)" width="391.65" xlink:href="#font___________24"/>
        <use fill="#000000" height="211.45" transform="matrix(0.2344, 0.0, 0.0, 0.2344, 266.75, 80.3)" width="391.65" xlink:href="#font__________r0"/>
        <use fill="#000000" height="211.45" transform="matrix(0.2344, 0.0, 0.0, 0.2344, 270.9, 80.3)" width="391.65" xlink:href="#font___________22"/>
        <use fill="#000000" height="211.45" transform="matrix(0.2344, 0.0, 0.0, 0.2344, 282.9, 80.3)" width="391.65" xlink:href="#font___________22"/>
        <use fill="#000000" height="211.45" transform="matrix(0.2344, 0.0, 0.0, 0.2344, 294.9, 80.3)" width="391.65" xlink:href="#font___________22"/>
        <use fill="#000000" height="211.45" transform="matrix(0.2344, 0.0, 0.0, 0.2344, 306.9, 80.3)" width="391.65" xlink:href="#font___________22"/>
        <use fill="#000000" height="211.45" transform="matrix(0.2344, 0.0, 0.0, 0.2344, 318.9, 80.3)" width="391.65" xlink:href="#font___________22"/>
        <use fill="#000000" height="211.45" transform="matrix(0.2344, 0.0, 0.0, 0.2344, 330.9, 80.3)" width="391.65" xlink:href="#font___________22"/>
        <use fill="#000000" height="211.45" transform="matrix(0.2344, 0.0, 0.0, 0.2344, 342.9, 80.3)" width="391.65" xlink:href="#font___________22"/>
      </g>
      <g transform="matrix(1.0, 0.0, 0.0, 1.0, 0.0, 0.0)">
        <use fill="#000000" height="211.45" transform="matrix(0.2344, 0.0, 0.0, 0.2344, 7.95, 94.3)" width="391.65" xlink:href="#font___________6"/>
        <use fill="#000000" height="211.45" transform="matrix(0.2344, 0.0, 0.0, 0.2344, 10.75, 94.3)" width="391.65" xlink:href="#font___________4"/>
        <use fill="#000000" height="211.45" transform="matrix(0.2344, 0.0, 0.0, 0.2344, 14.4, 94.3)" width="391.65" xlink:href="#font___________6"/>
        <use fill="#000000" height="211.45" transform="matrix(0.2344, 0.0, 0.0, 0.2344, 17.2, 94.3)" width="391.65" xlink:href="#font___________5"/>
        <use fill="#000000" height="211.45" transform="matrix(0.2344, 0.0, 0.0, 0.2344, 31.15, 94.3)" width="391.65" xlink:href="#font___________1"/>
        <use fill="#000000" height="211.45" transform="matrix(0.2344, 0.0, 0.0, 0.2344, 43.15, 94.3)" width="391.65" xlink:href="#font___________25"/>
        <use fill="#000000" height="211.45" transform="matrix(0.2344, 0.0, 0.0, 0.2344, 55.15, 94.3)" width="391.65" xlink:href="#font___________1"/>
        <use fill="#000000" height="211.45" transform="matrix(0.2344, 0.0, 0.0, 0.2344, 75.1, 94.3)" width="391.65" xlink:href="#font__________.0"/>
        <use fill="#000000" height="211.45" transform="matrix(0.2344, 0.0, 0.0, 0.2344, 77.55, 94.3)" width="391.65" xlink:href="#font___________6"/>
        <use fill="#000000" height="211.45" transform="matrix(0.2344, 0.0, 0.0, 0.2344, 80.35, 94.3)" width="391.65" xlink:href="#font___________1"/>
        <use fill="#000000" height="211.45" transform="matrix(0.2344, 0.0, 0.0, 0.2344, 92.35, 94.3)" width="391.65" xlink:href="#font___________1"/>
        <use fill="#000000" height="211.45" transform="matrix(0.2344, 0.0, 0.0, 0.2344, 104.35, 94.3)" width="391.65" xlink:href="#font___________6"/>
        <use fill="#000000" height="211.45" transform="matrix(0.2344, 0.0, 0.0, 0.2344, 107.15, 94.3)" width="391.65" xlink:href="#font___________5"/>
        <use fill="#000000" height="211.45" transform="matrix(0.2344, 0.0, 0.0, 0.2344, 113.15, 94.3)" width="391.65" xlink:href="#font__________.0"/>
        <use fill="#000000" height="211.45" transform="matrix(0.2344, 0.0, 0.0, 0.2344, 151.05, 94.3)" width="391.65" xlink:href="#font___________5"/>
        <use fill="#000000" height="211.45" transform="matrix(0.2344, 0.0, 0.0, 0.2344, 184.55, 94.3)" width="391.65" xlink:href="#font___________5"/>
        <use fill="#000000" height="211.45" transform="matrix(0.2344, 0.0, 0.0, 0.2344, 190.55, 94.3)" width="391.65" xlink:href="#font___________14"/>
        <use fill="#000000" height="211.45" transform="matrix(0.2344, 0.0, 0.0, 0.2344, 202.55, 94.3)" width="391.65" xlink:href="#font___________14"/>
        <use fill="#000000" height="211.45" transform="matrix(0.2344, 0.0, 0.0, 0.2344, 214.55, 94.3)" width="391.65" xlink:href="#font___________14"/>
        <use fill="#000000" height="211.45" transform="matrix(0.2344, 0.0, 0.0, 0.2344, 226.55, 94.3)" width="391.65" xlink:href="#font___________14"/>
        <use fill="#000000" height="211.45" transform="matrix(0.2344, 0.0, 0.0, 0.2344, 238.55, 94.3)" width="391.65" xlink:href="#font___________5"/>
        <use fill="#000000" height="211.45" transform="matrix(0.2344, 0.0, 0.0, 0.2344, 248.2, 94.3)" width="391.65" xlink:href="#font__________.0"/>
        <use fill="#000000" height="211.45" transform="matrix(0.2344, 0.0, 0.0, 0.2344, 250.65, 94.3)" width="391.65" xlink:href="#font___________6"/>
        <use fill="#000000" height="211.45" transform="matrix(0.2344, 0.0, 0.0, 0.2344, 253.45, 94.3)" width="391.65" xlink:href="#font___________6"/>
        <use fill="#000000" height="211.45" transform="matrix(0.2344, 0.0, 0.0, 0.2344, 256.25, 94.3)" width="391.65" xlink:href="#font___________24"/>
        <use fill="#000000" height="211.45" transform="matrix(0.2344, 0.0, 0.0, 0.2344, 268.25, 94.3)" width="391.65" xlink:href="#font___________12"/>
        <use fill="#000000" height="211.45" transform="matrix(0.2344, 0.0, 0.0, 0.2344, 280.25, 94.3)" width="391.65" xlink:href="#font___________1"/>
        <use fill="#000000" height="211.45" transform="matrix(0.2344, 0.0, 0.0, 0.2344, 292.25, 94.3)" width="391.65" xlink:href="#font___________12"/>
        <use fill="#000000" height="211.45" transform="matrix(0.2344, 0.0, 0.0, 0.2344, 304.25, 94.3)" width="391.65" xlink:href="#font__________:0"/>
        <use fill="#000000" height="211.45" transform="matrix(0.2344, 0.0, 0.0, 0.2344, 306.7, 94.3)" width="391.65" xlink:href="#font__________:0"/>
        <use fill="#000000" height="211.45" transform="matrix(0.2344, 0.0, 0.0, 0.2344, 309.15, 94.3)" width="391.65" xlink:href="#font__________:0"/>
        <use fill="#000000" height="211.45" transform="matrix(0.2344, 0.0, 0.0, 0.2344, 311.6, 94.3)" width="391.65" xlink:href="#font__________:0"/>
        <use fill="#000000" height="211.45" transform="matrix(0.2344, 0.0, 0.0, 0.2344, 314.05, 94.3)" width="391.65" xlink:href="#font__________:0"/>
        <use fill="#000000" height="211.45" transform="matrix(0.2344, 0.0, 0.0, 0.2344, 316.5, 94.3)" width="391.65" xlink:href="#font__________:0"/>
        <use fill="#000000" height="211.45" transform="matrix(0.2344, 0.0, 0.0, 0.2344, 318.95, 94.3)" width="391.65" xlink:href="#font__________:0"/>
        <use fill="#000000" height="211.45" transform="matrix(0.2344, 0.0, 0.0, 0.2344, 321.4, 94.3)" width="391.65" xlink:href="#font__________:0"/>
        <use fill="#000000" height="211.45" transform="matrix(0.2344, 0.0, 0.0, 0.2344, 323.85, 94.3)" width="391.65" xlink:href="#font__________:0"/>
        <use fill="#000000" height="211.45" transform="matrix(0.2344, 0.0, 0.0, 0.2344, 326.3, 94.3)" width="391.65" xlink:href="#font__________:0"/>
        <use fill="#000000" height="211.45" transform="matrix(0.2344, 0.0, 0.0, 0.2344, 328.75, 94.3)" width="391.65" xlink:href="#font__________:0"/>
        <use fill="#000000" height="211.45" transform="matrix(0.2344, 0.0, 0.0, 0.2344, 331.2, 94.3)" width="391.65" xlink:href="#font__________:0"/>
        <use fill="#000000" height="211.45" transform="matrix(0.2344, 0.0, 0.0, 0.2344, 333.65, 94.3)" width="391.65" xlink:href="#font__________:0"/>
        <use fill="#000000" height="211.45" transform="matrix(0.2344, 0.0, 0.0, 0.2344, 336.1, 94.3)" width="391.65" xlink:href="#font__________:0"/>
        <use fill="#000000" height="211.45" transform="matrix(0.2344, 0.0, 0.0, 0.2344, 338.55, 94.3)" width="391.65" xlink:href="#font__________:0"/>
        <use fill="#000000" height="211.45" transform="matrix(0.2344, 0.0, 0.0, 0.2344, 341.0, 94.3)" width="391.65" xlink:href="#font__________:0"/>
        <use fill="#000000" height="211.45" transform="matrix(0.2344, 0.0, 0.0, 0.2344, 343.45, 94.3)" width="391.65" xlink:href="#font___________26"/>
        <use fill="#000000" height="211.45" transform="matrix(0.2344, 0.0, 0.0, 0.2344, 345.9, 94.3)" width="391.65" xlink:href="#font___________26"/>
        <use fill="#000000" height="211.45" transform="matrix(0.2344, 0.0, 0.0, 0.2344, 348.35, 94.3)" width="391.65" xlink:href="#font___________26"/>
        <use fill="#000000" height="211.45" transform="matrix(0.2344, 0.0, 0.0, 0.2344, 350.8, 94.3)" width="391.65" xlink:href="#font___________26"/>
        <use fill="#000000" height="211.45" transform="matrix(0.2344, 0.0, 0.0, 0.2344, 353.25, 94.3)" width="391.65" xlink:href="#font___________26"/>
        <use fill="#000000" height="211.45" transform="matrix(0.2344, 0.0, 0.0, 0.2344, 355.7, 94.3)" width="391.65" xlink:href="#font___________26"/>
        <use fill="#000000" height="211.45" transform="matrix(0.2344, 0.0, 0.0, 0.2344, 358.15, 94.3)" width="391.65" xlink:href="#font___________26"/>
        <use fill="#000000" height="211.45" transform="matrix(0.2344, 0.0, 0.0, 0.2344, 360.6, 94.3)" width="391.65" xlink:href="#font___________26"/>
      </g>
      <g transform="matrix(1.0, 0.0, 0.0, 1.0, 0.0, 0.0)">
        <use fill="#000000" height="211.45" transform="matrix(0.2344, 0.0, 0.0, 0.2344, 0.0, 108.3)" width="391.65" xlink:href="#font___________1"/>
        <use fill="#000000" height="211.45" transform="matrix(0.2344, 0.0, 0.0, 0.2344, 12.0, 108.3)" width="391.65" xlink:href="#font___________1"/>
        <use fill="#000000" height="211.45" transform="matrix(0.2344, 0.0, 0.0, 0.2344, 31.95, 108.3)" width="391.65" xlink:href="#font___________14"/>
        <use fill="#000000" height="211.45" transform="matrix(0.2344, 0.0, 0.0, 0.2344, 43.95, 108.3)" width="391.65" xlink:href="#font___________14"/>
        <use fill="#000000" height="211.45" transform="matrix(0.2344, 0.0, 0.0, 0.2344, 55.95, 108.3)" width="391.65" xlink:href="#font___________14"/>
        <use fill="#000000" height="211.45" transform="matrix(0.2344, 0.0, 0.0, 0.2344, 67.95, 108.3)" width="391.65" xlink:href="#font__________.0"/>
        <use fill="#000000" height="211.45" transform="matrix(0.2344, 0.0, 0.0, 0.2344, 137.65, 108.3)" width="391.65" xlink:href="#font___________1"/>
        <use fill="#000000" height="211.45" transform="matrix(0.2344, 0.0, 0.0, 0.2344, 149.65, 108.3)" width="391.65" xlink:href="#font___________15"/>
        <use fill="#000000" height="211.45" transform="matrix(0.2344, 0.0, 0.0, 0.2344, 153.3, 108.3)" width="391.65" xlink:href="#font___________4"/>
        <use fill="#000000" height="211.45" transform="matrix(0.2344, 0.0, 0.0, 0.2344, 156.95, 108.3)" width="391.65" xlink:href="#font___________4"/>
        <use fill="#000000" height="211.45" transform="matrix(0.2344, 0.0, 0.0, 0.2344, 160.6, 108.3)" width="391.65" xlink:href="#font___________27"/>
        <use fill="#000000" height="211.45" transform="matrix(0.2344, 0.0, 0.0, 0.2344, 167.75, 108.3)" width="391.65" xlink:href="#font___________28"/>
        <use fill="#000000" height="211.45" transform="matrix(0.2344, 0.0, 0.0, 0.2344, 179.2, 108.3)" width="391.65" xlink:href="#font___________5"/>
        <use fill="#000000" height="211.45" transform="matrix(0.2344, 0.0, 0.0, 0.2344, 196.8, 108.3)" width="391.65" xlink:href="#font__________F0"/>
        <use fill="#000000" height="211.45" transform="matrix(0.2344, 0.0, 0.0, 0.2344, 203.4, 108.3)" width="391.65" xlink:href="#font__________M0"/>
        <use fill="#000000" height="211.45" transform="matrix(0.2344, 0.0, 0.0, 0.2344, 212.3, 108.3)" width="391.65" xlink:href="#font__________V0"/>
        <use fill="#000000" height="211.45" transform="matrix(0.2344, 0.0, 0.0, 0.2344, 231.5, 108.3)" width="391.65" xlink:href="#font___________5"/>
        <use fill="#000000" height="211.45" transform="matrix(0.2344, 0.0, 0.0, 0.2344, 237.5, 108.3)" width="391.65" xlink:href="#font__________.0"/>
        <use fill="#000000" height="211.45" transform="matrix(0.2344, 0.0, 0.0, 0.2344, 247.9, 108.3)" width="391.65" xlink:href="#font__________.0"/>
        <use fill="#000000" height="211.45" transform="matrix(0.2344, 0.0, 0.0, 0.2344, 250.35, 108.3)" width="391.65" xlink:href="#font___________6"/>
        <use fill="#000000" height="211.45" transform="matrix(0.2344, 0.0, 0.0, 0.2344, 253.15, 108.3)" width="391.65" xlink:href="#font___________6"/>
        <use fill="#000000" height="211.45" transform="matrix(0.2344, 0.0, 0.0, 0.2344, 259.6, 108.3)" width="391.65" xlink:href="#font___________17"/>
        <use fill="#000000" height="211.45" transform="matrix(0.2344, 0.0, 0.0, 0.2344, 265.6, 108.3)" width="391.65" xlink:href="#font___________18"/>
        <use fill="#000000" height="211.45" transform="matrix(0.2344, 0.0, 0.0, 0.2344, 271.6, 108.3)" width="391.65" xlink:href="#font___________29"/>
        <use fill="#000000" height="211.45" transform="matrix(0.2344, 0.0, 0.0, 0.2344, 277.6, 108.3)" width="391.65" xlink:href="#font___________4"/>
        <use fill="#000000" height="211.45" transform="matrix(0.2344, 0.0, 0.0, 0.2344, 281.25, 108.3)" width="391.65" xlink:href="#font___________30"/>
        <use fill="#000000" height="211.45" transform="matrix(0.2344, 0.0, 0.0, 0.2344, 295.2, 108.3)" width="391.65" xlink:href="#font___________21"/>
        <use fill="#000000" height="211.45" transform="matrix(0.2344, 0.0, 0.0, 0.2344, 301.2, 108.3)" width="391.65" xlink:href="#font__________:0"/>
        <use fill="#000000" height="211.45" transform="matrix(0.2344, 0.0, 0.0, 0.2344, 303.65, 108.3)" width="391.65" xlink:href="#font__________:0"/>
        <use fill="#000000" height="211.45" transform="matrix(0.2344, 0.0, 0.0, 0.2344, 306.1, 108.3)" width="391.65" xlink:href="#font__________:0"/>
        <use fill="#000000" height="211.45" transform="matrix(0.2344, 0.0, 0.0, 0.2344, 308.55, 108.3)" width="391.65" xlink:href="#font__________:0"/>
        <use fill="#000000" height="211.45" transform="matrix(0.2344, 0.0, 0.0, 0.2344, 311.0, 108.3)" width="391.65" xlink:href="#font__________:0"/>
        <use fill="#000000" height="211.45" transform="matrix(0.2344, 0.0, 0.0, 0.2344, 313.45, 108.3)" width="391.65" xlink:href="#font__________:0"/>
        <use fill="#000000" height="211.45" transform="matrix(0.2344, 0.0, 0.0, 0.2344, 315.9, 108.3)" width="391.65" xlink:href="#font__________:0"/>
        <use fill="#000000" height="211.45" transform="matrix(0.2344, 0.0, 0.0, 0.2344, 318.35, 108.3)" width="391.65" xlink:href="#font__________:0"/>
        <use fill="#000000" height="211.45" transform="matrix(0.2344, 0.0, 0.0, 0.2344, 320.8, 108.3)" width="391.65" xlink:href="#font__________:0"/>
        <use fill="#000000" height="211.45" transform="matrix(0.2344, 0.0, 0.0, 0.2344, 323.25, 108.3)" width="391.65" xlink:href="#font__________:0"/>
        <use fill="#000000" height="211.45" transform="matrix(0.2344, 0.0, 0.0, 0.2344, 325.7, 108.3)" width="391.65" xlink:href="#font__________:0"/>
        <use fill="#000000" height="211.45" transform="matrix(0.2344, 0.0, 0.0, 0.2344, 328.15, 108.3)" width="391.65" xlink:href="#font__________:0"/>
        <use fill="#000000" height="211.45" transform="matrix(0.2344, 0.0, 0.0, 0.2344, 330.6, 108.3)" width="391.65" xlink:href="#font__________:0"/>
        <use fill="#000000" height="211.45" transform="matrix(0.2344, 0.0, 0.0, 0.2344, 333.05, 108.3)" width="391.65" xlink:href="#font__________:0"/>
        <use fill="#000000" height="211.45" transform="matrix(0.2344, 0.0, 0.0, 0.2344, 335.5, 108.3)" width="391.65" xlink:href="#font__________:0"/>
        <use fill="#000000" height="211.45" transform="matrix(0.2344, 0.0, 0.0, 0.2344, 337.95, 108.3)" width="391.65" xlink:href="#font__________:0"/>
        <use fill="#000000" height="211.45" transform="matrix(0.2344, 0.0, 0.0, 0.2344, 340.4, 108.3)" width="391.65" xlink:href="#font__________:0"/>
        <use fill="#000000" height="211.45" transform="matrix(0.2344, 0.0, 0.0, 0.2344, 342.85, 108.3)" width="391.65" xlink:href="#font__________:0"/>
        <use fill="#000000" height="211.45" transform="matrix(0.2344, 0.0, 0.0, 0.2344, 345.3, 108.3)" width="391.65" xlink:href="#font__________:0"/>
        <use fill="#000000" height="211.45" transform="matrix(0.2344, 0.0, 0.0, 0.2344, 347.75, 108.3)" width="391.65" xlink:href="#font__________:0"/>
        <use fill="#000000" height="211.45" transform="matrix(0.2344, 0.0, 0.0, 0.2344, 350.2, 108.3)" width="391.65" xlink:href="#font__________:0"/>
        <use fill="#000000" height="211.45" transform="matrix(0.2344, 0.0, 0.0, 0.2344, 352.65, 108.3)" width="391.65" xlink:href="#font___________26"/>
        <use fill="#000000" height="211.45" transform="matrix(0.2344, 0.0, 0.0, 0.2344, 355.1, 108.3)" width="391.65" xlink:href="#font___________26"/>
        <use fill="#000000" height="211.45" transform="matrix(0.2344, 0.0, 0.0, 0.2344, 357.55, 108.3)" width="391.65" xlink:href="#font___________26"/>
        <use fill="#000000" height="211.45" transform="matrix(0.2344, 0.0, 0.0, 0.2344, 360.0, 108.3)" width="391.65" xlink:href="#font___________26"/>
        <use fill="#000000" height="211.45" transform="matrix(0.2344, 0.0, 0.0, 0.2344, 362.45, 108.3)" width="391.65" xlink:href="#font___________26"/>
      </g>
      <g transform="matrix(1.0, 0.0, 0.0, 1.0, 0.0, 0.0)">
        <use fill="#000000" height="211.45" transform="matrix(0.2344, 0.0, 0.0, 0.2344, 15.9, 122.3)" width="391.65" xlink:href="#font___________5"/>
        <use fill="#000000" height="211.45" transform="matrix(0.2344, 0.0, 0.0, 0.2344, 21.9, 122.3)" width="391.65" xlink:href="#font___________6"/>
        <use fill="#000000" height="211.45" transform="matrix(0.2344, 0.0, 0.0, 0.2344, 131.7, 122.3)" width="391.65" xlink:href="#font___________6"/>
        <use fill="#000000" height="211.45" transform="matrix(0.2344, 0.0, 0.0, 0.2344, 134.5, 122.3)" width="391.65" xlink:href="#font___________24"/>
        <use fill="#000000" height="211.45" transform="matrix(0.2344, 0.0, 0.0, 0.2344, 158.1, 122.3)" width="391.65" xlink:href="#font___________24"/>
        <use fill="#000000" height="211.45" transform="matrix(0.2344, 0.0, 0.0, 0.2344, 170.1, 122.3)" width="391.65" xlink:href="#font___________5"/>
        <use fill="#000000" height="211.45" transform="matrix(0.2344, 0.0, 0.0, 0.2344, 176.1, 122.3)" width="391.65" xlink:href="#font___________1"/>
        <use fill="#000000" height="211.45" transform="matrix(0.2344, 0.0, 0.0, 0.2344, 188.1, 122.3)" width="391.65" xlink:href="#font___________1"/>
        <use fill="#000000" height="211.45" transform="matrix(0.2344, 0.0, 0.0, 0.2344, 200.1, 122.3)" width="391.65" xlink:href="#font___________1"/>
        <use fill="#000000" height="211.45" transform="matrix(0.2344, 0.0, 0.0, 0.2344, 212.1, 122.3)" width="391.65" xlink:href="#font___________1"/>
        <use fill="#000000" height="211.45" transform="matrix(0.2344, 0.0, 0.0, 0.2344, 224.1, 122.3)" width="391.65" xlink:href="#font___________5"/>
        <use fill="#000000" height="211.45" transform="matrix(0.2344, 0.0, 0.0, 0.2344, 230.1, 122.3)" width="391.65" xlink:href="#font___________24"/>
        <use fill="#000000" height="211.45" transform="matrix(0.2344, 0.0, 0.0, 0.2344, 242.1, 122.3)" width="391.65" xlink:href="#font__________.0"/>
        <use fill="#000000" height="211.45" transform="matrix(0.2344, 0.0, 0.0, 0.2344, 244.55, 122.3)" width="391.65" xlink:href="#font__________.0"/>
        <use fill="#000000" height="211.45" transform="matrix(0.2344, 0.0, 0.0, 0.2344, 247.0, 122.3)" width="391.65" xlink:href="#font__________.0"/>
        <use fill="#000000" height="211.45" transform="matrix(0.2344, 0.0, 0.0, 0.2344, 249.45, 122.3)" width="391.65" xlink:href="#font___________6"/>
        <use fill="#000000" height="211.45" transform="matrix(0.2344, 0.0, 0.0, 0.2344, 252.25, 122.3)" width="391.65" xlink:href="#font___________6"/>
        <use fill="#000000" height="211.45" transform="matrix(0.2344, 0.0, 0.0, 0.2344, 255.05, 122.3)" width="391.65" xlink:href="#font___________3"/>
        <use fill="#000000" height="211.45" transform="matrix(0.2344, 0.0, 0.0, 0.2344, 298.85, 122.3)" width="391.65" xlink:href="#font___________31"/>
        <use fill="#000000" height="211.45" transform="matrix(0.2344, 0.0, 0.0, 0.2344, 310.85, 122.3)" width="391.65" xlink:href="#font___________1"/>
        <use fill="#000000" height="211.45" transform="matrix(0.2344, 0.0, 0.0, 0.2344, 322.85, 122.3)" width="391.65" xlink:href="#font___________14"/>
        <use fill="#000000" height="211.45" transform="matrix(0.2344, 0.0, 0.0, 0.2344, 334.85, 122.3)" width="391.65" xlink:href="#font___________21"/>
        <use fill="#000000" height="211.45" transform="matrix(0.2344, 0.0, 0.0, 0.2344, 340.85, 122.3)" width="391.65" xlink:href="#font__________:0"/>
        <use fill="#000000" height="211.45" transform="matrix(0.2344, 0.0, 0.0, 0.2344, 343.3, 122.3)" width="391.65" xlink:href="#font__________:0"/>
        <use fill="#000000" height="211.45" transform="matrix(0.2344, 0.0, 0.0, 0.2344, 345.75, 122.3)" width="391.65" xlink:href="#font__________:0"/>
        <use fill="#000000" height="211.45" transform="matrix(0.2344, 0.0, 0.0, 0.2344, 348.2, 122.3)" width="391.65" xlink:href="#font__________:0"/>
        <use fill="#000000" height="211.45" transform="matrix(0.2344, 0.0, 0.0, 0.2344, 350.65, 122.3)" width="391.65" xlink:href="#font__________:0"/>
        <use fill="#000000" height="211.45" transform="matrix(0.2344, 0.0, 0.0, 0.2344, 353.1, 122.3)" width="391.65" xlink:href="#font__________:0"/>
        <use fill="#000000" height="211.45" transform="matrix(0.2344, 0.0, 0.0, 0.2344, 355.55, 122.3)" width="391.65" xlink:href="#font__________:0"/>
        <use fill="#000000" height="211.45" transform="matrix(0.2344, 0.0, 0.0, 0.2344, 358.0, 122.3)" width="391.65" xlink:href="#font__________:0"/>
        <use fill="#000000" height="211.45" transform="matrix(0.2344, 0.0, 0.0, 0.2344, 360.45, 122.3)" width="391.65" xlink:href="#font__________:0"/>
        <use fill="#000000" height="211.45" transform="matrix(0.2344, 0.0, 0.0, 0.2344, 362.9, 122.3)" width="391.65" xlink:href="#font__________:0"/>
        <use fill="#000000" height="211.45" transform="matrix(0.2344, 0.0, 0.0, 0.2344, 365.35, 122.3)" width="391.65" xlink:href="#font__________:0"/>
        <use fill="#000000" height="211.45" transform="matrix(0.2344, 0.0, 0.0, 0.2344, 367.8, 122.3)" width="391.65" xlink:href="#font__________:0"/>
        <use fill="#000000" height="211.45" transform="matrix(0.2344, 0.0, 0.0, 0.2344, 370.25, 122.3)" width="391.65" xlink:href="#font__________:0"/>
        <use fill="#000000" height="211.45" transform="matrix(0.2344, 0.0, 0.0, 0.2344, 372.7, 122.3)" width="391.65" xlink:href="#font__________:0"/>
        <use fill="#000000" height="211.45" transform="matrix(0.2344, 0.0, 0.0, 0.2344, 375.15, 122.3)" width="391.65" xlink:href="#font__________:0"/>
        <use fill="#000000" height="211.45" transform="matrix(0.2344, 0.0, 0.0, 0.2344, 377.6, 122.3)" width="391.65" xlink:href="#font___________26"/>
        <use fill="#000000" height="211.45" transform="matrix(0.2344, 0.0, 0.0, 0.2344, 380.05, 122.3)" width="391.65" xlink:href="#font___________26"/>
      </g>
      <g transform="matrix(1.0, 0.0, 0.0, 1.0, 0.0, 0.0)">
        <use fill="#000000" height="211.45" transform="matrix(0.2344, 0.0, 0.0, 0.2344, 7.95, 136.3)" width="391.65" xlink:href="#font__________.0"/>
        <use fill="#000000" height="211.45" transform="matrix(0.2344, 0.0, 0.0, 0.2344, 10.4, 136.3)" width="391.65" xlink:href="#font___________5"/>
        <use fill="#000000" height="211.45" transform="matrix(0.2344, 0.0, 0.0, 0.2344, 16.4, 136.3)" width="391.65" xlink:href="#font__________.0"/>
        <use fill="#000000" height="211.45" transform="matrix(0.2344, 0.0, 0.0, 0.2344, 22.5, 136.3)" width="391.65" xlink:href="#font___________6"/>
        <use fill="#000000" height="211.45" transform="matrix(0.2344, 0.0, 0.0, 0.2344, 120.7, 136.3)" width="391.65" xlink:href="#font___________3"/>
        <use fill="#000000" height="211.45" transform="matrix(0.2344, 0.0, 0.0, 0.2344, 132.7, 136.3)" width="391.65" xlink:href="#font___________24"/>
        <use fill="#000000" height="211.45" transform="matrix(0.2344, 0.0, 0.0, 0.2344, 144.7, 136.3)" width="391.65" xlink:href="#font__________.0"/>
        <use fill="#000000" height="211.45" transform="matrix(0.2344, 0.0, 0.0, 0.2344, 147.15, 136.3)" width="391.65" xlink:href="#font___________24"/>
        <use fill="#000000" height="211.45" transform="matrix(0.2344, 0.0, 0.0, 0.2344, 238.65, 136.3)" width="391.65" xlink:href="#font___________24"/>
        <use fill="#000000" height="211.45" transform="matrix(0.2344, 0.0, 0.0, 0.2344, 250.65, 136.3)" width="391.65" xlink:href="#font___________5"/>
        <use fill="#000000" height="211.45" transform="matrix(0.2344, 0.0, 0.0, 0.2344, 260.3, 136.3)" width="391.65" xlink:href="#font___________32"/>
        <use fill="#000000" height="211.45" transform="matrix(0.2344, 0.0, 0.0, 0.2344, 294.6, 136.3)" width="391.65" xlink:href="#font___________5"/>
        <use fill="#000000" height="211.45" transform="matrix(0.2344, 0.0, 0.0, 0.2344, 300.6, 136.3)" width="391.65" xlink:href="#font___________24"/>
        <use fill="#000000" height="211.45" transform="matrix(0.2344, 0.0, 0.0, 0.2344, 316.25, 136.3)" width="391.65" xlink:href="#font___________5"/>
        <use fill="#000000" height="211.45" transform="matrix(0.2344, 0.0, 0.0, 0.2344, 325.9, 136.3)" width="391.65" xlink:href="#font___________5"/>
        <use fill="#000000" height="211.45" transform="matrix(0.2344, 0.0, 0.0, 0.2344, 331.9, 136.3)" width="391.65" xlink:href="#font__________:0"/>
        <use fill="#000000" height="211.45" transform="matrix(0.2344, 0.0, 0.0, 0.2344, 334.35, 136.3)" width="391.65" xlink:href="#font__________:0"/>
        <use fill="#000000" height="211.45" transform="matrix(0.2344, 0.0, 0.0, 0.2344, 336.8, 136.3)" width="391.65" xlink:href="#font__________:0"/>
        <use fill="#000000" height="211.45" transform="matrix(0.2344, 0.0, 0.0, 0.2344, 339.25, 136.3)" width="391.65" xlink:href="#font__________:0"/>
        <use fill="#000000" height="211.45" transform="matrix(0.2344, 0.0, 0.0, 0.2344, 341.7, 136.3)" width="391.65" xlink:href="#font__________:0"/>
        <use fill="#000000" height="211.45" transform="matrix(0.2344, 0.0, 0.0, 0.2344, 344.15, 136.3)" width="391.65" xlink:href="#font__________:0"/>
        <use fill="#000000" height="211.45" transform="matrix(0.2344, 0.0, 0.0, 0.2344, 346.6, 136.3)" width="391.65" xlink:href="#font__________:0"/>
        <use fill="#000000" height="211.45" transform="matrix(0.2344, 0.0, 0.0, 0.2344, 349.05, 136.3)" width="391.65" xlink:href="#font__________:0"/>
        <use fill="#000000" height="211.45" transform="matrix(0.2344, 0.0, 0.0, 0.2344, 351.5, 136.3)" width="391.65" xlink:href="#font__________:0"/>
        <use fill="#000000" height="211.45" transform="matrix(0.2344, 0.0, 0.0, 0.2344, 353.95, 136.3)" width="391.65" xlink:href="#font__________:0"/>
        <use fill="#000000" height="211.45" transform="matrix(0.2344, 0.0, 0.0, 0.2344, 356.4, 136.3)" width="391.65" xlink:href="#font__________:0"/>
        <use fill="#000000" height="211.45" transform="matrix(0.2344, 0.0, 0.0, 0.2344, 358.85, 136.3)" width="391.65" xlink:href="#font__________:0"/>
        <use fill="#000000" height="211.45" transform="matrix(0.2344, 0.0, 0.0, 0.2344, 361.3, 136.3)" width="391.65" xlink:href="#font__________:0"/>
        <use fill="#000000" height="211.45" transform="matrix(0.2344, 0.0, 0.0, 0.2344, 363.75, 136.3)" width="391.65" xlink:href="#font__________:0"/>
        <use fill="#000000" height="211.45" transform="matrix(0.2344, 0.0, 0.0, 0.2344, 366.2, 136.3)" width="391.65" xlink:href="#font__________:0"/>
        <use fill="#000000" height="211.45" transform="matrix(0.2344, 0.0, 0.0, 0.2344, 368.65, 136.3)" width="391.65" xlink:href="#font__________:0"/>
        <use fill="#000000" height="211.45" transform="matrix(0.2344, 0.0, 0.0, 0.2344, 371.1, 136.3)" width="391.65" xlink:href="#font__________:0"/>
        <use fill="#000000" height="211.45" transform="matrix(0.2344, 0.0, 0.0, 0.2344, 373.55, 136.3)" width="391.65" xlink:href="#font__________:0"/>
        <use fill="#000000" height="211.45" transform="matrix(0.2344, 0.0, 0.0, 0.2344, 376.0, 136.3)" width="391.65" xlink:href="#font__________:0"/>
        <use fill="#000000" height="211.45" transform="matrix(0.2344, 0.0, 0.0, 0.2344, 378.45, 136.3)" width="391.65" xlink:href="#font__________:0"/>
        <use fill="#000000" height="211.45" transform="matrix(0.2344, 0.0, 0.0, 0.2344, 380.9, 136.3)" width="391.65" xlink:href="#font__________:0"/>
      </g>
      <g transform="matrix(1.0, 0.0, 0.0, 1.0, 0.0, 0.0)">
        <use fill="#000000" height="211.45" transform="matrix(0.2344, 0.0, 0.0, 0.2344, 0.0, 150.3)" width="391.65" xlink:href="#font__________.0"/>
        <use fill="#000000" height="211.45" transform="matrix(0.2344, 0.0, 0.0, 0.2344, 109.45, 150.3)" width="391.65" xlink:href="#font___________3"/>
        <use fill="#000000" height="211.45" transform="matrix(0.2344, 0.0, 0.0, 0.2344, 145.3, 150.3)" width="391.65" xlink:href="#font___________24"/>
        <use fill="#000000" height="211.45" transform="matrix(0.2344, 0.0, 0.0, 0.2344, 157.3, 150.3)" width="391.65" xlink:href="#font___________6"/>
        <use fill="#000000" height="211.45" transform="matrix(0.2344, 0.0, 0.0, 0.2344, 160.1, 150.3)" width="391.65" xlink:href="#font___________14"/>
        <use fill="#000000" height="211.45" transform="matrix(0.2344, 0.0, 0.0, 0.2344, 172.1, 150.3)" width="391.65" xlink:href="#font___________14"/>
        <use fill="#000000" height="211.45" transform="matrix(0.2344, 0.0, 0.0, 0.2344, 184.1, 150.3)" width="391.65" xlink:href="#font___________14"/>
        <use fill="#000000" height="211.45" transform="matrix(0.2344, 0.0, 0.0, 0.2344, 196.1, 150.3)" width="391.65" xlink:href="#font___________14"/>
        <use fill="#000000" height="211.45" transform="matrix(0.2344, 0.0, 0.0, 0.2344, 208.1, 150.3)" width="391.65" xlink:href="#font___________14"/>
        <use fill="#000000" height="211.45" transform="matrix(0.2344, 0.0, 0.0, 0.2344, 220.1, 150.3)" width="391.65" xlink:href="#font___________14"/>
        <use fill="#000000" height="211.45" transform="matrix(0.2344, 0.0, 0.0, 0.2344, 232.1, 150.3)" width="391.65" xlink:href="#font___________14"/>
        <use fill="#000000" height="211.45" transform="matrix(0.2344, 0.0, 0.0, 0.2344, 244.1, 150.3)" width="391.65" xlink:href="#font___________14"/>
        <use fill="#000000" height="211.45" transform="matrix(0.2344, 0.0, 0.0, 0.2344, 256.1, 150.3)" width="391.65" xlink:href="#font___________6"/>
        <use fill="#000000" height="211.45" transform="matrix(0.2344, 0.0, 0.0, 0.2344, 258.9, 150.3)" width="391.65" xlink:href="#font___________33"/>
        <use fill="#000000" height="211.45" transform="matrix(0.2344, 0.0, 0.0, 0.2344, 267.4, 150.3)" width="391.65" xlink:href="#font__________.0"/>
        <use fill="#000000" height="211.45" transform="matrix(0.2344, 0.0, 0.0, 0.2344, 293.7, 150.3)" width="391.65" xlink:href="#font___________5"/>
        <use fill="#000000" height="211.45" transform="matrix(0.2344, 0.0, 0.0, 0.2344, 319.25, 150.3)" width="391.65" xlink:href="#font___________34"/>
        <use fill="#000000" height="211.45" transform="matrix(0.2344, 0.0, 0.0, 0.2344, 328.5, 150.3)" width="391.65" xlink:href="#font___________24"/>
        <use fill="#000000" height="211.45" transform="matrix(0.2344, 0.0, 0.0, 0.2344, 340.5, 150.3)" width="391.65" xlink:href="#font__________:0"/>
        <use fill="#000000" height="211.45" transform="matrix(0.2344, 0.0, 0.0, 0.2344, 342.95, 150.3)" width="391.65" xlink:href="#font__________:0"/>
        <use fill="#000000" height="211.45" transform="matrix(0.2344, 0.0, 0.0, 0.2344, 345.4, 150.3)" width="391.65" xlink:href="#font__________:0"/>
        <use fill="#000000" height="211.45" transform="matrix(0.2344, 0.0, 0.0, 0.2344, 347.85, 150.3)" width="391.65" xlink:href="#font__________:0"/>
        <use fill="#000000" height="211.45" transform="matrix(0.2344, 0.0, 0.0, 0.2344, 350.3, 150.3)" width="391.65" xlink:href="#font__________:0"/>
        <use fill="#000000" height="211.45" transform="matrix(0.2344, 0.0, 0.0, 0.2344, 352.75, 150.3)" width="391.65" xlink:href="#font__________:0"/>
        <use fill="#000000" height="211.45" transform="matrix(0.2344, 0.0, 0.0, 0.2344, 355.2, 150.3)" width="391.65" xlink:href="#font__________:0"/>
        <use fill="#000000" height="211.45" transform="matrix(0.2344, 0.0, 0.0, 0.2344, 357.65, 150.3)" width="391.65" xlink:href="#font__________:0"/>
        <use fill="#000000" height="211.45" transform="matrix(0.2344, 0.0, 0.0, 0.2344, 360.1, 150.3)" width="391.65" xlink:href="#font__________:0"/>
        <use fill="#000000" height="211.45" transform="matrix(0.2344, 0.0, 0.0, 0.2344, 362.55, 150.3)" width="391.65" xlink:href="#font__________:0"/>
        <use fill="#000000" height="211.45" transform="matrix(0.2344, 0.0, 0.0, 0.2344, 365.0, 150.3)" width="391.65" xlink:href="#font__________:0"/>
        <use fill="#000000" height="211.45" transform="matrix(0.2344, 0.0, 0.0, 0.2344, 367.45, 150.3)" width="391.65" xlink:href="#font__________:0"/>
        <use fill="#000000" height="211.45" transform="matrix(0.2344, 0.0, 0.0, 0.2344, 369.9, 150.3)" width="391.65" xlink:href="#font__________:0"/>
        <use fill="#000000" height="211.45" transform="matrix(0.2344, 0.0, 0.0, 0.2344, 372.35, 150.3)" width="391.65" xlink:href="#font__________:0"/>
        <use fill="#000000" height="211.45" transform="matrix(0.2344, 0.0, 0.0, 0.2344, 374.8, 150.3)" width="391.65" xlink:href="#font__________:0"/>
        <use fill="#000000" height="211.45" transform="matrix(0.2344, 0.0, 0.0, 0.2344, 377.25, 150.3)" width="391.65" xlink:href="#font__________:0"/>
        <use fill="#000000" height="211.45" transform="matrix(0.2344, 0.0, 0.0, 0.2344, 379.7, 150.3)" width="391.65" xlink:href="#font__________:0"/>
        <use fill="#000000" height="211.45" transform="matrix(0.2344, 0.0, 0.0, 0.2344, 382.15, 150.3)" width="391.65" xlink:href="#font__________:0"/>
      </g>
      <g transform="matrix(1.0, 0.0, 0.0, 1.0, 0.0, 0.0)">
        <use fill="#000000" height="211.45" transform="matrix(0.2344, 0.0, 0.0, 0.2344, 0.0, 164.3)" width="391.65" xlink:href="#font__________.0"/>
        <use fill="#000000" height="211.45" transform="matrix(0.2344, 0.0, 0.0, 0.2344, 109.45, 164.3)" width="391.65" xlink:href="#font___________24"/>
        <use fill="#000000" height="211.45" transform="matrix(0.2344, 0.0, 0.0, 0.2344, 153.25, 164.3)" width="391.65" xlink:href="#font___________5"/>
        <use fill="#000000" height="211.45" transform="matrix(0.2344, 0.0, 0.0, 0.2344, 159.25, 164.3)" width="391.65" xlink:href="#font___________14"/>
        <use fill="#000000" height="211.45" transform="matrix(0.2344, 0.0, 0.0, 0.2344, 171.25, 164.3)" width="391.65" xlink:href="#font___________35"/>
        <use fill="#000000" height="211.45" transform="matrix(0.2344, 0.0, 0.0, 0.2344, 183.25, 164.3)" width="391.65" xlink:href="#font___________36"/>
        <use fill="#000000" height="211.45" transform="matrix(0.2344, 0.0, 0.0, 0.2344, 185.7, 164.3)" width="391.65" xlink:href="#font___________18"/>
        <use fill="#000000" height="211.45" transform="matrix(0.2344, 0.0, 0.0, 0.2344, 191.7, 164.3)" width="391.65" xlink:href="#font___________31"/>
        <use fill="#000000" height="211.45" transform="matrix(0.2344, 0.0, 0.0, 0.2344, 203.7, 164.3)" width="391.65" xlink:href="#font___________30"/>
        <use fill="#000000" height="211.45" transform="matrix(0.2344, 0.0, 0.0, 0.2344, 213.35, 164.3)" width="391.65" xlink:href="#font___________23"/>
        <use fill="#000000" height="211.45" transform="matrix(0.2344, 0.0, 0.0, 0.2344, 222.3, 164.3)" width="391.65" xlink:href="#font___________14"/>
        <use fill="#000000" height="211.45" transform="matrix(0.2344, 0.0, 0.0, 0.2344, 234.3, 164.3)" width="391.65" xlink:href="#font___________14"/>
        <use fill="#000000" height="211.45" transform="matrix(0.2344, 0.0, 0.0, 0.2344, 246.3, 164.3)" width="391.65" xlink:href="#font___________14"/>
        <use fill="#000000" height="211.45" transform="matrix(0.2344, 0.0, 0.0, 0.2344, 258.3, 164.3)" width="391.65" xlink:href="#font___________24"/>
        <use fill="#000000" height="211.45" transform="matrix(0.2344, 0.0, 0.0, 0.2344, 289.85, 164.3)" width="391.65" xlink:href="#font___________33"/>
        <use fill="#000000" height="211.45" transform="matrix(0.2344, 0.0, 0.0, 0.2344, 330.15, 164.3)" width="391.65" xlink:href="#font___________24"/>
      </g>
      <g transform="matrix(1.0, 0.0, 0.0, 1.0, 0.0, 0.0)">
        <use fill="#000000" height="211.45" transform="matrix(0.2344, 0.0, 0.0, 0.2344, 0.0, 178.3)" width="391.65" xlink:href="#font__________.0"/>
        <use fill="#000000" height="211.45" transform="matrix(0.2344, 0.0, 0.0, 0.2344, 121.7, 178.3)" width="391.65" xlink:href="#font___________24"/>
        <use fill="#000000" height="211.45" transform="matrix(0.2344, 0.0, 0.0, 0.2344, 149.6, 178.3)" width="391.65" xlink:href="#font___________5"/>
        <use fill="#000000" height="211.45" transform="matrix(0.2344, 0.0, 0.0, 0.2344, 155.6, 178.3)" width="391.65" xlink:href="#font__________.0"/>
        <use fill="#000000" height="211.45" transform="matrix(0.2344, 0.0, 0.0, 0.2344, 158.05, 178.3)" width="391.65" xlink:href="#font__________.0"/>
        <use fill="#000000" height="211.45" transform="matrix(0.2344, 0.0, 0.0, 0.2344, 164.15, 178.3)" width="391.65" xlink:href="#font___________37"/>
        <use fill="#000000" height="211.45" transform="matrix(0.2344, 0.0, 0.0, 0.2344, 170.15, 178.3)" width="391.65" xlink:href="#font___________17"/>
        <use fill="#000000" height="211.45" transform="matrix(0.2344, 0.0, 0.0, 0.2344, 176.15, 178.3)" width="391.65" xlink:href="#font___________15"/>
        <use fill="#000000" height="211.45" transform="matrix(0.2344, 0.0, 0.0, 0.2344, 179.8, 178.3)" width="391.65" xlink:href="#font___________38"/>
        <use fill="#000000" height="211.45" transform="matrix(0.2344, 0.0, 0.0, 0.2344, 185.95, 178.3)" width="391.65" xlink:href="#font___________39"/>
        <use fill="#000000" height="211.45" transform="matrix(0.2344, 0.0, 0.0, 0.2344, 195.5, 178.3)" width="391.65" xlink:href="#font___________21"/>
        <use fill="#000000" height="211.45" transform="matrix(0.2344, 0.0, 0.0, 0.2344, 201.5, 178.3)" width="391.65" xlink:href="#font___________16"/>
        <use fill="#000000" height="211.45" transform="matrix(0.2344, 0.0, 0.0, 0.2344, 205.15, 178.3)" width="391.65" xlink:href="#font___________21"/>
        <use fill="#000000" height="211.45" transform="matrix(0.2344, 0.0, 0.0, 0.2344, 211.15, 178.3)" width="391.65" xlink:href="#font__________i0"/>
        <use fill="#000000" height="211.45" transform="matrix(0.2344, 0.0, 0.0, 0.2344, 217.35, 178.3)" width="391.65" xlink:href="#font__________i0"/>
        <use fill="#000000" height="211.45" transform="matrix(0.2344, 0.0, 0.0, 0.2344, 219.9, 178.3)" width="391.65" xlink:href="#font___________23"/>
        <use fill="#000000" height="211.45" transform="matrix(0.2344, 0.0, 0.0, 0.2344, 268.6, 178.3)" width="391.65" xlink:href="#font___________24"/>
        <use fill="#000000" height="211.45" transform="matrix(0.2344, 0.0, 0.0, 0.2344, 280.6, 178.3)" width="391.65" xlink:href="#font___________14"/>
      </g>
      <g transform="matrix(1.0, 0.0, 0.0, 1.0, 0.0, 0.0)">
        <use fill="#000000" height="211.45" transform="matrix(0.2344, 0.0, 0.0, 0.2344, 138.8, 192.3)" width="391.65" xlink:href="#font___________40"/>
        <use fill="#000000" height="211.45" transform="matrix(0.2344, 0.0, 0.0, 0.2344, 148.45, 192.3)" width="391.65" xlink:href="#font___________1"/>
        <use fill="#000000" height="211.45" transform="matrix(0.2344, 0.0, 0.0, 0.2344, 160.45, 192.3)" width="391.65" xlink:href="#font___________41"/>
        <use fill="#000000" height="211.45" transform="matrix(0.2344, 0.0, 0.0, 0.2344, 172.45, 192.3)" width="391.65" xlink:href="#font___________38"/>
        <use fill="#000000" height="211.45" transform="matrix(0.2344, 0.0, 0.0, 0.2344, 178.6, 192.3)" width="391.65" xlink:href="#font___________42"/>
        <use fill="#000000" height="211.45" transform="matrix(0.2344, 0.0, 0.0, 0.2344, 181.25, 192.3)" width="391.65" xlink:href="#font___________39"/>
        <use fill="#000000" height="211.45" transform="matrix(0.2344, 0.0, 0.0, 0.2344, 187.15, 192.3)" width="391.65" xlink:href="#font___________26"/>
        <use fill="#000000" height="211.45" transform="matrix(0.2344, 0.0, 0.0, 0.2344, 189.6, 192.3)" width="391.65" xlink:href="#font___________43"/>
        <use fill="#000000" height="211.45" transform="matrix(0.2344, 0.0, 0.0, 0.2344, 195.6, 192.3)" width="391.65" xlink:href="#font___________44"/>
        <use fill="#000000" height="211.45" transform="matrix(0.2344, 0.0, 0.0, 0.2344, 207.6, 192.3)" width="391.65" xlink:href="#font___________43"/>
        <use fill="#000000" height="211.45" transform="matrix(0.2344, 0.0, 0.0, 0.2344, 213.6, 192.3)" width="391.65" xlink:href="#font___________45"/>
        <use fill="#000000" height="211.45" transform="matrix(0.2344, 0.0, 0.0, 0.2344, 225.6, 192.3)" width="391.65" xlink:href="#font___________46"/>
        <use fill="#000000" height="211.45" transform="matrix(0.2344, 0.0, 0.0, 0.2344, 237.6, 192.3)" width="391.65" xlink:href="#font___________1"/>
        <use fill="#000000" height="211.45" transform="matrix(0.2344, 0.0, 0.0, 0.2344, 249.6, 192.3)" width="391.65" xlink:href="#font___________1"/>
        <use fill="#000000" height="211.45" transform="matrix(0.2344, 0.0, 0.0, 0.2344, 261.6, 192.3)" width="391.65" xlink:href="#font___________1"/>
        <use fill="#000000" height="211.45" transform="matrix(0.2344, 0.0, 0.0, 0.2344, 273.6, 192.3)" width="391.65" xlink:href="#font___________4"/>
        <use fill="#000000" height="211.45" transform="matrix(0.2344, 0.0, 0.0, 0.2344, 277.25, 192.3)" width="391.65" xlink:href="#font___________4"/>
      </g>
      <g transform="matrix(1.0, 0.0, 0.0, 1.0, 0.0, 0.0)">
        <use fill="#000000" height="211.45" transform="matrix(0.2344, 0.0, 0.0, 0.2344, 182.85, 206.3)" width="391.65" xlink:href="#font___________47"/>
        <use fill="#000000" height="211.45" transform="matrix(0.2344, 0.0, 0.0, 0.2344, 192.05, 206.3)" width="391.65" xlink:href="#font___________48"/>
        <use fill="#000000" height="211.45" transform="matrix(0.2344, 0.0, 0.0, 0.2344, 202.2, 206.3)" width="391.65" xlink:href="#font___________49"/>
      </g>
    </g>
    <g id="font___________1">
      <path d="M0.0 4.8 L0.0 7.0 51.0 7.0 51.0 4.8 0.0 4.8" fill-rule="evenodd" stroke="none"/>
    </g>
    <g id="font___________3">
      <path d="M2.6 -1.2 L4.8 1.4 48.4 -35.0 46.2 -37.6 2.6 -1.2" fill-rule="evenodd" stroke="none"/>
    </g>
    <g id="font___________4">
      <path d="M0.0 2.6 L0.0 5.0 15.4 5.0 15.4 2.6 0.0 2.6" fill-rule="evenodd" stroke="none"/>
    </g>
    <g id="font___________5">
      <path d="M1.2 0.4 L3.2 1.6 24.4 -36.2 22.4 -37.4 1.2 0.4" fill-rule="evenodd" stroke="none"/>
    </g>
    <g id="font___________6">
      <path d="M4.0 -43.8 L4.0 7.0 8.0 7.0 8.0 -43.8 4.0 -43.8" fill-rule="evenodd" stroke="none"/>
    </g>
    <g id="font___________7">
      <path d="M43.6 -5.0 L14.8 -5.0 42.6 -35.8 39.8 -38.6 6.2 -1.0 43.6 -1.0 43.6 -5.0" fill-rule="evenodd" stroke="none"/>
    </g>
    <g id="font___________8">
      <path d="M4.0 -40.0 L4.0 4.6 16.6 4.6 16.6 1.4 7.4 1.4 7.4 -36.8 16.6 -36.8 16.6 -40.0 4.0 -40.0" fill-rule="evenodd" stroke="none"/>
    </g>
    <g id="font___________9">
      <path d="M0.4 -40.0 L0.4 -36.8 9.6 -36.8 9.6 1.4 0.4 1.4 0.4 4.6 13.0 4.6 13.0 -40.0 0.4 -40.0" fill-rule="evenodd" stroke="none"/>
    </g>
    <g id="font__________.0">
      <path d="M3.0 -5.0 L3.0 -0.6 7.6 -0.6 7.6 -5.0 3.0 -5.0" fill-rule="evenodd" stroke="none"/>
    </g>
    <g id="font__________r0">
      <path d="M9.0 -20.2 L9.0 -20.2 6.8 -17.4 6.8 -23.0 2.8 -23.0 2.8 -0.6 6.8 -0.6 6.8 -12.0 Q7.6 -14.4 9.8 -16.6 12.4 -19.2 15.4 -19.2 L17.6 -19.0 17.6 -23.4 Q12.2 -23.4 9.0 -20.2" fill-rule="evenodd" stroke="none"/>
    </g>
    <g id="font___________10">
      <path d="M1.4 -13.8 L1.4 -10.6 24.2 -10.6 24.2 -13.8 1.4 -13.8 M1.4 -26.0 L1.4 -22.8 24.2 -22.8 24.2 -26.0 1.4 -26.0" fill-rule="evenodd" stroke="none"/>
    </g>
    <g id="font___________11">
      <path d="M36.6 -2.8 L14.0 -2.8 14.0 -11.6 36.6 -11.6 36.6 -2.8 M36.6 -15.4 L14.0 -15.4 14.0 -23.4 36.6 -23.4 36.6 -15.4 M36.6 -27.2 L14.0 -27.2 14.0 -35.0 36.6 -35.0 36.6 -27.2 M40.6 3.4 L40.6 -38.8 10.0 -38.8 10.0 4.2 14.0 4.2 14.0 1.0 36.6 1.0 36.6 3.4 40.6 3.4" fill-rule="evenodd" stroke="none"/>
    </g>
    <g id="font__________i0">
      <path d="M3.4 -23.0 L3.4 -0.6 7.4 -0.6 7.4 -23.0 3.4 -23.0 M3.4 -34.6 L3.4 -29.4 7.4 -29.4 7.4 -34.6 3.4 -34.6" fill-rule="evenodd" stroke="none"/>
    </g>
    <g id="font___________12">
      <path d="M40.4 2.8 L44.2 1.0 25.8 -39.2 7.4 1.0 11.2 2.8 25.8 -29.2 40.4 2.8" fill-rule="evenodd" stroke="none"/>
    </g>
    <g id="font___________13">
      <path d="M10.4 -6.0 L10.4 -38.0 21.4 -38.0 21.4 -41.8 6.4 -41.8 6.4 -6.0 10.4 -6.0" fill-rule="evenodd" stroke="none"/>
    </g>
    <g id="font___________14">
      <path d="M0.0 -44.0 L0.0 -41.8 51.0 -41.8 51.0 -44.0 0.0 -44.0" fill-rule="evenodd" stroke="none"/>
    </g>
    <g id="font__________:0">
      <path d="M3.0 -5.0 L3.0 -0.6 7.6 -0.6 7.6 -5.0 3.0 -5.0 M3.0 -23.4 L3.0 -19.0 7.6 -19.0 7.6 -23.4 3.0 -23.4" fill-rule="evenodd" stroke="none"/>
    </g>
    <g id="font___________15">
      <path d="M11.8 4.0 L14.0 1.8 Q4.8 -6.8 4.8 -17.8 4.8 -28.8 14.0 -37.4 L11.8 -39.6 Q1.8 -30.2 1.8 -17.8 1.8 -5.4 11.8 4.0" fill-rule="evenodd" stroke="none"/>
    </g>
    <g id="font___________16">
      <path d="M10.6 -17.8 L10.6 -17.8 Q10.6 -6.8 1.4 1.8 L3.6 4.0 Q13.6 -5.4 13.6 -17.8 13.6 -30.2 3.6 -39.6 L1.4 -37.4 Q10.6 -28.8 10.6 -17.8" fill-rule="evenodd" stroke="none"/>
    </g>
    <g id="font___________17">
      <path d="M11.8 -30.4 L11.8 -30.4 Q9.2 -25.0 9.2 -18.0 9.2 -11.8 11.8 -6.4 14.2 -1.4 19.2 4.2 L21.4 2.0 Q16.4 -3.4 14.4 -7.8 12.2 -12.6 12.2 -18.0 12.2 -24.4 14.4 -29.0 16.4 -33.2 21.4 -37.8 L19.2 -39.8 Q14.0 -35.0 11.8 -30.4" fill-rule="evenodd" stroke="none"/>
    </g>
    <g id="font___________18">
      <path d="M5.2 -32.0 L9.8 -32.0 20.0 -40.8 12.8 -40.8 5.2 -32.0" fill-rule="evenodd" stroke="none"/>
    </g>
    <g id="font___________19">
      <path d="M29.6 -6.2 L32.6 -11.6 Q15.2 -17.2 12.0 -35.6 13.6 -37.2 11.4 -36.8 L6.6 -35.8 Q11.2 -16.2 23.2 -10.4 14.8 -9.8 7.0 -5.4 L10.6 -1.8 Q19.6 -6.4 29.6 -6.2" fill-rule="evenodd" stroke="none"/>
    </g>
    <g id="font___________20">
      <path d="M3.0 -40.8 L11.6 -31.6 14.8 -31.6 9.0 -40.8 3.0 -40.8" fill-rule="evenodd" stroke="none"/>
    </g>
    <g id="font___________21">
      <path d="M13.6 -6.4 L13.6 -6.4 Q16.2 -11.8 16.2 -18.0 16.2 -25.0 13.6 -30.4 11.4 -35.0 6.2 -39.8 L4.0 -37.8 Q9.0 -33.2 11.0 -29.0 13.2 -24.4 13.2 -18.0 13.2 -12.6 11.0 -7.8 9.0 -3.4 4.0 2.0 L6.2 4.2 Q11.2 -1.4 13.6 -6.4" fill-rule="evenodd" stroke="none"/>
    </g>
    <g id="font___________22">
      <path d="M51.0 -17.4 L51.0 -19.6 0.0 -19.6 0.0 -17.4 51.0 -17.4" fill-rule="evenodd" stroke="none"/>
    </g>
    <g id="font___________23">
      <path d="M9.2 -29.4 L5.0 -25.6 Q20.2 -15.6 27.8 -4.6 L32.8 -8.8 Q25.4 -19.2 9.2 -29.4" fill-rule="evenodd" stroke="none"/>
    </g>
    <g id="font___________24">
      <path d="M2.6 -35.0 L46.2 1.4 48.4 -1.2 4.8 -37.6 2.6 -35.0" fill-rule="evenodd" stroke="none"/>
    </g>
    <g id="font___________25">
      <path d="M12.4 -5.0 L12.4 -32.0 18.6 -32.0 18.6 -5.0 12.4 -5.0 M8.4 -36.4 L8.4 -5.0 3.0 -5.0 3.0 -0.6 48.4 -0.6 48.4 -5.0 42.8 -5.0 42.8 -36.4 8.4 -36.4 M22.6 -5.0 L22.6 -32.0 28.6 -32.0 28.6 -5.0 22.6 -5.0 M32.6 -32.0 L38.8 -32.0 38.8 -5.0 32.6 -5.0 32.6 -32.0" fill-rule="evenodd" stroke="none"/>
    </g>
    <g id="font___________26">
      <path d="M3.0 -5.0 L3.0 -0.6 5.0 -0.6 3.0 4.8 5.0 4.8 7.6 -0.6 7.6 -5.0 3.0 -5.0 M3.0 -23.4 L3.0 -19.0 7.6 -19.0 7.6 -23.4 3.0 -23.4" fill-rule="evenodd" stroke="none"/>
    </g>
    <g id="font___________27">
      <path d="M25.0 -31.0 L5.4 -31.0 5.4 -27.2 25.0 -27.2 25.0 -31.0 M2.2 -4.6 L28.2 -4.6 28.2 -8.4 2.2 -8.4 2.2 -4.6" fill-rule="evenodd" stroke="none"/>
    </g>
    <g id="font___________28">
      <path d="M17.0 -6.0 L18.2 -1.4 Q34.0 -1.6 40.8 -8.4 44.4 -12.0 44.4 -18.8 44.4 -25.2 40.6 -29.0 36.8 -32.8 28.8 -32.8 23.8 -32.8 14.0 -30.0 L2.8 -26.8 5.0 -21.6 Q11.2 -24.4 16.4 -26.2 23.2 -28.6 28.2 -28.6 34.2 -28.6 36.6 -26.2 39.8 -23.0 39.8 -18.4 39.8 -14.0 36.8 -11.0 32.0 -6.2 17.0 -6.0" fill-rule="evenodd" stroke="none"/>
    </g>
    <g id="font__________F0">
      <path d="M4.0 -34.8 L4.0 -0.6 8.6 -0.6 8.6 -16.0 23.0 -16.0 23.0 -19.8 8.6 -19.8 8.6 -31.0 27.0 -31.0 27.0 -34.8 4.0 -34.8" fill-rule="evenodd" stroke="none"/>
    </g>
    <g id="font__________M0">
      <path d="M3.6 -34.8 L3.6 -0.6 8.2 -0.6 8.2 -26.8 17.4 -0.6 20.6 -0.6 29.8 -26.8 29.8 -0.6 34.4 -0.6 34.4 -34.8 28.2 -34.8 19.0 -8.2 9.8 -34.8 3.6 -34.8" fill-rule="evenodd" stroke="none"/>
    </g>
    <g id="font__________V0">
      <path d="M0.8 -35.0 L14.4 -0.4 18.0 -0.4 31.6 -35.0 26.8 -35.0 16.2 -7.2 5.6 -35.0 0.8 -35.0" fill-rule="evenodd" stroke="none"/>
    </g>
    <g id="font___________29">
      <path d="M2.0 -17.8 L21.8 0.6 23.8 -1.4 6.0 -17.8 23.8 -34.2 21.8 -36.2 2.0 -17.8" fill-rule="evenodd" stroke="none"/>
    </g>
    <g id="font___________30">
      <path d="M4.4 -40.8 L14.4 -32.0 19.0 -32.0 11.6 -40.8 4.4 -40.8" fill-rule="evenodd" stroke="none"/>
    </g>
    <g id="font___________31">
      <path d="M12.6 -36.4 L12.6 -36.4 Q7.0 -33.4 3.2 -28.8 L5.2 -27.4 Q10.2 -32.6 14.4 -34.6 19.6 -37.0 25.6 -37.0 31.2 -37.0 36.0 -34.6 40.0 -32.6 45.8 -27.4 L48.0 -28.8 Q43.4 -33.6 38.6 -36.4 32.8 -39.8 25.6 -39.8 19.0 -39.8 12.6 -36.4" fill-rule="evenodd" stroke="none"/>
    </g>
    <g id="font___________32">
      <path d="M2.2 -14.6 L5.0 -11.0 Q10.4 -15.2 14.8 -20.2 L14.8 3.0 18.8 3.0 18.8 -25.0 Q22.4 -29.8 25.6 -35.0 27.2 -35.0 26.0 -36.2 L22.4 -39.2 Q13.8 -22.6 2.2 -14.6" fill-rule="evenodd" stroke="none"/>
    </g>
    <g id="font___________33">
      <path d="M32.4 -32.8 L32.4 -32.8 Q34.4 -33.6 33.0 -34.4 L27.6 -36.8 Q24.0 -23.4 17.6 -15.8 11.4 -8.4 2.4 -3.8 L7.2 0.0 Q16.4 -5.8 23.0 -14.4 28.2 -21.2 32.4 -32.8" fill-rule="evenodd" stroke="none"/>
    </g>
    <g id="font___________34">
      <path d="M9.2 -14.2 L9.2 -14.2 9.2 -34.8 4.6 -34.8 4.6 -14.2 Q4.6 -7.4 8.6 -3.4 11.8 -0.2 19.6 -0.2 27.4 -0.2 30.6 -3.4 34.6 -7.4 34.6 -14.2 L34.6 -34.8 30.0 -34.8 30.0 -14.2 Q30.0 -9.4 27.2 -6.6 25.0 -4.4 19.6 -4.4 14.2 -4.4 12.0 -6.6 9.2 -9.4 9.2 -14.2" fill-rule="evenodd" stroke="none"/>
    </g>
    <g id="font___________35">
      <path d="M19.4 -28.8 L13.2 -8.2 17.6 -8.2 25.4 -28.8 19.4 -28.8 M30.8 -8.2 L38.6 -28.8 32.6 -28.8 26.4 -8.2 30.8 -8.2" fill-rule="evenodd" stroke="none"/>
    </g>
    <g id="font___________36">
      <path d="M5.0 -31.2 L3.0 -25.2 5.0 -25.2 7.6 -31.2 7.6 -35.6 3.0 -35.6 3.0 -31.2 5.0 -31.2" fill-rule="evenodd" stroke="none"/>
    </g>
    <g id="font___________37">
      <path d="M17.0 -41.4 L3.8 -18.4 17.0 4.6 20.4 2.8 8.2 -18.4 20.4 -39.6 17.0 -41.4" fill-rule="evenodd" stroke="none"/>
    </g>
    <g id="font___________38">
      <path d="M4.2 -35.6 L4.2 -13.2 8.2 -13.2 8.2 -33.8 Q10.0 -34.8 8.0 -35.2 L4.2 -35.6 M21.8 -16.2 L21.8 -35.8 Q23.6 -36.6 21.6 -37.2 L17.8 -37.6 17.8 -17.0 Q17.8 -5.2 9.4 1.0 L12.4 5.0 Q21.8 -2.6 21.8 -16.2" fill-rule="evenodd" stroke="none"/>
    </g>
    <g id="font___________39">
      <path d="M2.2 -3.8 L5.4 0.4 Q18.0 -10.8 22.0 -33.4 23.4 -33.8 22.0 -34.6 L17.8 -36.6 Q13.8 -13.4 2.2 -3.8" fill-rule="evenodd" stroke="none"/>
    </g>
    <g id="font___________40">
      <path d="M9.8 -20.2 L9.8 -20.2 14.4 -22.8 Q10.6 -30.2 7.2 -34.4 L2.8 -32.0 Q6.2 -28.0 9.8 -20.2 M26.2 -13.6 L26.2 -13.6 Q20.4 -5.8 9.0 -0.6 L12.6 3.0 Q25.2 -3.6 29.8 -10.2 36.0 -19.0 37.2 -31.8 39.2 -33.2 37.4 -33.6 L32.4 -34.4 Q30.8 -19.8 26.2 -13.6" fill-rule="evenodd" stroke="none"/>
    </g>
    <g id="font___________41">
      <path d="M41.8 -3.6 L41.8 -7.4 22.8 -7.4 Q17.6 -7.4 14.2 -10.8 11.2 -13.8 11.2 -18.2 11.2 -22.6 14.2 -25.6 17.6 -29.0 22.8 -29.0 L41.8 -29.0 41.8 -32.8 22.8 -32.8 Q15.8 -32.8 11.6 -28.6 7.2 -24.2 7.2 -18.2 7.2 -12.2 11.6 -7.8 15.8 -3.6 22.8 -3.6 L41.8 -3.6" fill-rule="evenodd" stroke="none"/>
    </g>
    <g id="font___________42">
      <path d="M3.4 -5.0 L3.4 -0.6 7.8 -0.6 7.8 -5.0 3.4 -5.0 M2.8 -34.8 L4.0 -12.2 7.2 -12.2 8.4 -34.8 2.8 -34.8" fill-rule="evenodd" stroke="none"/>
    </g>
    <g id="font___________43">
      <path d="M17.0 -22.8 L8.4 -22.8 8.4 -14.2 17.0 -14.2 17.0 -22.8" fill-rule="evenodd" stroke="none"/>
    </g>
    <g id="font___________44">
      <path d="M17.6 -23.0 L33.6 -23.0 25.6 -8.8 17.6 -23.0 M25.6 0.2 L44.0 -33.2 40.2 -35.4 35.6 -27.2 15.6 -27.2 11.0 -35.4 7.2 -33.2 25.6 0.2" fill-rule="evenodd" stroke="none"/>
    </g>
    <g id="font___________45">
      <path d="M15.6 -26.4 L15.6 -26.4 16.8 -37.4 Q18.6 -38.6 16.6 -39.0 L12.2 -39.4 Q11.4 -15.8 2.8 -2.0 L6.4 1.4 Q12.6 -8.0 14.4 -18.2 17.2 -14.0 21.8 -4.4 L25.0 -9.6 Q22.8 -15.2 15.6 -26.4 M37.0 -27.8 L37.0 -27.8 Q36.6 -30.0 37.6 -37.4 39.4 -38.6 37.4 -39.0 L33.0 -39.4 Q32.4 -16.0 23.6 -1.2 L26.8 2.8 Q32.6 -4.4 35.4 -18.8 38.2 -8.2 45.4 0.2 L49.0 -4.2 Q39.8 -15.0 37.0 -27.8" fill-rule="evenodd" stroke="none"/>
    </g>
    <g id="font___________46">
      <path d="M9.8 -3.6 L28.8 -3.6 Q35.8 -3.6 40.0 -7.8 44.4 -12.2 44.4 -18.2 44.4 -24.2 40.0 -28.6 35.8 -32.8 28.8 -32.8 L9.8 -32.8 9.8 -29.0 28.8 -29.0 Q34.0 -29.0 37.4 -25.6 40.4 -22.6 40.4 -18.2 40.4 -13.8 37.4 -10.8 34.0 -7.4 28.8 -7.4 L9.8 -7.4 9.8 -3.6" fill-rule="evenodd" stroke="none"/>
    </g>
    <g id="font___________47">
      <path d="M20.4 -35.2 L20.4 -35.2 18.4 -32.6 26.2 -27.6 28.2 -30.2 20.4 -35.2 M24.4 -39.6 L24.4 -39.6 22.4 -37.0 Q26.0 -34.8 30.2 -32.0 L32.2 -34.6 24.4 -39.6 M37.2 -7.2 L34.2 -11.0 Q26.2 -2.2 18.4 -2.2 14.0 -2.2 11.8 -4.4 10.0 -6.2 10.0 -11.2 L10.0 -36.4 Q11.4 -37.6 9.6 -38.0 L5.4 -38.0 5.4 -11.2 Q5.4 -3.8 8.0 -1.2 11.4 2.2 18.6 2.2 28.6 2.2 37.2 -7.2" fill-rule="evenodd" stroke="none"/>
    </g>
    <g id="font___________48">
      <path d="M14.0 -29.6 L10.2 -29.6 Q10.4 -25.2 11.6 -19.6 L2.8 -16.2 5.0 -12.6 12.4 -15.8 Q14.6 -7.0 19.4 3.6 L23.2 1.8 Q18.4 -8.2 16.2 -17.4 L24.6 -20.6 Q26.8 -21.4 29.4 -21.4 32.2 -21.4 33.8 -19.8 35.6 -18.0 35.6 -15.6 35.6 -13.4 34.4 -12.2 33.2 -11.0 30.6 -11.0 28.0 -11.0 24.2 -13.2 L22.8 -9.8 Q25.8 -7.4 31.0 -7.4 35.0 -7.4 37.4 -9.8 39.4 -11.8 39.4 -15.8 39.4 -19.4 37.2 -21.6 34.0 -24.8 29.0 -24.8 L27.0 -24.6 27.4 -29.6 Q29.2 -30.8 27.0 -31.2 L23.6 -31.2 23.4 -23.8 15.2 -21.0 Q14.4 -24.6 14.4 -28.0 16.2 -29.2 14.0 -29.6" fill-rule="evenodd" stroke="none"/>
    </g>
    <g id="font___________49">
      <path d="M2.4 -16.4 L47.0 -16.4 47.0 -20.8 2.4 -20.8 2.4 -16.4" fill-rule="evenodd" stroke="none"/>
    </g>
    <g id="text1" transform="matrix(1.0, 0.0, 0.0, 1.0, -0.5, -0.65)">
      <g transform="matrix(1.0, 0.0, 0.0, 1.0, 0.0, 0.0)">
        <use fill="#000000" height="10.8" transform="matrix(0.2344, 0.0, 0.0, 0.2344, 0.0, 10.3)" width="82.95" xlink:href="#font___________50"/>
        <use fill="#000000" height="10.8" transform="matrix(0.2344, 0.0, 0.0, 0.2344, 7.25, 10.3)" width="82.95" xlink:href="#font___________51"/>
        <use fill="#000000" height="10.8" transform="matrix(0.2344, 0.0, 0.0, 0.2344, 13.6, 10.3)" width="82.95" xlink:href="#font___________52"/>
        <use fill="#000000" height="10.8" transform="matrix(0.2344, 0.0, 0.0, 0.2344, 21.3, 10.3)" width="82.95" xlink:href="#font___________38"/>
        <use fill="#000000" height="10.8" transform="matrix(0.2344, 0.0, 0.0, 0.2344, 27.45, 10.3)" width="82.95" xlink:href="#font___________53"/>
        <use fill="#000000" height="10.8" transform="matrix(0.2344, 0.0, 0.0, 0.2344, 36.65, 10.3)" width="82.95" xlink:href="#font___________54"/>
        <use fill="#000000" height="10.8" transform="matrix(0.2344, 0.0, 0.0, 0.2344, 47.5, 10.3)" width="82.95" xlink:href="#font___________55"/>
        <use fill="#000000" height="10.8" transform="matrix(0.2344, 0.0, 0.0, 0.2344, 58.85, 10.3)" width="82.95" xlink:href="#font___________56"/>
        <use fill="#000000" height="10.8" transform="matrix(0.2344, 0.0, 0.0, 0.2344, 69.2, 10.3)" width="82.95" xlink:href="#font___________57"/>
      </g>
    </g>
    <g id="font___________50">
      <path d="M24.2 -32.6 L2.2 -31.8 2.8 -27.2 22.2 -28.6 Q19.4 -21.6 14.8 -14.4 L10.4 -19.6 7.4 -15.8 Q13.0 -9.2 18.6 0.0 L22.4 -3.8 Q20.0 -7.6 17.6 -10.8 22.8 -17.8 27.8 -28.8 29.0 -28.4 28.2 -29.8 L26.0 -33.2 24.2 -32.6" fill-rule="evenodd" stroke="none"/>
    </g>
    <g id="font___________51">
      <path d="M14.6 -38.4 L11.0 -40.2 Q7.8 -26.8 2.2 -18.6 L5.6 -15.8 Q9.2 -21.6 11.4 -28.0 L19.8 -28.6 Q18.8 -22.6 17.2 -17.0 L11.6 -21.8 9.6 -18.0 Q12.4 -16.0 15.4 -12.6 12.0 -5.6 4.8 -0.2 L8.0 4.0 Q14.6 -1.8 18.4 -9.2 L21.2 -6.0 23.6 -10.6 20.6 -14.0 Q23.0 -21.0 24.2 -29.2 24.8 -29.0 24.4 -30.2 L22.2 -33.0 21.4 -32.6 12.8 -32.0 14.6 -37.2 Q16.0 -37.6 14.6 -38.4" fill-rule="evenodd" stroke="none"/>
    </g>
    <g id="font___________52">
      <path d="M2.2 -16.6 L30.6 -16.6 30.6 -20.4 2.2 -20.4 2.2 -16.6" fill-rule="evenodd" stroke="none"/>
    </g>
    <g id="font___________53">
      <path d="M37.2 -7.2 L37.2 -7.2 34.2 -11.0 Q26.2 -2.2 18.4 -2.2 14.0 -2.2 11.8 -4.4 10.0 -6.2 10.0 -11.2 L10.0 -36.4 Q11.4 -37.6 9.6 -38.0 L5.4 -38.0 5.4 -11.2 Q5.4 -3.8 8.0 -1.2 11.4 2.2 18.6 2.2 28.6 2.2 37.2 -7.2" fill-rule="evenodd" stroke="none"/>
    </g>
    <g id="font___________54">
      <path d="M43.2 -31.4 L42.4 -36.0 Q22.6 -32.6 3.0 -31.2 L4.2 -26.6 23.4 -29.4 Q16.0 -24.0 16.0 -14.6 16.0 -8.0 20.6 -3.4 25.2 1.2 37.0 1.8 L38.6 -2.6 Q27.2 -3.0 23.2 -7.0 20.2 -10.0 20.2 -14.8 20.2 -20.8 24.0 -24.6 27.8 -28.4 32.2 -30.0 36.2 -31.4 43.2 -31.4" fill-rule="evenodd" stroke="none"/>
    </g>
    <g id="font___________55">
      <path d="M34.2 -33.4 L34.2 -33.4 30.0 -31.0 Q37.4 -23.2 39.8 -9.2 L45.2 -10.6 Q43.2 -24.0 34.2 -33.4 M22.4 -10.0 L22.4 -10.0 18.4 -12.8 16.4 -8.0 Q14.8 -4.8 12.6 -4.8 10.6 -4.8 9.6 -8.2 8.6 -11.6 8.6 -19.8 8.6 -25.8 9.4 -33.2 11.6 -34.6 9.2 -35.2 L5.0 -36.2 Q4.2 -28.0 4.2 -20.0 4.2 -8.8 5.6 -5.4 8.0 0.4 13.0 0.4 15.8 0.4 18.6 -3.0 20.6 -5.4 22.4 -10.0" fill-rule="evenodd" stroke="none"/>
    </g>
    <g id="font___________56">
      <path d="M24.2 -0.4 L24.2 -0.4 22.4 -0.4 Q19.2 -0.4 17.2 -2.4 15.6 -4.0 15.6 -5.8 15.6 -7.0 16.6 -8.0 17.4 -8.8 19.0 -8.8 20.4 -8.8 21.8 -7.4 23.6 -5.6 24.2 -0.4 M28.2 -1.0 L28.2 -1.0 Q27.2 -7.0 24.4 -9.8 22.0 -12.2 18.4 -12.2 15.8 -12.2 13.8 -10.2 12.0 -8.4 12.0 -6.0 12.0 -2.4 14.6 0.2 17.8 3.4 24.8 3.4 32.2 3.4 37.0 -1.4 40.2 -4.6 40.2 -10.4 40.2 -16.0 36.6 -19.6 33.0 -23.2 25.4 -23.2 22.6 -23.2 18.4 -22.2 L30.4 -35.6 Q33.6 -36.2 31.4 -38.2 L29.2 -40.4 27.4 -39.6 10.0 -38.6 11.4 -34.0 24.6 -35.4 Q17.2 -25.8 2.8 -11.4 L6.2 -8.4 Q11.6 -14.6 15.0 -17.0 18.6 -19.6 25.2 -19.6 30.8 -19.6 33.4 -17.0 36.0 -14.4 36.0 -10.0 36.0 -6.0 33.6 -3.6 31.4 -1.4 28.2 -1.0" fill-rule="evenodd" stroke="none"/>
    </g>
    <g id="font___________57">
      <path d="M29.0 -6.6 L29.0 -6.6 Q29.0 -3.4 27.2 -1.6 26.0 -0.4 23.2 -0.4 20.2 -0.4 19.0 -1.6 18.2 -2.4 18.2 -3.8 18.2 -5.2 19.2 -6.2 20.4 -7.4 23.6 -7.4 26.6 -7.4 29.0 -6.6 M30.4 -33.4 L28.8 -29.4 Q33.6 -28.0 42.0 -24.4 L43.8 -28.6 30.4 -33.4 M11.2 -27.4 L11.2 -27.4 Q8.4 -18.6 2.2 -7.6 L6.2 -5.6 Q12.4 -17.6 15.6 -27.8 19.2 -28.0 24.8 -29.2 L23.8 -33.4 Q20.2 -32.4 16.8 -32.0 L18.6 -38.4 Q20.6 -39.2 18.6 -40.0 L15.0 -41.2 12.6 -31.6 2.6 -31.2 3.2 -27.0 11.2 -27.4 M32.6 -22.6 L29.0 -22.6 29.0 -10.4 23.6 -11.0 Q18.6 -11.0 16.0 -8.4 14.0 -6.4 14.0 -3.8 14.0 -0.6 16.0 1.4 18.2 3.6 23.8 3.6 28.0 3.6 30.4 1.2 32.4 -0.8 33.0 -5.0 36.6 -3.8 41.0 -1.2 L43.4 -5.0 Q38.0 -7.8 33.0 -9.4 L33.0 -21.0 Q34.8 -22.2 32.6 -22.6" fill-rule="evenodd" stroke="none"/>
    </g>
    <g id="text2" transform="matrix(1.0, 0.0, 0.0, 1.0, -0.7, -0.35)">
      <g transform="matrix(1.0, 0.0, 0.0, 1.0, 0.0, 0.0)">
        <use fill="#000000" height="11.1" transform="matrix(0.2344, 0.0, 0.0, 0.2344, 0.0, 10.3)" width="172.25" xlink:href="#font___________58"/>
        <use fill="#000000" height="11.1" transform="matrix(0.2344, 0.0, 0.0, 0.2344, 12.0, 10.3)" width="172.25" xlink:href="#font___________59"/>
        <use fill="#000000" height="11.1" transform="matrix(0.2344, 0.0, 0.0, 0.2344, 24.0, 10.3)" width="172.25" xlink:href="#font___________60"/>
        <use fill="#000000" height="11.1" transform="matrix(0.2344, 0.0, 0.0, 0.2344, 33.65, 10.3)" width="172.25" xlink:href="#font___________61"/>
        <use fill="#000000" height="11.1" transform="matrix(0.2344, 0.0, 0.0, 0.2344, 45.65, 10.3)" width="172.25" xlink:href="#font___________62"/>
        <use fill="#000000" height="11.1" transform="matrix(0.2344, 0.0, 0.0, 0.2344, 57.4, 10.3)" width="172.25" xlink:href="#font___________63"/>
        <use fill="#000000" height="11.1" transform="matrix(0.2344, 0.0, 0.0, 0.2344, 67.75, 10.3)" width="172.25" xlink:href="#font___________64"/>
        <use fill="#000000" height="11.1" transform="matrix(0.2344, 0.0, 0.0, 0.2344, 79.75, 10.3)" width="172.25" xlink:href="#font___________65"/>
        <use fill="#000000" height="11.1" transform="matrix(0.2344, 0.0, 0.0, 0.2344, 91.75, 10.3)" width="172.25" xlink:href="#font___________66"/>
        <use fill="#000000" height="11.1" transform="matrix(0.2344, 0.0, 0.0, 0.2344, 103.75, 10.3)" width="172.25" xlink:href="#font___________67"/>
        <use fill="#000000" height="11.1" transform="matrix(0.2344, 0.0, 0.0, 0.2344, 115.05, 10.3)" width="172.25" xlink:href="#font___________55"/>
        <use fill="#000000" height="11.1" transform="matrix(0.2344, 0.0, 0.0, 0.2344, 126.4, 10.3)" width="172.25" xlink:href="#font___________56"/>
        <use fill="#000000" height="11.1" transform="matrix(0.2344, 0.0, 0.0, 0.2344, 136.75, 10.3)" width="172.25" xlink:href="#font___________68"/>
        <use fill="#000000" height="11.1" transform="matrix(0.2344, 0.0, 0.0, 0.2344, 148.1, 10.3)" width="172.25" xlink:href="#font___________69"/>
        <use fill="#000000" height="11.1" transform="matrix(0.2344, 0.0, 0.0, 0.2344, 158.7, 10.3)" width="172.25" xlink:href="#font___________57"/>
      </g>
    </g>
    <g id="font___________58">
      <path d="M14.4 -31.8 L14.4 -35.8 37.0 -35.8 37.0 -31.8 14.4 -31.8 M14.4 -24.2 L14.4 -28.0 37.0 -28.0 37.0 -24.2 14.4 -24.2 M14.4 -16.0 L14.4 -20.4 37.0 -20.4 37.0 -16.0 14.4 -16.0 M28.2 -12.2 L28.2 0.0 Q28.2 3.4 31.8 3.4 L42.6 3.4 Q46.6 3.4 47.4 -0.4 L48.2 -3.8 43.8 -5.0 43.2 -2.0 Q42.6 -0.4 40.8 -0.4 L33.6 -0.4 Q32.2 -0.4 32.2 -2.0 L32.2 -12.2 37.0 -12.2 37.0 -10.2 41.0 -10.2 41.0 -39.6 10.4 -39.6 10.4 -10.2 14.4 -10.2 14.4 -12.2 19.2 -12.2 Q19.6 -1.0 3.0 0.4 L4.4 4.8 Q24.0 2.6 23.4 -12.2 L28.2 -12.2" fill-rule="evenodd" stroke="none"/>
    </g>
    <g id="font___________59">
      <path d="M42.0 -31.0 L42.0 -5.8 33.6 -5.8 33.6 -31.0 42.0 -31.0 M46.0 -34.8 L29.6 -34.8 29.6 1.8 33.6 1.8 33.6 -2.0 42.0 -2.0 42.0 1.2 46.0 1.2 46.0 -34.8 M3.4 -17.6 L13.8 -17.6 Q13.8 -5.4 3.4 -0.4 L6.2 3.2 Q14.2 -2.0 16.4 -9.0 L24.6 0.8 27.4 -3.0 Q21.6 -9.4 17.4 -12.4 17.8 -15.0 17.8 -17.6 L27.8 -17.6 27.8 -21.4 17.8 -21.4 17.8 -29.6 25.4 -29.6 25.4 -33.4 12.8 -33.4 Q14.2 -36.2 15.0 -38.6 16.8 -39.2 15.6 -39.8 L11.6 -41.0 Q9.2 -31.2 3.2 -26.2 L6.2 -23.2 Q9.4 -26.0 11.2 -29.6 L13.8 -29.6 13.8 -21.4 3.4 -21.4 3.4 -17.6" fill-rule="evenodd" stroke="none"/>
    </g>
    <g id="font___________60">
      <path d="M10.8 -40.0 L10.8 -40.0 9.0 -36.4 Q16.8 -34.2 24.0 -31.2 L26.0 -35.2 Q16.4 -38.6 10.8 -40.0 M13.2 -1.8 L14.8 2.6 18.4 2.6 Q29.6 2.6 33.6 -1.4 37.0 -4.8 37.0 -9.4 37.0 -13.6 34.4 -16.2 31.2 -19.4 25.8 -19.4 16.8 -19.4 9.8 -13.4 L11.2 -26.4 Q13.2 -27.2 11.2 -28.0 L7.0 -28.8 4.8 -7.4 8.8 -7.0 Q16.0 -15.6 24.8 -15.6 29.0 -15.6 30.8 -13.8 32.8 -11.8 32.8 -9.4 32.8 -6.6 30.6 -4.4 28.0 -1.8 18.0 -1.8 L13.2 -1.8" fill-rule="evenodd" stroke="none"/>
    </g>
    <g id="font___________61">
      <path d="M40.2 -6.6 L40.2 -6.6 Q38.8 -3.0 35.0 -3.0 32.2 -3.0 31.4 -3.8 30.6 -4.6 30.6 -5.6 30.6 -6.8 31.4 -7.6 32.0 -8.2 34.2 -8.2 37.0 -8.2 40.2 -6.6 M19.8 -13.2 L19.8 -13.2 Q17.2 -16.8 15.6 -21.4 19.8 -24.6 24.2 -25.8 22.2 -17.4 19.8 -13.2 M17.4 -8.8 L17.4 -8.8 Q16.6 -7.2 14.4 -5.0 13.0 -3.6 11.0 -3.6 10.0 -3.6 9.2 -4.4 8.0 -5.6 8.0 -8.6 8.0 -11.2 9.6 -14.4 10.2 -15.6 12.2 -18.2 14.2 -13.4 17.4 -8.8 M43.6 -3.6 L43.6 -3.6 46.4 -0.2 49.4 -3.8 45.6 -7.4 Q46.6 -11.2 46.6 -16.0 46.6 -22.4 43.0 -26.0 38.6 -30.4 29.4 -30.4 30.2 -34.6 30.4 -38.2 32.2 -39.4 30.0 -39.8 L25.8 -40.6 Q26.0 -35.8 25.0 -30.0 19.6 -29.0 14.4 -25.4 13.4 -31.2 13.4 -35.0 15.2 -36.6 13.0 -36.6 L8.8 -36.0 Q8.8 -30.0 10.6 -22.2 7.4 -19.0 5.8 -15.6 4.2 -12.2 4.2 -8.4 4.2 -3.8 7.2 -0.8 8.6 0.6 11.0 0.6 14.4 0.6 18.0 -3.0 L20.0 -5.6 21.8 -3.6 24.8 -7.2 22.8 -9.8 Q27.0 -18.2 28.8 -26.4 36.0 -26.4 39.0 -23.4 42.0 -20.4 42.0 -15.2 42.0 -11.4 41.6 -10.0 37.8 -11.6 34.8 -11.6 30.6 -11.6 28.6 -9.6 27.0 -8.0 27.0 -5.6 27.0 -2.8 28.6 -1.2 30.6 0.8 35.2 0.8 40.4 0.8 43.6 -3.6" fill-rule="evenodd" stroke="none"/>
    </g>
    <g id="font___________62">
      <path d="M21.6 -27.4 L18.2 -37.6 Q19.4 -39.2 17.6 -39.2 L12.8 -38.2 17.0 -26.2 2.6 -22.8 4.2 -18.4 18.4 -22.2 26.6 2.8 31.4 1.4 23.0 -23.4 40.0 -27.8 Q37.0 -21.8 32.8 -16.8 L36.6 -14.0 Q42.4 -21.4 45.8 -27.8 47.6 -28.4 46.6 -29.6 L43.0 -33.2 40.8 -32.2 21.6 -27.4" fill-rule="evenodd" stroke="none"/>
    </g>
    <g id="font___________63">
      <path d="M20.4 -22.6 L25.0 -25.0 Q22.2 -31.4 19.2 -35.6 L14.6 -33.4 Q17.6 -29.0 20.4 -22.6 M8.0 -18.8 L12.6 -21.2 Q9.6 -28.0 6.6 -32.8 L2.2 -30.4 Q5.4 -25.0 8.0 -18.8 M40.8 -31.4 L40.8 -31.4 Q42.8 -32.6 40.8 -33.2 L36.0 -34.6 Q34.0 -17.0 26.8 -10.2 21.0 -4.8 10.2 -1.8 L13.8 2.4 Q24.8 -1.2 31.2 -7.8 38.4 -15.2 40.8 -31.4" fill-rule="evenodd" stroke="none"/>
    </g>
    <g id="font___________64">
      <path d="M43.4 -29.6 L46.0 -32.2 Q41.6 -35.8 38.0 -37.8 L35.6 -35.4 Q38.8 -33.4 43.4 -29.6 M42.0 -42.4 L39.6 -40.0 Q43.2 -37.8 47.6 -34.4 L50.0 -36.8 Q45.6 -40.4 42.0 -42.4 M30.8 -16.0 L30.8 -16.0 Q30.8 -24.4 28.4 -26.8 27.0 -28.2 24.2 -28.2 L19.2 -27.8 21.6 -36.8 Q24.2 -37.6 21.8 -38.6 L17.6 -40.0 Q16.4 -33.6 14.6 -27.4 L4.6 -26.8 5.0 -22.4 13.6 -23.4 Q9.2 -9.0 3.4 0.0 L8.0 1.6 Q13.8 -9.0 18.0 -23.8 L23.0 -24.2 Q24.8 -24.2 25.4 -23.6 26.6 -22.4 26.6 -16.8 26.6 -6.8 24.4 -4.6 23.6 -3.8 22.6 -3.8 21.0 -3.8 17.8 -7.0 L15.2 -3.4 Q19.0 1.0 22.8 1.0 25.4 1.0 27.4 -1.0 30.8 -4.4 30.8 -16.0 M36.8 -32.0 L33.2 -29.4 Q40.0 -23.0 43.6 -10.0 L48.0 -11.8 Q45.0 -23.6 36.8 -32.0" fill-rule="evenodd" stroke="none"/>
    </g>
    <g id="font___________65">
      <path d="M20.8 -31.6 L18.4 -23.2 14.6 -23.2 12.6 -31.6 20.8 -31.6 M14.2 -41.4 L14.2 -35.4 5.4 -35.4 5.4 -31.6 8.0 -31.6 10.4 -23.2 2.8 -23.2 2.8 -19.4 30.2 -19.4 30.2 -23.2 22.6 -23.2 25.4 -31.6 28.2 -31.6 28.2 -35.4 18.8 -35.4 18.8 -39.8 Q20.6 -41.0 18.6 -41.4 L14.2 -41.4 M10.8 -12.0 L21.8 -12.0 21.8 -3.6 10.8 -3.6 10.8 -12.0 M6.8 -15.8 L6.8 3.4 10.8 3.4 10.8 0.2 21.8 0.2 21.8 2.4 25.8 2.4 25.8 -15.8 6.8 -15.8 M39.0 -2.0 L42.6 -2.0 Q47.8 -2.0 48.0 -9.8 48.2 -15.0 42.2 -21.6 L46.6 -35.0 47.4 -35.6 43.8 -38.6 43.4 -38.0 31.6 -38.0 31.6 4.6 35.6 4.6 35.6 -34.2 42.2 -34.2 38.6 -20.8 Q42.8 -16.6 43.6 -11.0 44.2 -6.4 41.4 -6.4 L38.2 -6.4 39.0 -2.0" fill-rule="evenodd" stroke="none"/>
    </g>
    <g id="font___________66">
      <path d="M27.4 -22.0 L35.6 -22.0 33.2 -19.8 36.6 -17.2 24.0 -16.8 27.4 -22.0 M40.0 -32.2 L11.4 -32.2 11.4 -36.0 40.0 -36.0 40.0 -32.2 M13.2 -16.8 L14.6 -13.0 Q15.6 -11.6 16.0 -13.2 L26.8 -13.6 26.8 -9.2 14.4 -9.2 14.4 -5.4 26.8 -5.4 26.8 -0.6 10.0 -0.6 10.0 3.2 48.2 3.2 48.2 -0.6 30.8 -0.6 30.8 -5.4 43.2 -5.4 43.2 -9.2 30.8 -9.2 30.8 -14.0 39.6 -14.6 42.4 -11.8 45.8 -14.2 Q42.2 -18.0 36.4 -22.0 L46.8 -22.0 46.8 -25.8 11.4 -25.8 11.4 -29.0 44.0 -29.0 44.0 -39.2 7.4 -39.2 7.4 -18.0 Q7.4 -5.2 2.2 0.8 L5.8 3.4 Q11.4 -3.6 11.4 -17.2 L11.4 -22.0 22.6 -22.0 20.2 -16.8 13.2 -16.8" fill-rule="evenodd" stroke="none"/>
    </g>
    <g id="font___________67">
      <path d="M42.6 -28.2 L42.6 -32.4 20.2 -31.2 20.2 -27.0 42.6 -28.2 M5.6 1.4 L10.2 1.0 Q9.4 -8.6 9.4 -16.4 9.4 -23.4 11.4 -35.0 13.4 -36.4 11.2 -36.8 L7.2 -37.8 Q5.0 -25.4 5.0 -16.4 5.0 -9.0 5.6 1.4 M34.2 -2.4 L45.2 -2.4 45.2 -6.8 34.2 -6.8 Q26.6 -6.6 21.2 -11.8 L18.6 -8.4 Q24.8 -2.4 34.2 -2.4" fill-rule="evenodd" stroke="none"/>
    </g>
    <g id="font___________68">
      <path d="M5.8 -17.0 L5.8 -17.0 Q5.8 -8.2 7.2 -1.0 L11.6 -1.8 Q10.0 -9.8 10.0 -17.0 10.0 -25.8 11.8 -34.4 14.2 -35.6 11.6 -36.2 L7.8 -37.2 Q5.8 -28.6 5.8 -17.0 M35.6 -16.4 L35.6 -23.2 45.6 -24.2 45.0 -28.4 35.6 -27.2 35.6 -37.6 Q37.0 -38.8 35.2 -39.2 L31.6 -39.2 31.6 -27.0 Q24.0 -26.4 17.2 -26.6 L17.2 -22.2 31.6 -22.8 31.6 -17.2 Q31.6 -6.8 24.6 1.2 L28.8 3.6 Q35.6 -4.8 35.6 -16.4" fill-rule="evenodd" stroke="none"/>
    </g>
    <g id="font___________69">
      <path d="M35.8 -41.4 L35.8 -41.4 33.8 -38.8 41.6 -33.8 43.6 -36.4 35.8 -41.4 M31.4 -37.4 L31.4 -37.4 29.4 -34.8 37.2 -29.8 39.2 -32.4 31.4 -37.4 M36.6 -21.8 L34.6 -27.0 Q25.2 -24.4 19.6 -22.0 18.4 -24.6 18.2 -28.8 L17.8 -38.4 Q19.6 -39.6 17.4 -40.0 L13.2 -40.0 14.0 -26.8 Q14.2 -23.2 15.4 -20.2 9.8 -17.0 7.4 -14.6 4.2 -11.4 4.2 -7.0 4.2 -3.6 6.8 -1.0 9.4 1.6 16.0 1.6 L35.4 1.6 35.4 -2.8 16.2 -2.8 Q11.8 -2.8 10.4 -4.2 9.0 -5.6 9.0 -7.4 9.0 -9.8 11.2 -12.0 17.6 -18.4 36.6 -21.8" fill-rule="evenodd" stroke="none"/>
    </g>
  </defs>
</svg>
