<?xml version="1.0" encoding="UTF-8" standalone="no"?>
<svg xmlns:ffdec="https://www.free-decompiler.com/flash" xmlns:xlink="http://www.w3.org/1999/xlink" ffdec:objectType="frame" height="280.0px" width="720.0px" xmlns="http://www.w3.org/2000/svg">
  <g transform="matrix(1.0, 0.0, 0.0, 1.0, 0.0, 0.0)">
    <use ffdec:characterId="2" height="11.25" transform="matrix(5.037, 0.0, 0.0, 5.037, 209.9461, 29.9036)" width="70.5" xlink:href="#text0"/>
  </g>
  <defs>
    <g id="text0" transform="matrix(1.0, 0.0, 0.0, 1.0, -3.95, -1.45)">
      <g transform="matrix(1.0, 0.0, 0.0, 1.0, 0.0, 0.0)">
        <use fill="#cccccc" height="11.25" transform="matrix(0.2734, 0.0, 0.0, 0.2734, 0.0, 12.05)" width="70.5" xlink:href="#font_HG____-PRO__0"/>
        <use fill="#cccccc" height="11.25" transform="matrix(0.2734, 0.0, 0.0, 0.2734, 14.0, 12.05)" width="70.5" xlink:href="#font_HG____-PRO__1"/>
        <use fill="#cccccc" height="11.25" transform="matrix(0.2734, 0.0, 0.0, 0.2734, 28.0, 12.05)" width="70.5" xlink:href="#font_HG____-PRO__2"/>
        <use fill="#cccccc" height="11.25" transform="matrix(0.2734, 0.0, 0.0, 0.2734, 42.0, 12.05)" width="70.5" xlink:href="#font_HG____-PRO__3"/>
        <use fill="#cccccc" height="11.25" transform="matrix(0.2734, 0.0, 0.0, 0.2734, 56.0, 12.05)" width="70.5" xlink:href="#font_HG____-PRO__4"/>
      </g>
    </g>
    <g id="font_HG____-PRO__0">
      <path d="M24.0 -38.6 Q25.8 -38.0 27.2 -36.6 28.0 -35.6 28.2 -34.8 28.4 -33.8 27.8 -32.8 L25.8 -27.2 Q26.6 -27.0 28.0 -27.2 29.6 -26.6 30.4 -26.0 31.4 -25.4 31.2 -24.4 31.0 -23.6 30.0 -23.6 L25.0 -24.0 Q23.6 -18.6 23.0 -14.4 25.0 -14.2 26.6 -14.4 27.6 -14.2 28.4 -13.6 29.0 -13.0 29.0 -12.0 28.8 -11.2 27.4 -11.0 L22.6 -11.4 22.6 -9.2 Q22.6 -1.4 28.0 -1.4 30.0 -1.4 32.0 -3.2 34.6 -5.8 34.6 -9.0 34.6 -11.0 32.8 -15.8 32.6 -16.6 33.0 -16.6 35.4 -13.8 36.4 -11.6 37.6 -9.0 37.6 -6.8 37.8 -4.0 35.0 -1.2 31.8 1.6 28.8 1.6 24.8 1.6 22.2 -1.4 19.8 -5.2 19.8 -12.0 15.4 -13.0 14.4 -16.2 L14.6 -16.4 Q17.4 -15.0 20.0 -14.8 L21.8 -24.4 17.8 -25.4 Q16.2 -26.2 15.2 -27.6 14.8 -28.6 15.8 -28.2 L17.4 -27.6 22.4 -27.2 Q24.0 -33.6 24.0 -35.0 L23.8 -36.2 22.8 -37.6 Q22.4 -39.2 24.0 -38.6" fill-rule="evenodd" stroke="none"/>
    </g>
    <g id="font_HG____-PRO__1">
      <path d="M23.0 -37.2 Q23.8 -36.4 24.0 -35.6 24.2 -34.8 23.4 -34.0 L21.6 -30.0 23.4 -30.6 24.4 -31.4 26.0 -31.6 Q28.6 -31.2 29.0 -30.4 29.2 -29.6 28.4 -29.2 L20.8 -27.4 Q16.2 -17.0 14.6 -15.0 13.4 -13.6 12.4 -14.8 12.0 -15.4 12.0 -16.8 L12.2 -18.0 12.6 -18.6 Q14.6 -20.4 17.6 -26.8 L15.4 -26.6 13.2 -27.0 Q12.2 -27.4 11.8 -28.0 11.4 -28.4 11.8 -28.8 L14.0 -28.6 18.8 -29.2 Q20.4 -33.0 20.4 -34.2 20.6 -36.0 20.0 -37.2 19.6 -38.0 20.6 -38.0 L23.0 -37.2 M36.4 -28.4 Q36.0 -29.0 37.0 -29.0 40.2 -28.2 41.6 -26.4 42.8 -25.0 42.8 -22.8 42.8 -22.0 42.4 -21.6 41.8 -21.2 41.0 -21.6 40.2 -22.2 39.4 -22.4 38.4 -22.8 35.6 -22.4 35.0 -22.6 35.4 -23.0 L37.6 -23.8 Q38.6 -24.2 38.4 -25.2 37.8 -27.4 36.4 -28.4 M19.6 -6.8 Q21.8 -8.0 25.6 -8.0 L29.0 -7.8 29.0 -13.6 Q29.0 -19.0 32.6 -21.6 33.6 -22.0 33.6 -21.4 32.4 -20.0 32.2 -18.6 L32.0 -15.8 32.0 -7.2 Q35.6 -6.4 38.0 -5.0 39.8 -4.0 39.8 -2.4 39.8 0.0 37.8 -0.4 34.4 -3.2 32.0 -4.2 30.6 -1.2 28.4 -0.2 26.0 0.8 23.2 0.6 L20.8 0.0 Q19.6 -0.6 18.4 -1.4 17.4 -2.4 17.4 -3.8 17.4 -5.6 19.6 -6.8 M22.6 -6.0 Q18.6 -6.0 18.6 -4.0 18.6 -1.6 23.2 -1.6 27.4 -1.6 28.8 -5.4 L22.6 -6.0" fill-rule="evenodd" stroke="none"/>
    </g>
    <g id="font_HG____-PRO__2">
      <path d="M26.6 -32.2 Q29.2 -32.2 30.4 -30.8 30.8 -29.6 29.6 -29.2 24.4 -27.6 21.2 -27.0 18.6 -17.6 16.6 -12.0 16.2 -11.2 17.2 -11.6 22.6 -14.4 26.0 -15.6 30.0 -17.0 34.0 -17.0 38.0 -17.0 40.0 -15.4 42.6 -13.4 42.6 -10.0 42.6 -5.8 37.0 -2.6 30.8 0.0 24.6 0.6 24.4 0.4 24.8 0.0 32.8 -3.0 36.0 -5.8 38.8 -8.2 38.8 -11.4 38.8 -15.2 33.6 -15.2 30.2 -15.2 27.4 -14.0 24.0 -12.6 16.8 -7.6 15.2 -5.8 14.4 -6.0 13.8 -6.2 13.4 -7.2 L12.8 -8.8 Q12.8 -10.4 13.2 -11.0 16.2 -17.6 18.2 -26.6 L15.6 -26.4 Q13.8 -26.4 12.2 -28.2 11.6 -29.4 12.6 -29.0 L15.2 -28.6 18.8 -29.0 Q19.6 -32.4 19.6 -34.8 19.6 -36.4 18.2 -37.6 17.8 -38.6 18.8 -38.6 21.4 -38.0 22.2 -37.4 23.4 -36.4 23.6 -35.4 23.6 -34.4 23.2 -33.2 L22.0 -29.6 Q23.6 -30.2 25.0 -31.0 L25.8 -31.8 Q26.2 -32.2 26.6 -32.2" fill-rule="evenodd" stroke="none"/>
    </g>
    <g id="font_HG____-PRO__3">
      <path d="M24.8 -26.2 Q27.8 -25.2 29.0 -23.6 30.2 -22.2 30.2 -20.8 30.2 -19.8 29.2 -20.0 L27.0 -21.4 24.2 -22.2 Q23.8 -22.6 24.4 -22.6 L25.4 -22.8 Q26.2 -23.8 24.4 -25.6 24.0 -26.2 24.8 -26.2 M19.6 -14.4 Q24.8 -16.4 31.4 -18.4 L36.0 -19.0 Q38.6 -19.0 39.6 -18.0 41.0 -17.0 41.0 -15.0 41.0 -13.2 39.0 -11.8 37.2 -10.6 32.2 -9.4 30.8 -9.2 31.0 -9.8 35.2 -11.6 36.4 -13.2 37.2 -14.0 37.2 -15.2 37.2 -17.6 34.0 -17.6 32.4 -17.6 29.6 -16.6 26.8 -15.6 20.6 -12.6 24.2 -5.8 25.0 -3.4 25.8 -1.4 25.8 0.4 25.8 2.4 24.2 2.4 23.2 2.2 23.0 1.2 21.4 -6.4 18.8 -11.6 16.6 -10.4 15.2 -10.0 13.8 -9.8 12.6 -10.4 11.6 -11.0 10.4 -12.8 10.2 -13.4 10.8 -13.2 12.0 -12.4 13.4 -12.6 15.6 -13.0 17.8 -13.8 L16.8 -16.4 Q16.2 -19.0 17.4 -20.2 18.6 -21.4 21.0 -21.6 22.2 -21.2 21.0 -20.8 18.6 -19.8 18.8 -17.4 18.8 -16.6 19.6 -14.4" fill-rule="evenodd" stroke="none"/>
    </g>
    <g id="font_HG____-PRO__4">
      <path d="M36.4 -31.2 Q37.6 -31.2 39.6 -30.4 40.8 -29.6 38.8 -28.4 34.2 -26.2 29.6 -23.2 26.6 -21.4 23.6 -19.2 24.0 -18.2 23.4 -17.4 L22.6 -17.2 Q22.0 -17.2 21.4 -17.6 17.4 -14.4 16.4 -12.6 15.6 -11.4 15.6 -9.6 15.6 -7.8 17.8 -6.4 19.8 -5.0 26.2 -5.0 L33.4 -5.6 36.6 -6.4 Q37.4 -6.4 39.0 -5.6 40.8 -4.6 40.2 -3.8 39.8 -3.2 38.8 -2.8 L34.8 -2.4 27.4 -2.4 Q20.8 -2.4 17.2 -4.2 13.6 -6.0 13.6 -9.6 13.6 -11.6 15.2 -14.0 17.6 -17.0 20.4 -19.2 L15.6 -32.0 Q14.8 -33.0 13.6 -33.4 12.6 -34.4 14.4 -34.6 17.6 -34.6 19.0 -33.6 19.4 -33.4 19.4 -32.6 L20.2 -29.2 Q21.0 -25.6 22.8 -21.2 L34.2 -30.4 Q35.0 -31.2 36.4 -31.2" fill-rule="evenodd" stroke="none"/>
    </g>
  </defs>
</svg>
