<?xml version="1.0" encoding="UTF-8" standalone="no"?>
<svg xmlns:ffdec="https://www.free-decompiler.com/flash" xmlns:xlink="http://www.w3.org/1999/xlink" ffdec:objectType="frame" height="280.0px" width="720.0px" xmlns="http://www.w3.org/2000/svg">
  <g transform="matrix(1.0, 0.0, 0.0, 1.0, 0.0, 0.0)">
    <use ffdec:characterId="1" height="201.15" transform="matrix(1.0, 0.0, 0.0, 1.0, 9.15, 24.7)" width="395.35" xlink:href="#shape0"/>
  </g>
  <defs>
    <g id="shape0" transform="matrix(1.0, 0.0, 0.0, 1.0, -9.15, -24.7)">
      <path d="M385.45 120.65 L380.55 120.65 380.55 119.95 385.45 119.95 385.45 120.65 M366.75 104.3 L367.6 105.55 367.15 106.05 366.3 104.75 366.75 104.3 M367.6 103.85 L368.5 105.05 368.05 105.55 367.2 104.3 367.6 103.85 M364.95 106.05 L363.7 104.95 362.45 106.05 361.6 106.05 363.2 104.3 364.25 104.3 365.75 106.05 364.95 106.05 M369.15 108.85 L374.05 108.85 374.05 109.55 369.15 109.55 369.15 108.85 M374.9 112.35 L375.4 111.55 376.9 113.35 376.3 114.2 374.9 112.35 M378.6 115.45 L379.0 115.0 379.9 116.2 379.45 116.7 378.6 115.45 M377.7 115.85 L378.15 115.45 379.0 116.7 378.55 117.2 377.7 115.85 M372.75 147.55 L372.75 147.0 376.1 147.0 376.1 147.55 372.75 147.55 M376.2 147.0 L379.5 147.0 379.5 147.55 376.2 147.55 376.2 147.0 M383.5 145.4 L383.5 146.35 382.95 147.5 382.5 147.5 382.95 146.35 382.5 146.35 382.5 145.4 383.5 145.4 M381.2 145.4 L381.2 146.35 380.65 147.5 380.2 147.5 380.65 146.35 380.2 146.35 380.2 145.4 381.2 145.4 M384.4 142.15 L389.35 142.15 389.35 142.9 384.4 142.9 384.4 142.15 M391.25 127.85 L392.05 127.85 392.05 129.0 391.25 129.0 391.25 127.85 M385.8 124.8 L389.0 124.8 389.0 125.05 389.1 125.05 389.1 125.35 385.8 125.35 385.8 124.8 M392.05 130.4 L392.05 135.3 391.25 135.3 391.25 130.4 392.05 130.4 M394.3 138.5 L394.75 137.6 Q395.05 137.1 395.5 137.1 395.9 137.1 396.4 137.65 397.05 138.15 397.45 138.2 L398.0 137.7 398.3 137.15 398.7 137.7 398.15 138.6 Q397.85 139.1 397.35 139.1 397.0 139.1 396.35 138.45 L395.55 138.0 Q395.15 138.0 394.95 138.4 L394.75 139.0 394.3 138.5 M393.55 138.75 L393.55 139.7 393.0 141.0 392.55 141.0 393.0 139.7 392.55 139.7 392.55 138.75 393.55 138.75 M391.3 138.75 L391.3 139.7 390.75 141.0 390.3 141.0 390.75 139.7 390.3 139.7 390.3 138.75 391.3 138.75 M400.4 140.1 L399.6 140.1 399.6 138.95 400.4 138.95 400.4 140.1 M403.1 147.5 L401.65 145.65 402.2 144.9 403.7 146.7 403.1 147.5 M400.4 141.45 L400.4 146.35 399.6 146.35 399.6 141.45 400.4 141.45 M354.7 107.7 L354.25 107.7 354.7 106.4 354.25 106.4 354.25 105.4 355.25 105.4 355.25 106.4 354.7 107.7 M356.15 108.85 L361.05 108.85 361.05 109.55 356.15 109.55 356.15 108.85 M351.8 104.3 L353.35 106.05 352.5 106.05 351.25 104.95 350.0 106.05 349.2 106.05 350.75 104.3 351.8 104.3 M348.35 105.4 L348.35 106.4 347.8 107.7 347.4 107.7 347.8 106.4 347.4 106.4 347.4 105.4 348.35 105.4 M345.1 107.7 L345.55 106.4 345.1 106.4 345.1 105.4 346.05 105.4 346.05 106.4 345.55 107.7 345.1 107.7 M340.6 105.05 L340.4 105.65 339.95 105.2 340.4 104.25 Q340.7 103.75 341.15 103.75 341.6 103.75 342.1 104.3 342.75 104.85 343.15 104.85 L343.65 104.35 343.95 103.8 344.4 104.35 343.85 105.3 343.0 105.8 Q342.7 105.75 342.05 105.1 341.5 104.65 341.2 104.7 340.8 104.65 340.6 105.05 M337.25 109.55 L332.3 109.55 332.3 108.85 337.25 108.85 337.25 109.55 M339.2 105.4 L339.2 106.4 338.65 107.7 338.2 107.7 338.65 106.4 338.2 106.4 338.2 105.4 339.2 105.4 M330.4 114.2 L330.85 113.05 330.4 113.05 330.4 112.05 331.4 112.05 331.4 113.05 330.85 114.2 330.4 114.2 M329.1 113.05 L328.55 114.2 328.1 114.2 328.55 113.05 328.1 113.05 328.1 112.05 329.1 112.05 329.1 113.05 M327.4 114.25 L324.1 114.25 324.1 113.75 326.75 113.75 326.75 113.7 327.4 113.7 327.4 114.25 M363.35 148.1 L363.35 159.15 362.5 159.15 362.5 148.1 363.35 148.1 M353.75 161.15 L354.8 163.65 353.85 164.35 352.9 161.85 353.75 161.15 M349.5 161.95 L348.95 163.3 348.55 163.3 348.95 161.95 348.55 161.95 348.55 161.0 349.5 161.0 349.5 161.95 M350.8 161.95 L350.8 161.0 351.8 161.0 351.8 161.95 351.25 163.3 350.8 163.3 351.25 161.95 350.8 161.95 M347.55 165.15 L342.65 165.15 342.65 164.45 347.55 164.45 347.55 165.15 M351.75 172.0 L347.15 180.2 346.75 180.0 346.75 179.9 351.3 171.75 351.75 172.0 M357.3 172.0 L352.75 180.2 352.3 179.95 356.85 171.75 357.3 172.0 M359.15 168.45 L368.65 160.55 369.15 161.15 359.65 169.05 359.15 168.45 M357.85 161.6 Q358.2 161.8 357.85 161.85 357.65 167.1 354.55 169.5 L353.95 168.55 Q356.75 166.55 357.0 161.15 L357.85 161.6 M338.9 168.65 L338.5 168.65 338.5 167.65 339.45 167.65 339.45 168.65 338.9 169.75 338.5 169.75 338.9 168.65 M337.7 169.85 L334.4 169.85 334.4 169.5 334.5 169.5 334.5 169.3 337.7 169.3 337.7 169.85 M336.65 172.35 L336.65 173.5 335.8 173.5 335.8 172.35 336.65 172.35 M341.7 168.65 L341.15 169.75 340.75 169.75 341.15 168.65 340.75 168.65 340.75 167.65 341.7 167.65 341.7 168.65 M335.8 179.75 L335.8 174.85 336.65 174.85 336.65 179.75 335.8 179.75 M324.75 180.4 L324.75 180.95 321.45 180.95 321.45 180.4 324.75 180.4 M326.45 181.7 L327.3 182.9 326.85 183.4 326.0 182.15 326.45 181.7 M325.1 182.6 L325.55 182.15 326.45 183.4 325.95 183.9 325.1 182.6 M329.65 184.6 Q333.15 186.85 334.8 189.1 L333.7 190.0 Q332.0 187.6 328.7 185.45 L329.65 184.6 M341.05 185.95 L338.85 191.15 338.4 192.1 337.5 192.4 336.7 192.25 336.7 191.45 337.45 191.6 337.85 191.45 338.1 190.95 336.05 185.95 336.95 185.95 338.55 189.85 340.05 185.95 341.05 185.95 M342.85 192.65 L342.85 203.65 342.0 203.65 342.0 192.65 342.85 192.65 M364.35 183.25 L365.35 183.25 365.35 184.25 364.8 185.55 364.35 185.55 364.8 184.25 364.35 184.25 364.35 183.25 M349.95 183.15 L345.35 191.3 344.95 191.1 349.5 182.85 349.95 183.15 M353.55 191.55 L353.55 192.1 350.2 192.1 350.2 191.55 353.55 191.55 M354.25 189.9 L355.25 189.9 355.25 190.9 354.7 192.05 354.25 192.05 354.7 190.9 354.25 190.9 354.25 189.9 M345.3 194.6 L345.3 195.75 344.5 195.75 344.5 194.6 345.3 194.6 M346.75 197.05 L347.7 197.05 347.7 198.0 346.75 198.0 346.75 197.05 M345.3 197.1 L345.3 202.0 344.5 202.0 344.5 197.1 345.3 197.1 M350.1 192.65 L350.1 203.65 349.25 203.65 349.25 192.65 350.1 192.65 M363.35 187.4 L358.45 187.4 358.45 186.7 363.35 186.7 363.35 187.4 M357.55 189.9 L357.55 190.9 357.0 192.05 356.55 192.05 357.0 190.9 356.55 190.9 356.55 189.9 357.55 189.9 M404.5 157.5 L403.7 157.5 403.7 152.6 404.5 152.6 404.5 157.5 M403.7 151.2 L403.7 150.1 404.5 150.1 404.5 151.2 403.7 151.2 M386.5 150.0 L377.0 157.95 376.5 157.35 386.0 149.4 386.5 150.0 M385.15 173.1 L384.6 174.4 384.15 174.4 384.6 173.1 384.15 173.1 384.15 172.1 385.15 172.1 385.15 173.1 M387.05 170.5 L387.2 170.5 Q387.55 170.6 387.95 171.05 388.6 171.55 389.0 171.55 L389.55 171.1 389.8 170.55 390.25 171.1 389.7 172.0 Q389.35 172.5 388.9 172.5 388.55 172.5 387.9 171.85 387.35 171.4 387.1 171.4 386.7 171.4 386.5 171.8 L386.3 172.4 385.85 171.9 386.3 170.95 386.85 170.5 387.05 170.5 M395.3 169.05 L395.25 169.05 395.25 168.1 399.45 160.6 399.85 160.9 395.3 169.05 M368.75 150.1 L368.75 156.6 Q372.75 155.85 374.6 152.6 L375.3 153.3 Q373.25 156.95 368.4 157.75 L367.65 157.3 367.8 157.0 367.8 149.8 368.7 149.8 Q369.15 149.8 368.75 150.1 M364.9 157.5 L364.9 156.5 365.85 156.5 365.85 157.5 364.9 157.5 M383.15 176.25 L378.25 176.25 378.25 175.55 383.15 175.55 383.15 176.25 M377.3 178.75 L377.3 179.75 376.75 180.9 376.3 180.9 376.75 179.75 376.3 179.75 376.3 178.75 377.3 178.75 M369.55 181.6 L370.45 182.15 Q371.1 182.7 371.5 182.7 L372.05 182.2 372.3 181.65 372.75 182.2 372.2 183.15 Q371.85 183.6 371.4 183.65 L370.4 182.95 Q369.85 182.5 369.6 182.55 369.2 182.5 369.0 182.9 L368.75 183.5 368.35 183.05 368.75 182.1 Q369.1 181.6 369.55 181.6 M366.65 183.25 L367.6 183.25 367.6 184.25 367.05 185.55 366.65 185.55 367.05 184.25 366.65 184.25 366.65 183.25 M365.55 204.2 L354.45 204.2 354.45 203.7 365.55 203.7 365.55 204.2 M376.7 204.2 L365.6 204.2 365.6 203.7 376.7 203.7 376.7 204.2 M354.4 204.2 L343.35 204.2 343.35 203.7 354.4 203.7 354.4 204.2 M347.7 202.0 L346.75 202.0 346.75 201.05 347.7 201.05 347.7 202.0 M332.15 204.2 L321.1 204.2 321.1 203.7 332.15 203.7 332.15 204.2 M343.3 204.2 L332.2 204.2 332.2 203.7 343.3 203.7 343.3 204.2 M265.9 48.9 Q266.25 48.85 265.95 49.1 L266.15 50.9 268.0 50.65 268.2 51.5 266.3 51.85 266.65 53.85 269.1 53.4 269.25 54.35 266.75 54.7 267.35 58.15 266.35 58.3 265.9 54.9 263.2 55.3 263.05 54.35 265.7 54.0 265.45 51.95 263.7 52.25 263.55 51.3 265.2 51.05 265.0 49.05 265.9 48.9 M282.15 51.95 L282.95 52.6 Q282.0 55.2 281.05 56.2 279.65 57.45 277.95 57.75 277.8 58.15 277.7 57.7 L277.45 56.8 Q279.45 56.4 280.45 55.3 281.35 54.25 282.15 51.95 M278.95 52.65 L277.55 50.9 278.1 49.9 279.55 51.7 278.95 52.65 M276.45 53.95 L270.3 53.95 270.3 53.15 276.45 53.15 276.45 53.95 M264.8 60.25 L264.8 62.35 267.1 62.35 267.1 66.75 Q267.05 68.05 266.65 68.5 266.25 68.9 265.75 68.9 L264.8 68.75 264.6 67.55 265.6 67.8 266.0 67.65 Q266.2 67.45 266.2 66.35 L266.2 63.15 264.8 63.15 Q264.8 66.85 262.65 68.9 L261.95 68.1 Q263.8 66.15 263.9 63.15 L262.1 63.15 262.1 62.35 263.9 62.35 263.9 59.8 264.7 59.9 Q265.15 60.0 264.8 60.25 M268.45 64.2 L274.6 64.2 274.6 65.05 268.45 65.05 268.45 64.2 M279.15 67.25 Q277.75 68.5 276.0 68.85 275.9 69.2 275.8 68.8 L275.55 67.85 Q277.55 67.45 278.55 66.4 279.45 65.35 280.2 63.0 L281.05 63.65 Q280.1 66.25 279.15 67.25 M275.65 61.95 L276.2 61.0 277.65 62.8 277.05 63.7 275.65 61.95 M245.2 85.85 L245.2 90.8 244.4 90.8 244.4 85.85 245.2 85.85 M245.2 84.5 L244.4 84.5 244.4 83.35 245.2 83.35 245.2 84.5 M244.85 92.5 L244.85 103.55 243.95 103.55 243.95 92.5 244.85 92.5 M305.55 52.6 Q304.6 55.2 303.65 56.2 302.25 57.45 300.5 57.75 300.4 58.15 300.3 57.7 L300.05 56.8 Q302.05 56.4 303.05 55.3 303.95 54.25 304.7 51.95 L305.55 52.6 M301.55 52.65 L300.15 50.9 300.7 49.9 302.15 51.7 301.55 52.65 M299.1 53.95 L292.95 53.95 292.95 53.15 299.1 53.15 299.1 53.95 M287.1 50.9 L291.5 50.9 291.5 57.45 290.65 57.45 290.65 56.8 287.1 56.8 287.1 55.95 290.65 55.95 290.65 51.7 287.1 51.7 287.1 50.9 M291.05 64.2 L297.2 64.2 297.2 65.05 291.05 65.05 291.05 64.2 M288.75 62.8 L285.2 62.8 285.2 61.95 289.6 61.95 289.6 68.5 288.75 68.5 288.75 67.85 285.2 67.85 285.2 67.05 288.75 67.05 288.75 62.8 M299.7 63.7 L298.3 61.95 298.85 61.0 300.3 62.8 299.7 63.7 M303.7 63.65 Q302.75 66.25 301.75 67.25 300.4 68.5 298.65 68.85 298.55 69.2 298.45 68.8 L298.15 67.85 Q300.15 67.45 301.15 66.4 302.1 65.35 302.85 63.0 L303.7 63.65 M201.85 49.95 L207.8 49.95 207.8 50.85 205.25 50.85 205.25 57.45 204.3 57.45 204.3 50.85 201.85 50.85 201.85 49.95 M201.25 50.85 L198.7 50.85 198.7 57.45 197.75 57.45 197.75 50.85 195.3 50.85 195.3 49.95 201.25 49.95 201.25 50.85 M194.65 50.85 L192.1 50.85 192.1 57.45 191.15 57.45 191.15 50.85 188.7 50.85 188.7 49.95 194.65 49.95 194.65 50.85 M200.45 59.55 L178.3 59.55 178.3 59.1 200.45 59.1 200.45 59.55 M200.5 59.1 L209.35 59.1 209.35 59.55 209.3 59.55 209.3 70.15 208.45 70.15 208.45 59.55 200.5 59.55 200.5 59.1 M188.1 50.85 L185.55 50.85 185.55 57.45 184.6 57.45 184.6 50.85 182.15 50.85 182.15 49.95 188.1 49.95 188.1 50.85 M191.95 70.7 L180.9 70.7 180.9 70.2 191.95 70.2 191.95 70.7 M193.75 70.25 L193.75 81.3 192.9 81.3 192.9 70.25 193.75 70.25 M179.05 50.85 L179.05 57.45 178.05 57.45 178.05 50.85 175.6 50.85 175.6 49.95 181.55 49.95 181.55 50.85 179.05 50.85 M174.95 50.85 L172.45 50.85 172.45 57.45 171.45 57.45 171.45 50.85 169.0 50.85 169.0 49.95 174.95 49.95 174.95 50.85 M178.25 59.55 L167.2 59.55 167.2 59.1 178.25 59.1 178.25 59.55 M168.4 50.85 L165.9 50.85 165.9 57.45 164.9 57.45 164.9 50.85 162.45 50.85 162.45 49.95 168.4 49.95 168.4 50.85 M167.15 59.55 L156.05 59.55 156.05 59.1 167.15 59.1 167.15 59.55 M163.7 70.25 L163.7 81.3 162.8 81.3 162.8 70.25 163.7 70.25 M164.5 70.2 L175.6 70.2 175.6 70.7 164.5 70.7 164.5 70.2 M180.0 70.25 L180.0 81.3 179.15 81.3 179.15 70.25 180.0 70.25 M177.4 70.25 L177.4 81.3 176.5 81.3 176.5 70.25 177.4 70.25 M177.4 81.4 L177.4 92.4 176.5 92.4 176.5 81.4 177.4 81.4 M180.0 81.4 L180.0 92.4 179.15 92.4 179.15 81.4 180.0 81.4 M163.7 81.4 L163.7 92.4 162.8 92.4 162.8 81.4 163.7 81.4 M164.5 91.9 L175.6 91.9 175.6 92.4 164.5 92.4 164.5 91.9 M180.9 91.9 L191.95 91.9 191.95 92.4 180.9 92.4 180.9 91.9 M193.75 81.4 L193.75 92.4 192.9 92.4 192.9 81.4 193.75 81.4 M227.0 61.1 L227.0 62.25 226.15 62.25 226.15 61.1 227.0 61.1 M227.25 56.55 Q225.55 54.15 222.3 52.0 L223.2 51.15 Q226.7 53.4 228.35 55.65 L227.25 56.55 M229.75 62.25 Q233.25 64.45 234.9 66.7 L233.8 67.65 Q232.1 65.25 228.85 63.05 L229.75 62.25 M226.15 68.5 L226.15 63.6 227.0 63.6 227.0 68.5 226.15 68.5 M236.6 73.35 Q240.05 75.6 241.7 77.85 L240.6 78.8 Q238.9 76.35 235.65 74.2 L236.6 73.35 M233.0 73.35 L233.0 72.25 233.8 72.25 233.8 73.35 233.0 73.35 M218.4 50.85 L218.4 57.45 217.45 57.45 217.45 50.85 215.0 50.85 215.0 49.95 220.9 49.95 220.9 50.85 218.4 50.85 M214.4 50.85 L211.85 50.85 211.85 57.45 210.9 57.45 210.9 50.85 208.45 50.85 208.45 49.95 214.4 49.95 214.4 50.85 M210.1 60.45 L219.6 68.35 219.1 68.95 209.65 61.05 210.1 60.45 M209.4 70.25 L209.4 81.3 208.55 81.3 208.55 70.25 209.4 70.25 M222.1 71.55 L231.6 79.5 231.15 80.1 221.65 72.15 222.1 71.55 M209.5 92.5 L209.5 103.55 197.95 103.55 197.95 103.05 208.65 103.05 208.65 92.5 209.5 92.5 M209.4 92.4 L208.55 92.4 208.55 81.4 209.4 81.4 209.4 92.4 M233.0 79.65 L233.0 74.75 233.8 74.75 233.8 79.65 233.0 79.65 M233.55 82.7 L243.0 90.6 242.55 91.2 233.05 83.3 233.55 82.7 M209.65 103.65 L209.65 114.65 208.75 114.65 208.75 103.65 209.65 103.65 M207.9 114.65 L196.8 114.65 196.8 114.2 207.9 114.2 207.9 114.65 M209.4 114.8 L209.4 125.8 208.55 125.8 208.55 114.8 209.4 114.8 M209.4 125.9 L209.4 136.95 208.55 136.95 208.55 125.9 209.4 125.9 M209.65 148.1 L209.65 159.15 208.75 159.15 208.75 148.1 209.65 148.1 M208.65 137.0 L209.5 137.0 209.5 148.0 197.95 148.0 197.95 147.5 208.65 147.5 208.65 137.0 M197.9 103.55 L186.85 103.55 186.85 103.05 197.9 103.05 197.9 103.55 M186.75 103.55 L175.7 103.55 175.7 103.05 186.75 103.05 186.75 103.55 M185.65 114.65 L174.55 114.65 174.55 114.2 185.65 114.2 185.65 114.65 M185.7 114.2 L196.75 114.2 196.75 114.65 185.7 114.65 185.7 114.2 M191.95 115.2 L180.9 115.2 180.9 114.75 191.95 114.75 191.95 115.2 M193.75 114.8 L193.75 125.8 192.9 125.8 192.9 114.8 193.75 114.8 M175.65 103.55 L164.55 103.55 164.55 103.05 175.65 103.05 175.65 103.55 M164.5 103.55 L153.45 103.55 153.45 103.05 164.5 103.05 164.5 103.55 M163.7 114.8 L163.7 125.8 162.8 125.8 162.8 114.8 163.7 114.8 M164.5 114.75 L175.6 114.75 175.6 115.2 164.5 115.2 164.5 114.75 M163.4 114.2 L174.5 114.2 174.5 114.65 163.4 114.65 163.4 114.2 M163.35 114.65 L152.3 114.65 152.3 114.2 163.35 114.2 163.35 114.65 M177.4 114.8 L177.4 125.8 176.5 125.8 176.5 114.8 177.4 114.8 M180.0 114.8 L180.0 125.8 179.15 125.8 179.15 114.8 180.0 114.8 M180.0 125.9 L180.0 136.95 179.15 136.95 179.15 125.9 180.0 125.9 M177.4 125.9 L177.4 136.95 176.5 136.95 176.5 125.9 177.4 125.9 M163.7 125.9 L163.7 136.95 162.8 136.95 162.8 125.9 163.7 125.9 M164.5 136.45 L175.6 136.45 175.6 136.95 164.5 136.95 164.5 136.45 M164.5 148.0 L153.45 148.0 153.45 147.5 164.5 147.5 164.5 148.0 M164.55 147.5 L175.65 147.5 175.65 148.0 164.55 148.0 164.55 147.5 M180.9 136.45 L191.95 136.45 191.95 136.95 180.9 136.95 180.9 136.45 M175.7 147.5 L186.75 147.5 186.75 148.0 175.7 148.0 175.7 147.5 M193.75 125.9 L193.75 136.95 192.9 136.95 192.9 125.9 193.75 125.9 M186.85 147.5 L197.9 147.5 197.9 148.0 186.85 148.0 186.85 147.5 M196.8 158.65 L207.9 158.65 207.9 159.15 196.8 159.15 196.8 158.65 M196.75 159.15 L185.7 159.15 185.7 158.65 196.75 158.65 196.75 159.15 M193.75 159.25 L193.75 170.25 192.9 170.25 192.9 159.25 193.75 159.25 M185.65 159.15 L174.55 159.15 174.55 158.65 185.65 158.65 185.65 159.15 M191.95 159.7 L180.9 159.7 180.9 159.2 191.95 159.2 191.95 159.7 M193.75 170.35 L193.75 181.4 192.9 181.4 192.9 170.35 193.75 170.35 M177.4 159.25 L177.4 170.25 176.5 170.25 176.5 159.25 177.4 159.25 M180.0 159.25 L180.0 170.25 179.15 170.25 179.15 159.25 180.0 159.25 M174.5 159.15 L163.4 159.15 163.4 158.65 174.5 158.65 174.5 159.15 M175.6 159.7 L164.5 159.7 164.5 159.2 175.6 159.2 175.6 159.7 M163.7 159.25 L163.7 170.25 162.8 170.25 162.8 159.25 163.7 159.25 M163.35 159.15 L152.3 159.15 152.3 158.65 163.35 158.65 163.35 159.15 M163.7 170.35 L163.7 181.4 162.8 181.4 162.8 170.35 163.7 170.35 M177.4 170.35 L177.4 181.4 176.5 181.4 176.5 170.35 177.4 170.35 M180.0 170.35 L180.0 181.4 179.15 181.4 179.15 170.35 180.0 170.35 M180.9 180.9 L191.95 180.9 191.95 181.4 180.9 181.4 180.9 180.9 M175.6 181.4 L164.5 181.4 164.5 180.9 175.6 180.9 175.6 181.4 M175.6 192.55 L186.65 192.55 186.65 193.05 175.6 193.05 175.6 192.55 M174.7 192.65 L174.7 203.65 173.85 203.65 173.85 192.65 174.7 192.65 M172.9 193.05 L161.85 193.05 161.85 192.55 172.9 192.55 172.9 193.05 M188.45 192.65 L188.45 203.65 187.6 203.65 187.6 192.65 188.45 192.65 M209.4 159.25 L209.4 170.25 208.55 170.25 208.55 159.25 209.4 159.25 M209.4 170.35 L209.4 181.4 208.55 181.4 208.55 170.35 209.4 170.35 M209.4 192.65 L209.4 203.65 208.55 203.65 208.55 192.65 209.4 192.65 M208.45 192.5 L208.45 181.5 209.3 181.5 209.3 192.5 208.45 192.5 M312.4 120.85 Q313.8 119.2 314.6 116.25 L315.75 116.8 Q316.05 116.95 315.65 117.15 314.7 119.7 313.6 121.15 312.1 123.0 310.15 124.25 L309.15 123.45 Q311.05 122.45 312.4 120.85 M300.1 135.75 L290.6 127.8 291.1 127.2 300.55 135.15 300.1 135.75 M289.15 125.9 L289.15 136.8 288.3 136.8 288.3 125.9 289.15 125.9 M290.3 125.8 L279.25 125.8 279.25 125.3 290.3 125.3 290.3 125.8 M288.5 148.0 L288.5 137.0 289.4 137.0 289.4 148.0 288.5 148.0 M289.75 148.1 L289.75 158.9 288.9 158.9 288.9 148.1 289.75 148.1 M306.15 129.0 L305.3 129.0 305.3 127.85 306.15 127.85 306.15 129.0 M305.3 135.3 L305.3 130.4 306.15 130.4 306.15 135.3 305.3 135.3 M306.45 146.35 L305.65 146.35 305.65 141.45 306.45 141.45 306.45 146.35 M306.45 140.1 L305.65 140.1 305.65 138.95 306.45 138.95 306.45 140.1 M244.85 114.65 L243.95 114.65 243.95 103.65 244.85 103.65 244.85 114.65 M245.05 114.8 L245.05 125.8 244.15 125.8 244.15 114.8 245.05 114.8 M257.05 125.3 L279.2 125.3 279.2 125.8 257.05 125.8 257.05 125.3 M257.0 125.8 L245.9 125.8 245.9 125.3 257.0 125.3 257.0 125.8 M245.05 125.9 L245.05 136.95 244.15 136.95 244.15 125.9 245.05 125.9 M247.6 138.9 L247.6 145.5 251.6 145.5 251.6 146.35 246.6 146.35 246.6 138.9 247.6 138.9 M244.85 137.0 L244.85 148.0 244.0 148.0 244.0 137.0 244.85 137.0 M244.85 148.1 L244.85 158.9 244.0 158.9 244.0 148.1 244.85 148.1 M252.5 138.9 L253.35 138.9 253.35 146.35 252.5 146.35 252.5 138.9 M261.7 138.9 L261.7 146.35 260.85 146.35 260.85 138.9 261.7 138.9 M255.95 138.9 L255.95 145.5 259.95 145.5 259.95 146.35 254.95 146.35 254.95 138.9 255.95 138.9 M271.7 146.35 L266.75 146.35 266.75 138.9 267.75 138.9 267.75 145.5 271.7 145.5 271.7 146.35 M272.65 138.9 L273.45 138.9 273.45 146.35 272.65 146.35 272.65 138.9 M276.15 138.9 L276.15 145.5 280.1 145.5 280.1 146.35 275.15 146.35 275.15 138.9 276.15 138.9 M278.75 152.65 L273.85 152.65 273.85 151.95 278.75 151.95 278.75 152.65 M279.4 151.95 L284.3 151.95 284.3 152.65 279.4 152.65 279.4 151.95 M278.75 154.6 L278.75 155.3 273.85 155.3 273.85 154.6 278.75 154.6 M279.4 154.6 L284.3 154.6 284.3 155.3 279.4 155.3 279.4 154.6 M273.2 152.65 L268.3 152.65 268.3 151.95 273.2 151.95 273.2 152.65 M267.6 152.65 L262.7 152.65 262.7 151.95 267.6 151.95 267.6 152.65 M267.6 155.3 L262.7 155.3 262.7 154.6 267.6 154.6 267.6 155.3 M268.3 155.3 L268.3 154.6 273.2 154.6 273.2 155.3 268.3 155.3 M272.8 161.15 L273.6 161.15 273.6 168.65 272.8 168.65 272.8 161.15 M266.9 161.15 L267.9 161.15 267.9 167.75 271.9 167.75 271.9 168.65 266.9 168.65 266.9 161.15 M275.3 161.15 L276.3 161.15 276.3 167.75 280.3 167.75 280.3 168.65 275.3 168.65 275.3 161.15 M262.05 152.65 L257.15 152.65 257.15 151.95 262.05 151.95 262.05 152.65 M256.5 152.65 L251.6 152.65 251.6 151.95 256.5 151.95 256.5 152.65 M256.5 155.3 L251.6 155.3 251.6 154.6 256.5 154.6 256.5 155.3 M262.05 154.6 L262.05 155.3 257.15 155.3 257.15 154.6 262.05 154.6 M251.0 152.65 L246.05 152.65 246.05 151.95 251.0 151.95 251.0 152.65 M245.05 159.25 L245.05 170.25 244.15 170.25 244.15 159.25 245.05 159.25 M251.0 154.6 L251.0 155.3 246.05 155.3 246.05 154.6 251.0 154.6 M247.75 161.15 L247.75 167.75 251.75 167.75 251.75 168.65 246.8 168.65 246.8 161.15 247.75 161.15 M245.05 170.35 L245.05 181.4 244.15 181.4 244.15 170.35 245.05 170.35 M252.65 161.15 L253.5 161.15 253.5 168.65 252.65 168.65 252.65 161.15 M261.85 161.15 L261.85 168.65 261.0 168.65 261.0 161.15 261.85 161.15 M256.1 161.15 L256.1 167.75 260.1 167.75 260.1 168.65 255.15 168.65 255.15 161.15 256.1 161.15 M262.9 174.2 L267.8 174.2 267.8 174.9 262.9 174.9 262.9 174.2 M262.3 177.55 L257.35 177.55 257.35 176.85 262.3 176.85 262.3 177.55 M262.9 176.85 L267.8 176.85 267.8 177.55 262.9 177.55 262.9 176.85 M262.3 174.9 L257.35 174.9 257.35 174.2 262.3 174.2 262.3 174.9 M256.7 177.55 L251.8 177.55 251.8 176.85 256.7 176.85 256.7 177.55 M256.7 174.9 L251.8 174.9 251.8 174.2 256.7 174.2 256.7 174.9 M256.3 183.4 L256.3 190.0 260.25 190.0 260.25 190.9 255.3 190.9 255.3 183.4 256.3 183.4 M262.0 183.4 L262.0 190.9 261.2 190.9 261.2 183.4 262.0 183.4 M251.15 174.9 L246.25 174.9 246.25 174.2 251.15 174.2 251.15 174.9 M251.15 177.55 L246.25 177.55 246.25 176.85 251.15 176.85 251.15 177.55 M245.2 181.85 L245.2 192.45 244.35 192.45 244.35 181.85 245.2 181.85 M247.85 183.4 L247.85 190.0 251.85 190.0 251.85 190.9 246.9 190.9 246.9 183.4 247.85 183.4 M246.5 196.45 L251.4 196.45 251.4 197.15 246.5 197.15 246.5 196.45 M245.05 192.65 L245.05 203.65 244.15 203.65 244.15 192.65 245.05 192.65 M252.0 196.45 L256.95 196.45 256.95 197.15 252.0 197.15 252.0 196.45 M257.6 196.45 L262.5 196.45 262.5 197.15 257.6 197.15 257.6 196.45 M263.15 196.45 L268.05 196.45 268.05 197.15 263.15 197.15 263.15 196.45 M252.85 190.9 L252.85 183.4 253.65 183.4 253.65 190.9 252.85 190.9 M278.9 174.9 L274.0 174.9 274.0 174.2 278.9 174.2 278.9 174.9 M279.55 174.2 L284.5 174.2 284.5 174.9 279.55 174.9 279.55 174.2 M279.55 176.85 L284.5 176.85 284.5 177.55 279.55 177.55 279.55 176.85 M278.9 177.55 L274.0 177.55 274.0 176.85 278.9 176.85 278.9 177.55 M276.4 183.4 L276.4 190.0 280.4 190.0 280.4 190.9 275.4 190.9 275.4 183.4 276.4 183.4 M268.45 177.55 L268.45 176.85 273.35 176.85 273.35 177.55 268.45 177.55 M268.45 174.9 L268.45 174.2 273.35 174.2 273.35 174.9 268.45 174.9 M268.05 183.4 L268.05 190.0 272.05 190.0 272.05 190.9 267.1 190.9 267.1 183.4 268.05 183.4 M268.7 196.45 L273.6 196.45 273.6 197.15 268.7 197.15 268.7 196.45 M274.3 196.45 L279.2 196.45 279.2 197.15 274.3 197.15 274.3 196.45 M279.85 196.45 L284.75 196.45 284.75 197.15 279.85 197.15 279.85 196.45 M272.95 190.9 L272.95 183.4 273.8 183.4 273.8 190.9 272.95 190.9 M305.8 150.95 L306.25 150.35 308.05 151.7 307.55 152.3 305.8 150.95 M304.1 149.8 Q304.75 153.8 308.6 155.0 L307.95 156.2 Q305.75 156.1 303.8 157.1 L303.05 156.35 Q304.7 155.35 306.5 155.25 303.9 154.0 302.9 149.75 L303.95 149.55 Q304.45 149.4 304.1 149.8 M307.15 149.3 L308.95 150.7 308.45 151.3 306.75 149.9 307.15 149.3 M310.25 164.6 L310.25 163.65 310.25 164.6 M304.3 163.5 L302.65 162.25 303.1 161.65 304.85 162.9 304.3 163.5 M305.15 162.45 Q304.35 161.65 303.5 161.15 L303.95 160.6 305.7 161.85 305.15 162.45 M307.4 170.35 L307.4 181.4 306.5 181.4 306.5 170.35 307.4 170.35 M306.15 169.3 L309.45 169.3 309.45 169.85 306.15 169.85 306.15 169.3 M310.25 168.65 L310.25 167.65 310.25 168.65 M309.35 172.75 L308.55 171.45 308.95 171.05 309.85 172.3 309.35 172.75 M310.7 171.8 L310.3 172.3 309.4 171.05 309.85 170.6 310.7 171.8 M303.9 167.7 Q302.25 165.3 299.0 163.1 L299.85 162.3 Q303.4 164.5 305.0 166.75 L303.9 167.7 M289.6 159.25 L289.6 170.25 288.75 170.25 288.75 159.25 289.6 159.25 M290.0 170.35 L290.0 181.4 289.1 181.4 289.1 170.35 290.0 170.35 M289.7 181.85 L289.7 192.45 288.85 192.45 288.85 181.85 289.7 181.85 M289.95 192.65 L289.95 203.65 289.05 203.65 289.05 192.65 289.95 192.65 M316.25 176.25 L311.3 176.25 311.3 175.55 316.25 175.55 316.25 176.25 M319.05 180.1 L318.45 180.9 317.05 179.05 317.6 178.3 319.05 180.1 M307.1 181.85 L307.1 192.45 306.25 192.45 306.25 181.85 307.1 181.85 M307.4 192.65 L307.4 203.65 306.5 203.65 306.5 192.65 307.4 192.65 M129.75 46.75 L120.25 38.85 120.75 38.25 130.25 46.15 129.75 46.75 M83.1 28.7 Q83.65 29.8 83.65 31.35 83.65 32.7 83.1 33.95 L81.55 36.2 81.05 35.75 82.6 33.6 83.05 31.35 Q83.05 30.0 82.6 29.0 82.15 28.1 81.05 27.1 L81.55 26.7 83.1 28.7 M82.85 36.95 L82.85 47.95 82.0 47.95 82.0 36.95 82.85 36.95 M94.85 36.9 L105.9 36.9 105.9 37.35 94.85 37.35 94.85 36.9 M94.8 37.35 L83.7 37.35 83.7 36.9 94.8 36.9 94.8 37.35 M118.85 36.95 L118.85 47.95 118.0 47.95 118.0 36.95 118.85 36.95 M117.05 37.35 L106.0 37.35 106.0 36.9 117.05 36.9 117.05 37.35 M116.45 50.85 L116.45 49.95 122.4 49.95 122.4 50.85 119.9 50.85 119.9 57.45 118.9 57.45 118.9 50.85 116.45 50.85 M113.35 50.85 L113.35 57.45 112.35 57.45 112.35 50.85 109.9 50.85 109.9 49.95 115.85 49.95 115.85 50.85 113.35 50.85 M111.6 59.1 L133.75 59.1 133.75 59.55 111.6 59.55 111.6 59.1 M109.25 50.85 L106.75 50.85 106.75 57.45 105.75 57.45 105.75 50.85 103.3 50.85 103.3 49.95 109.25 49.95 109.25 50.85 M102.7 50.85 L100.2 50.85 100.2 57.45 99.2 57.45 99.2 50.85 96.75 50.85 96.75 49.95 102.7 49.95 102.7 50.85 M102.4 59.15 L102.4 70.15 101.5 70.15 101.5 59.15 102.4 59.15 M102.15 70.25 L102.15 81.3 101.3 81.3 101.3 70.25 102.15 70.25 M107.35 70.25 L107.35 81.3 106.45 81.3 106.45 70.25 107.35 70.25 M108.2 66.55 Q106.5 64.15 103.25 61.95 L104.2 61.15 Q107.65 63.4 109.3 65.65 L108.2 66.55 M120.2 70.25 L120.2 81.3 119.35 81.3 119.35 70.25 120.2 70.25 M121.05 70.2 L132.1 70.2 132.1 70.7 121.05 70.7 121.05 70.2 M93.6 50.85 L93.6 57.45 92.6 57.45 92.6 50.85 90.15 50.85 90.15 49.95 96.1 49.95 96.1 50.85 93.6 50.85 M100.65 59.55 L89.55 59.55 89.55 59.1 100.65 59.1 100.65 59.55 M89.55 50.85 L87.05 50.85 87.05 57.45 86.05 57.45 86.05 50.85 83.6 50.85 83.6 49.95 89.55 49.95 89.55 50.85 M83.0 50.85 L80.5 50.85 80.5 57.45 79.5 57.45 79.5 50.85 77.05 50.85 77.05 49.95 83.0 49.95 83.0 50.85 M88.7 59.15 L88.7 70.15 87.8 70.15 87.8 59.15 88.7 59.15 M86.9 59.55 L75.8 59.55 75.8 59.1 86.9 59.1 86.9 59.55 M88.75 70.25 L88.75 81.3 87.85 81.3 87.85 70.25 88.75 70.25 M88.7 92.5 L88.7 103.55 87.8 103.55 87.8 92.5 88.7 92.5 M87.85 92.4 L87.85 81.4 88.75 81.4 88.75 92.4 87.85 92.4 M120.2 81.4 L120.2 92.4 119.35 92.4 119.35 81.4 120.2 81.4 M107.35 81.4 L107.35 92.4 106.45 92.4 106.45 81.4 107.35 81.4 M102.15 81.4 L102.15 92.4 101.3 92.4 101.3 81.4 102.15 81.4 M107.3 92.5 L107.3 103.55 106.4 103.55 106.4 92.5 107.3 92.5 M121.05 91.9 L132.1 91.9 132.1 92.4 121.05 92.4 121.05 91.9 M102.1 92.5 L102.1 103.55 101.25 103.55 101.25 92.5 102.1 92.5 M161.8 50.85 L159.3 50.85 159.3 57.45 158.3 57.45 158.3 50.85 155.85 50.85 155.85 49.95 161.8 49.95 161.8 50.85 M155.25 50.85 L152.75 50.85 152.75 57.45 151.75 57.45 151.75 50.85 149.3 50.85 149.3 49.95 155.25 49.95 155.25 50.85 M156.0 59.55 L144.95 59.55 144.95 59.1 156.0 59.1 156.0 59.55 M148.7 50.85 L146.2 50.85 146.2 57.45 145.2 57.45 145.2 50.85 142.75 50.85 142.75 49.95 148.7 49.95 148.7 50.85 M142.1 50.85 L139.6 50.85 139.6 57.45 138.6 57.45 138.6 50.85 136.15 50.85 136.15 49.95 142.1 49.95 142.1 50.85 M144.9 59.55 L133.8 59.55 133.8 59.1 144.9 59.1 144.9 59.55 M150.3 70.25 L150.3 81.3 149.4 81.3 149.4 70.25 150.3 70.25 M148.5 70.7 L137.4 70.7 137.4 70.2 148.5 70.2 148.5 70.7 M133.05 50.85 L133.05 57.45 132.05 57.45 132.05 50.85 129.6 50.85 129.6 49.95 135.55 49.95 135.55 50.85 133.05 50.85 M128.95 50.85 L126.45 50.85 126.45 57.45 125.45 57.45 125.45 50.85 123.0 50.85 123.0 49.95 128.95 49.95 128.95 50.85 M136.55 70.25 L136.55 81.3 135.65 81.3 135.65 70.25 136.55 70.25 M133.9 70.25 L133.9 81.3 133.05 81.3 133.05 70.25 133.9 70.25 M136.55 81.4 L136.55 92.4 135.65 92.4 135.65 81.4 136.55 81.4 M133.9 81.4 L133.9 92.4 133.05 92.4 133.05 81.4 133.9 81.4 M137.4 91.9 L148.5 91.9 148.5 92.4 137.4 92.4 137.4 91.9 M150.3 81.4 L150.3 92.4 149.4 92.4 149.4 81.4 150.3 81.4 M79.6 24.7 L79.6 25.25 76.25 25.25 76.25 24.7 79.6 24.7 M55.4 36.95 L55.4 47.95 54.55 47.95 54.55 36.95 55.4 36.95 M56.3 36.9 L67.35 36.9 67.35 37.35 56.3 37.35 56.3 36.9 M71.9 27.1 Q70.8 28.1 70.35 29.0 69.9 30.0 69.9 31.35 69.9 32.55 70.35 33.6 70.8 34.55 71.9 35.75 L71.4 36.2 69.8 33.95 Q69.25 32.7 69.25 31.35 69.25 29.8 69.8 28.7 70.3 27.7 71.4 26.7 L71.9 27.1 M69.15 36.95 L69.15 47.95 68.3 47.95 68.3 36.95 69.15 36.95 M79.5 39.5 L71.7 39.5 71.7 38.55 79.5 38.55 79.5 39.5 M78.85 42.8 L72.25 42.8 72.25 41.85 78.85 41.85 78.85 42.8 M70.9 45.4 L80.3 45.4 80.3 46.3 70.9 46.3 70.9 45.4 M37.6 50.85 L37.6 49.95 43.55 49.95 43.55 50.85 41.05 50.85 41.05 57.45 40.1 57.45 40.1 50.85 37.6 50.85 M37.0 50.85 L34.5 50.85 34.5 57.45 33.55 57.45 33.55 50.85 31.1 50.85 31.1 49.95 37.0 49.95 37.0 50.85 M31.35 59.1 L53.5 59.1 53.5 59.55 31.35 59.55 31.35 59.1 M76.4 50.85 L73.9 50.85 73.9 57.45 72.9 57.45 72.9 50.85 70.45 50.85 70.45 49.95 76.4 49.95 76.4 50.85 M75.75 59.55 L64.7 59.55 64.7 59.1 75.75 59.1 75.75 59.55 M69.85 50.85 L67.35 50.85 67.35 57.45 66.35 57.45 66.35 50.85 63.9 50.85 63.9 49.95 69.85 49.95 69.85 50.85 M63.25 50.85 L60.75 50.85 60.75 57.45 59.75 57.45 59.75 50.85 57.3 50.85 57.3 49.95 63.25 49.95 63.25 50.85 M64.65 59.55 L53.55 59.55 53.55 59.1 64.65 59.1 64.65 59.55 M61.1 70.2 L72.15 70.2 72.15 70.7 61.1 70.7 61.1 70.2 M73.95 70.25 L73.95 81.3 73.1 81.3 73.1 70.25 73.95 70.25 M56.7 50.85 L54.2 50.85 54.2 57.45 53.25 57.45 53.25 50.85 50.75 50.85 50.75 49.95 56.7 49.95 56.7 50.85 M47.65 50.85 L47.65 57.45 46.7 57.45 46.7 50.85 44.2 50.85 44.2 49.95 50.15 49.95 50.15 50.85 47.65 50.85 M44.7 70.2 L55.8 70.2 55.8 70.7 44.7 70.7 44.7 70.2 M43.9 70.25 L43.9 81.3 43.0 81.3 43.0 70.25 43.9 70.25 M60.2 70.25 L60.2 81.3 59.35 81.3 59.35 70.25 60.2 70.25 M57.6 70.25 L57.6 81.3 56.7 81.3 56.7 70.25 57.6 70.25 M60.2 81.4 L60.2 92.4 59.35 92.4 59.35 81.4 60.2 81.4 M57.6 81.4 L57.6 92.4 56.7 92.4 56.7 81.4 57.6 81.4 M43.9 81.4 L43.9 92.4 43.0 92.4 43.0 81.4 43.9 81.4 M44.7 91.9 L55.8 91.9 55.8 92.4 44.7 92.4 44.7 91.9 M73.95 81.4 L73.95 92.4 73.1 92.4 73.1 81.4 73.95 81.4 M61.1 91.9 L72.15 91.9 72.15 92.4 61.1 92.4 61.1 91.9 M75.8 103.05 L86.9 103.05 86.9 103.55 75.8 103.55 75.8 103.05 M75.75 103.55 L64.7 103.55 64.7 103.05 75.75 103.05 75.75 103.55 M64.65 103.55 L53.55 103.55 53.55 103.05 64.65 103.05 64.65 103.55 M64.7 114.2 L75.75 114.2 75.75 114.65 64.7 114.65 64.7 114.2 M64.65 114.65 L53.55 114.65 53.55 114.2 64.65 114.2 64.65 114.65 M61.1 114.75 L72.15 114.75 72.15 115.2 61.1 115.2 61.1 114.75 M73.95 114.8 L73.95 125.8 73.1 125.8 73.1 114.8 73.95 114.8 M75.8 114.2 L86.9 114.2 86.9 114.65 75.8 114.65 75.8 114.2 M53.5 103.55 L31.35 103.55 31.35 103.05 53.5 103.05 53.5 103.55 M44.7 114.75 L55.8 114.75 55.8 115.2 44.7 115.2 44.7 114.75 M43.9 114.8 L43.9 125.8 43.0 125.8 43.0 114.8 43.9 114.8 M60.2 114.8 L60.2 125.8 59.35 125.8 59.35 114.8 60.2 114.8 M57.6 114.8 L57.6 125.8 56.7 125.8 56.7 114.8 57.6 114.8 M53.5 114.65 L31.35 114.65 31.35 114.2 53.5 114.2 53.5 114.65 M60.2 125.9 L60.2 136.95 59.35 136.95 59.35 125.9 60.2 125.9 M57.6 125.9 L57.6 136.95 56.7 136.95 56.7 125.9 57.6 125.9 M43.9 125.9 L43.9 136.95 43.0 136.95 43.0 125.9 43.9 125.9 M44.7 136.45 L55.8 136.45 55.8 136.95 44.7 136.95 44.7 136.45 M53.55 147.5 L64.65 147.5 64.65 148.0 53.55 148.0 53.55 147.5 M53.5 148.0 L31.35 148.0 31.35 147.5 53.5 147.5 53.5 148.0 M73.95 125.9 L73.95 136.95 73.1 136.95 73.1 125.9 73.95 125.9 M61.1 136.45 L72.15 136.45 72.15 136.95 61.1 136.95 61.1 136.45 M64.7 147.5 L75.75 147.5 75.75 148.0 64.7 148.0 64.7 147.5 M75.8 147.5 L86.9 147.5 86.9 148.0 75.8 148.0 75.8 147.5 M31.35 158.65 L53.5 158.65 53.5 159.15 31.35 159.15 31.35 158.65 M73.95 159.25 L73.95 170.25 73.1 170.25 73.1 159.25 73.95 159.25 M72.15 159.7 L61.1 159.7 61.1 159.2 72.15 159.2 72.15 159.7 M75.8 158.65 L86.9 158.65 86.9 159.15 75.8 159.15 75.8 158.65 M75.75 159.15 L64.7 159.15 64.7 158.65 75.75 158.65 75.75 159.15 M64.65 159.15 L53.55 159.15 53.55 158.65 64.65 158.65 64.65 159.15 M73.95 170.35 L73.95 181.4 73.1 181.4 73.1 170.35 73.95 170.35 M55.8 159.7 L44.7 159.7 44.7 159.2 55.8 159.2 55.8 159.7 M60.2 159.25 L60.2 170.25 59.35 170.25 59.35 159.25 60.2 159.25 M57.6 159.25 L57.6 170.25 56.7 170.25 56.7 159.25 57.6 159.25 M43.9 159.25 L43.9 170.25 43.0 170.25 43.0 159.25 43.9 159.25 M43.9 170.35 L43.9 181.4 43.0 181.4 43.0 170.35 43.9 170.35 M60.2 170.35 L60.2 181.4 59.35 181.4 59.35 170.35 60.2 170.35 M57.6 170.35 L57.6 181.4 56.7 181.4 56.7 170.35 57.6 170.35 M55.8 181.4 L44.7 181.4 44.7 180.9 55.8 180.9 55.8 181.4 M75.7 192.65 L75.7 203.65 74.85 203.65 74.85 192.65 75.7 192.65 M76.55 192.55 L87.65 192.55 87.65 193.05 76.55 193.05 76.55 192.55 M72.15 181.4 L61.1 181.4 61.1 180.9 72.15 180.9 72.15 181.4 M153.4 103.55 L142.3 103.55 142.3 103.05 153.4 103.05 153.4 103.55 M142.25 103.55 L120.1 103.55 120.1 103.05 142.25 103.05 142.25 103.55 M150.3 114.8 L150.3 125.8 149.4 125.8 149.4 114.8 150.3 114.8 M148.5 115.2 L137.4 115.2 137.4 114.75 148.5 114.75 148.5 115.2 M152.25 114.65 L141.15 114.65 141.15 114.2 152.25 114.2 152.25 114.65 M136.55 114.8 L136.55 125.8 135.65 125.8 135.65 114.8 136.55 114.8 M141.1 114.65 L118.95 114.65 118.95 114.2 141.1 114.2 141.1 114.65 M132.1 115.2 L121.05 115.2 121.05 114.75 132.1 114.75 132.1 115.2 M133.9 114.8 L133.9 125.8 133.05 125.8 133.05 114.8 133.9 114.8 M136.55 125.9 L136.55 136.95 135.65 136.95 135.65 125.9 136.55 125.9 M133.9 125.9 L133.9 136.95 133.05 136.95 133.05 125.9 133.9 125.9 M137.4 136.45 L148.5 136.45 148.5 136.95 137.4 136.95 137.4 136.45 M132.1 136.95 L121.05 136.95 121.05 136.45 132.1 136.45 132.1 136.95 M150.3 125.9 L150.3 136.95 149.4 136.95 149.4 125.9 150.3 125.9 M142.3 147.5 L153.4 147.5 153.4 148.0 142.3 148.0 142.3 147.5 M142.25 148.0 L120.1 148.0 120.1 147.5 142.25 147.5 142.25 148.0 M120.05 103.55 L109.0 103.55 109.0 103.05 120.05 103.05 120.05 103.55 M106.95 103.65 L106.95 114.65 106.1 114.65 106.1 103.65 106.95 103.65 M102.15 114.8 L102.15 125.8 101.3 125.8 101.3 114.8 102.15 114.8 M106.8 114.8 L106.8 125.8 105.9 125.8 105.9 114.8 106.8 114.8 M107.85 114.2 L118.9 114.2 118.9 114.65 107.85 114.65 107.85 114.2 M120.2 114.8 L120.2 125.8 119.35 125.8 119.35 114.8 120.2 114.8 M102.1 114.65 L101.25 114.65 101.25 103.65 102.1 103.65 102.1 114.65 M88.7 103.65 L88.7 114.65 87.8 114.65 87.8 103.65 88.7 103.65 M88.75 114.8 L88.75 125.8 87.85 125.8 87.85 114.8 88.75 114.8 M88.75 125.9 L88.75 136.95 87.85 136.95 87.85 125.9 88.75 125.9 M88.7 137.0 L88.7 148.0 87.8 148.0 87.8 137.0 88.7 137.0 M88.7 148.1 L88.7 159.15 87.8 159.15 87.8 148.1 88.7 148.1 M101.25 137.0 L102.1 137.0 102.1 148.0 101.25 148.0 101.25 137.0 M120.2 125.9 L120.2 136.95 119.35 136.95 119.35 125.9 120.2 125.9 M106.8 125.9 L106.8 136.95 105.9 136.95 105.9 125.9 106.8 125.9 M102.15 125.9 L102.15 136.95 101.3 136.95 101.3 125.9 102.15 125.9 M109.0 147.5 L120.05 147.5 120.05 148.0 109.0 148.0 109.0 147.5 M106.75 148.0 L105.85 148.0 105.85 137.0 106.75 137.0 106.75 148.0 M106.95 148.1 L106.95 159.15 106.1 159.15 106.1 148.1 106.95 148.1 M102.1 148.1 L102.1 159.15 101.25 159.15 101.25 148.1 102.1 148.1 M121.05 159.2 L132.1 159.2 132.1 159.7 121.05 159.7 121.05 159.2 M120.2 159.25 L120.2 170.25 119.35 170.25 119.35 159.25 120.2 159.25 M118.95 158.65 L141.1 158.65 141.1 159.15 118.95 159.15 118.95 158.65 M118.9 159.15 L107.85 159.15 107.85 158.65 118.9 158.65 118.9 159.15 M102.15 159.25 L102.15 170.25 101.3 170.25 101.3 159.25 102.15 159.25 M106.8 159.25 L106.8 170.25 105.9 170.25 105.9 159.25 106.8 159.25 M106.8 170.35 L106.8 181.4 105.9 181.4 105.9 170.35 106.8 170.35 M102.15 170.35 L102.15 181.4 101.3 181.4 101.3 170.35 102.15 170.35 M120.2 170.35 L120.2 181.4 119.35 181.4 119.35 170.35 120.2 170.35 M88.75 170.35 L88.75 181.4 87.85 181.4 87.85 170.35 88.75 170.35 M87.85 170.25 L87.85 159.25 88.75 159.25 88.75 170.25 87.85 170.25 M90.3 192.55 L101.4 192.55 101.4 193.05 90.3 193.05 90.3 192.55 M89.45 192.65 L89.45 203.65 88.6 203.65 88.6 192.65 89.45 192.65 M87.85 192.5 L87.85 181.5 88.75 181.5 88.75 192.5 87.85 192.5 M121.05 180.9 L132.1 180.9 132.1 181.4 121.05 181.4 121.05 180.9 M102.15 181.5 L102.15 192.5 101.3 192.5 101.3 181.5 102.15 181.5 M106.8 181.5 L106.8 192.5 105.9 192.5 105.9 181.5 106.8 181.5 M103.15 192.65 L103.15 203.65 102.25 203.65 102.25 192.65 103.15 192.65 M152.25 159.15 L141.15 159.15 141.15 158.65 152.25 158.65 152.25 159.15 M150.3 159.25 L150.3 170.25 149.4 170.25 149.4 159.25 150.3 159.25 M148.5 159.7 L137.4 159.7 137.4 159.2 148.5 159.2 148.5 159.7 M150.3 170.35 L150.3 181.4 149.4 181.4 149.4 170.35 150.3 170.35 M133.9 159.25 L133.9 170.25 133.05 170.25 133.05 159.25 133.9 159.25 M136.55 159.25 L136.55 170.25 135.65 170.25 135.65 159.25 136.55 159.25 M133.9 170.35 L133.9 181.4 133.05 181.4 133.05 170.35 133.9 170.35 M136.55 170.35 L136.55 181.4 135.65 181.4 135.65 170.35 136.55 170.35 M137.4 180.9 L148.5 180.9 148.5 181.4 137.4 181.4 137.4 180.9 M161.0 192.65 L161.0 203.65 160.15 203.65 160.15 192.65 161.0 192.65 M160.6 203.75 L160.6 214.8 159.7 214.8 159.7 203.75 160.6 203.75 M160.35 214.85 L160.35 225.85 159.5 225.85 159.5 214.85 160.35 214.85 M102.75 203.75 L102.75 214.8 101.9 214.8 101.9 203.75 102.75 203.75 M102.55 214.85 L102.55 225.85 101.65 225.85 101.65 214.85 102.55 214.85 M89.1 214.85 L89.1 225.85 88.25 225.85 88.25 214.85 89.1 214.85 M88.5 203.75 L89.4 203.75 89.4 214.8 88.5 214.8 88.5 203.75 M75.8 203.75 L75.95 203.75 75.95 214.8 75.1 214.8 75.1 204.2 64.75 204.2 64.75 203.7 75.8 203.7 75.8 203.75 M64.7 204.2 L53.6 204.2 53.6 203.7 64.7 203.7 64.7 204.2 M75.7 214.85 L75.7 225.85 74.85 225.85 74.85 214.85 75.7 214.85 M42.4 204.2 L31.35 204.2 31.35 203.7 42.4 203.7 42.4 204.2 M42.5 203.7 L53.55 203.7 53.55 204.2 42.5 204.2 42.5 203.7 M31.3 204.2 L9.15 204.2 9.15 203.7 31.3 203.7 31.3 204.2 M321.05 204.2 L298.9 204.2 298.9 203.7 321.05 203.7 321.05 204.2 M287.7 204.2 L276.6 204.2 276.6 203.7 287.7 203.7 287.7 204.2 M287.75 203.7 L298.85 203.7 298.85 204.2 287.75 204.2 287.75 203.7 M284.75 199.85 L279.85 199.85 279.85 199.1 284.75 199.1 284.75 199.85 M273.6 199.85 L268.7 199.85 268.7 199.1 273.6 199.1 273.6 199.85 M276.55 204.2 L265.5 204.2 265.5 203.7 276.55 203.7 276.55 204.2 M279.2 199.1 L279.2 199.85 274.3 199.85 274.3 199.1 279.2 199.1 M268.05 199.85 L260.6 199.85 260.6 199.1 268.05 199.1 268.05 199.85 M265.45 204.2 L254.35 204.2 254.35 203.7 265.45 203.7 265.45 204.2 M256.95 199.85 L252.0 199.85 252.0 199.1 256.95 199.1 256.95 199.85 M254.3 204.2 L243.25 204.2 243.25 203.7 254.3 203.7 254.3 204.2 M246.5 199.1 L251.4 199.1 251.4 199.85 246.5 199.85 246.5 199.1 M243.2 204.2 L221.05 204.2 221.05 203.7 243.2 203.7 243.2 204.2 M231.5 215.55 L231.5 217.4 232.65 217.4 232.65 218.25 231.5 218.25 231.5 219.75 233.05 221.1 232.45 221.9 231.5 220.85 231.5 225.3 230.65 225.3 230.65 220.55 229.5 222.6 228.85 221.8 Q230.25 220.05 230.6 218.25 L229.05 218.25 229.05 217.4 230.65 217.4 230.65 215.25 231.45 215.25 Q231.85 215.3 231.5 215.55 M226.2 216.0 L225.5 217.2 227.65 217.2 227.65 219.6 226.75 219.6 226.75 218.05 219.1 218.05 219.1 219.75 218.25 219.75 218.25 217.2 220.25 217.2 219.5 215.9 220.3 215.5 221.2 216.7 220.25 217.2 222.85 217.2 222.0 215.8 222.85 215.3 223.7 216.7 222.85 217.2 224.55 217.2 225.45 215.25 226.4 215.7 226.2 216.0 M226.15 219.5 L225.95 219.7 223.45 221.0 223.45 221.45 227.9 221.45 227.9 222.3 223.45 222.3 223.45 224.5 Q223.4 225.2 222.7 225.2 L221.5 225.2 221.35 224.2 222.4 224.2 222.55 224.05 222.55 222.3 218.05 222.3 218.05 221.45 222.55 221.45 222.55 220.35 223.25 220.4 224.55 219.65 219.95 219.65 219.95 218.9 225.3 218.9 225.4 218.8 226.15 219.5 M242.45 215.65 L242.45 225.3 239.75 225.3 239.75 224.65 241.7 224.65 241.7 216.3 239.75 216.3 239.75 215.65 242.45 215.65 M236.2 215.55 L236.2 217.1 238.65 217.1 238.65 217.95 233.25 217.95 233.25 217.1 235.35 217.1 235.35 215.25 236.15 215.25 Q236.5 215.3 236.2 215.55 M236.8 218.4 L238.85 219.75 238.2 220.55 Q237.55 219.9 236.3 219.15 L236.8 218.4 M235.25 219.1 Q235.65 219.35 235.1 219.3 L233.2 220.8 232.65 219.95 234.6 218.5 235.25 219.1 M234.75 220.5 L235.65 222.0 236.55 220.2 237.4 220.6 Q237.65 220.75 237.25 220.9 L236.3 222.65 Q237.15 223.35 239.05 224.1 L238.5 225.1 Q236.5 224.15 235.75 223.35 235.0 224.25 232.7 225.3 L232.35 224.4 Q234.15 223.65 235.15 222.75 L234.0 221.0 234.75 220.5 M221.0 204.2 L209.9 204.2 209.9 203.7 221.0 203.7 221.0 204.2 M209.85 204.2 L198.8 204.2 198.8 203.7 209.85 203.7 209.85 204.2 M205.7 219.5 L201.65 219.5 201.65 220.3 Q201.65 223.5 198.95 225.15 L198.0 224.45 Q200.65 223.05 200.7 220.3 L200.7 219.5 196.4 219.5 196.4 218.55 200.65 218.55 200.65 215.9 201.5 215.9 Q202.0 215.95 201.65 216.3 L201.65 218.55 205.7 218.55 205.7 219.5 M208.65 217.5 L212.75 217.5 212.75 218.3 208.65 218.3 208.65 217.5 M209.85 221.0 L211.65 221.0 211.65 219.8 209.85 219.8 209.85 221.0 M209.85 222.05 L210.4 223.4 209.65 223.65 209.15 222.3 209.85 222.05 M212.15 222.3 L211.7 223.6 213.05 223.35 213.2 224.1 208.9 224.85 208.7 225.05 208.55 224.0 210.95 223.8 211.3 221.9 212.3 222.1 Q212.45 222.3 212.15 222.3 M208.3 222.05 Q208.3 224.0 207.25 225.25 L206.6 224.55 Q207.45 223.45 207.45 221.85 L207.45 215.85 216.4 215.85 216.4 216.7 208.3 216.7 208.3 222.05 M212.35 219.1 L212.35 221.65 209.15 221.65 209.15 219.1 212.35 219.1 M216.6 219.1 L216.6 219.9 215.6 219.9 215.6 224.4 Q215.55 225.1 214.85 225.1 L214.0 225.1 213.8 224.2 214.55 224.2 214.7 224.05 214.7 219.9 212.9 219.9 212.9 219.1 214.7 219.1 214.7 217.25 215.5 217.25 Q215.9 217.3 215.6 217.5 L215.6 219.1 216.6 219.1 M214.25 222.35 L213.45 222.7 Q213.25 221.6 212.85 221.0 L213.6 220.7 Q214.0 221.2 214.25 222.35 M198.7 204.2 L187.65 204.2 187.65 203.7 198.7 203.7 198.7 204.2 M187.6 204.2 L176.5 204.2 176.5 203.7 187.6 203.7 187.6 204.2 M185.65 216.3 L183.6 216.3 183.6 224.65 185.65 224.65 185.65 225.3 182.9 225.3 182.9 215.65 185.65 215.65 185.65 216.3 M187.15 216.8 L194.1 216.8 194.1 217.8 190.8 217.8 190.8 219.75 195.2 219.75 195.2 220.7 190.8 220.7 190.8 222.75 Q190.8 223.2 191.3 223.25 L194.75 223.25 194.7 224.2 190.9 224.2 Q189.8 224.2 189.85 223.05 L189.85 220.7 186.35 220.7 186.35 219.75 189.85 219.75 189.85 217.8 187.15 217.8 187.15 216.8 M173.8 214.85 L173.8 225.85 172.9 225.85 172.9 214.85 173.8 214.85 M173.15 214.8 L173.15 203.75 174.0 203.75 174.0 214.8 173.15 214.8" fill="#666666" fill-rule="evenodd" stroke="none"/>
    </g>
  </defs>
</svg>
