<?xml version="1.0" encoding="UTF-8" standalone="no"?>
<svg xmlns:ffdec="https://www.free-decompiler.com/flash" xmlns:xlink="http://www.w3.org/1999/xlink" ffdec:objectType="frame" height="280.0px" width="720.0px" xmlns="http://www.w3.org/2000/svg">
  <g transform="matrix(1.0, 0.0, 0.0, 1.0, 0.0, 0.0)">
    <use ffdec:characterId="1" height="154.85" transform="matrix(1.0, 0.0, 0.0, 1.0, 282.55, 31.35)" width="201.4" xlink:href="#shape0"/>
  </g>
  <defs>
    <g id="shape0" transform="matrix(1.0, 0.0, 0.0, 1.0, -282.55, -31.35)">
      <path d="M412.8 42.8 L408.8 34.05 404.8 42.8 403.75 42.3 408.8 31.35 413.85 42.3 412.8 42.8 M406.6 46.8 Q406.2 46.8 406.0 47.0 405.75 47.2 405.75 47.6 405.75 48.0 406.0 48.2 L406.6 48.45 407.2 48.2 407.4 47.6 407.2 47.0 406.6 46.8 M405.7 46.75 Q406.1 46.35 406.6 46.35 407.1 46.35 407.45 46.75 407.85 47.1 407.85 47.6 407.85 48.1 407.45 48.5 407.1 48.85 406.6 48.85 L405.7 48.5 Q405.35 48.1 405.35 47.6 405.35 47.1 405.7 46.75 M414.95 47.2 Q417.65 49.8 417.65 53.2 417.65 56.55 414.95 59.15 L414.35 58.55 Q416.85 56.2 416.85 53.2 416.85 50.2 414.35 47.8 L414.95 47.2 M439.0 62.0 L452.95 62.0 452.95 62.6 439.0 62.6 439.0 62.0 M438.95 62.6 L425.0 62.6 425.0 62.0 438.95 62.0 438.95 62.6 M409.05 59.35 L409.6 57.9 409.05 57.9 409.05 56.7 410.35 56.7 410.35 57.9 409.6 59.35 409.05 59.35 M413.2 57.9 L412.45 59.35 411.9 59.35 412.45 57.9 411.9 57.9 411.9 56.7 413.2 56.7 413.2 57.9 M408.8 64.55 L410.05 64.55 410.05 71.15 Q410.05 72.35 409.25 73.1 408.4 74.0 406.55 74.0 404.7 74.0 403.8 73.1 403.05 72.35 403.05 71.15 L403.05 64.55 404.3 64.55 404.3 71.1 Q404.3 71.85 404.8 72.35 405.4 72.95 406.55 72.95 407.7 72.95 408.3 72.35 408.8 71.85 408.8 71.1 L408.8 64.55 M411.0 62.0 L424.95 62.0 424.95 62.6 411.0 62.6 411.0 62.0 M411.75 78.0 L413.4 78.0 413.4 91.95 411.75 91.95 411.75 78.0 M413.85 94.0 L413.85 107.95 412.2 107.95 412.2 101.85 406.05 101.85 406.05 100.15 412.2 100.15 412.2 94.0 413.85 94.0 M430.0 78.0 L431.65 78.0 431.65 91.95 430.0 91.95 430.0 78.0 M432.1 94.0 L432.1 107.95 430.45 107.95 430.45 94.0 432.1 94.0 M472.3 66.6 Q476.35 66.05 479.75 63.2 L480.6 64.15 Q480.9 64.55 480.2 64.55 476.55 67.3 472.65 67.85 L472.3 66.6 M473.0 69.85 Q477.5 68.95 480.3 66.55 L481.05 67.4 Q481.4 67.85 480.85 67.75 477.4 70.4 473.3 71.05 L473.0 69.85 M468.8 66.55 Q467.25 65.15 466.15 64.6 464.85 63.95 463.3 63.95 461.65 63.95 460.25 64.6 459.1 65.15 457.7 66.55 L457.2 66.2 Q458.2 64.9 459.75 64.1 461.5 63.15 463.3 63.15 465.25 63.15 466.85 64.1 468.15 64.85 469.45 66.2 469.15 66.4 468.8 66.55 M481.95 70.8 Q479.05 73.85 472.6 74.6 L472.25 73.3 Q478.7 72.45 481.25 69.5 L482.15 70.45 Q482.6 70.95 481.95 70.8 M455.2 62.05 L455.2 75.95 454.1 75.95 454.1 62.05 455.2 62.05 M463.6 82.4 L462.55 83.3 460.4 80.9 461.4 79.95 Q462.65 80.9 463.6 82.4 M455.1 78.05 L455.1 91.95 454.0 91.95 454.0 78.05 455.1 78.05 M454.95 94.05 L454.95 107.95 453.85 107.95 453.85 94.05 454.95 94.05 M456.85 94.9 L458.5 94.9 460.1 97.4 459.2 97.4 456.85 94.9 M460.85 89.05 Q463.3 87.3 466.15 83.25 L466.7 84.65 462.15 89.9 Q462.0 90.85 461.6 90.15 L460.85 89.05 M483.2 81.75 Q483.95 83.2 483.95 85.15 483.95 86.8 483.2 88.3 L481.2 91.2 480.6 90.6 Q481.95 89.1 482.5 87.9 483.1 86.6 483.1 85.15 483.1 83.4 482.5 82.1 481.95 80.95 480.6 79.7 L481.2 79.15 Q482.6 80.5 483.2 81.75 M475.1 96.5 L463.15 106.45 462.55 105.7 474.5 95.75 475.1 96.5 M472.4 87.85 Q474.15 88.9 475.3 90.2 L474.3 91.35 Q473.0 89.9 471.55 88.95 L472.4 87.85 M388.5 47.6 Q388.5 48.0 388.75 48.2 L389.35 48.45 389.95 48.2 390.15 47.6 389.95 47.0 389.35 46.8 Q388.95 46.8 388.75 47.0 388.5 47.2 388.5 47.6 M388.45 46.75 Q388.85 46.35 389.35 46.35 389.85 46.35 390.2 46.75 390.6 47.1 390.6 47.6 390.6 48.1 390.2 48.5 389.85 48.85 389.35 48.85 388.85 48.85 388.45 48.5 388.1 48.1 388.1 47.6 388.1 47.1 388.45 46.75 M387.35 47.8 Q384.8 50.2 384.8 53.2 384.8 56.2 387.35 58.55 L386.75 59.15 Q384.0 56.55 384.0 53.2 384.0 49.8 386.75 47.2 L387.35 47.8 M389.75 42.3 L394.8 31.35 399.85 42.3 398.8 42.8 394.8 34.05 390.8 42.8 389.75 42.3 M396.75 48.3 L396.75 51.05 Q396.75 54.65 395.25 56.9 L400.55 56.9 400.55 48.3 396.75 48.3 M401.65 47.3 L401.65 56.9 402.9 56.9 402.9 59.9 401.85 59.9 401.85 57.95 394.15 57.95 394.15 59.9 393.1 59.9 393.1 56.9 394.0 56.9 Q395.65 54.6 395.65 51.05 L395.65 47.3 401.65 47.3 M330.6 48.35 L331.85 50.6 337.35 50.6 338.6 48.35 339.65 48.95 334.6 58.1 329.55 48.95 330.6 48.35 M326.05 46.9 L323.3 49.3 322.0 49.3 324.1 46.9 326.05 46.9 M339.35 42.3 L344.4 31.35 349.45 42.3 348.4 42.8 344.4 34.05 340.4 42.8 339.35 42.3 M337.3 43.95 L323.35 43.95 323.35 43.35 337.3 43.35 337.3 43.95 M345.55 49.3 L342.8 46.9 344.75 46.9 346.8 49.3 345.55 49.3 M350.3 47.15 Q351.7 48.5 352.3 49.75 353.05 51.2 353.05 53.15 353.05 54.8 352.3 56.3 L350.3 59.2 349.7 58.6 Q351.05 57.1 351.6 55.9 352.2 54.6 352.2 53.15 352.2 51.4 351.6 50.1 351.05 48.95 349.7 47.7 L350.3 47.15 M346.95 70.15 Q346.95 72.05 345.85 73.1 345.0 74.0 342.85 74.0 340.75 74.0 339.85 73.1 338.75 72.05 338.75 70.15 L338.75 64.55 340.0 64.55 340.0 70.15 Q340.0 71.5 340.8 72.25 341.4 72.85 342.85 72.85 344.35 72.85 344.95 72.25 345.7 71.5 345.7 70.15 L345.7 64.55 346.95 64.55 346.95 70.15 M348.25 62.0 L362.2 62.0 362.2 62.6 348.25 62.6 348.25 62.0 M362.25 62.0 L376.2 62.0 376.2 62.6 362.25 62.6 362.25 62.0 M336.8 51.75 L332.4 51.75 334.6 55.65 336.8 51.75 M337.45 62.6 L323.5 62.6 323.5 62.0 337.45 62.0 337.45 62.6 M329.85 78.0 L329.85 91.95 328.2 91.95 328.2 78.0 329.85 78.0 M329.85 94.0 L329.85 107.95 328.2 107.95 328.2 94.0 329.85 94.0 M343.85 94.0 L343.85 100.15 350.0 100.15 350.0 101.85 343.85 101.85 343.85 107.95 342.2 107.95 342.2 94.0 343.85 94.0 M342.2 91.95 L342.2 84.15 350.0 84.15 350.0 85.85 343.85 85.85 343.85 91.95 342.2 91.95 M357.85 91.95 L356.2 91.95 356.2 85.85 350.05 85.85 350.05 84.15 357.85 84.15 357.85 91.95 M357.85 94.0 L357.85 107.95 356.2 107.95 356.2 101.85 350.05 101.85 350.05 100.15 356.2 100.15 356.2 94.0 357.85 94.0 M394.75 72.95 Q395.9 72.95 396.5 72.35 397.0 71.85 397.0 71.1 L397.0 64.55 398.25 64.55 398.25 71.15 Q398.25 72.35 397.45 73.1 396.6 74.0 394.75 74.0 392.9 74.0 392.0 73.1 391.25 72.35 391.25 71.15 L391.25 64.55 392.5 64.55 392.5 71.1 Q392.5 71.85 393.0 72.35 393.6 72.95 394.75 72.95 M390.2 62.6 L376.25 62.6 376.25 62.0 390.2 62.0 390.2 62.6 M401.3 64.3 L401.3 65.5 400.55 67.15 400.0 67.15 400.55 65.5 400.0 65.5 400.0 64.3 401.3 64.3 M371.85 85.85 L371.85 91.95 370.2 91.95 370.2 84.15 378.0 84.15 378.0 85.85 371.85 85.85 M371.85 94.0 L371.85 100.15 378.0 100.15 378.0 101.85 370.2 101.85 370.2 94.0 371.85 94.0 M397.75 78.0 L399.4 78.0 399.4 91.95 397.75 91.95 397.75 78.0 M399.85 94.0 L399.85 100.15 406.0 100.15 406.0 101.85 399.85 101.85 399.85 107.95 398.2 107.95 398.2 94.0 399.85 94.0 M399.4 110.0 L399.4 123.95 397.75 123.95 397.75 110.0 399.4 110.0 M385.85 107.95 L384.2 107.95 384.2 101.85 378.05 101.85 378.05 100.15 385.85 100.15 385.85 107.95 M385.4 117.85 L377.6 117.85 377.6 116.15 383.75 116.15 383.75 110.0 385.4 110.0 385.4 117.85 M377.55 117.85 L363.6 117.85 363.6 116.15 377.55 116.15 377.55 117.85 M371.6 142.9 L373.55 142.9 375.6 145.3 374.35 145.3 371.6 142.9 M368.75 139.35 L382.7 139.35 382.7 139.95 368.75 139.95 368.75 139.35 M368.7 139.95 L354.75 139.95 354.75 139.35 368.7 139.35 368.7 139.95 M382.75 139.35 L396.7 139.35 396.7 139.95 382.75 139.95 382.75 139.35 M378.4 143.2 Q381.1 145.8 381.1 149.2 381.1 152.55 378.4 155.15 L377.8 154.55 Q380.3 152.2 380.3 149.2 380.3 146.2 377.8 143.8 L378.4 143.2 M396.75 139.35 L410.7 139.35 410.7 139.95 396.75 139.95 396.75 139.35 M389.4 144.15 Q389.2 147.6 387.5 150.35 385.9 153.05 383.25 154.65 L382.35 153.55 Q387.8 150.5 388.1 143.75 L389.4 144.15 M357.4 110.0 L357.4 123.95 355.75 123.95 355.75 110.0 357.4 110.0 M343.4 110.0 L343.4 123.95 341.75 123.95 341.75 110.0 343.4 110.0 M329.4 110.0 L329.4 116.15 335.55 116.15 335.55 117.85 327.75 117.85 327.75 110.0 329.4 110.0 M340.7 139.35 L340.7 139.95 326.75 139.95 326.75 139.35 340.7 139.35 M326.7 139.95 L312.75 139.95 312.75 139.35 326.7 139.35 326.7 139.95 M340.75 139.35 L354.7 139.35 354.7 139.95 340.75 139.95 340.75 139.35 M339.75 146.0 Q344.2 148.8 346.2 151.65 L344.85 152.8 Q342.75 149.8 338.6 147.05 L339.75 146.0 M355.45 142.9 L357.4 142.9 354.65 145.3 353.35 145.3 355.45 142.9 M351.55 143.8 Q349.0 146.2 349.0 149.2 349.0 152.2 351.55 154.55 L350.95 155.15 Q348.2 152.55 348.2 149.2 348.2 145.8 350.95 143.2 L351.55 143.8 M352.4 159.7 Q351.05 160.95 350.5 162.1 349.9 163.4 349.9 165.15 349.9 166.6 350.5 167.9 351.05 169.1 352.4 170.6 L351.8 171.2 Q350.45 169.65 349.8 168.3 349.05 166.8 349.05 165.15 349.05 163.2 349.8 161.75 350.4 160.5 351.8 159.15 L352.4 159.7 M363.3 166.5 Q364.5 165.35 366.3 162.05 366.6 161.5 367.0 161.3 367.3 161.15 367.55 161.15 368.35 161.15 368.75 161.8 370.9 165.35 374.0 168.3 L373.1 169.45 Q369.95 166.15 368.1 162.85 367.95 162.5 367.6 162.5 367.3 162.5 367.1 162.85 L365.9 165.0 364.15 167.55 363.3 166.5 M363.9 176.15 L364.45 176.7 359.6 181.2 364.45 185.65 363.9 186.2 358.5 181.2 363.9 176.15 M376.0 159.15 Q377.4 160.5 378.0 161.75 378.75 163.2 378.75 165.15 378.75 166.8 378.0 168.3 377.35 169.65 376.0 171.2 L375.4 170.6 Q376.75 169.1 377.3 167.9 377.9 166.6 377.9 165.15 377.9 163.4 377.3 162.1 376.75 160.95 375.4 159.7 L376.0 159.15 M369.35 148.2 L369.35 149.4 359.85 149.4 359.85 148.2 369.35 148.2 M462.15 111.8 L462.65 112.15 456.9 122.5 456.35 122.15 462.15 111.8 M454.9 110.05 L454.9 123.95 453.8 123.95 453.8 110.05 454.9 110.05 M454.95 126.05 L454.95 139.95 453.85 139.95 453.85 126.05 454.95 126.05 M452.7 139.95 L438.75 139.95 438.75 139.35 452.7 139.35 452.7 139.95 M436.8 117.05 L430.9 123.0 425.0 117.05 430.9 111.15 436.8 117.05 M413.4 110.0 L413.4 123.95 411.75 123.95 411.75 110.0 413.4 110.0 M410.75 139.95 L410.75 139.35 424.7 139.35 424.7 139.95 410.75 139.95 M424.75 139.35 L438.7 139.35 438.7 139.95 424.75 139.95 424.75 139.35 M310.15 47.7 Q308.8 48.95 308.25 50.1 307.65 51.4 307.65 53.15 307.65 54.6 308.25 55.9 308.8 57.1 310.15 58.6 L309.55 59.2 Q308.2 57.65 307.55 56.3 306.8 54.8 306.8 53.15 306.8 51.2 307.55 49.75 308.15 48.5 309.55 47.15 L310.15 47.7 M311.35 42.3 L316.4 31.35 321.45 42.3 320.4 42.8 316.4 34.05 312.4 42.8 311.35 42.3 M282.55 62.05 L283.65 62.05 283.65 75.95 282.55 75.95 282.55 62.05 M282.55 78.05 L283.65 78.05 283.65 91.95 282.55 91.95 282.55 78.05 M312.7 62.6 L298.75 62.6 298.75 62.0 312.7 62.0 312.7 62.6 M322.2 64.55 L322.2 70.15 Q322.2 72.05 321.1 73.1 320.25 74.0 318.1 74.0 316.0 74.0 315.1 73.1 314.0 72.05 314.0 70.15 L314.0 64.55 315.25 64.55 315.25 70.15 Q315.25 71.5 316.05 72.25 316.65 72.85 318.1 72.85 319.6 72.85 320.2 72.25 320.95 71.5 320.95 70.15 L320.95 64.55 322.2 64.55 M298.7 62.0 L298.7 62.6 284.75 62.6 284.75 62.0 298.7 62.0 M301.85 91.95 L300.2 91.95 300.2 84.15 308.0 84.15 308.0 85.85 301.85 85.85 301.85 91.95 M301.85 94.0 L301.85 100.15 308.0 100.15 308.0 101.85 301.85 101.85 301.85 107.95 300.2 107.95 300.2 94.0 301.85 94.0 M308.05 85.85 L308.05 84.15 322.0 84.15 322.0 85.85 308.05 85.85 M315.85 94.0 L315.85 107.95 314.2 107.95 314.2 101.85 308.05 101.85 308.05 100.15 314.2 100.15 314.2 94.0 315.85 94.0 M283.65 94.05 L283.65 107.95 282.55 107.95 282.55 94.05 283.65 94.05 M301.85 110.0 L301.85 123.95 300.2 123.95 300.2 110.0 301.85 110.0 M283.65 139.95 L282.55 139.95 282.55 126.05 283.65 126.05 283.65 139.95 M298.75 139.35 L312.7 139.35 312.7 139.95 298.75 139.95 298.75 139.35 M298.7 139.35 L298.7 139.95 284.75 139.95 284.75 139.35 298.7 139.35 M283.65 123.95 L282.55 123.95 282.55 110.05 283.65 110.05 283.65 123.95" fill="#999999" fill-rule="evenodd" stroke="none"/>
    </g>
  </defs>
</svg>
