<?xml version="1.0" encoding="UTF-8" standalone="no"?>
<svg xmlns:ffdec="https://www.free-decompiler.com/flash" xmlns:xlink="http://www.w3.org/1999/xlink" ffdec:objectType="frame" height="280.0px" width="720.0px" xmlns="http://www.w3.org/2000/svg">
  <g transform="matrix(1.0, 0.0, 0.0, 1.0, 0.0, 0.0)">
    <use ffdec:characterId="1" height="144.8" transform="matrix(1.0, 0.0, 0.0, 1.0, 457.7, 22.65)" width="244.7" xlink:href="#shape0"/>
  </g>
  <defs>
    <g id="shape0" transform="matrix(1.0, 0.0, 0.0, 1.0, -457.7, -22.65)">
      <path d="M696.55 43.25 L680.6 43.25 680.6 42.05 696.55 42.05 696.55 43.25 M701.3 48.25 Q699.8 46.55 698.15 45.5 L699.1 44.25 Q701.1 45.45 702.4 46.95 L701.3 48.25 M664.6 42.05 L680.55 42.05 680.55 43.25 664.6 43.25 664.6 42.05 M664.55 42.05 L664.55 43.25 648.6 43.25 648.6 42.05 664.55 42.05 M648.55 43.25 L632.6 43.25 632.6 42.05 648.55 42.05 648.55 43.25 M678.95 51.7 L663.0 51.7 663.0 51.0 678.95 51.0 678.95 51.7 M685.15 51.05 L686.4 51.05 686.4 66.95 685.15 66.95 685.15 51.05 M686.2 69.05 L686.2 84.95 684.95 84.95 684.95 69.05 686.2 69.05 M661.75 51.05 L661.75 66.95 660.5 66.95 660.5 51.05 661.75 51.05 M658.0 51.05 L658.0 66.95 656.75 66.95 656.75 51.05 658.0 51.05 M651.7 51.7 L635.75 51.7 635.75 51.0 651.7 51.0 651.7 51.7 M654.25 51.05 L654.25 66.95 653.0 66.95 653.0 51.05 654.25 51.05 M654.5 69.05 L654.5 84.95 653.25 84.95 653.25 69.05 654.5 69.05 M662.0 69.05 L662.0 84.95 660.75 84.95 660.75 69.05 662.0 69.05 M658.25 69.05 L658.25 84.95 657.0 84.95 657.0 69.05 658.25 69.05 M655.6 87.05 L655.6 102.95 654.35 102.95 654.35 87.05 655.6 87.05 M659.35 87.05 L659.35 102.95 658.1 102.95 658.1 87.05 659.35 87.05 M663.1 87.05 L663.1 102.95 661.85 102.95 661.85 87.05 663.1 87.05 M687.3 87.05 L687.3 102.95 686.05 102.95 686.05 87.05 687.3 87.05 M696.1 69.0 L696.1 84.95 694.85 84.95 694.85 69.0 696.1 69.0 M696.3 51.0 L696.3 66.95 695.05 66.95 695.05 51.0 696.3 51.0 M697.2 87.0 L697.2 102.95 695.95 102.95 695.95 87.0 697.2 87.0 M697.3 120.95 L696.05 120.95 696.05 105.0 697.3 105.0 697.3 120.95 M697.15 123.05 L697.15 138.95 695.9 138.95 695.9 123.05 697.15 123.05 M693.4 123.05 L693.4 138.95 692.15 138.95 692.15 123.05 693.4 123.05 M693.7 141.05 L693.7 156.95 692.45 156.95 692.45 141.05 693.7 141.05 M697.45 141.05 L697.45 156.95 696.2 156.95 696.2 141.05 697.45 141.05 M687.4 105.05 L687.4 120.95 686.15 120.95 686.15 105.05 687.4 105.05 M670.0 117.2 L671.45 117.2 671.45 118.55 670.0 118.55 670.0 117.2 M680.0 119.55 L684.8 119.55 684.8 120.3 680.0 120.3 680.0 119.55 M660.0 109.55 Q665.05 112.75 667.35 116.0 L665.8 117.3 Q663.4 113.9 658.65 110.75 L660.0 109.55 M655.85 105.05 L655.85 120.95 654.6 120.95 654.6 105.05 655.85 105.05 M653.05 102.95 L637.1 102.95 637.1 102.25 653.05 102.25 653.05 102.95 M663.4 123.65 Q664.0 123.75 663.45 124.15 L663.45 125.3 668.75 125.3 668.75 126.5 658.65 126.5 658.65 132.2 Q658.65 135.75 656.4 138.05 L655.45 137.0 Q657.45 135.05 657.4 132.5 L655.55 133.4 Q655.5 133.95 655.25 133.65 L654.8 132.2 657.4 131.25 657.4 125.3 662.0 125.3 662.0 123.65 663.4 123.65 M659.15 127.9 L668.75 127.9 668.75 129.05 664.45 129.05 664.45 130.45 668.3 130.45 668.3 136.9 Q668.3 137.9 667.3 137.9 L665.95 137.9 665.65 136.7 666.8 136.7 667.05 136.45 667.05 134.55 666.3 135.5 664.05 133.45 Q663.4 135.15 661.7 136.05 L660.95 134.9 Q663.2 133.5 663.2 131.65 L660.8 131.65 660.8 138.05 659.55 138.05 659.55 130.45 663.2 130.45 663.2 129.05 659.15 129.05 659.15 127.9 M664.4 132.3 Q666.15 133.25 667.05 134.3 L667.05 131.65 664.45 131.65 664.4 132.3 M657.05 129.9 L655.8 130.2 655.0 127.45 656.2 127.15 Q656.9 128.5 657.05 129.9 M649.7 126.45 L652.7 126.45 652.7 134.5 651.45 134.5 651.45 134.05 649.7 134.05 649.7 138.2 648.45 138.2 648.45 134.05 646.7 134.05 646.7 134.65 645.45 134.65 645.45 126.45 648.45 126.45 648.45 124.0 649.65 124.0 Q650.15 124.05 649.7 124.4 L649.7 126.45 M649.7 129.65 L651.45 129.65 651.45 127.65 649.7 127.65 649.7 129.65 M648.45 127.65 L646.7 127.65 646.7 129.65 648.45 129.65 648.45 127.65 M651.45 130.8 L649.7 130.8 649.7 132.9 651.45 132.9 651.45 130.8 M648.45 130.8 L646.7 130.8 646.7 132.9 648.45 132.9 648.45 130.8 M656.15 141.05 L656.15 156.95 654.9 156.95 654.9 141.05 656.15 141.05 M665.05 143.9 L665.05 154.55 663.6 154.55 663.6 143.9 665.05 143.9 M667.3 145.75 Q668.5 144.3 670.25 143.4 672.25 142.3 674.3 142.3 676.55 142.3 678.35 143.4 679.85 144.25 681.3 145.75 L680.6 146.2 Q678.8 144.55 677.55 143.95 676.05 143.2 674.3 143.2 672.45 143.2 670.8 143.95 669.5 144.55 667.95 146.2 L667.3 145.75 M684.9 129.0 L683.65 129.0 683.65 126.75 676.95 126.75 676.95 129.0 675.7 129.0 675.7 125.75 679.5 125.75 679.5 123.8 680.7 123.8 Q681.2 123.9 680.75 124.2 L680.75 125.75 684.9 125.75 684.9 129.0 M683.2 129.5 L677.5 129.5 677.5 128.3 683.2 128.3 683.2 129.5 M679.3 132.15 Q679.7 137.3 675.0 138.05 L674.5 136.8 Q678.4 136.25 678.05 132.15 L675.75 132.15 675.75 130.95 685.15 130.95 685.15 132.15 682.0 132.15 682.0 136.3 Q682.0 136.65 682.4 136.65 L683.45 136.65 683.7 136.4 683.95 134.95 685.2 135.25 684.95 136.8 Q684.75 137.8 683.9 137.8 L681.9 137.8 Q680.75 137.8 680.75 136.75 L680.75 132.15 679.3 132.15 M674.45 124.2 L675.7 125.15 675.4 125.45 674.0 129.45 Q675.9 132.45 675.45 134.25 675.2 135.4 674.15 135.4 L673.15 135.4 672.95 134.0 673.65 134.0 Q674.3 134.0 674.25 133.4 674.15 130.95 672.9 129.4 L674.0 125.55 672.3 125.55 672.3 138.15 671.05 138.15 671.05 124.55 674.25 124.55 674.45 124.2 M685.05 143.9 L685.05 154.55 683.6 154.55 683.6 143.9 685.05 143.9 M686.3 155.55 L691.1 155.55 691.1 156.3 686.3 156.3 686.3 155.55 M672.75 161.65 L674.2 161.65 674.2 163.0 673.35 164.9 672.75 164.9 673.35 163.0 672.75 163.0 672.75 161.65 M670.65 167.45 L659.75 167.45 659.75 166.05 670.65 166.05 670.65 167.45 M662.2 156.3 L657.4 156.3 657.4 155.55 662.2 155.55 662.2 156.3 M654.9 160.0 L656.75 162.9 655.75 162.9 653.05 160.0 654.9 160.0 M648.65 156.3 L643.85 156.3 643.85 155.55 648.65 155.55 648.65 156.3 M648.75 155.55 L653.55 155.55 653.55 156.3 648.75 156.3 648.75 155.55 M608.9 33.0 L608.9 40.65 616.55 40.65 616.55 41.3 600.6 41.3 600.6 40.65 608.25 40.65 608.25 33.0 608.9 33.0 M608.1 30.95 L608.1 23.3 600.45 23.3 600.45 22.65 608.75 22.65 608.75 30.95 608.1 30.95 M616.6 42.05 L632.55 42.05 632.55 43.25 616.6 43.25 616.6 42.05 M600.4 23.3 L592.75 23.3 592.75 30.95 592.1 30.95 592.1 23.3 584.45 23.3 584.45 22.65 600.4 22.65 600.4 23.3 M568.45 23.3 L568.45 22.65 584.4 22.65 584.4 23.3 576.75 23.3 576.75 30.95 576.1 30.95 576.1 23.3 568.45 23.3 M568.4 23.3 L560.75 23.3 560.75 30.95 560.1 30.95 560.1 23.3 552.45 23.3 552.45 22.65 568.4 22.65 568.4 23.3 M576.9 33.0 L576.9 40.65 584.55 40.65 584.55 41.3 568.6 41.3 568.6 40.65 576.25 40.65 576.25 33.0 576.9 33.0 M568.55 41.3 L552.6 41.3 552.6 40.65 560.25 40.65 560.25 33.0 560.9 33.0 560.9 40.65 568.55 40.65 568.55 41.3 M584.6 40.65 L592.25 40.65 592.25 33.0 592.9 33.0 592.9 40.65 600.55 40.65 600.55 41.3 584.6 41.3 584.6 40.65 M602.5 51.05 L602.5 66.95 601.25 66.95 601.25 51.05 602.5 51.05 M603.75 51.0 L619.7 51.0 619.7 51.7 603.75 51.7 603.75 51.0 M598.75 51.05 L598.75 66.95 597.5 66.95 597.5 51.05 598.75 51.05 M587.55 51.7 L571.6 51.7 571.6 51.0 587.55 51.0 587.55 51.7 M590.1 51.05 L590.1 66.95 588.85 66.95 588.85 51.05 590.1 51.05 M591.7 69.05 L591.7 84.95 590.45 84.95 590.45 69.05 591.7 69.05 M600.35 69.05 L600.35 84.95 599.1 84.95 599.1 69.05 600.35 69.05 M604.1 69.05 L604.1 84.95 602.85 84.95 602.85 69.05 604.1 69.05 M571.55 51.7 L555.6 51.7 555.6 51.0 571.55 51.0 571.55 51.7 M585.85 83.65 L581.25 73.65 576.7 83.65 575.5 83.05 581.25 70.5 587.0 83.05 585.85 83.65 M569.3 88.45 L576.2 88.45 576.2 99.45 577.65 99.45 577.65 102.9 576.4 102.9 576.4 100.65 567.65 100.65 567.65 102.9 566.4 102.9 566.4 99.45 567.45 99.45 Q569.3 96.8 569.3 92.75 L569.3 88.45 M570.55 92.75 Q570.55 96.9 568.9 99.45 L574.95 99.45 574.95 89.65 570.55 89.65 570.55 92.75 M583.25 88.8 Q583.25 89.4 582.8 89.8 582.4 90.25 581.8 90.25 581.25 90.25 580.8 89.8 580.4 89.4 580.4 88.8 580.4 88.25 580.8 87.8 581.25 87.4 581.8 87.4 582.4 87.4 582.8 87.8 583.25 88.25 583.25 88.8 M582.75 88.8 L582.5 88.15 Q582.25 87.9 581.8 87.9 581.4 87.9 581.15 88.15 580.9 88.4 580.9 88.8 580.9 89.25 581.15 89.5 L581.8 89.75 582.5 89.5 582.75 88.8 M594.45 95.2 Q594.45 99.05 591.35 102.0 L590.65 101.3 Q593.5 98.65 593.5 95.2 593.5 91.75 590.65 89.05 L591.35 88.4 Q594.45 91.3 594.45 95.2 M600.1 87.05 L600.1 102.95 598.85 102.95 598.85 87.05 600.1 87.05 M603.85 87.05 L603.85 102.95 602.6 102.95 602.6 87.05 603.85 87.05 M635.7 51.0 L635.7 51.7 619.75 51.7 619.75 51.0 635.7 51.0 M552.4 23.3 L544.75 23.3 544.75 30.95 544.1 30.95 544.1 22.65 552.4 22.65 552.4 23.3 M544.25 33.0 L544.9 33.0 544.9 40.65 552.55 40.65 552.55 41.3 536.6 41.3 536.6 40.65 544.25 40.65 544.25 33.0 M536.55 43.25 L520.6 43.25 520.6 42.05 536.55 42.05 536.55 43.25 M504.55 42.05 L504.55 43.25 488.6 43.25 488.6 42.05 504.55 42.05 M504.6 42.05 L520.55 42.05 520.55 43.25 504.6 43.25 504.6 42.05 M520.3 51.7 L504.35 51.7 504.35 51.0 520.3 51.0 520.3 51.7 M520.35 51.0 L536.3 51.0 536.3 51.7 520.35 51.7 520.35 51.0 M488.35 51.7 L488.35 51.0 504.3 51.0 504.3 51.7 488.35 51.7 M517.7 83.05 L523.45 70.5 529.2 83.05 528.05 83.65 523.45 73.65 518.9 83.65 517.7 83.05 M515.55 88.4 L516.25 89.05 Q513.35 91.75 513.35 95.2 513.35 98.65 516.25 101.3 L515.55 102.0 Q512.4 99.05 512.4 95.2 512.4 91.3 515.55 88.4 M520.0 88.8 Q520.0 89.4 519.55 89.8 519.15 90.25 518.55 90.25 518.0 90.25 517.55 89.8 517.15 89.4 517.15 88.8 517.15 88.25 517.55 87.8 518.0 87.4 518.55 87.4 519.15 87.4 519.55 87.8 520.0 88.25 520.0 88.8 M519.5 88.8 L519.25 88.15 Q519.0 87.9 518.55 87.9 518.15 87.9 517.9 88.15 517.65 88.4 517.65 88.8 517.65 89.25 517.9 89.5 L518.55 89.75 519.25 89.5 519.5 88.8 M552.0 53.45 L545.35 65.25 544.75 64.9 551.35 53.05 552.0 53.45 M553.3 63.2 L554.75 63.2 554.75 64.55 553.3 64.55 553.3 63.2 M543.35 53.05 L544.0 53.45 537.35 65.25 536.75 64.9 543.35 53.05 M539.05 71.45 L532.4 83.25 531.8 82.9 538.4 71.05 539.05 71.45 M539.8 82.9 L546.4 71.05 547.05 71.45 540.4 83.25 539.8 82.9 M541.0 89.45 L534.35 101.25 533.75 100.9 540.35 89.05 541.0 89.45 M543.65 89.25 L543.65 101.2 546.55 101.2 546.55 102.2 542.6 102.2 542.6 88.25 546.55 88.25 546.55 89.25 543.65 89.25 M533.0 89.45 L526.35 101.25 525.75 100.9 532.35 89.05 533.0 89.45 M564.95 83.65 L560.35 73.65 555.8 83.65 554.6 83.05 560.35 70.5 566.1 83.05 564.95 83.65 M551.8 88.25 L555.7 88.25 555.7 102.2 551.8 102.2 551.8 101.2 554.65 101.2 554.65 89.25 551.8 89.25 551.8 88.25 M562.8 88.15 Q562.55 87.9 562.1 87.9 561.7 87.9 561.45 88.15 561.2 88.4 561.2 88.8 561.2 89.25 561.45 89.5 L562.1 89.75 562.8 89.5 563.05 88.8 562.8 88.15 M563.1 87.8 L563.55 88.8 563.1 89.8 Q562.7 90.25 562.1 90.25 561.55 90.25 561.1 89.8 560.7 89.4 560.7 88.8 560.7 88.25 561.1 87.8 561.55 87.4 562.1 87.4 562.7 87.4 563.1 87.8 M559.45 100.55 L558.0 100.55 558.0 99.2 559.45 99.2 559.45 100.55 M566.85 105.7 L550.9 105.7 550.9 105.0 566.85 105.0 566.85 105.7 M550.85 105.7 L534.9 105.7 534.9 105.0 550.85 105.0 550.85 105.7 M533.65 105.05 L533.65 120.95 532.4 120.95 532.4 105.05 533.65 105.05 M531.05 120.3 L526.25 120.3 526.25 119.55 531.05 119.55 531.05 120.3 M536.2 123.05 L536.2 138.95 534.95 138.95 534.95 123.05 536.2 123.05 M540.35 126.0 L550.6 126.0 550.6 127.4 540.35 127.4 540.35 126.0 M538.65 134.5 L552.15 134.5 552.15 135.9 538.65 135.9 538.65 134.5 M527.5 125.7 Q527.5 126.45 527.0 126.95 526.5 127.45 525.75 127.45 525.0 127.45 524.5 126.95 524.0 126.45 524.0 125.7 524.0 124.95 524.5 124.45 525.0 123.95 525.75 123.95 526.5 123.95 527.0 124.45 527.5 124.95 527.5 125.7 M526.9 125.7 L526.6 124.9 Q526.25 124.55 525.75 124.55 525.25 124.55 524.95 124.9 524.65 125.2 524.65 125.7 524.65 126.2 524.95 126.5 L525.75 126.8 526.6 126.5 526.9 125.7 M532.85 135.2 L532.85 136.55 531.4 136.55 531.4 135.2 532.85 135.2 M529.25 141.7 L513.3 141.7 513.3 141.0 529.25 141.0 529.25 141.7 M536.5 143.9 L536.5 154.55 535.25 154.55 535.25 143.9 536.5 143.9 M556.35 127.4 L556.35 126.0 566.6 126.0 566.6 127.4 556.35 127.4 M554.65 134.5 L568.15 134.5 568.15 135.9 554.65 135.9 554.65 134.5 M525.25 101.55 L525.25 102.3 520.45 102.3 520.45 101.55 525.25 101.55 M525.0 105.05 L525.0 120.95 523.75 120.95 523.75 105.05 525.0 105.05 M506.85 102.3 L502.05 102.3 502.05 101.55 506.85 101.55 506.85 102.3 M506.95 101.55 L511.75 101.55 511.75 102.3 506.95 102.3 506.95 101.55 M509.9 123.05 L509.9 138.95 508.65 138.95 508.65 123.05 509.9 123.05 M506.5 120.25 L522.45 120.25 522.45 120.95 506.5 120.95 506.5 120.25 M502.0 102.95 L486.05 102.95 486.05 102.25 502.0 102.25 502.0 102.95 M486.0 102.95 L470.05 102.95 470.05 102.25 486.0 102.25 486.0 102.95 M487.6 109.2 L487.45 112.2 490.0 110.55 490.65 111.7 487.95 113.05 490.65 114.45 490.0 115.55 487.45 113.95 487.6 117.15 486.35 117.15 486.45 113.95 483.9 115.55 483.25 114.45 485.95 113.05 483.25 111.7 483.9 110.55 486.45 112.2 486.35 109.2 487.6 109.2 M499.2 133.25 L483.25 133.25 483.25 132.05 499.2 132.05 499.2 133.25 M499.95 133.05 Q499.95 131.45 501.0 130.4 501.95 129.45 503.3 129.45 504.7 129.45 505.65 130.4 506.7 131.45 506.7 133.05 506.7 134.7 505.65 135.75 504.7 136.7 503.3 136.7 501.95 136.7 501.0 135.75 499.95 134.7 499.95 133.05 M504.65 135.0 Q505.3 134.3 505.3 133.05 505.3 131.8 504.55 131.05 504.05 130.55 503.3 130.55 502.55 130.55 502.05 131.05 501.3 131.8 501.3 133.05 501.3 134.3 502.0 135.0 502.55 135.55 503.3 135.55 504.05 135.55 504.65 135.0 M500.05 145.2 L506.8 145.2 Q508.7 145.2 509.75 146.25 510.8 147.3 510.8 149.15 510.8 150.75 509.75 151.8 508.55 153.0 506.8 153.0 L500.05 153.0 500.05 151.8 506.8 151.8 Q508.05 151.8 508.8 151.05 509.45 150.45 509.45 149.7 L500.05 149.7 500.05 148.5 509.45 148.5 Q509.3 147.65 508.8 147.15 508.05 146.4 506.8 146.4 L500.05 146.4 500.05 145.2 M516.8 126.95 Q515.6 126.95 514.65 127.9 513.6 128.95 513.6 131.2 513.6 133.45 514.65 134.5 515.6 135.45 516.8 135.45 517.95 135.45 518.9 134.5 519.95 133.45 519.95 131.2 519.95 128.95 518.9 127.9 517.95 126.95 516.8 126.95 M519.95 127.05 Q521.45 128.55 521.45 131.2 521.45 133.8 519.95 135.3 518.65 136.65 516.8 136.65 514.9 136.65 513.6 135.3 512.1 133.8 512.1 131.2 512.1 128.55 513.6 127.05 514.9 125.75 516.8 125.75 518.65 125.75 519.95 127.05 M522.25 159.0 L538.2 159.0 538.2 159.7 522.25 159.7 522.25 159.0 M506.95 166.05 L517.85 166.05 517.85 167.45 506.95 167.45 506.95 166.05 M520.55 163.0 L519.95 163.0 519.95 161.65 521.4 161.65 521.4 163.0 520.55 164.9 519.95 164.9 520.55 163.0 M499.25 159.7 L483.3 159.7 483.3 159.0 499.25 159.0 499.25 159.7 M502.1 160.0 L503.95 162.9 502.95 162.9 500.25 160.0 502.1 160.0 M493.1 154.5 L493.1 153.55 485.3 153.55 485.3 154.75 483.85 154.75 483.85 143.65 494.55 143.65 494.55 154.5 493.1 154.5 M553.6 156.25 L569.55 156.25 569.55 156.95 553.6 156.95 553.6 156.25 M553.55 156.95 L537.6 156.95 537.6 156.25 553.55 156.25 553.55 156.95 M534.1 155.55 L534.1 156.3 529.3 156.3 529.3 155.55 534.1 155.55 M493.1 145.0 L485.3 145.0 485.3 152.2 493.1 152.2 493.1 145.0 M642.55 123.7 Q643.05 123.75 642.65 124.05 L642.65 126.5 643.7 126.5 644.0 126.2 645.05 127.05 Q645.45 127.4 644.9 127.45 L642.75 130.75 645.05 131.75 644.45 133.15 Q643.65 132.4 642.65 131.95 L642.65 138.2 641.4 138.2 641.4 132.25 639.3 133.95 638.75 132.7 Q641.5 131.2 643.3 127.7 L639.2 127.7 639.2 126.5 641.4 126.5 641.4 123.7 642.55 123.7 M637.05 102.95 L621.1 102.95 621.1 102.25 637.05 102.25 637.05 102.95 M621.05 102.95 L605.1 102.95 605.1 102.25 621.05 102.25 621.05 102.95 M626.5 123.8 Q627.0 123.9 626.55 124.2 L626.55 129.45 628.9 129.45 628.9 128.9 632.15 128.9 632.15 128.0 629.7 128.0 629.7 127.0 632.15 127.0 632.15 126.15 629.25 126.15 629.25 125.15 632.15 125.15 632.15 123.8 633.3 123.8 Q633.8 123.9 633.4 124.2 L633.4 125.15 636.65 125.15 636.65 126.15 633.4 126.15 633.4 127.0 635.9 127.0 635.9 128.0 633.4 128.0 633.4 128.9 637.15 128.9 637.15 129.9 628.9 129.9 628.9 130.65 626.55 130.65 626.55 131.55 628.9 133.3 628.25 134.5 626.55 132.95 626.55 138.2 625.3 138.2 625.3 133.2 Q624.4 135.15 623.45 135.95 L622.55 134.95 Q624.3 133.3 625.2 130.65 L622.95 130.65 622.95 129.45 625.3 129.45 625.3 123.8 626.5 123.8 M624.2 125.3 Q624.75 126.75 624.95 128.2 L623.75 128.5 623.05 125.7 624.2 125.3 M627.65 125.05 L628.95 125.4 Q629.15 125.55 628.8 125.75 L628.0 128.7 626.95 128.4 627.65 125.05 M616.0 126.8 L602.15 126.8 602.15 125.65 608.3 125.65 608.3 123.9 609.65 123.9 Q610.3 124.0 609.75 124.4 L609.75 125.65 616.0 125.65 616.0 126.8 M609.85 132.5 L609.85 137.15 Q609.85 138.15 608.85 138.15 L607.25 138.15 607.0 136.75 608.35 136.75 608.6 136.5 608.6 132.5 605.5 132.5 605.5 133.05 604.25 133.05 604.25 128.0 613.8 128.0 613.8 132.9 612.55 132.9 612.55 132.5 609.85 132.5 M612.1 133.45 Q613.4 135.2 615.85 136.05 L615.05 137.45 Q612.5 136.5 611.0 134.3 L612.1 133.45 M612.55 129.2 L605.5 129.2 605.5 131.3 612.55 131.3 612.55 129.2 M630.95 132.65 L634.9 132.65 634.9 131.75 630.95 131.75 630.95 132.65 M630.95 134.45 L634.9 134.45 634.9 133.65 630.95 133.65 630.95 134.45 M630.95 135.45 L630.95 138.15 629.7 138.15 629.7 130.75 636.15 130.75 636.15 137.2 Q636.15 138.05 635.3 138.05 L634.15 138.05 633.95 136.9 634.65 136.9 634.9 136.65 634.9 135.45 630.95 135.45 M599.7 105.05 L599.7 120.95 598.45 120.95 598.45 105.05 599.7 105.05 M587.9 100.55 L587.9 99.2 589.35 99.2 589.35 100.55 588.5 102.25 587.9 102.25 588.5 100.55 587.9 100.55 M592.7 105.05 L592.7 120.95 591.45 120.95 591.45 105.05 592.7 105.05 M592.85 123.05 L592.85 138.95 591.6 138.95 591.6 123.05 592.85 123.05 M594.9 117.2 L596.35 117.2 596.35 118.55 594.9 118.55 594.9 117.2 M603.35 118.55 L601.9 118.55 601.9 117.2 603.35 117.2 603.35 118.55 M599.85 123.05 L599.85 138.95 598.6 138.95 598.6 123.05 599.85 123.05 M586.1 100.55 L585.25 102.25 584.65 102.25 585.25 100.55 584.65 100.55 584.65 99.2 586.1 99.2 586.1 100.55 M584.5 107.75 L584.5 113.7 Q584.5 115.9 583.2 117.2 581.8 118.55 579.95 118.55 578.05 118.55 576.7 117.2 575.35 115.9 575.35 113.7 L575.35 107.75 576.55 107.75 576.55 113.7 Q576.55 115.3 577.6 116.4 578.55 117.3 579.95 117.3 581.3 117.3 582.25 116.4 583.3 115.3 583.3 113.7 L583.3 107.75 584.5 107.75 M586.0 129.8 L586.0 128.55 583.0 128.55 583.0 129.8 586.0 129.8 M583.0 127.55 L587.25 127.55 587.25 133.45 586.0 133.45 586.0 133.05 583.4 133.05 Q586.05 135.25 589.5 136.15 L588.85 137.65 Q586.0 136.9 583.0 134.05 L583.0 138.2 581.75 138.2 581.75 134.3 Q579.55 136.7 576.1 137.8 L575.5 136.5 Q579.25 135.3 581.4 133.05 L578.75 133.05 578.75 133.65 577.5 133.65 577.5 127.55 581.75 127.55 581.75 126.5 575.55 126.5 575.55 125.3 581.75 125.3 581.75 123.9 582.9 123.9 Q583.4 123.95 583.0 124.25 L583.0 125.3 589.05 125.3 589.05 126.5 583.0 126.5 583.0 127.55 M581.75 129.8 L581.75 128.55 578.75 128.55 578.75 129.8 581.75 129.8 M581.75 132.05 L581.75 130.8 578.75 130.8 578.75 132.05 581.75 132.05 M586.0 132.05 L586.0 130.8 583.0 130.8 583.0 132.05 586.0 132.05 M574.6 145.75 Q575.8 144.3 577.55 143.4 579.55 142.3 581.6 142.3 583.85 142.3 585.65 143.4 L588.6 145.75 587.9 146.2 Q586.1 144.55 584.85 143.95 583.35 143.2 581.6 143.2 579.75 143.2 578.1 143.95 576.8 144.55 575.25 146.2 L574.6 145.75 M572.35 143.9 L572.35 154.55 570.9 154.55 570.9 143.9 572.35 143.9 M607.0 134.5 Q607.15 134.8 606.6 134.75 605.15 136.45 602.85 137.65 L602.1 136.2 Q604.5 135.05 605.85 133.45 L607.0 134.5 M596.5 135.2 L596.5 136.55 595.05 136.55 595.05 135.2 596.5 135.2 M592.35 143.9 L592.35 154.55 590.9 154.55 590.9 143.9 592.35 143.9 M601.0 141.05 L601.0 156.95 599.75 156.95 599.75 141.05 601.0 141.05 M605.75 160.0 L607.6 162.9 606.6 162.9 603.9 160.0 605.75 160.0 M602.25 156.25 L618.2 156.25 618.2 156.95 602.25 156.95 602.25 156.25 M598.4 156.3 L593.6 156.3 593.6 155.55 598.4 155.55 598.4 156.3 M572.1 166.05 L583.0 166.05 583.0 167.45 572.1 167.45 572.1 166.05 M568.1 162.9 L565.4 160.0 567.25 160.0 569.1 162.9 568.1 162.9 M585.1 164.9 L585.7 163.0 585.1 163.0 585.1 161.65 586.55 161.65 586.55 163.0 585.7 164.9 585.1 164.9 M627.85 156.25 L643.8 156.25 643.8 156.95 627.85 156.95 627.85 156.25 M627.8 156.95 L618.25 156.95 618.25 156.25 627.8 156.25 627.8 156.95 M610.6 166.05 L621.5 166.05 621.5 167.45 610.6 167.45 610.6 166.05 M623.6 164.9 L624.2 163.0 623.6 163.0 623.6 161.65 625.05 161.65 625.05 163.0 624.2 164.9 623.6 164.9 M479.85 53.45 L473.2 65.25 472.6 64.9 479.2 53.05 479.85 53.45 M474.95 71.45 L468.3 83.25 467.7 82.9 474.3 71.05 474.95 71.45 M482.6 63.2 L482.6 64.55 481.15 64.55 481.15 63.2 482.6 63.2 M461.85 88.25 L461.85 89.25 458.95 89.25 458.95 101.2 461.85 101.2 461.85 102.2 457.9 102.2 457.9 88.25 461.85 88.25 M477.7 81.2 L477.7 82.55 476.25 82.55 476.25 81.2 477.7 81.2 M469.7 89.45 L463.05 101.25 462.45 100.9 469.05 89.05 469.7 89.45 M471.45 118.55 L470.0 118.55 470.0 117.2 471.45 117.2 471.45 118.55 M468.95 120.3 L464.15 120.3 464.15 119.55 468.95 119.55 468.95 120.3 M473.85 123.05 L473.85 138.95 472.6 138.95 472.6 123.05 473.85 123.05 M459.15 105.05 L459.15 120.95 457.9 120.95 457.9 105.05 459.15 105.05 M462.9 105.05 L462.9 120.95 461.65 120.95 461.65 105.05 462.9 105.05 M463.55 127.9 Q462.5 128.95 462.5 131.2 462.5 133.45 463.55 134.5 464.5 135.45 465.7 135.45 466.85 135.45 467.8 134.5 468.85 133.45 468.85 131.2 468.85 128.95 467.8 127.9 466.85 126.95 465.7 126.95 464.5 126.95 463.55 127.9 M465.7 125.75 Q467.55 125.75 468.85 127.05 470.35 128.55 470.35 131.2 470.35 133.8 468.85 135.3 467.55 136.65 465.7 136.65 463.8 136.65 462.5 135.3 461.0 133.8 461.0 131.2 461.0 128.55 462.5 127.05 463.8 125.75 465.7 125.75 M458.95 125.9 L458.95 136.55 457.7 136.55 457.7 125.9 458.95 125.9 M459.15 141.05 L459.15 156.95 457.9 156.95 457.9 141.05 459.15 141.05 M480.5 135.0 Q481.15 134.3 481.15 133.05 481.15 131.8 480.4 131.05 479.9 130.55 479.15 130.55 478.4 130.55 477.9 131.05 477.15 131.8 477.15 133.05 477.15 134.3 477.85 135.0 478.4 135.55 479.15 135.55 479.9 135.55 480.5 135.0 M482.55 133.05 Q482.55 134.7 481.5 135.75 480.55 136.7 479.15 136.7 477.8 136.7 476.85 135.75 475.8 134.7 475.8 133.05 475.8 131.45 476.85 130.4 477.8 129.45 479.15 129.45 480.55 129.45 481.5 130.4 482.55 131.45 482.55 133.05 M469.95 147.15 Q469.3 147.75 469.3 148.5 L478.7 148.5 478.7 149.7 469.3 149.7 Q469.45 150.55 469.95 151.05 470.7 151.8 471.95 151.8 L478.7 151.8 478.7 153.0 471.95 153.0 Q470.05 153.0 469.0 151.95 467.95 150.9 467.95 149.05 467.95 147.45 469.0 146.4 470.2 145.2 471.95 145.2 L478.7 145.2 478.7 146.4 471.95 146.4 Q470.7 146.4 469.95 147.15 M483.25 159.7 L467.3 159.7 467.3 159.0 483.25 159.0 483.25 159.7" fill="#999999" fill-rule="evenodd" stroke="none"/>
    </g>
  </defs>
</svg>
