<?xml version="1.0" encoding="UTF-8" standalone="no"?>
<svg xmlns:ffdec="https://www.free-decompiler.com/flash" xmlns:xlink="http://www.w3.org/1999/xlink" ffdec:objectType="frame" height="280.0px" width="720.0px" xmlns="http://www.w3.org/2000/svg">
  <g transform="matrix(1.0, 0.0, 0.0, 1.0, 0.0, 0.0)">
    <use ffdec:characterId="1" height="249.9" transform="matrix(1.0, 0.0, 0.0, 1.0, 3.6, 0.0)" width="152.8" xlink:href="#shape0"/>
  </g>
  <defs>
    <g id="shape0" transform="matrix(1.0, 0.0, 0.0, 1.0, -3.6, 0.0)">
      <path d="M133.55 25.4 L145.5 25.4 145.5 25.9 133.55 25.9 133.55 25.4 M133.5 28.45 L121.55 28.45 121.55 27.95 133.5 27.95 133.5 28.45 M133.5 25.9 L121.55 25.9 121.55 25.4 133.5 25.4 133.5 25.9 M121.5 28.45 L109.55 28.45 109.55 27.95 121.5 27.95 121.5 28.45 M121.5 25.9 L109.55 25.9 109.55 25.4 121.5 25.4 121.5 25.9 M137.8 37.95 L148.05 29.45 148.55 30.05 138.35 38.6 137.8 37.95 M132.75 44.05 L122.55 52.6 122.0 51.95 132.25 43.45 132.75 44.05 M145.55 25.4 L145.55 24.85 149.15 24.85 149.15 25.4 145.55 25.4 M151.1 28.0 L151.1 39.9 150.15 39.9 150.15 28.0 151.1 28.0 M148.4 44.05 L138.2 52.6 137.65 51.95 147.9 43.45 148.4 44.05 M150.95 42.0 L150.95 53.9 150.0 53.9 150.0 42.0 150.95 42.0 M95.7 0.0 L96.65 0.0 96.65 11.9 95.7 11.9 95.7 0.0 M81.3 11.9 L81.3 0.0 82.25 0.0 82.25 11.9 81.3 11.9 M82.25 14.0 L82.25 25.9 81.3 25.9 81.3 14.0 82.25 14.0 M96.65 14.0 L96.65 25.9 95.7 25.9 95.7 14.0 96.65 14.0 M97.55 25.4 L109.5 25.4 109.5 25.9 97.55 25.9 97.55 25.4 M96.65 28.0 L96.65 39.9 95.7 39.9 95.7 28.0 96.65 28.0 M97.55 27.95 L109.5 27.95 109.5 28.45 97.55 28.45 97.55 27.95 M82.25 28.0 L82.25 39.9 81.3 39.9 81.3 28.0 82.25 28.0 M82.25 42.0 L82.25 53.9 81.3 53.9 81.3 42.0 82.25 42.0 M96.65 42.0 L96.65 53.9 95.7 53.9 95.7 42.0 96.65 42.0 M121.0 57.45 L121.5 58.05 111.3 66.6 110.75 65.95 121.0 57.45 M109.9 72.05 L99.7 80.6 99.15 79.95 109.4 71.45 109.9 72.05 M97.65 56.0 L97.65 67.9 96.7 67.9 96.7 56.0 97.65 56.0 M87.15 72.05 L76.95 80.6 76.4 79.95 86.65 71.45 87.15 72.05 M86.65 66.6 L76.4 58.05 76.95 57.45 87.15 65.95 86.65 66.6 M97.65 70.0 L97.65 81.9 96.7 81.9 96.7 70.0 97.65 70.0 M97.2 84.0 L97.2 95.9 96.25 95.9 96.25 84.0 97.2 84.0 M82.4 84.0 L82.4 95.9 81.45 95.9 81.45 84.0 82.4 84.0 M82.4 98.0 L82.4 109.9 81.45 109.9 81.45 98.0 82.4 98.0 M86.7 98.45 Q87.1 98.5 86.75 98.75 L86.75 100.55 87.55 100.55 87.8 100.35 88.6 101.0 Q88.9 101.2 88.45 101.25 L86.85 103.75 Q87.85 104.05 88.6 104.5 L88.15 105.55 Q87.5 104.95 86.75 104.65 L86.75 109.35 85.85 109.35 85.85 104.9 84.3 106.15 83.85 105.2 Q85.95 104.1 87.3 101.45 L84.2 101.45 84.2 100.55 85.85 100.55 85.85 98.45 86.7 98.45 M83.3 95.4 L95.25 95.4 95.25 95.9 83.3 95.9 83.3 95.4 M92.0 98.7 Q92.4 98.75 92.05 98.95 L92.05 100.5 94.3 100.5 94.3 106.55 93.4 106.55 93.4 106.25 92.05 106.25 92.05 109.35 91.15 109.35 91.15 106.25 89.8 106.25 89.8 106.65 88.9 106.65 88.9 100.5 91.15 100.5 91.15 98.7 92.0 98.7 M97.2 98.0 L97.2 109.9 96.25 109.9 96.25 98.0 97.2 98.0 M98.7 93.95 L108.95 85.45 109.45 86.05 99.25 94.6 98.7 93.95 M112.0 84.0 L112.0 95.9 111.05 95.9 111.05 84.0 112.0 84.0 M113.5 93.95 L123.75 85.45 124.25 86.05 114.05 94.6 113.5 93.95 M111.15 79.95 L121.4 71.45 121.9 72.05 111.7 80.6 111.15 79.95 M153.2 72.05 L143.0 80.6 142.45 79.95 152.7 71.45 153.2 72.05 M155.75 70.0 L155.75 81.9 154.8 81.9 154.8 70.0 155.75 70.0 M153.65 56.0 L153.65 67.9 152.7 67.9 152.7 56.0 153.65 56.0 M151.1 58.05 L140.9 66.6 140.35 65.95 150.6 57.45 151.1 58.05 M138.85 56.0 L138.85 67.9 137.9 67.9 137.9 56.0 138.85 56.0 M136.3 58.05 L126.1 66.6 125.55 65.95 135.8 57.45 136.3 58.05 M124.05 56.0 L124.05 67.9 123.1 67.9 123.1 56.0 124.05 56.0 M137.55 72.05 L127.35 80.6 126.8 79.95 137.05 71.45 137.55 72.05 M139.05 86.05 L128.85 94.6 128.3 93.95 138.55 85.45 139.05 86.05 M141.6 84.0 L141.6 95.9 140.65 95.9 140.65 84.0 141.6 84.0 M126.8 84.0 L126.8 95.9 125.85 95.9 125.85 84.0 126.8 84.0 M153.85 86.05 L143.65 94.6 143.1 93.95 153.35 85.45 153.85 86.05 M156.4 84.0 L156.4 95.9 155.45 95.9 155.45 84.0 156.4 84.0 M15.55 11.9 L15.55 0.0 16.5 0.0 16.5 11.9 15.55 11.9 M16.5 14.0 L16.5 25.9 15.55 25.9 15.55 14.0 16.5 14.0 M15.55 39.9 L15.55 28.0 16.5 28.0 16.5 39.9 15.55 39.9 M16.5 42.0 L16.5 53.9 15.55 53.9 15.55 42.0 16.5 42.0 M15.55 56.0 L16.5 56.0 16.5 67.9 15.55 67.9 15.55 56.0 M16.5 70.0 L16.5 81.9 15.55 81.9 15.55 70.0 16.5 70.0 M15.55 84.0 L16.5 84.0 16.5 95.9 15.55 95.9 15.55 84.0 M16.5 98.0 L16.5 109.9 15.55 109.9 15.55 98.0 16.5 98.0 M63.55 72.05 L53.35 80.6 52.8 79.95 63.05 71.45 63.55 72.05 M75.15 58.05 L64.95 66.6 64.4 65.95 74.65 57.45 75.15 58.05 M52.1 85.45 L52.6 86.05 42.4 94.6 41.85 93.95 52.1 85.45 M66.0 94.6 L65.45 93.95 75.7 85.45 76.2 86.05 66.0 94.6 M63.95 100.05 L53.75 108.6 53.2 107.95 63.45 99.45 63.95 100.05 M79.0 123.4 L79.0 123.9 67.05 123.9 67.05 123.4 79.0 123.4 M79.75 121.1 L80.85 121.1 80.85 122.1 79.75 122.1 79.75 121.1 M41.6 121.95 L51.85 113.45 52.35 114.05 42.15 122.6 41.6 121.95 M54.8 122.1 L53.7 122.1 53.7 121.1 54.8 121.1 54.8 122.1 M52.35 142.05 L42.15 150.6 41.6 149.95 51.85 141.45 52.35 142.05 M41.15 128.05 L30.95 136.6 30.4 135.95 40.65 127.45 41.15 128.05 M54.0 135.95 L64.25 127.45 64.75 128.05 54.55 136.6 54.0 135.95 M72.3 142.05 L62.1 150.6 61.55 149.95 71.8 141.45 72.3 142.05 M73.95 135.95 L84.2 127.45 84.7 128.05 74.5 136.6 73.95 135.95 M28.75 114.05 L18.55 122.6 18.0 121.95 28.25 113.45 28.75 114.05 M40.35 100.05 L30.15 108.6 29.6 107.95 39.85 99.45 40.35 100.05 M16.5 112.0 L16.5 123.9 15.55 123.9 15.55 112.0 16.5 112.0 M14.35 128.05 L4.15 136.6 3.6 135.95 13.85 127.45 14.35 128.05 M18.95 127.45 L29.15 135.95 28.65 136.6 18.4 128.05 18.95 127.45 M16.9 126.0 L16.9 137.9 15.95 137.9 15.95 126.0 16.9 126.0 M16.9 140.0 L16.9 151.9 15.95 151.9 15.95 140.0 16.9 140.0 M14.35 142.05 L4.15 150.6 3.6 149.95 13.85 141.45 14.35 142.05 M16.5 168.0 L16.5 179.9 15.55 179.9 15.55 168.0 16.5 168.0 M15.55 165.9 L15.55 154.0 16.5 154.0 16.5 165.9 15.55 165.9 M16.5 193.9 L15.55 193.9 15.55 182.0 16.5 182.0 16.5 193.9 M16.5 196.0 L16.5 207.9 15.55 207.9 15.55 196.0 16.5 196.0 M69.8 170.05 L59.6 178.6 59.05 177.95 69.3 169.45 69.8 170.05 M72.35 168.0 L72.35 179.9 71.4 179.9 71.4 168.0 72.35 168.0 M72.35 165.9 L71.4 165.9 71.4 154.0 72.35 154.0 72.35 165.9 M57.95 154.0 L57.95 165.9 57.0 165.9 57.0 154.0 57.95 154.0 M56.0 154.45 L44.05 154.45 44.05 153.95 56.0 153.95 56.0 154.45 M43.15 154.0 L43.15 165.9 42.2 165.9 42.2 154.0 43.15 154.0 M43.15 168.0 L43.15 179.9 42.2 179.9 42.2 168.0 43.15 168.0 M57.55 168.0 L57.55 179.9 56.6 179.9 56.6 168.0 57.55 168.0 M57.95 182.0 L57.95 193.9 57.0 193.9 57.0 182.0 57.95 182.0 M55.4 184.05 L45.2 192.6 44.65 191.95 54.9 183.45 55.4 184.05 M43.15 182.0 L43.15 193.9 42.2 193.9 42.2 182.0 43.15 182.0 M43.15 196.0 L43.15 207.9 42.2 207.9 42.2 196.0 43.15 196.0 M57.55 196.0 L57.55 207.9 56.6 207.9 56.6 196.0 57.55 196.0 M72.35 182.0 L72.35 193.9 71.4 193.9 71.4 182.0 72.35 182.0 M73.85 191.95 L84.1 183.45 84.6 184.05 74.4 192.6 73.85 191.95 M152.25 99.45 L152.75 100.05 142.55 108.6 142.0 107.95 152.25 99.45 M137.1 100.05 L126.9 108.6 126.35 107.95 136.6 99.45 137.1 100.05 M125.1 100.05 L114.9 108.6 114.35 107.95 124.6 99.45 125.1 100.05 M125.25 114.05 L115.05 122.6 114.5 121.95 124.75 113.45 125.25 114.05 M127.8 112.0 L127.8 123.9 126.85 123.9 126.85 112.0 127.8 112.0 M129.3 121.95 L139.55 113.45 140.05 114.05 129.85 122.6 129.3 121.95 M126.75 128.05 L116.55 136.6 116.0 135.95 126.25 127.45 126.75 128.05 M113.0 112.0 L113.0 123.9 112.05 123.9 112.05 112.0 113.0 112.0 M110.45 114.05 L100.25 122.6 99.7 121.95 109.95 113.45 110.45 114.05 M109.45 100.05 L99.25 108.6 98.7 107.95 108.95 99.45 109.45 100.05 M92.05 103.8 L92.05 105.35 93.4 105.35 93.4 103.8 92.05 103.8 M92.05 102.9 L93.4 102.9 93.4 101.4 92.05 101.4 92.05 102.9 M91.15 101.4 L89.8 101.4 89.8 102.9 91.15 102.9 91.15 101.4 M91.15 103.8 L89.8 103.8 89.8 105.35 91.15 105.35 91.15 103.8 M83.4 112.0 L83.4 123.9 82.45 123.9 82.45 112.0 83.4 112.0 M84.3 111.95 L96.25 111.95 96.25 112.45 84.3 112.45 84.3 111.95 M98.2 112.0 L98.2 123.9 97.25 123.9 97.25 112.0 98.2 112.0 M98.85 126.0 L98.85 137.9 97.9 137.9 97.9 126.0 98.85 126.0 M98.7 143.35 Q102.5 145.75 104.25 148.2 L103.05 149.15 Q101.3 146.6 97.7 144.25 L98.7 143.35 M95.9 142.05 L85.7 150.6 85.15 149.95 95.4 141.45 95.9 142.05 M100.35 135.95 L110.6 127.45 111.1 128.05 100.9 136.6 100.35 135.95 M105.45 170.05 L95.25 178.6 94.7 177.95 104.95 169.45 105.45 170.05 M104.3 156.05 L94.1 164.6 93.55 163.95 103.8 155.45 104.3 156.05 M105.9 165.9 L105.9 154.0 106.85 154.0 106.85 165.9 105.9 165.9 M86.15 157.35 Q89.95 159.75 91.7 162.2 L90.5 163.15 Q88.75 160.6 85.15 158.25 L86.15 157.35 M83.1 154.0 L83.1 165.9 82.15 165.9 82.15 154.0 83.1 154.0 M83.1 168.0 L83.1 179.9 82.15 179.9 82.15 168.0 83.1 168.0 M93.2 168.0 L93.2 179.9 92.25 179.9 92.25 168.0 93.2 168.0 M91.25 179.4 L87.65 179.4 87.65 178.85 91.25 178.85 91.25 179.4 M87.6 179.4 L84.0 179.4 84.0 178.85 87.6 178.85 87.6 179.4 M59.05 205.95 L69.3 197.45 69.8 198.05 59.6 206.6 59.05 205.95 M43.15 210.0 L43.15 221.9 42.2 221.9 42.2 210.0 43.15 210.0 M44.65 219.95 L54.9 211.45 55.4 212.05 45.2 220.6 44.65 219.95 M15.55 210.0 L16.5 210.0 16.5 221.9 15.55 221.9 15.55 210.0 M16.5 238.0 L16.5 249.9 15.55 249.9 15.55 238.0 16.5 238.0 M16.5 235.9 L15.55 235.9 15.55 224.0 16.5 224.0 16.5 235.9 M39.85 225.45 L40.35 226.05 30.15 234.6 29.6 233.95 39.85 225.45 M28.75 240.05 L18.55 248.6 18.0 247.95 28.25 239.45 28.75 240.05" fill="#000000" fill-rule="evenodd" stroke="none"/>
    </g>
  </defs>
</svg>
