<?xml version="1.0" encoding="UTF-8" standalone="no"?>
<svg xmlns:ffdec="https://www.free-decompiler.com/flash" xmlns:xlink="http://www.w3.org/1999/xlink" ffdec:objectType="frame" height="280.0px" width="720.0px" xmlns="http://www.w3.org/2000/svg">
  <g transform="matrix(1.0, 0.0, 0.0, 1.0, 0.0, 0.0)">
    <use ffdec:characterId="1" height="153.9" transform="matrix(1.0, 0.0, 0.0, 1.0, 293.85, -1.0)" width="154.55" xlink:href="#shape0"/>
  </g>
  <defs>
    <g id="shape0" transform="matrix(1.0, 0.0, 0.0, 1.0, -293.85, 1.0)">
      <path d="M308.45 -1.0 L308.45 8.9 307.7 8.9 307.7 -1.0 308.45 -1.0 M317.45 -1.0 L317.45 8.9 316.7 8.9 316.7 -1.0 317.45 -1.0 M432.55 -1.0 L432.55 8.9 431.8 8.9 431.8 -1.0 432.55 -1.0 M441.55 -1.0 L441.55 8.9 440.8 8.9 440.8 -1.0 441.55 -1.0 M441.2 11.0 L441.2 20.9 440.45 20.9 440.45 11.0 441.2 11.0 M441.45 23.0 L441.45 32.9 440.7 32.9 440.7 23.0 441.45 23.0 M430.45 3.85 L429.55 3.85 429.55 3.0 430.45 3.0 430.45 3.85 M428.4 3.0 L428.4 3.85 427.5 3.85 427.5 3.0 428.4 3.0 M426.35 3.0 L426.35 3.85 425.45 3.85 425.45 3.0 426.35 3.0 M428.4 6.55 L428.4 7.45 427.5 7.45 427.5 6.55 428.4 6.55 M429.55 6.55 L430.45 6.55 430.45 7.45 429.55 7.45 429.55 6.55 M425.45 7.45 L425.45 6.55 426.35 6.55 426.35 7.45 425.45 7.45 M432.2 11.0 L432.2 20.9 431.45 20.9 431.45 11.0 432.2 11.0 M424.3 3.0 L424.3 3.85 423.4 3.85 423.4 3.0 424.3 3.0 M422.25 3.85 L421.35 3.85 421.35 3.0 422.25 3.0 422.25 3.85 M420.2 3.85 L419.3 3.85 419.3 3.0 420.2 3.0 420.2 3.85 M418.15 3.0 L418.15 3.85 417.25 3.85 417.25 3.0 418.15 3.0 M416.1 3.0 L416.1 3.85 415.2 3.85 415.2 3.0 416.1 3.0 M418.15 7.45 L417.25 7.45 417.25 6.55 418.15 6.55 418.15 7.45 M419.3 6.55 L420.2 6.55 420.2 7.45 419.3 7.45 419.3 6.55 M416.1 6.55 L416.1 7.45 415.2 7.45 415.2 6.55 416.1 6.55 M422.25 7.45 L421.35 7.45 421.35 6.55 422.25 6.55 422.25 7.45 M424.3 6.55 L424.3 7.45 423.4 7.45 423.4 6.55 424.3 6.55 M423.95 15.0 L423.95 15.85 423.05 15.85 423.05 15.0 423.95 15.0 M421.9 15.0 L421.9 15.85 421.0 15.85 421.0 15.0 421.9 15.0 M421.9 18.55 L421.9 19.45 421.0 19.45 421.0 18.55 421.9 18.55 M423.95 18.55 L423.95 19.45 423.05 19.45 423.05 18.55 423.95 18.55 M419.35 17.85 L418.4 18.65 Q416.9 16.5 413.95 14.55 L414.75 13.8 Q417.9 15.8 419.35 17.85 M430.1 15.85 L429.2 15.85 429.2 15.0 430.1 15.0 430.1 15.85 M426.0 15.0 L426.0 15.85 425.1 15.85 425.1 15.0 426.0 15.0 M426.0 18.55 L426.0 19.45 425.1 19.45 425.1 18.55 426.0 18.55 M428.05 18.55 L428.05 19.45 427.15 19.45 427.15 18.55 428.05 18.55 M428.05 15.0 L428.05 15.85 427.15 15.85 427.15 15.0 428.05 15.0 M432.45 23.0 L432.45 32.9 431.7 32.9 431.7 23.0 432.45 23.0 M430.1 18.55 L430.1 19.45 429.2 19.45 429.2 18.55 430.1 18.55 M430.35 27.85 L429.45 27.85 429.45 27.0 430.35 27.0 430.35 27.85 M428.3 27.0 L428.3 27.85 427.4 27.85 427.4 27.0 428.3 27.0 M426.25 27.0 L426.25 27.85 425.35 27.85 425.35 27.0 426.25 27.0 M426.25 30.55 L426.25 31.45 425.35 31.45 425.35 30.55 426.25 30.55 M428.3 30.55 L428.3 31.45 427.4 31.45 427.4 30.55 428.3 30.55 M429.95 35.4 L420.0 35.4 420.0 34.95 429.95 34.95 429.95 35.4 M429.45 30.55 L430.35 30.55 430.35 31.45 429.45 31.45 429.45 30.55 M424.2 30.55 L424.2 31.45 423.3 31.45 423.3 30.55 424.2 30.55 M422.05 24.75 L422.05 31.45 421.25 31.45 421.25 24.75 422.05 24.75 M423.3 27.0 L424.2 27.0 424.2 27.85 423.3 27.85 423.3 27.0 M417.15 30.1 L418.45 31.75 417.9 32.5 416.65 30.8 417.15 30.1 M414.95 29.35 L412.4 29.35 412.4 28.6 414.95 28.6 414.95 29.35 M417.3 36.75 L417.3 43.45 416.5 43.45 416.5 36.75 417.3 36.75 M414.7 46.95 L424.65 46.95 424.65 47.4 414.7 47.4 414.7 46.95 M418.55 42.55 L419.45 42.55 419.45 43.45 418.55 43.45 418.55 42.55 M426.25 47.0 L426.25 56.9 425.5 56.9 425.5 47.0 426.25 47.0 M427.05 46.95 L437.0 46.95 437.0 47.4 427.05 47.4 427.05 46.95 M415.2 43.45 L414.4 43.45 414.4 36.75 415.2 36.75 415.2 43.45 M441.25 35.0 L441.25 44.9 440.5 44.9 440.5 35.0 441.25 35.0 M438.6 47.0 L438.6 56.9 437.85 56.9 437.85 47.0 438.6 47.0 M448.4 39.1 L448.4 40.8 446.75 40.8 446.75 39.1 448.4 39.1 M414.05 3.0 L414.05 3.85 413.15 3.85 413.15 3.0 414.05 3.0 M409.95 3.85 L409.05 3.85 409.05 3.0 409.95 3.0 409.95 3.85 M412.0 3.0 L412.0 3.85 411.1 3.85 411.1 3.0 412.0 3.0 M407.9 3.0 L407.9 3.85 407.0 3.85 407.0 3.0 407.9 3.0 M405.85 3.0 L405.85 3.85 404.95 3.85 404.95 3.0 405.85 3.0 M409.05 6.55 L409.95 6.55 409.95 7.45 409.05 7.45 409.05 6.55 M407.0 7.45 L407.0 6.55 407.9 6.55 407.9 7.45 407.0 7.45 M404.95 8.5 L405.35 7.45 404.95 7.45 404.95 6.55 405.85 6.55 405.85 7.45 405.35 8.5 404.95 8.5 M412.0 7.45 L411.1 7.45 411.1 6.55 412.0 6.55 412.0 7.45 M414.05 7.45 L413.15 7.45 413.15 6.55 414.05 6.55 414.05 7.45 M410.55 11.6 L411.7 13.4 411.05 13.4 409.4 11.6 410.55 11.6 M403.8 3.0 L403.8 3.85 402.9 3.85 402.9 3.0 403.8 3.0 M401.75 3.0 L401.75 3.85 400.85 3.85 400.85 3.0 401.75 3.0 M399.7 3.85 L398.8 3.85 398.8 3.0 399.7 3.0 399.7 3.85 M395.6 3.0 L395.6 3.85 394.7 3.85 394.7 3.0 395.6 3.0 M397.65 3.0 L397.65 3.85 396.75 3.85 396.75 3.0 397.65 3.0 M398.8 6.55 L399.7 6.55 399.7 7.45 399.2 8.5 398.8 8.5 399.2 7.45 398.8 7.45 398.8 6.55 M397.65 7.45 L397.15 8.5 396.75 8.5 397.15 7.45 396.75 7.45 396.75 6.55 397.65 6.55 397.65 7.45 M395.6 6.55 L395.6 7.45 395.1 8.5 394.7 8.5 395.1 7.45 394.7 7.45 394.7 6.55 395.6 6.55 M403.8 6.55 L403.8 7.45 402.9 7.45 402.9 6.55 403.8 6.55 M400.85 6.55 L401.75 6.55 401.75 7.45 401.25 8.5 400.85 8.5 401.25 7.45 400.85 7.45 400.85 6.55 M393.55 3.0 L393.55 3.85 392.65 3.85 392.65 3.0 393.55 3.0 M391.5 3.0 L391.5 3.85 390.6 3.85 390.6 3.0 391.5 3.0 M389.45 3.85 L388.55 3.85 388.55 3.0 389.45 3.0 389.45 3.85 M385.35 3.0 L385.35 3.85 384.45 3.85 384.45 3.0 385.35 3.0 M387.4 3.0 L387.4 3.85 386.5 3.85 386.5 3.0 387.4 3.0 M387.4 7.45 L386.9 8.5 386.5 8.5 386.9 7.45 386.5 7.45 386.5 6.55 387.4 6.55 387.4 7.45 M388.55 6.55 L389.45 6.55 389.45 7.45 388.95 8.5 388.55 8.5 388.95 7.45 388.55 7.45 388.55 6.55 M384.45 8.5 L384.85 7.45 384.45 7.45 384.45 6.55 385.35 6.55 385.35 7.45 384.85 8.5 384.45 8.5 M393.05 8.5 L392.65 8.5 393.05 7.45 392.65 7.45 392.65 6.55 393.55 6.55 393.55 7.45 393.05 8.5 M390.6 8.5 L391.0 7.45 390.6 7.45 390.6 6.55 391.5 6.55 391.5 7.45 391.0 8.5 390.6 8.5 M383.3 3.0 L383.3 3.85 382.4 3.85 382.4 3.0 383.3 3.0 M381.25 3.0 L381.25 3.85 380.35 3.85 380.35 3.0 381.25 3.0 M379.2 3.85 L378.3 3.85 378.3 3.0 379.2 3.0 379.2 3.85 M375.1 3.0 L375.1 3.85 374.2 3.85 374.2 3.0 375.1 3.0 M376.25 3.85 L376.25 3.0 377.15 3.0 377.15 3.85 376.25 3.85 M378.3 6.55 L379.2 6.55 379.2 7.45 378.3 7.45 378.3 6.55 M377.15 7.45 L376.25 7.45 376.25 6.55 377.15 6.55 377.15 7.45 M374.2 7.45 L374.2 6.55 375.1 6.55 375.1 7.45 374.2 7.45 M375.75 11.4 L365.8 11.4 365.8 10.95 375.75 10.95 375.75 11.4 M378.05 11.6 L379.5 13.3 378.6 13.3 376.65 11.6 378.05 11.6 M382.4 8.5 L382.8 7.45 382.4 7.45 382.4 6.55 383.3 6.55 383.3 7.45 382.8 8.5 382.4 8.5 M381.25 6.55 L381.25 7.45 380.35 7.45 380.35 6.55 381.25 6.55 M381.8 13.3 L383.3 11.6 384.7 11.6 382.7 13.3 381.8 13.3 M383.1 23.0 L383.1 32.9 382.35 32.9 382.35 23.0 383.1 23.0 M380.75 23.0 L380.75 32.9 380.0 32.9 380.0 23.0 380.75 23.0 M378.4 23.0 L378.4 32.9 377.65 32.9 377.65 23.0 378.4 23.0 M376.05 23.0 L376.05 32.9 375.3 32.9 375.3 23.0 376.05 23.0 M385.45 23.0 L385.45 32.9 384.7 32.9 384.7 23.0 385.45 23.0 M391.95 27.0 L391.95 27.85 391.05 27.85 391.05 27.0 391.95 27.0 M391.95 30.55 L391.95 31.45 391.05 31.45 391.05 30.55 391.95 30.55 M387.7 24.75 L387.7 31.45 386.9 31.45 386.9 24.75 387.7 24.75 M388.35 35.0 L388.35 44.9 387.6 44.9 387.6 35.0 388.35 35.0 M386.0 35.0 L386.0 44.9 385.25 44.9 385.25 35.0 386.0 35.0 M391.2 36.15 L391.2 42.4 390.4 42.4 390.4 35.4 393.35 35.4 393.35 36.15 391.2 36.15 M389.0 24.75 L389.8 24.75 389.8 31.45 389.0 31.45 389.0 24.75 M376.6 35.0 L376.6 44.9 375.85 44.9 375.85 35.0 376.6 35.0 M378.95 35.0 L378.95 44.9 378.2 44.9 378.2 35.0 378.95 35.0 M381.3 35.0 L381.3 44.9 380.55 44.9 380.55 35.0 381.3 35.0 M383.65 35.0 L383.65 44.9 382.9 44.9 382.9 35.0 383.65 35.0 M374.95 47.0 L374.95 56.9 374.2 56.9 374.2 47.0 374.95 47.0 M377.3 47.0 L377.3 56.9 376.55 56.9 376.55 47.0 377.3 47.0 M382.0 47.0 L382.0 56.9 381.25 56.9 381.25 47.0 382.0 47.0 M379.65 47.0 L379.65 56.9 378.9 56.9 378.9 47.0 379.65 47.0 M386.7 47.0 L386.7 56.9 385.95 56.9 385.95 47.0 386.7 47.0 M388.95 48.8 L388.95 49.8 388.15 49.8 388.15 48.8 388.95 48.8 M389.6 46.95 L399.55 46.95 399.55 47.4 389.6 47.4 389.6 46.95 M384.35 47.0 L384.35 56.9 383.6 56.9 383.6 47.0 384.35 47.0 M374.25 44.9 L373.5 44.9 373.5 35.0 374.25 35.0 374.25 44.9 M409.95 29.35 L407.4 29.35 407.4 28.6 409.95 28.6 409.95 29.35 M405.95 28.3 L401.45 28.3 401.45 27.7 405.95 27.7 405.95 28.3 M410.05 36.75 L410.05 43.45 409.25 43.45 409.25 36.75 410.05 36.75 M400.65 30.55 L400.65 31.45 400.15 32.5 399.75 32.5 400.15 31.45 399.75 31.45 399.75 30.55 400.65 30.55 M396.4 35.95 L396.4 41.3 Q396.4 42.3 396.75 42.7 397.1 43.05 398.15 43.0 399.05 42.95 399.5 42.2 399.95 41.6 400.1 40.3 L400.95 40.7 Q400.45 43.9 397.85 43.9 396.6 43.95 396.1 43.3 395.65 42.75 395.6 41.3 L395.6 35.95 396.4 35.95 M402.85 36.8 L402.85 37.8 402.05 37.8 402.05 36.8 402.85 36.8 M402.85 39.05 L402.85 43.45 402.05 43.45 402.05 39.05 402.85 39.05 M402.25 48.1 Q402.65 48.15 402.3 48.4 L402.3 52.65 Q402.3 54.95 400.95 56.15 L400.25 55.55 Q401.4 54.55 401.4 52.6 L401.4 48.1 402.25 48.1 M408.05 42.55 L408.05 43.45 407.15 43.45 407.15 42.55 408.05 42.55 M405.25 48.85 L405.25 55.15 404.35 55.15 404.35 48.55 405.2 48.55 Q405.6 48.65 405.25 48.85 M408.2 48.3 L408.2 56.15 407.3 56.15 407.3 48.0 408.15 48.0 Q408.55 48.1 408.2 48.3 M411.15 48.7 Q411.55 48.75 411.2 48.95 L411.2 52.95 410.4 52.95 410.4 48.6 411.15 48.7 M413.8 48.3 Q414.2 48.4 413.85 48.55 L413.85 52.4 Q413.85 55.05 412.0 56.55 L411.45 55.75 Q413.1 54.55 413.1 52.25 L413.1 48.2 413.8 48.3 M388.15 51.05 L388.95 51.05 388.95 55.45 388.15 55.45 388.15 51.05 M386.3 59.0 L386.3 68.9 385.55 68.9 385.55 59.0 386.3 59.0 M388.65 59.0 L388.65 68.9 387.9 68.9 387.9 59.0 388.65 59.0 M391.0 59.0 L391.0 68.9 390.25 68.9 390.25 59.0 391.0 59.0 M379.25 59.0 L379.25 68.9 378.5 68.9 378.5 59.0 379.25 59.0 M376.9 59.0 L376.9 68.9 376.15 68.9 376.15 59.0 376.9 59.0 M381.6 59.0 L381.6 68.9 380.85 68.9 380.85 59.0 381.6 59.0 M383.95 59.0 L383.95 68.9 383.2 68.9 383.2 59.0 383.95 59.0 M377.95 71.0 L377.95 80.9 377.2 80.9 377.2 71.0 377.95 71.0 M380.3 71.0 L380.3 80.9 379.55 80.9 379.55 71.0 380.3 71.0 M382.65 71.0 L382.65 80.9 381.9 80.9 381.9 71.0 382.65 71.0 M375.6 71.0 L375.6 80.9 374.85 80.9 374.85 71.0 375.6 71.0 M385.0 71.0 L385.0 80.9 384.25 80.9 384.25 71.0 385.0 71.0 M387.35 71.0 L387.35 80.9 386.6 80.9 386.6 71.0 387.35 71.0 M389.7 71.0 L389.7 80.9 388.95 80.9 388.95 71.0 389.7 71.0 M374.55 68.9 L373.8 68.9 373.8 59.0 374.55 59.0 374.55 68.9 M388.75 83.0 L388.75 92.9 388.0 92.9 388.0 83.0 388.75 83.0 M391.1 83.0 L391.1 92.9 390.35 92.9 390.35 83.0 391.1 83.0 M386.4 83.0 L386.4 92.9 385.65 92.9 385.65 83.0 386.4 83.0 M379.35 83.0 L379.35 92.9 378.6 92.9 378.6 83.0 379.35 83.0 M377.0 83.0 L377.0 92.9 376.25 92.9 376.25 83.0 377.0 83.0 M381.7 83.0 L381.7 92.9 380.95 92.9 380.95 83.0 381.7 83.0 M384.05 83.0 L384.05 92.9 383.3 92.9 383.3 83.0 384.05 83.0 M377.6 95.0 L377.6 104.9 376.85 104.9 376.85 95.0 377.6 95.0 M379.95 95.0 L379.95 104.9 379.2 104.9 379.2 95.0 379.95 95.0 M382.3 95.0 L382.3 104.9 381.55 104.9 381.55 95.0 382.3 95.0 M375.25 95.0 L375.25 104.9 374.5 104.9 374.5 95.0 375.25 95.0 M387.0 95.0 L387.0 104.9 386.25 104.9 386.25 95.0 387.0 95.0 M389.35 95.0 L389.35 104.9 388.6 104.9 388.6 95.0 389.35 95.0 M384.65 95.0 L384.65 104.9 383.9 104.9 383.9 95.0 384.65 95.0 M374.65 92.9 L373.9 92.9 373.9 83.0 374.65 83.0 374.65 92.9 M438.95 68.9 L438.2 68.9 438.2 59.0 438.95 59.0 438.95 68.9 M437.35 68.9 L427.4 68.9 427.4 68.5 437.35 68.5 437.35 68.9 M426.6 68.9 L425.85 68.9 425.85 59.0 426.6 59.0 426.6 68.9 M385.35 107.0 L385.35 116.9 384.6 116.9 384.6 107.0 385.35 107.0 M387.6 108.75 L387.6 115.45 386.8 115.45 386.8 108.75 387.6 108.75 M376.45 107.0 L376.45 116.9 375.7 116.9 375.7 107.0 376.45 107.0 M378.7 108.75 L378.7 115.45 377.9 115.45 377.9 108.75 378.7 108.75 M380.9 107.0 L380.9 116.9 380.15 116.9 380.15 107.0 380.9 107.0 M383.15 108.75 L383.15 115.45 382.35 115.45 382.35 108.75 383.15 108.75 M377.3 119.0 L377.3 128.9 376.55 128.9 376.55 119.0 377.3 119.0 M375.1 120.75 L375.1 127.45 374.3 127.45 374.3 120.75 375.1 120.75 M384.0 120.75 L384.0 127.45 383.2 127.45 383.2 120.75 384.0 120.75 M381.75 119.0 L381.75 128.9 381.0 128.9 381.0 119.0 381.75 119.0 M379.55 120.75 L379.55 127.45 378.75 127.45 378.75 120.75 379.55 120.75 M386.1 120.75 L386.1 127.45 385.3 127.45 385.3 120.75 386.1 120.75 M374.25 115.45 L373.45 115.45 373.45 108.75 374.25 108.75 374.25 115.45 M378.2 131.0 L378.2 140.9 377.45 140.9 377.45 131.0 378.2 131.0 M376.0 132.75 L376.0 139.45 375.2 139.45 375.2 132.75 376.0 132.75 M382.65 131.0 L382.65 140.9 381.9 140.9 381.9 131.0 382.65 131.0 M380.45 132.75 L380.45 139.45 379.65 139.45 379.65 132.75 380.45 132.75 M379.95 144.75 L379.95 151.45 379.15 151.45 379.15 144.75 379.95 144.75 M377.85 144.75 L377.85 151.45 377.05 151.45 377.05 144.75 377.85 144.75 M375.6 143.0 L375.6 152.9 374.85 152.9 374.85 143.0 375.6 143.0 M384.9 132.75 L384.9 139.45 384.1 139.45 384.1 132.75 384.9 132.75 M373.05 3.0 L373.05 3.85 372.15 3.85 372.15 3.0 373.05 3.0 M371.0 3.0 L371.0 3.85 370.1 3.85 370.1 3.0 371.0 3.0 M368.95 3.85 L368.05 3.85 368.05 3.0 368.95 3.0 368.95 3.85 M364.85 3.0 L364.85 3.85 363.95 3.85 363.95 3.0 364.85 3.0 M366.0 3.85 L366.0 3.0 366.9 3.0 366.9 3.85 366.0 3.85 M368.05 6.55 L368.95 6.55 368.95 7.45 368.05 7.45 368.05 6.55 M366.9 7.45 L366.0 7.45 366.0 6.55 366.9 6.55 366.9 7.45 M364.85 6.55 L364.85 7.45 363.95 7.45 363.95 6.55 364.85 6.55 M365.75 11.4 L355.8 11.4 355.8 10.95 365.75 10.95 365.75 11.4 M373.05 7.45 L372.15 7.45 372.15 6.55 373.05 6.55 373.05 7.45 M370.1 7.45 L370.1 6.55 371.0 6.55 371.0 7.45 370.1 7.45 M362.8 3.0 L362.8 3.85 361.9 3.85 361.9 3.0 362.8 3.0 M360.75 3.0 L360.75 3.85 359.85 3.85 359.85 3.0 360.75 3.0 M358.7 3.0 L358.7 3.85 357.8 3.85 357.8 3.0 358.7 3.0 M354.6 3.85 L353.7 3.85 353.7 3.0 354.6 3.0 354.6 3.85 M355.75 3.85 L355.75 3.0 356.65 3.0 356.65 3.85 355.75 3.85 M357.8 6.55 L358.7 6.55 358.7 7.45 357.8 7.45 357.8 6.55 M356.65 7.45 L355.75 7.45 355.75 6.55 356.65 6.55 356.65 7.45 M354.6 7.45 L353.7 7.45 353.7 6.55 354.6 6.55 354.6 7.45 M355.75 11.4 L345.8 11.4 345.8 10.95 355.75 10.95 355.75 11.4 M362.8 7.45 L361.9 7.45 361.9 6.55 362.8 6.55 362.8 7.45 M359.85 7.45 L359.85 6.55 360.75 6.55 360.75 7.45 359.85 7.45 M373.7 23.0 L373.7 32.9 372.95 32.9 372.95 23.0 373.7 23.0 M371.35 23.0 L371.35 32.9 370.6 32.9 370.6 23.0 371.35 23.0 M369.0 23.0 L369.0 32.9 368.25 32.9 368.25 23.0 369.0 23.0 M366.65 23.0 L366.65 32.9 365.9 32.9 365.9 23.0 366.65 23.0 M364.3 23.0 L364.3 32.9 363.55 32.9 363.55 23.0 364.3 23.0 M352.55 3.0 L352.55 3.85 351.65 3.85 351.65 3.0 352.55 3.0 M350.5 3.0 L350.5 3.85 349.6 3.85 349.6 3.0 350.5 3.0 M348.45 3.0 L348.45 3.85 347.55 3.85 347.55 3.0 348.45 3.0 M344.35 3.85 L343.45 3.85 343.45 3.0 344.35 3.0 344.35 3.85 M345.5 3.85 L345.5 3.0 346.4 3.0 346.4 3.85 345.5 3.85 M347.55 6.55 L348.45 6.55 348.45 7.45 347.55 7.45 347.55 6.55 M346.4 7.45 L345.5 7.45 345.5 6.55 346.4 6.55 346.4 7.45 M344.35 7.45 L343.45 7.45 343.45 6.55 344.35 6.55 344.35 7.45 M352.55 7.45 L351.65 7.45 351.65 6.55 352.55 6.55 352.55 7.45 M349.6 7.45 L349.6 6.55 350.5 6.55 350.5 7.45 349.6 7.45 M342.3 3.0 L342.3 3.85 341.4 3.85 341.4 3.0 342.3 3.0 M340.25 3.0 L340.25 3.85 339.35 3.85 339.35 3.0 340.25 3.0 M338.2 3.0 L338.2 3.85 337.3 3.85 337.3 3.0 338.2 3.0 M335.25 3.85 L335.25 3.0 336.15 3.0 336.15 3.85 335.25 3.85 M334.1 3.85 L333.2 3.85 333.2 3.0 334.1 3.0 334.1 3.85 M337.3 7.45 L337.3 6.55 338.2 6.55 338.2 7.45 337.3 7.45 M336.15 7.45 L335.25 7.45 335.25 6.55 336.15 6.55 336.15 7.45 M334.1 7.45 L333.2 7.45 333.2 6.55 334.1 6.55 334.1 7.45 M342.3 6.55 L342.3 7.45 341.4 7.45 341.4 6.55 342.3 6.55 M340.25 7.45 L339.35 7.45 339.35 6.55 340.25 6.55 340.25 7.45 M340.25 15.0 L340.25 15.85 339.35 15.85 339.35 15.0 340.25 15.0 M340.25 18.55 L340.25 19.45 339.35 19.45 339.35 18.55 340.25 18.55 M338.2 15.0 L338.2 15.85 337.3 15.85 337.3 15.0 338.2 15.0 M338.2 18.55 L338.2 19.45 337.3 19.45 337.3 18.55 338.2 18.55 M334.1 15.85 L333.2 15.85 333.2 15.0 334.1 15.0 334.1 15.85 M336.15 18.55 L336.15 19.45 335.25 19.45 335.25 18.55 336.15 18.55 M336.15 15.85 L335.25 15.85 335.25 15.0 336.15 15.0 336.15 15.85 M340.3 23.0 L340.3 32.9 339.55 32.9 339.55 23.0 340.3 23.0 M341.05 19.65 L345.2 12.25 345.55 12.5 341.45 19.85 341.05 19.65 M334.1 19.45 L333.2 19.45 333.2 18.55 334.1 18.55 334.1 19.45 M353.1 35.0 L353.1 44.9 352.35 44.9 352.35 35.0 353.1 35.0 M338.2 27.0 L338.2 27.85 337.3 27.85 337.3 27.0 338.2 27.0 M338.2 30.55 L338.2 31.45 337.3 31.45 337.3 30.55 338.2 30.55 M334.1 27.85 L333.2 27.85 333.2 27.0 334.1 27.0 334.1 27.85 M336.15 30.55 L336.15 31.45 335.25 31.45 335.25 30.55 336.15 30.55 M336.15 27.85 L335.25 27.85 335.25 27.0 336.15 27.0 336.15 27.85 M337.45 35.0 L337.45 44.9 336.7 44.9 336.7 35.0 337.45 35.0 M335.85 35.4 L325.9 35.4 325.9 34.95 335.85 34.95 335.85 35.4 M334.1 31.45 L333.2 31.45 333.2 30.55 334.1 30.55 334.1 31.45 M335.8 47.0 L335.8 56.9 335.05 56.9 335.05 47.0 335.8 47.0 M334.2 47.4 L324.25 47.4 324.25 46.95 334.2 46.95 334.2 47.4 M351.45 47.0 L351.45 56.9 350.7 56.9 350.7 47.0 351.45 47.0 M367.2 35.0 L367.2 44.9 366.45 44.9 366.45 35.0 367.2 35.0 M364.85 35.0 L364.85 44.9 364.1 44.9 364.1 35.0 364.85 35.0 M371.9 35.0 L371.9 44.9 371.15 44.9 371.15 35.0 371.9 35.0 M369.55 35.0 L369.55 44.9 368.8 44.9 368.8 35.0 369.55 35.0 M362.1 24.75 L362.1 31.45 361.3 31.45 361.3 24.75 362.1 24.75 M360.0 24.75 L360.0 31.45 359.2 31.45 359.2 24.75 360.0 24.75 M357.9 27.05 L357.9 31.45 357.1 31.45 357.1 27.05 357.9 27.05 M357.1 25.8 L357.1 24.8 357.9 24.8 357.9 25.8 357.1 25.8 M355.9 27.0 L355.9 27.85 355.0 27.85 355.0 27.0 355.9 27.0 M355.9 30.55 L355.9 31.45 355.0 31.45 355.0 30.55 355.9 30.55 M357.8 35.0 L357.8 44.9 357.05 44.9 357.05 35.0 357.8 35.0 M355.45 35.0 L355.45 44.9 354.7 44.9 354.7 35.0 355.45 35.0 M362.5 35.0 L362.5 44.9 361.75 44.9 361.75 35.0 362.5 35.0 M360.15 35.0 L360.15 44.9 359.4 44.9 359.4 35.0 360.15 35.0 M356.15 47.0 L356.15 56.9 355.4 56.9 355.4 47.0 356.15 47.0 M358.5 47.0 L358.5 56.9 357.75 56.9 357.75 47.0 358.5 47.0 M360.85 47.0 L360.85 56.9 360.1 56.9 360.1 47.0 360.85 47.0 M363.2 47.0 L363.2 56.9 362.45 56.9 362.45 47.0 363.2 47.0 M365.55 47.0 L365.55 56.9 364.8 56.9 364.8 47.0 365.55 47.0 M367.9 47.0 L367.9 56.9 367.15 56.9 367.15 47.0 367.9 47.0 M370.25 47.0 L370.25 56.9 369.5 56.9 369.5 47.0 370.25 47.0 M372.6 47.0 L372.6 56.9 371.85 56.9 371.85 47.0 372.6 47.0 M353.8 47.0 L353.8 56.9 353.05 56.9 353.05 47.0 353.8 47.0 M332.05 3.0 L332.05 3.85 331.15 3.85 331.15 3.0 332.05 3.0 M330.0 3.0 L330.0 3.85 329.1 3.85 329.1 3.0 330.0 3.0 M327.95 3.0 L327.95 3.85 327.05 3.85 327.05 3.0 327.95 3.0 M325.9 3.0 L325.9 3.85 325.0 3.85 325.0 3.0 325.9 3.0 M323.85 3.85 L322.95 3.85 322.95 3.0 323.85 3.0 323.85 3.85 M327.05 7.45 L327.05 6.55 327.95 6.55 327.95 7.45 327.05 7.45 M325.9 7.45 L325.0 7.45 325.0 6.55 325.9 6.55 325.9 7.45 M323.85 7.45 L322.95 7.45 322.95 6.55 323.85 6.55 323.85 7.45 M331.15 7.45 L331.15 6.55 332.05 6.55 332.05 7.45 331.15 7.45 M329.1 7.45 L329.1 6.55 330.0 6.55 330.0 7.45 329.1 7.45 M321.8 3.0 L321.8 3.85 320.9 3.85 320.9 3.0 321.8 3.0 M319.75 3.0 L319.75 3.85 318.85 3.85 318.85 3.0 319.75 3.0 M317.45 11.0 L317.45 20.9 316.7 20.9 316.7 11.0 317.45 11.0 M321.8 6.55 L321.8 7.45 320.9 7.45 320.9 6.55 321.8 6.55 M318.85 7.45 L318.85 6.55 319.75 6.55 319.75 7.45 318.85 7.45 M321.8 15.0 L321.8 15.85 320.9 15.85 320.9 15.0 321.8 15.0 M319.75 15.0 L319.75 15.85 318.85 15.85 318.85 15.0 319.75 15.0 M319.75 18.55 L319.75 19.45 318.85 19.45 318.85 18.55 319.75 18.55 M321.8 18.55 L321.8 19.45 320.9 19.45 320.9 18.55 321.8 18.55 M322.95 15.0 L323.85 15.0 323.85 15.85 322.95 15.85 322.95 15.0 M317.45 23.0 L317.45 32.9 316.7 32.9 316.7 23.0 317.45 23.0 M322.95 18.55 L323.85 18.55 323.85 19.45 322.95 19.45 322.95 18.55 M332.05 15.0 L332.05 15.85 331.15 15.85 331.15 15.0 332.05 15.0 M330.0 15.0 L330.0 15.85 329.1 15.85 329.1 15.0 330.0 15.0 M330.0 18.55 L330.0 19.45 329.1 19.45 329.1 18.55 330.0 18.55 M332.05 18.55 L332.05 19.45 331.15 19.45 331.15 18.55 332.05 18.55 M327.95 15.0 L327.95 15.85 327.05 15.85 327.05 15.0 327.95 15.0 M325.9 15.0 L325.9 15.85 325.0 15.85 325.0 15.0 325.9 15.0 M325.9 18.55 L325.9 19.45 325.0 19.45 325.0 18.55 325.9 18.55 M327.95 18.55 L327.95 19.45 327.05 19.45 327.05 18.55 327.95 18.55 M308.45 23.0 L308.45 32.9 307.7 32.9 307.7 23.0 308.45 23.0 M307.7 20.9 L307.7 11.0 308.45 11.0 308.45 20.9 307.7 20.9 M308.45 47.0 L308.45 56.9 307.7 56.9 307.7 47.0 308.45 47.0 M309.25 46.95 L319.2 46.95 319.2 47.4 309.25 47.4 309.25 46.95 M307.7 44.9 L307.7 35.0 308.45 35.0 308.45 44.9 307.7 44.9 M332.05 27.0 L332.05 27.85 331.15 27.85 331.15 27.0 332.05 27.0 M330.0 27.0 L330.0 27.85 329.1 27.85 329.1 27.0 330.0 27.0 M330.0 30.55 L330.0 31.45 329.1 31.45 329.1 30.55 330.0 30.55 M332.05 30.55 L332.05 31.45 331.15 31.45 331.15 30.55 332.05 30.55 M327.95 27.0 L327.95 27.85 327.05 27.85 327.05 27.0 327.95 27.0 M325.9 27.0 L325.9 27.85 325.0 27.85 325.0 27.0 325.9 27.0 M325.9 30.55 L325.9 31.45 325.0 31.45 325.0 30.55 325.9 30.55 M327.95 30.55 L327.95 31.45 327.05 31.45 327.05 30.55 327.95 30.55 M323.85 27.85 L322.95 27.85 322.95 27.0 323.85 27.0 323.85 27.85 M325.85 35.4 L315.9 35.4 315.9 34.95 325.85 34.95 325.85 35.4 M323.85 31.45 L322.95 31.45 322.95 30.55 323.85 30.55 323.85 31.45 M321.8 27.0 L321.8 27.85 320.9 27.85 320.9 27.0 321.8 27.0 M319.75 27.0 L319.75 27.85 318.85 27.85 318.85 27.0 319.75 27.0 M319.75 30.55 L319.75 31.45 318.85 31.45 318.85 30.55 319.75 30.55 M321.8 30.55 L321.8 31.45 320.9 31.45 320.9 30.55 321.8 30.55 M323.45 48.15 L321.3 48.15 321.3 54.4 320.5 54.4 320.5 47.4 323.45 47.4 323.45 48.15 M332.55 61.05 Q331.75 65.45 329.3 67.65 L328.7 66.8 Q330.95 64.95 331.75 60.4 L332.55 60.8 Q332.8 60.95 332.55 61.05 M320.8 59.0 L320.8 68.9 320.05 68.9 320.05 59.0 320.8 59.0 M319.2 68.9 L309.25 68.9 309.25 68.5 319.2 68.5 319.2 68.9 M324.95 72.5 L320.85 79.85 320.45 79.65 324.6 72.25 324.95 72.5 M308.45 59.0 L308.45 68.9 307.7 68.9 307.7 59.0 308.45 59.0 M321.35 84.5 L317.25 91.85 316.85 91.65 321.0 84.25 321.35 84.5 M318.3 96.5 L314.2 103.85 313.8 103.65 317.95 96.25 318.3 96.5 M318.55 94.95 L328.5 94.95 328.5 95.4 318.55 95.4 318.55 94.95 M333.3 96.5 L329.2 103.85 328.8 103.65 332.95 96.25 333.3 96.5 M365.15 59.0 L365.15 68.9 364.4 68.9 364.4 59.0 365.15 59.0 M367.5 59.0 L367.5 68.9 366.75 68.9 366.75 59.0 367.5 59.0 M369.85 59.0 L369.85 68.9 369.1 68.9 369.1 59.0 369.85 59.0 M372.2 59.0 L372.2 68.9 371.45 68.9 371.45 59.0 372.2 59.0 M358.1 59.0 L358.1 68.9 357.35 68.9 357.35 59.0 358.1 59.0 M355.75 59.0 L355.75 68.9 355.0 68.9 355.0 59.0 355.75 59.0 M362.8 59.0 L362.8 68.9 362.05 68.9 362.05 59.0 362.8 59.0 M360.45 59.0 L360.45 68.9 359.7 68.9 359.7 59.0 360.45 59.0 M356.8 71.0 L356.8 80.9 356.05 80.9 356.05 71.0 356.8 71.0 M361.5 71.0 L361.5 80.9 360.75 80.9 360.75 71.0 361.5 71.0 M363.85 71.0 L363.85 80.9 363.1 80.9 363.1 71.0 363.85 71.0 M359.15 71.0 L359.15 80.9 358.4 80.9 358.4 71.0 359.15 71.0 M373.25 71.0 L373.25 80.9 372.5 80.9 372.5 71.0 373.25 71.0 M370.9 71.0 L370.9 80.9 370.15 80.9 370.15 71.0 370.9 71.0 M368.55 71.0 L368.55 80.9 367.8 80.9 367.8 71.0 368.55 71.0 M366.2 71.0 L366.2 80.9 365.45 80.9 365.45 71.0 366.2 71.0 M351.05 59.0 L351.05 68.9 350.3 68.9 350.3 59.0 351.05 59.0 M353.4 59.0 L353.4 68.9 352.65 68.9 352.65 59.0 353.4 59.0 M352.1 71.0 L352.1 80.9 351.35 80.9 351.35 71.0 352.1 71.0 M349.75 71.0 L349.75 80.9 349.0 80.9 349.0 71.0 349.75 71.0 M349.35 84.5 L345.25 91.85 344.85 91.65 349.0 84.25 349.35 84.5 M351.15 83.0 L351.15 92.9 350.4 92.9 350.4 83.0 351.15 83.0 M353.5 83.0 L353.5 92.9 352.75 92.9 352.75 83.0 353.5 83.0 M333.55 94.95 L343.5 94.95 343.5 95.4 333.55 95.4 333.55 94.95 M351.75 95.0 L351.75 104.9 351.0 104.9 351.0 95.0 351.75 95.0 M365.25 83.0 L365.25 92.9 364.5 92.9 364.5 83.0 365.25 83.0 M367.6 83.0 L367.6 92.9 366.85 92.9 366.85 83.0 367.6 83.0 M369.95 83.0 L369.95 92.9 369.2 92.9 369.2 83.0 369.95 83.0 M372.3 83.0 L372.3 92.9 371.55 92.9 371.55 83.0 372.3 83.0 M358.2 83.0 L358.2 92.9 357.45 92.9 357.45 83.0 358.2 83.0 M355.85 83.0 L355.85 92.9 355.1 92.9 355.1 83.0 355.85 83.0 M362.9 83.0 L362.9 92.9 362.15 92.9 362.15 83.0 362.9 83.0 M360.55 83.0 L360.55 92.9 359.8 92.9 359.8 83.0 360.55 83.0 M356.45 95.0 L356.45 104.9 355.7 104.9 355.7 95.0 356.45 95.0 M358.8 95.0 L358.8 104.9 358.05 104.9 358.05 95.0 358.8 95.0 M361.15 95.0 L361.15 104.9 360.4 104.9 360.4 95.0 361.15 95.0 M363.5 95.0 L363.5 104.9 362.75 104.9 362.75 95.0 363.5 95.0 M365.85 95.0 L365.85 104.9 365.1 104.9 365.1 95.0 365.85 95.0 M368.2 95.0 L368.2 104.9 367.45 104.9 367.45 95.0 368.2 95.0 M370.55 95.0 L370.55 104.9 369.8 104.9 369.8 95.0 370.55 95.0 M372.9 95.0 L372.9 104.9 372.15 104.9 372.15 95.0 372.9 95.0 M353.7 80.9 L353.7 71.0 354.45 71.0 354.45 80.9 353.7 80.9 M354.1 95.0 L354.1 104.9 353.35 104.9 353.35 95.0 354.1 95.0 M365.35 108.75 L365.35 115.45 364.55 115.45 364.55 108.75 365.35 108.75 M367.55 107.0 L367.55 116.9 366.8 116.9 366.8 107.0 367.55 107.0 M369.8 108.75 L369.8 115.45 369.0 115.45 369.0 108.75 369.8 108.75 M372.0 107.0 L372.0 116.9 371.25 116.9 371.25 107.0 372.0 107.0 M358.65 107.0 L358.65 116.9 357.9 116.9 357.9 107.0 358.65 107.0 M356.45 108.75 L356.45 115.45 355.65 115.45 355.65 108.75 356.45 108.75 M363.1 107.0 L363.1 116.9 362.35 116.9 362.35 107.0 363.1 107.0 M360.9 108.75 L360.9 115.45 360.1 115.45 360.1 108.75 360.9 108.75 M357.3 120.75 L357.3 127.45 356.5 127.45 356.5 120.75 357.3 120.75 M355.05 119.0 L355.05 128.9 354.3 128.9 354.3 119.0 355.05 119.0 M361.75 120.75 L361.75 127.45 360.95 127.45 360.95 120.75 361.75 120.75 M359.5 119.0 L359.5 128.9 358.75 128.9 358.75 119.0 359.5 119.0 M372.85 119.0 L372.85 128.9 372.1 128.9 372.1 119.0 372.85 119.0 M370.65 120.75 L370.65 127.45 369.85 127.45 369.85 120.75 370.65 120.75 M368.4 119.0 L368.4 128.9 367.65 128.9 367.65 119.0 368.4 119.0 M366.2 120.75 L366.2 127.45 365.4 127.45 365.4 120.75 366.2 120.75 M354.2 116.9 L353.45 116.9 353.45 107.0 354.2 107.0 354.2 116.9 M363.95 119.0 L363.95 128.9 363.2 128.9 363.2 119.0 363.95 119.0 M367.1 132.75 L367.1 139.45 366.3 139.45 366.3 132.75 367.1 132.75 M364.85 131.0 L364.85 140.9 364.1 140.9 364.1 131.0 364.85 131.0 M373.75 131.0 L373.75 140.9 373.0 140.9 373.0 131.0 373.75 131.0 M371.55 132.75 L371.55 139.45 370.75 139.45 370.75 132.75 371.55 132.75 M369.3 131.0 L369.3 140.9 368.55 140.9 368.55 131.0 369.3 131.0 M358.2 132.75 L358.2 139.45 357.4 139.45 357.4 132.75 358.2 132.75 M362.65 132.75 L362.65 139.45 361.85 139.45 361.85 132.75 362.65 132.75 M360.4 131.0 L360.4 140.9 359.65 140.9 359.65 131.0 360.4 131.0 M359.65 143.0 L359.65 152.9 358.9 152.9 358.9 143.0 359.65 143.0 M362.0 143.0 L362.0 152.9 361.25 152.9 361.25 143.0 362.0 143.0 M366.45 143.0 L366.45 152.9 365.7 152.9 365.7 143.0 366.45 143.0 M368.8 143.0 L368.8 152.9 368.05 152.9 368.05 143.0 368.8 143.0 M371.05 144.75 L371.05 151.45 370.25 151.45 370.25 144.75 371.05 144.75 M373.25 143.0 L373.25 152.9 372.5 152.9 372.5 143.0 373.25 143.0 M364.25 144.75 L364.25 151.45 363.45 151.45 363.45 144.75 364.25 144.75 M324.9 115.65 L329.05 108.25 329.4 108.5 325.3 115.85 324.9 115.65 M326.35 120.7 L317.85 127.8 317.4 127.3 325.9 120.2 326.35 120.7 M314.7 108.5 L310.6 115.85 310.2 115.65 314.35 108.25 314.7 108.5 M309.7 120.7 L301.2 127.8 300.75 127.3 309.25 120.2 309.7 120.7 M309.7 136.05 L311.1 137.55 310.45 138.45 309.05 136.75 307.85 135.05 307.75 135.0 307.6 135.1 306.25 137.45 305.5 136.5 307.4 133.75 307.7 133.45 308.0 133.65 309.7 136.05 M298.35 132.5 L294.25 139.85 293.85 139.65 298.0 132.25 298.35 132.5 M301.2 144.4 L301.2 148.65 Q301.2 150.95 299.85 152.15 L299.15 151.55 Q300.3 150.55 300.3 148.6 L300.3 144.1 301.15 144.1 Q301.55 144.15 301.2 144.4 M297.9 144.8 Q298.15 144.95 297.9 145.05 297.1 149.45 294.65 151.65 L294.05 150.8 Q296.3 148.95 297.1 144.4 L297.9 144.8 M312.7 136.85 Q312.7 138.0 313.1 138.4 L314.0 138.7 314.9 138.4 Q315.25 138.05 315.25 137.5 L315.25 132.75 316.15 132.75 316.15 137.55 Q316.15 138.45 315.6 139.0 315.05 139.5 314.0 139.5 312.95 139.5 312.45 139.0 311.8 138.35 311.8 136.85 L312.7 136.85 M307.05 144.0 Q307.45 144.1 307.1 144.3 L307.1 152.15 306.2 152.15 306.2 144.0 307.05 144.0 M304.15 144.85 L304.15 151.15 303.25 151.15 303.25 144.55 304.1 144.55 Q304.5 144.65 304.15 144.85" fill="#666666" fill-rule="evenodd" stroke="none"/>
    </g>
  </defs>
</svg>
