<?xml version="1.0" encoding="UTF-8" standalone="no"?>
<svg xmlns:ffdec="https://www.free-decompiler.com/flash" xmlns:xlink="http://www.w3.org/1999/xlink" ffdec:objectType="frame" height="280.0px" width="720.0px" xmlns="http://www.w3.org/2000/svg">
  <g transform="matrix(1.0, 0.0, 0.0, 1.0, 0.0, 0.0)">
    <use ffdec:characterId="1" height="131.1" transform="matrix(1.0, 0.0, 0.0, 1.0, 565.3, 43.35)" width="145.2" xlink:href="#shape0"/>
  </g>
  <defs>
    <g id="shape0" transform="matrix(1.0, 0.0, 0.0, 1.0, -565.3, -43.35)">
      <path d="M687.35 66.95 L676.25 66.95 676.25 66.5 687.35 66.5 687.35 66.95 M698.55 66.95 L687.4 66.95 687.4 66.5 698.55 66.5 698.55 66.95 M698.6 66.5 L709.75 66.5 709.75 66.95 698.6 66.95 698.6 66.5 M676.15 66.95 L665.05 66.95 665.05 66.5 676.15 66.5 676.15 66.95 M678.95 85.4 L675.8 85.4 674.95 88.15 Q675.95 87.35 677.2 87.25 678.55 87.25 679.25 87.95 679.9 88.55 679.85 89.55 679.85 90.95 678.7 91.7 677.55 92.4 675.8 92.4 L675.5 91.45 Q677.35 91.45 678.25 90.85 678.95 90.35 678.95 89.55 678.95 88.95 678.6 88.55 678.05 88.05 677.35 88.05 676.25 88.05 675.45 88.6 L674.2 89.8 673.45 89.15 Q674.55 87.1 674.9 85.4 L672.75 85.4 672.75 84.6 675.0 84.6 675.15 82.8 676.15 82.95 675.95 84.6 678.95 84.6 678.95 85.4 M684.8 85.1 L685.7 86.45 686.2 86.4 687.25 86.7 Q688.0 87.2 688.0 88.35 688.0 89.4 687.4 89.9 L686.3 90.25 Q685.6 90.2 684.75 89.6 L685.05 89.0 Q685.7 89.55 686.3 89.55 687.15 89.55 687.25 88.55 687.35 87.1 686.15 87.1 L685.95 87.1 686.3 88.15 685.65 88.4 685.2 87.2 Q684.55 87.35 683.6 87.85 L684.7 92.25 683.95 92.6 683.0 88.1 681.65 88.8 681.25 88.0 682.8 87.4 682.25 85.3 682.95 85.15 683.45 87.1 Q684.25 86.75 684.9 86.6 L684.2 85.4 684.8 85.1 M668.0 85.5 L666.0 85.5 Q665.4 88.65 664.15 91.4 L663.3 90.9 Q664.45 88.6 665.1 85.5 L663.4 85.5 663.4 84.55 665.25 84.55 665.55 82.8 666.45 82.95 666.2 84.55 668.0 84.55 668.0 85.5 M671.3 85.75 L670.95 86.65 Q669.6 86.0 668.3 85.75 L668.55 84.85 Q669.95 85.15 671.3 85.75 M669.05 87.0 L669.95 87.0 669.95 89.8 671.35 90.65 670.8 91.45 669.9 90.8 Q669.8 91.75 669.15 92.2 L667.7 92.6 Q666.75 92.55 666.2 92.15 665.65 91.75 665.65 90.85 665.65 90.0 666.25 89.5 666.75 89.1 667.6 89.1 L669.05 89.35 669.05 87.0 M668.75 91.35 L669.05 90.35 Q668.45 89.95 667.7 89.95 666.5 89.95 666.55 90.85 666.5 91.75 667.75 91.75 668.3 91.75 668.75 91.35 M695.1 86.6 Q692.15 87.15 690.85 88.15 689.95 88.95 689.9 89.75 689.8 91.35 692.0 91.35 L694.8 91.35 694.8 92.3 692.0 92.3 Q689.05 92.3 688.95 90.0 688.85 88.2 690.7 87.1 689.75 85.85 689.75 83.3 L690.85 83.3 691.0 85.35 Q691.15 86.15 691.55 86.65 L694.8 85.6 695.1 86.6 M709.85 69.3 L709.85 80.4 709.05 80.4 709.05 69.3 709.85 69.3 M709.35 82.75 L710.2 82.75 710.2 93.8 709.35 93.8 709.35 82.75 M710.5 96.15 L710.5 107.25 709.65 107.25 709.65 96.15 710.5 96.15 M595.6 46.9 L596.65 46.9 596.65 47.85 595.6 47.85 595.6 46.9 M600.4 44.45 L598.35 46.0 597.95 45.75 Q598.75 44.7 600.0 44.05 601.35 43.3 602.85 43.35 604.4 43.3 605.7 44.05 L607.75 45.75 607.25 46.0 605.15 44.45 Q604.05 43.85 602.85 43.9 601.55 43.85 600.4 44.45 M609.15 45.75 Q609.95 44.7 611.2 44.05 612.55 43.3 614.05 43.35 615.6 43.3 616.9 44.05 L618.95 45.75 618.45 46.0 616.35 44.45 Q615.25 43.85 614.05 43.9 612.75 43.85 611.55 44.45 610.65 44.9 609.55 46.0 L609.15 45.75 M621.25 46.95 L621.25 51.9 620.35 51.9 620.35 46.95 621.25 46.95 M621.25 45.55 L620.35 45.55 620.35 44.45 621.25 44.45 621.25 45.55 M622.65 50.9 L623.65 50.9 623.65 51.9 622.65 51.9 622.65 50.9 M618.1 60.35 L619.15 60.35 619.15 61.3 618.1 61.3 618.1 60.35 M616.85 61.3 L615.85 61.3 615.85 60.35 616.85 60.35 616.85 61.3 M621.4 60.35 L621.4 61.3 620.4 61.3 620.4 60.35 621.4 60.35 M625.1 56.75 Q627.3 58.8 627.3 61.5 627.3 64.25 625.1 66.35 L624.6 65.85 Q626.6 63.9 626.65 61.5 626.6 59.15 624.6 57.25 L625.1 56.75 M622.7 60.35 L623.7 60.35 623.7 61.3 622.7 61.3 622.7 60.35 M614.55 60.35 L614.55 61.3 613.55 61.3 613.55 60.35 614.55 60.35 M614.0 66.5 L613.55 66.5 614.0 65.35 613.55 65.35 613.55 64.3 614.55 64.3 614.55 65.35 614.0 66.5 M616.25 65.35 L615.85 65.35 615.85 64.3 616.85 64.3 616.85 65.35 616.25 66.5 615.85 66.5 616.25 65.35 M623.15 65.35 L622.7 65.35 622.7 64.3 623.7 64.3 623.7 65.35 623.15 66.5 622.7 66.5 623.15 65.35 M621.4 64.3 L621.4 65.35 620.85 66.5 620.4 66.5 620.85 65.35 620.4 65.35 620.4 64.3 621.4 64.3 M618.1 65.35 L618.1 64.3 619.15 64.3 619.15 65.35 618.55 66.5 618.1 66.5 618.55 65.35 618.1 65.35 M626.4 73.8 L626.4 74.75 625.4 74.75 625.4 73.8 626.4 73.8 M624.1 73.8 L624.1 74.75 623.1 74.75 623.1 73.8 624.1 73.8 M621.8 73.8 L621.8 74.75 620.8 74.75 620.8 73.8 621.8 73.8 M596.65 51.9 L596.05 53.05 595.6 53.05 596.05 51.9 595.6 51.9 595.6 50.9 596.65 50.9 596.65 51.9 M594.35 51.9 L593.75 53.05 593.3 53.05 593.75 51.9 593.3 51.9 593.3 50.9 594.35 50.9 594.35 51.9 M590.2 57.25 Q588.15 59.15 588.15 61.5 588.15 63.9 590.2 65.85 L589.7 66.35 Q587.5 64.25 587.5 61.5 587.5 58.8 589.7 56.75 L590.2 57.25 M589.45 70.7 Q587.45 72.6 587.45 74.95 587.45 77.35 589.45 79.25 L588.95 79.75 Q586.75 77.7 586.75 74.95 586.75 72.25 588.95 70.2 L589.45 70.7 M591.8 84.1 L601.35 92.05 600.8 92.6 591.3 84.65 591.8 84.1 M589.85 97.9 L590.2 97.5 599.7 105.45 599.2 106.0 589.85 98.2 589.85 97.9 M602.05 96.15 L602.05 107.25 601.2 107.25 601.2 96.15 602.05 96.15 M623.1 77.75 L624.1 77.75 624.1 78.75 623.55 79.95 623.1 79.95 623.55 78.75 623.1 78.75 623.1 77.75 M621.8 78.75 L620.8 78.75 620.8 77.75 621.8 77.75 621.8 78.75 M625.4 79.95 L625.85 78.75 625.4 78.75 625.4 77.75 626.4 77.75 626.4 78.75 625.85 79.95 625.4 79.95 M616.65 79.95 L616.2 79.95 616.65 78.75 616.2 78.75 616.2 77.75 617.25 77.75 617.25 78.75 616.65 79.95 M618.5 77.75 L619.5 77.75 619.5 78.75 618.95 79.95 618.5 79.95 618.95 78.75 618.5 78.75 618.5 77.75 M618.75 82.75 L618.75 93.8 617.9 93.8 617.9 82.75 618.75 82.75 M607.1 82.75 L607.1 93.8 606.25 93.8 606.25 82.75 607.1 82.75 M613.3 84.4 L608.7 92.65 608.25 92.4 612.9 84.15 613.3 84.4 M611.7 97.85 L607.1 106.1 606.65 105.85 611.3 97.55 611.7 97.85 M622.6 88.15 L622.6 87.2 623.6 87.2 623.6 88.15 622.6 88.15 M623.6 92.2 L623.05 93.35 622.6 93.35 623.05 92.2 622.6 92.2 622.6 91.2 623.6 91.2 623.6 92.2 M624.8 91.9 Q629.15 89.45 629.35 84.1 L630.45 84.4 Q630.25 87.15 628.95 89.35 627.65 91.5 625.5 92.8 L624.8 91.9 M621.3 92.2 L620.75 93.35 620.3 93.35 620.75 92.2 620.3 92.2 620.3 91.2 621.3 91.2 621.3 92.2 M653.8 66.95 L642.65 66.95 642.65 66.5 653.8 66.5 653.8 66.95 M664.95 66.5 L664.95 66.95 653.85 66.95 653.85 66.5 664.95 66.5 M640.75 69.3 L640.75 80.4 639.9 80.4 639.9 69.3 640.75 69.3 M628.7 73.8 L628.7 74.75 627.7 74.75 627.7 73.8 628.7 73.8 M630.1 70.2 Q632.3 72.25 632.3 74.95 632.3 77.7 630.1 79.75 L629.6 79.25 Q631.6 77.35 631.6 74.95 631.6 72.6 629.6 70.7 L630.1 70.2 M640.8 82.75 L640.8 93.8 639.95 93.8 639.95 82.75 640.8 82.75 M627.7 79.95 L628.15 78.75 627.7 78.75 627.7 77.75 628.7 77.75 628.7 78.75 628.15 79.95 627.7 79.95 M628.5 98.2 L628.5 99.3 627.6 99.3 627.6 98.2 628.5 98.2 M640.7 96.15 L640.7 107.25 639.85 107.25 639.85 96.15 640.7 96.15 M659.5 85.95 L657.55 85.95 657.3 87.55 659.75 87.55 659.75 88.4 657.25 88.4 657.15 90.05 Q657.15 91.55 658.55 91.65 660.6 91.75 660.65 90.3 L660.45 88.6 661.3 88.15 Q661.65 89.15 661.65 90.05 661.65 91.3 660.95 91.95 660.25 92.55 659.0 92.6 657.7 92.65 656.95 91.9 656.3 91.2 656.3 90.15 L656.4 88.4 654.9 88.4 654.9 87.55 656.45 87.55 656.7 85.95 655.1 85.95 655.1 85.1 656.75 85.1 657.05 82.95 658.0 82.95 657.7 85.1 659.5 85.1 659.5 85.95 M663.95 106.8 L675.1 106.8 675.1 107.25 663.95 107.25 663.95 106.8 M666.35 110.5 Q667.95 110.5 669.25 111.25 L671.3 112.9 670.8 113.2 Q669.5 112.05 668.65 111.6 667.6 111.05 666.35 111.05 665.05 111.05 663.9 111.6 L661.9 113.2 661.5 112.9 Q662.3 111.9 663.5 111.25 664.9 110.5 666.35 110.5 M663.9 107.25 L652.75 107.25 652.75 106.8 663.9 106.8 663.9 107.25 M652.7 107.25 L641.6 107.25 641.6 106.8 652.7 106.8 652.7 107.25 M648.15 118.05 L648.15 119.05 647.1 119.05 647.1 118.05 648.15 118.05 M656.85 118.05 L657.85 118.05 657.85 119.05 657.3 120.25 656.85 120.25 657.3 119.05 656.85 119.05 656.85 118.05 M660.15 115.05 L659.15 115.05 659.15 114.1 660.15 114.1 660.15 115.05 M660.15 119.05 L659.6 120.25 659.15 120.25 659.6 119.05 659.15 119.05 659.15 118.05 660.15 118.05 660.15 119.05 M629.9 101.6 L629.9 100.65 630.9 100.65 630.9 101.6 629.9 101.6 M630.9 104.6 L630.9 105.65 630.3 106.8 629.9 106.8 630.3 105.65 629.9 105.65 629.9 104.6 630.9 104.6 M628.5 100.7 L628.5 105.65 627.6 105.65 627.6 100.7 628.5 100.7 M635.1 120.25 L635.55 119.05 635.1 119.05 635.1 118.05 636.1 118.05 636.1 119.05 635.55 120.25 635.1 120.25 M637.4 120.25 L637.85 119.05 637.4 119.05 637.4 118.05 638.4 118.05 638.4 119.05 637.85 120.25 637.4 120.25 M629.3 137.15 L627.1 139.05 626.05 139.05 627.75 137.15 629.3 137.15 M632.55 139.6 Q636.1 141.85 637.7 144.15 L636.65 145.05 Q634.95 142.6 631.65 140.45 L632.55 139.6 M657.05 132.5 L656.45 133.7 656.0 133.7 656.45 132.5 656.0 132.5 656.0 131.5 657.05 131.5 657.05 132.5 M652.3 126.2 L651.45 126.2 651.45 125.05 652.3 125.05 652.3 126.2 M649.1 127.5 L650.1 127.5 650.1 128.45 649.1 128.45 649.1 127.5 M649.1 133.7 L649.55 132.5 649.1 132.5 649.1 131.5 650.1 131.5 650.1 132.5 649.55 133.7 649.1 133.7 M654.75 132.5 L654.15 133.7 653.7 133.7 654.15 132.5 653.7 132.5 653.7 131.5 654.75 131.5 654.75 132.5 M652.3 127.55 L652.3 132.5 651.45 132.5 651.45 127.55 652.3 127.55 M647.4 142.15 Q647.4 144.55 649.4 146.45 L648.9 146.95 Q646.7 144.85 646.75 142.15 646.7 139.45 648.9 137.35 L649.4 137.85 Q647.4 139.75 647.4 142.15 M651.45 144.95 L651.45 145.95 650.85 147.1 650.4 147.1 650.85 145.95 650.4 145.95 650.4 144.95 651.45 144.95 M653.15 147.1 L652.7 147.1 653.15 145.95 652.7 145.95 652.7 144.95 653.7 144.95 653.7 145.95 653.15 147.1 M609.4 109.6 L609.4 120.7 608.55 120.7 608.55 109.6 609.4 109.6 M608.55 123.05 L608.55 134.1 607.7 134.1 607.7 123.05 608.55 123.05 M626.35 114.1 L626.35 115.05 625.35 115.05 625.35 114.1 626.35 114.1 M623.05 111.6 L623.95 111.6 623.95 112.75 623.05 112.75 623.05 111.6 M623.95 114.15 L623.95 119.05 623.05 119.05 623.05 114.15 623.95 114.15 M620.7 118.05 L621.7 118.05 621.7 119.05 621.15 120.25 620.7 120.25 621.15 119.05 620.7 119.05 620.7 118.05 M619.4 119.05 L618.85 120.25 618.4 120.25 618.85 119.05 618.4 119.05 618.4 118.05 619.4 118.05 619.4 119.05 M626.35 119.05 L625.8 120.25 625.35 120.25 625.8 119.05 625.35 119.05 625.35 118.05 626.35 118.05 626.35 119.05 M599.3 109.6 L599.3 120.7 598.45 120.7 598.45 109.6 599.3 109.6 M595.95 118.05 L596.95 118.05 596.95 119.05 595.95 119.05 595.95 118.05 M598.45 123.05 L598.45 134.1 597.65 134.1 597.65 123.05 598.45 123.05 M587.65 133.7 L588.1 132.5 587.65 132.5 587.65 131.5 588.7 131.5 588.7 132.5 588.1 133.7 587.65 133.7 M598.7 145.95 L598.7 144.95 599.7 144.95 599.7 145.95 599.15 147.1 598.7 147.1 599.15 145.95 598.7 145.95 M601.0 144.95 L602.0 144.95 602.0 145.95 601.45 147.1 601.0 147.1 601.45 145.95 601.0 145.95 601.0 144.95 M618.0 131.5 L618.0 132.5 617.0 132.5 617.0 131.5 618.0 131.5 M615.7 127.5 L615.7 128.45 614.7 128.45 614.7 127.5 615.7 127.5 M610.55 132.5 L610.1 132.5 610.1 131.5 611.1 131.5 611.1 132.5 610.55 133.7 610.1 133.7 610.55 132.5 M615.7 132.5 L615.15 133.7 614.7 133.7 615.15 132.5 614.7 132.5 614.7 131.5 615.7 131.5 615.7 132.5 M613.4 132.5 L612.85 133.7 612.4 133.7 612.85 132.5 612.4 132.5 612.4 131.5 613.4 131.5 613.4 132.5 M608.65 159.35 L608.65 158.35 609.65 158.35 609.65 159.35 609.1 160.55 608.65 160.55 609.1 159.35 608.65 159.35 M610.95 158.35 L611.95 158.35 611.95 159.35 611.4 160.55 610.95 160.55 611.4 159.35 610.95 159.35 610.95 158.35 M607.35 171.9 Q605.65 169.5 602.4 167.3 L603.3 166.5 Q606.8 168.7 608.45 171.0 L607.35 171.9 M617.75 172.8 L617.75 171.8 618.75 171.8 618.75 172.8 617.75 172.8 M621.05 171.8 L621.05 172.8 620.0 172.8 620.0 171.8 621.05 171.8 M590.45 173.05 L589.7 174.0 587.5 172.0 588.1 171.2 Q589.5 172.0 590.45 173.05 M648.9 158.45 Q647.2 156.05 643.95 153.9 L644.8 153.05 Q648.35 155.25 649.95 157.6 L648.9 158.45 M649.3 171.8 L650.3 171.8 650.3 172.8 649.75 174.0 649.3 174.0 649.75 172.8 649.3 172.8 649.3 171.8 M652.95 166.5 Q656.45 168.7 658.1 171.0 L657.05 171.9 Q655.35 169.5 652.05 167.3 L652.95 166.5 M640.0 150.6 L641.6 150.6 639.35 152.5 638.35 152.5 640.0 150.6 M629.15 159.35 L628.15 159.35 628.15 158.35 629.15 158.35 629.15 159.35 M630.2 167.3 L631.1 166.5 Q634.65 168.7 636.25 171.0 L635.2 171.9 Q633.5 169.5 630.2 167.3 M639.85 166.5 L640.7 165.65 Q644.1 167.95 646.2 170.6 L645.25 171.45 Q642.35 168.2 639.85 166.5 M708.7 107.25 L697.55 107.25 697.55 106.8 708.7 106.8 708.7 107.25 M697.5 107.25 L686.35 107.25 686.35 106.8 697.5 106.8 697.5 107.25 M686.3 107.25 L675.15 107.25 675.15 106.8 686.3 106.8 686.3 107.25 M679.3 109.55 L679.3 120.7 678.45 120.7 678.45 109.55 679.3 109.55 M676.75 109.55 L676.75 120.7 675.9 120.7 675.9 109.55 676.75 109.55 M676.65 123.0 L676.65 134.1 675.85 134.1 675.85 123.0 676.65 123.0 M679.25 123.0 L679.25 134.1 678.4 134.1 678.4 123.0 679.25 123.0 M685.15 126.2 Q688.65 128.4 690.3 130.7 L689.2 131.6 Q687.5 129.2 684.25 127.0 L685.15 126.2 M673.15 147.55 L673.15 136.4 674.0 136.4 674.0 147.55 673.15 147.55 M676.55 147.55 L675.7 147.55 675.7 136.4 676.55 136.4 676.55 147.55 M686.1 137.25 L687.05 137.25 Q687.45 137.35 687.1 137.6 L687.1 141.7 Q687.1 145.25 683.55 146.75 L683.05 145.75 Q686.05 144.65 686.1 141.2 L686.1 137.25 M692.3 144.95 L693.3 144.95 693.3 145.95 692.3 145.95 692.3 144.95 M695.05 147.1 L694.6 147.1 695.05 145.95 694.6 145.95 694.6 144.95 695.6 144.95 695.6 145.95 695.05 147.1 M696.9 147.1 L697.35 145.95 696.9 145.95 696.9 144.95 697.9 144.95 697.9 145.95 697.35 147.1 696.9 147.1 M699.2 147.1 L699.65 145.95 699.2 145.95 699.2 144.95 700.2 144.95 700.2 145.95 699.65 147.1 699.2 147.1 M697.95 159.35 L697.95 158.35 698.95 158.35 698.95 159.35 697.95 159.35 M701.25 158.35 L701.25 159.35 700.7 160.55 700.25 160.55 700.7 159.35 700.25 159.35 700.25 158.35 701.25 158.35 M695.65 159.35 L695.65 158.35 696.65 158.35 696.65 159.35 695.65 159.35 M691.75 171.8 L692.75 171.8 692.75 172.8 692.2 174.0 691.75 174.0 692.2 172.8 691.75 172.8 691.75 171.8 M689.45 171.8 L690.45 171.8 690.45 172.8 689.9 174.0 689.45 174.0 689.9 172.8 689.45 172.8 689.45 171.8 M681.75 159.35 L681.3 159.35 681.3 158.35 682.35 158.35 682.35 159.35 681.75 160.55 681.3 160.55 681.75 159.35 M684.6 158.35 L684.6 159.35 684.05 160.55 683.6 160.55 684.05 159.35 683.6 159.35 683.6 158.35 684.6 158.35 M686.9 158.35 L686.9 159.35 686.35 160.55 685.9 160.55 686.35 159.35 685.9 159.35 685.9 158.35 686.9 158.35 M674.2 149.85 L674.2 161.0 673.35 161.0 673.35 149.85 674.2 149.85 M676.8 149.85 L676.8 161.0 675.95 161.0 675.95 149.85 676.8 149.85 M674.9 163.3 L674.9 174.45 674.05 174.45 674.05 163.3 674.9 163.3 M683.05 171.2 L685.4 173.05 684.6 174.0 682.45 172.0 683.05 171.2 M677.45 163.3 L677.45 174.45 676.6 174.45 676.6 163.3 677.45 163.3 M583.5 131.0 L583.85 131.0 583.65 131.15 583.5 131.0 M569.6 132.5 L569.6 131.5 570.6 131.5 570.6 132.5 570.05 133.7 569.6 133.7 570.05 132.5 569.6 132.5 M575.2 131.5 L575.2 132.5 574.65 133.7 574.2 133.7 574.65 132.5 574.2 132.5 574.2 131.5 575.2 131.5 M572.9 132.5 L572.35 133.7 571.9 133.7 572.35 132.5 571.9 132.5 571.9 131.5 572.9 131.5 572.9 132.5 M572.8 144.95 L572.8 145.95 571.75 145.95 571.75 144.95 572.8 144.95 M574.05 145.95 L574.05 144.95 575.05 144.95 575.05 145.95 574.05 145.95 M582.75 158.35 L582.75 159.35 582.2 160.55 581.75 160.55 582.2 159.35 581.75 159.35 581.75 158.35 582.75 158.35 M585.05 158.35 L585.05 159.35 584.5 160.55 584.05 160.55 584.5 159.35 584.05 159.35 584.05 158.35 585.05 158.35 M566.3 172.8 L565.75 174.0 565.3 174.0 565.75 172.8 565.3 172.8 565.3 171.8 566.3 171.8 566.3 172.8 M567.55 172.8 L567.55 171.8 568.6 171.8 568.6 172.8 568.0 174.0 567.55 174.0 568.0 172.8 567.55 172.8 M584.75 171.8 L585.75 171.8 585.75 172.8 584.75 172.8 584.75 171.8" fill="#000000" fill-rule="evenodd" stroke="none"/>
    </g>
  </defs>
</svg>
