<?xml version="1.0" encoding="UTF-8" standalone="no"?>
<svg xmlns:ffdec="https://www.free-decompiler.com/flash" xmlns:xlink="http://www.w3.org/1999/xlink" ffdec:objectType="frame" height="280.0px" width="720.0px" xmlns="http://www.w3.org/2000/svg">
  <g transform="matrix(1.0, 0.0, 0.0, 1.0, 0.0, 0.0)">
    <use ffdec:characterId="2" height="101.35" transform="matrix(1.0, 0.0, 0.0, 1.0, 250.1, 14.5)" width="222.4" xlink:href="#text0"/>
  </g>
  <defs>
    <g id="text0" transform="matrix(1.0, 0.0, 0.0, 1.0, -0.35, -0.25)">
      <g transform="matrix(1.0, 0.0, 0.0, 1.0, 0.0, 0.0)">
        <use fill="#000000" height="101.35" transform="matrix(0.1953, 0.0, 0.0, 0.1953, 26.6, 8.6)" width="222.4" xlink:href="#font_MS_UI_Gothic__1"/>
        <use fill="#000000" height="101.35" transform="matrix(0.1953, 0.0, 0.0, 0.1953, 29.65, 8.6)" width="222.4" xlink:href="#font_MS_UI_Gothic__2"/>
        <use fill="#000000" height="101.35" transform="matrix(0.1953, 0.0, 0.0, 0.1953, 31.95, 8.6)" width="222.4" xlink:href="#font_MS_UI_Gothic__3"/>
        <use fill="#000000" height="101.35" transform="matrix(0.1953, 0.0, 0.0, 0.1953, 41.95, 8.6)" width="222.4" xlink:href="#font_MS_UI_Gothic__2"/>
        <use fill="#000000" height="101.35" transform="matrix(0.1953, 0.0, 0.0, 0.1953, 44.25, 8.6)" width="222.4" xlink:href="#font_MS_UI_Gothic__4"/>
        <use fill="#000000" height="101.35" transform="matrix(0.1953, 0.0, 0.0, 0.1953, 53.95, 8.6)" width="222.4" xlink:href="#font_MS_UI_Gothic__1"/>
        <use fill="#000000" height="101.35" transform="matrix(0.1953, 0.0, 0.0, 0.1953, 57.0, 8.6)" width="222.4" xlink:href="#font_MS_UI_Gothic__2"/>
        <use fill="#000000" height="101.35" transform="matrix(0.1953, 0.0, 0.0, 0.1953, 59.3, 8.6)" width="222.4" xlink:href="#font_MS_UI_Gothic__3"/>
        <use fill="#000000" height="101.35" transform="matrix(0.1953, 0.0, 0.0, 0.1953, 69.3, 8.6)" width="222.4" xlink:href="#font_MS_UI_Gothic__2"/>
        <use fill="#000000" height="101.35" transform="matrix(0.1953, 0.0, 0.0, 0.1953, 71.6, 8.6)" width="222.4" xlink:href="#font_MS_UI_Gothic__4"/>
      </g>
      <g transform="matrix(1.0, 0.0, 0.0, 1.0, 0.0, 0.0)">
        <use fill="#000000" height="101.35" transform="matrix(0.1953, 0.0, 0.0, 0.1953, 19.95, 20.6)" width="222.4" xlink:href="#font_MS_UI_Gothic__1"/>
        <use fill="#000000" height="101.35" transform="matrix(0.1953, 0.0, 0.0, 0.1953, 23.0, 20.6)" width="222.4" xlink:href="#font_MS_UI_Gothic__2"/>
        <use fill="#000000" height="101.35" transform="matrix(0.1953, 0.0, 0.0, 0.1953, 25.3, 20.6)" width="222.4" xlink:href="#font_MS_UI_Gothic__3"/>
        <use fill="#000000" height="101.35" transform="matrix(0.1953, 0.0, 0.0, 0.1953, 35.3, 20.6)" width="222.4" xlink:href="#font_MS_UI_Gothic__2"/>
        <use fill="#000000" height="101.35" transform="matrix(0.1953, 0.0, 0.0, 0.1953, 37.6, 20.6)" width="222.4" xlink:href="#font_MS_UI_Gothic__4"/>
        <use fill="#000000" height="101.35" transform="matrix(0.1953, 0.0, 0.0, 0.1953, 53.95, 20.6)" width="222.4" xlink:href="#font_MS_UI_Gothic__1"/>
        <use fill="#000000" height="101.35" transform="matrix(0.1953, 0.0, 0.0, 0.1953, 57.0, 20.6)" width="222.4" xlink:href="#font_MS_UI_Gothic__2"/>
        <use fill="#000000" height="101.35" transform="matrix(0.1953, 0.0, 0.0, 0.1953, 59.3, 20.6)" width="222.4" xlink:href="#font_MS_UI_Gothic__3"/>
        <use fill="#000000" height="101.35" transform="matrix(0.1953, 0.0, 0.0, 0.1953, 69.3, 20.6)" width="222.4" xlink:href="#font_MS_UI_Gothic__2"/>
        <use fill="#000000" height="101.35" transform="matrix(0.1953, 0.0, 0.0, 0.1953, 71.6, 20.6)" width="222.4" xlink:href="#font_MS_UI_Gothic__4"/>
        <use fill="#000000" height="101.35" transform="matrix(0.1953, 0.0, 0.0, 0.1953, 101.25, 20.6)" width="222.4" xlink:href="#font_MS_UI_Gothic__1"/>
        <use fill="#000000" height="101.35" transform="matrix(0.1953, 0.0, 0.0, 0.1953, 104.3, 20.6)" width="222.4" xlink:href="#font_MS_UI_Gothic__2"/>
        <use fill="#000000" height="101.35" transform="matrix(0.1953, 0.0, 0.0, 0.1953, 106.6, 20.6)" width="222.4" xlink:href="#font_MS_UI_Gothic__3"/>
        <use fill="#000000" height="101.35" transform="matrix(0.1953, 0.0, 0.0, 0.1953, 116.6, 20.6)" width="222.4" xlink:href="#font_MS_UI_Gothic__2"/>
        <use fill="#000000" height="101.35" transform="matrix(0.1953, 0.0, 0.0, 0.1953, 118.9, 20.6)" width="222.4" xlink:href="#font_MS_UI_Gothic__4"/>
        <use fill="#000000" height="101.35" transform="matrix(0.1953, 0.0, 0.0, 0.1953, 121.95, 20.6)" width="222.4" xlink:href="#font_MS_UI_Gothic__1"/>
        <use fill="#000000" height="101.35" transform="matrix(0.1953, 0.0, 0.0, 0.1953, 125.0, 20.6)" width="222.4" xlink:href="#font_MS_UI_Gothic__2"/>
        <use fill="#000000" height="101.35" transform="matrix(0.1953, 0.0, 0.0, 0.1953, 127.3, 20.6)" width="222.4" xlink:href="#font_MS_UI_Gothic__3"/>
        <use fill="#000000" height="101.35" transform="matrix(0.1953, 0.0, 0.0, 0.1953, 137.3, 20.6)" width="222.4" xlink:href="#font_MS_UI_Gothic__2"/>
        <use fill="#000000" height="101.35" transform="matrix(0.1953, 0.0, 0.0, 0.1953, 139.6, 20.6)" width="222.4" xlink:href="#font_MS_UI_Gothic__4"/>
        <use fill="#000000" height="101.35" transform="matrix(0.1953, 0.0, 0.0, 0.1953, 142.65, 20.6)" width="222.4" xlink:href="#font_MS_UI_Gothic__1"/>
        <use fill="#000000" height="101.35" transform="matrix(0.1953, 0.0, 0.0, 0.1953, 145.7, 20.6)" width="222.4" xlink:href="#font_MS_UI_Gothic__2"/>
        <use fill="#000000" height="101.35" transform="matrix(0.1953, 0.0, 0.0, 0.1953, 148.0, 20.6)" width="222.4" xlink:href="#font_MS_UI_Gothic__3"/>
        <use fill="#000000" height="101.35" transform="matrix(0.1953, 0.0, 0.0, 0.1953, 158.0, 20.6)" width="222.4" xlink:href="#font_MS_UI_Gothic__2"/>
        <use fill="#000000" height="101.35" transform="matrix(0.1953, 0.0, 0.0, 0.1953, 160.3, 20.6)" width="222.4" xlink:href="#font_MS_UI_Gothic__4"/>
        <use fill="#000000" height="101.35" transform="matrix(0.1953, 0.0, 0.0, 0.1953, 183.3, 20.6)" width="222.4" xlink:href="#font_MS_UI_Gothic__5"/>
        <use fill="#000000" height="101.35" transform="matrix(0.1953, 0.0, 0.0, 0.1953, 187.85, 20.6)" width="222.4" xlink:href="#font_MS_UI_Gothic__5"/>
        <use fill="#000000" height="101.35" transform="matrix(0.1953, 0.0, 0.0, 0.1953, 192.4, 20.6)" width="222.4" xlink:href="#font_MS_UI_Gothic__5"/>
        <use fill="#000000" height="101.35" transform="matrix(0.1953, 0.0, 0.0, 0.1953, 196.95, 20.6)" width="222.4" xlink:href="#font_MS_UI_Gothic__5"/>
        <use fill="#000000" height="101.35" transform="matrix(0.1953, 0.0, 0.0, 0.1953, 201.5, 20.6)" width="222.4" xlink:href="#font_MS_UI_Gothic__5"/>
        <use fill="#000000" height="101.35" transform="matrix(0.1953, 0.0, 0.0, 0.1953, 206.05, 20.6)" width="222.4" xlink:href="#font_MS_UI_Gothic__5"/>
        <use fill="#000000" height="101.35" transform="matrix(0.1953, 0.0, 0.0, 0.1953, 210.6, 20.6)" width="222.4" xlink:href="#font_MS_UI_Gothic__5"/>
      </g>
      <g transform="matrix(1.0, 0.0, 0.0, 1.0, 0.0, 0.0)">
        <use fill="#000000" height="101.35" transform="matrix(0.1953, 0.0, 0.0, 0.1953, 19.95, 32.6)" width="222.4" xlink:href="#font_MS_UI_Gothic__1"/>
        <use fill="#000000" height="101.35" transform="matrix(0.1953, 0.0, 0.0, 0.1953, 23.0, 32.6)" width="222.4" xlink:href="#font_MS_UI_Gothic__2"/>
        <use fill="#000000" height="101.35" transform="matrix(0.1953, 0.0, 0.0, 0.1953, 25.3, 32.6)" width="222.4" xlink:href="#font_MS_UI_Gothic__3"/>
        <use fill="#000000" height="101.35" transform="matrix(0.1953, 0.0, 0.0, 0.1953, 35.3, 32.6)" width="222.4" xlink:href="#font_MS_UI_Gothic__2"/>
        <use fill="#000000" height="101.35" transform="matrix(0.1953, 0.0, 0.0, 0.1953, 37.6, 32.6)" width="222.4" xlink:href="#font_MS_UI_Gothic__4"/>
        <use fill="#000000" height="101.35" transform="matrix(0.1953, 0.0, 0.0, 0.1953, 60.6, 32.6)" width="222.4" xlink:href="#font_MS_UI_Gothic__1"/>
        <use fill="#000000" height="101.35" transform="matrix(0.1953, 0.0, 0.0, 0.1953, 63.65, 32.6)" width="222.4" xlink:href="#font_MS_UI_Gothic__2"/>
        <use fill="#000000" height="101.35" transform="matrix(0.1953, 0.0, 0.0, 0.1953, 65.95, 32.6)" width="222.4" xlink:href="#font_MS_UI_Gothic__3"/>
        <use fill="#000000" height="101.35" transform="matrix(0.1953, 0.0, 0.0, 0.1953, 75.95, 32.6)" width="222.4" xlink:href="#font_MS_UI_Gothic__2"/>
        <use fill="#000000" height="101.35" transform="matrix(0.1953, 0.0, 0.0, 0.1953, 78.25, 32.6)" width="222.4" xlink:href="#font_MS_UI_Gothic__4"/>
        <use fill="#000000" height="101.35" transform="matrix(0.1953, 0.0, 0.0, 0.1953, 147.8, 32.6)" width="222.4" xlink:href="#font_MS_UI_Gothic__1"/>
        <use fill="#000000" height="101.35" transform="matrix(0.1953, 0.0, 0.0, 0.1953, 150.85, 32.6)" width="222.4" xlink:href="#font_MS_UI_Gothic__2"/>
        <use fill="#000000" height="101.35" transform="matrix(0.1953, 0.0, 0.0, 0.1953, 153.15, 32.6)" width="222.4" xlink:href="#font_MS_UI_Gothic__3"/>
        <use fill="#000000" height="101.35" transform="matrix(0.1953, 0.0, 0.0, 0.1953, 163.15, 32.6)" width="222.4" xlink:href="#font_MS_UI_Gothic__2"/>
        <use fill="#000000" height="101.35" transform="matrix(0.1953, 0.0, 0.0, 0.1953, 165.45, 32.6)" width="222.4" xlink:href="#font_MS_UI_Gothic__4"/>
        <use fill="#000000" height="101.35" transform="matrix(0.1953, 0.0, 0.0, 0.1953, 181.8, 32.6)" width="222.4" xlink:href="#font_MS_UI_Gothic__5"/>
        <use fill="#000000" height="101.35" transform="matrix(0.1953, 0.0, 0.0, 0.1953, 186.35, 32.6)" width="222.4" xlink:href="#font_MS_UI_Gothic__5"/>
        <use fill="#000000" height="101.35" transform="matrix(0.1953, 0.0, 0.0, 0.1953, 210.85, 32.6)" width="222.4" xlink:href="#font_MS_UI_Gothic__5"/>
        <use fill="#000000" height="101.35" transform="matrix(0.1953, 0.0, 0.0, 0.1953, 215.4, 32.6)" width="222.4" xlink:href="#font_MS_UI_Gothic__5"/>
      </g>
      <g transform="matrix(1.0, 0.0, 0.0, 1.0, 0.0, 0.0)">
        <use fill="#000000" height="101.35" transform="matrix(0.1953, 0.0, 0.0, 0.1953, 13.3, 44.6)" width="222.4" xlink:href="#font_MS_UI_Gothic__1"/>
        <use fill="#000000" height="101.35" transform="matrix(0.1953, 0.0, 0.0, 0.1953, 16.35, 44.6)" width="222.4" xlink:href="#font_MS_UI_Gothic__2"/>
        <use fill="#000000" height="101.35" transform="matrix(0.1953, 0.0, 0.0, 0.1953, 18.65, 44.6)" width="222.4" xlink:href="#font_MS_UI_Gothic__3"/>
        <use fill="#000000" height="101.35" transform="matrix(0.1953, 0.0, 0.0, 0.1953, 28.65, 44.6)" width="222.4" xlink:href="#font_MS_UI_Gothic__2"/>
        <use fill="#000000" height="101.35" transform="matrix(0.1953, 0.0, 0.0, 0.1953, 30.95, 44.6)" width="222.4" xlink:href="#font_MS_UI_Gothic__4"/>
        <use fill="#000000" height="101.35" transform="matrix(0.1953, 0.0, 0.0, 0.1953, 67.25, 44.6)" width="222.4" xlink:href="#font_MS_UI_Gothic__1"/>
        <use fill="#000000" height="101.35" transform="matrix(0.1953, 0.0, 0.0, 0.1953, 70.3, 44.6)" width="222.4" xlink:href="#font_MS_UI_Gothic__2"/>
        <use fill="#000000" height="101.35" transform="matrix(0.1953, 0.0, 0.0, 0.1953, 72.6, 44.6)" width="222.4" xlink:href="#font_MS_UI_Gothic__3"/>
        <use fill="#000000" height="101.35" transform="matrix(0.1953, 0.0, 0.0, 0.1953, 82.6, 44.6)" width="222.4" xlink:href="#font_MS_UI_Gothic__2"/>
        <use fill="#000000" height="101.35" transform="matrix(0.1953, 0.0, 0.0, 0.1953, 84.9, 44.6)" width="222.4" xlink:href="#font_MS_UI_Gothic__4"/>
        <use fill="#000000" height="101.35" transform="matrix(0.1953, 0.0, 0.0, 0.1953, 114.55, 44.6)" width="222.4" xlink:href="#font_MS_UI_Gothic__1"/>
        <use fill="#000000" height="101.35" transform="matrix(0.1953, 0.0, 0.0, 0.1953, 117.6, 44.6)" width="222.4" xlink:href="#font_MS_UI_Gothic__2"/>
        <use fill="#000000" height="101.35" transform="matrix(0.1953, 0.0, 0.0, 0.1953, 119.9, 44.6)" width="222.4" xlink:href="#font_MS_UI_Gothic__3"/>
        <use fill="#000000" height="101.35" transform="matrix(0.1953, 0.0, 0.0, 0.1953, 129.9, 44.6)" width="222.4" xlink:href="#font_MS_UI_Gothic__2"/>
        <use fill="#000000" height="101.35" transform="matrix(0.1953, 0.0, 0.0, 0.1953, 132.2, 44.6)" width="222.4" xlink:href="#font_MS_UI_Gothic__4"/>
        <use fill="#000000" height="101.35" transform="matrix(0.1953, 0.0, 0.0, 0.1953, 135.25, 44.6)" width="222.4" xlink:href="#font_MS_UI_Gothic__1"/>
        <use fill="#000000" height="101.35" transform="matrix(0.1953, 0.0, 0.0, 0.1953, 138.3, 44.6)" width="222.4" xlink:href="#font_MS_UI_Gothic__2"/>
        <use fill="#000000" height="101.35" transform="matrix(0.1953, 0.0, 0.0, 0.1953, 140.6, 44.6)" width="222.4" xlink:href="#font_MS_UI_Gothic__3"/>
        <use fill="#000000" height="101.35" transform="matrix(0.1953, 0.0, 0.0, 0.1953, 150.6, 44.6)" width="222.4" xlink:href="#font_MS_UI_Gothic__2"/>
        <use fill="#000000" height="101.35" transform="matrix(0.1953, 0.0, 0.0, 0.1953, 152.9, 44.6)" width="222.4" xlink:href="#font_MS_UI_Gothic__4"/>
        <use fill="#000000" height="101.35" transform="matrix(0.1953, 0.0, 0.0, 0.1953, 202.5, 44.6)" width="222.4" xlink:href="#font_MS_UI_Gothic__5"/>
        <use fill="#000000" height="101.35" transform="matrix(0.1953, 0.0, 0.0, 0.1953, 207.05, 44.6)" width="222.4" xlink:href="#font_MS_UI_Gothic__5"/>
      </g>
      <g transform="matrix(1.0, 0.0, 0.0, 1.0, 0.0, 0.0)">
        <use fill="#000000" height="101.35" transform="matrix(0.1953, 0.0, 0.0, 0.1953, 13.3, 56.6)" width="222.4" xlink:href="#font_MS_UI_Gothic__1"/>
        <use fill="#000000" height="101.35" transform="matrix(0.1953, 0.0, 0.0, 0.1953, 16.35, 56.6)" width="222.4" xlink:href="#font_MS_UI_Gothic__2"/>
        <use fill="#000000" height="101.35" transform="matrix(0.1953, 0.0, 0.0, 0.1953, 18.65, 56.6)" width="222.4" xlink:href="#font_MS_UI_Gothic__3"/>
        <use fill="#000000" height="101.35" transform="matrix(0.1953, 0.0, 0.0, 0.1953, 28.65, 56.6)" width="222.4" xlink:href="#font_MS_UI_Gothic__2"/>
        <use fill="#000000" height="101.35" transform="matrix(0.1953, 0.0, 0.0, 0.1953, 30.95, 56.6)" width="222.4" xlink:href="#font_MS_UI_Gothic__4"/>
        <use fill="#000000" height="101.35" transform="matrix(0.1953, 0.0, 0.0, 0.1953, 67.25, 56.6)" width="222.4" xlink:href="#font_MS_UI_Gothic__1"/>
        <use fill="#000000" height="101.35" transform="matrix(0.1953, 0.0, 0.0, 0.1953, 70.3, 56.6)" width="222.4" xlink:href="#font_MS_UI_Gothic__2"/>
        <use fill="#000000" height="101.35" transform="matrix(0.1953, 0.0, 0.0, 0.1953, 72.6, 56.6)" width="222.4" xlink:href="#font_MS_UI_Gothic__3"/>
        <use fill="#000000" height="101.35" transform="matrix(0.1953, 0.0, 0.0, 0.1953, 82.6, 56.6)" width="222.4" xlink:href="#font_MS_UI_Gothic__2"/>
        <use fill="#000000" height="101.35" transform="matrix(0.1953, 0.0, 0.0, 0.1953, 84.9, 56.6)" width="222.4" xlink:href="#font_MS_UI_Gothic__4"/>
        <use fill="#000000" height="101.35" transform="matrix(0.1953, 0.0, 0.0, 0.1953, 114.55, 56.6)" width="222.4" xlink:href="#font_MS_UI_Gothic__1"/>
        <use fill="#000000" height="101.35" transform="matrix(0.1953, 0.0, 0.0, 0.1953, 117.6, 56.6)" width="222.4" xlink:href="#font_MS_UI_Gothic__2"/>
        <use fill="#000000" height="101.35" transform="matrix(0.1953, 0.0, 0.0, 0.1953, 119.9, 56.6)" width="222.4" xlink:href="#font_MS_UI_Gothic__3"/>
        <use fill="#000000" height="101.35" transform="matrix(0.1953, 0.0, 0.0, 0.1953, 129.9, 56.6)" width="222.4" xlink:href="#font_MS_UI_Gothic__2"/>
        <use fill="#000000" height="101.35" transform="matrix(0.1953, 0.0, 0.0, 0.1953, 132.2, 56.6)" width="222.4" xlink:href="#font_MS_UI_Gothic__4"/>
        <use fill="#000000" height="101.35" transform="matrix(0.1953, 0.0, 0.0, 0.1953, 195.1, 56.6)" width="222.4" xlink:href="#font_MS_UI_Gothic__5"/>
        <use fill="#000000" height="101.35" transform="matrix(0.1953, 0.0, 0.0, 0.1953, 199.65, 56.6)" width="222.4" xlink:href="#font_MS_UI_Gothic__5"/>
      </g>
      <g transform="matrix(1.0, 0.0, 0.0, 1.0, 0.0, 0.0)">
        <use fill="#000000" height="101.35" transform="matrix(0.1953, 0.0, 0.0, 0.1953, 6.65, 68.6)" width="222.4" xlink:href="#font_MS_UI_Gothic__1"/>
        <use fill="#000000" height="101.35" transform="matrix(0.1953, 0.0, 0.0, 0.1953, 9.7, 68.6)" width="222.4" xlink:href="#font_MS_UI_Gothic__2"/>
        <use fill="#000000" height="101.35" transform="matrix(0.1953, 0.0, 0.0, 0.1953, 12.0, 68.6)" width="222.4" xlink:href="#font_MS_UI_Gothic__3"/>
        <use fill="#000000" height="101.35" transform="matrix(0.1953, 0.0, 0.0, 0.1953, 22.0, 68.6)" width="222.4" xlink:href="#font_MS_UI_Gothic__2"/>
        <use fill="#000000" height="101.35" transform="matrix(0.1953, 0.0, 0.0, 0.1953, 24.3, 68.6)" width="222.4" xlink:href="#font_MS_UI_Gothic__4"/>
        <use fill="#000000" height="101.35" transform="matrix(0.1953, 0.0, 0.0, 0.1953, 73.9, 68.6)" width="222.4" xlink:href="#font_MS_UI_Gothic__1"/>
        <use fill="#000000" height="101.35" transform="matrix(0.1953, 0.0, 0.0, 0.1953, 76.95, 68.6)" width="222.4" xlink:href="#font_MS_UI_Gothic__2"/>
        <use fill="#000000" height="101.35" transform="matrix(0.1953, 0.0, 0.0, 0.1953, 79.25, 68.6)" width="222.4" xlink:href="#font_MS_UI_Gothic__3"/>
        <use fill="#000000" height="101.35" transform="matrix(0.1953, 0.0, 0.0, 0.1953, 89.25, 68.6)" width="222.4" xlink:href="#font_MS_UI_Gothic__2"/>
        <use fill="#000000" height="101.35" transform="matrix(0.1953, 0.0, 0.0, 0.1953, 91.55, 68.6)" width="222.4" xlink:href="#font_MS_UI_Gothic__4"/>
        <use fill="#000000" height="101.35" transform="matrix(0.1953, 0.0, 0.0, 0.1953, 114.55, 68.6)" width="222.4" xlink:href="#font_MS_UI_Gothic__1"/>
        <use fill="#000000" height="101.35" transform="matrix(0.1953, 0.0, 0.0, 0.1953, 117.6, 68.6)" width="222.4" xlink:href="#font_MS_UI_Gothic__2"/>
        <use fill="#000000" height="101.35" transform="matrix(0.1953, 0.0, 0.0, 0.1953, 119.9, 68.6)" width="222.4" xlink:href="#font_MS_UI_Gothic__3"/>
        <use fill="#000000" height="101.35" transform="matrix(0.1953, 0.0, 0.0, 0.1953, 129.9, 68.6)" width="222.4" xlink:href="#font_MS_UI_Gothic__2"/>
        <use fill="#000000" height="101.35" transform="matrix(0.1953, 0.0, 0.0, 0.1953, 132.2, 68.6)" width="222.4" xlink:href="#font_MS_UI_Gothic__4"/>
        <use fill="#000000" height="101.35" transform="matrix(0.1953, 0.0, 0.0, 0.1953, 195.1, 68.6)" width="222.4" xlink:href="#font_MS_UI_Gothic__5"/>
        <use fill="#000000" height="101.35" transform="matrix(0.1953, 0.0, 0.0, 0.1953, 199.65, 68.6)" width="222.4" xlink:href="#font_MS_UI_Gothic__5"/>
      </g>
      <g transform="matrix(1.0, 0.0, 0.0, 1.0, 0.0, 0.0)">
        <use fill="#000000" height="101.35" transform="matrix(0.1953, 0.0, 0.0, 0.1953, 6.65, 80.6)" width="222.4" xlink:href="#font_MS_UI_Gothic__1"/>
        <use fill="#000000" height="101.35" transform="matrix(0.1953, 0.0, 0.0, 0.1953, 9.7, 80.6)" width="222.4" xlink:href="#font_MS_UI_Gothic__2"/>
        <use fill="#000000" height="101.35" transform="matrix(0.1953, 0.0, 0.0, 0.1953, 12.0, 80.6)" width="222.4" xlink:href="#font_MS_UI_Gothic__3"/>
        <use fill="#000000" height="101.35" transform="matrix(0.1953, 0.0, 0.0, 0.1953, 22.0, 80.6)" width="222.4" xlink:href="#font_MS_UI_Gothic__2"/>
        <use fill="#000000" height="101.35" transform="matrix(0.1953, 0.0, 0.0, 0.1953, 24.3, 80.6)" width="222.4" xlink:href="#font_MS_UI_Gothic__4"/>
        <use fill="#000000" height="101.35" transform="matrix(0.1953, 0.0, 0.0, 0.1953, 73.9, 80.6)" width="222.4" xlink:href="#font_MS_UI_Gothic__1"/>
        <use fill="#000000" height="101.35" transform="matrix(0.1953, 0.0, 0.0, 0.1953, 76.95, 80.6)" width="222.4" xlink:href="#font_MS_UI_Gothic__2"/>
        <use fill="#000000" height="101.35" transform="matrix(0.1953, 0.0, 0.0, 0.1953, 79.25, 80.6)" width="222.4" xlink:href="#font_MS_UI_Gothic__3"/>
        <use fill="#000000" height="101.35" transform="matrix(0.1953, 0.0, 0.0, 0.1953, 89.25, 80.6)" width="222.4" xlink:href="#font_MS_UI_Gothic__2"/>
        <use fill="#000000" height="101.35" transform="matrix(0.1953, 0.0, 0.0, 0.1953, 91.55, 80.6)" width="222.4" xlink:href="#font_MS_UI_Gothic__4"/>
        <use fill="#000000" height="101.35" transform="matrix(0.1953, 0.0, 0.0, 0.1953, 114.55, 80.6)" width="222.4" xlink:href="#font_MS_UI_Gothic__1"/>
        <use fill="#000000" height="101.35" transform="matrix(0.1953, 0.0, 0.0, 0.1953, 117.6, 80.6)" width="222.4" xlink:href="#font_MS_UI_Gothic__2"/>
        <use fill="#000000" height="101.35" transform="matrix(0.1953, 0.0, 0.0, 0.1953, 119.9, 80.6)" width="222.4" xlink:href="#font_MS_UI_Gothic__3"/>
        <use fill="#000000" height="101.35" transform="matrix(0.1953, 0.0, 0.0, 0.1953, 129.9, 80.6)" width="222.4" xlink:href="#font_MS_UI_Gothic__2"/>
        <use fill="#000000" height="101.35" transform="matrix(0.1953, 0.0, 0.0, 0.1953, 132.2, 80.6)" width="222.4" xlink:href="#font_MS_UI_Gothic__4"/>
      </g>
      <g transform="matrix(1.0, 0.0, 0.0, 1.0, 0.0, 0.0)">
        <use fill="#000000" height="101.35" transform="matrix(0.1953, 0.0, 0.0, 0.1953, 0.0, 92.6)" width="222.4" xlink:href="#font_MS_UI_Gothic__1"/>
        <use fill="#000000" height="101.35" transform="matrix(0.1953, 0.0, 0.0, 0.1953, 3.05, 92.6)" width="222.4" xlink:href="#font_MS_UI_Gothic__2"/>
        <use fill="#000000" height="101.35" transform="matrix(0.1953, 0.0, 0.0, 0.1953, 5.35, 92.6)" width="222.4" xlink:href="#font_MS_UI_Gothic__3"/>
        <use fill="#000000" height="101.35" transform="matrix(0.1953, 0.0, 0.0, 0.1953, 15.35, 92.6)" width="222.4" xlink:href="#font_MS_UI_Gothic__2"/>
        <use fill="#000000" height="101.35" transform="matrix(0.1953, 0.0, 0.0, 0.1953, 17.65, 92.6)" width="222.4" xlink:href="#font_MS_UI_Gothic__4"/>
        <use fill="#000000" height="101.35" transform="matrix(0.1953, 0.0, 0.0, 0.1953, 80.55, 92.6)" width="222.4" xlink:href="#font_MS_UI_Gothic__1"/>
        <use fill="#000000" height="101.35" transform="matrix(0.1953, 0.0, 0.0, 0.1953, 83.6, 92.6)" width="222.4" xlink:href="#font_MS_UI_Gothic__2"/>
        <use fill="#000000" height="101.35" transform="matrix(0.1953, 0.0, 0.0, 0.1953, 85.9, 92.6)" width="222.4" xlink:href="#font_MS_UI_Gothic__3"/>
        <use fill="#000000" height="101.35" transform="matrix(0.1953, 0.0, 0.0, 0.1953, 95.9, 92.6)" width="222.4" xlink:href="#font_MS_UI_Gothic__2"/>
        <use fill="#000000" height="101.35" transform="matrix(0.1953, 0.0, 0.0, 0.1953, 98.2, 92.6)" width="222.4" xlink:href="#font_MS_UI_Gothic__4"/>
        <use fill="#000000" height="101.35" transform="matrix(0.1953, 0.0, 0.0, 0.1953, 107.9, 92.6)" width="222.4" xlink:href="#font_MS_UI_Gothic__1"/>
        <use fill="#000000" height="101.35" transform="matrix(0.1953, 0.0, 0.0, 0.1953, 110.95, 92.6)" width="222.4" xlink:href="#font_MS_UI_Gothic__2"/>
        <use fill="#000000" height="101.35" transform="matrix(0.1953, 0.0, 0.0, 0.1953, 113.25, 92.6)" width="222.4" xlink:href="#font_MS_UI_Gothic__3"/>
        <use fill="#000000" height="101.35" transform="matrix(0.1953, 0.0, 0.0, 0.1953, 123.25, 92.6)" width="222.4" xlink:href="#font_MS_UI_Gothic__2"/>
        <use fill="#000000" height="101.35" transform="matrix(0.1953, 0.0, 0.0, 0.1953, 125.55, 92.6)" width="222.4" xlink:href="#font_MS_UI_Gothic__4"/>
        <use fill="#000000" height="101.35" transform="matrix(0.1953, 0.0, 0.0, 0.1953, 195.1, 92.6)" width="222.4" xlink:href="#font_MS_UI_Gothic__5"/>
        <use fill="#000000" height="101.35" transform="matrix(0.1953, 0.0, 0.0, 0.1953, 199.65, 92.6)" width="222.4" xlink:href="#font_MS_UI_Gothic__5"/>
      </g>
    </g>
    <g id="font_MS_UI_Gothic__1">
      <path d="M4.8 -17.8 Q4.8 -6.8 14.0 1.8 L11.8 4.0 Q1.8 -5.4 1.8 -17.8 1.8 -30.2 11.8 -39.6 L14.0 -37.4 Q4.8 -28.8 4.8 -17.8" fill-rule="evenodd" stroke="none"/>
    </g>
    <g id="font_MS_UI_Gothic__2">
      <path d="M2.8 -38.2 Q2.8 -36.8 3.6 -36.0 4.4 -35.2 5.8 -35.2 7.2 -35.2 8.0 -36.0 8.8 -36.8 8.8 -38.2 8.8 -39.6 8.0 -40.4 7.2 -41.2 5.8 -41.2 4.4 -41.2 3.6 -40.4 2.8 -39.6 2.8 -38.2 M9.0 -41.4 Q10.4 -40.0 10.4 -38.2 10.4 -36.4 9.0 -35.0 7.6 -33.6 5.8 -33.6 4.0 -33.6 2.6 -35.0 1.2 -36.4 1.2 -38.2 1.2 -40.0 2.6 -41.4 4.0 -42.8 5.8 -42.8 7.6 -42.8 9.0 -41.4" fill-rule="evenodd" stroke="none"/>
    </g>
    <g id="font_MS_UI_Gothic__3">
      <path d="M21.0 -25.6 Q21.0 -12.4 15.6 -4.2 L35.0 -4.2 35.0 -35.6 21.0 -35.6 21.0 -25.6 M17.0 -39.4 L39.0 -39.4 39.0 -4.2 43.6 -4.2 43.6 6.8 39.6 6.8 39.6 -0.4 11.6 -0.4 11.6 6.8 7.6 6.8 7.6 -4.2 11.0 -4.2 Q17.0 -12.6 17.0 -25.6 L17.0 -39.4" fill-rule="evenodd" stroke="none"/>
    </g>
    <g id="font_MS_UI_Gothic__4">
      <path d="M13.6 -17.8 Q13.6 -5.4 3.6 4.0 L1.4 1.8 Q10.6 -6.8 10.6 -17.8 10.6 -28.8 1.4 -37.4 L3.6 -39.6 Q13.6 -30.2 13.6 -17.8" fill-rule="evenodd" stroke="none"/>
    </g>
    <g id="font_MS_UI_Gothic__5">
      <path d="M8.6 -30.2 Q6.6 -28.2 6.6 -24.2 L2.0 -24.2 Q2.0 -29.4 5.4 -32.8 7.8 -35.2 11.8 -35.2 16.2 -35.2 18.6 -32.8 21.2 -30.2 21.2 -26.2 21.2 -22.8 18.8 -20.4 L15.0 -16.6 Q13.2 -14.8 13.2 -11.2 L9.6 -11.2 Q9.6 -15.6 11.0 -17.8 12.0 -19.4 14.8 -22.2 16.4 -23.8 16.4 -26.0 16.4 -28.8 15.0 -30.2 13.8 -31.4 11.6 -31.4 9.8 -31.4 8.6 -30.2 M9.2 -5.4 L13.6 -5.4 13.6 -0.6 9.2 -0.6 9.2 -5.4" fill-rule="evenodd" stroke="none"/>
    </g>
  </defs>
</svg>
