<?xml version="1.0" encoding="UTF-8" standalone="no"?>
<svg xmlns:ffdec="https://www.free-decompiler.com/flash" xmlns:xlink="http://www.w3.org/1999/xlink" ffdec:objectType="frame" height="280.0px" width="720.0px" xmlns="http://www.w3.org/2000/svg">
  <g transform="matrix(1.0, 0.0, 0.0, 1.0, 0.0, 0.0)">
    <use ffdec:characterId="2" height="202.45" transform="matrix(1.0, 0.0, 0.0, 1.0, 7.5, 4.5)" width="260.75" xlink:href="#text0"/>
  </g>
  <defs>
    <g id="text0" transform="matrix(1.0, 0.0, 0.0, 1.0, -1.9, -0.25)">
      <g transform="matrix(1.0, 0.0, 0.0, 1.0, 0.0, 0.0)">
        <use fill="#000000" height="202.45" transform="matrix(0.2344, 0.0, 0.0, 0.2344, 111.3, 10.3)" width="260.75" xlink:href="#font_MS_UI_Gothic__1"/>
        <use fill="#000000" height="202.45" transform="matrix(0.2344, 0.0, 0.0, 0.2344, 119.25, 10.3)" width="260.75" xlink:href="#font_MS_UI_Gothic__2"/>
        <use fill="#000000" height="202.45" transform="matrix(0.2344, 0.0, 0.0, 0.2344, 141.15, 10.3)" width="260.75" xlink:href="#font_MS_UI_Gothic__3"/>
        <use fill="#000000" height="202.45" transform="matrix(0.2344, 0.0, 0.0, 0.2344, 159.8, 10.3)" width="260.75" xlink:href="#font_MS_UI_Gothic__4"/>
      </g>
      <g transform="matrix(1.0, 0.0, 0.0, 1.0, 0.0, 0.0)">
        <use fill="#000000" height="202.45" transform="matrix(0.2344, 0.0, 0.0, 0.2344, 23.85, 24.3)" width="260.75" xlink:href="#font_MS_UI_Gothic_.0"/>
        <use fill="#000000" height="202.45" transform="matrix(0.2344, 0.0, 0.0, 0.2344, 26.3, 24.3)" width="260.75" xlink:href="#font_MS_UI_Gothic__5"/>
        <use fill="#000000" height="202.45" transform="matrix(0.2344, 0.0, 0.0, 0.2344, 36.1, 24.3)" width="260.75" xlink:href="#font_MS_UI_Gothic__6"/>
        <use fill="#000000" height="202.45" transform="matrix(0.2344, 0.0, 0.0, 0.2344, 48.1, 24.3)" width="260.75" xlink:href="#font_MS_UI_Gothic__7"/>
        <use fill="#000000" height="202.45" transform="matrix(0.2344, 0.0, 0.0, 0.2344, 107.8, 24.3)" width="260.75" xlink:href="#font_MS_UI_Gothic__8"/>
        <use fill="#000000" height="202.45" transform="matrix(0.2344, 0.0, 0.0, 0.2344, 113.1, 24.3)" width="260.75" xlink:href="#font_MS_UI_Gothic__9"/>
        <use fill="#000000" height="202.45" transform="matrix(0.2344, 0.0, 0.0, 0.2344, 118.4, 24.3)" width="260.75" xlink:href="#font_MS_UI_Gothic__3"/>
        <use fill="#000000" height="202.45" transform="matrix(0.2344, 0.0, 0.0, 0.2344, 121.15, 24.3)" width="260.75" xlink:href="#font_MS_UI_Gothic__2"/>
        <use fill="#000000" height="202.45" transform="matrix(0.2344, 0.0, 0.0, 0.2344, 127.15, 24.3)" width="260.75" xlink:href="#font_MS_UI_Gothic__1"/>
        <use fill="#000000" height="202.45" transform="matrix(0.2344, 0.0, 0.0, 0.2344, 135.1, 24.3)" width="260.75" xlink:href="#font_MS_UI_Gothic__2"/>
        <use fill="#000000" height="202.45" transform="matrix(0.2344, 0.0, 0.0, 0.2344, 141.1, 24.3)" width="260.75" xlink:href="#font_MS_UI_Gothic__2"/>
        <use fill="#000000" height="202.45" transform="matrix(0.2344, 0.0, 0.0, 0.2344, 147.1, 24.3)" width="260.75" xlink:href="#font_MS_UI_Gothic__1"/>
        <use fill="#000000" height="202.45" transform="matrix(0.2344, 0.0, 0.0, 0.2344, 155.05, 24.3)" width="260.75" xlink:href="#font_MS_UI_Gothic__2"/>
        <use fill="#000000" height="202.45" transform="matrix(0.2344, 0.0, 0.0, 0.2344, 176.95, 24.3)" width="260.75" xlink:href="#font_MS_UI_Gothic__1"/>
        <use fill="#000000" height="202.45" transform="matrix(0.2344, 0.0, 0.0, 0.2344, 200.8, 24.3)" width="260.75" xlink:href="#font_MS_UI_Gothic__10"/>
        <use fill="#000000" height="202.45" transform="matrix(0.2344, 0.0, 0.0, 0.2344, 208.65, 24.3)" width="260.75" xlink:href="#font_MS_UI_Gothic__11"/>
      </g>
      <g transform="matrix(1.0, 0.0, 0.0, 1.0, 0.0, 0.0)">
        <use fill="#000000" height="202.45" transform="matrix(0.2344, 0.0, 0.0, 0.2344, 31.8, 38.3)" width="260.75" xlink:href="#font_MS_UI_Gothic__12"/>
        <use fill="#000000" height="202.45" transform="matrix(0.2344, 0.0, 0.0, 0.2344, 43.8, 38.3)" width="260.75" xlink:href="#font_MS_UI_Gothic__13"/>
        <use fill="#000000" height="202.45" transform="matrix(0.2344, 0.0, 0.0, 0.2344, 50.25, 38.3)" width="260.75" xlink:href="#font_MS_UI_Gothic__15"/>
        <use fill="#000000" height="202.45" transform="matrix(0.2344, 0.0, 0.0, 0.2344, 62.25, 38.3)" width="260.75" xlink:href="#font_MS_UI_Gothic__16"/>
        <use fill="#000000" height="202.45" transform="matrix(0.2344, 0.0, 0.0, 0.2344, 65.9, 38.3)" width="260.75" xlink:href="#font_MS_UI_Gothic__12"/>
        <use fill="#000000" height="202.45" transform="matrix(0.2344, 0.0, 0.0, 0.2344, 93.8, 38.3)" width="260.75" xlink:href="#font_MS_UI_Gothic__17"/>
        <use fill="#000000" height="202.45" transform="matrix(0.2344, 0.0, 0.0, 0.2344, 145.55, 38.3)" width="260.75" xlink:href="#font_MS_UI_Gothic__4"/>
        <use fill="#000000" height="202.45" transform="matrix(0.2344, 0.0, 0.0, 0.2344, 157.55, 38.3)" width="260.75" xlink:href="#font_MS_UI_Gothic__2"/>
        <use fill="#000000" height="202.45" transform="matrix(0.2344, 0.0, 0.0, 0.2344, 163.55, 38.3)" width="260.75" xlink:href="#font_MS_UI_Gothic__1"/>
        <use fill="#000000" height="202.45" transform="matrix(0.2344, 0.0, 0.0, 0.2344, 171.5, 38.3)" width="260.75" xlink:href="#font_MS_UI_Gothic__3"/>
        <use fill="#000000" height="202.45" transform="matrix(0.2344, 0.0, 0.0, 0.2344, 174.25, 38.3)" width="260.75" xlink:href="#font_MS_UI_Gothic__2"/>
      </g>
      <g transform="matrix(1.0, 0.0, 0.0, 1.0, 0.0, 0.0)">
        <use fill="#000000" height="202.45" transform="matrix(0.2344, 0.0, 0.0, 0.2344, 35.45, 52.3)" width="260.75" xlink:href="#font_MS_UI_Gothic__18"/>
        <use fill="#000000" height="202.45" transform="matrix(0.2344, 0.0, 0.0, 0.2344, 41.45, 52.3)" width="260.75" xlink:href="#font_MS_UI_Gothic__19"/>
        <use fill="#000000" height="202.45" transform="matrix(0.2344, 0.0, 0.0, 0.2344, 47.45, 52.3)" width="260.75" xlink:href="#font_MS_UI_Gothic__3"/>
        <use fill="#000000" height="202.45" transform="matrix(0.2344, 0.0, 0.0, 0.2344, 50.2, 52.3)" width="260.75" xlink:href="#font_MS_UI_Gothic__20"/>
        <use fill="#000000" height="202.45" transform="matrix(0.2344, 0.0, 0.0, 0.2344, 62.2, 52.3)" width="260.75" xlink:href="#font_MS_UI_Gothic__3"/>
        <use fill="#000000" height="202.45" transform="matrix(0.2344, 0.0, 0.0, 0.2344, 64.95, 52.3)" width="260.75" xlink:href="#font_MS_UI_Gothic__21"/>
        <use fill="#000000" height="202.45" transform="matrix(0.2344, 0.0, 0.0, 0.2344, 70.95, 52.3)" width="260.75" xlink:href="#font_MS_UI_Gothic__22"/>
        <use fill="#000000" height="202.45" transform="matrix(0.2344, 0.0, 0.0, 0.2344, 80.35, 52.3)" width="260.75" xlink:href="#font_MS_UI_Gothic__23"/>
        <use fill="#000000" height="202.45" transform="matrix(0.2344, 0.0, 0.0, 0.2344, 163.9, 52.3)" width="260.75" xlink:href="#font_MS_UI_Gothic__2"/>
        <use fill="#000000" height="202.45" transform="matrix(0.2344, 0.0, 0.0, 0.2344, 169.9, 52.3)" width="260.75" xlink:href="#font_MS_UI_Gothic__1"/>
        <use fill="#000000" height="202.45" transform="matrix(0.2344, 0.0, 0.0, 0.2344, 177.85, 52.3)" width="260.75" xlink:href="#font_MS_UI_Gothic__3"/>
        <use fill="#000000" height="202.45" transform="matrix(0.2344, 0.0, 0.0, 0.2344, 188.55, 52.3)" width="260.75" xlink:href="#font_MS_UI_Gothic__2"/>
      </g>
      <g transform="matrix(1.0, 0.0, 0.0, 1.0, 0.0, 0.0)">
        <use fill="#000000" height="202.45" transform="matrix(0.2344, 0.0, 0.0, 0.2344, 7.95, 66.3)" width="260.75" xlink:href="#font_MS_UI_Gothic__24"/>
        <use fill="#000000" height="202.45" transform="matrix(0.2344, 0.0, 0.0, 0.2344, 19.95, 66.3)" width="260.75" xlink:href="#font_MS_UI_Gothic__25"/>
        <use fill="#000000" height="202.45" transform="matrix(0.2344, 0.0, 0.0, 0.2344, 25.95, 66.3)" width="260.75" xlink:href="#font_MS_UI_Gothic__26"/>
        <use fill="#000000" height="202.45" transform="matrix(0.2344, 0.0, 0.0, 0.2344, 37.95, 66.3)" width="260.75" xlink:href="#font_MS_UI_Gothic__27"/>
        <use fill="#000000" height="202.45" transform="matrix(0.2344, 0.0, 0.0, 0.2344, 43.95, 66.3)" width="260.75" xlink:href="#font_MS_UI_Gothic__28"/>
        <use fill="#000000" height="202.45" transform="matrix(0.2344, 0.0, 0.0, 0.2344, 53.0, 66.3)" width="260.75" xlink:href="#font_MS_UI_Gothic__29"/>
        <use fill="#000000" height="202.45" transform="matrix(0.2344, 0.0, 0.0, 0.2344, 65.0, 66.3)" width="260.75" xlink:href="#font_MS_UI_Gothic__29"/>
        <use fill="#000000" height="202.45" transform="matrix(0.2344, 0.0, 0.0, 0.2344, 77.0, 66.3)" width="260.75" xlink:href="#font_MS_UI_Gothic__26"/>
        <use fill="#000000" height="202.45" transform="matrix(0.2344, 0.0, 0.0, 0.2344, 128.75, 66.3)" width="260.75" xlink:href="#font_MS_UI_Gothic__17"/>
        <use fill="#000000" height="202.45" transform="matrix(0.2344, 0.0, 0.0, 0.2344, 212.3, 66.3)" width="260.75" xlink:href="#font_MS_UI_Gothic__4"/>
      </g>
      <g transform="matrix(1.0, 0.0, 0.0, 1.0, 0.0, 0.0)">
        <use fill="#000000" height="202.45" transform="matrix(0.2344, 0.0, 0.0, 0.2344, 154.7, 80.3)" width="260.75" xlink:href="#font_MS_UI_Gothic__4"/>
      </g>
      <g transform="matrix(1.0, 0.0, 0.0, 1.0, 0.0, 0.0)">
        <use fill="#000000" height="202.45" transform="matrix(0.2344, 0.0, 0.0, 0.2344, 63.6, 94.3)" width="260.75" xlink:href="#font_MS_UI_Gothic__10"/>
        <use fill="#000000" height="202.45" transform="matrix(0.2344, 0.0, 0.0, 0.2344, 71.45, 94.3)" width="260.75" xlink:href="#font_MS_UI_Gothic__11"/>
      </g>
      <g transform="matrix(1.0, 0.0, 0.0, 1.0, 0.0, 0.0)">
        <use fill="#000000" height="202.45" transform="matrix(0.2344, 0.0, 0.0, 0.2344, 127.2, 108.3)" width="260.75" xlink:href="#font_MS_UI_Gothic__2"/>
        <use fill="#000000" height="202.45" transform="matrix(0.2344, 0.0, 0.0, 0.2344, 141.15, 108.3)" width="260.75" xlink:href="#font_MS_UI_Gothic__3"/>
        <use fill="#000000" height="202.45" transform="matrix(0.2344, 0.0, 0.0, 0.2344, 183.65, 108.3)" width="260.75" xlink:href="#font_MS_UI_Gothic__2"/>
      </g>
      <g transform="matrix(1.0, 0.0, 0.0, 1.0, 0.0, 0.0)">
        <use fill="#000000" height="202.45" transform="matrix(0.2344, 0.0, 0.0, 0.2344, 135.15, 122.3)" width="260.75" xlink:href="#font_MS_UI_Gothic__4"/>
        <use fill="#000000" height="202.45" transform="matrix(0.2344, 0.0, 0.0, 0.2344, 226.65, 122.3)" width="260.75" xlink:href="#font_MS_UI_Gothic__17"/>
      </g>
      <g transform="matrix(1.0, 0.0, 0.0, 1.0, 0.0, 0.0)">
        <use fill="#000000" height="202.45" transform="matrix(0.2344, 0.0, 0.0, 0.2344, 103.35, 136.3)" width="260.75" xlink:href="#font_MS_UI_Gothic__17"/>
        <use fill="#000000" height="202.45" transform="matrix(0.2344, 0.0, 0.0, 0.2344, 218.7, 136.3)" width="260.75" xlink:href="#font_MS_UI_Gothic__3"/>
        <use fill="#000000" height="202.45" transform="matrix(0.2344, 0.0, 0.0, 0.2344, 253.25, 136.3)" width="260.75" xlink:href="#font_MS_UI_Gothic__2"/>
      </g>
      <g transform="matrix(1.0, 0.0, 0.0, 1.0, 0.0, 0.0)">
        <use fill="#000000" height="202.45" transform="matrix(0.2344, 0.0, 0.0, 0.2344, 87.45, 150.3)" width="260.75" xlink:href="#font_MS_UI_Gothic__2"/>
        <use fill="#000000" height="202.45" transform="matrix(0.2344, 0.0, 0.0, 0.2344, 133.2, 150.3)" width="260.75" xlink:href="#font_MS_UI_Gothic__1"/>
        <use fill="#000000" height="202.45" transform="matrix(0.2344, 0.0, 0.0, 0.2344, 172.95, 150.3)" width="260.75" xlink:href="#font_MS_UI_Gothic__17"/>
      </g>
      <g transform="matrix(1.0, 0.0, 0.0, 1.0, 0.0, 0.0)">
        <use fill="#000000" height="202.45" transform="matrix(0.2344, 0.0, 0.0, 0.2344, 119.25, 164.3)" width="260.75" xlink:href="#font_MS_UI_Gothic__1"/>
        <use fill="#000000" height="202.45" transform="matrix(0.2344, 0.0, 0.0, 0.2344, 214.65, 164.3)" width="260.75" xlink:href="#font_MS_UI_Gothic__4"/>
      </g>
      <g transform="matrix(1.0, 0.0, 0.0, 1.0, 0.0, 0.0)">
        <use fill="#000000" height="202.45" transform="matrix(0.2344, 0.0, 0.0, 0.2344, 71.55, 178.3)" width="260.75" xlink:href="#font_MS_UI_Gothic__4"/>
        <use fill="#000000" height="202.45" transform="matrix(0.2344, 0.0, 0.0, 0.2344, 123.3, 178.3)" width="260.75" xlink:href="#font_MS_UI_Gothic__2"/>
        <use fill="#000000" height="202.45" transform="matrix(0.2344, 0.0, 0.0, 0.2344, 184.95, 178.3)" width="260.75" xlink:href="#font_MS_UI_Gothic__2"/>
        <use fill="#000000" height="202.45" transform="matrix(0.2344, 0.0, 0.0, 0.2344, 238.65, 178.3)" width="260.75" xlink:href="#font_MS_UI_Gothic__3"/>
      </g>
      <g transform="matrix(1.0, 0.0, 0.0, 1.0, 0.0, 0.0)">
        <use fill="#000000" height="202.45" transform="matrix(0.2344, 0.0, 0.0, 0.2344, 198.75, 192.3)" width="260.75" xlink:href="#font_MS_UI_Gothic__2"/>
      </g>
    </g>
    <g id="font_MS_UI_Gothic__1">
      <path d="M7.4 -2.6 Q7.4 -0.8 8.8 0.6 10.2 2.0 12.0 2.0 13.8 2.0 15.2 0.6 16.6 -0.8 16.6 -2.6 16.6 -4.4 15.2 -5.8 13.8 -7.2 12.0 -7.2 10.2 -7.2 8.8 -5.8 7.4 -4.4 7.4 -2.6 M17.0 -7.6 Q19.0 -5.6 19.0 -2.6 19.0 0.4 17.0 2.4 15.0 4.4 12.0 4.4 9.0 4.4 7.0 2.4 5.0 0.4 5.0 -2.6 5.0 -5.6 7.0 -7.6 9.0 -9.6 12.0 -9.6 15.0 -9.6 17.0 -7.6" fill-rule="evenodd" stroke="none"/>
    </g>
    <g id="font_MS_UI_Gothic__2">
      <path d="M17.0 -22.8 L17.0 -14.2 8.4 -14.2 8.4 -22.8 17.0 -22.8" fill-rule="evenodd" stroke="none"/>
    </g>
    <g id="font_MS_UI_Gothic__3">
      <path d="M2.8 -38.2 Q2.8 -36.8 3.6 -36.0 4.4 -35.2 5.8 -35.2 7.2 -35.2 8.0 -36.0 8.8 -36.8 8.8 -38.2 8.8 -39.6 8.0 -40.4 7.2 -41.2 5.8 -41.2 4.4 -41.2 3.6 -40.4 2.8 -39.6 2.8 -38.2 M9.0 -41.4 Q10.4 -40.0 10.4 -38.2 10.4 -36.4 9.0 -35.0 7.6 -33.6 5.8 -33.6 4.0 -33.6 2.6 -35.0 1.2 -36.4 1.2 -38.2 1.2 -40.0 2.6 -41.4 4.0 -42.8 5.8 -42.8 7.6 -42.8 9.0 -41.4" fill-rule="evenodd" stroke="none"/>
    </g>
    <g id="font_MS_UI_Gothic__4">
      <path d="M2.6 -23.8 L20.0 -23.8 25.4 -41.0 30.8 -23.8 48.2 -23.8 34.0 -14.0 39.2 2.6 25.4 -7.6 11.6 2.6 16.8 -14.0 2.6 -23.8" fill-rule="evenodd" stroke="none"/>
    </g>
    <g id="font_MS_UI_Gothic_.0">
      <path d="M3.0 -5.0 L7.6 -5.0 7.6 -0.6 3.0 -0.6 3.0 -5.0" fill-rule="evenodd" stroke="none"/>
    </g>
    <g id="font_MS_UI_Gothic__5">
      <path d="M17.2 -32.6 Q20.2 -32.6 21.6 -30.2 29.4 -17.2 40.8 -6.4 L37.4 -2.2 Q26.0 -14.2 19.2 -26.4 18.6 -27.6 17.4 -27.6 16.2 -27.6 15.6 -26.4 L11.2 -18.4 Q7.4 -12.0 4.8 -9.2 L1.6 -13.0 Q6.0 -17.2 12.6 -29.2 13.8 -31.2 15.2 -32.0 16.2 -32.6 17.2 -32.6" fill-rule="evenodd" stroke="none"/>
    </g>
    <g id="font_MS_UI_Gothic__6">
      <path d="M0.0 -44.0 L51.0 -44.0 51.0 -41.8 0.0 -41.8 0.0 -44.0" fill-rule="evenodd" stroke="none"/>
    </g>
    <g id="font_MS_UI_Gothic__7">
      <path d="M4.8 -37.6 L48.4 -1.2 46.2 1.4 2.6 -35.0 4.8 -37.6" fill-rule="evenodd" stroke="none"/>
    </g>
    <g id="font_MS_UI_Gothic__8">
      <path d="M4.6 -2.6 Q3.6 -1.6 3.6 0.0 3.6 1.6 4.6 2.6 5.6 3.6 7.2 3.6 8.8 3.6 9.8 2.6 10.8 1.6 10.8 0.0 10.8 -1.6 9.8 -2.6 8.8 -3.6 7.2 -3.6 5.6 -3.6 4.6 -2.6 M10.8 -3.6 Q12.2 -2.2 12.2 0.0 12.2 2.2 10.8 3.6 9.4 5.0 7.2 5.0 5.0 5.0 3.6 3.6 2.2 2.2 2.2 0.0 2.2 -2.2 3.6 -3.6 5.0 -5.0 7.2 -5.0 9.4 -5.0 10.8 -3.6" fill-rule="evenodd" stroke="none"/>
    </g>
    <g id="font_MS_UI_Gothic__9">
      <path d="M14.4 -21.6 L14.4 -15.4 8.2 -15.4 8.2 -21.6 14.4 -21.6" fill-rule="evenodd" stroke="none"/>
    </g>
    <g id="font_MS_UI_Gothic__10">
      <path d="M26.0 -27.8 L17.4 -26.4 18.8 -17.0 30.2 -19.0 31.0 -14.8 19.4 -13.0 22.0 2.8 17.6 3.6 15.2 -12.4 3.0 -10.4 2.2 -14.8 14.6 -16.4 13.2 -25.8 5.4 -24.4 4.4 -28.8 12.4 -30.0 11.2 -39.2 15.2 -40.0 Q17.0 -40.0 15.6 -39.0 L16.6 -30.6 25.2 -32.0 26.0 -27.8" fill-rule="evenodd" stroke="none"/>
    </g>
    <g id="font_MS_UI_Gothic__11">
      <path d="M22.0 -32.0 L4.4 -32.0 4.4 -35.8 22.0 -35.8 22.0 -32.0 M2.2 -24.2 L21.4 -24.2 22.6 -25.0 25.6 -22.6 Q26.8 -21.6 25.4 -21.4 23.8 -3.8 11.0 5.4 L8.6 1.4 Q18.6 -5.4 21.0 -20.4 L2.2 -20.4 2.2 -24.2" fill-rule="evenodd" stroke="none"/>
    </g>
    <g id="font_MS_UI_Gothic__12">
      <path d="M51.0 7.0 L0.0 7.0 0.0 4.8 51.0 4.8 51.0 7.0" fill-rule="evenodd" stroke="none"/>
    </g>
    <g id="font_MS_UI_Gothic__13">
      <path d="M8.0 -43.8 L8.0 7.0 4.0 7.0 4.0 -43.8 8.0 -43.8" fill-rule="evenodd" stroke="none"/>
    </g>
    <g id="font_MS_UI_Gothic__15">
      <path d="M3.8 -7.2 L47.0 -7.2 47.0 -2.8 3.8 -2.8 3.8 -7.2 M9.2 -34.4 L42.0 -34.4 42.0 -30.0 9.2 -30.0 9.2 -34.4" fill-rule="evenodd" stroke="none"/>
    </g>
    <g id="font_MS_UI_Gothic__16">
      <path d="M13.6 -17.8 Q13.6 -5.4 3.6 4.0 L1.4 1.8 Q10.6 -6.8 10.6 -17.8 10.6 -28.8 1.4 -37.4 L3.6 -39.6 Q13.6 -30.2 13.6 -17.8" fill-rule="evenodd" stroke="none"/>
    </g>
    <g id="font_MS_UI_Gothic__17">
      <path d="M3.0 -23.4 L20.4 -23.4 25.6 -39.8 30.8 -23.4 48.2 -23.4 34.2 -13.6 39.4 2.6 25.6 -7.4 11.8 2.6 17.0 -13.6 3.0 -23.4 M33.2 -6.0 L30.6 -15.0 38.2 -20.2 28.6 -20.2 25.6 -28.8 22.6 -20.2 13.0 -20.2 20.6 -15.0 17.8 -6.0 25.6 -11.4 33.2 -6.0" fill-rule="evenodd" stroke="none"/>
    </g>
    <g id="font_MS_UI_Gothic__18">
      <path d="M11.8 -30.4 Q14.0 -35.0 19.2 -39.8 L21.4 -37.8 Q16.4 -33.2 14.4 -29.0 12.2 -24.4 12.2 -18.0 12.2 -12.6 14.4 -7.8 16.4 -3.4 21.4 2.0 L19.2 4.2 Q14.2 -1.4 11.8 -6.4 9.2 -11.8 9.2 -18.0 9.2 -25.0 11.8 -30.4" fill-rule="evenodd" stroke="none"/>
    </g>
    <g id="font_MS_UI_Gothic__19">
      <path d="M1.4 -13.8 L24.2 -13.8 24.2 -10.6 1.4 -10.6 1.4 -13.8 M1.4 -26.0 L24.2 -26.0 24.2 -22.8 1.4 -22.8 1.4 -26.0" fill-rule="evenodd" stroke="none"/>
    </g>
    <g id="font_MS_UI_Gothic__20">
      <path d="M19.6 -26.6 Q11.8 -17.8 11.8 -10.0 11.8 -5.8 13.0 -4.6 14.2 -3.4 16.0 -3.4 18.6 -3.4 20.4 -5.2 22.6 -7.4 23.0 -9.0 22.6 -10.8 23.0 -14.0 23.2 -16.2 24.8 -19.4 26.2 -22.2 27.6 -22.2 29.2 -22.2 29.2 -18.0 29.2 -15.4 28.2 -12.2 27.6 -10.2 26.4 -8.4 26.4 -6.4 27.8 -5.0 29.2 -3.6 31.6 -3.6 34.2 -3.6 36.0 -5.4 39.2 -8.6 39.2 -16.4 39.2 -22.6 37.4 -27.4 L41.2 -28.4 Q43.4 -22.8 43.4 -16.4 43.4 -7.2 39.0 -2.8 36.2 0.0 31.8 0.0 28.0 0.0 26.0 -2.0 24.4 -3.6 24.0 -5.0 23.4 -3.8 22.0 -2.4 19.6 0.0 16.0 0.0 12.6 0.0 10.4 -2.2 8.2 -4.4 8.2 -10.0 8.2 -19.2 16.2 -28.4 L19.6 -26.6" fill-rule="evenodd" stroke="none"/>
    </g>
    <g id="font_MS_UI_Gothic__21">
      <path d="M13.6 -6.4 Q11.2 -1.4 6.2 4.2 L4.0 2.0 Q9.0 -3.4 11.0 -7.8 13.2 -12.6 13.2 -18.0 13.2 -24.4 11.0 -29.0 9.0 -33.2 4.0 -37.8 L6.2 -39.8 Q11.4 -35.0 13.6 -30.4 16.2 -25.0 16.2 -18.0 16.2 -11.8 13.6 -6.4" fill-rule="evenodd" stroke="none"/>
    </g>
    <g id="font_MS_UI_Gothic__22">
      <path d="M33.4 -30.2 Q38.0 -26.2 37.6 -18.0 37.2 -9.6 31.2 -5.2 25.6 -1.0 15.4 -1.0 L14.4 -5.6 Q26.0 -5.6 30.2 -10.4 33.4 -13.6 33.2 -19.6 33.2 -23.8 31.0 -26.4 29.0 -28.8 25.4 -29.0 21.4 -29.2 15.2 -27.0 L4.0 -22.2 2.2 -27.2 15.0 -31.6 Q20.8 -33.2 24.8 -33.2 30.0 -33.2 33.4 -30.2" fill-rule="evenodd" stroke="none"/>
    </g>
    <g id="font_MS_UI_Gothic__23">
      <path d="M48.4 -35.0 L4.8 1.4 2.6 -1.2 46.2 -37.6 48.4 -35.0" fill-rule="evenodd" stroke="none"/>
    </g>
    <g id="font_MS_UI_Gothic__24">
      <path d="M4.0 -4.8 L47.2 -4.8 47.2 -0.4 4.0 -0.4 4.0 -4.8 M10.4 -21.0 L40.8 -21.0 40.8 -16.6 10.4 -16.6 10.4 -21.0 M7.8 -36.2 L43.6 -36.2 43.6 -31.8 7.8 -31.8 7.8 -36.2" fill-rule="evenodd" stroke="none"/>
    </g>
    <g id="font_MS_UI_Gothic__25">
      <path d="M22.8 -18.4 L12.4 4.8 9.8 3.6 19.6 -18.4 9.8 -40.4 12.4 -41.6 22.8 -18.4 M16.0 -18.4 L5.6 4.8 3.0 3.6 12.8 -18.4 3.0 -40.4 5.6 -41.6 16.0 -18.4" fill-rule="evenodd" stroke="none"/>
    </g>
    <g id="font_MS_UI_Gothic__26">
      <path d="M0.0 -21.6 L51.0 -21.6 51.0 -15.4 0.0 -15.4 0.0 -21.6" fill-rule="evenodd" stroke="none"/>
    </g>
    <g id="font_MS_UI_Gothic__27">
      <path d="M24.4 -36.2 L3.2 1.6 1.2 0.4 22.4 -37.4 24.4 -36.2" fill-rule="evenodd" stroke="none"/>
    </g>
    <g id="font_MS_UI_Gothic__28">
      <path d="M25.0 -10.8 Q30.8 -15.8 33.8 -23.2 L37.0 -19.2 Q33.4 -11.6 26.6 -6.4 19.6 -0.8 10.0 2.0 L7.4 -1.6 7.4 -39.4 12.0 -39.4 12.0 -3.6 Q19.2 -5.8 25.0 -10.8" fill-rule="evenodd" stroke="none"/>
    </g>
    <g id="font_MS_UI_Gothic__29">
      <path d="M24.0 -34.4 Q20.2 -30.6 18.4 -22.4 L33.2 -22.4 Q33.8 -25.8 33.8 -28.8 33.8 -33.6 32.0 -35.4 30.8 -36.6 28.8 -36.6 26.2 -36.6 24.0 -34.4 M35.2 -37.8 Q37.8 -35.2 37.8 -29.0 37.8 -11.4 29.6 -3.2 26.2 0.2 21.2 0.2 18.2 0.2 15.8 -2.2 13.0 -5.0 13.0 -11.8 13.0 -28.4 21.2 -36.6 24.6 -40.0 29.6 -40.0 33.0 -40.0 35.2 -37.8 M17.0 -11.8 Q17.0 -6.4 18.8 -4.6 20.0 -3.4 22.0 -3.4 24.6 -3.4 27.0 -5.8 30.6 -9.4 32.6 -18.6 L17.6 -18.6 Q17.0 -14.8 17.0 -11.8" fill-rule="evenodd" stroke="none"/>
    </g>
  </defs>
</svg>
