<?xml version="1.0" encoding="UTF-8" standalone="no"?>
<svg xmlns:ffdec="https://www.free-decompiler.com/flash" xmlns:xlink="http://www.w3.org/1999/xlink" ffdec:objectType="frame" height="280.0px" width="720.0px" xmlns="http://www.w3.org/2000/svg">
  <g transform="matrix(1.0, 0.0, 0.0, 1.0, 0.0, 0.0)">
    <use ffdec:characterId="1" height="146.85" transform="matrix(1.0, 0.0, 0.0, 1.0, 3.45, 3.35)" width="264.7" xlink:href="#shape0"/>
  </g>
  <defs>
    <g id="shape0" transform="matrix(1.0, 0.0, 0.0, 1.0, -3.45, -3.35)">
      <path d="M268.15 4.05 L256.8 13.45 256.25 12.8 267.55 3.35 268.15 4.05 M256.75 19.05 L245.45 28.5 244.9 27.85 256.2 18.4 256.75 19.05 M247.55 34.1 L236.25 43.5 235.7 42.85 247.0 33.45 247.55 34.1 M228.45 4.05 L217.15 13.45 216.6 12.8 227.9 3.35 228.45 4.05 M217.85 19.05 L206.55 28.5 205.95 27.85 217.3 18.4 217.85 19.05 M207.8 34.1 L196.45 43.5 195.9 42.85 207.2 33.45 207.8 34.1 M221.75 44.4 L234.95 44.4 234.95 45.0 221.75 45.0 221.75 44.4 M221.7 44.4 L221.7 45.0 208.5 45.0 208.5 44.4 221.7 44.4 M207.95 48.5 Q205.55 50.7 205.55 53.6 205.55 56.4 207.95 58.7 L207.4 59.2 Q204.8 56.8 204.8 53.6 204.8 50.35 207.4 47.95 L207.95 48.5 M235.8 47.95 Q238.4 50.35 238.4 53.6 238.4 56.8 235.8 59.2 L235.25 58.7 Q237.6 56.4 237.6 53.6 237.6 50.7 235.25 48.5 L235.8 47.95 M184.8 4.05 L173.45 13.45 172.9 12.8 184.2 3.35 184.8 4.05 M171.5 4.05 L160.2 13.45 159.65 12.8 170.95 3.35 171.5 4.05 M172.25 19.05 L160.9 28.5 160.35 27.85 171.65 18.4 172.25 19.05 M174.95 26.85 L174.95 27.95 173.75 27.95 173.75 26.85 174.95 26.85 M177.15 34.05 L178.85 34.05 178.85 35.75 177.15 35.75 177.15 34.05 M163.85 35.55 Q168.05 38.2 170.0 40.85 L168.7 41.95 Q166.7 39.15 162.75 36.55 L163.85 35.55 M178.85 42.8 L177.15 42.8 177.15 41.1 178.85 41.1 178.85 42.8 M173.2 37.95 L182.8 37.95 182.8 38.9 173.2 38.9 173.2 37.95 M185.25 42.2 Q188.25 39.65 189.25 33.7 L190.35 34.2 Q190.7 34.4 190.35 34.5 189.3 40.4 186.05 43.25 L185.25 42.2 M194.8 49.15 L183.5 58.55 182.95 57.9 194.25 48.45 194.8 49.15 M187.2 64.15 L175.85 73.6 175.3 72.9 186.6 63.5 187.2 64.15 M168.65 72.25 Q171.65 69.7 172.65 63.75 L173.8 64.25 Q174.15 64.45 173.8 64.55 172.7 70.45 169.5 73.3 L168.65 72.25 M162.3 72.9 L160.55 72.9 160.55 71.15 162.3 71.15 162.3 72.9 M166.2 69.0 L156.6 69.0 156.6 68.0 166.2 68.0 166.2 69.0 M162.3 65.8 L160.55 65.8 160.55 64.15 162.3 64.15 162.3 65.8 M181.45 78.0 L182.05 78.6 Q179.65 80.8 179.65 83.65 179.65 86.5 182.05 88.75 L181.45 89.3 Q178.9 86.85 178.9 83.65 178.9 80.45 181.45 78.0 M168.9 79.2 L157.6 88.6 157.0 87.95 168.35 78.55 168.9 79.2 M196.35 75.05 L183.1 75.05 183.1 74.45 196.35 74.45 196.35 75.05 196.35 74.45 209.6 74.45 209.6 75.05 196.35 75.05 M182.45 89.5 L195.65 89.5 195.65 90.1 182.45 90.1 182.45 89.5 M199.6 91.95 L199.6 105.1 198.55 105.1 198.55 91.95 199.6 91.95 M196.8 94.25 L185.5 103.65 184.9 103.0 196.25 93.55 196.8 94.25 M195.7 89.5 L208.95 89.5 208.95 90.1 195.7 90.1 195.7 89.5 M226.3 61.85 L226.3 75.05 225.25 75.05 225.25 61.85 226.3 61.85 M234.85 60.0 L221.6 60.0 221.6 59.45 234.85 59.45 234.85 60.0 M221.55 60.0 L208.35 60.0 208.35 59.45 221.55 59.45 221.55 60.0 M220.4 71.95 L220.4 73.05 219.7 74.45 219.25 74.45 219.7 73.05 219.25 73.05 219.25 71.95 220.4 71.95 M213.0 76.85 L226.2 76.85 226.2 77.45 213.0 77.45 213.0 76.85 M209.9 78.0 Q212.5 80.45 212.5 83.65 212.5 86.85 209.9 89.3 L209.35 88.75 Q211.7 86.5 211.7 83.65 211.7 80.8 209.35 78.6 L209.9 78.0 M223.2 61.85 L223.2 75.05 222.15 75.05 222.15 61.85 223.2 61.85 M202.7 91.95 L202.7 105.1 201.65 105.1 201.65 91.95 202.7 91.95 M202.1 106.95 L202.1 107.5 188.9 107.5 188.9 106.95 202.1 106.95 M179.4 109.25 L168.05 118.7 167.5 118.0 178.8 108.6 179.4 109.25 M158.95 19.05 L147.65 28.5 147.05 27.85 158.4 18.4 158.95 19.05 M135.6 42.85 L146.95 33.45 147.5 34.1 136.2 43.5 135.6 42.85 M133.85 49.15 L122.55 58.55 121.95 57.9 133.3 48.45 133.85 49.15 M147.1 49.15 L135.8 58.55 135.2 57.9 146.55 48.45 147.1 49.15 M148.9 42.85 L160.2 33.45 160.8 34.1 149.45 43.5 148.9 42.85 M117.25 59.5 L117.25 58.85 121.25 58.85 121.25 59.5 117.25 59.5 M117.25 60.0 L104.0 60.0 104.0 59.45 117.25 59.45 117.25 60.0 M103.95 60.0 L90.75 60.0 90.75 59.45 103.95 59.45 103.95 60.0 M108.45 72.55 L97.3 72.55 97.3 71.4 108.45 71.4 108.45 72.55 M110.55 71.4 L121.75 71.4 121.75 72.55 110.55 72.55 110.55 71.4 M107.2 65.45 L98.7 65.45 98.7 64.3 107.2 64.3 107.2 65.45 M120.45 65.45 L111.95 65.45 111.95 64.3 120.45 64.3 120.45 65.45 M90.7 60.0 L77.5 60.0 77.5 59.45 90.7 59.45 90.7 60.0 M85.45 64.3 L93.95 64.3 93.95 65.45 85.45 65.45 85.45 64.3 M84.0 71.4 L95.2 71.4 95.2 72.55 84.0 72.55 84.0 71.4 M81.95 72.55 L70.75 72.55 70.75 71.4 81.95 71.4 81.95 72.55 M94.5 97.55 L84.9 97.55 84.9 96.6 94.5 96.6 94.5 97.55 M81.25 97.55 L71.65 97.55 71.65 96.6 81.25 96.6 81.25 97.55 M98.15 96.6 L107.75 96.6 107.75 97.55 98.15 97.55 98.15 96.6 M111.45 96.6 L121.05 96.6 121.05 97.55 111.45 97.55 111.45 96.6 M146.2 66.6 L147.3 65.65 Q151.45 68.3 153.4 70.95 L152.1 72.05 Q150.1 69.2 146.2 66.6 M123.5 72.9 L134.85 63.5 135.4 64.15 124.1 73.6 123.5 72.9 M124.7 96.6 L134.3 96.6 134.3 97.55 124.7 97.55 124.7 96.6 M137.95 96.6 L147.55 96.6 147.55 97.55 137.95 97.55 137.95 96.6 M151.25 96.6 L160.8 96.6 160.8 97.55 151.25 97.55 151.25 96.6 M64.25 5.05 L61.55 5.05 61.55 8.5 64.25 8.5 Q64.95 8.5 65.35 8.05 65.85 7.6 65.85 6.8 65.85 5.9 65.45 5.55 64.95 5.05 64.25 5.05 M61.55 9.5 L61.55 12.95 60.35 12.95 60.35 4.1 64.5 4.1 Q65.6 4.05 66.4 4.85 67.1 5.55 67.1 6.8 67.1 8.15 66.45 8.8 65.75 9.45 64.5 9.5 L61.55 9.5 M62.2 16.75 L62.2 29.95 61.1 29.95 61.1 16.75 62.2 16.75 M41.95 20.05 L36.75 20.05 36.75 21.75 40.8 21.75 40.8 22.75 31.6 22.75 31.6 21.75 35.55 21.75 35.55 20.05 30.4 20.05 30.4 19.05 35.55 19.05 35.55 17.4 36.7 17.4 Q37.2 17.5 36.75 17.85 L36.75 19.05 41.95 19.05 41.95 20.05 M53.3 28.85 L49.5 20.55 45.75 28.85 44.7 28.4 49.5 17.95 54.25 28.4 53.3 28.85 M54.35 34.9 L53.15 34.9 50.6 32.6 52.45 32.6 54.35 34.9 M46.3 32.95 L46.3 42.05 47.45 42.05 47.45 44.95 46.45 44.95 46.45 43.1 39.2 43.1 39.2 44.95 38.15 44.95 38.15 42.05 39.0 42.05 Q40.6 39.9 40.6 36.55 L40.6 32.95 46.3 32.95 M41.6 36.55 Q41.6 39.95 40.2 42.05 L45.25 42.05 45.25 33.95 41.6 33.95 41.6 36.55 M52.95 48.95 L52.95 50.1 52.25 51.65 51.75 51.65 52.25 50.1 51.75 50.1 51.75 48.95 52.95 48.95 M58.85 43.0 L58.85 38.1 Q58.85 36.25 59.95 35.2 61.1 34.05 62.65 34.05 64.2 34.05 65.35 35.2 66.4 36.25 66.45 38.1 L66.45 43.0 65.45 43.0 65.45 38.1 Q65.45 36.75 64.55 35.85 63.8 35.05 62.65 35.1 61.5 35.05 60.7 35.85 59.85 36.75 59.9 38.1 L59.9 43.0 58.85 43.0 M63.35 49.25 Q63.7 49.45 63.35 49.55 62.3 55.4 59.1 58.3 L58.25 57.25 Q61.25 54.7 62.25 48.75 L63.35 49.25 M40.4 24.1 L40.4 29.1 39.2 29.1 39.2 28.65 33.2 28.65 33.2 29.25 32.05 29.25 32.05 24.1 40.4 24.1 M18.2 28.4 L22.95 17.95 27.75 28.4 26.75 28.85 22.95 20.55 19.2 28.85 18.2 28.4 M17.25 32.85 L17.8 33.4 Q16.5 34.55 16.0 35.65 15.4 36.85 15.4 38.55 15.4 39.9 16.0 41.15 L17.8 43.7 17.25 44.25 Q15.9 42.8 15.3 41.55 14.65 40.1 14.65 38.55 14.65 36.7 15.3 35.3 15.9 34.1 17.25 32.85 M17.8 48.45 Q16.5 49.55 16.0 50.7 15.4 51.85 15.4 53.55 15.4 54.9 16.0 56.15 16.5 57.3 17.8 58.75 L17.25 59.3 Q15.9 57.85 15.3 56.55 14.65 55.15 14.65 53.55 14.65 51.75 15.3 50.35 15.9 49.1 17.25 47.9 L17.8 48.45 M39.2 25.1 L33.2 25.1 33.2 27.65 39.2 27.65 39.2 25.1 M32.05 34.9 L30.9 34.9 32.85 32.6 34.7 32.6 32.05 34.9 M22.8 37.1 L22.8 38.25 21.6 38.25 21.6 37.1 22.8 37.1 M21.6 44.35 L22.1 42.95 21.6 42.95 21.6 41.85 22.8 41.85 22.8 42.95 22.15 44.35 21.6 44.35 M30.95 51.35 Q30.4 50.7 29.5 50.7 L26.85 51.2 23.95 52.45 23.5 51.15 26.8 50.0 29.35 49.6 Q30.7 49.6 31.6 50.4 32.75 51.4 32.65 53.55 32.55 55.7 31.0 56.85 29.55 57.9 26.9 57.95 L26.65 56.75 Q29.65 56.75 30.75 55.5 31.55 54.65 31.55 53.1 31.5 52.05 30.95 51.35 M28.9 72.55 L17.7 72.55 17.7 71.4 28.9 71.4 28.9 72.55 M27.6 65.45 L19.1 65.45 19.1 64.3 27.6 64.3 27.6 65.45 M30.95 71.4 L42.15 71.4 42.15 72.55 30.95 72.55 30.95 71.4 M32.4 64.3 L40.85 64.3 40.85 65.45 32.4 65.45 32.4 64.3 M4.15 72.9 L15.45 63.5 16.0 64.15 4.7 73.6 4.15 72.9 M14.9 97.55 L5.3 97.55 5.3 96.6 14.9 96.6 14.9 97.55 M18.6 96.6 L28.2 96.6 28.2 97.55 18.6 97.55 18.6 96.6 M38.45 86.2 L38.45 87.9 36.7 87.9 36.7 86.2 38.45 86.2 M32.8 83.05 L42.35 83.05 42.35 84.0 32.8 84.0 32.8 83.05 M38.45 79.15 L38.45 80.85 36.7 80.85 36.7 79.15 38.45 79.15 M29.55 85.95 L28.25 87.05 Q26.25 84.25 22.35 81.65 L23.45 80.65 Q27.65 83.3 29.55 85.95 M31.85 96.6 L41.45 96.6 41.45 97.55 31.85 97.55 31.85 96.6 M77.45 60.0 L64.2 60.0 64.2 59.45 77.45 59.45 77.45 60.0 M67.4 65.45 L58.9 65.45 58.9 64.3 67.4 64.3 67.4 65.45 M68.7 72.55 L57.5 72.55 57.5 71.4 68.7 71.4 68.7 72.55 M72.15 65.45 L72.15 64.3 80.65 64.3 80.65 65.45 72.15 65.45 M44.25 71.4 L55.4 71.4 55.4 72.55 44.25 72.55 44.25 71.4 M45.65 64.3 L54.15 64.3 54.15 65.45 45.65 65.45 45.65 64.3 M49.95 79.3 Q50.3 79.5 49.95 79.6 48.85 85.5 45.65 88.35 L44.8 87.3 Q47.8 84.75 48.85 78.8 L49.95 79.3 M45.1 96.6 L54.7 96.6 54.7 97.55 45.1 97.55 45.1 96.6 M58.4 96.6 L67.95 96.6 67.95 97.55 58.4 97.55 58.4 96.6 M61.35 123.1 Q63.95 125.55 63.95 128.75 63.95 131.95 61.35 134.4 L60.75 133.85 Q63.15 131.6 63.15 128.75 63.15 125.9 60.75 123.7 L61.35 123.1 M71.65 99.6 L81.25 99.6 81.25 100.55 71.65 100.55 71.65 99.6 M67.95 100.55 L58.4 100.55 58.4 99.6 67.95 99.6 67.95 100.55 M54.7 100.55 L45.1 100.55 45.1 99.6 54.7 99.6 54.7 100.55 M41.45 100.55 L31.85 100.55 31.85 99.6 41.45 99.6 41.45 100.55 M47.15 119.55 L60.35 119.55 60.35 120.15 47.15 120.15 47.15 119.55 M47.1 120.15 L33.9 120.15 33.9 119.55 47.1 119.55 47.1 120.15 M47.15 134.6 L60.35 134.6 60.35 135.2 47.15 135.2 47.15 134.6 M47.1 135.2 L33.9 135.2 33.9 134.6 47.1 134.6 47.1 135.2 M52.45 137.05 L52.45 150.2 51.4 150.2 51.4 137.05 52.45 137.05 M49.35 137.05 L49.35 150.2 48.3 150.2 48.3 137.05 49.35 137.05 M33.5 123.7 Q31.1 125.9 31.1 128.75 31.1 131.6 33.5 133.85 L32.9 134.4 Q30.35 131.95 30.35 128.75 30.35 125.55 32.9 123.1 L33.5 123.7 M28.2 100.55 L18.6 100.55 18.6 99.6 28.2 99.6 28.2 100.55 M14.9 100.55 L5.3 100.55 5.3 99.6 14.9 99.6 14.9 100.55 M30.0 149.65 L43.2 149.65 43.2 150.2 30.0 150.2 30.0 149.65 M29.95 150.2 L16.75 150.2 16.75 149.65 29.95 149.65 29.95 150.2 M3.45 149.65 L16.7 149.65 16.7 150.2 3.45 150.2 3.45 149.65 M80.0 149.65 L93.2 149.65 93.2 150.2 80.0 150.2 80.0 149.65 M66.7 150.2 L53.45 150.2 53.45 149.65 66.7 149.65 66.7 150.2 M66.75 149.65 L79.95 149.65 79.95 150.2 66.75 150.2 66.75 149.65 M43.25 149.05 L47.25 149.05 47.25 149.7 43.25 149.7 43.25 149.05 M160.8 100.55 L151.25 100.55 151.25 99.6 160.8 99.6 160.8 100.55 M153.0 106.95 L153.0 120.15 151.95 120.15 151.95 106.95 153.0 106.95 M147.55 100.55 L137.95 100.55 137.95 99.6 147.55 99.6 147.55 100.55 M124.7 99.6 L134.3 99.6 134.3 100.55 124.7 100.55 124.7 99.6 M151.95 141.35 L151.95 128.2 153.0 128.2 153.0 141.35 151.95 141.35 M111.45 100.55 L111.45 99.6 121.05 99.6 121.05 100.55 111.45 100.55 M107.75 100.55 L98.15 100.55 98.15 99.6 107.75 99.6 107.75 100.55 M94.5 99.6 L94.5 100.55 84.9 100.55 84.9 99.6 94.5 99.6 M106.5 150.2 L93.25 150.2 93.25 149.65 106.5 149.65 106.5 150.2 M106.55 149.65 L122.4 149.65 122.4 150.2 106.55 150.2 106.55 149.65 M148.95 150.2 L135.7 150.2 135.7 149.65 148.95 149.65 148.95 150.2 M135.65 149.65 L135.65 150.2 122.45 150.2 122.45 149.65 135.65 149.65" fill="#000000" fill-rule="evenodd" stroke="none"/>
    </g>
  </defs>
</svg>
