<?xml version="1.0" encoding="UTF-8" standalone="no"?>
<svg xmlns:ffdec="https://www.free-decompiler.com/flash" xmlns:xlink="http://www.w3.org/1999/xlink" ffdec:objectType="frame" height="280.0px" width="720.0px" xmlns="http://www.w3.org/2000/svg">
  <g transform="matrix(1.0, 0.0, 0.0, 1.0, 0.0, 0.0)">
    <use ffdec:characterId="1" height="206.85" transform="matrix(1.0, 0.0, 0.0, 1.0, 48.5, 12.9)" width="287.1" xlink:href="#shape0"/>
    <use ffdec:characterId="3" height="10.3" transform="matrix(0.9684, 0.0, 0.0, 0.9684, 178.2842, 43.2905)" width="13.55" xlink:href="#text0"/>
    <use ffdec:characterId="4" height="10.85" transform="matrix(0.9684, 0.0, 0.0, 0.9684, 166.2342, 43.2905)" width="12.35" xlink:href="#text1"/>
  </g>
  <defs>
    <g id="shape0" transform="matrix(1.0, 0.0, 0.0, 1.0, -48.5, -12.9)">
      <path d="M328.25 184.6 L328.25 184.1 334.3 184.1 334.3 190.15 333.75 190.15 333.75 184.6 328.25 184.6 M333.75 197.7 L333.75 192.15 334.3 192.15 334.3 198.15 328.25 198.15 328.25 197.7 333.75 197.7 M328.2 186.05 L316.65 186.05 316.65 185.2 328.2 185.2 328.2 186.05 M327.4 219.75 L327.4 219.25 335.6 219.25 335.6 219.75 327.4 219.75 M327.35 219.75 L315.75 219.75 315.75 219.25 327.35 219.25 327.35 219.75 M328.2 199.6 L316.65 199.6 316.65 198.75 328.2 198.75 328.2 199.6 M283.9 34.55 L290.4 34.55 290.4 41.05 289.0 41.05 289.0 35.95 283.9 35.95 283.9 34.55 M283.85 35.95 L272.3 35.95 272.3 34.55 283.85 34.55 283.85 35.95 M290.35 43.0 L290.35 54.6 288.95 54.6 288.95 43.0 290.35 43.0 M257.05 12.9 L257.05 13.45 253.6 13.45 253.6 12.9 257.05 12.9 M253.55 13.9 L241.95 13.9 241.95 13.45 253.55 13.45 253.55 13.9 M254.75 17.35 L264.65 25.6 264.15 26.2 254.2 17.95 254.75 17.35 M260.6 35.95 L249.05 35.95 249.05 34.55 260.6 34.55 260.6 35.95 M260.65 34.55 L272.25 34.55 272.25 35.95 260.65 35.95 260.65 34.55 M249.0 35.95 L237.4 35.95 237.4 34.55 249.0 34.55 249.0 35.95 M244.8 26.2 L234.9 17.95 235.45 17.35 245.3 25.6 244.8 26.2 M252.95 45.2 L252.1 45.7 251.3 44.45 252.15 43.95 252.95 45.2 M248.25 45.05 L246.7 47.35 246.7 53.65 245.8 53.65 245.8 48.4 Q244.8 49.55 243.55 50.5 L242.95 49.7 Q245.6 47.85 247.55 44.1 L248.35 44.75 Q248.65 45.05 248.25 45.05 M250.85 48.25 L249.9 48.25 249.9 45.75 254.3 45.75 254.3 43.55 255.2 43.55 Q255.5 43.6 255.25 43.85 L255.25 45.75 259.65 45.75 259.65 48.15 258.75 48.15 258.75 46.6 250.85 46.6 250.85 48.25 M252.75 49.05 L256.8 49.05 256.8 48.0 252.75 48.0 252.75 49.05 M256.55 45.35 L257.25 43.95 258.2 44.3 Q258.35 44.45 258.1 44.5 L257.35 45.7 256.55 45.35 M257.7 47.3 L257.7 49.8 255.25 49.8 255.25 50.8 258.65 50.8 258.65 51.7 255.25 51.7 255.25 52.8 259.85 52.8 259.85 53.65 249.75 53.65 249.75 52.8 254.3 52.8 254.3 51.7 250.9 51.7 250.9 50.8 254.3 50.8 254.3 49.8 251.85 49.8 251.85 47.3 257.7 47.3 M282.45 70.15 L282.45 70.6 270.85 70.6 270.85 70.15 282.45 70.15 M272.35 61.65 L283.9 61.65 283.9 63.05 272.35 63.05 272.35 61.65 M272.3 63.05 L260.7 63.05 260.7 61.65 272.3 61.65 272.3 63.05 M268.1 70.6 L256.55 70.6 256.55 70.15 268.1 70.15 268.1 70.6 M270.0 70.2 L270.0 81.7 269.1 81.7 269.1 70.2 270.0 70.2 M262.4 52.85 L261.35 52.85 261.35 51.9 262.4 51.9 262.4 52.85 M244.9 70.15 L256.5 70.15 256.5 70.6 244.9 70.6 244.9 70.15 M249.1 63.05 L249.1 61.65 260.65 61.65 260.65 63.05 249.1 63.05 M249.05 63.05 L237.45 63.05 237.45 61.65 249.05 61.65 249.05 63.05 M254.0 85.85 L251.2 85.85 251.2 86.4 253.5 86.4 253.5 87.15 251.2 87.15 251.2 87.75 254.55 87.75 254.55 88.5 247.05 88.5 247.05 87.75 250.3 87.75 250.3 87.15 248.05 87.15 248.05 86.4 250.3 86.4 250.3 85.85 247.45 85.85 247.45 85.1 250.3 85.1 250.3 84.3 251.15 84.3 Q251.5 84.3 251.2 84.55 L251.2 85.1 254.0 85.1 254.0 85.85 M262.9 84.65 L262.9 87.2 264.45 87.2 264.45 88.05 262.9 88.05 262.9 89.45 262.55 92.45 Q262.1 93.7 260.8 94.45 L260.15 93.75 Q261.25 93.15 261.55 92.4 261.95 91.55 261.95 89.45 L261.95 88.05 258.75 88.05 258.75 87.2 261.95 87.2 261.95 84.65 262.9 84.65 M257.8 85.15 Q257.25 87.1 257.2 89.2 257.2 91.4 257.8 93.8 L256.9 94.15 Q256.25 91.7 256.35 88.9 256.4 87.2 256.9 84.75 L257.8 85.15 M247.05 85.85 L246.4 86.75 Q245.85 86.05 244.95 85.5 L245.55 84.65 Q246.45 85.15 247.05 85.85 M248.8 92.55 L252.75 92.55 252.75 91.9 248.8 91.9 248.8 92.55 M248.8 91.35 L252.75 91.35 252.75 90.7 248.8 90.7 248.8 91.35 M252.75 90.2 L252.75 89.55 248.8 89.55 248.8 90.2 252.75 90.2 M246.85 90.9 L245.45 94.4 245.3 94.65 244.4 93.95 246.1 90.4 246.85 90.9 M246.7 88.4 L246.25 89.4 244.6 88.25 245.05 87.4 246.7 88.4 M245.6 97.3 L245.6 97.35 244.7 97.35 244.7 97.3 245.6 97.3 M246.9 93.9 L249.45 93.1 248.0 93.1 248.0 88.95 253.55 88.95 253.55 93.1 252.25 93.1 254.6 93.75 254.25 94.65 Q252.8 94.35 251.5 93.6 L251.8 93.1 249.8 93.1 250.15 93.65 Q250.2 94.0 249.9 93.8 248.55 94.55 247.15 94.75 L246.9 93.9 M253.0 98.45 Q253.5 98.55 253.05 98.8 L253.05 101.2 255.7 101.2 255.7 102.1 253.05 102.1 253.05 103.85 Q253.05 106.4 251.2 108.15 L250.55 107.3 Q252.1 105.85 252.15 103.4 L252.15 102.1 249.3 102.1 249.3 101.2 252.15 101.2 252.15 98.35 253.0 98.45 M270.2 83.75 L270.2 95.25 269.3 95.25 269.3 83.75 270.2 83.75 M268.85 97.35 L269.75 97.35 269.75 108.8 268.85 108.8 268.85 97.35 M280.5 92.55 L280.5 93.5 279.45 93.5 279.45 92.55 280.5 92.55 M282.9 92.55 L282.9 93.5 281.8 93.5 281.8 92.55 282.9 92.55 M274.5 97.35 L273.6 97.35 273.6 97.3 274.5 97.3 274.5 97.35 M267.0 98.75 L267.0 99.7 261.5 99.7 Q261.3 101.0 260.55 102.35 L265.95 102.35 265.95 107.85 265.0 107.85 265.0 107.15 260.55 107.15 260.55 107.85 259.65 107.85 259.65 103.5 257.65 105.25 257.05 104.25 Q259.8 102.65 260.4 99.7 L257.4 99.7 257.4 98.75 267.0 98.75 M307.45 66.9 L297.5 58.6 298.05 58.05 307.9 66.25 307.45 66.9 M290.45 56.6 L290.45 63.05 283.95 63.05 283.95 61.65 289.05 61.65 289.05 56.6 290.45 56.6 M290.6 70.2 L290.6 81.7 289.65 81.7 289.65 70.2 290.6 70.2 M291.45 70.15 L303.05 70.15 303.05 70.6 291.45 70.6 291.45 70.15 M287.85 70.2 L287.85 81.7 286.95 81.7 286.95 70.2 287.85 70.2 M287.7 83.75 L287.7 95.25 286.8 95.25 286.8 83.75 287.7 83.75 M290.45 83.75 L290.45 95.25 289.5 95.25 289.5 83.75 290.45 83.75 M285.25 92.55 L285.25 93.5 284.2 93.5 284.2 92.55 285.25 92.55 M286.35 97.35 L287.3 97.35 287.3 108.8 286.35 108.8 286.35 97.35 M291.1 97.35 L291.1 97.3 292.05 97.3 292.05 97.35 291.1 97.35 M290.0 97.3 L290.0 108.8 289.1 108.8 289.1 97.3 290.0 97.3 M230.35 13.9 L230.35 13.45 241.9 13.45 241.9 13.9 230.35 13.9 M230.3 13.9 L218.75 13.9 218.75 13.45 230.3 13.45 230.3 13.9 M218.7 13.45 L218.7 13.9 207.1 13.9 207.1 13.45 218.7 13.45 M207.05 13.9 L195.5 13.9 195.5 13.45 207.05 13.45 207.05 13.9 M216.1 17.35 L226.0 25.6 225.5 26.2 215.6 17.95 216.1 17.35 M214.15 34.55 L225.75 34.55 225.75 35.95 214.15 35.95 214.15 34.55 214.15 35.95 202.55 35.95 202.55 34.55 214.15 34.55 M206.2 26.2 L196.25 17.95 196.8 17.35 206.65 25.6 206.2 26.2 M202.5 35.95 L190.95 35.95 190.95 34.55 202.5 34.55 202.5 35.95 M202.7 46.1 L203.15 45.35 204.75 46.15 204.2 47.05 202.7 46.1 M204.5 48.75 L203.9 49.6 202.4 48.65 202.95 47.8 204.5 48.75 M206.25 44.15 L206.25 50.1 207.65 49.8 207.75 50.7 206.25 51.0 206.25 54.0 205.3 54.0 205.3 51.15 202.0 51.85 201.9 50.85 205.3 50.3 205.3 43.9 206.2 43.9 Q206.55 43.95 206.25 44.15 M217.95 49.1 L217.05 49.1 217.05 45.1 222.1 45.1 222.1 47.3 Q222.1 51.65 219.35 53.6 L218.75 52.6 Q221.2 50.95 221.2 46.9 L221.2 46.0 217.95 46.0 217.95 49.1 M237.35 35.95 L225.8 35.95 225.8 34.55 237.35 34.55 237.35 35.95 M224.35 45.05 L224.85 44.25 226.25 45.5 225.7 46.5 224.35 45.05 M225.35 48.2 L224.9 49.25 223.5 47.8 224.0 46.9 225.35 48.2 M229.55 48.0 Q228.1 51.2 224.95 53.25 224.85 53.55 224.75 53.3 L224.25 52.3 Q227.35 50.45 228.85 47.1 L229.55 48.0 M230.3 46.8 L234.0 46.8 234.0 53.4 233.2 53.4 233.2 52.85 230.35 52.85 230.35 52.15 233.2 52.15 233.2 50.15 230.55 50.15 230.55 49.4 233.2 49.4 233.2 47.55 230.3 47.55 230.3 46.8 M241.9 48.35 L241.9 49.2 235.5 49.2 235.5 48.35 241.9 48.35 M195.45 13.9 L183.85 13.9 183.85 13.45 195.45 13.45 195.45 13.9 M183.8 13.9 L172.25 13.9 172.25 13.45 183.8 13.45 183.8 13.9 M177.45 17.35 L187.35 25.6 186.85 26.2 176.95 17.95 177.45 17.35 M172.2 13.9 L160.6 13.9 160.6 13.45 172.2 13.45 172.2 13.9 M179.25 35.95 L167.7 35.95 167.7 34.55 179.25 34.55 179.25 35.95 M179.3 34.55 L190.9 34.55 190.9 35.95 179.3 35.95 179.3 34.55 M167.65 35.95 L156.05 35.95 156.05 34.55 167.65 34.55 167.65 35.95 M167.55 26.2 L157.6 17.95 158.15 17.35 168.05 25.6 167.55 26.2 M165.1 49.2 L165.1 52.85 164.15 52.85 164.15 49.45 163.85 48.65 Q163.6 48.4 163.25 48.4 162.7 48.4 162.3 48.85 161.75 49.3 161.55 50.25 L161.55 52.85 160.6 52.85 160.6 45.1 161.55 45.1 161.55 48.7 Q162.3 47.65 163.25 47.65 164.15 47.65 164.65 48.15 165.05 48.6 165.1 49.2 M173.85 47.1 L174.55 46.65 175.3 48.5 174.55 49.05 173.85 47.1 M173.8 49.2 L173.05 49.75 172.3 47.6 173.0 47.2 173.8 49.2 M177.1 47.25 Q177.4 47.35 177.1 47.5 177.0 51.85 173.85 53.75 L173.2 53.0 Q176.2 51.45 176.2 46.9 L177.1 47.25 M186.3 44.6 L190.55 44.6 190.55 43.6 191.4 43.6 Q191.75 43.65 191.4 43.9 L191.4 44.6 195.8 44.6 195.8 45.45 191.4 45.45 191.4 46.1 194.8 46.1 194.8 49.9 193.9 49.9 193.9 49.75 193.3 49.75 193.3 50.6 196.2 50.6 196.2 51.5 193.3 51.5 193.3 53.4 Q193.3 54.05 192.7 54.05 L191.45 54.05 191.35 53.2 192.2 53.2 192.4 53.0 192.4 51.5 189.25 51.5 190.6 52.6 189.9 53.35 188.3 52.0 188.8 51.5 185.85 51.5 185.85 50.6 192.4 50.6 192.4 49.75 188.15 49.75 188.15 50.0 187.25 50.0 187.25 46.1 190.55 46.1 190.55 45.45 186.3 45.45 186.3 44.6 M188.15 49.05 L190.55 49.05 190.55 48.3 188.15 48.3 188.15 49.05 M188.15 47.55 L190.55 47.55 190.55 46.85 188.15 46.85 188.15 47.55 M191.4 49.05 L193.9 49.05 193.9 48.3 191.4 48.3 191.4 49.05 M191.4 47.55 L193.9 47.55 193.9 46.85 191.4 46.85 191.4 47.55 M200.45 44.9 L200.45 46.45 202.3 46.45 202.3 47.35 200.45 47.35 200.45 48.15 202.25 49.3 201.7 50.25 200.45 49.05 200.45 54.0 199.55 54.0 199.55 49.3 198.05 51.45 197.35 50.7 Q199.3 48.8 199.55 47.35 L197.75 47.35 197.75 46.45 199.55 46.45 199.55 45.1 197.95 45.35 197.8 44.5 201.6 43.75 201.95 44.5 Q202.05 44.75 201.65 44.65 L200.45 44.9 M184.05 70.6 L172.5 70.6 172.5 70.15 184.05 70.15 184.05 70.6 M184.1 70.15 L195.7 70.15 195.7 70.6 184.1 70.6 184.1 70.15 M195.75 70.15 L207.3 70.15 207.3 70.6 195.75 70.6 195.75 70.15 M191.0 61.65 L202.55 61.65 202.55 63.05 191.0 63.05 191.0 61.65 M190.95 63.05 L179.35 63.05 179.35 61.65 190.95 61.65 190.95 63.05 M172.45 70.6 L160.85 70.6 160.85 70.15 172.45 70.15 172.45 70.6 M179.3 61.65 L179.3 63.05 167.75 63.05 167.75 61.65 179.3 61.65 M167.7 63.05 L156.1 63.05 156.1 61.65 167.7 61.65 167.7 63.05 M230.6 70.15 L242.15 70.15 242.15 70.6 241.35 70.6 241.35 81.7 240.4 81.7 240.4 70.6 230.6 70.6 230.6 70.15 M230.55 70.6 L218.95 70.6 218.95 70.15 230.55 70.15 230.55 70.6 M225.85 63.05 L225.85 61.65 237.4 61.65 237.4 63.05 225.85 63.05 M225.8 63.05 L214.2 63.05 214.2 61.65 225.8 61.65 225.8 63.05 M207.35 70.15 L218.9 70.15 218.9 70.6 207.35 70.6 207.35 70.15 M202.6 63.05 L202.6 61.65 214.15 61.65 214.15 63.05 202.6 63.05 M240.6 97.35 L241.55 97.35 241.55 108.8 240.6 108.8 240.6 97.35 M240.55 83.75 L241.5 83.75 241.5 95.25 240.55 95.25 240.55 83.75 M240.45 110.85 L241.4 110.85 241.4 122.4 240.45 122.4 240.45 110.85 M242.2 102.7 L244.55 102.7 244.55 100.5 242.9 100.5 242.9 99.65 247.55 99.65 247.55 100.5 245.45 100.5 245.45 102.7 248.25 102.7 248.25 103.55 245.45 103.55 245.45 106.0 245.6 106.3 246.45 106.45 248.0 106.3 247.85 107.3 246.45 107.4 Q245.25 107.4 244.9 107.05 244.5 106.7 244.55 106.1 L244.55 103.55 242.2 103.55 242.2 102.7 M207.4 121.7 L206.9 121.15 Q209.0 119.2 209.0 116.75 209.0 114.25 206.9 112.3 L207.4 111.8 Q209.65 113.9 209.65 116.75 209.65 119.55 207.4 121.7 M205.05 107.55 L195.15 99.3 195.7 98.7 205.55 106.95 205.05 107.55 M212.65 128.35 Q212.2 127.8 211.4 127.75 L209.1 128.2 206.55 129.3 206.15 128.2 209.05 127.2 211.25 126.8 Q212.45 126.75 213.25 127.45 214.25 128.35 214.15 130.25 214.05 132.15 212.7 133.2 211.45 134.1 209.15 134.1 L208.95 133.1 Q211.55 133.05 212.55 131.95 213.25 131.25 213.2 129.9 213.2 128.9 212.65 128.35 M203.9 147.6 L213.85 139.4 214.3 139.95 204.45 148.25 203.9 147.6 M203.3 138.4 L191.7 138.4 191.7 137.95 203.3 137.95 203.3 138.4 M192.95 107.4 L184.65 107.4 184.65 99.05 192.95 99.05 192.95 107.4 M184.35 111.55 L182.0 113.5 180.95 113.5 182.7 111.55 184.35 111.55 M191.4 118.8 L193.25 115.55 189.65 115.55 191.4 118.8 M189.15 114.65 L193.7 114.65 194.7 112.75 195.6 113.25 191.4 120.85 187.25 113.25 188.1 112.75 189.15 114.65 M201.55 113.5 L200.5 113.5 198.25 111.55 199.85 111.55 201.55 113.5 M168.95 116.75 Q168.95 113.9 171.25 111.8 L171.75 112.3 Q169.65 114.25 169.7 116.75 169.65 119.2 171.75 121.15 L171.25 121.7 Q168.95 119.55 168.95 116.75 M171.9 106.95 L181.85 98.7 182.3 99.3 172.45 107.55 171.9 106.95 M175.15 126.8 Q176.35 126.75 177.15 127.45 178.15 128.35 178.05 130.25 177.95 132.15 176.6 133.2 175.35 134.1 173.0 134.1 L172.8 133.1 Q175.4 133.05 176.4 131.95 177.1 131.25 177.1 129.9 177.1 128.9 176.55 128.35 176.1 127.8 175.3 127.75 L172.95 128.2 170.45 129.3 170.0 128.2 172.9 127.2 175.15 126.8 M180.05 131.1 Q180.05 129.45 180.9 128.6 181.55 127.95 182.45 127.95 183.35 127.95 184.0 128.8 L184.0 125.4 184.9 125.4 184.9 128.8 Q185.55 127.95 186.45 127.95 187.35 127.95 188.0 128.6 188.85 129.45 188.85 131.1 188.85 132.85 188.1 133.65 187.4 134.35 186.6 134.35 185.65 134.3 184.9 133.4 L184.9 135.8 184.0 135.8 184.0 133.4 Q183.2 134.3 182.3 134.35 181.5 134.35 180.8 133.65 180.05 132.85 180.05 131.1 M181.5 133.25 L182.4 133.55 Q183.4 133.55 184.0 132.55 L184.0 129.75 Q183.35 128.75 182.55 128.75 181.9 128.75 181.5 129.15 180.95 129.7 180.95 131.1 180.95 132.65 181.5 133.25 M168.55 125.75 Q167.45 126.75 167.0 127.75 166.45 128.8 166.5 130.25 166.45 131.45 167.0 132.55 L168.55 134.8 168.1 135.3 166.4 132.9 Q165.8 131.65 165.8 130.25 165.8 128.65 166.4 127.45 166.9 126.4 168.1 125.3 L168.55 125.75 M169.05 147.6 L178.95 139.4 179.45 139.95 169.6 148.25 169.05 147.6 M180.1 137.95 L191.65 137.95 191.65 138.4 180.1 138.4 180.1 137.95 M184.9 129.75 L184.9 132.55 Q185.45 133.55 186.5 133.55 L187.4 133.25 Q187.9 132.65 187.95 131.1 187.9 129.7 187.4 129.15 187.0 128.75 186.35 128.75 185.55 128.75 184.9 129.75 M202.3 158.05 L213.9 158.05 213.9 158.95 202.3 158.95 202.3 158.05 M191.05 163.05 L179.45 163.05 179.45 162.55 191.05 162.55 191.05 163.05 M186.15 169.1 L190.75 169.1 192.1 166.9 192.85 167.4 191.8 169.1 194.3 169.1 194.3 170.0 191.25 170.0 190.05 171.75 194.3 171.75 194.3 172.6 189.55 172.6 188.05 174.8 187.25 174.3 188.45 172.6 186.15 172.6 186.15 171.75 189.05 171.75 190.2 170.0 186.15 170.0 186.15 169.1 M196.95 166.45 L197.4 165.95 Q198.55 167.05 199.1 168.15 199.7 169.35 199.7 170.95 199.7 172.35 199.1 173.55 L197.4 176.0 196.95 175.45 198.55 173.2 Q199.0 172.15 199.0 170.95 199.0 169.5 198.55 168.45 198.05 167.45 196.95 166.45 M167.8 163.05 L156.2 163.05 156.2 162.55 167.8 162.55 167.8 163.05 M169.55 161.7 L173.7 152.55 177.85 161.7 177.0 162.1 173.7 154.8 170.4 162.1 169.55 161.7 M168.75 167.45 L164.6 175.05 160.45 167.45 161.3 167.0 162.3 168.85 166.85 168.85 167.9 167.0 168.75 167.45 M166.45 169.8 L162.8 169.8 164.6 173.05 166.45 169.8 M180.0 165.95 Q181.15 167.05 181.7 168.15 182.25 169.35 182.25 170.95 182.25 172.35 181.7 173.55 L180.0 176.0 179.5 175.45 Q180.6 174.25 181.1 173.2 181.6 172.15 181.6 170.95 181.6 169.5 181.1 168.45 180.6 167.45 179.5 166.45 L180.0 165.95 M173.7 167.75 L171.4 165.75 173.0 165.75 174.7 167.75 173.7 167.75 M176.9 169.7 L177.95 169.7 177.95 170.7 176.9 170.7 176.9 169.7 M177.95 174.85 L176.9 174.85 176.9 173.9 177.95 173.9 177.95 174.85 M165.55 186.05 L165.55 185.2 177.15 185.2 177.15 186.05 165.55 186.05 M177.2 185.2 L188.75 185.2 188.75 186.05 177.2 186.05 177.2 185.2 M165.5 186.05 L153.95 186.05 153.95 185.2 165.5 185.2 165.5 186.05 M188.8 185.2 L200.35 185.2 200.35 186.05 188.8 186.05 188.8 185.2 M200.4 185.2 L212.0 185.2 212.0 186.05 200.4 186.05 200.4 185.2 M229.1 162.55 L229.1 162.05 232.55 162.05 232.55 162.55 229.1 162.55 M229.05 163.05 L217.45 163.05 217.45 162.55 229.05 162.55 229.05 163.05 M224.55 171.75 L228.8 171.75 228.8 172.6 224.0 172.6 222.5 174.8 221.75 174.3 222.95 172.6 220.6 172.6 220.6 171.75 223.5 171.75 224.7 170.0 220.6 170.0 220.6 169.1 225.2 169.1 226.55 166.9 227.35 167.4 226.3 169.1 228.8 169.1 228.8 170.0 225.75 170.0 224.55 171.75 M235.35 166.45 Q234.2 167.45 233.8 168.45 233.25 169.5 233.25 170.95 233.25 172.15 233.8 173.2 234.2 174.25 235.35 175.45 L234.85 176.0 233.15 173.55 Q232.55 172.35 232.55 170.95 232.55 169.35 233.15 168.15 233.65 167.05 234.85 165.95 L235.35 166.45 M237.0 169.7 L238.05 169.7 238.05 170.7 237.0 170.7 237.0 169.7 M242.8 169.7 L242.8 170.7 241.75 170.7 241.75 169.7 242.8 169.7 M240.4 169.7 L240.4 170.7 239.35 170.7 239.35 169.7 240.4 169.7 M237.85 161.7 L242.0 152.55 246.2 161.7 245.3 162.1 242.0 154.8 238.7 162.1 237.85 161.7 M212.2 168.15 Q212.7 167.05 213.9 165.95 L214.35 166.45 Q213.25 167.45 212.8 168.45 212.25 169.5 212.3 170.95 212.25 172.15 212.8 173.2 213.25 174.25 214.35 175.45 L213.9 176.0 212.2 173.55 Q211.6 172.35 211.6 170.95 211.6 169.35 212.2 168.15 M212.05 185.2 L223.6 185.2 223.6 186.05 212.05 186.05 212.05 185.2 M242.8 174.85 L241.75 174.85 241.75 173.9 242.8 173.9 242.8 174.85 M238.05 174.85 L237.0 174.85 237.0 173.9 238.05 173.9 238.05 174.85 M240.4 174.85 L239.35 174.85 239.35 173.9 240.4 173.9 240.4 174.85 M223.65 186.05 L223.65 185.2 235.25 185.2 235.25 186.05 223.65 186.05 M235.3 185.2 L246.85 185.2 246.85 186.05 235.3 186.05 235.3 185.2 M283.75 106.1 L284.8 106.1 284.8 107.1 283.75 107.1 283.75 106.1 M287.6 110.85 L287.6 122.25 286.65 122.25 286.65 110.85 287.6 110.85 M290.3 110.85 L290.3 122.25 289.35 122.25 289.35 110.85 290.3 110.85 M284.05 119.65 L285.1 119.65 285.1 120.65 284.05 120.65 284.05 119.65 M285.3 122.25 L286.2 122.25 286.2 122.4 285.3 122.4 285.3 122.25 M288.0 122.25 L288.95 122.25 288.95 122.4 288.0 122.4 288.0 122.25 M287.45 124.4 L287.45 135.95 286.5 135.95 286.5 124.4 287.45 124.4 M290.15 124.4 L290.15 135.95 289.25 135.95 289.25 124.4 290.15 124.4 M287.5 137.95 L287.5 149.5 286.55 149.5 286.55 137.95 287.5 137.95 M290.2 137.95 L290.2 149.5 289.25 149.5 289.25 137.95 290.2 137.95 M279.0 106.1 L280.05 106.1 280.05 107.1 279.0 107.1 279.0 106.1 M282.45 107.1 L281.4 107.1 281.4 106.1 282.45 106.1 282.45 107.1 M268.7 110.85 L268.7 122.4 267.8 122.4 267.8 110.85 268.7 110.85 M265.0 103.2 L260.55 103.2 260.55 106.25 265.0 106.25 265.0 103.2 M264.9 121.05 Q264.9 121.75 264.2 121.75 L263.2 121.75 263.05 120.75 263.8 120.75 264.0 120.55 264.0 115.7 259.2 115.7 259.2 114.85 266.1 114.85 266.1 115.7 264.9 115.7 264.9 121.05 M265.9 113.35 L263.05 113.35 263.05 114.1 262.15 114.1 262.15 113.35 259.8 113.35 259.8 114.1 258.85 114.1 258.85 113.35 256.15 113.35 256.15 112.45 258.85 112.45 258.85 111.35 259.75 111.35 Q260.05 111.4 259.8 111.65 L259.8 112.45 262.15 112.45 262.15 111.35 263.0 111.35 Q263.35 111.4 263.05 111.65 L263.05 112.45 265.9 112.45 265.9 113.35 M282.75 120.65 L281.65 120.65 281.65 119.65 282.75 119.65 282.75 120.65 M280.35 120.65 L279.3 120.65 279.3 119.65 280.35 119.65 280.35 120.65 M250.25 113.65 Q250.25 118.0 254.5 120.25 L253.9 121.35 Q250.4 119.55 249.45 115.65 248.5 120.05 244.85 121.65 L244.35 120.6 Q248.3 118.95 248.6 114.3 L249.2 114.35 249.2 112.9 246.85 112.9 246.85 112.0 250.25 112.0 250.25 113.65 M258.45 115.8 L258.45 121.8 257.5 121.8 257.5 117.1 256.35 118.45 255.75 117.55 Q257.4 116.15 258.15 113.9 L259.05 114.25 Q259.3 114.35 258.95 114.55 L258.45 115.8 M260.3 117.4 L260.3 118.95 261.95 118.95 261.95 117.4 260.3 117.4 M262.75 116.65 L262.75 119.95 261.95 119.95 261.95 119.65 260.3 119.65 260.3 120.35 259.55 120.35 259.55 116.65 262.75 116.65 M256.5 124.35 L256.5 124.85 244.9 124.85 244.9 124.35 256.5 124.35 M256.55 124.35 L268.1 124.35 268.1 124.85 256.55 124.85 256.55 124.35 M270.45 165.95 Q271.6 167.05 272.15 168.15 272.7 169.35 272.7 170.95 272.7 172.35 272.15 173.55 271.6 174.65 270.45 176.0 L269.95 175.45 271.55 173.2 Q272.05 172.15 272.05 170.95 272.05 169.5 271.55 168.45 271.05 167.45 269.95 166.45 L270.45 165.95 M271.0 162.55 L282.6 162.55 282.6 163.05 271.0 163.05 271.0 162.55 M268.55 162.1 L265.25 154.8 261.95 162.1 261.1 161.7 265.25 152.55 269.4 161.7 268.55 162.1 M267.35 169.7 L268.4 169.7 268.4 170.7 267.35 170.7 267.35 169.7 M264.15 167.75 L261.85 165.75 263.45 165.75 265.15 167.75 264.15 167.75 M276.6 171.75 L279.5 171.75 280.65 170.0 276.6 170.0 276.6 169.1 281.2 169.1 282.55 166.9 283.3 167.4 282.25 169.1 284.75 169.1 284.75 170.0 281.7 170.0 280.5 171.75 284.75 171.75 284.75 172.6 280.0 172.6 278.5 174.8 277.7 174.3 278.9 172.6 276.6 172.6 276.6 171.75 M244.6 167.75 L246.35 165.75 247.95 165.75 245.65 167.75 244.6 167.75 M247.8 162.55 L259.35 162.55 259.35 163.05 247.8 163.05 247.8 162.55 M251.75 167.0 L252.75 168.85 257.3 168.85 258.35 167.0 259.2 167.45 255.05 175.05 250.9 167.45 251.75 167.0 M253.25 169.8 L255.05 173.05 256.9 169.8 253.25 169.8 M258.5 185.2 L258.5 186.05 246.9 186.05 246.9 185.2 258.5 185.2 M258.55 185.2 L270.1 185.2 270.1 186.05 258.55 186.05 258.55 185.2 M268.4 173.9 L268.4 174.85 267.35 174.85 267.35 173.9 268.4 173.9 M281.7 185.2 L281.7 186.05 270.15 186.05 270.15 185.2 281.7 185.2 M281.75 185.2 L293.35 185.2 293.35 186.05 281.75 186.05 281.75 185.2 M290.35 157.0 L296.4 157.0 296.4 163.05 295.85 163.05 295.85 157.5 290.35 157.5 290.35 157.0 M289.0 168.45 Q288.5 167.45 287.4 166.45 L287.85 165.95 Q289.0 167.05 289.55 168.15 290.15 169.35 290.15 170.95 290.15 172.35 289.55 173.55 L287.85 176.0 287.4 175.45 289.0 173.2 Q289.45 172.15 289.45 170.95 289.45 169.5 289.0 168.45 M297.65 165.1 L297.65 176.6 296.75 176.6 296.75 165.1 297.65 165.1 M293.4 185.2 L304.95 185.2 304.95 186.05 293.4 186.05 293.4 185.2 M305.0 186.05 L305.0 185.2 316.6 185.2 316.6 186.05 305.0 186.05 M160.55 13.45 L160.55 13.9 149.0 13.9 149.0 13.45 160.55 13.45 M148.95 13.9 L137.4 13.9 137.4 13.45 148.95 13.45 148.95 13.9 M138.85 17.35 L148.7 25.6 148.25 26.2 138.3 17.95 138.85 17.35 M137.35 13.9 L125.75 13.9 125.75 13.45 137.35 13.45 137.35 13.9 M125.7 13.9 L114.15 13.9 114.15 13.45 125.7 13.45 125.7 13.9 M132.8 35.95 L127.7 35.95 127.7 41.05 126.3 41.05 126.3 34.55 132.8 34.55 132.8 35.95 M132.85 34.55 L144.4 34.55 144.4 35.95 132.85 35.95 132.85 34.55 M128.9 26.2 L119.0 17.95 119.5 17.35 129.4 25.6 128.9 26.2 M127.8 43.0 L127.8 54.6 126.4 54.6 126.4 43.0 127.8 43.0 M156.0 35.95 L144.45 35.95 144.45 34.55 156.0 34.55 156.0 35.95 M150.65 46.1 Q150.15 46.65 150.15 47.7 L149.1 47.7 Q149.05 46.3 149.8 45.6 150.4 45.0 151.25 45.0 152.25 45.0 152.85 45.6 153.4 46.15 153.4 47.05 153.4 48.15 152.75 49.0 L151.4 50.5 150.7 51.25 150.15 52.0 153.55 52.0 153.55 52.85 148.9 52.85 148.9 52.1 149.7 50.8 151.55 48.8 Q152.3 47.95 152.35 47.05 152.35 46.5 151.95 46.1 151.65 45.85 151.3 45.9 150.9 45.85 150.65 46.1 M157.15 48.55 Q156.6 48.55 156.2 48.95 155.65 49.45 155.7 50.45 155.65 51.3 156.15 51.85 L157.1 52.15 158.1 51.85 Q158.45 51.45 158.45 50.85 L159.45 50.85 Q159.4 51.8 158.85 52.4 158.2 53.0 157.1 53.0 156.1 53.0 155.5 52.35 154.65 51.55 154.65 50.4 154.65 49.1 155.4 48.4 156.05 47.7 157.1 47.7 158.15 47.7 158.75 48.3 159.2 48.75 159.3 49.5 L158.3 49.5 157.95 48.85 Q157.65 48.55 157.15 48.55 M114.1 13.9 L102.5 13.9 102.5 13.45 114.1 13.45 114.1 13.9 M102.45 13.9 L90.9 13.9 90.9 13.45 102.45 13.45 102.45 13.9 M90.85 13.9 L79.3 13.9 79.3 13.45 90.85 13.45 90.85 13.9 M100.2 17.35 L110.05 25.6 109.6 26.2 99.65 17.95 100.2 17.35 M90.85 31.5 L91.4 30.9 101.25 39.15 100.8 39.8 90.85 31.5 M84.75 39.55 L89.55 30.95 90.0 31.2 85.2 39.85 84.75 39.55 M84.65 44.75 L79.85 53.4 79.4 53.1 84.2 44.5 84.65 44.75 M90.25 26.2 L80.35 17.95 80.85 17.35 90.75 25.6 90.25 26.2 M110.15 31.5 L110.7 30.9 120.6 39.15 120.1 39.8 110.15 31.5 M103.1 44.45 L113.0 52.7 112.5 53.35 102.55 45.05 103.1 44.45 M101.7 44.75 L96.9 53.4 96.45 53.1 101.25 44.5 101.7 44.75 M112.1 58.05 L122.0 66.25 121.5 66.9 111.55 58.6 112.1 58.05 M110.95 67.15 L110.95 67.65 107.45 67.65 107.45 67.15 110.95 67.15 M107.4 67.65 L103.9 67.65 103.9 67.15 107.4 67.15 107.4 67.65 M103.85 67.65 L100.4 67.65 100.4 67.15 103.85 67.15 103.85 67.65 M108.1 70.2 L108.1 81.7 107.15 81.7 107.15 70.2 108.1 70.2 M110.8 70.2 L110.8 81.7 109.9 81.7 109.9 70.2 110.8 70.2 M111.65 70.15 L123.25 70.15 123.25 70.6 111.65 70.6 111.65 70.15 M96.55 58.3 L91.75 66.95 91.35 66.65 96.15 58.1 96.55 58.3 M88.65 70.2 L88.65 81.7 87.75 81.7 87.75 70.2 88.65 70.2 M91.0 68.15 L79.4 68.15 79.4 67.65 91.0 67.65 91.0 68.15 M100.35 67.15 L100.35 67.65 96.85 67.65 96.85 67.15 100.35 67.15 M91.4 70.2 L91.4 81.7 90.45 81.7 90.45 70.2 91.4 70.2 M93.95 80.35 L98.1 71.2 102.3 80.35 101.4 80.75 98.1 73.5 94.8 80.75 93.95 80.35 M99.7 84.6 Q101.35 84.6 102.65 85.4 L104.8 87.15 104.3 87.45 102.1 85.85 Q100.95 85.3 99.7 85.3 98.35 85.3 97.2 85.85 96.2 86.25 95.05 87.45 L94.65 87.15 Q95.5 86.05 96.75 85.4 98.2 84.6 99.7 84.6 M84.35 80.75 L81.05 73.5 77.8 80.75 76.9 80.35 81.05 71.2 85.25 80.35 84.35 80.75 M90.05 85.45 L85.3 94.05 84.85 93.75 89.65 85.2 90.05 85.45 M91.0 97.3 L91.0 108.8 90.05 108.8 90.05 97.3 91.0 97.3 M84.75 97.3 L84.75 108.8 83.85 108.8 83.85 97.3 84.75 97.3 M104.55 79.0 L105.6 79.0 105.6 79.95 104.55 79.95 104.55 79.0 M107.35 83.75 L107.35 95.25 106.45 95.25 106.45 83.75 107.35 83.75 M110.05 83.75 L110.05 95.25 109.15 95.25 109.15 83.75 110.05 83.75 M110.0 97.3 L110.0 108.8 109.1 108.8 109.1 97.3 110.0 97.3 M107.3 97.3 L107.3 108.8 106.4 108.8 106.4 97.3 107.3 97.3 M110.9 97.25 L122.45 97.25 122.45 97.75 110.9 97.75 110.9 97.25 M111.6 92.55 L112.7 92.55 112.7 93.5 111.6 93.5 111.6 92.55 M146.5 70.6 L134.9 70.6 134.9 70.15 146.5 70.15 146.5 70.6 M146.55 70.15 L158.1 70.15 158.1 70.6 146.55 70.6 146.55 70.15 M159.05 71.15 L159.05 70.2 160.0 70.2 160.0 71.15 159.3 71.15 159.3 81.7 158.4 81.7 158.4 71.15 159.05 71.15 M156.05 61.65 L156.05 63.05 144.5 63.05 144.5 61.65 156.05 61.65 M144.45 63.05 L132.9 63.05 132.9 61.65 144.45 61.65 144.45 63.05 M127.75 56.6 L127.75 61.65 132.85 61.65 132.85 63.05 126.35 63.05 126.35 56.6 127.75 56.6 M123.3 70.15 L134.85 70.15 134.85 70.6 123.3 70.6 123.3 70.15 M131.2 85.2 L131.2 93.85 122.5 93.85 122.5 85.2 131.2 85.2 M123.45 86.05 L123.45 93.0 130.25 93.0 130.25 86.05 123.45 86.05 M122.5 97.25 L134.1 97.25 134.1 97.75 122.5 97.75 122.5 97.25 M134.15 97.25 L145.7 97.25 145.7 97.75 134.15 97.75 134.15 97.25 M134.15 85.2 L142.8 85.2 142.8 93.85 134.15 93.85 134.15 85.2 M135.05 93.0 L141.9 93.0 141.9 86.05 135.05 86.05 135.05 93.0 M159.4 83.75 L159.4 95.25 158.5 95.25 158.5 83.75 159.4 83.75 M145.75 97.25 L157.35 97.25 157.35 97.75 145.75 97.75 145.75 97.25 M156.95 93.5 L155.9 93.5 155.9 92.55 156.95 92.55 156.95 93.5 M159.2 97.3 L159.2 108.8 158.3 108.8 158.3 97.3 159.2 97.3 M153.45 86.8 L153.45 87.95 150.0 93.75 145.15 85.4 154.3 85.4 153.45 86.8 M146.75 86.25 L150.0 91.95 152.8 87.25 152.8 86.25 146.75 86.25 M79.45 17.65 L74.7 26.25 74.25 26.0 79.05 17.4 79.45 17.65 M72.25 24.75 L73.3 24.75 73.3 25.75 72.25 25.75 72.25 24.75 M72.95 31.2 L68.15 39.85 67.7 39.55 72.5 30.95 72.95 31.2 M67.6 44.75 L62.8 53.4 62.4 53.1 67.15 44.5 67.6 44.75 M79.15 58.3 L74.35 66.95 73.9 66.65 78.7 58.1 79.15 58.3 M61.7 58.3 L56.9 66.95 56.45 66.65 61.25 58.1 61.7 58.3 M61.45 52.85 L60.4 52.85 60.4 51.9 61.45 51.9 61.45 52.85 M62.0 67.65 L73.55 67.65 73.55 68.15 62.0 68.15 62.0 67.65 M74.35 70.2 L74.35 81.7 73.4 81.7 73.4 70.2 74.35 70.2 M71.65 70.2 L71.65 81.7 70.7 81.7 70.7 70.2 71.65 70.2 M74.35 83.75 L74.35 95.25 73.4 95.25 73.4 83.75 74.35 83.75 M80.05 85.1 Q78.95 86.1 78.5 87.1 77.95 88.15 77.95 89.6 77.95 90.8 78.5 91.9 78.95 92.9 80.05 94.1 L79.55 94.65 77.85 92.2 Q77.25 91.0 77.3 89.6 77.25 88.0 77.85 86.8 78.4 85.7 79.55 84.6 L80.05 85.1 M68.1 79.0 L69.15 79.0 69.15 79.95 68.1 79.95 68.1 79.0 M69.15 92.55 L69.15 93.5 68.1 93.5 68.1 92.55 69.15 92.55 M74.35 97.3 L74.35 108.8 73.4 108.8 73.4 97.3 74.35 97.3 M71.65 97.3 L71.65 108.8 70.7 108.8 70.7 97.3 71.65 97.3 M71.65 95.25 L70.7 95.25 70.7 83.75 71.65 83.75 71.65 95.25 M74.35 110.85 L74.35 122.4 73.4 122.4 73.4 110.85 74.35 110.85 M68.1 106.1 L69.15 106.1 69.15 107.1 68.1 107.1 68.1 106.1 M69.15 120.65 L68.1 120.65 68.1 119.65 69.15 119.65 69.15 120.65 M70.7 110.85 L71.65 110.85 71.65 122.4 70.7 122.4 70.7 110.85 M74.35 124.4 L74.35 135.95 73.4 135.95 73.4 124.4 74.35 124.4 M71.65 135.95 L70.7 135.95 70.7 124.4 71.65 124.4 71.65 135.95 M68.1 133.25 L69.15 133.25 69.15 134.2 68.1 134.2 68.1 133.25 M68.1 146.8 L69.15 146.8 69.15 147.75 68.1 147.75 68.1 146.8 M74.35 137.95 L74.35 149.5 73.4 149.5 73.4 137.95 74.35 137.95 M71.65 137.95 L71.65 149.5 70.7 149.5 70.7 137.95 71.65 137.95 M73.85 151.5 L73.85 157.0 79.35 157.0 79.35 157.5 67.8 157.5 67.8 157.0 73.3 157.0 73.3 151.5 73.85 151.5 M79.4 157.0 L91.0 157.0 91.0 157.5 79.4 157.5 79.4 157.0 M67.75 157.5 L62.25 157.5 62.25 163.05 61.7 163.05 61.7 157.0 67.75 157.0 67.75 157.5 M62.25 165.05 L62.25 176.6 61.7 176.6 61.7 165.05 62.25 165.05 M62.25 192.15 L62.25 203.75 61.7 203.75 61.7 192.15 62.25 192.15 M62.25 178.6 L62.25 190.15 61.7 190.15 61.7 178.6 62.25 178.6 M160.0 110.85 L160.0 122.4 159.05 122.4 159.05 110.85 160.0 110.85 M146.5 122.4 L134.9 122.4 134.9 121.9 146.5 121.9 146.5 122.4 M146.55 121.9 L158.1 121.9 158.1 122.4 146.55 122.4 146.55 121.9 M123.3 122.4 L123.3 121.9 134.85 121.9 134.85 122.4 123.3 122.4 M123.25 122.4 L111.65 122.4 111.65 121.9 123.25 121.9 123.25 122.4 M159.3 135.95 L158.4 135.95 158.4 124.4 159.3 124.4 159.3 135.95 M152.25 133.25 L153.3 133.25 153.3 134.2 152.25 134.2 152.25 133.25 M143.8 134.2 L142.75 134.2 142.75 133.25 143.8 133.25 143.8 134.2 M145.15 134.2 L145.15 133.25 146.2 133.25 146.2 134.2 145.55 135.45 145.15 135.45 145.55 134.2 145.15 134.2 M149.85 133.25 L150.95 133.25 150.95 134.2 149.85 134.2 149.85 133.25 M147.5 133.25 L148.55 133.25 148.55 134.2 147.5 134.2 147.5 133.25 M159.9 137.95 L159.9 149.5 159.0 149.5 159.0 137.95 159.9 137.95 M103.8 107.1 L103.8 106.1 104.85 106.1 104.85 107.1 103.8 107.1 M108.1 110.85 L108.1 122.4 107.15 122.4 107.15 110.85 108.1 110.85 M110.8 110.85 L110.8 122.4 109.9 122.4 109.9 110.85 110.8 110.85 M105.6 120.65 L104.55 120.65 104.55 119.65 105.6 119.65 105.6 120.65 M103.6 112.55 L98.8 121.15 98.35 120.9 103.15 112.3 103.6 112.55 M86.45 119.65 Q85.45 118.7 85.45 117.1 L85.45 112.8 86.35 112.8 86.35 117.1 Q86.35 118.25 87.1 119.05 87.8 119.7 88.8 119.7 89.8 119.7 90.5 119.05 91.25 118.25 91.3 117.1 L91.3 112.8 92.1 112.8 92.1 117.1 Q92.1 118.7 91.2 119.65 90.15 120.6 88.8 120.65 87.45 120.6 86.45 119.65 M97.75 124.35 L97.75 135.95 96.9 135.95 96.9 124.35 97.75 124.35 M87.1 135.95 L86.2 135.95 86.2 124.4 87.1 124.4 87.1 135.95 M84.65 133.25 L84.65 134.2 83.6 134.2 83.6 133.25 84.65 133.25 M86.35 144.2 Q86.35 145.35 87.1 146.15 87.8 146.85 88.8 146.85 89.8 146.85 90.5 146.15 91.25 145.35 91.3 144.2 L91.3 139.9 92.1 139.9 92.1 144.2 Q92.1 145.8 91.2 146.8 90.15 147.75 88.8 147.75 87.45 147.75 86.45 146.8 85.45 145.8 85.45 144.2 L85.45 139.9 86.35 139.9 86.35 144.2 M97.95 139.9 L97.95 144.2 Q97.95 145.35 98.75 146.15 99.4 146.85 100.45 146.85 101.45 146.85 102.15 146.15 102.9 145.35 102.9 144.2 L102.9 139.9 103.75 139.9 103.75 144.2 Q103.7 145.8 102.8 146.8 101.8 147.75 100.45 147.75 99.05 147.75 98.05 146.8 97.1 145.8 97.1 144.2 L97.1 139.9 97.95 139.9 M107.7 124.4 L107.7 135.95 106.8 135.95 106.8 124.4 107.7 124.4 M110.4 124.4 L110.4 135.95 109.5 135.95 109.5 124.4 110.4 124.4 M105.0 124.4 L105.0 135.95 104.05 135.95 104.05 124.4 105.0 124.4 M110.7 137.95 L110.7 149.5 109.8 149.5 109.8 137.95 110.7 137.95 M108.0 137.95 L108.0 149.5 107.05 149.5 107.05 137.95 108.0 137.95 M111.55 149.0 L123.15 149.0 123.15 149.5 111.55 149.5 111.55 149.0 M114.3 157.0 L125.85 157.0 125.85 157.5 120.35 157.5 120.35 163.05 119.8 163.05 119.8 157.5 114.3 157.5 114.3 157.0 M114.25 157.5 L102.65 157.5 102.65 157.0 108.2 157.0 108.2 151.5 108.7 151.5 108.7 157.0 114.25 157.0 114.25 157.5 M102.6 157.5 L91.05 157.5 91.05 157.0 102.6 157.0 102.6 157.5 M118.2 165.1 L118.2 176.6 117.3 176.6 117.3 165.1 118.2 165.1 M115.75 173.9 L115.75 174.85 115.5 174.85 115.5 173.9 115.75 173.9 M118.2 178.65 L118.2 190.15 117.3 190.15 117.3 178.65 118.2 178.65 M118.2 192.2 L118.2 203.75 117.3 203.75 117.3 192.2 118.2 192.2 M119.1 185.2 L130.65 185.2 130.65 186.05 119.1 186.05 119.1 185.2 M158.0 149.5 L146.45 149.5 146.45 149.0 158.0 149.0 158.0 149.5 M146.4 149.5 L134.8 149.5 134.8 149.0 146.4 149.0 146.4 149.5 M144.9 166.45 Q143.75 167.45 143.35 168.45 142.8 169.5 142.8 170.95 142.8 172.15 143.35 173.2 143.75 174.25 144.9 175.45 L144.4 176.0 142.7 173.55 Q142.1 172.35 142.15 170.95 142.1 169.35 142.7 168.15 143.25 167.05 144.4 165.95 L144.9 166.45 M146.55 169.7 L147.6 169.7 147.6 170.7 146.55 170.7 146.55 169.7 M149.95 170.7 L148.9 170.7 148.9 169.7 149.95 169.7 149.95 170.7 M151.3 169.7 L152.35 169.7 152.35 170.7 151.3 170.7 151.3 169.7 M146.3 161.7 L150.45 152.55 154.6 161.7 153.75 162.1 150.45 154.8 147.15 162.1 146.3 161.7 M154.15 167.75 L155.9 165.75 157.5 165.75 155.2 167.75 154.15 167.75 M134.75 149.5 L123.2 149.5 123.2 149.0 134.75 149.0 134.75 149.5 M122.35 168.45 Q121.8 169.5 121.85 170.95 121.8 172.15 122.35 173.2 122.8 174.25 123.9 175.45 L123.45 176.0 121.75 173.55 Q121.15 172.35 121.15 170.95 121.15 169.35 121.75 168.15 122.25 167.05 123.45 165.95 L123.9 166.45 Q122.8 167.45 122.35 168.45 M130.15 169.1 L134.75 169.1 136.1 166.9 136.9 167.4 135.85 169.1 138.35 169.1 138.35 170.0 135.3 170.0 134.1 171.75 138.35 171.75 138.35 172.6 133.55 172.6 132.05 174.8 131.3 174.3 132.5 172.6 130.15 172.6 130.15 171.75 133.05 171.75 134.25 170.0 130.15 170.0 130.15 169.1 M125.9 162.55 L137.5 162.55 137.5 163.05 125.9 163.05 125.9 162.55 M141.0 162.55 L137.55 162.55 137.55 162.05 141.0 162.05 141.0 162.55 M130.7 185.2 L142.25 185.2 142.25 186.05 130.7 186.05 130.7 185.2 M152.35 174.85 L151.3 174.85 151.3 173.9 152.35 173.9 152.35 174.85 M153.9 184.6 L148.35 184.6 148.35 190.15 147.85 190.15 147.85 184.6 142.3 184.6 142.3 184.1 153.9 184.1 153.9 184.6 M147.6 174.85 L146.55 174.85 146.55 173.9 147.6 173.9 147.6 174.85 M149.95 174.85 L148.9 174.85 148.9 173.9 149.95 173.9 149.95 174.85 M148.35 192.15 L148.35 197.7 153.9 197.7 153.9 198.15 142.3 198.15 142.3 197.7 147.85 197.7 147.85 192.15 148.35 192.15 M153.0 219.75 L141.45 219.75 141.45 219.25 153.0 219.25 153.0 219.75 M153.05 219.25 L164.65 219.25 164.65 219.75 153.05 219.75 153.05 219.25 M142.25 199.6 L130.7 199.6 130.7 198.75 142.25 198.75 142.25 199.6 M153.95 198.75 L165.5 198.75 165.5 199.6 153.95 199.6 153.95 198.75 M141.4 219.25 L141.4 219.75 129.85 219.75 129.85 219.25 141.4 219.25 M129.8 219.75 L118.2 219.75 118.2 219.25 129.8 219.25 129.8 219.75 M130.65 199.6 L119.1 199.6 119.1 198.75 130.65 198.75 130.65 199.6 M118.2 205.75 L118.2 217.3 117.3 217.3 117.3 205.75 118.2 205.75 M106.55 219.75 L94.95 219.75 94.95 219.25 106.55 219.25 106.55 219.75 M106.6 219.25 L118.15 219.25 118.15 219.75 106.6 219.75 106.6 219.25 M94.9 219.25 L94.9 219.75 83.35 219.75 83.35 219.25 94.9 219.25 M83.3 219.75 L71.7 219.75 71.7 219.25 83.3 219.25 83.3 219.75 M62.25 217.3 L61.7 217.3 61.7 205.7 62.25 205.7 62.25 217.3 M71.65 219.75 L60.1 219.75 60.1 219.25 71.65 219.25 71.65 219.75 M60.05 219.75 L48.5 219.75 48.5 219.25 60.05 219.25 60.05 219.75 M316.6 199.6 L305.0 199.6 305.0 198.75 316.6 198.75 316.6 199.6 M304.95 199.6 L293.4 199.6 293.4 198.75 304.95 198.75 304.95 199.6 M304.1 219.75 L292.5 219.75 292.5 219.25 304.1 219.25 304.1 219.75 M304.15 219.25 L315.7 219.25 315.7 219.75 304.15 219.75 304.15 219.25 M289.35 205.75 L290.3 205.75 290.3 217.3 289.35 217.3 289.35 205.75 M292.45 219.75 L280.9 219.75 280.9 219.25 292.45 219.25 292.45 219.75 M293.35 199.6 L281.75 199.6 281.75 198.75 293.35 198.75 293.35 199.6 M281.7 199.6 L270.15 199.6 270.15 198.75 281.7 198.75 281.7 199.6 M270.1 199.6 L258.55 199.6 258.55 198.75 270.1 198.75 270.1 199.6 M269.25 219.75 L257.65 219.75 257.65 219.25 269.25 219.25 269.25 219.75 M269.3 219.25 L280.85 219.25 280.85 219.75 269.3 219.75 269.3 219.25 M258.5 199.6 L246.9 199.6 246.9 198.75 258.5 198.75 258.5 199.6 M246.85 199.6 L235.3 199.6 235.3 198.75 246.85 198.75 246.85 199.6 M246.0 219.75 L234.4 219.75 234.4 219.25 246.0 219.25 246.0 219.75 M246.05 219.25 L257.6 219.25 257.6 219.75 246.05 219.75 246.05 219.25 M235.25 199.6 L223.65 199.6 223.65 198.75 235.25 198.75 235.25 199.6 M223.6 199.6 L212.05 199.6 212.05 198.75 223.6 198.75 223.6 199.6 M222.8 219.25 L234.35 219.25 234.35 219.75 222.8 219.75 222.8 219.25 M211.15 219.75 L211.15 219.25 222.75 219.25 222.75 219.75 211.15 219.75 M211.1 219.75 L199.55 219.75 199.55 219.25 211.1 219.25 211.1 219.75 M212.0 199.6 L200.4 199.6 200.4 198.75 212.0 198.75 212.0 199.6 M200.35 199.6 L188.8 199.6 188.8 198.75 200.35 198.75 200.35 199.6 M188.75 199.6 L177.2 199.6 177.2 198.75 188.75 198.75 188.75 199.6 M187.9 219.75 L176.3 219.75 176.3 219.25 187.9 219.25 187.9 219.75 M187.95 219.25 L199.5 219.25 199.5 219.75 187.95 219.75 187.95 219.25 M177.15 199.6 L165.55 199.6 165.55 198.75 177.15 198.75 177.15 199.6 M164.7 219.25 L176.25 219.25 176.25 219.75 164.7 219.75 164.7 219.25" fill="#666666" fill-rule="evenodd" stroke="none"/>
    </g>
    <g id="text0" transform="matrix(1.0, 0.0, 0.0, 1.0, -0.5, -0.3)">
      <g transform="matrix(1.0, 0.0, 0.0, 1.0, 0.0, 0.0)">
        <use fill="#666666" height="10.3" transform="matrix(0.2344, 0.0, 0.0, 0.2344, 0.0, 10.3)" width="13.55" xlink:href="#font_MS_UI_Gothic__0"/>
        <use fill="#666666" height="10.3" transform="matrix(0.2344, 0.0, 0.0, 0.2344, 7.65, 10.3)" width="13.55" xlink:href="#font_MS_UI_Gothic__1"/>
      </g>
    </g>
    <g id="font_MS_UI_Gothic__0">
      <path d="M22.0 -35.4 L24.6 -31.6 Q25.6 -30.2 24.2 -30.6 20.8 -22.0 18.8 -18.0 25.0 -10.6 30.2 -3.0 L27.0 1.2 Q20.8 -8.4 16.4 -14.0 12.4 -7.2 5.0 1.2 L2.2 -2.8 Q14.2 -15.4 19.4 -30.4 L6.8 -29.2 6.2 -33.8 21.2 -35.0 22.0 -35.4" fill-rule="evenodd" stroke="none"/>
    </g>
    <g id="font_MS_UI_Gothic__1">
      <path d="M7.2 -42.6 L11.4 -37.2 9.2 -35.0 5.2 -40.6 7.2 -42.6 M3.2 -40.6 L7.2 -34.8 5.0 -32.6 1.2 -38.6 3.2 -40.6" fill-rule="evenodd" stroke="none"/>
    </g>
    <g id="text1" transform="matrix(1.0, 0.0, 0.0, 1.0, -0.5, -0.3)">
      <g transform="matrix(1.0, 0.0, 0.0, 1.0, 0.0, 0.0)">
        <use fill="#666666" height="10.85" transform="matrix(0.2344, 0.0, 0.0, 0.2344, 0.0, 10.3)" width="12.35" xlink:href="#font_MS_UI_Gothic__2"/>
        <use fill="#666666" height="10.85" transform="matrix(0.2344, 0.0, 0.0, 0.2344, 6.45, 10.3)" width="12.35" xlink:href="#font_MS_UI_Gothic__1"/>
      </g>
    </g>
    <g id="font_MS_UI_Gothic__2">
      <path d="M22.6 -32.6 L25.0 -29.2 Q25.8 -28.0 24.4 -28.0 23.0 -6.8 9.4 3.6 L5.8 0.0 Q18.8 -9.0 20.2 -28.2 L11.6 -27.4 Q8.4 -19.6 5.6 -15.2 L2.2 -17.8 Q7.8 -26.8 10.8 -39.6 L14.4 -38.0 Q16.2 -37.0 14.6 -36.6 L12.8 -31.2 21.4 -32.2 22.6 -32.6" fill-rule="evenodd" stroke="none"/>
    </g>
  </defs>
</svg>
