<?xml version="1.0" encoding="UTF-8" standalone="no"?>
<svg xmlns:ffdec="https://www.free-decompiler.com/flash" xmlns:xlink="http://www.w3.org/1999/xlink" ffdec:objectType="frame" height="280.0px" width="720.0px" xmlns="http://www.w3.org/2000/svg">
  <g transform="matrix(1.0, 0.0, 0.0, 1.0, 0.0, 0.0)">
    <use ffdec:characterId="3" height="12.55" transform="matrix(1.0, 0.0, 0.0, 1.0, 273.8, 7.95)" width="181.5" xlink:href="#text0"/>
    <use ffdec:characterId="7" height="90.0" id="yama1" transform="matrix(1.0, 0.0, 0.0, 1.0, 44.95, 38.0)" width="213.0" xlink:href="#sprite0"/>
    <use ffdec:characterId="11" height="57.5" id="yama2" transform="matrix(1.0, 0.0, 0.0, 1.0, 14.8, 127.0)" width="102.15" xlink:href="#sprite1"/>
    <use ffdec:characterId="15" height="59.5" id="yama3" transform="matrix(1.0, 0.0, 0.0, 1.0, 200.95, 125.0)" width="109.1" xlink:href="#sprite2"/>
    <use ffdec:characterId="7" height="90.0" id="yama7" transform="matrix(1.0, 0.0, 0.0, 1.0, 445.2, 34.2)" width="213.0" xlink:href="#sprite0"/>
    <use ffdec:characterId="11" height="57.5" id="yama8" transform="matrix(1.0, 0.0, 0.0, 1.0, 415.05, 123.2)" width="102.15" xlink:href="#sprite1"/>
    <use ffdec:characterId="15" height="59.5" id="yama9" transform="matrix(1.0, 0.0, 0.0, 1.0, 601.2, 121.2)" width="109.1" xlink:href="#sprite2"/>
    <use ffdec:characterId="7" height="90.0" id="yama4" transform="matrix(1.0, 0.0, 0.0, 1.0, 265.2, 89.2)" width="213.0" xlink:href="#sprite0"/>
    <use ffdec:characterId="11" height="57.5" id="yama5" transform="matrix(1.0, 0.0, 0.0, 1.0, 235.05, 178.2)" width="102.15" xlink:href="#sprite1"/>
    <use ffdec:characterId="15" height="59.5" id="yama6" transform="matrix(1.0, 0.0, 0.0, 1.0, 421.2, 176.2)" width="109.1" xlink:href="#sprite2"/>
  </g>
  <defs>
    <g id="text0" transform="matrix(1.0, 0.0, 0.0, 1.0, -0.6, -0.7)">
      <g transform="matrix(1.0, 0.0, 0.0, 1.0, 0.0, 0.0)">
        <use fill="#000000" height="12.55" transform="matrix(0.2734, 0.0, 0.0, 0.2734, 0.0, 12.0)" width="181.5" xlink:href="#font_MS_UI_Gothic__0"/>
        <use fill="#000000" height="12.55" transform="matrix(0.2734, 0.0, 0.0, 0.2734, 9.7, 12.0)" width="181.5" xlink:href="#font_MS_UI_Gothic__1"/>
        <use fill="#000000" height="12.55" transform="matrix(0.2734, 0.0, 0.0, 0.2734, 17.9, 12.0)" width="181.5" xlink:href="#font_MS_UI_Gothic__2"/>
        <use fill="#000000" height="12.55" transform="matrix(0.2734, 0.0, 0.0, 0.2734, 26.0, 12.0)" width="181.5" xlink:href="#font_MS_UI_Gothic__0"/>
        <use fill="#000000" height="12.55" transform="matrix(0.2734, 0.0, 0.0, 0.2734, 35.7, 12.0)" width="181.5" xlink:href="#font_MS_UI_Gothic__3"/>
        <use fill="#000000" height="12.55" transform="matrix(0.2734, 0.0, 0.0, 0.2734, 47.55, 12.0)" width="181.5" xlink:href="#font_MS_UI_Gothic__4"/>
        <use fill="#000000" height="12.55" transform="matrix(0.2734, 0.0, 0.0, 0.2734, 59.95, 12.0)" width="181.5" xlink:href="#font_MS_UI_Gothic__5"/>
        <use fill="#000000" height="12.55" transform="matrix(0.2734, 0.0, 0.0, 0.2734, 71.95, 12.0)" width="181.5" xlink:href="#font_MS_UI_Gothic__6"/>
        <use fill="#000000" height="12.55" transform="matrix(0.2734, 0.0, 0.0, 0.2734, 84.35, 12.0)" width="181.5" xlink:href="#font_MS_UI_Gothic__7"/>
        <use fill="#000000" height="12.55" transform="matrix(0.2734, 0.0, 0.0, 0.2734, 95.8, 12.0)" width="181.5" xlink:href="#font_MS_UI_Gothic__8"/>
        <use fill="#000000" height="12.55" transform="matrix(0.2734, 0.0, 0.0, 0.2734, 107.8, 12.0)" width="181.5" xlink:href="#font_MS_UI_Gothic__9"/>
        <use fill="#000000" height="12.55" transform="matrix(0.2734, 0.0, 0.0, 0.2734, 119.25, 12.0)" width="181.5" xlink:href="#font_MS_UI_Gothic__10"/>
        <use fill="#000000" height="12.55" transform="matrix(0.2734, 0.0, 0.0, 0.2734, 131.1, 12.0)" width="181.5" xlink:href="#font_MS_UI_Gothic__11"/>
        <use fill="#000000" height="12.55" transform="matrix(0.2734, 0.0, 0.0, 0.2734, 141.65, 12.0)" width="181.5" xlink:href="#font_MS_UI_Gothic__8"/>
        <use fill="#000000" height="12.55" transform="matrix(0.2734, 0.0, 0.0, 0.2734, 153.65, 12.0)" width="181.5" xlink:href="#font_MS_UI_Gothic__12"/>
        <use fill="#000000" height="12.55" transform="matrix(0.2734, 0.0, 0.0, 0.2734, 163.75, 12.0)" width="181.5" xlink:href="#font_MS_UI_Gothic__13"/>
      </g>
    </g>
    <g id="font_MS_UI_Gothic__0">
      <path d="M32.2 -33.6 L13.0 -33.6 13.2 -39.4 8.8 -39.4 Q9.0 -31.8 7.8 -27.2 6.4 -21.8 2.2 -17.8 L5.4 -14.6 Q11.0 -20.2 12.6 -29.8 L28.2 -29.8 28.2 -27.0 Q28.2 -17.0 23.2 -10.4 18.2 -4.0 8.0 -0.4 L11.2 3.4 Q21.0 -0.2 26.2 -7.6 32.2 -15.6 32.2 -27.0 L32.2 -33.6" fill-rule="evenodd" stroke="none"/>
    </g>
    <g id="font_MS_UI_Gothic__1">
      <path d="M8.0 -37.6 L4.0 -37.6 4.0 -14.6 8.0 -14.6 8.0 -37.6 M26.6 -39.2 L22.6 -39.2 22.6 -17.0 Q22.6 -11.6 19.0 -6.6 15.8 -2.4 8.0 -0.2 L11.0 3.6 Q19.6 0.8 22.8 -4.4 26.6 -9.2 26.6 -17.0 L26.6 -39.2" fill-rule="evenodd" stroke="none"/>
    </g>
    <g id="font_MS_UI_Gothic__2">
      <path d="M5.6 -25.8 L2.0 -24.2 Q4.2 -20.2 6.6 -14.0 L10.4 -15.8 Q7.4 -23.2 5.6 -25.8 M21.2 -10.4 L21.2 -10.4 Q17.6 -3.6 7.8 -0.2 L10.4 3.2 Q20.2 -1.2 24.2 -8.4 28.2 -15.4 28.4 -27.6 L24.6 -28.0 Q24.8 -16.4 21.2 -10.4 M14.4 -30.0 L11.0 -28.4 Q13.2 -24.6 15.6 -18.4 L19.4 -20.2 Q17.2 -25.6 14.4 -30.0" fill-rule="evenodd" stroke="none"/>
    </g>
    <g id="font_MS_UI_Gothic__3">
      <path d="M15.0 -13.6 L15.0 -13.6 Q13.8 -14.6 14.0 -17.6 14.4 -22.2 18.4 -22.2 19.8 -22.2 21.0 -20.8 22.4 -19.4 22.2 -16.8 21.8 -13.0 18.8 -12.8 16.2 -12.6 15.0 -13.6 M40.2 -33.4 L26.6 -33.4 26.6 -41.6 22.6 -41.6 22.6 -33.4 3.0 -33.4 3.0 -29.0 22.6 -29.0 22.6 -24.4 Q20.8 -25.4 18.4 -25.6 14.8 -25.6 12.6 -23.0 10.8 -20.8 10.4 -17.4 10.0 -13.0 13.2 -10.6 15.6 -8.8 17.6 -9.0 20.8 -9.2 22.8 -11.4 22.8 -7.0 20.0 -4.0 17.8 -1.0 12.6 1.0 L14.6 4.4 Q21.2 1.8 24.2 -3.0 27.0 -7.4 27.2 -14.2 27.2 -17.6 26.6 -19.8 L26.6 -29.0 40.2 -29.0 40.2 -33.4" fill-rule="evenodd" stroke="none"/>
    </g>
    <g id="font_MS_UI_Gothic__4">
      <path d="M35.0 -2.4 L35.0 -2.4 Q33.6 -2.6 33.8 -4.8 L33.8 -25.4 Q33.6 -33.4 28.2 -33.8 24.0 -34.2 20.2 -31.4 17.8 -29.6 14.8 -25.4 L14.8 -40.6 10.8 -40.6 10.8 -29.0 1.8 -29.0 1.8 -24.6 10.8 -24.6 10.8 -19.8 Q5.4 -11.6 1.8 -7.4 L4.6 -4.2 Q7.6 -8.2 10.8 -13.4 L10.8 3.4 14.8 3.4 14.8 -19.2 Q18.4 -25.0 20.8 -27.4 23.6 -30.2 26.6 -30.2 28.2 -30.2 29.0 -29.0 29.8 -28.0 29.8 -25.4 L29.8 -4.8 Q29.8 -1.4 31.6 0.4 33.4 2.0 35.2 2.0 38.6 2.2 40.2 -0.4 42.2 -3.0 42.2 -9.8 L38.6 -11.0 Q38.6 -1.6 35.0 -2.4" fill-rule="evenodd" stroke="none"/>
    </g>
    <g id="font_MS_UI_Gothic__5">
      <path d="M18.6 -3.0 L18.6 -3.0 Q17.2 -4.0 17.2 -5.8 17.2 -7.6 18.6 -8.8 19.8 -9.8 21.4 -10.0 24.0 -10.2 27.4 -8.8 27.2 -2.0 22.4 -2.0 20.2 -1.8 18.6 -3.0 M10.0 -38.0 L10.0 -38.0 6.0 -39.6 Q3.4 -27.2 3.6 -18.4 3.8 -7.2 6.0 1.8 L10.2 0.2 Q8.0 -10.4 7.8 -20.0 7.8 -29.2 10.0 -38.0 M31.4 -11.2 L31.4 -26.6 39.6 -26.6 39.6 -30.4 31.4 -30.4 31.4 -40.2 27.4 -40.2 27.4 -30.4 14.6 -30.4 14.6 -26.6 27.4 -26.6 27.4 -12.6 Q24.6 -13.4 21.8 -13.4 17.6 -13.4 15.4 -10.6 13.6 -8.4 13.6 -5.6 13.6 -2.8 15.4 -0.8 18.0 2.0 23.2 1.6 30.0 1.2 31.2 -6.8 34.8 -4.4 37.6 -1.2 L40.0 -4.8 Q35.8 -9.0 31.4 -11.2 M36.2 -41.6 L32.8 -41.6 32.8 -33.8 36.2 -33.8 36.2 -41.6 M41.8 -41.6 L38.4 -41.6 38.4 -33.8 41.8 -33.8 41.8 -41.6" fill-rule="evenodd" stroke="none"/>
    </g>
    <g id="font_MS_UI_Gothic__6">
      <path d="M6.4 -7.2 L6.4 -7.2 Q6.2 -10.8 8.2 -14.0 11.0 -18.0 16.0 -18.0 L16.6 -18.0 Q12.8 -5.0 8.8 -5.0 6.6 -5.0 6.4 -7.2 M35.0 -17.4 L35.0 -28.4 31.0 -28.4 31.0 -19.0 Q26.6 -20.4 21.8 -21.2 23.2 -26.2 24.4 -32.6 L24.4 -36.8 7.6 -36.8 7.6 -32.4 20.0 -32.4 Q19.2 -26.4 17.8 -21.6 L15.8 -21.8 Q10.2 -21.8 6.2 -17.8 2.4 -13.8 2.4 -8.0 2.6 -0.2 9.2 -0.4 15.6 -0.6 20.6 -17.6 25.6 -16.8 31.0 -14.2 L31.0 -13.8 30.8 -14.2 Q31.0 -4.8 22.2 0.2 L25.0 3.6 Q33.8 -2.2 34.8 -12.2 L39.4 -9.0 41.8 -13.2 Q38.6 -15.6 35.0 -17.4" fill-rule="evenodd" stroke="none"/>
    </g>
    <g id="font_MS_UI_Gothic__7">
      <path d="M27.4 -0.8 L27.4 -0.8 Q26.2 -0.6 25.8 -1.6 25.0 -2.4 25.0 -4.0 L25.0 -14.2 Q25.0 -16.8 23.4 -19.0 21.2 -21.6 17.8 -21.6 14.2 -21.6 11.0 -18.4 L16.4 -39.0 12.0 -40.2 Q8.2 -22.8 1.8 0.6 L6.0 2.2 Q8.6 -9.4 10.0 -12.6 11.0 -15.0 13.4 -16.4 15.4 -17.6 17.4 -17.6 19.0 -17.6 20.0 -16.6 21.0 -15.6 21.0 -14.2 L21.0 -4.0 Q21.0 -0.2 22.6 1.6 24.2 3.4 27.0 3.4 32.2 3.6 35.2 -2.0 38.2 -6.8 40.0 -17.8 L36.2 -19.8 Q33.4 -0.8 27.4 -0.8" fill-rule="evenodd" stroke="none"/>
    </g>
    <g id="font_MS_UI_Gothic__8">
      <path d="M29.2 -7.0 L29.2 -7.0 Q29.2 -4.0 27.6 -2.4 25.8 -0.6 23.2 -0.6 17.6 -0.6 17.6 -4.6 17.6 -8.8 23.0 -8.8 26.4 -8.8 29.2 -7.0 M29.2 -22.4 L29.2 -11.4 Q25.8 -12.6 22.6 -12.6 18.6 -12.6 16.4 -10.8 13.6 -8.4 13.6 -4.6 13.6 -0.6 16.2 1.4 18.8 3.4 23.0 3.4 27.2 3.4 29.6 1.6 32.6 -0.6 33.0 -4.8 L37.2 -1.8 39.6 -5.6 Q36.4 -7.8 33.2 -9.6 L33.2 -22.4 29.2 -22.4 M26.8 -32.0 L25.6 -28.0 Q31.8 -26.8 38.0 -23.8 L39.4 -28.0 Q33.2 -30.8 26.8 -32.0 M3.2 -29.2 L11.0 -29.2 Q8.2 -14.8 2.8 -4.4 L6.6 -2.0 Q12.6 -14.6 15.2 -29.2 L24.2 -29.2 24.2 -33.6 16.0 -33.6 17.2 -40.8 13.0 -41.6 11.8 -33.6 3.2 -33.6 3.2 -29.2" fill-rule="evenodd" stroke="none"/>
    </g>
    <g id="font_MS_UI_Gothic__9">
      <path d="M37.2 -36.4 L2.2 -36.4 2.2 -32.6 23.2 -32.6 Q18.0 -29.6 15.0 -24.2 12.4 -19.4 12.4 -15.0 12.6 -7.4 17.2 -3.0 22.4 2.0 31.8 2.0 L33.0 -2.4 Q24.8 -2.4 20.8 -5.6 16.6 -9.0 16.6 -15.6 16.6 -22.4 22.0 -27.2 27.8 -32.2 37.2 -32.4 L37.2 -36.4 M34.8 -28.0 L31.4 -28.0 31.4 -20.2 34.8 -20.2 34.8 -28.0 M40.2 -28.0 L36.8 -28.0 36.8 -20.2 40.2 -20.2 40.2 -28.0" fill-rule="evenodd" stroke="none"/>
    </g>
    <g id="font_MS_UI_Gothic__10">
      <path d="M30.6 -32.0 L30.6 -32.0 27.2 -31.6 Q25.0 -36.2 22.4 -39.4 L19.2 -37.4 Q21.4 -34.6 23.2 -30.8 L14.6 -27.8 11.8 -39.4 8.0 -38.2 11.2 -26.4 2.6 -22.8 4.6 -18.8 12.2 -22.4 Q15.0 -10.8 17.8 3.2 L21.8 1.4 15.6 -24.0 Q21.2 -26.4 24.8 -27.4 26.2 -24.0 27.2 -20.6 L31.0 -22.0 Q30.6 -24.8 29.0 -28.2 L30.2 -28.2 Q37.0 -28.2 37.0 -21.0 37.0 -14.0 31.4 -14.0 28.0 -14.0 24.2 -17.0 L22.4 -13.4 Q27.4 -10.0 31.4 -10.0 35.0 -10.0 37.4 -12.0 41.0 -15.0 40.8 -21.6 40.6 -27.0 37.0 -29.8 34.4 -31.8 30.6 -32.0" fill-rule="evenodd" stroke="none"/>
    </g>
    <g id="font_MS_UI_Gothic__11">
      <path d="M13.4 -1.0 L13.4 -1.0 Q10.8 -1.0 9.0 -2.2 7.4 -3.0 7.4 -4.6 7.6 -6.4 9.0 -7.8 10.4 -9.0 13.0 -9.0 L19.2 -8.2 19.2 -7.8 Q19.2 -3.6 17.2 -2.0 16.0 -1.0 13.4 -1.0 M23.2 -10.8 L23.2 -19.6 36.0 -19.6 36.0 -23.4 23.2 -23.4 23.2 -29.8 34.4 -29.8 34.4 -33.6 23.2 -33.6 23.2 -40.8 19.2 -40.8 19.2 -33.6 4.4 -33.6 4.4 -29.8 19.2 -29.8 19.2 -23.4 2.8 -23.4 2.8 -19.6 19.2 -19.6 19.2 -11.8 13.0 -12.4 Q8.6 -12.4 6.0 -10.0 4.0 -8.0 3.8 -5.2 3.8 -1.8 6.2 0.4 8.8 2.8 13.2 2.8 17.6 2.8 19.8 1.2 23.0 -1.0 23.2 -7.0 29.0 -4.8 33.6 -1.2 L36.2 -5.0 Q30.4 -8.6 23.2 -10.8" fill-rule="evenodd" stroke="none"/>
    </g>
    <g id="font_MS_UI_Gothic__12">
      <path d="M27.4 -6.8 L27.4 -6.8 Q25.0 -3.0 20.6 -2.8 15.0 -2.6 13.2 -4.4 11.4 -6.4 11.4 -11.4 L11.4 -39.0 7.4 -39.0 7.4 -11.4 Q7.6 -4.2 10.0 -1.2 12.6 2.0 19.0 1.8 32.2 1.8 34.8 -14.6 L30.4 -16.6 Q29.6 -10.0 27.4 -6.8" fill-rule="evenodd" stroke="none"/>
    </g>
    <g id="font_MS_UI_Gothic__13">
      <path d="M38.0 -21.4 L3.2 -21.4 3.2 -17.0 38.0 -17.0 38.0 -21.4" fill-rule="evenodd" stroke="none"/>
    </g>
    <g id="sprite0" transform="matrix(1.0, 0.0, 0.0, 1.0, 113.2, 44.75)">
      <use ffdec:characterId="4" height="90.0" transform="matrix(1.0, 0.0, 0.0, 1.0, -113.2, -44.75)" width="148.0" xlink:href="#shape0"/>
    </g>
    <g id="shape0" transform="matrix(1.0, 0.0, 0.0, 1.0, 113.2, 44.75)">
      <path d="M17.9 -39.4 L7.0 -30.3 6.4 -30.9 17.35 -40.05 17.9 -39.4 M9.5 -15.9 L-1.4 -25.0 -0.85 -25.65 10.05 -16.5 9.5 -15.9 M3.3 -5.4 L3.3 -7.5 5.4 -7.5 5.4 -5.4 3.3 -5.4 M17.9 -6.7 L30.65 -6.7 30.65 -6.2 17.9 -6.2 17.9 -6.7 M14.9 -9.45 Q15.55 -8.1 15.55 -6.3 15.55 -4.8 14.9 -3.45 L13.05 -0.8 12.5 -1.3 Q13.75 -2.7 14.25 -3.8 14.8 -5.0 14.8 -6.3 14.8 -7.95 14.25 -9.1 13.75 -10.15 12.5 -11.3 L13.05 -11.8 Q14.35 -10.6 14.9 -9.45 M21.6 12.9 L10.65 3.8 11.2 3.15 22.15 12.3 21.6 12.9 M9.35 3.8 L-1.6 12.9 -2.15 12.3 8.8 3.15 9.35 3.8 M17.65 41.7 L6.75 32.6 7.3 31.95 18.2 41.1 17.65 41.7 M5.2 27.3 L-5.7 18.2 -5.15 17.55 5.8 26.7 5.2 27.3 M-60.55 -1.5 L-61.1 -2.1 -50.15 -11.25 -49.6 -10.6 -60.55 -1.5 M-48.95 -12.85 L-36.15 -12.85 -36.15 -12.3 -48.95 -12.3 -48.95 -12.85 M-8.9 -41.65 L-8.9 -28.9 -9.4 -28.9 -9.4 -41.65 -8.9 -41.65 M-15.55 -25.0 L-26.45 -15.9 -27.0 -16.5 -16.1 -25.65 -15.55 -25.0 M-14.85 -27.25 L-2.1 -27.25 -2.1 -26.7 -14.85 -26.7 -14.85 -27.25 M-28.65 -30.9 L-29.2 -30.3 -40.15 -39.4 -39.55 -40.05 -28.65 -30.9 M-31.55 -10.9 Q-31.95 -10.3 -32.5 -10.3 -32.9 -10.3 -33.6 -11.05 -34.2 -11.6 -34.55 -11.6 L-35.2 -11.1 -35.55 -10.45 -36.0 -11.0 -35.5 -12.1 Q-35.15 -12.65 -34.6 -12.65 -34.15 -12.65 -33.55 -12.05 -32.8 -11.4 -32.35 -11.4 L-31.75 -11.9 -31.4 -12.6 -30.95 -11.9 -31.55 -10.9 M-29.6 -11.25 L-18.7 -2.1 -19.25 -1.5 -30.15 -10.6 -29.6 -11.25 M-13.75 -7.5 L-13.75 -5.4 -15.9 -5.4 -15.9 -7.5 -13.75 -7.5 M-0.6 -10.1 L-5.2 -1.8 -9.8 -10.1 -8.85 -10.7 -7.7 -8.65 -2.7 -8.65 -1.6 -10.7 -0.6 -10.1 M-7.2 -7.6 L-5.2 -4.05 -3.2 -7.6 -7.2 -7.6 M-19.6 2.5 L-20.2 3.5 Q-20.6 4.1 -21.15 4.1 -21.6 4.1 -22.3 3.35 L-23.25 2.8 Q-23.7 2.8 -23.9 3.3 L-24.2 3.95 -24.7 3.4 -24.15 2.3 Q-23.8 1.75 -23.3 1.75 -22.8 1.75 -22.2 2.35 L-21.05 3.0 -20.4 2.5 -20.1 1.8 -19.6 2.5 M-18.3 3.15 L-7.35 12.3 -7.95 12.9 -18.85 3.8 -18.3 3.15 M-2.85 13.2 L-2.85 13.8 -6.7 13.8 -6.7 13.2 -2.85 13.2 M-25.4 1.8 L-24.95 2.5 -25.55 3.5 Q-25.95 4.1 -26.5 4.1 -26.9 4.1 -27.6 3.35 -28.2 2.8 -28.55 2.8 -29.0 2.8 -29.2 3.3 L-29.55 3.95 -30.0 3.4 -29.5 2.3 Q-29.15 1.75 -28.6 1.75 -28.15 1.75 -27.55 2.35 L-26.35 3.0 -25.75 2.5 -25.4 1.8 M-30.75 1.8 L-30.25 2.5 -30.85 3.5 Q-31.25 4.1 -31.8 4.1 -32.25 4.1 -32.95 3.35 -33.55 2.8 -33.9 2.8 -34.35 2.8 -34.55 3.3 L-34.85 3.95 -35.35 3.4 -34.8 2.3 Q-34.45 1.75 -33.95 1.75 L-32.85 2.35 -31.7 3.0 Q-31.45 3.0 -31.05 2.5 L-30.75 1.8 M-35.55 2.5 L-36.15 3.5 Q-36.6 4.1 -37.15 4.1 -37.55 4.1 -38.25 3.35 -38.85 2.8 -39.2 2.8 -39.65 2.8 -39.85 3.3 L-40.15 3.95 -40.65 3.4 -40.15 2.3 Q-39.8 1.75 -39.25 1.75 -38.8 1.75 -38.15 2.35 -37.45 3.0 -37.0 3.0 -36.75 3.0 -36.35 2.5 L-36.05 1.8 -35.55 2.5 M-40.9 2.5 L-41.5 3.5 Q-41.9 4.1 -42.45 4.1 L-43.55 3.35 -44.55 2.8 Q-45.0 2.8 -45.15 3.3 L-45.5 3.95 -45.95 3.4 -45.45 2.3 Q-45.1 1.75 -44.55 1.75 -44.1 1.75 -43.5 2.35 -42.8 3.0 -42.35 3.0 L-41.7 2.5 -41.35 1.8 -40.9 2.5 M-46.7 1.8 L-46.2 2.5 -46.8 3.5 Q-47.2 4.1 -47.75 4.1 -48.2 4.1 -48.9 3.35 L-49.85 2.8 Q-50.3 2.8 -50.5 3.3 L-50.8 3.95 -51.3 3.4 -50.75 2.3 Q-50.4 1.75 -49.9 1.75 -49.4 1.75 -48.8 2.35 L-47.65 3.0 -47.0 2.5 -46.7 1.8 M-52.35 2.5 L-52.0 1.8 -51.55 2.5 -52.15 3.5 Q-52.55 4.1 -53.1 4.1 -53.5 4.1 -54.2 3.35 -54.8 2.8 -55.15 2.8 -55.6 2.8 -55.8 3.3 L-56.15 3.95 -56.6 3.4 -56.1 2.3 Q-55.75 1.75 -55.2 1.75 -54.75 1.75 -54.15 2.35 L-52.95 3.0 -52.35 2.5 M-57.35 1.8 L-56.85 2.5 -57.45 3.5 Q-57.85 4.1 -58.4 4.1 L-59.55 3.35 Q-60.15 2.8 -60.5 2.8 -60.95 2.8 -61.15 3.3 L-61.45 3.95 -61.95 3.4 -61.4 2.3 Q-61.05 1.75 -60.55 1.75 -60.05 1.75 -59.45 2.35 -58.75 3.0 -58.3 3.0 L-57.65 2.5 -57.35 1.8 M-75.15 18.2 L-86.1 27.3 -86.65 26.7 -75.75 17.55 -75.15 18.2 M-74.2 12.3 L-63.3 3.15 -62.75 3.8 -73.65 12.9 -74.2 12.3 M-99.2 41.7 L-99.75 41.1 -88.85 31.95 -88.3 32.6 -99.2 41.7" fill="#000000" fill-rule="evenodd" stroke="none"/>
      <path d="M34.8 45.25 L-113.2 45.25 -113.2 -44.75 34.8 -44.75 34.8 45.25" fill="#ffffff" fill-opacity="0.0" fill-rule="evenodd" stroke="none"/>
    </g>
    <g id="sprite1" transform="matrix(1.0, 0.0, 0.0, 1.0, 48.05, 28.25)">
      <use ffdec:characterId="8" height="57.5" transform="matrix(1.0, 0.0, 0.0, 1.0, -3.4, -28.25)" width="57.5" xlink:href="#shape1"/>
    </g>
    <g id="shape1" transform="matrix(1.0, 0.0, 0.0, 1.0, 3.4, 28.25)">
      <path d="M54.1 29.25 L-3.4 29.25 -3.4 -28.25 54.1 -28.25 54.1 29.25" fill="#ffffff" fill-opacity="0.0" fill-rule="evenodd" stroke="none"/>
      <path d="M14.75 -16.0 L13.75 -16.5 18.35 -26.55 22.95 -16.5 22.05 -16.0 18.35 -24.0 14.75 -16.0 M5.5 -3.5 Q3.55 -6.25 -0.25 -8.75 L0.85 -9.7 Q4.9 -7.15 6.75 -4.55 L5.5 -3.5 M14.15 -8.0 L16.25 -8.0 16.25 -5.9 14.15 -5.9 14.15 -8.0 M11.05 -1.35 Q8.5 -3.7 8.55 -6.8 8.5 -9.9 11.05 -12.2 L11.6 -11.7 Q9.3 -9.55 9.3 -6.8 9.3 -4.05 11.6 -1.9 L11.05 -1.35 M30.5 -16.5 L35.1 -26.55 39.7 -16.5 38.75 -16.0 35.1 -24.0 31.45 -16.0 30.5 -16.5 M22.8 -8.1 L24.8 -4.55 26.8 -8.1 22.8 -8.1 M22.35 -9.15 L27.35 -9.15 28.45 -11.2 29.4 -10.6 24.8 -2.3 20.2 -10.6 21.15 -11.2 22.35 -9.15 M33.35 -8.0 L35.45 -8.0 35.45 -5.9 33.35 -5.9 33.35 -8.0 M41.9 -1.9 Q44.15 -4.05 44.15 -6.8 44.15 -9.55 41.9 -11.7 L42.45 -12.2 Q44.9 -9.9 44.95 -6.8 44.9 -3.7 42.45 -1.35 L41.9 -1.9 M49.9 -11.5 L50.95 -11.0 Q51.25 -10.8 50.95 -10.7 49.95 -5.05 46.8 -2.2 L46.0 -3.3 Q48.9 -5.7 49.9 -11.5 M42.15 22.1 L35.55 22.1 35.55 15.45 36.05 15.45 36.05 21.6 42.15 21.6 42.15 22.1 M37.75 2.2 Q40.2 4.5 40.2 7.6 40.2 10.7 37.75 13.05 L37.15 12.5 Q39.45 10.35 39.45 7.6 39.45 4.85 37.15 2.7 L37.75 2.2 M25.05 17.9 L20.6 22.0 25.05 26.1 24.55 26.6 19.6 22.0 24.55 17.4 25.05 17.9 M18.8 13.05 Q16.3 10.7 16.3 7.6 16.3 4.5 18.8 2.2 L19.35 2.7 Q17.05 4.85 17.05 7.6 17.05 10.35 19.35 12.5 L18.8 13.05" fill="#000000" fill-rule="evenodd" stroke="none"/>
    </g>
    <g id="sprite2" transform="matrix(1.0, 0.0, 0.0, 1.0, 62.05, 30.25)">
      <use ffdec:characterId="12" height="59.5" transform="matrix(1.0, 0.0, 0.0, 1.0, -62.05, -30.25)" width="59.5" xlink:href="#shape2"/>
    </g>
    <g id="shape2" transform="matrix(1.0, 0.0, 0.0, 1.0, 62.05, 30.25)">
      <path d="M-45.15 -16.0 L-46.1 -16.5 -41.5 -26.55 -36.9 -16.5 -37.85 -16.0 -41.5 -24.0 -45.15 -16.0 M-58.05 -8.75 L-56.95 -9.7 Q-52.9 -7.15 -51.05 -4.55 L-52.3 -3.5 Q-54.25 -6.25 -58.05 -8.75 M-46.75 -12.2 L-46.2 -11.7 Q-48.5 -9.55 -48.5 -6.8 -48.5 -4.05 -46.2 -1.9 L-46.75 -1.35 Q-49.25 -3.7 -49.25 -6.8 -49.25 -9.9 -46.75 -12.2 M-29.4 -16.5 L-24.8 -26.55 -20.2 -16.5 -21.1 -16.0 -24.8 -24.0 -28.45 -16.0 -29.4 -16.5 M-37.65 -8.0 L-37.65 -5.9 -39.75 -5.9 -39.75 -8.0 -37.65 -8.0 M-32.7 -11.2 L-31.55 -9.15 -26.55 -9.15 -25.45 -11.2 -24.45 -10.6 -29.05 -2.3 -33.65 -10.6 -32.7 -11.2 M-27.05 -8.1 L-31.05 -8.1 -29.05 -4.55 -27.05 -8.1 M-20.55 -8.0 L-18.45 -8.0 -18.45 -5.9 -20.55 -5.9 -20.55 -8.0 M-11.8 -3.3 Q-8.9 -5.7 -7.9 -11.5 L-6.85 -11.0 Q-6.55 -10.8 -6.85 -10.7 -7.85 -5.05 -11.0 -2.2 L-11.8 -3.3 M-12.85 -6.8 Q-12.85 -3.7 -15.35 -1.35 L-15.9 -1.9 Q-13.65 -4.05 -13.65 -6.8 -13.65 -9.55 -15.9 -11.7 L-15.35 -12.2 Q-12.85 -9.9 -12.85 -6.8 M-26.8 2.2 Q-24.3 4.5 -24.3 7.6 -24.3 10.7 -26.8 13.05 L-27.35 12.5 Q-25.05 10.35 -25.05 7.6 -25.05 4.85 -27.35 2.7 L-26.8 2.2 M-24.65 22.0 L-29.55 26.6 -30.05 26.1 -25.65 22.0 -30.05 17.9 -29.55 17.4 -24.65 22.0 M-47.45 7.6 Q-47.45 10.35 -45.15 12.5 L-45.7 13.05 Q-48.25 10.7 -48.25 7.6 -48.25 4.5 -45.7 2.2 L-45.15 2.7 Q-47.45 4.85 -47.45 7.6 M-47.2 22.1 L-47.2 21.6 -41.05 21.6 -41.05 15.45 -40.55 15.45 -40.55 22.1 -47.2 22.1" fill="#000000" fill-rule="evenodd" stroke="none"/>
      <path d="M-32.7 -11.2 L-33.65 -10.6 -29.05 -2.3 -24.45 -10.6 -25.45 -11.2 -26.55 -9.15 -31.55 -9.15 -32.7 -11.2 M-37.65 -8.0 L-39.75 -8.0 -39.75 -5.9 -37.65 -5.9 -37.65 -8.0 M-29.4 -16.5 L-28.45 -16.0 -24.8 -24.0 -21.1 -16.0 -20.2 -16.5 -24.8 -26.55 -29.4 -16.5 M-46.75 -12.2 Q-49.25 -9.9 -49.25 -6.8 -49.25 -3.7 -46.75 -1.35 L-46.2 -1.9 Q-48.5 -4.05 -48.5 -6.8 -48.5 -9.55 -46.2 -11.7 L-46.75 -12.2 M-58.05 -8.75 Q-54.25 -6.25 -52.3 -3.5 L-51.05 -4.55 Q-52.9 -7.15 -56.95 -9.7 L-58.05 -8.75 M-45.15 -16.0 L-41.5 -24.0 -37.85 -16.0 -36.9 -16.5 -41.5 -26.55 -46.1 -16.5 -45.15 -16.0 M-12.85 -6.8 Q-12.85 -9.9 -15.35 -12.2 L-15.9 -11.7 Q-13.65 -9.55 -13.65 -6.8 -13.65 -4.05 -15.9 -1.9 L-15.35 -1.35 Q-12.85 -3.7 -12.85 -6.8 M-11.8 -3.3 L-11.0 -2.2 Q-7.85 -5.05 -6.85 -10.7 -6.55 -10.8 -6.85 -11.0 L-7.9 -11.5 Q-8.9 -5.7 -11.8 -3.3 M-20.55 -8.0 L-20.55 -5.9 -18.45 -5.9 -18.45 -8.0 -20.55 -8.0 M-2.55 -30.25 L-2.55 29.25 -62.05 29.25 -62.05 -30.25 -2.55 -30.25 M-47.2 22.1 L-40.55 22.1 -40.55 15.45 -41.05 15.45 -41.05 21.6 -47.2 21.6 -47.2 22.1 M-47.45 7.6 Q-47.45 4.85 -45.15 2.7 L-45.7 2.2 Q-48.25 4.5 -48.25 7.6 -48.25 10.7 -45.7 13.05 L-45.15 12.5 Q-47.45 10.35 -47.45 7.6 M-24.65 22.0 L-29.55 17.4 -30.05 17.9 -25.65 22.0 -30.05 26.1 -29.55 26.6 -24.65 22.0 M-26.8 2.2 L-27.35 2.7 Q-25.05 4.85 -25.05 7.6 -25.05 10.35 -27.35 12.5 L-26.8 13.05 Q-24.3 10.7 -24.3 7.6 -24.3 4.5 -26.8 2.2" fill="#ffffff" fill-opacity="0.0" fill-rule="evenodd" stroke="none"/>
    </g>
  </defs>
</svg>
