<svg xmlns:xlink="http://www.w3.org/1999/xlink" height="90.85px" width="55.9px" xmlns="http://www.w3.org/2000/svg">
  <g transform="matrix(1.0, 0.0, 0.0, 1.0, 25.45, 90.6)">
    <path d="M-17.85 -68.25 L-17.65 -68.45 Q-16.95 -69.15 -16.65 -72.2 -15.5 -74.15 -12.8 -75.65 L-13.4 -76.45 -9.9 -78.6 -9.8 -78.45 -9.35 -78.1 Q-8.15 -79.35 -7.15 -79.8 -5.95 -80.35 -4.55 -80.35 -3.25 -80.35 -2.1 -79.8 -1.15 -79.35 0.2 -78.1 L0.7 -78.45 0.1 -79.0 3.35 -79.25 1.7 -77.35 2.6 -77.35 3.95 -78.5 5.3 -77.35 5.5 -77.35 Q6.85 -77.3 7.55 -75.7 L8.35 -75.15 Q11.35 -73.05 12.9 -70.8 L13.5 -71.25 19.45 -62.6 18.45 -61.7 Q22.05 -59.35 23.8 -56.8 L24.4 -57.25 24.95 -56.5 24.95 -55.85 25.45 -55.85 26.9 -53.9 27.6 -50.45 Q29.75 -48.45 29.75 -45.85 29.75 -43.3 27.6 -41.3 L24.65 -39.65 25.2 -39.2 Q26.75 -37.9 26.7 -36.55 27.85 -35.5 28.35 -34.5 28.85 -33.4 28.85 -31.9 28.85 -30.65 28.35 -29.55 L26.7 -27.25 24.85 -26.15 24.85 -37.95 23.9 -37.95 23.9 -26.05 24.65 -26.05 Q23.25 -25.3 21.85 -24.7 L21.8 -22.2 20.7 -22.5 Q20.4 -16.75 15.75 -14.1 L16.5 -13.2 Q14.55 -10.7 11.25 -8.85 10.35 -8.4 10.25 -7.85 L9.15 -7.85 9.15 -2.25 Q9.15 -1.55 8.75 -1.15 8.25 -0.65 7.25 -0.65 6.25 -0.65 5.75 -1.15 5.3 -1.55 5.3 -2.25 L5.3 -7.85 4.25 -7.85 1.65 -7.65 2.8 -9.3 1.5 -9.3 0.65 -7.6 -0.6 -7.6 0.55 -9.3 -0.75 -9.3 -1.55 -7.65 -3.45 -7.85 -4.55 -7.85 -4.55 -2.25 Q-4.55 -1.55 -4.95 -1.15 -5.45 -0.65 -6.45 -0.65 -7.45 -0.65 -7.95 -1.15 -8.4 -1.55 -8.4 -2.25 L-8.4 -7.85 -9.45 -7.85 -9.45 -7.2 Q-13.15 -8.15 -14.95 -10.6 L-16.45 -12.2 Q-16.9 -12.65 -16.85 -13.45 L-18.4 -15.45 -19.05 -14.6 Q-21.1 -17.45 -22.35 -20.5 L-23.15 -21.9 Q-24.05 -23.25 -24.55 -24.7 L-25.4 -27.85 -24.45 -27.85 -24.45 -33.1 -25.4 -33.1 -25.4 -35.1 -25.4 -34.6 -24.45 -34.6 -24.45 -35.8 -25.35 -35.8 -24.85 -40.85 -22.35 -50.75 -22.85 -50.85 -21.15 -54.9 -18.65 -64.75 -17.85 -68.25 M-14.75 -61.2 L-15.85 -61.2 -15.85 -60.15 -14.75 -60.15 -14.75 -61.2 M-12.3 -61.2 L-13.4 -61.2 -13.4 -60.15 -12.3 -60.15 -12.3 -61.2 M-21.85 -33.2 L-22.95 -33.2 -22.95 -32.15 -21.85 -32.15 -21.85 -33.2 M-17.7 -47.2 L-17.7 -46.15 -16.6 -46.15 -16.6 -47.2 -17.7 -47.2 M-16.6 -42.85 L-17.7 -42.85 -17.7 -41.85 -16.6 -41.85 -16.6 -42.85 M-19.05 -42.85 L-20.15 -42.85 -20.15 -41.85 -19.05 -41.85 -19.05 -42.85 M-11.7 -42.85 L-12.8 -42.85 -12.8 -41.85 -11.7 -41.85 -11.7 -42.85 M-14.15 -42.85 L-15.25 -42.85 -15.25 -41.85 -14.15 -41.85 -14.15 -42.85 M-15.25 -47.2 L-15.25 -46.15 -14.15 -46.15 -14.15 -47.2 -15.25 -47.2 M-11.7 -47.2 L-12.8 -47.2 -12.8 -46.15 -11.7 -46.15 -11.7 -47.2 M-12.3 -56.85 L-13.4 -56.85 -13.4 -55.85 -12.3 -55.85 -12.3 -56.85 M-15.85 -56.85 L-15.85 -55.85 -14.75 -55.85 -14.75 -56.85 -15.85 -56.85 M-22.95 -27.85 L-21.85 -27.85 -21.85 -28.85 -22.95 -28.85 -22.95 -27.85 M-20.4 -21.9 L-19.9 -22.4 -20.85 -23.7 -21.35 -23.2 -20.4 -21.9 M-11.1 -19.2 L-11.1 -18.15 -10.0 -18.15 -10.0 -19.2 -11.1 -19.2 M-13.55 -19.2 L-13.55 -18.15 -12.45 -18.15 -12.45 -19.2 -13.55 -19.2 M-13.15 -27.85 L-12.05 -27.85 -12.05 -28.85 -13.15 -28.85 -13.15 -27.85 M-15.6 -28.85 L-15.6 -27.85 -14.5 -27.85 -14.5 -28.85 -15.6 -28.85 M-18.05 -28.85 L-18.05 -27.85 -16.95 -27.85 -16.95 -28.85 -18.05 -28.85 M-20.5 -28.85 L-20.5 -27.85 -19.4 -27.85 -19.4 -28.85 -20.5 -28.85 M-19.4 -33.2 L-20.5 -33.2 -20.5 -32.15 -19.4 -32.15 -19.4 -33.2 M-16.95 -32.15 L-16.95 -33.2 -18.05 -33.2 -18.05 -32.15 -16.95 -32.15 M-15.6 -32.15 L-14.5 -32.15 -14.5 -33.2 -15.6 -33.2 -15.6 -32.15 M-13.15 -33.2 L-13.15 -32.15 -12.05 -32.15 -12.05 -33.2 -13.15 -33.2 M-21.8 -23.2 L-22.25 -22.75 -21.4 -21.35 -20.85 -21.85 -21.8 -23.2 M-12.45 -13.85 L-12.45 -14.85 -13.55 -14.85 -13.55 -13.85 -12.45 -13.85 M-11.1 -14.85 L-11.1 -13.85 -10.0 -13.85 -10.0 -14.85 -11.1 -14.85 M10.35 -51.4 L10.05 -50.65 Q10.05 -50.25 10.35 -49.9 10.7 -49.55 11.1 -49.55 11.55 -49.55 11.85 -49.9 L12.2 -50.65 11.85 -51.4 11.1 -51.75 Q10.7 -51.75 10.35 -51.4 M11.1 -51.35 L11.65 -51.15 11.8 -50.65 11.65 -50.15 11.1 -49.95 Q10.8 -49.95 10.6 -50.15 L10.4 -50.65 10.6 -51.15 Q10.8 -51.35 11.1 -51.35 M12.2 -55.85 L12.2 -56.85 11.1 -56.85 11.1 -55.85 12.2 -55.85 M14.65 -55.85 L14.65 -56.85 13.55 -56.85 13.55 -55.85 14.65 -55.85 M14.65 -61.2 L13.55 -61.2 13.55 -60.15 14.65 -60.15 14.65 -61.2 M12.2 -61.2 L11.1 -61.2 11.1 -60.15 12.2 -60.15 12.2 -61.2 M8.65 -61.2 L8.65 -60.15 9.75 -60.15 9.75 -61.2 8.65 -61.2 M-0.05 -61.2 L-1.15 -61.2 -1.15 -60.15 -0.05 -60.15 -0.05 -61.2 M4.5 -50.45 L3.95 -51.0 Q1.6 -48.8 1.6 -45.85 1.6 -42.95 3.95 -40.75 L4.5 -41.3 Q2.35 -43.3 2.35 -45.85 2.35 -48.45 4.5 -50.45 M1.3 -56.85 L1.3 -55.85 2.4 -55.85 2.4 -56.85 1.3 -56.85 M4.85 -55.85 L4.85 -56.85 3.75 -56.85 3.75 -55.85 4.85 -55.85 M8.65 -56.85 L8.65 -55.85 9.75 -55.85 9.75 -56.85 8.65 -56.85 M6.2 -55.85 L7.3 -55.85 7.3 -56.85 6.2 -56.85 6.2 -55.85 M-10.95 -55.85 L-9.85 -55.85 -9.85 -56.85 -10.95 -56.85 -10.95 -55.85 M-8.5 -56.85 L-8.5 -55.85 -7.4 -55.85 -7.4 -56.85 -8.5 -56.85 M-1.15 -56.85 L-1.15 -55.85 -0.05 -55.85 -0.05 -56.85 -1.15 -56.85 M-3.6 -56.85 L-3.6 -55.85 -2.5 -55.85 -2.5 -56.85 -3.6 -56.85 M-4.95 -55.85 L-4.95 -56.85 -6.05 -56.85 -6.05 -55.85 -4.95 -55.85 M-9.85 -61.2 L-10.95 -61.2 -10.95 -60.15 -9.85 -60.15 -9.85 -61.2 M-7.4 -61.2 L-8.5 -61.2 -8.5 -60.15 -7.4 -60.15 -7.4 -61.2 M-4.95 -61.2 L-6.05 -61.2 -6.05 -60.15 -4.95 -60.15 -4.95 -61.2 M-2.5 -61.2 L-3.6 -61.2 -3.6 -60.15 -2.5 -60.15 -2.5 -61.2 M7.3 -61.2 L6.2 -61.2 6.2 -60.15 7.3 -60.15 7.3 -61.2 M2.4 -61.2 L1.3 -61.2 1.3 -60.15 2.4 -60.15 2.4 -61.2 M4.85 -61.2 L3.75 -61.2 3.75 -60.15 4.85 -60.15 4.85 -61.2 M26.95 -50.65 L26.6 -51.4 Q26.3 -51.75 25.85 -51.75 25.45 -51.75 25.1 -51.4 24.8 -51.05 24.8 -50.65 24.8 -50.25 25.1 -49.9 25.45 -49.55 25.85 -49.55 26.3 -49.55 26.6 -49.9 L26.95 -50.65 M26.55 -50.65 L26.4 -50.15 25.85 -49.95 Q25.55 -49.95 25.35 -50.15 25.15 -50.3 25.15 -50.65 L25.35 -51.15 25.85 -51.35 26.4 -51.15 26.55 -50.65 M17.4 -50.05 L20.7 -50.05 20.7 -42.7 16.15 -42.7 Q17.4 -44.6 17.4 -47.7 L17.4 -50.05 M21.65 -50.95 L16.5 -50.95 16.5 -47.7 Q16.5 -44.65 15.1 -42.7 L14.3 -42.7 14.3 -40.1 15.2 -40.1 15.2 -41.8 21.8 -41.8 21.8 -40.1 22.7 -40.1 22.7 -42.7 21.65 -42.7 21.65 -50.95 M13.9 -30.45 Q13.9 -31.7 13.1 -32.5 12.4 -33.2 11.35 -33.2 10.3 -33.2 9.6 -32.5 8.8 -31.7 8.8 -30.45 8.8 -29.25 9.6 -28.45 10.3 -27.75 11.35 -27.75 12.4 -27.75 13.1 -28.45 13.9 -29.25 13.9 -30.45 M9.85 -30.45 Q9.85 -31.4 10.4 -31.95 10.8 -32.35 11.35 -32.35 11.9 -32.35 12.3 -31.95 12.85 -31.4 12.85 -30.45 12.85 -29.55 12.35 -29.0 11.9 -28.6 11.35 -28.6 10.8 -28.6 10.35 -29.0 9.85 -29.55 9.85 -30.45 M18.6 -31.2 L19.0 -32.0 Q19.4 -32.4 19.95 -32.4 20.55 -32.4 20.9 -32.05 21.25 -31.7 21.25 -31.2 L18.6 -31.2 M16.15 -35.85 L15.2 -35.85 15.2 -27.85 16.15 -27.85 16.15 -35.85 M18.3 -32.55 Q17.5 -31.75 17.5 -30.45 17.5 -29.2 18.25 -28.45 18.95 -27.75 20.1 -27.75 21.15 -27.75 21.8 -28.35 22.2 -28.8 22.4 -29.6 L21.35 -29.6 21.05 -28.85 Q20.75 -28.6 20.1 -28.6 19.45 -28.6 19.0 -29.0 18.55 -29.5 18.55 -30.45 L22.35 -30.45 Q22.35 -31.8 21.7 -32.5 21.0 -33.2 20.0 -33.2 18.95 -33.2 18.3 -32.55 M-2.65 -13.85 L-2.65 -14.85 -3.75 -14.85 -3.75 -13.85 -2.65 -13.85 M-6.2 -14.85 L-6.2 -13.85 -5.1 -13.85 -5.1 -14.85 -6.2 -14.85 M-8.65 -14.85 L-8.65 -13.85 -7.55 -13.85 -7.55 -14.85 -8.65 -14.85 M-8.65 -19.2 L-8.65 -18.15 -7.55 -18.15 -7.55 -19.2 -8.65 -19.2 M-2.65 -19.2 L-3.75 -19.2 -3.75 -18.15 -2.65 -18.15 -2.65 -19.2 M-5.1 -18.15 L-5.1 -19.2 -6.2 -19.2 -6.2 -18.15 -5.1 -18.15 M8.5 -14.85 L8.5 -13.85 9.6 -13.85 9.6 -14.85 8.5 -14.85 M6.05 -14.85 L6.05 -13.85 7.15 -13.85 7.15 -14.85 6.05 -14.85 M3.6 -14.85 L3.6 -13.85 4.7 -13.85 4.7 -14.85 3.6 -14.85 M1.15 -14.85 L1.15 -13.85 2.25 -13.85 2.25 -14.85 1.15 -14.85 M-0.2 -13.85 L-0.2 -14.85 -1.3 -14.85 -1.3 -13.85 -0.2 -13.85 M-0.2 -18.15 L-0.2 -19.2 -1.3 -19.2 -1.3 -18.15 -0.2 -18.15 M2.25 -19.2 L1.15 -19.2 1.15 -18.15 2.25 -18.15 2.25 -19.2 M4.7 -18.15 L4.7 -19.2 3.6 -19.2 3.6 -18.15 4.7 -18.15 M6.05 -18.15 L7.15 -18.15 7.15 -19.2 6.05 -19.2 6.05 -18.15 M8.5 -19.2 L8.5 -18.15 9.6 -18.15 9.6 -19.2 8.5 -19.2 M5.55 -34.3 Q6.4 -33.45 6.4 -31.8 6.4 -30.2 5.5 -29.3 4.95 -28.75 4.05 -28.75 L2.4 -28.75 2.4 -34.95 4.05 -34.95 Q4.9 -34.95 5.55 -34.3 M7.55 -31.8 Q7.55 -33.85 6.5 -34.85 5.5 -35.85 4.1 -35.85 L1.3 -35.85 1.3 -27.85 4.1 -27.85 Q5.55 -27.85 6.45 -28.75 7.55 -29.8 7.55 -31.8 M-4.9 -28.6 L-4.15 -27.6 Q-1.2 -30.25 -0.25 -35.55 0.1 -35.6 -0.25 -35.8 L-1.25 -36.3 Q-2.15 -30.85 -4.9 -28.6 M-6.4 -36.55 L-6.9 -37.05 -8.65 -34.8 Q-9.25 -33.55 -9.25 -31.9 -9.25 -30.45 -8.65 -29.2 L-6.9 -26.7 -6.4 -27.25 Q-7.55 -28.5 -8.0 -29.55 -8.55 -30.65 -8.55 -31.9 -8.55 -33.4 -8.0 -34.5 L-6.4 -36.55 M-6.8 -42.85 L-7.9 -42.85 -7.9 -41.85 -6.8 -41.85 -6.8 -42.85 M-9.25 -42.85 L-10.35 -42.85 -10.35 -41.85 -9.25 -41.85 -9.25 -42.85 M-10.35 -47.2 L-10.35 -46.15 -9.25 -46.15 -9.25 -47.2 -10.35 -47.2 M-6.8 -47.2 L-7.9 -47.2 -7.9 -46.15 -6.8 -46.15 -6.8 -47.2 M-1.9 -42.85 L-3.0 -42.85 -3.0 -41.85 -1.9 -41.85 -1.9 -42.85 M-4.35 -42.85 L-5.45 -42.85 -5.45 -41.85 -4.35 -41.85 -4.35 -42.85 M-5.45 -47.2 L-5.45 -46.15 -4.35 -46.15 -4.35 -47.2 -5.45 -47.2 M-1.9 -47.2 L-3.0 -47.2 -3.0 -46.15 -1.9 -46.15 -1.9 -47.2 M0.55 -42.85 L-0.55 -42.85 -0.55 -41.85 0.55 -41.85 0.55 -42.85 M-0.55 -46.15 L0.55 -46.15 0.55 -47.2 -0.55 -47.2 -0.55 -46.15 M9.1 -42.85 L8.0 -42.85 8.0 -41.85 8.45 -41.85 8.0 -40.55 8.45 -40.55 9.1 -41.85 9.1 -42.85 M6.65 -42.85 L5.55 -42.85 5.55 -41.85 6.0 -41.85 5.55 -40.55 6.0 -40.55 6.65 -41.85 6.65 -42.85 M10.95 -14.85 L10.95 -13.85 12.05 -13.85 12.05 -14.85 10.95 -14.85 M13.4 -14.85 L13.4 -13.85 14.5 -13.85 14.5 -14.85 13.4 -14.85 M12.05 -19.2 L10.95 -19.2 10.95 -18.15 12.05 -18.15 12.05 -19.2 M14.5 -18.15 L14.5 -19.2 13.4 -19.2 13.4 -18.15 14.5 -18.15" fill="#ffffff" fill-rule="evenodd" stroke="none"/>
    <path d="M-13.4 -76.45 L-12.8 -75.65 Q-15.5 -74.15 -16.65 -72.2 -16.95 -69.15 -17.65 -68.45 L-17.85 -68.25 -18.25 -68.15 -18.4 -68.75 Q-18.4 -69.9 -17.4 -72.35 -17.35 -74.9 -17.65 -75.25 L-17.95 -75.35 -18.9 -74.65 -19.55 -75.3 Q-18.65 -76.35 -17.75 -76.35 L-17.0 -76.05 Q-16.45 -75.45 -16.6 -73.55 -15.45 -75.2 -13.4 -76.45 M-18.65 -64.75 L-21.15 -54.9 -21.65 -55.05 -19.15 -64.9 -18.65 -64.75 M-22.85 -50.85 L-22.35 -50.75 -24.85 -40.85 -25.35 -41.05 -22.85 -50.85 M-25.35 -35.8 L-24.45 -35.8 -24.45 -34.6 -25.4 -34.6 -25.4 -35.1 -25.4 -35.8 -25.35 -35.8 M-25.4 -33.1 L-24.45 -33.1 -24.45 -27.85 -25.4 -27.85 -25.4 -33.1 M-19.05 -14.6 L-18.4 -15.45 -16.85 -13.45 -17.5 -12.55 -19.05 -14.6 M-9.45 -7.2 L-9.45 -7.85 -8.4 -7.85 -8.4 -2.25 Q-8.4 -1.55 -7.95 -1.15 -7.45 -0.65 -6.45 -0.65 -5.45 -0.65 -4.95 -1.15 -4.55 -1.55 -4.55 -2.25 L-4.55 -7.85 -3.45 -7.85 -3.45 -2.2 Q-3.45 -1.15 -4.1 -0.5 -4.85 0.25 -6.45 0.25 -8.05 0.25 -8.8 -0.5 -9.45 -1.15 -9.45 -2.2 L-9.45 -7.2 M-1.55 -7.65 L-0.75 -9.3 0.55 -9.3 -0.6 -7.6 -1.1 -6.95 -1.95 -6.95 -1.55 -7.65 M0.65 -7.6 L1.5 -9.3 2.8 -9.3 1.65 -7.65 1.15 -6.95 0.3 -6.95 0.65 -7.6 M4.25 -7.85 L5.3 -7.85 5.3 -2.25 Q5.3 -1.55 5.75 -1.15 6.25 -0.65 7.25 -0.65 8.25 -0.65 8.75 -1.15 9.15 -1.55 9.15 -2.25 L9.15 -7.85 10.25 -7.85 10.25 -2.2 Q10.25 -1.15 9.6 -0.5 8.85 0.25 7.25 0.25 5.65 0.25 4.9 -0.5 4.25 -1.15 4.25 -2.2 L4.25 -7.85 M16.5 -13.2 L15.75 -14.1 Q20.4 -16.75 20.7 -22.5 L21.8 -22.2 21.8 -21.9 21.75 -21.5 Q21.45 -18.95 20.15 -16.9 18.8 -14.55 16.5 -13.2 M24.65 -26.05 L23.9 -26.05 23.9 -37.95 24.85 -37.95 24.85 -26.15 24.85 -26.05 24.65 -26.05 M26.7 -27.25 L28.35 -29.55 Q28.85 -30.65 28.85 -31.9 28.85 -33.4 28.35 -34.5 27.85 -35.5 26.7 -36.55 L27.2 -37.05 28.95 -34.8 Q29.55 -33.55 29.55 -31.9 29.55 -30.45 28.95 -29.2 L27.2 -26.7 26.7 -27.25 M27.6 -41.3 Q29.75 -43.3 29.75 -45.85 29.75 -48.45 27.6 -50.45 L28.1 -51.0 Q30.45 -48.8 30.45 -45.85 30.45 -42.95 28.1 -40.75 L27.6 -41.3 M25.45 -55.85 L24.95 -55.85 24.95 -56.5 24.95 -56.85 26.05 -56.85 26.05 -55.85 25.45 -55.85 M24.4 -57.25 L23.8 -56.8 Q22.05 -59.35 18.45 -61.7 L19.45 -62.6 Q23.25 -60.2 25.0 -57.75 L24.4 -57.25 M13.5 -71.25 L12.9 -70.8 Q11.35 -73.05 8.35 -75.15 L7.55 -75.7 8.55 -76.6 Q12.35 -74.2 14.1 -71.75 L13.5 -71.25 M5.5 -77.35 L5.3 -77.35 3.95 -78.5 2.6 -77.35 1.7 -77.35 3.35 -79.25 4.5 -79.25 6.2 -77.35 5.5 -77.35 M0.1 -79.0 L0.7 -78.45 0.2 -78.1 Q-1.15 -79.35 -2.1 -79.8 -3.25 -80.35 -4.55 -80.35 -5.95 -80.35 -7.15 -79.8 -8.15 -79.35 -9.35 -78.1 L-9.8 -78.45 -9.3 -78.95 -7.6 -80.25 Q-6.1 -81.05 -4.55 -81.05 -2.85 -81.05 -1.5 -80.25 L0.1 -79.0 M-12.3 -61.2 L-12.3 -60.15 -13.4 -60.15 -13.4 -61.2 -12.3 -61.2 M-14.75 -61.2 L-14.75 -60.15 -15.85 -60.15 -15.85 -61.2 -14.75 -61.2 M-15.85 -56.85 L-14.75 -56.85 -14.75 -55.85 -15.85 -55.85 -15.85 -56.85 M-12.3 -56.85 L-12.3 -55.85 -13.4 -55.85 -13.4 -56.85 -12.3 -56.85 M-11.7 -47.2 L-11.7 -46.15 -12.8 -46.15 -12.8 -47.2 -11.7 -47.2 M-15.25 -47.2 L-14.15 -47.2 -14.15 -46.15 -15.25 -46.15 -15.25 -47.2 M-14.15 -42.85 L-14.15 -41.85 -15.25 -41.85 -15.25 -42.85 -14.15 -42.85 M-11.7 -42.85 L-11.7 -41.85 -12.8 -41.85 -12.8 -42.85 -11.7 -42.85 M-19.05 -42.85 L-19.05 -41.85 -20.15 -41.85 -20.15 -42.85 -19.05 -42.85 M-16.6 -42.85 L-16.6 -41.85 -17.7 -41.85 -17.7 -42.85 -16.6 -42.85 M-17.7 -47.2 L-16.6 -47.2 -16.6 -46.15 -17.7 -46.15 -17.7 -47.2 M-21.85 -33.2 L-21.85 -32.15 -22.95 -32.15 -22.95 -33.2 -21.85 -33.2 M-22.95 -27.85 L-22.95 -28.85 -21.85 -28.85 -21.85 -27.85 -22.95 -27.85 M-13.15 -33.2 L-12.05 -33.2 -12.05 -32.15 -13.15 -32.15 -13.15 -33.2 M-15.6 -32.15 L-15.6 -33.2 -14.5 -33.2 -14.5 -32.15 -15.6 -32.15 M-16.95 -32.15 L-18.05 -32.15 -18.05 -33.2 -16.95 -33.2 -16.95 -32.15 M-19.4 -33.2 L-19.4 -32.15 -20.5 -32.15 -20.5 -33.2 -19.4 -33.2 M-20.5 -28.85 L-19.4 -28.85 -19.4 -27.85 -20.5 -27.85 -20.5 -28.85 M-18.05 -28.85 L-16.95 -28.85 -16.95 -27.85 -18.05 -27.85 -18.05 -28.85 M-15.6 -28.85 L-14.5 -28.85 -14.5 -27.85 -15.6 -27.85 -15.6 -28.85 M-13.15 -27.85 L-13.15 -28.85 -12.05 -28.85 -12.05 -27.85 -13.15 -27.85 M-13.55 -19.2 L-12.45 -19.2 -12.45 -18.15 -13.55 -18.15 -13.55 -19.2 M-11.1 -19.2 L-10.0 -19.2 -10.0 -18.15 -11.1 -18.15 -11.1 -19.2 M-20.4 -21.9 L-21.35 -23.2 -20.85 -23.7 -19.9 -22.4 -20.4 -21.9 M-11.1 -14.85 L-10.0 -14.85 -10.0 -13.85 -11.1 -13.85 -11.1 -14.85 M-12.45 -13.85 L-13.55 -13.85 -13.55 -14.85 -12.45 -14.85 -12.45 -13.85 M-21.8 -23.2 L-20.85 -21.85 -21.4 -21.35 -22.25 -22.75 -21.8 -23.2 M-2.6 -85.75 L-3.8 -84.8 Q-5.55 -87.35 -9.15 -89.7 L-8.15 -90.6 Q-4.35 -88.2 -2.6 -85.75 M4.85 -61.2 L4.85 -60.15 3.75 -60.15 3.75 -61.2 4.85 -61.2 M2.4 -61.2 L2.4 -60.15 1.3 -60.15 1.3 -61.2 2.4 -61.2 M7.3 -61.2 L7.3 -60.15 6.2 -60.15 6.2 -61.2 7.3 -61.2 M-2.5 -61.2 L-2.5 -60.15 -3.6 -60.15 -3.6 -61.2 -2.5 -61.2 M-4.95 -61.2 L-4.95 -60.15 -6.05 -60.15 -6.05 -61.2 -4.95 -61.2 M-7.4 -61.2 L-7.4 -60.15 -8.5 -60.15 -8.5 -61.2 -7.4 -61.2 M-9.85 -61.2 L-9.85 -60.15 -10.95 -60.15 -10.95 -61.2 -9.85 -61.2 M-4.95 -55.85 L-6.05 -55.85 -6.05 -56.85 -4.95 -56.85 -4.95 -55.85 M-3.6 -56.85 L-2.5 -56.85 -2.5 -55.85 -3.6 -55.85 -3.6 -56.85 M-1.15 -56.85 L-0.05 -56.85 -0.05 -55.85 -1.15 -55.85 -1.15 -56.85 M-8.5 -56.85 L-7.4 -56.85 -7.4 -55.85 -8.5 -55.85 -8.5 -56.85 M-10.95 -55.85 L-10.95 -56.85 -9.85 -56.85 -9.85 -55.85 -10.95 -55.85 M6.2 -55.85 L6.2 -56.85 7.3 -56.85 7.3 -55.85 6.2 -55.85 M8.65 -56.85 L9.75 -56.85 9.75 -55.85 8.65 -55.85 8.65 -56.85 M4.85 -55.85 L3.75 -55.85 3.75 -56.85 4.85 -56.85 4.85 -55.85 M1.3 -56.85 L2.4 -56.85 2.4 -55.85 1.3 -55.85 1.3 -56.85 M4.5 -50.45 Q2.35 -48.45 2.35 -45.85 2.35 -43.3 4.5 -41.3 L3.95 -40.75 Q1.6 -42.95 1.6 -45.85 1.6 -48.8 3.95 -51.0 L4.5 -50.45 M-0.05 -61.2 L-0.05 -60.15 -1.15 -60.15 -1.15 -61.2 -0.05 -61.2 M8.65 -61.2 L9.75 -61.2 9.75 -60.15 8.65 -60.15 8.65 -61.2 M12.2 -61.2 L12.2 -60.15 11.1 -60.15 11.1 -61.2 12.2 -61.2 M14.65 -61.2 L14.65 -60.15 13.55 -60.15 13.55 -61.2 14.65 -61.2 M14.65 -55.85 L13.55 -55.85 13.55 -56.85 14.65 -56.85 14.65 -55.85 M12.2 -55.85 L11.1 -55.85 11.1 -56.85 12.2 -56.85 12.2 -55.85 M11.1 -51.35 Q10.8 -51.35 10.6 -51.15 L10.4 -50.65 10.6 -50.15 Q10.8 -49.95 11.1 -49.95 L11.65 -50.15 11.8 -50.65 11.65 -51.15 11.1 -51.35 M10.35 -51.4 Q10.7 -51.75 11.1 -51.75 L11.85 -51.4 12.2 -50.65 11.85 -49.9 Q11.55 -49.55 11.1 -49.55 10.7 -49.55 10.35 -49.9 10.05 -50.25 10.05 -50.65 L10.35 -51.4 M26.55 -50.65 L26.4 -51.15 25.85 -51.35 25.35 -51.15 25.15 -50.65 Q25.15 -50.3 25.35 -50.15 25.55 -49.95 25.85 -49.95 L26.4 -50.15 26.55 -50.65 M26.95 -50.65 L26.6 -49.9 Q26.3 -49.55 25.85 -49.55 25.45 -49.55 25.1 -49.9 24.8 -50.25 24.8 -50.65 24.8 -51.05 25.1 -51.4 25.45 -51.75 25.85 -51.75 26.3 -51.75 26.6 -51.4 L26.95 -50.65 M21.65 -50.95 L21.65 -42.7 22.7 -42.7 22.7 -40.1 21.8 -40.1 21.8 -41.8 15.2 -41.8 15.2 -40.1 14.3 -40.1 14.3 -42.7 15.1 -42.7 Q16.5 -44.65 16.5 -47.7 L16.5 -50.95 21.65 -50.95 M17.4 -50.05 L17.4 -47.7 Q17.4 -44.6 16.15 -42.7 L20.7 -42.7 20.7 -50.05 17.4 -50.05 M18.3 -32.55 Q18.95 -33.2 20.0 -33.2 21.0 -33.2 21.7 -32.5 22.35 -31.8 22.35 -30.45 L18.55 -30.45 Q18.55 -29.5 19.0 -29.0 19.45 -28.6 20.1 -28.6 20.75 -28.6 21.05 -28.85 L21.35 -29.6 22.4 -29.6 Q22.2 -28.8 21.8 -28.35 21.15 -27.75 20.1 -27.75 18.95 -27.75 18.25 -28.45 17.5 -29.2 17.5 -30.45 17.5 -31.75 18.3 -32.55 M16.15 -35.85 L16.15 -27.85 15.2 -27.85 15.2 -35.85 16.15 -35.85 M18.6 -31.2 L21.25 -31.2 Q21.25 -31.7 20.9 -32.05 20.55 -32.4 19.95 -32.4 19.4 -32.4 19.0 -32.0 L18.6 -31.2 M9.85 -30.45 Q9.85 -29.55 10.35 -29.0 10.8 -28.6 11.35 -28.6 11.9 -28.6 12.35 -29.0 12.85 -29.55 12.85 -30.45 12.85 -31.4 12.3 -31.95 11.9 -32.35 11.35 -32.35 10.8 -32.35 10.4 -31.95 9.85 -31.4 9.85 -30.45 M13.9 -30.45 Q13.9 -29.25 13.1 -28.45 12.4 -27.75 11.35 -27.75 10.3 -27.75 9.6 -28.45 8.8 -29.25 8.8 -30.45 8.8 -31.7 9.6 -32.5 10.3 -33.2 11.35 -33.2 12.4 -33.2 13.1 -32.5 13.9 -31.7 13.9 -30.45 M6.65 -42.85 L6.65 -41.85 6.0 -40.55 5.55 -40.55 6.0 -41.85 5.55 -41.85 5.55 -42.85 6.65 -42.85 M9.1 -42.85 L9.1 -41.85 8.45 -40.55 8.0 -40.55 8.45 -41.85 8.0 -41.85 8.0 -42.85 9.1 -42.85 M-0.55 -46.15 L-0.55 -47.2 0.55 -47.2 0.55 -46.15 -0.55 -46.15 M0.55 -42.85 L0.55 -41.85 -0.55 -41.85 -0.55 -42.85 0.55 -42.85 M-1.9 -47.2 L-1.9 -46.15 -3.0 -46.15 -3.0 -47.2 -1.9 -47.2 M-5.45 -47.2 L-4.35 -47.2 -4.35 -46.15 -5.45 -46.15 -5.45 -47.2 M-4.35 -42.85 L-4.35 -41.85 -5.45 -41.85 -5.45 -42.85 -4.35 -42.85 M-1.9 -42.85 L-1.9 -41.85 -3.0 -41.85 -3.0 -42.85 -1.9 -42.85 M-6.8 -47.2 L-6.8 -46.15 -7.9 -46.15 -7.9 -47.2 -6.8 -47.2 M-10.35 -47.2 L-9.25 -47.2 -9.25 -46.15 -10.35 -46.15 -10.35 -47.2 M-9.25 -42.85 L-9.25 -41.85 -10.35 -41.85 -10.35 -42.85 -9.25 -42.85 M-6.8 -42.85 L-6.8 -41.85 -7.9 -41.85 -7.9 -42.85 -6.8 -42.85 M-6.4 -36.55 L-8.0 -34.5 Q-8.55 -33.4 -8.55 -31.9 -8.55 -30.65 -8.0 -29.55 -7.55 -28.5 -6.4 -27.25 L-6.9 -26.7 -8.65 -29.2 Q-9.25 -30.45 -9.25 -31.9 -9.25 -33.55 -8.65 -34.8 L-6.9 -37.05 -6.4 -36.55 M-4.9 -28.6 Q-2.15 -30.85 -1.25 -36.3 L-0.25 -35.8 Q0.1 -35.6 -0.25 -35.55 -1.2 -30.25 -4.15 -27.6 L-4.9 -28.6 M7.55 -31.8 Q7.55 -29.8 6.45 -28.75 5.55 -27.85 4.1 -27.85 L1.3 -27.85 1.3 -35.85 4.1 -35.85 Q5.5 -35.85 6.5 -34.85 7.55 -33.85 7.55 -31.8 M5.55 -34.3 Q4.9 -34.95 4.05 -34.95 L2.4 -34.95 2.4 -28.75 4.05 -28.75 Q4.95 -28.75 5.5 -29.3 6.4 -30.2 6.4 -31.8 6.4 -33.45 5.55 -34.3 M8.5 -19.2 L9.6 -19.2 9.6 -18.15 8.5 -18.15 8.5 -19.2 M6.05 -18.15 L6.05 -19.2 7.15 -19.2 7.15 -18.15 6.05 -18.15 M4.7 -18.15 L3.6 -18.15 3.6 -19.2 4.7 -19.2 4.7 -18.15 M2.25 -19.2 L2.25 -18.15 1.15 -18.15 1.15 -19.2 2.25 -19.2 M-0.2 -18.15 L-1.3 -18.15 -1.3 -19.2 -0.2 -19.2 -0.2 -18.15 M-0.2 -13.85 L-1.3 -13.85 -1.3 -14.85 -0.2 -14.85 -0.2 -13.85 M1.15 -14.85 L2.25 -14.85 2.25 -13.85 1.15 -13.85 1.15 -14.85 M3.6 -14.85 L4.7 -14.85 4.7 -13.85 3.6 -13.85 3.6 -14.85 M6.05 -14.85 L7.15 -14.85 7.15 -13.85 6.05 -13.85 6.05 -14.85 M8.5 -14.85 L9.6 -14.85 9.6 -13.85 8.5 -13.85 8.5 -14.85 M-5.1 -18.15 L-6.2 -18.15 -6.2 -19.2 -5.1 -19.2 -5.1 -18.15 M-2.65 -19.2 L-2.65 -18.15 -3.75 -18.15 -3.75 -19.2 -2.65 -19.2 M-8.65 -19.2 L-7.55 -19.2 -7.55 -18.15 -8.65 -18.15 -8.65 -19.2 M-8.65 -14.85 L-7.55 -14.85 -7.55 -13.85 -8.65 -13.85 -8.65 -14.85 M-6.2 -14.85 L-5.1 -14.85 -5.1 -13.85 -6.2 -13.85 -6.2 -14.85 M-2.65 -13.85 L-3.75 -13.85 -3.75 -14.85 -2.65 -14.85 -2.65 -13.85 M14.5 -18.15 L13.4 -18.15 13.4 -19.2 14.5 -19.2 14.5 -18.15 M12.05 -19.2 L12.05 -18.15 10.95 -18.15 10.95 -19.2 12.05 -19.2 M13.4 -14.85 L14.5 -14.85 14.5 -13.85 13.4 -13.85 13.4 -14.85 M10.95 -14.85 L12.05 -14.85 12.05 -13.85 10.95 -13.85 10.95 -14.85" fill="#000000" fill-rule="evenodd" stroke="none"/>
  </g>
</svg>
