<svg xmlns:xlink="http://www.w3.org/1999/xlink" height="104.45px" width="82.5px" xmlns="http://www.w3.org/2000/svg">
  <g transform="matrix(1.0, 0.0, 0.0, 1.0, 34.45, 104.5)">
    <path d="M2.65 -91.95 L4.85 -90.75 4.85 -90.05 20.8 -90.05 20.8 -90.75 22.15 -90.75 23.75 -91.65 24.35 -91.35 28.9 -101.35 33.5 -91.35 33.55 -91.35 33.6 -91.35 36.15 -86.7 35.45 -86.05 Q37.0 -84.6 37.65 -83.3 38.35 -81.85 38.35 -79.85 38.35 -78.2 37.65 -76.7 37.0 -75.3 35.45 -73.6 L34.2 -68.05 35.55 -66.7 37.2 -66.5 37.2 -65.3 43.15 -65.3 Q44.8 -65.3 45.85 -64.25 46.8 -63.3 46.8 -61.95 46.8 -60.55 45.85 -59.6 44.8 -58.55 43.15 -58.55 L37.2 -58.55 37.2 -57.35 32.55 -57.25 Q31.75 -57.15 31.45 -56.75 29.35 -53.6 28.15 -49.85 L28.1 -49.75 27.35 -50.0 Q26.95 -42.3 20.75 -38.8 L21.75 -37.55 24.65 -37.6 Q29.4 -36.4 32.8 -32.05 34.35 -30.6 35.0 -29.3 35.7 -27.85 35.7 -25.85 35.7 -24.2 35.0 -22.7 34.35 -21.3 32.8 -19.6 L33.5 -18.95 31.7 -18.2 31.5 -18.05 31.5 -18.75 15.55 -18.75 15.55 -18.05 Q17.1 -16.5 17.5 -14.7 L16.8 -14.05 Q18.35 -12.6 19.0 -11.3 19.7 -9.85 19.7 -7.85 19.7 -6.2 19.0 -4.7 18.35 -3.3 16.8 -1.6 15.95 -0.8 15.5 -0.75 L-0.45 -0.75 -6.45 -0.65 -6.5 -0.65 -8.45 -0.75 -8.5 -0.75 -24.45 -0.75 -24.55 -0.75 -24.55 -1.45 -29.35 -1.45 -29.5 -1.4 -31.35 -0.95 -30.65 -1.6 Q-32.2 -3.3 -32.85 -4.7 -33.55 -6.2 -33.55 -7.85 -33.55 -9.85 -32.85 -11.3 -32.2 -12.6 -30.65 -14.05 L-30.55 -14.5 Q-30.05 -16.85 -28.7 -18.05 L-28.7 -34.0 -29.95 -34.0 Q-30.0 -35.95 -30.5 -37.25 L-30.65 -37.6 Q-32.2 -39.3 -32.85 -40.7 -33.55 -42.2 -33.55 -43.85 -33.55 -45.85 -32.85 -47.3 -32.2 -48.6 -30.65 -50.05 L-31.35 -50.7 Q-28.9 -53.3 -31.35 -54.95 L-30.65 -55.6 Q-32.2 -57.3 -32.85 -58.7 -33.4 -59.95 -33.5 -61.25 L-33.55 -61.85 -33.35 -63.75 -32.85 -65.3 Q-32.2 -66.6 -30.65 -68.05 L-31.35 -68.7 -31.85 -68.2 -30.15 -73.95 -28.95 -73.35 -24.4 -83.35 -19.8 -73.35 -18.65 -73.95 -10.45 -72.95 -9.75 -73.6 Q-11.3 -75.3 -11.95 -76.7 -12.65 -78.2 -12.65 -79.85 -12.65 -81.85 -11.95 -83.3 L-9.75 -86.05 -10.45 -86.7 -7.7 -91.25 -7.65 -91.35 -3.1 -101.35 1.5 -91.35 2.65 -91.95 M-17.65 -29.75 Q-18.45 -28.05 -18.45 -25.85 -18.45 -23.95 -17.65 -22.25 -16.9 -20.7 -15.35 -18.95 L-14.65 -19.6 Q-16.2 -21.3 -16.85 -22.7 -17.55 -24.2 -17.55 -25.85 -17.55 -27.85 -16.85 -29.3 -16.2 -30.6 -14.65 -32.05 L-15.35 -32.7 Q-16.95 -31.2 -17.65 -29.75 M-9.0 -46.5 Q-8.3 -45.7 -8.3 -44.35 -8.25 -42.5 -9.25 -41.5 -10.55 -40.0 -14.2 -40.0 L-13.9 -38.55 Q-10.7 -38.55 -8.95 -39.85 -7.05 -41.25 -6.95 -43.85 -6.8 -46.45 -8.25 -47.7 -9.3 -48.6 -10.95 -48.6 L-14.0 -48.1 -18.0 -46.75 -17.45 -45.2 -13.95 -46.7 -10.75 -47.3 Q-9.65 -47.25 -9.0 -46.5 M-11.55 -65.3 L-5.65 -65.3 -5.65 -66.5 -11.55 -66.5 Q-13.75 -66.5 -15.05 -65.2 -16.45 -63.8 -16.45 -61.95 -16.45 -60.05 -15.05 -58.7 -13.75 -57.35 -11.55 -57.35 L-5.65 -57.35 -5.65 -58.55 -11.55 -58.55 Q-13.2 -58.55 -14.25 -59.6 -15.2 -60.55 -15.2 -61.95 -15.2 -63.3 -14.25 -64.25 -13.2 -65.3 -11.55 -65.3 M-8.25 -18.75 L-8.55 -19.45 -13.35 -19.45 -13.35 -18.7 -8.55 -18.7 -8.45 -18.7 -8.45 -18.05 7.5 -18.05 7.5 -18.75 -8.25 -18.75 M12.6 -25.85 Q12.6 -28.05 11.8 -29.75 11.1 -31.2 9.5 -32.7 L8.8 -32.05 Q10.35 -30.6 11.0 -29.3 11.7 -27.85 11.7 -25.85 11.7 -24.2 11.0 -22.7 10.35 -21.3 8.8 -19.6 L9.5 -18.95 11.3 -21.3 11.8 -22.25 Q12.6 -23.95 12.6 -25.85 M13.4 -49.55 L11.9 -50.0 Q11.5 -42.3 5.3 -38.8 L6.3 -37.55 Q9.4 -39.35 11.2 -42.5 13.15 -45.6 13.4 -49.55 M8.45 -87.0 L6.2 -87.0 3.85 -84.25 5.25 -84.25 8.45 -87.0 M20.7 -81.45 L18.2 -77.0 15.7 -81.45 20.7 -81.45 M22.75 -85.3 L21.35 -82.75 15.1 -82.75 13.65 -85.3 12.45 -84.6 18.2 -74.2 23.95 -84.6 22.75 -85.3 M29.85 -87.0 L27.6 -87.0 30.7 -84.25 32.15 -84.25 29.85 -87.0 M-6.5 -14.7 L-7.2 -14.05 Q-5.65 -12.6 -5.0 -11.3 -4.3 -9.85 -4.3 -7.85 -4.3 -6.3 -4.9 -4.85 L-5.0 -4.7 Q-5.65 -3.3 -7.2 -1.6 L-6.5 -0.95 Q-4.95 -2.7 -4.2 -4.25 L-3.95 -4.85 Q-3.4 -6.3 -3.4 -7.85 -3.4 -10.05 -4.2 -11.75 -4.9 -13.2 -6.5 -14.7" fill="#ffffff" fill-rule="evenodd" stroke="none"/>
    <path d="M-7.65 -91.35 L-8.85 -91.95 -3.1 -104.5 2.65 -91.95 1.5 -91.35 -3.1 -101.35 -7.65 -91.35 M4.85 -90.75 L20.8 -90.75 20.8 -90.05 4.85 -90.05 4.85 -90.75 M23.75 -91.65 L23.15 -91.95 28.9 -104.5 34.65 -91.95 33.55 -91.35 33.5 -91.35 28.9 -101.35 24.35 -91.35 23.75 -91.65 M36.15 -86.7 Q37.75 -85.2 38.45 -83.75 39.25 -82.05 39.25 -79.85 39.25 -77.95 38.45 -76.25 37.7 -74.7 36.15 -72.95 L35.45 -73.6 Q37.0 -75.3 37.65 -76.7 38.35 -78.2 38.35 -79.85 38.35 -81.85 37.65 -83.3 37.0 -84.6 35.45 -86.05 L36.15 -86.7 M37.2 -66.5 L43.15 -66.5 Q45.35 -66.5 46.65 -65.2 48.05 -63.8 48.05 -61.95 48.05 -60.05 46.65 -58.7 45.35 -57.35 43.15 -57.35 L37.2 -57.35 37.2 -58.55 43.15 -58.55 Q44.8 -58.55 45.85 -59.6 46.8 -60.55 46.8 -61.95 46.8 -63.3 45.85 -64.25 44.8 -65.3 43.15 -65.3 L37.2 -65.3 37.2 -66.5 M28.1 -49.75 L28.85 -49.55 Q28.6 -45.6 26.65 -42.5 25.4 -40.35 23.6 -38.8 22.75 -38.1 21.75 -37.55 L20.75 -38.8 Q26.95 -42.3 27.35 -50.0 L28.1 -49.75 M32.8 -32.05 L33.5 -32.7 Q35.1 -31.2 35.8 -29.75 36.6 -28.05 36.6 -25.85 36.6 -23.95 35.8 -22.25 35.05 -20.7 33.5 -18.95 L32.8 -19.6 Q34.35 -21.3 35.0 -22.7 35.7 -24.2 35.7 -25.85 35.7 -27.85 35.0 -29.3 34.35 -30.6 32.8 -32.05 M31.5 -18.05 L15.55 -18.05 15.55 -18.75 31.5 -18.75 31.5 -18.05 M17.5 -14.7 Q19.1 -13.2 19.8 -11.75 20.6 -10.05 20.6 -7.85 20.6 -5.95 19.8 -4.25 19.05 -2.7 17.5 -0.95 L16.8 -1.6 Q18.35 -3.3 19.0 -4.7 19.7 -6.2 19.7 -7.85 19.7 -9.85 19.0 -11.3 18.35 -12.6 16.8 -14.05 L17.5 -14.7 M15.5 -0.75 L15.5 -0.05 -0.45 -0.05 -0.45 -0.75 15.5 -0.75 M-8.5 -0.75 L-8.5 -0.05 -24.45 -0.05 -24.45 -0.75 -8.5 -0.75 M-24.55 -0.75 L-24.55 -0.7 -29.35 -0.7 -29.35 -1.45 -24.55 -1.45 -24.55 -0.75 M-31.35 -0.95 Q-32.9 -2.7 -33.65 -4.25 L-33.75 -4.45 Q-34.45 -6.1 -34.45 -7.85 -34.45 -9.35 -34.05 -10.6 L-33.65 -11.75 Q-32.95 -13.2 -31.35 -14.7 L-30.65 -14.05 Q-32.2 -12.6 -32.85 -11.3 -33.55 -9.85 -33.55 -7.85 -33.55 -6.2 -32.85 -4.7 -32.2 -3.3 -30.65 -1.6 L-31.35 -0.95 M-28.7 -18.05 L-29.95 -18.05 -29.95 -34.0 -28.7 -34.0 -28.7 -18.05 M-30.65 -37.6 L-31.35 -36.95 Q-32.9 -38.7 -33.65 -40.25 -34.45 -41.95 -34.45 -43.85 -34.45 -46.05 -33.65 -47.75 -32.95 -49.2 -31.35 -50.7 L-30.65 -50.05 Q-32.2 -48.6 -32.85 -47.3 -33.55 -45.85 -33.55 -43.85 -33.55 -42.2 -32.85 -40.7 -32.2 -39.3 -30.65 -37.6 M-31.35 -54.95 Q-32.9 -56.7 -33.65 -58.25 L-34.25 -59.95 -34.45 -61.85 -34.25 -63.9 -33.65 -65.75 Q-33.05 -66.95 -31.85 -68.2 L-31.35 -68.7 -30.65 -68.05 Q-32.2 -66.6 -32.85 -65.3 L-33.35 -63.75 -33.55 -61.85 -33.5 -61.25 Q-33.4 -59.95 -32.85 -58.7 -32.2 -57.3 -30.65 -55.6 L-31.35 -54.95 M-30.15 -73.95 L-24.4 -86.5 -18.65 -73.95 -19.8 -73.35 -24.4 -83.35 -28.95 -73.35 -30.15 -73.95 M-10.45 -72.95 Q-12.0 -74.7 -12.75 -76.25 -13.55 -77.95 -13.55 -79.85 -13.55 -82.05 -12.75 -83.75 -12.05 -85.2 -10.45 -86.7 L-9.75 -86.05 -11.95 -83.3 Q-12.65 -81.85 -12.65 -79.85 -12.65 -78.2 -11.95 -76.7 -11.3 -75.3 -9.75 -73.6 L-10.45 -72.95 M-11.55 -65.3 Q-13.2 -65.3 -14.25 -64.25 -15.2 -63.3 -15.2 -61.95 -15.2 -60.55 -14.25 -59.6 -13.2 -58.55 -11.55 -58.55 L-5.65 -58.55 -5.65 -57.35 -11.55 -57.35 Q-13.75 -57.35 -15.05 -58.7 -16.45 -60.05 -16.45 -61.95 -16.45 -63.8 -15.05 -65.2 -13.75 -66.5 -11.55 -66.5 L-5.65 -66.5 -5.65 -65.3 -11.55 -65.3 M-9.0 -46.5 Q-9.65 -47.25 -10.75 -47.3 L-13.95 -46.7 -17.45 -45.2 -18.0 -46.75 -14.0 -48.1 -10.95 -48.6 Q-9.3 -48.6 -8.25 -47.7 -6.8 -46.45 -6.95 -43.85 -7.05 -41.25 -8.95 -39.85 -10.7 -38.55 -13.9 -38.55 L-14.2 -40.0 Q-10.55 -40.0 -9.25 -41.5 -8.25 -42.5 -8.3 -44.35 -8.3 -45.7 -9.0 -46.5 M-17.65 -29.75 Q-16.95 -31.2 -15.35 -32.7 L-14.65 -32.05 Q-16.2 -30.6 -16.85 -29.3 -17.55 -27.85 -17.55 -25.85 -17.55 -24.2 -16.85 -22.7 -16.2 -21.3 -14.65 -19.6 L-15.35 -18.95 Q-16.9 -20.7 -17.65 -22.25 -18.45 -23.95 -18.45 -25.85 -18.45 -28.05 -17.65 -29.75 M-8.25 -18.75 L7.5 -18.75 7.5 -18.05 -8.45 -18.05 -8.45 -18.7 -8.45 -18.75 -8.25 -18.75 M-8.55 -18.7 L-13.35 -18.7 -13.35 -19.45 -8.55 -19.45 -8.55 -18.7 M-6.5 -14.7 Q-4.9 -13.2 -4.2 -11.75 -3.4 -10.05 -3.4 -7.85 -3.4 -6.3 -3.95 -4.85 L-4.2 -4.25 Q-4.95 -2.7 -6.5 -0.95 L-7.2 -1.6 Q-5.65 -3.3 -5.0 -4.7 L-4.9 -4.85 Q-4.3 -6.3 -4.3 -7.85 -4.3 -9.85 -5.0 -11.3 -5.65 -12.6 -7.2 -14.05 L-6.5 -14.7 M29.85 -87.0 L32.15 -84.25 30.7 -84.25 27.6 -87.0 29.85 -87.0 M22.75 -85.3 L23.95 -84.6 18.2 -74.2 12.45 -84.6 13.65 -85.3 15.1 -82.75 21.35 -82.75 22.75 -85.3 M20.7 -81.45 L15.7 -81.45 18.2 -77.0 20.7 -81.45 M8.45 -87.0 L5.25 -84.25 3.85 -84.25 6.2 -87.0 8.45 -87.0 M13.4 -49.55 Q13.15 -45.6 11.2 -42.5 9.4 -39.35 6.3 -37.55 L5.3 -38.8 Q11.5 -42.3 11.9 -50.0 L13.4 -49.55 M12.6 -25.85 Q12.6 -23.95 11.8 -22.25 L11.3 -21.3 9.5 -18.95 8.8 -19.6 Q10.35 -21.3 11.0 -22.7 11.7 -24.2 11.7 -25.85 11.7 -27.85 11.0 -29.3 10.35 -30.6 8.8 -32.05 L9.5 -32.7 Q11.1 -31.2 11.8 -29.75 12.6 -28.05 12.6 -25.85" fill="#000000" fill-rule="evenodd" stroke="none"/>
  </g>
</svg>
