<svg xmlns:xlink="http://www.w3.org/1999/xlink" height="83.25px" width="49.85px" xmlns="http://www.w3.org/2000/svg">
  <g transform="matrix(1.0, 0.0, 0.0, 1.0, 22.0, 82.55)">
    <path d="M3.75 -77.8 L3.75 -76.6 4.7 -76.6 4.7 -77.8 3.75 -77.8 M2.6 -75.05 L2.6 -75.8 -2.7 -75.8 -2.7 -75.05 2.6 -75.05 M5.3 -82.05 Q10.1 -81.55 13.95 -78.7 L14.1 -78.6 14.15 -78.55 Q16.85 -76.55 16.45 -76.6 L15.45 -75.7 Q19.05 -73.35 20.8 -70.8 23.35 -67.3 24.8 -64.55 L26.45 -62.5 Q26.95 -61.4 26.95 -59.9 26.95 -58.65 26.45 -57.55 25.95 -56.5 24.8 -55.25 23.85 -52.45 21.75 -50.1 22.85 -45.5 25.65 -44.15 23.65 -44.0 21.85 -42.95 L22.0 -42.0 19.45 -41.5 14.65 -40.4 11.85 -39.6 11.35 -39.35 13.55 -36.7 Q13.8 -36.4 13.0 -35.85 L13.3 -30.55 14.05 -30.55 14.25 -34.05 15.5 -34.05 15.95 -32.9 18.55 -34.05 20.95 -34.5 Q21.8 -34.45 22.25 -33.9 22.8 -33.3 22.8 -32.3 22.85 -30.9 22.1 -30.15 21.1 -29.0 18.4 -29.0 16.3 -27.9 14.4 -27.25 L14.35 -27.25 11.85 -26.65 11.7 -26.6 10.1 -26.5 10.05 -26.45 9.3 -26.25 9.1 -23.95 9.1 -12.05 9.15 -11.85 7.5 -11.7 Q7.5 -9.3 6.85 -7.8 L5.85 -8.3 Q5.05 -3.35 2.7 -1.05 L2.2 -0.6 2.15 -0.6 Q-0.7 1.45 -1.75 -1.3 L-1.25 -3.1 -2.25 -3.6 Q-2.45 -2.05 -3.0 -1.3 -3.55 -0.4 -4.55 -0.35 -5.9 -0.3 -6.3 -0.75 -6.75 -1.2 -6.75 -2.35 L-6.75 -8.85 -7.65 -8.85 Q-7.0 -11.8 -6.9 -14.1 L-6.0 -12.85 -5.1 -13.7 -6.75 -15.6 -8.65 -17.55 -8.95 -17.95 -8.55 -18.6 Q-7.2 -19.85 -5.3 -22.45 L-6.15 -23.15 Q-5.4 -24.95 -6.85 -26.85 L-6.9 -26.9 -6.05 -27.7 -7.7 -29.6 -9.6 -31.55 -9.9 -31.95 -9.5 -32.6 Q-8.15 -33.85 -6.25 -36.45 L-7.1 -37.15 Q-6.7 -38.35 -6.95 -39.6 -6.95 -40.3 -7.4 -40.6 L-8.75 -40.75 -8.75 -41.1 -9.95 -41.1 -12.35 -41.15 -12.4 -41.15 -13.15 -41.85 -13.15 -41.15 -14.95 -41.1 -18.55 -41.1 -18.55 -40.7 -20.15 -40.9 -19.95 -41.85 -19.35 -41.85 -19.35 -42.85 -19.8 -42.85 -19.7 -44.55 -19.5 -44.55 -19.25 -49.85 -20.55 -49.85 Q-21.5 -53.0 -21.85 -55.85 L-21.05 -55.85 -21.05 -61.1 -21.05 -62.6 -21.05 -63.2 -21.0 -63.75 Q-20.9 -66.75 -20.4 -69.8 -19.65 -74.55 -16.5 -76.8 L-16.4 -76.9 -16.3 -76.85 -16.7 -75.6 -16.25 -75.6 -15.6 -77.0 -15.6 -77.55 -15.35 -77.75 -12.35 -79.8 -12.2 -79.9 Q-10.4 -80.9 -8.5 -81.4 L-6.6 -81.85 -5.55 -82.05 5.3 -82.05 M-2.3 -36.45 Q-0.15 -34.45 -0.15 -31.85 -0.15 -29.3 -2.3 -27.3 L-1.8 -26.75 Q0.55 -28.95 0.55 -31.85 0.55 -34.8 -1.8 -37.0 L-2.3 -36.45 M-3.55 -37.95 L-4.5 -37.95 -4.5 -26.05 -3.55 -26.05 -3.55 -37.95 M-4.45 -42.85 L-3.9 -42.65 Q-3.75 -42.5 -3.75 -42.15 -3.75 -41.8 -3.9 -41.65 -4.1 -41.45 -4.45 -41.45 L-4.95 -41.65 -5.15 -42.15 -4.95 -42.65 -4.45 -42.85 M-6.85 -41.85 L-6.85 -42.85 -7.9 -42.85 -7.9 -41.85 -6.85 -41.85 M-5.2 -42.9 L-5.5 -42.15 -5.2 -41.4 Q-4.85 -41.05 -4.45 -41.05 -4.0 -41.05 -3.7 -41.4 -3.35 -41.75 -3.35 -42.15 -3.35 -42.55 -3.7 -42.9 -4.0 -43.25 -4.45 -43.25 L-5.2 -42.9 M-6.75 -49.85 L-8.05 -49.85 -7.75 -44.55 -7.0 -44.55 -6.75 -49.85 M-7.4 -61.1 L-7.4 -55.85 -6.45 -55.85 -6.45 -61.1 -7.4 -61.1 M-13.15 -41.85 L-13.15 -49.85 -14.1 -49.85 -14.1 -41.85 -13.15 -41.85 M-12.45 -63.6 Q-12.0 -63.85 -12.45 -63.95 L-13.35 -64.05 -13.35 -58.8 -12.45 -58.8 -12.45 -63.6 M-15.1 -63.8 L-16.1 -64.3 Q-16.95 -59.1 -19.5 -56.8 L-19.75 -56.6 -19.7 -56.55 -19.0 -55.6 -18.4 -56.2 -17.9 -56.75 Q-15.85 -59.3 -15.1 -63.55 -14.75 -63.6 -15.1 -63.8 M-3.9 -63.85 L-4.85 -63.85 -4.85 -55.85 -3.9 -55.85 -3.9 -63.85 M-7.4 -63.8 L-7.4 -62.6 -6.45 -62.6 -6.45 -63.8 -7.4 -63.8 M-9.25 -64.1 Q-8.8 -64.3 -9.3 -64.4 L-10.2 -64.5 -10.2 -59.7 Q-10.2 -57.2 -11.75 -55.8 L-12.15 -55.45 -11.45 -54.55 -10.9 -55.0 -10.45 -55.55 Q-9.25 -57.15 -9.25 -59.5 L-9.25 -64.1 M-4.1 -76.1 L-3.8 -77.55 Q-3.45 -77.6 -3.8 -77.8 L-4.8 -78.3 Q-5.7 -72.85 -8.45 -70.6 L-7.7 -69.6 Q-5.15 -71.85 -4.1 -76.1 M-13.75 -77.2 L-12.65 -77.2 -10.25 -79.25 -11.95 -79.25 -13.75 -77.2 M1.05 -7.0 L1.05 -8.05 -0.05 -8.05 -0.05 -7.0 0.4 -7.0 -0.05 -5.6 0.4 -5.6 1.05 -7.0 M1.5 -13.1 L1.5 -12.55 5.1 -12.55 5.1 -13.1 1.5 -13.1 M1.2 -22.2 L0.75 -22.45 -4.2 -13.6 -3.75 -13.3 1.2 -22.2 M7.2 -21.85 L6.15 -21.85 6.15 -13.85 7.2 -13.85 7.2 -21.85 M14.2 -27.85 L14.2 -28.85 13.15 -28.85 13.15 -27.85 14.2 -27.85 M11.55 -33.1 L10.6 -33.1 10.6 -27.85 11.55 -27.85 11.55 -33.1 M10.6 -34.6 L11.55 -34.6 11.55 -35.8 10.6 -35.8 10.6 -34.6 M2.75 -33.1 L1.8 -33.1 1.8 -27.85 2.75 -27.85 2.75 -33.1 M2.75 -34.6 L2.75 -35.8 1.8 -35.8 1.8 -34.6 2.75 -34.6 M6.6 -31.45 L5.3 -33.15 3.95 -33.15 6.05 -30.65 3.7 -27.9 5.05 -27.9 6.65 -29.85 6.75 -29.85 8.25 -27.9 9.6 -27.9 7.25 -30.65 9.3 -33.15 8.0 -33.15 6.7 -31.45 6.6 -31.45 M8.55 -45.6 L8.55 -46.35 3.25 -46.35 3.25 -45.6 8.55 -45.6 M18.35 -41.85 L19.4 -41.85 19.4 -42.85 18.35 -42.85 18.35 -41.85 M10.8 -65.95 L9.85 -65.95 9.85 -54.05 10.8 -54.05 10.8 -65.95 M19.5 -49.85 L18.2 -49.85 18.5 -44.55 19.25 -44.55 19.5 -49.85 M16.8 -49.55 Q17.15 -49.6 16.8 -49.8 L15.8 -50.3 Q14.9 -44.85 12.15 -42.6 L12.9 -41.6 Q15.85 -44.25 16.8 -49.55 M9.5 -51.4 Q9.2 -51.05 9.2 -50.65 9.2 -50.25 9.5 -49.9 9.85 -49.55 10.25 -49.55 10.7 -49.55 11.0 -49.9 11.35 -50.25 11.35 -50.65 L11.0 -51.4 Q10.7 -51.75 10.25 -51.75 9.85 -51.75 9.5 -51.4 M9.55 -50.65 L9.75 -51.15 10.25 -51.35 10.8 -51.15 10.95 -50.65 10.8 -50.15 10.25 -49.95 Q9.95 -49.95 9.75 -50.15 L9.55 -50.65 M0.75 -50.65 L0.6 -50.15 Q0.4 -49.95 0.05 -49.95 L-0.45 -50.15 -0.65 -50.65 -0.45 -51.15 0.05 -51.35 Q0.4 -51.35 0.6 -51.15 L0.75 -50.65 M0.8 -49.9 L1.15 -50.65 0.8 -51.4 Q0.5 -51.75 0.05 -51.75 L-0.7 -51.4 -1.0 -50.65 -0.7 -49.9 Q-0.35 -49.55 0.05 -49.55 0.5 -49.55 0.8 -49.9 M5.7 -64.45 Q6.15 -64.75 5.65 -64.85 L4.65 -64.95 Q4.55 -60.75 3.35 -57.75 L3.3 -57.7 3.3 -57.65 2.45 -56.0 3.2 -55.05 Q4.55 -56.75 5.2 -60.1 5.85 -57.6 7.55 -55.65 L8.4 -56.7 Q6.25 -59.2 5.55 -62.2 L5.7 -64.45 M0.85 -64.45 Q1.25 -64.75 0.8 -64.85 L-0.25 -64.95 Q-0.45 -59.4 -2.45 -56.15 L-1.6 -55.35 Q-0.15 -57.55 0.3 -59.95 L2.0 -56.75 2.75 -57.95 0.55 -61.9 0.85 -64.45 M2.6 -72.2 L2.6 -72.95 -2.7 -72.95 -2.7 -72.2 2.6 -72.2 M16.75 -64.4 L15.85 -64.5 15.85 -59.7 Q15.85 -56.9 13.9 -55.45 L14.6 -54.55 Q16.8 -56.3 16.8 -59.5 L16.8 -64.1 Q17.25 -64.3 16.75 -64.4 M19.3 -65.05 L18.8 -64.55 20.45 -62.5 Q20.95 -61.4 20.95 -59.9 20.95 -58.65 20.45 -57.55 L18.8 -55.25 19.3 -54.7 Q20.5 -56.05 21.05 -57.2 21.65 -58.45 21.65 -59.9 21.65 -61.55 21.05 -62.8 L19.3 -65.05 M13.6 -63.6 Q14.05 -63.85 13.6 -63.95 L12.7 -64.05 12.7 -58.8 13.6 -58.8 13.6 -63.6 M12.55 -77.8 L12.55 -76.6 13.5 -76.6 13.5 -77.8 12.55 -77.8 M13.5 -75.1 L12.55 -75.1 12.55 -69.85 13.5 -69.85 13.5 -75.1 M4.7 -75.1 L3.75 -75.1 3.75 -69.85 4.7 -69.85 4.7 -75.1 M7.25 -75.15 L5.9 -75.15 8.0 -72.65 5.65 -69.9 7.0 -69.9 8.6 -71.85 8.7 -71.85 10.2 -69.9 11.55 -69.9 9.2 -72.65 11.25 -75.15 9.95 -75.15 8.65 -73.45 8.55 -73.45 7.25 -75.15" fill="#ffffff" fill-rule="evenodd" stroke="none"/>
    <path d="M2.6 -75.05 L-2.7 -75.05 -2.7 -75.8 2.6 -75.8 2.6 -75.05 M3.75 -77.8 L4.7 -77.8 4.7 -76.6 3.75 -76.6 3.75 -77.8 M-5.55 -82.05 L-6.65 -82.05 -6.65 -82.55 5.3 -82.55 5.3 -82.05 -5.55 -82.05 M16.45 -76.6 Q20.25 -74.2 22.0 -71.75 L20.8 -70.8 Q19.05 -73.35 15.45 -75.7 L16.45 -76.6 M24.8 -64.55 L25.3 -65.05 27.05 -62.8 Q27.65 -61.55 27.65 -59.9 27.65 -58.45 27.05 -57.2 L25.3 -54.7 24.8 -55.25 Q25.95 -56.5 26.45 -57.55 26.95 -58.65 26.95 -59.9 26.95 -61.4 26.45 -62.5 L24.8 -64.55 M21.75 -50.1 L22.85 -50.3 Q23.4 -50.4 23.0 -50.05 23.75 -45.75 27.85 -44.4 L27.15 -43.15 24.45 -42.8 22.7 -42.1 21.85 -42.95 Q23.65 -44.0 25.65 -44.15 22.85 -45.5 21.75 -50.1 M13.0 -35.85 L14.3 -35.85 14.25 -34.05 14.05 -30.55 13.3 -30.55 13.0 -35.85 M15.5 -34.05 L18.5 -35.1 20.8 -35.5 Q22.05 -35.5 22.85 -34.8 23.9 -33.85 23.8 -31.9 23.7 -29.95 22.3 -28.9 21.0 -27.95 18.6 -27.95 L18.4 -29.0 Q21.1 -29.0 22.1 -30.15 22.85 -30.9 22.8 -32.3 22.8 -33.3 22.25 -33.9 21.8 -34.45 20.95 -34.5 L18.55 -34.05 15.95 -32.9 15.5 -34.05 M9.1 -23.95 L10.05 -23.95 10.05 -12.05 9.1 -12.05 9.1 -23.95 M6.85 -7.8 Q7.2 -7.6 6.85 -7.55 5.9 -2.25 2.95 0.4 L2.2 -0.6 2.7 -1.05 Q5.05 -3.35 5.85 -8.3 L6.85 -7.8 M-1.75 -1.3 Q-2.5 0.25 -4.0 0.6 L-4.95 0.7 -6.25 0.55 -7.05 0.0 Q-7.6 -0.7 -7.65 -2.35 L-7.65 -8.85 -6.75 -8.85 -6.75 -2.35 Q-6.75 -1.2 -6.3 -0.75 -5.9 -0.3 -4.55 -0.35 -3.55 -0.4 -3.0 -1.3 -2.45 -2.05 -2.25 -3.6 L-1.25 -3.1 -1.75 -1.3 M-6.9 -14.1 L-9.1 -16.55 Q-9.95 -17.4 -9.95 -18.0 L-9.25 -19.2 Q-7.4 -21.0 -6.15 -23.15 L-5.3 -22.45 Q-7.2 -19.85 -8.55 -18.6 L-8.95 -17.95 -8.65 -17.55 -6.75 -15.6 -5.1 -13.7 -6.0 -12.85 -6.9 -14.1 M-6.9 -26.9 L-6.95 -26.85 -7.25 -27.3 -7.45 -27.55 -10.05 -30.55 Q-10.9 -31.4 -10.9 -32.0 L-10.2 -33.2 Q-8.35 -35.0 -7.1 -37.15 L-6.25 -36.45 Q-8.15 -33.85 -9.5 -32.6 L-9.9 -31.95 -9.6 -31.55 -7.7 -29.6 -6.05 -27.7 -6.9 -26.9 M-8.75 -40.75 L-8.75 -40.55 -12.35 -40.55 -12.35 -41.1 -9.95 -41.1 -8.75 -41.1 -8.75 -40.75 M-14.95 -41.1 L-14.95 -40.55 -18.55 -40.55 -18.55 -40.7 -18.55 -41.1 -14.95 -41.1 M-19.95 -41.85 L-20.4 -41.85 -20.4 -42.85 -19.8 -42.85 -19.35 -42.85 -19.35 -41.85 -19.95 -41.85 M-19.7 -44.55 L-20.25 -44.55 -20.55 -49.85 -19.25 -49.85 -19.5 -44.55 -19.7 -44.55 M-21.85 -55.85 L-22.0 -55.85 -22.0 -61.1 -21.05 -61.1 -21.05 -55.85 -21.85 -55.85 M-21.05 -62.6 L-22.0 -62.6 -22.0 -63.8 -21.05 -63.8 -21.05 -63.2 -21.05 -62.6 M-16.3 -76.85 L-16.25 -77.0 -16.7 -77.0 -16.7 -78.05 -15.6 -78.05 -15.6 -77.55 -15.6 -77.0 -16.25 -75.6 -16.7 -75.6 -16.3 -76.85 M7.25 -75.15 L8.55 -73.45 8.65 -73.45 9.95 -75.15 11.25 -75.15 9.2 -72.65 11.55 -69.9 10.2 -69.9 8.7 -71.85 8.6 -71.85 7.0 -69.9 5.65 -69.9 8.0 -72.65 5.9 -75.15 7.25 -75.15 M4.7 -75.1 L4.7 -69.85 3.75 -69.85 3.75 -75.1 4.7 -75.1 M13.5 -75.1 L13.5 -69.85 12.55 -69.85 12.55 -75.1 13.5 -75.1 M12.55 -77.8 L13.5 -77.8 13.5 -76.6 12.55 -76.6 12.55 -77.8 M13.6 -63.6 L13.6 -58.8 12.7 -58.8 12.7 -64.05 13.6 -63.95 Q14.05 -63.85 13.6 -63.6 M19.3 -65.05 L21.05 -62.8 Q21.65 -61.55 21.65 -59.9 21.65 -58.45 21.05 -57.2 20.5 -56.05 19.3 -54.7 L18.8 -55.25 20.45 -57.55 Q20.95 -58.65 20.95 -59.9 20.95 -61.4 20.45 -62.5 L18.8 -64.55 19.3 -65.05 M16.75 -64.4 Q17.25 -64.3 16.8 -64.1 L16.8 -59.5 Q16.8 -56.3 14.6 -54.55 L13.9 -55.45 Q15.85 -56.9 15.85 -59.7 L15.85 -64.5 16.75 -64.4 M2.6 -72.2 L-2.7 -72.2 -2.7 -72.95 2.6 -72.95 2.6 -72.2 M0.85 -64.45 L0.55 -61.9 2.75 -57.95 2.0 -56.75 0.3 -59.95 Q-0.15 -57.55 -1.6 -55.35 L-2.45 -56.15 Q-0.45 -59.4 -0.25 -64.95 L0.8 -64.85 Q1.25 -64.75 0.85 -64.45 M5.7 -64.45 L5.55 -62.2 Q6.25 -59.2 8.4 -56.7 L7.55 -55.65 Q5.85 -57.6 5.2 -60.1 4.55 -56.75 3.2 -55.05 L2.45 -56.0 3.3 -57.65 3.3 -57.7 3.35 -57.75 Q4.55 -60.75 4.65 -64.95 L5.65 -64.85 Q6.15 -64.75 5.7 -64.45 M0.8 -49.9 Q0.5 -49.55 0.05 -49.55 -0.35 -49.55 -0.7 -49.9 L-1.0 -50.65 -0.7 -51.4 0.05 -51.75 Q0.5 -51.75 0.8 -51.4 L1.15 -50.65 0.8 -49.9 M0.75 -50.65 L0.6 -51.15 Q0.4 -51.35 0.05 -51.35 L-0.45 -51.15 -0.65 -50.65 -0.45 -50.15 0.05 -49.95 Q0.4 -49.95 0.6 -50.15 L0.75 -50.65 M9.55 -50.65 L9.75 -50.15 Q9.95 -49.95 10.25 -49.95 L10.8 -50.15 10.95 -50.65 10.8 -51.15 10.25 -51.35 9.75 -51.15 9.55 -50.65 M9.5 -51.4 Q9.85 -51.75 10.25 -51.75 10.7 -51.75 11.0 -51.4 L11.35 -50.65 Q11.35 -50.25 11.0 -49.9 10.7 -49.55 10.25 -49.55 9.85 -49.55 9.5 -49.9 9.2 -50.25 9.2 -50.65 9.2 -51.05 9.5 -51.4 M16.8 -49.55 Q15.85 -44.25 12.9 -41.6 L12.15 -42.6 Q14.9 -44.85 15.8 -50.3 L16.8 -49.8 Q17.15 -49.6 16.8 -49.55 M19.5 -49.85 L19.25 -44.55 18.5 -44.55 18.2 -49.85 19.5 -49.85 M10.8 -65.95 L10.8 -54.05 9.85 -54.05 9.85 -65.95 10.8 -65.95 M18.35 -41.85 L18.35 -42.85 19.4 -42.85 19.4 -41.85 18.35 -41.85 M8.55 -45.6 L3.25 -45.6 3.25 -46.35 8.55 -46.35 8.55 -45.6 M6.6 -31.45 L6.7 -31.45 8.0 -33.15 9.3 -33.15 7.25 -30.65 9.6 -27.9 8.25 -27.9 6.75 -29.85 6.65 -29.85 5.05 -27.9 3.7 -27.9 6.05 -30.65 3.95 -33.15 5.3 -33.15 6.6 -31.45 M2.75 -34.6 L1.8 -34.6 1.8 -35.8 2.75 -35.8 2.75 -34.6 M2.75 -33.1 L2.75 -27.85 1.8 -27.85 1.8 -33.1 2.75 -33.1 M10.6 -34.6 L10.6 -35.8 11.55 -35.8 11.55 -34.6 10.6 -34.6 M11.55 -33.1 L11.55 -27.85 10.6 -27.85 10.6 -33.1 11.55 -33.1 M14.2 -27.85 L13.15 -27.85 13.15 -28.85 14.2 -28.85 14.2 -27.85 M7.2 -21.85 L7.2 -13.85 6.15 -13.85 6.15 -21.85 7.2 -21.85 M1.2 -22.2 L-3.75 -13.3 -4.2 -13.6 0.75 -22.45 1.2 -22.2 M1.5 -13.1 L5.1 -13.1 5.1 -12.55 1.5 -12.55 1.5 -13.1 M1.05 -7.0 L0.4 -5.6 -0.05 -5.6 0.4 -7.0 -0.05 -7.0 -0.05 -8.05 1.05 -8.05 1.05 -7.0 M-13.75 -77.2 L-11.95 -79.25 -10.25 -79.25 -12.65 -77.2 -13.75 -77.2 M-4.1 -76.1 Q-5.15 -71.85 -7.7 -69.6 L-8.45 -70.6 Q-5.7 -72.85 -4.8 -78.3 L-3.8 -77.8 Q-3.45 -77.6 -3.8 -77.55 L-4.1 -76.1 M-9.25 -64.1 L-9.25 -59.5 Q-9.25 -57.15 -10.45 -55.55 L-10.9 -55.0 -11.45 -54.55 -12.15 -55.45 -11.75 -55.8 Q-10.2 -57.2 -10.2 -59.7 L-10.2 -64.5 -9.3 -64.4 Q-8.8 -64.3 -9.25 -64.1 M-7.4 -63.8 L-6.45 -63.8 -6.45 -62.6 -7.4 -62.6 -7.4 -63.8 M-3.9 -63.85 L-3.9 -55.85 -4.85 -55.85 -4.85 -63.85 -3.9 -63.85 M-15.1 -63.8 Q-14.75 -63.6 -15.1 -63.55 -15.85 -59.3 -17.9 -56.75 L-18.4 -56.2 -19.0 -55.6 -19.7 -56.55 -19.75 -56.6 -19.5 -56.8 Q-16.95 -59.1 -16.1 -64.3 L-15.1 -63.8 M-12.45 -63.6 L-12.45 -58.8 -13.35 -58.8 -13.35 -64.05 -12.45 -63.95 Q-12.0 -63.85 -12.45 -63.6 M-13.15 -41.85 L-14.1 -41.85 -14.1 -49.85 -13.15 -49.85 -13.15 -41.85 M-7.4 -61.1 L-6.45 -61.1 -6.45 -55.85 -7.4 -55.85 -7.4 -61.1 M-6.75 -49.85 L-7.0 -44.55 -7.75 -44.55 -8.05 -49.85 -6.75 -49.85 M-5.2 -42.9 L-4.45 -43.25 Q-4.0 -43.25 -3.7 -42.9 -3.35 -42.55 -3.35 -42.15 -3.35 -41.75 -3.7 -41.4 -4.0 -41.05 -4.45 -41.05 -4.85 -41.05 -5.2 -41.4 L-5.5 -42.15 -5.2 -42.9 M-6.85 -41.85 L-7.9 -41.85 -7.9 -42.85 -6.85 -42.85 -6.85 -41.85 M-4.45 -42.85 L-4.95 -42.65 -5.15 -42.15 -4.95 -41.65 -4.45 -41.45 Q-4.1 -41.45 -3.9 -41.65 -3.75 -41.8 -3.75 -42.15 -3.75 -42.5 -3.9 -42.65 L-4.45 -42.85 M-3.55 -37.95 L-3.55 -26.05 -4.5 -26.05 -4.5 -37.95 -3.55 -37.95 M-2.3 -36.45 L-1.8 -37.0 Q0.55 -34.8 0.55 -31.85 0.55 -28.95 -1.8 -26.75 L-2.3 -27.3 Q-0.15 -29.3 -0.15 -31.85 -0.15 -34.45 -2.3 -36.45" fill="#000000" fill-rule="evenodd" stroke="none"/>
  </g>
</svg>
