<svg xmlns:xlink="http://www.w3.org/1999/xlink" height="30.9px" width="42.9px" xmlns="http://www.w3.org/2000/svg">
  <g transform="matrix(1.0, 0.0, 0.0, 1.0, 20.65, 33.9)">
    <path d="M19.15 -18.55 L19.7 -19.05 Q21.05 -17.85 21.6 -16.65 22.25 -15.3 22.25 -13.5 22.25 -11.95 21.6 -10.55 21.0 -9.3 19.7 -7.9 L19.45 -8.15 19.15 -8.45 Q20.45 -9.8 20.95 -10.95 21.5 -12.15 21.5 -13.5 21.5 -15.15 20.95 -16.3 20.45 -17.4 19.15 -18.55 M-17.8 -8.15 L-18.1 -7.9 Q-19.4 -9.3 -20.0 -10.55 -20.65 -11.95 -20.65 -13.5 -20.65 -15.3 -20.0 -16.65 -19.45 -17.85 -18.1 -19.05 L-17.55 -18.55 Q-18.85 -17.4 -19.35 -16.3 -19.9 -15.15 -19.9 -13.5 -19.9 -12.15 -19.35 -10.95 -18.85 -9.8 -17.55 -8.45 L-17.8 -8.15 M-16.4 -23.7 L-11.75 -33.9 -7.1 -23.7 -7.55 -23.45 -8.05 -23.25 -11.75 -31.35 -15.45 -23.25 -16.4 -23.7 M-5.3 -22.75 L7.65 -22.75 7.65 -22.15 -5.3 -22.15 -5.3 -22.75 M9.6 -23.7 L14.25 -33.9 18.9 -23.7 17.95 -23.25 14.25 -31.35 10.55 -23.25 9.6 -23.7 M6.65 -17.05 L4.1 -19.3 5.95 -19.3 7.8 -17.05 6.65 -17.05 M1.15 -17.4 L-3.5 -8.9 -8.15 -17.4 -7.2 -17.95 -6.05 -15.85 -0.95 -15.85 0.2 -17.95 1.15 -17.4 M-5.55 -14.8 L-3.5 -11.2 -1.45 -14.8 -5.55 -14.8 M-11.4 -19.3 L-14.0 -17.05 -15.2 -17.05 -13.25 -19.3 -11.4 -19.3" fill="#000000" fill-rule="evenodd" stroke="none"/>
    <path d="M19.45 -8.15 Q18.05 -7.2 17.35 -6.1 17.75 -4.6 18.95 -3.0 L-17.45 -3.0 -15.8 -5.55 Q-16.75 -7.1 -17.8 -8.15 L-17.55 -8.45 Q-18.85 -9.8 -19.35 -10.95 -19.9 -12.15 -19.9 -13.5 -19.9 -15.15 -19.35 -16.3 -18.85 -17.4 -17.55 -18.55 L-18.1 -19.05 -16.4 -23.7 -15.45 -23.25 -11.75 -31.35 -8.05 -23.25 -7.55 -23.45 -5.3 -22.75 -5.3 -22.15 7.65 -22.15 7.65 -22.75 Q8.7 -23.1 9.6 -23.7 L10.55 -23.25 14.25 -31.35 17.95 -23.25 18.9 -23.7 Q18.55 -20.6 19.15 -18.55 20.45 -17.4 20.95 -16.3 21.5 -15.15 21.5 -13.5 21.5 -12.15 20.95 -10.95 20.45 -9.8 19.15 -8.45 L19.45 -8.15 M-11.4 -19.3 L-13.25 -19.3 -15.2 -17.05 -14.0 -17.05 -11.4 -19.3 M-5.55 -14.8 L-1.45 -14.8 -3.5 -11.2 -5.55 -14.8 M1.15 -17.4 L0.2 -17.95 -0.95 -15.85 -6.05 -15.85 -7.2 -17.95 -8.15 -17.4 -3.5 -8.9 1.15 -17.4 M6.65 -17.05 L7.8 -17.05 5.95 -19.3 4.1 -19.3 6.65 -17.05" fill="#ffffff" fill-rule="evenodd" stroke="none"/>
  </g>
</svg>
