<svg xmlns:xlink="http://www.w3.org/1999/xlink" height="3.95px" width="69.35px" xmlns="http://www.w3.org/2000/svg">
  <g transform="matrix(1.0, 0.0, 0.0, 1.0, 33.9, 4.3)">
    <path d="M4.4 -2.05 L1.85 -4.3 3.7 -4.3 5.55 -2.05 4.4 -2.05 M10.9 -2.05 L8.35 -4.3 10.2 -4.3 12.05 -2.05 10.9 -2.05 M17.4 -2.05 L14.85 -4.3 16.7 -4.3 18.55 -2.05 17.4 -2.05 M21.0 -3.0 L22.2 -3.0 22.2 -1.85 21.5 -0.35 21.0 -0.35 21.5 -1.85 21.0 -1.85 21.0 -3.0 M23.65 -3.0 L24.85 -3.0 24.85 -1.85 24.15 -0.35 23.65 -0.35 24.15 -1.85 23.65 -1.85 23.65 -3.0 M27.5 -1.85 L26.8 -0.35 26.3 -0.35 26.8 -1.85 26.3 -1.85 26.3 -3.0 27.5 -3.0 27.5 -1.85 M28.95 -0.35 L29.45 -1.85 28.95 -1.85 28.95 -3.0 30.15 -3.0 30.15 -1.85 29.45 -0.35 28.95 -0.35 M32.1 -0.35 L31.6 -0.35 32.1 -1.85 31.6 -1.85 31.6 -3.0 32.8 -3.0 32.8 -1.85 32.1 -0.35 M34.25 -0.35 L34.75 -1.85 34.25 -1.85 34.25 -3.0 35.45 -3.0 35.45 -1.85 34.75 -0.35 34.25 -0.35 M-33.9 -3.0 L-32.7 -3.0 -32.7 -1.85 -33.4 -0.35 -33.9 -0.35 -33.4 -1.85 -33.9 -1.85 -33.9 -3.0 M-30.75 -1.85 L-31.25 -1.85 -31.25 -3.0 -30.05 -3.0 -30.05 -1.85 -30.75 -0.35 -31.25 -0.35 -30.75 -1.85 M-28.6 -3.0 L-27.4 -3.0 -27.4 -1.85 -28.1 -0.35 -28.6 -0.35 -28.1 -1.85 -28.6 -1.85 -28.6 -3.0 M-25.95 -0.35 L-25.45 -1.85 -25.95 -1.85 -25.95 -3.0 -24.75 -3.0 -24.75 -1.85 -25.45 -0.35 -25.95 -0.35 M-23.3 -0.35 L-22.8 -1.85 -23.3 -1.85 -23.3 -3.0 -22.1 -3.0 -22.1 -1.85 -22.8 -0.35 -23.3 -0.35 M-20.65 -3.0 L-19.45 -3.0 -19.45 -1.85 -20.15 -0.35 -20.65 -0.35 -20.15 -1.85 -20.65 -1.85 -20.65 -3.0 M-15.1 -2.05 L-17.65 -4.3 -15.8 -4.3 -13.95 -2.05 -15.1 -2.05 M-2.8 -4.3 L-0.95 -2.05 -2.1 -2.05 -4.65 -4.3 -2.8 -4.3 M-8.6 -2.05 L-11.15 -4.3 -9.3 -4.3 -7.45 -2.05 -8.6 -2.05" fill="#000000" fill-rule="evenodd" stroke="none"/>
  </g>
</svg>
