<svg xmlns:xlink="http://www.w3.org/1999/xlink" height="36.05px" width="67.8px" xmlns="http://www.w3.org/2000/svg">
  <g transform="matrix(1.0, 0.0, 0.0, 1.0, 31.65, 34.4)">
    <path d="M28.35 -25.05 L28.6 -24.55 31.2 -25.55 33.25 -25.9 Q34.2 -25.9 34.6 -25.55 35.25 -24.85 35.25 -24.1 35.25 -23.1 34.7 -22.6 33.8 -21.65 30.85 -21.6 L31.15 -20.8 30.55 -20.6 30.2 -19.8 27.7 -18.3 22.85 -18.3 22.6 -17.7 21.55 -17.7 21.3 -17.1 22.7 -16.45 22.7 -16.1 23.9 -16.1 24.0 -15.4 26.25 -13.95 26.5 -13.3 29.2 -14.4 31.95 -14.95 Q33.35 -14.95 33.95 -14.4 34.7 -13.65 34.7 -12.55 34.7 -11.55 34.0 -10.85 32.85 -9.7 29.35 -9.65 L29.6 -8.6 28.6 -8.6 27.45 -7.7 25.3 -7.65 21.7 -7.65 21.7 -7.1 23.5 -7.1 21.5 -5.35 20.2 -5.35 19.0 -3.0 17.7 -3.0 17.7 -3.05 17.7 -4.1 16.6 -4.1 16.6 -3.05 17.05 -3.05 17.05 -3.0 15.25 -3.0 15.25 -3.05 15.25 -4.1 14.15 -4.1 14.15 -3.05 14.6 -3.05 14.6 -3.0 12.8 -3.05 12.8 -4.1 11.7 -4.1 11.7 -3.05 10.35 -3.05 10.35 -4.1 9.25 -4.1 9.25 -3.05 Q8.7 -2.6 8.4 -2.7 L7.9 -3.05 7.9 -4.1 6.8 -4.1 6.8 -3.05 7.25 -3.05 7.05 -2.35 7.0 -2.35 7.0 -2.2 6.8 -1.65 6.25 -1.4 5.65 -0.55 5.65 0.15 Q5.35 0.3 5.5 0.75 L2.45 0.75 1.4 0.75 0.65 0.35 0.65 -0.4 -4.65 -0.4 -5.35 -0.4 -10.65 -0.4 -11.35 -0.4 -16.65 -0.4 -17.55 -0.55 -24.2 -0.55 -26.45 -1.65 -27.9 -2.15 -28.85 -3.15 -28.65 -3.15 -30.0 -5.3 -31.4 -5.3 -31.55 -8.35 -30.6 -8.4 -30.6 -16.4 -31.55 -16.4 -31.55 -17.7 -30.25 -20.15 -29.3 -21.2 -29.6 -20.65 -29.15 -20.35 -24.2 -29.25 -24.6 -29.5 -23.4 -31.45 -22.6 -32.1 -19.0 -32.1 -19.0 -32.65 -17.9 -33.1 -18.25 -32.1 -17.8 -32.1 -17.15 -33.4 -15.8 -33.4 -15.4 -33.25 -15.8 -32.1 -15.35 -32.1 -14.7 -33.4 -13.35 -33.4 -12.25 -33.4 -10.9 -33.4 -9.8 -33.4 -8.45 -33.4 -8.0 -33.4 -8.45 -32.1 -8.0 -32.1 -7.35 -33.4 -6.0 -33.65 -6.0 -33.4 -5.55 -33.4 -6.0 -32.1 -5.55 -32.1 -4.9 -33.4 -4.9 -33.9 -3.55 -34.15 -3.55 -33.4 -3.1 -33.4 -3.55 -32.1 -3.1 -32.1 -2.45 -33.4 -2.45 -34.4 -1.1 -33.4 -0.7 -33.25 -1.1 -32.1 -0.65 -32.1 0.0 -33.4 0.65 -32.65 0.65 -32.1 4.25 -32.1 6.0 -32.1 8.0 -30.3 6.6 -30.3 8.6 -28.15 9.35 -28.15 10.05 -28.15 12.25 -27.3 12.0 -26.75 Q15.6 -24.4 17.35 -21.85 L18.55 -22.8 16.9 -24.7 20.3 -24.65 26.95 -24.65 28.35 -25.05 M-26.45 -1.65 L-26.0 -1.65 -25.35 -3.05 -25.35 -4.1 -26.45 -4.1 -26.45 -3.05 -26.0 -3.05 -26.45 -1.65 M-7.95 -15.95 L-7.95 -15.05 -3.5 -15.05 Q-2.3 -15.05 -1.5 -14.25 -0.8 -13.55 -0.8 -12.5 -0.8 -11.5 -1.5 -10.8 -2.3 -10.0 -3.5 -10.0 L-7.95 -10.0 -7.95 -9.1 -3.5 -9.1 Q-1.85 -9.1 -0.85 -10.1 0.15 -11.1 0.15 -12.5 0.15 -13.9 -0.85 -14.95 -1.85 -15.95 -3.5 -15.95 L-7.95 -15.95 M-9.45 -27.85 L-8.7 -28.15 Q-8.25 -28.15 -7.95 -27.85 -7.55 -27.5 -7.55 -26.9 -7.55 -26.2 -7.95 -25.8 -8.3 -25.45 -8.75 -25.45 L-9.05 -25.45 -9.05 -24.65 -8.65 -24.65 Q-8.2 -24.65 -7.8 -24.25 -7.45 -23.9 -7.45 -23.25 -7.45 -22.45 -7.8 -22.05 -8.2 -21.7 -8.8 -21.7 -9.25 -21.7 -9.6 -22.0 -10.0 -22.45 -10.0 -23.05 L-10.0 -23.35 -11.1 -23.35 -11.1 -23.0 Q-11.1 -22.1 -10.45 -21.45 -9.8 -20.8 -8.8 -20.8 -7.6 -20.8 -6.95 -21.45 -6.3 -22.1 -6.3 -23.15 -6.3 -24.1 -6.85 -24.65 L-7.65 -25.1 -6.95 -25.5 Q-6.5 -25.95 -6.5 -26.9 -6.5 -27.85 -7.05 -28.4 -7.65 -29.0 -8.7 -29.0 -9.6 -29.0 -10.2 -28.4 -10.9 -27.7 -10.9 -26.6 L-9.85 -26.6 -9.45 -27.85 M-16.0 -28.05 L-16.0 -29.1 -17.1 -29.1 -17.1 -28.05 -16.65 -28.05 -17.1 -26.65 -16.65 -26.65 -16.0 -28.05 M12.65 -16.8 Q11.35 -16.1 10.45 -15.0 L10.9 -14.65 13.1 -16.35 Q14.3 -16.9 15.7 -16.9 17.0 -16.9 18.15 -16.35 19.1 -15.9 20.45 -14.65 L20.95 -15.0 18.75 -16.8 Q17.4 -17.6 15.7 -17.6 14.15 -17.6 12.65 -16.8 M-19.55 -19.6 L-19.1 -19.6 -18.45 -20.9 -18.45 -21.9 -19.55 -21.9 -19.55 -20.9 -19.1 -20.9 -19.55 -19.6" fill="#ffffff" fill-rule="evenodd" stroke="none"/>
    <path d="M31.15 -20.8 L30.85 -21.6 Q33.8 -21.65 34.7 -22.6 35.25 -23.1 35.25 -24.1 35.25 -24.85 34.6 -25.55 34.2 -25.9 33.25 -25.9 L31.2 -25.55 28.6 -24.55 28.35 -25.05 28.1 -25.55 30.85 -26.35 33.4 -26.8 Q34.65 -26.8 35.4 -26.05 36.15 -25.25 36.15 -24.1 36.15 -22.65 35.45 -21.95 34.2 -20.7 31.2 -20.6 L31.15 -20.8 M26.95 -24.65 L20.3 -24.65 20.3 -25.55 26.95 -25.55 26.95 -24.65 M16.9 -24.7 L18.55 -22.8 17.35 -21.85 Q15.6 -24.4 12.0 -26.75 L13.0 -27.65 13.7 -27.2 16.9 -24.7 M9.35 -28.15 L8.6 -28.15 6.6 -30.3 8.0 -30.3 9.35 -28.15 M4.25 -32.1 L0.65 -32.1 0.65 -32.65 4.25 -32.65 4.25 -32.1 M0.0 -33.4 L-0.65 -32.1 -1.1 -32.1 -0.7 -33.25 -0.65 -33.4 -1.1 -33.4 -1.1 -34.4 0.0 -34.4 0.0 -33.4 M-2.45 -34.4 L-2.45 -33.4 -3.1 -32.1 -3.55 -32.1 -3.1 -33.4 -3.55 -33.4 -3.55 -34.15 -3.55 -34.4 -2.45 -34.4 M-4.9 -33.9 L-4.9 -33.4 -5.55 -32.1 -6.0 -32.1 -5.55 -33.4 -6.0 -33.4 -6.0 -33.65 -6.0 -34.4 -4.9 -34.4 -4.9 -33.9 M-7.35 -33.4 L-8.0 -32.1 -8.45 -32.1 -8.0 -33.4 -8.45 -33.4 -8.45 -34.4 -7.35 -34.4 -7.35 -33.4 M-9.8 -33.4 L-10.9 -33.4 -10.9 -34.4 -9.8 -34.4 -9.8 -33.4 M-12.25 -33.4 L-13.35 -33.4 -13.35 -34.4 -12.25 -34.4 -12.25 -33.4 M-14.7 -33.4 L-15.35 -32.1 -15.8 -32.1 -15.4 -33.25 -15.35 -33.4 -15.8 -33.4 -15.8 -34.4 -14.7 -34.4 -14.7 -33.4 M-17.15 -33.4 L-17.8 -32.1 -18.25 -32.1 -17.9 -33.1 -17.8 -33.4 -18.25 -33.4 -18.25 -34.4 -17.15 -34.4 -17.15 -33.4 M-19.0 -32.65 L-19.0 -32.1 -22.6 -32.1 -22.6 -32.65 -19.0 -32.65 M-24.2 -29.25 L-29.15 -20.35 -29.6 -20.65 -29.3 -21.2 -24.65 -29.5 -24.2 -29.25 M-31.55 -16.4 L-30.6 -16.4 -30.6 -8.4 -31.55 -8.4 -31.55 -16.4 M-31.4 -5.3 L-30.0 -5.3 -28.65 -3.15 -28.85 -3.15 -29.4 -3.15 -31.4 -5.3 M-26.45 -1.65 L-26.0 -3.05 -26.45 -3.05 -26.45 -4.1 -25.35 -4.1 -25.35 -3.05 -26.0 -1.65 -26.45 -1.65 M-24.2 -0.55 L-17.55 -0.55 -17.55 0.35 -24.2 0.35 -24.2 -0.55 M-16.65 -0.4 L-11.35 -0.4 -11.35 0.35 -16.65 0.35 -16.65 -0.4 M-10.65 -0.4 L-5.35 -0.4 -5.35 0.35 -10.65 0.35 -10.65 -0.4 M-4.65 -0.4 L0.65 -0.4 0.65 0.35 -4.65 0.35 -4.65 -0.4 M2.45 0.75 L5.5 0.75 5.5 1.65 2.45 1.65 2.45 0.75 M6.8 -1.65 L7.0 -2.2 7.05 -2.35 7.25 -3.05 6.8 -3.05 6.8 -4.1 7.9 -4.1 7.9 -3.05 7.25 -1.65 6.8 -1.65 M9.25 -3.05 L9.25 -4.1 10.35 -4.1 10.35 -3.05 9.7 -1.65 9.25 -1.65 9.7 -3.05 9.25 -3.05 M11.7 -3.05 L11.7 -4.1 12.8 -4.1 12.8 -3.05 12.15 -1.65 11.7 -1.65 12.1 -2.9 12.15 -3.05 11.7 -3.05 M14.6 -3.0 L14.6 -3.05 14.15 -3.05 14.15 -4.1 15.25 -4.1 15.25 -3.05 15.25 -3.0 14.6 -1.65 14.15 -1.65 14.6 -3.0 M17.05 -3.0 L17.05 -3.05 16.6 -3.05 16.6 -4.1 17.7 -4.1 17.7 -3.05 17.7 -3.0 17.05 -1.65 16.6 -1.65 17.05 -3.0 M19.0 -3.0 L20.2 -5.35 21.5 -5.35 19.85 -3.0 19.0 -3.0 M23.5 -7.1 L21.7 -7.1 21.7 -7.65 25.3 -7.65 25.3 -7.1 23.5 -7.1 M29.6 -8.6 L29.35 -9.65 Q32.85 -9.7 34.0 -10.85 34.7 -11.55 34.7 -12.55 34.7 -13.65 33.95 -14.4 33.35 -14.95 31.95 -14.95 L29.2 -14.4 26.5 -13.3 26.25 -13.95 26.0 -14.55 28.65 -15.3 32.1 -15.95 Q34.0 -15.95 34.85 -15.05 35.75 -14.15 35.75 -12.65 35.75 -11.05 34.9 -10.2 33.3 -8.6 29.6 -8.6 M-16.0 -28.05 L-16.65 -26.65 -17.1 -26.65 -16.65 -28.05 -17.1 -28.05 -17.1 -29.1 -16.0 -29.1 -16.0 -28.05 M-9.45 -27.85 L-9.85 -26.6 -10.9 -26.6 Q-10.9 -27.7 -10.2 -28.4 -9.6 -29.0 -8.7 -29.0 -7.65 -29.0 -7.05 -28.4 -6.5 -27.85 -6.5 -26.9 -6.5 -25.95 -6.95 -25.5 L-7.65 -25.1 -6.85 -24.65 Q-6.3 -24.1 -6.3 -23.15 -6.3 -22.1 -6.95 -21.45 -7.6 -20.8 -8.8 -20.8 -9.8 -20.8 -10.45 -21.45 -11.1 -22.1 -11.1 -23.0 L-11.1 -23.35 -10.0 -23.35 -10.0 -23.05 Q-10.0 -22.45 -9.6 -22.0 -9.25 -21.7 -8.8 -21.7 -8.2 -21.7 -7.8 -22.05 -7.45 -22.45 -7.45 -23.25 -7.45 -23.9 -7.8 -24.25 -8.2 -24.65 -8.65 -24.65 L-9.05 -24.65 -9.05 -25.45 -8.75 -25.45 Q-8.3 -25.45 -7.95 -25.8 -7.55 -26.2 -7.55 -26.9 -7.55 -27.5 -7.95 -27.85 -8.25 -28.15 -8.7 -28.15 L-9.45 -27.85 M-7.95 -15.95 L-3.5 -15.95 Q-1.85 -15.95 -0.85 -14.95 0.15 -13.9 0.15 -12.5 0.15 -11.1 -0.85 -10.1 -1.85 -9.1 -3.5 -9.1 L-7.95 -9.1 -7.95 -10.0 -3.5 -10.0 Q-2.3 -10.0 -1.5 -10.8 -0.8 -11.5 -0.8 -12.5 -0.8 -13.55 -1.5 -14.25 -2.3 -15.05 -3.5 -15.05 L-7.95 -15.05 -7.95 -15.95 M12.65 -16.8 Q14.15 -17.6 15.7 -17.6 17.4 -17.6 18.75 -16.8 L20.95 -15.0 20.45 -14.65 Q19.1 -15.9 18.15 -16.35 17.0 -16.9 15.7 -16.9 14.3 -16.9 13.1 -16.35 L10.9 -14.65 10.45 -15.0 Q11.35 -16.1 12.65 -16.8 M21.25 -3.0 L22.45 -5.35 23.75 -5.35 22.1 -3.0 21.25 -3.0 M-31.65 -21.9 L-30.55 -21.9 -30.55 -20.9 -31.65 -20.9 -31.65 -21.9 M-19.55 -19.6 L-19.1 -20.9 -19.55 -20.9 -19.55 -21.9 -18.45 -21.9 -18.45 -20.9 -19.1 -19.6 -19.55 -19.6" fill="#000000" fill-rule="evenodd" stroke="none"/>
  </g>
</svg>
