<svg xmlns:xlink="http://www.w3.org/1999/xlink" height="65.75px" width="42.9px" xmlns="http://www.w3.org/2000/svg">
  <g transform="matrix(1.0, 0.0, 0.0, 1.0, 21.2, 65.2)">
    <path d="M-10.7 -64.5 L-8.2 -62.8 Q-6.9 -61.95 -5.75 -60.85 L0.6 -53.75 Q9.6 -53.95 18.6 -47.7 L17.9 -47.05 Q19.45 -45.6 20.1 -44.3 20.8 -42.85 20.8 -40.85 20.8 -39.2 20.1 -37.7 19.45 -36.3 17.9 -34.6 L18.6 -33.95 Q10.2 -29.65 1.05 -29.85 L1.3 -29.7 0.6 -29.05 Q2.15 -27.6 2.8 -26.3 3.5 -24.85 3.5 -22.85 3.5 -21.2 2.8 -19.7 2.15 -18.3 0.6 -16.6 -8.1 -7.2 -18.1 -15.95 L-17.4 -16.6 Q-18.95 -18.3 -19.6 -19.7 -20.3 -21.2 -20.3 -22.85 -20.3 -24.85 -19.6 -26.3 -18.95 -27.6 -17.4 -29.05 L-18.1 -29.7 Q-15.35 -31.65 -12.3 -32.35 L-16.4 -33.95 -15.7 -34.6 Q-17.25 -36.3 -17.9 -37.7 -18.6 -39.2 -18.6 -40.85 -18.6 -42.85 -17.9 -44.3 L-15.7 -47.05 -16.4 -47.7 Q-12.45 -50.45 -8.5 -51.95 -8.5 -52.8 -9.3 -53.4 -10.05 -53.95 -11.15 -53.95 -8.35 -55.35 -5.2 -55.3 L-4.25 -57.0 Q-9.7 -58.75 -10.7 -64.5 M-7.2 -28.55 L-8.7 -29.0 Q-9.1 -21.3 -15.3 -17.8 L-14.3 -16.55 Q-11.2 -18.35 -9.4 -21.5 -7.45 -24.6 -7.2 -28.55 M-4.2 -42.35 L-6.85 -42.35 -6.85 -39.7 -4.2 -39.7 -4.2 -42.35 M1.95 -39.85 L3.55 -44.2 5.2 -39.85 1.95 -39.85 M4.2 -46.25 L2.95 -46.25 -1.3 -35.45 0.2 -35.45 1.5 -38.7 5.65 -38.7 6.95 -35.45 8.45 -35.45 4.2 -46.25 M13.95 -42.35 L11.3 -42.35 11.3 -39.7 13.95 -39.7 13.95 -42.35" fill="#ffffff" fill-rule="evenodd" stroke="none"/>
    <path d="M-8.2 -62.8 L-7.6 -63.7 -5.0 -61.75 -5.75 -60.85 Q-6.9 -61.95 -8.2 -62.8 M18.6 -47.7 Q20.2 -46.2 20.9 -44.75 21.7 -43.05 21.7 -40.85 21.7 -38.95 20.9 -37.25 20.15 -35.7 18.6 -33.95 L17.9 -34.6 Q19.45 -36.3 20.1 -37.7 20.8 -39.2 20.8 -40.85 20.8 -42.85 20.1 -44.3 19.45 -45.6 17.9 -47.05 L18.6 -47.7 M1.3 -29.7 Q2.9 -28.2 3.6 -26.75 4.4 -25.05 4.4 -22.85 4.4 -20.95 3.6 -19.25 2.85 -17.7 1.3 -15.95 L0.6 -16.6 Q2.15 -18.3 2.8 -19.7 3.5 -21.2 3.5 -22.85 3.5 -24.85 2.8 -26.3 2.15 -27.6 0.6 -29.05 L1.3 -29.7 M-18.1 -15.95 Q-19.65 -17.7 -20.4 -19.25 -21.2 -20.95 -21.2 -22.85 -21.2 -25.05 -20.4 -26.75 -19.7 -28.2 -18.1 -29.7 L-17.4 -29.05 Q-18.95 -27.6 -19.6 -26.3 -20.3 -24.85 -20.3 -22.85 -20.3 -21.2 -19.6 -19.7 -18.95 -18.3 -17.4 -16.6 L-18.1 -15.95 M-16.4 -33.95 Q-17.95 -35.7 -18.7 -37.25 -19.5 -38.95 -19.5 -40.85 -19.5 -43.05 -18.7 -44.75 -18.0 -46.2 -16.4 -47.7 L-15.7 -47.05 -17.9 -44.3 Q-18.6 -42.85 -18.6 -40.85 -18.6 -39.2 -17.9 -37.7 -17.25 -36.3 -15.7 -34.6 L-16.4 -33.95 M-11.15 -53.95 L-12.25 -55.05 Q-9.85 -56.45 -7.2 -56.6 -10.95 -58.45 -12.4 -64.55 L-10.9 -64.85 Q-10.2 -65.0 -10.7 -64.5 -9.7 -58.75 -4.25 -57.0 L-5.2 -55.3 Q-8.35 -55.35 -11.15 -53.95 M-6.9 -64.3 L-6.25 -65.2 -3.7 -63.25 -4.45 -62.35 -6.9 -64.3 M13.95 -42.35 L13.95 -39.7 11.3 -39.7 11.3 -42.35 13.95 -42.35 M4.2 -46.25 L8.45 -35.45 6.95 -35.45 5.65 -38.7 1.5 -38.7 0.2 -35.45 -1.3 -35.45 2.95 -46.25 4.2 -46.25 M1.95 -39.85 L5.2 -39.85 3.55 -44.2 1.95 -39.85 M-4.2 -42.35 L-4.2 -39.7 -6.85 -39.7 -6.85 -42.35 -4.2 -42.35 M-7.2 -28.55 Q-7.45 -24.6 -9.4 -21.5 -11.2 -18.35 -14.3 -16.55 L-15.3 -17.8 Q-9.1 -21.3 -8.7 -29.0 L-7.2 -28.55 M-2.6 -10.1 L-2.6 -4.8 Q-1.45 -6.6 0.35 -6.6 1.8 -6.6 2.65 -5.75 3.45 -4.95 3.45 -3.5 L3.45 0.55 2.05 0.55 2.05 -3.1 2.05 -3.55 Q1.9 -4.45 1.4 -4.95 0.95 -5.35 0.1 -5.35 -0.85 -5.35 -1.45 -4.75 L-2.2 -3.8 Q-2.6 -3.1 -2.6 -2.35 L-2.6 0.55 -4.05 0.55 -4.05 -10.1 -2.6 -10.1 M-12.55 -10.1 L-12.55 -4.8 Q-11.4 -6.6 -9.6 -6.6 -8.15 -6.6 -7.3 -5.75 -6.65 -5.1 -6.5 -4.0 L-6.5 -3.45 -6.5 0.55 -7.9 0.55 -7.9 -3.1 -8.05 -4.1 -8.55 -4.95 Q-9.0 -5.35 -9.85 -5.35 -10.8 -5.35 -11.4 -4.75 L-11.8 -4.3 Q-12.55 -3.35 -12.55 -2.35 L-12.55 0.55 -14.0 0.55 -14.0 -10.1 -12.55 -10.1" fill="#000000" fill-rule="evenodd" stroke="none"/>
  </g>
</svg>
