<?xml version="1.0" encoding="UTF-8" standalone="no"?>
<svg xmlns:xlink="http://www.w3.org/1999/xlink" height="36.6px" width="43.65px" xmlns="http://www.w3.org/2000/svg">
  <g transform="matrix(1.0, 0.0, 0.0, 1.0, 21.8, 18.25)">
    <path d="M20.85 -11.95 L21.35 -11.95 Q19.35 -2.55 17.1 6.1 L14.15 16.65 Q12.15 18.0 8.8 17.8 L-10.65 16.55 -13.15 6.55 -13.25 6.0 Q-9.4 6.4 -4.55 3.4 2.25 -0.7 6.65 -10.0 2.25 -0.7 -4.55 3.4 -9.4 6.4 -13.25 6.0 -16.9 5.6 -19.7 2.25 -21.5 0.05 -21.25 -3.45 -21.0 -6.85 -18.45 -9.55 L-19.2 -6.45 Q-18.6 2.05 -14.05 2.6 -10.8 3.05 -7.4 1.15 -4.15 -0.6 4.65 -9.65 L6.65 -10.0 11.6 -10.85 20.85 -11.95 M-16.85 -10.6 L-17.05 -11.5 -16.9 -11.65 -16.55 -11.95 -7.15 -10.35 2.35 -9.45 4.65 -9.65 Q-4.15 -0.6 -7.4 1.15 -10.8 3.05 -14.05 2.6 L-16.85 -10.6 -16.15 -10.95 -16.85 -10.6 M-9.15 -2.2 Q-11.6 -2.45 -13.65 -3.7 -11.6 -2.45 -9.15 -2.2 M-11.4 0.8 L-13.15 0.55 -11.4 0.8 M-9.4 -6.2 Q-12.1 -6.5 -14.65 -7.45 -12.1 -6.5 -9.4 -6.2 M-9.9 8.3 L-11.4 8.3 -9.9 8.3 M-9.65 11.3 L-10.65 11.3 -9.65 11.3 M-8.9 14.55 L-9.15 14.55 -8.9 14.55" fill="#ffffff" fill-rule="evenodd" stroke="none"/>
    <path d="M20.85 -11.95 L11.6 -10.85 6.65 -10.0 4.65 -9.65 2.35 -9.45 -7.15 -10.35 -16.55 -11.95 Q-10.35 -17.05 -0.7 -17.65 9.45 -18.3 17.35 -14.45 19.3 -13.5 20.85 -11.95" fill="#cccccc" fill-rule="evenodd" stroke="none"/>
    <path d="M-13.25 6.0 L-13.15 6.55 -10.65 16.55 8.8 17.8 Q12.15 18.0 14.15 16.65 L17.1 6.1 Q19.35 -2.55 21.35 -11.95 L20.85 -11.95 11.6 -10.85 6.65 -10.0 Q2.25 -0.7 -4.55 3.4 -9.4 6.4 -13.25 6.0 -16.9 5.6 -19.7 2.25 -21.5 0.05 -21.25 -3.45 -21.0 -6.85 -18.45 -9.55 -18.05 -10.0 -16.85 -10.6 L-17.05 -11.5 -16.9 -11.65 -16.55 -11.95 Q-10.35 -17.05 -0.7 -17.65 9.45 -18.3 17.35 -14.45 19.3 -13.5 20.85 -11.95 M-16.55 -11.95 L-7.15 -10.35 2.35 -9.45 4.65 -9.65 6.65 -10.0 M-13.15 0.55 L-11.4 0.8 M-13.65 -3.7 Q-11.6 -2.45 -9.15 -2.2 M4.65 -9.65 Q-4.15 -0.6 -7.4 1.15 -10.8 3.05 -14.05 2.6 -18.6 2.05 -19.2 -6.45 L-18.45 -9.55 M-16.85 -10.6 L-16.15 -10.95 M-16.85 -10.6 L-14.05 2.6 M-9.15 14.55 L-8.9 14.55 M-10.65 11.3 L-9.65 11.3 M-11.4 8.3 L-9.9 8.3 M-14.65 -7.45 Q-12.1 -6.5 -9.4 -6.2 M14.15 16.65 L15.35 15.55" fill="none" stroke="#8f7c3f" stroke-linecap="round" stroke-linejoin="round" stroke-width="1.0"/>
  </g>
</svg>
