<svg xmlns:xlink="http://www.w3.org/1999/xlink" height="102.55px" width="46.1px" xmlns="http://www.w3.org/2000/svg">
  <g transform="matrix(1.0, 0.0, 0.0, 1.0, 21.25, 102.0)">
    <path d="M12.15 -102.0 L18.4 -102.0 18.4 -95.75 17.85 -95.75 17.85 -101.5 12.15 -101.5 12.15 -102.0 M15.4 -91.9 L10.45 -83.0 10.0 -83.3 14.95 -92.15 15.4 -91.9 M11.0 -76.3 L11.0 -77.5 11.95 -77.5 11.95 -76.3 11.75 -76.3 11.0 -76.3 M11.45 -74.8 L11.95 -74.8 11.95 -69.55 11.0 -69.55 11.0 -74.8 11.45 -74.8 M12.75 -65.35 L13.05 -65.1 13.4 -64.35 Q13.4 -63.95 13.05 -63.6 12.75 -63.25 12.3 -63.25 11.9 -63.25 11.55 -63.6 11.25 -63.95 11.25 -64.35 L11.55 -65.1 Q11.9 -65.45 12.3 -65.45 L12.75 -65.35 M14.05 -64.15 L14.55 -64.7 Q16.9 -62.5 16.9 -59.55 16.9 -56.65 14.55 -54.45 L14.05 -55.0 Q16.2 -57.0 16.2 -59.55 16.2 -62.15 14.05 -64.15 M15.05 -50.25 L15.55 -50.75 17.3 -48.5 Q17.9 -47.25 17.9 -45.6 17.9 -44.15 17.3 -42.9 L15.55 -40.4 15.05 -40.95 16.7 -43.25 Q17.2 -44.35 17.2 -45.6 17.2 -47.1 16.7 -48.2 L15.05 -50.25 M12.55 -35.5 L12.75 -35.5 12.75 -34.3 11.8 -34.3 11.8 -35.5 12.55 -35.5 M11.8 -32.8 L12.75 -32.8 12.75 -27.55 11.8 -27.55 11.8 -32.8 M18.75 -21.8 L19.85 -22.0 Q20.4 -22.1 20.0 -21.75 20.7 -17.65 24.55 -16.2 L24.85 -16.1 24.15 -14.85 23.95 -14.85 Q21.7 -14.85 19.7 -13.8 L18.85 -14.65 Q20.65 -15.7 22.65 -15.85 19.85 -17.2 18.75 -21.8 M15.95 -12.35 L15.9 -12.25 15.85 -12.25 15.45 -12.25 15.9 -13.55 15.45 -13.55 15.45 -14.55 16.55 -14.55 16.55 -13.55 15.95 -12.35 M13.95 -7.55 L13.95 -1.9 Q13.95 -0.85 13.3 -0.2 12.55 0.55 10.95 0.55 9.35 0.55 8.6 -0.2 7.95 -0.85 7.95 -1.9 L7.95 -6.65 7.95 -7.55 9.0 -7.55 9.0 -1.95 Q9.0 -1.25 9.45 -0.85 9.95 -0.35 10.95 -0.35 11.95 -0.35 12.45 -0.85 12.85 -1.25 12.85 -1.95 L12.85 -7.55 13.95 -7.55 M1.2 -6.65 L0.35 -6.65 1.55 -9.0 2.85 -9.0 1.2 -6.65 M-1.05 -6.65 L-1.9 -6.65 -0.7 -9.0 0.6 -9.0 -1.05 -6.65 M-3.4 -6.65 L-3.4 -1.9 Q-3.4 -0.85 -4.05 -0.2 -4.8 0.55 -6.4 0.55 -8.0 0.55 -8.75 -0.2 -9.4 -0.85 -9.4 -1.9 L-9.4 -7.55 -8.35 -7.55 -8.35 -1.95 Q-8.35 -1.25 -7.9 -0.85 -7.4 -0.35 -6.4 -0.35 -5.4 -0.35 -4.9 -0.85 -4.5 -1.25 -4.5 -1.95 L-4.5 -7.55 -3.4 -7.55 -3.4 -6.65 M-11.0 -13.05 L-21.25 -21.6 -20.7 -22.2 -10.5 -13.7 -11.0 -13.05 M-20.9 -25.75 L-20.9 -37.65 -19.95 -37.65 -19.95 -25.75 -20.9 -25.75 M-20.9 -39.75 L-20.9 -51.65 -19.95 -51.65 -19.95 -39.75 -20.9 -39.75 M-20.9 -53.75 L-20.9 -65.65 -20.45 -65.65 -19.95 -65.65 -19.95 -53.75 -20.9 -53.75 M-18.8 -69.7 L-8.55 -78.2 -8.05 -77.6 -18.25 -69.05 -18.8 -69.7 M-4.8 -83.05 L-5.35 -83.7 4.9 -92.2 5.4 -91.6 -4.8 -83.05 M5.85 -95.75 L5.85 -102.0 12.1 -102.0 12.1 -101.5 6.4 -101.5 6.4 -95.75 5.85 -95.75 M6.25 -77.9 L1.3 -69.0 0.85 -69.3 5.8 -78.15 6.25 -77.9 M-3.2 -63.6 L-3.5 -64.35 -3.2 -65.1 -2.45 -65.45 Q-2.0 -65.45 -1.7 -65.1 -1.35 -64.75 -1.35 -64.35 -1.35 -63.95 -1.7 -63.6 -2.0 -63.25 -2.45 -63.25 -2.85 -63.25 -3.2 -63.6 M-2.95 -64.85 L-3.15 -64.35 -2.95 -63.85 -2.45 -63.65 Q-2.1 -63.65 -1.9 -63.85 -1.75 -64.0 -1.75 -64.35 -1.75 -64.7 -1.9 -64.85 L-2.45 -65.05 -2.95 -64.85 M-7.8 -64.15 Q-9.95 -62.15 -9.95 -59.55 -9.95 -57.0 -7.8 -55.0 L-8.35 -54.45 Q-10.7 -56.65 -10.7 -59.55 -10.7 -62.5 -8.35 -64.7 L-7.8 -64.15 M3.85 -63.75 L3.85 -61.4 Q3.85 -58.3 2.6 -56.4 L7.15 -56.4 7.15 -63.75 3.85 -63.75 M2.95 -64.65 L8.1 -64.65 8.1 -56.4 9.15 -56.4 9.15 -53.8 8.25 -53.8 8.25 -55.5 1.65 -55.5 1.65 -53.8 0.75 -53.8 0.75 -56.4 1.55 -56.4 Q2.95 -58.35 2.95 -61.4 L2.95 -64.65 M11.8 -64.85 L11.6 -64.35 11.8 -63.85 12.3 -63.65 Q12.65 -63.65 12.85 -63.85 L13.0 -64.35 12.85 -64.85 Q12.65 -65.05 12.3 -65.05 L11.8 -64.85 M-14.05 -50.25 Q-15.2 -49.2 -15.65 -48.2 -16.2 -47.1 -16.2 -45.6 -16.2 -44.35 -15.65 -43.25 L-14.05 -40.95 -14.55 -40.4 -16.3 -42.9 -16.6 -43.7 -16.9 -45.6 -16.75 -47.1 -16.3 -48.5 -14.55 -50.75 -14.05 -50.25 M13.2 -51.65 L13.2 -39.75 12.25 -39.75 12.25 -51.65 13.2 -51.65 M-7.9 -49.5 Q-7.55 -49.3 -7.9 -49.25 -8.85 -43.95 -11.8 -41.3 L-12.55 -42.3 Q-9.8 -44.55 -8.9 -50.0 L-7.9 -49.5 M-5.4 -46.8 L-5.4 -41.55 -6.35 -41.55 -6.35 -46.8 -5.4 -46.8 M-6.35 -49.5 L-5.4 -49.5 -5.4 -48.3 -6.35 -48.3 -6.35 -49.5 M-5.7 -32.8 L-5.7 -27.55 -6.65 -27.55 -6.65 -32.8 -5.7 -32.8 M-6.65 -35.5 L-5.7 -35.5 -5.7 -34.3 -6.65 -34.3 -6.65 -35.5 M-4.05 -20.3 Q-0.25 -17.9 1.5 -15.45 L0.3 -14.5 Q-1.45 -17.05 -5.05 -19.4 L-4.05 -20.3 M-6.25 -12.25 L-9.85 -12.25 -9.85 -12.8 -6.25 -12.8 -6.25 -12.25 M2.75 -12.25 L14.7 -12.25 14.7 -11.75 2.75 -11.75 2.75 -12.25" fill="#000000" fill-rule="evenodd" stroke="none"/>
    <path d="M18.4 -95.75 L15.4 -91.9 14.95 -92.15 10.0 -83.3 10.45 -83.0 11.0 -76.3 11.75 -76.3 11.45 -74.8 11.0 -74.8 11.0 -69.55 11.95 -69.55 13.15 -67.5 12.75 -65.35 12.3 -65.45 Q11.9 -65.45 11.55 -65.1 L11.25 -64.35 Q11.25 -63.95 11.55 -63.6 11.9 -63.25 12.3 -63.25 12.75 -63.25 13.05 -63.6 13.4 -63.95 13.4 -64.35 L13.05 -65.1 13.2 -65.25 Q14.2 -64.95 14.05 -64.15 16.2 -62.15 16.2 -59.55 16.2 -57.0 14.05 -55.0 L14.55 -54.45 15.05 -50.25 16.7 -48.2 Q17.2 -47.1 17.2 -45.6 17.2 -44.35 16.7 -43.25 L15.05 -40.95 15.55 -40.4 12.6 -35.6 12.55 -35.5 11.8 -35.5 11.8 -34.3 11.8 -32.8 11.8 -27.55 12.75 -27.55 Q13.2 -27.75 13.5 -26.7 L18.75 -21.8 Q19.85 -17.2 22.65 -15.85 20.65 -15.7 18.85 -14.65 L19.7 -13.8 Q17.55 -13.8 15.95 -12.35 L16.55 -13.55 16.55 -14.55 15.45 -14.55 15.45 -13.55 15.9 -13.55 15.45 -12.25 15.85 -12.25 15.6 -12.0 Q13.95 -10.15 13.95 -7.55 L12.85 -7.55 12.85 -1.95 Q12.85 -1.25 12.45 -0.85 11.95 -0.35 10.95 -0.35 9.95 -0.35 9.45 -0.85 9.0 -1.25 9.0 -1.95 L9.0 -7.55 7.95 -7.55 7.95 -6.65 1.2 -6.65 2.85 -9.0 1.55 -9.0 0.35 -6.65 -1.05 -6.65 0.6 -9.0 -0.7 -9.0 -1.9 -6.65 -3.4 -6.65 -3.4 -7.55 -4.5 -7.55 -4.5 -1.95 Q-4.5 -1.25 -4.9 -0.85 -5.4 -0.35 -6.4 -0.35 -7.4 -0.35 -7.9 -0.85 -8.35 -1.25 -8.35 -1.95 L-8.35 -7.55 -9.4 -7.55 -9.4 -10.6 -11.0 -13.05 -10.5 -13.7 -20.7 -22.2 -21.25 -21.6 -20.9 -25.75 -19.95 -25.75 -19.95 -37.65 -20.9 -37.65 -20.9 -39.75 -19.95 -39.75 -19.95 -51.65 -20.9 -51.65 -20.9 -53.75 -19.95 -53.75 -19.95 -65.65 -20.45 -65.65 -18.8 -69.7 -18.25 -69.05 -8.05 -77.6 -8.55 -78.2 -4.8 -83.05 5.4 -91.6 4.9 -92.2 5.85 -95.75 6.4 -95.75 6.4 -101.5 12.1 -101.5 12.1 -102.0 12.15 -102.0 12.15 -101.5 17.85 -101.5 17.85 -95.75 18.4 -95.75 M2.75 -12.25 L2.75 -11.75 14.7 -11.75 14.7 -12.25 2.75 -12.25 M-6.25 -12.25 L-6.25 -12.8 -9.85 -12.8 -9.85 -12.25 -6.25 -12.25 M-4.05 -20.3 L-5.05 -19.4 Q-1.45 -17.05 0.3 -14.5 L1.5 -15.45 Q-0.25 -17.9 -4.05 -20.3 M-6.65 -35.5 L-6.65 -34.3 -5.7 -34.3 -5.7 -35.5 -6.65 -35.5 M-5.7 -32.8 L-6.65 -32.8 -6.65 -27.55 -5.7 -27.55 -5.7 -32.8 M-6.35 -49.5 L-6.35 -48.3 -5.4 -48.3 -5.4 -49.5 -6.35 -49.5 M-5.4 -46.8 L-6.35 -46.8 -6.35 -41.55 -5.4 -41.55 -5.4 -46.8 M-7.9 -49.5 L-8.9 -50.0 Q-9.8 -44.55 -12.55 -42.3 L-11.8 -41.3 Q-8.85 -43.95 -7.9 -49.25 -7.55 -49.3 -7.9 -49.5 M13.2 -51.65 L12.25 -51.65 12.25 -39.75 13.2 -39.75 13.2 -51.65 M-14.05 -50.25 L-14.55 -50.75 -16.3 -48.5 -16.75 -47.1 -16.9 -45.6 -16.6 -43.7 -16.3 -42.9 -14.55 -40.4 -14.05 -40.95 -15.65 -43.25 Q-16.2 -44.35 -16.2 -45.6 -16.2 -47.1 -15.65 -48.2 -15.2 -49.2 -14.05 -50.25 M11.8 -64.85 L12.3 -65.05 Q12.65 -65.05 12.85 -64.85 L13.0 -64.35 12.85 -63.85 Q12.65 -63.65 12.3 -63.65 L11.8 -63.85 11.6 -64.35 11.8 -64.85 M2.95 -64.65 L2.95 -61.4 Q2.95 -58.35 1.55 -56.4 L0.75 -56.4 0.75 -53.8 1.65 -53.8 1.65 -55.5 8.25 -55.5 8.25 -53.8 9.15 -53.8 9.15 -56.4 8.1 -56.4 8.1 -64.65 2.95 -64.65 M3.85 -63.75 L7.15 -63.75 7.15 -56.4 2.6 -56.4 Q3.85 -58.3 3.85 -61.4 L3.85 -63.75 M-7.8 -64.15 L-8.35 -64.7 Q-10.7 -62.5 -10.7 -59.55 -10.7 -56.65 -8.35 -54.45 L-7.8 -55.0 Q-9.95 -57.0 -9.95 -59.55 -9.95 -62.15 -7.8 -64.15 M-2.95 -64.85 L-2.45 -65.05 -1.9 -64.85 Q-1.75 -64.7 -1.75 -64.35 -1.75 -64.0 -1.9 -63.85 -2.1 -63.65 -2.45 -63.65 L-2.95 -63.85 -3.15 -64.35 -2.95 -64.85 M-3.2 -63.6 Q-2.85 -63.25 -2.45 -63.25 -2.0 -63.25 -1.7 -63.6 -1.35 -63.95 -1.35 -64.35 -1.35 -64.75 -1.7 -65.1 -2.0 -65.45 -2.45 -65.45 L-3.2 -65.1 -3.5 -64.35 -3.2 -63.6 M6.25 -77.9 L5.8 -78.15 0.85 -69.3 1.3 -69.0 6.25 -77.9" fill="#ffffff" fill-rule="evenodd" stroke="none"/>
  </g>
</svg>
