<svg xmlns:xlink="http://www.w3.org/1999/xlink" height="87.65px" width="46.45px" xmlns="http://www.w3.org/2000/svg">
  <g transform="matrix(1.0, 0.0, 0.0, 1.0, 21.35, 88.05)">
    <path d="M24.8 -76.5 L23.5 -75.4 Q21.85 -77.8 18.7 -80.05 L17.7 -80.75 17.95 -80.95 18.8 -81.7 Q22.9 -79.1 24.8 -76.5 M8.4 -88.05 L8.4 -87.45 -4.55 -87.45 -4.55 -88.05 8.4 -88.05 M-12.0 -84.6 L-10.15 -84.6 -12.75 -82.35 -13.95 -82.35 -12.0 -84.6 M-20.85 -71.4 L-19.8 -71.4 -19.8 -59.05 -20.85 -59.05 -20.85 -71.4 M-19.8 -56.95 L-19.8 -44.05 -20.85 -44.05 -20.85 -56.95 -19.8 -56.95 M-21.0 -39.7 L-19.95 -39.7 -19.95 -31.0 -20.05 -31.0 -21.0 -31.0 -21.0 -39.7 M-20.4 -25.8 L-19.1 -25.8 -18.95 -23.4 Q-18.75 -22.45 -18.25 -21.9 L-14.5 -23.15 -14.2 -21.95 Q-17.55 -21.3 -19.1 -20.1 -20.15 -19.25 -20.2 -18.35 -20.3 -16.45 -17.8 -16.45 L-14.5 -16.45 -14.5 -15.35 -17.8 -15.35 Q-21.2 -15.35 -21.35 -18.0 -21.4 -20.05 -19.25 -21.4 -20.4 -22.8 -20.4 -25.8 M-13.2 -15.7 Q-11.55 -21.65 -10.6 -26.05 L-9.5 -25.75 -10.85 -20.5 Q-10.05 -21.35 -9.15 -21.35 -8.25 -21.35 -7.7 -20.65 -7.3 -20.1 -7.3 -19.45 L-7.3 -16.85 -7.1 -16.25 Q-7.0 -16.0 -6.7 -16.05 -5.15 -16.05 -4.45 -20.9 L-3.5 -20.35 Q-3.95 -17.6 -4.7 -16.35 -5.25 -15.3 -6.15 -15.05 L-6.8 -15.0 Q-7.5 -15.0 -7.9 -15.45 -8.3 -15.9 -8.3 -16.85 L-8.3 -19.45 -8.55 -20.05 -9.25 -20.3 -10.25 -20.0 -11.1 -19.05 -11.85 -16.35 -12.15 -15.3 -13.2 -15.7 M-4.45 -10.75 L-4.45 -3.75 Q-4.45 -2.45 -4.0 -1.95 -3.55 -1.5 -2.1 -1.55 -1.0 -1.6 -0.4 -2.6 0.15 -3.4 0.35 -5.05 L1.5 -4.55 Q1.25 -3.0 0.65 -2.0 -0.4 -0.4 -2.55 -0.4 -4.15 -0.35 -4.8 -1.15 -5.4 -1.9 -5.45 -3.75 L-5.45 -10.75 -4.45 -10.75 M5.25 -1.8 Q8.2 -4.25 9.2 -10.15 L10.3 -9.65 Q10.65 -9.45 10.3 -9.35 9.25 -3.6 6.05 -0.75 L5.25 -1.8 M18.2 -16.1 L17.95 -17.25 Q20.9 -17.25 21.95 -18.5 22.8 -19.3 22.75 -20.85 22.75 -21.9 22.15 -22.55 21.65 -23.15 20.75 -23.2 L18.15 -22.7 15.3 -21.5 14.85 -22.75 18.1 -23.85 20.6 -24.3 Q21.5 -24.3 22.2 -23.9 L22.8 -23.5 Q23.95 -22.5 23.85 -20.4 23.75 -18.3 22.2 -17.15 20.8 -16.1 18.2 -16.1 M21.4 -31.9 L20.15 -31.3 Q19.5 -34.35 18.0 -37.7 L19.05 -38.4 Q20.8 -34.6 21.4 -31.9 M19.65 -46.0 L18.6 -46.0 18.6 -54.7 19.65 -54.7 19.65 -46.0 M20.7 -60.75 L19.9 -61.8 Q22.85 -64.25 23.85 -70.15 L24.95 -69.65 Q25.3 -69.45 24.95 -69.35 24.0 -64.1 21.25 -61.25 L20.7 -60.75 M18.55 -69.35 Q17.5 -63.6 14.3 -60.75 L13.5 -61.8 Q16.45 -64.25 17.45 -70.15 L18.55 -69.65 Q18.9 -69.45 18.55 -69.35 M12.15 -69.65 Q12.5 -69.45 12.15 -69.35 11.1 -63.6 7.9 -60.75 L7.1 -61.8 Q10.05 -64.25 11.05 -70.15 L12.15 -69.65 M5.75 -69.35 Q4.7 -63.6 1.5 -60.75 L0.7 -61.8 Q3.65 -64.25 4.65 -70.15 L5.75 -69.65 Q6.1 -69.45 5.75 -69.35 M9.25 -56.1 L9.05 -55.55 9.25 -55.0 9.8 -54.8 10.4 -55.0 10.6 -55.55 10.4 -56.1 9.8 -56.3 9.25 -56.1 M9.8 -56.7 L10.65 -56.35 11.0 -55.55 Q11.0 -55.1 10.65 -54.75 10.3 -54.4 9.8 -54.4 9.35 -54.4 9.0 -54.75 8.65 -55.1 8.65 -55.55 8.65 -56.0 9.0 -56.35 9.35 -56.7 9.8 -56.7 M2.2 -50.9 L8.0 -50.9 8.0 -50.05 2.2 -50.05 2.2 -50.9 M16.95 -54.65 Q17.3 -54.45 16.95 -54.35 15.9 -48.6 12.7 -45.75 L11.9 -46.8 Q14.85 -49.25 15.85 -55.15 L16.95 -54.65 M16.95 -37.35 Q17.45 -37.05 16.9 -37.0 16.3 -33.7 14.8 -30.95 L13.8 -31.9 Q15.15 -34.3 15.8 -37.9 L16.95 -37.35 M3.2 -39.7 L5.7 -35.7 8.2 -39.7 9.4 -39.7 6.3 -34.85 6.3 -31.0 5.15 -31.0 5.15 -34.85 2.0 -39.7 3.2 -39.7 M1.85 -29.6 L-2.05 -29.6 -2.05 -30.2 1.85 -30.2 1.85 -29.6 M9.55 -30.2 L13.45 -30.2 13.45 -29.6 9.55 -29.6 9.55 -30.2 M11.55 -23.4 Q13.3 -19.6 13.9 -16.9 L12.65 -16.3 Q12.0 -19.35 10.5 -22.7 L11.55 -23.4 M9.45 -22.35 Q9.95 -22.05 9.4 -22.0 8.8 -18.7 7.3 -15.95 L6.3 -16.9 Q7.65 -19.3 8.3 -22.9 L9.45 -22.35 M2.55 -24.35 Q1.5 -18.6 -1.7 -15.75 L-2.5 -16.8 Q0.45 -19.25 1.45 -25.15 L2.55 -24.65 Q2.9 -24.45 2.55 -24.35 M4.1 -17.1 L5.3 -17.1 5.3 -16.0 4.6 -14.65 4.1 -14.65 4.6 -16.0 4.1 -16.0 4.1 -17.1 M4.0 -8.75 L3.3 -7.25 2.8 -7.25 3.3 -8.75 2.8 -8.75 2.8 -9.9 4.0 -9.9 4.0 -8.75 M-16.65 -80.65 L-17.15 -80.65 -16.65 -82.15 -17.15 -82.15 -17.15 -83.3 -15.95 -83.3 -15.95 -82.15 -16.65 -80.65 M-0.65 -69.65 Q-0.3 -69.45 -0.65 -69.35 -1.7 -63.6 -4.9 -60.75 L-5.7 -61.8 Q-2.75 -64.25 -1.75 -70.15 L-0.65 -69.65 M-9.4 -64.3 Q-10.9 -61.75 -13.4 -60.3 L-14.2 -61.3 Q-9.15 -64.15 -8.85 -70.4 L-7.65 -70.05 Q-7.85 -66.85 -9.4 -64.3 M-12.95 -54.7 L-12.95 -46.0 -14.0 -46.0 -14.0 -54.7 -12.95 -54.7 M-3.65 -56.7 Q-3.15 -56.7 -2.8 -56.35 -2.45 -56.0 -2.45 -55.55 -2.45 -55.1 -2.8 -54.75 -3.15 -54.4 -3.65 -54.4 -4.1 -54.4 -4.45 -54.75 -4.8 -55.1 -4.8 -55.55 L-4.45 -56.35 Q-4.1 -56.7 -3.65 -56.7 M-3.65 -56.3 L-4.2 -56.1 -4.4 -55.55 -4.2 -55.0 -3.65 -54.8 -3.05 -55.0 -2.85 -55.55 -3.05 -56.1 -3.65 -56.3 M-10.05 -56.95 L-10.05 -44.05 -11.1 -44.05 -11.1 -56.95 -10.05 -56.95 M-8.95 -40.05 L-14.35 -30.45 -14.85 -30.75 -9.45 -40.35 -8.95 -40.05 M-19.1 -29.6 L-19.1 -30.2 -15.2 -30.2 -15.2 -29.6 -19.1 -29.6 M-3.95 -29.65 L-3.45 -31.0 -3.95 -31.0 -3.95 -32.1 -2.75 -32.1 -2.75 -31.0 -3.45 -29.65 -3.95 -29.65" fill="#000000" fill-rule="evenodd" stroke="none"/>
    <path d="M17.95 -80.95 L17.7 -80.75 18.7 -80.05 Q21.85 -77.8 23.5 -75.4 L24.8 -76.5 24.95 -69.65 23.85 -70.15 Q22.85 -64.25 19.9 -61.8 L20.7 -60.75 20.95 -60.6 Q20.15 -58.85 19.05 -57.6 18.9 -55.6 18.6 -54.7 L18.6 -46.0 19.65 -46.0 Q18.95 -42.4 19.05 -38.4 L18.0 -37.7 Q19.5 -34.35 20.15 -31.3 L21.4 -31.9 22.2 -23.9 Q21.5 -24.3 20.6 -24.3 L18.1 -23.85 14.85 -22.75 15.3 -21.5 18.15 -22.7 20.75 -23.2 Q21.65 -23.15 22.15 -22.55 22.75 -21.9 22.75 -20.85 22.8 -19.3 21.95 -18.5 20.9 -17.25 17.95 -17.25 L18.2 -16.1 11.45 -14.95 Q11.45 -11.5 9.2 -10.15 8.2 -4.25 5.25 -1.8 2.6 -0.15 0.65 -2.0 1.25 -3.0 1.5 -4.55 L0.35 -5.05 Q0.15 -3.4 -0.4 -2.6 -1.0 -1.6 -2.1 -1.55 -3.55 -1.5 -4.0 -1.95 -4.45 -2.45 -4.45 -3.75 L-4.45 -10.75 Q-4.55 -12.6 -6.15 -15.05 -5.25 -15.3 -4.7 -16.35 -3.95 -17.6 -3.5 -20.35 L-4.45 -20.9 Q-5.15 -16.05 -6.7 -16.05 -7.0 -16.0 -7.1 -16.25 L-7.3 -16.85 -7.3 -19.45 Q-7.3 -20.1 -7.7 -20.65 -8.25 -21.35 -9.15 -21.35 -10.05 -21.35 -10.85 -20.5 L-9.5 -25.75 -10.6 -26.05 Q-11.55 -21.65 -13.2 -15.7 -14.25 -16.3 -14.5 -15.35 L-14.5 -16.45 -17.8 -16.45 Q-20.3 -16.45 -20.2 -18.35 -20.15 -19.25 -19.1 -20.1 -17.55 -21.3 -14.2 -21.95 L-14.5 -23.15 -18.25 -21.9 Q-18.75 -22.45 -18.95 -23.4 L-19.1 -25.8 -20.4 -25.8 -20.05 -31.0 -19.95 -31.0 -19.95 -39.7 -21.0 -39.7 -20.85 -44.05 -19.8 -44.05 -19.8 -56.95 -20.85 -59.05 -19.8 -59.05 -19.8 -71.4 -20.85 -71.4 Q-19.6 -76.9 -16.65 -80.65 -15.35 -81.8 -13.95 -82.35 L-12.75 -82.35 -10.15 -84.6 -12.0 -84.6 Q-8.85 -87.5 -4.55 -87.45 L8.4 -87.45 8.4 -88.05 Q8.7 -87.55 10.25 -87.25 12.45 -86.75 14.2 -84.95 L17.95 -80.95 M2.2 -50.9 L2.2 -50.05 8.0 -50.05 8.0 -50.9 2.2 -50.9 M9.8 -56.7 Q9.35 -56.7 9.0 -56.35 8.65 -56.0 8.65 -55.55 8.65 -55.1 9.0 -54.75 9.35 -54.4 9.8 -54.4 10.3 -54.4 10.65 -54.75 11.0 -55.1 11.0 -55.55 L10.65 -56.35 9.8 -56.7 M9.25 -56.1 L9.8 -56.3 10.4 -56.1 10.6 -55.55 10.4 -55.0 9.8 -54.8 9.25 -55.0 9.05 -55.55 9.25 -56.1 M5.75 -69.35 Q6.1 -69.45 5.75 -69.65 L4.65 -70.15 Q3.65 -64.25 0.7 -61.8 L1.5 -60.75 Q4.7 -63.6 5.75 -69.35 M12.15 -69.65 L11.05 -70.15 Q10.05 -64.25 7.1 -61.8 L7.9 -60.75 Q11.1 -63.6 12.15 -69.35 12.5 -69.45 12.15 -69.65 M18.55 -69.35 Q18.9 -69.45 18.55 -69.65 L17.45 -70.15 Q16.45 -64.25 13.5 -61.8 L14.3 -60.75 Q17.5 -63.6 18.55 -69.35 M16.95 -54.65 L15.85 -55.15 Q14.85 -49.25 11.9 -46.8 L12.7 -45.75 Q15.9 -48.6 16.95 -54.35 17.3 -54.45 16.95 -54.65 M4.0 -8.75 L4.0 -9.9 2.8 -9.9 2.8 -8.75 3.3 -8.75 2.8 -7.25 3.3 -7.25 4.0 -8.75 M4.1 -17.1 L4.1 -16.0 4.6 -16.0 4.1 -14.65 4.6 -14.65 5.3 -16.0 5.3 -17.1 4.1 -17.1 M2.55 -24.35 Q2.9 -24.45 2.55 -24.65 L1.45 -25.15 Q0.45 -19.25 -2.5 -16.8 L-1.7 -15.75 Q1.5 -18.6 2.55 -24.35 M9.45 -22.35 L8.3 -22.9 Q7.65 -19.3 6.3 -16.9 L7.3 -15.95 Q8.8 -18.7 9.4 -22.0 9.95 -22.05 9.45 -22.35 M11.55 -23.4 L10.5 -22.7 Q12.0 -19.35 12.65 -16.3 L13.9 -16.9 Q13.3 -19.6 11.55 -23.4 M9.55 -30.2 L9.55 -29.6 13.45 -29.6 13.45 -30.2 9.55 -30.2 M1.85 -29.6 L1.85 -30.2 -2.05 -30.2 -2.05 -29.6 1.85 -29.6 M3.2 -39.7 L2.0 -39.7 5.15 -34.85 5.15 -31.0 6.3 -31.0 6.3 -34.85 9.4 -39.7 8.2 -39.7 5.7 -35.7 3.2 -39.7 M16.95 -37.35 L15.8 -37.9 Q15.15 -34.3 13.8 -31.9 L14.8 -30.95 Q16.3 -33.7 16.9 -37.0 17.45 -37.05 16.95 -37.35 M-10.05 -56.95 L-11.1 -56.95 -11.1 -44.05 -10.05 -44.05 -10.05 -56.95 M-3.65 -56.3 L-3.05 -56.1 -2.85 -55.55 -3.05 -55.0 -3.65 -54.8 -4.2 -55.0 -4.4 -55.55 -4.2 -56.1 -3.65 -56.3 M-3.65 -56.7 Q-4.1 -56.7 -4.45 -56.35 L-4.8 -55.55 Q-4.8 -55.1 -4.45 -54.75 -4.1 -54.4 -3.65 -54.4 -3.15 -54.4 -2.8 -54.75 -2.45 -55.1 -2.45 -55.55 -2.45 -56.0 -2.8 -56.35 -3.15 -56.7 -3.65 -56.7 M-12.95 -54.7 L-14.0 -54.7 -14.0 -46.0 -12.95 -46.0 -12.95 -54.7 M-9.4 -64.3 Q-7.85 -66.85 -7.65 -70.05 L-8.85 -70.4 Q-9.15 -64.15 -14.2 -61.3 L-13.4 -60.3 Q-10.9 -61.75 -9.4 -64.3 M-0.65 -69.65 L-1.75 -70.15 Q-2.75 -64.25 -5.7 -61.8 L-4.9 -60.75 Q-1.7 -63.6 -0.65 -69.35 -0.3 -69.45 -0.65 -69.65 M-3.95 -29.65 L-3.45 -29.65 -2.75 -31.0 -2.75 -32.1 -3.95 -32.1 -3.95 -31.0 -3.45 -31.0 -3.95 -29.65 M-19.1 -29.6 L-15.2 -29.6 -15.2 -30.2 -19.1 -30.2 -19.1 -29.6 M-8.95 -40.05 L-9.45 -40.35 -14.85 -30.75 -14.35 -30.45 -8.95 -40.05 M-11.85 -16.35 L-11.1 -19.05 -10.25 -20.0 -9.25 -20.3 -8.55 -20.05 -8.3 -19.45 -8.3 -16.85 Q-10.5 -17.15 -11.85 -16.35" fill="#ffffff" fill-rule="evenodd" stroke="none"/>
  </g>
</svg>
