<svg xmlns:xlink="http://www.w3.org/1999/xlink" height="100.8px" width="104.0px" xmlns="http://www.w3.org/2000/svg">
  <g transform="matrix(1.0, 0.0, 0.0, 1.0, 53.5, 100.1)">
    <path d="M6.0 -90.85 L7.45 -90.85 7.45 -89.5 6.7 -87.8 6.0 -87.8 6.65 -89.5 6.0 -89.5 6.0 -90.85 M-7.3 -89.45 L-8.55 -89.45 -8.55 -100.1 -7.3 -100.1 -7.3 -89.45 M-7.9 -81.1 Q-8.45 -81.1 -8.9 -80.7 -9.4 -80.2 -9.45 -79.05 L-10.85 -79.05 Q-10.85 -80.5 -9.9 -81.45 -9.1 -82.25 -7.9 -82.25 -6.5 -82.25 -5.7 -81.45 -4.95 -80.7 -4.95 -79.45 -4.95 -78.2 -5.6 -77.55 -6.0 -77.1 -6.5 -77.05 L-5.45 -76.45 Q-4.7 -75.7 -4.7 -74.45 -4.7 -73.05 -5.6 -72.2 -6.45 -71.3 -8.0 -71.3 -9.35 -71.3 -10.2 -72.2 -11.1 -73.05 -11.1 -74.25 L-11.1 -74.75 -9.65 -74.75 -9.65 -74.3 Q-9.65 -73.5 -9.1 -72.95 -8.65 -72.5 -8.0 -72.5 -7.2 -72.5 -6.7 -73.0 -6.2 -73.5 -6.2 -74.55 -6.2 -75.45 -6.7 -75.95 -7.2 -76.45 -7.85 -76.45 L-8.35 -76.45 -8.35 -77.5 -7.95 -77.5 Q-7.4 -77.5 -6.9 -78.0 -6.4 -78.5 -6.4 -79.45 -6.4 -80.25 -6.9 -80.75 -7.25 -81.1 -7.9 -81.1 M-20.15 -70.0 Q-23.3 -72.95 -23.3 -76.8 -23.3 -80.7 -20.15 -83.6 L-19.45 -82.95 Q-22.35 -80.25 -22.35 -76.8 -22.35 -73.35 -19.45 -70.7 L-20.15 -70.0 M3.6 -82.95 L4.3 -83.6 Q7.4 -80.7 7.4 -76.8 7.4 -73.15 4.65 -70.35 L4.3 -70.0 3.6 -70.7 Q6.45 -73.35 6.45 -76.8 6.45 -80.25 3.6 -82.95 M-14.45 -76.05 L-16.4 -76.05 -16.4 -78.0 -14.45 -78.0 -14.45 -76.05 M-22.85 -63.0 L-23.7 -61.1 -24.3 -61.1 -23.7 -63.0 -24.3 -63.0 -24.3 -64.35 -22.85 -64.35 -22.85 -63.0 M-7.05 -64.1 L-7.05 -53.45 -8.3 -53.45 -8.3 -64.1 -7.05 -64.1 M13.4 -77.45 L20.5 -77.45 20.5 -76.45 13.4 -76.45 13.4 -77.45 M0.6 -76.05 L-1.35 -76.05 -1.35 -78.0 0.6 -78.0 0.6 -76.05 M9.35 -63.1 L8.35 -63.1 5.65 -66.0 7.5 -66.0 9.35 -63.1 M-29.2 -77.45 L-29.2 -76.45 -36.3 -76.45 -36.3 -77.45 -29.2 -77.45 M-26.6 -90.45 L-25.8 -91.55 -23.65 -88.95 -24.55 -87.75 -26.6 -90.45 M-44.8 -20.0 L-46.35 -18.7 Q-48.75 -22.1 -53.5 -25.25 L-52.15 -26.45 Q-47.1 -23.25 -44.8 -20.0 M-27.85 -34.95 L-29.0 -34.35 -33.6 -44.35 -38.15 -34.35 -39.35 -34.95 -33.6 -47.5 -27.85 -34.95 M-40.6 -29.6 L-39.9 -28.95 Q-42.8 -26.25 -42.8 -22.8 -42.8 -19.35 -39.9 -16.7 L-40.6 -16.0 Q-42.75 -18.0 -43.4 -20.45 -43.75 -21.6 -43.75 -22.8 -43.75 -26.7 -40.6 -29.6 M-33.7 -6.45 L-32.35 -6.45 -30.1 -0.85 -27.85 -6.45 -26.45 -6.45 -29.45 0.7 -30.7 0.7 -33.7 -6.45 M-26.05 -6.45 L-24.7 -6.45 -22.45 -0.85 -20.2 -6.45 -18.8 -6.45 -21.8 0.7 -23.05 0.7 -26.05 -6.45 M-14.45 -16.7 Q-11.6 -19.35 -11.6 -22.8 -11.6 -25.2 -12.95 -27.2 L-14.45 -28.95 -13.75 -29.6 -13.25 -29.1 Q-10.65 -26.4 -10.65 -22.8 -10.65 -20.85 -11.4 -19.15 -12.2 -17.45 -13.75 -16.0 L-14.45 -16.7 M-14.25 -34.95 L-15.4 -34.35 -20.0 -44.35 -24.55 -34.35 -25.75 -34.95 -20.0 -47.5 -14.25 -34.95 M-27.15 -28.25 Q-25.75 -28.25 -24.95 -27.45 -24.2 -26.7 -24.2 -25.45 -24.2 -24.2 -24.85 -23.55 -25.25 -23.1 -25.75 -23.05 -25.15 -22.85 -24.7 -22.45 -23.95 -21.7 -23.95 -20.45 -23.95 -19.05 -24.85 -18.2 -25.7 -17.3 -27.25 -17.3 -28.6 -17.3 -29.45 -18.2 -30.35 -19.05 -30.35 -20.25 L-30.35 -20.75 -28.9 -20.75 -28.9 -20.3 Q-28.9 -19.5 -28.35 -18.95 -27.9 -18.5 -27.25 -18.5 -26.45 -18.5 -25.95 -19.0 -25.45 -19.5 -25.45 -20.55 -25.45 -21.45 -25.95 -21.95 -26.45 -22.45 -27.1 -22.45 L-27.6 -22.45 -27.6 -23.5 -27.2 -23.5 Q-26.65 -23.5 -26.15 -24.0 -25.65 -24.5 -25.65 -25.45 -25.65 -26.25 -26.15 -26.75 -26.5 -27.1 -27.15 -27.1 -27.7 -27.1 -28.15 -26.7 -28.65 -26.2 -28.7 -25.05 L-30.1 -25.05 Q-30.1 -26.5 -29.15 -27.45 -28.35 -28.25 -27.15 -28.25 M-35.65 -24.0 L-33.7 -24.0 -33.7 -22.05 -35.65 -22.05 -35.65 -24.0 M1.9 -44.45 Q6.95 -41.25 9.25 -38.0 L7.7 -36.7 Q5.3 -40.1 0.55 -43.25 L1.9 -44.45 M13.45 -34.0 Q11.3 -36.0 10.65 -38.45 10.3 -39.6 10.3 -40.8 10.3 -44.7 13.45 -47.6 L14.15 -46.95 Q11.25 -44.25 11.25 -40.8 11.25 -37.35 14.15 -34.7 L13.45 -34.0 M14.85 -52.95 L20.6 -65.5 25.95 -53.85 26.35 -52.95 25.2 -52.35 20.6 -62.35 16.05 -52.35 14.85 -52.95 M28.95 -54.05 L34.2 -65.5 39.95 -52.95 38.8 -52.35 34.2 -62.35 29.65 -52.35 28.45 -52.95 28.95 -54.05 M39.95 -47.25 L40.3 -47.6 Q43.4 -44.7 43.4 -40.8 43.4 -38.85 42.65 -37.15 41.85 -35.45 40.3 -34.0 L39.6 -34.7 Q42.45 -37.35 42.45 -40.8 42.45 -44.05 39.95 -46.6 L39.6 -46.95 39.95 -47.25 M35.75 -31.0 L37.0 -31.0 37.0 -15.05 35.75 -15.05 35.75 -31.0 M33.7 -10.1 L30.4 0.7 28.75 0.7 26.1 -8.0 25.95 -8.0 23.25 0.7 21.65 0.7 18.35 -10.1 19.9 -10.1 22.4 -1.5 22.5 -1.5 25.2 -10.1 26.85 -10.1 29.5 -1.5 29.65 -1.5 32.15 -10.1 33.7 -10.1 M15.2 -15.05 L15.2 -30.95 16.2 -30.95 16.45 -30.95 16.45 -15.05 15.2 -15.05 M-18.65 -24.0 L-18.65 -22.05 -20.6 -22.05 -20.6 -24.0 -18.65 -24.0 M-10.8 -17.1 L-4.2 -28.95 -3.55 -28.55 -10.2 -16.75 -10.8 -17.1 M50.5 -46.55 L43.85 -34.75 43.25 -35.1 49.85 -46.95 50.5 -46.55 M23.95 -43.05 Q23.95 -44.5 24.9 -45.45 25.7 -46.25 26.9 -46.25 28.3 -46.25 29.1 -45.45 29.85 -44.7 29.85 -43.45 29.85 -42.2 29.2 -41.55 28.8 -41.1 28.3 -41.05 28.9 -40.85 29.35 -40.45 30.1 -39.7 30.1 -38.45 30.1 -37.05 29.2 -36.2 28.35 -35.3 26.8 -35.3 25.45 -35.3 24.6 -36.2 23.7 -37.05 23.7 -38.25 L23.7 -38.75 25.15 -38.75 25.15 -38.3 Q25.15 -37.5 25.7 -36.95 26.15 -36.5 26.8 -36.5 27.6 -36.5 28.1 -37.0 28.6 -37.5 28.6 -38.55 28.6 -39.45 28.1 -39.95 27.6 -40.45 26.95 -40.45 L26.45 -40.45 26.45 -41.5 26.85 -41.5 Q27.4 -41.5 27.9 -42.0 28.4 -42.5 28.4 -43.45 28.4 -44.25 27.9 -44.75 27.55 -45.1 26.9 -45.1 26.35 -45.1 25.9 -44.7 25.4 -44.2 25.35 -43.05 L23.95 -43.05 M20.35 -42.0 L20.35 -40.05 18.4 -40.05 18.4 -42.0 20.35 -42.0 M35.4 -42.0 L35.4 -40.05 33.45 -40.05 33.45 -42.0 35.4 -42.0" fill="#000000" fill-rule="evenodd" stroke="none"/>
    <path d="M-7.9 -81.1 Q-7.25 -81.1 -6.9 -80.75 -6.4 -80.25 -6.4 -79.45 -6.4 -78.5 -6.9 -78.0 -7.4 -77.5 -7.95 -77.5 L-8.35 -77.5 -8.35 -76.45 -7.85 -76.45 Q-7.2 -76.45 -6.7 -75.95 -6.2 -75.45 -6.2 -74.55 -6.2 -73.5 -6.7 -73.0 -7.2 -72.5 -8.0 -72.5 -8.65 -72.5 -9.1 -72.95 -9.65 -73.5 -9.65 -74.3 L-9.65 -74.75 -11.1 -74.75 -11.1 -74.25 Q-11.1 -73.05 -10.2 -72.2 -9.35 -71.3 -8.0 -71.3 -6.45 -71.3 -5.6 -72.2 -4.7 -73.05 -4.7 -74.45 -4.7 -75.7 -5.45 -76.45 L-6.5 -77.05 Q-6.0 -77.1 -5.6 -77.55 -4.95 -78.2 -4.95 -79.45 -4.95 -80.7 -5.7 -81.45 -6.5 -82.25 -7.9 -82.25 -9.1 -82.25 -9.9 -81.45 -10.85 -80.5 -10.85 -79.05 L-9.45 -79.05 Q-9.4 -80.2 -8.9 -80.7 -8.45 -81.1 -7.9 -81.1 M-20.15 -83.6 Q-13.8 -87.4 -7.85 -87.25 -1.95 -87.1 3.6 -82.95 6.45 -80.25 6.45 -76.8 6.45 -73.35 3.6 -70.7 L4.3 -70.0 Q-2.45 -65.8 -8.45 -65.7 -14.7 -65.6 -20.15 -70.0 L-19.45 -70.7 Q-22.35 -73.35 -22.35 -76.8 -22.35 -80.25 -19.45 -82.95 L-20.15 -83.6 M-14.45 -76.05 L-14.45 -78.0 -16.4 -78.0 -16.4 -76.05 -14.45 -76.05 M0.6 -76.05 L0.6 -78.0 -1.35 -78.0 -1.35 -76.05 0.6 -76.05 M-27.85 -34.95 L-25.75 -34.95 -24.55 -34.35 -20.0 -44.35 -15.4 -34.35 -14.25 -34.95 -13.35 -29.65 -13.75 -29.6 -14.45 -28.95 -12.95 -27.2 Q-11.6 -25.2 -11.6 -22.8 -11.6 -19.35 -14.45 -16.7 L-20.2 -12.6 -20.2 -6.45 -22.45 -0.85 -24.7 -6.45 -26.05 -6.45 -26.45 -6.45 -27.85 -6.45 -30.1 -0.85 -32.35 -6.45 -33.7 -6.45 -33.7 -12.6 Q-37.5 -12.75 -39.8 -16.55 L-39.9 -16.7 Q-42.8 -19.35 -42.8 -22.8 -42.8 -26.25 -39.9 -28.95 L-40.6 -29.6 -38.15 -34.3 -38.15 -34.35 -33.6 -44.35 -29.0 -34.35 -27.85 -34.95 M-27.15 -28.25 Q-28.35 -28.25 -29.15 -27.45 -30.1 -26.5 -30.1 -25.05 L-28.7 -25.05 Q-28.65 -26.2 -28.15 -26.7 -27.7 -27.1 -27.15 -27.1 -26.5 -27.1 -26.15 -26.75 -25.65 -26.25 -25.65 -25.45 -25.65 -24.5 -26.15 -24.0 -26.65 -23.5 -27.2 -23.5 L-27.6 -23.5 -27.6 -22.45 -27.1 -22.45 Q-26.45 -22.45 -25.95 -21.95 -25.45 -21.45 -25.45 -20.55 -25.45 -19.5 -25.95 -19.0 -26.45 -18.5 -27.25 -18.5 -27.9 -18.5 -28.35 -18.95 -28.9 -19.5 -28.9 -20.3 L-28.9 -20.75 -30.35 -20.75 -30.35 -20.25 Q-30.35 -19.05 -29.45 -18.2 -28.6 -17.3 -27.25 -17.3 -25.7 -17.3 -24.85 -18.2 -23.95 -19.05 -23.95 -20.45 -23.95 -21.7 -24.7 -22.45 -25.15 -22.85 -25.75 -23.05 -25.25 -23.1 -24.85 -23.55 -24.2 -24.2 -24.2 -25.45 -24.2 -26.7 -24.95 -27.45 -25.75 -28.25 -27.15 -28.25 M-35.65 -24.0 L-35.65 -22.05 -33.7 -22.05 -33.7 -24.0 -35.65 -24.0 M14.15 -46.95 L14.85 -52.95 16.05 -52.35 20.6 -62.35 25.2 -52.35 26.35 -52.95 25.95 -53.85 28.95 -54.05 28.45 -52.95 29.65 -52.35 34.2 -62.35 38.8 -52.35 39.95 -52.95 39.95 -47.25 39.6 -46.95 39.95 -46.6 Q42.45 -44.05 42.45 -40.8 42.45 -37.35 39.6 -34.7 L35.75 -31.0 35.75 -15.05 37.0 -15.05 33.7 -10.1 32.15 -10.1 29.65 -1.5 29.5 -1.5 26.85 -10.1 25.2 -10.1 22.5 -1.5 22.4 -1.5 19.9 -10.1 18.35 -10.1 Q17.2 -12.75 15.2 -15.05 L16.45 -15.05 16.45 -30.95 16.2 -30.95 15.75 -32.95 13.45 -34.0 14.15 -34.7 Q11.25 -37.35 11.25 -40.8 11.25 -44.25 14.15 -46.95 M-18.65 -24.0 L-20.6 -24.0 -20.6 -22.05 -18.65 -22.05 -18.65 -24.0 M35.4 -42.0 L33.45 -42.0 33.45 -40.05 35.4 -40.05 35.4 -42.0 M20.35 -42.0 L18.4 -42.0 18.4 -40.05 20.35 -40.05 20.35 -42.0 M23.95 -43.05 L25.35 -43.05 Q25.4 -44.2 25.9 -44.7 26.35 -45.1 26.9 -45.1 27.55 -45.1 27.9 -44.75 28.4 -44.25 28.4 -43.45 28.4 -42.5 27.9 -42.0 27.4 -41.5 26.85 -41.5 L26.45 -41.5 26.45 -40.45 26.95 -40.45 Q27.6 -40.45 28.1 -39.95 28.6 -39.45 28.6 -38.55 28.6 -37.5 28.1 -37.0 27.6 -36.5 26.8 -36.5 26.15 -36.5 25.7 -36.95 25.15 -37.5 25.15 -38.3 L25.15 -38.75 23.7 -38.75 23.7 -38.25 Q23.7 -37.05 24.6 -36.2 25.45 -35.3 26.8 -35.3 28.35 -35.3 29.2 -36.2 30.1 -37.05 30.1 -38.45 30.1 -39.7 29.35 -40.45 28.9 -40.85 28.3 -41.05 28.8 -41.1 29.2 -41.55 29.85 -42.2 29.85 -43.45 29.85 -44.7 29.1 -45.45 28.3 -46.25 26.9 -46.25 25.7 -46.25 24.9 -45.45 23.95 -44.5 23.95 -43.05" fill="#ffffff" fill-rule="evenodd" stroke="none"/>
  </g>
</svg>
