<svg xmlns:xlink="http://www.w3.org/1999/xlink" height="24.5px" width="57.75px" xmlns="http://www.w3.org/2000/svg">
  <g transform="matrix(1.0, 0.0, 0.0, 1.0, 30.45, 25.2)">
    <path d="M5.15 -14.75 Q5.15 -13.85 4.45 -13.2 3.65 -12.4 0.85 -12.3 L0.85 -10.45 Q3.85 -10.6 4.6 -9.85 5.4 -9.05 5.4 -7.7 5.4 -6.65 4.6 -5.9 3.75 -5.0 2.05 -5.0 0.05 -5.0 -0.95 -6.05 -1.85 -6.9 -1.9 -8.65 L-4.15 -8.65 Q-3.9 -6.15 -2.5 -4.75 -1.05 -3.3 2.05 -3.3 4.7 -3.3 6.05 -4.65 7.35 -5.95 7.35 -7.75 L7.3 -8.45 Q7.1 -9.75 6.25 -10.6 5.65 -11.2 4.6 -11.45 L6.0 -12.3 Q7.0 -13.35 7.0 -14.75 7.0 -16.3 5.9 -17.4 4.7 -18.6 2.05 -18.6 -0.7 -18.6 -2.2 -17.15 -3.55 -15.75 -3.8 -13.95 L-1.5 -13.95 Q-1.3 -15.25 -0.7 -15.85 0.3 -16.9 2.05 -16.9 3.75 -16.9 4.45 -16.2 5.15 -15.5 5.15 -14.75 M16.65 -13.1 L12.95 -13.1 12.95 -9.4 16.65 -9.4 16.65 -13.1 M-26.15 -20.4 L-26.3 -20.8 Q-2.9 -29.6 22.2 -20.8 L22.75 -20.15 22.05 -19.55 Q24.2 -17.55 25.1 -15.75 26.0 -13.8 26.0 -11.05 26.0 -8.7 25.1 -6.65 24.2 -4.75 22.05 -2.45 L22.1 -1.8 2.05 -0.75 -25.25 -1.8 -25.2 -2.45 Q-27.35 -4.75 -28.2 -6.65 -29.15 -8.7 -29.15 -11.05 -29.15 -13.8 -28.2 -15.75 -27.35 -17.55 -25.2 -19.55 L-26.15 -20.4 M-13.1 -9.4 L-9.4 -9.4 -9.4 -13.1 -13.1 -13.1 -13.1 -9.4" fill="#ffffff" fill-rule="evenodd" stroke="none"/>
    <path d="M16.65 -13.1 L16.65 -9.4 12.95 -9.4 12.95 -13.1 16.65 -13.1 M5.15 -14.75 Q5.15 -15.5 4.45 -16.2 3.75 -16.9 2.05 -16.9 0.3 -16.9 -0.7 -15.85 -1.3 -15.25 -1.5 -13.95 L-3.8 -13.95 Q-3.55 -15.75 -2.2 -17.15 -0.7 -18.6 2.05 -18.6 4.7 -18.6 5.9 -17.4 7.0 -16.3 7.0 -14.75 7.0 -13.35 6.0 -12.3 L4.6 -11.45 Q5.65 -11.2 6.25 -10.6 7.1 -9.75 7.3 -8.45 L7.35 -7.75 Q7.35 -5.95 6.05 -4.65 4.7 -3.3 2.05 -3.3 -1.05 -3.3 -2.5 -4.75 -3.9 -6.15 -4.15 -8.65 L-1.9 -8.65 Q-1.85 -6.9 -0.95 -6.05 0.05 -5.0 2.05 -5.0 3.75 -5.0 4.6 -5.9 5.4 -6.65 5.4 -7.7 5.4 -9.05 4.6 -9.85 3.85 -10.6 0.85 -10.45 L0.85 -12.3 Q3.65 -12.4 4.45 -13.2 5.15 -13.85 5.15 -14.75 M22.75 -20.15 L23.0 -20.4 Q25.25 -18.35 26.2 -16.35 27.3 -14.05 27.3 -11.05 27.3 -8.35 26.2 -6.05 25.25 -4.1 23.35 -1.9 L23.0 -1.5 22.05 -2.45 Q24.2 -4.75 25.1 -6.65 26.0 -8.7 26.0 -11.05 26.0 -13.8 25.1 -15.75 24.2 -17.55 22.05 -19.55 L22.75 -20.15 M-25.2 -2.45 L-26.15 -1.5 Q-28.3 -3.9 -29.35 -6.05 -30.45 -8.35 -30.45 -11.05 -30.45 -14.05 -29.35 -16.35 -28.4 -18.35 -26.15 -20.4 L-25.2 -19.55 Q-27.35 -17.55 -28.2 -15.75 -29.15 -13.8 -29.15 -11.05 -29.15 -8.7 -28.2 -6.65 -27.35 -4.75 -25.2 -2.45 M-13.1 -9.4 L-13.1 -13.1 -9.4 -13.1 -9.4 -9.4 -13.1 -9.4" fill="#000000" fill-rule="evenodd" stroke="none"/>
  </g>
</svg>
