<svg xmlns:xlink="http://www.w3.org/1999/xlink" height="63.5px" width="62.75px" xmlns="http://www.w3.org/2000/svg">
  <g transform="matrix(1.0, 0.0, 0.0, 1.0, 32.2, 63.35)">
    <path d="M6.5 -50.45 L7.7 -51.55 8.85 -51.05 13.1 -60.4 17.4 -51.05 18.55 -51.35 19.9 -46.5 19.25 -45.9 Q20.75 -44.6 21.3 -43.35 21.95 -42.0 21.95 -40.1 21.95 -38.55 21.3 -37.15 20.75 -35.85 19.25 -34.25 L19.9 -33.6 19.9 -30.75 9.8 -30.75 9.8 -30.1 24.75 -30.1 25.0 -30.65 26.4 -30.0 25.95 -29.0 29.35 -27.75 29.35 -18.75 25.95 -17.5 26.4 -16.5 26.4 -11.6 Q24.95 -12.5 23.15 -12.5 20.55 -12.5 18.7 -10.65 16.8 -8.75 16.8 -6.2 L16.85 -5.4 15.6 -5.25 0.65 -5.25 0.6 -5.25 -14.35 -5.25 -14.45 -4.3 -15.75 -4.3 Q-15.5 -5.2 -15.5 -6.2 -15.5 -8.75 -17.4 -10.65 -19.25 -12.5 -21.85 -12.5 -24.45 -12.5 -26.3 -10.65 L-28.05 -16.5 -27.65 -17.5 -31.05 -18.75 -31.05 -27.75 -27.65 -29.0 -26.3 -28.55 -25.7 -27.95 -25.35 -28.75 Q-25.1 -29.3 -24.6 -29.3 -24.15 -29.3 -23.45 -28.65 -22.6 -27.75 -22.1 -27.75 -21.5 -27.75 -21.0 -28.45 L-20.3 -29.7 -20.9 -30.45 -22.45 -33.7 -21.8 -34.3 Q-24.5 -36.85 -24.5 -40.05 -24.5 -43.3 -21.8 -45.8 L-22.45 -46.45 -22.3 -51.05 -21.15 -51.05 -16.9 -60.4 -12.6 -51.05 -11.5 -51.55 -8.45 -49.8 6.5 -49.8 6.5 -50.45 M9.75 -30.1 L9.75 -30.75 -5.2 -30.75 -5.2 -30.1 9.75 -30.1 M5.05 -45.25 Q3.2 -45.25 2.2 -44.25 1.25 -43.3 1.1 -42.05 L2.65 -42.05 Q2.8 -42.95 3.2 -43.35 3.9 -44.05 5.05 -44.05 L6.7 -43.6 7.2 -42.6 Q7.2 -42.0 6.7 -41.55 6.2 -41.0 4.25 -40.95 L4.25 -39.65 Q6.3 -39.8 6.85 -39.25 7.35 -38.75 7.35 -37.8 7.35 -37.1 6.85 -36.55 6.25 -35.95 5.05 -35.95 3.75 -35.95 3.0 -36.65 2.45 -37.25 2.4 -38.45 L0.85 -38.45 Q1.05 -36.75 1.95 -35.8 2.95 -34.8 5.05 -34.8 6.9 -34.8 7.85 -35.75 8.7 -36.6 8.7 -37.85 8.7 -39.0 7.95 -39.8 L6.85 -40.35 7.75 -40.95 Q8.45 -41.65 8.45 -42.6 8.45 -43.65 7.7 -44.4 6.9 -45.25 5.05 -45.25 M15.05 -38.95 L15.05 -41.5 12.5 -41.5 12.5 -38.95 15.05 -38.95 M17.9 -6.45 Q18.0 -8.5 19.4 -9.95 20.9 -11.45 23.15 -11.45 L23.45 -11.45 Q25.5 -11.35 26.9 -9.95 28.3 -8.5 28.4 -6.45 L28.4 -6.2 Q28.4 -3.95 26.9 -2.45 25.4 -0.9 23.15 -0.9 20.9 -0.9 19.4 -2.45 17.9 -3.95 17.9 -6.2 L17.9 -6.45 M21.2 -8.1 Q22.0 -8.9 23.15 -8.9 24.3 -8.9 25.1 -8.1 25.85 -7.35 25.85 -6.2 25.85 -5.0 25.1 -4.25 24.3 -3.5 23.15 -3.5 22.0 -3.5 21.2 -4.25 20.45 -5.0 20.45 -6.2 20.45 -7.35 21.2 -8.1 M26.9 -6.2 Q26.9 -7.7 25.8 -8.8 24.65 -9.95 23.15 -9.95 21.65 -9.95 20.5 -8.8 19.4 -7.7 19.4 -6.2 19.4 -4.65 20.5 -3.55 21.65 -2.45 23.15 -2.45 24.65 -2.45 25.8 -3.55 26.9 -4.65 26.9 -6.2 M-8.3 -28.15 L-9.4 -28.15 -9.4 -22.6 Q-9.4 -21.05 -10.4 -20.1 -11.3 -19.2 -12.6 -19.2 -13.85 -19.2 -14.75 -20.1 -15.75 -21.05 -15.75 -22.6 L-15.75 -28.15 -16.85 -28.15 -16.85 -22.6 Q-16.85 -20.55 -15.65 -19.3 -14.35 -18.05 -12.6 -18.05 -10.8 -18.05 -9.55 -19.3 -8.3 -20.55 -8.3 -22.6 L-8.3 -28.15 M-2.7 -38.95 L-2.7 -41.5 -5.25 -41.5 -5.25 -38.95 -2.7 -38.95 M-21.85 -11.45 L-21.55 -11.45 Q-19.5 -11.35 -18.1 -9.95 -16.7 -8.5 -16.6 -6.45 L-16.6 -6.2 Q-16.6 -3.95 -18.1 -2.45 -19.6 -0.9 -21.85 -0.9 -24.1 -0.9 -25.6 -2.45 -27.1 -3.95 -27.1 -6.2 L-27.1 -6.45 Q-27.0 -8.5 -25.6 -9.95 -24.1 -11.45 -21.85 -11.45 M-21.85 -9.95 Q-23.35 -9.95 -24.5 -8.8 -25.6 -7.7 -25.6 -6.2 -25.6 -4.65 -24.5 -3.55 -23.35 -2.45 -21.85 -2.45 -20.35 -2.45 -19.2 -3.55 -18.1 -4.65 -18.1 -6.2 -18.1 -7.7 -19.2 -8.8 -20.35 -9.95 -21.85 -9.95 M-23.8 -8.1 Q-23.0 -8.9 -21.85 -8.9 -20.7 -8.9 -19.9 -8.1 -19.15 -7.35 -19.15 -6.2 -19.15 -5.0 -19.9 -4.25 -20.7 -3.5 -21.85 -3.5 -23.0 -3.5 -23.8 -4.25 -24.55 -5.0 -24.55 -6.2 -24.55 -7.35 -23.8 -8.1" fill="#ffffff" fill-rule="evenodd" stroke="none"/>
    <path d="M6.5 -50.45 L6.5 -49.8 -8.45 -49.8 -8.45 -50.45 6.5 -50.45 M-11.5 -51.55 L-12.6 -51.05 -16.9 -60.4 -21.15 -51.05 -22.3 -51.55 -16.9 -63.35 -11.5 -51.55 M-22.45 -46.45 L-21.8 -45.8 Q-24.5 -43.3 -24.5 -40.05 -24.5 -36.85 -21.8 -34.3 L-22.45 -33.7 Q-25.35 -36.45 -25.35 -40.05 -25.35 -43.7 -22.45 -46.45 M-20.9 -30.45 L-20.3 -29.7 -21.0 -28.45 Q-21.5 -27.75 -22.1 -27.75 -22.6 -27.75 -23.45 -28.65 -24.15 -29.3 -24.6 -29.3 -25.1 -29.3 -25.35 -28.75 L-25.7 -27.95 -26.3 -28.55 -25.65 -29.85 -24.95 -30.45 -24.65 -30.5 Q-24.05 -30.5 -23.35 -29.8 -22.55 -29.05 -22.0 -29.05 -21.65 -29.05 -21.25 -29.7 L-20.9 -30.45 M-27.65 -29.0 L-31.05 -27.75 -31.05 -18.75 -27.65 -17.5 -28.05 -16.5 -32.2 -17.95 -32.2 -28.5 -28.05 -30.0 -27.65 -29.0 M-26.3 -10.65 Q-24.45 -12.5 -21.85 -12.5 -19.25 -12.5 -17.4 -10.65 -15.5 -8.75 -15.5 -6.2 -15.5 -5.2 -15.75 -4.3 -16.25 -2.9 -17.4 -1.75 -19.25 0.15 -21.85 0.15 -24.45 0.15 -26.3 -1.75 -28.2 -3.6 -28.2 -6.2 -28.2 -8.75 -26.3 -10.65 M-14.35 -5.25 L0.6 -5.25 0.6 -4.15 -14.35 -4.15 -14.35 -5.25 M0.65 -5.25 L15.6 -5.25 15.6 -4.15 0.65 -4.15 0.65 -5.25 M16.85 -5.4 L16.8 -6.2 Q16.8 -8.75 18.7 -10.65 20.55 -12.5 23.15 -12.5 24.95 -12.5 26.4 -11.6 L27.6 -10.65 Q29.5 -8.75 29.5 -6.2 29.5 -3.6 27.6 -1.75 25.75 0.15 23.15 0.15 20.55 0.15 18.7 -1.75 17.45 -2.95 17.05 -4.45 L16.85 -5.4 M26.4 -16.5 L25.95 -17.5 29.35 -18.75 29.35 -27.75 25.95 -29.0 26.4 -30.0 30.55 -28.5 30.55 -17.95 26.4 -16.5 M24.75 -30.1 L9.8 -30.1 9.8 -30.75 19.9 -30.75 24.75 -30.75 24.75 -30.1 M19.9 -33.6 L19.25 -34.25 Q20.75 -35.85 21.3 -37.15 21.95 -38.55 21.95 -40.1 21.95 -42.0 21.3 -43.35 20.75 -44.6 19.25 -45.9 L19.9 -46.5 Q21.45 -45.1 22.1 -43.75 22.85 -42.15 22.85 -40.1 22.85 -38.3 22.1 -36.7 21.4 -35.25 19.9 -33.6 M17.4 -51.05 L13.1 -60.4 8.85 -51.05 7.7 -51.55 13.1 -63.35 18.5 -51.55 17.4 -51.05 M15.05 -38.95 L12.5 -38.95 12.5 -41.5 15.05 -41.5 15.05 -38.95 M5.05 -45.25 Q6.9 -45.25 7.7 -44.4 8.45 -43.65 8.45 -42.6 8.45 -41.65 7.75 -40.95 L6.85 -40.35 7.95 -39.8 Q8.7 -39.0 8.7 -37.85 8.7 -36.6 7.85 -35.75 6.9 -34.8 5.05 -34.8 2.95 -34.8 1.95 -35.8 1.05 -36.75 0.85 -38.45 L2.4 -38.45 Q2.45 -37.25 3.0 -36.65 3.75 -35.95 5.05 -35.95 6.25 -35.95 6.85 -36.55 7.35 -37.1 7.35 -37.8 7.35 -38.75 6.85 -39.25 6.3 -39.8 4.25 -39.65 L4.25 -40.95 Q6.2 -41.0 6.7 -41.55 7.2 -42.0 7.2 -42.6 L6.7 -43.6 5.05 -44.05 Q3.9 -44.05 3.2 -43.35 2.8 -42.95 2.65 -42.05 L1.1 -42.05 Q1.25 -43.3 2.2 -44.25 3.2 -45.25 5.05 -45.25 M9.75 -30.1 L-5.2 -30.1 -5.2 -30.75 9.75 -30.75 9.75 -30.1 M17.9 -6.45 L17.9 -6.2 Q17.9 -3.95 19.4 -2.45 20.9 -0.9 23.15 -0.9 25.4 -0.9 26.9 -2.45 28.4 -3.95 28.4 -6.2 L28.4 -6.45 Q28.3 -8.5 26.9 -9.95 25.5 -11.35 23.45 -11.45 L23.15 -11.45 Q20.9 -11.45 19.4 -9.95 18.0 -8.5 17.9 -6.45 M26.9 -6.2 Q26.9 -4.65 25.8 -3.55 24.65 -2.45 23.15 -2.45 21.65 -2.45 20.5 -3.55 19.4 -4.65 19.4 -6.2 19.4 -7.7 20.5 -8.8 21.65 -9.95 23.15 -9.95 24.65 -9.95 25.8 -8.8 26.9 -7.7 26.9 -6.2 M21.2 -8.1 Q20.45 -7.35 20.45 -6.2 20.45 -5.0 21.2 -4.25 22.0 -3.5 23.15 -3.5 24.3 -3.5 25.1 -4.25 25.85 -5.0 25.85 -6.2 25.85 -7.35 25.1 -8.1 24.3 -8.9 23.15 -8.9 22.0 -8.9 21.2 -8.1 M-2.7 -38.95 L-5.25 -38.95 -5.25 -41.5 -2.7 -41.5 -2.7 -38.95 M-8.3 -28.15 L-8.3 -22.6 Q-8.3 -20.55 -9.55 -19.3 -10.8 -18.05 -12.6 -18.05 -14.35 -18.05 -15.65 -19.3 -16.85 -20.55 -16.85 -22.6 L-16.85 -28.15 -15.75 -28.15 -15.75 -22.6 Q-15.75 -21.05 -14.75 -20.1 -13.85 -19.2 -12.6 -19.2 -11.3 -19.2 -10.4 -20.1 -9.4 -21.05 -9.4 -22.6 L-9.4 -28.15 -8.3 -28.15 M-23.8 -8.1 Q-24.55 -7.35 -24.55 -6.2 -24.55 -5.0 -23.8 -4.25 -23.0 -3.5 -21.85 -3.5 -20.7 -3.5 -19.9 -4.25 -19.15 -5.0 -19.15 -6.2 -19.15 -7.35 -19.9 -8.1 -20.7 -8.9 -21.85 -8.9 -23.0 -8.9 -23.8 -8.1 M-21.85 -9.95 Q-20.35 -9.95 -19.2 -8.8 -18.1 -7.7 -18.1 -6.2 -18.1 -4.65 -19.2 -3.55 -20.35 -2.45 -21.85 -2.45 -23.35 -2.45 -24.5 -3.55 -25.6 -4.65 -25.6 -6.2 -25.6 -7.7 -24.5 -8.8 -23.35 -9.95 -21.85 -9.95 M-21.85 -11.45 Q-24.1 -11.45 -25.6 -9.95 -27.0 -8.5 -27.1 -6.45 L-27.1 -6.2 Q-27.1 -3.95 -25.6 -2.45 -24.1 -0.9 -21.85 -0.9 -19.6 -0.9 -18.1 -2.45 -16.6 -3.95 -16.6 -6.2 L-16.6 -6.45 Q-16.7 -8.5 -18.1 -9.95 -19.5 -11.35 -21.55 -11.45 L-21.85 -11.45" fill="#000000" fill-rule="evenodd" stroke="none"/>
  </g>
</svg>
