<svg xmlns:xlink="http://www.w3.org/1999/xlink" height="81.55px" width="51.6px" xmlns="http://www.w3.org/2000/svg">
  <g transform="matrix(1.0, 0.0, 0.0, 1.0, 25.95, 81.3)">
    <path d="M20.1 -64.45 Q21.65 -63.05 22.3 -61.7 23.05 -60.1 23.05 -58.05 23.05 -56.25 22.3 -54.65 21.6 -53.2 20.1 -51.55 L19.45 -52.2 Q20.95 -53.8 21.5 -55.1 22.15 -56.5 22.15 -58.05 22.15 -59.95 21.5 -61.3 20.95 -62.55 19.45 -63.85 L20.1 -64.45 M20.45 -47.45 Q22.0 -46.05 22.65 -44.7 23.4 -43.1 23.4 -41.05 23.4 -39.25 22.65 -37.65 21.95 -36.2 20.45 -34.55 L19.8 -35.2 Q21.3 -36.8 21.85 -38.1 22.5 -39.5 22.5 -41.05 22.5 -42.95 21.85 -44.3 21.3 -45.55 19.8 -46.85 L20.45 -47.45 M18.2 -31.65 L18.2 -16.75 17.0 -16.75 17.0 -31.65 18.2 -31.65 M22.05 -12.85 L22.7 -13.45 Q24.25 -12.05 24.9 -10.7 25.65 -9.1 25.65 -7.05 25.65 -5.25 24.9 -3.65 24.2 -2.2 22.7 -0.55 L22.05 -1.2 Q23.55 -2.8 24.1 -4.1 24.75 -5.5 24.75 -7.05 24.75 -8.95 24.1 -10.3 23.55 -11.55 22.05 -12.85 M20.85 -0.4 L20.85 0.25 5.9 0.25 5.9 -0.4 20.85 -0.4 M0.2 -0.55 L-0.45 -1.2 Q1.05 -2.8 1.6 -4.1 2.25 -5.5 2.25 -7.05 2.25 -8.95 1.6 -10.3 1.05 -11.55 -0.45 -12.85 L0.2 -13.45 Q1.75 -12.05 2.4 -10.7 3.15 -9.1 3.15 -7.05 3.15 -5.25 2.4 -3.65 1.7 -2.2 0.2 -0.55 M-1.65 -0.4 L-1.65 0.25 -16.6 0.25 -16.6 -0.35 -16.6 -0.4 -1.65 -0.4 M-16.65 -0.35 L-21.15 -0.35 -21.15 -1.05 -16.65 -1.05 -16.65 -0.35 M-22.4 -1.2 L-23.0 -0.55 Q-24.5 -2.2 -25.2 -3.65 -25.95 -5.25 -25.95 -7.05 -25.95 -9.1 -25.2 -10.7 -24.55 -12.05 -23.0 -13.45 L-22.4 -12.85 Q-23.85 -11.55 -24.45 -10.3 -25.1 -8.95 -25.1 -7.05 -25.1 -5.5 -24.45 -4.1 -23.85 -2.8 -22.4 -1.2 M-21.75 -16.75 L-21.75 -31.7 -20.55 -31.7 -20.55 -16.75 -21.75 -16.75 M-23.0 -34.55 Q-24.5 -36.2 -25.2 -37.65 -25.95 -39.25 -25.95 -41.05 -25.95 -43.1 -25.2 -44.7 -24.55 -46.05 -23.0 -47.45 L-22.4 -46.85 Q-23.85 -45.55 -24.45 -44.3 -25.1 -42.95 -25.1 -41.05 -25.1 -39.5 -24.45 -38.1 -23.85 -36.8 -22.4 -35.2 L-23.0 -34.55 M-23.0 -51.55 Q-24.5 -53.2 -25.2 -54.65 -25.95 -56.25 -25.95 -58.05 -25.95 -60.1 -25.2 -61.7 -24.55 -63.05 -23.0 -64.45 L-22.4 -63.85 Q-23.85 -62.55 -24.45 -61.3 -25.1 -59.95 -25.1 -58.05 -25.1 -56.5 -24.45 -55.1 -23.85 -53.8 -22.4 -52.2 L-23.0 -51.55 M-21.95 -69.5 L-16.55 -81.3 -11.15 -69.5 -12.25 -69.0 -16.55 -78.35 -20.8 -69.0 -21.95 -69.5 M-9.1 -68.4 L5.85 -68.4 5.85 -67.75 -9.1 -67.75 -9.1 -68.4 M7.65 -69.5 L13.05 -81.3 18.45 -69.5 17.35 -69.0 13.05 -78.35 8.8 -69.0 7.65 -69.5 M7.4 -62.6 Q8.15 -61.85 8.15 -60.8 8.15 -59.85 7.45 -59.15 L6.55 -58.55 7.65 -58.0 Q8.4 -57.2 8.4 -56.05 8.4 -54.8 7.55 -53.95 6.6 -53.0 4.75 -53.0 2.65 -53.0 1.65 -54.0 0.75 -54.95 0.55 -56.65 L2.1 -56.65 Q2.15 -55.45 2.7 -54.85 3.45 -54.15 4.75 -54.15 5.95 -54.15 6.55 -54.75 7.05 -55.3 7.05 -56.0 7.05 -56.95 6.55 -57.45 6.0 -58.0 3.95 -57.85 L3.95 -59.15 Q5.9 -59.2 6.4 -59.75 6.9 -60.2 6.9 -60.8 L6.4 -61.8 Q5.95 -62.25 4.75 -62.25 3.6 -62.25 2.9 -61.55 2.5 -61.15 2.35 -60.25 L0.8 -60.25 Q0.95 -61.5 1.9 -62.45 2.9 -63.45 4.75 -63.45 6.6 -63.45 7.4 -62.6 M14.75 -59.7 L14.75 -57.15 12.2 -57.15 12.2 -59.7 14.75 -59.7 M-3.0 -57.15 L-5.55 -57.15 -5.55 -59.7 -3.0 -59.7 -3.0 -57.15 M-1.0 -31.7 L-1.0 -16.75 -2.2 -16.75 -2.2 -31.7 -1.0 -31.7" fill="#000000" fill-rule="evenodd" stroke="none"/>
    <path d="M17.35 -69.0 L18.5 -69.35 20.1 -64.45 19.45 -63.85 Q20.95 -62.55 21.5 -61.3 22.15 -59.95 22.15 -58.05 22.15 -56.5 21.5 -55.1 20.95 -53.8 19.45 -52.2 L19.95 -51.45 18.7 -50.65 20.45 -47.45 19.8 -46.85 Q21.3 -45.55 21.85 -44.3 22.5 -42.95 22.5 -41.05 22.5 -39.5 21.85 -38.1 21.3 -36.8 19.8 -35.2 L20.45 -34.55 18.2 -31.65 17.0 -31.65 17.0 -16.75 18.2 -16.75 22.6 -13.55 22.05 -12.85 Q23.55 -11.55 24.1 -10.3 24.75 -8.95 24.75 -7.05 24.75 -5.5 24.1 -4.1 23.55 -2.8 22.05 -1.2 L20.85 -0.4 5.9 -0.4 5.9 0.25 0.2 0.25 0.2 -0.55 Q1.7 -2.2 2.4 -3.65 3.15 -5.25 3.15 -7.05 3.15 -9.1 2.4 -10.7 1.75 -12.05 0.2 -13.45 L-0.45 -12.85 Q1.05 -11.55 1.6 -10.3 2.25 -8.95 2.25 -7.05 2.25 -5.5 1.6 -4.1 1.05 -2.8 -0.45 -1.2 L-1.65 -0.4 -16.6 -0.4 -16.6 -0.35 -16.65 -0.35 -16.65 -1.05 -21.15 -1.05 -21.15 -0.35 -22.4 -1.2 Q-23.85 -2.8 -24.45 -4.1 -25.1 -5.5 -25.1 -7.05 -25.1 -8.95 -24.45 -10.3 -23.85 -11.55 -22.4 -12.85 L-23.0 -13.45 -21.75 -16.75 -20.55 -16.75 -20.55 -31.7 -21.75 -31.7 -23.0 -34.55 -22.4 -35.2 Q-23.85 -36.8 -24.45 -38.1 -25.1 -39.5 -25.1 -41.05 -25.1 -42.95 -24.45 -44.3 -23.85 -45.55 -22.4 -46.85 L-23.0 -47.45 -21.25 -49.55 -23.0 -51.55 -22.4 -52.2 Q-23.85 -53.8 -24.45 -55.1 -25.1 -56.5 -25.1 -58.05 -25.1 -59.95 -24.45 -61.3 -23.85 -62.55 -22.4 -63.85 L-23.0 -64.45 -21.95 -69.5 -20.8 -69.0 -16.55 -78.35 -12.25 -69.0 -11.15 -69.5 -9.1 -68.4 -9.1 -67.75 5.85 -67.75 5.85 -68.4 7.65 -69.5 8.8 -69.0 13.05 -78.35 17.35 -69.0 M-1.0 -31.7 L-2.2 -31.7 -2.2 -16.75 -1.0 -16.75 -1.0 -31.7 M-3.0 -57.15 L-3.0 -59.7 -5.55 -59.7 -5.55 -57.15 -3.0 -57.15 M14.75 -59.7 L12.2 -59.7 12.2 -57.15 14.75 -57.15 14.75 -59.7 M7.4 -62.6 Q6.6 -63.45 4.75 -63.45 2.9 -63.45 1.9 -62.45 0.95 -61.5 0.8 -60.25 L2.35 -60.25 Q2.5 -61.15 2.9 -61.55 3.6 -62.25 4.75 -62.25 5.95 -62.25 6.4 -61.8 L6.9 -60.8 Q6.9 -60.2 6.4 -59.75 5.9 -59.2 3.95 -59.15 L3.95 -57.85 Q6.0 -58.0 6.55 -57.45 7.05 -56.95 7.05 -56.0 7.05 -55.3 6.55 -54.75 5.95 -54.15 4.75 -54.15 3.45 -54.15 2.7 -54.85 2.15 -55.45 2.1 -56.65 L0.55 -56.65 Q0.75 -54.95 1.65 -54.0 2.65 -53.0 4.75 -53.0 6.6 -53.0 7.55 -53.95 8.4 -54.8 8.4 -56.05 8.4 -57.2 7.65 -58.0 L6.55 -58.55 7.45 -59.15 Q8.15 -59.85 8.15 -60.8 8.15 -61.85 7.4 -62.6" fill="#ffffff" fill-rule="evenodd" stroke="none"/>
  </g>
</svg>
