<?xml version="1.0" encoding="UTF-8" standalone="no"?>
<svg xmlns:ffdec="https://www.free-decompiler.com/flash" xmlns:xlink="http://www.w3.org/1999/xlink" ffdec:objectType="shape" height="103.8px" width="68.35px" xmlns="http://www.w3.org/2000/svg">
  <g transform="matrix(1.0, 0.0, 0.0, 1.0, 42.65, 103.05)">
    <path d="M-15.0 -77.1 L-13.65 -77.1 -13.7 -77.25 Q-14.4 -83.65 -14.7 -89.65 L-15.2 -100.05 -15.25 -101.3 Q-7.1 -103.7 1.85 -102.8 L3.4 -102.7 7.1 -102.6 14.0 -102.25 Q14.0 -98.2 14.25 -94.4 14.45 -90.45 15.2 -86.55 15.85 -83.0 15.75 -78.75 L11.4 -78.55 7.1 -78.4 11.4 -78.55 15.75 -78.75 15.55 -77.7 14.95 -76.6 14.5 -75.65 14.25 -74.55 14.3 -70.2 Q17.3 -71.2 17.95 -69.05 18.7 -66.65 16.65 -65.2 L15.8 -64.65 Q14.8 -64.15 14.5 -63.8 L14.45 -61.45 16.5 -61.1 Q18.65 -60.7 19.8 -58.65 21.35 -56.0 18.6 -55.5 L19.2 -55.15 Q20.0 -54.35 19.95 -53.2 L18.8 -53.2 16.55 -53.4 12.8 -53.95 Q10.5 -50.7 6.2 -50.55 L4.6 -50.55 Q5.55 -48.85 5.5 -47.0 L5.4 -46.55 6.1 -46.4 Q6.1 -47.05 7.3 -46.7 7.75 -46.5 7.85 -46.1 L8.0 -44.9 11.65 -42.6 Q13.05 -41.55 14.55 -40.7 17.95 -38.8 19.65 -35.75 20.15 -34.9 20.0 -33.7 19.6 -30.55 17.35 -29.8 L17.1 -29.2 Q20.25 -29.85 21.4 -27.1 19.9 -26.5 18.5 -27.35 17.2 -27.4 16.7 -26.8 16.15 -26.2 16.45 -24.95 17.1 -22.2 18.0 -19.4 18.95 -16.2 20.25 -12.95 L21.75 -9.3 24.15 -3.8 24.6 -2.7 Q25.25 -1.15 25.25 0.75 23.3 0.8 23.2 -1.3 23.15 -2.25 22.7 -3.15 L19.4 -9.45 Q17.4 -14.25 16.5 -19.0 L16.15 -20.55 15.15 -24.7 14.75 -26.85 14.0 -26.9 Q13.15 -28.45 13.25 -30.5 L13.25 -32.0 12.5 -32.45 Q11.35 -35.5 9.15 -37.35 L8.25 -38.2 8.3 -37.85 10.7 -29.5 12.55 -21.8 Q12.4 -20.7 12.9 -19.75 L14.6 -16.5 15.1 -15.4 Q15.6 -14.0 14.25 -13.1 15.8 -9.55 16.1 -5.7 L16.05 -1.6 14.6 -1.75 14.5 -1.1 Q15.1 -0.65 14.25 -0.05 9.85 0.45 5.75 -0.85 L6.3 -1.4 7.35 -1.9 10.3 -2.4 Q9.45 -4.25 8.95 -6.6 L8.7 -7.5 Q8.05 -6.4 7.7 -5.15 L6.9 -4.7 Q7.8 -4.05 7.05 -2.9 5.2 -2.3 3.0 -2.35 1.1 -2.35 0.0 -3.55 2.05 -3.75 4.15 -5.05 L3.35 -8.75 Q2.65 -11.05 1.0 -12.95 L-0.1 -14.5 -0.2 -14.65 Q-1.0 -16.05 -1.25 -17.6 -2.25 -19.55 -2.05 -22.0 L-1.95 -22.9 -2.1 -26.6 Q-2.2 -30.9 -1.45 -35.1 L-1.05 -37.3 Q-1.45 -36.4 -2.6 -35.85 -5.15 -34.65 -8.0 -34.35 -11.4 -34.05 -14.2 -35.4 -18.35 -37.4 -19.2 -41.85 L-18.8 -42.2 -19.5 -43.1 Q-22.2 -43.85 -23.1 -46.3 -23.45 -45.5 -24.8 -45.15 -26.5 -44.8 -27.45 -43.9 -28.9 -42.55 -31.45 -42.65 -33.8 -42.7 -34.95 -44.5 L-35.4 -45.25 -36.15 -46.2 Q-36.7 -46.8 -36.55 -47.4 -36.3 -48.5 -35.25 -48.9 L-35.15 -48.95 -32.7 -49.0 -30.95 -46.45 Q-27.7 -46.9 -24.35 -47.95 L-23.5 -48.1 -23.55 -48.45 Q-21.7 -49.6 -19.1 -49.9 L-18.45 -49.45 -15.85 -50.4 Q-15.25 -49.25 -15.9 -48.9 L-17.15 -48.15 -15.4 -45.65 -14.95 -45.0 -14.0 -45.65 Q-13.15 -43.0 -10.3 -41.4 -5.9 -40.6 -1.75 -43.2 -1.9 -45.55 -0.9 -47.85 1.05 -48.55 1.85 -46.75 L2.15 -45.85 3.35 -47.25 Q3.6 -49.0 3.0 -50.55 L-2.55 -51.05 -3.65 -51.3 Q-6.1 -51.8 -8.1 -53.25 L-8.15 -53.2 Q-10.4 -51.85 -10.6 -53.45 -10.85 -55.6 -12.5 -54.3 -14.85 -52.55 -17.2 -52.75 -16.85 -55.55 -15.15 -57.6 -16.55 -57.3 -16.55 -57.8 L-16.2 -58.4 Q-14.6 -60.6 -12.0 -61.45 L-11.9 -62.2 Q-11.25 -65.65 -11.5 -69.15 L-11.7 -71.1 -13.35 -73.85 -15.0 -77.1 M6.35 -78.35 L0.5 -77.9 -5.05 -77.35 -9.5 -77.15 -8.65 -77.7 -9.5 -77.15 -5.05 -77.35 0.5 -77.9 6.35 -78.35 6.4 -77.7 6.6 -77.6 7.1 -78.4 6.35 -78.35 M0.5 -23.3 Q0.15 -24.5 0.1 -25.65 0.05 -27.05 0.3 -28.4 L1.05 -32.8 1.35 -35.1 1.3 -36.0 0.55 -39.3 Q0.05 -40.65 -0.4 -40.55 L-0.15 -41.4 1.25 -42.35 -0.15 -41.4 -0.4 -40.55 Q0.05 -40.65 0.55 -39.3 L1.3 -36.0 Q2.85 -37.7 4.15 -40.2 2.5 -41.35 1.95 -42.75 L1.85 -43.1 Q1.05 -44.0 1.65 -45.1 1.05 -44.0 1.85 -43.1 L1.95 -42.75 Q2.5 -41.35 4.15 -40.2 2.85 -37.7 1.3 -36.0 L1.35 -35.1 1.05 -32.8 0.3 -28.4 Q0.05 -27.05 0.1 -25.65 0.15 -24.5 0.5 -23.3 0.85 -21.85 0.75 -20.4 L1.4 -21.7 0.5 -23.3 M3.1 -33.7 Q2.05 -33.3 2.05 -32.65 2.0 -32.05 3.05 -31.15 5.45 -31.3 3.1 -33.7 5.45 -31.3 3.05 -31.15 2.0 -32.05 2.05 -32.65 2.05 -33.3 3.1 -33.7 M7.3 -41.65 Q8.05 -43.2 8.0 -44.9 8.05 -43.2 7.3 -41.65 L8.25 -38.2 7.3 -41.65 6.55 -40.5 Q6.05 -38.85 4.4 -40.0 L4.15 -40.2 4.4 -40.0 Q6.05 -38.85 6.55 -40.5 L7.3 -41.65 M1.85 -43.1 Q3.9 -43.15 4.05 -45.3 2.95 -46.75 1.65 -45.1 L2.15 -45.85 1.65 -45.1 Q2.95 -46.75 4.05 -45.3 4.5 -46.2 6.1 -46.4 4.5 -46.2 4.05 -45.3 3.9 -43.15 1.85 -43.1 M5.4 -46.55 L5.35 -46.55 3.35 -47.25 5.35 -46.55 5.4 -46.55 M12.8 -53.95 L7.1 -54.35 Q3.25 -54.45 -0.45 -54.2 L-8.1 -53.25 -0.45 -54.2 Q3.25 -54.45 7.1 -54.35 L12.8 -53.95 M-12.0 -61.45 L-9.0 -61.95 -8.45 -61.75 -3.65 -61.3 0.9 -62.0 Q1.65 -62.15 1.85 -61.75 L8.95 -62.0 14.45 -61.45 8.95 -62.0 1.85 -61.75 Q1.65 -62.15 0.9 -62.0 L-3.65 -61.3 -8.45 -61.75 -9.0 -61.95 -12.0 -61.45 M4.6 -50.55 L3.0 -50.55 4.6 -50.55 M7.8 -69.95 Q8.7 -70.35 7.2 -70.4 6.45 -69.5 7.0 -67.75 8.0 -67.0 9.15 -67.0 10.25 -67.05 11.5 -67.9 L12.1 -68.7 Q12.7 -71.05 10.9 -72.55 9.75 -73.45 8.25 -73.35 4.35 -73.15 4.0 -69.5 3.9 -68.85 4.1 -68.15 5.3 -64.55 8.95 -65.6 5.3 -64.55 4.1 -68.15 3.9 -68.85 4.0 -69.5 4.35 -73.15 8.25 -73.35 9.75 -73.45 10.9 -72.55 12.7 -71.05 12.1 -68.7 L11.5 -67.9 Q10.25 -67.05 9.15 -67.0 8.0 -67.0 7.0 -67.75 6.45 -69.5 7.2 -70.4 8.7 -70.35 7.8 -69.95 M14.3 -70.2 L14.4 -68.8 14.5 -63.8 14.4 -68.8 14.3 -70.2 M8.55 -82.25 Q8.9 -84.7 8.55 -87.75 7.8 -93.85 8.05 -100.05 7.8 -93.85 8.55 -87.75 8.9 -84.7 8.55 -82.25 M14.5 -75.65 L14.05 -76.0 11.45 -77.65 14.05 -76.0 14.5 -75.65 M4.25 -81.15 L4.15 -82.15 Q3.8 -85.2 3.75 -88.4 L3.35 -101.0 3.75 -88.4 Q3.8 -85.2 4.15 -82.15 L4.25 -81.15 M11.5 -74.8 Q12.0 -75.1 10.5 -75.2 8.6 -76.6 6.6 -77.6 8.6 -76.6 10.5 -75.2 12.0 -75.1 11.5 -74.8 M1.4 -26.6 L1.2 -25.75 Q1.2 -24.6 2.7 -24.5 3.15 -26.4 1.4 -26.6 3.15 -26.4 2.7 -24.5 1.2 -24.6 1.2 -25.75 L1.4 -26.6 M0.65 -35.35 L1.3 -36.0 0.65 -35.35 M14.25 -13.1 Q12.5 -16.3 8.7 -18.0 4.85 -19.75 1.4 -21.7 4.85 -19.75 8.7 -18.0 12.5 -16.3 14.25 -13.1 M13.25 -32.0 L17.35 -29.8 13.25 -32.0 M17.1 -29.2 L16.9 -28.6 16.2 -27.3 Q15.65 -26.9 14.75 -26.85 15.65 -26.9 16.2 -27.3 L16.9 -28.6 17.1 -29.2 M9.6 -9.35 Q8.6 -12.9 5.5 -15.8 8.6 -12.9 9.6 -9.35 M10.55 -1.8 L10.3 -2.4 11.5 -2.35 12.85 -2.1 14.6 -1.75 12.85 -2.1 11.5 -2.35 10.3 -2.4 10.55 -1.8 M6.9 -4.7 Q5.7 -4.4 4.15 -5.05 5.7 -4.4 6.9 -4.7 M2.5 -17.2 Q2.4 -16.4 2.9 -15.75 L3.2 -14.9 Q5.05 -11.8 7.45 -9.45 L8.2 -8.45 8.7 -7.5 8.2 -8.45 7.45 -9.45 Q5.05 -11.8 3.2 -14.9 L2.9 -15.75 Q2.4 -16.4 2.5 -17.2 M-5.0 -76.6 Q-7.25 -75.25 -9.6 -74.8 -7.25 -75.25 -5.0 -76.6 M-13.35 -73.85 Q-11.65 -75.85 -9.5 -77.15 L-11.45 -77.15 -13.65 -77.1 -11.45 -77.15 -9.5 -77.15 Q-11.65 -75.85 -13.35 -73.85 M-0.2 -14.65 L-0.4 -15.2 Q-0.4 -17.8 0.75 -20.4 -0.4 -17.8 -0.4 -15.2 L-0.2 -14.65 M-23.1 -46.3 L-23.5 -48.1 -23.1 -46.3 M-18.8 -42.2 L-14.95 -45.0 -18.8 -42.2 M-18.45 -49.45 L-17.15 -48.15 -17.9 -47.7 -17.15 -48.15 -18.45 -49.45 M-0.15 -41.4 L-1.4 -41.1 -1.75 -43.2 -1.4 -41.1 -0.15 -41.4 M-1.05 -37.3 L-0.85 -38.3 -0.65 -39.5 -0.4 -40.55 -0.65 -39.5 -0.85 -38.3 -1.05 -37.3 M-9.0 -61.95 Q-9.45 -62.35 -8.6 -62.95 L-5.0 -65.6 -4.4 -66.05 -5.0 -65.6 -8.6 -62.95 Q-9.45 -62.35 -9.0 -61.95 M-4.85 -70.2 Q-5.05 -70.75 -5.5 -70.85 -7.9 -71.45 -7.95 -69.3 L-7.85 -68.45 Q-7.0 -66.75 -5.2 -66.9 L-4.65 -67.0 -3.9 -67.2 Q-3.1 -67.5 -2.7 -68.2 -1.25 -70.8 -3.75 -72.4 -5.75 -73.75 -7.95 -72.8 -10.2 -71.9 -9.7 -69.3 -9.55 -68.15 -9.05 -67.4 -7.95 -65.8 -5.3 -66.05 -7.95 -65.8 -9.05 -67.4 -9.55 -68.15 -9.7 -69.3 -10.2 -71.9 -7.95 -72.8 -5.75 -73.75 -3.75 -72.4 -1.25 -70.8 -2.7 -68.2 -3.1 -67.5 -3.9 -67.2 L-4.65 -67.0 -5.2 -66.9 Q-7.0 -66.75 -7.85 -68.45 L-7.95 -69.3 Q-7.9 -71.45 -5.5 -70.85 -5.05 -70.75 -4.85 -70.2" fill="#ffffff" fill-rule="evenodd" stroke="none"/>
    <path d="M-15.0 -77.1 L-13.65 -77.1 -13.7 -77.25 Q-14.4 -83.65 -14.7 -89.65 L-15.2 -100.05 -15.25 -101.3 Q-7.1 -103.7 1.85 -102.8 L3.4 -102.7 7.1 -102.6 14.0 -102.25 Q14.0 -98.2 14.25 -94.4 14.45 -90.45 15.2 -86.55 15.85 -83.0 15.75 -78.75 L19.75 -78.85 25.7 -79.25 M-8.65 -77.7 L-9.5 -77.15 -5.05 -77.35 0.5 -77.9 6.35 -78.35 7.1 -78.4 11.4 -78.55 15.75 -78.75 M15.55 -77.7 L14.95 -76.6 14.5 -75.65 14.25 -74.55 14.3 -70.2 Q17.3 -71.2 17.95 -69.05 18.7 -66.65 16.65 -65.2 L15.8 -64.65 Q14.8 -64.15 14.5 -63.8 L14.45 -61.45 16.5 -61.1 Q18.65 -60.7 19.8 -58.65 21.35 -56.0 18.6 -55.5 L19.2 -55.15 Q20.0 -54.35 19.95 -53.2 L18.8 -53.2 16.55 -53.4 12.8 -53.95 Q10.5 -50.7 6.2 -50.55 L4.6 -50.55 Q5.55 -48.85 5.5 -47.0 M5.4 -46.55 L6.1 -46.4 Q6.1 -47.05 7.3 -46.7 7.75 -46.5 7.85 -46.1 L8.0 -44.9 11.65 -42.6 Q13.05 -41.55 14.55 -40.7 17.95 -38.8 19.65 -35.75 20.15 -34.9 20.0 -33.7 19.6 -30.55 17.35 -29.8 L17.1 -29.2 Q20.25 -29.85 21.4 -27.1 19.9 -26.5 18.5 -27.35 17.2 -27.4 16.7 -26.8 16.15 -26.2 16.45 -24.95 17.1 -22.2 18.0 -19.4 18.95 -16.2 20.25 -12.95 L21.75 -9.3 24.15 -3.8 24.6 -2.7 Q25.25 -1.15 25.25 0.75 23.3 0.8 23.2 -1.3 23.15 -2.25 22.7 -3.15 L19.4 -9.45 Q17.4 -14.25 16.5 -19.0 L16.15 -20.55 15.15 -24.7 14.75 -26.85 14.0 -26.9 Q13.15 -28.45 13.25 -30.5 L13.25 -32.0 12.5 -32.45 Q11.35 -35.5 9.15 -37.35 L8.25 -38.2 8.3 -37.85 10.7 -29.5 12.55 -21.8 Q12.4 -20.7 12.9 -19.75 L14.6 -16.5 15.1 -15.4 Q15.6 -14.0 14.25 -13.1 15.8 -9.55 16.1 -5.7 L16.05 -1.6 14.6 -1.75 12.85 -2.1 11.5 -2.35 10.3 -2.4 10.55 -1.8 M14.5 -1.1 Q15.1 -0.65 14.25 -0.05 9.85 0.45 5.75 -0.85 L6.3 -1.4 7.35 -1.9 10.3 -2.4 Q9.45 -4.25 8.95 -6.6 L8.7 -7.5 Q8.05 -6.4 7.7 -5.15 L6.9 -4.7 Q7.8 -4.05 7.05 -2.9 5.2 -2.3 3.0 -2.35 1.1 -2.35 0.0 -3.55 2.05 -3.75 4.15 -5.05 L3.35 -8.75 Q2.65 -11.05 1.0 -12.95 L-0.1 -14.5 -0.2 -14.65 Q-1.0 -16.05 -1.25 -17.6 -2.25 -19.55 -2.05 -22.0 L-1.95 -22.9 -2.1 -26.6 Q-2.2 -30.9 -1.45 -35.1 L-1.05 -37.3 Q-1.45 -36.4 -2.6 -35.85 -5.15 -34.65 -8.0 -34.35 -11.4 -34.05 -14.2 -35.4 -18.35 -37.4 -19.2 -41.85 L-18.8 -42.2 -14.95 -45.0 -14.0 -45.65 Q-13.15 -43.0 -10.3 -41.4 -5.9 -40.6 -1.75 -43.2 -1.9 -45.55 -0.9 -47.85 1.05 -48.55 1.85 -46.75 L2.15 -45.85 3.35 -47.25 Q3.6 -49.0 3.0 -50.55 L-2.55 -51.05 -3.65 -51.3 Q-6.1 -51.8 -8.1 -53.25 L-8.15 -53.2 Q-10.4 -51.85 -10.6 -53.45 -10.85 -55.6 -12.5 -54.3 -14.85 -52.55 -17.2 -52.75 -16.85 -55.55 -15.15 -57.6 -16.55 -57.3 -16.55 -57.8 L-16.2 -58.4 Q-14.6 -60.6 -12.0 -61.45 L-11.9 -62.2 Q-11.25 -65.65 -11.5 -69.15 L-11.7 -71.1 -13.35 -73.85 -15.0 -77.1 -24.05 -77.1 M-19.5 -43.1 Q-22.2 -43.85 -23.1 -46.3 -23.45 -45.5 -24.8 -45.15 -26.5 -44.8 -27.45 -43.9 -28.9 -42.55 -31.45 -42.65 -33.8 -42.7 -34.95 -44.5 L-35.4 -45.25 -36.15 -46.2 Q-36.7 -46.8 -36.55 -47.4 -36.3 -48.5 -35.25 -48.9 L-35.15 -48.95 -32.7 -49.0 -30.95 -46.45 Q-27.7 -46.9 -24.35 -47.95 M-23.5 -48.1 L-23.55 -48.45 Q-21.7 -49.6 -19.1 -49.9 L-18.45 -49.45 -15.85 -50.4 Q-15.25 -49.25 -15.9 -48.9 L-17.15 -48.15 -15.4 -45.65 M6.4 -77.7 L6.6 -77.6 Q8.6 -76.6 10.5 -75.2 12.0 -75.1 11.5 -74.8 M3.35 -101.0 L3.75 -88.4 Q3.8 -85.2 4.15 -82.15 L4.25 -81.15 M11.45 -77.65 L14.05 -76.0 14.5 -75.65 M8.05 -100.05 Q7.8 -93.85 8.55 -87.75 8.9 -84.7 8.55 -82.25 M14.5 -63.8 L14.4 -68.8 14.3 -70.2 M8.95 -65.6 Q5.3 -64.55 4.1 -68.15 3.9 -68.85 4.0 -69.5 4.35 -73.15 8.25 -73.35 9.75 -73.45 10.9 -72.55 12.7 -71.05 12.1 -68.7 L11.5 -67.9 Q10.25 -67.05 9.15 -67.0 8.0 -67.0 7.0 -67.75 6.45 -69.5 7.2 -70.4 8.7 -70.35 7.8 -69.95 M3.0 -50.55 L4.6 -50.55 M14.45 -61.45 L8.95 -62.0 1.85 -61.75 Q1.65 -62.15 0.9 -62.0 L-3.65 -61.3 -8.45 -61.75 -9.0 -61.95 -12.0 -61.45 M-8.1 -53.25 L-0.45 -54.2 Q3.25 -54.45 7.1 -54.35 L12.8 -53.95 M3.35 -47.25 L5.35 -46.55 5.4 -46.55 M2.15 -45.85 L1.65 -45.1 Q2.95 -46.75 4.05 -45.3 4.5 -46.2 6.1 -46.4 M1.25 -42.35 L-0.15 -41.4 -0.4 -40.55 Q0.05 -40.65 0.55 -39.3 L1.3 -36.0 Q2.85 -37.7 4.15 -40.2 2.5 -41.35 1.95 -42.75 L1.85 -43.1 Q1.05 -44.0 1.65 -45.1 M8.25 -38.2 L7.3 -41.65 6.55 -40.5 Q6.05 -38.85 4.4 -40.0 L4.15 -40.2 M4.05 -45.3 Q3.9 -43.15 1.85 -43.1 M8.0 -44.9 Q8.05 -43.2 7.3 -41.65 M3.1 -33.7 Q5.45 -31.3 3.05 -31.15 2.0 -32.05 2.05 -32.65 2.05 -33.3 3.1 -33.7 M1.3 -36.0 L1.35 -35.1 1.05 -32.8 0.3 -28.4 Q0.05 -27.05 0.1 -25.65 0.15 -24.5 0.5 -23.3 0.85 -21.85 0.75 -20.4 L1.4 -21.7 Q4.85 -19.75 8.7 -18.0 12.5 -16.3 14.25 -13.1 M1.3 -36.0 L0.65 -35.35 M1.4 -26.6 Q3.15 -26.4 2.7 -24.5 1.2 -24.6 1.2 -25.75 L1.4 -26.6 M14.75 -26.85 L14.0 -26.9 M14.75 -26.85 Q15.65 -26.9 16.2 -27.3 L16.9 -28.6 17.1 -29.2 M17.35 -29.8 L13.25 -32.0 M8.7 -7.5 L8.2 -8.45 7.45 -9.45 Q5.05 -11.8 3.2 -14.9 L2.9 -15.75 Q2.4 -16.4 2.5 -17.2 M4.15 -5.05 Q5.7 -4.4 6.9 -4.7 M5.5 -15.8 Q8.6 -12.9 9.6 -9.35 M-15.0 -77.1 L-15.25 -77.7 M-13.65 -77.1 L-11.45 -77.15 -9.5 -77.15 Q-11.65 -75.85 -13.35 -73.85 M-9.6 -74.8 Q-7.25 -75.25 -5.0 -76.6 M-35.55 -50.45 Q-37.85 -50.5 -37.9 -52.55 -37.95 -53.2 -37.5 -53.7 -35.8 -56.05 -38.15 -57.75 -39.25 -58.55 -40.65 -58.8 -42.95 -59.3 -42.6 -61.95 L-42.45 -64.9 Q-42.25 -68.95 -38.35 -69.65 -36.95 -69.9 -36.4 -68.4 -35.65 -65.9 -36.8 -64.4 -37.1 -64.1 -37.85 -64.15 M-5.3 -66.05 Q-7.95 -65.8 -9.05 -67.4 -9.55 -68.15 -9.7 -69.3 -10.2 -71.9 -7.95 -72.8 -5.75 -73.75 -3.75 -72.4 -1.25 -70.8 -2.7 -68.2 -3.1 -67.5 -3.9 -67.2 L-4.65 -67.0 -5.2 -66.9 Q-7.0 -66.75 -7.85 -68.45 L-7.95 -69.3 Q-7.9 -71.45 -5.5 -70.85 -5.05 -70.75 -4.85 -70.2 M-4.4 -66.05 L-5.0 -65.6 -8.6 -62.95 Q-9.45 -62.35 -9.0 -61.95 M-0.4 -40.55 L-0.65 -39.5 -0.85 -38.3 -1.05 -37.3 M-1.75 -43.2 L-1.4 -41.1 -0.15 -41.4 M-17.15 -48.15 L-17.9 -47.7 M-17.15 -48.15 L-18.45 -49.45 M-23.5 -48.1 L-23.1 -46.3 M0.75 -20.4 Q-0.4 -17.8 -0.4 -15.2 L-0.2 -14.65" fill="none" stroke="#000000" stroke-linecap="round" stroke-linejoin="round" stroke-width="0.05"/>
  </g>
</svg>
