<?xml version="1.0" encoding="UTF-8" standalone="no"?>
<svg xmlns:xlink="http://www.w3.org/1999/xlink" height="56.9px" width="45.95px" xmlns="http://www.w3.org/2000/svg">
  <g transform="matrix(1.0, 0.0, 0.0, 1.0, 27.7, 26.1)">
    <path d="M6.25 21.5 Q11.2 24.35 13.55 20.8 12.3 20.05 12.0 17.1 15.5 17.15 13.9 20.2 L13.55 20.8 Q14.7 21.45 16.7 20.15 17.45 19.65 17.75 18.75" fill="none" stroke="#8f7c3f" stroke-linecap="round" stroke-linejoin="round" stroke-width="1.0"/>
    <path d="M-1.75 6.8 L-0.45 7.85 Q2.1 10.5 4.2 13.6 L8.2 19.65 Q9.7 21.95 9.75 24.5 9.7 28.05 4.8 28.3 L-2.85 29.1 -10.5 30.2 Q-15.9 30.8 -15.5 26.65 -15.2 23.0 -13.9 19.55 -12.65 16.25 -10.6 13.25 L-6.75 7.85 -6.4 7.3 -5.8 6.8 -1.75 6.8" fill="#e2d5c0" fill-rule="evenodd" stroke="none"/>
    <path d="M-1.75 6.8 L-0.45 7.85 Q2.1 10.5 4.2 13.6 L8.2 19.65 Q9.7 21.95 9.75 24.5 9.7 28.05 4.8 28.3 L-2.85 29.1 -10.5 30.2 Q-15.9 30.8 -15.5 26.65 -15.2 23.0 -13.9 19.55 -12.65 16.25 -10.6 13.25 L-6.75 7.85 -6.4 7.3 -5.8 6.8" fill="none" stroke="#8f7c3f" stroke-linecap="round" stroke-linejoin="round" stroke-width="1.0"/>
    <path d="M-3.35 12.9 Q-6.55 10.55 -3.2 11.1 -2.9 12.45 -3.35 12.9" fill="#d0bc9b" fill-rule="evenodd" stroke="none"/>
    <path d="M-3.35 12.9 Q-6.55 10.55 -3.2 11.1 -2.9 12.45 -3.35 12.9 Z" fill="none" stroke="#8f7c3f" stroke-linecap="round" stroke-linejoin="round" stroke-width="1.0"/>
    <path d="M-14.15 17.75 L-8.95 17.15 -5.7 16.95 Q-6.4 20.1 -6.65 20.4 L-7.25 21.9 Q-7.8 22.65 -10.0 22.8 -11.75 22.85 -13.2 20.65 -15.2 17.9 -14.15 17.75" fill="#ffffff" fill-rule="evenodd" stroke="none"/>
    <path d="M-14.15 17.75 L-8.95 17.15 -5.7 16.95 Q-6.4 20.1 -6.65 20.4 L-7.25 21.9 Q-7.8 22.65 -10.0 22.8 -11.75 22.85 -13.2 20.65 -15.2 17.9 -14.15 17.75 Z" fill="none" stroke="#8f7c3f" stroke-linecap="round" stroke-linejoin="round" stroke-width="1.0"/>
    <path d="M0.45 20.15 Q-1.35 17.3 -0.35 17.2 L4.9 16.95 Q7.35 16.55 8.15 16.9 L7.0 20.3 6.3 21.75 Q5.75 22.45 3.5 22.5 1.75 22.45 0.45 20.15" fill="#ffffff" fill-rule="evenodd" stroke="none"/>
    <path d="M0.45 20.15 Q-1.35 17.3 -0.35 17.2 L4.9 16.95 Q7.35 16.55 8.15 16.9 L7.0 20.3 6.3 21.75 Q5.75 22.45 3.5 22.5 1.75 22.45 0.45 20.15 Z" fill="none" stroke="#8f7c3f" stroke-linecap="round" stroke-linejoin="round" stroke-width="1.0"/>
    <path d="M-17.35 11.7 L-16.35 11.55 Q-12.2 10.75 -8.0 9.3 -12.55 20.5 -20.1 12.1 L-17.35 11.7" fill="#ffffff" fill-rule="evenodd" stroke="none"/>
    <path d="M-17.35 11.7 L-20.1 12.1 Q-12.55 20.5 -8.0 9.3 -12.2 10.75 -16.35 11.55 L-17.35 11.7 Z" fill="none" stroke="#8f7c3f" stroke-linecap="round" stroke-linejoin="round" stroke-width="1.0"/>
    <path d="M10.8 11.2 L9.8 11.05 Q5.65 10.25 1.45 8.8 6.0 20.0 13.55 11.6 L10.8 11.2" fill="#ffffff" fill-rule="evenodd" stroke="none"/>
    <path d="M10.8 11.2 L13.55 11.6 Q6.0 20.0 1.45 8.8 5.65 10.25 9.8 11.05 L10.8 11.2 Z" fill="none" stroke="#8f7c3f" stroke-linecap="round" stroke-linejoin="round" stroke-width="1.0"/>
    <path d="M-10.3 -25.15 Q4.8 -27.65 13.4 -16.55 22.9 -4.3 11.0 4.7 4.2 9.85 -9.65 8.85 -24.95 7.35 -26.05 -7.7 L-26.05 -8.65 Q-26.5 -21.3 -12.95 -24.6 L-10.3 -25.15" fill="#ffffff" fill-rule="evenodd" stroke="none"/>
    <path d="M-10.3 -25.15 Q4.8 -27.65 13.4 -16.55 22.9 -4.3 11.0 4.7 4.2 9.85 -9.65 8.85 -24.95 7.35 -26.05 -7.7 L-26.05 -8.65 Q-26.5 -21.3 -12.95 -24.6 L-10.3 -25.15 Z" fill="none" stroke="#8f7c3f" stroke-linecap="round" stroke-linejoin="round" stroke-width="1.0"/>
    <path d="M0.45 -13.65 Q1.6 -13.75 1.85 -12.9 2.15 -11.75 1.4 -11.35 1.0 -11.1 0.6 -11.5 0.15 -12.05 0.15 -12.6 L0.25 -13.15 0.45 -13.65" fill="#8f7c3f" fill-rule="evenodd" stroke="none"/>
    <path d="M0.6 -11.5 Q0.15 -12.05 0.15 -12.6 L0.25 -13.15 0.45 -13.65 M-11.85 -1.75 Q-9.1 2.2 -5.8 -1.3 -2.5 2.2 1.2 -0.55 2.3 -1.35 2.75 -3.0 M6.0 -6.85 Q6.7 -6.9 7.3 -7.45 L8.65 -8.4 M8.75 -5.8 Q9.4 -6.2 10.0 -6.4 L11.05 -6.9 M-11.35 -13.15 Q-10.5 -12.8 -10.85 -11.95 -10.9 -11.25 -12.35 -11.05 -12.95 -12.2 -12.35 -13.35 L-11.35 -13.15 Q-12.6 -11.8 -12.15 -11.45 L-12.35 -11.05 M-10.85 -11.95 L-11.2 -11.45 Q-11.9 -11.3 -12.15 -11.45 -11.5 -12.65 -11.2 -11.45 M-16.6 -6.8 L-17.75 -6.4 Q-17.7 -5.5 -18.35 -5.6 L-17.75 -6.4 M-21.15 -6.05 Q-20.35 -7.55 -18.9 -7.7" fill="none" stroke="#8f7c3f" stroke-linecap="round" stroke-linejoin="round" stroke-width="1.0"/>
    <path d="M0.45 -13.65 Q1.6 -13.75 1.85 -12.9 2.15 -11.75 1.4 -11.35 1.0 -11.1 0.6 -11.5 M-0.15 -9.2 L2.3 -8.45 Q2.15 -4.4 -1.75 -4.0 L-3.7 -3.75 Q-7.05 -3.55 -10.05 -4.65 -13.1 -5.7 -10.85 -7.5 -9.1 -8.95 -6.8 -9.35 L-3.8 -9.6 -0.15 -9.2 M-3.5 -7.5 L-3.5 -6.25 M-6.0 -7.5 L-5.9 -6.25" fill="none" stroke="#8f7c3f" stroke-linecap="round" stroke-linejoin="round" stroke-width="1.0"/>
    <path d="M-14.45 -24.6 Q-15.3 -21.85 -16.85 -18.65 -18.4 -15.5 -20.0 -14.1 -21.25 -15.0 -23.7 -17.45 L-27.2 -21.15 -20.5 -23.35 -14.65 -24.7 -14.45 -24.65 -14.45 -24.6" fill="#ffffff" fill-rule="evenodd" stroke="none"/>
    <path d="M-14.45 -24.6 Q-15.3 -21.85 -16.85 -18.65 -18.4 -15.5 -20.0 -14.1 -21.25 -15.0 -23.7 -17.45 L-27.2 -21.15 -20.5 -23.35 -14.65 -24.7" fill="none" stroke="#8f7c3f" stroke-linecap="round" stroke-linejoin="round" stroke-width="1.0"/>
    <path d="M2.35 -24.6 Q3.15 -21.65 4.75 -18.3 L6.15 -15.1 Q8.7 -16.4 11.2 -18.4 L14.8 -20.95 8.2 -23.2 Q5.0 -24.2 2.35 -24.6" fill="#fefefe" fill-rule="evenodd" stroke="none"/>
    <path d="M2.35 -24.6 Q3.15 -21.65 4.75 -18.3 L6.15 -15.1 Q8.7 -16.4 11.2 -18.4 L14.8 -20.95 8.2 -23.2 Q5.0 -24.2 2.35 -24.6 Z" fill="none" stroke="#8f7c3f" stroke-linecap="round" stroke-linejoin="round" stroke-width="1.0"/>
  </g>
</svg>
