<?xml version="1.0" encoding="UTF-8" standalone="no"?>
<svg xmlns:xlink="http://www.w3.org/1999/xlink" height="39.8px" width="32.05px" xmlns="http://www.w3.org/2000/svg">
  <g transform="matrix(1.0, 0.0, 0.0, 1.0, 15.85, 39.7)">
    <path d="M7.35 -6.5 Q10.75 -4.55 12.4 -7.0 11.55 -7.5 11.35 -9.55 13.75 -9.55 12.65 -7.4 L12.4 -7.0 Q13.2 -6.5 14.6 -7.4 15.1 -7.75 15.3 -8.4" fill="none" stroke="#8f7c3f" stroke-linecap="round" stroke-linejoin="round" stroke-width="1.0"/>
    <path d="M2.25 -16.7 L3.15 -15.95 6.35 -11.95 9.15 -7.75 Q10.2 -6.2 10.2 -3.5 10.2 -0.75 7.15 -0.6 4.15 -0.45 1.45 -0.65 L-3.85 -0.45 Q-7.6 -0.05 -7.3 -2.9 -7.1 -5.45 -6.2 -7.85 -5.3 -10.15 -3.9 -12.2 L-1.25 -15.95 -1.0 -16.35 Q-0.8 -16.55 -0.55 -16.7 L2.25 -16.7" fill="#e2d5c0" fill-rule="evenodd" stroke="none"/>
    <path d="M2.25 -16.7 L3.15 -15.95 6.35 -11.95 9.15 -7.75 Q10.2 -6.2 10.2 -3.5 10.2 -0.75 7.15 -0.6 4.15 -0.45 1.45 -0.65 L-3.85 -0.45 Q-7.6 -0.05 -7.3 -2.9 -7.1 -5.45 -6.2 -7.85 -5.3 -10.15 -3.9 -12.2 L-1.25 -15.95 -1.0 -16.35 Q-0.8 -16.55 -0.55 -16.7" fill="none" stroke="#8f7c3f" stroke-linecap="round" stroke-linejoin="round" stroke-width="1.0"/>
    <path d="M0.75 -12.65 L0.65 -12.45 Q-1.35 -13.9 0.25 -13.75 -0.55 -13.65 0.75 -12.65 -0.55 -13.65 0.25 -13.75 L0.75 -13.7 0.75 -12.65" fill="#d0bc9b" fill-rule="evenodd" stroke="none"/>
    <path d="M0.25 -13.75 L1.15 -13.7 Q1.35 -12.75 1.05 -12.45 L0.75 -12.65 Q-0.55 -13.65 0.25 -13.75 Z" fill="none" stroke="#8f7c3f" stroke-linecap="round" stroke-linejoin="round" stroke-width="1.0"/>
    <path d="M3.6 -4.95 Q3.05 -4.3 0.75 -4.15 -1.0 -4.1 -2.95 -6.75 -4.9 -9.45 -2.05 -9.3 L2.55 -9.4 5.75 -9.05 4.25 -6.25 3.6 -4.95" fill="#ffffff" fill-rule="evenodd" stroke="none"/>
    <path d="M3.6 -4.95 Q3.05 -4.3 0.75 -4.15 -1.0 -4.1 -2.95 -6.75 -4.9 -9.45 -2.05 -9.3 L2.55 -9.4 5.75 -9.05 4.25 -6.25 3.6 -4.95 Z" fill="none" stroke="#8f7c3f" stroke-linecap="round" stroke-linejoin="round" stroke-width="1.0"/>
    <path d="M-9.05 -13.3 L-8.35 -13.4 Q-5.45 -13.95 -2.55 -14.95 -5.7 -7.2 -10.95 -13.0 L-9.05 -13.3" fill="#ffffff" fill-rule="evenodd" stroke="none"/>
    <path d="M-9.05 -13.3 L-10.95 -13.0 Q-5.7 -7.2 -2.55 -14.95 -5.45 -13.95 -8.35 -13.4 L-9.05 -13.3 Z" fill="none" stroke="#8f7c3f" stroke-linecap="round" stroke-linejoin="round" stroke-width="1.0"/>
    <path d="M10.45 -13.7 L9.75 -13.8 Q6.85 -14.35 3.95 -15.35 7.1 -7.6 12.35 -13.4 L10.45 -13.7" fill="#ffffff" fill-rule="evenodd" stroke="none"/>
    <path d="M10.45 -13.7 L12.35 -13.4 Q7.1 -7.6 3.95 -15.35 6.85 -14.35 9.75 -13.8 L10.45 -13.7 Z" fill="none" stroke="#8f7c3f" stroke-linecap="round" stroke-linejoin="round" stroke-width="1.0"/>
    <path d="M11.1 -18.2 Q6.35 -14.65 -3.25 -15.3 -13.85 -16.35 -14.6 -26.8 L-14.6 -27.45 Q-14.95 -36.25 -5.5 -38.55 L-3.7 -38.9 Q6.8 -40.65 12.75 -32.95 19.35 -24.45 11.1 -18.2" fill="#ffffff" fill-rule="evenodd" stroke="none"/>
    <path d="M11.1 -18.2 Q6.35 -14.65 -3.25 -15.3 -13.85 -16.35 -14.6 -26.8 L-14.6 -27.45 Q-14.95 -36.25 -5.5 -38.55 L-3.7 -38.9 Q6.8 -40.65 12.75 -32.95 19.35 -24.45 11.1 -18.2 Z" fill="none" stroke="#8f7c3f" stroke-linecap="round" stroke-linejoin="round" stroke-width="1.0"/>
    <path d="M3.85 -29.35 Q3.55 -29.75 3.55 -30.15 L3.6 -30.5 3.75 -30.85 Q4.55 -30.95 4.75 -30.35 4.95 -29.55 4.4 -29.25 L3.85 -29.35" fill="#8f7c3f" fill-rule="evenodd" stroke="none"/>
    <path d="M3.85 -29.35 Q3.55 -29.75 3.55 -30.15 L3.6 -30.5 3.75 -30.85 M9.5 -25.4 L10.4 -25.85 11.1 -26.2 M7.6 -26.15 Q8.1 -26.2 8.5 -26.55 L9.45 -27.2 M-4.75 -22.6 Q-2.85 -19.85 -0.55 -22.3 1.7 -19.85 4.3 -21.8 5.05 -22.35 5.35 -23.5 M-4.4 -30.5 Q-3.85 -30.3 -4.05 -29.7 -4.1 -29.2 -5.1 -29.05 -5.55 -29.85 -5.1 -30.65 L-4.4 -30.5 Q-5.3 -29.6 -4.95 -29.35 L-5.1 -29.05 M-8.05 -26.1 L-8.85 -25.85 Q-8.8 -25.2 -9.25 -25.3 L-8.85 -25.85 M-4.95 -29.35 L-4.3 -29.35 Q-4.5 -30.15 -4.95 -29.35 M-4.05 -29.7 L-4.3 -29.35 M-11.2 -25.6 Q-10.65 -26.65 -9.65 -26.75" fill="none" stroke="#8f7c3f" stroke-linecap="round" stroke-linejoin="round" stroke-width="1.0"/>
    <path d="M3.75 -30.85 Q4.55 -30.95 4.75 -30.35 4.95 -29.55 4.4 -29.25 L3.85 -29.35 M-0.7 -26.6 L-0.65 -25.75 M1.0 -26.6 L1.0 -25.75 M3.35 -27.8 L5.05 -27.25 Q4.95 -24.45 2.25 -24.15 L0.9 -24.0 Q-1.45 -23.85 -3.5 -24.6 -5.65 -25.35 -4.05 -26.6 -2.85 -27.6 -1.25 -27.9 L0.8 -28.05 3.35 -27.8" fill="none" stroke="#8f7c3f" stroke-linecap="round" stroke-linejoin="round" stroke-width="1.0"/>
    <path d="M-6.65 -38.55 L-6.5 -38.5 -6.5 -38.45 Q-7.15 -36.55 -8.2 -34.4 -9.3 -32.15 -10.4 -31.25 L-12.95 -33.55 -15.35 -36.15 -10.7 -37.65 -6.65 -38.55" fill="#ffffff" fill-rule="evenodd" stroke="none"/>
    <path d="M-6.5 -38.45 Q-7.15 -36.55 -8.2 -34.4 -9.3 -32.15 -10.4 -31.25 L-12.95 -33.55 -15.35 -36.15 -10.7 -37.65 -6.65 -38.55" fill="none" stroke="#8f7c3f" stroke-linecap="round" stroke-linejoin="round" stroke-width="1.0"/>
    <path d="M5.05 -38.45 Q5.65 -36.4 6.75 -34.1 L7.75 -31.85 11.2 -34.15 13.7 -35.95 9.15 -37.5 5.05 -38.45" fill="#fefefe" fill-rule="evenodd" stroke="none"/>
    <path d="M5.05 -38.45 Q5.65 -36.4 6.75 -34.1 L7.75 -31.85 11.2 -34.15 13.7 -35.95 9.15 -37.5 5.05 -38.45 Z" fill="none" stroke="#8f7c3f" stroke-linecap="round" stroke-linejoin="round" stroke-width="1.0"/>
  </g>
</svg>
