<?xml version="1.0" encoding="UTF-8" standalone="no"?>
<svg xmlns:xlink="http://www.w3.org/1999/xlink" height="39.9px" width="45.35px" xmlns="http://www.w3.org/2000/svg">
  <g transform="matrix(1.0, 0.0, 0.0, 1.0, 22.0, 40.4)">
    <path d="M6.05 -9.8 Q18.55 -6.45 21.75 -18.25 24.0 -17.55 21.75 -12.85 20.7 -10.55 18.25 -8.85 16.1 -7.4 14.15 -7.15 11.9 -6.85 10.55 -7.2 8.75 -7.75 6.05 -9.8" fill="#e2d5c0" fill-rule="evenodd" stroke="none"/>
    <path d="M6.05 -9.8 Q18.55 -6.45 21.75 -18.25 24.0 -17.55 21.75 -12.85 20.7 -10.55 18.25 -8.85 16.1 -7.4 14.15 -7.15 11.9 -6.85 10.55 -7.2 8.75 -7.75 6.05 -9.8 Z" fill="none" stroke="#8f7c3f" stroke-linecap="round" stroke-linejoin="round" stroke-width="1.0"/>
    <path d="M1.9 -17.3 L2.8 -16.55 6.0 -12.6 8.75 -8.45 Q9.8 -6.85 9.8 -4.45 9.75 -2.05 6.6 -1.4 L1.0 -1.15 Q-1.5 -1.55 -4.15 -1.2 -7.9 -0.75 -7.6 -3.6 -7.45 -6.1 -6.55 -8.5 -5.7 -10.8 -4.2 -12.85 L-1.6 -16.55 -1.35 -16.9 -0.9 -17.3 1.9 -17.3" fill="#e2d5c0" fill-rule="evenodd" stroke="none"/>
    <path d="M1.9 -17.3 L2.8 -16.55 6.0 -12.6 8.75 -8.45 Q9.8 -6.85 9.8 -4.45 9.75 -2.05 6.6 -1.4 L1.0 -1.15 Q-1.5 -1.55 -4.15 -1.2 -7.9 -0.75 -7.6 -3.6 -7.45 -6.1 -6.55 -8.5 -5.7 -10.8 -4.2 -12.85 L-1.6 -16.55 -1.35 -16.9 -0.9 -17.3" fill="none" stroke="#8f7c3f" stroke-linecap="round" stroke-linejoin="round" stroke-width="1.0"/>
    <path d="M0.85 -13.0 Q-1.35 -14.6 0.95 -14.2 1.15 -13.3 0.85 -13.0" fill="#d0bc9b" fill-rule="evenodd" stroke="none"/>
    <path d="M4.2 -6.25 Q3.65 -5.6 1.15 -5.5 -0.85 -5.45 -2.5 -7.35 -4.7 -9.7 -3.6 -9.85 L2.3 -10.4 5.95 -10.55 4.9 -7.55 4.2 -6.25" fill="#8f7c3f" fill-rule="evenodd" stroke="none"/>
    <path d="M0.85 -13.0 Q-1.35 -14.6 0.95 -14.2 1.15 -13.3 0.85 -13.0 M4.2 -6.25 Q3.65 -5.6 1.15 -5.5 -0.85 -5.45 -2.5 -7.35 -4.7 -9.7 -3.6 -9.85 L2.3 -10.4 5.95 -10.55 4.9 -7.55 4.2 -6.25" fill="none" stroke="#8f7c3f" stroke-linecap="round" stroke-linejoin="round" stroke-width="1.0"/>
    <path d="M-0.9 -24.6 Q0.75 -26.0 2.7 -24.6 L-0.9 -24.6" fill="#ffffff" fill-rule="evenodd" stroke="none"/>
    <path d="M2.7 -24.6 Q0.75 -26.0 -0.9 -24.6" fill="none" stroke="#8f7c3f" stroke-linecap="round" stroke-linejoin="round" stroke-width="1.0"/>
    <path d="M-8.95 -13.95 L-8.25 -14.05 Q-5.4 -14.6 -2.5 -15.6 -5.65 -7.9 -10.85 -13.65 L-8.95 -13.95" fill="#ffffff" fill-rule="evenodd" stroke="none"/>
    <path d="M-8.95 -13.95 L-10.85 -13.65 Q-5.65 -7.9 -2.5 -15.6 -5.4 -14.6 -8.25 -14.05 L-8.95 -13.95 Z" fill="none" stroke="#8f7c3f" stroke-linecap="round" stroke-linejoin="round" stroke-width="1.0"/>
    <path d="M10.65 -14.2 L9.95 -14.3 Q7.1 -14.85 4.2 -15.85 7.35 -8.15 12.55 -13.9 L10.65 -14.2" fill="#ffffff" fill-rule="evenodd" stroke="none"/>
    <path d="M10.65 -14.2 L12.55 -13.9 Q7.35 -8.15 4.2 -15.85 7.1 -14.85 9.95 -14.3 L10.65 -14.2 Z" fill="none" stroke="#8f7c3f" stroke-linecap="round" stroke-linejoin="round" stroke-width="1.0"/>
    <path d="M11.3 -19.05 Q6.55 -15.5 -3.0 -16.15 -13.6 -17.2 -14.3 -27.6 L-14.35 -28.25 Q-14.65 -37.0 -5.3 -39.25 L-3.45 -39.6 Q7.0 -41.3 12.95 -33.65 19.5 -25.25 11.3 -19.05" fill="#ffffff" fill-rule="evenodd" stroke="none"/>
    <path d="M11.3 -19.05 Q6.55 -15.5 -3.0 -16.15 -13.6 -17.2 -14.3 -27.6 L-14.35 -28.25 Q-14.65 -37.0 -5.3 -39.25 L-3.45 -39.6 Q7.0 -41.3 12.95 -33.65 19.5 -25.25 11.3 -19.05 Z" fill="none" stroke="#8f7c3f" stroke-linecap="round" stroke-linejoin="round" stroke-width="1.0"/>
    <path d="M-11.0 -26.45 Q-10.45 -27.5 -9.4 -27.6 M-9.0 -26.15 L-8.6 -26.75 -7.8 -27.0 M5.95 -25.45 Q4.95 -24.1 4.0 -23.85 L2.1 -24.0 Q1.15 -24.4 0.7 -26.15 L0.0 -26.3 Q-0.3 -24.4 -0.7 -24.05 L-1.45 -23.6 -2.0 -23.5 -2.25 -23.55 Q-3.5 -24.0 -4.15 -25.75 M0.7 -26.15 L0.3 -28.45 0.0 -26.3 Q-0.7 -26.8 0.3 -28.45 1.65 -26.9 0.7 -26.15 M1.5 -30.4 L4.3 -30.2 7.2 -30.2" fill="none" stroke="#8f7c3f" stroke-linecap="round" stroke-linejoin="round" stroke-width="1.0"/>
    <path d="M10.2 -26.6 L10.95 -27.25 M8.5 -26.95 L9.7 -27.65 M-1.9 -30.2 L-4.7 -30.2 -6.2 -30.15" fill="none" stroke="#8f7c3f" stroke-linecap="round" stroke-linejoin="round" stroke-width="1.0"/>
    <path d="M-20.45 -24.15 Q-23.45 -26.4 -18.05 -31.3 -15.6 -33.25 -11.85 -36.35 -14.15 -19.35 -20.45 -24.15" fill="#e2d5c0" fill-rule="evenodd" stroke="none"/>
    <path d="M-20.45 -24.15 Q-23.45 -26.4 -18.05 -31.3 -15.6 -33.25 -11.85 -36.35 -14.15 -19.35 -20.45 -24.15 Z" fill="none" stroke="#8f7c3f" stroke-linecap="round" stroke-linejoin="round" stroke-width="1.0"/>
    <path d="M20.75 -26.45 Q23.25 -29.15 17.2 -33.0 L10.15 -37.0 Q15.3 -20.65 20.75 -26.45" fill="#e2d5c0" fill-rule="evenodd" stroke="none"/>
    <path d="M20.75 -26.45 Q23.25 -29.15 17.2 -33.0 L10.15 -37.0 Q15.3 -20.65 20.75 -26.45 Z" fill="none" stroke="#8f7c3f" stroke-linecap="round" stroke-linejoin="round" stroke-width="1.0"/>
  </g>
</svg>
