<?xml version="1.0" encoding="UTF-8" standalone="no"?>
<svg xmlns:xlink="http://www.w3.org/1999/xlink" height="41.95px" width="42.1px" xmlns="http://www.w3.org/2000/svg">
  <g transform="matrix(1.0, 0.0, 0.0, 1.0, 17.4, 41.75)">
    <path d="M19.6 -15.5 L19.6 -14.05 Q20.15 -14.4 21.15 -16.05 L21.15 -13.3 Q22.25 -13.95 22.25 -15.75 22.75 -15.4 24.1 -12.1 L24.0 -11.1 Q23.6 -9.25 22.25 -7.8 20.6 -6.1 17.6 -4.9 12.2 -2.8 5.45 -9.35 11.65 -8.4 15.5 -10.75 L17.55 -12.4 Q18.75 -13.7 19.6 -15.5" fill="#8f7c3f" fill-rule="evenodd" stroke="none"/>
    <path d="M24.1 -12.1 Q22.75 -15.4 22.25 -15.75 22.25 -13.95 21.15 -13.3 L21.15 -16.05 Q20.15 -14.4 19.6 -14.05 L19.6 -15.5 Q20.5 -17.35 21.0 -19.7 24.7 -16.45 24.1 -12.1" fill="#ffffff" fill-rule="evenodd" stroke="none"/>
    <path d="M24.1 -12.1 Q24.7 -16.45 21.0 -19.7 20.5 -17.35 19.6 -15.5 18.75 -13.7 17.55 -12.4 L15.5 -10.75 Q11.65 -8.4 5.45 -9.35 12.2 -2.8 17.6 -4.9 20.6 -6.1 22.25 -7.8 23.6 -9.25 24.0 -11.1 L24.1 -12.1 Z" fill="none" stroke="#8f7c3f" stroke-linecap="round" stroke-linejoin="round" stroke-width="1.0"/>
    <path d="M0.95 -17.15 L1.9 -16.4 5.2 -12.3 8.05 -8.0 Q9.1 -6.35 8.8 -3.55 8.45 -0.8 5.35 -0.5 L-0.15 -0.35 -5.15 -0.5 Q-7.7 -0.55 -7.8 -2.8 -7.9 -5.1 -6.9 -7.4 L-4.95 -12.1 Q-3.95 -14.55 -2.6 -16.4 L-2.35 -16.75 -1.9 -17.15 0.95 -17.15" fill="#e2d5c0" fill-rule="evenodd" stroke="none"/>
    <path d="M0.95 -17.15 L1.9 -16.4 5.2 -12.3 8.05 -8.0 Q9.1 -6.35 8.8 -3.55 8.45 -0.8 5.35 -0.5 L-0.15 -0.35 -5.15 -0.5 Q-7.7 -0.55 -7.8 -2.8 -7.9 -5.1 -6.9 -7.4 L-4.95 -12.1 Q-3.95 -14.55 -2.6 -16.4 L-2.35 -16.75 -1.9 -17.15" fill="none" stroke="#8f7c3f" stroke-linecap="round" stroke-linejoin="round" stroke-width="1.0"/>
    <path d="M0.35 -12.8 Q-1.95 -14.45 0.45 -14.1 0.65 -13.1 0.35 -12.8" fill="#d0bc9b" fill-rule="evenodd" stroke="none"/>
    <path d="M3.5 -5.3 Q2.8 -4.7 0.25 -4.75 -1.75 -4.8 -3.3 -6.9 -5.4 -9.5 -4.2 -9.55 L1.8 -9.65 5.6 -9.55 4.3 -6.6 3.5 -5.3" fill="#ffffff" fill-rule="evenodd" stroke="none"/>
    <path d="M3.5 -5.3 Q2.8 -4.7 0.25 -4.75 -1.75 -4.8 -3.3 -6.9 -5.4 -9.5 -4.2 -9.55 L1.8 -9.65 5.6 -9.55 4.3 -6.6 3.5 -5.3 M0.35 -12.8 Q-1.95 -14.45 0.45 -14.1 0.65 -13.1 0.35 -12.8" fill="none" stroke="#8f7c3f" stroke-linecap="round" stroke-linejoin="round" stroke-width="1.0"/>
    <path d="M-1.25 -24.2 Q0.45 -25.65 2.45 -24.2 L-1.25 -24.2" fill="#ffffff" fill-rule="evenodd" stroke="none"/>
    <path d="M2.45 -24.2 Q0.45 -25.65 -1.25 -24.2" fill="none" stroke="#8f7c3f" stroke-linecap="round" stroke-linejoin="round" stroke-width="1.0"/>
    <path d="M-9.6 -13.65 L-8.9 -13.75 Q-5.95 -14.3 -3.0 -15.35 -6.2 -7.4 -11.55 -13.35 L-9.6 -13.65" fill="#8f7c3f" fill-rule="evenodd" stroke="none"/>
    <path d="M-9.6 -13.65 L-11.55 -13.35 Q-6.2 -7.4 -3.0 -15.35 -5.95 -14.3 -8.9 -13.75 L-9.6 -13.65 Z" fill="none" stroke="#8f7c3f" stroke-linecap="round" stroke-linejoin="round" stroke-width="1.0"/>
    <path d="M9.55 -14.15 L11.55 -13.85 Q6.15 -7.9 2.95 -15.85 5.9 -14.8 8.85 -14.25 L9.55 -14.15" fill="#8f7c3f" fill-rule="evenodd" stroke="none"/>
    <path d="M9.55 -14.15 L11.55 -13.85 Q6.15 -7.9 2.95 -15.85 5.9 -14.8 8.85 -14.25 L9.55 -14.15 Z" fill="none" stroke="#8f7c3f" stroke-linecap="round" stroke-linejoin="round" stroke-width="1.0"/>
    <path d="M11.25 -18.6 Q6.35 -14.95 -3.45 -15.6 -14.3 -16.7 -15.05 -27.4 L-15.1 -28.05 Q-15.4 -37.05 -5.75 -39.4 L-3.9 -39.8 Q6.85 -41.55 13.0 -33.65 19.7 -25.0 11.25 -18.6" fill="#ffffff" fill-rule="evenodd" stroke="none"/>
    <path d="M11.25 -18.6 Q6.35 -14.95 -3.45 -15.6 -14.3 -16.7 -15.05 -27.4 L-15.1 -28.05 Q-15.4 -37.05 -5.75 -39.4 L-3.9 -39.8 Q6.85 -41.55 13.0 -33.65 19.7 -25.0 11.25 -18.6 Z" fill="none" stroke="#8f7c3f" stroke-linecap="round" stroke-linejoin="round" stroke-width="1.0"/>
    <path d="M-3.05 -29.7 L-3.2 -30.25 -3.3 -31.45 -2.45 -31.45 Q-1.85 -30.8 -2.1 -30.05 -2.75 -29.45 -3.05 -29.7 M2.85 -29.55 Q2.2 -29.1 2.05 -29.9 1.85 -30.75 2.15 -31.35 2.8 -31.45 3.15 -30.75 3.45 -30.05 2.85 -29.55" fill="#8f7c3f" fill-rule="evenodd" stroke="none"/>
    <path d="M5.85 -25.05 Q4.9 -23.8 3.95 -23.35 L1.85 -23.45 Q0.75 -23.95 0.35 -25.8 L-0.35 -26.0 Q-0.7 -24.0 -1.05 -23.45 L-1.4 -23.2 -2.4 -23.15 -2.65 -23.2 Q-3.95 -23.6 -4.35 -25.65 M9.2 -26.7 L10.25 -27.0 10.8 -27.25 M7.0 -27.25 Q7.5 -27.25 7.95 -27.65 L8.9 -28.35 M-3.05 -29.7 L-3.2 -30.25 -3.3 -31.45 -2.45 -31.45 Q-1.85 -30.8 -2.1 -30.05 -2.75 -29.45 -3.05 -29.7 M-9.65 -25.85 L-9.2 -26.4 -8.4 -26.7 M-0.35 -26.0 Q-1.05 -26.5 0.0 -28.2 1.35 -26.55 0.35 -25.8 L0.0 -28.2 -0.35 -26.0 M-11.6 -26.15 Q-11.05 -27.25 -10.0 -27.35" fill="none" stroke="#8f7c3f" stroke-linecap="round" stroke-linejoin="round" stroke-width="1.0"/>
    <path d="M2.85 -29.55 Q3.45 -30.05 3.15 -30.75 2.8 -31.45 2.15 -31.35 1.85 -30.75 2.05 -29.9 2.2 -29.1 2.85 -29.55" fill="none" stroke="#8f7c3f" stroke-linecap="round" stroke-linejoin="round" stroke-width="1.0"/>
    <path d="M-7.35 -36.85 Q-6.05 -27.55 -11.6 -31.85 -14.2 -33.25 -16.9 -35.8 -8.7 -46.1 -7.35 -36.85" fill="#8f7c3f" fill-rule="evenodd" stroke="none"/>
    <path d="M-7.35 -36.85 Q-6.05 -27.55 -11.6 -31.85 -14.2 -33.25 -16.9 -35.8 -8.7 -46.1 -7.35 -36.85 Z" fill="none" stroke="#8f7c3f" stroke-linecap="round" stroke-linejoin="round" stroke-width="1.0"/>
    <path d="M10.8 -41.05 Q23.3 -34.45 8.1 -31.65 4.7 -36.45 10.8 -41.05" fill="#8f7c3f" fill-rule="evenodd" stroke="none"/>
    <path d="M10.8 -41.05 Q4.7 -36.45 8.1 -31.65 23.3 -34.45 10.8 -41.05 Z" fill="none" stroke="#8f7c3f" stroke-linecap="round" stroke-linejoin="round" stroke-width="1.0"/>
  </g>
</svg>
