<svg xmlns:xlink="http://www.w3.org/1999/xlink" height="45.25px" width="81.25px" xmlns="http://www.w3.org/2000/svg">
  <g transform="matrix(1.0, 0.0, 0.0, 1.0, 14.7, 45.25)">
    <path d="M0.45 -37.5 L0.45 -37.1 0.85 -37.1 0.45 -35.95 0.85 -35.95 1.45 -37.1 1.45 -37.5 2.65 -37.45 2.65 -37.1 3.05 -37.1 2.65 -35.95 3.05 -35.95 3.65 -37.1 3.65 -37.4 4.85 -37.3 5.25 -37.15 5.75 -36.75 6.6 -36.35 9.65 -43.1 12.8 -36.35 13.55 -36.75 14.4 -36.15 Q14.7 -35.8 15.4 -35.75 18.0 -35.6 19.95 -34.45 L21.9 -33.2 21.4 -32.75 22.9 -30.9 Q23.35 -29.9 23.35 -28.55 23.35 -27.45 22.9 -26.4 L21.4 -24.3 21.65 -23.75 Q17.05 -21.6 15.2 -21.2 13.25 -20.8 13.35 -19.95 13.55 -18.5 12.35 -17.7 L11.5 -17.5 Q10.15 -17.5 9.4 -16.7 8.75 -16.1 8.75 -15.05 8.75 -14.05 9.4 -13.4 9.95 -12.85 10.8 -12.65 L10.8 -12.45 11.4 -7.7 10.45 -7.7 10.45 -2.9 Q10.45 -2.05 10.05 -1.6 9.65 -1.2 8.9 -1.2 8.25 -1.2 7.75 -1.65 7.2 -2.05 7.2 -3.4 L6.3 -3.4 Q6.7 -3.8 6.2 -4.25 L5.55 -4.55 0.7 -4.55 0.7 -3.9 -0.35 -3.95 -0.35 -4.9 -7.75 -4.9 -7.75 -3.95 Q-8.7 -4.05 -8.85 -3.45 L-9.8 -3.9 Q-10.0 -2.45 -10.45 -1.8 -10.95 -1.0 -11.85 -0.95 -13.05 -0.9 -13.45 -1.3 -13.85 -1.75 -13.85 -2.8 L-13.85 -8.65 -14.7 -8.65 Q-14.45 -8.95 -14.5 -9.25 -14.85 -10.75 -14.65 -12.25 L-14.2 -12.2 -9.7 -20.2 -10.15 -20.5 -9.6 -21.55 Q-9.35 -22.35 -9.75 -22.6 L-11.7 -23.8 -11.35 -24.4 Q-13.35 -26.15 -13.35 -28.5 -13.35 -30.85 -11.35 -32.7 L-11.8 -33.1 Q-10.0 -34.65 -9.45 -36.75 L-8.65 -36.35 -5.6 -43.1 -2.45 -36.35 -1.7 -36.75 Q-1.05 -37.5 0.45 -37.5 M-3.7 -33.4 L-4.95 -33.4 -3.15 -31.4 -2.45 -31.4 -3.7 -33.4 M-8.85 -25.85 L-8.85 -24.9 -8.4 -24.9 -8.85 -23.75 -8.35 -23.75 -7.85 -24.9 -7.85 -25.85 -8.85 -25.85 M-7.85 -28.8 L-7.85 -29.7 -8.85 -29.7 -8.85 -28.8 -7.85 -28.8 M12.6 -28.2 Q12.6 -26.6 11.95 -25.9 11.55 -25.5 11.0 -25.5 10.5 -25.5 10.2 -25.8 9.9 -26.1 9.9 -26.5 L10.25 -27.35 10.5 -28.55 Q10.5 -29.45 10.15 -29.45 9.85 -29.45 9.55 -28.85 9.2 -28.15 9.2 -27.7 L9.2 -26.65 8.65 -25.85 Q8.25 -25.45 7.7 -25.45 7.3 -25.45 7.05 -25.75 6.8 -25.95 6.8 -26.85 6.8 -28.5 8.5 -30.35 L7.75 -30.75 Q6.05 -28.8 6.05 -26.85 6.05 -25.65 6.5 -25.25 7.0 -24.75 7.7 -24.75 8.5 -24.75 9.0 -25.25 L9.4 -25.8 9.85 -25.15 Q10.25 -24.75 11.05 -24.75 11.95 -24.75 12.55 -25.35 13.5 -26.3 13.5 -28.2 13.5 -29.55 13.05 -30.75 L12.25 -30.55 Q12.6 -29.55 12.6 -28.2 M18.75 -27.75 L18.75 -29.55 16.95 -29.55 16.95 -27.75 18.75 -27.75 M10.25 -16.2 Q10.7 -16.65 11.5 -16.65 L12.8 -16.2 Q13.3 -15.75 13.3 -15.05 13.3 -14.3 12.8 -13.9 12.35 -13.4 11.5 -13.4 10.7 -13.4 10.25 -13.9 9.75 -14.3 9.75 -15.05 9.75 -15.75 10.25 -16.2 M2.5 -27.75 L2.5 -29.55 0.7 -29.55 0.7 -27.75 2.5 -27.75 M52.95 -31.65 L53.4 -31.35 55.35 -32.9 Q56.45 -33.4 57.7 -33.4 L59.9 -32.9 61.95 -31.35 62.45 -31.65 63.95 -30.85 65.45 -29.0 Q65.95 -28.0 65.95 -26.65 65.95 -25.55 65.45 -24.5 65.0 -23.55 63.95 -22.4 L64.45 -22.0 64.1 -21.85 61.45 -21.45 59.45 -21.55 59.35 -21.55 Q58.6 -21.6 58.05 -20.95 L58.0 -20.85 57.55 -20.5 57.6 -20.45 56.85 -19.9 50.55 -19.9 50.55 -19.0 55.85 -19.0 Q55.85 -16.65 54.5 -14.95 53.3 -13.5 51.15 -12.75 L51.8 -11.9 49.5 -11.55 49.5 -12.5 42.2 -12.5 41.4 -12.5 34.1 -12.5 34.0 -12.0 Q32.85 -12.1 32.3 -12.85 L31.55 -13.55 32.6 -14.45 Q31.05 -16.65 27.65 -18.8 L32.6 -19.5 33.7 -19.6 35.05 -19.75 35.05 -18.85 40.45 -18.85 40.45 -19.75 38.9 -19.75 Q40.0 -20.8 41.8 -20.95 L42.45 -22.2 44.05 -24.3 44.75 -24.9 49.2 -27.45 49.55 -27.65 49.8 -28.0 50.55 -28.0 50.55 -29.3 50.5 -29.3 Q51.35 -30.7 52.95 -31.65 M43.15 -19.75 L43.15 -18.85 48.55 -18.85 48.55 -19.75 43.15 -19.75 M56.15 -20.95 L56.1 -20.85 56.2 -20.85 56.15 -20.95" fill="#ffffff" fill-rule="evenodd" stroke="none"/>
    <path d="M1.45 -37.5 L1.45 -37.1 0.85 -35.95 0.45 -35.95 0.85 -37.1 0.45 -37.1 0.45 -37.5 0.45 -38.0 1.45 -38.0 1.45 -37.5 M-1.7 -36.75 L-2.45 -36.35 -5.6 -43.1 -8.65 -36.35 -9.45 -36.75 -5.6 -45.25 -1.7 -36.75 M-11.35 -32.7 Q-13.35 -30.85 -13.35 -28.5 -13.35 -26.15 -11.35 -24.4 L-11.85 -23.9 Q-13.95 -25.9 -13.95 -28.5 -13.95 -31.15 -11.85 -33.1 L-11.35 -32.7 M-10.15 -20.5 L-9.7 -20.2 -14.2 -12.2 -14.6 -12.45 -10.15 -20.5 M-14.7 -8.65 L-13.85 -8.65 -13.85 -2.8 Q-13.85 -1.75 -13.45 -1.3 -13.05 -0.9 -11.85 -0.95 -10.95 -1.0 -10.45 -1.8 -10.0 -2.45 -9.8 -3.9 L-8.85 -3.45 Q-9.45 0.0 -12.2 0.0 -13.55 0.05 -14.1 -0.6 -14.6 -1.25 -14.7 -2.8 L-14.7 -8.65 M-7.75 -3.95 L-7.75 -4.9 -0.35 -4.9 -0.35 -3.95 -7.75 -3.95 M0.7 -3.9 L0.7 -4.55 5.55 -4.55 5.55 -3.9 0.7 -3.9 M6.3 -3.4 L7.2 -3.4 Q7.2 -2.05 7.75 -1.65 8.25 -1.2 8.9 -1.2 9.65 -1.2 10.05 -1.6 10.45 -2.05 10.45 -2.9 L10.45 -7.7 11.4 -7.7 11.4 -2.9 Q11.4 -1.65 10.85 -1.05 10.1 -0.35 8.9 -0.35 7.7 -0.35 7.0 -1.0 6.3 -1.75 6.3 -3.4 M10.8 -12.65 Q9.95 -12.85 9.4 -13.4 8.75 -14.05 8.75 -15.05 8.75 -16.1 9.4 -16.7 10.15 -17.5 11.5 -17.5 L12.35 -17.7 13.65 -16.7 14.25 -15.7 14.3 -15.05 Q14.3 -14.05 13.65 -13.4 12.85 -12.6 11.5 -12.6 L10.8 -12.65 M21.4 -24.3 L22.9 -26.4 Q23.35 -27.45 23.35 -28.55 23.35 -29.9 22.9 -30.9 L21.4 -32.75 21.9 -33.2 23.45 -31.2 Q24.0 -30.05 24.0 -28.55 24.0 -27.25 23.45 -26.1 L21.9 -23.85 21.4 -24.3 M13.55 -36.75 L12.8 -36.35 9.65 -43.1 6.6 -36.35 5.75 -36.75 9.65 -45.25 13.55 -36.75 M3.65 -37.4 L3.65 -37.1 3.05 -35.95 2.65 -35.95 3.05 -37.1 2.65 -37.1 2.65 -37.45 2.65 -38.0 3.65 -38.0 3.65 -37.4 M-3.7 -33.4 L-2.45 -31.4 -3.15 -31.4 -4.95 -33.4 -3.7 -33.4 M-7.85 -28.8 L-8.85 -28.8 -8.85 -29.7 -7.85 -29.7 -7.85 -28.8 M-8.85 -25.85 L-7.85 -25.85 -7.85 -24.9 -8.35 -23.75 -8.85 -23.75 -8.4 -24.9 -8.85 -24.9 -8.85 -25.85 M18.75 -27.75 L16.95 -27.75 16.95 -29.55 18.75 -29.55 18.75 -27.75 M12.6 -28.2 Q12.6 -29.55 12.25 -30.55 L13.05 -30.75 Q13.5 -29.55 13.5 -28.2 13.5 -26.3 12.55 -25.35 11.95 -24.75 11.05 -24.75 10.25 -24.75 9.85 -25.15 L9.4 -25.8 9.0 -25.25 Q8.5 -24.75 7.7 -24.75 7.0 -24.75 6.5 -25.25 6.05 -25.65 6.05 -26.85 6.05 -28.8 7.75 -30.75 L8.5 -30.35 Q6.8 -28.5 6.8 -26.85 6.8 -25.95 7.05 -25.75 7.3 -25.45 7.7 -25.45 8.25 -25.45 8.65 -25.85 L9.2 -26.65 9.2 -27.7 Q9.2 -28.15 9.55 -28.85 9.85 -29.45 10.15 -29.45 10.5 -29.45 10.5 -28.55 L10.25 -27.35 9.9 -26.5 Q9.9 -26.1 10.2 -25.8 10.5 -25.5 11.0 -25.5 11.55 -25.5 11.95 -25.9 12.6 -26.6 12.6 -28.2 M14.85 -17.15 L25.65 -17.15 25.65 -15.8 14.85 -15.8 14.85 -17.15 M2.5 -27.75 L0.7 -27.75 0.7 -29.55 2.5 -29.55 2.5 -27.75 M10.25 -16.2 Q9.75 -15.75 9.75 -15.05 9.75 -14.3 10.25 -13.9 10.7 -13.4 11.5 -13.4 12.35 -13.4 12.8 -13.9 13.3 -14.3 13.3 -15.05 13.3 -15.75 12.8 -16.2 L11.5 -16.65 Q10.7 -16.65 10.25 -16.2 M62.45 -31.65 L61.95 -31.35 59.9 -32.9 57.7 -33.4 Q56.45 -33.4 55.35 -32.9 L53.4 -31.35 52.95 -31.65 Q53.8 -32.65 54.95 -33.25 56.3 -34.0 57.7 -34.0 59.25 -34.0 60.45 -33.25 L62.45 -31.65 M50.5 -29.3 L50.55 -29.3 50.55 -28.0 49.8 -28.0 49.25 -28.0 49.25 -29.3 50.5 -29.3 M38.9 -19.75 L40.45 -19.75 40.45 -18.85 35.05 -18.85 35.05 -19.75 38.9 -19.75 M27.65 -18.8 Q31.05 -16.65 32.6 -14.45 L31.55 -13.55 Q29.95 -15.85 26.75 -18.0 L27.65 -18.8 M34.1 -12.5 L41.4 -12.5 41.4 -11.55 34.1 -11.55 34.1 -12.5 M42.2 -12.5 L49.5 -12.5 49.5 -11.55 42.2 -11.55 42.2 -12.5 M51.8 -11.9 L51.15 -12.75 Q53.3 -13.5 54.5 -14.95 55.85 -16.65 55.85 -19.0 L50.55 -19.0 50.55 -19.9 56.85 -19.9 56.85 -19.0 Q56.75 -16.5 55.45 -14.65 54.15 -12.8 51.8 -11.9 M57.6 -20.45 L57.55 -20.5 58.0 -20.85 58.1 -20.85 Q60.15 -18.95 60.15 -16.3 60.15 -13.7 58.05 -11.7 L57.55 -12.2 Q59.5 -14.0 59.5 -16.3 59.5 -18.6 57.6 -20.45 M64.45 -22.0 L63.95 -22.4 Q65.0 -23.55 65.45 -24.5 65.95 -25.55 65.95 -26.65 65.95 -28.0 65.45 -29.0 L63.95 -30.85 64.45 -31.3 66.0 -29.3 Q66.55 -28.15 66.55 -26.65 66.55 -25.35 66.0 -24.2 L64.45 -22.0 M40.25 -25.5 L40.55 -24.75 40.25 -23.95 Q39.95 -23.7 39.5 -23.7 39.0 -23.7 38.75 -23.95 38.45 -24.3 38.45 -24.75 38.45 -25.25 38.75 -25.5 L39.5 -25.8 40.25 -25.5 M39.5 -25.5 L38.95 -25.3 38.75 -24.75 38.95 -24.2 Q39.15 -23.95 39.5 -23.95 39.85 -23.95 40.05 -24.2 L40.25 -24.75 40.05 -25.3 39.5 -25.5 M43.15 -19.75 L48.55 -19.75 48.55 -18.85 43.15 -18.85 43.15 -19.75 M59.55 -20.85 L59.4 -20.85 59.45 -20.95 59.55 -20.85 M56.15 -20.95 L56.2 -20.85 56.1 -20.85 56.15 -20.95 M61.3 -20.85 L61.45 -20.85 Q63.45 -18.95 63.45 -16.3 63.45 -13.7 61.35 -11.7 L60.9 -12.2 Q62.8 -14.0 62.8 -16.3 62.8 -18.65 60.9 -20.5 L61.3 -20.85" fill="#000000" fill-rule="evenodd" stroke="none"/>
  </g>
</svg>
