<svg xmlns:xlink="http://www.w3.org/1999/xlink" height="103.65px" width="103.8px" xmlns="http://www.w3.org/2000/svg">
  <g transform="matrix(1.0, 0.0, 0.0, 1.0, 26.75, 103.75)">
    <path d="M68.45 -71.85 Q68.45 -73.35 67.9 -74.4 L66.3 -76.45 66.8 -76.9 Q68.05 -75.8 68.55 -74.75 69.15 -73.45 69.15 -71.85 69.15 -70.4 68.55 -69.15 L66.8 -66.7 66.3 -67.2 67.9 -69.5 Q68.45 -70.6 68.45 -71.85 M68.15 -88.05 Q68.6 -89.1 69.85 -90.2 L70.35 -89.75 Q69.15 -88.65 68.75 -87.7 68.15 -86.65 68.2 -85.15 68.15 -83.9 68.75 -82.8 69.15 -81.75 70.35 -80.5 L69.85 -80.0 Q68.65 -81.3 68.15 -82.45 67.45 -83.7 67.5 -85.15 67.45 -86.75 68.15 -88.05 M64.4 -89.75 Q63.25 -88.65 62.8 -87.7 62.2 -86.65 62.25 -85.15 62.2 -83.9 62.8 -82.8 63.25 -81.75 64.4 -80.5 L63.9 -80.0 Q62.7 -81.3 62.2 -82.45 61.5 -83.7 61.55 -85.15 61.5 -86.75 62.2 -88.05 62.65 -89.1 63.9 -90.2 L64.4 -89.75 M76.45 -101.35 Q77.05 -100.05 77.05 -98.45 77.05 -97.0 76.45 -95.75 L74.7 -93.3 74.2 -93.8 Q75.4 -95.05 75.85 -96.1 76.35 -97.2 76.35 -98.45 76.35 -99.95 75.85 -101.0 L74.2 -103.05 74.7 -103.5 Q75.95 -102.4 76.45 -101.35 M13.45 -80.05 L13.4 -80.1 13.35 -80.1 13.35 -80.05 12.85 -80.55 Q15.0 -82.55 15.0 -85.1 15.0 -87.65 12.85 -89.65 L13.3 -90.1 13.35 -90.1 13.4 -90.05 13.45 -90.1 Q15.7 -87.95 15.7 -85.1 15.7 -82.25 13.45 -80.05 M10.1 -93.35 L10.05 -93.3 9.3 -93.3 9.25 -93.3 9.25 -93.35 9.2 -93.35 9.2 -95.95 7.15 -96.15 7.15 -93.95 7.1 -93.95 7.05 -93.9 6.3 -93.9 6.3 -93.95 6.2 -93.95 6.2 -96.3 4.3 -96.55 4.3 -97.4 6.2 -97.2 6.2 -100.2 4.3 -100.4 4.3 -101.3 6.2 -101.05 6.2 -103.75 7.15 -103.75 7.15 -100.9 9.2 -100.65 9.2 -103.15 10.1 -103.15 10.1 -100.55 12.05 -100.35 12.05 -99.5 10.1 -99.65 10.1 -96.7 12.05 -96.45 12.05 -95.55 10.1 -95.8 10.1 -93.35 M-1.8 -93.35 L-1.85 -93.3 -2.6 -93.3 -2.65 -93.3 -2.65 -93.35 -2.7 -93.35 -2.7 -95.95 -4.75 -96.15 -4.75 -93.95 -4.8 -93.95 -4.85 -93.9 -5.55 -93.9 -5.6 -93.9 -5.65 -93.95 -5.7 -93.95 -5.7 -96.3 -7.6 -96.55 -7.6 -97.4 -5.7 -97.2 -5.7 -100.2 -7.6 -100.4 -7.6 -101.3 -5.7 -101.05 -5.7 -103.75 -4.75 -103.75 -4.75 -100.9 -2.7 -100.65 -2.7 -103.15 -1.8 -103.15 -1.8 -100.55 0.15 -100.35 0.15 -99.5 -1.8 -99.65 -1.8 -96.7 0.15 -96.45 0.15 -95.55 -1.8 -95.8 -1.8 -93.35 M-10.95 -90.1 L-10.9 -90.05 -10.8 -90.1 -10.35 -89.65 Q-12.5 -87.65 -12.5 -85.1 -12.5 -82.55 -10.45 -80.6 L-10.45 -80.55 -10.45 -80.4 -10.9 -80.0 Q-13.2 -82.2 -13.2 -85.1 -13.2 -87.95 -10.95 -90.1 M-11.15 -77.1 L-11.1 -77.15 -11.1 -77.2 -9.9 -77.2 -8.7 -74.85 -9.45 -74.85 -9.5 -74.95 -9.55 -74.95 -9.6 -74.95 -11.15 -77.1 M-20.15 -63.55 L-20.1 -63.5 -20.05 -63.55 -19.6 -63.15 -21.2 -61.1 Q-21.75 -60.05 -21.75 -58.55 -21.75 -57.3 -21.2 -56.2 -20.75 -55.15 -19.6 -53.9 L-20.05 -53.45 -20.15 -53.45 Q-21.25 -54.7 -21.8 -55.85 -22.45 -57.1 -22.45 -58.55 -22.45 -60.15 -21.8 -61.45 L-20.15 -63.55 M-24.45 -36.95 L-24.4 -36.9 -24.35 -36.95 -23.9 -36.55 -25.5 -34.5 Q-26.05 -33.45 -26.05 -31.95 -26.05 -30.7 -25.5 -29.6 L-23.9 -27.3 -24.35 -26.85 -24.45 -26.85 Q-25.55 -28.1 -26.1 -29.25 -26.75 -30.5 -26.75 -31.95 -26.75 -33.55 -26.1 -34.85 -25.65 -35.85 -24.45 -36.95 M-22.5 -22.5 L-22.45 -22.55 -22.45 -22.6 -22.5 -22.65 -22.05 -23.2 -11.9 -14.75 -12.35 -14.2 -12.45 -14.2 -12.5 -14.2 -22.5 -22.5 M-15.3 -10.35 L-15.25 -10.35 -15.2 -10.3 -15.15 -10.35 -14.75 -9.95 -16.35 -7.9 Q-16.9 -6.85 -16.9 -5.35 -16.9 -4.1 -16.35 -3.0 -15.9 -1.95 -14.75 -0.7 L-15.15 -0.3 -15.25 -0.25 Q-16.4 -1.5 -16.95 -2.65 -17.6 -3.9 -17.6 -5.35 -17.6 -6.95 -16.95 -8.25 L-15.3 -10.35 M-12.55 -0.9 L-12.65 -0.9 -12.7 -0.9 -13.15 -1.45 -3.0 -9.9 -2.5 -9.3 -12.55 -0.9 M-1.25 -9.3 L-0.75 -9.9 Q4.35 -5.7 9.4 -1.45 L8.95 -0.9 8.9 -0.9 8.85 -0.9 8.8 -0.9 -1.25 -9.3 M11.0 -0.7 Q12.15 -1.95 12.6 -3.0 13.1 -4.1 13.1 -5.35 13.1 -6.85 12.6 -7.9 L11.0 -9.95 11.4 -10.35 11.45 -10.3 11.55 -10.35 13.2 -8.25 Q13.8 -6.95 13.8 -5.35 13.8 -3.9 13.2 -2.65 12.65 -1.5 11.55 -0.2 L11.5 -0.25 11.35 -0.3 11.0 -0.7 M8.3 -14.2 L8.25 -14.2 8.2 -14.2 7.75 -14.75 17.85 -23.2 18.35 -22.65 18.35 -22.6 18.35 -22.55 18.35 -22.5 8.3 -14.2 M21.25 -26.85 L21.2 -26.85 21.15 -26.85 20.7 -27.3 Q21.85 -28.55 22.3 -29.6 22.85 -30.7 22.9 -31.95 22.85 -33.45 22.3 -34.5 L20.7 -36.55 21.15 -36.95 21.15 -36.9 21.25 -36.9 21.25 -36.95 23.0 -34.85 Q23.6 -33.55 23.6 -31.95 23.6 -30.5 23.0 -29.25 22.4 -28.1 21.25 -26.85 M16.65 -49.05 L16.6 -49.2 16.55 -49.25 16.95 -49.8 27.15 -41.35 26.7 -40.8 26.6 -40.8 26.55 -40.8 16.65 -49.05 M28.4 -41.35 L38.5 -49.8 39.05 -49.2 28.95 -40.8 28.9 -40.8 28.85 -40.8 28.4 -41.35 M46.65 -57.95 L46.6 -58.0 46.55 -58.0 46.55 -59.25 46.65 -59.3 46.65 -59.35 58.45 -59.35 58.45 -57.95 46.65 -57.95 M39.5 -63.55 L39.5 -63.5 39.55 -63.45 Q39.55 -63.45 39.65 -63.4 L41.7 -55.15 Q42.2 -55.2 42.6 -55.6 42.9 -55.9 42.9 -56.55 42.9 -57.45 42.5 -58.4 41.8 -59.95 41.85 -60.2 41.8 -60.55 42.05 -60.75 L42.7 -61.0 43.55 -60.7 44.55 -59.8 43.9 -59.3 42.95 -60.15 42.85 -60.05 42.75 -59.95 Q42.7 -59.75 43.4 -58.3 43.75 -57.5 43.75 -56.5 43.75 -55.6 43.2 -55.05 42.6 -54.45 41.9 -54.4 L42.25 -53.0 42.25 -52.95 42.25 -53.0 42.15 -52.95 42.15 -52.9 42.1 -52.85 41.45 -52.85 41.05 -54.35 Q39.7 -54.45 38.85 -55.35 37.0 -57.2 37.0 -60.85 L37.9 -60.85 Q37.9 -57.45 39.45 -55.9 40.15 -55.25 40.9 -55.15 L38.75 -63.45 38.8 -63.45 38.8 -63.55 39.5 -63.55 M33.9 -57.55 L33.9 -57.5 33.85 -57.45 33.9 -57.4 33.05 -56.6 Q31.75 -58.75 30.8 -60.9 L30.7 -61.2 30.55 -61.3 30.25 -61.0 28.45 -57.8 26.0 -54.35 25.3 -55.25 25.35 -55.3 25.35 -55.35 25.3 -55.4 Q27.85 -58.2 29.75 -61.9 30.0 -62.35 30.55 -62.35 L31.3 -61.9 32.45 -59.8 33.9 -57.55 M24.55 -54.35 L24.55 -54.3 24.5 -54.2 24.55 -54.2 24.15 -54.0 19.2 -62.75 19.65 -63.05 24.55 -54.35 M13.1 -68.95 L13.1 -68.9 13.15 -68.85 12.35 -68.1 Q10.25 -69.15 7.9 -69.1 L7.2 -70.35 Q11.25 -71.65 12.0 -75.9 11.65 -76.3 12.15 -76.2 L13.2 -76.0 13.2 -75.9 13.25 -75.9 Q12.15 -71.45 9.4 -70.1 11.35 -69.95 13.1 -68.95 M9.2 -99.8 L7.15 -100.05 7.15 -97.05 9.2 -96.8 9.2 -99.8 M3.4 -71.5 Q2.95 -72.05 2.2 -72.05 1.5 -72.05 0.4 -71.35 -1.0 -70.55 -1.75 -70.55 -2.75 -70.55 -3.55 -71.25 L-4.6 -72.45 -3.7 -73.25 -3.1 -72.45 Q-2.5 -71.85 -1.9 -71.85 -1.05 -71.85 0.2 -72.6 1.35 -73.3 2.25 -73.3 3.15 -73.3 3.85 -72.65 L4.9 -71.35 3.9 -70.75 3.4 -71.5 M8.5 -88.75 Q8.5 -89.45 9.0 -89.9 9.5 -90.45 10.25 -90.45 11.0 -90.45 11.5 -89.9 12.05 -89.45 12.05 -88.75 12.05 -88.0 11.5 -87.45 11.0 -86.95 10.25 -86.95 9.5 -86.95 9.0 -87.45 8.5 -88.0 8.5 -88.75 M9.4 -89.55 Q9.05 -89.2 9.05 -88.75 9.05 -88.3 9.4 -87.9 9.8 -87.5 10.25 -87.5 10.75 -87.5 11.1 -87.9 L11.4 -88.75 11.1 -89.55 Q10.75 -89.9 10.25 -89.9 L9.4 -89.55 M4.7 -88.05 Q3.7 -88.05 3.15 -87.5 L2.45 -86.65 1.25 -86.65 Q1.6 -87.6 2.25 -88.2 3.15 -89.1 4.7 -89.1 6.3 -89.1 7.25 -88.15 8.4 -87.0 8.4 -85.05 8.4 -83.15 7.15 -81.9 6.25 -81.0 4.6 -81.0 3.25 -81.0 2.25 -82.0 1.5 -82.7 1.2 -83.9 L2.45 -83.9 Q2.7 -83.15 3.15 -82.7 3.8 -82.05 4.6 -82.05 5.7 -82.05 6.35 -82.7 7.15 -83.5 7.15 -85.05 7.15 -86.65 6.4 -87.45 5.75 -88.05 4.7 -88.05 M-0.25 -89.35 Q-0.1 -89.5 -0.1 -89.85 -0.1 -90.15 -0.25 -90.35 -0.45 -90.55 -0.8 -90.55 -1.1 -90.55 -1.25 -90.35 L-1.45 -89.85 -1.25 -89.35 Q-1.1 -89.15 -0.8 -89.15 -0.45 -89.15 -0.25 -89.35 M0.0 -90.6 L0.3 -89.85 0.0 -89.1 Q-0.35 -88.75 -0.8 -88.75 -1.15 -88.75 -1.5 -89.1 -1.85 -89.45 -1.85 -89.85 L-1.5 -90.6 -0.8 -90.9 Q-0.35 -90.9 0.0 -90.6 M1.6 -44.65 L1.3 -43.6 Q-1.9 -44.15 -4.65 -46.05 L-5.1 -46.4 Q-5.55 -46.3 -5.3 -46.75 L-4.65 -47.45 Q-2.25 -45.4 1.6 -44.65 M2.2 -41.75 L1.9 -40.6 Q-3.6 -41.25 -6.05 -43.8 -6.6 -43.7 -6.2 -44.15 L-5.45 -44.9 Q-3.3 -42.45 2.2 -41.75 M5.85 -43.8 Q5.3 -43.7 5.7 -44.15 L6.45 -44.9 Q8.6 -42.45 14.1 -41.75 L13.8 -40.6 Q8.3 -41.25 5.85 -43.8 M2.15 -47.4 L1.9 -46.3 Q-1.05 -46.75 -3.85 -48.65 L-4.5 -49.15 Q-5.15 -49.15 -4.85 -49.45 L-4.15 -50.25 Q-1.25 -47.85 2.15 -47.4 M6.8 -46.4 Q6.3 -46.3 6.6 -46.75 L7.25 -47.45 Q9.65 -45.4 13.5 -44.65 L13.2 -43.6 Q10.0 -44.15 7.25 -46.05 L6.8 -46.4 M7.35 -49.15 Q6.75 -49.15 7.0 -49.45 L7.7 -50.25 Q10.65 -47.85 14.05 -47.4 L13.8 -46.3 Q10.85 -46.75 8.05 -48.65 L7.35 -49.15 M4.1 -63.05 L4.6 -63.55 Q6.9 -61.4 6.9 -58.5 6.9 -55.6 4.6 -53.4 L4.1 -53.95 Q6.2 -55.95 6.2 -58.5 6.2 -61.05 4.1 -63.05 M0.15 -62.55 Q1.55 -62.55 2.15 -61.9 2.8 -61.25 2.8 -60.35 2.8 -59.65 2.4 -59.25 L1.75 -58.8 1.35 -58.65 0.4 -58.2 -0.8 -57.65 -1.55 -57.2 -1.85 -56.5 Q-1.85 -56.1 -1.45 -55.75 -1.0 -55.3 0.0 -55.3 1.05 -55.3 1.55 -55.8 1.95 -56.2 1.95 -57.0 L3.0 -57.0 Q3.0 -55.85 2.4 -55.25 1.55 -54.4 0.0 -54.4 -1.55 -54.4 -2.25 -55.1 -2.9 -55.75 -2.9 -56.65 -2.9 -57.35 -2.4 -57.9 L-1.7 -58.35 0.7 -59.45 Q1.3 -59.65 1.55 -59.9 1.75 -60.05 1.75 -60.5 L1.4 -61.25 0.05 -61.6 Q-0.8 -61.6 -1.25 -61.2 -1.6 -60.85 -1.6 -60.3 L-2.65 -60.3 Q-2.65 -61.15 -2.0 -61.8 -1.25 -62.55 0.15 -62.55 M10.65 -33.7 Q7.1 -31.4 5.3 -28.85 L4.15 -29.8 Q5.85 -32.2 9.65 -34.6 L10.65 -33.7 M0.95 -22.5 L1.05 -22.5 1.05 -22.6 2.1 -22.6 -1.1 -14.55 -1.95 -14.55 -5.1 -22.6 -4.05 -22.6 -4.05 -22.5 -3.95 -22.5 -1.5 -16.15 0.95 -22.5 M58.55 -63.75 L59.0 -64.35 59.3 -63.75 Q59.6 -63.25 59.85 -63.25 60.25 -63.25 60.95 -63.85 L61.95 -64.4 Q62.45 -64.4 62.8 -63.9 L63.25 -62.85 62.8 -62.35 62.55 -63.0 61.95 -63.45 Q61.6 -63.45 61.05 -62.9 L60.0 -62.2 Q59.4 -62.2 59.1 -62.75 L58.55 -63.75 M-4.75 -100.05 L-4.75 -97.05 -2.7 -96.8 -2.7 -99.8 -4.75 -100.05 M-4.3 -63.55 L-3.8 -63.05 Q-5.9 -61.05 -5.9 -58.5 -5.9 -55.95 -3.8 -53.95 L-4.3 -53.4 Q-6.6 -55.6 -6.6 -58.5 -6.6 -61.4 -4.3 -63.55 M-7.65 -77.2 L-6.5 -74.85 -7.35 -74.85 -8.95 -77.2 -7.65 -77.2 M-14.4 -35.9 L-13.9 -36.5 -3.75 -28.05 -4.3 -27.45 -14.4 -35.9 M-17.95 -43.8 Q-18.5 -43.7 -18.1 -44.15 L-17.35 -44.9 Q-15.2 -42.45 -9.7 -41.75 L-10.0 -40.6 Q-15.5 -41.25 -17.95 -43.8 M-17.2 -46.75 L-16.55 -47.45 Q-14.15 -45.4 -10.3 -44.65 L-10.6 -43.6 Q-13.8 -44.15 -16.55 -46.05 L-17.0 -46.4 Q-17.45 -46.3 -17.2 -46.75 M-15.75 -48.65 L-16.4 -49.15 Q-17.05 -49.15 -16.75 -49.45 L-16.05 -50.25 Q-13.15 -47.85 -9.75 -47.4 L-10.0 -46.3 Q-12.95 -46.75 -15.75 -48.65" fill="#000000" fill-rule="evenodd" stroke="none"/>
    <path d="M13.45 -90.1 L13.4 -90.05 13.35 -90.1 13.3 -90.1 12.85 -89.65 Q15.0 -87.65 15.0 -85.1 15.0 -82.55 12.85 -80.55 L13.35 -80.05 13.35 -80.1 13.4 -80.1 13.45 -80.05 13.5 -80.0 13.35 -76.0 13.3 -75.9 13.25 -75.9 13.2 -75.9 13.2 -76.0 12.15 -76.2 Q11.65 -76.3 12.0 -75.9 11.25 -71.65 7.2 -70.35 L7.9 -69.1 Q10.25 -69.15 12.35 -68.1 L13.15 -68.85 13.1 -68.9 13.1 -68.95 13.2 -69.0 13.25 -69.0 19.6 -63.2 19.65 -63.15 19.6 -63.1 19.55 -63.05 19.5 -63.1 19.2 -62.75 24.15 -54.0 24.55 -54.2 24.5 -54.2 24.55 -54.3 24.55 -54.35 25.2 -55.4 25.3 -55.4 25.35 -55.35 25.35 -55.3 25.3 -55.25 26.0 -54.35 28.45 -57.8 30.25 -61.0 30.55 -61.3 30.7 -61.2 30.8 -60.9 Q31.75 -58.75 33.05 -56.6 L33.9 -57.4 33.85 -57.45 33.9 -57.5 33.9 -57.55 38.65 -63.55 38.7 -63.6 38.75 -63.6 38.8 -63.55 38.8 -63.45 38.75 -63.45 40.9 -55.15 Q40.15 -55.25 39.45 -55.9 37.9 -57.45 37.9 -60.85 L37.0 -60.85 Q37.0 -57.2 38.85 -55.35 39.7 -54.45 41.05 -54.35 L41.45 -52.85 42.1 -52.85 42.15 -52.9 42.15 -52.95 42.25 -53.0 42.25 -52.95 42.25 -53.0 41.9 -54.4 Q42.6 -54.45 43.2 -55.05 43.75 -55.6 43.75 -56.5 43.75 -57.5 43.4 -58.3 42.7 -59.75 42.75 -59.95 L42.85 -60.05 42.95 -60.15 43.9 -59.3 44.55 -59.8 43.55 -60.7 42.7 -61.0 42.05 -60.75 Q41.8 -60.55 41.85 -60.2 41.8 -59.95 42.5 -58.4 42.9 -57.45 42.9 -56.55 42.9 -55.9 42.6 -55.6 42.2 -55.2 41.7 -55.15 L39.65 -63.4 Q39.55 -63.45 39.55 -63.45 L39.5 -63.5 39.5 -63.55 39.55 -63.55 39.55 -63.6 39.65 -63.6 39.7 -63.55 46.6 -59.45 46.65 -59.35 46.65 -59.3 46.55 -59.25 46.55 -58.0 46.6 -58.0 46.65 -57.95 46.65 -57.85 42.35 -52.9 42.35 -52.85 42.3 -52.8 39.2 -49.2 39.15 -49.2 39.1 -49.2 39.05 -49.3 39.1 -49.3 38.5 -49.8 28.4 -41.35 27.15 -41.35 16.95 -49.8 16.55 -49.25 16.6 -49.2 16.65 -49.05 21.3 -37.05 21.3 -36.95 21.25 -36.95 21.25 -36.9 21.15 -36.9 21.15 -36.95 20.7 -36.55 22.3 -34.5 Q22.85 -33.45 22.9 -31.95 22.85 -30.7 22.3 -29.6 21.85 -28.55 20.7 -27.3 L21.15 -26.85 21.2 -26.85 21.25 -26.85 21.3 -26.8 21.25 -26.7 18.45 -22.5 18.35 -22.5 18.35 -22.55 18.35 -22.6 18.35 -22.65 18.45 -22.8 17.85 -23.2 7.75 -14.75 8.2 -14.2 8.25 -14.2 8.3 -14.2 11.55 -10.45 11.55 -10.4 11.55 -10.35 11.45 -10.3 11.4 -10.35 11.0 -9.95 12.6 -7.9 Q13.1 -6.85 13.1 -5.35 13.1 -4.1 12.6 -3.0 12.15 -1.95 11.0 -0.7 L9.4 -1.45 Q4.35 -5.7 -0.75 -9.9 L-1.25 -9.3 -2.5 -9.3 -3.0 -9.9 -13.15 -1.45 -12.7 -0.9 -12.65 -0.9 -12.55 -0.9 -12.55 -0.85 -12.55 -0.8 -12.6 -0.75 -15.2 -0.1 -15.25 -0.1 -15.3 -0.15 -15.3 -0.2 -15.25 -0.25 -15.15 -0.3 -14.65 -0.4 -14.75 -0.7 Q-15.9 -1.95 -16.35 -3.0 -16.9 -4.1 -16.9 -5.35 -16.9 -6.85 -16.35 -7.9 L-14.75 -9.95 -15.15 -10.35 -15.2 -10.3 -15.25 -10.35 -15.3 -10.35 -15.3 -10.45 -12.5 -14.2 -12.45 -14.2 -12.35 -14.2 -11.9 -14.75 -22.05 -23.2 -22.6 -22.95 -22.5 -22.65 -22.45 -22.6 -22.45 -22.55 -22.5 -22.5 -22.6 -22.5 -22.6 -22.55 -24.45 -26.75 -24.45 -26.8 -24.45 -26.85 -24.35 -26.85 -23.9 -27.3 -25.5 -29.6 Q-26.05 -30.7 -26.05 -31.95 -26.05 -33.45 -25.5 -34.5 L-23.9 -36.55 -24.35 -36.95 -24.4 -36.9 -24.45 -36.95 -24.45 -37.0 -20.15 -53.4 -20.15 -53.45 -20.05 -53.45 -19.6 -53.9 Q-20.75 -55.15 -21.2 -56.2 -21.75 -57.3 -21.75 -58.55 -21.75 -60.05 -21.2 -61.1 L-19.6 -63.15 -20.05 -63.55 -20.1 -63.5 -20.15 -63.55 -20.15 -63.6 -20.15 -63.65 -9.6 -74.95 -9.55 -74.95 -9.5 -74.95 -9.45 -74.85 -8.7 -74.85 -9.9 -77.2 -11.1 -77.2 -11.1 -77.15 -11.15 -77.1 -11.2 -77.1 -11.3 -77.1 -11.3 -77.2 -10.45 -80.4 -10.45 -80.55 -10.45 -80.6 Q-12.5 -82.55 -12.5 -85.1 -12.5 -87.65 -10.35 -89.65 L-10.8 -90.1 -10.9 -90.05 -10.95 -90.1 -10.95 -90.15 -10.95 -90.25 -5.7 -93.95 -5.65 -93.95 -5.6 -93.9 -5.55 -93.9 -4.85 -93.9 -4.8 -93.95 -4.75 -93.95 -4.75 -96.15 -2.7 -95.95 -2.7 -93.35 -2.65 -93.35 -2.65 -93.3 -2.6 -93.3 -1.85 -93.3 -1.8 -93.35 6.2 -93.95 6.3 -93.95 6.3 -93.9 7.05 -93.9 7.1 -93.95 7.15 -93.95 7.15 -96.15 9.2 -95.95 9.2 -93.35 9.25 -93.35 9.25 -93.3 9.3 -93.3 10.05 -93.3 10.1 -93.35 10.15 -93.35 13.45 -90.25 13.5 -90.15 13.45 -90.1 M9.2 -99.8 L9.2 -96.8 7.15 -97.05 7.15 -100.05 9.2 -99.8 M0.0 -90.6 Q-0.35 -90.9 -0.8 -90.9 L-1.5 -90.6 -1.85 -89.85 Q-1.85 -89.45 -1.5 -89.1 -1.15 -88.75 -0.8 -88.75 -0.35 -88.75 0.0 -89.1 L0.3 -89.85 0.0 -90.6 M-0.25 -89.35 Q-0.45 -89.15 -0.8 -89.15 -1.1 -89.15 -1.25 -89.35 L-1.45 -89.85 -1.25 -90.35 Q-1.1 -90.55 -0.8 -90.55 -0.45 -90.55 -0.25 -90.35 -0.1 -90.15 -0.1 -89.85 -0.1 -89.5 -0.25 -89.35 M4.7 -88.05 Q5.75 -88.05 6.4 -87.45 7.15 -86.65 7.15 -85.05 7.15 -83.5 6.35 -82.7 5.7 -82.05 4.6 -82.05 3.8 -82.05 3.15 -82.7 2.7 -83.15 2.45 -83.9 L1.2 -83.9 Q1.5 -82.7 2.25 -82.0 3.25 -81.0 4.6 -81.0 6.25 -81.0 7.15 -81.9 8.4 -83.15 8.4 -85.05 8.4 -87.0 7.25 -88.15 6.3 -89.1 4.7 -89.1 3.15 -89.1 2.25 -88.2 1.6 -87.6 1.25 -86.65 L2.45 -86.65 3.15 -87.5 Q3.7 -88.05 4.7 -88.05 M9.4 -89.55 L10.25 -89.9 Q10.75 -89.9 11.1 -89.55 L11.4 -88.75 11.1 -87.9 Q10.75 -87.5 10.25 -87.5 9.8 -87.5 9.4 -87.9 9.05 -88.3 9.05 -88.75 9.05 -89.2 9.4 -89.55 M8.5 -88.75 Q8.5 -88.0 9.0 -87.45 9.5 -86.95 10.25 -86.95 11.0 -86.95 11.5 -87.45 12.05 -88.0 12.05 -88.75 12.05 -89.45 11.5 -89.9 11.0 -90.45 10.25 -90.45 9.5 -90.45 9.0 -89.9 8.5 -89.45 8.5 -88.75 M3.4 -71.5 L3.9 -70.75 4.9 -71.35 3.85 -72.65 Q3.15 -73.3 2.25 -73.3 1.35 -73.3 0.2 -72.6 -1.05 -71.85 -1.9 -71.85 -2.5 -71.85 -3.1 -72.45 L-3.7 -73.25 -4.6 -72.45 -3.55 -71.25 Q-2.75 -70.55 -1.75 -70.55 -1.0 -70.55 0.4 -71.35 1.5 -72.05 2.2 -72.05 2.95 -72.05 3.4 -71.5 M28.85 -40.8 L28.9 -40.8 28.95 -40.8 28.95 -40.75 28.95 -40.7 28.9 -40.65 26.6 -40.65 26.55 -40.7 26.5 -40.75 26.55 -40.8 26.6 -40.8 26.7 -40.8 28.85 -40.8 M0.15 -62.55 Q-1.25 -62.55 -2.0 -61.8 -2.65 -61.15 -2.65 -60.3 L-1.6 -60.3 Q-1.6 -60.85 -1.25 -61.2 -0.8 -61.6 0.05 -61.6 L1.4 -61.25 1.75 -60.5 Q1.75 -60.05 1.55 -59.9 1.3 -59.65 0.7 -59.45 L-1.7 -58.35 -2.4 -57.9 Q-2.9 -57.35 -2.9 -56.65 -2.9 -55.75 -2.25 -55.1 -1.55 -54.4 0.0 -54.4 1.55 -54.4 2.4 -55.25 3.0 -55.85 3.0 -57.0 L1.95 -57.0 Q1.95 -56.2 1.55 -55.8 1.05 -55.3 0.0 -55.3 -1.0 -55.3 -1.45 -55.75 -1.85 -56.1 -1.85 -56.5 L-1.55 -57.2 -0.8 -57.65 0.4 -58.2 1.35 -58.65 1.75 -58.8 2.4 -59.25 Q2.8 -59.65 2.8 -60.35 2.8 -61.25 2.15 -61.9 1.55 -62.55 0.15 -62.55 M4.1 -63.05 Q6.2 -61.05 6.2 -58.5 6.2 -55.95 4.1 -53.95 L4.6 -53.4 Q6.9 -55.6 6.9 -58.5 6.9 -61.4 4.6 -63.55 L4.1 -63.05 M7.35 -49.15 L8.05 -48.65 Q10.85 -46.75 13.8 -46.3 L14.05 -47.4 Q10.65 -47.85 7.7 -50.25 L7.0 -49.45 Q6.75 -49.15 7.35 -49.15 M6.8 -46.4 L7.25 -46.05 Q10.0 -44.15 13.2 -43.6 L13.5 -44.65 Q9.65 -45.4 7.25 -47.45 L6.6 -46.75 Q6.3 -46.3 6.8 -46.4 M2.15 -47.4 Q-1.25 -47.85 -4.15 -50.25 L-4.85 -49.45 Q-5.15 -49.15 -4.5 -49.15 L-3.85 -48.65 Q-1.05 -46.75 1.9 -46.3 L2.15 -47.4 M5.85 -43.8 Q8.3 -41.25 13.8 -40.6 L14.1 -41.75 Q8.6 -42.45 6.45 -44.9 L5.7 -44.15 Q5.3 -43.7 5.85 -43.8 M2.2 -41.75 Q-3.3 -42.45 -5.45 -44.9 L-6.2 -44.15 Q-6.6 -43.7 -6.05 -43.8 -3.6 -41.25 1.9 -40.6 L2.2 -41.75 M1.6 -44.65 Q-2.25 -45.4 -4.65 -47.45 L-5.3 -46.75 Q-5.55 -46.3 -5.1 -46.4 L-4.65 -46.05 Q-1.9 -44.15 1.3 -43.6 L1.6 -44.65 M10.65 -33.7 L9.65 -34.6 Q5.85 -32.2 4.15 -29.8 L5.3 -28.85 Q7.1 -31.4 10.65 -33.7 M-3.95 -22.5 L-4.05 -22.5 -4.05 -22.6 -5.1 -22.6 -1.95 -14.55 -1.1 -14.55 2.1 -22.6 1.05 -22.6 1.05 -22.5 0.95 -22.5 -3.95 -22.5 M8.8 -0.9 L8.85 -0.9 8.9 -0.9 8.95 -0.9 11.35 -0.3 11.5 -0.25 11.55 -0.2 11.55 -0.15 11.5 -0.1 11.45 -0.1 8.9 -0.75 8.8 -0.8 8.8 -0.85 8.8 -0.9 M-4.75 -100.05 L-2.7 -99.8 -2.7 -96.8 -4.75 -97.05 -4.75 -100.05 M-7.65 -77.2 L-8.95 -77.2 -7.35 -74.85 -6.5 -74.85 -7.65 -77.2 M-4.3 -63.55 Q-6.6 -61.4 -6.6 -58.5 -6.6 -55.6 -4.3 -53.4 L-3.8 -53.95 Q-5.9 -55.95 -5.9 -58.5 -5.9 -61.05 -3.8 -63.05 L-4.3 -63.55 M-15.75 -48.65 Q-12.95 -46.75 -10.0 -46.3 L-9.75 -47.4 Q-13.15 -47.85 -16.05 -50.25 L-16.75 -49.45 Q-17.05 -49.15 -16.4 -49.15 L-15.75 -48.65 M-17.2 -46.75 Q-17.45 -46.3 -17.0 -46.4 L-16.55 -46.05 Q-13.8 -44.15 -10.6 -43.6 L-10.3 -44.65 Q-14.15 -45.4 -16.55 -47.45 L-17.2 -46.75 M-17.95 -43.8 Q-15.5 -41.25 -10.0 -40.6 L-9.7 -41.75 Q-15.2 -42.45 -17.35 -44.9 L-18.1 -44.15 Q-18.5 -43.7 -17.95 -43.8 M-14.4 -35.9 L-4.3 -27.45 -3.75 -28.05 -13.9 -36.5 -14.4 -35.9" fill="#ffffff" fill-rule="evenodd" stroke="none"/>
  </g>
</svg>
