<svg xmlns:xlink="http://www.w3.org/1999/xlink" height="62.8px" width="61.9px" xmlns="http://www.w3.org/2000/svg">
  <g transform="matrix(1.0, 0.0, 0.0, 1.0, 21.75, 62.25)">
    <path d="M2.2 -59.2 L2.75 -58.85 5.25 -60.8 Q6.65 -61.45 8.3 -61.45 9.85 -61.45 11.15 -60.8 12.25 -60.25 13.8 -58.85 15.4 -58.0 17.05 -57.55 L16.7 -56.35 Q20.85 -53.6 22.95 -50.6 L24.35 -51.75 Q25.95 -48.1 26.4 -44.35 L25.55 -44.25 24.95 -43.7 Q26.3 -42.45 26.85 -41.3 27.45 -40.0 27.45 -38.25 27.45 -36.8 26.85 -35.5 26.3 -34.3 24.95 -32.8 L25.45 -32.1 19.75 -27.6 13.95 -17.25 14.5 -16.9 14.55 -16.95 Q19.2 -14.5 21.85 -11.7 L22.8 -10.75 23.75 -9.3 Q24.35 -8.0 24.35 -6.25 24.35 -4.8 23.75 -3.5 23.2 -2.3 21.85 -0.8 L20.65 -0.65 16.45 -0.65 16.35 -0.65 12.15 -0.65 12.15 0.0 7.05 -0.45 8.85 -3.1 Q9.55 -4.6 9.55 -6.25 9.55 -8.2 8.85 -9.65 8.2 -10.9 6.8 -12.25 L6.2 -11.7 Q7.55 -10.45 8.1 -9.3 8.7 -8.0 8.7 -6.25 8.7 -4.8 8.1 -3.5 7.55 -2.3 6.2 -0.8 L6.3 -0.35 5.0 0.0 5.0 -0.65 0.8 -0.65 0.8 0.0 0.7 0.0 0.7 -0.05 -13.25 -0.05 -14.15 -0.8 -14.15 -2.0 -17.7 -2.0 Q-20.4 -2.0 -20.35 -4.05 -20.3 -5.0 -19.15 -5.95 -17.45 -7.2 -13.85 -7.9 L-14.15 -9.2 -18.2 -7.85 Q-18.75 -8.45 -19.0 -9.5 L-19.15 -12.05 -20.5 -12.05 -19.95 -15.25 -19.9 -15.45 -19.9 -29.35 -21.0 -29.35 Q-21.6 -30.85 -21.75 -33.25 L-21.2 -32.9 -15.4 -43.25 -15.95 -43.6 Q-13.7 -46.85 -11.45 -48.95 L-0.1 -58.35 Q0.15 -58.6 0.55 -58.75 L2.2 -59.2 M8.75 -43.4 L7.45 -43.15 Q8.7 -37.8 12.0 -36.2 9.7 -36.05 7.55 -34.85 L8.55 -33.85 Q11.0 -35.1 13.75 -35.05 L14.55 -36.5 Q9.8 -38.05 8.95 -43.1 9.4 -43.5 8.75 -43.4 M-4.3 -42.1 L-3.0 -42.1 -0.2 -44.5 -2.2 -44.5 -4.3 -42.1 M18.45 -44.5 L16.8 -44.5 19.15 -42.0 20.05 -42.0 18.45 -44.5 M5.55 -32.65 L1.35 -32.65 1.35 -32.0 5.55 -32.0 5.55 -32.65 M31.4 -8.4 L31.4 -10.75 36.9 -10.75 36.9 -8.4 31.4 -8.4 M31.4 -4.9 L31.4 -7.35 36.9 -7.35 36.9 -4.9 31.4 -4.9" fill="#ffffff" fill-rule="evenodd" stroke="none"/>
    <path d="M13.8 -58.85 Q12.25 -60.25 11.15 -60.8 9.85 -61.45 8.3 -61.45 6.65 -61.45 5.25 -60.8 L2.75 -58.85 2.2 -59.2 Q3.2 -60.5 4.75 -61.3 6.5 -62.25 8.3 -62.25 10.3 -62.25 11.85 -61.3 13.15 -60.55 14.45 -59.2 L13.8 -58.85 M-0.1 -58.35 L-11.45 -48.95 -12.05 -49.7 -0.1 -59.65 0.5 -58.9 -0.1 -58.35 M-15.95 -43.6 L-15.4 -43.25 -21.2 -32.9 -21.75 -33.25 -15.95 -43.6 M-21.0 -29.35 L-19.9 -29.35 -19.9 -15.45 -21.0 -15.45 -21.0 -29.35 M-20.5 -12.05 L-19.15 -12.05 -19.0 -9.5 Q-18.75 -8.45 -18.2 -7.85 L-14.15 -9.2 -13.85 -7.9 Q-17.45 -7.2 -19.15 -5.95 -20.3 -5.0 -20.35 -4.05 -20.4 -2.0 -17.7 -2.0 L-14.15 -2.0 -14.15 -0.8 -17.7 -0.8 Q-21.4 -0.8 -21.55 -3.65 -21.6 -5.9 -19.3 -7.3 -20.5 -8.85 -20.5 -12.05 M-13.25 -0.05 L0.7 -0.05 0.7 0.0 0.7 0.55 -13.25 0.55 -13.25 -0.05 M0.8 0.0 L0.8 -0.65 5.0 -0.65 5.0 0.0 0.8 0.0 M6.2 -0.8 Q7.55 -2.3 8.1 -3.5 8.7 -4.8 8.7 -6.25 8.7 -8.0 8.1 -9.3 7.55 -10.45 6.2 -11.7 L6.8 -12.25 Q8.2 -10.9 8.85 -9.65 9.55 -8.2 9.55 -6.25 9.55 -4.6 8.85 -3.1 L7.05 -0.45 6.8 -0.2 6.2 -0.8 M12.15 0.0 L12.15 -0.65 16.35 -0.65 16.35 0.0 12.15 0.0 M16.45 -0.65 L20.65 -0.65 20.65 0.0 16.45 0.0 16.45 -0.65 M21.85 -0.8 Q23.2 -2.3 23.75 -3.5 24.35 -4.8 24.35 -6.25 24.35 -8.0 23.75 -9.3 L22.8 -10.75 21.85 -11.7 22.45 -12.25 Q23.85 -10.9 24.5 -9.65 25.2 -8.2 25.2 -6.25 25.2 -4.6 24.5 -3.1 L22.45 -0.2 21.85 -0.8 M14.55 -16.95 L14.5 -16.9 13.95 -17.25 19.75 -27.6 20.3 -27.25 14.55 -16.95 M24.95 -32.8 Q26.3 -34.3 26.85 -35.5 27.45 -36.8 27.45 -38.25 27.45 -40.0 26.85 -41.3 26.3 -42.45 24.95 -43.7 L25.55 -44.25 26.55 -43.2 27.6 -41.65 Q28.3 -40.2 28.3 -38.25 28.3 -36.6 27.6 -35.1 L25.55 -32.2 24.95 -32.8 M24.35 -51.75 L22.95 -50.6 Q20.85 -53.6 16.7 -56.35 L17.85 -57.4 Q22.3 -54.6 24.35 -51.75 M-4.3 -42.1 L-2.2 -44.5 -0.2 -44.5 -3.0 -42.1 -4.3 -42.1 M8.75 -43.4 Q9.4 -43.5 8.95 -43.1 9.8 -38.05 14.55 -36.5 L13.75 -35.05 Q11.0 -35.1 8.55 -33.85 L7.55 -34.85 Q9.7 -36.05 12.0 -36.2 8.7 -37.8 7.45 -43.15 L8.75 -43.4 M18.45 -44.5 L20.05 -42.0 19.15 -42.0 16.8 -44.5 18.45 -44.5 M5.55 -32.65 L5.55 -32.0 1.35 -32.0 1.35 -32.65 5.55 -32.65 M31.4 -8.4 L36.9 -8.4 36.9 -10.75 31.4 -10.75 31.4 -8.4 M30.3 -3.0 L30.3 -11.8 38.0 -11.8 38.0 -3.15 36.9 -3.15 36.9 -3.85 31.4 -3.85 31.4 -3.0 30.3 -3.0 M28.05 -1.9 L40.15 -1.9 40.15 -0.85 28.05 -0.85 28.05 -1.9 M31.4 -4.9 L36.9 -4.9 36.9 -7.35 31.4 -7.35 31.4 -4.9" fill="#000000" fill-rule="evenodd" stroke="none"/>
  </g>
</svg>
