<svg xmlns:xlink="http://www.w3.org/1999/xlink" height="92.85px" width="57.5px" xmlns="http://www.w3.org/2000/svg">
  <g transform="matrix(1.0, 0.0, 0.0, 1.0, 29.9, 92.85)">
    <path d="M-20.4 -63.5 L-14.6 -73.85 -15.15 -74.2 Q-13.45 -76.4 -12.4 -79.8 L-11.65 -79.55 0.3 -89.5 Q0.8 -90.15 1.8 -90.45 L2.0 -89.8 2.55 -89.45 Q3.9 -90.85 5.05 -91.4 6.45 -92.05 8.1 -92.05 9.65 -92.05 10.95 -91.4 L13.6 -89.45 14.25 -89.8 Q16.45 -89.45 17.9 -88.35 L17.65 -88.0 16.5 -86.95 Q20.65 -84.2 22.75 -81.2 24.05 -77.9 24.25 -74.3 L25.5 -72.95 26.15 -71.9 Q26.75 -70.6 26.75 -68.85 26.75 -67.4 26.15 -66.1 25.6 -64.9 24.25 -63.4 L19.6 -57.85 19.05 -58.2 13.25 -47.85 Q9.15 -46.4 6.7 -43.95 L6.7 -30.05 5.35 -27.95 5.35 -14.05 Q5.25 -11.25 5.65 -9.45 L4.4 -9.45 4.4 -3.85 Q4.4 -2.5 3.65 -1.75 3.05 -1.15 1.55 -1.15 0.1 -1.15 -0.5 -1.75 -1.3 -2.5 -1.3 -3.85 L-1.3 -9.45 -2.55 -9.45 -2.3 -14.05 -1.2 -14.05 -1.2 -27.95 -2.3 -27.95 -2.95 -27.55 -4.9 -30.05 -4.9 -43.95 -6.0 -43.95 -6.0 -42.15 -7.0 -40.5 -7.9 -41.0 -7.45 -41.85 -8.0 -42.2 -13.8 -31.85 -13.25 -31.5 Q-13.4 -28.0 -13.65 -26.2 L-19.45 -15.85 Q-21.75 -13.2 -22.5 -9.75 L-22.6 -9.45 -22.95 -9.45 -22.95 -3.85 Q-22.95 -2.5 -23.7 -1.75 -24.3 -1.15 -25.8 -1.15 -27.25 -1.15 -27.85 -1.75 -28.65 -2.5 -28.65 -3.85 L-28.65 -9.45 -28.65 -9.6 Q-29.55 -13.8 -26.5 -15.85 L-25.95 -15.5 -20.15 -25.85 -20.25 -26.2 -20.7 -30.05 -19.6 -30.05 -19.6 -43.95 -19.6 -46.05 -19.6 -59.95 -20.4 -63.5 M19.75 -75.1 L18.1 -75.1 20.45 -72.6 21.35 -72.6 19.75 -75.1 M6.85 -63.25 L2.65 -63.25 2.65 -62.6 6.85 -62.6 6.85 -63.25 M10.05 -74.0 L8.75 -73.75 Q10.0 -68.4 13.3 -66.8 11.0 -66.65 8.85 -65.45 L9.85 -64.45 Q12.3 -65.7 15.05 -65.65 L15.85 -67.1 Q11.1 -68.65 10.25 -73.7 10.7 -74.1 10.05 -74.0 M-0.9 -75.1 L-3.0 -72.7 -1.7 -72.7 1.1 -75.1 -0.9 -75.1" fill="#ffffff" fill-rule="evenodd" stroke="none"/>
    <path d="M-15.15 -74.2 L-14.6 -73.85 -20.4 -63.5 -20.95 -63.85 -15.15 -74.2 M-19.6 -59.95 L-19.6 -46.05 -20.7 -46.05 -20.7 -59.95 -19.6 -59.95 M-19.6 -43.95 L-19.6 -30.05 -20.7 -30.05 -20.7 -43.95 -19.6 -43.95 M-20.15 -25.85 L-25.95 -15.5 -26.5 -15.85 -20.7 -26.2 -20.15 -25.85 M-28.65 -9.45 L-28.65 -3.85 Q-28.65 -2.5 -27.85 -1.75 -27.25 -1.15 -25.8 -1.15 -24.3 -1.15 -23.7 -1.75 -22.95 -2.5 -22.95 -3.85 L-22.95 -9.45 -22.6 -9.45 -21.7 -9.45 -21.7 -3.85 Q-21.7 -1.95 -22.8 -0.9 -23.65 0.0 -25.8 0.0 -27.9 0.0 -28.8 -0.9 -29.9 -1.95 -29.9 -3.85 L-29.9 -9.45 -28.65 -9.45 M-19.45 -15.85 L-13.65 -26.2 -13.1 -25.85 -18.9 -15.5 -19.45 -15.85 M-13.25 -31.5 L-13.8 -31.85 -8.0 -42.2 -7.45 -41.85 -7.9 -41.0 -13.25 -31.5 M-6.0 -42.15 L-6.0 -43.95 -4.9 -43.95 -4.9 -30.05 -6.0 -30.05 -6.0 -42.15 M-2.3 -27.95 L-1.2 -27.95 -1.2 -14.05 -2.3 -14.05 -2.3 -27.95 M-2.55 -9.45 L-1.3 -9.45 -1.3 -3.85 Q-1.3 -2.5 -0.5 -1.75 0.1 -1.15 1.55 -1.15 3.05 -1.15 3.65 -1.75 4.4 -2.5 4.4 -3.85 L4.4 -9.45 5.65 -9.45 5.65 -3.85 Q5.65 -1.95 4.55 -0.9 3.7 0.0 1.55 0.0 -0.55 0.0 -1.45 -0.9 -2.55 -1.95 -2.55 -3.85 L-2.55 -9.45 M5.35 -14.05 L5.35 -27.95 6.45 -27.95 6.45 -14.05 5.35 -14.05 M6.7 -30.05 L6.7 -43.95 7.8 -43.95 7.8 -30.05 6.7 -30.05 M13.25 -47.85 L19.05 -58.2 19.6 -57.85 13.8 -47.5 13.25 -47.85 M24.25 -63.4 Q25.6 -64.9 26.15 -66.1 26.75 -67.4 26.75 -68.85 26.75 -70.6 26.15 -71.9 L25.5 -72.95 24.25 -74.3 24.85 -74.85 Q26.25 -73.5 26.9 -72.25 27.6 -70.8 27.6 -68.85 27.6 -67.2 26.9 -65.7 L24.85 -62.8 24.25 -63.4 M22.75 -81.2 Q20.65 -84.2 16.5 -86.95 L17.65 -88.0 19.2 -86.95 Q22.45 -84.7 24.15 -82.35 L22.75 -81.2 M14.25 -89.8 L13.6 -89.45 10.95 -91.4 Q9.65 -92.05 8.1 -92.05 6.45 -92.05 5.05 -91.4 3.9 -90.85 2.55 -89.45 L2.0 -89.8 2.8 -90.65 4.55 -91.9 Q6.3 -92.85 8.1 -92.85 10.1 -92.85 11.65 -91.9 12.95 -91.15 14.25 -89.8 M0.3 -89.5 L-11.65 -79.55 -12.25 -80.3 -0.3 -90.25 0.3 -89.5 M19.75 -75.1 L21.35 -72.6 20.45 -72.6 18.1 -75.1 19.75 -75.1 M-0.9 -75.1 L1.1 -75.1 -1.7 -72.7 -3.0 -72.7 -0.9 -75.1 M10.05 -74.0 Q10.7 -74.1 10.25 -73.7 11.1 -68.65 15.85 -67.1 L15.05 -65.65 Q12.3 -65.7 9.85 -64.45 L8.85 -65.45 Q11.0 -66.65 13.3 -66.8 10.0 -68.4 8.75 -73.75 L10.05 -74.0 M6.85 -63.25 L6.85 -62.6 2.65 -62.6 2.65 -63.25 6.85 -63.25" fill="#000000" fill-rule="evenodd" stroke="none"/>
  </g>
</svg>
