<svg xmlns:xlink="http://www.w3.org/1999/xlink" height="46.05px" width="43.3px" xmlns="http://www.w3.org/2000/svg">
  <g transform="matrix(1.0, 0.0, 0.0, 1.0, 16.6, 45.35)">
    <path d="M11.05 -43.05 L11.85 -42.3 11.2 -41.95 8.55 -43.9 Q7.25 -44.55 5.7 -44.55 4.05 -44.55 2.65 -43.9 L0.15 -41.95 -0.4 -42.3 0.2 -42.95 Q1.0 -43.8 2.15 -44.4 3.9 -45.35 5.7 -45.35 7.7 -45.35 9.25 -44.4 L11.05 -43.05 M-1.65 -42.85 L-7.45 -32.5 -8.0 -32.85 -2.2 -43.2 -1.65 -42.85 M-10.8 -27.2 L-10.25 -26.85 -14.8 -16.85 -16.6 -16.85 -10.8 -27.2 M-15.3 -8.75 L-14.3 -8.75 -14.3 -3.6 Q-14.3 -2.15 -13.35 -1.25 -12.85 -0.7 -12.15 -0.5 L-11.35 -0.4 -10.65 -0.45 Q-9.9 -0.65 -9.3 -1.25 -8.4 -2.15 -8.4 -3.6 L-8.4 -8.75 -7.35 -8.75 -7.35 -3.6 Q-7.35 -1.65 -8.5 -0.5 L-8.55 -0.4 Q-9.75 0.7 -11.35 0.7 -13.0 0.7 -14.2 -0.5 L-14.25 -0.55 Q-15.35 -1.7 -15.35 -3.6 L-15.35 -8.75 -15.3 -8.75 M2.3 -8.75 L3.35 -8.75 3.35 -3.6 Q3.35 -2.15 4.3 -1.25 5.1 -0.4 6.3 -0.4 7.5 -0.4 8.35 -1.25 9.25 -2.15 9.25 -3.6 L9.25 -8.75 10.3 -8.75 10.3 -3.6 Q10.3 -1.65 9.15 -0.5 L9.05 -0.35 Q7.85 0.7 6.3 0.7 4.75 0.7 3.65 -0.3 L3.45 -0.5 Q2.3 -1.65 2.3 -3.6 L2.3 -8.75 M23.35 -16.4 Q24.7 -17.9 25.25 -19.1 25.85 -20.4 25.85 -21.85 25.85 -23.6 25.25 -24.9 24.7 -26.05 23.35 -27.3 L23.95 -27.85 26.0 -25.25 Q26.7 -23.8 26.7 -21.85 26.7 -20.2 26.0 -18.7 L23.95 -15.8 23.35 -16.4 M20.4 -34.2 L20.35 -34.2 19.95 -34.75 Q17.85 -37.45 14.1 -39.95 L15.25 -41.0 Q19.7 -38.2 21.75 -35.35 L20.4 -34.2 M-4.2 -25.7 L-2.1 -28.1 -0.1 -28.1 -2.9 -25.7 -4.2 -25.7 M1.45 -16.25 L5.65 -16.25 5.65 -15.6 1.45 -15.6 1.45 -16.25 M13.85 -18.65 Q11.1 -18.7 8.65 -17.45 L7.65 -18.45 Q9.8 -19.65 12.1 -19.8 8.8 -21.4 7.55 -26.75 L8.85 -27.0 Q9.5 -27.1 9.05 -26.7 9.9 -21.65 14.65 -20.1 L13.85 -18.65 M18.55 -28.1 L20.15 -25.6 19.25 -25.6 16.9 -28.1 18.55 -28.1" fill="#000000" fill-rule="evenodd" stroke="none"/>
    <path d="M-0.4 -42.3 L0.15 -41.95 2.65 -43.9 Q4.05 -44.55 5.7 -44.55 7.25 -44.55 8.55 -43.9 L11.2 -41.95 11.85 -42.3 11.05 -43.05 Q14.25 -42.35 15.25 -41.0 L14.1 -39.95 Q17.85 -37.45 19.95 -34.75 L20.35 -34.2 20.4 -34.2 Q21.7 -32.3 22.85 -29.7 L23.95 -27.85 23.35 -27.3 Q24.7 -26.05 25.25 -24.9 25.85 -23.6 25.85 -21.85 25.85 -20.4 25.25 -19.1 24.7 -17.9 23.35 -16.4 19.75 -13.45 14.5 -12.5 L9.95 -10.8 Q9.85 -9.8 10.3 -8.75 L9.25 -8.75 9.25 -3.6 Q9.25 -2.15 8.35 -1.25 7.5 -0.4 6.3 -0.4 5.1 -0.4 4.3 -1.25 3.35 -2.15 3.35 -3.6 L3.35 -8.75 2.3 -8.75 Q3.2 -9.75 1.2 -10.7 L-1.05 -11.35 Q-5.8 -12.15 -7.35 -8.75 L-8.4 -8.75 -8.4 -3.6 Q-8.4 -2.15 -9.3 -1.25 -9.9 -0.65 -10.65 -0.45 L-11.35 -0.4 -12.15 -0.5 Q-12.85 -0.7 -13.35 -1.25 -14.3 -2.15 -14.3 -3.6 L-14.3 -8.75 -15.3 -8.75 -14.8 -16.85 -10.25 -26.85 -10.8 -27.2 Q-8.95 -29.5 -8.0 -32.7 L-7.45 -32.5 -1.65 -42.85 -0.4 -42.3 M-4.2 -25.7 L-2.9 -25.7 -0.1 -28.1 -2.1 -28.1 -4.2 -25.7 M1.45 -16.25 L1.45 -15.6 5.65 -15.6 5.65 -16.25 1.45 -16.25 M18.55 -28.1 L16.9 -28.1 19.25 -25.6 20.15 -25.6 18.55 -28.1 M13.85 -18.65 L14.65 -20.1 Q9.9 -21.65 9.05 -26.7 9.5 -27.1 8.85 -27.0 L7.55 -26.75 Q8.8 -21.4 12.1 -19.8 9.8 -19.65 7.65 -18.45 L8.65 -17.45 Q11.1 -18.7 13.85 -18.65" fill="#ffffff" fill-rule="evenodd" stroke="none"/>
  </g>
</svg>
