<?xml version="1.0" encoding="UTF-8" standalone="no"?>
<svg xmlns:ffdec="https://www.free-decompiler.com/flash" xmlns:xlink="http://www.w3.org/1999/xlink" ffdec:objectType="shape" height="80.0px" width="66.7px" xmlns="http://www.w3.org/2000/svg">
  <g transform="matrix(1.0, 0.0, 0.0, 1.0, 37.9, 79.25)">
    <path d="M-3.05 -74.8 Q0.9 -76.25 5.15 -75.55 6.35 -75.35 6.95 -74.7 5.05 -74.05 3.35 -73.2 L2.05 -72.25 2.2 -72.1 2.35 -71.95 Q4.4 -72.1 6.25 -70.85 L9.3 -68.55 10.0 -67.9 8.35 -67.55 5.3 -67.0 5.05 -66.9 5.05 -66.55 5.05 -66.3 Q4.6 -59.6 0.55 -54.8 L1.6 -54.55 2.75 -54.7 Q4.85 -55.0 6.95 -55.75 L9.25 -56.2 9.85 -56.35 11.2 -57.0 Q11.05 -55.55 10.1 -54.3 L9.6 -53.8 9.55 -53.8 9.15 -53.4 9.7 -53.2 10.15 -53.2 10.3 -53.2 Q13.45 -53.15 16.4 -51.6 17.5 -51.05 18.65 -50.6 17.45 -50.0 16.25 -49.05 L14.65 -48.05 14.85 -47.75 16.0 -47.45 18.95 -46.35 20.6 -45.9 22.4 -45.65 23.05 -45.6 20.05 -43.15 18.8 -42.35 18.9 -42.2 Q21.4 -41.35 23.95 -41.05 L27.1 -40.9 Q24.8 -39.05 22.1 -37.9 L20.9 -37.3 22.0 -36.6 Q23.55 -35.6 25.3 -34.8 27.0 -34.05 28.8 -33.65 L26.15 -32.55 24.6 -32.1 25.3 -30.3 Q25.9 -27.65 24.05 -25.8 22.4 -24.1 20.4 -23.0 L18.65 -21.95 21.1 -20.55 Q23.35 -19.25 24.7 -16.8 L25.0 -16.0 Q25.45 -14.3 25.15 -12.45 24.65 -9.65 22.45 -7.7 L17.9 -3.95 17.35 -3.55 Q15.2 -2.45 13.8 -0.6 L13.45 -0.3 Q11.35 0.7 8.65 0.75 L3.0 0.2 2.7 -0.05 Q2.05 -1.5 3.65 -1.9 L6.35 -2.25 6.75 -2.35 11.45 -5.35 Q13.85 -7.0 15.85 -9.1 L17.05 -10.5 Q18.05 -11.85 18.3 -13.35 18.4 -13.95 18.15 -14.15 L15.35 -15.85 12.0 -17.2 12.15 -17.0 13.0 -16.15 13.4 -15.4 13.8 -13.35 Q13.9 -11.85 12.8 -11.0 L10.7 -9.3 6.3 -5.95 4.95 -4.5 Q4.35 -3.5 3.3 -2.85 1.5 -1.7 -1.2 -1.95 L-1.65 -1.95 Q-4.0 -2.05 -4.25 -4.25 L-4.05 -4.75 Q-3.4 -5.0 -2.9 -5.2 L0.2 -6.55 Q2.65 -7.6 4.7 -9.7 6.2 -11.25 6.35 -13.05 L6.25 -13.6 Q5.8 -14.85 4.45 -15.5 2.15 -16.65 0.05 -18.7 -2.15 -20.75 -2.5 -23.65 -2.75 -25.9 -1.15 -27.4 L3.25 -31.15 Q4.2 -31.9 4.9 -31.85 L4.85 -32.0 Q4.45 -34.75 4.6 -37.6 L4.6 -40.5 2.9 -40.35 2.4 -40.0 Q0.85 -38.75 -0.1 -37.1 L-0.2 -36.85 -1.4 -31.35 Q-1.5 -30.9 -1.95 -30.4 L-2.25 -30.05 -2.45 -30.0 Q-2.75 -30.55 -2.65 -31.5 L-2.3 -36.35 Q-4.85 -34.6 -5.45 -31.65 -5.3 -35.1 -3.75 -37.95 L-2.55 -40.1 Q-1.8 -41.4 -0.5 -42.05 1.45 -43.05 3.8 -43.7 L3.9 -43.7 Q3.2 -44.85 1.85 -45.65 L1.45 -45.85 Q0.95 -45.0 0.05 -44.5 -2.75 -42.9 -6.35 -41.8 -7.85 -41.3 -9.55 -41.15 L-12.15 -41.15 -18.8 -41.95 Q-20.45 -42.3 -21.95 -43.05 -23.35 -43.75 -24.85 -44.0 -30.85 -45.15 -35.8 -48.45 L-35.9 -48.5 -35.75 -48.55 -31.55 -48.2 -30.8 -47.95 -30.25 -47.7 -27.6 -47.0 -30.15 -48.1 -31.55 -48.6 -34.25 -49.4 -37.0 -50.0 Q-38.0 -50.1 -37.9 -51.2 -36.6 -51.95 -35.3 -52.15 L-29.55 -51.7 -29.25 -51.6 Q-27.65 -51.25 -26.25 -50.35 -24.5 -49.15 -22.25 -48.3 -20.6 -47.65 -19.15 -46.6 -16.75 -44.95 -13.8 -44.95 L-13.05 -44.9 Q-10.1 -44.75 -7.65 -45.7 L-6.3 -46.25 Q-5.15 -46.75 -3.7 -47.75 L-4.1 -47.95 -5.9 -48.95 -6.85 -48.1 -8.0 -47.5 Q-10.3 -46.5 -12.85 -46.6 L-14.5 -46.7 Q-16.45 -47.8 -17.85 -49.65 L-18.0 -49.85 -18.25 -50.3 -18.5 -50.7 Q-21.15 -55.25 -21.65 -58.85 -21.95 -61.3 -21.7 -63.85 L-21.35 -66.15 Q-20.9 -68.35 -19.25 -69.95 -15.35 -73.7 -10.45 -75.35 L-9.25 -75.6 -8.8 -75.6 -6.3 -77.4 Q-3.75 -79.05 -0.75 -79.25 L-0.3 -79.25 0.6 -79.25 -2.4 -75.9 -3.2 -74.9 -3.25 -74.85 -3.05 -74.8 -0.45 -73.95 Q1.0 -73.4 2.05 -72.25 1.0 -73.4 -0.45 -73.95 L-3.05 -74.8 -3.35 -74.7 -3.25 -74.85 -3.35 -74.7 -3.05 -74.8 M2.35 -71.95 L1.65 -71.85 2.05 -72.25 1.65 -71.85 2.35 -71.95 Q3.9 -70.15 4.75 -68.0 L5.05 -66.9 4.75 -68.0 Q3.9 -70.15 2.35 -71.95 M11.7 -17.25 L12.0 -17.2 11.75 -17.45 11.7 -17.3 11.7 -17.25 10.15 -17.55 7.55 -18.1 Q4.65 -18.85 2.6 -20.95 2.15 -21.4 2.2 -21.95 2.3 -24.2 3.95 -25.9 L4.35 -26.4 Q4.85 -27.3 5.5 -28.0 L5.95 -28.45 Q5.1 -30.05 4.9 -31.85 5.1 -30.05 5.95 -28.45 L6.9 -29.3 9.0 -30.95 13.95 -33.95 9.0 -30.95 6.9 -29.3 5.95 -28.45 5.5 -28.0 Q4.85 -27.3 4.35 -26.4 L3.95 -25.9 Q2.3 -24.2 2.2 -21.95 2.15 -21.4 2.6 -20.95 4.65 -18.85 7.55 -18.1 L10.15 -17.55 11.7 -17.25 11.7 -17.3 11.75 -17.45 12.0 -17.2 11.7 -17.25 M4.85 -44.25 Q4.5 -44.3 3.95 -43.8 L3.9 -43.7 3.95 -43.8 Q4.5 -44.3 4.85 -44.25 M1.6 -46.2 L1.45 -45.85 1.25 -46.0 -0.55 -46.65 -3.7 -47.75 -3.35 -48.05 -3.7 -47.75 -0.55 -46.65 1.25 -46.0 1.45 -45.85 1.6 -46.2 M21.0 -35.1 L21.35 -34.95 23.0 -34.0 Q24.0 -33.3 24.6 -32.1 24.0 -33.3 23.0 -34.0 L21.35 -34.95 21.0 -35.1 18.8 -35.9 21.0 -35.1 20.7 -37.25 20.3 -39.05 Q19.9 -40.6 19.05 -41.95 L18.9 -42.2 18.65 -42.3 18.8 -42.35 15.7 -46.6 14.85 -47.75 14.25 -47.9 14.65 -48.05 14.1 -49.05 Q12.8 -51.85 10.25 -52.95 L9.7 -53.2 8.95 -53.2 9.15 -53.4 4.7 -53.9 2.85 -54.15 1.6 -54.55 2.85 -54.15 4.7 -53.9 9.15 -53.4 8.95 -53.2 9.7 -53.2 10.25 -52.95 Q12.8 -51.85 14.1 -49.05 L14.65 -48.05 14.25 -47.9 14.85 -47.75 15.7 -46.6 18.8 -42.35 18.65 -42.3 18.9 -42.2 19.05 -41.95 Q19.9 -40.6 20.3 -39.05 L20.7 -37.25 21.0 -35.1 M4.6 -40.5 L4.85 -40.5 Q7.45 -40.1 9.7 -40.95 11.75 -41.7 11.4 -44.1 11.2 -45.4 10.6 -46.65 9.95 -48.0 8.45 -49.05 L7.75 -49.6 Q5.85 -51.0 3.65 -49.9 L3.3 -49.6 Q2.7 -48.8 3.2 -47.9 2.7 -48.8 3.3 -49.6 L3.65 -49.9 Q5.85 -51.0 7.75 -49.6 L8.45 -49.05 Q9.95 -48.0 10.6 -46.65 11.2 -45.4 11.4 -44.1 11.75 -41.7 9.7 -40.95 7.45 -40.1 4.85 -40.5 L4.6 -40.5 M5.05 -66.55 Q4.55 -66.8 5.05 -66.9 4.55 -66.8 5.05 -66.55 M-3.25 -74.85 L-8.35 -75.6 -8.8 -75.6 -8.35 -75.6 -3.25 -74.85 M-20.8 -58.9 Q-20.05 -58.25 -18.8 -57.8 -18.2 -57.95 -17.6 -58.45 L-18.3 -61.65 -19.8 -63.15 Q-20.35 -63.55 -21.7 -63.85 -20.35 -63.55 -19.8 -63.15 L-18.3 -61.65 -17.6 -58.45 Q-18.2 -57.95 -18.8 -57.8 -20.05 -58.25 -20.8 -58.9 M-13.7 -60.45 Q-13.3 -61.3 -9.7 -62.45 L-4.85 -64.0 -4.15 -63.35 Q-3.6 -60.85 -5.3 -59.3 L-5.6 -59.0 Q-9.05 -55.05 -12.55 -59.25 -9.05 -55.05 -5.6 -59.0 L-5.3 -59.3 Q-3.6 -60.85 -4.15 -63.35 L-4.85 -64.0 -9.7 -62.45 Q-13.3 -61.3 -13.7 -60.45 M-14.55 -51.15 L-14.9 -51.95 -15.35 -53.0 -15.65 -53.35 -15.35 -53.0 -14.9 -51.95 -14.55 -51.15 -14.4 -51.15 -14.55 -51.15 -14.45 -50.95 -14.4 -51.15 -14.35 -51.65 -14.25 -53.1 -13.3 -51.6 -13.25 -51.45 -13.15 -52.1 -13.1 -52.8 -13.1 -53.25 -13.1 -52.8 -13.15 -52.1 -13.25 -51.45 -13.3 -51.6 -14.25 -53.1 -14.35 -51.65 -14.4 -51.15 -14.45 -50.95 -14.55 -51.15 -15.45 -51.1 -14.55 -51.15 M-15.65 -53.35 L-14.15 -53.45 -13.1 -53.25 -14.15 -53.45 -15.65 -53.35 M-5.9 -48.95 L-5.75 -49.05 -1.6 -52.7 0.55 -54.8 -1.6 -52.7 -5.75 -49.05 -5.9 -48.95 M-13.1 -53.25 Q-11.9 -53.4 -9.45 -54.35 -12.9 -51.8 -12.65 -51.55 -13.1 -51.2 -14.4 -51.15 -13.1 -51.2 -12.65 -51.55 -12.9 -51.8 -9.45 -54.35 -11.9 -53.4 -13.1 -53.25" fill="#ffffff" fill-rule="evenodd" stroke="none"/>
    <path d="M2.05 -72.25 L2.2 -72.1 2.35 -71.95 Q3.9 -70.15 4.75 -68.0 L5.05 -66.9 5.05 -66.55 5.05 -66.3 Q4.6 -59.6 0.55 -54.8 L-1.6 -52.7 -5.75 -49.05 -5.9 -48.95 -6.85 -48.1 -8.0 -47.5 Q-10.3 -46.5 -12.85 -46.6 L-14.5 -46.7 Q-16.45 -47.8 -17.85 -49.65 L-18.0 -49.85 -18.25 -50.3 -18.5 -50.7 Q-21.15 -55.25 -21.65 -58.85 -21.95 -61.3 -21.7 -63.85 L-21.35 -66.15 Q-20.9 -68.35 -19.25 -69.95 -15.35 -73.7 -10.45 -75.35 L-9.25 -75.6 M-3.25 -74.85 L-3.05 -74.8 -0.45 -73.95 Q1.0 -73.4 2.05 -72.25 M-8.8 -75.6 L-8.35 -75.6 -3.25 -74.85 M-12.55 -59.25 Q-9.05 -55.05 -5.6 -59.0 L-5.3 -59.3 Q-3.6 -60.85 -4.15 -63.35 L-4.85 -64.0 -9.7 -62.45 Q-13.3 -61.3 -13.7 -60.45 M-21.7 -63.85 Q-20.35 -63.55 -19.8 -63.15 L-18.3 -61.65 -17.6 -58.45 Q-18.2 -57.95 -18.8 -57.8 -20.05 -58.25 -20.8 -58.9 M-14.55 -51.15 L-14.4 -51.15 Q-13.1 -51.2 -12.65 -51.55 -12.9 -51.8 -9.45 -54.35 -11.9 -53.4 -13.1 -53.25 L-14.15 -53.45 -15.65 -53.35 M-14.55 -51.15 L-15.45 -51.1" fill="none" stroke="#000000" stroke-linecap="round" stroke-linejoin="round" stroke-width="0.05"/>
    <path d="M-3.05 -74.8 Q0.9 -76.25 5.15 -75.55 6.35 -75.35 6.95 -74.7 5.05 -74.05 3.35 -73.2 L2.05 -72.25 1.65 -71.85 2.35 -71.95 Q4.4 -72.1 6.25 -70.85 L9.3 -68.55 10.0 -67.9 8.35 -67.55 5.3 -67.0 5.05 -66.9 Q4.55 -66.8 5.05 -66.55 M0.55 -54.8 L1.6 -54.55 2.75 -54.7 Q4.85 -55.0 6.95 -55.75 L9.25 -56.2 9.85 -56.35 11.2 -57.0 Q11.05 -55.55 10.1 -54.3 L9.6 -53.8 9.55 -53.8 9.15 -53.4 9.7 -53.2 10.15 -53.2 10.3 -53.2 Q13.45 -53.15 16.4 -51.6 17.5 -51.05 18.65 -50.6 17.45 -50.0 16.25 -49.05 L14.65 -48.05 14.85 -47.75 16.0 -47.45 18.95 -46.35 20.6 -45.9 22.4 -45.65 23.05 -45.6 20.05 -43.15 18.8 -42.35 18.9 -42.2 Q21.4 -41.35 23.95 -41.05 L27.1 -40.9 Q24.8 -39.05 22.1 -37.9 L20.9 -37.3 22.0 -36.6 Q23.55 -35.6 25.3 -34.8 27.0 -34.05 28.8 -33.65 L26.15 -32.55 24.6 -32.1 25.3 -30.3 Q25.9 -27.65 24.05 -25.8 22.4 -24.1 20.4 -23.0 L18.65 -21.95 21.1 -20.55 Q23.35 -19.25 24.7 -16.8 L25.0 -16.0 Q25.45 -14.3 25.15 -12.45 24.65 -9.65 22.45 -7.7 L17.9 -3.95 17.35 -3.55 Q15.2 -2.45 13.8 -0.6 L13.45 -0.3 Q11.35 0.7 8.65 0.75 L3.0 0.2 2.7 -0.05 Q2.05 -1.5 3.65 -1.9 L6.35 -2.25 6.75 -2.35 11.45 -5.35 Q13.85 -7.0 15.85 -9.1 L17.05 -10.5 Q18.05 -11.85 18.3 -13.35 18.4 -13.95 18.15 -14.15 L15.35 -15.85 12.0 -17.2 12.15 -17.0 13.0 -16.15 13.4 -15.4 13.8 -13.35 Q13.9 -11.85 12.8 -11.0 L10.7 -9.3 6.3 -5.95 4.95 -4.5 Q4.35 -3.5 3.3 -2.85 1.5 -1.7 -1.2 -1.95 L-1.65 -1.95 Q-4.0 -2.05 -4.25 -4.25 L-4.05 -4.75 Q-3.4 -5.0 -2.9 -5.2 L0.2 -6.55 Q2.65 -7.6 4.7 -9.7 6.2 -11.25 6.35 -13.05 L6.25 -13.6 Q5.8 -14.85 4.45 -15.5 2.15 -16.65 0.05 -18.7 -2.15 -20.75 -2.5 -23.65 -2.75 -25.9 -1.15 -27.4 L3.25 -31.15 Q4.2 -31.9 4.9 -31.85 L4.85 -32.0 Q4.45 -34.75 4.6 -37.6 L4.6 -40.5 2.9 -40.35 2.4 -40.0 Q0.85 -38.75 -0.1 -37.1 L-0.2 -36.85 -1.4 -31.35 Q-1.5 -30.9 -1.95 -30.4 L-2.25 -30.05 -2.45 -30.0 Q-2.75 -30.55 -2.65 -31.5 L-2.3 -36.35 Q-4.85 -34.6 -5.45 -31.65 -5.3 -35.1 -3.75 -37.95 L-2.55 -40.1 Q-1.8 -41.4 -0.5 -42.05 1.45 -43.05 3.8 -43.7 L3.9 -43.7 Q3.2 -44.85 1.85 -45.65 L1.45 -45.85 Q0.95 -45.0 0.05 -44.5 -2.75 -42.9 -6.35 -41.8 -7.85 -41.3 -9.55 -41.15 L-12.15 -41.15 -18.8 -41.95 Q-20.45 -42.3 -21.95 -43.05 -23.35 -43.75 -24.85 -44.0 -30.85 -45.15 -35.8 -48.45 L-35.9 -48.5 -35.75 -48.55 -31.55 -48.2 -30.8 -47.95 -30.25 -47.7 -27.6 -47.0 -30.15 -48.1 -31.55 -48.6 -34.25 -49.4 -37.0 -50.0 Q-38.0 -50.1 -37.9 -51.2 -36.6 -51.95 -35.3 -52.15 L-29.55 -51.7 -29.25 -51.6 Q-27.65 -51.25 -26.25 -50.35 -24.5 -49.15 -22.25 -48.3 -20.6 -47.65 -19.15 -46.6 -16.75 -44.95 -13.8 -44.95 L-13.05 -44.9 Q-10.1 -44.75 -7.65 -45.7 L-6.3 -46.25 Q-5.15 -46.75 -3.7 -47.75 L-4.1 -47.95 -5.9 -48.95 M-9.25 -75.6 L-8.8 -75.6 -6.3 -77.4 Q-3.75 -79.05 -0.75 -79.25 L-0.3 -79.25 0.6 -79.25 -2.4 -75.9 -3.2 -74.9 -3.25 -74.85 -3.35 -74.7 -3.05 -74.8 M3.2 -47.9 Q2.7 -48.8 3.3 -49.6 L3.65 -49.9 Q5.85 -51.0 7.75 -49.6 L8.45 -49.05 Q9.95 -48.0 10.6 -46.65 11.2 -45.4 11.4 -44.1 11.75 -41.7 9.7 -40.95 7.45 -40.1 4.85 -40.5 L4.6 -40.5 M18.8 -35.9 L21.0 -35.1 20.7 -37.25 20.3 -39.05 Q19.9 -40.6 19.05 -41.95 L18.9 -42.2 18.65 -42.3 18.8 -42.35 15.7 -46.6 14.85 -47.75 14.25 -47.9 14.65 -48.05 14.1 -49.05 Q12.8 -51.85 10.25 -52.95 L9.7 -53.2 8.95 -53.2 9.15 -53.4 4.7 -53.9 2.85 -54.15 1.6 -54.55 M24.6 -32.1 Q24.0 -33.3 23.0 -34.0 L21.35 -34.95 21.0 -35.1 M-3.35 -48.05 L-3.7 -47.75 -0.55 -46.65 1.25 -46.0 1.45 -45.85 1.6 -46.2 M3.9 -43.7 L3.95 -43.8 Q4.5 -44.3 4.85 -44.25 M4.9 -31.85 Q5.1 -30.05 5.95 -28.45 L6.9 -29.3 9.0 -30.95 13.95 -33.95 M5.95 -28.45 L5.5 -28.0 Q4.85 -27.3 4.35 -26.4 L3.95 -25.9 Q2.3 -24.2 2.2 -21.95 2.15 -21.4 2.6 -20.95 4.65 -18.85 7.55 -18.1 L10.15 -17.55 11.7 -17.25 11.7 -17.3 11.75 -17.45 12.0 -17.2 11.7 -17.25 M-15.65 -53.35 L-15.35 -53.0 -14.9 -51.95 -14.55 -51.15 -14.45 -50.95 -14.4 -51.15 -14.35 -51.65 -14.25 -53.1 -13.3 -51.6 -13.25 -51.45 -13.15 -52.1 -13.1 -52.8 -13.1 -53.25" fill="none" stroke="#000000" stroke-linecap="round" stroke-linejoin="round" stroke-width="0.05"/>
  </g>
</svg>
