<svg xmlns:xlink="http://www.w3.org/1999/xlink" height="112.95px" width="63.85px" xmlns="http://www.w3.org/2000/svg">
  <g transform="matrix(1.0, 0.0, 0.0, 1.0, 31.9, 56.5)">
    <path d="M14.15 -54.0 L17.2 -52.4 17.3 -52.35 19.0 -51.25 21.0 -48.95 21.45 -49.3 Q24.35 -46.6 26.6 -42.95 L26.7 -43.0 27.95 -41.5 28.2 -41.05 Q28.7 -40.0 28.7 -38.75 28.7 -36.95 27.55 -35.45 L26.75 -34.55 26.7 -34.55 27.15 -34.1 27.35 -34.25 27.55 -34.15 27.4 -34.3 27.55 -34.5 28.0 -34.7 28.65 -33.3 Q29.4 -31.55 29.55 -29.5 L29.15 -29.4 29.15 -28.25 29.55 -28.25 29.55 -26.9 29.15 -26.9 29.15 -22.1 29.05 -22.05 29.65 -17.25 29.35 -17.0 29.7 -16.65 29.7 -16.6 31.35 -13.35 31.35 -12.75 Q31.35 -10.4 29.35 -8.55 L29.8 -8.1 30.55 -8.85 29.35 -5.85 26.35 -4.0 26.35 -4.05 25.55 -4.45 22.4 2.4 19.25 -4.45 18.45 -4.05 18.45 -3.7 15.2 -3.7 15.35 -4.05 14.55 -4.45 11.4 2.4 8.25 -4.45 7.45 -4.05 7.6 -3.7 2.05 -3.3 2.25 -3.75 1.8 -4.0 -2.75 4.15 Q-2.5 4.3 -2.3 4.4 L-2.1 4.05 Q-1.45 6.45 -1.05 8.85 L-0.75 10.75 -0.75 10.8 -0.85 10.75 -1.8 11.55 Q1.5 13.7 3.1 16.05 L3.7 15.55 Q4.65 18.35 4.85 21.6 L4.4 22.0 4.85 22.45 5.05 22.65 Q6.4 24.25 6.4 26.25 6.4 28.6 4.4 30.45 L4.85 30.9 4.95 30.95 Q3.7 33.4 1.9 35.4 L1.6 34.95 -7.8 42.8 -7.3 43.35 -7.15 43.55 Q-4.2 46.0 -3.2 49.05 L-3.25 49.2 -3.2 49.2 -3.25 51.95 -2.7 52.15 -2.85 53.9 -3.25 53.75 -3.45 54.8 Q-3.25 54.85 -3.1 54.95 L-5.75 55.1 -5.9 54.9 -5.05 54.15 Q-6.65 51.95 -10.1 49.75 L-11.05 50.55 -11.45 50.35 Q-14.85 46.8 -17.7 44.6 L-18.4 44.2 Q-19.4 43.8 -19.75 45.15 -20.15 46.75 -21.4 48.1 L-21.55 48.0 -22.0 48.55 -21.95 48.6 -22.45 49.05 -24.7 50.3 -25.6 49.7 -26.3 50.35 Q-27.35 50.05 -28.2 48.85 -28.95 47.8 -29.5 46.1 -29.6 45.8 -28.6 45.55 -25.8 44.95 -24.55 43.2 L-24.15 43.4 -19.6 35.25 -19.75 35.15 -16.05 29.4 -14.9 30.35 -14.45 29.8 -23.8 21.95 -24.25 22.55 Q-27.65 20.35 -28.35 17.55 L-28.0 17.95 -27.55 17.5 -29.05 15.35 Q-29.55 14.35 -29.55 13.2 -29.55 11.8 -29.05 10.8 L-28.35 9.8 -28.15 9.55 -27.55 8.95 -27.9 8.6 Q-26.95 5.3 -24.65 3.2 L-24.3 3.65 -23.6 4.5 Q-21.5 3.3 -20.25 1.15 -18.9 -1.0 -18.75 -3.75 L-19.7 -4.0 -19.7 -4.05 -19.7 -4.1 Q-20.15 -5.6 -20.9 -5.75 -25.15 -6.6 -29.5 -8.15 L-29.15 -8.55 Q-31.1 -10.4 -31.1 -12.75 -31.1 -15.15 -29.15 -17.0 L-29.6 -17.45 -30.05 -17.0 Q-30.65 -19.45 -31.4 -21.6 L-26.9 -29.75 -27.15 -29.9 -25.75 -31.65 -22.3 -34.1 -21.85 -34.55 Q-23.8 -36.4 -23.8 -38.75 -23.8 -41.15 -21.85 -43.0 L-22.3 -43.45 -21.35 -44.2 -21.4 -44.25 -16.45 -49.9 -16.0 -49.9 Q-16.5 -49.25 -17.1 -48.75 L-16.4 -47.85 Q-15.45 -48.7 -14.7 -49.9 L-11.7 -49.9 -11.7 -48.75 -11.0 -47.85 Q-10.05 -48.7 -9.3 -49.9 L-5.2 -49.9 -6.3 -48.75 -5.6 -47.85 Q-4.65 -48.7 -3.9 -49.9 L-0.35 -49.9 1.0 -51.1 Q0.2 -49.65 -0.9 -48.75 L-0.2 -47.85 0.45 -48.45 Q2.0 -50.15 2.85 -52.85 L4.3 -54.2 4.75 -54.3 4.75 -54.15 5.15 -53.85 5.9 -54.5 7.15 -55.4 Q8.25 -55.9 9.55 -55.9 L11.15 -55.65 11.1 -55.6 13.0 -54.6 13.9 -53.85 14.15 -54.0 M21.1 -40.15 L20.9 -39.3 23.75 -38.6 24.45 -38.35 25.0 -38.15 25.35 -39.05 23.6 -39.6 23.2 -39.7 21.1 -40.15 M23.8 -41.65 L25.3 -41.2 25.65 -42.15 22.3 -42.95 21.25 -43.15 21.0 -42.3 22.85 -41.9 23.8 -41.65 M25.8 -35.0 L26.0 -35.4 23.8 -36.2 23.75 -36.25 20.9 -37.0 20.6 -36.15 23.85 -35.2 25.5 -34.4 25.8 -35.0 M3.0 -17.45 Q1.95 -16.45 1.4 -15.25 0.85 -14.1 0.85 -12.75 0.85 -10.1 3.0 -8.1 L3.45 -8.55 Q1.5 -10.4 1.5 -12.75 1.5 -15.15 3.45 -17.0 L3.0 -17.45 M0.6 -29.75 L0.15 -30.0 -4.4 -21.85 -3.95 -21.6 0.6 -29.75 M5.8 -29.4 L4.95 -29.4 4.95 -28.25 5.8 -28.25 5.8 -29.4 M5.8 -26.9 L4.95 -26.9 4.95 -22.1 5.8 -22.1 5.8 -26.9 M4.8 -38.75 Q4.8 -41.45 2.65 -43.45 L2.2 -43.0 Q4.2 -41.15 4.2 -38.75 4.2 -36.4 2.2 -34.55 L2.65 -34.1 Q4.8 -36.1 4.8 -38.75 M-5.8 21.55 L-6.25 22.0 Q-4.25 23.85 -4.25 26.25 -4.25 28.6 -6.25 30.45 L-5.8 30.9 Q-3.65 28.9 -3.65 26.25 -3.65 23.55 -5.8 21.55 M-18.3 8.95 L-18.8 9.55 -9.4 17.35 -8.95 16.8 -18.3 8.95 M-3.1 9.25 L-3.55 9.0 -8.1 17.15 -7.65 17.4 -3.1 9.25 M-4.8 -8.85 L-4.35 -8.6 0.2 -16.75 -0.25 -17.0 -4.8 -8.85 M-16.0 -13.05 L-18.15 -13.7 -20.25 -14.15 -20.45 -13.3 -16.9 -12.35 -16.35 -12.15 -16.0 -13.05 M-15.7 -16.15 L-20.1 -17.15 -20.35 -16.3 -17.55 -15.65 -16.05 -15.2 -15.7 -16.15 M-5.95 -18.35 L-6.8 -18.35 -6.8 -7.45 -5.95 -7.45 -5.95 -18.35 M-20.45 -11.0 L-20.75 -10.15 -20.65 -10.1 Q-18.1 -9.7 -15.85 -8.4 L-15.35 -9.4 -17.6 -10.25 -20.45 -11.0 M-14.6 -30.05 L-15.1 -29.45 -5.7 -21.65 -5.25 -22.2 -14.6 -30.05 M-18.9 -29.4 L-16.8 -27.85 -16.35 -28.15 -18.35 -29.75 Q-19.6 -30.5 -21.15 -30.5 L-21.4 -30.5 Q-22.65 -30.45 -23.95 -29.75 -25.15 -29.15 -25.95 -28.15 L-25.55 -27.85 -23.55 -29.4 -21.7 -29.85 -21.15 -29.9 -18.9 -29.4 M-19.55 -43.85 Q-19.85 -44.15 -20.25 -44.15 L-20.95 -43.85 -21.25 -43.15 -20.95 -42.45 Q-20.65 -42.15 -20.25 -42.15 -19.85 -42.15 -19.55 -42.45 -19.25 -42.75 -19.25 -43.15 L-19.55 -43.85 M-20.25 -43.8 L-19.8 -43.65 -19.6 -43.15 Q-19.6 -42.85 -19.8 -42.7 -19.95 -42.5 -20.25 -42.5 L-20.75 -42.7 -20.9 -43.15 -20.75 -43.65 -20.25 -43.8 M-9.75 -40.7 L-9.75 -41.5 -14.4 -41.5 Q-15.6 -41.5 -16.4 -40.7 -17.15 -40.0 -17.15 -38.85 -17.15 -37.6 -16.4 -36.9 -15.7 -36.15 -14.4 -36.15 L-9.75 -36.15 -9.75 -36.95 -14.4 -36.95 Q-15.25 -36.95 -15.7 -37.45 L-15.75 -37.5 -16.2 -38.45 -9.75 -38.45 -9.75 -39.25 -16.2 -39.25 -15.75 -40.2 Q-15.25 -40.7 -14.4 -40.7 L-9.75 -40.7 M-6.7 -44.15 Q-7.1 -44.15 -7.4 -43.85 L-7.7 -43.15 -7.45 -42.5 -7.4 -42.45 Q-7.1 -42.15 -6.7 -42.15 -6.3 -42.15 -6.0 -42.45 -5.7 -42.75 -5.7 -43.15 -5.7 -43.55 -6.0 -43.85 L-6.7 -44.15 M-7.2 -43.65 L-6.7 -43.8 -6.25 -43.65 -6.05 -43.15 -6.25 -42.7 Q-6.4 -42.5 -6.7 -42.5 L-7.2 -42.7 -7.35 -43.15 -7.2 -43.65 M-8.95 35.55 L-9.4 34.95 -18.8 42.8 -18.3 43.35 -8.95 35.55" fill="#ffffff" fill-rule="evenodd" stroke="none"/>
    <path d="M4.75 -54.15 L4.9 -54.3 Q5.65 -55.2 6.75 -55.75 8.15 -56.5 9.55 -56.5 11.1 -56.5 12.35 -55.75 13.35 -55.15 14.35 -54.15 L14.15 -54.0 13.9 -53.85 13.0 -54.6 11.8 -55.4 11.15 -55.65 9.55 -55.9 Q8.25 -55.9 7.15 -55.4 L5.9 -54.5 5.15 -53.85 4.75 -54.15 M19.0 -51.25 L17.45 -52.5 17.4 -52.55 16.1 -53.45 17.05 -54.25 Q20.5 -52.05 22.1 -49.85 L21.45 -49.3 21.0 -48.95 19.0 -51.25 M26.7 -43.0 L27.15 -43.45 Q28.45 -42.25 28.95 -40.8 29.3 -39.85 29.3 -38.75 29.3 -36.6 27.9 -34.9 L27.55 -34.5 27.4 -34.3 27.35 -34.25 27.15 -34.1 26.7 -34.55 26.75 -34.55 27.55 -35.45 Q28.7 -36.95 28.7 -38.75 28.7 -40.0 28.2 -41.05 L27.95 -41.5 26.7 -43.0 M29.15 -29.4 L30.0 -29.4 30.0 -28.25 29.55 -28.25 29.15 -28.25 29.15 -29.4 M29.55 -26.9 L30.0 -26.9 30.0 -22.1 29.15 -22.1 29.15 -26.9 29.55 -26.9 M29.65 -17.25 L29.8 -17.45 Q31.95 -15.45 31.95 -12.75 31.95 -10.6 30.55 -8.85 L29.8 -8.1 29.35 -8.55 Q31.35 -10.4 31.35 -12.75 L31.35 -13.35 Q31.1 -15.2 29.7 -16.65 L29.35 -17.0 29.65 -17.25 M26.35 -4.0 L22.4 4.55 18.45 -4.05 19.25 -4.45 22.4 2.4 25.55 -4.45 26.35 -4.05 26.35 -4.0 M15.2 -3.7 L11.4 4.55 7.6 -3.7 7.45 -4.05 8.25 -4.45 11.4 2.4 14.55 -4.45 15.35 -4.05 15.2 -3.7 M2.05 -3.3 L-2.1 4.05 -2.3 4.4 Q-2.5 4.3 -2.75 4.15 L1.8 -4.0 2.25 -3.75 2.05 -3.3 M-0.75 10.8 L-0.45 11.0 Q2.7 13.1 4.2 15.15 L3.8 15.5 3.7 15.55 3.1 16.05 Q1.5 13.7 -1.8 11.55 L-0.85 10.75 -0.75 10.8 M4.85 21.6 L4.85 21.55 Q7.0 23.55 7.0 26.25 7.0 28.4 5.6 30.1 L5.05 30.7 4.85 30.9 4.4 30.45 Q6.4 28.6 6.4 26.25 6.4 24.25 5.05 22.65 L4.85 22.45 4.4 22.0 4.85 21.6 M1.9 35.4 L2.05 35.55 -7.3 43.35 -7.8 42.8 1.6 34.95 1.9 35.4 M-3.2 49.05 L-3.1 48.2 0.05 49.1 -0.2 50.2 -3.15 49.25 -3.2 49.2 -3.25 49.2 -3.2 49.05 M-3.25 51.95 L-3.05 51.0 -2.8 51.1 0.15 52.05 -0.2 53.1 Q-1.4 52.65 -2.7 52.15 L-3.25 51.95 M-2.85 53.9 Q-1.45 54.3 -0.15 54.95 L0.55 55.3 0.25 56.45 -0.7 55.95 Q-1.85 55.35 -3.1 54.95 -3.25 54.85 -3.45 54.8 L-3.25 53.75 -2.85 53.9 M-5.9 54.9 L-6.15 55.05 Q-7.75 52.7 -11.05 50.55 L-10.1 49.75 Q-6.65 51.95 -5.05 54.15 L-5.9 54.9 M-21.4 48.1 L-19.8 49.25 -20.4 49.85 -21.95 48.6 -22.0 48.55 -21.55 48.0 -21.4 48.1 M-24.7 50.3 L-23.3 51.3 Q-21.55 52.7 -20.5 54.1 L-21.6 55.0 Q-22.7 53.35 -24.65 51.8 L-26.5 50.5 -26.3 50.35 -25.6 49.7 -24.7 50.3 M-24.55 43.2 L-24.6 43.15 -20.05 35.0 -19.75 35.15 -19.6 35.25 -24.15 43.4 -24.55 43.2 M-16.05 29.4 Q-20.2 25.95 -24.3 22.55 L-24.25 22.55 -23.8 21.95 -14.45 29.8 -14.9 30.35 -16.05 29.4 M-28.35 17.55 L-28.6 17.25 -29.6 15.7 Q-30.15 14.5 -30.15 13.2 -30.15 11.7 -29.6 10.5 -29.15 9.55 -28.0 8.5 L-27.9 8.6 -27.55 8.95 -28.15 9.55 -28.35 9.8 -29.05 10.8 Q-29.55 11.8 -29.55 13.2 -29.55 14.35 -29.05 15.35 L-27.55 17.5 -28.0 17.95 -28.35 17.55 M-24.3 3.65 Q-20.05 1.25 -19.8 -4.05 L-19.75 -4.0 -19.7 -4.0 -18.75 -3.75 Q-18.9 -1.0 -20.25 1.15 -21.5 3.3 -23.6 4.5 L-24.3 3.65 M-29.5 -8.15 L-29.6 -8.1 -29.75 -8.25 -29.95 -8.45 Q-31.75 -10.35 -31.75 -12.75 -31.75 -15.15 -30.05 -17.0 L-29.6 -17.45 -29.15 -17.0 Q-31.1 -15.15 -31.1 -12.75 -31.1 -10.4 -29.15 -8.55 L-29.5 -8.15 M-31.4 -21.6 L-31.45 -21.6 -31.9 -21.85 -27.35 -30.0 -27.15 -29.9 -26.9 -29.75 -31.4 -21.6 M-22.3 -34.1 Q-24.45 -36.1 -24.45 -38.75 -24.45 -41.45 -22.3 -43.45 L-21.85 -43.0 Q-23.8 -41.15 -23.8 -38.75 -23.8 -36.4 -21.85 -34.55 L-22.3 -34.1 M-16.0 -49.9 Q-15.1 -51.1 -14.5 -52.8 -14.05 -54.15 -13.75 -55.8 L-12.8 -55.4 Q-12.5 -55.2 -12.8 -55.15 L-13.2 -53.4 Q-13.75 -51.4 -14.7 -49.9 -15.45 -48.7 -16.4 -47.85 L-17.1 -48.75 Q-16.5 -49.25 -16.0 -49.9 M-11.7 -48.75 L-10.6 -49.9 Q-9.25 -51.7 -8.55 -54.75 L-8.35 -55.8 -7.4 -55.4 Q-7.1 -55.2 -7.4 -55.15 L-7.45 -54.9 Q-8.0 -51.95 -9.3 -49.9 -10.05 -48.7 -11.0 -47.85 L-11.7 -48.75 M-5.2 -49.9 Q-3.7 -51.9 -3.0 -55.4 L-2.95 -55.8 -2.0 -55.4 Q-1.7 -55.2 -2.0 -55.15 -2.6 -52.0 -3.9 -49.9 -4.65 -48.7 -5.6 -47.85 L-6.3 -48.75 -5.2 -49.9 M1.0 -51.1 Q1.95 -53.0 2.45 -55.8 L3.4 -55.4 Q3.7 -55.2 3.4 -55.15 L2.85 -52.85 Q2.0 -50.15 0.45 -48.45 L-0.2 -47.85 -0.9 -48.75 Q0.2 -49.65 1.0 -51.1 M23.8 -41.65 L22.85 -41.9 21.0 -42.3 21.25 -43.15 22.3 -42.95 25.65 -42.15 25.3 -41.2 23.8 -41.65 M21.1 -40.15 L23.2 -39.7 23.6 -39.6 25.35 -39.05 25.0 -38.15 24.45 -38.35 23.75 -38.6 20.9 -39.3 21.1 -40.15 M30.15 -38.75 L30.35 -40.3 30.35 -37.2 30.15 -38.75 M25.8 -35.0 L25.5 -34.4 23.85 -35.2 20.6 -36.15 20.9 -37.0 23.75 -36.25 23.8 -36.2 26.0 -35.4 25.8 -35.0 M4.8 -38.75 Q4.8 -36.1 2.65 -34.1 L2.2 -34.55 Q4.2 -36.4 4.2 -38.75 4.2 -41.15 2.2 -43.0 L2.65 -43.45 Q4.8 -41.45 4.8 -38.75 M5.8 -26.9 L5.8 -22.1 4.95 -22.1 4.95 -26.9 5.8 -26.9 M5.8 -29.4 L5.8 -28.25 4.95 -28.25 4.95 -29.4 5.8 -29.4 M0.6 -29.75 L-3.95 -21.6 -4.4 -21.85 0.15 -30.0 0.6 -29.75 M3.0 -17.45 L3.45 -17.0 Q1.5 -15.15 1.5 -12.75 1.5 -10.4 3.45 -8.55 L3.0 -8.1 Q0.85 -10.1 0.85 -12.75 0.85 -14.1 1.4 -15.25 1.95 -16.45 3.0 -17.45 M-7.2 -43.65 L-7.35 -43.15 -7.2 -42.7 -6.7 -42.5 Q-6.4 -42.5 -6.25 -42.7 L-6.05 -43.15 -6.25 -43.65 -6.7 -43.8 -7.2 -43.65 M-6.7 -44.15 L-6.0 -43.85 Q-5.7 -43.55 -5.7 -43.15 -5.7 -42.75 -6.0 -42.45 -6.3 -42.15 -6.7 -42.15 -7.1 -42.15 -7.4 -42.45 L-7.45 -42.5 -7.7 -43.15 -7.4 -43.85 Q-7.1 -44.15 -6.7 -44.15 M-9.75 -40.7 L-14.4 -40.7 Q-15.25 -40.7 -15.75 -40.2 L-16.2 -39.25 -9.75 -39.25 -9.75 -38.45 -16.2 -38.45 -15.75 -37.5 -15.7 -37.45 Q-15.25 -36.95 -14.4 -36.95 L-9.75 -36.95 -9.75 -36.15 -14.4 -36.15 Q-15.7 -36.15 -16.4 -36.9 -17.15 -37.6 -17.15 -38.85 -17.15 -40.0 -16.4 -40.7 -15.6 -41.5 -14.4 -41.5 L-9.75 -41.5 -9.75 -40.7 M-20.25 -43.8 L-20.75 -43.65 -20.9 -43.15 -20.75 -42.7 -20.25 -42.5 Q-19.95 -42.5 -19.8 -42.7 -19.6 -42.85 -19.6 -43.15 L-19.8 -43.65 -20.25 -43.8 M-19.55 -43.85 L-19.25 -43.15 Q-19.25 -42.75 -19.55 -42.45 -19.85 -42.15 -20.25 -42.15 -20.65 -42.15 -20.95 -42.45 L-21.25 -43.15 -20.95 -43.85 -20.25 -44.15 Q-19.85 -44.15 -19.55 -43.85 M-18.9 -29.4 L-21.15 -29.9 -21.7 -29.85 -23.55 -29.4 -25.55 -27.85 -25.95 -28.15 Q-25.15 -29.15 -23.95 -29.75 -22.65 -30.45 -21.4 -30.5 L-21.15 -30.5 Q-19.6 -30.5 -18.35 -29.75 L-16.35 -28.15 -16.8 -27.85 -18.9 -29.4 M-14.6 -30.05 L-5.25 -22.2 -5.7 -21.65 -15.1 -29.45 -14.6 -30.05 M-20.45 -11.0 L-17.6 -10.25 -15.35 -9.4 -15.85 -8.4 Q-18.1 -9.7 -20.65 -10.1 L-20.75 -10.15 -20.45 -11.0 M-5.95 -18.35 L-5.95 -7.45 -6.8 -7.45 -6.8 -18.35 -5.95 -18.35 M-15.7 -16.15 L-16.05 -15.2 -17.55 -15.65 -20.35 -16.3 -20.1 -17.15 -15.7 -16.15 M-16.0 -13.05 L-16.35 -12.15 -16.9 -12.35 -20.45 -13.3 -20.25 -14.15 -18.15 -13.7 -16.0 -13.05 M-4.8 -8.85 L-0.25 -17.0 0.2 -16.75 -4.35 -8.6 -4.8 -8.85 M-3.1 9.25 L-7.65 17.4 -8.1 17.15 -3.55 9.0 -3.1 9.25 M-18.3 8.95 L-8.95 16.8 -9.4 17.35 -18.8 9.55 -18.3 8.95 M-5.8 21.55 Q-3.65 23.55 -3.65 26.25 -3.65 28.9 -5.8 30.9 L-6.25 30.45 Q-4.25 28.6 -4.25 26.25 -4.25 23.85 -6.25 22.0 L-5.8 21.55 M-29.65 49.25 L-31.5 47.3 -30.2 47.3 -28.95 49.25 -29.65 49.25 M-8.95 35.55 L-18.3 43.35 -18.8 42.8 -9.4 34.95 -8.95 35.55 M-21.25 50.9 L-21.7 50.45 -22.85 49.6 -22.4 49.05 Q-21.4 49.65 -20.7 50.3 L-21.25 50.9" fill="#000000" fill-rule="evenodd" stroke="none"/>
  </g>
</svg>
