<svg xmlns:xlink="http://www.w3.org/1999/xlink" height="110.35px" width="88.6px" xmlns="http://www.w3.org/2000/svg">
  <g transform="matrix(1.0, 0.0, 0.0, 1.0, 37.3, 55.2)">
    <path d="M1.9 -44.95 L1.45 -45.55 1.0 -46.1 Q4.25 -48.8 5.3 -55.2 L6.5 -54.65 Q6.9 -54.4 6.5 -54.35 5.4 -48.2 2.05 -45.1 L1.9 -44.95 M-4.35 -45.65 L-5.1 -44.95 -5.65 -45.7 -5.95 -46.1 Q-2.75 -48.8 -1.65 -55.2 L-0.45 -54.65 Q-0.05 -54.4 -0.45 -54.35 -1.5 -48.75 -4.35 -45.65 M-11.2 -45.8 L-12.05 -44.95 -12.75 -45.85 -12.95 -46.1 Q-9.7 -48.8 -8.65 -55.2 L-7.45 -54.65 Q-7.05 -54.4 -7.45 -54.35 -8.45 -48.9 -11.2 -45.8 M-18.05 -45.95 L-19.05 -44.95 -19.7 -45.85 -19.9 -46.1 Q-16.7 -48.8 -15.6 -55.2 L-14.4 -54.65 Q-14.0 -54.4 -14.4 -54.35 -15.4 -49.05 -18.05 -45.95 M-26.35 -39.2 L-26.0 -38.85 Q-28.55 -36.5 -28.55 -33.4 -28.55 -30.4 -26.0 -28.05 L-26.35 -27.7 -26.65 -27.4 Q-29.45 -30.0 -29.45 -33.4 -29.45 -36.9 -26.65 -39.5 L-26.35 -39.2 M-22.75 -23.05 L-21.5 -23.05 Q-21.0 -23.0 -21.45 -22.65 L-21.45 -17.5 Q-21.45 -12.95 -25.9 -11.05 L-26.2 -11.6 -26.6 -12.35 -25.9 -12.65 Q-22.75 -14.15 -22.75 -18.1 L-22.75 -23.05 M-29.7 -6.3 L-28.9 -5.45 Q-28.55 -5.05 -29.25 -5.05 L-29.5 -4.85 Q-33.1 -2.2 -36.95 -1.65 L-37.25 -2.9 Q-33.3 -3.5 -29.95 -6.2 L-29.75 -6.4 -29.7 -6.3 M-28.9 -2.7 L-28.35 -2.15 Q-28.1 -1.7 -28.6 -1.8 L-28.65 -1.75 Q-32.1 0.85 -36.25 1.5 L-36.6 0.35 Q-32.0 -0.55 -29.15 -2.95 L-28.9 -2.7 M-28.1 0.05 L-27.3 0.95 Q-26.9 1.35 -27.3 1.35 L-27.5 1.35 Q-30.45 4.35 -37.0 5.15 L-37.3 3.85 Q-30.8 3.0 -28.2 0.0 L-28.1 0.05 M-24.25 4.1 L-12.3 -5.8 -12.0 -5.45 -11.7 -5.1 -23.75 5.0 -24.4 4.25 -24.25 4.1 M-9.8 -5.6 L-9.6 -5.8 2.5 4.25 1.9 5.0 -10.25 -5.1 -9.8 -5.6 M-1.95 10.85 L-1.5 11.1 -7.35 21.6 -7.8 21.3 -7.85 21.25 -2.0 10.8 -1.95 10.85 M-11.25 27.45 L-10.9 27.65 -16.75 38.15 -17.15 37.9 -17.25 37.8 -11.4 27.35 -11.25 27.45 M-25.1 45.15 L-24.8 45.25 -25.1 46.75 -25.4 46.6 Q-27.3 45.85 -29.1 45.45 L-28.85 44.1 Q-27.3 44.4 -25.7 44.95 L-25.1 45.15 M-24.95 49.0 L-24.7 49.1 -24.85 49.6 -25.1 50.4 -29.1 48.9 -28.8 47.7 -24.95 49.0 M-24.2 53.2 L-24.1 53.25 -24.15 53.45 -24.55 54.7 Q-26.8 53.45 -29.3 52.65 L-29.1 51.3 Q-26.55 51.95 -24.2 53.2 M-20.15 53.85 L-19.45 53.55 Q-16.35 52.05 -16.3 48.1 L-16.3 43.15 -15.5 43.15 -15.05 43.15 Q-14.55 43.2 -15.0 43.55 L-15.0 48.7 Q-15.0 53.25 -19.45 55.15 L-20.1 53.9 -20.15 53.85 M-9.5 37.7 L-9.8 37.35 2.3 27.3 2.75 27.85 2.9 28.0 -2.65 32.65 -2.85 32.65 -2.85 32.8 -9.15 38.1 -9.5 37.7 M7.6 27.65 L7.9 27.3 20.0 37.35 19.5 38.0 19.4 38.1 7.25 28.0 7.6 27.65 M21.65 37.6 L21.45 37.35 33.55 27.3 34.15 28.0 34.05 28.1 22.1 38.1 21.65 37.6 M36.75 30.2 L37.45 29.55 Q41.95 32.35 44.05 35.25 L43.4 35.75 42.6 36.4 Q40.55 33.35 36.3 30.6 L36.75 30.2 M46.15 35.75 L46.35 34.75 46.45 34.75 Q49.0 35.45 51.3 36.7 L50.9 38.15 Q48.6 36.9 46.1 36.1 L46.15 35.75 M46.5 32.45 L46.35 32.35 46.55 31.55 46.65 31.15 50.7 32.55 50.3 33.85 46.5 32.45 M46.6 28.95 L46.35 28.9 46.55 27.55 46.65 27.55 46.7 27.55 Q48.55 27.95 50.6 28.7 L50.3 30.2 Q48.4 29.4 46.6 28.95 M49.1 21.3 L49.0 21.2 37.3 11.45 37.95 10.75 50.0 20.8 49.4 21.55 49.1 21.3 M35.1 11.1 Q34.85 14.6 33.15 17.35 31.55 20.15 28.85 21.75 L28.3 21.1 27.95 20.65 Q33.45 17.5 33.8 10.75 L35.1 11.1 M26.5 20.8 L25.9 21.55 13.75 11.45 13.9 11.3 14.4 10.75 26.4 20.7 26.5 20.8 M13.55 5.05 L13.0 4.7 18.85 -5.75 19.4 -5.45 18.95 -4.65 13.55 5.05 M21.85 -3.2 L22.3 -3.55 Q26.75 -0.75 28.85 2.15 L27.4 3.3 Q25.35 0.25 21.1 -2.5 L21.85 -3.2 M31.35 3.0 L31.7 1.95 Q35.75 2.8 38.25 4.05 L37.6 5.3 Q34.95 3.85 32.05 3.2 L31.6 3.1 31.3 3.05 31.35 3.0 M31.95 -0.95 L31.7 -1.0 31.9 -2.1 32.05 -2.05 34.65 -1.55 37.4 -0.7 37.0 0.5 Q34.35 -0.55 31.95 -0.95 M32.25 -4.8 L31.8 -4.85 32.1 -6.0 32.35 -5.95 37.8 -4.7 37.35 -3.5 Q35.1 -4.35 32.25 -4.8 M32.5 -8.6 L32.45 -8.55 20.35 -18.65 20.65 -18.95 21.0 -19.35 33.05 -9.3 32.5 -8.6 M18.6 -19.85 L18.15 -19.5 Q16.55 -21.0 15.4 -21.55 14.05 -22.2 12.55 -22.2 10.85 -22.2 9.45 -21.55 8.35 -21.05 7.0 -19.65 L6.95 -19.6 6.85 -19.5 6.3 -19.95 Q7.35 -21.25 8.9 -22.05 10.7 -23.0 12.55 -23.0 14.55 -23.0 16.15 -22.05 L18.5 -20.2 18.75 -19.95 18.6 -19.85 M4.45 -20.85 Q3.3 -14.9 -0.05 -11.85 L-0.95 -13.0 Q2.3 -15.7 3.35 -22.1 L3.8 -21.9 4.55 -21.55 Q4.95 -21.3 4.55 -21.25 L4.45 -20.85 M3.2 -27.4 L2.6 -28.05 Q5.1 -30.4 5.15 -33.4 5.1 -36.25 3.0 -38.45 L2.6 -38.85 3.05 -39.3 3.2 -39.5 Q5.95 -36.9 5.95 -33.4 5.95 -30.05 3.3 -27.45 L3.2 -27.4 M1.9 -34.75 L-0.45 -33.55 1.9 -32.35 1.35 -31.35 -0.9 -32.75 -0.85 -29.9 -1.9 -29.9 -1.75 -32.75 -4.1 -31.35 -4.6 -32.35 -2.25 -33.55 -4.6 -34.75 -4.1 -35.75 -1.75 -34.3 -1.9 -36.95 -0.85 -36.95 -0.9 -34.3 1.35 -35.75 1.9 -34.75 M11.1 10.7 L6.05 21.8 0.95 10.7 2.0 10.15 6.05 19.0 10.05 10.15 11.1 10.7 M-6.55 -40.4 L-5.7 -39.95 Q-5.3 -39.55 -5.25 -39.1 -5.3 -38.6 -5.7 -38.2 -6.05 -37.8 -6.55 -37.8 -7.05 -37.8 -7.45 -38.2 -7.8 -38.6 -7.8 -39.1 L-7.45 -39.95 -6.55 -40.4 M-7.15 -39.65 L-7.4 -39.1 -7.15 -38.5 Q-6.95 -38.25 -6.55 -38.25 -6.15 -38.25 -5.9 -38.5 -5.75 -38.7 -5.75 -39.1 -5.75 -39.5 -5.9 -39.65 L-6.55 -39.9 -7.15 -39.65 M-18.8 -34.05 L-10.45 -34.05 -10.45 -33.0 -18.8 -33.0 Q-18.7 -32.25 -18.25 -31.75 -17.55 -31.1 -16.5 -31.1 L-10.45 -31.1 -10.45 -30.05 -16.5 -30.05 Q-18.15 -30.05 -19.1 -31.0 -20.05 -31.95 -20.05 -33.55 -20.05 -35.0 -19.1 -35.95 -18.05 -36.95 -16.5 -36.95 L-10.45 -36.95 -10.45 -35.95 -16.5 -35.95 Q-17.55 -35.95 -18.25 -35.25 -18.8 -34.7 -18.8 -34.05 M-14.35 -22.35 L-2.3 -12.3 -2.9 -11.55 -15.0 -21.65 -14.35 -22.35 M-23.1 -39.95 Q-22.7 -39.55 -22.7 -39.1 -22.7 -38.6 -23.1 -38.2 -23.45 -37.8 -24.0 -37.8 -24.5 -37.8 -24.9 -38.2 L-25.25 -39.1 -24.9 -39.95 Q-24.5 -40.4 -24.0 -40.4 -23.45 -40.4 -23.1 -39.95 M-24.0 -39.9 L-24.6 -39.65 -24.8 -39.1 -24.6 -38.5 Q-24.35 -38.25 -24.0 -38.25 -23.6 -38.25 -23.35 -38.5 L-23.15 -39.1 -23.35 -39.65 -24.0 -39.9 M-9.0 19.8 L-9.0 20.95 -10.3 20.95 -10.3 19.8 -9.0 19.8 M-19.7 36.35 L-18.4 36.35 -18.4 37.5 -19.7 37.5 -19.7 36.35" fill="#000000" fill-rule="evenodd" stroke="none"/>
    <path d="M1.45 -45.55 L1.9 -44.95 2.05 -44.95 3.05 -39.3 2.6 -38.85 3.0 -38.45 Q5.1 -36.25 5.15 -33.4 5.1 -30.4 2.6 -28.05 L3.2 -27.4 3.3 -27.4 3.8 -21.9 3.35 -22.1 Q2.3 -15.7 -0.95 -13.0 L-0.05 -11.85 Q3.3 -14.9 4.45 -20.85 L6.3 -19.95 6.85 -19.5 6.95 -19.6 7.0 -19.65 Q8.35 -21.05 9.45 -21.55 10.85 -22.2 12.55 -22.2 14.05 -22.2 15.4 -21.55 16.55 -21.0 18.15 -19.5 L18.6 -19.85 20.65 -18.95 20.35 -18.65 32.45 -8.55 32.5 -8.6 32.35 -5.95 32.1 -6.0 31.8 -4.85 32.25 -4.8 32.05 -2.1 31.9 -2.1 31.7 -1.0 31.95 -0.95 31.7 1.95 31.35 3.0 28.8 2.3 28.85 2.15 Q26.75 -0.75 22.3 -3.55 L21.85 -3.2 18.95 -4.65 19.4 -5.45 18.85 -5.75 13.0 4.7 13.55 5.05 13.65 5.05 13.9 11.3 13.75 11.45 25.9 21.55 26.5 20.8 26.5 20.75 28.3 21.1 28.85 21.75 Q31.55 20.15 33.15 17.35 34.85 14.6 35.1 11.1 L37.3 11.3 37.3 11.45 49.0 21.2 49.1 21.3 46.7 27.55 46.65 27.55 46.55 27.55 46.35 28.9 46.6 28.95 46.55 31.55 46.35 32.35 46.5 32.45 46.45 34.75 46.35 34.75 46.15 35.75 43.4 35.75 44.05 35.25 Q41.95 32.35 37.45 29.55 L36.75 30.2 34.05 28.1 34.15 28.0 33.55 27.3 21.45 37.35 21.65 37.6 19.5 38.0 20.0 37.35 7.9 27.3 7.6 27.65 2.75 27.85 2.3 27.3 -9.8 37.35 -9.5 37.7 -15.5 43.15 -16.3 43.15 -16.3 48.1 Q-16.35 52.05 -19.45 53.55 L-20.15 53.85 -20.15 53.9 -24.1 53.9 -24.15 53.45 -24.1 53.25 -24.2 53.2 -24.85 49.6 -24.7 49.1 -24.95 49.0 -25.4 46.6 -25.1 46.75 -24.8 45.25 -25.1 45.15 -17.15 37.9 -16.75 38.15 -10.9 27.65 -11.25 27.45 -7.8 21.3 -7.35 21.6 -1.5 11.1 -1.95 10.85 1.75 4.95 1.9 5.0 2.5 4.25 -9.6 -5.8 -9.8 -5.6 -12.0 -5.45 -12.3 -5.8 -24.25 4.1 -24.25 4.05 -27.3 1.35 Q-26.9 1.35 -27.3 0.95 L-28.1 0.05 -28.65 -1.75 -28.6 -1.8 Q-28.1 -1.7 -28.35 -2.15 L-28.9 -2.7 -29.5 -4.85 -29.25 -5.05 Q-28.55 -5.05 -28.9 -5.45 L-29.7 -6.3 -29.65 -6.35 -26.2 -11.6 -25.9 -11.05 Q-21.45 -12.95 -21.45 -17.5 L-21.45 -22.65 Q-21.0 -23.0 -21.5 -23.05 L-22.75 -23.05 -22.8 -26.05 -26.35 -27.7 -26.0 -28.05 Q-28.55 -30.4 -28.55 -33.4 -28.55 -36.5 -26.0 -38.85 L-26.35 -39.2 -19.7 -45.85 -19.05 -44.95 -18.05 -45.95 -12.75 -45.85 -12.05 -44.95 -11.2 -45.8 -5.65 -45.7 -5.1 -44.95 -4.35 -45.65 1.45 -45.55 M1.9 -34.75 L1.35 -35.75 -0.9 -34.3 -0.85 -36.95 -1.9 -36.95 -1.75 -34.3 -4.1 -35.75 -4.6 -34.75 -2.25 -33.55 -4.6 -32.35 -4.1 -31.35 -1.75 -32.75 -1.9 -29.9 -0.85 -29.9 -0.9 -32.75 1.35 -31.35 1.9 -32.35 -0.45 -33.55 1.9 -34.75 M11.1 10.7 L10.05 10.15 6.05 19.0 2.0 10.15 0.95 10.7 6.05 21.8 11.1 10.7 M-24.0 -39.9 L-23.35 -39.65 -23.15 -39.1 -23.35 -38.5 Q-23.6 -38.25 -24.0 -38.25 -24.35 -38.25 -24.6 -38.5 L-24.8 -39.1 -24.6 -39.65 -24.0 -39.9 M-23.1 -39.95 Q-23.45 -40.4 -24.0 -40.4 -24.5 -40.4 -24.9 -39.95 L-25.25 -39.1 -24.9 -38.2 Q-24.5 -37.8 -24.0 -37.8 -23.45 -37.8 -23.1 -38.2 -22.7 -38.6 -22.7 -39.1 -22.7 -39.55 -23.1 -39.95 M-14.35 -22.35 L-15.0 -21.65 -2.9 -11.55 -2.3 -12.3 -14.35 -22.35 M-18.8 -34.05 Q-18.8 -34.7 -18.25 -35.25 -17.55 -35.95 -16.5 -35.95 L-10.45 -35.95 -10.45 -36.95 -16.5 -36.95 Q-18.05 -36.95 -19.1 -35.95 -20.05 -35.0 -20.05 -33.55 -20.05 -31.95 -19.1 -31.0 -18.15 -30.05 -16.5 -30.05 L-10.45 -30.05 -10.45 -31.1 -16.5 -31.1 Q-17.55 -31.1 -18.25 -31.75 -18.7 -32.25 -18.8 -33.0 L-10.45 -33.0 -10.45 -34.05 -18.8 -34.05 M-7.15 -39.65 L-6.55 -39.9 -5.9 -39.65 Q-5.75 -39.5 -5.75 -39.1 -5.75 -38.7 -5.9 -38.5 -6.15 -38.25 -6.55 -38.25 -6.95 -38.25 -7.15 -38.5 L-7.4 -39.1 -7.15 -39.65 M-6.55 -40.4 L-7.45 -39.95 -7.8 -39.1 Q-7.8 -38.6 -7.45 -38.2 -7.05 -37.8 -6.55 -37.8 -6.05 -37.8 -5.7 -38.2 -5.3 -38.6 -5.25 -39.1 -5.3 -39.55 -5.7 -39.95 L-6.55 -40.4" fill="#ffffff" fill-rule="evenodd" stroke="none"/>
  </g>
</svg>
