<?xml version="1.0" encoding="UTF-8" standalone="no"?>
<svg xmlns:xlink="http://www.w3.org/1999/xlink" height="43.85px" width="39.05px" xmlns="http://www.w3.org/2000/svg">
  <g transform="matrix(1.0, 0.0, 0.0, 1.0, 19.5, 43.35)">
    <path d="M-19.0 -18.95 Q-19.0 -28.85 -13.45 -35.85 -7.85 -42.85 0.05 -42.85 7.9 -42.85 13.45 -35.85 19.05 -28.85 19.05 -18.95 19.05 -9.1 13.8 -4.6 8.55 -0.1 0.4 0.0 -7.8 0.05 -13.35 -4.5 -19.0 -9.1 -19.0 -18.95" fill="#fee5cb" fill-rule="evenodd" stroke="none"/>
    <path d="M-19.0 -18.95 Q-19.0 -28.85 -13.45 -35.85 -7.85 -42.85 0.05 -42.85 7.9 -42.85 13.45 -35.85 19.05 -28.85 19.05 -18.95 19.05 -9.1 13.8 -4.6 8.55 -0.1 0.4 0.0 -7.8 0.05 -13.35 -4.5 -19.0 -9.1 -19.0 -18.95 Z" fill="none" stroke="#8f7c3f" stroke-linecap="round" stroke-linejoin="round" stroke-width="1.0"/>
    <path d="M-15.75 -25.6 Q-15.75 -31.7 -11.2 -36.0 -6.65 -40.4 -0.2 -40.4 6.25 -40.4 10.85 -36.0 15.4 -31.7 15.4 -25.6 15.4 -19.5 11.1 -16.7 6.8 -13.95 0.1 -13.85 -6.6 -13.8 -11.15 -16.65 -15.75 -19.45 -15.75 -25.6" fill="#ffffff" fill-rule="evenodd" stroke="none"/>
    <path d="M-15.75 -25.6 Q-15.75 -31.7 -11.2 -36.0 -6.65 -40.4 -0.2 -40.4 6.25 -40.4 10.85 -36.0 15.4 -31.7 15.4 -25.6 15.4 -19.5 11.1 -16.7 6.8 -13.95 0.1 -13.85 -6.6 -13.8 -11.15 -16.65 -15.75 -19.45 -15.75 -25.6 Z" fill="none" stroke="#8f7c3f" stroke-linecap="round" stroke-linejoin="round" stroke-width="0.75"/>
    <path d="M-6.6 -33.25 Q-4.6 -33.25 -3.15 -31.35 -1.75 -29.45 -1.75 -26.85 -1.75 -24.2 -3.15 -22.3 -4.6 -20.45 -6.6 -20.45 -8.65 -20.45 -10.05 -22.3 -11.5 -24.2 -11.5 -26.85 -11.5 -29.45 -10.05 -31.35 -8.65 -33.25 -6.6 -33.25" fill="#ffffff" fill-rule="evenodd" stroke="none"/>
    <path d="M-6.6 -33.25 Q-4.6 -33.25 -3.15 -31.35 -1.75 -29.45 -1.75 -26.85 -1.75 -24.2 -3.15 -22.3 -4.6 -20.45 -6.6 -20.45 -8.65 -20.45 -10.05 -22.3 -11.5 -24.2 -11.5 -26.85 -11.5 -29.45 -10.05 -31.35 -8.65 -33.25 -6.6 -33.25 Z" fill="none" stroke="#8f7c3f" stroke-linecap="round" stroke-linejoin="round" stroke-width="0.75"/>
    <path d="M-5.3 -29.65 Q-4.1 -29.65 -3.25 -28.55 -2.4 -27.45 -2.4 -25.9 -2.4 -24.35 -3.25 -23.2 -4.1 -22.1 -5.3 -22.1 -6.5 -22.1 -7.35 -23.2 -8.2 -24.35 -8.2 -25.9 -8.2 -27.45 -7.35 -28.55 -6.5 -29.65 -5.3 -29.65" fill="#8f7c3f" fill-rule="evenodd" stroke="none"/>
    <path d="M-5.3 -29.65 Q-4.1 -29.65 -3.25 -28.55 -2.4 -27.45 -2.4 -25.9 -2.4 -24.35 -3.25 -23.2 -4.1 -22.1 -5.3 -22.1 -6.5 -22.1 -7.35 -23.2 -8.2 -24.35 -8.2 -25.9 -8.2 -27.45 -7.35 -28.55 -6.5 -29.65 -5.3 -29.65 Z" fill="none" stroke="#8f7c3f" stroke-linecap="round" stroke-linejoin="round" stroke-width="0.75"/>
    <path d="M19.0 -19.45 L18.65 -18.25 18.35 -17.85 18.1 -17.6 Q17.35 -16.7 15.7 -16.15 13.9 -15.45 11.9 -15.35 L10.4 -15.3 6.0 -15.35 5.65 -15.4 2.85 -15.9 2.7 -15.95 1.05 -16.65 0.6 -17.05 0.55 -17.2 Q0.35 -17.6 0.8 -17.9 L1.45 -18.4 2.65 -19.3 3.8 -19.75 6.75 -20.1 8.75 -20.0 9.15 -19.95 11.8 -19.0 12.05 -18.9 12.5 -18.7 12.95 -18.5 Q14.3 -17.85 15.75 -18.1 L17.55 -18.5 18.0 -18.65 18.55 -19.2 18.75 -19.35 19.0 -19.45" fill="#8f7c3f" fill-rule="evenodd" stroke="none"/>
    <path d="M19.0 -19.45 L18.65 -18.25 18.35 -17.85 18.1 -17.6 Q17.35 -16.7 15.7 -16.15 13.9 -15.45 11.9 -15.35 L10.4 -15.3 6.0 -15.35 5.65 -15.4 2.85 -15.9 2.7 -15.95 1.05 -16.65 0.6 -17.05 0.55 -17.2 Q0.35 -17.6 0.8 -17.9 L1.45 -18.4 2.65 -19.3 3.8 -19.75 6.75 -20.1 8.75 -20.0 9.15 -19.95 11.8 -19.0 12.05 -18.9 12.5 -18.7 12.95 -18.5 Q14.3 -17.85 15.75 -18.1 L17.55 -18.5 18.0 -18.65 18.55 -19.2 18.75 -19.35 19.0 -19.45 19.05 -19.75" fill="none" stroke="#8f7c3f" stroke-linecap="round" stroke-linejoin="round" stroke-width="0.75"/>
    <path d="M-18.6 -18.9 L-18.3 -17.7 -18.0 -17.3 -17.75 -17.05 Q-17.05 -16.15 -15.5 -15.6 -13.75 -14.9 -11.9 -14.8 L-10.5 -14.75 -6.3 -14.8 -5.95 -14.85 -3.35 -15.35 -3.15 -15.4 Q-2.45 -15.85 -1.6 -16.1 L-1.15 -16.5 -1.15 -16.65 Q-0.95 -17.05 -1.4 -17.35 L-1.95 -17.85 -3.1 -18.75 -4.2 -19.2 -7.0 -19.55 -8.9 -19.45 -9.25 -19.4 -11.75 -18.45 -12.0 -18.35 -12.45 -18.15 -12.9 -17.95 Q-14.2 -17.3 -15.55 -17.55 L-17.25 -17.95 -17.65 -18.1 -18.2 -18.65 -18.35 -18.8 -18.6 -18.9" fill="#8f7c3f" fill-rule="evenodd" stroke="none"/>
    <path d="M-18.6 -18.9 L-18.3 -17.7 -18.0 -17.3 -17.75 -17.05 Q-17.05 -16.15 -15.5 -15.6 -13.75 -14.9 -11.9 -14.8 L-10.5 -14.75 -6.3 -14.8 -5.95 -14.85 -3.35 -15.35 -3.15 -15.4 Q-2.45 -15.85 -1.6 -16.1 L-1.15 -16.5 -1.15 -16.65 Q-0.95 -17.05 -1.4 -17.35 L-1.95 -17.85 -3.1 -18.75 -4.2 -19.2 -7.0 -19.55 -8.9 -19.45 -9.25 -19.4 -11.75 -18.45 -12.0 -18.35 -12.45 -18.15 -12.9 -17.95 Q-14.2 -17.3 -15.55 -17.55 L-17.25 -17.95 -17.65 -18.1 -18.2 -18.65 -18.35 -18.8 -18.6 -18.9 -18.7 -19.2" fill="none" stroke="#8f7c3f" stroke-linecap="round" stroke-linejoin="round" stroke-width="0.75"/>
    <path d="M6.5 -34.05 Q8.5 -34.05 9.95 -32.15 11.35 -30.25 11.35 -27.65 11.35 -25.0 9.95 -23.1 8.5 -21.25 6.5 -21.25 4.45 -21.25 3.05 -23.1 1.6 -25.0 1.6 -27.65 1.6 -30.25 3.05 -32.15 4.45 -34.05 6.5 -34.05" fill="#ffffff" fill-rule="evenodd" stroke="none"/>
    <path d="M6.5 -34.05 Q8.5 -34.05 9.95 -32.15 11.35 -30.25 11.35 -27.65 11.35 -25.0 9.95 -23.1 8.5 -21.25 6.5 -21.25 4.45 -21.25 3.05 -23.1 1.6 -25.0 1.6 -27.65 1.6 -30.25 3.05 -32.15 4.45 -34.05 6.5 -34.05 Z" fill="none" stroke="#8f7c3f" stroke-linecap="round" stroke-linejoin="round" stroke-width="0.75"/>
  </g>
</svg>
