<svg xmlns:xlink="http://www.w3.org/1999/xlink" height="34.45px" width="37.7px" xmlns="http://www.w3.org/2000/svg">
  <g transform="matrix(1.0, 0.0, 0.0, 1.0, 15.25, 34.5)">
    <path d="M16.5 -31.65 L15.8 -31.0 Q18.65 -28.3 18.65 -24.85 18.65 -21.4 15.8 -18.75 L16.5 -18.05 14.55 -15.8 Q17.75 -10.7 15.15 -6.0 L13.45 -3.65 12.3 -2.35 10.4 -4.4 Q9.4 -5.6 7.7 -8.25 L7.2 -8.55 Q6.95 -8.55 6.7 -8.1 L3.65 -3.65 4.8 -2.15 7.0 -5.9 7.25 -6.1 7.45 -6.0 9.3 -3.3 11.1 -1.0 10.25 -0.05 -5.35 -0.05 -4.65 -0.75 Q-7.55 -3.4 -7.55 -6.85 -7.55 -10.3 -4.65 -13.0 L-5.35 -13.65 -3.45 -16.05 -5.9 -18.05 -5.2 -18.75 Q-8.1 -21.4 -8.1 -24.85 -8.1 -28.3 -5.2 -31.0 L-5.9 -31.65 Q-0.8 -34.45 5.65 -34.5 11.45 -34.4 16.5 -31.65 M13.35 -29.15 L11.5 -32.05 9.65 -32.05 12.35 -29.15 13.35 -29.15 M4.25 -30.3 L3.0 -30.3 -1.25 -19.5 0.25 -19.5 1.55 -22.75 5.7 -22.75 7.0 -19.5 8.5 -19.5 4.25 -30.3 M5.25 -23.9 L2.0 -23.9 3.6 -28.25 5.25 -23.9 M-2.3 -29.05 L-2.3 -30.4 -3.75 -30.4 -3.75 -29.05 -3.15 -29.05 -3.75 -27.15 -3.15 -27.15 -2.3 -29.05" fill="#ffffff" fill-rule="evenodd" stroke="none"/>
    <path d="M4.25 -30.3 L8.5 -19.5 7.0 -19.5 5.7 -22.75 1.55 -22.75 0.25 -19.5 -1.25 -19.5 3.0 -30.3 4.25 -30.3 M13.35 -29.15 L12.35 -29.15 9.65 -32.05 11.5 -32.05 13.35 -29.15 M16.5 -18.05 L15.8 -18.75 Q18.65 -21.4 18.65 -24.85 18.65 -28.3 15.8 -31.0 L16.5 -31.65 Q19.6 -28.75 19.6 -24.85 19.6 -21.0 16.5 -18.05 M-5.9 -31.65 L-5.2 -31.0 Q-8.1 -28.3 -8.1 -24.85 -8.1 -21.4 -5.2 -18.75 L-5.9 -18.05 Q-9.05 -21.0 -9.05 -24.85 -9.05 -28.75 -5.9 -31.65 M-5.35 -13.65 L-4.65 -13.0 Q-7.55 -10.3 -7.55 -6.85 -7.55 -3.4 -4.65 -0.75 L-5.35 -0.05 Q-8.5 -3.0 -8.5 -6.85 -8.5 -10.75 -5.35 -13.65 M11.1 -1.0 L9.3 -3.3 7.45 -6.0 7.25 -6.1 7.0 -5.9 4.8 -2.15 3.65 -3.65 6.7 -8.1 Q6.95 -8.55 7.2 -8.55 L7.7 -8.25 Q9.4 -5.6 10.4 -4.4 L12.3 -2.35 12.65 -2.0 11.55 -0.55 11.1 -1.0 M13.45 -3.65 L15.15 -6.0 16.5 -8.1 17.0 -8.55 17.5 -8.25 20.2 -4.4 22.45 -2.0 21.35 -0.55 19.1 -3.3 Q17.6 -5.35 17.25 -6.0 L17.05 -6.1 Q16.95 -6.1 16.8 -5.9 L14.6 -2.15 13.45 -3.65 M5.25 -23.9 L3.6 -28.25 2.0 -23.9 5.25 -23.9 M-2.3 -29.05 L-3.15 -27.15 -3.75 -27.15 -3.15 -29.05 -3.75 -29.05 -3.75 -30.4 -2.3 -30.4 -2.3 -29.05 M-15.25 -2.5 Q-11.65 -5.5 -10.4 -12.75 L-9.05 -12.1 Q-8.65 -11.85 -9.05 -11.75 -10.3 -4.65 -14.25 -1.15 L-15.25 -2.5" fill="#000000" fill-rule="evenodd" stroke="none"/>
  </g>
</svg>
