<svg xmlns:xlink="http://www.w3.org/1999/xlink" height="67.05px" width="75.6px" xmlns="http://www.w3.org/2000/svg">
  <g transform="matrix(1.0, 0.0, 0.0, 1.0, 35.5, 67.1)">
    <path d="M7.5 -55.25 L12.85 -67.0 18.6 -54.45 17.45 -53.85 12.85 -63.85 8.3 -53.85 7.1 -54.45 7.5 -55.25 M22.0 -48.45 L22.7 -49.1 Q25.45 -46.55 25.8 -43.2 L25.8 -42.7 25.8 -42.3 Q25.8 -40.3 25.0 -38.55 24.2 -36.9 22.7 -35.5 L22.0 -36.2 Q23.25 -37.35 23.95 -38.7 24.85 -40.35 24.85 -42.3 L24.8 -43.2 Q24.45 -46.1 22.0 -48.45 M24.5 -53.5 L23.25 -54.9 Q21.35 -57.35 21.35 -60.3 21.35 -64.2 24.5 -67.1 L25.2 -66.45 25.15 -66.4 Q22.3 -63.75 22.3 -60.3 22.3 -57.25 24.55 -54.8 L25.2 -54.2 24.5 -53.5 M25.95 -65.7 L27.45 -65.7 30.75 -57.0 34.1 -65.7 35.6 -65.7 31.35 -54.85 30.2 -54.85 25.95 -65.7 M36.4 -66.35 L36.3 -66.45 37.0 -67.1 Q40.1 -64.2 40.1 -60.3 40.1 -56.7 37.4 -53.85 L37.0 -53.5 36.3 -54.2 Q39.15 -56.85 39.15 -60.3 39.15 -63.7 36.4 -66.35 M33.85 -48.5 L35.35 -48.05 Q35.2 -45.3 34.2 -42.95 L33.15 -41.0 Q32.1 -39.15 30.6 -37.75 L28.25 -36.05 27.25 -37.3 28.45 -38.05 Q31.25 -40.0 32.65 -43.0 33.7 -45.45 33.85 -48.5 M13.85 -30.1 L13.95 -30.05 7.3 -18.25 6.7 -18.6 13.3 -30.45 13.85 -30.1 M1.1 -13.8 L-14.85 -13.8 -14.85 -14.5 1.1 -14.5 1.1 -13.8 M-16.85 -18.6 L-10.25 -30.45 -9.6 -30.05 -16.25 -18.25 -16.85 -18.6 M-16.7 -38.2 Q-18.3 -40.45 -20.9 -42.6 L-23.85 -44.75 -23.15 -45.35 -22.5 -45.95 Q-19.35 -43.95 -17.25 -41.95 L-15.15 -39.5 -16.7 -38.2 M-32.35 -53.5 Q-34.15 -55.2 -34.9 -57.15 L-35.0 -57.4 Q-35.5 -58.8 -35.5 -60.3 L-35.2 -62.6 Q-34.55 -65.1 -32.35 -67.1 L-31.65 -66.45 -31.7 -66.4 Q-33.6 -64.6 -34.25 -62.45 L-34.55 -60.3 Q-34.55 -58.85 -34.05 -57.55 L-33.85 -57.15 Q-33.15 -55.55 -31.65 -54.2 L-32.35 -53.5 M-30.9 -65.7 L-29.4 -65.7 -26.1 -57.05 -26.1 -57.0 -26.05 -57.05 -22.75 -65.7 -21.25 -65.7 -25.5 -54.85 -26.65 -54.85 -30.9 -65.7 M-20.5 -66.4 L-20.55 -66.45 -19.85 -67.1 Q-17.65 -65.05 -17.0 -62.5 L-16.75 -60.3 -16.95 -58.3 -17.45 -56.8 Q-18.25 -55.05 -19.85 -53.5 L-20.55 -54.2 Q-19.2 -55.45 -18.5 -56.85 -18.15 -57.5 -17.95 -58.25 -17.7 -59.25 -17.7 -60.3 L-17.95 -62.4 Q-18.6 -64.5 -20.4 -66.3 L-20.45 -66.35 -20.5 -66.4 M-12.85 -41.55 L-12.85 -41.6 -12.9 -42.3 Q-12.9 -43.65 -12.5 -44.9 -11.8 -47.2 -9.75 -49.1 L-9.05 -48.45 Q-11.95 -45.75 -11.95 -42.3 L-11.75 -40.6 Q-11.3 -38.5 -9.6 -36.7 L-9.05 -36.2 -9.75 -35.5 -10.85 -36.65 Q-12.45 -38.6 -12.8 -40.9 L-12.85 -41.55 M-12.6 -53.85 L-13.8 -54.45 -8.05 -67.0 -2.3 -54.45 -3.45 -53.85 -8.05 -63.85 -12.6 -53.85 M-0.1 -53.95 L4.7 -53.95 4.7 -53.2 -0.1 -53.2 -0.1 -53.95 M19.0 -43.5 L19.0 -41.55 17.05 -41.55 17.05 -43.5 19.0 -43.5 M11.95 -43.55 L12.05 -41.85 12.05 -41.0 Q11.85 -38.8 10.7 -37.6 9.8 -36.75 8.45 -36.75 7.25 -36.75 6.65 -37.35 6.15 -37.85 6.0 -38.3 L5.4 -37.5 Q4.65 -36.75 3.5 -36.75 L2.75 -36.85 2.4 -37.0 Q2.05 -37.15 1.75 -37.45 1.05 -38.1 1.05 -39.85 1.05 -41.45 1.85 -43.05 L2.3 -43.9 3.55 -45.6 4.65 -45.05 3.7 -43.85 3.0 -42.75 Q2.2 -41.25 2.2 -39.85 2.2 -38.55 2.55 -38.2 2.95 -37.8 3.5 -37.8 4.3 -37.8 4.9 -38.35 L5.7 -39.55 Q5.55 -40.1 5.7 -41.1 L6.0 -42.2 6.25 -42.8 Q6.7 -43.7 7.15 -43.7 7.65 -43.7 7.65 -42.35 L7.65 -41.85 7.3 -40.55 6.75 -39.35 Q6.75 -38.75 7.2 -38.3 7.65 -37.85 8.4 -37.85 9.2 -37.85 9.75 -38.45 10.6 -39.3 10.75 -41.25 L10.75 -41.85 10.65 -43.6 10.2 -45.3 11.4 -45.6 11.95 -43.55 M3.2 -11.95 L4.7 -12.25 Q5.4 -12.35 4.9 -11.85 5.8 -6.75 10.2 -4.8 L11.35 -4.35 10.4 -2.7 Q7.3 -2.75 4.45 -1.3 L3.35 -2.45 Q5.8 -3.8 8.4 -4.0 7.65 -4.35 7.0 -4.85 4.35 -7.0 3.2 -11.95 M-6.0 -43.5 L-4.05 -43.5 -4.05 -41.55 -6.0 -41.55 -6.0 -43.5 M-24.6 -1.3 Q-21.2 -3.2 -19.55 -6.4 -18.35 -8.75 -18.05 -11.75 L-18.0 -12.5 -16.5 -12.05 -16.5 -11.85 Q-16.75 -8.85 -17.95 -6.3 L-18.7 -5.0 Q-20.5 -1.85 -23.6 -0.05 L-24.6 -1.3" fill="#000000" fill-rule="evenodd" stroke="none"/>
    <path d="M4.7 -53.95 L7.5 -55.25 7.1 -54.45 8.3 -53.85 12.85 -63.85 17.45 -53.85 18.6 -54.45 22.0 -48.45 Q24.45 -46.1 24.8 -43.2 L24.85 -42.3 Q24.85 -40.35 23.95 -38.7 23.25 -37.35 22.0 -36.2 L22.45 -34.55 15.0 -32.7 13.85 -30.1 13.3 -30.45 6.7 -18.6 7.05 -18.3 2.65 -13.8 1.1 -13.8 1.1 -14.5 -14.85 -14.5 -15.2 -14.2 -16.85 -16.2 -16.85 -18.6 -16.25 -18.25 -9.6 -30.05 -10.25 -30.45 -10.3 -32.1 -16.7 -38.2 -15.15 -39.5 -17.25 -41.95 Q-19.35 -43.95 -22.5 -45.95 L-23.15 -45.35 -27.7 -48.0 -32.35 -53.5 -31.65 -54.2 Q-33.15 -55.55 -33.85 -57.15 L-34.05 -57.55 Q-34.55 -58.85 -34.55 -60.3 L-34.25 -62.45 Q-33.6 -64.6 -31.7 -66.4 L-31.65 -66.45 -30.85 -66.4 -30.9 -65.7 -26.65 -54.85 -25.5 -54.85 -21.25 -65.7 -20.5 -66.4 -20.45 -66.35 -20.4 -66.3 Q-18.6 -64.5 -17.95 -62.4 L-17.7 -60.3 Q-17.7 -59.25 -17.95 -58.25 -18.15 -57.5 -18.5 -56.85 -19.2 -55.45 -20.55 -54.2 L-19.85 -53.5 -23.55 -51.25 -23.55 -49.5 -13.85 -41.85 -12.85 -41.55 -12.8 -40.9 Q-12.45 -38.6 -10.85 -36.65 L-9.75 -35.5 -9.05 -36.2 -9.6 -36.7 Q-11.3 -38.5 -11.75 -40.6 L-11.95 -42.3 Q-11.95 -45.75 -9.05 -48.45 L-9.75 -49.1 Q-11.8 -47.2 -12.5 -44.9 L-13.7 -53.7 -12.6 -53.85 -8.05 -63.85 -3.45 -53.85 -2.3 -54.45 -0.1 -53.95 -0.1 -53.2 4.7 -53.2 4.7 -53.95 M25.8 -42.7 L29.15 -50.4 29.35 -51.3 Q27.6 -51.6 25.6 -52.45 L24.5 -53.5 25.2 -54.2 24.55 -54.8 Q22.3 -57.25 22.3 -60.3 22.3 -63.75 25.15 -66.4 L25.95 -65.7 30.2 -54.85 31.35 -54.85 35.6 -65.7 36.4 -66.35 Q39.15 -63.7 39.15 -60.3 39.15 -56.85 36.3 -54.2 L37.0 -53.5 35.35 -52.15 35.35 -48.5 33.85 -48.5 Q33.7 -45.45 32.65 -43.0 31.25 -40.0 28.45 -38.05 L27.25 -37.3 27.6 -35.85 22.9 -34.7 22.7 -35.5 Q24.2 -36.9 25.0 -38.55 25.8 -40.3 25.8 -42.3 L25.8 -42.7 M11.95 -43.55 L11.4 -45.6 10.2 -45.3 10.65 -43.6 10.75 -41.85 10.75 -41.25 Q10.6 -39.3 9.75 -38.45 9.2 -37.85 8.4 -37.85 7.65 -37.85 7.2 -38.3 6.75 -38.75 6.75 -39.35 L7.3 -40.55 7.65 -41.85 7.65 -42.35 Q7.65 -43.7 7.15 -43.7 6.7 -43.7 6.25 -42.8 L6.0 -42.2 5.7 -41.1 Q5.55 -40.1 5.7 -39.55 L4.9 -38.35 Q4.3 -37.8 3.5 -37.8 2.95 -37.8 2.55 -38.2 2.2 -38.55 2.2 -39.85 2.2 -41.25 3.0 -42.75 L3.7 -43.85 4.65 -45.05 3.55 -45.6 2.3 -43.9 1.85 -43.05 Q1.05 -41.45 1.05 -39.85 1.05 -38.1 1.75 -37.45 2.05 -37.15 2.4 -37.0 L2.75 -36.85 3.5 -36.75 Q4.65 -36.75 5.4 -37.5 L6.0 -38.3 Q6.15 -37.85 6.65 -37.35 7.25 -36.75 8.45 -36.75 9.8 -36.75 10.7 -37.6 11.85 -38.8 12.05 -41.0 L12.05 -41.85 11.95 -43.55 M19.0 -43.5 L17.05 -43.5 17.05 -41.55 19.0 -41.55 19.0 -43.5 M-6.0 -43.5 L-6.0 -41.55 -4.05 -41.55 -4.05 -43.5 -6.0 -43.5" fill="#ffffff" fill-rule="evenodd" stroke="none"/>
  </g>
</svg>
