<?xml version="1.0" encoding="UTF-8" standalone="no"?>
<svg xmlns:xlink="http://www.w3.org/1999/xlink" height="63.45px" width="45.4px" xmlns="http://www.w3.org/2000/svg">
  <g transform="matrix(1.0, 0.0, 0.0, 1.0, 27.3, 30.95)">
    <path d="M2.7 22.15 L-4.05 23.3 Q-10.6 24.45 -15.45 21.5 -20.35 18.6 -24.1 18.05 -27.85 17.5 -26.4 15.95 -22.75 12.1 -18.15 10.25 -13.75 8.45 -9.45 5.65 -6.3 2.75 -1.0 4.4 0.95 5.05 3.65 6.65 6.2 8.1 6.75 8.8 8.1 10.55 13.9 14.75 19.7 18.95 16.3 19.95 L7.9 21.45 2.7 22.15" fill="#ffffff" fill-rule="evenodd" stroke="none"/>
    <path d="M2.7 22.15 L7.9 21.45 16.3 19.95 Q19.7 18.95 13.9 14.75 8.1 10.55 6.75 8.8 6.2 8.1 3.65 6.65 0.95 5.05 -1.0 4.4 -6.3 2.75 -9.45 5.65 -13.75 8.45 -18.15 10.25 -22.75 12.1 -26.4 15.95 -27.85 17.5 -24.1 18.05 -20.35 18.6 -15.45 21.5 -10.6 24.45 -4.05 23.3 L2.7 22.15 Z" fill="none" stroke="#8f7c3f" stroke-linecap="round" stroke-linejoin="round" stroke-width="1.0"/>
    <path d="M-2.15 6.0 Q-1.65 6.3 -1.1 6.9 1.1 9.1 2.85 11.75 L6.2 16.85 Q7.5 18.8 7.55 20.95 7.5 23.95 3.35 24.15 L-3.1 24.85 -9.55 25.75 Q-14.1 26.25 -13.8 22.75 -13.55 19.65 -12.45 16.8 -11.4 14.0 -9.65 11.5 L-6.45 6.9 -6.1 6.4 -5.6 6.0 -2.15 6.0" fill="#e2d5c0" fill-rule="evenodd" stroke="none"/>
    <path d="M-2.15 6.0 Q-1.65 6.3 -1.1 6.9 1.1 9.1 2.85 11.75 L6.2 16.85 Q7.5 18.8 7.55 20.95 7.5 23.95 3.35 24.15 L-3.1 24.85 -9.55 25.75 Q-14.1 26.25 -13.8 22.75 -13.55 19.65 -12.45 16.8 -11.4 14.0 -9.65 11.5 L-6.45 6.9 -6.1 6.4 -5.6 6.0" fill="none" stroke="#8f7c3f" stroke-linecap="round" stroke-linejoin="round" stroke-width="1.0"/>
    <path d="M-1.6 -12.15 L-6.8 -12.15 Q-4.4 -14.2 -1.6 -12.15" fill="#ffffff" fill-rule="evenodd" stroke="none"/>
    <path d="M-1.6 -12.15 Q-4.4 -14.2 -6.8 -12.15" fill="none" stroke="#8f7c3f" stroke-linecap="round" stroke-linejoin="round" stroke-width="1.0"/>
    <path d="M-10.3 -25.2 Q4.8 -27.55 13.4 -17.1 22.9 -5.55 11.0 2.95 4.2 7.8 -9.65 6.85 -24.95 5.45 -26.05 -8.75 L-26.05 -9.65 Q-26.5 -21.6 -12.95 -24.7 L-10.3 -25.2" fill="#ffffff" fill-rule="evenodd" stroke="none"/>
    <path d="M-10.3 -25.2 Q4.8 -27.55 13.4 -17.1 22.9 -5.55 11.0 2.95 4.2 7.8 -9.65 6.85 -24.95 5.45 -26.05 -8.75 L-26.05 -9.65 Q-26.5 -21.6 -12.95 -24.7 L-10.3 -25.2 Z" fill="none" stroke="#8f7c3f" stroke-linecap="round" stroke-linejoin="round" stroke-width="1.0"/>
    <path d="M-6.85 -13.8 Q-7.65 -13.15 -8.1 -13.45 L-8.25 -14.0 Q-8.5 -14.8 -8.35 -15.35 L-7.3 -15.35 Q-6.5 -14.6 -6.85 -13.8 M-2.5 -13.85 Q-2.75 -14.7 -2.35 -15.35 -1.45 -15.5 -1.0 -14.75 -0.55 -14.0 -1.4 -13.5 -2.3 -13.05 -2.5 -13.85" fill="#8f7c3f" fill-rule="evenodd" stroke="none"/>
    <path d="M8.5 -9.85 L10.0 -10.85 M6.25 -10.1 Q6.65 -11.15 7.75 -11.45 M3.45 -7.2 Q1.9 -5.4 0.5 -4.95 L-2.3 -5.1 Q-3.7 -5.65 -4.3 -8.3 L-5.25 -8.6 Q-6.3 -9.3 -4.8 -11.65 -2.9 -9.35 -4.3 -8.3 L-4.8 -11.65 -5.25 -8.6 M-6.85 -13.8 Q-7.65 -13.15 -8.1 -13.45 L-8.25 -14.0 Q-8.5 -14.8 -8.35 -15.35 L-7.3 -15.35 Q-6.5 -14.6 -6.85 -13.8 M-2.5 -13.85 Q-2.3 -13.05 -1.4 -13.5 -0.55 -14.0 -1.0 -14.75 -1.45 -15.5 -2.35 -15.35 -2.75 -14.7 -2.5 -13.85 M-16.7 -9.25 L-16.1 -10.05 -14.95 -10.45 M-19.5 -9.7 Q-18.7 -11.2 -17.25 -11.35" fill="none" stroke="#8f7c3f" stroke-linecap="round" stroke-linejoin="round" stroke-width="1.0"/>
    <path d="M-4.9 -7.85 Q-5.05 -4.95 -7.15 -4.55 -9.3 -4.15 -9.9 -5.8 L-10.5 -7.85" fill="none" stroke="#8f7c3f" stroke-linecap="round" stroke-linejoin="round" stroke-width="1.0"/>
    <path d="M-6.85 -17.7 L-8.1 -23.0 -12.85 -23.05 -8.55 -25.85 -9.75 -30.95 -4.75 -26.9 -0.05 -29.8 -2.15 -25.25 1.35 -20.9 -4.25 -21.85 -6.85 -17.7" fill="#8f7c3f" fill-rule="evenodd" stroke="none"/>
    <path d="M-6.0 10.7 L-3.3 16.2 Q-2.1 15.4 0.45 14.8 M-3.1 16.65 L-3.3 16.2 Q-5.45 17.6 -3.55 19.7 -3.0 20.25 -2.0 20.45 L-0.55 20.7" fill="none" stroke="#8f7c3f" stroke-linecap="round" stroke-linejoin="round" stroke-width="1.0"/>
    <path d="M4.1 31.65 L1.5 31.5 Q2.9 26.8 4.1 31.65 M-5.1 31.05 L-5.0 31.25 Q-6.55 33.1 -9.35 30.35 -6.85 27.55 -5.1 31.05" fill="#8f7c3f" fill-rule="evenodd" stroke="none"/>
    <path d="M4.1 31.65 L1.5 31.5 Q2.9 26.8 4.1 31.65 M-5.1 31.05 Q-5.4 27.9 -5.25 24.25 M-5.1 31.05 L-5.0 31.25 Q-6.55 33.1 -9.35 30.35 -6.85 27.55 -5.1 31.05 M-0.5 23.25 Q-0.25 27.15 1.3 30.25" fill="none" stroke="#8f7c3f" stroke-linecap="round" stroke-linejoin="round" stroke-width="1.0"/>
    <path d="M-11.35 5.75 Q-8.3 3.4 -5.5 7.0 -7.85 8.9 -11.35 5.75 M4.5 4.4 Q1.85 8.15 -2.5 7.0 -0.7 2.2 4.5 4.4 M-2.95 6.55 Q-1.8 8.1 -3.75 8.2 -4.5 8.25 -5.25 7.75 -5.45 3.2 -2.95 6.55" fill="#ffffff" fill-rule="evenodd" stroke="none"/>
    <path d="M-11.35 5.75 Q-7.85 8.9 -5.5 7.0 -8.3 3.4 -11.35 5.75 M4.5 4.4 Q1.85 8.15 -2.5 7.0 -0.7 2.2 4.5 4.4 M-2.95 6.55 Q-1.8 8.1 -3.75 8.2 -4.5 8.25 -5.25 7.75 -5.45 3.2 -2.95 6.55" fill="none" stroke="#8f7c3f" stroke-linecap="round" stroke-linejoin="round" stroke-width="1.0"/>
    <path d="M-11.5 16.25 Q-11.5 18.75 -13.3 18.8 -14.4 18.85 -14.85 17.9 -16.45 14.4 -11.5 16.25" fill="#fefefe" fill-rule="evenodd" stroke="none"/>
    <path d="M-11.5 16.25 Q-12.4 15.55 -12.95 14.15 L-14.4 11.05 -11.35 9.95 Q-9.75 9.45 -7.95 9.45 M-11.5 16.25 Q-11.5 18.75 -13.3 18.8 -14.4 18.85 -14.85 17.9 -16.45 14.4 -11.5 16.25 Z" fill="none" stroke="#8f7c3f" stroke-linecap="round" stroke-linejoin="round" stroke-width="1.0"/>
    <path d="M4.85 15.45 L7.1 15.5 Q7.9 15.9 8.0 17.65 L5.15 17.8 Q4.2 17.15 4.85 15.45" fill="#fefefe" fill-rule="evenodd" stroke="none"/>
    <path d="M4.85 15.45 L7.1 15.5 Q7.9 15.9 8.0 17.65 L5.15 17.8 Q4.2 17.15 4.85 15.45 6.3 12.25 7.45 10.8 5.05 10.55 1.2 8.75" fill="none" stroke="#8f7c3f" stroke-linecap="round" stroke-linejoin="round" stroke-width="1.0"/>
  </g>
</svg>
