<svg xmlns:xlink="http://www.w3.org/1999/xlink" height="47.6px" width="108.85px" xmlns="http://www.w3.org/2000/svg">
  <g transform="matrix(1.0, 0.0, 0.0, 1.0, 51.15, 47.5)">
    <path d="M-39.0 -23.35 L-39.95 -22.35 Q-40.95 -21.45 -42.3 -21.45 L-42.45 -21.45 Q-43.45 -21.5 -45.2 -22.55 -46.6 -23.4 -47.55 -23.4 -48.6 -23.4 -49.15 -22.75 L-49.8 -21.7 -51.15 -22.5 -49.75 -24.25 Q-48.85 -25.1 -47.7 -25.1 -46.45 -25.1 -44.85 -24.15 -43.6 -23.4 -42.65 -23.2 L-42.1 -23.15 Q-41.4 -23.2 -40.65 -23.85 L-40.5 -24.0 -39.8 -25.05 -38.55 -24.0 -39.0 -23.35 M-26.45 -34.75 L-26.15 -35.6 -26.75 -35.6 -26.75 -36.95 -25.3 -36.95 -25.3 -35.6 -25.7 -34.8 -26.15 -33.95 -26.75 -33.95 -26.45 -34.75 M-23.2 -34.8 L-22.95 -35.6 -23.55 -35.6 -23.55 -36.95 -22.1 -36.95 -22.1 -35.6 -22.5 -34.8 -22.95 -33.95 -23.55 -33.95 -23.2 -34.8 M-20.05 -34.8 L-19.75 -35.6 -20.35 -35.6 -20.35 -36.95 -18.9 -36.95 -18.9 -35.6 -19.3 -34.8 -19.75 -33.95 -20.35 -33.95 -20.05 -34.8 M-16.8 -34.75 L-16.5 -35.6 -17.1 -35.6 -17.1 -36.95 -15.7 -36.95 -15.7 -35.6 -16.1 -34.75 -16.5 -33.95 -17.1 -33.95 -16.8 -34.75 M-13.6 -34.75 L-13.3 -35.6 -13.9 -35.6 -13.9 -36.95 -12.5 -36.95 -12.5 -35.6 -12.9 -34.75 -13.3 -33.95 -13.9 -33.95 -13.6 -34.75 M-10.4 -34.85 L-10.1 -35.6 -10.7 -35.6 -10.7 -36.95 -9.25 -36.95 -9.25 -35.6 -9.65 -34.85 -10.1 -33.95 -10.7 -33.95 -10.4 -34.85 M-7.15 -34.9 L-6.9 -35.6 -7.5 -35.6 -7.5 -36.95 -6.05 -36.95 -6.05 -35.6 -6.35 -34.95 -6.9 -33.95 -7.5 -33.95 -7.45 -34.05 -7.15 -34.9 M-4.1 -35.0 L-3.85 -35.6 -4.45 -35.6 -4.45 -36.95 -3.0 -36.95 -3.0 -35.6 -3.25 -35.15 -3.85 -33.95 -4.45 -33.95 -4.1 -35.0 M-0.85 -35.05 L-0.65 -35.6 -1.25 -35.6 -1.25 -36.95 0.2 -36.95 0.2 -35.6 -0.1 -35.05 -0.65 -33.95 -1.25 -33.95 -0.85 -35.05 M2.4 -35.1 L2.55 -35.6 1.95 -35.6 1.95 -36.95 3.4 -36.95 3.4 -35.6 3.15 -35.1 2.55 -33.95 1.95 -33.95 2.4 -35.1 M5.55 -35.05 L5.75 -35.6 5.2 -35.6 5.2 -36.95 6.6 -36.95 6.6 -35.6 6.35 -35.05 5.75 -33.95 5.2 -33.95 5.55 -35.05 M8.75 -34.95 L8.95 -35.5 9.0 -35.6 8.4 -35.6 8.4 -36.95 9.8 -36.95 9.8 -35.6 9.55 -35.1 9.5 -34.95 9.0 -33.95 8.4 -33.95 8.75 -34.95 M13.45 -36.2 L18.6 -47.5 24.3 -35.1 23.15 -34.5 18.6 -44.4 14.1 -34.5 12.95 -35.1 13.45 -36.2 M27.75 -34.95 L28.0 -35.6 27.4 -35.6 27.4 -36.95 28.85 -36.95 28.85 -35.6 28.5 -34.9 28.0 -33.95 27.4 -33.95 27.75 -34.95 M30.9 -34.8 L31.2 -35.6 30.6 -35.6 30.6 -36.95 32.05 -36.95 32.05 -35.6 31.6 -34.75 31.2 -33.95 30.6 -33.95 30.9 -34.8 M36.35 -34.5 L35.15 -35.1 40.85 -47.5 46.5 -35.1 45.35 -34.5 40.85 -44.4 36.35 -34.5 M48.1 -26.35 L50.65 -27.2 Q52.85 -28.2 54.8 -29.85 L55.75 -28.8 Q56.1 -28.35 55.3 -28.35 53.05 -26.65 50.75 -25.7 L48.1 -24.85 46.8 -24.6 46.4 -26.05 46.65 -26.05 48.1 -26.35 M47.95 -22.55 L50.8 -23.4 Q53.5 -24.45 55.45 -26.1 L56.3 -25.15 Q56.65 -24.6 56.05 -24.75 53.55 -22.85 50.8 -21.85 L47.75 -21.1 47.55 -21.05 47.15 -22.35 47.95 -22.55 M47.25 -18.6 L50.6 -19.35 Q54.55 -20.5 56.5 -22.75 L57.5 -21.7 Q58.0 -21.15 57.25 -21.3 54.9 -18.8 50.4 -17.65 L46.75 -17.0 46.35 -18.45 46.75 -18.5 47.25 -18.6 M32.7 -10.55 L32.7 -3.1 Q32.65 -1.8 31.8 -0.9 30.8 0.1 28.75 0.1 26.6 0.1 25.6 -0.9 24.75 -1.8 24.8 -3.1 L24.8 -10.55 26.15 -10.55 26.15 -3.15 Q26.15 -2.35 26.75 -1.8 27.4 -1.1 28.75 -1.1 30.0 -1.1 30.7 -1.8 31.25 -2.35 31.25 -3.15 L31.25 -10.55 32.7 -10.55 M17.7 -10.55 L17.7 -3.1 Q17.7 -1.8 16.85 -0.9 15.85 0.1 13.75 0.1 11.65 0.1 10.65 -0.9 9.8 -1.8 9.8 -3.1 L9.8 -10.55 11.2 -10.55 11.2 -3.15 Q11.2 -2.35 11.8 -1.8 12.4 -1.1 13.75 -1.1 15.05 -1.1 15.75 -1.8 16.25 -2.35 16.3 -3.15 L16.3 -10.55 17.7 -10.55 M3.05 -12.5 L0.9 -9.45 -0.2 -9.45 1.35 -12.5 3.05 -12.5 M0.1 -12.5 L-2.1 -9.45 -3.15 -9.45 -1.65 -12.5 0.1 -12.5 M-4.85 -12.5 L-4.9 -12.4 -4.9 -12.5 -4.85 -12.5 M-6.15 -12.5 L-8.15 -9.7 -8.15 -9.45 -9.4 -9.45 -7.85 -12.5 -6.15 -12.5 M-10.85 -12.5 L-13.0 -9.45 -14.1 -9.45 -12.55 -12.5 -10.85 -12.5 M-13.8 -12.5 L-16.0 -9.45 -17.05 -9.45 -15.55 -12.5 -13.8 -12.5 M-19.05 -10.55 L-19.05 -3.1 Q-19.05 -1.8 -19.95 -0.9 -20.95 0.1 -23.0 0.1 -25.15 0.1 -26.1 -0.9 -26.95 -1.8 -26.95 -3.1 L-26.95 -10.55 -25.55 -10.55 -25.55 -3.15 Q-25.55 -2.35 -24.95 -1.8 -24.35 -1.1 -23.0 -1.1 -21.7 -1.1 -21.0 -1.8 -20.5 -2.35 -20.45 -3.15 L-20.45 -10.55 -19.05 -10.55 M-29.15 -10.55 L-29.15 -3.1 Q-29.2 -1.8 -30.05 -0.9 -31.05 0.1 -33.1 0.1 -35.25 0.1 -36.25 -0.9 -37.1 -1.8 -37.05 -3.1 L-37.05 -10.55 -35.7 -10.55 -35.7 -3.15 Q-35.7 -2.35 -35.1 -1.8 -34.45 -1.1 -33.1 -1.1 -31.85 -1.1 -31.15 -1.8 -30.6 -2.35 -30.6 -3.15 L-30.6 -10.55 -29.15 -10.55 M-34.4 -26.45 L-35.45 -26.45 -34.1 -30.2 -32.2 -30.2 -34.4 -26.45 M-2.1 -19.15 L-2.1 -17.85 -2.9 -16.15 -3.5 -16.15 -2.9 -17.85 -3.5 -17.85 -3.5 -19.15 -2.1 -19.15 M-5.1 -19.15 L-5.1 -17.85 -5.95 -16.15 -6.55 -16.15 -5.95 -17.85 -6.55 -17.85 -6.55 -19.15 -5.1 -19.15 M-8.35 -19.15 L-8.35 -17.85 -9.15 -16.15 -9.75 -16.15 -9.15 -17.85 -9.75 -17.85 -9.75 -19.15 -8.35 -19.15 M-0.3 -19.15 L1.15 -19.15 1.15 -17.85 0.3 -16.15 -0.3 -16.15 0.3 -17.85 -0.3 -17.85 -0.3 -19.15 M-11.55 -19.15 L-11.55 -17.85 -12.4 -16.15 -12.95 -16.15 -12.4 -17.85 -12.95 -17.85 -12.95 -19.15 -11.55 -19.15 M-16.2 -17.85 L-16.2 -19.15 -14.75 -19.15 -14.75 -17.85 -15.6 -16.15 -16.2 -16.15 -15.6 -17.85 -16.2 -17.85 M24.25 -29.45 Q24.2 -28.85 23.8 -28.45 23.4 -28.0 22.8 -28.0 22.25 -28.0 21.8 -28.45 21.4 -28.85 21.4 -29.45 21.4 -30.0 21.8 -30.4 22.25 -30.8 22.8 -30.8 23.4 -30.8 23.8 -30.4 L24.25 -29.45 M22.8 -30.3 L22.15 -30.1 Q21.9 -29.85 21.9 -29.45 21.9 -29.0 22.15 -28.75 22.4 -28.5 22.8 -28.5 23.25 -28.5 23.5 -28.75 L23.75 -29.45 23.5 -30.1 22.8 -30.3 M29.9 -29.8 L36.75 -29.8 36.75 -18.9 38.15 -18.9 38.15 -15.5 36.95 -15.5 36.95 -17.75 28.3 -17.75 28.3 -15.5 27.05 -15.5 27.05 -18.9 28.1 -18.9 Q29.9 -21.55 29.9 -25.55 L29.9 -29.8 M31.15 -25.55 Q31.15 -21.45 29.5 -18.9 L35.5 -18.9 35.5 -28.6 31.15 -28.6 31.15 -25.55 M7.15 -29.45 L13.5 -27.95 13.05 -26.6 Q10.3 -27.6 6.85 -28.2 L7.15 -29.45 M20.2 -19.15 L20.2 -17.85 19.35 -16.15 18.75 -16.15 19.35 -17.85 18.75 -17.85 18.75 -19.15 20.2 -19.15 M17.0 -19.15 L17.0 -17.85 16.15 -16.15 15.55 -16.15 16.15 -17.85 15.55 -17.85 15.55 -19.15 17.0 -19.15 M12.6 -22.15 Q9.5 -23.4 6.7 -23.85 L6.95 -25.1 10.0 -24.5 13.1 -23.55 12.6 -22.15 M13.3 -16.85 Q10.0 -18.7 6.3 -19.35 L6.7 -20.6 Q11.25 -19.6 14.0 -18.2 L13.3 -16.85 M4.35 -19.15 L4.35 -17.85 3.5 -16.15 2.9 -16.15 3.5 -17.85 2.9 -17.85 2.9 -19.15 4.35 -19.15 M43.25 -28.45 Q43.0 -28.2 42.75 -28.1 L42.25 -28.0 Q41.7 -28.0 41.25 -28.45 40.85 -28.85 40.9 -29.45 40.85 -30.0 41.25 -30.4 41.7 -30.8 42.25 -30.8 L42.45 -30.8 43.25 -30.4 43.7 -29.45 Q43.65 -28.85 43.25 -28.45 M42.25 -30.3 L41.6 -30.1 41.35 -29.45 Q41.35 -29.0 41.6 -28.75 41.85 -28.5 42.25 -28.5 L42.65 -28.55 42.95 -28.75 43.2 -29.45 42.95 -30.1 42.45 -30.3 42.25 -30.3" fill="#000000" fill-rule="evenodd" stroke="none"/>
    <path d="M-39.8 -25.05 Q-37.75 -30.55 -32.4 -33.2 -30.45 -34.15 -28.2 -34.55 L-26.45 -34.75 -26.75 -33.95 -26.15 -33.95 -25.7 -34.8 -24.6 -34.85 -23.2 -34.8 -23.55 -33.95 -22.95 -33.95 -22.5 -34.8 -20.05 -34.8 -20.35 -33.95 -19.75 -33.95 -19.3 -34.8 -16.8 -34.75 -17.1 -33.95 -16.5 -33.95 -16.1 -34.75 -13.6 -34.75 -13.9 -33.95 -13.3 -33.95 -12.9 -34.75 -10.4 -34.85 -10.7 -33.95 -10.1 -33.95 -9.65 -34.85 -7.15 -34.9 -7.45 -34.05 -7.5 -33.95 -6.9 -33.95 -6.35 -34.95 -4.1 -35.0 -4.45 -33.95 -3.85 -33.95 -3.25 -35.15 -3.2 -35.05 -3.2 -35.0 -0.85 -35.05 -1.25 -33.95 -0.65 -33.95 -0.1 -35.05 2.4 -35.1 1.95 -33.95 2.55 -33.95 3.15 -35.1 5.55 -35.05 5.2 -33.95 5.75 -33.95 6.35 -35.05 8.75 -34.95 8.4 -33.95 9.0 -33.95 9.5 -34.95 9.55 -35.1 12.2 -35.2 Q13.3 -35.5 13.25 -36.0 L13.25 -36.5 13.4 -36.3 13.45 -36.2 12.95 -35.1 14.1 -34.5 18.6 -44.4 23.15 -34.5 24.3 -35.1 27.75 -34.95 27.4 -33.95 28.0 -33.95 28.5 -34.9 30.9 -34.8 30.6 -33.95 31.2 -33.95 31.6 -34.75 36.35 -34.5 40.85 -44.4 45.35 -34.5 46.5 -35.1 Q47.95 -31.05 48.1 -26.35 L46.65 -26.05 46.4 -26.05 46.8 -24.6 48.1 -24.85 48.05 -24.05 47.95 -22.55 47.15 -22.35 47.55 -21.05 47.75 -21.1 47.25 -18.6 46.75 -18.5 46.35 -18.45 46.75 -17.0 Q40.0 -10.6 32.7 -10.55 L31.25 -10.55 31.25 -3.15 Q31.25 -2.35 30.7 -1.8 30.0 -1.1 28.75 -1.1 27.4 -1.1 26.75 -1.8 26.15 -2.35 26.15 -3.15 L26.15 -10.55 24.8 -10.55 17.7 -10.55 16.3 -10.55 16.3 -3.15 Q16.25 -2.35 15.75 -1.8 15.05 -1.1 13.75 -1.1 12.4 -1.1 11.8 -1.8 11.2 -2.35 11.2 -3.15 L11.2 -10.55 9.8 -10.55 3.05 -12.5 1.35 -12.5 0.1 -12.5 -1.65 -12.5 -4.85 -12.5 -4.9 -12.5 -6.15 -12.5 -7.85 -12.5 -10.85 -12.5 -12.55 -12.5 -13.8 -12.5 -15.55 -12.5 -19.05 -10.55 -20.45 -10.55 -20.45 -3.15 Q-20.5 -2.35 -21.0 -1.8 -21.7 -1.1 -23.0 -1.1 -24.35 -1.1 -24.95 -1.8 -25.55 -2.35 -25.55 -3.15 L-25.55 -10.55 -26.95 -10.55 -29.15 -10.55 -30.6 -10.55 -30.6 -3.15 Q-30.6 -2.35 -31.15 -1.8 -31.85 -1.1 -33.1 -1.1 -34.45 -1.1 -35.1 -1.8 -35.7 -2.35 -35.7 -3.15 L-35.7 -10.55 -37.05 -10.55 -38.45 -23.05 -39.0 -23.35 -38.55 -24.0 -39.8 -25.05 M-16.2 -17.85 L-15.6 -17.85 -16.2 -16.15 -15.6 -16.15 -14.75 -17.85 -14.75 -19.15 -16.2 -19.15 -16.2 -17.85 M-11.55 -19.15 L-12.95 -19.15 -12.95 -17.85 -12.4 -17.85 -12.95 -16.15 -12.4 -16.15 -11.55 -17.85 -11.55 -19.15 M-0.3 -19.15 L-0.3 -17.85 0.3 -17.85 -0.3 -16.15 0.3 -16.15 1.15 -17.85 1.15 -19.15 -0.3 -19.15 M-8.35 -19.15 L-9.75 -19.15 -9.75 -17.85 -9.15 -17.85 -9.75 -16.15 -9.15 -16.15 -8.35 -17.85 -8.35 -19.15 M-5.1 -19.15 L-6.55 -19.15 -6.55 -17.85 -5.95 -17.85 -6.55 -16.15 -5.95 -16.15 -5.1 -17.85 -5.1 -19.15 M-2.1 -19.15 L-3.5 -19.15 -3.5 -17.85 -2.9 -17.85 -3.5 -16.15 -2.9 -16.15 -2.1 -17.85 -2.1 -19.15 M-34.4 -26.45 L-32.2 -30.2 -34.1 -30.2 -35.45 -26.45 -34.4 -26.45 M42.25 -30.3 L42.45 -30.3 42.95 -30.1 43.2 -29.45 42.95 -28.75 42.65 -28.55 42.25 -28.5 Q41.85 -28.5 41.6 -28.75 41.35 -29.0 41.35 -29.45 L41.6 -30.1 42.25 -30.3 M43.25 -28.45 Q43.65 -28.85 43.7 -29.45 L43.25 -30.4 42.45 -30.8 42.25 -30.8 Q41.7 -30.8 41.25 -30.4 40.85 -30.0 40.9 -29.45 40.85 -28.85 41.25 -28.45 41.7 -28.0 42.25 -28.0 L42.75 -28.1 Q43.0 -28.2 43.25 -28.45 M4.35 -19.15 L2.9 -19.15 2.9 -17.85 3.5 -17.85 2.9 -16.15 3.5 -16.15 4.35 -17.85 4.35 -19.15 M13.3 -16.85 L14.0 -18.2 Q11.25 -19.6 6.7 -20.6 L6.3 -19.35 Q10.0 -18.7 13.3 -16.85 M12.6 -22.15 L13.1 -23.55 10.0 -24.5 6.95 -25.1 6.7 -23.85 Q9.5 -23.4 12.6 -22.15 M17.0 -19.15 L15.55 -19.15 15.55 -17.85 16.15 -17.85 15.55 -16.15 16.15 -16.15 17.0 -17.85 17.0 -19.15 M20.2 -19.15 L18.75 -19.15 18.75 -17.85 19.35 -17.85 18.75 -16.15 19.35 -16.15 20.2 -17.85 20.2 -19.15 M7.15 -29.45 L6.85 -28.2 Q10.3 -27.6 13.05 -26.6 L13.5 -27.95 7.15 -29.45 M31.15 -25.55 L31.15 -28.6 35.5 -28.6 35.5 -18.9 29.5 -18.9 Q31.15 -21.45 31.15 -25.55 M29.9 -29.8 L29.9 -25.55 Q29.9 -21.55 28.1 -18.9 L27.05 -18.9 27.05 -15.5 28.3 -15.5 28.3 -17.75 36.95 -17.75 36.95 -15.5 38.15 -15.5 38.15 -18.9 36.75 -18.9 36.75 -29.8 29.9 -29.8 M22.8 -30.3 L23.5 -30.1 23.75 -29.45 23.5 -28.75 Q23.25 -28.5 22.8 -28.5 22.4 -28.5 22.15 -28.75 21.9 -29.0 21.9 -29.45 21.9 -29.85 22.15 -30.1 L22.8 -30.3 M24.25 -29.45 L23.8 -30.4 Q23.4 -30.8 22.8 -30.8 22.25 -30.8 21.8 -30.4 21.4 -30.0 21.4 -29.45 21.4 -28.85 21.8 -28.45 22.25 -28.0 22.8 -28.0 23.4 -28.0 23.8 -28.45 24.2 -28.85 24.25 -29.45" fill="#ffffff" fill-rule="evenodd" stroke="none"/>
  </g>
</svg>
