<svg xmlns:xlink="http://www.w3.org/1999/xlink" height="87.0px" width="57.65px" xmlns="http://www.w3.org/2000/svg">
  <g transform="matrix(1.0, 0.0, 0.0, 1.0, 28.85, 43.5)">
    <path d="M9.2 -30.35 L10.45 -29.75 15.2 -40.25 19.95 -29.75 21.2 -30.35 21.7 -28.4 21.8 -28.4 23.0 -24.6 22.45 -24.05 Q24.05 -22.6 24.75 -21.15 25.45 -19.65 25.45 -17.55 25.45 -15.8 24.75 -14.25 L24.4 -13.6 22.45 -11.05 22.1 -10.95 22.95 -8.0 22.25 -7.3 Q23.85 -5.85 24.55 -4.4 25.2 -2.9 25.25 -0.8 25.2 0.95 24.55 2.5 23.85 3.95 22.25 5.7 L22.35 5.85 20.5 7.5 19.2 7.5 19.2 24.1 20.5 24.1 25.05 28.65 24.85 28.85 Q26.45 30.3 27.15 31.7 27.8 33.25 27.85 35.35 27.8 37.1 27.15 38.65 26.45 40.1 24.85 41.85 L23.45 42.8 6.75 42.8 2.55 39.7 2.85 39.1 Q3.7 37.35 3.7 35.35 3.7 33.05 2.85 31.3 2.1 29.75 0.4 28.15 L-0.3 28.85 Q1.3 30.3 2.0 31.7 2.7 33.25 2.7 35.35 2.7 37.1 2.0 38.65 1.3 40.1 -0.3 41.85 L-1.7 42.8 -18.35 42.8 -18.45 42.8 -18.45 42.05 -23.45 42.05 -24.85 41.85 Q-26.45 40.1 -27.1 38.65 -27.85 37.1 -27.85 35.35 -27.85 33.25 -27.1 31.7 -26.45 30.3 -24.85 28.85 L-25.55 28.15 -24.1 24.1 -22.85 24.1 -22.85 7.45 -24.1 7.45 -25.35 6.3 -24.85 5.7 Q-26.45 3.95 -27.1 2.5 -27.85 0.95 -27.85 -0.8 -27.85 -2.9 -27.1 -4.4 -26.45 -5.85 -24.85 -7.3 L-25.55 -8.0 -25.55 -10.3 -24.85 -11.05 Q-26.1 -12.4 -26.75 -13.6 L-27.1 -14.25 Q-27.85 -15.8 -27.85 -17.55 -27.85 -19.65 -27.1 -21.15 -26.45 -22.6 -24.85 -24.05 L-25.4 -24.6 -24.05 -30.2 -23.05 -29.75 -18.3 -40.25 -13.55 -29.75 -12.35 -30.3 -10.0 -28.95 -10.0 -28.35 6.7 -28.35 6.7 -29.05 9.2 -30.35 M16.1 -23.45 L14.4 -23.45 16.85 -20.8 17.8 -20.8 16.1 -23.45 M2.6 -10.25 L2.6 -11.0 -1.8 -11.0 -1.8 -10.25 2.6 -10.25 M6.0 -22.35 L4.6 -22.05 Q5.9 -16.35 9.4 -14.75 6.95 -14.55 4.7 -13.25 L5.7 -12.25 Q8.35 -13.6 11.25 -13.5 L12.05 -15.05 Q7.0 -16.65 6.15 -21.95 6.6 -22.4 6.0 -22.35 M-3.45 -23.45 L-5.5 -23.45 -7.7 -20.95 -6.35 -20.95 -3.45 -23.45 M-1.0 7.45 L-2.25 7.45 -2.25 24.1 -1.0 24.1 -1.0 7.45" fill="#ffffff" fill-rule="evenodd" stroke="none"/>
    <path d="M16.1 -23.45 L17.8 -20.8 16.85 -20.8 14.4 -23.45 16.1 -23.45 M21.2 -30.35 L19.95 -29.75 15.2 -40.25 10.45 -29.75 9.2 -30.35 15.2 -43.5 21.2 -30.35 M6.7 -29.05 L6.7 -28.35 -10.0 -28.35 -10.0 -28.95 -10.0 -29.05 6.7 -29.05 M-12.35 -30.3 L-13.55 -29.75 -18.3 -40.25 -23.05 -29.75 -24.05 -30.2 -24.3 -30.35 -18.3 -43.5 -12.3 -30.35 -12.35 -30.3 M-25.4 -24.6 L-24.85 -24.05 Q-26.45 -22.6 -27.1 -21.15 -27.85 -19.65 -27.85 -17.55 -27.85 -15.8 -27.1 -14.25 L-26.75 -13.6 Q-26.1 -12.4 -24.85 -11.05 L-25.55 -10.3 -27.9 -13.6 -28.0 -13.75 Q-28.85 -15.5 -28.85 -17.55 -28.85 -19.85 -28.0 -21.6 -27.25 -23.15 -25.55 -24.75 L-25.4 -24.6 M-25.55 -8.0 L-24.85 -7.3 Q-26.45 -5.85 -27.1 -4.4 -27.85 -2.9 -27.85 -0.8 -27.85 0.95 -27.1 2.5 -26.45 3.95 -24.85 5.7 L-25.35 6.3 -25.55 6.45 Q-27.15 4.55 -28.0 2.95 -28.85 1.2 -28.85 -0.8 -28.85 -3.1 -28.0 -4.85 -27.25 -6.4 -25.55 -8.0 M-24.1 7.45 L-22.85 7.45 -22.85 24.1 -24.1 24.1 -24.1 7.45 M-25.55 28.15 L-24.85 28.85 Q-26.45 30.3 -27.1 31.7 -27.85 33.25 -27.85 35.35 -27.85 37.1 -27.1 38.65 -26.45 40.1 -24.85 41.85 L-25.55 42.6 Q-27.15 40.7 -28.0 39.1 -28.85 37.35 -28.85 35.35 -28.85 33.05 -28.0 31.3 -27.25 29.75 -25.55 28.15 M-23.45 42.05 L-18.45 42.05 -18.45 42.8 -23.45 42.8 -23.45 42.05 M-18.35 42.8 L-1.7 42.8 -1.7 43.5 -18.35 43.5 -18.35 42.8 M-0.3 41.85 Q1.3 40.1 2.0 38.65 2.7 37.1 2.7 35.35 2.7 33.25 2.0 31.7 1.3 30.3 -0.3 28.85 L0.4 28.15 Q2.1 29.75 2.85 31.3 3.7 33.05 3.7 35.35 3.7 37.35 2.85 39.1 L2.55 39.7 0.4 42.6 -0.3 41.85 M6.75 42.8 L23.45 42.8 23.45 43.5 6.75 43.5 6.75 42.8 M24.85 41.85 Q26.45 40.1 27.15 38.65 27.8 37.1 27.85 35.35 27.8 33.25 27.15 31.7 26.45 30.3 24.85 28.85 L25.05 28.65 25.55 28.15 Q27.2 29.75 27.95 31.3 28.8 33.05 28.8 35.35 28.8 37.35 27.95 39.1 27.2 40.7 25.55 42.6 L24.85 41.85 M20.5 24.1 L19.2 24.1 19.2 7.5 20.5 7.5 20.5 24.1 M22.35 5.85 L22.25 5.7 Q23.85 3.95 24.55 2.5 25.2 0.95 25.25 -0.8 25.2 -2.9 24.55 -4.4 23.85 -5.85 22.25 -7.3 L22.95 -8.0 Q24.6 -6.4 25.4 -4.85 26.2 -3.1 26.2 -0.8 26.2 1.2 25.4 2.95 L22.95 6.45 22.35 5.85 M22.45 -11.05 L24.4 -13.6 24.75 -14.25 Q25.45 -15.8 25.45 -17.55 25.45 -19.65 24.75 -21.15 24.05 -22.6 22.45 -24.05 L23.0 -24.6 23.15 -24.75 Q24.8 -23.15 25.6 -21.6 26.4 -19.85 26.45 -17.55 26.4 -15.5 25.6 -13.75 L25.5 -13.6 Q24.75 -12.05 23.15 -10.3 L22.45 -11.05 M6.0 -22.35 Q6.6 -22.4 6.15 -21.95 7.0 -16.65 12.05 -15.05 L11.25 -13.5 Q8.35 -13.6 5.7 -12.25 L4.7 -13.25 Q6.95 -14.55 9.4 -14.75 5.9 -16.35 4.6 -22.05 L6.0 -22.35 M2.6 -10.25 L-1.8 -10.25 -1.8 -11.0 2.6 -11.0 2.6 -10.25 M-3.45 -23.45 L-6.35 -20.95 -7.7 -20.95 -5.5 -23.45 -3.45 -23.45 M-1.0 7.45 L-1.0 24.1 -2.25 24.1 -2.25 7.45 -1.0 7.45" fill="#000000" fill-rule="evenodd" stroke="none"/>
  </g>
</svg>
