<svg xmlns:xlink="http://www.w3.org/1999/xlink" height="15.95px" width="54.2px" xmlns="http://www.w3.org/2000/svg">
  <g transform="matrix(1.0, 0.0, 0.0, 1.0, 29.0, 15.5)">
    <path d="M18.5 -14.1 Q21.3 -14.1 23.25 -12.2 25.2 -10.25 25.2 -7.45 25.2 -4.6 23.25 -2.7 21.3 -0.75 18.5 -0.75 15.7 -0.75 13.75 -2.7 11.8 -4.6 11.8 -7.45 11.8 -10.25 13.75 -12.2 15.7 -14.1 18.5 -14.1 M6.7 -14.8 L-9.25 -14.8 -9.25 -15.5 6.7 -15.5 6.7 -14.8 M9.25 -15.45 L9.25 0.45 8.0 0.45 8.0 -15.45 9.25 -15.45 M14.8 -3.75 Q16.4 -2.2 18.5 -2.2 20.65 -2.2 22.2 -3.75 23.75 -5.3 23.75 -7.45 23.75 -9.55 22.2 -11.1 20.65 -12.7 18.5 -12.7 16.4 -12.7 14.8 -11.1 13.25 -9.55 13.25 -7.45 13.25 -5.3 14.8 -3.75 M-29.0 -0.25 L-13.05 -0.25 -13.05 0.45 -29.0 0.45 -29.0 -0.25 M-10.5 -15.45 L-10.5 0.45 -11.75 0.45 -11.75 -15.45 -10.5 -15.45" fill="#000000" fill-rule="evenodd" stroke="none"/>
    <path d="M14.8 -3.75 Q13.25 -5.3 13.25 -7.45 13.25 -9.55 14.8 -11.1 16.4 -12.7 18.5 -12.7 20.65 -12.7 22.2 -11.1 23.75 -9.55 23.75 -7.45 23.75 -5.3 22.2 -3.75 20.65 -2.2 18.5 -2.2 16.4 -2.2 14.8 -3.75" fill="#ffffff" fill-rule="evenodd" stroke="none"/>
  </g>
</svg>
