<svg xmlns:xlink="http://www.w3.org/1999/xlink" height="27.75px" width="86.15px" xmlns="http://www.w3.org/2000/svg">
  <g transform="matrix(1.0, 0.0, 0.0, 1.0, 43.1, 14.9)">
    <path d="M13.5 -8.55 L13.5 6.6 15.5 6.6 15.5 11.3 13.75 11.3 13.75 8.25 1.75 8.25 1.75 11.3 0.0 11.3 0.0 6.6 1.5 6.6 Q4.05 3.0 4.05 -2.6 L4.05 -8.55 13.5 -8.55 M5.75 -6.9 L5.75 -2.6 Q5.75 3.05 3.45 6.6 L11.8 6.6 11.8 -6.9 5.75 -6.9 M19.85 -9.4 Q20.45 -10.0 21.25 -10.0 L22.0 -9.8 22.4 -9.6 22.6 -9.4 Q23.2 -8.8 23.2 -8.0 23.2 -7.25 22.6 -6.65 22.0 -6.05 21.25 -6.05 20.45 -6.05 19.85 -6.65 19.25 -7.25 19.25 -8.0 19.25 -8.8 19.85 -9.4 M25.35 -8.55 L25.35 -8.6 Q29.65 -4.6 29.65 0.75 29.65 6.1 25.35 10.1 L24.95 9.7 24.4 9.15 Q28.35 5.5 28.35 0.75 28.35 -3.95 24.4 -7.65 L25.35 -8.55 M-21.55 9.55 L-22.2 10.2 Q-24.35 7.8 -25.4 5.65 -26.5 3.35 -26.5 0.65 -26.5 -2.35 -25.4 -4.65 -24.45 -6.65 -22.2 -8.7 L-21.8 -8.35 -21.25 -7.85 Q-23.4 -5.85 -24.25 -4.05 -25.2 -2.1 -25.2 0.65 -25.2 3.0 -24.25 5.05 -23.4 6.95 -21.25 9.25 L-21.55 9.55 M22.2 -7.05 Q22.55 -7.4 22.55 -8.0 22.55 -8.6 22.2 -8.95 L21.25 -9.3 Q20.65 -9.3 20.3 -8.95 19.95 -8.6 19.95 -8.0 19.95 -7.4 20.3 -7.05 20.65 -6.7 21.25 -6.7 21.85 -6.7 22.2 -7.05 M38.75 -8.6 Q43.05 -4.6 43.05 0.75 43.05 6.1 38.75 10.1 L37.8 9.15 Q41.75 5.5 41.75 0.75 41.75 -3.95 37.8 -7.65 L38.75 -8.6 M32.05 -8.6 Q36.35 -4.6 36.35 0.75 36.35 6.1 32.05 10.1 L31.1 9.15 Q35.05 5.5 35.05 0.75 35.05 -3.95 31.1 -7.65 L32.05 -8.6 M-31.15 -7.65 Q-35.1 -3.95 -35.1 0.75 -35.1 5.5 -31.15 9.15 L-32.1 10.1 Q-36.4 6.1 -36.4 0.75 -36.4 -4.6 -32.1 -8.6 L-31.15 -7.65 M-37.85 -7.65 Q-41.8 -3.95 -41.8 0.75 -41.8 5.5 -37.85 9.15 L-38.8 10.1 Q-43.1 6.1 -43.1 0.75 -43.1 -4.6 -38.8 -8.6 L-37.85 -7.65 M-3.85 -8.0 Q-3.85 -7.25 -4.45 -6.65 -5.05 -6.05 -5.8 -6.05 -6.6 -6.05 -7.2 -6.65 -7.8 -7.25 -7.8 -8.0 -7.8 -8.8 -7.2 -9.4 -6.6 -10.0 -5.8 -10.0 -5.05 -10.0 -4.45 -9.4 -3.85 -8.8 -3.85 -8.0 M-4.5 -8.0 Q-4.5 -8.6 -4.85 -8.95 -5.2 -9.3 -5.8 -9.3 L-6.75 -8.95 -7.1 -8.0 Q-7.1 -7.4 -6.75 -7.05 -6.4 -6.7 -5.8 -6.7 -5.2 -6.7 -4.85 -7.05 -4.5 -7.4 -4.5 -8.0 M-9.5 -1.65 L-9.5 0.25 -11.45 0.25 -11.45 -1.65 -9.5 -1.65 M-9.5 8.15 L-10.6 10.45 -11.45 10.45 -10.6 8.15 -11.45 8.15 -11.45 6.25 -9.5 6.25 -9.5 8.15" fill="#000000" fill-rule="evenodd" stroke="none"/>
    <path d="M19.85 -9.4 Q19.25 -8.8 19.25 -8.0 19.25 -7.25 19.85 -6.65 20.45 -6.05 21.25 -6.05 22.0 -6.05 22.6 -6.65 23.2 -7.25 23.2 -8.0 23.2 -8.8 22.6 -9.4 L22.4 -9.6 22.0 -9.8 21.25 -10.0 Q20.45 -10.0 19.85 -9.4 M5.75 -6.9 L11.8 -6.9 11.8 6.6 3.45 6.6 Q5.75 3.05 5.75 -2.6 L5.75 -6.9 M13.5 -8.55 L4.05 -8.55 4.05 -2.6 Q4.05 3.0 1.5 6.6 L0.0 6.6 0.0 11.3 1.75 11.3 1.75 8.25 13.75 8.25 13.75 11.3 15.5 11.3 15.5 6.6 13.5 6.6 13.5 -8.55 M-21.8 -8.35 Q-17.2 -11.95 -11.25 -13.4 -5.35 -14.9 0.55 -14.9 L11.6 -13.9 Q16.75 -12.9 20.8 -11.1 L25.0 -8.95 25.35 -8.55 24.4 -7.65 Q28.35 -3.95 28.35 0.75 28.35 5.5 24.4 9.15 L24.95 9.7 Q20.4 12.0 14.5 12.5 L4.05 12.8 Q-0.55 12.6 -4.4 12.85 L-11.15 12.3 Q-18.05 11.45 -21.55 9.55 L-21.25 9.25 Q-23.4 6.95 -24.25 5.05 -25.2 3.0 -25.2 0.65 -25.2 -2.1 -24.25 -4.05 -23.4 -5.85 -21.25 -7.85 L-21.8 -8.35 M22.2 -7.05 Q21.85 -6.7 21.25 -6.7 20.65 -6.7 20.3 -7.05 19.95 -7.4 19.95 -8.0 19.95 -8.6 20.3 -8.95 20.65 -9.3 21.25 -9.3 L22.2 -8.95 Q22.55 -8.6 22.55 -8.0 22.55 -7.4 22.2 -7.05 M-9.5 8.15 L-9.5 6.25 -11.45 6.25 -11.45 8.15 -10.6 8.15 -11.45 10.45 -10.6 10.45 -9.5 8.15 M-9.5 -1.65 L-11.45 -1.65 -11.45 0.25 -9.5 0.25 -9.5 -1.65 M-4.5 -8.0 Q-4.5 -7.4 -4.85 -7.05 -5.2 -6.7 -5.8 -6.7 -6.4 -6.7 -6.75 -7.05 -7.1 -7.4 -7.1 -8.0 L-6.75 -8.95 -5.8 -9.3 Q-5.2 -9.3 -4.85 -8.95 -4.5 -8.6 -4.5 -8.0 M-3.85 -8.0 Q-3.85 -8.8 -4.45 -9.4 -5.05 -10.0 -5.8 -10.0 -6.6 -10.0 -7.2 -9.4 -7.8 -8.8 -7.8 -8.0 -7.8 -7.25 -7.2 -6.65 -6.6 -6.05 -5.8 -6.05 -5.05 -6.05 -4.45 -6.65 -3.85 -7.25 -3.85 -8.0" fill="#ffffff" fill-rule="evenodd" stroke="none"/>
  </g>
</svg>
