<svg xmlns:xlink="http://www.w3.org/1999/xlink" height="92.6px" width="92.25px" xmlns="http://www.w3.org/2000/svg">
  <g transform="matrix(1.0, 0.0, 0.0, 1.0, 46.7, 92.65)">
    <path d="M-8.4 -76.85 Q-7.15 -78.9 -6.6 -81.7 L-5.55 -81.2 -1.55 -89.95 2.45 -81.2 3.5 -81.7 Q4.75 -82.15 5.4 -80.65 L5.4 -80.05 19.35 -80.05 19.35 -80.45 Q20.65 -81.0 21.4 -81.7 L22.45 -81.2 26.45 -89.95 30.45 -81.2 32.35 -76.85 31.75 -76.3 Q33.1 -75.05 33.65 -73.9 34.25 -72.6 34.25 -70.85 34.25 -69.4 33.65 -68.1 33.1 -66.9 31.75 -65.4 L32.35 -64.8 30.2 -63.4 Q32.9 -60.25 34.35 -59.2 35.95 -57.2 35.95 -54.8 35.95 -51.8 33.45 -49.45 L34.05 -48.85 37.3 -49.25 37.3 -48.6 45.15 -48.6 Q45.2 -47.2 44.9 -45.95 L44.35 -45.95 44.35 -32.05 45.45 -32.05 Q45.7 -30.15 45.3 -28.75 L45.3 -29.95 44.2 -29.95 44.2 -16.05 45.3 -16.05 Q43.35 -13.75 42.25 -11.9 L41.8 -12.25 29.85 -2.3 30.45 -1.55 29.9 -1.55 Q28.85 -1.5 28.05 -1.0 L28.05 -13.95 26.95 -13.95 26.95 -0.05 -45.45 -0.05 -45.45 -13.95 -46.55 -13.95 Q-46.8 -14.8 -46.55 -16.05 L-45.45 -16.05 -45.45 -29.95 -46.1 -30.4 -43.7 -33.55 -31.75 -43.5 -32.35 -44.25 -28.75 -48.3 -28.45 -48.05 -14.5 -48.05 -14.5 -48.65 -12.3 -49.1 -12.6 -48.2 -11.55 -48.2 -11.05 -50.0 Q-8.8 -50.0 -7.5 -51.3 -6.35 -52.45 -6.35 -54.4 -6.35 -55.75 -7.15 -56.55 L-8.15 -57.3 -4.95 -60.8 -8.4 -64.8 -7.8 -65.4 Q-9.15 -66.9 -9.7 -68.1 -10.3 -69.4 -10.3 -70.85 -10.3 -72.6 -9.7 -73.9 -9.15 -75.05 -7.8 -76.3 L-8.4 -76.85 M11.9 -1.8 L13.05 -1.35 Q13.75 -4.5 14.15 -5.4 14.4 -6.05 15.05 -6.45 L16.15 -6.75 16.85 -6.5 17.15 -5.85 17.15 -3.05 Q17.15 -2.0 17.6 -1.5 18.0 -1.0 18.8 -1.0 20.2 -0.95 21.05 -2.5 21.85 -3.8 22.35 -6.8 L21.3 -7.35 Q20.55 -2.15 18.9 -2.15 18.55 -2.1 18.45 -2.4 L18.25 -3.05 18.25 -5.85 Q18.25 -6.55 17.8 -7.15 17.2 -7.85 16.25 -7.85 15.3 -7.85 14.4 -7.0 L15.9 -12.6 14.7 -12.95 11.9 -1.8 M7.45 -10.35 L7.75 -10.0 8.85 -8.05 9.85 -5.1 10.95 -5.6 Q10.1 -8.9 8.3 -11.1 L7.45 -10.35 M4.2 -12.9 L3.05 -13.0 2.85 -9.95 0.65 -9.7 0.9 -8.55 2.7 -8.8 Q2.1 -4.8 0.65 -2.15 L1.55 -1.55 2.1 -2.7 Q3.35 -5.5 3.85 -8.95 L5.6 -9.1 6.15 -8.75 6.35 -7.05 6.1 -3.9 Q5.8 -2.45 5.3 -2.45 4.6 -2.45 3.9 -3.15 L3.4 -2.1 Q4.55 -1.3 5.4 -1.3 7.45 -1.35 7.45 -7.45 7.45 -8.75 7.05 -9.4 6.6 -10.05 5.75 -10.1 L3.95 -10.05 4.2 -12.9 M-2.35 -30.0 L-2.35 -29.4 11.6 -29.4 11.6 -30.0 -2.35 -30.0 M-1.9 -35.25 L-1.9 -34.05 9.9 -34.05 9.9 -35.25 -1.9 -35.25 M8.9 -42.65 L8.9 -43.85 -0.85 -43.85 -0.85 -42.65 8.9 -42.65 M8.15 -38.5 L8.15 -39.7 -0.15 -39.7 -0.15 -38.5 8.15 -38.5 M10.5 -48.05 L10.5 -48.65 -3.45 -48.65 -3.45 -48.05 10.5 -48.05 M14.75 -48.6 L14.75 -49.25 10.55 -49.25 10.55 -48.6 14.75 -48.6 M24.25 -43.5 L23.65 -44.25 11.7 -34.3 12.3 -33.55 24.25 -43.5 M29.95 -34.3 L30.55 -33.55 42.5 -43.5 41.9 -44.25 29.95 -34.3 M27.85 -29.95 L26.75 -29.95 26.75 -16.05 27.85 -16.05 27.85 -29.95 M19.0 -48.6 L19.0 -49.25 14.8 -49.25 14.8 -48.6 19.0 -48.6 M25.6 -29.4 L25.6 -30.0 11.65 -30.0 11.65 -29.4 25.6 -29.4 M22.2 -52.1 Q23.35 -50.95 25.3 -50.95 L30.5 -50.95 30.5 -51.95 25.3 -51.95 Q23.85 -51.95 22.95 -52.9 22.1 -53.7 22.1 -54.95 22.1 -56.15 22.95 -56.95 23.85 -57.9 25.3 -57.9 L30.5 -57.9 30.5 -58.9 25.3 -58.9 Q23.35 -58.9 22.2 -57.75 21.0 -56.55 21.0 -54.95 21.0 -53.3 22.2 -52.1 M18.85 -72.25 L16.65 -68.35 14.45 -72.25 18.85 -72.25 M28.3 -72.2 L25.95 -72.2 25.95 -69.85 28.3 -69.85 28.3 -72.2 M7.3 -69.85 L7.3 -72.2 4.95 -72.2 4.95 -69.85 7.3 -69.85 M21.7 -75.05 L20.65 -75.65 19.4 -73.4 13.9 -73.4 12.65 -75.65 11.6 -75.05 16.65 -65.9 21.7 -75.05 M-14.05 -11.4 L-15.15 -11.8 -15.85 -10.15 -14.85 -9.75 -14.2 -11.15 Q-13.8 -11.2 -14.05 -11.4 M-8.05 -6.85 L-7.9 -6.85 Q-8.95 -3.3 -10.05 -3.3 -10.65 -3.3 -10.7 -3.9 -10.75 -4.9 -10.2 -5.8 -9.45 -6.85 -8.05 -6.85 M-5.8 -10.85 L-5.8 -12.0 -10.35 -12.0 -10.35 -10.8 -7.0 -10.8 -7.6 -7.85 -8.15 -7.9 Q-9.65 -7.9 -10.75 -6.8 -11.8 -5.7 -11.8 -4.15 -11.75 -2.0 -9.95 -2.05 -8.2 -2.1 -6.8 -6.75 -5.45 -6.55 -3.95 -5.85 L-3.95 -5.7 -4.05 -5.85 Q-3.95 -3.25 -6.4 -1.9 L-5.6 -0.95 Q-3.2 -2.55 -2.95 -5.3 L-1.7 -4.4 -1.0 -5.55 -2.9 -6.7 -2.9 -9.7 -3.95 -9.7 -3.95 -7.15 -6.5 -7.75 Q-6.1 -9.1 -5.8 -10.85 M-17.65 -4.7 L-15.5 -4.7 -16.6 -3.3 -17.65 -4.7 M-23.4 -9.4 L-22.45 -9.4 Q-22.55 -7.1 -23.05 -5.0 L-24.1 -5.5 Q-23.6 -7.55 -23.4 -9.4 M-19.5 -11.8 L-17.25 -11.95 -15.15 -12.15 -14.45 -12.25 Q-13.95 -11.95 -14.1 -12.3 L-14.6 -13.2 -21.0 -12.65 -20.75 -11.8 -19.5 -11.8 M-17.85 -7.45 L-17.75 -8.4 -14.0 -8.4 -14.0 -9.45 -20.55 -9.45 -20.55 -8.4 -18.85 -8.4 -18.95 -7.45 -21.15 -7.45 -21.15 -6.45 -19.1 -6.45 Q-19.7 -3.85 -21.45 -2.4 L-22.35 -1.75 -21.7 -0.8 -20.4 -1.75 Q-19.25 -2.85 -18.65 -4.55 L-17.35 -2.7 Q-18.2 -2.05 -19.9 -1.55 L-19.5 -0.65 Q-17.8 -1.05 -16.6 -2.0 -15.25 -1.0 -13.75 -0.6 L-13.25 -1.6 Q-14.9 -2.0 -15.85 -2.65 -14.95 -3.6 -14.3 -4.7 -13.85 -4.75 -14.2 -4.95 L-15.15 -5.65 -15.25 -5.55 -18.25 -5.55 -18.05 -6.45 -13.15 -6.45 -13.15 -7.45 -17.85 -7.45 M-20.05 -10.5 L-19.7 -9.7 Q-19.2 -9.9 -18.75 -10.15 -18.95 -10.85 -19.5 -11.5 L-20.45 -11.1 -20.05 -10.5 M-17.45 -9.8 L-16.45 -10.3 Q-16.7 -11.1 -17.25 -11.75 L-18.2 -11.25 -17.8 -10.65 -17.45 -9.8 M-34.85 -4.4 L-31.25 -4.4 -33.05 -3.2 -34.85 -4.4 M-34.25 -8.4 L-33.5 -7.2 -32.45 -7.7 -33.35 -8.8 -34.25 -8.4 M-34.6 -11.15 L-34.5 -11.05 -33.8 -10.0 -32.55 -10.35 -33.45 -11.45 -34.6 -11.15 M-28.85 -7.45 L-29.9 -8.45 -30.7 -7.9 -30.55 -7.75 -29.15 -6.1 -28.15 -6.7 -28.85 -7.45 M-25.55 -10.45 L-25.55 -9.4 -24.45 -9.4 Q-24.8 -6.6 -25.65 -4.25 L-24.65 -3.9 -24.35 -4.65 -23.4 -4.1 Q-24.0 -2.75 -25.65 -1.85 L-25.1 -0.8 Q-23.5 -1.7 -22.5 -3.45 L-21.7 -2.65 -21.05 -3.65 -22.15 -4.5 Q-21.55 -6.8 -21.4 -9.7 L-21.2 -9.95 -21.85 -10.5 -21.9 -10.55 -22.05 -10.45 -23.3 -10.45 -23.05 -12.7 Q-22.7 -12.8 -22.9 -13.0 L-24.1 -13.15 -24.3 -10.45 -25.55 -10.45 M-38.45 -11.45 L-36.45 -11.55 -33.5 -11.75 -30.7 -11.95 -29.35 -12.05 Q-28.65 -11.9 -28.95 -12.3 L-29.6 -13.1 -38.75 -12.4 -38.45 -11.45 M-35.85 -8.55 L-35.85 -6.7 Q-35.85 -6.0 -35.15 -5.95 -36.35 -4.4 -38.9 -3.85 L-38.55 -2.95 Q-36.7 -3.45 -35.7 -4.15 -34.95 -3.25 -34.05 -2.75 -36.5 -2.0 -39.25 -1.95 L-38.95 -0.85 Q-35.3 -1.25 -33.1 -2.2 -31.2 -1.25 -27.75 -0.95 L-27.25 -2.15 -32.05 -2.8 Q-30.8 -3.55 -29.8 -4.55 L-29.45 -4.8 -30.35 -5.45 -30.55 -5.3 -34.5 -5.3 -34.0 -5.95 -31.75 -5.95 Q-30.9 -5.95 -30.8 -6.65 L-30.75 -7.55 -31.7 -7.75 -31.75 -7.05 Q-31.75 -6.8 -31.95 -6.8 L-34.55 -6.8 Q-34.95 -6.8 -34.95 -7.2 L-34.95 -8.25 -34.7 -8.45 -35.0 -8.55 -35.85 -8.55 M-36.3 -7.5 L-36.4 -7.75 -37.35 -8.2 -37.9 -7.1 -38.6 -6.3 -37.7 -5.7 -36.6 -7.4 -36.3 -7.5 M-38.35 -7.35 L-38.35 -8.95 -28.7 -8.95 -28.7 -7.55 -27.6 -7.55 -27.6 -9.8 -30.55 -9.8 -29.75 -10.95 Q-29.05 -11.15 -29.6 -11.35 L-30.65 -11.8 Q-31.15 -10.55 -31.7 -9.8 L-39.45 -9.8 -39.45 -7.35 -38.35 -7.35 M-36.75 -9.95 L-35.55 -10.3 -36.35 -11.3 -37.5 -10.9 -36.75 -9.95 M-44.35 -30.0 L-44.35 -29.4 -30.4 -29.4 -30.4 -30.0 -44.35 -30.0 M-16.4 -29.4 L-16.4 -30.0 -30.35 -30.0 -30.35 -29.4 -16.4 -29.4 M-16.35 -30.0 L-16.35 -29.4 -2.4 -29.4 -2.4 -30.0 -16.35 -30.0 M-21.25 -36.45 L-21.25 -35.75 -20.15 -35.75 -20.15 -44.4 -27.85 -44.4 -27.85 -35.6 -26.75 -35.6 -26.75 -36.45 -21.25 -36.45 M-16.3 -34.3 L-15.7 -33.55 -3.75 -43.5 -4.35 -44.25 -16.3 -34.3 M-18.0 -33.45 L-18.0 -34.5 -30.1 -34.5 -30.1 -33.45 -18.0 -33.45 M-21.25 -39.95 L-21.25 -37.5 -26.75 -37.5 -26.75 -39.95 -21.25 -39.95 M-21.25 -43.35 L-21.25 -41.0 -26.75 -41.0 -26.75 -43.35 -21.25 -43.35 M-12.7 -55.8 Q-11.6 -56.9 -10.3 -56.85 L-11.8 -51.0 Q-12.4 -51.1 -12.95 -51.65 -13.55 -52.25 -13.55 -53.3 -13.55 -54.95 -12.7 -55.8 M-9.35 -56.8 Q-8.65 -56.7 -8.05 -56.05 -7.45 -55.45 -7.45 -54.45 -7.45 -52.8 -8.25 -51.95 -9.3 -50.95 -10.85 -50.95 L-9.35 -56.8" fill="#ffffff" fill-rule="evenodd" stroke="none"/>
    <path d="M-6.6 -81.7 L-1.55 -92.65 3.5 -81.7 2.45 -81.2 -1.55 -89.95 -5.55 -81.2 -6.6 -81.7 M5.4 -80.65 L19.35 -80.65 19.35 -80.45 19.35 -80.05 5.4 -80.05 5.4 -80.65 M21.4 -81.7 L26.45 -92.65 31.5 -81.7 30.45 -81.2 26.45 -89.95 22.45 -81.2 21.4 -81.7 M32.35 -76.85 Q33.75 -75.5 34.35 -74.25 35.1 -72.8 35.1 -70.85 35.1 -69.2 34.35 -67.7 33.7 -66.35 32.35 -64.8 L31.75 -65.4 Q33.1 -66.9 33.65 -68.1 34.25 -69.4 34.25 -70.85 34.25 -72.6 33.65 -73.9 33.1 -75.05 31.75 -76.3 L32.35 -76.85 M34.35 -59.2 L33.45 -60.2 34.05 -60.8 Q36.75 -58.2 36.75 -54.8 36.75 -51.45 34.05 -48.85 L33.45 -49.45 Q35.95 -51.8 35.95 -54.8 35.95 -57.2 34.35 -59.2 M37.3 -49.25 L45.15 -49.25 45.15 -48.6 37.3 -48.6 37.3 -49.25 M44.9 -45.95 L45.45 -45.95 45.45 -32.05 44.35 -32.05 44.35 -45.95 44.9 -45.95 M45.3 -28.75 L45.3 -16.05 44.2 -16.05 44.2 -29.95 45.3 -29.95 45.3 -28.75 M41.8 -12.25 L42.4 -11.5 30.45 -1.55 29.85 -2.3 41.8 -12.25 M28.05 -1.0 L28.05 -0.05 26.95 -0.05 26.95 -13.95 28.05 -13.95 28.05 -1.0 M-45.45 -0.05 L-46.55 -0.05 -46.55 -13.95 -45.45 -13.95 -45.45 -0.05 M-46.55 -16.05 L-46.55 -29.95 -45.45 -29.95 -45.45 -16.05 -46.55 -16.05 M-43.7 -33.55 L-44.3 -34.3 -32.35 -44.25 -31.75 -43.5 -43.7 -33.55 M-28.45 -48.05 L-28.45 -48.65 -14.5 -48.65 -14.5 -48.05 -28.45 -48.05 M-12.3 -49.1 L-12.05 -50.05 Q-13.0 -50.35 -13.7 -51.0 -14.6 -51.9 -14.6 -53.3 -14.6 -55.3 -13.45 -56.45 -12.1 -57.8 -10.05 -57.75 L-9.4 -60.7 -8.35 -60.7 -9.15 -57.65 -8.15 -57.3 -7.15 -56.55 Q-6.35 -55.75 -6.35 -54.4 -6.35 -52.45 -7.5 -51.3 -8.8 -50.0 -11.05 -50.0 L-11.55 -48.2 -12.6 -48.2 -12.3 -49.1 M-8.4 -64.8 L-10.4 -67.7 Q-11.15 -69.2 -11.15 -70.85 -11.15 -72.8 -10.4 -74.25 -9.8 -75.5 -8.4 -76.85 L-7.8 -76.3 Q-9.15 -75.05 -9.7 -73.9 -10.3 -72.6 -10.3 -70.85 -10.3 -69.4 -9.7 -68.1 -9.15 -66.9 -7.8 -65.4 L-8.4 -64.8 M-9.35 -56.8 L-10.85 -50.95 Q-9.3 -50.95 -8.25 -51.95 -7.45 -52.8 -7.45 -54.45 -7.45 -55.45 -8.05 -56.05 -8.65 -56.7 -9.35 -56.8 M-12.7 -55.8 Q-13.55 -54.95 -13.55 -53.3 -13.55 -52.25 -12.95 -51.65 -12.4 -51.1 -11.8 -51.0 L-10.3 -56.85 Q-11.6 -56.9 -12.7 -55.8 M-21.25 -43.35 L-26.75 -43.35 -26.75 -41.0 -21.25 -41.0 -21.25 -43.35 M-21.25 -39.95 L-26.75 -39.95 -26.75 -37.5 -21.25 -37.5 -21.25 -39.95 M-18.0 -33.45 L-30.1 -33.45 -30.1 -34.5 -18.0 -34.5 -18.0 -33.45 M-16.3 -34.3 L-4.35 -44.25 -3.75 -43.5 -15.7 -33.55 -16.3 -34.3 M-21.25 -36.45 L-26.75 -36.45 -26.75 -35.6 -27.85 -35.6 -27.85 -44.4 -20.15 -44.4 -20.15 -35.75 -21.25 -35.75 -21.25 -36.45 M-16.35 -30.0 L-2.4 -30.0 -2.4 -29.4 -16.35 -29.4 -16.35 -30.0 M-16.4 -29.4 L-30.35 -29.4 -30.35 -30.0 -16.4 -30.0 -16.4 -29.4 M-44.35 -30.0 L-30.4 -30.0 -30.4 -29.4 -44.35 -29.4 -44.35 -30.0 M-36.75 -9.95 L-37.5 -10.9 -36.35 -11.3 -35.55 -10.3 -36.75 -9.95 M-38.35 -7.35 L-39.45 -7.35 -39.45 -9.8 -31.7 -9.8 Q-31.15 -10.55 -30.65 -11.8 L-29.6 -11.35 Q-29.05 -11.15 -29.75 -10.95 L-30.55 -9.8 -27.6 -9.8 -27.6 -7.55 -28.7 -7.55 -28.7 -8.95 -38.35 -8.95 -38.35 -7.35 M-36.3 -7.5 L-36.6 -7.4 -37.7 -5.7 -38.6 -6.3 -37.9 -7.1 -37.35 -8.2 -36.4 -7.75 -36.3 -7.5 M-35.85 -8.55 L-35.0 -8.55 -34.7 -8.45 -34.95 -8.25 -34.95 -7.2 Q-34.95 -6.8 -34.55 -6.8 L-31.95 -6.8 Q-31.75 -6.8 -31.75 -7.05 L-31.7 -7.75 -30.75 -7.55 -30.8 -6.65 Q-30.9 -5.95 -31.75 -5.95 L-34.0 -5.95 -34.5 -5.3 -30.55 -5.3 -30.35 -5.45 -29.45 -4.8 -29.8 -4.55 Q-30.8 -3.55 -32.05 -2.8 L-27.25 -2.15 -27.75 -0.95 Q-31.2 -1.25 -33.1 -2.2 -35.3 -1.25 -38.95 -0.85 L-39.25 -1.95 Q-36.5 -2.0 -34.05 -2.75 -34.95 -3.25 -35.7 -4.15 -36.7 -3.45 -38.55 -2.95 L-38.9 -3.85 Q-36.35 -4.4 -35.15 -5.95 -35.85 -6.0 -35.85 -6.7 L-35.85 -8.55 M-38.45 -11.45 L-38.75 -12.4 -29.6 -13.1 -28.95 -12.3 Q-28.65 -11.9 -29.35 -12.05 L-30.7 -11.95 -33.5 -11.75 -36.45 -11.55 -38.45 -11.45 M-25.55 -10.45 L-24.3 -10.45 -24.1 -13.15 -22.9 -13.0 Q-22.7 -12.8 -23.05 -12.7 L-23.3 -10.45 -22.05 -10.45 -21.9 -10.55 -21.85 -10.5 -21.2 -9.95 -21.4 -9.7 Q-21.55 -6.8 -22.15 -4.5 L-21.05 -3.65 -21.7 -2.65 -22.5 -3.45 Q-23.5 -1.7 -25.1 -0.8 L-25.65 -1.85 Q-24.0 -2.75 -23.4 -4.1 L-24.35 -4.65 -24.65 -3.9 -25.65 -4.25 Q-24.8 -6.6 -24.45 -9.4 L-25.55 -9.4 -25.55 -10.45 M-28.85 -7.45 L-28.15 -6.7 -29.15 -6.1 -30.55 -7.75 -30.7 -7.9 -29.9 -8.45 -28.85 -7.45 M-34.6 -11.15 L-33.45 -11.45 -32.55 -10.35 -33.8 -10.0 -34.5 -11.05 -34.6 -11.15 M-34.25 -8.4 L-33.35 -8.8 -32.45 -7.7 -33.5 -7.2 -34.25 -8.4 M-34.85 -4.4 L-33.05 -3.2 -31.25 -4.4 -34.85 -4.4 M-17.45 -9.8 L-17.8 -10.65 -18.2 -11.25 -17.25 -11.75 Q-16.7 -11.1 -16.45 -10.3 L-17.45 -9.8 M-20.05 -10.5 L-20.45 -11.1 -19.5 -11.5 Q-18.95 -10.85 -18.75 -10.15 -19.2 -9.9 -19.7 -9.7 L-20.05 -10.5 M-17.85 -7.45 L-13.15 -7.45 -13.15 -6.45 -18.05 -6.45 -18.25 -5.55 -15.25 -5.55 -15.15 -5.65 -14.2 -4.95 Q-13.85 -4.75 -14.3 -4.7 -14.95 -3.6 -15.85 -2.65 -14.9 -2.0 -13.25 -1.6 L-13.75 -0.6 Q-15.25 -1.0 -16.6 -2.0 -17.8 -1.05 -19.5 -0.65 L-19.9 -1.55 Q-18.2 -2.05 -17.35 -2.7 L-18.65 -4.55 Q-19.25 -2.85 -20.4 -1.75 L-21.7 -0.8 -22.35 -1.75 -21.45 -2.4 Q-19.7 -3.85 -19.1 -6.45 L-21.15 -6.45 -21.15 -7.45 -18.95 -7.45 -18.85 -8.4 -20.55 -8.4 -20.55 -9.45 -14.0 -9.45 -14.0 -8.4 -17.75 -8.4 -17.85 -7.45 M-19.5 -11.8 L-20.75 -11.8 -21.0 -12.65 -14.6 -13.2 -14.1 -12.3 Q-13.95 -11.95 -14.45 -12.25 L-15.15 -12.15 -17.25 -11.95 -19.5 -11.8 M-23.4 -9.4 Q-23.6 -7.55 -24.1 -5.5 L-23.05 -5.0 Q-22.55 -7.1 -22.45 -9.4 L-23.4 -9.4 M-17.65 -4.7 L-16.6 -3.3 -15.5 -4.7 -17.65 -4.7 M-5.8 -10.85 Q-6.1 -9.1 -6.5 -7.75 L-3.95 -7.15 -3.95 -9.7 -2.9 -9.7 -2.9 -6.7 -1.0 -5.55 -1.7 -4.4 -2.95 -5.3 Q-3.2 -2.55 -5.6 -0.95 L-6.4 -1.9 Q-3.95 -3.25 -4.05 -5.85 L-3.95 -5.7 -3.95 -5.85 Q-5.45 -6.55 -6.8 -6.75 -8.2 -2.1 -9.95 -2.05 -11.75 -2.0 -11.8 -4.15 -11.8 -5.7 -10.75 -6.8 -9.65 -7.9 -8.15 -7.9 L-7.6 -7.85 -7.0 -10.8 -10.35 -10.8 -10.35 -12.0 -5.8 -12.0 -5.8 -10.85 M-8.05 -6.85 Q-9.45 -6.85 -10.2 -5.8 -10.75 -4.9 -10.7 -3.9 -10.65 -3.3 -10.05 -3.3 -8.95 -3.3 -7.9 -6.85 L-8.05 -6.85 M-14.05 -11.4 Q-13.8 -11.2 -14.2 -11.15 L-14.85 -9.75 -15.85 -10.15 -15.15 -11.8 -14.05 -11.4 M21.7 -75.05 L16.65 -65.9 11.6 -75.05 12.65 -75.65 13.9 -73.4 19.4 -73.4 20.65 -75.65 21.7 -75.05 M7.3 -69.85 L4.95 -69.85 4.95 -72.2 7.3 -72.2 7.3 -69.85 M28.3 -72.2 L28.3 -69.85 25.95 -69.85 25.95 -72.2 28.3 -72.2 M18.85 -72.25 L14.45 -72.25 16.65 -68.35 18.85 -72.25 M22.2 -52.1 Q21.0 -53.3 21.0 -54.95 21.0 -56.55 22.2 -57.75 23.35 -58.9 25.3 -58.9 L30.5 -58.9 30.5 -57.9 25.3 -57.9 Q23.85 -57.9 22.95 -56.95 22.1 -56.15 22.1 -54.95 22.1 -53.7 22.95 -52.9 23.85 -51.95 25.3 -51.95 L30.5 -51.95 30.5 -50.95 25.3 -50.95 Q23.35 -50.95 22.2 -52.1 M25.6 -29.4 L11.65 -29.4 11.65 -30.0 25.6 -30.0 25.6 -29.4 M19.0 -48.6 L14.8 -48.6 14.8 -49.25 19.0 -49.25 19.0 -48.6 M27.85 -29.95 L27.85 -16.05 26.75 -16.05 26.75 -29.95 27.85 -29.95 M29.95 -34.3 L41.9 -44.25 42.5 -43.5 30.55 -33.55 29.95 -34.3 M24.25 -43.5 L12.3 -33.55 11.7 -34.3 23.65 -44.25 24.25 -43.5 M14.75 -48.6 L10.55 -48.6 10.55 -49.25 14.75 -49.25 14.75 -48.6 M10.5 -48.05 L-3.45 -48.05 -3.45 -48.65 10.5 -48.65 10.5 -48.05 M8.15 -38.5 L-0.15 -38.5 -0.15 -39.7 8.15 -39.7 8.15 -38.5 M8.9 -42.65 L-0.85 -42.65 -0.85 -43.85 8.9 -43.85 8.9 -42.65 M-1.9 -35.25 L9.9 -35.25 9.9 -34.05 -1.9 -34.05 -1.9 -35.25 M-2.35 -30.0 L11.6 -30.0 11.6 -29.4 -2.35 -29.4 -2.35 -30.0 M4.2 -12.9 L3.95 -10.05 5.75 -10.1 Q6.6 -10.05 7.05 -9.4 7.45 -8.75 7.45 -7.45 7.45 -1.35 5.4 -1.3 4.55 -1.3 3.4 -2.1 L3.9 -3.15 Q4.6 -2.45 5.3 -2.45 5.8 -2.45 6.1 -3.9 L6.35 -7.05 6.15 -8.75 5.6 -9.1 3.85 -8.95 Q3.35 -5.5 2.1 -2.7 L1.55 -1.55 0.65 -2.15 Q2.1 -4.8 2.7 -8.8 L0.9 -8.55 0.65 -9.7 2.85 -9.95 3.05 -13.0 4.2 -12.9 M7.45 -10.35 L8.3 -11.1 Q10.1 -8.9 10.95 -5.6 L9.85 -5.1 8.85 -8.05 7.75 -10.0 7.45 -10.35 M11.9 -1.8 L14.7 -12.95 15.9 -12.6 14.4 -7.0 Q15.3 -7.85 16.25 -7.85 17.2 -7.85 17.8 -7.15 18.25 -6.55 18.25 -5.85 L18.25 -3.05 18.45 -2.4 Q18.55 -2.1 18.9 -2.15 20.55 -2.15 21.3 -7.35 L22.35 -6.8 Q21.85 -3.8 21.05 -2.5 20.2 -0.95 18.8 -1.0 18.0 -1.0 17.6 -1.5 17.15 -2.0 17.15 -3.05 L17.15 -5.85 16.85 -6.5 16.15 -6.75 15.05 -6.45 Q14.4 -6.05 14.15 -5.4 13.75 -4.5 13.05 -1.35 L11.9 -1.8" fill="#000000" fill-rule="evenodd" stroke="none"/>
  </g>
</svg>
