<svg xmlns:xlink="http://www.w3.org/1999/xlink" height="86.45px" width="55.95px" xmlns="http://www.w3.org/2000/svg">
  <g transform="matrix(1.0, 0.0, 0.0, 1.0, 28.45, 86.5)">
    <path d="M-22.95 -73.35 L-24.15 -73.95 -18.4 -86.5 -12.65 -73.95 -13.8 -73.35 -18.4 -83.35 -22.95 -73.35 M-10.45 -72.75 L5.5 -72.75 5.5 -72.05 -10.45 -72.05 -10.45 -72.75 M7.85 -73.95 L13.6 -86.5 19.35 -73.95 18.2 -73.35 13.6 -83.35 9.05 -73.35 7.85 -73.95 M21.25 -68.7 Q22.85 -67.2 23.55 -65.75 24.35 -64.05 24.35 -61.85 24.35 -59.95 23.55 -58.25 22.8 -56.7 21.25 -54.95 L20.55 -55.6 Q22.1 -57.3 22.75 -58.7 23.45 -60.2 23.45 -61.85 23.45 -63.85 22.75 -65.3 L21.1 -67.55 20.55 -68.05 21.25 -68.7 M21.15 -50.05 L21.85 -50.7 Q23.45 -49.2 24.15 -47.75 24.95 -46.05 24.95 -43.85 24.95 -41.95 24.15 -40.25 23.4 -38.7 21.85 -36.95 L21.15 -37.6 Q22.7 -39.3 23.35 -40.7 24.05 -42.2 24.05 -43.85 24.05 -45.85 23.35 -47.3 22.7 -48.6 21.15 -50.05 M19.35 -32.05 L20.05 -32.7 Q21.65 -31.2 22.35 -29.75 23.15 -28.05 23.15 -25.85 23.15 -23.95 22.35 -22.25 21.6 -20.7 20.05 -18.95 L19.35 -19.6 Q20.9 -21.3 21.55 -22.7 22.25 -24.2 22.25 -25.85 22.25 -27.85 21.55 -29.3 20.9 -30.6 19.35 -32.05 M23.7 -14.05 L24.4 -14.7 Q26.0 -13.2 26.7 -11.75 27.5 -10.05 27.5 -7.85 27.5 -5.95 26.7 -4.25 25.95 -2.7 24.4 -0.95 L23.7 -1.6 Q25.25 -3.3 25.9 -4.7 26.6 -6.2 26.6 -7.85 26.6 -9.85 25.9 -11.3 L23.7 -14.05 M21.85 -0.75 L22.4 -0.75 22.4 -0.05 6.45 -0.05 6.45 -0.75 21.85 -0.75 M0.4 -0.95 L-0.3 -1.6 Q1.25 -3.3 1.9 -4.7 2.6 -6.2 2.6 -7.85 2.6 -9.85 1.9 -11.3 L-0.3 -14.05 0.4 -14.7 Q2.0 -13.2 2.7 -11.75 3.5 -10.05 3.5 -7.85 3.5 -5.95 2.7 -4.25 1.95 -2.7 0.4 -0.95 M-1.6 -0.75 L-1.6 -0.05 -17.55 -0.05 -17.55 -0.75 -1.6 -0.75 M-17.65 -0.75 L-17.65 -0.7 -22.45 -0.7 -22.45 -1.45 -21.7 -1.45 -17.65 -1.45 -17.65 -0.75 M-23.75 -1.6 L-24.45 -0.95 Q-26.0 -2.7 -26.75 -4.25 -27.55 -5.95 -27.55 -7.85 -27.55 -10.05 -26.75 -11.75 -26.05 -13.2 -24.45 -14.7 L-23.75 -14.05 -25.95 -11.3 Q-26.65 -9.85 -26.65 -7.85 -26.65 -6.2 -25.95 -4.7 -25.3 -3.3 -23.75 -1.6 M-21.05 -20.25 L-22.15 -18.95 -22.85 -19.6 Q-21.3 -21.3 -20.65 -22.7 -19.95 -24.2 -19.95 -25.85 -19.95 -27.85 -20.65 -29.3 -21.3 -30.6 -22.85 -32.05 L-22.15 -32.7 -21.1 -31.6 Q-20.3 -30.7 -19.85 -29.75 -19.05 -28.05 -19.05 -25.85 -19.05 -23.95 -19.85 -22.25 -20.3 -21.3 -21.05 -20.25 M-25.35 -36.95 Q-26.9 -38.7 -27.65 -40.25 -28.45 -41.95 -28.45 -43.85 -28.45 -46.05 -27.65 -47.75 -26.95 -49.2 -25.35 -50.7 L-24.65 -50.05 Q-26.2 -48.6 -26.85 -47.3 -27.55 -45.85 -27.55 -43.85 -27.55 -42.2 -26.85 -40.7 -26.2 -39.3 -24.65 -37.6 L-25.35 -36.95 M-25.35 -54.95 Q-26.9 -56.7 -27.65 -58.25 -28.45 -59.95 -28.45 -61.85 -28.45 -64.05 -27.65 -65.75 -26.95 -67.2 -25.35 -68.7 L-24.65 -68.05 Q-26.2 -66.6 -26.85 -65.3 -27.55 -63.85 -27.55 -61.85 -27.55 -60.2 -26.85 -58.7 -26.2 -57.3 -24.65 -55.6 L-25.35 -54.95 M0.8 -63.45 L3.3 -59.0 5.8 -63.45 0.8 -63.45 M0.2 -64.75 L6.45 -64.75 7.85 -67.3 9.05 -66.6 3.3 -56.2 -2.45 -66.6 -1.25 -67.3 0.2 -64.75 M-11.9 -66.3 L-9.5 -69.05 -7.9 -69.05 -5.5 -66.3 -6.8 -66.3 -8.7 -67.85 -10.55 -66.3 -11.9 -66.3 M3.45 -41.6 Q4.5 -40.55 6.15 -40.55 L12.05 -40.55 12.05 -39.35 6.15 -39.35 Q3.95 -39.35 2.65 -40.7 1.25 -42.05 1.25 -43.95 1.25 -45.8 2.65 -47.2 3.95 -48.5 6.15 -48.5 L12.05 -48.5 12.05 -47.3 6.15 -47.3 Q4.5 -47.3 3.45 -46.25 2.5 -45.3 2.5 -43.95 2.5 -42.55 3.45 -41.6 M-8.75 -46.5 Q-9.4 -47.25 -10.5 -47.3 -11.75 -47.35 -13.7 -46.7 L-17.2 -45.2 -17.75 -46.75 -13.75 -48.1 -10.7 -48.6 Q-9.05 -48.6 -8.0 -47.7 -6.55 -46.45 -6.7 -43.85 -6.8 -41.25 -8.7 -39.85 -10.45 -38.55 -13.65 -38.55 L-13.95 -40.0 Q-10.3 -40.0 -9.0 -41.5 -8.0 -42.5 -8.05 -44.35 -8.05 -45.7 -8.75 -46.5 M4.5 -25.85 Q4.5 -23.95 3.7 -22.25 2.95 -20.7 1.4 -18.95 L0.7 -19.6 Q2.25 -21.3 2.9 -22.7 3.6 -24.2 3.6 -25.85 3.6 -27.85 2.9 -29.3 L0.7 -32.05 1.4 -32.7 Q3.0 -31.2 3.7 -29.75 4.5 -28.05 4.5 -25.85 M17.2 -66.3 L15.3 -67.85 13.45 -66.3 12.1 -66.3 14.5 -69.05 16.1 -69.05 18.5 -66.3 17.2 -66.3" fill="#000000" fill-rule="evenodd" stroke="none"/>
    <path d="M-25.35 -68.7 L-22.95 -73.3 -22.95 -73.35 -18.4 -83.35 -13.8 -73.35 Q-12.2 -74.1 -10.45 -72.75 L-10.45 -72.05 5.5 -72.05 5.5 -72.75 Q8.0 -74.55 7.85 -73.95 L9.05 -73.35 13.6 -83.35 18.2 -73.35 19.35 -73.95 19.4 -73.7 Q19.95 -71.4 21.25 -68.7 L20.55 -68.05 21.1 -67.55 22.75 -65.3 Q23.45 -63.85 23.45 -61.85 23.45 -60.2 22.75 -58.7 22.1 -57.3 20.55 -55.6 20.2 -54.95 18.7 -54.35 L18.35 -54.25 21.15 -50.05 Q22.7 -48.6 23.35 -47.3 24.05 -45.85 24.05 -43.85 24.05 -42.2 23.35 -40.7 22.7 -39.3 21.15 -37.6 L18.35 -35.35 19.35 -32.05 Q20.9 -30.6 21.55 -29.3 22.25 -27.85 22.25 -25.85 22.25 -24.2 21.55 -22.7 20.9 -21.3 19.35 -19.6 L19.55 -18.8 Q18.4 -18.55 17.95 -18.05 L21.4 -13.7 23.7 -14.05 25.9 -11.3 Q26.6 -9.85 26.6 -7.85 26.6 -6.2 25.9 -4.7 25.25 -3.3 23.7 -1.6 22.75 -2.35 21.85 -0.75 L6.45 -0.75 0.4 -0.75 0.4 -0.95 Q1.95 -2.7 2.7 -4.25 3.5 -5.95 3.5 -7.85 3.5 -10.05 2.7 -11.75 2.0 -13.2 0.4 -14.7 L-0.3 -14.05 1.9 -11.3 Q2.6 -9.85 2.6 -7.85 2.6 -6.2 1.9 -4.7 1.25 -3.3 -0.3 -1.6 L-1.6 -0.75 -17.55 -0.75 -17.65 -0.75 -17.65 -1.45 -21.7 -1.45 -23.25 -1.8 -23.75 -1.6 Q-25.3 -3.3 -25.95 -4.7 -26.65 -6.2 -26.65 -7.85 -26.65 -9.85 -25.95 -11.3 L-23.75 -14.05 -24.45 -14.7 -21.05 -20.25 Q-20.3 -21.3 -19.85 -22.25 -19.05 -23.95 -19.05 -25.85 -19.05 -28.05 -19.85 -29.75 -20.3 -30.7 -21.1 -31.6 L-22.15 -32.7 Q-22.7 -34.75 -25.35 -36.95 L-24.65 -37.6 Q-26.2 -39.3 -26.85 -40.7 -27.55 -42.2 -27.55 -43.85 -27.55 -45.85 -26.85 -47.3 -26.2 -48.6 -24.65 -50.05 L-25.35 -50.7 Q-24.2 -51.75 -23.15 -53.35 L-23.1 -53.45 Q-23.65 -54.9 -25.35 -54.95 L-24.65 -55.6 Q-26.2 -57.3 -26.85 -58.7 -27.55 -60.2 -27.55 -61.85 -27.55 -63.85 -26.85 -65.3 -26.2 -66.6 -24.65 -68.05 L-25.35 -68.7 M17.2 -66.3 L18.5 -66.3 16.1 -69.05 14.5 -69.05 12.1 -66.3 13.45 -66.3 15.3 -67.85 17.2 -66.3 M4.5 -25.85 Q4.5 -28.05 3.7 -29.75 3.0 -31.2 1.4 -32.7 L0.7 -32.05 2.9 -29.3 Q3.6 -27.85 3.6 -25.85 3.6 -24.2 2.9 -22.7 2.25 -21.3 0.7 -19.6 L1.4 -18.95 Q2.95 -20.7 3.7 -22.25 4.5 -23.95 4.5 -25.85 M-8.75 -46.5 Q-8.05 -45.7 -8.05 -44.35 -8.0 -42.5 -9.0 -41.5 -10.3 -40.0 -13.95 -40.0 L-13.65 -38.55 Q-10.45 -38.55 -8.7 -39.85 -6.8 -41.25 -6.7 -43.85 -6.55 -46.45 -8.0 -47.7 -9.05 -48.6 -10.7 -48.6 L-13.75 -48.1 -17.75 -46.75 -17.2 -45.2 -13.7 -46.7 Q-11.75 -47.35 -10.5 -47.3 -9.4 -47.25 -8.75 -46.5 M3.45 -41.6 Q2.5 -42.55 2.5 -43.95 2.5 -45.3 3.45 -46.25 4.5 -47.3 6.15 -47.3 L12.05 -47.3 12.05 -48.5 6.15 -48.5 Q3.95 -48.5 2.65 -47.2 1.25 -45.8 1.25 -43.95 1.25 -42.05 2.65 -40.7 3.95 -39.35 6.15 -39.35 L12.05 -39.35 12.05 -40.55 6.15 -40.55 Q4.5 -40.55 3.45 -41.6 M-11.9 -66.3 L-10.55 -66.3 -8.7 -67.85 -6.8 -66.3 -5.5 -66.3 -7.9 -69.05 -9.5 -69.05 -11.9 -66.3 M0.2 -64.75 L-1.25 -67.3 -2.45 -66.6 3.3 -56.2 9.05 -66.6 7.85 -67.3 6.45 -64.75 0.2 -64.75 M0.8 -63.45 L5.8 -63.45 3.3 -59.0 0.8 -63.45" fill="#ffffff" fill-rule="evenodd" stroke="none"/>
  </g>
</svg>
