<svg xmlns:xlink="http://www.w3.org/1999/xlink" height="52.6px" width="101.2px" xmlns="http://www.w3.org/2000/svg">
  <g transform="matrix(1.0, 0.0, 0.0, 1.0, 61.1, 26.3)">
    <path d="M34.45 -12.9 L33.2 -12.3 28.4 -22.95 23.55 -12.3 22.3 -12.9 28.4 -26.3 34.45 -12.9 M12.25 -12.9 L11.0 -12.3 6.2 -22.95 1.35 -12.3 0.4 -12.75 0.1 -12.9 6.2 -26.3 12.25 -12.9 M0.4 -8.0 L0.4 -7.3 -16.55 -7.3 -16.55 -8.0 0.4 -8.0 M-16.6 -7.3 L-26.8 -7.3 -26.8 -7.7 -26.8 -8.0 -16.6 -8.0 -16.6 -7.3 M-40.8 -6.9 L-43.05 -2.9 -43.8 -2.9 -44.2 -2.9 -42.8 -6.95 -40.75 -6.95 -40.8 -6.9 M-44.7 14.9 L-43.65 14.9 -43.65 22.8 Q-43.65 23.75 -43.0 24.35 -42.3 25.0 -40.85 25.05 -39.5 25.0 -38.75 24.35 L-38.4 23.85 -38.2 22.8 -38.2 14.9 -36.65 14.9 -36.65 22.85 Q-36.65 24.35 -37.55 25.25 L-38.4 25.9 -40.85 26.3 Q-43.15 26.3 -44.2 25.25 -45.15 24.35 -45.15 22.85 L-45.15 14.9 -44.7 14.9 M-34.25 14.9 L-32.75 14.9 -32.75 22.8 Q-32.75 23.75 -32.1 24.35 -31.4 25.0 -29.95 25.05 -28.55 25.0 -27.85 24.35 -27.25 23.75 -27.25 22.8 L-27.25 14.9 -27.0 14.9 -25.75 14.9 -25.75 22.85 Q-25.75 24.35 -26.65 25.25 -27.7 26.3 -29.95 26.3 -32.25 26.3 -33.3 25.25 -34.25 24.35 -34.25 22.85 L-34.25 14.9 M-26.75 12.35 L-26.65 11.85 -0.5 11.85 -0.5 12.3 -0.5 12.5 -17.45 12.5 -17.45 12.45 -17.55 12.45 -17.55 12.5 -23.3 12.45 -23.3 12.35 -26.55 12.3 -26.75 12.35 M4.25 14.95 L4.25 14.9 5.7 14.9 5.7 22.8 Q5.65 23.75 6.35 24.35 7.0 25.0 8.45 25.05 9.9 25.0 10.6 24.35 11.15 23.75 11.15 22.8 L11.15 14.9 12.7 14.9 12.7 15.1 12.7 22.85 Q12.7 24.35 11.8 25.25 10.7 26.3 8.45 26.3 6.2 26.3 5.15 25.25 4.2 24.35 4.25 22.85 L4.25 14.95 M20.3 15.1 L20.3 14.9 21.8 14.9 21.8 22.8 Q21.8 23.75 22.4 24.35 23.15 25.0 24.5 25.05 25.95 25.0 26.7 24.35 27.2 23.75 27.2 22.8 L27.2 14.9 28.25 14.9 28.8 14.9 28.8 22.85 Q28.8 24.35 27.9 25.25 26.8 26.3 24.5 26.3 22.3 26.3 21.2 25.25 20.25 24.35 20.3 22.85 L20.3 15.1 M36.4 7.45 L36.1 7.15 Q39.1 4.3 39.1 0.7 39.1 -3.0 36.1 -5.8 L36.5 -6.3 36.8 -6.55 Q40.1 -3.5 40.1 0.7 40.1 4.8 36.8 7.9 L36.4 7.45 M21.65 -5.25 L21.65 -1.9 Q21.6 2.45 19.85 5.15 L26.3 5.15 26.3 -5.25 21.65 -5.25 M27.65 -6.55 L27.65 5.15 29.15 5.15 29.15 8.8 27.9 8.8 27.9 6.45 18.5 6.45 18.5 8.8 17.25 8.8 17.25 5.15 18.35 5.15 Q20.35 2.4 20.35 -1.9 L20.35 -6.55 27.65 -6.55 M33.6 -7.1 L32.9 -6.8 Q32.6 -6.6 32.6 -6.1 32.6 -5.65 32.9 -5.4 L33.6 -5.1 34.4 -5.4 34.6 -6.1 34.4 -6.8 33.6 -7.1 M34.65 -7.15 Q35.15 -6.65 35.15 -6.1 35.15 -5.55 34.65 -5.05 34.2 -4.55 33.6 -4.55 33.0 -4.55 32.55 -5.05 32.1 -5.55 32.1 -6.1 32.1 -6.65 32.55 -7.15 33.0 -7.7 33.6 -7.65 34.2 -7.7 34.65 -7.15 M4.35 -6.55 L5.15 -5.8 Q2.1 -3.0 2.1 0.7 2.1 4.3 5.15 7.15 L4.35 7.9 Q1.0 4.8 1.05 0.7 1.0 -2.5 2.95 -5.0 L4.35 -6.55 M13.8 -7.15 L14.3 -6.1 Q14.3 -5.55 13.8 -5.05 13.35 -4.55 12.7 -4.55 12.15 -4.55 11.65 -5.05 11.25 -5.55 11.25 -6.1 11.25 -6.65 11.65 -7.15 12.15 -7.7 12.7 -7.65 13.35 -7.7 13.8 -7.15 M12.7 -7.1 Q12.25 -7.1 12.0 -6.8 11.75 -6.6 11.75 -6.1 11.75 -5.65 12.0 -5.4 12.25 -5.15 12.7 -5.1 13.2 -5.15 13.5 -5.4 L13.7 -6.1 13.5 -6.8 Q13.2 -7.1 12.7 -7.1 M-49.65 -0.3 Q-49.3 -0.65 -48.9 -1.35 L-47.55 -0.3 -49.1 1.45 Q-50.15 2.45 -51.55 2.45 -52.7 2.45 -54.75 1.3 -56.25 0.35 -57.25 0.35 -58.35 0.35 -59.0 1.05 L-59.7 2.2 -61.0 1.4 -61.1 1.35 -61.0 1.1 -59.65 -0.5 Q-58.65 -1.45 -57.4 -1.4 -56.05 -1.45 -54.4 -0.4 -52.65 0.6 -51.4 0.6 -50.5 0.6 -49.65 -0.3" fill="#000000" fill-rule="evenodd" stroke="none"/>
    <path d="M22.3 -12.9 L23.55 -12.3 28.4 -22.95 33.2 -12.3 34.45 -12.9 Q34.55 -10.8 36.35 -6.45 L36.5 -6.3 36.1 -5.8 Q39.1 -3.0 39.1 0.7 39.1 4.3 36.1 7.15 L36.4 7.45 36.35 7.5 Q33.2 10.8 29.25 10.9 L28.35 10.85 28.25 14.9 27.2 14.9 27.2 22.8 Q27.2 23.75 26.7 24.35 25.95 25.0 24.5 25.05 23.15 25.0 22.4 24.35 21.8 23.75 21.8 22.8 L21.8 14.9 20.3 14.9 20.3 15.1 12.7 15.1 12.7 14.9 11.15 14.9 11.15 22.8 Q11.15 23.75 10.6 24.35 9.9 25.0 8.45 25.05 7.0 25.0 6.35 24.35 5.65 23.75 5.7 22.8 L5.7 14.9 4.25 14.9 4.25 14.95 3.85 14.95 Q4.05 11.5 -0.5 12.3 L-0.5 11.85 -26.65 11.85 -26.75 12.35 -27.0 14.9 -27.25 14.9 -27.25 22.8 Q-27.25 23.75 -27.85 24.35 -28.55 25.0 -29.95 25.05 -31.4 25.0 -32.1 24.35 -32.75 23.75 -32.75 22.8 L-32.75 14.9 -34.25 14.9 -36.65 14.9 -38.2 14.9 -38.2 22.8 -38.4 23.85 -38.75 24.35 Q-39.5 25.0 -40.85 25.05 -42.3 25.0 -43.0 24.35 -43.65 23.75 -43.65 22.8 L-43.65 14.9 -44.7 14.9 -44.75 14.75 Q-48.05 8.9 -45.2 0.65 L-43.85 -2.75 -43.8 -2.9 -43.05 -2.9 -40.8 -6.9 -26.8 -7.7 -26.8 -7.3 -16.6 -7.3 -16.55 -7.3 0.4 -7.3 0.4 -8.0 0.4 -12.75 1.35 -12.3 6.2 -22.95 11.0 -12.3 12.25 -12.9 12.25 -13.4 22.3 -13.5 22.3 -12.9 M27.65 -6.55 L20.35 -6.55 20.35 -1.9 Q20.35 2.4 18.35 5.15 L17.25 5.15 17.25 8.8 18.5 8.8 18.5 6.45 27.9 6.45 27.9 8.8 29.15 8.8 29.15 5.15 27.65 5.15 27.65 -6.55 M21.65 -5.25 L26.3 -5.25 26.3 5.15 19.85 5.15 Q21.6 2.45 21.65 -1.9 L21.65 -5.25 M12.7 -7.1 Q13.2 -7.1 13.5 -6.8 L13.7 -6.1 13.5 -5.4 Q13.2 -5.15 12.7 -5.1 12.25 -5.15 12.0 -5.4 11.75 -5.65 11.75 -6.1 11.75 -6.6 12.0 -6.8 12.25 -7.1 12.7 -7.1 M13.8 -7.15 Q13.35 -7.7 12.7 -7.65 12.15 -7.7 11.65 -7.15 11.25 -6.65 11.25 -6.1 11.25 -5.55 11.65 -5.05 12.15 -4.55 12.7 -4.55 13.35 -4.55 13.8 -5.05 14.3 -5.55 14.3 -6.1 L13.8 -7.15 M4.35 -6.55 L2.95 -5.0 Q1.0 -2.5 1.05 0.7 1.0 4.8 4.35 7.9 L5.15 7.15 Q2.1 4.3 2.1 0.7 2.1 -3.0 5.15 -5.8 L4.35 -6.55 M34.65 -7.15 Q34.2 -7.7 33.6 -7.65 33.0 -7.7 32.55 -7.15 32.1 -6.65 32.1 -6.1 32.1 -5.55 32.55 -5.05 33.0 -4.55 33.6 -4.55 34.2 -4.55 34.65 -5.05 35.15 -5.55 35.15 -6.1 35.15 -6.65 34.65 -7.15 M33.6 -7.1 L34.4 -6.8 34.6 -6.1 34.4 -5.4 33.6 -5.1 32.9 -5.4 Q32.6 -5.65 32.6 -6.1 32.6 -6.6 32.9 -6.8 L33.6 -7.1 M-17.55 12.5 L-17.55 12.45 -17.45 12.45 -17.45 12.5 -17.55 12.5" fill="#ffffff" fill-rule="evenodd" stroke="none"/>
  </g>
</svg>
