<svg xmlns:xlink="http://www.w3.org/1999/xlink" height="103.55px" width="70.9px" xmlns="http://www.w3.org/2000/svg">
  <g transform="matrix(1.0, 0.0, 0.0, 1.0, 40.65, 50.95)">
    <path d="M19.6 -20.35 L19.2 -20.25 Q18.35 -16.85 18.45 -12.55 L18.1 -10.65 19.35 -11.1 19.4 -10.85 23.0 -12.4 Q25.0 -13.1 26.3 -13.05 27.45 -13.0 28.1 -12.2 28.8 -11.4 28.85 -10.0 28.9 -8.1 27.85 -7.05 26.5 -5.55 22.75 -5.5 L22.9 -4.75 Q17.0 -3.85 14.5 1.5 L13.95 1.15 7.15 13.35 7.35 13.45 6.95 14.1 Q5.15 15.6 4.85 18.5 L4.25 18.5 4.25 25.85 Q4.25 27.15 3.65 27.85 3.05 28.4 1.9 28.4 0.9 28.35 0.15 27.75 -0.65 27.1 -0.65 25.05 L-2.05 25.05 -2.05 25.4 Q-3.6 23.3 -5.45 22.25 L-3.1 18.05 -3.75 17.6 -6.15 21.9 Q-9.05 20.55 -12.65 21.75 L-13.4 22.0 Q-15.1 22.6 -16.05 24.15 L-16.2 24.4 -16.45 24.3 -16.6 25.3 -16.7 25.75 Q-17.0 26.85 -17.45 27.5 -18.2 28.7 -19.6 28.8 -21.4 28.85 -21.95 28.3 -22.6 27.6 -22.6 26.0 L-22.6 17.1 -23.85 17.1 -23.85 17.35 -24.95 14.1 -24.75 13.7 -17.9 1.55 -18.55 1.15 -18.6 1.25 -18.9 -3.45 -18.5 -3.2 -11.65 -15.35 -12.3 -15.75 -13.0 -14.5 Q-13.9 -17.0 -12.9 -19.7 L-12.15 -20.35 Q-13.8 -22.1 -14.45 -23.55 -15.15 -25.1 -15.15 -26.8 -15.15 -28.85 -14.45 -30.35 L-13.35 -31.95 -13.1 -32.25 -12.15 -33.2 -12.55 -33.55 -11.2 -37.1 -10.85 -37.8 -10.0 -37.4 -5.3 -47.7 -0.6 -37.4 -0.45 -37.5 5.3 -38.0 6.5 -37.4 11.15 -47.7 15.9 -37.4 17.0 -38.0 18.9 -35.5 19.0 -35.4 20.35 -33.85 19.6 -33.2 Q21.2 -31.7 21.9 -30.35 22.6 -28.85 22.6 -26.8 22.6 -25.1 21.9 -23.55 21.2 -22.1 19.6 -20.35 M-1.1 13.35 L-0.45 13.7 6.4 1.55 5.7 1.15 -1.1 13.35 M-11.85 18.25 L-13.35 18.25 -13.35 19.65 -12.75 19.65 -13.35 21.6 -12.75 21.6 -11.85 19.65 -11.85 18.25 M-3.3 -14.4 L-6.45 -13.85 -10.55 -12.45 -10.0 -10.85 -6.4 -12.4 Q-4.4 -13.1 -3.1 -13.05 -2.0 -13.0 -1.3 -12.2 -0.6 -11.4 -0.6 -10.0 -0.55 -8.1 -1.55 -7.05 -2.9 -5.55 -6.65 -5.5 L-6.35 -4.0 Q-3.05 -4.05 -1.25 -5.35 0.7 -6.8 0.8 -9.5 0.95 -12.15 -0.5 -13.45 -1.6 -14.4 -3.3 -14.4 M-4.85 -33.35 L-4.6 -34.0 Q-4.35 -34.3 -3.95 -34.25 -3.5 -34.3 -3.2 -34.0 L-2.95 -33.35 Q-2.95 -32.9 -3.2 -32.6 -3.5 -32.35 -3.95 -32.35 -4.35 -32.35 -4.6 -32.6 L-4.85 -33.35 M-3.95 -34.8 L-4.95 -34.35 Q-5.4 -33.9 -5.35 -33.35 -5.4 -32.75 -4.95 -32.3 -4.5 -31.85 -3.95 -31.85 -3.3 -31.85 -2.9 -32.3 -2.45 -32.75 -2.45 -33.35 -2.45 -33.9 -2.9 -34.35 -3.3 -34.8 -3.95 -34.8 M18.1 -10.65 L1.65 -10.65 1.65 -8.65 9.5 -8.65 9.5 -1.45 10.2 -1.45 10.2 -8.65 18.1 -8.65 18.1 -10.65 M17.1 -34.0 L17.35 -33.35 17.1 -32.6 Q16.85 -32.35 16.4 -32.35 15.95 -32.35 15.7 -32.6 15.45 -32.9 15.45 -33.35 L15.7 -34.0 Q15.95 -34.3 16.4 -34.25 16.85 -34.3 17.1 -34.0 M16.4 -34.8 Q15.8 -34.8 15.35 -34.35 14.9 -33.9 14.95 -33.35 14.9 -32.75 15.35 -32.3 15.8 -31.85 16.4 -31.85 17.0 -31.85 17.4 -32.3 17.85 -32.75 17.85 -33.35 L17.4 -34.35 Q17.0 -34.8 16.4 -34.8 M4.8 -29.25 L4.8 -32.45 9.3 -32.45 9.3 -22.35 3.1 -22.35 Q4.8 -25.0 4.8 -29.25 M3.5 -33.7 L3.5 -29.25 Q3.5 -25.1 1.6 -22.35 L0.5 -22.35 0.5 -18.8 1.8 -18.8 1.8 -21.15 10.8 -21.15 10.8 -18.8 12.1 -18.8 12.1 -22.35 10.6 -22.35 10.6 -33.7 3.5 -33.7 M-27.3 36.55 L-28.35 37.5 -29.3 38.6 -29.9 39.8 -30.3 41.0 -30.4 42.35 -30.3 43.8 Q-30.15 44.8 -29.6 45.65 L-28.85 46.75 -27.75 47.7 -26.6 48.45 Q-25.7 49.0 -24.85 49.2 L-23.5 49.25 -22.1 49.2 -20.3 48.5 -19.15 47.75 -18.1 46.7 -17.4 45.6 Q-16.95 44.8 -16.75 43.8 L-16.55 42.35 Q-16.5 41.4 -16.85 40.45 L-17.35 39.25 -18.1 38.1 -19.15 37.05 -20.3 36.35 -21.45 35.75 -22.8 35.45 -23.5 35.4 -24.85 35.55 -26.15 35.95 -27.3 36.55 M-32.4 36.05 L-31.3 34.75 Q-30.85 34.0 -30.0 33.55 L-28.3 32.75 -26.65 32.1 -25.6 31.85 -23.85 31.8 -22.5 31.95 -21.0 32.25 -19.35 32.7 -17.6 33.35 -16.7 33.7 -15.7 34.15 -13.95 34.7 -12.0 34.7 -10.2 34.8 6.25 34.8 6.25 34.05 4.1 34.05 Q4.7 33.15 5.25 32.85 L6.3 32.25 Q6.9 31.95 7.6 31.8 L9.35 31.8 10.35 31.85 11.35 32.1 12.25 32.4 13.25 32.85 14.15 33.4 15.05 34.1 16.5 35.45 15.8 36.05 16.55 36.85 17.15 37.6 18.0 38.95 18.5 40.6 18.7 42.45 18.55 44.1 18.0 45.7 17.1 47.2 16.5 48.05 15.8 48.9 16.55 49.55 15.6 49.95 14.5 50.4 13.65 50.8 12.2 51.1 6.7 51.1 3.8 49.4 3.4 49.1 3.15 48.85 2.75 48.5 2.25 47.95 1.85 47.1 1.25 45.7 -1.65 45.7 -2.45 45.65 -3.15 45.65 -3.9 45.65 -4.6 45.65 -5.4 45.6 -8.4 45.55 -9.9 45.6 -11.4 45.6 -11.05 44.05 -10.95 42.5 -11.2 40.6 -11.8 38.8 Q-12.2 37.9 -12.75 37.15 L-13.4 36.35 -14.1 35.5 -14.8 36.15 -13.5 37.65 Q-13.0 38.35 -12.65 39.2 -12.3 39.95 -12.1 40.85 -11.95 41.65 -11.95 42.5 L-12.05 44.25 -12.25 45.1 -12.6 45.9 -13.0 46.65 -14.1 48.1 -14.8 48.8 -14.15 49.45 -15.75 50.15 -16.7 50.65 -17.75 51.2 -18.85 51.65 Q-19.7 52.1 -20.65 52.15 L-22.55 52.55 -23.95 52.6 -25.45 52.6 -26.95 52.45 -28.3 52.05 -29.9 51.3 -30.8 50.75 -32.25 49.75 -32.85 49.35 -32.25 48.8 -33.45 47.4 -34.4 45.9 -34.95 44.25 -35.2 42.5 -35.05 41.0 -34.6 39.55 -33.85 38.2 -32.9 36.8 -32.4 36.05 M-20.6 39.45 Q-21.8 38.2 -23.5 38.25 -25.15 38.2 -26.4 39.45 -27.65 40.7 -27.65 42.35 -27.65 44.05 -26.4 45.3 -25.15 46.45 -23.5 46.5 -21.8 46.45 -20.6 45.3 -19.4 44.05 -19.4 42.35 -19.4 40.7 -20.6 39.45 M-23.5 39.4 Q-22.25 39.4 -21.4 40.25 -20.5 41.05 -20.5 42.35 -20.5 43.65 -21.4 44.5 -22.25 45.3 -23.5 45.35 -24.8 45.3 -25.6 44.5 -26.45 43.65 -26.45 42.35 -26.45 41.05 -25.6 40.25 -24.8 39.4 -23.5 39.4 M-23.8 36.6 L-23.5 36.6 Q-21.05 36.6 -19.4 38.25 -17.8 39.8 -17.7 42.0 L-17.7 42.35 Q-17.7 44.8 -19.4 46.5 -21.05 48.2 -23.5 48.2 -25.95 48.2 -27.65 46.5 -29.2 44.9 -29.3 42.65 L-29.3 42.35 -29.3 42.05 Q-29.2 39.8 -27.65 38.25 -26.05 36.7 -23.8 36.6 M8.3 35.4 L7.55 36.05 8.9 37.6 9.75 38.95 10.25 40.55 10.45 42.45 10.35 44.15 10.15 44.9 9.85 45.7 9.45 46.45 8.95 47.1 7.7 48.7 7.7 48.75 7.65 48.8 8.3 49.55 9.4 48.1 10.3 46.85 10.95 45.25 11.35 43.45 11.4 41.4 11.25 40.35 11.0 39.45 10.65 38.5 10.25 37.75 9.05 36.25 8.3 35.4" fill="#ffffff" fill-rule="evenodd" stroke="none"/>
    <path d="M20.35 -33.85 L20.45 -33.75 20.6 -33.6 Q22.05 -32.2 22.7 -30.8 23.5 -29.05 23.55 -26.8 23.5 -24.85 22.7 -23.1 21.9 -21.5 20.35 -19.7 L19.6 -20.35 Q21.2 -22.1 21.9 -23.55 22.6 -25.1 22.6 -26.8 22.6 -28.85 21.9 -30.35 21.2 -31.7 19.6 -33.2 L20.35 -33.85 M19.35 -11.1 L18.85 -12.45 22.95 -13.85 26.1 -14.4 Q27.8 -14.4 28.9 -13.45 30.35 -12.15 30.25 -9.5 30.15 -6.8 28.2 -5.35 26.35 -4.05 23.1 -4.0 L22.9 -4.75 22.75 -5.5 Q26.5 -5.55 27.85 -7.05 28.9 -8.1 28.85 -10.0 28.8 -11.4 28.1 -12.2 27.45 -13.0 26.3 -13.05 25.0 -13.1 23.0 -12.4 L19.4 -10.85 19.35 -11.1 M14.5 1.5 L14.6 1.55 7.75 13.7 7.35 13.45 7.15 13.35 13.95 1.15 14.5 1.5 M4.85 18.5 L5.75 18.5 5.75 25.85 Q5.75 27.75 4.9 28.65 3.75 29.7 1.9 29.75 0.1 29.75 -0.95 28.7 -2.0 27.65 -2.05 25.4 L-2.05 25.05 -0.65 25.05 Q-0.65 27.1 0.15 27.75 0.9 28.35 1.9 28.4 3.05 28.4 3.65 27.85 4.25 27.15 4.25 25.85 L4.25 18.5 4.85 18.5 M-5.45 22.25 L-9.95 30.2 -10.55 29.85 -6.15 21.9 -3.75 17.6 -3.1 18.05 -5.45 22.25 M-16.2 24.4 L-15.0 25.0 Q-15.9 30.25 -20.1 30.25 -22.2 30.35 -23.0 29.3 -23.75 28.3 -23.85 26.0 L-23.85 17.35 -23.85 17.1 -22.6 17.1 -22.6 26.0 Q-22.6 27.6 -21.95 28.3 -21.4 28.85 -19.6 28.8 -18.2 28.7 -17.45 27.5 -17.0 26.85 -16.7 25.75 L-16.6 25.3 -16.45 24.3 -16.2 24.4 M-24.75 13.7 L-25.35 13.35 -18.6 1.25 -18.55 1.15 -17.9 1.55 -24.75 13.7 M-18.9 -3.45 L-19.15 -3.55 -13.0 -14.5 -12.3 -15.75 -11.65 -15.35 -18.5 -3.2 -18.9 -3.45 M-12.9 -19.7 Q-14.5 -21.5 -15.25 -23.1 -16.1 -24.85 -16.1 -26.8 -16.1 -29.05 -15.25 -30.8 -14.55 -32.3 -12.9 -33.85 L-12.55 -33.55 -12.15 -33.2 -13.1 -32.25 -13.35 -31.95 -14.45 -30.35 Q-15.15 -28.85 -15.15 -26.8 -15.15 -25.1 -14.45 -23.55 -13.8 -22.1 -12.15 -20.35 L-12.9 -19.7 M-10.85 -37.8 L-11.25 -38.05 -5.3 -50.95 0.6 -38.05 -0.45 -37.5 -0.6 -37.4 -5.3 -47.7 -10.0 -37.4 -10.85 -37.8 M5.3 -38.0 L5.25 -38.05 11.15 -50.95 17.1 -38.05 17.0 -38.0 15.9 -37.4 11.15 -47.7 6.5 -37.4 5.3 -38.0 M3.5 -33.7 L10.6 -33.7 10.6 -22.35 12.1 -22.35 12.1 -18.8 10.8 -18.8 10.8 -21.15 1.8 -21.15 1.8 -18.8 0.5 -18.8 0.5 -22.35 1.6 -22.35 Q3.5 -25.1 3.5 -29.25 L3.5 -33.7 M4.8 -29.25 Q4.8 -25.0 3.1 -22.35 L9.3 -22.35 9.3 -32.45 4.8 -32.45 4.8 -29.25 M16.4 -34.8 Q17.0 -34.8 17.4 -34.35 L17.85 -33.35 Q17.85 -32.75 17.4 -32.3 17.0 -31.85 16.4 -31.85 15.8 -31.85 15.35 -32.3 14.9 -32.75 14.95 -33.35 14.9 -33.9 15.35 -34.35 15.8 -34.8 16.4 -34.8 M17.1 -34.0 Q16.85 -34.3 16.4 -34.25 15.95 -34.3 15.7 -34.0 L15.45 -33.35 Q15.45 -32.9 15.7 -32.6 15.95 -32.35 16.4 -32.35 16.85 -32.35 17.1 -32.6 L17.35 -33.35 17.1 -34.0 M18.1 -10.65 L18.1 -8.65 10.2 -8.65 10.2 -1.45 9.5 -1.45 9.5 -8.65 1.65 -8.65 1.65 -10.65 18.1 -10.65 M-3.95 -34.8 Q-3.3 -34.8 -2.9 -34.35 -2.45 -33.9 -2.45 -33.35 -2.45 -32.75 -2.9 -32.3 -3.3 -31.85 -3.95 -31.85 -4.5 -31.85 -4.95 -32.3 -5.4 -32.75 -5.35 -33.35 -5.4 -33.9 -4.95 -34.35 L-3.95 -34.8 M-4.85 -33.35 L-4.6 -32.6 Q-4.35 -32.35 -3.95 -32.35 -3.5 -32.35 -3.2 -32.6 -2.95 -32.9 -2.95 -33.35 L-3.2 -34.0 Q-3.5 -34.3 -3.95 -34.25 -4.35 -34.3 -4.6 -34.0 L-4.85 -33.35 M-3.3 -14.4 Q-1.6 -14.4 -0.5 -13.45 0.95 -12.15 0.8 -9.5 0.7 -6.8 -1.25 -5.35 -3.05 -4.05 -6.35 -4.0 L-6.65 -5.5 Q-2.9 -5.55 -1.55 -7.05 -0.55 -8.1 -0.6 -10.0 -0.6 -11.4 -1.3 -12.2 -2.0 -13.0 -3.1 -13.05 -4.4 -13.1 -6.4 -12.4 L-10.0 -10.85 -10.55 -12.45 -6.45 -13.85 -3.3 -14.4 M-11.85 18.25 L-11.85 19.65 -12.75 21.6 -13.35 21.6 -12.75 19.65 -13.35 19.65 -13.35 18.25 -11.85 18.25 M-1.1 13.35 L5.7 1.15 6.4 1.55 -0.45 13.7 -1.1 13.35 M-28.95 8.25 Q-30.0 9.2 -31.45 9.2 -32.55 9.2 -34.5 8.05 -35.95 7.15 -36.9 7.15 -38.0 7.15 -38.6 7.85 L-39.25 8.95 -40.65 8.1 Q-40.15 7.15 -39.2 6.3 -38.25 5.4 -37.05 5.4 -35.8 5.4 -34.1 6.4 -32.45 7.4 -31.25 7.4 -30.45 7.4 -29.6 6.55 L-28.8 5.45 -27.5 6.55 -28.95 8.25 M-27.3 36.55 L-26.15 35.95 -24.85 35.55 -23.5 35.4 -22.8 35.45 -21.45 35.75 -20.3 36.35 -19.15 37.05 -18.1 38.1 -17.35 39.25 -16.85 40.45 Q-16.5 41.4 -16.55 42.35 L-16.75 43.8 Q-16.95 44.8 -17.4 45.6 L-18.1 46.7 -19.15 47.75 -20.3 48.5 -22.1 49.2 -23.5 49.25 -24.85 49.2 Q-25.7 49.0 -26.6 48.45 L-27.75 47.7 -28.85 46.75 -29.6 45.65 Q-30.15 44.8 -30.3 43.8 L-30.4 42.35 -30.3 41.0 -29.9 39.8 -29.3 38.6 -28.35 37.5 -27.3 36.55 M-10.2 34.8 L-10.2 34.05 4.1 34.05 6.25 34.05 6.25 34.8 -10.2 34.8 M16.5 35.45 L16.55 35.4 Q18.2 36.95 18.9 38.45 19.7 40.2 19.75 42.45 19.7 44.4 18.9 46.15 18.1 47.75 16.55 49.55 L15.8 48.9 16.5 48.05 17.1 47.2 18.0 45.7 18.55 44.1 18.7 42.45 18.5 40.6 18.0 38.95 17.15 37.6 16.55 36.85 15.8 36.05 16.5 35.45 M-11.4 45.6 Q-12.2 47.7 -14.1 49.5 L-14.15 49.45 -14.8 48.8 -14.1 48.1 -13.0 46.65 -12.6 45.9 -12.25 45.1 -12.05 44.25 -11.95 42.5 Q-11.95 41.65 -12.1 40.85 -12.3 39.95 -12.65 39.2 -13.0 38.35 -13.5 37.65 L-14.8 36.15 -14.1 35.5 -13.4 36.35 -12.75 37.15 Q-12.2 37.9 -11.8 38.8 L-11.2 40.6 -10.95 42.5 -11.05 44.05 -11.4 45.6 M-32.85 49.35 L-33.0 49.5 Q-36.25 46.45 -36.25 42.5 -36.25 38.5 -33.0 35.5 L-32.4 36.05 -32.9 36.8 -33.85 38.2 -34.6 39.55 -35.05 41.0 -35.2 42.5 -34.95 44.25 -34.4 45.9 -33.45 47.4 -32.25 48.8 -32.85 49.35 M-23.8 36.6 Q-26.05 36.7 -27.65 38.25 -29.2 39.8 -29.3 42.05 L-29.3 42.35 -29.3 42.65 Q-29.2 44.9 -27.65 46.5 -25.95 48.2 -23.5 48.2 -21.05 48.2 -19.4 46.5 -17.7 44.8 -17.7 42.35 L-17.7 42.0 Q-17.8 39.8 -19.4 38.25 -21.05 36.6 -23.5 36.6 L-23.8 36.6 M-23.5 39.4 Q-24.8 39.4 -25.6 40.25 -26.45 41.05 -26.45 42.35 -26.45 43.65 -25.6 44.5 -24.8 45.3 -23.5 45.35 -22.25 45.3 -21.4 44.5 -20.5 43.65 -20.5 42.35 -20.5 41.05 -21.4 40.25 -22.25 39.4 -23.5 39.4 M-20.6 39.45 Q-19.4 40.7 -19.4 42.35 -19.4 44.05 -20.6 45.3 -21.8 46.45 -23.5 46.5 -25.15 46.45 -26.4 45.3 -27.65 44.05 -27.65 42.35 -27.65 40.7 -26.4 39.45 -25.15 38.2 -23.5 38.25 -21.8 38.2 -20.6 39.45 M8.3 35.4 L9.05 36.25 10.25 37.75 10.65 38.5 11.0 39.45 11.25 40.35 11.4 41.4 11.35 43.45 10.95 45.25 10.3 46.85 9.4 48.1 8.3 49.55 7.65 48.8 7.7 48.75 7.7 48.7 8.95 47.1 9.45 46.45 9.85 45.7 10.15 44.9 10.35 44.15 10.45 42.45 10.25 40.55 9.75 38.95 8.9 37.6 7.55 36.05 8.3 35.4" fill="#000000" fill-rule="evenodd" stroke="none"/>
  </g>
</svg>
