<svg xmlns:xlink="http://www.w3.org/1999/xlink" height="68.65px" width="66.4px" xmlns="http://www.w3.org/2000/svg">
  <g transform="matrix(1.0, 0.0, 0.0, 1.0, 36.75, 68.7)">
    <path d="M-2.85 -67.55 L-2.8 -68.0 -0.9 -68.35 -1.25 -68.05 -0.65 -67.45 Q0.45 -66.35 0.95 -65.3 1.65 -63.85 1.65 -61.85 1.65 -60.2 0.95 -58.7 0.3 -57.3 -1.25 -55.6 L-0.55 -54.95 5.5 -54.75 5.5 -54.7 10.3 -54.7 10.3 -55.45 11.6 -55.65 11.4 -55.75 18.05 -67.55 Q18.75 -68.45 20.35 -68.7 L19.65 -68.05 Q21.2 -66.6 21.85 -65.3 22.55 -63.85 22.55 -61.85 22.55 -60.2 21.85 -58.7 21.2 -57.3 19.65 -55.6 L20.35 -54.95 Q20.0 -52.2 18.9 -49.7 L19.15 -49.45 18.55 -48.95 24.1 -43.8 18.55 -38.7 19.2 -38.05 Q19.25 -35.65 19.55 -33.95 L19.55 -18.05 20.8 -18.05 Q24.35 -16.8 26.1 -14.25 L25.85 -14.05 26.65 -13.2 28.05 -11.3 Q28.75 -9.85 28.75 -7.85 28.75 -6.3 28.15 -4.9 L28.05 -4.7 27.85 -4.25 25.85 -1.6 23.45 -1.8 23.75 -2.45 23.75 -3.8 22.3 -3.8 22.3 -2.45 22.7 -2.45 22.7 -1.85 20.2 -1.85 20.5 -2.45 20.5 -3.8 19.05 -3.8 19.05 -2.45 19.45 -2.45 19.45 -1.8 16.85 -1.6 17.25 -2.45 17.25 -3.8 15.8 -3.8 15.8 -2.45 16.4 -2.45 16.05 -1.4 15.4 -1.2 14.75 -0.7 14.75 -1.45 9.95 -1.45 9.95 -0.7 8.3 -0.8 9.1 -2.45 9.1 -3.8 7.65 -3.8 7.65 -2.45 8.25 -2.45 7.7 -0.85 5.1 -0.9 5.85 -2.45 5.85 -3.8 4.4 -3.8 4.4 -2.45 5.0 -2.45 4.45 -0.9 4.4 -0.9 1.8 -0.8 2.6 -2.45 2.6 -3.8 1.15 -3.8 1.15 -2.45 1.75 -2.45 1.15 -0.75 Q0.6 -0.6 0.35 -0.3 L0.15 -0.75 -15.8 -0.75 -16.5 -1.45 -16.3 -1.7 -16.85 -2.25 Q-19.2 -4.7 -19.2 -7.8 L-18.85 -10.0 Q-18.35 -11.85 -16.85 -13.4 L-16.3 -13.95 -16.8 -14.45 -16.8 -14.55 Q-16.65 -17.55 -15.55 -19.95 L-14.9 -19.75 -8.25 -31.55 -8.4 -32.1 -8.45 -32.15 -10.85 -38.05 -10.2 -38.7 -15.75 -43.8 -10.2 -48.95 -10.85 -49.55 Q-11.1 -52.45 -9.5 -55.75 L-2.85 -67.55 M-29.7 -31.0 Q-28.95 -33.3 -27.05 -32.5 L-27.55 -32.05 Q-26.15 -30.75 -25.5 -29.55 L-25.35 -29.3 Q-24.65 -27.85 -24.65 -25.85 -24.65 -24.4 -25.15 -23.1 L-25.35 -22.7 Q-26.0 -21.3 -27.55 -19.6 L-27.3 -18.75 Q-25.95 -15.2 -21.6 -13.45 L-18.85 -12.4 -19.8 -10.3 -20.15 -7.8 Q-20.15 -4.85 -18.25 -2.4 L-17.0 -1.0 -17.0 -0.75 -21.7 -1.65 -21.8 -1.65 -21.55 -2.6 -35.2 -14.0 -35.75 -13.35 Q-37.8 -16.25 -35.7 -20.35 L-35.0 -20.1 -34.1 -20.95 Q-31.95 -23.3 -30.7 -26.95 L-29.8 -30.7 Q-29.45 -30.8 -29.7 -31.0 M17.75 -50.2 L17.3 -51.2 Q16.9 -51.6 16.3 -51.6 15.75 -51.6 15.3 -51.2 14.9 -50.75 14.9 -50.2 14.9 -49.6 15.3 -49.2 15.75 -48.75 16.3 -48.75 16.9 -48.75 17.3 -49.2 17.75 -49.6 17.75 -50.2 M17.0 -50.85 L17.25 -50.2 17.0 -49.5 Q16.75 -49.25 16.3 -49.25 15.9 -49.25 15.65 -49.5 L15.4 -50.2 Q15.4 -50.6 15.65 -50.85 L16.3 -51.1 17.0 -50.85 M6.1 -37.45 L6.1 -36.7 10.9 -36.7 10.9 -37.45 6.1 -37.45 M10.65 -45.0 L10.65 -43.05 12.6 -43.05 12.6 -45.0 10.65 -45.0 M-1.7 -49.2 Q-1.25 -48.75 -0.7 -48.75 -0.1 -48.75 0.3 -49.2 0.75 -49.6 0.75 -50.2 0.75 -50.75 0.3 -51.2 -0.1 -51.6 -0.7 -51.6 -1.25 -51.6 -1.7 -51.2 -2.1 -50.75 -2.1 -50.2 -2.1 -49.6 -1.7 -49.2 M0.0 -50.85 L0.25 -50.2 0.0 -49.5 Q-0.25 -49.25 -0.7 -49.25 -1.1 -49.25 -1.35 -49.5 L-1.6 -50.2 -1.35 -50.85 -0.7 -51.1 0.0 -50.85" fill="#ffffff" fill-rule="evenodd" stroke="none"/>
    <path d="M-2.85 -67.55 L-9.5 -55.75 -10.1 -56.1 -3.5 -67.95 -2.85 -67.55 M-10.85 -49.55 L-10.2 -48.95 -15.75 -43.8 -10.2 -38.7 -10.85 -38.05 -17.0 -43.8 -10.85 -49.55 M-8.25 -31.55 L-14.9 -19.75 -15.5 -20.1 -8.9 -31.95 -8.25 -31.55 M-16.8 -14.45 L-16.3 -13.95 -16.85 -13.4 Q-18.35 -11.85 -18.85 -10.0 L-19.2 -7.8 Q-19.2 -4.7 -16.85 -2.25 L-16.3 -1.7 -16.5 -1.45 -17.0 -1.0 -18.25 -2.4 Q-20.15 -4.85 -20.15 -7.8 L-19.8 -10.3 -18.85 -12.4 -18.2 -13.25 -17.0 -14.6 -16.8 -14.45 M-15.8 -0.75 L0.15 -0.75 0.15 -0.05 -15.8 -0.05 -15.8 -0.75 M1.15 -0.75 L1.75 -2.45 1.15 -2.45 1.15 -3.8 2.6 -3.8 2.6 -2.45 1.8 -0.8 1.75 -0.75 1.15 -0.75 M4.45 -0.9 L5.0 -2.45 4.4 -2.45 4.4 -3.8 5.85 -3.8 5.85 -2.45 5.1 -0.9 5.0 -0.75 4.4 -0.75 4.45 -0.9 M7.7 -0.85 L8.25 -2.45 7.65 -2.45 7.65 -3.8 9.1 -3.8 9.1 -2.45 8.3 -0.8 8.25 -0.75 7.65 -0.75 7.7 -0.85 M9.95 -0.7 L9.95 -1.45 14.75 -1.45 14.75 -0.7 9.95 -0.7 M16.05 -1.4 L16.4 -2.45 15.8 -2.45 15.8 -3.8 17.25 -3.8 17.25 -2.45 16.85 -1.6 16.4 -0.75 15.8 -0.75 16.05 -1.4 M19.45 -2.45 L19.05 -2.45 19.05 -3.8 20.5 -3.8 20.5 -2.45 20.2 -1.85 19.65 -0.75 19.05 -0.75 19.45 -1.8 19.65 -2.45 19.45 -2.45 M22.7 -2.45 L22.3 -2.45 22.3 -3.8 23.75 -3.8 23.75 -2.45 23.45 -1.8 22.9 -0.75 22.3 -0.75 22.7 -1.85 22.9 -2.45 22.7 -2.45 M25.85 -1.6 L27.85 -4.25 28.05 -4.7 28.15 -4.9 Q28.75 -6.3 28.75 -7.85 28.75 -9.85 28.05 -11.3 L26.65 -13.2 25.85 -14.05 26.1 -14.25 26.55 -14.7 27.6 -13.6 28.45 -12.45 28.85 -11.75 Q29.65 -10.05 29.65 -7.85 29.65 -6.6 29.3 -5.4 L28.85 -4.25 28.8 -4.15 Q28.05 -2.65 26.55 -0.95 L25.85 -1.6 M20.8 -18.05 L19.55 -18.05 19.55 -33.95 20.8 -33.95 20.8 -18.05 M19.2 -38.05 L18.55 -38.7 24.1 -43.8 18.55 -48.95 19.15 -49.45 19.2 -49.55 25.35 -43.8 19.2 -38.05 M20.35 -54.95 L19.65 -55.6 Q21.2 -57.3 21.85 -58.7 22.55 -60.2 22.55 -61.85 22.55 -63.85 21.85 -65.3 21.2 -66.6 19.65 -68.05 L20.35 -68.7 Q21.95 -67.2 22.65 -65.75 23.45 -64.05 23.45 -61.85 23.45 -59.95 22.65 -58.25 21.9 -56.7 20.35 -54.95 M18.05 -67.55 L11.4 -55.75 10.8 -56.1 17.4 -67.95 18.05 -67.55 M10.3 -55.45 L10.3 -54.7 5.5 -54.7 5.5 -54.75 5.5 -55.45 10.3 -55.45 M-0.55 -54.95 L-1.25 -55.6 Q0.3 -57.3 0.95 -58.7 1.65 -60.2 1.65 -61.85 1.65 -63.85 0.95 -65.3 0.45 -66.35 -0.65 -67.45 L-1.25 -68.05 -0.9 -68.35 -0.55 -68.7 Q1.05 -67.2 1.75 -65.75 2.55 -64.05 2.55 -61.85 2.55 -59.95 1.75 -58.25 1.0 -56.7 -0.55 -54.95 M-35.0 -20.1 L-36.0 -21.45 Q-32.4 -24.45 -31.15 -31.7 L-29.8 -31.05 -29.7 -31.0 Q-29.45 -30.8 -29.8 -30.7 L-30.7 -26.95 Q-31.95 -23.3 -34.1 -20.95 L-35.0 -20.1 M-27.05 -32.5 L-26.85 -32.7 -26.0 -31.85 -25.95 -31.8 Q-25.15 -30.9 -24.7 -30.05 L-24.55 -29.75 Q-23.75 -28.05 -23.75 -25.85 -23.75 -23.95 -24.55 -22.25 L-24.6 -22.15 Q-25.35 -20.65 -26.85 -18.95 L-27.55 -19.6 Q-26.0 -21.3 -25.35 -22.7 L-25.15 -23.1 Q-24.65 -24.4 -24.65 -25.85 -24.65 -27.85 -25.35 -29.3 L-25.5 -29.55 Q-26.15 -30.75 -27.55 -32.05 L-27.05 -32.5 M-35.75 -13.35 L-35.2 -14.0 -21.55 -2.6 -22.25 -1.8 -35.9 -13.2 -35.75 -13.35 M17.0 -50.85 L16.3 -51.1 15.65 -50.85 Q15.4 -50.6 15.4 -50.2 L15.65 -49.5 Q15.9 -49.25 16.3 -49.25 16.75 -49.25 17.0 -49.5 L17.25 -50.2 17.0 -50.85 M17.75 -50.2 Q17.75 -49.6 17.3 -49.2 16.9 -48.75 16.3 -48.75 15.75 -48.75 15.3 -49.2 14.9 -49.6 14.9 -50.2 14.9 -50.75 15.3 -51.2 15.75 -51.6 16.3 -51.6 16.9 -51.6 17.3 -51.2 L17.75 -50.2 M10.65 -45.0 L12.6 -45.0 12.6 -43.05 10.65 -43.05 10.65 -45.0 M6.1 -37.45 L10.9 -37.45 10.9 -36.7 6.1 -36.7 6.1 -37.45 M0.0 -50.85 L-0.7 -51.1 -1.35 -50.85 -1.6 -50.2 -1.35 -49.5 Q-1.1 -49.25 -0.7 -49.25 -0.25 -49.25 0.0 -49.5 L0.25 -50.2 0.0 -50.85 M-1.7 -49.2 Q-2.1 -49.6 -2.1 -50.2 -2.1 -50.75 -1.7 -51.2 -1.25 -51.6 -0.7 -51.6 -0.1 -51.6 0.3 -51.2 0.75 -50.75 0.75 -50.2 0.75 -49.6 0.3 -49.2 -0.1 -48.75 -0.7 -48.75 -1.25 -48.75 -1.7 -49.2" fill="#000000" fill-rule="evenodd" stroke="none"/>
  </g>
</svg>
