<?xml version="1.0" encoding="UTF-8" standalone="no"?>
<svg xmlns:ffdec="https://www.free-decompiler.com/flash" xmlns:xlink="http://www.w3.org/1999/xlink" ffdec:objectType="shape" height="92.85px" width="42.7px" xmlns="http://www.w3.org/2000/svg">
  <g transform="matrix(1.0, 0.0, 0.0, 1.0, 21.45, 92.45)">
    <path d="M1.0 -57.4 L-1.95 -57.25 -3.6 -57.45 Q-5.6 -57.75 -7.35 -58.95 L-8.25 -59.65 -10.35 -57.85 -12.9 -55.95 Q-13.95 -55.2 -14.75 -55.45 L-14.4 -56.4 -14.25 -56.8 -14.35 -57.35 Q-14.55 -59.4 -15.35 -61.4 -16.4 -64.05 -16.8 -66.75 L-16.9 -67.7 -17.05 -71.9 Q-17.1 -74.55 -16.75 -77.1 L-16.55 -78.05 Q-15.7 -80.65 -15.45 -83.4 L-15.15 -84.65 -14.75 -85.55 Q-13.75 -87.95 -12.8 -89.15 L-10.7 -91.35 Q-9.55 -92.4 -7.5 -92.45 -5.45 -92.5 -4.4 -91.7 3.45 -93.55 9.5 -90.55 12.1 -89.2 15.15 -85.55 18.2 -82.0 18.5 -74.55 18.8 -67.1 17.0 -62.5 15.15 -57.95 9.7 -54.6 L8.25 -53.65 9.3 -57.85 9.4 -62.75 Q8.85 -61.75 7.55 -60.65 5.55 -59.0 3.1 -58.0 L2.3 -57.7 Q2.8 -55.25 2.8 -52.95 L3.75 -53.0 Q4.6 -52.95 5.15 -52.0 L5.85 -51.1 6.0 -51.0 6.05 -50.95 Q6.05 -50.95 6.15 -50.9 L7.75 -49.1 7.85 -49.0 11.65 -44.85 Q13.8 -42.6 15.5 -40.05 L17.6 -36.4 19.2 -33.15 20.9 -29.8 Q21.6 -28.55 20.9 -27.3 L20.5 -27.0 16.5 -25.75 16.6 -24.45 Q16.7 -23.35 16.35 -22.65 15.8 -21.4 14.45 -21.7 15.15 -19.05 14.8 -16.15 L14.45 -13.2 13.85 -11.6 Q13.0 -10.35 10.9 -10.3 9.75 -9.35 8.35 -8.95 8.95 -5.75 10.0 -3.15 L10.6 -1.3 10.05 -1.4 Q11.1 -0.8 11.55 0.4 L8.0 0.3 7.1 0.15 Q7.3 -0.35 7.85 -0.7 L8.75 -1.3 8.3 -2.65 7.2 -6.15 6.4 -8.8 2.65 -8.6 Q3.0 -8.6 3.0 -7.8 3.0 -6.1 3.35 -4.55 3.65 -3.15 4.1 -1.95 L4.85 -0.35 3.2 -0.15 0.2 -0.35 2.15 -1.6 Q2.45 -1.75 2.45 -2.05 2.5 -3.55 2.2 -4.85 L1.35 -8.6 -2.95 -9.0 Q-5.75 -9.6 -8.45 -10.65 L-8.8 -11.0 Q-9.05 -12.45 -8.95 -13.95 L-8.75 -20.25 -8.35 -26.35 -7.8 -29.3 -7.3 -31.45 -7.45 -31.3 Q-8.2 -30.55 -9.95 -30.15 -11.15 -29.45 -11.85 -30.35 L-13.0 -31.45 -13.9 -32.25 Q-15.0 -31.45 -16.6 -30.9 -17.1 -30.55 -17.65 -30.35 L-20.4 -30.65 Q-21.55 -31.25 -21.45 -32.25 L-21.2 -32.8 -17.65 -37.55 -17.3 -38.0 -14.95 -39.5 Q-12.4 -40.9 -9.8 -42.6 -7.3 -44.3 -4.95 -46.15 L-3.15 -47.7 -0.55 -49.85 1.35 -52.1 1.3 -53.05 1.0 -57.4 2.3 -57.7 1.0 -57.4 M0.5 -63.2 L0.3 -62.65 0.05 -61.25 -0.05 -61.0 -2.15 -63.55 Q-2.15 -62.95 -2.3 -62.65 L-2.5 -62.1 Q-2.55 -61.35 -3.25 -61.05 -4.3 -61.7 -5.05 -62.9 L-7.15 -62.65 -5.5 -61.1 -5.15 -60.85 -3.35 -60.55 -3.3 -60.55 -3.15 -60.55 -0.1 -61.0 0.5 -61.2 1.2 -61.5 2.55 -62.7 1.15 -64.15 3.55 -64.95 Q3.3 -63.7 2.55 -62.7 3.3 -63.7 3.55 -64.95 L1.15 -64.15 2.55 -62.7 1.2 -61.5 0.5 -61.2 -0.1 -61.0 -3.15 -60.55 -3.3 -60.55 -3.35 -60.55 -5.15 -60.85 -5.5 -61.1 -7.15 -62.65 -5.05 -62.9 Q-3.85 -63.1 -2.6 -63.45 L-2.15 -63.6 -0.2 -63.95 0.35 -64.05 0.65 -64.1 1.15 -64.15 0.65 -64.1 0.35 -64.05 -0.2 -63.95 -2.15 -63.6 -2.6 -63.45 Q-3.85 -63.1 -5.05 -62.9 -4.3 -61.7 -3.25 -61.05 -2.55 -61.35 -2.5 -62.1 L-2.3 -62.65 Q-2.15 -62.95 -2.15 -63.55 L-0.05 -61.0 0.05 -61.25 0.3 -62.65 0.5 -63.2 M9.4 -62.75 Q9.4 -63.75 9.55 -64.25 L9.7 -65.7 9.7 -68.35 9.45 -73.55 Q9.35 -75.0 8.9 -76.0 9.35 -75.0 9.45 -73.55 L9.7 -68.35 9.7 -65.7 9.55 -64.25 Q9.4 -63.75 9.4 -62.75 M1.6 -73.05 L2.05 -73.3 Q2.45 -73.6 2.45 -74.0 2.3 -75.4 0.8 -74.65 L0.4 -74.25 Q-0.35 -72.05 1.5 -70.55 2.0 -70.15 2.65 -70.0 4.75 -69.55 5.3 -71.6 L5.4 -72.2 Q4.8 -74.8 2.8 -76.65 1.85 -77.6 0.75 -77.2 -2.1 -76.1 -2.35 -73.2 L-2.3 -72.45 -1.7 -70.45 Q-1.0 -68.6 0.65 -68.35 -1.0 -68.6 -1.7 -70.45 L-2.3 -72.45 -2.35 -73.2 Q-2.1 -76.1 0.75 -77.2 1.85 -77.6 2.8 -76.65 4.8 -74.8 5.4 -72.2 L5.3 -71.6 Q4.75 -69.55 2.65 -70.0 2.0 -70.15 1.5 -70.55 -0.35 -72.05 0.4 -74.25 L0.8 -74.65 Q2.3 -75.4 2.45 -74.0 2.45 -73.6 2.05 -73.3 L1.6 -73.05 M5.05 -78.55 L4.6 -78.95 3.1 -79.7 -0.85 -81.7 Q-3.1 -82.85 -4.7 -86.15 -3.1 -82.85 -0.85 -81.7 L3.1 -79.7 4.6 -78.95 5.05 -78.55 M10.05 -1.4 L8.75 -1.3 10.05 -1.4 M4.1 -1.95 L2.45 -2.05 4.1 -1.95 M2.65 -8.6 L1.35 -8.6 2.65 -8.6 M8.35 -8.95 L7.1 -8.8 6.4 -8.8 7.1 -8.8 8.35 -8.95 M11.15 -24.55 L13.5 -24.8 14.7 -25.15 16.5 -25.75 14.7 -25.15 13.5 -24.8 11.15 -24.55 13.7 -22.0 14.45 -21.7 13.7 -22.0 11.15 -24.55 10.45 -24.6 Q9.85 -24.6 9.7 -25.2 L8.3 -31.15 Q7.55 -34.1 7.4 -37.1 L6.8 -43.25 Q6.4 -46.1 5.6 -48.8 5.4 -49.5 5.5 -50.3 5.4 -49.5 5.6 -48.8 6.4 -46.1 6.8 -43.25 L7.4 -37.1 Q7.55 -34.1 8.3 -31.15 L9.7 -25.2 Q9.85 -24.6 10.45 -24.6 L11.15 -24.55 M2.8 -52.95 Q2.0 -52.8 1.35 -52.1 2.0 -52.8 2.8 -52.95 M-10.7 -77.95 L-10.4 -78.05 -10.35 -78.1 -10.7 -77.95 -11.0 -77.8 -11.65 -77.4 -11.0 -77.8 -10.7 -77.95 M-8.25 -59.65 Q-9.8 -61.05 -10.35 -62.85 -9.8 -61.05 -8.25 -59.65 M-6.0 -64.15 L-8.45 -64.3 -12.95 -64.3 -11.7 -65.15 -11.15 -65.5 Q-9.45 -66.4 -8.1 -67.65 L-7.0 -68.7 -8.1 -67.65 Q-9.45 -66.4 -11.15 -65.5 L-11.7 -65.15 -12.95 -64.3 -8.45 -64.3 -6.0 -64.15 M-7.15 -79.05 Q-8.85 -78.8 -10.35 -78.1 -8.65 -80.0 -7.2 -82.3 L-6.2 -84.0 Q-5.55 -85.3 -5.8 -86.3 -5.55 -85.3 -6.2 -84.0 L-7.2 -82.3 Q-8.65 -80.0 -10.35 -78.1 -8.85 -78.8 -7.15 -79.05 M-9.25 -73.35 L-8.55 -74.0 -9.55 -74.25 Q-10.5 -74.05 -10.6 -73.35 -10.85 -70.95 -8.5 -70.1 -7.1 -69.6 -6.25 -71.0 -4.65 -73.5 -6.5 -75.8 L-7.1 -76.25 -10.0 -76.65 -10.75 -76.45 Q-12.95 -75.3 -12.8 -72.75 -12.8 -71.85 -12.4 -71.0 -11.3 -68.4 -8.55 -68.15 -11.3 -68.4 -12.4 -71.0 -12.8 -71.85 -12.8 -72.75 -12.95 -75.3 -10.75 -76.45 L-10.0 -76.65 -7.1 -76.25 -6.5 -75.8 Q-4.65 -73.5 -6.25 -71.0 -7.1 -69.6 -8.5 -70.1 -10.85 -70.95 -10.6 -73.35 -10.5 -74.05 -9.55 -74.25 L-8.55 -74.0 -9.25 -73.35 M-0.3 -35.2 L-0.4 -35.75 Q-0.85 -36.8 -1.5 -36.45 -3.1 -35.6 -2.2 -33.75 L-1.65 -33.75 Q-0.2 -33.65 -0.3 -35.2 -0.2 -33.65 -1.65 -33.75 L-2.2 -33.75 Q-3.1 -35.6 -1.5 -36.45 -0.85 -36.8 -0.4 -35.75 L-0.3 -35.2 M-13.9 -32.25 Q-15.6 -33.75 -17.0 -35.85 L-17.45 -36.5 Q-17.95 -37.05 -17.65 -37.55 -17.95 -37.05 -17.45 -36.5 L-17.0 -35.85 Q-15.6 -33.75 -13.9 -32.25 M-7.3 -31.45 L-6.75 -35.25 Q-6.35 -38.3 -5.35 -41.2 L-4.85 -42.45 -2.55 -46.9 -0.55 -49.85 -2.55 -46.9 -4.85 -42.45 -5.35 -41.2 Q-6.35 -38.3 -6.75 -35.25 L-7.3 -31.45 M-1.85 -42.9 Q-2.95 -41.15 -1.05 -40.25 -0.25 -40.4 0.0 -41.35 0.4 -43.0 -0.9 -43.25 -1.55 -43.4 -1.85 -42.9 -1.55 -43.4 -0.9 -43.25 0.4 -43.0 0.0 -41.35 -0.25 -40.4 -1.05 -40.25 -2.95 -41.15 -1.85 -42.9 M3.1 -79.7 Q1.35 -80.5 -0.5 -80.7 1.35 -80.5 3.1 -79.7" fill="#ffffff" fill-rule="evenodd" stroke="none"/>
    <path d="M2.3 -57.7 Q2.8 -55.25 2.8 -52.95 L3.75 -53.0 Q4.6 -52.95 5.15 -52.0 L5.85 -51.1 6.0 -51.0 6.05 -50.95 Q6.05 -50.95 6.15 -50.9 L7.75 -49.1 7.85 -49.0 11.65 -44.85 Q13.8 -42.6 15.5 -40.05 L17.6 -36.4 19.2 -33.15 20.9 -29.8 Q21.6 -28.55 20.9 -27.3 L20.5 -27.0 16.5 -25.75 16.6 -24.45 Q16.7 -23.35 16.35 -22.65 15.8 -21.4 14.45 -21.7 15.15 -19.05 14.8 -16.15 L14.45 -13.2 13.85 -11.6 Q13.0 -10.35 10.9 -10.3 9.75 -9.35 8.35 -8.95 8.95 -5.75 10.0 -3.15 L10.6 -1.3 10.05 -1.4 Q11.1 -0.8 11.55 0.4 L8.0 0.3 7.1 0.15 Q7.3 -0.35 7.85 -0.7 L8.75 -1.3 8.3 -2.65 7.2 -6.15 6.4 -8.8 2.65 -8.6 Q3.0 -8.6 3.0 -7.8 3.0 -6.1 3.35 -4.55 3.65 -3.15 4.1 -1.95 L4.85 -0.35 3.2 -0.15 0.2 -0.35 2.15 -1.6 Q2.45 -1.75 2.45 -2.05 2.5 -3.55 2.2 -4.85 L1.35 -8.6 -2.95 -9.0 Q-5.75 -9.6 -8.45 -10.65 L-8.8 -11.0 Q-9.05 -12.45 -8.95 -13.95 L-8.75 -20.25 -8.35 -26.35 -7.8 -29.3 -7.3 -31.45 -7.45 -31.3 Q-8.2 -30.55 -9.95 -30.15 -11.15 -29.45 -11.85 -30.35 L-13.0 -31.45 -13.9 -32.25 Q-15.0 -31.45 -16.6 -30.9 -17.1 -30.55 -17.65 -30.35 L-20.4 -30.65 Q-21.55 -31.25 -21.45 -32.25 L-21.2 -32.8 -17.65 -37.55 -17.3 -38.0 -14.95 -39.5 Q-12.4 -40.9 -9.8 -42.6 -7.3 -44.3 -4.95 -46.15 L-3.15 -47.7 -0.55 -49.85 1.35 -52.1 1.3 -53.05 1.0 -57.4 M1.35 -52.1 Q2.0 -52.8 2.8 -52.95 M14.45 -21.7 L13.7 -22.0 11.15 -24.55 10.45 -24.6 Q9.85 -24.6 9.7 -25.2 L8.3 -31.15 Q7.55 -34.1 7.4 -37.1 L6.8 -43.25 Q6.4 -46.1 5.6 -48.8 5.4 -49.5 5.5 -50.3 M16.5 -25.75 L14.7 -25.15 13.5 -24.8 11.15 -24.55 M6.4 -8.8 L7.1 -8.8 8.35 -8.95 M1.35 -8.6 L2.65 -8.6 M2.45 -2.05 L4.1 -1.95 M8.75 -1.3 L10.05 -1.4 M-1.85 -42.9 Q-1.55 -43.4 -0.9 -43.25 0.4 -43.0 0.0 -41.35 -0.25 -40.4 -1.05 -40.25 -2.95 -41.15 -1.85 -42.9 M-0.55 -49.85 L-2.55 -46.9 -4.85 -42.45 -5.35 -41.2 Q-6.35 -38.3 -6.75 -35.25 L-7.3 -31.45 M-17.65 -37.55 Q-17.95 -37.05 -17.45 -36.5 L-17.0 -35.85 Q-15.6 -33.75 -13.9 -32.25 M-0.3 -35.2 Q-0.2 -33.65 -1.65 -33.75 L-2.2 -33.75 Q-3.1 -35.6 -1.5 -36.45 -0.85 -36.8 -0.4 -35.75 L-0.3 -35.2" fill="none" stroke="#000000" stroke-linecap="round" stroke-linejoin="round" stroke-width="0.05"/>
    <path d="M1.0 -57.4 L-1.95 -57.25 -3.6 -57.45 Q-5.6 -57.75 -7.35 -58.95 L-8.25 -59.65 -10.35 -57.85 -12.9 -55.95 Q-13.95 -55.2 -14.75 -55.45 L-14.4 -56.4 -14.25 -56.8 -14.35 -57.35 Q-14.55 -59.4 -15.35 -61.4 -16.4 -64.05 -16.8 -66.75 L-16.9 -67.7 -17.05 -71.9 Q-17.1 -74.55 -16.75 -77.1 L-16.55 -78.05 Q-15.7 -80.65 -15.45 -83.4 L-15.15 -84.65 -14.75 -85.55 Q-13.75 -87.95 -12.8 -89.15 L-10.7 -91.35 Q-9.55 -92.4 -7.5 -92.45 -5.45 -92.5 -4.4 -91.7 3.45 -93.55 9.5 -90.55 12.1 -89.2 15.15 -85.55 18.2 -82.0 18.5 -74.55 18.8 -67.1 17.0 -62.5 15.15 -57.95 9.7 -54.6 L8.25 -53.65 9.3 -57.85 9.4 -62.75 Q8.85 -61.75 7.55 -60.65 5.55 -59.0 3.1 -58.0 L2.3 -57.7 1.0 -57.4 M-4.7 -86.15 Q-3.1 -82.85 -0.85 -81.7 L3.1 -79.7 4.6 -78.95 5.05 -78.55 M0.65 -68.35 Q-1.0 -68.6 -1.7 -70.45 L-2.3 -72.45 -2.35 -73.2 Q-2.1 -76.1 0.75 -77.2 1.85 -77.6 2.8 -76.65 4.8 -74.8 5.4 -72.2 L5.3 -71.6 Q4.75 -69.55 2.65 -70.0 2.0 -70.15 1.5 -70.55 -0.35 -72.05 0.4 -74.25 L0.8 -74.65 Q2.3 -75.4 2.45 -74.0 2.45 -73.6 2.05 -73.3 L1.6 -73.05 M8.9 -76.0 Q9.35 -75.0 9.45 -73.55 L9.7 -68.35 9.7 -65.7 9.55 -64.25 Q9.4 -63.75 9.4 -62.75 M2.55 -62.7 Q3.3 -63.7 3.55 -64.95 L1.15 -64.15 2.55 -62.7 1.2 -61.5 0.5 -61.2 -0.1 -61.0 -3.15 -60.55 -3.3 -60.55 -3.35 -60.55 -5.15 -60.85 -5.5 -61.1 -7.15 -62.65 -5.05 -62.9 Q-3.85 -63.1 -2.6 -63.45 L-2.15 -63.6 -0.2 -63.95 0.35 -64.05 0.65 -64.1 1.15 -64.15 M-5.05 -62.9 Q-4.3 -61.7 -3.25 -61.05 -2.55 -61.35 -2.5 -62.1 L-2.3 -62.65 Q-2.15 -62.95 -2.15 -63.55 L-0.05 -61.0 0.05 -61.25 0.3 -62.65 0.5 -63.2 M-10.35 -78.1 L-10.4 -78.05 -10.7 -77.95 -11.0 -77.8 -11.65 -77.4 M-10.7 -77.95 L-10.35 -78.1 Q-8.65 -80.0 -7.2 -82.3 L-6.2 -84.0 Q-5.55 -85.3 -5.8 -86.3 M-8.55 -68.15 Q-11.3 -68.4 -12.4 -71.0 -12.8 -71.85 -12.8 -72.75 -12.95 -75.3 -10.75 -76.45 L-10.0 -76.65 -7.1 -76.25 -6.5 -75.8 Q-4.65 -73.5 -6.25 -71.0 -7.1 -69.6 -8.5 -70.1 -10.85 -70.95 -10.6 -73.35 -10.5 -74.05 -9.55 -74.25 L-8.55 -74.0 -9.25 -73.35 M-10.35 -78.1 Q-8.85 -78.8 -7.15 -79.05 M-7.0 -68.7 L-8.1 -67.65 Q-9.45 -66.4 -11.15 -65.5 L-11.7 -65.15 -12.95 -64.3 -8.45 -64.3 -6.0 -64.15 M-10.35 -62.85 Q-9.8 -61.05 -8.25 -59.65 M-0.5 -80.7 Q1.35 -80.5 3.1 -79.7" fill="none" stroke="#000000" stroke-linecap="round" stroke-linejoin="round" stroke-width="0.05"/>
  </g>
</svg>
