<?xml version="1.0" encoding="UTF-8" standalone="no"?>
<svg xmlns:ffdec="https://www.free-decompiler.com/flash" xmlns:xlink="http://www.w3.org/1999/xlink" ffdec:objectType="shape" height="88.55px" width="64.2px" xmlns="http://www.w3.org/2000/svg">
  <g transform="matrix(1.0, 0.0, 0.0, 1.0, 23.95, 88.85)">
    <path d="M-18.3 -72.35 L-18.55 -73.6 Q-19.0 -76.1 -18.45 -78.65 -17.95 -81.1 -16.7 -83.3 L-15.7 -84.6 -15.2 -85.05 Q-12.85 -87.7 -9.4 -88.55 L-7.45 -88.85 Q-6.55 -88.95 -6.05 -88.4 -5.55 -87.95 -4.4 -87.4 L-2.55 -87.35 Q-1.9 -87.9 0.85 -88.15 L6.75 -87.9 8.3 -87.6 Q12.35 -86.8 14.95 -83.5 L16.45 -81.45 17.05 -80.6 17.95 -78.85 18.5 -77.65 19.15 -75.95 19.2 -75.85 19.15 -75.7 19.15 -74.7 19.15 -74.2 Q19.15 -72.45 18.75 -70.8 18.35 -68.9 17.6 -67.1 17.15 -65.95 16.3 -65.0 L15.8 -64.25 Q17.25 -64.15 18.25 -63.0 L19.25 -61.95 19.6 -61.8 Q21.65 -61.55 22.4 -59.8 L24.85 -59.15 25.45 -58.45 25.55 -57.75 25.9 -57.8 Q25.8 -59.65 26.45 -61.5 27.15 -63.5 29.1 -63.7 L29.6 -63.55 Q30.55 -62.7 30.7 -61.4 30.8 -60.85 31.1 -60.65 L31.5 -60.5 Q33.3 -60.0 32.8 -58.35 L32.5 -57.75 Q31.35 -56.4 29.65 -56.25 L28.25 -56.2 Q29.8 -55.7 30.05 -54.05 L29.75 -54.05 29.3 -54.15 29.55 -52.45 29.65 -51.75 Q29.0 -51.6 28.5 -52.35 L28.2 -52.75 27.9 -52.75 27.9 -52.85 27.8 -53.4 Q27.55 -54.3 26.9 -54.85 27.55 -54.3 27.8 -53.4 L27.9 -52.85 27.9 -52.75 27.9 -52.6 Q27.8 -50.9 26.05 -50.65 25.4 -50.6 24.9 -51.05 23.9 -52.05 22.2 -51.85 21.2 -52.85 22.0 -53.9 23.15 -55.4 25.15 -56.55 L25.05 -56.9 23.85 -56.65 Q23.4 -56.6 23.1 -56.95 L22.4 -57.45 19.9 -57.75 19.0 -58.05 18.0 -58.7 16.95 -59.25 16.2 -59.45 Q14.4 -59.95 13.4 -61.45 L12.5 -60.65 12.25 -60.45 Q10.7 -59.45 8.95 -58.7 L8.3 -58.45 6.55 -57.9 6.55 -55.4 7.45 -55.65 8.9 -55.75 9.65 -55.0 Q10.55 -54.05 10.35 -52.8 12.35 -51.45 13.55 -49.45 L14.2 -48.25 14.2 -48.2 14.7 -46.7 16.2 -40.85 16.55 -39.2 17.15 -36.15 17.8 -30.1 Q17.85 -29.45 17.05 -29.05 L17.3 -27.6 19.15 -28.0 19.2 -27.95 Q19.75 -28.35 20.4 -28.55 L22.1 -28.8 28.05 -29.1 28.9 -29.35 32.05 -30.8 33.75 -31.6 Q36.7 -32.9 38.9 -30.65 L39.15 -30.3 39.55 -29.5 Q40.5 -28.8 40.15 -27.05 40.15 -26.2 39.6 -25.65 L39.4 -25.4 38.1 -24.4 36.55 -23.4 Q35.4 -22.7 34.8 -21.65 33.6 -19.45 32.7 -17.2 31.6 -14.5 28.75 -13.5 27.95 -13.2 27.2 -12.7 25.0 -11.25 23.0 -9.2 21.05 -7.2 18.45 -7.85 L18.0 -7.9 Q14.75 -7.8 12.75 -8.7 12.3 -8.9 11.85 -9.2 10.45 -10.1 9.55 -11.35 L9.55 -10.5 9.6 -10.05 10.05 -8.95 10.2 -8.95 10.35 -8.55 10.6 -6.9 Q12.6 -6.15 12.7 -4.2 12.75 -3.45 12.35 -2.95 L10.85 -1.75 Q7.5 0.25 3.4 -0.5 L2.1 -0.65 Q0.7 -0.6 0.7 -1.8 L2.35 -3.4 Q4.65 -5.55 7.15 -6.75 6.95 -7.8 6.9 -8.9 L6.6 -11.5 Q6.05 -15.25 5.85 -18.65 L2.85 -18.65 0.75 -18.8 1.0 -14.0 Q1.0 -12.05 1.5 -10.25 L1.6 -9.95 1.6 -9.9 1.6 -9.5 1.65 -9.45 Q2.7 -8.45 2.9 -6.8 3.0 -6.1 2.4 -5.85 -0.6 -4.55 -4.7 -5.2 -6.75 -5.15 -8.05 -6.15 -4.8 -7.6 -1.5 -9.45 L-1.45 -9.45 Q-2.2 -12.05 -2.1 -15.15 -2.05 -17.15 -2.35 -19.1 L-4.25 -19.25 -9.05 -19.35 Q-9.35 -20.85 -9.0 -22.15 -7.95 -25.95 -6.15 -29.4 -6.45 -29.45 -6.85 -30.0 L-8.2 -32.1 Q-9.1 -33.65 -8.95 -36.2 -9.2 -35.8 -10.2 -35.5 L-11.05 -35.35 -18.1 -35.35 -18.6 -36.0 Q-19.75 -35.5 -21.2 -35.65 L-22.05 -35.7 Q-23.9 -35.7 -23.95 -37.65 -24.0 -38.45 -23.6 -38.7 L-20.25 -41.25 -20.25 -41.95 Q-20.15 -42.7 -18.9 -42.95 L-17.8 -43.2 Q-14.95 -43.95 -12.3 -45.6 -10.45 -46.75 -8.95 -48.15 L-5.8 -51.2 Q-6.5 -51.25 -3.9 -52.6 L-3.25 -53.15 Q-2.3 -53.85 -1.2 -54.05 L-1.1 -57.05 -1.35 -57.0 -1.4 -57.0 -2.55 -56.75 -7.7 -56.35 -8.0 -56.35 Q-8.95 -56.45 -9.6 -57.0 L-10.75 -58.15 Q-11.95 -56.75 -13.25 -56.65 -12.55 -56.55 -11.8 -55.95 -11.35 -55.6 -11.4 -55.15 -11.4 -54.65 -11.8 -54.35 L-14.15 -54.25 -14.4 -54.45 -14.75 -54.75 -15.15 -54.55 Q-15.75 -53.65 -16.65 -53.85 L-15.7 -55.4 Q-16.7 -56.05 -17.85 -56.25 -17.5 -57.9 -16.4 -59.5 L-16.1 -59.65 Q-15.75 -59.65 -15.5 -59.35 -14.8 -58.45 -14.85 -57.0 L-13.7 -58.35 Q-13.6 -59.7 -12.45 -60.0 -13.4 -61.3 -14.0 -62.75 L-16.0 -63.0 -15.7 -63.2 -14.4 -64.0 -14.55 -64.6 -15.15 -64.6 Q-17.75 -64.65 -19.25 -66.85 L-19.55 -67.4 Q-18.85 -70.2 -16.0 -69.65 L-14.85 -69.25 -14.95 -72.6 -12.35 -72.45 -11.35 -72.4 Q-10.1 -71.7 -10.05 -70.1 L-10.05 -69.5 -7.3 -69.35 Q-7.05 -67.75 -6.2 -66.5 L-5.05 -65.4 Q-3.7 -64.6 -2.2 -64.2 0.9 -63.4 3.1 -65.55 4.3 -66.7 4.25 -68.5 L4.25 -69.1 4.8 -69.2 4.6 -67.25 Q4.55 -66.55 4.75 -66.65 L6.7 -68.95 6.75 -69.05 4.8 -69.2 4.9 -71.5 4.9 -71.8 4.65 -72.05 3.55 -73.45 1.7 -76.25 1.35 -75.3 Q0.9 -74.45 0.9 -73.5 L0.75 -72.55 Q0.1 -73.75 -0.45 -75.25 L-0.75 -75.9 Q-1.6 -77.35 -1.85 -79.0 -1.95 -79.55 -2.2 -79.45 L-2.75 -78.05 -3.45 -75.75 -4.9 -76.35 -7.7 -77.5 -7.95 -78.0 -7.7 -77.5 -4.9 -76.35 -3.45 -75.75 -2.75 -78.05 -2.2 -79.45 Q-1.95 -79.55 -1.85 -79.0 -1.6 -77.35 -0.75 -75.9 L-0.45 -75.25 Q0.1 -73.75 0.75 -72.55 L0.9 -73.5 Q0.9 -74.45 1.35 -75.3 L1.7 -76.25 3.55 -73.45 4.65 -72.05 4.9 -71.8 4.9 -71.5 4.8 -69.2 6.75 -69.05 Q7.95 -70.6 10.0 -69.8 L10.2 -69.6 Q10.6 -68.7 10.45 -67.6 10.2 -65.9 8.95 -64.75 L6.4 -63.2 Q7.0 -61.85 7.1 -60.05 L7.5 -60.6 Q7.5 -59.45 6.55 -57.9 L6.55 -60.4 6.55 -57.9 Q7.5 -59.45 7.5 -60.6 L7.1 -60.05 Q7.0 -61.85 6.4 -63.2 L8.95 -64.75 Q10.2 -65.9 10.45 -67.6 10.6 -68.7 10.2 -69.6 L10.0 -69.8 Q7.95 -70.6 6.75 -69.05 L6.7 -68.95 4.75 -66.65 Q4.55 -66.55 4.6 -67.25 L4.8 -69.2 4.25 -69.1 4.25 -68.5 Q4.3 -66.7 3.1 -65.55 0.9 -63.4 -2.2 -64.2 -3.7 -64.6 -5.05 -65.4 L-6.2 -66.5 Q-7.05 -67.75 -7.3 -69.35 L-10.05 -69.5 Q-10.15 -68.35 -10.65 -67.35 -11.9 -64.85 -14.45 -64.6 L-14.55 -64.6 -14.45 -64.6 Q-11.9 -64.85 -10.65 -67.35 -10.15 -68.35 -10.05 -69.5 L-10.05 -70.1 Q-10.1 -71.7 -11.35 -72.4 L-12.35 -72.45 -14.95 -72.6 -15.15 -74.0 Q-15.75 -73.15 -16.65 -72.5 L-18.3 -72.35 -16.65 -72.5 -16.95 -72.35 Q-17.45 -72.05 -17.85 -71.9 L-18.2 -71.75 -18.3 -72.35 M5.85 -63.05 L6.4 -63.2 5.85 -63.05 M4.25 -69.1 L3.85 -71.85 Q2.35 -72.5 0.75 -72.55 2.35 -72.5 3.85 -71.85 L4.25 -69.1 M4.9 -71.8 L4.9 -71.65 4.9 -71.5 4.9 -71.65 4.9 -71.8 M13.4 -61.45 L15.2 -63.25 15.45 -63.6 15.8 -64.25 15.45 -63.6 15.2 -63.25 13.4 -61.45 M19.15 -75.7 L19.15 -75.95 19.15 -75.7 M-14.8 -75.95 L-13.9 -76.25 -15.15 -74.0 -13.9 -76.25 -14.8 -75.95 M3.1 -58.55 L1.75 -58.0 0.65 -57.55 -1.1 -57.05 0.65 -57.55 1.75 -58.0 3.1 -58.55 M-4.8 -50.4 L-5.4 -50.35 -5.35 -49.5 -6.05 -49.55 Q-6.25 -49.6 -6.3 -49.25 -6.3 -49.0 -6.45 -48.8 -7.0 -47.65 -6.35 -46.85 -6.15 -46.65 -5.8 -46.65 L-5.0 -46.75 -4.65 -45.0 -5.95 -42.5 -5.9 -41.55 Q-5.35 -40.2 -5.2 -38.65 L-5.2 -39.15 -5.1 -39.85 Q-4.9 -41.75 -4.35 -43.5 L-4.3 -43.5 -4.25 -43.2 -4.2 -43.0 -3.95 -43.2 -2.95 -43.7 -3.0 -43.25 -3.0 -42.75 -2.95 -39.0 -2.85 -37.65 -1.9 -39.45 -1.45 -40.0 0.2 -42.0 Q-0.1 -43.45 -0.55 -44.75 L0.85 -45.55 1.2 -45.35 1.9 -45.45 2.0 -46.35 3.3 -47.35 Q5.2 -47.9 6.65 -49.3 L9.9 -52.35 10.2 -52.65 10.35 -52.8 10.2 -52.65 9.9 -52.35 6.65 -49.3 Q5.2 -47.9 3.3 -47.35 L2.0 -46.35 1.9 -45.45 1.2 -45.35 0.85 -45.55 -0.55 -44.75 Q-0.1 -43.45 0.2 -42.0 L-1.45 -40.0 -1.9 -39.45 -2.85 -37.65 -2.95 -39.0 -3.0 -42.75 -3.0 -43.25 -2.95 -43.7 -3.95 -43.2 -4.2 -43.0 -4.25 -43.2 -4.3 -43.5 -4.35 -43.5 Q-4.9 -41.75 -5.1 -39.85 L-5.2 -39.15 -5.2 -38.65 Q-5.35 -40.2 -5.9 -41.55 L-5.95 -42.5 -4.65 -45.0 -5.0 -46.75 -5.8 -46.65 Q-6.15 -46.65 -6.35 -46.85 -7.0 -47.65 -6.45 -48.8 -6.3 -49.0 -6.3 -49.25 -6.25 -49.6 -6.05 -49.55 L-5.35 -49.5 -5.4 -50.35 -4.8 -50.4 -4.3 -51.1 Q-3.55 -52.8 -2.05 -49.95 L-0.25 -52.55 Q3.6 -52.8 7.0 -54.25 L7.25 -54.4 8.4 -55.15 7.25 -54.4 7.0 -54.25 Q3.6 -52.8 -0.25 -52.55 L-2.05 -49.95 Q-3.55 -52.8 -4.3 -51.1 L-4.8 -50.4 -4.65 -51.2 Q-5.45 -50.9 -4.8 -50.4 M27.45 -56.2 L27.45 -56.25 Q27.2 -57.45 25.9 -57.8 27.2 -57.45 27.45 -56.25 L27.45 -56.2 28.25 -56.2 27.45 -56.2 27.25 -56.0 25.95 -55.9 Q25.7 -55.95 25.5 -56.15 L25.15 -56.55 25.5 -56.15 Q25.7 -55.95 25.95 -55.9 L27.25 -56.0 27.45 -56.2 M-3.9 -52.6 L-4.65 -51.35 -4.65 -51.25 -4.65 -51.2 -4.65 -51.25 -4.65 -51.35 -3.9 -52.6 M14.05 -25.7 L13.7 -25.85 12.9 -25.6 12.95 -24.55 11.75 -24.15 Q8.8 -23.45 7.85 -20.4 L7.5 -18.7 7.35 -18.75 7.3 -19.4 7.35 -20.6 7.65 -22.35 7.7 -22.45 7.7 -22.75 7.65 -22.95 7.65 -23.15 7.25 -26.85 7.65 -23.15 7.65 -22.95 7.7 -22.75 7.7 -22.45 7.65 -22.35 7.35 -20.6 7.3 -19.4 7.35 -18.75 7.5 -18.7 7.85 -20.4 Q8.8 -23.45 11.75 -24.15 L12.95 -24.55 12.9 -25.6 13.7 -25.85 13.0 -26.4 Q12.4 -27.0 12.05 -27.85 L11.6 -27.85 Q10.55 -27.9 10.2 -28.95 L10.1 -29.15 10.2 -28.95 Q10.55 -27.9 11.6 -27.85 L12.05 -27.85 Q12.4 -27.0 13.0 -26.4 L13.7 -25.85 14.05 -25.7 14.4 -25.15 15.0 -25.4 14.05 -25.7 M10.9 -26.1 L11.15 -24.95 10.9 -26.1 M12.05 -27.85 L12.25 -27.9 Q14.9 -28.05 17.05 -29.05 14.9 -28.05 12.25 -27.9 L12.05 -27.85 M7.85 -37.85 L8.0 -37.65 7.85 -37.7 8.35 -33.7 Q8.5 -32.35 10.1 -29.15 L8.8 -28.85 6.2 -28.7 Q2.2 -28.4 -1.75 -28.7 L-3.65 -28.95 -6.15 -29.4 -3.65 -28.95 -1.75 -28.7 Q2.2 -28.4 6.2 -28.7 L8.8 -28.85 10.1 -29.15 Q8.5 -32.35 8.35 -33.7 L7.85 -37.7 7.85 -37.85 7.35 -41.6 7.3 -41.2 7.35 -41.7 7.35 -41.6 7.55 -42.6 7.7 -43.2 8.0 -45.2 Q8.4 -49.1 10.35 -51.9 8.4 -49.1 8.0 -45.2 L7.7 -43.2 7.55 -42.6 7.35 -41.6 7.35 -41.7 7.3 -41.2 7.35 -41.6 7.85 -37.85 7.85 -37.7 8.0 -37.65 7.85 -37.85 M3.3 -47.35 L2.35 -49.3 -0.25 -52.55 2.35 -49.3 3.3 -47.35 M2.0 -46.35 L2.0 -46.8 Q2.1 -48.2 1.6 -49.65 -0.05 -49.9 -1.65 -49.1 L-2.0 -49.35 -2.5 -49.4 -2.05 -49.95 -2.5 -49.4 -2.0 -49.35 -1.65 -49.1 Q-0.05 -49.9 1.6 -49.65 2.1 -48.2 2.0 -46.8 L2.0 -46.35 M18.0 -7.9 L16.75 -8.35 Q15.35 -9.05 14.7 -9.85 13.0 -12.0 11.9 -14.7 11.5 -15.6 11.4 -16.45 11.2 -17.9 11.55 -18.85 L11.55 -18.9 Q12.0 -20.65 13.4 -21.3 L15.7 -22.2 16.95 -22.65 Q19.7 -23.55 21.15 -25.65 22.0 -26.95 23.8 -26.8 L26.3 -27.0 27.75 -27.25 Q29.25 -27.35 30.5 -28.25 31.5 -28.95 32.65 -29.45 33.8 -29.95 35.05 -30.25 L35.6 -30.5 Q37.7 -31.3 39.45 -29.6 L39.55 -29.5 39.45 -29.6 Q37.7 -31.3 35.6 -30.5 L35.05 -30.25 Q33.8 -29.95 32.65 -29.45 31.5 -28.95 30.5 -28.25 29.25 -27.35 27.75 -27.25 L26.3 -27.0 23.8 -26.8 Q22.0 -26.95 21.15 -25.65 19.7 -23.55 16.95 -22.65 L15.7 -22.2 13.4 -21.3 Q12.0 -20.65 11.55 -18.9 L11.55 -18.85 Q11.2 -17.9 11.4 -16.45 11.5 -15.6 11.9 -14.7 13.0 -12.0 14.7 -9.85 15.35 -9.05 16.75 -8.35 L18.0 -7.9 M16.75 -26.2 L16.7 -26.2 15.0 -25.4 16.7 -26.2 16.75 -26.2 16.35 -25.7 15.95 -25.35 15.0 -25.4 15.95 -25.35 16.35 -25.7 16.75 -26.2 17.6 -26.7 17.55 -26.7 17.05 -26.7 16.75 -26.2 M17.3 -27.6 L17.25 -27.3 17.05 -26.7 17.25 -27.3 17.3 -27.6 M10.6 -6.9 Q10.1 -6.4 9.25 -6.25 8.5 -6.1 7.15 -6.75 8.5 -6.1 9.25 -6.25 10.1 -6.4 10.6 -6.9 M9.55 -11.35 Q8.8 -12.3 8.35 -13.45 7.85 -14.75 7.6 -16.15 7.35 -17.45 7.5 -18.7 7.35 -17.45 7.6 -16.15 7.85 -14.75 8.35 -13.45 8.8 -12.3 9.55 -11.35 M7.35 -18.75 L6.45 -18.7 5.85 -18.65 6.45 -18.7 7.35 -18.75 M14.4 -25.15 L12.95 -24.55 13.05 -23.45 12.95 -24.55 14.4 -25.15 M17.6 -26.7 Q18.15 -26.9 18.4 -26.45 18.85 -25.6 19.65 -25.8 20.05 -26.4 19.7 -27.35 L19.2 -27.95 19.7 -27.35 Q20.05 -26.4 19.65 -25.8 18.85 -25.6 18.4 -26.45 18.15 -26.9 17.6 -26.7 M-13.9 -76.25 L-13.45 -77.45 -13.45 -76.4 -13.9 -76.25 -13.45 -76.4 -13.45 -77.45 -13.9 -76.25 M2.95 -26.45 L2.85 -18.65 2.95 -26.45 M10.35 -8.55 L10.15 -8.75 10.05 -8.95 10.15 -8.75 10.35 -8.55 M-1.45 -9.45 Q-0.65 -9.0 0.1 -8.85 0.8 -8.75 1.6 -9.95 0.8 -8.75 0.1 -8.85 -0.65 -9.0 -1.45 -9.45 M-13.45 -73.2 L-12.6 -74.4 -11.35 -77.15 -12.6 -74.4 -13.45 -73.2 -13.5 -73.85 -13.45 -76.4 -11.35 -77.15 -11.2 -77.45 -11.35 -77.15 -13.45 -76.4 -13.5 -73.85 -13.45 -73.2 M-7.7 -77.5 Q-6.8 -75.85 -5.55 -74.3 -6.8 -75.85 -7.7 -77.5 M-7.95 -78.0 L-8.9 -80.35 -9.25 -81.6 -11.2 -77.45 -9.25 -81.6 -8.9 -80.35 -7.95 -78.0 M-2.75 -75.4 L-3.45 -75.75 -2.75 -75.4 M-2.55 -68.7 Q-3.15 -69.05 -2.95 -67.65 -0.25 -66.9 -0.3 -69.9 -0.4 -71.3 -1.55 -71.65 L-2.45 -71.65 -4.15 -70.55 Q-4.8 -69.9 -4.65 -68.95 -4.25 -65.9 -0.9 -66.3 -4.25 -65.9 -4.65 -68.95 -4.8 -69.9 -4.15 -70.55 L-2.45 -71.65 -1.55 -71.65 Q-0.4 -71.3 -0.3 -69.9 -0.25 -66.9 -2.95 -67.65 -3.15 -69.05 -2.55 -68.7 M-3.85 -73.5 L-3.95 -72.5 -3.95 -72.3 -4.15 -72.5 -3.95 -72.5 -4.15 -72.5 -3.95 -72.3 -3.95 -72.5 -3.85 -73.5 -5.55 -74.3 -3.85 -73.5 -3.45 -75.75 -3.85 -73.5 M-7.85 -71.7 Q-7.55 -72.0 -7.45 -71.25 L-7.4 -70.7 -7.3 -69.35 -7.4 -70.7 -7.45 -71.25 Q-7.55 -72.0 -7.85 -71.7 M-7.15 -72.0 L-5.25 -72.45 -4.15 -72.5 Q-5.05 -73.35 -5.55 -74.3 -5.05 -73.35 -4.15 -72.5 L-5.25 -72.45 -7.15 -72.0 M-14.3 -72.05 L-13.65 -71.55 -14.3 -72.05 M-12.5 -69.55 L-12.5 -68.95 Q-11.15 -68.95 -11.4 -70.55 -12.5 -71.05 -13.25 -70.1 L-13.45 -69.65 Q-13.6 -67.8 -11.95 -68.35 -13.6 -67.8 -13.45 -69.65 L-13.25 -70.1 Q-12.5 -71.05 -11.4 -70.55 -11.15 -68.95 -12.5 -68.95 L-12.5 -69.55 M-14.4 -64.0 L-10.6 -66.2 -14.4 -64.0 M-10.55 -62.7 L-11.75 -62.8 -14.0 -62.75 -11.75 -62.8 -10.55 -62.7 M-14.55 -64.6 L-14.45 -64.6 -14.55 -64.6 M-10.75 -58.15 L-11.15 -58.55 -12.45 -60.0 -11.15 -58.55 -10.75 -58.15 M-4.65 -61.7 L-5.7 -61.4 -6.2 -61.25 -6.7 -61.2 -8.65 -61.1 -10.5 -61.45 -8.65 -61.1 -6.7 -61.2 -6.2 -61.25 -5.7 -61.4 -4.65 -61.7 Q-9.05 -59.4 -10.5 -61.45 -9.05 -59.4 -4.65 -61.7 M-14.75 -54.75 L-15.7 -55.4 -14.75 -54.75 M-13.25 -56.65 L-14.45 -56.75 -14.85 -57.0 -14.45 -56.75 -13.25 -56.65 M-1.2 -54.05 Q-0.75 -53.65 -0.95 -52.75 -0.75 -53.65 -1.2 -54.05 M-8.95 -36.35 L-8.95 -36.55 -8.15 -43.2 -8.05 -44.35 Q-7.75 -47.65 -5.8 -51.2 -7.75 -47.65 -8.05 -44.35 L-8.15 -43.2 -8.95 -36.55 -8.95 -36.35 -8.95 -36.2 -8.95 -36.35 -10.0 -36.15 -8.95 -36.35 M-5.35 -49.5 L-3.1 -49.0 Q-2.9 -49.35 -2.5 -49.4 -2.9 -49.35 -3.1 -49.0 L-3.25 -48.4 -3.35 -47.75 Q-3.35 -47.4 -3.0 -47.25 L-3.0 -47.3 -3.0 -47.25 -2.8 -47.2 -2.5 -47.15 -1.65 -47.3 -1.85 -47.7 -1.4 -47.45 -1.35 -47.95 -1.65 -49.1 -1.35 -47.95 -1.4 -47.45 -1.85 -47.7 -1.65 -47.3 -2.5 -47.15 -2.8 -47.2 -3.0 -47.25 -3.0 -47.3 -3.0 -47.25 Q-3.35 -47.4 -3.35 -47.75 L-3.25 -48.4 -3.1 -49.0 -5.35 -49.5 M-2.95 -43.7 L-2.5 -47.15 -2.95 -43.7 M-3.35 -47.75 Q-4.05 -47.0 -5.0 -46.75 -4.05 -47.0 -3.35 -47.75 M-4.3 -43.5 L-3.0 -47.25 -3.4 -46.75 -4.65 -45.0 -3.4 -46.75 -3.0 -47.25 -4.3 -43.5 M-1.65 -47.3 L-1.2 -46.45 -0.55 -44.75 -1.2 -46.45 -1.65 -47.3 -1.4 -47.45 -0.5 -46.5 0.85 -45.55 -0.5 -46.5 -1.4 -47.45 -1.65 -47.3 M0.75 -72.55 L-3.95 -72.5 0.75 -72.55 M0.75 -18.8 L-1.3 -19.0 -2.35 -19.1 -1.3 -19.0 0.75 -18.8 M-2.25 -27.4 Q-1.85 -28.1 -2.25 -26.65 L-4.25 -19.25 -2.25 -26.65 Q-1.85 -28.1 -2.25 -27.4 M-18.6 -36.0 Q-19.4 -37.15 -19.55 -38.7 L-19.85 -39.9 -20.25 -41.25 -19.85 -39.9 -19.55 -38.7 Q-19.4 -37.15 -18.6 -36.0" fill="#ffffff" fill-rule="evenodd" stroke="none"/>
    <path d="M-1.1 -57.05 L-1.35 -57.0 -1.4 -57.0 -2.55 -56.75 -7.7 -56.35 -8.0 -56.35 Q-8.95 -56.45 -9.6 -57.0 L-10.75 -58.15 -11.15 -58.55 -12.45 -60.0 Q-13.4 -61.3 -14.0 -62.75 M-1.1 -57.05 L0.65 -57.55 1.75 -58.0 3.1 -58.55 M-11.35 -77.15 L-12.6 -74.4 -13.45 -73.2 M-11.2 -77.45 L-9.25 -81.6 -8.9 -80.35 -7.95 -78.0 M-5.55 -74.3 Q-6.8 -75.85 -7.7 -77.5 M-0.9 -66.3 Q-4.25 -65.9 -4.65 -68.95 -4.8 -69.9 -4.15 -70.55 L-2.45 -71.65 -1.55 -71.65 Q-0.4 -71.3 -0.3 -69.9 -0.25 -66.9 -2.95 -67.65 -3.15 -69.05 -2.55 -68.7 M-3.85 -73.5 L-5.55 -74.3 M-4.65 -61.7 Q-9.05 -59.4 -10.5 -61.45" fill="none" stroke="#000000" stroke-linecap="round" stroke-linejoin="round" stroke-width="0.05"/>
    <path d="M-18.3 -72.35 L-18.55 -73.6 Q-19.0 -76.1 -18.45 -78.65 -17.95 -81.1 -16.7 -83.3 L-15.7 -84.6 -15.2 -85.05 Q-12.85 -87.7 -9.4 -88.55 L-7.45 -88.85 Q-6.55 -88.95 -6.05 -88.4 -5.55 -87.95 -4.4 -87.4 L-2.55 -87.35 Q-1.9 -87.9 0.85 -88.15 L6.75 -87.9 8.3 -87.6 Q12.35 -86.8 14.95 -83.5 L16.45 -81.45 17.05 -80.6 17.95 -78.85 18.5 -77.65 19.15 -75.95 19.2 -75.85 19.15 -75.7 19.15 -74.7 19.15 -74.2 Q19.15 -72.45 18.75 -70.8 18.35 -68.9 17.6 -67.1 17.15 -65.95 16.3 -65.0 L15.8 -64.25 Q17.25 -64.15 18.25 -63.0 L19.25 -61.95 19.6 -61.8 Q21.65 -61.55 22.4 -59.8 L24.85 -59.15 25.45 -58.45 25.55 -57.75 M25.9 -57.8 Q25.8 -59.65 26.45 -61.5 27.15 -63.5 29.1 -63.7 L29.6 -63.55 Q30.55 -62.7 30.7 -61.4 30.8 -60.85 31.1 -60.65 L31.5 -60.5 Q33.3 -60.0 32.8 -58.35 L32.5 -57.75 Q31.35 -56.4 29.65 -56.25 L28.25 -56.2 Q29.8 -55.7 30.05 -54.05 L29.75 -54.05 29.3 -54.15 29.55 -52.45 29.65 -51.75 Q29.0 -51.6 28.5 -52.35 L28.2 -52.75 Q28.0 -52.5 27.9 -52.6 27.8 -50.9 26.05 -50.65 25.4 -50.6 24.9 -51.05 23.9 -52.05 22.2 -51.85 21.2 -52.85 22.0 -53.9 23.15 -55.4 25.15 -56.55 L25.05 -56.9 23.85 -56.65 Q23.4 -56.6 23.1 -56.95 L22.4 -57.45 19.9 -57.75 19.0 -58.05 18.0 -58.7 16.95 -59.25 16.2 -59.45 Q14.4 -59.95 13.4 -61.45 L12.5 -60.65 12.25 -60.45 Q10.7 -59.45 8.95 -58.7 L8.3 -58.45 6.55 -57.9 6.55 -55.4 7.45 -55.65 8.9 -55.75 9.65 -55.0 Q10.55 -54.05 10.35 -52.8 12.35 -51.45 13.55 -49.45 L14.2 -48.25 14.2 -48.2 14.7 -46.7 16.2 -40.85 16.55 -39.2 17.15 -36.15 17.8 -30.1 Q17.85 -29.45 17.05 -29.05 L17.3 -27.6 19.15 -28.0 19.2 -27.95 Q19.75 -28.35 20.4 -28.55 L22.1 -28.8 28.05 -29.1 28.9 -29.35 32.05 -30.8 33.75 -31.6 Q36.7 -32.9 38.9 -30.65 L39.15 -30.3 39.55 -29.5 Q40.5 -28.8 40.15 -27.05 40.15 -26.2 39.6 -25.65 L39.4 -25.4 38.1 -24.4 36.55 -23.4 Q35.4 -22.7 34.8 -21.65 33.6 -19.45 32.7 -17.2 31.6 -14.5 28.75 -13.5 27.95 -13.2 27.2 -12.7 25.0 -11.25 23.0 -9.2 21.05 -7.2 18.45 -7.85 L18.0 -7.9 Q14.75 -7.8 12.75 -8.7 12.3 -8.9 11.85 -9.2 10.45 -10.1 9.55 -11.35 L9.55 -10.5 9.6 -10.05 10.05 -8.95 10.15 -8.75 10.35 -8.55 10.6 -6.9 Q12.6 -6.15 12.7 -4.2 12.75 -3.45 12.35 -2.95 L10.85 -1.75 Q7.5 0.25 3.4 -0.5 L2.1 -0.65 Q0.7 -0.6 0.7 -1.8 L2.35 -3.4 Q4.65 -5.55 7.15 -6.75 6.95 -7.8 6.9 -8.9 L6.6 -11.5 Q6.05 -15.25 5.85 -18.65 L2.85 -18.65 0.75 -18.8 1.0 -14.0 Q1.0 -12.05 1.5 -10.25 L1.6 -9.95 1.6 -9.9 1.65 -9.45 Q2.7 -8.45 2.9 -6.8 3.0 -6.1 2.4 -5.85 -0.6 -4.55 -4.7 -5.2 -6.75 -5.15 -8.05 -6.15 -4.8 -7.6 -1.5 -9.45 L-1.45 -9.45 Q-2.2 -12.05 -2.1 -15.15 -2.05 -17.15 -2.35 -19.1 L-4.25 -19.25 -9.05 -19.35 Q-9.35 -20.85 -9.0 -22.15 -7.95 -25.95 -6.15 -29.4 -6.45 -29.45 -6.85 -30.0 L-8.2 -32.1 Q-9.1 -33.65 -8.95 -36.2 -9.2 -35.8 -10.2 -35.5 L-11.05 -35.35 -18.1 -35.35 -18.6 -36.0 Q-19.75 -35.5 -21.2 -35.65 L-22.05 -35.7 Q-23.9 -35.7 -23.95 -37.65 -24.0 -38.45 -23.6 -38.7 L-20.25 -41.25 -20.25 -41.95 Q-20.15 -42.7 -18.9 -42.95 L-17.8 -43.2 Q-14.95 -43.95 -12.3 -45.6 -10.45 -46.75 -8.95 -48.15 L-5.8 -51.2 Q-6.5 -51.25 -3.9 -52.6 L-3.25 -53.15 Q-2.3 -53.85 -1.2 -54.05 L-1.1 -57.05 M10.2 -8.95 L10.35 -8.55 M-10.75 -58.15 Q-11.95 -56.75 -13.25 -56.65 -12.55 -56.55 -11.8 -55.95 -11.35 -55.6 -11.4 -55.15 -11.4 -54.65 -11.8 -54.35 L-14.15 -54.25 -14.4 -54.45 -14.75 -54.75 -15.15 -54.55 Q-15.75 -53.65 -16.65 -53.85 L-15.7 -55.4 Q-16.7 -56.05 -17.85 -56.25 -17.5 -57.9 -16.4 -59.5 L-16.1 -59.65 Q-15.75 -59.65 -15.5 -59.35 -14.8 -58.45 -14.85 -57.0 L-13.7 -58.35 Q-13.6 -59.7 -12.45 -60.0 M-14.0 -62.75 L-16.0 -63.0 -15.7 -63.2 -14.4 -64.0 -14.55 -64.6 -15.15 -64.6 Q-17.75 -64.65 -19.25 -66.85 L-19.55 -67.4 Q-20.3 -68.75 -20.25 -70.25 L-20.0 -71.4 Q-19.6 -72.4 -18.3 -72.35 L-16.65 -72.5 Q-15.75 -73.15 -15.15 -74.0 L-13.9 -76.25 -14.8 -75.95 M-7.95 -78.0 L-7.7 -77.5 -4.9 -76.35 -3.45 -75.75 -2.75 -78.05 -2.2 -79.45 Q-1.95 -79.55 -1.85 -79.0 -1.6 -77.35 -0.75 -75.9 L-0.45 -75.25 Q0.1 -73.75 0.75 -72.55 L0.9 -73.5 Q0.9 -74.45 1.35 -75.3 L1.7 -76.25 3.55 -73.45 4.65 -72.05 4.9 -71.8 4.9 -71.5 4.8 -69.2 6.75 -69.05 Q7.95 -70.6 10.0 -69.8 L10.2 -69.6 Q10.6 -68.7 10.45 -67.6 10.2 -65.9 8.95 -64.75 L6.4 -63.2 Q7.0 -61.85 7.1 -60.05 L7.5 -60.6 Q7.5 -59.45 6.55 -57.9 L6.55 -60.4 M19.15 -75.95 L19.15 -75.7 M15.8 -64.25 L15.45 -63.6 15.2 -63.25 13.4 -61.45 M6.75 -69.05 L6.7 -68.95 4.75 -66.65 Q4.55 -66.55 4.6 -67.25 L4.8 -69.2 4.25 -69.1 4.25 -68.5 Q4.3 -66.7 3.1 -65.55 0.9 -63.4 -2.2 -64.2 -3.7 -64.6 -5.05 -65.4 L-6.2 -66.5 Q-7.05 -67.75 -7.3 -69.35 L-10.05 -69.5 Q-10.15 -68.35 -10.65 -67.35 -11.9 -64.85 -14.45 -64.6 L-14.55 -64.6 -14.45 -64.6 M4.9 -71.5 L4.9 -71.65 4.9 -71.8 M0.75 -72.55 Q2.35 -72.5 3.85 -71.85 L4.25 -69.1 M6.4 -63.2 L5.85 -63.05 M-4.8 -50.4 L-4.3 -51.1 Q-3.55 -52.8 -2.05 -49.95 L-0.25 -52.55 Q3.6 -52.8 7.0 -54.25 L7.25 -54.4 8.4 -55.15 M10.35 -52.8 L10.2 -52.65 9.9 -52.35 6.65 -49.3 Q5.2 -47.9 3.3 -47.35 L2.0 -46.35 1.9 -45.45 1.2 -45.35 0.85 -45.55 -0.55 -44.75 Q-0.1 -43.45 0.2 -42.0 L-1.45 -40.0 -1.9 -39.45 -2.85 -37.65 -2.95 -39.0 -3.0 -42.75 -3.0 -43.25 -2.95 -43.7 -3.95 -43.2 -4.2 -43.0 -4.25 -43.2 -4.3 -43.5 -4.35 -43.5 Q-4.9 -41.75 -5.1 -39.85 L-5.2 -39.15 -5.2 -38.65 Q-5.35 -40.2 -5.9 -41.55 L-5.95 -42.5 -4.65 -45.0 -5.0 -46.75 -5.8 -46.65 Q-6.15 -46.65 -6.35 -46.85 -7.0 -47.65 -6.45 -48.8 -6.3 -49.0 -6.3 -49.25 -6.25 -49.6 -6.05 -49.55 L-5.35 -49.5 -5.4 -50.35 -4.8 -50.4 Q-5.45 -50.9 -4.65 -51.2 L-4.65 -51.25 -4.65 -51.35 -3.9 -52.6 M28.25 -56.2 L27.45 -56.2 27.25 -56.0 25.95 -55.9 Q25.7 -55.95 25.5 -56.15 L25.15 -56.55 M25.9 -57.8 Q27.2 -57.45 27.45 -56.25 L27.45 -56.2 M27.9 -52.75 L27.9 -52.85 27.8 -53.4 Q27.55 -54.3 26.9 -54.85 M27.9 -52.6 L27.9 -52.75 M39.55 -29.5 L39.45 -29.6 Q37.7 -31.3 35.6 -30.5 L35.05 -30.25 Q33.8 -29.95 32.65 -29.45 31.5 -28.95 30.5 -28.25 29.25 -27.35 27.75 -27.25 L26.3 -27.0 23.8 -26.8 Q22.0 -26.95 21.15 -25.65 19.7 -23.55 16.95 -22.65 L15.7 -22.2 13.4 -21.3 Q12.0 -20.65 11.55 -18.9 L11.55 -18.85 Q11.2 -17.9 11.4 -16.45 11.5 -15.6 11.9 -14.7 13.0 -12.0 14.7 -9.85 15.35 -9.05 16.75 -8.35 L18.0 -7.9 M-2.05 -49.95 L-2.5 -49.4 -2.0 -49.35 -1.65 -49.1 Q-0.05 -49.9 1.6 -49.65 2.1 -48.2 2.0 -46.8 L2.0 -46.35 M-0.25 -52.55 L2.35 -49.3 3.3 -47.35 M-6.15 -29.4 L-3.65 -28.95 -1.75 -28.7 Q2.2 -28.4 6.2 -28.7 L8.8 -28.85 10.1 -29.15 Q8.5 -32.35 8.35 -33.7 L7.85 -37.7 7.85 -37.85 7.35 -41.6 7.3 -41.2 7.35 -41.7 7.35 -41.6 7.55 -42.6 7.7 -43.2 8.0 -45.2 Q8.4 -49.1 10.35 -51.9 M7.85 -37.7 L8.0 -37.65 7.85 -37.85 M7.25 -26.85 L7.65 -23.15 7.65 -22.95 7.7 -22.75 7.7 -22.45 7.65 -22.35 7.35 -20.6 7.3 -19.4 7.35 -18.75 7.5 -18.7 7.85 -20.4 Q8.8 -23.45 11.75 -24.15 L12.95 -24.55 12.9 -25.6 13.7 -25.85 13.0 -26.4 Q12.4 -27.0 12.05 -27.85 L11.6 -27.85 Q10.55 -27.9 10.2 -28.95 L10.1 -29.15 M17.05 -29.05 Q14.9 -28.05 12.25 -27.9 L12.05 -27.85 M11.15 -24.95 L10.9 -26.1 M13.7 -25.85 L14.05 -25.7 15.0 -25.4 16.7 -26.2 16.75 -26.2 17.05 -26.7 17.25 -27.3 17.3 -27.6 M14.05 -25.7 L14.4 -25.15 15.0 -25.4 15.95 -25.35 16.35 -25.7 16.75 -26.2 17.6 -26.7 17.55 -26.7 17.05 -26.7 M19.2 -27.95 L19.7 -27.35 Q20.05 -26.4 19.65 -25.8 18.85 -25.6 18.4 -26.45 18.15 -26.9 17.6 -26.7 M13.05 -23.45 L12.95 -24.55 14.4 -25.15 M5.85 -18.65 L6.45 -18.7 7.35 -18.75 M7.5 -18.7 Q7.35 -17.45 7.6 -16.15 7.85 -14.75 8.35 -13.45 8.8 -12.3 9.55 -11.35 M7.15 -6.75 Q8.5 -6.1 9.25 -6.25 10.1 -6.4 10.6 -6.9 M1.65 -9.45 L1.6 -9.5 1.6 -9.9 1.6 -9.95 Q0.8 -8.75 0.1 -8.85 -0.65 -9.0 -1.45 -9.45 M2.85 -18.65 L2.95 -26.45 M-13.9 -76.25 L-13.45 -76.4 -13.45 -77.45 -13.9 -76.25 M-13.45 -73.2 L-13.5 -73.85 -13.45 -76.4 -11.35 -77.15 -11.2 -77.45 M-3.45 -75.75 L-2.75 -75.4 M-3.95 -72.5 L-4.15 -72.5 -3.95 -72.3 -3.95 -72.5 -3.85 -73.5 -3.45 -75.75 M-5.55 -74.3 Q-5.05 -73.35 -4.15 -72.5 L-5.25 -72.45 -7.15 -72.0 M-14.95 -72.6 L-12.35 -72.45 -11.35 -72.4 Q-10.1 -71.7 -10.05 -70.1 L-10.05 -69.5 M-7.3 -69.35 L-7.4 -70.7 -7.45 -71.25 Q-7.55 -72.0 -7.85 -71.7 M-15.15 -74.0 L-14.95 -72.6 -16.65 -72.5 -16.95 -72.35 Q-17.45 -72.05 -17.85 -71.9 L-18.2 -71.75 -18.3 -72.35 M-11.95 -68.35 Q-13.6 -67.8 -13.45 -69.65 L-13.25 -70.1 Q-12.5 -71.05 -11.4 -70.55 -11.15 -68.95 -12.5 -68.95 L-12.5 -69.55 M-14.95 -72.6 L-14.85 -69.25 M-14.0 -62.75 L-11.75 -62.8 -10.55 -62.7 M-10.6 -66.2 L-14.4 -64.0 M-14.85 -57.0 L-14.45 -56.75 -13.25 -56.65 M-15.7 -55.4 L-14.75 -54.75 M-10.5 -61.45 L-8.65 -61.1 -6.7 -61.2 -6.2 -61.25 -5.7 -61.4 -4.65 -61.7 M-0.95 -52.75 Q-0.75 -53.65 -1.2 -54.05 M-4.8 -50.4 L-4.65 -51.2 M-2.5 -49.4 Q-2.9 -49.35 -3.1 -49.0 L-3.25 -48.4 -3.35 -47.75 Q-3.35 -47.4 -3.0 -47.25 L-3.0 -47.3 -3.0 -47.25 -2.8 -47.2 -2.5 -47.15 -1.65 -47.3 -1.85 -47.7 -1.4 -47.45 -1.35 -47.95 -1.65 -49.1 M-1.65 -47.3 L-1.4 -47.45 -0.5 -46.5 0.85 -45.55 M-0.55 -44.75 L-1.2 -46.45 -1.65 -47.3 M-4.65 -45.0 L-3.4 -46.75 -3.0 -47.25 -4.3 -43.5 M-5.0 -46.75 Q-4.05 -47.0 -3.35 -47.75 M-2.5 -47.15 L-2.95 -43.7 M-3.1 -49.0 L-5.35 -49.5 M-5.8 -51.2 Q-7.75 -47.65 -8.05 -44.35 L-8.15 -43.2 -8.95 -36.55 -8.95 -36.35 -8.95 -36.2 -8.95 -36.35 -10.0 -36.15 M-20.25 -41.25 L-19.85 -39.9 -19.55 -38.7 Q-19.4 -37.15 -18.6 -36.0 M-4.25 -19.25 L-2.25 -26.65 Q-1.85 -28.1 -2.25 -27.4 M-2.35 -19.1 L-1.3 -19.0 0.75 -18.8 M-3.95 -72.5 L0.75 -72.55" fill="none" stroke="#000000" stroke-linecap="round" stroke-linejoin="round" stroke-width="0.05"/>
  </g>
</svg>
