<?xml version="1.0" encoding="UTF-8" standalone="no"?>
<svg xmlns:ffdec="https://www.free-decompiler.com/flash" xmlns:xlink="http://www.w3.org/1999/xlink" ffdec:objectType="shape" height="92.75px" width="76.1px" xmlns="http://www.w3.org/2000/svg">
  <g transform="matrix(1.0, 0.0, 0.0, 1.0, 50.35, 92.9)">
    <path d="M-1.4 -91.45 Q2.85 -93.5 7.55 -92.45 L10.1 -91.6 Q14.65 -89.5 17.5 -85.4 20.35 -81.3 21.1 -76.4 21.85 -71.05 19.4 -66.95 18.05 -64.7 16.4 -64.0 15.45 -61.1 12.3 -60.4 10.8 -60.05 9.8 -58.75 L7.05 -55.65 7.05 -59.35 5.4 -58.3 4.65 -57.8 3.95 -57.4 4.2 -54.5 4.3 -53.2 5.0 -53.5 5.45 -54.4 Q6.2 -53.85 7.7 -53.85 9.95 -53.8 11.0 -52.8 L10.55 -51.75 10.5 -51.7 11.25 -51.4 Q12.4 -51.15 13.2 -49.85 L18.7 -42.95 Q21.1 -40.1 22.6 -36.9 23.35 -35.2 24.45 -33.35 L25.65 -31.25 24.65 -30.65 25.0 -28.85 25.4 -26.05 Q25.45 -24.3 23.75 -23.7 21.9 -24.6 20.65 -26.05 20.15 -26.55 19.9 -27.25 L19.4 -28.05 19.25 -27.95 16.7 -27.2 Q14.85 -30.1 13.5 -32.95 13.45 -28.85 14.25 -25.1 L14.3 -24.65 Q14.5 -23.55 14.95 -22.4 L16.45 -17.7 Q17.75 -14.0 19.2 -10.85 19.4 -10.5 19.75 -10.1 15.5 -8.65 10.5 -8.05 L12.1 -4.7 13.15 -2.35 Q12.35 0.35 8.25 -0.25 8.7 -0.7 9.1 -0.8 10.95 -1.4 10.15 -2.85 9.1 -4.85 9.05 -7.9 L8.9 -7.85 2.9 -7.55 -0.4 -7.6 Q-0.75 -7.0 -0.65 -6.2 -0.55 -3.6 -1.35 -1.45 -1.35 -0.65 -2.05 -0.8 L-7.45 -1.45 -5.4 -1.55 Q-3.9 -4.05 -3.3 -7.8 L-7.95 -8.55 Q-7.2 -9.9 -6.75 -11.95 L-8.0 -12.6 Q-9.15 -12.9 -9.1 -13.6 -9.3 -19.15 -9.1 -23.5 L-8.7 -31.6 -8.05 -39.65 -7.5 -43.3 Q-9.85 -42.0 -12.7 -40.9 -17.95 -38.95 -23.2 -40.4 -24.1 -40.65 -24.45 -41.05 L-25.2 -42.05 Q-26.0 -41.6 -27.05 -41.7 L-26.9 -41.0 -26.7 -40.15 Q-26.0 -38.3 -28.0 -38.15 -28.45 -38.1 -28.6 -38.55 L-29.45 -40.8 -30.7 -41.0 -31.6 -41.2 Q-32.95 -41.75 -34.05 -43.0 -34.65 -43.65 -34.5 -44.45 -34.15 -46.45 -32.75 -48.2 L-32.9 -48.6 -33.25 -49.3 -32.65 -49.8 Q-33.3 -51.75 -34.1 -52.75 -35.5 -51.65 -37.3 -51.85 -41.3 -52.3 -43.5 -55.6 -47.55 -58.2 -48.4 -59.9 -49.25 -61.6 -50.0 -66.05 -50.8 -70.55 -49.65 -72.25 L-47.95 -74.65 -45.8 -76.4 -45.7 -76.45 -45.2 -75.6 Q-46.2 -74.7 -46.2 -72.75 -46.25 -69.6 -45.4 -67.05 -44.35 -64.0 -42.3 -61.25 -40.1 -58.3 -36.9 -56.1 -35.45 -55.1 -34.15 -55.45 -34.2 -55.95 -33.5 -56.05 -32.4 -56.25 -31.9 -57.35 -31.1 -59.1 -30.95 -60.95 -30.8 -62.8 -31.3 -64.75 L-31.55 -65.55 Q-32.8 -69.0 -35.65 -71.7 -38.5 -74.4 -41.75 -76.15 L-43.25 -76.4 -41.75 -76.15 Q-38.5 -74.4 -35.65 -71.7 -32.8 -69.0 -31.55 -65.55 L-31.3 -64.75 Q-30.8 -62.8 -30.95 -60.95 -31.1 -59.1 -31.9 -57.35 -32.4 -56.25 -33.5 -56.05 -34.2 -55.95 -34.15 -55.45 -35.45 -55.1 -36.9 -56.1 -40.1 -58.3 -42.3 -61.25 -44.35 -64.0 -45.4 -67.05 -46.25 -69.6 -46.2 -72.75 -46.2 -74.7 -45.2 -75.6 -44.5 -76.25 -43.25 -76.4 L-43.2 -76.75 Q-40.75 -76.6 -38.15 -74.9 -36.45 -74.4 -35.25 -73.3 L-32.85 -70.7 Q-31.35 -68.95 -30.6 -67.05 -29.35 -64.05 -30.3 -60.85 L-30.35 -60.75 Q-30.85 -59.0 -31.65 -57.25 L-33.15 -54.35 Q-31.9 -52.85 -31.3 -50.8 L-30.65 -51.2 -30.25 -50.0 -25.8 -49.35 -25.9 -50.2 -23.85 -49.6 Q-19.95 -48.65 -15.5 -48.85 L-11.2 -49.3 Q-7.05 -49.9 -3.4 -51.75 L-3.2 -52.1 -2.6 -53.2 -2.1 -52.9 0.4 -53.45 0.45 -54.5 0.5 -55.05 0.45 -55.8 0.2 -55.7 Q-2.9 -54.5 -6.2 -53.8 -7.25 -53.6 -7.35 -54.15 -7.95 -57.8 -10.25 -60.65 L-12.15 -63.5 -11.8 -63.6 -11.65 -63.6 -8.9 -63.75 -8.15 -63.7 -6.75 -63.65 Q-5.65 -63.6 -4.8 -64.1 -5.65 -63.6 -6.75 -63.65 L-8.15 -63.7 -8.9 -63.75 -11.65 -63.6 -11.8 -63.6 -12.15 -63.5 -12.45 -64.05 Q-12.7 -65.95 -13.1 -67.5 L-13.35 -68.8 Q-14.65 -69.35 -15.2 -70.2 L-15.35 -70.4 -15.35 -70.45 Q-16.0 -71.6 -16.1 -73.15 L-15.95 -74.4 -14.4 -77.5 -15.95 -74.4 -16.1 -73.15 Q-16.0 -71.6 -15.35 -70.45 L-15.35 -70.4 -15.4 -70.35 -15.45 -70.4 Q-16.2 -70.9 -16.6 -69.85 -17.0 -69.0 -18.25 -68.35 -18.15 -69.25 -18.7 -69.75 -21.65 -72.55 -21.8 -76.4 L-21.6 -77.7 Q-21.0 -79.55 -20.75 -82.05 -20.4 -86.85 -16.55 -90.15 -14.65 -91.85 -12.2 -92.4 -7.15 -93.6 -2.7 -92.0 L-1.4 -91.45 M3.95 -57.4 L2.55 -56.7 0.45 -55.8 2.55 -56.7 3.95 -57.4 M7.05 -59.35 L7.15 -61.75 Q8.0 -63.35 7.55 -63.75 6.5 -62.2 4.55 -61.85 5.1 -63.4 6.15 -65.35 7.4 -67.65 7.85 -70.2 L8.0 -71.05 8.15 -71.85 8.15 -71.95 8.2 -72.05 8.2 -72.15 8.2 -72.3 8.25 -73.0 Q8.55 -77.95 3.75 -80.4 -0.55 -82.6 -3.8 -85.8 -0.55 -82.6 3.75 -80.4 8.55 -77.95 8.25 -73.0 L8.2 -72.3 8.2 -72.15 8.2 -72.05 8.15 -71.95 8.15 -71.85 8.0 -71.05 7.85 -70.2 Q7.4 -67.65 6.15 -65.35 5.1 -63.4 4.55 -61.85 6.5 -62.2 7.55 -63.75 8.0 -63.35 7.15 -61.75 L7.05 -59.35 M2.8 -72.1 Q3.0 -72.55 3.75 -72.3 3.7 -74.15 1.85 -74.05 1.15 -74.05 1.0 -73.35 0.05 -69.45 4.75 -69.75 5.85 -70.45 6.15 -71.4 L6.25 -72.2 6.2 -72.4 6.1 -73.0 5.85 -73.65 Q5.15 -75.25 3.85 -75.6 3.0 -75.85 1.9 -75.6 L1.4 -75.5 1.3 -75.45 0.9 -75.3 -0.1 -74.55 Q-1.0 -73.6 -1.05 -71.85 -1.15 -68.95 1.35 -68.35 -1.15 -68.95 -1.05 -71.85 -1.0 -73.6 -0.1 -74.55 L0.9 -75.3 1.3 -75.45 1.4 -75.5 1.9 -75.6 Q3.0 -75.85 3.85 -75.6 5.15 -75.25 5.85 -73.65 L6.1 -73.0 6.2 -72.4 6.25 -72.2 6.15 -71.4 Q5.85 -70.45 4.75 -69.75 0.05 -69.45 1.0 -73.35 1.15 -74.05 1.85 -74.05 3.7 -74.15 3.75 -72.3 3.0 -72.55 2.8 -72.1 M11.25 -39.65 L10.35 -39.7 10.3 -39.7 9.15 -45.65 Q9.9 -46.55 9.7 -48.4 9.6 -49.0 9.8 -49.5 L10.5 -51.7 9.8 -49.5 Q9.6 -49.0 9.7 -48.4 9.9 -46.55 9.15 -45.65 L10.3 -39.7 10.35 -39.7 11.25 -39.65 M4.3 -53.2 Q3.6 -52.4 1.75 -51.65 3.6 -52.4 4.3 -53.2 M7.7 -53.85 L6.7 -51.65 6.25 -50.45 Q5.7 -48.95 6.3 -47.55 6.7 -46.5 5.45 -46.55 L4.6 -46.2 -3.1 -47.7 Q-2.6 -49.75 -1.65 -51.15 -1.15 -50.5 -1.0 -49.8 L0.75 -50.6 0.85 -50.65 0.9 -50.7 1.3 -50.9 1.75 -51.0 Q2.35 -50.95 3.05 -50.1 L4.3 -48.65 5.15 -50.9 5.7 -52.05 5.15 -50.9 4.3 -48.65 3.05 -50.1 Q2.35 -50.95 1.75 -51.0 L1.3 -50.9 0.9 -50.7 0.85 -50.65 0.75 -50.6 -1.0 -49.8 Q-1.15 -50.5 -1.65 -51.15 -2.6 -49.75 -3.1 -47.7 L4.6 -46.2 5.45 -46.55 Q6.7 -46.5 6.3 -47.55 5.7 -48.95 6.25 -50.45 L6.7 -51.65 7.7 -53.85 M0.4 -51.65 L0.4 -52.75 0.4 -53.45 0.4 -52.75 0.4 -51.65 M-6.75 -11.95 L-5.4 -11.8 4.05 -11.9 Q8.9 -11.85 13.1 -13.35 12.65 -13.55 12.7 -14.25 12.9 -18.65 12.3 -22.8 L11.95 -24.6 Q11.4 -27.0 11.35 -29.5 L11.05 -35.1 10.6 -38.0 10.35 -39.6 12.5 -35.3 13.5 -32.95 12.5 -35.3 10.35 -39.6 10.6 -38.0 11.05 -35.1 11.35 -29.5 Q11.4 -27.0 11.95 -24.6 L12.3 -22.8 Q12.9 -18.65 12.7 -14.25 12.65 -13.55 13.1 -13.35 8.9 -11.85 4.05 -11.9 L-5.4 -11.8 -6.75 -11.95 M19.4 -28.05 L24.65 -30.65 19.4 -28.05 M10.35 -39.6 L10.3 -39.7 10.25 -39.7 10.35 -39.6 M9.05 -7.9 L10.5 -8.05 9.05 -7.9 M-5.95 -28.8 L-6.05 -28.15 Q-6.3 -24.6 -3.85 -21.6 -1.9 -19.3 0.9 -18.5 L2.5 -18.45 Q4.5 -18.95 5.8 -20.45 L6.15 -21.2 Q6.55 -24.5 6.4 -28.25 2.8 -28.15 -1.0 -28.4 L-4.65 -28.1 -1.0 -28.4 Q2.8 -28.15 6.4 -28.25 6.55 -24.5 6.15 -21.2 L5.8 -20.45 Q4.5 -18.95 2.5 -18.45 L0.9 -18.5 Q-1.9 -19.3 -3.85 -21.6 -6.3 -24.6 -6.05 -28.15 L-5.95 -28.8 M-14.4 -77.5 L-13.3 -78.85 -13.2 -79.0 -13.15 -79.05 -13.1 -79.1 Q-9.9 -82.8 -6.2 -85.55 -9.9 -82.8 -13.1 -79.1 L-13.15 -79.05 -13.2 -79.0 -13.3 -78.85 -14.4 -77.5 -13.8 -71.4 -13.35 -68.8 -13.8 -71.4 -14.4 -77.5 M-8.4 -71.85 Q-7.75 -72.0 -7.9 -73.0 -9.4 -74.2 -10.35 -72.55 -10.95 -71.4 -10.65 -70.8 -10.4 -70.25 -9.15 -70.15 L-7.5 -70.3 Q-4.95 -70.75 -5.4 -73.4 L-5.8 -74.4 Q-7.6 -77.45 -10.55 -75.95 -12.35 -75.0 -12.5 -73.15 L-12.5 -71.6 -12.15 -70.35 -12.1 -70.2 -12.05 -70.1 -11.9 -69.85 -11.75 -69.65 Q-10.9 -68.6 -9.15 -68.35 -10.9 -68.6 -11.75 -69.65 L-11.9 -69.85 -12.05 -70.1 -12.1 -70.2 -12.15 -70.35 -12.5 -71.6 -12.5 -73.15 Q-12.35 -75.0 -10.55 -75.95 -7.6 -77.45 -5.8 -74.4 L-5.4 -73.4 Q-4.95 -70.75 -7.5 -70.3 L-9.15 -70.15 Q-10.4 -70.25 -10.65 -70.8 -10.95 -71.4 -10.35 -72.55 -9.4 -74.2 -7.9 -73.0 -7.75 -72.0 -8.4 -71.85 M-8.85 -79.25 Q-10.0 -78.25 -11.35 -77.45 -10.0 -78.25 -8.85 -79.25 M-27.05 -41.7 L-27.5 -43.75 -27.75 -44.55 -29.4 -46.6 Q-31.65 -47.4 -32.1 -49.8 L-30.95 -49.95 -31.3 -50.8 -30.95 -49.95 -30.25 -50.0 -30.95 -49.95 -32.1 -49.8 Q-31.65 -47.4 -29.4 -46.6 L-27.75 -44.55 -27.5 -43.75 -27.05 -41.7 M-31.3 -50.8 L-32.65 -49.8 -31.3 -50.8 M-7.55 -62.1 L-8.2 -62.4 -8.4 -62.1 -7.55 -62.1 -6.45 -62.1 -1.9 -62.85 Q-0.65 -63.2 0.5 -63.7 -0.05 -61.35 -1.8 -60.45 -2.95 -59.85 -4.6 -59.85 L-4.9 -59.85 -5.65 -60.0 Q-7.6 -60.55 -8.4 -62.1 -7.6 -60.55 -5.65 -60.0 L-4.9 -59.85 -4.6 -59.85 Q-2.95 -59.85 -1.8 -60.45 -0.05 -61.35 0.5 -63.7 -0.65 -63.2 -1.9 -62.85 L-6.45 -62.1 -7.55 -62.1 M-12.45 -64.05 L-8.5 -67.55 -7.0 -68.8 -8.5 -67.55 -12.45 -64.05 M-1.65 -62.1 Q-1.45 -61.0 -1.8 -60.45 -3.7 -63.1 -4.9 -59.85 -5.6 -61.15 -6.45 -62.1 -5.6 -61.15 -4.9 -59.85 -3.7 -63.1 -1.8 -60.45 -1.45 -61.0 -1.65 -62.1 M-7.35 -43.9 L-6.2 -47.25 Q-5.5 -49.1 -4.1 -50.85 L-3.4 -51.75 -4.1 -50.85 Q-5.5 -49.1 -6.2 -47.25 L-7.35 -43.9 -7.5 -43.3 Q-6.25 -44.0 -7.35 -43.9 M-0.3 -52.75 L-1.65 -51.15 -0.3 -52.75 M-3.3 -7.8 L-0.4 -7.6 -3.3 -7.8 M-29.45 -40.8 L-30.3 -42.8 -32.75 -48.2 -30.3 -42.8 -29.45 -40.8 M-25.2 -42.05 Q-25.65 -43.0 -25.6 -44.5 L-25.8 -49.35 -25.6 -44.5 Q-25.65 -43.0 -25.2 -42.05 M-35.3 -62.3 Q-36.25 -67.5 -40.9 -70.35 -41.9 -71.6 -43.2 -70.95 -41.9 -71.6 -40.9 -70.35 -36.25 -67.5 -35.3 -62.3 M4.15 -76.9 Q2.4 -78.15 -0.35 -78.0 2.4 -78.15 4.15 -76.9" fill="#ffffff" fill-rule="evenodd" stroke="none"/>
    <path d="M-1.4 -91.45 Q2.85 -93.5 7.55 -92.45 L10.1 -91.6 Q14.65 -89.5 17.5 -85.4 20.35 -81.3 21.1 -76.4 21.85 -71.05 19.4 -66.95 18.05 -64.7 16.4 -64.0 15.45 -61.1 12.3 -60.4 10.8 -60.05 9.8 -58.75 L7.05 -55.65 7.05 -59.35 5.4 -58.3 4.65 -57.8 3.95 -57.4 2.55 -56.7 0.45 -55.8 0.2 -55.7 Q-2.9 -54.5 -6.2 -53.8 -7.25 -53.6 -7.35 -54.15 -7.95 -57.8 -10.25 -60.65 L-12.15 -63.5 -12.35 -63.5 -12.4 -63.5 -14.0 -63.2 -12.45 -64.05 -8.5 -67.55 -7.0 -68.8 M-13.35 -68.8 Q-14.65 -69.35 -15.2 -70.2 L-15.4 -70.35 -15.45 -70.4 Q-16.2 -70.9 -16.6 -69.85 -17.0 -69.0 -18.25 -68.35 L-18.55 -67.0 M1.35 -68.35 Q-1.15 -68.95 -1.05 -71.85 -1.0 -73.6 -0.1 -74.55 L0.9 -75.3 1.3 -75.45 1.4 -75.5 1.9 -75.6 Q3.0 -75.85 3.85 -75.6 5.15 -75.25 5.85 -73.65 L6.1 -73.0 6.2 -72.4 6.25 -72.2 6.15 -71.4 Q5.85 -70.45 4.75 -69.75 0.05 -69.45 1.0 -73.35 1.15 -74.05 1.85 -74.05 3.7 -74.15 3.75 -72.3 3.0 -72.55 2.8 -72.1 M-3.8 -85.8 Q-0.55 -82.6 3.75 -80.4 8.55 -77.95 8.25 -73.0 L8.2 -72.3 8.2 -72.15 8.2 -72.05 8.15 -71.95 8.15 -71.85 8.0 -71.05 7.85 -70.2 Q7.4 -67.65 6.15 -65.35 5.1 -63.4 4.55 -61.85 6.5 -62.2 7.55 -63.75 8.0 -63.35 7.15 -61.75 L7.05 -59.35 M-2.7 -92.0 Q-7.15 -93.6 -12.2 -92.4 -14.65 -91.85 -16.55 -90.15 -20.4 -86.85 -20.75 -82.05 -21.0 -79.55 -21.6 -77.7 L-21.8 -76.4 Q-21.65 -72.55 -18.7 -69.75 -18.15 -69.25 -18.25 -68.35 M-6.2 -85.55 Q-9.9 -82.8 -13.1 -79.1 L-13.15 -79.05 -13.2 -79.0 -13.3 -78.85 -14.4 -77.5 -15.95 -74.4 -16.1 -73.15 Q-16.0 -71.6 -15.35 -70.45 L-15.35 -70.4 -15.2 -70.2 M-11.35 -77.45 Q-10.0 -78.25 -8.85 -79.25 M-9.15 -68.35 Q-10.9 -68.6 -11.75 -69.65 L-11.9 -69.85 -12.05 -70.1 -12.1 -70.2 -12.15 -70.35 -12.5 -71.6 -12.5 -73.15 Q-12.35 -75.0 -10.55 -75.95 -7.6 -77.45 -5.8 -74.4 L-5.4 -73.4 Q-4.95 -70.75 -7.5 -70.3 L-9.15 -70.15 Q-10.4 -70.25 -10.65 -70.8 -10.95 -71.4 -10.35 -72.55 -9.4 -74.2 -7.9 -73.0 -7.75 -72.0 -8.4 -71.85 M-7.55 -62.1 L-8.2 -62.4 -8.4 -62.1 -7.55 -62.1 -6.45 -62.1 -1.9 -62.85 Q-0.65 -63.2 0.5 -63.7 -0.05 -61.35 -1.8 -60.45 -2.95 -59.85 -4.6 -59.85 L-4.9 -59.85 -5.65 -60.0 Q-7.6 -60.55 -8.4 -62.1 M-12.15 -63.5 L-11.8 -63.6 -11.65 -63.6 -8.9 -63.75 -8.15 -63.7 -6.75 -63.65 Q-5.65 -63.6 -4.8 -64.1 M-4.9 -59.85 Q-5.6 -61.15 -6.45 -62.1 M-4.9 -59.85 Q-3.7 -63.1 -1.8 -60.45 -1.45 -61.0 -1.65 -62.1 M-0.35 -78.0 Q2.4 -78.15 4.15 -76.9" fill="none" stroke="#000000" stroke-linecap="round" stroke-linejoin="round" stroke-width="0.05"/>
    <path d="M3.95 -57.4 L4.2 -54.5 4.3 -53.2 5.0 -53.5 M5.45 -54.4 Q6.2 -53.85 7.7 -53.85 9.95 -53.8 11.0 -52.8 L10.55 -51.75 10.5 -51.7 9.8 -49.5 Q9.6 -49.0 9.7 -48.4 9.9 -46.55 9.15 -45.65 L10.3 -39.7 10.35 -39.7 11.25 -39.65 M11.25 -51.4 Q12.4 -51.15 13.2 -49.85 L18.7 -42.95 Q21.1 -40.1 22.6 -36.9 23.35 -35.2 24.45 -33.35 L25.65 -31.25 25.65 -31.2 25.75 -31.1 24.65 -30.65 25.0 -28.85 25.4 -26.05 Q25.45 -24.3 23.75 -23.7 21.9 -24.6 20.65 -26.05 20.15 -26.55 19.9 -27.25 L19.4 -28.05 19.25 -27.95 16.7 -27.2 Q14.85 -30.1 13.5 -32.95 13.45 -28.85 14.25 -25.1 L14.95 -22.4 16.45 -17.7 Q17.75 -14.0 19.2 -10.85 19.4 -10.5 19.75 -10.1 15.5 -8.65 10.5 -8.05 L12.1 -4.7 13.15 -2.35 Q12.35 0.35 8.25 -0.25 8.7 -0.7 9.1 -0.8 10.95 -1.4 10.15 -2.85 9.1 -4.85 9.05 -7.9 L8.9 -7.85 2.9 -7.55 -0.4 -7.6 Q-0.75 -7.0 -0.65 -6.2 -0.55 -3.6 -1.35 -1.45 -1.35 -0.65 -2.05 -0.8 L-7.45 -1.45 -5.4 -1.55 Q-3.9 -4.05 -3.3 -7.8 L-7.95 -8.55 Q-7.2 -9.9 -6.75 -11.95 L-8.0 -12.6 Q-9.15 -12.9 -9.1 -13.6 -9.3 -19.15 -9.1 -23.5 L-8.7 -31.6 -8.05 -39.65 -7.5 -43.3 Q-9.85 -42.0 -12.7 -40.9 -17.95 -38.95 -23.2 -40.4 -24.1 -40.65 -24.45 -41.05 L-25.2 -42.05 Q-26.0 -41.6 -27.05 -41.7 L-26.9 -41.0 -26.7 -40.15 Q-26.0 -38.3 -28.0 -38.15 -28.45 -38.1 -28.6 -38.55 L-29.45 -40.8 -30.7 -41.0 -31.6 -41.2 Q-32.95 -41.75 -34.05 -43.0 -34.65 -43.65 -34.5 -44.45 -34.15 -46.45 -32.75 -48.2 L-32.9 -48.6 -33.25 -49.3 -32.65 -49.8 Q-33.3 -51.75 -34.1 -52.75 -35.5 -51.65 -37.3 -51.85 -41.3 -52.3 -43.5 -55.6 -47.55 -58.2 -48.4 -59.9 -49.25 -61.6 -50.0 -66.05 -50.8 -70.55 -49.65 -72.25 L-47.95 -74.65 -45.8 -76.4 -45.7 -76.45 -45.35 -76.65 -44.6 -76.85 -44.3 -76.75 -43.2 -76.75 Q-40.75 -76.6 -38.15 -74.9 -36.45 -74.4 -35.25 -73.3 L-32.85 -70.7 Q-31.35 -68.95 -30.6 -67.05 -29.35 -64.05 -30.3 -60.85 L-30.35 -60.75 Q-30.85 -59.0 -31.65 -57.25 L-33.15 -54.35 Q-31.9 -52.85 -31.3 -50.8 L-30.65 -51.2 -30.25 -50.0 -25.8 -49.35 -25.9 -50.2 -23.85 -49.6 Q-19.95 -48.65 -15.5 -48.85 L-11.2 -49.3 Q-7.05 -49.9 -3.4 -51.75 L-3.2 -52.1 -2.6 -53.2 M-2.1 -52.9 L0.4 -53.45 0.45 -54.5 0.5 -55.05 0.45 -55.8 M-12.45 -64.05 Q-12.7 -65.95 -13.1 -67.5 L-13.35 -68.8 -13.8 -71.4 -14.4 -77.5 M0.4 -53.45 L0.4 -52.75 0.4 -51.65 M5.7 -52.05 L5.15 -50.9 4.3 -48.65 3.05 -50.1 Q2.35 -50.95 1.75 -51.0 L1.3 -50.9 0.9 -50.7 0.85 -50.65 0.75 -50.6 -1.0 -49.8 Q-1.15 -50.5 -1.65 -51.15 -2.6 -49.75 -3.1 -47.7 L4.6 -46.2 5.45 -46.55 Q6.7 -46.5 6.3 -47.55 5.7 -48.95 6.25 -50.45 L6.7 -51.65 7.7 -53.85 M1.75 -51.65 Q3.6 -52.4 4.3 -53.2 M24.65 -30.65 L19.4 -28.05 M13.5 -32.95 L12.5 -35.3 10.35 -39.6 10.6 -38.0 11.05 -35.1 11.35 -29.5 Q11.4 -27.0 11.95 -24.6 L12.3 -22.8 Q12.9 -18.65 12.7 -14.25 12.65 -13.55 13.1 -13.35 8.9 -11.85 4.05 -11.9 L-5.4 -11.8 -6.75 -11.95 M10.35 -39.6 L10.25 -39.7 10.3 -39.7 10.35 -39.6 M14.25 -25.1 L14.3 -24.65 Q14.5 -23.55 14.95 -22.4 M-4.65 -28.1 L-1.0 -28.4 Q2.8 -28.15 6.4 -28.25 6.55 -24.5 6.15 -21.2 L5.8 -20.45 Q4.5 -18.95 2.5 -18.45 L0.9 -18.5 Q-1.9 -19.3 -3.85 -21.6 -6.3 -24.6 -6.05 -28.15 L-5.95 -28.8 M10.5 -8.05 L9.05 -7.9 M-43.25 -76.4 L-41.75 -76.15 Q-38.5 -74.4 -35.65 -71.7 -32.8 -69.0 -31.55 -65.55 L-31.3 -64.75 Q-30.8 -62.8 -30.95 -60.95 -31.1 -59.1 -31.9 -57.35 -32.4 -56.25 -33.5 -56.05 -34.2 -55.95 -34.15 -55.45 -35.45 -55.1 -36.9 -56.1 -40.1 -58.3 -42.3 -61.25 -44.35 -64.0 -45.4 -67.05 -46.25 -69.6 -46.2 -72.75 -46.2 -74.7 -45.2 -75.6 -44.5 -76.25 -43.25 -76.4 M-31.3 -50.8 L-30.95 -49.95 -30.25 -50.0 M-32.65 -49.8 L-31.3 -50.8 M-30.95 -49.95 L-32.1 -49.8 Q-31.65 -47.4 -29.4 -46.6 L-27.75 -44.55 -27.5 -43.75 -27.05 -41.7 M-1.65 -51.15 L-0.3 -52.75 M-3.4 -51.75 L-4.1 -50.85 Q-5.5 -49.1 -6.2 -47.25 L-7.35 -43.9 Q-6.25 -44.0 -7.5 -43.3 L-7.35 -43.9 M-43.2 -70.95 Q-41.9 -71.6 -40.9 -70.35 -36.25 -67.5 -35.3 -62.3 M-25.8 -49.35 L-25.6 -44.5 Q-25.65 -43.0 -25.2 -42.05 M-32.75 -48.2 L-30.3 -42.8 -29.45 -40.8 M-0.4 -7.6 L-3.3 -7.8" fill="none" stroke="#000000" stroke-linecap="round" stroke-linejoin="round" stroke-width="0.05"/>
  </g>
</svg>
