<?xml version="1.0" encoding="UTF-8" standalone="no"?>
<svg xmlns:ffdec="https://www.free-decompiler.com/flash" xmlns:xlink="http://www.w3.org/1999/xlink" ffdec:objectType="shape" height="95.05px" width="43.3px" xmlns="http://www.w3.org/2000/svg">
  <g transform="matrix(1.0, 0.0, 0.0, 1.0, 26.85, 94.0)">
    <path d="M5.4 -66.65 L5.5 -64.45 5.6 -63.05 4.25 -62.5 3.15 -62.05 1.4 -61.55 1.15 -61.5 1.1 -61.5 0.05 -61.25 -0.05 -61.25 -2.45 -61.0 -5.2 -60.85 -5.3 -60.85 -5.2 -60.85 -2.45 -61.0 -0.05 -61.25 0.05 -61.25 1.1 -61.5 1.15 -61.5 1.4 -61.55 3.15 -62.05 4.25 -62.5 5.6 -63.05 5.5 -64.45 5.4 -66.65 5.8 -67.9 5.3 -68.05 5.4 -66.65 M5.3 -75.2 L5.4 -74.3 Q6.2 -69.75 9.65 -66.7 L8.75 -67.05 5.8 -67.9 8.75 -67.05 9.65 -66.7 Q6.2 -69.75 5.4 -74.3 L5.3 -75.2 M-2.55 -68.85 Q-6.4 -72.05 -4.6 -75.95 L-2.55 -73.25 -2.35 -73.05 Q-2.6 -71.1 -0.7 -70.7 L-0.2 -70.6 Q2.5 -69.1 5.3 -68.05 2.5 -69.1 -0.2 -70.6 L-0.7 -70.7 Q-2.6 -71.1 -2.35 -73.05 L-2.55 -73.25 -4.6 -75.95 Q-6.4 -72.05 -2.55 -68.85 M9.1 -30.35 L7.45 -33.35 6.95 -34.4 Q6.5 -35.75 7.1 -37.2 L7.7 -37.45 Q9.6 -38.25 11.4 -39.9 12.95 -42.05 13.15 -44.95 L13.3 -50.85 Q13.25 -53.75 10.95 -55.75 L10.75 -55.8 9.7 -56.05 9.15 -56.05 8.85 -55.95 8.55 -55.85 7.2 -55.3 6.2 -54.85 3.2 -53.6 2.55 -54.05 -1.15 -54.15 2.55 -54.05 3.2 -53.6 6.2 -54.85 7.2 -55.3 8.55 -55.85 8.85 -55.95 Q6.85 -56.9 6.0 -58.55 L5.6 -59.6 5.6 -63.05 5.6 -59.6 6.0 -58.55 Q6.85 -56.9 8.85 -55.95 L9.15 -56.05 9.7 -56.05 10.75 -55.8 10.95 -55.75 Q13.25 -53.75 13.3 -50.85 L13.15 -44.95 Q12.95 -42.05 11.4 -39.9 9.6 -38.25 7.7 -37.45 L7.1 -37.2 Q6.5 -35.75 6.95 -34.4 L7.45 -33.35 9.1 -30.35 Q10.2 -28.95 10.8 -24.5 L11.3 -21.75 Q11.65 -21.9 11.7 -18.8 L11.6 -14.0 11.25 -10.75 Q11.0 -8.8 9.25 -7.85 L8.4 -7.4 8.75 -6.0 8.95 -0.8 8.3 -1.2 Q7.95 -1.65 8.2 -2.55 L7.55 -2.0 Q7.05 -1.35 5.95 -0.85 L4.25 0.05 Q2.4 1.1 0.0 1.05 0.65 -0.3 1.65 -1.2 L2.85 -2.65 Q3.8 -4.25 3.95 -6.3 L2.15 -6.25 1.35 -6.25 -0.75 -6.6 -1.45 -6.75 -0.75 -6.6 1.35 -6.25 2.15 -6.25 2.3 -3.75 2.2 -3.05 Q2.1 -2.8 1.8 -2.75 1.05 -2.55 0.85 -3.05 L0.1 -3.1 Q-0.45 -2.75 -0.9 -2.65 L-1.9 -2.45 Q-5.1 -1.85 -8.3 -2.4 -8.0 -3.8 -6.65 -3.95 L-6.0 -4.05 Q-3.25 -4.6 -1.45 -6.75 L-2.2 -6.9 Q-3.55 -7.15 -4.15 -8.25 L-4.3 -8.8 Q-4.2 -10.3 -4.75 -11.5 L-4.7 -11.95 -4.85 -14.3 -5.75 -19.85 Q-6.35 -22.7 -6.55 -25.6 L-6.55 -26.2 -6.15 -31.85 Q-5.85 -34.7 -5.95 -37.5 -4.05 -36.6 -1.75 -36.5 1.2 -36.35 3.75 -36.5 L7.1 -37.2 3.75 -36.5 Q1.2 -36.35 -1.75 -36.5 -4.05 -36.6 -5.95 -37.5 L-7.15 -38.15 Q-7.75 -38.5 -7.45 -39.25 L-6.25 -40.1 -7.9 -41.9 -8.5 -43.0 -8.55 -43.25 -8.55 -43.3 Q-8.9 -45.25 -7.8 -47.05 L-6.4 -51.15 -6.15 -52.2 -5.0 -55.2 -6.15 -52.2 -6.4 -51.15 -7.8 -47.05 Q-8.9 -45.25 -8.55 -43.3 L-8.55 -43.25 Q-9.45 -42.15 -11.7 -41.55 -16.4 -40.3 -18.7 -36.15 -19.9 -35.5 -21.35 -35.0 L-22.15 -34.45 Q-22.85 -33.85 -23.7 -33.65 -25.85 -33.15 -26.85 -33.65 -25.95 -36.05 -24.45 -38.45 L-23.3 -39.7 -17.8 -43.2 Q-13.85 -45.5 -11.2 -48.3 L-5.0 -55.2 -5.0 -55.25 -3.85 -57.25 -2.95 -57.35 -3.85 -57.25 -5.0 -55.25 -5.0 -55.2 -5.0 -55.15 Q-5.8 -54.0 -4.5 -53.25 L-4.25 -54.15 -3.9 -55.0 -3.3 -56.3 -3.9 -55.0 -4.25 -54.15 -4.5 -53.25 -4.75 -50.7 Q-2.75 -50.55 -1.1 -51.55 L0.9 -52.6 3.2 -53.6 0.9 -52.6 -1.1 -51.55 Q-2.75 -50.55 -4.75 -50.7 L-4.5 -53.25 Q-5.8 -54.0 -5.0 -55.15 L-5.0 -55.2 -5.0 -55.25 Q-4.75 -58.05 -5.3 -60.85 L-5.5 -60.85 Q-6.45 -60.95 -7.1 -61.5 L-8.65 -63.05 -9.85 -64.45 Q-10.85 -65.75 -11.5 -67.25 L-13.5 -67.5 -13.2 -67.7 -11.9 -68.5 Q-12.4 -70.35 -12.25 -72.45 L-12.25 -72.5 Q-13.65 -71.3 -15.45 -70.9 -14.45 -71.9 -13.7 -73.4 L-12.6 -75.35 -11.8 -76.55 -12.6 -75.35 -12.65 -75.5 -12.0 -76.35 -13.5 -75.05 -15.2 -73.5 Q-16.3 -72.75 -17.7 -72.25 -16.55 -74.15 -17.35 -76.55 -18.55 -80.1 -17.5 -83.5 L-16.55 -85.8 -18.35 -83.75 -19.3 -84.05 Q-18.25 -87.45 -16.4 -90.4 -13.75 -94.6 -6.7 -92.9 L-5.2 -93.2 Q8.7 -96.3 12.25 -87.1 15.8 -77.95 14.0 -70.2 12.15 -62.5 14.75 -56.75 17.3 -51.05 16.05 -45.25 L12.6 -30.0 Q11.25 -31.65 10.8 -34.1 10.25 -32.95 10.1 -31.75 9.95 -30.7 9.1 -30.35 M-11.8 -76.55 L-12.0 -76.35 -11.8 -76.55 -11.15 -76.05 -11.8 -76.55 M-7.5 -80.6 Q-7.7 -79.35 -8.2 -78.25 L-8.85 -77.0 -10.05 -75.2 -11.75 -73.0 -11.8 -72.9 -12.25 -72.5 -11.8 -72.9 -11.75 -73.0 -10.05 -75.2 -8.85 -77.0 -8.2 -78.25 Q-7.7 -79.35 -7.5 -80.6 L-7.95 -81.6 -8.4 -82.55 -9.35 -83.85 -10.8 -85.1 -9.35 -83.85 -8.4 -82.55 -7.95 -81.6 -7.5 -80.6 -5.8 -77.6 -4.6 -75.95 -5.8 -77.6 -7.5 -80.6 M6.5 -51.25 Q7.25 -52.6 8.45 -53.6 L10.05 -54.7 Q10.95 -55.2 10.95 -55.75 10.95 -55.2 10.05 -54.7 L8.45 -53.6 Q7.25 -52.6 6.5 -51.25 M7.45 -50.45 L7.7 -49.55 Q7.7 -46.65 8.1 -43.9 8.15 -43.55 7.85 -43.4 L6.4 -43.1 Q3.5 -43.0 1.2 -41.4 0.25 -40.75 -0.4 -40.7 L-3.55 -41.1 -4.85 -41.0 -6.1 -40.15 -6.25 -40.1 -6.1 -40.15 -4.85 -41.0 -3.55 -41.1 -0.4 -40.7 Q0.25 -40.75 1.2 -41.4 3.5 -43.0 6.4 -43.1 L7.85 -43.4 Q8.15 -43.55 8.1 -43.9 7.7 -46.65 7.7 -49.55 L7.45 -50.45 M8.4 -7.4 Q6.55 -6.6 4.35 -6.35 L3.95 -6.3 4.35 -6.35 Q6.55 -6.6 8.4 -7.4 M-8.05 -67.2 L-9.25 -67.3 -11.5 -67.25 -9.25 -67.3 -8.05 -67.2 M-9.85 -74.1 Q-10.55 -73.65 -10.4 -72.25 -10.4 -71.5 -9.75 -71.2 -7.4 -70.45 -7.6 -74.1 -7.7 -76.45 -8.85 -77.0 -7.7 -76.45 -7.6 -74.1 -7.4 -70.45 -9.75 -71.2 -10.4 -71.5 -10.4 -72.25 -10.55 -73.65 -9.85 -74.1 M-0.2 -70.6 L-0.25 -70.65 -2.35 -73.05 -0.25 -70.65 -0.2 -70.6 M-2.3 -57.6 L-2.4 -60.4 -2.45 -61.0 -2.4 -60.4 -2.3 -57.6 -2.95 -57.35 -3.3 -56.3 Q-2.85 -56.55 -2.55 -57.05 L-2.3 -57.55 -2.3 -57.6 M-11.8 -72.9 L-11.45 -69.5 -11.8 -72.9 M-6.15 -65.6 L-8.0 -65.95 Q-6.55 -63.9 -2.15 -66.2 L-3.2 -65.9 -3.7 -65.75 -4.2 -65.7 -6.15 -65.6 -4.2 -65.7 -3.7 -65.75 -3.2 -65.9 -2.15 -66.2 Q-6.55 -63.9 -8.0 -65.95 L-6.15 -65.6 M-11.9 -68.5 L-8.1 -70.7 -11.9 -68.5" fill="#ffffff" fill-rule="evenodd" stroke="none"/>
    <path d="M5.8 -67.9 L8.75 -67.05 9.65 -66.7 Q6.2 -69.75 5.4 -74.3 L5.3 -75.2 M-5.3 -60.85 L-5.2 -60.85 -2.45 -61.0 -0.05 -61.25 0.05 -61.25 1.1 -61.5 1.15 -61.5 1.4 -61.55 3.15 -62.05 4.25 -62.5 5.6 -63.05 5.5 -64.45 5.4 -66.65 5.3 -68.05 Q2.5 -69.1 -0.2 -70.6 L-0.7 -70.7 Q-2.6 -71.1 -2.35 -73.05 L-2.55 -73.25 -4.6 -75.95 Q-6.4 -72.05 -2.55 -68.85 M5.3 -68.05 L5.8 -67.9 M-1.15 -54.15 L2.55 -54.05 3.2 -53.6 6.2 -54.85 7.2 -55.3 8.55 -55.85 8.85 -55.95 Q6.85 -56.9 6.0 -58.55 L5.6 -59.6 5.6 -63.05 M8.85 -55.95 L9.15 -56.05 9.7 -56.05 10.75 -55.8 10.95 -55.75 Q13.25 -53.75 13.3 -50.85 L13.15 -44.95 Q12.95 -42.05 11.4 -39.9 9.6 -38.25 7.7 -37.45 L7.1 -37.2 Q6.5 -35.75 6.95 -34.4 L7.45 -33.35 9.1 -30.35 Q9.95 -30.7 10.1 -31.75 10.25 -32.95 10.8 -34.1 11.25 -31.65 12.6 -30.0 L16.05 -45.25 Q17.3 -51.05 14.75 -56.75 12.15 -62.5 14.0 -70.2 15.8 -77.95 12.25 -87.1 8.7 -96.3 -5.2 -93.2 M-6.7 -92.9 Q-13.75 -94.6 -16.4 -90.4 -18.25 -87.45 -19.3 -84.05 L-19.75 -82.55 Q-19.45 -82.2 -18.8 -83.2 L-18.35 -83.75 -16.55 -85.8 -17.5 -83.5 Q-18.55 -80.1 -17.35 -76.55 -16.55 -74.15 -17.7 -72.25 -16.3 -72.75 -15.2 -73.5 L-13.5 -75.05 -12.0 -76.35 -11.8 -76.55 M-7.5 -80.6 L-7.95 -81.6 -8.4 -82.55 -9.35 -83.85 -10.8 -85.1 M-3.3 -56.3 L-3.9 -55.0 -4.25 -54.15 -4.5 -53.25 -4.75 -50.7 Q-2.75 -50.55 -1.1 -51.55 L0.9 -52.6 3.2 -53.6 M-6.25 -40.1 L-6.1 -40.15 -4.85 -41.0 -3.55 -41.1 -0.4 -40.7 Q0.25 -40.75 1.2 -41.4 3.5 -43.0 6.4 -43.1 L7.85 -43.4 Q8.15 -43.55 8.1 -43.9 7.7 -46.65 7.7 -49.55 L7.45 -50.45 M10.95 -55.75 Q10.95 -55.2 10.05 -54.7 L8.45 -53.6 Q7.25 -52.6 6.5 -51.25 M7.1 -37.2 L3.75 -36.5 Q1.2 -36.35 -1.75 -36.5 -4.05 -36.6 -5.95 -37.5 -5.85 -34.7 -6.15 -31.85 L-6.55 -26.2 -6.55 -25.6 Q-6.35 -22.7 -5.75 -19.85 L-4.85 -14.3 -4.7 -11.95 -4.75 -11.5 Q-4.2 -10.3 -4.3 -8.8 L-4.15 -8.25 Q-3.55 -7.15 -2.2 -6.9 L-1.45 -6.75 -0.75 -6.6 1.35 -6.25 2.15 -6.25 3.95 -6.3 4.35 -6.35 Q6.55 -6.6 8.4 -7.4 L9.25 -7.85 Q11.0 -8.8 11.25 -10.75 L11.6 -14.0 11.7 -18.8 Q11.65 -21.9 11.3 -21.75 L10.8 -24.5 Q10.2 -28.95 9.1 -30.35 M11.3 -21.75 L11.45 -22.8 M-1.45 -6.75 Q-3.25 -4.6 -6.0 -4.05 L-6.65 -3.95 Q-8.0 -3.8 -8.3 -2.4 -5.1 -1.85 -1.9 -2.45 L-0.9 -2.65 Q-0.45 -2.75 0.1 -3.1 L0.85 -3.05 Q1.05 -2.55 1.8 -2.75 2.1 -2.8 2.2 -3.05 L2.3 -3.75 2.15 -6.25 M3.95 -6.3 Q3.8 -4.25 2.85 -2.65 L1.65 -1.2 Q0.65 -0.3 0.0 1.05 2.4 1.1 4.25 0.05 L5.95 -0.85 Q7.05 -1.35 7.55 -2.0 L8.2 -2.55 Q7.95 -1.65 8.3 -1.2 L8.95 -0.8 8.75 -6.0 8.4 -7.4 M-15.2 -73.5 Q-14.3 -74.15 -13.6 -74.95 L-13.5 -75.05 M-12.6 -75.35 L-12.65 -75.5 -12.0 -76.35 M-7.5 -80.6 L-5.8 -77.6 -4.6 -75.95 M-2.35 -73.05 L-0.25 -70.65 -0.2 -70.6 M-8.85 -77.0 Q-7.7 -76.45 -7.6 -74.1 -7.4 -70.45 -9.75 -71.2 -10.4 -71.5 -10.4 -72.25 -10.55 -73.65 -9.85 -74.1 M-11.5 -67.25 L-9.25 -67.3 -8.05 -67.2 M-5.0 -55.25 Q-4.75 -58.05 -5.3 -60.85 L-5.5 -60.85 Q-6.45 -60.95 -7.1 -61.5 L-8.65 -63.05 -9.85 -64.45 Q-10.85 -65.75 -11.5 -67.25 L-13.5 -67.5 -13.2 -67.7 -11.9 -68.5 Q-12.4 -70.35 -12.25 -72.45 L-12.25 -72.5 M-6.15 -65.6 L-4.2 -65.7 -3.7 -65.75 -3.2 -65.9 -2.15 -66.2 Q-6.55 -63.9 -8.0 -65.95 L-6.15 -65.6 M-11.45 -69.5 L-11.8 -72.9 M-2.45 -61.0 L-2.4 -60.4 -2.3 -57.6 -2.3 -57.55 -2.55 -57.05 Q-2.85 -56.55 -3.3 -56.3 L-2.95 -57.35 -3.85 -57.25 -5.0 -55.25 -5.0 -55.2 -5.0 -55.15 Q-5.8 -54.0 -4.5 -53.25 M-2.95 -57.35 L-2.3 -57.6 M-5.0 -55.2 L-6.15 -52.2 -6.4 -51.15 -7.8 -47.05 Q-8.9 -45.25 -8.55 -43.3 L-8.55 -43.25 -8.5 -43.0 -7.9 -41.9 -6.25 -40.1 -7.45 -39.25 Q-7.75 -38.5 -7.15 -38.15 L-5.95 -37.5 M-5.0 -55.25 L-5.0 -55.2 -5.0 -55.25 M-8.1 -70.7 L-11.9 -68.5 M-5.0 -55.2 L-11.2 -48.3 Q-13.85 -45.5 -17.8 -43.2 L-23.3 -39.7 -24.45 -38.45 Q-25.95 -36.05 -26.85 -33.65 -25.85 -33.15 -23.7 -33.65 -22.85 -33.85 -22.15 -34.45 L-21.35 -35.0 Q-19.9 -35.5 -18.7 -36.15 -16.4 -40.3 -11.7 -41.55 -9.45 -42.15 -8.55 -43.25" fill="none" stroke="#000000" stroke-linecap="round" stroke-linejoin="round" stroke-width="0.05"/>
    <path d="M-11.8 -76.55 L-12.6 -75.35 -13.7 -73.4 Q-14.45 -71.9 -15.45 -70.9 -13.65 -71.3 -12.25 -72.5 L-11.8 -72.9 -11.75 -73.0 -10.05 -75.2 -8.85 -77.0 -8.2 -78.25 Q-7.7 -79.35 -7.5 -80.6" fill="none" stroke="#000000" stroke-linecap="round" stroke-linejoin="round" stroke-width="0.05"/>
  </g>
</svg>
