<svg xmlns:xlink="http://www.w3.org/1999/xlink" height="106.15px" width="42.1px" xmlns="http://www.w3.org/2000/svg">
  <g transform="matrix(1.0, 0.0, 0.0, 1.0, 21.45, 105.9)">
    <path d="M18.05 -100.4 L18.2 -100.35 Q17.4 -97.05 16.9 -93.6 L16.5 -92.2 16.05 -92.45 11.1 -83.6 11.55 -83.3 Q12.75 -80.3 13.15 -77.2 L13.15 -76.6 13.6 -75.1 13.15 -75.1 13.15 -69.85 13.6 -69.85 Q13.45 -66.3 13.85 -64.45 L14.4 -63.9 Q16.0 -62.1 16.0 -59.85 16.0 -57.3 13.85 -55.3 L13.4 -53.65 Q15.95 -52.3 16.85 -51.05 L16.35 -50.55 Q17.5 -49.5 18.0 -48.5 18.5 -47.4 18.5 -45.9 18.5 -44.65 18.0 -43.55 L16.35 -41.25 16.85 -40.7 Q13.75 -38.85 13.9 -35.8 L13.1 -35.8 13.1 -34.6 14.05 -34.6 14.05 -33.1 13.1 -33.1 13.1 -27.85 14.65 -22.1 14.55 -22.1 14.75 -21.35 Q15.9 -17.4 18.45 -16.15 16.45 -16.0 14.65 -14.95 L15.5 -14.1 15.1 -12.7 14.5 -10.85 14.05 -9.0 13.75 -7.85 12.65 -7.85 12.65 -2.25 Q12.65 -1.55 12.25 -1.15 11.75 -0.65 10.75 -0.65 9.75 -0.65 9.25 -1.15 8.8 -1.55 8.8 -2.25 L8.8 -7.85 7.75 -7.85 7.65 -7.85 Q6.7 -11.6 3.15 -12.05 L5.55 -12.05 5.55 -12.55 -6.4 -12.55 -6.4 -12.05 2.85 -12.05 Q1.9 -11.95 1.45 -10.85 1.1 -9.9 0.45 -9.25 L0.4 -9.3 -0.9 -9.3 -1.5 -8.1 -3.6 -7.5 -3.6 -7.85 -4.7 -7.85 -4.7 -2.25 Q-4.7 -1.55 -5.1 -1.15 -5.6 -0.65 -6.6 -0.65 -7.6 -0.65 -8.1 -1.15 -8.55 -1.55 -8.55 -2.25 L-8.55 -7.85 -9.6 -7.85 Q-11.1 -10.55 -11.2 -13.35 L-10.7 -14.0 -20.85 -22.45 -20.9 -22.5 -21.45 -21.9 -21.4 -22.4 -21.4 -22.7 -21.3 -24.0 -21.15 -26.1 -21.1 -26.05 -20.15 -26.05 -20.15 -37.95 -21.1 -40.05 -20.15 -40.05 -20.15 -51.95 -20.3 -51.95 -20.15 -54.05 -20.15 -65.95 -21.1 -65.95 -19.0 -70.0 -18.45 -69.35 -8.25 -77.9 -8.75 -78.5 -5.55 -84.0 -5.0 -83.35 5.2 -91.9 4.7 -92.5 Q7.65 -94.75 8.5 -98.35 L9.1 -100.9 Q9.3 -99.8 10.15 -98.95 11.35 -97.75 13.35 -97.75 L16.05 -98.05 Q16.75 -98.25 17.3 -98.6 L17.05 -99.0 Q16.45 -98.7 15.85 -98.55 L13.35 -98.25 Q11.6 -98.25 10.5 -99.35 9.55 -100.3 9.55 -101.8 9.55 -102.75 10.05 -103.5 L10.6 -104.2 Q11.85 -105.45 14.2 -105.45 15.85 -105.45 16.9 -104.75 L17.4 -104.35 Q18.3 -103.45 18.3 -102.5 18.3 -101.4 17.7 -100.8 17.15 -100.25 16.15 -100.25 L15.75 -100.35 15.65 -100.65 15.75 -101.25 16.85 -104.2 15.75 -104.2 15.5 -103.4 15.4 -103.45 Q15.1 -104.2 14.25 -104.25 L14.1 -104.25 12.9 -104.0 12.05 -103.4 Q11.15 -102.5 11.15 -101.45 11.15 -100.55 11.6 -100.1 12.05 -99.6 12.85 -99.6 13.7 -99.6 14.35 -100.25 L14.7 -100.55 Q14.65 -100.15 14.95 -99.85 15.15 -99.6 15.8 -99.6 17.25 -99.6 18.05 -100.4 M14.1 -103.5 Q14.85 -103.5 15.05 -102.65 L15.05 -102.3 14.9 -101.75 14.25 -101.0 Q13.75 -100.45 13.15 -100.45 12.7 -100.45 12.45 -100.7 12.2 -100.95 12.2 -101.45 12.2 -102.25 12.85 -102.9 13.5 -103.5 14.1 -103.5 M10.0 -23.8 L9.75 -23.15 9.1 -22.65 Q8.7 -22.65 8.05 -23.25 7.5 -23.8 7.0 -23.8 L6.2 -23.3 5.7 -22.3 6.15 -21.75 6.45 -22.4 7.05 -22.85 Q7.4 -22.85 7.95 -22.3 8.65 -21.6 9.0 -21.6 9.55 -21.6 9.9 -22.2 L10.5 -23.15 10.0 -23.8 M11.7 -12.55 L12.35 -13.85 12.35 -14.85 11.25 -14.85 11.25 -13.85 11.7 -13.85 11.25 -12.55 11.7 -12.55 M10.1 -33.3 L9.55 -32.55 Q8.95 -31.9 8.3 -31.9 7.45 -31.9 6.2 -32.65 5.05 -33.35 4.1 -33.35 3.2 -33.35 2.5 -32.7 L1.45 -31.4 2.45 -30.8 2.95 -31.6 Q3.4 -32.1 4.2 -32.1 L5.95 -31.45 Q7.4 -30.6 8.2 -30.6 9.2 -30.6 9.95 -31.3 L11.05 -32.55 10.1 -33.3 M11.35 -46.55 L10.4 -47.3 9.85 -46.55 Q9.25 -45.9 8.6 -45.9 7.75 -45.9 6.5 -46.65 5.35 -47.35 4.4 -47.35 3.5 -47.35 2.8 -46.7 L1.75 -45.4 2.75 -44.8 3.25 -45.6 Q3.7 -46.1 4.5 -46.1 5.2 -46.1 6.25 -45.45 7.7 -44.6 8.5 -44.6 9.5 -44.6 10.25 -45.3 L11.35 -46.55 M14.5 -51.95 L13.55 -51.95 13.55 -40.05 14.5 -40.05 14.5 -51.95 M3.65 -64.05 L6.95 -64.05 6.95 -56.7 2.4 -56.7 Q3.65 -58.6 3.65 -61.7 L3.65 -64.05 M7.9 -64.95 L2.75 -64.95 2.75 -61.7 Q2.75 -58.65 1.35 -56.7 L0.55 -56.7 0.55 -54.1 1.45 -54.1 1.45 -55.8 8.05 -55.8 8.05 -54.1 8.95 -54.1 8.95 -56.7 7.9 -56.7 7.9 -64.95 M12.1 -65.35 L12.65 -65.15 12.8 -64.65 12.65 -64.15 12.1 -63.95 Q11.8 -63.95 11.6 -64.15 L11.4 -64.65 11.6 -65.15 Q11.8 -65.35 12.1 -65.35 M12.1 -65.75 Q11.7 -65.75 11.35 -65.4 L11.05 -64.65 Q11.05 -64.25 11.35 -63.9 11.7 -63.55 12.1 -63.55 12.55 -63.55 12.85 -63.9 L13.2 -64.65 12.85 -65.4 Q12.55 -65.75 12.1 -65.75 M4.15 -75.35 Q3.25 -75.35 2.55 -74.7 L1.5 -73.4 2.5 -72.8 3.0 -73.6 Q3.45 -74.1 4.25 -74.1 L6.0 -73.45 Q7.45 -72.6 8.25 -72.6 9.25 -72.6 10.0 -73.3 L11.1 -74.55 10.15 -75.3 9.6 -74.55 Q9.0 -73.9 8.35 -73.9 7.5 -73.9 6.25 -74.65 5.1 -75.35 4.15 -75.35 M10.75 -93.15 L10.25 -93.8 10.0 -93.15 9.35 -92.65 8.3 -93.25 Q7.75 -93.8 7.25 -93.8 6.8 -93.8 6.45 -93.3 L5.95 -92.3 6.4 -91.75 6.7 -92.4 Q6.9 -92.85 7.3 -92.85 7.65 -92.85 8.2 -92.3 L9.25 -91.6 Q9.8 -91.6 10.15 -92.2 L10.75 -93.15 M-6.45 -12.55 L-6.45 -13.1 -10.05 -13.1 -10.05 -12.55 -6.45 -12.55 M-8.1 -49.8 L-9.1 -50.3 Q-10.0 -44.85 -12.75 -42.6 L-12.0 -41.6 Q-9.05 -44.25 -8.1 -49.55 -7.75 -49.6 -8.1 -49.8 M-14.25 -50.55 L-14.75 -51.05 -16.5 -48.8 Q-17.1 -47.55 -17.1 -45.9 -17.1 -44.45 -16.5 -43.2 -15.9 -42.05 -14.75 -40.7 L-14.25 -41.25 Q-15.4 -42.5 -15.85 -43.55 -16.4 -44.65 -16.4 -45.9 -16.4 -47.4 -15.85 -48.5 -15.4 -49.5 -14.25 -50.55 M-3.15 -65.15 L-2.65 -65.35 -2.1 -65.15 Q-1.95 -65.0 -1.95 -64.65 -1.95 -64.3 -2.1 -64.15 -2.3 -63.95 -2.65 -63.95 L-3.15 -64.15 Q-3.35 -64.3 -3.35 -64.65 L-3.15 -65.15 M-2.65 -65.75 L-3.4 -65.4 -3.7 -64.65 -3.4 -63.9 Q-3.05 -63.55 -2.65 -63.55 -2.2 -63.55 -1.9 -63.9 -1.55 -64.25 -1.55 -64.65 -1.55 -65.05 -1.9 -65.4 -2.2 -65.75 -2.65 -65.75 M-8.0 -64.45 L-8.55 -65.0 Q-10.9 -62.8 -10.9 -59.85 -10.9 -56.95 -8.55 -54.75 L-8.0 -55.3 Q-10.15 -57.3 -10.15 -59.85 -10.15 -62.45 -8.0 -64.45" fill="#ffffff" fill-rule="evenodd" stroke="none"/>
    <path d="M9.1 -100.9 L9.1 -100.95 9.0 -101.8 Q9.0 -102.65 9.4 -103.4 L10.25 -104.55 Q11.6 -105.9 14.2 -105.9 16.3 -105.9 17.55 -104.9 L17.8 -104.7 Q18.8 -103.65 18.8 -102.5 18.8 -101.4 18.3 -100.7 L18.05 -100.4 Q17.25 -99.6 15.8 -99.6 15.15 -99.6 14.95 -99.85 14.65 -100.15 14.7 -100.55 L14.35 -100.25 Q13.7 -99.6 12.85 -99.6 12.05 -99.6 11.6 -100.1 11.15 -100.55 11.15 -101.45 11.15 -102.5 12.05 -103.4 L12.9 -104.0 14.1 -104.25 14.25 -104.25 Q15.1 -104.2 15.4 -103.45 L15.45 -103.3 15.5 -103.4 15.75 -104.2 16.85 -104.2 15.75 -101.25 15.65 -100.65 15.75 -100.35 16.15 -100.25 Q17.15 -100.25 17.7 -100.8 18.3 -101.4 18.3 -102.5 18.3 -103.45 17.4 -104.35 L16.9 -104.75 Q15.85 -105.45 14.2 -105.45 11.85 -105.45 10.6 -104.2 L10.05 -103.5 Q9.55 -102.75 9.55 -101.8 9.55 -100.3 10.5 -99.35 11.6 -98.25 13.35 -98.25 L15.85 -98.55 Q16.45 -98.7 17.05 -99.0 L17.3 -98.6 Q16.75 -98.25 16.05 -98.05 L13.35 -97.75 Q11.35 -97.75 10.15 -98.95 9.3 -99.8 9.1 -100.9 M16.5 -92.2 L11.55 -83.3 11.1 -83.6 16.05 -92.45 16.5 -92.2 M13.15 -77.2 L13.15 -77.8 14.1 -77.8 14.1 -76.6 13.15 -76.6 13.15 -77.2 M13.6 -75.1 L14.1 -75.1 14.1 -69.85 13.6 -69.85 13.15 -69.85 13.15 -75.1 13.6 -75.1 M13.85 -64.45 L14.35 -65.0 Q16.7 -62.8 16.7 -59.85 16.7 -56.95 14.35 -54.75 L13.85 -55.3 Q16.0 -57.3 16.0 -59.85 16.0 -62.1 14.4 -63.9 L13.85 -64.45 M16.85 -51.05 L18.6 -48.8 Q19.2 -47.55 19.2 -45.9 19.2 -44.45 18.6 -43.2 L16.85 -40.7 16.35 -41.25 18.0 -43.55 Q18.5 -44.65 18.5 -45.9 18.5 -47.4 18.0 -48.5 17.5 -49.5 16.35 -50.55 L16.85 -51.05 M13.9 -35.8 L14.05 -35.8 14.05 -34.6 13.1 -34.6 13.1 -35.8 13.9 -35.8 M14.05 -33.1 L14.05 -27.85 13.1 -27.85 13.1 -33.1 14.05 -33.1 M14.65 -22.1 L15.65 -22.3 Q16.2 -22.4 15.8 -22.05 16.55 -17.75 20.65 -16.4 L19.95 -15.15 Q17.6 -15.2 15.5 -14.1 L14.65 -14.95 Q16.45 -16.0 18.45 -16.15 15.9 -17.4 14.75 -21.35 L14.55 -22.1 14.65 -22.1 M13.75 -7.85 L13.75 -2.2 Q13.75 -1.15 13.1 -0.5 12.35 0.25 10.75 0.25 9.15 0.25 8.4 -0.5 7.75 -1.15 7.75 -2.2 L7.75 -7.85 8.8 -7.85 8.8 -2.25 Q8.8 -1.55 9.25 -1.15 9.75 -0.65 10.75 -0.65 11.75 -0.65 12.25 -1.15 12.65 -1.55 12.65 -2.25 L12.65 -7.85 13.75 -7.85 M3.15 -12.05 L2.85 -12.05 -6.4 -12.05 -6.4 -12.55 5.55 -12.55 5.55 -12.05 3.15 -12.05 M0.4 -9.3 L-1.25 -6.95 -2.1 -6.95 -1.5 -8.1 -0.9 -9.3 0.4 -9.3 M-3.6 -7.5 L-3.6 -2.2 Q-3.6 -1.15 -4.25 -0.5 -5.0 0.25 -6.6 0.25 -8.2 0.25 -8.95 -0.5 -9.6 -1.15 -9.6 -2.2 L-9.6 -7.85 -8.55 -7.85 -8.55 -2.25 Q-8.55 -1.55 -8.1 -1.15 -7.6 -0.65 -6.6 -0.65 -5.6 -0.65 -5.1 -1.15 -4.7 -1.55 -4.7 -2.25 L-4.7 -7.85 -3.6 -7.85 -3.6 -7.5 M-11.2 -13.35 L-21.45 -21.9 -20.9 -22.5 -20.85 -22.45 -10.7 -14.0 -11.2 -13.35 M-21.1 -26.05 L-21.1 -37.95 -20.15 -37.95 -20.15 -26.05 -21.1 -26.05 M-21.1 -40.05 L-21.1 -51.95 -20.3 -51.95 -20.15 -51.95 -20.15 -40.05 -21.1 -40.05 M-20.15 -54.05 L-21.1 -54.05 -21.1 -65.95 -20.15 -65.95 -20.15 -54.05 M-19.0 -70.0 L-8.75 -78.5 -8.25 -77.9 -18.45 -69.35 -19.0 -70.0 M-5.55 -84.0 L-1.2 -87.55 -1.2 -87.6 4.7 -92.5 5.2 -91.9 -5.0 -83.35 -5.55 -84.0 M14.1 -103.5 Q13.5 -103.5 12.85 -102.9 12.2 -102.25 12.2 -101.45 12.2 -100.95 12.45 -100.7 12.7 -100.45 13.15 -100.45 13.75 -100.45 14.25 -101.0 L14.9 -101.75 15.05 -102.3 15.05 -102.65 Q14.85 -103.5 14.1 -103.5 M10.75 -93.15 L10.15 -92.2 Q9.8 -91.6 9.25 -91.6 L8.2 -92.3 Q7.65 -92.85 7.3 -92.85 6.9 -92.85 6.7 -92.4 L6.4 -91.75 5.95 -92.3 6.45 -93.3 Q6.8 -93.8 7.25 -93.8 7.75 -93.8 8.3 -93.25 L9.35 -92.65 10.0 -93.15 10.25 -93.8 10.75 -93.15 M4.15 -75.35 Q5.1 -75.35 6.25 -74.65 7.5 -73.9 8.35 -73.9 9.0 -73.9 9.6 -74.55 L10.15 -75.3 11.1 -74.55 10.0 -73.3 Q9.25 -72.6 8.25 -72.6 7.45 -72.6 6.0 -73.45 L4.25 -74.1 Q3.45 -74.1 3.0 -73.6 L2.5 -72.8 1.5 -73.4 2.55 -74.7 Q3.25 -75.35 4.15 -75.35 M12.1 -65.75 Q12.55 -65.75 12.85 -65.4 L13.2 -64.65 12.85 -63.9 Q12.55 -63.55 12.1 -63.55 11.7 -63.55 11.35 -63.9 11.05 -64.25 11.05 -64.65 L11.35 -65.4 Q11.7 -65.75 12.1 -65.75 M12.1 -65.35 Q11.8 -65.35 11.6 -65.15 L11.4 -64.65 11.6 -64.15 Q11.8 -63.95 12.1 -63.95 L12.65 -64.15 12.8 -64.65 12.65 -65.15 12.1 -65.35 M7.9 -64.95 L7.9 -56.7 8.95 -56.7 8.95 -54.1 8.05 -54.1 8.05 -55.8 1.45 -55.8 1.45 -54.1 0.55 -54.1 0.55 -56.7 1.35 -56.7 Q2.75 -58.65 2.75 -61.7 L2.75 -64.95 7.9 -64.95 M3.65 -64.05 L3.65 -61.7 Q3.65 -58.6 2.4 -56.7 L6.95 -56.7 6.95 -64.05 3.65 -64.05 M14.5 -51.95 L14.5 -40.05 13.55 -40.05 13.55 -51.95 14.5 -51.95 M11.35 -46.55 L10.25 -45.3 Q9.5 -44.6 8.5 -44.6 7.7 -44.6 6.25 -45.45 5.2 -46.1 4.5 -46.1 3.7 -46.1 3.25 -45.6 L2.75 -44.8 1.75 -45.4 2.8 -46.7 Q3.5 -47.35 4.4 -47.35 5.35 -47.35 6.5 -46.65 7.75 -45.9 8.6 -45.9 9.25 -45.9 9.85 -46.55 L10.4 -47.3 11.35 -46.55 M10.1 -33.3 L11.05 -32.55 9.95 -31.3 Q9.2 -30.6 8.2 -30.6 7.4 -30.6 5.95 -31.45 L4.2 -32.1 Q3.4 -32.1 2.95 -31.6 L2.45 -30.8 1.45 -31.4 2.5 -32.7 Q3.2 -33.35 4.1 -33.35 5.05 -33.35 6.2 -32.65 7.45 -31.9 8.3 -31.9 8.95 -31.9 9.55 -32.55 L10.1 -33.3 M11.7 -12.55 L11.25 -12.55 11.7 -13.85 11.25 -13.85 11.25 -14.85 12.35 -14.85 12.35 -13.85 11.7 -12.55 M10.0 -23.8 L10.5 -23.15 9.9 -22.2 Q9.55 -21.6 9.0 -21.6 8.65 -21.6 7.95 -22.3 7.4 -22.85 7.05 -22.85 L6.45 -22.4 6.15 -21.75 5.7 -22.3 6.2 -23.3 7.0 -23.8 Q7.5 -23.8 8.05 -23.25 8.7 -22.65 9.1 -22.65 L9.75 -23.15 10.0 -23.8 M1.0 -6.95 L0.15 -6.95 1.35 -9.3 2.65 -9.3 1.0 -6.95 M-8.0 -64.45 Q-10.15 -62.45 -10.15 -59.85 -10.15 -57.3 -8.0 -55.3 L-8.55 -54.75 Q-10.9 -56.95 -10.9 -59.85 -10.9 -62.8 -8.55 -65.0 L-8.0 -64.45 M-2.65 -65.75 Q-2.2 -65.75 -1.9 -65.4 -1.55 -65.05 -1.55 -64.65 -1.55 -64.25 -1.9 -63.9 -2.2 -63.55 -2.65 -63.55 -3.05 -63.55 -3.4 -63.9 L-3.7 -64.65 -3.4 -65.4 -2.65 -65.75 M-3.15 -65.15 L-3.35 -64.65 Q-3.35 -64.3 -3.15 -64.15 L-2.65 -63.95 Q-2.3 -63.95 -2.1 -64.15 -1.95 -64.3 -1.95 -64.65 -1.95 -65.0 -2.1 -65.15 L-2.65 -65.35 -3.15 -65.15 M-14.25 -50.55 Q-15.4 -49.5 -15.85 -48.5 -16.4 -47.4 -16.4 -45.9 -16.4 -44.65 -15.85 -43.55 -15.4 -42.5 -14.25 -41.25 L-14.75 -40.7 Q-15.9 -42.05 -16.5 -43.2 -17.1 -44.45 -17.1 -45.9 -17.1 -47.55 -16.5 -48.8 L-14.75 -51.05 -14.25 -50.55 M-8.1 -49.8 Q-7.75 -49.6 -8.1 -49.55 -9.05 -44.25 -12.0 -41.6 L-12.75 -42.6 Q-10.0 -44.85 -9.1 -50.3 L-8.1 -49.8 M-6.45 -12.55 L-10.05 -12.55 -10.05 -13.1 -6.45 -13.1 -6.45 -12.55" fill="#000000" fill-rule="evenodd" stroke="none"/>
  </g>
</svg>
