<svg xmlns:xlink="http://www.w3.org/1999/xlink" height="25.6px" width="62.75px" xmlns="http://www.w3.org/2000/svg">
  <g transform="matrix(1.0, 0.0, 0.0, 1.0, 31.4, 12.8)">
    <path d="M-26.95 9.7 L-27.5 10.2 -27.85 9.8 Q-29.55 7.85 -30.4 6.05 -31.4 3.95 -31.4 1.5 -31.4 -1.2 -30.4 -3.3 -29.55 -5.1 -27.5 -7.0 L-27.35 -6.85 -26.65 -6.2 Q-28.6 -4.4 -29.35 -2.8 -30.25 -1.0 -30.25 1.5 -30.25 3.65 -29.35 5.5 -28.6 7.2 -26.65 9.35 L-26.95 9.7 M27.05 -6.65 L27.4 -7.0 Q29.45 -5.1 30.3 -3.3 31.35 -1.2 31.35 1.5 31.35 3.95 30.3 6.05 29.4 8.0 27.4 10.2 L26.85 9.65 26.55 9.35 Q28.5 7.2 29.3 5.5 30.15 3.65 30.15 1.5 30.15 -1.0 29.3 -2.8 28.5 -4.4 26.55 -6.2 L27.05 -6.65 M-10.0 -7.4 L-7.2 -7.4 -11.15 -3.95 -12.95 -3.95 -10.0 -7.4 M-19.15 -0.6 L-19.15 1.15 -20.95 1.15 -20.95 -0.6 -19.15 -0.6 M-19.15 8.25 L-20.1 10.35 -20.95 10.35 -20.15 8.25 -20.95 8.25 -20.95 6.5 -19.15 6.5 -19.15 8.25 M3.2 -1.45 Q3.2 3.7 1.1 6.9 L8.65 6.9 8.65 -5.35 3.2 -5.35 3.2 -1.45 M1.65 -6.85 L10.25 -6.85 10.25 6.9 12.05 6.9 12.05 11.2 10.45 11.2 10.45 8.4 -0.45 8.4 -0.45 11.2 -2.05 11.2 -2.05 6.9 -0.7 6.9 Q1.65 3.65 1.65 -1.45 L1.65 -6.85 M16.7 -7.4 L19.55 -7.4 22.4 -3.95 20.65 -3.95 16.7 -7.4" fill="#000000" fill-rule="evenodd" stroke="none"/>
    <path d="M-27.35 -6.85 Q-18.15 -11.8 1.75 -12.8 19.25 -12.65 27.05 -6.65 L26.55 -6.2 Q28.5 -4.4 29.3 -2.8 30.15 -1.0 30.15 1.5 30.15 3.65 29.3 5.5 28.5 7.2 26.55 9.35 L26.85 9.65 Q14.95 12.8 3.05 12.8 -17.35 12.15 -26.95 9.7 L-26.65 9.35 Q-28.6 7.2 -29.35 5.5 -30.25 3.65 -30.25 1.5 -30.25 -1.0 -29.35 -2.8 -28.6 -4.4 -26.65 -6.2 L-27.35 -6.85 M16.7 -7.4 L20.65 -3.95 22.4 -3.95 19.55 -7.4 16.7 -7.4 M1.65 -6.85 L1.65 -1.45 Q1.65 3.65 -0.7 6.9 L-2.05 6.9 -2.05 11.2 -0.45 11.2 -0.45 8.4 10.45 8.4 10.45 11.2 12.05 11.2 12.05 6.9 10.25 6.9 10.25 -6.85 1.65 -6.85 M3.2 -1.45 L3.2 -5.35 8.65 -5.35 8.65 6.9 1.1 6.9 Q3.2 3.7 3.2 -1.45 M-19.15 8.25 L-19.15 6.5 -20.95 6.5 -20.95 8.25 -20.15 8.25 -20.95 10.35 -20.1 10.35 -19.15 8.25 M-19.15 -0.6 L-20.95 -0.6 -20.95 1.15 -19.15 1.15 -19.15 -0.6 M-10.0 -7.4 L-12.95 -3.95 -11.15 -3.95 -7.2 -7.4 -10.0 -7.4" fill="#ffffff" fill-rule="evenodd" stroke="none"/>
  </g>
</svg>
