<?xml version="1.0" encoding="UTF-8" standalone="no"?>
<!DOCTYPE svg PUBLIC "-//W3C//DTD SVG 1.1//EN" "http://www.w3.org/Graphics/SVG/1.1/DTD/svg11.dtd">
<svg width="56px" height="87px" version="1.1" xmlns="http://www.w3.org/2000/svg" xmlns:xlink="http://www.w3.org/1999/xlink" xml:space="preserve" xmlns:serif="http://www.serif.com/" style="fill-rule:evenodd;clip-rule:evenodd;stroke-linejoin:round;stroke-miterlimit:2;">
    <g transform="matrix(0.612368,0,0,0.612368,-39.3605,-46.9331)">
        <path d="M68.946,108.246C74.949,96.687 90.065,87.623 107.745,87.623C126.568,87.623 143.204,98.66 148.664,109.784C152.397,115.346 150.159,121.719 145.399,127.898C144.226,130.378 144.244,132.709 145.399,134.898C151.744,141.783 152.474,149.151 145.789,156.271C144.692,157.617 143.283,159.565 141.021,162.074L140.854,187.832C144.451,189.569 147.669,191.278 149.809,194.471C155.934,199.958 156.124,207.601 149.493,215.426C148.48,216.407 146.994,216.701 144.899,216.84L119.403,216.75C116.359,216.422 113.131,215.523 111.787,213.519C110.454,215.243 109.951,216.742 106.218,217.02L82.564,216.461C82.564,216.461 77.517,216.177 75.441,215.931C73.806,215.738 71.443,216.216 70.109,214.986C64.082,206.696 64.78,200.455 70.374,194.514C72.428,191.786 73.472,188.93 73.198,187.074L73.109,160.417L70.109,156.162C63.08,148.298 64.573,140.498 71.078,135.426C72.919,133.093 72.728,130.76 71.078,128.426C65.472,121.31 63.664,114.421 68.946,108.246Z" style="fill:white;" />
    </g>
    <path d="M50.425,85.514L50.425,86.214L34.475,86.214L34.475,85.514L50.425,85.514ZM26.425,86.214L10.475,86.214L10.475,85.514L26.425,85.514L26.425,86.214ZM10.375,85.564L5.575,85.564L5.575,84.814L10.375,84.814L10.375,85.564ZM52.075,71.914L52.425,71.564C53.492,72.564 54.258,73.548 54.725,74.514C55.258,75.648 55.525,76.948 55.525,78.414L55.525,78.614C55.492,79.814 55.225,80.948 54.725,82.014L53.625,83.914L52.425,85.314L51.725,84.664L52.925,83.264L53.925,81.564C54.392,80.598 54.625,79.581 54.625,78.514L54.625,78.414C54.625,77.081 54.392,75.931 53.925,74.964L52.375,72.864L51.725,72.214L52.075,71.914ZM3.575,85.314L3.075,84.714C2.275,83.781 1.675,82.881 1.275,82.014C0.775,80.948 0.508,79.848 0.475,78.714L0.475,78.414C0.475,76.948 0.742,75.648 1.275,74.514L2.625,72.564L3.575,71.564L4.275,72.214L2.775,73.914L2.075,74.964C1.675,75.764 1.458,76.698 1.425,77.764L1.375,78.414C1.375,79.514 1.608,80.564 2.075,81.564C2.508,82.498 3.242,83.531 4.275,84.664L3.575,85.314ZM28.425,71.564C29.492,72.564 30.258,73.548 30.725,74.514C31.258,75.648 31.525,76.948 31.525,78.414C31.525,79.681 31.258,80.881 30.725,82.014L29.975,83.364L28.425,85.314L27.725,84.664L28.925,83.264L29.925,81.564C30.392,80.564 30.625,79.514 30.625,78.414C30.625,77.081 30.392,75.931 29.925,74.964L27.725,72.214L28.425,71.564ZM47.625,52.314L47.625,68.214L46.375,68.214L46.375,52.314L47.625,52.314ZM4.975,68.214L4.975,52.264L6.225,52.264L6.225,68.214L4.975,68.214ZM27.125,52.264L27.125,68.214L25.875,68.214L25.875,52.264L27.125,52.264ZM49.425,36.214L50.125,35.564C51.192,36.564 51.958,37.548 52.425,38.514L52.675,39.114C53.042,40.114 53.225,41.214 53.225,42.414C53.225,43.681 52.958,44.881 52.425,46.014L52.325,46.214C51.825,47.181 51.092,48.214 50.125,49.314L49.425,48.664C50.458,47.531 51.192,46.498 51.625,45.564C52.092,44.564 52.325,43.514 52.325,42.414C52.325,41.081 52.092,39.931 51.625,38.964C51.192,38.098 50.458,37.181 49.425,36.214ZM3.575,49.314L3.075,48.714C2.275,47.748 1.675,46.848 1.275,46.014C0.742,44.881 0.475,43.681 0.475,42.414C0.475,40.948 0.742,39.648 1.275,38.514C1.742,37.548 2.508,36.564 3.575,35.564L4.275,36.214L2.075,38.964C1.608,39.931 1.375,41.081 1.375,42.414C1.375,43.514 1.608,44.564 2.075,45.564C2.508,46.498 3.242,47.531 4.275,48.664L3.575,49.314ZM50.375,17.764C51.342,18.698 52.042,19.614 52.475,20.514L52.525,20.564C53.025,21.664 53.275,22.948 53.275,24.414C53.275,25.248 53.158,26.048 52.925,26.814L52.475,28.014C51.975,29.048 51.208,30.148 50.175,31.314L49.475,30.664C50.508,29.531 51.242,28.498 51.675,27.564C52.142,26.598 52.375,25.581 52.375,24.514L52.375,24.414C52.375,23.081 52.142,21.931 51.675,20.964C51.242,20.098 50.508,19.181 49.475,18.214L50.175,17.564L50.375,17.764ZM3.575,31.314C2.542,30.148 1.775,29.048 1.275,28.014C0.742,26.881 0.475,25.681 0.475,24.414C0.475,22.948 0.742,21.648 1.275,20.514L1.925,19.464L3.575,17.564L4.275,18.214L2.075,20.964L1.825,21.614C1.525,22.414 1.375,23.348 1.375,24.414L1.525,25.914L2.075,27.564C2.508,28.498 3.242,29.531 4.275,30.664L3.575,31.314ZM34.982,22.289L28.732,22.289L27.282,19.739L26.082,20.439L31.832,30.839L37.582,20.439L36.382,19.739L34.982,22.289ZM29.332,23.589L34.332,23.589L31.832,28.039L29.332,23.589ZM44.332,20.789L41.232,18.039L43.482,18.039L45.782,20.789L44.332,20.789ZM22.082,18.039L18.882,20.789L17.482,20.789L19.832,18.039L22.082,18.039ZM5.259,13.876L2.985,14.226L2.577,12.594L5.142,12.186C9.146,11.331 12.022,9.892 13.771,7.871L14.938,9.037C15.326,9.426 15.248,9.581 14.704,9.504C12.644,11.641 9.496,13.099 5.259,13.876ZM47.29,10.378C49.544,10.961 51.449,11.622 53.004,12.361L52.187,13.935C50.632,13.08 49.019,12.399 47.348,11.894L44.433,11.136L44.899,9.795L47.29,10.378ZM38.187,13.208L23.05,13.208L23.05,11.638L38.187,11.638L38.187,13.208ZM4.967,9.62L3.86,9.795L3.451,8.279L4.851,7.988C7.999,7.21 10.584,5.928 12.605,4.14L13.597,5.189C13.869,5.617 13.771,5.772 13.305,5.656C10.74,7.599 7.96,8.921 4.967,9.62ZM48.514,5.481L51.954,6.53L51.429,7.988L47.29,6.647L44.899,6.18L45.191,4.781L48.514,5.481ZM35.944,7.49L25.293,7.49L25.293,5.976L35.944,5.976L35.944,7.49ZM4.676,5.539L3.043,5.83L2.635,4.256L4.559,3.906C7.202,3.207 9.671,1.905 11.964,0L12.955,1.166C13.227,1.477 13.072,1.633 12.489,1.633C9.962,3.576 7.358,4.878 4.676,5.539ZM48.631,0.583L52.42,1.633L51.896,3.09L48.106,1.982L45.074,1.399L45.424,0L48.631,0.583ZM36.953,2.164L24.396,2.164L24.396,0.651L36.953,0.651L36.953,2.164Z"/>
</svg>
