<?xml version="1.0" encoding="UTF-8" standalone="no"?>
<!DOCTYPE svg PUBLIC "-//W3C//DTD SVG 1.1//EN" "http://www.w3.org/Graphics/SVG/1.1/DTD/svg11.dtd">
<svg width="48px" height="75px" version="1.1" xmlns="http://www.w3.org/2000/svg" xmlns:xlink="http://www.w3.org/1999/xlink" xml:space="preserve" xmlns:serif="http://www.serif.com/" style="fill-rule:evenodd;clip-rule:evenodd;stroke-linejoin:round;stroke-miterlimit:2;">
    <g transform="matrix(-0.345864,0.125522,0.116892,0.333297,2.08435,-143.702)">
        <path d="M140.257,585.706C148.793,595.932 159.151,594.346 160.899,586.755C161.906,582.379 158.018,573.265 153.744,561.669C159.972,558.264 164.451,552.11 167.26,543.333C170.973,529.176 166.083,519.775 156.426,515.415C165.463,500.919 175.102,482.692 154.405,470.955C149.083,466.621 149.089,462.425 150.636,457.214C156.341,447.103 151.479,436.585 140.623,428.541C130.957,422.169 115.144,416.889 86.974,408.939C74.282,406.479 63.639,410.081 55.41,420.826C45.753,437.849 37.882,452.738 35.675,468.065C32.723,479.62 32.756,489.213 42.313,496.057C52.395,501.293 59.679,501.743 59.709,506.897C55.055,517.075 55.924,526.856 67.23,535.114C73.339,540.137 77.837,544.552 80.267,548.185C80.267,548.185 91.036,558.518 97.946,564.255C103.043,568.488 105.595,569.926 109.914,571.833C115.208,574.17 129.479,575.545 134.243,579.361C138.807,583.017 140.257,585.706 140.257,585.706Z" style="fill:white;" />
    </g>
    <path d="M22.148,69.148C21.881,70.814 21.348,72.048 20.548,72.848C19.781,73.614 18.764,73.998 17.498,73.998C16.264,74.031 15.398,73.731 14.898,73.098C14.464,72.564 14.214,71.698 14.148,70.498L14.098,70.098L14.098,61.998L15.298,61.998L15.298,70.098L15.448,71.498L15.798,72.148C16.164,72.514 16.898,72.681 17.998,72.648L18.448,72.598C19.081,72.431 19.598,72.048 19.998,71.448C20.398,70.814 20.681,69.864 20.848,68.598L22.148,69.148ZM15.884,58.338L15.484,58.988C15.217,59.255 15.017,59.355 14.884,59.288L14.734,58.688C14.734,57.922 15.067,56.722 15.734,55.088C15.767,53.388 15.684,52.422 15.484,52.188L15.184,52.088C14.917,52.088 14.6,52.322 14.234,52.788L13.584,52.138C14.184,51.438 14.784,51.088 15.384,51.088L16.134,51.388C16.5,51.788 16.634,52.622 16.534,53.888C17.3,52.788 18.367,51.822 19.734,50.988L20.334,51.788C18.534,52.788 17.25,53.938 16.484,55.238C16.35,56.638 16.15,57.672 15.884,58.338ZM8.14,58.942L8.74,58.342C7.074,56.776 6.24,54.992 6.24,52.992C6.24,50.992 7.074,49.192 8.74,47.592L8.14,46.992C6.34,48.726 5.44,50.726 5.44,52.992C5.44,55.159 6.29,57.092 7.99,58.792L8.14,58.942ZM33.054,58.942L32.428,58.571L38.323,48.836L38.895,49.18L38.326,50.147L33.054,58.942ZM40.805,44.142L40.205,43.542C41.871,41.976 42.705,40.192 42.705,38.192C42.705,36.192 41.871,34.392 40.205,32.792L40.805,32.192C42.605,33.926 43.505,35.926 43.505,38.192C43.505,40.359 42.655,42.292 40.955,43.992L40.805,44.142ZM3.61,44.142L4.21,43.542C2.544,41.976 1.71,40.192 1.71,38.192C1.71,36.192 2.544,34.392 4.21,32.792L3.61,32.192C1.81,33.926 0.91,35.926 0.91,38.192C0.91,40.359 1.76,42.292 3.46,43.992L3.61,44.142ZM38.425,43.919L37.325,43.919L37.325,31.59L38.325,31.59L38.325,31.635L38.425,31.635L38.425,43.919ZM5.99,43.919L7.09,43.919L7.09,31.59L6.09,31.59L6.09,31.635L5.99,31.635L5.99,43.919ZM3.61,28.434L4.21,27.834C2.544,26.268 1.71,24.484 1.71,22.484C1.71,20.484 2.544,18.684 4.21,17.084L3.61,16.484C1.81,18.218 0.91,20.218 0.91,22.484C0.91,24.651 1.76,26.584 3.46,28.284L3.61,28.434ZM44.588,28.434L43.988,27.834C45.654,26.268 46.488,24.484 46.488,22.484C46.488,20.484 45.654,18.684 43.988,17.084L44.588,16.484C46.388,18.218 47.288,20.218 47.288,22.484C47.288,24.651 46.438,26.584 44.738,28.284L44.588,28.434ZM23.968,22.918C24.216,22.446 24.463,22.209 24.71,22.209C24.98,22.209 25.115,22.569 25.115,23.289C25.115,23.761 25.025,24.278 24.845,24.84L24.373,25.818C24.373,26.178 24.497,26.481 24.744,26.729C24.991,26.976 25.328,27.1 25.756,27.1C26.205,27.1 26.588,26.942 26.902,26.627C27.464,26.065 27.745,25.099 27.745,23.727C27.745,22.625 27.588,21.659 27.273,20.827L28.285,20.557C28.667,21.546 28.858,22.603 28.858,23.727C28.858,25.346 28.476,26.538 27.712,27.302C27.217,27.797 26.576,28.044 25.789,28.044C25.137,28.044 24.631,27.864 24.272,27.504L23.766,26.729L23.226,27.403C22.799,27.83 22.271,28.044 21.641,28.044C21.034,28.044 20.54,27.853 20.157,27.471C19.775,27.088 19.584,26.403 19.584,25.413C19.584,23.795 20.292,22.176 21.709,20.557L22.585,21.029C21.214,22.58 20.528,24.042 20.528,25.413C20.528,26.155 20.641,26.627 20.866,26.83C21.068,27.032 21.326,27.133 21.641,27.133C22.091,27.133 22.473,26.976 22.788,26.661C23.193,26.279 23.429,25.953 23.496,25.683C23.429,25.368 23.429,24.93 23.496,24.368C23.519,23.963 23.676,23.48 23.968,22.918ZM15.381,22.665L12.831,22.665L12.831,20.115L15.381,20.115L15.381,22.665ZM35.022,22.665L32.472,22.665L32.472,20.115L35.022,20.115L35.022,22.665ZM40.07,17.286L41.992,19.613L40.812,19.613L38.148,17.286L40.07,17.286ZM10.647,16.156L8.017,18.449L6.802,18.449L8.792,16.122L10.681,16.122L10.647,16.156ZM8.669,12.732L6.719,13.032L6.369,11.632L8.569,11.282C12.003,10.549 14.469,9.316 15.969,7.582L16.969,8.582C17.303,8.916 17.236,9.049 16.769,8.982C15.003,10.816 12.303,12.066 8.669,12.732ZM35.97,9.732C37.903,10.232 39.537,10.799 40.87,11.432L40.17,12.782C38.837,12.049 37.453,11.466 36.02,11.032L33.52,10.382L33.92,9.232L35.97,9.732ZM8.419,9.082L7.469,9.232L7.119,7.932L8.319,7.682C11.019,7.016 13.236,5.916 14.969,4.382L15.819,5.282C16.053,5.649 15.969,5.782 15.569,5.682C13.369,7.349 10.986,8.482 8.419,9.082ZM37.02,5.532L39.97,6.432L39.52,7.682L35.97,6.532L33.92,6.132L34.17,4.932L37.02,5.532ZM8.169,5.582L6.769,5.832L6.419,4.482L8.069,4.182C10.336,3.582 12.453,2.466 14.419,0.832L15.269,1.832C15.503,2.099 15.369,2.232 14.869,2.232C12.703,3.899 10.469,5.016 8.169,5.582ZM19.469,3.532L20.151,4.132C21.932,2.465 23.96,1.632 26.234,1.632C28.507,1.632 30.554,2.465 32.373,4.132L33.055,3.532C31.085,1.732 28.811,0.832 26.234,0.832C23.77,0.832 21.572,1.682 19.639,3.382L19.469,3.532ZM37.12,1.332L40.37,2.232L39.92,3.482L36.67,2.532L34.07,2.032L34.37,0.832L37.12,1.332Z"/>
</svg>
