<svg xmlns:xlink="http://www.w3.org/1999/xlink" height="111.25px" width="61.95px" xmlns="http://www.w3.org/2000/svg">
  <g transform="matrix(1.0, 0.0, 0.0, 1.0, 35.1, 110.5)">
    <path d="M5.15 -106.2 L5.4 -106.35 4.65 -107.1 4.5 -107.0 1.5 -107.0 1.5 -106.25 4.1 -106.25 3.25 -105.2 2.45 -105.75 1.95 -105.2 3.7 -103.6 4.3 -104.2 3.75 -104.75 5.15 -106.2 M-0.75 -110.0 L-0.7 -110.0 11.25 -110.0 11.85 -108.2 10.95 -107.9 10.95 -96.0 11.9 -96.0 Q11.7 -94.7 11.9 -93.9 L10.95 -93.9 10.95 -82.0 11.75 -81.6 10.95 -79.9 10.95 -68.0 11.9 -68.0 Q11.7 -66.5 12.1 -65.5 L11.8 -65.35 Q11.5 -65.7 11.05 -65.7 L10.3 -65.35 10.0 -64.6 Q10.0 -64.2 10.3 -63.85 10.65 -63.5 11.05 -63.5 11.5 -63.5 11.8 -63.85 L12.15 -64.6 12.8 -64.4 Q14.95 -62.4 14.95 -59.8 14.95 -57.25 12.8 -55.25 L13.3 -54.7 Q12.65 -53.0 13.3 -51.9 13.8 -51.0 15.15 -50.5 16.3 -49.45 16.8 -48.45 17.3 -47.35 17.3 -45.85 17.3 -44.6 16.8 -43.5 L15.15 -41.2 15.65 -40.65 15.65 -40.6 14.15 -39.3 13.65 -38.8 Q14.6 -38.25 16.3 -38.15 L18.4 -37.9 18.4 -26.0 19.35 -25.9 Q18.75 -24.1 19.9 -22.9 L19.9 -19.55 17.15 -19.55 17.15 -12.85 18.1 -12.85 18.1 -13.4 25.8 -13.4 25.8 -13.0 26.75 -13.0 Q27.3 -9.95 24.2 -10.25 L18.55 -10.4 9.45 -9.7 8.3 -9.65 8.65 -8.05 7.6 -7.8 7.6 -2.4 Q7.6 -1.5 7.15 -1.0 6.7 -0.6 5.9 -0.6 5.15 -0.6 4.6 -1.05 4.05 -1.5 4.05 -3.0 L2.95 -3.0 Q2.0 -5.05 0.55 -6.7 L1.0 -7.05 -0.35 -9.2 -1.75 -9.2 Q-1.25 -8.4 -1.7 -7.55 -2.4 -6.45 -2.6 -5.05 -2.8 -3.45 -2.95 -3.05 L-3.95 -3.55 Q-4.15 -2.0 -4.7 -1.25 -5.25 -0.35 -6.25 -0.3 -7.6 -0.25 -8.0 -0.7 -8.45 -1.15 -8.45 -2.3 L-8.45 -8.8 -9.35 -8.8 Q-10.4 -9.95 -11.15 -9.95 L-23.1 -9.95 -23.1 -9.45 -23.15 -9.45 -23.15 -9.95 -33.85 -9.95 -34.15 -11.9 -33.2 -12.0 -33.2 -23.9 -34.15 -23.9 Q-34.0 -24.2 -34.15 -25.35 L-34.15 -26.0 -33.2 -26.0 -33.2 -37.45 -32.3 -37.45 -20.35 -37.45 -20.35 -37.95 -26.15 -37.95 Q-25.7 -39.3 -26.2 -40.0 L-25.25 -40.0 -25.25 -51.9 -26.2 -51.9 Q-25.85 -52.85 -26.0 -53.95 L-26.0 -54.0 -25.25 -54.0 -25.25 -65.9 -26.2 -65.9 Q-26.45 -67.5 -26.2 -68.65 L-26.2 -68.0 -25.25 -68.0 -25.25 -79.9 -26.2 -79.9 -26.2 -82.0 -25.25 -82.0 -25.25 -93.9 -26.2 -93.9 -26.05 -96.0 -25.25 -96.0 -25.25 -107.9 Q-25.35 -108.65 -24.7 -110.0 L-12.75 -110.0 -12.7 -110.0 -0.75 -110.0 M18.1 -14.45 L18.1 -18.5 19.9 -18.5 19.9 -17.75 20.85 -17.75 20.85 -21.85 23.1 -21.85 23.1 -17.8 24.0 -17.8 24.0 -18.5 25.8 -18.5 25.8 -14.45 18.1 -14.45 M3.6 -22.6 L2.55 -23.2 Q2.0 -23.75 1.5 -23.75 L0.7 -23.25 0.2 -22.25 0.65 -21.7 0.95 -22.35 1.55 -22.8 Q1.9 -22.8 2.45 -22.25 3.15 -21.55 3.5 -21.55 4.05 -21.55 4.4 -22.15 L5.0 -23.1 4.5 -23.75 4.25 -23.1 Q3.9 -22.6 3.6 -22.6 M8.55 -22.6 L7.5 -23.2 Q6.95 -23.75 6.45 -23.75 6.0 -23.75 5.65 -23.25 L5.45 -22.9 5.15 -22.25 5.6 -21.7 5.9 -22.35 6.5 -22.8 Q6.85 -22.8 7.4 -22.25 8.1 -21.55 8.45 -21.55 9.0 -21.55 9.35 -22.15 L9.95 -23.1 9.45 -23.75 9.2 -23.1 8.55 -22.6 M11.45 -23.0 L10.95 -22.5 12.6 -20.45 Q13.1 -19.35 13.1 -17.85 13.1 -16.6 12.6 -15.5 L10.95 -13.2 11.45 -12.65 13.2 -15.15 Q13.8 -16.4 13.8 -17.85 13.8 -19.5 13.2 -20.75 L11.45 -23.0 M7.1 -33.05 L7.1 -27.8 8.05 -27.8 8.05 -33.05 7.1 -33.05 M5.5 -33.05 L4.55 -33.05 4.55 -27.8 5.5 -27.8 5.5 -33.05 M7.1 -35.75 L7.1 -34.55 8.05 -34.55 8.05 -35.75 7.1 -35.75 M5.5 -34.55 L5.5 -35.75 4.55 -35.75 4.55 -34.55 5.5 -34.55 M-0.8 -37.9 L-1.75 -37.9 -1.75 -26.0 -0.8 -26.0 -0.8 -37.9 M11.3 -37.2 L10.25 -37.75 9.45 -37.25 8.95 -36.25 9.4 -35.7 9.7 -36.35 Q9.9 -36.8 10.3 -36.8 L11.2 -36.25 12.25 -35.55 Q12.8 -35.55 13.15 -36.15 L13.75 -37.1 13.25 -37.75 13.0 -37.1 12.35 -36.6 11.3 -37.2 M13.3 -51.9 L12.35 -51.9 12.35 -40.0 13.3 -40.0 13.3 -51.9 M6.85 -64.9 L1.7 -64.9 1.7 -61.6 Q1.7 -58.6 0.3 -56.65 L-0.5 -56.65 -0.5 -54.05 0.4 -54.05 0.4 -55.75 7.0 -55.75 7.0 -54.05 7.9 -54.05 7.9 -56.65 6.85 -56.65 6.85 -64.9 M2.6 -64.0 L5.9 -64.0 5.9 -56.65 1.35 -56.65 Q2.6 -58.55 2.6 -61.65 L2.6 -64.0 M11.05 -65.3 Q11.4 -65.3 11.6 -65.1 L11.75 -64.6 11.6 -64.1 Q11.4 -63.9 11.05 -63.9 10.75 -63.9 10.55 -64.1 L10.35 -64.6 10.55 -65.1 11.05 -65.3 M-2.35 -87.4 L2.85 -87.4 2.85 -84.5 -2.35 -84.5 -2.35 -87.4 M-18.8 -23.9 L-19.75 -23.9 -19.75 -12.0 -18.8 -12.0 -18.8 -23.9 M-3.75 -17.85 Q-3.75 -16.4 -3.15 -15.15 L-1.4 -12.65 -0.9 -13.2 -2.5 -15.5 Q-3.05 -16.6 -3.05 -17.85 -3.05 -19.35 -2.5 -20.45 -2.05 -21.45 -0.9 -22.5 L-1.4 -23.0 -3.15 -20.75 Q-3.75 -19.5 -3.75 -17.85 M-13.05 -21.85 L-10.8 -21.85 -10.8 -17.8 -9.9 -17.8 -9.9 -18.5 -8.1 -18.5 -8.1 -14.45 -15.8 -14.45 -15.8 -18.5 -14.0 -18.5 -14.0 -17.75 -13.05 -17.75 -13.05 -21.85 M-9.9 -19.55 L-9.9 -22.9 -14.0 -22.9 -14.0 -19.55 -16.75 -19.55 -16.75 -12.85 -15.8 -12.85 -15.8 -13.4 -8.1 -13.4 -8.1 -13.0 -7.15 -13.0 -7.15 -19.55 -9.9 -19.55 M-18.4 -37.9 L-19.35 -37.9 -19.35 -26.0 -18.4 -26.0 -18.4 -37.9 M-3.6 -37.9 L-4.55 -37.9 -4.55 -26.0 -3.6 -26.0 -3.6 -37.9 M-5.55 -37.45 L-5.55 -37.95 -17.5 -37.95 -17.5 -37.45 -5.55 -37.45 M-8.15 -55.8 L-8.15 -56.8 -9.25 -56.8 -9.25 -55.8 -8.8 -55.8 -9.25 -54.5 -8.8 -54.5 -8.15 -55.8 M-6.8 -55.8 L-6.35 -55.8 -6.8 -54.5 -6.35 -54.5 -5.7 -55.8 -5.7 -56.8 -6.8 -56.8 -6.8 -55.8 M-19.35 -50.5 L-19.85 -51.0 Q-21.05 -49.85 -21.6 -48.75 -22.2 -47.5 -22.2 -45.85 -22.2 -44.4 -21.6 -43.15 L-19.85 -40.65 -19.35 -41.2 Q-20.5 -42.45 -20.95 -43.5 -21.5 -44.6 -21.5 -45.85 -21.5 -47.35 -20.95 -48.45 L-19.35 -50.5 M-13.2 -49.75 L-14.2 -50.25 Q-15.1 -44.8 -17.85 -42.55 L-17.1 -41.55 Q-14.15 -44.2 -13.2 -49.5 -12.85 -49.55 -13.2 -49.75 M-14.5 -65.9 L-15.45 -65.9 -15.45 -54.0 -14.5 -54.0 -14.5 -65.9 M-3.7 -65.3 L-3.15 -65.1 -3.0 -64.7 -3.0 -64.6 Q-3.0 -64.25 -3.15 -64.1 L-3.7 -63.9 -4.2 -64.1 -4.4 -64.6 -4.2 -65.1 -3.7 -65.3 M-3.3 -65.6 L-3.7 -65.7 -4.45 -65.35 -4.75 -64.6 -4.45 -63.85 Q-4.1 -63.5 -3.7 -63.5 -3.25 -63.5 -2.95 -63.85 L-2.65 -64.2 -2.6 -64.6 Q-2.6 -65.0 -2.95 -65.35 L-3.3 -65.6 M-10.3 -64.4 L-10.85 -64.95 Q-13.2 -62.75 -13.2 -59.8 -13.2 -56.9 -10.85 -54.7 L-10.3 -55.25 Q-12.45 -57.25 -12.45 -59.8 -12.45 -62.4 -10.3 -64.4 M-3.15 -76.5 L-3.15 -75.6 -0.1 -75.6 Q-1.9 -74.25 -4.5 -73.85 L-4.2 -73.0 Q-2.3 -73.3 -0.6 -74.4 L-0.15 -74.0 Q-1.8 -72.7 -4.05 -72.1 L-3.7 -71.25 Q-1.7 -71.8 0.4 -73.45 L0.75 -73.0 Q-1.35 -71.0 -4.4 -70.0 L-3.95 -69.1 Q-1.15 -70.15 0.95 -72.05 L0.95 -70.35 Q0.85 -69.75 0.15 -69.75 L-0.9 -69.75 -0.75 -68.7 0.5 -68.7 Q1.5 -68.7 1.75 -69.45 2.1 -70.3 1.85 -72.2 2.9 -70.75 4.8 -69.35 L5.45 -70.4 Q3.2 -71.55 2.0 -73.15 3.3 -73.75 4.45 -74.5 4.8 -74.45 4.6 -74.7 L3.75 -75.35 Q3.0 -74.55 1.35 -73.65 L0.05 -74.75 1.05 -75.6 3.85 -75.6 3.85 -76.5 -3.15 -76.5 M-3.7 -75.8 L-3.7 -77.35 4.35 -77.35 4.35 -75.8 5.25 -75.8 5.25 -78.25 0.8 -78.25 0.8 -79.0 Q1.15 -79.2 0.75 -79.25 L-0.25 -79.25 -0.25 -78.25 -4.6 -78.25 -4.6 -75.8 -3.7 -75.8 M-14.5 -79.9 L-15.45 -79.9 -15.45 -68.0 -14.5 -68.0 -14.5 -79.9 M-14.5 -93.9 L-15.45 -93.9 -15.45 -82.0 -14.5 -82.0 -14.5 -93.9 M-4.95 -91.5 L-4.95 -90.5 -0.25 -90.5 -0.25 -88.3 -3.45 -88.3 -3.45 -82.8 -2.35 -82.8 -2.35 -83.6 2.85 -83.6 2.85 -82.9 3.9 -82.9 3.9 -88.3 0.7 -88.3 0.7 -90.5 5.55 -90.5 5.55 -91.5 0.7 -91.5 0.7 -93.0 Q1.0 -93.2 0.65 -93.25 L-0.25 -93.25 -0.25 -91.5 -4.95 -91.5 M-14.5 -107.9 L-15.45 -107.9 -15.45 -96.0 -14.5 -96.0 -14.5 -107.9 M-0.5 -103.2 L-1.3 -103.4 -1.9 -101.8 -2.25 -101.2 -1.6 -100.8 -1.35 -101.2 -1.1 -101.65 -0.75 -101.65 -0.75 -100.45 -2.25 -100.45 -2.25 -99.7 -0.8 -99.7 Q-0.95 -98.25 -2.5 -97.45 L-2.0 -96.55 Q-0.65 -97.45 -0.25 -98.6 L0.5 -97.75 0.85 -98.65 -0.05 -99.3 0.0 -99.7 1.1 -99.7 1.1 -100.45 0.0 -100.45 0.0 -101.65 1.0 -101.65 1.0 -102.4 -0.8 -102.4 -0.6 -103.0 Q-0.35 -103.1 -0.5 -103.2 M1.4 -103.4 L1.4 -102.65 3.05 -102.65 3.05 -98.15 2.3 -99.15 2.45 -101.25 Q2.7 -101.4 2.55 -101.55 L1.6 -101.65 1.6 -100.8 Q1.6 -98.75 0.7 -97.6 L0.3 -97.2 0.85 -96.45 Q1.8 -97.25 2.1 -98.3 2.85 -96.65 5.7 -96.75 L5.8 -97.7 3.85 -97.85 3.85 -99.9 5.25 -99.9 5.25 -100.65 3.85 -100.65 3.85 -102.65 4.7 -102.65 4.45 -101.7 5.25 -101.5 5.7 -103.0 5.8 -103.1 Q5.45 -103.3 5.05 -103.55 L5.0 -103.4 1.4 -103.4 M-3.0 -107.0 Q-2.65 -107.25 -3.0 -107.3 L-3.75 -107.3 -3.75 -104.85 -4.95 -104.85 -4.95 -104.1 -3.75 -104.1 -3.75 -102.0 -5.15 -101.55 -4.75 -100.5 Q-4.55 -100.3 -4.5 -100.65 L-3.75 -101.0 -3.75 -97.7 -3.95 -97.5 -4.65 -97.5 -4.5 -96.6 -3.65 -96.6 Q-3.0 -96.6 -3.0 -97.25 L-3.0 -101.35 -1.95 -101.85 -2.15 -102.7 -3.0 -102.35 -3.0 -104.1 -2.05 -104.1 -2.05 -104.85 -3.0 -104.85 -3.0 -107.0 M-0.85 -107.2 L-1.6 -107.2 -1.6 -104.35 Q-1.6 -103.5 -0.75 -103.5 L0.55 -103.5 1.2 -103.65 1.45 -104.25 1.5 -104.9 0.7 -105.15 0.65 -104.65 0.3 -104.25 -0.5 -104.25 Q-0.8 -104.25 -0.8 -104.6 L-0.8 -105.1 1.0 -105.7 Q1.3 -105.65 1.25 -105.8 L0.75 -106.6 -0.8 -105.85 -0.8 -106.95 Q-0.5 -107.15 -0.85 -107.2" fill="#ffffff" fill-rule="evenodd" stroke="none"/>
    <path d="M5.15 -106.2 L3.75 -104.75 4.3 -104.2 3.7 -103.6 1.95 -105.2 2.45 -105.75 3.25 -105.2 4.1 -106.25 1.5 -106.25 1.5 -107.0 4.5 -107.0 4.65 -107.1 5.4 -106.35 5.15 -106.2 M-0.7 -110.0 L-0.7 -110.5 11.25 -110.5 11.25 -110.0 -0.7 -110.0 M10.95 -107.9 L11.9 -107.9 11.9 -96.0 10.95 -96.0 10.95 -107.9 M11.9 -93.9 L11.9 -82.0 10.95 -82.0 10.95 -93.9 11.9 -93.9 M10.95 -79.9 L11.9 -79.9 11.9 -68.0 10.95 -68.0 10.95 -79.9 M11.8 -65.35 L12.15 -64.6 11.8 -63.85 Q11.5 -63.5 11.05 -63.5 10.65 -63.5 10.3 -63.85 10.0 -64.2 10.0 -64.6 L10.3 -65.35 11.05 -65.7 Q11.5 -65.7 11.8 -65.35 M12.8 -64.4 L13.3 -64.95 Q15.65 -62.75 15.65 -59.8 15.65 -56.9 13.3 -54.7 L12.8 -55.25 Q14.95 -57.25 14.95 -59.8 14.95 -62.4 12.8 -64.4 M15.15 -50.5 L15.65 -51.0 Q16.85 -49.85 17.4 -48.75 18.0 -47.5 18.0 -45.85 18.0 -44.4 17.4 -43.15 L15.65 -40.65 15.15 -41.2 16.8 -43.5 Q17.3 -44.6 17.3 -45.85 17.3 -47.35 16.8 -48.45 16.3 -49.45 15.15 -50.5 M18.4 -37.9 L19.35 -37.9 19.35 -26.0 18.4 -26.0 18.4 -37.9 M19.9 -22.9 L24.0 -22.9 24.0 -19.55 26.75 -19.55 26.75 -13.0 25.8 -13.0 25.8 -13.4 18.1 -13.4 18.1 -12.85 17.15 -12.85 17.15 -19.55 19.9 -19.55 19.9 -22.9 M7.6 -7.8 L8.7 -7.8 8.7 -2.4 Q8.7 -1.05 8.05 -0.4 7.25 0.4 5.9 0.4 4.55 0.4 3.8 -0.35 2.95 -1.2 2.95 -3.0 L4.05 -3.0 Q4.05 -1.5 4.6 -1.05 5.15 -0.6 5.9 -0.6 6.7 -0.6 7.15 -1.0 7.6 -1.5 7.6 -2.4 L7.6 -7.8 M1.0 -7.05 L0.25 -7.05 -1.75 -9.2 -0.35 -9.2 1.0 -7.05 M-2.95 -3.05 Q-3.55 0.75 -6.65 0.75 -8.15 0.8 -8.75 0.05 -9.3 -0.65 -9.35 -2.3 L-9.35 -8.8 -8.45 -8.8 -8.45 -2.3 Q-8.45 -1.15 -8.0 -0.7 -7.6 -0.25 -6.25 -0.3 -5.25 -0.35 -4.7 -1.25 -4.15 -2.0 -3.95 -3.55 L-2.95 -3.05 M-11.15 -9.95 L-11.15 -9.45 -23.1 -9.45 -23.1 -9.95 -11.15 -9.95 M-23.15 -9.45 L-35.1 -9.45 -35.1 -9.95 -33.85 -9.95 -23.15 -9.95 -23.15 -9.45 M-33.2 -12.0 L-34.15 -12.0 -34.15 -23.9 -33.2 -23.9 -33.2 -12.0 M-34.15 -26.0 L-34.15 -37.9 -33.2 -37.9 -33.2 -37.45 -33.2 -26.0 -34.15 -26.0 M-32.3 -37.45 L-32.3 -37.95 -26.15 -37.95 -20.35 -37.95 -20.35 -37.45 -32.3 -37.45 M-26.2 -40.0 L-26.2 -51.9 -25.25 -51.9 -25.25 -40.0 -26.2 -40.0 M-26.0 -54.0 L-26.2 -54.0 -26.2 -65.9 -25.25 -65.9 -25.25 -54.0 -26.0 -54.0 M-26.2 -68.65 L-26.2 -79.9 -25.25 -79.9 -25.25 -68.0 -26.2 -68.0 -26.2 -68.65 M-26.2 -82.0 L-26.2 -93.9 -25.25 -93.9 -25.25 -82.0 -26.2 -82.0 M-26.05 -96.0 L-26.2 -96.0 -26.2 -107.9 -25.25 -107.9 -25.25 -96.0 -26.05 -96.0 M-24.7 -110.0 L-24.7 -110.5 -12.75 -110.5 -12.75 -110.0 -24.7 -110.0 M-12.7 -110.0 L-12.7 -110.5 -0.75 -110.5 -0.75 -110.0 -12.7 -110.0 M-0.85 -107.2 Q-0.5 -107.15 -0.8 -106.95 L-0.8 -105.85 0.75 -106.6 1.25 -105.8 Q1.3 -105.65 1.0 -105.7 L-0.8 -105.1 -0.8 -104.6 Q-0.8 -104.25 -0.5 -104.25 L0.3 -104.25 0.65 -104.65 0.7 -105.15 1.5 -104.9 1.45 -104.25 1.2 -103.65 0.55 -103.5 -0.75 -103.5 Q-1.6 -103.5 -1.6 -104.35 L-1.6 -107.2 -0.85 -107.2 M-3.0 -107.0 L-3.0 -104.85 -2.05 -104.85 -2.05 -104.1 -3.0 -104.1 -3.0 -102.35 -2.15 -102.7 -1.95 -101.85 -3.0 -101.35 -3.0 -97.25 Q-3.0 -96.6 -3.65 -96.6 L-4.5 -96.6 -4.65 -97.5 -3.95 -97.5 -3.75 -97.7 -3.75 -101.0 -4.5 -100.65 Q-4.55 -100.3 -4.75 -100.5 L-5.15 -101.55 -3.75 -102.0 -3.75 -104.1 -4.95 -104.1 -4.95 -104.85 -3.75 -104.85 -3.75 -107.3 -3.0 -107.3 Q-2.65 -107.25 -3.0 -107.0 M1.4 -103.4 L5.0 -103.4 5.05 -103.55 Q5.45 -103.3 5.8 -103.1 L5.7 -103.0 5.25 -101.5 4.45 -101.7 4.7 -102.65 3.85 -102.65 3.85 -100.65 5.25 -100.65 5.25 -99.9 3.85 -99.9 3.85 -97.85 5.8 -97.7 5.7 -96.75 Q2.85 -96.65 2.1 -98.3 1.8 -97.25 0.85 -96.45 L0.3 -97.2 0.7 -97.6 Q1.6 -98.75 1.6 -100.8 L1.6 -101.65 2.55 -101.55 Q2.7 -101.4 2.45 -101.25 L2.3 -99.15 3.05 -98.15 3.05 -102.65 1.4 -102.65 1.4 -103.4 M-0.5 -103.2 Q-0.35 -103.1 -0.6 -103.0 L-0.8 -102.4 1.0 -102.4 1.0 -101.65 0.0 -101.65 0.0 -100.45 1.1 -100.45 1.1 -99.7 0.0 -99.7 -0.05 -99.3 0.85 -98.65 0.5 -97.75 -0.25 -98.6 Q-0.65 -97.45 -2.0 -96.55 L-2.5 -97.45 Q-0.95 -98.25 -0.8 -99.7 L-2.25 -99.7 -2.25 -100.45 -0.75 -100.45 -0.75 -101.65 -1.1 -101.65 -1.35 -101.2 -1.6 -100.8 -2.25 -101.2 -1.9 -101.8 -1.3 -103.4 -0.5 -103.2 M-14.5 -107.9 L-14.5 -96.0 -15.45 -96.0 -15.45 -107.9 -14.5 -107.9 M-4.95 -91.5 L-0.25 -91.5 -0.25 -93.25 0.65 -93.25 Q1.0 -93.2 0.7 -93.0 L0.7 -91.5 5.55 -91.5 5.55 -90.5 0.7 -90.5 0.7 -88.3 3.9 -88.3 3.9 -82.9 2.85 -82.9 2.85 -83.6 -2.35 -83.6 -2.35 -82.8 -3.45 -82.8 -3.45 -88.3 -0.25 -88.3 -0.25 -90.5 -4.95 -90.5 -4.95 -91.5 M-14.5 -93.9 L-14.5 -82.0 -15.45 -82.0 -15.45 -93.9 -14.5 -93.9 M-14.5 -79.9 L-14.5 -68.0 -15.45 -68.0 -15.45 -79.9 -14.5 -79.9 M-3.7 -75.8 L-4.6 -75.8 -4.6 -78.25 -0.25 -78.25 -0.25 -79.25 0.75 -79.25 Q1.15 -79.2 0.8 -79.0 L0.8 -78.25 5.25 -78.25 5.25 -75.8 4.35 -75.8 4.35 -77.35 -3.7 -77.35 -3.7 -75.8 M-3.15 -76.5 L3.85 -76.5 3.85 -75.6 1.05 -75.6 0.05 -74.75 1.35 -73.65 Q3.0 -74.55 3.75 -75.35 L4.6 -74.7 Q4.8 -74.45 4.45 -74.5 3.3 -73.75 2.0 -73.15 3.2 -71.55 5.45 -70.4 L4.8 -69.35 Q2.9 -70.75 1.85 -72.2 2.1 -70.3 1.75 -69.45 1.5 -68.7 0.5 -68.7 L-0.75 -68.7 -0.9 -69.75 0.15 -69.75 Q0.85 -69.75 0.95 -70.35 L0.95 -72.05 Q-1.15 -70.15 -3.95 -69.1 L-4.4 -70.0 Q-1.35 -71.0 0.75 -73.0 L0.4 -73.45 Q-1.7 -71.8 -3.7 -71.25 L-4.05 -72.1 Q-1.8 -72.7 -0.15 -74.0 L-0.6 -74.4 Q-2.3 -73.3 -4.2 -73.0 L-4.5 -73.85 Q-1.9 -74.25 -0.1 -75.6 L-3.15 -75.6 -3.15 -76.5 M-10.3 -64.4 Q-12.45 -62.4 -12.45 -59.8 -12.45 -57.25 -10.3 -55.25 L-10.85 -54.7 Q-13.2 -56.9 -13.2 -59.8 -13.2 -62.75 -10.85 -64.95 L-10.3 -64.4 M-3.3 -65.6 L-2.95 -65.35 Q-2.6 -65.0 -2.6 -64.6 L-2.65 -64.2 -2.95 -63.85 Q-3.25 -63.5 -3.7 -63.5 -4.1 -63.5 -4.45 -63.85 L-4.75 -64.6 -4.45 -65.35 -3.7 -65.7 -3.3 -65.6 M-3.7 -65.3 L-4.2 -65.1 -4.4 -64.6 -4.2 -64.1 -3.7 -63.9 -3.15 -64.1 Q-3.0 -64.25 -3.0 -64.6 L-3.0 -64.7 -3.15 -65.1 -3.7 -65.3 M-14.5 -65.9 L-14.5 -54.0 -15.45 -54.0 -15.45 -65.9 -14.5 -65.9 M-13.2 -49.75 Q-12.85 -49.55 -13.2 -49.5 -14.15 -44.2 -17.1 -41.55 L-17.85 -42.55 Q-15.1 -44.8 -14.2 -50.25 L-13.2 -49.75 M-19.35 -50.5 L-20.95 -48.45 Q-21.5 -47.35 -21.5 -45.85 -21.5 -44.6 -20.95 -43.5 -20.5 -42.45 -19.35 -41.2 L-19.85 -40.65 -21.6 -43.15 Q-22.2 -44.4 -22.2 -45.85 -22.2 -47.5 -21.6 -48.75 -21.05 -49.85 -19.85 -51.0 L-19.35 -50.5 M-6.8 -55.8 L-6.8 -56.8 -5.7 -56.8 -5.7 -55.8 -6.35 -54.5 -6.8 -54.5 -6.35 -55.8 -6.8 -55.8 M-8.15 -55.8 L-8.8 -54.5 -9.25 -54.5 -8.8 -55.8 -9.25 -55.8 -9.25 -56.8 -8.15 -56.8 -8.15 -55.8 M-5.55 -37.45 L-17.5 -37.45 -17.5 -37.95 -5.55 -37.95 -5.55 -37.45 M-3.6 -37.9 L-3.6 -26.0 -4.55 -26.0 -4.55 -37.9 -3.6 -37.9 M-18.4 -37.9 L-18.4 -26.0 -19.35 -26.0 -19.35 -37.9 -18.4 -37.9 M-9.9 -19.55 L-7.15 -19.55 -7.15 -13.0 -8.1 -13.0 -8.1 -13.4 -15.8 -13.4 -15.8 -12.85 -16.75 -12.85 -16.75 -19.55 -14.0 -19.55 -14.0 -22.9 -9.9 -22.9 -9.9 -19.55 M-13.05 -21.85 L-13.05 -17.75 -14.0 -17.75 -14.0 -18.5 -15.8 -18.5 -15.8 -14.45 -8.1 -14.45 -8.1 -18.5 -9.9 -18.5 -9.9 -17.8 -10.8 -17.8 -10.8 -21.85 -13.05 -21.85 M-3.75 -17.85 Q-3.75 -19.5 -3.15 -20.75 L-1.4 -23.0 -0.9 -22.5 Q-2.05 -21.45 -2.5 -20.45 -3.05 -19.35 -3.05 -17.85 -3.05 -16.6 -2.5 -15.5 L-0.9 -13.2 -1.4 -12.65 -3.15 -15.15 Q-3.75 -16.4 -3.75 -17.85 M-18.8 -23.9 L-18.8 -12.0 -19.75 -12.0 -19.75 -23.9 -18.8 -23.9 M-2.35 -87.4 L-2.35 -84.5 2.85 -84.5 2.85 -87.4 -2.35 -87.4 M11.05 -65.3 L10.55 -65.1 10.35 -64.6 10.55 -64.1 Q10.75 -63.9 11.05 -63.9 11.4 -63.9 11.6 -64.1 L11.75 -64.6 11.6 -65.1 Q11.4 -65.3 11.05 -65.3 M2.6 -64.0 L2.6 -61.65 Q2.6 -58.55 1.35 -56.65 L5.9 -56.65 5.9 -64.0 2.6 -64.0 M6.85 -64.9 L6.85 -56.65 7.9 -56.65 7.9 -54.05 7.0 -54.05 7.0 -55.75 0.4 -55.75 0.4 -54.05 -0.5 -54.05 -0.5 -56.65 0.3 -56.65 Q1.7 -58.6 1.7 -61.6 L1.7 -64.9 6.85 -64.9 M13.3 -51.9 L13.3 -40.0 12.35 -40.0 12.35 -51.9 13.3 -51.9 M11.3 -37.2 L12.35 -36.6 13.0 -37.1 13.25 -37.75 13.75 -37.1 13.15 -36.15 Q12.8 -35.55 12.25 -35.55 L11.2 -36.25 10.3 -36.8 Q9.9 -36.8 9.7 -36.35 L9.4 -35.7 8.95 -36.25 9.45 -37.25 10.25 -37.75 11.3 -37.2 M-0.8 -37.9 L-0.8 -26.0 -1.75 -26.0 -1.75 -37.9 -0.8 -37.9 M5.5 -34.55 L4.55 -34.55 4.55 -35.75 5.5 -35.75 5.5 -34.55 M7.1 -35.75 L8.05 -35.75 8.05 -34.55 7.1 -34.55 7.1 -35.75 M5.5 -33.05 L5.5 -27.8 4.55 -27.8 4.55 -33.05 5.5 -33.05 M7.1 -33.05 L8.05 -33.05 8.05 -27.8 7.1 -27.8 7.1 -33.05 M11.45 -23.0 L13.2 -20.75 Q13.8 -19.5 13.8 -17.85 13.8 -16.4 13.2 -15.15 L11.45 -12.65 10.95 -13.2 12.6 -15.5 Q13.1 -16.6 13.1 -17.85 13.1 -19.35 12.6 -20.45 L10.95 -22.5 11.45 -23.0 M8.55 -22.6 L9.2 -23.1 9.45 -23.75 9.95 -23.1 9.35 -22.15 Q9.0 -21.55 8.45 -21.55 8.1 -21.55 7.4 -22.25 6.85 -22.8 6.5 -22.8 L5.9 -22.35 5.6 -21.7 5.15 -22.25 5.45 -22.9 5.65 -23.25 Q6.0 -23.75 6.45 -23.75 6.95 -23.75 7.5 -23.2 L8.55 -22.6 M3.6 -22.6 Q3.9 -22.6 4.25 -23.1 L4.5 -23.75 5.0 -23.1 4.4 -22.15 Q4.05 -21.55 3.5 -21.55 3.15 -21.55 2.45 -22.25 1.9 -22.8 1.55 -22.8 L0.95 -22.35 0.65 -21.7 0.2 -22.25 0.7 -23.25 1.5 -23.75 Q2.0 -23.75 2.55 -23.2 L3.6 -22.6 M18.1 -14.45 L25.8 -14.45 25.8 -18.5 24.0 -18.5 24.0 -17.8 23.1 -17.8 23.1 -21.85 20.85 -21.85 20.85 -17.75 19.9 -17.75 19.9 -18.5 18.1 -18.5 18.1 -14.45" fill="#000000" fill-rule="evenodd" stroke="none"/>
  </g>
</svg>
