<svg xmlns:xlink="http://www.w3.org/1999/xlink" height="117.55px" width="88.4px" xmlns="http://www.w3.org/2000/svg">
  <g transform="matrix(1.0, 0.0, 0.0, 1.0, 44.2, 58.8)">
    <path d="M38.95 -25.6 L39.55 -25.6 39.55 -28.55 Q39.55 -29.35 40.05 -29.9 40.55 -30.35 41.2 -30.35 41.9 -30.35 42.4 -29.9 42.9 -29.35 42.9 -28.55 L42.9 -25.6 43.5 -25.6 43.85 -24.55 37.05 -18.9 37.35 -18.55 37.35 -18.5 36.1 -15.95 35.95 -16.15 29.15 -10.5 25.85 -10.5 19.05 -16.15 18.75 -15.95 Q17.85 -17.05 17.35 -18.45 L17.4 -18.5 17.75 -18.9 10.95 -24.55 10.6 -24.15 10.0 -24.35 9.7 -24.55 6.4 -18.65 6.7 -18.45 5.55 -16.15 2.25 -10.25 2.55 -10.05 1.7 -7.75 -1.6 -1.85 -1.45 -1.75 -2.4 -0.35 -3.0 -0.35 -3.0 7.25 -3.7 7.25 -11.65 7.25 -11.65 7.6 -3.7 7.6 -3.7 7.3 -3.0 7.3 -3.0 7.6 -2.4 7.6 -2.4 7.3 -1.75 7.3 0.65 7.3 0.7 7.35 0.7 7.3 3.1 7.3 3.1 7.25 5.65 9.8 5.55 9.85 12.35 15.5 10.95 17.85 4.15 23.5 4.5 23.9 3.15 25.05 2.8 24.65 -4.0 30.3 -3.65 30.7 -2.65 33.05 -5.95 38.95 -5.75 39.1 -5.65 39.15 Q-5.9 39.95 -6.5 40.75 L-8.35 43.55 -8.55 43.3 -8.8 43.8 -9.95 45.2 Q-10.85 46.0 -11.95 46.35 L-11.95 40.75 -12.7 40.75 -13.05 40.35 -14.3 41.45 -14.65 41.05 -21.45 46.7 -21.1 47.1 -21.1 48.45 -25.45 48.45 -25.45 48.75 -17.5 48.75 -16.8 49.4 Q-16.05 50.1 -15.75 50.75 -15.4 51.5 -15.4 52.5 -15.4 53.35 -15.75 54.1 L-16.8 55.6 -16.5 55.95 -18.9 58.45 -26.85 58.45 -26.9 58.45 -34.85 58.45 -37.05 55.95 -36.7 55.6 -37.8 54.1 Q-38.15 53.35 -38.15 52.5 -38.15 51.5 -37.8 50.75 L-36.7 49.4 -34.4 47.1 -27.6 41.45 -27.95 41.05 -25.9 39.1 -19.1 33.45 -19.45 33.05 -23.7 36.6 -22.7 33.95 -21.45 30.55 -21.2 30.75 -17.9 24.85 -18.2 24.65 -18.35 23.95 -15.05 18.05 -15.35 17.85 -15.35 16.4 -8.2 16.4 -8.2 16.05 -16.15 16.05 -16.85 15.45 -16.6 15.1 -23.4 9.45 -23.4 7.6 -22.9 7.6 -22.9 -0.35 -23.5 -0.35 -23.65 -1.65 -20.35 -7.55 -20.65 -7.75 -19.8 -10.05 -16.5 -15.95 -16.8 -16.15 -15.65 -18.45 -12.35 -24.35 -12.65 -24.55 -12.65 -26.0 -10.7 -26.0 -10.7 -26.35 -18.65 -26.35 -18.65 -26.0 -18.7 -26.0 -18.7 -26.35 -26.65 -26.35 -26.65 -26.0 -27.1 -26.0 -27.1 -26.3 -27.85 -26.3 -27.85 -25.6 -27.25 -25.6 -27.25 -24.55 -30.55 -18.65 -30.25 -18.45 -31.4 -16.15 -34.7 -10.25 -38.8 -10.85 -38.8 -11.45 -41.8 -11.45 Q-42.6 -11.45 -43.15 -12.0 -43.6 -12.45 -43.6 -13.15 -43.6 -13.85 -43.15 -14.3 -42.6 -14.85 -41.8 -14.85 L-38.8 -14.85 -38.8 -15.4 -39.55 -15.4 -39.55 -18.45 -36.25 -24.35 -36.55 -24.55 -36.8 -25.75 -33.8 -31.15 -34.1 -31.35 -34.1 -32.8 -26.8 -32.8 -26.75 -32.8 -18.8 -32.8 -18.75 -32.8 -10.8 -32.8 -10.8 -33.15 -11.05 -33.15 -10.75 -33.3 -10.75 -33.1 -8.35 -33.1 -8.35 -33.5 -8.3 -33.5 -8.3 -33.1 -5.9 -33.1 -5.9 -33.5 -5.65 -33.85 -5.35 -33.65 -2.05 -39.55 -2.35 -39.75 -2.55 -39.5 Q-4.1 -40.4 -5.0 -42.25 L-4.9 -42.4 -6.0 -43.9 Q-6.35 -44.65 -6.35 -45.5 -6.35 -46.5 -6.0 -47.25 L-5.15 -48.35 -4.9 -48.6 -5.25 -48.9 Q-5.2 -50.55 -4.55 -52.05 L-4.35 -52.4 -4.05 -52.25 -1.75 -57.25 0.5 -52.25 1.1 -52.55 2.2 -51.9 2.2 -51.6 10.15 -51.6 10.15 -51.8 11.7 -52.35 11.95 -52.25 14.25 -57.25 16.5 -52.25 16.85 -52.4 17.25 -48.7 17.1 -48.5 16.7 -48.9 16.4 -48.6 17.45 -47.25 17.8 -45.5 Q17.8 -44.65 17.45 -43.9 L16.4 -42.4 16.55 -42.2 16.25 -41.95 Q15.15 -40.75 13.2 -40.25 L9.45 -39.65 7.1 -39.25 7.25 -39.55 6.95 -39.75 3.65 -33.85 3.95 -33.65 4.6 -34.75 7.45 -33.15 7.45 -32.8 15.3 -32.8 15.3 -31.35 14.95 -30.95 21.55 -25.45 21.5 -25.25 20.8 -24.35 21.05 -24.15 27.85 -18.5 28.2 -18.9 29.05 -18.9 29.4 -18.5 36.2 -24.15 38.95 -25.6 M2.9 -49.05 L1.75 -49.05 0.55 -47.7 1.3 -47.7 2.9 -49.05 M9.85 -48.85 L6.4 -48.85 6.4 -46.7 Q6.4 -44.65 5.45 -43.35 L4.95 -43.35 4.95 -41.65 5.55 -41.65 5.55 -42.75 9.95 -42.75 9.95 -41.65 10.55 -41.65 10.55 -43.35 9.85 -43.35 9.85 -48.85 M13.55 -49.05 L12.45 -49.05 14.0 -47.7 14.7 -47.7 13.55 -49.05 M7.05 -48.25 L9.2 -48.25 9.2 -43.35 6.2 -43.35 Q7.05 -44.65 7.05 -46.7 L7.05 -48.25 M-1.9 -45.65 L-1.9 -46.35 -2.6 -46.35 -2.6 -45.65 -1.9 -45.65 M-2.6 -43.5 L-2.6 -42.8 -2.3 -42.8 -2.6 -42.0 -2.3 -42.0 -1.9 -42.8 -1.9 -43.5 -2.6 -43.5 M-0.2 16.4 L-0.2 16.05 -8.15 16.05 -8.15 16.4 -0.2 16.4 M-2.0 18.25 L-2.35 17.85 -9.15 23.5 -8.8 23.9 -2.0 18.25 M-10.15 25.05 L-10.5 24.65 -17.3 30.3 -16.95 30.7 -10.15 25.05 M-12.1 32.05 L-12.7 32.05 -12.7 40.0 -12.1 40.0 -12.1 32.05" fill="#ffffff" fill-rule="evenodd" stroke="none"/>
    <path d="M43.5 -25.6 L42.9 -25.6 42.9 -28.55 Q42.9 -29.35 42.4 -29.9 41.9 -30.35 41.2 -30.35 40.55 -30.35 40.05 -29.9 39.55 -29.35 39.55 -28.55 L39.55 -25.6 38.95 -25.6 38.95 -28.55 Q38.95 -29.65 39.6 -30.3 40.3 -31.0 41.2 -31.0 42.15 -31.0 42.85 -30.3 43.5 -29.65 43.5 -28.55 L43.5 -25.6 M36.2 -24.15 L29.4 -18.5 29.05 -18.9 35.85 -24.55 36.2 -24.15 M28.2 -18.9 L27.85 -18.5 21.05 -24.15 21.4 -24.55 28.2 -18.9 M21.55 -25.45 L14.95 -30.95 15.3 -31.35 22.1 -25.7 21.85 -25.4 21.65 -25.4 21.55 -25.45 M15.3 -32.8 L7.45 -32.8 7.45 -33.15 15.4 -33.15 15.4 -32.8 15.3 -32.8 M4.6 -34.75 L3.95 -33.65 3.65 -33.85 6.95 -39.75 7.25 -39.55 7.1 -39.25 4.6 -34.75 M16.55 -42.2 L16.4 -42.4 17.45 -43.9 Q17.8 -44.65 17.8 -45.5 L17.45 -47.25 16.4 -48.6 16.7 -48.9 17.1 -48.5 17.3 -48.35 17.9 -47.45 Q18.3 -46.6 18.3 -45.5 18.3 -44.55 17.9 -43.7 17.5 -42.9 16.7 -42.05 L16.55 -42.2 M16.85 -52.4 L16.5 -52.25 14.25 -57.25 11.95 -52.25 11.7 -52.35 11.35 -52.55 14.25 -58.8 17.1 -52.55 16.85 -52.4 M10.15 -51.8 L10.15 -51.6 2.2 -51.6 2.2 -51.9 2.2 -51.95 10.15 -51.95 10.15 -51.8 M1.1 -52.55 L0.5 -52.25 -1.75 -57.25 -4.05 -52.25 -4.35 -52.4 -4.65 -52.55 -1.75 -58.8 1.1 -52.55 M-5.25 -48.9 L-4.9 -48.6 -5.15 -48.35 -6.0 -47.25 Q-6.35 -46.5 -6.35 -45.5 -6.35 -44.65 -6.0 -43.9 L-4.9 -42.4 -5.0 -42.25 -5.25 -42.05 -6.4 -43.7 Q-6.8 -44.55 -6.8 -45.5 -6.8 -46.6 -6.4 -47.45 L-5.25 -48.85 -5.25 -48.9 M-2.35 -39.75 L-2.05 -39.55 -5.35 -33.65 -5.65 -33.85 -2.35 -39.75 M-5.9 -33.5 L-5.9 -33.1 -8.3 -33.1 -8.3 -33.5 -5.9 -33.5 M-8.35 -33.5 L-8.35 -33.1 -10.75 -33.1 -10.75 -33.3 -10.75 -33.5 -8.35 -33.5 M-11.05 -33.15 L-10.8 -33.15 -10.8 -32.8 -18.75 -32.8 -18.75 -33.15 -11.05 -33.15 M-18.8 -32.8 L-26.75 -32.8 -26.75 -33.15 -18.8 -33.15 -18.8 -32.8 M-26.8 -32.8 L-34.1 -32.8 -34.75 -32.8 -34.75 -33.15 -26.8 -33.15 -26.8 -32.8 M-34.1 -31.35 L-33.8 -31.15 -36.8 -25.75 -37.0 -25.4 -37.3 -25.4 -37.4 -25.45 -34.1 -31.35 M-36.55 -24.55 L-36.25 -24.35 -39.55 -18.45 -39.85 -18.65 -36.55 -24.55 M-39.55 -15.4 L-38.8 -15.4 -38.8 -14.85 -41.8 -14.85 Q-42.6 -14.85 -43.15 -14.3 -43.6 -13.85 -43.6 -13.15 -43.6 -12.45 -43.15 -12.0 -42.6 -11.45 -41.8 -11.45 L-38.8 -11.45 -38.8 -10.85 -41.8 -10.85 Q-42.9 -10.85 -43.55 -11.5 -44.2 -12.2 -44.2 -13.15 -44.2 -14.1 -43.55 -14.75 -42.9 -15.4 -41.8 -15.4 L-39.55 -15.4 M-34.7 -10.25 L-31.4 -16.15 -31.1 -15.95 -34.4 -10.05 -34.7 -10.25 M-30.25 -18.45 L-30.55 -18.65 -27.25 -24.55 -26.95 -24.35 -30.25 -18.45 M-27.25 -25.6 L-27.85 -25.6 -27.85 -26.3 -27.1 -26.3 -27.1 -26.0 -27.1 -25.6 -27.25 -25.6 M-26.65 -26.0 L-26.65 -26.35 -18.7 -26.35 -18.7 -26.0 -26.65 -26.0 M-18.65 -26.0 L-18.65 -26.35 -10.7 -26.35 -10.7 -26.0 -12.65 -26.0 -18.65 -26.0 M-12.65 -24.55 L-12.35 -24.35 -15.65 -18.45 -15.95 -18.65 -12.65 -24.55 M-16.8 -16.15 L-16.5 -15.95 -19.8 -10.05 -20.1 -10.25 -16.8 -16.15 M-20.65 -7.75 L-20.35 -7.55 -23.65 -1.65 -23.95 -1.85 -20.65 -7.75 M-23.5 -0.35 L-22.9 -0.35 -22.9 7.6 -23.4 7.6 -23.5 7.6 -23.5 -0.35 M-23.4 9.45 L-16.6 15.1 -16.85 15.45 -16.95 15.5 -23.75 9.85 -23.4 9.45 M-16.15 16.05 L-8.2 16.05 -8.2 16.4 -15.35 16.4 -16.15 16.4 -16.15 16.05 M-15.35 17.85 L-15.05 18.05 -18.35 23.95 -18.65 23.75 -15.35 17.85 M-18.2 24.65 L-17.9 24.85 -21.2 30.75 -21.45 30.55 -21.5 30.55 -21.45 30.5 -18.2 24.65 M-23.7 36.6 L-19.45 33.05 -19.1 33.45 -25.9 39.1 -26.25 38.7 -23.7 36.6 M-27.95 41.05 L-27.6 41.45 -34.4 47.1 -34.75 46.7 -27.95 41.05 M-36.7 49.4 L-37.8 50.75 Q-38.15 51.5 -38.15 52.5 -38.15 53.35 -37.8 54.1 L-36.7 55.6 -37.05 55.95 -38.2 54.3 Q-38.6 53.45 -38.6 52.5 -38.6 51.4 -38.2 50.55 L-37.05 49.1 -36.7 49.4 M-34.85 58.45 L-26.9 58.45 -26.9 58.75 -34.85 58.75 -34.85 58.45 M-26.85 58.45 L-18.9 58.45 -18.9 58.75 -26.85 58.75 -26.85 58.45 M-16.5 55.95 L-16.8 55.6 -15.75 54.1 Q-15.4 53.35 -15.4 52.5 -15.4 51.5 -15.75 50.75 -16.05 50.1 -16.8 49.4 L-16.5 49.1 -15.6 50.05 -15.3 50.55 Q-14.9 51.4 -14.9 52.5 -14.9 53.45 -15.3 54.3 L-16.5 55.95 M-17.5 48.75 L-25.45 48.75 -25.45 48.45 -21.1 48.45 -17.5 48.45 -17.5 48.75 M-21.1 47.1 L-21.45 46.7 -14.65 41.05 -14.3 41.45 -21.1 47.1 M-12.7 40.75 L-11.95 40.75 -11.95 46.35 Q-10.85 46.0 -9.95 45.2 L-8.8 43.8 -8.55 43.3 -8.35 43.55 -8.05 43.9 Q-8.65 45.1 -9.7 45.9 -10.8 46.8 -12.3 47.2 L-12.7 46.65 -12.7 40.75 M-5.65 39.15 L-5.75 39.1 -5.95 38.95 -2.65 33.05 -2.35 33.25 -5.65 39.15 M-3.65 30.7 L-4.0 30.3 2.8 24.65 3.15 25.05 -3.65 30.7 M4.5 23.9 L4.15 23.5 10.95 17.85 11.3 18.25 4.5 23.9 M12.35 15.5 L5.55 9.85 5.65 9.8 5.9 9.45 12.7 15.1 12.35 15.5 M3.1 7.25 L3.1 7.3 0.7 7.3 0.7 6.9 3.1 6.9 3.1 7.25 M0.65 7.3 L-1.75 7.3 -1.75 6.9 0.65 6.9 0.65 7.3 M-2.4 7.3 L-2.4 7.6 -3.0 7.6 -3.0 7.3 -3.0 7.25 -3.0 -0.35 -2.4 -0.35 -2.4 7.3 M-3.7 7.3 L-3.7 7.6 -11.65 7.6 -11.65 7.25 -3.7 7.25 -3.7 7.3 M-1.45 -1.75 L-1.6 -1.85 1.7 -7.75 2.0 -7.55 -1.3 -1.65 -1.45 -1.75 M2.55 -10.05 L2.25 -10.25 5.55 -16.15 5.85 -15.95 2.55 -10.05 M6.7 -18.45 L6.4 -18.65 9.7 -24.55 10.0 -24.35 6.7 -18.45 M10.6 -24.15 L10.95 -24.55 17.75 -18.9 17.4 -18.5 17.35 -18.55 10.6 -24.15 M19.05 -16.15 L25.85 -10.5 25.5 -10.1 18.7 -15.75 18.8 -15.85 19.05 -16.15 M29.15 -10.5 L35.95 -16.15 36.1 -15.95 36.3 -15.75 29.5 -10.1 29.15 -10.5 M37.35 -18.55 L37.05 -18.9 43.85 -24.55 44.2 -24.15 37.4 -18.5 37.35 -18.55 M2.9 -49.05 L1.3 -47.7 0.55 -47.7 1.75 -49.05 2.9 -49.05 M9.85 -48.85 L9.85 -43.35 10.55 -43.35 10.55 -41.65 9.95 -41.65 9.95 -42.75 5.55 -42.75 5.55 -41.65 4.95 -41.65 4.95 -43.35 5.45 -43.35 Q6.4 -44.65 6.4 -46.7 L6.4 -48.85 9.85 -48.85 M-2.6 -43.5 L-1.9 -43.5 -1.9 -42.8 -2.3 -42.0 -2.6 -42.0 -2.3 -42.8 -2.6 -42.8 -2.6 -43.5 M-1.9 -45.65 L-2.6 -45.65 -2.6 -46.35 -1.9 -46.35 -1.9 -45.65 M7.05 -48.25 L7.05 -46.7 Q7.05 -44.65 6.2 -43.35 L9.2 -43.35 9.2 -48.25 7.05 -48.25 M13.55 -49.05 L14.7 -47.7 14.0 -47.7 12.45 -49.05 13.55 -49.05 M-37.3 -27.0 L-37.0 -27.0 -37.1 -26.85 -37.3 -27.0 M-34.95 -9.9 L-34.95 -9.5 -37.35 -9.5 -37.35 -9.9 -34.95 -9.9 M21.65 -27.0 L21.85 -27.0 21.75 -26.9 21.65 -27.0 M28.7 -9.5 L26.3 -9.5 26.3 -9.9 28.7 -9.9 28.7 -9.5 M-2.0 18.25 L-8.8 23.9 -9.15 23.5 -2.35 17.85 -2.0 18.25 M-0.2 16.4 L-8.15 16.4 -8.15 16.05 -0.2 16.05 -0.2 16.4 M-10.15 25.05 L-16.95 30.7 -17.3 30.3 -10.5 24.65 -10.15 25.05 M-12.1 32.05 L-12.1 40.0 -12.7 40.0 -12.7 32.05 -12.1 32.05" fill="#000000" fill-rule="evenodd" stroke="none"/>
  </g>
</svg>
