<svg xmlns:xlink="http://www.w3.org/1999/xlink" height="143.1px" width="100.85px" xmlns="http://www.w3.org/2000/svg">
  <g transform="matrix(1.0, 0.0, 0.0, 1.0, 39.95, 143.45)">
    <path d="M17.2 -0.45 L4.4 -0.35 -8.45 -0.45 -13.75 -0.7 -8.45 -0.95 4.4 -1.05 17.2 -0.95 22.55 -0.7 17.2 -0.45" fill="#000000" fill-rule="evenodd" stroke="none"/>
    <path d="M20.7 -137.75 L21.65 -139.05 21.95 -140.45 21.65 -141.95 20.7 -143.15 21.0 -143.45 22.0 -142.15 Q22.35 -141.4 22.35 -140.45 22.35 -139.6 22.0 -138.85 L21.0 -137.45 20.7 -137.75 M17.85 -142.95 L15.3 -138.4 14.95 -137.8 14.65 -137.95 17.55 -143.1 17.85 -142.95 M14.3 -135.1 L14.6 -134.95 11.7 -129.8 11.4 -129.95 14.3 -135.1 M10.15 -125.95 L10.75 -127.1 11.05 -126.95 8.15 -121.8 7.85 -121.95 10.15 -125.95 M8.25 -119.1 L8.55 -118.95 5.7 -113.85 5.65 -113.8 5.35 -113.95 8.25 -119.1 M5.35 -111.1 L5.65 -110.95 2.75 -105.8 2.45 -105.95 5.35 -111.1 M1.45 -103.1 L1.75 -102.95 -1.15 -97.8 -1.45 -97.95 1.45 -103.1 M-1.0 -94.55 L-0.7 -95.1 -0.4 -94.95 -3.3 -89.8 -3.6 -89.95 -1.0 -94.55 M-3.75 -88.0 L-3.75 -81.05 -4.3 -81.05 -4.3 -88.0 -3.75 -88.0 M-5.15 -80.0 L-5.15 -73.05 -5.7 -73.05 -5.7 -80.0 -5.15 -80.0 M-5.7 -72.0 L-5.15 -72.0 -5.15 -65.95 -5.15 -65.05 -5.7 -65.05 -5.7 -72.0 M-5.05 -62.95 L-7.6 -58.4 -7.95 -57.8 -8.25 -57.95 -5.35 -63.1 -5.05 -62.95 M-7.55 -54.95 L-10.15 -50.35 -10.45 -49.8 -10.75 -49.95 -7.85 -55.1 -7.55 -54.95 M-10.4 -46.35 L-10.0 -47.1 -9.7 -46.95 -12.6 -41.8 -12.9 -41.95 -10.4 -46.35 M-13.9 -39.15 L-13.6 -38.8 -19.55 -33.8 -19.85 -34.15 -13.9 -39.15 M-21.8 -31.1 L-21.5 -30.95 -24.4 -25.8 -24.7 -25.95 -21.8 -31.1 M-24.9 -25.65 L-24.9 -25.3 -27.0 -25.3 -27.0 -25.65 -24.9 -25.65 M-30.25 -22.95 Q-30.4 -21.25 -31.2 -19.85 L-32.4 -18.35 -33.35 -17.7 -33.8 -18.25 Q-31.1 -19.8 -30.9 -23.15 L-30.25 -22.95 M-35.25 -14.5 L-35.25 -13.95 -37.85 -13.95 Q-38.55 -13.95 -39.0 -13.5 -39.4 -13.1 -39.4 -12.5 -39.4 -11.9 -39.0 -11.5 -38.55 -11.0 -37.85 -11.0 L-36.55 -11.0 -35.25 -11.0 -35.25 -10.5 -37.85 -10.5 Q-38.8 -10.5 -39.35 -11.05 -39.95 -11.65 -39.95 -12.5 -39.95 -13.3 -39.35 -13.9 -38.8 -14.5 -37.85 -14.5 L-35.25 -14.5 M-31.6 -12.25 L-31.6 -12.7 -29.45 -12.7 -28.5 -12.7 -28.5 -12.25 -31.6 -12.25 M-27.9 -13.45 L-27.6 -14.25 -27.9 -14.25 -27.9 -14.85 -27.25 -14.85 -27.25 -14.4 -27.25 -14.25 -27.6 -13.45 -27.9 -13.45 M-24.25 -17.8 L-24.55 -18.15 -19.05 -22.75 -18.6 -23.15 -18.3 -22.8 -24.25 -17.8 M-16.05 -25.8 L-16.35 -26.15 -10.4 -31.15 -10.1 -30.8 -16.05 -25.8 M-7.75 -33.7 L-8.2 -34.25 Q-5.5 -35.8 -5.3 -39.15 L-4.65 -38.95 Q-4.8 -37.25 -5.6 -35.85 -6.4 -34.5 -7.75 -33.7 M-2.6 -41.95 L-0.2 -46.2 0.3 -47.1 0.6 -46.95 -2.3 -41.8 -2.6 -41.95 M0.05 -49.8 L-0.25 -50.15 4.35 -53.95 4.65 -54.25 5.7 -55.15 6.0 -54.8 0.05 -49.8 M9.4 -58.15 L15.35 -63.15 15.65 -62.8 9.7 -57.8 9.4 -58.15 M19.0 -66.15 L24.95 -71.15 25.25 -70.8 19.3 -65.8 19.0 -66.15 M26.5 -74.3 L29.2 -79.1 29.5 -78.95 26.6 -73.8 26.3 -73.95 26.5 -74.3 M30.6 -82.15 L36.55 -87.15 36.85 -86.8 30.9 -81.8 30.6 -82.15 M39.3 -89.95 L42.2 -95.1 42.5 -94.95 39.6 -89.8 39.3 -89.95 M44.5 -97.3 L42.4 -97.3 42.4 -97.65 44.5 -97.65 44.5 -97.3 M44.55 -97.65 L46.65 -97.65 46.65 -97.3 44.55 -97.3 44.55 -97.65 M47.2 -98.05 L47.05 -98.25 Q49.75 -99.8 49.95 -103.15 L50.6 -102.95 Q50.45 -101.25 49.65 -99.85 48.85 -98.5 47.5 -97.7 L47.2 -98.05 M57.85 -106.15 L57.7 -106.75 Q59.3 -106.75 59.9 -107.4 60.3 -107.85 60.3 -108.7 L60.0 -109.6 Q59.7 -109.95 59.2 -109.95 L57.85 -109.7 56.3 -109.05 56.05 -109.7 57.8 -110.3 59.15 -110.55 Q59.85 -110.55 60.3 -110.15 60.95 -109.6 60.9 -108.45 60.85 -107.3 60.0 -106.7 59.25 -106.15 57.85 -106.15 M55.55 -108.7 L55.55 -108.25 52.45 -108.25 52.45 -108.7 52.65 -108.7 55.55 -108.7 M49.1 -106.7 L49.75 -106.7 49.75 -106.1 49.4 -105.35 49.1 -105.35 49.4 -106.1 49.1 -106.1 49.1 -106.7 M42.0 -102.8 L37.3 -98.85 36.05 -97.8 35.75 -98.15 41.7 -103.15 42.0 -102.8 M35.55 -94.5 L36.3 -95.15 36.6 -94.8 30.65 -89.8 30.35 -90.15 35.55 -94.5 M24.95 -90.15 L24.65 -89.8 18.7 -94.8 19.0 -95.15 24.95 -90.15 M24.55 -97.45 L24.25 -97.75 25.2 -99.05 25.5 -100.45 25.2 -101.95 24.25 -103.15 24.55 -103.45 25.55 -102.15 Q25.9 -101.4 25.9 -100.45 25.9 -99.6 25.55 -98.85 25.25 -98.2 24.55 -97.45 M23.45 -106.05 L21.95 -110.8 21.9 -110.8 20.4 -106.05 19.75 -106.05 21.5 -111.4 22.35 -111.4 24.1 -106.05 23.45 -106.05 M18.4 -105.35 L18.4 -105.05 11.45 -105.05 11.45 -105.35 18.4 -105.35 M9.5 -107.7 L8.4 -105.8 8.1 -105.95 10.55 -110.3 11.0 -111.1 11.3 -110.95 9.5 -107.7 M11.3 -113.8 L11.0 -113.95 13.55 -118.5 13.9 -119.1 14.2 -118.95 11.3 -113.8 M13.8 -121.8 L13.5 -121.95 15.8 -125.95 16.4 -127.1 16.7 -126.95 13.8 -121.8 M17.05 -129.95 L19.95 -135.1 20.25 -134.95 17.35 -129.8 17.05 -129.95 M4.2 -97.95 L7.1 -103.1 7.4 -102.95 4.5 -97.8 4.2 -97.95 M19.15 -98.55 L19.15 -97.05 18.6 -97.05 18.6 -98.05 14.8 -98.05 14.8 -97.05 14.25 -97.05 14.25 -98.55 14.7 -98.55 Q15.5 -99.7 15.5 -101.5 L15.5 -103.4 18.55 -103.4 18.55 -98.55 19.15 -98.55 M20.8 -103.6 L21.8 -103.6 22.8 -102.35 22.15 -102.35 20.8 -103.6 M18.0 -102.85 L16.05 -102.85 16.05 -101.5 Q16.05 -99.7 15.35 -98.55 L18.0 -98.55 18.0 -102.85 M10.4 -102.35 L11.45 -103.6 12.45 -103.6 11.05 -102.35 10.4 -102.35 M20.5 -82.3 Q18.95 -83.95 18.05 -85.6 L17.8 -85.75 17.55 -85.6 16.95 -84.5 16.05 -83.25 15.6 -83.8 17.1 -86.0 17.5 -86.35 17.75 -86.45 18.35 -86.15 Q19.4 -84.35 21.0 -82.85 L20.5 -82.3 M15.1 -78.85 Q15.35 -78.8 15.1 -78.7 L15.1 -74.65 Q15.9 -75.0 16.35 -75.5 16.95 -76.1 17.3 -77.0 L17.75 -76.55 16.7 -75.0 Q15.95 -74.3 15.05 -73.95 L14.9 -73.85 14.45 -74.3 14.55 -74.4 14.55 -78.9 15.1 -78.85 M27.7 -86.8 L21.75 -81.8 21.45 -82.15 27.4 -87.15 27.7 -86.8 M18.35 -78.25 L18.35 -78.85 19.0 -78.85 19.0 -78.25 18.65 -77.45 18.35 -77.45 18.65 -78.25 18.35 -78.25 M40.3 -77.05 L40.05 -77.7 41.8 -78.3 43.15 -78.55 Q43.85 -78.55 44.3 -78.15 44.95 -77.6 44.9 -76.45 44.85 -75.3 44.0 -74.7 43.25 -74.15 41.85 -74.15 L41.7 -74.75 Q43.3 -74.75 43.9 -75.4 44.3 -75.85 44.3 -76.7 L44.0 -77.6 Q43.7 -77.95 43.2 -77.95 L41.85 -77.7 40.3 -77.05 M39.2 -74.4 L33.25 -74.4 33.25 -75.0 39.2 -75.0 39.2 -74.4 M31.05 -73.55 L30.85 -73.35 30.75 -73.5 29.95 -74.5 30.3 -75.0 31.25 -73.85 31.05 -73.55 M34.0 -78.35 L34.0 -78.7 38.5 -78.7 38.5 -78.1 34.0 -78.1 34.0 -78.35" fill="#000000" fill-rule="evenodd" stroke="none"/>
    <path d="M20.7 -143.15 L21.65 -141.95 21.95 -140.45 21.65 -139.05 20.7 -137.75 19.95 -135.1 17.05 -129.95 Q16.1 -128.35 15.8 -125.95 L13.5 -121.95 13.8 -121.8 Q13.45 -120.4 13.55 -118.5 L11.0 -113.95 11.3 -113.8 10.55 -110.3 8.1 -105.95 8.4 -105.8 9.5 -107.7 Q10.4 -105.75 11.45 -105.05 L18.4 -105.05 18.4 -105.35 19.15 -105.7 20.4 -106.05 21.9 -110.8 21.95 -110.8 23.45 -106.05 Q23.5 -104.85 24.55 -103.45 L24.25 -103.15 25.2 -101.95 25.5 -100.45 25.2 -99.05 24.25 -97.75 24.55 -97.45 24.4 -97.35 19.75 -95.45 19.0 -95.15 18.7 -94.8 24.65 -89.8 24.95 -90.15 Q26.4 -89.25 27.95 -89.55 L30.35 -90.15 30.65 -89.8 36.6 -94.8 36.3 -95.15 35.55 -94.5 Q35.95 -97.0 37.3 -98.85 L42.0 -102.8 42.85 -103.4 Q45.8 -104.95 47.5 -107.3 L49.1 -106.7 47.9 -107.75 50.15 -110.15 Q52.35 -112.15 52.85 -109.75 52.95 -109.15 52.65 -108.8 L52.65 -108.7 52.45 -108.7 52.45 -108.25 55.55 -108.25 55.55 -108.7 56.3 -109.05 57.85 -109.7 59.2 -109.95 Q59.7 -109.95 60.0 -109.6 L60.3 -108.7 Q60.3 -107.85 59.9 -107.4 59.3 -106.75 57.7 -106.75 L57.85 -106.15 Q53.55 -104.35 50.6 -102.95 L49.95 -103.15 Q49.75 -99.8 47.05 -98.25 L47.2 -98.05 46.65 -97.65 44.55 -97.65 44.5 -97.65 42.4 -97.65 42.4 -97.3 44.5 -97.3 42.5 -94.95 42.2 -95.1 39.3 -89.95 38.45 -89.1 36.55 -87.15 30.6 -82.15 30.65 -81.85 Q30.75 -80.65 29.5 -78.95 L29.2 -79.1 26.5 -74.3 Q25.45 -74.35 26.3 -73.9 L24.95 -71.15 19.0 -66.15 Q16.85 -65.2 15.35 -63.15 L9.4 -58.15 8.45 -57.7 5.55 -55.25 4.65 -54.25 Q3.9 -54.8 4.35 -53.95 L-0.25 -50.15 0.05 -49.8 Q-0.25 -48.45 -1.05 -46.7 L-0.2 -46.2 -2.6 -41.95 -3.15 -41.15 Q-4.55 -39.7 -5.3 -39.15 -5.5 -35.8 -8.2 -34.25 L-7.75 -33.7 -10.05 -30.85 -10.4 -31.15 -16.35 -26.15 -16.05 -25.8 -19.05 -22.75 -24.55 -18.15 -24.25 -17.8 Q-26.05 -16.1 -27.25 -14.4 L-27.25 -14.85 -27.9 -14.85 -27.9 -14.25 -27.6 -14.25 -27.9 -13.45 Q-28.65 -13.0 -29.45 -12.7 L-31.6 -12.7 -31.6 -12.25 -31.6 -12.15 -32.85 -12.1 Q-35.05 -11.9 -36.55 -11.0 L-37.85 -11.0 Q-38.55 -11.0 -39.0 -11.5 -39.4 -11.9 -39.4 -12.5 -39.4 -13.1 -39.0 -13.5 -38.55 -13.95 -37.85 -13.95 L-35.25 -13.95 -35.25 -14.5 -35.85 -15.0 Q-34.55 -16.8 -33.35 -17.7 L-32.4 -18.35 -31.2 -19.85 Q-30.4 -21.25 -30.25 -22.95 L-30.65 -23.45 Q-29.25 -25.2 -27.0 -25.3 L-24.9 -25.3 -24.9 -25.65 -24.7 -25.95 -24.4 -25.8 -21.5 -30.95 -21.8 -31.1 -19.85 -34.15 -19.55 -33.8 -13.6 -38.8 -13.9 -39.15 -12.6 -41.8 -9.7 -46.95 -10.0 -47.1 -10.4 -46.35 Q-10.3 -48.25 -10.45 -49.8 -9.6 -49.95 -10.15 -50.35 L-7.55 -54.95 -7.6 -55.1 Q-7.95 -56.7 -7.6 -58.4 L-5.05 -62.95 Q-4.65 -64.15 -4.85 -65.1 L-5.15 -65.95 -5.15 -72.0 -5.7 -72.0 -5.7 -73.05 -5.15 -73.05 -5.15 -80.0 -4.3 -81.05 -3.75 -81.05 -3.75 -88.0 -3.3 -89.8 -0.4 -94.95 -0.7 -95.1 -1.0 -94.55 Q-1.4 -96.25 -1.15 -97.8 L1.75 -102.95 1.45 -103.1 Q1.4 -104.4 2.45 -105.95 L2.75 -105.8 5.65 -110.95 5.35 -111.1 Q5.2 -112.65 5.7 -113.8 L5.7 -113.85 8.55 -118.95 8.25 -119.1 8.15 -121.8 11.05 -126.95 10.75 -127.1 10.15 -125.95 11.7 -129.8 14.6 -134.95 14.3 -135.1 Q14.95 -136.15 15.2 -137.7 L15.3 -138.4 17.85 -142.95 20.7 -143.15 M49.1 -106.7 L49.1 -106.1 49.4 -106.1 49.1 -105.35 49.4 -105.35 49.75 -106.1 49.75 -106.7 49.1 -106.7 M4.2 -97.95 L4.5 -97.8 7.4 -102.95 7.1 -103.1 4.2 -97.95 M10.4 -102.35 L11.05 -102.35 12.45 -103.6 11.45 -103.6 10.4 -102.35 M18.0 -102.85 L18.0 -98.55 15.35 -98.55 Q16.05 -99.7 16.05 -101.5 L16.05 -102.85 18.0 -102.85 M20.8 -103.6 L22.15 -102.35 22.8 -102.35 21.8 -103.6 20.8 -103.6 M19.15 -98.55 L18.55 -98.55 18.55 -103.4 15.5 -103.4 15.5 -101.5 Q15.5 -99.7 14.7 -98.55 L14.25 -98.55 14.25 -97.05 14.8 -97.05 14.8 -98.05 18.6 -98.05 18.6 -97.05 19.15 -97.05 19.15 -98.55 M15.6 -83.8 Q15.65 -81.4 15.1 -78.85 L14.55 -78.9 14.55 -74.4 14.45 -74.3 14.9 -73.85 15.05 -73.95 Q15.95 -74.3 16.7 -75.0 L17.75 -76.55 17.3 -77.0 Q18.4 -79.85 20.5 -82.3 L21.0 -82.85 Q19.4 -84.35 18.35 -86.15 L17.75 -86.45 17.5 -86.35 17.1 -86.0 15.6 -83.8 M27.7 -86.8 L27.4 -87.15 21.45 -82.15 21.75 -81.8 27.7 -86.8 M18.35 -78.25 L18.65 -78.25 18.35 -77.45 18.65 -77.45 19.0 -78.25 19.0 -78.85 18.35 -78.85 18.35 -78.25 M41.7 -74.75 L39.2 -74.4 39.2 -75.0 33.25 -75.0 33.25 -74.4 Q32.2 -73.8 31.05 -73.55 L31.25 -73.85 30.3 -75.0 29.95 -74.5 30.75 -73.5 26.6 -73.8 29.5 -78.95 34.0 -78.35 34.0 -78.1 38.5 -78.1 40.3 -77.05 41.85 -77.7 43.2 -77.95 Q43.7 -77.95 44.0 -77.6 L44.3 -76.7 Q44.3 -75.85 43.9 -75.4 43.3 -74.75 41.7 -74.75" fill="#ffffff" fill-rule="evenodd" stroke="none"/>
  </g>
</svg>
