<?xml version="1.0" encoding="UTF-8" standalone="no"?>
<svg xmlns:xlink="http://www.w3.org/1999/xlink" height="94.15px" width="134.0px" xmlns="http://www.w3.org/2000/svg">
  <g transform="matrix(1.0, 0.0, 0.0, 1.0, 61.95, 94.15)">
    <path d="M-6.7 -87.05 L-6.05 -86.75 -3.45 -92.4 -0.9 -86.75 -0.25 -87.05 Q0.65 -87.0 0.9 -86.35 L1.0 -86.0 9.95 -86.0 10.25 -86.15 11.3 -87.05 11.95 -86.75 14.55 -92.4 17.1 -86.75 18.75 -83.25 18.55 -83.05 18.35 -83.25 17.95 -82.9 19.2 -81.35 Q19.55 -80.55 19.55 -79.4 19.55 -78.45 19.2 -77.6 L17.95 -75.9 18.35 -75.5 Q15.5 -73.6 15.8 -71.6 L15.55 -71.6 15.2 -71.8 11.45 -65.2 11.8 -64.95 15.2 -70.9 16.3 -70.3 16.65 -70.05 18.3 -71.35 20.25 -71.75 22.1 -71.35 Q22.8 -71.0 23.8 -70.05 L24.2 -70.3 24.9 -70.3 25.65 -69.75 Q28.3 -68.0 29.65 -66.05 31.05 -64.45 31.7 -61.95 L31.7 -53.0 32.4 -53.0 33.3 -50.95 33.3 -53.0 42.05 -53.0 42.1 -53.0 51.05 -53.0 51.05 -53.4 51.55 -49.85 43.9 -43.45 44.3 -43.0 51.95 -49.4 62.4 -40.6 62.2 -40.4 69.85 -34.0 70.05 -34.2 72.05 -32.55 61.6 -23.45 49.8 -13.2 49.75 -13.25 42.1 -19.65 41.7 -19.2 47.45 -14.4 39.1 -7.7 38.95 -7.85 31.9 -1.95 30.15 -0.55 30.15 -8.95 29.45 -8.95 29.45 0.0 1.15 0.0 1.15 -1.2 Q1.65 -1.2 2.1 -1.8 L2.8 -3.0 2.1 -3.5 1.75 -2.65 Q1.45 -2.1 1.05 -2.1 0.7 -2.1 0.55 -2.7 L0.35 -4.75 0.5 -7.1 Q0.9 -7.35 0.45 -7.45 L-0.25 -7.6 -0.4 -4.75 -0.35 -3.65 -0.15 -2.2 -0.15 0.0 -43.1 0.0 -43.1 -8.95 -43.05 -11.0 -42.85 -11.0 -42.85 -19.95 -42.9 -19.95 -42.85 -22.0 -42.85 -30.95 -42.15 -30.95 -42.15 -30.6 -33.2 -30.6 -33.2 -31.0 -42.15 -31.0 -43.05 -30.95 -43.05 -33.35 -41.95 -34.95 -35.5 -40.4 -35.9 -40.85 -38.25 -38.85 -36.2 -41.05 -34.4 -43.0 -26.75 -49.4 -27.15 -49.85 Q-26.4 -51.0 -26.05 -52.95 L-26.0 -53.4 -26.0 -53.0 -17.05 -53.0 -16.8 -53.2 -16.45 -53.95 -12.7 -60.6 -13.05 -60.8 -13.0 -60.85 Q-11.45 -62.05 -10.7 -64.95 L-6.95 -71.6 Q-6.3 -72.7 -4.45 -73.3 -5.95 -74.2 -7.5 -75.9 L-8.7 -77.6 Q-9.1 -78.45 -9.1 -79.4 -9.1 -80.55 -8.7 -81.35 L-7.5 -82.9 -7.85 -83.25 Q-7.0 -84.6 -6.7 -87.05 M33.3 -50.95 L33.3 -42.0 34.0 -42.0 34.0 -50.95 33.3 -50.95 M-4.5 -83.4 L-5.85 -81.85 -5.05 -81.85 -3.25 -83.4 -4.5 -83.4 M0.75 -83.2 L0.75 -80.75 Q0.75 -78.45 -0.3 -77.0 L-0.9 -77.0 -0.9 -75.05 -0.2 -75.05 -0.2 -76.3 4.7 -76.3 4.7 -75.05 5.4 -75.05 5.4 -77.0 4.6 -77.0 4.6 -83.2 0.75 -83.2 M-20.95 -48.35 L-20.35 -49.25 -19.75 -49.9 -20.1 -50.25 -21.45 -48.6 Q-21.9 -47.65 -21.9 -46.4 -21.9 -45.3 -21.45 -44.35 L-20.1 -42.5 -19.75 -42.9 -20.95 -44.6 Q-21.35 -45.45 -21.35 -46.4 -21.35 -47.55 -20.95 -48.35 M0.8 -60.6 L0.45 -60.8 -3.3 -54.2 -2.95 -53.95 0.8 -60.6 M-8.0 -60.75 L-6.15 -60.35 -4.45 -59.05 -4.05 -59.3 -5.7 -60.65 Q-6.75 -61.25 -8.0 -61.25 -9.15 -61.25 -10.3 -60.65 L-11.95 -59.3 -11.6 -59.05 Q-10.7 -60.0 -9.95 -60.35 L-8.0 -60.75 M-11.85 -48.35 Q-12.55 -49.0 -13.95 -49.0 L-16.55 -48.5 -18.5 -47.95 -18.1 -47.05 -16.1 -47.85 -14.05 -48.3 Q-13.0 -48.3 -12.55 -47.85 -12.0 -47.3 -12.0 -46.5 -12.0 -45.7 -12.55 -45.2 -13.35 -44.35 -16.0 -44.3 L-15.8 -43.5 Q-13.0 -43.55 -11.85 -44.75 -11.2 -45.35 -11.2 -46.55 -11.2 -47.7 -11.85 -48.35 M-3.35 -49.6 L-3.7 -49.8 -7.45 -43.2 -7.1 -42.95 -3.35 -49.6 M-24.1 -37.4 Q-24.1 -38.55 -23.7 -39.35 L-22.5 -40.9 -22.85 -41.25 -24.2 -39.6 Q-24.65 -38.65 -24.65 -37.4 -24.65 -36.3 -24.2 -35.35 L-22.85 -33.5 -22.5 -33.9 -23.7 -35.6 Q-24.1 -36.45 -24.1 -37.4 M-3.15 -42.4 L-3.15 -42.0 5.8 -42.0 5.8 -42.4 -3.15 -42.4 M-13.2 -8.2 L-13.9 -8.35 -14.15 -6.45 -15.9 -6.4 -15.75 -5.7 -14.25 -5.75 Q-14.65 -3.3 -15.6 -1.1 L-14.8 -0.85 -14.4 -2.0 Q-13.9 -3.6 -13.5 -5.8 L-11.8 -6.1 -11.9 -6.8 -13.4 -6.5 -13.1 -7.95 Q-12.8 -8.1 -13.2 -8.2 M-10.2 -7.7 L-10.3 -7.8 -10.35 -7.8 -10.35 -7.75 -10.7 -7.3 -9.3 -6.4 -9.0 -6.85 -10.2 -7.7 M-8.65 -0.95 L-8.65 -1.7 -10.2 -1.7 Q-11.5 -1.7 -12.4 -2.2 L-12.75 -1.55 Q-11.55 -0.95 -10.2 -0.95 L-8.65 -0.95 M-8.95 -5.35 L-9.1 -5.35 -9.15 -5.35 -11.6 -4.95 -12.25 -4.75 -12.05 -4.05 -8.85 -4.6 -8.95 -5.35 M-8.6 -7.1 L-8.55 -7.1 -8.3 -7.6 -9.65 -8.5 -10.0 -8.0 -8.6 -7.1 M-3.75 -6.0 L-1.7 -6.2 -1.9 -7.0 -4.0 -6.65 -4.45 -8.15 Q-4.2 -8.35 -4.5 -8.4 L-5.25 -8.4 -4.8 -6.6 -7.55 -6.5 -7.35 -5.8 -4.5 -5.95 -3.35 -4.15 -4.9 -4.25 Q-6.2 -4.25 -6.85 -3.65 -7.25 -3.25 -7.25 -2.6 L-7.2 -2.35 Q-7.15 -1.8 -6.7 -1.4 -6.0 -0.65 -4.15 -0.65 L-2.8 -0.65 -2.65 -1.45 -3.85 -1.45 Q-5.7 -1.45 -6.2 -1.9 L-6.5 -2.6 -6.3 -3.2 Q-5.85 -3.65 -4.65 -3.65 -3.4 -3.65 -2.1 -3.05 L-1.6 -3.7 Q-3.0 -4.65 -3.75 -6.0 M-20.05 -4.25 L-20.15 -4.55 -20.05 -4.8 -17.25 -7.7 Q-16.75 -7.6 -17.1 -7.95 L-17.7 -8.45 Q-18.4 -7.35 -20.65 -5.2 -21.05 -4.85 -21.05 -4.5 -21.05 -4.15 -20.5 -3.7 L-17.5 -0.7 -16.85 -1.3 -20.05 -4.25 M-27.85 -17.45 L-27.85 -16.8 -23.5 -16.8 -23.5 -17.45 -27.85 -17.45 M-29.25 -16.25 L-29.25 -15.6 -23.85 -15.6 -23.85 -14.9 Q-23.85 -12.8 -23.2 -12.05 -22.25 -11.05 -21.85 -12.15 L-21.65 -13.05 -22.35 -13.5 -22.45 -12.9 Q-22.5 -12.5 -22.75 -12.8 -23.15 -13.3 -23.15 -14.8 L-23.15 -16.25 -29.25 -16.25 M-25.35 -15.45 L-26.35 -14.2 -27.95 -15.1 -28.45 -14.5 -26.95 -13.6 Q-27.85 -12.9 -29.35 -12.35 L-28.95 -11.6 Q-27.5 -12.05 -26.3 -13.15 L-25.0 -11.95 -24.45 -12.65 -25.7 -13.75 -24.8 -14.8 Q-24.55 -14.8 -24.7 -14.95 L-25.35 -15.45 M-22.4 -18.0 L-22.4 -18.7 -27.25 -18.7 -27.05 -19.1 Q-26.8 -19.15 -26.95 -19.3 L-27.65 -19.55 Q-28.25 -18.1 -29.55 -17.15 L-29.0 -16.55 Q-28.4 -16.95 -27.95 -17.5 L-27.6 -18.0 -22.4 -18.0 M-24.2 -30.6 L-24.2 -31.0 -33.15 -31.0 -33.15 -30.6 -24.2 -30.6 M-1.7 -12.3 Q-2.25 -12.3 -2.45 -12.55 L-2.6 -12.9 -2.4 -13.35 -1.65 -13.55 -0.7 -13.4 Q-0.7 -12.85 -1.0 -12.55 -1.25 -12.3 -1.7 -12.3 M-0.05 -16.2 L-0.7 -16.2 -0.7 -14.1 -1.65 -14.2 Q-2.55 -14.2 -3.0 -13.75 L-3.35 -12.9 Q-3.35 -12.35 -3.0 -12.0 -2.6 -11.6 -1.6 -11.6 -0.9 -11.6 -0.45 -12.05 -0.1 -12.4 0.0 -13.15 L1.4 -12.45 1.85 -13.15 0.0 -13.9 0.0 -15.95 Q0.3 -16.15 -0.05 -16.2 M-0.75 -17.4 L0.3 -17.05 1.6 -16.55 1.9 -17.3 -0.45 -18.1 -0.75 -17.4 M-2.45 -19.05 Q-2.25 -19.15 -2.55 -19.3 L-3.15 -19.5 -3.25 -19.05 -3.6 -17.8 -5.35 -17.75 -5.25 -17.0 -3.85 -17.05 Q-4.3 -15.5 -5.4 -13.6 L-4.7 -13.25 -4.15 -14.35 -3.05 -17.15 -1.45 -17.4 -1.6 -18.1 -2.85 -17.85 -2.55 -19.0 -2.45 -19.05 M-15.15 -13.45 Q-16.45 -13.4 -17.4 -14.3 L-17.9 -13.75 Q-16.8 -12.65 -15.15 -12.65 L-13.2 -12.65 -13.2 -13.45 -15.15 -13.45 M-19.2 -17.95 L-19.15 -18.4 Q-18.8 -18.65 -19.2 -18.7 L-19.9 -18.9 -20.05 -17.65 -20.25 -15.15 -20.2 -13.2 -20.15 -12.0 -19.35 -12.05 -19.45 -13.75 -19.5 -15.15 -19.2 -17.95 M-13.65 -17.2 L-13.65 -17.95 -17.6 -17.75 -17.6 -17.0 -13.65 -17.2 M-11.0 -18.95 L-11.75 -18.95 -11.75 -14.2 -11.7 -13.55 Q-11.65 -12.8 -11.3 -12.45 -10.7 -11.85 -9.45 -11.85 -7.65 -11.85 -6.15 -13.5 L-6.7 -14.2 Q-8.1 -12.65 -9.45 -12.65 -10.25 -12.65 -10.65 -13.0 -10.95 -13.35 -10.95 -14.2 L-10.95 -18.65 Q-10.7 -18.85 -11.0 -18.95 M-12.8 -33.0 L-12.8 -33.4 -21.75 -33.4 -21.75 -33.0 -12.8 -33.0 M-3.75 -33.4 L-3.75 -33.0 5.2 -33.0 5.2 -33.4 -3.75 -33.4 M-3.8 -33.0 L-3.8 -33.4 -12.75 -33.4 -12.75 -33.0 -3.8 -33.0 M42.45 -40.4 L42.05 -40.85 34.4 -34.45 34.8 -34.0 42.45 -40.4 M24.8 -60.6 L24.45 -60.8 20.7 -54.2 21.05 -53.95 24.8 -60.6 M5.5 -60.75 L7.35 -60.35 9.05 -59.05 9.45 -59.3 7.8 -60.65 Q6.75 -61.25 5.5 -61.25 4.35 -61.25 3.2 -60.65 L1.55 -59.3 1.9 -59.05 3.55 -60.35 Q4.45 -60.75 5.5 -60.75 M1.45 -80.75 L1.45 -82.5 3.9 -82.5 3.9 -77.0 0.5 -77.0 Q1.45 -78.45 1.45 -80.75 M8.8 -83.4 L7.5 -83.4 9.3 -81.85 10.1 -81.85 8.8 -83.4 M4.85 -7.1 L4.1 -6.7 Q5.4 -5.35 5.85 -2.85 L6.8 -3.1 Q6.45 -5.45 4.85 -7.1 M18.3 -15.85 L18.7 -16.3 17.35 -17.15 17.0 -16.75 18.25 -15.9 18.3 -15.85 M16.3 -15.9 L17.6 -15.05 17.95 -15.45 16.65 -16.35 16.3 -15.9 M16.45 -17.5 L17.15 -17.65 18.4 -17.75 18.25 -18.6 11.35 -17.75 11.55 -16.95 14.9 -17.4 Q13.6 -16.45 13.6 -14.8 13.6 -13.65 14.4 -12.85 15.25 -12.05 17.3 -11.95 L17.6 -12.7 Q15.6 -12.8 14.9 -13.5 14.35 -14.0 14.35 -14.85 14.35 -15.9 15.0 -16.55 L16.05 -17.3 16.45 -17.5 M3.2 -18.6 L3.1 -17.2 3.05 -15.75 3.25 -13.35 3.3 -13.2 Q3.7 -12.2 4.6 -12.2 5.1 -12.2 5.55 -12.8 L6.25 -14.0 5.55 -14.5 5.2 -13.65 Q4.9 -13.1 4.5 -13.1 4.15 -13.1 4.0 -13.7 L3.8 -15.75 3.95 -18.1 Q4.35 -18.35 3.9 -18.45 L3.2 -18.6 M8.3 -18.1 L7.55 -17.7 Q8.85 -16.35 9.3 -13.85 L10.25 -14.1 Q10.1 -15.25 9.6 -16.25 L8.3 -18.1 M7.95 -33.35 L7.95 -33.8 5.25 -33.8 5.25 -33.35 7.95 -33.35 M10.7 -33.35 L10.7 -33.8 8.0 -33.8 8.0 -33.35 10.7 -33.35 M19.8 -30.6 L19.8 -31.0 10.85 -31.0 10.85 -30.6 19.8 -30.6 M30.2 -19.95 L29.5 -19.95 29.5 -11.0 30.2 -11.0 30.2 -19.95 M30.25 -30.95 L29.55 -30.95 29.55 -22.0 30.25 -22.0 30.25 -30.95 M28.8 -30.6 L28.8 -31.0 19.85 -31.0 19.85 -30.6 28.8 -30.6 M39.45 -23.45 L31.8 -29.85 31.4 -29.4 39.05 -23.0 39.45 -23.45 M28.85 -39.4 L28.15 -38.75 Q30.8 -37.0 32.15 -35.05 L33.0 -35.8 Q31.7 -37.6 28.85 -39.4 M21.7 -49.85 L21.3 -49.4 28.95 -43.0 29.35 -43.45 21.7 -49.85 M15.05 -40.6 L14.7 -40.8 10.95 -34.2 11.0 -34.15 11.3 -33.95 15.05 -40.6 M10.15 -49.6 L9.8 -49.8 6.05 -43.2 6.4 -42.95 10.15 -49.6 M20.65 -49.6 L20.3 -49.8 16.55 -43.2 16.9 -42.95 20.65 -49.6 M14.3 -60.6 L13.95 -60.8 10.2 -54.2 10.55 -53.95 14.3 -60.6" fill="#ffffff" fill-rule="evenodd" stroke="none"/>
    <path d="M-0.25 -87.05 L-0.9 -86.75 -3.45 -92.4 -6.05 -86.75 -6.7 -87.05 -3.45 -94.15 -0.25 -87.05 M-7.85 -83.25 L-7.5 -82.9 -8.7 -81.35 Q-9.1 -80.55 -9.1 -79.4 -9.1 -78.45 -8.7 -77.6 L-7.5 -75.9 -7.85 -75.5 -9.2 -77.35 Q-9.65 -78.3 -9.65 -79.4 -9.65 -80.65 -9.2 -81.6 L-7.85 -83.25 M-6.95 -71.6 L-10.7 -64.95 -11.05 -65.2 -7.3 -71.8 -6.95 -71.6 M-13.05 -60.8 L-12.7 -60.6 -16.45 -53.95 -16.8 -54.2 -13.05 -60.8 M-17.05 -53.0 L-26.0 -53.0 -26.0 -53.4 -17.05 -53.4 -17.05 -53.0 M-27.15 -49.85 L-26.75 -49.4 -34.4 -43.0 -34.8 -43.45 -27.15 -49.85 M-38.25 -38.85 L-35.9 -40.85 -35.5 -40.4 -41.95 -34.95 -43.15 -34.0 -43.55 -34.45 -38.25 -38.85 M-42.15 -31.0 L-33.2 -31.0 -33.2 -30.6 -42.15 -30.6 -42.15 -30.95 -42.15 -31.0 M-42.85 -30.95 L-42.85 -22.0 -43.55 -22.0 -43.55 -30.95 -43.05 -30.95 -42.85 -30.95 M-42.9 -19.95 L-42.85 -19.95 -42.85 -11.0 -43.05 -11.0 -43.55 -11.0 -43.55 -19.95 -42.9 -19.95 M-43.1 -8.95 L-43.1 0.0 -43.8 0.0 -43.8 -8.95 -43.1 -8.95 M-0.15 -2.2 L-0.35 -3.65 -0.4 -4.75 -0.25 -7.6 0.45 -7.45 Q0.9 -7.35 0.5 -7.1 L0.35 -4.75 0.55 -2.7 Q0.7 -2.1 1.05 -2.1 1.45 -2.1 1.75 -2.65 L2.1 -3.5 2.8 -3.0 2.1 -1.8 Q1.65 -1.2 1.15 -1.2 0.25 -1.2 -0.15 -2.2 M29.45 0.0 L29.45 -8.95 30.15 -8.95 30.15 -0.55 30.15 0.0 29.45 0.0 M31.9 -1.95 L38.95 -7.85 39.1 -7.7 39.35 -7.4 31.7 -1.0 31.3 -1.45 31.9 -1.95 M47.45 -14.4 L41.7 -19.2 42.1 -19.65 49.75 -13.25 49.35 -12.8 47.45 -14.4 M70.05 -34.2 L69.85 -34.0 62.2 -40.4 62.4 -40.6 62.6 -40.85 70.25 -34.45 70.05 -34.2 M51.95 -49.4 L44.3 -43.0 43.9 -43.45 51.55 -49.85 51.95 -49.4 M51.05 -53.4 L51.05 -53.0 42.1 -53.0 42.1 -53.4 51.05 -53.4 M42.05 -53.0 L33.3 -53.0 33.1 -53.0 33.1 -53.4 42.05 -53.4 42.05 -53.0 M33.3 -50.95 L34.0 -50.95 34.0 -42.0 33.3 -42.0 33.3 -50.95 M32.4 -53.0 L31.7 -53.0 31.7 -61.95 32.4 -61.95 32.4 -53.0 M29.65 -66.05 Q28.3 -68.0 25.65 -69.75 L26.35 -70.4 Q29.2 -68.6 30.5 -66.8 L29.65 -66.05 M24.2 -70.3 L23.8 -70.05 Q22.8 -71.0 22.1 -71.35 L20.25 -71.75 18.3 -71.35 16.65 -70.05 16.3 -70.3 17.95 -71.65 Q19.1 -72.25 20.25 -72.25 21.5 -72.25 22.55 -71.65 L24.2 -70.3 M15.2 -70.9 L11.8 -64.95 11.45 -65.2 15.2 -71.8 15.55 -71.6 15.2 -70.9 M18.35 -75.5 L17.95 -75.9 19.2 -77.6 Q19.55 -78.45 19.55 -79.4 19.55 -80.55 19.2 -81.35 L17.95 -82.9 18.35 -83.25 18.55 -83.05 19.25 -82.25 19.65 -81.6 Q20.1 -80.65 20.1 -79.4 20.1 -78.3 19.65 -77.35 L18.35 -75.5 M17.1 -86.75 L14.55 -92.4 11.95 -86.75 11.3 -87.05 14.55 -94.15 17.75 -87.05 17.1 -86.75 M9.95 -86.0 L1.0 -86.0 1.0 -86.4 9.95 -86.4 9.95 -86.0 M0.75 -83.2 L4.6 -83.2 4.6 -77.0 5.4 -77.0 5.4 -75.05 4.7 -75.05 4.7 -76.3 -0.2 -76.3 -0.2 -75.05 -0.9 -75.05 -0.9 -77.0 -0.3 -77.0 Q0.75 -78.45 0.75 -80.75 L0.75 -83.2 M-4.5 -83.4 L-3.25 -83.4 -5.05 -81.85 -5.85 -81.85 -4.5 -83.4 M-8.0 -60.75 L-9.95 -60.35 Q-10.7 -60.0 -11.6 -59.05 L-11.95 -59.3 -10.3 -60.65 Q-9.15 -61.25 -8.0 -61.25 -6.75 -61.25 -5.7 -60.65 L-4.05 -59.3 -4.45 -59.05 -6.15 -60.35 -8.0 -60.75 M0.8 -60.6 L-2.95 -53.95 -3.3 -54.2 0.45 -60.8 0.8 -60.6 M-20.95 -48.35 Q-21.35 -47.55 -21.35 -46.4 -21.35 -45.45 -20.95 -44.6 L-19.75 -42.9 -20.1 -42.5 -21.45 -44.35 Q-21.9 -45.3 -21.9 -46.4 -21.9 -47.65 -21.45 -48.6 L-20.1 -50.25 -19.75 -49.9 -20.35 -49.25 -20.95 -48.35 M-24.1 -37.4 Q-24.1 -36.45 -23.7 -35.6 L-22.5 -33.9 -22.85 -33.5 -24.2 -35.35 Q-24.65 -36.3 -24.65 -37.4 -24.65 -38.65 -24.2 -39.6 L-22.85 -41.25 -22.5 -40.9 -23.7 -39.35 Q-24.1 -38.55 -24.1 -37.4 M-3.35 -49.6 L-7.1 -42.95 -7.45 -43.2 -3.7 -49.8 -3.35 -49.6 M-11.85 -48.35 Q-11.2 -47.7 -11.2 -46.55 -11.2 -45.35 -11.85 -44.75 -13.0 -43.55 -15.8 -43.5 L-16.0 -44.3 Q-13.35 -44.35 -12.55 -45.2 -12.0 -45.7 -12.0 -46.5 -12.0 -47.3 -12.55 -47.85 -13.0 -48.3 -14.05 -48.3 L-16.1 -47.85 -18.1 -47.05 -18.5 -47.95 -16.55 -48.5 -13.95 -49.0 Q-12.55 -49.0 -11.85 -48.35 M-3.15 -42.4 L5.8 -42.4 5.8 -42.0 -3.15 -42.0 -3.15 -42.4 M-44.75 -29.4 L-52.4 -23.0 -52.8 -23.45 -45.15 -29.85 -44.75 -29.4 M-53.9 -20.0 L-61.55 -13.6 -61.95 -14.05 -54.3 -20.45 -53.9 -20.0 M-3.8 -33.0 L-12.75 -33.0 -12.75 -33.4 -3.8 -33.4 -3.8 -33.0 M-3.75 -33.4 L5.2 -33.4 5.2 -33.0 -3.75 -33.0 -3.75 -33.4 M-12.8 -33.0 L-21.75 -33.0 -21.75 -33.4 -12.8 -33.4 -12.8 -33.0 M-11.0 -18.95 Q-10.7 -18.85 -10.95 -18.65 L-10.95 -14.2 Q-10.95 -13.35 -10.65 -13.0 -10.25 -12.65 -9.45 -12.65 -8.1 -12.65 -6.7 -14.2 L-6.15 -13.5 Q-7.65 -11.85 -9.45 -11.85 -10.7 -11.85 -11.3 -12.45 -11.65 -12.8 -11.7 -13.55 L-11.75 -14.2 -11.75 -18.95 -11.0 -18.95 M-13.65 -17.2 L-17.6 -17.0 -17.6 -17.75 -13.65 -17.95 -13.65 -17.2 M-19.2 -17.95 L-19.5 -15.15 -19.45 -13.75 -19.35 -12.05 -20.15 -12.0 -20.2 -13.2 -20.25 -15.15 -20.05 -17.65 -19.9 -18.9 -19.2 -18.7 Q-18.8 -18.65 -19.15 -18.4 L-19.2 -17.95 M-15.15 -13.45 L-13.2 -13.45 -13.2 -12.65 -15.15 -12.65 Q-16.8 -12.65 -17.9 -13.75 L-17.4 -14.3 Q-16.45 -13.4 -15.15 -13.45 M-2.45 -19.05 L-2.55 -19.0 -2.85 -17.85 -1.6 -18.1 -1.45 -17.4 -3.05 -17.15 -4.15 -14.35 -4.7 -13.25 -5.4 -13.6 Q-4.3 -15.5 -3.85 -17.05 L-5.25 -17.0 -5.35 -17.75 -3.6 -17.8 -3.25 -19.05 -3.15 -19.5 -2.55 -19.3 Q-2.25 -19.15 -2.45 -19.05 M-0.75 -17.4 L-0.45 -18.1 1.9 -17.3 1.6 -16.55 0.3 -17.05 -0.75 -17.4 M-0.05 -16.2 Q0.3 -16.15 0.0 -15.95 L0.0 -13.9 1.85 -13.15 1.4 -12.45 0.0 -13.15 Q-0.1 -12.4 -0.45 -12.05 -0.9 -11.6 -1.6 -11.6 -2.6 -11.6 -3.0 -12.0 -3.35 -12.35 -3.35 -12.9 L-3.0 -13.75 Q-2.55 -14.2 -1.65 -14.2 L-0.7 -14.1 -0.7 -16.2 -0.05 -16.2 M-1.7 -12.3 Q-1.25 -12.3 -1.0 -12.55 -0.7 -12.85 -0.7 -13.4 L-1.65 -13.55 -2.4 -13.35 -2.6 -12.9 -2.45 -12.55 Q-2.25 -12.3 -1.7 -12.3 M-24.2 -30.6 L-33.15 -30.6 -33.15 -31.0 -24.2 -31.0 -24.2 -30.6 M-22.4 -18.0 L-27.6 -18.0 -27.95 -17.5 Q-28.4 -16.95 -29.0 -16.55 L-29.55 -17.15 Q-28.25 -18.1 -27.65 -19.55 L-26.95 -19.3 Q-26.8 -19.15 -27.05 -19.1 L-27.25 -18.7 -22.4 -18.7 -22.4 -18.0 M-25.35 -15.45 L-24.7 -14.95 Q-24.55 -14.8 -24.8 -14.8 L-25.7 -13.75 -24.45 -12.65 -25.0 -11.95 -26.3 -13.15 Q-27.5 -12.05 -28.95 -11.6 L-29.35 -12.35 Q-27.85 -12.9 -26.95 -13.6 L-28.45 -14.5 -27.95 -15.1 -26.35 -14.2 -25.35 -15.45 M-29.25 -16.25 L-23.15 -16.25 -23.15 -14.8 Q-23.15 -13.3 -22.75 -12.8 -22.5 -12.5 -22.45 -12.9 L-22.35 -13.5 -21.65 -13.05 -21.85 -12.15 Q-22.25 -11.05 -23.2 -12.05 -23.85 -12.8 -23.85 -14.9 L-23.85 -15.6 -29.25 -15.6 -29.25 -16.25 M-27.85 -17.45 L-23.5 -17.45 -23.5 -16.8 -27.85 -16.8 -27.85 -17.45 M-20.05 -4.25 L-16.85 -1.3 -17.5 -0.7 -20.5 -3.7 Q-21.05 -4.15 -21.05 -4.5 -21.05 -4.85 -20.65 -5.2 -18.4 -7.35 -17.7 -8.45 L-17.1 -7.95 Q-16.75 -7.6 -17.25 -7.7 L-20.05 -4.8 -20.15 -4.55 -20.05 -4.25 M-3.75 -6.0 Q-3.0 -4.65 -1.6 -3.7 L-2.1 -3.05 Q-3.4 -3.65 -4.65 -3.65 -5.85 -3.65 -6.3 -3.2 L-6.5 -2.6 -6.2 -1.9 Q-5.7 -1.45 -3.85 -1.45 L-2.65 -1.45 -2.8 -0.65 -4.15 -0.65 Q-6.0 -0.65 -6.7 -1.4 -7.15 -1.8 -7.2 -2.35 L-7.25 -2.6 Q-7.25 -3.25 -6.85 -3.65 -6.2 -4.25 -4.9 -4.25 L-3.35 -4.15 -4.5 -5.95 -7.35 -5.8 -7.55 -6.5 -4.8 -6.6 -5.25 -8.4 -4.5 -8.4 Q-4.2 -8.35 -4.45 -8.15 L-4.0 -6.65 -1.9 -7.0 -1.7 -6.2 -3.75 -6.0 M-8.6 -7.1 L-10.0 -8.0 -9.65 -8.5 -8.3 -7.6 -8.55 -7.1 -8.6 -7.1 M-8.95 -5.35 L-8.85 -4.6 -12.05 -4.05 -12.25 -4.75 -11.6 -4.95 -9.15 -5.35 -9.1 -5.35 -8.95 -5.35 M-8.65 -0.95 L-10.2 -0.95 Q-11.55 -0.95 -12.75 -1.55 L-12.4 -2.2 Q-11.5 -1.7 -10.2 -1.7 L-8.65 -1.7 -8.65 -0.95 M-10.2 -7.7 L-9.0 -6.85 -9.3 -6.4 -10.7 -7.3 -10.35 -7.75 -10.35 -7.8 -10.3 -7.8 -10.2 -7.7 M-13.2 -8.2 Q-12.8 -8.1 -13.1 -7.95 L-13.4 -6.5 -11.9 -6.8 -11.8 -6.1 -13.5 -5.8 Q-13.9 -3.6 -14.4 -2.0 L-14.8 -0.85 -15.6 -1.1 Q-14.65 -3.3 -14.25 -5.75 L-15.75 -5.7 -15.9 -6.4 -14.15 -6.45 -13.9 -8.35 -13.2 -8.2 M53.3 -49.85 L60.95 -43.45 60.55 -43.0 52.9 -49.4 53.3 -49.85 M42.45 -40.4 L34.8 -34.0 34.4 -34.45 42.05 -40.85 42.45 -40.4 M24.8 -60.6 L21.05 -53.95 20.7 -54.2 24.45 -60.8 24.8 -60.6 M8.8 -83.4 L10.1 -81.85 9.3 -81.85 7.5 -83.4 8.8 -83.4 M1.45 -80.75 Q1.45 -78.45 0.5 -77.0 L3.9 -77.0 3.9 -82.5 1.45 -82.5 1.45 -80.75 M5.5 -60.75 Q4.45 -60.75 3.55 -60.35 L1.9 -59.05 1.55 -59.3 3.2 -60.65 Q4.35 -61.25 5.5 -61.25 6.75 -61.25 7.8 -60.65 L9.45 -59.3 9.05 -59.05 7.35 -60.35 5.5 -60.75 M14.3 -60.6 L10.55 -53.95 10.2 -54.2 13.95 -60.8 14.3 -60.6 M20.65 -49.6 L16.9 -42.95 16.55 -43.2 20.3 -49.8 20.65 -49.6 M10.15 -49.6 L6.4 -42.95 6.05 -43.2 9.8 -49.8 10.15 -49.6 M15.05 -40.6 L11.3 -33.95 11.0 -34.15 10.95 -34.2 14.7 -40.8 15.05 -40.6 M21.7 -49.85 L29.35 -43.45 28.95 -43.0 21.3 -49.4 21.7 -49.85 M28.85 -39.4 Q31.7 -37.6 33.0 -35.8 L32.15 -35.05 Q30.8 -37.0 28.15 -38.75 L28.85 -39.4 M39.45 -23.45 L39.05 -23.0 31.4 -29.4 31.8 -29.85 39.45 -23.45 M28.8 -30.6 L19.85 -30.6 19.85 -31.0 28.8 -31.0 28.8 -30.6 M30.25 -30.95 L30.25 -22.0 29.55 -22.0 29.55 -30.95 30.25 -30.95 M30.2 -19.95 L30.2 -11.0 29.5 -11.0 29.5 -19.95 30.2 -19.95 M19.8 -30.6 L10.85 -30.6 10.85 -31.0 19.8 -31.0 19.8 -30.6 M10.7 -33.35 L8.0 -33.35 8.0 -33.8 10.7 -33.8 10.7 -33.35 M7.95 -33.35 L5.25 -33.35 5.25 -33.8 7.95 -33.8 7.95 -33.35 M8.3 -18.1 L9.6 -16.25 Q10.1 -15.25 10.25 -14.1 L9.3 -13.85 Q8.85 -16.35 7.55 -17.7 L8.3 -18.1 M3.2 -18.6 L3.9 -18.45 Q4.35 -18.35 3.95 -18.1 L3.8 -15.75 4.0 -13.7 Q4.15 -13.1 4.5 -13.1 4.9 -13.1 5.2 -13.65 L5.55 -14.5 6.25 -14.0 5.55 -12.8 Q5.1 -12.2 4.6 -12.2 3.7 -12.2 3.3 -13.2 L3.25 -13.35 3.05 -15.75 3.1 -17.2 3.2 -18.6 M16.45 -17.5 L16.05 -17.3 15.0 -16.55 Q14.35 -15.9 14.35 -14.85 14.35 -14.0 14.9 -13.5 15.6 -12.8 17.6 -12.7 L17.3 -11.95 Q15.25 -12.05 14.4 -12.85 13.6 -13.65 13.6 -14.8 13.6 -16.45 14.9 -17.4 L11.55 -16.95 11.35 -17.75 18.25 -18.6 18.4 -17.75 17.15 -17.65 16.45 -17.5 M16.3 -15.9 L16.65 -16.35 17.95 -15.45 17.6 -15.05 16.3 -15.9 M18.3 -15.85 L18.25 -15.9 17.0 -16.75 17.35 -17.15 18.7 -16.3 18.3 -15.85 M4.85 -7.1 Q6.45 -5.45 6.8 -3.1 L5.85 -2.85 Q5.4 -5.35 4.1 -6.7 L4.85 -7.1 M61.6 -23.45 L69.25 -29.85 69.65 -29.4 62.0 -23.0 61.6 -23.45 M50.7 -13.25 L58.35 -19.65 58.75 -19.2 51.1 -12.8 50.7 -13.25" fill="#000000" fill-rule="evenodd" stroke="none"/>
  </g>
</svg>
