<svg xmlns:xlink="http://www.w3.org/1999/xlink" height="103.7px" width="94.25px" xmlns="http://www.w3.org/2000/svg">
  <g transform="matrix(1.0, 0.0, 0.0, 1.0, 47.1, 51.85)">
    <path d="M-1.65 -44.65 L-2.35 -44.35 -4.95 -50.05 -7.55 -44.35 -8.25 -44.65 -4.95 -51.85 -1.65 -44.65 M-9.6 -43.95 L-9.6 -43.55 -18.75 -43.55 -18.75 -43.95 -9.6 -43.95 M-20.0 -44.65 L-20.7 -44.35 -23.3 -50.05 -25.9 -44.35 -26.2 -44.5 -26.55 -44.65 -23.3 -51.85 -20.0 -44.65 M-25.75 -41.25 L-25.4 -40.9 Q-26.3 -40.1 -26.6 -39.3 -27.05 -38.5 -27.05 -37.35 -27.05 -36.4 -26.6 -35.55 -26.3 -34.75 -25.4 -33.8 L-25.75 -33.35 -27.1 -35.25 Q-27.6 -36.25 -27.55 -37.35 -27.6 -38.6 -27.1 -39.55 L-25.85 -41.2 -25.75 -41.25 M-29.05 -29.4 L-28.15 -28.6 -28.55 -28.3 Q-29.6 -29.3 -30.3 -29.6 -31.2 -30.05 -32.2 -30.05 L-34.15 -29.6 -35.85 -28.3 -36.2 -28.6 Q-35.5 -29.45 -34.5 -29.95 -33.4 -30.6 -32.2 -30.55 -30.9 -30.6 -29.85 -29.95 L-29.05 -29.4 M-37.4 -29.25 L-40.8 -23.1 -41.1 -23.35 -37.35 -30.1 -37.0 -29.9 -37.4 -29.25 M-41.05 -16.9 L-40.45 -16.9 -39.2 -13.7 -37.9 -16.9 -37.1 -16.9 -38.9 -12.6 Q-39.15 -12.05 -39.35 -11.85 -39.65 -11.55 -40.05 -11.55 L-40.7 -11.7 -40.7 -12.4 -40.1 -12.25 Q-39.9 -12.25 -39.8 -12.4 L-39.55 -12.75 -41.3 -16.9 -41.05 -16.9 M-40.05 -9.85 L-39.9 -9.85 -39.9 -0.75 -40.65 -0.75 -40.65 -9.85 -40.05 -9.85 M-37.85 0.85 L-37.1 0.85 -37.1 9.9 -37.85 9.9 -37.85 0.85 M-37.1 11.55 L-37.1 20.6 -37.85 20.6 -37.85 11.55 -37.1 11.55 M-40.7 23.85 Q-40.45 24.0 -40.7 24.05 -41.45 28.1 -43.7 30.15 L-44.25 29.35 Q-42.15 27.65 -41.45 23.5 L-40.7 23.85 M-45.35 33.65 L-44.9 34.05 Q-46.55 35.6 -46.55 37.6 -46.55 39.5 -44.9 41.05 L-45.35 41.5 Q-47.15 39.8 -47.1 37.6 -47.15 35.3 -45.35 33.65 M-38.0 46.35 Q-37.25 45.55 -35.95 45.55 L-32.55 45.55 -32.55 46.25 -35.95 46.25 Q-36.9 46.25 -37.5 46.85 -38.05 47.4 -38.05 48.2 -38.05 48.95 -37.5 49.5 -36.9 50.1 -35.95 50.1 L-32.75 50.1 -32.55 50.1 -32.55 50.8 -35.95 50.8 Q-37.25 50.8 -38.0 50.05 -38.75 49.25 -38.75 48.2 L-38.55 47.2 -38.0 46.35 M-30.0 50.9 Q-28.0 49.6 -27.2 47.45 L-26.8 45.9 -26.65 44.75 -25.8 44.95 -26.05 46.65 -26.25 47.3 -26.4 47.6 -27.05 49.0 Q-28.1 50.8 -29.85 51.85 L-30.45 51.15 -30.0 50.9 M-24.85 47.95 L-15.7 47.95 -6.55 47.95 -6.55 48.3 -15.7 48.3 -15.7 47.95 -15.7 48.3 -24.85 48.3 -24.85 47.95 M-5.75 46.35 L-5.4 45.8 -5.05 45.25 -5.1 45.25 -5.65 45.25 -5.65 44.1 -4.5 44.1 -4.5 45.25 -5.3 46.35 -5.75 46.35 M-2.75 40.85 L-3.3 40.05 Q-1.2 38.35 -0.5 34.2 L0.25 34.55 Q0.5 34.7 0.25 34.75 -0.5 38.8 -2.75 40.85 M1.7 34.05 L9.5 40.55 9.1 41.0 1.3 34.5 1.7 34.05 M11.25 46.75 L11.85 46.2 14.4 48.05 Q15.45 48.95 16.1 49.9 L15.8 50.15 15.2 50.6 Q13.9 48.75 11.3 47.0 L11.1 46.85 11.25 46.75 M17.7 51.05 Q19.5 49.95 20.4 48.25 21.2 46.7 21.3 44.75 L22.15 44.95 21.9 46.5 21.5 47.75 21.5 47.8 20.9 49.0 Q19.85 50.8 18.1 51.85 L17.5 51.15 17.7 51.05 M24.75 46.2 Q27.65 48.0 29.0 49.9 L28.05 50.6 27.7 50.15 27.7 50.1 Q26.4 48.4 24.0 46.85 L24.75 46.2 M30.4 51.15 Q33.95 49.1 34.2 44.75 L35.0 44.95 35.0 45.4 Q34.75 47.35 33.75 49.0 32.7 50.8 30.95 51.85 L30.4 51.15 M37.25 40.95 L37.1 40.85 40.75 34.4 40.9 34.05 41.25 34.25 37.45 41.05 37.25 40.95 M41.6 30.35 L41.25 30.15 45.05 23.35 45.15 23.45 45.35 23.55 41.6 30.35 M46.85 19.25 L46.45 19.25 46.45 16.4 46.35 16.1 45.85 15.85 Q45.3 15.85 45.0 16.2 L44.7 16.7 44.7 19.25 44.0 19.25 44.0 16.45 43.75 16.05 43.25 15.85 Q42.85 15.85 42.55 16.15 42.2 16.45 42.25 16.75 L42.25 19.25 41.5 19.25 41.5 17.7 41.5 15.25 42.25 15.25 42.25 15.85 Q42.7 15.15 43.3 15.15 44.0 15.15 44.35 15.55 L44.65 15.9 Q45.1 15.15 45.9 15.15 46.5 15.15 46.85 15.5 L47.15 16.25 47.15 19.25 46.85 19.25 M39.05 17.6 L38.85 18.2 38.55 18.75 37.6 20.0 37.5 20.1 37.1 19.7 38.4 17.95 38.75 16.15 Q38.75 15.0 38.4 14.15 L37.1 12.6 37.5 12.2 38.85 13.95 Q39.3 14.9 39.3 16.15 L39.05 17.6 M35.9 8.95 L28.05 2.4 28.5 1.95 36.3 8.45 35.9 8.95 M28.05 -1.75 L20.25 -8.3 20.65 -8.75 28.45 -2.25 28.05 -1.75 M21.9 -12.45 L14.05 -19.0 14.45 -19.45 22.25 -12.95 21.9 -12.45 M14.15 -23.15 L6.35 -29.7 6.75 -30.15 14.55 -23.65 14.15 -23.15 M5.3 -28.6 L4.9 -28.3 3.15 -29.6 1.3 -30.05 -0.7 -29.6 -2.4 -28.3 -2.75 -28.6 -1.05 -29.95 Q0.05 -30.55 1.15 -30.55 L1.3 -30.55 Q2.55 -30.6 3.6 -29.95 L5.3 -28.6 M0.8 -33.35 L0.4 -33.8 1.65 -35.55 Q2.05 -36.4 2.05 -37.35 2.05 -38.5 1.65 -39.3 L0.4 -40.9 0.8 -41.25 2.15 -39.55 Q2.6 -38.6 2.6 -37.35 2.6 -36.25 2.15 -35.25 L0.9 -33.5 0.8 -33.35 M3.95 -8.2 Q4.2 -8.1 3.95 -8.05 3.25 -4.0 1.0 -1.95 L0.4 -2.7 Q2.5 -4.45 3.2 -8.6 L3.95 -8.2 M13.2 -2.25 L12.8 -1.75 5.0 -8.3 5.4 -8.75 13.2 -2.25 M26.35 19.65 L18.5 13.1 18.95 12.65 26.75 19.15 26.4 19.6 26.35 19.65 M36.35 20.25 L36.35 20.6 36.0 20.6 27.25 20.6 27.25 20.25 36.35 20.25 M32.05 23.85 L29.3 30.0 28.4 30.0 25.65 23.85 26.35 23.85 26.6 23.85 28.8 29.1 28.85 29.1 31.1 23.85 32.05 23.85 M20.65 8.95 L12.8 2.4 13.25 1.95 21.05 8.45 20.65 8.95 M11.8 3.5 L11.4 3.75 9.65 2.45 9.25 2.3 7.8 2.05 6.4 2.25 Q6.05 2.3 5.8 2.45 5.0 2.8 4.1 3.75 L3.75 3.5 Q4.1 3.05 4.55 2.75 4.85 2.45 5.3 2.25 5.35 2.15 5.45 2.15 6.6 1.5 7.8 1.5 9.05 1.5 10.1 2.15 L10.45 2.35 11.8 3.5 M-1.15 8.75 L2.6 2.0 2.95 2.15 -0.8 8.95 -1.15 8.75 M-0.85 11.55 L-0.85 20.6 -1.6 20.6 -1.6 11.55 -0.85 11.55 M9.15 24.75 Q9.4 28.15 12.8 29.7 L12.4 30.55 Q9.9 29.5 8.9 26.65 8.1 29.35 5.5 30.55 L4.95 29.8 Q8.35 28.45 8.35 24.85 L8.35 23.0 9.15 23.0 Q9.5 23.05 9.15 23.3 L9.15 24.75 M13.65 34.05 L21.45 40.55 21.1 41.0 13.25 34.5 13.65 34.05 M34.75 33.65 L35.5 34.45 Q36.55 35.85 36.55 37.6 36.55 38.7 36.1 39.65 L34.75 41.5 34.35 41.05 Q36.0 39.5 36.0 37.6 36.0 35.6 34.35 34.05 L34.75 33.65 M-26.55 -20.6 L-26.15 -20.6 -26.15 -15.85 -30.9 -15.85 -30.9 -16.25 -26.55 -16.25 -26.55 -20.6 M-10.75 -15.85 L-15.55 -15.85 -15.55 -20.6 -15.1 -20.6 -15.1 -16.25 -10.75 -16.25 -10.75 -15.85 M-21.2 -16.95 L-20.4 -16.95 -20.4 -16.15 -21.2 -16.15 -21.2 -16.95 M-21.2 -13.6 L-20.4 -13.6 -20.4 -12.85 -21.2 -12.85 -21.2 -13.6 M-23.75 4.45 L-22.9 4.45 -22.9 5.25 -23.75 5.25 -23.75 4.45 M-22.9 7.8 L-22.9 8.55 -23.75 8.55 -23.75 7.8 -22.9 7.8 M-21.05 13.8 L-21.5 14.85 -21.85 14.85 -21.5 13.8 -21.85 13.8 -21.85 13.0 -21.05 13.0 -21.05 13.8 M-23.75 18.5 L-22.9 18.5 -22.9 19.25 -23.4 20.25 -23.75 20.25 -23.4 19.25 -23.75 19.25 -23.75 18.5 M-27.45 23.7 L-26.6 23.7 -26.6 24.5 -27.1 25.55 -27.45 25.55 -27.1 24.5 -27.45 24.5 -27.45 23.7 M-28.55 34.75 Q-29.25 38.55 -31.25 40.55 L-31.55 40.85 -32.1 40.05 Q-30.0 38.35 -29.3 34.2 L-28.55 34.55 Q-28.3 34.7 -28.55 34.75 M-42.6 44.1 L-42.6 45.25 -43.45 46.35 -43.85 46.35 -43.2 45.25 -43.75 45.25 -43.75 44.1 -42.6 44.1" fill="#000000" fill-rule="evenodd" stroke="none"/>
    <path d="M-8.25 -44.65 L-7.55 -44.35 -4.95 -50.05 -2.35 -44.35 -1.65 -44.65 0.8 -41.25 0.4 -40.9 1.65 -39.3 Q2.05 -38.5 2.05 -37.35 2.05 -36.4 1.65 -35.55 L0.4 -33.8 0.8 -33.35 1.15 -30.55 Q0.05 -30.55 -1.05 -29.95 L-2.75 -28.6 -2.4 -28.3 -0.7 -29.6 1.3 -30.05 3.15 -29.6 4.9 -28.3 5.3 -28.6 6.35 -29.7 14.15 -23.15 14.45 -19.45 14.05 -19.0 21.9 -12.45 20.65 -8.75 20.25 -8.3 28.05 -1.75 28.5 1.95 28.05 2.4 35.9 8.95 37.5 12.2 37.1 12.6 38.4 14.15 Q38.75 15.0 38.75 16.15 L38.4 17.95 37.1 19.7 37.5 20.1 37.6 20.0 38.55 18.75 38.85 18.2 39.05 17.6 41.5 17.7 41.5 19.25 42.25 19.25 42.25 16.75 Q42.2 16.45 42.55 16.15 42.85 15.85 43.25 15.85 L43.75 16.05 44.0 16.45 44.0 19.25 44.7 19.25 44.7 16.7 45.0 16.2 Q45.3 15.85 45.85 15.85 L46.35 16.1 46.45 16.4 46.45 19.25 46.85 19.25 46.85 20.1 45.15 23.45 45.05 23.35 41.25 30.15 41.6 30.35 40.75 34.4 37.1 40.85 37.25 40.95 35.0 45.4 35.0 44.95 34.2 44.75 Q33.95 49.1 30.4 51.15 L29.0 49.9 Q27.65 48.0 24.75 46.2 L23.3 44.15 22.15 44.95 21.3 44.75 Q21.2 46.7 20.4 48.25 19.5 49.95 17.7 51.05 17.4 50.35 15.8 50.15 L16.1 49.9 Q15.45 48.95 14.4 48.05 L11.85 46.2 11.25 46.75 9.55 40.55 9.5 40.55 1.7 34.05 1.4 33.65 0.25 34.55 -0.5 34.2 Q-1.2 38.35 -3.3 40.05 L-2.75 40.85 -4.5 44.1 -5.65 44.1 -5.65 45.25 -5.1 45.25 -5.4 45.8 -5.75 46.35 -6.55 47.95 -15.7 47.95 -24.85 47.95 -26.05 46.65 -25.8 44.95 -26.65 44.75 -26.8 45.9 -27.2 47.45 Q-28.0 49.6 -30.0 50.9 L-32.5 50.0 -32.75 50.1 -35.95 50.1 Q-36.9 50.1 -37.5 49.5 -38.05 48.95 -38.05 48.2 -38.05 47.4 -37.5 46.85 -36.9 46.25 -35.95 46.25 L-32.55 46.25 -32.55 45.55 -35.95 45.55 Q-37.25 45.55 -38.0 46.35 L-44.9 41.05 Q-46.55 39.5 -46.55 37.6 -46.55 35.6 -44.9 34.05 L-45.35 33.65 -43.7 30.15 Q-41.45 28.1 -40.7 24.05 -40.45 24.0 -40.7 23.85 L-37.85 20.6 -37.1 20.6 -37.1 11.55 -37.1 9.9 -37.1 0.85 -37.85 0.85 -39.9 -0.75 -39.9 -9.85 -40.05 -9.85 -40.05 -11.55 Q-39.65 -11.55 -39.35 -11.85 -39.15 -12.05 -38.9 -12.6 L-37.1 -16.9 -37.9 -16.9 -39.2 -13.7 -40.45 -16.9 -41.05 -16.9 -41.05 -21.75 -40.8 -23.1 -37.4 -29.25 -36.2 -28.6 -35.85 -28.3 -34.15 -29.6 -32.2 -30.05 Q-31.2 -30.05 -30.3 -29.6 -29.6 -29.3 -28.55 -28.3 L-28.15 -28.6 -29.05 -29.4 -25.75 -33.35 -25.4 -33.8 Q-26.3 -34.75 -26.6 -35.55 -27.05 -36.4 -27.05 -37.35 -27.05 -38.5 -26.6 -39.3 -26.3 -40.1 -25.4 -40.9 L-25.75 -41.25 -25.85 -41.25 Q-25.75 -42.85 -26.2 -44.5 L-25.9 -44.35 -23.3 -50.05 -20.7 -44.35 -20.0 -44.65 -18.75 -43.95 -18.75 -43.55 -9.6 -43.55 -9.6 -43.95 -8.25 -44.65 M13.2 -2.25 L5.4 -8.75 5.0 -8.3 12.8 -1.75 13.2 -2.25 M3.95 -8.2 L3.2 -8.6 Q2.5 -4.45 0.4 -2.7 L1.0 -1.95 Q3.25 -4.0 3.95 -8.05 4.2 -8.1 3.95 -8.2 M26.75 19.15 L18.95 12.65 18.5 13.1 26.35 19.65 26.35 23.85 25.65 23.85 28.4 30.0 29.3 30.0 32.05 23.85 36.0 20.6 36.35 20.6 36.35 20.25 26.75 19.15 M20.65 8.95 L21.05 8.45 13.25 1.95 12.8 2.4 20.65 8.95 M13.65 34.05 L13.25 34.5 21.1 41.0 21.45 40.55 13.65 34.05 M9.15 24.75 L9.15 23.3 Q9.5 23.05 9.15 23.0 L8.35 23.0 8.35 24.85 Q8.35 28.45 4.95 29.8 L5.5 30.55 Q8.1 29.35 8.9 26.65 9.9 29.5 12.4 30.55 L12.8 29.7 Q9.4 28.15 9.15 24.75 M-0.85 11.55 L-1.6 11.55 -1.6 20.6 -0.85 20.6 -0.85 11.55 M-1.15 8.75 L-0.8 8.95 2.95 2.15 2.6 2.0 -1.15 8.75 M11.8 3.5 L10.45 2.35 10.1 2.15 Q9.05 1.5 7.8 1.5 6.6 1.5 5.45 2.15 5.35 2.15 5.3 2.25 4.85 2.45 4.55 2.75 4.1 3.05 3.75 3.5 L4.1 3.75 Q5.0 2.8 5.8 2.45 6.05 2.3 6.4 2.25 L7.8 2.05 9.25 2.3 9.65 2.45 11.4 3.75 11.8 3.5 M34.75 33.65 L34.35 34.05 Q36.0 35.6 36.0 37.6 36.0 39.5 34.35 41.05 L34.75 41.5 36.1 39.65 Q36.55 38.7 36.55 37.6 36.55 35.85 35.5 34.45 L34.75 33.65 M-26.55 -20.6 L-26.55 -16.25 -30.9 -16.25 -30.9 -15.85 -26.15 -15.85 -26.15 -20.6 -26.55 -20.6 M-23.75 18.5 L-23.75 19.25 -23.4 19.25 -23.75 20.25 -23.4 20.25 -22.9 19.25 -22.9 18.5 -23.75 18.5 M-21.05 13.8 L-21.05 13.0 -21.85 13.0 -21.85 13.8 -21.5 13.8 -21.85 14.85 -21.5 14.85 -21.05 13.8 M-22.9 7.8 L-23.75 7.8 -23.75 8.55 -22.9 8.55 -22.9 7.8 M-23.75 4.45 L-23.75 5.25 -22.9 5.25 -22.9 4.45 -23.75 4.45 M-21.2 -13.6 L-21.2 -12.85 -20.4 -12.85 -20.4 -13.6 -21.2 -13.6 M-21.2 -16.95 L-21.2 -16.15 -20.4 -16.15 -20.4 -16.95 -21.2 -16.95 M-10.75 -15.85 L-10.75 -16.25 -15.1 -16.25 -15.1 -20.6 -15.55 -20.6 -15.55 -15.85 -10.75 -15.85 M-28.55 34.75 Q-28.3 34.7 -28.55 34.55 L-29.3 34.2 Q-30.0 38.35 -32.1 40.05 L-31.55 40.85 -31.25 40.55 Q-29.25 38.55 -28.55 34.75 M-27.45 23.7 L-27.45 24.5 -27.1 24.5 -27.45 25.55 -27.1 25.55 -26.6 24.5 -26.6 23.7 -27.45 23.7" fill="#ffffff" fill-rule="evenodd" stroke="none"/>
  </g>
</svg>
