<?xml version="1.0" encoding="UTF-8" standalone="no"?>
<svg xmlns:xlink="http://www.w3.org/1999/xlink" height="50.2px" width="39.2px" xmlns="http://www.w3.org/2000/svg">
  <g transform="matrix(1.0, 0.0, 0.0, 1.0, 19.6, 25.1)">
    <path d="M4.15 -4.35 Q9.0 -5.4 12.1 -11.85 22.3 -7.3 14.45 -2.7 6.65 1.85 3.1 -0.35 L2.8 -0.55 2.8 -0.5 -0.65 8.85 Q-2.95 14.45 -5.8 10.25 -6.45 9.3 -6.4 8.1 L-6.4 7.95 -6.35 7.55 -6.75 -1.5 -6.85 -2.1 -6.65 -2.3 -6.9 -2.2 Q-11.0 -0.6 -14.3 -2.65 L-14.7 -2.5 -14.55 -2.85 Q-17.1 -5.95 -17.3 -8.35 -17.55 -10.75 -16.7 -12.25 -15.9 -13.75 -12.1 -11.55 L-12.05 -11.3 -10.35 -7.7 -10.3 -7.6 -10.3 -7.7 -10.35 -7.75 -9.15 -7.35 -6.25 -7.1 Q-6.6 -11.8 -6.0 -16.1 -5.4 -20.45 -0.15 -20.2 5.05 -19.95 5.9 -15.15 6.8 -10.3 4.35 -7.45 3.55 -6.6 3.45 -4.55 L3.4 -4.25 4.0 -4.35 4.15 -4.35 M-9.15 -7.35 L-10.3 -7.6 -9.15 -7.35" fill="#fefefe" fill-rule="evenodd" stroke="none"/>
    <path d="M4.15 -4.35 Q9.0 -5.4 12.1 -11.85 22.3 -7.3 14.45 -2.7 6.65 1.85 3.1 -0.35 L2.8 -0.5 -0.65 8.85 Q-2.95 14.45 -5.8 10.25 -6.45 9.3 -6.4 8.1 L-6.4 7.95 -6.35 7.55 -6.75 -1.5 -6.9 -2.2 Q-11.0 -0.6 -14.3 -2.65 M-14.55 -2.85 Q-17.1 -5.95 -17.3 -8.35 M-12.05 -11.3 L-10.35 -7.7 -10.3 -7.7 M-9.15 -7.35 L-6.25 -7.1 Q-6.6 -11.8 -6.0 -16.1 -5.4 -20.45 -0.15 -20.2 5.05 -19.95 5.9 -15.15 6.8 -10.3 4.35 -7.45 3.55 -6.6 3.45 -4.55 L3.4 -4.25 4.0 -4.35 Q3.75 -4.85 4.15 -4.35 L4.0 -4.35 M-6.9 -2.2 L-6.65 -2.3 M3.1 -0.35 L2.8 -0.55 2.8 -0.5 M-10.3 -7.6 L-9.15 -7.35" fill="none" stroke="#8f7c3f" stroke-linecap="round" stroke-linejoin="round" stroke-width="1.0"/>
    <path d="M-17.3 -8.35 Q-17.55 -10.75 -16.7 -12.25 -15.9 -13.75 -12.1 -11.55" fill="none" stroke="#8f7c3f" stroke-linecap="round" stroke-linejoin="round" stroke-width="1.0"/>
    <path d="M7.5 12.3 L7.55 12.65 7.15 16.6 7.25 14.75 Q7.3 12.85 2.85 13.2 L-4.05 13.0 -4.5 12.65 4.15 12.4 7.5 12.3" fill="#8f7c3f" fill-rule="evenodd" stroke="none"/>
    <path d="M-15.0 7.4 L-6.75 6.75 1.8 7.15 Q6.2 7.7 10.65 7.2 9.9 9.6 8.65 11.8 L8.35 12.0 8.05 12.3 7.55 12.3 7.5 12.3 4.15 12.4 -4.5 12.65 -8.2 12.8 -11.55 13.0 -8.2 12.8 -4.5 12.65 -4.05 13.0 2.85 13.2 Q7.3 12.85 7.25 14.75 L7.15 16.6 6.3 20.7 Q6.0 21.95 5.95 23.3 L-1.7 23.5 -9.95 24.2 Q-9.9 22.85 -10.0 21.6 -10.45 17.35 -11.55 13.3 L-11.55 13.0 -13.05 13.1 Q-13.7 10.1 -14.95 7.65 L-15.0 7.4" fill="#e2d5c0" fill-rule="evenodd" stroke="none"/>
    <path d="M-15.0 7.4 L-6.75 6.75 1.8 7.15 Q6.2 7.7 10.65 7.2 9.9 9.6 8.65 11.8 M8.35 12.0 L8.05 12.3 7.55 12.3 7.5 12.3 4.15 12.4 -4.5 12.65 -8.2 12.8 -11.55 13.0 -13.05 13.1 Q-13.7 10.1 -14.95 7.65 M7.55 12.65 L7.15 16.6 6.3 20.7 Q6.0 21.95 5.95 23.3 L-1.7 23.5 -9.95 24.2 -9.95 24.6 M-11.55 13.3 Q-10.45 17.35 -10.0 21.6 -9.9 22.85 -9.95 24.2" fill="none" stroke="#8f7c3f" stroke-linecap="round" stroke-linejoin="round" stroke-width="1.0"/>
    <path d="M2.6 -19.85 Q0.95 -21.5 2.15 -24.6 L3.5 -22.85 5.85 -23.65 5.75 -21.6 7.6 -22.0 Q7.25 -17.8 3.35 -19.3 L2.6 -19.85" fill="#ff9900" fill-rule="evenodd" stroke="none"/>
    <path d="M2.6 -19.85 Q0.95 -21.5 2.15 -24.6 L3.5 -22.85 5.85 -23.65 5.75 -21.6 7.6 -22.0 Q7.25 -17.8 3.35 -19.3 L2.6 -19.85 Z" fill="none" stroke="#8f7c3f" stroke-linecap="round" stroke-linejoin="round" stroke-width="1.0"/>
    <path d="M15.35 -8.9 Q16.5 -9.35 17.6 -9.95 M13.35 -9.9 L14.85 -11.9 M17.1 -6.15 L19.1 -6.85 M-19.1 -10.2 L-16.5 -9.8 M-16.55 -11.15 Q-17.3 -12.1 -18.3 -12.25 M-16.3 -13.9 L-15.4 -12.1 M-12.55 -10.3 L-11.0 -10.95 M5.35 -15.05 L7.95 -16.65 8.2 -16.85 M-8.55 -14.15 L-6.05 -13.8 M-8.05 -17.65 Q-7.0 -17.25 -6.0 -16.45 M-4.55 -20.9 Q-4.05 -19.55 -3.95 -18.15 M-5.05 -4.4 Q-4.2 -3.5 -3.85 -2.5 M-4.4 -10.0 L-3.65 -8.5 M9.95 -6.3 Q9.2 -7.95 9.2 -8.85 M5.35 -11.55 Q6.3 -12.05 7.35 -12.05 M0.85 -8.65 L-0.15 -6.65 M-0.4 -15.8 Q0.2 -16.45 0.8 -18.55 M2.6 -13.75 Q0.9 -13.3 -0.1 -12.45 M-7.65 1.7 L-5.9 3.2 M0.6 3.85 L2.6 3.5 M-0.3 -0.85 L-1.1 0.6" fill="none" stroke="#8f7c3f" stroke-linecap="round" stroke-linejoin="round" stroke-width="1.0"/>
  </g>
</svg>
