<svg xmlns:xlink="http://www.w3.org/1999/xlink" height="42.55px" width="48.75px" xmlns="http://www.w3.org/2000/svg">
  <g transform="matrix(1.0, 0.0, 0.0, 1.0, 24.4, 23.6)">
    <path d="M19.85 -18.3 L20.6 -19.0 Q24.3 -15.5 24.35 -10.8 24.3 -6.2 20.6 -2.65 L20.25 -3.0 19.75 -3.5 Q23.15 -6.7 23.2 -10.8 23.15 -14.5 20.5 -17.5 L19.75 -18.2 19.85 -18.3 M19.85 3.35 L20.6 2.65 Q24.3 6.1 24.35 10.8 24.3 15.2 20.95 18.65 L20.6 18.95 19.75 18.1 Q23.15 14.9 23.2 10.8 23.15 6.9 20.2 3.85 L19.75 3.4 19.85 3.35 M-19.9 18.2 L-20.65 18.95 Q-24.45 15.4 -24.4 10.8 -24.45 6.4 -21.15 3.1 L-20.65 2.65 -20.25 3.0 -19.8 3.4 Q-23.3 6.65 -23.3 10.8 -23.3 14.9 -19.8 18.1 L-19.9 18.2 M-20.35 -2.9 L-20.65 -2.65 Q-24.45 -6.2 -24.4 -10.8 -24.45 -15.5 -20.65 -19.0 L-19.8 -18.2 Q-23.3 -15.0 -23.3 -10.8 -23.3 -6.7 -19.8 -3.5 L-20.35 -2.9 M9.55 -1.5 L-9.6 -1.5 -9.6 -2.35 9.55 -2.35 9.55 -1.5 M18.7 -10.4 L10.15 -10.4 10.15 -11.6 18.7 -11.6 18.7 -10.4 M-10.15 -11.6 L-10.15 -10.4 -18.65 -10.4 -18.65 -11.6 -10.15 -11.6 M-9.65 5.75 Q-11.35 5.75 -12.4 6.9 -13.75 8.15 -13.75 10.15 L-13.75 17.2 -15.1 17.2 -15.1 10.15 Q-15.15 7.5 -13.55 5.95 -11.95 4.25 -9.65 4.25 -7.45 4.25 -5.75 5.95 -4.2 7.5 -4.2 10.15 L-4.2 17.2 -5.65 17.2 -5.65 10.15 Q-5.65 8.15 -6.9 6.9 -8.05 5.75 -9.65 5.75 M12.3 6.9 Q11.15 5.75 9.55 5.75 7.85 5.75 6.8 6.9 5.5 8.15 5.5 10.15 L5.5 17.2 4.1 17.2 4.1 10.15 Q4.1 7.5 5.65 5.95 7.25 4.25 9.55 4.25 11.75 4.25 13.45 5.95 15.0 7.5 15.05 10.15 L15.05 17.2 13.6 17.2 13.6 10.15 Q13.55 8.15 12.3 6.9" fill="#000000" fill-rule="evenodd" stroke="none"/>
    <path d="M-19.8 -18.2 L-20.05 -18.6 Q-16.3 -21.45 -8.0 -22.85 0.35 -24.35 8.85 -22.75 17.35 -21.2 19.7 -18.6 L19.75 -18.55 19.85 -18.3 19.75 -18.2 20.5 -17.5 Q23.15 -14.5 23.2 -10.8 23.15 -6.7 19.75 -3.5 L20.25 -3.0 17.8 1.3 19.85 3.35 19.75 3.4 20.2 3.85 Q23.15 6.9 23.2 10.8 23.15 14.9 19.75 18.1 L19.75 18.35 -19.7 18.35 -19.9 18.2 -19.8 18.1 Q-23.3 14.9 -23.3 10.8 -23.3 6.65 -19.8 3.4 L-20.25 3.0 -17.25 0.75 -20.35 -2.9 -19.8 -3.5 Q-23.3 -6.7 -23.3 -10.8 -23.3 -15.0 -19.8 -18.2 M12.3 6.9 Q13.55 8.15 13.6 10.15 L13.6 17.2 15.05 17.2 15.05 10.15 Q15.0 7.5 13.45 5.95 11.75 4.25 9.55 4.25 7.25 4.25 5.65 5.95 4.1 7.5 4.1 10.15 L4.1 17.2 5.5 17.2 5.5 10.15 Q5.5 8.15 6.8 6.9 7.85 5.75 9.55 5.75 11.15 5.75 12.3 6.9 M-9.65 5.75 Q-8.05 5.75 -6.9 6.9 -5.65 8.15 -5.65 10.15 L-5.65 17.2 -4.2 17.2 -4.2 10.15 Q-4.2 7.5 -5.75 5.95 -7.45 4.25 -9.65 4.25 -11.95 4.25 -13.55 5.95 -15.15 7.5 -15.1 10.15 L-15.1 17.2 -13.75 17.2 -13.75 10.15 Q-13.75 8.15 -12.4 6.9 -11.35 5.75 -9.65 5.75 M-10.15 -11.6 L-18.65 -11.6 -18.65 -10.4 -10.15 -10.4 -10.15 -11.6 M18.7 -10.4 L18.7 -11.6 10.15 -11.6 10.15 -10.4 18.7 -10.4 M9.55 -1.5 L9.55 -2.35 -9.6 -2.35 -9.6 -1.5 9.55 -1.5" fill="#ffffff" fill-rule="evenodd" stroke="none"/>
  </g>
</svg>
