<svg xmlns:xlink="http://www.w3.org/1999/xlink" height="67.2px" width="57.65px" xmlns="http://www.w3.org/2000/svg">
  <g transform="matrix(1.0, 0.0, 0.0, 1.0, 29.95, 66.45)">
    <path d="M-26.45 -52.25 L-27.15 -53.05 -13.5 -64.45 -12.8 -63.65 -26.45 -52.25 M-11.95 -65.75 L-11.95 -66.45 4.0 -66.45 4.0 -65.75 -11.95 -65.75 M10.65 -60.8 L11.85 -61.9 Q16.9 -58.7 19.2 -55.45 L17.65 -54.15 Q15.55 -57.1 11.75 -59.85 L10.5 -60.7 10.65 -60.8 M18.65 -43.9 Q23.7 -40.7 26.0 -37.45 L24.45 -36.15 Q22.05 -39.55 17.3 -42.7 L18.65 -43.9 M23.9 -28.5 L24.6 -29.15 Q26.2 -27.65 26.9 -26.2 27.7 -24.5 27.7 -22.3 27.7 -20.4 26.9 -18.7 26.15 -17.15 24.6 -15.4 L23.9 -16.05 Q25.45 -17.75 26.1 -19.15 26.8 -20.65 26.8 -22.3 26.8 -24.3 26.1 -25.75 25.45 -27.05 23.9 -28.5 M9.75 -10.05 L9.55 -9.8 Q10.55 -4.05 16.0 -2.3 L15.05 -0.65 Q11.95 -0.7 9.1 0.75 L8.0 -0.4 Q10.45 -1.75 13.05 -1.95 9.4 -3.7 7.95 -9.65 L7.85 -9.9 9.35 -10.2 9.75 -10.05 M4.95 -9.05 L4.95 -8.45 4.1 -6.55 3.5 -6.55 4.1 -8.45 3.5 -8.45 3.5 -8.85 3.5 -9.8 4.95 -9.8 4.95 -9.05 M1.7 -8.6 L1.7 -8.45 0.85 -6.55 0.25 -6.55 0.85 -8.45 0.25 -8.45 0.25 -8.5 0.25 -9.8 1.7 -9.8 1.7 -8.6 M-1.55 -8.4 L-2.4 -6.55 -3.0 -6.55 -2.4 -8.45 -3.0 -8.45 -3.0 -9.8 -1.55 -9.8 -1.55 -8.45 -1.55 -8.4 M-11.8 -9.15 Q-10.65 -3.95 -5.5 -2.3 L-6.45 -0.65 Q-9.2 -0.7 -11.75 0.45 L-12.4 0.75 -13.5 -0.4 Q-11.05 -1.75 -8.45 -1.95 -12.1 -3.7 -13.55 -9.5 L-13.65 -9.9 -12.15 -10.2 Q-11.45 -10.3 -11.95 -9.8 L-11.8 -9.15 M-26.85 -15.4 Q-28.4 -17.15 -29.15 -18.7 -29.95 -20.4 -29.95 -22.3 -29.95 -24.5 -29.15 -26.2 -28.45 -27.65 -26.85 -29.15 L-26.15 -28.5 Q-27.7 -27.05 -28.35 -25.75 -29.05 -24.3 -29.05 -22.3 -29.05 -20.65 -28.35 -19.15 -27.7 -17.75 -26.15 -16.05 L-26.85 -15.4 M-26.7 -32.5 L-26.7 -48.4 -25.45 -48.4 -25.45 -32.5 -26.7 -32.5 M-1.25 -44.9 L1.0 -47.45 2.5 -47.45 4.75 -44.9 3.6 -44.9 1.75 -46.45 -0.05 -44.9 -1.25 -44.9 M-15.0 -40.4 L-9.55 -34.95 -4.1 -40.4 -9.55 -45.8 -15.0 -40.4 M-9.55 -33.2 L-16.75 -40.4 -9.55 -47.55 -2.35 -40.4 -9.55 -33.2 M-23.9 -44.9 L-21.65 -47.45 -20.15 -47.45 -17.9 -44.9 -19.05 -44.9 -20.9 -46.45 -22.7 -44.9 -23.9 -44.9 M-16.55 -9.8 L-16.55 -8.45 -17.4 -6.55 -18.0 -6.55 -17.4 -8.45 -18.0 -8.45 -18.0 -9.8 -16.55 -9.8 M-20.65 -6.55 L-21.25 -6.55 -20.65 -8.45 -21.25 -8.45 -21.25 -9.8 -19.8 -9.8 -19.8 -8.45 -20.65 -6.55 M19.2 -8.7 L21.55 -11.45 23.8 -11.45 20.6 -8.7 19.2 -8.7" fill="#000000" fill-rule="evenodd" stroke="none"/>
    <path d="M-13.5 -64.45 Q-12.5 -65.15 -12.1 -65.85 L-11.95 -65.75 4.0 -65.75 4.0 -66.45 10.65 -60.8 10.5 -60.7 11.75 -59.85 Q15.55 -57.1 17.65 -54.15 L18.65 -43.9 17.3 -42.7 Q22.05 -39.55 24.45 -36.15 L23.9 -28.5 Q25.45 -27.05 26.1 -25.75 26.8 -24.3 26.8 -22.3 26.8 -20.65 26.1 -19.15 25.45 -17.75 23.9 -16.05 L24.6 -15.4 Q16.85 -11.8 9.75 -10.05 L9.35 -10.2 7.85 -9.9 7.9 -9.65 4.95 -9.05 4.95 -9.8 3.5 -9.8 3.5 -8.85 1.7 -8.6 1.7 -9.8 0.25 -9.8 0.25 -8.5 -1.55 -8.4 -1.55 -8.45 -1.55 -9.8 -3.0 -9.8 -3.0 -8.45 -3.0 -8.35 Q-7.55 -8.3 -11.8 -9.15 L-11.95 -9.8 Q-11.45 -10.3 -12.15 -10.2 L-13.65 -9.9 -13.75 -9.55 Q-20.7 -11.3 -26.85 -15.4 L-26.15 -16.05 Q-27.7 -17.75 -28.35 -19.15 -29.05 -20.65 -29.05 -22.3 -29.05 -24.3 -28.35 -25.75 -27.7 -27.05 -26.15 -28.5 L-26.85 -29.15 -26.7 -32.5 -25.45 -32.5 -25.45 -48.4 -26.7 -48.4 -26.45 -52.25 -12.8 -63.65 -13.5 -64.45 M-23.9 -44.9 L-22.7 -44.9 -20.9 -46.45 -19.05 -44.9 -17.9 -44.9 -20.15 -47.45 -21.65 -47.45 -23.9 -44.9 M-9.55 -33.2 L-2.35 -40.4 -9.55 -47.55 -16.75 -40.4 -9.55 -33.2 M-15.0 -40.4 L-9.55 -45.8 -4.1 -40.4 -9.55 -34.95 -15.0 -40.4 M-1.25 -44.9 L-0.05 -44.9 1.75 -46.45 3.6 -44.9 4.75 -44.9 2.5 -47.45 1.0 -47.45 -1.25 -44.9" fill="#ffffff" fill-rule="evenodd" stroke="none"/>
  </g>
</svg>
