<svg xmlns:xlink="http://www.w3.org/1999/xlink" height="60.7px" width="62.85px" xmlns="http://www.w3.org/2000/svg">
  <g transform="matrix(1.0, 0.0, 0.0, 1.0, 28.9, 60.5)">
    <path d="M6.55 -50.15 L6.55 -49.0 8.4 -47.85 11.9 -45.05 10.25 -45.05 12.6 -43.0 13.65 -43.0 13.6 -43.1 17.25 -43.45 17.25 -42.45 20.85 -42.45 Q20.65 -37.5 17.65 -36.25 L18.15 -35.2 18.15 -34.5 16.5 -34.5 14.5 -32.3 13.45 -32.3 Q13.3 -30.85 13.75 -30.65 L15.05 -28.8 14.15 -28.35 18.45 -18.95 22.15 -27.05 21.0 -14.45 22.25 -13.2 21.75 -12.7 Q23.9 -10.65 23.9 -7.8 23.9 -4.95 21.75 -2.95 L20.6 -1.8 16.65 -1.8 14.35 0.2 7.8 0.2 6.8 -0.05 3.3 -1.1 1.65 -3.35 0.15 -2.9 -5.8 -2.9 -5.8 -2.35 -8.35 -3.6 -8.35 -12.75 -9.25 -12.75 -9.25 -4.85 -13.5 -4.85 -13.2 -5.2 -13.9 -6.1 -15.25 -4.85 Q-16.45 -4.0 -17.6 -4.0 -18.65 -4.0 -19.15 -4.55 -19.6 -4.95 -19.6 -6.1 L-19.6 -12.05 Q-19.25 -12.3 -19.65 -12.4 L-20.65 -12.4 -20.65 -7.65 -22.65 -7.95 -22.65 -8.1 -28.35 -8.1 -28.35 -13.8 -28.35 -17.2 -27.2 -18.25 -26.65 -18.25 -26.05 -19.25 -21.7 -19.25 Q-21.55 -18.25 -20.8 -18.35 L-14.85 -18.35 -14.3 -18.7 -14.3 -18.5 -11.35 -18.5 -11.8 -26.85 -12.75 -30.1 Q-13.0 -30.75 -13.95 -30.55 -14.95 -30.35 -16.65 -31.5 -18.4 -32.65 -19.75 -34.55 L-18.8 -35.05 Q-19.95 -36.3 -20.4 -37.35 -20.95 -38.45 -20.95 -39.7 -20.95 -41.2 -20.4 -42.3 L-18.95 -44.15 -18.8 -44.35 -19.0 -44.55 -17.1 -46.7 -15.05 -50.4 -14.65 -49.95 -4.45 -58.5 -2.1 -60.5 -1.25 -59.55 -1.25 -50.4 -0.35 -50.4 -0.35 -53.25 4.1 -52.15 3.35 -51.25 5.7 -49.15 6.55 -50.15 M2.4 -3.6 L2.4 -7.05 Q3.2 -9.2 4.95 -8.9 L4.95 -10.0 Q3.45 -10.25 2.4 -8.65 L2.4 -10.0 1.45 -10.0 1.45 -3.6 1.65 -3.35 2.4 -3.6 M7.7 -10.55 L8.3 -11.95 8.3 -12.95 7.25 -12.95 7.25 -11.95 7.7 -11.95 7.25 -10.55 7.7 -10.55 M7.85 -26.85 L9.5 -29.2 8.2 -29.2 7.0 -26.85 7.85 -26.85 M9.25 -26.85 L10.1 -26.85 11.75 -29.2 10.45 -29.2 9.25 -26.85 M3.9 -36.0 Q3.9 -36.65 3.5 -37.1 3.05 -37.5 2.4 -37.5 1.75 -37.5 1.35 -37.1 0.9 -36.65 0.9 -36.0 0.9 -35.35 1.35 -34.95 1.75 -34.5 2.4 -34.5 3.05 -34.5 3.5 -34.95 3.9 -35.35 3.9 -36.0 M3.4 -36.0 L3.1 -35.3 Q2.85 -35.05 2.4 -35.05 2.0 -35.05 1.7 -35.3 1.4 -35.6 1.4 -36.0 1.4 -36.45 1.7 -36.7 2.0 -37.0 2.4 -37.0 L3.1 -36.7 3.4 -36.0 M-15.3 -10.6 L-17.15 -11.75 -17.6 -11.15 -15.8 -9.95 -15.3 -10.6 M-14.4 -11.6 L-16.2 -12.8 -16.65 -12.15 -14.85 -11.0 -14.4 -11.6 M-7.65 -20.45 Q-6.4 -19.65 -5.3 -18.35 L-4.45 -19.35 Q-5.4 -20.5 -6.9 -21.35 L-7.65 -20.45 M-9.1 -34.45 L-8.35 -35.4 Q-9.3 -36.5 -10.5 -37.2 L-11.15 -36.35 -9.1 -34.45 M-16.6 -44.5 L-16.15 -44.7 -15.75 -44.5 -15.55 -44.1 -15.75 -43.65 Q-15.9 -43.45 -16.15 -43.45 L-16.6 -43.65 -16.75 -44.1 -16.6 -44.5 M-16.15 -45.05 L-16.85 -44.8 -17.15 -44.1 Q-17.15 -43.65 -16.85 -43.35 -16.6 -43.1 -16.15 -43.1 L-15.45 -43.35 Q-15.15 -43.65 -15.15 -44.1 -15.15 -44.5 -15.45 -44.8 L-16.15 -45.05 M16.45 -2.35 L16.9 -2.35 17.5 -3.6 17.5 -4.6 16.45 -4.6 16.45 -3.6 16.9 -3.6 16.45 -2.35" fill="#ffffff" fill-rule="evenodd" stroke="none"/>
    <path d="M4.1 -52.15 L5.1 -51.5 6.55 -50.15 5.7 -49.15 3.35 -51.25 4.1 -52.15 M11.9 -45.05 L13.6 -43.1 13.65 -43.0 12.6 -43.0 10.25 -45.05 11.9 -45.05 M17.25 -43.45 L21.0 -43.45 21.3 -43.6 21.95 -42.85 21.85 -42.6 Q21.5 -36.75 18.15 -35.2 L17.65 -36.25 Q20.65 -37.5 20.85 -42.45 L17.25 -42.45 17.25 -43.45 M15.05 -28.8 L18.45 -21.3 21.85 -28.8 22.75 -28.35 22.15 -27.05 18.45 -18.95 14.15 -28.35 15.05 -28.8 M22.25 -13.2 Q24.6 -10.9 24.6 -7.8 24.6 -4.7 22.25 -2.4 L21.75 -2.95 Q23.9 -4.95 23.9 -7.8 23.9 -10.65 21.75 -12.7 L22.25 -13.2 M0.15 -2.9 L0.15 -2.35 -5.8 -2.35 -5.8 -2.9 0.15 -2.9 M-8.35 -3.6 L-9.25 -3.6 -9.25 -4.85 -9.25 -12.75 -8.35 -12.75 -8.35 -3.6 M-13.5 -4.85 Q-15.4 -3.0 -17.55 -3.0 -19.25 -3.0 -20.05 -3.8 -20.65 -4.4 -20.65 -6.1 L-20.65 -7.65 -20.65 -12.4 -19.65 -12.4 Q-19.25 -12.3 -19.6 -12.05 L-19.6 -6.1 Q-19.6 -4.95 -19.15 -4.55 -18.65 -4.0 -17.6 -4.0 -16.45 -4.0 -15.25 -4.85 L-13.9 -6.1 -13.2 -5.2 -13.5 -4.85 M-22.65 -7.95 L-22.65 -7.6 -28.9 -7.6 -28.9 -13.8 -28.35 -13.8 -28.35 -8.1 -22.65 -8.1 -22.65 -7.95 M-20.8 -18.35 L-20.8 -18.9 -14.85 -18.9 -14.85 -18.35 -20.8 -18.35 M-14.3 -18.7 L-14.3 -19.4 -12.25 -19.4 -12.25 -26.8 -11.8 -26.85 -11.35 -18.5 -14.3 -18.5 -14.3 -18.7 M-19.75 -34.55 L-20.6 -35.75 -21.05 -37.0 Q-21.65 -38.25 -21.65 -39.7 -21.65 -41.35 -21.05 -42.6 L-19.3 -44.85 -19.0 -44.55 -18.8 -44.35 -18.95 -44.15 -20.4 -42.3 Q-20.95 -41.2 -20.95 -39.7 -20.95 -38.45 -20.4 -37.35 -19.95 -36.3 -18.8 -35.05 L-19.75 -34.55 M-15.05 -50.4 L-15.2 -50.6 -4.95 -59.1 -4.45 -58.5 -14.65 -49.95 -15.05 -50.4 M-1.25 -59.55 L-0.35 -59.55 -0.35 -53.25 -0.35 -50.4 -1.25 -50.4 -1.25 -59.55 M28.0 -34.9 L33.95 -34.9 33.95 -34.35 28.0 -34.35 28.0 -34.9 M3.4 -36.0 L3.1 -36.7 2.4 -37.0 Q2.0 -37.0 1.7 -36.7 1.4 -36.45 1.4 -36.0 1.4 -35.6 1.7 -35.3 2.0 -35.05 2.4 -35.05 2.85 -35.05 3.1 -35.3 L3.4 -36.0 M3.9 -36.0 Q3.9 -35.35 3.5 -34.95 3.05 -34.5 2.4 -34.5 1.75 -34.5 1.35 -34.95 0.9 -35.35 0.9 -36.0 0.9 -36.65 1.35 -37.1 1.75 -37.5 2.4 -37.5 3.05 -37.5 3.5 -37.1 3.9 -36.65 3.9 -36.0 M9.25 -26.85 L10.45 -29.2 11.75 -29.2 10.1 -26.85 9.25 -26.85 M7.85 -26.85 L7.0 -26.85 8.2 -29.2 9.5 -29.2 7.85 -26.85 M7.7 -10.55 L7.25 -10.55 7.7 -11.95 7.25 -11.95 7.25 -12.95 8.3 -12.95 8.3 -11.95 7.7 -10.55 M1.45 -3.6 L1.45 -10.0 2.4 -10.0 2.4 -8.65 Q3.45 -10.25 4.95 -10.0 L4.95 -8.9 Q3.2 -9.2 2.4 -7.05 L2.4 -3.6 1.45 -3.6 M16.45 -2.35 L16.9 -3.6 16.45 -3.6 16.45 -4.6 17.5 -4.6 17.5 -3.6 16.9 -2.35 16.45 -2.35 M-16.15 -45.05 L-15.45 -44.8 Q-15.15 -44.5 -15.15 -44.1 -15.15 -43.65 -15.45 -43.35 L-16.15 -43.1 Q-16.6 -43.1 -16.85 -43.35 -17.15 -43.65 -17.15 -44.1 L-16.85 -44.8 -16.15 -45.05 M-16.6 -44.5 L-16.75 -44.1 -16.6 -43.65 -16.15 -43.45 Q-15.9 -43.45 -15.75 -43.65 L-15.55 -44.1 -15.75 -44.5 -16.15 -44.7 -16.6 -44.5 M-9.1 -34.45 L-11.15 -36.35 -10.5 -37.2 Q-9.3 -36.5 -8.35 -35.4 L-9.1 -34.45 M-7.65 -20.45 L-6.9 -21.35 Q-5.4 -20.5 -4.45 -19.35 L-5.3 -18.35 Q-6.4 -19.65 -7.65 -20.45 M-14.4 -11.6 L-14.85 -11.0 -16.65 -12.15 -16.2 -12.8 -14.4 -11.6 M-15.3 -10.6 L-15.8 -9.95 -17.6 -11.15 -17.15 -11.75 -15.3 -10.6" fill="#000000" fill-rule="evenodd" stroke="none"/>
  </g>
</svg>
