<?xml version="1.0" encoding="UTF-8" standalone="no"?>
<svg xmlns:ffdec="https://www.free-decompiler.com/flash" xmlns:xlink="http://www.w3.org/1999/xlink" ffdec:objectType="shape" height="87.75px" width="37.85px" xmlns="http://www.w3.org/2000/svg">
  <g transform="matrix(1.0, 0.0, 0.0, 1.0, 18.9, 41.9)">
    <path d="M-16.5 -20.6 Q-17.7 -22.1 -18.4 -23.75 -18.85 -24.8 -18.85 -26.05 -19.15 -30.7 -16.5 -34.45 -14.45 -37.25 -11.4 -39.05 -7.7 -41.3 -3.5 -41.75 0.95 -42.3 5.1 -40.65 L6.85 -39.95 8.65 -39.0 11.3 -36.4 Q13.15 -34.15 13.45 -31.1 13.45 -30.65 13.15 -30.5 L13.1 -30.5 Q8.7 -29.15 5.2 -26.45 2.1 -29.15 -1.9 -30.35 -6.35 -31.65 -10.45 -30.35 -13.6 -29.4 -15.25 -27.15 -13.6 -29.4 -10.45 -30.35 -6.35 -31.65 -1.9 -30.35 2.1 -29.15 5.2 -26.45 8.7 -29.15 13.1 -30.5 L13.15 -30.5 Q15.6 -28.3 17.1 -25.4 18.4 -22.75 18.85 -19.9 19.15 -17.65 18.3 -15.6 L15.7 -9.9 15.65 -9.8 14.75 -8.05 13.85 -6.85 13.45 -6.35 12.25 -4.65 12.2 -4.6 Q11.65 -3.8 11.15 -4.85 L10.65 -5.75 Q9.95 -4.85 8.55 -4.4 9.2 -4.45 9.5 -3.45 L9.4 -2.7 9.4 -2.65 Q12.1 -1.95 14.15 -0.5 L15.05 0.25 Q17.05 2.1 17.7 4.6 18.35 7.0 18.1 9.55 17.85 12.15 16.25 14.3 L15.8 14.85 16.1 18.15 16.1 18.2 16.1 18.55 16.1 18.6 16.1 20.2 Q16.05 21.25 15.5 22.05 L15.4 22.15 14.9 22.85 14.6 23.25 13.4 24.25 10.4 26.35 7.2 28.45 Q6.6 28.85 6.5 29.6 L6.3 33.7 5.2 34.5 5.1 35.55 4.7 37.1 4.45 37.7 8.15 38.4 Q8.9 39.85 8.2 40.95 L7.6 41.5 Q6.5 42.15 5.5 41.75 L3.4 41.3 1.65 41.15 0.65 40.9 -0.55 41.25 -0.4 42.3 -0.25 43.0 -0.2 43.2 -0.1 43.95 -0.15 45.2 -0.55 45.55 -2.45 45.7 -2.6 45.6 -2.8 45.05 -2.95 44.3 -3.05 44.0 -3.1 43.7 -3.15 43.25 -3.2 42.15 -3.2 41.35 -3.6 41.3 -4.1 41.25 Q-5.05 41.2 -4.7 40.15 L-4.45 39.55 -6.1 39.5 -8.05 39.6 Q-8.95 39.45 -8.65 38.65 -10.1 38.6 -10.25 37.15 -10.45 35.3 -8.75 35.45 -10.45 34.8 -11.15 32.95 L-11.35 31.45 -11.15 28.25 Q-10.9 27.0 -10.3 26.05 -9.2 24.1 -7.45 22.95 -7.35 22.85 -7.4 22.55 L-7.4 21.5 -7.9 21.0 Q-8.5 20.4 -8.7 19.05 L-9.15 18.95 Q-11.25 18.15 -12.65 16.55 L-15.1 16.4 Q-16.15 15.9 -15.45 15.15 -14.65 14.3 -13.6 14.15 L-13.6 14.0 Q-13.4 12.75 -12.85 11.75 -12.1 10.2 -10.85 9.65 L-10.65 9.55 -9.4 9.3 -9.4 9.25 -9.1 6.85 Q-8.7 4.3 -7.5 2.0 L-7.45 2.0 -7.45 1.9 -7.5 2.0 Q-8.7 4.3 -9.1 6.85 L-9.4 9.25 -9.4 9.3 -10.65 9.55 -10.8 9.55 -10.75 9.15 -10.45 6.6 -10.3 5.35 -9.8 3.2 Q-9.3 1.4 -7.95 0.05 L-6.15 -1.45 -5.8 -1.05 -5.15 -1.4 -5.05 -1.45 Q-4.7 -1.6 -4.45 -2.1 L-5.4 -2.15 -5.95 -2.15 -6.0 -2.15 Q-10.0 -2.6 -12.65 -5.75 -15.0 -8.5 -15.15 -11.75 L-15.15 -11.9 -15.15 -11.95 -15.05 -13.85 Q-14.75 -16.0 -15.1 -17.6 L-15.2 -17.8 Q-15.5 -18.75 -15.3 -20.0 L-15.25 -20.2 -15.2 -20.35 -15.15 -20.75 -14.7 -21.95 -14.65 -21.95 -14.55 -22.2 Q-13.25 -24.5 -10.05 -24.1 -8.55 -23.85 -7.85 -22.4 -6.7 -19.95 -8.45 -17.7 -9.5 -16.5 -11.35 -17.0 -13.7 -17.7 -13.4 -19.95 -13.35 -20.75 -12.9 -21.0 L-12.85 -21.0 -11.6 -21.05 -12.85 -21.0 -12.9 -21.0 Q-13.35 -20.75 -13.4 -19.95 -13.7 -17.7 -11.35 -17.0 -9.5 -16.5 -8.45 -17.7 -6.7 -19.95 -7.85 -22.4 -8.55 -23.85 -10.05 -24.1 -13.25 -24.5 -14.55 -22.2 L-14.65 -21.95 -14.7 -21.95 -14.7 -23.95 -15.05 -24.0 -15.05 -24.05 -15.2 -25.4 -15.25 -27.15 -16.05 -25.9 -16.25 -25.4 -16.55 -24.35 -16.6 -24.15 -16.7 -23.1 Q-16.75 -21.75 -15.95 -21.0 L-16.5 -20.6 M6.3 15.2 L7.3 15.1 Q8.8 15.1 8.65 13.75 8.55 13.0 7.95 12.5 7.45 12.0 6.3 12.05 L5.55 12.1 1.1 12.75 5.55 12.1 6.3 12.05 Q7.45 12.0 7.95 12.5 8.55 13.0 8.65 13.75 8.8 15.1 7.3 15.1 L6.3 15.2 5.5 15.35 5.55 15.35 5.6 15.35 6.3 15.2 M8.55 -4.4 L7.75 -4.15 Q5.45 -2.8 2.95 -2.4 L1.35 -2.15 -0.45 -1.7 -0.55 -1.7 -1.8 -1.25 -1.85 -1.25 1.9 2.35 3.15 3.15 Q3.6 3.3 3.85 2.85 4.25 2.2 5.1 1.8 7.5 0.45 8.9 -1.6 L9.4 -2.65 8.9 -1.6 Q7.5 0.45 5.1 1.8 4.25 2.2 3.85 2.85 3.6 3.3 3.15 3.15 L1.9 2.35 -1.85 -1.25 -1.8 -1.25 -0.55 -1.7 -0.45 -1.7 -2.1 -2.05 -2.9 -2.05 -4.45 -2.1 -2.9 -2.05 -2.1 -2.05 -0.45 -1.7 1.35 -2.15 2.95 -2.4 Q5.45 -2.8 7.75 -4.15 L8.55 -4.4 M4.75 -21.05 L4.15 -21.45 4.1 -21.5 -0.8 -24.6 4.1 -21.5 4.15 -21.45 4.75 -21.05 M1.35 -18.7 L2.15 -19.1 Q1.05 -19.9 0.45 -19.7 -0.2 -19.5 -0.35 -18.3 -0.7 -15.0 2.35 -15.1 5.25 -15.15 4.95 -17.85 4.7 -19.8 3.6 -20.7 2.45 -21.65 0.5 -21.5 L0.25 -21.45 0.15 -21.45 0.1 -21.45 0.05 -21.45 Q-2.4 -21.1 -3.6 -18.85 -4.25 -17.7 -3.95 -16.4 -3.0 -12.05 1.35 -12.8 -3.0 -12.05 -3.95 -16.4 -4.25 -17.7 -3.6 -18.85 -2.4 -21.1 0.05 -21.45 L0.1 -21.45 0.15 -21.45 0.25 -21.45 0.5 -21.5 Q2.45 -21.65 3.6 -20.7 4.7 -19.8 4.95 -17.85 5.25 -15.15 2.35 -15.1 -0.7 -15.0 -0.35 -18.3 -0.2 -19.5 0.45 -19.7 1.05 -19.9 2.15 -19.1 L1.35 -18.7 M10.65 -5.75 Q10.0 -6.85 10.0 -8.35 10.35 -8.75 11.25 -8.8 13.2 -8.95 13.85 -10.75 L14.1 -12.15 Q14.2 -13.45 13.6 -14.35 12.35 -16.45 10.35 -16.25 L10.25 -16.25 9.75 -16.15 10.25 -16.25 10.35 -16.25 Q12.35 -16.45 13.6 -14.35 14.2 -13.45 14.1 -12.15 L13.85 -10.75 Q13.2 -8.95 11.25 -8.8 10.35 -8.75 10.0 -8.35 10.0 -6.85 10.65 -5.75 M5.2 -26.45 L5.5 -26.2 7.55 -23.65 Q6.95 -21.65 6.9 -19.3 L6.9 -18.7 6.95 -17.95 Q7.05 -16.25 7.4 -14.75 8.7 -14.75 9.7 -15.2 L10.4 -15.55 9.7 -15.2 Q8.7 -14.75 7.4 -14.75 7.05 -16.25 6.95 -17.95 L6.9 -18.7 6.9 -19.3 Q6.95 -21.65 7.55 -23.65 L5.5 -26.2 5.2 -26.45 M15.8 14.85 L13.95 16.65 11.75 17.8 9.25 18.05 Q6.85 17.8 5.75 15.85 L5.65 15.6 5.55 15.35 5.65 15.6 5.75 15.85 Q6.85 17.8 9.25 18.05 L11.75 17.8 13.95 16.65 15.8 14.85 M11.5 5.35 L7.75 6.55 Q5.0 7.15 5.45 10.25 L2.95 9.95 5.45 10.25 Q5.0 7.15 7.75 6.55 L11.5 5.35 M1.35 14.95 Q3.3 15.65 5.5 15.35 3.3 15.65 1.35 14.95 -1.2 13.75 0.25 12.7 -1.2 13.75 1.35 14.95 M15.35 18.2 L14.95 18.55 12.65 19.7 12.55 19.7 11.2 20.25 Q10.85 20.35 10.5 20.6 8.95 21.5 7.15 21.8 L2.1 22.65 -0.4 23.0 -2.0 23.1 -3.55 23.1 -3.55 23.05 -3.8 22.55 Q-4.35 20.05 -4.35 17.3 L-2.55 16.5 Q-1.85 17.1 -0.75 17.3 L2.2 17.55 Q3.4 17.5 4.05 16.7 3.4 17.5 2.2 17.55 L-0.75 17.3 Q-1.85 17.1 -2.55 16.5 L-4.35 17.3 Q-4.35 20.05 -3.8 22.55 L-3.55 23.05 -3.55 23.1 -2.0 23.1 -0.4 23.0 2.1 22.65 7.15 21.8 Q8.95 21.5 10.5 20.6 10.85 20.35 11.2 20.25 L12.55 19.7 12.65 19.7 14.95 18.55 15.35 18.2 M5.25 16.1 Q4.85 16.95 4.05 16.7 4.85 16.95 5.25 16.1 M-7.75 -25.85 L-8.5 -25.7 Q-11.25 -24.5 -14.7 -23.95 -11.25 -24.5 -8.5 -25.7 L-7.75 -25.85 M4.45 37.7 Q3.45 39.65 1.35 40.6 L0.65 40.9 1.35 40.6 Q3.45 39.65 4.45 37.7 M-4.45 39.55 L-3.4 37.95 Q-2.75 37.2 -3.05 36.6 L-0.75 36.5 1.5 36.05 Q3.45 35.6 5.2 34.5 3.45 35.6 1.5 36.05 L-0.75 36.5 -3.05 36.6 Q-2.75 37.2 -3.4 37.95 L-4.45 39.55 M-12.15 -8.95 L-11.3 -8.55 -10.8 -7.55 Q-9.8 -5.65 -8.25 -4.55 -7.2 -3.85 -5.85 -3.45 L-5.75 -3.45 -4.35 -3.2 -2.9 -3.1 -2.45 -3.2 -1.65 -3.5 -0.15 -4.9 Q1.2 -6.55 1.5 -8.8 -0.5 -7.65 -2.9 -7.55 L-4.15 -7.45 -6.75 -7.4 -4.15 -7.45 -2.9 -7.55 Q-0.5 -7.65 1.5 -8.8 1.2 -6.55 -0.15 -4.9 L-1.65 -3.5 -2.45 -3.2 -2.9 -3.1 -4.35 -3.2 -5.75 -3.45 -5.85 -3.45 Q-7.2 -3.85 -8.25 -4.55 -9.8 -5.65 -10.8 -7.55 L-11.3 -8.55 -12.15 -8.95 M-9.85 -10.25 L-12.05 -10.45 Q-13.4 -10.85 -14.4 -11.9 -13.1 -14.05 -10.25 -14.45 -13.1 -14.05 -14.4 -11.9 -13.4 -10.85 -12.05 -10.45 L-9.85 -10.25 M-15.1 -17.6 Q-14.5 -16.3 -12.8 -15.55 -14.5 -16.3 -15.1 -17.6 M-6.75 -7.4 L-6.75 -7.45 -6.8 -7.4 -6.75 -7.4 -4.0 -3.15 -3.15 -5.15 -2.45 -7.55 Q-0.95 -6.6 -0.15 -4.9 -0.95 -6.6 -2.45 -7.55 L-3.15 -5.15 -4.0 -3.15 -6.75 -7.4 M-9.5 -7.85 L-8.85 -6.15 -8.25 -4.55 Q-7.3 -5.75 -6.8 -7.4 L-9.5 -7.85 -11.3 -8.55 -9.5 -7.85 -6.8 -7.4 Q-7.3 -5.75 -8.25 -4.55 L-8.85 -6.15 -9.5 -7.85 M-4.35 12.55 Q-5.25 11.6 -6.65 11.65 L-6.95 11.65 Q-8.1 11.8 -8.9 12.8 -9.7 13.9 -9.35 15.35 -9.05 16.55 -7.8 17.05 L-7.25 17.2 -7.35 19.1 -8.7 19.05 -7.35 19.1 -7.25 17.2 -7.8 17.05 Q-9.05 16.55 -9.35 15.35 -9.7 13.9 -8.9 12.8 -8.1 11.8 -6.95 11.65 -6.95 10.0 -8.8 9.3 L-9.4 9.3 -9.45 9.95 -9.4 9.3 -8.8 9.3 Q-6.95 10.0 -6.95 11.65 L-6.65 11.65 Q-5.25 11.6 -4.35 12.55 M-5.8 -1.05 Q-6.65 -0.55 -7.05 0.3 L-7.45 1.9 -7.05 0.3 Q-6.65 -0.55 -5.8 -1.05 M-4.35 -0.8 Q-6.05 -0.3 -6.75 1.35 L-7.45 2.0 -6.75 1.35 Q-6.05 -0.3 -4.35 -0.8 M-2.55 16.5 L-2.75 16.3 -3.5 14.95 -3.65 14.25 -3.7 12.6 -3.65 12.55 Q-3.45 11.45 -2.65 10.6 L-1.95 10.05 Q0.35 8.95 2.95 9.95 0.35 8.95 -1.95 10.05 L-2.65 10.6 Q-3.45 11.45 -3.65 12.55 L-3.7 12.6 -3.65 14.25 -3.5 14.95 -2.75 16.3 -2.55 16.5 M-5.1 35.65 Q-4.5 36.25 -3.65 36.5 L-3.05 36.6 -3.65 36.5 Q-4.5 36.25 -5.1 35.65 L-7.1 35.7 -7.3 35.7 -8.75 35.45 -7.3 35.7 -7.1 35.7 -5.1 35.65 -5.3 35.4 Q-6.2 34.3 -6.2 32.7 -6.25 31.4 -5.95 30.25 -6.25 31.4 -6.2 32.7 -6.2 34.3 -5.3 35.4 L-5.1 35.65 M-3.4 25.3 L-3.6 25.55 -4.45 26.75 -4.9 27.7 Q-5.65 28.9 -5.95 30.25 L-6.35 28.85 -6.55 27.6 -7.45 22.95 -6.55 27.6 -6.35 28.85 -5.95 30.25 Q-5.65 28.9 -4.9 27.7 L-4.45 26.75 -3.6 25.55 -3.4 25.3 -3.55 23.1 -3.4 25.3 Q-2.7 24.55 -1.7 24.1 L-0.35 23.5 -1.7 24.1 Q-2.7 24.55 -3.4 25.3 M-4.35 17.3 L-7.25 17.2 -4.35 17.3 M-7.4 21.5 L-7.35 19.1 -7.4 21.5 M-12.05 16.45 L-12.65 16.55 -13.2 15.9 Q-13.75 15.15 -13.6 14.15 -13.75 15.15 -13.2 15.9 L-12.65 16.55 -12.05 16.45 M-0.6 41.25 L-0.55 41.2 -0.55 41.25 -0.55 41.2 -0.6 41.25 -0.55 41.25 -0.6 41.25 -1.7 41.4 -0.6 41.25 M-0.4 42.3 L-1.3 42.7 Q-2.2 43.05 -3.1 43.7 -2.2 43.05 -1.3 42.7 L-0.4 42.3 M-3.2 42.15 L-1.7 41.4 -3.2 42.15 M-3.2 41.35 L-1.7 41.4 -3.2 41.35 M-0.1 43.95 L-1.65 44.3 -2.1 44.25 -2.95 44.3 -2.1 44.25 -1.65 44.3 -0.1 43.95 M-8.65 38.65 Q-8.1 37.0 -7.1 35.7 -8.1 37.0 -8.65 38.65 M-4.3 37.5 Q-4.95 39.0 -6.1 39.5 -4.95 39.0 -4.3 37.5" fill="#ffffff" fill-rule="evenodd" stroke="none"/>
    <path d="M13.15 -30.5 Q13.45 -30.65 13.45 -31.1 13.15 -34.15 11.3 -36.4 L8.65 -39.0 6.85 -39.95 5.1 -40.65 Q0.95 -42.3 -3.5 -41.75 -7.7 -41.3 -11.4 -39.05 -14.45 -37.25 -16.5 -34.45 -19.15 -30.7 -18.85 -26.05 -18.85 -24.8 -18.4 -23.75 -17.7 -22.1 -16.5 -20.6 L-16.15 -20.15 M-15.95 -21.0 Q-16.75 -21.75 -16.7 -23.1 L-16.6 -24.15 -16.55 -24.35 -16.25 -25.4 -16.05 -25.9 -15.25 -27.15 Q-13.6 -29.4 -10.45 -30.35 -6.35 -31.65 -1.9 -30.35 2.1 -29.15 5.2 -26.45 8.7 -29.15 13.1 -30.5 L13.15 -30.5 Q15.6 -28.3 17.1 -25.4 18.4 -22.75 18.85 -19.9 19.15 -17.65 18.3 -15.6 L15.7 -9.9 15.65 -9.8 14.75 -8.05 13.85 -6.85 13.45 -6.35 12.25 -4.65 12.2 -4.6 Q11.65 -3.8 11.15 -4.85 L10.65 -5.75 Q9.95 -4.85 8.55 -4.4 9.2 -4.45 9.5 -3.45 L9.4 -2.7 9.4 -2.65 Q12.1 -1.95 14.15 -0.5 L15.05 0.25 Q17.05 2.1 17.7 4.6 18.35 7.0 18.1 9.55 17.85 12.15 16.25 14.3 L15.8 14.85 16.1 18.15 16.1 18.2 16.1 18.55 16.1 18.6 16.1 20.2 Q16.05 21.25 15.5 22.05 L14.6 23.25 13.4 24.25 10.4 26.35 7.2 28.45 Q6.6 28.85 6.5 29.6 L6.3 33.7 5.2 34.5 5.1 35.55 4.7 37.1 4.45 37.7 8.15 38.4 Q8.9 39.85 8.2 40.95 L7.6 41.5 Q6.5 42.15 5.5 41.75 L3.4 41.3 1.65 41.15 0.65 40.9 -0.55 41.25 -0.6 41.25 -1.7 41.4 -3.2 41.35 -3.6 41.3 -4.1 41.25 Q-5.05 41.2 -4.7 40.15 L-4.45 39.55 -6.1 39.5 -8.05 39.6 Q-8.95 39.45 -8.65 38.65 -10.1 38.6 -10.25 37.15 -10.45 35.3 -8.75 35.45 -10.45 34.8 -11.15 32.95 L-11.35 31.45 -11.15 28.25 Q-10.9 27.0 -10.3 26.05 -9.2 24.1 -7.45 22.95 -7.35 22.85 -7.4 22.55 L-7.4 21.5 -7.9 21.0 Q-8.5 20.4 -8.7 19.05 L-9.15 18.95 Q-11.25 18.15 -12.65 16.55 L-15.1 16.4 Q-16.15 15.9 -15.45 15.15 -14.65 14.3 -13.6 14.15 L-13.6 14.0 Q-13.4 12.75 -12.85 11.75 -12.1 10.2 -10.85 9.65 L-10.8 9.55 -10.75 9.15 -10.45 6.6 -10.3 5.35 -9.8 3.2 Q-9.3 1.4 -7.95 0.05 L-6.15 -1.45 M-5.8 -1.05 L-5.15 -1.4 -5.05 -1.45 Q-4.7 -1.6 -4.45 -2.1 L-5.4 -2.15 -5.95 -2.15 -6.0 -2.15 Q-10.0 -2.6 -12.65 -5.75 -15.0 -8.5 -15.15 -11.75 L-15.15 -11.9 -15.15 -11.95 -15.05 -13.85 Q-14.75 -16.0 -15.1 -17.6 L-15.2 -17.8 Q-15.5 -18.75 -15.3 -20.0 L-15.25 -20.2 -15.2 -20.35 -15.15 -20.75 -14.7 -21.95 -15.05 -23.85 -15.05 -23.9 -15.05 -24.0 -15.05 -24.05 -15.2 -25.4 -15.25 -27.15 M10.4 -15.55 L9.7 -15.2 Q8.7 -14.75 7.4 -14.75 7.05 -16.25 6.95 -17.95 L6.9 -18.7 6.9 -19.3 Q6.95 -21.65 7.55 -23.65 L5.5 -26.2 5.2 -26.45 M9.75 -16.15 L10.25 -16.25 10.35 -16.25 Q12.35 -16.45 13.6 -14.35 14.2 -13.45 14.1 -12.15 L13.85 -10.75 Q13.2 -8.95 11.25 -8.8 10.35 -8.75 10.0 -8.35 10.0 -6.85 10.65 -5.75 M1.35 -12.8 Q-3.0 -12.05 -3.95 -16.4 -4.25 -17.7 -3.6 -18.85 -2.4 -21.1 0.05 -21.45 L0.1 -21.45 0.15 -21.45 0.25 -21.45 0.5 -21.5 Q2.45 -21.65 3.6 -20.7 4.7 -19.8 4.95 -17.85 5.25 -15.15 2.35 -15.1 -0.7 -15.0 -0.35 -18.3 -0.2 -19.5 0.45 -19.7 1.05 -19.9 2.15 -19.1 L1.35 -18.7 M-0.8 -24.6 L4.1 -21.5 4.15 -21.45 4.75 -21.05 M9.4 -2.65 L8.9 -1.6 Q7.5 0.45 5.1 1.8 4.25 2.2 3.85 2.85 3.6 3.3 3.15 3.15 L1.9 2.35 -1.85 -1.25 -1.8 -1.25 -0.55 -1.7 -0.45 -1.7 -2.1 -2.05 -2.9 -2.05 -4.45 -2.1 M-0.45 -1.7 L1.35 -2.15 2.95 -2.4 Q5.45 -2.8 7.75 -4.15 L8.55 -4.4 M1.1 12.75 L5.55 12.1 6.3 12.05 Q7.45 12.0 7.95 12.5 8.55 13.0 8.65 13.75 8.8 15.1 7.3 15.1 L6.3 15.2 5.6 15.35 5.5 15.35 Q3.3 15.65 1.35 14.95 M5.55 15.35 L5.65 15.6 5.75 15.85 Q6.85 17.8 9.25 18.05 L11.75 17.8 13.95 16.65 15.8 14.85 M5.5 15.35 L5.55 15.35 M4.05 16.7 Q3.4 17.5 2.2 17.55 L-0.75 17.3 Q-1.85 17.1 -2.55 16.5 L-4.35 17.3 Q-4.35 20.05 -3.8 22.55 L-3.55 23.05 -3.55 23.1 -2.0 23.1 -0.4 23.0 2.1 22.65 7.15 21.8 Q8.95 21.5 10.5 20.6 10.85 20.35 11.2 20.25 L12.55 19.7 12.65 19.7 14.95 18.55 15.35 18.2 M15.5 22.05 L15.4 22.15 14.9 22.85 14.6 23.25 M5.2 34.5 Q3.45 35.6 1.5 36.05 L-0.75 36.5 -3.05 36.6 Q-2.75 37.2 -3.4 37.95 L-4.45 39.55 M0.65 40.9 L1.35 40.6 Q3.45 39.65 4.45 37.7 M-14.7 -23.95 Q-11.25 -24.5 -8.5 -25.7 L-7.75 -25.85 M-14.7 -21.95 L-14.65 -21.95 -14.55 -22.2 Q-13.25 -24.5 -10.05 -24.1 -8.55 -23.85 -7.85 -22.4 -6.7 -19.95 -8.45 -17.7 -9.5 -16.5 -11.35 -17.0 -13.7 -17.7 -13.4 -19.95 -13.35 -20.75 -12.9 -21.0 L-12.85 -21.0 -11.6 -21.05 M-12.8 -15.55 Q-14.5 -16.3 -15.1 -17.6 M-10.25 -14.45 Q-13.1 -14.05 -14.4 -11.9 -13.4 -10.85 -12.05 -10.45 L-9.85 -10.25 M-6.75 -7.4 L-4.15 -7.45 -2.9 -7.55 Q-0.5 -7.65 1.5 -8.8 1.2 -6.55 -0.15 -4.9 L-1.65 -3.5 -2.45 -3.2 -2.9 -3.1 -4.35 -3.2 -5.75 -3.45 -5.85 -3.45 Q-7.2 -3.85 -8.25 -4.55 -9.8 -5.65 -10.8 -7.55 L-11.3 -8.55 -12.15 -8.95 M-6.75 -7.4 L-6.75 -7.45 -6.8 -7.4 -6.75 -7.4 -4.0 -3.15 -3.15 -5.15 -2.45 -7.55 Q-0.95 -6.6 -0.15 -4.9 M-11.3 -8.55 L-9.5 -7.85 -6.8 -7.4 Q-7.3 -5.75 -8.25 -4.55 L-8.85 -6.15 -9.5 -7.85 M-7.45 2.0 L-7.45 1.9 -7.5 2.0 Q-8.7 4.3 -9.1 6.85 L-9.4 9.25 -9.4 9.3 -10.65 9.55 -10.85 9.65 M-7.45 2.0 L-6.75 1.35 Q-6.05 -0.3 -4.35 -0.8 M-7.45 1.9 L-7.05 0.3 Q-6.65 -0.55 -5.8 -1.05 M-8.7 19.05 L-7.35 19.1 -7.25 17.2 -7.8 17.05 Q-9.05 16.55 -9.35 15.35 -9.7 13.9 -8.9 12.8 -8.1 11.8 -6.95 11.65 -6.95 10.0 -8.8 9.3 L-9.4 9.3 -9.45 9.95 M-6.95 11.65 L-6.65 11.65 Q-5.25 11.6 -4.35 12.55 M2.95 9.95 Q0.35 8.95 -1.95 10.05 L-2.65 10.6 Q-3.45 11.45 -3.65 12.55 L-3.7 12.6 -3.65 14.25 -3.5 14.95 -2.75 16.3 -2.55 16.5 M-13.6 14.15 Q-13.75 15.15 -13.2 15.9 L-12.65 16.55 -12.05 16.45 M-7.35 19.1 L-7.4 21.5 M-3.55 23.1 L-3.4 25.3 Q-2.7 24.55 -1.7 24.1 L-0.35 23.5 M-7.25 17.2 L-4.35 17.3 M-7.45 22.95 L-6.55 27.6 -6.35 28.85 -5.95 30.25 Q-5.65 28.9 -4.9 27.7 L-4.45 26.75 -3.6 25.55 -3.4 25.3 M-8.75 35.45 L-7.3 35.7 -7.1 35.7 -5.1 35.65 -5.3 35.4 Q-6.2 34.3 -6.2 32.7 -6.25 31.4 -5.95 30.25 M-3.05 36.6 L-3.65 36.5 Q-4.5 36.25 -5.1 35.65 M-6.1 39.5 Q-4.95 39.0 -4.3 37.5 M-7.1 35.7 Q-8.1 37.0 -8.65 38.65" fill="none" stroke="#000000" stroke-linecap="round" stroke-linejoin="round" stroke-width="0.05"/>
    <path d="M-0.55 41.25 L-0.4 42.3 -0.25 43.0 -0.2 43.2 -0.1 43.95 -0.15 45.2 -0.55 45.55 -2.45 45.7 -2.6 45.6 -2.8 45.05 -2.95 44.3 -3.05 44.0 -3.1 43.7 -3.15 43.25 -3.2 42.15 -3.2 41.35 M2.95 9.95 L5.45 10.25 Q5.0 7.15 7.75 6.55 L11.5 5.35 M1.35 14.95 Q-1.2 13.75 0.25 12.7 M4.05 16.7 Q4.85 16.95 5.25 16.1 M-0.55 41.25 L-0.55 41.2 -0.6 41.25 M-3.1 43.7 Q-2.2 43.05 -1.3 42.7 L-0.4 42.3 M-1.7 41.4 L-3.2 42.15 M-2.95 44.3 L-2.1 44.25 -1.65 44.3 -0.1 43.95" fill="none" stroke="#000000" stroke-linecap="round" stroke-linejoin="round" stroke-width="0.05"/>
  </g>
</svg>
