<svg xmlns:xlink="http://www.w3.org/1999/xlink" height="37.25px" width="52.0px" xmlns="http://www.w3.org/2000/svg">
  <g transform="matrix(1.0, 0.0, 0.0, 1.0, 26.0, 18.65)">
    <path d="M16.6 -15.5 L17.15 -17.05 16.4 -17.05 16.4 -18.65 18.15 -18.65 18.15 -17.05 17.25 -15.25 17.15 -14.95 16.4 -14.95 16.6 -15.5 M21.5 -7.7 L25.05 -6.55 24.65 -4.55 21.8 -5.6 19.3 -6.3 19.6 -8.15 21.5 -7.7 M21.8 -2.55 L25.2 -1.35 24.65 0.4 21.6 -0.75 19.5 -1.5 19.3 -1.6 19.7 -3.25 21.8 -2.55 M21.65 2.35 Q23.5 2.95 26.0 4.25 L25.45 6.25 Q22.9 4.85 21.25 4.3 L18.95 3.45 19.3 1.65 19.4 1.65 21.65 2.35 M13.75 15.3 L13.75 16.35 12.7 18.6 12.0 18.6 12.7 16.35 12.0 16.35 12.0 14.9 12.0 14.7 13.75 14.7 13.75 15.3 M9.85 15.5 L9.85 16.35 8.8 18.6 8.05 18.6 8.8 16.35 8.05 16.35 8.05 15.9 8.05 14.7 9.85 14.7 9.85 15.5 M5.9 16.2 L5.9 16.35 4.85 18.6 4.15 18.6 4.85 16.35 4.15 16.35 4.15 14.7 5.9 14.7 5.9 16.2 M2.0 16.15 L2.0 16.35 0.95 18.6 0.2 18.6 0.95 16.35 0.2 16.35 0.2 15.9 0.2 14.7 2.0 14.7 2.0 16.15 M-1.95 15.6 L-1.95 16.35 -3.0 18.6 -3.7 18.6 -3.0 16.35 -3.7 16.35 -3.7 15.4 -3.7 14.7 -1.95 14.7 -1.95 15.6 M-5.9 15.2 L-5.9 16.35 -6.9 18.6 -7.65 18.6 -6.9 16.35 -7.65 16.35 -7.65 15.15 -7.65 14.7 -5.9 14.7 -5.9 15.2 M-11.25 14.85 L-12.35 16.45 -13.75 16.45 -12.75 14.55 -11.8 12.7 -9.7 12.7 -11.25 14.85 M-14.45 14.25 L-16.0 16.45 -17.35 16.45 -15.95 13.75 -15.4 12.7 -13.35 12.7 -14.45 14.25 M-21.8 5.1 L-26.0 3.45 -25.65 1.65 Q-23.9 2.1 -22.2 2.8 L-21.4 3.1 -18.95 4.25 -19.5 6.25 -20.2 5.85 -21.8 5.1 M-22.35 -0.4 L-25.65 -1.6 -25.25 -3.25 -22.35 -2.3 -21.7 -2.05 -19.75 -1.35 -20.3 0.4 -21.85 -0.2 -22.35 -0.4 M-22.2 -5.3 L-25.65 -6.3 -25.35 -8.15 -21.95 -7.25 -20.05 -6.65 -19.9 -6.55 -20.3 -4.55 -20.95 -4.85 -22.2 -5.3 M-18.8 -15.4 L-18.2 -17.05 -18.95 -17.05 -18.95 -18.65 -17.2 -18.65 -17.2 -17.05 -17.7 -16.0 -18.2 -14.95 -18.95 -14.95 -18.8 -15.4 M-14.55 -16.35 L-14.3 -17.05 -15.0 -17.05 -15.0 -18.65 -13.25 -18.65 -13.25 -17.05 -13.6 -16.4 -14.3 -14.95 -15.0 -14.95 -14.55 -16.35 M-10.55 -16.5 L-10.35 -17.05 -11.1 -17.05 -11.1 -18.65 -9.3 -18.65 -9.3 -17.05 -9.6 -16.5 -10.35 -14.95 -11.1 -14.95 -10.55 -16.5 M-6.65 -16.45 L-6.45 -17.05 -7.15 -17.05 -7.15 -18.65 -5.4 -18.65 -5.4 -17.05 -5.7 -16.45 -6.45 -14.95 -7.15 -14.95 -6.65 -16.45 M1.2 -16.5 L1.4 -17.05 0.7 -17.05 0.7 -18.65 2.45 -18.65 2.45 -17.05 2.15 -16.45 1.4 -14.95 0.7 -14.95 1.2 -16.5 M8.9 -16.0 L9.25 -17.05 8.55 -17.05 8.55 -18.65 10.3 -18.65 10.3 -17.05 9.75 -15.95 9.25 -14.95 8.55 -14.95 8.9 -16.0 M12.75 -15.75 L13.2 -17.05 12.5 -17.05 12.5 -18.65 14.25 -18.65 14.25 -17.05 13.6 -15.75 13.2 -14.95 12.5 -14.95 12.75 -15.75 M6.4 -18.65 L6.4 -17.05 4.6 -17.05 4.6 -18.65 6.4 -18.65 M15.1 -2.45 L15.1 -0.15 12.7 -0.15 12.7 -2.45 15.1 -2.45 M3.65 5.45 L-3.4 5.45 -3.4 7.5 -4.9 7.5 -4.9 4.05 -3.7 4.05 Q-2.45 2.25 -2.45 -0.85 L-2.45 -4.8 3.8 -4.8 3.8 4.05 5.2 4.05 5.2 7.5 3.65 7.5 3.65 5.45 M2.3 -3.35 L-0.9 -3.35 -0.9 -0.85 Q-0.95 2.2 -2.05 4.05 L2.3 4.05 2.3 -3.35 M-1.45 -18.65 L-1.45 -17.05 -3.25 -17.05 -3.25 -18.65 -1.45 -18.65 M-12.6 -0.15 L-15.0 -0.15 -15.0 -2.45 -12.6 -2.45 -12.6 -0.15" fill="#000000" fill-rule="evenodd" stroke="none"/>
    <path d="M17.25 -15.25 Q19.65 -13.85 20.55 -12.15 21.45 -10.5 21.5 -7.7 L19.6 -8.15 19.3 -6.3 21.8 -5.6 21.8 -2.55 19.7 -3.25 19.3 -1.6 19.5 -1.5 21.6 -0.75 Q21.35 0.7 21.65 2.35 L19.4 1.65 19.3 1.65 18.95 3.45 21.25 4.3 Q20.55 8.75 19.35 10.75 18.1 12.7 16.55 14.15 15.0 15.55 13.75 15.3 L13.75 14.7 12.0 14.7 12.0 14.9 9.85 15.5 9.85 14.7 8.05 14.7 8.05 15.9 5.9 16.2 5.9 14.7 4.15 14.7 4.15 16.35 2.0 16.15 2.0 14.7 0.2 14.7 0.2 15.9 -1.5 15.65 -1.95 15.6 -1.95 14.7 -3.7 14.7 -3.7 15.4 -5.9 15.2 -5.9 14.7 -7.65 14.7 -7.65 15.15 -11.25 14.85 -9.7 12.7 -11.8 12.7 -12.75 14.55 -14.45 14.25 -13.35 12.7 -15.4 12.7 -15.95 13.75 -18.2 12.15 Q-20.25 10.15 -21.2 7.45 L-21.8 5.1 -20.2 5.85 -19.5 6.25 -18.95 4.25 -21.4 3.1 -22.2 2.8 -22.3 1.75 -22.35 -0.4 -21.85 -0.2 -20.3 0.4 -19.75 -1.35 -21.7 -2.05 -22.35 -2.3 -22.3 -3.95 -22.2 -5.3 -20.95 -4.85 -20.3 -4.55 -19.9 -6.55 -20.05 -6.65 -21.95 -7.25 -21.6 -9.7 Q-21.1 -12.65 -19.4 -14.75 L-18.8 -15.4 -18.95 -14.95 -18.2 -14.95 -17.7 -16.0 -14.55 -16.35 -15.0 -14.95 -14.3 -14.95 -13.6 -16.4 -10.55 -16.5 -11.1 -14.95 -10.35 -14.95 -9.6 -16.5 -8.1 -16.5 -6.65 -16.45 -7.15 -14.95 -6.45 -14.95 -5.7 -16.45 -2.4 -16.5 1.2 -16.5 0.7 -14.95 1.4 -14.95 2.15 -16.45 3.55 -16.4 8.9 -16.0 8.55 -14.95 9.25 -14.95 9.75 -15.95 12.75 -15.75 12.5 -14.95 13.2 -14.95 13.6 -15.75 15.05 -15.7 16.6 -15.5 16.4 -14.95 17.15 -14.95 17.25 -15.25 M2.3 -3.35 L2.3 4.05 -2.05 4.05 Q-0.95 2.2 -0.9 -0.85 L-0.9 -3.35 2.3 -3.35 M3.65 5.45 L3.65 7.5 5.2 7.5 5.2 4.05 3.8 4.05 3.8 -4.8 -2.45 -4.8 -2.45 -0.85 Q-2.45 2.25 -3.7 4.05 L-4.9 4.05 -4.9 7.5 -3.4 7.5 -3.4 5.45 3.65 5.45 M15.1 -2.45 L12.7 -2.45 12.7 -0.15 15.1 -0.15 15.1 -2.45 M-12.6 -0.15 L-12.6 -2.45 -15.0 -2.45 -15.0 -0.15 -12.6 -0.15" fill="#ffffff" fill-rule="evenodd" stroke="none"/>
  </g>
</svg>
