<svg xmlns:xlink="http://www.w3.org/1999/xlink" height="83.95px" width="51.75px" xmlns="http://www.w3.org/2000/svg">
  <g transform="matrix(1.0, 0.0, 0.0, 1.0, 25.9, 42.0)">
    <path d="M20.15 -41.4 L20.8 -42.0 21.0 -41.8 22.95 -39.2 Q23.7 -37.65 23.7 -35.55 23.7 -33.75 22.95 -32.15 22.25 -30.75 20.8 -29.05 L20.75 -29.1 20.15 -29.7 20.6 -30.25 20.9 -30.6 Q21.75 -31.65 22.2 -32.6 22.85 -34.0 22.85 -35.55 22.85 -37.45 22.2 -38.8 21.55 -40.1 20.15 -41.4 M21.3 -24.4 L21.4 -24.45 Q22.9 -23.05 23.6 -21.65 24.35 -20.1 24.35 -18.0 24.35 -16.2 23.6 -14.65 22.9 -13.2 21.4 -11.5 L20.8 -12.2 Q22.2 -13.75 22.85 -15.05 23.45 -16.45 23.45 -18.0 23.45 -19.9 22.85 -21.25 22.2 -22.55 20.8 -23.85 L21.3 -24.4 M20.15 -6.45 L20.6 -6.9 Q22.1 -5.5 22.8 -4.1 23.5 -2.55 23.5 -0.45 23.5 1.35 22.8 2.9 22.1 4.35 20.6 6.05 L20.15 5.6 19.95 5.35 Q21.4 3.75 22.0 2.45 22.65 1.1 22.65 -0.45 22.65 -2.35 22.0 -3.7 21.4 -5.0 19.95 -6.3 L20.15 -6.45 M17.6 9.5 L18.4 9.5 18.4 24.4 17.2 24.4 17.2 9.5 17.6 9.5 M22.35 28.7 L22.9 28.15 Q24.4 29.6 25.1 31.0 25.85 32.55 25.85 34.6 25.85 36.45 25.1 38.0 24.4 39.45 22.9 41.15 L22.25 40.45 Q23.7 38.85 24.35 37.55 24.95 36.15 25.0 34.6 24.95 32.7 24.35 31.35 23.75 30.2 22.55 29.05 L22.25 28.8 22.35 28.7 M21.05 41.7 L21.05 41.95 6.05 41.95 6.05 41.85 6.05 41.3 21.05 41.3 21.05 41.7 M0.9 40.5 L0.7 40.7 0.35 41.15 -0.3 40.45 1.8 37.55 Q2.4 36.15 2.4 34.6 2.4 32.7 1.8 31.35 1.15 30.1 -0.3 28.8 L0.35 28.15 Q1.85 29.6 2.55 31.0 3.3 32.55 3.3 34.6 3.3 36.45 2.55 38.0 L0.9 40.5 M-1.55 41.3 L-1.55 41.95 -16.5 41.95 -16.5 41.3 -1.55 41.3 M-16.55 41.3 L-21.05 41.3 -21.05 41.05 -21.05 40.6 -16.55 40.6 -16.55 41.3 M-22.7 40.85 L-22.95 41.15 -25.15 38.0 Q-25.9 36.45 -25.9 34.6 -25.9 32.55 -25.15 31.0 -24.45 29.6 -22.95 28.15 L-22.65 28.45 -22.35 28.8 Q-23.8 30.1 -24.35 31.35 -25.05 32.7 -25.0 34.6 -25.05 36.15 -24.35 37.55 -23.8 38.85 -22.35 40.45 L-22.7 40.85 M-21.25 24.4 L-21.65 24.4 -21.65 9.45 -20.5 9.45 -20.5 24.4 -21.25 24.4 M-22.35 5.35 L-22.95 6.05 -25.15 2.9 Q-25.9 1.35 -25.9 -0.45 -25.9 -2.55 -25.15 -4.1 -24.45 -5.5 -22.95 -6.9 L-22.9 -6.85 -22.35 -6.3 Q-23.8 -5.0 -24.35 -3.7 -25.05 -2.35 -25.0 -0.45 -25.05 1.1 -24.35 2.45 -23.8 3.75 -22.35 5.35 M-22.9 -11.55 L-22.95 -11.5 Q-24.4 -13.2 -25.15 -14.65 -25.9 -16.2 -25.9 -18.0 -25.9 -20.1 -25.15 -21.65 -24.55 -22.85 -23.35 -24.05 L-23.0 -24.4 -22.95 -24.45 -22.35 -23.85 Q-23.8 -22.55 -24.35 -21.25 -25.05 -19.9 -25.0 -18.0 -25.05 -16.45 -24.35 -15.05 -23.8 -13.75 -22.35 -12.2 L-22.9 -11.55 M-22.6 -29.4 L-22.95 -29.05 Q-24.4 -30.75 -25.15 -32.15 -25.9 -33.75 -25.9 -35.55 -25.9 -37.65 -25.15 -39.2 -24.45 -40.55 -22.95 -42.0 L-22.35 -41.4 Q-23.8 -40.1 -24.35 -38.8 -25.05 -37.45 -25.0 -35.55 -25.05 -34.0 -24.35 -32.6 -23.8 -31.3 -22.35 -29.7 L-22.6 -29.4 M-15.7 -41.75 L-15.45 -42.0 -14.8 -41.4 Q-16.25 -40.1 -16.8 -38.8 -17.5 -37.45 -17.5 -35.55 -17.5 -34.0 -16.8 -32.6 -16.25 -31.3 -14.8 -29.7 L-15.45 -29.05 Q-16.9 -30.75 -17.65 -32.15 -18.4 -33.75 -18.4 -35.55 -18.4 -37.65 -17.65 -39.2 L-15.7 -41.75 M-8.2 -41.75 L-7.95 -42.0 -7.3 -41.4 Q-8.75 -40.1 -9.3 -38.8 -10.0 -37.45 -10.0 -35.55 -10.0 -34.0 -9.3 -32.6 -8.75 -31.3 -7.3 -29.7 L-7.95 -29.05 Q-9.4 -30.75 -10.1 -32.15 -10.9 -33.75 -10.85 -35.55 -10.9 -37.65 -10.1 -39.2 -9.5 -40.45 -8.2 -41.75 M5.1 -41.4 L5.75 -42.0 6.0 -41.75 Q7.3 -40.45 7.9 -39.2 8.65 -37.65 8.7 -35.55 8.65 -33.75 7.9 -32.15 7.2 -30.75 5.75 -29.05 L5.1 -29.7 Q6.55 -31.3 7.2 -32.6 7.8 -34.0 7.8 -35.55 7.8 -37.45 7.2 -38.8 6.55 -40.1 5.1 -41.4 M12.65 -41.4 L13.25 -42.0 13.5 -41.75 Q14.8 -40.45 15.45 -39.2 16.2 -37.65 16.2 -35.55 16.2 -33.75 15.45 -32.15 14.75 -30.75 13.25 -29.05 L12.65 -29.7 Q14.05 -31.3 14.7 -32.6 15.3 -34.0 15.3 -35.55 15.3 -37.45 14.7 -38.8 14.05 -40.1 12.65 -41.4 M16.3 -22.15 L13.35 -24.7 15.45 -24.7 17.65 -22.15 16.3 -22.15 M3.2 -23.2 L3.2 -20.25 Q3.15 -16.4 1.6 -14.0 L7.3 -14.0 7.3 -23.2 3.2 -23.2 M8.7 -10.75 L8.7 -12.85 0.4 -12.85 0.4 -10.75 -0.7 -10.75 -0.7 -14.0 0.3 -14.0 Q2.05 -16.45 2.05 -20.25 L2.05 -24.35 8.5 -24.35 8.5 -14.0 9.8 -14.0 9.8 -10.75 8.7 -10.75 M-18.8 -14.2 L-18.8 -12.95 -20.2 -12.95 -20.2 -14.2 -18.8 -14.2 M-4.6 -24.7 L-7.6 -22.15 -9.0 -22.15 -6.7 -24.7 -4.6 -24.7 M-13.6 -18.3 L-14.95 -18.3 -14.95 -19.65 -13.6 -19.65 -13.6 -18.3 M-14.3 -11.4 L-14.95 -11.4 -14.4 -13.0 -14.95 -13.0 -14.95 -14.25 -13.6 -14.25 -13.6 -13.0 -14.3 -11.4 M-0.9 9.45 L-0.9 24.4 -2.05 24.4 -2.05 9.45 -0.9 9.45" fill="#000000" fill-rule="evenodd" stroke="none"/>
    <path d="M20.75 -29.1 L21.3 -24.4 20.8 -23.85 Q22.2 -22.55 22.85 -21.25 23.45 -19.9 23.45 -18.0 23.45 -16.45 22.85 -15.05 22.2 -13.75 20.8 -12.2 L21.4 -11.5 20.9 -10.9 20.9 -10.05 20.15 -6.45 19.95 -6.3 Q21.4 -5.0 22.0 -3.7 22.65 -2.35 22.65 -0.45 22.65 1.1 22.0 2.45 21.4 3.75 19.95 5.35 L20.15 5.6 17.6 9.15 17.6 9.5 17.2 9.5 17.2 24.4 18.4 24.4 22.35 28.7 22.25 28.8 22.55 29.05 Q23.75 30.2 24.35 31.35 24.95 32.7 25.0 34.6 24.95 36.15 24.35 37.55 23.7 38.85 22.25 40.45 L22.9 41.15 22.9 41.7 21.05 41.7 21.05 41.3 6.05 41.3 6.05 41.85 1.1 40.65 0.9 40.5 2.55 38.0 Q3.3 36.45 3.3 34.6 3.3 32.55 2.55 31.0 1.85 29.6 0.35 28.15 L-0.3 28.8 Q1.15 30.1 1.8 31.35 2.4 32.7 2.4 34.6 2.4 36.15 1.8 37.55 L-0.3 40.45 -1.55 41.3 -16.5 41.3 -16.55 41.3 -16.55 40.6 -21.05 40.6 -21.05 41.05 -22.45 41.05 -22.7 40.85 -22.35 40.45 Q-23.8 38.85 -24.35 37.55 -25.05 36.15 -25.0 34.6 -25.05 32.7 -24.35 31.35 -23.8 30.1 -22.35 28.8 L-22.65 28.45 -21.25 24.4 -20.5 24.4 -20.5 9.45 -21.65 9.45 -22.05 9.45 -22.05 5.4 -22.35 5.35 Q-23.8 3.75 -24.35 2.45 -25.05 1.1 -25.0 -0.45 -25.05 -2.35 -24.35 -3.7 -23.8 -5.0 -22.35 -6.3 L-22.9 -6.85 -22.9 -11.55 -22.35 -12.2 Q-23.8 -13.75 -24.35 -15.05 -25.05 -16.45 -25.0 -18.0 -25.05 -19.9 -24.35 -21.25 -23.8 -22.55 -22.35 -23.85 L-22.95 -24.45 -23.0 -24.4 -22.6 -29.4 -22.35 -29.7 Q-23.8 -31.3 -24.35 -32.6 -25.05 -34.0 -25.0 -35.55 -25.05 -37.45 -24.35 -38.8 -23.8 -40.1 -22.35 -41.4 L-22.35 -41.75 -15.7 -41.75 -17.65 -39.2 Q-18.4 -37.65 -18.4 -35.55 -18.4 -33.75 -17.65 -32.15 -16.9 -30.75 -15.45 -29.05 L-14.8 -29.7 Q-16.25 -31.3 -16.8 -32.6 -17.5 -34.0 -17.5 -35.55 -17.5 -37.45 -16.8 -38.8 -16.25 -40.1 -14.8 -41.4 L-14.8 -41.75 -8.2 -41.75 Q-9.5 -40.45 -10.1 -39.2 -10.9 -37.65 -10.85 -35.55 -10.9 -33.75 -10.1 -32.15 -9.4 -30.75 -7.95 -29.05 L-7.3 -29.7 Q-8.75 -31.3 -9.3 -32.6 -10.0 -34.0 -10.0 -35.55 -10.0 -37.45 -9.3 -38.8 -8.75 -40.1 -7.3 -41.4 L-7.3 -41.75 5.1 -41.75 5.1 -41.4 Q6.55 -40.1 7.2 -38.8 7.8 -37.45 7.8 -35.55 7.8 -34.0 7.2 -32.6 6.55 -31.3 5.1 -29.7 L5.75 -29.05 Q7.2 -30.75 7.9 -32.15 8.65 -33.75 8.7 -35.55 8.65 -37.65 7.9 -39.2 7.3 -40.45 6.0 -41.75 L12.65 -41.75 12.65 -41.4 Q14.05 -40.1 14.7 -38.8 15.3 -37.45 15.3 -35.55 15.3 -34.0 14.7 -32.6 14.05 -31.3 12.65 -29.7 L13.25 -29.05 Q14.75 -30.75 15.45 -32.15 16.2 -33.75 16.2 -35.55 16.2 -37.65 15.45 -39.2 14.8 -40.45 13.5 -41.75 L20.15 -41.75 20.15 -41.4 Q21.55 -40.1 22.2 -38.8 22.85 -37.45 22.85 -35.55 22.85 -34.0 22.2 -32.6 21.75 -31.65 20.9 -30.6 L20.6 -30.25 20.15 -29.7 20.75 -29.1 M-0.9 9.45 L-2.05 9.45 -2.05 24.4 -0.9 24.4 -0.9 9.45 M-14.3 -11.4 L-13.6 -13.0 -13.6 -14.25 -14.95 -14.25 -14.95 -13.0 -14.4 -13.0 -14.95 -11.4 -14.3 -11.4 M-13.6 -18.3 L-13.6 -19.65 -14.95 -19.65 -14.95 -18.3 -13.6 -18.3 M-4.6 -24.7 L-6.7 -24.7 -9.0 -22.15 -7.6 -22.15 -4.6 -24.7 M-18.8 -14.2 L-20.2 -14.2 -20.2 -12.95 -18.8 -12.95 -18.8 -14.2 M8.7 -10.75 L9.8 -10.75 9.8 -14.0 8.5 -14.0 8.5 -24.35 2.05 -24.35 2.05 -20.25 Q2.05 -16.45 0.3 -14.0 L-0.7 -14.0 -0.7 -10.75 0.4 -10.75 0.4 -12.85 8.7 -12.85 8.7 -10.75 M3.2 -23.2 L7.3 -23.2 7.3 -14.0 1.6 -14.0 Q3.15 -16.4 3.2 -20.25 L3.2 -23.2 M16.3 -22.15 L17.65 -22.15 15.45 -24.7 13.35 -24.7 16.3 -22.15" fill="#ffffff" fill-rule="evenodd" stroke="none"/>
  </g>
</svg>
