<svg xmlns:xlink="http://www.w3.org/1999/xlink" height="83.7px" width="61.45px" xmlns="http://www.w3.org/2000/svg">
  <g transform="matrix(1.0, 0.0, 0.0, 1.0, 27.05, 83.25)">
    <path d="M22.05 -80.65 Q23.55 -79.35 24.1 -78.1 24.75 -76.75 24.75 -74.85 24.75 -73.3 24.1 -71.9 23.55 -70.6 22.05 -69.0 L22.7 -68.35 Q24.2 -70.0 24.9 -71.45 25.65 -73.05 25.65 -74.85 25.65 -76.9 24.9 -78.5 L24.05 -79.8 Q27.35 -78.9 29.55 -80.65 31.05 -79.35 31.6 -78.1 32.25 -76.75 32.25 -74.85 32.25 -73.3 31.6 -71.9 31.05 -70.6 29.55 -69.0 L30.2 -68.35 29.4 -65.95 30.8 -63.65 Q32.3 -62.35 32.85 -61.1 33.5 -59.75 33.5 -57.85 33.5 -56.3 32.85 -54.9 32.3 -53.6 30.8 -52.0 L31.45 -51.35 Q30.25 -49.15 28.2 -47.35 26.7 -46.0 25.45 -44.25 L23.45 -43.55 23.95 -42.1 25.75 -42.85 26.05 -43.0 27.25 -43.5 30.25 -44.1 Q31.3 -44.05 31.9 -43.35 32.55 -42.55 32.55 -41.35 32.6 -39.6 31.65 -38.65 30.4 -37.25 27.0 -37.25 L27.3 -35.9 Q25.25 -34.65 22.75 -34.7 L22.75 -34.85 18.25 -34.85 18.25 -34.15 Q14.9 -33.75 12.95 -32.0 L12.25 -31.2 Q11.25 -29.75 11.3 -28.8 L9.65 -28.8 6.65 -24.1 6.55 -24.1 3.5 -28.8 1.85 -28.8 5.9 -22.95 5.9 -18.8 7.25 -18.8 Q7.65 -15.85 9.2 -13.25 L8.55 -12.65 Q10.05 -11.35 10.6 -10.1 11.25 -8.75 11.25 -6.85 11.25 -5.3 10.6 -3.9 10.05 -2.6 8.55 -1.0 L7.35 -0.2 -7.6 -0.2 Q-8.6 -1.25 -8.85 -1.0 -10.3 -2.6 -10.9 -3.9 -11.55 -5.3 -11.55 -6.85 -11.55 -8.75 -10.9 -10.1 -10.3 -11.35 -8.85 -12.65 L-9.45 -13.25 Q-13.25 -15.75 -16.6 -13.4 L-17.25 -12.05 Q-17.55 -10.4 -18.25 -8.3 -18.75 -6.8 -20.1 -6.45 -20.35 -4.55 -20.95 -3.6 -21.7 -2.5 -22.95 -2.4 -24.6 -2.35 -25.15 -2.9 -25.65 -3.45 -25.65 -4.95 L-25.65 -13.05 -26.85 -13.05 Q-27.5 -15.25 -25.75 -17.8 -21.4 -19.75 -20.2 -24.15 -18.5 -19.55 -14.45 -17.8 L-13.75 -19.25 Q-19.3 -21.65 -19.7 -27.25 L-19.7 -29.65 Q-19.2 -30.05 -19.8 -30.15 L-21.05 -30.15 Q-21.35 -33.3 -20.25 -35.5 L-19.65 -35.15 -13.45 -46.2 -14.05 -46.55 -14.8 -45.2 -12.4 -49.55 -13.65 -52.0 Q-15.1 -53.6 -15.7 -54.9 -16.35 -56.3 -16.35 -57.85 -16.35 -59.75 -15.7 -61.1 -15.1 -62.35 -13.65 -63.65 -12.3 -65.05 -11.4 -66.55 -12.2 -68.5 -12.8 -69.0 -14.25 -70.6 -14.85 -71.9 -15.5 -73.3 -15.5 -74.85 -15.5 -76.75 -14.85 -78.1 -14.25 -79.35 -12.8 -80.65 -11.95 -78.3 -8.7 -79.75 L-7.0 -80.1 -8.1 -78.5 Q-8.85 -76.9 -8.85 -74.85 -8.85 -73.05 -8.1 -71.45 -7.4 -70.0 -5.9 -68.35 L-5.3 -69.0 Q-6.75 -70.6 -7.35 -71.9 -8.0 -73.3 -8.0 -74.85 -8.0 -76.75 -7.35 -78.1 L-6.45 -79.45 Q-4.8 -77.85 -2.15 -78.3 L-0.5 -78.65 -0.6 -78.5 Q-1.35 -76.9 -1.35 -74.85 -1.35 -73.05 -0.6 -71.45 0.1 -70.0 1.6 -68.35 L2.2 -69.0 Q0.75 -70.6 0.15 -71.9 -0.5 -73.3 -0.5 -74.85 -0.5 -76.75 0.15 -78.1 L0.95 -79.35 2.2 -80.65 1.6 -81.25 Q4.0 -82.35 7.1 -83.25 8.85 -81.15 11.35 -80.7 13.1 -80.4 14.55 -80.65 16.05 -79.35 16.6 -78.1 17.25 -76.75 17.25 -74.85 17.25 -73.3 16.6 -71.9 16.05 -70.6 14.55 -69.0 L15.2 -68.35 Q16.7 -70.0 17.4 -71.45 18.15 -73.05 18.15 -74.85 18.15 -76.9 17.4 -78.5 L17.2 -78.85 Q19.9 -77.2 22.05 -80.65 M3.4 -64.55 L1.15 -61.95 2.5 -61.95 5.5 -64.55 3.4 -64.55 M12.15 -64.15 L12.15 -60.1 Q12.15 -56.3 10.35 -53.85 L9.4 -53.85 9.4 -50.6 10.55 -50.6 10.55 -52.7 18.75 -52.7 18.75 -50.6 19.9 -50.6 19.9 -53.85 18.6 -53.85 18.6 -64.15 12.15 -64.15 M13.3 -60.1 L13.3 -63.05 17.4 -63.05 17.4 -53.85 11.7 -53.85 Q13.3 -56.25 13.3 -60.1 M25.55 -64.55 L23.45 -64.55 26.35 -61.95 27.7 -61.95 25.55 -64.55 M2.45 -40.85 Q2.6 -43.3 1.25 -44.45 0.25 -45.35 -1.3 -45.35 L-4.15 -44.85 -7.9 -43.55 -7.4 -42.1 -4.1 -43.5 Q-2.3 -44.15 -1.1 -44.1 -0.05 -44.05 0.55 -43.35 1.2 -42.55 1.2 -41.35 1.25 -39.6 0.3 -38.65 -0.95 -37.25 -4.35 -37.25 L-4.05 -35.9 Q-1.05 -35.9 0.6 -37.1 2.35 -38.4 2.45 -40.85 M-8.7 -51.25 L-8.0 -52.85 -8.0 -54.1 -9.35 -54.1 -9.35 -52.85 -8.75 -52.85 -9.35 -51.25 -8.7 -51.25 M-8.0 -58.15 L-8.0 -59.45 -9.35 -59.45 -9.35 -58.15 -8.0 -58.15" fill="#ffffff" fill-rule="evenodd" stroke="none"/>
    <path d="M24.05 -79.8 L24.9 -78.5 Q25.65 -76.9 25.65 -74.85 25.65 -73.05 24.9 -71.45 24.2 -70.0 22.7 -68.35 L22.05 -69.0 Q23.55 -70.6 24.1 -71.9 24.75 -73.3 24.75 -74.85 24.75 -76.75 24.1 -78.1 23.55 -79.35 22.05 -80.65 L22.7 -81.25 24.05 -79.8 M17.2 -78.85 L17.4 -78.5 Q18.15 -76.9 18.15 -74.85 18.15 -73.05 17.4 -71.45 16.7 -70.0 15.2 -68.35 L14.55 -69.0 Q16.05 -70.6 16.6 -71.9 17.25 -73.3 17.25 -74.85 17.25 -76.75 16.6 -78.1 16.05 -79.35 14.55 -80.65 L15.2 -81.25 Q16.55 -80.05 17.2 -78.85 M1.6 -81.25 L2.2 -80.65 0.95 -79.35 0.15 -78.1 Q-0.5 -76.75 -0.5 -74.85 -0.5 -73.3 0.15 -71.9 0.75 -70.6 2.2 -69.0 L1.6 -68.35 Q0.1 -70.0 -0.6 -71.45 -1.35 -73.05 -1.35 -74.85 -1.35 -76.9 -0.6 -78.5 L-0.5 -78.65 Q0.15 -79.95 1.6 -81.25 M-6.45 -79.45 L-7.35 -78.1 Q-8.0 -76.75 -8.0 -74.85 -8.0 -73.3 -7.35 -71.9 -6.75 -70.6 -5.3 -69.0 L-5.9 -68.35 Q-7.4 -70.0 -8.1 -71.45 -8.85 -73.05 -8.85 -74.85 -8.85 -76.9 -8.1 -78.5 L-7.0 -80.1 -5.9 -81.25 -5.3 -80.65 -6.45 -79.45 M-12.8 -80.65 Q-14.25 -79.35 -14.85 -78.1 -15.5 -76.75 -15.5 -74.85 -15.5 -73.3 -14.85 -71.9 -14.25 -70.6 -12.8 -69.0 L-13.4 -68.35 Q-14.9 -70.0 -15.6 -71.45 -16.35 -73.05 -16.35 -74.85 -16.35 -76.9 -15.6 -78.5 -14.95 -79.85 -13.4 -81.25 L-12.8 -80.65 M-13.65 -63.65 Q-15.1 -62.35 -15.7 -61.1 -16.35 -59.75 -16.35 -57.85 -16.35 -56.3 -15.7 -54.9 -15.1 -53.6 -13.65 -52.0 L-14.25 -51.35 Q-15.75 -53.0 -16.45 -54.45 -17.2 -56.05 -17.2 -57.85 -17.2 -59.9 -16.45 -61.5 -15.8 -62.85 -14.25 -64.25 L-13.65 -63.65 M-14.8 -45.2 L-14.05 -46.55 -13.45 -46.2 -19.65 -35.15 -20.25 -35.5 -14.8 -45.2 M-21.05 -30.15 L-19.8 -30.15 Q-19.2 -30.05 -19.7 -29.65 L-19.7 -27.25 Q-19.3 -21.65 -13.75 -19.25 L-14.45 -17.8 Q-18.5 -19.55 -20.2 -24.15 -21.4 -19.75 -25.75 -17.8 L-26.65 -19.05 Q-21.05 -21.25 -21.05 -27.1 L-21.05 -30.15 M-26.85 -13.05 L-25.65 -13.05 -25.65 -4.95 Q-25.65 -3.45 -25.15 -2.9 -24.6 -2.35 -22.95 -2.4 -21.7 -2.5 -20.95 -3.6 -20.35 -4.55 -20.1 -6.45 L-18.8 -5.9 Q-19.55 -1.05 -23.45 -1.05 -25.3 -1.0 -26.05 -1.95 -26.75 -2.85 -26.85 -4.95 L-26.85 -13.05 M-9.45 -13.25 L-8.85 -12.65 Q-10.3 -11.35 -10.9 -10.1 -11.55 -8.75 -11.55 -6.85 -11.55 -5.3 -10.9 -3.9 -10.3 -2.6 -8.85 -1.0 L-9.45 -0.35 Q-10.95 -2.0 -11.65 -3.45 -12.4 -5.05 -12.4 -6.85 -12.4 -8.9 -11.65 -10.5 -11.0 -11.85 -9.45 -13.25 M-7.6 -0.2 L7.35 -0.2 7.35 0.45 -7.6 0.45 -7.6 -0.2 M8.55 -1.0 Q10.05 -2.6 10.6 -3.9 11.25 -5.3 11.25 -6.85 11.25 -8.75 10.6 -10.1 10.05 -11.35 8.55 -12.65 L9.2 -13.25 Q10.75 -11.85 11.4 -10.5 12.15 -8.9 12.15 -6.85 12.15 -5.05 11.4 -3.45 10.7 -2.0 9.2 -0.35 L8.55 -1.0 M7.25 -18.8 L5.9 -18.8 5.9 -22.95 1.85 -28.8 3.5 -28.8 6.55 -24.1 6.65 -24.1 9.65 -28.8 11.3 -28.8 7.25 -22.95 7.25 -18.8 M18.25 -34.15 L18.25 -34.85 22.75 -34.85 22.75 -34.7 22.75 -34.15 18.25 -34.15 M27.3 -35.9 L27.0 -37.25 Q30.4 -37.25 31.65 -38.65 32.6 -39.6 32.55 -41.35 32.55 -42.55 31.9 -43.35 31.3 -44.05 30.25 -44.1 L27.25 -43.5 26.05 -43.0 25.75 -42.85 23.95 -42.1 23.45 -43.55 25.45 -44.25 27.2 -44.85 30.05 -45.35 Q31.6 -45.35 32.6 -44.45 33.95 -43.3 33.8 -40.85 33.7 -38.4 31.95 -37.1 30.3 -35.9 27.3 -35.9 M31.45 -51.35 L30.8 -52.0 Q32.3 -53.6 32.85 -54.9 33.5 -56.3 33.5 -57.85 33.5 -59.75 32.85 -61.1 32.3 -62.35 30.8 -63.65 L31.45 -64.25 Q33.0 -62.85 33.65 -61.5 34.4 -59.9 34.4 -57.85 34.4 -56.05 33.65 -54.45 32.95 -53.0 31.45 -51.35 M30.2 -68.35 L29.55 -69.0 Q31.05 -70.6 31.6 -71.9 32.25 -73.3 32.25 -74.85 32.25 -76.75 31.6 -78.1 31.05 -79.35 29.55 -80.65 L30.2 -81.25 Q31.75 -79.85 32.4 -78.5 33.15 -76.9 33.15 -74.85 33.15 -73.05 32.4 -71.45 31.7 -70.0 30.2 -68.35 M13.3 -60.1 Q13.3 -56.25 11.7 -53.85 L17.4 -53.85 17.4 -63.05 13.3 -63.05 13.3 -60.1 M12.15 -64.15 L18.6 -64.15 18.6 -53.85 19.9 -53.85 19.9 -50.6 18.75 -50.6 18.75 -52.7 10.55 -52.7 10.55 -50.6 9.4 -50.6 9.4 -53.85 10.35 -53.85 Q12.15 -56.3 12.15 -60.1 L12.15 -64.15 M3.4 -64.55 L5.5 -64.55 2.5 -61.95 1.15 -61.95 3.4 -64.55 M25.55 -64.55 L27.7 -61.95 26.35 -61.95 23.45 -64.55 25.55 -64.55 M2.45 -40.85 Q2.35 -38.4 0.6 -37.1 -1.05 -35.9 -4.05 -35.9 L-4.35 -37.25 Q-0.95 -37.25 0.3 -38.65 1.25 -39.6 1.2 -41.35 1.2 -42.55 0.55 -43.35 -0.05 -44.05 -1.1 -44.1 -2.3 -44.15 -4.1 -43.5 L-7.4 -42.1 -7.9 -43.55 -4.15 -44.85 -1.3 -45.35 Q0.25 -45.35 1.25 -44.45 2.6 -43.3 2.45 -40.85 M-8.0 -58.15 L-9.35 -58.15 -9.35 -59.45 -8.0 -59.45 -8.0 -58.15 M-8.7 -51.25 L-9.35 -51.25 -8.75 -52.85 -9.35 -52.85 -9.35 -54.1 -8.0 -54.1 -8.0 -52.85 -8.7 -51.25 M-17.25 -12.05 L-15.9 -12.05 -15.9 -10.75 -16.7 -9.0 -17.25 -9.0 -16.7 -10.75 -17.25 -10.75 -17.25 -12.05" fill="#000000" fill-rule="evenodd" stroke="none"/>
  </g>
</svg>
