<?xml version="1.0" encoding="UTF-8" standalone="no"?>
<svg xmlns:xlink="http://www.w3.org/1999/xlink" height="58.7px" width="54.8px" xmlns="http://www.w3.org/2000/svg">
  <g transform="matrix(1.0, 0.0, 0.0, 1.0, 28.1, 58.8)">
    <path d="M-12.45 -47.95 L-12.35 -47.95 Q-11.0 -47.95 -10.25 -48.65 -9.55 -49.35 -9.5 -50.5 L-10.7 -50.5 Q-10.7 -49.8 -11.15 -49.35 -11.6 -48.95 -12.35 -48.95 -13.0 -48.95 -13.45 -49.35 -14.05 -49.95 -14.05 -51.05 -14.05 -52.2 -13.4 -52.85 L-12.3 -53.3 -11.3 -53.0 Q-10.9 -52.6 -10.85 -52.15 L-9.65 -52.15 Q-9.75 -52.9 -10.2 -53.45 L-9.15 -52.65 -8.4 -52.75 -8.15 -50.95 Q-7.6 -48.7 -5.65 -46.85 L-5.05 -47.45 Q-7.6 -49.8 -7.6 -52.8 -7.6 -55.8 -5.05 -58.2 -5.85 -55.3 -3.6 -55.65 -4.15 -54.3 -4.15 -52.8 -4.15 -49.45 -1.4 -46.85 L-0.8 -47.45 Q-3.35 -49.8 -3.35 -52.8 -3.35 -54.05 -2.9 -55.2 -1.25 -54.25 0.4 -55.0 0.1 -53.95 0.1 -52.8 0.1 -49.45 2.85 -46.85 L3.45 -47.45 Q0.9 -49.8 0.9 -52.8 0.9 -55.8 3.45 -58.2 3.75 -55.9 6.2 -56.65 L8.5 -58.2 9.6 -56.95 Q11.0 -55.05 11.0 -52.8 11.0 -49.8 8.5 -47.45 L9.1 -46.85 Q11.8 -49.45 11.8 -52.8 11.8 -54.6 11.05 -56.2 L12.65 -56.15 Q12.9 -57.0 13.4 -57.25 L13.6 -57.3 Q15.25 -55.25 15.25 -52.8 15.25 -49.8 12.75 -47.45 L13.35 -46.85 Q16.05 -49.45 16.05 -52.8 L16.05 -53.4 17.3 -53.55 17.85 -52.4 20.9 -53.55 23.35 -53.95 Q24.4 -53.95 24.85 -53.55 25.6 -52.75 25.6 -51.85 25.6 -50.7 25.0 -50.1 23.95 -49.0 20.5 -48.95 L20.05 -48.5 Q19.1 -47.65 19.15 -46.9 L22.4 -42.3 22.45 -42.2 Q24.95 -39.8 24.95 -36.8 L24.9 -35.95 24.8 -35.2 Q24.25 -33.15 22.45 -31.45 21.75 -30.55 20.45 -29.9 17.15 -28.2 16.55 -25.45 L15.3 -25.45 15.3 -18.9 Q15.3 -18.15 14.8 -17.65 14.2 -17.05 13.05 -17.05 11.9 -17.05 11.3 -17.65 10.8 -18.15 10.8 -18.9 L10.8 -25.45 9.55 -25.45 9.55 -18.85 Q9.55 -17.65 10.3 -16.9 11.1 -16.1 12.65 -16.0 12.25 -12.6 12.85 -9.05 12.95 -8.65 13.3 -8.45 L12.2 -8.15 9.1 -7.3 9.7 -5.85 12.85 -7.1 16.05 -7.75 Q17.7 -7.75 18.35 -7.1 19.25 -6.25 19.25 -5.0 19.25 -3.8 18.4 -2.95 17.1 -1.65 13.0 -1.6 L13.35 -0.35 8.35 -0.55 Q5.35 -0.85 2.55 -0.55 4.9 -1.0 6.15 -2.25 7.15 -3.25 7.15 -5.1 7.15 -6.85 6.1 -7.9 5.05 -8.9 2.9 -8.9 L-1.15 -8.15 -4.25 -7.3 -3.65 -5.85 -0.5 -7.1 2.7 -7.75 Q4.35 -7.75 5.0 -7.1 5.9 -6.25 5.9 -5.0 5.9 -3.8 5.05 -2.95 3.75 -1.65 -0.35 -1.6 L0.0 -0.35 1.85 -0.45 Q-2.95 0.8 -6.5 -2.35 -8.5 -5.2 -12.95 -8.0 L-13.5 -7.45 -13.7 -7.55 -16.1 -9.05 Q-17.9 -12.65 -15.55 -15.85 L-15.0 -15.5 -9.25 -25.85 -9.75 -26.2 Q-9.3 -26.2 -9.3 -27.65 L-11.55 -29.75 -12.65 -30.85 -12.05 -31.45 Q-14.6 -33.8 -14.6 -36.8 L-14.5 -38.0 Q-14.2 -39.65 -13.05 -41.05 L-12.05 -42.2 Q-11.2 -45.55 -12.45 -47.95 M-3.25 -40.7 L-0.5 -43.1 -2.45 -43.1 -4.4 -40.8 -4.55 -40.7 -3.25 -40.7 M-6.7 -33.3 L-8.0 -33.3 -8.0 -32.1 -7.45 -32.1 -8.0 -30.65 -7.45 -30.65 -6.7 -32.1 -6.7 -33.3 M-6.7 -38.35 L-8.0 -38.35 -8.0 -37.15 -6.7 -37.15 -6.7 -38.35 M-10.85 -32.1 L-10.3 -32.1 -10.85 -30.65 -10.3 -30.65 -9.55 -32.1 -9.55 -33.3 -10.85 -33.3 -10.85 -32.1 M5.7 -42.7 L5.7 -38.95 Q5.7 -35.4 4.05 -33.1 L3.15 -33.1 3.15 -30.1 4.2 -30.1 4.2 -32.05 11.9 -32.05 11.9 -30.1 12.95 -30.1 12.95 -33.1 11.7 -33.1 11.7 -42.7 5.7 -42.7 M6.8 -38.95 L6.8 -41.7 10.6 -41.7 10.6 -33.1 5.3 -33.1 Q6.8 -35.35 6.8 -38.95 M16.25 -43.1 L19.0 -40.7 20.25 -40.7 18.2 -43.1 16.25 -43.1 M3.35 -25.45 L2.1 -25.45 2.1 -18.9 Q2.1 -18.15 1.6 -17.65 1.0 -17.05 -0.15 -17.05 -1.3 -17.05 -1.9 -17.65 -2.4 -18.15 -2.4 -18.9 L-2.4 -25.45 -3.65 -25.45 -3.65 -18.85 Q-3.65 -17.65 -2.9 -16.9 -2.0 -16.0 -0.15 -16.0 1.7 -16.0 2.55 -16.9 3.35 -17.65 3.35 -18.85 L3.35 -25.45" fill="#ffffff" fill-rule="evenodd" stroke="none"/>
    <path d="M-10.2 -53.45 Q-9.75 -52.9 -9.65 -52.15 L-10.85 -52.15 Q-10.9 -52.6 -11.3 -53.0 L-12.3 -53.3 -13.4 -52.85 Q-14.05 -52.2 -14.05 -51.05 -14.05 -49.95 -13.45 -49.35 -13.0 -48.95 -12.35 -48.95 -11.6 -48.95 -11.15 -49.35 -10.7 -49.8 -10.7 -50.5 L-9.5 -50.5 Q-9.55 -49.35 -10.25 -48.65 -11.0 -47.95 -12.35 -47.95 L-12.45 -47.95 Q-13.55 -48.0 -14.25 -48.7 -15.25 -49.7 -15.25 -51.1 -15.25 -52.6 -14.35 -53.45 -13.55 -54.3 -12.35 -54.3 -11.05 -54.3 -10.4 -53.65 L-10.2 -53.45 M-12.05 -42.2 L-13.05 -41.05 Q-14.2 -39.65 -14.5 -38.0 L-14.6 -36.8 Q-14.6 -33.8 -12.05 -31.45 L-12.65 -30.85 Q-15.4 -33.45 -15.4 -36.8 L-15.3 -37.9 Q-15.1 -39.6 -14.1 -41.1 L-12.65 -42.8 -12.05 -42.2 M-9.75 -26.2 L-9.25 -25.85 -15.0 -15.5 -15.55 -15.85 -9.75 -26.2 M-13.5 -7.45 L-12.95 -8.0 Q-8.5 -5.2 -6.5 -2.35 L-7.85 -1.2 -8.4 -1.95 Q-10.5 -4.55 -14.1 -6.95 L-13.5 -7.45 M1.85 -0.45 L0.0 -0.35 -0.35 -1.6 Q3.75 -1.65 5.05 -2.95 5.9 -3.8 5.9 -5.0 5.9 -6.25 5.0 -7.1 4.35 -7.75 2.7 -7.75 L-0.5 -7.1 -3.65 -5.85 -4.25 -7.3 -1.15 -8.15 2.9 -8.9 Q5.05 -8.9 6.1 -7.9 7.15 -6.85 7.15 -5.1 7.15 -3.25 6.15 -2.25 4.9 -1.0 2.55 -0.55 L2.1 -0.5 2.0 -0.5 1.85 -0.45 M13.35 -0.35 L13.0 -1.6 Q17.1 -1.65 18.4 -2.95 19.25 -3.8 19.25 -5.0 19.25 -6.25 18.35 -7.1 17.7 -7.75 16.05 -7.75 L12.85 -7.1 9.7 -5.85 9.1 -7.3 12.2 -8.15 13.3 -8.45 16.25 -8.9 Q18.4 -8.9 19.45 -7.9 20.5 -6.85 20.5 -5.1 20.5 -3.25 19.5 -2.25 17.65 -0.4 13.35 -0.35 M12.65 -16.0 Q11.1 -16.1 10.3 -16.9 9.55 -17.65 9.55 -18.85 L9.55 -25.45 10.8 -25.45 10.8 -18.9 Q10.8 -18.15 11.3 -17.65 11.9 -17.05 13.05 -17.05 14.2 -17.05 14.8 -17.65 15.3 -18.15 15.3 -18.9 L15.3 -25.45 16.55 -25.45 16.55 -18.85 Q16.55 -17.65 15.75 -16.9 14.9 -16.0 13.05 -16.0 L12.65 -16.0 M22.45 -31.45 Q24.25 -33.15 24.8 -35.2 L24.9 -35.95 24.95 -36.8 Q24.95 -39.8 22.45 -42.2 L23.05 -42.8 Q25.75 -40.2 25.75 -36.8 L25.75 -36.3 25.6 -35.15 Q25.1 -32.8 23.05 -30.85 L22.45 -31.45 M20.5 -48.95 Q23.95 -49.0 25.0 -50.1 25.6 -50.7 25.6 -51.85 25.6 -52.75 24.85 -53.55 24.4 -53.95 23.35 -53.95 L20.9 -53.55 17.85 -52.4 17.3 -53.55 20.5 -54.5 23.5 -55.0 Q24.9 -55.0 25.8 -54.15 26.7 -53.2 26.7 -51.85 26.7 -50.2 25.9 -49.35 24.4 -47.9 20.9 -47.8 L20.5 -48.95 M16.05 -53.4 L16.05 -52.8 Q16.05 -49.45 13.35 -46.85 L12.75 -47.45 Q15.25 -49.8 15.25 -52.8 15.25 -55.25 13.6 -57.3 L12.75 -58.2 13.35 -58.8 Q15.8 -56.45 16.05 -53.4 M11.05 -56.2 Q11.8 -54.6 11.8 -52.8 11.8 -49.45 9.1 -46.85 L8.5 -47.45 Q11.0 -49.8 11.0 -52.8 11.0 -55.05 9.6 -56.95 L8.5 -58.2 9.1 -58.8 Q10.35 -57.6 11.05 -56.2 M3.45 -58.2 Q0.9 -55.8 0.9 -52.8 0.9 -49.8 3.45 -47.45 L2.85 -46.85 Q0.1 -49.45 0.1 -52.8 0.1 -53.95 0.4 -55.0 1.05 -57.05 2.85 -58.8 L3.45 -58.2 M-2.9 -55.2 Q-3.35 -54.05 -3.35 -52.8 -3.35 -49.8 -0.8 -47.45 L-1.4 -46.85 Q-4.15 -49.45 -4.15 -52.8 -4.15 -54.3 -3.6 -55.65 -2.95 -57.35 -1.4 -58.8 L-0.8 -58.2 Q-2.3 -56.8 -2.9 -55.2 M-5.05 -58.2 Q-7.6 -55.8 -7.6 -52.8 -7.6 -49.8 -5.05 -47.45 L-5.65 -46.85 Q-7.6 -48.7 -8.15 -50.95 L-8.4 -52.75 -8.4 -52.8 Q-8.4 -56.2 -5.65 -58.8 L-5.05 -58.2 M-3.25 -40.7 L-4.55 -40.7 -4.4 -40.8 -2.45 -43.1 -0.5 -43.1 -3.25 -40.7 M-10.85 -32.1 L-10.85 -33.3 -9.55 -33.3 -9.55 -32.1 -10.3 -30.65 -10.85 -30.65 -10.3 -32.1 -10.85 -32.1 M-6.7 -38.35 L-6.7 -37.15 -8.0 -37.15 -8.0 -38.35 -6.7 -38.35 M-6.7 -33.3 L-6.7 -32.1 -7.45 -30.65 -8.0 -30.65 -7.45 -32.1 -8.0 -32.1 -8.0 -33.3 -6.7 -33.3 M16.25 -43.1 L18.2 -43.1 20.25 -40.7 19.0 -40.7 16.25 -43.1 M6.8 -38.95 Q6.8 -35.35 5.3 -33.1 L10.6 -33.1 10.6 -41.7 6.8 -41.7 6.8 -38.95 M5.7 -42.7 L11.7 -42.7 11.7 -33.1 12.95 -33.1 12.95 -30.1 11.9 -30.1 11.9 -32.05 4.2 -32.05 4.2 -30.1 3.15 -30.1 3.15 -33.1 4.05 -33.1 Q5.7 -35.4 5.7 -38.95 L5.7 -42.7 M3.35 -25.45 L3.35 -18.85 Q3.35 -17.65 2.55 -16.9 1.7 -16.0 -0.15 -16.0 -2.0 -16.0 -2.9 -16.9 -3.65 -17.65 -3.65 -18.85 L-3.65 -25.45 -2.4 -25.45 -2.4 -18.9 Q-2.4 -18.15 -1.9 -17.65 -1.3 -17.05 -0.15 -17.05 1.0 -17.05 1.6 -17.65 2.1 -18.15 2.1 -18.9 L2.1 -25.45 3.35 -25.45 M-16.95 -5.6 L-18.2 -4.15 Q-19.05 -3.35 -20.25 -3.35 -21.2 -3.35 -22.85 -4.3 -24.1 -5.1 -24.9 -5.1 -25.85 -5.1 -26.35 -4.5 L-26.95 -3.55 -28.1 -4.25 -26.9 -5.8 Q-26.05 -6.55 -25.0 -6.55 -23.95 -6.55 -22.55 -5.75 -21.1 -4.85 -20.1 -4.85 -19.4 -4.85 -18.7 -5.6 L-18.0 -6.5 -16.95 -5.6" fill="#000000" fill-rule="evenodd" stroke="none"/>
  </g>
</svg>
