<svg xmlns:xlink="http://www.w3.org/1999/xlink" height="67.95px" width="52.1px" xmlns="http://www.w3.org/2000/svg">
  <g transform="matrix(1.0, 0.0, 0.0, 1.0, 26.45, 67.95)">
    <path d="M6.35 -67.15 L20.0 -55.75 20.75 -55.85 Q21.0 -52.95 22.5 -50.55 L21.85 -50.0 22.5 -49.35 24.05 -47.25 Q24.75 -45.8 24.75 -43.8 24.75 -42.15 24.05 -40.65 23.4 -39.25 21.85 -37.55 L22.55 -36.9 Q22.55 -33.95 21.7 -31.2 L21.7 -25.25 Q21.7 -23.65 20.65 -22.55 19.7 -21.65 18.35 -21.65 16.95 -21.65 16.0 -22.55 14.95 -23.65 14.95 -25.25 L14.95 -31.2 13.75 -31.2 13.75 -25.25 Q13.75 -23.05 15.1 -21.75 16.1 -20.75 17.4 -20.5 17.75 -18.25 17.25 -16.25 18.95 -14.45 19.9 -14.0 21.45 -12.55 22.1 -11.25 22.6 -10.25 22.75 -9.0 L22.8 -7.8 Q22.8 -6.15 22.1 -4.65 21.45 -3.25 19.9 -1.55 L18.45 -0.7 2.65 -0.7 Q-0.15 -0.6 -3.25 -0.65 L-5.4 -0.7 -21.35 -0.7 -21.6 -0.05 Q-23.3 -0.35 -23.85 -1.45 L-23.35 -0.9 -22.65 -1.55 Q-24.2 -3.25 -24.85 -4.65 -25.55 -6.15 -25.55 -7.8 -25.55 -9.35 -25.15 -10.55 L-24.85 -11.25 Q-24.2 -12.55 -22.65 -14.0 L-23.35 -14.65 Q-23.3 -17.0 -22.65 -19.55 -24.2 -21.25 -24.85 -22.65 -25.55 -24.15 -25.55 -25.8 -25.55 -27.8 -24.85 -29.25 -24.2 -30.55 -22.65 -32.0 L-23.35 -36.9 -22.65 -37.55 Q-24.2 -39.25 -24.85 -40.65 -25.55 -42.15 -25.55 -43.8 -25.55 -45.8 -24.85 -47.25 -24.2 -48.55 -22.65 -50.0 L-23.35 -50.65 -20.95 -55.75 -7.3 -67.15 -7.25 -67.5 -6.15 -67.45 -6.15 -55.95 5.35 -55.95 5.35 -67.45 6.4 -67.4 6.35 -67.15 M16.75 -50.95 L14.9 -50.95 17.6 -48.05 18.6 -48.05 16.75 -50.95 M2.1 -36.65 L2.1 -37.4 -2.7 -37.4 -2.7 -36.65 2.1 -36.65 M11.45 -40.15 L12.4 -41.8 Q6.95 -43.55 5.95 -49.3 6.45 -49.8 5.75 -49.7 L4.25 -49.4 Q5.7 -43.25 9.45 -41.45 6.85 -41.25 4.4 -39.9 L5.5 -38.75 Q8.35 -40.2 11.45 -40.15 M-3.75 -25.25 L-3.75 -31.2 -4.95 -31.2 -4.95 -25.25 Q-4.95 -23.65 -6.0 -22.55 -6.95 -21.65 -8.3 -21.65 -9.7 -21.65 -10.65 -22.55 -11.7 -23.65 -11.7 -25.25 L-11.7 -31.2 -12.9 -31.2 -12.9 -25.25 Q-12.9 -23.05 -11.55 -21.75 -10.2 -20.4 -8.3 -20.4 -6.45 -20.4 -5.05 -21.75 -3.75 -23.05 -3.75 -25.25 M-4.45 -50.95 L-6.7 -50.95 -9.05 -48.2 -7.65 -48.2 -4.45 -50.95 M-3.4 -14.65 L-4.1 -14.0 Q-2.55 -12.55 -1.9 -11.25 L-1.4 -9.7 -1.2 -7.8 Q-1.2 -6.15 -1.9 -4.65 -2.55 -3.25 -4.1 -1.55 L-3.4 -0.9 Q-1.85 -2.65 -1.1 -4.2 -0.3 -5.9 -0.3 -7.8 L-0.45 -9.7 Q-0.65 -10.75 -1.1 -11.7 -1.8 -13.15 -3.4 -14.65" fill="#ffffff" fill-rule="evenodd" stroke="none"/>
    <path d="M20.0 -55.75 L6.35 -67.15 7.05 -67.95 20.7 -56.55 20.0 -55.75 M5.35 -67.45 L5.35 -55.95 -6.15 -55.95 -6.15 -67.45 5.35 -67.45 M-7.3 -67.15 L-20.95 -55.75 -21.65 -56.55 -8.0 -67.95 -7.3 -67.15 M-23.35 -50.65 L-22.65 -50.0 Q-24.2 -48.55 -24.85 -47.25 -25.55 -45.8 -25.55 -43.8 -25.55 -42.15 -24.85 -40.65 -24.2 -39.25 -22.65 -37.55 L-23.35 -36.9 Q-24.9 -38.65 -25.65 -40.2 -26.45 -41.9 -26.45 -43.8 -26.45 -46.0 -25.65 -47.7 -24.95 -49.15 -23.35 -50.65 M-22.65 -32.0 Q-24.2 -30.55 -24.85 -29.25 -25.55 -27.8 -25.55 -25.8 -25.55 -24.15 -24.85 -22.65 -24.2 -21.25 -22.65 -19.55 L-23.35 -18.9 Q-24.9 -20.65 -25.65 -22.2 -26.45 -23.9 -26.45 -25.8 -26.45 -28.0 -25.65 -29.7 -24.95 -31.15 -23.35 -32.65 L-22.65 -32.0 M-23.35 -14.65 L-22.65 -14.0 Q-24.2 -12.55 -24.85 -11.25 L-25.15 -10.55 Q-25.55 -9.35 -25.55 -7.8 -25.55 -6.15 -24.85 -4.65 -24.2 -3.25 -22.65 -1.55 L-23.35 -0.9 -23.85 -1.45 -25.65 -4.2 Q-26.45 -5.9 -26.45 -7.8 -26.45 -9.3 -26.05 -10.55 L-25.65 -11.7 Q-24.95 -13.15 -23.35 -14.65 M-21.35 -0.7 L-5.4 -0.7 -5.4 0.0 -21.35 0.0 -21.35 -0.7 M2.65 -0.7 L18.45 -0.7 18.6 -0.7 18.6 0.0 2.65 0.0 2.65 -0.7 M19.9 -1.55 Q21.45 -3.25 22.1 -4.65 22.8 -6.15 22.8 -7.8 L22.75 -9.0 Q22.6 -10.25 22.1 -11.25 21.45 -12.55 19.9 -14.0 L20.6 -14.65 Q22.2 -13.15 22.9 -11.7 23.5 -10.45 23.65 -8.95 L23.7 -7.8 Q23.7 -5.9 22.9 -4.2 22.15 -2.65 20.6 -0.9 L19.9 -1.55 M17.4 -20.5 Q16.1 -20.75 15.1 -21.75 13.75 -23.05 13.75 -25.25 L13.75 -31.2 14.95 -31.2 14.95 -25.25 Q14.95 -23.65 16.0 -22.55 16.95 -21.65 18.35 -21.65 19.7 -21.65 20.65 -22.55 21.7 -23.65 21.7 -25.25 L21.7 -31.2 22.9 -31.2 22.9 -25.25 Q22.9 -23.05 21.6 -21.75 20.5 -20.7 17.4 -20.5 M22.55 -36.9 L21.85 -37.55 Q23.4 -39.25 24.05 -40.65 24.75 -42.15 24.75 -43.8 24.75 -45.8 24.05 -47.25 L22.5 -49.35 21.85 -50.0 22.5 -50.55 22.55 -50.65 Q24.15 -49.15 24.85 -47.7 25.65 -46.0 25.65 -43.8 25.65 -41.9 24.85 -40.2 24.1 -38.65 22.55 -36.9 M16.75 -50.95 L18.6 -48.05 17.6 -48.05 14.9 -50.95 16.75 -50.95 M11.45 -40.15 Q8.35 -40.2 5.5 -38.75 L4.4 -39.9 Q6.85 -41.25 9.45 -41.45 5.7 -43.25 4.25 -49.4 L5.75 -49.7 Q6.45 -49.8 5.95 -49.3 6.95 -43.55 12.4 -41.8 L11.45 -40.15 M2.1 -36.65 L-2.7 -36.65 -2.7 -37.4 2.1 -37.4 2.1 -36.65 M-4.45 -50.95 L-7.65 -48.2 -9.05 -48.2 -6.7 -50.95 -4.45 -50.95 M-3.75 -25.25 Q-3.75 -23.05 -5.05 -21.75 -6.45 -20.4 -8.3 -20.4 -10.2 -20.4 -11.55 -21.75 -12.9 -23.05 -12.9 -25.25 L-12.9 -31.2 -11.7 -31.2 -11.7 -25.25 Q-11.7 -23.65 -10.65 -22.55 -9.7 -21.65 -8.3 -21.65 -6.95 -21.65 -6.0 -22.55 -4.95 -23.65 -4.95 -25.25 L-4.95 -31.2 -3.75 -31.2 -3.75 -25.25 M-3.4 -14.65 Q-1.8 -13.15 -1.1 -11.7 -0.65 -10.75 -0.45 -9.7 L-0.3 -7.8 Q-0.3 -5.9 -1.1 -4.2 -1.85 -2.65 -3.4 -0.9 L-4.1 -1.55 Q-2.55 -3.25 -1.9 -4.65 -1.2 -6.15 -1.2 -7.8 L-1.4 -9.7 -1.9 -11.25 Q-2.55 -12.55 -4.1 -14.0 L-3.4 -14.65" fill="#000000" fill-rule="evenodd" stroke="none"/>
  </g>
</svg>
