<?xml version="1.0" encoding="UTF-8" standalone="no"?>
<svg xmlns:xlink="http://www.w3.org/1999/xlink" height="61.6px" width="61.4px" xmlns="http://www.w3.org/2000/svg">
  <g transform="matrix(1.0, 0.0, 0.0, 1.0, 30.65, 30.8)">
    <path d="M23.8 9.1 L23.8 11.1 Q24.55 10.6 25.95 8.3 L25.95 12.2 Q27.55 11.25 27.55 8.75 28.2 9.25 30.15 13.9 L30.0 15.3 Q29.4 17.85 27.5 19.9 25.2 22.35 21.0 24.0 13.35 26.95 3.85 17.75 12.6 19.1 18.05 15.75 L20.9 13.45 Q22.6 11.6 23.8 9.1" fill="#8f7c3f" fill-rule="evenodd" stroke="none"/>
    <path d="M30.15 13.9 Q28.2 9.25 27.55 8.75 27.55 11.25 25.95 12.2 L25.95 8.3 Q24.55 10.6 23.8 11.1 L23.8 9.1 Q25.05 6.5 25.8 3.2 30.95 7.75 30.15 13.9" fill="#ffffff" fill-rule="evenodd" stroke="none"/>
    <path d="M30.15 13.9 Q30.95 7.75 25.8 3.2 25.05 6.5 23.8 9.1 22.6 11.6 20.9 13.45 L18.05 15.75 Q12.6 19.1 3.85 17.75 13.35 26.95 21.0 24.0 25.2 22.35 27.5 19.9 29.4 17.85 30.0 15.3 L30.15 13.9 Z" fill="none" stroke="#8f7c3f" stroke-linecap="round" stroke-linejoin="round" stroke-width="1.0"/>
    <path d="M-1.75 6.8 L-0.45 7.85 Q2.1 10.5 4.2 13.6 L8.2 19.65 Q9.7 21.95 9.75 24.5 9.7 28.05 4.8 28.3 L-2.85 29.1 -10.5 30.2 Q-15.9 30.8 -15.5 26.65 -15.2 23.0 -13.9 19.55 -12.65 16.25 -10.6 13.25 L-6.75 7.85 -6.4 7.3 -5.8 6.8 -1.75 6.8" fill="#e2d5c0" fill-rule="evenodd" stroke="none"/>
    <path d="M-1.75 6.8 L-0.45 7.85 Q2.1 10.5 4.2 13.6 L8.2 19.65 Q9.7 21.95 9.75 24.5 9.7 28.05 4.8 28.3 L-2.85 29.1 -10.5 30.2 Q-15.9 30.8 -15.5 26.65 -15.2 23.0 -13.9 19.55 -12.65 16.25 -10.6 13.25 L-6.75 7.85 -6.4 7.3 -5.8 6.8" fill="none" stroke="#8f7c3f" stroke-linecap="round" stroke-linejoin="round" stroke-width="1.0"/>
    <path d="M-3.35 12.9 Q-6.55 10.55 -3.2 11.1 -2.9 12.45 -3.35 12.9" fill="#d0bc9b" fill-rule="evenodd" stroke="none"/>
    <path d="M2.55 20.8 L1.5 22.7 Q0.65 23.6 -2.95 23.75 -5.75 23.85 -8.15 21.1 -11.35 17.65 -9.7 17.45 L-1.25 16.7 4.05 16.5 Q2.9 20.45 2.55 20.8" fill="#ffffff" fill-rule="evenodd" stroke="none"/>
    <path d="M2.55 20.8 L1.5 22.7 Q0.65 23.6 -2.95 23.75 -5.75 23.85 -8.15 21.1 -11.35 17.65 -9.7 17.45 L-1.25 16.7 4.05 16.5 Q2.9 20.45 2.55 20.8 M-3.35 12.9 Q-6.55 10.55 -3.2 11.1 -2.9 12.45 -3.35 12.9" fill="none" stroke="#8f7c3f" stroke-linecap="round" stroke-linejoin="round" stroke-width="1.0"/>
    <path d="M-6.55 -5.4 Q-4.15 -7.45 -1.35 -5.4 L-6.55 -5.4" fill="#ffffff" fill-rule="evenodd" stroke="none"/>
    <path d="M-1.35 -5.4 Q-4.15 -7.45 -6.55 -5.4" fill="none" stroke="#8f7c3f" stroke-linecap="round" stroke-linejoin="round" stroke-width="1.0"/>
    <path d="M-17.35 11.7 L-16.35 11.55 Q-12.2 10.75 -8.0 9.3 -12.55 20.5 -20.1 12.1 L-17.35 11.7" fill="#8f7c3f" fill-rule="evenodd" stroke="none"/>
    <path d="M-17.35 11.7 L-20.1 12.1 Q-12.55 20.5 -8.0 9.3 -12.2 10.75 -16.35 11.55 L-17.35 11.7 Z" fill="none" stroke="#8f7c3f" stroke-linecap="round" stroke-linejoin="round" stroke-width="1.0"/>
    <path d="M10.8 11.2 L13.6 11.6 Q6.0 20.0 1.45 8.8 5.65 10.25 9.8 11.05 L10.8 11.2" fill="#8f7c3f" fill-rule="evenodd" stroke="none"/>
    <path d="M10.8 11.2 L13.6 11.6 Q6.0 20.0 1.45 8.8 5.65 10.25 9.8 11.05 L10.8 11.2 Z" fill="none" stroke="#8f7c3f" stroke-linecap="round" stroke-linejoin="round" stroke-width="1.0"/>
    <path d="M-10.3 -27.15 Q4.8 -29.65 13.4 -18.55 22.9 -6.3 11.0 2.7 4.2 7.85 -9.65 6.85 -24.95 5.35 -26.05 -9.7 L-26.05 -10.65 Q-26.5 -23.3 -12.95 -26.6 L-10.3 -27.15" fill="#ffffff" fill-rule="evenodd" stroke="none"/>
    <path d="M-10.3 -27.15 Q4.8 -29.65 13.4 -18.55 22.9 -6.3 11.0 2.7 4.2 7.85 -9.65 6.85 -24.95 5.35 -26.05 -9.7 L-26.05 -10.65 Q-26.5 -23.3 -12.95 -26.6 L-10.3 -27.15 Z" fill="none" stroke="#8f7c3f" stroke-linecap="round" stroke-linejoin="round" stroke-width="1.0"/>
    <path d="M-7.75 -13.55 Q-8.65 -12.7 -9.1 -13.05 L-9.3 -13.8 Q-9.55 -14.8 -9.4 -15.5 L-8.25 -15.5 Q-7.4 -14.6 -7.75 -13.55 M-1.75 -15.35 Q-0.85 -15.5 -0.35 -14.5 0.1 -13.5 -0.8 -12.8 -1.7 -12.15 -1.9 -13.3 -2.15 -14.5 -1.75 -15.35" fill="#8f7c3f" fill-rule="evenodd" stroke="none"/>
    <path d="M3.45 -6.45 Q2.1 -4.7 0.75 -4.1 L-2.2 -4.2 Q-3.75 -4.9 -4.3 -7.55 L-5.25 -7.85 Q-5.75 -5.0 -6.25 -4.25 L-6.75 -3.85 -8.2 -3.8 -8.5 -3.85 Q-10.35 -4.45 -10.9 -7.3 M8.15 -8.8 L9.65 -9.2 Q10.05 -9.4 10.45 -9.55 M5.1 -9.55 Q5.8 -9.6 6.4 -10.15 L7.75 -11.1 M-7.75 -13.55 Q-8.65 -12.7 -9.1 -13.05 L-9.3 -13.8 Q-9.55 -14.8 -9.4 -15.5 L-8.25 -15.5 Q-7.4 -14.6 -7.75 -13.55 M-18.35 -7.6 L-17.75 -8.4 -16.6 -8.8 M-5.25 -7.85 Q-6.3 -8.55 -4.8 -10.9 -2.9 -8.6 -4.3 -7.55 L-4.8 -10.9 -5.25 -7.85 M-21.15 -8.05 Q-20.35 -9.55 -18.9 -9.7" fill="none" stroke="#8f7c3f" stroke-linecap="round" stroke-linejoin="round" stroke-width="1.0"/>
    <path d="M-1.75 -15.35 Q-2.15 -14.5 -1.9 -13.3 -1.7 -12.15 -0.8 -12.8 0.1 -13.5 -0.35 -14.5 -0.85 -15.5 -1.75 -15.35" fill="none" stroke="#8f7c3f" stroke-linecap="round" stroke-linejoin="round" stroke-width="1.0"/>
    <path d="M-14.7 -19.15 Q-15.45 -11.55 -22.55 -17.1 L-30.15 -24.05 Q-13.1 -35.35 -14.7 -19.15" fill="#8f7c3f" fill-rule="evenodd" stroke="none"/>
    <path d="M-14.7 -19.15 Q-15.45 -11.55 -22.55 -17.1 L-30.15 -24.05 Q-13.1 -35.35 -14.7 -19.15 Z" fill="none" stroke="#8f7c3f" stroke-linecap="round" stroke-linejoin="round" stroke-width="1.0"/>
    <path d="M6.35 -15.4 Q-0.15 -22.65 12.0 -30.3 29.8 -20.75 6.35 -15.4" fill="#8f7c3f" fill-rule="evenodd" stroke="none"/>
    <path d="M6.35 -15.4 Q29.8 -20.75 12.0 -30.3 -0.15 -22.65 6.35 -15.4 Z" fill="none" stroke="#8f7c3f" stroke-linecap="round" stroke-linejoin="round" stroke-width="1.0"/>
  </g>
</svg>
