<svg xmlns:xlink="http://www.w3.org/1999/xlink" height="80.1px" width="76.65px" xmlns="http://www.w3.org/2000/svg">
  <g transform="matrix(1.0, 0.0, 0.0, 1.0, 38.35, 40.05)">
    <path d="M4.6 -25.95 L4.4 -25.6 5.8 -24.95 11.0 -36.45 16.2 -24.95 17.6 -25.6 18.2 -25.8 20.9 -18.6 20.35 -18.05 Q22.1 -16.45 22.9 -14.9 23.65 -13.25 23.65 -10.9 23.65 -9.0 22.9 -7.3 22.1 -5.7 20.35 -3.8 L20.9 -3.2 21.45 2.9 20.9 3.45 Q22.65 5.05 23.45 6.55 24.2 8.25 24.2 10.55 24.2 12.5 23.45 14.2 22.65 15.75 20.9 17.7 L21.3 18.55 Q12.5 22.95 4.3 23.2 L-1.9 22.8 Q-8.25 21.75 -14.25 18.05 L-14.0 17.7 Q-15.8 15.75 -16.45 14.2 -17.3 12.5 -17.3 10.55 -17.3 8.25 -16.45 6.55 -15.8 5.05 -14.0 3.45 L-14.75 2.65 -15.25 3.0 -19.2 -3.2 -18.7 -3.8 Q-20.45 -5.7 -21.15 -7.3 -22.0 -9.0 -22.0 -10.9 -22.0 -13.25 -21.15 -14.9 -20.45 -16.45 -18.7 -18.05 L-19.35 -18.7 -19.35 -24.95 -18.2 -24.95 -13.0 -36.45 -7.8 -24.95 -6.4 -25.6 -6.7 -26.15 -6.35 -26.3 4.3 -26.1 4.6 -25.95 M17.6 -17.45 Q17.3 -17.15 16.75 -17.15 16.3 -17.15 16.0 -17.45 15.65 -17.7 15.7 -18.2 15.65 -18.75 16.0 -18.95 16.3 -19.3 16.75 -19.25 17.3 -19.3 17.6 -18.95 L17.85 -18.2 17.6 -17.45 M17.9 -19.35 Q17.45 -19.9 16.75 -19.9 16.15 -19.9 15.6 -19.35 15.15 -18.85 15.15 -18.2 15.15 -17.6 15.6 -17.05 16.15 -16.5 16.75 -16.5 17.45 -16.5 17.9 -17.05 18.45 -17.6 18.45 -18.2 18.45 -18.85 17.9 -19.35 M9.7 -14.3 Q10.4 -12.6 10.4 -10.35 10.4 -7.55 9.25 -6.4 8.55 -5.8 7.6 -5.8 6.75 -5.8 6.25 -6.25 5.8 -6.8 5.8 -7.45 L6.4 -8.85 6.8 -10.9 Q6.75 -12.45 6.15 -12.45 5.7 -12.45 5.15 -11.45 4.6 -10.3 4.55 -9.55 4.4 -8.4 4.55 -7.7 L3.65 -6.3 Q2.95 -5.7 2.05 -5.7 1.4 -5.7 0.95 -6.15 0.45 -6.55 0.5 -8.05 0.5 -10.85 3.35 -14.05 L2.1 -14.7 Q-0.85 -11.4 -0.8 -8.05 -0.8 -6.1 0.05 -5.25 0.8 -4.5 2.05 -4.45 3.3 -4.5 4.15 -5.3 L4.95 -6.25 Q5.0 -5.8 5.65 -5.15 6.3 -4.5 7.7 -4.45 9.3 -4.5 10.3 -5.45 11.85 -7.1 11.85 -10.35 11.85 -12.7 11.1 -14.7 L9.7 -14.3 M7.6 8.75 L5.95 8.75 8.7 12.7 5.8 16.8 7.4 16.8 9.55 13.8 11.7 16.8 13.4 16.8 10.45 12.7 13.15 8.75 11.55 8.75 9.55 11.65 7.6 8.75 M-5.85 -17.15 Q-6.35 -17.15 -6.65 -17.45 L-6.95 -18.2 -6.65 -18.95 Q-6.35 -19.3 -5.85 -19.25 -5.35 -19.3 -5.05 -18.95 -4.8 -18.75 -4.8 -18.2 -4.8 -17.7 -5.05 -17.45 -5.35 -17.15 -5.85 -17.15 M-4.75 -19.35 Q-5.2 -19.9 -5.85 -19.9 -6.5 -19.9 -7.05 -19.35 L-7.5 -18.2 -7.05 -17.05 Q-6.5 -16.5 -5.85 -16.5 -5.2 -16.5 -4.75 -17.05 -4.2 -17.6 -4.2 -18.2 -4.2 -18.85 -4.75 -19.35 M-16.6 -13.85 L-16.6 -12.7 -8.5 -12.7 -8.5 -13.85 -16.6 -13.85 M-8.5 -8.3 L-8.5 -9.45 -16.6 -9.45 -16.6 -8.3 -8.5 -8.3" fill="#ffffff" fill-rule="evenodd" stroke="none"/>
    <path d="M17.6 -25.6 L16.2 -24.95 11.0 -36.45 5.8 -24.95 4.4 -25.6 4.6 -25.95 11.0 -40.05 17.6 -25.6 M-6.7 -26.15 L-6.4 -25.6 -7.8 -24.95 -13.0 -36.45 -18.2 -24.95 -19.6 -25.6 -13.0 -40.05 -6.7 -26.15 M-19.35 -18.7 L-18.7 -18.05 Q-20.45 -16.45 -21.15 -14.9 -22.0 -13.25 -22.0 -10.9 -22.0 -9.0 -21.15 -7.3 -20.45 -5.7 -18.7 -3.8 L-19.2 -3.2 -19.45 -2.95 Q-21.25 -5.05 -22.15 -6.8 -23.1 -8.7 -23.05 -10.9 -23.1 -13.45 -22.15 -15.35 -21.3 -17.05 -19.45 -18.8 L-19.35 -18.7 M-14.75 2.65 L-14.0 3.45 Q-15.8 5.05 -16.45 6.55 -17.3 8.25 -17.3 10.55 -17.3 12.5 -16.45 14.2 -15.8 15.75 -14.0 17.7 L-14.75 18.55 -17.45 14.7 Q-18.4 12.8 -18.4 10.55 -18.4 8.0 -17.45 6.1 -16.75 4.6 -15.2 3.1 L-14.75 2.65 M20.9 17.7 Q22.65 15.75 23.45 14.2 24.2 12.5 24.2 10.55 24.2 8.25 23.45 6.55 22.65 5.05 20.9 3.45 L21.45 2.9 21.65 2.65 Q23.5 4.4 24.35 6.1 25.25 8.0 25.3 10.55 25.25 12.8 24.35 14.7 23.5 16.45 21.65 18.55 L20.9 17.7 M20.9 -3.2 L20.35 -3.8 Q22.1 -5.7 22.9 -7.3 23.65 -9.0 23.65 -10.9 23.65 -13.25 22.9 -14.9 22.1 -16.45 20.35 -18.05 L20.9 -18.6 21.15 -18.8 Q22.95 -17.05 23.8 -15.35 24.7 -13.45 24.75 -10.9 24.7 -8.7 23.8 -6.8 22.95 -5.05 21.15 -2.95 L20.9 -3.2 M9.7 -14.3 L11.1 -14.7 Q11.85 -12.7 11.85 -10.35 11.85 -7.1 10.3 -5.45 9.3 -4.5 7.7 -4.45 6.3 -4.5 5.65 -5.15 5.0 -5.8 4.95 -6.25 L4.15 -5.3 Q3.3 -4.5 2.05 -4.45 0.8 -4.5 0.05 -5.25 -0.8 -6.1 -0.8 -8.05 -0.85 -11.4 2.1 -14.7 L3.35 -14.05 Q0.5 -10.85 0.5 -8.05 0.45 -6.55 0.95 -6.15 1.4 -5.7 2.05 -5.7 2.95 -5.7 3.65 -6.3 L4.55 -7.7 Q4.4 -8.4 4.55 -9.55 4.6 -10.3 5.15 -11.45 5.7 -12.45 6.15 -12.45 6.75 -12.45 6.8 -10.9 L6.4 -8.85 5.8 -7.45 Q5.8 -6.8 6.25 -6.25 6.75 -5.8 7.6 -5.8 8.55 -5.8 9.25 -6.4 10.4 -7.55 10.4 -10.35 10.4 -12.6 9.7 -14.3 M17.9 -19.35 Q18.45 -18.85 18.45 -18.2 18.45 -17.6 17.9 -17.05 17.45 -16.5 16.75 -16.5 16.15 -16.5 15.6 -17.05 15.15 -17.6 15.15 -18.2 15.15 -18.85 15.6 -19.35 16.15 -19.9 16.75 -19.9 17.45 -19.9 17.9 -19.35 M17.6 -17.45 L17.85 -18.2 17.6 -18.95 Q17.3 -19.3 16.75 -19.25 16.3 -19.3 16.0 -18.95 15.65 -18.75 15.7 -18.2 15.65 -17.7 16.0 -17.45 16.3 -17.15 16.75 -17.15 17.3 -17.15 17.6 -17.45 M38.3 -17.5 Q38.0 -13.0 35.8 -9.4 33.7 -5.8 30.2 -3.7 L29.05 -5.1 Q36.15 -9.15 36.65 -17.95 L38.3 -17.5 M7.6 8.75 L9.55 11.65 11.55 8.75 13.15 8.75 10.45 12.7 13.4 16.8 11.7 16.8 9.55 13.8 7.4 16.8 5.8 16.8 8.7 12.7 5.95 8.75 7.6 8.75 M4.3 24.15 Q6.15 25.9 7.0 27.6 7.9 29.5 7.95 32.05 7.9 34.25 7.0 36.2 6.15 37.95 4.3 40.05 L3.55 39.2 6.1 35.65 Q6.85 33.95 6.85 32.05 6.85 29.75 6.1 28.05 5.3 26.5 3.55 24.9 L4.3 24.15 M-36.8 -15.05 Q-31.0 -11.4 -28.3 -7.6 L-30.1 -6.15 Q-32.8 -10.1 -38.35 -13.7 L-36.8 -15.05 M-16.6 -13.85 L-8.5 -13.85 -8.5 -12.7 -16.6 -12.7 -16.6 -13.85 M-4.75 -19.35 Q-4.2 -18.85 -4.2 -18.2 -4.2 -17.6 -4.75 -17.05 -5.2 -16.5 -5.85 -16.5 -6.5 -16.5 -7.05 -17.05 L-7.5 -18.2 -7.05 -19.35 Q-6.5 -19.9 -5.85 -19.9 -5.2 -19.9 -4.75 -19.35 M-5.85 -17.15 Q-5.35 -17.15 -5.05 -17.45 -4.8 -17.7 -4.8 -18.2 -4.8 -18.75 -5.05 -18.95 -5.35 -19.3 -5.85 -19.25 -6.35 -19.3 -6.65 -18.95 L-6.95 -18.2 -6.65 -17.45 Q-6.35 -17.15 -5.85 -17.15 M-8.5 -8.3 L-16.6 -8.3 -16.6 -9.45 -8.5 -9.45 -8.5 -8.3 M-36.8 12.25 L-38.35 11.35 Q-37.75 10.25 -36.75 9.35 -35.7 8.35 -34.3 8.35 -32.85 8.35 -31.05 9.4 -29.15 10.55 -27.85 10.55 -26.85 10.55 -25.9 9.55 L-25.05 8.4 -23.6 9.55 -25.3 11.5 Q-26.45 12.55 -28.0 12.55 -29.25 12.55 -31.45 11.25 -33.05 10.25 -34.1 10.25 -35.35 10.25 -36.0 11.0 L-36.8 12.25 M0.35 32.15 Q0.3 28.15 -2.95 25.1 L-2.2 24.25 Q1.4 27.6 1.4 32.15 1.4 36.55 -2.2 39.95 L-2.95 39.1 Q0.3 36.05 0.35 32.15" fill="#000000" fill-rule="evenodd" stroke="none"/>
  </g>
</svg>
