<svg xmlns:xlink="http://www.w3.org/1999/xlink" height="24.55px" width="59.0px" xmlns="http://www.w3.org/2000/svg">
  <g transform="matrix(1.0, 0.0, 0.0, 1.0, 31.3, 13.7)">
    <path d="M23.25 -8.95 L22.7 -8.45 24.9 -5.15 Q26.75 -2.15 26.3 1.45 25.75 5.9 22.45 8.85 L23.1 9.5 Q-2.35 12.25 -26.65 9.45 L-26.25 9.05 -26.85 8.0 -28.55 5.15 Q-30.4 1.75 -29.5 -2.1 -28.7 -5.75 -26.05 -8.25 L-27.0 -9.1 Q-0.5 -18.35 23.25 -8.95 M21.25 -1.3 L18.55 -1.3 18.55 1.4 21.25 1.4 21.25 -1.3 M-10.45 -1.3 L-13.15 -1.3 -13.15 1.4 -10.45 1.4 -10.45 -1.3 M0.6 -1.9 L7.5 -1.9 4.05 4.2 0.6 -1.9 M11.95 -6.25 L10.3 -7.2 8.35 -3.7 -0.25 -3.7 -2.2 -7.2 -3.85 -6.25 4.05 8.1 11.95 -6.25" fill="#ffffff" fill-rule="evenodd" stroke="none"/>
    <path d="M21.25 -1.3 L21.25 1.4 18.55 1.4 18.55 -1.3 21.25 -1.3 M23.1 9.5 L22.45 8.85 Q25.75 5.9 26.3 1.45 26.75 -2.15 24.9 -5.15 L22.7 -8.45 23.25 -8.95 23.4 -9.1 Q25.65 -7.05 26.6 -5.05 27.7 -2.75 27.7 0.25 27.7 2.95 26.6 5.25 25.55 7.4 23.4 9.8 L23.1 9.5 M-27.0 -9.1 L-26.05 -8.25 Q-28.7 -5.75 -29.5 -2.1 -30.4 1.75 -28.55 5.15 L-26.85 8.0 -26.25 9.05 -26.65 9.45 -27.0 9.8 -27.25 9.5 Q-29.2 7.25 -30.2 5.25 -31.3 2.95 -31.3 0.25 -31.3 -2.75 -30.2 -5.05 -29.25 -7.05 -27.0 -9.1 M11.95 -6.25 L4.05 8.1 -3.85 -6.25 -2.2 -7.2 -0.25 -3.7 8.35 -3.7 10.3 -7.2 11.95 -6.25 M0.6 -1.9 L4.05 4.2 7.5 -1.9 0.6 -1.9 M-10.45 -1.3 L-10.45 1.4 -13.15 1.4 -13.15 -1.3 -10.45 -1.3" fill="#000000" fill-rule="evenodd" stroke="none"/>
  </g>
</svg>
