<?xml version="1.0" encoding="UTF-8" standalone="no"?>
<svg xmlns:ffdec="https://www.free-decompiler.com/flash" xmlns:xlink="http://www.w3.org/1999/xlink" ffdec:objectType="shape" height="50.9px" width="77.7px" xmlns="http://www.w3.org/2000/svg">
  <g transform="matrix(1.0, 0.0, 0.0, 1.0, 45.6, 50.7)">
    <path d="M-34.85 -23.1 L-34.8 -23.1 -35.05 -27.1 -35.05 -30.0 Q-35.0 -31.95 -34.15 -33.7 L-32.95 -35.95 -32.65 -36.4 -34.3 -37.45 -35.6 -38.5 Q-36.55 -39.25 -37.0 -40.25 L-34.45 -39.55 -33.1 -39.2 Q-32.55 -39.1 -32.4 -39.45 -32.3 -39.7 -32.35 -40.0 L-33.15 -43.25 -33.25 -44.15 Q-33.3 -45.0 -33.0 -45.5 -29.6 -43.75 -25.75 -42.8 L-26.0 -46.5 -26.15 -48.0 Q-26.25 -49.6 -25.65 -50.7 -24.6 -50.75 -24.05 -50.05 L-22.65 -48.25 -22.1 -49.55 -21.0 -48.5 Q-18.7 -46.0 -16.8 -43.2 L-15.65 -42.2 -13.5 -41.3 -13.1 -41.25 -12.75 -41.25 -10.95 -41.1 -10.1 -40.9 -8.85 -40.6 Q-7.8 -42.0 -6.3 -43.05 L-3.05 -44.9 -2.35 -44.9 -0.6 -44.75 -0.8 -41.0 -1.2 -38.5 Q-1.6 -36.9 -2.7 -35.7 L-2.95 -35.25 Q-3.2 -34.55 -3.7 -34.3 L-3.2 -33.55 -1.45 -30.7 -1.1 -29.65 Q-0.9 -27.6 -1.3 -25.6 L-1.35 -25.4 Q-0.95 -25.1 -0.35 -25.05 L3.4 -24.65 7.0 -24.35 10.75 -24.05 11.9 -23.8 12.85 -23.45 16.1 -21.7 16.75 -21.25 Q18.1 -20.3 19.1 -18.95 20.8 -19.25 22.3 -20.35 23.95 -21.55 24.85 -23.35 25.7 -25.05 26.1 -26.9 L26.75 -30.65 Q26.85 -31.75 27.3 -32.7 L27.9 -33.2 28.25 -33.35 Q30.35 -33.9 31.65 -32.15 32.1 -31.45 32.1 -30.5 L31.8 -28.0 30.8 -24.45 29.7 -22.35 27.3 -19.7 25.15 -18.05 Q23.45 -16.95 21.6 -16.25 L20.9 -16.0 20.95 -15.9 Q21.6 -14.65 21.45 -13.15 21.25 -11.3 20.05 -9.85 L19.65 -9.25 Q18.6 -7.65 16.75 -7.05 L14.85 -6.6 Q15.65 -5.2 16.6 -4.1 L17.1 -3.6 18.9 -1.25 Q19.1 -0.9 18.75 -0.7 17.45 -0.05 16.15 -0.4 L15.7 -0.55 Q13.95 -1.4 12.65 -2.65 L12.3 -3.05 12.0 -3.45 11.8 -2.9 11.6 -2.2 Q10.8 -1.15 9.5 -0.25 L8.25 -0.25 7.6 -0.5 8.2 -2.9 Q8.8 -4.65 8.55 -6.4 L8.5 -6.4 5.75 -6.55 1.9 -6.85 -2.0 -7.0 -3.4 -7.0 -2.75 -5.5 -2.45 -4.95 Q-1.75 -4.05 -1.75 -2.9 -1.75 -2.25 -2.05 -1.65 -2.6 -0.5 -3.85 0.1 -4.35 0.35 -5.15 -0.2 -6.0 -1.55 -6.3 -3.15 -6.6 -5.05 -6.55 -7.3 L-7.9 -7.45 -8.2 -7.5 -8.4 -7.55 -8.95 -5.65 -9.4 -4.25 Q-10.0 -2.8 -11.2 -1.7 -12.75 -0.4 -14.75 -0.35 L-15.5 -0.5 Q-16.05 -0.95 -15.5 -1.65 L-13.3 -4.8 Q-12.25 -6.25 -11.6 -7.95 -13.65 -8.15 -14.85 -9.75 L-15.4 -10.65 -15.6 -11.0 -16.7 -10.2 Q-17.8 -9.35 -19.1 -8.9 L-23.0 -8.6 -23.7 -8.85 -26.95 -10.4 Q-28.7 -11.25 -30.1 -12.55 L-30.7 -13.15 -32.9 -16.05 Q-33.35 -16.75 -33.4 -17.5 L-33.5 -18.75 -33.75 -20.75 -33.7 -21.05 -34.05 -21.15 Q-35.35 -21.65 -36.5 -22.5 L-35.1 -23.05 -34.85 -23.1 M14.5 -6.55 Q14.6 -7.05 14.8 -6.65 L14.85 -6.6 14.5 -6.55 13.0 -6.5 10.3 -6.45 13.0 -6.5 14.5 -6.55 14.85 -6.6 14.8 -6.65 Q14.6 -7.05 14.5 -6.55 M8.55 -6.4 L9.4 -6.45 10.3 -6.45 Q11.0 -4.85 12.0 -3.45 11.0 -4.85 10.3 -6.45 L9.4 -6.45 8.55 -6.4 M20.25 -15.9 L20.9 -16.0 19.4 -18.5 19.1 -18.95 19.4 -18.5 20.9 -16.0 20.25 -15.9 M-17.85 -36.45 L-20.2 -37.75 -21.0 -38.25 -20.2 -37.75 -17.85 -36.45 -16.4 -36.65 -15.35 -36.8 -14.0 -36.9 -13.65 -36.65 -13.4 -35.2 -13.2 -33.85 -13.2 -33.75 -13.15 -33.15 -13.0 -31.55 -13.1 -29.9 -13.2 -29.25 -13.45 -25.5 -13.45 -25.35 -13.45 -24.85 -13.6 -23.6 Q-15.0 -23.35 -16.25 -22.75 -15.0 -23.35 -13.6 -23.6 L-13.45 -24.85 -13.45 -25.35 -13.45 -25.5 -13.2 -29.25 -13.1 -29.9 -13.0 -31.55 -13.15 -33.15 -13.2 -33.75 -13.2 -33.85 -13.4 -35.2 -13.65 -36.65 -14.0 -36.9 -15.35 -36.8 -16.4 -36.65 -17.85 -36.45 -15.75 -35.5 -15.6 -35.45 -15.45 -35.4 -14.6 -35.05 -15.45 -35.4 -15.6 -35.45 -15.75 -35.5 -17.85 -36.45 -19.1 -36.35 -21.0 -36.25 -22.85 -36.25 -23.35 -36.25 -26.6 -36.55 -28.65 -36.7 -29.9 -35.95 -30.05 -35.9 -31.5 -35.2 -32.0 -35.0 -31.5 -35.2 -30.05 -35.9 -29.9 -35.95 -28.65 -36.7 -26.6 -36.55 -23.35 -36.25 -22.85 -36.25 -21.0 -36.25 -19.1 -36.35 -17.85 -36.45 M-5.65 -24.15 L-6.35 -24.25 Q-6.6 -24.85 -7.35 -25.5 -8.65 -26.7 -9.75 -28.5 -9.7 -26.65 -9.9 -24.9 L-10.0 -24.05 -12.75 -23.75 -13.6 -23.6 -12.75 -23.75 -10.0 -24.05 -9.9 -24.9 Q-9.7 -26.65 -9.75 -28.5 -8.65 -26.7 -7.35 -25.5 -6.6 -24.85 -6.35 -24.25 L-5.65 -24.15 M-3.7 -34.3 L-3.75 -34.4 -4.6 -35.55 -5.4 -36.6 -6.55 -38.4 -6.9 -38.85 -6.55 -38.4 -5.4 -36.6 -4.6 -35.55 Q-4.25 -37.2 -3.5 -38.85 -3.1 -39.75 -3.45 -40.55 -5.5 -40.2 -7.2 -39.2 L-6.9 -38.85 -7.2 -39.2 Q-5.5 -40.2 -3.45 -40.55 -3.1 -39.75 -3.5 -38.85 -4.25 -37.2 -4.6 -35.55 L-3.75 -34.4 -3.7 -34.3 M-16.6 -31.85 Q-16.9 -32.85 -17.55 -32.2 L-17.9 -31.8 Q-18.55 -30.85 -17.55 -29.8 -16.45 -28.65 -15.0 -29.0 -14.3 -29.15 -14.0 -29.7 L-13.9 -30.0 Q-13.65 -31.0 -13.85 -31.9 L-14.1 -32.65 -14.15 -32.75 -14.65 -33.5 -14.8 -33.65 -16.15 -34.6 -18.1 -34.55 -19.05 -34.15 -19.15 -34.05 -19.6 -33.6 -19.8 -33.3 Q-20.7 -31.9 -20.45 -30.1 -20.35 -29.25 -19.9 -28.55 -19.1 -27.2 -17.7 -26.9 L-16.75 -26.85 -17.7 -26.9 Q-19.1 -27.2 -19.9 -28.55 -20.35 -29.25 -20.45 -30.1 -20.7 -31.9 -19.8 -33.3 L-19.6 -33.6 -19.15 -34.05 -19.05 -34.15 -18.1 -34.55 -16.15 -34.6 -14.8 -33.65 -14.65 -33.5 -14.15 -32.75 -14.1 -32.65 -13.85 -31.9 Q-13.65 -31.0 -13.9 -30.0 L-14.0 -29.7 Q-14.3 -29.15 -15.0 -29.0 -16.45 -28.65 -17.55 -29.8 -18.55 -30.85 -17.9 -31.8 L-17.55 -32.2 Q-16.9 -32.85 -16.6 -31.85 M-7.2 -39.2 L-7.35 -39.5 Q-7.6 -40.25 -8.35 -40.45 L-8.85 -40.6 -8.35 -40.45 Q-7.6 -40.25 -7.35 -39.5 L-7.2 -39.2 M-24.0 -44.35 L-23.75 -43.6 -23.5 -44.2 -24.0 -44.35 -24.45 -46.3 -23.1 -46.2 -23.1 -46.25 -22.65 -48.25 -23.1 -46.25 -23.1 -46.2 -24.45 -46.3 -24.0 -44.35 M-27.65 -18.45 L-29.2 -18.65 Q-28.25 -16.75 -26.7 -15.35 L-26.6 -15.2 -26.55 -15.2 -26.2 -14.9 Q-25.85 -14.6 -25.45 -14.45 L-24.1 -14.15 -22.65 -14.3 -22.3 -14.4 Q-21.3 -14.7 -20.45 -15.45 L-19.75 -16.05 -19.65 -16.15 -17.6 -18.35 Q-17.1 -18.9 -17.25 -19.1 -17.4 -18.95 -17.6 -18.95 L-20.25 -18.5 -21.1 -18.4 -24.8 -18.35 -25.3 -17.75 -25.75 -16.7 -25.8 -16.55 Q-26.05 -15.7 -26.55 -15.2 L-26.7 -15.35 Q-27.4 -16.3 -27.5 -17.5 L-27.65 -18.45 -27.35 -18.45 -26.45 -18.4 -25.0 -18.35 -24.8 -18.35 -25.0 -18.35 -26.45 -18.4 -27.35 -18.45 -27.65 -18.45 -27.5 -17.5 Q-27.4 -16.3 -26.7 -15.35 L-26.55 -15.2 Q-26.05 -15.7 -25.8 -16.55 L-25.75 -16.7 -25.3 -17.75 -24.8 -18.35 -21.1 -18.4 -20.25 -18.5 -17.6 -18.95 Q-17.4 -18.95 -17.25 -19.1 -17.1 -18.9 -17.6 -18.35 L-19.65 -16.15 -19.75 -16.05 -20.45 -15.45 Q-21.3 -14.7 -22.3 -14.4 L-22.65 -14.3 -24.1 -14.15 -25.45 -14.45 Q-25.85 -14.6 -26.2 -14.9 L-26.55 -15.2 -26.6 -15.2 -26.7 -15.35 Q-28.25 -16.75 -29.2 -18.65 L-31.1 -19.1 -29.2 -18.65 -27.65 -18.45 M-19.75 -16.05 L-21.1 -18.4 -21.35 -18.1 Q-22.0 -17.3 -22.15 -16.35 L-22.55 -14.5 -22.65 -14.3 -22.95 -14.75 Q-24.2 -16.5 -24.8 -18.35 -24.2 -16.5 -22.95 -14.75 L-22.65 -14.3 -22.55 -14.5 -22.15 -16.35 Q-22.0 -17.3 -21.35 -18.1 L-21.1 -18.4 -19.75 -16.05 M-27.0 -20.35 L-27.5 -20.35 -29.35 -20.45 -30.75 -20.55 -33.15 -20.9 -33.7 -21.05 -33.15 -20.9 -30.75 -20.55 -29.35 -20.45 -27.5 -20.35 -27.0 -20.35 M-34.8 -23.1 Q-33.95 -23.35 -33.1 -23.75 L-31.65 -24.55 -29.8 -25.7 Q-28.75 -26.3 -28.5 -27.35 -28.75 -26.3 -29.8 -25.7 L-31.65 -24.55 -33.1 -23.75 Q-33.95 -23.35 -34.8 -23.1 M-27.25 -37.75 L-28.65 -36.7 -29.65 -36.75 -30.35 -36.8 -32.0 -36.75 -32.25 -36.7 -32.65 -36.4 -32.25 -36.7 -32.0 -36.75 -30.35 -36.8 -29.65 -36.75 -28.65 -36.7 -27.25 -37.75 M-29.35 -30.75 Q-28.9 -30.9 -29.25 -31.35 -29.85 -32.25 -30.55 -31.55 -31.4 -30.6 -30.55 -29.65 L-29.8 -29.25 Q-28.25 -28.85 -27.3 -30.1 L-27.3 -30.15 Q-27.0 -30.55 -26.85 -31.05 -26.65 -31.8 -27.0 -32.45 L-27.15 -32.7 -27.8 -33.25 Q-29.25 -33.95 -30.85 -33.6 L-31.35 -33.5 -32.0 -33.15 -32.55 -32.35 Q-33.25 -30.5 -32.35 -28.8 L-31.65 -27.95 Q-31.1 -27.55 -30.25 -27.6 -31.1 -27.55 -31.65 -27.95 L-32.35 -28.8 Q-33.25 -30.5 -32.55 -32.35 L-32.0 -33.15 -31.35 -33.5 -30.85 -33.6 Q-29.25 -33.95 -27.8 -33.25 L-27.15 -32.7 -27.0 -32.45 Q-26.65 -31.8 -26.85 -31.05 -27.0 -30.55 -27.3 -30.15 L-27.3 -30.1 Q-28.25 -28.85 -29.8 -29.25 L-30.55 -29.65 Q-31.4 -30.6 -30.55 -31.55 -29.85 -32.25 -29.25 -31.35 -28.9 -30.9 -29.35 -30.75 M-23.75 -43.6 L-23.85 -43.2 -24.25 -42.4 -24.85 -42.6 -25.75 -42.8 -24.85 -42.6 -24.25 -42.4 -23.85 -43.2 -23.75 -43.6 M-23.1 -46.2 L-23.5 -44.2 -23.1 -46.2 M-8.2 -7.5 L-8.35 -7.75 -8.4 -7.55 -9.5 -7.7 -11.6 -7.95 -9.5 -7.7 -8.4 -7.55 -8.35 -7.75 -8.2 -7.5 M-6.55 -7.3 L-5.85 -7.2 -3.5 -7.0 -3.4 -7.0 -3.5 -7.0 -5.85 -7.2 -6.55 -7.3 M-10.65 -20.65 L-11.75 -20.8 -13.75 -20.8 -13.0 -20.0 -12.85 -19.85 -12.3 -19.2 -12.05 -19.05 Q-11.3 -19.35 -11.0 -19.95 L-10.65 -20.65 Q-10.15 -22.1 -10.05 -23.65 L-10.0 -24.05 -9.25 -24.15 -8.1 -24.25 -6.35 -24.25 -8.1 -24.25 -9.25 -24.15 -10.0 -24.05 -10.05 -23.65 Q-10.15 -22.1 -10.65 -20.65 L-9.25 -20.55 -6.75 -20.25 -6.6 -20.2 -6.8 -20.1 Q-7.45 -18.35 -8.85 -17.0 L-8.95 -16.9 -8.15 -16.65 -7.4 -16.2 -6.4 -15.4 -7.4 -16.2 -8.15 -16.65 -8.95 -16.9 -8.85 -17.0 Q-7.45 -18.35 -6.8 -20.1 L-6.6 -20.2 -6.75 -20.25 -9.25 -20.55 -10.65 -20.65 -11.0 -19.95 Q-11.3 -19.35 -12.05 -19.05 L-12.3 -19.2 -12.85 -19.85 -13.0 -20.0 -13.75 -20.8 -11.75 -20.8 -10.65 -20.65 M-13.6 -23.6 L-13.95 -21.9 -14.05 -21.25 -13.8 -20.85 -13.75 -20.8 -15.0 -20.6 -13.75 -20.8 -13.8 -20.85 -14.05 -21.25 -13.95 -21.9 -13.6 -23.6 M-14.35 -18.35 L-10.75 -17.4 -8.95 -16.9 -9.95 -15.95 -10.25 -15.45 -10.3 -15.35 -10.6 -14.7 -10.7 -14.55 -10.35 -14.25 -10.0 -14.05 Q-8.7 -13.85 -7.6 -14.55 -6.95 -14.95 -6.4 -15.4 -4.6 -16.95 -3.6 -19.25 L-2.0 -23.15 -1.35 -25.4 -2.0 -23.15 -3.6 -19.25 Q-4.6 -16.95 -6.4 -15.4 -6.95 -14.95 -7.6 -14.55 -8.7 -13.85 -10.0 -14.05 L-10.35 -14.25 -10.7 -14.55 Q-11.45 -13.35 -12.75 -12.5 L-13.4 -12.15 -15.6 -11.0 -13.4 -12.15 -12.75 -12.5 Q-11.45 -13.35 -10.7 -14.55 L-10.6 -14.7 -10.3 -15.35 -10.25 -15.45 -9.95 -15.95 -8.95 -16.9 -10.75 -17.4 -14.35 -18.35 M-6.75 -20.25 L-6.8 -20.1 -6.75 -20.25 M-4.9 -19.95 L-5.5 -20.1 -6.6 -20.2 Q-6.1 -20.65 -5.75 -21.35 L-5.45 -21.65 Q-5.25 -21.75 -5.3 -22.1 -5.5 -23.05 -6.1 -23.75 L-6.35 -24.2 -6.35 -24.25 -6.35 -24.2 -6.1 -23.75 Q-5.5 -23.05 -5.3 -22.1 -5.25 -21.75 -5.45 -21.65 L-5.75 -21.35 Q-6.1 -20.65 -6.6 -20.2 L-5.5 -20.1 -4.9 -19.95" fill="#ffffff" fill-rule="evenodd" stroke="none"/>
    <path d="M-34.85 -23.1 L-34.8 -23.1 -35.05 -27.1 -35.05 -30.0 Q-35.0 -31.95 -34.15 -33.7 L-32.95 -35.95 -32.65 -36.4 -34.3 -37.45 -35.6 -38.5 Q-36.55 -39.25 -37.0 -40.25 L-34.45 -39.55 -33.1 -39.2 Q-32.55 -39.1 -32.4 -39.45 -32.3 -39.7 -32.35 -40.0 L-33.15 -43.25 -33.25 -44.15 Q-33.3 -45.0 -33.0 -45.5 -29.6 -43.75 -25.75 -42.8 L-26.0 -46.5 -26.15 -48.0 Q-26.25 -49.6 -25.65 -50.7 -24.6 -50.75 -24.05 -50.05 L-22.65 -48.25 -22.1 -49.55 -21.0 -48.5 Q-18.7 -46.0 -16.8 -43.2 L-15.65 -42.2 -13.5 -41.3 -13.1 -41.25 -12.75 -41.25 -10.95 -41.1 -10.1 -40.9 -8.85 -40.6 Q-7.8 -42.0 -6.3 -43.05 L-3.05 -44.9 -2.35 -44.9 -0.6 -44.75 -0.8 -41.0 -1.2 -38.5 Q-1.6 -36.9 -2.7 -35.7 L-2.95 -35.25 Q-3.2 -34.55 -3.7 -34.3 L-3.2 -33.55 -1.45 -30.7 -1.1 -29.65 Q-0.9 -27.6 -1.3 -25.6 L-1.35 -25.4 Q-0.95 -25.1 -0.35 -25.05 L3.4 -24.65 7.0 -24.35 10.75 -24.05 11.9 -23.8 12.85 -23.45 16.1 -21.7 16.75 -21.25 Q18.1 -20.3 19.1 -18.95 20.8 -19.25 22.3 -20.35 23.95 -21.55 24.85 -23.35 25.7 -25.05 26.1 -26.9 L26.75 -30.65 Q26.85 -31.75 27.3 -32.7 L27.9 -33.2 28.25 -33.35 Q30.35 -33.9 31.65 -32.15 32.1 -31.45 32.1 -30.5 L31.8 -28.0 30.8 -24.45 29.7 -22.35 27.3 -19.7 25.15 -18.05 Q23.45 -16.95 21.6 -16.25 L20.9 -16.0 20.95 -15.9 Q21.6 -14.65 21.45 -13.15 21.25 -11.3 20.05 -9.85 L19.65 -9.25 Q18.6 -7.65 16.75 -7.05 L14.85 -6.6 Q15.65 -5.2 16.6 -4.1 L17.1 -3.6 18.9 -1.25 Q19.1 -0.9 18.75 -0.7 17.45 -0.05 16.15 -0.4 L15.7 -0.55 Q13.95 -1.4 12.65 -2.65 L12.3 -3.05 12.0 -3.45 11.8 -2.9 11.6 -2.2 Q10.8 -1.15 9.5 -0.25 L8.25 -0.25 7.6 -0.5 8.2 -2.9 Q8.8 -4.65 8.55 -6.4 L8.5 -6.4 5.75 -6.55 1.9 -6.85 -2.0 -7.0 -3.4 -7.0 -2.75 -5.5 -2.45 -4.95 Q-1.75 -4.05 -1.75 -2.9 -1.75 -2.25 -2.05 -1.65 -2.6 -0.5 -3.85 0.1 -4.35 0.35 -5.15 -0.2 -6.0 -1.55 -6.3 -3.15 -6.6 -5.05 -6.55 -7.3 L-7.9 -7.45 -8.2 -7.5 -8.4 -7.55 -8.95 -5.65 -9.4 -4.25 Q-10.0 -2.8 -11.2 -1.7 -12.75 -0.4 -14.75 -0.35 L-15.5 -0.5 Q-16.05 -0.95 -15.5 -1.65 L-13.3 -4.8 Q-12.25 -6.25 -11.6 -7.95 -13.65 -8.15 -14.85 -9.75 L-15.4 -10.65 -15.6 -11.0 -16.7 -10.2 Q-17.8 -9.35 -19.1 -8.9 L-23.0 -8.6 -23.7 -8.85 -26.95 -10.4 Q-28.7 -11.25 -30.1 -12.55 L-30.7 -13.15 -32.9 -16.05 Q-33.35 -16.75 -33.4 -17.5 L-33.5 -18.75 -36.45 -16.45 Q-37.45 -15.35 -38.85 -14.5 M19.1 -18.95 L19.4 -18.5 20.9 -16.0 20.25 -15.9 M12.0 -3.45 Q11.0 -4.85 10.3 -6.45 L9.4 -6.45 8.55 -6.4 M14.85 -6.6 L14.5 -6.55 13.0 -6.5 10.3 -6.45 M14.85 -6.6 L14.8 -6.65 Q14.6 -7.05 14.5 -6.55 M-34.85 -23.1 Q-36.65 -23.85 -38.6 -23.8 L-41.1 -23.8 -44.6 -23.75 -45.6 -23.65 M-6.9 -38.85 L-6.55 -38.4 -5.4 -36.6 -4.6 -35.55 Q-4.25 -37.2 -3.5 -38.85 -3.1 -39.75 -3.45 -40.55 -5.5 -40.2 -7.2 -39.2 L-6.9 -38.85 M-8.85 -40.6 L-8.35 -40.45 Q-7.6 -40.25 -7.35 -39.5 L-7.2 -39.2 M-16.25 -22.75 Q-15.0 -23.35 -13.6 -23.6 L-13.45 -24.85 -13.45 -25.35 -13.45 -25.5 -13.2 -29.25 -13.1 -29.9 -13.0 -31.55 -13.15 -33.15 -13.2 -33.75 -13.2 -33.85 -13.4 -35.2 -13.65 -36.65 -14.0 -36.9 -15.35 -36.8 -16.4 -36.65 -17.85 -36.45 -15.75 -35.5 -15.6 -35.45 -15.45 -35.4 -14.6 -35.05 M-16.75 -26.85 L-17.7 -26.9 Q-19.1 -27.2 -19.9 -28.55 -20.35 -29.25 -20.45 -30.1 -20.7 -31.9 -19.8 -33.3 L-19.6 -33.6 -19.15 -34.05 -19.05 -34.15 -18.1 -34.55 -16.15 -34.6 -14.8 -33.65 -14.65 -33.5 -14.15 -32.75 -14.1 -32.65 -13.85 -31.9 Q-13.65 -31.0 -13.9 -30.0 L-14.0 -29.7 Q-14.3 -29.15 -15.0 -29.0 -16.45 -28.65 -17.55 -29.8 -18.55 -30.85 -17.9 -31.8 L-17.55 -32.2 Q-16.9 -32.85 -16.6 -31.85 M-17.85 -36.45 L-19.1 -36.35 -21.0 -36.25 -22.85 -36.25 -23.35 -36.25 -26.6 -36.55 -28.65 -36.7 -29.9 -35.95 -30.05 -35.9 -31.5 -35.2 -32.0 -35.0 M-4.6 -35.55 L-3.75 -34.4 -3.7 -34.3 M-13.6 -23.6 L-12.75 -23.75 -10.0 -24.05 -9.9 -24.9 Q-9.7 -26.65 -9.75 -28.5 -8.65 -26.7 -7.35 -25.5 -6.6 -24.85 -6.35 -24.25 L-5.65 -24.15 M-21.0 -38.25 L-20.2 -37.75 -17.85 -36.45 M-24.0 -44.35 L-23.75 -43.6 -23.5 -44.2 -23.1 -46.2 -23.1 -46.25 -22.65 -48.25 M-24.0 -44.35 L-24.45 -46.3 -23.1 -46.2 M-25.75 -42.8 L-24.85 -42.6 -24.25 -42.4 -23.85 -43.2 -23.75 -43.6 M-30.25 -27.6 Q-31.1 -27.55 -31.65 -27.95 L-32.35 -28.8 Q-33.25 -30.5 -32.55 -32.35 L-32.0 -33.15 -31.35 -33.5 -30.85 -33.6 Q-29.25 -33.95 -27.8 -33.25 L-27.15 -32.7 -27.0 -32.45 Q-26.65 -31.8 -26.85 -31.05 -27.0 -30.55 -27.3 -30.15 L-27.3 -30.1 Q-28.25 -28.85 -29.8 -29.25 L-30.55 -29.65 Q-31.4 -30.6 -30.55 -31.55 -29.85 -32.25 -29.25 -31.35 -28.9 -30.9 -29.35 -30.75 M-32.65 -36.4 L-32.25 -36.7 -32.0 -36.75 -30.35 -36.8 -29.65 -36.75 -28.65 -36.7 -27.25 -37.75 M-28.5 -27.35 Q-28.75 -26.3 -29.8 -25.7 L-31.65 -24.55 -33.1 -23.75 Q-33.95 -23.35 -34.8 -23.1 M-33.7 -21.05 L-33.15 -20.9 -30.75 -20.55 -29.35 -20.45 -27.5 -20.35 -27.0 -20.35 M-27.5 -17.5 Q-27.4 -16.3 -26.7 -15.35 L-26.55 -15.2 Q-26.05 -15.7 -25.8 -16.55 L-25.75 -16.7 -25.3 -17.75 -24.8 -18.35 -25.0 -18.35 -26.45 -18.4 -27.35 -18.45 -27.65 -18.45 -27.5 -17.5 M-24.8 -18.35 L-21.1 -18.4 -20.25 -18.5 -17.6 -18.95 Q-17.4 -18.95 -17.25 -19.1 -17.1 -18.9 -17.6 -18.35 L-19.65 -16.15 -19.75 -16.05 -20.45 -15.45 Q-21.3 -14.7 -22.3 -14.4 L-22.65 -14.3 -24.1 -14.15 -25.45 -14.45 Q-25.85 -14.6 -26.2 -14.9 L-26.55 -15.2 -26.6 -15.2 -26.7 -15.35 Q-28.25 -16.75 -29.2 -18.65 L-31.1 -19.1 M-24.8 -18.35 Q-24.2 -16.5 -22.95 -14.75 L-22.65 -14.3 -22.55 -14.5 -22.15 -16.35 Q-22.0 -17.3 -21.35 -18.1 L-21.1 -18.4 -19.75 -16.05 M-29.2 -18.65 L-27.65 -18.45 M-34.05 -21.15 Q-35.35 -21.65 -36.5 -22.5 L-35.1 -23.05 -34.85 -23.1 M-33.7 -21.05 L-34.05 -21.15 -38.0 -20.75 Q-39.65 -20.35 -41.0 -19.5 M-33.5 -18.75 L-33.75 -20.75 M-1.35 -25.4 L-2.0 -23.15 -3.6 -19.25 Q-4.6 -16.95 -6.4 -15.4 -6.95 -14.95 -7.6 -14.55 -8.7 -13.85 -10.0 -14.05 L-10.35 -14.25 -10.7 -14.55 Q-11.45 -13.35 -12.75 -12.5 L-13.4 -12.15 -15.6 -11.0 M-6.35 -24.25 L-6.35 -24.2 -6.1 -23.75 Q-5.5 -23.05 -5.3 -22.1 -5.25 -21.75 -5.45 -21.65 L-5.75 -21.35 Q-6.1 -20.65 -6.6 -20.2 L-5.5 -20.1 -4.9 -19.95 M-10.0 -24.05 L-9.25 -24.15 -8.1 -24.25 -6.35 -24.25 M-10.0 -24.05 L-10.05 -23.65 Q-10.15 -22.1 -10.65 -20.65 L-9.25 -20.55 -6.75 -20.25 -6.6 -20.2 -6.8 -20.1 Q-7.45 -18.35 -8.85 -17.0 L-8.95 -16.9 -8.15 -16.65 -7.4 -16.2 -6.4 -15.4 M-6.8 -20.1 L-6.75 -20.25 M-10.7 -14.55 L-10.6 -14.7 -10.3 -15.35 -10.25 -15.45 -9.95 -15.95 -8.95 -16.9 -10.75 -17.4 -14.35 -18.35 M-15.0 -20.6 L-13.75 -20.8 -13.8 -20.85 -14.05 -21.25 -13.95 -21.9 -13.6 -23.6 M-10.65 -20.65 L-11.0 -19.95 Q-11.3 -19.35 -12.05 -19.05 L-12.3 -19.2 -12.85 -19.85 -13.0 -20.0 -13.75 -20.8 -11.75 -20.8 -10.65 -20.65 M-3.4 -7.0 L-3.5 -7.0 -5.85 -7.2 -6.55 -7.3 M-11.6 -7.95 L-9.5 -7.7 -8.4 -7.55 -8.35 -7.75 -8.2 -7.5" fill="none" stroke="#000000" stroke-linecap="round" stroke-linejoin="round" stroke-width="0.05"/>
  </g>
</svg>
