<svg xmlns:xlink="http://www.w3.org/1999/xlink" height="65.1px" width="42.2px" xmlns="http://www.w3.org/2000/svg">
  <g transform="matrix(1.0, 0.0, 0.0, 1.0, 20.15, 64.85)">
    <path d="M-16.35 -47.2 L-15.8 -47.75 Q-18.35 -50.1 -18.35 -53.1 -18.35 -56.1 -15.8 -58.5 L-16.4 -59.1 Q-11.4 -62.95 -6.8 -64.25 L0.55 -64.8 Q5.4 -64.65 7.5 -63.75 12.8 -61.4 15.3 -59.0 L14.8 -58.5 Q17.3 -56.1 17.3 -53.1 17.3 -50.1 14.8 -47.75 L15.4 -47.15 14.95 -46.65 14.75 -46.3 15.1 -45.95 16.6 -45.1 16.9 -44.9 16.9 -44.25 16.85 -44.25 16.85 -30.35 16.9 -30.35 16.9 -30.0 16.8 -29.85 16.8 -28.25 15.9 -28.25 15.9 -14.35 17.0 -14.35 17.05 -14.1 17.3 -12.7 17.5 -11.4 17.55 -11.0 17.6 -9.75 16.65 -9.75 16.65 -3.5 Q16.65 -2.4 16.1 -1.85 15.6 -1.35 14.65 -1.35 13.8 -1.35 13.15 -1.9 12.5 -2.45 12.5 -4.2 L11.35 -4.2 11.25 -4.55 11.05 -4.95 10.9 -5.2 10.7 -5.6 9.7 -7.2 9.2 -7.75 9.85 -8.1 Q8.55 -9.45 7.25 -10.2 5.65 -11.15 3.7 -11.15 1.9 -11.15 0.15 -10.2 -1.4 -9.4 -2.4 -8.1 L-2.7 -8.0 -4.25 -7.05 -4.5 -6.9 -6.2 -6.0 Q-7.1 -5.6 -7.7 -4.85 L-8.15 -4.15 -8.15 -4.25 -9.35 -4.8 Q-9.55 -3.0 -10.15 -2.1 -10.8 -1.05 -12.0 -1.0 -13.55 -0.95 -14.05 -1.45 -14.55 -2.0 -14.55 -3.35 L-14.55 -10.9 -15.65 -10.9 -15.7 -12.5 -15.65 -12.75 Q-15.65 -13.65 -15.3 -14.35 L-14.2 -14.35 -14.2 -28.25 -15.15 -28.25 -15.25 -29.7 -15.3 -29.9 -15.5 -30.1 -15.9 -30.3 -17.4 -31.15 -16.8 -31.75 Q-19.35 -34.1 -19.35 -37.1 -19.35 -40.1 -16.8 -42.5 L-17.3 -43.0 -16.25 -44.25 -16.1 -44.3 -15.45 -44.75 -15.05 -45.2 -14.85 -45.4 Q-14.6 -45.6 -14.75 -45.95 L-14.85 -46.15 -15.55 -46.7 -16.35 -47.2 M-6.1 -63.55 L-6.1 -62.9 -1.9 -62.9 -1.9 -63.55 -6.1 -63.55 M1.4 -55.7 L0.15 -57.95 -0.9 -57.35 4.15 -48.2 9.2 -57.35 8.15 -57.95 6.9 -55.7 1.4 -55.7 M6.35 -54.55 L4.15 -50.65 1.95 -54.55 6.35 -54.55 M-5.35 -58.7 L-5.1 -59.3 -4.5 -59.5 -3.9 -59.3 -3.7 -58.7 -3.9 -58.1 Q-4.15 -57.85 -4.5 -57.85 L-5.1 -58.1 -5.35 -58.7 M-3.65 -59.55 Q-4.0 -59.95 -4.5 -59.95 -5.0 -59.95 -5.4 -59.55 L-5.75 -58.7 Q-5.75 -58.2 -5.4 -57.8 -5.0 -57.45 -4.5 -57.45 -4.0 -57.45 -3.65 -57.8 -3.25 -58.2 -3.25 -58.7 -3.25 -59.2 -3.65 -59.55 M13.6 -57.8 Q14.0 -58.2 14.0 -58.7 14.0 -59.2 13.6 -59.55 13.25 -59.95 12.75 -59.95 12.25 -59.95 11.85 -59.55 11.5 -59.2 11.5 -58.7 11.5 -58.2 11.85 -57.8 12.25 -57.45 12.75 -57.45 13.25 -57.45 13.6 -57.8 M12.75 -57.85 Q12.35 -57.85 12.15 -58.1 11.9 -58.3 11.9 -58.7 11.9 -59.1 12.15 -59.3 L12.75 -59.5 13.35 -59.3 13.55 -58.7 13.35 -58.1 Q13.1 -57.85 12.75 -57.85" fill="#ffffff" fill-rule="evenodd" stroke="none"/>
    <path d="M-6.1 -63.55 L-1.9 -63.55 -1.9 -62.9 -6.1 -62.9 -6.1 -63.55 M-16.4 -59.1 L-15.8 -58.5 Q-18.35 -56.1 -18.35 -53.1 -18.35 -50.1 -15.8 -47.75 L-16.35 -47.2 -16.4 -47.15 -16.5 -47.25 Q-19.15 -49.8 -19.15 -53.1 -19.15 -56.5 -16.4 -59.1 M-17.3 -43.0 L-16.8 -42.5 Q-19.35 -40.1 -19.35 -37.1 -19.35 -34.1 -16.8 -31.75 L-17.4 -31.15 Q-20.15 -33.75 -20.15 -37.1 -20.15 -40.5 -17.4 -43.1 L-17.3 -43.0 M-15.15 -28.25 L-14.2 -28.25 -14.2 -14.35 -15.3 -14.35 -15.3 -28.25 -15.15 -28.25 M-15.65 -10.9 L-14.55 -10.9 -14.55 -3.35 Q-14.55 -2.0 -14.05 -1.45 -13.55 -0.95 -12.0 -1.0 -10.8 -1.05 -10.15 -2.1 -9.55 -3.0 -9.35 -4.8 L-8.15 -4.25 -8.15 -4.15 Q-8.9 0.25 -12.45 0.25 -14.2 0.3 -14.9 -0.6 -15.55 -1.4 -15.65 -3.35 L-15.65 -10.9 M-2.4 -8.1 Q-1.4 -9.4 0.15 -10.2 1.9 -11.15 3.7 -11.15 5.65 -11.15 7.25 -10.2 8.55 -9.45 9.85 -8.1 L9.2 -7.75 Q7.65 -9.15 6.55 -9.7 L3.7 -10.35 Q2.05 -10.35 0.65 -9.7 L-1.9 -7.75 -2.4 -8.1 M11.35 -4.2 L12.5 -4.2 Q12.5 -2.45 13.15 -1.9 13.8 -1.35 14.65 -1.35 15.6 -1.35 16.1 -1.85 16.65 -2.4 16.65 -3.5 L16.65 -9.75 17.6 -9.75 17.9 -9.75 17.9 -3.5 Q17.9 -1.9 17.15 -1.1 16.2 -0.2 14.65 -0.2 13.1 -0.2 12.25 -1.05 11.25 -2.05 11.25 -4.2 L11.35 -4.2 M17.0 -14.35 L15.9 -14.35 15.9 -28.25 16.8 -28.25 16.9 -28.25 16.9 -28.2 17.0 -28.2 17.0 -14.35 M15.4 -47.15 L14.8 -47.75 Q17.3 -50.1 17.3 -53.1 17.3 -56.1 14.8 -58.5 L15.3 -59.0 15.4 -59.1 Q18.1 -56.5 18.1 -53.1 18.1 -49.85 15.55 -47.3 L15.4 -47.15 M-3.65 -59.55 Q-3.25 -59.2 -3.25 -58.7 -3.25 -58.2 -3.65 -57.8 -4.0 -57.45 -4.5 -57.45 -5.0 -57.45 -5.4 -57.8 -5.75 -58.2 -5.75 -58.7 L-5.4 -59.55 Q-5.0 -59.95 -4.5 -59.95 -4.0 -59.95 -3.65 -59.55 M-5.35 -58.7 L-5.1 -58.1 -4.5 -57.85 Q-4.15 -57.85 -3.9 -58.1 L-3.7 -58.7 -3.9 -59.3 -4.5 -59.5 -5.1 -59.3 -5.35 -58.7 M6.35 -54.55 L1.95 -54.55 4.15 -50.65 6.35 -54.55 M1.4 -55.7 L6.9 -55.7 8.15 -57.95 9.2 -57.35 4.15 -48.2 -0.9 -57.35 0.15 -57.95 1.4 -55.7 M12.75 -57.85 Q13.1 -57.85 13.35 -58.1 L13.55 -58.7 13.35 -59.3 12.75 -59.5 12.15 -59.3 Q11.9 -59.1 11.9 -58.7 11.9 -58.3 12.15 -58.1 12.35 -57.85 12.75 -57.85 M13.6 -57.8 Q13.25 -57.45 12.75 -57.45 12.25 -57.45 11.85 -57.8 11.5 -58.2 11.5 -58.7 11.5 -59.2 11.85 -59.55 12.25 -59.95 12.75 -59.95 13.25 -59.95 13.6 -59.55 14.0 -59.2 14.0 -58.7 14.0 -58.2 13.6 -57.8" fill="#000000" fill-rule="evenodd" stroke="none"/>
    <path d="M19.3 -31.15 L18.75 -31.7 Q21.25 -34.05 21.25 -37.05 21.25 -40.05 18.75 -42.45 L19.35 -43.05 Q22.05 -40.45 22.05 -37.05 22.05 -33.85 19.55 -31.3 L19.35 -31.1 19.3 -31.15 M17.25 -44.2 L17.25 -30.3 16.15 -30.3 16.15 -44.2 17.25 -44.2" fill="#000000" fill-rule="evenodd" stroke="none"/>
    <path d="M19.35 -43.05 L18.75 -42.45 Q21.25 -40.05 21.25 -37.05 21.25 -34.05 18.75 -31.7 L19.3 -31.15 19.1 -31.05 Q18.4 -30.65 17.5 -30.35 L17.25 -30.3 17.25 -44.2 17.35 -44.25 Q18.6 -43.85 19.35 -43.05" fill="#ffffff" fill-rule="evenodd" stroke="none"/>
  </g>
</svg>
