<svg width="100%" height="100%" viewBox="0 0 220 220" version="1.1" xmlns="http://www.w3.org/2000/svg" xmlns:xlink="http://www.w3.org/1999/xlink" xml:space="preserve" xmlns:serif="http://www.serif.com/" style="fill-rule:evenodd;clip-rule:evenodd;stroke-linejoin:round;stroke-miterlimit:2;">
    <g transform="matrix(1,0,0,1,-0.205709,-1.60582)">
        <path d="M106,218.551L74.242,218.551C72.426,219.225 70.068,218.107 68.5,216.551C63.375,209.551 63.348,202.551 68.2,195.551C70.141,192.571 71.881,189.757 71.5,187.551L71.5,162.551L68.5,159.551C63.375,152.551 64.081,145.551 68.933,138.551C69.732,137.255 70.118,136.055 70.139,134.938C70.161,133.712 69.739,132.587 68.933,131.551C63.808,124.551 63.348,117.993 68.2,110.993C69.114,107.963 70.069,105.115 72.516,98.406L80.5,81.551L89.75,100.551C91.173,102.768 92.583,103.807 94.5,103.551L119.5,103.551C121.419,103.632 124.077,103.195 125.5,100.551L134.5,81.551L143.5,100.551L147.758,110.551C152.61,117.551 152.525,124.551 147.4,131.551C145.724,134.142 145.862,136.454 147.4,138.551C152.252,145.551 153.253,153.147 147.4,159.551C145.208,161.95 141.317,164.195 142.5,162.067L142.5,187.551C142.456,188.463 148.202,190.747 151.814,195.551C156.932,202.359 157.23,208.688 152.105,215.688C150.665,217.655 148.433,218.245 146.5,218.551L121.5,218.551C115.484,216.182 113.998,213.512 113.785,210.756C113.497,215.165 109.485,218 106,218.551Z" style="fill:white;"/>
    </g>
    <g transform="matrix(1,0,0,1,-0.205709,-1.60582)">
        <g transform="matrix(1,0,0,1,-8.5,49.551)">
            <path d="M81.322,51.626L89,35.416C89,35.416 96.678,51.626 96.678,51.626C97.024,52.356 97.897,52.667 98.626,52.322C99.356,51.976 99.667,51.103 99.322,50.374L90.322,31.374C90.08,30.863 89.565,30.538 89,30.538C88.435,30.538 87.92,30.863 87.678,31.374L78.678,50.374C78.333,51.103 78.644,51.976 79.374,52.322C80.103,52.667 80.976,52.356 81.322,51.626Z"/>
        </g>
        <g transform="matrix(1,0,0,1,-8.5,49.551)">
            <path d="M135.322,51.626L143,35.416C143,35.416 150.678,51.626 150.678,51.626C151.024,52.356 151.897,52.667 152.626,52.322C153.356,51.976 153.667,51.103 153.322,50.374L144.322,31.374C144.08,30.863 143.565,30.538 143,30.538C142.435,30.538 141.92,30.863 141.678,31.374L132.678,50.374C132.333,51.103 132.644,51.976 133.374,52.322C134.103,52.667 134.976,52.356 135.322,51.626Z"/>
        </g>
        <g transform="matrix(1,0,0,1,-8.5,49.551)">
            <path d="M75.798,60.167C70.553,67.733 70.28,75.298 75.82,82.864C76.297,83.515 77.213,83.657 77.864,83.18C78.515,82.703 78.657,81.787 78.18,81.136C73.469,74.702 73.742,68.267 78.202,61.833C78.662,61.17 78.497,60.258 77.833,59.798C77.17,59.338 76.258,59.503 75.798,60.167Z"/>
        </g>
        <g transform="matrix(1,0,0,1,-8.5,77.551)">
            <path d="M75.798,60.167C70.553,67.733 70.28,75.298 75.82,82.864C76.297,83.515 77.213,83.657 77.864,83.18C78.515,82.703 78.657,81.787 78.18,81.136C73.469,74.702 73.742,68.267 78.202,61.833C78.662,61.17 78.497,60.258 77.833,59.798C77.17,59.338 76.258,59.503 75.798,60.167Z"/>
        </g>
        <g transform="matrix(1,0,0,1,-8.5,134.551)">
            <path d="M75.798,60.167C70.553,67.733 70.28,75.298 75.82,82.864C76.297,83.515 77.213,83.657 77.864,83.18C78.515,82.703 78.657,81.787 78.18,81.136C73.469,74.702 73.742,68.267 78.202,61.833C78.662,61.17 78.497,60.258 77.833,59.798C77.17,59.338 76.258,59.503 75.798,60.167Z"/>
        </g>
        <g transform="matrix(-1,0,0,1,224.758,49.551)">
            <path d="M78.202,61.833C73.742,68.267 73.469,74.702 78.18,81.136C78.657,81.787 78.515,82.703 77.864,83.18C77.213,83.657 76.297,83.515 75.82,82.864C70.28,75.298 70.553,67.733 75.798,60.167C76.258,59.503 77.17,59.338 77.833,59.798C78.497,60.258 78.662,61.17 78.202,61.833Z"/>
        </g>
        <g transform="matrix(-1,0,0,1,224.758,77.551)">
            <path d="M78.202,61.833C73.742,68.267 73.469,74.702 78.18,81.136C78.657,81.787 78.515,82.703 77.864,83.18C77.213,83.657 76.297,83.515 75.82,82.864C70.28,75.298 70.553,67.733 75.798,60.167C76.258,59.503 77.17,59.338 77.833,59.798C78.497,60.258 78.662,61.17 78.202,61.833Z"/>
        </g>
        <g transform="matrix(-1,0,0,1,187.758,134.551)">
            <path d="M78.202,61.833C73.742,68.267 73.469,74.702 78.18,81.136C78.657,81.787 78.515,82.703 77.864,83.18C77.213,83.657 76.297,83.515 75.82,82.864C70.28,75.298 70.553,67.733 75.798,60.167C76.258,59.503 77.17,59.338 77.833,59.798C78.497,60.258 78.662,61.17 78.202,61.833Z"/>
        </g>
        <g transform="matrix(-1,0,0,1,228.5,134.551)">
            <path d="M78.202,61.833C73.742,68.267 73.469,74.702 78.18,81.136C78.657,81.787 78.515,82.703 77.864,83.18C77.213,83.657 76.297,83.515 75.82,82.864C70.28,75.298 70.553,67.733 75.798,60.167C76.258,59.503 77.17,59.338 77.833,59.798C78.497,60.258 78.662,61.17 78.202,61.833Z"/>
        </g>
        <g transform="matrix(1,0,0,1,-8.5,48.551)">
            <path d="M103,56.462L128,56.462C128.807,56.462 129.462,55.807 129.462,55C129.462,54.193 128.807,53.538 128,53.538L103,53.538C102.193,53.538 101.538,54.193 101.538,55C101.538,55.807 102.193,56.462 103,56.462Z"/>
        </g>
        <g transform="matrix(1,0,0,1,18.5,163.551)">
            <path d="M103,56.462L128,56.462C128.807,56.462 129.462,55.807 129.462,55C129.462,54.193 128.807,53.538 128,53.538L103,53.538C102.193,53.538 101.538,54.193 101.538,55C101.538,55.807 102.193,56.462 103,56.462Z"/>
        </g>
        <g transform="matrix(1,0,0,1,-8.5,49.551)">
            <path d="M78.538,113L78.538,138C78.538,138.807 79.193,139.462 80,139.462C80.807,139.462 81.462,138.807 81.462,138L81.462,113C81.462,112.193 80.807,111.538 80,111.538C79.193,111.538 78.538,112.193 78.538,113Z"/>
        </g>
        <g transform="matrix(1,0,0,1,27,49.551)">
            <path d="M78.538,113L78.538,138C78.538,138.807 79.193,139.462 80,139.462C80.807,139.462 81.462,138.807 81.462,138L81.462,113C81.462,112.193 80.807,111.538 80,111.538C79.193,111.538 78.538,112.193 78.538,113Z"/>
        </g>
        <g transform="matrix(1,0,0,1,62.5,49.551)">
            <path d="M78.538,113L78.538,138C78.538,138.807 79.193,139.462 80,139.462C80.807,139.462 81.462,138.807 81.462,138L81.462,113C81.462,112.193 80.807,111.538 80,111.538C79.193,111.538 78.538,112.193 78.538,113Z"/>
        </g>
        <g transform="matrix(1.22642,0,0,1,-35.6509,49.551)">
            <path d="M115.5,167.538L89,167.538C88.342,167.538 87.808,168.193 87.808,169C87.808,169.807 88.342,170.462 89,170.462L115.5,170.462C116.158,170.462 116.692,169.807 116.692,169C116.692,168.193 116.158,167.538 115.5,167.538Z"/>
        </g>
        <g transform="matrix(1,0,0,0.8,-9.5,62.551)">
            <path d="M141.966,61.293L145.966,66.293C146.537,67.006 147.463,67.006 148.034,66.293C148.605,65.579 148.605,64.421 148.034,63.707L144.034,58.707C143.463,57.994 142.537,57.994 141.966,58.707C141.395,59.421 141.395,60.579 141.966,61.293Z"/>
        </g>
        <g transform="matrix(-1,0,0,0.8,241.5,62.551)">
            <path d="M144.034,58.707L148.034,63.707C148.605,64.421 148.605,65.579 148.034,66.293C147.463,67.006 146.537,67.006 145.966,66.293L141.966,61.293C141.395,60.579 141.395,59.421 141.966,58.707C142.537,57.994 143.463,57.994 144.034,58.707Z"/>
        </g>
        <g transform="matrix(1,0,0,1,0.205709,1.60582)">
            <path d="M121.095,115.008L111.418,115.008L109.565,111.301C109.204,110.579 108.325,110.286 107.603,110.647C106.881,111.008 106.588,111.887 106.949,112.609L109.197,117.106C109.203,117.117 109.208,117.128 109.214,117.139L114.949,128.609C115.02,128.751 115.111,128.877 115.217,128.984L115.228,128.995C115.335,129.101 115.461,129.192 115.603,129.263C115.813,129.368 116.037,129.418 116.257,129.417C116.477,129.418 116.701,129.368 116.911,129.263C117.053,129.192 117.179,129.101 117.286,128.995L117.297,128.984C117.403,128.877 117.494,128.751 117.565,128.609L123.3,117.139C123.305,117.128 123.311,117.117 123.316,117.106L125.565,112.609C125.926,111.887 125.633,111.008 124.911,110.647C124.189,110.286 123.31,110.579 122.949,111.301L121.095,115.008ZM112.881,117.933L116.257,124.685L119.633,117.933L112.881,117.933Z"/>
        </g>
    </g>
</svg>
