<svg xmlns:xlink="http://www.w3.org/1999/xlink" height="51.95px" width="21.5px" xmlns="http://www.w3.org/2000/svg">
  <g transform="matrix(1.0, 0.0, 0.0, 1.0, 10.0, 51.05)">
    <path d="M-1.75 -28.95 L-1.9 -29.5 Q-3.3 -29.65 -4.2 -30.6 -6.2 -32.6 -6.2 -36.45 L-5.25 -36.45 Q-5.25 -32.85 -3.55 -31.2 -2.85 -30.45 -2.05 -30.35 L-4.35 -39.4 -3.4 -39.4 -1.15 -30.35 Q-0.65 -30.4 -0.25 -30.85 0.1 -31.2 0.1 -31.85 0.1 -32.85 -0.35 -33.9 L-1.0 -35.8 -0.8 -36.4 -0.1 -36.65 Q0.65 -36.65 1.85 -35.35 L1.15 -34.8 0.2 -35.7 0.05 -35.65 -0.05 -35.5 0.65 -33.75 Q1.0 -32.9 1.0 -31.8 1.0 -30.9 0.4 -30.25 -0.25 -29.65 -1.0 -29.55 L-0.8 -28.95 -0.85 -28.95 -0.9 -28.85 -0.85 -28.8 -0.75 -28.8 -0.55 -27.9 -1.45 -27.9 -1.7 -28.8 -1.65 -28.8 -1.65 -28.85 -1.65 -28.95 -1.7 -28.95 -1.75 -28.95 M4.2 -28.85 L7.9 -28.85 7.9 -28.35 7.85 -28.35 7.8 -28.3 7.8 -28.25 4.1 -28.25 4.1 -28.8 4.15 -28.8 4.2 -28.85 M6.85 -24.6 Q5.65 -23.5 5.15 -22.5 4.6 -21.35 4.6 -19.75 4.6 -18.4 5.15 -17.2 5.65 -16.15 6.85 -14.8 L6.8 -14.75 6.8 -14.7 6.85 -14.7 6.35 -14.2 Q5.1 -15.6 4.55 -16.8 3.85 -18.2 3.85 -19.75 3.85 -21.5 4.55 -22.85 5.05 -23.95 6.35 -25.15 L6.8 -24.75 6.8 -24.7 6.8 -24.65 6.85 -24.6 M9.05 -10.8 Q10.3 -9.65 10.85 -8.55 11.5 -7.2 11.5 -5.45 11.5 -3.9 10.85 -2.5 10.25 -1.3 9.05 0.05 L9.05 0.0 8.95 0.0 8.9 0.05 8.45 -0.45 Q9.7 -1.8 10.2 -2.9 10.75 -4.1 10.75 -5.45 10.75 -7.05 10.2 -8.2 L8.45 -10.35 8.95 -10.8 9.0 -10.75 9.05 -10.8 M7.35 0.8 L-5.2 0.8 -5.2 0.75 -5.25 0.7 -5.3 0.7 -5.3 0.25 7.4 0.25 7.4 0.7 7.35 0.75 7.35 0.8 M-6.95 0.05 L-8.7 -2.5 Q-9.4 -3.9 -9.4 -5.45 -9.4 -7.2 -8.7 -8.55 -8.2 -9.65 -6.95 -10.8 L-6.9 -10.8 -6.85 -10.75 -6.8 -10.8 -6.35 -10.35 Q-7.6 -9.2 -8.05 -8.2 -8.65 -7.05 -8.65 -5.45 -8.65 -4.1 -8.05 -2.9 -7.6 -1.8 -6.35 -0.45 L-6.8 0.05 -6.85 0.0 -6.9 0.0 -6.95 0.05 M-3.75 -14.8 Q-2.55 -16.15 -2.05 -17.2 -1.5 -18.4 -1.5 -19.75 -1.5 -21.35 -2.05 -22.5 L-3.7 -24.6 -3.7 -24.65 -3.7 -24.7 -3.7 -24.75 -3.25 -25.15 Q-1.95 -23.95 -1.4 -22.85 -0.75 -21.5 -0.75 -19.75 -0.75 -18.2 -1.4 -16.8 -2.0 -15.6 -3.25 -14.2 L-3.75 -14.65 -3.7 -14.7 -3.7 -14.75 -3.75 -14.8 M-9.55 -50.85 L-9.15 -50.85 -8.5 -50.65 Q-8.95 -49.45 -8.95 -47.9 -9.0 -46.0 -8.2 -45.2 -7.75 -44.75 -7.1 -44.75 -6.5 -44.75 -6.15 -45.05 -5.8 -45.4 -5.8 -45.95 L-6.25 -46.85 -6.5 -48.35 Q-6.5 -49.35 -6.1 -49.35 -5.75 -49.35 -5.4 -48.65 -5.0 -47.9 -4.95 -47.3 L-4.95 -46.1 -4.3 -45.15 Q-3.9 -44.7 -3.2 -44.7 -2.75 -44.7 -2.45 -45.0 -2.15 -45.3 -2.15 -46.3 -2.15 -48.25 -4.1 -50.45 L-3.45 -50.85 -3.25 -50.85 -3.2 -50.85 Q-1.25 -48.55 -1.25 -46.3 -1.25 -44.95 -1.8 -44.4 -2.4 -43.85 -3.2 -43.85 -4.1 -43.85 -4.7 -44.45 L-5.2 -45.05 -5.7 -44.3 Q-6.2 -43.85 -7.15 -43.85 -8.25 -43.85 -8.95 -44.55 -10.05 -45.65 -10.0 -47.9 -10.05 -49.45 -9.55 -50.85" fill="#000000" fill-rule="evenodd" stroke="none"/>
    <path d="M-1.75 -28.95 L-1.7 -28.95 -1.65 -28.95 -1.65 -28.85 -1.65 -28.8 -1.7 -28.8 -1.45 -27.9 -0.55 -27.9 -0.75 -28.8 -0.85 -28.8 -0.9 -28.85 -0.85 -28.95 -0.8 -28.95 4.1 -28.95 4.15 -28.95 4.2 -28.85 4.15 -28.8 4.1 -28.8 4.1 -28.25 7.8 -28.25 7.8 -28.3 7.85 -28.35 7.9 -28.35 7.95 -28.35 8.0 -28.3 8.0 -28.25 7.0 -24.65 6.95 -24.6 6.9 -24.6 6.85 -24.6 6.8 -24.65 6.8 -24.7 6.8 -24.75 6.9 -25.0 6.35 -25.15 Q5.05 -23.95 4.55 -22.85 3.85 -21.5 3.85 -19.75 3.85 -18.2 4.55 -16.8 5.1 -15.6 6.35 -14.2 L6.95 -14.5 6.85 -14.7 6.8 -14.7 6.8 -14.75 6.85 -14.8 6.9 -14.85 6.95 -14.8 9.05 -10.9 9.1 -10.85 9.05 -10.8 9.0 -10.75 8.95 -10.8 8.45 -10.35 10.2 -8.2 Q10.75 -7.05 10.75 -5.45 10.75 -4.1 10.2 -2.9 9.7 -1.8 8.45 -0.45 L8.9 0.05 8.95 0.0 9.05 0.0 9.05 0.05 9.1 0.1 9.1 0.15 9.05 0.2 7.45 0.9 7.4 0.9 7.35 0.85 7.35 0.8 7.35 0.75 7.4 0.7 7.55 0.6 7.4 0.25 -5.3 0.25 -5.45 0.6 -5.3 0.7 -5.25 0.7 -5.2 0.75 -5.2 0.8 -5.2 0.85 -5.25 0.9 -5.35 0.9 -6.9 0.2 -6.95 0.15 -6.95 0.1 -6.95 0.05 -6.9 0.0 -6.85 0.0 -6.8 0.05 -6.35 -0.45 Q-7.6 -1.8 -8.05 -2.9 -8.65 -4.1 -8.65 -5.45 -8.65 -7.05 -8.05 -8.2 -7.6 -9.2 -6.35 -10.35 L-6.8 -10.8 -6.85 -10.75 -6.9 -10.8 -6.95 -10.8 -6.95 -10.85 -6.95 -10.9 -3.85 -14.8 -3.8 -14.85 -3.75 -14.8 -3.7 -14.75 -3.7 -14.7 -3.75 -14.65 -3.25 -14.2 Q-2.0 -15.6 -1.4 -16.8 -0.75 -18.2 -0.75 -19.75 -0.75 -21.5 -1.4 -22.85 -1.95 -23.95 -3.25 -25.15 L-3.8 -24.9 -3.7 -24.75 -3.7 -24.7 -3.7 -24.65 -3.7 -24.6 -3.75 -24.6 -3.85 -24.6 -3.9 -24.65 -5.85 -28.85 -5.85 -28.9 -5.85 -28.95 -5.8 -28.95 -1.75 -28.95 M-9.15 -50.85 L-9.55 -50.85 -9.6 -50.9 -9.55 -51.0 -9.5 -51.0 -3.25 -51.0 -3.2 -51.0 -3.15 -50.9 -3.2 -50.85 -3.25 -50.85 -3.45 -50.85 -4.1 -50.85 -4.1 -50.45 Q-2.15 -48.25 -2.15 -46.3 -2.15 -45.3 -2.45 -45.0 -2.75 -44.7 -3.2 -44.7 -3.9 -44.7 -4.3 -45.15 L-4.95 -46.1 -4.95 -47.3 Q-5.0 -47.9 -5.4 -48.65 -5.75 -49.35 -6.1 -49.35 -6.5 -49.35 -6.5 -48.35 L-6.25 -46.85 -5.8 -45.95 Q-5.8 -45.4 -6.15 -45.05 -6.5 -44.75 -7.1 -44.75 -7.75 -44.75 -8.2 -45.2 -9.0 -46.0 -8.95 -47.9 -8.95 -49.45 -8.5 -50.65 L-8.5 -50.85 -9.15 -50.85" fill="#ffffff" fill-rule="evenodd" stroke="none"/>
  </g>
</svg>
