<?xml version="1.0" encoding="UTF-8" standalone="no"?>
<svg xmlns:xlink="http://www.w3.org/1999/xlink" height="77.0px" width="95.4px" xmlns="http://www.w3.org/2000/svg">
  <g transform="matrix(1.0, 0.0, 0.0, 1.0, 50.0, 76.0)">
    <path d="M41.1 -75.25 L43.1 -75.7 42.6 -75.2 Q44.45 -73.45 44.7 -71.25 L44.7 -70.65 Q44.7 -68.1 42.6 -66.1 L43.1 -65.55 42.1 -61.35 41.6 -61.95 31.45 -53.5 31.55 -53.4 31.95 -52.95 31.95 -52.9 31.75 -52.75 31.6 -52.6 31.3 -52.6 24.8 -49.4 23.7 -44.6 23.7 -44.55 23.65 -44.35 23.6 -44.25 23.6 -44.2 23.55 -44.15 23.5 -44.05 23.5 -44.0 21.95 -41.9 21.7 -41.65 21.4 -41.4 21.4 -47.7 21.35 -47.7 Q21.75 -47.95 21.3 -48.0 L20.45 -48.15 20.45 -40.6 20.25 -40.45 21.15 -39.75 19.5 -32.85 19.45 -32.5 19.65 -32.45 19.9 -31.8 20.0 -31.6 20.5 -31.85 20.55 -31.85 22.55 -32.65 22.65 -32.7 25.35 -33.25 26.15 -33.2 Q26.95 -33.1 27.35 -32.7 28.05 -31.95 28.05 -30.85 28.05 -29.85 27.35 -29.15 26.65 -28.45 25.0 -28.2 L22.8 -28.0 23.05 -26.9 21.55 -21.9 21.4 -21.95 20.55 -22.05 20.55 -17.25 Q20.55 -14.75 18.9 -13.3 L18.6 -13.05 19.3 -12.15 23.6 -9.3 23.25 -8.75 24.9 -6.75 24.9 -6.65 25.4 -4.75 25.4 -4.2 Q25.4 -2.95 24.9 -1.8 L24.75 -1.55 24.6 -1.25 23.95 -0.3 23.85 -0.2 23.25 0.45 23.65 0.9 23.45 0.9 23.4 0.9 23.35 0.9 23.25 0.8 23.2 0.8 23.15 0.85 21.2 0.35 21.7 -0.25 11.6 -8.75 11.05 -8.1 9.9 -7.85 9.7 -8.05 8.75 -8.5 8.65 -7.95 8.0 -5.4 7.85 -5.0 7.8 -4.85 7.05 -3.2 6.75 -2.7 6.6 -2.5 5.75 -1.45 5.7 -1.35 5.65 -1.35 5.15 -0.85 5.35 -0.6 5.65 -0.15 5.3 -0.25 5.25 -0.25 Q5.15 -0.25 5.05 -0.35 4.95 -0.4 4.95 -0.4 L4.9 -0.3 1.75 -1.65 1.05 -2.55 Q-0.85 -0.5 -2.65 -0.5 -3.65 -0.55 -4.15 -1.0 -4.6 -1.45 -4.6 -2.6 L-4.6 -8.45 Q-4.25 -8.75 -4.65 -8.8 L-5.65 -8.8 -8.05 -17.2 -9.75 -13.45 -9.75 -18.65 -10.65 -18.65 -10.65 -13.45 -12.25 -13.45 -19.1 -8.1 -19.6 -8.75 -29.75 -0.25 -29.25 0.35 -31.85 1.0 -31.35 0.45 -31.45 0.35 -31.9 -0.2 -32.05 -0.35 -32.65 -1.25 -32.9 -1.7 -32.95 -1.8 -33.05 -2.1 Q-33.45 -3.1 -33.45 -4.2 L-33.45 -4.35 Q-33.45 -5.75 -32.95 -6.75 L-31.35 -8.75 -31.85 -9.25 -27.8 -13.55 -27.25 -12.95 -26.35 -13.7 -17.15 -21.4 -17.65 -22.05 -11.55 -27.45 -8.05 -27.45 -7.95 -27.35 -7.9 -27.45 -7.1 -27.45 -7.1 -28.3 -11.55 -28.3 Q-12.35 -28.3 -12.95 -28.65 L-13.5 -29.05 -13.55 -29.1 -13.8 -29.4 -14.1 -29.9 -14.15 -30.2 -14.25 -30.85 -13.8 -32.25 -13.7 -32.35 -13.55 -32.55 -13.25 -32.8 Q-12.55 -33.35 -11.55 -33.35 L-7.1 -33.35 -7.1 -34.25 -11.55 -34.25 -11.7 -34.25 Q-12.8 -34.2 -13.6 -33.65 L-21.9 -39.55 -21.8 -39.75 -21.45 -40.2 -31.55 -48.65 -32.2 -48.45 -33.45 -52.9 -33.0 -53.5 -43.1 -61.95 -43.6 -61.35 -43.65 -61.4 -47.7 -65.55 -47.15 -66.05 -47.35 -66.3 -48.3 -67.5 -48.75 -68.25 -48.75 -68.35 Q-49.3 -69.45 -49.3 -70.7 -49.3 -72.2 -48.75 -73.25 L-48.25 -74.1 -47.15 -75.3 -47.7 -75.75 -45.05 -75.25 -45.6 -74.65 -35.45 -66.2 -34.95 -66.8 -31.2 -61.95 -31.7 -61.35 -21.55 -52.9 -21.1 -53.5 -19.9 -60.45 -19.9 -60.55 -19.85 -60.45 -19.15 -58.8 -19.1 -58.65 -18.85 -57.9 -17.85 -58.65 -18.5 -60.3 -19.0 -61.3 -19.65 -60.75 -19.65 -61.15 -14.45 -73.9 -14.4 -73.85 -14.1 -74.35 -14.1 -73.75 -13.65 -73.75 -14.1 -72.35 -13.65 -72.35 -13.05 -73.75 -13.05 -74.8 -14.1 -74.8 -9.4 -76.0 -11.15 -73.95 -10.1 -73.95 -10.05 -74.05 -7.75 -76.0 1.65 -74.65 4.8 -66.6 5.65 -66.6 8.8 -74.65 20.0 -73.35 19.0 -72.45 19.3 -72.25 19.55 -72.1 19.8 -71.9 20.65 -71.3 20.75 -71.25 22.55 -69.65 23.15 -69.05 23.7 -68.4 23.75 -68.35 23.8 -68.25 24.0 -68.05 24.25 -67.65 24.3 -67.6 25.35 -68.45 25.45 -68.5 27.35 -64.25 27.25 -64.25 27.25 -63.75 27.45 -63.9 27.9 -63.0 27.5 -63.95 31.0 -66.75 31.05 -66.75 31.5 -66.2 41.6 -74.65 41.1 -75.25 M-12.25 -13.45 L-12.25 -21.4 -13.15 -21.4 -13.15 -13.45 -12.25 -13.45 M-8.1 -17.25 L-8.05 -17.2 -7.45 -16.5 -3.45 -12.55 -2.6 -13.4 -2.85 -13.7 -5.6 -16.25 -6.8 -17.25 -6.9 -17.35 -6.95 -17.65 -6.8 -18.0 -6.6 -18.15 -6.5 -18.25 -4.5 -20.25 -4.35 -20.4 -4.3 -20.45 -4.15 -20.6 -4.0 -20.7 -3.65 -21.1 -3.1 -21.8 Q-2.5 -21.7 -2.85 -22.15 L-2.9 -22.2 -3.7 -22.8 -3.95 -22.5 -4.05 -22.35 -4.05 -22.3 -4.2 -22.15 -5.15 -21.0 -5.45 -20.7 -5.7 -20.45 -6.95 -19.2 -7.65 -18.55 -8.1 -17.85 -8.3 -17.75 -8.1 -17.25 M5.3 -68.3 L2.75 -74.8 7.8 -74.8 7.7 -74.65 5.3 -68.3 M11.4 -73.15 L11.1 -73.35 10.15 -72.45 10.6 -72.15 13.75 -69.6 15.45 -67.6 16.6 -68.55 16.0 -69.3 15.35 -70.0 15.2 -70.2 12.05 -72.7 11.4 -73.15 M4.7 -59.6 L4.3 -59.85 4.1 -59.6 2.9 -57.65 Q2.4 -56.6 2.4 -55.5 2.4 -54.25 2.95 -53.75 3.45 -53.2 4.25 -53.2 5.05 -53.2 5.65 -53.75 L6.1 -54.35 Q6.15 -54.05 6.55 -53.65 7.0 -53.2 7.9 -53.2 8.9 -53.2 9.6 -53.85 10.5 -54.8 10.6 -56.7 L10.6 -57.0 10.6 -57.65 10.55 -58.1 10.1 -59.8 10.1 -59.85 9.2 -59.6 9.3 -59.2 9.35 -59.0 9.6 -57.0 Q9.6 -55.2 8.9 -54.45 8.45 -54.05 7.85 -54.05 7.3 -54.05 7.0 -54.35 6.65 -54.7 6.65 -55.15 L7.05 -56.05 7.3 -57.4 7.3 -57.45 Q7.3 -58.35 6.9 -58.35 L6.3 -57.7 6.05 -57.15 5.85 -56.45 5.85 -55.3 5.25 -54.45 Q4.8 -54.05 4.25 -54.0 3.8 -54.0 3.55 -54.3 3.25 -54.6 3.25 -55.5 3.25 -57.35 5.05 -59.4 L5.05 -59.6 4.7 -59.6 M0.2 -59.25 L0.2 -59.4 -1.25 -59.25 -5.1 -59.25 -5.1 -58.5 0.2 -58.5 0.2 -59.25 M12.7 -55.65 L18.0 -55.65 18.0 -56.4 12.7 -56.4 12.7 -55.65 M18.0 -58.5 L18.0 -59.25 12.7 -59.25 12.7 -58.5 18.0 -58.5 M19.55 -59.2 L19.75 -59.05 20.0 -58.9 20.1 -58.85 20.75 -58.35 21.8 -57.55 21.9 -57.45 Q21.95 -57.4 22.1 -57.3 L23.1 -56.35 23.2 -56.25 24.3 -55.05 24.45 -54.8 24.8 -54.4 24.85 -54.3 26.0 -55.3 25.2 -56.3 24.05 -57.45 23.8 -57.65 23.75 -57.7 22.0 -59.1 20.5 -60.1 19.55 -59.2 M0.2 -55.65 L0.2 -56.4 -5.1 -56.4 -5.1 -55.65 0.2 -55.65 M9.6 -49.85 L8.8 -49.55 Q8.5 -49.25 8.5 -48.8 8.5 -48.4 8.8 -48.0 9.15 -47.7 9.6 -47.7 9.95 -47.7 10.3 -48.0 L10.65 -48.8 10.3 -49.55 Q9.95 -49.85 9.6 -49.85 M25.3 -68.8 L25.35 -68.75 25.35 -68.7 25.3 -68.8 M25.6 -61.45 L24.9 -61.9 24.4 -61.3 25.4 -60.6 25.65 -60.4 25.75 -60.25 26.0 -60.05 26.05 -60.0 26.15 -59.9 26.75 -60.55 26.6 -60.7 26.5 -60.75 26.35 -60.9 25.6 -61.45 M27.55 -52.8 L28.05 -52.25 28.1 -52.3 28.4 -52.6 28.5 -52.75 28.55 -52.8 28.7 -52.9 28.7 -52.95 28.85 -53.1 28.9 -53.15 29.0 -53.3 29.0 -53.35 29.3 -53.7 29.35 -53.8 29.45 -53.9 29.75 -54.5 Q30.35 -55.85 30.35 -57.35 L30.35 -57.45 30.25 -58.5 29.55 -60.5 28.55 -61.9 28.35 -62.15 28.3 -62.2 28.2 -62.25 28.2 -62.3 28.05 -62.4 27.55 -61.9 27.7 -61.75 27.8 -61.65 27.85 -61.6 28.05 -61.45 28.35 -61.05 29.0 -60.0 29.6 -58.15 29.65 -57.45 29.65 -57.35 Q29.65 -55.55 28.6 -54.0 L28.45 -53.8 28.3 -53.6 28.2 -53.5 28.15 -53.4 28.05 -53.3 28.0 -53.2 27.65 -52.9 27.55 -52.8 M25.8 -59.45 L25.8 -59.5 25.65 -59.6 25.6 -59.65 25.4 -59.8 25.3 -59.85 25.1 -60.0 25.05 -60.05 23.95 -60.8 23.45 -60.2 24.75 -59.25 24.8 -59.15 24.9 -59.1 24.95 -59.05 25.0 -59.0 25.05 -58.95 25.25 -58.75 25.8 -59.45 M5.65 -40.95 L6.05 -41.45 6.65 -42.7 7.05 -45.05 7.05 -46.4 0.25 -46.4 0.25 -43.0 1.2 -43.0 1.2 -45.45 6.1 -45.45 6.1 -45.05 6.0 -43.95 Q5.8 -42.75 5.2 -41.9 L5.15 -41.85 Q4.2 -40.6 2.35 -40.0 L2.95 -39.2 Q4.6 -39.85 5.6 -40.9 L5.65 -40.85 5.65 -40.95 M9.05 -48.25 Q8.9 -48.45 8.9 -48.8 L9.05 -49.3 Q9.25 -49.5 9.6 -49.5 9.9 -49.5 10.05 -49.3 L10.25 -48.8 10.05 -48.25 9.6 -48.1 9.05 -48.25 M15.85 -46.7 L15.9 -46.9 16.05 -47.65 16.2 -47.8 16.05 -47.95 15.1 -48.4 15.0 -47.9 14.7 -46.6 13.75 -43.9 Q12.85 -41.95 11.45 -40.8 L12.2 -39.8 13.75 -41.6 Q15.15 -43.65 15.85 -46.7 M19.45 -47.25 L19.65 -47.4 19.4 -47.55 18.6 -47.65 18.5 -47.65 18.5 -44.85 Q18.5 -43.55 18.15 -42.35 L17.65 -41.2 17.6 -41.1 17.05 -40.15 18.0 -39.4 18.7 -40.8 18.7 -40.9 18.8 -41.1 18.95 -41.5 19.1 -42.05 19.15 -42.15 19.2 -42.5 19.4 -43.75 19.45 -44.85 19.45 -47.25 M3.85 -29.6 L3.85 -25.75 4.8 -25.75 4.8 -31.1 5.3 -32.15 5.5 -32.25 5.4 -32.4 4.6 -32.85 3.5 -30.95 Q2.7 -29.9 1.6 -29.15 L2.15 -28.3 3.65 -29.55 3.85 -29.6 M8.95 -34.8 L8.95 -35.85 Q9.25 -36.1 8.9 -36.1 L8.0 -36.1 8.0 -34.8 5.7 -34.8 5.7 -35.85 Q6.0 -36.1 5.65 -36.1 L4.8 -36.1 4.8 -34.8 1.85 -34.8 1.85 -33.9 4.8 -33.9 4.8 -32.95 5.7 -32.95 5.7 -33.9 8.0 -33.9 8.0 -32.95 8.95 -32.95 8.95 -33.9 11.9 -33.9 11.9 -34.8 8.95 -34.8 M0.6 -34.55 L0.15 -35.0 -4.5 -30.75 0.15 -26.45 0.6 -26.9 -3.55 -30.75 0.6 -34.55 M7.9 -32.45 Q8.15 -32.7 7.9 -32.75 L6.95 -32.75 6.95 -26.9 Q6.95 -26.45 7.25 -26.2 L7.85 -26.05 10.9 -26.05 11.3 -26.1 Q11.8 -26.25 11.9 -26.85 L12.05 -27.95 11.05 -28.2 10.9 -27.2 10.55 -26.9 8.1 -26.9 7.9 -27.15 7.9 -29.6 9.45 -30.1 11.3 -31.1 11.4 -31.15 11.45 -31.15 Q11.75 -31.15 11.6 -31.4 L10.9 -32.15 9.4 -31.15 7.9 -30.45 7.9 -32.45 M7.6 -12.7 L4.05 -12.7 4.05 -12.15 7.6 -12.15 7.6 -12.7 M3.75 -21.7 L3.3 -22.0 -1.6 -13.2 -1.15 -12.9 3.75 -21.7 M9.55 -23.5 L8.65 -23.5 8.65 -11.7 9.55 -11.7 9.55 -23.5 M12.2 -22.95 L11.45 -22.5 14.25 -17.55 11.45 -12.6 12.2 -12.2 15.3 -17.55 12.2 -22.95 M18.5 -21.35 L18.25 -21.5 17.4 -21.55 17.4 -16.35 18.3 -16.35 18.3 -21.15 18.5 -21.35 M13.7 -35.0 L13.25 -34.55 17.4 -30.75 13.25 -26.9 13.7 -26.45 18.3 -30.75 13.7 -35.0 M2.9 -7.25 L3.35 -7.25 2.9 -5.85 3.35 -5.85 3.95 -7.25 3.95 -8.25 2.9 -8.25 2.9 -7.25 M-18.8 -53.35 L-18.15 -52.4 -17.1 -53.3 Q-15.7 -54.85 -15.05 -57.15 L-14.75 -58.7 -14.7 -58.9 -14.55 -60.55 -14.4 -60.65 -14.55 -60.85 -15.5 -61.3 -15.7 -59.2 -15.85 -58.35 -15.9 -58.2 -15.9 -58.0 -16.05 -57.45 Q-16.9 -54.7 -18.8 -53.4 L-18.8 -53.35 M-12.1 -60.05 L-12.1 -61.25 -13.0 -61.25 -13.0 -60.05 -12.1 -60.05 M-12.1 -58.55 L-13.0 -58.55 -13.0 -53.35 -12.1 -53.35 -12.1 -58.55 M-6.15 -61.25 L-7.15 -61.7 -7.75 -59.1 Q-8.05 -58.1 -8.45 -57.25 L-9.3 -55.7 Q-9.95 -54.75 -10.75 -54.1 L-10.0 -53.1 -9.9 -53.2 Q-8.2 -54.8 -7.15 -57.35 L-7.1 -57.5 -6.45 -59.55 -6.35 -60.1 -6.15 -61.0 Q-5.85 -61.05 -6.15 -61.25 M-17.45 -40.05 L-16.4 -40.05 -16.4 -41.05 -17.45 -41.05 -17.45 -40.05 M-16.3 -48.0 L-17.6 -48.0 -17.3 -42.75 -16.55 -42.75 -16.3 -48.0 M-19.05 -45.25 L-19.95 -45.25 -19.95 -40.05 -19.05 -40.05 -19.05 -45.25 M-19.05 -46.75 L-19.05 -47.95 -19.95 -47.95 -19.95 -46.75 -19.05 -46.75 M-11.4 -45.25 L-12.35 -45.25 -12.35 -40.05 -11.4 -40.05 -11.4 -45.25 M-13.95 -45.25 L-14.85 -45.25 -14.85 -40.05 -13.95 -40.05 -13.95 -45.25 M-13.95 -46.75 L-13.95 -47.95 -14.85 -47.95 -14.85 -46.75 -13.95 -46.75 M-12.35 -47.95 L-12.35 -46.75 -11.4 -46.75 -11.4 -47.95 -12.35 -47.95 M-8.9 -48.0 L-9.75 -48.1 -9.75 -42.9 -8.85 -42.9 -8.85 -47.65 -8.65 -47.9 -8.9 -48.0 M-5.65 -48.15 L-5.45 -48.35 -5.7 -48.5 -6.6 -48.6 -6.6 -43.75 Q-6.6 -42.3 -7.15 -41.2 L-7.25 -41.05 -8.55 -39.55 -7.85 -38.65 -7.4 -39.05 -6.8 -39.8 -6.45 -40.25 Q-6.1 -40.9 -5.9 -41.65 -5.65 -42.55 -5.65 -43.6 L-5.65 -48.15 M-3.25 -49.4 L-2.75 -49.2 Q-2.6 -49.05 -2.6 -48.7 -2.6 -48.35 -2.75 -48.2 -2.95 -48.05 -3.15 -48.0 L-3.25 -48.0 -3.8 -48.2 -3.85 -48.25 -3.95 -48.7 -3.8 -49.2 -3.25 -49.4 M-2.5 -47.95 Q-2.2 -48.3 -2.2 -48.7 -2.2 -49.15 -2.5 -49.45 -2.9 -49.8 -3.25 -49.75 -3.7 -49.8 -4.05 -49.45 L-4.35 -48.7 -4.35 -48.55 -4.3 -48.4 -4.05 -47.95 Q-3.7 -47.65 -3.25 -47.65 L-2.65 -47.85 -2.5 -47.95 M-8.15 -31.95 L-8.15 -32.1 -8.2 -32.1 -8.15 -31.95 M-9.75 -20.1 L-9.75 -21.35 -10.65 -21.35 -10.65 -20.1 -9.75 -20.1 M-14.8 -21.4 L-15.7 -21.4 -15.7 -13.45 -14.8 -13.45 -14.8 -21.4" fill="#ffffff" fill-rule="evenodd" stroke="none"/>
    <path d="M41.1 -75.25 L41.6 -74.65 31.5 -66.2 31.05 -66.75 31.0 -66.75 31.0 -66.85 41.1 -75.25 M25.35 -68.45 L24.3 -67.6 24.25 -67.65 24.0 -68.05 23.8 -68.25 23.75 -68.35 23.7 -68.4 23.15 -69.05 22.55 -69.65 20.75 -71.25 20.65 -71.3 19.8 -71.9 19.55 -72.1 19.3 -72.25 19.0 -72.45 20.0 -73.35 21.55 -72.25 21.8 -72.1 22.9 -71.25 23.85 -70.4 25.3 -68.8 25.35 -68.7 25.35 -68.45 M8.8 -74.65 L5.65 -66.6 4.8 -66.6 1.65 -74.65 2.75 -74.65 5.25 -68.2 5.3 -68.3 7.7 -74.65 8.8 -74.65 M-7.75 -76.0 L-10.05 -74.05 -10.1 -73.95 -11.15 -73.95 -9.4 -76.0 -7.75 -76.0 M-14.1 -74.8 L-13.05 -74.8 -13.05 -73.75 -13.65 -72.35 -14.1 -72.35 -13.65 -73.75 -14.1 -73.75 -14.1 -74.35 -14.1 -74.8 M-19.65 -60.75 L-19.0 -61.3 -18.5 -60.3 -17.85 -58.65 -18.85 -57.9 -19.1 -58.65 -19.15 -58.8 -19.85 -60.45 -19.9 -60.55 -19.65 -60.75 M-21.1 -53.5 L-21.55 -52.9 -31.7 -61.35 -31.2 -61.95 -21.1 -53.5 M-34.95 -66.8 L-35.45 -66.2 -45.6 -74.65 -45.05 -75.25 -34.95 -66.8 M-47.7 -75.75 L-47.15 -75.3 -48.25 -74.1 -48.75 -73.25 Q-49.3 -72.2 -49.3 -70.7 -49.3 -69.45 -48.75 -68.35 L-48.75 -68.25 -48.3 -67.5 -47.35 -66.3 -47.15 -66.05 -47.7 -65.55 -48.95 -67.25 -49.4 -68.0 -49.6 -68.5 Q-50.0 -69.55 -50.0 -70.7 -50.0 -72.05 -49.6 -73.1 L-49.4 -73.6 -49.1 -74.15 -47.7 -75.75 M-43.6 -61.35 L-43.1 -61.95 -33.0 -53.5 -33.45 -52.9 -43.6 -61.35 M-31.55 -48.65 L-21.45 -40.2 -21.8 -39.75 -21.9 -39.6 -32.05 -48.0 -31.55 -48.65 M-13.6 -33.65 Q-12.8 -34.2 -11.7 -34.25 L-11.55 -34.25 -7.1 -34.25 -7.1 -33.35 -11.55 -33.35 Q-12.55 -33.35 -13.25 -32.8 L-13.55 -32.55 -13.7 -32.35 -13.8 -32.25 -14.25 -30.85 -14.15 -30.2 -14.1 -29.9 -13.8 -29.4 -13.55 -29.1 -13.5 -29.05 -12.95 -28.65 Q-12.35 -28.3 -11.55 -28.3 L-7.1 -28.3 -7.1 -27.45 -7.9 -27.45 -8.05 -27.45 -11.55 -27.45 Q-12.9 -27.45 -13.75 -28.1 L-14.15 -28.4 Q-15.15 -29.45 -15.15 -30.85 -15.15 -31.95 -14.55 -32.8 L-14.15 -33.25 -13.6 -33.65 M-17.65 -22.05 L-17.15 -21.4 -26.35 -13.7 -26.9 -14.3 -17.65 -22.05 M-31.85 -9.25 L-31.35 -8.75 -32.95 -6.75 Q-33.45 -5.75 -33.45 -4.35 L-33.45 -4.2 Q-33.45 -3.1 -33.05 -2.1 L-32.95 -1.8 -32.9 -1.7 -32.65 -1.25 -32.05 -0.35 -31.9 -0.2 -31.45 0.35 -31.35 0.45 -31.85 1.0 -33.2 -0.75 -33.55 -1.45 -33.95 -2.6 -34.15 -4.2 -34.15 -4.3 Q-34.15 -5.85 -33.55 -7.05 -33.05 -8.15 -31.85 -9.25 M-29.25 0.35 L-29.75 -0.25 -19.6 -8.75 -19.1 -8.1 -29.25 0.35 M-12.25 -13.45 L-13.15 -13.45 -13.15 -21.4 -12.25 -21.4 -12.25 -13.45 M-10.65 -13.45 L-10.65 -18.65 -9.75 -18.65 -9.75 -13.45 -10.65 -13.45 M-8.05 -17.2 L-8.1 -17.25 -8.1 -17.3 -8.15 -17.55 -8.1 -17.85 -7.65 -18.55 -6.95 -19.2 -5.7 -20.45 -5.45 -20.7 -5.15 -21.0 -4.2 -22.15 -4.05 -22.3 -4.05 -22.35 -3.95 -22.5 -3.7 -22.8 -2.9 -22.2 -2.85 -22.15 Q-2.5 -21.7 -3.1 -21.8 L-3.65 -21.1 -4.0 -20.7 -4.15 -20.6 -4.3 -20.45 -4.35 -20.4 -4.5 -20.25 -6.5 -18.25 -6.6 -18.15 -6.8 -18.0 -6.95 -17.65 -6.9 -17.35 -6.8 -17.25 -5.6 -16.25 -2.85 -13.7 -2.6 -13.4 -3.45 -12.55 -7.45 -16.5 -8.05 -17.2 M-5.65 -8.8 L-4.65 -8.8 Q-4.25 -8.75 -4.6 -8.45 L-4.6 -2.6 Q-4.6 -1.45 -4.15 -1.0 -3.65 -0.55 -2.65 -0.5 -0.85 -0.5 1.05 -2.55 L1.75 -1.65 Q-0.25 0.55 -2.6 0.55 -4.25 0.55 -5.05 -0.25 -5.65 -0.9 -5.65 -2.6 L-5.65 -8.8 M5.35 -0.6 L5.15 -0.85 5.65 -1.35 5.7 -1.35 5.75 -1.45 6.6 -2.5 6.75 -2.7 6.85 -2.9 7.05 -3.2 7.8 -4.85 7.85 -5.0 8.0 -5.4 8.65 -7.95 8.75 -8.5 9.7 -8.05 9.9 -7.85 9.75 -7.75 9.7 -7.75 9.05 -5.05 8.45 -3.55 8.05 -2.75 6.45 -0.5 5.85 0.1 5.35 -0.6 M11.05 -8.1 L11.6 -8.75 21.7 -0.25 21.2 0.35 11.05 -8.1 M23.65 0.9 L23.25 0.45 23.85 -0.2 23.95 -0.3 24.6 -1.25 24.65 -1.3 24.75 -1.55 24.9 -1.8 Q25.4 -2.95 25.4 -4.2 L25.4 -4.75 25.35 -5.3 25.1 -6.2 24.9 -6.65 24.9 -6.75 23.25 -8.75 23.75 -9.25 Q24.95 -8.15 25.45 -7.05 L25.9 -5.95 26.05 -5.3 26.1 -4.2 Q26.1 -2.75 25.45 -1.45 L25.4 -1.3 25.35 -1.2 23.75 1.0 23.65 0.9 M19.3 -12.15 L18.6 -13.05 18.9 -13.3 Q20.55 -14.75 20.55 -17.25 L20.55 -22.05 21.4 -21.95 21.55 -21.9 21.5 -21.65 21.5 -17.05 Q21.5 -14.7 20.25 -13.1 L20.0 -12.8 19.3 -12.15 M23.05 -26.9 L22.8 -28.0 25.0 -28.2 Q26.65 -28.45 27.35 -29.15 28.05 -29.85 28.05 -30.85 28.05 -31.95 27.35 -32.7 26.95 -33.1 26.15 -33.2 L25.35 -33.25 22.65 -32.7 22.55 -32.65 22.3 -32.6 20.8 -32.0 20.55 -31.85 20.5 -31.85 20.0 -31.6 19.9 -31.8 19.5 -32.85 22.1 -33.55 22.6 -33.7 25.5 -34.25 26.3 -34.2 Q27.55 -34.05 28.25 -33.35 29.15 -32.45 29.15 -31.0 29.15 -29.4 28.3 -28.55 L26.7 -27.55 24.75 -27.05 23.05 -26.9 M21.15 -39.75 L20.25 -40.45 20.45 -40.6 20.45 -48.15 21.3 -48.0 Q21.75 -47.95 21.35 -47.7 L21.35 -41.35 21.4 -41.4 21.7 -41.65 21.95 -41.9 23.5 -44.0 23.5 -44.05 23.55 -44.15 23.6 -44.2 23.6 -44.25 24.25 -43.3 23.6 -42.25 23.4 -42.05 23.2 -41.75 22.8 -41.3 22.6 -41.1 21.8 -40.3 21.15 -39.75 M31.95 -52.9 L31.95 -52.95 31.55 -53.4 31.45 -53.5 41.6 -61.95 42.1 -61.35 32.0 -52.9 31.95 -52.9 M43.1 -65.55 L42.6 -66.1 Q44.7 -68.1 44.7 -70.65 L44.7 -71.25 Q44.45 -73.45 42.6 -75.2 L43.1 -75.7 Q45.15 -73.8 45.4 -71.25 L45.4 -70.65 Q45.4 -67.8 43.1 -65.55 M12.05 -72.7 L15.2 -70.2 15.35 -70.0 16.0 -69.3 16.6 -68.55 15.45 -67.6 13.75 -69.6 10.6 -72.15 10.15 -72.45 11.1 -73.35 11.4 -73.15 11.65 -73.0 12.05 -72.7 M5.05 -59.4 Q3.25 -57.35 3.25 -55.5 3.25 -54.6 3.55 -54.3 3.8 -54.0 4.25 -54.0 4.8 -54.05 5.25 -54.45 L5.85 -55.3 5.85 -56.45 6.05 -57.15 6.3 -57.7 6.9 -58.35 Q7.3 -58.35 7.3 -57.45 L7.3 -57.4 7.05 -56.05 6.65 -55.15 Q6.65 -54.7 7.0 -54.35 7.3 -54.05 7.85 -54.05 8.45 -54.05 8.9 -54.45 9.6 -55.2 9.6 -57.0 L9.35 -59.0 9.3 -59.2 9.2 -59.6 10.1 -59.85 10.1 -59.8 10.55 -58.1 10.6 -57.65 10.6 -57.0 10.6 -56.7 Q10.5 -54.8 9.6 -53.85 8.9 -53.2 7.9 -53.2 7.0 -53.2 6.55 -53.65 6.15 -54.05 6.1 -54.35 L5.65 -53.75 Q5.05 -53.2 4.25 -53.2 3.45 -53.2 2.95 -53.75 2.4 -54.25 2.4 -55.5 2.4 -56.6 2.9 -57.65 L4.1 -59.6 4.3 -59.85 4.7 -59.6 5.05 -59.4 M0.2 -59.25 L0.2 -58.5 -5.1 -58.5 -5.1 -59.25 -1.25 -59.25 0.2 -59.25 M9.6 -49.85 Q9.95 -49.85 10.3 -49.55 L10.65 -48.8 10.3 -48.0 Q9.95 -47.7 9.6 -47.7 9.15 -47.7 8.8 -48.0 8.5 -48.4 8.5 -48.8 8.5 -49.25 8.8 -49.55 L9.6 -49.85 M0.2 -55.65 L-5.1 -55.65 -5.1 -56.4 0.2 -56.4 0.2 -55.65 M19.55 -59.2 L20.5 -60.1 22.0 -59.1 23.75 -57.7 23.8 -57.65 24.05 -57.45 25.2 -56.3 26.0 -55.3 24.85 -54.3 24.8 -54.4 24.45 -54.8 24.3 -55.05 23.2 -56.25 23.1 -56.35 22.1 -57.3 Q21.95 -57.4 21.9 -57.45 L21.8 -57.55 20.75 -58.35 20.1 -58.85 20.0 -58.9 19.75 -59.05 19.55 -59.2 M18.0 -58.5 L12.7 -58.5 12.7 -59.25 18.0 -59.25 18.0 -58.5 M12.7 -55.65 L12.7 -56.4 18.0 -56.4 18.0 -55.65 12.7 -55.65 M26.35 -60.9 L26.5 -60.75 26.6 -60.7 26.75 -60.55 26.15 -59.9 26.05 -60.0 26.0 -60.05 25.75 -60.25 25.65 -60.4 25.4 -60.6 24.4 -61.3 24.9 -61.9 25.6 -61.45 25.9 -61.25 26.35 -60.9 M27.65 -52.9 L28.0 -53.2 28.05 -53.3 28.15 -53.4 28.2 -53.5 28.3 -53.6 28.45 -53.8 28.6 -54.0 Q29.65 -55.55 29.65 -57.35 L29.65 -57.45 29.6 -58.15 29.0 -60.0 28.35 -61.05 28.05 -61.45 27.85 -61.6 27.8 -61.65 27.7 -61.75 27.55 -61.9 28.05 -62.4 28.2 -62.3 28.2 -62.25 28.3 -62.2 28.35 -62.15 28.55 -61.9 29.55 -60.5 30.25 -58.5 30.35 -57.45 30.35 -57.35 Q30.35 -55.85 29.75 -54.5 L29.45 -53.9 29.35 -53.8 29.3 -53.7 29.0 -53.35 29.0 -53.3 28.9 -53.15 28.85 -53.1 28.7 -52.95 28.7 -52.9 28.55 -52.8 28.5 -52.75 28.4 -52.6 28.1 -52.3 28.05 -52.25 27.55 -52.8 27.6 -52.85 27.65 -52.9 M25.8 -59.45 L25.25 -58.75 25.05 -58.95 25.0 -59.0 24.95 -59.05 24.9 -59.1 24.8 -59.15 24.75 -59.25 23.45 -60.2 23.95 -60.8 25.05 -60.05 25.1 -60.0 25.3 -59.85 25.4 -59.8 25.6 -59.65 25.65 -59.6 25.8 -59.5 25.8 -59.45 M19.45 -47.25 L19.45 -44.85 19.4 -43.75 19.2 -42.5 19.15 -42.15 19.1 -42.05 18.95 -41.5 18.8 -41.1 18.7 -40.9 18.7 -40.8 18.0 -39.4 17.05 -40.15 17.6 -41.1 17.65 -41.2 18.15 -42.35 Q18.5 -43.55 18.5 -44.85 L18.5 -47.65 18.6 -47.65 19.4 -47.55 19.65 -47.4 19.45 -47.25 M15.85 -46.7 Q15.15 -43.65 13.75 -41.6 L12.2 -39.8 11.45 -40.8 Q12.85 -41.95 13.75 -43.9 L14.7 -46.6 15.0 -47.9 15.1 -48.4 16.05 -47.95 16.2 -47.8 16.05 -47.65 15.9 -46.9 15.85 -46.7 M9.05 -48.25 L9.6 -48.1 10.05 -48.25 10.25 -48.8 10.05 -49.3 Q9.9 -49.5 9.6 -49.5 9.25 -49.5 9.05 -49.3 L8.9 -48.8 Q8.9 -48.45 9.05 -48.25 M5.6 -40.9 Q4.6 -39.85 2.95 -39.2 L2.35 -40.0 Q4.2 -40.6 5.15 -41.85 L5.2 -41.9 Q5.8 -42.75 6.0 -43.95 L6.1 -45.05 6.1 -45.45 1.2 -45.45 1.2 -43.0 0.25 -43.0 0.25 -46.4 7.05 -46.4 7.05 -45.05 6.65 -42.7 6.05 -41.45 5.65 -40.95 5.6 -40.9 M8.95 -34.8 L11.9 -34.8 11.9 -33.9 8.95 -33.9 8.95 -32.95 8.0 -32.95 8.0 -33.9 5.7 -33.9 5.7 -32.95 4.8 -32.95 4.8 -33.9 1.85 -33.9 1.85 -34.8 4.8 -34.8 4.8 -36.1 5.65 -36.1 Q6.0 -36.1 5.7 -35.85 L5.7 -34.8 8.0 -34.8 8.0 -36.1 8.9 -36.1 Q9.25 -36.1 8.95 -35.85 L8.95 -34.8 M3.65 -29.55 L2.15 -28.3 1.6 -29.15 Q2.7 -29.9 3.5 -30.95 L4.6 -32.85 5.4 -32.4 5.5 -32.25 5.3 -32.15 4.8 -31.1 4.8 -25.75 3.85 -25.75 3.85 -29.6 3.85 -29.8 3.65 -29.55 M7.9 -32.45 L7.9 -30.45 9.4 -31.15 10.9 -32.15 11.6 -31.4 Q11.75 -31.15 11.45 -31.15 L11.4 -31.15 11.3 -31.1 9.45 -30.1 7.9 -29.6 7.9 -27.15 8.1 -26.9 10.55 -26.9 10.9 -27.2 11.05 -28.2 12.05 -27.95 11.9 -26.85 Q11.8 -26.25 11.3 -26.1 L10.9 -26.05 7.85 -26.05 7.25 -26.2 Q6.95 -26.45 6.95 -26.9 L6.95 -32.75 7.9 -32.75 Q8.15 -32.7 7.9 -32.45 M0.6 -34.55 L-3.55 -30.75 0.6 -26.9 0.15 -26.45 -4.5 -30.75 0.15 -35.0 0.6 -34.55 M13.7 -35.0 L18.3 -30.75 13.7 -26.45 13.25 -26.9 17.4 -30.75 13.25 -34.55 13.7 -35.0 M18.5 -21.35 L18.3 -21.15 18.3 -16.35 17.4 -16.35 17.4 -21.55 18.25 -21.5 18.5 -21.35 M12.2 -22.95 L15.3 -17.55 12.2 -12.2 11.45 -12.6 14.25 -17.55 11.45 -22.5 12.2 -22.95 M9.55 -23.5 L9.55 -11.7 8.65 -11.7 8.65 -23.5 9.55 -23.5 M3.75 -21.7 L-1.15 -12.9 -1.6 -13.2 3.3 -22.0 3.75 -21.7 M7.6 -12.7 L7.6 -12.15 4.05 -12.15 4.05 -12.7 7.6 -12.7 M2.9 -7.25 L2.9 -8.25 3.95 -8.25 3.95 -7.25 3.35 -5.85 2.9 -5.85 3.35 -7.25 2.9 -7.25 M-12.1 -60.05 L-13.0 -60.05 -13.0 -61.25 -12.1 -61.25 -12.1 -60.05 M-18.8 -53.4 Q-16.9 -54.7 -16.05 -57.45 L-15.9 -58.0 -15.9 -58.2 -15.85 -58.35 -15.7 -59.2 -15.5 -61.3 -14.55 -60.85 -14.4 -60.65 -14.55 -60.55 -14.7 -58.9 -14.75 -58.7 -15.05 -57.15 Q-15.7 -54.85 -17.1 -53.3 L-18.15 -52.4 -18.8 -53.35 -18.8 -53.4 M-12.1 -58.55 L-12.1 -53.35 -13.0 -53.35 -13.0 -58.55 -12.1 -58.55 M-6.15 -61.25 Q-5.85 -61.05 -6.15 -61.0 L-6.35 -60.1 -6.45 -59.55 -7.1 -57.5 -7.15 -57.35 Q-8.2 -54.8 -9.9 -53.2 L-10.0 -53.1 -10.75 -54.1 Q-9.95 -54.75 -9.3 -55.7 L-8.45 -57.25 Q-8.05 -58.1 -7.75 -59.1 L-7.15 -61.7 -6.15 -61.25 M-2.5 -47.95 L-2.65 -47.85 -3.25 -47.65 Q-3.7 -47.65 -4.05 -47.95 L-4.3 -48.4 -4.35 -48.55 -4.35 -48.7 -4.05 -49.45 Q-3.7 -49.8 -3.25 -49.75 -2.9 -49.8 -2.5 -49.45 -2.2 -49.15 -2.2 -48.7 -2.2 -48.3 -2.5 -47.95 M-3.25 -49.4 L-3.8 -49.2 -3.95 -48.7 -3.85 -48.25 -3.8 -48.2 -3.25 -48.0 -3.15 -48.0 Q-2.95 -48.05 -2.75 -48.2 -2.6 -48.35 -2.6 -48.7 -2.6 -49.05 -2.75 -49.2 L-3.25 -49.4 M-5.65 -48.15 L-5.65 -43.6 Q-5.65 -42.55 -5.9 -41.65 -6.1 -40.9 -6.45 -40.25 L-6.8 -39.8 -7.4 -39.05 -7.85 -38.65 -8.55 -39.55 -7.25 -41.05 -7.15 -41.2 Q-6.6 -42.3 -6.6 -43.75 L-6.6 -48.6 -5.7 -48.5 -5.45 -48.35 -5.65 -48.15 M-8.9 -48.0 L-8.65 -47.9 -8.85 -47.65 -8.85 -42.9 -9.75 -42.9 -9.75 -48.1 -8.9 -48.0 M-12.35 -47.95 L-11.4 -47.95 -11.4 -46.75 -12.35 -46.75 -12.35 -47.95 M-13.95 -46.75 L-14.85 -46.75 -14.85 -47.95 -13.95 -47.95 -13.95 -46.75 M-13.95 -45.25 L-13.95 -40.05 -14.85 -40.05 -14.85 -45.25 -13.95 -45.25 M-11.4 -45.25 L-11.4 -40.05 -12.35 -40.05 -12.35 -45.25 -11.4 -45.25 M-19.05 -46.75 L-19.95 -46.75 -19.95 -47.95 -19.05 -47.95 -19.05 -46.75 M-19.05 -45.25 L-19.05 -40.05 -19.95 -40.05 -19.95 -45.25 -19.05 -45.25 M-16.3 -48.0 L-16.55 -42.75 -17.3 -42.75 -17.6 -48.0 -16.3 -48.0 M-17.45 -40.05 L-17.45 -41.05 -16.4 -41.05 -16.4 -40.05 -17.45 -40.05 M-9.75 -20.1 L-10.65 -20.1 -10.65 -21.35 -9.75 -21.35 -9.75 -20.1 M-14.8 -21.4 L-14.8 -13.45 -15.7 -13.45 -15.7 -21.4 -14.8 -21.4" fill="#000000" fill-rule="evenodd" stroke="none"/>
  </g>
</svg>
