<?xml version="1.0" encoding="UTF-8" standalone="no"?>
<svg xmlns:xlink="http://www.w3.org/1999/xlink" height="50.2px" width="35.8px" xmlns="http://www.w3.org/2000/svg">
  <g transform="matrix(1.0, 0.0, 0.0, 1.0, 15.6, 31.95)">
    <path d="M-14.2 -0.2 Q-11.0 -6.75 -2.85 -7.35 L4.25 -6.85 5.8 -6.45 8.55 -5.45 Q11.75 -4.0 13.55 -1.15 L14.1 -0.25 13.55 0.05 -0.45 0.0 -13.1 0.85 -0.45 0.0 13.55 0.05 15.1 1.3 Q13.8 4.0 11.05 5.5 4.25 9.15 -3.65 7.9 -10.65 6.85 -13.95 1.5 L-13.1 0.85 -14.05 1.0 -14.2 -0.2" fill="#e2d5c0" fill-rule="evenodd" stroke="none"/>
    <path d="M-14.2 -0.2 Q-11.0 -6.75 -2.85 -7.35 L4.25 -6.85 5.8 -6.45 8.55 -5.45 Q11.75 -4.0 13.55 -1.15 L14.1 -0.25 14.3 0.25 M-14.05 1.0 L-13.1 0.85 -0.45 0.0 13.55 0.05 M-13.95 1.5 Q-10.65 6.85 -3.65 7.9 4.25 9.15 11.05 5.5 13.8 4.0 15.1 1.3 M-13.95 1.5 L-14.2 1.1 -14.25 1.0 -14.05 1.0" fill="none" stroke="#8f7c3f" stroke-linecap="round" stroke-linejoin="round" stroke-width="1.0"/>
    <path d="M-7.05 -12.0 Q-10.0 -10.3 -13.65 -10.2 -10.0 -10.3 -7.05 -12.0 M-7.05 -7.1 Q-9.2 -6.45 -10.7 -6.4 -14.8 -6.3 -15.05 -10.2 L-14.9 -12.8 Q-13.8 -19.8 -7.45 -16.6 1.1 -12.4 -7.05 -7.1" fill="#fefefe" fill-rule="evenodd" stroke="none"/>
    <path d="M-7.05 -7.1 Q-9.2 -6.45 -10.7 -6.4 -8.65 -6.05 -7.05 -7.1 1.1 -12.4 -7.45 -16.6 -13.8 -19.8 -14.9 -12.8 L-15.05 -10.2 Q-14.8 -6.3 -10.7 -6.4" fill="none" stroke="#8f7c3f" stroke-linecap="round" stroke-linejoin="round" stroke-width="1.0"/>
    <path d="M-13.65 -10.2 Q-10.0 -10.3 -7.05 -12.0" fill="none" stroke="#8f7c3f" stroke-linecap="round" stroke-linejoin="round" stroke-width="1.0"/>
    <path d="M11.35 -11.95 Q7.9 -11.45 5.35 -12.7 7.9 -11.45 11.35 -11.95 M7.65 -17.35 Q9.95 -18.65 12.0 -16.0 17.35 -9.1 6.5 -7.8 2.6 -10.65 3.45 -13.3 4.1 -15.35 7.65 -17.35" fill="#fefefe" fill-rule="evenodd" stroke="none"/>
    <path d="M7.65 -17.35 Q9.95 -18.65 12.0 -16.0 17.35 -9.1 6.5 -7.8 2.6 -10.65 3.45 -13.3 4.1 -15.35 7.65 -17.35" fill="none" stroke="#8f7c3f" stroke-linecap="round" stroke-linejoin="round" stroke-width="1.0"/>
    <path d="M5.35 -12.7 Q7.9 -11.45 11.35 -11.95" fill="none" stroke="#8f7c3f" stroke-linecap="round" stroke-linejoin="round" stroke-width="1.0"/>
    <path d="M-4.2 11.75 Q-3.3 10.1 -0.1 8.3 1.25 8.5 2.7 9.25 L5.05 10.6 6.0 11.35 Q8.25 13.25 7.2 14.7 6.25 15.95 2.85 16.85 L-0.85 16.7 Q-5.9 14.55 -4.2 11.75 L-3.75 11.95 -4.2 11.75" fill="#e2d5c0" fill-rule="evenodd" stroke="none"/>
    <path d="M-4.2 11.75 Q-5.9 14.55 -0.85 16.7 L2.85 16.85 Q6.25 15.95 7.2 14.7 8.25 13.25 6.0 11.35 L5.05 10.6 2.7 9.25 Q1.25 8.5 -0.1 8.3 -3.3 10.1 -4.2 11.75 L-3.75 11.95 M6.0 11.35 Q13.3 6.4 12.7 16.0 13.1 18.55 14.9 17.4 M-4.2 11.75 Q-12.5 7.75 -8.1 15.6 -9.55 18.15 -11.45 17.45" fill="none" stroke="#8f7c3f" stroke-linecap="round" stroke-linejoin="round" stroke-width="1.0"/>
    <path d="M4.65 -19.3 Q5.35 -20.55 6.75 -21.7 9.6 -24.2 14.1 -25.8 L16.15 -25.5 14.1 -25.8 Q9.6 -24.2 6.75 -21.7 5.35 -20.55 4.65 -19.3 M11.45 -30.85 Q17.85 -29.8 16.75 -26.5 17.3 -25.6 18.35 -24.45 20.85 -21.55 18.65 -19.1 16.45 -16.7 12.3 -15.85 L1.85 -15.45 Q-4.45 -15.9 -8.15 -17.45 -11.8 -19.0 -12.5 -22.3 -13.25 -25.6 -9.35 -28.25 -5.5 -30.85 0.05 -31.3 L11.45 -30.85 M3.0 -29.0 L5.1 -28.7 15.2 -26.3 14.1 -25.8 Q9.4 -26.4 4.45 -25.9 L-6.3 -24.65 4.45 -25.9 Q9.4 -26.4 14.1 -25.8 L15.2 -26.3 5.1 -28.7 3.0 -29.0" fill="#66cc99" fill-rule="evenodd" stroke="none"/>
    <path d="M16.15 -25.5 L14.1 -25.8 Q9.6 -24.2 6.75 -21.7 5.35 -20.55 4.65 -19.3 M11.45 -30.85 L0.05 -31.3 Q-5.5 -30.85 -9.35 -28.25 -13.25 -25.6 -12.5 -22.3 -11.8 -19.0 -8.15 -17.45 -4.45 -15.9 1.85 -15.45 L12.3 -15.85 Q16.45 -16.7 18.65 -19.1 20.85 -21.55 18.35 -24.45 17.3 -25.6 16.75 -26.5 17.85 -29.8 11.45 -30.85 M-6.3 -24.65 L4.45 -25.9 Q9.4 -26.4 14.1 -25.8 L15.2 -26.3 5.1 -28.7 3.0 -29.0 M16.5 -16.75 Q16.55 -9.8 14.4 0.25" fill="none" stroke="#8f7c3f" stroke-linecap="round" stroke-linejoin="round" stroke-width="1.0"/>
  </g>
</svg>
