<?xml version="1.0" encoding="UTF-8" standalone="no"?>
<svg xmlns:xlink="http://www.w3.org/1999/xlink" height="36.55px" width="31.2px" xmlns="http://www.w3.org/2000/svg">
  <g transform="matrix(1.0, 0.0, 0.0, 1.0, 15.6, 18.3)">
    <path d="M-14.2 -0.2 Q-11.0 -6.75 -2.85 -7.35 L4.25 -6.85 5.8 -6.45 8.55 -5.45 Q11.75 -4.0 13.55 -1.15 L14.1 -0.25 13.55 0.05 15.1 1.3 Q13.8 4.0 11.05 5.5 4.25 9.15 -3.65 7.9 -10.65 6.85 -13.95 1.5 L-13.1 0.85 -14.05 1.0 -14.2 -0.2 M-13.1 0.85 L-0.45 0.0 13.55 0.05 -0.45 0.0 -13.1 0.85" fill="#e2d5c0" fill-rule="evenodd" stroke="none"/>
    <path d="M-14.2 -0.2 Q-11.0 -6.75 -2.85 -7.35 L4.25 -6.85 5.8 -6.45 8.55 -5.45 Q11.75 -4.0 13.55 -1.15 L14.1 -0.25 14.3 0.25 M-13.95 1.5 L-14.2 1.1 -14.25 1.0 -14.05 1.0 -13.1 0.85 -0.45 0.0 13.55 0.05 M-13.95 1.5 Q-10.65 6.85 -3.65 7.9 4.25 9.15 11.05 5.5 13.8 4.0 15.1 1.3" fill="none" stroke="#8f7c3f" stroke-linecap="round" stroke-linejoin="round" stroke-width="1.0"/>
    <path d="M-10.7 -6.4 Q-14.8 -6.3 -15.05 -10.2 L-14.9 -12.8 Q-13.8 -19.8 -7.45 -16.6 1.1 -12.4 -7.05 -7.1 -9.2 -6.45 -10.7 -6.4 M-7.05 -12.0 Q-10.0 -10.3 -13.65 -10.2 -10.0 -10.3 -7.05 -12.0" fill="#fefefe" fill-rule="evenodd" stroke="none"/>
    <path d="M-10.7 -6.4 Q-14.8 -6.3 -15.05 -10.2 L-14.9 -12.8 Q-13.8 -19.8 -7.45 -16.6 1.1 -12.4 -7.05 -7.1 -8.65 -6.05 -10.7 -6.4 -9.2 -6.45 -7.05 -7.1" fill="none" stroke="#8f7c3f" stroke-linecap="round" stroke-linejoin="round" stroke-width="1.0"/>
    <path d="M-13.65 -10.2 Q-10.0 -10.3 -7.05 -12.0" fill="none" stroke="#8f7c3f" stroke-linecap="round" stroke-linejoin="round" stroke-width="1.0"/>
    <path d="M7.65 -17.35 Q9.95 -18.65 12.0 -16.0 17.35 -9.1 6.5 -7.8 2.6 -10.65 3.45 -13.3 4.1 -15.35 7.65 -17.35 M11.35 -11.95 Q7.9 -11.45 5.35 -12.7 7.9 -11.45 11.35 -11.95" fill="#fefefe" fill-rule="evenodd" stroke="none"/>
    <path d="M7.65 -17.35 Q9.95 -18.65 12.0 -16.0 17.35 -9.1 6.5 -7.8 2.6 -10.65 3.45 -13.3 4.1 -15.35 7.65 -17.35" fill="none" stroke="#8f7c3f" stroke-linecap="round" stroke-linejoin="round" stroke-width="1.0"/>
    <path d="M5.35 -12.7 Q7.9 -11.45 11.35 -11.95" fill="none" stroke="#8f7c3f" stroke-linecap="round" stroke-linejoin="round" stroke-width="1.0"/>
    <path d="M-4.2 11.75 Q-3.3 10.1 -0.1 8.3 1.25 8.5 2.7 9.25 L5.05 10.6 6.0 11.35 Q8.25 13.25 7.2 14.7 6.25 15.95 2.85 16.85 L-0.85 16.7 Q-5.9 14.55 -4.2 11.75 L-3.75 11.95 -4.2 11.75" fill="#e2d5c0" fill-rule="evenodd" stroke="none"/>
    <path d="M6.0 11.35 Q13.3 6.4 12.7 16.0 13.1 18.55 14.9 17.4 M-4.2 11.75 Q-5.9 14.55 -0.85 16.7 L2.85 16.85 Q6.25 15.95 7.2 14.7 8.25 13.25 6.0 11.35 L5.05 10.6 2.7 9.25 Q1.25 8.5 -0.1 8.3 -3.3 10.1 -4.2 11.75 L-3.75 11.95 M-4.2 11.75 Q-12.5 7.75 -8.1 15.6 -9.55 18.15 -11.45 17.45" fill="none" stroke="#8f7c3f" stroke-linecap="round" stroke-linejoin="round" stroke-width="1.0"/>
  </g>
</svg>
