<svg xmlns:xlink="http://www.w3.org/1999/xlink" height="88.25px" width="75.3px" xmlns="http://www.w3.org/2000/svg">
  <g transform="matrix(1.0, 0.0, 0.0, 1.0, 36.25, 88.35)">
    <path d="M3.75 -88.35 L3.75 -86.6 2.05 -86.6 2.05 -88.35 3.75 -88.35 M2.65 -82.95 Q1.9 -83.7 0.65 -83.65 -0.7 -83.7 -1.5 -82.8 -2.25 -82.0 -2.2 -80.7 L3.55 -80.7 Q3.45 -82.15 2.65 -82.95 M5.1 -77.1 L3.85 -75.25 Q2.8 -74.3 0.7 -74.3 -0.65 -74.3 -1.55 -74.8 L-2.2 -75.35 Q-3.75 -76.85 -3.75 -79.6 -3.75 -82.55 -2.4 -83.85 -1.6 -84.65 -0.45 -84.9 L0.7 -85.0 1.8 -84.9 Q2.95 -84.7 3.75 -83.85 5.1 -82.55 5.15 -79.6 L5.15 -79.25 -2.2 -79.25 Q-2.15 -77.3 -1.25 -76.35 -0.6 -75.65 0.7 -75.65 2.35 -75.65 2.95 -76.35 L3.75 -77.75 5.1 -77.1 M15.45 -63.05 L15.45 -61.1 13.5 -61.1 13.5 -63.05 15.45 -63.05 M15.65 -68.0 L16.35 -68.65 Q19.45 -65.75 19.45 -61.85 19.45 -58.0 16.35 -55.05 L15.65 -55.75 Q18.5 -58.4 18.5 -61.85 18.5 -65.3 15.65 -68.0 M24.55 -50.75 Q26.15 -49.25 26.85 -47.8 27.65 -46.1 27.65 -43.9 27.65 -42.0 26.85 -40.3 26.1 -38.75 24.55 -37.0 L23.85 -37.65 Q25.4 -39.35 26.05 -40.75 26.75 -42.25 26.75 -43.9 26.75 -45.9 26.05 -47.35 25.4 -48.65 23.85 -50.1 L24.55 -50.75 M18.95 -34.05 L34.95 -34.05 34.95 -33.35 34.45 -33.35 10.0 -33.35 10.0 -34.05 18.95 -34.05 M35.15 -32.8 L39.05 -32.8 39.05 -18.85 35.15 -18.85 35.15 -19.85 38.0 -19.85 38.0 -31.8 35.15 -31.8 35.15 -32.8 M32.5 -16.05 L32.5 -15.35 22.55 -15.35 22.55 -16.05 32.5 -16.05 M21.3 -16.0 L21.3 -0.1 20.05 -0.1 20.05 -0.85 20.05 -16.0 21.3 -16.0 M18.05 -0.8 L18.75 -0.8 18.75 -0.1 2.8 -0.1 2.8 -0.8 18.05 -0.8 M2.7 -0.8 L2.7 -0.75 -2.1 -0.75 -2.1 -0.8 -2.1 -1.5 2.7 -1.5 2.7 -0.8 M-2.15 -0.8 L-2.15 -0.1 -18.1 -0.1 -18.1 -0.8 -2.15 -0.8 M-19.35 -0.8 L-19.35 -0.1 -20.6 -0.1 -20.6 -16.0 -19.35 -16.0 -19.35 -0.8 M-21.2 -16.05 L-21.2 -15.35 -30.85 -15.35 -30.85 -16.05 -21.2 -16.05 M-32.3 -18.85 L-36.25 -18.85 -36.25 -32.8 -32.3 -32.8 -32.3 -31.8 -35.2 -31.8 -35.2 -19.85 -32.3 -19.85 -32.3 -18.85 M-31.0 -33.35 L-31.0 -34.0 -28.2 -34.0 -28.2 -34.05 -14.8 -34.05 -6.05 -34.05 -6.05 -33.35 -31.0 -33.35 M-21.2 -37.0 Q-22.75 -38.75 -23.5 -40.3 -24.3 -42.0 -24.3 -43.9 -24.3 -46.1 -23.5 -47.8 -22.8 -49.25 -21.2 -50.75 L-20.5 -50.1 -22.7 -47.35 Q-23.4 -45.9 -23.4 -43.9 -23.4 -42.25 -22.7 -40.75 -22.05 -39.35 -20.5 -37.65 L-21.2 -37.0 M-16.1 -55.05 Q-19.25 -58.0 -19.25 -61.85 -19.25 -65.75 -16.1 -68.65 L-15.4 -68.0 Q-18.3 -65.3 -18.3 -61.85 -18.3 -58.4 -15.4 -55.75 L-16.1 -55.05 M1.95 -64.8 L8.2 -64.8 9.6 -67.35 10.8 -66.65 5.05 -56.25 -0.7 -66.65 0.5 -67.35 1.95 -64.8 M2.55 -63.5 L5.05 -59.05 7.55 -63.5 2.55 -63.5 M18.5 -45.4 L18.5 -42.75 15.85 -42.75 15.85 -45.4 18.5 -45.4 M12.7 -48.65 L6.95 -38.25 1.2 -48.65 2.4 -49.35 3.85 -46.8 10.1 -46.8 11.5 -49.35 12.7 -48.65 M4.45 -45.5 L6.95 -41.05 9.45 -45.5 4.45 -45.5 M9.95 -34.05 L9.95 -33.35 -6.0 -33.35 -6.0 -34.05 9.95 -34.05 M-0.7 -88.35 L-0.7 -86.6 -2.45 -86.6 -2.45 -88.35 -0.7 -88.35 M-7.6 -63.05 L-7.6 -61.1 -9.55 -61.1 -9.55 -63.05 -7.6 -63.05 M-6.2 -45.4 L-6.2 -42.75 -8.85 -42.75 -8.85 -45.4 -6.2 -45.4" fill="#000000" fill-rule="evenodd" stroke="none"/>
    <path d="M2.65 -82.95 Q3.45 -82.15 3.55 -80.7 L-2.2 -80.7 Q-2.25 -82.0 -1.5 -82.8 -0.7 -83.7 0.65 -83.65 1.9 -83.7 2.65 -82.95 M5.15 -79.6 Q5.35 -78.2 5.1 -77.1 L3.75 -77.75 2.95 -76.35 Q2.35 -75.65 0.7 -75.65 -0.6 -75.65 -1.25 -76.35 -2.15 -77.3 -2.2 -79.25 L5.15 -79.25 5.15 -79.6 M15.45 -63.05 L13.5 -63.05 13.5 -61.1 15.45 -61.1 15.45 -63.05 M-16.1 -68.65 Q-13.15 -70.75 -9.55 -71.9 -5.85 -73.1 -2.1 -73.9 L0.7 -74.2 5.45 -73.6 Q9.2 -72.55 12.45 -70.95 14.8 -69.85 16.25 -68.75 L15.65 -68.0 Q18.5 -65.3 18.5 -61.85 18.5 -58.4 15.65 -55.75 L16.35 -55.05 Q20.3 -55.0 23.4 -52.7 25.2 -51.35 24.55 -50.75 L23.85 -50.1 Q25.4 -48.65 26.05 -47.35 26.75 -45.9 26.75 -43.9 26.75 -42.25 26.05 -40.75 25.4 -39.35 23.85 -37.65 L24.45 -36.85 Q22.15 -34.7 18.95 -34.05 L10.0 -34.05 9.95 -34.05 -6.0 -34.05 -6.0 -33.35 9.95 -33.35 10.0 -33.35 34.45 -33.35 35.15 -32.8 35.15 -31.8 38.0 -31.8 38.0 -19.85 35.15 -19.85 35.15 -18.85 Q33.75 -18.2 32.5 -17.05 L32.5 -16.05 22.55 -16.05 21.3 -16.0 20.05 -16.0 20.05 -0.85 18.05 -0.8 2.8 -0.8 2.7 -0.8 2.7 -1.5 -2.1 -1.5 -2.1 -0.8 -2.15 -0.8 -18.1 -0.8 -19.35 -0.8 -19.35 -16.0 -20.6 -16.0 -21.2 -16.2 -21.2 -16.05 -30.85 -16.05 -30.9 -16.05 Q-31.15 -17.85 -32.3 -18.85 L-32.3 -19.85 -35.2 -19.85 -35.2 -31.8 -32.3 -31.8 -32.3 -32.8 -31.0 -33.35 -6.05 -33.35 -6.05 -34.05 -14.8 -34.05 Q-18.35 -34.8 -21.2 -37.0 L-20.5 -37.65 Q-22.05 -39.35 -22.7 -40.75 -23.4 -42.25 -23.4 -43.9 -23.4 -45.9 -22.7 -47.35 L-20.5 -50.1 -21.15 -50.8 Q-18.85 -53.2 -15.8 -54.15 L-16.1 -55.05 -15.4 -55.75 Q-18.3 -58.4 -18.3 -61.85 -18.3 -65.3 -15.4 -68.0 L-16.1 -68.65 M4.45 -45.5 L9.45 -45.5 6.95 -41.05 4.45 -45.5 M12.7 -48.65 L11.5 -49.35 10.1 -46.8 3.85 -46.8 2.4 -49.35 1.2 -48.65 6.95 -38.25 12.7 -48.65 M18.5 -45.4 L15.85 -45.4 15.85 -42.75 18.5 -42.75 18.5 -45.4 M2.55 -63.5 L7.55 -63.5 5.05 -59.05 2.55 -63.5 M1.95 -64.8 L0.5 -67.35 -0.7 -66.65 5.05 -56.25 10.8 -66.65 9.6 -67.35 8.2 -64.8 1.95 -64.8 M-6.2 -45.4 L-8.85 -45.4 -8.85 -42.75 -6.2 -42.75 -6.2 -45.4 M-7.6 -63.05 L-9.55 -63.05 -9.55 -61.1 -7.6 -61.1 -7.6 -63.05" fill="#ffffff" fill-rule="evenodd" stroke="none"/>
  </g>
</svg>
