<svg xmlns:xlink="http://www.w3.org/1999/xlink" height="30.6px" width="87.35px" xmlns="http://www.w3.org/2000/svg">
  <g transform="matrix(1.0, 0.0, 0.0, 1.0, 36.1, 30.65)">
    <path d="M-15.9 -30.05 L-17.2 -30.05 -17.2 -30.65 20.25 -30.65 20.25 -30.05 19.15 -30.05 -15.9 -30.05 M22.7 -26.95 Q24.05 -25.75 24.6 -24.55 25.25 -23.2 25.25 -21.4 25.25 -19.85 24.6 -18.45 24.0 -17.2 22.7 -15.8 L22.15 -16.35 Q23.45 -17.7 23.95 -18.85 24.5 -20.05 24.5 -21.4 24.5 -23.05 23.95 -24.2 23.45 -25.3 22.15 -26.45 L22.7 -26.95 M20.35 -15.65 L20.35 -15.05 -17.1 -15.05 -17.1 -15.65 20.35 -15.65 M-19.45 -15.8 L-21.35 -18.45 Q-22.0 -19.85 -22.0 -21.4 -22.0 -23.2 -21.35 -24.55 L-19.7 -26.7 -19.45 -26.95 -18.9 -26.45 Q-20.2 -25.3 -20.7 -24.2 -21.25 -23.05 -21.25 -21.4 -21.25 -20.05 -20.7 -18.85 -20.2 -17.7 -18.9 -16.35 L-19.45 -15.8 M48.7 -26.95 Q50.05 -25.75 50.6 -24.55 51.25 -23.2 51.25 -21.4 51.25 -19.85 50.6 -18.45 50.0 -17.2 48.7 -15.8 L48.45 -16.05 48.15 -16.35 Q49.45 -17.7 49.95 -18.85 50.5 -20.05 50.5 -21.4 50.5 -23.05 49.95 -24.2 49.45 -25.3 48.15 -26.45 L48.7 -26.95 M33.1 -16.35 L32.55 -15.8 Q31.25 -17.2 30.65 -18.45 30.0 -19.85 30.0 -21.4 30.0 -23.2 30.65 -24.55 31.2 -25.75 32.55 -26.95 L33.1 -26.45 Q31.8 -25.3 31.3 -24.2 30.75 -23.05 30.75 -21.4 30.75 -20.05 31.3 -18.85 31.8 -17.7 33.1 -16.35 M40.0 -25.05 L38.9 -25.05 37.4 -26.3 35.9 -25.05 34.8 -25.05 36.75 -27.25 38.05 -27.25 40.0 -25.05 M10.6 -13.0 L11.6 -13.0 11.6 -0.05 10.6 -0.05 10.6 -13.0 M44.55 -27.25 L46.5 -25.05 45.4 -25.05 43.9 -26.3 42.4 -25.05 41.3 -25.05 43.25 -27.25 44.55 -27.25 M-27.35 -22.1 L-26.75 -22.95 -25.7 -22.1 -26.9 -20.75 Q-27.7 -20.0 -28.8 -20.0 -29.7 -20.0 -31.2 -20.9 -32.35 -21.6 -33.15 -21.6 -34.0 -21.6 -34.45 -21.05 L-35.0 -20.2 -36.1 -20.85 -34.95 -22.3 Q-34.2 -23.0 -33.25 -23.0 -32.2 -23.0 -30.95 -22.25 -29.6 -21.4 -28.65 -21.4 -28.0 -21.4 -27.35 -22.1 M-10.05 -13.0 L-10.05 -0.05 -11.05 -0.05 -11.05 -13.0 -10.05 -13.0" fill="#000000" fill-rule="evenodd" stroke="none"/>
    <path d="M19.15 -30.05 Q21.2 -28.95 22.7 -26.95 L22.15 -26.45 Q23.45 -25.3 23.95 -24.2 24.5 -23.05 24.5 -21.4 24.5 -20.05 23.95 -18.85 23.45 -17.7 22.15 -16.35 21.45 -15.8 20.55 -15.35 L20.35 -15.65 -17.1 -15.65 -19.45 -15.8 -18.9 -16.35 Q-20.2 -17.7 -20.7 -18.85 -21.25 -20.05 -21.25 -21.4 -21.25 -23.05 -20.7 -24.2 -20.2 -25.3 -18.9 -26.45 L-19.45 -26.95 -19.7 -26.7 Q-18.3 -29.1 -15.9 -30.05 L19.15 -30.05 M33.1 -26.45 L32.7 -27.05 Q35.05 -29.0 37.9 -29.15 L43.75 -29.1 44.4 -28.95 Q46.85 -28.4 48.7 -26.95 L48.15 -26.45 Q49.45 -25.3 49.95 -24.2 50.5 -23.05 50.5 -21.4 50.5 -20.05 49.95 -18.85 49.45 -17.7 48.15 -16.35 L48.45 -16.05 Q46.6 -14.9 44.0 -14.6 41.1 -14.25 38.15 -14.55 35.4 -14.85 32.9 -15.65 L33.1 -16.35 Q31.8 -17.7 31.3 -18.85 30.75 -20.05 30.75 -21.4 30.75 -23.05 31.3 -24.2 31.8 -25.3 33.1 -26.45 M40.0 -25.05 L38.05 -27.25 36.75 -27.25 34.8 -25.05 35.9 -25.05 37.4 -26.3 38.9 -25.05 40.0 -25.05 M44.55 -27.25 L43.25 -27.25 41.3 -25.05 42.4 -25.05 43.9 -26.3 45.4 -25.05 46.5 -25.05 44.55 -27.25" fill="#ffffff" fill-rule="evenodd" stroke="none"/>
  </g>
</svg>
