<svg xmlns:xlink="http://www.w3.org/1999/xlink" height="61.15px" width="53.0px" xmlns="http://www.w3.org/2000/svg">
  <g transform="matrix(1.0, 0.0, 0.0, 1.0, 24.95, 60.7)">
    <path d="M-24.6 -52.55 L-23.25 -52.55 -23.25 -51.3 -24.05 -49.7 -24.6 -49.7 -24.05 -51.3 -24.6 -51.3 -24.6 -52.55 M-19.25 -16.15 L-19.25 -15.7 -23.75 -15.7 -23.75 -29.3 -19.25 -29.3 -19.25 -28.8 -20.4 -27.7 Q-22.2 -25.7 -22.2 -22.55 -22.2 -18.45 -19.25 -16.15 M-21.4 -33.55 L-22.05 -32.95 Q-24.95 -35.7 -24.95 -39.3 -24.95 -42.95 -22.05 -45.7 L-21.4 -45.05 Q-24.1 -42.55 -24.1 -39.3 -24.1 -36.1 -21.4 -33.55 M-21.55 -49.7 L-21.0 -51.3 -21.55 -51.3 -21.55 -52.55 -20.85 -52.55 -20.2 -52.55 -20.2 -51.3 -21.0 -49.7 -21.55 -49.7 M-18.35 -56.65 L-18.5 -56.65 -18.5 -57.95 -17.15 -57.95 -17.15 -57.7 -17.15 -56.65 -18.35 -56.65 M-13.4 -58.95 L-12.95 -59.5 Q-11.7 -60.7 -9.65 -60.7 L-4.1 -60.7 -4.1 -59.6 -9.65 -59.6 Q-11.2 -59.6 -12.2 -58.6 -13.05 -57.7 -13.05 -56.45 -13.05 -55.15 -12.2 -54.25 -11.2 -53.25 -9.65 -53.25 L-4.1 -53.25 -4.1 -52.15 -9.65 -52.15 Q-11.7 -52.15 -12.95 -53.4 -14.25 -54.65 -14.25 -56.45 -14.25 -57.85 -13.4 -58.95 M1.5 -60.7 L7.1 -60.7 Q9.15 -60.7 10.35 -59.5 L10.65 -59.2 Q11.65 -58.0 11.65 -56.45 11.65 -54.65 10.35 -53.4 9.15 -52.15 7.1 -52.15 L1.5 -52.15 1.5 -53.25 7.1 -53.25 Q8.6 -53.25 9.6 -54.25 10.5 -55.15 10.5 -56.45 10.5 -57.7 9.6 -58.6 8.6 -59.6 7.1 -59.6 L1.5 -59.6 1.5 -60.7 M14.55 -57.95 L15.9 -57.95 15.9 -56.65 14.55 -56.65 14.55 -57.95 M20.4 -52.2 L21.15 -53.25 23.15 -50.8 22.35 -49.7 20.4 -52.2 M24.45 -45.05 L25.1 -45.7 Q28.05 -42.95 28.05 -39.3 28.05 -35.7 25.1 -32.95 L24.45 -33.55 Q27.15 -36.1 27.15 -39.3 27.15 -42.55 24.45 -45.05 M19.3 -28.15 L19.95 -28.75 Q21.5 -27.35 22.15 -26.0 22.9 -24.4 22.9 -22.35 22.9 -20.55 22.15 -18.95 21.45 -17.5 19.95 -15.85 L19.3 -16.5 Q20.8 -18.1 21.35 -19.4 22.0 -20.8 22.0 -22.35 22.0 -24.25 21.35 -25.6 20.8 -26.85 19.3 -28.15 M10.1 -10.55 L11.45 -10.55 11.45 -9.25 10.65 -7.5 10.1 -7.5 10.65 -9.25 10.1 -9.25 10.1 -10.55 M7.25 -4.95 L8.55 -4.4 Q7.8 0.45 3.9 0.45 2.05 0.5 1.3 -0.45 0.6 -1.35 0.5 -3.45 L0.5 -11.55 1.7 -11.55 1.7 -3.45 Q1.7 -1.95 2.2 -1.4 2.75 -0.85 4.4 -0.9 5.65 -1.0 6.4 -2.1 7.0 -3.05 7.25 -4.95 M-2.45 -10.55 L-2.45 -9.25 -3.25 -7.5 -3.65 -7.5 -3.8 -7.5 -3.25 -9.25 -3.8 -9.25 -3.8 -10.55 -2.45 -10.55 M-6.65 -4.95 L-5.35 -4.4 Q-6.1 0.45 -10.0 0.45 -11.85 0.5 -12.6 -0.45 -13.3 -1.35 -13.4 -3.45 L-13.4 -11.55 -12.2 -11.55 -12.2 -3.45 Q-12.2 -1.95 -11.7 -1.4 -11.15 -0.85 -9.5 -0.9 -8.25 -1.0 -7.5 -2.1 -6.9 -3.05 -6.65 -4.95 M18.95 -52.55 L18.95 -51.3 18.15 -49.7 17.6 -49.7 18.15 -51.3 17.6 -51.3 17.6 -52.55 18.95 -52.55 M-18.5 -49.7 L-17.95 -51.3 -18.5 -51.3 -18.5 -52.55 -17.15 -52.55 -17.15 -51.3 -17.95 -49.7 -18.5 -49.7 M14.55 -49.7 L15.1 -51.3 14.55 -51.3 14.55 -52.55 15.9 -52.55 15.9 -51.3 15.1 -49.7 14.55 -49.7 M16.5 -44.4 Q18.25 -44.4 19.55 -43.1 20.75 -41.9 20.75 -39.85 L20.75 -34.3 19.65 -34.3 19.65 -39.85 Q19.65 -41.35 18.65 -42.35 17.8 -43.25 16.5 -43.25 15.2 -43.25 14.3 -42.35 13.35 -41.35 13.35 -39.85 L13.35 -34.3 12.2 -34.3 12.2 -39.85 Q12.2 -41.9 13.45 -43.1 14.75 -44.4 16.5 -44.4 M6.55 -38.25 L4.0 -38.25 4.0 -40.8 6.55 -40.8 6.55 -38.25 M-0.55 -43.85 L-5.95 -34.05 -11.35 -43.85 -10.25 -44.45 -8.9 -42.05 -3.0 -42.05 -1.65 -44.45 -0.55 -43.85 M2.8 -25.5 Q4.1 -24.2 4.1 -22.45 4.1 -20.65 2.8 -19.4 1.6 -18.15 -0.45 -18.15 L-6.05 -18.15 -6.05 -19.25 -0.45 -19.25 Q1.05 -19.25 2.05 -20.25 2.95 -21.15 2.95 -22.45 2.95 -23.7 2.05 -24.6 1.05 -25.6 -0.45 -25.6 L-6.05 -25.6 -6.05 -26.7 -0.45 -26.7 Q1.6 -26.7 2.8 -25.5 M13.25 -27.4 L14.15 -27.4 13.8 -24.8 15.75 -24.8 16.1 -27.4 17.05 -27.4 16.7 -24.8 17.8 -24.8 17.8 -23.65 16.5 -23.65 16.15 -21.2 17.8 -21.2 17.8 -20.1 16.05 -20.1 15.65 -17.4 14.7 -17.4 15.1 -20.1 13.15 -20.1 12.75 -17.4 11.8 -17.4 12.25 -20.1 11.05 -20.1 11.05 -21.2 12.35 -21.2 12.7 -23.65 11.05 -23.65 11.05 -24.8 12.9 -24.8 13.25 -27.4 M-3.6 -40.85 L-8.3 -40.85 -5.95 -36.7 -3.6 -40.85 M-18.5 -40.8 L-15.95 -40.8 -15.95 -38.25 -18.5 -38.25 -18.5 -40.8 M-13.9 -28.05 Q-16.6 -25.55 -16.6 -22.3 -16.6 -19.1 -13.9 -16.55 L-14.55 -15.95 Q-17.45 -18.7 -17.45 -22.3 -17.45 -25.95 -14.55 -28.7 L-13.9 -28.05 M13.3 -21.2 L15.2 -21.2 15.55 -23.65 13.65 -23.65 13.3 -21.2" fill="#000000" fill-rule="evenodd" stroke="none"/>
    <path d="M-19.25 -29.3 Q-16.35 -30.15 -17.15 -31.3 -19.15 -32.15 -21.4 -33.55 -24.1 -36.1 -24.1 -39.3 -24.1 -42.55 -21.4 -45.05 L-22.05 -45.7 Q-22.05 -47.85 -21.65 -49.7 L-21.55 -49.7 -21.0 -49.7 -20.2 -51.3 -20.2 -52.55 -20.85 -52.55 -19.55 -55.1 -18.35 -56.65 -17.15 -56.65 -17.15 -57.7 -17.05 -57.8 Q-15.4 -58.95 -13.4 -58.95 -14.25 -57.85 -14.25 -56.45 -14.25 -54.65 -12.95 -53.4 -11.7 -52.15 -9.65 -52.15 L-4.1 -52.15 -4.1 -53.25 -9.65 -53.25 Q-11.2 -53.25 -12.2 -54.25 -13.05 -55.15 -13.05 -56.45 -13.05 -57.7 -12.2 -58.6 -11.2 -59.6 -9.65 -59.6 L-4.1 -59.6 -4.1 -60.7 1.5 -60.7 1.5 -59.6 7.1 -59.6 Q8.6 -59.6 9.6 -58.6 10.5 -57.7 10.5 -56.45 10.5 -55.15 9.6 -54.25 8.6 -53.25 7.1 -53.25 L1.5 -53.25 1.5 -52.15 7.1 -52.15 Q9.15 -52.15 10.35 -53.4 11.65 -54.65 11.65 -56.45 11.65 -58.0 10.65 -59.2 12.65 -59.25 14.55 -57.95 L14.55 -56.65 20.4 -52.2 22.35 -49.7 Q23.65 -47.65 24.45 -45.05 27.15 -42.55 27.15 -39.3 27.15 -36.1 24.45 -33.55 22.2 -30.55 17.2 -29.95 L19.3 -28.15 Q20.8 -26.85 21.35 -25.6 22.0 -24.25 22.0 -22.35 22.0 -20.8 21.35 -19.4 20.8 -18.1 19.3 -16.5 18.3 -13.75 15.35 -12.8 12.9 -11.95 10.1 -10.55 L10.1 -9.25 10.65 -9.25 10.1 -7.5 10.3 -7.2 7.25 -4.95 Q7.0 -3.05 6.4 -2.1 5.65 -1.0 4.4 -0.9 2.75 -0.85 2.2 -1.4 1.7 -1.95 1.7 -3.45 L1.7 -11.55 0.5 -11.55 Q-1.8 -11.1 -2.45 -10.55 L-3.8 -10.55 -3.8 -9.25 -3.25 -9.25 -3.8 -7.5 -3.65 -7.5 -3.65 -7.25 -6.65 -4.95 Q-6.9 -3.05 -7.5 -2.1 -8.25 -1.0 -9.5 -0.9 -11.15 -0.85 -11.7 -1.4 -12.2 -1.95 -12.2 -3.45 L-12.2 -11.55 -13.4 -11.55 Q-14.95 -12.65 -17.65 -13.8 L-19.05 -15.85 -19.25 -16.15 Q-22.2 -18.45 -22.2 -22.55 -22.2 -25.7 -20.4 -27.7 L-19.25 -28.8 -19.25 -29.3 M13.3 -21.2 L13.65 -23.65 15.55 -23.65 15.2 -21.2 13.3 -21.2 M-13.9 -28.05 L-14.55 -28.7 Q-17.45 -25.95 -17.45 -22.3 -17.45 -18.7 -14.55 -15.95 L-13.9 -16.55 Q-16.6 -19.1 -16.6 -22.3 -16.6 -25.55 -13.9 -28.05 M-18.5 -40.8 L-18.5 -38.25 -15.95 -38.25 -15.95 -40.8 -18.5 -40.8 M-3.6 -40.85 L-5.95 -36.7 -8.3 -40.85 -3.6 -40.85 M13.25 -27.4 L12.9 -24.8 11.05 -24.8 11.05 -23.65 12.7 -23.65 12.35 -21.2 11.05 -21.2 11.05 -20.1 12.25 -20.1 11.8 -17.4 12.75 -17.4 13.15 -20.1 15.1 -20.1 14.7 -17.4 15.65 -17.4 16.05 -20.1 17.8 -20.1 17.8 -21.2 16.15 -21.2 16.5 -23.65 17.8 -23.65 17.8 -24.8 16.7 -24.8 17.05 -27.4 16.1 -27.4 15.75 -24.8 13.8 -24.8 14.15 -27.4 13.25 -27.4 M2.8 -25.5 Q1.6 -26.7 -0.45 -26.7 L-6.05 -26.7 -6.05 -25.6 -0.45 -25.6 Q1.05 -25.6 2.05 -24.6 2.95 -23.7 2.95 -22.45 2.95 -21.15 2.05 -20.25 1.05 -19.25 -0.45 -19.25 L-6.05 -19.25 -6.05 -18.15 -0.45 -18.15 Q1.6 -18.15 2.8 -19.4 4.1 -20.65 4.1 -22.45 4.1 -24.2 2.8 -25.5 M-0.55 -43.85 L-1.65 -44.45 -3.0 -42.05 -8.9 -42.05 -10.25 -44.45 -11.35 -43.85 -5.95 -34.05 -0.55 -43.85 M6.55 -38.25 L6.55 -40.8 4.0 -40.8 4.0 -38.25 6.55 -38.25 M16.5 -44.4 Q14.75 -44.4 13.45 -43.1 12.2 -41.9 12.2 -39.85 L12.2 -34.3 13.35 -34.3 13.35 -39.85 Q13.35 -41.35 14.3 -42.35 15.2 -43.25 16.5 -43.25 17.8 -43.25 18.65 -42.35 19.65 -41.35 19.65 -39.85 L19.65 -34.3 20.75 -34.3 20.75 -39.85 Q20.75 -41.9 19.55 -43.1 18.25 -44.4 16.5 -44.4 M14.55 -49.7 L15.1 -49.7 15.9 -51.3 15.9 -52.55 14.55 -52.55 14.55 -51.3 15.1 -51.3 14.55 -49.7 M-18.5 -49.7 L-17.95 -49.7 -17.15 -51.3 -17.15 -52.55 -18.5 -52.55 -18.5 -51.3 -17.95 -51.3 -18.5 -49.7 M18.95 -52.55 L17.6 -52.55 17.6 -51.3 18.15 -51.3 17.6 -49.7 18.15 -49.7 18.95 -51.3 18.95 -52.55" fill="#ffffff" fill-rule="evenodd" stroke="none"/>
  </g>
</svg>
