<?xml version="1.0" encoding="UTF-8" standalone="no"?>
<svg xmlns:ffdec="https://www.free-decompiler.com/flash" xmlns:xlink="http://www.w3.org/1999/xlink" ffdec:objectType="shape" height="69.1px" width="68.45px" xmlns="http://www.w3.org/2000/svg">
  <g transform="matrix(1.0, 0.0, 0.0, 1.0, 32.75, 69.35)">
    <path d="M2.25 -55.8 Q3.2 -55.15 3.4 -56.45 3.6 -57.7 2.35 -58.0 -0.35 -55.7 2.45 -53.05 3.05 -52.5 3.7 -52.6 6.55 -53.0 6.65 -56.0 6.65 -57.85 5.7 -59.3 4.6 -60.95 2.5 -60.7 -0.95 -60.3 -1.7 -56.85 -1.95 -55.65 -1.65 -54.35 -0.6 -50.1 3.5 -50.9 -0.6 -50.1 -1.65 -54.35 -1.95 -55.65 -1.7 -56.85 -0.95 -60.3 2.5 -60.7 4.6 -60.95 5.7 -59.3 6.65 -57.85 6.65 -56.0 6.55 -53.0 3.7 -52.6 3.05 -52.5 2.45 -53.05 -0.35 -55.7 2.35 -58.0 3.6 -57.7 3.4 -56.45 3.2 -55.15 2.25 -55.8 M-0.05 -36.85 Q-1.6 -37.2 -2.7 -38.05 L-3.1 -38.4 -4.5 -38.45 -5.45 -38.55 -5.95 -38.6 Q-8.2 -39.0 -10.3 -39.95 -14.2 -41.75 -16.45 -45.4 -17.85 -47.65 -18.25 -50.05 -18.85 -53.95 -15.3 -55.55 -13.75 -56.3 -12.45 -57.5 -9.55 -60.2 -7.05 -63.4 -4.5 -66.7 -0.85 -68.65 1.85 -70.1 4.7 -68.6 8.45 -66.55 10.65 -63.1 12.75 -59.7 15.85 -57.1 18.0 -55.3 19.7 -53.15 L20.95 -51.25 Q22.2 -48.65 21.25 -45.65 L21.0 -45.0 21.35 -45.2 Q23.5 -46.0 25.8 -45.85 L26.5 -43.9 28.5 -43.6 Q29.8 -43.35 30.55 -42.1 L30.6 -42.0 30.95 -40.75 Q30.95 -39.9 30.4 -38.95 28.8 -36.05 25.95 -34.95 27.4 -32.55 26.5 -29.8 L25.95 -29.05 Q24.85 -28.15 23.3 -28.0 L21.75 -27.9 Q18.4 -27.7 15.3 -28.85 12.05 -30.1 9.45 -32.35 7.95 -33.65 7.15 -35.3 L7.15 -34.0 7.2 -30.4 7.2 -28.7 7.25 -25.3 7.35 -22.0 7.8 -18.7 8.15 -16.75 Q8.5 -14.85 9.15 -13.05 L10.3 -9.7 Q12.05 -10.95 12.45 -12.85 13.1 -12.75 13.0 -11.75 12.9 -11.05 13.1 -10.3 L13.1 -10.25 13.2 -10.4 13.15 -10.2 12.95 -9.4 12.8 -8.7 12.1 -5.75 11.6 -4.0 Q11.1 -2.55 10.15 -1.55 L10.05 -1.45 10.15 -1.55 Q11.1 -2.55 11.6 -4.0 L12.1 -5.75 Q12.55 -5.0 13.45 -4.65 L15.4 -4.3 Q16.8 -4.35 18.0 -5.05 L18.4 -5.25 Q19.1 -5.5 20.4 -7.6 L19.95 -5.4 Q19.85 -4.4 19.2 -3.5 18.55 -2.6 17.9 -2.25 15.55 -0.95 12.9 -0.9 L11.25 -1.0 10.45 -1.15 10.05 -1.45 9.5 -0.95 Q8.35 -0.05 6.85 -0.3 6.55 -0.35 6.25 -0.6 L4.85 -2.05 4.8 -2.15 Q3.6 -3.75 3.3 -5.9 L2.8 -7.55 Q1.6 -10.15 1.6 -12.85 L1.8 -15.0 2.3 -21.75 2.4 -28.3 Q2.25 -31.6 2.55 -34.7 2.25 -31.6 2.4 -28.3 L2.3 -21.75 1.8 -15.0 1.6 -12.85 Q1.6 -10.15 2.8 -7.55 L3.3 -5.9 Q3.6 -3.75 4.8 -2.15 L4.85 -2.05 4.25 -2.05 3.95 -2.15 2.75 -3.0 Q2.6 -2.1 1.75 -2.1 L1.2 -2.2 Q0.25 -2.5 -0.35 -3.65 L0.6 -6.45 0.95 -8.1 1.6 -12.85 0.95 -8.1 0.6 -6.45 -0.35 -3.65 Q-0.8 -2.1 -2.0 -0.95 -3.35 0.3 -4.4 -0.75 L-5.5 -1.95 Q-8.1 -0.6 -9.5 -0.4 L-11.45 -0.4 -13.2 -0.75 Q-15.1 -1.3 -16.75 -2.65 -18.05 -3.7 -18.5 -5.25 L-19.8 -8.8 Q-19.0 -7.25 -17.8 -6.05 -16.65 -4.9 -15.05 -4.15 -12.2 -2.75 -10.05 -4.9 L-8.45 -6.8 -8.2 -6.25 Q-7.65 -4.8 -6.75 -3.55 L-5.5 -1.95 -6.75 -3.55 Q-7.65 -4.8 -8.2 -6.25 L-8.45 -6.8 Q-9.45 -9.6 -9.8 -12.45 -9.15 -10.55 -7.75 -9.2 -7.45 -11.4 -7.5 -13.25 -6.65 -12.8 -6.1 -11.8 L-5.85 -11.55 -5.8 -11.55 -5.75 -11.7 Q-4.7 -14.35 -4.2 -17.1 -3.7 -20.45 -3.65 -23.85 L-3.65 -30.8 Q-3.65 -33.3 -4.0 -35.65 L-6.45 -31.65 Q-8.2 -28.75 -10.8 -26.6 -13.75 -24.25 -17.1 -26.0 L-20.4 -27.7 Q-23.5 -29.25 -25.8 -31.7 L-28.2 -34.55 -31.9 -39.9 Q-33.5 -42.1 -32.0 -44.1 -30.3 -43.95 -29.45 -42.15 L-26.55 -36.05 Q-24.95 -32.9 -21.9 -30.9 -19.0 -29.0 -15.5 -29.6 -13.55 -29.95 -11.6 -30.65 -10.1 -31.2 -9.1 -32.3 -6.8 -35.0 -5.5 -38.4 L-4.3 -38.3 -3.1 -38.25 -2.8 -37.95 -2.75 -37.95 Q-1.85 -37.25 -0.6 -36.95 L-0.05 -36.85 1.35 -36.7 7.2 -36.9 7.55 -36.9 Q10.35 -35.15 13.3 -33.75 L14.8 -33.3 Q18.3 -32.65 21.5 -33.95 L23.05 -34.6 23.95 -35.0 24.65 -35.3 Q25.45 -35.7 25.9 -35.0 L25.95 -34.95 25.3 -34.75 25.95 -34.95 25.9 -35.0 Q25.45 -35.7 24.65 -35.3 L23.95 -35.0 23.05 -34.6 Q21.3 -34.15 19.55 -35.8 L19.4 -35.95 Q19.75 -35.3 18.45 -34.95 L17.95 -35.35 Q16.95 -36.45 18.55 -37.3 18.35 -37.9 18.45 -38.6 18.55 -39.5 19.1 -40.3 L19.4 -40.75 19.65 -41.05 Q19.55 -42.35 19.9 -43.4 L19.7 -43.2 16.95 -40.75 13.25 -38.25 Q11.6 -37.35 9.65 -37.1 L9.25 -37.1 7.55 -36.9 7.2 -36.9 7.15 -35.3 7.2 -36.9 1.35 -36.7 -0.05 -36.85 M30.55 -42.25 Q30.5 -43.55 30.9 -44.55 L31.4 -44.55 35.7 -44.1 Q35.35 -42.05 34.35 -40.35 33.45 -38.9 32.1 -40.45 L31.4 -41.45 31.15 -42.15 30.55 -42.25 M26.5 -43.9 L25.85 -43.9 26.5 -43.9 M21.8 -43.95 Q21.4 -43.8 21.8 -43.0 23.05 -43.7 24.55 -43.85 L25.85 -43.9 Q25.0 -45.4 23.8 -44.7 L21.8 -43.95 M21.7 -40.75 Q21.1 -40.15 21.0 -39.1 20.75 -36.85 22.55 -37.1 L23.05 -37.2 Q23.95 -37.65 25.05 -38.45 L25.85 -39.35 Q26.3 -40.2 26.25 -40.75 26.1 -41.6 24.55 -41.65 L23.3 -41.55 Q22.25 -41.35 21.7 -40.75 22.25 -41.35 23.3 -41.55 L24.55 -41.65 Q26.1 -41.6 26.25 -40.75 26.3 -40.2 25.85 -39.35 L25.05 -38.45 Q23.95 -37.65 23.05 -37.2 L22.55 -37.1 Q20.75 -36.85 21.0 -39.1 21.1 -40.15 21.7 -40.75 M0.7 -44.0 Q2.05 -44.15 3.2 -44.7 L1.75 -46.85 0.7 -44.0 0.3 -43.3 0.05 -43.95 0.3 -43.3 0.7 -44.0 0.55 -44.0 0.05 -43.95 -0.6 -47.1 -3.2 -44.15 0.05 -43.95 -3.2 -44.15 -0.6 -47.1 0.05 -43.95 0.55 -44.0 0.7 -44.0 1.75 -46.85 3.2 -44.7 Q4.9 -45.6 6.05 -47.55 5.0 -47.05 3.5 -46.95 L-0.6 -47.1 -3.85 -47.8 -3.8 -47.1 Q-3.85 -45.2 -3.25 -44.15 L-3.2 -44.15 -3.25 -44.15 Q-3.85 -45.2 -3.8 -47.1 L-3.85 -47.8 -0.6 -47.1 3.5 -46.95 Q5.0 -47.05 6.05 -47.55 4.9 -45.6 3.2 -44.7 2.05 -44.15 0.7 -44.0 M5.05 -35.4 Q4.75 -31.95 4.9 -28.45 L5.0 -21.55 Q4.95 -18.15 5.5 -14.8 6.05 -11.4 7.5 -8.2 8.3 -6.4 10.1 -7.25 L11.0 -7.8 11.05 -7.8 11.25 -7.95 Q12.45 -8.9 13.1 -10.2 L13.1 -10.25 12.95 -9.4 13.1 -10.25 13.1 -10.2 Q12.45 -8.9 11.25 -7.95 L11.05 -7.8 11.0 -7.8 10.1 -7.25 Q8.3 -6.4 7.5 -8.2 6.05 -11.4 5.5 -14.8 4.95 -18.15 5.0 -21.55 L4.9 -28.45 Q4.75 -31.95 5.05 -35.4 M18.55 -37.3 Q18.75 -36.6 19.4 -35.95 18.75 -36.6 18.55 -37.3 M-4.35 -37.5 L-4.0 -35.65 -4.35 -37.5 M10.3 -9.7 L10.35 -9.5 11.05 -7.8 10.35 -9.5 10.3 -9.7 M-0.8 -35.55 L-0.75 -33.1 Q-0.35 -29.75 -0.45 -26.35 L-0.75 -19.8 -0.9 -13.2 Q-0.9 -9.75 -2.25 -6.45 -4.1 -6.1 -5.4 -7.4 L-6.0 -7.95 -7.15 -8.7 -6.2 -10.6 -5.8 -11.55 -6.2 -10.6 -7.15 -8.7 -6.0 -7.95 -5.4 -7.4 Q-4.1 -6.1 -2.25 -6.45 -0.9 -9.75 -0.9 -13.2 L-0.75 -19.8 -0.45 -26.35 Q-0.35 -29.75 -0.75 -33.1 L-0.8 -35.55 M-6.95 -57.2 Q-5.6 -57.85 -7.15 -59.2 -9.0 -57.95 -7.55 -56.0 L-6.25 -55.95 Q-5.25 -57.2 -5.2 -58.8 -5.25 -61.6 -7.15 -61.5 L-8.7 -61.35 Q-10.3 -59.2 -9.8 -56.25 -9.4 -54.1 -7.75 -54.75 -9.4 -54.1 -9.8 -56.25 -10.3 -59.2 -8.7 -61.35 L-7.15 -61.5 Q-5.25 -61.6 -5.2 -58.8 -5.25 -57.2 -6.25 -55.95 L-7.55 -56.0 Q-9.0 -57.95 -7.15 -59.2 -5.6 -57.85 -6.95 -57.2 M-10.4 -51.5 Q-10.55 -49.2 -9.55 -47.45 L-9.6 -47.4 -9.3 -47.15 Q-8.3 -47.8 -7.7 -49.35 L-7.15 -45.65 -7.05 -45.6 -4.6 -48.05 -4.55 -48.05 -3.85 -47.8 Q-3.9 -48.5 -4.15 -48.6 L-4.6 -48.05 -5.85 -48.5 -7.7 -49.35 Q-9.2 -50.25 -10.4 -51.5 -11.2 -52.3 -11.8 -53.25 -12.45 -52.35 -11.8 -50.7 -11.05 -48.8 -9.6 -47.4 L-9.9 -46.85 -9.3 -47.15 -8.9 -46.85 -7.15 -45.65 -7.15 -45.55 -7.05 -45.6 Q-5.25 -44.55 -3.25 -44.15 -5.25 -44.55 -7.05 -45.6 L-7.15 -45.55 -7.15 -45.65 -8.9 -46.85 -9.3 -47.15 -9.9 -46.85 -9.6 -47.4 Q-11.05 -48.8 -11.8 -50.7 -12.45 -52.35 -11.8 -53.25 -11.2 -52.3 -10.4 -51.5 -9.2 -50.25 -7.7 -49.35 L-5.85 -48.5 -4.6 -48.05 -4.15 -48.6 Q-3.9 -48.5 -3.85 -47.8 L-4.55 -48.05 -4.6 -48.05 -7.05 -45.6 -7.15 -45.65 -7.7 -49.35 Q-8.3 -47.8 -9.3 -47.15 L-9.6 -47.4 -9.55 -47.45 Q-10.55 -49.2 -10.4 -51.5 M21.8 -43.0 Q20.6 -42.3 19.65 -41.05 20.6 -42.3 21.8 -43.0 M19.9 -43.4 L21.0 -45.0 19.9 -43.4 M-7.15 -8.7 L-7.75 -9.2 -7.15 -8.7" fill="#ffffff" fill-rule="evenodd" stroke="none"/>
    <path d="M3.5 -50.9 Q-0.6 -50.1 -1.65 -54.35 -1.95 -55.65 -1.7 -56.85 -0.95 -60.3 2.5 -60.7 4.6 -60.95 5.7 -59.3 6.65 -57.85 6.65 -56.0 6.55 -53.0 3.7 -52.6 3.05 -52.5 2.45 -53.05 -0.35 -55.7 2.35 -58.0 3.6 -57.7 3.4 -56.45 3.2 -55.15 2.25 -55.8 M-0.05 -36.85 Q-1.6 -37.2 -2.7 -38.05 L-3.1 -38.4 -4.5 -38.45 -5.45 -38.55 -5.95 -38.6 Q-8.2 -39.0 -10.3 -39.95 -14.2 -41.75 -16.45 -45.4 -17.85 -47.65 -18.25 -50.05 -18.85 -53.95 -15.3 -55.55 -13.75 -56.3 -12.45 -57.5 -9.55 -60.2 -7.05 -63.4 -4.5 -66.7 -0.85 -68.65 1.85 -70.1 4.7 -68.6 8.45 -66.55 10.65 -63.1 12.75 -59.7 15.85 -57.1 18.0 -55.3 19.7 -53.15 L20.95 -51.25 Q22.2 -48.65 21.25 -45.65 L21.0 -45.0 21.35 -45.2 Q23.5 -46.0 25.8 -45.85 L26.5 -43.9 28.5 -43.6 Q29.8 -43.35 30.55 -42.1 L30.55 -42.25 Q30.5 -43.55 30.9 -44.55 L31.4 -44.55 35.7 -44.1 Q35.35 -42.05 34.35 -40.35 33.45 -38.9 32.1 -40.45 L31.4 -41.45 31.15 -42.15 M30.55 -42.1 L30.6 -42.0 30.95 -40.75 Q30.95 -39.9 30.4 -38.95 28.8 -36.05 25.95 -34.95 27.4 -32.55 26.5 -29.8 L25.95 -29.05 Q24.85 -28.15 23.3 -28.0 L21.75 -27.9 Q18.4 -27.7 15.3 -28.85 12.05 -30.1 9.45 -32.35 7.95 -33.65 7.15 -35.3 L7.15 -34.0 7.2 -30.4 7.2 -28.7 7.25 -25.3 7.35 -22.0 7.8 -18.7 8.15 -16.75 Q8.5 -14.85 9.15 -13.05 L10.3 -9.7 Q12.05 -10.95 12.45 -12.85 13.1 -12.75 13.0 -11.75 12.9 -11.05 13.1 -10.3 L13.1 -10.25 13.2 -10.4 13.45 -11.05 13.55 -11.6 M25.85 -43.9 L26.5 -43.9 M21.8 -43.95 Q21.4 -43.8 21.8 -43.0 23.05 -43.7 24.55 -43.85 L25.85 -43.9 Q25.0 -45.4 23.8 -44.7 L21.8 -43.95 M21.7 -40.75 Q22.25 -41.35 23.3 -41.55 L24.55 -41.65 Q26.1 -41.6 26.25 -40.75 26.3 -40.2 25.85 -39.35 L25.05 -38.45 Q23.95 -37.65 23.05 -37.2 L22.55 -37.1 Q20.75 -36.85 21.0 -39.1 21.1 -40.15 21.7 -40.75 M23.05 -34.6 L23.95 -35.0 24.65 -35.3 Q25.45 -35.7 25.9 -35.0 L25.95 -34.95 25.3 -34.75 M23.05 -34.6 Q21.3 -34.15 19.55 -35.8 L19.4 -35.95 Q19.75 -35.3 18.45 -34.95 L17.95 -35.35 Q16.95 -36.45 18.55 -37.3 18.35 -37.9 18.45 -38.6 18.55 -39.5 19.1 -40.3 L19.4 -40.75 19.65 -41.05 Q19.55 -42.35 19.9 -43.4 L19.7 -43.2 16.95 -40.75 13.25 -38.25 Q11.6 -37.35 9.65 -37.1 L9.25 -37.1 7.55 -36.9 Q10.35 -35.15 13.3 -33.75 L14.8 -33.3 Q18.3 -32.65 21.5 -33.95 L23.05 -34.6 M0.05 -43.95 L0.3 -43.3 0.7 -44.0 0.55 -44.0 0.05 -43.95 -0.6 -47.1 -3.2 -44.15 0.05 -43.95 M0.7 -44.0 L1.75 -46.85 3.2 -44.7 Q4.9 -45.6 6.05 -47.55 5.0 -47.05 3.5 -46.95 L-0.6 -47.1 -3.85 -47.8 -3.8 -47.1 Q-3.85 -45.2 -3.25 -44.15 L-3.2 -44.15 M3.2 -44.7 Q2.05 -44.15 0.7 -44.0 M7.55 -36.9 L7.2 -36.9 7.15 -35.3 M2.55 -34.7 Q2.25 -31.6 2.4 -28.3 L2.3 -21.75 1.8 -15.0 1.6 -12.85 Q1.6 -10.15 2.8 -7.55 L3.3 -5.9 Q3.6 -3.75 4.8 -2.15 L4.85 -2.05 6.25 -0.6 Q6.55 -0.35 6.85 -0.3 8.35 -0.05 9.5 -0.95 L10.05 -1.45 10.15 -1.55 Q11.1 -2.55 11.6 -4.0 L12.1 -5.75 12.8 -8.7 12.95 -9.4 13.1 -10.25 13.1 -10.2 Q12.45 -8.9 11.25 -7.95 L11.05 -7.8 11.0 -7.8 10.1 -7.25 Q8.3 -6.4 7.5 -8.2 6.05 -11.4 5.5 -14.8 4.95 -18.15 5.0 -21.55 L4.9 -28.45 Q4.75 -31.95 5.05 -35.4 M7.2 -36.9 L1.35 -36.7 -0.05 -36.85 M-5.5 -38.4 Q-6.8 -35.0 -9.1 -32.3 -10.1 -31.2 -11.6 -30.65 -13.55 -29.95 -15.5 -29.6 -19.0 -29.0 -21.9 -30.9 -24.95 -32.9 -26.55 -36.05 L-29.45 -42.15 Q-30.3 -43.95 -32.0 -44.1 -33.5 -42.1 -31.9 -39.9 L-28.2 -34.55 -25.8 -31.7 Q-23.5 -29.25 -20.4 -27.7 L-17.1 -26.0 Q-13.75 -24.25 -10.8 -26.6 -8.2 -28.75 -6.45 -31.65 L-4.0 -35.65 -4.35 -37.5 M19.4 -35.95 Q18.75 -36.6 18.55 -37.3 M1.6 -12.85 L0.95 -8.1 0.6 -6.45 -0.35 -3.65 Q0.25 -2.5 1.2 -2.2 L1.75 -2.1 Q2.6 -2.1 2.75 -3.0 L3.95 -2.15 4.25 -2.05 4.85 -2.05 M13.2 -10.4 L13.15 -10.2 12.95 -9.4 M11.05 -7.8 L10.35 -9.5 10.3 -9.7 M12.1 -5.75 Q12.55 -5.0 13.45 -4.65 L15.4 -4.3 Q16.8 -4.35 18.0 -5.05 L18.4 -5.25 Q19.1 -5.5 20.4 -7.6 L19.95 -5.4 Q19.85 -4.4 19.2 -3.5 18.55 -2.6 17.9 -2.25 15.55 -0.95 12.9 -0.9 L11.25 -1.0 10.45 -1.15 10.05 -1.45 M21.0 -45.0 L19.9 -43.4 M19.65 -41.05 Q20.6 -42.3 21.8 -43.0 M-3.25 -44.15 Q-5.25 -44.55 -7.05 -45.6 L-7.15 -45.55 -7.15 -45.65 -8.9 -46.85 -9.3 -47.15 -9.9 -46.85 -9.6 -47.4 Q-11.05 -48.8 -11.8 -50.7 -12.45 -52.35 -11.8 -53.25 -11.2 -52.3 -10.4 -51.5 -9.2 -50.25 -7.7 -49.35 L-5.85 -48.5 -4.6 -48.05 -4.15 -48.6 Q-3.9 -48.5 -3.85 -47.8 L-4.55 -48.05 -4.6 -48.05 -7.05 -45.6 -7.15 -45.65 -7.7 -49.35 Q-8.3 -47.8 -9.3 -47.15 L-9.6 -47.4 -9.55 -47.45 Q-10.55 -49.2 -10.4 -51.5 M-7.75 -54.75 Q-9.4 -54.1 -9.8 -56.25 -10.3 -59.2 -8.7 -61.35 L-7.15 -61.5 Q-5.25 -61.6 -5.2 -58.8 -5.25 -57.2 -6.25 -55.95 L-7.55 -56.0 Q-9.0 -57.95 -7.15 -59.2 -5.6 -57.85 -6.95 -57.2 M-5.8 -11.55 L-6.2 -10.6 -7.15 -8.7 -6.0 -7.95 -5.4 -7.4 Q-4.1 -6.1 -2.25 -6.45 -0.9 -9.75 -0.9 -13.2 L-0.75 -19.8 -0.45 -26.35 Q-0.35 -29.75 -0.75 -33.1 L-0.8 -35.55 M-4.0 -35.65 Q-3.65 -33.3 -3.65 -30.8 L-3.65 -23.85 Q-3.7 -20.45 -4.2 -17.1 -4.7 -14.35 -5.75 -11.7 L-5.8 -11.55 -5.85 -11.55 -6.1 -11.8 Q-6.65 -12.8 -7.5 -13.25 -7.45 -11.4 -7.75 -9.2 L-7.15 -8.7 M-9.85 -13.05 L-9.8 -12.45 Q-9.15 -10.55 -7.75 -9.2 M-8.45 -6.8 L-10.05 -4.9 Q-12.2 -2.75 -15.05 -4.15 -16.65 -4.9 -17.8 -6.05 -19.0 -7.25 -19.8 -8.8 L-18.5 -5.25 Q-18.05 -3.7 -16.75 -2.65 -15.1 -1.3 -13.2 -0.75 L-11.45 -0.4 -9.5 -0.4 Q-8.1 -0.6 -5.5 -1.95 L-6.75 -3.55 Q-7.65 -4.8 -8.2 -6.25 L-8.45 -6.8 Q-9.45 -9.6 -9.8 -12.45 M-5.5 -1.95 L-4.4 -0.75 Q-3.35 0.3 -2.0 -0.95 -0.8 -2.1 -0.35 -3.65" fill="none" stroke="#000000" stroke-linecap="round" stroke-linejoin="round" stroke-width="0.05"/>
  </g>
</svg>
