<svg xmlns:xlink="http://www.w3.org/1999/xlink" height="33.3px" width="53.95px" xmlns="http://www.w3.org/2000/svg">
  <g transform="matrix(1.0, 0.0, 0.0, 1.0, 25.2, 34.05)">
    <path d="M21.65 -28.6 L22.15 -29.25 Q24.15 -28.05 25.45 -26.55 L24.9 -25.9 24.35 -25.25 Q22.85 -26.95 21.2 -28.0 L21.65 -28.6 M24.95 -20.45 L25.65 -21.1 26.55 -20.15 Q28.75 -17.6 28.75 -14.3 28.75 -12.3 27.95 -10.55 27.3 -9.2 26.1 -7.95 L25.65 -7.5 24.95 -8.2 Q26.25 -9.4 26.95 -10.8 27.8 -12.45 27.8 -14.3 27.8 -17.05 26.0 -19.3 L24.95 -20.45 M10.3 -3.5 L7.1 -0.75 5.7 -0.75 8.05 -3.5 10.3 -3.5 M3.9 -3.35 L3.15 -2.05 Q2.65 -1.3 1.95 -1.3 1.45 -1.3 0.55 -2.25 -0.2 -2.95 -0.65 -2.95 -1.2 -2.95 -1.45 -2.35 L-1.85 -1.5 -2.45 -2.2 -2.1 -3.05 -2.0 -3.25 -1.8 -3.55 Q-1.35 -4.25 -0.7 -4.25 -0.1 -4.25 0.65 -3.5 L2.1 -2.7 Q2.45 -2.7 2.9 -3.35 L3.3 -4.2 3.9 -3.35 M-2.75 -3.35 L-3.5 -2.05 Q-4.0 -1.3 -4.7 -1.3 -5.2 -1.3 -6.1 -2.25 -6.85 -2.95 -7.3 -2.95 -7.85 -2.95 -8.1 -2.35 L-8.5 -1.5 -9.1 -2.2 -8.45 -3.55 -7.8 -4.15 -7.35 -4.25 -6.9 -4.15 -6.0 -3.5 Q-5.1 -2.7 -4.55 -2.7 -4.2 -2.7 -3.75 -3.35 L-3.35 -4.2 -2.75 -3.35 M-21.25 -8.2 L-21.95 -7.5 Q-23.75 -9.2 -24.5 -11.2 -25.1 -12.65 -25.1 -14.3 -25.1 -17.55 -22.9 -20.1 L-21.95 -21.1 -21.25 -20.45 -22.2 -19.45 Q-24.15 -17.15 -24.15 -14.3 -24.15 -13.1 -23.75 -11.95 -23.1 -9.9 -21.25 -8.2 M-23.85 -31.95 L-25.2 -31.95 -25.2 -32.95 -18.1 -32.95 -18.1 -31.95 -23.85 -31.95 M-4.35 -32.7 L-4.35 -34.05 -2.9 -34.05 -2.9 -32.7 -4.35 -32.7 M-1.1 -32.7 L-1.1 -34.05 0.35 -34.05 0.35 -32.7 -1.1 -32.7 M2.15 -34.05 L3.6 -34.05 3.6 -32.7 2.15 -32.7 2.15 -34.05 M10.85 -33.3 L10.85 -34.05 12.3 -34.05 12.3 -33.1 12.3 -32.7 10.85 -32.7 10.85 -33.3 M14.1 -33.1 L14.1 -34.05 15.55 -34.05 15.55 -33.35 15.55 -32.7 14.1 -32.7 14.1 -33.1 M2.75 -25.25 L2.15 -25.25 2.75 -26.95 2.15 -26.95 2.15 -28.3 3.6 -28.3 3.6 -26.95 2.75 -25.25 M0.35 -26.95 L-0.5 -25.25 -1.1 -25.25 -0.5 -26.95 -1.1 -26.95 -1.1 -28.3 0.35 -28.3 0.35 -26.95 M7.2 -25.25 L5.15 -27.95 5.95 -29.05 8.1 -26.45 7.2 -25.25 M12.3 -28.3 L12.3 -26.95 11.45 -25.25 10.85 -25.25 11.45 -26.95 10.85 -26.95 10.85 -28.3 12.3 -28.3 M14.1 -25.25 L14.7 -26.95 14.1 -26.95 14.1 -28.3 15.55 -28.3 15.55 -26.95 14.7 -25.25 14.1 -25.25 M17.95 -25.25 L17.35 -25.25 17.95 -26.95 17.35 -26.95 17.35 -28.3 18.8 -28.3 18.8 -26.95 17.95 -25.25 M16.95 -19.95 L16.95 -15.25 17.15 -14.85 Q17.3 -14.7 17.75 -14.7 L17.75 -13.8 17.15 -13.6 16.95 -13.25 16.95 -8.6 Q16.95 -8.05 16.55 -7.7 16.2 -7.3 15.7 -7.3 L14.45 -7.3 14.45 -8.05 15.2 -8.05 15.55 -8.25 15.7 -8.6 15.7 -12.95 Q15.7 -13.75 16.2 -14.25 15.7 -14.75 15.7 -15.45 L15.7 -19.95 15.55 -20.35 15.2 -20.5 14.45 -20.5 14.45 -21.25 15.7 -21.25 Q16.2 -21.25 16.55 -20.85 16.95 -20.5 16.95 -19.95 M18.95 -16.05 L20.4 -16.05 20.4 -14.7 18.95 -14.7 18.95 -16.05 M6.8 -15.5 L6.8 -13.55 4.85 -13.55 4.85 -15.5 6.8 -15.5 M19.55 -8.95 L18.95 -8.95 18.95 -10.3 20.4 -10.3 20.4 -8.95 19.55 -7.25 18.95 -7.25 19.55 -8.95 M23.65 -14.7 L22.2 -14.7 22.2 -16.05 23.65 -16.05 23.65 -14.7 M23.6 -8.85 L22.8 -7.25 22.2 -7.25 22.8 -8.95 22.2 -8.95 22.2 -10.3 23.65 -10.3 23.65 -8.95 23.6 -8.85 M-16.15 -29.05 L-14.0 -26.45 -14.9 -25.25 -16.95 -27.95 -16.15 -29.05 M-10.85 -26.95 L-10.85 -28.3 -9.4 -28.3 -9.4 -26.95 -10.25 -25.25 -10.85 -25.25 -10.25 -26.95 -10.85 -26.95 M-7.0 -25.25 L-7.6 -25.25 -7.0 -26.95 -7.6 -26.95 -7.6 -28.3 -6.15 -28.3 -6.15 -26.95 -7.0 -25.25 M-2.9 -28.3 L-2.9 -26.95 -3.75 -25.25 -4.35 -25.25 -3.75 -26.95 -4.35 -26.95 -4.35 -28.3 -2.9 -28.3 M-2.55 -17.25 L-1.15 -19.8 0.05 -19.1 -5.7 -8.7 -11.45 -19.1 -10.25 -19.8 -8.8 -17.25 -2.55 -17.25 M-8.2 -15.95 L-5.7 -11.5 -3.2 -15.95 -8.2 -15.95 M-18.2 -15.5 L-16.25 -15.5 -16.25 -13.55 -18.2 -13.55 -18.2 -15.5" fill="#000000" fill-rule="evenodd" stroke="none"/>
    <path d="M24.9 -25.9 Q26.4 -23.75 24.95 -20.45 L26.0 -19.3 Q27.8 -17.05 27.8 -14.3 27.8 -12.45 26.95 -10.8 26.25 -9.4 24.95 -8.2 L25.65 -7.5 26.1 -7.95 25.6 -6.65 24.35 -5.95 23.25 -5.6 22.35 -5.45 20.35 -5.45 10.45 -2.95 10.3 -3.5 8.05 -3.5 3.9 -3.35 3.3 -4.2 2.9 -3.35 Q2.45 -2.7 2.1 -2.7 L0.65 -3.5 Q-0.1 -4.25 -0.7 -4.25 -1.35 -4.25 -1.8 -3.55 L-2.0 -3.25 -2.75 -3.35 -3.35 -4.2 -3.75 -3.35 Q-4.2 -2.7 -4.55 -2.7 -5.1 -2.7 -6.0 -3.5 L-6.9 -4.15 -7.35 -4.25 -7.8 -4.15 -8.45 -3.55 -9.1 -2.2 Q-17.45 -2.15 -21.2 -8.1 L-21.25 -8.2 Q-23.1 -9.9 -23.75 -11.95 -24.15 -13.1 -24.15 -14.3 -24.15 -17.15 -22.2 -19.45 L-21.25 -20.45 -21.9 -21.1 -18.75 -24.2 Q-19.05 -27.95 -22.4 -29.25 L-23.85 -31.95 -18.1 -31.95 -17.85 -32.85 -13.3 -31.7 -4.45 -33.3 -4.35 -32.7 -2.9 -32.7 -2.7 -33.25 -1.1 -32.7 0.35 -32.7 0.35 -34.05 2.15 -34.05 2.15 -32.7 3.6 -32.7 8.65 -32.1 10.1 -33.3 10.85 -33.3 10.85 -32.7 12.3 -32.7 12.3 -33.1 14.1 -33.1 14.1 -32.7 15.55 -32.7 15.55 -33.35 16.75 -32.9 16.75 -32.1 21.65 -28.6 21.2 -28.0 Q22.85 -26.95 24.35 -25.25 L24.9 -25.9 M-18.2 -15.5 L-18.2 -13.55 -16.25 -13.55 -16.25 -15.5 -18.2 -15.5 M-8.2 -15.95 L-3.2 -15.95 -5.7 -11.5 -8.2 -15.95 M-2.55 -17.25 L-8.8 -17.25 -10.25 -19.8 -11.45 -19.1 -5.7 -8.7 0.05 -19.1 -1.15 -19.8 -2.55 -17.25 M-2.9 -28.3 L-4.35 -28.3 -4.35 -26.95 -3.75 -26.95 -4.35 -25.25 -3.75 -25.25 -2.9 -26.95 -2.9 -28.3 M-7.0 -25.25 L-6.15 -26.95 -6.15 -28.3 -7.6 -28.3 -7.6 -26.95 -7.0 -26.95 -7.6 -25.25 -7.0 -25.25 M-10.85 -26.95 L-10.25 -26.95 -10.85 -25.25 -10.25 -25.25 -9.4 -26.95 -9.4 -28.3 -10.85 -28.3 -10.85 -26.95 M-16.15 -29.05 L-16.95 -27.95 -14.9 -25.25 -14.0 -26.45 -16.15 -29.05 M23.6 -8.85 L23.65 -8.95 23.65 -10.3 22.2 -10.3 22.2 -8.95 22.8 -8.95 22.2 -7.25 22.8 -7.25 23.6 -8.85 M23.65 -14.7 L23.65 -16.05 22.2 -16.05 22.2 -14.7 23.65 -14.7 M19.55 -8.95 L18.95 -7.25 19.55 -7.25 20.4 -8.95 20.4 -10.3 18.95 -10.3 18.95 -8.95 19.55 -8.95 M6.8 -15.5 L4.85 -15.5 4.85 -13.55 6.8 -13.55 6.8 -15.5 M18.95 -16.05 L18.95 -14.7 20.4 -14.7 20.4 -16.05 18.95 -16.05 M16.95 -19.95 Q16.95 -20.5 16.55 -20.85 16.2 -21.25 15.7 -21.25 L14.45 -21.25 14.45 -20.5 15.2 -20.5 15.55 -20.35 15.7 -19.95 15.7 -15.45 Q15.7 -14.75 16.2 -14.25 15.7 -13.75 15.7 -12.95 L15.7 -8.6 15.55 -8.25 15.2 -8.05 14.45 -8.05 14.45 -7.3 15.7 -7.3 Q16.2 -7.3 16.55 -7.7 16.95 -8.05 16.95 -8.6 L16.95 -13.25 17.15 -13.6 17.75 -13.8 17.75 -14.7 Q17.3 -14.7 17.15 -14.85 L16.95 -15.25 16.95 -19.95 M17.95 -25.25 L18.8 -26.95 18.8 -28.3 17.35 -28.3 17.35 -26.95 17.95 -26.95 17.35 -25.25 17.95 -25.25 M14.1 -25.25 L14.7 -25.25 15.55 -26.95 15.55 -28.3 14.1 -28.3 14.1 -26.95 14.7 -26.95 14.1 -25.25 M12.3 -28.3 L10.85 -28.3 10.85 -26.95 11.45 -26.95 10.85 -25.25 11.45 -25.25 12.3 -26.95 12.3 -28.3 M7.2 -25.25 L8.1 -26.45 5.95 -29.05 5.15 -27.95 7.2 -25.25 M0.35 -26.95 L0.35 -28.3 -1.1 -28.3 -1.1 -26.95 -0.5 -26.95 -1.1 -25.25 -0.5 -25.25 0.35 -26.95 M2.75 -25.25 L3.6 -26.95 3.6 -28.3 2.15 -28.3 2.15 -26.95 2.75 -26.95 2.15 -25.25 2.75 -25.25" fill="#ffffff" fill-rule="evenodd" stroke="none"/>
  </g>
</svg>
