<?xml version="1.0" encoding="UTF-8" standalone="no"?>
<svg xmlns:xlink="http://www.w3.org/1999/xlink" height="27.9px" width="39.2px" xmlns="http://www.w3.org/2000/svg">
  <g transform="matrix(1.0, 0.0, 0.0, 1.0, 19.6, 13.95)">
    <path d="M-8.85 0.25 L-8.1 -1.25 Q-4.8 -7.1 3.4 -5.75 11.1 -4.5 11.0 2.45 L10.7 5.0 Q9.7 9.85 4.85 10.75 -1.75 11.95 -5.5 10.25 -11.3 6.4 -9.0 0.55 L-8.85 0.25 M-15.3 -8.95 Q-17.9 -8.65 -18.1 -11.15 L-18.05 -12.15 -17.6 -12.85 Q-16.7 -13.6 -15.3 -13.4 L-14.25 -12.95 Q-13.35 -12.65 -13.5 -10.65 -14.05 -9.2 -15.3 -8.95 M1.2 4.65 Q2.1 5.75 3.6 5.45 8.9 4.4 2.55 0.4 L0.35 0.5 Q-4.9 5.55 1.2 10.6 -4.9 5.55 0.35 0.5 L2.55 0.4 Q8.9 4.4 3.6 5.45 2.1 5.75 1.2 4.65 M-13.5 -10.65 L-15.4 -10.85 Q-16.95 -11.15 -18.05 -12.15 -16.95 -11.15 -15.4 -10.85 L-13.5 -10.65 M-10.75 -8.8 Q-12.55 -10.2 -11.15 -11.75 L-10.4 -12.4 -9.95 -12.5 -8.75 -12.1 -8.6 -12.05 -8.15 -11.8 -7.35 -11.05 Q-6.9 -10.2 -7.8 -9.0 -9.2 -7.25 -10.75 -8.8 M-7.95 -9.95 Q-10.4 -9.15 -11.15 -11.75 -10.4 -9.15 -7.95 -9.95" fill="#e2d5c0" fill-rule="evenodd" stroke="none"/>
    <path d="M10.7 5.0 Q16.15 6.25 19.1 3.6 16.5 10.5 9.75 12.3 L2.75 13.1 -4.3 13.4 Q-11.1 13.85 -14.95 10.1 -19.0 6.3 -18.3 -0.2 -17.95 -3.55 -17.2 -4.95 -16.5 -6.45 -14.95 -7.05 L-14.45 -7.25 Q-12.6 -7.75 -11.65 -6.7 L-11.55 -6.6 -11.45 -6.45 -11.35 -6.4 Q-8.85 -3.6 -8.85 0.25 L-9.0 0.55 Q-11.3 6.4 -5.5 10.25 -1.75 11.95 4.85 10.75 9.7 9.85 10.7 5.0 M-12.35 -4.7 Q-13.35 -1.85 -14.25 -4.25 -15.35 -2.6 -15.9 -4.4 -15.35 -2.6 -14.25 -4.25 -13.35 -1.85 -12.35 -4.7" fill="#ffffff" fill-rule="evenodd" stroke="none"/>
    <path d="M-8.85 0.25 L-8.1 -1.25 Q-4.8 -7.1 3.4 -5.75 11.1 -4.5 11.0 2.45 L10.7 5.0 Q16.15 6.25 19.1 3.6 16.5 10.5 9.75 12.3 L2.75 13.1 -4.3 13.4 Q-11.1 13.85 -14.95 10.1 -19.0 6.3 -18.3 -0.2 -17.95 -3.55 -17.2 -4.95 -16.5 -6.45 -14.95 -7.05 L-15.3 -8.95 Q-17.9 -8.65 -18.1 -11.15 L-18.05 -12.15 -17.6 -12.85 Q-16.7 -13.6 -15.3 -13.4 L-14.25 -12.95 Q-13.35 -12.65 -13.5 -10.65 -14.05 -9.2 -15.3 -8.95 M1.2 10.6 Q-4.9 5.55 0.35 0.5 L2.55 0.4 Q8.9 4.4 3.6 5.45 2.1 5.75 1.2 4.65 M10.7 5.0 Q9.7 9.85 4.85 10.75 -1.75 11.95 -5.5 10.25 -11.3 6.4 -9.0 0.55 L-8.85 0.25 Q-8.85 -3.6 -11.35 -6.4 L-11.45 -6.45 -11.55 -6.6 -11.65 -6.7 Q-12.6 -7.75 -14.45 -7.25 L-14.95 -7.05 M-10.75 -8.8 Q-12.55 -10.2 -11.15 -11.75 L-10.4 -12.4 -9.95 -12.5 -8.75 -12.1 -8.6 -12.05 -8.15 -11.8 -7.35 -11.05 Q-6.9 -10.2 -7.8 -9.0 -9.2 -7.25 -10.75 -8.8 L-11.4 -6.7 -11.45 -6.45 M-15.9 -4.4 Q-15.35 -2.6 -14.25 -4.25 -13.35 -1.85 -12.35 -4.7" fill="none" stroke="#8f7c3f" stroke-linecap="round" stroke-linejoin="round" stroke-width="1.0"/>
    <path d="M-18.05 -12.15 L-19.1 -13.4 M-18.05 -12.15 Q-16.95 -11.15 -15.4 -10.85 L-13.5 -10.65 M-11.15 -11.75 Q-10.4 -9.15 -7.95 -9.95" fill="none" stroke="#8f7c3f" stroke-linecap="round" stroke-linejoin="round" stroke-width="1.0"/>
  </g>
</svg>
