<svg xmlns:xlink="http://www.w3.org/1999/xlink" height="121.4px" width="68.2px" xmlns="http://www.w3.org/2000/svg">
  <g transform="matrix(1.0, 0.0, 0.0, 1.0, 40.65, 121.1)">
    <path d="M-18.1 -105.85 L-18.05 -105.95 -16.7 -107.45 -5.5 -107.45 -5.45 -107.45 6.5 -107.45 Q7.45 -107.05 7.7 -106.45 L7.15 -105.85 17.4 -97.3 18.05 -97.7 Q19.8 -94.55 22.25 -91.2 L22.25 -91.15 21.55 -92.0 20.5 -91.35 21.2 -90.5 24.75 -84.65 25.95 -85.25 Q26.25 -82.5 26.95 -80.05 L26.05 -79.9 26.05 -68.0 26.9 -67.75 26.4 -66.25 26.25 -65.9 26.25 -54.0 27.2 -54.0 Q26.9 -52.65 27.2 -51.05 L26.25 -51.05 26.25 -46.85 Q26.25 -43.15 23.0 -42.0 L23.6 -40.85 Q19.35 -38.45 14.8 -38.1 13.0 -37.95 12.95 -36.75 12.9 -34.6 15.05 -34.15 L16.95 -34.0 18.4 -34.0 18.85 -32.85 21.45 -34.0 23.85 -34.45 Q24.7 -34.4 25.15 -33.85 25.7 -33.25 25.7 -32.25 25.75 -30.85 25.0 -30.1 24.0 -28.95 21.3 -28.95 L21.45 -28.35 21.4 -28.35 13.15 -25.9 Q12.0 -25.6 11.75 -24.65 L11.3 -23.9 11.3 -12.0 Q11.1 -9.7 11.3 -7.8 L10.2 -7.8 10.2 -2.2 Q10.2 -1.5 9.8 -1.1 9.3 -0.6 8.3 -0.6 7.3 -0.6 6.8 -1.1 6.35 -1.5 6.35 -2.2 L6.35 -7.8 5.3 -7.8 3.3 -8.4 3.85 -9.25 2.55 -9.25 2.2 -8.55 1.15 -8.6 1.6 -9.25 0.3 -9.25 -0.1 -8.45 -2.4 -7.8 -3.5 -7.8 -3.5 -2.2 Q-3.5 -1.5 -3.9 -1.1 -4.4 -0.6 -5.4 -0.6 -6.4 -0.6 -6.9 -1.1 -7.35 -1.5 -7.35 -2.2 L-7.35 -7.8 -8.4 -7.8 -8.3 -12.0 -7.35 -12.0 -7.35 -23.9 -7.45 -24.15 Q-8.15 -25.9 -8.5 -27.75 L-2.1 -27.75 -2.1 -28.75 -12.2 -28.75 Q-13.45 -29.5 -15.25 -29.4 L-15.35 -29.4 -19.8 -29.4 Q-21.0 -29.4 -21.8 -30.2 -22.5 -30.9 -22.5 -31.9 -22.5 -32.95 -21.8 -33.65 -21.0 -34.45 -19.8 -34.45 L-15.35 -34.45 -15.35 -35.35 Q-14.3 -35.05 -14.0 -35.55 L-14.0 -35.6 Q-13.45 -37.9 -14.3 -40.0 L-17.3 -41.0 -17.5 -41.05 -21.1 -41.05 -21.75 -41.95 -31.95 -50.45 -35.65 -53.75 -35.5 -54.0 -35.5 -65.9 -36.45 -65.9 Q-36.2 -66.6 -36.9 -67.55 L-37.85 -69.0 -37.9 -69.1 -37.75 -69.25 -38.3 -69.8 Q-39.9 -71.6 -39.9 -73.8 -39.9 -76.4 -37.75 -78.4 L-38.3 -78.95 Q-36.7 -80.7 -36.25 -84.0 L-26.45 -84.0 -31.35 -92.55 -29.0 -97.6 -28.3 -97.3 -18.1 -105.85 M-11.3 -35.1 L-2.95 -35.1 -2.95 -36.15 -11.3 -36.15 -11.5 -36.1 -11.3 -35.1 M-4.05 -41.8 L-4.05 -42.8 -5.15 -42.8 -5.15 -41.8 -4.7 -41.8 -5.15 -40.5 -4.7 -40.5 -4.05 -41.8 M-1.6 -41.8 L-1.6 -42.8 -2.7 -42.8 -2.7 -41.8 -2.25 -41.8 -2.7 -40.5 -2.25 -40.5 -1.6 -41.8 M5.45 -42.65 Q6.7 -44.55 6.7 -47.65 L6.7 -50.0 10.0 -50.0 10.0 -42.65 5.45 -42.65 M5.8 -47.65 Q5.8 -44.6 4.4 -42.65 L3.6 -42.65 3.6 -40.05 4.5 -40.05 4.5 -41.75 11.1 -41.75 11.1 -40.05 12.0 -40.05 12.0 -42.65 10.95 -42.65 10.95 -50.9 5.8 -50.9 5.8 -47.65 M-33.6 -73.95 Q-33.2 -73.55 -33.2 -72.45 -33.2 -71.25 -33.6 -70.8 L-34.3 -70.55 Q-34.7 -70.55 -35.0 -70.85 -35.55 -71.45 -35.55 -72.55 -35.55 -73.45 -35.05 -73.95 -34.75 -74.3 -34.25 -74.3 -33.95 -74.3 -33.6 -73.95 M3.45 -64.1 L3.45 -55.45 12.05 -55.45 12.05 -64.1 3.45 -64.1 M-0.1 -51.1 L0.4 -51.3 0.95 -51.1 1.1 -50.6 0.95 -50.1 Q0.75 -49.9 0.4 -49.9 L-0.1 -50.1 -0.3 -50.6 -0.1 -51.1 M-0.35 -51.35 L-0.65 -50.6 -0.35 -49.85 Q0.0 -49.5 0.4 -49.5 0.85 -49.5 1.15 -49.85 1.5 -50.2 1.5 -50.6 L1.15 -51.35 Q0.85 -51.7 0.4 -51.7 0.0 -51.7 -0.35 -51.35 M-6.2 -50.4 L-6.75 -50.95 Q-9.1 -48.75 -9.1 -45.8 -9.1 -42.9 -6.75 -40.7 L-6.2 -41.25 Q-8.35 -43.25 -8.35 -45.8 -8.35 -48.4 -6.2 -50.4 M7.25 -71.3 Q6.3 -72.25 6.3 -73.75 6.3 -75.1 7.35 -76.15 8.5 -77.3 10.65 -77.4 L10.95 -77.4 Q12.85 -77.4 13.9 -76.55 L13.95 -76.5 14.15 -76.3 Q15.05 -75.4 15.05 -74.45 15.05 -73.35 14.45 -72.75 13.9 -72.2 12.9 -72.2 L12.5 -72.3 12.4 -72.6 12.5 -73.2 13.6 -76.15 12.5 -76.15 12.2 -75.25 12.15 -75.4 Q11.85 -76.2 10.85 -76.2 9.65 -76.2 8.8 -75.35 7.9 -74.45 7.9 -73.4 7.9 -72.5 8.35 -72.05 L8.9 -71.65 9.6 -71.55 Q10.45 -71.55 11.1 -72.2 L11.45 -72.5 Q11.4 -72.1 11.7 -71.8 11.9 -71.55 12.55 -71.55 L13.7 -71.7 Q14.35 -71.9 14.8 -72.35 15.55 -73.1 15.55 -74.45 15.55 -75.6 14.55 -76.65 13.3 -77.85 10.95 -77.85 8.35 -77.85 7.0 -76.5 5.75 -75.25 5.75 -73.75 5.75 -72.05 6.9 -70.9 8.1 -69.7 10.1 -69.7 L12.8 -70.0 Q13.5 -70.2 14.05 -70.55 L13.8 -70.95 Q13.2 -70.65 12.6 -70.5 L10.1 -70.2 8.65 -70.4 Q8.45 -70.5 8.35 -70.55 L7.65 -70.95 7.25 -71.3 M-32.05 -72.45 L-32.15 -73.4 Q-32.3 -74.1 -32.75 -74.55 L-33.55 -75.05 -34.15 -75.15 Q-34.75 -75.15 -35.2 -74.7 L-35.65 -74.1 Q-35.65 -76.0 -34.9 -76.75 L-34.2 -77.0 -33.5 -76.75 Q-33.25 -76.45 -33.25 -75.8 L-32.15 -75.8 Q-32.15 -76.75 -32.75 -77.35 -33.3 -77.9 -34.2 -77.9 -35.05 -77.9 -35.6 -77.35 -36.75 -76.2 -36.75 -73.65 -36.75 -71.25 -35.9 -70.4 -35.2 -69.7 -34.35 -69.7 -33.35 -69.7 -32.8 -70.25 -32.05 -71.0 -32.05 -72.45 M-19.75 -74.3 L-25.05 -74.3 -25.05 -73.55 -19.75 -73.55 -19.75 -74.3 M-13.75 -74.3 L-19.05 -74.3 -19.05 -73.55 -13.75 -73.55 -13.75 -74.3 M-25.75 -74.3 L-31.05 -74.3 -31.05 -73.55 -25.75 -73.55 -25.75 -74.3 M4.25 -74.3 L-1.05 -74.3 -1.05 -73.55 4.25 -73.55 4.25 -74.3 M-7.15 -75.45 Q-6.4 -75.45 -6.2 -74.6 L-6.2 -74.25 Q-6.2 -74.0 -6.35 -73.7 L-7.0 -72.95 Q-7.5 -72.4 -8.1 -72.4 -8.55 -72.4 -8.8 -72.65 L-9.05 -73.4 Q-9.05 -74.2 -8.4 -74.85 -7.75 -75.45 -7.15 -75.45 M-10.65 -76.15 Q-9.5 -77.3 -7.35 -77.4 L-7.15 -77.4 -7.05 -77.4 Q-5.15 -77.4 -4.1 -76.55 L-4.05 -76.5 -3.85 -76.3 Q-2.95 -75.4 -2.95 -74.45 -2.95 -73.35 -3.55 -72.75 -4.1 -72.2 -5.1 -72.2 L-5.5 -72.3 -5.6 -72.6 -5.5 -73.2 -4.4 -76.15 -5.5 -76.15 -5.8 -75.25 -5.85 -75.4 Q-6.15 -76.2 -7.15 -76.2 -8.35 -76.2 -9.2 -75.35 -10.1 -74.45 -10.1 -73.4 -10.1 -72.5 -9.65 -72.05 L-9.1 -71.65 -8.4 -71.55 Q-7.55 -71.55 -6.9 -72.2 L-6.55 -72.5 Q-6.6 -72.1 -6.3 -71.8 L-5.45 -71.55 -4.3 -71.7 Q-3.65 -71.9 -3.2 -72.35 -2.45 -73.1 -2.45 -74.45 -2.45 -75.6 -3.45 -76.65 -4.7 -77.85 -7.05 -77.85 -9.65 -77.85 -11.0 -76.5 -12.25 -75.25 -12.25 -73.75 -12.25 -72.05 -11.1 -70.9 -9.9 -69.7 -7.9 -69.7 L-5.2 -70.0 Q-4.5 -70.2 -3.95 -70.55 L-4.2 -70.95 Q-4.8 -70.65 -5.4 -70.5 L-7.9 -70.2 -9.65 -70.55 Q-10.05 -70.7 -10.35 -70.95 L-10.75 -71.3 Q-11.7 -72.25 -11.7 -73.75 -11.7 -75.1 -10.65 -76.15 M0.9 -87.5 L0.9 -88.4 -7.8 -88.4 -7.8 -87.5 0.9 -87.5 M9.45 -23.9 L8.5 -23.9 8.5 -12.0 9.45 -12.0 9.45 -23.9 M10.7 -28.8 L10.7 -27.8 11.75 -27.8 11.75 -28.8 10.7 -28.8 M10.7 -33.15 L10.7 -32.1 11.75 -32.1 11.75 -33.15 10.7 -33.15 M17.4 -50.95 L16.9 -50.4 Q19.05 -48.4 19.05 -45.8 19.05 -43.25 16.9 -41.25 L17.4 -40.7 Q19.75 -42.9 19.75 -45.8 19.75 -48.75 17.4 -50.95 M14.65 -51.1 L15.15 -51.3 15.7 -51.1 15.85 -50.6 15.7 -50.1 15.15 -49.9 Q14.85 -49.9 14.65 -50.1 L14.45 -50.6 14.65 -51.1 M15.15 -51.7 L14.4 -51.35 14.1 -50.6 Q14.1 -50.2 14.4 -49.85 14.75 -49.5 15.15 -49.5 15.6 -49.5 15.9 -49.85 L16.25 -50.6 15.9 -51.35 Q15.6 -51.7 15.15 -51.7 M22.25 -74.3 L16.95 -74.3 16.95 -73.55 22.25 -73.55 22.25 -74.3 M10.85 -75.45 Q11.6 -75.45 11.8 -74.6 L11.8 -74.25 11.65 -73.7 11.0 -72.95 Q10.5 -72.4 9.9 -72.4 9.45 -72.4 9.2 -72.65 8.95 -72.9 8.95 -73.4 8.95 -74.2 9.6 -74.85 10.25 -75.45 10.85 -75.45 M16.1 -88.3 L10.8 -88.3 10.8 -87.55 16.1 -87.55 16.1 -88.3 M-1.75 -23.9 L-2.7 -23.9 -2.7 -12.0 -1.75 -12.0 -1.75 -23.9 M-4.55 -23.9 L-5.5 -23.9 -5.5 -12.0 -4.55 -12.0 -4.55 -23.9 M6.65 -23.9 L5.7 -23.9 5.7 -12.0 6.65 -12.0 6.65 -23.9 M3.85 -23.9 L2.9 -23.9 2.9 -12.0 3.85 -12.0 3.85 -23.9 M1.05 -23.9 L0.1 -23.9 0.1 -12.0 1.05 -12.0 1.05 -23.9 M4.8 -34.45 Q5.65 -34.4 6.1 -33.85 6.65 -33.25 6.65 -32.25 6.7 -30.85 5.95 -30.1 4.95 -28.95 2.25 -28.95 L2.45 -27.9 Q4.85 -27.9 6.15 -28.85 7.55 -29.9 7.65 -31.85 7.75 -33.8 6.7 -34.75 5.9 -35.45 4.65 -35.45 L2.35 -35.05 -0.65 -34.0 -0.2 -32.85 2.4 -34.0 4.8 -34.45 M-3.6 -31.55 L-3.6 -32.55 -10.7 -32.55 -10.7 -31.55 -3.6 -31.55" fill="#ffffff" fill-rule="evenodd" stroke="none"/>
    <path d="M-16.7 -107.45 L-17.45 -107.45 -17.45 -107.95 -5.5 -107.95 -5.5 -107.45 -16.7 -107.45 M-5.45 -107.45 L-5.45 -107.95 6.5 -107.95 6.5 -107.45 -5.45 -107.45 M7.7 -106.45 L17.9 -97.95 17.4 -97.3 7.15 -105.85 7.7 -106.45 M22.25 -91.15 Q24.65 -88.2 25.95 -85.25 L24.75 -84.65 21.2 -90.5 20.5 -91.35 21.55 -92.0 22.25 -91.15 M26.05 -79.9 L27.0 -79.9 27.0 -68.0 26.05 -68.0 26.05 -79.9 M26.25 -65.9 L27.2 -65.9 27.2 -54.0 26.25 -54.0 26.25 -65.9 M27.2 -51.05 L27.3 -51.05 Q27.75 -51.0 27.35 -50.7 L27.35 -46.35 Q27.35 -42.5 23.6 -40.9 L23.0 -42.0 Q26.25 -43.15 26.25 -46.85 L26.25 -51.05 27.2 -51.05 M18.4 -34.0 L21.4 -35.05 23.7 -35.45 Q24.95 -35.45 25.75 -34.75 26.8 -33.8 26.7 -31.85 26.6 -29.9 25.2 -28.85 23.9 -27.9 21.5 -27.9 L21.45 -28.35 21.3 -28.95 Q24.0 -28.95 25.0 -30.1 25.75 -30.85 25.7 -32.25 25.7 -33.25 25.15 -33.85 24.7 -34.4 23.85 -34.45 L21.45 -34.0 18.85 -32.85 18.4 -34.0 M11.3 -23.9 L12.25 -23.9 12.25 -12.0 11.3 -12.0 11.3 -23.9 M11.3 -7.8 L11.3 -2.15 Q11.3 -1.1 10.65 -0.45 9.9 0.3 8.3 0.3 6.7 0.3 5.95 -0.45 5.3 -1.1 5.3 -2.15 L5.3 -7.8 6.35 -7.8 6.35 -2.2 Q6.35 -1.5 6.8 -1.1 7.3 -0.6 8.3 -0.6 9.3 -0.6 9.8 -1.1 10.2 -1.5 10.2 -2.2 L10.2 -7.8 11.3 -7.8 M3.3 -8.4 L2.2 -6.9 1.35 -6.9 2.2 -8.55 2.55 -9.25 3.85 -9.25 3.3 -8.4 M1.15 -8.6 L-0.05 -6.9 -0.9 -6.9 -0.1 -8.45 0.3 -9.25 1.6 -9.25 1.15 -8.6 M-2.4 -7.8 L-2.4 -2.15 Q-2.4 -1.1 -3.05 -0.45 -3.8 0.3 -5.4 0.3 -7.0 0.3 -7.75 -0.45 -8.4 -1.1 -8.4 -2.15 L-8.4 -7.8 -7.35 -7.8 -7.35 -2.2 Q-7.35 -1.5 -6.9 -1.1 -6.4 -0.6 -5.4 -0.6 -4.4 -0.6 -3.9 -1.1 -3.5 -1.5 -3.5 -2.2 L-3.5 -7.8 -2.4 -7.8 M-8.3 -12.0 L-8.3 -23.9 -7.35 -23.9 -7.35 -12.0 -8.3 -12.0 M-8.5 -27.75 L-12.2 -27.75 -12.2 -28.75 -2.1 -28.75 -2.1 -27.75 -8.5 -27.75 M-15.35 -29.4 L-15.35 -28.5 -19.8 -28.5 Q-21.45 -28.5 -22.45 -29.5 -23.45 -30.5 -23.45 -31.9 -23.45 -33.3 -22.45 -34.35 -21.45 -35.35 -19.8 -35.35 L-15.35 -35.35 -15.35 -34.45 -19.8 -34.45 Q-21.0 -34.45 -21.8 -33.65 -22.5 -32.95 -22.5 -31.9 -22.5 -30.9 -21.8 -30.2 -21.0 -29.4 -19.8 -29.4 L-15.35 -29.4 M-17.5 -41.05 L-17.5 -40.5 -21.1 -40.5 -21.1 -41.05 -17.5 -41.05 M-21.75 -41.95 L-22.25 -41.3 -32.5 -49.85 -31.95 -50.45 -21.75 -41.95 M-35.5 -54.0 L-36.45 -54.0 -36.45 -65.9 -35.5 -65.9 -35.5 -54.0 M-37.9 -69.1 L-38.3 -68.7 Q-40.65 -70.9 -40.65 -73.8 -40.65 -76.75 -38.3 -78.95 L-37.75 -78.4 Q-39.9 -76.4 -39.9 -73.8 -39.9 -71.6 -38.3 -69.8 L-37.75 -69.25 -37.9 -69.1 M-36.25 -84.0 L-31.35 -92.55 -26.45 -84.0 -36.25 -84.0 M-28.3 -97.3 L-28.85 -97.95 -18.6 -106.45 -18.1 -105.85 -28.3 -97.3 M-0.15 -118.25 Q-0.55 -117.9 -2.2 -117.85 -4.05 -116.55 -5.0 -115.5 -5.8 -114.55 -5.8 -113.85 L-5.6 -113.25 -4.75 -112.9 -2.9 -112.55 -1.9 -112.0 Q-1.6 -111.75 -1.6 -111.3 -1.6 -110.85 -2.0 -110.5 -2.4 -110.05 -3.45 -110.05 L-4.7 -110.25 -4.55 -111.05 -3.5 -110.85 -2.55 -111.05 -2.45 -111.25 -2.55 -111.4 -3.3 -111.75 -4.75 -112.0 Q-5.9 -112.25 -6.25 -112.6 -6.7 -113.05 -6.7 -113.85 -6.7 -114.8 -5.8 -115.85 -4.7 -117.1 -3.15 -118.05 L-3.95 -118.55 Q-4.35 -118.9 -4.35 -119.4 -4.35 -119.9 -3.85 -120.35 L-2.8 -121.1 -2.25 -120.45 -3.3 -119.8 -3.5 -119.4 -3.3 -119.0 -2.3 -118.7 -0.1 -118.8 0.0 -118.6 -0.15 -118.25 M0.9 -87.5 L-7.8 -87.5 -7.8 -88.4 0.9 -88.4 0.9 -87.5 M-10.65 -76.15 Q-11.7 -75.1 -11.7 -73.75 -11.7 -72.25 -10.75 -71.3 L-10.35 -70.95 Q-10.05 -70.7 -9.65 -70.55 L-7.9 -70.2 -5.4 -70.5 Q-4.8 -70.65 -4.2 -70.95 L-3.95 -70.55 Q-4.5 -70.2 -5.2 -70.0 L-7.9 -69.7 Q-9.9 -69.7 -11.1 -70.9 -12.25 -72.05 -12.25 -73.75 -12.25 -75.25 -11.0 -76.5 -9.65 -77.85 -7.05 -77.85 -4.7 -77.85 -3.45 -76.65 -2.45 -75.6 -2.45 -74.45 -2.45 -73.1 -3.2 -72.35 -3.65 -71.9 -4.3 -71.7 L-5.45 -71.55 -6.3 -71.8 Q-6.6 -72.1 -6.55 -72.5 L-6.9 -72.2 Q-7.55 -71.55 -8.4 -71.55 L-9.1 -71.65 -9.65 -72.05 Q-10.1 -72.5 -10.1 -73.4 -10.1 -74.45 -9.2 -75.35 -8.35 -76.2 -7.15 -76.2 -6.15 -76.2 -5.85 -75.4 L-5.8 -75.25 -5.5 -76.15 -4.4 -76.15 -5.5 -73.2 -5.6 -72.6 -5.5 -72.3 -5.1 -72.2 Q-4.1 -72.2 -3.55 -72.75 -2.95 -73.35 -2.95 -74.45 -2.95 -75.4 -3.85 -76.3 L-4.05 -76.5 -4.1 -76.55 Q-5.15 -77.4 -7.05 -77.4 L-7.15 -77.4 -7.35 -77.4 Q-9.5 -77.3 -10.65 -76.15 M-7.15 -75.45 Q-7.75 -75.45 -8.4 -74.85 -9.05 -74.2 -9.05 -73.4 L-8.8 -72.65 Q-8.55 -72.4 -8.1 -72.4 -7.5 -72.4 -7.0 -72.95 L-6.35 -73.7 Q-6.2 -74.0 -6.2 -74.25 L-6.2 -74.6 Q-6.4 -75.45 -7.15 -75.45 M4.25 -74.3 L4.25 -73.55 -1.05 -73.55 -1.05 -74.3 4.25 -74.3 M-25.75 -74.3 L-25.75 -73.55 -31.05 -73.55 -31.05 -74.3 -25.75 -74.3 M-13.75 -74.3 L-13.75 -73.55 -19.05 -73.55 -19.05 -74.3 -13.75 -74.3 M-19.75 -74.3 L-19.75 -73.55 -25.05 -73.55 -25.05 -74.3 -19.75 -74.3 M-32.05 -72.45 Q-32.05 -71.0 -32.8 -70.25 -33.35 -69.7 -34.35 -69.7 -35.2 -69.7 -35.9 -70.4 -36.75 -71.25 -36.75 -73.65 -36.75 -76.2 -35.6 -77.35 -35.05 -77.9 -34.2 -77.9 -33.3 -77.9 -32.75 -77.35 -32.15 -76.75 -32.15 -75.8 L-33.25 -75.8 Q-33.25 -76.45 -33.5 -76.75 L-34.2 -77.0 -34.9 -76.75 Q-35.65 -76.0 -35.65 -74.1 L-35.2 -74.7 Q-34.75 -75.15 -34.15 -75.15 L-33.55 -75.05 -32.75 -74.55 Q-32.3 -74.1 -32.15 -73.4 L-32.05 -72.45 M7.25 -71.3 L7.65 -70.95 8.35 -70.55 Q8.45 -70.5 8.65 -70.4 L10.1 -70.2 12.6 -70.5 Q13.2 -70.65 13.8 -70.95 L14.05 -70.55 Q13.5 -70.2 12.8 -70.0 L10.1 -69.7 Q8.1 -69.7 6.9 -70.9 5.75 -72.05 5.75 -73.75 5.75 -75.25 7.0 -76.5 8.35 -77.85 10.95 -77.85 13.3 -77.85 14.55 -76.65 15.55 -75.6 15.55 -74.45 15.55 -73.1 14.8 -72.35 14.35 -71.9 13.7 -71.7 L12.55 -71.55 Q11.9 -71.55 11.7 -71.8 11.4 -72.1 11.45 -72.5 L11.1 -72.2 Q10.45 -71.55 9.6 -71.55 L8.9 -71.65 8.35 -72.05 Q7.9 -72.5 7.9 -73.4 7.9 -74.45 8.8 -75.35 9.65 -76.2 10.85 -76.2 11.85 -76.2 12.15 -75.4 L12.2 -75.25 12.5 -76.15 13.6 -76.15 12.5 -73.2 12.4 -72.6 12.5 -72.3 12.9 -72.2 Q13.9 -72.2 14.45 -72.75 15.05 -73.35 15.05 -74.45 15.05 -75.4 14.15 -76.3 L13.95 -76.5 13.9 -76.55 Q12.85 -77.4 10.95 -77.4 L10.65 -77.4 Q8.5 -77.3 7.35 -76.15 6.3 -75.1 6.3 -73.75 6.3 -72.25 7.25 -71.3 M-6.2 -50.4 Q-8.35 -48.4 -8.35 -45.8 -8.35 -43.25 -6.2 -41.25 L-6.75 -40.7 Q-9.1 -42.9 -9.1 -45.8 -9.1 -48.75 -6.75 -50.95 L-6.2 -50.4 M-0.35 -51.35 Q0.0 -51.7 0.4 -51.7 0.85 -51.7 1.15 -51.35 L1.5 -50.6 Q1.5 -50.2 1.15 -49.85 0.85 -49.5 0.4 -49.5 0.0 -49.5 -0.35 -49.85 L-0.65 -50.6 -0.35 -51.35 M-0.1 -51.1 L-0.3 -50.6 -0.1 -50.1 0.4 -49.9 Q0.75 -49.9 0.95 -50.1 L1.1 -50.6 0.95 -51.1 0.4 -51.3 -0.1 -51.1 M3.45 -64.1 L12.05 -64.1 12.05 -55.45 3.45 -55.45 3.45 -64.1 M-33.6 -73.95 Q-33.95 -74.3 -34.25 -74.3 -34.75 -74.3 -35.05 -73.95 -35.55 -73.45 -35.55 -72.55 -35.55 -71.45 -35.0 -70.85 -34.7 -70.55 -34.3 -70.55 L-33.6 -70.8 Q-33.2 -71.25 -33.2 -72.45 -33.2 -73.55 -33.6 -73.95 M5.8 -47.65 L5.8 -50.9 10.95 -50.9 10.95 -42.65 12.0 -42.65 12.0 -40.05 11.1 -40.05 11.1 -41.75 4.5 -41.75 4.5 -40.05 3.6 -40.05 3.6 -42.65 4.4 -42.65 Q5.8 -44.6 5.8 -47.65 M5.45 -42.65 L10.0 -42.65 10.0 -50.0 6.7 -50.0 6.7 -47.65 Q6.7 -44.55 5.45 -42.65 M-1.6 -41.8 L-2.25 -40.5 -2.7 -40.5 -2.25 -41.8 -2.7 -41.8 -2.7 -42.8 -1.6 -42.8 -1.6 -41.8 M-4.05 -41.8 L-4.7 -40.5 -5.15 -40.5 -4.7 -41.8 -5.15 -41.8 -5.15 -42.8 -4.05 -42.8 -4.05 -41.8 M-11.3 -36.15 L-2.95 -36.15 -2.95 -35.1 -11.3 -35.1 -11.3 -36.15 M-3.6 -31.55 L-10.7 -31.55 -10.7 -32.55 -3.6 -32.55 -3.6 -31.55 M4.8 -34.45 L2.4 -34.0 -0.2 -32.85 -0.65 -34.0 2.35 -35.05 4.65 -35.45 Q5.9 -35.45 6.7 -34.75 7.75 -33.8 7.65 -31.85 7.55 -29.9 6.15 -28.85 4.85 -27.9 2.45 -27.9 L2.25 -28.95 Q4.95 -28.95 5.95 -30.1 6.7 -30.85 6.65 -32.25 6.65 -33.25 6.1 -33.85 5.65 -34.4 4.8 -34.45 M1.05 -23.9 L1.05 -12.0 0.1 -12.0 0.1 -23.9 1.05 -23.9 M3.85 -23.9 L3.85 -12.0 2.9 -12.0 2.9 -23.9 3.85 -23.9 M6.65 -23.9 L6.65 -12.0 5.7 -12.0 5.7 -23.9 6.65 -23.9 M-4.55 -23.9 L-4.55 -12.0 -5.5 -12.0 -5.5 -23.9 -4.55 -23.9 M-1.75 -23.9 L-1.75 -12.0 -2.7 -12.0 -2.7 -23.9 -1.75 -23.9 M16.1 -88.3 L16.1 -87.55 10.8 -87.55 10.8 -88.3 16.1 -88.3 M10.85 -75.45 Q10.25 -75.45 9.6 -74.85 8.95 -74.2 8.95 -73.4 8.95 -72.9 9.2 -72.65 9.45 -72.4 9.9 -72.4 10.5 -72.4 11.0 -72.95 L11.65 -73.7 11.8 -74.25 11.8 -74.6 Q11.6 -75.45 10.85 -75.45 M22.25 -74.3 L22.25 -73.55 16.95 -73.55 16.95 -74.3 22.25 -74.3 M15.15 -51.7 Q15.6 -51.7 15.9 -51.35 L16.25 -50.6 15.9 -49.85 Q15.6 -49.5 15.15 -49.5 14.75 -49.5 14.4 -49.85 14.1 -50.2 14.1 -50.6 L14.4 -51.35 15.15 -51.7 M14.65 -51.1 L14.45 -50.6 14.65 -50.1 Q14.85 -49.9 15.15 -49.9 L15.7 -50.1 15.85 -50.6 15.7 -51.1 15.15 -51.3 14.65 -51.1 M17.4 -50.95 Q19.75 -48.75 19.75 -45.8 19.75 -42.9 17.4 -40.7 L16.9 -41.25 Q19.05 -43.25 19.05 -45.8 19.05 -48.4 16.9 -50.4 L17.4 -50.95 M10.7 -33.15 L11.75 -33.15 11.75 -32.1 10.7 -32.1 10.7 -33.15 M10.7 -28.8 L11.75 -28.8 11.75 -27.8 10.7 -27.8 10.7 -28.8 M9.45 -23.9 L9.45 -12.0 8.5 -12.0 8.5 -23.9 9.45 -23.9" fill="#000000" fill-rule="evenodd" stroke="none"/>
  </g>
</svg>
