<?xml version="1.0" encoding="UTF-8" standalone="no"?>
<svg xmlns:xlink="http://www.w3.org/1999/xlink" height="30.75px" width="31.0px" xmlns="http://www.w3.org/2000/svg">
  <g transform="matrix(1.0, 0.0, 0.0, 1.0, 13.8, 55.25)">
    <path d="M12.7 -31.6 L16.7 -30.9 Q13.95 -27.75 10.35 -26.7 7.25 -25.8 3.3 -25.2 -0.65 -24.65 -5.4 -25.8 -10.15 -26.95 -12.05 -29.1 -14.0 -31.25 -12.9 -32.9 -11.8 -34.55 -9.65 -35.35 -7.55 -36.2 -3.3 -36.8 L4.8 -37.05 11.35 -36.1 Q14.0 -35.5 16.5 -33.6 L11.85 -32.3 Q11.4 -31.75 12.7 -31.6" fill="#b2e5cb" fill-rule="evenodd" stroke="none"/>
    <path d="M12.7 -31.6 L16.7 -30.9 Q13.95 -27.75 10.35 -26.7 7.25 -25.8 3.3 -25.2 -0.65 -24.65 -5.4 -25.8 -10.15 -26.95 -12.05 -29.1 -14.0 -31.25 -12.9 -32.9 -11.8 -34.55 -9.65 -35.35 -7.55 -36.2 -3.3 -36.8 L4.8 -37.05 11.35 -36.1 Q14.0 -35.5 16.5 -33.6 L11.85 -32.3 Q11.4 -31.75 12.7 -31.6 Z" fill="none" stroke="#96844b" stroke-linecap="round" stroke-linejoin="round" stroke-width="1.0"/>
    <path d="M2.15 -51.8 Q2.6 -53.2 4.9 -54.45 6.4 -55.3 7.75 -53.55 11.2 -49.1 4.1 -48.25 1.6 -50.1 2.15 -51.8 M7.3 -50.9 Q5.05 -50.6 3.4 -51.45 5.05 -50.6 7.3 -50.9 M9.1 -43.3 L8.75 -43.05 9.1 -42.8 9.75 -42.3 Q8.9 -40.55 7.1 -39.5 3.65 -37.7 -0.15 -37.75 L-2.5 -37.95 Q-7.05 -38.65 -9.2 -42.1 L-8.65 -42.55 -9.3 -42.5 -9.4 -43.25 Q-7.85 -46.35 -4.6 -47.45 L-1.95 -47.9 2.65 -47.6 3.65 -47.35 3.8 -47.3 5.45 -46.65 Q7.6 -45.7 8.75 -43.85 L9.1 -43.3 M8.75 -43.05 L-0.45 -43.1 -8.65 -42.55 -0.45 -43.1 8.75 -43.05 M3.15 -36.2 L3.8 -35.7 Q5.3 -34.45 4.6 -33.5 4.0 -32.7 1.75 -32.1 L-0.65 -32.2 Q-3.95 -33.6 -2.85 -35.45 L-1.7 -36.7 -0.15 -37.7 1.7 -37.1 3.15 -36.2 M-7.15 -47.3 Q-9.8 -47.2 -9.9 -49.8 L-9.85 -51.5 Q-9.15 -56.05 -4.95 -53.95 -0.45 -51.75 -3.1 -49.05 L-4.7 -47.75 -7.15 -47.3 M-4.7 -50.95 Q-6.65 -49.85 -9.0 -49.75 -6.65 -49.85 -4.7 -50.95" fill="#ffffff" fill-rule="evenodd" stroke="none"/>
    <path d="M2.15 -51.8 Q2.6 -53.2 4.9 -54.45 6.4 -55.3 7.75 -53.55 11.2 -49.1 4.1 -48.25 1.6 -50.1 2.15 -51.8 M9.1 -42.8 L9.1 -43.3 8.75 -43.85 Q7.6 -45.7 5.45 -46.65 L3.8 -47.3 3.65 -47.35 2.65 -47.6 -1.95 -47.9 -4.6 -47.45 Q-7.85 -46.35 -9.4 -43.25 M-9.3 -42.5 L-8.65 -42.55 -0.45 -43.1 8.75 -43.05 M9.75 -42.3 Q8.9 -40.55 7.1 -39.5 3.65 -37.7 -0.15 -37.75 L-2.5 -37.95 Q-7.05 -38.65 -9.2 -42.1 L-9.25 -42.15 -9.4 -42.4 -9.45 -42.45 -9.3 -42.5 M3.8 -35.7 Q8.55 -38.95 8.3 -32.35 8.45 -31.0 9.6 -31.7 M3.15 -36.2 L1.7 -37.1 -0.15 -37.7 -1.7 -36.7 -2.85 -35.45 Q-3.95 -33.6 -0.65 -32.2 L1.75 -32.1 Q4.0 -32.7 4.6 -33.5 5.3 -34.45 3.8 -35.7 L3.15 -36.2 M-7.15 -47.3 Q-9.8 -47.2 -9.9 -49.8 L-9.85 -51.5 Q-9.15 -56.05 -4.95 -53.95 -0.45 -51.75 -3.1 -49.05 L-4.7 -47.75 -4.75 -47.75 Q-5.8 -47.05 -7.15 -47.3 L-4.7 -47.75 M-2.85 -35.45 Q-8.3 -38.05 -5.4 -32.95 -6.35 -31.25 -7.6 -31.7" fill="none" stroke="#8f7c3f" stroke-linecap="round" stroke-linejoin="round" stroke-width="1.0"/>
    <path d="M3.4 -51.45 Q5.05 -50.6 7.3 -50.9 M-9.0 -49.75 Q-6.65 -49.85 -4.7 -50.95" fill="none" stroke="#8f7c3f" stroke-linecap="round" stroke-linejoin="round" stroke-width="1.0"/>
  </g>
</svg>
