<svg xmlns:xlink="http://www.w3.org/1999/xlink" height="93.9px" width="72.0px" xmlns="http://www.w3.org/2000/svg">
  <g transform="matrix(1.0, 0.0, 0.0, 1.0, 36.2, 93.9)">
    <path d="M-23.15 -66.8 L-23.35 -66.6 Q-24.05 -65.9 -24.95 -65.9 -25.6 -65.9 -26.1 -66.4 -26.65 -66.95 -26.35 -67.9 L-26.3 -68.2 -24.95 -72.55 -25.8 -72.7 -27.2 -72.4 -27.2 -73.45 -25.75 -73.65 -24.3 -73.5 -23.0 -73.4 -22.9 -73.4 -21.1 -73.75 -21.1 -72.75 Q-21.7 -72.4 -22.6 -72.35 L-22.75 -72.35 -23.95 -72.45 -25.4 -68.0 Q-25.6 -67.4 -25.35 -67.1 L-24.85 -66.9 Q-24.45 -66.9 -24.0 -67.3 L-23.35 -68.4 -22.5 -67.8 -23.15 -66.8 M-15.15 -82.05 L-15.3 -82.05 -15.3 -83.25 -14.65 -83.25 -14.0 -83.25 -14.0 -82.05 -14.75 -80.6 -15.3 -80.6 -14.75 -82.05 -15.15 -82.05 M-12.75 -86.45 L-12.85 -86.45 -12.85 -87.3 -12.05 -87.3 -6.65 -87.3 -6.65 -86.45 -12.75 -86.45 M-3.15 -92.6 L-2.75 -93.05 -0.8 -93.05 -3.55 -90.65 -4.85 -90.65 -3.15 -92.6 M1.3 -92.8 L1.45 -93.1 Q1.85 -93.7 2.4 -93.7 2.95 -93.7 3.6 -93.05 4.35 -92.35 4.85 -92.35 5.2 -92.35 5.55 -92.95 L5.8 -93.3 5.9 -93.65 6.45 -92.95 6.45 -92.9 5.8 -91.8 5.35 -91.3 4.75 -91.15 Q4.3 -91.15 3.5 -91.95 L3.0 -92.35 2.45 -92.55 2.35 -92.55 1.75 -92.05 1.4 -91.3 0.85 -91.9 1.3 -92.8 M8.35 -89.3 L9.05 -89.95 Q13.5 -87.15 15.5 -84.3 L14.95 -83.8 14.15 -83.15 Q12.05 -86.15 7.9 -88.9 L8.35 -89.3 M17.7 -82.25 L29.65 -92.2 30.25 -91.45 18.3 -81.5 17.7 -82.25 M32.1 -93.9 L33.2 -93.9 33.2 -80.0 32.1 -80.0 32.1 -93.9 M32.85 -77.9 L33.95 -77.9 33.95 -64.0 33.2 -64.0 32.85 -64.0 32.85 -77.9 M33.8 -61.9 L33.8 -48.0 32.7 -48.0 32.7 -61.9 33.8 -61.9 M32.5 -44.15 L33.1 -44.75 Q35.45 -42.5 35.75 -39.65 L35.8 -38.75 Q35.8 -36.8 34.9 -35.05 34.2 -33.9 33.1 -32.8 L32.5 -33.4 Q33.65 -34.45 34.25 -35.65 35.0 -37.1 35.0 -38.75 L35.0 -39.1 Q34.85 -41.9 32.5 -44.15 M27.05 -29.95 L27.9 -29.95 27.9 -16.0 26.8 -16.0 26.8 -29.95 27.05 -29.95 M29.05 -12.25 L29.65 -12.8 30.9 -11.4 31.65 -10.2 31.9 -9.65 Q32.4 -8.4 32.4 -6.8 32.4 -5.3 31.8 -3.95 L31.65 -3.65 31.65 -3.6 Q31.0 -2.3 29.65 -0.75 L29.05 -1.35 Q30.35 -2.8 30.9 -3.95 L30.95 -4.05 31.05 -4.3 Q31.55 -5.5 31.55 -6.8 31.55 -8.55 30.95 -9.85 30.4 -11.0 29.05 -12.25 M27.9 -0.55 L23.7 -0.55 23.7 -1.2 27.9 -1.2 27.9 -0.55 M13.8 -0.55 L9.6 -0.55 9.6 -1.2 13.8 -1.2 13.8 -0.55 M9.55 -1.2 L9.55 -0.55 5.35 -0.55 5.35 -0.6 5.35 -1.2 9.55 -1.2 M5.3 -0.6 L5.3 0.0 -8.65 0.0 -8.65 -0.6 5.3 -0.6 M-21.4 -0.55 L-24.6 -0.55 -24.85 -0.55 -25.6 -0.55 -25.6 -1.2 -21.4 -1.2 -21.4 -0.55 M-31.05 -1.4 L-31.6 -0.9 -33.05 -2.9 -35.2 -5.25 Q-36.2 -6.2 -36.2 -6.95 L-35.35 -8.3 -33.2 -10.8 -31.75 -12.95 -30.75 -12.15 -32.75 -9.5 -34.55 -7.65 -35.05 -6.9 -34.7 -6.4 -32.45 -4.15 -31.7 -3.3 -30.55 -1.9 -31.05 -1.4 M-28.35 -17.6 L-28.85 -17.3 -29.75 -18.4 Q-24.3 -21.45 -24.0 -28.2 L-23.35 -28.0 -22.7 -27.8 Q-22.85 -25.3 -23.75 -23.2 L-24.6 -21.6 -25.1 -20.8 Q-26.45 -18.9 -28.35 -17.6 M-20.25 -33.45 L-20.8 -33.8 -15.0 -44.15 -14.5 -43.8 -20.25 -33.45 M-6.15 -51.35 L-6.45 -51.15 Q-7.85 -53.15 -10.15 -55.05 L-12.7 -56.9 -11.55 -57.95 Q-7.1 -55.15 -5.1 -52.3 L-6.15 -51.35 M-16.3 -77.9 L-15.2 -77.9 -15.2 -64.0 -16.3 -64.0 -16.3 -77.9 M-2.85 -76.8 Q-0.45 -76.8 1.3 -75.05 3.05 -73.3 3.05 -70.9 3.05 -68.45 1.3 -66.7 -0.45 -64.95 -2.85 -64.95 -5.25 -64.95 -7.0 -66.7 -8.75 -68.45 -8.75 -70.9 -8.75 -73.3 -7.0 -75.05 -5.25 -76.8 -2.85 -76.8 M-6.35 -74.4 Q-7.75 -72.95 -7.75 -70.9 -7.75 -68.8 -6.35 -67.4 -4.95 -65.95 -2.85 -65.95 -0.75 -65.95 0.65 -67.4 2.05 -68.8 2.05 -70.9 2.05 -72.95 0.65 -74.4 -0.75 -75.8 -2.85 -75.8 -4.95 -75.8 -6.35 -74.4 M-2.85 -74.4 Q-1.45 -74.4 -0.4 -73.35 0.65 -72.3 0.65 -70.9 0.65 -69.45 -0.4 -68.4 -1.45 -67.4 -2.85 -67.4 -4.25 -67.4 -5.3 -68.4 -6.35 -69.45 -6.35 -70.9 -6.35 -72.3 -5.3 -73.35 -4.25 -74.4 -2.85 -74.4 M-2.85 -73.4 Q-3.95 -73.4 -4.65 -72.7 -5.35 -71.95 -5.35 -70.9 -5.35 -69.8 -4.65 -69.05 -3.95 -68.35 -2.85 -68.35 -1.75 -68.35 -1.05 -69.05 -0.35 -69.8 -0.35 -70.9 -0.35 -71.95 -1.05 -72.7 -1.75 -73.4 -2.85 -73.4 M30.65 -77.9 L30.65 -64.0 29.55 -64.0 29.55 -77.9 30.65 -77.9 M23.65 -57.95 Q28.1 -55.15 30.1 -52.3 L28.75 -51.15 Q26.65 -54.15 22.5 -56.9 L23.65 -57.95 M14.4 -60.35 L14.65 -59.75 Q14.85 -59.5 15.25 -59.5 15.6 -59.5 15.85 -59.75 L16.05 -60.35 15.85 -60.95 15.25 -61.15 Q14.85 -61.15 14.65 -60.95 L14.4 -60.35 M11.7 -59.0 L6.65 -49.85 1.6 -59.0 2.65 -59.6 3.9 -57.35 9.4 -57.35 10.65 -59.6 11.7 -59.0 M14.35 -61.2 Q14.75 -61.6 15.25 -61.6 15.75 -61.6 16.1 -61.2 16.5 -60.85 16.5 -60.35 16.5 -59.85 16.1 -59.45 15.75 -59.1 15.25 -59.1 14.75 -59.1 14.35 -59.45 14.0 -59.85 14.0 -60.35 14.0 -60.85 14.35 -61.2 M17.9 -60.75 Q20.6 -58.15 20.6 -54.75 20.6 -51.4 17.9 -48.8 L17.3 -49.4 17.75 -49.8 Q19.8 -52.0 19.8 -54.75 19.8 -57.75 17.3 -60.15 L17.9 -60.75 M6.65 -52.3 L8.85 -56.2 4.45 -56.2 6.65 -52.3 M19.35 -45.15 L20.4 -45.15 Q20.85 -45.1 20.45 -44.85 L20.45 -43.85 24.15 -43.85 24.15 -43.0 20.45 -43.0 20.45 -42.15 22.25 -42.15 22.25 -38.0 18.55 -38.0 18.55 -37.3 23.7 -37.3 23.7 -33.8 Q23.7 -32.75 22.8 -32.75 L21.95 -32.75 21.7 -33.8 22.35 -33.8 22.6 -34.0 22.6 -36.4 20.4 -36.4 22.1 -34.45 21.25 -33.8 20.75 -34.5 14.95 -34.05 Q14.65 -33.45 14.6 -34.1 L14.45 -35.1 17.45 -35.2 17.45 -36.4 13.6 -36.4 13.6 -32.7 12.5 -32.7 12.5 -37.3 17.45 -37.3 17.45 -38.0 13.9 -38.0 13.9 -42.15 15.7 -42.15 15.7 -43.0 11.9 -43.0 11.9 -43.85 15.7 -43.85 15.7 -45.15 16.75 -45.15 Q17.15 -45.1 16.8 -44.85 L16.8 -43.85 19.35 -43.85 19.35 -45.15 M17.45 -41.3 L15.0 -41.3 15.0 -40.5 17.45 -40.5 17.45 -41.3 M16.8 -42.15 L19.35 -42.15 19.35 -43.0 16.8 -43.0 16.8 -42.15 M18.55 -40.5 L21.15 -40.5 21.15 -41.3 18.55 -41.3 18.55 -40.5 M10.5 -43.15 L5.75 -38.75 10.6 -34.3 10.05 -33.75 4.65 -38.75 10.05 -43.8 10.6 -43.25 10.5 -43.15 M15.0 -38.9 L17.45 -38.9 17.45 -39.65 15.0 -39.65 15.0 -38.9 M18.55 -38.9 L21.15 -38.9 21.15 -39.65 18.55 -39.65 18.55 -38.9 M18.55 -36.4 L18.55 -35.25 20.1 -35.3 19.6 -36.1 20.05 -36.4 18.55 -36.4 M2.6 -41.4 L-0.05 -43.35 Q-1.35 -44.0 -2.9 -44.0 -4.55 -44.0 -5.95 -43.35 L-8.5 -41.4 -9.0 -41.75 Q-8.0 -43.05 -6.45 -43.85 -4.7 -44.8 -2.9 -44.8 -0.95 -44.8 0.65 -43.85 L3.25 -41.75 2.6 -41.4 M9.2 -28.4 Q9.75 -28.3 9.25 -27.95 L9.25 -19.25 17.5 -19.25 17.5 -28.4 18.7 -28.4 Q19.25 -28.3 18.75 -27.95 L18.75 -17.5 17.5 -17.5 17.5 -18.05 9.25 -18.05 9.25 -17.15 8.0 -17.15 8.0 -28.4 9.2 -28.4 M26.1 -43.8 L31.5 -38.75 26.1 -33.75 25.55 -34.3 30.4 -38.75 25.55 -43.25 26.1 -43.8 M22.95 -3.25 L22.95 -2.05 21.65 -2.05 21.65 -3.25 22.95 -3.25 M14.95 -12.25 L15.55 -12.8 Q16.95 -11.45 17.55 -10.2 18.3 -8.75 18.3 -6.8 18.3 -5.15 17.55 -3.65 L16.65 -2.1 15.55 -0.75 14.95 -1.35 15.6 -2.1 16.85 -4.05 Q17.45 -5.35 17.45 -6.8 17.45 -8.55 16.85 -9.85 16.3 -11.0 14.95 -12.25 M-2.85 -60.35 L-2.6 -59.75 -2.0 -59.5 Q-1.65 -59.5 -1.4 -59.75 L-1.2 -60.35 -1.4 -60.95 -2.0 -61.15 -2.6 -60.95 -2.85 -60.35 M-3.25 -60.35 L-2.9 -61.2 Q-2.5 -61.6 -2.0 -61.6 -1.5 -61.6 -1.15 -61.2 -0.75 -60.85 -0.75 -60.35 -0.75 -59.85 -1.15 -59.45 -1.5 -59.1 -2.0 -59.1 -2.5 -59.1 -2.9 -59.45 -3.25 -59.85 -3.25 -60.35 M-10.9 -44.75 L-10.3 -44.15 Q-12.85 -41.75 -12.85 -38.75 -12.85 -35.75 -10.3 -33.4 L-10.9 -32.8 Q-13.65 -35.4 -13.65 -38.75 -13.65 -41.5 -11.85 -43.7 L-10.9 -44.75 M-9.4 -29.95 L-9.4 -16.0 -10.5 -16.0 -10.5 -29.95 -9.4 -29.95 M-10.4 -12.8 L-9.8 -12.25 Q-11.15 -11.0 -11.7 -9.85 -12.3 -8.55 -12.3 -6.8 -12.3 -5.35 -11.7 -4.05 -11.2 -2.95 -10.05 -1.6 L-9.8 -1.35 -10.4 -0.75 -11.65 -2.4 -12.4 -3.65 Q-13.15 -5.15 -13.15 -6.8 -13.15 -8.75 -12.4 -10.2 -11.8 -11.45 -10.4 -12.8 M-16.4 -3.25 L-16.4 -2.05 -17.7 -2.05 -17.7 -3.25 -16.4 -3.25 M-20.0 -0.6 L-20.55 -0.6 -20.0 -2.05 -20.55 -2.05 -20.55 -3.25 -19.25 -3.25 -19.25 -2.05 -20.0 -0.6" fill="#000000" fill-rule="evenodd" stroke="none"/>
    <path d="M-21.1 -73.75 Q-17.2 -74.8 -16.3 -77.9 -15.9 -80.1 -15.15 -82.0 L-15.15 -82.05 -14.75 -82.05 -15.3 -80.6 -14.75 -80.6 -14.0 -82.05 -14.0 -83.25 -14.65 -83.25 -13.65 -85.1 -12.75 -86.4 -12.75 -86.45 -6.65 -86.45 -6.65 -87.3 -12.05 -87.3 Q-10.55 -89.1 -8.5 -90.35 -6.05 -91.85 -3.15 -92.6 L-4.85 -90.65 -3.55 -90.65 -0.8 -93.05 1.3 -92.8 0.85 -91.9 1.4 -91.3 1.75 -92.05 2.35 -92.55 3.0 -92.35 3.5 -91.95 Q4.3 -91.15 4.75 -91.15 L5.35 -91.3 6.15 -90.85 8.35 -89.3 7.9 -88.9 Q12.05 -86.15 14.15 -83.15 L14.95 -83.8 Q16.35 -82.95 17.7 -82.25 L18.3 -81.5 30.25 -91.45 29.65 -92.2 32.1 -93.9 32.1 -80.0 33.2 -80.0 32.85 -77.9 32.85 -64.0 33.2 -64.0 33.8 -61.9 32.7 -61.9 32.7 -48.0 Q28.3 -46.95 32.5 -44.15 34.85 -41.9 35.0 -39.1 L35.0 -38.75 Q35.0 -37.1 34.25 -35.65 33.65 -34.45 32.5 -33.4 28.55 -33.65 27.05 -29.95 L26.8 -29.95 26.8 -16.0 27.9 -16.0 29.05 -12.25 Q30.4 -11.0 30.95 -9.85 31.55 -8.55 31.55 -6.8 31.55 -5.5 31.05 -4.3 L30.95 -4.05 30.9 -3.95 Q30.35 -2.8 29.05 -1.35 L29.65 -0.75 27.9 -0.55 27.9 -1.2 23.7 -1.2 21.95 -1.0 15.6 -0.6 13.8 -0.55 13.8 -1.2 9.6 -1.2 9.55 -1.2 5.35 -1.2 5.35 -0.6 5.3 -0.6 -8.65 -0.6 -10.35 -0.7 -13.35 -0.7 -19.95 -0.55 -21.4 -0.55 -21.4 -1.2 -25.6 -1.2 -25.6 -0.55 Q-28.35 -0.7 -31.05 -1.4 L-30.55 -1.9 -31.7 -3.3 -32.45 -4.15 -34.7 -6.4 -35.05 -6.9 -34.55 -7.65 -32.75 -9.5 -30.75 -12.15 -31.75 -12.95 -28.35 -17.6 Q-26.45 -18.9 -25.1 -20.8 L-24.6 -21.6 -23.75 -23.2 Q-22.85 -25.3 -22.7 -27.8 L-23.35 -28.0 -20.25 -33.45 -14.5 -43.8 -12.25 -45.15 Q-11.25 -45.65 -10.4 -46.25 -7.35 -48.35 -6.3 -51.05 L-6.15 -51.35 -5.1 -52.3 Q-7.1 -55.15 -11.55 -57.95 -13.45 -61.8 -16.3 -64.0 -19.3 -66.85 -23.15 -66.8 L-22.5 -67.8 -23.35 -68.4 -24.0 -67.3 Q-24.45 -66.9 -24.85 -66.9 L-25.35 -67.1 Q-25.6 -67.4 -25.4 -68.0 L-23.95 -72.45 -22.75 -72.35 -22.6 -72.35 Q-21.7 -72.4 -21.1 -72.75 L-21.1 -73.75 M-2.85 -73.4 Q-1.75 -73.4 -1.05 -72.7 -0.35 -71.95 -0.35 -70.9 -0.35 -69.8 -1.05 -69.05 -1.75 -68.35 -2.85 -68.35 -3.95 -68.35 -4.65 -69.05 -5.35 -69.8 -5.35 -70.9 -5.35 -71.95 -4.65 -72.7 -3.95 -73.4 -2.85 -73.4 M-2.85 -74.4 Q-4.25 -74.4 -5.3 -73.35 -6.35 -72.3 -6.35 -70.9 -6.35 -69.45 -5.3 -68.4 -4.25 -67.4 -2.85 -67.4 -1.45 -67.4 -0.4 -68.4 0.65 -69.45 0.65 -70.9 0.65 -72.3 -0.4 -73.35 -1.45 -74.4 -2.85 -74.4 M-6.35 -74.4 Q-4.95 -75.8 -2.85 -75.8 -0.75 -75.8 0.65 -74.4 2.05 -72.95 2.05 -70.9 2.05 -68.8 0.65 -67.4 -0.75 -65.95 -2.85 -65.95 -4.95 -65.95 -6.35 -67.4 -7.75 -68.8 -7.75 -70.9 -7.75 -72.95 -6.35 -74.4 M-2.85 -76.8 Q-5.25 -76.8 -7.0 -75.05 -8.75 -73.3 -8.75 -70.9 -8.75 -68.45 -7.0 -66.7 -5.25 -64.95 -2.85 -64.95 -0.45 -64.95 1.3 -66.7 3.05 -68.45 3.05 -70.9 3.05 -73.3 1.3 -75.05 -0.45 -76.8 -2.85 -76.8 M-16.3 -77.9 L-16.3 -64.0 -15.2 -64.0 -15.2 -77.9 -16.3 -77.9 M-20.0 -0.6 L-19.25 -2.05 -19.25 -3.25 -20.55 -3.25 -20.55 -2.05 -20.0 -2.05 -20.55 -0.6 -20.0 -0.6 M-16.4 -3.25 L-17.7 -3.25 -17.7 -2.05 -16.4 -2.05 -16.4 -3.25 M-10.4 -12.8 Q-11.8 -11.45 -12.4 -10.2 -13.15 -8.75 -13.15 -6.8 -13.15 -5.15 -12.4 -3.65 L-11.65 -2.4 -10.4 -0.75 -9.8 -1.35 -10.05 -1.6 Q-11.2 -2.95 -11.7 -4.05 -12.3 -5.35 -12.3 -6.8 -12.3 -8.55 -11.7 -9.85 -11.15 -11.0 -9.8 -12.25 L-10.4 -12.8 M-9.4 -29.95 L-10.5 -29.95 -10.5 -16.0 -9.4 -16.0 -9.4 -29.95 M-10.9 -44.75 L-11.85 -43.7 Q-13.65 -41.5 -13.65 -38.75 -13.65 -35.4 -10.9 -32.8 L-10.3 -33.4 Q-12.85 -35.75 -12.85 -38.75 -12.85 -41.75 -10.3 -44.15 L-10.9 -44.75 M-3.25 -60.35 Q-3.25 -59.85 -2.9 -59.45 -2.5 -59.1 -2.0 -59.1 -1.5 -59.1 -1.15 -59.45 -0.75 -59.85 -0.75 -60.35 -0.75 -60.85 -1.15 -61.2 -1.5 -61.6 -2.0 -61.6 -2.5 -61.6 -2.9 -61.2 L-3.25 -60.35 M-2.85 -60.35 L-2.6 -60.95 -2.0 -61.15 -1.4 -60.95 -1.2 -60.35 -1.4 -59.75 Q-1.65 -59.5 -2.0 -59.5 L-2.6 -59.75 -2.85 -60.35 M14.95 -12.25 Q16.3 -11.0 16.85 -9.85 17.45 -8.55 17.45 -6.8 17.45 -5.35 16.85 -4.05 L15.6 -2.1 14.95 -1.35 15.55 -0.75 16.65 -2.1 17.55 -3.65 Q18.3 -5.15 18.3 -6.8 18.3 -8.75 17.55 -10.2 16.95 -11.45 15.55 -12.8 L14.95 -12.25 M22.95 -3.25 L21.65 -3.25 21.65 -2.05 22.95 -2.05 22.95 -3.25 M26.1 -43.8 L25.55 -43.25 30.4 -38.75 25.55 -34.3 26.1 -33.75 31.5 -38.75 26.1 -43.8 M9.2 -28.4 L8.0 -28.4 8.0 -17.15 9.25 -17.15 9.25 -18.05 17.5 -18.05 17.5 -17.5 18.75 -17.5 18.75 -27.95 Q19.25 -28.3 18.7 -28.4 L17.5 -28.4 17.5 -19.25 9.25 -19.25 9.25 -27.95 Q9.75 -28.3 9.2 -28.4 M2.6 -41.4 L3.25 -41.75 0.65 -43.85 Q-0.95 -44.8 -2.9 -44.8 -4.7 -44.8 -6.45 -43.85 -8.0 -43.05 -9.0 -41.75 L-8.5 -41.4 -5.95 -43.35 Q-4.55 -44.0 -2.9 -44.0 -1.35 -44.0 -0.05 -43.35 L2.6 -41.4 M18.55 -36.4 L20.05 -36.4 19.6 -36.1 20.1 -35.3 18.55 -35.25 18.55 -36.4 M18.55 -38.9 L18.55 -39.65 21.15 -39.65 21.15 -38.9 18.55 -38.9 M15.0 -38.9 L15.0 -39.65 17.45 -39.65 17.45 -38.9 15.0 -38.9 M10.5 -43.15 L10.6 -43.25 10.05 -43.8 4.65 -38.75 10.05 -33.75 10.6 -34.3 5.75 -38.75 10.5 -43.15 M18.55 -40.5 L18.55 -41.3 21.15 -41.3 21.15 -40.5 18.55 -40.5 M16.8 -42.15 L16.8 -43.0 19.35 -43.0 19.35 -42.15 16.8 -42.15 M17.45 -41.3 L17.45 -40.5 15.0 -40.5 15.0 -41.3 17.45 -41.3 M19.35 -45.15 L19.35 -43.85 16.8 -43.85 16.8 -44.85 Q17.15 -45.1 16.75 -45.15 L15.7 -45.15 15.7 -43.85 11.9 -43.85 11.9 -43.0 15.7 -43.0 15.7 -42.15 13.9 -42.15 13.9 -38.0 17.45 -38.0 17.45 -37.3 12.5 -37.3 12.5 -32.7 13.6 -32.7 13.6 -36.4 17.45 -36.4 17.45 -35.2 14.45 -35.1 14.6 -34.1 Q14.65 -33.45 14.95 -34.05 L20.75 -34.5 21.25 -33.8 22.1 -34.45 20.4 -36.4 22.6 -36.4 22.6 -34.0 22.35 -33.8 21.7 -33.8 21.95 -32.75 22.8 -32.75 Q23.7 -32.75 23.7 -33.8 L23.7 -37.3 18.55 -37.3 18.55 -38.0 22.25 -38.0 22.25 -42.15 20.45 -42.15 20.45 -43.0 24.15 -43.0 24.15 -43.85 20.45 -43.85 20.45 -44.85 Q20.85 -45.1 20.4 -45.15 L19.35 -45.15 M6.65 -52.3 L4.45 -56.2 8.85 -56.2 6.65 -52.3 M17.9 -60.75 L17.3 -60.15 Q19.8 -57.75 19.8 -54.75 19.8 -52.0 17.75 -49.8 L17.3 -49.4 17.9 -48.8 Q20.6 -51.4 20.6 -54.75 20.6 -58.15 17.9 -60.75 M14.35 -61.2 Q14.0 -60.85 14.0 -60.35 14.0 -59.85 14.35 -59.45 14.75 -59.1 15.25 -59.1 15.75 -59.1 16.1 -59.45 16.5 -59.85 16.5 -60.35 16.5 -60.85 16.1 -61.2 15.75 -61.6 15.25 -61.6 14.75 -61.6 14.35 -61.2 M11.7 -59.0 L10.65 -59.6 9.4 -57.35 3.9 -57.35 2.65 -59.6 1.6 -59.0 6.65 -49.85 11.7 -59.0 M14.4 -60.35 L14.65 -60.95 Q14.85 -61.15 15.25 -61.15 L15.85 -60.95 16.05 -60.35 15.85 -59.75 Q15.6 -59.5 15.25 -59.5 14.85 -59.5 14.65 -59.75 L14.4 -60.35 M23.65 -57.95 L22.5 -56.9 Q26.65 -54.15 28.75 -51.15 L30.1 -52.3 Q28.1 -55.15 23.65 -57.95 M30.65 -77.9 L29.55 -77.9 29.55 -64.0 30.65 -64.0 30.65 -77.9" fill="#ffffff" fill-rule="evenodd" stroke="none"/>
  </g>
</svg>
