<svg xmlns:xlink="http://www.w3.org/1999/xlink" height="25.45px" width="56.4px" xmlns="http://www.w3.org/2000/svg">
  <g transform="matrix(1.0, 0.0, 0.0, 1.0, 33.2, 13.45)">
    <path d="M18.65 -7.95 L18.4 -7.85 17.95 -7.15 18.4 -6.7 Q21.9 -3.15 21.9 1.25 21.9 6.0 17.95 9.65 L18.65 10.35 Q-5.0 13.7 -28.65 10.35 L-27.95 9.65 Q-31.9 6.0 -31.9 1.25 -31.9 -1.25 -30.75 -3.5 -29.8 -5.45 -27.95 -7.15 L-28.8 -7.95 Q-23.65 -10.6 -17.8 -11.85 -11.95 -13.1 -6.0 -13.4 L5.65 -12.55 Q11.35 -11.45 16.55 -9.2 17.7 -8.75 18.65 -7.95 M15.75 -6.25 L15.65 -6.9 15.15 -7.65 Q14.55 -8.25 13.8 -8.25 13.0 -8.25 12.4 -7.65 L11.9 -6.9 11.8 -6.25 Q11.8 -5.5 12.4 -4.9 13.0 -4.3 13.8 -4.3 14.55 -4.3 15.15 -4.9 15.75 -5.5 15.75 -6.25 M7.95 -5.35 L6.3 -6.3 4.35 -2.8 -4.25 -2.8 -6.2 -6.3 -7.85 -5.35 0.05 9.0 7.95 -5.35 M3.5 -1.0 L0.05 5.1 -3.4 -1.0 3.5 -1.0 M13.8 -7.55 Q14.4 -7.55 14.75 -7.2 L15.1 -6.25 15.1 -6.1 14.75 -5.3 Q14.4 -4.95 13.8 -4.95 13.2 -4.95 12.85 -5.3 12.55 -5.6 12.5 -6.05 L12.5 -6.25 Q12.5 -6.85 12.85 -7.2 13.2 -7.55 13.8 -7.55 M-13.75 -8.25 Q-14.55 -8.25 -15.15 -7.65 L-15.65 -6.9 -15.75 -6.25 Q-15.75 -5.5 -15.15 -4.9 -14.55 -4.3 -13.75 -4.3 -13.0 -4.3 -12.4 -4.9 -11.8 -5.5 -11.8 -6.25 L-11.9 -6.9 -12.4 -7.65 Q-13.0 -8.25 -13.75 -8.25 M-15.05 -6.25 Q-15.05 -6.85 -14.7 -7.2 -14.35 -7.55 -13.75 -7.55 -13.15 -7.55 -12.8 -7.2 -12.45 -6.85 -12.45 -6.25 L-12.45 -6.1 Q-12.5 -5.6 -12.8 -5.3 -13.15 -4.95 -13.75 -4.95 -14.35 -4.95 -14.7 -5.3 L-15.05 -6.05 -15.05 -6.25" fill="#ffffff" fill-rule="evenodd" stroke="none"/>
    <path d="M7.95 -5.35 L0.05 9.0 -7.85 -5.35 -6.2 -6.3 -4.25 -2.8 4.35 -2.8 6.3 -6.3 7.95 -5.35 M15.75 -6.25 Q15.75 -5.5 15.15 -4.9 14.55 -4.3 13.8 -4.3 13.0 -4.3 12.4 -4.9 11.8 -5.5 11.8 -6.25 L11.9 -6.9 12.4 -7.65 Q13.0 -8.25 13.8 -8.25 14.55 -8.25 15.15 -7.65 L15.65 -6.9 15.75 -6.25 M18.65 10.35 L17.95 9.65 Q21.9 6.0 21.9 1.25 21.9 -3.15 18.4 -6.7 L17.95 -7.15 18.4 -7.85 18.65 -7.95 18.9 -8.1 Q23.2 -4.1 23.2 1.25 23.2 6.6 18.9 10.6 L18.65 10.35 M-28.8 -7.95 L-27.95 -7.15 Q-29.8 -5.45 -30.75 -3.5 -31.9 -1.25 -31.9 1.25 -31.9 6.0 -27.95 9.65 L-28.65 10.35 -28.9 10.6 Q-33.2 6.6 -33.2 1.25 -33.2 -1.3 -32.25 -3.5 -31.2 -5.95 -28.9 -8.05 L-28.8 -7.95 M13.8 -7.55 Q13.2 -7.55 12.85 -7.2 12.5 -6.85 12.5 -6.25 L12.5 -6.05 Q12.55 -5.6 12.85 -5.3 13.2 -4.95 13.8 -4.95 14.4 -4.95 14.75 -5.3 L15.1 -6.1 15.1 -6.25 14.75 -7.2 Q14.4 -7.55 13.8 -7.55 M3.5 -1.0 L-3.4 -1.0 0.05 5.1 3.5 -1.0 M-15.05 -6.25 L-15.05 -6.05 -14.7 -5.3 Q-14.35 -4.95 -13.75 -4.95 -13.15 -4.95 -12.8 -5.3 -12.5 -5.6 -12.45 -6.1 L-12.45 -6.25 Q-12.45 -6.85 -12.8 -7.2 -13.15 -7.55 -13.75 -7.55 -14.35 -7.55 -14.7 -7.2 -15.05 -6.85 -15.05 -6.25 M-13.75 -8.25 Q-13.0 -8.25 -12.4 -7.65 L-11.9 -6.9 -11.8 -6.25 Q-11.8 -5.5 -12.4 -4.9 -13.0 -4.3 -13.75 -4.3 -14.55 -4.3 -15.15 -4.9 -15.75 -5.5 -15.75 -6.25 L-15.65 -6.9 -15.15 -7.65 Q-14.55 -8.25 -13.75 -8.25" fill="#000000" fill-rule="evenodd" stroke="none"/>
  </g>
</svg>
