<svg xmlns:xlink="http://www.w3.org/1999/xlink" height="78.9px" width="44.7px" xmlns="http://www.w3.org/2000/svg">
  <g transform="matrix(1.0, 0.0, 0.0, 1.0, 22.35, 39.45)">
    <path d="M11.2 -36.65 L11.5 -36.35 -3.9 -23.5 -4.25 -23.85 -4.7 -24.4 10.7 -37.25 11.2 -36.65 M-16.1 -17.45 L-15.6 -17.0 Q-17.35 -15.35 -18.1 -13.9 -18.9 -12.25 -18.85 -10.0 -18.9 -8.15 -18.1 -6.45 -17.35 -4.85 -15.6 -2.95 L-16.35 -2.25 -16.4 -2.2 -16.6 -2.45 Q-18.2 -4.3 -19.0 -5.95 -19.9 -7.85 -19.9 -10.0 -19.9 -12.5 -19.0 -14.4 -18.2 -16.05 -16.4 -17.7 L-16.1 -17.45 M-10.3 2.95 L-10.05 2.7 -9.3 3.45 -9.8 3.9 Q-12.55 6.8 -12.55 10.4 -12.55 14.25 -9.3 17.25 L-9.9 17.9 -10.05 18.05 Q-13.65 14.7 -13.6 10.4 -13.65 6.15 -10.3 2.95 M4.05 17.5 L3.8 17.25 Q7.0 14.25 7.05 10.4 7.0 6.5 3.8 3.45 L4.6 2.7 5.15 3.25 5.35 3.45 Q8.1 6.45 8.1 10.4 8.1 14.7 4.6 18.05 L4.05 17.5 M18.6 -2.5 L18.05 -3.05 Q21.25 -6.05 21.25 -9.95 21.25 -13.55 18.5 -16.4 L18.05 -16.9 18.8 -17.6 18.85 -17.6 Q22.3 -14.35 22.35 -9.95 22.3 -5.6 18.85 -2.25 L18.6 -2.5 M15.25 -21.5 L13.85 -21.5 13.85 -38.6 13.85 -39.45 15.25 -39.45 15.25 -21.5 M2.05 -18.05 L4.15 -18.05 6.25 -14.8 5.1 -14.8 2.05 -18.05 M13.8 -11.9 L13.8 -10.4 12.15 -10.4 12.15 -11.9 13.8 -11.9 M12.15 -3.95 L12.15 -5.45 13.8 -5.45 13.8 -3.95 12.95 -2.05 12.15 -2.05 12.9 -3.95 12.15 -3.95 M12.85 3.65 Q13.6 3.55 13.05 4.1 14.2 10.6 20.35 12.6 L19.3 14.45 Q15.75 14.4 12.55 16.05 L11.3 14.75 Q14.05 13.2 17.0 13.0 12.8 10.95 11.15 4.0 L12.85 3.65 M3.6 23.75 Q0.7 27.7 -1.25 29.55 -1.9 30.2 -1.9 30.55 L-1.5 31.2 1.4 34.1 3.85 36.95 2.5 38.25 Q0.7 35.55 -2.1 32.7 -3.4 31.4 -3.4 30.5 -3.4 29.85 -2.35 28.75 0.4 25.95 2.35 22.75 L3.6 23.75 M11.15 36.75 L10.2 38.65 9.5 38.65 10.2 36.75 9.5 36.75 9.5 35.2 11.15 35.2 11.15 36.75 M5.85 35.2 L7.5 35.2 7.5 36.75 6.5 38.65 5.85 38.65 6.5 36.75 5.85 36.75 5.85 35.2 M-4.05 -16.1 L0.75 -3.9 -0.95 -3.9 -2.4 -7.55 -7.1 -7.55 -8.55 -3.9 -10.25 -3.9 -5.45 -16.1 -4.05 -16.1 M-13.05 -16.2 L-11.4 -16.2 -11.4 -14.65 -12.4 -12.55 -13.05 -12.55 -12.4 -14.65 -13.05 -14.65 -13.05 -16.2 M-2.9 -8.85 L-4.75 -13.75 -6.55 -8.85 -2.9 -8.85 M-15.35 4.85 Q-16.8 12.85 -21.25 16.8 L-22.35 15.3 Q-18.3 11.9 -16.9 3.7 L-15.35 4.45 Q-14.9 4.75 -15.35 4.85 M-5.5 23.75 Q-8.4 27.7 -10.35 29.55 -11.0 30.2 -10.95 30.55 L-10.6 31.2 -7.7 34.1 -5.2 36.95 -6.55 38.25 Q-8.4 35.55 -11.2 32.7 -12.5 31.4 -12.5 30.5 -12.5 29.85 -11.4 28.75 -8.65 25.95 -6.75 22.75 L-5.5 23.75 M-20.35 21.5 L-20.35 39.45 -21.75 39.45 -21.75 21.5 -20.35 21.5" fill="#000000" fill-rule="evenodd" stroke="none"/>
    <path d="M-4.25 -23.85 L-3.9 -23.5 11.5 -36.35 11.2 -36.65 13.85 -38.6 13.85 -21.5 15.25 -21.5 15.45 -21.7 18.8 -18.15 18.8 -17.6 18.05 -16.9 18.5 -16.4 Q21.25 -13.55 21.25 -9.95 21.25 -6.05 18.05 -3.05 L18.6 -2.5 Q12.85 1.95 5.15 3.25 L4.6 2.7 3.8 3.45 Q7.0 6.5 7.05 10.4 7.0 14.25 3.8 17.25 L4.05 17.5 2.85 19.9 -0.95 20.75 Q-9.3 20.05 -9.9 17.9 L-9.3 17.25 Q-12.55 14.25 -12.55 10.4 -12.55 6.8 -9.8 3.9 L-9.3 3.45 -10.05 2.7 -10.3 2.95 -11.1 2.15 -12.0 1.9 -16.35 -2.25 -15.6 -2.95 Q-17.35 -4.85 -18.1 -6.45 -18.9 -8.15 -18.85 -10.0 -18.9 -12.25 -18.1 -13.9 -17.35 -15.35 -15.6 -17.0 L-16.1 -17.45 -11.7 -21.35 -4.25 -23.85 M12.15 -3.95 L12.9 -3.95 12.15 -2.05 12.95 -2.05 13.8 -3.95 13.8 -5.45 12.15 -5.45 12.15 -3.95 M13.8 -11.9 L12.15 -11.9 12.15 -10.4 13.8 -10.4 13.8 -11.9 M2.05 -18.05 L5.1 -14.8 6.25 -14.8 4.15 -18.05 2.05 -18.05 M-4.05 -16.1 L-5.45 -16.1 -10.25 -3.9 -8.55 -3.9 -7.1 -7.55 -2.4 -7.55 -0.95 -3.9 0.75 -3.9 -4.05 -16.1 M-2.9 -8.85 L-6.55 -8.85 -4.75 -13.75 -2.9 -8.85 M-13.05 -16.2 L-13.05 -14.65 -12.4 -14.65 -13.05 -12.55 -12.4 -12.55 -11.4 -14.65 -11.4 -16.2 -13.05 -16.2" fill="#ffffff" fill-rule="evenodd" stroke="none"/>
  </g>
</svg>
