<?xml version="1.0" encoding="UTF-8" standalone="no"?>
<svg xmlns:xlink="http://www.w3.org/1999/xlink" height="36.7px" width="31.65px" xmlns="http://www.w3.org/2000/svg">
  <g transform="matrix(1.0, 0.0, 0.0, 1.0, 12.2, 36.15)">
    <path d="M-8.05 -27.3 L-7.7 -28.55 0.15 -35.25 3.5 -34.55 6.25 -31.3 7.75 -26.4 8.0 -26.0 8.65 -25.2 8.65 -25.15 8.5 -25.05 Q7.85 -24.75 7.35 -25.2 L5.25 -25.15 2.75 -24.95 2.3 -25.1 1.6 -25.3 Q1.15 -25.4 0.75 -25.1 0.3 -24.8 -0.2 -25.2 L-0.7 -25.5 -1.25 -25.55 -1.85 -25.5 -2.25 -25.4 -4.05 -24.9 Q-5.4 -24.5 -5.95 -25.45 L-5.95 -25.5 -6.65 -26.55 -7.1 -26.85 -8.05 -27.3 M8.65 -25.2 L8.5 -25.05 8.65 -25.2" fill="#fee5cb" fill-rule="evenodd" stroke="none"/>
    <path d="M-8.05 -27.3 L-7.1 -26.85 -6.65 -26.55 -5.95 -25.5 -5.95 -25.45 Q-5.4 -24.5 -4.05 -24.9 L-2.25 -25.4 -1.85 -25.5 -1.25 -25.55 -0.7 -25.5 -0.2 -25.2 Q0.3 -24.8 0.75 -25.1 1.15 -25.4 1.6 -25.3 L2.3 -25.1 2.75 -24.95 5.25 -25.15 7.35 -25.2 Q7.85 -24.75 8.5 -25.05 L8.65 -25.15 11.75 -21.15 12.8 -17.9 11.1 -16.45 -11.7 -16.45 -11.7 -20.05 -9.4 -22.4 -8.05 -27.3" fill="#ffffff" fill-rule="evenodd" stroke="none"/>
    <path d="M8.65 -25.2 L8.0 -26.0 9.55 -27.65 Q11.75 -29.7 13.45 -31.95 14.4 -33.25 15.4 -34.0 L16.05 -34.5 16.8 -34.95 17.05 -35.15 18.2 -35.65 Q19.3 -34.95 18.8 -34.35 L13.65 -29.15 13.4 -28.9 12.25 -28.05 11.95 -27.85 9.5 -26.2 9.2 -25.75 8.8 -25.45 8.65 -25.2" fill="#e0e0e0" fill-rule="evenodd" stroke="none"/>
    <path d="M8.5 -25.05 L8.65 -25.2 8.8 -25.45 9.2 -25.75 9.5 -26.2 11.95 -27.85 12.25 -28.05 13.4 -28.9 13.65 -29.15 18.8 -34.35 Q19.3 -34.95 18.2 -35.65 L17.05 -35.15 16.8 -34.95 16.05 -34.5 15.4 -34.0 Q14.4 -33.25 13.45 -31.95 11.75 -29.7 9.55 -27.65 L8.0 -26.0" fill="none" stroke="#8f7c3f" stroke-linecap="round" stroke-linejoin="round" stroke-width="1.0"/>
    <path d="M-11.7 -16.45 L-11.7 -20.05 -9.35 -22.4 -7.7 -28.6 0.15 -35.3 3.5 -34.55 6.25 -31.3 7.75 -26.4 11.75 -21.15 12.8 -17.9 11.1 -16.45" fill="none" stroke="#8f7c3f" stroke-linecap="round" stroke-linejoin="round" stroke-width="1.0"/>
    <path d="M11.55 -16.45 Q11.3 -13.15 8.2 -10.7 5.25 -8.45 1.3 -8.15 L1.3 -7.7 -1.25 -7.65 -1.25 -8.15 Q-5.2 -8.45 -8.15 -10.7 -11.25 -13.15 -11.5 -16.45 L11.55 -16.45" fill="#ffffff" fill-rule="evenodd" stroke="none"/>
    <path d="M1.3 -7.7 L1.3 -3.95 Q4.25 -3.8 6.45 -2.65 8.6 -1.5 8.9 0.05 L-8.25 0.05 Q-8.0 -1.5 -5.8 -2.65 -3.85 -3.65 -1.25 -3.9 L-1.25 -7.65 1.3 -7.7" fill="#ffffff" fill-opacity="0.5019608" fill-rule="evenodd" stroke="none"/>
    <path d="M11.55 -16.45 Q11.3 -13.15 8.2 -10.7 5.25 -8.45 1.3 -8.15 L1.3 -7.7 1.3 -3.95 Q4.25 -3.8 6.45 -2.65 8.6 -1.5 8.9 0.05 L-8.25 0.05 Q-8.0 -1.5 -5.8 -2.65 -3.85 -3.65 -1.25 -3.9 L-1.25 -7.65 -1.25 -8.15 Q-5.2 -8.45 -8.15 -10.7 -11.25 -13.15 -11.5 -16.45" fill="none" stroke="#8f7c3f" stroke-linecap="round" stroke-linejoin="round" stroke-width="1.0"/>
    <path d="M-11.5 -16.45 L11.55 -16.45 Z" fill="none" stroke="#8f7c3f" stroke-linecap="round" stroke-linejoin="round" stroke-width="1.0"/>
  </g>
</svg>
