<svg xmlns:xlink="http://www.w3.org/1999/xlink" height="61.7px" width="47.8px" xmlns="http://www.w3.org/2000/svg">
  <g transform="matrix(1.0, 0.0, 0.0, 1.0, 23.9, 30.85)">
    <path d="M2.5 -26.35 L2.4 -26.25 2.8 -25.8 Q5.6 -22.9 5.7 -19.25 L5.7 -19.1 5.6 -17.75 Q5.1 -14.6 2.4 -12.05 L3.1 -11.3 2.9 -5.65 -0.1 -5.65 -0.1 6.05 1.35 6.05 1.35 4.9 8.6 4.9 8.6 5.8 9.9 5.8 9.9 7.5 -3.2 7.5 -3.2 8.85 6.65 8.85 Q6.65 11.75 7.65 13.8 8.7 15.85 10.45 15.6 13.65 18.65 13.65 22.6 L13.45 24.45 Q13.15 25.8 12.45 27.05 11.65 28.45 10.35 29.7 L9.7 30.0 4.1 30.0 4.1 30.35 -0.05 30.35 2.15 27.5 Q3.35 25.25 3.35 22.6 3.35 18.1 -0.2 14.75 L-1.05 15.5 Q2.25 18.6 2.25 22.6 2.25 25.25 0.8 27.5 L-1.05 29.7 -0.35 30.35 -1.65 30.35 -1.65 30.0 -7.25 30.0 -7.25 30.85 -7.35 30.85 -7.35 30.0 -12.9 30.0 -12.9 30.35 -14.05 30.35 -14.05 29.8 -14.05 28.2 -18.75 28.2 Q-21.3 28.15 -22.0 26.8 L-22.25 25.5 -22.05 24.7 Q-21.7 23.8 -20.6 22.95 -19.45 22.05 -17.55 21.4 -15.85 20.8 -13.6 20.35 L-14.05 18.6 -17.75 19.8 -19.4 20.4 Q-20.15 19.65 -20.45 18.3 L-20.6 14.85 -21.85 14.85 -21.85 10.35 -20.7 9.2 -20.25 9.65 -19.45 8.85 Q-22.85 5.75 -22.8 1.75 -22.85 -2.25 -19.45 -5.35 L-19.95 -5.8 -15.85 -10.15 -17.2 -11.5 -16.8 -11.9 Q-18.6 -13.9 -19.35 -15.5 L-19.45 -15.7 Q-20.15 -17.35 -20.15 -19.15 -20.15 -21.5 -19.35 -23.15 L-17.85 -25.25 -16.8 -26.35 -17.45 -27.2 Q-10.55 -33.3 -0.6 -29.15 L1.15 -27.9 2.5 -26.35 M18.5 -3.15 Q19.85 -3.2 20.95 -2.05 22.15 -0.85 22.15 1.75 22.15 4.35 20.95 5.6 19.85 6.7 18.5 6.7 17.35 6.7 16.4 5.9 L16.0 5.6 Q14.8 4.35 14.8 1.75 14.8 -0.85 16.0 -2.05 17.1 -3.2 18.5 -3.15 M-1.6 -24.1 L-0.45 -24.1 -2.6 -27.45 -4.75 -27.45 -1.6 -24.1 M13.9 5.3 L10.05 4.4 10.05 -4.55 15.0 -3.25 14.8 -3.05 Q13.05 -1.3 13.05 1.75 13.05 3.85 13.9 5.3 M1.35 -1.15 L1.35 -4.25 8.6 -4.25 8.6 -1.15 1.35 -1.15 M1.35 3.5 L1.35 0.25 8.6 0.25 8.6 3.5 1.35 3.5 M-18.05 -1.65 L-17.45 0.15 -13.4 -1.6 Q-11.15 -2.35 -9.65 -2.3 -8.4 -2.25 -7.65 -1.35 -6.85 -0.45 -6.85 1.1 -6.8 3.25 -7.95 4.45 -9.45 6.15 -13.65 6.15 L-13.3 7.85 Q-9.6 7.85 -7.6 6.35 -5.4 4.7 -5.25 1.7 -5.1 -1.3 -6.75 -2.75 -8.0 -3.8 -9.9 -3.8 L-13.45 -3.2 -18.05 -1.65 M-5.95 -10.85 L-5.95 -11.75 -11.5 -11.75 -11.5 -10.85 -5.95 -10.85 M-14.2 -23.95 L-13.5 -23.95 -14.2 -21.75 -13.5 -21.75 -12.5 -23.95 -12.5 -25.55 -14.2 -25.55 -14.2 -23.95" fill="#ffffff" fill-rule="evenodd" stroke="none"/>
    <path d="M3.1 -11.3 L2.4 -12.05 Q5.1 -14.6 5.6 -17.75 L5.7 -19.1 5.7 -19.25 Q5.6 -22.9 2.8 -25.8 L2.4 -26.25 2.5 -26.35 3.2 -27.0 4.6 -25.45 Q6.75 -22.65 6.8 -19.1 6.75 -16.4 5.45 -14.05 4.6 -12.55 3.2 -11.2 L3.1 -11.3 M-16.8 -26.35 L-17.85 -25.25 -19.35 -23.15 Q-20.15 -21.5 -20.15 -19.15 -20.15 -17.35 -19.45 -15.7 L-19.35 -15.5 Q-18.6 -13.9 -16.8 -11.9 L-17.2 -11.5 -17.6 -11.15 Q-19.35 -13.1 -20.2 -14.85 L-20.25 -15.0 Q-21.2 -16.95 -21.2 -19.15 -21.2 -21.75 -20.25 -23.7 -19.7 -24.9 -18.55 -26.15 L-17.85 -26.9 -17.6 -27.1 -16.8 -26.35 M-19.95 -5.8 L-19.45 -5.35 Q-22.85 -2.25 -22.8 1.75 -22.85 5.75 -19.45 8.85 L-20.25 9.65 -20.7 9.2 Q-22.65 7.2 -23.4 4.9 -23.95 3.4 -23.9 1.75 L-23.7 -0.3 Q-23.15 -3.15 -20.95 -5.45 L-20.25 -6.1 -19.95 -5.8 M-21.85 14.85 L-20.6 14.85 -20.45 18.3 Q-20.15 19.65 -19.4 20.4 L-17.75 19.8 -14.05 18.6 -13.6 20.35 Q-15.85 20.8 -17.55 21.4 -19.45 22.05 -20.6 22.95 -21.7 23.8 -22.05 24.7 L-22.25 25.5 -22.0 26.8 Q-21.3 28.15 -18.75 28.2 L-14.05 28.2 -14.05 29.8 -18.75 29.8 Q-20.85 29.8 -22.05 29.15 -23.7 28.2 -23.8 26.05 -23.9 24.0 -22.5 22.5 -21.85 21.75 -20.85 21.15 -22.5 19.15 -22.5 14.85 L-21.85 14.85 M-12.9 30.35 L-12.9 30.0 -7.35 30.0 -7.35 30.85 -12.9 30.85 -12.9 30.35 M-7.25 30.85 L-7.25 30.0 -1.65 30.0 -1.65 30.35 -1.65 30.85 -7.25 30.85 M-0.35 30.35 L-1.05 29.7 0.8 27.5 Q2.25 25.25 2.25 22.6 2.25 18.6 -1.05 15.5 L-0.2 14.75 Q3.35 18.1 3.35 22.6 3.35 25.25 2.15 27.5 L-0.05 30.35 -0.2 30.5 -0.35 30.35 M4.1 30.35 L4.1 30.0 9.7 30.0 9.7 30.85 4.1 30.85 4.1 30.35 M10.35 29.7 Q11.65 28.45 12.45 27.05 13.15 25.8 13.45 24.45 L13.65 22.6 Q13.65 18.65 10.45 15.6 L10.35 15.5 11.15 14.75 Q14.45 17.8 14.7 21.9 L14.75 22.6 Q14.7 25.4 13.3 27.8 L11.15 30.5 10.35 29.7 M6.65 8.85 L-3.2 8.85 -3.2 7.5 9.9 7.5 12.95 7.5 12.95 8.85 6.65 8.85 M9.9 5.8 L8.6 5.8 8.6 4.9 1.35 4.9 1.35 6.05 -0.1 6.05 -0.1 -5.65 2.9 -5.65 10.05 -5.65 10.05 -4.55 10.05 4.4 10.05 5.8 9.9 5.8 M-1.6 -24.1 L-4.75 -27.45 -2.6 -27.45 -0.45 -24.1 -1.6 -24.1 M18.5 -3.15 Q17.1 -3.2 16.0 -2.05 14.8 -0.85 14.8 1.75 14.8 4.35 16.0 5.6 L16.4 5.9 Q17.35 6.7 18.5 6.7 19.85 6.7 20.95 5.6 22.15 4.35 22.15 1.75 22.15 -0.85 20.95 -2.05 19.85 -3.2 18.5 -3.15 M15.0 -3.25 Q16.45 -4.55 18.5 -4.55 20.65 -4.55 22.15 -3.05 23.9 -1.3 23.9 1.75 23.9 4.75 22.15 6.5 20.65 8.05 18.5 8.1 16.3 8.05 14.8 6.5 L14.3 5.95 13.9 5.3 Q13.05 3.85 13.05 1.75 13.05 -1.3 14.8 -3.05 L15.0 -3.25 M1.35 3.5 L8.6 3.5 8.6 0.25 1.35 0.25 1.35 3.5 M1.35 -1.15 L8.6 -1.15 8.6 -4.25 1.35 -4.25 1.35 -1.15 M-14.2 -23.95 L-14.2 -25.55 -12.5 -25.55 -12.5 -23.95 -13.5 -21.75 -14.2 -21.75 -13.5 -23.95 -14.2 -23.95 M-5.95 -10.85 L-11.5 -10.85 -11.5 -11.75 -5.95 -11.75 -5.95 -10.85 M-18.05 -1.65 L-13.45 -3.2 -9.9 -3.8 Q-8.0 -3.8 -6.75 -2.75 -5.1 -1.3 -5.25 1.7 -5.4 4.7 -7.6 6.35 -9.6 7.85 -13.3 7.85 L-13.65 6.15 Q-9.45 6.15 -7.95 4.45 -6.8 3.25 -6.85 1.1 -6.85 -0.45 -7.65 -1.35 -8.4 -2.25 -9.65 -2.3 -11.15 -2.35 -13.4 -1.6 L-17.45 0.15 -18.05 -1.65" fill="#000000" fill-rule="evenodd" stroke="none"/>
  </g>
</svg>
