<?xml version="1.0" encoding="UTF-8" standalone="no"?>
<svg xmlns:xlink="http://www.w3.org/1999/xlink" height="65.0px" width="54.85px" xmlns="http://www.w3.org/2000/svg">
  <g transform="matrix(1.0, 0.0, 0.0, 1.0, 32.4, 33.25)">
    <path d="M9.25 23.25 Q7.0 17.4 13.0 17.3 17.3 17.25 17.75 21.15 18.2 25.0 14.1 25.7 9.95 26.35 9.25 23.25" fill="#e2d5c0" fill-rule="evenodd" stroke="none"/>
    <path d="M9.25 23.25 Q7.0 17.4 13.0 17.3 17.3 17.25 17.75 21.15 18.2 25.0 14.1 25.7 9.95 26.35 9.25 23.25 Z" fill="none" stroke="#8f7c3f" stroke-linecap="round" stroke-linejoin="round" stroke-width="1.0"/>
    <path d="M15.4 -31.8 Q22.15 -30.8 21.95 -24.35 21.65 -18.55 15.3 -17.9 L13.95 -17.8 Q11.3 -18.4 9.9 -19.75 7.5 -21.9 8.3 -26.35 9.3 -32.7 15.4 -31.8 M14.85 -20.7 Q16.25 -20.75 17.1 -21.8 18.75 -24.0 16.8 -25.9 14.95 -27.8 12.65 -25.9 11.0 -24.5 11.45 -22.7 L11.85 -21.75 12.5 -21.15 Q13.55 -20.55 14.85 -20.7" fill="#e2d5c0" fill-rule="evenodd" stroke="none"/>
    <path d="M14.85 -20.7 Q13.55 -20.55 12.5 -21.15 L11.85 -21.75 11.45 -22.7 Q11.0 -24.5 12.65 -25.9 14.95 -27.8 16.8 -25.9 18.75 -24.0 17.1 -21.8 16.25 -20.75 14.85 -20.7" fill="#8f7c3f" fill-rule="evenodd" stroke="none"/>
    <path d="M15.4 -31.8 Q22.15 -30.8 21.95 -24.35 21.65 -18.55 15.3 -17.9 L13.95 -17.8 Q11.3 -18.4 9.9 -19.75 7.5 -21.9 8.3 -26.35 9.3 -32.7 15.4 -31.8" fill="none" stroke="#8f7c3f" stroke-linecap="round" stroke-linejoin="round" stroke-width="1.0"/>
    <path d="M14.85 -20.7 Q13.55 -20.55 12.5 -21.15 L11.85 -21.75 11.45 -22.7 Q11.0 -24.5 12.65 -25.9 14.95 -27.8 16.8 -25.9 18.75 -24.0 17.1 -21.8 16.25 -20.75 14.85 -20.7" fill="none" stroke="#8f7c3f" stroke-linecap="round" stroke-linejoin="round" stroke-width="1.0"/>
    <path d="M-24.25 -32.65 Q-17.3 -31.7 -17.6 -25.3 -17.85 -19.75 -24.25 -19.0 L-25.8 -18.95 Q-32.95 -20.35 -31.75 -27.3 -30.65 -33.6 -24.25 -32.65 M-26.75 -23.25 Q-25.95 -22.35 -24.7 -21.85 -23.4 -21.8 -22.35 -22.55 -21.1 -23.5 -21.0 -25.25 -21.0 -26.95 -22.4 -27.8 -23.75 -28.65 -25.2 -28.15 -26.85 -27.6 -27.35 -26.15 -27.9 -24.5 -26.75 -23.25" fill="#e2d5c0" fill-rule="evenodd" stroke="none"/>
    <path d="M-26.75 -23.25 Q-27.9 -24.5 -27.35 -26.15 -26.85 -27.6 -25.2 -28.15 -23.75 -28.65 -22.4 -27.8 -21.0 -26.95 -21.0 -25.25 -21.1 -23.5 -22.35 -22.55 -23.4 -21.8 -24.7 -21.85 -25.95 -22.35 -26.75 -23.25" fill="#8f7c3f" fill-rule="evenodd" stroke="none"/>
    <path d="M-24.25 -32.65 Q-17.3 -31.7 -17.6 -25.3 -17.85 -19.75 -24.25 -19.0 L-25.8 -18.95 Q-32.95 -20.35 -31.75 -27.3 -30.65 -33.6 -24.25 -32.65 M-26.75 -23.25 Q-27.9 -24.5 -27.35 -26.15 -26.85 -27.6 -25.2 -28.15 -23.75 -28.65 -22.4 -27.8 -21.0 -26.95 -21.0 -25.25 -21.1 -23.5 -22.35 -22.55 -23.4 -21.8 -24.7 -21.85 -25.95 -22.35 -26.75 -23.25" fill="none" stroke="#8f7c3f" stroke-linecap="round" stroke-linejoin="round" stroke-width="1.0"/>
    <path d="M-17.85 10.7 L-16.85 10.55 Q-12.7 9.75 -8.5 8.3 -13.05 19.5 -20.6 11.1 L-17.85 10.7" fill="#e2d5c0" fill-rule="evenodd" stroke="none"/>
    <path d="M-17.85 10.7 L-20.6 11.1 Q-13.05 19.5 -8.5 8.3 -12.7 9.75 -16.85 10.55 L-17.85 10.7 Z" fill="none" stroke="#8f7c3f" stroke-linecap="round" stroke-linejoin="round" stroke-width="1.0"/>
    <path d="M11.3 9.7 L14.1 10.1 Q6.5 18.5 1.95 7.3 6.15 8.75 10.3 9.55 L11.3 9.7" fill="#e2d5c0" fill-rule="evenodd" stroke="none"/>
    <path d="M11.3 9.7 L14.1 10.1 Q6.5 18.5 1.95 7.3 6.15 8.75 10.3 9.55 L11.3 9.7 Z" fill="none" stroke="#8f7c3f" stroke-linecap="round" stroke-linejoin="round" stroke-width="1.0"/>
    <path d="M-0.9 5.1 L0.5 6.3 Q3.3 9.25 5.6 12.7 L9.95 19.45 Q11.6 22.0 11.65 24.85 11.6 28.8 6.25 29.1 L-2.1 29.95 -10.4 31.15 Q-16.3 31.85 -15.9 27.25 -15.6 23.15 -14.15 19.35 -12.8 15.65 -10.55 12.35 L-6.35 6.3 -5.95 5.7 -5.3 5.1 -0.9 5.1" fill="#8f7c3f" fill-rule="evenodd" stroke="none"/>
    <path d="M-0.9 5.1 L0.5 6.3 Q3.3 9.25 5.6 12.7 L9.95 19.45 Q11.6 22.0 11.65 24.85 11.6 28.8 6.25 29.1 L-2.1 29.95 -10.4 31.15 Q-16.3 31.85 -15.9 27.25 -15.6 23.15 -14.15 19.35 -12.8 15.65 -10.55 12.35 L-6.35 6.3 -5.95 5.7 -5.3 5.1" fill="none" stroke="#8f7c3f" stroke-linecap="round" stroke-linejoin="round" stroke-width="1.0"/>
    <path d="M-3.35 12.9 Q-6.55 10.55 -3.2 11.1 -2.9 12.45 -3.35 12.9" fill="#d0bc9b" fill-rule="evenodd" stroke="none"/>
    <path d="M3.2 22.15 L2.15 24.25 Q1.3 25.3 -2.4 25.5 -5.25 25.6 -7.65 22.45 -10.85 18.55 -9.2 18.3 L-0.65 17.45 4.75 17.2 Q3.55 21.7 3.2 22.15" fill="#fefefe" fill-rule="evenodd" stroke="none"/>
    <path d="M3.2 22.15 L2.15 24.25 Q1.3 25.3 -2.4 25.5 -5.25 25.6 -7.65 22.45 -10.85 18.55 -9.2 18.3 L-0.65 17.45 4.75 17.2 Q3.55 21.7 3.2 22.15 M-3.35 12.9 Q-6.55 10.55 -3.2 11.1 -2.9 12.45 -3.35 12.9" fill="none" stroke="#ffffff" stroke-linecap="round" stroke-linejoin="round" stroke-width="1.0"/>
    <path d="M-10.9 -31.4 Q6.45 -34.3 16.4 -21.4 27.3 -7.15 13.65 3.35 5.75 9.4 -10.1 8.2 -27.75 6.45 -28.95 -11.1 L-29.0 -12.2 Q-29.5 -26.95 -13.9 -30.75 L-10.9 -31.4" fill="#e2d5c0" fill-rule="evenodd" stroke="none"/>
    <path d="M-10.9 -31.4 Q6.45 -34.3 16.4 -21.4 27.3 -7.15 13.65 3.35 5.75 9.4 -10.1 8.2 -27.75 6.45 -28.95 -11.1 L-29.0 -12.2 Q-29.5 -26.95 -13.9 -30.75 L-10.9 -31.4 Z" fill="none" stroke="#8f7c3f" stroke-linecap="round" stroke-linejoin="round" stroke-width="1.0"/>
    <path d="M-11.6 7.7 Q-15.0 6.15 -16.45 2.5 -18.5 -2.25 -16.55 -6.65 -14.4 -11.6 -9.25 -12.0 L-1.35 -12.35 Q3.75 -12.45 7.4 -8.8 10.95 -5.4 10.15 -0.3 9.35 5.15 4.4 6.4 -0.2 7.65 -4.85 7.8 L-11.45 7.3 -11.6 7.7" fill="#ffffff" fill-rule="evenodd" stroke="none"/>
    <path d="M-11.6 7.7 Q-15.0 6.15 -16.45 2.5 -18.5 -2.25 -16.55 -6.65 -14.4 -11.6 -9.25 -12.0 L-1.35 -12.35 Q3.75 -12.45 7.4 -8.8 10.95 -5.4 10.15 -0.3 9.35 5.15 4.4 6.4 -0.2 7.65 -4.85 7.8 L-11.45 7.3 M-11.6 7.7 L-9.8 8.3" fill="none" stroke="#8f7c3f" stroke-linecap="round" stroke-linejoin="round" stroke-width="1.0"/>
    <path d="M-0.65 -17.3 Q0.65 -17.4 0.95 -16.45 1.3 -15.15 0.45 -14.7 0.0 -14.45 -0.45 -14.9 -0.95 -15.5 -0.95 -16.15 L-0.85 -16.75 -0.65 -17.3" fill="#8f7c3f" fill-rule="evenodd" stroke="none"/>
    <path d="M4.4 -6.7 Q3.45 -5.0 2.0 -3.95 L-1.75 -4.05 Q-3.65 -5.1 -4.3 -7.95 L-4.8 -8.0 Q-5.35 -4.65 -6.15 -4.1 -7.2 -3.4 -9.05 -3.85 -10.45 -4.15 -11.2 -7.2 M9.25 -9.4 Q10.05 -9.45 10.7 -10.05 11.4 -10.7 12.25 -11.15 M12.35 -8.2 L13.75 -8.9 Q14.35 -9.1 14.95 -9.45 M-8.85 -17.05 Q-7.85 -16.65 -8.25 -15.7 -8.3 -14.9 -9.95 -14.65 -10.6 -15.95 -9.95 -17.25 L-8.85 -17.05 Q-10.25 -15.5 -9.75 -15.1 L-9.95 -14.65 M-9.75 -15.1 Q-9.45 -14.95 -8.65 -15.1 -9.0 -16.45 -9.75 -15.1 M-8.25 -15.7 L-8.65 -15.1 M-0.45 -14.9 Q-0.95 -15.5 -0.95 -16.15 L-0.85 -16.75 -0.65 -17.3 M-18.1 -9.35 L-19.4 -8.9 Q-19.35 -7.85 -20.05 -8.0 L-19.4 -8.9 M-4.8 -8.0 L-5.35 -8.25 Q-6.55 -9.05 -4.85 -11.7 -2.7 -9.1 -4.3 -7.95 L-4.85 -11.7 -5.35 -8.25 M-23.2 -8.5 Q-22.3 -10.2 -20.7 -10.35" fill="none" stroke="#8f7c3f" stroke-linecap="round" stroke-linejoin="round" stroke-width="1.0"/>
    <path d="M-0.65 -17.3 Q0.65 -17.4 0.95 -16.45 1.3 -15.15 0.45 -14.7 0.0 -14.45 -0.45 -14.9" fill="none" stroke="#8f7c3f" stroke-linecap="round" stroke-linejoin="round" stroke-width="1.0"/>
  </g>
</svg>
