<svg xmlns:xlink="http://www.w3.org/1999/xlink" height="94.05px" width="49.4px" xmlns="http://www.w3.org/2000/svg">
  <g transform="matrix(1.0, 0.0, 0.0, 1.0, 25.5, 94.05)">
    <path d="M22.05 -2.0 Q22.05 -1.15 15.75 -0.6 L0.55 0.0 -14.65 -0.6 Q-20.95 -1.15 -20.95 -2.0 -20.95 -2.85 -14.65 -3.45 L0.55 -4.0 15.75 -3.45 Q22.05 -2.85 22.05 -2.0" fill="#000000" fill-rule="evenodd" stroke="none"/>
    <path d="M17.45 -81.9 L16.5 -81.9 16.5 -86.75 Q16.5 -88.5 17.55 -89.55 18.7 -90.7 20.2 -90.7 21.7 -90.7 22.85 -89.55 23.9 -88.5 23.9 -86.75 L23.9 -81.9 22.95 -81.9 22.95 -86.75 Q22.95 -88.05 22.1 -88.9 21.3 -89.65 20.2 -89.65 19.1 -89.65 18.3 -88.9 17.45 -88.05 17.45 -86.75 L17.45 -81.9 M22.3 -76.05 L23.4 -75.55 23.45 -75.5 Q23.75 -75.35 23.4 -75.25 22.35 -69.5 19.15 -66.65 L18.35 -67.7 Q21.3 -70.15 22.3 -76.05 M12.95 -60.95 L13.95 -59.45 Q14.6 -58.1 14.6 -56.3 14.6 -54.75 13.95 -53.35 13.35 -52.1 12.05 -50.7 L11.8 -50.95 11.5 -51.25 Q12.8 -52.6 13.3 -53.75 13.85 -54.95 13.85 -56.3 13.85 -57.95 13.3 -59.1 12.8 -60.2 11.5 -61.35 L12.05 -61.85 12.95 -60.95 M8.55 -45.95 L3.6 -37.1 3.55 -37.0 3.15 -36.35 2.65 -36.65 8.05 -46.25 8.55 -45.95 M6.25 -31.3 L7.45 -30.95 Q7.25 -27.75 5.7 -25.2 4.2 -22.65 1.7 -21.2 L0.9 -22.2 Q5.95 -25.05 6.25 -31.3 M-2.0 -15.6 L-0.85 -15.6 -0.85 -9.45 Q-0.85 -8.3 -1.55 -7.6 -2.35 -6.8 -4.1 -6.8 -5.8 -6.8 -6.6 -7.6 -7.35 -8.3 -7.35 -9.45 L-7.35 -15.6 -6.75 -15.6 -6.15 -15.6 -6.15 -9.5 Q-6.15 -8.8 -5.7 -8.3 -5.15 -7.75 -4.1 -7.75 -3.0 -7.75 -2.45 -8.3 -2.0 -8.8 -2.0 -9.5 L-2.0 -15.6 M-9.2 -15.6 L-9.2 -9.45 Q-9.2 -8.3 -9.9 -7.6 -10.7 -6.8 -12.45 -6.8 -14.15 -6.8 -14.95 -7.6 -15.7 -8.3 -15.7 -9.45 L-15.7 -15.6 -14.5 -15.6 -14.5 -9.5 Q-14.5 -8.8 -14.05 -8.3 -13.5 -7.75 -12.45 -7.75 -11.35 -7.75 -10.8 -8.3 -10.35 -8.8 -10.35 -9.5 L-10.35 -15.6 -9.2 -15.6 M-11.3 -21.65 L-12.1 -22.7 Q-9.35 -25.0 -8.3 -30.25 L-8.15 -31.05 -7.05 -30.55 Q-6.7 -30.35 -7.05 -30.25 -8.1 -24.5 -11.3 -21.65 M-13.3 -36.1 L-14.8 -38.35 -14.9 -38.55 -14.9 -38.6 Q-15.45 -39.9 -15.45 -41.3 -15.45 -43.1 -14.8 -44.45 -14.25 -45.65 -12.9 -46.85 L-12.35 -46.35 Q-13.65 -45.2 -14.15 -44.1 -14.7 -42.95 -14.7 -41.3 -14.7 -40.25 -14.35 -39.25 L-14.15 -38.75 Q-13.65 -37.6 -12.35 -36.25 L-12.9 -35.7 -13.3 -36.1 M-18.65 -37.25 L-18.65 -36.25 -21.95 -36.25 Q-25.35 -36.25 -25.5 -38.9 -25.55 -40.95 -23.4 -42.3 -24.55 -43.7 -24.55 -46.7 L-23.25 -46.7 -23.1 -44.3 Q-22.9 -43.35 -22.4 -42.8 L-18.65 -44.05 -18.35 -42.85 Q-21.7 -42.2 -23.25 -41.0 -24.3 -40.15 -24.35 -39.25 -24.45 -37.35 -21.95 -37.35 L-18.65 -37.35 -18.65 -37.25 M-16.55 -51.35 L-17.05 -51.65 -11.65 -61.25 -11.15 -60.95 -16.55 -51.35 M-10.6 -64.95 L-11.65 -64.95 -11.65 -77.85 -10.6 -77.85 -10.6 -64.95 M-14.2 -81.9 L-14.2 -80.9 -23.7 -80.9 -15.15 -90.45 -14.45 -89.75 -21.5 -81.9 -14.2 -81.9 M-10.9 -91.8 L-9.05 -93.2 Q-7.45 -94.05 -5.75 -94.05 -3.9 -94.05 -2.45 -93.2 -1.45 -92.6 -0.45 -91.65 L-0.05 -91.25 -0.6 -90.9 -3.1 -92.75 Q-4.35 -93.35 -5.75 -93.35 -7.25 -93.35 -8.6 -92.75 -9.65 -92.25 -10.95 -90.9 L-11.45 -91.25 -10.9 -91.8 M2.7 -88.45 L1.4 -89.55 1.95 -90.2 13.05 -80.95 12.5 -80.3 2.7 -88.45 M14.75 -76.8 L15.9 -75.5 Q17.3 -73.6 17.3 -71.25 17.3 -68.1 14.75 -65.75 L14.2 -66.3 Q16.55 -68.5 16.55 -71.25 16.55 -74.05 14.2 -76.25 L14.75 -76.8 M10.95 -75.6 L12.1 -77.15 12.75 -77.15 11.7 -75.6 12.55 -75.6 12.55 -74.0 10.95 -74.0 10.95 -75.6 M3.4 -65.5 L3.4 -66.1 7.3 -66.1 7.3 -65.5 3.4 -65.5 M10.3 -57.65 L7.75 -51.55 7.15 -50.5 Q6.75 -50.05 6.15 -50.05 5.4 -50.05 5.2 -50.3 L5.2 -51.25 6.1 -51.05 Q6.35 -51.05 6.55 -51.25 L6.85 -51.8 4.4 -57.65 5.5 -57.65 7.35 -53.1 9.2 -57.65 10.3 -57.65 M-3.4 -75.95 L-8.8 -66.35 -9.3 -66.65 -3.9 -76.25 -3.4 -75.95 M0.5 -74.0 L0.5 -75.6 1.65 -77.15 2.3 -77.15 1.25 -75.6 2.1 -75.6 2.1 -74.0 0.5 -74.0 M-9.75 -62.1 L-7.9 -62.1 -6.05 -59.85 -7.2 -59.85 -9.75 -62.1 M-5.0 -44.2 Q-0.9 -41.6 1.0 -39.0 L-0.3 -37.9 Q-2.2 -40.7 -6.1 -43.25 L-5.0 -44.2 M-5.35 -30.95 L-0.3 -26.25 -5.35 -21.6 -5.85 -22.1 -1.3 -26.25 -5.85 -30.45 -5.35 -30.95" fill="#000000" fill-rule="evenodd" stroke="none"/>
    <path d="M22.95 -81.9 L23.9 -81.8 23.45 -75.95 22.3 -76.05 Q21.3 -70.15 18.35 -67.7 L19.15 -66.65 12.95 -60.95 12.05 -61.85 11.5 -61.35 Q12.8 -60.2 13.3 -59.1 13.85 -57.95 13.85 -56.3 13.85 -54.95 13.3 -53.75 12.8 -52.6 11.5 -51.25 L11.8 -50.95 8.55 -45.95 8.05 -46.25 2.65 -36.65 3.15 -36.35 3.55 -37.0 3.6 -37.1 3.6 -37.05 3.8 -36.85 Q5.1 -35.5 5.9 -33.6 6.55 -32.2 6.25 -31.3 5.95 -25.05 0.9 -22.2 L1.7 -21.2 Q-1.4 -19.9 -1.2 -16.25 L-2.0 -15.6 -2.0 -9.5 Q-2.0 -8.8 -2.45 -8.3 -3.0 -7.75 -4.1 -7.75 -5.15 -7.75 -5.7 -8.3 -6.15 -8.8 -6.15 -9.5 L-6.15 -15.6 -6.75 -15.6 Q-6.35 -16.0 -7.15 -16.4 L-9.2 -15.6 -10.35 -15.6 -10.35 -9.5 Q-10.35 -8.8 -10.8 -8.3 -11.35 -7.75 -12.45 -7.75 -13.5 -7.75 -14.05 -8.3 -14.5 -8.8 -14.5 -9.5 L-14.5 -15.6 -15.7 -15.6 Q-16.35 -20.0 -12.9 -21.45 L-11.75 -22.1 -11.3 -21.65 Q-8.1 -24.5 -7.05 -30.25 -6.7 -30.35 -7.05 -30.55 L-8.15 -31.05 -8.3 -30.25 Q-11.7 -32.35 -13.05 -35.6 L-13.3 -36.1 -12.9 -35.7 -12.35 -36.25 Q-13.65 -37.6 -14.15 -38.75 L-14.35 -39.25 Q-14.7 -40.25 -14.7 -41.3 -14.7 -42.95 -14.15 -44.1 -13.65 -45.2 -12.35 -46.35 L-12.9 -46.85 Q-14.25 -45.65 -14.8 -44.45 -15.45 -43.1 -15.45 -41.3 -15.45 -39.9 -14.9 -38.6 L-14.95 -38.55 Q-16.45 -37.0 -18.65 -37.25 L-18.65 -37.35 -21.95 -37.35 Q-24.45 -37.35 -24.35 -39.25 -24.3 -40.15 -23.25 -41.0 -21.7 -42.2 -18.35 -42.85 L-18.65 -44.05 Q-18.25 -47.8 -16.55 -51.35 L-11.15 -60.95 -11.1 -61.2 Q-10.6 -63.3 -10.6 -64.95 L-10.6 -77.85 -11.1 -77.9 Q-10.1 -82.45 -14.2 -81.9 L-21.5 -81.9 -14.45 -89.75 -10.9 -91.8 -11.45 -91.25 -10.95 -90.9 Q-9.65 -92.25 -8.6 -92.75 -7.25 -93.35 -5.75 -93.35 -4.35 -93.35 -3.1 -92.75 L-0.6 -90.9 2.7 -88.45 12.5 -80.3 13.2 -80.65 13.85 -79.45 Q13.75 -78.95 14.05 -78.65 L14.05 -77.8 14.75 -76.8 14.2 -76.25 Q16.55 -74.05 16.55 -71.25 16.55 -68.5 14.2 -66.3 L14.75 -65.75 Q17.3 -68.1 17.3 -71.25 17.3 -73.6 15.9 -75.5 L17.45 -77.6 17.45 -81.9 17.45 -86.75 Q17.45 -88.05 18.3 -88.9 19.1 -89.65 20.2 -89.65 21.3 -89.65 22.1 -88.9 22.95 -88.05 22.95 -86.75 L22.95 -81.9 M-5.35 -30.95 L-5.85 -30.45 -1.3 -26.25 -5.85 -22.1 -5.35 -21.6 -0.3 -26.25 -5.35 -30.95 M-5.0 -44.2 L-6.1 -43.25 Q-2.2 -40.7 -0.3 -37.9 L1.0 -39.0 Q-0.9 -41.6 -5.0 -44.2 M-9.75 -62.1 L-7.2 -59.85 -6.05 -59.85 -7.9 -62.1 -9.75 -62.1 M0.5 -74.0 L2.1 -74.0 2.1 -75.6 1.25 -75.6 2.3 -77.15 1.65 -77.15 0.5 -75.6 0.5 -74.0 M-3.4 -75.95 L-3.9 -76.25 -9.3 -66.65 -8.8 -66.35 -3.4 -75.95 M10.3 -57.65 L9.2 -57.65 7.35 -53.1 5.5 -57.65 4.4 -57.65 6.85 -51.8 6.55 -51.25 Q6.35 -51.05 6.1 -51.05 L5.2 -51.25 5.2 -50.3 Q5.4 -50.05 6.15 -50.05 6.75 -50.05 7.15 -50.5 L7.75 -51.55 10.3 -57.65 M3.4 -65.5 L7.3 -65.5 7.3 -66.1 3.4 -66.1 3.4 -65.5 M10.95 -75.6 L10.95 -74.0 12.55 -74.0 12.55 -75.6 11.7 -75.6 12.75 -77.15 12.1 -77.15 10.95 -75.6" fill="#ffffff" fill-rule="evenodd" stroke="none"/>
  </g>
</svg>
