<svg xmlns:xlink="http://www.w3.org/1999/xlink" height="86.05px" width="55.05px" xmlns="http://www.w3.org/2000/svg">
  <g transform="matrix(1.0, 0.0, 0.0, 1.0, 26.3, 86.1)">
    <path d="M-23.6 -68.25 L-22.25 -74.1 -22.2 -74.75 -9.05 -74.75 -8.3 -72.75 -8.3 -72.05 7.65 -72.05 7.65 -72.75 9.6 -74.75 21.75 -74.75 23.4 -68.7 22.7 -68.05 24.9 -65.3 Q25.6 -63.85 25.6 -61.85 25.6 -60.2 24.9 -58.7 24.25 -57.3 22.7 -55.6 L21.35 -53.6 23.35 -50.7 22.65 -50.05 Q24.2 -48.6 24.85 -47.3 25.55 -45.85 25.55 -43.85 25.55 -42.2 24.85 -40.7 24.2 -39.3 22.65 -37.6 L23.3 -36.9 20.2 -33.95 19.6 -33.95 19.6 -18.05 23.3 -16.35 24.95 -14.05 Q26.5 -12.6 27.15 -11.3 27.85 -9.85 27.85 -7.85 27.85 -6.2 27.15 -4.7 26.5 -3.3 24.95 -1.6 L25.65 -0.95 23.65 -0.75 7.7 -0.75 1.65 -0.95 Q3.2 -2.7 3.95 -4.25 4.75 -5.95 4.75 -7.85 4.75 -10.05 3.95 -11.75 3.25 -13.2 1.65 -14.7 L0.95 -14.05 Q2.5 -12.6 3.15 -11.3 3.85 -9.85 3.85 -7.85 3.85 -6.2 3.15 -4.7 2.5 -3.3 0.95 -1.6 L-0.35 -0.75 -16.3 -0.75 -16.4 -0.75 -16.4 -1.45 -21.2 -1.45 -22.5 -1.6 Q-24.05 -3.3 -24.7 -4.7 -25.4 -6.2 -25.4 -7.85 -25.4 -9.85 -24.7 -11.3 L-22.5 -14.05 -23.2 -14.7 -21.8 -18.05 -20.55 -18.05 -20.55 -34.0 -21.8 -34.0 -22.5 -37.6 Q-24.05 -39.3 -24.7 -40.7 -25.4 -42.2 -25.4 -43.85 -25.4 -45.85 -24.7 -47.3 L-22.5 -50.05 -23.2 -50.7 -21.0 -53.1 -22.5 -55.6 Q-24.05 -57.3 -24.7 -58.7 -25.4 -60.2 -25.4 -61.85 -25.4 -63.85 -24.7 -65.3 L-22.5 -68.05 -23.2 -68.7 -23.6 -68.25 M17.1 -69.0 L14.85 -69.0 17.95 -66.25 19.4 -66.25 17.1 -69.0 M-0.9 -18.05 L0.35 -18.05 0.35 -34.0 -0.9 -34.0 -0.9 -18.05 M5.45 -56.2 L11.2 -66.6 10.0 -67.3 8.6 -64.75 2.35 -64.75 0.9 -67.3 -0.3 -66.6 5.45 -56.2 M2.95 -63.45 L7.95 -63.45 5.45 -59.0 2.95 -63.45 M-4.3 -69.0 L-6.55 -69.0 -8.9 -66.25 -7.5 -66.25 -4.3 -69.0" fill="#ffffff" fill-rule="evenodd" stroke="none"/>
    <path d="M-22.2 -74.75 L-15.65 -86.1 -9.05 -74.75 -22.2 -74.75 M-8.3 -72.75 L7.65 -72.75 7.65 -72.05 -8.3 -72.05 -8.3 -72.75 M9.6 -74.75 L8.6 -74.75 15.15 -86.1 21.75 -74.75 9.6 -74.75 M23.4 -68.7 Q25.0 -67.2 25.7 -65.75 26.5 -64.05 26.5 -61.85 26.5 -59.95 25.7 -58.25 24.95 -56.7 23.4 -54.95 L22.7 -55.6 Q24.25 -57.3 24.9 -58.7 25.6 -60.2 25.6 -61.85 25.6 -63.85 24.9 -65.3 L22.7 -68.05 23.4 -68.7 M23.35 -50.7 Q24.95 -49.2 25.65 -47.75 26.45 -46.05 26.45 -43.85 26.45 -41.95 25.65 -40.25 24.9 -38.7 23.35 -36.95 L22.65 -37.6 Q24.2 -39.3 24.85 -40.7 25.55 -42.2 25.55 -43.85 25.55 -45.85 24.85 -47.3 24.2 -48.6 22.65 -50.05 L23.35 -50.7 M20.2 -33.95 L20.85 -33.95 20.85 -18.05 19.6 -18.05 19.6 -33.95 20.2 -33.95 M24.95 -14.05 L25.65 -14.7 Q27.25 -13.2 27.95 -11.75 28.75 -10.05 28.75 -7.85 28.75 -5.95 27.95 -4.25 27.2 -2.7 25.65 -0.95 L24.95 -1.6 Q26.5 -3.3 27.15 -4.7 27.85 -6.2 27.85 -7.85 27.85 -9.85 27.15 -11.3 26.5 -12.6 24.95 -14.05 M23.65 -0.75 L23.65 -0.05 7.7 -0.05 7.7 -0.75 23.65 -0.75 M1.65 -0.95 L0.95 -1.6 Q2.5 -3.3 3.15 -4.7 3.85 -6.2 3.85 -7.85 3.85 -9.85 3.15 -11.3 2.5 -12.6 0.95 -14.05 L1.65 -14.7 Q3.25 -13.2 3.95 -11.75 4.75 -10.05 4.75 -7.85 4.75 -5.95 3.95 -4.25 3.2 -2.7 1.65 -0.95 M-0.35 -0.75 L-0.35 -0.05 -16.3 -0.05 -16.3 -0.75 -0.35 -0.75 M-16.4 -0.75 L-16.4 -0.7 -21.2 -0.7 -21.2 -1.45 -16.4 -1.45 -16.4 -0.75 M-22.5 -1.6 L-23.2 -0.95 Q-24.75 -2.7 -25.5 -4.25 -26.3 -5.95 -26.3 -7.85 -26.3 -10.05 -25.5 -11.75 -24.8 -13.2 -23.2 -14.7 L-22.5 -14.05 -24.7 -11.3 Q-25.4 -9.85 -25.4 -7.85 -25.4 -6.2 -24.7 -4.7 -24.05 -3.3 -22.5 -1.6 M-21.8 -18.05 L-21.8 -34.0 -20.55 -34.0 -20.55 -18.05 -21.8 -18.05 M-22.5 -37.6 L-23.2 -36.95 Q-24.75 -38.7 -25.5 -40.25 -26.3 -41.95 -26.3 -43.85 -26.3 -46.05 -25.5 -47.75 -24.8 -49.2 -23.2 -50.7 L-22.5 -50.05 -24.7 -47.3 Q-25.4 -45.85 -25.4 -43.85 -25.4 -42.2 -24.7 -40.7 -24.05 -39.3 -22.5 -37.6 M-22.5 -55.6 L-23.2 -54.95 Q-24.75 -56.7 -25.5 -58.25 -26.3 -59.95 -26.3 -61.85 -26.3 -64.05 -25.5 -65.75 -24.9 -67.0 -23.6 -68.25 L-23.2 -68.7 -22.5 -68.05 -24.7 -65.3 Q-25.4 -63.85 -25.4 -61.85 -25.4 -60.2 -24.7 -58.7 -24.05 -57.3 -22.5 -55.6 M-4.3 -69.0 L-7.5 -66.25 -8.9 -66.25 -6.55 -69.0 -4.3 -69.0 M2.95 -63.45 L5.45 -59.0 7.95 -63.45 2.95 -63.45 M5.45 -56.2 L-0.3 -66.6 0.9 -67.3 2.35 -64.75 8.6 -64.75 10.0 -67.3 11.2 -66.6 5.45 -56.2 M-0.9 -18.05 L-0.9 -34.0 0.35 -34.0 0.35 -18.05 -0.9 -18.05 M17.1 -69.0 L19.4 -66.25 17.95 -66.25 14.85 -69.0 17.1 -69.0" fill="#000000" fill-rule="evenodd" stroke="none"/>
  </g>
</svg>
