<svg xmlns:xlink="http://www.w3.org/1999/xlink" height="50.8px" width="40.65px" xmlns="http://www.w3.org/2000/svg">
  <g transform="matrix(1.0, 0.0, 0.0, 1.0, 16.45, 51.0)">
    <path d="M24.2 -46.2 L24.2 -45.75 Q23.95 -42.75 22.55 -40.2 L22.15 -39.6 Q21.05 -37.65 19.45 -36.25 L17.6 -34.95 16.65 -36.15 17.15 -36.4 Q19.5 -37.9 20.9 -40.05 22.6 -42.8 22.8 -46.6 L24.2 -46.2 M9.55 -46.65 L10.2 -47.25 Q11.75 -45.85 12.4 -44.5 13.15 -42.9 13.15 -40.85 L13.05 -39.45 12.4 -37.45 12.05 -36.75 10.2 -34.35 9.55 -35.0 11.05 -36.85 11.6 -37.9 12.1 -39.4 12.25 -40.85 Q12.25 -42.75 11.6 -44.1 11.05 -45.35 9.55 -46.65 M5.35 -31.45 L5.35 -16.55 4.15 -16.55 4.15 -31.45 5.35 -31.45 M1.7 -11.8 L2.75 -11.8 2.75 -2.9 8.15 -2.9 8.15 -1.8 1.4 -1.8 1.4 -11.6 1.4 -11.8 1.7 -11.8 M-1.7 -10.7 L-1.7 -0.2 -6.1 -0.2 -6.1 -1.3 -2.85 -1.3 -2.85 -10.7 -1.7 -10.7 M-4.95 -16.55 L-6.15 -16.55 -6.15 -31.45 -4.95 -31.45 -4.95 -16.55 M-7.85 -34.35 Q-9.35 -36.0 -10.05 -37.45 -10.8 -39.05 -10.8 -40.85 -10.8 -42.25 -10.45 -43.4 L-10.35 -43.7 -10.05 -44.5 Q-9.4 -45.85 -7.85 -47.25 L-7.25 -46.65 Q-8.7 -45.35 -9.3 -44.1 L-9.5 -43.6 -9.55 -43.4 Q-9.95 -42.3 -9.95 -40.85 L-9.65 -38.8 -9.6 -38.6 -9.3 -37.9 Q-8.7 -36.6 -7.25 -35.0 L-7.85 -34.35 M8.0 -46.8 Q8.0 -46.25 7.6 -45.85 7.2 -45.45 6.65 -45.45 6.1 -45.45 5.7 -45.85 5.3 -46.25 5.3 -46.8 L5.7 -47.75 Q6.1 -48.15 6.65 -48.15 7.2 -48.15 7.6 -47.75 L8.0 -46.8 M6.0 -47.45 Q5.75 -47.2 5.75 -46.8 5.75 -46.4 6.0 -46.15 6.25 -45.9 6.65 -45.9 7.05 -45.9 7.3 -46.15 L7.55 -46.8 7.3 -47.45 6.65 -47.65 6.0 -47.45 M3.0 -44.7 L3.0 -34.2 -1.4 -34.2 -1.4 -35.3 1.85 -35.3 1.85 -44.7 3.0 -44.7 M1.25 -26.55 L-1.95 -27.65 -2.9 -27.9 -2.7 -29.3 1.6 -28.1 1.25 -26.55 M1.9 -18.05 L0.45 -18.85 -3.15 -20.3 -2.9 -21.7 Q-0.15 -21.0 2.3 -19.65 L1.9 -18.05 M1.25 -22.65 L-1.0 -23.5 -2.05 -23.85 -2.9 -24.2 -2.65 -25.5 1.7 -24.05 1.25 -22.65 M-2.95 -46.8 Q-2.95 -46.25 -3.35 -45.85 -3.75 -45.45 -4.3 -45.45 -4.85 -45.45 -5.25 -45.85 -5.65 -46.25 -5.65 -46.8 -5.65 -47.3 -5.25 -47.75 -4.85 -48.15 -4.3 -48.15 -3.75 -48.15 -3.35 -47.75 -2.95 -47.3 -2.95 -46.8 M-4.95 -47.45 L-5.2 -46.8 -4.95 -46.15 Q-4.7 -45.9 -4.3 -45.9 -3.9 -45.9 -3.65 -46.15 -3.4 -46.4 -3.4 -46.8 -3.4 -47.2 -3.65 -47.45 L-4.3 -47.65 Q-4.7 -47.65 -4.95 -47.45 M-10.4 -28.4 L-10.3 -29.6 -8.9 -29.2 -8.95 -28.3 -9.0 -28.0 Q-9.35 -25.55 -10.45 -23.4 L-10.95 -22.6 -11.35 -21.95 Q-12.95 -19.45 -15.5 -17.95 L-16.1 -18.7 -16.15 -18.75 -16.45 -19.15 Q-14.15 -20.45 -12.65 -22.35 L-11.95 -23.4 Q-10.8 -25.4 -10.45 -28.0 L-10.4 -28.4" fill="#000000" fill-rule="evenodd" stroke="none"/>
    <path d="M9.55 -35.0 Q8.15 -32.3 5.35 -31.45 L4.15 -31.45 4.15 -16.55 Q4.15 -14.15 2.4 -12.45 L1.7 -11.8 1.4 -11.8 1.4 -11.6 Q0.05 -10.7 -1.7 -10.7 -3.1 -11.05 -4.0 -13.05 -4.9 -15.1 -4.95 -16.55 L-4.95 -31.45 -6.15 -31.45 Q-7.35 -32.7 -7.85 -34.35 L-7.25 -35.0 Q-8.7 -36.6 -9.3 -37.9 L-9.6 -38.6 -9.65 -38.8 -9.95 -40.85 Q-9.95 -42.3 -9.55 -43.4 L-9.5 -43.6 -9.3 -44.1 Q-8.7 -45.35 -7.25 -46.65 L-7.85 -47.25 -6.95 -48.0 -5.8 -48.75 Q2.1 -53.5 8.05 -48.2 L9.55 -46.65 Q11.05 -45.35 11.6 -44.1 12.25 -42.75 12.25 -40.85 L12.1 -39.4 11.6 -37.9 11.05 -36.85 9.55 -35.0 M-4.95 -47.45 Q-4.7 -47.65 -4.3 -47.65 L-3.65 -47.45 Q-3.4 -47.2 -3.4 -46.8 -3.4 -46.4 -3.65 -46.15 -3.9 -45.9 -4.3 -45.9 -4.7 -45.9 -4.95 -46.15 L-5.2 -46.8 -4.95 -47.45 M-2.95 -46.8 Q-2.95 -47.3 -3.35 -47.75 -3.75 -48.15 -4.3 -48.15 -4.85 -48.15 -5.25 -47.75 -5.65 -47.3 -5.65 -46.8 -5.65 -46.25 -5.25 -45.85 -4.85 -45.45 -4.3 -45.45 -3.75 -45.45 -3.35 -45.85 -2.95 -46.25 -2.95 -46.8 M1.25 -22.65 L1.7 -24.05 -2.65 -25.5 -2.9 -24.2 -2.05 -23.85 -1.0 -23.5 1.25 -22.65 M1.9 -18.05 L2.3 -19.65 Q-0.15 -21.0 -2.9 -21.7 L-3.15 -20.3 0.45 -18.85 1.9 -18.05 M1.25 -26.55 L1.6 -28.1 -2.7 -29.3 -2.9 -27.9 -1.95 -27.65 1.25 -26.55 M3.0 -44.7 L1.85 -44.7 1.85 -35.3 -1.4 -35.3 -1.4 -34.2 3.0 -34.2 3.0 -44.7 M6.0 -47.45 L6.65 -47.65 7.3 -47.45 7.55 -46.8 7.3 -46.15 Q7.05 -45.9 6.65 -45.9 6.25 -45.9 6.0 -46.15 5.75 -46.4 5.75 -46.8 5.75 -47.2 6.0 -47.45 M8.0 -46.8 L7.6 -47.75 Q7.2 -48.15 6.65 -48.15 6.1 -48.15 5.7 -47.75 L5.3 -46.8 Q5.3 -46.25 5.7 -45.85 6.1 -45.45 6.65 -45.45 7.2 -45.45 7.6 -45.85 8.0 -46.25 8.0 -46.8" fill="#ffffff" fill-rule="evenodd" stroke="none"/>
  </g>
</svg>
