<svg xmlns:xlink="http://www.w3.org/1999/xlink" height="86.25px" width="78.65px" xmlns="http://www.w3.org/2000/svg">
  <g transform="matrix(1.0, 0.0, 0.0, 1.0, 45.1, 86.3)">
    <path d="M14.8 -73.45 L13.25 -73.45 18.05 -83.35 17.7 -83.7 Q17.25 -84.1 17.25 -84.75 17.25 -85.45 17.7 -85.85 18.1 -86.3 18.8 -86.3 L19.95 -85.85 Q20.35 -85.45 20.35 -84.75 20.35 -84.05 20.0 -83.7 L19.7 -83.45 24.35 -73.45 22.8 -73.45 21.7 -75.95 15.95 -75.95 14.8 -73.45 M29.8 -68.7 Q31.4 -67.2 32.1 -65.75 32.9 -64.05 32.9 -61.85 32.9 -59.95 32.1 -58.25 31.35 -56.7 29.8 -54.95 L29.1 -55.6 Q30.65 -57.3 31.3 -58.7 32.0 -60.2 32.0 -61.85 32.0 -63.85 31.3 -65.3 30.65 -66.6 29.1 -68.05 L29.8 -68.7 M29.15 -50.85 L28.95 -50.4 28.4 -49.55 Q27.9 -48.8 27.2 -48.8 26.7 -48.8 25.8 -49.75 25.05 -50.45 24.6 -50.45 24.05 -50.45 23.8 -49.85 L23.65 -49.55 23.4 -49.0 22.8 -49.7 23.45 -51.05 23.7 -51.35 Q24.05 -51.75 24.55 -51.75 L25.9 -51.0 Q26.8 -50.2 27.35 -50.2 L28.15 -50.85 28.55 -51.7 29.15 -50.85 M29.75 -49.95 L30.45 -50.6 Q32.0 -49.15 32.8 -47.4 33.55 -45.75 33.55 -43.8 33.55 -42.05 32.9 -40.45 32.15 -38.6 30.45 -37.0 L29.75 -37.7 Q32.6 -40.35 32.6 -43.8 32.6 -47.25 29.75 -49.95 M28.25 -34.0 L28.25 -18.05 27.0 -18.05 27.0 -34.0 28.25 -34.0 M29.65 -14.05 L30.35 -14.7 Q31.95 -13.2 32.65 -11.75 33.45 -10.05 33.45 -7.85 33.45 -5.95 32.65 -4.25 31.9 -2.7 30.35 -0.95 L29.65 -1.6 Q31.2 -3.3 31.85 -4.7 32.55 -6.2 32.55 -7.85 32.55 -9.85 31.85 -11.3 31.2 -12.6 29.65 -14.05 M28.3 -1.45 L28.3 -0.7 23.5 -0.7 23.5 -1.45 28.3 -1.45 M22.65 -2.45 L21.2 -2.45 21.2 -3.8 22.65 -3.8 22.65 -2.45 M12.15 -0.7 L7.35 -0.7 7.35 -1.45 12.15 -1.45 12.15 -0.7 M7.25 -0.7 L2.45 -0.7 2.45 -0.75 2.45 -1.45 7.25 -1.45 7.25 -0.7 M2.4 -0.75 L2.4 -0.05 -13.55 -0.05 -13.55 -0.75 2.4 -0.75 M-15.5 -1.0 L-15.55 -0.95 Q-17.1 -2.7 -17.85 -4.25 L-18.3 -5.5 Q-18.65 -6.65 -18.65 -7.85 -18.65 -10.05 -17.85 -11.75 -17.15 -13.2 -15.55 -14.7 L-14.85 -14.05 Q-16.4 -12.6 -17.05 -11.3 -17.75 -9.85 -17.75 -7.85 -17.75 -6.65 -17.35 -5.5 L-17.05 -4.7 Q-16.4 -3.3 -14.85 -1.6 L-15.5 -1.0 M-26.5 -0.75 L-26.85 -0.75 -27.1 -0.75 -26.5 -2.45 -27.1 -2.45 -27.1 -3.8 -25.65 -3.8 -25.65 -2.45 -26.5 -0.75 M-28.15 -0.7 L-32.95 -0.7 -32.95 -1.45 -28.15 -1.45 -28.15 -0.7 M-38.65 -2.25 L-39.85 -1.1 Q-41.45 -3.5 -43.95 -6.05 -45.1 -7.2 -45.1 -8.0 -45.1 -8.55 -44.15 -9.55 -41.7 -12.0 -40.0 -14.85 L-38.9 -13.95 Q-41.45 -10.45 -43.2 -8.8 L-43.75 -7.95 -43.4 -7.35 -40.85 -4.8 -38.65 -2.25 M-36.7 -19.55 L-37.7 -20.8 Q-31.5 -24.3 -31.1 -32.0 L-29.6 -31.55 Q-29.85 -27.6 -31.8 -24.5 -33.6 -21.35 -36.7 -19.55 M-27.45 -38.1 L-20.85 -49.95 -20.2 -49.55 -26.85 -37.75 -27.45 -38.1 M-18.6 -54.95 Q-20.15 -56.7 -20.9 -58.25 -21.7 -59.95 -21.7 -61.85 -21.7 -64.05 -20.9 -65.75 -20.2 -67.2 -18.6 -68.7 L-17.9 -68.05 Q-19.45 -66.6 -20.1 -65.3 -20.8 -63.85 -20.8 -61.85 -20.8 -60.2 -20.1 -58.7 -19.45 -57.3 -17.9 -55.6 L-18.6 -54.95 M-18.75 -73.45 L-13.95 -83.35 -14.3 -83.7 Q-14.75 -84.1 -14.75 -84.75 -14.75 -85.45 -14.3 -85.85 -13.9 -86.3 -13.2 -86.3 L-12.05 -85.85 Q-11.65 -85.45 -11.65 -84.75 -11.65 -84.05 -12.0 -83.7 L-12.3 -83.45 -7.65 -73.45 -9.2 -73.45 -10.3 -75.95 -16.05 -75.95 -17.2 -73.45 -18.75 -73.45 M-4.35 -71.75 L10.75 -71.75 10.75 -71.05 -5.2 -71.05 -5.2 -71.75 -4.35 -71.75 M19.95 -84.75 Q19.95 -85.25 19.6 -85.55 L18.8 -85.85 Q18.3 -85.85 18.0 -85.55 17.7 -85.25 17.7 -84.75 17.7 -84.25 18.0 -83.95 18.3 -83.6 18.8 -83.6 19.3 -83.6 19.6 -83.95 19.95 -84.25 19.95 -84.75 M18.8 -82.2 L16.6 -77.3 21.05 -77.3 18.8 -82.2 M9.2 -63.45 L10.9 -58.1 11.05 -58.1 12.7 -63.45 14.45 -63.45 16.15 -58.1 16.3 -58.1 17.95 -63.45 19.6 -63.45 17.05 -56.3 15.4 -56.3 13.65 -61.75 13.55 -61.75 11.8 -56.3 10.15 -56.3 7.6 -63.45 9.2 -63.45 M1.05 -66.25 L3.4 -69.0 5.65 -69.0 2.45 -66.25 1.05 -66.25 M-3.05 -66.75 L-11.4 -66.75 -5.85 -62.8 -12.1 -57.45 -2.85 -57.45 -2.85 -56.2 -14.3 -56.2 -14.3 -57.45 -8.2 -62.8 -14.05 -66.75 -14.05 -68.0 -3.05 -68.0 -3.05 -66.75 M2.2 -49.85 L1.8 -49.0 1.2 -49.7 1.85 -51.05 Q2.3 -51.75 2.95 -51.75 3.55 -51.75 4.3 -51.0 5.2 -50.2 5.75 -50.2 6.1 -50.2 6.55 -50.85 L6.95 -51.7 7.55 -50.85 7.2 -50.15 6.8 -49.55 Q6.3 -48.8 5.6 -48.8 5.1 -48.8 4.2 -49.75 3.45 -50.45 3.0 -50.45 2.45 -50.45 2.2 -49.85 M23.5 -69.0 L25.8 -66.25 24.35 -66.25 21.25 -69.0 23.5 -69.0 M19.6 -47.25 L15.9 -38.45 14.4 -38.45 10.7 -47.25 10.6 -47.25 10.6 -38.45 9.15 -38.45 9.15 -49.1 11.4 -49.1 15.1 -40.45 15.2 -40.45 18.95 -49.1 21.15 -49.1 21.15 -38.45 19.7 -38.45 19.7 -47.25 19.6 -47.25 M-0.65 -46.8 Q-2.45 -48.45 -3.7 -49.05 -5.2 -49.8 -6.95 -49.8 -8.8 -49.8 -10.45 -49.05 -11.75 -48.45 -13.3 -46.8 L-13.95 -47.25 Q-12.75 -48.7 -11.0 -49.6 -9.0 -50.7 -6.95 -50.7 -4.7 -50.7 -2.9 -49.6 L0.05 -47.25 -0.65 -46.8 M12.25 -34.0 L12.25 -18.05 11.0 -18.05 11.0 -34.0 12.25 -34.0 M14.2 -14.7 Q15.8 -13.2 16.5 -11.75 17.3 -10.05 17.3 -7.85 L17.3 -7.6 Q17.25 -5.85 16.5 -4.25 15.75 -2.7 14.2 -0.95 L13.5 -1.6 Q15.05 -3.3 15.7 -4.7 16.35 -6.05 16.4 -7.55 L16.4 -7.85 Q16.4 -9.85 15.7 -11.3 L13.5 -14.05 14.2 -14.7 M-13.2 -85.85 L-14.0 -85.55 -14.3 -84.75 -14.0 -83.95 Q-13.7 -83.6 -13.2 -83.6 -12.7 -83.6 -12.4 -83.95 -12.05 -84.25 -12.05 -84.75 -12.05 -85.25 -12.4 -85.55 L-13.2 -85.85 M-15.4 -77.3 L-10.95 -77.3 -13.2 -82.2 -15.4 -77.3 M-15.45 -49.95 Q-18.35 -47.25 -18.35 -43.8 -18.35 -40.35 -15.45 -37.7 L-16.15 -37.0 Q-19.3 -39.95 -19.3 -43.8 L-19.2 -45.05 Q-19.05 -46.3 -18.5 -47.45 L-18.2 -48.0 Q-17.45 -49.4 -16.15 -50.6 L-15.45 -49.95 M-14.4 -34.0 L-14.4 -18.05 -15.65 -18.05 -15.65 -34.0 -14.4 -34.0 M-22.4 -3.8 L-22.4 -2.45 -23.85 -2.45 -23.85 -3.8 -22.4 -3.8" fill="#000000" fill-rule="evenodd" stroke="none"/>
    <path d="M24.35 -73.45 Q27.75 -71.8 29.8 -68.7 L29.1 -68.05 Q30.65 -66.6 31.3 -65.3 32.0 -63.85 32.0 -61.85 32.0 -60.2 31.3 -58.7 30.65 -57.3 29.1 -55.6 L29.65 -50.85 29.15 -50.85 28.55 -51.7 28.15 -50.85 27.35 -50.2 Q26.8 -50.2 25.9 -51.0 L24.55 -51.75 Q24.05 -51.75 23.7 -51.35 L23.45 -51.05 22.8 -49.7 23.4 -49.0 23.65 -49.55 23.8 -49.85 Q24.05 -50.45 24.6 -50.45 25.05 -50.45 25.8 -49.75 26.7 -48.8 27.2 -48.8 27.9 -48.8 28.4 -49.55 L28.95 -50.4 29.75 -49.95 Q32.6 -47.25 32.6 -43.8 32.6 -40.35 29.75 -37.7 L28.25 -34.0 27.0 -34.0 27.0 -18.05 28.25 -18.05 28.65 -18.15 28.7 -18.1 29.65 -14.05 Q31.2 -12.6 31.85 -11.3 32.55 -9.85 32.55 -7.85 32.55 -6.2 31.85 -4.7 31.2 -3.3 29.65 -1.6 L28.3 -1.45 23.5 -1.45 22.65 -2.45 22.65 -3.8 21.2 -3.8 21.2 -2.45 21.1 -0.75 14.2 -0.75 12.15 -0.7 12.15 -1.45 7.35 -1.45 7.35 -0.7 7.25 -0.7 7.25 -1.45 2.45 -1.45 2.45 -0.75 2.4 -0.75 -13.55 -0.75 Q-14.45 -1.05 -15.05 -0.5 L-15.5 -1.0 -14.85 -1.6 Q-16.4 -3.3 -17.05 -4.7 L-17.35 -5.5 Q-17.75 -6.65 -17.75 -7.85 -17.75 -9.85 -17.05 -11.3 -16.4 -12.6 -14.85 -14.05 L-15.55 -14.7 Q-17.15 -13.2 -17.85 -11.75 -18.65 -10.05 -18.65 -7.85 -18.65 -6.65 -18.3 -5.5 L-17.85 -4.25 Q-17.1 -2.7 -15.55 -0.95 L-22.5 -0.85 -26.5 -0.75 -25.65 -2.45 -25.65 -3.8 -27.1 -3.8 -27.1 -2.45 -26.5 -2.45 -27.1 -0.75 -26.85 -0.75 -28.15 -0.7 -28.15 -1.45 -32.95 -1.45 Q-36.9 -1.45 -38.65 -2.25 L-40.85 -4.8 -43.4 -7.35 -43.75 -7.95 -43.2 -8.8 Q-41.45 -10.45 -38.9 -13.95 L-40.0 -14.85 Q-37.95 -17.25 -36.7 -19.55 -33.6 -21.35 -31.8 -24.5 -29.85 -27.6 -29.6 -31.55 L-27.45 -38.1 -26.85 -37.75 -20.2 -49.55 -20.85 -49.95 Q-18.9 -51.5 -18.6 -54.95 L-17.9 -55.6 Q-19.45 -57.3 -20.1 -58.7 -20.8 -60.2 -20.8 -61.85 -20.8 -63.85 -20.1 -65.3 -19.45 -66.6 -17.9 -68.05 L-18.6 -68.7 Q-19.1 -71.0 -18.75 -73.45 L-17.2 -73.45 -16.05 -75.95 -10.3 -75.95 -9.2 -73.45 -7.65 -73.45 Q-5.35 -72.95 -4.35 -71.75 L-5.2 -71.75 -5.2 -71.05 10.75 -71.05 10.75 -71.75 13.6 -72.9 14.8 -73.45 15.95 -75.95 21.7 -75.95 22.8 -73.45 24.35 -73.45 M-22.4 -3.8 L-23.85 -3.8 -23.85 -2.45 -22.4 -2.45 -22.4 -3.8 M-14.4 -34.0 L-15.65 -34.0 -15.65 -18.05 -14.4 -18.05 -14.4 -34.0 M-15.45 -49.95 L-16.15 -50.6 Q-17.45 -49.4 -18.2 -48.0 L-18.5 -47.45 Q-19.05 -46.3 -19.2 -45.05 L-19.3 -43.8 Q-19.3 -39.95 -16.15 -37.0 L-15.45 -37.7 Q-18.35 -40.35 -18.35 -43.8 -18.35 -47.25 -15.45 -49.95 M-15.4 -77.3 L-13.2 -82.2 -10.95 -77.3 -15.4 -77.3 M-13.2 -85.85 L-12.4 -85.55 Q-12.05 -85.25 -12.05 -84.75 -12.05 -84.25 -12.4 -83.95 -12.7 -83.6 -13.2 -83.6 -13.7 -83.6 -14.0 -83.95 L-14.3 -84.75 -14.0 -85.55 -13.2 -85.85 M14.2 -14.7 L13.5 -14.05 15.7 -11.3 Q16.4 -9.85 16.4 -7.85 L16.4 -7.55 Q16.35 -6.05 15.7 -4.7 15.05 -3.3 13.5 -1.6 L14.2 -0.95 Q15.75 -2.7 16.5 -4.25 17.25 -5.85 17.3 -7.6 L17.3 -7.85 Q17.3 -10.05 16.5 -11.75 15.8 -13.2 14.2 -14.7 M12.25 -34.0 L11.0 -34.0 11.0 -18.05 12.25 -18.05 12.25 -34.0 M-0.65 -46.8 L0.05 -47.25 -2.9 -49.6 Q-4.7 -50.7 -6.95 -50.7 -9.0 -50.7 -11.0 -49.6 -12.75 -48.7 -13.95 -47.25 L-13.3 -46.8 Q-11.75 -48.45 -10.45 -49.05 -8.8 -49.8 -6.95 -49.8 -5.2 -49.8 -3.7 -49.05 -2.45 -48.45 -0.65 -46.8 M19.6 -47.25 L19.7 -47.25 19.7 -38.45 21.15 -38.45 21.15 -49.1 18.95 -49.1 15.2 -40.45 15.1 -40.45 11.4 -49.1 9.15 -49.1 9.15 -38.45 10.6 -38.45 10.6 -47.25 10.7 -47.25 14.4 -38.45 15.9 -38.45 19.6 -47.25 M23.5 -69.0 L21.25 -69.0 24.35 -66.25 25.8 -66.25 23.5 -69.0 M2.2 -49.85 Q2.45 -50.45 3.0 -50.45 3.45 -50.45 4.2 -49.75 5.1 -48.8 5.6 -48.8 6.3 -48.8 6.8 -49.55 L7.2 -50.15 7.55 -50.85 6.95 -51.7 6.55 -50.85 Q6.1 -50.2 5.75 -50.2 5.2 -50.2 4.3 -51.0 3.55 -51.75 2.95 -51.75 2.3 -51.75 1.85 -51.05 L1.2 -49.7 1.8 -49.0 2.2 -49.85 M-3.05 -66.75 L-3.05 -68.0 -14.05 -68.0 -14.05 -66.75 -8.2 -62.8 -14.3 -57.45 -14.3 -56.2 -2.85 -56.2 -2.85 -57.45 -12.1 -57.45 -5.85 -62.8 -11.4 -66.75 -3.05 -66.75 M1.05 -66.25 L2.45 -66.25 5.65 -69.0 3.4 -69.0 1.05 -66.25 M9.2 -63.45 L7.6 -63.45 10.15 -56.3 11.8 -56.3 13.55 -61.75 13.65 -61.75 15.4 -56.3 17.05 -56.3 19.6 -63.45 17.95 -63.45 16.3 -58.1 16.15 -58.1 14.45 -63.45 12.7 -63.45 11.05 -58.1 10.9 -58.1 9.2 -63.45 M18.8 -82.2 L21.05 -77.3 16.6 -77.3 18.8 -82.2 M19.95 -84.75 Q19.95 -84.25 19.6 -83.95 19.3 -83.6 18.8 -83.6 18.3 -83.6 18.0 -83.95 17.7 -84.25 17.7 -84.75 17.7 -85.25 18.0 -85.55 18.3 -85.85 18.8 -85.85 L19.6 -85.55 Q19.95 -85.25 19.95 -84.75" fill="#ffffff" fill-rule="evenodd" stroke="none"/>
  </g>
</svg>
