<svg xmlns:xlink="http://www.w3.org/1999/xlink" height="85.2px" width="55.05px" xmlns="http://www.w3.org/2000/svg">
  <g transform="matrix(1.0, 0.0, 0.0, 1.0, 25.8, 85.25)">
    <path d="M11.6 -74.45 L11.6 -80.35 Q11.6 -82.55 12.9 -83.85 14.25 -85.25 16.15 -85.25 18.0 -85.25 19.4 -83.85 20.7 -82.55 20.7 -80.35 L20.7 -74.45 19.5 -74.45 19.5 -80.35 Q19.5 -82.0 18.45 -83.05 17.5 -84.0 16.15 -84.0 14.75 -84.0 13.85 -83.05 12.75 -82.0 12.75 -80.35 L12.75 -74.45 11.6 -74.45 M23.2 -68.05 L23.9 -68.7 Q25.5 -67.2 26.2 -65.75 27.0 -64.05 27.0 -61.85 27.0 -59.95 26.2 -58.25 25.45 -56.7 23.9 -54.95 L23.2 -55.6 Q24.75 -57.3 25.4 -58.7 26.1 -60.2 26.1 -61.85 26.1 -63.85 25.4 -65.3 24.75 -66.6 23.2 -68.05 M23.15 -50.05 L23.85 -50.7 Q25.45 -49.2 26.15 -47.75 26.95 -46.05 26.95 -43.85 26.95 -41.95 26.15 -40.25 25.4 -38.7 23.85 -36.95 L23.15 -37.6 Q24.7 -39.3 25.35 -40.7 26.05 -42.2 26.05 -43.85 26.05 -45.85 25.35 -47.3 24.7 -48.6 23.15 -50.05 M21.35 -33.95 L21.35 -18.05 20.1 -18.05 20.1 -33.95 21.35 -33.95 M25.45 -14.05 L26.15 -14.7 Q27.75 -13.2 28.45 -11.75 29.25 -10.05 29.25 -7.85 29.25 -5.95 28.45 -4.25 27.7 -2.7 26.15 -0.95 L25.45 -1.6 Q27.0 -3.3 27.65 -4.7 28.35 -6.2 28.35 -7.85 28.35 -9.85 27.65 -11.3 27.0 -12.6 25.45 -14.05 M24.15 -0.75 L24.15 -0.05 8.2 -0.05 8.2 -0.75 24.15 -0.75 M0.15 -0.45 L0.15 -0.05 -15.8 -0.05 -15.8 -0.7 -15.8 -0.75 0.15 -0.75 0.15 -0.45 M-15.9 -0.7 L-20.7 -0.7 -20.7 -1.45 -15.9 -1.45 -15.9 -0.7 M-22.7 -0.95 Q-24.25 -2.7 -25.0 -4.25 -25.8 -5.95 -25.8 -7.85 -25.8 -10.05 -25.0 -11.75 -24.3 -13.2 -22.7 -14.7 L-22.0 -14.05 Q-23.55 -12.6 -24.2 -11.3 -24.9 -9.85 -24.9 -7.85 -24.9 -6.2 -24.2 -4.7 -23.55 -3.3 -22.0 -1.6 L-22.7 -0.95 M-21.3 -18.05 L-21.3 -34.0 -20.05 -34.0 -20.05 -18.05 -21.3 -18.05 M-22.7 -36.95 Q-24.25 -38.7 -25.0 -40.25 -25.8 -41.95 -25.8 -43.85 -25.8 -46.05 -25.0 -47.75 -24.3 -49.2 -22.7 -50.7 L-22.0 -50.05 Q-23.55 -48.6 -24.2 -47.3 -24.9 -45.85 -24.9 -43.85 -24.9 -42.2 -24.2 -40.7 -23.55 -39.3 -22.0 -37.6 L-22.7 -36.95 M-22.7 -54.95 Q-24.25 -56.7 -25.0 -58.25 -25.8 -59.95 -25.8 -61.85 -25.8 -64.05 -25.0 -65.75 -24.3 -67.2 -22.7 -68.7 L-22.0 -68.05 Q-23.55 -66.6 -24.2 -65.3 -24.9 -63.85 -24.9 -61.85 -24.9 -60.2 -24.2 -58.7 -23.55 -57.3 -22.0 -55.6 L-22.7 -54.95 M-20.4 -74.45 L-20.4 -80.35 Q-20.4 -82.55 -19.1 -83.85 -17.75 -85.25 -15.85 -85.25 -14.0 -85.25 -12.6 -83.85 -11.3 -82.55 -11.3 -80.35 L-11.3 -74.45 -12.5 -74.45 -12.5 -80.35 Q-12.5 -82.0 -13.55 -83.05 -14.5 -84.0 -15.85 -84.0 -17.25 -84.0 -18.15 -83.05 -19.25 -82.0 -19.25 -80.35 L-19.25 -74.45 -20.4 -74.45 M-7.8 -72.05 L-7.8 -72.75 8.15 -72.75 8.15 -72.05 -7.8 -72.05 M10.6 -67.2 L11.7 -66.6 5.95 -56.2 0.2 -66.6 1.4 -67.3 2.85 -64.75 9.1 -64.75 10.5 -67.3 10.6 -67.2 M19.9 -66.25 L18.45 -66.25 15.35 -69.0 17.6 -69.0 19.9 -66.25 M3.45 -63.45 L5.95 -59.0 8.45 -63.45 3.45 -63.45 M2.15 -14.7 Q3.75 -13.2 4.45 -11.75 5.25 -10.05 5.25 -7.85 L5.2 -6.9 Q5.05 -5.5 4.45 -4.25 3.7 -2.7 2.15 -0.95 L1.45 -1.6 Q3.0 -3.3 3.65 -4.7 4.15 -5.75 4.3 -6.9 L4.35 -7.85 Q4.35 -9.85 3.65 -11.3 3.0 -12.6 1.45 -14.05 L2.15 -14.7 M0.85 -18.05 L-0.4 -18.05 -0.4 -34.0 0.85 -34.0 0.85 -18.05 M-6.05 -69.0 L-3.8 -69.0 -7.0 -66.25 -8.4 -66.25 -6.05 -69.0" fill="#000000" fill-rule="evenodd" stroke="none"/>
    <path d="M19.5 -74.45 Q21.35 -70.95 23.2 -68.05 24.75 -66.6 25.4 -65.3 26.1 -63.85 26.1 -61.85 26.1 -60.2 25.4 -58.7 24.75 -57.3 23.2 -55.6 24.4 -53.05 23.15 -50.05 24.7 -48.6 25.35 -47.3 26.05 -45.85 26.05 -43.85 26.05 -42.2 25.35 -40.7 24.7 -39.3 23.15 -37.6 L23.85 -36.95 21.35 -33.95 20.1 -33.95 20.1 -18.05 21.35 -18.05 Q23.1 -15.25 25.45 -14.05 27.0 -12.6 27.65 -11.3 28.35 -9.85 28.35 -7.85 28.35 -6.2 27.65 -4.7 27.0 -3.3 25.45 -1.6 L24.15 -0.75 8.2 -0.75 8.2 -0.05 2.15 -0.7 0.15 -0.45 0.15 -0.75 -15.8 -0.75 -15.8 -0.7 -15.9 -0.7 -15.9 -1.45 -20.7 -1.45 -22.7 -0.95 -22.0 -1.6 Q-23.55 -3.3 -24.2 -4.7 -24.9 -6.2 -24.9 -7.85 -24.9 -9.85 -24.2 -11.3 -23.55 -12.6 -22.0 -14.05 -21.6 -15.25 -21.3 -18.05 L-20.05 -18.05 -20.05 -34.0 Q-21.25 -35.85 -22.7 -36.95 L-22.0 -37.6 Q-23.55 -39.3 -24.2 -40.7 -24.9 -42.2 -24.9 -43.85 -24.9 -45.85 -24.2 -47.3 -23.55 -48.6 -22.0 -50.05 -21.45 -52.5 -22.7 -54.95 L-22.0 -55.6 Q-23.55 -57.3 -24.2 -58.7 -24.9 -60.2 -24.9 -61.85 -24.9 -63.85 -24.2 -65.3 -23.55 -66.6 -22.0 -68.05 -21.25 -72.2 -20.4 -74.45 L-19.25 -74.45 -19.25 -80.35 Q-19.25 -82.0 -18.15 -83.05 -17.25 -84.0 -15.85 -84.0 -14.5 -84.0 -13.55 -83.05 -12.5 -82.0 -12.5 -80.35 L-12.5 -74.45 -11.3 -74.2 Q-9.05 -73.7 -8.1 -72.5 L-7.8 -72.05 8.15 -72.05 8.15 -72.75 Q10.45 -73.1 11.6 -74.45 L12.75 -74.45 12.75 -80.35 Q12.75 -82.0 13.85 -83.05 14.75 -84.0 16.15 -84.0 17.5 -84.0 18.45 -83.05 19.5 -82.0 19.5 -80.35 L19.5 -74.45 M-6.05 -69.0 L-8.4 -66.25 -7.0 -66.25 -3.8 -69.0 -6.05 -69.0 M0.85 -18.05 L0.85 -34.0 -0.4 -34.0 -0.4 -18.05 0.85 -18.05 M2.15 -14.7 L1.45 -14.05 Q3.0 -12.6 3.65 -11.3 4.35 -9.85 4.35 -7.85 L4.3 -6.9 Q4.15 -5.75 3.65 -4.7 3.0 -3.3 1.45 -1.6 L2.15 -0.95 Q3.7 -2.7 4.45 -4.25 5.05 -5.5 5.2 -6.9 L5.25 -7.85 Q5.25 -10.05 4.45 -11.75 3.75 -13.2 2.15 -14.7 M3.45 -63.45 L8.45 -63.45 5.95 -59.0 3.45 -63.45 M19.9 -66.25 L17.6 -69.0 15.35 -69.0 18.45 -66.25 19.9 -66.25 M10.6 -67.2 L10.5 -67.3 9.1 -64.75 2.85 -64.75 1.4 -67.3 0.2 -66.6 5.95 -56.2 11.7 -66.6 10.6 -67.2" fill="#ffffff" fill-rule="evenodd" stroke="none"/>
  </g>
</svg>
