<svg xmlns:xlink="http://www.w3.org/1999/xlink" height="85.5px" width="48.35px" xmlns="http://www.w3.org/2000/svg">
  <g transform="matrix(1.0, 0.0, 0.0, 1.0, 17.55, 85.55)">
    <path d="M3.5 -72.4 L8.05 -82.4 12.65 -72.4 13.8 -73.0 19.5 -72.4 24.05 -82.4 28.65 -72.4 29.75 -72.3 29.05 -64.45 Q28.25 -66.2 26.7 -67.65 L26.0 -67.0 26.2 -66.8 Q28.5 -64.55 28.8 -61.7 L28.8 -61.65 28.85 -60.85 Q28.85 -57.4 26.0 -54.75 L26.7 -54.05 27.15 -49.8 24.4 -49.8 24.4 -48.8 27.25 -48.8 27.25 -36.85 24.4 -36.85 24.4 -35.85 27.8 -35.85 30.8 -30.3 29.6 -30.3 29.6 -24.35 Q29.6 -22.75 28.55 -21.65 27.6 -20.75 26.25 -20.75 24.85 -20.75 23.9 -21.65 22.85 -22.75 22.85 -24.35 L22.85 -30.3 21.65 -30.3 21.65 -28.85 16.85 -31.25 16.85 -33.0 15.6 -33.0 15.6 -18.7 14.65 -17.45 Q13.1 -15.1 13.55 -12.3 L12.95 -12.3 12.95 -6.35 Q12.95 -4.75 11.9 -3.65 10.95 -2.75 9.6 -2.75 8.2 -2.75 7.25 -3.65 6.2 -4.75 6.2 -6.35 L6.2 -12.3 5.0 -12.3 5.0 -11.2 -6.0 -11.8 -5.55 -12.6 -6.2 -13.0 -12.8 -1.15 -12.8 -1.0 -13.9 -0.95 Q-16.6 -3.55 -16.6 -6.85 -16.6 -10.3 -13.7 -13.0 L-14.4 -13.65 -13.85 -19.4 -1.6 -19.4 -1.6 -20.8 -13.75 -20.8 -13.0 -29.25 -2.7 -29.25 -2.7 -30.6 -12.85 -30.6 -12.4 -35.85 -10.4 -35.85 -10.4 -36.85 -13.3 -36.85 -13.3 -48.8 -10.4 -48.8 -10.4 -49.8 -12.4 -49.8 -10.0 -55.05 -9.4 -54.8 -2.75 -66.6 -3.2 -67.15 3.5 -72.4 M2.1 -66.1 L3.8 -66.65 5.6 -66.85 Q7.35 -66.85 8.85 -66.1 L11.9 -63.85 12.6 -64.3 Q11.15 -65.8 9.65 -66.65 7.85 -67.75 5.6 -67.75 L5.05 -67.7 Q3.3 -67.6 1.55 -66.65 -0.2 -65.75 -1.4 -64.3 L-0.75 -63.85 Q0.8 -65.5 2.1 -66.1 M-3.6 -24.5 L-3.6 -25.85 -13.1 -25.85 -13.1 -24.5 -3.6 -24.5 M-4.9 -36.5 Q-2.6 -37.6 -1.25 -39.05 -0.8 -38.9 -1.05 -39.35 L-2.05 -40.3 Q-3.55 -38.8 -5.9 -37.65 L-4.9 -36.5 M-2.05 -46.35 L-2.55 -45.75 -4.0 -46.65 -3.55 -47.15 -2.05 -46.35 M0.15 -37.55 L-0.1 -37.3 -1.3 -37.3 -1.1 -35.9 0.7 -35.9 Q1.6 -35.9 1.6 -36.8 L1.6 -40.9 6.2 -40.9 6.2 -42.1 -4.65 -42.1 -4.65 -40.9 0.15 -40.9 0.15 -37.55 M3.4 -40.1 L2.75 -38.9 Q4.75 -38.0 6.45 -36.4 L7.45 -37.65 Q5.5 -39.4 3.4 -40.1 M-3.1 -47.8 L-2.85 -48.15 -1.05 -48.15 -1.55 -47.15 -3.1 -47.8 M-1.85 -50.05 L-3.3 -50.3 Q-4.25 -47.85 -6.55 -45.85 L-5.6 -44.9 -4.55 -46.0 -3.15 -45.05 Q-4.4 -43.75 -6.6 -42.6 L-5.75 -41.6 Q-5.25 -41.85 -4.7 -42.2 -3.35 -43.05 -2.1 -44.35 L-2.1 -43.85 3.5 -43.85 3.5 -44.6 Q4.6 -43.45 6.35 -42.4 L7.25 -41.9 8.15 -43.25 Q5.9 -44.25 4.7 -45.35 L6.85 -48.25 7.15 -48.4 5.9 -49.3 5.75 -49.05 3.2 -49.05 3.2 -48.05 4.95 -48.05 3.85 -46.4 Q2.45 -48.0 1.85 -50.15 L0.65 -49.8 1.0 -48.6 Q1.75 -46.6 3.2 -45.05 L-1.55 -45.05 Q-0.4 -46.5 0.4 -48.35 L0.65 -48.5 -0.35 -49.5 -0.5 -49.15 -2.35 -49.15 -2.05 -49.75 Q-1.6 -49.8 -1.85 -50.05 M4.45 -17.75 L4.55 -17.75 9.35 -17.75 9.45 -17.75 14.25 -17.75 14.25 -18.5 9.45 -18.5 9.35 -18.5 4.55 -18.5 4.45 -18.5 -0.35 -18.5 -0.35 -17.75 4.45 -17.75 M0.3 -13.9 L0.25 -13.8 -0.5 -13.25 Q-0.95 -13.25 -1.6 -13.75 L-1.95 -14.05 Q-2.7 -14.8 -3.3 -14.8 -3.95 -14.8 -4.4 -14.1 L-4.6 -13.75 -5.05 -12.75 -4.45 -12.05 -4.05 -12.9 Q-3.8 -13.5 -3.25 -13.5 L-2.05 -12.8 Q-1.15 -11.85 -0.65 -11.85 0.05 -11.85 0.55 -12.6 L1.3 -13.85 1.3 -13.9 0.7 -14.75 0.3 -13.9 M16.5 -64.5 L15.15 -63.3 Q19.9 -60.15 22.3 -56.75 L23.85 -58.05 Q21.55 -61.3 16.5 -64.5 M24.15 -35.75 L24.15 -36.5 19.35 -36.5 19.35 -35.75 24.15 -35.75" fill="#ffffff" fill-rule="evenodd" stroke="none"/>
    <path d="M13.8 -73.0 L12.65 -72.4 8.05 -82.4 3.5 -72.4 2.3 -73.0 8.05 -85.55 13.8 -73.0 M-2.75 -66.6 L-9.4 -54.8 -10.0 -55.15 -3.4 -67.0 -2.75 -66.6 M-12.4 -49.8 L-10.4 -49.8 -10.4 -48.8 -13.3 -48.8 -13.3 -36.85 -10.4 -36.85 -10.4 -35.85 -12.4 -35.85 -14.35 -35.85 -14.35 -49.8 -12.4 -49.8 M-12.85 -30.6 L-2.7 -30.6 -2.7 -29.25 -13.0 -29.25 -13.9 -29.25 -13.9 -30.6 -12.85 -30.6 M-13.75 -20.8 L-1.6 -20.8 -1.6 -19.4 -13.85 -19.4 -15.1 -19.4 -15.1 -20.8 -13.75 -20.8 M-14.4 -13.65 L-13.7 -13.0 Q-16.6 -10.3 -16.6 -6.85 -16.6 -3.55 -13.9 -0.95 L-13.7 -0.75 -14.4 -0.05 -15.25 -0.95 Q-17.55 -3.55 -17.55 -6.85 -17.55 -10.75 -14.4 -13.65 M-12.8 -1.15 L-6.2 -13.0 -5.55 -12.6 -6.0 -11.8 -12.2 -0.8 -12.8 -1.15 M5.0 -11.2 L5.0 -12.3 6.2 -12.3 6.2 -6.35 Q6.2 -4.75 7.25 -3.65 8.2 -2.75 9.6 -2.75 10.95 -2.75 11.9 -3.65 12.95 -4.75 12.95 -6.35 L12.95 -12.3 13.55 -12.3 14.15 -12.3 14.15 -6.35 Q14.15 -4.15 12.85 -2.85 11.45 -1.5 9.6 -1.5 7.7 -1.5 6.35 -2.85 5.0 -4.15 5.0 -6.35 L5.0 -11.2 M15.6 -18.7 L15.6 -33.0 16.85 -33.0 16.85 -31.25 16.85 -17.1 15.6 -17.1 15.6 -18.7 M21.65 -28.85 L21.65 -30.3 22.85 -30.3 22.85 -24.35 Q22.85 -22.75 23.9 -21.65 24.85 -20.75 26.25 -20.75 27.6 -20.75 28.55 -21.65 29.6 -22.75 29.6 -24.35 L29.6 -30.3 30.8 -30.3 30.8 -24.35 Q30.8 -22.15 29.5 -20.85 28.1 -19.5 26.25 -19.5 24.35 -19.5 23.0 -20.85 21.65 -22.15 21.65 -24.35 L21.65 -28.85 M27.8 -35.85 L24.4 -35.85 24.4 -36.85 27.25 -36.85 27.25 -48.8 24.4 -48.8 24.4 -49.8 27.15 -49.8 28.3 -49.8 28.3 -35.85 27.8 -35.85 M26.7 -54.05 L26.0 -54.75 Q28.85 -57.4 28.85 -60.85 L28.8 -61.65 28.8 -61.7 Q28.5 -64.55 26.2 -66.8 L26.0 -67.0 26.7 -67.65 Q28.25 -66.2 29.05 -64.45 29.8 -62.8 29.8 -60.85 29.8 -57.0 26.7 -54.05 M28.65 -72.4 L24.05 -82.4 19.5 -72.4 18.3 -73.0 24.05 -85.55 29.8 -73.0 28.65 -72.4 M2.1 -66.1 Q0.8 -65.5 -0.75 -63.85 L-1.4 -64.3 Q-0.2 -65.75 1.55 -66.65 3.3 -67.6 5.05 -67.7 L5.6 -67.75 Q7.85 -67.75 9.65 -66.65 11.15 -65.8 12.6 -64.3 L11.9 -63.85 8.85 -66.1 Q7.35 -66.85 5.6 -66.85 L3.8 -66.65 2.1 -66.1 M-1.85 -50.05 Q-1.6 -49.8 -2.05 -49.75 L-2.35 -49.15 -0.5 -49.15 -0.35 -49.5 0.65 -48.5 0.4 -48.35 Q-0.4 -46.5 -1.55 -45.05 L3.2 -45.05 Q1.75 -46.6 1.0 -48.6 L0.65 -49.8 1.85 -50.15 Q2.45 -48.0 3.85 -46.4 L4.95 -48.05 3.2 -48.05 3.2 -49.05 5.75 -49.05 5.9 -49.3 7.15 -48.4 6.85 -48.25 4.7 -45.35 Q5.9 -44.25 8.15 -43.25 L7.25 -41.9 6.35 -42.4 Q4.6 -43.45 3.5 -44.6 L3.5 -43.85 -2.1 -43.85 -2.1 -44.35 Q-3.35 -43.05 -4.7 -42.2 -5.25 -41.85 -5.75 -41.6 L-6.6 -42.6 Q-4.4 -43.75 -3.15 -45.05 L-4.55 -46.0 -5.6 -44.9 -6.55 -45.85 Q-4.25 -47.85 -3.3 -50.3 L-1.85 -50.05 M-3.1 -47.8 L-1.55 -47.15 -1.05 -48.15 -2.85 -48.15 -3.1 -47.8 M3.4 -40.1 Q5.5 -39.4 7.45 -37.65 L6.45 -36.4 Q4.75 -38.0 2.75 -38.9 L3.4 -40.1 M0.15 -37.55 L0.15 -40.9 -4.65 -40.9 -4.65 -42.1 6.2 -42.1 6.2 -40.9 1.6 -40.9 1.6 -36.8 Q1.6 -35.9 0.7 -35.9 L-1.1 -35.9 -1.3 -37.3 -0.1 -37.3 0.15 -37.55 M-2.05 -46.35 L-3.55 -47.15 -4.0 -46.65 -2.55 -45.75 -2.05 -46.35 M-4.9 -36.5 L-5.9 -37.65 Q-3.55 -38.8 -2.05 -40.3 L-1.05 -39.35 Q-0.8 -38.9 -1.25 -39.05 -2.6 -37.6 -4.9 -36.5 M-3.6 -24.5 L-13.1 -24.5 -13.1 -25.85 -3.6 -25.85 -3.6 -24.5 M4.45 -17.75 L-0.35 -17.75 -0.35 -18.5 4.45 -18.5 4.45 -17.75 M4.55 -18.5 L9.35 -18.5 9.35 -17.75 4.55 -17.75 4.55 -18.5 M9.45 -18.5 L14.25 -18.5 14.25 -17.75 9.45 -17.75 9.45 -18.5 M0.3 -13.9 L0.7 -14.75 1.3 -13.9 1.3 -13.85 0.55 -12.6 Q0.05 -11.85 -0.65 -11.85 -1.15 -11.85 -2.05 -12.8 L-3.25 -13.5 Q-3.8 -13.5 -4.05 -12.9 L-4.45 -12.05 -5.05 -12.75 -4.6 -13.75 -4.4 -14.1 Q-3.95 -14.8 -3.3 -14.8 -2.7 -14.8 -1.95 -14.05 L-1.6 -13.75 Q-0.95 -13.25 -0.5 -13.25 L0.25 -13.8 0.3 -13.9 M16.5 -64.5 Q21.55 -61.3 23.85 -58.05 L22.3 -56.75 Q19.9 -60.15 15.15 -63.3 L16.5 -64.5 M24.15 -35.75 L19.35 -35.75 19.35 -36.5 24.15 -36.5 24.15 -35.75" fill="#000000" fill-rule="evenodd" stroke="none"/>
  </g>
</svg>
