<svg xmlns:xlink="http://www.w3.org/1999/xlink" height="87.2px" width="75.85px" xmlns="http://www.w3.org/2000/svg">
  <g transform="matrix(1.0, 0.0, 0.0, 1.0, 34.5, 87.05)">
    <path d="M10.2 -79.4 L13.4 -87.05 17.6 -77.0 9.2 -77.0 10.2 -79.4 M20.85 -70.75 Q22.2 -71.8 24.1 -71.8 26.35 -71.8 27.85 -70.3 29.4 -68.75 29.4 -66.5 29.4 -64.3 27.85 -62.75 26.35 -61.25 24.1 -61.25 22.45 -61.25 21.2 -62.05 L20.35 -62.75 Q18.8 -64.3 18.8 -66.5 18.8 -68.75 20.35 -70.3 L20.85 -70.75 M22.45 -56.1 L23.7 -56.35 Q24.25 -56.45 23.85 -56.05 24.65 -51.35 29.05 -49.95 L28.3 -48.6 Q25.75 -48.65 23.5 -47.45 L22.55 -48.35 Q24.55 -49.5 26.7 -49.65 23.65 -51.1 22.45 -56.1 M16.85 -47.4 L16.2 -46.8 15.4 -47.85 Q18.35 -50.3 19.35 -56.2 L20.45 -55.7 Q20.8 -55.5 20.45 -55.4 19.5 -50.25 16.85 -47.4 M17.1 -41.5 L17.65 -42.0 Q19.0 -40.8 19.55 -39.6 20.2 -38.25 20.2 -36.45 20.2 -34.9 19.55 -33.5 L19.2 -32.85 17.65 -30.85 17.1 -31.4 Q18.4 -32.75 18.9 -33.9 19.45 -35.1 19.45 -36.45 19.45 -38.1 18.9 -39.25 18.4 -40.35 17.1 -41.5 M19.3 -28.0 L19.35 -28.0 19.35 -15.1 18.5 -15.1 18.3 -15.1 18.3 -28.0 19.3 -28.0 M19.65 -13.0 L19.65 -0.1 18.6 -0.1 18.6 -0.55 18.6 -13.0 19.65 -13.0 M16.6 -0.1 L15.55 -0.1 15.55 -1.15 15.55 -13.0 16.6 -13.0 16.6 -0.1 M14.5 -1.1 L14.5 -0.65 10.6 -0.65 10.6 -1.25 14.5 -1.25 14.5 -1.1 M10.55 -1.25 L10.55 -0.65 6.65 -0.65 6.65 -1.25 10.55 -1.25 M6.6 -1.25 L6.6 -0.65 2.7 -0.65 2.7 -1.25 6.6 -1.25 M1.7 -0.85 L1.7 -0.1 0.65 -0.1 0.65 -4.05 0.65 -13.0 1.7 -13.0 1.7 -0.85 M-4.25 -3.2 L-3.5 -2.25 Q-5.7 0.15 -8.25 0.15 -10.05 0.15 -10.9 -0.7 L-11.3 -1.35 -11.55 -2.75 -11.6 -3.25 -11.6 -10.05 -10.5 -10.05 Q-10.05 -9.95 -10.4 -9.65 L-10.4 -3.25 Q-10.4 -1.95 -9.95 -1.5 -9.4 -0.95 -8.3 -0.95 -6.3 -0.95 -4.25 -3.2 M-16.6 -0.1 L-17.65 -0.1 -17.65 -13.0 -17.5 -13.0 -16.6 -13.0 -16.6 -0.1 M-17.25 -16.85 L-17.4 -16.55 -17.45 -16.5 -17.95 -16.8 -12.55 -26.4 -12.05 -26.1 -17.25 -16.85 M-13.35 -30.85 Q-14.65 -32.25 -15.25 -33.5 -15.9 -34.9 -15.9 -36.45 -15.9 -38.25 -15.25 -39.6 -14.7 -40.8 -13.35 -42.0 L-12.8 -41.5 Q-14.1 -40.35 -14.6 -39.25 -15.15 -38.1 -15.15 -36.45 -15.15 -35.1 -14.6 -33.9 -14.1 -32.75 -12.8 -31.4 L-13.35 -30.85 M-11.45 -48.9 L-12.35 -47.0 -13.35 -47.95 -12.6 -49.45 Q-11.8 -51.4 -11.35 -53.95 L-10.2 -53.4 Q-9.7 -53.1 -10.25 -53.05 -10.65 -50.85 -11.45 -48.9 M-18.0 -47.45 L-18.7 -46.8 -19.5 -47.85 Q-17.1 -49.85 -15.95 -54.2 L-15.55 -56.2 -14.45 -55.7 Q-14.1 -55.5 -14.45 -55.4 -15.4 -50.3 -18.0 -47.45 M-18.55 -61.35 Q-20.1 -61.6 -21.25 -62.75 -22.8 -64.3 -22.8 -66.5 -22.8 -67.75 -22.3 -68.8 L-21.25 -70.3 Q-19.85 -71.7 -17.8 -71.8 L-17.5 -71.8 Q-15.25 -71.8 -13.75 -70.3 -12.2 -68.75 -12.2 -66.5 -12.2 -64.3 -13.75 -62.75 -15.25 -61.25 -17.5 -61.25 L-18.55 -61.35 M-14.6 -77.0 L-10.4 -87.05 -7.5 -80.1 -6.2 -77.0 -14.6 -77.0 M10.75 -77.95 L16.05 -77.95 13.4 -84.45 10.75 -77.95 M13.35 -69.8 Q15.85 -66.6 16.95 -63.05 L15.55 -62.6 Q14.3 -66.6 12.25 -69.0 L13.35 -69.8 M3.8 -70.4 Q2.75 -64.65 -0.45 -61.8 L-1.25 -62.85 Q1.7 -65.3 2.7 -71.2 L3.8 -70.7 Q4.15 -70.5 3.8 -70.4 M9.5 -68.65 Q9.9 -68.4 9.35 -68.2 8.45 -65.0 6.45 -62.35 L5.25 -63.1 Q7.5 -65.8 8.25 -69.2 L9.5 -68.65 M3.1 -52.1 L10.3 -52.1 10.3 -51.1 3.1 -51.1 3.1 -52.1 M12.15 -56.6 Q12.15 -57.05 12.5 -57.4 L13.3 -57.75 14.15 -57.4 14.5 -56.6 Q14.5 -56.15 14.15 -55.8 13.8 -55.45 13.3 -55.45 12.85 -55.45 12.5 -55.8 12.15 -56.15 12.15 -56.6 M13.9 -56.05 Q14.1 -56.25 14.1 -56.6 L13.9 -57.15 13.3 -57.35 Q12.95 -57.35 12.75 -57.15 L12.55 -56.6 12.75 -56.05 Q12.95 -55.85 13.3 -55.85 L13.9 -56.05 M32.7 -62.3 L31.65 -62.3 31.65 -70.35 37.25 -70.35 37.25 -62.65 36.2 -62.65 36.2 -63.3 32.7 -63.3 32.7 -62.3 M36.25 -64.3 L36.25 -69.35 32.7 -69.35 32.7 -64.3 36.25 -64.3 M27.45 -56.6 L29.55 -55.0 28.9 -54.3 26.95 -55.9 27.45 -56.6 M26.4 -55.4 L28.45 -53.8 27.85 -53.1 25.85 -54.65 26.4 -55.4 M33.1 -54.3 L33.1 -49.45 38.75 -49.45 38.75 -54.3 33.1 -54.3 M39.9 -55.45 L39.9 -47.75 38.75 -47.75 38.75 -48.3 33.1 -48.3 33.1 -47.5 31.9 -47.5 31.9 -55.45 39.9 -55.45 M32.8 -39.8 L32.8 -34.0 39.15 -34.0 39.15 -39.8 32.8 -39.8 M40.3 -40.95 L40.3 -32.1 39.15 -32.1 39.15 -32.85 32.8 -32.85 32.8 -31.9 31.65 -31.9 31.65 -40.95 40.3 -40.95 M32.65 -25.45 L32.65 -17.65 40.3 -17.65 40.3 -25.45 32.65 -25.45 M15.15 -42.15 L15.45 -42.8 16.0 -42.15 15.35 -41.1 Q14.95 -40.5 14.4 -40.5 14.0 -40.5 13.25 -41.25 12.65 -41.8 12.25 -41.8 11.8 -41.8 11.6 -41.35 L11.3 -40.65 10.8 -41.2 11.35 -42.3 Q11.7 -42.85 12.2 -42.85 12.75 -42.85 13.35 -42.25 14.05 -41.6 14.5 -41.6 14.8 -41.6 15.15 -42.15 M1.45 -42.15 L0.8 -41.1 Q0.4 -40.5 -0.15 -40.5 L-1.3 -41.25 Q-1.9 -41.8 -2.3 -41.8 -2.75 -41.8 -2.95 -41.35 L-3.25 -40.65 -3.75 -41.2 -3.2 -42.3 Q-2.85 -42.85 -2.35 -42.85 -1.8 -42.85 -1.2 -42.25 L-0.05 -41.6 Q0.25 -41.6 0.6 -42.15 L0.9 -42.8 1.45 -42.15 M3.6 -43.0 L3.6 -30.1 2.55 -30.1 2.55 -43.0 3.6 -43.0 M6.65 -43.0 L6.65 -30.1 5.6 -30.1 5.6 -43.0 6.65 -43.0 M9.7 -43.0 L9.7 -30.1 8.65 -30.1 8.65 -43.0 9.7 -43.0 M2.3 -25.45 L2.3 -26.25 4.5 -26.25 4.5 -27.45 5.45 -27.45 Q5.85 -27.4 5.5 -27.15 L5.5 -26.25 7.7 -26.25 7.7 -25.45 6.8 -25.45 6.35 -23.95 8.05 -23.95 8.05 -23.15 1.95 -23.15 1.95 -23.95 3.6 -23.95 3.15 -25.45 2.3 -25.45 M12.75 -17.6 L13.65 -17.4 13.5 -16.55 Q13.4 -15.95 12.7 -15.95 L9.25 -15.95 Q8.45 -15.95 8.45 -16.75 L8.45 -23.0 11.95 -23.0 11.95 -23.85 8.45 -23.85 8.45 -27.4 9.25 -27.4 Q9.7 -27.35 9.3 -27.1 L9.3 -26.3 13.3 -26.3 13.3 -25.5 9.3 -25.5 9.3 -24.65 12.85 -24.65 12.85 -22.2 9.3 -22.2 9.3 -21.4 12.55 -21.4 12.55 -20.6 9.3 -20.6 9.3 -20.0 12.55 -20.0 12.55 -19.2 9.3 -19.2 9.3 -18.6 12.85 -18.6 12.85 -17.75 12.75 -17.75 9.3 -17.75 9.3 -17.1 Q9.3 -16.75 9.7 -16.75 L12.3 -16.75 12.65 -17.05 12.75 -17.6 M4.1 -25.45 L4.5 -23.95 5.45 -23.95 5.8 -25.45 4.1 -25.45 M16.3 -28.0 L16.3 -15.1 15.25 -15.1 15.25 -28.0 16.3 -28.0 M6.3 -19.85 L3.6 -19.85 3.6 -19.0 6.3 -19.0 6.3 -19.85 M6.3 -21.5 L3.6 -21.5 3.6 -20.65 6.3 -20.65 6.3 -21.5 M3.6 -15.75 L2.7 -15.75 2.7 -22.35 7.15 -22.35 7.15 -16.55 Q7.15 -15.8 6.55 -15.8 L5.35 -15.8 5.25 -16.6 6.05 -16.6 6.3 -16.8 6.3 -18.15 3.6 -18.15 3.6 -15.75 M31.65 -26.4 L41.35 -26.4 41.35 -16.7 31.65 -16.7 31.65 -26.4 M-13.05 -77.95 L-7.75 -77.95 -10.4 -84.45 -13.05 -77.95 M-29.15 -69.35 L-29.15 -64.3 -25.6 -64.3 -25.6 -69.35 -29.15 -69.35 M-29.15 -63.3 L-29.15 -62.3 -30.2 -62.3 -30.2 -70.35 -24.6 -70.35 -24.6 -62.65 -25.65 -62.65 -25.65 -63.3 -29.15 -63.3 M-32.45 -54.3 L-32.45 -49.45 -26.8 -49.45 -26.8 -54.3 -32.45 -54.3 M-25.65 -55.45 L-25.65 -47.75 -26.8 -47.75 -26.8 -48.3 -32.45 -48.3 -32.45 -47.5 -33.65 -47.5 -33.65 -55.45 -25.65 -55.45 M-4.0 -71.25 L-2.6 -70.65 Q-2.25 -70.45 -2.75 -70.25 -3.85 -67.3 -5.15 -65.55 -6.85 -63.35 -9.15 -61.9 L-10.4 -62.85 Q-8.1 -64.05 -6.55 -65.9 -4.9 -67.85 -4.0 -71.25 M-3.75 -57.4 Q-3.4 -57.75 -2.95 -57.75 -2.45 -57.75 -2.1 -57.4 -1.75 -57.05 -1.75 -56.6 -1.75 -56.15 -2.1 -55.8 -2.45 -55.45 -2.95 -55.45 -3.4 -55.45 -3.75 -55.8 -4.1 -56.15 -4.1 -56.6 L-3.75 -57.4 M-3.5 -57.15 L-3.7 -56.6 -3.5 -56.05 -2.95 -55.85 Q-2.55 -55.85 -2.35 -56.05 L-2.15 -56.6 -2.35 -57.15 Q-2.55 -57.35 -2.95 -57.35 L-3.5 -57.15 M-7.0 -47.35 Q-7.65 -50.4 -9.15 -53.75 L-8.1 -54.45 Q-6.35 -50.65 -5.75 -47.95 L-7.0 -47.35 M-11.75 -31.25 L-7.85 -31.25 -7.85 -30.65 -11.75 -30.65 -11.75 -31.25 M-7.8 -30.65 L-7.8 -31.25 -3.9 -31.25 -3.9 -30.65 -7.8 -30.65 M-34.1 -31.9 L-34.1 -40.95 -25.45 -40.95 -25.45 -32.1 -26.6 -32.1 -26.6 -32.85 -32.95 -32.85 -32.95 -31.9 -34.1 -31.9 M-24.8 -26.4 L-24.8 -16.7 -34.5 -16.7 -34.5 -26.4 -24.8 -26.4 M-33.5 -25.45 L-33.5 -17.65 -25.85 -17.65 -25.85 -25.45 -33.5 -25.45 M-26.6 -34.0 L-26.6 -39.8 -32.95 -39.8 -32.95 -34.0 -26.6 -34.0 M-8.9 -16.2 L-9.85 -16.65 -5.2 -26.85 -0.55 -16.65 -1.5 -16.2 -5.2 -24.3 -8.9 -16.2 M-13.65 -6.7 L-14.85 -6.7 -14.85 -7.85 -13.65 -7.85 -13.65 -6.7 M-13.65 -3.15 L-13.65 -2.05 -14.85 -2.05 -14.85 -3.15 -13.65 -3.15 M-1.05 -10.95 L-1.05 -9.8 -1.75 -8.3 -2.25 -8.3 -1.75 -9.8 -2.25 -9.8 -2.25 -10.95 -1.05 -10.95 M-7.25 -11.3 L-6.75 -11.95 -4.75 -10.7 -5.3 -10.0 -7.25 -11.3 M-6.3 -8.9 L-8.3 -10.2 -7.75 -10.85 -5.8 -9.55 -6.3 -8.9" fill="#000000" fill-rule="evenodd" stroke="none"/>
    <path d="M17.6 -77.0 Q18.75 -76.35 19.55 -74.05 L20.0 -72.95 20.85 -70.75 20.35 -70.3 Q18.8 -68.75 18.8 -66.5 18.8 -64.3 20.35 -62.75 L21.2 -62.05 Q21.1 -58.85 22.45 -56.1 23.65 -51.1 26.7 -49.65 24.55 -49.5 22.55 -48.35 L20.7 -48.2 Q18.45 -48.4 16.85 -47.4 19.5 -50.25 20.45 -55.4 20.8 -55.5 20.45 -55.7 L19.35 -56.2 Q18.35 -50.3 15.4 -47.85 L16.2 -46.8 13.8 -45.8 Q14.1 -45.3 15.35 -44.25 16.6 -43.25 17.1 -41.5 18.4 -40.35 18.9 -39.25 19.45 -38.1 19.45 -36.45 19.45 -35.1 18.9 -33.9 18.4 -32.75 17.1 -31.4 L17.65 -30.85 19.2 -32.85 19.3 -28.0 18.3 -28.0 18.3 -15.1 18.5 -15.1 Q18.8 -13.85 19.65 -13.0 L18.6 -13.0 18.6 -0.55 Q17.4 -0.55 16.6 -0.1 L16.6 -13.0 15.55 -13.0 15.55 -1.15 14.75 -1.1 14.5 -1.1 14.5 -1.25 10.6 -1.25 10.55 -1.25 6.65 -1.25 6.6 -1.25 2.7 -1.25 Q1.7 -1.3 1.7 -0.85 L1.7 -13.0 0.65 -13.0 0.65 -4.05 -3.45 -4.1 -4.25 -3.2 Q-6.3 -0.95 -8.3 -0.95 -9.4 -0.95 -9.95 -1.5 -10.4 -1.95 -10.4 -3.25 L-10.4 -9.65 Q-10.05 -9.95 -10.5 -10.05 L-11.6 -10.05 -11.6 -3.25 -11.55 -2.75 -13.6 -1.95 -16.6 -0.1 -16.6 -13.0 -17.5 -13.0 Q-17.3 -14.7 -17.25 -16.45 L-17.25 -16.5 -17.25 -16.85 -12.05 -26.1 -12.55 -26.4 Q-10.65 -28.65 -13.35 -30.85 L-12.8 -31.4 Q-14.1 -32.75 -14.6 -33.9 -15.15 -35.1 -15.15 -36.45 -15.15 -38.1 -14.6 -39.25 -14.1 -40.35 -12.8 -41.5 -12.35 -42.6 -10.8 -43.65 -9.9 -44.3 -8.7 -44.5 -5.8 -45.05 -7.0 -47.35 -7.55 -48.55 -9.1 -50.15 L-11.45 -48.9 Q-10.65 -50.85 -10.25 -53.05 -9.7 -53.1 -10.2 -53.4 L-11.35 -53.95 Q-11.8 -51.4 -12.6 -49.45 -15.15 -47.95 -18.0 -47.45 -15.4 -50.3 -14.45 -55.4 -14.1 -55.5 -14.45 -55.7 L-15.55 -56.2 -15.95 -54.2 Q-18.35 -58.1 -18.55 -61.35 L-17.5 -61.25 Q-15.25 -61.25 -13.75 -62.75 -12.2 -64.3 -12.2 -66.5 -12.2 -68.75 -13.75 -70.3 -15.25 -71.8 -17.5 -71.8 L-17.8 -71.8 Q-17.35 -75.25 -14.6 -77.0 L-6.2 -77.0 -7.5 -80.1 Q-4.6 -81.05 -1.5 -81.05 4.1 -81.05 10.2 -79.4 L9.2 -77.0 17.6 -77.0 M13.9 -56.05 L13.3 -55.85 Q12.95 -55.85 12.75 -56.05 L12.55 -56.6 12.75 -57.15 Q12.95 -57.35 13.3 -57.35 L13.9 -57.15 14.1 -56.6 Q14.1 -56.25 13.9 -56.05 M12.15 -56.6 Q12.15 -56.15 12.5 -55.8 12.85 -55.45 13.3 -55.45 13.8 -55.45 14.15 -55.8 14.5 -56.15 14.5 -56.6 L14.15 -57.4 13.3 -57.75 12.5 -57.4 Q12.15 -57.05 12.15 -56.6 M3.1 -52.1 L3.1 -51.1 10.3 -51.1 10.3 -52.1 3.1 -52.1 M9.5 -68.65 L8.25 -69.2 Q7.5 -65.8 5.25 -63.1 L6.45 -62.35 Q8.45 -65.0 9.35 -68.2 9.9 -68.4 9.5 -68.65 M3.8 -70.4 Q4.15 -70.5 3.8 -70.7 L2.7 -71.2 Q1.7 -65.3 -1.25 -62.85 L-0.45 -61.8 Q2.75 -64.65 3.8 -70.4 M13.35 -69.8 L12.25 -69.0 Q14.3 -66.6 15.55 -62.6 L16.95 -63.05 Q15.85 -66.6 13.35 -69.8 M10.75 -77.95 L13.4 -84.45 16.05 -77.95 10.75 -77.95 M36.25 -64.3 L32.7 -64.3 32.7 -69.35 36.25 -69.35 36.25 -64.3 M33.1 -54.3 L38.75 -54.3 38.75 -49.45 33.1 -49.45 33.1 -54.3 M32.8 -39.8 L39.15 -39.8 39.15 -34.0 32.8 -34.0 32.8 -39.8 M12.75 -17.75 L12.85 -17.75 12.85 -18.6 9.3 -18.6 9.3 -19.2 12.55 -19.2 12.55 -20.0 9.3 -20.0 9.3 -20.6 12.55 -20.6 12.55 -21.4 9.3 -21.4 9.3 -22.2 12.85 -22.2 12.85 -24.65 9.3 -24.65 9.3 -25.5 13.3 -25.5 13.3 -26.3 9.3 -26.3 9.3 -27.1 Q9.7 -27.35 9.25 -27.4 L8.45 -27.4 8.45 -23.85 11.95 -23.85 11.95 -23.0 8.45 -23.0 8.45 -16.75 Q8.45 -15.95 9.25 -15.95 L12.7 -15.95 Q13.4 -15.95 13.5 -16.55 L13.65 -17.4 12.75 -17.6 12.75 -17.75 M2.3 -25.45 L3.15 -25.45 3.6 -23.95 1.95 -23.95 1.95 -23.15 8.05 -23.15 8.05 -23.95 6.35 -23.95 6.8 -25.45 7.7 -25.45 7.7 -26.25 5.5 -26.25 5.5 -27.15 Q5.85 -27.4 5.45 -27.45 L4.5 -27.45 4.5 -26.25 2.3 -26.25 2.3 -25.45 M9.7 -43.0 L8.65 -43.0 8.65 -30.1 9.7 -30.1 9.7 -43.0 M6.65 -43.0 L5.6 -43.0 5.6 -30.1 6.65 -30.1 6.65 -43.0 M3.6 -43.0 L2.55 -43.0 2.55 -30.1 3.6 -30.1 3.6 -43.0 M1.45 -42.15 L0.9 -42.8 0.6 -42.15 Q0.25 -41.6 -0.05 -41.6 L-1.2 -42.25 Q-1.8 -42.85 -2.35 -42.85 -2.85 -42.85 -3.2 -42.3 L-3.75 -41.2 -3.25 -40.65 -2.95 -41.35 Q-2.75 -41.8 -2.3 -41.8 -1.9 -41.8 -1.3 -41.25 L-0.15 -40.5 Q0.4 -40.5 0.8 -41.1 L1.45 -42.15 M15.15 -42.15 Q14.8 -41.6 14.5 -41.6 14.05 -41.6 13.35 -42.25 12.75 -42.85 12.2 -42.85 11.7 -42.85 11.35 -42.3 L10.8 -41.2 11.3 -40.65 11.6 -41.35 Q11.8 -41.8 12.25 -41.8 12.65 -41.8 13.25 -41.25 14.0 -40.5 14.4 -40.5 14.95 -40.5 15.35 -41.1 L16.0 -42.15 15.45 -42.8 15.15 -42.15 M32.65 -25.45 L40.3 -25.45 40.3 -17.65 32.65 -17.65 32.65 -25.45 M3.6 -15.75 L3.6 -18.15 6.3 -18.15 6.3 -16.8 6.05 -16.6 5.25 -16.6 5.35 -15.8 6.55 -15.8 Q7.15 -15.8 7.15 -16.55 L7.15 -22.35 2.7 -22.35 2.7 -15.75 3.6 -15.75 M6.3 -21.5 L6.3 -20.65 3.6 -20.65 3.6 -21.5 6.3 -21.5 M6.3 -19.85 L6.3 -19.0 3.6 -19.0 3.6 -19.85 6.3 -19.85 M16.3 -28.0 L15.25 -28.0 15.25 -15.1 16.3 -15.1 16.3 -28.0 M4.1 -25.45 L5.8 -25.45 5.45 -23.95 4.5 -23.95 4.1 -25.45 M-29.15 -69.35 L-25.6 -69.35 -25.6 -64.3 -29.15 -64.3 -29.15 -69.35 M-13.05 -77.95 L-10.4 -84.45 -7.75 -77.95 -13.05 -77.95 M-32.45 -54.3 L-26.8 -54.3 -26.8 -49.45 -32.45 -49.45 -32.45 -54.3 M-7.8 -30.65 L-3.9 -30.65 -3.9 -31.25 -7.8 -31.25 -7.8 -30.65 M-11.75 -31.25 L-11.75 -30.65 -7.85 -30.65 -7.85 -31.25 -11.75 -31.25 M-7.0 -47.35 L-5.75 -47.95 Q-6.35 -50.65 -8.1 -54.45 L-9.15 -53.75 Q-7.65 -50.4 -7.0 -47.35 M-3.5 -57.15 L-2.95 -57.35 Q-2.55 -57.35 -2.35 -57.15 L-2.15 -56.6 -2.35 -56.05 Q-2.55 -55.85 -2.95 -55.85 L-3.5 -56.05 -3.7 -56.6 -3.5 -57.15 M-3.75 -57.4 L-4.1 -56.6 Q-4.1 -56.15 -3.75 -55.8 -3.4 -55.45 -2.95 -55.45 -2.45 -55.45 -2.1 -55.8 -1.75 -56.15 -1.75 -56.6 -1.75 -57.05 -2.1 -57.4 -2.45 -57.75 -2.95 -57.75 -3.4 -57.75 -3.75 -57.4 M-4.0 -71.25 Q-4.9 -67.85 -6.55 -65.9 -8.1 -64.05 -10.4 -62.85 L-9.15 -61.9 Q-6.85 -63.35 -5.15 -65.55 -3.85 -67.3 -2.75 -70.25 -2.25 -70.45 -2.6 -70.65 L-4.0 -71.25 M-6.3 -8.9 L-5.8 -9.55 -7.75 -10.85 -8.3 -10.2 -6.3 -8.9 M-7.25 -11.3 L-5.3 -10.0 -4.75 -10.7 -6.75 -11.95 -7.25 -11.3 M-1.05 -10.95 L-2.25 -10.95 -2.25 -9.8 -1.75 -9.8 -2.25 -8.3 -1.75 -8.3 -1.05 -9.8 -1.05 -10.95 M-13.65 -3.15 L-14.85 -3.15 -14.85 -2.05 -13.65 -2.05 -13.65 -3.15 M-13.65 -6.7 L-13.65 -7.85 -14.85 -7.85 -14.85 -6.7 -13.65 -6.7 M-8.9 -16.2 L-5.2 -24.3 -1.5 -16.2 -0.55 -16.65 -5.2 -26.85 -9.85 -16.65 -8.9 -16.2 M-26.6 -34.0 L-32.95 -34.0 -32.95 -39.8 -26.6 -39.8 -26.6 -34.0 M-33.5 -25.45 L-25.85 -25.45 -25.85 -17.65 -33.5 -17.65 -33.5 -25.45" fill="#ffffff" fill-rule="evenodd" stroke="none"/>
  </g>
</svg>
