<svg xmlns:xlink="http://www.w3.org/1999/xlink" height="80.6px" width="54.9px" xmlns="http://www.w3.org/2000/svg">
  <g transform="matrix(1.0, 0.0, 0.0, 1.0, 28.9, 80.65)">
    <path d="M26.0 -50.1 L24.7 -50.1 24.7 -51.3 26.0 -51.3 26.0 -50.1 M15.25 -73.6 L15.65 -74.0 Q20.1 -71.2 22.1 -68.35 L21.8 -68.1 20.75 -67.2 Q18.65 -70.2 14.5 -72.95 L15.25 -73.6 M23.15 -59.3 Q23.35 -59.2 23.0 -59.1 21.9 -52.9 18.5 -49.85 L17.6 -51.0 Q20.75 -53.6 21.85 -59.95 L23.0 -59.4 23.15 -59.3 M12.75 -41.8 L12.95 -42.0 Q17.4 -39.2 19.4 -36.35 L18.05 -35.2 18.0 -35.25 17.7 -35.7 Q15.6 -38.45 11.8 -40.95 L12.75 -41.8 M17.7 -28.85 Q19.1 -27.5 19.7 -26.25 20.45 -24.8 20.45 -22.85 20.45 -21.2 19.7 -19.7 19.05 -18.35 17.7 -16.8 L17.1 -17.4 Q18.45 -18.9 19.0 -20.1 19.6 -21.4 19.6 -22.85 19.6 -24.6 19.0 -25.9 18.45 -27.05 17.1 -28.3 L17.7 -28.85 M17.2 -9.8 Q21.4 -7.1 23.35 -4.35 L22.0 -3.2 Q19.9 -6.2 15.75 -8.95 L16.9 -10.0 17.2 -9.8 M13.15 -0.6 L8.95 -0.6 8.95 -1.25 13.15 -1.25 13.15 -0.6 M8.9 -0.6 L4.7 -0.6 4.7 -1.25 8.9 -1.25 8.9 -0.6 M3.6 -0.2 L3.6 -0.05 2.5 -0.05 2.5 -0.15 2.5 -13.95 3.6 -13.95 3.6 -0.2 M1.35 -0.6 L-2.85 -0.6 -2.85 -1.25 1.35 -1.25 1.35 -0.6 M-2.9 -0.6 L-2.9 -0.05 -16.85 -0.05 -16.85 -0.65 -2.9 -0.65 -2.9 -0.6 M-17.95 -0.15 L-17.95 -0.05 -19.05 -0.05 -19.05 -13.95 -18.45 -13.95 -17.95 -13.95 -17.95 -0.15 M-18.85 -16.05 L-19.05 -16.05 -19.05 -29.95 -18.9 -29.95 -17.95 -29.95 -17.95 -16.05 -18.85 -16.05 M-19.15 -35.1 L-20.05 -33.5 -20.6 -33.85 -14.8 -44.2 -14.3 -43.85 -19.15 -35.1 M-18.6 -49.45 L-19.2 -48.85 Q-21.95 -51.45 -21.95 -54.8 -21.95 -58.2 -19.2 -60.8 L-18.6 -60.2 Q-21.15 -57.8 -21.15 -54.8 -21.15 -51.8 -18.6 -49.45 M-23.5 -49.8 L-28.9 -54.8 -23.5 -59.85 -22.95 -59.3 -27.8 -54.8 -22.95 -50.35 -23.5 -49.8 M-11.65 -80.65 L2.3 -80.65 2.3 -80.05 -11.65 -80.05 -11.65 -80.65 M2.35 -80.65 L6.55 -80.65 6.55 -80.5 6.55 -80.0 2.35 -80.0 2.35 -80.65 M9.8 -71.35 L9.8 -70.5 7.15 -70.5 7.15 -67.8 6.2 -67.8 6.2 -70.5 3.55 -70.5 3.55 -71.35 6.2 -71.35 6.2 -74.05 7.15 -74.05 7.15 -71.35 9.8 -71.35 M-12.7 -76.7 Q-12.15 -76.6 -12.65 -76.3 L-12.65 -74.05 Q-12.25 -68.8 -7.1 -66.55 L-7.75 -65.2 Q-11.5 -66.8 -13.1 -71.15 -14.25 -67.05 -18.3 -65.2 L-19.1 -66.4 Q-13.9 -68.4 -13.9 -73.9 L-13.9 -76.7 -12.7 -76.7 M2.5 -59.3 L-2.35 -54.8 2.5 -50.35 1.95 -49.8 -3.45 -54.8 1.95 -59.85 2.5 -59.3 M-4.75 -59.7 L-4.75 -58.5 -5.5 -56.85 -6.05 -56.85 -5.5 -58.5 -6.05 -58.5 -6.05 -59.7 -4.75 -59.7 M-11.1 -49.25 L-6.9 -49.25 -6.9 -48.6 -11.1 -48.6 -11.1 -49.25 M4.05 -50.4 Q9.25 -52.4 9.25 -57.9 L9.25 -60.7 10.45 -60.7 Q11.0 -60.6 10.5 -60.3 L10.5 -58.05 Q10.9 -52.8 16.05 -50.55 L15.4 -49.2 Q11.65 -50.8 10.05 -55.15 8.9 -51.05 4.85 -49.2 L4.05 -50.4 M-16.1 -59.7 L-16.1 -58.5 -16.85 -56.85 -17.4 -56.85 -16.85 -58.5 -17.4 -58.5 -17.4 -59.7 -16.1 -59.7 M-16.25 -19.0 Q-13.1 -21.6 -12.0 -27.95 L-10.85 -27.4 Q-10.45 -27.2 -10.85 -27.1 -11.95 -20.9 -15.35 -17.85 L-16.25 -19.0 M6.2 -34.95 Q5.8 -34.95 5.5 -34.65 5.25 -34.4 5.25 -33.95 5.25 -33.5 5.5 -33.25 5.8 -32.95 6.2 -32.95 6.65 -32.95 6.95 -33.25 L7.2 -33.95 6.95 -34.65 6.2 -34.95 M7.2 -34.95 Q7.6 -34.55 7.6 -33.95 7.6 -33.35 7.2 -32.95 6.8 -32.6 6.2 -32.6 5.6 -32.6 5.25 -32.95 4.85 -33.35 4.85 -33.95 4.85 -34.55 5.25 -34.95 5.6 -35.3 6.2 -35.3 6.8 -35.3 7.2 -34.95 M13.05 -22.8 Q13.05 -19.8 15.6 -17.45 L15.0 -16.85 Q12.25 -19.45 12.25 -22.8 12.25 -26.2 15.0 -28.8 L15.6 -28.2 Q13.05 -25.8 13.05 -22.8 M11.4 -27.85 L5.65 -17.5 5.1 -17.85 10.9 -28.2 11.4 -27.85 M0.3 -38.15 L-1.95 -36.75 -2.5 -37.7 -0.1 -38.95 -2.5 -40.15 -1.95 -41.1 0.3 -39.7 0.2 -42.3 1.3 -42.3 1.2 -39.7 3.45 -41.1 4.0 -40.15 1.65 -38.95 4.0 -37.7 3.45 -36.75 1.2 -38.15 1.3 -35.35 0.2 -35.35 0.3 -38.15 M-2.85 -40.25 L-5.7 -33.75 Q-6.1 -32.9 -6.4 -32.6 -6.9 -32.1 -8.1 -32.1 L-9.35 -32.2 -9.35 -33.4 -8.05 -33.25 Q-7.45 -33.25 -7.15 -33.7 L-6.9 -34.0 -9.65 -40.25 -8.2 -40.25 -6.3 -35.55 -6.2 -35.55 -4.3 -40.25 -2.85 -40.25 M-7.45 -26.0 Q-3.0 -23.2 -1.0 -20.35 L-2.35 -19.2 Q-4.45 -22.2 -8.6 -24.95 L-7.45 -26.0 M4.7 -17.25 L4.7 -16.6 0.5 -16.6 0.5 -17.25 4.7 -17.25" fill="#000000" fill-rule="evenodd" stroke="none"/>
    <path d="M6.55 -80.5 Q8.35 -79.95 9.85 -78.55 L14.1 -74.75 15.25 -73.6 14.5 -72.95 Q18.65 -70.2 20.75 -67.2 L21.8 -68.1 Q22.45 -67.5 23.0 -66.1 23.9 -63.65 23.8 -60.85 L23.5 -59.9 23.15 -59.3 23.0 -59.4 21.85 -59.95 Q20.75 -53.6 17.6 -51.0 L18.5 -49.85 14.9 -48.45 Q13.95 -48.05 13.15 -47.4 L11.85 -46.55 Q11.8 -44.9 12.4 -43.65 L12.5 -43.2 Q12.5 -42.1 12.75 -41.8 L11.8 -40.95 Q15.6 -38.45 17.7 -35.7 L18.0 -35.25 18.0 -35.2 Q17.9 -32.75 17.4 -30.6 17.15 -29.55 17.7 -28.85 L17.1 -28.3 Q18.45 -27.05 19.0 -25.9 19.6 -24.6 19.6 -22.85 19.6 -21.4 19.0 -20.1 18.45 -18.9 17.1 -17.4 L17.25 -11.2 17.2 -9.8 16.9 -10.0 15.75 -8.95 Q19.9 -6.2 22.0 -3.2 21.85 -0.8 18.7 -0.7 L16.15 -0.55 15.65 -0.55 13.15 -0.5 13.15 -0.6 13.15 -1.25 8.95 -1.25 8.95 -0.6 8.9 -0.6 8.9 -1.25 4.7 -1.25 4.7 -0.6 3.6 -0.2 3.6 -13.95 2.5 -13.95 2.5 -0.15 1.35 -0.6 1.35 -1.25 -2.85 -1.25 -2.85 -0.6 -2.9 -0.6 -2.9 -0.65 -16.85 -0.65 -16.85 -0.05 -17.95 -0.15 -17.95 -13.95 -18.45 -13.95 -18.85 -16.05 -17.95 -16.05 -17.95 -29.95 -18.9 -29.95 Q-18.75 -31.65 -19.0 -33.25 L-19.15 -35.1 -14.3 -43.85 -14.8 -44.2 -13.7 -46.85 -18.6 -49.45 Q-21.15 -51.8 -21.15 -54.8 -21.15 -57.8 -18.6 -60.2 L-19.2 -60.8 Q-21.95 -58.2 -21.95 -54.8 -21.95 -51.45 -19.2 -48.85 L-20.25 -49.0 -23.5 -49.8 -22.95 -50.35 -27.8 -54.8 -22.95 -59.3 -23.5 -59.85 Q-22.05 -61.6 -21.95 -63.85 L-21.75 -65.1 -21.35 -66.4 -21.1 -67.75 -20.1 -71.45 Q-19.15 -74.15 -17.25 -76.25 -15.35 -78.45 -13.3 -79.95 L-12.25 -80.55 -11.65 -80.65 -11.65 -80.05 2.3 -80.05 2.3 -80.65 2.35 -80.65 2.35 -80.0 6.55 -80.0 6.55 -80.5 M4.7 -17.25 L0.5 -17.25 0.5 -16.6 4.7 -16.6 4.7 -17.25 M-7.45 -26.0 L-8.6 -24.95 Q-4.45 -22.2 -2.35 -19.2 L-1.0 -20.35 Q-3.0 -23.2 -7.45 -26.0 M-2.85 -40.25 L-4.3 -40.25 -6.2 -35.55 -6.3 -35.55 -8.2 -40.25 -9.65 -40.25 -6.9 -34.0 -7.15 -33.7 Q-7.45 -33.25 -8.05 -33.25 L-9.35 -33.4 -9.35 -32.2 -8.1 -32.1 Q-6.9 -32.1 -6.4 -32.6 -6.1 -32.9 -5.7 -33.75 L-2.85 -40.25 M0.3 -38.15 L0.2 -35.35 1.3 -35.35 1.2 -38.15 3.45 -36.75 4.0 -37.7 1.65 -38.95 4.0 -40.15 3.45 -41.1 1.2 -39.7 1.3 -42.3 0.2 -42.3 0.3 -39.7 -1.95 -41.1 -2.5 -40.15 -0.1 -38.95 -2.5 -37.7 -1.95 -36.75 0.3 -38.15 M11.4 -27.85 L10.9 -28.2 5.1 -17.85 5.65 -17.5 11.4 -27.85 M13.05 -22.8 Q13.05 -25.8 15.6 -28.2 L15.0 -28.8 Q12.25 -26.2 12.25 -22.8 12.25 -19.45 15.0 -16.85 L15.6 -17.45 Q13.05 -19.8 13.05 -22.8 M7.2 -34.95 Q6.8 -35.3 6.2 -35.3 5.6 -35.3 5.25 -34.95 4.85 -34.55 4.85 -33.95 4.85 -33.35 5.25 -32.95 5.6 -32.6 6.2 -32.6 6.8 -32.6 7.2 -32.95 7.6 -33.35 7.6 -33.95 7.6 -34.55 7.2 -34.95 M6.2 -34.95 L6.95 -34.65 7.2 -33.95 6.95 -33.25 Q6.65 -32.95 6.2 -32.95 5.8 -32.95 5.5 -33.25 5.25 -33.5 5.25 -33.95 5.25 -34.4 5.5 -34.65 5.8 -34.95 6.2 -34.95 M-16.25 -19.0 L-15.35 -17.85 Q-11.95 -20.9 -10.85 -27.1 -10.45 -27.2 -10.85 -27.4 L-12.0 -27.95 Q-13.1 -21.6 -16.25 -19.0 M-16.1 -59.7 L-17.4 -59.7 -17.4 -58.5 -16.85 -58.5 -17.4 -56.85 -16.85 -56.85 -16.1 -58.5 -16.1 -59.7 M4.05 -50.4 L4.85 -49.2 Q8.9 -51.05 10.05 -55.15 11.65 -50.8 15.4 -49.2 L16.05 -50.55 Q10.9 -52.8 10.5 -58.05 L10.5 -60.3 Q11.0 -60.6 10.45 -60.7 L9.25 -60.7 9.25 -57.9 Q9.25 -52.4 4.05 -50.4 M-11.1 -49.25 L-11.1 -48.6 -6.9 -48.6 -6.9 -49.25 -11.1 -49.25 M-4.75 -59.7 L-6.05 -59.7 -6.05 -58.5 -5.5 -58.5 -6.05 -56.85 -5.5 -56.85 -4.75 -58.5 -4.75 -59.7 M2.5 -59.3 L1.95 -59.85 -3.45 -54.8 1.95 -49.8 2.5 -50.35 -2.35 -54.8 2.5 -59.3 M-12.7 -76.7 L-13.9 -76.7 -13.9 -73.9 Q-13.9 -68.4 -19.1 -66.4 L-18.3 -65.2 Q-14.25 -67.05 -13.1 -71.15 -11.5 -66.8 -7.75 -65.2 L-7.1 -66.55 Q-12.25 -68.8 -12.65 -74.05 L-12.65 -76.3 Q-12.15 -76.6 -12.7 -76.7 M9.8 -71.35 L7.15 -71.35 7.15 -74.05 6.2 -74.05 6.2 -71.35 3.55 -71.35 3.55 -70.5 6.2 -70.5 6.2 -67.8 7.15 -67.8 7.15 -70.5 9.8 -70.5 9.8 -71.35" fill="#ffffff" fill-rule="evenodd" stroke="none"/>
  </g>
</svg>
