<?xml version="1.0" encoding="UTF-8" standalone="no"?>
<svg xmlns:xlink="http://www.w3.org/1999/xlink" height="25.85px" width="50.7px" xmlns="http://www.w3.org/2000/svg">
  <g transform="matrix(1.0, 0.0, 0.0, 1.0, 25.35, 12.9)">
    <path d="M-12.45 -4.75 L-12.2 -5.75 Q-11.1 -9.9 -6.8 -11.5 L1.45 -11.8 Q5.35 -10.55 6.45 -8.9 7.55 -7.3 8.25 -5.7 L8.45 -5.15 3.6 -4.95 1.35 -4.9 1.25 -4.9 Q-2.3 -4.8 -5.9 -4.85 L-6.25 -4.85 -12.45 -4.75" fill="#8f7c3f" fill-rule="evenodd" stroke="none"/>
    <path d="M8.45 -5.15 Q9.35 -2.9 9.8 -0.5 L9.85 -0.35 10.05 0.95 10.1 1.65 Q10.4 5.15 10.05 8.85 L4.4 9.0 -3.2 9.35 -6.85 9.3 Q-6.7 8.25 -7.75 6.9 -8.8 5.5 -10.1 5.05 L-13.0 4.9 -10.1 5.05 Q-8.8 5.5 -7.75 6.9 -6.7 8.25 -6.85 9.3 -7.0 10.45 -8.75 11.1 -9.75 11.45 -10.65 10.5 -11.95 14.0 -14.15 11.25 -16.35 13.4 -17.05 10.9 -17.6 9.6 -17.45 8.55 -17.15 6.45 -14.2 5.3 L-13.0 4.9 -13.15 3.75 -13.2 1.5 Q-13.2 -1.7 -12.45 -4.75 L-6.25 -4.85 -5.9 -4.85 Q-2.3 -4.8 1.25 -4.9 L1.35 -4.9 3.6 -4.95 8.45 -5.15 M11.05 8.85 Q13.15 5.1 14.25 0.75 14.9 -1.75 16.55 0.3 17.3 1.3 18.55 0.15 19.8 -1.05 20.95 0.75 24.65 1.4 22.85 5.3 L21.4 8.1 18.6 8.4 11.2 8.85 11.05 8.85 M-1.15 2.75 L-1.25 2.5 -1.15 2.75" fill="#e2d5c0" fill-rule="evenodd" stroke="none"/>
    <path d="M-12.45 -4.75 L-12.2 -5.75 Q-11.1 -9.9 -6.8 -11.5 L1.45 -11.8 Q5.35 -10.55 6.45 -8.9 7.55 -7.3 8.25 -5.7 L8.45 -5.15 Q9.35 -2.9 9.8 -0.5 L9.85 -0.35 10.05 0.95 10.1 1.65 Q10.4 5.15 10.05 8.85 L10.85 8.85 M21.4 8.1 L24.85 8.15 M-1.25 2.5 L-1.15 2.75 M-6.85 9.3 L-3.2 9.35 4.4 9.0 10.05 8.85 M11.05 8.85 L11.2 8.85 18.6 8.4 21.4 8.1 M-12.45 -4.75 Q-13.2 -1.7 -13.2 1.5 L-13.15 3.75 -13.0 4.9 -10.1 5.05 Q-8.8 5.5 -7.75 6.9 -6.7 8.25 -6.85 9.3 -7.0 10.45 -8.75 11.1 -9.75 11.45 -10.65 10.5 -11.95 14.0 -14.15 11.25 -16.35 13.4 -17.05 10.9 -17.6 9.6 -17.45 8.55 L-24.85 8.55 M-17.45 8.55 Q-17.15 6.45 -14.2 5.3 L-13.0 4.9" fill="none" stroke="#8f7c3f" stroke-linecap="round" stroke-linejoin="round" stroke-width="1.0"/>
    <path d="M8.45 -5.15 L11.6 -5.1 M-12.45 -4.75 L-6.25 -4.85 -5.9 -4.85 Q-2.3 -4.8 1.25 -4.9 L1.35 -4.9 3.6 -4.95 8.45 -5.15 M-15.4 -4.6 L-12.45 -4.75" fill="none" stroke="#8f7c3f" stroke-linecap="round" stroke-linejoin="round" stroke-width="1.75"/>
    <path d="M10.85 8.85 L11.05 8.85 Q13.15 5.1 14.25 0.75 14.9 -1.75 16.55 0.3 17.3 1.3 18.55 0.15 19.8 -1.05 20.95 0.75 24.65 1.4 22.85 5.3 L21.4 8.1" fill="none" stroke="#8f7c3f" stroke-linecap="round" stroke-linejoin="round" stroke-width="1.0"/>
    <path d="M5.6 2.4 L9.15 -0.25 M8.1 2.15 L10.05 0.95 10.65 0.45 M-12.4 3.65 L-10.15 1.1 M-9.65 3.9 L-8.65 2.4" fill="none" stroke="#8f7c3f" stroke-linecap="round" stroke-linejoin="round" stroke-width="0.5"/>
    <path d="M-1.25 2.5 Q-3.6 1.6 -0.85 0.95 -0.55 2.8 -1.25 2.5 M2.85 2.7 Q0.35 6.75 -1.15 2.75 -3.1 8.25 -5.2 3.1" fill="none" stroke="#8f7c3f" stroke-linecap="round" stroke-linejoin="round" stroke-width="1.0"/>
    <path d="M0.15 0.0 Q-0.65 -0.55 -0.8 -1.25 -1.05 -2.2 -0.3 -3.4 L1.3 -3.5 Q4.55 -3.4 3.7 -0.45 3.2 1.15 1.9 0.75 L0.85 0.4 0.2 0.0 0.15 0.0 M-2.4 -1.1 Q-2.3 -0.1 -3.85 0.95 L-4.7 1.4 -4.9 1.4 -6.3 0.85 -7.15 0.1 Q-7.8 -0.7 -7.35 -1.8 -6.65 -3.45 -5.35 -3.35 L-5.15 -3.35 -4.45 -3.1 Q-2.55 -2.3 -2.4 -1.25 L-2.4 -1.1" fill="#8f7c3f" fill-rule="evenodd" stroke="none"/>
    <path d="M0.15 0.0 Q-0.65 -0.55 -0.8 -1.25 -1.05 -2.2 -0.3 -3.4 L1.3 -3.5 Q4.55 -3.4 3.7 -0.45 3.2 1.15 1.9 0.75 L0.85 0.4 0.2 0.0 M-2.4 -1.1 Q-2.3 -0.1 -3.85 0.95 L-4.7 1.4 -4.9 1.4 -6.3 0.85 -7.15 0.1 Q-7.8 -0.7 -7.35 -1.8 -6.65 -3.45 -5.35 -3.35 L-5.15 -3.35 -4.45 -3.1 Q-2.55 -2.3 -2.4 -1.25 L-2.4 -1.1 -1.45 -1.25" fill="none" stroke="#8f7c3f" stroke-linecap="round" stroke-linejoin="round" stroke-width="1.0"/>
  </g>
</svg>
