<svg xmlns:xlink="http://www.w3.org/1999/xlink" height="92.65px" width="55.4px" xmlns="http://www.w3.org/2000/svg">
  <g transform="matrix(1.0, 0.0, 0.0, 1.0, 24.15, 92.7)">
    <path d="M-6.25 -82.05 L-7.55 -82.05 -10.55 -91.5 -10.65 -91.5 -13.65 -82.05 -15.0 -82.05 -11.4 -92.7 -9.8 -92.7 -6.25 -82.05 M-19.85 -74.8 L-19.8 -74.85 Q-19.05 -75.55 -17.9 -75.55 -16.85 -75.55 -16.25 -74.95 L-15.55 -73.8 -15.35 -71.95 Q-15.35 -68.95 -16.3 -67.35 -17.1 -66.0 -18.6 -66.0 -19.65 -66.0 -20.25 -66.6 -21.05 -67.35 -21.05 -68.9 L-21.05 -69.0 Q-21.05 -70.1 -20.5 -70.95 L-20.0 -71.6 Q-19.25 -72.35 -18.3 -72.35 L-17.15 -72.0 -16.4 -71.4 -16.5 -73.15 -17.0 -74.2 Q-17.35 -74.6 -18.0 -74.6 -18.6 -74.6 -18.95 -74.2 L-19.5 -73.35 -20.7 -73.35 -19.85 -74.8 M-24.15 -61.95 L-23.05 -61.95 -23.05 -48.05 -24.15 -48.05 -24.15 -61.95 M-20.0 -44.85 L-19.4 -44.3 Q-20.75 -43.05 -21.3 -41.9 -21.9 -40.6 -21.9 -38.85 -21.9 -37.4 -21.3 -36.1 -20.75 -34.9 -19.4 -33.4 L-20.0 -32.8 -22.0 -35.7 Q-22.75 -37.2 -22.75 -38.85 -22.75 -40.8 -22.0 -42.25 -21.4 -43.5 -20.0 -44.85 M-18.0 -30.0 L-18.0 -16.05 -18.6 -16.05 -18.6 -30.0 -18.0 -30.0 M-19.4 -12.3 Q-20.75 -11.05 -21.3 -9.9 -21.9 -8.6 -21.9 -6.85 -21.9 -5.4 -21.3 -4.1 -20.75 -2.9 -19.4 -1.4 L-20.0 -0.8 -22.0 -3.7 Q-22.75 -5.2 -22.75 -6.85 -22.75 -8.8 -22.0 -10.25 -21.4 -11.5 -20.0 -12.85 L-19.4 -12.3 M-16.95 -1.25 L-14.05 -1.25 -14.05 -0.65 -14.05 -0.6 -18.25 -0.6 -18.25 -1.25 -16.95 -1.25 M-14.0 -0.65 L-1.5 -0.65 -0.05 -0.65 -0.05 -0.05 -14.0 -0.05 -14.0 -0.65 M1.65 -0.85 L1.1 -1.4 Q2.45 -2.9 3.0 -4.1 3.6 -5.4 3.6 -6.85 3.6 -8.6 3.0 -9.9 2.45 -11.05 1.1 -12.3 L1.7 -12.85 Q3.1 -11.5 3.7 -10.25 4.45 -8.8 4.45 -6.85 4.45 -5.2 3.7 -3.7 3.05 -2.35 1.75 -0.85 L1.7 -0.8 1.65 -0.85 M7.0 -0.65 L20.95 -0.65 20.95 -0.05 7.0 -0.05 7.0 -0.65 M22.1 -1.4 Q23.45 -2.9 24.0 -4.1 24.6 -5.4 24.6 -6.85 24.6 -8.6 24.0 -9.9 23.45 -11.05 22.1 -12.3 L22.7 -12.85 Q24.1 -11.5 24.7 -10.25 25.45 -8.8 25.45 -6.85 25.45 -5.2 24.7 -3.7 24.05 -2.35 22.7 -0.8 L22.1 -1.4 M18.5 -16.05 L17.9 -16.05 17.9 -30.0 18.5 -30.0 18.5 -16.05 M20.65 -32.8 L20.05 -33.4 Q21.4 -34.9 21.95 -36.1 22.55 -37.4 22.55 -38.85 22.55 -40.6 21.95 -41.9 21.4 -43.05 20.05 -44.3 L20.65 -44.85 Q22.05 -43.5 22.65 -42.25 23.4 -40.8 23.4 -38.85 23.4 -37.2 22.65 -35.7 L20.65 -32.8 M18.5 -51.0 Q21.3 -53.3 22.5 -58.55 L22.75 -59.95 23.9 -59.4 Q24.3 -59.2 23.9 -59.1 22.8 -52.9 19.4 -49.85 L18.5 -51.0 M29.9 -67.2 Q27.8 -70.2 23.65 -72.95 L24.8 -74.0 Q29.25 -71.2 31.25 -68.35 L29.9 -67.2 M20.45 -82.05 L17.45 -91.5 17.35 -91.5 14.35 -82.05 13.0 -82.05 16.6 -92.7 18.2 -92.7 21.75 -82.05 20.45 -82.05 M10.4 -80.65 L10.4 -80.05 -3.55 -80.05 -3.55 -80.65 10.4 -80.65 M0.3 -75.75 Q0.3 -69.6 -2.5 -65.45 L-3.55 -66.5 Q-0.9 -70.0 -0.9 -75.95 L0.3 -75.75 M3.8 -75.95 Q5.0 -74.0 5.8 -71.4 6.75 -68.55 7.0 -66.3 L5.75 -65.75 Q5.5 -68.3 4.65 -70.95 3.85 -73.65 2.8 -75.35 L3.8 -75.95 M-4.6 -75.85 L-10.35 -65.5 -10.9 -65.85 -5.1 -76.2 -4.6 -75.85 M-19.95 -68.9 Q-19.95 -67.8 -19.45 -67.3 -19.1 -67.0 -18.6 -67.0 -18.0 -67.0 -17.45 -67.55 -16.85 -68.15 -16.6 -69.6 L-16.55 -70.25 Q-17.25 -71.3 -18.1 -71.3 -18.75 -71.3 -19.3 -70.75 -19.95 -70.1 -19.95 -68.9 M-17.4 -59.75 Q-17.4 -53.6 -20.2 -49.45 L-21.25 -50.5 Q-18.6 -54.0 -18.6 -59.95 L-17.4 -59.75 M-11.95 -49.75 Q-12.2 -52.3 -13.05 -54.95 -13.85 -57.65 -14.9 -59.35 L-13.9 -59.95 Q-12.7 -58.0 -11.9 -55.4 -10.95 -52.55 -10.7 -50.3 L-11.95 -49.75 M-8.9 -61.1 L-6.95 -61.1 -4.9 -58.7 -6.15 -58.7 -8.9 -61.1 M-1.15 -59.05 L-0.1 -59.65 1.15 -57.4 6.65 -57.4 7.9 -59.65 8.95 -59.05 3.9 -49.9 -1.15 -59.05 M3.9 -52.35 L6.1 -56.25 1.7 -56.25 3.9 -52.35 M0.25 -30.0 L0.25 -16.05 -0.35 -16.05 -0.35 -30.0 0.25 -30.0 M8.6 -76.8 Q10.6 -74.9 11.15 -72.5 L11.3 -70.8 Q11.3 -67.45 8.6 -64.85 L8.0 -65.45 8.1 -65.5 Q10.5 -67.85 10.5 -70.8 10.5 -73.8 8.0 -76.2 L8.6 -76.8 M19.45 -67.2 Q17.35 -70.2 13.2 -72.95 L14.35 -74.0 Q18.8 -71.2 20.8 -68.35 L19.45 -67.2 M14.4 -61.1 L16.35 -61.1 13.6 -58.7 12.3 -58.7 14.4 -61.1" fill="#000000" fill-rule="evenodd" stroke="none"/>
    <path d="M-15.0 -82.05 L-13.65 -82.05 -10.65 -91.5 -10.55 -91.5 -7.55 -82.05 -6.25 -82.05 Q-4.4 -81.25 -3.55 -80.65 L-3.55 -80.05 10.4 -80.05 10.4 -80.65 Q10.9 -81.15 13.0 -82.05 L14.35 -82.05 17.35 -91.5 17.45 -91.5 20.45 -82.05 Q23.0 -78.0 23.65 -72.95 27.8 -70.2 29.9 -67.2 20.5 -69.8 22.75 -59.95 L22.5 -58.55 Q21.3 -53.3 18.5 -51.0 17.55 -48.6 15.45 -47.55 16.75 -45.4 20.05 -44.3 21.4 -43.05 21.95 -41.9 22.55 -40.6 22.55 -38.85 22.55 -37.4 21.95 -36.1 21.4 -34.9 20.05 -33.4 L20.65 -32.8 Q19.8 -32.15 18.5 -30.0 L17.9 -30.0 17.9 -16.05 18.5 -16.05 Q21.15 -14.25 22.1 -12.3 23.45 -11.05 24.0 -9.9 24.6 -8.6 24.6 -6.85 24.6 -5.4 24.0 -4.1 23.45 -2.9 22.1 -1.4 L20.95 -0.65 7.0 -0.65 1.75 -0.85 Q3.05 -2.35 3.7 -3.7 4.45 -5.2 4.45 -6.85 4.45 -8.8 3.7 -10.25 3.1 -11.5 1.7 -12.85 L1.1 -12.3 Q2.45 -11.05 3.0 -9.9 3.6 -8.6 3.6 -6.85 3.6 -5.4 3.0 -4.1 2.45 -2.9 1.1 -1.4 L1.65 -0.85 -0.05 -0.65 Q-1.3 -1.15 -1.5 -0.65 L-14.0 -0.65 -14.05 -0.65 -14.05 -1.25 -16.95 -1.25 -19.4 -1.4 Q-20.75 -2.9 -21.3 -4.1 -21.9 -5.4 -21.9 -6.85 -21.9 -8.6 -21.3 -9.9 -20.75 -11.05 -19.4 -12.3 -19.5 -14.55 -18.6 -16.05 L-18.0 -16.05 -18.0 -30.0 -18.2 -30.3 -20.0 -32.8 -19.4 -33.4 Q-20.75 -34.9 -21.3 -36.1 -21.9 -37.4 -21.9 -38.85 -21.9 -40.6 -21.3 -41.9 -20.75 -43.05 -19.4 -44.3 L-20.0 -44.85 -19.25 -47.85 Q-21.55 -46.85 -23.5 -46.7 L-23.25 -47.8 -23.05 -48.05 -23.05 -61.95 -24.15 -61.95 Q-22.8 -65.9 -21.05 -69.0 L-21.05 -68.9 Q-21.05 -67.35 -20.25 -66.6 -19.65 -66.0 -18.6 -66.0 -17.1 -66.0 -16.3 -67.35 -15.35 -68.95 -15.35 -71.95 L-15.55 -73.8 -16.25 -74.95 Q-16.85 -75.55 -17.9 -75.55 -19.05 -75.55 -19.8 -74.85 L-19.85 -74.8 Q-19.4 -79.9 -15.0 -82.05 M-20.7 -73.35 L-19.5 -73.35 -18.95 -74.2 Q-18.6 -74.6 -18.0 -74.6 -17.35 -74.6 -17.0 -74.2 L-16.5 -73.15 -16.4 -71.4 -17.15 -72.0 -18.3 -72.35 Q-19.25 -72.35 -20.0 -71.6 L-20.5 -70.95 -21.2 -71.4 Q-20.65 -72.4 -20.7 -73.35 M-4.6 -75.85 L-5.1 -76.2 -10.9 -65.85 -10.35 -65.5 -4.6 -75.85 M3.8 -75.95 L2.8 -75.35 Q3.85 -73.65 4.65 -70.95 5.5 -68.3 5.75 -65.75 L7.0 -66.3 Q6.75 -68.55 5.8 -71.4 5.0 -74.0 3.8 -75.95 M0.3 -75.75 L-0.9 -75.95 Q-0.9 -70.0 -3.55 -66.5 L-2.5 -65.45 Q0.3 -69.6 0.3 -75.75 M3.9 -52.35 L1.7 -56.25 6.1 -56.25 3.9 -52.35 M-1.15 -59.05 L3.9 -49.9 8.95 -59.05 7.9 -59.65 6.65 -57.4 1.15 -57.4 -0.1 -59.65 -1.15 -59.05 M-8.9 -61.1 L-6.15 -58.7 -4.9 -58.7 -6.95 -61.1 -8.9 -61.1 M-11.95 -49.75 L-10.7 -50.3 Q-10.95 -52.55 -11.9 -55.4 -12.7 -58.0 -13.9 -59.95 L-14.9 -59.35 Q-13.85 -57.65 -13.05 -54.95 -12.2 -52.3 -11.95 -49.75 M-17.4 -59.75 L-18.6 -59.95 Q-18.6 -54.0 -21.25 -50.5 L-20.2 -49.45 Q-17.4 -53.6 -17.4 -59.75 M-19.95 -68.9 Q-19.95 -70.1 -19.3 -70.75 -18.75 -71.3 -18.1 -71.3 -17.25 -71.3 -16.55 -70.25 L-16.6 -69.6 Q-16.85 -68.15 -17.45 -67.55 -18.0 -67.0 -18.6 -67.0 -19.1 -67.0 -19.45 -67.3 -19.95 -67.8 -19.95 -68.9 M0.25 -30.0 L-0.35 -30.0 -0.35 -16.05 0.25 -16.05 0.25 -30.0 M19.45 -67.2 L20.8 -68.35 Q18.8 -71.2 14.35 -74.0 L13.2 -72.95 Q17.35 -70.2 19.45 -67.2 M8.6 -76.8 L8.0 -76.2 Q10.5 -73.8 10.5 -70.8 10.5 -67.85 8.1 -65.5 L8.0 -65.45 8.6 -64.85 Q11.3 -67.45 11.3 -70.8 L11.15 -72.5 Q10.6 -74.9 8.6 -76.8 M14.4 -61.1 L12.3 -58.7 13.6 -58.7 16.35 -61.1 14.4 -61.1" fill="#ffffff" fill-rule="evenodd" stroke="none"/>
  </g>
</svg>
