<svg xmlns:xlink="http://www.w3.org/1999/xlink" height="97.65px" width="70.15px" xmlns="http://www.w3.org/2000/svg">
  <g transform="matrix(1.0, 0.0, 0.0, 1.0, 35.45, 96.75)">
    <path d="M19.9 -95.35 L21.1 -96.75 22.15 -96.75 23.7 -95.05 22.9 -95.05 22.85 -95.05 21.65 -96.1 20.45 -95.05 19.65 -95.05 19.9 -95.35 M24.6 -94.35 L24.6 -95.5 25.45 -95.5 25.45 -88.3 24.6 -88.3 24.6 -94.35 M26.05 -84.8 L26.9 -84.8 26.9 -74.1 26.05 -74.1 26.05 -84.8 M25.65 -69.1 L25.7 -69.05 25.8 -69.0 Q29.0 -66.95 30.5 -64.8 L29.45 -63.95 Q28.05 -66.0 25.4 -67.85 L24.6 -68.35 25.5 -69.2 25.65 -69.1 M30.5 -57.1 L31.15 -58.25 31.55 -58.0 27.1 -50.0 26.7 -50.3 30.5 -57.1 M32.2 -58.2 L32.15 -58.25 32.6 -58.75 Q34.7 -56.8 34.7 -54.1 34.7 -51.5 32.6 -49.5 L32.15 -50.0 Q34.05 -51.85 34.05 -54.1 34.05 -56.45 32.2 -58.2 M30.4 -47.0 L31.25 -47.0 31.25 -36.3 30.4 -36.3 30.4 -47.0 M30.25 -32.5 L31.1 -32.5 31.1 -25.3 30.25 -25.3 30.25 -32.5 M28.65 -19.65 L28.5 -18.75 Q27.55 -14.65 25.15 -12.5 L24.5 -13.4 Q26.95 -15.4 27.75 -20.3 L28.65 -19.85 Q28.95 -19.7 28.65 -19.65 M23.2 -7.3 L24.15 -7.3 24.15 -2.2 Q24.15 -1.3 23.6 -0.7 22.9 0.0 21.45 0.0 20.0 0.0 19.35 -0.7 18.75 -1.3 18.75 -2.2 L18.75 -7.3 19.7 -7.3 19.7 -2.25 Q19.7 -1.65 20.1 -1.25 20.55 -0.8 21.45 -0.8 22.35 -0.8 22.8 -1.25 L23.2 -2.25 23.2 -7.3 M17.95 -8.8 L7.2 -8.8 7.2 -9.25 17.95 -9.25 17.95 -8.8 M7.15 -8.8 L-3.6 -8.8 -3.6 -9.25 7.15 -9.25 7.15 -8.8 M-3.65 -8.8 L-14.4 -8.8 -14.4 -9.25 -3.65 -9.25 -3.65 -8.8 M-15.05 -7.85 L-14.65 -7.6 -19.1 0.4 -19.5 0.1 -15.05 -7.85 M-20.1 0.4 L-20.6 0.9 Q-22.75 -1.1 -22.7 -3.7 -22.75 -5.6 -21.65 -7.15 L-20.6 -8.35 -20.1 -7.85 -20.9 -7.0 Q-22.05 -5.5 -22.05 -3.7 -22.05 -1.45 -20.1 0.4 M-24.4 -13.55 Q-25.95 -15.85 -29.2 -17.95 L-28.3 -18.8 Q-24.9 -16.65 -23.3 -14.4 L-24.4 -13.55 M-28.5 -23.7 L-29.4 -23.7 -29.4 -34.4 -28.5 -34.4 -28.5 -23.7 M-29.3 -36.3 L-29.4 -36.3 -29.4 -47.0 -28.5 -47.0 -28.5 -36.3 -29.3 -36.3 M-28.95 -48.9 L-28.95 -59.6 -28.05 -59.6 -28.05 -48.9 -28.95 -48.9 M-27.7 -64.4 L-28.25 -63.95 Q-29.65 -65.95 -32.2 -67.8 L-33.05 -68.35 -32.8 -68.6 -32.15 -69.2 Q-28.75 -67.05 -27.15 -64.8 L-27.7 -64.4 M-34.8 -75.7 L-35.25 -75.7 -35.25 -76.6 -34.25 -76.6 -34.25 -75.7 -34.8 -74.55 -35.25 -74.55 -34.8 -75.7 M-33.65 -77.9 L-33.65 -78.7 -22.9 -78.7 -22.9 -77.9 -33.65 -77.9 M-21.7 -79.1 L-22.55 -79.1 -22.55 -79.75 -17.75 -79.75 -17.75 -79.1 -21.7 -79.1 M-17.35 -79.1 L-16.4 -79.1 -14.95 -75.35 -13.4 -79.1 -12.45 -79.1 -14.55 -74.05 -15.05 -73.2 -15.15 -73.1 -15.9 -72.8 -16.7 -73.0 -16.7 -73.8 -15.95 -73.65 Q-15.75 -73.65 -15.6 -73.8 L-15.35 -74.25 -17.35 -79.1 M-8.7 -79.55 L-8.7 -80.2 -3.95 -80.2 -3.95 -79.55 -8.7 -79.55 M-3.65 -80.6 L-3.65 -81.4 7.1 -81.4 7.1 -80.6 6.45 -80.6 -3.65 -80.6 M7.5 -80.2 L12.25 -80.2 12.25 -79.55 7.5 -79.55 7.5 -80.2 M13.2 -82.15 L13.2 -83.1 13.4 -83.1 14.2 -83.1 14.2 -82.15 13.6 -80.9 13.2 -80.9 13.6 -82.15 13.2 -82.15 M14.7 -87.8 L14.25 -88.1 18.75 -96.05 19.15 -95.8 18.75 -95.2 14.7 -87.8 M14.1 -69.7 L12.0 -71.55 13.45 -71.55 15.05 -69.7 14.1 -69.7 M5.4 -70.45 L5.45 -70.4 6.2 -70.0 2.35 -62.9 -1.5 -70.0 -0.7 -70.45 0.25 -68.7 4.45 -68.7 5.4 -70.45 M2.35 -64.8 L4.05 -67.85 0.7 -67.85 2.35 -64.8 M-21.0 -58.25 Q-22.95 -56.45 -22.95 -54.1 -22.95 -51.85 -21.0 -50.0 L-21.5 -49.5 Q-23.65 -51.5 -23.6 -54.1 -23.65 -56.8 -21.5 -58.75 L-21.0 -58.25 M-7.5 -71.55 L-9.65 -69.7 -10.65 -69.7 -9.05 -71.55 -7.5 -71.55 M-18.75 -56.6 Q-15.35 -54.45 -13.75 -52.2 L-14.85 -51.35 Q-16.45 -53.65 -19.65 -55.75 L-18.75 -56.6" fill="#000000" fill-rule="evenodd" stroke="none"/>
    <path d="M22.9 -95.05 L23.65 -94.85 24.6 -94.35 24.6 -88.3 25.45 -88.3 Q25.2 -86.3 26.05 -84.8 L26.05 -74.1 26.05 -74.05 26.05 -72.1 26.05 -72.05 25.7 -69.15 25.7 -69.1 25.65 -69.1 25.5 -69.2 24.6 -68.35 25.4 -67.85 Q28.05 -66.0 29.45 -63.95 29.8 -60.6 30.5 -57.1 L26.7 -50.3 27.1 -50.0 31.55 -58.0 Q31.95 -58.05 32.2 -58.2 34.05 -56.45 34.05 -54.1 34.05 -51.85 32.15 -50.0 L32.6 -49.5 30.65 -47.4 30.4 -47.0 30.4 -36.3 30.65 -35.95 30.95 -34.55 31.1 -32.55 30.25 -32.5 30.25 -25.3 31.05 -25.05 Q30.35 -21.95 28.95 -19.5 L28.65 -19.65 Q28.95 -19.7 28.65 -19.85 L27.75 -20.3 Q26.95 -15.4 24.5 -13.4 L25.15 -12.5 Q24.85 -9.5 23.2 -7.3 L23.2 -2.25 22.8 -1.25 Q22.35 -0.8 21.45 -0.8 20.55 -0.8 20.1 -1.25 19.7 -1.65 19.7 -2.25 L19.7 -7.3 18.75 -7.3 17.65 -8.45 17.95 -8.8 17.95 -9.25 7.2 -9.25 7.2 -8.8 7.15 -8.8 7.15 -9.25 -3.6 -9.25 -3.6 -8.8 -3.65 -8.8 -3.65 -9.25 -14.4 -9.25 -14.6 -8.9 -15.05 -7.85 -19.5 0.1 -20.1 0.4 Q-22.05 -1.45 -22.05 -3.7 -22.05 -5.5 -20.9 -7.0 L-20.1 -7.85 -20.15 -8.45 Q-20.3 -10.45 -21.35 -11.9 -22.65 -13.55 -24.4 -13.55 L-23.3 -14.4 Q-24.9 -16.65 -28.3 -18.8 L-29.4 -18.55 Q-30.1 -20.8 -29.55 -23.65 L-28.5 -23.7 -28.5 -34.4 -29.4 -34.4 -29.3 -36.3 -28.5 -36.3 -28.5 -47.0 -29.35 -47.25 -28.95 -48.9 -28.05 -48.9 -28.05 -59.6 -28.85 -59.8 -27.85 -63.85 -27.7 -64.4 -27.15 -64.8 Q-28.75 -67.05 -32.15 -69.2 L-32.8 -68.6 -34.25 -70.45 Q-35.9 -72.45 -35.3 -74.55 L-35.25 -74.8 -34.9 -75.55 -34.8 -75.7 -35.25 -74.55 -34.8 -74.55 -34.25 -75.7 -34.25 -76.6 Q-34.0 -76.95 -33.8 -77.85 L-33.75 -77.95 -33.65 -77.9 -22.9 -77.9 -22.5 -79.0 -21.7 -79.1 -17.75 -79.1 -17.35 -79.1 -15.35 -74.25 -15.6 -73.8 Q-15.75 -73.65 -15.95 -73.65 L-16.7 -73.8 -16.7 -73.0 -15.9 -72.8 -15.15 -73.1 -15.05 -73.2 -14.55 -74.05 -12.45 -79.1 -12.25 -79.25 Q-10.7 -80.1 -8.85 -80.25 L-8.7 -79.55 -3.95 -79.55 -3.95 -80.2 -3.65 -80.6 6.45 -80.6 Q7.15 -80.55 7.5 -80.2 L7.5 -79.55 12.25 -79.55 12.25 -80.2 13.1 -82.15 13.2 -82.15 13.6 -82.15 13.2 -80.9 13.6 -80.9 14.2 -82.15 14.2 -83.1 13.4 -83.1 Q14.0 -85.2 14.25 -87.85 L14.7 -87.8 18.75 -95.2 19.9 -95.35 19.65 -95.05 20.45 -95.05 21.65 -96.1 22.85 -95.05 22.9 -95.05 M-18.75 -56.6 L-19.65 -55.75 Q-16.45 -53.65 -14.85 -51.35 L-13.75 -52.2 Q-15.35 -54.45 -18.75 -56.6 M-7.5 -71.55 L-9.05 -71.55 -10.65 -69.7 -9.65 -69.7 -7.5 -71.55 M-21.0 -58.25 L-21.5 -58.75 Q-23.65 -56.8 -23.6 -54.1 -23.65 -51.5 -21.5 -49.5 L-21.0 -50.0 Q-22.95 -51.85 -22.95 -54.1 -22.95 -56.45 -21.0 -58.25 M2.35 -64.8 L0.7 -67.85 4.05 -67.85 2.35 -64.8 M5.4 -70.45 L4.45 -68.7 0.25 -68.7 -0.7 -70.45 -1.5 -70.0 2.35 -62.9 6.2 -70.0 5.45 -70.4 5.4 -70.45 M14.1 -69.7 L15.05 -69.7 13.45 -71.55 12.0 -71.55 14.1 -69.7" fill="#ffffff" fill-rule="evenodd" stroke="none"/>
  </g>
</svg>
