<svg xmlns:xlink="http://www.w3.org/1999/xlink" height="51.25px" width="52.9px" xmlns="http://www.w3.org/2000/svg">
  <g transform="matrix(1.0, 0.0, 0.0, 1.0, 29.0, 50.95)">
    <path d="M17.0 -41.3 L17.1 -41.15 Q18.1 -39.75 19.4 -38.7 L21.3 -36.75 21.05 -36.5 Q23.2 -34.5 23.2 -31.9 23.2 -29.35 21.05 -27.35 L21.55 -26.8 19.75 -24.95 21.5 -23.1 21.0 -22.6 22.65 -20.55 Q23.15 -19.45 23.15 -17.95 23.15 -16.7 22.65 -15.6 L21.0 -13.3 21.5 -12.75 Q20.3 -11.45 18.5 -10.85 L18.6 -10.6 18.45 -7.9 17.35 -7.9 17.35 -2.5 Q17.35 -1.6 16.9 -1.1 16.45 -0.7 15.65 -0.7 14.9 -0.7 14.35 -1.15 13.8 -1.6 13.8 -3.1 L12.7 -3.1 12.75 -2.5 10.75 -2.35 10.75 -3.25 7.7 -3.25 7.7 -2.35 5.0 -2.25 4.2 -2.35 4.2 -3.25 -7.75 -3.25 -7.75 -2.35 -8.7 -2.5 -8.7 -5.15 -9.75 -5.15 -9.75 -2.35 Q-9.75 -1.8 -10.5 -1.05 -10.95 -0.65 -11.7 -0.65 -12.4 -0.65 -12.8 -1.05 -13.25 -1.5 -13.25 -2.4 L-13.25 -5.15 -14.3 -5.15 Q-13.95 -5.55 -14.05 -6.2 -14.1 -6.7 -14.6 -6.85 L-15.25 -7.45 -16.3 -9.9 Q-16.6 -10.8 -16.55 -11.8 L-16.45 -12.65 -15.55 -12.65 -15.55 -13.25 -16.1 -13.25 -16.35 -13.35 -16.45 -13.65 -16.45 -16.9 Q-16.45 -17.5 -16.85 -17.85 -16.45 -18.25 -16.45 -18.75 L-16.45 -22.15 -16.35 -22.45 -16.1 -22.55 -15.55 -22.55 -15.55 -23.1 -16.45 -23.1 -17.1 -22.85 -17.4 -22.15 -17.4 -18.6 -17.45 -18.45 -17.7 -18.6 -18.45 -19.05 -18.65 -19.25 Q-19.75 -20.3 -20.25 -21.25 L-19.75 -21.25 -21.5 -23.3 -22.8 -23.3 -23.0 -23.45 -24.05 -24.25 -26.65 -26.8 -26.1 -27.35 Q-28.25 -29.35 -28.25 -31.9 -28.25 -34.5 -26.1 -36.5 L-25.05 -37.3 -23.05 -35.15 -22.3 -35.15 Q-21.15 -34.5 -20.3 -33.15 L-20.4 -31.9 Q-20.4 -29.0 -18.05 -26.8 L-17.5 -27.35 Q-19.65 -29.35 -19.65 -31.9 -19.65 -34.5 -17.5 -36.5 L-18.05 -37.05 -15.4 -39.5 Q-14.65 -40.25 -14.5 -41.2 L-14.25 -41.1 -10.85 -48.6 -7.45 -41.1 -7.0 -41.3 -5.75 -40.6 -5.3 -40.5 -4.95 -40.55 -4.9 -40.1 7.05 -40.1 7.05 -40.6 Q8.05 -40.75 8.85 -41.5 L9.75 -41.1 13.15 -48.6 16.55 -41.1 17.0 -41.3 M-12.45 -37.3 L-14.15 -37.3 -15.95 -35.25 -14.85 -35.25 -12.45 -37.3 M-3.25 -33.15 L-5.15 -29.8 -7.0 -33.15 -3.25 -33.15 M-8.55 -36.05 L-9.45 -35.55 -5.15 -27.7 -0.85 -35.55 -1.75 -36.05 -2.8 -34.1 -7.5 -34.1 -8.55 -36.05 M1.9 -37.3 L4.25 -35.25 5.3 -35.25 3.55 -37.3 1.9 -37.3 M19.95 -35.6 Q20.3 -35.65 19.95 -35.85 L18.95 -36.35 Q18.05 -30.9 15.3 -28.65 L16.05 -27.65 Q19.0 -30.3 19.95 -35.6" fill="#ffffff" fill-rule="evenodd" stroke="none"/>
    <path d="M21.3 -36.75 L21.55 -37.05 Q23.9 -34.85 23.9 -31.9 23.9 -29.0 21.55 -26.8 L21.05 -27.35 Q23.2 -29.35 23.2 -31.9 23.2 -34.5 21.05 -36.5 L21.3 -36.75 M21.5 -23.1 L23.25 -20.85 Q23.85 -19.6 23.85 -17.95 23.85 -16.5 23.25 -15.25 L21.5 -12.75 21.0 -13.3 22.65 -15.6 Q23.15 -16.7 23.15 -17.95 23.15 -19.45 22.65 -20.55 L21.0 -22.6 21.5 -23.1 M18.45 -7.9 L18.45 -2.5 Q18.45 -1.15 17.8 -0.5 17.0 0.3 15.65 0.3 14.3 0.3 13.55 -0.45 12.85 -1.15 12.75 -2.5 L12.7 -3.1 13.8 -3.1 Q13.8 -1.6 14.35 -1.15 14.9 -0.7 15.65 -0.7 16.45 -0.7 16.9 -1.1 17.35 -1.6 17.35 -2.5 L17.35 -7.9 18.45 -7.9 M10.75 -2.35 L7.7 -2.35 7.7 -3.25 10.75 -3.25 10.75 -2.35 M4.2 -2.35 L-7.75 -2.35 -7.75 -3.25 4.2 -3.25 4.2 -2.35 M-8.7 -2.5 L-8.7 0.15 -9.75 0.15 -9.75 -0.8 Q-10.55 0.25 -11.8 0.25 -13.0 0.25 -13.6 -0.35 -14.3 -1.05 -14.3 -2.35 L-14.3 -5.15 -13.25 -5.15 -13.25 -2.4 Q-13.25 -1.5 -12.8 -1.05 -12.4 -0.65 -11.7 -0.65 -10.95 -0.65 -10.5 -1.05 -9.75 -1.8 -9.75 -2.35 L-9.75 -5.15 -8.7 -5.15 -8.7 -2.5 M-16.45 -12.65 Q-16.85 -12.65 -17.1 -12.95 L-17.4 -13.65 -17.4 -17.1 -17.55 -17.4 -18.0 -17.55 -18.0 -18.2 Q-17.7 -18.2 -17.55 -18.35 L-17.45 -18.45 -17.4 -18.6 -17.4 -22.15 -17.1 -22.85 -16.45 -23.1 -15.55 -23.1 -15.55 -22.55 -16.1 -22.55 -16.35 -22.45 -16.45 -22.15 -16.45 -18.75 Q-16.45 -18.25 -16.85 -17.85 -16.45 -17.5 -16.45 -16.9 L-16.45 -13.65 -16.35 -13.35 -16.1 -13.25 -15.55 -13.25 -15.55 -12.65 -16.45 -12.65 M-20.25 -21.25 L-20.8 -21.25 -23.15 -23.3 -22.8 -23.3 -21.5 -23.3 -19.75 -21.25 -20.25 -21.25 M-26.65 -26.8 Q-29.0 -29.0 -29.0 -31.9 -29.0 -34.85 -26.65 -37.05 L-26.1 -36.5 Q-28.25 -34.5 -28.25 -31.9 -28.25 -29.35 -26.1 -27.35 L-26.65 -26.8 M-25.05 -37.3 L-23.65 -37.3 -22.3 -35.15 -23.05 -35.15 -25.05 -37.3 M-20.3 -33.15 Q-19.9 -35.35 -18.05 -37.05 L-17.5 -36.5 Q-19.65 -34.5 -19.65 -31.9 -19.65 -29.35 -17.5 -27.35 L-18.05 -26.8 Q-20.4 -29.0 -20.4 -31.9 L-20.3 -33.15 M-14.5 -41.2 L-15.15 -41.5 -10.85 -50.95 -6.55 -41.5 -7.0 -41.3 -7.45 -41.1 -10.85 -48.6 -14.25 -41.1 -14.5 -41.2 M-4.9 -40.1 L-4.9 -40.6 7.05 -40.6 7.05 -40.1 -4.9 -40.1 M8.85 -41.5 L13.15 -50.95 17.45 -41.5 17.0 -41.3 16.55 -41.1 13.15 -48.6 9.75 -41.1 8.85 -41.5 M19.95 -35.6 Q19.0 -30.3 16.05 -27.65 L15.3 -28.65 Q18.05 -30.9 18.95 -36.35 L19.95 -35.85 Q20.3 -35.65 19.95 -35.6 M1.9 -37.3 L3.55 -37.3 5.3 -35.25 4.25 -35.25 1.9 -37.3 M-8.55 -36.05 L-7.5 -34.1 -2.8 -34.1 -1.75 -36.05 -0.85 -35.55 -5.15 -27.7 -9.45 -35.55 -8.55 -36.05 M-3.25 -33.15 L-7.0 -33.15 -5.15 -29.8 -3.25 -33.15 M-12.45 -37.3 L-14.85 -35.25 -15.95 -35.25 -14.15 -37.3 -12.45 -37.3" fill="#000000" fill-rule="evenodd" stroke="none"/>
  </g>
</svg>
