<svg xmlns:xlink="http://www.w3.org/1999/xlink" height="49.0px" width="41.6px" xmlns="http://www.w3.org/2000/svg">
  <g transform="matrix(1.0, 0.0, 0.0, 1.0, 18.0, 49.05)">
    <path d="M15.1 -48.2 L15.0 -48.4 15.95 -49.05 Q17.6 -45.5 18.15 -43.05 L17.0 -42.45 Q16.4 -45.2 15.1 -48.15 L15.1 -48.2 M20.05 -36.4 L20.45 -36.4 20.45 -35.35 19.8 -33.95 19.35 -33.95 19.8 -35.35 19.35 -35.35 19.35 -36.4 20.05 -36.4 M21.8 -33.35 L21.8 -33.55 22.9 -33.55 22.9 -32.5 22.35 -32.5 21.8 -32.5 21.8 -33.35 M21.8 -29.2 L22.9 -29.2 22.9 -28.2 22.25 -26.9 21.8 -26.9 22.25 -28.2 21.8 -28.2 21.8 -29.2 M20.55 -20.3 L21.2 -20.35 Q22.15 -20.35 22.8 -19.75 23.55 -19.1 23.6 -18.05 23.7 -16.0 22.4 -15.1 21.45 -14.4 19.8 -14.3 L19.4 -14.3 19.2 -15.15 Q21.35 -15.15 22.15 -16.05 22.7 -16.65 22.75 -17.6 22.8 -18.5 22.35 -19.0 21.9 -19.6 21.2 -19.6 L19.5 -19.2 17.3 -18.25 16.9 -19.2 19.4 -20.05 20.55 -20.3 M17.55 -5.45 L17.55 -0.2 16.6 -0.2 16.6 -1.15 Q15.85 -0.1 14.8 -0.1 13.8 -0.1 13.4 -0.5 12.95 -0.95 12.95 -1.6 L12.95 -5.45 13.1 -5.45 13.9 -5.45 13.9 -1.9 Q13.9 -1.35 14.15 -1.1 14.4 -0.85 14.85 -0.85 15.45 -0.85 15.9 -1.3 16.6 -2.0 16.6 -2.75 L16.6 -5.45 17.55 -5.45 M11.6 -7.85 L11.6 -7.35 10.95 -5.95 10.5 -5.95 10.6 -6.25 10.95 -7.35 10.5 -7.35 10.5 -8.4 11.6 -8.4 11.6 -7.85 M9.15 -7.55 L9.15 -7.35 8.5 -5.95 8.05 -5.95 8.3 -6.6 8.5 -7.35 8.05 -7.35 8.05 -8.4 9.15 -8.4 9.15 -7.55 M6.75 -8.5 L6.5 -8.25 5.8 -9.25 5.55 -9.55 6.05 -10.05 7.0 -8.75 6.75 -8.5 M5.5 -9.0 L6.05 -8.2 5.5 -7.7 4.65 -9.1 5.1 -9.55 5.5 -9.0 M3.35 -9.05 L2.1 -7.3 1.25 -7.3 2.45 -9.65 3.75 -9.65 3.35 -9.05 M0.7 -8.45 L-0.15 -7.3 -1.0 -7.3 0.2 -9.65 1.5 -9.65 0.7 -8.45 M-2.3 -8.4 L-2.3 -7.35 -2.95 -5.95 -3.4 -5.95 -2.95 -7.35 -3.4 -7.35 -3.4 -8.4 -2.3 -8.4 M-4.75 -7.35 L-5.4 -5.95 -5.85 -5.95 -5.4 -7.35 -5.85 -7.35 -5.85 -8.4 -4.75 -8.4 -4.75 -7.35 M-11.3 -1.25 L-11.25 -1.15 Q-12.0 -0.05 -13.0 -0.05 -13.7 -0.05 -14.05 -0.4 -14.4 -0.75 -14.15 -1.7 L-12.85 -6.55 -12.0 -6.55 -13.3 -1.6 -13.3 -1.1 -12.9 -0.95 Q-12.35 -0.95 -11.85 -1.8 L-11.3 -1.25 M-16.9 -14.2 L-18.0 -14.2 -18.0 -15.2 -16.9 -15.2 -16.9 -14.2 M-16.9 -18.5 L-18.0 -18.5 -18.0 -19.55 -16.9 -19.55 -16.9 -18.5 M-15.9 -26.9 L-16.35 -26.9 -15.9 -28.2 -16.35 -28.2 -16.35 -29.2 -15.25 -29.2 -15.25 -28.7 -15.25 -28.2 -15.9 -26.9 M-13.9 -28.4 L-13.9 -29.2 -13.6 -29.2 -12.8 -29.2 -12.8 -28.2 -13.9 -28.2 -13.9 -28.4 M-13.6 -32.5 L-13.9 -32.5 -13.9 -33.55 -12.8 -33.55 -12.8 -32.5 -13.6 -32.5 M-11.0 -33.95 L-11.45 -33.95 -11.0 -35.35 -11.45 -35.35 -11.45 -36.4 -10.35 -36.4 -10.35 -35.35 -11.0 -33.95 M-5.05 -43.05 Q-3.85 -45.25 -3.25 -48.55 L-2.15 -48.05 -1.95 -47.8 -2.15 -47.7 -2.2 -47.7 Q-2.75 -44.65 -4.15 -42.15 L-5.05 -43.05 M-1.05 -48.1 L-1.1 -48.15 -1.2 -48.4 -0.25 -49.05 0.45 -47.45 Q1.55 -44.95 1.95 -43.05 L0.8 -42.45 Q0.4 -44.4 -0.4 -46.45 L-1.05 -48.1 M3.25 -41.55 L3.45 -42.2 3.0 -42.2 3.0 -43.2 4.1 -43.2 4.1 -42.2 3.45 -40.9 3.0 -40.9 3.25 -41.55 M4.75 -41.45 L8.35 -41.45 8.35 -40.9 4.75 -40.9 4.75 -41.45 M9.1 -42.7 L9.1 -43.2 10.2 -43.2 10.2 -42.2 9.55 -40.9 9.1 -40.9 9.55 -42.2 9.1 -42.2 9.1 -42.7 M11.15 -43.05 Q12.35 -45.25 12.95 -48.55 L14.05 -48.05 14.2 -47.95 14.25 -47.8 Q14.25 -47.7 14.0 -47.7 13.45 -44.65 12.05 -42.15 L11.15 -43.05 M15.35 -35.55 L13.0 -37.6 14.65 -37.6 16.4 -35.55 15.35 -35.55 M4.1 -33.45 L5.95 -30.1 7.85 -33.45 4.1 -33.45 M9.35 -36.35 L10.25 -35.85 5.95 -28.0 1.65 -35.85 2.55 -36.35 3.6 -34.4 8.3 -34.4 9.35 -36.35 M14.75 -14.2 L14.75 -15.2 15.85 -15.2 15.85 -14.2 15.2 -12.9 14.75 -12.9 15.2 -14.2 14.75 -14.2 M-3.05 -37.6 L-1.35 -37.6 -3.75 -35.55 -4.85 -35.55 -3.05 -37.6 M-14.45 -19.55 L-14.45 -18.5 -15.55 -18.5 -15.55 -19.55 -14.45 -19.55 M0.85 -20.35 Q1.8 -20.35 2.45 -19.75 3.2 -19.1 3.25 -18.05 3.35 -16.0 2.05 -15.1 1.0 -14.3 -0.95 -14.3 L-1.15 -15.15 Q1.0 -15.15 1.8 -16.05 2.35 -16.65 2.4 -17.6 2.45 -18.5 2.0 -19.0 1.55 -19.6 0.85 -19.6 L-0.85 -19.2 -3.05 -18.25 -3.45 -19.2 -0.95 -20.05 0.85 -20.35 M-15.55 -15.2 L-14.45 -15.2 -14.45 -14.2 -15.55 -14.2 -15.55 -15.2" fill="#000000" fill-rule="evenodd" stroke="none"/>
    <path d="M14.2 -47.95 L14.7 -47.5 15.1 -48.2 15.1 -48.15 Q16.4 -45.2 17.0 -42.45 L18.15 -43.05 Q18.6 -41.3 20.05 -40.2 19.3 -39.8 18.9 -38.9 19.95 -37.8 20.05 -36.4 L19.35 -36.4 19.35 -35.35 19.8 -35.35 19.35 -33.95 19.8 -33.95 20.0 -33.9 20.2 -33.25 21.8 -33.35 21.8 -32.5 22.35 -32.5 Q21.6 -31.1 21.25 -29.75 21.15 -29.25 21.8 -29.2 L21.8 -28.2 22.25 -28.2 21.8 -26.9 22.1 -26.65 21.15 -25.55 Q20.5 -24.7 20.85 -23.9 20.95 -23.7 21.2 -23.7 L21.6 -23.65 Q20.5 -22.3 20.55 -20.3 L19.4 -20.05 16.9 -19.2 17.3 -18.25 19.5 -19.2 21.2 -19.6 Q21.9 -19.6 22.35 -19.0 22.8 -18.5 22.75 -17.6 22.7 -16.65 22.15 -16.05 21.35 -15.15 19.2 -15.15 L19.4 -14.3 19.8 -14.25 Q19.85 -12.3 19.1 -10.55 L18.8 -10.05 18.35 -9.75 19.2 -8.4 18.1 -7.95 17.85 -6.3 Q17.45 -6.1 17.55 -5.45 L16.6 -5.45 16.6 -2.75 Q16.6 -2.0 15.9 -1.3 15.45 -0.85 14.85 -0.85 14.4 -0.85 14.15 -1.1 13.9 -1.35 13.9 -1.9 L13.9 -5.45 13.1 -5.45 13.05 -5.5 Q12.25 -6.5 11.6 -7.85 L11.6 -8.4 10.5 -8.4 10.5 -7.35 10.95 -7.35 10.6 -6.25 10.25 -6.4 Q9.65 -6.75 9.25 -7.4 L9.15 -7.55 9.15 -8.4 8.05 -8.4 8.05 -7.35 8.5 -7.35 8.3 -6.6 6.75 -8.5 7.0 -8.75 6.05 -10.05 5.55 -9.55 5.8 -9.25 5.5 -9.0 5.1 -9.55 4.65 -9.1 Q4.7 -8.45 4.05 -8.0 3.7 -8.25 3.35 -9.05 L3.75 -9.65 2.45 -9.65 1.25 -7.3 0.7 -8.45 1.5 -9.65 0.2 -9.65 -1.0 -7.3 Q-1.15 -8.1 -1.8 -8.7 -1.85 -8.4 -2.3 -8.4 L-3.4 -8.4 -3.4 -7.35 -2.95 -7.35 -3.4 -5.95 Q-4.25 -6.35 -4.75 -7.35 L-4.75 -8.4 -5.85 -8.4 -5.85 -7.35 -5.4 -7.35 -5.85 -5.95 -5.55 -5.65 Q-6.55 -4.3 -8.25 -4.0 L-9.05 -4.0 -10.05 -3.8 Q-9.9 -2.15 -10.95 -1.6 L-11.2 -1.35 -11.3 -1.25 -11.85 -1.8 Q-12.35 -0.95 -12.9 -0.95 L-13.3 -1.1 -13.3 -1.6 -12.0 -6.55 -12.85 -6.55 -13.5 -7.25 -13.65 -7.55 Q-13.95 -8.8 -13.15 -9.45 L-14.65 -10.35 Q-15.05 -10.55 -14.7 -10.85 L-13.7 -11.95 Q-14.7 -12.4 -15.85 -13.35 L-16.0 -13.6 Q-16.35 -14.15 -16.9 -14.2 L-16.9 -15.2 Q-16.25 -15.7 -15.75 -16.5 L-15.3 -17.65 Q-16.15 -18.3 -16.9 -18.5 L-16.9 -19.55 -15.25 -20.75 Q-14.45 -21.65 -15.35 -22.3 -15.55 -23.0 -16.0 -23.4 L-15.05 -23.55 Q-14.65 -23.55 -14.55 -23.85 -14.25 -24.65 -14.8 -25.25 L-14.95 -25.6 Q-15.25 -26.55 -15.9 -26.9 L-15.25 -28.2 -15.25 -28.7 -13.9 -28.4 -13.9 -28.2 -12.8 -28.2 -12.8 -29.2 -13.6 -29.2 -13.6 -29.5 Q-12.55 -29.45 -12.95 -30.6 L-13.1 -30.85 -14.55 -32.35 -13.85 -32.4 -13.6 -32.5 -12.8 -32.5 -12.8 -33.55 -11.3 -33.15 -11.05 -33.75 -11.0 -33.95 -10.35 -35.35 -10.35 -36.4 -10.15 -36.6 Q-9.85 -37.55 -9.1 -38.25 L-8.85 -38.4 Q-7.85 -38.85 -8.05 -39.9 L-8.45 -41.1 -7.45 -40.9 Q-6.45 -40.4 -6.1 -41.3 L-5.95 -41.55 -5.05 -43.05 -4.15 -42.15 Q-2.75 -44.65 -2.2 -47.7 L-2.15 -47.7 -1.45 -47.55 -1.05 -48.1 -0.4 -46.45 Q0.4 -44.4 0.8 -42.45 L1.95 -43.05 2.85 -42.15 3.25 -41.55 3.0 -40.9 3.45 -40.9 4.1 -42.2 4.1 -43.2 Q4.7 -42.35 4.75 -41.45 L4.75 -40.9 8.35 -40.9 8.35 -41.45 9.1 -42.7 9.1 -42.2 9.55 -42.2 9.1 -40.9 9.55 -40.9 10.45 -42.05 11.15 -43.05 12.05 -42.15 Q13.45 -44.65 14.0 -47.7 14.25 -47.7 14.25 -47.8 L14.2 -47.95 M-15.55 -15.2 L-15.55 -14.2 -14.45 -14.2 -14.45 -15.2 -15.55 -15.2 M0.85 -20.35 L-0.95 -20.05 -3.45 -19.2 -3.05 -18.25 -0.85 -19.2 0.85 -19.6 Q1.55 -19.6 2.0 -19.0 2.45 -18.5 2.4 -17.6 2.35 -16.65 1.8 -16.05 1.0 -15.15 -1.15 -15.15 L-0.95 -14.3 Q1.0 -14.3 2.05 -15.1 3.35 -16.0 3.25 -18.05 3.2 -19.1 2.45 -19.75 1.8 -20.35 0.85 -20.35 M-14.45 -19.55 L-15.55 -19.55 -15.55 -18.5 -14.45 -18.5 -14.45 -19.55 M-3.05 -37.6 L-4.85 -35.55 -3.75 -35.55 -1.35 -37.6 -3.05 -37.6 M14.75 -14.2 L15.2 -14.2 14.75 -12.9 15.2 -12.9 15.85 -14.2 15.85 -15.2 14.75 -15.2 14.75 -14.2 M9.35 -36.35 L8.3 -34.4 3.6 -34.4 2.55 -36.35 1.65 -35.85 5.95 -28.0 10.25 -35.85 9.35 -36.35 M4.1 -33.45 L7.85 -33.45 5.95 -30.1 4.1 -33.45 M15.35 -35.55 L16.4 -35.55 14.65 -37.6 13.0 -37.6 15.35 -35.55" fill="#ffffff" fill-rule="evenodd" stroke="none"/>
  </g>
</svg>
