<svg xmlns:xlink="http://www.w3.org/1999/xlink" height="97.65px" width="72.2px" xmlns="http://www.w3.org/2000/svg">
  <g transform="matrix(1.0, 0.0, 0.0, 1.0, 37.15, 96.95)">
    <path d="M19.4 -95.6 L20.05 -95.25 20.85 -95.25 22.1 -96.3 23.3 -95.25 24.1 -95.25 Q23.8 -94.4 24.15 -94.1 24.75 -94.3 24.9 -95.0 L24.95 -95.25 25.0 -95.25 25.0 -88.5 25.85 -88.5 Q25.75 -85.9 26.95 -84.15 L26.95 -74.3 27.8 -74.3 Q27.3 -72.65 26.85 -72.15 L26.4 -71.7 26.15 -71.55 26.0 -71.7 25.6 -71.3 26.35 -70.05 26.85 -70.5 27.25 -70.55 Q27.9 -69.8 27.55 -69.35 L29.05 -69.75 28.65 -68.45 29.05 -68.45 29.2 -68.35 28.6 -66.8 Q29.55 -67.05 30.85 -68.1 L30.85 -67.15 Q30.65 -65.85 30.85 -64.2 L30.85 -63.3 Q30.65 -61.2 31.05 -59.65 L31.5 -58.45 27.05 -50.45 27.45 -50.2 31.9 -58.2 32.5 -58.45 Q34.4 -56.65 34.4 -54.3 34.4 -52.0 32.5 -50.2 L32.95 -49.7 Q32.05 -47.65 30.7 -45.65 L30.4 -45.7 30.25 -44.65 33.25 -43.7 Q31.6 -43.95 30.45 -42.95 L30.25 -42.0 33.25 -40.9 Q32.45 -40.25 31.6 -39.75 L30.25 -40.2 30.05 -39.2 Q32.0 -38.55 33.7 -37.6 32.0 -37.6 30.75 -36.2 29.55 -34.8 29.55 -32.9 L29.55 -31.95 29.95 -31.95 29.55 -30.65 Q28.5 -30.45 28.35 -29.9 L28.35 -30.3 27.35 -30.3 27.35 -29.35 28.35 -29.35 28.35 -29.4 Q28.45 -28.9 29.15 -28.25 L29.7 -27.65 28.0 -27.2 28.35 -26.4 Q28.75 -25.7 29.6 -25.15 L30.4 -24.3 Q27.9 -24.2 26.1 -23.15 L25.6 -22.9 Q24.75 -22.35 25.45 -20.6 23.1 -18.9 20.4 -18.5 L20.65 -17.55 Q23.65 -17.95 26.5 -20.1 L24.6 -17.2 Q23.0 -16.4 20.9 -16.0 L21.2 -15.1 Q24.1 -15.55 26.6 -17.3 L26.7 -17.2 24.85 -14.5 Q23.05 -13.7 20.35 -13.35 L20.6 -12.35 23.35 -12.85 Q23.15 -10.15 23.25 -7.6 L22.45 -7.5 21.45 -7.5 21.45 -2.45 Q21.45 -1.85 21.1 -1.45 20.65 -1.0 19.75 -1.0 18.85 -1.0 18.4 -1.45 18.0 -1.85 18.0 -2.45 L18.0 -7.5 17.05 -7.5 15.75 -8.8 14.55 -8.8 14.05 -7.75 Q13.6 -7.9 13.25 -8.15 L13.7 -8.8 12.55 -8.8 11.7 -7.1 10.45 -8.0 10.85 -8.65 10.4 -9.25 10.15 -8.65 10.0 -8.4 9.55 -8.2 Q9.2 -8.2 8.65 -8.75 8.15 -9.25 7.7 -9.25 L6.95 -8.8 6.5 -7.9 6.9 -7.4 Q5.45 -7.2 4.75 -8.3 L5.25 -8.75 3.7 -8.75 2.1 -6.9 Q1.05 -7.75 0.85 -8.3 L0.75 -7.6 0.45 -7.7 -0.55 -7.7 -0.55 -6.75 -0.15 -6.75 -0.55 -5.5 -1.85 -6.5 -1.75 -6.75 -1.75 -7.7 -2.75 -7.7 -2.75 -6.9 -4.15 -7.55 -3.7 -8.0 -4.55 -9.15 -5.0 -8.7 -5.35 -8.65 -5.4 -8.7 -5.5 -8.65 -6.15 -8.55 -7.0 -8.25 -6.65 -8.8 -7.8 -8.8 -8.9 -6.7 -9.1 -8.15 -8.65 -8.8 -9.8 -8.8 -10.45 -7.6 -11.3 -8.55 -11.55 -8.65 -12.0 -9.25 -12.2 -8.65 Q-12.5 -8.2 -12.8 -8.2 -13.15 -8.2 -13.75 -8.75 L-14.7 -9.25 -15.4 -8.8 -15.6 -8.45 -16.05 -7.95 -16.2 -7.8 -16.6 -8.05 -20.8 -0.55 -21.3 -0.3 -21.55 0.0 -21.7 0.15 Q-23.6 -1.65 -23.6 -3.9 -23.6 -6.25 -21.65 -8.05 L-22.15 -8.55 -22.3 -8.35 Q-22.75 -8.65 -22.55 -9.55 -22.4 -10.3 -22.8 -10.25 L-25.4 -10.45 -25.2 -11.7 -25.2 -11.8 -24.65 -12.9 -24.65 -13.8 Q-24.75 -15.05 -23.95 -16.3 -24.0 -16.9 -24.65 -16.75 L-24.65 -17.7 -25.1 -17.7 Q-24.7 -18.6 -25.15 -19.1 L-26.9 -19.25 -26.9 -19.35 -26.9 -19.95 -26.7 -20.2 -26.3 -20.75 Q-28.3 -23.8 -31.25 -26.55 -28.7 -26.1 -26.45 -24.8 L-26.0 -25.75 -27.1 -26.25 -30.1 -29.45 -26.9 -28.45 -26.6 -29.4 -27.35 -29.65 -28.2 -30.55 -30.9 -32.55 -26.65 -31.55 -26.3 -32.45 -26.95 -32.6 Q-28.0 -34.35 -29.45 -35.7 L-28.45 -36.95 -28.05 -36.95 -27.45 -38.1 -27.45 -39.0 -28.05 -39.0 -28.05 -39.8 -29.5 -41.7 -28.45 -42.55 Q-28.45 -44.65 -29.9 -45.2 L-29.85 -45.35 -29.4 -45.8 -30.25 -46.95 -27.6 -47.65 Q-28.15 -50.3 -30.25 -51.35 -28.9 -50.9 -27.7 -50.2 L-27.35 -51.35 -28.55 -51.85 -30.35 -53.55 -31.15 -54.6 -28.15 -53.5 -27.8 -54.5 -28.7 -54.8 Q-28.95 -55.7 -29.55 -56.75 L-28.15 -56.3 -27.9 -57.4 -29.15 -57.8 Q-28.85 -58.75 -28.3 -58.9 L-29.05 -60.05 -30.8 -61.9 Q-31.6 -62.75 -30.45 -62.85 -28.75 -62.95 -29.8 -64.15 L-28.7 -65.0 Q-30.3 -67.2 -33.7 -69.35 L-34.15 -68.95 -36.2 -71.3 -34.75 -71.3 Q-36.25 -72.9 -37.15 -75.15 L-35.9 -75.2 Q-35.35 -75.2 -34.85 -75.65 L-34.6 -75.9 -35.0 -74.75 -34.6 -74.75 -34.1 -75.8 -34.05 -75.9 -34.05 -76.8 -34.1 -76.8 Q-34.15 -77.95 -33.45 -78.1 L-22.7 -78.1 -22.35 -79.25 -17.55 -79.25 -16.7 -79.65 -15.15 -75.8 Q-15.2 -75.5 -15.4 -75.35 -15.55 -75.2 -15.75 -75.2 L-16.5 -75.35 -16.5 -74.55 -15.7 -74.35 Q-15.2 -74.35 -14.85 -74.75 L-14.35 -75.6 -12.25 -80.65 -11.25 -81.7 -11.5 -81.05 -11.1 -81.05 -10.5 -82.35 -10.5 -82.6 -9.1 -84.35 Q-8.95 -84.4 -8.8 -83.35 L-8.8 -83.3 -9.35 -82.3 -8.55 -82.3 -6.7 -83.4 -7.3 -82.3 -6.55 -82.3 -5.5 -83.75 Q-5.15 -83.25 -5.15 -83.0 -4.55 -82.3 -3.9 -82.5 L-3.9 -82.35 -3.5 -82.35 -3.9 -81.05 -3.5 -81.05 -2.9 -82.35 -2.9 -82.85 Q-2.3 -82.9 -2.05 -83.3 L-1.8 -83.0 -1.55 -83.6 Q-1.35 -84.0 -1.0 -84.0 L-0.2 -83.5 Q0.45 -82.85 0.75 -82.85 1.25 -82.85 1.55 -83.4 L2.1 -84.25 3.15 -83.05 2.75 -82.3 3.5 -82.3 5.0 -84.4 Q4.65 -83.3 4.75 -82.3 L5.5 -82.3 6.7 -83.9 7.1 -82.75 Q7.65 -82.8 7.8 -83.9 L8.6 -82.65 9.1 -83.1 8.65 -83.7 9.1 -83.75 9.5 -83.15 9.95 -83.6 Q10.45 -83.5 11.35 -82.5 L12.3 -82.5 14.5 -84.35 12.95 -84.35 Q14.1 -86.2 14.7 -88.15 L15.1 -88.0 19.4 -95.6 M-10.95 -51.6 L-11.95 -51.6 -11.95 -50.7 -10.95 -50.7 -10.95 -51.6 M-12.2 -69.9 L-11.2 -69.9 -9.05 -71.75 -10.6 -71.75 -12.2 -69.9 M11.9 -71.75 L10.45 -71.75 12.55 -69.9 13.5 -69.9 11.9 -71.75 M-0.85 -68.0 L2.5 -68.0 0.8 -65.0 -0.85 -68.0 M-2.25 -70.65 L-3.05 -70.2 0.8 -63.1 4.65 -70.2 3.85 -70.65 2.9 -68.9 -1.3 -68.9 -2.25 -70.65 M25.15 -30.3 L25.15 -29.35 26.15 -29.35 26.15 -30.3 25.15 -30.3 M25.55 -25.5 L25.15 -24.35 25.55 -24.35 26.15 -25.5 26.15 -26.4 25.15 -26.4 25.15 -25.5 25.55 -25.5 M-2.25 -44.55 L-2.25 -45.5 -3.25 -45.5 -3.25 -44.55 -2.85 -44.55 -3.25 -43.25 -2.85 -43.25 -2.25 -44.55 M-6.65 -44.5 L-5.9 -44.5 -4.4 -46.6 -5.6 -46.6 -6.65 -44.5 M-8.7 -44.5 L-7.95 -44.5 -6.45 -46.6 -7.6 -46.6 -8.7 -44.5 M-9.35 -50.7 L-9.75 -49.55 -9.35 -49.55 -8.75 -50.7 -8.75 -51.6 -9.75 -51.6 -9.75 -50.7 -9.35 -50.7 M-2.0 -58.95 L-2.45 -58.45 Q-0.5 -56.65 -0.5 -54.3 -0.5 -52.0 -2.45 -50.2 L-2.0 -49.7 Q0.1 -51.7 0.1 -54.3 0.1 -56.95 -2.0 -58.95 M-3.05 -58.2 L-3.45 -58.45 -7.9 -50.45 -7.5 -50.2 -3.05 -58.2 M25.8 -45.5 L25.8 -44.55 26.2 -44.55 25.8 -43.25 26.2 -43.25 26.8 -44.55 26.8 -45.5 25.8 -45.5 M21.85 -44.7 L24.0 -46.55 22.5 -46.55 20.85 -44.7 21.85 -44.7 M24.4 -50.35 L23.05 -52.15 22.45 -51.35 23.85 -49.55 24.4 -50.35 M27.35 -26.4 L27.35 -25.5 28.35 -25.5 28.35 -26.4 27.35 -26.4 M29.0 -44.55 L29.0 -45.5 28.0 -45.5 28.0 -44.55 28.45 -44.55 28.0 -43.25 28.45 -43.25 29.0 -44.55" fill="#ffffff" fill-rule="evenodd" stroke="none"/>
    <path d="M15.1 -88.0 L14.7 -88.25 19.15 -96.25 19.55 -96.0 19.4 -95.6 15.1 -88.0 M20.05 -95.25 L21.55 -96.95 22.6 -96.95 24.1 -95.25 23.3 -95.25 22.1 -96.3 20.85 -95.25 20.05 -95.25 M25.0 -95.25 L25.0 -95.7 25.85 -95.7 25.85 -88.5 25.0 -88.5 25.0 -95.25 M26.95 -84.15 L26.95 -85.0 27.8 -85.0 27.8 -74.3 26.95 -74.3 26.95 -84.15 M26.85 -72.15 L27.7 -71.0 27.25 -70.55 26.4 -71.7 26.85 -72.15 M29.05 -69.75 L28.65 -69.75 28.65 -70.7 29.65 -70.7 29.65 -69.75 29.05 -68.45 28.65 -68.45 29.05 -69.75 M30.85 -68.1 L31.85 -68.1 31.85 -67.15 30.85 -67.15 30.85 -68.1 M30.85 -64.2 L31.85 -64.2 31.85 -63.3 30.85 -63.3 30.85 -64.2 M31.5 -58.45 L31.9 -58.2 27.45 -50.2 27.05 -50.45 31.5 -58.45 M32.5 -58.45 L32.95 -58.95 Q35.05 -56.95 35.05 -54.3 35.05 -51.7 32.95 -49.7 L32.5 -50.2 Q34.4 -52.0 34.4 -54.3 34.4 -56.65 32.5 -58.45 M30.7 -45.65 L33.45 -44.8 33.25 -43.7 30.25 -44.65 30.4 -45.7 30.7 -45.65 M30.45 -42.95 L33.55 -41.9 33.25 -40.9 30.25 -42.0 30.45 -42.95 M31.6 -39.75 Q32.85 -39.35 34.0 -38.75 L33.7 -37.6 Q32.0 -38.55 30.05 -39.2 L30.25 -40.2 31.6 -39.75 M29.55 -32.9 L30.55 -32.9 30.55 -31.95 29.95 -30.65 29.55 -30.65 29.95 -31.95 29.55 -31.95 29.55 -32.9 M28.35 -29.9 L28.35 -29.4 28.35 -29.35 27.35 -29.35 27.35 -30.3 28.35 -30.3 28.35 -29.9 M25.45 -20.6 L26.15 -21.15 26.75 -20.4 Q27.05 -20.1 26.5 -20.1 23.65 -17.95 20.65 -17.55 L20.4 -18.5 Q23.1 -18.9 25.45 -20.6 M24.6 -17.2 L26.6 -18.55 27.15 -17.9 Q27.4 -17.55 27.0 -17.65 L26.6 -17.3 Q24.1 -15.55 21.2 -15.1 L20.9 -16.0 Q23.0 -16.4 24.6 -17.2 M24.85 -14.5 Q26.4 -15.2 27.3 -16.3 L28.0 -15.55 Q28.35 -15.15 27.85 -15.25 26.25 -13.6 23.35 -12.85 L20.6 -12.35 20.35 -13.35 Q23.05 -13.7 24.85 -14.5 M22.45 -7.5 L22.45 -2.4 Q22.45 -1.45 21.85 -0.9 21.2 -0.2 19.75 -0.2 18.3 -0.2 17.65 -0.9 17.05 -1.45 17.05 -2.4 L17.05 -7.5 18.0 -7.5 18.0 -2.45 Q18.0 -1.85 18.4 -1.45 18.85 -1.0 19.75 -1.0 20.65 -1.0 21.1 -1.45 21.45 -1.85 21.45 -2.45 L21.45 -7.5 22.45 -7.5 M15.75 -8.8 L14.25 -6.7 13.5 -6.7 14.05 -7.75 14.55 -8.8 15.75 -8.8 M13.25 -8.15 L12.25 -6.7 11.45 -6.7 11.7 -7.1 12.55 -8.8 13.7 -8.8 13.25 -8.15 M10.45 -8.0 L10.3 -7.8 Q10.0 -7.3 9.5 -7.3 L8.55 -7.9 7.75 -8.4 Q7.35 -8.4 7.2 -8.0 L6.9 -7.4 6.5 -7.9 6.95 -8.8 7.7 -9.25 Q8.15 -9.25 8.65 -8.75 9.2 -8.2 9.55 -8.2 L10.0 -8.4 10.15 -8.65 10.4 -9.25 10.85 -8.65 10.45 -8.0 M4.75 -8.3 L3.1 -6.9 2.1 -6.9 3.7 -8.75 5.25 -8.75 4.75 -8.3 M0.45 -7.7 L0.45 -6.75 -0.15 -5.5 -0.55 -5.5 -0.15 -6.75 -0.55 -6.75 -0.55 -7.7 0.45 -7.7 M-1.85 -6.5 L-1.85 -6.45 -2.35 -5.5 -2.75 -5.5 -2.35 -6.75 -2.75 -6.75 -2.75 -6.9 -2.75 -7.7 -1.75 -7.7 -1.75 -6.75 -1.85 -6.5 M-4.15 -7.55 L-5.0 -8.7 -4.55 -9.15 -3.7 -8.0 -4.15 -7.55 M-5.35 -8.65 L-4.55 -7.5 -5.05 -7.05 -5.8 -8.3 -5.5 -8.65 -5.4 -8.7 -5.35 -8.65 M-7.0 -8.25 L-8.1 -6.7 -8.9 -6.7 -7.8 -8.8 -6.65 -8.8 -7.0 -8.25 M-9.1 -8.15 L-10.15 -6.7 -10.9 -6.7 -10.45 -7.6 -9.8 -8.8 -8.65 -8.8 -9.1 -8.15 M-11.55 -8.65 L-12.05 -7.8 Q-12.4 -7.3 -12.9 -7.3 L-13.85 -7.9 Q-14.3 -8.4 -14.65 -8.4 L-15.2 -8.0 -15.45 -7.4 -15.85 -7.9 -15.6 -8.45 -15.4 -8.8 -14.7 -9.25 -13.75 -8.75 Q-13.15 -8.2 -12.8 -8.2 -12.5 -8.2 -12.2 -8.65 L-12.0 -9.25 -11.55 -8.65 M-16.2 -7.8 L-20.65 0.2 -21.05 -0.1 -20.8 -0.55 -16.6 -8.05 -16.2 -7.8 M-21.7 0.15 L-21.65 0.2 -22.15 0.7 Q-24.25 -1.3 -24.25 -3.9 -24.25 -6.2 -22.7 -8.0 L-22.3 -8.35 -22.15 -8.55 -21.65 -8.05 Q-23.6 -6.25 -23.6 -3.9 -23.6 -1.65 -21.7 0.15 M-25.2 -11.8 L-25.25 -11.75 -25.65 -11.75 -25.25 -12.9 -25.65 -12.9 -25.65 -13.8 -24.65 -13.8 -24.65 -12.9 -25.2 -11.8 M-24.65 -16.75 L-25.65 -16.75 -25.65 -17.7 -25.1 -17.7 -24.65 -17.7 -24.65 -16.75 M-26.9 -19.25 L-27.45 -18.1 -27.85 -18.1 -27.45 -19.35 -27.85 -19.35 -27.85 -20.3 -26.9 -20.3 -26.9 -19.95 -26.9 -19.35 -26.9 -19.25 M-31.25 -26.55 L-30.95 -27.4 Q-28.7 -26.9 -27.1 -26.25 L-26.0 -25.75 -26.45 -24.8 Q-28.7 -26.1 -31.25 -26.55 M-30.1 -29.45 L-30.95 -29.65 -30.8 -30.45 -28.7 -30.05 -27.35 -29.65 -26.6 -29.4 -26.9 -28.45 -30.1 -29.45 M-30.9 -32.55 L-30.65 -33.4 -26.95 -32.6 -26.3 -32.45 -26.65 -31.55 -30.9 -32.55 M-28.45 -36.95 L-28.05 -38.1 -28.45 -38.1 -28.45 -39.0 -28.05 -39.0 -27.45 -39.0 -27.45 -38.1 -28.05 -36.95 -28.45 -36.95 M-29.85 -45.35 L-30.7 -46.5 -30.25 -46.95 -29.4 -45.8 -29.85 -45.35 M-30.25 -51.35 L-31.35 -51.8 -31.15 -52.8 -28.55 -51.85 -27.35 -51.35 -27.7 -50.2 Q-28.9 -50.9 -30.25 -51.35 M-31.15 -54.6 L-30.95 -55.55 -28.7 -54.8 -27.8 -54.5 -28.15 -53.5 -31.15 -54.6 M-29.55 -56.75 L-31.15 -57.25 -30.95 -58.3 -29.15 -57.8 -27.9 -57.4 -28.15 -56.3 -29.55 -56.75 M-29.8 -64.15 Q-31.4 -66.45 -34.6 -68.55 L-34.15 -68.95 -33.7 -69.35 Q-30.3 -67.2 -28.7 -65.0 L-29.8 -64.15 M-34.6 -75.9 L-35.0 -75.9 -35.0 -76.8 -34.1 -76.8 -34.05 -76.8 -34.05 -75.9 -34.1 -75.8 -34.6 -74.75 -35.0 -74.75 -34.6 -75.9 M-33.45 -78.1 L-33.45 -78.9 -22.7 -78.9 -22.7 -78.1 -33.45 -78.1 M-22.35 -79.25 L-22.35 -79.95 -17.55 -79.95 -17.55 -79.25 -22.35 -79.25 M-16.7 -79.65 L-17.15 -80.65 -16.2 -80.65 -14.75 -76.9 -13.2 -80.65 -12.25 -80.65 -14.35 -75.6 -14.85 -74.75 Q-15.2 -74.35 -15.7 -74.35 L-16.5 -74.55 -16.5 -75.35 -15.75 -75.2 Q-15.55 -75.2 -15.4 -75.35 -15.2 -75.5 -15.15 -75.8 L-16.7 -79.65 M-11.25 -81.7 L-11.1 -82.35 -11.5 -82.35 -11.5 -83.3 -10.5 -83.3 -10.5 -82.6 -10.5 -82.35 -11.1 -81.05 -11.5 -81.05 -11.25 -81.7 M-8.8 -83.3 L-8.25 -84.4 -7.1 -84.4 -8.55 -82.3 -9.35 -82.3 -8.8 -83.3 M-6.7 -83.4 L-6.2 -84.4 -5.05 -84.4 -5.5 -83.75 -6.55 -82.3 -7.3 -82.3 -6.7 -83.4 M-3.9 -82.5 L-3.9 -83.3 -2.9 -83.3 -2.9 -82.85 -2.9 -82.35 -3.5 -81.05 -3.9 -81.05 -3.5 -82.35 -3.9 -82.35 -3.9 -82.5 M-2.05 -83.3 L-2.2 -83.5 -1.75 -84.4 Q-1.45 -84.85 -1.05 -84.85 -0.6 -84.85 -0.1 -84.35 0.5 -83.8 0.85 -83.8 L1.45 -84.25 1.65 -84.85 2.1 -84.25 1.55 -83.4 Q1.25 -82.85 0.75 -82.85 0.45 -82.85 -0.2 -83.5 L-1.0 -84.0 Q-1.35 -84.0 -1.55 -83.6 L-1.8 -83.0 -2.05 -83.3 M3.15 -83.05 L3.8 -84.4 5.0 -84.4 3.5 -82.3 2.75 -82.3 3.15 -83.05 M4.75 -82.3 L5.85 -84.4 7.0 -84.4 6.7 -83.9 5.5 -82.3 4.75 -82.3 M7.8 -83.9 L8.2 -84.3 8.65 -83.75 8.65 -83.7 9.1 -83.1 8.6 -82.65 7.8 -83.9 M9.1 -83.75 L8.65 -84.3 9.1 -84.75 9.95 -83.6 9.5 -83.15 9.1 -83.75 M11.35 -82.5 L12.95 -84.35 14.5 -84.35 12.3 -82.5 11.35 -82.5 M-2.25 -70.65 L-1.3 -68.9 2.9 -68.9 3.85 -70.65 4.65 -70.2 0.8 -63.1 -3.05 -70.2 -2.25 -70.65 M-0.85 -68.0 L0.8 -65.0 2.5 -68.0 -0.85 -68.0 M11.9 -71.75 L13.5 -69.9 12.55 -69.9 10.45 -71.75 11.9 -71.75 M-12.2 -69.9 L-10.6 -71.75 -9.05 -71.75 -11.2 -69.9 -12.2 -69.9 M-10.95 -51.6 L-10.95 -50.7 -11.95 -50.7 -11.95 -51.6 -10.95 -51.6 M-30.75 -44.85 L-31.5 -46.1 -31.1 -46.5 -30.25 -45.3 -30.75 -44.85 M24.4 -50.35 L23.85 -49.55 22.45 -51.35 23.05 -52.15 24.4 -50.35 M21.85 -44.7 L20.85 -44.7 22.5 -46.55 24.0 -46.55 21.85 -44.7 M25.8 -45.5 L26.8 -45.5 26.8 -44.55 26.2 -43.25 25.8 -43.25 26.2 -44.55 25.8 -44.55 25.8 -45.5 M-3.05 -58.2 L-7.5 -50.2 -7.9 -50.45 -3.45 -58.45 -3.05 -58.2 M-2.0 -58.95 Q0.1 -56.95 0.1 -54.3 0.1 -51.7 -2.0 -49.7 L-2.45 -50.2 Q-0.5 -52.0 -0.5 -54.3 -0.5 -56.65 -2.45 -58.45 L-2.0 -58.95 M-9.35 -50.7 L-9.75 -50.7 -9.75 -51.6 -8.75 -51.6 -8.75 -50.7 -9.35 -49.55 -9.75 -49.55 -9.35 -50.7 M-8.7 -44.5 L-7.6 -46.6 -6.45 -46.6 -7.95 -44.5 -8.7 -44.5 M-6.65 -44.5 L-5.6 -46.6 -4.4 -46.6 -5.9 -44.5 -6.65 -44.5 M-2.25 -44.55 L-2.85 -43.25 -3.25 -43.25 -2.85 -44.55 -3.25 -44.55 -3.25 -45.5 -2.25 -45.5 -2.25 -44.55 M25.55 -25.5 L25.15 -25.5 25.15 -26.4 26.15 -26.4 26.15 -25.5 25.55 -24.35 25.15 -24.35 25.55 -25.5 M25.15 -30.3 L26.15 -30.3 26.15 -29.35 25.15 -29.35 25.15 -30.3 M26.15 -71.55 L26.85 -70.5 26.35 -70.05 25.6 -71.3 26.0 -71.7 26.15 -71.55 M29.0 -44.55 L28.45 -43.25 28.0 -43.25 28.45 -44.55 28.0 -44.55 28.0 -45.5 29.0 -45.5 29.0 -44.55 M27.35 -26.4 L28.35 -26.4 28.35 -25.5 27.35 -25.5 27.35 -26.4" fill="#000000" fill-rule="evenodd" stroke="none"/>
  </g>
</svg>
