<svg xmlns:xlink="http://www.w3.org/1999/xlink" height="52.35px" width="48.75px" xmlns="http://www.w3.org/2000/svg">
  <g transform="matrix(1.0, 0.0, 0.0, 1.0, 22.45, 51.55)">
    <path d="M-0.35 -49.6 Q0.35 -50.25 1.25 -50.75 2.75 -51.55 4.3 -51.55 6.0 -51.55 7.35 -50.75 L8.75 -49.7 9.55 -48.95 9.05 -48.6 6.75 -50.3 Q5.6 -50.85 4.3 -50.85 2.9 -50.85 1.7 -50.3 0.7 -49.85 -0.5 -48.6 L-0.95 -48.95 -0.35 -49.6 M12.45 -48.6 Q16.25 -46.2 18.0 -43.75 L17.4 -43.25 16.8 -42.8 Q15.05 -45.35 11.45 -47.7 L12.45 -48.6 M23.95 -37.05 L25.7 -34.8 Q26.3 -33.55 26.3 -31.9 26.3 -30.45 25.7 -29.2 L23.95 -26.7 23.45 -27.25 25.1 -29.55 Q25.6 -30.65 25.6 -31.9 25.6 -33.4 25.1 -34.5 L23.45 -36.55 23.95 -37.05 M19.9 -22.45 L20.35 -22.2 15.4 -13.3 14.95 -13.6 19.9 -22.45 M15.15 -7.85 L16.25 -7.85 16.25 -2.45 Q16.25 -1.1 15.6 -0.45 14.8 0.35 13.45 0.35 12.1 0.35 11.35 -0.4 10.5 -1.25 10.5 -3.05 L11.6 -3.05 Q11.6 -1.55 12.15 -1.1 12.7 -0.65 13.45 -0.65 14.25 -0.65 14.7 -1.05 15.15 -1.55 15.15 -2.45 L15.15 -7.85 M10.0 -2.75 L10.0 -2.3 -1.95 -2.3 -1.95 -3.2 10.0 -3.2 10.0 -2.75 M-2.0 -3.2 L-2.0 -2.3 -13.95 -2.3 -13.95 -3.2 -2.0 -3.2 M-14.65 -1.65 L-14.45 -1.4 Q-16.45 0.8 -18.8 0.8 -20.5 0.8 -21.25 0.0 -21.9 -0.6 -21.9 -2.3 L-21.9 -8.6 -20.9 -8.6 Q-20.5 -8.5 -20.8 -8.25 L-20.8 -2.3 Q-20.8 -1.15 -20.4 -0.75 -19.85 -0.2 -18.85 -0.2 -17.0 -0.2 -15.15 -2.3 L-14.65 -1.65 M-21.95 -13.1 L-22.45 -13.35 -18.25 -22.6 -17.8 -22.4 -21.95 -13.1 M-17.05 -27.75 L-17.35 -27.1 -17.8 -27.4 -13.65 -36.6 -13.2 -36.4 -17.05 -27.75 M-12.55 -41.35 L-13.1 -42.0 -2.85 -50.5 -2.35 -49.9 -3.35 -49.05 -12.55 -41.35 M0.3 -35.2 L2.1 -37.25 3.8 -37.25 1.4 -35.2 0.3 -35.2 M5.1 -27.1 L8.7 -27.1 8.7 -26.55 5.1 -26.55 5.1 -27.1 M10.4 -28.95 Q12.2 -30.0 14.2 -30.15 11.4 -31.5 10.3 -36.1 L11.4 -36.3 Q11.95 -36.4 11.55 -36.05 12.3 -31.75 16.4 -30.4 L15.7 -29.15 Q13.35 -29.2 11.25 -28.1 L10.4 -28.95 M19.65 -37.25 L21.0 -35.1 20.25 -35.1 18.25 -37.25 19.65 -37.25" fill="#000000" fill-rule="evenodd" stroke="none"/>
    <path d="M-3.35 -49.05 L-0.35 -49.6 -0.95 -48.95 -0.5 -48.6 Q0.7 -49.85 1.7 -50.3 2.9 -50.85 4.3 -50.85 5.6 -50.85 6.75 -50.3 L9.05 -48.6 9.55 -48.95 8.75 -49.7 12.45 -48.6 11.45 -47.7 Q15.05 -45.35 16.8 -42.8 L17.4 -43.25 Q20.4 -40.95 23.1 -37.7 L23.95 -37.05 23.45 -36.55 25.1 -34.5 Q25.6 -33.4 25.6 -31.9 25.6 -30.65 25.1 -29.55 L23.45 -27.25 Q22.0 -24.35 19.9 -22.45 L14.95 -13.6 15.4 -13.3 Q15.0 -10.35 15.15 -7.85 L15.15 -2.45 Q15.15 -1.55 14.7 -1.05 14.25 -0.65 13.45 -0.65 12.7 -0.65 12.15 -1.1 11.6 -1.55 11.6 -3.05 L10.5 -3.05 10.0 -2.75 10.0 -3.2 -1.95 -3.2 -2.0 -3.2 -13.95 -3.2 -13.95 -2.3 -14.65 -1.65 -15.15 -2.3 Q-17.0 -0.2 -18.85 -0.2 -19.85 -0.2 -20.4 -0.75 -20.8 -1.15 -20.8 -2.3 L-20.8 -8.25 Q-20.5 -8.5 -20.9 -8.6 L-21.9 -8.6 -21.95 -13.1 -17.8 -22.4 -18.25 -22.6 Q-18.05 -24.9 -17.3 -27.1 L-17.05 -27.75 -13.2 -36.4 -13.65 -36.6 Q-13.05 -37.75 -13.0 -39.6 L-12.75 -41.4 -12.55 -41.35 -3.35 -49.05 M19.65 -37.25 L18.25 -37.25 20.25 -35.1 21.0 -35.1 19.65 -37.25 M10.4 -28.95 L11.25 -28.1 Q13.35 -29.2 15.7 -29.15 L16.4 -30.4 Q12.3 -31.75 11.55 -36.05 11.95 -36.4 11.4 -36.3 L10.3 -36.1 Q11.4 -31.5 14.2 -30.15 12.2 -30.0 10.4 -28.95 M5.1 -27.1 L5.1 -26.55 8.7 -26.55 8.7 -27.1 5.1 -27.1 M0.3 -35.2 L1.4 -35.2 3.8 -37.25 2.1 -37.25 0.3 -35.2" fill="#ffffff" fill-rule="evenodd" stroke="none"/>
  </g>
</svg>
