<svg xmlns:xlink="http://www.w3.org/1999/xlink" height="48.8px" width="80.8px" xmlns="http://www.w3.org/2000/svg">
  <g transform="matrix(1.0, 0.0, 0.0, 1.0, 40.4, 24.4)">
    <path d="M10.8 -18.5 L10.8 -18.0 18.0 -18.0 18.0 -10.0 19.6 -10.0 19.6 -10.5 Q23.85 -8.95 25.2 -7.35 L25.2 5.25 25.1 5.2 Q25.25 6.45 25.05 7.05 24.15 9.0 21.55 9.75 18.9 10.45 18.35 10.95 18.2 13.3 18.6 17.45 L18.0 17.45 18.0 15.6 17.2 15.6 17.2 14.0 16.4 14.0 16.4 13.2 14.8 13.2 14.8 12.4 6.0 12.4 6.0 13.2 14.0 13.2 14.0 14.0 15.6 14.0 15.6 15.6 16.4 15.6 16.4 19.25 16.2 19.6 15.6 19.6 15.6 20.3 14.6 21.15 14.5 21.2 14.0 21.2 14.0 21.5 12.95 22.0 6.0 22.0 6.0 22.15 Q4.85 21.8 3.85 21.15 1.95 19.8 1.7 18.0 L3.6 18.0 3.6 17.2 -10.25 17.2 Q-11.4 16.95 -12.15 17.2 L-13.2 17.2 -13.2 18.0 -13.15 18.0 -13.15 18.05 -14.25 19.6 -15.6 19.6 -15.6 21.05 -15.75 21.2 -16.4 21.2 -16.4 21.8 -16.65 22.0 -17.2 22.0 -17.2 22.45 -17.75 22.8 -18.8 22.8 -18.8 23.4 -19.35 23.6 -22.2 23.6 -22.8 23.35 -22.8 22.8 -23.55 22.8 -23.6 22.75 -23.6 11.6 -25.2 11.6 -25.2 17.05 -34.0 16.8 -34.0 10.0 -34.75 10.0 -34.75 2.25 -35.45 1.2 -34.0 1.2 -34.0 -0.4 -34.8 -0.4 -34.8 -2.0 -35.6 -2.0 -35.6 -2.8 -36.4 -2.8 -36.4 -3.6 -37.2 -3.6 -37.2 -4.4 -38.5 -4.4 Q-39.6 -7.25 -39.75 -12.1 L-39.75 -13.2 -38.8 -13.2 -38.8 -20.25 -38.45 -21.05 -38.35 -21.2 -38.0 -21.2 -38.0 -21.85 -37.35 -22.8 -36.4 -22.8 -36.4 -23.6 -33.2 -23.6 -33.2 -22.8 -32.15 -22.8 -31.6 -22.0 -31.6 -21.2 -31.15 -21.2 -31.05 -21.05 -30.8 -20.45 -30.8 -13.2 -29.2 -13.2 -29.2 -18.4 -26.0 -18.4 -26.0 -18.0 -2.8 -18.0 -2.8 -18.45 10.8 -18.5 M18.0 -8.4 L18.0 -7.6 19.6 -7.6 19.6 -6.8 21.2 -6.8 21.2 -6.0 22.8 -6.0 22.8 -6.8 22.0 -6.8 22.0 -7.6 20.4 -7.6 20.4 -8.4 18.0 -8.4 M26.8 -0.95 L32.1 -1.45 34.0 -1.55 34.0 -1.2 30.0 -1.2 30.0 -0.4 34.8 -0.4 34.8 -1.2 38.0 -1.2 38.0 -0.4 38.8 -0.4 38.8 2.8 38.0 2.8 38.0 3.6 36.4 3.6 36.4 4.3 36.05 4.4 33.2 4.4 33.2 5.1 26.8 5.35 26.8 -0.95 M10.8 -3.6 L5.2 -3.6 5.2 1.2 4.4 1.2 4.4 2.8 3.6 2.8 3.6 3.6 2.8 3.6 2.8 6.8 4.4 6.8 4.4 4.4 10.8 4.4 10.8 6.8 12.4 6.8 12.4 3.6 10.8 3.6 10.8 -3.6 M6.8 -2.8 L9.2 -2.8 9.2 3.6 5.2 3.6 5.2 2.8 6.0 2.8 6.0 1.2 6.8 1.2 6.8 -2.8 M-2.8 -7.6 L-2.8 -8.4 -5.2 -8.4 -5.2 -7.6 -6.8 -7.6 -6.8 -6.8 -7.6 -6.8 -7.6 -6.0 -6.0 -6.0 -6.0 -6.8 -4.4 -6.8 -4.4 -7.6 -2.8 -7.6 M-3.7 18.0 L-7.15 18.45 -8.05 18.0 -3.7 18.0 M-34.8 -5.2 L-34.8 -6.0 -36.4 -6.0 -36.4 -5.2 -35.6 -5.2 -35.6 -4.4 -34.0 -4.4 -34.0 -5.2 -34.8 -5.2 M-37.8 -2.8 L-37.2 -2.8 -37.2 -2.0 -36.4 -2.0 -36.4 -0.4 -35.6 -0.4 -35.6 1.0 -37.8 -2.8 M-38.0 -3.15 L-38.05 -3.25 -38.2 -3.6 -38.0 -3.6 -38.0 -3.15 M-30.0 4.4 L-30.0 5.2 -28.4 5.2 -28.4 4.4 -30.0 4.4 M-32.4 -6.8 L-33.2 -6.8 -33.2 -7.6 -34.8 -7.6 -34.8 -6.8 -34.0 -6.8 -34.0 -6.0 -32.4 -6.0 -32.4 -6.8 M-13.2 5.2 L-13.2 3.6 -14.8 3.6 -14.8 5.2 -15.6 5.2 -15.6 6.0 -14.0 6.0 -14.0 5.2 -13.2 5.2 M-10.0 5.2 L-10.0 3.6 -11.6 3.6 -11.6 5.2 -12.4 5.2 -12.4 6.0 -10.8 6.0 -10.8 5.2 -10.0 5.2" fill="#ffffff" fill-rule="evenodd" stroke="none"/>
    <path d="M18.0 -8.4 L20.4 -8.4 20.4 -7.6 22.0 -7.6 22.0 -6.8 22.8 -6.8 22.8 -6.0 21.2 -6.0 21.2 -6.8 19.6 -6.8 19.6 -7.6 18.0 -7.6 18.0 -8.4 M19.6 -10.5 L19.6 -10.0 18.0 -10.0 18.0 -18.0 10.8 -18.0 10.8 -18.5 10.8 -18.8 19.6 -18.8 19.6 -10.5 M-2.8 -18.45 L-2.8 -18.0 -26.0 -18.0 -26.0 -18.4 -26.0 -18.8 -2.8 -18.8 -2.8 -18.45 M-29.2 -18.4 L-29.2 -13.2 -30.8 -13.2 -30.8 -20.45 -30.8 -21.2 -31.15 -21.2 -31.6 -21.2 -31.6 -22.0 -31.6 -22.8 -32.15 -22.8 -33.2 -22.8 -33.2 -23.6 -36.4 -23.6 -36.4 -22.8 -37.35 -22.8 -38.0 -22.8 -38.0 -21.85 -38.0 -21.2 -38.35 -21.2 -38.8 -21.2 -38.8 -20.25 -38.8 -13.2 -39.75 -13.2 -40.4 -13.2 -40.4 -21.2 -39.6 -21.2 -39.6 -22.8 -38.8 -22.8 -38.8 -23.6 -37.2 -23.6 -37.2 -24.4 -32.4 -24.4 -32.4 -23.6 -30.8 -23.6 -30.8 -22.8 -30.0 -22.8 -30.0 -21.2 -29.2 -21.2 -29.2 -18.4 M-38.5 -4.4 L-37.2 -4.4 -37.2 -3.6 -36.4 -3.6 -36.4 -2.8 -35.6 -2.8 -35.6 -2.0 -34.8 -2.0 -34.8 -0.4 -34.0 -0.4 -34.0 1.2 -35.45 1.2 -35.6 1.2 -35.6 1.0 -35.6 -0.4 -36.4 -0.4 -36.4 -2.0 -37.2 -2.0 -37.2 -2.8 -37.8 -2.8 -38.0 -2.8 -38.0 -3.15 -38.0 -3.6 -38.2 -3.6 -38.8 -3.6 -38.8 -4.4 -38.5 -4.4 M-34.75 10.0 L-34.0 10.0 -34.0 16.8 -34.0 17.2 -26.0 17.2 -26.0 18.0 -35.6 18.0 -35.6 10.0 -34.75 10.0 M-25.2 17.05 L-25.2 11.6 -23.6 11.6 -23.6 22.75 -23.6 22.8 -23.55 22.8 -22.8 22.8 -22.8 23.35 -22.8 23.6 -22.2 23.6 -19.35 23.6 -18.8 23.6 -18.8 23.4 -18.8 22.8 -17.75 22.8 -17.2 22.8 -17.2 22.45 -17.2 22.0 -16.65 22.0 -16.4 22.0 -16.4 21.8 -16.4 21.2 -15.75 21.2 -15.6 21.2 -15.6 21.05 -15.6 19.6 -14.25 19.6 -14.0 19.6 -14.0 21.2 -14.8 21.2 -14.8 22.0 -15.6 22.0 -15.6 22.8 -16.4 22.8 -16.4 23.6 -18.0 23.6 -18.0 24.4 -23.6 24.4 -23.6 23.6 -24.4 23.6 -24.4 22.8 -25.2 22.8 -25.2 17.05 M-13.15 18.0 L-13.2 18.0 -13.2 17.2 -12.15 17.2 Q-11.4 16.95 -10.25 17.2 L3.6 17.2 3.6 18.0 1.7 18.0 -3.7 18.0 -8.05 18.0 -13.15 18.0 M6.0 22.15 L6.0 22.0 12.95 22.0 14.0 22.0 14.0 21.5 14.0 21.2 14.5 21.2 15.6 21.2 15.6 20.3 15.6 19.6 16.2 19.6 16.4 19.6 16.4 19.25 16.4 15.6 15.6 15.6 15.6 14.0 14.0 14.0 14.0 13.2 6.0 13.2 6.0 12.4 14.8 12.4 14.8 13.2 16.4 13.2 16.4 14.0 17.2 14.0 17.2 15.6 18.0 15.6 18.0 17.45 18.0 19.6 17.2 19.6 17.2 21.2 16.4 21.2 16.4 22.0 14.8 22.0 14.8 22.8 6.0 22.8 6.0 22.15 M25.2 5.25 L25.2 -7.35 25.2 -8.4 26.8 -8.4 26.8 -0.95 26.8 5.35 26.8 7.6 25.2 7.6 25.2 5.25 M34.0 -1.55 L34.0 -2.0 38.8 -2.0 38.8 -1.2 39.6 -1.2 39.6 -0.4 40.4 -0.4 40.4 2.8 39.6 2.8 39.6 3.6 38.8 3.6 38.8 4.4 37.2 4.4 37.2 5.2 33.2 5.2 33.2 5.1 33.2 4.4 36.05 4.4 36.4 4.4 36.4 4.3 36.4 3.6 38.0 3.6 38.0 2.8 38.8 2.8 38.8 -0.4 38.0 -0.4 38.0 -1.2 34.8 -1.2 34.8 -0.4 30.0 -0.4 30.0 -1.2 34.0 -1.2 34.0 -1.55 M8.4 -22.0 L8.4 -23.6 10.0 -23.6 10.0 -22.0 9.2 -22.0 9.2 -21.2 7.6 -21.2 7.6 -22.0 8.4 -22.0 M6.8 -22.0 L6.0 -22.0 6.0 -21.2 4.4 -21.2 4.4 -22.0 5.2 -22.0 5.2 -23.6 6.8 -23.6 6.8 -22.0 M3.6 -23.6 L3.6 -22.0 2.8 -22.0 2.8 -21.2 1.2 -21.2 1.2 -22.0 2.0 -22.0 2.0 -23.6 3.6 -23.6 M-2.0 -22.0 L-2.0 -23.6 -0.4 -23.6 -0.4 -22.0 -1.2 -22.0 -1.2 -21.2 -2.8 -21.2 -2.8 -22.0 -2.0 -22.0 M-2.8 -7.6 L-4.4 -7.6 -4.4 -6.8 -6.0 -6.8 -6.0 -6.0 -7.6 -6.0 -7.6 -6.8 -6.8 -6.8 -6.8 -7.6 -5.2 -7.6 -5.2 -8.4 -2.8 -8.4 -2.8 -7.6 M6.8 -2.8 L6.8 1.2 6.0 1.2 6.0 2.8 5.2 2.8 5.2 3.6 9.2 3.6 9.2 -2.8 6.8 -2.8 M10.8 -3.6 L10.8 3.6 12.4 3.6 12.4 6.8 10.8 6.8 10.8 4.4 4.4 4.4 4.4 6.8 2.8 6.8 2.8 3.6 3.6 3.6 3.6 2.8 4.4 2.8 4.4 1.2 5.2 1.2 5.2 -3.6 10.8 -3.6 M-34.8 -5.2 L-34.0 -5.2 -34.0 -4.4 -35.6 -4.4 -35.6 -5.2 -36.4 -5.2 -36.4 -6.0 -34.8 -6.0 -34.8 -5.2 M-32.4 -6.8 L-32.4 -6.0 -34.0 -6.0 -34.0 -6.8 -34.8 -6.8 -34.8 -7.6 -33.2 -7.6 -33.2 -6.8 -32.4 -6.8 M-30.0 4.4 L-28.4 4.4 -28.4 5.2 -30.0 5.2 -30.0 4.4 M-10.0 5.2 L-10.8 5.2 -10.8 6.0 -12.4 6.0 -12.4 5.2 -11.6 5.2 -11.6 3.6 -10.0 3.6 -10.0 5.2 M-13.2 5.2 L-14.0 5.2 -14.0 6.0 -15.6 6.0 -15.6 5.2 -14.8 5.2 -14.8 3.6 -13.2 3.6 -13.2 5.2" fill="#000000" fill-rule="evenodd" stroke="none"/>
  </g>
</svg>
