<svg xmlns:xlink="http://www.w3.org/1999/xlink" height="47.8px" width="76.05px" xmlns="http://www.w3.org/2000/svg">
  <g transform="matrix(1.0, 0.0, 0.0, 1.0, 38.0, 23.9)">
    <path d="M10.0 -18.75 L10.0 -18.3 10.85 -18.3 10.85 -18.25 17.2 -18.25 17.2 -10.3 18.0 -10.3 18.0 -10.7 18.05 -10.65 18.05 -10.25 18.85 -10.25 18.85 -10.35 Q21.5 -9.3 22.8 -8.2 L22.8 7.3 23.0 7.3 Q22.05 8.85 19.8 9.5 L17.25 10.3 17.25 9.75 16.45 9.75 16.45 16.95 16.4 16.95 16.4 9.7 15.6 9.7 15.6 16.9 8.45 16.9 8.45 16.15 7.65 16.15 7.65 17.8 7.6 17.8 7.6 16.1 6.8 16.1 6.8 17.75 6.45 17.75 6.8 18.35 6.8 21.7 6.0 21.7 6.0 22.5 2.05 22.5 2.05 21.75 1.25 21.75 1.25 16.15 0.45 16.15 0.45 17.6 0.4 17.6 0.4 16.1 -0.4 16.1 -0.4 17.55 -1.15 17.55 -1.15 16.95 -2.0 16.95 -2.0 16.9 -18.0 16.9 -18.0 17.05 -18.75 17.0 -18.75 16.15 -19.55 16.15 -19.55 17.0 -19.6 17.0 -19.6 16.1 -20.4 16.1 -20.4 17.0 -20.85 16.95 -20.4 17.75 -20.4 21.2 -20.7 21.7 -21.2 21.7 -21.2 22.3 -21.4 22.5 -25.15 22.5 -25.15 21.75 -25.95 21.75 -25.95 16.15 -26.75 16.15 -26.75 16.8 -26.8 16.8 -26.8 16.1 -27.6 16.1 -27.6 16.8 -36.35 16.5 -36.35 9.75 -37.15 9.75 -37.15 16.5 -37.2 16.5 -37.2 9.7 -37.7 9.7 -37.7 7.3 -37.2 7.3 -37.2 -8.7 -37.7 -8.7 -37.7 -10.3 -37.2 -10.3 -37.2 -18.3 -37.15 -18.3 -37.15 -10.25 -36.35 -10.25 -36.35 -18.25 -28.35 -18.25 -28.35 -18.3 -27.55 -18.3 -27.55 -18.25 -11.55 -18.25 -11.55 -18.3 -10.75 -18.3 -10.75 -18.25 -4.35 -18.25 -4.35 -18.7 10.0 -18.75 M17.25 -8.65 L16.4 -8.65 16.4 -8.7 14.8 -8.7 14.8 -7.9 15.65 -7.9 15.65 -7.85 16.4 -7.85 16.4 -7.1 17.25 -7.1 17.25 -7.05 18.0 -7.05 18.0 -6.3 18.8 -6.3 18.8 -7.05 18.85 -7.05 18.85 -6.25 19.65 -6.25 19.65 -7.05 18.85 -7.05 18.85 -7.85 18.0 -7.85 18.0 -7.9 17.25 -7.9 17.25 -8.65 M23.6 -7.4 L23.65 -7.35 23.65 5.0 23.6 5.0 23.6 -7.4 M24.45 -1.15 L27.2 -1.35 27.6 -1.4 27.6 -0.7 28.45 -0.7 28.45 -0.65 32.45 -0.65 32.45 -1.45 33.2 -1.45 Q35.05 -1.3 35.5 -0.75 36.4 0.4 36.2 1.55 36.05 2.35 34.5 3.3 L34.0 3.3 34.0 3.6 33.05 4.1 30.8 4.1 30.8 4.85 24.45 5.05 24.45 -1.15 M29.5 -1.5 L31.6 -1.5 32.45 -1.5 32.45 -1.45 31.6 -1.45 31.6 -1.5 29.5 -1.5 M-7.6 -8.7 L-7.6 -7.9 -9.2 -7.9 -9.2 -7.1 -10.0 -7.1 -10.0 -6.3 -9.2 -6.3 -9.2 -7.1 -8.35 -7.1 -8.35 -7.05 -9.15 -7.05 -9.15 -6.25 -8.35 -6.25 -8.35 -7.05 -6.75 -7.05 -6.75 -7.85 -5.15 -7.85 -5.15 -8.65 -6.0 -8.65 -6.0 -8.7 -7.6 -8.7 M-7.6 -7.85 L-7.6 -7.9 -6.75 -7.9 -6.75 -7.85 -7.6 -7.85 M8.4 -7.85 L8.4 -7.9 2.0 -7.9 2.0 0.9 2.8 0.9 2.8 -7.1 2.85 -7.1 2.85 0.95 3.65 0.95 3.65 -7.05 7.6 -7.05 7.6 3.3 2.05 3.3 2.05 2.55 1.25 2.55 1.25 3.3 1.2 3.3 1.2 2.5 0.4 2.5 0.4 3.3 -0.4 3.3 -0.4 5.7 0.4 5.7 0.4 4.1 0.45 4.1 0.45 5.75 1.25 5.75 1.25 4.15 9.2 4.15 9.2 5.7 10.0 5.7 10.0 4.15 10.05 4.15 10.05 5.75 10.85 5.75 10.85 3.35 10.0 3.35 10.0 3.3 9.25 3.3 9.25 -7.85 8.4 -7.85 M8.4 -7.05 L8.45 -7.05 8.45 3.3 8.4 3.3 8.4 -7.05 M1.2 0.9 L1.2 2.5 2.0 2.5 2.0 0.9 1.2 0.9 M2.05 0.95 L2.05 2.55 2.85 2.55 2.85 0.95 2.05 0.95 M0.4 20.7 L0.4 19.5 0.45 19.25 0.45 20.95 0.4 20.7 M1.2 22.5 L1.2 22.55 1.2 22.5 1.2 21.75 1.25 21.75 1.25 22.5 1.2 22.5 M2.0 23.3 L2.05 23.3 2.05 23.35 5.5 23.35 3.8 23.9 2.05 23.35 2.0 23.3 M8.45 17.8 L8.45 17.7 9.25 17.7 9.25 17.75 16.9 17.75 16.95 18.05 8.45 17.8 M6.4 22.5 L6.35 22.55 6.0 22.55 6.0 22.5 6.4 22.5 M-36.35 -8.65 L-37.15 -8.65 -37.15 7.35 -36.35 7.35 -36.35 -8.65 M-21.95 -7.05 L-22.75 -7.05 -22.75 4.1 -22.8 4.1 -22.8 -7.1 -23.6 -7.1 -23.6 4.1 -22.8 4.1 -22.8 4.9 -22.0 4.9 -22.0 5.7 -21.15 5.7 -21.15 5.75 -16.35 5.75 -16.35 4.95 -14.75 4.95 -14.75 4.15 -13.95 4.15 -13.95 3.35 -13.15 3.35 -13.15 2.55 -12.35 2.55 -12.35 0.95 -13.15 0.95 -13.15 2.55 -13.95 2.55 -13.95 3.35 -14.75 3.35 -14.75 4.15 -15.6 4.15 -15.6 4.1 -14.8 4.1 -14.8 3.3 -14.0 3.3 -14.0 2.5 -13.2 2.5 -13.2 0.9 -14.0 0.9 -14.0 2.5 -14.8 2.5 -14.8 3.3 -15.6 3.3 -15.6 4.1 -17.2 4.1 -17.2 4.9 -21.15 4.9 -21.15 4.15 -21.95 4.15 -21.95 -7.05 M-22.0 4.9 L-22.0 4.15 -21.95 4.15 -21.95 4.9 -22.0 4.9 M-16.35 4.9 L-16.35 4.95 -17.2 4.95 -17.2 4.9 -16.35 4.9 M-26.8 17.0 L-26.75 16.9 -26.75 21.7 -26.8 21.7 -26.8 21.95 -26.95 21.7 -26.8 21.7 -26.8 17.0 M-26.25 22.5 L-26.0 22.5 -26.0 21.75 -25.95 21.75 -25.95 22.5 -26.0 22.5 -26.0 22.75 -26.25 22.5 M-24.75 23.35 L-22.9 23.35 -23.8 23.5 -24.75 23.35 M-27.6 18.9 L-27.6 20.1 -27.6 19.5 -27.6 18.9" fill="#ffffff" fill-rule="evenodd" stroke="none"/>
    <path d="M18.0 -10.7 L18.0 -10.3 17.2 -10.3 17.2 -18.25 10.85 -18.25 10.85 -18.3 10.0 -18.3 10.0 -18.75 10.0 -19.1 18.0 -19.1 18.0 -19.05 18.85 -19.05 18.85 -10.35 18.85 -10.25 18.05 -10.25 18.05 -10.65 18.05 -18.25 18.0 -18.25 18.0 -10.7 M-4.35 -18.7 L-4.35 -18.25 -10.75 -18.25 -10.75 -18.3 -11.55 -18.3 -11.55 -18.25 -27.55 -18.25 -27.55 -18.3 -28.35 -18.3 -28.35 -18.25 -36.35 -18.25 -36.35 -10.25 -37.15 -10.25 -37.15 -18.3 -37.2 -18.3 -37.2 -10.3 -37.7 -10.3 -38.0 -10.3 -38.0 -19.1 -29.2 -19.1 -29.2 -19.05 -28.4 -19.05 -28.4 -19.1 -12.4 -19.1 -12.4 -19.05 -11.6 -19.05 -11.6 -19.1 -5.2 -19.1 -5.2 -19.05 -4.35 -19.05 -4.35 -18.7 M-37.7 -8.7 L-37.2 -8.7 -37.2 7.3 -37.7 7.3 -38.0 7.3 -38.0 -8.7 -37.7 -8.7 M-37.7 9.7 L-37.2 9.7 -37.2 16.5 -37.2 16.9 -37.15 16.9 -37.15 16.5 -37.15 9.75 -36.35 9.75 -36.35 16.5 -36.35 16.9 -29.2 16.9 -29.2 16.95 -28.35 16.95 -28.35 17.75 -37.15 17.75 -37.15 17.7 -38.0 17.7 -38.0 9.7 -37.7 9.7 M-27.6 16.8 L-27.6 16.1 -26.8 16.1 -26.8 16.8 -26.8 17.0 -26.8 21.7 -26.95 21.7 -27.6 21.7 -27.6 20.1 -27.6 18.9 -27.6 16.8 M-26.75 16.8 L-26.75 16.15 -25.95 16.15 -25.95 21.75 -25.15 21.75 -25.15 22.5 -21.4 22.5 -21.2 22.5 -21.2 22.3 -21.2 21.7 -20.7 21.7 -20.4 21.7 -20.4 21.2 -20.4 17.75 -20.4 17.0 -20.4 16.1 -19.6 16.1 -19.6 17.0 -19.6 21.75 -19.55 21.75 -19.55 17.0 -19.55 16.15 -18.75 16.15 -18.75 17.0 -18.75 23.35 -19.55 23.35 -19.55 22.55 -19.6 22.55 -19.6 23.3 -20.35 23.3 -20.35 23.35 -22.9 23.35 -24.75 23.35 -25.15 23.35 -25.15 23.3 -26.0 23.3 -26.0 22.75 -26.0 22.5 -25.95 22.5 -25.95 21.75 -26.0 21.75 -26.0 22.5 -26.25 22.5 -26.8 22.5 -26.8 21.95 -26.8 21.7 -26.75 21.7 -26.75 16.9 -26.75 16.8 M-18.0 17.05 L-18.0 16.9 -2.0 16.9 -2.0 16.95 -1.15 16.95 -1.15 17.55 -1.15 17.75 -17.15 17.75 -17.15 17.7 -18.0 17.7 -18.0 17.05 M-0.4 17.55 L-0.4 16.1 0.4 16.1 0.4 17.6 0.4 19.5 0.4 20.7 0.4 21.7 0.45 21.7 0.45 20.95 0.45 19.25 0.45 17.6 0.45 16.15 1.25 16.15 1.25 21.75 2.05 21.75 2.05 22.5 6.0 22.5 6.0 21.7 6.8 21.7 6.8 18.35 6.8 17.75 6.8 16.1 7.6 16.1 7.6 17.8 7.6 21.75 7.65 21.75 7.65 17.8 7.65 16.15 8.45 16.15 8.45 16.9 15.6 16.9 15.6 9.7 16.4 9.7 16.4 16.95 16.45 16.95 16.45 9.75 17.25 9.75 17.25 10.3 17.25 17.75 16.9 17.75 9.25 17.75 9.25 17.7 8.45 17.7 8.45 17.8 8.45 23.35 7.65 23.35 7.65 22.55 7.6 22.55 7.6 23.3 6.85 23.3 6.85 23.35 5.5 23.35 2.05 23.35 2.05 23.3 2.0 23.3 1.2 23.3 1.2 22.55 1.2 22.5 0.4 22.5 0.4 21.7 -0.4 21.7 -0.4 17.55 M23.0 7.3 L22.8 7.3 22.8 -8.2 22.8 -8.7 23.6 -8.7 23.6 -7.4 23.6 5.0 23.6 7.3 23.0 7.3 M17.25 -8.65 L17.25 -7.9 18.0 -7.9 18.0 -7.85 18.85 -7.85 18.85 -7.05 19.65 -7.05 19.65 -6.25 18.85 -6.25 18.85 -7.05 18.8 -7.05 18.8 -6.3 18.0 -6.3 18.0 -7.05 17.25 -7.05 17.25 -7.1 16.4 -7.1 16.4 -7.85 15.65 -7.85 15.65 -7.9 14.8 -7.9 14.8 -8.7 16.4 -8.7 16.4 -8.65 17.25 -8.65 M23.65 -7.35 L23.65 -8.65 24.45 -8.65 24.45 -1.15 24.45 5.05 24.45 7.35 23.65 7.35 23.65 5.0 23.65 -7.35 M27.6 -1.4 L27.6 -1.5 29.5 -1.5 31.6 -1.5 31.6 -2.3 35.6 -2.3 35.6 -2.25 36.45 -2.25 36.45 -1.45 37.25 -1.45 37.25 -0.65 38.05 -0.65 38.05 2.55 37.25 2.55 37.25 3.35 36.45 3.35 36.45 4.15 34.85 4.15 34.85 4.95 31.65 4.95 31.65 4.9 30.8 4.9 30.8 4.85 30.8 4.1 33.05 4.1 34.0 4.1 34.0 4.15 34.85 4.15 34.85 4.1 34.0 4.1 34.0 3.6 34.0 3.3 34.5 3.3 35.6 3.3 35.6 2.5 36.4 2.5 36.4 -0.7 35.6 -0.7 35.6 -1.45 33.2 -1.45 32.45 -1.45 32.45 -0.65 28.45 -0.65 28.45 -0.7 27.6 -0.7 27.6 -1.4 M9.25 -23.85 L9.25 -22.25 8.45 -22.25 8.45 -21.45 7.65 -21.45 7.65 -22.25 8.45 -22.25 8.45 -23.85 9.25 -23.85 M7.6 -22.3 L7.6 -23.9 8.4 -23.9 8.4 -22.3 7.6 -22.3 7.6 -21.5 6.8 -21.5 6.8 -22.3 7.6 -22.3 M6.05 -22.25 L5.25 -22.25 5.25 -21.45 4.45 -21.45 4.45 -22.25 5.25 -22.25 5.25 -23.85 6.05 -23.85 6.05 -22.25 M5.2 -23.9 L5.2 -22.3 4.4 -22.3 4.4 -21.5 3.6 -21.5 3.6 -22.3 4.4 -22.3 4.4 -23.9 5.2 -23.9 M2.05 -23.85 L2.05 -22.25 1.25 -22.25 1.25 -21.45 0.45 -21.45 0.45 -22.25 1.25 -22.25 1.25 -23.85 2.05 -23.85 M1.2 -22.3 L0.4 -22.3 0.4 -21.5 -0.4 -21.5 -0.4 -22.3 0.4 -22.3 0.4 -23.9 1.2 -23.9 1.2 -22.3 M-1.15 -23.85 L-1.15 -22.25 -1.95 -22.25 -1.95 -21.45 -2.75 -21.45 -2.75 -22.25 -1.95 -22.25 -1.95 -23.85 -1.15 -23.85 M-2.8 -22.3 L-2.8 -23.9 -2.0 -23.9 -2.0 -22.3 -2.8 -22.3 -2.8 -21.5 -3.6 -21.5 -3.6 -22.3 -2.8 -22.3 M-7.6 -7.85 L-6.75 -7.85 -6.75 -7.9 -7.6 -7.9 -7.6 -7.85 M-7.6 -8.7 L-6.0 -8.7 -6.0 -8.65 -5.15 -8.65 -5.15 -7.85 -6.75 -7.85 -6.75 -7.05 -8.35 -7.05 -8.35 -6.25 -9.15 -6.25 -9.15 -7.05 -8.35 -7.05 -8.35 -7.1 -9.2 -7.1 -9.2 -6.3 -10.0 -6.3 -10.0 -7.1 -9.2 -7.1 -9.2 -7.9 -7.6 -7.9 -7.6 -8.7 M8.4 -7.85 L9.25 -7.85 9.25 3.3 10.0 3.3 10.0 3.35 10.85 3.35 10.85 5.75 10.05 5.75 10.05 4.15 10.0 4.15 10.0 5.7 9.2 5.7 9.2 4.15 1.25 4.15 1.25 5.75 0.45 5.75 0.45 4.1 0.4 4.1 0.4 5.7 -0.4 5.7 -0.4 3.3 0.4 3.3 0.4 2.5 1.2 2.5 1.2 3.3 1.25 3.3 1.25 2.55 2.05 2.55 2.05 3.3 7.6 3.3 7.6 -7.05 3.65 -7.05 3.65 0.95 2.85 0.95 2.85 -7.1 2.8 -7.1 2.8 0.9 2.0 0.9 2.0 -7.9 8.4 -7.9 8.4 -7.85 M8.4 -7.05 L8.4 3.3 8.45 3.3 8.45 -7.05 8.4 -7.05 M2.05 0.95 L2.85 0.95 2.85 2.55 2.05 2.55 2.05 0.95 M1.2 0.9 L2.0 0.9 2.0 2.5 1.2 2.5 1.2 0.9 M1.2 21.75 L1.2 22.5 1.25 22.5 1.25 21.75 1.2 21.75 M6.4 22.5 L6.0 22.5 6.0 22.55 6.35 22.55 6.8 22.55 6.8 22.5 6.4 22.5 M32.45 -1.5 L31.6 -1.5 31.6 -1.45 32.45 -1.45 32.45 -1.5 M36.4 -1.45 L36.4 -0.7 36.45 -0.7 36.45 -1.45 36.4 -1.45 M37.2 -0.65 L37.2 2.5 36.4 2.5 36.4 3.3 35.6 3.3 35.6 3.35 36.45 3.35 36.45 2.55 37.25 2.55 37.25 -0.65 37.2 -0.65 M-21.95 -7.05 L-21.95 4.15 -21.15 4.15 -21.15 4.9 -17.2 4.9 -17.2 4.1 -15.6 4.1 -15.6 3.3 -14.8 3.3 -14.8 2.5 -14.0 2.5 -14.0 0.9 -13.2 0.9 -13.2 2.5 -14.0 2.5 -14.0 3.3 -14.8 3.3 -14.8 4.1 -15.6 4.1 -15.6 4.15 -14.75 4.15 -14.75 3.35 -13.95 3.35 -13.95 2.55 -13.15 2.55 -13.15 0.95 -12.35 0.95 -12.35 2.55 -13.15 2.55 -13.15 3.35 -13.95 3.35 -13.95 4.15 -14.75 4.15 -14.75 4.95 -16.35 4.95 -16.35 5.75 -21.15 5.75 -21.15 5.7 -22.0 5.7 -22.0 4.9 -22.8 4.9 -22.8 4.1 -23.6 4.1 -23.6 -7.1 -22.8 -7.1 -22.8 4.1 -22.75 4.1 -22.75 -7.05 -21.95 -7.05 M-36.35 -8.65 L-36.35 7.35 -37.15 7.35 -37.15 -8.65 -36.35 -8.65 M-16.35 4.9 L-17.2 4.9 -17.2 4.95 -16.35 4.95 -16.35 4.9 M-22.0 4.9 L-21.95 4.9 -21.95 4.15 -22.0 4.15 -22.0 4.9 M-21.2 22.55 L-20.4 22.55 -20.4 22.5 -21.2 22.5 -21.2 22.55" fill="#000000" fill-rule="evenodd" stroke="none"/>
  </g>
</svg>
