<svg xmlns:xlink="http://www.w3.org/1999/xlink" height="54.65px" width="74.3px" xmlns="http://www.w3.org/2000/svg">
  <g transform="matrix(1.0, 0.0, 0.0, 1.0, 40.65, 54.3)">
    <path d="M-28.7 -30.4 L-28.7 -18.45 -40.65 -18.45 -40.65 -30.4 -28.7 -30.4 M-39.4 -29.2 L-39.4 -19.65 -29.95 -19.65 -29.95 -29.2 -39.4 -29.2 M-13.45 -35.4 Q-15.0 -37.15 -15.75 -38.7 -16.55 -40.4 -16.55 -42.3 -16.55 -44.5 -15.75 -46.2 -15.05 -47.65 -13.45 -49.15 L-12.75 -48.5 -14.95 -45.75 Q-15.65 -44.3 -15.65 -42.3 -15.65 -40.65 -14.95 -39.15 -14.3 -37.75 -12.75 -36.05 L-13.45 -35.4 M23.1 -48.5 L23.8 -49.15 Q25.4 -47.65 26.1 -46.2 26.9 -44.5 26.9 -42.3 26.9 -40.4 26.1 -38.7 25.35 -37.15 23.8 -35.4 L23.1 -36.05 Q24.65 -37.75 25.3 -39.15 26.0 -40.65 26.0 -42.3 26.0 -44.3 25.3 -45.75 24.65 -47.05 23.1 -48.5 M-20.7 -31.15 L-20.0 -30.5 Q-21.55 -29.05 -22.2 -27.75 -22.9 -26.3 -22.9 -24.3 -22.9 -22.65 -22.2 -21.15 -21.55 -19.75 -20.0 -18.05 L-20.7 -17.4 Q-22.25 -19.15 -23.0 -20.7 -23.8 -22.4 -23.8 -24.3 -23.8 -26.5 -23.0 -28.2 -22.3 -29.65 -20.7 -31.15 M0.9 -24.15 L-1.85 -24.15 -1.85 -24.8 0.75 -24.8 6.45 -24.8 6.45 -16.5 5.8 -16.5 5.8 -24.15 0.9 -24.15 M11.15 -49.0 L18.05 -49.0 18.05 -38.0 19.5 -38.0 19.5 -34.55 18.25 -34.55 18.25 -36.8 9.5 -36.8 9.5 -34.55 8.25 -34.55 8.25 -38.0 9.3 -38.0 Q11.15 -40.65 11.15 -44.7 L11.15 -49.0 M12.4 -47.8 L12.4 -44.7 Q12.4 -40.55 10.75 -38.0 L16.8 -38.0 16.8 -47.8 12.4 -47.8 M2.0 -49.45 L3.85 -46.55 2.85 -46.55 0.15 -49.45 2.0 -49.45 M21.85 -29.55 L23.3 -29.55 23.3 -22.0 Q23.3 -20.65 22.4 -19.75 21.4 -18.75 19.3 -18.75 17.15 -18.75 16.15 -19.75 15.3 -20.65 15.3 -22.0 L15.3 -29.55 16.7 -29.55 16.7 -28.4 16.7 -22.05 Q16.7 -21.2 17.3 -20.65 17.95 -19.95 19.3 -19.95 20.6 -19.95 21.3 -20.65 21.85 -21.2 21.85 -22.05 L21.85 -29.55 M26.9 -10.4 Q28.55 -10.4 29.7 -9.2 30.9 -8.0 30.9 -6.4 30.9 -4.75 29.7 -3.55 28.55 -2.4 26.9 -2.4 25.3 -2.4 24.1 -3.55 22.9 -4.75 22.9 -6.4 22.9 -8.0 24.1 -9.2 25.3 -10.4 26.9 -10.4 M22.9 -10.4 Q21.3 -8.75 21.3 -6.4 21.3 -4.0 22.9 -2.4 24.55 -0.75 26.9 -0.75 29.3 -0.75 30.9 -2.4 32.55 -4.0 32.55 -6.4 32.55 -8.75 30.9 -10.4 29.3 -12.0 26.9 -12.0 24.55 -12.0 22.9 -10.4 M24.05 -6.4 Q24.05 -5.15 24.85 -4.3 25.65 -3.5 26.9 -3.5 28.15 -3.5 28.95 -4.3 29.8 -5.15 29.8 -6.4 29.8 -7.65 28.95 -8.45 28.15 -9.25 26.9 -9.25 25.65 -9.25 24.85 -8.45 24.05 -7.65 24.05 -6.4 M26.9 -13.15 Q29.65 -13.15 31.65 -11.15 33.65 -9.15 33.65 -6.4 33.65 -3.65 31.65 -1.65 29.65 0.35 26.9 0.35 24.15 0.35 22.15 -1.65 20.15 -3.65 20.15 -6.4 20.15 -9.15 22.15 -11.15 24.15 -13.15 26.9 -13.15 M2.9 -6.8 L10.55 -6.8 10.55 -14.45 11.2 -14.45 11.2 -6.15 2.9 -6.15 2.9 -6.8 M-12.25 -26.7 L-10.9 -27.9 Q-5.85 -24.7 -3.55 -21.45 L-5.1 -20.15 Q-7.5 -23.55 -12.25 -26.7 M-18.85 -7.0 L-7.2 -7.0 -7.2 -5.8 -18.85 -5.8 -18.85 -7.0 M-3.95 -12.0 L2.2 -6.25 -3.95 -0.5 -4.6 -1.15 0.95 -6.25 -4.6 -11.4 -3.95 -12.0 M-33.85 -11.15 Q-31.85 -13.15 -29.1 -13.15 -26.35 -13.15 -24.35 -11.15 -22.35 -9.15 -22.35 -6.4 -22.35 -3.65 -24.35 -1.65 -26.35 0.35 -29.1 0.35 -31.85 0.35 -33.85 -1.65 -35.85 -3.65 -35.85 -6.4 -35.85 -9.15 -33.85 -11.15 M-29.1 -10.4 Q-27.45 -10.4 -26.3 -9.2 -25.1 -8.0 -25.1 -6.4 -25.1 -4.75 -26.3 -3.55 -27.45 -2.4 -29.1 -2.4 -30.7 -2.4 -31.9 -3.55 -33.1 -4.75 -33.1 -6.4 -33.1 -8.0 -31.9 -9.2 -30.7 -10.4 -29.1 -10.4 M-33.1 -10.4 Q-34.7 -8.75 -34.7 -6.4 -34.7 -4.0 -33.1 -2.4 -31.45 -0.75 -29.1 -0.75 -26.7 -0.75 -25.1 -2.4 -23.45 -4.0 -23.45 -6.4 -23.45 -8.75 -25.1 -10.4 -26.7 -12.0 -29.1 -12.0 -31.45 -12.0 -33.1 -10.4 M-29.1 -3.5 Q-27.85 -3.5 -27.05 -4.3 -26.2 -5.15 -26.2 -6.4 -26.2 -7.65 -27.05 -8.45 -27.85 -9.25 -29.1 -9.25 -30.35 -9.25 -31.15 -8.45 -31.95 -7.65 -31.95 -6.4 -31.95 -5.15 -31.15 -4.3 -30.35 -3.5 -29.1 -3.5" fill="#000000" fill-rule="evenodd" stroke="none"/>
    <path d="M-39.4 -29.2 L-29.95 -29.2 -29.95 -19.65 -39.4 -19.65 -39.4 -29.2 M-13.45 -49.15 Q-7.95 -52.15 -5.3 -53.1 -2.65 -54.05 4.35 -54.25 11.35 -54.5 16.05 -52.8 20.8 -51.1 23.1 -48.5 24.65 -47.05 25.3 -45.75 26.0 -44.3 26.0 -42.3 26.0 -40.65 25.3 -39.15 24.65 -37.75 23.1 -36.05 L23.8 -35.4 Q19.45 -32.35 14.25 -31.4 -0.05 -29.05 -13.45 -35.4 L-12.75 -36.05 Q-14.3 -37.75 -14.95 -39.15 -15.65 -40.65 -15.65 -42.3 -15.65 -44.3 -14.95 -45.75 L-12.75 -48.5 -13.45 -49.15 M-20.0 -18.05 Q-21.55 -19.75 -22.2 -21.15 -22.9 -22.65 -22.9 -24.3 -22.9 -26.3 -22.2 -27.75 -21.55 -29.05 -20.0 -30.5 L-20.7 -31.15 Q-17.5 -33.0 -13.1 -33.15 -8.25 -33.35 -4.35 -31.05 -0.55 -28.85 0.75 -24.8 L-1.85 -24.8 -1.85 -24.15 0.9 -24.15 Q2.0 -20.35 -0.5 -17.5 -3.55 -13.9 -7.5 -12.3 -12.3 -10.45 -16.1 -13.15 -19.6 -15.65 -20.0 -18.05 M2.0 -49.45 L0.15 -49.45 2.85 -46.55 3.85 -46.55 2.0 -49.45 M12.4 -47.8 L16.8 -47.8 16.8 -38.0 10.75 -38.0 Q12.4 -40.55 12.4 -44.7 L12.4 -47.8 M11.15 -49.0 L11.15 -44.7 Q11.15 -40.65 9.3 -38.0 L8.25 -38.0 8.25 -34.55 9.5 -34.55 9.5 -36.8 18.25 -36.8 18.25 -34.55 19.5 -34.55 19.5 -38.0 18.05 -38.0 18.05 -49.0 11.15 -49.0 M16.7 -28.4 L21.85 -29.55 21.85 -22.05 Q21.85 -21.2 21.3 -20.65 20.6 -19.95 19.3 -19.95 17.95 -19.95 17.3 -20.65 16.7 -21.2 16.7 -22.05 L16.7 -28.4 M24.05 -6.4 Q24.05 -7.65 24.85 -8.45 25.65 -9.25 26.9 -9.25 28.15 -9.25 28.95 -8.45 29.8 -7.65 29.8 -6.4 29.8 -5.15 28.95 -4.3 28.15 -3.5 26.9 -3.5 25.65 -3.5 24.85 -4.3 24.05 -5.15 24.05 -6.4 M22.9 -10.4 Q24.55 -12.0 26.9 -12.0 29.3 -12.0 30.9 -10.4 32.55 -8.75 32.55 -6.4 32.55 -4.0 30.9 -2.4 29.3 -0.75 26.9 -0.75 24.55 -0.75 22.9 -2.4 21.3 -4.0 21.3 -6.4 21.3 -8.75 22.9 -10.4 M26.9 -10.4 Q25.3 -10.4 24.1 -9.2 22.9 -8.0 22.9 -6.4 22.9 -4.75 24.1 -3.55 25.3 -2.4 26.9 -2.4 28.55 -2.4 29.7 -3.55 30.9 -4.75 30.9 -6.4 30.9 -8.0 29.7 -9.2 28.55 -10.4 26.9 -10.4 M-12.25 -26.7 Q-7.5 -23.55 -5.1 -20.15 L-3.55 -21.45 Q-5.85 -24.7 -10.9 -27.9 L-12.25 -26.7 M-29.1 -3.5 Q-30.35 -3.5 -31.15 -4.3 -31.95 -5.15 -31.95 -6.4 -31.95 -7.65 -31.15 -8.45 -30.35 -9.25 -29.1 -9.25 -27.85 -9.25 -27.05 -8.45 -26.2 -7.65 -26.2 -6.4 -26.2 -5.15 -27.05 -4.3 -27.85 -3.5 -29.1 -3.5 M-33.1 -10.4 Q-31.45 -12.0 -29.1 -12.0 -26.7 -12.0 -25.1 -10.4 -23.45 -8.75 -23.45 -6.4 -23.45 -4.0 -25.1 -2.4 -26.7 -0.75 -29.1 -0.75 -31.45 -0.75 -33.1 -2.4 -34.7 -4.0 -34.7 -6.4 -34.7 -8.75 -33.1 -10.4 M-29.1 -10.4 Q-30.7 -10.4 -31.9 -9.2 -33.1 -8.0 -33.1 -6.4 -33.1 -4.75 -31.9 -3.55 -30.7 -2.4 -29.1 -2.4 -27.45 -2.4 -26.3 -3.55 -25.1 -4.75 -25.1 -6.4 -25.1 -8.0 -26.3 -9.2 -27.45 -10.4 -29.1 -10.4" fill="#ffffff" fill-rule="evenodd" stroke="none"/>
  </g>
</svg>
