<svg xmlns:xlink="http://www.w3.org/1999/xlink" height="63.65px" width="68.45px" xmlns="http://www.w3.org/2000/svg">
  <g transform="matrix(1.0, 0.0, 0.0, 1.0, 34.05, 29.0)">
    <path d="M-17.3 -23.05 L-16.55 -22.35 Q-20.0 -19.15 -19.95 -15.1 -20.0 -11.0 -16.55 -7.85 L-17.05 -7.35 -17.35 -7.05 Q-21.1 -10.55 -21.1 -15.1 -21.1 -19.7 -17.35 -23.1 L-17.3 -23.05 M-10.4 -1.95 L-9.55 -1.2 Q-11.4 0.55 -12.2 2.1 -13.05 3.8 -13.0 6.15 -13.05 8.1 -12.2 9.9 -11.4 11.5 -9.55 13.55 L-10.0 13.9 -10.4 14.3 Q-12.25 12.25 -13.1 10.4 -14.05 8.4 -14.05 6.15 -14.05 3.55 -13.1 1.55 -12.3 -0.2 -10.4 -1.95 M19.45 14.3 L18.6 13.55 Q20.45 11.5 21.2 9.9 22.05 8.1 22.05 6.15 22.05 3.8 21.2 2.1 20.45 0.55 18.6 -1.2 L19.45 -1.95 Q21.35 -0.2 22.2 1.55 23.1 3.55 23.1 6.15 23.1 8.4 22.2 10.4 L19.65 14.05 19.5 14.25 19.45 14.3 M21.35 -7.3 L20.8 -7.85 Q24.15 -11.0 24.15 -15.1 24.15 -19.0 21.05 -22.1 L20.8 -22.35 20.95 -22.45 21.65 -23.1 Q25.3 -19.7 25.3 -15.1 25.3 -10.55 21.65 -7.05 L21.35 -7.3 M12.75 -20.35 L15.55 -23.55 18.2 -23.55 14.45 -20.35 12.75 -20.35 M8.05 -10.05 L8.05 -5.95 6.55 -5.95 6.55 -8.6 -3.8 -8.6 -3.8 -5.95 -5.25 -5.95 -5.25 -10.05 -4.0 -10.05 Q-1.85 -13.2 -1.85 -17.95 L-1.85 -23.05 6.35 -23.05 6.35 -10.05 8.05 -10.05 M4.85 -21.6 L-0.35 -21.6 -0.35 -17.95 Q-0.35 -13.05 -2.3 -10.05 L4.85 -10.05 4.85 -21.6 M34.2 -20.85 Q32.7 -12.5 28.05 -8.35 L26.9 -9.95 Q31.15 -13.5 32.65 -22.05 L34.2 -21.25 Q34.65 -21.0 34.2 -20.85 M14.8 23.2 Q20.75 26.95 23.45 30.8 L21.65 32.35 Q18.8 28.3 13.2 24.6 L14.8 23.2 M-32.45 -19.4 Q-26.45 -15.6 -23.75 -11.75 L-25.6 -10.2 Q-28.45 -14.25 -34.05 -17.95 L-32.45 -19.4 M-12.65 -23.55 L-10.45 -20.15 -11.65 -20.15 -14.85 -23.55 -12.65 -23.55 M-1.65 20.7 L-9.5 34.65 -10.25 34.25 -2.4 20.2 -1.65 20.7" fill="#000000" fill-rule="evenodd" stroke="none"/>
    <path d="M-17.3 -23.05 Q-15.7 -24.25 -14.2 -25.05 -9.6 -27.7 -3.85 -28.55 1.85 -29.4 7.5 -28.55 13.15 -27.7 16.2 -26.05 19.2 -24.4 20.95 -22.45 L20.8 -22.35 21.05 -22.1 Q24.15 -19.0 24.15 -15.1 24.15 -11.0 20.8 -7.85 L21.35 -7.3 18.35 -1.3 18.6 -1.2 Q20.45 0.55 21.2 2.1 22.05 3.8 22.05 6.15 22.05 8.1 21.2 9.9 20.45 11.5 18.6 13.55 L19.45 14.3 16.95 16.35 Q14.35 18.4 6.35 19.75 -1.7 21.05 -10.0 13.9 L-9.55 13.55 Q-11.4 11.5 -12.2 9.9 -13.05 8.1 -13.0 6.15 -13.05 3.8 -12.2 2.1 -11.4 0.55 -9.55 -1.2 L-10.4 -1.95 -17.05 -7.35 -16.55 -7.85 Q-20.0 -11.0 -19.95 -15.1 -20.0 -19.15 -16.55 -22.35 L-17.3 -23.05 M8.05 -10.05 L6.35 -10.05 6.35 -23.05 -1.85 -23.05 -1.85 -17.95 Q-1.85 -13.2 -4.0 -10.05 L-5.25 -10.05 -5.25 -5.95 -3.8 -5.95 -3.8 -8.6 6.55 -8.6 6.55 -5.95 8.05 -5.95 8.05 -10.05 M12.75 -20.35 L14.45 -20.35 18.2 -23.55 15.55 -23.55 12.75 -20.35 M4.85 -21.6 L4.85 -10.05 -2.3 -10.05 Q-0.35 -13.05 -0.35 -17.95 L-0.35 -21.6 4.85 -21.6 M-12.65 -23.55 L-14.85 -23.55 -11.65 -20.15 -10.45 -20.15 -12.65 -23.55" fill="#ffffff" fill-rule="evenodd" stroke="none"/>
  </g>
</svg>
