<svg xmlns:xlink="http://www.w3.org/1999/xlink" height="52.85px" width="70.4px" xmlns="http://www.w3.org/2000/svg">
  <g transform="matrix(1.0, 0.0, 0.0, 1.0, 31.7, 52.4)">
    <path d="M-17.6 -35.35 L-16.9 -36.05 Q-19.8 -38.7 -19.8 -42.15 L-19.6 -43.9 -19.05 -45.4 Q-18.35 -46.95 -16.9 -48.3 L-17.6 -48.95 Q-13.0 -51.3 -9.1 -51.9 L0.5 -52.3 9.85 -51.15 Q12.85 -50.55 15.4 -48.95 L14.7 -48.3 Q17.55 -45.6 17.55 -42.15 17.55 -38.7 14.7 -36.05 11.5 -35.2 11.0 -32.35 L3.05 -32.35 3.0 -32.35 -12.95 -32.35 -12.95 -31.65 3.0 -31.65 3.05 -31.65 19.0 -31.65 19.0 -32.35 20.3 -32.3 20.3 -16.4 21.5 -16.4 Q21.25 -14.55 19.45 -14.35 L3.5 -14.35 3.5 -13.8 2.6 -13.8 Q-0.4 -14.6 -3.6 -14.6 L-12.55 -14.35 -28.5 -14.35 -28.5 -13.65 Q-31.05 -13.8 -30.2 -16.4 L-30.2 -32.3 -28.95 -32.35 -28.95 -31.65 -13.0 -31.65 -13.0 -32.35 -13.8 -32.35 Q-13.55 -35.05 -17.6 -35.35 M-13.6 -49.35 L-15.45 -49.35 -12.75 -46.45 -11.75 -46.45 -13.6 -49.35 M-3.2 -43.95 L-3.2 -44.6 -3.2 -47.7 1.2 -47.7 1.2 -37.9 -4.85 -37.9 Q-3.35 -40.25 -3.2 -43.95 M-4.45 -48.9 L-4.45 -44.6 -4.45 -43.95 Q-4.6 -40.35 -6.3 -37.9 L-7.35 -37.9 -7.35 -34.45 -6.1 -34.45 -6.1 -36.7 2.65 -36.7 2.65 -34.45 3.9 -34.45 3.9 -37.9 2.45 -37.9 2.45 -48.9 -4.45 -48.9 M9.3 -46.6 L12.5 -49.35 10.25 -49.35 7.9 -46.6 9.3 -46.6 M-8.9 -10.3 L-8.5 -10.6 Q-7.0 -11.9 -4.9 -11.9 -2.65 -11.9 -1.1 -10.45 L-0.9 -10.3 Q0.75 -8.65 0.75 -6.3 0.75 -3.9 -0.9 -2.3 -2.5 -0.65 -4.9 -0.65 -7.25 -0.65 -8.9 -2.3 -10.5 -3.9 -10.5 -6.3 -10.5 -8.65 -8.9 -10.3 M-2.1 -9.1 Q-3.25 -10.3 -4.9 -10.3 -6.5 -10.3 -7.7 -9.1 -8.9 -7.9 -8.9 -6.3 -8.9 -4.65 -7.7 -3.45 -6.5 -2.3 -4.9 -2.3 -3.25 -2.3 -2.1 -3.45 -0.9 -4.65 -0.9 -6.3 -0.9 -7.9 -2.1 -9.1 M-6.95 -4.2 Q-7.75 -5.05 -7.75 -6.3 -7.75 -7.55 -6.95 -8.35 -6.15 -9.15 -4.9 -9.15 -3.65 -9.15 -2.85 -8.35 -2.0 -7.55 -2.0 -6.3 -2.0 -5.05 -2.85 -4.2 -3.65 -3.4 -4.9 -3.4 -6.15 -3.4 -6.95 -4.2" fill="#ffffff" fill-rule="evenodd" stroke="none"/>
    <path d="M-13.6 -49.35 L-11.75 -46.45 -12.75 -46.45 -15.45 -49.35 -13.6 -49.35 M-17.6 -48.95 L-16.9 -48.3 Q-18.35 -46.95 -19.05 -45.4 L-19.6 -43.9 -19.8 -42.15 Q-19.8 -38.7 -16.9 -36.05 L-17.6 -35.35 Q-20.75 -38.3 -20.75 -42.15 L-20.55 -43.9 -20.1 -45.4 Q-19.35 -47.35 -17.6 -48.95 M-13.8 -32.35 L-13.0 -32.35 -13.0 -31.65 -28.95 -31.65 -28.95 -32.35 -13.8 -32.35 M-30.2 -32.3 L-30.2 -16.4 -31.45 -16.4 -31.45 -32.3 -30.2 -32.3 M-28.5 -13.65 L-28.5 -14.35 -12.55 -14.35 -12.55 -13.8 -13.45 -13.8 -13.45 -13.65 -28.5 -13.65 M2.6 -13.8 L3.5 -13.8 3.5 -14.35 19.45 -14.35 19.45 -13.65 9.8 -13.65 9.8 -13.8 8.9 -13.8 8.9 -13.65 2.6 -13.65 2.6 -13.8 M21.5 -16.4 L20.3 -16.4 20.3 -32.3 21.55 -32.3 21.55 -16.4 21.5 -16.4 M19.0 -32.35 L19.0 -31.65 3.05 -31.65 3.05 -32.35 11.0 -32.35 19.0 -32.35 M3.0 -31.65 L-12.95 -31.65 -12.95 -32.35 3.0 -32.35 3.0 -31.65 M14.7 -36.05 Q17.55 -38.7 17.55 -42.15 17.55 -45.6 14.7 -48.3 L15.4 -48.95 Q18.5 -46.05 18.5 -42.15 18.5 -38.3 15.4 -35.35 L14.7 -36.05 M-27.7 -43.95 Q-24.65 -41.65 -23.0 -39.35 L-24.55 -38.05 Q-26.7 -41.1 -30.8 -44.0 L-31.7 -44.6 -30.35 -45.8 -27.7 -43.95 M-4.45 -48.9 L2.45 -48.9 2.45 -37.9 3.9 -37.9 3.9 -34.45 2.65 -34.45 2.65 -36.7 -6.1 -36.7 -6.1 -34.45 -7.35 -34.45 -7.35 -37.9 -6.3 -37.9 Q-4.6 -40.35 -4.45 -43.95 L-4.45 -44.6 -4.45 -48.9 M-3.2 -43.95 Q-3.35 -40.25 -4.85 -37.9 L1.2 -37.9 1.2 -47.7 -3.2 -47.7 -3.2 -44.6 -3.2 -43.95 M26.05 -47.05 Q24.8 -39.95 20.85 -36.45 L19.85 -37.8 Q23.45 -40.8 24.7 -48.05 L26.05 -47.4 Q26.45 -47.15 26.05 -47.05 M9.3 -46.6 L7.9 -46.6 10.25 -49.35 12.5 -49.35 9.3 -46.6 M38.7 -24.7 L38.7 -24.05 22.8 -24.05 22.8 -24.7 38.7 -24.7 M-2.1 -9.1 Q-0.9 -7.9 -0.9 -6.3 -0.9 -4.65 -2.1 -3.45 -3.25 -2.3 -4.9 -2.3 -6.5 -2.3 -7.7 -3.45 -8.9 -4.65 -8.9 -6.3 -8.9 -7.9 -7.7 -9.1 -6.5 -10.3 -4.9 -10.3 -3.25 -10.3 -2.1 -9.1 M-8.9 -10.3 Q-10.5 -8.65 -10.5 -6.3 -10.5 -3.9 -8.9 -2.3 -7.25 -0.65 -4.9 -0.65 -2.5 -0.65 -0.9 -2.3 0.75 -3.9 0.75 -6.3 0.75 -8.65 -0.9 -10.3 L-1.1 -10.45 Q-2.65 -11.9 -4.9 -11.9 -7.0 -11.9 -8.5 -10.6 L-8.9 -10.3 M-9.65 -11.05 Q-7.65 -13.05 -4.9 -13.05 -2.15 -13.05 -0.15 -11.05 L0.4 -10.45 Q1.85 -8.65 1.85 -6.3 1.85 -3.55 -0.15 -1.55 -2.15 0.45 -4.9 0.45 -7.65 0.45 -9.65 -1.55 -11.6 -3.5 -11.65 -6.1 L-11.65 -6.45 Q-11.6 -8.85 -10.0 -10.65 L-9.65 -11.05 M-6.95 -4.2 Q-6.15 -3.4 -4.9 -3.4 -3.65 -3.4 -2.85 -4.2 -2.0 -5.05 -2.0 -6.3 -2.0 -7.55 -2.85 -8.35 -3.65 -9.15 -4.9 -9.15 -6.15 -9.15 -6.95 -8.35 -7.75 -7.55 -7.75 -6.3 -7.75 -5.05 -6.95 -4.2" fill="#000000" fill-rule="evenodd" stroke="none"/>
  </g>
</svg>
