<svg xmlns:xlink="http://www.w3.org/1999/xlink" height="119.45px" width="119.6px" xmlns="http://www.w3.org/2000/svg">
  <g transform="matrix(1.0, 0.0, 0.0, 1.0, 61.8, 118.8)">
    <path d="M50.3 -79.95 L50.3 -79.9 50.25 -79.9 50.15 -79.95 49.3 -79.15 Q52.6 -77.0 54.25 -74.65 L55.25 -75.45 55.25 -75.5 55.25 -75.55 55.3 -75.55 55.35 -75.6 55.4 -75.55 55.45 -75.5 55.7 -69.85 55.7 -69.8 55.6 -69.8 55.55 -69.8 55.15 -69.45 56.65 -67.55 Q57.15 -66.55 57.15 -65.15 57.15 -64.0 56.65 -62.95 56.25 -62.05 55.25 -60.9 L55.25 -60.8 55.2 -60.8 55.15 -60.8 52.0 -62.2 52.0 -62.25 52.0 -62.3 52.0 -62.35 52.0 -62.4 52.1 -62.4 52.15 -62.35 53.1 -63.15 Q51.55 -65.4 48.0 -67.6 L47.15 -66.85 47.2 -66.85 47.15 -66.75 47.05 -66.75 45.95 -70.3 45.95 -70.35 46.0 -70.4 46.0 -70.75 35.0 -70.75 35.0 -70.4 35.05 -70.35 35.1 -70.35 35.1 -70.3 35.05 -70.3 35.0 -70.25 33.8 -70.0 33.75 -70.0 33.7 -70.05 33.7 -70.1 32.2 -70.1 30.6 -68.15 31.45 -68.15 31.5 -68.25 31.55 -68.25 31.65 -68.25 31.65 -68.2 31.65 -68.15 26.2 -61.35 25.35 -60.35 25.35 -60.3 21.45 -56.45 21.35 -56.45 21.3 -56.45 21.3 -56.55 21.3 -56.6 20.85 -57.05 11.4 -49.2 11.9 -48.7 11.9 -48.75 11.95 -48.7 12.0 -48.65 11.95 -48.6 9.35 -44.7 9.35 -44.65 9.3 -44.65 9.25 -44.7 9.25 -44.75 9.25 -44.8 8.85 -45.15 Q7.7 -44.1 7.25 -43.15 6.7 -41.95 6.7 -40.45 6.7 -39.1 7.25 -37.95 7.75 -36.85 8.85 -35.65 L9.25 -36.1 9.25 -36.2 9.3 -36.2 9.35 -36.25 9.35 -36.2 11.35 -32.85 11.4 -32.8 11.35 -32.75 11.3 -32.75 11.25 -32.75 10.85 -32.4 12.35 -30.55 Q12.8 -29.5 12.8 -28.15 L12.35 -25.95 10.85 -23.85 11.25 -23.4 11.3 -23.4 11.35 -23.4 11.4 -23.35 11.35 -23.3 8.45 -19.25 8.45 -19.2 Q8.35 -19.2 8.35 -19.25 L8.35 -19.3 8.35 -19.35 7.25 -19.85 Q6.45 -16.95 5.1 -15.3 3.75 -13.75 1.8 -12.7 L2.8 -11.95 2.85 -11.95 2.9 -11.95 2.95 -11.9 2.9 -11.85 -1.5 -3.55 -1.55 -3.5 -1.6 -3.5 -1.65 -3.55 -1.65 -3.6 -1.6 -3.6 -2.3 -4.3 Q-2.9 -2.85 -3.8 -1.95 -4.55 -1.15 -5.75 -0.6 L-5.75 -6.95 Q-5.4 -7.1 -5.8 -7.25 L-6.5 -7.3 -6.55 -7.25 -6.6 -7.25 -6.65 -7.25 -6.7 -7.3 -7.1 -12.7 -7.1 -12.75 -7.05 -12.8 -6.95 -12.8 -6.95 -12.75 -6.95 -12.7 -6.95 -12.6 -6.35 -11.8 Q-3.6 -14.25 -2.8 -19.1 -2.5 -19.2 -2.8 -19.4 L-3.6 -19.75 -3.7 -19.7 -3.7 -19.75 -3.75 -19.8 -3.9 -23.85 -3.9 -23.9 -3.85 -23.95 -3.8 -23.95 -3.8 -23.9 -3.75 -23.85 -3.75 -23.75 -3.35 -23.4 Q-1.2 -25.45 -1.2 -28.1 -1.2 -30.8 -3.35 -32.75 L-3.8 -32.4 -3.75 -32.3 -3.8 -32.25 -3.8 -32.2 -3.9 -32.25 -3.9 -32.3 -4.95 -37.6 -4.95 -37.65 -4.9 -37.65 -4.9 -37.7 -4.85 -37.65 -3.8 -38.45 Q-5.4 -40.7 -8.9 -42.9 L-9.9 -42.55 -9.75 -42.15 -9.75 -42.05 -9.8 -42.05 -9.85 -42.05 -9.9 -42.05 -12.3 -48.6 -12.3 -48.65 -12.3 -48.7 -12.25 -48.75 -12.2 -48.75 -12.15 -48.7 -11.8 -49.2 -21.15 -57.05 -21.7 -56.65 -21.6 -56.55 -21.55 -56.45 -21.6 -56.45 -21.6 -56.4 -21.65 -56.4 -21.75 -56.45 -26.45 -62.25 -26.45 -62.3 -26.45 -62.35 -26.4 -62.4 -26.35 -62.35 -25.35 -63.15 Q-26.95 -65.4 -30.45 -67.6 L-31.3 -66.85 -31.25 -66.8 -31.3 -66.75 -31.35 -66.75 -33.6 -67.1 -33.65 -67.15 -33.65 -67.2 -33.65 -67.25 -33.6 -67.25 -33.55 -67.3 -33.45 -67.25 -33.1 -67.5 Q-34.1 -68.5 -35.15 -69.15 -36.4 -69.85 -37.95 -69.85 -39.35 -69.85 -40.75 -69.15 L-42.7 -67.55 -42.7 -67.5 -42.7 -67.45 -42.7 -67.4 -42.8 -67.4 -46.25 -67.4 -46.25 -67.5 -47.5 -67.5 -48.8 -63.15 -48.75 -63.1 -48.75 -63.05 -48.75 -62.95 -48.85 -62.95 -50.7 -62.95 -50.8 -62.95 -50.8 -63.05 -50.8 -63.1 -50.7 -63.15 -49.05 -67.5 -50.35 -67.5 -51.65 -63.15 -51.6 -63.1 -51.55 -63.05 -51.6 -63.0 -51.65 -62.95 -60.75 -61.2 -60.8 -61.2 -60.8 -61.25 -60.8 -61.35 -60.75 -61.35 -60.55 -61.4 Q-58.7 -62.65 -57.35 -64.4 -56.25 -65.9 -55.35 -68.35 -54.9 -68.55 -55.2 -68.7 L-56.25 -69.15 -56.35 -69.15 -56.4 -69.15 -56.45 -69.15 -56.45 -69.25 -54.8 -73.55 -54.75 -73.6 -54.7 -73.6 -54.65 -73.6 -54.6 -73.55 -54.6 -73.5 -54.3 -73.25 -49.7 -81.4 -50.05 -81.65 -50.1 -81.6 -50.15 -81.6 -50.2 -81.7 -50.2 -81.75 -47.1 -86.45 -47.0 -86.5 -46.95 -86.45 -46.9 -86.45 -46.95 -86.35 -46.35 -85.45 Q-43.65 -87.7 -43.1 -93.65 L-42.9 -93.7 -43.0 -93.85 -43.9 -94.05 -44.0 -94.0 -44.05 -94.05 -44.05 -94.1 -43.65 -97.3 -43.65 -97.35 -43.55 -97.35 -43.55 -97.3 -43.5 -97.3 -43.25 -97.3 -43.25 -97.35 -43.2 -97.35 -43.15 -97.35 -41.3 -97.35 -41.25 -97.3 -41.0 -97.3 -40.95 -97.35 -40.9 -97.35 -40.85 -97.35 -40.85 -97.3 -40.4 -94.25 -40.4 -94.15 -40.45 -94.15 -40.5 -94.15 -40.55 -94.2 -41.3 -94.05 -41.3 -93.85 -41.3 -93.8 Q-41.0 -87.95 -37.65 -85.55 L-37.15 -86.6 -37.15 -86.65 -37.15 -86.7 -37.1 -86.75 -37.05 -86.7 -32.45 -82.5 -32.4 -82.45 -32.45 -82.4 -32.45 -82.35 -32.5 -82.35 -32.55 -82.35 -32.6 -82.45 -34.1 -82.45 -31.9 -80.5 -31.0 -80.5 -31.0 -80.55 -30.95 -80.6 -30.9 -80.6 -27.5 -80.05 -27.45 -80.05 -27.4 -79.95 -27.45 -79.95 -27.45 -79.9 -27.5 -79.9 -27.6 -79.9 -28.4 -79.15 Q-25.15 -77.0 -23.5 -74.65 L-22.45 -75.5 -22.45 -75.55 -22.4 -75.6 -12.25 -73.5 -12.25 -73.45 -12.2 -73.4 -12.2 -73.35 -11.5 -73.0 -8.35 -79.95 -5.2 -73.0 -4.4 -73.35 -4.4 -73.45 -4.35 -73.5 -1.05 -74.9 -1.0 -74.9 -0.95 -74.85 -0.95 -74.8 -0.95 -74.75 -1.0 -74.75 -1.0 -74.7 -1.0 -73.9 6.3 -73.9 6.3 -74.7 6.3 -74.75 6.25 -74.75 6.25 -74.8 6.25 -74.85 6.3 -74.9 6.35 -74.9 9.85 -73.5 9.9 -73.45 9.9 -73.35 10.6 -73.0 13.75 -79.95 16.9 -73.0 17.7 -73.35 17.7 -73.4 17.7 -73.45 17.75 -73.5 23.15 -74.55 23.2 -74.5 23.25 -74.45 23.2 -74.4 24.2 -73.6 Q26.2 -74.9 27.6 -76.75 28.7 -78.25 29.6 -80.7 30.05 -80.9 29.75 -81.05 L28.7 -81.5 28.65 -81.5 28.6 -81.5 28.5 -81.5 28.5 -81.55 28.5 -81.6 33.7 -86.85 33.75 -86.9 33.8 -86.85 33.85 -86.8 33.8 -86.75 34.8 -85.95 Q36.75 -87.25 38.2 -89.1 39.3 -90.55 40.2 -93.05 L40.5 -93.2 40.35 -93.4 39.25 -93.85 39.2 -93.8 39.1 -93.85 35.9 -97.2 35.9 -97.3 35.9 -97.35 35.95 -97.35 36.0 -97.35 36.4 -97.35 38.25 -97.35 38.3 -97.3 38.55 -97.3 38.6 -97.35 38.65 -97.35 41.95 -95.5 42.0 -95.45 41.95 -95.4 41.95 -95.35 41.9 -95.35 41.9 -84.5 42.75 -84.5 42.75 -95.3 42.7 -95.35 42.7 -95.45 42.7 -95.5 42.75 -95.5 42.8 -95.45 45.7 -92.35 45.7 -92.3 45.7 -92.25 45.6 -92.2 45.55 -92.25 44.7 -91.5 Q48.0 -89.35 49.65 -87.0 L50.6 -86.9 50.65 -87.8 50.65 -87.85 50.7 -87.9 50.7 -87.95 50.8 -87.9 50.8 -87.85 50.3 -79.95 M25.25 -69.85 L24.8 -69.45 26.3 -67.55 Q26.8 -66.55 26.8 -65.15 26.8 -64.0 26.3 -62.95 25.9 -62.0 24.8 -60.85 L25.2 -60.45 26.05 -61.45 26.55 -62.1 26.85 -62.65 Q27.45 -63.85 27.45 -65.15 27.45 -66.65 26.85 -67.85 26.4 -68.8 25.25 -69.85 M9.9 -67.85 L9.9 -67.05 14.55 -67.05 Q15.4 -67.05 15.95 -66.55 L16.4 -65.6 9.9 -65.6 9.9 -64.8 16.4 -64.8 Q16.4 -64.25 15.95 -63.8 15.4 -63.3 14.55 -63.3 L9.9 -63.3 9.9 -62.5 14.55 -62.5 Q15.8 -62.5 16.6 -63.3 17.35 -64.05 17.35 -65.15 17.35 -66.4 16.6 -67.15 15.85 -67.85 14.55 -67.85 L9.9 -67.85 M1.55 -67.05 L6.2 -67.05 6.2 -67.85 1.55 -67.85 Q0.35 -67.85 -0.5 -67.05 -1.2 -66.3 -1.2 -65.2 -1.2 -63.95 -0.5 -63.2 0.25 -62.5 1.55 -62.5 L6.2 -62.5 6.2 -63.3 1.55 -63.3 Q0.65 -63.3 0.15 -63.8 L-0.3 -64.8 6.2 -64.8 6.2 -65.6 -0.3 -65.6 0.15 -66.55 Q0.65 -67.05 1.55 -67.05 M19.85 -61.25 L20.05 -61.85 Q20.25 -62.05 20.6 -62.05 L21.15 -61.85 21.4 -61.25 21.15 -60.7 20.6 -60.5 Q20.25 -60.55 20.05 -60.7 L19.85 -61.25 M21.7 -61.25 L21.4 -62.05 20.6 -62.35 19.85 -62.05 Q19.55 -61.75 19.55 -61.25 19.55 -60.8 19.85 -60.5 20.15 -60.25 20.6 -60.2 L21.4 -60.5 21.7 -61.25 M38.9 -83.1 L38.9 -72.15 39.75 -72.15 39.75 -83.1 38.9 -83.1 M-40.1 -83.1 L-40.95 -83.1 -40.95 -72.15 -40.1 -72.15 -40.1 -83.1 M-21.65 -67.85 Q-22.2 -66.65 -22.2 -65.15 -22.2 -63.85 -21.65 -62.65 L-20.0 -60.35 -19.55 -60.85 Q-20.6 -62.0 -21.05 -62.95 -21.55 -64.0 -21.55 -65.15 -21.55 -66.55 -21.05 -67.55 L-19.55 -69.45 -20.0 -69.85 -21.65 -67.85 M-5.3 -61.25 L-5.55 -62.05 Q-5.9 -62.35 -6.35 -62.35 L-7.15 -62.05 -7.45 -61.25 -7.15 -60.5 -6.35 -60.2 Q-5.9 -60.25 -5.55 -60.5 -5.3 -60.8 -5.3 -61.25 M-5.8 -61.85 Q-5.55 -61.65 -5.55 -61.25 L-5.8 -60.7 -6.35 -60.5 -6.9 -60.7 -7.15 -61.25 -6.9 -61.85 -6.35 -62.05 -5.8 -61.85" fill="#ffffff" fill-rule="evenodd" stroke="none"/>
    <path d="M55.3 -75.55 L55.25 -75.55 55.25 -75.5 55.25 -75.45 54.25 -74.65 Q52.6 -77.0 49.3 -79.15 L50.15 -79.95 50.25 -79.9 50.3 -79.9 50.3 -79.95 Q53.7 -77.8 55.3 -75.55 M50.7 -87.9 L50.65 -87.85 50.65 -87.8 49.65 -87.0 Q48.0 -89.35 44.7 -91.5 L45.55 -92.25 45.6 -92.2 45.7 -92.25 Q49.1 -90.15 50.7 -87.9 M42.7 -95.45 L42.7 -95.35 42.75 -95.3 42.75 -84.5 41.9 -84.5 41.9 -95.35 41.95 -95.35 41.95 -95.4 42.0 -95.45 42.7 -95.45 M38.65 -97.35 L38.6 -97.35 38.55 -97.3 38.3 -97.3 38.25 -97.35 38.6 -98.45 38.2 -98.45 38.2 -99.4 39.2 -99.4 39.2 -98.45 38.65 -97.35 M36.4 -97.35 L36.0 -97.35 36.4 -98.45 35.95 -98.45 35.95 -99.4 36.95 -99.4 36.95 -98.45 36.4 -97.35 M39.2 -93.8 L39.25 -93.85 40.35 -93.4 40.5 -93.2 40.2 -93.05 Q39.3 -90.55 38.2 -89.1 36.75 -87.25 34.8 -85.95 L33.8 -86.75 33.85 -86.8 Q35.75 -87.85 37.05 -89.4 38.35 -91.0 39.2 -93.8 M28.6 -81.5 L28.65 -81.5 28.7 -81.5 29.75 -81.05 Q30.05 -80.9 29.6 -80.7 28.7 -78.25 27.6 -76.75 26.2 -74.9 24.2 -73.6 L23.2 -74.4 23.25 -74.45 Q25.15 -75.5 26.45 -77.05 27.75 -78.65 28.6 -81.5 M17.75 -73.5 L17.7 -73.45 17.7 -73.4 17.7 -73.35 16.9 -73.0 13.75 -79.95 10.6 -73.0 9.9 -73.35 9.9 -73.45 9.85 -73.5 13.75 -82.05 17.75 -73.5 M6.25 -74.8 L6.25 -74.75 6.3 -74.75 6.3 -74.7 6.3 -73.9 -1.0 -73.9 -1.0 -74.7 -1.0 -74.75 -0.95 -74.75 -0.95 -74.8 2.2 -74.8 2.2 -81.4 3.05 -81.4 3.05 -74.8 6.25 -74.8 M-4.35 -73.5 L-4.4 -73.45 -4.4 -73.35 -5.2 -73.0 -8.35 -79.95 -11.5 -73.0 -12.2 -73.35 -12.2 -73.4 -12.25 -73.45 -12.25 -73.5 -8.35 -82.05 -4.35 -73.5 M-22.45 -75.55 L-22.45 -75.5 -23.5 -74.65 Q-25.15 -77.0 -28.4 -79.15 L-27.6 -79.9 -27.5 -79.9 -27.45 -79.9 -27.45 -79.95 Q-24.05 -77.8 -22.45 -75.55 M-30.95 -80.6 L-31.0 -80.55 -31.0 -80.5 -31.9 -80.5 -34.1 -82.45 -32.6 -82.45 -32.55 -82.35 -32.5 -82.35 -32.45 -82.35 -30.95 -80.6 M-37.15 -86.7 L-37.15 -86.65 -37.15 -86.6 -37.65 -85.55 Q-41.0 -87.95 -41.3 -93.8 L-41.3 -93.85 -41.3 -94.05 -40.55 -94.2 -40.5 -94.15 Q-40.1 -88.8 -37.15 -86.7 M-40.9 -97.35 L-40.95 -97.35 -41.0 -97.3 -41.25 -97.3 -41.3 -97.35 -40.95 -98.45 -41.35 -98.45 -41.35 -99.4 -40.4 -99.4 -40.4 -98.45 -40.9 -97.35 M-43.15 -97.35 L-43.2 -97.35 -43.25 -97.35 -43.25 -97.3 -43.5 -97.3 -43.55 -97.3 -43.55 -97.35 -43.2 -98.45 -43.6 -98.45 -43.6 -99.4 -42.6 -99.4 -42.6 -98.45 -43.15 -97.35 M-44.0 -94.0 L-43.9 -94.05 -43.0 -93.85 -42.9 -93.7 -43.1 -93.65 Q-43.65 -87.7 -46.35 -85.45 L-46.95 -86.35 -46.9 -86.45 -46.95 -86.45 Q-44.55 -88.55 -44.0 -94.0 M-50.15 -81.6 L-50.1 -81.6 -50.05 -81.65 -49.7 -81.4 -54.3 -73.25 -54.6 -73.5 -54.6 -73.55 -54.65 -73.6 -50.15 -81.6 M-56.35 -69.15 L-56.25 -69.15 -55.2 -68.7 Q-54.9 -68.55 -55.35 -68.35 -56.25 -65.9 -57.35 -64.4 -58.7 -62.65 -60.55 -61.4 L-60.75 -61.35 -60.8 -61.35 -61.8 -62.1 Q-59.85 -63.15 -58.5 -64.7 -57.2 -66.3 -56.35 -69.15 M-51.55 -63.05 L-51.6 -63.1 -51.65 -63.15 -50.35 -67.5 -49.05 -67.5 -50.7 -63.15 -50.8 -63.1 -50.8 -63.05 -51.55 -63.05 M-48.75 -63.05 L-48.75 -63.1 -48.8 -63.15 -47.5 -67.5 -46.25 -67.5 -46.25 -67.4 -47.85 -63.05 -48.75 -63.05 M-42.7 -67.45 L-42.7 -67.5 -42.7 -67.55 -40.75 -69.15 Q-39.35 -69.85 -37.95 -69.85 -36.4 -69.85 -35.15 -69.15 -34.1 -68.5 -33.1 -67.5 L-33.45 -67.25 -33.55 -67.3 -33.6 -67.25 -33.65 -67.25 -35.7 -68.75 -37.95 -69.25 Q-39.25 -69.25 -40.35 -68.75 L-42.35 -67.2 -42.7 -67.45 M-31.3 -66.75 L-31.25 -66.8 -31.3 -66.85 -30.45 -67.6 Q-26.95 -65.4 -25.35 -63.15 L-26.35 -62.35 -26.4 -62.4 -26.45 -62.35 Q-28.1 -64.7 -31.3 -66.75 M-21.6 -56.45 L-21.55 -56.45 -21.6 -56.55 -21.15 -57.05 -11.8 -49.2 -12.15 -48.7 -12.2 -48.75 -12.25 -48.75 -12.3 -48.7 -21.6 -56.45 M-9.75 -42.05 L-9.75 -42.15 -8.9 -42.9 Q-5.4 -40.7 -3.8 -38.45 L-4.85 -37.65 -4.9 -37.7 -4.9 -37.65 Q-6.6 -40.0 -9.75 -42.05 M-3.8 -32.25 L-3.75 -32.3 -3.8 -32.4 -3.35 -32.75 Q-1.2 -30.8 -1.2 -28.1 -1.2 -25.45 -3.35 -23.4 L-3.75 -23.75 -3.75 -23.85 -3.8 -23.9 Q-1.85 -25.75 -1.85 -28.1 -1.85 -30.45 -3.8 -32.25 M-3.7 -19.7 L-3.6 -19.75 -2.8 -19.4 Q-2.5 -19.2 -2.8 -19.1 -3.6 -14.25 -6.35 -11.8 L-6.95 -12.6 -6.95 -12.7 -6.95 -12.75 Q-4.55 -14.85 -3.7 -19.7 M-6.6 -7.25 L-6.55 -7.25 -6.5 -7.3 -5.8 -7.25 Q-5.4 -7.1 -5.75 -6.95 L-5.75 -0.6 Q-4.55 -1.15 -3.8 -1.95 -2.9 -2.85 -2.3 -4.3 L-1.6 -3.6 -1.65 -3.6 -1.65 -3.55 -1.6 -3.5 Q-2.3 -2.05 -3.3 -1.1 -4.4 -0.05 -5.9 0.55 L-6.1 0.65 -6.8 -0.05 -6.6 -0.2 -6.6 -7.25 M2.9 -11.95 L2.85 -11.95 2.8 -11.95 1.8 -12.7 Q3.75 -13.75 5.1 -15.3 6.45 -16.95 7.25 -19.85 L8.35 -19.35 8.35 -19.3 8.35 -19.25 Q8.35 -19.2 8.45 -19.2 L8.45 -19.25 Q8.65 -19.1 8.25 -19.0 7.35 -16.5 6.25 -15.05 4.85 -13.2 2.9 -11.95 M11.35 -23.4 L11.3 -23.4 11.25 -23.4 10.85 -23.85 12.35 -25.95 12.8 -28.15 Q12.8 -29.5 12.35 -30.55 L10.85 -32.4 11.25 -32.75 11.3 -32.75 11.35 -32.75 12.9 -30.8 Q13.45 -29.65 13.45 -28.15 13.45 -26.8 12.9 -25.6 L11.35 -23.4 M9.3 -36.2 L9.25 -36.2 9.25 -36.1 8.85 -35.65 Q7.75 -36.85 7.25 -37.95 6.7 -39.1 6.7 -40.45 6.7 -41.95 7.25 -43.15 7.7 -44.1 8.85 -45.15 L9.25 -44.8 9.25 -44.75 9.25 -44.7 7.8 -42.85 Q7.35 -41.85 7.35 -40.45 7.35 -39.35 7.8 -38.25 8.25 -37.35 9.3 -36.2 M11.95 -48.7 L11.9 -48.75 11.9 -48.7 11.4 -49.2 20.85 -57.05 21.3 -56.45 11.95 -48.7 M31.65 -68.25 L31.55 -68.25 31.5 -68.25 31.45 -68.15 30.6 -68.15 32.2 -70.1 33.7 -70.1 33.7 -70.05 31.65 -68.25 M35.1 -70.3 L35.1 -70.35 35.05 -70.35 35.0 -70.4 35.0 -70.75 46.0 -70.75 46.0 -70.4 45.95 -70.35 45.95 -70.3 35.1 -70.3 M47.15 -66.75 L47.2 -66.85 47.15 -66.85 48.0 -67.6 Q51.55 -65.4 53.1 -63.15 L52.15 -62.35 52.1 -62.4 52.0 -62.4 52.0 -62.35 Q50.35 -64.7 47.15 -66.75 M55.25 -60.8 L55.25 -60.9 Q56.25 -62.05 56.65 -62.95 57.15 -64.0 57.15 -65.15 57.15 -66.55 56.65 -67.55 L55.15 -69.45 55.55 -69.8 55.6 -69.8 55.7 -69.8 Q56.75 -68.8 57.2 -67.85 57.8 -66.65 57.8 -65.15 57.8 -63.85 57.2 -62.65 56.7 -61.6 55.6 -60.35 L55.25 -60.8 M41.9 -118.2 L32.5 -110.4 32.05 -110.95 41.45 -118.8 41.9 -118.2 M27.35 -105.85 L17.95 -98.05 17.45 -98.6 26.9 -106.45 27.35 -105.85 M31.4 -109.6 L28.1 -109.6 28.1 -110.1 31.4 -110.1 31.4 -109.6 M24.1 -118.2 L14.7 -110.4 14.2 -110.95 23.65 -118.8 24.1 -118.2 M4.75 -97.95 L4.3 -98.25 8.9 -106.4 9.3 -106.1 4.75 -97.95 M10.3 -110.1 L13.6 -110.1 13.6 -109.6 10.3 -109.6 10.3 -110.1 M7.25 -93.9 L6.3 -93.7 6.2 -93.45 6.3 -93.2 7.3 -93.05 Q8.15 -93.05 8.45 -92.75 L8.55 -92.55 8.45 -92.3 7.65 -92.1 6.45 -92.4 Q5.5 -92.25 5.05 -91.8 L4.75 -91.15 Q4.75 -90.75 5.05 -90.45 L6.7 -90.15 7.7 -89.95 7.8 -89.7 7.7 -89.4 7.05 -89.2 5.85 -89.4 Q4.1 -89.1 3.45 -88.45 3.15 -88.2 3.15 -87.85 3.15 -87.55 3.35 -87.35 3.5 -87.2 4.05 -87.1 L5.65 -86.9 6.8 -86.45 7.1 -85.75 Q7.1 -85.3 6.75 -84.95 6.3 -84.55 5.25 -84.5 L3.95 -84.75 4.15 -85.5 5.4 -85.25 6.15 -85.4 6.2 -85.7 6.1 -85.95 5.55 -86.1 3.9 -86.35 Q3.05 -86.55 2.75 -86.85 2.35 -87.25 2.35 -87.8 2.35 -88.5 2.7 -88.85 3.35 -89.5 4.75 -89.85 3.9 -90.35 3.9 -91.25 3.9 -91.75 4.25 -92.1 4.75 -92.55 5.75 -92.85 5.4 -93.1 5.4 -93.5 5.4 -93.95 5.55 -94.15 6.05 -94.65 7.05 -94.7 L7.25 -93.9 M1.55 -67.05 Q0.65 -67.05 0.15 -66.55 L-0.3 -65.6 6.2 -65.6 6.2 -64.8 -0.3 -64.8 0.15 -63.8 Q0.65 -63.3 1.55 -63.3 L6.2 -63.3 6.2 -62.5 1.55 -62.5 Q0.25 -62.5 -0.5 -63.2 -1.2 -63.95 -1.2 -65.2 -1.2 -66.3 -0.5 -67.05 0.35 -67.85 1.55 -67.85 L6.2 -67.85 6.2 -67.05 1.55 -67.05 M9.9 -67.85 L14.55 -67.85 Q15.85 -67.85 16.6 -67.15 17.35 -66.4 17.35 -65.15 17.35 -64.05 16.6 -63.3 15.8 -62.5 14.55 -62.5 L9.9 -62.5 9.9 -63.3 14.55 -63.3 Q15.4 -63.3 15.95 -63.8 16.4 -64.25 16.4 -64.8 L9.9 -64.8 9.9 -65.6 16.4 -65.6 15.95 -66.55 Q15.4 -67.05 14.55 -67.05 L9.9 -67.05 9.9 -67.85 M25.25 -69.85 Q26.4 -68.8 26.85 -67.85 27.45 -66.65 27.45 -65.15 27.45 -63.85 26.85 -62.65 L26.55 -62.1 26.05 -61.45 25.2 -60.45 24.8 -60.85 Q25.9 -62.0 26.3 -62.95 26.8 -64.0 26.8 -65.15 26.8 -66.55 26.3 -67.55 L24.8 -69.45 25.25 -69.85 M38.9 -83.1 L39.75 -83.1 39.75 -72.15 38.9 -72.15 38.9 -83.1 M21.7 -61.25 L21.4 -60.5 20.6 -60.2 Q20.15 -60.25 19.85 -60.5 19.55 -60.8 19.55 -61.25 19.55 -61.75 19.85 -62.05 L20.6 -62.35 21.4 -62.05 21.7 -61.25 M19.85 -61.25 L20.05 -60.7 Q20.25 -60.55 20.6 -60.5 L21.15 -60.7 21.4 -61.25 21.15 -61.85 20.6 -62.05 Q20.25 -62.05 20.05 -61.85 L19.85 -61.25 M-15.2 -109.6 L-18.5 -109.6 -18.5 -110.1 -15.2 -110.1 -15.2 -109.6 M-13.3 -106.45 L-3.9 -98.6 -4.35 -98.05 -13.8 -105.85 -13.3 -106.45 M-19.6 -110.4 L-29.0 -118.2 -28.5 -118.8 -19.15 -110.95 -19.6 -110.4 M-40.1 -83.1 L-40.1 -72.15 -40.95 -72.15 -40.95 -83.1 -40.1 -83.1 M-21.65 -67.85 L-20.0 -69.85 -19.55 -69.45 -21.05 -67.55 Q-21.55 -66.55 -21.55 -65.15 -21.55 -64.0 -21.05 -62.95 -20.6 -62.0 -19.55 -60.85 L-20.0 -60.35 -21.65 -62.65 Q-22.2 -63.85 -22.2 -65.15 -22.2 -66.65 -21.65 -67.85 M-5.8 -61.85 L-6.35 -62.05 -6.9 -61.85 -7.15 -61.25 -6.9 -60.7 -6.35 -60.5 -5.8 -60.7 -5.55 -61.25 Q-5.55 -61.65 -5.8 -61.85 M-5.3 -61.25 Q-5.3 -60.8 -5.55 -60.5 -5.9 -60.25 -6.35 -60.2 L-7.15 -60.5 -7.45 -61.25 -7.15 -62.05 -6.35 -62.35 Q-5.9 -62.35 -5.55 -62.05 L-5.3 -61.25" fill="#000000" fill-rule="evenodd" stroke="none"/>
  </g>
</svg>
