<svg xmlns:xlink="http://www.w3.org/1999/xlink" height="55.75px" width="85.15px" xmlns="http://www.w3.org/2000/svg">
  <g transform="matrix(1.0, 0.0, 0.0, 1.0, 42.25, 55.8)">
    <path d="M32.85 -37.45 L33.05 -37.65 Q33.4 -38.0 33.4 -38.5 L33.15 -39.15 32.4 -39.55 29.75 -40.55 Q29.2 -40.85 28.95 -41.3 28.7 -41.75 28.7 -42.4 28.7 -43.0 28.95 -43.45 L29.7 -44.25 29.4 -44.5 28.9 -45.15 Q28.75 -45.5 28.75 -46.05 28.75 -46.6 28.9 -47.0 L29.4 -47.75 30.35 -48.3 31.75 -48.5 33.15 -48.3 34.15 -47.75 34.55 -47.15 34.9 -46.35 33.4 -46.35 33.0 -46.9 32.5 -47.2 31.75 -47.3 31.05 -47.2 30.55 -46.9 Q30.2 -46.55 30.2 -46.05 L30.4 -45.5 31.0 -45.05 33.55 -44.05 34.55 -43.35 Q34.9 -42.9 34.9 -42.25 L34.65 -41.15 33.95 -40.25 34.75 -39.1 34.8 -38.9 34.8 -38.5 34.75 -37.85 34.65 -37.6 34.4 -37.15 34.15 -36.85 34.1 -36.8 33.95 -36.65 33.9 -36.6 33.85 -36.6 33.7 -36.5 33.65 -36.45 33.6 -36.4 33.1 -36.2 31.75 -36.0 31.65 -36.0 Q30.05 -36.0 29.3 -36.75 L28.85 -37.4 28.65 -38.15 30.15 -38.15 30.5 -37.6 Q30.8 -37.3 31.75 -37.3 L32.3 -37.3 32.85 -37.45 M39.8 -31.9 Q41.35 -30.45 42.1 -28.75 42.9 -27.05 42.9 -25.1 42.9 -23.15 42.1 -21.45 41.35 -19.75 39.8 -18.3 L39.1 -19.0 Q40.55 -20.35 41.25 -21.85 41.95 -23.4 41.95 -25.1 41.95 -26.85 41.25 -28.35 40.55 -29.9 39.1 -31.25 L39.8 -31.9 M30.1 -18.3 L29.4 -19.0 Q30.85 -20.35 31.55 -21.85 32.25 -23.4 32.25 -25.1 32.25 -26.85 31.55 -28.35 30.85 -29.9 29.4 -31.25 L30.1 -31.9 Q31.65 -30.45 32.4 -28.75 33.2 -27.05 33.2 -25.1 33.2 -23.15 32.4 -21.45 31.65 -19.75 30.1 -18.3 M31.3 -41.15 Q31.95 -40.85 32.8 -40.65 L33.35 -41.25 33.5 -41.9 33.35 -42.55 32.8 -43.0 30.75 -43.75 30.25 -43.25 30.05 -42.6 Q30.05 -42.1 30.45 -41.75 30.7 -41.5 31.3 -41.15 M24.05 -49.9 Q25.6 -48.45 26.35 -46.75 27.15 -45.05 27.15 -43.1 27.15 -41.15 26.35 -39.45 25.6 -37.75 24.05 -36.3 L23.35 -37.0 Q24.8 -38.35 25.5 -39.85 26.2 -41.4 26.2 -43.1 26.2 -44.85 25.5 -46.35 24.8 -47.9 23.35 -49.25 L24.05 -49.9 M34.6 -39.55 L34.65 -39.5 33.95 -40.25 34.6 -39.55 M10.95 -33.25 L10.95 -17.35 9.7 -17.35 9.7 -33.25 10.95 -33.25 M-8.8 -17.35 L-10.05 -17.35 -10.05 -33.25 -8.8 -33.25 -8.8 -17.35 M-19.9 -37.0 L-20.6 -36.3 Q-22.15 -37.75 -22.95 -39.45 -23.75 -41.15 -23.75 -43.1 -23.75 -45.05 -22.95 -46.75 -22.15 -48.45 -20.6 -49.9 L-19.9 -49.25 Q-21.35 -47.9 -22.1 -46.35 -22.8 -44.85 -22.8 -43.1 -22.8 -41.4 -22.1 -39.85 -21.35 -38.35 -19.9 -37.0 M1.35 -26.8 L2.4 -25.55 3.1 -25.05 4.0 -24.9 4.75 -25.05 5.4 -25.45 5.75 -26.1 5.9 -26.9 5.75 -27.7 5.4 -28.3 4.8 -28.65 4.0 -28.8 3.15 -28.65 2.5 -28.3 1.35 -26.8 M0.5 -27.85 L1.65 -29.15 2.65 -29.8 3.95 -30.05 5.3 -29.8 6.35 -29.15 6.95 -28.2 7.15 -26.9 6.95 -25.55 6.35 -24.55 5.25 -23.85 3.95 -23.6 2.6 -23.85 1.5 -24.6 0.5 -25.65 -0.4 -24.6 -1.55 -23.85 -3.0 -23.6 -4.2 -23.8 Q-4.75 -24.0 -5.15 -24.4 L-5.9 -25.55 -6.15 -26.9 -5.9 -28.2 -5.15 -29.3 Q-4.75 -29.7 -4.2 -29.9 L-3.0 -30.1 -1.65 -29.85 -0.5 -29.05 0.5 -27.85 M4.45 -46.65 L-0.95 -46.25 -1.15 -47.65 4.65 -47.85 4.95 -47.9 6.05 -47.15 Q6.3 -46.85 5.9 -46.8 5.7 -43.2 4.35 -40.7 3.0 -38.2 0.45 -36.8 L-0.4 -38.25 Q4.1 -40.55 4.45 -46.65 M21.35 -37.1 L7.7 -48.5 8.4 -49.3 22.05 -37.9 21.35 -37.1 M13.75 -27.55 L15.1 -28.75 19.45 -25.55 22.45 -22.3 20.9 -21.0 Q18.5 -24.4 13.75 -27.55 M-38.45 -18.9 L-39.15 -18.25 -40.5 -19.95 -41.45 -21.55 -42.05 -23.3 -42.25 -25.15 -42.05 -27.25 -41.45 -29.05 -40.55 -30.5 -39.15 -32.0 -38.45 -31.35 -39.8 -29.95 -40.65 -28.6 -41.15 -27.05 -41.35 -25.15 -41.15 -23.55 -40.65 -22.0 -39.8 -20.55 -38.45 -18.9 M6.7 -1.75 L6.7 -12.4 8.15 -12.4 8.15 -2.9 13.9 -2.9 13.9 -1.75 6.7 -1.75 M-31.4 -38.15 L-29.9 -38.15 -29.55 -37.6 Q-29.25 -37.3 -28.3 -37.3 L-27.45 -37.4 -27.0 -37.65 Q-26.65 -38.0 -26.65 -38.5 L-26.9 -39.15 -27.65 -39.55 -30.3 -40.55 -31.1 -41.3 -31.35 -42.4 -31.1 -43.45 -30.35 -44.25 -30.65 -44.5 -31.15 -45.15 -31.3 -46.05 -31.15 -47.0 -30.65 -47.75 -29.7 -48.3 -28.3 -48.5 -26.9 -48.3 -25.9 -47.75 -25.5 -47.15 -25.15 -46.35 -26.65 -46.35 -27.05 -46.9 -27.55 -47.2 -28.3 -47.3 -29.0 -47.2 -29.5 -46.9 -29.85 -46.05 -29.65 -45.5 -29.05 -45.05 -26.5 -44.05 -25.5 -43.35 Q-25.15 -42.9 -25.15 -42.25 -25.15 -41.65 -25.4 -41.15 L-26.1 -40.25 -25.45 -39.55 -25.25 -38.5 Q-25.25 -38.0 -25.4 -37.6 L-25.9 -36.85 -26.8 -36.25 -26.95 -36.2 -27.9 -36.0 -28.3 -36.0 -28.65 -36.0 -28.75 -36.0 Q-30.1 -36.1 -30.75 -36.75 L-30.9 -36.95 -31.2 -37.4 -31.4 -38.15 M-27.9 -31.25 Q-29.35 -29.9 -30.1 -28.35 -30.8 -26.85 -30.8 -25.1 -30.8 -23.4 -30.1 -21.85 -29.35 -20.35 -27.9 -19.0 L-28.6 -18.3 Q-30.15 -19.75 -30.95 -21.45 -31.75 -23.15 -31.75 -25.1 -31.75 -27.05 -30.95 -28.75 -30.15 -30.45 -28.6 -31.9 L-27.9 -31.25 M-18.45 -37.05 L-19.05 -37.4 -12.45 -49.25 -11.8 -48.85 -18.45 -37.05 M-6.8 -43.8 L-10.75 -43.8 -10.75 -45.0 -2.55 -45.0 -2.55 -43.8 -5.55 -43.8 Q-5.55 -41.1 -6.05 -39.25 -6.5 -37.4 -7.45 -36.35 L-8.55 -37.5 Q-7.7 -38.25 -7.25 -39.85 -6.8 -41.4 -6.8 -43.8 M-9.4 -48.8 L-4.0 -48.8 -4.0 -47.6 -9.4 -47.6 -9.4 -48.8 M-12.45 -29.8 L-13.85 -26.55 -15.4 -24.05 -17.7 -21.6 -20.35 -19.55 -21.85 -20.75 Q-20.45 -21.45 -19.25 -22.4 L-17.1 -24.5 Q-16.1 -25.65 -15.3 -27.3 -14.55 -28.95 -13.95 -31.05 L-12.3 -30.3 Q-11.85 -30.05 -12.45 -29.8 M-0.15 -26.85 L-1.35 -28.2 Q-1.65 -28.55 -2.1 -28.7 L-3.0 -28.85 -3.75 -28.75 -4.3 -28.4 -4.75 -27.7 -4.9 -26.9 -4.75 -26.1 -4.25 -25.35 -3.7 -25.0 -3.0 -24.9 Q-1.85 -24.9 -1.3 -25.45 L-0.15 -26.85 M-28.75 -41.15 L-27.25 -40.65 -26.7 -41.25 Q-26.55 -41.6 -26.55 -41.9 L-26.7 -42.55 -27.25 -43.0 -29.3 -43.75 -29.8 -43.25 -30.0 -42.6 Q-30.0 -42.1 -29.6 -41.75 L-28.75 -41.15 M-7.55 -11.25 L-6.3 -11.25 -6.3 -0.05 -11.0 -0.05 -11.0 -1.25 -7.55 -1.25 -7.55 -11.25" fill="#000000" fill-rule="evenodd" stroke="none"/>
    <path d="M32.85 -37.45 L32.3 -37.3 32.65 -38.15 32.85 -37.45 M31.65 -36.0 L31.75 -36.0 33.1 -36.2 33.6 -36.4 33.65 -36.45 33.7 -36.5 33.85 -36.6 33.9 -36.6 33.95 -36.65 34.1 -36.8 34.15 -36.85 34.4 -37.15 34.65 -37.6 34.75 -37.85 34.8 -38.5 34.8 -38.9 34.8 -38.95 34.9 -38.85 34.75 -39.1 39.8 -31.9 39.1 -31.25 Q40.55 -29.9 41.25 -28.35 41.95 -26.85 41.95 -25.1 41.95 -23.4 41.25 -21.85 40.55 -20.35 39.1 -19.0 26.05 -8.9 30.1 -18.3 31.65 -19.75 32.4 -21.45 33.2 -23.15 33.2 -25.1 33.2 -27.05 32.4 -28.75 31.65 -30.45 30.1 -31.9 L29.4 -31.25 31.65 -36.0 M24.05 -49.9 L23.35 -49.25 Q24.8 -47.9 25.5 -46.35 26.2 -44.85 26.2 -43.1 26.2 -41.4 25.5 -39.85 24.8 -38.35 23.35 -37.0 L24.05 -36.3 Q17.5 -32.5 10.95 -33.25 L9.7 -33.25 9.7 -17.35 Q0.85 -14.15 -8.8 -17.35 L-8.8 -33.25 -10.05 -33.25 Q-16.15 -33.15 -19.9 -37.0 -21.35 -38.35 -22.1 -39.85 -22.8 -41.4 -22.8 -43.1 -22.8 -44.85 -22.1 -46.35 -21.35 -47.9 -19.9 -49.25 L-20.6 -49.9 Q-10.4 -55.6 -0.2 -55.8 11.25 -55.55 24.05 -49.9 M33.95 -36.65 L34.05 -36.65 33.95 -36.65 M21.35 -37.1 L22.05 -37.9 8.4 -49.3 7.7 -48.5 21.35 -37.1 M4.45 -46.65 Q4.1 -40.55 -0.4 -38.25 L0.45 -36.8 Q3.0 -38.2 4.35 -40.7 5.7 -43.2 5.9 -46.8 6.3 -46.85 6.05 -47.15 L4.95 -47.9 4.65 -47.85 -1.15 -47.65 -0.95 -46.25 4.45 -46.65 M0.5 -27.85 L-0.5 -29.05 -1.65 -29.85 -3.0 -30.1 -4.2 -29.9 Q-4.75 -29.7 -5.15 -29.3 L-5.9 -28.2 -6.15 -26.9 -5.9 -25.55 -5.15 -24.4 Q-4.75 -24.0 -4.2 -23.8 L-3.0 -23.6 -1.55 -23.85 -0.4 -24.6 0.5 -25.65 1.5 -24.6 2.6 -23.85 3.95 -23.6 5.25 -23.85 6.35 -24.55 6.95 -25.55 7.15 -26.9 6.95 -28.2 6.35 -29.15 5.3 -29.8 3.95 -30.05 2.65 -29.8 1.65 -29.15 0.5 -27.85 M1.35 -26.8 L2.5 -28.3 3.15 -28.65 4.0 -28.8 4.8 -28.65 5.4 -28.3 5.75 -27.7 5.9 -26.9 5.75 -26.1 5.4 -25.45 4.75 -25.05 4.0 -24.9 3.1 -25.05 2.4 -25.55 1.35 -26.8 M-38.45 -18.9 L-39.8 -20.55 -40.65 -22.0 -41.15 -23.55 -41.35 -25.15 -41.15 -27.05 -40.65 -28.6 -39.8 -29.95 -38.45 -31.35 -39.15 -32.0 -31.4 -38.15 -31.2 -37.4 -30.9 -36.95 -30.75 -36.75 Q-30.1 -36.1 -28.75 -36.0 L-28.65 -36.0 -28.3 -36.0 -27.9 -36.0 -27.9 -31.25 -28.6 -31.9 Q-30.15 -30.45 -30.95 -28.75 -31.75 -27.05 -31.75 -25.1 -31.75 -23.15 -30.95 -21.45 -30.15 -19.75 -28.6 -18.3 -26.25 -9.2 -38.45 -18.9 M-9.4 -48.8 L-9.4 -47.6 -4.0 -47.6 -4.0 -48.8 -9.4 -48.8 M-6.8 -43.8 Q-6.8 -41.4 -7.25 -39.85 -7.7 -38.25 -8.55 -37.5 L-7.45 -36.35 Q-6.5 -37.4 -6.05 -39.25 -5.55 -41.1 -5.55 -43.8 L-2.55 -43.8 -2.55 -45.0 -10.75 -45.0 -10.75 -43.8 -6.8 -43.8 M-18.45 -37.05 L-11.8 -48.85 -12.45 -49.25 -19.05 -37.4 -18.45 -37.05 M-0.15 -26.85 L-1.3 -25.45 Q-1.85 -24.9 -3.0 -24.9 L-3.7 -25.0 -4.25 -25.35 -4.75 -26.1 -4.9 -26.9 -4.75 -27.7 -4.3 -28.4 -3.75 -28.75 -3.0 -28.85 -2.1 -28.7 Q-1.65 -28.55 -1.35 -28.2 L-0.15 -26.85" fill="#ffffff" fill-rule="evenodd" stroke="none"/>
  </g>
</svg>
