<?xml version="1.0" encoding="UTF-8" standalone="no"?>
<svg xmlns:ffdec="https://www.free-decompiler.com/flash" xmlns:xlink="http://www.w3.org/1999/xlink" ffdec:objectType="shape" height="54.3px" width="73.2px" xmlns="http://www.w3.org/2000/svg">
  <g transform="matrix(1.0, 0.0, 0.0, 1.0, 41.75, 52.9)">
    <path d="M-30.7 -26.5 Q-30.35 -27.55 -30.45 -28.6 -30.6 -30.35 -33.9 -30.55 -34.1 -36.2 -29.4 -39.85 -30.2 -46.6 -32.7 -52.9 -29.7 -52.55 -27.35 -50.1 L-26.2 -49.0 Q-22.35 -45.75 -18.75 -44.05 -9.9 -47.1 -2.75 -43.65 -0.65 -42.65 1.35 -41.5 2.2 -41.05 3.8 -42.35 8.7 -46.25 14.85 -46.55 11.0 -41.55 8.75 -36.0 L9.7 -35.4 Q13.95 -32.15 15.75 -27.1 L16.15 -25.75 Q16.7 -23.35 16.0 -21.2 17.5 -20.7 19.35 -20.7 22.3 -20.65 24.4 -22.95 L26.3 -25.05 Q28.45 -27.45 28.3 -30.7 L28.25 -30.9 28.5 -30.7 Q32.35 -27.45 31.2 -21.9 30.45 -18.4 27.0 -16.65 24.15 -15.25 20.85 -15.3 18.4 -15.4 16.25 -16.05 L16.45 -14.5 Q16.5 -13.55 16.05 -12.6 14.8 -9.65 12.35 -8.4 13.4 -7.45 14.25 -6.85 17.45 -4.65 17.55 -0.95 12.55 -2.1 9.6 -7.55 L9.3 -7.55 7.8 -7.4 7.7 -7.4 Q7.2 -7.25 8.05 -5.1 11.1 -1.55 8.45 0.85 5.45 -2.3 5.15 -7.2 L-1.9 -7.4 -5.9 -7.95 -8.25 -8.45 -8.35 -8.45 -8.25 -7.15 -8.05 -5.9 -7.25 -2.65 Q-6.45 0.15 -9.1 0.6 -12.1 -3.0 -11.2 -8.2 L-10.9 -9.15 -11.25 -9.25 -12.05 -9.5 -12.1 -9.5 Q-13.5 -6.15 -14.6 -1.85 -15.25 0.7 -17.55 1.3 -18.85 1.65 -18.7 0.4 -18.15 -4.2 -16.2 -9.25 -16.9 -9.25 -17.75 -9.9 L-18.65 -10.95 Q-19.95 -10.1 -21.25 -10.0 -26.25 -9.5 -26.8 -13.8 L-26.85 -14.2 -24.95 -16.0 -26.85 -14.2 Q-27.45 -17.5 -30.8 -19.3 L-31.9 -19.8 Q-32.2 -23.0 -30.9 -26.05 L-30.7 -26.5 -25.35 -26.05 -30.7 -26.5 M-22.5 -35.25 L-22.5 -34.5 -21.65 -34.65 Q-19.45 -36.2 -21.95 -38.05 -24.85 -37.3 -23.85 -34.25 -23.25 -32.5 -21.55 -32.95 -17.65 -34.0 -19.1 -38.2 -20.0 -40.8 -22.75 -40.7 -24.8 -40.65 -26.4 -39.35 -28.3 -37.85 -27.85 -35.0 L-27.5 -33.85 Q-26.3 -31.25 -23.75 -31.75 -26.3 -31.25 -27.5 -33.85 L-27.85 -35.0 Q-28.3 -37.85 -26.4 -39.35 -24.8 -40.65 -22.75 -40.7 -20.0 -40.8 -19.1 -38.2 -17.65 -34.0 -21.55 -32.95 -23.25 -32.5 -23.85 -34.25 -24.85 -37.3 -21.95 -38.05 -19.45 -36.2 -21.65 -34.65 L-22.5 -34.5 -22.5 -35.25 M-16.75 -26.8 Q-16.75 -26.1 -16.2 -25.65 -15.65 -25.15 -14.9 -25.15 -14.15 -25.15 -13.6 -25.65 -13.05 -26.1 -13.05 -26.8 -13.05 -27.5 -13.6 -28.0 L-14.9 -28.45 Q-15.65 -28.45 -16.2 -28.0 -16.75 -27.5 -16.75 -26.8 -16.75 -27.5 -16.2 -28.0 -15.65 -28.45 -14.9 -28.45 L-13.6 -28.0 Q-13.05 -27.5 -13.05 -26.8 -13.05 -26.1 -13.6 -25.65 -14.15 -25.15 -14.9 -25.15 -15.65 -25.15 -16.2 -25.65 -16.75 -26.1 -16.75 -26.8 M-0.75 -23.1 L5.75 -23.85 Q4.95 -24.55 3.7 -24.95 4.95 -24.55 5.75 -23.85 L-0.75 -23.1 M9.6 -7.55 Q11.1 -7.8 12.35 -8.4 11.1 -7.8 9.6 -7.55 M5.15 -7.2 L7.7 -7.4 5.15 -7.2 M-0.8 -11.25 Q-1.45 -10.9 -1.5 -10.45 L1.5 -10.7 2.8 -11.4 Q4.2 -12.4 3.9 -13.25 3.6 -13.9 2.2 -14.5 L4.55 -15.1 Q5.4 -16.25 5.35 -17.25 5.3 -18.9 2.95 -20.1 4.9 -20.0 7.05 -21.15 6.85 -22.8 5.75 -23.85 L12.65 -23.6 5.75 -23.85 Q6.85 -22.8 7.05 -21.15 4.9 -20.0 2.95 -20.1 5.3 -18.9 5.35 -17.25 L9.65 -16.6 5.35 -17.25 Q5.4 -16.25 4.55 -15.1 L2.2 -14.5 Q3.6 -13.9 3.9 -13.25 7.3 -11.85 10.85 -10.9 7.3 -11.85 3.9 -13.25 4.2 -12.4 2.8 -11.4 L1.5 -10.7 -1.5 -10.45 Q-1.45 -10.9 -0.8 -11.25 M16.25 -16.05 Q15.95 -16.75 15.25 -16.4 L16.25 -16.05 15.25 -16.4 Q15.95 -16.75 16.25 -16.05 M-6.0 -37.0 L-6.25 -36.25 Q-3.65 -36.0 -4.65 -38.2 -4.85 -38.75 -5.3 -38.8 -7.4 -39.1 -7.4 -36.75 -7.4 -35.5 -6.35 -34.7 -3.95 -32.85 -0.95 -33.55 0.8 -33.9 0.85 -35.5 L0.85 -36.5 Q0.8 -39.85 -2.3 -40.8 -5.35 -41.7 -8.3 -40.4 -10.75 -39.3 -11.15 -37.0 -11.25 -36.35 -11.0 -35.85 -8.65 -31.0 -3.25 -32.0 -8.65 -31.0 -11.0 -35.85 -11.25 -36.35 -11.15 -37.0 -10.75 -39.3 -8.3 -40.4 -5.35 -41.7 -2.3 -40.8 0.8 -39.85 0.85 -36.5 L0.85 -35.5 Q0.8 -33.9 -0.95 -33.55 -3.95 -32.85 -6.35 -34.7 -7.4 -35.5 -7.4 -36.75 -7.4 -39.1 -5.3 -38.8 -4.85 -38.75 -4.65 -38.2 -3.65 -36.0 -6.25 -36.25 L-6.0 -37.0 M-27.95 -22.35 L-30.8 -19.3 -27.95 -22.35 M3.9 -13.25 Q0.95 -14.45 -1.9 -16.0 0.95 -14.45 3.9 -13.25 M5.35 -17.25 Q2.45 -17.9 -0.4 -19.0 2.45 -17.9 5.35 -17.25 M-10.9 -9.15 L-8.35 -8.45 -10.9 -9.15 M-20.25 -21.0 Q-20.1 -16.0 -19.0 -11.9 L-18.65 -10.95 -19.0 -11.9 Q-20.1 -16.0 -20.25 -21.0 -22.35 -24.15 -22.7 -28.65 -22.35 -24.15 -20.25 -21.0 L-18.95 -20.9 Q-16.2 -21.05 -15.65 -23.85 -15.05 -20.15 -11.65 -20.95 -11.15 -21.05 -10.8 -21.6 -9.55 -23.6 -8.6 -25.7 -9.7 -21.5 -11.4 -17.5 -10.7 -16.8 -11.75 -16.7 -13.15 -13.5 -14.85 -10.45 L-14.15 -10.2 -13.4 -9.9 -12.05 -9.5 Q-11.2 -9.85 -11.25 -9.25 -11.2 -9.85 -12.05 -9.5 L-13.4 -9.9 -14.15 -10.2 -14.85 -10.45 Q-13.15 -13.5 -11.75 -16.7 -10.7 -16.8 -11.4 -17.5 -9.7 -21.5 -8.6 -25.7 -9.55 -23.6 -10.8 -21.6 -11.15 -21.05 -11.65 -20.95 -15.05 -20.15 -15.65 -23.85 -16.2 -21.05 -18.95 -20.9 L-20.25 -21.0 M-16.2 -9.25 Q-15.55 -9.35 -15.05 -10.15 L-14.85 -10.45 -15.05 -10.15 Q-15.55 -9.35 -16.2 -9.25 M-11.75 -16.7 L-11.4 -17.5 -11.45 -17.55 Q-12.05 -18.25 -12.3 -19.75 -13.25 -18.45 -13.15 -16.75 L-13.05 -13.95 Q-14.7 -16.7 -15.3 -19.35 -16.4 -15.4 -16.05 -11.1 -18.1 -15.75 -18.95 -20.9 -18.1 -15.75 -16.05 -11.1 -16.4 -15.4 -15.3 -19.35 -14.7 -16.7 -13.05 -13.95 L-13.15 -16.75 Q-13.25 -18.45 -12.3 -19.75 -12.05 -18.25 -11.45 -17.55 L-11.4 -17.5 -11.75 -16.7" fill="#ffffff" fill-rule="evenodd" stroke="none"/>
    <path d="M-30.7 -26.5 Q-30.35 -27.55 -30.45 -28.6 -30.6 -30.35 -33.9 -30.55 -34.1 -36.2 -29.4 -39.85 -30.2 -46.6 -32.7 -52.9 -29.7 -52.55 -27.35 -50.1 L-26.2 -49.0 Q-22.35 -45.75 -18.75 -44.05 -9.9 -47.1 -2.75 -43.65 -0.65 -42.65 1.35 -41.5 2.2 -41.05 3.8 -42.35 8.7 -46.25 14.85 -46.55 11.0 -41.55 8.75 -36.0 L9.7 -35.4 Q13.95 -32.15 15.75 -27.1 L16.15 -25.75 Q16.7 -23.35 16.0 -21.2 17.5 -20.7 19.35 -20.7 22.3 -20.65 24.4 -22.95 L26.3 -25.05 Q28.45 -27.45 28.3 -30.7 L28.25 -30.9 28.5 -30.7 Q32.35 -27.45 31.2 -21.9 30.45 -18.4 27.0 -16.65 24.15 -15.25 20.85 -15.3 18.4 -15.4 16.25 -16.05 L16.45 -14.5 Q16.5 -13.55 16.05 -12.6 14.8 -9.65 12.35 -8.4 13.4 -7.45 14.25 -6.85 17.45 -4.65 17.55 -0.95 12.55 -2.1 9.6 -7.55 L9.3 -7.55 7.8 -7.4 7.7 -7.4 Q7.2 -7.25 8.05 -5.1 11.1 -1.55 8.45 0.85 5.45 -2.3 5.15 -7.2 L-1.9 -7.4 -5.9 -7.95 -8.25 -8.45 -8.35 -8.45 -8.25 -7.15 -8.05 -5.9 -7.25 -2.65 Q-6.45 0.15 -9.1 0.6 -12.1 -3.0 -11.2 -8.2 M-10.9 -9.15 L-11.25 -9.25 -12.05 -9.5 -12.1 -9.5 Q-13.5 -6.15 -14.6 -1.85 -15.25 0.7 -17.55 1.3 -18.85 1.65 -18.7 0.4 -18.15 -4.2 -16.2 -9.25 -16.9 -9.25 -17.75 -9.9 L-18.65 -10.95 Q-19.95 -10.1 -21.25 -10.0 -26.25 -9.5 -26.8 -13.8 L-26.85 -14.2 Q-30.95 -10.5 -35.2 -7.1 M-3.25 -32.0 Q-8.65 -31.0 -11.0 -35.85 -11.25 -36.35 -11.15 -37.0 -10.75 -39.3 -8.3 -40.4 -5.35 -41.7 -2.3 -40.8 0.8 -39.85 0.85 -36.5 L0.85 -35.5 Q0.8 -33.9 -0.95 -33.55 -3.95 -32.85 -6.35 -34.7 -7.4 -35.5 -7.4 -36.75 -7.4 -39.1 -5.3 -38.8 -4.85 -38.75 -4.65 -38.2 -3.65 -36.0 -6.25 -36.25 L-6.0 -37.0 M16.25 -16.05 L15.25 -16.4 Q15.95 -16.75 16.25 -16.05 M12.65 -23.6 L5.75 -23.85 Q6.85 -22.8 7.05 -21.15 4.9 -20.0 2.95 -20.1 5.3 -18.9 5.35 -17.25 L9.65 -16.6 M5.35 -17.25 Q5.4 -16.25 4.55 -15.1 L2.2 -14.5 Q3.6 -13.9 3.9 -13.25 7.3 -11.85 10.85 -10.9 M3.9 -13.25 Q4.2 -12.4 2.8 -11.4 L1.5 -10.7 -1.5 -10.45 Q-1.45 -10.9 -0.8 -11.25 M7.7 -7.4 L5.15 -7.2 M12.35 -8.4 Q11.1 -7.8 9.6 -7.55 M3.7 -24.95 Q4.95 -24.55 5.75 -23.85 L-0.75 -23.1 M-16.75 -26.8 Q-16.75 -27.5 -16.2 -28.0 -15.65 -28.45 -14.9 -28.45 L-13.6 -28.0 Q-13.05 -27.5 -13.05 -26.8 -13.05 -26.1 -13.6 -25.65 -14.15 -25.15 -14.9 -25.15 -15.65 -25.15 -16.2 -25.65 -16.75 -26.1 -16.75 -26.8 M-23.75 -31.75 Q-26.3 -31.25 -27.5 -33.85 L-27.85 -35.0 Q-28.3 -37.85 -26.4 -39.35 -24.8 -40.65 -22.75 -40.7 -20.0 -40.8 -19.1 -38.2 -17.65 -34.0 -21.55 -32.95 -23.25 -32.5 -23.85 -34.25 -24.85 -37.3 -21.95 -38.05 -19.45 -36.2 -21.65 -34.65 L-22.5 -34.5 -22.5 -35.25 M-30.7 -26.5 L-30.9 -26.05 Q-32.2 -23.0 -31.9 -19.8 L-30.8 -19.3 -27.95 -22.35 M-30.7 -26.5 L-39.05 -25.8 -40.25 -25.55 Q-42.5 -25.2 -41.35 -24.55 M-25.35 -26.05 L-30.7 -26.5 M-24.95 -16.0 L-26.85 -14.2 Q-27.45 -17.5 -30.8 -19.3 L-31.1 -19.0 -37.6 -12.65 M-22.7 -28.65 Q-22.35 -24.15 -20.25 -21.0 L-18.95 -20.9 Q-16.2 -21.05 -15.65 -23.85 -15.05 -20.15 -11.65 -20.95 -11.15 -21.05 -10.8 -21.6 -9.55 -23.6 -8.6 -25.7 -9.7 -21.5 -11.4 -17.5 -10.7 -16.8 -11.75 -16.7 -13.15 -13.5 -14.85 -10.45 L-14.15 -10.2 -13.4 -9.9 -12.05 -9.5 Q-11.2 -9.85 -11.25 -9.25 M-18.95 -20.9 Q-18.1 -15.75 -16.05 -11.1 -16.4 -15.4 -15.3 -19.35 -14.7 -16.7 -13.05 -13.95 L-13.15 -16.75 Q-13.25 -18.45 -12.3 -19.75 -12.05 -18.25 -11.45 -17.55 L-11.4 -17.5 -11.75 -16.7 M-14.85 -10.45 L-15.05 -10.15 Q-15.55 -9.35 -16.2 -9.25 M-18.65 -10.95 L-19.0 -11.9 Q-20.1 -16.0 -20.25 -21.0 M-8.35 -8.45 L-10.9 -9.15 M-0.4 -19.0 Q2.45 -17.9 5.35 -17.25 M-1.9 -16.0 Q0.95 -14.45 3.9 -13.25" fill="none" stroke="#000000" stroke-linecap="round" stroke-linejoin="round" stroke-width="0.05"/>
  </g>
</svg>
