<svg xmlns:xlink="http://www.w3.org/1999/xlink" height="81.8px" width="49.7px" xmlns="http://www.w3.org/2000/svg">
  <g transform="matrix(1.0, 0.0, 0.0, 1.0, 28.05, 81.55)">
    <path d="M-3.3 -78.3 L-2.8 -79.3 Q-2.45 -79.8 -2.0 -79.8 -1.5 -79.8 -0.95 -79.25 L0.1 -78.65 Q0.35 -78.65 0.65 -79.0 L0.75 -79.15 1.0 -79.8 1.5 -79.15 1.4 -78.9 0.9 -78.2 Q0.55 -77.6 0.0 -77.6 L-1.05 -78.3 -1.95 -78.85 -2.55 -78.4 -2.85 -77.75 -3.3 -78.3 M1.9 -78.45 L2.4 -79.0 Q4.75 -76.8 4.75 -73.85 4.75 -71.3 2.9 -69.25 L2.4 -68.75 1.9 -69.3 Q4.05 -71.3 4.05 -73.85 4.05 -76.45 1.9 -78.45 M5.2 -68.55 L17.15 -68.55 17.15 -68.05 5.2 -68.05 5.2 -68.55 M18.85 -69.15 Q18.35 -69.6 18.35 -70.3 18.35 -71.0 18.85 -71.5 19.3 -71.95 20.0 -71.95 20.7 -71.95 21.2 -71.5 21.65 -71.0 21.65 -70.3 21.65 -69.6 21.2 -69.15 20.7 -68.65 20.0 -68.65 L19.55 -68.7 18.85 -69.15 M16.35 -64.5 L16.85 -63.9 6.65 -55.35 6.1 -56.0 16.35 -64.5 M12.3 -51.75 Q12.75 -51.75 13.05 -51.4 L13.4 -50.65 Q13.4 -50.25 13.05 -49.9 12.75 -49.55 12.3 -49.55 11.9 -49.55 11.55 -49.9 11.25 -50.25 11.25 -50.65 L11.55 -51.4 Q11.9 -51.75 12.3 -51.75 M14.05 -50.45 L14.55 -51.0 Q16.9 -48.8 16.9 -45.85 16.9 -42.95 14.55 -40.75 L14.05 -41.3 Q16.2 -43.3 16.2 -45.85 16.2 -48.45 14.05 -50.45 M12.35 -37.95 L13.3 -37.95 13.3 -36.45 13.3 -27.3 13.3 -26.05 12.35 -26.05 12.35 -37.95 M14.55 -36.45 L15.05 -37.0 Q17.4 -34.8 17.4 -31.85 17.4 -28.95 15.05 -26.75 L14.55 -27.3 Q16.7 -29.3 16.7 -31.85 16.7 -34.45 14.55 -36.45 M13.65 -21.8 Q13.95 -21.6 13.6 -21.55 12.65 -16.25 9.7 -13.6 L8.95 -14.6 Q11.7 -16.85 12.6 -22.3 L13.6 -21.8 13.65 -21.8 M7.8 -14.6 L7.8 -13.85 7.15 -12.55 6.7 -12.55 7.15 -13.85 6.7 -13.85 6.7 -14.85 7.8 -14.85 7.8 -14.6 M6.25 -7.85 L7.35 -7.85 7.35 -2.2 Q7.35 -1.15 6.7 -0.5 5.95 0.25 4.35 0.25 2.75 0.25 2.0 -0.5 1.35 -1.15 1.35 -2.2 L1.35 -7.85 2.4 -7.85 2.4 -2.25 Q2.4 -1.55 2.85 -1.15 3.35 -0.65 4.35 -0.65 5.35 -0.65 5.85 -1.15 6.25 -1.55 6.25 -2.25 L6.25 -7.85 M-1.45 -7.85 L-0.35 -7.85 -0.35 -2.2 Q-0.35 -1.15 -1.0 -0.5 -1.75 0.25 -3.35 0.25 -4.95 0.25 -5.7 -0.5 -6.35 -1.15 -6.35 -2.2 L-6.35 -7.85 -5.3 -7.85 -5.3 -2.25 Q-5.3 -1.55 -4.85 -1.15 -4.35 -0.65 -3.35 -0.65 -2.35 -0.65 -1.85 -1.15 -1.45 -1.55 -1.45 -2.25 L-1.45 -7.85 M-8.8 -13.05 Q-12.05 -14.45 -13.4 -18.15 -14.4 -14.65 -17.85 -13.05 L-18.55 -14.05 Q-14.1 -15.8 -14.1 -20.5 L-14.1 -22.95 -13.05 -22.95 Q-12.6 -22.85 -13.05 -22.55 L-13.05 -20.65 Q-12.7 -16.15 -8.25 -14.2 L-8.8 -13.05 M-13.25 -26.05 L-14.2 -26.05 -14.2 -37.95 -13.25 -37.95 -13.25 -26.05 M-14.2 -40.05 L-14.2 -51.95 -13.25 -51.95 -13.25 -40.05 -14.2 -40.05 M-13.0 -54.75 Q-15.35 -56.95 -15.35 -59.85 -15.35 -61.75 -14.35 -63.3 L-13.0 -65.0 -12.45 -64.45 Q-14.6 -62.45 -14.6 -59.85 -14.6 -57.3 -12.45 -55.3 L-13.0 -54.75 M-16.4 -63.15 L-16.4 -63.0 -17.05 -61.6 -17.5 -61.6 -17.05 -63.0 -17.5 -63.0 -17.5 -63.15 -17.5 -64.05 -16.4 -64.05 -16.4 -63.15 M-18.85 -63.35 L-18.85 -63.0 -19.5 -61.6 -19.95 -61.6 -19.5 -63.0 -19.95 -63.0 -19.95 -63.6 -19.95 -64.05 -18.85 -64.05 -18.85 -63.35 M-21.3 -64.05 L-21.3 -63.0 -21.95 -61.6 -22.4 -61.6 -21.95 -63.0 -22.4 -63.0 -22.4 -64.05 -21.3 -64.05 M-25.75 -69.1 L-26.15 -68.45 Q-26.55 -68.05 -26.75 -68.15 L-26.9 -68.75 Q-26.9 -69.9 -25.9 -72.35 -25.85 -74.9 -26.15 -75.25 L-26.45 -75.35 Q-26.85 -75.35 -27.4 -74.65 L-28.05 -75.3 Q-27.15 -76.35 -26.25 -76.35 L-25.5 -76.05 Q-24.95 -75.45 -25.1 -73.55 -23.95 -75.2 -21.9 -76.45 L-21.3 -75.65 Q-24.0 -74.15 -25.15 -72.2 -25.35 -70.1 -25.75 -69.1 M-18.8 -78.95 Q-17.9 -80.05 -16.6 -80.75 -15.1 -81.55 -13.55 -81.55 -11.85 -81.55 -10.5 -80.75 L-8.3 -78.95 -8.8 -78.6 -11.1 -80.3 Q-12.25 -80.85 -13.55 -80.85 -14.95 -80.85 -16.15 -80.3 L-18.35 -78.6 -18.8 -78.95 M-6.7 -78.45 L-6.2 -79.0 Q-5.1 -77.95 -4.5 -76.7 -3.85 -75.4 -3.85 -73.85 -3.85 -70.95 -6.2 -68.75 L-6.7 -69.3 Q-4.55 -71.3 -4.55 -73.85 -4.55 -76.45 -6.7 -78.45 M18.95 -70.3 Q18.95 -69.9 19.25 -69.55 19.6 -69.25 20.0 -69.25 20.45 -69.25 20.75 -69.55 21.1 -69.9 21.1 -70.3 21.1 -70.75 20.75 -71.05 20.45 -71.4 20.0 -71.4 19.6 -71.4 19.25 -71.05 18.95 -70.75 18.95 -70.3 M8.1 -50.95 L8.1 -42.7 9.15 -42.7 9.15 -40.1 8.25 -40.1 8.25 -41.8 1.65 -41.8 1.65 -40.1 0.75 -40.1 0.75 -42.7 1.55 -42.7 Q2.95 -44.65 2.95 -47.7 L2.95 -50.95 8.1 -50.95 M3.85 -50.05 L3.85 -47.7 Q3.85 -44.6 2.6 -42.7 L7.15 -42.7 7.15 -50.05 3.85 -50.05 M11.8 -51.15 L11.6 -50.65 11.8 -50.15 12.3 -49.95 Q12.65 -49.95 12.85 -50.15 L13.0 -50.65 12.85 -51.15 Q12.65 -51.35 12.3 -51.35 L11.8 -51.15 M1.05 -12.55 L-2.55 -12.55 -2.55 -13.1 1.05 -13.1 1.05 -12.55 M1.8 -14.85 L2.9 -14.85 2.9 -13.85 2.25 -12.55 1.8 -12.55 2.25 -13.85 1.8 -13.85 1.8 -14.85 M4.7 -13.85 L4.25 -13.85 4.25 -14.85 5.35 -14.85 5.35 -13.85 4.7 -12.55 4.25 -12.55 4.7 -13.85 M-4.45 -59.05 L-6.5 -59.05 -6.5 -61.05 -4.45 -61.05 -4.45 -59.05 M-9.05 -50.45 Q-11.2 -48.45 -11.2 -45.85 -11.2 -43.3 -9.05 -41.3 L-9.6 -40.75 Q-11.95 -42.95 -11.95 -45.85 -11.95 -48.8 -9.6 -51.0 L-9.05 -50.45 M-3.2 -51.4 L-2.45 -51.75 Q-2.0 -51.75 -1.7 -51.4 -1.35 -51.05 -1.35 -50.65 -1.35 -50.25 -1.7 -49.9 -2.0 -49.55 -2.45 -49.55 -2.85 -49.55 -3.2 -49.9 L-3.5 -50.65 -3.2 -51.4 M-2.95 -50.15 L-2.45 -49.95 Q-2.1 -49.95 -1.9 -50.15 -1.75 -50.3 -1.75 -50.65 -1.75 -51.0 -1.9 -51.15 L-2.45 -51.35 -2.95 -51.15 -3.15 -50.65 -2.95 -50.15 M-5.55 -42.85 L-4.45 -42.85 -4.45 -41.85 -5.1 -40.55 -5.55 -40.55 -5.1 -41.85 -5.55 -41.85 -5.55 -42.85 M-6.9 -41.85 L-7.55 -40.55 -8.0 -40.55 -7.55 -41.85 -8.0 -41.85 -8.0 -42.85 -6.9 -42.85 -6.9 -41.85 M-8.4 -27.6 L-3.45 -36.45 -3.0 -36.2 -7.95 -27.3 -8.4 -27.6 M-9.6 -26.75 Q-11.95 -28.95 -11.95 -31.85 -11.95 -34.8 -9.6 -37.0 L-9.05 -36.45 Q-11.2 -34.45 -11.2 -31.85 -11.2 -29.3 -9.05 -27.3 L-9.6 -26.75 M-6.75 -14.85 L-5.65 -14.85 -5.65 -13.85 -6.75 -13.85 -6.75 -14.85 M-4.3 -13.85 L-4.3 -14.85 -3.2 -14.85 -3.2 -13.85 -4.3 -13.85" fill="#000000" fill-rule="evenodd" stroke="none"/>
    <path d="M1.4 -78.9 Q2.1 -78.75 1.9 -78.45 4.05 -76.45 4.05 -73.85 4.05 -71.3 1.9 -69.3 L2.4 -68.75 2.9 -69.25 Q4.55 -69.15 5.2 -68.55 L5.2 -68.05 17.15 -68.05 17.15 -68.55 Q18.0 -68.45 18.85 -69.15 L19.55 -68.7 Q17.7 -66.65 16.35 -64.5 L6.1 -56.0 6.65 -55.35 Q10.2 -54.7 12.15 -52.9 L12.3 -51.75 Q11.9 -51.75 11.55 -51.4 L11.25 -50.65 Q11.25 -50.25 11.55 -49.9 11.9 -49.55 12.3 -49.55 12.75 -49.55 13.05 -49.9 13.4 -50.25 13.4 -50.65 L13.05 -51.4 13.4 -51.55 14.05 -50.45 Q16.2 -48.45 16.2 -45.85 16.2 -43.3 14.05 -41.3 12.6 -39.9 13.25 -38.05 L12.35 -37.95 12.35 -26.05 13.3 -26.05 13.9 -25.7 13.3 -25.0 13.65 -21.8 13.6 -21.8 12.6 -22.3 Q11.7 -16.85 8.95 -14.6 L7.8 -14.6 7.8 -14.85 6.7 -14.85 6.7 -13.85 7.15 -13.85 6.7 -12.55 7.15 -12.55 Q6.15 -12.4 6.4 -10.9 6.7 -8.95 6.25 -7.85 L6.25 -2.25 Q6.25 -1.55 5.85 -1.15 5.35 -0.65 4.35 -0.65 3.35 -0.65 2.85 -1.15 2.4 -1.55 2.4 -2.25 L2.4 -7.85 1.35 -7.85 Q0.3 -8.35 -1.45 -7.85 L-1.45 -2.25 Q-1.45 -1.55 -1.85 -1.15 -2.35 -0.65 -3.35 -0.65 -4.35 -0.65 -4.85 -1.15 -5.3 -1.55 -5.3 -2.25 L-5.3 -7.85 -6.35 -7.85 Q-6.05 -9.35 -6.95 -11.45 -7.65 -12.65 -8.8 -13.05 L-8.25 -14.2 Q-12.7 -16.15 -13.05 -20.65 L-13.05 -22.55 Q-12.6 -22.85 -13.05 -22.95 L-14.1 -22.95 Q-13.85 -24.15 -14.15 -25.9 L-13.25 -26.05 -13.25 -37.95 -14.2 -37.95 Q-13.95 -38.8 -14.2 -40.05 L-13.25 -40.05 -13.25 -51.95 Q-13.45 -53.45 -13.0 -54.75 L-12.45 -55.3 Q-14.6 -57.3 -14.6 -59.85 -14.6 -62.45 -12.45 -64.45 L-13.0 -65.0 -14.35 -63.3 -16.4 -63.15 -16.4 -64.05 -17.5 -64.05 -17.5 -63.15 -18.85 -63.35 -18.85 -64.05 -19.95 -64.05 -19.95 -63.6 -21.3 -64.05 Q-24.1 -65.25 -25.75 -69.1 -25.35 -70.1 -25.15 -72.2 -24.0 -74.15 -21.3 -75.65 L-21.9 -76.45 Q-20.2 -77.35 -18.8 -78.95 L-18.35 -78.6 -16.15 -80.3 Q-14.95 -80.85 -13.55 -80.85 -12.25 -80.85 -11.1 -80.3 L-8.8 -78.6 -8.3 -78.95 Q-7.55 -79.0 -6.7 -78.45 -4.55 -76.45 -4.55 -73.85 -4.55 -71.3 -6.7 -69.3 L-6.2 -68.75 Q-3.85 -70.95 -3.85 -73.85 -3.85 -75.4 -4.5 -76.7 L-3.3 -78.3 -2.85 -77.75 -2.55 -78.4 -1.95 -78.85 -1.05 -78.3 0.0 -77.6 Q0.55 -77.6 0.9 -78.2 L1.4 -78.9 M13.3 -36.45 L14.55 -36.45 Q16.7 -34.45 16.7 -31.85 16.7 -29.3 14.55 -27.3 L13.3 -27.3 13.3 -36.45 M-4.3 -13.85 L-3.2 -13.85 -3.2 -14.85 -4.3 -14.85 -4.3 -13.85 M-6.75 -14.85 L-6.75 -13.85 -5.65 -13.85 -5.65 -14.85 -6.75 -14.85 M-9.6 -26.75 L-9.05 -27.3 Q-11.2 -29.3 -11.2 -31.85 -11.2 -34.45 -9.05 -36.45 L-9.6 -37.0 Q-11.95 -34.8 -11.95 -31.85 -11.95 -28.95 -9.6 -26.75 M-8.4 -27.6 L-7.95 -27.3 -3.0 -36.2 -3.45 -36.45 -8.4 -27.6 M-6.9 -41.85 L-6.9 -42.85 -8.0 -42.85 -8.0 -41.85 -7.55 -41.85 -8.0 -40.55 -7.55 -40.55 -6.9 -41.85 M-5.55 -42.85 L-5.55 -41.85 -5.1 -41.85 -5.55 -40.55 -5.1 -40.55 -4.45 -41.85 -4.45 -42.85 -5.55 -42.85 M-2.95 -50.15 L-3.15 -50.65 -2.95 -51.15 -2.45 -51.35 -1.9 -51.15 Q-1.75 -51.0 -1.75 -50.65 -1.75 -50.3 -1.9 -50.15 -2.1 -49.95 -2.45 -49.95 L-2.95 -50.15 M-3.2 -51.4 L-3.5 -50.65 -3.2 -49.9 Q-2.85 -49.55 -2.45 -49.55 -2.0 -49.55 -1.7 -49.9 -1.35 -50.25 -1.35 -50.65 -1.35 -51.05 -1.7 -51.4 -2.0 -51.75 -2.45 -51.75 L-3.2 -51.4 M-9.05 -50.45 L-9.6 -51.0 Q-11.95 -48.8 -11.95 -45.85 -11.95 -42.95 -9.6 -40.75 L-9.05 -41.3 Q-11.2 -43.3 -11.2 -45.85 -11.2 -48.45 -9.05 -50.45 M-4.45 -59.05 L-4.45 -61.05 -6.5 -61.05 -6.5 -59.05 -4.45 -59.05 M4.7 -13.85 L4.25 -12.55 4.7 -12.55 5.35 -13.85 5.35 -14.85 4.25 -14.85 4.25 -13.85 4.7 -13.85 M1.8 -14.85 L1.8 -13.85 2.25 -13.85 1.8 -12.55 2.25 -12.55 2.9 -13.85 2.9 -14.85 1.8 -14.85 M1.05 -12.55 L1.05 -13.1 -2.55 -13.1 -2.55 -12.55 1.05 -12.55 M11.8 -51.15 L12.3 -51.35 Q12.65 -51.35 12.85 -51.15 L13.0 -50.65 12.85 -50.15 Q12.65 -49.95 12.3 -49.95 L11.8 -50.15 11.6 -50.65 11.8 -51.15 M3.85 -50.05 L7.15 -50.05 7.15 -42.7 2.6 -42.7 Q3.85 -44.6 3.85 -47.7 L3.85 -50.05 M8.1 -50.95 L2.95 -50.95 2.95 -47.7 Q2.95 -44.65 1.55 -42.7 L0.75 -42.7 0.75 -40.1 1.65 -40.1 1.65 -41.8 8.25 -41.8 8.25 -40.1 9.15 -40.1 9.15 -42.7 8.1 -42.7 8.1 -50.95 M18.95 -70.3 Q18.95 -70.75 19.25 -71.05 19.6 -71.4 20.0 -71.4 20.45 -71.4 20.75 -71.05 21.1 -70.75 21.1 -70.3 21.1 -69.9 20.75 -69.55 20.45 -69.25 20.0 -69.25 19.6 -69.25 19.25 -69.55 18.95 -69.9 18.95 -70.3" fill="#ffffff" fill-rule="evenodd" stroke="none"/>
  </g>
</svg>
