<svg xmlns:xlink="http://www.w3.org/1999/xlink" height="87.3px" width="66.6px" xmlns="http://www.w3.org/2000/svg">
  <g transform="matrix(1.0, 0.0, 0.0, 1.0, 31.0, 87.0)">
    <path d="M10.0 -73.65 L11.25 -73.05 16.1 -83.7 20.95 -73.05 22.15 -73.6 22.15 -73.65 22.15 -73.7 22.2 -73.75 22.25 -73.75 22.35 -73.75 29.15 -68.1 29.2 -68.0 29.15 -67.9 29.05 -67.85 29.0 -67.9 28.95 -67.9 28.4 -67.35 34.3 -61.9 28.4 -56.45 28.9 -55.95 24.1 -51.2 23.4 -50.55 Q25.05 -49.0 25.7 -47.65 26.45 -46.1 26.45 -44.0 26.45 -42.2 25.7 -40.6 25.05 -39.15 23.4 -37.35 L23.9 -36.8 21.5 -34.55 20.2 -34.55 20.2 -17.7 20.2 -13.35 18.8 -13.35 18.8 -11.9 28.75 -11.9 Q28.4 -5.05 20.2 -3.05 L20.25 -3.0 20.3 -2.9 20.25 -2.85 21.15 -1.7 21.2 -1.7 21.3 -1.7 21.4 -1.65 21.4 -1.6 21.4 -1.55 21.3 -1.45 17.9 -0.2 17.8 -0.2 17.75 -0.3 17.75 -0.35 17.75 -0.4 17.8 -0.45 17.85 -0.5 17.85 -1.0 17.75 -1.05 17.75 -1.15 12.75 -1.15 12.7 -1.2 12.65 -1.15 7.7 -1.15 7.7 -1.1 7.65 -1.05 7.55 -1.0 7.45 -1.05 4.1 -5.75 4.1 -5.85 4.15 -5.95 4.25 -5.95 Q6.35 -8.7 6.45 -12.9 L5.75 -13.55 4.8 -13.35 -5.3 -13.35 -5.3 -11.9 4.65 -11.9 Q4.3 -5.0 -4.0 -3.05 L-3.55 -2.5 -6.2 -0.4 -23.15 -0.4 -24.9 -1.05 -28.95 -8.1 -24.9 -15.15 -25.1 -15.25 -23.8 -17.7 -22.5 -17.7 -22.5 -34.6 -23.8 -34.6 -25.25 -36.6 -24.55 -37.35 Q-26.2 -39.15 -26.85 -40.6 -27.6 -42.2 -27.6 -44.0 -27.6 -46.1 -26.85 -47.65 -26.2 -49.0 -24.55 -50.55 L-25.25 -51.2 -24.4 -55.8 -23.75 -56.45 -29.65 -61.9 -23.75 -67.35 -24.3 -67.9 -24.4 -67.85 -24.5 -67.9 -24.5 -68.0 -24.1 -73.65 -24.05 -73.75 -24.0 -73.75 -23.95 -73.75 -23.9 -73.7 -23.85 -73.65 -23.85 -73.6 -22.75 -73.05 -17.9 -83.7 -13.05 -73.05 -11.85 -73.6 -11.85 -73.7 -11.8 -73.75 -11.75 -73.75 -11.7 -73.75 -9.4 -72.5 -9.3 -72.4 -9.35 -72.35 -9.4 -72.25 -9.45 -72.25 -9.45 -71.7 7.5 -71.7 7.8 -72.2 7.5 -72.4 10.0 -73.65 M-1.35 -66.6 L0.15 -66.6 -2.3 -69.55 -4.7 -69.55 -1.35 -66.6 M15.7 -67.75 L14.15 -65.05 7.55 -65.05 6.0 -67.75 4.75 -67.0 10.85 -55.95 16.95 -67.0 15.7 -67.75 M8.2 -63.65 L13.5 -63.65 10.85 -58.9 8.2 -63.65 M26.0 -69.55 L23.6 -69.55 21.1 -66.6 22.6 -66.6 26.0 -69.55 M-0.3 -34.6 L-1.6 -34.6 -1.6 -17.7 -0.3 -17.7 -0.3 -34.6 M-14.9 -64.5 L-18.25 -67.0 -19.5 -65.75 Q-15.7 -63.15 -11.25 -58.2 L-9.8 -59.45 Q-11.95 -62.1 -14.9 -64.5" fill="#ffffff" fill-rule="evenodd" stroke="none"/>
    <path d="M22.2 -73.75 L22.15 -73.7 22.15 -73.65 22.15 -73.6 20.95 -73.05 16.1 -83.7 11.25 -73.05 10.0 -73.65 16.1 -87.0 22.2 -73.75 M7.5 -71.7 L-9.45 -71.7 -9.45 -72.25 -9.4 -72.25 -9.35 -72.35 -9.3 -72.4 7.5 -72.4 7.5 -71.7 M-11.8 -73.75 L-11.85 -73.7 -11.85 -73.6 -13.05 -73.05 -17.9 -83.7 -22.75 -73.05 -23.85 -73.6 -23.85 -73.65 -23.9 -73.7 -23.95 -73.75 -17.9 -87.0 -11.8 -73.75 M-24.5 -67.9 L-24.4 -67.85 -24.3 -67.9 -23.75 -67.35 -29.65 -61.9 -23.75 -56.45 -24.4 -55.8 -31.0 -61.9 -24.5 -67.9 M-25.25 -51.2 L-24.55 -50.55 Q-26.2 -49.0 -26.85 -47.65 -27.6 -46.1 -27.6 -44.0 -27.6 -42.2 -26.85 -40.6 -26.2 -39.15 -24.55 -37.35 L-25.25 -36.6 Q-26.95 -38.45 -27.75 -40.1 -28.6 -41.9 -28.6 -44.0 -28.6 -46.3 -27.75 -48.1 -27.0 -49.6 -25.25 -51.2 M-23.8 -34.6 L-22.5 -34.6 -22.5 -17.7 -23.8 -17.7 -23.8 -34.6 M-25.1 -15.25 L-24.9 -15.15 -28.95 -8.1 -24.9 -1.05 -26.0 -0.45 -30.4 -8.1 -26.0 -15.75 -25.1 -15.25 M-23.15 -0.4 L-6.2 -0.4 -6.2 0.3 -23.15 0.3 -23.15 -0.4 M-3.55 -2.5 L-4.0 -3.05 Q4.3 -5.0 4.65 -11.9 L-5.3 -11.9 -5.3 -13.35 4.8 -13.35 5.75 -13.55 6.45 -12.9 Q6.35 -8.7 4.25 -5.95 L4.15 -5.95 4.1 -5.85 4.1 -5.75 3.9 -5.5 Q1.55 -2.8 -2.85 -1.6 L-3.55 -2.5 M7.55 -1.0 L7.65 -1.05 7.7 -1.1 7.7 -1.15 12.65 -1.15 12.65 -0.35 7.55 -0.35 7.55 -1.0 M12.75 -1.15 L17.75 -1.15 17.75 -1.05 17.85 -1.0 17.85 -0.5 17.8 -0.45 17.75 -0.4 17.75 -0.35 12.75 -0.35 12.75 -1.15 M21.4 -1.6 L21.4 -1.65 21.3 -1.7 21.2 -1.7 21.15 -1.7 20.25 -2.85 20.3 -2.9 20.25 -3.0 20.2 -3.05 Q28.4 -5.05 28.75 -11.9 L18.8 -11.9 18.8 -13.35 20.2 -13.35 28.9 -13.35 29.85 -13.55 30.55 -12.9 Q30.3 -4.1 21.4 -1.6 M20.2 -17.7 L20.2 -34.55 21.5 -34.55 21.5 -17.7 20.2 -17.7 M23.9 -36.8 L23.4 -37.35 Q25.05 -39.15 25.7 -40.6 26.45 -42.2 26.45 -44.0 26.45 -46.1 25.7 -47.65 25.05 -49.0 23.4 -50.55 L24.1 -51.2 Q25.85 -49.6 26.55 -48.1 27.45 -46.3 27.45 -44.0 27.45 -41.9 26.55 -40.1 25.75 -38.45 24.1 -36.6 L23.9 -36.8 M28.9 -55.95 L28.4 -56.45 34.3 -61.9 28.4 -67.35 28.95 -67.9 29.0 -67.9 29.05 -67.85 29.15 -67.9 35.6 -61.9 29.05 -55.8 28.9 -55.95 M8.2 -63.65 L10.85 -58.9 13.5 -63.65 8.2 -63.65 M15.7 -67.75 L16.95 -67.0 10.85 -55.95 4.75 -67.0 6.0 -67.75 7.55 -65.05 14.15 -65.05 15.7 -67.75 M-1.35 -66.6 L-4.7 -69.55 -2.3 -69.55 0.15 -66.6 -1.35 -66.6 M26.0 -69.55 L22.6 -66.6 21.1 -66.6 23.6 -69.55 26.0 -69.55 M-0.3 -34.6 L-0.3 -17.7 -1.6 -17.7 -1.6 -34.6 -0.3 -34.6 M-14.9 -64.5 Q-11.95 -62.1 -9.8 -59.45 L-11.25 -58.2 Q-15.7 -63.15 -19.5 -65.75 L-18.25 -67.0 -14.9 -64.5" fill="#000000" fill-rule="evenodd" stroke="none"/>
  </g>
</svg>
