<svg xmlns:xlink="http://www.w3.org/1999/xlink" height="86.4px" width="62.15px" xmlns="http://www.w3.org/2000/svg">
  <g transform="matrix(1.0, 0.0, 0.0, 1.0, 26.05, 86.45)">
    <path d="M17.9 -76.1 Q16.7 -77.75 16.7 -79.95 16.7 -81.6 17.4 -82.95 L18.6 -84.55 Q20.45 -86.45 23.2 -86.45 25.95 -86.45 27.85 -84.55 29.15 -83.25 29.55 -81.5 L29.7 -79.95 Q29.7 -77.2 27.85 -75.3 27.15 -74.6 26.3 -74.15 24.9 -73.45 23.2 -73.45 20.45 -73.45 18.6 -75.3 L17.9 -76.1 M32.3 -68.05 L33.0 -68.7 Q34.6 -67.2 35.3 -65.75 35.85 -64.6 36.05 -63.2 L36.1 -61.85 Q36.1 -60.3 35.55 -58.85 L35.3 -58.25 Q34.55 -56.7 33.0 -54.95 L32.3 -55.6 Q33.85 -57.3 34.5 -58.7 35.2 -60.2 35.2 -61.85 35.2 -63.85 34.5 -65.3 L32.3 -68.05 M26.85 -50.8 Q27.45 -50.7 26.9 -50.3 L26.9 -44.5 26.75 -42.8 25.95 -40.55 Q24.7 -38.45 21.9 -37.25 L21.15 -38.7 Q25.45 -40.25 25.45 -45.2 L25.45 -50.8 26.85 -50.8 M16.4 -31.65 L16.75 -31.55 Q16.5 -27.6 14.55 -24.5 12.75 -21.35 9.65 -19.55 L8.65 -20.8 Q14.25 -23.95 15.15 -30.5 L15.25 -32.0 16.4 -31.65 M13.3 -14.05 L14.0 -14.7 Q15.6 -13.2 16.3 -11.75 17.1 -10.05 17.1 -7.85 17.1 -5.95 16.3 -4.25 15.55 -2.7 14.0 -0.95 L13.3 -1.6 Q14.85 -3.3 15.5 -4.7 16.2 -6.2 16.2 -7.85 16.2 -9.85 15.5 -11.3 L13.3 -14.05 M12.0 -0.75 L12.0 -0.05 -3.95 -0.05 -3.95 -0.75 12.0 -0.75 M-5.7 -1.2 L-5.95 -0.95 -6.5 -1.6 -8.25 -4.25 Q-9.05 -5.95 -9.05 -7.85 L-8.8 -10.0 -8.25 -11.75 Q-7.7 -12.9 -6.6 -14.05 L-5.95 -14.7 -5.25 -14.05 -5.75 -13.55 -7.45 -11.3 Q-8.15 -9.85 -8.15 -7.85 -8.15 -6.2 -7.45 -4.7 -6.8 -3.3 -5.25 -1.6 L-5.7 -1.2 M-12.6 -6.8 L-12.65 -6.55 Q-13.1 -4.0 -14.45 -2.8 -15.65 -1.7 -17.55 -1.7 -19.55 -1.6 -20.35 -2.6 -21.1 -3.55 -21.2 -5.8 L-21.2 -14.45 -19.95 -14.45 -19.95 -5.8 Q-19.95 -4.25 -19.35 -3.6 -18.8 -3.05 -17.05 -3.1 L-16.2 -3.3 Q-15.45 -3.6 -14.95 -4.35 -14.55 -4.95 -14.25 -5.9 L-14.0 -7.45 -12.6 -6.8 M-14.6 -20.5 L-15.65 -22.25 Q-16.45 -23.95 -16.45 -25.85 -16.45 -28.05 -15.65 -29.75 -14.95 -31.15 -13.45 -32.6 L-13.35 -32.7 -12.65 -32.05 Q-14.2 -30.6 -14.85 -29.3 -15.55 -27.85 -15.55 -25.85 -15.55 -24.2 -14.85 -22.7 -14.2 -21.3 -12.65 -19.6 L-13.35 -18.95 -14.6 -20.5 M-22.95 -36.95 Q-24.5 -38.7 -25.25 -40.25 -26.05 -41.95 -26.05 -43.85 -26.05 -46.05 -25.25 -47.75 -24.55 -49.2 -22.95 -50.7 L-22.25 -50.05 Q-23.8 -48.6 -24.45 -47.3 -25.15 -45.85 -25.15 -43.85 -25.15 -42.2 -24.45 -40.7 -23.8 -39.3 -22.25 -37.6 L-22.95 -36.95 M-18.95 -54.95 Q-20.5 -56.7 -21.25 -58.25 L-21.55 -59.05 Q-22.05 -60.4 -22.05 -61.85 -22.05 -63.25 -21.7 -64.45 L-21.25 -65.75 Q-20.55 -67.2 -18.95 -68.7 L-18.25 -68.05 Q-19.8 -66.6 -20.45 -65.3 L-20.95 -63.85 -21.15 -61.85 -20.8 -59.55 -20.45 -58.7 Q-19.8 -57.3 -18.25 -55.6 L-18.95 -54.95 M-13.75 -75.65 Q-15.3 -77.45 -15.3 -79.95 L-15.25 -80.85 Q-15.0 -83.0 -13.4 -84.55 -11.55 -86.45 -8.8 -86.45 -6.2 -86.45 -4.35 -84.75 L-4.15 -84.55 Q-2.3 -82.7 -2.3 -79.95 -2.3 -78.7 -2.65 -77.6 -3.15 -76.35 -4.15 -75.3 L-4.35 -75.1 Q-6.2 -73.45 -8.8 -73.45 L-9.3 -73.45 Q-11.7 -73.6 -13.4 -75.3 L-13.75 -75.65 M1.1 -77.55 Q0.7 -78.65 0.7 -79.95 0.7 -82.7 2.6 -84.55 L2.7 -84.65 Q4.5 -86.45 7.2 -86.45 9.95 -86.45 11.85 -84.55 L12.55 -83.7 Q13.7 -82.1 13.7 -79.95 13.7 -78.25 13.0 -76.85 L11.85 -75.3 10.4 -74.2 Q9.0 -73.45 7.2 -73.45 4.6 -73.45 2.8 -75.1 L2.6 -75.3 Q1.6 -76.3 1.1 -77.55 M11.55 -66.25 L8.45 -69.0 10.7 -69.0 13.0 -66.25 11.55 -66.25 M3.6 -67.3 L4.8 -66.6 -0.95 -56.2 -6.7 -66.6 -5.5 -67.3 -4.05 -64.75 2.2 -64.75 3.6 -67.3 M18.45 -62.35 Q18.45 -64.55 19.75 -65.85 21.1 -67.25 23.0 -67.25 24.85 -67.25 26.25 -65.85 L26.3 -65.8 Q27.55 -64.55 27.55 -62.35 L27.55 -56.45 26.35 -56.45 26.35 -62.35 Q26.35 -64.0 25.3 -65.05 24.35 -66.0 23.0 -66.0 21.6 -66.0 20.7 -65.05 19.6 -64.0 19.6 -62.35 L19.6 -56.45 18.45 -56.45 18.45 -62.35 M-13.9 -66.25 L-15.3 -66.25 -12.95 -69.0 -10.7 -69.0 -13.9 -66.25 M-0.95 -59.0 L1.55 -63.45 -3.45 -63.45 -0.95 -59.0 M-13.0 -47.3 L-16.2 -46.7 -19.7 -45.2 -20.25 -46.75 -16.25 -48.1 -13.2 -48.6 Q-11.55 -48.6 -10.5 -47.7 -9.05 -46.45 -9.2 -43.85 -9.3 -41.25 -11.2 -39.85 -12.7 -38.75 -15.25 -38.55 L-16.15 -38.55 -16.45 -40.0 Q-12.8 -40.0 -11.5 -41.5 -10.5 -42.5 -10.55 -44.35 -10.55 -45.7 -11.25 -46.5 -11.9 -47.25 -13.0 -47.3" fill="#000000" fill-rule="evenodd" stroke="none"/>
    <path d="M26.3 -74.15 L26.35 -74.15 Q32.05 -72.95 32.3 -68.05 L34.5 -65.3 Q35.2 -63.85 35.2 -61.85 35.2 -60.2 34.5 -58.7 33.85 -57.3 32.3 -55.6 28.8 -53.25 26.85 -50.8 L25.45 -50.8 25.45 -45.2 Q25.45 -40.25 21.15 -38.7 L21.9 -37.25 16.4 -31.65 15.25 -32.0 15.15 -30.5 Q14.25 -23.95 8.65 -20.8 L9.65 -19.55 Q12.7 -17.2 13.3 -14.05 L15.5 -11.3 Q16.2 -9.85 16.2 -7.85 16.2 -6.2 15.5 -4.7 14.85 -3.3 13.3 -1.6 12.05 -1.65 12.0 -0.75 L-3.95 -0.75 Q-5.0 -0.9 -5.7 -1.2 L-5.25 -1.6 Q-6.8 -3.3 -7.45 -4.7 -8.15 -6.2 -8.15 -7.85 -8.15 -9.85 -7.45 -11.3 L-5.75 -13.55 -5.25 -14.05 -5.95 -14.7 -6.6 -14.05 Q-7.7 -12.9 -8.25 -11.75 L-8.8 -10.0 Q-10.4 -7.75 -12.5 -6.6 L-12.6 -6.8 -14.0 -7.45 -14.25 -5.9 Q-14.55 -4.95 -14.95 -4.35 -15.45 -3.6 -16.2 -3.3 L-17.05 -3.1 Q-18.8 -3.05 -19.35 -3.6 -19.95 -4.25 -19.95 -5.8 L-19.95 -14.45 Q-17.75 -17.8 -14.6 -20.5 L-13.35 -18.95 -12.65 -19.6 Q-14.2 -21.3 -14.85 -22.7 -15.55 -24.2 -15.55 -25.85 -15.55 -27.85 -14.85 -29.3 -14.2 -30.6 -12.65 -32.05 L-13.35 -32.7 -13.45 -32.6 Q-18.3 -35.8 -22.95 -36.95 L-22.25 -37.6 Q-23.8 -39.3 -24.45 -40.7 -25.15 -42.2 -25.15 -43.85 -25.15 -45.85 -24.45 -47.3 -23.8 -48.6 -22.25 -50.05 L-18.95 -54.95 -18.25 -55.6 Q-19.8 -57.3 -20.45 -58.7 L-20.8 -59.55 -21.15 -61.85 -20.95 -63.85 -20.45 -65.3 Q-19.8 -66.6 -18.25 -68.05 -17.0 -73.3 -13.75 -75.65 L-13.4 -75.3 Q-11.7 -73.6 -9.3 -73.45 L-8.8 -73.45 Q-6.2 -73.45 -4.35 -75.1 L-4.15 -75.3 Q-3.15 -76.35 -2.65 -77.6 L1.1 -77.55 Q1.6 -76.3 2.6 -75.3 L2.8 -75.1 Q4.6 -73.45 7.2 -73.45 9.0 -73.45 10.4 -74.2 L11.85 -75.3 13.0 -76.85 17.9 -76.1 18.6 -75.3 Q20.45 -73.45 23.2 -73.45 24.9 -73.45 26.3 -74.15 M-13.0 -47.3 Q-11.9 -47.25 -11.25 -46.5 -10.55 -45.7 -10.55 -44.35 -10.5 -42.5 -11.5 -41.5 -12.8 -40.0 -16.45 -40.0 L-16.15 -38.55 -15.25 -38.55 Q-12.7 -38.75 -11.2 -39.85 -9.3 -41.25 -9.2 -43.85 -9.05 -46.45 -10.5 -47.7 -11.55 -48.6 -13.2 -48.6 L-16.25 -48.1 -20.25 -46.75 -19.7 -45.2 -16.2 -46.7 -13.0 -47.3 M-0.95 -59.0 L-3.45 -63.45 1.55 -63.45 -0.95 -59.0 M-13.9 -66.25 L-10.7 -69.0 -12.95 -69.0 -15.3 -66.25 -13.9 -66.25 M18.45 -62.35 L18.45 -56.45 19.6 -56.45 19.6 -62.35 Q19.6 -64.0 20.7 -65.05 21.6 -66.0 23.0 -66.0 24.35 -66.0 25.3 -65.05 26.35 -64.0 26.35 -62.35 L26.35 -56.45 27.55 -56.45 27.55 -62.35 Q27.55 -64.55 26.3 -65.8 L26.25 -65.85 Q24.85 -67.25 23.0 -67.25 21.1 -67.25 19.75 -65.85 18.45 -64.55 18.45 -62.35 M3.6 -67.3 L2.2 -64.75 -4.05 -64.75 -5.5 -67.3 -6.7 -66.6 -0.95 -56.2 4.8 -66.6 3.6 -67.3 M11.55 -66.25 L13.0 -66.25 10.7 -69.0 8.45 -69.0 11.55 -66.25" fill="#ffffff" fill-rule="evenodd" stroke="none"/>
  </g>
</svg>
