<svg xmlns:xlink="http://www.w3.org/1999/xlink" height="97.95px" width="61.85px" xmlns="http://www.w3.org/2000/svg">
  <g transform="matrix(1.0, 0.0, 0.0, 1.0, 30.95, 49.0)">
    <path d="M22.6 -49.0 L24.15 -49.0 26.5 -45.7 26.6 -45.7 28.95 -49.0 30.45 -49.0 27.2 -44.6 30.9 -39.85 29.4 -39.85 26.6 -43.6 26.5 -43.6 23.75 -39.85 22.2 -39.85 25.85 -44.6 22.6 -49.0 M-29.75 0.65 Q-28.95 -0.1 -27.9 -0.05 -26.85 -0.1 -25.5 0.7 -24.1 1.55 -23.15 1.6 -22.4 1.55 -21.7 0.85 L-21.1 0.0 -20.0 0.85 -21.25 2.25 Q-22.1 3.05 -23.25 3.05 -24.15 3.05 -25.8 2.1 -27.0 1.35 -27.8 1.35 -28.75 1.35 -29.25 1.9 L-29.8 2.85 -30.95 2.15 -29.75 0.65 M16.15 -23.9 L15.8 -23.9 15.8 -29.0 Q15.8 -30.85 16.9 -31.95 18.1 -33.15 19.7 -33.15 21.25 -33.15 22.5 -31.95 23.6 -30.85 23.6 -29.0 L23.6 -23.9 22.7 -23.9 22.6 -23.9 22.6 -29.0 Q22.6 -30.35 21.7 -31.25 20.85 -32.05 19.7 -32.05 18.5 -32.05 17.7 -31.25 16.75 -30.35 16.8 -29.0 L16.8 -23.9 16.15 -23.9 M22.55 -20.3 L23.05 -20.3 Q23.55 -20.25 23.1 -19.9 L23.1 -14.95 Q23.1 -10.6 18.85 -8.75 L18.4 -9.6 18.15 -10.0 Q21.85 -11.3 21.85 -15.55 L21.85 -20.3 22.55 -20.3 M13.15 -7.85 L13.15 -7.7 12.75 -7.7 12.05 -7.7 12.05 -21.3 13.15 -21.3 13.15 -7.85 M12.75 -2.4 L16.5 -2.4 Q18.35 -2.4 19.5 -1.25 20.65 -0.1 20.65 1.5 20.65 3.1 19.5 4.25 18.35 5.4 16.5 5.4 L12.85 5.4 11.4 5.4 11.4 4.35 16.5 4.35 Q17.85 4.35 18.8 3.45 19.55 2.65 19.6 1.5 19.55 0.3 18.8 -0.45 17.85 -1.4 16.5 -1.4 L11.4 -1.4 11.4 -2.4 12.75 -2.4 M13.65 11.05 L13.8 10.75 14.35 11.05 8.7 21.2 8.3 20.95 8.15 20.85 13.65 11.05 M6.6 25.05 L7.05 25.2 Q6.8 28.55 5.15 31.2 3.6 33.9 1.0 35.45 L0.45 34.8 0.15 34.4 Q5.45 31.4 5.8 24.85 L6.6 25.05 M-2.2 39.7 L-1.7 39.7 -1.7 46.15 Q-1.7 47.35 -2.45 48.1 -3.3 48.95 -5.1 48.95 -6.95 48.95 -7.8 48.1 -8.55 47.35 -8.55 46.15 L-8.55 40.05 -8.55 39.7 -7.35 39.7 -7.35 46.1 Q-7.35 46.9 -6.8 47.35 -6.25 47.9 -5.1 47.95 -4.0 47.9 -3.4 47.35 -2.95 46.9 -2.95 46.1 L-2.95 39.7 -2.2 39.7 M-10.45 39.85 L-10.45 46.15 Q-10.5 47.35 -11.2 48.1 -12.1 48.95 -13.9 48.95 -15.7 48.95 -16.55 48.1 -17.3 47.35 -17.3 46.15 L-17.3 39.7 -16.1 39.7 -16.1 46.1 Q-16.15 46.9 -15.6 47.35 -15.05 47.9 -13.9 47.95 -12.75 47.9 -12.2 47.35 -11.75 46.9 -11.7 46.1 L-11.7 39.7 -10.45 39.7 -10.45 39.85 M-13.3 34.15 L-13.55 33.85 -13.1 33.45 Q-10.55 31.0 -9.5 25.8 L-9.4 25.05 -8.25 25.65 Q-7.85 25.85 -8.25 25.9 -9.35 31.95 -12.7 35.0 L-13.3 34.15 M-12.85 21.55 L-13.15 21.85 -15.15 19.0 Q-15.85 17.6 -15.85 15.95 -15.85 14.05 -15.15 12.65 -14.55 11.4 -13.25 10.15 L-13.15 10.05 -12.6 10.65 Q-13.9 11.85 -14.4 13.0 -15.05 14.2 -15.05 15.95 -15.05 17.35 -14.4 18.6 L-12.95 20.8 -12.6 21.25 -12.85 21.55 M-13.4 7.45 L-13.45 7.5 -15.45 4.65 Q-16.15 3.25 -16.1 1.6 -16.15 -0.3 -15.45 -1.75 -14.9 -2.9 -13.65 -4.05 L-13.45 -4.3 -12.85 -3.7 Q-14.2 -2.55 -14.7 -1.4 -15.35 -0.15 -15.3 1.6 -15.35 3.0 -14.7 4.25 -14.2 5.45 -12.85 6.9 L-13.4 7.45 M-13.0 -7.7 L-13.05 -7.7 -13.05 -21.3 -11.95 -21.3 -11.95 -7.7 -13.0 -7.7 M-15.7 -24.8 L-15.7 -24.0 -25.7 -24.0 -16.7 -34.05 -16.15 -33.55 -15.95 -33.3 -23.4 -25.05 -15.7 -25.05 -15.7 -24.8 M-13.65 -34.9 L-13.65 -35.5 -0.05 -35.5 -0.05 -34.9 -13.65 -34.9 M1.1 -33.5 L1.35 -33.75 12.95 -24.1 12.6 -23.65 12.4 -23.35 0.7 -33.1 1.1 -33.5 M-1.9 -20.35 Q-2.15 -20.6 -2.55 -20.6 L-3.1 -20.35 -3.35 -19.8 -3.1 -19.25 Q-2.9 -19.0 -2.55 -19.0 -2.15 -19.0 -1.9 -19.25 -1.75 -19.4 -1.75 -19.8 -1.75 -20.2 -1.9 -20.35 M-1.3 -19.8 Q-1.3 -19.35 -1.7 -18.95 -2.05 -18.55 -2.55 -18.55 -3.0 -18.55 -3.4 -18.95 -3.75 -19.35 -3.75 -19.8 -3.75 -20.3 -3.4 -20.65 -3.0 -21.05 -2.55 -21.05 -2.05 -21.05 -1.7 -20.65 -1.3 -20.3 -1.3 -19.8 M10.25 -20.65 L10.65 -19.8 10.25 -18.95 Q9.85 -18.55 9.35 -18.55 8.9 -18.55 8.5 -18.95 8.15 -19.35 8.15 -19.8 8.15 -20.3 8.5 -20.65 8.9 -21.05 9.35 -21.05 9.85 -21.05 10.25 -20.65 M9.35 -20.6 L8.8 -20.35 8.55 -19.8 Q8.55 -19.4 8.8 -19.25 9.0 -19.0 9.35 -19.0 9.75 -19.0 10.0 -19.25 L10.15 -19.8 10.0 -20.35 9.35 -20.6 M-10.6 -9.5 L-4.95 -19.55 -4.45 -19.3 -10.05 -9.15 -10.6 -9.5 M-2.45 -2.8 L6.35 -2.8 6.35 -1.65 -2.45 -1.65 -2.45 -2.8 M-8.65 -4.5 L-6.65 -2.2 -7.85 -2.2 -10.55 -4.5 -8.65 -4.5 M6.85 -18.9 L6.85 -12.45 Q6.85 -11.25 6.1 -10.5 5.25 -9.65 3.45 -9.65 1.6 -9.65 0.75 -10.5 0.0 -11.25 0.0 -12.45 L0.0 -18.9 1.2 -18.9 1.2 -12.5 Q1.2 -11.7 1.75 -11.25 2.3 -10.7 3.45 -10.7 4.55 -10.7 5.15 -11.25 5.6 -11.7 5.6 -12.5 L5.6 -18.9 6.85 -18.9 M7.65 4.45 L7.65 5.65 -3.85 5.65 -3.85 4.45 7.65 4.45 M0.1 12.85 Q4.4 15.6 6.4 18.4 L5.05 19.5 Q3.05 16.55 -1.05 13.9 L0.1 12.85 M-6.4 25.2 L-1.1 30.15 -6.4 35.05 -6.95 34.45 -2.2 30.15 -6.95 25.75 -6.4 25.2" fill="#000000" fill-rule="evenodd" stroke="none"/>
    <path d="M22.7 -23.9 L22.55 -20.3 21.85 -20.3 21.85 -15.55 Q21.85 -11.3 18.15 -10.0 L18.4 -9.6 13.15 -7.85 13.15 -21.3 12.05 -21.3 12.05 -7.7 12.75 -7.7 12.75 -2.4 11.4 -2.4 11.4 -1.4 16.5 -1.4 Q17.85 -1.4 18.8 -0.45 19.55 0.3 19.6 1.5 19.55 2.65 18.8 3.45 17.85 4.35 16.5 4.35 L11.4 4.35 11.4 5.4 12.85 5.4 13.65 11.05 8.15 20.85 8.3 20.95 6.6 25.05 5.8 24.85 Q5.45 31.4 0.15 34.4 L0.45 34.8 -2.2 39.7 -2.95 39.7 -2.95 46.1 Q-2.95 46.9 -3.4 47.35 -4.0 47.9 -5.1 47.95 -6.25 47.9 -6.8 47.35 -7.35 46.9 -7.35 46.1 L-7.35 39.7 -8.55 39.7 -8.55 40.05 -10.45 39.85 -10.45 39.7 -11.7 39.7 -11.7 46.1 Q-11.75 46.9 -12.2 47.35 -12.75 47.9 -13.9 47.95 -15.05 47.9 -15.6 47.35 -16.15 46.9 -16.1 46.1 L-16.1 39.7 -16.3 39.6 -13.3 34.15 -12.7 35.0 Q-9.35 31.95 -8.25 25.9 -7.85 25.85 -8.25 25.65 L-9.4 25.05 -9.5 25.8 -12.85 21.55 -12.6 21.25 -12.95 20.8 -14.4 18.6 Q-15.05 17.35 -15.05 15.95 -15.05 14.2 -14.4 13.0 -13.9 11.85 -12.6 10.65 L-13.15 10.05 -13.25 10.05 -13.4 7.45 -12.85 6.9 Q-14.2 5.45 -14.7 4.25 -15.35 3.0 -15.3 1.6 -15.35 -0.15 -14.7 -1.4 -14.2 -2.55 -12.85 -3.7 L-13.45 -4.3 -13.6 -4.3 -13.0 -7.7 -11.95 -7.7 -11.95 -21.3 -13.05 -21.3 -13.1 -21.25 -15.7 -24.8 -15.7 -25.05 -23.4 -25.05 -15.95 -33.3 -16.15 -33.55 -13.7 -34.95 -13.65 -34.9 -0.05 -34.9 -0.05 -35.5 1.1 -33.5 0.7 -33.1 12.4 -23.35 12.6 -23.65 14.6 -20.75 16.15 -23.9 16.8 -23.9 16.8 -29.0 Q16.75 -30.35 17.7 -31.25 18.5 -32.05 19.7 -32.05 20.85 -32.05 21.7 -31.25 22.6 -30.35 22.6 -29.0 L22.6 -23.9 22.7 -23.9 M-6.4 25.2 L-6.95 25.75 -2.2 30.15 -6.95 34.45 -6.4 35.05 -1.1 30.15 -6.4 25.2 M0.1 12.85 L-1.05 13.9 Q3.05 16.55 5.05 19.5 L6.4 18.4 Q4.4 15.6 0.1 12.85 M7.65 4.45 L-3.85 4.45 -3.85 5.65 7.65 5.65 7.65 4.45 M6.85 -18.9 L5.6 -18.9 5.6 -12.5 Q5.6 -11.7 5.15 -11.25 4.55 -10.7 3.45 -10.7 2.3 -10.7 1.75 -11.25 1.2 -11.7 1.2 -12.5 L1.2 -18.9 0.0 -18.9 0.0 -12.45 Q0.0 -11.25 0.75 -10.5 1.6 -9.65 3.45 -9.65 5.25 -9.65 6.1 -10.5 6.85 -11.25 6.85 -12.45 L6.85 -18.9 M-8.65 -4.5 L-10.55 -4.5 -7.85 -2.2 -6.65 -2.2 -8.65 -4.5 M-2.45 -2.8 L-2.45 -1.65 6.35 -1.65 6.35 -2.8 -2.45 -2.8 M-10.6 -9.5 L-10.05 -9.15 -4.45 -19.3 -4.95 -19.55 -10.6 -9.5 M9.35 -20.6 L10.0 -20.35 10.15 -19.8 10.0 -19.25 Q9.75 -19.0 9.35 -19.0 9.0 -19.0 8.8 -19.25 8.55 -19.4 8.55 -19.8 L8.8 -20.35 9.35 -20.6 M10.25 -20.65 Q9.85 -21.05 9.35 -21.05 8.9 -21.05 8.5 -20.65 8.15 -20.3 8.15 -19.8 8.15 -19.35 8.5 -18.95 8.9 -18.55 9.35 -18.55 9.85 -18.55 10.25 -18.95 L10.65 -19.8 10.25 -20.65 M-1.3 -19.8 Q-1.3 -20.3 -1.7 -20.65 -2.05 -21.05 -2.55 -21.05 -3.0 -21.05 -3.4 -20.65 -3.75 -20.3 -3.75 -19.8 -3.75 -19.35 -3.4 -18.95 -3.0 -18.55 -2.55 -18.55 -2.05 -18.55 -1.7 -18.95 -1.3 -19.35 -1.3 -19.8 M-1.9 -20.35 Q-1.75 -20.2 -1.75 -19.8 -1.75 -19.4 -1.9 -19.25 -2.15 -19.0 -2.55 -19.0 -2.9 -19.0 -3.1 -19.25 L-3.35 -19.8 -3.1 -20.35 -2.55 -20.6 Q-2.15 -20.6 -1.9 -20.35" fill="#ffffff" fill-rule="evenodd" stroke="none"/>
  </g>
</svg>
