<svg xmlns:xlink="http://www.w3.org/1999/xlink" height="98.8px" width="59.0px" xmlns="http://www.w3.org/2000/svg">
  <g transform="matrix(1.0, 0.0, 0.0, 1.0, 29.5, 49.4)">
    <path d="M21.55 -49.4 L23.05 -49.4 25.25 -46.25 25.35 -46.25 27.6 -49.4 29.05 -49.4 25.95 -45.2 29.5 -40.7 28.0 -40.7 25.35 -44.25 25.25 -44.25 22.65 -40.7 21.2 -40.7 24.65 -45.2 21.55 -49.4 M15.75 -25.7 L14.8 -25.7 14.8 -30.55 Q14.8 -31.55 15.15 -32.3 L15.85 -33.35 Q17.0 -34.5 18.5 -34.5 20.0 -34.5 21.15 -33.35 L22.1 -31.7 22.2 -30.55 22.2 -25.7 21.25 -25.7 21.25 -30.55 21.0 -31.85 20.4 -32.7 Q19.6 -33.45 18.5 -33.45 17.4 -33.45 16.6 -32.7 L16.25 -32.25 Q15.75 -31.55 15.75 -30.55 L15.75 -25.7 M20.95 -20.75 L22.05 -20.75 Q22.6 -20.65 22.1 -20.35 L22.1 -16.15 21.85 -14.0 21.35 -12.65 Q20.35 -10.7 18.05 -9.75 L17.45 -10.9 Q19.15 -11.5 20.05 -12.8 L20.65 -14.0 20.95 -16.2 20.95 -20.75 M13.15 -3.9 L15.55 -3.9 Q17.35 -3.9 18.4 -2.8 19.5 -1.7 19.5 -0.15 19.5 1.35 18.4 2.45 17.35 3.55 15.55 3.55 L13.15 3.55 10.75 3.55 10.75 2.55 15.55 2.55 Q16.9 2.55 17.75 1.7 18.5 0.95 18.5 -0.15 18.5 -1.3 17.75 -2.05 16.9 -2.9 15.55 -2.9 L10.75 -2.9 10.75 -3.9 13.15 -3.9 M13.55 10.2 L13.65 10.25 8.25 19.85 7.75 19.55 13.15 9.95 13.55 10.2 M6.65 25.25 Q6.45 28.45 4.9 31.0 3.4 33.55 0.9 35.0 L0.1 34.0 Q5.15 31.15 5.45 24.9 L6.65 25.25 M-2.8 40.6 L-1.65 40.6 -1.65 46.75 Q-1.65 47.9 -2.35 48.6 -3.15 49.4 -4.9 49.4 -6.6 49.4 -7.4 48.6 -8.15 47.9 -8.15 46.75 L-8.15 40.6 -6.95 40.6 -6.95 46.7 Q-6.95 47.4 -6.5 47.9 -5.95 48.45 -4.9 48.45 -3.8 48.45 -3.25 47.9 -2.8 47.4 -2.8 46.7 L-2.8 40.6 M-10.0 40.6 L-10.0 46.75 Q-10.0 47.9 -10.7 48.6 -11.5 49.4 -13.25 49.4 -14.95 49.4 -15.75 48.6 -16.5 47.9 -16.5 46.75 L-16.5 40.6 -15.3 40.6 -15.3 46.7 Q-15.3 47.4 -14.85 47.9 -14.3 48.45 -13.25 48.45 -12.15 48.45 -11.6 47.9 -11.15 47.4 -11.15 46.7 L-11.15 40.6 -10.0 40.6 M-12.1 34.55 L-12.9 33.5 Q-9.95 31.05 -8.95 25.15 L-7.85 25.65 -7.7 25.8 -7.85 25.95 Q-8.9 31.7 -12.1 34.55 M-12.5 20.5 L-14.4 17.85 Q-15.05 16.45 -15.05 14.9 -15.05 13.1 -14.4 11.75 -13.85 10.55 -12.5 9.35 L-11.95 9.85 Q-13.25 11.0 -13.75 12.1 -14.3 13.25 -14.3 14.9 -14.3 16.25 -13.75 17.45 -13.25 18.6 -11.95 19.95 L-12.5 20.5 M-12.3 4.95 L-12.85 5.5 -14.75 2.85 Q-15.4 1.45 -15.4 -0.1 -15.4 -1.9 -14.75 -3.25 -14.2 -4.45 -12.85 -5.65 L-12.3 -5.15 Q-13.6 -4.0 -14.1 -2.9 -14.65 -1.75 -14.65 -0.1 -14.65 1.25 -14.1 2.45 -13.6 3.6 -12.3 4.95 M-12.45 -8.75 L-12.45 -21.65 -11.4 -21.65 -11.4 -8.75 -12.45 -8.75 M-15.85 -25.8 L-24.5 -25.8 -15.95 -35.35 -15.25 -34.65 -22.3 -26.8 -15.0 -26.8 -15.0 -25.8 -15.85 -25.8 M-13.05 -36.15 L-13.05 -36.7 -0.1 -36.7 -0.1 -36.15 -13.05 -36.15 M0.6 -34.45 L1.15 -35.1 12.25 -25.85 11.7 -25.2 0.6 -34.45 M11.45 -21.65 L12.5 -21.65 12.5 -15.75 12.5 -8.75 11.45 -8.75 11.45 -21.65 M6.5 -19.4 L6.5 -13.25 Q6.5 -12.1 5.8 -11.4 5.0 -10.6 3.25 -10.6 1.55 -10.6 0.75 -11.4 0.0 -12.1 0.0 -13.25 L0.0 -19.4 1.2 -19.4 1.2 -13.3 Q1.2 -12.6 1.65 -12.1 2.2 -11.55 3.25 -11.55 4.35 -11.55 4.9 -12.1 5.35 -12.6 5.35 -13.3 L5.35 -19.4 6.5 -19.4 M8.9 -21.0 Q8.55 -21.0 8.35 -20.8 L8.15 -20.25 8.35 -19.7 Q8.55 -19.5 8.9 -19.5 L9.5 -19.7 Q9.7 -19.9 9.7 -20.25 L9.5 -20.8 8.9 -21.0 M7.75 -20.25 Q7.75 -20.7 8.1 -21.05 8.45 -21.4 8.9 -21.4 9.4 -21.4 9.75 -21.05 L10.1 -20.25 Q10.1 -19.8 9.75 -19.45 9.4 -19.1 8.9 -19.1 8.45 -19.1 8.1 -19.45 L7.8 -19.95 7.75 -20.25 M5.9 -3.15 L-2.4 -3.15 -2.4 -4.3 5.9 -4.3 5.9 -3.15 M7.2 3.75 L-3.8 3.75 -3.8 2.6 7.2 2.6 7.2 3.75 M4.8 18.3 Q2.9 15.5 -1.0 12.95 L0.1 12.0 Q4.2 14.6 6.1 17.2 L4.8 18.3 M-4.2 -19.75 L-9.6 -10.15 -10.1 -10.45 -4.7 -20.05 -4.2 -19.75 M-3.6 -20.25 L-3.25 -21.05 Q-2.9 -21.4 -2.45 -21.4 -1.95 -21.4 -1.6 -21.05 -1.25 -20.7 -1.25 -20.25 L-1.25 -19.95 -1.6 -19.45 Q-1.95 -19.1 -2.45 -19.1 -2.9 -19.1 -3.25 -19.45 L-3.55 -20.0 -3.6 -20.25 M-2.45 -21.0 L-3.0 -20.8 -3.2 -20.25 -3.0 -19.7 -2.45 -19.5 -1.85 -19.7 -1.65 -20.25 -1.85 -20.8 -2.45 -21.0 M-29.5 0.45 L-28.35 -1.0 Q-27.6 -1.7 -26.65 -1.7 -25.6 -1.7 -24.35 -0.95 -23.0 -0.1 -22.05 -0.1 -21.4 -0.1 -20.75 -0.8 L-20.15 -1.65 -19.1 -0.8 -20.3 0.55 Q-21.1 1.3 -22.2 1.3 -23.1 1.3 -24.6 0.4 -25.75 -0.3 -26.55 -0.3 -27.4 -0.3 -27.85 0.25 L-28.4 1.1 -29.5 0.45 M-8.3 -5.9 L-6.45 -3.65 -7.6 -3.65 -10.15 -5.9 -8.3 -5.9 M-6.65 25.75 L-6.15 25.25 -1.1 29.95 -6.15 34.6 -6.65 34.1 -2.1 29.95 -6.65 25.75" fill="#000000" fill-rule="evenodd" stroke="none"/>
    <path d="M21.25 -25.7 Q20.95 -23.5 20.95 -20.75 L20.95 -16.2 20.65 -14.0 20.05 -12.8 Q19.15 -11.5 17.45 -10.9 L18.05 -9.75 Q15.9 -7.75 12.95 -7.45 L13.15 -3.9 10.75 -3.9 10.75 -2.9 15.55 -2.9 Q16.9 -2.9 17.75 -2.05 18.5 -1.3 18.5 -0.15 18.5 0.95 17.75 1.7 16.9 2.55 15.55 2.55 L10.75 2.55 10.75 3.55 13.15 3.55 Q13.65 7.0 13.65 9.95 L13.55 10.2 13.15 9.95 7.75 19.55 7.35 19.65 Q7.85 21.95 6.65 25.25 L5.45 24.9 Q5.15 31.15 0.1 34.0 L0.9 35.0 0.8 35.05 Q-2.45 36.85 -2.75 40.4 L-2.8 40.6 -2.8 46.7 Q-2.8 47.4 -3.25 47.9 -3.8 48.45 -4.9 48.45 -5.95 48.45 -6.5 47.9 -6.95 47.4 -6.95 46.7 L-6.95 40.6 -8.15 40.6 -9.0 39.35 -9.4 39.75 -10.0 40.6 -11.15 40.6 -11.15 46.7 Q-11.15 47.4 -11.6 47.9 -12.15 48.45 -13.25 48.45 -14.3 48.45 -14.85 47.9 -15.3 47.4 -15.3 46.7 L-15.3 40.6 -16.45 40.3 Q-15.6 35.95 -12.3 34.65 L-12.1 34.55 Q-8.9 31.7 -7.85 25.95 L-6.65 25.75 -7.7 25.8 -7.85 25.65 -8.95 25.15 Q-10.7 22.5 -12.5 20.5 L-11.95 19.95 Q-13.25 18.6 -13.75 17.45 -14.3 16.25 -14.3 14.9 -14.3 13.25 -13.75 12.1 -13.25 11.0 -11.95 9.85 -11.5 7.6 -11.65 5.6 L-12.3 4.95 Q-13.6 3.6 -14.1 2.45 -14.65 1.25 -14.65 -0.1 -14.65 -1.75 -14.1 -2.9 -13.6 -4.0 -12.3 -5.15 L-12.15 -5.55 Q-11.85 -7.0 -12.35 -8.5 L-12.45 -8.75 -11.4 -8.75 -11.4 -21.65 -11.45 -21.85 Q-12.0 -23.65 -12.15 -25.5 L-14.9 -25.7 -15.85 -25.8 -15.0 -25.8 -15.0 -26.8 -22.3 -26.8 -15.25 -34.65 -15.95 -35.35 Q-15.05 -35.95 -13.25 -36.6 L-13.05 -36.15 -0.1 -36.15 Q0.15 -35.45 0.95 -35.15 L0.6 -34.45 11.7 -25.2 11.5 -21.75 11.45 -21.65 11.45 -8.75 12.5 -8.75 12.6 -7.4 12.95 -7.45 12.5 -8.75 12.5 -15.75 13.4 -17.1 Q15.9 -20.55 14.85 -25.55 L15.75 -25.7 15.75 -30.55 Q15.75 -31.55 16.25 -32.25 L16.6 -32.7 Q17.4 -33.45 18.5 -33.45 19.6 -33.45 20.4 -32.7 L21.0 -31.85 21.25 -30.55 21.25 -25.7 M7.75 -20.25 L7.8 -19.95 8.1 -19.45 Q8.45 -19.1 8.9 -19.1 9.4 -19.1 9.75 -19.45 10.1 -19.8 10.1 -20.25 L9.75 -21.05 Q9.4 -21.4 8.9 -21.4 8.45 -21.4 8.1 -21.05 7.75 -20.7 7.75 -20.25 M8.9 -21.0 L9.5 -20.8 9.7 -20.25 Q9.7 -19.9 9.5 -19.7 L8.9 -19.5 Q8.55 -19.5 8.35 -19.7 L8.15 -20.25 8.35 -20.8 Q8.55 -21.0 8.9 -21.0 M6.5 -19.4 L5.35 -19.4 5.35 -13.3 Q5.35 -12.6 4.9 -12.1 4.35 -11.55 3.25 -11.55 2.2 -11.55 1.65 -12.1 1.2 -12.6 1.2 -13.3 L1.2 -19.4 0.0 -19.4 0.0 -13.25 Q0.0 -12.1 0.75 -11.4 1.55 -10.6 3.25 -10.6 5.0 -10.6 5.8 -11.4 6.5 -12.1 6.5 -13.25 L6.5 -19.4 M-2.45 -21.0 L-1.85 -20.8 -1.65 -20.25 -1.85 -19.7 -2.45 -19.5 -3.0 -19.7 -3.2 -20.25 -3.0 -20.8 -2.45 -21.0 M-3.6 -20.25 L-3.55 -20.0 -3.25 -19.45 Q-2.9 -19.1 -2.45 -19.1 -1.95 -19.1 -1.6 -19.45 L-1.25 -19.95 -1.25 -20.25 Q-1.25 -20.7 -1.6 -21.05 -1.95 -21.4 -2.45 -21.4 -2.9 -21.4 -3.25 -21.05 L-3.6 -20.25 M-4.2 -19.75 L-4.7 -20.05 -10.1 -10.45 -9.6 -10.15 -4.2 -19.75 M4.8 18.3 L6.1 17.2 Q4.2 14.6 0.1 12.0 L-1.0 12.95 Q2.9 15.5 4.8 18.3 M7.2 3.75 L7.2 2.6 -3.8 2.6 -3.8 3.75 7.2 3.75 M5.9 -3.15 L5.9 -4.3 -2.4 -4.3 -2.4 -3.15 5.9 -3.15 M-8.3 -5.9 L-10.15 -5.9 -7.6 -3.65 -6.45 -3.65 -8.3 -5.9 M-6.65 25.75 L-2.1 29.95 -6.65 34.1 -6.15 34.6 -1.1 29.95 -6.15 25.25 -6.65 25.75" fill="#ffffff" fill-rule="evenodd" stroke="none"/>
  </g>
</svg>
