<svg xmlns:xlink="http://www.w3.org/1999/xlink" height="86.1px" width="51.85px" xmlns="http://www.w3.org/2000/svg">
  <g transform="matrix(1.0, 0.0, 0.0, 1.0, 31.55, 92.0)">
    <path d="M13.7 -81.0 L12.75 -81.0 12.75 -85.85 Q12.75 -86.85 13.1 -87.6 L13.8 -88.65 Q14.95 -89.8 16.45 -89.8 17.95 -89.8 19.1 -88.65 19.8 -87.95 20.05 -87.0 L20.15 -85.85 20.15 -81.0 19.2 -81.0 19.2 -85.85 18.95 -87.15 18.35 -88.0 Q17.55 -88.75 16.45 -88.75 15.35 -88.75 14.55 -88.0 L14.2 -87.55 Q13.7 -86.85 13.7 -85.85 L13.7 -81.0 M18.9 -76.05 L20.0 -76.05 Q20.55 -75.95 20.05 -75.65 L20.05 -71.45 19.8 -69.3 19.3 -67.95 Q18.3 -66.0 16.0 -65.05 L15.4 -66.2 Q17.1 -66.8 18.0 -68.1 L18.6 -69.3 18.9 -71.5 18.9 -76.05 M11.1 -59.2 L13.5 -59.2 Q15.3 -59.2 16.35 -58.1 17.45 -57.0 17.45 -55.45 17.45 -53.95 16.35 -52.85 15.3 -51.75 13.5 -51.75 L11.1 -51.75 8.7 -51.75 8.7 -52.75 13.5 -52.75 Q14.85 -52.75 15.7 -53.6 16.45 -54.35 16.45 -55.45 16.45 -56.6 15.7 -57.35 14.85 -58.2 13.5 -58.2 L8.7 -58.2 8.7 -59.2 11.1 -59.2 M11.5 -45.1 L11.6 -45.05 6.2 -35.45 5.7 -35.75 11.1 -45.35 11.5 -45.1 M4.6 -30.05 Q4.4 -26.85 2.85 -24.3 1.35 -21.75 -1.15 -20.3 L-1.95 -21.3 Q3.1 -24.15 3.4 -30.4 L4.6 -30.05 M-4.85 -14.7 L-3.7 -14.7 -3.7 -8.55 Q-3.7 -7.4 -4.4 -6.7 -5.2 -5.9 -6.95 -5.9 -8.65 -5.9 -9.45 -6.7 -10.2 -7.4 -10.2 -8.55 L-10.2 -14.7 -9.0 -14.7 -9.0 -8.6 Q-9.0 -7.9 -8.55 -7.4 -8.0 -6.85 -6.95 -6.85 -5.85 -6.85 -5.3 -7.4 -4.85 -7.9 -4.85 -8.6 L-4.85 -14.7 M-12.05 -14.7 L-12.05 -8.55 Q-12.05 -7.4 -12.75 -6.7 -13.55 -5.9 -15.3 -5.9 -17.0 -5.9 -17.8 -6.7 -18.55 -7.4 -18.55 -8.55 L-18.55 -14.7 -17.35 -14.7 -17.35 -8.6 Q-17.35 -7.9 -16.9 -7.4 -16.35 -6.85 -15.3 -6.85 -14.2 -6.85 -13.65 -7.4 -13.2 -7.9 -13.2 -8.6 L-13.2 -14.7 -12.05 -14.7 M-14.15 -20.75 L-14.95 -21.8 Q-12.0 -24.25 -11.0 -30.15 L-9.9 -29.65 -9.75 -29.5 Q-9.65 -29.4 -9.9 -29.35 -10.95 -23.6 -14.15 -20.75 M-14.55 -34.8 Q-15.85 -36.2 -16.45 -37.45 -17.1 -38.85 -17.1 -40.4 -17.1 -42.2 -16.45 -43.55 -15.9 -44.75 -14.55 -45.95 L-14.0 -45.45 Q-15.3 -44.3 -15.8 -43.2 -16.35 -42.05 -16.35 -40.4 -16.35 -39.05 -15.8 -37.85 -15.3 -36.7 -14.0 -35.35 L-14.55 -34.8 M-14.35 -50.35 L-14.9 -49.8 Q-16.2 -51.2 -16.8 -52.45 -17.45 -53.85 -17.45 -55.4 -17.45 -57.2 -16.8 -58.55 -16.25 -59.75 -14.9 -60.95 L-14.35 -60.45 Q-15.65 -59.3 -16.15 -58.2 -16.7 -57.05 -16.7 -55.4 -16.7 -54.05 -16.15 -52.85 -15.65 -51.7 -14.35 -50.35 M-14.5 -64.05 L-14.5 -76.95 -13.45 -76.95 -13.45 -64.05 -14.5 -64.05 M-17.9 -81.1 L-26.55 -81.1 -18.0 -90.65 -17.3 -89.95 -24.35 -82.1 -17.05 -82.1 -17.05 -81.1 -17.9 -81.1 M-15.1 -91.45 L-15.1 -92.0 -2.15 -92.0 -2.15 -91.45 -15.1 -91.45 M-1.45 -89.75 L-0.9 -90.4 10.2 -81.15 9.65 -80.5 -1.45 -89.75 M9.4 -76.95 L10.45 -76.95 10.45 -71.05 10.45 -64.05 9.4 -64.05 9.4 -76.95 M-6.25 -75.05 L-11.65 -65.45 -12.15 -65.75 -6.75 -75.35 -6.25 -75.05 M-4.0 -74.45 L-4.0 -65.75 -5.05 -65.75 -5.05 -74.45 -4.0 -74.45 M-21.15 -56.1 L-22.35 -54.75 Q-23.15 -54.0 -24.25 -54.0 -25.15 -54.0 -26.65 -54.9 -27.8 -55.6 -28.6 -55.6 -29.45 -55.6 -29.9 -55.05 L-30.45 -54.2 -31.55 -54.85 -30.4 -56.3 Q-29.65 -57.0 -28.7 -57.0 -27.65 -57.0 -26.4 -56.25 -25.05 -55.4 -24.1 -55.4 -23.45 -55.4 -22.8 -56.1 L-22.2 -56.95 -21.15 -56.1 M-4.45 -59.6 L3.85 -59.6 3.85 -58.45 -4.45 -58.45 -4.45 -59.6 M-5.85 -52.7 L5.15 -52.7 5.15 -51.55 -5.85 -51.55 -5.85 -52.7 M-10.35 -61.2 L-8.5 -58.95 -9.65 -58.95 -12.2 -61.2 -10.35 -61.2 M7.0 -65.75 L5.95 -65.75 5.95 -74.45 7.0 -74.45 7.0 -65.75 M4.25 -73.05 L3.2 -73.05 3.2 -74.4 4.25 -74.4 4.25 -73.05 M4.25 -71.45 L4.25 -65.75 3.2 -65.75 3.2 -71.45 4.25 -71.45 M-1.25 -71.45 L-1.25 -65.75 -2.3 -65.75 -2.3 -71.45 -1.25 -71.45 M-2.3 -74.4 L-1.25 -74.4 -1.25 -73.05 -2.3 -73.05 -2.3 -74.4 M0.45 -74.45 L1.5 -74.45 1.5 -65.75 0.45 -65.75 0.45 -74.45 M-1.95 -43.3 Q2.15 -40.7 4.05 -38.1 L2.75 -37.0 Q0.85 -39.8 -3.05 -42.35 L-1.95 -43.3 M-8.7 -29.55 L-8.2 -30.05 -3.15 -25.35 -8.2 -20.7 -8.7 -21.2 -4.15 -25.35 -8.7 -29.55" fill="#000000" fill-rule="evenodd" stroke="none"/>
    <path d="M19.2 -81.0 Q18.9 -78.8 18.9 -76.05 L18.9 -71.5 18.6 -69.3 18.0 -68.1 Q17.1 -66.8 15.4 -66.2 L16.0 -65.05 Q13.85 -63.05 10.9 -62.75 L11.1 -59.2 8.7 -59.2 8.7 -58.2 13.5 -58.2 Q14.85 -58.2 15.7 -57.35 16.45 -56.6 16.45 -55.45 16.45 -54.35 15.7 -53.6 14.85 -52.75 13.5 -52.75 L8.7 -52.75 8.7 -51.75 11.1 -51.75 Q11.55 -48.3 11.6 -45.35 L11.5 -45.1 11.1 -45.35 5.7 -35.75 5.3 -35.65 Q5.8 -33.35 4.6 -30.05 L3.4 -30.4 Q3.1 -24.15 -1.95 -21.3 L-1.15 -20.3 -1.25 -20.25 Q-4.5 -18.45 -4.8 -14.9 L-4.85 -14.7 -4.85 -8.6 Q-4.85 -7.9 -5.3 -7.4 -5.85 -6.85 -6.95 -6.85 -8.0 -6.85 -8.55 -7.4 -9.0 -7.9 -9.0 -8.6 L-9.0 -14.7 -10.2 -14.7 -11.05 -15.95 -11.45 -15.55 -12.05 -14.7 -13.2 -14.7 -13.2 -8.6 Q-13.2 -7.9 -13.65 -7.4 -14.2 -6.85 -15.3 -6.85 -16.35 -6.85 -16.9 -7.4 -17.35 -7.9 -17.35 -8.6 L-17.35 -14.7 -18.5 -15.0 Q-17.65 -19.35 -14.35 -20.65 L-14.15 -20.75 Q-10.95 -23.6 -9.9 -29.35 L-8.7 -29.55 -9.75 -29.5 -9.9 -29.65 -11.0 -30.15 Q-12.75 -32.8 -14.55 -34.8 L-14.0 -35.35 Q-15.3 -36.7 -15.8 -37.85 -16.35 -39.05 -16.35 -40.4 -16.35 -42.05 -15.8 -43.2 -15.3 -44.3 -14.0 -45.45 -13.55 -47.7 -13.7 -49.7 L-14.35 -50.35 Q-15.65 -51.7 -16.15 -52.85 -16.7 -54.05 -16.7 -55.4 -16.7 -57.05 -16.15 -58.2 -15.65 -59.3 -14.35 -60.45 L-14.2 -60.85 Q-13.9 -62.3 -14.4 -63.8 L-14.5 -64.05 -13.45 -64.05 -13.45 -76.95 -13.5 -77.15 Q-14.05 -78.95 -14.2 -80.8 L-16.95 -81.0 -17.9 -81.1 -17.05 -81.1 -17.05 -82.1 -24.35 -82.1 -17.3 -89.95 -18.0 -90.65 -15.3 -91.9 -15.1 -91.45 -2.15 -91.45 Q-1.9 -90.75 -1.1 -90.45 L-1.45 -89.75 9.65 -80.5 9.45 -77.05 9.4 -76.95 9.4 -64.05 10.45 -64.05 10.45 -71.05 11.35 -72.4 Q13.85 -75.85 12.8 -80.85 L13.7 -81.0 13.7 -85.85 Q13.7 -86.85 14.2 -87.55 L14.55 -88.0 Q15.35 -88.75 16.45 -88.75 17.55 -88.75 18.35 -88.0 L18.95 -87.15 19.2 -85.85 19.2 -81.0 M-4.0 -74.45 L-5.05 -74.45 -5.05 -65.75 -4.0 -65.75 -4.0 -74.45 M-6.25 -75.05 L-6.75 -75.35 -12.15 -65.75 -11.65 -65.45 -6.25 -75.05 M-10.35 -61.2 L-12.2 -61.2 -9.65 -58.95 -8.5 -58.95 -10.35 -61.2 M-5.85 -52.7 L-5.85 -51.55 5.15 -51.55 5.15 -52.7 -5.85 -52.7 M-4.45 -59.6 L-4.45 -58.45 3.85 -58.45 3.85 -59.6 -4.45 -59.6 M10.45 -64.05 L10.55 -62.7 10.9 -62.75 10.45 -64.05 M-1.95 -43.3 L-3.05 -42.35 Q0.85 -39.8 2.75 -37.0 L4.05 -38.1 Q2.15 -40.7 -1.95 -43.3 M0.45 -74.45 L0.45 -65.75 1.5 -65.75 1.5 -74.45 0.45 -74.45 M-2.3 -74.4 L-2.3 -73.05 -1.25 -73.05 -1.25 -74.4 -2.3 -74.4 M-1.25 -71.45 L-2.3 -71.45 -2.3 -65.75 -1.25 -65.75 -1.25 -71.45 M4.25 -71.45 L3.2 -71.45 3.2 -65.75 4.25 -65.75 4.25 -71.45 M4.25 -73.05 L4.25 -74.4 3.2 -74.4 3.2 -73.05 4.25 -73.05 M7.0 -65.75 L7.0 -74.45 5.95 -74.45 5.95 -65.75 7.0 -65.75 M-8.7 -29.55 L-4.15 -25.35 -8.7 -21.2 -8.2 -20.7 -3.15 -25.35 -8.2 -30.05 -8.7 -29.55" fill="#ffffff" fill-rule="evenodd" stroke="none"/>
  </g>
</svg>
