<svg xmlns:xlink="http://www.w3.org/1999/xlink" height="40.95px" width="86.5px" xmlns="http://www.w3.org/2000/svg">
  <g transform="matrix(1.0, 0.0, 0.0, 1.0, 43.25, 20.5)">
    <path d="M19.65 -14.7 L19.2 -16.2 20.25 -16.2 21.45 -11.75 22.75 -16.2 23.9 -16.2 25.15 -11.75 26.4 -16.2 27.5 -16.2 27.05 -14.7 25.7 -10.15 24.7 -10.15 23.3 -15.0 21.95 -10.15 21.0 -10.15 19.65 -14.7 M29.65 -9.85 L34.5 -20.5 39.4 -9.85 38.4 -9.4 34.5 -17.8 30.7 -9.4 29.65 -9.85 M41.05 -4.9 L42.6 -2.85 Q43.25 -1.4 43.25 0.45 43.25 2.05 42.6 3.5 41.95 4.8 40.6 6.3 L40.0 5.7 41.85 3.1 Q42.45 1.85 42.45 0.45 42.45 -1.3 41.85 -2.5 41.35 -3.6 40.0 -4.75 L40.6 -5.3 41.05 -4.9 M5.55 8.85 L5.55 9.45 -14.2 9.45 -14.2 8.85 5.55 8.85 M-15.15 11.3 L-15.15 17.7 Q-15.2 18.85 -15.9 19.55 -16.75 20.4 -18.55 20.45 -20.35 20.4 -21.15 19.55 -21.9 18.85 -21.9 17.7 L-21.9 11.3 -20.7 11.3 -20.7 17.65 Q-20.7 18.35 -20.2 18.85 -19.65 19.45 -18.55 19.45 -17.4 19.45 -16.8 18.85 -16.35 18.35 -16.35 17.65 L-16.35 11.3 -15.15 11.3 M-28.45 11.3 L-27.9 11.3 -27.9 17.7 Q-27.9 18.85 -28.6 19.55 -29.5 20.4 -31.25 20.45 -33.1 20.4 -33.9 19.55 -34.65 18.85 -34.65 17.7 L-34.65 11.3 -33.45 11.3 -33.45 17.65 Q-33.45 18.35 -32.95 18.85 -32.4 19.45 -31.25 19.45 -30.15 19.45 -29.55 18.85 -29.1 18.35 -29.1 17.65 L-29.1 11.3 -28.45 11.3 M-34.55 4.5 L-35.2 4.75 -35.3 4.75 -38.4 5.15 Q-40.6 5.1 -42.0 3.75 -43.25 2.45 -43.25 0.6 -43.25 -1.2 -41.85 -2.5 -40.3 -4.05 -37.45 -4.05 -34.75 -4.05 -33.4 -2.7 -32.25 -1.55 -32.2 -0.25 -32.2 0.95 -32.75 1.75 L-33.05 2.1 Q-33.55 2.6 -34.3 2.85 L-35.6 3.0 -36.6 2.75 -36.85 2.0 -37.2 2.35 Q-38.0 3.0 -38.9 3.0 -39.85 3.0 -40.3 2.45 -40.85 1.95 -40.85 0.95 -40.85 -0.25 -39.8 -1.25 -38.85 -2.2 -37.5 -2.2 -36.35 -2.2 -36.05 -1.3 L-36.0 -1.15 -35.65 -2.15 -34.4 -2.15 -35.65 1.15 -35.75 1.85 -35.7 2.15 Q-35.55 2.35 -35.25 2.35 -34.1 2.35 -33.45 1.7 -32.8 0.95 -32.8 -0.25 -32.8 -1.3 -33.8 -2.3 L-34.1 -2.55 -34.15 -2.6 Q-35.35 -3.5 -37.45 -3.5 -40.05 -3.5 -41.45 -2.15 -42.65 -0.95 -42.65 0.6 -42.65 2.2 -41.55 3.35 -40.35 4.55 -38.4 4.55 L-35.55 4.25 -34.2 3.7 -33.9 4.2 -34.55 4.5 M-29.85 -2.4 L-28.65 -5.6 -27.05 -5.6 -28.95 -2.4 -29.85 -2.4 M-22.55 -8.2 L-22.55 -8.85 -18.5 -8.85 -18.5 -8.3 -18.5 -8.2 -22.55 -8.2 M-18.45 -8.3 L-18.45 -8.85 1.3 -8.85 1.3 -8.55 1.3 -8.3 -18.45 -8.3 M7.4 -9.85 L12.25 -20.5 16.75 -10.6 17.1 -9.85 16.1 -9.4 12.25 -17.8 8.4 -9.4 7.4 -9.85 M5.8 -4.7 Q3.35 -2.45 3.4 0.5 3.35 3.35 5.8 5.65 L5.25 6.2 Q2.6 3.7 2.6 0.5 2.6 -2.8 5.25 -5.25 L5.8 -4.7 M20.2 -4.3 Q20.4 -4.1 20.8 -4.1 L21.4 -4.3 21.6 -4.9 21.4 -5.5 20.8 -5.65 20.2 -5.5 20.0 -4.9 20.2 -4.3 M19.6 -4.9 Q19.55 -5.35 19.95 -5.75 20.3 -6.15 20.8 -6.1 21.3 -6.15 21.65 -5.75 L22.0 -4.9 21.65 -4.05 Q21.3 -3.7 20.8 -3.7 20.3 -3.7 19.95 -4.05 19.55 -4.45 19.6 -4.9 M26.85 -5.2 L32.7 -5.2 32.7 4.05 33.85 4.05 33.85 6.95 32.8 6.95 32.8 5.1 25.45 5.1 25.45 6.95 24.4 6.95 24.4 4.05 25.25 4.05 Q26.85 1.8 26.85 -1.6 L26.85 -5.2 M27.9 -1.6 Q27.9 1.85 26.45 4.05 L31.6 4.05 31.6 -4.25 27.9 -4.25 27.9 -1.6 M38.0 -5.5 L37.4 -5.65 36.8 -5.5 36.6 -4.9 36.8 -4.3 37.4 -4.1 38.0 -4.3 38.2 -4.9 38.0 -5.5 M38.6 -4.9 L38.25 -4.05 Q37.9 -3.7 37.4 -3.7 36.9 -3.7 36.55 -4.05 36.15 -4.45 36.2 -4.9 36.15 -5.35 36.55 -5.75 36.9 -6.15 37.4 -6.1 37.9 -6.15 38.25 -5.75 L38.6 -4.9 M-38.9 -0.7 Q-39.65 0.0 -39.65 0.95 L-39.35 1.8 -38.6 2.05 Q-37.9 2.05 -37.3 1.5 L-36.6 0.65 -36.45 0.0 -36.45 -0.4 Q-36.65 -1.35 -37.5 -1.35 -38.2 -1.35 -38.9 -0.7" fill="#000000" fill-rule="evenodd" stroke="none"/>
    <path d="M27.05 -14.7 L28.5 -12.35 29.3 -10.55 29.65 -9.85 30.7 -9.4 34.5 -17.8 38.4 -9.4 39.4 -9.65 Q39.8 -7.0 41.05 -4.9 L40.6 -5.3 40.0 -4.75 Q41.35 -3.6 41.85 -2.5 42.45 -1.3 42.45 0.45 42.45 1.85 41.85 3.1 L40.0 5.7 39.95 5.85 Q39.4 7.25 37.65 7.85 L35.5 8.45 32.55 8.85 29.9 8.9 Q25.8 8.6 22.2 8.85 18.7 9.1 17.4 11.3 L16.15 11.3 16.15 17.65 Q16.15 18.35 15.7 18.85 15.1 19.45 14.0 19.45 12.85 19.45 12.35 18.85 11.85 18.35 11.85 17.65 L11.85 11.3 11.05 10.65 Q9.0 9.15 5.65 8.85 L5.55 8.85 -14.2 8.85 -14.2 9.45 Q-15.35 9.85 -15.15 11.3 L-16.35 11.3 -16.35 17.65 Q-16.35 18.35 -16.8 18.85 -17.4 19.45 -18.55 19.45 -19.65 19.45 -20.2 18.85 -20.7 18.35 -20.7 17.65 L-20.7 11.3 -21.9 11.3 -27.9 11.1 -28.45 11.3 -29.1 11.3 -29.1 17.65 Q-29.1 18.35 -29.55 18.85 -30.15 19.45 -31.25 19.45 -32.4 19.45 -32.95 18.85 -33.45 18.35 -33.45 17.65 L-33.45 11.3 -33.6 10.95 Q-34.3 9.1 -34.3 7.4 L-34.3 6.75 Q-34.25 5.3 -34.55 4.55 L-34.55 4.5 -33.9 4.2 -34.2 3.7 -35.55 4.25 -38.4 4.55 Q-40.35 4.55 -41.55 3.35 -42.65 2.2 -42.65 0.6 -42.65 -0.95 -41.45 -2.15 -40.05 -3.5 -37.45 -3.5 -35.35 -3.5 -34.15 -2.6 L-34.1 -2.55 -33.8 -2.3 Q-32.8 -1.3 -32.8 -0.25 -32.8 0.95 -33.45 1.7 -34.1 2.35 -35.25 2.35 -35.55 2.35 -35.7 2.15 L-35.75 1.85 -35.65 1.15 -34.4 -2.15 -35.65 -2.15 -36.0 -1.15 -36.05 -1.3 Q-36.35 -2.2 -37.5 -2.2 -38.85 -2.2 -39.8 -1.25 -40.85 -0.25 -40.85 0.95 -40.85 1.95 -40.3 2.45 -39.85 3.0 -38.9 3.0 -38.0 3.0 -37.2 2.35 L-36.85 2.0 -36.6 2.75 -35.6 3.0 -34.3 2.85 Q-33.55 2.6 -33.05 2.1 L-32.75 1.75 Q-31.25 -0.15 -29.85 -2.4 L-28.95 -2.4 -27.05 -5.6 -27.35 -6.05 Q-25.25 -7.8 -22.55 -8.2 L-18.5 -8.2 -18.5 -8.3 -18.45 -8.3 1.3 -8.3 1.3 -8.55 1.35 -8.55 Q4.25 -8.5 7.4 -9.85 L8.4 -9.4 12.25 -17.8 16.1 -9.4 17.1 -9.85 16.75 -10.6 Q17.65 -12.95 19.65 -14.7 L21.0 -10.15 21.95 -10.15 23.3 -15.0 24.7 -10.15 25.7 -10.15 27.05 -14.7 M-38.9 -0.7 Q-38.2 -1.35 -37.5 -1.35 -36.65 -1.35 -36.45 -0.4 L-36.45 0.0 -36.6 0.65 -37.3 1.5 Q-37.9 2.05 -38.6 2.05 L-39.35 1.8 -39.65 0.95 Q-39.65 0.0 -38.9 -0.7 M38.6 -4.9 L38.25 -5.75 Q37.9 -6.15 37.4 -6.1 36.9 -6.15 36.55 -5.75 36.15 -5.35 36.2 -4.9 36.15 -4.45 36.55 -4.05 36.9 -3.7 37.4 -3.7 37.9 -3.7 38.25 -4.05 L38.6 -4.9 M38.0 -5.5 L38.2 -4.9 38.0 -4.3 37.4 -4.1 36.8 -4.3 36.6 -4.9 36.8 -5.5 37.4 -5.65 38.0 -5.5 M27.9 -1.6 L27.9 -4.25 31.6 -4.25 31.6 4.05 26.45 4.05 Q27.9 1.85 27.9 -1.6 M26.85 -5.2 L26.85 -1.6 Q26.85 1.8 25.25 4.05 L24.4 4.05 24.4 6.95 25.45 6.95 25.45 5.1 32.8 5.1 32.8 6.95 33.85 6.95 33.85 4.05 32.7 4.05 32.7 -5.2 26.85 -5.2 M19.6 -4.9 Q19.55 -4.45 19.95 -4.05 20.3 -3.7 20.8 -3.7 21.3 -3.7 21.65 -4.05 L22.0 -4.9 21.65 -5.75 Q21.3 -6.15 20.8 -6.1 20.3 -6.15 19.95 -5.75 19.55 -5.35 19.6 -4.9 M20.2 -4.3 L20.0 -4.9 20.2 -5.5 20.8 -5.65 21.4 -5.5 21.6 -4.9 21.4 -4.3 20.8 -4.1 Q20.4 -4.1 20.2 -4.3 M5.8 -4.7 L5.25 -5.25 Q2.6 -2.8 2.6 0.5 2.6 3.7 5.25 6.2 L5.8 5.65 Q3.35 3.35 3.4 0.5 3.35 -2.45 5.8 -4.7" fill="#ffffff" fill-rule="evenodd" stroke="none"/>
    <path d="M17.4 11.3 L17.4 17.7 Q17.35 18.85 16.65 19.55 15.8 20.4 14.0 20.45 12.2 20.4 11.4 19.55 10.6 18.85 10.65 17.7 L10.65 11.3 11.85 11.3 11.85 17.65 Q11.85 18.35 12.35 18.85 12.85 19.45 14.0 19.45 15.1 19.45 15.7 18.85 16.15 18.35 16.15 17.65 L16.15 11.3 17.4 11.3" fill="#000000" fill-rule="evenodd" stroke="none"/>
  </g>
</svg>
