<svg xmlns:xlink="http://www.w3.org/1999/xlink" height="93.9px" width="56.1px" xmlns="http://www.w3.org/2000/svg">
  <g transform="matrix(1.0, 0.0, 0.0, 1.0, 19.7, 93.45)">
    <path d="M2.6 -90.3 L4.35 -93.45 4.8 -93.2 -0.15 -84.3 -0.6 -84.6 2.6 -90.3 M-2.1 -82.75 Q-1.65 -82.65 -2.1 -82.35 L-2.1 -80.45 -1.85 -78.95 Q-1.0 -75.6 2.7 -74.0 L2.15 -72.85 Q-1.1 -74.25 -2.45 -77.95 -3.45 -74.45 -6.9 -72.85 L-7.6 -73.85 Q-3.85 -75.3 -3.25 -78.85 L-3.15 -80.3 -3.15 -82.75 -2.1 -82.75 M14.3 -65.45 L14.8 -66.0 Q17.15 -63.8 17.15 -60.85 17.15 -57.95 14.8 -55.75 L14.3 -56.3 Q16.45 -58.3 16.45 -60.85 16.45 -63.45 14.3 -65.45 M13.85 -52.05 L15.6 -49.8 Q16.2 -48.55 16.2 -46.9 16.2 -45.45 15.6 -44.2 L13.85 -41.7 13.35 -42.25 15.0 -44.55 Q15.5 -45.65 15.5 -46.9 15.5 -48.4 15.0 -49.5 L13.35 -51.55 13.85 -52.05 M13.45 -38.0 Q15.35 -36.2 15.75 -33.9 L15.8 -32.85 Q15.8 -29.95 13.45 -27.75 L12.95 -28.3 Q15.1 -30.3 15.1 -32.85 15.1 -35.45 12.95 -37.45 L13.45 -38.0 M17.1 -34.2 L16.75 -35.05 19.75 -36.1 22.05 -36.5 Q23.3 -36.5 24.1 -35.8 25.15 -34.85 25.05 -32.9 24.95 -30.95 23.55 -29.9 22.25 -28.95 19.85 -28.95 L19.65 -30.0 Q22.35 -30.0 23.35 -31.15 24.1 -31.9 24.05 -33.3 24.05 -34.3 23.5 -34.9 23.05 -35.45 22.2 -35.5 L19.8 -35.05 17.9 -34.2 17.2 -33.9 17.1 -34.2 M13.3 -23.2 L13.85 -23.3 Q14.4 -23.4 14.0 -23.05 14.75 -18.75 18.85 -17.4 L18.15 -16.15 Q15.8 -16.2 13.7 -15.1 L12.85 -15.95 Q14.65 -17.0 16.65 -17.15 13.85 -18.5 12.75 -23.1 L13.3 -23.2 M11.15 -14.1 L11.15 -13.55 7.55 -13.55 7.55 -14.1 11.15 -14.1 M8.1 -9.55 L8.6 -10.05 Q9.8 -8.9 10.35 -7.8 10.95 -6.55 10.95 -4.9 10.95 -3.45 10.35 -2.2 L8.6 0.3 8.1 -0.25 9.75 -2.55 Q10.25 -3.65 10.25 -4.9 10.25 -6.4 9.75 -7.5 L8.1 -9.55 M4.05 -0.1 L7.1 -0.1 7.1 0.45 3.5 0.45 3.5 -0.1 4.05 -0.1 M-0.75 0.0 L-1.05 0.3 -1.35 0.0 -1.55 -0.25 Q-0.4 -1.5 0.1 -2.55 0.6 -3.65 0.6 -4.9 0.6 -6.4 0.1 -7.5 -0.4 -8.5 -1.55 -9.55 L-1.05 -10.05 Q0.15 -8.9 0.7 -7.8 1.3 -6.55 1.3 -4.9 1.3 -3.45 0.7 -2.2 L-0.75 0.0 M-2.55 0.05 L-2.55 0.45 -6.15 0.45 -6.15 0.2 -6.15 -0.1 -2.55 -0.1 -2.55 0.05 M-7.65 0.3 L-9.4 -2.2 Q-10.0 -3.45 -10.0 -4.9 -10.0 -6.55 -9.4 -7.8 L-7.65 -10.05 -7.15 -9.55 Q-8.3 -8.5 -8.75 -7.5 -9.3 -6.4 -9.3 -4.9 -9.3 -3.65 -8.75 -2.55 L-7.15 -0.25 -7.65 0.3 M-8.15 -13.05 L-14.1 -13.05 -14.1 -13.55 -2.15 -13.55 -2.15 -13.05 -8.15 -13.05 M-15.1 -14.4 L-15.4 -13.6 -18.75 -14.8 -18.75 -23.25 -15.4 -24.4 -15.1 -23.6 -17.8 -22.6 -17.8 -15.4 -15.1 -14.4 M-15.45 -28.1 Q-16.7 -28.45 -17.65 -29.4 -19.1 -30.85 -19.1 -32.95 -19.1 -35.05 -17.65 -36.55 -16.55 -37.65 -15.1 -37.9 L-14.1 -38.0 Q-12.0 -38.0 -10.55 -36.55 -9.1 -35.05 -9.1 -32.95 -9.1 -30.85 -10.55 -29.4 -12.0 -27.95 -14.1 -27.95 L-15.45 -28.1 M-18.85 -42.6 L-19.6 -43.6 Q-16.85 -45.85 -15.95 -51.3 L-15.75 -51.2 -14.95 -50.8 Q-14.6 -50.6 -14.95 -50.55 -15.9 -45.25 -18.85 -42.6 M-16.8 -56.3 L-17.35 -55.75 Q-19.7 -57.95 -19.7 -60.85 -19.7 -63.8 -17.35 -66.0 L-16.8 -65.45 Q-18.95 -63.45 -18.95 -60.85 -18.95 -58.3 -16.8 -56.3 M-5.1 -84.8 L-8.3 -92.9 -7.2 -92.9 -4.7 -86.4 -2.2 -92.9 -1.1 -92.9 -1.4 -92.15 -4.3 -84.8 -5.1 -84.8 M10.65 -64.35 L12.55 -63.0 11.95 -62.3 10.15 -63.75 10.65 -64.35 M7.2 -63.65 Q11.0 -61.25 12.75 -58.8 L11.55 -57.8 Q9.8 -60.4 6.2 -62.75 L7.2 -63.65 M11.6 -65.45 L13.5 -64.1 12.9 -63.45 Q12.0 -64.35 11.1 -64.85 L11.6 -65.45 M0.5 -62.35 Q-0.05 -59.3 -1.45 -56.8 L-2.35 -57.7 Q-1.15 -59.9 -0.55 -63.2 L0.55 -62.7 Q1.0 -62.4 0.5 -62.35 M-3.4 -64.8 Q-3.05 -64.6 -3.4 -64.55 -4.35 -59.25 -7.3 -56.6 L-8.05 -57.6 Q-5.3 -59.85 -4.4 -65.3 L-3.4 -64.8 M-1.55 -52.35 L-2.05 -52.15 -2.25 -51.65 -2.05 -51.15 -1.55 -50.95 -1.0 -51.15 Q-0.85 -51.3 -0.85 -51.65 -0.85 -52.0 -1.0 -52.15 L-1.55 -52.35 M-2.3 -52.4 Q-1.95 -52.75 -1.55 -52.75 -1.1 -52.75 -0.8 -52.4 -0.45 -52.05 -0.45 -51.65 -0.45 -51.25 -0.8 -50.9 -1.1 -50.55 -1.55 -50.55 -1.95 -50.55 -2.3 -50.9 L-2.6 -51.65 -2.3 -52.4 M3.5 -57.1 Q2.9 -59.95 1.5 -63.05 L2.45 -63.7 Q4.1 -60.15 4.65 -57.7 L3.5 -57.1 M11.7 -51.65 L11.55 -52.15 11.0 -52.35 10.5 -52.15 10.3 -51.65 10.5 -51.15 11.0 -50.95 Q11.35 -50.95 11.55 -51.15 L11.7 -51.65 M10.25 -52.4 Q10.6 -52.75 11.0 -52.75 L11.75 -52.4 12.1 -51.65 11.75 -50.9 Q11.45 -50.55 11.0 -50.55 10.6 -50.55 10.25 -50.9 9.95 -51.25 9.95 -51.65 L10.25 -52.4 M30.25 -50.55 Q29.95 -50.25 30.0 -49.5 L30.3 -43.0 Q30.35 -41.9 29.9 -41.5 29.35 -40.9 28.55 -40.9 27.75 -40.9 27.45 -41.25 27.0 -41.65 26.85 -42.35 L27.85 -42.35 Q27.9 -42.05 28.1 -41.85 L28.65 -41.7 29.2 -42.0 Q29.45 -42.25 29.4 -43.05 L29.1 -49.4 Q29.1 -50.55 29.65 -51.1 30.1 -51.55 30.85 -51.55 31.7 -51.55 32.1 -51.15 L32.6 -50.1 31.6 -50.1 31.35 -50.6 30.85 -50.75 Q30.5 -50.75 30.25 -50.55 M-9.8 -65.2 Q-10.0 -62.25 -11.45 -59.9 -12.8 -57.55 -15.1 -56.2 L-15.85 -57.1 Q-11.2 -59.75 -10.9 -65.5 L-9.8 -65.2 M-13.0 -42.8 L-13.9 -43.7 Q-12.7 -45.9 -12.1 -49.2 L-11.0 -48.7 Q-10.55 -48.4 -11.05 -48.35 -11.6 -45.3 -13.0 -42.8 M-11.35 -35.75 Q-12.5 -36.9 -14.1 -36.9 -15.7 -36.9 -16.85 -35.75 -18.05 -34.55 -18.05 -32.95 -18.05 -31.35 -16.85 -30.2 -15.7 -29.05 -14.1 -29.05 -12.5 -29.05 -11.35 -30.2 -10.15 -31.35 -10.15 -32.95 -10.15 -34.55 -11.35 -35.75 M31.65 -42.35 Q31.7 -42.05 31.9 -41.85 L32.45 -41.7 Q32.75 -41.7 33.0 -42.0 33.25 -42.25 33.2 -43.05 L32.9 -49.4 Q32.85 -50.55 33.45 -51.1 33.9 -51.55 34.65 -51.55 35.5 -51.55 35.9 -51.15 L36.4 -50.1 35.4 -50.1 35.15 -50.6 34.65 -50.75 34.05 -50.55 Q33.75 -50.25 33.8 -49.5 L34.1 -43.0 Q34.15 -41.9 33.7 -41.5 33.15 -40.9 32.35 -40.9 31.55 -40.9 31.25 -41.25 30.8 -41.65 30.65 -42.35 L31.65 -42.35 M28.45 -31.6 L33.15 -31.6 33.15 -33.7 28.45 -33.7 28.45 -31.6 M28.45 -34.6 L33.15 -34.6 33.15 -36.6 28.45 -36.6 28.45 -34.6 M25.55 -29.0 L35.95 -29.0 35.95 -28.15 25.55 -28.15 25.55 -29.0 M28.45 -29.95 L27.5 -29.95 27.5 -37.5 34.1 -37.5 34.1 -30.1 33.15 -30.1 33.15 -30.7 28.45 -30.7 28.45 -29.95 M8.75 -46.7 L0.6 -46.7 0.6 -47.7 8.75 -47.7 8.75 -46.7 M9.8 -38.0 Q12.15 -35.8 12.15 -32.85 12.15 -29.95 9.8 -27.75 L9.3 -28.3 Q11.45 -30.3 11.45 -32.85 11.45 -35.45 9.3 -37.45 L9.8 -38.0 M-1.15 -38.0 Q1.2 -35.8 1.2 -32.85 1.2 -29.95 -1.15 -27.75 L-1.65 -28.3 Q0.5 -30.3 0.5 -32.85 0.5 -35.45 -1.65 -37.45 L-1.15 -38.0 M-8.05 -43.1 Q-8.65 -45.95 -10.05 -49.05 -9.55 -49.35 -9.1 -49.7 -7.45 -46.15 -6.9 -43.7 L-8.05 -43.1 M-4.8 -38.0 Q-2.45 -35.8 -2.45 -32.85 -2.45 -29.95 -4.8 -27.75 L-5.3 -28.3 Q-3.15 -30.3 -3.15 -32.85 -3.15 -35.45 -5.3 -37.45 L-4.8 -38.0 M-6.3 -28.85 L-7.4 -28.85 -7.4 -29.85 -6.3 -29.85 -6.3 -28.85 M5.3 -28.1 L8.9 -28.1 8.9 -27.55 5.3 -27.55 5.3 -28.1 M5.25 -28.1 L5.25 -27.55 1.65 -27.55 1.65 -28.1 5.25 -28.1 M3.9 -14.1 L7.5 -14.1 7.5 -13.55 3.9 -13.55 3.9 -14.1 M2.5 -14.8 L-0.85 -13.6 -1.15 -14.4 1.55 -15.4 1.55 -22.6 -1.15 -23.6 -0.85 -24.4 2.5 -23.25 2.5 -14.8" fill="#000000" fill-rule="evenodd" stroke="none"/>
    <path d="M-0.6 -84.6 Q-1.35 -83.1 -2.1 -82.75 L-3.15 -82.75 Q-3.45 -84.1 -5.1 -84.8 L-4.3 -84.8 -1.4 -92.15 Q-0.6 -90.2 1.25 -90.05 L2.6 -90.3 -0.6 -84.6 M2.7 -74.0 Q5.25 -73.3 7.35 -71.7 L10.7 -69.25 13.1 -67.1 14.3 -65.45 Q16.45 -63.45 16.45 -60.85 16.45 -58.3 14.3 -56.3 L12.65 -53.9 Q12.75 -52.5 13.85 -52.05 L13.35 -51.55 15.0 -49.5 Q15.5 -48.4 15.5 -46.9 15.5 -45.65 15.0 -44.55 L13.35 -42.25 13.85 -41.7 Q12.45 -41.45 12.15 -40.2 L13.45 -38.0 12.95 -37.45 Q15.1 -35.45 15.1 -32.85 15.1 -30.3 12.95 -28.3 L13.45 -27.75 Q15.8 -29.95 15.8 -32.85 L15.75 -33.9 17.1 -34.2 17.2 -33.9 17.9 -34.2 19.8 -35.05 22.2 -35.5 Q23.05 -35.45 23.5 -34.9 24.05 -34.3 24.05 -33.3 24.1 -31.9 23.35 -31.15 22.35 -30.0 19.65 -30.0 L19.85 -28.95 Q17.8 -27.7 15.15 -27.5 13.5 -27.4 12.6 -26.7 12.5 -24.35 13.3 -23.2 L12.75 -23.1 Q13.85 -18.5 16.65 -17.15 14.65 -17.0 12.85 -15.95 L13.7 -15.1 Q11.95 -14.75 11.15 -14.1 L7.55 -14.1 7.55 -13.55 Q8.1 -11.7 8.1 -9.55 L9.75 -7.5 Q10.25 -6.4 10.25 -4.9 10.25 -3.65 9.75 -2.55 L8.1 -0.25 4.05 -0.1 3.5 -0.1 0.05 -0.05 -0.75 0.0 0.7 -2.2 Q1.3 -3.45 1.3 -4.9 1.3 -6.55 0.7 -7.8 0.15 -8.9 -1.05 -10.05 L-1.55 -9.55 Q-0.4 -8.5 0.1 -7.5 0.6 -6.4 0.6 -4.9 0.6 -3.65 0.1 -2.55 -0.4 -1.5 -1.55 -0.25 L-1.35 0.0 -2.55 0.05 -2.55 -0.1 -6.15 -0.1 -6.15 0.2 -7.65 0.3 -7.15 -0.25 -8.75 -2.55 Q-9.3 -3.65 -9.3 -4.9 -9.3 -6.4 -8.75 -7.5 -8.3 -8.5 -7.15 -9.55 L-7.65 -10.05 Q-7.6 -11.6 -8.15 -13.05 L-2.15 -13.05 -2.15 -13.55 -14.1 -13.55 Q-14.9 -13.85 -15.1 -14.4 L-17.8 -15.4 -17.8 -22.6 -15.1 -23.6 -15.4 -24.4 -15.45 -28.1 -14.1 -27.95 Q-12.0 -27.95 -10.55 -29.4 -9.1 -30.85 -9.1 -32.95 -9.1 -35.05 -10.55 -36.55 -12.0 -38.0 -14.1 -38.0 L-15.1 -37.9 -15.0 -41.2 Q-14.95 -42.6 -15.35 -43.4 -16.75 -42.65 -18.85 -42.6 -15.9 -45.25 -14.95 -50.55 -14.6 -50.6 -14.95 -50.8 L-15.75 -51.2 Q-15.05 -50.95 -15.1 -52.55 -16.25 -54.35 -16.8 -56.3 -18.95 -58.3 -18.95 -60.85 -18.95 -63.45 -16.8 -65.45 L-17.35 -66.0 Q-14.9 -67.2 -12.95 -69.3 -10.45 -72.0 -7.6 -73.85 L-6.9 -72.85 Q-3.45 -74.45 -2.45 -77.95 -1.1 -74.25 2.15 -72.85 L2.7 -74.0 M10.25 -52.4 L9.95 -51.65 Q9.95 -51.25 10.25 -50.9 10.6 -50.55 11.0 -50.55 11.45 -50.55 11.75 -50.9 L12.1 -51.65 11.75 -52.4 11.0 -52.75 Q10.6 -52.75 10.25 -52.4 M11.7 -51.65 L11.55 -51.15 Q11.35 -50.95 11.0 -50.95 L10.5 -51.15 10.3 -51.65 10.5 -52.15 11.0 -52.35 11.55 -52.15 11.7 -51.65 M3.5 -57.1 L4.65 -57.7 Q4.1 -60.15 2.45 -63.7 L1.5 -63.05 Q2.9 -59.95 3.5 -57.1 M-2.3 -52.4 L-2.6 -51.65 -2.3 -50.9 Q-1.95 -50.55 -1.55 -50.55 -1.1 -50.55 -0.8 -50.9 -0.45 -51.25 -0.45 -51.65 -0.45 -52.05 -0.8 -52.4 -1.1 -52.75 -1.55 -52.75 -1.95 -52.75 -2.3 -52.4 M-1.55 -52.35 L-1.0 -52.15 Q-0.85 -52.0 -0.85 -51.65 -0.85 -51.3 -1.0 -51.15 L-1.55 -50.95 -2.05 -51.15 -2.25 -51.65 -2.05 -52.15 -1.55 -52.35 M-3.4 -64.8 L-4.4 -65.3 Q-5.3 -59.85 -8.05 -57.6 L-7.3 -56.6 Q-4.35 -59.25 -3.4 -64.55 -3.05 -64.6 -3.4 -64.8 M0.5 -62.35 Q1.0 -62.4 0.55 -62.7 L-0.55 -63.2 Q-1.15 -59.9 -2.35 -57.7 L-1.45 -56.8 Q-0.05 -59.3 0.5 -62.35 M11.6 -65.45 L11.1 -64.85 Q12.0 -64.35 12.9 -63.45 L13.5 -64.1 11.6 -65.45 M7.2 -63.65 L6.2 -62.75 Q9.8 -60.4 11.55 -57.8 L12.75 -58.8 Q11.0 -61.25 7.2 -63.65 M10.65 -64.35 L10.15 -63.75 11.95 -62.3 12.55 -63.0 10.65 -64.35 M-11.35 -35.75 Q-10.15 -34.55 -10.15 -32.95 -10.15 -31.35 -11.35 -30.2 -12.5 -29.05 -14.1 -29.05 -15.7 -29.05 -16.85 -30.2 -18.05 -31.35 -18.05 -32.95 -18.05 -34.55 -16.85 -35.75 -15.7 -36.9 -14.1 -36.9 -12.5 -36.9 -11.35 -35.75 M-13.0 -42.8 Q-11.6 -45.3 -11.05 -48.35 -10.55 -48.4 -11.0 -48.7 L-12.1 -49.2 Q-12.7 -45.9 -13.9 -43.7 L-13.0 -42.8 M-9.8 -65.2 L-10.9 -65.5 Q-11.2 -59.75 -15.85 -57.1 L-15.1 -56.2 Q-12.8 -57.55 -11.45 -59.9 -10.0 -62.25 -9.8 -65.2 M28.45 -34.6 L28.45 -36.6 33.15 -36.6 33.15 -34.6 28.45 -34.6 M28.45 -31.6 L28.45 -33.7 33.15 -33.7 33.15 -31.6 28.45 -31.6 M2.5 -14.8 L2.5 -23.25 -0.85 -24.4 -1.15 -23.6 1.55 -22.6 1.55 -15.4 -1.15 -14.4 -0.85 -13.6 2.5 -14.8 M3.9 -14.1 L3.9 -13.55 7.5 -13.55 7.5 -14.1 3.9 -14.1 M5.25 -28.1 L1.65 -28.1 1.65 -27.55 5.25 -27.55 5.25 -28.1 M5.3 -28.1 L5.3 -27.55 8.9 -27.55 8.9 -28.1 5.3 -28.1 M-6.3 -28.85 L-6.3 -29.85 -7.4 -29.85 -7.4 -28.85 -6.3 -28.85 M-4.8 -38.0 L-5.3 -37.45 Q-3.15 -35.45 -3.15 -32.85 -3.15 -30.3 -5.3 -28.3 L-4.8 -27.75 Q-2.45 -29.95 -2.45 -32.85 -2.45 -35.8 -4.8 -38.0 M-8.05 -43.1 L-6.9 -43.7 Q-7.45 -46.15 -9.1 -49.7 -9.55 -49.35 -10.05 -49.05 -8.65 -45.95 -8.05 -43.1 M-1.15 -38.0 L-1.65 -37.45 Q0.5 -35.45 0.5 -32.85 0.5 -30.3 -1.65 -28.3 L-1.15 -27.75 Q1.2 -29.95 1.2 -32.85 1.2 -35.8 -1.15 -38.0 M9.8 -38.0 L9.3 -37.45 Q11.45 -35.45 11.45 -32.85 11.45 -30.3 9.3 -28.3 L9.8 -27.75 Q12.15 -29.95 12.15 -32.85 12.15 -35.8 9.8 -38.0 M8.75 -46.7 L8.75 -47.7 0.6 -47.7 0.6 -46.7 8.75 -46.7" fill="#ffffff" fill-rule="evenodd" stroke="none"/>
  </g>
</svg>
