<svg xmlns:xlink="http://www.w3.org/1999/xlink" height="63.6px" width="30.45px" xmlns="http://www.w3.org/2000/svg">
  <g transform="matrix(1.0, 0.0, 0.0, 1.0, 15.8, 63.7)">
    <path d="M2.15 -63.0 L3.15 -61.45 Q5.95 -60.3 7.7 -61.9 L2.75 -53.05 2.85 -52.65 Q3.35 -50.2 1.6 -48.75 L1.6 -34.4 1.7 -30.5 1.25 -30.5 0.95 -30.7 -0.35 -30.7 -0.35 -27.75 Q-0.35 -26.1 -0.75 -24.75 L-1.65 -25.15 Q-1.55 -29.7 -1.75 -34.4 L-0.65 -34.4 -0.65 -48.75 -1.05 -48.75 -1.05 -48.8 Q-1.35 -49.6 -1.3 -50.5 -1.25 -51.75 -2.2 -52.8 L-1.7 -53.3 2.15 -63.0 M6.4 -19.45 L8.2 -17.9 10.55 -14.9 11.55 -13.6 11.25 -13.3 Q13.85 -10.9 13.85 -7.75 13.85 -4.7 11.25 -2.3 9.25 -1.15 6.55 -0.75 L2.0 -0.2 Q-2.75 0.05 -7.35 -0.25 -10.95 -0.5 -13.0 -1.65 L-12.35 -2.3 Q-14.9 -4.7 -14.9 -7.75 -14.9 -10.9 -12.35 -13.3 L-13.0 -13.95 -12.15 -14.8 -5.65 -20.0 -4.85 -18.8 Q-0.7 -20.7 0.5 -24.9 2.15 -20.5 6.05 -18.8 L6.4 -19.45 M7.9 -13.5 Q7.9 -13.05 8.25 -12.6 8.65 -12.2 9.15 -12.2 9.7 -12.2 10.05 -12.6 10.45 -13.05 10.45 -13.5 10.45 -14.0 10.05 -14.4 9.7 -14.85 9.15 -14.85 8.65 -14.85 8.25 -14.4 7.9 -14.0 7.9 -13.5 M9.8 -14.1 L10.0 -13.5 9.8 -12.9 Q9.55 -12.7 9.15 -12.7 L8.55 -12.9 Q8.3 -13.1 8.3 -13.5 8.3 -13.95 8.55 -14.1 L9.15 -14.35 9.8 -14.1 M-7.15 -13.5 L-6.8 -12.6 Q-6.4 -12.2 -5.9 -12.2 -5.35 -12.2 -5.0 -12.6 -4.6 -13.05 -4.6 -13.5 -4.6 -14.0 -5.0 -14.4 -5.35 -14.85 -5.9 -14.85 -6.4 -14.85 -6.8 -14.4 L-7.15 -13.5 M-5.9 -14.35 L-5.25 -14.1 -5.05 -13.5 -5.25 -12.9 -5.9 -12.7 -6.5 -12.9 -6.75 -13.5 -6.5 -14.1 -5.9 -14.35 M-3.35 -8.8 L-3.35 -7.6 6.45 -7.6 6.45 -8.8 -3.35 -8.8" fill="#ffffff" fill-rule="evenodd" stroke="none"/>
    <path d="M-1.7 -53.3 L-2.65 -53.3 -6.5 -63.0 -5.2 -63.0 -2.2 -55.2 0.8 -63.0 2.15 -63.0 -1.7 -53.3 M7.7 -61.9 L8.65 -63.7 9.2 -63.4 3.25 -52.7 2.75 -53.05 7.7 -61.9 M1.6 -48.75 L2.75 -48.75 2.75 -34.4 1.6 -34.4 1.6 -48.75 M1.25 -30.5 L0.95 -30.2 0.95 -27.9 Q1.05 -26.35 1.6 -25.05 L2.15 -24.0 Q3.5 -21.55 6.7 -20.2 L6.4 -19.45 6.05 -18.8 Q2.15 -20.5 0.5 -24.9 -0.7 -20.7 -4.85 -18.8 L-5.65 -20.0 Q-1.9 -21.5 -0.75 -24.75 -0.35 -26.1 -0.35 -27.75 L-0.35 -30.7 0.95 -30.7 1.25 -30.5 M11.55 -13.6 L11.85 -13.95 Q14.65 -11.3 14.65 -7.75 14.65 -4.3 11.85 -1.65 L11.25 -2.3 Q13.85 -4.7 13.85 -7.75 13.85 -10.9 11.25 -13.3 L11.55 -13.6 M-13.0 -1.65 Q-15.8 -4.3 -15.8 -7.75 -15.8 -11.3 -13.0 -13.95 L-12.35 -13.3 Q-14.9 -10.9 -14.9 -7.75 -14.9 -4.7 -12.35 -2.3 L-13.0 -1.65 M-1.75 -34.4 L-1.75 -48.75 -1.05 -48.75 -0.65 -48.75 -0.65 -34.4 -1.75 -34.4 M-3.35 -8.8 L6.45 -8.8 6.45 -7.6 -3.35 -7.6 -3.35 -8.8 M-5.9 -14.35 L-6.5 -14.1 -6.75 -13.5 -6.5 -12.9 -5.9 -12.7 -5.25 -12.9 -5.05 -13.5 -5.25 -14.1 -5.9 -14.35 M-7.15 -13.5 L-6.8 -14.4 Q-6.4 -14.85 -5.9 -14.85 -5.35 -14.85 -5.0 -14.4 -4.6 -14.0 -4.6 -13.5 -4.6 -13.05 -5.0 -12.6 -5.35 -12.2 -5.9 -12.2 -6.4 -12.2 -6.8 -12.6 L-7.15 -13.5 M9.8 -14.1 L9.15 -14.35 8.55 -14.1 Q8.3 -13.95 8.3 -13.5 8.3 -13.1 8.55 -12.9 L9.15 -12.7 Q9.55 -12.7 9.8 -12.9 L10.0 -13.5 9.8 -14.1 M7.9 -13.5 Q7.9 -14.0 8.25 -14.4 8.65 -14.85 9.15 -14.85 9.7 -14.85 10.05 -14.4 10.45 -14.0 10.45 -13.5 10.45 -13.05 10.05 -12.6 9.7 -12.2 9.15 -12.2 8.65 -12.2 8.25 -12.6 7.9 -13.05 7.9 -13.5" fill="#000000" fill-rule="evenodd" stroke="none"/>
  </g>
</svg>
