<svg xmlns:xlink="http://www.w3.org/1999/xlink" height="95.75px" width="37.75px" xmlns="http://www.w3.org/2000/svg">
  <g transform="matrix(1.0, 0.0, 0.0, 1.0, 16.25, 95.1)">
    <path d="M6.1 -91.45 L8.1 -95.1 8.7 -94.75 2.5 -83.7 1.9 -84.05 6.1 -91.45 M0.6 -71.45 Q2.1 -69.15 5.2 -67.8 L4.5 -66.35 Q0.45 -68.1 -1.25 -72.7 -2.45 -68.3 -6.8 -66.35 L-7.7 -67.6 Q-3.0 -69.45 -2.25 -73.9 -2.1 -74.75 -2.1 -75.65 L-2.1 -78.7 -0.85 -78.7 Q-0.25 -78.6 -0.75 -78.2 L-0.75 -75.8 Q-0.55 -73.3 0.6 -71.45 M10.3 -61.1 L10.95 -61.75 Q13.4 -59.45 13.85 -56.55 L13.9 -55.35 Q13.9 -51.75 10.95 -49.0 L10.3 -49.6 Q13.0 -52.15 13.0 -55.35 13.0 -58.6 10.3 -61.1 M15.35 -57.55 L15.9 -59.3 15.35 -59.3 15.35 -60.6 16.7 -60.6 16.7 -59.3 15.9 -57.55 15.35 -57.55 M17.9 -61.1 L18.55 -61.75 Q21.5 -59.0 21.5 -55.35 21.5 -51.75 18.55 -49.0 L17.9 -49.6 Q20.6 -52.15 20.6 -55.35 20.6 -58.6 17.9 -61.1 M11.3 -43.3 L11.9 -43.3 11.9 -41.75 11.45 -41.75 10.75 -41.75 10.75 -43.3 11.3 -43.3 M11.9 -39.9 L11.9 -33.35 10.75 -33.35 10.75 -39.9 11.9 -39.9 M11.95 -29.0 L12.0 -29.0 12.0 -14.1 10.8 -14.1 10.8 -29.0 11.95 -29.0 M11.85 -9.45 L11.85 -3.9 Q11.85 -1.85 10.6 -0.6 9.35 0.65 7.55 0.65 5.8 0.65 4.5 -0.6 3.3 -1.85 3.3 -3.9 L3.3 -9.45 4.4 -9.45 4.4 -3.9 Q4.4 -2.35 5.4 -1.4 6.3 -0.5 7.55 -0.5 8.85 -0.5 9.75 -1.4 10.75 -2.35 10.75 -3.9 L10.75 -9.45 11.85 -9.45 M-3.65 -9.45 L-3.65 -3.9 Q-3.65 -1.85 -4.9 -0.6 -6.15 0.65 -7.95 0.65 -9.7 0.65 -11.0 -0.6 -12.2 -1.85 -12.2 -3.9 L-12.2 -9.45 -11.1 -9.45 -11.1 -3.9 Q-11.1 -2.35 -10.1 -1.4 -9.2 -0.5 -7.95 -0.5 -6.65 -0.5 -5.75 -1.4 -4.75 -2.35 -4.75 -3.9 L-4.75 -9.45 -3.65 -9.45 M-12.6 -14.1 L-12.6 -29.0 -11.4 -29.0 -11.4 -14.1 -12.6 -14.1 M-12.7 -32.6 L-13.35 -32.0 Q-16.25 -34.75 -16.25 -38.35 -16.25 -42.0 -13.35 -44.75 L-12.7 -44.1 Q-15.4 -41.6 -15.4 -38.35 -15.4 -35.15 -12.7 -32.6 M-12.6 -49.05 L-12.65 -49.0 -13.15 -49.5 Q-15.55 -52.1 -15.55 -55.35 -15.55 -59.0 -12.65 -61.75 L-12.0 -61.1 Q-14.7 -58.6 -14.7 -55.35 -14.7 -52.15 -12.0 -49.6 L-12.6 -49.05 M-3.75 -84.25 L-7.7 -94.4 -6.3 -94.4 -4.75 -90.35 -3.2 -86.25 -1.65 -90.25 -0.1 -94.4 1.3 -94.4 1.0 -93.55 -2.7 -84.25 -3.75 -84.25 M8.15 -62.2 L7.5 -62.0 7.25 -61.35 Q7.25 -60.95 7.5 -60.7 7.75 -60.45 8.15 -60.45 L8.8 -60.7 9.05 -61.35 8.8 -62.0 8.15 -62.2 M6.8 -61.35 L7.2 -62.3 Q7.6 -62.7 8.15 -62.7 8.7 -62.7 9.1 -62.3 9.5 -61.85 9.5 -61.35 9.5 -60.8 9.1 -60.4 8.7 -60.0 8.15 -60.0 7.6 -60.0 7.2 -60.4 6.8 -60.8 6.8 -61.35 M-6.8 -60.45 Q-6.4 -60.45 -6.15 -60.7 -5.9 -60.95 -5.9 -61.35 -5.9 -61.75 -6.15 -62.0 L-6.8 -62.2 -7.45 -62.0 -7.7 -61.35 -7.45 -60.7 Q-7.2 -60.45 -6.8 -60.45 M-7.75 -62.3 Q-7.35 -62.7 -6.8 -62.7 -6.25 -62.7 -5.85 -62.3 -5.45 -61.85 -5.45 -61.35 -5.45 -60.8 -5.85 -60.4 -6.25 -60.0 -6.8 -60.0 -7.35 -60.0 -7.75 -60.4 -8.15 -60.8 -8.15 -61.35 L-7.75 -62.3 M-3.6 -58.3 L4.9 -58.3 4.9 -56.65 Q4.9 -51.15 -0.2 -49.25 L-1.0 -50.25 Q3.75 -51.75 3.75 -56.65 L3.75 -57.2 -2.4 -57.2 -2.4 -54.0 -3.6 -54.0 -3.6 -58.3 M-9.3 -57.0 L-9.3 -55.7 -10.65 -55.7 -10.65 -57.0 -9.3 -57.0 M-10.65 -48.75 L-10.1 -50.35 -10.65 -50.35 -10.65 -51.6 -9.3 -51.6 -9.3 -50.35 -10.1 -48.75 -10.65 -48.75 M-1.4 -37.3 Q-1.4 -35.55 -2.3 -34.65 -3.85 -33.1 -7.6 -32.95 L-8.1 -34.2 Q-4.4 -34.25 -3.25 -35.45 -2.6 -36.1 -2.6 -37.3 -2.6 -38.3 -3.4 -39.15 -3.85 -39.6 -5.05 -39.6 L-7.6 -39.15 -10.9 -37.9 -11.5 -39.15 -8.1 -40.2 -4.85 -40.7 Q-3.35 -40.7 -2.4 -39.75 -1.4 -38.75 -1.4 -37.3" fill="#000000" fill-rule="evenodd" stroke="none"/>
    <path d="M1.0 -93.55 Q0.25 -90.3 3.15 -90.6 4.7 -90.8 6.1 -91.45 L1.9 -84.05 2.5 -83.7 Q0.65 -79.4 0.6 -74.75 L0.6 -71.45 Q-0.55 -73.3 -0.75 -75.8 L-0.75 -78.2 Q-0.25 -78.6 -0.85 -78.7 L-2.1 -78.7 -2.1 -75.65 Q-2.6 -80.15 -3.8 -84.25 L-3.75 -84.25 -2.7 -84.25 1.0 -93.55 M5.2 -67.8 Q8.9 -65.1 10.3 -61.1 13.0 -58.6 13.0 -55.35 13.0 -52.15 10.3 -49.6 L10.95 -49.0 Q13.9 -51.75 13.9 -55.35 L13.85 -56.55 15.35 -57.55 15.9 -57.55 16.7 -59.3 16.7 -60.6 15.35 -60.6 Q16.5 -63.5 17.9 -61.1 20.6 -58.6 20.6 -55.35 20.6 -52.15 17.9 -49.6 L18.55 -49.0 Q14.95 -46.5 11.25 -44.3 L11.3 -43.3 10.75 -43.3 10.75 -41.75 11.45 -41.75 Q11.6 -40.75 11.9 -39.9 L10.75 -39.9 10.75 -33.35 11.9 -33.35 11.95 -29.0 10.8 -29.0 10.8 -14.1 12.0 -14.1 11.9 -9.45 11.85 -9.45 10.75 -9.45 10.75 -3.9 Q10.75 -2.35 9.75 -1.4 8.85 -0.5 7.55 -0.5 6.3 -0.5 5.4 -1.4 4.4 -2.35 4.4 -3.9 L4.4 -9.45 3.3 -9.45 Q2.35 -10.6 0.15 -10.7 -2.55 -10.75 -3.65 -9.45 L-4.75 -9.45 -4.75 -3.9 Q-4.75 -2.35 -5.75 -1.4 -6.65 -0.5 -7.95 -0.5 -9.2 -0.5 -10.1 -1.4 -11.1 -2.35 -11.1 -3.9 L-11.1 -9.45 -12.2 -9.45 -12.6 -14.1 -11.4 -14.1 -11.4 -29.0 -12.6 -29.0 -12.7 -32.6 Q-15.4 -35.15 -15.4 -38.35 -15.4 -41.6 -12.7 -44.1 L-13.35 -44.75 -11.7 -47.2 Q-11.95 -48.35 -12.6 -49.05 L-12.0 -49.6 Q-14.7 -52.15 -14.7 -55.35 -14.7 -58.6 -12.0 -61.1 L-12.65 -61.75 Q-11.1 -65.25 -8.8 -66.65 L-7.7 -67.6 -6.8 -66.35 Q-2.45 -68.3 -1.25 -72.7 0.45 -68.1 4.5 -66.35 L5.2 -67.8 M-4.75 -90.35 L-1.65 -90.25 -3.2 -86.25 -4.75 -90.35 M-1.4 -37.3 Q-1.4 -38.75 -2.4 -39.75 -3.35 -40.7 -4.85 -40.7 L-8.1 -40.2 -11.5 -39.15 -10.9 -37.9 -7.6 -39.15 -5.05 -39.6 Q-3.85 -39.6 -3.4 -39.15 -2.6 -38.3 -2.6 -37.3 -2.6 -36.1 -3.25 -35.45 -4.4 -34.25 -8.1 -34.2 L-7.6 -32.95 Q-3.85 -33.1 -2.3 -34.65 -1.4 -35.55 -1.4 -37.3 M-10.65 -48.75 L-10.1 -48.75 -9.3 -50.35 -9.3 -51.6 -10.65 -51.6 -10.65 -50.35 -10.1 -50.35 -10.65 -48.75 M-9.3 -57.0 L-10.65 -57.0 -10.65 -55.7 -9.3 -55.7 -9.3 -57.0 M-3.6 -58.3 L-3.6 -54.0 -2.4 -54.0 -2.4 -57.2 3.75 -57.2 3.75 -56.65 Q3.75 -51.75 -1.0 -50.25 L-0.2 -49.25 Q4.9 -51.15 4.9 -56.65 L4.9 -58.3 -3.6 -58.3 M-7.75 -62.3 L-8.15 -61.35 Q-8.15 -60.8 -7.75 -60.4 -7.35 -60.0 -6.8 -60.0 -6.25 -60.0 -5.85 -60.4 -5.45 -60.8 -5.45 -61.35 -5.45 -61.85 -5.85 -62.3 -6.25 -62.7 -6.8 -62.7 -7.35 -62.7 -7.75 -62.3 M-6.8 -60.45 Q-7.2 -60.45 -7.45 -60.7 L-7.7 -61.35 -7.45 -62.0 -6.8 -62.2 -6.15 -62.0 Q-5.9 -61.75 -5.9 -61.35 -5.9 -60.95 -6.15 -60.7 -6.4 -60.45 -6.8 -60.45 M6.8 -61.35 Q6.8 -60.8 7.2 -60.4 7.6 -60.0 8.15 -60.0 8.7 -60.0 9.1 -60.4 9.5 -60.8 9.5 -61.35 9.5 -61.85 9.1 -62.3 8.7 -62.7 8.15 -62.7 7.6 -62.7 7.2 -62.3 L6.8 -61.35 M8.15 -62.2 L8.8 -62.0 9.05 -61.35 8.8 -60.7 8.15 -60.45 Q7.75 -60.45 7.5 -60.7 7.25 -60.95 7.25 -61.35 L7.5 -62.0 8.15 -62.2" fill="#ffffff" fill-rule="evenodd" stroke="none"/>
  </g>
</svg>
