<svg xmlns:xlink="http://www.w3.org/1999/xlink" height="23.9px" width="57.3px" xmlns="http://www.w3.org/2000/svg">
  <g transform="matrix(1.0, 0.0, 0.0, 1.0, 28.65, 11.95)">
    <path d="M-24.25 9.15 L-24.75 9.65 Q-28.65 6.0 -28.65 1.15 -28.65 -3.6 -24.9 -7.2 L-24.75 -7.35 -24.65 -7.25 -23.9 -6.5 Q-27.45 -3.15 -27.45 1.15 -27.45 5.45 -23.9 8.8 L-24.25 9.15 M24.65 -7.25 L24.75 -7.35 Q28.65 -3.7 28.65 1.15 28.65 6.0 24.75 9.65 L24.45 9.35 23.9 8.8 Q27.5 5.45 27.5 1.15 27.5 -3.15 23.9 -6.5 L24.65 -7.25 M-10.2 -6.75 Q-10.6 -6.35 -10.6 -5.75 -10.6 -5.1 -10.2 -4.7 -9.85 -4.3 -9.2 -4.3 -8.6 -4.3 -8.2 -4.7 -7.8 -5.1 -7.8 -5.75 -7.8 -6.35 -8.2 -6.75 -8.6 -7.15 -9.2 -7.15 -9.85 -7.15 -10.2 -6.75 M-9.2 -7.9 Q-8.25 -7.9 -7.65 -7.3 -7.0 -6.65 -7.0 -5.75 -7.0 -4.8 -7.65 -4.15 -8.25 -3.55 -9.2 -3.55 -10.15 -3.55 -10.75 -4.15 -11.4 -4.8 -11.4 -5.75 -11.4 -6.65 -10.75 -7.3 -10.15 -7.9 -9.2 -7.9 M19.15 -7.15 Q18.5 -7.15 18.15 -6.75 17.75 -6.35 17.75 -5.75 17.75 -5.1 18.15 -4.7 18.5 -4.3 19.15 -4.3 19.75 -4.3 20.15 -4.7 20.55 -5.1 20.55 -5.75 20.55 -6.35 20.15 -6.75 19.75 -7.15 19.15 -7.15 M20.7 -7.3 Q21.35 -6.65 21.35 -5.75 21.35 -4.8 20.7 -4.15 20.1 -3.55 19.15 -3.55 18.2 -3.55 17.6 -4.15 16.95 -4.8 16.95 -5.75 16.95 -6.65 17.6 -7.3 18.2 -7.9 19.15 -7.9 20.1 -7.9 20.7 -7.3 M5.65 -1.25 L5.65 1.4 Q5.65 4.5 4.45 6.45 L9.0 6.45 9.0 -1.25 5.65 -1.25 M10.55 -2.75 L10.55 6.45 11.95 6.45 11.95 10.05 10.4 10.05 10.4 7.95 3.05 7.95 3.05 10.05 1.5 10.05 1.5 6.45 2.75 6.45 Q4.05 4.6 4.05 1.4 L4.05 -2.75 10.55 -2.75" fill="#000000" fill-rule="evenodd" stroke="none"/>
    <path d="M-24.65 -7.25 Q-11.7 -12.0 0.7 -11.95 15.65 -12.2 24.65 -7.25 L23.9 -6.5 Q27.5 -3.15 27.5 1.15 27.5 5.45 23.9 8.8 L24.45 9.35 Q11.1 12.05 0.45 11.95 -13.3 12.05 -24.25 9.15 L-23.9 8.8 Q-27.45 5.45 -27.45 1.15 -27.45 -3.15 -23.9 -6.5 L-24.65 -7.25 M10.55 -2.75 L4.05 -2.75 4.05 1.4 Q4.05 4.6 2.75 6.45 L1.5 6.45 1.5 10.05 3.05 10.05 3.05 7.95 10.4 7.95 10.4 10.05 11.95 10.05 11.95 6.45 10.55 6.45 10.55 -2.75 M5.65 -1.25 L9.0 -1.25 9.0 6.45 4.45 6.45 Q5.65 4.5 5.65 1.4 L5.65 -1.25 M20.7 -7.3 Q20.1 -7.9 19.15 -7.9 18.2 -7.9 17.6 -7.3 16.95 -6.65 16.95 -5.75 16.95 -4.8 17.6 -4.15 18.2 -3.55 19.15 -3.55 20.1 -3.55 20.7 -4.15 21.35 -4.8 21.35 -5.75 21.35 -6.65 20.7 -7.3 M19.15 -7.15 Q19.75 -7.15 20.15 -6.75 20.55 -6.35 20.55 -5.75 20.55 -5.1 20.15 -4.7 19.75 -4.3 19.15 -4.3 18.5 -4.3 18.15 -4.7 17.75 -5.1 17.75 -5.75 17.75 -6.35 18.15 -6.75 18.5 -7.15 19.15 -7.15 M-9.2 -7.9 Q-10.15 -7.9 -10.75 -7.3 -11.4 -6.65 -11.4 -5.75 -11.4 -4.8 -10.75 -4.15 -10.15 -3.55 -9.2 -3.55 -8.25 -3.55 -7.65 -4.15 -7.0 -4.8 -7.0 -5.75 -7.0 -6.65 -7.65 -7.3 -8.25 -7.9 -9.2 -7.9 M-10.2 -6.75 Q-9.85 -7.15 -9.2 -7.15 -8.6 -7.15 -8.2 -6.75 -7.8 -6.35 -7.8 -5.75 -7.8 -5.1 -8.2 -4.7 -8.6 -4.3 -9.2 -4.3 -9.85 -4.3 -10.2 -4.7 -10.6 -5.1 -10.6 -5.75 -10.6 -6.35 -10.2 -6.75" fill="#ffffff" fill-rule="evenodd" stroke="none"/>
  </g>
</svg>
