<svg xmlns:xlink="http://www.w3.org/1999/xlink" height="83.5px" width="58.65px" xmlns="http://www.w3.org/2000/svg">
  <g transform="matrix(1.0, 0.0, 0.0, 1.0, 27.55, 41.75)">
    <path d="M25.25 -30.55 L27.35 -25.05 27.55 -24.25 Q28.95 -22.95 29.6 -21.65 30.25 -20.3 30.25 -18.4 30.25 -16.85 29.6 -15.45 28.95 -14.15 27.55 -12.55 L27.95 -12.0 21.85 -7.1 21.55 -7.35 20.25 -7.35 20.25 -2.05 Q20.25 2.6 16.15 4.05 L16.9 5.4 17.0 5.5 13.65 11.3 13.25 11.4 11.9 11.0 Q11.5 18.2 5.65 21.55 L6.6 22.7 6.65 22.65 10.2 27.9 9.55 28.55 Q11.0 29.85 11.65 31.1 12.25 32.5 12.25 34.4 12.25 35.95 11.65 37.35 11.0 38.65 9.55 40.2 L8.3 41.1 -6.7 41.1 -7.95 40.2 Q-9.45 38.65 -10.0 37.35 -10.7 35.95 -10.65 34.4 -10.7 32.5 -10.0 31.1 -9.45 29.85 -7.95 28.55 L-8.6 27.9 Q-10.1 29.35 -10.8 30.75 L-11.4 32.8 -14.9 35.4 -16.15 34.75 Q-16.4 36.7 -17.1 37.65 -17.8 38.75 -19.0 38.85 -20.7 38.9 -21.2 38.35 -21.8 37.75 -21.8 36.35 L-21.8 28.15 -22.0 27.95 -17.55 24.1 -18.2 23.3 -17.6 22.65 Q-19.05 21.05 -19.6 19.75 -20.3 18.35 -20.3 16.8 -20.3 14.9 -19.6 13.5 -19.05 12.25 -17.6 10.95 L-18.2 10.3 -18.45 10.55 -18.45 5.35 -24.25 5.35 -24.0 5.05 Q-25.45 3.45 -26.0 2.15 -26.7 0.75 -26.7 -0.8 -26.7 -2.7 -26.0 -4.05 -25.45 -5.35 -24.0 -6.65 L-24.35 -7.0 -20.45 -12.2 -20.15 -12.55 Q-21.6 -14.15 -22.15 -15.45 -22.85 -16.85 -22.85 -18.4 -22.85 -20.3 -22.15 -21.65 -21.6 -22.95 -20.15 -24.25 L-20.45 -24.55 -17.35 -30.3 -17.35 -30.25 -4.5 -41.0 -4.65 -41.2 -4.9 -41.5 -0.5 -41.35 -1.5 -41.35 -1.5 -30.45 9.3 -30.45 9.3 -41.35 Q10.95 -41.55 12.5 -40.75 L25.0 -30.25 25.25 -30.55 M1.6 -22.9 L0.45 -23.55 -0.85 -21.1 -6.75 -21.1 -8.1 -23.55 -9.2 -22.9 -3.8 -13.05 1.6 -22.9 M18.75 -23.5 Q16.95 -23.5 15.65 -22.15 14.45 -21.0 14.45 -18.9 L14.45 -13.3 15.55 -13.3 15.55 -18.9 Q15.5 -20.4 16.55 -21.4 17.4 -22.3 18.75 -22.3 20.05 -22.3 20.95 -21.4 21.95 -20.4 21.95 -18.9 L21.95 -13.3 23.05 -13.3 23.05 -18.9 Q23.05 -21.0 21.8 -22.15 20.5 -23.5 18.75 -23.5 M7.1 -25.1 L5.05 -25.1 8.0 -22.55 9.3 -22.55 7.1 -25.1 M-3.8 -15.7 L-6.15 -19.9 -1.45 -19.9 -3.8 -15.7 M-22.1 -3.5 L-21.55 -2.05 -18.25 -3.5 -15.25 -4.05 Q-14.2 -4.0 -13.6 -3.3 -12.95 -2.6 -12.95 -1.3 -12.9 0.45 -13.8 1.4 -15.1 2.8 -18.45 2.85 L-18.2 4.15 Q-15.2 4.15 -13.55 2.95 -11.8 1.65 -11.65 -0.8 -11.55 -3.25 -12.85 -4.45 -13.9 -5.35 -15.45 -5.35 L-18.35 -4.8 -22.1 -3.5 M-13.0 -25.1 L-15.15 -25.1 -17.4 -22.55 -16.0 -22.55 -13.0 -25.1 M1.85 20.7 L3.35 19.5 Q1.15 16.4 -3.65 13.4 L-4.9 14.55 Q-0.4 17.45 1.85 20.7" fill="#ffffff" fill-rule="evenodd" stroke="none"/>
    <path d="M12.5 -40.75 L12.15 -41.0 12.85 -41.75 25.65 -31.1 25.25 -30.55 25.0 -30.25 12.5 -40.75 M27.55 -24.25 L28.15 -24.85 Q29.65 -23.45 30.35 -22.05 31.1 -20.5 31.1 -18.4 31.1 -16.6 30.35 -15.0 29.65 -13.6 28.15 -11.85 L27.55 -12.55 Q28.95 -14.15 29.6 -15.45 30.25 -16.85 30.25 -18.4 30.25 -20.3 29.6 -21.65 28.95 -22.95 27.55 -24.25 M21.85 -7.1 L21.6 -6.9 21.6 -1.45 Q21.6 3.3 17.1 5.3 L16.9 5.4 16.15 4.05 Q20.25 2.6 20.25 -2.05 L20.25 -7.35 21.55 -7.35 21.85 -7.1 M13.25 11.4 Q13.0 15.1 11.2 18.05 9.5 20.95 6.65 22.65 L6.6 22.7 5.65 21.55 Q11.5 18.2 11.9 11.0 L13.25 11.4 M10.2 27.9 L10.3 28.0 Q11.7 29.4 12.4 30.75 13.15 32.3 13.15 34.4 13.15 36.2 12.4 37.75 11.75 39.1 10.4 40.65 L10.25 40.85 10.2 40.9 9.55 40.2 Q11.0 38.65 11.65 37.35 12.25 35.95 12.25 34.4 12.25 32.5 11.65 31.1 11.0 29.85 9.55 28.55 L10.2 27.9 M8.3 41.1 L8.3 41.75 -6.7 41.75 -6.7 41.1 8.3 41.1 M-7.95 40.2 L-8.6 40.9 -8.9 40.55 Q-10.15 39.05 -10.8 37.75 -11.55 36.2 -11.55 34.4 L-11.4 32.8 -10.8 30.75 Q-10.1 29.35 -8.6 27.9 L-7.95 28.55 Q-9.45 29.85 -10.0 31.1 -10.7 32.5 -10.65 34.4 -10.7 35.95 -10.0 37.35 -9.45 38.65 -7.95 40.2 M-14.9 35.4 Q-15.65 40.15 -19.55 40.15 -21.45 40.2 -22.15 39.3 -22.85 38.4 -22.9 36.35 L-22.9 28.15 -21.8 28.15 -21.8 36.35 Q-21.8 37.75 -21.2 38.35 -20.7 38.9 -19.0 38.85 -17.8 38.75 -17.1 37.65 -16.4 36.7 -16.15 34.75 L-14.9 35.4 M-18.2 23.3 L-20.4 20.2 Q-21.2 18.6 -21.15 16.8 -21.2 14.7 -20.4 13.15 L-18.65 10.75 -18.45 10.55 -18.2 10.3 -17.6 10.95 Q-19.05 12.25 -19.6 13.5 -20.3 14.9 -20.3 16.8 -20.3 18.35 -19.6 19.75 -19.05 21.05 -17.6 22.65 L-18.2 23.3 M-24.25 5.35 L-24.6 5.75 -26.8 2.6 Q-27.6 1.0 -27.55 -0.8 -27.6 -2.9 -26.8 -4.45 -26.15 -5.85 -24.6 -7.25 L-24.35 -7.0 -24.0 -6.65 Q-25.45 -5.35 -26.0 -4.05 -26.7 -2.7 -26.7 -0.8 -26.7 0.75 -26.0 2.15 -25.45 3.45 -24.0 5.05 L-24.25 5.35 M-20.45 -12.2 L-20.8 -11.85 -23.0 -15.0 Q-23.75 -16.6 -23.75 -18.4 -23.75 -20.5 -23.0 -22.05 -22.3 -23.45 -20.8 -24.85 L-20.45 -24.55 -20.15 -24.25 Q-21.6 -22.95 -22.15 -21.65 -22.85 -20.3 -22.85 -18.4 -22.85 -16.85 -22.15 -15.45 -21.6 -14.15 -20.15 -12.55 L-20.45 -12.2 M-17.35 -30.3 L-18.0 -31.1 -5.15 -41.75 -4.65 -41.2 -4.5 -41.0 -17.35 -30.25 -17.35 -30.3 M-0.5 -41.35 L9.3 -41.35 9.3 -30.45 -1.5 -30.45 -1.5 -41.35 -0.5 -41.35 M7.1 -25.1 L9.3 -22.55 8.0 -22.55 5.05 -25.1 7.1 -25.1 M18.75 -23.5 Q20.5 -23.5 21.8 -22.15 23.05 -21.0 23.05 -18.9 L23.05 -13.3 21.95 -13.3 21.95 -18.9 Q21.95 -20.4 20.95 -21.4 20.05 -22.3 18.75 -22.3 17.4 -22.3 16.55 -21.4 15.5 -20.4 15.55 -18.9 L15.55 -13.3 14.45 -13.3 14.45 -18.9 Q14.45 -21.0 15.65 -22.15 16.95 -23.5 18.75 -23.5 M1.6 -22.9 L-3.8 -13.05 -9.2 -22.9 -8.1 -23.55 -6.75 -21.1 -0.85 -21.1 0.45 -23.55 1.6 -22.9 M29.9 -7.15 L29.65 -7.15 29.8 -7.25 29.9 -7.15 M1.85 20.7 Q-0.4 17.45 -4.9 14.55 L-3.65 13.4 Q1.15 16.4 3.35 19.5 L1.85 20.7 M-13.0 -25.1 L-16.0 -22.55 -17.4 -22.55 -15.15 -25.1 -13.0 -25.1 M-22.1 -3.5 L-18.35 -4.8 -15.45 -5.35 Q-13.9 -5.35 -12.85 -4.45 -11.55 -3.25 -11.65 -0.8 -11.8 1.65 -13.55 2.95 -15.2 4.15 -18.2 4.15 L-18.45 2.85 Q-15.1 2.8 -13.8 1.4 -12.9 0.45 -12.95 -1.3 -12.95 -2.6 -13.6 -3.3 -14.2 -4.0 -15.25 -4.05 L-18.25 -3.5 -21.55 -2.05 -22.1 -3.5 M-3.8 -15.7 L-1.45 -19.9 -6.15 -19.9 -3.8 -15.7" fill="#000000" fill-rule="evenodd" stroke="none"/>
  </g>
</svg>
