<svg xmlns:xlink="http://www.w3.org/1999/xlink" height="49.95px" width="64.4px" xmlns="http://www.w3.org/2000/svg">
  <g transform="matrix(1.0, 0.0, 0.0, 1.0, 34.55, 49.25)">
    <path d="M-22.7 -37.05 L-23.4 -37.85 -9.75 -49.25 -9.05 -48.45 -22.7 -37.05 M-5.9 -48.75 L5.6 -48.75 5.6 -37.25 -5.9 -37.25 -5.9 -48.75 M8.6 -48.45 L9.3 -49.25 22.95 -37.85 22.25 -37.05 8.6 -48.45 M26.75 -31.95 Q28.35 -30.45 29.05 -29.0 29.85 -27.3 29.85 -25.1 29.85 -23.2 29.05 -21.5 28.3 -19.95 26.75 -18.2 L26.05 -18.85 Q27.6 -20.55 28.25 -21.95 28.95 -23.45 28.95 -25.1 28.95 -27.1 28.25 -28.55 27.6 -29.85 26.05 -31.3 L26.75 -31.95 M19.6 -13.95 Q21.2 -12.45 21.9 -11.0 22.7 -9.3 22.7 -7.1 22.7 -5.2 21.9 -3.5 21.15 -1.95 19.6 -0.2 L18.9 -0.85 Q20.45 -2.55 21.1 -3.95 21.8 -5.45 21.8 -7.1 21.8 -9.1 21.1 -10.55 20.45 -11.85 18.9 -13.3 L19.6 -13.95 M17.6 0.0 L17.6 0.7 1.65 0.7 1.65 0.0 17.6 0.0 M1.6 0.0 L1.6 0.7 -14.35 0.7 -14.35 0.0 1.6 0.0 M-15.65 -0.85 L-16.35 -0.2 Q-17.9 -1.95 -18.65 -3.5 L-19.2 -5.1 -19.45 -7.1 Q-19.45 -9.3 -18.65 -11.0 L-17.3 -12.9 -16.35 -13.95 -15.65 -13.3 -16.6 -12.3 -17.85 -10.55 Q-18.55 -9.1 -18.55 -7.1 L-18.55 -6.65 Q-18.45 -5.25 -17.85 -3.95 -17.2 -2.55 -15.65 -0.85 M-23.0 -18.85 L-23.7 -18.2 Q-25.25 -19.95 -26.0 -21.5 L-26.3 -22.2 Q-26.8 -23.6 -26.8 -25.1 -26.8 -27.3 -26.0 -29.0 L-25.3 -30.1 -23.7 -31.95 -23.0 -31.3 -24.65 -29.45 -25.2 -28.55 Q-25.9 -27.1 -25.9 -25.1 -25.9 -23.8 -25.45 -22.55 L-25.2 -21.95 Q-24.55 -20.55 -23.0 -18.85 M-14.25 -27.7 L-11.7 -26.05 -11.8 -29.05 -10.55 -29.05 -10.7 -26.05 -8.15 -27.7 -7.5 -26.55 -10.2 -25.2 -7.5 -23.8 -8.15 -22.7 -10.7 -24.3 -10.55 -21.1 -11.8 -21.1 -11.7 -24.3 -14.25 -22.7 -14.9 -23.8 -12.2 -25.2 -14.9 -26.55 -14.25 -27.7 M-34.55 -6.45 L-33.15 -8.2 Q-32.2 -9.05 -31.05 -9.05 -29.8 -9.05 -28.2 -8.1 -26.55 -7.1 -25.4 -7.1 -24.6 -7.1 -23.8 -7.95 L-23.05 -9.0 -21.8 -7.95 -23.2 -6.3 Q-24.2 -5.35 -25.6 -5.35 -26.65 -5.35 -28.55 -6.5 -29.95 -7.35 -30.9 -7.35 -31.95 -7.35 -32.55 -6.7 L-33.2 -5.6 -34.55 -6.45 M-16.05 -19.7 L-16.9 -18.0 -17.5 -18.0 -16.9 -19.7 -17.5 -19.7 -17.5 -21.05 -16.05 -21.05 -16.05 -19.7 M-19.3 -21.05 L-19.3 -19.7 -20.15 -18.0 -20.75 -18.0 -20.15 -19.7 -20.75 -19.7 -20.75 -21.05 -19.3 -21.05 M22.1 -23.95 L19.45 -23.95 19.45 -26.6 22.1 -26.6 22.1 -23.95 M-4.55 -26.6 L-1.9 -26.6 -1.9 -23.95 -4.55 -23.95 -4.55 -26.6 M7.35 -27.5 Q7.35 -23.35 5.7 -20.8 L11.75 -20.8 11.75 -30.6 7.35 -30.6 7.35 -27.5 M6.1 -31.8 L13.0 -31.8 13.0 -20.8 14.45 -20.8 14.45 -17.35 13.2 -17.35 13.2 -19.6 4.45 -19.6 4.45 -17.35 3.2 -17.35 3.2 -20.8 4.25 -20.8 Q6.1 -23.45 6.1 -27.5 L6.1 -31.8" fill="#000000" fill-rule="evenodd" stroke="none"/>
    <path d="M-9.05 -48.45 L-5.9 -48.75 -5.9 -37.25 5.6 -37.25 5.6 -48.75 8.5 -48.95 8.6 -48.45 22.25 -37.05 26.75 -31.95 26.05 -31.3 Q27.6 -29.85 28.25 -28.55 28.95 -27.1 28.95 -25.1 28.95 -23.45 28.25 -21.95 27.6 -20.55 26.05 -18.85 23.35 -15.75 19.45 -14.4 L19.6 -13.95 18.9 -13.3 Q20.45 -11.85 21.1 -10.55 21.8 -9.1 21.8 -7.1 21.8 -5.45 21.1 -3.95 20.45 -2.55 18.9 -0.85 18.35 -0.15 17.6 0.0 L1.65 0.0 1.6 0.0 -14.35 0.0 Q-14.8 -0.6 -15.65 -0.85 -17.2 -2.55 -17.85 -3.95 -18.45 -5.25 -18.55 -6.65 L-18.55 -7.1 Q-18.55 -9.1 -17.85 -10.55 L-16.6 -12.3 -15.65 -13.3 -16.35 -13.95 Q-19.35 -14.85 -21.55 -17.1 L-23.0 -18.85 Q-24.55 -20.55 -25.2 -21.95 L-25.45 -22.55 Q-25.9 -23.8 -25.9 -25.1 -25.9 -27.1 -25.2 -28.55 L-24.65 -29.45 -23.0 -31.3 -23.7 -31.95 -22.7 -37.05 -9.05 -48.45 M-14.25 -27.7 L-14.9 -26.55 -12.2 -25.2 -14.9 -23.8 -14.25 -22.7 -11.7 -24.3 -11.8 -21.1 -10.55 -21.1 -10.7 -24.3 -8.15 -22.7 -7.5 -23.8 -10.2 -25.2 -7.5 -26.55 -8.15 -27.7 -10.7 -26.05 -10.55 -29.05 -11.8 -29.05 -11.7 -26.05 -14.25 -27.7 M6.1 -31.8 L6.1 -27.5 Q6.1 -23.45 4.25 -20.8 L3.2 -20.8 3.2 -17.35 4.45 -17.35 4.45 -19.6 13.2 -19.6 13.2 -17.35 14.45 -17.35 14.45 -20.8 13.0 -20.8 13.0 -31.8 6.1 -31.8 M7.35 -27.5 L7.35 -30.6 11.75 -30.6 11.75 -20.8 5.7 -20.8 Q7.35 -23.35 7.35 -27.5 M-4.55 -26.6 L-4.55 -23.95 -1.9 -23.95 -1.9 -26.6 -4.55 -26.6 M22.1 -23.95 L22.1 -26.6 19.45 -26.6 19.45 -23.95 22.1 -23.95 M-19.3 -21.05 L-20.75 -21.05 -20.75 -19.7 -20.15 -19.7 -20.75 -18.0 -20.15 -18.0 -19.3 -19.7 -19.3 -21.05 M-16.05 -19.7 L-16.05 -21.05 -17.5 -21.05 -17.5 -19.7 -16.9 -19.7 -17.5 -18.0 -16.9 -18.0 -16.05 -19.7" fill="#ffffff" fill-rule="evenodd" stroke="none"/>
  </g>
</svg>
