<svg xmlns:xlink="http://www.w3.org/1999/xlink" height="86.65px" width="58.15px" xmlns="http://www.w3.org/2000/svg">
  <g transform="matrix(1.0, 0.0, 0.0, 1.0, 25.55, 86.7)">
    <path d="M-21.75 -86.05 Q-20.45 -86.1 -19.55 -85.3 L-19.65 -85.2 -6.0 -73.8 -5.3 -74.6 -3.95 -72.75 -4.45 -72.75 -4.45 -72.05 11.5 -72.05 11.5 -72.75 12.6 -74.3 13.05 -73.8 26.7 -85.2 26.0 -86.0 29.5 -86.7 28.8 -86.05 Q30.35 -84.6 31.0 -83.3 31.7 -81.85 31.7 -79.85 31.7 -78.2 31.0 -76.7 30.35 -75.3 28.8 -73.6 L29.2 -73.25 Q27.6 -70.3 24.35 -68.5 L24.15 -68.7 23.45 -68.05 Q25.0 -66.6 25.65 -65.3 26.35 -63.85 26.35 -61.85 L26.35 -61.75 Q26.35 -60.15 25.65 -58.7 25.0 -57.3 23.45 -55.6 L24.15 -54.95 Q24.15 -52.8 23.4 -50.05 24.95 -48.6 25.6 -47.3 26.3 -45.85 26.3 -43.85 26.3 -42.2 25.6 -40.7 24.95 -39.3 23.4 -37.6 L24.1 -36.95 Q23.55 -35.2 21.6 -33.95 L20.35 -33.95 20.35 -18.05 21.6 -18.05 Q24.5 -16.65 26.05 -14.35 L25.7 -14.05 26.35 -13.4 27.9 -11.3 Q28.6 -9.85 28.6 -7.85 L28.6 -7.75 Q28.6 -6.15 27.9 -4.7 L26.9 -3.0 25.7 -1.6 24.45 -0.65 24.4 -0.75 8.45 -0.75 Q4.55 0.0 0.4 -0.55 L0.4 -0.75 -15.55 -0.75 -15.65 -0.75 -15.65 -1.45 -20.45 -1.45 -22.45 -0.95 -21.75 -1.6 Q-23.3 -3.3 -23.95 -4.7 -24.65 -6.2 -24.65 -7.85 L-24.6 -8.5 Q-24.55 -10.1 -23.95 -11.3 L-23.25 -12.35 -21.75 -14.05 Q-22.0 -16.4 -21.05 -18.05 L-19.8 -18.05 -19.8 -34.0 -21.05 -34.0 -21.05 -33.05 Q-21.6 -35.0 -22.55 -36.85 L-22.45 -36.95 -21.75 -37.6 Q-23.3 -39.3 -23.95 -40.7 -24.65 -42.2 -24.65 -43.85 -24.65 -45.85 -23.95 -47.3 L-21.75 -50.05 -22.45 -50.7 Q-22.25 -52.65 -22.45 -54.95 L-21.75 -55.6 Q-23.3 -57.3 -23.95 -58.7 L-24.5 -60.35 -24.65 -61.85 Q-24.65 -63.45 -24.2 -64.65 L-23.95 -65.3 -21.75 -68.05 Q-22.3 -70.8 -21.75 -73.6 -23.3 -75.3 -23.95 -76.7 L-24.05 -76.9 Q-24.65 -78.3 -24.65 -79.85 -24.65 -81.85 -23.95 -83.3 L-23.15 -84.55 -21.75 -86.05 M2.4 -14.7 L1.7 -14.05 3.9 -11.3 Q4.6 -9.85 4.6 -7.85 4.6 -6.2 3.9 -4.7 L2.9 -3.0 1.7 -1.6 2.4 -0.95 3.95 -2.9 4.7 -4.25 Q5.5 -5.95 5.5 -7.85 5.5 -10.05 4.7 -11.75 4.0 -13.2 2.4 -14.7 M1.1 -34.0 L-0.15 -34.0 -0.15 -18.05 1.1 -18.05 1.1 -34.0 M18.7 -66.25 L20.15 -66.25 17.85 -69.0 15.6 -69.0 18.7 -66.25 M-3.55 -69.0 L-5.8 -69.0 -8.15 -66.25 -6.75 -66.25 -3.55 -69.0 M3.7 -63.45 L8.7 -63.45 6.2 -59.0 3.7 -63.45 M9.35 -64.75 L3.1 -64.75 1.65 -67.3 0.45 -66.6 6.2 -56.2 11.95 -66.6 10.75 -67.3 9.35 -64.75" fill="#ffffff" fill-rule="evenodd" stroke="none"/>
    <path d="M-19.65 -85.2 L-19.55 -85.3 -18.95 -86.0 -5.3 -74.6 -6.0 -73.8 -19.65 -85.2 M-3.95 -72.75 L11.5 -72.75 11.5 -72.05 -4.45 -72.05 -4.45 -72.75 -3.95 -72.75 M12.6 -74.3 L12.35 -74.6 26.0 -86.0 26.7 -85.2 13.05 -73.8 12.6 -74.3 M29.5 -86.7 Q31.1 -85.2 31.8 -83.75 32.6 -82.05 32.6 -79.85 32.6 -77.95 31.8 -76.25 31.05 -74.7 29.5 -72.95 L29.2 -73.25 28.8 -73.6 Q30.35 -75.3 31.0 -76.7 31.7 -78.2 31.7 -79.85 31.7 -81.85 31.0 -83.3 30.35 -84.6 28.8 -86.05 L29.5 -86.7 M24.35 -68.5 Q25.8 -67.1 26.45 -65.75 L26.5 -65.7 Q27.25 -64.05 27.25 -61.85 27.25 -60.6 26.9 -59.45 L26.45 -58.25 Q25.7 -56.7 24.15 -54.95 L23.45 -55.6 Q25.0 -57.3 25.65 -58.7 26.35 -60.15 26.35 -61.75 L26.35 -61.85 Q26.35 -63.85 25.65 -65.3 25.0 -66.6 23.45 -68.05 L24.15 -68.7 24.35 -68.5 M23.4 -50.05 L24.1 -50.7 Q25.7 -49.2 26.4 -47.75 L26.65 -47.15 Q27.2 -45.65 27.2 -43.85 27.2 -41.95 26.4 -40.25 L26.3 -40.05 Q25.55 -38.6 24.1 -36.95 L23.4 -37.6 Q24.95 -39.3 25.6 -40.7 26.3 -42.2 26.3 -43.85 26.3 -45.85 25.6 -47.3 24.95 -48.6 23.4 -50.05 M21.6 -33.95 L21.6 -18.05 20.35 -18.05 20.35 -33.95 21.6 -33.95 M26.05 -14.35 L26.4 -14.7 Q28.0 -13.2 28.7 -11.75 29.5 -10.05 29.5 -7.85 L29.5 -7.65 Q29.45 -5.85 28.7 -4.25 L27.6 -2.35 26.4 -0.95 25.7 -1.6 26.9 -3.0 27.9 -4.7 Q28.6 -6.15 28.6 -7.75 L28.6 -7.85 Q28.6 -9.85 27.9 -11.3 L26.35 -13.4 25.7 -14.05 26.05 -14.35 M24.4 -0.75 L24.4 -0.05 8.45 -0.05 8.45 -0.75 24.4 -0.75 M0.4 -0.55 L0.4 -0.05 -15.55 -0.05 -15.55 -0.75 0.4 -0.75 0.4 -0.55 M-15.65 -0.75 L-15.65 -0.7 -20.45 -0.7 -20.45 -1.45 -15.65 -1.45 -15.65 -0.75 M-22.45 -0.95 L-22.95 -1.55 Q-24.15 -2.95 -24.75 -4.25 -25.5 -5.85 -25.55 -7.55 L-25.55 -7.85 Q-25.55 -10.05 -24.75 -11.75 L-23.4 -13.7 -22.45 -14.7 -21.75 -14.05 -23.25 -12.35 -23.95 -11.3 Q-24.55 -10.1 -24.6 -8.5 L-24.65 -7.85 Q-24.65 -6.2 -23.95 -4.7 -23.3 -3.3 -21.75 -1.6 L-22.45 -0.95 M-21.05 -18.05 L-21.05 -33.05 -21.05 -34.0 -19.8 -34.0 -19.8 -18.05 -21.05 -18.05 M-22.45 -36.95 L-22.95 -37.55 Q-24.15 -39.0 -24.75 -40.25 -25.55 -41.95 -25.55 -43.85 -25.55 -46.05 -24.75 -47.75 -24.05 -49.2 -22.45 -50.7 L-21.75 -50.05 -23.95 -47.3 Q-24.65 -45.85 -24.65 -43.85 -24.65 -42.2 -23.95 -40.7 -23.3 -39.3 -21.75 -37.6 L-22.45 -36.95 M-22.45 -54.95 Q-24.0 -56.7 -24.75 -58.25 -25.55 -59.95 -25.55 -61.85 -25.55 -64.05 -24.75 -65.75 L-24.1 -66.8 -22.45 -68.7 -21.75 -68.05 -23.95 -65.3 -24.2 -64.65 Q-24.65 -63.45 -24.65 -61.85 L-24.5 -60.35 -23.95 -58.7 Q-23.3 -57.3 -21.75 -55.6 L-22.45 -54.95 M-21.75 -73.6 L-22.45 -72.95 -24.5 -75.8 -24.75 -76.25 Q-25.55 -77.95 -25.55 -79.85 -25.55 -82.05 -24.75 -83.75 L-23.85 -85.1 -22.45 -86.7 -21.75 -86.05 -23.15 -84.55 -23.95 -83.3 Q-24.65 -81.85 -24.65 -79.85 -24.65 -78.3 -24.05 -76.9 L-23.95 -76.7 Q-23.3 -75.3 -21.75 -73.6 M9.35 -64.75 L10.75 -67.3 11.95 -66.6 6.2 -56.2 0.45 -66.6 1.65 -67.3 3.1 -64.75 9.35 -64.75 M3.7 -63.45 L6.2 -59.0 8.7 -63.45 3.7 -63.45 M-3.55 -69.0 L-6.75 -66.25 -8.15 -66.25 -5.8 -69.0 -3.55 -69.0 M18.7 -66.25 L15.6 -69.0 17.85 -69.0 20.15 -66.25 18.7 -66.25 M1.1 -34.0 L1.1 -18.05 -0.15 -18.05 -0.15 -34.0 1.1 -34.0 M2.4 -14.7 Q4.0 -13.2 4.7 -11.75 5.5 -10.05 5.5 -7.85 5.5 -5.95 4.7 -4.25 L3.95 -2.9 2.4 -0.95 1.7 -1.6 2.9 -3.0 3.9 -4.7 Q4.6 -6.2 4.6 -7.85 4.6 -9.85 3.9 -11.3 L1.7 -14.05 2.4 -14.7" fill="#000000" fill-rule="evenodd" stroke="none"/>
  </g>
</svg>
