<svg xmlns:xlink="http://www.w3.org/1999/xlink" height="66.0px" width="109.7px" xmlns="http://www.w3.org/2000/svg">
  <g transform="matrix(1.0, 0.0, 0.0, 1.0, 54.85, 33.0)">
    <path d="M-37.3 -18.0 L-37.3 -18.65 -22.35 -18.65 -22.35 -18.0 -37.3 -18.0 M-19.75 -20.35 L-20.5 -20.35 -10.65 -31.35 -10.3 -31.0 -9.8 -30.55 -17.95 -21.5 -9.55 -21.5 -9.55 -20.35 -19.75 -20.35 M-7.3 -32.95 L7.65 -32.95 7.65 -32.3 -7.3 -32.3 -7.3 -32.95 M8.45 -30.3 L9.1 -31.05 21.9 -20.4 21.5 -19.9 21.25 -19.65 8.45 -30.3 M23.8 -13.4 L24.35 -14.05 37.15 -3.4 36.9 -3.05 36.5 -2.65 23.7 -13.3 23.8 -13.4 M38.3 1.45 L38.3 1.1 39.5 1.1 39.5 16.0 38.65 16.0 38.3 16.0 38.3 1.45 M37.85 18.1 L38.1 18.1 38.1 33.0 36.9 33.0 36.9 31.9 36.9 18.1 37.85 18.1 M35.7 32.3 L35.7 32.4 31.2 32.4 31.2 31.7 35.7 31.7 35.7 32.3 M31.15 32.4 L26.65 32.4 26.65 31.7 31.15 31.7 31.15 32.4 M26.6 31.7 L26.6 32.4 22.1 32.4 22.1 31.7 26.6 31.7 M22.05 32.4 L17.55 32.4 17.55 31.7 22.05 31.7 22.05 32.4 M17.5 31.7 L17.5 32.4 13.0 32.4 13.0 32.35 13.0 31.7 17.5 31.7 M12.95 32.35 L12.95 33.0 -2.0 33.0 -2.0 32.35 12.95 32.35 M-2.05 32.35 L-2.05 33.0 -17.0 33.0 -17.0 32.35 -2.05 32.35 M-17.05 32.35 L-17.05 32.4 -21.55 32.4 -21.55 32.25 -21.55 31.7 -17.05 31.7 -17.05 32.35 M-22.7 32.25 L-23.35 33.0 -23.9 33.0 -23.9 30.6 -23.9 18.1 -22.7 18.1 -22.7 32.25 M-25.85 30.6 L-26.5 31.35 -39.3 20.7 -38.9 20.25 -38.65 19.95 -25.85 30.6 M-39.4 14.0 L-39.75 13.6 -26.95 2.95 -26.3 3.7 -39.1 14.35 -39.4 14.0 M-41.3 13.6 L-41.95 14.35 -54.75 3.7 -54.65 3.6 -54.1 2.95 -41.3 13.6 M-51.45 -3.0 L-51.8 -3.4 -39.0 -14.05 -38.7 -13.7 -38.35 -13.3 -51.15 -2.65 -51.45 -3.0 M-36.8 -13.3 L-36.15 -14.05 -23.35 -3.4 -24.0 -2.65 -36.8 -13.3 M21.8 -15.9 L21.8 -1.0 20.6 -1.0 20.6 -15.9 21.8 -15.9 M18.65 -15.2 L19.05 -14.25 Q19.05 -13.7 18.65 -13.3 18.25 -12.9 17.7 -12.9 17.15 -12.9 16.75 -13.3 L16.4 -13.85 16.35 -14.25 Q16.35 -14.75 16.75 -15.2 17.15 -15.6 17.7 -15.6 18.25 -15.6 18.65 -15.2 M5.6 -15.2 L6.0 -14.25 5.95 -13.85 5.6 -13.3 Q5.2 -12.9 4.65 -12.9 4.1 -12.9 3.7 -13.3 L3.35 -13.95 3.3 -14.25 Q3.3 -14.75 3.7 -15.2 4.1 -15.6 4.65 -15.6 5.2 -15.6 5.6 -15.2 M-5.7 -15.9 L-5.7 -1.0 -6.9 -1.0 -6.9 -15.9 -5.7 -15.9 M4.65 -13.35 L5.3 -13.6 5.55 -14.25 5.3 -14.9 4.65 -15.1 4.0 -14.9 3.75 -14.25 Q3.75 -13.85 4.0 -13.6 4.25 -13.35 4.65 -13.35 M8.8 -13.25 L8.8 -6.2 Q8.8 -5.4 9.35 -4.85 9.95 -4.2 11.2 -4.2 12.45 -4.2 13.1 -4.85 13.6 -5.4 13.6 -6.2 L13.6 -13.25 14.95 -13.25 14.95 -6.15 Q14.95 -4.85 14.15 -4.05 13.2 -3.1 11.2 -3.1 9.2 -3.1 8.3 -4.05 7.45 -4.85 7.45 -6.15 L7.45 -13.25 8.8 -13.25 M2.6 -13.65 L-3.6 -2.6 -4.2 -2.95 2.0 -14.0 2.6 -13.65 M1.55 3.75 L1.55 10.85 Q1.55 12.15 0.75 12.95 -0.2 13.9 -2.2 13.9 -4.2 13.9 -5.1 12.95 -5.95 12.15 -5.95 10.85 L-5.95 3.75 -4.6 3.75 -4.6 10.8 Q-4.6 11.6 -4.05 12.15 -3.45 12.8 -2.2 12.8 -0.95 12.8 -0.3 12.15 0.2 11.6 0.2 10.8 L0.2 3.75 1.55 3.75 M-22.0 1.05 L-7.05 1.05 -7.05 1.7 -22.0 1.7 -22.0 1.05 M-23.15 1.7 L-23.15 16.0 -24.35 16.0 -24.35 1.1 -23.15 1.1 -23.15 1.7 M13.6 3.75 L14.95 3.75 14.95 10.8 Q14.95 11.6 15.5 12.15 16.1 12.8 17.35 12.8 18.6 12.8 19.25 12.15 19.75 11.6 19.75 10.8 L19.75 3.75 21.1 3.75 21.1 10.85 Q21.1 12.15 20.3 12.95 19.35 13.9 17.35 13.9 15.35 13.9 14.45 12.95 13.6 12.15 13.6 10.85 L13.6 3.75 M42.05 2.95 L54.85 13.6 54.2 14.35 41.4 3.7 42.05 2.95 M37.1 1.7 L22.15 1.7 22.15 1.05 37.1 1.05 37.1 1.7 M18.35 -14.9 L17.7 -15.1 17.05 -14.9 Q16.8 -14.65 16.8 -14.25 16.8 -13.85 17.05 -13.6 17.3 -13.35 17.7 -13.35 L18.35 -13.6 18.6 -14.25 18.35 -14.9" fill="#000000" fill-rule="evenodd" stroke="none"/>
    <path d="M-22.35 -18.65 L-22.55 -18.85 -20.65 -20.25 -19.75 -20.35 -9.55 -20.35 -9.55 -21.5 -17.95 -21.5 -9.8 -30.55 -10.3 -31.0 -8.6 -33.0 -7.3 -32.95 -7.3 -32.3 7.65 -32.3 8.45 -30.3 21.25 -19.65 21.5 -19.9 23.8 -13.4 23.7 -13.3 36.5 -2.65 36.9 -3.05 38.3 1.45 38.3 16.0 38.65 16.0 38.65 16.55 37.85 18.1 36.9 18.1 36.9 31.9 Q36.2 31.85 35.7 32.3 L35.7 31.7 31.2 31.7 31.2 32.4 31.15 32.4 31.15 31.7 26.65 31.7 26.6 31.7 22.1 31.7 22.1 32.4 22.05 32.4 22.05 31.7 17.55 31.7 17.5 31.7 13.0 31.7 13.0 32.35 12.95 32.35 -2.0 32.35 -2.05 32.35 -17.0 32.35 -17.05 32.35 -17.05 31.7 -21.55 31.7 -21.55 32.25 -22.05 32.25 -22.7 32.25 -22.7 18.1 -23.9 18.1 -23.9 30.6 -25.85 30.6 -38.65 19.95 -38.9 20.25 -39.4 19.8 -39.4 14.0 -39.1 14.35 -26.3 3.7 -26.95 2.95 -39.75 13.6 -41.3 13.6 -54.1 2.95 -54.65 3.6 -54.85 3.4 -51.45 -3.0 -51.15 -2.65 -38.35 -13.3 -36.8 -13.3 -38.7 -13.7 -37.3 -18.0 -22.35 -18.0 -22.35 -18.65 M-36.8 -13.3 L-24.0 -2.65 -23.35 -3.4 -36.15 -14.05 -36.8 -13.3 M1.55 3.75 L0.2 3.75 0.2 10.8 Q0.2 11.6 -0.3 12.15 -0.95 12.8 -2.2 12.8 -3.45 12.8 -4.05 12.15 -4.6 11.6 -4.6 10.8 L-4.6 3.75 -5.95 3.75 -5.95 10.85 Q-5.95 12.15 -5.1 12.95 -4.2 13.9 -2.2 13.9 -0.2 13.9 0.75 12.95 1.55 12.15 1.55 10.85 L1.55 3.75 M2.6 -13.65 L2.0 -14.0 -4.2 -2.95 -3.6 -2.6 2.6 -13.65 M8.8 -13.25 L7.45 -13.25 7.45 -6.15 Q7.45 -4.85 8.3 -4.05 9.2 -3.1 11.2 -3.1 13.2 -3.1 14.15 -4.05 14.95 -4.85 14.95 -6.15 L14.95 -13.25 13.6 -13.25 13.6 -6.2 Q13.6 -5.4 13.1 -4.85 12.45 -4.2 11.2 -4.2 9.95 -4.2 9.35 -4.85 8.8 -5.4 8.8 -6.2 L8.8 -13.25 M4.65 -13.35 Q4.25 -13.35 4.0 -13.6 3.75 -13.85 3.75 -14.25 L4.0 -14.9 4.65 -15.1 5.3 -14.9 5.55 -14.25 5.3 -13.6 4.65 -13.35 M-5.7 -15.9 L-6.9 -15.9 -6.9 -1.0 -5.7 -1.0 -5.7 -15.9 M5.6 -15.2 Q5.2 -15.6 4.65 -15.6 4.1 -15.6 3.7 -15.2 3.3 -14.75 3.3 -14.25 L3.35 -13.95 3.7 -13.3 Q4.1 -12.9 4.65 -12.9 5.2 -12.9 5.6 -13.3 L5.95 -13.85 6.0 -14.25 5.6 -15.2 M18.65 -15.2 Q18.25 -15.6 17.7 -15.6 17.15 -15.6 16.75 -15.2 16.35 -14.75 16.35 -14.25 L16.4 -13.85 16.75 -13.3 Q17.15 -12.9 17.7 -12.9 18.25 -12.9 18.65 -13.3 19.05 -13.7 19.05 -14.25 L18.65 -15.2 M21.8 -15.9 L20.6 -15.9 20.6 -1.0 21.8 -1.0 21.8 -15.9 M-22.0 1.05 L-24.35 1.1 -24.35 16.0 -23.15 16.0 -23.15 1.7 -22.0 1.7 -7.05 1.7 -7.05 1.05 -22.0 1.05 M13.6 3.75 L13.6 10.85 Q13.6 12.15 14.45 12.95 15.35 13.9 17.35 13.9 19.35 13.9 20.3 12.95 21.1 12.15 21.1 10.85 L21.1 3.75 19.75 3.75 19.75 10.8 Q19.75 11.6 19.25 12.15 18.6 12.8 17.35 12.8 16.1 12.8 15.5 12.15 14.95 11.6 14.95 10.8 L14.95 3.75 13.6 3.75 M18.35 -14.9 L18.6 -14.25 18.35 -13.6 17.7 -13.35 Q17.3 -13.35 17.05 -13.6 16.8 -13.85 16.8 -14.25 16.8 -14.65 17.05 -14.9 L17.7 -15.1 18.35 -14.9 M37.1 1.7 L37.1 1.05 22.15 1.05 22.15 1.7 37.1 1.7" fill="#ffffff" fill-rule="evenodd" stroke="none"/>
  </g>
</svg>
