<svg xmlns:xlink="http://www.w3.org/1999/xlink" height="106.2px" width="48.45px" xmlns="http://www.w3.org/2000/svg">
  <g transform="matrix(1.0, 0.0, 0.0, 1.0, 30.85, 105.95)">
    <path d="M-7.75 -105.6 L0.3 -105.6 0.3 -104.7 -7.75 -104.7 -7.75 -105.6 M3.15 -105.85 L4.1 -105.85 4.1 -97.85 3.15 -97.85 3.15 -105.85 M3.75 -94.0 L4.3 -94.0 4.3 -88.3 10.0 -88.3 10.0 -87.8 3.75 -87.8 3.75 -94.0 M10.1 -88.3 L16.3 -88.3 16.3 -82.05 15.8 -82.05 15.8 -87.8 10.1 -87.8 10.1 -88.3 M15.8 -80.0 L16.3 -80.0 16.3 -73.8 10.1 -73.8 10.1 -74.3 15.8 -74.3 15.8 -80.0 M10.0 -74.3 L10.0 -73.8 4.3 -73.8 4.3 -68.05 3.75 -68.05 3.75 -74.3 10.0 -74.3 M8.0 -63.05 L8.4 -63.5 Q12.1 -61.0 14.4 -58.15 L13.35 -57.25 Q10.7 -60.2 8.4 -61.95 L7.55 -62.6 8.0 -63.0 8.0 -63.05 M14.75 -50.45 L15.25 -51.0 Q17.6 -48.8 17.6 -45.85 17.6 -42.95 15.25 -40.75 L14.75 -41.3 Q16.9 -43.3 16.9 -45.85 16.9 -48.05 15.35 -49.8 L14.75 -50.45 M13.3 -37.95 L13.3 -26.05 12.35 -26.05 12.35 -37.95 13.3 -37.95 M14.15 -22.85 L14.25 -23.0 Q16.6 -20.8 16.6 -17.85 16.6 -14.95 14.25 -12.75 L13.75 -13.3 Q15.9 -15.3 15.9 -17.85 15.9 -20.45 13.75 -22.45 L14.15 -22.85 M13.85 -7.85 L14.95 -7.85 14.95 -2.2 Q14.95 -1.15 14.3 -0.5 13.55 0.25 11.95 0.25 10.35 0.25 9.6 -0.5 8.95 -1.15 8.95 -2.2 L8.95 -7.85 10.05 -7.85 10.05 -2.25 Q10.05 -1.55 10.45 -1.15 10.95 -0.65 11.95 -0.65 12.95 -0.65 13.45 -1.15 13.85 -1.55 13.85 -2.25 L13.85 -7.85 M7.35 -9.5 L-3.95 -9.5 -3.95 -10.0 8.0 -10.0 8.0 -9.5 7.35 -9.5 M-7.35 -7.95 L-6.5 -7.95 -6.5 -3.5 Q-6.5 -1.85 -7.45 -0.85 -8.5 0.15 -9.9 0.15 -11.3 0.15 -12.35 -0.85 -13.35 -1.85 -13.35 -3.5 L-13.35 -7.95 -12.45 -7.95 -12.45 -3.5 Q-12.45 -2.3 -11.65 -1.5 -10.95 -0.8 -9.9 -0.8 -8.85 -0.8 -8.15 -1.5 -7.35 -2.3 -7.35 -3.5 L-7.35 -7.95 M-15.45 -12.7 Q-16.6 -14.05 -17.2 -15.2 -17.8 -16.45 -17.8 -17.9 -17.8 -19.55 -17.2 -20.8 L-15.45 -23.05 -14.95 -22.55 -15.55 -21.9 -16.55 -20.5 Q-17.1 -19.4 -17.1 -17.9 -17.1 -16.65 -16.55 -15.55 -16.1 -14.5 -14.95 -13.25 L-15.45 -12.7 M-15.05 -26.05 L-15.05 -37.95 -14.6 -37.95 -14.1 -37.95 -14.1 -26.05 -15.05 -26.05 M-18.35 -40.8 L-18.5 -40.7 -20.25 -43.2 Q-20.85 -44.45 -20.85 -45.9 -20.85 -47.55 -20.25 -48.8 L-19.4 -50.05 -19.15 -50.35 -18.5 -51.05 -18.45 -51.0 -18.0 -50.55 Q-19.15 -49.5 -19.6 -48.5 -20.15 -47.4 -20.15 -45.9 -20.15 -44.65 -19.6 -43.55 -19.15 -42.5 -18.0 -41.25 L-18.35 -40.8 M-14.75 -55.6 L-15.5 -56.6 Q-12.75 -58.85 -11.85 -64.3 L-10.85 -63.8 Q-10.5 -63.6 -10.85 -63.55 -11.8 -58.25 -14.75 -55.6 M-10.4 -68.05 L-11.35 -68.05 -11.35 -79.95 -10.4 -79.95 -10.4 -68.05 M-10.4 -82.05 L-11.35 -82.05 -11.35 -93.95 -10.4 -93.95 -10.4 -82.05 M-11.5 -97.85 L-11.5 -105.85 -10.55 -105.85 -10.55 -97.85 -11.5 -97.85 M-7.75 -102.55 L0.3 -102.55 0.3 -101.6 -7.75 -101.6 -7.75 -102.55 M0.3 -99.4 L0.3 -98.45 -7.75 -98.45 -7.75 -99.4 0.3 -99.4 M-2.65 -88.15 L-3.75 -88.15 -3.75 -89.2 -2.65 -89.2 -2.65 -88.15 M-5.15 -89.2 L-5.15 -88.15 -6.25 -88.15 -6.25 -89.2 -5.15 -89.2 M-7.65 -89.2 L-7.65 -88.15 -8.75 -88.15 -8.75 -89.2 -7.65 -89.2 M-5.15 -84.85 L-5.15 -83.85 -6.25 -83.85 -6.25 -84.85 -5.15 -84.85 M-8.75 -84.85 L-7.65 -84.85 -7.65 -83.85 -8.75 -83.85 -8.75 -84.85 M-5.15 -75.2 L-5.15 -74.15 -6.25 -74.15 -6.25 -75.2 -5.15 -75.2 M-7.65 -75.2 L-7.65 -74.15 -8.75 -74.15 -8.75 -75.2 -7.65 -75.2 M-2.65 -75.2 L-2.65 -74.15 -3.75 -74.15 -3.75 -75.2 -2.65 -75.2 M-2.65 -84.85 L-2.65 -83.85 -3.75 -83.85 -3.75 -84.85 -2.65 -84.85 M-2.65 -70.85 L-2.65 -69.85 -3.75 -69.85 -3.75 -70.85 -2.65 -70.85 M-8.75 -69.85 L-8.75 -70.85 -7.65 -70.85 -7.65 -69.85 -8.75 -69.85 M-5.15 -70.85 L-5.15 -69.85 -6.25 -69.85 -6.25 -70.85 -5.15 -70.85 M-4.35 -61.2 L-3.25 -61.2 -3.25 -60.15 -4.35 -60.15 -4.35 -61.2 M-5.75 -60.15 L-6.85 -60.15 -6.85 -61.2 -5.75 -61.2 -5.75 -60.15 M-8.25 -60.15 L-9.35 -60.15 -9.35 -61.2 -8.25 -61.2 -8.25 -60.15 M-8.25 -55.85 L-9.35 -55.85 -9.35 -56.85 -8.25 -56.85 -8.25 -55.85 M-6.85 -56.85 L-5.75 -56.85 -5.75 -55.85 -6.85 -55.85 -6.85 -56.85 M-4.35 -56.85 L-3.25 -56.85 -3.25 -55.85 -4.35 -55.85 -4.35 -56.85 M-8.65 -50.45 Q-10.8 -48.45 -10.8 -45.85 -10.8 -43.3 -8.65 -41.3 L-9.2 -40.75 Q-11.55 -42.95 -11.55 -45.85 L-11.55 -45.9 Q-11.5 -48.85 -9.2 -51.0 L-8.65 -50.45 M4.25 -60.15 L3.15 -60.15 3.15 -61.2 4.25 -61.2 4.25 -60.15 M1.75 -60.15 L0.65 -60.15 0.65 -61.2 1.75 -61.2 1.75 -60.15 M1.75 -55.85 L0.65 -55.85 0.65 -56.85 1.75 -56.85 1.75 -55.85 M3.15 -56.85 L4.25 -56.85 4.25 -55.85 3.15 -55.85 3.15 -56.85 M-0.75 -60.15 L-1.85 -60.15 -1.85 -61.2 -0.75 -61.2 -0.75 -60.15 M-1.85 -56.85 L-0.75 -56.85 -0.75 -55.85 -1.85 -55.85 -1.85 -56.85 M-2.4 -51.15 L-2.6 -50.65 -2.4 -50.15 Q-2.2 -49.95 -1.9 -49.95 L-1.35 -50.15 Q-1.2 -50.3 -1.2 -50.65 -1.2 -51.0 -1.35 -51.15 L-1.9 -51.35 -2.4 -51.15 M-1.9 -51.75 Q-1.45 -51.75 -1.15 -51.4 -0.8 -51.05 -0.8 -50.65 -0.8 -50.25 -1.15 -49.9 -1.45 -49.55 -1.9 -49.55 -2.3 -49.55 -2.65 -49.9 L-2.95 -50.65 -2.65 -51.4 Q-2.3 -51.75 -1.9 -51.75 M-3.95 -41.85 L-4.55 -40.55 -5.05 -40.55 -4.6 -41.85 -5.05 -41.85 -5.05 -42.85 -3.95 -42.85 -3.95 -41.85 M3.55 -47.7 L3.55 -50.95 8.7 -50.95 8.7 -42.7 9.75 -42.7 9.75 -40.1 8.85 -40.1 8.85 -41.8 2.25 -41.8 2.25 -40.1 1.35 -40.1 1.35 -42.7 2.15 -42.7 Q3.55 -44.65 3.55 -47.7 M3.2 -42.7 L7.75 -42.7 7.75 -50.05 4.5 -50.05 4.5 -47.7 Q4.5 -44.6 3.2 -42.7 M-12.65 -47.2 L-12.65 -46.15 -13.75 -46.15 -13.75 -47.2 -12.65 -47.2 M-12.65 -42.85 L-12.65 -41.85 -13.75 -41.85 -13.75 -42.85 -12.65 -42.85 M-6.45 -41.85 L-7.05 -40.55 -7.55 -40.55 -7.1 -41.85 -7.55 -41.85 -7.55 -42.85 -6.45 -42.85 -6.45 -41.85 M-8.0 -35.95 L-7.1 -35.95 -7.1 -31.5 Q-7.1 -30.3 -6.3 -29.5 -5.6 -28.8 -4.55 -28.8 -3.5 -28.8 -2.8 -29.5 -2.0 -30.3 -2.0 -31.5 L-2.0 -35.95 -1.15 -35.95 -1.15 -31.5 Q-1.15 -29.85 -2.1 -28.85 -3.15 -27.85 -4.55 -27.85 -5.95 -27.85 -7.0 -28.85 -8.0 -29.85 -8.0 -31.5 L-8.0 -35.95 M-11.35 -32.15 L-12.45 -32.15 -12.45 -33.2 -11.35 -33.2 -11.35 -32.15 M-11.35 -27.85 L-12.45 -27.85 -12.45 -28.85 -11.35 -28.85 -11.35 -27.85 M3.2 -33.2 L3.2 -32.15 2.1 -32.15 2.1 -33.2 3.2 -33.2 M4.6 -33.2 L5.7 -33.2 5.7 -32.15 4.6 -32.15 4.6 -33.2 M5.7 -28.85 L5.7 -27.85 4.6 -27.85 4.6 -28.85 5.7 -28.85 M2.1 -28.85 L3.2 -28.85 3.2 -27.85 2.1 -27.85 2.1 -28.85 M-15.15 -47.2 L-15.15 -46.15 -16.25 -46.15 -16.25 -47.2 -15.15 -47.2 M-16.25 -42.85 L-15.15 -42.85 -15.15 -41.85 -16.25 -41.85 -16.25 -42.85 M-22.35 -17.3 Q-23.1 -16.6 -24.1 -16.6 -24.9 -16.6 -26.35 -17.45 -27.4 -18.1 -28.1 -18.1 -28.9 -18.1 -29.3 -17.6 L-29.85 -16.8 -30.85 -17.4 -29.8 -18.7 Q-29.1 -19.35 -28.2 -19.35 -27.25 -19.35 -26.1 -18.65 -24.8 -17.9 -24.0 -17.9 -23.35 -17.9 -22.75 -18.55 L-22.2 -19.3 -21.25 -18.55 -22.35 -17.3 M4.0 -19.2 L4.0 -18.15 2.9 -18.15 2.9 -19.2 4.0 -19.2 M-3.2 -22.45 Q-5.35 -20.45 -5.35 -17.85 -5.35 -15.3 -3.2 -13.3 L-3.75 -12.75 Q-6.1 -14.95 -6.1 -17.85 -6.1 -20.8 -3.75 -23.0 L-3.2 -22.45 M-1.0 -19.2 L-1.0 -18.15 -2.1 -18.15 -2.1 -19.2 -1.0 -19.2 M-2.1 -14.85 L-1.0 -14.85 -1.0 -13.85 -2.1 -13.85 -2.1 -14.85 M0.4 -14.85 L1.5 -14.85 1.5 -13.85 0.4 -13.85 0.4 -14.85 M2.9 -14.85 L4.0 -14.85 4.0 -13.85 2.9 -13.85 2.9 -14.85 M5.4 -14.85 L6.5 -14.85 6.5 -13.85 5.4 -13.85 5.4 -14.85 M5.4 -19.2 L6.5 -19.2 6.5 -18.15 5.4 -18.15 5.4 -19.2 M1.5 -19.2 L1.5 -18.15 0.4 -18.15 0.4 -19.2 1.5 -19.2 M-6.9 -22.45 Q-9.05 -20.45 -9.05 -17.85 -9.05 -15.3 -6.9 -13.3 L-7.45 -12.75 Q-9.8 -14.95 -9.8 -17.85 -9.8 -20.8 -7.45 -23.0 L-6.9 -22.45 M-10.6 -22.45 Q-12.75 -20.45 -12.75 -17.85 -12.75 -15.3 -10.6 -13.3 L-11.15 -12.75 Q-13.5 -14.95 -13.5 -17.85 -13.5 -20.8 -11.15 -23.0 L-10.6 -22.45 M12.95 -51.35 L12.45 -51.15 12.25 -50.65 12.45 -50.15 Q12.65 -49.95 12.95 -49.95 L13.5 -50.15 13.65 -50.65 13.5 -51.15 12.95 -51.35 M14.05 -50.65 Q14.05 -50.25 13.7 -49.9 13.4 -49.55 12.95 -49.55 12.55 -49.55 12.2 -49.9 11.9 -50.25 11.9 -50.65 11.9 -51.05 12.2 -51.4 12.55 -51.75 12.95 -51.75 13.4 -51.75 13.7 -51.4 L14.05 -50.65 M8.2 -33.2 L8.2 -32.15 7.1 -32.15 7.1 -33.2 8.2 -33.2 M9.6 -33.2 L10.7 -33.2 10.7 -32.15 9.6 -32.15 9.6 -33.2 M10.7 -28.85 L10.7 -27.85 9.6 -27.85 9.6 -28.85 10.7 -28.85 M7.1 -28.85 L8.2 -28.85 8.2 -27.85 7.1 -27.85 7.1 -28.85 M9.0 -19.2 L9.0 -18.15 7.9 -18.15 7.9 -19.2 9.0 -19.2 M10.55 -23.0 Q12.9 -20.8 12.9 -17.85 12.9 -14.95 10.55 -12.75 L10.05 -13.3 Q12.2 -15.3 12.2 -17.85 12.2 -20.45 10.05 -22.45 L10.55 -23.0 M7.9 -14.85 L9.0 -14.85 9.0 -13.85 7.9 -13.85 7.9 -14.85" fill="#000000" fill-rule="evenodd" stroke="none"/>
    <path d="M-10.55 -105.85 L-7.75 -105.6 -7.75 -104.7 0.3 -104.7 0.3 -105.6 3.15 -105.85 3.15 -97.85 4.1 -97.75 Q3.75 -95.8 3.75 -94.0 L3.75 -87.8 10.0 -87.8 10.0 -88.3 10.1 -88.3 10.1 -87.8 15.8 -87.8 15.8 -82.05 Q16.0 -81.25 15.8 -80.0 L15.8 -74.3 10.1 -74.3 10.0 -74.3 3.75 -74.3 3.75 -68.05 Q6.0 -65.1 7.95 -63.05 L8.0 -63.05 8.0 -63.0 7.55 -62.6 8.4 -61.95 Q10.7 -60.2 13.35 -57.25 L15.0 -50.85 14.05 -50.65 14.75 -50.45 15.35 -49.8 Q16.9 -48.05 16.9 -45.85 16.9 -43.3 14.75 -41.3 L15.25 -40.75 Q13.7 -39.6 13.3 -37.95 L12.35 -37.95 12.35 -26.05 13.3 -26.05 Q13.05 -24.85 13.45 -23.5 L14.15 -22.85 13.75 -22.45 Q15.9 -20.45 15.9 -17.85 15.9 -15.3 13.75 -13.3 L14.25 -12.75 Q14.5 -10.35 13.9 -8.0 L13.85 -7.85 13.85 -2.25 Q13.85 -1.55 13.45 -1.15 12.95 -0.65 11.95 -0.65 10.95 -0.65 10.45 -1.15 10.05 -1.55 10.05 -2.25 L10.05 -7.85 8.95 -7.85 Q8.4 -8.85 7.35 -9.5 L8.0 -9.5 8.0 -10.0 -3.95 -10.0 -4.1 -9.95 Q-6.45 -9.65 -7.35 -7.95 L-7.35 -3.5 Q-7.35 -2.3 -8.15 -1.5 -8.85 -0.8 -9.9 -0.8 -10.95 -0.8 -11.65 -1.5 -12.45 -2.3 -12.45 -3.5 L-12.45 -7.95 -13.35 -7.95 -13.4 -10.9 Q-14.25 -12.45 -15.45 -12.7 L-14.95 -13.25 Q-16.1 -14.5 -16.55 -15.55 -17.1 -16.65 -17.1 -17.9 -17.1 -19.4 -16.55 -20.5 L-15.55 -21.9 -14.95 -22.55 -15.45 -23.05 -15.05 -26.05 -14.1 -26.05 -14.1 -37.95 -14.6 -37.95 Q-15.1 -40.0 -17.75 -40.25 L-18.35 -40.8 -18.0 -41.25 Q-19.15 -42.5 -19.6 -43.55 -20.15 -44.65 -20.15 -45.9 -20.15 -47.4 -19.6 -48.5 -19.15 -49.5 -18.0 -50.55 L-18.45 -51.0 Q-16.35 -53.15 -14.75 -55.6 -11.8 -58.25 -10.85 -63.55 -10.5 -63.6 -10.85 -63.8 L-11.85 -64.3 Q-10.9 -66.25 -10.45 -67.8 L-10.4 -68.05 -10.4 -79.95 -11.25 -80.25 -10.65 -81.65 -10.4 -82.05 -10.4 -93.95 -11.35 -93.95 -11.5 -97.8 -11.5 -97.85 -10.55 -97.85 -10.55 -105.85 M-16.25 -42.85 L-16.25 -41.85 -15.15 -41.85 -15.15 -42.85 -16.25 -42.85 M-15.15 -47.2 L-16.25 -47.2 -16.25 -46.15 -15.15 -46.15 -15.15 -47.2 M2.1 -28.85 L2.1 -27.85 3.2 -27.85 3.2 -28.85 2.1 -28.85 M5.7 -28.85 L4.6 -28.85 4.6 -27.85 5.7 -27.85 5.7 -28.85 M4.6 -33.2 L4.6 -32.15 5.7 -32.15 5.7 -33.2 4.6 -33.2 M3.2 -33.2 L2.1 -33.2 2.1 -32.15 3.2 -32.15 3.2 -33.2 M-11.35 -27.85 L-11.35 -28.85 -12.45 -28.85 -12.45 -27.85 -11.35 -27.85 M-11.35 -32.15 L-11.35 -33.2 -12.45 -33.2 -12.45 -32.15 -11.35 -32.15 M-8.0 -35.95 L-8.0 -31.5 Q-8.0 -29.85 -7.0 -28.85 -5.95 -27.85 -4.55 -27.85 -3.15 -27.85 -2.1 -28.85 -1.15 -29.85 -1.15 -31.5 L-1.15 -35.95 -2.0 -35.95 -2.0 -31.5 Q-2.0 -30.3 -2.8 -29.5 -3.5 -28.8 -4.55 -28.8 -5.6 -28.8 -6.3 -29.5 -7.1 -30.3 -7.1 -31.5 L-7.1 -35.95 -8.0 -35.95 M-6.45 -41.85 L-6.45 -42.85 -7.55 -42.85 -7.55 -41.85 -7.1 -41.85 -7.55 -40.55 -7.05 -40.55 -6.45 -41.85 M-12.65 -42.85 L-13.75 -42.85 -13.75 -41.85 -12.65 -41.85 -12.65 -42.85 M-12.65 -47.2 L-13.75 -47.2 -13.75 -46.15 -12.65 -46.15 -12.65 -47.2 M3.2 -42.7 Q4.5 -44.6 4.5 -47.7 L4.5 -50.05 7.75 -50.05 7.75 -42.7 3.2 -42.7 M3.55 -47.7 Q3.55 -44.65 2.15 -42.7 L1.35 -42.7 1.35 -40.1 2.25 -40.1 2.25 -41.8 8.85 -41.8 8.85 -40.1 9.75 -40.1 9.75 -42.7 8.7 -42.7 8.7 -50.95 3.55 -50.95 3.55 -47.7 M-3.95 -41.85 L-3.95 -42.85 -5.05 -42.85 -5.05 -41.85 -4.6 -41.85 -5.05 -40.55 -4.55 -40.55 -3.95 -41.85 M-1.9 -51.75 Q-2.3 -51.75 -2.65 -51.4 L-2.95 -50.65 -2.65 -49.9 Q-2.3 -49.55 -1.9 -49.55 -1.45 -49.55 -1.15 -49.9 -0.8 -50.25 -0.8 -50.65 -0.8 -51.05 -1.15 -51.4 -1.45 -51.75 -1.9 -51.75 M-2.4 -51.15 L-1.9 -51.35 -1.35 -51.15 Q-1.2 -51.0 -1.2 -50.65 -1.2 -50.3 -1.35 -50.15 L-1.9 -49.95 Q-2.2 -49.95 -2.4 -50.15 L-2.6 -50.65 -2.4 -51.15 M-1.85 -56.85 L-1.85 -55.85 -0.75 -55.85 -0.75 -56.85 -1.85 -56.85 M-0.75 -60.15 L-0.75 -61.2 -1.85 -61.2 -1.85 -60.15 -0.75 -60.15 M3.15 -56.85 L3.15 -55.85 4.25 -55.85 4.25 -56.85 3.15 -56.85 M1.75 -55.85 L1.75 -56.85 0.65 -56.85 0.65 -55.85 1.75 -55.85 M1.75 -60.15 L1.75 -61.2 0.65 -61.2 0.65 -60.15 1.75 -60.15 M4.25 -60.15 L4.25 -61.2 3.15 -61.2 3.15 -60.15 4.25 -60.15 M-8.65 -50.45 L-9.2 -51.0 Q-11.5 -48.85 -11.55 -45.9 L-11.55 -45.85 Q-11.55 -42.95 -9.2 -40.75 L-8.65 -41.3 Q-10.8 -43.3 -10.8 -45.85 -10.8 -48.45 -8.65 -50.45 M-4.35 -56.85 L-4.35 -55.85 -3.25 -55.85 -3.25 -56.85 -4.35 -56.85 M-6.85 -56.85 L-6.85 -55.85 -5.75 -55.85 -5.75 -56.85 -6.85 -56.85 M-8.25 -55.85 L-8.25 -56.85 -9.35 -56.85 -9.35 -55.85 -8.25 -55.85 M-8.25 -60.15 L-8.25 -61.2 -9.35 -61.2 -9.35 -60.15 -8.25 -60.15 M-5.75 -60.15 L-5.75 -61.2 -6.85 -61.2 -6.85 -60.15 -5.75 -60.15 M-4.35 -61.2 L-4.35 -60.15 -3.25 -60.15 -3.25 -61.2 -4.35 -61.2 M-5.15 -70.85 L-6.25 -70.85 -6.25 -69.85 -5.15 -69.85 -5.15 -70.85 M-8.75 -69.85 L-7.65 -69.85 -7.65 -70.85 -8.75 -70.85 -8.75 -69.85 M-2.65 -70.85 L-3.75 -70.85 -3.75 -69.85 -2.65 -69.85 -2.65 -70.85 M-2.65 -84.85 L-3.75 -84.85 -3.75 -83.85 -2.65 -83.85 -2.65 -84.85 M-2.65 -75.2 L-3.75 -75.2 -3.75 -74.15 -2.65 -74.15 -2.65 -75.2 M-7.65 -75.2 L-8.75 -75.2 -8.75 -74.15 -7.65 -74.15 -7.65 -75.2 M-5.15 -75.2 L-6.25 -75.2 -6.25 -74.15 -5.15 -74.15 -5.15 -75.2 M-8.75 -84.85 L-8.75 -83.85 -7.65 -83.85 -7.65 -84.85 -8.75 -84.85 M-5.15 -84.85 L-6.25 -84.85 -6.25 -83.85 -5.15 -83.85 -5.15 -84.85 M-7.65 -89.2 L-8.75 -89.2 -8.75 -88.15 -7.65 -88.15 -7.65 -89.2 M-5.15 -89.2 L-6.25 -89.2 -6.25 -88.15 -5.15 -88.15 -5.15 -89.2 M-2.65 -88.15 L-2.65 -89.2 -3.75 -89.2 -3.75 -88.15 -2.65 -88.15 M0.3 -99.4 L-7.75 -99.4 -7.75 -98.45 0.3 -98.45 0.3 -99.4 M-7.75 -102.55 L-7.75 -101.6 0.3 -101.6 0.3 -102.55 -7.75 -102.55 M7.9 -14.85 L7.9 -13.85 9.0 -13.85 9.0 -14.85 7.9 -14.85 M10.55 -23.0 L10.05 -22.45 Q12.2 -20.45 12.2 -17.85 12.2 -15.3 10.05 -13.3 L10.55 -12.75 Q12.9 -14.95 12.9 -17.85 12.9 -20.8 10.55 -23.0 M9.0 -19.2 L7.9 -19.2 7.9 -18.15 9.0 -18.15 9.0 -19.2 M7.1 -28.85 L7.1 -27.85 8.2 -27.85 8.2 -28.85 7.1 -28.85 M10.7 -28.85 L9.6 -28.85 9.6 -27.85 10.7 -27.85 10.7 -28.85 M9.6 -33.2 L9.6 -32.15 10.7 -32.15 10.7 -33.2 9.6 -33.2 M8.2 -33.2 L7.1 -33.2 7.1 -32.15 8.2 -32.15 8.2 -33.2 M14.05 -50.65 L13.7 -51.4 Q13.4 -51.75 12.95 -51.75 12.55 -51.75 12.2 -51.4 11.9 -51.05 11.9 -50.65 11.9 -50.25 12.2 -49.9 12.55 -49.55 12.95 -49.55 13.4 -49.55 13.7 -49.9 14.05 -50.25 14.05 -50.65 M12.95 -51.35 L13.5 -51.15 13.65 -50.65 13.5 -50.15 12.95 -49.95 Q12.65 -49.95 12.45 -50.15 L12.25 -50.65 12.45 -51.15 12.95 -51.35 M-10.6 -22.45 L-11.15 -23.0 Q-13.5 -20.8 -13.5 -17.85 -13.5 -14.95 -11.15 -12.75 L-10.6 -13.3 Q-12.75 -15.3 -12.75 -17.85 -12.75 -20.45 -10.6 -22.45 M-6.9 -22.45 L-7.45 -23.0 Q-9.8 -20.8 -9.8 -17.85 -9.8 -14.95 -7.45 -12.75 L-6.9 -13.3 Q-9.05 -15.3 -9.05 -17.85 -9.05 -20.45 -6.9 -22.45 M1.5 -19.2 L0.4 -19.2 0.4 -18.15 1.5 -18.15 1.5 -19.2 M5.4 -19.2 L5.4 -18.15 6.5 -18.15 6.5 -19.2 5.4 -19.2 M5.4 -14.85 L5.4 -13.85 6.5 -13.85 6.5 -14.85 5.4 -14.85 M2.9 -14.85 L2.9 -13.85 4.0 -13.85 4.0 -14.85 2.9 -14.85 M0.4 -14.85 L0.4 -13.85 1.5 -13.85 1.5 -14.85 0.4 -14.85 M-2.1 -14.85 L-2.1 -13.85 -1.0 -13.85 -1.0 -14.85 -2.1 -14.85 M-1.0 -19.2 L-2.1 -19.2 -2.1 -18.15 -1.0 -18.15 -1.0 -19.2 M-3.2 -22.45 L-3.75 -23.0 Q-6.1 -20.8 -6.1 -17.85 -6.1 -14.95 -3.75 -12.75 L-3.2 -13.3 Q-5.35 -15.3 -5.35 -17.85 -5.35 -20.45 -3.2 -22.45 M4.0 -19.2 L2.9 -19.2 2.9 -18.15 4.0 -18.15 4.0 -19.2" fill="#ffffff" fill-rule="evenodd" stroke="none"/>
  </g>
</svg>
