<?xml version="1.0" encoding="UTF-8" standalone="no"?>
<!DOCTYPE svg PUBLIC "-//W3C//DTD SVG 1.1//EN" "http://www.w3.org/Graphics/SVG/1.1/DTD/svg11.dtd">
<svg width="43px" height="66px" version="1.1" xmlns="http://www.w3.org/2000/svg" xmlns:xlink="http://www.w3.org/1999/xlink" xml:space="preserve" xmlns:serif="http://www.serif.com/" style="fill-rule:evenodd;clip-rule:evenodd;stroke-linejoin:round;stroke-miterlimit:2;">
    <g transform="matrix(0.548118,-5.50919e-17,1.03423e-16,0.78275,-37.4386,-103.857)">
        <path d="M121.186,203.516C121.186,203.516 121.205,208.356 121.205,210.257C121.205,213.216 124.245,216.371 127.941,216.371L127.943,216.371C132.379,216.371 135.905,213.855 135.905,210.056L136.831,183.8L141.694,183.255C146.427,179.801 146.835,173.847 141.584,169.769L141.174,165.315C149.467,160.059 143.706,152.992 140.89,151.371L140.435,146.682L127.68,138.469L120.31,136.311C112.042,131.92 104.463,132.138 97.48,136.36L90.332,137.127L77.559,147.418L74.019,151.335C68.45,155.936 67.459,160.661 74.029,165.59L78.687,170.484L79.309,181.325L79.832,185.749L79.819,201.228C79.75,201.513 79.595,210.49 79.595,210.49C79.595,213.927 83.625,216.435 86.923,216.435L86.925,216.435C91.438,216.435 93.992,213.052 93.992,210.554L93.992,203.383C93.992,203.383 96.281,202.214 97.212,201.527C105.621,195.329 115.565,199.746 117.842,201.582L121.186,203.516" style="fill:white;" />
    </g>
    <path d="M6.842,61.1C6.842,62.2 7.192,63.1 7.892,63.8C8.525,64.433 9.292,64.75 10.192,64.75C11.125,64.75 11.908,64.433 12.542,63.8C13.242,63.1 13.592,62.2 13.592,61.1L13.592,55.2L14.792,55.2L14.792,61.1C14.792,62.567 14.342,63.733 13.442,64.6C12.542,65.533 11.458,66 10.192,66C8.958,66 7.875,65.533 6.942,64.6C6.075,63.733 5.642,62.567 5.642,61.1L5.642,55.2L6.842,55.2L6.842,61.1ZM29.62,61.1C29.62,62.2 29.97,63.1 30.67,63.8C31.304,64.433 32.07,64.75 32.97,64.75C33.904,64.75 34.687,64.433 35.32,63.8C36.02,63.1 36.37,62.2 36.37,61.1L36.37,55.2L37.57,55.2L37.57,61.1C37.57,62.567 37.12,63.733 36.22,64.6C35.32,65.533 34.237,66 32.97,66C31.737,66 30.654,65.533 29.72,64.6C28.854,63.733 28.42,62.567 28.42,61.1L28.42,55.2L29.62,55.2L29.62,61.1ZM27.475,53.65L26.875,54.25C25.308,52.583 23.525,51.75 21.525,51.75C19.525,51.75 17.725,52.583 16.125,54.25L15.525,53.65C17.258,51.85 19.258,50.95 21.525,50.95C23.692,50.95 25.625,51.8 27.325,53.5L27.475,53.65ZM37.608,53.838L36.508,53.838L36.508,41.509L37.508,41.509L37.508,41.554L37.608,41.554L37.608,53.838ZM6.876,53.838L5.776,53.838L5.776,41.509L6.776,41.509L6.776,41.554L6.876,41.554L6.876,53.838ZM39.988,40.315L39.388,39.715C41.054,38.149 41.888,36.365 41.888,34.365C41.888,32.365 41.054,30.565 39.388,28.965L39.988,28.365C41.788,30.099 42.688,32.099 42.688,34.365C42.688,36.532 41.838,38.465 40.138,40.165L39.988,40.315ZM6.318,35.415C6.318,36.515 6.668,37.415 7.368,38.115C8.001,38.749 8.768,39.065 9.668,39.065C10.601,39.065 11.385,38.749 12.018,38.115C12.718,37.415 13.068,36.515 13.068,35.415L13.068,29.515L14.268,29.515L14.268,35.415C14.268,36.882 13.818,38.049 12.918,38.915C12.018,39.849 10.935,40.315 9.668,40.315C8.435,40.315 7.351,39.849 6.418,38.915C5.551,38.049 5.118,36.882 5.118,35.415L5.118,29.515L6.318,29.515L6.318,35.415ZM37.608,40.092L36.508,40.092L36.508,31.167L37.508,31.167L37.508,31.199L37.608,31.199L37.608,40.092ZM39.988,26.209L39.388,25.609C41.054,24.043 41.888,22.259 41.888,20.259C41.888,18.259 41.054,16.459 39.388,14.859L39.988,14.259C41.788,15.993 42.688,17.993 42.688,20.259C42.688,22.426 41.838,24.359 40.138,26.059L39.988,26.209ZM3.012,26.209L3.612,25.609C1.946,24.043 1.112,22.259 1.112,20.259C1.112,18.259 1.946,16.459 3.612,14.859L3.012,14.259C1.212,15.993 0.312,17.993 0.312,20.259C0.312,22.426 1.162,24.359 2.862,26.059L3.012,26.209ZM31.02,19.022L30.536,17.217L29.479,17.481L29.875,18.978L29.963,20.519L29.963,21.047C29.875,22.191 29.582,23.013 29.083,23.512C28.76,23.864 28.364,24.04 27.894,24.04C27.454,24.04 27.102,23.908 26.838,23.644C26.574,23.38 26.442,23.072 26.442,22.72L26.926,21.663L27.234,20.519L27.234,20.078C27.234,19.286 27.087,18.89 26.794,18.89C26.53,18.89 26.266,19.154 26.001,19.682L25.781,20.21L25.517,21.179C25.429,21.766 25.429,22.221 25.517,22.544L24.813,23.6C24.461,23.923 24.05,24.084 23.58,24.084C23.257,24.084 22.979,23.967 22.744,23.732C22.538,23.527 22.436,23.042 22.436,22.279C22.436,21.458 22.671,20.607 23.14,19.726L23.756,18.758L24.593,17.701L23.624,17.217L22.524,18.714L22.128,19.462C21.658,20.401 21.423,21.34 21.423,22.279C21.423,23.307 21.629,24.011 22.04,24.392C22.216,24.569 22.406,24.701 22.612,24.789L22.92,24.921L23.58,25.009C24.255,25.009 24.813,24.789 25.253,24.348L25.781,23.644C25.869,23.908 26.06,24.187 26.354,24.48C26.706,24.833 27.234,25.009 27.938,25.009C28.731,25.009 29.391,24.759 29.919,24.26C30.594,23.556 30.991,22.558 31.108,21.267L31.108,20.519L31.02,19.022ZM14.882,15.54L16.982,13.14L18.382,13.14L20.482,15.54L19.332,15.54L17.682,14.19L16.032,15.54L14.882,15.54ZM32.299,15.54L34.399,13.14L35.799,13.14L37.899,15.54L36.749,15.54L35.099,14.19L33.449,15.54L32.299,15.54ZM5.071,12.032L4.519,11.558L12.009,2.989L12.513,3.427L11.785,4.281L5.071,12.032ZM38.819,11.705C37.752,10.205 36.352,8.739 34.619,7.305L31.669,5.155L32.369,4.555L33.019,3.955C35.119,5.289 36.869,6.622 38.269,7.955L40.369,10.405L38.819,11.705ZM15.383,2.7L16.065,3.3C17.846,1.633 19.874,0.8 22.148,0.8C24.421,0.8 26.468,1.633 28.287,3.3L28.969,2.7C26.999,0.9 24.725,0 22.148,0C19.684,0 17.486,0.85 15.553,2.55L15.383,2.7Z"/>
</svg>
