<svg xmlns:xlink="http://www.w3.org/1999/xlink" height="86.45px" width="58.15px" xmlns="http://www.w3.org/2000/svg">
  <g transform="matrix(1.0, 0.0, 0.0, 1.0, 29.5, 86.5)">
    <path d="M-24.3 -68.6 L-22.3 -73.35 -17.75 -83.35 -13.15 -73.35 -12.0 -73.95 -8.6 -72.75 -9.8 -72.75 -9.8 -72.05 6.15 -72.05 6.15 -72.75 Q7.6 -73.05 8.5 -73.95 L9.7 -73.35 14.25 -83.35 18.85 -73.35 Q19.8 -70.75 21.15 -68.55 L21.7 -67.75 25.0 -62.0 21.2 -55.35 22.25 -54.8 Q22.15 -52.15 21.15 -50.6 L24.95 -44.0 21.15 -37.35 Q20.2 -34.95 18.1 -33.95 L18.1 -18.05 19.35 -18.05 19.35 -18.85 Q22.1 -16.35 23.45 -14.45 L23.95 -13.7 24.0 -13.65 27.25 -8.0 23.45 -1.35 24.5 -0.8 22.15 -0.75 6.2 -0.75 6.2 -0.05 Q3.15 -0.7 -1.85 -0.05 L-1.85 -0.75 -17.8 -0.75 -17.8 -0.7 -17.9 -0.7 -17.9 -1.45 -22.7 -1.45 -24.2 -1.25 -24.3 -1.35 -28.15 -8.0 -24.3 -14.6 Q-24.5 -17.25 -23.3 -18.05 L-22.05 -18.05 -22.05 -34.0 -23.3 -34.0 -24.85 -37.05 -24.3 -37.35 -28.15 -44.0 -24.3 -50.6 -25.4 -51.2 -26.0 -50.15 Q-25.35 -52.15 -25.4 -54.8 L-24.3 -55.35 -28.15 -62.0 -24.3 -68.6 M-0.55 -14.6 L3.25 -8.0 -0.55 -1.35 0.5 -0.8 4.65 -8.0 0.5 -15.2 -0.55 -14.6 M-2.4 -18.05 L-1.15 -18.05 -1.15 -34.0 -2.4 -34.0 -2.4 -18.05 M3.95 -59.0 L1.45 -63.45 6.45 -63.45 3.95 -59.0 M-5.8 -69.0 L-8.05 -69.0 -10.4 -66.25 -9.0 -66.25 -5.8 -69.0 M16.45 -66.25 L17.9 -66.25 15.6 -69.0 13.35 -69.0 16.45 -66.25 M9.7 -66.6 L8.5 -67.3 7.1 -64.75 0.85 -64.75 -0.6 -67.3 -1.8 -66.6 3.95 -56.2 9.7 -66.6" fill="#ffffff" fill-rule="evenodd" stroke="none"/>
    <path d="M-22.3 -73.35 L-23.5 -73.95 -17.75 -86.5 -12.0 -73.95 -13.15 -73.35 -17.75 -83.35 -22.3 -73.35 M-8.6 -72.75 L6.15 -72.75 6.15 -72.05 -9.8 -72.05 -9.8 -72.75 -8.6 -72.75 M8.5 -73.95 L14.25 -86.5 20.0 -73.95 18.85 -73.35 14.25 -83.35 9.7 -73.35 8.5 -73.95 M21.7 -67.75 L21.2 -68.6 22.25 -69.2 26.4 -62.0 22.25 -54.8 21.2 -55.35 25.0 -62.0 21.7 -67.75 M21.15 -50.6 L22.2 -51.2 26.35 -44.0 22.2 -36.8 Q21.7 -37.05 21.15 -37.35 L24.95 -44.0 21.15 -50.6 M18.1 -33.95 L19.35 -33.95 19.35 -18.85 19.35 -18.05 18.1 -18.05 18.1 -33.95 M23.95 -13.7 L23.45 -14.6 24.5 -15.2 28.65 -8.0 24.5 -0.8 23.45 -1.35 27.25 -8.0 24.0 -13.65 23.95 -13.7 M22.15 -0.75 L22.15 -0.05 6.2 -0.05 6.2 -0.75 22.15 -0.75 M-1.85 -0.05 L-17.8 -0.05 -17.8 -0.7 -17.8 -0.75 -1.85 -0.75 -1.85 -0.05 M-17.9 -0.7 L-22.7 -0.7 -22.7 -1.45 -17.9 -1.45 -17.9 -0.7 M-24.3 -1.35 L-25.4 -0.8 -29.5 -8.0 -25.4 -15.2 -24.3 -14.6 -28.15 -8.0 -24.3 -1.35 M-23.3 -18.05 L-23.3 -34.0 -22.05 -34.0 -22.05 -18.05 -23.3 -18.05 M-24.85 -37.05 L-25.4 -36.8 -29.5 -44.0 -26.0 -50.15 -25.4 -51.2 -24.3 -50.6 -28.15 -44.0 -24.3 -37.35 -24.85 -37.05 M-25.4 -54.8 L-29.5 -62.0 -25.4 -69.2 -24.3 -68.6 -28.15 -62.0 -24.3 -55.35 -25.4 -54.8 M9.7 -66.6 L3.95 -56.2 -1.8 -66.6 -0.6 -67.3 0.85 -64.75 7.1 -64.75 8.5 -67.3 9.7 -66.6 M16.45 -66.25 L13.35 -69.0 15.6 -69.0 17.9 -66.25 16.45 -66.25 M-5.8 -69.0 L-9.0 -66.25 -10.4 -66.25 -8.05 -69.0 -5.8 -69.0 M3.95 -59.0 L6.45 -63.45 1.45 -63.45 3.95 -59.0 M-2.4 -18.05 L-2.4 -34.0 -1.15 -34.0 -1.15 -18.05 -2.4 -18.05 M-0.55 -14.6 L0.5 -15.2 4.65 -8.0 0.5 -0.8 -0.55 -1.35 3.25 -8.0 -0.55 -14.6" fill="#000000" fill-rule="evenodd" stroke="none"/>
  </g>
</svg>
