<svg xmlns:xlink="http://www.w3.org/1999/xlink" height="66.95px" width="55.9px" xmlns="http://www.w3.org/2000/svg">
  <g transform="matrix(1.0, 0.0, 0.0, 1.0, 27.95, 33.5)">
    <path d="M3.65 -19.7 L3.65 -20.45 8.45 -20.45 8.45 -19.7 3.65 -19.7 M10.85 -20.95 L16.6 -33.5 22.35 -20.95 21.2 -20.35 16.6 -30.35 12.05 -20.35 10.85 -20.95 M24.75 -15.5 L24.85 -15.6 26.8 -13.2 Q27.65 -11.7 27.9 -9.9 L27.95 -8.8 Q27.95 -4.95 24.85 -2.0 L24.15 -2.7 Q27.0 -5.35 27.0 -8.8 27.0 -12.25 24.15 -14.95 L24.75 -15.5 M12.35 3.05 L13.0 3.45 6.35 15.25 5.75 14.9 12.35 3.05 M3.5 19.0 L3.5 19.7 -12.45 19.7 -12.45 19.0 3.5 19.0 M-17.2 15.25 L-17.8 14.9 -11.2 3.05 -10.55 3.45 -17.2 15.25 M-9.5 -2.0 L-10.2 -2.75 Q-12.65 -5.4 -12.65 -8.8 -12.65 -11.6 -11.0 -13.85 L-9.5 -15.6 -8.8 -14.95 -10.3 -13.2 Q-11.7 -11.2 -11.7 -8.8 -11.7 -6.25 -10.15 -4.15 L-8.8 -2.7 -9.5 -2.0 M-8.85 -20.35 L-10.05 -20.95 -4.3 -33.5 1.45 -20.95 0.3 -20.35 -4.3 -30.35 -8.85 -20.35 M21.0 -10.35 L21.0 -7.7 18.35 -7.7 18.35 -10.35 21.0 -10.35 M12.6 -12.1 Q13.25 -10.35 13.25 -8.35 13.25 -5.5 11.9 -4.1 11.0 -3.25 9.65 -3.25 8.45 -3.25 7.85 -3.85 7.35 -4.35 7.2 -4.8 L6.6 -4.0 Q5.85 -3.25 4.7 -3.25 3.65 -3.25 2.95 -3.95 2.25 -4.6 2.25 -6.35 2.25 -9.25 4.75 -12.1 L5.85 -11.55 Q3.4 -8.8 3.4 -6.35 3.4 -5.05 3.75 -4.7 4.15 -4.3 4.7 -4.3 5.5 -4.3 6.1 -4.85 L6.9 -6.05 Q6.75 -6.6 6.9 -7.6 6.95 -8.3 7.45 -9.3 7.9 -10.2 8.35 -10.2 8.85 -10.2 8.85 -8.85 L8.5 -7.05 7.95 -5.85 Q7.95 -5.25 8.4 -4.8 8.85 -4.35 9.6 -4.35 10.4 -4.35 10.95 -4.95 11.95 -5.95 11.95 -8.35 11.95 -10.3 11.4 -11.8 L12.6 -12.1 M7.1 21.25 Q7.8 21.15 7.3 21.65 8.3 27.4 13.75 29.15 L12.8 30.8 Q9.7 30.75 6.85 32.2 L5.75 31.05 Q8.2 29.7 10.8 29.5 7.05 27.7 5.6 21.55 L7.1 21.25 M-3.0 -10.35 L-3.0 -7.7 -5.65 -7.7 -5.65 -10.35 -3.0 -10.35 M-19.85 3.45 Q-20.1 7.4 -22.05 10.5 -23.85 13.65 -26.95 15.45 L-27.95 14.2 Q-21.75 10.7 -21.35 3.0 L-19.85 3.45 M-14.1 21.45 Q-14.35 25.4 -16.3 28.5 -18.1 31.65 -21.2 33.45 L-22.2 32.2 Q-16.0 28.7 -15.6 21.0 L-14.1 21.45" fill="#000000" fill-rule="evenodd" stroke="none"/>
    <path d="M8.45 -19.7 L10.85 -20.95 12.05 -20.35 16.6 -30.35 21.2 -20.35 22.4 -20.8 24.05 -16.25 24.75 -15.5 24.15 -14.95 Q27.0 -12.25 27.0 -8.8 27.0 -5.35 24.15 -2.7 L24.85 -2.0 22.95 -0.4 Q21.45 0.75 17.2 0.9 12.95 1.0 12.35 3.05 L5.75 14.9 6.35 15.25 Q6.3 18.05 3.5 19.0 L-12.45 19.0 -12.65 19.7 Q-16.5 18.95 -17.2 15.25 L-10.55 3.45 -10.45 3.35 Q-9.1 1.3 -9.5 -2.0 L-8.8 -2.7 -10.15 -4.15 Q-11.7 -6.25 -11.7 -8.8 -11.7 -11.2 -10.3 -13.2 L-8.8 -14.95 -9.5 -15.6 -10.0 -16.5 Q-10.15 -18.3 -9.5 -20.45 L-8.85 -20.35 -4.3 -30.35 0.3 -20.35 1.4 -20.15 3.55 -20.4 3.65 -19.7 8.45 -19.7 M12.6 -12.1 L11.4 -11.8 Q11.95 -10.3 11.95 -8.35 11.95 -5.95 10.95 -4.95 10.4 -4.35 9.6 -4.35 8.85 -4.35 8.4 -4.8 7.95 -5.25 7.95 -5.85 L8.5 -7.05 8.85 -8.85 Q8.85 -10.2 8.35 -10.2 7.9 -10.2 7.45 -9.3 6.95 -8.3 6.9 -7.6 6.75 -6.6 6.9 -6.05 L6.1 -4.85 Q5.5 -4.3 4.7 -4.3 4.15 -4.3 3.75 -4.7 3.4 -5.05 3.4 -6.35 3.4 -8.8 5.85 -11.55 L4.75 -12.1 Q2.25 -9.25 2.25 -6.35 2.25 -4.6 2.95 -3.95 3.65 -3.25 4.7 -3.25 5.85 -3.25 6.6 -4.0 L7.2 -4.8 Q7.35 -4.35 7.85 -3.85 8.45 -3.25 9.65 -3.25 11.0 -3.25 11.9 -4.1 13.25 -5.5 13.25 -8.35 13.25 -10.35 12.6 -12.1 M21.0 -10.35 L18.35 -10.35 18.35 -7.7 21.0 -7.7 21.0 -10.35 M-3.0 -10.35 L-5.65 -10.35 -5.65 -7.7 -3.0 -7.7 -3.0 -10.35" fill="#ffffff" fill-rule="evenodd" stroke="none"/>
  </g>
</svg>
