<svg xmlns:xlink="http://www.w3.org/1999/xlink" height="84.1px" width="67.05px" xmlns="http://www.w3.org/2000/svg">
  <g transform="matrix(1.0, 0.0, 0.0, 1.0, 37.25, 83.55)">
    <path d="M-28.65 -63.0 L-28.65 -64.35 -27.2 -64.35 -27.2 -63.0 -28.05 -61.1 -28.65 -61.1 -28.05 -63.0 -28.65 -63.0 M-24.8 -63.0 L-25.4 -63.0 -25.4 -64.35 -23.95 -64.35 -23.95 -63.0 -24.8 -61.1 -25.4 -61.1 -24.8 -63.0 M-23.95 -34.6 L-24.65 -33.95 Q-26.2 -35.7 -26.95 -37.25 -27.75 -38.95 -27.75 -40.85 L-27.75 -40.9 Q-27.75 -43.05 -26.95 -44.75 L-26.0 -46.2 -24.65 -47.7 -23.95 -47.05 -25.25 -45.65 -26.15 -44.3 Q-26.8 -42.95 -26.85 -41.05 L-26.85 -40.85 Q-26.85 -39.2 -26.15 -37.7 L-25.25 -36.2 -24.95 -35.75 -23.95 -34.6 M-21.6 -52.8 L-22.3 -53.6 -8.65 -65.0 -7.95 -64.2 -21.6 -52.8 M-6.05 -71.75 Q-3.05 -72.9 -1.55 -75.05 -0.1 -77.2 -0.1 -80.3 L-0.1 -83.55 1.25 -83.55 Q1.9 -83.45 1.3 -83.05 L1.3 -80.5 Q1.6 -76.75 4.05 -74.3 5.5 -72.9 7.7 -71.95 L6.95 -70.35 Q3.9 -71.7 2.1 -74.6 1.35 -75.75 0.8 -77.2 L-0.1 -74.85 Q-1.7 -71.95 -5.1 -70.35 L-6.05 -71.75 M10.45 -64.2 L11.15 -65.0 24.8 -53.6 24.1 -52.8 10.45 -64.2 M26.0 -47.05 L26.7 -47.7 28.5 -45.6 29.0 -44.75 Q29.8 -43.05 29.8 -40.85 29.8 -38.95 29.0 -37.25 L27.7 -35.15 26.7 -33.95 26.0 -34.6 Q27.55 -36.3 28.2 -37.7 L28.35 -37.95 Q28.9 -39.35 28.9 -40.85 L28.7 -42.9 28.2 -44.3 Q27.55 -45.6 26.0 -47.05 M23.35 -29.05 L24.05 -29.7 25.3 -28.4 26.35 -26.75 Q27.15 -25.05 27.15 -22.85 L26.9 -20.75 26.35 -19.25 Q25.6 -17.7 24.05 -15.95 L23.35 -16.6 Q24.9 -18.3 25.55 -19.7 26.25 -21.2 26.25 -22.85 26.25 -24.85 25.55 -26.3 24.9 -27.6 23.35 -29.05 M16.1 -10.25 L16.1 -4.3 Q16.1 -2.1 14.8 -0.8 13.4 0.55 11.55 0.55 9.65 0.55 8.3 -0.8 6.95 -2.1 6.95 -4.3 L6.95 -9.7 6.95 -10.25 8.15 -10.25 8.15 -4.3 Q8.15 -2.7 9.2 -1.6 10.15 -0.7 11.55 -0.7 12.9 -0.7 13.85 -1.6 14.9 -2.7 14.9 -4.3 L14.9 -10.25 16.1 -10.25 M-4.8 -9.0 L-4.8 -4.3 Q-4.8 -2.1 -6.1 -0.8 -7.5 0.55 -9.35 0.55 -11.25 0.55 -12.6 -0.8 -13.95 -2.1 -13.95 -4.3 L-13.95 -10.25 -12.75 -10.25 -12.75 -4.3 Q-12.75 -2.7 -11.7 -1.6 -10.75 -0.7 -9.35 -0.7 -8.0 -0.7 -7.05 -1.6 -6.0 -2.7 -6.0 -4.3 L-6.0 -10.25 -4.8 -10.25 -4.8 -9.0 M-17.95 -17.35 L-19.1 -19.25 Q-19.9 -20.95 -19.9 -22.85 -19.9 -25.05 -19.1 -26.75 -18.45 -28.1 -17.05 -29.45 L-16.8 -29.7 -16.1 -29.05 Q-17.65 -27.6 -18.3 -26.3 -19.0 -24.85 -19.0 -22.85 -19.0 -21.2 -18.3 -19.7 -17.65 -18.3 -16.1 -16.6 L-16.8 -15.95 -17.95 -17.35 M-24.5 -23.7 Q-25.15 -22.75 -25.9 -22.05 -26.9 -21.1 -28.3 -21.1 -29.35 -21.1 -31.25 -22.25 -32.65 -23.1 -33.6 -23.1 -34.65 -23.1 -35.25 -22.45 L-35.9 -21.35 -37.25 -22.2 -35.85 -23.95 Q-34.9 -24.8 -33.75 -24.8 -32.5 -24.8 -30.9 -23.85 -29.25 -22.85 -28.1 -22.85 -27.3 -22.85 -26.5 -23.7 -26.1 -24.05 -25.75 -24.75 L-24.5 -23.7 M-9.35 -72.8 L-9.35 -71.45 -10.8 -71.45 -10.8 -72.8 -9.35 -72.8 M-3.05 -60.55 Q-1.65 -60.55 -0.7 -59.6 0.35 -58.55 0.35 -56.95 0.35 -55.3 -0.7 -54.25 -1.65 -53.3 -3.05 -53.3 -4.4 -53.3 -5.35 -54.25 -6.4 -55.3 -6.4 -56.95 -6.4 -58.55 -5.35 -59.6 -4.4 -60.55 -3.05 -60.55 M-4.3 -58.95 Q-5.05 -58.2 -5.05 -56.95 -5.05 -55.7 -4.35 -55.0 -3.8 -54.45 -3.05 -54.45 -2.3 -54.45 -1.7 -55.0 -1.05 -55.7 -1.05 -56.95 -1.05 -58.2 -1.8 -58.95 -2.3 -59.45 -3.05 -59.45 -3.8 -59.45 -4.3 -58.95 M17.55 -79.6 L16.75 -78.75 14.4 -80.6 15.05 -81.45 17.55 -79.6 M15.65 -82.1 L16.3 -82.95 18.8 -81.1 18.0 -80.25 15.65 -82.1 M10.45 -80.5 Q15.5 -77.3 17.8 -74.05 L16.25 -72.75 Q13.9 -76.2 9.15 -79.3 L10.45 -80.5 M4.3 -65.2 Q4.3 -64.6 3.85 -64.2 3.45 -63.75 2.85 -63.75 2.3 -63.75 1.85 -64.2 1.45 -64.6 1.45 -65.2 L1.85 -66.2 Q2.3 -66.6 2.85 -66.6 3.45 -66.6 3.85 -66.2 L4.3 -65.2 M3.55 -65.85 L2.85 -66.1 2.2 -65.85 1.95 -65.2 2.2 -64.5 Q2.45 -64.25 2.85 -64.25 3.3 -64.25 3.55 -64.5 L3.8 -65.2 3.55 -65.85 M11.25 -42.45 L6.25 -42.45 8.75 -38.0 11.25 -42.45 M8.75 -35.2 L3.0 -45.6 4.2 -46.3 5.65 -43.75 11.9 -43.75 13.3 -46.3 14.5 -45.6 8.75 -35.2 M-16.45 -37.85 Q-15.35 -36.75 -13.65 -36.75 -12.0 -36.75 -10.9 -37.85 -9.85 -38.95 -9.85 -40.8 -9.85 -42.7 -10.9 -43.75 -12.0 -44.85 -13.65 -44.85 -15.35 -44.85 -16.45 -43.75 -17.5 -42.7 -17.5 -40.8 -17.5 -38.95 -16.45 -37.85 M-17.65 -44.7 Q-16.1 -46.25 -13.65 -46.25 -11.25 -46.25 -9.7 -44.7 -8.15 -43.1 -8.15 -40.8 -8.15 -38.5 -9.7 -36.95 -11.25 -35.35 -13.65 -35.35 -16.1 -35.35 -17.65 -36.95 -19.2 -38.5 -19.2 -40.8 -19.2 -43.1 -17.65 -44.7 M-5.6 -45.25 L-3.25 -48.0 -1.0 -48.0 -4.2 -45.25 -5.6 -45.25 M-10.05 -28.25 L-10.05 -22.3 Q-10.05 -20.7 -9.0 -19.6 -8.05 -18.7 -6.65 -18.7 -5.3 -18.7 -4.35 -19.6 -3.3 -20.7 -3.3 -22.3 L-3.3 -28.25 -2.1 -28.25 -2.1 -22.3 Q-2.1 -20.1 -3.4 -18.8 -4.8 -17.45 -6.65 -17.45 -8.55 -17.45 -9.9 -18.8 -11.25 -20.1 -11.25 -22.3 L-11.25 -28.25 -10.05 -28.25 M14.85 -25.95 L13.1 -19.3 Q12.9 -18.8 13.1 -18.6 13.3 -18.45 13.6 -18.45 14.35 -18.45 15.05 -19.55 L15.85 -18.75 Q14.85 -17.25 13.5 -17.25 12.55 -17.25 12.1 -17.7 11.6 -18.2 12.0 -19.45 L13.75 -25.95 14.85 -25.95 M21.25 -45.25 L18.15 -48.0 20.4 -48.0 22.7 -45.25 21.25 -45.25" fill="#000000" fill-rule="evenodd" stroke="none"/>
    <path d="M-23.95 -47.05 Q-23.65 -50.4 -22.5 -53.1 L-21.6 -52.8 -7.95 -64.2 -8.65 -65.0 Q-8.35 -68.8 -6.05 -71.75 L-5.1 -70.35 Q-1.7 -71.95 -0.1 -74.85 L0.8 -77.2 Q1.35 -75.75 2.1 -74.6 3.9 -71.7 6.95 -70.35 L7.5 -70.55 Q8.5 -67.5 10.25 -64.5 L10.45 -64.2 24.1 -52.8 Q25.5 -49.9 26.0 -47.05 27.55 -45.6 28.2 -44.3 L28.7 -42.9 28.9 -40.85 Q28.9 -39.35 28.35 -37.95 L28.2 -37.7 Q27.55 -36.3 26.0 -34.6 25.05 -31.65 23.35 -29.05 24.9 -27.6 25.55 -26.3 26.25 -24.85 26.25 -22.85 26.25 -21.2 25.55 -19.7 24.9 -18.3 23.35 -16.6 L24.0 -15.9 Q20.3 -12.35 16.1 -10.25 L14.9 -10.25 14.9 -4.3 Q14.9 -2.7 13.85 -1.6 12.9 -0.7 11.55 -0.7 10.15 -0.7 9.2 -1.6 8.15 -2.7 8.15 -4.3 L8.15 -10.25 6.95 -10.25 6.95 -9.7 5.95 -9.7 -3.65 -9.15 -4.8 -9.0 -4.8 -10.25 -6.0 -10.25 -6.0 -4.3 Q-6.0 -2.7 -7.05 -1.6 -8.0 -0.7 -9.35 -0.7 -10.75 -0.7 -11.7 -1.6 -12.75 -2.7 -12.75 -4.3 L-12.75 -10.25 -13.95 -10.25 Q-17.5 -13.4 -17.95 -17.35 L-16.8 -15.95 -16.1 -16.6 Q-17.65 -18.3 -18.3 -19.7 -19.0 -21.2 -19.0 -22.85 -19.0 -24.85 -18.3 -26.3 -17.65 -27.6 -16.1 -29.05 L-16.8 -29.7 -17.05 -29.45 Q-21.1 -31.25 -23.95 -34.6 L-24.95 -35.75 -25.25 -36.2 -26.15 -37.7 Q-26.85 -39.2 -26.85 -40.85 L-26.85 -41.05 Q-26.8 -42.95 -26.15 -44.3 L-25.25 -45.65 -23.95 -47.05 M-4.3 -58.95 Q-3.8 -59.45 -3.05 -59.45 -2.3 -59.45 -1.8 -58.95 -1.05 -58.2 -1.05 -56.95 -1.05 -55.7 -1.7 -55.0 -2.3 -54.45 -3.05 -54.45 -3.8 -54.45 -4.35 -55.0 -5.05 -55.7 -5.05 -56.95 -5.05 -58.2 -4.3 -58.95 M-3.05 -60.55 Q-4.4 -60.55 -5.35 -59.6 -6.4 -58.55 -6.4 -56.95 -6.4 -55.3 -5.35 -54.25 -4.4 -53.3 -3.05 -53.3 -1.65 -53.3 -0.7 -54.25 0.35 -55.3 0.35 -56.95 0.35 -58.55 -0.7 -59.6 -1.65 -60.55 -3.05 -60.55 M21.25 -45.25 L22.7 -45.25 20.4 -48.0 18.15 -48.0 21.25 -45.25 M14.85 -25.95 L13.75 -25.95 12.0 -19.45 Q11.6 -18.2 12.1 -17.7 12.55 -17.25 13.5 -17.25 14.85 -17.25 15.85 -18.75 L15.05 -19.55 Q14.35 -18.45 13.6 -18.45 13.3 -18.45 13.1 -18.6 12.9 -18.8 13.1 -19.3 L14.85 -25.95 M-10.05 -28.25 L-11.25 -28.25 -11.25 -22.3 Q-11.25 -20.1 -9.9 -18.8 -8.55 -17.45 -6.65 -17.45 -4.8 -17.45 -3.4 -18.8 -2.1 -20.1 -2.1 -22.3 L-2.1 -28.25 -3.3 -28.25 -3.3 -22.3 Q-3.3 -20.7 -4.35 -19.6 -5.3 -18.7 -6.65 -18.7 -8.05 -18.7 -9.0 -19.6 -10.05 -20.7 -10.05 -22.3 L-10.05 -28.25 M-5.6 -45.25 L-4.2 -45.25 -1.0 -48.0 -3.25 -48.0 -5.6 -45.25 M-17.65 -44.7 Q-19.2 -43.1 -19.2 -40.8 -19.2 -38.5 -17.65 -36.95 -16.1 -35.35 -13.65 -35.35 -11.25 -35.35 -9.7 -36.95 -8.15 -38.5 -8.15 -40.8 -8.15 -43.1 -9.7 -44.7 -11.25 -46.25 -13.65 -46.25 -16.1 -46.25 -17.65 -44.7 M-16.45 -37.85 Q-17.5 -38.95 -17.5 -40.8 -17.5 -42.7 -16.45 -43.75 -15.35 -44.85 -13.65 -44.85 -12.0 -44.85 -10.9 -43.75 -9.85 -42.7 -9.85 -40.8 -9.85 -38.95 -10.9 -37.85 -12.0 -36.75 -13.65 -36.75 -15.35 -36.75 -16.45 -37.85 M8.75 -35.2 L14.5 -45.6 13.3 -46.3 11.9 -43.75 5.65 -43.75 4.2 -46.3 3.0 -45.6 8.75 -35.2 M11.25 -42.45 L8.75 -38.0 6.25 -42.45 11.25 -42.45 M3.55 -65.85 L3.8 -65.2 3.55 -64.5 Q3.3 -64.25 2.85 -64.25 2.45 -64.25 2.2 -64.5 L1.95 -65.2 2.2 -65.85 2.85 -66.1 3.55 -65.85 M4.3 -65.2 L3.85 -66.2 Q3.45 -66.6 2.85 -66.6 2.3 -66.6 1.85 -66.2 L1.45 -65.2 Q1.45 -64.6 1.85 -64.2 2.3 -63.75 2.85 -63.75 3.45 -63.75 3.85 -64.2 4.3 -64.6 4.3 -65.2" fill="#ffffff" fill-rule="evenodd" stroke="none"/>
  </g>
</svg>
