<svg xmlns:xlink="http://www.w3.org/1999/xlink" height="91.95px" width="68.95px" xmlns="http://www.w3.org/2000/svg">
  <g transform="matrix(1.0, 0.0, 0.0, 1.0, 33.45, 92.7)">
    <path d="M-0.75 -78.2 L-2.5 -78.2 2.9 -89.4 2.5 -89.75 Q2.0 -90.25 2.0 -90.95 2.0 -91.7 2.5 -92.2 3.0 -92.7 3.75 -92.7 4.5 -92.7 5.0 -92.2 5.5 -91.7 5.5 -90.95 5.5 -90.15 5.1 -89.75 L4.75 -89.45 10.0 -78.2 9.1 -78.2 8.25 -78.2 7.0 -81.0 0.5 -81.0 -0.75 -78.2 M8.85 -74.5 L23.3 -62.4 22.55 -61.5 7.2 -74.3 8.0 -75.2 8.85 -74.5 M22.5 -55.15 L23.25 -55.9 Q24.75 -54.5 25.65 -52.9 26.8 -50.75 26.8 -48.25 26.8 -46.05 25.9 -44.1 25.0 -42.25 23.25 -40.6 L22.5 -41.35 Q25.75 -44.4 25.75 -48.25 25.75 -52.1 22.5 -55.15 M20.35 -35.75 Q22.3 -33.9 23.15 -31.65 23.75 -30.05 23.75 -28.25 L23.7 -27.25 Q23.35 -23.5 20.2 -20.6 L19.45 -21.35 Q22.7 -24.4 22.7 -28.25 22.7 -32.1 19.45 -35.15 L20.2 -35.9 20.35 -35.75 M-13.8 -21.35 L-14.55 -20.6 Q-18.05 -23.9 -18.05 -28.25 -18.05 -32.6 -14.55 -35.9 L-13.8 -35.15 Q-17.0 -32.1 -17.0 -28.25 -17.0 -24.4 -13.8 -21.35 M-17.2 -41.0 L-17.6 -40.6 Q-21.1 -43.9 -21.1 -48.25 -21.1 -52.6 -17.6 -55.9 L-16.85 -55.15 Q-20.05 -52.1 -20.05 -48.25 -20.05 -45.25 -18.1 -42.75 L-16.85 -41.35 -17.2 -41.0 M-16.3 -62.4 L-2.15 -74.15 -0.95 -75.2 -0.2 -74.3 -15.5 -61.5 -16.3 -62.4 M2.85 -91.85 Q2.5 -91.5 2.5 -90.95 2.5 -90.35 2.85 -90.0 3.2 -89.65 3.75 -89.65 4.3 -89.65 4.65 -90.0 5.0 -90.35 5.0 -90.95 5.0 -91.5 4.65 -91.85 4.3 -92.2 3.75 -92.2 3.2 -92.2 2.85 -91.85 M6.3 -82.55 L3.75 -88.05 1.3 -82.55 6.3 -82.55 M7.95 -57.05 Q8.55 -57.05 9.05 -56.55 9.55 -56.05 9.55 -55.45 9.55 -54.8 9.05 -54.3 8.55 -53.8 7.95 -53.8 7.3 -53.8 6.8 -54.3 6.3 -54.8 6.3 -55.45 6.3 -56.05 6.8 -56.55 7.3 -57.05 7.95 -57.05 M7.95 -56.5 Q7.45 -56.5 7.15 -56.2 L6.9 -55.45 Q6.9 -54.95 7.15 -54.65 7.45 -54.35 7.95 -54.35 8.45 -54.35 8.7 -54.65 L9.0 -55.45 8.7 -56.2 7.95 -56.5 M2.05 -54.45 L3.35 -53.65 -3.1 -41.95 -9.55 -53.65 -8.25 -54.45 -6.6 -51.55 0.4 -51.55 2.05 -54.45 M35.25 -54.15 Q35.75 -53.9 35.25 -53.75 33.85 -45.8 29.4 -41.85 L28.25 -43.35 Q32.35 -46.7 33.75 -54.85 L35.25 -54.15 M8.7 -32.25 L9.6 -33.25 10.3 -33.45 Q11.35 -33.45 11.85 -32.6 14.2 -28.7 17.55 -25.3 L18.6 -24.25 17.4 -22.75 17.25 -22.95 Q13.35 -27.1 11.0 -31.3 10.8 -31.7 10.35 -31.7 9.95 -31.7 9.75 -31.3 L8.2 -28.45 Q6.85 -26.2 5.95 -25.25 L4.8 -26.55 Q6.35 -28.05 8.7 -32.25 M-31.95 -52.35 Q-26.25 -48.75 -23.65 -45.1 L-25.45 -43.6 Q-28.1 -47.5 -33.45 -51.0 L-31.95 -52.35 M-14.2 -56.5 L-15.0 -56.2 -15.25 -55.45 -15.0 -54.65 Q-14.7 -54.35 -14.2 -54.35 L-14.0 -54.35 Q-13.65 -54.4 -13.45 -54.65 -13.15 -54.95 -13.15 -55.45 -13.15 -55.9 -13.45 -56.2 L-13.8 -56.45 -14.2 -56.5 M-13.1 -56.55 Q-12.6 -56.05 -12.6 -55.45 -12.6 -54.8 -13.1 -54.3 -13.55 -53.85 -14.05 -53.8 L-14.2 -53.8 Q-14.85 -53.8 -15.35 -54.3 -15.85 -54.8 -15.85 -55.45 -15.85 -56.05 -15.35 -56.55 -14.85 -57.05 -14.2 -57.05 L-13.75 -56.95 -13.1 -56.55 M-5.9 -50.1 L-3.1 -45.1 -0.3 -50.1 -5.9 -50.1 M-5.3 -15.15 Q-8.2 -11.2 -10.2 -9.4 L-10.8 -8.4 Q-10.8 -8.1 -10.4 -7.75 L-7.5 -4.9 -5.05 -2.0 -6.4 -0.75 Q-8.2 -3.4 -11.0 -6.3 -12.3 -7.55 -12.3 -8.45 -12.3 -9.1 -11.25 -10.25 -8.5 -12.95 -6.6 -16.2 L-5.3 -15.15" fill="#000000" fill-rule="evenodd" stroke="none"/>
    <path d="M9.1 -78.2 L8.85 -74.5 8.0 -75.2 7.2 -74.3 22.55 -61.5 Q23.3 -57.75 22.5 -55.15 25.75 -52.1 25.75 -48.25 25.75 -44.4 22.5 -41.35 22.95 -37.75 20.35 -35.75 L20.2 -35.9 19.45 -35.15 Q22.7 -32.1 22.7 -28.25 22.7 -24.4 19.45 -21.35 L18.75 -20.1 Q14.7 -16.55 8.2 -16.7 L-3.15 -17.6 Q-9.2 -18.4 -13.8 -21.35 -17.0 -24.4 -17.0 -28.25 -17.0 -32.1 -13.8 -35.15 L-14.55 -35.9 -17.2 -41.0 -16.85 -41.35 -18.1 -42.75 Q-20.05 -45.25 -20.05 -48.25 -20.05 -52.1 -16.85 -55.15 -16.95 -59.5 -16.3 -62.4 L-15.5 -61.5 -0.2 -74.3 -0.95 -75.2 -2.15 -74.15 Q-1.25 -77.35 -0.75 -78.2 L0.5 -81.0 7.0 -81.0 8.25 -78.2 9.1 -78.2 M2.05 -54.45 L0.4 -51.55 -6.6 -51.55 -8.25 -54.45 -9.55 -53.65 -3.1 -41.95 3.35 -53.65 2.05 -54.45 M7.95 -56.5 L8.7 -56.2 9.0 -55.45 8.7 -54.65 Q8.45 -54.35 7.95 -54.35 7.45 -54.35 7.15 -54.65 6.9 -54.95 6.9 -55.45 L7.15 -56.2 Q7.45 -56.5 7.95 -56.5 M7.95 -57.05 Q7.3 -57.05 6.8 -56.55 6.3 -56.05 6.3 -55.45 6.3 -54.8 6.8 -54.3 7.3 -53.8 7.95 -53.8 8.55 -53.8 9.05 -54.3 9.55 -54.8 9.55 -55.45 9.55 -56.05 9.05 -56.55 8.55 -57.05 7.95 -57.05 M6.3 -82.55 L1.3 -82.55 3.75 -88.05 6.3 -82.55 M8.7 -32.25 Q6.35 -28.05 4.8 -26.55 L5.95 -25.25 Q6.85 -26.2 8.2 -28.45 L9.75 -31.3 Q9.95 -31.7 10.35 -31.7 10.8 -31.7 11.0 -31.3 13.35 -27.1 17.25 -22.95 L17.4 -22.75 18.6 -24.25 17.55 -25.3 Q14.2 -28.7 11.85 -32.6 11.35 -33.45 10.3 -33.45 L9.6 -33.25 8.7 -32.25 M-5.9 -50.1 L-0.3 -50.1 -3.1 -45.1 -5.9 -50.1 M-13.1 -56.55 L-13.75 -56.95 -14.2 -57.05 Q-14.85 -57.05 -15.35 -56.55 -15.85 -56.05 -15.85 -55.45 -15.85 -54.8 -15.35 -54.3 -14.85 -53.8 -14.2 -53.8 L-14.05 -53.8 Q-13.55 -53.85 -13.1 -54.3 -12.6 -54.8 -12.6 -55.45 -12.6 -56.05 -13.1 -56.55 M-14.2 -56.5 L-13.8 -56.45 -13.45 -56.2 Q-13.15 -55.9 -13.15 -55.45 -13.15 -54.95 -13.45 -54.65 -13.65 -54.4 -14.0 -54.35 L-14.2 -54.35 Q-14.7 -54.35 -15.0 -54.65 L-15.25 -55.45 -15.0 -56.2 -14.2 -56.5" fill="#ffffff" fill-rule="evenodd" stroke="none"/>
  </g>
</svg>
