<svg xmlns:xlink="http://www.w3.org/1999/xlink" height="92.9px" width="56.75px" xmlns="http://www.w3.org/2000/svg">
  <g transform="matrix(1.0, 0.0, 0.0, 1.0, 26.45, 92.65)">
    <path d="M-16.15 -82.55 L-16.55 -81.7 -15.5 -81.2 -11.5 -89.95 -7.5 -81.2 -6.45 -81.7 Q-5.85 -82.45 -4.55 -80.65 L-4.55 -80.05 9.4 -80.05 9.4 -80.65 Q10.65 -81.7 11.95 -81.45 L12.5 -81.2 16.5 -89.95 20.5 -81.2 21.55 -81.7 Q23.65 -79.35 24.45 -75.55 L24.2 -75.45 22.8 -75.45 25.75 -71.0 22.55 -66.1 23.95 -66.1 25.85 -69.05 26.3 -66.15 Q27.2 -59.4 25.3 -60.2 23.05 -61.2 22.4 -63.0 L20.35 -60.3 Q21.7 -59.05 22.25 -57.9 22.85 -56.6 22.85 -54.85 22.85 -53.4 22.25 -52.1 21.7 -50.9 20.35 -49.4 L20.8 -48.7 17.95 -46.8 19.4 -44.3 Q20.75 -43.05 21.3 -41.9 21.9 -40.6 21.9 -38.85 21.9 -37.4 21.3 -36.1 20.75 -34.9 19.4 -33.4 18.05 -31.1 17.1 -29.95 L16.0 -29.95 16.0 -16.05 16.8 -15.5 20.9 -12.3 Q22.25 -11.05 22.8 -9.9 23.4 -8.6 23.4 -6.85 23.4 -5.4 22.8 -4.1 22.25 -2.9 20.9 -1.4 18.8 -1.3 18.4 -0.65 L5.8 -0.65 5.8 -0.05 0.45 0.25 0.5 -0.8 Q1.85 -2.35 2.5 -3.7 3.25 -5.2 3.25 -6.85 3.25 -8.8 2.5 -10.25 1.9 -11.5 0.5 -12.85 L-0.1 -12.3 Q1.25 -11.05 1.8 -9.9 2.4 -8.6 2.4 -6.85 2.4 -5.4 1.8 -4.1 1.25 -2.9 -0.1 -1.4 L-1.25 -0.65 -15.2 -0.65 -15.25 -0.65 -15.25 -1.25 -19.45 -1.25 -20.6 -1.4 Q-21.95 -2.9 -22.5 -4.1 -23.1 -5.4 -23.1 -6.85 -23.1 -8.6 -22.5 -9.9 -21.95 -11.05 -20.6 -12.3 L-21.2 -12.85 Q-21.25 -15.6 -19.8 -16.9 L-19.25 -17.4 -19.25 -16.05 -18.15 -16.05 -18.15 -29.95 -18.5 -29.95 -18.65 -30.3 Q-19.2 -31.5 -20.35 -32.1 L-21.1 -27.45 -22.65 -27.45 -22.3 -21.3 Q-22.6 -20.3 -22.95 -19.75 L-23.5 -19.3 -23.85 -19.3 -24.1 -19.4 Q-24.7 -19.85 -25.35 -21.3 L-24.5 -21.3 -24.15 -27.45 -25.7 -27.45 -25.5 -32.95 -23.7 -32.6 Q-22.4 -32.6 -21.6 -33.35 -21.0 -33.95 -21.0 -34.75 -21.0 -35.85 -21.8 -36.3 -20.95 -37.0 -20.95 -38.05 -20.95 -39.2 -22.1 -39.65 L-24.35 -40.5 Q-25.05 -40.85 -25.05 -41.4 L-24.75 -42.15 Q-24.4 -42.5 -23.7 -42.5 -22.95 -42.5 -22.6 -42.15 L-22.3 -41.65 -20.95 -41.65 Q-21.2 -42.45 -21.6 -42.85 -22.3 -43.5 -23.7 -43.5 L-25.25 -43.2 Q-24.95 -45.7 -24.3 -47.85 L-24.25 -48.05 -24.25 -61.95 -25.35 -61.95 -24.8 -65.85 -24.8 -66.1 -22.0 -69.95 -21.9 -69.95 -19.05 -66.1 -17.5 -66.1 -21.25 -71.0 -17.9 -75.45 -19.5 -75.45 -21.5 -72.55 -23.25 -73.75 Q-22.85 -78.4 -20.2 -80.65 L-20.05 -80.65 -19.9 -80.85 Q-18.4 -82.1 -16.15 -82.55 M-5.3 -75.85 L-6.6 -76.25 Q-6.9 -69.5 -12.35 -66.45 L-11.45 -65.35 Q-8.8 -66.95 -7.2 -69.65 -5.5 -72.4 -5.3 -75.85 M-25.1 -74.25 L-22.7 -71.0 -26.4 -66.1 Q-26.3 -70.7 -25.1 -74.25 M-13.9 -59.4 L-15.05 -59.95 Q-16.15 -53.6 -19.3 -51.0 L-18.4 -49.85 Q-15.0 -52.9 -13.9 -59.1 -13.5 -59.2 -13.9 -59.4 M-22.8 -60.4 L-22.45 -59.5 Q-22.05 -59.15 -21.55 -59.15 -21.05 -59.15 -20.7 -59.5 -20.3 -59.9 -20.3 -60.4 -20.3 -60.9 -20.7 -61.25 -21.05 -61.65 -21.55 -61.65 -22.05 -61.65 -22.45 -61.25 -22.8 -60.9 -22.8 -60.4 M-15.9 -32.65 L-15.35 -32.65 -14.6 -34.1 -14.6 -35.3 -15.9 -35.3 -15.9 -34.1 -15.35 -34.1 -15.9 -32.65 M-8.05 -58.75 L-6.9 -58.75 -5.25 -60.1 -3.6 -58.75 -2.45 -58.75 -4.55 -61.15 -5.95 -61.15 -8.05 -58.75 M-25.45 -36.55 L-23.15 -35.7 Q-22.3 -35.45 -22.3 -34.75 -22.3 -34.35 -22.55 -34.05 -22.9 -33.75 -23.7 -33.75 L-24.8 -34.0 -25.1 -34.5 -25.45 -34.5 -25.45 -36.55 M-24.85 -37.6 L-25.2 -38.4 Q-25.2 -39.0 -24.55 -39.35 L-22.75 -38.7 Q-22.15 -38.4 -22.15 -37.8 -22.15 -37.2 -22.75 -36.7 L-24.1 -37.1 -24.85 -37.6 M30.0 -75.45 Q30.25 -71.1 29.35 -67.6 L27.05 -71.0 30.0 -75.45 M14.1 -58.75 L15.75 -60.1 17.4 -58.75 18.55 -58.75 16.45 -61.15 15.05 -61.15 12.95 -58.75 14.1 -58.75 M5.25 -52.35 L3.05 -56.25 7.45 -56.25 5.25 -52.35 M8.0 -57.4 L2.5 -57.4 1.25 -59.65 0.2 -59.05 5.25 -49.9 10.3 -59.05 9.25 -59.65 8.0 -57.4 M4.1 -72.55 L4.45 -72.65 4.15 -72.95 2.9 -73.55 Q2.2 -69.65 0.8 -67.1 L1.85 -66.05 Q3.45 -69.0 4.1 -72.55 M9.0 -67.1 L8.25 -69.7 6.4 -74.1 5.3 -73.35 5.4 -73.1 Q6.9 -69.6 7.6 -66.45 L9.0 -67.1 M17.55 -68.75 L15.6 -70.85 13.25 -74.2 12.8 -74.5 Q12.6 -74.5 12.35 -74.1 L9.7 -70.2 10.7 -68.9 12.65 -72.2 12.85 -72.35 13.0 -72.25 14.65 -69.9 16.6 -67.5 17.55 -68.75 M5.4 -27.45 L3.9 -27.45 1.1 -23.1 1.0 -23.1 -1.85 -27.45 -3.4 -27.45 0.4 -22.0 0.4 -18.1 1.65 -18.1 1.65 -22.0 5.4 -27.45" fill="#ffffff" fill-rule="evenodd" stroke="none"/>
    <path d="M-6.45 -81.7 L-7.5 -81.2 -11.5 -89.95 -15.5 -81.2 -16.55 -81.7 -16.15 -82.55 -11.5 -92.65 -6.45 -81.7 M-19.9 -80.85 L-20.05 -80.65 -20.2 -80.65 -20.6 -80.65 -20.05 -82.1 -20.6 -82.1 -20.6 -83.3 -19.3 -83.3 -19.3 -82.1 -19.9 -80.85 M-21.5 -72.55 L-19.5 -75.45 -17.9 -75.45 -21.25 -71.0 -17.5 -66.1 -19.05 -66.1 -21.9 -69.95 -22.0 -69.95 -24.8 -66.1 -26.4 -66.1 -22.7 -71.0 -25.1 -74.25 -26.0 -75.45 -24.45 -75.45 -23.25 -73.75 -22.0 -72.05 -21.9 -72.05 -21.5 -72.55 M-25.35 -61.95 L-24.25 -61.95 -24.25 -48.05 -25.35 -48.05 -25.35 -61.95 M-25.25 -43.2 L-23.7 -43.5 Q-22.3 -43.5 -21.6 -42.85 -21.2 -42.45 -20.95 -41.65 L-22.3 -41.65 -22.6 -42.15 Q-22.95 -42.5 -23.7 -42.5 -24.4 -42.5 -24.75 -42.15 L-25.05 -41.4 Q-25.05 -40.85 -24.35 -40.5 L-22.1 -39.65 Q-20.95 -39.2 -20.95 -38.05 -20.95 -37.0 -21.8 -36.3 -21.0 -35.85 -21.0 -34.75 -21.0 -33.95 -21.6 -33.35 -22.4 -32.6 -23.7 -32.6 L-25.5 -32.95 -25.85 -33.25 -26.45 -34.5 -25.45 -34.5 -25.1 -34.5 -24.8 -34.0 -23.7 -33.75 Q-22.9 -33.75 -22.55 -34.05 -22.3 -34.35 -22.3 -34.75 -22.3 -35.45 -23.15 -35.7 L-25.45 -36.55 Q-26.4 -37.05 -26.4 -38.2 -26.4 -39.25 -25.5 -39.8 L-25.8 -40.0 Q-26.3 -40.45 -26.3 -41.4 -26.3 -42.3 -25.8 -42.85 L-25.25 -43.2 M-25.7 -27.45 L-24.15 -27.45 -24.5 -21.3 -25.35 -21.3 -25.7 -27.45 M-22.3 -21.3 L-22.65 -27.45 -21.1 -27.45 -21.45 -21.3 -22.3 -21.3 M-18.5 -29.95 L-18.15 -29.95 -18.15 -16.05 -19.25 -16.05 -19.25 -17.4 -19.25 -29.95 -18.5 -29.95 M-21.2 -12.85 L-20.6 -12.3 Q-21.95 -11.05 -22.5 -9.9 -23.1 -8.6 -23.1 -6.85 -23.1 -5.4 -22.5 -4.1 -21.95 -2.9 -20.6 -1.4 L-21.2 -0.8 Q-22.55 -2.35 -23.2 -3.7 -23.95 -5.2 -23.95 -6.85 -23.95 -8.8 -23.2 -10.25 -22.6 -11.5 -21.2 -12.85 M-19.45 -1.25 L-15.25 -1.25 -15.25 -0.65 -15.25 -0.6 -19.45 -0.6 -19.45 -1.25 M-15.2 -0.65 L-1.25 -0.65 -1.25 -0.05 -15.2 -0.05 -15.2 -0.65 M-0.1 -1.4 Q1.25 -2.9 1.8 -4.1 2.4 -5.4 2.4 -6.85 2.4 -8.6 1.8 -9.9 1.25 -11.05 -0.1 -12.3 L0.5 -12.85 Q1.9 -11.5 2.5 -10.25 3.25 -8.8 3.25 -6.85 3.25 -5.2 2.5 -3.7 1.85 -2.35 0.5 -0.8 L-0.1 -1.4 M5.8 -0.05 L5.8 -0.65 18.4 -0.65 19.75 -0.65 19.75 -0.05 5.8 -0.05 M20.9 -1.4 Q22.25 -2.9 22.8 -4.1 23.4 -5.4 23.4 -6.85 23.4 -8.6 22.8 -9.9 22.25 -11.05 20.9 -12.3 L21.5 -12.85 Q22.9 -11.5 23.5 -10.25 24.25 -8.8 24.25 -6.85 24.25 -5.2 23.5 -3.7 22.85 -2.35 21.5 -0.8 L20.9 -1.4 M16.0 -16.05 L16.0 -29.95 17.1 -29.95 17.1 -16.05 16.0 -16.05 M19.4 -33.4 Q20.75 -34.9 21.3 -36.1 21.9 -37.4 21.9 -38.85 21.9 -40.6 21.3 -41.9 20.75 -43.05 19.4 -44.3 L20.0 -44.85 Q21.4 -43.5 22.0 -42.25 22.75 -40.8 22.75 -38.85 22.75 -37.2 22.0 -35.7 L20.0 -32.8 19.4 -33.4 M20.35 -49.4 Q21.7 -50.9 22.25 -52.1 22.85 -53.4 22.85 -54.85 22.85 -56.6 22.25 -57.9 21.7 -59.05 20.35 -60.3 L20.95 -60.85 Q22.35 -59.5 22.95 -58.25 23.7 -56.8 23.7 -54.85 23.7 -53.2 22.95 -51.7 L20.95 -48.8 20.35 -49.4 M25.85 -69.05 L23.95 -66.1 22.55 -66.1 25.75 -71.0 22.8 -75.45 24.2 -75.45 26.4 -72.0 28.6 -75.45 30.0 -75.45 27.05 -71.0 29.35 -67.6 30.3 -66.1 28.85 -66.1 26.4 -69.95 25.85 -69.1 25.85 -69.05 M21.55 -81.7 L20.5 -81.2 16.5 -89.95 12.5 -81.2 11.95 -81.45 11.45 -81.7 16.5 -92.65 21.55 -81.7 M9.4 -80.65 L9.4 -80.05 -4.55 -80.05 -4.55 -80.65 9.4 -80.65 M-5.3 -75.85 Q-5.5 -72.4 -7.2 -69.65 -8.8 -66.95 -11.45 -65.35 L-12.35 -66.45 Q-6.9 -69.5 -6.6 -76.25 L-5.3 -75.85 M-22.8 -60.4 Q-22.8 -60.9 -22.45 -61.25 -22.05 -61.65 -21.55 -61.65 -21.05 -61.65 -20.7 -61.25 -20.3 -60.9 -20.3 -60.4 -20.3 -59.9 -20.7 -59.5 -21.05 -59.15 -21.55 -59.15 -22.05 -59.15 -22.45 -59.5 L-22.8 -60.4 M-13.9 -59.4 Q-13.5 -59.2 -13.9 -59.1 -15.0 -52.9 -18.4 -49.85 L-19.3 -51.0 Q-16.15 -53.6 -15.05 -59.95 L-13.9 -59.4 M-20.95 -61.0 Q-21.2 -61.2 -21.55 -61.2 L-22.15 -61.0 -22.4 -60.4 -22.15 -59.8 Q-21.95 -59.55 -21.55 -59.55 -21.2 -59.55 -20.95 -59.8 L-20.75 -60.4 -20.95 -61.0 M-8.05 -58.75 L-5.95 -61.15 -4.55 -61.15 -2.45 -58.75 -3.6 -58.75 -5.25 -60.1 -6.9 -58.75 -8.05 -58.75 M-15.9 -32.65 L-15.35 -34.1 -15.9 -34.1 -15.9 -35.3 -14.6 -35.3 -14.6 -34.1 -15.35 -32.65 -15.9 -32.65 M-24.85 -37.6 L-24.1 -37.1 -22.75 -36.7 Q-22.15 -37.2 -22.15 -37.8 -22.15 -38.4 -22.75 -38.7 L-24.55 -39.35 Q-25.2 -39.0 -25.2 -38.4 L-24.85 -37.6 M-24.3 -19.3 L-24.3 -18.1 -25.5 -18.1 -25.5 -19.3 -24.3 -19.3 M-22.45 -19.3 L-21.25 -19.3 -21.25 -18.1 -22.45 -18.1 -22.45 -19.3 M17.55 -68.75 L16.6 -67.5 14.65 -69.9 13.0 -72.25 12.85 -72.35 12.65 -72.2 10.7 -68.9 9.7 -70.2 12.35 -74.1 Q12.6 -74.5 12.8 -74.5 L13.25 -74.2 15.6 -70.85 17.55 -68.75 M9.0 -67.1 L7.6 -66.45 Q6.9 -69.6 5.4 -73.1 L5.3 -73.35 6.4 -74.1 8.25 -69.7 9.0 -67.1 M4.1 -72.55 Q3.45 -69.0 1.85 -66.05 L0.8 -67.1 Q2.2 -69.65 2.9 -73.55 L4.15 -72.95 4.45 -72.65 4.1 -72.55 M8.0 -57.4 L9.25 -59.65 10.3 -59.05 5.25 -49.9 0.2 -59.05 1.25 -59.65 2.5 -57.4 8.0 -57.4 M5.25 -52.35 L7.45 -56.25 3.05 -56.25 5.25 -52.35 M14.1 -58.75 L12.95 -58.75 15.05 -61.15 16.45 -61.15 18.55 -58.75 17.4 -58.75 15.75 -60.1 14.1 -58.75 M5.4 -27.45 L1.65 -22.0 1.65 -18.1 0.4 -18.1 0.4 -22.0 -3.4 -27.45 -1.85 -27.45 1.0 -23.1 1.1 -23.1 3.9 -27.45 5.4 -27.45" fill="#000000" fill-rule="evenodd" stroke="none"/>
  </g>
</svg>
