<svg xmlns:xlink="http://www.w3.org/1999/xlink" height="116.65px" width="53.95px" xmlns="http://www.w3.org/2000/svg">
  <g transform="matrix(1.0, 0.0, 0.0, 1.0, 21.35, 116.65)">
    <path d="M11.65 -116.5 L11.7 -116.6 11.75 -116.6 11.85 -116.6 11.85 -116.5 11.85 -113.05 11.85 -112.95 11.75 -112.95 11.7 -112.95 11.65 -113.05 2.7 -113.05 2.7 -111.95 11.65 -111.95 11.7 -112.05 11.75 -112.05 11.85 -112.05 11.85 -111.95 11.85 -109.5 11.85 -109.4 11.75 -109.4 11.7 -109.4 11.65 -109.5 2.7 -109.5 2.7 -108.4 11.65 -108.4 11.7 -108.45 11.75 -108.5 11.8 -108.5 17.65 -103.0 17.7 -102.9 17.7 -102.85 17.6 -102.8 17.55 -102.85 17.5 -102.85 17.5 -102.9 17.05 -102.4 Q18.35 -101.15 18.9 -100.1 19.45 -98.85 19.5 -97.15 19.45 -95.75 18.9 -94.45 18.35 -93.3 17.05 -91.85 L17.4 -91.25 17.55 -91.3 17.6 -91.35 17.65 -91.3 17.7 -91.3 17.7 -91.2 17.65 -91.15 11.45 -87.25 10.8 -86.8 10.7 -86.8 10.65 -86.85 10.6 -86.9 10.6 -86.85 Q9.1 -86.05 8.1 -84.8 L8.65 -84.45 Q9.95 -85.85 11.1 -86.4 12.45 -87.05 14.05 -87.0 15.5 -87.05 16.8 -86.4 L19.4 -84.45 20.0 -84.8 17.5 -86.85 17.5 -87.05 16.85 -87.2 16.25 -87.3 16.2 -87.3 16.2 -87.4 16.2 -87.45 16.3 -87.5 21.8 -86.5 21.85 -86.5 21.85 -86.4 21.8 -86.35 21.75 -86.3 21.75 -77.35 22.5 -77.0 22.7 -77.35 22.7 -77.4 22.75 -77.45 22.8 -77.45 22.85 -77.45 22.9 -77.4 22.9 -77.3 21.15 -73.6 21.1 -73.5 21.05 -73.5 21.0 -73.5 20.95 -73.6 20.0 -73.6 20.0 -60.15 20.95 -60.15 20.95 -60.2 21.0 -60.25 21.05 -60.25 21.1 -60.25 21.15 -60.2 22.8 -56.05 22.8 -56.0 22.7 -55.9 22.65 -55.9 22.6 -56.0 22.55 -56.0 21.45 -56.0 21.45 -49.65 Q21.45 -48.9 20.95 -48.4 20.4 -47.85 19.3 -47.85 18.15 -47.85 17.55 -48.4 17.05 -48.9 17.1 -49.65 L17.1 -56.0 16.0 -56.0 15.95 -55.95 15.9 -55.9 15.9 -49.6 Q15.85 -48.45 16.65 -47.7 17.45 -46.8 19.3 -46.8 21.05 -46.8 21.9 -47.7 22.65 -48.45 22.7 -49.6 L22.7 -50.85 23.65 -50.85 29.6 -50.85 29.6 -45.05 29.65 -45.0 29.7 -44.95 31.15 -44.95 31.15 -45.0 31.2 -45.05 31.25 -45.05 31.3 -45.05 31.35 -45.0 32.6 -42.25 32.6 -42.2 32.55 -42.1 32.5 -42.1 32.4 -42.2 29.2 -42.2 29.2 -41.35 31.65 -41.35 31.65 -31.25 29.2 -31.25 29.2 -30.45 29.25 -30.45 29.3 -30.4 29.3 -30.35 29.3 -30.3 28.2 -28.05 28.1 -28.0 28.05 -28.0 28.0 -28.05 28.0 -28.1 14.6 -28.1 14.6 -28.0 14.5 -28.0 13.5 -27.95 13.45 -27.95 13.45 -28.0 13.4 -28.05 12.4 -28.05 12.4 -14.55 13.35 -14.55 13.35 -14.6 13.4 -14.65 13.45 -14.65 13.5 -14.65 18.5 -11.8 18.55 -11.75 18.5 -11.7 18.5 -11.65 18.45 -11.6 18.4 -11.65 17.85 -11.1 Q20.25 -8.85 20.3 -5.9 20.25 -3.0 17.85 -0.7 L18.35 -0.2 18.45 -0.2 18.5 -0.2 18.55 -0.1 18.5 -0.05 18.45 0.0 -14.9 0.0 -15.0 -0.05 -15.0 -0.1 -15.0 -0.2 -14.9 -0.2 -14.8 -0.2 -14.3 -0.7 Q-16.75 -3.0 -16.75 -5.9 -16.75 -8.85 -14.3 -11.1 L-14.8 -11.65 -14.85 -11.65 -14.9 -11.6 -15.0 -11.65 -15.0 -11.7 -14.95 -11.8 -12.1 -14.65 -12.05 -14.65 -12.0 -14.6 -11.95 -14.55 -11.0 -14.55 -11.0 -28.05 -11.95 -28.05 -12.0 -27.95 -12.05 -27.95 -12.15 -27.95 -12.15 -28.05 -12.15 -29.75 -12.15 -29.85 -12.05 -29.85 -12.0 -29.85 -11.95 -29.75 -11.0 -29.75 -11.0 -43.2 -11.95 -43.2 -12.0 -43.15 -12.05 -43.1 -12.15 -43.15 -12.15 -43.2 -12.1 -47.2 -12.05 -47.3 -12.0 -47.3 -11.95 -47.3 -11.9 -47.3 -11.9 -47.2 -11.9 -47.15 -11.9 -46.6 -11.15 -46.6 Q-5.2 -47.6 -2.6 -52.0 L-3.55 -52.95 Q-5.75 -48.9 -10.65 -48.0 L-10.65 -55.9 -10.7 -55.9 -10.75 -55.95 -10.95 -56.35 -12.7 -59.9 -14.3 -56.0 -14.4 -55.9 -14.45 -55.9 -14.5 -56.0 -15.65 -56.0 -15.65 -49.65 Q-15.65 -48.9 -16.15 -48.4 -16.7 -47.85 -17.8 -47.85 -18.95 -47.85 -19.5 -48.4 -20.0 -48.9 -20.0 -49.65 L-20.0 -56.0 -21.1 -56.0 -21.15 -55.95 -21.2 -55.9 -21.3 -55.95 -21.2 -60.15 -21.15 -60.2 -21.1 -60.25 -21.0 -60.2 -21.0 -60.15 -20.05 -60.15 -20.05 -73.6 -21.0 -73.6 -21.0 -73.55 -21.1 -73.5 -21.15 -73.55 -21.2 -73.6 -21.35 -77.35 -21.3 -77.4 -21.25 -77.45 -21.2 -77.4 -21.15 -77.35 -21.15 -77.3 -20.2 -77.35 -20.2 -86.3 -20.25 -86.35 -20.3 -86.4 -20.3 -86.5 -20.2 -86.5 -14.8 -87.45 -14.7 -87.4 -14.7 -87.35 -14.7 -87.3 -14.75 -87.25 -15.35 -87.15 -15.95 -86.85 -18.45 -84.8 -17.9 -84.45 -15.45 -86.4 Q-14.1 -87.05 -12.5 -87.0 -11.05 -87.05 -9.75 -86.4 L-7.15 -84.45 -6.65 -84.75 -6.8 -84.95 -8.0 -86.15 -13.0 -91.15 -13.0 -91.25 -13.0 -91.3 -12.9 -91.35 -12.8 -91.3 -12.35 -91.85 Q-13.65 -93.3 -14.2 -94.45 -14.8 -95.75 -14.8 -97.15 -14.8 -98.85 -14.2 -100.1 -13.65 -101.15 -12.35 -102.4 L-12.8 -102.85 -12.85 -102.8 -12.95 -102.8 -13.0 -102.85 -13.0 -102.9 -13.0 -102.95 -11.0 -108.45 -10.95 -108.5 -10.9 -108.5 -10.85 -108.5 -10.8 -108.45 -10.8 -108.4 -1.8 -108.4 -1.8 -109.5 -10.8 -109.5 -10.8 -109.4 -10.9 -109.4 -11.0 -109.4 -11.0 -109.5 -11.0 -111.95 -11.0 -112.05 -10.9 -112.05 -10.8 -112.05 -10.8 -111.95 -1.8 -111.95 -1.8 -113.05 -10.8 -113.05 -10.8 -112.95 -10.9 -112.95 -11.0 -112.95 -11.0 -113.05 -11.0 -116.5 -11.0 -116.6 -10.9 -116.6 -10.8 -116.6 -10.8 -116.5 -10.8 -115.5 -1.8 -115.5 -1.8 -116.4 -1.9 -116.45 -1.9 -116.5 -1.9 -116.6 -1.8 -116.6 2.7 -116.6 2.8 -116.6 2.8 -116.5 2.8 -116.45 2.7 -116.4 2.7 -115.5 11.65 -115.5 11.65 -116.5 M12.9 -99.95 L14.55 -99.95 14.55 -101.6 13.7 -101.6 14.8 -103.25 14.15 -103.25 12.9 -101.6 12.9 -99.95 M7.2 -97.4 L8.1 -98.3 4.3 -101.6 3.5 -100.9 5.6 -99.1 -0.05 -99.05 2.2 -102.5 Q2.7 -102.6 2.4 -102.9 L1.25 -103.3 -1.15 -99.05 -3.4 -99.05 -3.15 -97.7 Q-2.95 -97.45 -2.85 -97.9 L6.4 -98.25 7.2 -97.4 M14.75 -61.3 L14.75 -60.65 18.85 -60.65 18.85 -61.3 14.75 -61.3 M13.7 -73.6 L12.65 -73.6 12.65 -60.15 13.7 -60.15 13.7 -73.6 M4.4 -52.8 L9.9 -48.4 11.1 -49.6 Q8.95 -50.65 4.95 -54.0 4.35 -54.5 3.65 -54.5 3.1 -54.5 2.6 -54.0 0.25 -51.85 -1.2 -51.0 L-0.1 -49.9 3.25 -52.8 4.4 -52.8 M14.5 -43.25 L14.5 -42.7 28.1 -42.7 28.1 -43.15 28.0 -43.2 28.0 -43.25 14.5 -43.25 M13.45 -43.2 L12.4 -43.2 12.4 -29.75 13.45 -29.75 13.45 -43.2 M13.85 -58.25 L13.75 -58.35 13.75 -58.4 12.8 -58.4 12.8 -44.95 13.85 -44.95 13.85 -58.25 M16.35 -1.95 L16.35 -3.1 4.9 -3.1 4.9 -1.95 16.35 -1.95 M15.05 -9.15 L15.05 -10.3 6.35 -10.3 6.35 -9.15 15.05 -9.15 M-5.8 -99.95 L-5.8 -101.6 -6.65 -101.6 -5.6 -103.25 -6.2 -103.25 -7.45 -101.6 -7.45 -99.95 -5.8 -99.95 M-3.45 -67.0 L-3.45 -68.2 -4.7 -68.2 -4.7 -67.0 -3.45 -67.0 M-3.45 -62.15 L-3.45 -63.3 -4.7 -63.3 -4.7 -62.15 -3.45 -62.15 M1.45 -73.6 L0.4 -73.6 0.4 -60.15 1.45 -60.15 1.45 -73.6 M0.05 -86.4 L-1.4 -86.4 2.2 -81.1 2.2 -77.35 3.45 -77.35 3.45 -81.1 7.1 -86.4 5.6 -86.4 2.95 -82.2 2.8 -82.2 0.05 -86.4 M5.15 -95.65 L5.15 -93.05 -0.55 -93.05 -0.55 -95.65 5.15 -95.65 M5.15 -92.05 L5.15 -91.45 6.2 -91.45 6.2 -96.7 -1.6 -96.7 -1.6 -91.35 -0.55 -91.35 -0.55 -92.05 5.15 -92.05 M-18.95 -60.65 L-14.9 -60.65 -14.9 -61.3 -18.95 -61.3 -18.95 -60.65 M-12.8 -60.15 L-12.8 -60.2 -12.75 -60.25 -12.7 -60.25 -12.7 -73.6 -13.75 -73.6 -13.75 -60.15 -12.8 -60.15 M1.2 -43.2 L0.2 -43.2 0.2 -29.75 1.2 -29.75 1.2 -43.2 M0.7 -11.7 L0.1 -11.1 Q2.55 -8.85 2.55 -5.9 2.55 -3.0 0.1 -0.7 L0.6 -0.2 0.8 -0.2 Q3.35 -2.7 3.35 -5.9 3.35 -9.25 0.7 -11.7 M1.2 -28.05 L0.2 -28.05 0.2 -14.55 1.2 -14.55 1.2 -28.05 M-1.4 -1.95 L-1.4 -3.1 -12.85 -3.1 -12.85 -1.95 -1.4 -1.95 M-2.7 -9.15 L-2.7 -10.3 -11.4 -10.3 -11.4 -9.15 -2.7 -9.15" fill="#ffffff" fill-rule="evenodd" stroke="none"/>
    <path d="M11.65 -116.5 L11.65 -115.5 2.7 -115.5 2.7 -116.4 2.8 -116.45 2.8 -116.5 11.65 -116.5 M-1.9 -116.5 L-1.9 -116.45 -1.8 -116.4 -1.8 -115.5 -10.8 -115.5 -10.8 -116.5 -1.9 -116.5 M-10.9 -112.95 L-10.8 -112.95 -10.8 -113.05 -1.8 -113.05 -1.8 -111.95 -10.8 -111.95 -10.8 -112.05 -10.9 -112.05 -10.9 -112.95 M-10.9 -109.4 L-10.8 -109.4 -10.8 -109.5 -1.8 -109.5 -1.8 -108.4 -10.8 -108.4 -10.8 -108.45 -10.85 -108.5 -10.9 -108.5 -10.9 -109.4 M-13.0 -102.85 L-12.95 -102.8 -12.85 -102.8 -12.8 -102.85 -12.35 -102.4 Q-13.65 -101.15 -14.2 -100.1 -14.8 -98.85 -14.8 -97.15 -14.8 -95.75 -14.2 -94.45 -13.65 -93.3 -12.35 -91.85 L-12.8 -91.3 -12.9 -91.35 -13.0 -91.3 Q-14.3 -92.75 -14.9 -94.05 -15.6 -95.5 -15.6 -97.15 -15.6 -99.0 -14.9 -100.45 -14.35 -101.6 -13.0 -102.85 M-8.0 -86.15 L-6.8 -84.95 -6.65 -84.75 -7.15 -84.45 -9.75 -86.4 Q-11.05 -87.05 -12.5 -87.0 -14.1 -87.05 -15.45 -86.4 L-17.9 -84.45 -18.45 -84.8 -15.95 -86.85 -15.35 -87.15 -14.75 -87.25 -14.7 -87.3 -14.7 -87.35 -14.7 -87.4 -12.5 -87.75 Q-10.6 -87.75 -9.05 -86.85 L-8.0 -86.15 M-20.3 -86.4 L-20.25 -86.35 -20.2 -86.3 -20.2 -77.35 -21.15 -77.35 -21.2 -77.4 -21.25 -77.45 -21.25 -86.4 -20.3 -86.4 M-21.1 -73.5 L-21.0 -73.55 -21.0 -73.6 -20.05 -73.6 -20.05 -60.15 -21.0 -60.15 -21.0 -60.2 -21.1 -60.25 -21.1 -73.5 M-21.2 -55.9 L-21.15 -55.95 -21.1 -56.0 -20.0 -56.0 -20.0 -49.65 Q-20.0 -48.9 -19.5 -48.4 -18.95 -47.85 -17.8 -47.85 -16.7 -47.85 -16.15 -48.4 -15.65 -48.9 -15.65 -49.65 L-15.65 -56.0 -14.5 -56.0 -14.45 -55.9 -14.4 -55.9 -14.4 -49.6 Q-14.45 -48.45 -15.2 -47.7 -16.05 -46.8 -17.8 -46.8 -19.6 -46.8 -20.45 -47.7 -21.2 -48.45 -21.2 -49.6 L-21.2 -55.9 M-10.95 -56.35 L-10.75 -55.95 -10.7 -55.9 -10.65 -55.9 -10.65 -48.0 Q-5.75 -48.9 -3.55 -52.95 L-2.6 -52.0 Q-5.2 -47.6 -11.15 -46.6 L-11.9 -47.15 -11.9 -47.2 -11.9 -47.3 -11.95 -47.3 -11.85 -47.55 -11.85 -56.35 -10.95 -56.35 M-12.05 -43.1 L-12.0 -43.15 -11.95 -43.2 -11.0 -43.2 -11.0 -29.75 -11.95 -29.75 -12.0 -29.85 -12.05 -29.85 -12.05 -43.1 M-12.05 -27.95 L-12.0 -27.95 -11.95 -28.05 -11.0 -28.05 -11.0 -14.55 -11.95 -14.55 -12.0 -14.6 -12.05 -14.65 -12.05 -27.95 M-15.0 -11.65 L-14.9 -11.6 -14.85 -11.65 -14.8 -11.65 -14.3 -11.1 Q-16.75 -8.85 -16.75 -5.9 -16.75 -3.0 -14.3 -0.7 L-14.8 -0.2 -14.9 -0.2 -15.0 -0.2 Q-17.55 -2.7 -17.55 -5.9 -17.55 -9.2 -15.0 -11.65 M18.5 -0.2 L18.45 -0.2 18.35 -0.2 17.85 -0.7 Q20.25 -3.0 20.3 -5.9 20.25 -8.85 17.85 -11.1 L18.4 -11.65 18.45 -11.6 18.5 -11.65 Q21.1 -9.2 21.1 -5.9 21.05 -2.7 18.5 -0.2 M13.45 -14.65 L13.4 -14.65 13.35 -14.6 13.35 -14.55 12.4 -14.55 12.4 -28.05 13.4 -28.05 13.45 -28.0 13.45 -14.65 M14.5 -28.0 L14.6 -28.0 14.6 -28.1 28.0 -28.1 28.0 -28.05 28.05 -28.0 28.1 -28.0 28.1 -27.5 14.5 -27.5 14.5 -28.0 M29.3 -30.35 L29.3 -30.4 29.25 -30.45 29.2 -30.45 29.2 -31.25 31.65 -31.25 31.65 -41.35 29.2 -41.35 29.2 -42.2 32.4 -42.2 32.5 -42.1 32.5 -30.35 29.3 -30.35 M31.25 -45.05 L31.2 -45.05 31.15 -45.0 31.15 -44.95 29.7 -44.95 29.65 -45.0 29.6 -45.05 29.6 -50.85 23.65 -50.85 23.65 -52.5 31.25 -52.5 31.25 -45.05 M22.7 -50.85 L22.7 -49.6 Q22.65 -48.45 21.9 -47.7 21.05 -46.8 19.3 -46.8 17.45 -46.8 16.65 -47.7 15.85 -48.45 15.9 -49.6 L15.9 -55.9 15.95 -55.95 16.0 -56.0 17.1 -56.0 17.1 -49.65 Q17.05 -48.9 17.55 -48.4 18.15 -47.85 19.3 -47.85 20.4 -47.85 20.95 -48.4 21.45 -48.9 21.45 -49.65 L21.45 -56.0 22.55 -56.0 22.6 -56.0 22.65 -55.9 22.7 -55.9 22.7 -50.85 M21.05 -60.25 L21.0 -60.25 20.95 -60.2 20.95 -60.15 20.0 -60.15 20.0 -73.6 20.95 -73.6 21.0 -73.5 21.05 -73.5 21.05 -60.25 M22.8 -77.45 L22.75 -77.45 22.7 -77.4 22.7 -77.35 21.75 -77.35 21.75 -86.3 21.8 -86.35 21.85 -86.4 22.8 -86.4 22.8 -77.45 M16.2 -87.4 L16.2 -87.3 16.25 -87.3 16.85 -87.2 17.5 -86.85 20.0 -84.8 19.4 -84.45 16.8 -86.4 Q15.5 -87.05 14.05 -87.0 12.45 -87.05 11.1 -86.4 9.95 -85.85 8.65 -84.45 L8.1 -84.8 Q9.1 -86.05 10.6 -86.85 L10.6 -86.9 10.65 -86.85 10.7 -86.8 10.8 -86.8 11.45 -87.25 14.05 -87.75 16.2 -87.4 M17.65 -91.3 L17.6 -91.35 17.55 -91.3 17.05 -91.85 Q18.35 -93.3 18.9 -94.45 19.45 -95.75 19.5 -97.15 19.45 -98.85 18.9 -100.1 18.35 -101.15 17.05 -102.4 L17.5 -102.85 17.55 -102.85 17.6 -102.8 17.7 -102.85 Q19.0 -101.6 19.55 -100.45 20.25 -99.0 20.3 -97.15 20.25 -95.5 19.55 -94.05 18.95 -92.75 17.65 -91.3 M11.75 -108.5 L11.7 -108.45 11.65 -108.4 2.7 -108.4 2.7 -109.5 11.65 -109.5 11.7 -109.4 11.75 -109.4 11.75 -108.5 M11.75 -112.05 L11.7 -112.05 11.65 -111.95 2.7 -111.95 2.7 -113.05 11.65 -113.05 11.7 -112.95 11.75 -112.95 11.75 -112.05 M12.9 -99.95 L12.9 -101.6 14.15 -103.25 14.8 -103.25 13.7 -101.6 14.55 -101.6 14.55 -99.95 12.9 -99.95 M7.2 -97.4 L6.4 -98.25 -2.85 -97.9 Q-2.95 -97.45 -3.15 -97.7 L-3.4 -99.05 -1.15 -99.05 1.25 -103.3 2.4 -102.9 Q2.7 -102.6 2.2 -102.5 L-0.05 -99.05 5.6 -99.1 3.5 -100.9 4.3 -101.6 8.1 -98.3 7.2 -97.4 M13.7 -73.6 L13.7 -60.15 12.65 -60.15 12.65 -73.6 13.7 -73.6 M14.75 -61.3 L18.85 -61.3 18.85 -60.65 14.75 -60.65 14.75 -61.3 M3.25 -52.8 L-0.1 -49.9 -1.2 -51.0 Q0.25 -51.85 2.6 -54.0 3.1 -54.5 3.65 -54.5 4.35 -54.5 4.95 -54.0 8.95 -50.65 11.1 -49.6 L9.9 -48.4 4.4 -52.8 3.8 -53.05 Q3.45 -53.05 3.25 -52.8 M13.85 -58.25 L13.85 -44.95 12.8 -44.95 12.8 -58.4 13.75 -58.4 13.75 -58.35 13.85 -58.25 M13.45 -43.2 L13.45 -29.75 12.4 -29.75 12.4 -43.2 13.45 -43.2 M14.5 -43.25 L28.0 -43.25 28.0 -43.2 28.1 -43.15 28.1 -42.7 14.5 -42.7 14.5 -43.25 M15.05 -9.15 L6.35 -9.15 6.35 -10.3 15.05 -10.3 15.05 -9.15 M16.35 -1.95 L4.9 -1.95 4.9 -3.1 16.35 -3.1 16.35 -1.95 M-5.8 -99.95 L-7.45 -99.95 -7.45 -101.6 -6.2 -103.25 -5.6 -103.25 -6.65 -101.6 -5.8 -101.6 -5.8 -99.95 M5.15 -92.05 L-0.55 -92.05 -0.55 -91.35 -1.6 -91.35 -1.6 -96.7 6.2 -96.7 6.2 -91.45 5.15 -91.45 5.15 -92.05 M5.15 -95.65 L-0.55 -95.65 -0.55 -93.05 5.15 -93.05 5.15 -95.65 M0.05 -86.4 L2.8 -82.2 2.95 -82.2 5.6 -86.4 7.1 -86.4 3.45 -81.1 3.45 -77.35 2.2 -77.35 2.2 -81.1 -1.4 -86.4 0.05 -86.4 M1.45 -73.6 L1.45 -60.15 0.4 -60.15 0.4 -73.6 1.45 -73.6 M-3.45 -62.15 L-4.7 -62.15 -4.7 -63.3 -3.45 -63.3 -3.45 -62.15 M-3.45 -67.0 L-4.7 -67.0 -4.7 -68.2 -3.45 -68.2 -3.45 -67.0 M-18.95 -60.65 L-18.95 -61.3 -14.9 -61.3 -14.9 -60.65 -18.95 -60.65 M-12.8 -60.15 L-13.75 -60.15 -13.75 -73.6 -12.7 -73.6 -12.7 -60.25 -12.75 -60.25 -12.8 -60.2 -12.8 -60.15 M1.2 -43.2 L1.2 -29.75 0.2 -29.75 0.2 -43.2 1.2 -43.2 M1.2 -28.05 L1.2 -14.55 0.2 -14.55 0.2 -28.05 1.2 -28.05 M0.7 -11.7 Q3.35 -9.25 3.35 -5.9 3.35 -2.7 0.8 -0.2 L0.6 -0.2 0.1 -0.7 Q2.55 -3.0 2.55 -5.9 2.55 -8.85 0.1 -11.1 L0.7 -11.7 M-2.7 -9.15 L-11.4 -9.15 -11.4 -10.3 -2.7 -10.3 -2.7 -9.15 M-1.4 -1.95 L-12.85 -1.95 -12.85 -3.1 -1.4 -3.1 -1.4 -1.95" fill="#000000" fill-rule="evenodd" stroke="none"/>
  </g>
</svg>
