<svg xmlns:xlink="http://www.w3.org/1999/xlink" height="97.55px" width="50.85px" xmlns="http://www.w3.org/2000/svg">
  <g transform="matrix(1.0, 0.0, 0.0, 1.0, 22.5, 97.0)">
    <path d="M12.85 -88.8 L12.8 -88.85 12.2 -88.15 13.85 -86.9 14.05 -86.75 14.3 -86.5 15.0 -87.3 12.85 -88.8 M15.4 -87.8 L15.5 -87.45 15.55 -87.4 16.75 -82.8 16.8 -82.65 Q17.65 -78.25 17.7 -73.5 L17.65 -73.5 16.6 -73.65 16.6 -64.75 16.4 -64.6 17.45 -63.8 Q19.8 -65.65 21.1 -67.95 20.55 -65.2 19.6 -62.9 L19.5 -62.7 Q18.15 -59.65 16.05 -57.45 L16.05 -48.1 17.1 -48.1 17.1 -54.7 Q17.8 -54.55 18.9 -54.7 L19.15 -54.0 22.2 -55.35 25.0 -55.9 Q26.0 -55.8 26.55 -55.15 27.15 -54.45 27.15 -53.3 27.2 -51.65 26.3 -50.8 25.15 -49.5 22.0 -49.5 L22.25 -48.2 Q19.6 -48.25 18.15 -47.15 16.7 -46.15 16.35 -44.0 L16.35 -43.95 16.25 -43.95 15.15 -43.95 15.15 -30.05 16.25 -30.05 Q16.25 -28.65 17.5 -27.95 L17.5 -14.6 16.35 -14.6 16.35 -15.25 12.15 -15.25 12.15 -14.65 12.1 -14.65 -1.85 -14.65 -1.85 -14.05 9.95 -14.05 Q10.6 -11.95 10.75 -9.45 L9.5 -9.45 9.5 -3.2 Q9.5 -2.1 8.95 -1.55 8.45 -1.05 7.5 -1.05 6.65 -1.05 6.0 -1.6 5.35 -2.15 5.35 -3.9 L4.1 -3.9 Q1.9 -6.7 0.6 -9.85 L2.0 -11.1 0.05 -11.1 -2.05 -8.7 Q-3.05 -6.8 -4.95 -4.8 L-5.25 -4.5 Q-5.45 -2.7 -6.05 -1.8 -6.7 -0.75 -7.9 -0.7 -9.45 -0.65 -9.95 -1.15 -10.45 -1.7 -10.45 -3.05 L-10.45 -10.6 -11.55 -10.6 Q-11.35 -12.0 -11.5 -14.05 L-1.9 -14.05 -1.9 -14.65 -15.85 -14.65 -21.95 -15.5 -16.2 -25.85 -16.2 -26.25 Q-16.2 -28.2 -16.7 -30.05 L-15.6 -30.05 -15.6 -43.95 -16.7 -43.95 Q-16.55 -45.45 -17.6 -46.8 L-17.0 -47.4 Q-18.35 -48.9 -18.9 -50.1 -19.5 -51.4 -19.5 -52.85 -19.5 -54.6 -18.9 -55.9 L-18.05 -57.2 -17.0 -58.3 -17.6 -58.85 -18.35 -58.05 Q-19.15 -60.4 -19.45 -62.6 -21.6 -61.85 -22.05 -63.3 -20.8 -64.9 -20.6 -67.3 L-20.6 -67.55 -20.6 -73.2 Q-20.2 -73.4 -20.5 -73.5 L-20.05 -74.8 Q-18.85 -78.5 -18.05 -82.2 L-15.9 -87.8 -17.55 -87.8 Q-15.1 -94.25 -10.05 -96.1 -5.0 -98.0 -0.85 -95.9 3.25 -93.85 7.45 -94.65 11.65 -95.45 13.3 -89.45 L15.4 -87.8 M-9.55 -43.25 L-9.9 -42.4 Q-9.9 -41.9 -9.55 -41.5 -9.15 -41.15 -8.65 -41.15 -8.15 -41.15 -7.8 -41.5 -7.4 -41.9 -7.4 -42.4 -7.4 -42.9 -7.8 -43.25 -8.15 -43.65 -8.65 -43.65 -9.15 -43.65 -9.55 -43.25 M-8.65 -43.2 Q-8.3 -43.2 -8.05 -43.0 L-7.85 -42.4 -8.05 -41.8 Q-8.3 -41.55 -8.65 -41.55 -9.05 -41.55 -9.25 -41.8 L-9.5 -42.4 -9.25 -43.0 -8.65 -43.2 M-13.85 -57.45 L-14.9 -57.45 -14.9 -48.1 -13.85 -48.1 -13.85 -57.45 M-19.45 -62.6 Q-16.9 -64.65 -16.9 -68.4 L-16.9 -73.75 Q-16.4 -73.95 -16.95 -74.1 L-18.0 -74.25 -18.0 -68.6 Q-18.0 -67.75 -18.15 -67.0 -18.6 -64.9 -20.3 -63.7 L-19.45 -62.6 M-10.25 -75.1 L-12.2 -75.1 -14.3 -72.7 -13.0 -72.7 -10.25 -75.1 M-12.3 -87.8 L-13.95 -87.8 -15.65 -82.2 -14.45 -82.2 -12.3 -87.8 M-1.1 -89.85 L-2.4 -90.25 Q-2.7 -83.5 -8.15 -80.45 L-7.25 -79.35 Q-4.6 -80.95 -3.0 -83.65 -1.45 -86.1 -1.15 -89.15 L-1.1 -89.85 M9.0 -41.5 Q9.4 -41.9 9.4 -42.4 L9.0 -43.25 Q8.65 -43.65 8.15 -43.65 7.65 -43.65 7.25 -43.25 6.9 -42.9 6.9 -42.4 6.9 -41.9 7.25 -41.5 7.65 -41.15 8.15 -41.15 8.65 -41.15 9.0 -41.5 M8.95 -42.4 L8.75 -41.8 8.15 -41.55 Q7.75 -41.55 7.55 -41.8 L7.3 -42.4 7.55 -43.0 8.15 -43.2 8.75 -43.0 8.95 -42.4 M1.05 -52.7 L1.05 -53.3 -5.65 -53.3 -5.65 -60.0 -6.25 -60.0 -6.25 -53.3 -12.9 -53.3 -12.9 -52.7 1.05 -52.7 M1.1 -53.3 L1.1 -52.7 15.05 -52.7 15.05 -53.3 8.35 -53.3 8.35 -60.0 7.75 -60.0 7.75 -53.3 1.1 -53.3 M3.45 -68.45 L3.45 -69.45 -6.75 -69.45 -6.75 -68.45 3.45 -68.45 M15.45 -72.6 Q15.7 -72.7 15.7 -72.75 L15.4 -72.95 14.4 -73.1 14.4 -69.75 Q14.4 -66.55 12.65 -64.2 L13.7 -63.35 Q15.45 -66.15 15.45 -69.75 L15.45 -72.6 M10.75 -75.1 L8.8 -75.1 6.7 -72.7 8.0 -72.7 10.75 -75.1 M8.75 -88.05 L7.6 -87.0 Q11.8 -84.25 13.85 -81.25 L15.2 -82.4 Q14.2 -83.8 12.6 -85.2 L8.75 -88.05 M3.95 -91.1 L2.65 -91.1 0.65 -88.85 1.7 -88.85 3.3 -90.25 4.9 -88.85 5.9 -88.85 3.95 -91.1" fill="#ffffff" fill-rule="evenodd" stroke="none"/>
    <path d="M12.85 -88.8 L15.0 -87.3 14.3 -86.5 14.05 -86.75 13.85 -86.9 12.2 -88.15 12.8 -88.85 12.85 -88.8 M13.3 -89.45 L13.9 -90.2 16.1 -88.6 15.4 -87.8 13.3 -89.45 M17.7 -73.5 Q18.2 -73.4 17.7 -73.15 L17.7 -65.65 Q18.9 -66.75 20.35 -69.1 L21.1 -67.95 Q19.8 -65.65 17.45 -63.8 L16.4 -64.6 16.6 -64.75 16.6 -73.65 17.65 -73.5 17.7 -73.5 M16.05 -57.45 L17.1 -57.45 17.1 -54.7 17.1 -48.1 16.05 -48.1 16.05 -57.45 M18.9 -54.7 L18.65 -55.4 22.15 -56.6 24.85 -57.05 Q26.25 -57.05 27.2 -56.2 28.45 -55.1 28.35 -52.85 28.2 -50.55 26.6 -49.35 25.05 -48.2 22.25 -48.2 L22.0 -49.5 Q25.15 -49.5 26.3 -50.8 27.2 -51.65 27.15 -53.3 27.15 -54.45 26.55 -55.15 26.0 -55.8 25.0 -55.9 L22.2 -55.35 19.15 -54.0 18.9 -54.7 M16.25 -43.95 L16.25 -30.05 15.15 -30.05 15.15 -43.95 16.25 -43.95 M17.5 -27.95 L18.6 -27.95 18.6 -14.05 17.5 -14.05 17.5 -14.6 17.5 -27.95 M16.35 -14.6 L12.15 -14.6 12.15 -14.65 12.15 -15.25 16.35 -15.25 16.35 -14.6 M12.1 -14.65 L12.1 -14.05 9.95 -14.05 -1.85 -14.05 -1.85 -14.65 12.1 -14.65 M10.75 -9.45 L10.75 -3.2 Q10.75 -1.6 10.0 -0.8 L9.75 -0.55 Q8.85 0.1 7.5 0.1 6.15 0.1 5.35 -0.5 L5.1 -0.75 Q4.1 -1.75 4.1 -3.9 L5.35 -3.9 Q5.35 -2.15 6.0 -1.6 6.65 -1.05 7.5 -1.05 8.45 -1.05 8.95 -1.55 9.5 -2.1 9.5 -3.2 L9.5 -9.45 10.75 -9.45 M0.6 -9.85 L-0.75 -8.7 -2.05 -8.7 0.05 -11.1 2.0 -11.1 0.6 -9.85 M-5.25 -4.5 L-4.05 -3.95 Q-4.4 -1.75 -5.45 -0.6 -6.5 0.55 -8.35 0.55 -10.1 0.6 -10.8 -0.3 -11.35 -1.0 -11.5 -2.55 L-11.55 -3.05 -11.55 -10.6 -10.45 -10.6 -10.45 -3.05 Q-10.45 -1.7 -9.95 -1.15 -9.45 -0.65 -7.9 -0.7 -6.7 -0.75 -6.05 -1.8 -5.45 -2.7 -5.25 -4.5 M-11.5 -14.05 L-15.85 -14.05 -15.85 -14.65 -1.9 -14.65 -1.9 -14.05 -11.5 -14.05 M-21.95 -15.5 L-22.5 -15.85 -16.7 -26.2 -16.2 -25.85 -21.95 -15.5 M-16.7 -30.05 L-16.7 -43.95 -15.6 -43.95 -15.6 -30.05 -16.7 -30.05 M-17.6 -46.8 Q-18.95 -48.35 -19.6 -49.7 -20.35 -51.2 -20.35 -52.85 -20.35 -54.8 -19.6 -56.25 L-18.35 -58.05 -17.6 -58.85 -17.0 -58.3 -18.05 -57.2 -18.9 -55.9 Q-19.5 -54.6 -19.5 -52.85 -19.5 -51.4 -18.9 -50.1 -18.35 -48.9 -17.0 -47.4 L-17.6 -46.8 M-20.6 -67.55 L-21.7 -67.55 -21.7 -73.7 -20.65 -73.55 -20.5 -73.5 Q-20.2 -73.4 -20.6 -73.2 L-20.6 -67.55 M-18.05 -82.2 L-19.25 -82.2 -17.55 -87.8 -15.9 -87.8 -18.05 -82.2 M3.95 -91.1 L5.9 -88.85 4.9 -88.85 3.3 -90.25 1.7 -88.85 0.65 -88.85 2.65 -91.1 3.95 -91.1 M8.75 -88.05 L12.6 -85.2 Q14.2 -83.8 15.2 -82.4 L13.85 -81.25 Q11.8 -84.25 7.6 -87.0 L8.75 -88.05 M10.75 -75.1 L8.0 -72.7 6.7 -72.7 8.8 -75.1 10.75 -75.1 M15.45 -72.6 L15.45 -69.75 Q15.45 -66.15 13.7 -63.35 L12.65 -64.2 Q14.4 -66.55 14.4 -69.75 L14.4 -73.1 15.4 -72.95 15.7 -72.75 Q15.7 -72.7 15.45 -72.6 M3.45 -68.45 L-6.75 -68.45 -6.75 -69.45 3.45 -69.45 3.45 -68.45 M1.1 -53.3 L7.75 -53.3 7.75 -60.0 8.35 -60.0 8.35 -53.3 15.05 -53.3 15.05 -52.7 1.1 -52.7 1.1 -53.3 M1.05 -52.7 L-12.9 -52.7 -12.9 -53.3 -6.25 -53.3 -6.25 -60.0 -5.65 -60.0 -5.65 -53.3 1.05 -53.3 1.05 -52.7 M8.95 -42.4 L8.75 -43.0 8.15 -43.2 7.55 -43.0 7.3 -42.4 7.55 -41.8 Q7.75 -41.55 8.15 -41.55 L8.75 -41.8 8.95 -42.4 M9.0 -41.5 Q8.65 -41.15 8.15 -41.15 7.65 -41.15 7.25 -41.5 6.9 -41.9 6.9 -42.4 6.9 -42.9 7.25 -43.25 7.65 -43.65 8.15 -43.65 8.65 -43.65 9.0 -43.25 L9.4 -42.4 Q9.4 -41.9 9.0 -41.5 M-1.1 -89.85 L-1.15 -89.15 Q-1.45 -86.1 -3.0 -83.65 -4.6 -80.95 -7.25 -79.35 L-8.15 -80.45 Q-2.7 -83.5 -2.4 -90.25 L-1.1 -89.85 M-12.3 -87.8 L-14.45 -82.2 -15.65 -82.2 -13.95 -87.8 -12.3 -87.8 M-10.25 -75.1 L-13.0 -72.7 -14.3 -72.7 -12.2 -75.1 -10.25 -75.1 M-19.45 -62.6 L-20.3 -63.7 Q-18.6 -64.9 -18.15 -67.0 -18.0 -67.75 -18.0 -68.6 L-18.0 -74.25 -16.95 -74.1 Q-16.4 -73.95 -16.9 -73.75 L-16.9 -68.4 Q-16.9 -64.65 -19.45 -62.6 M-13.85 -57.45 L-13.85 -48.1 -14.9 -48.1 -14.9 -57.45 -13.85 -57.45 M-8.65 -43.2 L-9.25 -43.0 -9.5 -42.4 -9.25 -41.8 Q-9.05 -41.55 -8.65 -41.55 -8.3 -41.55 -8.05 -41.8 L-7.85 -42.4 -8.05 -43.0 Q-8.3 -43.2 -8.65 -43.2 M-9.55 -43.25 Q-9.15 -43.65 -8.65 -43.65 -8.15 -43.65 -7.8 -43.25 -7.4 -42.9 -7.4 -42.4 -7.4 -41.9 -7.8 -41.5 -8.15 -41.15 -8.65 -41.15 -9.15 -41.15 -9.55 -41.5 -9.9 -41.9 -9.9 -42.4 L-9.55 -43.25" fill="#000000" fill-rule="evenodd" stroke="none"/>
  </g>
</svg>
