<svg xmlns:xlink="http://www.w3.org/1999/xlink" height="132.1px" width="101.55px" xmlns="http://www.w3.org/2000/svg">
  <g transform="matrix(1.0, 0.0, 0.0, 1.0, 50.75, 66.05)">
    <path d="M25.1 -36.3 L13.95 -36.3 13.95 -36.75 25.1 -36.75 25.1 -36.3 M-31.05 -64.65 L-21.55 -56.7 -22.0 -56.1 -31.6 -64.1 -31.05 -64.65 M-41.0 -36.8 L-29.8 -36.8 -29.8 -36.35 -41.0 -36.35 -41.0 -36.8 M-18.55 -41.35 L-18.75 -40.85 -18.55 -40.4 -18.1 -40.2 Q-17.75 -40.2 -17.55 -40.4 L-17.4 -40.85 -17.55 -41.35 -18.1 -41.5 -18.55 -41.35 M-18.1 -41.9 Q-17.7 -41.9 -17.4 -41.55 -17.05 -41.25 -17.05 -40.85 -17.05 -40.5 -17.4 -40.15 -17.7 -39.85 -18.1 -39.85 -18.45 -39.85 -18.8 -40.15 L-19.05 -40.85 -18.8 -41.55 Q-18.45 -41.9 -18.1 -41.9 M-25.55 -31.55 L-26.1 -32.2 -27.2 -33.9 Q-27.75 -35.1 -27.75 -36.45 -27.75 -38.0 -27.2 -39.15 L-26.2 -40.6 -25.65 -41.15 -25.55 -41.25 -25.1 -40.75 Q-26.2 -39.8 -26.6 -38.85 -27.1 -37.85 -27.1 -36.45 -27.1 -35.3 -26.6 -34.25 L-25.1 -32.1 -25.55 -31.55 M-24.0 -44.25 L-24.15 -44.45 -14.55 -52.4 -14.1 -51.85 -23.65 -43.85 -24.0 -44.25 M-13.5 -53.35 L-13.5 -53.8 -2.35 -53.8 -2.35 -53.35 -2.5 -53.35 -13.5 -53.35 M-1.5 -52.05 L-1.2 -52.4 8.35 -44.45 7.85 -43.85 7.5 -44.15 -1.7 -51.85 -1.5 -52.05 M9.85 -41.05 L10.0 -41.25 11.65 -39.15 Q12.2 -38.0 12.2 -36.45 12.2 -35.1 11.65 -33.9 L10.0 -31.55 9.8 -31.8 9.55 -32.1 10.05 -32.7 11.1 -34.25 Q11.55 -35.3 11.55 -36.45 11.55 -37.85 11.1 -38.85 L10.35 -39.95 9.55 -40.75 9.85 -41.05 M7.95 -28.95 L8.35 -28.5 -1.2 -20.5 -1.7 -21.1 7.85 -29.05 7.95 -28.95 M-2.85 -19.75 L-2.35 -19.75 -2.35 -19.25 -13.5 -19.25 -13.5 -19.75 -2.85 -19.75 M-14.1 -21.1 L-14.5 -20.6 -14.55 -20.5 -24.15 -28.5 -23.7 -29.0 -23.65 -29.05 -14.1 -21.1 M15.75 -64.1 L6.25 -56.1 5.7 -56.7 15.3 -64.65 15.75 -64.1 M-7.65 -66.05 L-7.65 -54.9 -8.15 -54.9 -8.15 -66.05 -7.65 -66.05 M-7.75 -34.4 L-5.95 -37.55 -9.5 -37.55 -7.75 -34.4 M-9.95 -38.45 L-5.55 -38.45 -4.55 -40.25 -3.75 -39.8 -7.75 -32.45 -11.75 -39.8 -10.95 -40.25 -9.95 -38.45 M2.05 -41.35 Q1.85 -41.2 1.9 -40.85 1.85 -40.55 2.05 -40.4 2.25 -40.2 2.55 -40.2 L3.05 -40.4 3.2 -40.85 3.05 -41.35 2.55 -41.5 2.05 -41.35 M1.55 -40.85 Q1.55 -41.25 1.85 -41.55 2.15 -41.9 2.55 -41.9 L3.25 -41.55 3.55 -40.85 3.25 -40.15 Q2.95 -39.85 2.55 -39.85 2.15 -39.85 1.85 -40.15 1.55 -40.5 1.55 -40.85 M6.25 -16.5 L15.75 -8.55 15.3 -7.95 5.7 -15.95 6.25 -16.5 M-7.65 -17.9 L-7.65 -6.75 -8.15 -6.75 -8.15 -17.9 -7.65 -17.9 M0.55 3.25 L-0.25 3.25 -0.25 -0.9 -0.2 -1.65 Q-0.05 -2.7 0.6 -3.35 1.6 -4.35 2.9 -4.3 4.2 -4.35 5.2 -3.35 6.15 -2.45 6.15 -0.9 L6.15 3.25 5.3 3.25 5.3 -0.9 Q5.25 -2.05 4.55 -2.75 3.9 -3.45 2.9 -3.4 1.9 -3.45 1.3 -2.75 0.65 -2.2 0.55 -1.3 L0.55 -0.9 0.55 3.25 M15.35 8.75 L15.4 8.75 15.4 8.7 16.2 7.5 16.25 7.5 17.05 6.65 17.5 7.1 Q16.4 8.05 16.0 9.0 15.5 10.0 15.5 11.35 L15.5 11.45 Q15.45 12.35 15.8 13.15 L16.0 13.65 Q16.4 14.6 17.5 15.8 L17.05 16.3 Q15.95 15.05 15.4 13.95 L15.2 13.55 Q14.85 12.6 14.85 11.6 L14.85 11.45 Q14.8 9.9 15.35 8.75 M16.15 3.8 L16.05 3.75 15.7 3.65 19.75 -5.2 23.75 3.65 22.9 4.0 19.75 -3.0 16.55 4.0 16.15 3.8 M32.65 3.75 L32.4 3.65 36.4 -5.2 40.45 3.65 40.35 3.65 39.6 4.0 36.4 -3.0 33.25 4.0 32.65 3.75 M40.3 7.45 L41.2 8.75 41.7 10.6 41.75 10.75 41.75 11.45 Q41.75 12.8 41.2 13.95 L39.55 16.3 39.1 15.8 40.65 13.65 41.1 11.45 Q41.1 10.05 40.65 9.0 L39.1 7.1 39.55 6.65 40.3 7.45 M44.35 3.25 L44.35 -0.9 Q44.35 -2.45 45.25 -3.35 46.25 -4.35 47.55 -4.3 48.85 -4.35 49.85 -3.35 50.75 -2.45 50.8 -0.9 L50.8 3.25 49.95 3.25 49.95 2.6 49.95 -0.9 Q49.9 -2.05 49.2 -2.75 48.55 -3.45 47.55 -3.4 46.55 -3.45 45.9 -2.75 45.15 -2.05 45.15 -0.9 L45.15 3.25 44.35 3.25 M49.7 5.25 L50.4 5.25 50.4 16.45 49.9 16.45 49.55 16.45 49.55 5.25 49.7 5.25 M47.9 19.65 L43.4 27.7 42.95 27.45 43.2 27.0 47.6 19.15 47.9 19.3 47.9 19.65 M42.3 29.65 L43.1 29.65 43.1 40.85 42.25 40.85 42.25 40.75 42.25 29.65 42.3 29.65 M40.65 44.5 L40.8 44.5 40.8 52.35 37.55 52.35 37.55 51.5 39.95 51.5 39.95 44.5 40.65 44.5 M36.05 51.0 L35.6 51.6 26.1 43.65 26.0 43.6 26.5 43.05 36.05 51.0 M24.8 43.55 L24.85 43.6 15.3 51.6 14.95 51.2 14.8 51.0 24.35 43.05 24.8 43.55 M12.55 55.2 L12.75 55.0 13.25 55.55 3.7 63.55 3.5 63.35 3.2 62.95 12.55 55.2 M1.25 65.55 L1.6 65.55 1.6 66.05 -9.55 66.05 -9.55 65.55 -8.25 65.55 1.25 65.55 M-6.05 63.4 L-6.1 63.35 -1.5 55.05 -1.35 55.1 -1.05 55.3 -5.7 63.6 -6.05 63.4 M1.45 51.35 L6.1 43.1 6.5 43.3 1.9 51.65 1.45 51.35 M8.75 40.4 L8.75 29.65 9.5 29.65 9.6 29.65 9.6 40.85 8.75 40.85 8.75 40.4 M9.6 28.9 L8.9 28.9 8.9 17.7 9.4 17.7 9.75 17.7 9.75 28.9 9.6 28.9 M9.45 15.55 L0.05 7.7 0.45 7.3 0.6 7.15 10.1 15.1 9.65 15.7 9.45 15.55 M-7.8 15.25 L-7.85 15.25 -7.85 11.05 -7.85 10.95 Q-7.9 9.9 -8.6 9.2 -9.25 8.5 -10.25 8.55 -11.25 8.5 -11.85 9.2 -12.6 9.95 -12.6 11.05 L-12.6 15.25 -13.4 15.25 -13.4 15.2 -13.4 11.05 Q-13.4 9.5 -12.5 8.65 -11.55 7.65 -10.25 7.65 -8.95 7.65 -7.95 8.65 -7.0 9.5 -7.0 11.05 L-7.0 15.25 -7.8 15.25 M-17.45 15.65 L-18.15 15.95 -21.35 8.95 -24.55 15.95 -25.35 15.6 -25.25 15.3 -21.35 6.75 -17.35 15.6 -17.45 15.65 M-32.1 15.3 L-31.95 15.6 -32.8 15.95 -36.0 8.95 -39.15 15.95 -39.5 15.85 -40.0 15.6 -36.0 6.75 -32.1 15.3 M-41.75 18.8 L-41.5 19.05 -41.85 19.45 -42.75 20.5 -43.0 21.0 Q-43.5 22.0 -43.5 23.4 L-43.05 25.5 -43.0 25.6 -41.5 27.75 -41.95 28.25 -43.6 25.95 -44.05 24.55 -44.15 23.4 Q-44.2 21.85 -43.6 20.7 L-43.4 20.25 -42.35 18.95 -41.95 18.6 -41.75 18.8 M-44.9 15.25 L-44.9 11.05 Q-44.95 9.95 -45.65 9.2 -46.3 8.5 -47.3 8.55 -48.3 8.5 -48.95 9.2 -49.7 9.95 -49.7 11.05 L-49.7 15.25 -49.95 15.25 -50.45 15.25 -50.45 11.05 Q-50.5 9.5 -49.6 8.65 -48.6 7.65 -47.3 7.65 -46.0 7.65 -45.0 8.65 -44.1 9.5 -44.05 11.05 L-44.05 15.25 -44.9 15.25 M-50.15 20.0 L-44.9 27.9 -45.0 28.15 -45.15 28.5 -50.45 20.5 -50.2 19.95 -50.15 20.0 M-41.2 29.65 L-40.4 29.65 -40.4 40.85 -41.2 40.85 -41.2 39.45 -41.2 29.65 M-45.8 43.1 L-45.4 43.3 -50.05 51.65 -50.25 51.5 -50.45 51.35 -45.85 43.1 -45.8 43.1 M-50.25 53.6 L-39.6 53.6 -39.6 54.05 -50.75 54.05 -50.75 53.6 -50.25 53.6 M-36.7 51.5 L-37.15 51.0 -27.55 43.05 -27.25 43.4 -27.1 43.6 -36.65 51.6 -36.7 51.5 M-25.75 43.4 L-25.4 43.05 -15.9 51.0 -16.35 51.6 -25.95 43.6 -25.75 43.4 M-15.25 51.85 L-11.9 51.85 -11.9 52.35 -15.25 52.35 -15.25 51.85 M-10.9 52.35 L-10.95 52.35 -10.95 51.5 -8.6 51.5 -8.6 44.5 -8.55 44.5 -7.7 44.5 -7.7 52.35 -10.9 52.35 M-12.25 39.5 L-12.0 39.9 -12.75 40.35 -15.65 35.3 -12.75 30.25 -12.6 30.3 -12.0 30.6 -14.7 35.3 -12.25 39.5 M-11.1 27.7 L-11.5 27.45 -7.0 19.4 -6.85 19.15 -6.45 19.4 -11.05 27.7 -11.1 27.7 M22.65 7.45 L23.1 7.65 23.6 7.45 23.75 7.0 23.6 6.55 23.1 6.35 22.65 6.55 22.45 7.0 22.65 7.45 M22.4 6.3 Q22.75 5.95 23.1 5.95 23.5 5.95 23.8 6.3 L24.15 7.0 23.8 7.7 Q23.5 8.05 23.1 8.05 22.75 8.05 22.4 7.7 22.1 7.35 22.1 7.0 22.1 6.6 22.4 6.3 M-21.55 -15.95 L-31.05 -7.95 -31.6 -8.55 -22.0 -16.5 -21.55 -15.95 M-21.4 18.25 L-21.2 18.5 -21.05 18.95 Q-21.05 19.3 -21.4 19.65 -21.7 20.0 -22.1 20.0 -22.45 20.0 -22.8 19.65 L-23.1 18.95 -22.95 18.5 -22.8 18.25 Q-22.45 17.9 -22.1 17.95 -21.7 17.9 -21.4 18.25 M-22.55 18.5 L-22.75 18.95 -22.55 19.45 -22.1 19.6 -21.6 19.45 Q-21.45 19.3 -21.45 18.95 L-21.55 18.5 -21.6 18.5 Q-21.8 18.3 -22.1 18.3 -22.4 18.3 -22.55 18.5 M-25.8 19.55 L-24.95 20.05 -28.95 27.4 -33.0 20.05 -32.15 19.55 -31.15 21.4 -26.75 21.4 -25.8 19.55 M-34.85 18.95 Q-34.85 19.3 -35.2 19.65 L-35.25 19.75 -35.9 20.0 -36.2 19.95 -36.6 19.65 -36.85 18.95 -36.6 18.25 -35.9 17.95 Q-35.5 17.9 -35.2 18.25 -34.85 18.6 -34.85 18.95 M-36.55 18.95 L-36.35 19.45 -35.9 19.6 -35.35 19.45 -35.25 18.95 -35.35 18.5 -35.9 18.3 -36.35 18.5 -36.55 18.95 M-28.95 25.4 L-27.2 22.3 -30.7 22.3 -28.95 25.4 M-15.8 18.8 Q-14.85 19.75 -14.4 20.7 -13.85 21.85 -13.8 23.4 -13.85 24.75 -14.4 25.95 L-15.35 27.45 -16.0 28.25 -16.5 27.75 -15.7 26.8 -14.95 25.6 Q-14.5 24.55 -14.5 23.4 -14.5 22.0 -14.95 21.0 -15.4 20.05 -16.5 19.05 L-16.0 18.6 -15.8 18.8 M26.85 7.6 L27.8 9.45 32.2 9.45 33.2 7.6 34.05 8.05 30.0 15.4 26.0 8.05 26.85 7.6 M30.0 13.45 L31.8 10.3 28.3 10.3 30.0 13.45 M36.9 5.95 Q37.3 5.95 37.6 6.3 L37.9 7.0 37.6 7.7 Q37.3 8.05 36.9 8.05 36.5 8.05 36.2 7.7 35.9 7.35 35.9 7.0 35.9 6.6 36.2 6.3 36.5 5.95 36.9 5.95 M36.9 6.35 L36.4 6.55 Q36.2 6.65 36.25 7.0 36.2 7.3 36.4 7.45 L36.9 7.65 Q37.2 7.65 37.4 7.45 L37.55 7.0 37.4 6.55 36.9 6.35" fill="#000000" fill-rule="evenodd" stroke="none"/>
    <path d="M-18.1 -41.9 Q-18.45 -41.9 -18.8 -41.55 L-19.05 -40.85 -18.8 -40.15 Q-18.45 -39.85 -18.1 -39.85 -17.7 -39.85 -17.4 -40.15 -17.05 -40.5 -17.05 -40.85 -17.05 -41.25 -17.4 -41.55 -17.7 -41.9 -18.1 -41.9 M-18.55 -41.35 L-18.1 -41.5 -17.55 -41.35 -17.4 -40.85 -17.55 -40.4 Q-17.75 -40.2 -18.1 -40.2 L-18.55 -40.4 -18.75 -40.85 -18.55 -41.35 M-25.65 -41.15 L-24.0 -44.25 -23.65 -43.85 -14.1 -51.85 -14.55 -52.4 -13.5 -53.35 -2.5 -53.35 -1.5 -52.05 -1.7 -51.85 7.5 -44.15 9.8 -41.1 9.85 -41.05 9.55 -40.75 10.35 -39.95 11.1 -38.85 Q11.55 -37.85 11.55 -36.45 11.55 -35.3 11.1 -34.25 L10.05 -32.7 9.55 -32.1 9.8 -31.8 7.95 -28.95 7.85 -29.05 -1.7 -21.1 -2.85 -19.75 -13.5 -19.75 -14.1 -21.1 -23.65 -29.05 -23.7 -29.0 -25.55 -31.55 -25.1 -32.1 -26.6 -34.25 Q-27.1 -35.3 -27.1 -36.45 -27.1 -37.85 -26.6 -38.85 -26.2 -39.8 -25.1 -40.75 L-25.55 -41.25 -25.65 -41.15 M1.55 -40.85 Q1.55 -40.5 1.85 -40.15 2.15 -39.85 2.55 -39.85 2.95 -39.85 3.25 -40.15 L3.55 -40.85 3.25 -41.55 2.55 -41.9 Q2.15 -41.9 1.85 -41.55 1.55 -41.25 1.55 -40.85 M2.05 -41.35 L2.55 -41.5 3.05 -41.35 3.2 -40.85 3.05 -40.4 2.55 -40.2 Q2.25 -40.2 2.05 -40.4 1.85 -40.55 1.9 -40.85 1.85 -41.2 2.05 -41.35 M-9.95 -38.45 L-10.95 -40.25 -11.75 -39.8 -7.75 -32.45 -3.75 -39.8 -4.55 -40.25 -5.55 -38.45 -9.95 -38.45 M-7.75 -34.4 L-9.5 -37.55 -5.95 -37.55 -7.75 -34.4 M6.15 3.25 L6.4 2.95 12.8 8.25 15.35 8.75 Q14.8 9.9 14.85 11.45 L14.85 11.6 Q14.85 12.6 15.2 13.55 L15.4 13.95 Q15.95 15.05 17.05 16.3 L17.5 15.8 Q16.4 14.6 16.0 13.65 L15.8 13.15 Q15.45 12.35 15.5 11.45 L15.5 11.35 Q15.5 10.0 16.0 9.0 16.4 8.05 17.5 7.1 L17.05 6.65 16.25 7.5 15.85 7.1 16.15 3.8 16.55 4.0 19.75 -3.0 22.9 4.0 23.75 3.65 23.75 3.45 32.65 3.75 33.25 4.0 36.4 -3.0 39.6 4.0 40.35 4.0 40.3 7.45 39.55 6.65 39.1 7.1 40.65 9.0 Q41.1 10.05 41.1 11.45 L40.65 13.65 39.1 15.8 39.55 16.3 41.2 13.95 Q41.75 12.8 41.75 11.45 L41.75 10.75 41.7 10.6 44.55 8.25 44.35 3.25 45.15 3.25 45.15 -0.9 Q45.15 -2.05 45.9 -2.75 46.55 -3.45 47.55 -3.4 48.55 -3.45 49.2 -2.75 49.9 -2.05 49.95 -0.9 L49.95 2.6 49.7 5.25 49.55 5.25 49.55 16.45 49.9 16.45 47.9 19.65 47.9 19.3 47.6 19.15 43.2 27.0 42.8 27.4 42.3 29.65 42.25 29.65 42.25 40.75 42.25 40.8 40.65 44.4 40.65 44.5 39.95 44.5 39.95 51.5 37.55 51.5 36.05 51.0 26.5 43.05 26.0 43.6 26.1 43.65 24.85 43.55 24.8 43.55 24.35 43.05 14.8 51.0 14.95 51.2 12.55 55.2 3.2 62.95 3.5 63.35 1.25 65.55 -8.25 65.55 -6.05 63.4 -5.7 63.6 -1.05 55.3 -1.35 55.1 1.4 51.3 1.45 51.35 1.9 51.65 6.5 43.3 6.1 43.1 5.85 42.8 8.75 40.4 8.75 40.85 9.6 40.85 9.6 29.65 9.5 29.65 9.6 28.9 9.75 28.9 9.75 17.7 9.4 17.7 9.45 15.55 9.65 15.7 10.1 15.1 0.6 7.15 0.45 7.3 0.55 3.25 0.55 -0.9 0.55 -1.3 Q0.65 -2.2 1.3 -2.75 1.9 -3.45 2.9 -3.4 3.9 -3.45 4.55 -2.75 5.25 -2.05 5.3 -0.9 L5.3 3.25 6.15 3.25 M-13.4 15.2 L-13.4 15.25 -12.6 15.25 -12.6 11.05 Q-12.6 9.95 -11.85 9.2 -11.25 8.5 -10.25 8.55 -9.25 8.5 -8.6 9.2 -7.9 9.9 -7.85 10.95 L-7.85 11.05 -7.85 15.25 -7.8 15.25 -7.0 19.4 -11.5 27.45 -11.1 27.7 -12.6 30.3 -12.75 30.25 -15.65 35.3 -12.75 40.35 -12.0 39.9 -12.25 39.5 -8.55 44.5 -8.6 44.5 -8.6 51.5 -10.95 51.5 -10.95 52.35 -10.9 52.35 -10.95 52.35 -11.85 52.6 -11.9 52.35 -11.9 51.85 -15.25 51.85 -15.9 51.0 -25.4 43.05 -25.75 43.4 -27.25 43.4 -27.55 43.05 -37.15 51.0 -36.7 51.5 -39.0 53.55 -39.6 53.6 -50.25 53.6 -50.25 51.5 -50.05 51.65 -45.4 43.3 -45.8 43.1 -41.2 39.45 -41.2 40.85 -40.4 40.85 -40.4 29.65 -41.2 29.65 -42.35 30.8 -45.0 28.15 -44.9 27.9 -50.15 20.0 -49.95 15.25 -49.7 15.25 -49.7 11.05 Q-49.7 9.95 -48.95 9.2 -48.3 8.5 -47.3 8.55 -46.3 8.5 -45.65 9.2 -44.95 9.95 -44.9 11.05 L-44.9 15.25 -45.0 15.3 -42.35 18.95 -43.4 20.25 -43.6 20.7 Q-44.2 21.85 -44.15 23.4 L-44.05 24.55 -43.6 25.95 -41.95 28.25 -41.5 27.75 -43.0 25.6 -43.05 25.5 -43.5 23.4 Q-43.5 22.0 -43.0 21.0 L-42.75 20.5 -41.85 19.45 -41.5 19.05 -41.75 18.8 -41.75 18.75 -39.5 15.85 -39.15 15.95 -36.0 8.95 -32.8 15.95 -31.95 15.6 -32.1 15.3 -25.25 15.3 -25.35 15.6 -24.55 15.95 -21.35 8.95 -18.15 15.95 -17.45 15.65 -15.65 18.6 -13.4 15.2 M22.4 6.3 Q22.1 6.6 22.1 7.0 22.1 7.35 22.4 7.7 22.75 8.05 23.1 8.05 23.5 8.05 23.8 7.7 L24.15 7.0 23.8 6.3 Q23.5 5.95 23.1 5.95 22.75 5.95 22.4 6.3 M22.65 7.45 L22.45 7.0 22.65 6.55 23.1 6.35 23.6 6.55 23.75 7.0 23.6 7.45 23.1 7.65 22.65 7.45 M-28.95 25.4 L-30.7 22.3 -27.2 22.3 -28.95 25.4 M-36.55 18.95 L-36.35 18.5 -35.9 18.3 -35.35 18.5 -35.25 18.95 -35.35 19.45 -35.9 19.6 -36.35 19.45 -36.55 18.95 M-34.85 18.95 Q-34.85 18.6 -35.2 18.25 -35.5 17.9 -35.9 17.95 L-36.6 18.25 -36.85 18.95 -36.6 19.65 -36.2 19.95 -35.9 20.0 -35.25 19.75 -35.2 19.65 Q-34.85 19.3 -34.85 18.95 M-25.8 19.55 L-26.75 21.4 -31.15 21.4 -32.15 19.55 -33.0 20.05 -28.95 27.4 -24.95 20.05 -25.8 19.55 M-22.55 18.5 Q-22.4 18.3 -22.1 18.3 -21.8 18.3 -21.6 18.5 L-21.55 18.5 -21.45 18.95 Q-21.45 19.3 -21.6 19.45 L-22.1 19.6 -22.55 19.45 -22.75 18.95 -22.55 18.5 M-21.4 18.25 Q-21.7 17.9 -22.1 17.95 -22.45 17.9 -22.8 18.25 L-22.95 18.5 -23.1 18.95 -22.8 19.65 Q-22.45 20.0 -22.1 20.0 -21.7 20.0 -21.4 19.65 -21.05 19.3 -21.05 18.95 L-21.2 18.5 -21.4 18.25 M-15.8 18.8 L-16.0 18.6 -16.5 19.05 Q-15.4 20.05 -14.95 21.0 -14.5 22.0 -14.5 23.4 -14.5 24.55 -14.95 25.6 L-15.7 26.8 -16.5 27.75 -16.0 28.25 -15.35 27.45 -14.4 25.95 Q-13.85 24.75 -13.8 23.4 -13.85 21.85 -14.4 20.7 -14.85 19.75 -15.8 18.8 M36.9 6.35 L37.4 6.55 37.55 7.0 37.4 7.45 Q37.2 7.65 36.9 7.65 L36.4 7.45 Q36.2 7.3 36.25 7.0 36.2 6.65 36.4 6.55 L36.9 6.35 M36.9 5.95 Q36.5 5.95 36.2 6.3 35.9 6.6 35.9 7.0 35.9 7.35 36.2 7.7 36.5 8.05 36.9 8.05 37.3 8.05 37.6 7.7 L37.9 7.0 37.6 6.3 Q37.3 5.95 36.9 5.95 M30.0 13.45 L28.3 10.3 31.8 10.3 30.0 13.45 M26.85 7.6 L26.0 8.05 30.0 15.4 34.05 8.05 33.2 7.6 32.2 9.45 27.8 9.45 26.85 7.6" fill="#ffffff" fill-rule="evenodd" stroke="none"/>
  </g>
</svg>
