<?xml version="1.0" encoding="UTF-8" standalone="no"?>
<svg xmlns:xlink="http://www.w3.org/1999/xlink" height="38.15px" width="39.5px" xmlns="http://www.w3.org/2000/svg">
  <g transform="matrix(1.0, 0.0, 0.0, 1.0, 19.75, 19.05)">
    <path d="M6.8 -16.9 L7.4 -17.2 6.8 -16.9 M-11.7 -15.75 Q-8.75 -19.25 -4.95 -16.55 -2.1 -20.15 1.35 -16.7 4.35 -20.1 7.4 -17.2 13.65 -20.0 9.5 -11.45 10.8 -11.5 12.7 -10.4 14.3 -9.5 15.8 -7.95 L16.3 -7.4 16.7 -6.95 Q18.15 -5.0 19.05 -1.5 20.0 2.45 16.75 10.2 13.4 17.95 5.0 18.5 -3.45 19.0 -8.15 17.15 -12.9 15.25 -15.8 10.6 -18.75 5.95 -19.2 0.25 -19.45 -2.55 -17.75 -5.35 L-16.7 -6.9 Q-15.05 -9.0 -12.65 -10.85 L-12.8 -11.05 -13.25 -11.55 Q-15.2 -13.6 -16.4 -16.45 -13.9 -18.3 -11.65 -15.85 L-11.7 -15.75 M-16.7 -6.9 L-11.4 -7.45 -8.9 -7.25 0.75 -6.85 10.7 -7.2 15.8 -7.95 10.7 -7.2 0.75 -6.85 -8.9 -7.25 -11.4 -7.45 -16.7 -6.9" fill="#ffffff" fill-rule="evenodd" stroke="none"/>
    <path d="M7.4 -17.2 L6.8 -16.9 M-11.7 -15.75 Q-8.75 -19.25 -4.95 -16.55 -2.1 -20.15 1.35 -16.7 4.35 -20.1 7.4 -17.2 13.65 -20.0 9.5 -11.45 10.8 -11.5 12.7 -10.4 14.3 -9.5 15.8 -7.95 L16.3 -7.4 16.7 -6.95 Q18.15 -5.0 19.05 -1.5 20.0 2.45 16.75 10.2 13.4 17.95 5.0 18.5 -3.45 19.0 -8.15 17.15 -12.9 15.25 -15.8 10.6 -18.75 5.95 -19.2 0.25 -19.45 -2.55 -17.75 -5.35 L-16.7 -6.9 Q-15.05 -9.0 -12.65 -10.85 M-12.8 -11.05 L-13.25 -11.55 Q-15.2 -13.6 -16.4 -16.45 -13.9 -18.3 -11.65 -15.85" fill="none" stroke="#8f7c3f" stroke-linecap="round" stroke-linejoin="round" stroke-width="1.0"/>
    <path d="M15.8 -7.95 L10.7 -7.2 0.75 -6.85 -8.9 -7.25 -11.4 -7.45 -16.7 -6.9" fill="none" stroke="#8f7c3f" stroke-linecap="round" stroke-linejoin="round" stroke-width="0.75"/>
    <path d="M-0.75 14.2 Q0.25 13.25 1.5 14.05 L1.4 15.7 M3.5 15.45 Q6.0 15.85 4.7 17.6 3.4 17.6 2.75 16.7 M3.25 15.2 Q2.8 15.35 2.45 15.95 M-1.9 15.1 Q-3.05 17.25 -3.75 16.45 -6.05 13.85 -1.9 15.1 M-7.1 13.95 Q-5.35 15.35 -5.0 16.2 L-6.75 15.95 Q-10.4 15.05 -7.1 13.95 M0.25 17.45 Q-4.8 16.1 -0.7 15.9 1.05 15.85 0.25 17.45 M0.75 15.45 Q-0.05 15.2 -0.7 14.6" fill="none" stroke="#8f7c3f" stroke-linecap="round" stroke-linejoin="round" stroke-width="0.5"/>
    <path d="M11.0 4.85 L12.85 0.75 13.55 -0.75 Q14.2 0.3 14.45 1.5 15.35 0.7 16.95 1.15 17.05 2.25 16.4 3.8 15.45 8.25 13.0 12.6 L12.75 13.0 Q11.55 14.8 9.55 15.55 10.85 14.45 11.65 12.3 L11.75 12.15 11.85 11.75 Q12.65 9.6 13.55 7.6 15.0 4.4 14.5 1.75 L14.45 1.5 14.5 1.75 Q15.0 4.4 13.55 7.6 12.65 9.6 11.85 11.75 L11.75 12.15 11.65 12.3 Q10.85 14.45 9.55 15.55 L9.4 15.6 8.35 15.9 8.1 15.95 7.9 15.3 9.4 14.05 Q10.45 13.0 11.0 11.75 11.85 9.7 11.4 7.1 11.25 6.1 11.4 5.05 L11.0 4.85" fill="#e2d5c0" fill-rule="evenodd" stroke="none"/>
    <path d="M11.0 4.85 L12.85 0.75 13.55 -0.75 Q14.2 0.3 14.45 1.5 15.35 0.7 16.95 1.15 17.05 2.25 16.4 3.8 15.45 8.25 13.0 12.6 L12.75 13.0 Q11.55 14.8 9.55 15.55 L9.4 15.65 8.35 15.9 8.1 15.95 7.5 16.05 M11.4 5.05 Q11.25 6.1 11.4 7.1 11.85 9.7 11.0 11.75 10.45 13.0 9.4 14.05 L7.9 15.3 M14.45 1.5 L14.5 1.75 Q15.0 4.4 13.55 7.6 12.65 9.6 11.85 11.75 L11.75 12.15 11.65 12.3 Q10.85 14.45 9.55 15.55 L9.4 15.6 8.35 15.9" fill="none" stroke="#8f7c3f" stroke-linecap="round" stroke-linejoin="round" stroke-width="0.5"/>
    <path d="M6.3 1.85 Q8.7 -2.5 10.7 -1.65 10.6 0.7 11.1 1.0 L11.05 3.6 Q11.15 6.2 12.05 7.9 L6.25 3.1 4.75 5.35 0.45 5.0 1.8 7.4 -1.95 8.3 -1.25 3.85 Q-1.15 3.1 -1.35 2.5 -1.65 1.7 -2.45 1.05 -3.75 0.0 -6.4 -0.55 L-5.6 -0.8 -3.65 -1.2 Q1.85 -2.0 5.95 2.25 L6.05 2.35 5.8 2.75 6.25 3.1 6.4 2.75 6.05 2.35 6.3 1.85 M-0.85 6.05 L-0.75 4.85 Q-0.75 3.45 -1.35 2.5 -0.75 3.45 -0.75 4.85 L-0.85 6.05 M11.1 1.0 L9.65 1.75 8.75 2.05 9.65 1.75 11.1 1.0 M10.2 3.5 L9.65 3.65 10.2 3.5" fill="#ff6600" fill-rule="evenodd" stroke="none"/>
    <path d="M-1.95 8.3 Q-4.1 8.6 -6.25 8.35 L-8.4 8.0 Q-9.55 7.7 -9.85 6.6 L-10.0 5.35 -10.05 4.65 -10.05 4.25 Q-9.9 0.8 -6.4 -0.55 -3.75 0.0 -2.45 1.05 -1.65 1.7 -1.35 2.5 -1.15 3.1 -1.25 3.85 L-1.95 8.3 M-3.7 3.95 Q-4.35 5.85 -5.15 6.0 -5.95 6.2 -6.95 4.7 -7.75 5.8 -8.25 5.4 L-9.0 4.45 -8.25 5.4 Q-7.75 5.8 -6.95 4.7 -5.95 6.2 -5.15 6.0 -4.35 5.85 -3.7 3.95 M-7.8 3.0 L-7.75 2.6 -7.8 3.0 M-5.5 3.05 L-5.45 2.6 -5.5 3.05" fill="#ffcc99" fill-rule="evenodd" stroke="none"/>
    <path d="M-5.6 -0.8 L-2.9 -3.15 Q-1.25 -4.45 0.4 -3.65 L0.85 -3.2 Q1.35 -2.4 2.85 -2.55 3.8 -2.65 3.85 -1.5 6.25 -1.1 6.2 1.1 L6.3 1.85 5.95 2.25 Q1.85 -2.0 -3.65 -1.2 L-5.6 -0.8 M4.75 5.35 Q6.3 5.8 7.5 6.8 3.85 6.3 2.5 10.85 2.4 8.95 1.8 7.4 L0.45 5.0 4.75 5.35" fill="#fe9156" fill-rule="evenodd" stroke="none"/>
    <path d="M-1.35 2.5 Q-0.75 3.45 -0.75 4.85 L-0.85 6.05 M-2.45 1.05 Q-1.65 1.7 -1.35 2.5" fill="none" stroke="#8f7c3f" stroke-linecap="round" stroke-linejoin="round" stroke-width="0.75"/>
    <path d="M6.3 1.85 Q8.7 -2.5 10.7 -1.65 10.6 0.7 11.1 1.0 L11.05 3.6 Q11.15 6.2 12.05 7.9 L6.25 3.1 4.75 5.35 Q6.3 5.8 7.5 6.8 3.85 6.3 2.5 10.85 2.4 8.95 1.8 7.4 L-1.95 8.3 Q-4.1 8.6 -6.25 8.35 L-8.4 8.0 Q-9.55 7.7 -9.85 6.6 L-10.0 5.35 -10.05 4.65 -10.05 4.25 Q-9.9 0.8 -6.4 -0.55 L-5.6 -0.8 -3.65 -1.2 Q1.85 -2.0 5.95 2.25 L6.05 2.35 6.4 2.75 6.25 3.1 5.8 2.75 6.05 2.35 6.3 1.85 M-13.8 -5.35 Q-13.15 -3.65 -14.3 -3.4 -17.05 -5.5 -13.8 -5.35 M-9.0 4.45 L-8.25 5.4 Q-7.75 5.8 -6.95 4.7 -5.95 6.2 -5.15 6.0 -4.35 5.85 -3.7 3.95 M8.75 2.05 L9.65 1.75 11.1 1.0 M4.75 5.35 L0.45 5.0 1.8 7.4 M9.65 3.65 L10.2 3.5 M-12.85 -1.7 Q-12.05 -0.5 -13.15 0.4 -14.85 0.05 -13.15 -1.7" fill="none" stroke="#8f7c3f" stroke-linecap="round" stroke-linejoin="round" stroke-width="0.5"/>
    <path d="M-5.6 -0.8 L-2.9 -3.15 Q-1.25 -4.45 0.4 -3.65 L0.85 -3.2 Q1.35 -2.4 2.85 -2.55 3.8 -2.65 3.85 -1.5 6.25 -1.1 6.2 1.1 L6.3 1.85" fill="none" stroke="#8f7c3f" stroke-linecap="round" stroke-linejoin="round" stroke-width="0.5"/>
    <path d="M-5.45 2.6 L-5.5 3.05 M-7.75 2.6 L-7.8 3.0" fill="none" stroke="#8f7c3f" stroke-linecap="round" stroke-linejoin="round" stroke-width="1.5"/>
  </g>
</svg>
