<?xml version="1.0" encoding="UTF-8" standalone="no"?>
<!DOCTYPE svg PUBLIC "-//W3C//DTD SVG 1.1//EN" "http://www.w3.org/Graphics/SVG/1.1/DTD/svg11.dtd">
<svg width="92px" height="51px" version="1.1" xmlns="http://www.w3.org/2000/svg" xmlns:xlink="http://www.w3.org/1999/xlink" xml:space="preserve" xmlns:serif="http://www.serif.com/" style="fill-rule:evenodd;clip-rule:evenodd;stroke-linejoin:round;stroke-miterlimit:2;">
    <path d="M84.468,41.949C84.426,41.84 84.321,41.768 84.204,41.769C84.087,41.77 83.983,41.843 83.942,41.953C83.213,43.896 79.461,49.589 79.461,49.589C75.815,47.623 73.096,44.905 64.539,50.669C62.291,48.8 56.72,44.567 50.264,49.461C49.96,49.692 48.1,40.968 48.1,40.968C48.1,40.968 48.059,41.202 47.479,41.645C46.709,42.233 45.463,42.457 44.409,42.639L37.801,45.1C37.801,45.1 37.56,45.144 37.231,45.204C36.096,45.411 33.862,44.36 33.22,43.402C30.991,40.291 28.125,35.09 24.441,34.46C23.156,34.239 21.845,33.492 20.655,32.486C20.181,32.086 14.03,27.477 9.943,26.788C9.943,26.788 7.736,26.437 5.567,26.437C3.725,26.437 2.231,25.063 2.231,23.369L2.231,23.368C2.231,21.57 3.816,20.113 5.772,20.113C5.772,20.113 8.833,20.075 10.068,19.83C11.157,19.613 13.181,18.64 13.181,18.64C14.222,17.769 16.275,16.64 17.315,16.824C15.827,14.29 15.502,10.616 15.83,7.027C15.997,5.193 17.933,3.777 19.627,3.777L19.628,3.777C21.426,3.777 22.884,5.362 22.884,7.318C22.884,7.318 22.852,10.114 22.83,12.171C22.825,12.609 23.041,13.019 23.403,13.264C23.766,13.509 24.227,13.556 24.631,13.389C25.561,13 26.803,12.756 28.237,12.948C28.901,13.037 31.1,14.067 31.754,13.266C33.009,11.729 41.072,3.813 41.072,3.813L43.633,3.797C44.355,2.798 51.62,-0.119 57.082,3.998C57.082,3.998 62.431,7.1 64.044,9.032C67.207,12.863 71.059,18.278 70.445,17.971C72.817,21.393 72.98,24.411 70.475,27.833C68.731,29.584 64.534,32.406 64.534,32.406C64.534,32.406 67.859,34.22 68.331,35.137C79.23,28.532 83.406,35.003 85.554,37.53C85.607,37.592 85.55,37.693 85.613,37.745C85.676,37.797 85.765,37.804 85.835,37.762C86.307,37.488 86.479,37.371 87.062,37.371C88.859,37.371 89.826,38.689 89.826,40.498C89.826,42.307 89.01,43.663 87.213,43.663C85.89,43.663 84.976,43.092 84.468,41.949Z" style="fill:white;" />
    <path d="M66.126,49.4L66.808,50C68.589,48.333 70.617,47.5 72.891,47.5C75.164,47.5 77.211,48.333 79.03,50L79.712,49.4C77.742,47.6 75.468,46.7 72.891,46.7C70.427,46.7 68.229,47.55 66.296,49.25L66.126,49.4ZM50.03,49.4L50.712,50C52.493,48.333 54.521,47.5 56.795,47.5C59.068,47.5 61.115,48.333 62.934,50L63.616,49.4C61.646,47.6 59.372,46.7 56.795,46.7C54.331,46.7 52.133,47.55 50.2,49.25L50.03,49.4ZM35.042,44.646L38.103,44.646L38.103,45.396L35.042,45.396L35.042,44.646ZM64.497,44.518L63.826,44.235L68.079,34.416L68.692,34.68L68.26,35.715L64.497,44.518ZM89.196,37.946C89.523,38.346 89.723,38.818 89.795,39.363L88.488,39.363C88.452,39.036 88.288,38.727 87.998,38.436L86.908,38.109L85.709,38.6C85.237,39.072 85.001,39.726 85.001,40.561C85.001,41.36 85.219,41.978 85.655,42.414C85.982,42.704 86.381,42.849 86.853,42.849C87.398,42.849 87.834,42.704 88.161,42.414C88.488,42.087 88.651,41.669 88.651,41.16L89.959,41.16C89.923,41.996 89.65,42.668 89.142,43.176C88.597,43.685 87.834,43.939 86.853,43.939L86.744,43.939C85.945,43.903 85.292,43.63 84.783,43.122C84.057,42.395 83.694,41.524 83.694,40.507C83.694,39.417 84.02,38.563 84.674,37.946C85.255,37.329 85.982,37.02 86.853,37.02C87.798,37.02 88.506,37.256 88.978,37.728L89.196,37.946ZM43.021,42.405C45.019,42.376 46.322,42.043 46.93,41.406C47.278,41.058 47.451,40.551 47.451,39.885C47.451,39.364 47.234,38.872 46.8,38.409C46.539,38.177 46.105,38.061 45.497,38.061L43.368,38.409L40.719,39.408L40.241,38.409L43.021,37.583L45.627,37.149C46.438,37.149 47.104,37.395 47.625,37.887C48.146,38.438 48.407,39.104 48.407,39.885C48.407,40.841 48.175,41.565 47.712,42.057C46.843,42.897 45.395,43.346 43.368,43.404L43.021,42.405ZM30.718,40.602C30.042,39.396 29.115,38.189 27.937,36.979L25.909,35.137L26.479,34.745L27.013,34.35C28.473,35.515 29.672,36.651 30.609,37.758L31.979,39.756L30.718,40.602ZM69.84,34.307L70.522,34.907C72.303,33.24 74.331,32.407 76.605,32.407C78.878,32.407 80.925,33.24 82.744,34.907L83.426,34.307C81.456,32.507 79.182,31.607 76.605,31.607C74.141,31.607 71.943,32.457 70.01,34.157L69.84,34.307ZM50.03,34.307L50.712,34.907C52.493,33.24 54.521,32.407 56.795,32.407C59.068,32.407 61.115,33.24 62.934,34.907L63.616,34.307C61.646,32.507 59.372,31.607 56.795,31.607C54.331,31.607 52.133,32.457 50.2,34.157L50.03,34.307ZM20.863,31.64L22.786,33.967L21.605,33.967L18.941,31.64L20.863,31.64ZM59.846,23.572L59.4,21.908L58.426,22.152L58.791,23.532L58.872,24.952L58.872,25.439C58.791,26.494 58.521,27.252 58.061,27.712C57.763,28.036 57.398,28.198 56.965,28.198C56.559,28.198 56.234,28.077 55.991,27.833C55.748,27.59 55.626,27.306 55.626,26.981L56.072,26.007L56.356,24.952L56.356,24.546C56.356,23.816 56.221,23.451 55.95,23.451C55.707,23.451 55.464,23.694 55.219,24.181L55.017,24.668L54.773,25.561C54.692,26.102 54.692,26.521 54.773,26.819L54.124,27.793C53.8,28.091 53.421,28.239 52.988,28.239C52.69,28.239 52.433,28.131 52.217,27.914C52.027,27.725 51.933,27.278 51.933,26.575C51.933,25.818 52.15,25.034 52.582,24.221L53.15,23.329L53.921,22.355L53.028,21.908L52.014,23.288L51.649,23.978C51.216,24.844 50.999,25.709 50.999,26.575C50.999,27.523 51.189,28.172 51.568,28.523C51.73,28.686 51.905,28.808 52.095,28.889L52.379,29.011L52.988,29.092C53.61,29.092 54.124,28.889 54.53,28.482L55.017,27.833C55.098,28.077 55.274,28.334 55.545,28.604C55.869,28.929 56.356,29.092 57.005,29.092C57.736,29.092 58.345,28.861 58.831,28.401C59.454,27.752 59.82,26.832 59.928,25.642L60.091,27.072L59.846,23.572ZM69.997,28.97L69.397,28.37C71.063,26.804 71.897,25.02 71.897,23.02C71.897,21.02 71.063,19.22 69.397,17.62L69.997,17.02C71.797,18.754 72.697,20.754 72.697,23.02C72.697,25.187 71.847,27.12 70.147,28.82L69.997,28.97ZM31.379,28.97L31.979,28.37C30.313,26.804 29.479,25.02 29.479,23.02C29.479,21.02 30.313,19.22 31.979,17.62L31.379,17.02C29.579,18.754 28.679,20.754 28.679,23.02C28.679,25.187 29.529,27.12 31.229,28.82L31.379,28.97ZM5.133,26.21C4.205,26.21 3.446,25.914 2.856,25.324C2.321,24.79 2.054,24.143 2.054,23.384C2.054,22.597 2.321,21.936 2.856,21.402C3.446,20.812 4.205,20.516 5.133,20.516L10.109,20.516L10.109,19.504L5.133,19.504C3.896,19.504 2.911,19.884 2.181,20.643C1.393,21.402 1,22.315 1,23.384C1,24.424 1.393,25.338 2.181,26.125C2.911,26.856 3.896,27.222 5.133,27.222L10.109,27.222L10.109,26.21L5.133,26.21ZM12.133,18.904L12.815,19.504C14.596,17.837 16.624,17.004 18.898,17.004C21.171,17.004 23.218,17.837 25.037,19.504L25.719,18.904C23.749,17.104 21.475,16.204 18.898,16.204C16.434,16.204 14.236,17.054 12.303,18.754L12.133,18.904ZM62.229,19.006L64.329,16.606L65.729,16.606L67.829,19.006L66.679,19.006L65.029,17.656L63.379,19.006L62.229,19.006ZM42.414,19.006L44.514,16.606L45.914,16.606L48.014,19.006L46.864,19.006L45.214,17.656L43.564,19.006L42.414,19.006ZM31.33,14.022L30.81,13.513L41.103,3.17L41.578,3.64L31.33,14.022ZM16.387,7.3C16.387,6.373 16.682,5.614 17.272,5.023C17.806,4.488 18.453,4.222 19.212,4.222C19.999,4.222 20.66,4.488 21.194,5.023C21.785,5.614 22.08,6.373 22.08,7.3L22.08,12.277L23.092,12.277L23.092,7.3C23.092,6.063 22.712,5.079 21.953,4.348C21.194,3.561 20.281,3.168 19.212,3.168C18.172,3.168 17.258,3.561 16.471,4.348C15.74,5.079 15.374,6.063 15.374,7.3L15.374,12.277L16.387,12.277L16.387,7.3ZM3.009,11.181L2.33,10.919L5.021,4.19L5.642,4.435L3.009,11.181ZM6.575,11.181L5.896,10.919L8.586,4.19L9.208,4.435L6.575,11.181ZM64.269,10.827C63.594,9.622 62.667,8.415 61.489,7.205L59.46,5.362L60.031,4.971L60.564,4.575C62.024,5.74 63.223,6.876 64.161,7.984L65.531,9.982L64.269,10.827ZM43.308,3.766L43.99,4.366C45.771,2.699 47.799,1.866 50.073,1.866C52.346,1.866 54.393,2.699 56.212,4.366L56.894,3.766C54.924,1.966 52.65,1.066 50.073,1.066C47.609,1.066 45.411,1.916 43.478,3.616L43.308,3.766Z"/>
</svg>
