<svg xmlns:xlink="http://www.w3.org/1999/xlink" height="92.75px" width="105.25px" xmlns="http://www.w3.org/2000/svg">
  <g transform="matrix(1.0, 0.0, 0.0, 1.0, 52.85, 51.55)">
    <path d="M16.65 -43.5 L16.5 -43.5 16.5 -47.45 Q16.5 -48.9 17.4 -49.75 18.25 -50.7 19.5 -50.7 20.75 -50.7 21.7 -49.75 22.55 -48.9 22.55 -47.45 L22.55 -43.5 22.15 -43.5 21.75 -43.5 21.75 -47.45 Q21.75 -48.55 21.05 -49.25 20.4 -49.9 19.5 -49.9 18.6 -49.9 18.0 -49.25 17.25 -48.55 17.3 -47.45 L17.3 -43.5 16.65 -43.5 M22.4 -38.55 L22.75 -39.2 23.15 -38.95 18.75 -31.1 18.55 -31.2 18.35 -31.3 22.4 -38.55 M11.15 -25.05 L7.85 -19.1 7.5 -19.3 7.45 -19.35 11.8 -27.2 12.25 -26.95 11.15 -25.05 M7.5 -16.6 L28.05 -16.6 28.05 -16.15 27.75 -16.15 4.15 -16.15 4.15 -16.6 7.5 -16.6 M28.6 -14.75 L29.1 -15.3 38.15 -7.7 37.7 -7.15 37.5 -7.3 37.45 -7.35 28.6 -14.75 M41.35 -3.45 L41.85 -4.0 50.95 3.6 50.5 4.1 50.45 4.15 41.35 -3.45 M46.25 6.9 L46.25 17.25 45.8 17.25 45.4 17.25 45.4 6.7 46.25 6.7 46.25 6.9 M45.8 18.7 L46.25 18.7 46.25 29.25 46.0 29.25 45.45 29.25 45.45 18.7 45.8 18.7 M46.0 30.65 L46.25 30.65 46.25 41.2 45.45 41.2 45.45 41.15 45.45 30.65 46.0 30.65 M43.75 41.15 L43.75 41.2 42.95 41.2 42.95 30.65 43.3 30.65 43.75 30.65 43.75 41.15 M43.3 29.25 L42.95 29.25 42.95 19.1 42.95 18.7 43.8 18.7 43.8 29.25 43.3 29.25 M42.1 19.1 L31.5 19.1 31.5 18.6 42.1 18.6 42.1 19.1 M31.45 19.1 L23.5 19.1 23.5 18.6 31.45 18.6 31.45 19.1 M23.45 18.6 L23.45 19.1 7.55 19.1 7.55 18.6 23.45 18.6 M7.5 18.6 L7.5 19.1 -3.1 19.1 -3.1 18.6 7.5 18.6 M-3.15 18.6 L-3.15 19.1 -13.75 19.1 -13.75 18.6 -13.75 19.1 -24.4 19.1 -24.4 18.65 -24.4 18.6 -13.75 18.6 -3.15 18.6 M-25.2 19.15 L-25.2 29.25 -26.05 29.25 -26.05 18.7 -25.2 18.7 -25.2 19.15 M-26.3 30.65 L-25.45 30.65 -25.45 41.2 -26.3 41.2 -26.3 41.15 -26.3 30.65 M-27.95 41.15 L-27.95 41.2 -28.8 41.2 -28.8 30.65 -27.95 30.65 -27.95 41.15 M-27.7 29.25 L-28.55 29.25 -28.55 18.7 -27.7 18.7 -27.7 29.25 M-27.4 17.25 L-28.25 17.25 -28.25 6.7 -27.4 6.7 -27.4 17.25 M-29.75 15.75 L-30.1 16.1 -38.85 8.8 -39.2 8.55 -38.7 8.0 -29.65 15.6 -29.75 15.75 M-40.55 7.65 L-40.55 17.25 -41.15 17.25 -41.4 17.25 -41.4 6.7 -40.55 6.7 -40.55 7.65 M-41.15 18.7 L-40.55 18.7 -40.55 29.25 -41.4 29.25 -41.4 18.7 -41.15 18.7 M-43.05 29.25 L-43.9 29.25 -43.9 18.7 -43.3 18.7 -43.05 18.7 -43.05 29.25 M-43.3 17.25 L-43.9 17.25 -43.9 6.7 -43.65 6.7 -43.05 6.7 -43.05 17.25 -43.3 17.25 M-43.65 5.3 L-43.9 5.3 -43.9 -5.3 -43.65 -5.3 -43.05 -5.3 -43.05 5.3 -43.65 5.3 M-43.65 -7.8 L-52.0 -14.75 -51.55 -15.3 -51.45 -15.25 -42.45 -7.7 -42.9 -7.15 -43.65 -7.8 M-35.4 -17.95 L-38.05 -18.0 -38.05 -18.45 -27.45 -18.45 -27.45 -18.15 -27.45 -18.0 -35.4 -17.95 M-23.85 -19.3 L-23.9 -19.35 -19.5 -27.2 -19.15 -27.0 -19.1 -26.95 -23.5 -19.1 -23.85 -19.3 M-16.7 -30.8 L-16.95 -30.55 Q-18.0 -31.75 -18.45 -32.75 -19.0 -33.9 -19.0 -35.15 -19.0 -36.6 -18.45 -37.75 L-17.25 -39.4 -16.95 -39.7 -16.45 -39.25 Q-17.5 -38.3 -17.95 -37.4 -18.4 -36.45 -18.4 -35.15 -18.4 -34.05 -17.95 -33.05 -17.55 -32.15 -16.55 -31.1 L-16.45 -31.0 -16.7 -30.8 M-16.05 -43.15 L-16.15 -43.2 -12.3 -51.55 -8.55 -43.3 -8.5 -43.2 -9.25 -42.8 -12.3 -49.45 -15.35 -42.8 -16.05 -43.15 M-7.0 -41.9 L-7.0 -42.4 3.6 -42.4 3.6 -42.05 3.6 -41.9 -7.0 -41.9 M5.75 -42.85 L5.15 -43.2 8.95 -51.55 12.8 -43.2 12.05 -42.8 12.0 -42.8 8.95 -49.45 5.95 -42.8 5.75 -42.85 M14.0 -39.65 L14.05 -39.7 14.9 -38.75 15.6 -37.75 Q16.1 -36.6 16.1 -35.15 16.1 -33.9 15.6 -32.75 L14.05 -30.55 13.6 -31.0 15.05 -33.05 Q15.5 -34.05 15.5 -35.15 15.5 -36.45 15.05 -37.4 L15.0 -37.55 13.6 -39.25 14.0 -39.65 M10.4 -38.05 L8.35 -39.9 9.85 -39.9 11.4 -38.05 10.4 -38.05 M5.95 -38.3 L2.1 -31.35 -1.7 -38.3 -0.9 -38.75 0.05 -37.05 4.2 -37.05 5.15 -38.75 5.95 -38.3 M0.45 -36.2 L2.1 -33.25 3.8 -36.2 0.45 -36.2 M4.1 -16.15 L-6.5 -16.15 -6.5 -16.6 4.1 -16.6 4.1 -16.15 M42.05 7.1 L31.8 7.1 31.8 6.65 42.05 6.65 42.05 6.7 42.05 7.1 M42.9 6.7 L43.75 6.7 43.75 17.25 42.9 17.25 42.9 7.1 42.9 6.7 M31.75 7.1 L7.85 7.1 7.85 6.65 31.75 6.65 31.75 7.1 M-2.8 6.65 L7.8 6.65 7.8 7.1 -2.8 7.1 -2.8 6.65 M-2.85 7.1 L-13.45 7.1 -13.45 6.65 -2.85 6.65 -2.85 7.1 M-13.5 7.1 L-24.1 7.1 -24.1 6.7 -24.1 6.65 -13.5 6.65 -13.5 7.1 M-24.95 7.1 L-24.95 17.25 -25.75 17.25 -25.75 6.7 -24.95 6.7 -24.95 7.1 M-48.7 -18.45 L-38.1 -18.45 -38.1 -18.0 -48.7 -18.0 -48.7 -18.45 M-40.55 -5.3 L-40.55 5.3 -41.4 5.3 -41.4 -5.3 -40.55 -5.3 M-5.85 -39.9 L-4.4 -39.9 -6.5 -38.05 -7.45 -38.05 -5.85 -39.9 M-10.5 -26.95 L-14.9 -19.1 -15.3 -19.35 -10.95 -27.2 -10.5 -26.95 M-30.05 -13.5 Q-31.15 -13.5 -31.85 -12.8 -32.5 -12.15 -32.45 -11.25 -32.5 -10.35 -31.85 -9.7 -31.15 -9.0 -30.05 -9.0 L-26.1 -9.0 -26.1 -8.2 -30.05 -8.2 Q-31.55 -8.25 -32.4 -9.1 -33.35 -10.0 -33.3 -11.25 -33.35 -12.5 -32.4 -13.45 -31.55 -14.3 -30.05 -14.3 L-26.1 -14.3 -26.1 -13.5 -30.05 -13.5 M-38.7 -4.0 L-29.65 3.6 -30.1 4.15 -39.2 -3.45 -38.7 -4.0 M-23.65 -7.85 Q-19.5 -10.2 -19.2 -15.3 L-18.25 -15.0 Q-18.4 -12.35 -19.7 -10.3 -20.9 -8.2 -22.95 -7.0 L-23.65 -7.85 M-17.15 -16.15 L-17.15 -16.6 -6.55 -16.6 -6.55 -16.15 -17.15 -16.15" fill="#000000" fill-rule="evenodd" stroke="none"/>
    <path d="M22.15 -43.5 L22.15 -38.7 22.4 -38.55 18.35 -31.3 18.5 -31.15 11.15 -25.05 12.25 -26.95 11.8 -27.2 7.45 -19.35 7.5 -19.3 7.5 -16.6 4.15 -16.6 4.15 -16.15 27.75 -16.15 28.9 -15.1 28.6 -14.75 37.45 -7.35 37.5 -7.3 41.0 -3.25 41.05 -3.15 41.35 -3.45 50.45 4.15 50.5 4.1 52.4 5.05 52.4 6.9 46.25 6.9 46.25 6.7 45.4 6.7 45.4 17.25 45.8 17.25 45.8 18.7 45.45 18.7 45.45 29.25 46.0 29.25 46.0 30.65 45.45 30.65 45.45 41.15 43.75 41.15 43.75 30.65 43.3 30.65 43.3 29.25 43.8 29.25 43.8 18.7 42.95 18.7 42.95 19.1 42.1 19.1 42.1 18.6 31.5 18.6 31.5 19.1 31.45 19.1 31.45 18.6 23.5 18.6 23.45 18.6 7.55 18.6 7.5 18.6 -3.1 18.6 -3.15 18.6 -13.75 18.6 -24.4 18.6 -24.4 18.65 -25.1 19.1 -25.2 19.15 -25.2 18.7 -26.05 18.7 -26.05 29.25 -26.3 30.65 -26.3 41.15 -27.95 41.15 -27.95 30.65 -27.7 29.25 -27.7 18.7 -27.4 17.25 -27.4 6.7 -28.25 6.7 -28.25 17.25 -28.55 17.35 -28.95 16.55 Q-29.3 16.0 -29.75 15.75 L-29.65 15.6 -38.7 8.0 -39.2 8.55 -38.85 8.8 -40.55 7.65 -40.55 6.7 -41.4 6.7 -41.4 17.25 -41.15 17.25 -41.15 18.7 -41.4 18.7 -41.4 29.25 -43.05 29.25 -43.05 18.7 -43.3 18.7 -43.3 17.25 -43.05 17.25 -43.05 6.7 -43.65 6.7 -43.65 5.3 -43.05 5.3 -43.05 -5.3 -43.65 -5.3 -43.65 -7.8 -42.9 -7.15 -42.45 -7.7 -51.45 -15.25 -51.5 -15.3 -52.85 -17.75 -35.4 -17.95 -27.45 -18.0 -27.45 -18.15 -24.0 -19.05 -23.85 -19.3 -23.5 -19.1 -19.1 -26.95 -19.15 -27.0 -17.6 -29.6 -17.25 -29.6 -16.7 -30.8 -16.45 -31.0 -16.55 -31.1 Q-17.55 -32.15 -17.95 -33.05 -18.4 -34.05 -18.4 -35.15 -18.4 -36.45 -17.95 -37.4 -17.5 -38.3 -16.45 -39.25 L-16.95 -39.7 -16.05 -43.15 -15.35 -42.8 -12.3 -49.45 -9.25 -42.8 -8.5 -43.2 -8.55 -43.3 -7.1 -41.85 -7.0 -41.9 3.6 -41.9 3.6 -42.05 5.75 -42.85 5.95 -42.8 8.95 -49.45 12.0 -42.8 12.05 -42.8 14.0 -39.65 13.6 -39.25 15.0 -37.55 15.05 -37.4 Q15.5 -36.45 15.5 -35.15 15.5 -34.05 15.05 -33.05 L13.6 -31.0 14.05 -30.55 15.6 -32.75 Q16.1 -33.9 16.1 -35.15 16.1 -36.6 15.6 -37.75 L14.9 -38.75 16.65 -43.5 17.3 -43.5 17.3 -47.45 Q17.25 -48.55 18.0 -49.25 18.6 -49.9 19.5 -49.9 20.4 -49.9 21.05 -49.25 21.75 -48.55 21.75 -47.45 L21.75 -43.5 22.15 -43.5 M4.1 -16.15 L4.1 -16.6 -6.5 -16.6 -6.5 -16.15 4.1 -16.15 M0.45 -36.2 L3.8 -36.2 2.1 -33.25 0.45 -36.2 M5.95 -38.3 L5.15 -38.75 4.2 -37.05 0.05 -37.05 -0.9 -38.75 -1.7 -38.3 2.1 -31.35 5.95 -38.3 M10.4 -38.05 L11.4 -38.05 9.85 -39.9 8.35 -39.9 10.4 -38.05 M42.05 7.1 L42.9 7.1 42.9 17.25 43.75 17.25 43.75 6.7 42.9 6.7 42.05 6.7 42.05 6.65 31.8 6.65 31.8 7.1 42.05 7.1 M-2.8 7.1 L7.8 7.1 7.8 6.65 -2.8 6.65 -2.85 6.65 -13.45 6.65 -13.5 6.65 -24.1 6.65 -24.1 6.7 -24.95 6.7 -25.75 6.7 -25.75 17.25 -24.95 17.25 -24.95 7.1 -24.1 7.1 -13.5 7.1 -13.45 7.1 -2.85 7.1 -2.8 7.1 M31.75 7.1 L31.75 6.65 7.85 6.65 7.85 7.1 31.75 7.1 M-17.15 -16.15 L-6.55 -16.15 -6.55 -16.6 -17.15 -16.6 -17.15 -16.15 M-23.65 -7.85 L-22.95 -7.0 Q-20.9 -8.2 -19.7 -10.3 -18.4 -12.35 -18.25 -15.0 L-19.2 -15.3 Q-19.5 -10.2 -23.65 -7.85 M-38.7 -4.0 L-39.2 -3.45 -30.1 4.15 -29.65 3.6 -38.7 -4.0 M-30.05 -13.5 L-26.1 -13.5 -26.1 -14.3 -30.05 -14.3 Q-31.55 -14.3 -32.4 -13.45 -33.35 -12.5 -33.3 -11.25 -33.35 -10.0 -32.4 -9.1 -31.55 -8.25 -30.05 -8.2 L-26.1 -8.2 -26.1 -9.0 -30.05 -9.0 Q-31.15 -9.0 -31.85 -9.7 -32.5 -10.35 -32.45 -11.25 -32.5 -12.15 -31.85 -12.8 -31.15 -13.5 -30.05 -13.5 M-10.5 -26.95 L-10.95 -27.2 -15.3 -19.35 -14.9 -19.1 -10.5 -26.95 M-5.85 -39.9 L-7.45 -38.05 -6.5 -38.05 -4.4 -39.9 -5.85 -39.9 M-40.55 -5.3 L-41.4 -5.3 -41.4 5.3 -40.55 5.3 -40.55 -5.3" fill="#ffffff" fill-rule="evenodd" stroke="none"/>
  </g>
</svg>
