<svg xmlns:xlink="http://www.w3.org/1999/xlink" height="100.8px" width="103.9px" xmlns="http://www.w3.org/2000/svg">
  <g transform="matrix(1.0, 0.0, 0.0, 1.0, 50.35, 100.1)">
    <path d="M30.6 -52.95 L36.35 -65.5 42.1 -52.95 40.95 -52.35 36.35 -62.35 31.8 -52.35 30.6 -52.95 M42.9 -47.6 L43.2 -47.3 44.65 -45.55 Q45.65 -43.95 45.9 -42.1 L46.0 -40.8 Q46.0 -36.95 42.9 -34.0 L42.2 -34.7 42.25 -34.7 Q45.05 -37.35 45.05 -40.8 L44.95 -42.2 Q44.6 -44.0 43.45 -45.6 L43.15 -45.95 43.1 -46.0 42.2 -46.95 42.9 -47.6 M38.6 -31.0 L39.85 -31.0 39.85 -15.05 38.6 -15.05 38.6 -31.0 M36.65 -9.45 L33.55 0.7 31.9 0.7 29.25 -8.0 29.1 -8.0 26.4 0.7 24.8 0.7 21.5 -10.1 23.05 -10.1 25.55 -1.5 25.65 -1.5 28.35 -10.1 30.0 -10.1 32.65 -1.5 32.8 -1.5 35.3 -10.1 36.85 -10.1 36.65 -9.45 M19.3 -15.05 L18.05 -15.05 18.05 -30.4 18.05 -30.95 19.3 -30.95 19.3 -15.05 M15.65 -34.0 Q12.5 -36.95 12.5 -40.8 12.5 -43.4 13.9 -45.55 L14.7 -46.6 15.65 -47.6 16.35 -46.95 15.95 -46.55 15.3 -45.8 15.0 -45.4 Q13.45 -43.3 13.45 -40.8 13.45 -38.0 15.4 -35.7 L16.35 -34.7 15.65 -34.0 M16.6 -52.35 L15.4 -52.95 21.15 -65.5 26.9 -52.95 25.75 -52.35 21.15 -62.35 16.6 -52.35 M27.3 -76.45 L20.2 -76.45 20.2 -77.45 27.3 -77.45 27.3 -76.45 M12.7 -90.85 L14.15 -90.85 14.15 -89.5 13.4 -87.8 12.7 -87.8 13.35 -89.5 12.7 -89.5 12.7 -90.85 M9.05 -84.2 L9.5 -83.2 Q9.5 -82.6 9.05 -82.2 8.65 -81.75 8.05 -81.75 7.5 -81.75 7.05 -82.2 6.65 -82.6 6.65 -83.2 6.65 -83.75 7.05 -84.2 7.5 -84.6 8.05 -84.6 8.65 -84.6 9.05 -84.2 M8.05 -84.1 L7.4 -83.85 7.15 -83.2 7.4 -82.5 Q7.65 -82.25 8.05 -82.25 L8.75 -82.5 9.0 -83.2 8.75 -83.85 8.05 -84.1 M4.0 -81.6 L-1.75 -71.2 -7.5 -81.6 -6.3 -82.3 -4.85 -79.75 1.4 -79.75 2.8 -82.3 4.0 -81.6 M10.95 -83.45 L11.1 -83.6 Q14.2 -80.7 14.2 -76.8 14.2 -72.95 11.1 -70.0 L10.75 -70.35 10.4 -70.7 Q13.25 -73.35 13.25 -76.8 13.25 -80.25 10.4 -82.95 L10.95 -83.45 M-14.3 -70.3 L-14.65 -70.0 Q-17.8 -72.95 -17.8 -76.8 -17.8 -80.7 -14.65 -83.6 L-14.5 -83.45 -13.95 -82.95 Q-16.85 -80.25 -16.85 -76.8 -16.85 -73.35 -13.95 -70.7 L-14.3 -70.3 M14.2 -66.0 L16.05 -63.1 15.05 -63.1 12.35 -66.0 14.2 -66.0 M39.1 -48.6 Q39.7 -48.6 40.1 -48.2 L40.55 -47.2 Q40.55 -46.6 40.1 -46.2 39.7 -45.75 39.1 -45.75 38.55 -45.75 38.1 -46.2 37.7 -46.6 37.7 -47.2 37.7 -47.75 38.1 -48.2 38.55 -48.6 39.1 -48.6 M38.45 -47.85 L38.2 -47.2 Q38.2 -46.75 38.45 -46.5 38.7 -46.25 39.1 -46.25 39.55 -46.25 39.8 -46.5 L40.05 -47.2 39.8 -47.85 39.1 -48.1 38.45 -47.85 M33.85 -46.3 L35.05 -45.6 29.3 -35.2 23.55 -45.6 24.75 -46.3 26.2 -43.75 32.45 -43.75 33.85 -46.3 M29.3 -38.0 L31.8 -42.45 26.8 -42.45 29.3 -38.0 M20.4 -46.2 Q20.0 -45.75 19.4 -45.75 18.85 -45.75 18.4 -46.2 L18.15 -46.5 Q18.0 -46.8 18.0 -47.2 18.0 -47.75 18.4 -48.2 18.85 -48.6 19.4 -48.6 20.0 -48.6 20.4 -48.2 L20.85 -47.2 20.65 -46.4 20.4 -46.2 M20.1 -46.5 L20.35 -47.2 20.1 -47.85 19.4 -48.1 18.75 -47.85 Q18.5 -47.6 18.5 -47.2 18.5 -46.75 18.75 -46.5 19.0 -46.25 19.4 -46.25 L20.05 -46.45 20.1 -46.5 M3.65 -44.45 Q8.7 -41.25 11.0 -38.0 L9.45 -36.7 Q7.05 -40.1 2.3 -43.25 L3.65 -44.45 M0.9 -28.55 L-5.75 -16.75 -6.35 -17.1 0.25 -28.95 0.9 -28.55 M53.55 -46.55 L46.9 -34.75 46.3 -35.1 52.9 -46.95 53.55 -46.55 M-0.6 -100.1 L-0.6 -89.45 -1.85 -89.45 -1.85 -100.1 -0.6 -100.1 M-19.9 -90.45 L-19.1 -91.55 -16.95 -88.95 -17.85 -87.75 -19.9 -90.45 M-11.65 -84.1 L-12.3 -83.85 -12.55 -83.2 -12.3 -82.5 -11.65 -82.25 Q-11.2 -82.25 -10.95 -82.5 -10.7 -82.75 -10.7 -83.2 L-10.95 -83.85 -11.65 -84.1 M-10.65 -84.2 Q-10.2 -83.75 -10.2 -83.2 -10.2 -82.6 -10.65 -82.2 -11.05 -81.75 -11.65 -81.75 -12.2 -81.75 -12.65 -82.2 -13.05 -82.6 -13.05 -83.2 L-12.65 -84.2 Q-12.2 -84.6 -11.65 -84.6 -11.05 -84.6 -10.65 -84.2 M-23.7 -77.45 L-23.7 -76.45 -30.8 -76.45 -30.8 -77.45 -23.7 -77.45 M-0.95 -64.1 L-0.95 -53.45 -2.2 -53.45 -2.2 -64.1 -0.95 -64.1 M-15.6 -64.35 L-14.15 -64.35 -14.15 -63.0 -15.0 -61.1 -15.6 -61.1 -15.0 -63.0 -15.6 -63.0 -15.6 -64.35 M-1.75 -74.0 L0.75 -78.45 -4.25 -78.45 -1.75 -74.0 M-41.65 -20.0 L-43.2 -18.7 Q-45.6 -22.1 -50.35 -25.25 L-49.0 -26.45 Q-43.95 -23.25 -41.65 -20.0 M-22.2 -34.95 L-16.45 -47.5 -13.7 -41.55 -13.7 -41.5 -10.7 -34.95 -11.85 -34.35 -16.45 -44.35 -21.0 -34.35 -22.2 -34.95 M-9.75 -29.6 Q-6.65 -26.7 -6.65 -22.8 -6.65 -18.95 -9.75 -16.0 L-10.45 -16.7 Q-8.65 -18.2 -7.95 -20.25 -7.5 -21.55 -7.7 -22.8 -7.95 -24.45 -8.65 -25.9 -9.4 -27.5 -10.45 -28.95 L-9.75 -29.6 M-16.65 -6.45 L-19.65 0.7 -20.9 0.7 -23.9 -6.45 -22.55 -6.45 -20.3 -0.85 -18.05 -6.45 -16.65 -6.45 M-24.3 -6.45 L-27.3 0.7 -28.55 0.7 -31.55 -6.45 -30.2 -6.45 -27.95 -0.85 -25.7 -6.45 -24.3 -6.45 M-36.3 -16.7 L-37.0 -16.0 Q-39.3 -18.15 -39.9 -20.8 L-40.15 -22.8 -39.85 -24.95 Q-39.25 -27.55 -37.0 -29.6 L-36.3 -28.95 -37.6 -27.25 -37.9 -26.9 Q-39.5 -24.65 -39.05 -21.85 -38.6 -18.8 -36.3 -16.7 M-35.8 -34.35 L-37.0 -34.95 -31.25 -47.5 -25.5 -34.95 -26.65 -34.35 -31.25 -44.35 -35.8 -34.35 M-12.1 -29.2 L-12.3 -28.4 -12.75 -27.95 -13.5 -28.05 Q-14.05 -28.0 -14.4 -28.35 -14.75 -28.7 -14.75 -29.2 -14.75 -29.7 -14.35 -29.95 -12.9 -31.15 -12.1 -29.45 L-12.1 -29.2 M-20.2 -25.75 L-18.8 -28.3 -17.6 -27.6 -23.35 -17.2 -29.1 -27.6 -27.9 -28.3 -26.45 -25.75 -20.2 -25.75 M-13.55 -30.1 L-14.2 -29.85 -14.45 -29.2 -14.2 -28.5 Q-13.95 -28.25 -13.55 -28.25 -13.1 -28.25 -12.85 -28.5 -12.6 -28.75 -12.6 -29.2 L-12.85 -29.85 -13.55 -30.1 M-32.15 -30.2 Q-31.75 -29.8 -31.75 -29.2 -31.75 -28.6 -32.15 -28.15 -32.6 -27.75 -33.2 -27.75 -33.8 -27.75 -34.2 -28.15 -34.65 -28.6 -34.65 -29.2 -34.65 -29.8 -34.2 -30.2 -33.8 -30.65 -33.2 -30.65 -32.6 -30.65 -32.15 -30.2 M-32.3 -29.2 Q-32.3 -29.6 -32.55 -29.85 -32.8 -30.1 -33.25 -30.1 L-33.9 -29.85 -34.15 -29.2 -33.9 -28.5 Q-33.65 -28.25 -33.25 -28.25 -32.8 -28.25 -32.55 -28.5 -32.3 -28.75 -32.3 -29.2 M-20.85 -24.45 L-25.85 -24.45 -23.35 -20.0 -20.85 -24.45" fill="#000000" fill-rule="evenodd" stroke="none"/>
    <path d="M40.95 -52.35 L43.05 -47.65 42.9 -47.6 42.2 -46.95 43.1 -46.0 43.15 -45.95 43.45 -45.6 Q44.6 -44.0 44.95 -42.2 L45.05 -40.8 Q45.05 -37.35 42.25 -34.7 L41.85 -35.05 42.2 -34.7 42.9 -34.0 39.2 -32.15 39.2 -31.05 38.6 -31.0 38.6 -15.05 Q37.85 -11.95 36.65 -9.45 L36.85 -10.1 35.3 -10.1 32.8 -1.5 32.65 -1.5 30.0 -10.1 28.35 -10.1 25.65 -1.5 25.55 -1.5 23.05 -10.1 21.5 -10.1 19.3 -15.05 19.3 -30.95 18.05 -30.95 18.05 -30.4 18.05 -32.9 15.65 -34.0 16.35 -34.7 15.4 -35.7 Q13.45 -38.0 13.45 -40.8 13.45 -43.3 15.0 -45.4 L15.3 -45.8 15.95 -46.55 16.35 -46.95 15.65 -47.6 16.6 -52.35 21.15 -62.35 25.75 -52.35 26.9 -52.95 30.6 -52.95 31.8 -52.35 36.35 -62.35 40.95 -52.35 M4.0 -81.6 L2.8 -82.3 1.4 -79.75 -4.85 -79.75 -6.3 -82.3 -7.5 -81.6 -1.75 -71.2 4.0 -81.6 M8.05 -84.1 L8.75 -83.85 9.0 -83.2 8.75 -82.5 8.05 -82.25 Q7.65 -82.25 7.4 -82.5 L7.15 -83.2 7.4 -83.85 8.05 -84.1 M9.05 -84.2 Q8.65 -84.6 8.05 -84.6 7.5 -84.6 7.05 -84.2 6.65 -83.75 6.65 -83.2 6.65 -82.6 7.05 -82.2 7.5 -81.75 8.05 -81.75 8.65 -81.75 9.05 -82.2 9.5 -82.6 9.5 -83.2 L9.05 -84.2 M10.75 -70.35 Q4.3 -64.85 -1.95 -64.8 -8.25 -64.8 -14.3 -70.3 L-13.95 -70.7 Q-16.85 -73.35 -16.85 -76.8 -16.85 -80.25 -13.95 -82.95 L-14.5 -83.45 Q-8.3 -89.1 -1.9 -89.05 4.4 -89.0 10.95 -83.45 L10.4 -82.95 Q13.25 -80.25 13.25 -76.8 13.25 -73.35 10.4 -70.7 L10.75 -70.35 M20.1 -46.5 L20.05 -46.45 19.4 -46.25 Q19.0 -46.25 18.75 -46.5 18.5 -46.75 18.5 -47.2 18.5 -47.6 18.75 -47.85 L19.4 -48.1 20.1 -47.85 20.35 -47.2 20.1 -46.5 M20.4 -46.2 L20.65 -46.4 20.85 -47.2 20.4 -48.2 Q20.0 -48.6 19.4 -48.6 18.85 -48.6 18.4 -48.2 18.0 -47.75 18.0 -47.2 18.0 -46.8 18.15 -46.5 L18.4 -46.2 Q18.85 -45.75 19.4 -45.75 20.0 -45.75 20.4 -46.2 M29.3 -38.0 L26.8 -42.45 31.8 -42.45 29.3 -38.0 M33.85 -46.3 L32.45 -43.75 26.2 -43.75 24.75 -46.3 23.55 -45.6 29.3 -35.2 35.05 -45.6 33.85 -46.3 M38.45 -47.85 L39.1 -48.1 39.8 -47.85 40.05 -47.2 39.8 -46.5 Q39.55 -46.25 39.1 -46.25 38.7 -46.25 38.45 -46.5 38.2 -46.75 38.2 -47.2 L38.45 -47.85 M39.1 -48.6 Q38.55 -48.6 38.1 -48.2 37.7 -47.75 37.7 -47.2 37.7 -46.6 38.1 -46.2 38.55 -45.75 39.1 -45.75 39.7 -45.75 40.1 -46.2 40.55 -46.6 40.55 -47.2 L40.1 -48.2 Q39.7 -48.6 39.1 -48.6 M-10.65 -84.2 Q-11.05 -84.6 -11.65 -84.6 -12.2 -84.6 -12.65 -84.2 L-13.05 -83.2 Q-13.05 -82.6 -12.65 -82.2 -12.2 -81.75 -11.65 -81.75 -11.05 -81.75 -10.65 -82.2 -10.2 -82.6 -10.2 -83.2 -10.2 -83.75 -10.65 -84.2 M-11.65 -84.1 L-10.95 -83.85 -10.7 -83.2 Q-10.7 -82.75 -10.95 -82.5 -11.2 -82.25 -11.65 -82.25 L-12.3 -82.5 -12.55 -83.2 -12.3 -83.85 -11.65 -84.1 M-1.75 -74.0 L-4.25 -78.45 0.75 -78.45 -1.75 -74.0 M-11.85 -34.35 L-11.3 -34.35 -11.3 -33.1 -9.75 -29.6 -10.45 -28.95 Q-9.4 -27.5 -8.65 -25.9 -7.95 -24.45 -7.7 -22.8 -7.5 -21.55 -7.95 -20.25 -8.65 -18.2 -10.45 -16.7 L-13.4 -14.4 Q-14.5 -13.65 -15.65 -13.55 L-16.0 -10.85 -16.65 -6.45 -18.05 -6.45 -20.3 -0.85 -22.55 -6.45 -23.9 -6.45 -24.3 -6.45 -25.7 -6.45 -27.95 -0.85 -30.2 -6.45 -31.55 -6.45 -31.55 -13.0 -33.9 -14.3 Q-35.0 -15.0 -36.3 -16.7 -38.6 -18.8 -39.05 -21.85 -39.5 -24.65 -37.9 -26.9 L-37.6 -27.25 -36.3 -28.95 -37.0 -29.6 -35.8 -34.35 -31.25 -44.35 -26.65 -34.35 -25.5 -34.95 -22.2 -34.95 -21.0 -34.35 -16.45 -44.35 -11.85 -34.35 M-20.2 -25.75 L-26.45 -25.75 -27.9 -28.3 -29.1 -27.6 -23.35 -17.2 -17.6 -27.6 -18.8 -28.3 -20.2 -25.75 M-12.1 -29.2 L-12.1 -29.45 Q-12.9 -31.15 -14.35 -29.95 -14.75 -29.7 -14.75 -29.2 -14.75 -28.7 -14.4 -28.35 -14.05 -28.0 -13.5 -28.05 L-12.75 -27.95 -12.3 -28.4 -12.1 -29.2 M-13.55 -30.1 L-12.85 -29.85 -12.6 -29.2 Q-12.6 -28.75 -12.85 -28.5 -13.1 -28.25 -13.55 -28.25 -13.95 -28.25 -14.2 -28.5 L-14.45 -29.2 -14.2 -29.85 -13.55 -30.1 M-32.15 -30.2 Q-32.6 -30.65 -33.2 -30.65 -33.8 -30.65 -34.2 -30.2 -34.65 -29.8 -34.65 -29.2 -34.65 -28.6 -34.2 -28.15 -33.8 -27.75 -33.2 -27.75 -32.6 -27.75 -32.15 -28.15 -31.75 -28.6 -31.75 -29.2 -31.75 -29.8 -32.15 -30.2 M-32.3 -29.2 Q-32.3 -28.75 -32.55 -28.5 -32.8 -28.25 -33.25 -28.25 -33.65 -28.25 -33.9 -28.5 L-34.15 -29.2 -33.9 -29.85 -33.25 -30.1 Q-32.8 -30.1 -32.55 -29.85 -32.3 -29.6 -32.3 -29.2 M-20.85 -24.45 L-23.35 -20.0 -25.85 -24.45 -20.85 -24.45" fill="#ffffff" fill-rule="evenodd" stroke="none"/>
  </g>
</svg>
