<svg xmlns:xlink="http://www.w3.org/1999/xlink" height="26.6px" width="73.8px" xmlns="http://www.w3.org/2000/svg">
  <g transform="matrix(1.0, 0.0, 0.0, 1.0, 36.9, 13.3)">
    <path d="M-18.25 -7.1 L-21.1 -7.1 -17.15 -3.65 -15.4 -3.65 -18.25 -7.1 M-33.0 -6.7 Q-19.35 -12.55 -1.0 -13.25 17.3 -13.95 30.05 -7.1 L27.65 -7.1 24.7 -3.65 26.5 -3.65 30.4 -7.05 32.95 -6.7 32.1 -5.9 Q34.05 -4.1 34.85 -2.5 35.7 -0.7 35.7 1.8 35.7 3.95 34.85 5.8 34.05 7.5 32.1 9.65 L32.6 10.15 Q17.3 13.3 2.05 13.25 -17.9 13.7 -32.9 10.4 L-32.15 9.65 Q-34.1 7.5 -34.85 5.8 -35.75 3.95 -35.75 1.8 -35.75 -0.7 -34.85 -2.5 -34.1 -4.1 -32.15 -5.9 L-33.0 -6.7 M21.75 -0.05 L18.4 -0.05 18.4 3.3 21.75 3.3 21.75 -0.05 M-6.15 3.3 L-6.15 -0.05 -9.5 -0.05 -9.5 3.3 -6.15 3.3 M6.9 1.25 Q6.25 2.5 6.2 3.4 6.05 4.65 6.2 5.35 6.05 5.95 5.15 6.8 4.45 7.5 3.45 7.5 2.75 7.5 2.3 7.05 1.8 6.6 1.8 4.95 1.8 1.9 4.85 -1.55 L3.55 -2.25 Q0.4 1.35 0.4 4.95 0.4 7.15 1.25 8.0 2.1 8.85 3.45 8.85 4.85 8.85 5.8 7.9 L6.6 6.9 7.35 8.05 Q8.15 8.85 9.6 8.85 11.35 8.85 12.45 7.75 14.15 6.05 14.15 2.45 14.15 -0.05 13.3 -2.25 L11.8 -1.85 Q12.5 0.0 12.5 2.45 12.5 5.5 11.25 6.75 10.55 7.45 9.55 7.45 8.6 7.45 8.05 6.9 7.5 6.35 7.5 5.55 L8.2 4.1 Q8.6 2.85 8.6 1.8 8.6 0.2 8.0 0.2 7.45 0.2 6.9 1.25" fill="#ffffff" fill-rule="evenodd" stroke="none"/>
    <path d="M-18.25 -7.1 L-15.4 -3.65 -17.15 -3.65 -21.1 -7.1 -18.25 -7.1 M-32.9 10.4 L-33.0 10.5 Q-34.95 8.3 -35.9 6.35 -36.9 4.25 -36.9 1.8 -36.9 -0.9 -35.9 -3.0 -35.05 -4.8 -33.0 -6.7 L-32.15 -5.9 Q-34.1 -4.1 -34.85 -2.5 -35.75 -0.7 -35.75 1.8 -35.75 3.95 -34.85 5.8 -34.1 7.5 -32.15 9.65 L-32.9 10.4 M30.05 -7.1 L30.45 -7.1 30.4 -7.05 26.5 -3.65 24.7 -3.65 27.65 -7.1 30.05 -7.1 M32.95 -6.7 Q35.0 -4.8 35.85 -3.0 36.9 -0.9 36.9 1.8 36.9 4.25 35.85 6.35 34.95 8.3 32.95 10.5 L32.6 10.15 32.1 9.65 Q34.05 7.5 34.85 5.8 35.7 3.95 35.7 1.8 35.7 -0.7 34.85 -2.5 34.05 -4.1 32.1 -5.9 L32.95 -6.7 M6.9 1.25 Q7.45 0.2 8.0 0.2 8.6 0.2 8.6 1.8 8.6 2.85 8.2 4.1 L7.5 5.55 Q7.5 6.35 8.05 6.9 8.6 7.45 9.55 7.45 10.55 7.45 11.25 6.75 12.5 5.5 12.5 2.45 12.5 0.0 11.8 -1.85 L13.3 -2.25 Q14.15 -0.05 14.15 2.45 14.15 6.05 12.45 7.75 11.35 8.85 9.6 8.85 8.15 8.85 7.35 8.05 L6.6 6.9 5.8 7.9 Q4.85 8.85 3.45 8.85 2.1 8.85 1.25 8.0 0.4 7.15 0.4 4.95 0.4 1.35 3.55 -2.25 L4.85 -1.55 Q1.8 1.9 1.8 4.95 1.8 6.6 2.3 7.05 2.75 7.5 3.45 7.5 4.45 7.5 5.15 6.8 6.05 5.95 6.2 5.35 6.05 4.65 6.2 3.4 6.25 2.5 6.9 1.25 M-6.15 3.3 L-9.5 3.3 -9.5 -0.05 -6.15 -0.05 -6.15 3.3 M21.75 -0.05 L21.75 3.3 18.4 3.3 18.4 -0.05 21.75 -0.05" fill="#000000" fill-rule="evenodd" stroke="none"/>
  </g>
</svg>
