<svg xmlns:xlink="http://www.w3.org/1999/xlink" height="25.15px" width="70.5px" xmlns="http://www.w3.org/2000/svg">
  <g transform="matrix(1.0, 0.0, 0.0, 1.0, 38.75, 12.4)">
    <path d="M27.95 -8.15 L27.8 -8.3 28.05 -8.25 27.95 -8.15 M9.65 -2.1 L8.2 -1.75 Q8.9 0.0 8.9 2.3 8.9 5.2 7.7 6.4 L6.75 6.95 6.1 7.05 4.9 6.7 4.7 6.5 Q4.15 6.0 4.15 5.3 L4.8 3.85 Q5.2 2.7 5.2 1.7 5.2 0.15 4.6 0.15 4.1 0.15 3.55 1.2 2.95 2.4 2.9 3.2 2.75 4.35 2.9 5.05 L2.1 6.3 1.95 6.45 1.1 7.0 0.45 7.15 0.35 7.15 Q-0.35 7.1 -0.75 6.7 L-0.8 6.65 Q-1.25 6.2 -1.25 4.65 -1.25 1.75 1.65 -1.5 L0.4 -2.1 Q-2.6 1.25 -2.6 4.65 -2.6 6.25 -2.1 7.15 L-1.75 7.55 -0.9 8.15 0.35 8.35 Q1.25 8.35 1.95 7.9 L2.55 7.45 3.0 6.95 3.25 6.5 3.5 7.05 4.0 7.65 4.95 8.2 6.15 8.35 Q7.8 8.35 8.8 7.35 10.45 5.7 10.45 2.3 10.45 -0.05 9.65 -2.1 M27.25 -8.45 L26.5 -7.7 Q30.45 -4.0 30.45 0.7 30.45 5.45 26.5 9.1 L26.8 9.4 Q-3.85 16.15 -33.55 9.35 L-33.5 9.1 Q-37.45 5.45 -37.45 0.7 -37.45 -4.0 -33.5 -7.7 L-34.35 -8.55 Q-4.15 -16.3 27.25 -8.45 M-16.0 -6.75 L-18.65 -6.75 -21.45 -3.45 -19.8 -3.45 -16.0 -6.75 M22.6 -6.75 L20.4 -6.75 23.6 -3.35 24.75 -3.35 22.6 -6.75 M16.35 0.35 L16.35 2.7 18.65 2.7 18.65 0.35 16.35 0.35 M-8.6 2.7 L-8.6 0.35 -10.95 0.35 -10.95 2.7 -8.6 2.7" fill="#ffffff" fill-rule="evenodd" stroke="none"/>
    <path d="M9.65 -2.1 Q10.45 -0.05 10.45 2.3 10.45 5.7 8.8 7.35 7.8 8.35 6.15 8.35 L4.95 8.2 4.0 7.65 3.5 7.05 3.25 6.5 3.0 6.95 2.55 7.45 1.95 7.9 Q1.25 8.35 0.35 8.35 L-0.9 8.15 -1.75 7.55 -2.1 7.15 Q-2.6 6.25 -2.6 4.65 -2.6 1.25 0.4 -2.1 L1.65 -1.5 Q-1.25 1.75 -1.25 4.65 -1.25 6.2 -0.8 6.65 L-0.75 6.7 Q-0.35 7.1 0.35 7.15 L0.45 7.15 1.1 7.0 1.95 6.45 2.1 6.3 2.9 5.05 Q2.75 4.35 2.9 3.2 2.95 2.4 3.55 1.2 4.1 0.15 4.6 0.15 5.2 0.15 5.2 1.7 5.2 2.7 4.8 3.85 L4.15 5.3 Q4.15 6.0 4.7 6.5 L4.9 6.7 6.1 7.05 6.75 6.95 7.7 6.4 Q8.9 5.2 8.9 2.3 8.9 0.0 8.2 -1.75 L9.65 -2.1 M27.8 -8.3 L27.95 -8.15 Q31.75 -4.3 31.75 0.7 31.75 6.05 27.45 10.05 L26.8 9.4 26.5 9.1 Q30.45 5.45 30.45 0.7 30.45 -4.0 26.5 -7.7 L27.25 -8.45 27.45 -8.65 27.8 -8.3 M22.6 -6.75 L24.75 -3.35 23.6 -3.35 20.4 -6.75 22.6 -6.75 M-16.0 -6.75 L-19.8 -3.45 -21.45 -3.45 -18.65 -6.75 -16.0 -6.75 M-33.5 9.1 L-34.45 10.05 Q-38.75 6.05 -38.75 0.7 -38.75 -4.65 -34.45 -8.65 L-34.35 -8.55 -33.5 -7.7 Q-37.45 -4.0 -37.45 0.7 -37.45 5.45 -33.5 9.1 M-8.6 2.7 L-10.95 2.7 -10.95 0.35 -8.6 0.35 -8.6 2.7 M16.35 0.35 L18.65 0.35 18.65 2.7 16.35 2.7 16.35 0.35" fill="#000000" fill-rule="evenodd" stroke="none"/>
  </g>
</svg>
