<svg xmlns:xlink="http://www.w3.org/1999/xlink" height="84.55px" width="42.65px" xmlns="http://www.w3.org/2000/svg">
  <g transform="matrix(1.0, 0.0, 0.0, 1.0, 18.45, 84.25)">
    <path d="M-12.15 -73.45 L-11.9 -73.45 -11.9 -79.35 Q-11.9 -81.0 -10.8 -82.05 -9.9 -83.0 -8.5 -83.0 -7.15 -83.0 -6.2 -82.05 -5.15 -81.0 -5.15 -79.35 L-5.15 -73.45 -4.55 -73.45 -4.05 -73.25 -0.45 -72.05 -0.45 -71.7 4.35 -71.7 4.35 -72.45 Q6.25 -72.55 7.85 -73.45 L9.0 -73.45 9.0 -79.35 Q9.0 -81.0 10.1 -82.05 11.0 -83.0 12.4 -83.0 13.75 -83.0 14.7 -82.05 15.75 -81.0 15.75 -79.35 L15.75 -73.45 16.35 -73.35 Q15.75 -70.6 16.3 -67.7 L15.6 -67.05 Q17.15 -65.6 17.8 -64.3 18.5 -62.85 18.5 -60.85 18.5 -59.2 17.8 -57.7 17.15 -56.3 15.6 -54.6 L16.3 -53.95 19.85 -49.05 Q21.4 -47.6 22.05 -46.3 22.75 -44.85 22.75 -42.85 22.75 -41.2 22.05 -39.7 21.4 -38.3 19.85 -36.6 17.95 -33.85 14.85 -32.95 L13.6 -32.95 13.6 -17.05 14.85 -17.05 Q17.6 -14.9 20.4 -13.05 21.95 -11.6 22.6 -10.3 23.3 -8.85 23.3 -6.85 23.3 -5.2 22.6 -3.7 21.95 -2.3 20.4 -0.6 L19.9 -0.05 19.05 0.05 19.05 -0.45 14.25 -0.45 14.15 -0.45 9.35 -0.45 9.35 0.3 3.3 0.05 1.95 -0.05 1.25 -0.05 1.25 -0.45 -3.55 -0.45 -3.65 -0.45 -8.45 -0.45 -8.55 -0.45 -13.35 -0.45 -13.35 0.15 -14.15 0.15 -15.35 0.05 -14.65 -0.6 Q-16.2 -2.3 -16.85 -3.7 -17.55 -5.2 -17.55 -6.85 -17.55 -8.85 -16.85 -10.3 L-15.1 -12.6 -14.65 -13.05 -15.1 -13.5 -15.1 -13.7 -15.2 -17.05 -13.95 -17.05 -13.95 -32.95 -14.6 -32.95 -14.6 -33.05 -15.35 -35.95 -14.65 -36.6 Q-16.2 -38.3 -16.85 -39.7 -17.55 -41.2 -17.55 -42.85 -17.55 -44.85 -16.85 -46.3 -16.2 -47.6 -14.65 -49.05 L-14.7 -49.7 Q-14.9 -51.7 -14.7 -53.9 L-14.65 -54.6 -16.2 -56.55 -16.85 -57.7 Q-17.55 -59.2 -17.55 -60.85 -17.55 -62.85 -16.85 -64.3 L-16.0 -65.6 -14.65 -67.05 -15.35 -67.7 Q-13.6 -70.4 -12.35 -73.05 L-12.15 -73.45 M3.3 0.05 Q4.85 -1.7 5.6 -3.2 L5.6 -3.25 Q6.4 -4.95 6.4 -6.85 6.4 -9.05 5.6 -10.75 4.9 -12.2 3.3 -13.7 L2.6 -13.05 Q4.15 -11.6 4.8 -10.3 5.5 -8.85 5.5 -6.85 5.5 -5.2 4.8 -3.7 L4.55 -3.2 Q3.9 -2.0 2.6 -0.6 L3.3 0.05 M-11.7 -65.25 L-10.3 -65.25 -7.1 -68.0 -9.35 -68.0 -11.7 -65.25 M10.5 -68.0 L8.65 -68.0 11.35 -65.1 12.35 -65.1 10.5 -68.0 M6.55 -60.55 L6.55 -61.95 -4.35 -61.95 -4.35 -60.55 6.55 -60.55 M0.45 -32.95 L-0.8 -32.95 -0.8 -17.05 0.45 -17.05 0.45 -32.95" fill="#ffffff" fill-rule="evenodd" stroke="none"/>
    <path d="M-4.55 -73.45 L-5.15 -73.45 -5.15 -79.35 Q-5.15 -81.0 -6.2 -82.05 -7.15 -83.0 -8.5 -83.0 -9.9 -83.0 -10.8 -82.05 -11.9 -81.0 -11.9 -79.35 L-11.9 -73.45 -12.15 -73.45 -13.05 -73.45 -13.05 -79.35 Q-13.05 -81.55 -11.75 -82.85 -10.4 -84.25 -8.5 -84.25 -6.65 -84.25 -5.25 -82.85 -3.95 -81.55 -3.95 -79.35 L-3.95 -73.45 -4.55 -73.45 M-15.35 -67.7 L-14.65 -67.05 -16.0 -65.6 -16.85 -64.3 Q-17.55 -62.85 -17.55 -60.85 -17.55 -59.2 -16.85 -57.7 L-16.2 -56.55 -14.65 -54.6 -15.35 -53.95 -16.75 -55.7 -17.65 -57.25 Q-18.45 -58.95 -18.45 -60.85 -18.45 -63.05 -17.65 -64.75 L-16.8 -66.05 -15.35 -67.7 M-14.65 -49.05 Q-16.2 -47.6 -16.85 -46.3 -17.55 -44.85 -17.55 -42.85 -17.55 -41.2 -16.85 -39.7 -16.2 -38.3 -14.65 -36.6 L-15.35 -35.95 Q-16.9 -37.7 -17.65 -39.25 -18.45 -40.95 -18.45 -42.85 -18.45 -45.05 -17.65 -46.75 -16.95 -48.2 -15.35 -49.7 L-14.65 -49.05 M-14.6 -32.95 L-13.95 -32.95 -13.95 -17.05 -15.2 -17.05 -15.2 -32.95 -14.6 -32.95 M-15.1 -13.5 L-14.65 -13.05 -15.1 -12.6 -16.85 -10.3 Q-17.55 -8.85 -17.55 -6.85 -17.55 -5.2 -16.85 -3.7 -16.2 -2.3 -14.65 -0.6 L-15.35 0.05 -15.75 -0.4 Q-17.0 -1.9 -17.65 -3.25 -18.45 -4.95 -18.45 -6.85 L-18.25 -8.95 -17.75 -10.45 -17.65 -10.75 Q-16.95 -12.2 -15.35 -13.7 L-15.1 -13.5 M-13.35 0.15 L-13.35 -0.45 -8.55 -0.45 -8.55 0.3 -13.35 0.3 -13.35 0.15 M-8.45 -0.45 L-3.65 -0.45 -3.65 0.3 -8.45 0.3 -8.45 -0.45 M-3.55 -0.45 L1.25 -0.45 1.25 -0.05 1.25 0.3 -3.55 0.3 -3.55 -0.45 M3.3 0.05 L2.6 -0.6 Q3.9 -2.0 4.55 -3.2 L4.8 -3.7 Q5.5 -5.2 5.5 -6.85 5.5 -8.85 4.8 -10.3 4.15 -11.6 2.6 -13.05 L3.3 -13.7 Q4.9 -12.2 5.6 -10.75 6.4 -9.05 6.4 -6.85 6.4 -4.95 5.6 -3.25 L5.6 -3.2 Q4.85 -1.7 3.3 0.05 M9.35 -0.45 L14.15 -0.45 14.15 0.3 9.35 0.3 9.35 -0.45 M14.25 -0.45 L19.05 -0.45 19.05 0.05 19.05 0.3 14.25 0.3 14.25 -0.45 M20.4 -0.6 Q21.95 -2.3 22.6 -3.7 23.3 -5.2 23.3 -6.85 23.3 -8.85 22.6 -10.3 21.95 -11.6 20.4 -13.05 L21.1 -13.7 Q22.7 -12.2 23.4 -10.75 24.2 -9.05 24.2 -6.85 24.2 -4.95 23.4 -3.25 22.65 -1.7 21.1 0.05 L20.4 -0.6 M14.85 -17.05 L13.6 -17.05 13.6 -32.95 14.85 -32.95 14.85 -17.05 M19.85 -36.6 Q21.4 -38.3 22.05 -39.7 22.75 -41.2 22.75 -42.85 22.75 -44.85 22.05 -46.3 21.4 -47.6 19.85 -49.05 L20.55 -49.7 Q22.15 -48.2 22.85 -46.75 23.65 -45.05 23.65 -42.85 23.65 -40.95 22.85 -39.25 22.1 -37.7 20.55 -35.95 L19.85 -36.6 M16.3 -53.95 L15.6 -54.6 Q17.15 -56.3 17.8 -57.7 18.5 -59.2 18.5 -60.85 18.5 -62.85 17.8 -64.3 17.15 -65.6 15.6 -67.05 L16.3 -67.7 18.15 -65.6 18.6 -64.75 Q19.4 -63.05 19.4 -60.85 19.4 -59.55 19.05 -58.3 L18.6 -57.25 Q17.85 -55.7 16.3 -53.95 M15.75 -73.45 L15.75 -79.35 Q15.75 -81.0 14.7 -82.05 13.75 -83.0 12.4 -83.0 11.0 -83.0 10.1 -82.05 9.0 -81.0 9.0 -79.35 L9.0 -73.45 7.85 -73.45 7.85 -79.35 Q7.85 -81.55 9.15 -82.85 10.5 -84.25 12.4 -84.25 14.25 -84.25 15.65 -82.85 16.95 -81.55 16.95 -79.35 L16.95 -73.45 15.75 -73.45 M4.35 -72.45 L4.35 -71.7 -0.45 -71.7 -0.45 -72.05 -0.45 -72.45 4.35 -72.45 M-11.7 -65.25 L-9.35 -68.0 -7.1 -68.0 -10.3 -65.25 -11.7 -65.25 M10.5 -68.0 L12.35 -65.1 11.35 -65.1 8.65 -68.0 10.5 -68.0 M6.55 -60.55 L-4.35 -60.55 -4.35 -61.95 6.55 -61.95 6.55 -60.55 M0.45 -32.95 L0.45 -17.05 -0.8 -17.05 -0.8 -32.95 0.45 -32.95" fill="#000000" fill-rule="evenodd" stroke="none"/>
  </g>
</svg>
