<?xml version="1.0" encoding="UTF-8" standalone="no"?>
<!DOCTYPE svg PUBLIC "-//W3C//DTD SVG 1.1//EN" "http://www.w3.org/Graphics/SVG/1.1/DTD/svg11.dtd">
<svg width="106px" height="62px" version="1.1" xmlns="http://www.w3.org/2000/svg" xmlns:xlink="http://www.w3.org/1999/xlink" xml:space="preserve" xmlns:serif="http://www.serif.com/" style="fill-rule:evenodd;clip-rule:evenodd;stroke-linejoin:round;stroke-miterlimit:2;">
    <g transform="matrix(1,0,0,1,51.2623,61.25)">
        <path d="M-20.1,-47.05L-20.1,-47.65L39,-47.65L39,-47.05L-20.1,-47.05M39.2,-46.55L40.05,-46.55L40.05,-32.65L38.95,-32.65L38.95,-46.55L39.2,-46.55M39.1,-30.8L40.05,-30.8L40.05,-16.9L38.95,-16.9L38.95,-30.8L39.1,-30.8M38.25,-12.5L38.6,-12.05L38.65,-12L26.7,-2.05L26.45,-2.35L26.1,-2.8L38.05,-12.75L38.25,-12.5M24.3,-0.8L24.3,-0.55L23.2,-0.55L23.2,-14.45L24.3,-14.45L24.3,-0.8M22.25,0.15L22.25,0.75L8.3,0.75L8.3,0.15L22.25,0.15M8.25,0.15L8.25,0.75L-5.7,0.75L-5.7,0.15L8.25,0.15M-5.75,0.15L-5.75,0.75L-19.7,0.75L-19.7,0.15L-5.75,0.15M-19.75,0.15L-19.75,0.75L-33.7,0.75L-33.7,0.15L-19.75,0.15M-35.3,-0.55L-35.95,-0.55L-35.95,-14.45L-34.85,-14.45L-34.85,-0.55L-35.3,-0.55M-35.75,-16.55L-35.95,-16.55L-35.95,-30.45L-34.85,-30.45L-34.85,-16.55L-35.75,-16.55M-35.15,-34.6L-35.3,-34.8L-23.35,-44.75L-23.2,-44.55L-22.75,-44L-34.7,-34.05L-35.15,-34.6M38.45,-44L26.5,-34.05L25.9,-34.8L37.85,-44.75L38.45,-44M24.45,-30.45L24.45,-16.55L23.35,-16.55L23.35,-30.45L24.45,-30.45M22.2,-29.9L-33.75,-29.9L-33.75,-30.5L22.2,-30.5L22.2,-29.9"/>
    </g>
    <g transform="matrix(1,0,0,1,51.2623,61.25)">
        <path d="M39,-47.05L39.05,-47.05L39.2,-46.55L38.95,-46.55L38.95,-32.65L39.1,-32.65L39.1,-30.8L38.95,-30.8L38.95,-13.05L38.25,-12.5L38.05,-12.75L26.1,-2.8L26.45,-2.35L26.25,-2.2L24.3,-0.8L24.3,-14.45L23.2,-14.45L23.2,-0.55L23.55,-0.55L22.35,0.25L22.25,0.15L-33.7,0.15L-33.7,0.25L-35.3,-0.55L-34.85,-0.55L-34.85,-14.45L-35.9,-14.45L-35.75,-16.5L-35.75,-16.55L-34.85,-16.55L-34.85,-30.45L-35.45,-30.45L-35.45,-34.4L-35.15,-34.6L-34.7,-34.05L-22.75,-44L-23.2,-44.55L-23.15,-44.55L-20.25,-47.2L-20.1,-47.05L39,-47.05M22.2,-29.9L22.2,-30.5L-33.75,-30.5L-33.75,-29.9L22.2,-29.9M24.45,-30.45L23.35,-30.45L23.35,-16.55L24.45,-16.55L24.45,-30.45M38.45,-44L37.85,-44.75L25.9,-34.8L26.5,-34.05L38.45,-44" fill="#ffffff"/>
    </g>
    <g transform="matrix(1,0,0,1,51.1006,61.15)">
        <path d="M7.15,-50.15L6.15,-49.7L2.15,-58.45L-1.85,-49.7L-2.9,-50.2L2.15,-61.15L7.2,-50.2L7.15,-50.15M-10.15,-50.2L-11.2,-49.7L-15.2,-58.45L-19.2,-49.7L-20.15,-50.15L-20.25,-50.2L-15.2,-61.15L-10.15,-50.2M-20.05,-45.1L-19.65,-44.7L-20.5,-43.75C-21.633,-42.417 -22.2,-40.933 -22.2,-39.3C-22.2,-38.133 -21.917,-37.033 -21.35,-36L-19.65,-33.95L-20.25,-33.35C-20.983,-34.05 -21.567,-34.783 -22,-35.55C-22.667,-36.717 -23,-37.967 -23,-39.3C-23,-41.233 -22.333,-42.967 -21,-44.5L-20.25,-45.3L-20.05,-45.1M-16.65,-27.95L-16.65,-28.05L-15.6,-28.05L-15.6,-22.9C-15.6,-21.933 -15.283,-21.15 -14.65,-20.55C-14.117,-19.983 -13.45,-19.7 -12.65,-19.7C-11.85,-19.7 -11.167,-19.983 -10.6,-20.55C-10,-21.15 -9.7,-21.933 -9.7,-22.9L-9.7,-28.05L-8.65,-28.05L-8.65,-22.9C-8.65,-21.6 -9.033,-20.567 -9.8,-19.8C-10.6,-19 -11.55,-18.6 -12.65,-18.6C-13.75,-18.6 -14.7,-19 -15.5,-19.8C-16.267,-20.567 -16.65,-21.6 -16.65,-22.9L-16.65,-27.95M-2.65,-27.6L-2.65,-28.05L-1.6,-28.05L-1.6,-22.9C-1.6,-21.933 -1.283,-21.15 -0.65,-20.55C-0.117,-19.983 0.55,-19.7 1.35,-19.7C2.15,-19.7 2.833,-19.983 3.4,-20.55C4,-21.15 4.3,-21.933 4.3,-22.9L4.3,-28.05L5.35,-28.05L5.35,-22.9C5.35,-21.6 4.967,-20.567 4.2,-19.8C3.4,-19 2.45,-18.6 1.35,-18.6C0.25,-18.6 -0.7,-19 -1.5,-19.8C-2.267,-20.567 -2.65,-21.6 -2.65,-22.9L-2.65,-27.6M9.15,-33.35L8.55,-33.95C10.217,-35.517 11.05,-37.3 11.05,-39.3C11.05,-41.3 10.217,-43.1 8.55,-44.7L8.8,-44.9L9.15,-45.3C10.517,-43.967 11.367,-42.483 11.7,-40.85L11.85,-39.3L11.75,-38.05C11.483,-36.317 10.617,-34.75 9.15,-33.35M26.5,-34.05L25.9,-34.8L37.85,-44.75L38.4,-44.05L38.45,-44L26.5,-34.05M40.1,-44.2L40.5,-44.75L52.45,-34.8L51.85,-34.05L39.9,-44L40.1,-44.2M52.2,-28.75L52.8,-28L40.85,-18.05L40.6,-18.35L40.25,-18.75L40.25,-18.8L52.2,-28.75M38.8,-18.8L38.2,-18.05L26.25,-28L26.85,-28.75L38.8,-18.8M4.05,-45.7L3.45,-45.5C3.283,-45.367 3.2,-45.167 3.2,-44.9C3.2,-44.633 3.283,-44.433 3.45,-44.3C3.583,-44.133 3.783,-44.05 4.05,-44.05L4.65,-44.3L4.85,-44.9L4.65,-45.5L4.05,-45.7M4.9,-45.75C5.167,-45.517 5.3,-45.233 5.3,-44.9C5.3,-44.567 5.167,-44.267 4.9,-44C4.667,-43.767 4.383,-43.65 4.05,-43.65C3.717,-43.65 3.417,-43.767 3.15,-44C2.917,-44.267 2.8,-44.567 2.8,-44.9C2.8,-45.233 2.917,-45.517 3.15,-45.75C3.417,-46.017 3.717,-46.15 4.05,-46.15C4.383,-46.15 4.667,-46.017 4.9,-45.75M1.4,-39.1L-8.1,-39.1L-8.1,-40.3L1.4,-40.3L1.4,-39.1M-50.35,-18.8L-38.4,-28.75L-37.8,-28L-49.75,-18.05L-50.35,-18.8M-11.5,-44.9L-11.25,-44.3C-11.117,-44.133 -10.917,-44.05 -10.65,-44.05C-10.417,-44.05 -10.217,-44.133 -10.05,-44.3L-9.85,-44.9L-10.05,-45.5L-10.65,-45.7L-11.25,-45.5L-11.5,-44.9M-10.65,-46.15C-10.317,-46.15 -10.033,-46.017 -9.8,-45.75L-9.4,-44.9C-9.4,-44.567 -9.533,-44.267 -9.8,-44C-10.033,-43.767 -10.317,-43.65 -10.65,-43.65C-10.983,-43.65 -11.283,-43.767 -11.55,-44C-11.783,-44.267 -11.9,-44.567 -11.9,-44.9C-11.9,-45.233 -11.783,-45.517 -11.55,-45.75L-10.65,-46.15M-15.2,-42.8L-15.3,-40.2L-13.05,-41.6L-12.5,-40.65L-14.85,-39.45L-12.5,-38.2L-13.05,-37.25L-15.3,-38.65L-15.2,-35.85L-16.3,-35.85L-16.2,-38.65L-18.45,-37.25L-19,-38.2L-16.6,-39.45L-19,-40.65L-18.45,-41.6L-16.2,-40.2L-16.3,-42.8L-15.2,-42.8"/>
    </g>
    <g transform="matrix(1,0,0,1,51.1006,61.15)">
        <path d="M-2.9,-50.2L-1.85,-49.7L2.15,-58.45L6.15,-49.7L7.15,-50.15L8.55,-45.15L8.8,-44.9L8.55,-44.7C10.217,-43.1 11.05,-41.3 11.05,-39.3C11.05,-37.3 10.217,-35.517 8.55,-33.95L9.15,-33.35L5.3,-29.7L5.15,-29.2L4.85,-28.3L4.85,-28.05L4.3,-28.05L4.3,-22.9C4.3,-21.933 4,-21.15 3.4,-20.55C2.833,-19.983 2.15,-19.7 1.35,-19.7C0.55,-19.7 -0.117,-19.983 -0.65,-20.55C-1.283,-21.15 -1.6,-21.933 -1.6,-22.9L-1.6,-28.05L-2.65,-28.05L-2.65,-27.6L-3.6,-27.85L-8.65,-27.55L-8.65,-28.05L-9.7,-28.05L-9.7,-22.9C-9.7,-21.933 -10,-21.15 -10.6,-20.55C-11.167,-19.983 -11.85,-19.7 -12.65,-19.7C-13.45,-19.7 -14.117,-19.983 -14.65,-20.55C-15.283,-21.15 -15.6,-21.933 -15.6,-22.9L-15.6,-28.05L-16.65,-28.05L-16.65,-27.95L-17,-27.95C-16.833,-28.15 -16.867,-28.417 -17.1,-28.75L-20.1,-33.4L-20.15,-33.45L-19.65,-33.95L-21.35,-36C-21.917,-37.033 -22.2,-38.133 -22.2,-39.3C-22.2,-40.933 -21.633,-42.417 -20.5,-43.75L-19.65,-44.7L-20.05,-45.1L-20.05,-45.3L-20.15,-50.15L-19.2,-49.7L-15.2,-58.45L-11.2,-49.7L-10.15,-50.2L-5,-50.55L-2.85,-50.3L-2.9,-50.2M26.85,-28.75L26.4,-28.3C25.7,-28.833 25.05,-29.483 24.45,-30.25L24.15,-30.85C24.017,-32.05 24.633,-33.25 26,-34.45L26.5,-34.05L38.45,-44L38.45,-44.05C38.983,-44.517 39.533,-44.567 40.1,-44.2L39.9,-44L51.85,-34.05L52.1,-34.25C53.367,-33.05 54.133,-31.767 54.4,-30.4L54.25,-29.95C53.75,-29.25 53.183,-28.717 52.55,-28.35L52.2,-28.75L40.25,-18.8L40.25,-18.75L40.6,-18.35L38.65,-18.3L38.8,-18.8L26.85,-28.75M1.4,-39.1L1.4,-40.3L-8.1,-40.3L-8.1,-39.1L1.4,-39.1M4.9,-45.75C4.667,-46.017 4.383,-46.15 4.05,-46.15C3.717,-46.15 3.417,-46.017 3.15,-45.75C2.917,-45.517 2.8,-45.233 2.8,-44.9C2.8,-44.567 2.917,-44.267 3.15,-44C3.417,-43.767 3.717,-43.65 4.05,-43.65C4.383,-43.65 4.667,-43.767 4.9,-44C5.167,-44.267 5.3,-44.567 5.3,-44.9C5.3,-45.233 5.167,-45.517 4.9,-45.75M4.05,-45.7L4.65,-45.5L4.85,-44.9L4.65,-44.3L4.05,-44.05C3.783,-44.05 3.583,-44.133 3.45,-44.3C3.283,-44.433 3.2,-44.633 3.2,-44.9C3.2,-45.167 3.283,-45.367 3.45,-45.5L4.05,-45.7M-15.2,-42.8L-16.3,-42.8L-16.2,-40.2L-18.45,-41.6L-19,-40.65L-16.6,-39.45L-19,-38.2L-18.45,-37.25L-16.2,-38.65L-16.3,-35.85L-15.2,-35.85L-15.3,-38.65L-13.05,-37.25L-12.5,-38.2L-14.85,-39.45L-12.5,-40.65L-13.05,-41.6L-15.3,-40.2L-15.2,-42.8M-10.65,-46.15L-11.55,-45.75C-11.783,-45.517 -11.9,-45.233 -11.9,-44.9C-11.9,-44.567 -11.783,-44.267 -11.55,-44C-11.283,-43.767 -10.983,-43.65 -10.65,-43.65C-10.317,-43.65 -10.033,-43.767 -9.8,-44C-9.533,-44.267 -9.4,-44.567 -9.4,-44.9L-9.8,-45.75C-10.033,-46.017 -10.317,-46.15 -10.65,-46.15M-11.5,-44.9L-11.25,-45.5L-10.65,-45.7L-10.05,-45.5L-9.85,-44.9L-10.05,-44.3C-10.217,-44.133 -10.417,-44.05 -10.65,-44.05C-10.917,-44.05 -11.117,-44.133 -11.25,-44.3L-11.5,-44.9" fill="#ffffff" />
    </g>
</svg>
