<svg xmlns:xlink="http://www.w3.org/1999/xlink" height="134.2px" width="61.5px" xmlns="http://www.w3.org/2000/svg">
  <g transform="matrix(1.0, 0.0, 0.0, 1.0, 33.75, 133.95)">
    <path d="M-31.7 -125.85 L-32.45 -125.85 -32.45 -130.3 Q-32.45 -131.95 -31.5 -132.9 -30.45 -133.95 -29.05 -133.95 -27.65 -133.95 -26.6 -132.9 -25.6 -131.95 -25.6 -130.3 L-25.6 -125.85 -26.5 -125.85 -26.5 -130.3 Q-26.5 -131.5 -27.3 -132.3 -28.0 -133.0 -29.05 -133.0 -30.1 -133.0 -30.8 -132.3 -31.6 -131.5 -31.6 -130.3 L-31.6 -125.85 -31.7 -125.85 M-26.25 -118.05 L-23.25 -119.1 -20.95 -119.5 Q-19.7 -119.5 -18.9 -118.8 -17.85 -117.85 -17.95 -115.9 -18.05 -113.95 -19.45 -112.9 -20.75 -111.95 -23.15 -111.95 L-23.35 -113.0 Q-20.65 -113.0 -19.65 -114.15 -18.9 -114.9 -18.95 -116.3 -18.95 -117.3 -19.5 -117.9 -19.95 -118.45 -20.8 -118.5 L-23.2 -118.05 -25.8 -116.9 -26.25 -118.05 M-21.75 -105.0 L-21.75 -106.05 -20.65 -106.05 -20.65 -105.0 -21.05 -104.15 -21.3 -103.6 -21.75 -103.6 -21.4 -104.6 -21.3 -105.0 -21.75 -105.0 M-19.6 -102.85 L-17.1 -103.7 -15.3 -104.0 Q-14.35 -104.0 -13.7 -103.4 -12.95 -102.75 -12.9 -101.7 -12.8 -99.65 -14.1 -98.75 -15.15 -97.95 -17.1 -97.95 L-17.3 -98.8 Q-15.15 -98.8 -14.35 -99.7 -13.8 -100.3 -13.75 -101.25 -13.7 -102.15 -14.15 -102.65 -14.6 -103.25 -15.3 -103.25 L-17.0 -102.85 -19.2 -101.9 -19.6 -102.85 M-8.8 -96.55 L3.15 -96.55 3.15 -96.05 -8.8 -96.05 -8.8 -96.55 M6.85 -97.75 L6.25 -97.7 Q5.25 -97.7 4.6 -98.35 3.75 -99.2 3.75 -100.4 3.75 -101.7 4.5 -102.45 5.2 -103.15 6.25 -103.15 7.35 -103.15 7.95 -102.55 8.45 -102.05 8.55 -101.3 L7.5 -101.3 7.15 -102.0 Q6.85 -102.3 6.3 -102.3 5.75 -102.3 5.35 -101.9 4.8 -101.35 4.8 -100.35 4.8 -99.45 5.3 -98.9 5.7 -98.55 6.25 -98.55 6.9 -98.55 7.3 -98.9 L7.45 -99.05 7.65 -99.9 8.7 -99.9 Q8.65 -98.9 8.05 -98.3 7.6 -97.85 6.85 -97.75 M6.95 -112.55 L3.1 -112.55 Q1.45 -112.55 0.45 -113.55 -0.55 -114.55 -0.55 -115.95 -0.55 -117.35 0.45 -118.4 1.45 -119.4 3.1 -119.4 L6.9 -119.4 7.55 -119.4 7.55 -118.5 3.1 -118.5 Q1.9 -118.5 1.1 -117.7 0.4 -117.0 0.4 -115.95 0.4 -114.95 1.1 -114.25 1.9 -113.45 3.1 -113.45 L7.55 -113.45 7.55 -112.55 6.95 -112.55 M6.5 -125.85 L6.4 -125.85 6.4 -130.3 Q6.4 -131.95 7.35 -132.9 8.4 -133.95 9.8 -133.95 11.2 -133.95 12.25 -132.9 13.25 -131.95 13.25 -130.3 L13.25 -125.85 12.35 -125.85 12.35 -130.3 Q12.35 -131.5 11.55 -132.3 10.85 -133.0 9.8 -133.0 8.75 -133.0 8.05 -132.3 7.25 -131.5 7.25 -130.3 L7.25 -125.85 6.5 -125.85 M13.45 -121.95 L13.45 -110.05 12.5 -110.05 12.5 -121.95 13.45 -121.95 M12.5 -105.85 L13.6 -105.85 13.35 -100.55 12.6 -100.55 12.3 -105.85 12.5 -105.85 M12.95 -98.85 L13.5 -98.85 13.5 -97.85 12.45 -97.85 12.45 -98.85 12.95 -98.85 M12.35 -91.9 L12.9 -92.5 23.1 -84.0 22.6 -83.35 12.35 -91.9 M27.1 -77.85 L27.75 -77.85 22.8 -69.4 17.9 -77.85 27.1 -77.85 M21.05 -65.0 Q23.4 -62.8 23.4 -59.85 23.4 -56.95 21.05 -54.75 L20.55 -55.3 Q22.7 -57.3 22.7 -59.85 22.7 -62.45 20.55 -64.45 L21.05 -65.0 M16.2 -50.55 L16.7 -51.05 Q17.9 -49.9 18.45 -48.8 19.05 -47.55 19.05 -45.9 19.05 -44.45 18.45 -43.2 L16.7 -40.7 16.2 -41.25 17.85 -43.55 Q18.35 -44.65 18.35 -45.9 18.35 -47.4 17.85 -48.5 L16.7 -50.05 16.2 -50.55 M15.25 -37.95 L16.2 -37.95 16.2 -26.05 15.25 -26.05 15.25 -37.95 M15.5 -22.3 L16.5 -21.8 Q16.85 -21.6 16.5 -21.55 15.55 -16.25 12.6 -13.6 L11.85 -14.6 Q14.6 -16.85 15.5 -22.3 M8.95 -7.85 L9.95 -7.85 9.95 -2.2 Q9.95 -1.15 9.3 -0.5 8.55 0.25 6.95 0.25 5.35 0.25 4.6 -0.5 3.95 -1.15 3.95 -2.2 L3.95 -7.85 5.0 -7.85 5.0 -2.25 Q5.0 -1.55 5.45 -1.15 5.95 -0.65 6.95 -0.65 7.95 -0.65 8.45 -1.15 8.85 -1.55 8.85 -2.25 L8.85 -7.85 8.95 -7.85 M1.5 -7.85 L0.85 -6.95 0.0 -6.95 0.45 -7.85 1.2 -9.3 2.5 -9.3 1.5 -7.85 M-0.75 -7.85 L-1.4 -6.95 -2.25 -6.95 -1.8 -7.85 -1.05 -9.3 0.25 -9.3 -0.75 -7.85 M-3.75 -7.85 L-3.75 -2.2 Q-3.75 -1.15 -4.4 -0.5 -5.15 0.25 -6.75 0.25 -8.35 0.25 -9.1 -0.5 -9.75 -1.15 -9.75 -2.2 L-9.75 -7.85 -8.7 -7.85 -8.7 -2.25 Q-8.7 -1.55 -8.25 -1.15 -7.75 -0.65 -6.75 -0.65 -5.75 -0.65 -5.25 -1.15 -4.85 -1.55 -4.85 -2.25 L-4.85 -7.85 -3.75 -7.85 M-14.65 -14.85 L-14.65 -13.85 -15.75 -13.85 -15.75 -14.85 -14.65 -14.85 M-19.55 -15.45 L-18.95 -14.8 Q-19.7 -13.7 -20.7 -13.7 -21.4 -13.7 -21.75 -14.05 -22.1 -14.4 -21.85 -15.35 L-20.55 -20.2 -19.7 -20.2 -21.0 -15.25 -21.0 -14.75 Q-20.85 -14.6 -20.6 -14.6 -20.05 -14.6 -19.55 -15.45 M-19.95 -26.05 L-20.9 -26.05 -20.9 -37.95 -19.95 -37.95 -19.95 -26.05 M-19.9 -40.05 L-20.85 -40.05 -20.85 -51.95 -20.75 -51.95 -19.9 -51.95 -19.9 -40.05 M-20.95 -54.05 L-20.95 -65.95 -20.0 -65.95 -20.0 -54.05 -20.95 -54.05 M-21.35 -68.05 L-22.25 -68.05 -22.25 -80.0 -21.35 -80.0 -21.35 -68.05 M-25.65 -85.0 L-25.65 -84.55 -30.1 -84.55 Q-31.75 -84.55 -32.75 -85.55 -33.75 -86.55 -33.75 -87.95 -33.75 -89.35 -32.75 -90.4 -31.75 -91.4 -30.1 -91.4 L-25.65 -91.4 -25.65 -90.5 -30.1 -90.5 Q-31.3 -90.5 -32.1 -89.7 -32.8 -89.0 -32.8 -87.95 -32.8 -86.95 -32.1 -86.25 -31.3 -85.45 -30.1 -85.45 L-25.65 -85.45 -25.65 -85.0 M-23.75 -96.55 L-24.2 -96.55 -24.15 -96.7 -23.75 -97.85 -24.2 -97.85 -24.2 -98.85 -23.1 -98.85 -23.1 -97.85 -23.75 -96.55 M-30.25 -100.55 L-30.5 -105.2 -30.55 -105.85 -29.25 -105.85 -29.5 -100.55 -30.25 -100.55 M-31.3 -110.7 L-31.3 -110.05 -32.25 -110.05 -32.25 -121.95 -31.3 -121.95 -31.3 -110.7 M-29.35 -98.85 L-29.35 -97.85 -30.4 -97.85 -30.4 -98.85 -29.35 -98.85 M11.0 -98.85 L11.0 -97.85 10.35 -96.55 9.9 -96.55 10.35 -97.85 9.9 -97.85 9.9 -98.85 11.0 -98.85 M-1.85 -87.05 L-3.9 -87.05 -3.9 -89.05 -1.85 -89.05 -1.85 -87.05 M16.1 -69.85 L15.45 -68.55 15.0 -68.55 15.45 -69.85 15.0 -69.85 15.0 -70.85 16.1 -70.85 16.1 -69.85 M13.65 -69.85 L13.0 -68.55 12.55 -68.55 13.0 -69.85 12.55 -69.85 12.55 -70.85 13.65 -70.85 13.65 -69.85 M11.8 -68.05 L-0.15 -68.05 -0.15 -68.55 11.8 -68.55 11.8 -68.05 M9.45 -64.95 L14.6 -64.95 14.6 -56.7 15.65 -56.7 15.65 -54.1 14.75 -54.1 14.75 -55.8 8.15 -55.8 8.15 -54.1 7.25 -54.1 7.25 -56.7 8.05 -56.7 Q9.45 -58.65 9.45 -61.7 L9.45 -64.95 M10.35 -61.7 Q10.35 -58.6 9.1 -56.7 L13.65 -56.7 13.65 -64.05 10.35 -64.05 10.35 -61.7 M17.75 -64.65 L18.05 -65.4 Q18.4 -65.75 18.8 -65.75 19.25 -65.75 19.55 -65.4 L19.9 -64.65 19.55 -63.9 Q19.25 -63.55 18.8 -63.55 18.4 -63.55 18.05 -63.9 17.75 -64.25 17.75 -64.65 M-0.2 -68.05 L-12.15 -68.05 -12.15 -68.55 -0.2 -68.55 -0.2 -68.05 M3.55 -64.15 Q3.75 -63.95 4.05 -63.95 4.4 -63.95 4.6 -64.15 L4.75 -64.65 4.6 -65.15 Q4.4 -65.35 4.05 -65.35 L3.55 -65.15 3.35 -64.65 3.55 -64.15 M5.15 -64.65 L4.8 -63.9 Q4.5 -63.55 4.05 -63.55 3.65 -63.55 3.3 -63.9 3.0 -64.25 3.0 -64.65 L3.3 -65.4 Q3.65 -65.75 4.05 -65.75 L4.8 -65.4 5.15 -64.65 M0.95 -55.85 L0.95 -56.85 2.05 -56.85 2.05 -55.85 1.4 -54.55 0.95 -54.55 1.4 -55.85 0.95 -55.85 M-1.5 -55.85 L-1.5 -56.85 -0.4 -56.85 -0.4 -55.85 -1.05 -54.55 -1.5 -54.55 -1.05 -55.85 -1.5 -55.85 M14.35 -51.95 L14.35 -40.05 13.4 -40.05 13.4 -51.95 14.35 -51.95 M19.5 -64.65 L19.35 -65.15 18.8 -65.35 18.3 -65.15 18.1 -64.65 18.3 -64.15 18.8 -63.95 19.35 -64.15 19.5 -64.65 M-23.15 -83.6 L-18.2 -92.45 -17.75 -92.2 -22.7 -83.3 -23.15 -83.6 M-2.55 -64.45 Q-4.7 -62.45 -4.7 -59.85 -4.7 -57.3 -2.55 -55.3 L-3.1 -54.75 Q-5.45 -56.95 -5.45 -59.85 -5.45 -62.8 -3.1 -65.0 L-2.55 -64.45 M-17.2 -60.75 L-15.7 -60.75 -15.7 -59.3 -17.2 -59.3 -17.2 -60.75 M-10.35 -50.55 Q-11.5 -49.5 -11.95 -48.5 -12.5 -47.4 -12.5 -45.9 -12.5 -44.65 -11.95 -43.55 L-10.35 -41.25 -10.85 -40.7 -12.6 -43.2 Q-13.2 -44.45 -13.2 -45.9 -13.2 -47.55 -12.6 -48.8 L-10.85 -51.05 -10.35 -50.55 M-4.2 -49.8 Q-3.85 -49.6 -4.2 -49.55 -5.15 -44.25 -8.1 -41.6 L-8.85 -42.6 Q-6.1 -44.85 -5.2 -50.3 L-4.2 -49.8 M-14.65 -32.75 L-14.65 -31.3 -16.15 -31.3 -16.15 -32.75 -14.65 -32.75 M-3.1 -28.85 L-2.0 -28.85 -2.0 -27.85 -3.1 -27.85 -3.1 -28.85 M-9.35 -31.3 L-10.85 -31.3 -10.85 -32.75 -9.35 -32.75 -9.35 -31.3 M-10.0 -19.05 L-10.0 -17.05 -12.05 -17.05 -12.05 -19.05 -10.0 -19.05 M-7.3 -14.85 L-6.2 -14.85 -6.2 -13.85 -6.85 -12.55 -7.3 -12.55 -6.85 -13.85 -7.3 -13.85 -7.3 -14.85 M-4.4 -12.55 L-4.85 -12.55 -4.4 -13.85 -4.85 -13.85 -4.85 -14.85 -3.75 -14.85 -3.75 -13.85 -4.4 -12.55 M8.85 -12.05 L-3.1 -12.05 -3.1 -12.55 8.85 -12.55 8.85 -12.05 M5.2 -37.15 L5.2 -36.25 9.7 -36.25 9.7 -35.5 1.1 -35.5 1.1 -34.2 3.15 -34.2 3.15 -35.05 3.9 -35.05 Q4.3 -35.0 3.95 -34.8 L3.95 -34.2 5.8 -34.2 5.8 -35.05 6.55 -35.05 Q6.95 -35.0 6.6 -34.8 L6.6 -34.2 9.05 -34.2 9.05 -31.7 1.1 -31.7 1.1 -31.0 Q1.1 -28.3 0.0 -26.75 L-0.75 -27.45 Q0.15 -28.65 0.15 -30.95 L0.15 -36.25 4.3 -36.25 4.3 -37.45 5.15 -37.45 Q5.55 -37.4 5.2 -37.15 M5.1 -30.3 L5.1 -29.45 3.3 -29.45 3.3 -28.05 5.25 -28.4 5.5 -27.6 1.65 -26.8 Q1.4 -26.5 1.35 -26.65 L1.05 -27.75 2.35 -27.9 2.35 -31.3 3.25 -31.3 Q3.6 -31.25 3.3 -31.05 L3.3 -30.3 5.1 -30.3 M6.6 -30.1 L8.8 -30.85 9.25 -30.2 Q9.55 -29.8 9.1 -29.95 L6.6 -29.2 6.6 -28.15 Q6.6 -27.9 6.85 -27.9 L8.55 -27.9 8.85 -28.1 9.05 -28.95 10.0 -28.7 9.7 -27.65 Q9.55 -27.0 8.8 -27.0 L6.55 -27.0 Q5.7 -27.0 5.7 -27.9 L5.7 -31.35 6.55 -31.35 Q6.95 -31.3 6.6 -31.05 L6.6 -30.1 M6.6 -32.45 L8.25 -32.45 8.25 -33.45 6.6 -33.45 6.6 -32.45 M3.95 -32.45 L5.8 -32.45 5.8 -33.45 3.95 -33.45 3.95 -32.45 M3.15 -33.45 L1.1 -33.45 1.1 -32.45 3.15 -32.45 3.15 -33.45 M9.6 -13.85 L9.6 -14.85 10.7 -14.85 10.7 -13.85 10.05 -12.55 9.6 -12.55 10.05 -13.85 9.6 -13.85" fill="#000000" fill-rule="evenodd" stroke="none"/>
    <path d="M-26.5 -125.85 Q-26.0 -121.8 -26.25 -118.05 L-25.8 -116.9 -23.2 -118.05 -20.8 -118.5 Q-19.95 -118.45 -19.5 -117.9 -18.95 -117.3 -18.95 -116.3 -18.9 -114.9 -19.65 -114.15 -20.65 -113.0 -23.35 -113.0 L-23.15 -111.95 Q-23.7 -107.95 -21.75 -105.0 L-21.4 -104.6 -21.75 -103.6 -21.3 -103.6 -21.05 -104.15 -19.6 -102.85 -19.2 -101.9 -17.0 -102.85 -15.3 -103.25 Q-14.6 -103.25 -14.15 -102.65 -13.7 -102.15 -13.75 -101.25 -13.8 -100.3 -14.35 -99.7 -15.15 -98.8 -17.3 -98.8 L-17.1 -97.95 Q-15.4 -97.6 -13.8 -96.85 L-13.0 -96.8 -8.8 -96.55 -8.8 -96.05 3.15 -96.05 3.15 -96.55 Q5.75 -96.1 6.85 -97.75 7.6 -97.85 8.05 -98.3 8.65 -98.9 8.7 -99.9 L7.65 -99.9 7.45 -99.05 7.3 -98.9 Q6.9 -98.55 6.25 -98.55 5.7 -98.55 5.3 -98.9 4.8 -99.45 4.8 -100.35 4.8 -101.35 5.35 -101.9 5.75 -102.3 6.3 -102.3 6.85 -102.3 7.15 -102.0 L7.5 -101.3 8.55 -101.3 Q8.75 -102.65 8.05 -104.15 6.9 -106.75 7.2 -109.85 7.35 -111.25 6.95 -112.55 L7.55 -112.55 7.55 -113.45 3.1 -113.45 Q1.9 -113.45 1.1 -114.25 0.4 -114.95 0.4 -115.95 0.4 -117.0 1.1 -117.7 1.9 -118.5 3.1 -118.5 L7.55 -118.5 7.55 -119.4 6.9 -119.4 Q7.1 -121.35 6.7 -123.05 6.55 -123.75 6.55 -124.45 L6.5 -125.85 7.25 -125.85 7.25 -130.3 Q7.25 -131.5 8.05 -132.3 8.75 -133.0 9.8 -133.0 10.85 -133.0 11.55 -132.3 12.35 -131.5 12.35 -130.3 L12.35 -125.85 13.45 -121.95 12.5 -121.95 12.5 -110.05 Q12.8 -107.8 12.5 -105.85 L12.3 -105.85 12.6 -100.55 13.35 -100.55 12.95 -98.85 12.45 -98.85 12.45 -97.85 12.5 -97.8 10.9 -94.85 Q11.35 -93.7 12.35 -91.9 L22.6 -83.35 Q25.4 -81.55 26.95 -78.7 L27.1 -77.85 17.9 -77.85 22.8 -69.4 Q20.0 -69.05 18.6 -67.55 19.85 -65.95 21.05 -65.0 L20.55 -64.45 Q22.7 -62.45 22.7 -59.85 22.7 -57.3 20.55 -55.3 L21.05 -54.75 14.55 -53.05 Q15.15 -51.85 16.2 -50.55 L16.7 -50.05 17.85 -48.5 Q18.35 -47.4 18.35 -45.9 18.35 -44.65 17.85 -43.55 L16.2 -41.25 16.7 -40.7 Q14.85 -39.85 15.25 -37.95 L15.25 -26.05 16.2 -26.05 15.5 -22.3 Q14.6 -16.85 11.85 -14.6 L12.6 -13.6 Q11.35 -12.95 10.1 -12.45 L8.85 -12.05 Q8.65 -11.45 8.8 -10.65 L9.05 -8.65 8.95 -7.85 8.85 -7.85 8.85 -2.25 Q8.85 -1.55 8.45 -1.15 7.95 -0.65 6.95 -0.65 5.95 -0.65 5.45 -1.15 5.0 -1.55 5.0 -2.25 L5.0 -7.85 3.95 -7.85 1.5 -7.85 2.5 -9.3 1.2 -9.3 0.45 -7.85 -0.75 -7.85 0.25 -9.3 -1.05 -9.3 -1.8 -7.85 -3.75 -7.85 -4.85 -7.85 -4.85 -2.25 Q-4.85 -1.55 -5.25 -1.15 -5.75 -0.65 -6.75 -0.65 -7.75 -0.65 -8.25 -1.15 -8.7 -1.55 -8.7 -2.25 L-8.7 -7.85 -9.75 -7.85 Q-10.75 -11.95 -13.35 -14.1 L-14.65 -14.85 Q-15.3 -16.25 -17.3 -16.65 -18.35 -16.85 -19.0 -15.9 L-19.55 -15.45 Q-20.05 -14.6 -20.6 -14.6 -20.85 -14.6 -21.0 -14.75 L-21.0 -15.25 -19.7 -20.2 Q-20.1 -23.45 -19.95 -26.05 L-19.95 -37.95 -20.9 -37.95 Q-20.25 -38.95 -19.9 -40.05 L-19.9 -51.95 -20.75 -51.95 Q-20.7 -53.0 -20.95 -54.05 L-20.0 -54.05 -20.0 -65.95 -20.95 -65.95 -21.35 -68.05 -21.35 -80.0 -22.25 -80.0 -22.8 -81.85 -23.15 -83.6 Q-24.3 -85.0 -25.65 -85.0 L-25.65 -85.45 -30.1 -85.45 Q-31.3 -85.45 -32.1 -86.25 -32.8 -86.95 -32.8 -87.95 -32.8 -89.0 -32.1 -89.7 -31.3 -90.5 -30.1 -90.5 L-25.65 -90.5 -25.65 -91.4 -25.2 -92.75 Q-24.65 -95.05 -23.75 -96.55 L-23.1 -97.85 -23.1 -98.85 -24.2 -98.85 -24.2 -97.85 -23.75 -97.85 -24.15 -96.7 -26.4 -97.8 -27.0 -98.0 Q-29.2 -98.35 -30.25 -100.55 L-29.5 -100.55 -29.25 -105.85 -30.55 -105.85 -30.5 -105.2 Q-31.1 -107.85 -31.3 -110.7 L-31.3 -121.95 -32.25 -121.95 -31.7 -125.85 -31.6 -125.85 -31.6 -130.3 Q-31.6 -131.5 -30.8 -132.3 -30.1 -133.0 -29.05 -133.0 -28.0 -133.0 -27.3 -132.3 -26.5 -131.5 -26.5 -130.3 L-26.5 -125.85 M9.6 -13.85 L10.05 -13.85 9.6 -12.55 10.05 -12.55 10.7 -13.85 10.7 -14.85 9.6 -14.85 9.6 -13.85 M3.15 -33.45 L3.15 -32.45 1.1 -32.45 1.1 -33.45 3.15 -33.45 M3.95 -32.45 L3.95 -33.45 5.8 -33.45 5.8 -32.45 3.95 -32.45 M6.6 -32.45 L6.6 -33.45 8.25 -33.45 8.25 -32.45 6.6 -32.45 M6.6 -30.1 L6.6 -31.05 Q6.95 -31.3 6.55 -31.35 L5.7 -31.35 5.7 -27.9 Q5.7 -27.0 6.55 -27.0 L8.8 -27.0 Q9.55 -27.0 9.7 -27.65 L10.0 -28.7 9.05 -28.95 8.85 -28.1 8.55 -27.9 6.85 -27.9 Q6.6 -27.9 6.6 -28.15 L6.6 -29.2 9.1 -29.95 Q9.55 -29.8 9.25 -30.2 L8.8 -30.85 6.6 -30.1 M5.1 -30.3 L3.3 -30.3 3.3 -31.05 Q3.6 -31.25 3.25 -31.3 L2.35 -31.3 2.35 -27.9 1.05 -27.75 1.35 -26.65 Q1.4 -26.5 1.65 -26.8 L5.5 -27.6 5.25 -28.4 3.3 -28.05 3.3 -29.45 5.1 -29.45 5.1 -30.3 M5.2 -37.15 Q5.55 -37.4 5.15 -37.45 L4.3 -37.45 4.3 -36.25 0.15 -36.25 0.15 -30.95 Q0.15 -28.65 -0.75 -27.45 L0.0 -26.75 Q1.1 -28.3 1.1 -31.0 L1.1 -31.7 9.05 -31.7 9.05 -34.2 6.6 -34.2 6.6 -34.8 Q6.95 -35.0 6.55 -35.05 L5.8 -35.05 5.8 -34.2 3.95 -34.2 3.95 -34.8 Q4.3 -35.0 3.9 -35.05 L3.15 -35.05 3.15 -34.2 1.1 -34.2 1.1 -35.5 9.7 -35.5 9.7 -36.25 5.2 -36.25 5.2 -37.15 M8.85 -12.05 L8.85 -12.55 -3.1 -12.55 -3.1 -12.05 8.85 -12.05 M-4.4 -12.55 L-3.75 -13.85 -3.75 -14.85 -4.85 -14.85 -4.85 -13.85 -4.4 -13.85 -4.85 -12.55 -4.4 -12.55 M-7.3 -14.85 L-7.3 -13.85 -6.85 -13.85 -7.3 -12.55 -6.85 -12.55 -6.2 -13.85 -6.2 -14.85 -7.3 -14.85 M-10.0 -19.05 L-12.05 -19.05 -12.05 -17.05 -10.0 -17.05 -10.0 -19.05 M-9.35 -31.3 L-9.35 -32.75 -10.85 -32.75 -10.85 -31.3 -9.35 -31.3 M-3.1 -28.85 L-3.1 -27.85 -2.0 -27.85 -2.0 -28.85 -3.1 -28.85 M-14.65 -32.75 L-16.15 -32.75 -16.15 -31.3 -14.65 -31.3 -14.65 -32.75 M-4.2 -49.8 L-5.2 -50.3 Q-6.1 -44.85 -8.85 -42.6 L-8.1 -41.6 Q-5.15 -44.25 -4.2 -49.55 -3.85 -49.6 -4.2 -49.8 M-10.35 -50.55 L-10.85 -51.05 -12.6 -48.8 Q-13.2 -47.55 -13.2 -45.9 -13.2 -44.45 -12.6 -43.2 L-10.85 -40.7 -10.35 -41.25 -11.95 -43.55 Q-12.5 -44.65 -12.5 -45.9 -12.5 -47.4 -11.95 -48.5 -11.5 -49.5 -10.35 -50.55 M-17.2 -60.75 L-17.2 -59.3 -15.7 -59.3 -15.7 -60.75 -17.2 -60.75 M-2.55 -64.45 L-3.1 -65.0 Q-5.45 -62.8 -5.45 -59.85 -5.45 -56.95 -3.1 -54.75 L-2.55 -55.3 Q-4.7 -57.3 -4.7 -59.85 -4.7 -62.45 -2.55 -64.45 M-23.15 -83.6 L-22.7 -83.3 -17.75 -92.2 -18.2 -92.45 -23.15 -83.6 M19.5 -64.65 L19.35 -64.15 18.8 -63.95 18.3 -64.15 18.1 -64.65 18.3 -65.15 18.8 -65.35 19.35 -65.15 19.5 -64.65 M14.35 -51.95 L13.4 -51.95 13.4 -40.05 14.35 -40.05 14.35 -51.95 M-1.5 -55.85 L-1.05 -55.85 -1.5 -54.55 -1.05 -54.55 -0.4 -55.85 -0.4 -56.85 -1.5 -56.85 -1.5 -55.85 M0.95 -55.85 L1.4 -55.85 0.95 -54.55 1.4 -54.55 2.05 -55.85 2.05 -56.85 0.95 -56.85 0.95 -55.85 M5.15 -64.65 L4.8 -65.4 4.05 -65.75 Q3.65 -65.75 3.3 -65.4 L3.0 -64.65 Q3.0 -64.25 3.3 -63.9 3.65 -63.55 4.05 -63.55 4.5 -63.55 4.8 -63.9 L5.15 -64.65 M3.55 -64.15 L3.35 -64.65 3.55 -65.15 4.05 -65.35 Q4.4 -65.35 4.6 -65.15 L4.75 -64.65 4.6 -64.15 Q4.4 -63.95 4.05 -63.95 3.75 -63.95 3.55 -64.15 M-0.2 -68.05 L-0.2 -68.55 -12.15 -68.55 -12.15 -68.05 -0.2 -68.05 M17.75 -64.65 Q17.75 -64.25 18.05 -63.9 18.4 -63.55 18.8 -63.55 19.25 -63.55 19.55 -63.9 L19.9 -64.65 19.55 -65.4 Q19.25 -65.75 18.8 -65.75 18.4 -65.75 18.05 -65.4 L17.75 -64.65 M10.35 -61.7 L10.35 -64.05 13.65 -64.05 13.65 -56.7 9.1 -56.7 Q10.35 -58.6 10.35 -61.7 M9.45 -64.95 L9.45 -61.7 Q9.45 -58.65 8.05 -56.7 L7.25 -56.7 7.25 -54.1 8.15 -54.1 8.15 -55.8 14.75 -55.8 14.75 -54.1 15.65 -54.1 15.65 -56.7 14.6 -56.7 14.6 -64.95 9.45 -64.95 M11.8 -68.05 L11.8 -68.55 -0.15 -68.55 -0.15 -68.05 11.8 -68.05 M13.65 -69.85 L13.65 -70.85 12.55 -70.85 12.55 -69.85 13.0 -69.85 12.55 -68.55 13.0 -68.55 13.65 -69.85 M16.1 -69.85 L16.1 -70.85 15.0 -70.85 15.0 -69.85 15.45 -69.85 15.0 -68.55 15.45 -68.55 16.1 -69.85 M-1.85 -87.05 L-1.85 -89.05 -3.9 -89.05 -3.9 -87.05 -1.85 -87.05 M11.0 -98.85 L9.9 -98.85 9.9 -97.85 10.35 -97.85 9.9 -96.55 10.35 -96.55 11.0 -97.85 11.0 -98.85" fill="#ffffff" fill-rule="evenodd" stroke="none"/>
  </g>
</svg>
