<svg xmlns:xlink="http://www.w3.org/1999/xlink" height="62.55px" width="97.7px" xmlns="http://www.w3.org/2000/svg">
  <g transform="matrix(1.0, 0.0, 0.0, 1.0, 57.1, 62.05)">
    <path d="M-42.45 -45.95 Q-42.2 -47.05 -42.55 -48.05" fill="none" stroke="#ff0000" stroke-linecap="round" stroke-linejoin="round" stroke-width="1.0"/>
    <path d="M38.8 -39.45 L39.85 -39.45 39.85 -31.05 39.85 -30.1 39.15 -28.7 35.0 -21.3 35.4 -21.1 31.85 -17.75 31.35 -17.3 23.35 -10.65 23.8 -10.15 24.5 -6.25 23.75 -6.25 23.75 -2.55 Q23.75 -1.55 23.05 -0.9 22.5 -0.3 21.65 -0.3 20.75 -0.3 20.2 -0.9 19.5 -1.55 19.5 -2.55 L19.5 -6.25 18.85 -6.4 Q16.85 -6.85 14.55 -6.4 L14.5 -6.4 13.75 -6.25 13.75 -2.55 Q13.75 -1.55 13.05 -0.9 12.5 -0.3 11.65 -0.3 10.75 -0.3 10.2 -0.9 9.5 -1.55 9.5 -2.55 L9.5 -6.25 8.8 -6.25 Q7.8 -7.5 6.5 -7.55 L6.5 -8.0 -3.45 -8.0 -3.55 -7.9 -4.35 -7.45 Q-5.0 -7.25 -5.5 -6.25 L-6.25 -6.25 -6.25 -2.55 Q-6.25 -1.55 -6.95 -0.9 -7.5 -0.3 -8.35 -0.3 -9.25 -0.3 -9.8 -0.9 -10.5 -1.55 -10.5 -2.55 L-10.5 -6.25 -11.2 -6.25 -12.45 -6.45 -15.5 -6.25 -16.25 -6.25 -16.25 -2.55 Q-16.25 -1.55 -16.95 -0.9 -17.5 -0.3 -18.35 -0.3 -19.25 -0.3 -19.8 -0.9 -20.5 -1.55 -20.5 -2.55 L-20.5 -6.25 -21.15 -6.25 -21.15 -7.2 Q-21.9 -7.9 -23.1 -8.4 L-24.7 -10.15 -24.25 -10.65 -32.75 -17.75 Q-32.8 -18.45 -33.6 -19.0 L-34.4 -21.15 -33.95 -21.65 -42.45 -28.75 -43.0 -28.35 Q-44.45 -29.75 -44.65 -32.15 L-44.2 -32.65 -52.7 -39.75 -54.4 -42.6 -54.75 -42.95 -54.7 -43.05 Q-56.5 -44.75 -56.5 -46.9 -56.5 -49.0 -54.7 -50.7 L-54.8 -50.8 -54.75 -51.05 Q-54.35 -52.3 -54.5 -53.85 L-51.65 -60.1 -48.8 -53.85 -48.05 -54.2 Q-46.05 -55.3 -44.15 -55.8 L-43.85 -55.8 -42.65 -56.1 -40.75 -56.2 Q-40.2 -55.8 -39.5 -55.8 L-38.8 -55.9 Q-36.95 -55.45 -35.25 -54.2 L-34.5 -53.85 -31.65 -60.1 -28.8 -53.85 -28.05 -54.2 -28.35 -51.15 -28.8 -50.7 Q-27.0 -49.0 -27.0 -46.9 -27.0 -44.75 -28.8 -43.05 L-28.4 -42.55 -32.75 -39.45 -36.6 -35.9 -32.75 -32.3 Q-32.45 -32.0 -32.2 -30.8 L-31.25 -29.65 -30.6 -28.5 -30.85 -28.25 -22.35 -21.15 -21.35 -20.05 -11.4 -20.05 -11.4 -20.45 -11.35 -20.45 -11.35 -20.05 -1.4 -20.05 -1.35 -20.05 8.6 -20.05 8.6 -20.45 8.65 -20.45 8.65 -20.05 18.6 -20.05 18.6 -20.4 18.65 -20.4 21.65 -20.4 21.7 -20.4 24.7 -20.4 24.7 -20.9 25.4 -21.1 25.6 -21.25 25.7 -21.15 34.2 -28.25 33.95 -28.5 34.05 -28.6 Q35.1 -30.25 35.3 -33.15 L38.8 -39.45 M-38.3 -57.9 Q-38.3 -57.3 -38.6 -57.0 -38.95 -56.65 -39.45 -56.65 -40.1 -56.65 -40.5 -57.0 L-41.15 -57.8 -40.4 -58.75 -39.45 -59.05 -38.6 -58.75 Q-38.3 -58.4 -38.3 -57.9 M-44.65 -58.8 L-43.85 -59.1 Q-43.2 -59.1 -42.85 -58.7 L-42.1 -57.85 -42.8 -57.0 Q-43.15 -56.65 -43.85 -56.65 -44.35 -56.65 -44.65 -56.9 -45.05 -57.35 -45.05 -57.9 -45.05 -58.4 -44.65 -58.8 M-30.4 -51.4 L-31.3 -50.2 -31.3 -49.0 -30.05 -49.0 -30.05 -50.2 -30.7 -50.2 -29.9 -51.4 -30.4 -51.4 M-44.5 -51.4 L-45.0 -51.4 -45.9 -50.2 -45.9 -49.0 -44.65 -49.0 -44.65 -50.2 -45.3 -50.2 -44.5 -51.4 M-42.35 -47.85 L-43.2 -47.85 -43.2 -47.0 -42.35 -47.0 -42.35 -46.6 -34.45 -46.6 -34.45 -47.45 -42.35 -47.45 -42.35 -47.85 M-32.8 -22.4 L-32.8 -21.5 -31.9 -21.5 -31.9 -22.4 -32.8 -22.4 M-50.5 -46.95 L-48.85 -47.8 -49.25 -48.5 -50.85 -47.5 -50.75 -49.4 -51.55 -49.4 -51.45 -47.5 -53.05 -48.5 -53.45 -47.8 -51.75 -46.95 -53.45 -46.1 -53.05 -45.4 -51.45 -46.4 -51.55 -44.4 -50.75 -44.4 -50.85 -46.4 -49.25 -45.4 -48.85 -46.1 -50.5 -46.95" fill="#ffffff" fill-rule="evenodd" stroke="none"/>
    <path d="M35.3 -33.15 L34.7 -32.1 34.3 -32.3 38.45 -39.7 38.8 -39.45 35.3 -33.15 M39.85 -39.45 L39.85 -40.95 40.6 -40.95 40.6 -31.05 39.85 -31.05 39.85 -39.45 M39.15 -28.7 L39.5 -28.45 35.4 -21.1 35.0 -21.3 39.15 -28.7 M31.85 -17.75 L32.3 -17.25 23.8 -10.15 23.35 -10.65 31.35 -17.3 31.75 -17.65 31.85 -17.75 M24.5 -6.25 L24.5 -2.55 Q24.5 -1.2 23.65 -0.4 22.8 0.5 21.65 0.5 20.45 0.5 19.6 -0.4 18.8 -1.2 18.8 -2.55 L18.8 -6.25 19.5 -6.25 19.5 -2.55 Q19.5 -1.55 20.2 -0.9 20.75 -0.3 21.65 -0.3 22.5 -0.3 23.05 -0.9 23.75 -1.55 23.75 -2.55 L23.75 -6.25 24.5 -6.25 M13.75 -6.25 L14.5 -6.25 14.5 -2.55 Q14.5 -1.2 13.65 -0.4 12.8 0.5 11.65 0.5 10.45 0.5 9.6 -0.4 8.8 -1.2 8.8 -2.55 L8.8 -6.25 9.5 -6.25 9.5 -2.55 Q9.5 -1.55 10.2 -0.9 10.75 -0.3 11.65 -0.3 12.5 -0.3 13.05 -0.9 13.75 -1.55 13.75 -2.55 L13.75 -6.25 M6.5 -7.55 L-3.45 -7.55 -3.45 -8.0 6.5 -8.0 6.5 -7.55 M-5.5 -6.25 L-5.5 -2.55 Q-5.5 -1.2 -6.35 -0.4 -7.2 0.5 -8.35 0.5 -9.55 0.5 -10.4 -0.4 -11.2 -1.2 -11.2 -2.55 L-11.2 -6.25 -10.5 -6.25 -10.5 -2.55 Q-10.5 -1.55 -9.8 -0.9 -9.25 -0.3 -8.35 -0.3 -7.5 -0.3 -6.95 -0.9 -6.25 -1.55 -6.25 -2.55 L-6.25 -6.25 -5.5 -6.25 M-15.5 -6.25 L-15.5 -2.55 Q-15.5 -1.2 -16.35 -0.4 -17.2 0.5 -18.35 0.5 -19.55 0.5 -20.4 -0.4 -21.2 -1.2 -21.2 -2.55 L-21.2 -6.25 -21.15 -6.25 -20.5 -6.25 -20.5 -2.55 Q-20.5 -1.55 -19.8 -0.9 -19.25 -0.3 -18.35 -0.3 -17.5 -0.3 -16.95 -0.9 -16.25 -1.55 -16.25 -2.55 L-16.25 -6.25 -15.5 -6.25 M-24.7 -10.15 L-33.2 -17.25 -32.75 -17.75 -24.25 -10.65 -24.7 -10.15 M-34.4 -21.15 L-42.9 -28.25 -42.45 -28.75 -33.95 -21.65 -34.4 -21.15 M-44.65 -32.15 L-53.15 -39.25 -52.7 -39.75 -44.2 -32.65 -44.65 -32.15 M-54.75 -42.95 L-55.15 -42.6 Q-57.1 -44.45 -57.1 -46.9 -57.1 -49.0 -55.6 -50.65 L-55.15 -51.15 -54.8 -50.8 -54.7 -50.7 Q-56.5 -49.0 -56.5 -46.9 -56.5 -44.75 -54.7 -43.05 L-54.75 -42.95 M-54.5 -53.85 L-55.25 -54.2 -51.65 -62.05 -48.05 -54.2 -48.8 -53.85 -51.65 -60.1 -54.5 -53.85 M-44.15 -55.8 Q-44.8 -55.9 -45.2 -56.3 -45.85 -56.95 -45.85 -57.9 -45.85 -58.75 -45.2 -59.35 -44.7 -59.85 -43.85 -59.85 -42.95 -59.85 -42.3 -59.2 L-41.65 -58.45 -40.95 -59.3 Q-40.4 -59.85 -39.5 -59.85 -38.55 -59.85 -38.05 -59.3 -37.5 -58.75 -37.5 -57.9 -37.5 -56.9 -38.05 -56.4 L-38.8 -55.9 -39.5 -55.8 Q-40.2 -55.8 -40.75 -56.2 L-41.05 -56.45 -41.65 -57.1 -42.25 -56.45 -42.65 -56.1 -43.85 -55.8 -44.15 -55.8 M-35.25 -54.2 L-31.65 -62.05 -28.05 -54.2 -28.8 -53.85 -31.65 -60.1 -34.5 -53.85 -35.25 -54.2 M-28.35 -51.15 Q-26.4 -49.3 -26.4 -46.9 -26.4 -44.45 -28.35 -42.6 L-28.8 -43.05 Q-27.0 -44.75 -27.0 -46.9 -27.0 -49.0 -28.8 -50.7 L-28.35 -51.15 M-32.75 -39.45 L-32.35 -39.1 -35.85 -35.9 -32.35 -32.65 -32.75 -32.3 -36.6 -35.9 -32.75 -39.45 M-30.6 -28.5 L-30.4 -28.75 -21.9 -21.65 -22.35 -21.15 -30.85 -28.25 -30.6 -28.5 M-21.35 -20.05 L-21.35 -20.45 -11.4 -20.45 -11.4 -20.05 -21.35 -20.05 M-11.35 -20.45 L-1.4 -20.45 -1.4 -20.05 -11.35 -20.05 -11.35 -20.45 M-1.35 -20.05 L-1.35 -20.45 8.6 -20.45 8.6 -20.05 -1.35 -20.05 M8.65 -20.45 L18.6 -20.45 18.6 -20.4 18.6 -20.05 8.65 -20.05 8.65 -20.45 M18.65 -20.4 L18.65 -20.9 21.65 -20.9 21.65 -20.4 18.65 -20.4 M21.7 -20.4 L21.7 -20.9 24.7 -20.9 24.7 -20.4 21.7 -20.4 M25.6 -21.25 L25.25 -21.65 33.75 -28.75 33.95 -28.5 34.2 -28.25 25.7 -21.15 25.6 -21.25 M-38.3 -57.9 Q-38.3 -58.4 -38.6 -58.75 L-39.45 -59.05 -40.4 -58.75 -41.15 -57.8 -40.5 -57.0 Q-40.1 -56.65 -39.45 -56.65 -38.95 -56.65 -38.6 -57.0 -38.3 -57.3 -38.3 -57.9 M-30.4 -51.4 L-29.9 -51.4 -30.7 -50.2 -30.05 -50.2 -30.05 -49.0 -31.3 -49.0 -31.3 -50.2 -30.4 -51.4 M-44.65 -58.8 Q-45.05 -58.4 -45.05 -57.9 -45.05 -57.35 -44.65 -56.9 -44.35 -56.65 -43.85 -56.65 -43.15 -56.65 -42.8 -57.0 L-42.1 -57.85 -42.85 -58.7 Q-43.2 -59.1 -43.85 -59.1 L-44.65 -58.8 M-44.5 -51.4 L-45.3 -50.2 -44.65 -50.2 -44.65 -49.0 -45.9 -49.0 -45.9 -50.2 -45.0 -51.4 -44.5 -51.4 M-42.35 -47.85 L-42.35 -47.45 -34.45 -47.45 -34.45 -46.6 -42.35 -46.6 -42.35 -47.0 -43.2 -47.0 -43.2 -47.85 -42.35 -47.85 M-50.5 -46.95 L-48.85 -46.1 -49.25 -45.4 -50.85 -46.4 -50.75 -44.4 -51.55 -44.4 -51.45 -46.4 -53.05 -45.4 -53.45 -46.1 -51.75 -46.95 -53.45 -47.8 -53.05 -48.5 -51.45 -47.5 -51.55 -49.4 -50.75 -49.4 -50.85 -47.5 -49.25 -48.5 -48.85 -47.8 -50.5 -46.95 M-32.8 -22.4 L-31.9 -22.4 -31.9 -21.5 -32.8 -21.5 -32.8 -22.4" fill="#000000" fill-rule="evenodd" stroke="none"/>
  </g>
</svg>
