<svg xmlns:xlink="http://www.w3.org/1999/xlink" height="67.8px" width="111.1px" xmlns="http://www.w3.org/2000/svg">
  <g transform="matrix(1.0, 0.0, 0.0, 1.0, 58.7, 38.15)">
    <path d="M51.5 -13.2 L51.5 -14.9 52.4 -14.9 52.4 -3.55 51.5 -3.55 51.5 -13.2 M51.05 -1.75 L51.1 -1.7 46.4 6.7 45.95 6.5 46.4 5.75 50.7 -2.0 51.05 -1.75 M42.4 9.65 L42.85 10.2 33.15 18.35 32.95 18.1 32.6 17.75 42.35 9.65 42.4 9.65 M32.85 21.9 L33.0 21.9 33.0 26.15 Q33.0 27.65 32.05 28.6 31.05 29.6 29.75 29.65 28.35 29.6 27.4 28.6 26.5 27.65 26.5 26.15 L26.5 21.9 27.3 21.9 27.3 26.15 Q27.25 27.25 28.1 28.0 28.7 28.7 29.75 28.7 30.7 28.7 31.35 28.0 32.15 27.25 32.15 26.15 L32.15 21.9 32.85 21.9 M21.55 21.9 L21.55 26.15 Q21.55 27.65 20.6 28.6 19.6 29.6 18.3 29.65 16.9 29.6 15.95 28.6 15.0 27.65 15.05 26.15 L15.05 21.9 15.85 21.9 15.85 26.15 Q15.8 27.25 16.65 28.0 17.25 28.7 18.3 28.7 19.25 28.7 19.9 28.0 20.7 27.25 20.7 26.15 L20.7 21.9 21.55 21.9 M12.4 19.95 L12.4 20.4 1.0 20.4 1.0 20.15 1.0 19.9 12.4 19.9 12.4 19.95 M-1.35 21.95 L-1.35 26.15 Q-1.4 27.65 -2.35 28.6 -3.35 29.6 -4.65 29.65 -6.05 29.6 -7.0 28.6 -7.9 27.65 -7.9 26.15 L-7.9 21.95 -7.9 21.9 -7.1 21.9 -7.1 26.15 Q-7.1 27.25 -6.3 28.0 -5.7 28.7 -4.65 28.7 -3.65 28.7 -3.0 28.0 -2.2 27.25 -2.2 26.15 L-2.2 21.9 -1.35 21.9 -1.35 21.95 M-12.8 21.95 L-12.8 26.15 Q-12.85 27.65 -13.8 28.6 -14.8 29.6 -16.1 29.65 -17.5 29.6 -18.45 28.6 -19.35 27.65 -19.35 26.15 L-19.35 22.2 -19.35 21.9 -18.55 21.9 -18.55 26.15 Q-18.55 27.25 -17.75 28.0 -17.15 28.7 -16.1 28.7 -15.15 28.7 -14.5 28.0 -13.7 27.25 -13.7 26.15 L-13.7 21.9 -12.8 21.9 -12.8 21.95 M-21.95 17.8 L-22.45 18.35 -32.2 10.2 -32.05 10.1 -31.65 9.65 -21.95 17.75 -21.95 17.8 M-33.6 6.6 L-43.3 -1.5 -42.8 -2.05 -33.05 6.1 -33.55 6.65 -33.6 6.6 M-45.2 -4.2 L-45.3 -4.1 -55.05 -12.25 -54.55 -12.85 -44.8 -4.7 -45.2 -4.2 M-56.5 -15.65 Q-58.7 -17.75 -58.7 -20.5 L-58.7 -20.55 Q-58.75 -22.05 -58.05 -23.35 L-56.5 -25.45 -56.3 -25.25 -55.95 -24.9 Q-57.0 -23.95 -57.5 -22.85 -58.05 -21.8 -58.05 -20.55 L-58.05 -20.45 Q-58.0 -18.1 -55.95 -16.15 L-56.5 -15.65 M-53.95 -29.15 L-49.85 -38.15 -45.95 -29.75 -45.7 -29.15 -46.55 -28.75 -49.85 -35.9 -53.1 -28.75 -53.95 -29.15 M-38.8 -29.7 L-34.9 -38.15 -30.75 -29.15 -30.95 -29.1 -31.6 -28.75 -34.9 -35.9 -38.15 -28.75 -39.0 -29.15 -38.8 -29.7 M-30.85 -25.1 L-30.55 -25.45 -29.2 -23.8 -28.45 -22.05 Q-28.3 -21.35 -28.3 -20.55 -28.3 -18.0 -30.15 -16.0 L-30.55 -15.65 -30.6 -15.75 -31.05 -16.15 Q-29.0 -18.1 -29.0 -20.55 -29.0 -22.8 -30.75 -24.6 L-30.85 -24.75 -31.05 -24.9 -30.85 -25.1 M-32.05 -12.1 L-31.65 -12.5 -31.2 -12.1 -35.2 -8.4 -31.2 -4.7 -31.65 -4.3 -36.1 -8.4 -32.05 -12.1 M-29.2 -1.8 L-29.0 -2.05 -19.25 6.1 -19.75 6.65 -29.5 -1.5 -29.2 -1.8 M-18.6 7.45 L-7.2 7.45 -7.2 7.9 -18.6 7.9 -18.6 7.45 M-7.15 7.9 L-7.15 7.45 4.25 7.45 4.25 7.9 -7.15 7.9 M4.3 7.9 L4.3 7.45 15.7 7.45 15.7 7.9 4.3 7.9 M15.75 7.45 L27.15 7.45 27.15 7.9 15.75 7.9 15.75 7.45 M27.25 7.45 L27.25 6.95 30.65 6.95 30.65 7.5 27.25 7.5 27.25 7.45 M30.75 7.5 L30.75 6.95 34.15 6.95 34.15 7.0 34.15 7.5 30.75 7.5 M35.3 6.65 L34.8 6.1 44.35 -1.9 44.55 -2.05 45.05 -1.5 35.3 6.65 M45.5 -4.8 L45.15 -5.0 49.9 -13.45 50.3 -13.2 45.6 -4.75 45.5 -4.8 M-47.65 -25.65 L-49.95 -23.7 -51.0 -23.7 -49.25 -25.65 -47.65 -25.65 M-45.65 -21.35 L-37.9 -21.35 -37.9 -20.35 -45.65 -20.35 -45.65 -21.35 M-34.5 -25.65 L-32.8 -23.7 -33.85 -23.7 -36.1 -25.65 -34.5 -25.65 M-30.7 5.2 L-30.7 6.25 -31.75 6.25 -31.75 5.2 -30.7 5.2" fill="#000000" fill-rule="evenodd" stroke="none"/>
    <path d="M51.5 -3.55 L51.65 -3.5 51.05 -1.75 50.7 -2.0 46.4 5.75 42.4 9.65 42.35 9.65 32.6 17.75 32.95 18.1 32.85 21.9 32.15 21.9 32.15 26.15 Q32.15 27.25 31.35 28.0 30.7 28.7 29.75 28.7 28.7 28.7 28.1 28.0 27.25 27.25 27.3 26.15 L27.3 21.9 26.5 21.9 26.1 21.45 21.55 21.45 21.55 21.9 20.7 21.9 20.7 26.15 Q20.7 27.25 19.9 28.0 19.25 28.7 18.3 28.7 17.25 28.7 16.65 28.0 15.8 27.25 15.85 26.15 L15.85 21.9 15.05 21.9 Q15.0 21.1 14.35 20.5 13.7 19.95 12.8 19.95 L12.4 19.95 12.4 19.9 1.0 19.9 1.0 20.15 Q0.1 20.25 -0.5 20.7 -1.25 21.2 -1.35 21.95 L-1.35 21.9 -2.2 21.9 -2.2 26.15 Q-2.2 27.25 -3.0 28.0 -3.65 28.7 -4.65 28.7 -5.7 28.7 -6.3 28.0 -7.1 27.25 -7.1 26.15 L-7.1 21.9 -7.9 21.9 -7.9 21.95 -12.8 21.95 -12.8 21.9 -13.7 21.9 -13.7 26.15 Q-13.7 27.25 -14.5 28.0 -15.15 28.7 -16.1 28.7 -17.15 28.7 -17.75 28.0 -18.55 27.25 -18.55 26.15 L-18.55 21.9 -19.35 21.9 -19.35 22.2 -21.95 17.8 -21.95 17.75 -31.65 9.65 -32.05 10.1 -33.6 6.6 -33.55 6.65 -33.05 6.1 -42.8 -2.05 -43.4 -2.05 -43.4 -2.15 -45.2 -4.2 -44.8 -4.7 -54.55 -12.85 -54.95 -12.65 -56.5 -15.65 -55.95 -16.15 Q-58.0 -18.1 -58.05 -20.45 L-58.05 -20.55 Q-58.05 -21.8 -57.5 -22.85 -57.0 -23.95 -55.95 -24.9 L-56.3 -25.25 -54.2 -29.0 -53.95 -29.15 -53.1 -28.75 -49.85 -35.9 -46.55 -28.75 -45.7 -29.15 -45.95 -29.75 -38.8 -29.7 -39.0 -29.15 -38.15 -28.75 -34.9 -35.9 -31.6 -28.75 -30.95 -29.1 -30.85 -29.0 -30.85 -25.1 -31.05 -24.9 -30.85 -24.75 -30.75 -24.6 Q-29.0 -22.8 -29.0 -20.55 -29.0 -18.1 -31.05 -16.15 L-30.6 -15.75 -31.1 -14.7 -31.1 -13.9 -32.05 -12.1 -36.1 -8.4 -31.65 -4.3 -31.35 -4.55 -29.6 -2.15 -29.2 -1.8 -29.5 -1.5 -19.75 6.65 -19.25 6.1 -18.25 7.15 -18.6 7.45 -18.6 7.9 -7.2 7.9 -7.15 7.9 4.25 7.9 4.3 7.9 15.7 7.9 15.7 7.45 15.75 7.45 15.75 7.9 27.15 7.9 27.15 7.45 27.25 7.45 27.25 7.5 30.65 7.5 30.75 7.5 34.15 7.5 34.15 7.0 34.2 7.0 34.8 6.6 35.3 6.65 45.05 -1.5 44.55 -2.05 44.35 -1.9 45.5 -4.8 45.6 -4.75 50.3 -13.2 51.5 -13.2 51.5 -3.55 M-30.7 5.2 L-31.75 5.2 -31.75 6.25 -30.7 6.25 -30.7 5.2 M-34.5 -25.65 L-36.1 -25.65 -33.85 -23.7 -32.8 -23.7 -34.5 -25.65 M-45.65 -21.35 L-45.65 -20.35 -37.9 -20.35 -37.9 -21.35 -45.65 -21.35 M-47.65 -25.65 L-49.25 -25.65 -51.0 -23.7 -49.95 -23.7 -47.65 -25.65" fill="#ffffff" fill-rule="evenodd" stroke="none"/>
  </g>
</svg>
