<svg xmlns:xlink="http://www.w3.org/1999/xlink" height="53.4px" width="65.45px" xmlns="http://www.w3.org/2000/svg">
  <g transform="matrix(1.0, 0.0, 0.0, 1.0, 41.65, 51.35)">
    <path d="M14.95 -41.55 L16.85 -42.2 17.2 -42.35 20.05 -42.85 Q21.6 -42.85 22.6 -41.95 23.95 -40.8 23.8 -38.35 23.7 -35.9 21.95 -34.6 20.7 -33.7 18.75 -33.45 L17.3 -33.4 17.0 -34.75 18.65 -34.85 Q20.75 -35.1 21.65 -36.15 22.6 -37.1 22.55 -38.85 22.55 -40.05 21.9 -40.85 21.3 -41.55 20.25 -41.6 19.05 -41.65 17.3 -41.0 L17.25 -41.0 13.95 -39.6 13.45 -41.05 14.95 -41.55 M12.1 -24.7 L14.0 -23.45 Q17.3 -21.1 19.0 -18.7 L17.55 -17.45 16.35 -18.95 Q14.2 -21.35 10.85 -23.6 L12.1 -24.7 M14.95 -9.3 L14.95 -2.1 Q14.95 -0.75 14.1 0.1 13.35 0.85 11.8 0.85 10.2 0.85 9.45 0.1 8.45 -0.9 8.45 -3.15 L8.75 -3.15 9.8 -3.15 Q9.8 -1.45 10.35 -0.85 10.85 -0.4 11.7 -0.4 12.65 -0.4 13.05 -0.8 L13.2 -0.95 Q13.6 -1.45 13.6 -2.15 L13.6 -9.3 14.95 -9.3 M4.55 -8.45 L2.15 -10.6 1.65 -11.05 3.75 -11.05 5.9 -8.45 4.55 -8.45 M-5.8 -9.7 Q-6.0 -6.0 -7.85 -3.1 -9.55 -0.15 -12.4 1.55 L-12.85 0.95 -13.35 0.35 Q-7.55 -2.9 -7.2 -10.1 L-5.8 -9.7 M-17.0 1.45 L-17.6 2.05 -18.25 1.45 Q-15.55 -1.1 -15.55 -4.3 -15.55 -7.55 -18.25 -10.05 L-17.65 -10.6 -17.6 -10.7 -17.1 -10.2 Q-14.65 -7.6 -14.65 -4.3 -14.65 -1.1 -17.0 1.45 M-21.85 -15.5 L-22.45 -14.85 Q-23.95 -16.5 -24.65 -17.95 -25.4 -19.55 -25.4 -21.35 -25.4 -23.4 -24.65 -25.0 -24.0 -26.35 -22.45 -27.75 L-21.85 -27.15 -23.9 -24.6 Q-24.55 -23.25 -24.55 -21.35 -24.55 -19.8 -23.9 -18.4 -23.3 -17.1 -21.85 -15.5 M-20.05 -32.65 L-20.65 -33.0 -14.45 -44.05 -13.85 -43.7 -20.05 -32.65 M0.15 -40.85 Q-0.45 -41.55 -1.5 -41.6 L-4.5 -41.0 -7.8 -39.6 -8.3 -41.05 -4.55 -42.35 -1.7 -42.85 Q-0.15 -42.85 0.85 -41.95 2.2 -40.8 2.05 -38.35 1.95 -35.9 0.2 -34.6 -1.45 -33.4 -4.45 -33.4 L-4.75 -34.75 Q-1.35 -34.75 -0.1 -36.15 0.85 -37.1 0.8 -38.85 0.8 -40.05 0.15 -40.85 M1.9 -26.95 Q0.15 -26.95 -1.4 -26.25 L-4.1 -24.15 -4.65 -24.55 Q-3.55 -25.9 -1.9 -26.75 -0.05 -27.75 1.9 -27.75 4.0 -27.75 5.7 -26.75 L8.45 -24.55 7.8 -24.15 4.95 -26.25 Q3.55 -26.95 1.9 -26.95 M-23.15 -34.55 L-21.8 -34.55 -21.8 -33.3 -23.15 -33.3 -23.15 -34.55 M-20.6 -14.7 L-5.65 -14.7 -5.65 -14.05 -20.6 -14.05 -20.6 -14.7 M-31.55 -22.15 L-30.85 -23.15 -29.7 -22.15 -31.05 -20.6 Q-31.95 -19.75 -33.25 -19.75 -34.25 -19.75 -36.0 -20.8 -37.35 -21.6 -38.25 -21.6 -39.25 -21.6 -39.75 -20.95 L-40.4 -19.95 -41.65 -20.75 -40.35 -22.35 Q-39.45 -23.2 -38.35 -23.2 -37.2 -23.2 -35.7 -22.3 -34.15 -21.35 -33.1 -21.35 -32.3 -21.35 -31.55 -22.15" fill="#000000" fill-rule="evenodd" stroke="none"/>
    <path d="M17.3 -33.4 Q9.2 -30.95 10.4 -28.4 L12.1 -24.7 10.85 -23.6 Q14.2 -21.35 16.35 -18.95 17.9 -15.7 16.3 -11.9 L14.95 -9.3 13.6 -9.3 13.6 -2.15 Q13.6 -1.45 13.2 -0.95 L13.05 -0.8 Q12.65 -0.4 11.7 -0.4 10.85 -0.4 10.35 -0.85 9.8 -1.45 9.8 -3.15 L8.75 -3.15 4.55 -8.45 5.9 -8.45 3.75 -11.05 1.65 -11.05 2.15 -10.6 Q-1.4 -9.45 -5.8 -9.7 L-7.2 -10.1 Q-7.55 -2.9 -13.35 0.35 L-12.85 0.95 -17.0 1.45 Q-14.65 -1.1 -14.65 -4.3 -14.65 -7.6 -17.1 -10.2 L-17.6 -10.7 -17.65 -10.6 Q-20.2 -12.55 -21.85 -15.5 -23.3 -17.1 -23.9 -18.4 -24.55 -19.8 -24.55 -21.35 -24.55 -23.25 -23.9 -24.6 L-21.85 -27.15 -22.45 -27.75 Q-21.5 -30.4 -20.05 -32.65 L-13.85 -43.7 Q-12.1 -47.25 -8.95 -49.1 -5.75 -51.0 -1.8 -51.3 2.35 -51.65 5.25 -49.95 8.1 -48.3 9.25 -45.25 10.35 -42.2 14.95 -41.55 L13.45 -41.05 13.95 -39.6 17.25 -41.0 17.3 -41.0 Q19.05 -41.65 20.25 -41.6 21.3 -41.55 21.9 -40.85 22.55 -40.05 22.55 -38.85 22.6 -37.1 21.65 -36.15 20.75 -35.1 18.65 -34.85 L17.0 -34.75 17.3 -33.4 M1.9 -26.95 Q3.55 -26.95 4.95 -26.25 L7.8 -24.15 8.45 -24.55 5.7 -26.75 Q4.0 -27.75 1.9 -27.75 -0.05 -27.75 -1.9 -26.75 -3.55 -25.9 -4.65 -24.55 L-4.1 -24.15 -1.4 -26.25 Q0.15 -26.95 1.9 -26.95 M0.15 -40.85 Q0.8 -40.05 0.8 -38.85 0.85 -37.1 -0.1 -36.15 -1.35 -34.75 -4.75 -34.75 L-4.45 -33.4 Q-1.45 -33.4 0.2 -34.6 1.95 -35.9 2.05 -38.35 2.2 -40.8 0.85 -41.95 -0.15 -42.85 -1.7 -42.85 L-4.55 -42.35 -8.3 -41.05 -7.8 -39.6 -4.5 -41.0 -1.5 -41.6 Q-0.45 -41.55 0.15 -40.85 M-20.6 -14.7 L-20.6 -14.05 -5.65 -14.05 -5.65 -14.7 -20.6 -14.7" fill="#ffffff" fill-rule="evenodd" stroke="none"/>
  </g>
</svg>
