<?xml version="1.0" encoding="UTF-8" standalone="no"?>
<svg xmlns:xlink="http://www.w3.org/1999/xlink" height="19.0px" width="39.5px" xmlns="http://www.w3.org/2000/svg">
  <g transform="matrix(1.0, 0.0, 0.0, 1.0, 19.75, 18.5)">
    <path d="M16.45 -18.0 Q16.4 -11.6 11.55 -7.1 6.7 -2.55 -0.15 -2.55 -7.0 -2.55 -11.85 -7.1 -16.7 -11.6 -16.7 -18.0 L16.45 -18.0" fill="#ffcc99" fill-rule="evenodd" stroke="none"/>
    <path d="M-16.7 -18.0 Q-16.7 -11.6 -11.85 -7.1 -7.0 -2.55 -0.15 -2.55 6.7 -2.55 11.55 -7.1 16.4 -11.6 16.45 -18.0 L19.25 -18.0 Q19.25 -10.55 13.6 -5.3 7.95 0.0 0.0 0.0 -7.95 0.0 -13.6 -5.3 -19.25 -10.55 -19.25 -18.0 L-16.7 -18.0" fill="#e2f5ec" fill-rule="evenodd" stroke="none"/>
    <path d="M-16.7 -18.0 L-19.25 -18.0 Q-19.25 -10.55 -13.6 -5.3 -7.95 0.0 0.0 0.0 7.95 0.0 13.6 -5.3 19.25 -10.55 19.25 -18.0 L16.45 -18.0 -16.7 -18.0 Z" fill="none" stroke="#8f7c3f" stroke-linecap="round" stroke-linejoin="round" stroke-width="1.0"/>
    <path d="M5.95 -14.5 Q3.85 -13.1 4.2 -15.95 5.15 -17.8 5.95 -14.5 M7.3 -8.7 Q5.35 -7.1 5.45 -10.0 6.2 -11.9 7.3 -8.7 M2.7 -11.4 Q0.3 -10.65 1.45 -13.3 2.85 -14.8 2.7 -11.4 M11.55 -12.4 Q9.6 -10.8 9.7 -13.7 10.45 -15.6 11.55 -12.4 M-10.2 -12.95 Q-8.45 -14.05 -9.45 -10.8 -11.95 -10.65 -10.2 -12.95 M0.1 -6.3 Q-2.25 -5.4 -1.25 -8.1 0.05 -9.7 0.1 -6.3 M-4.1 -11.55 Q-2.45 -12.8 -3.2 -9.5 -5.7 -9.15 -4.1 -11.55 M-1.1 -14.05 Q-3.6 -13.9 -1.85 -16.2 -0.1 -17.3 -1.1 -14.05 M-6.55 -16.3 Q-4.8 -17.4 -5.8 -14.15 -8.3 -14.0 -6.55 -16.3" fill="#8f7c3f" fill-rule="evenodd" stroke="none"/>
  </g>
</svg>
