<svg xmlns:xlink="http://www.w3.org/1999/xlink" height="97.2px" width="72.95px" xmlns="http://www.w3.org/2000/svg">
  <g transform="matrix(1.0, 0.0, 0.0, 1.0, 26.45, 97.0)">
    <path d="M18.7 -97.0 Q20.8 -95.2 23.2 -93.7 24.0 -93.15 24.95 -93.15 L19.0 -93.15 16.15 -83.0 14.75 -85.85 12.75 -84.3 13.0 -83.7 14.1 -84.6 15.8 -81.25 15.4 -80.75 Q13.4 -79.7 10.9 -77.95 8.45 -76.25 5.7 -76.55 L5.1 -75.95 6.0 -75.0 Q7.6 -73.0 7.6 -70.55 L7.3 -68.45 Q6.75 -66.95 5.5 -65.6 L5.1 -65.2 5.7 -64.6 6.35 -65.25 10.6 -63.5 Q13.25 -62.3 14.8 -59.95 L15.5 -59.2 16.55 -57.65 Q17.3 -56.2 17.3 -54.55 17.3 -52.3 15.9 -50.4 L14.8 -49.2 15.25 -48.55 17.05 -46.65 Q19.15 -44.85 21.4 -43.6 L20.75 -43.5 Q21.05 -42.15 21.5 -41.05 L22.1 -39.8 Q22.8 -38.5 23.8 -37.6 L25.3 -36.55 24.35 -36.4 Q22.55 -36.15 20.85 -35.2 L21.85 -34.2 22.5 -34.5 Q24.75 -33.95 24.7 -30.7 24.7 -28.1 25.05 -25.2 L24.5 -24.7 Q28.65 -21.95 30.75 -18.95 L31.4 -19.5 Q31.95 -17.1 33.9 -14.75 35.7 -12.55 37.9 -10.8 L39.6 -9.3 38.9 -8.7 Q43.05 -5.95 45.15 -2.95 L43.0 -1.65 Q40.75 -0.7 38.2 -0.7 L37.35 -0.75 36.25 -0.75 36.75 -1.7 36.8 -1.85 36.8 -3.05 35.5 -3.05 35.5 -1.85 36.05 -1.85 36.05 -1.8 35.65 -0.75 31.8 -0.35 31.8 -1.0 27.6 -1.0 27.55 -1.0 23.35 -1.0 22.65 -1.9 22.6 -1.95 22.6 -3.05 21.3 -3.05 21.3 -2.35 19.75 -2.15 19.75 -3.05 18.45 -3.05 18.45 -2.45 15.95 -2.5 16.8 -4.3 17.1 -6.55 Q17.1 -9.95 14.4 -12.55 L13.8 -11.95 Q16.3 -9.55 16.3 -6.55 16.3 -5.4 15.95 -4.3 15.35 -2.65 13.8 -1.2 L14.4 -0.6 13.35 -0.65 13.35 -1.0 9.15 -1.0 9.15 -0.35 9.1 -0.35 9.1 -1.0 4.9 -1.0 4.9 -0.35 4.85 -0.35 4.85 -0.4 -9.1 -0.4 -9.1 0.2 -11.55 0.05 Q-14.2 0.1 -16.25 -0.65 L-16.25 -1.0 -20.45 -1.0 -20.45 -0.45 -21.45 -0.6 -20.85 -1.2 Q-23.4 -3.55 -23.4 -6.55 -23.4 -9.55 -20.85 -11.95 L-21.45 -12.55 Q-21.6 -14.25 -21.15 -15.8 L-20.6 -15.8 -20.6 -29.75 -21.7 -29.75 -21.7 -29.35 Q-22.3 -31.25 -23.4 -32.9 L-23.1 -33.2 Q-25.65 -35.55 -25.65 -38.55 -25.65 -41.55 -23.1 -43.95 L-22.35 -48.55 -21.75 -49.15 -23.3 -51.2 -23.65 -51.85 Q-24.25 -53.15 -24.25 -54.6 -24.25 -56.0 -23.85 -57.1 L-23.65 -57.65 Q-23.1 -58.8 -21.75 -60.05 L-22.35 -60.6 -22.8 -60.15 Q-21.7 -62.8 -19.65 -64.6 L-19.05 -65.2 Q-21.6 -67.55 -21.6 -70.55 -21.6 -73.55 -19.05 -75.95 L-19.35 -76.25 Q-17.35 -78.1 -14.9 -79.2 -14.0 -79.65 -13.6 -80.05 L-12.1 -79.85 -11.8 -79.85 Q-10.85 -79.9 -10.4 -80.35 -10.0 -80.75 -10.0 -81.3 -10.0 -81.8 -10.3 -82.15 -10.75 -82.55 -11.5 -82.75 L-13.65 -83.2 -14.65 -83.55 -14.85 -84.25 Q-14.85 -85.1 -13.9 -86.2 -12.85 -87.45 -10.7 -88.9 -8.75 -88.95 -8.3 -89.4 -8.15 -89.55 -8.15 -89.8 L-8.25 -90.05 Q-8.55 -90.35 -9.1 -90.3 L-10.8 -89.9 Q-11.65 -89.95 -11.95 -90.3 L-12.15 -90.7 -11.95 -91.2 Q-11.55 -91.6 -10.75 -92.0 L-11.35 -92.75 -12.15 -92.25 Q-12.75 -94.05 -12.75 -95.8 L0.45 -95.8 0.5 -95.8 14.45 -95.8 14.45 -96.35 14.5 -96.35 18.7 -96.35 18.7 -97.0 M-9.5 -11.95 L-10.1 -12.55 Q-12.85 -9.95 -12.85 -6.55 -12.85 -3.75 -10.9 -1.45 L-10.1 -0.6 -9.5 -1.2 -9.8 -1.5 Q-12.05 -3.75 -12.05 -6.55 -12.05 -9.55 -9.5 -11.95 M-14.1 -1.85 L-14.1 -3.05 -15.4 -3.05 -15.4 -1.85 -14.1 -1.85 M-15.85 -40.85 L-15.25 -40.85 -15.25 -38.95 Q-15.25 -38.05 -15.85 -37.8 L-15.85 -40.85 M-18.15 -43.75 L-18.15 -44.65 -21.6 -44.65 -21.6 -32.45 -18.15 -32.45 -18.15 -33.3 -20.7 -33.3 -20.7 -43.75 -18.15 -43.75 M-14.5 -43.55 L-13.8 -43.55 -13.8 -41.9 -14.5 -41.9 -14.5 -43.55 M-11.3 -28.2 L-12.5 -28.2 -12.5 -16.95 -11.25 -16.95 -11.25 -17.85 -3.0 -17.85 -3.0 -17.3 -1.75 -17.3 -1.75 -27.75 Q-1.25 -28.1 -1.8 -28.2 L-3.0 -28.2 -3.0 -19.05 -11.25 -19.05 -11.25 -27.75 Q-10.75 -28.1 -11.3 -28.2 M-12.2 -37.8 L-12.2 -36.65 -15.85 -36.65 -15.85 -37.6 -15.3 -37.15 Q-14.5 -37.75 -14.5 -39.0 L-14.5 -40.85 -13.8 -40.85 -13.8 -38.6 Q-13.8 -37.8 -12.95 -37.8 L-12.2 -37.8 M-12.2 -35.6 L-12.2 -34.45 -15.85 -34.45 -15.85 -35.6 -12.2 -35.6 M-13.0 -40.85 L-12.2 -40.85 -12.2 -38.7 -12.65 -38.7 Q-13.0 -38.7 -13.0 -39.05 L-13.0 -40.85 M-4.6 -41.95 L-4.6 -43.0 -8.7 -43.0 -8.25 -44.55 Q-7.9 -44.6 -8.1 -44.8 L-9.3 -45.05 Q-9.65 -43.05 -10.35 -41.65 L-11.25 -40.35 -11.25 -41.9 -13.0 -41.9 -13.0 -43.55 -10.9 -43.55 -10.9 -44.6 -17.1 -44.6 -17.1 -43.55 -15.25 -43.55 -15.25 -41.9 -16.8 -41.9 -16.8 -32.55 -15.85 -32.55 -15.85 -33.45 -12.2 -33.45 -12.2 -32.7 -11.25 -32.7 -11.25 -40.05 -10.6 -39.4 -10.45 -39.55 Q-9.6 -40.75 -9.05 -41.95 L-8.65 -41.95 -8.65 -32.6 -7.55 -32.6 -7.55 -36.0 -5.05 -36.0 -5.05 -37.05 -7.55 -37.05 -7.55 -38.8 -5.0 -38.8 -5.0 -39.8 -7.55 -39.8 -7.55 -41.95 -4.6 -41.95 M-3.9 -44.65 L-3.9 -43.75 -1.35 -43.75 -1.35 -33.3 -3.9 -33.3 -3.9 -32.45 -0.45 -32.45 -0.45 -44.65 -3.9 -44.65 M-8.95 -56.7 Q-8.95 -53.15 -10.6 -50.85 L-11.5 -50.85 -11.5 -47.85 -10.45 -47.85 -10.45 -49.8 -2.75 -49.8 -2.75 -47.85 -1.7 -47.85 -1.7 -50.85 -2.95 -50.85 -2.95 -60.45 -8.95 -60.45 -8.95 -56.7 M-7.85 -59.45 L-4.05 -59.45 -4.05 -50.85 -9.35 -50.85 Q-7.85 -53.1 -7.85 -56.7 L-7.85 -59.45 M3.55 -60.85 L1.6 -60.85 4.35 -58.45 5.6 -58.45 3.55 -60.85 M-15.15 -60.85 L-17.1 -60.85 -19.2 -58.45 -17.9 -58.45 -15.15 -60.85 M3.55 -80.35 L3.55 -81.0 -0.65 -81.0 -0.65 -80.35 3.55 -80.35 M-9.35 -71.75 L-8.65 -71.4 Q-8.25 -71.0 -8.35 -70.3 -8.45 -69.25 -9.25 -69.2 -9.95 -69.15 -10.3 -69.4 -10.65 -69.7 -10.55 -70.5 -10.45 -71.75 -9.35 -71.75 M-13.6 -74.85 L-13.6 -73.65 -8.2 -73.65 -8.2 -72.35 -9.35 -72.7 Q-10.35 -72.7 -10.95 -72.0 -11.45 -71.4 -11.55 -70.45 -11.65 -69.25 -10.8 -68.6 -10.15 -68.1 -9.6 -68.15 -8.7 -68.2 -8.15 -68.8 -8.15 -67.6 -8.95 -66.8 -9.55 -65.95 -10.95 -65.45 L-10.4 -64.5 Q-8.6 -65.2 -7.8 -66.5 -7.0 -67.7 -6.95 -69.6 L-7.15 -71.1 -7.15 -73.65 -3.4 -73.65 -3.4 -74.85 -7.15 -74.85 -7.15 -77.05 -8.2 -77.05 -8.2 -74.85 -13.6 -74.85 M-4.9 -81.0 L-4.9 -80.35 -0.7 -80.35 -0.7 -81.0 -4.9 -81.0 M32.65 -3.05 L32.65 -1.85 33.95 -1.85 33.95 -3.05 32.65 -3.05 M16.7 -29.75 L15.6 -29.75 15.6 -15.8 16.7 -15.8 16.7 -29.75 M15.7 -44.55 L15.1 -43.95 Q17.6 -41.55 17.6 -38.55 17.6 -35.55 15.1 -33.2 L15.7 -32.6 Q18.4 -35.2 18.4 -38.55 18.4 -41.95 15.7 -44.55 M13.85 -41.55 L11.25 -43.65 Q9.65 -44.6 7.7 -44.6 5.9 -44.6 4.15 -43.65 2.6 -42.85 1.6 -41.55 L2.1 -41.2 4.65 -43.15 Q6.05 -43.8 7.7 -43.8 9.25 -43.8 10.55 -43.15 L13.2 -41.2 13.85 -41.55 M10.25 -48.45 L10.85 -48.45 11.5 -49.9 11.5 -51.1 10.25 -51.1 10.25 -49.9 10.8 -49.9 10.25 -48.45 M11.5 -56.1 L10.25 -56.1 10.25 -54.9 11.5 -54.9 11.5 -56.1 M7.8 -80.35 L7.8 -81.0 3.6 -81.0 3.6 -80.35 7.8 -80.35 M12.05 -80.35 L12.05 -81.0 7.85 -81.0 7.85 -80.35 12.05 -80.35" fill="#ffffff" fill-rule="evenodd" stroke="none"/>
    <path d="M14.5 -96.35 L14.5 -97.0 18.7 -97.0 18.7 -96.35 14.5 -96.35 M24.95 -93.15 L25.4 -93.15 25.4 -92.05 19.75 -92.05 16.4 -80.1 15.8 -81.25 14.1 -84.6 13.0 -83.7 12.75 -84.3 14.75 -85.85 16.15 -83.0 19.0 -93.15 24.95 -93.15 M5.7 -76.55 L6.85 -75.25 Q8.4 -73.15 8.4 -70.55 8.4 -69.35 8.05 -68.25 7.55 -66.65 6.35 -65.25 L5.7 -64.6 5.1 -65.2 5.5 -65.6 Q6.75 -66.95 7.3 -68.45 L7.6 -70.55 Q7.6 -73.0 6.0 -75.0 L5.1 -75.95 5.7 -76.55 M14.8 -59.95 L15.4 -60.55 16.5 -59.3 Q18.1 -57.15 18.1 -54.55 18.1 -51.95 16.5 -49.8 L15.4 -48.6 14.8 -49.2 15.9 -50.4 Q17.3 -52.3 17.3 -54.55 17.3 -56.2 16.55 -57.65 L15.5 -59.2 14.8 -59.95 M21.4 -43.6 L22.05 -43.75 Q22.65 -43.85 22.25 -43.45 22.6 -41.5 23.5 -40.05 24.95 -37.8 27.85 -36.85 L27.05 -35.4 24.9 -35.2 22.5 -34.5 21.85 -34.2 20.85 -35.2 Q22.55 -36.15 24.35 -36.4 L25.3 -36.55 23.8 -37.6 Q22.8 -38.5 22.1 -39.8 L21.5 -41.05 Q21.05 -42.15 20.75 -43.5 L21.4 -43.6 M25.05 -25.2 L25.65 -25.75 Q30.1 -22.95 32.1 -20.1 L31.4 -19.5 30.75 -18.95 Q28.65 -21.95 24.5 -24.7 L25.05 -25.2 M39.6 -9.3 L40.05 -9.75 Q44.5 -6.95 46.5 -4.1 L45.15 -2.95 Q43.05 -5.95 38.9 -8.7 L39.6 -9.3 M36.25 -0.75 L36.05 -0.4 35.5 -0.4 35.65 -0.75 36.05 -1.8 36.05 -1.85 35.5 -1.85 35.5 -3.05 36.8 -3.05 36.8 -1.85 36.75 -1.7 36.25 -0.75 M31.8 -0.35 L27.6 -0.35 27.6 -1.0 31.8 -1.0 31.8 -0.35 M27.55 -1.0 L27.55 -0.35 23.35 -0.35 23.35 -1.0 27.55 -1.0 M22.6 -1.95 L22.6 -1.85 21.85 -0.4 21.3 -0.4 21.85 -1.85 21.3 -1.85 21.3 -2.35 21.3 -3.05 22.6 -3.05 22.6 -1.95 M19.75 -2.15 L19.75 -1.85 18.45 -1.85 18.45 -2.45 18.45 -3.05 19.75 -3.05 19.75 -2.15 M15.95 -2.5 L14.4 -0.6 13.8 -1.2 Q15.35 -2.65 15.95 -4.3 16.3 -5.4 16.3 -6.55 16.3 -9.55 13.8 -11.95 L14.4 -12.55 Q17.1 -9.95 17.1 -6.55 L16.8 -4.3 15.95 -2.5 M13.35 -0.65 L13.35 -0.35 9.15 -0.35 9.15 -1.0 13.35 -1.0 13.35 -0.65 M9.1 -0.35 L4.9 -0.35 4.9 -1.0 9.1 -1.0 9.1 -0.35 M4.85 -0.35 L4.85 0.2 -9.1 0.2 -9.1 -0.4 4.85 -0.4 4.85 -0.35 M-16.25 -0.65 L-16.25 -0.35 -20.45 -0.35 -20.45 -0.45 -20.45 -1.0 -16.25 -1.0 -16.25 -0.65 M-21.45 -0.6 L-22.7 -2.0 Q-24.2 -4.1 -24.2 -6.55 -24.2 -8.5 -23.25 -10.2 -22.6 -11.45 -21.45 -12.55 L-20.85 -11.95 Q-23.4 -9.55 -23.4 -6.55 -23.4 -3.55 -20.85 -1.2 L-21.45 -0.6 M-21.15 -15.8 L-21.7 -15.8 -21.7 -29.35 -21.7 -29.75 -20.6 -29.75 -20.6 -15.8 -21.15 -15.8 M-23.4 -32.9 L-23.7 -32.6 Q-26.45 -35.2 -26.45 -38.55 L-26.45 -38.75 Q-26.4 -40.4 -25.7 -41.85 -25.05 -43.3 -23.7 -44.55 L-23.1 -43.95 Q-25.65 -41.55 -25.65 -38.55 -25.65 -35.55 -23.1 -33.2 L-23.4 -32.9 M-22.35 -48.55 L-23.65 -50.2 -24.35 -51.45 Q-25.1 -52.95 -25.1 -54.6 -25.1 -56.35 -24.5 -57.7 L-24.35 -58.0 -22.8 -60.15 -22.35 -60.6 -21.75 -60.05 Q-23.1 -58.8 -23.65 -57.65 L-23.85 -57.1 Q-24.25 -56.0 -24.25 -54.6 -24.25 -53.15 -23.65 -51.85 L-23.3 -51.2 -21.75 -49.15 -22.35 -48.55 M-19.65 -64.6 Q-21.2 -66.1 -21.85 -67.8 -22.4 -69.1 -22.4 -70.55 L-22.25 -71.9 Q-21.85 -74.5 -19.65 -76.55 L-19.35 -76.25 -19.05 -75.95 Q-21.6 -73.55 -21.6 -70.55 -21.6 -67.55 -19.05 -65.2 L-19.65 -64.6 M-13.6 -80.05 L-13.45 -81.0 -12.15 -80.75 -11.75 -80.75 Q-11.25 -80.8 -11.1 -81.0 L-10.95 -81.2 -11.1 -81.45 -11.95 -81.8 -13.65 -82.15 Q-15.0 -82.4 -15.4 -82.8 -15.95 -83.35 -15.95 -84.25 -15.95 -85.35 -14.85 -86.6 -13.6 -88.05 -11.8 -89.2 -12.35 -89.35 -12.7 -89.75 -13.15 -90.2 -13.15 -90.7 L-12.95 -91.35 -12.6 -91.85 -12.15 -92.25 -11.35 -92.75 -10.75 -92.0 Q-11.55 -91.6 -11.95 -91.2 L-12.15 -90.7 -11.95 -90.3 Q-11.65 -89.95 -10.8 -89.9 L-9.1 -90.3 Q-8.55 -90.35 -8.25 -90.05 L-8.15 -89.8 Q-8.15 -89.55 -8.3 -89.4 -8.75 -88.95 -10.7 -88.9 -12.85 -87.45 -13.9 -86.2 -14.85 -85.1 -14.85 -84.25 L-14.65 -83.55 -13.65 -83.2 -11.5 -82.75 Q-10.75 -82.55 -10.3 -82.15 -10.0 -81.8 -10.0 -81.3 -10.0 -80.75 -10.4 -80.35 -10.85 -79.9 -11.8 -79.85 L-12.1 -79.85 -13.6 -80.05 M-12.75 -95.8 L-13.5 -95.8 -13.5 -96.4 0.45 -96.4 0.45 -95.8 -12.75 -95.8 M0.5 -95.8 L0.5 -96.4 14.45 -96.4 14.45 -96.35 14.45 -95.8 0.5 -95.8 M12.05 -80.35 L7.85 -80.35 7.85 -81.0 12.05 -81.0 12.05 -80.35 M7.8 -80.35 L3.6 -80.35 3.6 -81.0 7.8 -81.0 7.8 -80.35 M11.5 -56.1 L11.5 -54.9 10.25 -54.9 10.25 -56.1 11.5 -56.1 M10.25 -48.45 L10.8 -49.9 10.25 -49.9 10.25 -51.1 11.5 -51.1 11.5 -49.9 10.85 -48.45 10.25 -48.45 M13.85 -41.55 L13.2 -41.2 10.55 -43.15 Q9.25 -43.8 7.7 -43.8 6.05 -43.8 4.65 -43.15 L2.1 -41.2 1.6 -41.55 Q2.6 -42.85 4.15 -43.65 5.9 -44.6 7.7 -44.6 9.65 -44.6 11.25 -43.65 L13.85 -41.55 M15.7 -44.55 Q18.4 -41.95 18.4 -38.55 18.4 -35.2 15.7 -32.6 L15.1 -33.2 Q17.6 -35.55 17.6 -38.55 17.6 -41.55 15.1 -43.95 L15.7 -44.55 M16.7 -29.75 L16.7 -15.8 15.6 -15.8 15.6 -29.75 16.7 -29.75 M32.65 -3.05 L33.95 -3.05 33.95 -1.85 32.65 -1.85 32.65 -3.05 M-4.9 -81.0 L-0.7 -81.0 -0.7 -80.35 -4.9 -80.35 -4.9 -81.0 M-13.6 -74.85 L-8.2 -74.85 -8.2 -77.05 -7.15 -77.05 -7.15 -74.85 -3.4 -74.85 -3.4 -73.65 -7.15 -73.65 -7.15 -71.1 -6.95 -69.6 Q-7.0 -67.7 -7.8 -66.5 -8.6 -65.2 -10.4 -64.5 L-10.95 -65.45 Q-9.55 -65.95 -8.95 -66.8 -8.15 -67.6 -8.15 -68.8 -8.7 -68.2 -9.6 -68.15 -10.15 -68.1 -10.8 -68.6 -11.65 -69.25 -11.55 -70.45 -11.45 -71.4 -10.95 -72.0 -10.35 -72.7 -9.35 -72.7 L-8.2 -72.35 -8.2 -73.65 -13.6 -73.65 -13.6 -74.85 M-9.35 -71.75 Q-10.45 -71.75 -10.55 -70.5 -10.65 -69.7 -10.3 -69.4 -9.95 -69.15 -9.25 -69.2 -8.45 -69.25 -8.35 -70.3 -8.25 -71.0 -8.65 -71.4 L-9.35 -71.75 M3.55 -80.35 L-0.65 -80.35 -0.65 -81.0 3.55 -81.0 3.55 -80.35 M-15.15 -60.85 L-17.9 -58.45 -19.2 -58.45 -17.1 -60.85 -15.15 -60.85 M3.55 -60.85 L5.6 -58.45 4.35 -58.45 1.6 -60.85 3.55 -60.85 M-7.85 -59.45 L-7.85 -56.7 Q-7.85 -53.1 -9.35 -50.85 L-4.05 -50.85 -4.05 -59.45 -7.85 -59.45 M-8.95 -56.7 L-8.95 -60.45 -2.95 -60.45 -2.95 -50.85 -1.7 -50.85 -1.7 -47.85 -2.75 -47.85 -2.75 -49.8 -10.45 -49.8 -10.45 -47.85 -11.5 -47.85 -11.5 -50.85 -10.6 -50.85 Q-8.95 -53.15 -8.95 -56.7 M-3.9 -44.65 L-0.45 -44.65 -0.45 -32.45 -3.9 -32.45 -3.9 -33.3 -1.35 -33.3 -1.35 -43.75 -3.9 -43.75 -3.9 -44.65 M-4.6 -41.95 L-7.55 -41.95 -7.55 -39.8 -5.0 -39.8 -5.0 -38.8 -7.55 -38.8 -7.55 -37.05 -5.05 -37.05 -5.05 -36.0 -7.55 -36.0 -7.55 -32.6 -8.65 -32.6 -8.65 -41.95 -9.05 -41.95 Q-9.6 -40.75 -10.45 -39.55 L-10.6 -39.4 -11.25 -40.05 -11.25 -32.7 -12.2 -32.7 -12.2 -33.45 -15.85 -33.45 -15.85 -32.55 -16.8 -32.55 -16.8 -41.9 -15.25 -41.9 -15.25 -43.55 -17.1 -43.55 -17.1 -44.6 -10.9 -44.6 -10.9 -43.55 -13.0 -43.55 -13.0 -41.9 -11.25 -41.9 -11.25 -40.35 -10.35 -41.65 Q-9.65 -43.05 -9.3 -45.05 L-8.1 -44.8 Q-7.9 -44.6 -8.25 -44.55 L-8.7 -43.0 -4.6 -43.0 -4.6 -41.95 M-13.0 -40.85 L-13.0 -39.05 Q-13.0 -38.7 -12.65 -38.7 L-12.2 -38.7 -12.2 -40.85 -13.0 -40.85 M-12.2 -35.6 L-15.85 -35.6 -15.85 -34.45 -12.2 -34.45 -12.2 -35.6 M-12.2 -37.8 L-12.95 -37.8 Q-13.8 -37.8 -13.8 -38.6 L-13.8 -40.85 -14.5 -40.85 -14.5 -39.0 Q-14.5 -37.75 -15.3 -37.15 L-15.85 -37.6 -15.85 -36.65 -12.2 -36.65 -12.2 -37.8 M-11.3 -28.2 Q-10.75 -28.1 -11.25 -27.75 L-11.25 -19.05 -3.0 -19.05 -3.0 -28.2 -1.8 -28.2 Q-1.25 -28.1 -1.75 -27.75 L-1.75 -17.3 -3.0 -17.3 -3.0 -17.85 -11.25 -17.85 -11.25 -16.95 -12.5 -16.95 -12.5 -28.2 -11.3 -28.2 M-14.5 -43.55 L-14.5 -41.9 -13.8 -41.9 -13.8 -43.55 -14.5 -43.55 M-18.15 -43.75 L-20.7 -43.75 -20.7 -33.3 -18.15 -33.3 -18.15 -32.45 -21.6 -32.45 -21.6 -44.65 -18.15 -44.65 -18.15 -43.75 M-15.85 -40.85 L-15.85 -37.8 Q-15.25 -38.05 -15.25 -38.95 L-15.25 -40.85 -15.85 -40.85 M-14.1 -1.85 L-15.4 -1.85 -15.4 -3.05 -14.1 -3.05 -14.1 -1.85 M-9.5 -11.95 Q-12.05 -9.55 -12.05 -6.55 -12.05 -3.75 -9.8 -1.5 L-9.5 -1.2 -10.1 -0.6 -10.9 -1.45 Q-12.85 -3.75 -12.85 -6.55 -12.85 -9.95 -10.1 -12.55 L-9.5 -11.95" fill="#000000" fill-rule="evenodd" stroke="none"/>
  </g>
</svg>
