<svg xmlns:xlink="http://www.w3.org/1999/xlink" height="63.75px" width="67.9px" xmlns="http://www.w3.org/2000/svg">
  <g transform="matrix(1.0, 0.0, 0.0, 1.0, 34.95, 62.9)">
    <path d="M12.95 -59.35 L12.8 -59.7 12.7 -59.4 8.25 -49.6 6.95 -50.15 7.05 -50.35 12.8 -62.9 18.65 -50.15 18.35 -50.0 17.45 -49.6 12.95 -59.35 M3.8 -51.0 L3.8 -50.7 2.95 -49.0 2.35 -49.0 2.95 -50.7 2.35 -50.7 2.35 -51.15 2.35 -52.05 3.8 -52.05 3.8 -51.0 M0.5 -51.2 L0.5 -50.7 -0.35 -49.0 -0.95 -49.0 -0.35 -50.7 -0.95 -50.7 -0.95 -51.25 -0.95 -52.05 0.5 -52.05 0.5 -51.2 M-4.35 -50.65 L-4.15 -50.15 Q-4.7 -49.9 -5.3 -49.6 L-9.85 -59.4 -10.0 -59.7 -10.1 -59.4 -13.1 -52.85 -13.25 -52.4 -14.6 -49.6 -14.65 -49.65 -15.8 -50.15 -10.0 -62.9 -4.35 -50.65 M-16.75 -43.35 L-14.5 -42.7 -15.0 -41.35 Q-17.8 -42.35 -21.35 -42.9 L-21.2 -43.4 -20.95 -44.2 -16.75 -43.35 M-20.75 -39.7 L-18.15 -39.15 -14.95 -38.2 -15.45 -36.85 Q-18.65 -38.1 -21.45 -38.5 L-21.4 -38.8 -21.2 -39.8 -20.75 -39.7 M-20.55 -34.95 Q-16.55 -34.0 -13.95 -32.8 L-14.7 -31.3 -16.2 -32.05 Q-18.95 -33.35 -21.9 -33.9 L-21.45 -35.1 -20.55 -34.95 M-15.15 -29.25 L-12.3 -28.35 -12.7 -26.65 Q-14.95 -27.55 -17.15 -28.1 L-17.0 -28.95 -16.9 -29.65 -15.15 -29.25 M-16.4 -25.4 L-12.2 -23.95 -12.7 -22.45 -17.15 -24.15 -17.0 -24.8 -16.85 -25.55 -16.4 -25.4 M-17.25 -20.85 L-17.15 -21.45 Q-14.15 -20.7 -11.5 -19.2 L-11.95 -17.5 -14.5 -18.75 -17.4 -19.9 -17.25 -20.85 M-20.9 -11.2 L-16.65 -9.95 -17.05 -8.3 Q-19.3 -9.2 -21.5 -9.75 L-21.35 -11.05 -21.35 -11.25 -20.9 -11.2 M-22.1 -6.3 L-22.05 -6.25 -23.15 -4.9 -23.55 -4.55 Q-24.5 -3.65 -25.9 -3.65 -27.0 -3.65 -28.9 -4.8 -30.35 -5.65 -31.3 -5.65 -32.4 -5.7 -32.95 -4.95 L-33.6 -3.9 -34.95 -4.75 -33.55 -6.45 Q-32.6 -7.4 -31.4 -7.4 -30.15 -7.4 -28.55 -6.4 -26.85 -5.4 -25.75 -5.4 -24.9 -5.4 -24.05 -6.25 L-23.3 -7.3 -22.1 -6.3 M-21.6 -2.5 L-21.5 -3.1 Q-18.6 -2.3 -15.95 -0.85 L-16.1 -0.05 -16.35 0.85 -18.4 -0.2 -20.1 -0.9 -21.8 -1.55 -21.6 -2.5 M-13.8 -1.05 L-14.2 -1.45 Q-15.8 -3.05 -15.8 -5.35 -15.8 -7.7 -14.2 -9.3 -12.7 -10.85 -10.15 -10.8 -7.85 -10.85 -6.2 -9.3 -4.65 -7.7 -4.65 -5.35 -4.65 -3.55 -5.6 -2.15 L-6.2 -1.45 Q-7.85 0.15 -10.15 0.15 -12.35 0.15 -13.8 -1.05 M-3.35 -2.2 L-3.4 -3.1 -3.4 -10.75 -2.0 -10.75 -2.0 -3.15 -1.75 -2.2 -1.4 -1.65 -1.1 -1.4 Q-0.5 -0.95 0.65 -0.95 1.95 -0.95 2.65 -1.65 3.2 -2.25 3.2 -3.15 L3.2 -10.75 4.7 -10.75 4.7 -3.1 4.6 -2.2 3.8 -0.8 Q2.75 0.2 0.65 0.25 -1.55 0.2 -2.5 -0.8 -3.15 -1.35 -3.35 -2.2 M6.95 -2.4 L6.95 -3.1 6.95 -10.75 8.35 -10.75 8.35 -3.15 Q8.35 -2.25 9.0 -1.65 9.65 -0.95 11.0 -0.95 12.35 -0.95 13.05 -1.65 13.6 -2.25 13.6 -3.15 L13.6 -10.75 15.05 -10.75 15.05 -3.1 Q15.05 -2.05 14.6 -1.3 L14.15 -0.8 Q13.15 0.2 11.0 0.25 8.8 0.2 7.85 -0.8 7.15 -1.45 6.95 -2.4 M22.0 -1.3 L22.0 -2.05 28.05 -2.05 Q29.65 -2.05 30.75 -3.15 31.7 -4.1 31.7 -5.5 31.7 -6.85 30.75 -7.8 29.65 -8.9 28.05 -8.9 L22.0 -8.9 22.0 -9.2 22.0 -10.1 28.05 -10.1 Q30.25 -10.1 31.55 -8.8 32.95 -7.4 32.95 -5.5 32.95 -3.6 31.55 -2.2 30.25 -0.85 28.05 -0.85 L22.0 -0.85 22.0 -1.3 M21.85 -17.75 L21.8 -17.5 Q19.2 -18.9 16.35 -19.9 L16.6 -21.45 Q19.55 -20.7 22.25 -19.2 L22.1 -18.65 21.85 -17.75 M21.35 -28.0 L21.05 -26.65 16.6 -28.1 16.85 -29.65 21.3 -28.35 21.45 -28.35 21.35 -28.0 M22.05 -31.9 L19.55 -31.5 19.1 -32.95 Q26.6 -33.95 29.5 -37.35 L30.35 -36.5 30.6 -36.3 Q31.1 -35.75 30.35 -35.85 27.6 -33.0 22.05 -31.9 M29.25 -39.95 L29.35 -39.85 Q29.7 -39.25 29.05 -39.4 25.05 -36.4 20.35 -35.55 L19.95 -36.95 Q25.25 -38.0 28.45 -40.8 L29.05 -40.1 29.25 -39.95 M28.1 -44.3 L28.75 -43.6 Q29.1 -43.15 28.3 -43.15 24.05 -39.9 19.55 -39.25 L19.15 -40.7 21.55 -41.2 Q24.9 -42.25 27.8 -44.65 L28.1 -44.3 M16.4 -44.2 Q16.4 -43.65 16.0 -43.2 15.55 -42.75 15.0 -42.75 14.35 -42.75 13.95 -43.2 13.5 -43.65 13.5 -44.2 13.5 -44.75 13.95 -45.25 14.35 -45.7 15.0 -45.65 15.55 -45.7 16.0 -45.25 16.4 -44.75 16.4 -44.2 M14.25 -44.95 Q14.0 -44.65 14.0 -44.2 14.0 -43.75 14.25 -43.5 14.55 -43.2 15.0 -43.2 15.4 -43.2 15.65 -43.5 L15.95 -44.2 15.65 -44.95 15.0 -45.1 14.25 -44.95 M3.6 -40.2 Q3.55 -36.05 1.85 -33.45 L8.0 -33.45 8.0 -43.4 3.6 -43.4 3.6 -40.2 M10.7 -33.45 L10.7 -29.95 9.45 -29.95 9.45 -32.25 0.65 -32.25 0.65 -29.95 -0.65 -29.95 -0.65 -33.45 0.4 -33.45 Q2.35 -36.1 2.35 -40.2 L2.35 -44.55 9.3 -44.55 9.3 -33.45 10.7 -33.45 M16.6 -24.15 L16.85 -25.55 21.55 -23.95 21.05 -22.45 16.6 -24.15 M-6.0 -45.25 Q-5.55 -45.7 -4.95 -45.65 -4.35 -45.7 -3.9 -45.25 -3.5 -44.75 -3.5 -44.2 -3.5 -43.65 -3.9 -43.2 -4.35 -42.75 -4.95 -42.75 -5.55 -42.75 -6.0 -43.2 -6.45 -43.65 -6.4 -44.2 -6.45 -44.75 -6.0 -45.25 M-4.95 -45.1 L-5.65 -44.95 -5.95 -44.2 -5.65 -43.5 Q-5.4 -43.2 -4.95 -43.2 -4.5 -43.2 -4.25 -43.5 -3.95 -43.75 -3.95 -44.2 -3.95 -44.65 -4.25 -44.95 L-4.95 -45.1 M-10.95 -33.7 L-10.95 -32.35 -11.8 -30.6 -12.4 -30.6 -11.8 -32.35 -12.4 -32.35 -12.4 -33.7 -10.95 -33.7 M-7.65 -33.7 L-7.65 -32.35 -8.5 -30.6 -9.1 -30.6 -8.5 -32.35 -9.1 -32.35 -9.1 -33.7 -7.65 -33.7 M-21.25 -7.2 Q-18.65 -6.4 -16.55 -5.6 L-17.05 -4.05 -21.5 -5.8 -21.25 -7.2 M-10.15 -9.45 Q-11.9 -9.45 -13.05 -8.3 -14.15 -7.2 -14.15 -5.35 -14.15 -3.45 -13.05 -2.35 -11.9 -1.25 -10.15 -1.25 -8.6 -1.25 -7.4 -2.35 -6.35 -3.45 -6.35 -5.35 -6.35 -7.2 -7.4 -8.3 -8.6 -9.45 -10.15 -9.45" fill="#000000" fill-rule="evenodd" stroke="none"/>
    <path d="M12.7 -59.4 L12.8 -59.4 12.95 -59.35 17.45 -49.6 18.35 -50.0 18.75 -48.75 18.8 -48.6 18.95 -48.2 19.3 -47.55 Q21.2 -44.55 21.55 -41.2 L19.15 -40.7 19.55 -39.25 Q24.05 -39.9 28.3 -43.15 29.1 -43.15 28.75 -43.6 L28.1 -44.3 28.7 -44.55 Q31.75 -44.1 30.35 -41.4 30.1 -40.85 29.5 -40.45 L29.05 -40.1 28.45 -40.8 Q25.25 -38.0 19.95 -36.95 L20.35 -35.55 Q25.05 -36.4 29.05 -39.4 29.7 -39.25 29.35 -39.85 L29.25 -39.95 Q32.15 -39.15 30.45 -36.65 L30.35 -36.5 29.5 -37.35 Q26.6 -33.95 19.1 -32.95 L19.55 -31.5 22.05 -31.9 Q22.25 -30.95 21.8 -29.7 L21.3 -28.35 16.85 -29.65 16.6 -28.1 21.05 -26.65 21.35 -28.0 Q23.15 -27.25 23.15 -24.95 23.15 -23.85 22.1 -23.6 L21.75 -23.5 Q23.3 -22.6 24.0 -20.7 24.2 -20.1 23.7 -19.6 22.95 -18.8 22.1 -18.65 L22.25 -19.2 Q19.55 -20.7 16.6 -21.45 L16.35 -19.9 Q19.2 -18.9 21.8 -17.5 L21.85 -17.75 22.25 -16.05 Q22.35 -12.6 21.7 -9.25 L22.0 -9.2 22.0 -8.9 28.05 -8.9 Q29.65 -8.9 30.75 -7.8 31.7 -6.85 31.7 -5.5 31.7 -4.1 30.75 -3.15 29.65 -2.05 28.05 -2.05 L22.0 -2.05 22.0 -1.3 14.6 -1.3 Q15.05 -2.05 15.05 -3.1 L15.05 -10.75 13.6 -10.75 13.6 -3.15 Q13.6 -2.25 13.05 -1.65 12.35 -0.95 11.0 -0.95 9.65 -0.95 9.0 -1.65 8.35 -2.25 8.35 -3.15 L8.35 -10.75 6.95 -10.75 6.95 -3.1 6.95 -2.4 6.05 -1.85 Q5.15 -1.6 4.6 -2.2 L4.7 -3.1 4.7 -10.75 3.2 -10.75 3.2 -3.15 Q3.2 -2.25 2.65 -1.65 1.95 -0.95 0.65 -0.95 -0.5 -0.95 -1.1 -1.4 L-1.75 -2.2 -2.0 -3.15 -2.0 -10.75 -3.4 -10.75 -3.4 -3.1 -3.35 -2.2 Q-3.75 -1.75 -4.5 -1.8 L-5.6 -2.15 Q-4.65 -3.55 -4.65 -5.35 -4.65 -7.7 -6.2 -9.3 -7.85 -10.85 -10.15 -10.8 -12.7 -10.85 -14.2 -9.3 -15.8 -7.7 -15.8 -5.35 -15.8 -3.05 -14.2 -1.45 L-13.8 -1.05 Q-14.65 -0.3 -16.1 -0.05 L-15.95 -0.85 Q-18.6 -2.3 -21.5 -3.1 L-21.6 -2.5 Q-22.7 -3.1 -23.1 -4.35 L-23.15 -4.9 -22.05 -6.25 -22.1 -6.3 -22.05 -6.3 -22.05 -7.3 Q-24.5 -9.05 -21.9 -10.8 L-21.35 -11.05 -21.5 -9.75 Q-19.3 -9.2 -17.05 -8.3 L-16.65 -9.95 -20.9 -11.2 -19.6 -11.65 -17.9 -11.4 -16.7 -12.4 -15.55 -14.75 -14.5 -18.75 -11.95 -17.5 -11.5 -19.2 Q-14.15 -20.7 -17.15 -21.45 L-17.25 -20.85 Q-20.1 -21.65 -18.55 -24.05 -18.0 -24.85 -17.2 -24.85 L-17.0 -24.8 -17.15 -24.15 -12.7 -22.45 -12.2 -23.95 -16.4 -25.4 -17.85 -26.5 Q-18.2 -26.85 -18.15 -27.4 -17.9 -28.55 -17.0 -28.95 L-17.15 -28.1 Q-14.95 -27.55 -12.7 -26.65 L-12.3 -28.35 -15.15 -29.25 -15.5 -29.7 Q-16.4 -31.1 -16.2 -32.05 L-14.7 -31.3 -13.95 -32.8 Q-16.55 -34.0 -20.55 -34.95 L-22.15 -35.5 Q-22.7 -35.7 -22.8 -36.3 -23.2 -38.3 -21.4 -38.8 L-21.45 -38.5 Q-18.65 -38.1 -15.45 -36.85 L-14.95 -38.2 -18.15 -39.15 -20.75 -39.7 -22.25 -40.45 Q-22.7 -40.7 -22.7 -41.25 -22.7 -43.0 -21.2 -43.4 L-21.35 -42.9 Q-17.8 -42.35 -15.0 -41.35 L-14.5 -42.7 -16.75 -43.35 Q-15.95 -45.45 -15.3 -47.7 L-15.15 -48.2 -15.0 -48.75 -14.65 -49.65 -14.6 -49.6 -13.25 -52.4 -13.25 -52.55 -13.1 -52.85 -10.1 -59.4 -9.9 -59.4 -9.85 -59.4 -5.3 -49.6 Q-4.7 -49.9 -4.15 -50.15 L-4.35 -50.65 -1.8 -51.2 -0.95 -51.25 -0.95 -50.7 -0.35 -50.7 -0.95 -49.0 -0.35 -49.0 0.5 -50.7 0.5 -51.2 1.5 -51.15 1.7 -51.2 2.35 -51.15 2.35 -50.7 2.95 -50.7 2.35 -49.0 2.95 -49.0 3.8 -50.7 3.8 -51.0 7.05 -50.35 6.95 -50.15 8.25 -49.6 12.7 -59.4 M14.25 -44.95 L15.0 -45.1 15.65 -44.95 15.95 -44.2 15.65 -43.5 Q15.4 -43.2 15.0 -43.2 14.55 -43.2 14.25 -43.5 14.0 -43.75 14.0 -44.2 14.0 -44.65 14.25 -44.95 M16.4 -44.2 Q16.4 -44.75 16.0 -45.25 15.55 -45.7 15.0 -45.65 14.35 -45.7 13.95 -45.25 13.5 -44.75 13.5 -44.2 13.5 -43.65 13.95 -43.2 14.35 -42.75 15.0 -42.75 15.55 -42.75 16.0 -43.2 16.4 -43.65 16.4 -44.2 M16.6 -24.15 L21.05 -22.45 21.55 -23.95 16.85 -25.55 16.6 -24.15 M10.7 -33.45 L9.3 -33.45 9.3 -44.55 2.35 -44.55 2.35 -40.2 Q2.35 -36.1 0.4 -33.45 L-0.65 -33.45 -0.65 -29.95 0.65 -29.95 0.65 -32.25 9.45 -32.25 9.45 -29.95 10.7 -29.95 10.7 -33.45 M3.6 -40.2 L3.6 -43.4 8.0 -43.4 8.0 -33.45 1.85 -33.45 Q3.55 -36.05 3.6 -40.2 M8.1 -12.3 L8.1 -12.4 7.55 -12.3 8.1 -12.3 M-6.1 -45.25 L-5.85 -45.6 -6.25 -45.6 -6.1 -45.25 M-6.0 -45.25 Q-6.45 -44.75 -6.4 -44.2 -6.45 -43.65 -6.0 -43.2 -5.55 -42.75 -4.95 -42.75 -4.35 -42.75 -3.9 -43.2 -3.5 -43.65 -3.5 -44.2 -3.5 -44.75 -3.9 -45.25 -4.35 -45.7 -4.95 -45.65 -5.55 -45.7 -6.0 -45.25 M-4.95 -45.1 L-4.25 -44.95 Q-3.95 -44.65 -3.95 -44.2 -3.95 -43.75 -4.25 -43.5 -4.5 -43.2 -4.95 -43.2 -5.4 -43.2 -5.65 -43.5 L-5.95 -44.2 -5.65 -44.95 -4.95 -45.1 M-7.65 -33.7 L-9.1 -33.7 -9.1 -32.35 -8.5 -32.35 -9.1 -30.6 -8.5 -30.6 -7.65 -32.35 -7.65 -33.7 M-10.95 -33.7 L-12.4 -33.7 -12.4 -32.35 -11.8 -32.35 -12.4 -30.6 -11.8 -30.6 -10.95 -32.35 -10.95 -33.7 M-21.25 -7.2 L-21.5 -5.8 -17.05 -4.05 -16.55 -5.6 Q-18.65 -6.4 -21.25 -7.2 M-10.15 -9.45 Q-8.6 -9.45 -7.4 -8.3 -6.35 -7.2 -6.35 -5.35 -6.35 -3.45 -7.4 -2.35 -8.6 -1.25 -10.15 -1.25 -11.9 -1.25 -13.05 -2.35 -14.15 -3.45 -14.15 -5.35 -14.15 -7.2 -13.05 -8.3 -11.9 -9.45 -10.15 -9.45" fill="#ffffff" fill-rule="evenodd" stroke="none"/>
  </g>
</svg>
