<?xml version="1.0" encoding="UTF-8" standalone="no"?>
<svg xmlns:xlink="http://www.w3.org/1999/xlink" height="33.4px" width="50.05px" xmlns="http://www.w3.org/2000/svg">
  <g transform="matrix(1.0, 0.0, 0.0, 1.0, 25.0, 16.35)">
    <path d="M13.55 -10.0 Q14.8 -10.25 14.6 -11.7 14.5 -12.5 13.6 -12.4 10.4 -12.2 13.55 -10.0 M5.6 -0.9 Q7.5 -9.55 10.55 -15.8 16.55 -16.45 18.5 -10.9 L18.55 -10.8 Q15.35 -3.1 10.0 0.7 6.85 1.6 5.6 -0.9" fill="#ffffff" fill-rule="evenodd" stroke="none"/>
    <path d="M10.0 0.7 L16.05 5.4 Q14.55 13.1 9.0 16.55 4.0 16.55 -5.15 13.6 L-6.9 13.1 Q-5.2 3.65 0.0 -2.45 3.6 -2.4 5.6 -0.9 6.85 1.6 10.0 0.7 M-0.95 11.4 Q1.35 5.35 3.75 0.75 1.35 5.35 -0.95 11.4 M6.9 4.45 Q2.8 7.8 -0.5 11.9 2.8 7.8 6.9 4.45" fill="#cccccc" fill-rule="evenodd" stroke="none"/>
    <path d="M13.55 -10.0 Q10.4 -12.2 13.6 -12.4 14.5 -12.5 14.6 -11.7 14.8 -10.25 13.55 -10.0 M5.6 -0.9 Q7.5 -9.55 10.55 -15.8 16.55 -16.45 18.5 -10.9 L18.55 -10.8 Q15.35 -3.1 10.0 0.7 L16.05 5.4 Q14.55 13.1 9.0 16.55 L24.55 14.6 M-6.9 13.1 Q-5.2 3.65 0.0 -2.45 3.6 -2.4 5.6 -0.9 6.85 1.6 10.0 0.7 M-24.5 15.0 Q-15.0 10.9 -6.9 13.1 L-5.15 13.6 Q4.0 16.55 9.0 16.55 M-0.5 11.9 Q2.8 7.8 6.9 4.45 M3.75 0.75 Q1.35 5.35 -0.95 11.4" fill="none" stroke="#8f7c3f" stroke-linecap="round" stroke-linejoin="round" stroke-width="1.0"/>
  </g>
</svg>
