<svg xmlns:xlink="http://www.w3.org/1999/xlink" height="101.85px" width="67.8px" xmlns="http://www.w3.org/2000/svg">
  <g transform="matrix(1.0, 0.0, 0.0, 1.0, 30.5, 101.25)">
    <path d="M-2.65 -101.15 L-2.65 -101.2 -2.6 -101.2 -1.25 -101.1 6.15 -100.35 6.25 -100.35 6.3 -100.3 6.25 -100.2 6.2 -100.15 6.15 -100.15 6.0 -100.2 5.05 -99.75 Q4.7 -99.55 5.05 -99.45 L5.2 -98.55 Q6.35 -93.2 9.45 -90.45 L10.2 -91.45 10.2 -91.55 10.2 -91.6 10.3 -91.65 10.35 -91.65 10.4 -91.55 10.75 -85.95 10.75 -85.85 10.65 -85.8 10.6 -85.85 10.55 -85.85 10.1 -85.4 Q11.4 -84.15 11.95 -83.1 12.55 -81.85 12.55 -80.15 12.55 -78.75 11.95 -77.45 11.4 -76.3 10.1 -74.85 L10.6 -74.35 10.7 -74.35 10.75 -74.35 10.75 -74.3 13.15 -70.9 13.2 -70.8 13.15 -70.75 13.1 -70.75 13.0 -70.75 12.95 -70.85 11.9 -70.85 Q11.35 -70.75 11.85 -70.4 L11.85 -65.5 Q11.85 -61.15 16.1 -59.35 L16.7 -60.4 16.7 -60.45 16.65 -60.55 16.75 -60.6 16.8 -60.6 23.1 -54.95 23.15 -54.9 23.1 -54.8 23.05 -54.8 23.0 -54.75 22.95 -54.8 22.5 -54.55 28.15 -44.55 28.55 -44.75 28.55 -44.85 28.55 -44.9 28.6 -44.95 28.65 -44.95 28.75 -44.95 28.75 -44.85 28.85 -40.35 28.8 -40.25 28.75 -40.2 28.7 -40.25 28.65 -40.25 28.15 -39.8 30.0 -37.5 Q30.6 -36.25 30.6 -34.55 30.6 -33.15 30.0 -31.85 29.5 -30.7 28.15 -29.25 L28.65 -28.75 28.7 -28.75 28.75 -28.75 28.8 -28.75 28.85 -28.7 28.85 -28.6 28.0 -26.15 27.95 -26.1 27.9 -26.1 27.85 -26.1 27.8 -26.15 27.8 -26.2 26.85 -26.2 26.85 -12.75 27.8 -12.75 27.9 -12.8 27.95 -12.8 37.25 -5.55 37.3 -5.5 37.3 -5.4 37.2 -5.35 37.15 -5.4 37.05 -5.5 36.15 -5.5 36.15 -4.4 Q35.2 -5.55 34.15 -5.55 33.05 -5.55 32.45 -4.95 32.0 -4.55 32.0 -3.95 L32.0 0.4 33.05 0.4 33.05 -3.6 Q33.05 -4.1 33.35 -4.4 33.7 -4.75 34.3 -4.75 34.8 -4.75 35.35 -4.2 36.15 -3.4 36.15 -2.5 L36.15 0.4 37.2 0.4 37.3 0.4 37.3 0.45 37.3 0.55 37.2 0.6 18.15 0.6 17.75 0.6 17.4 0.6 3.15 0.6 2.8 0.6 2.45 0.6 -16.65 0.6 -16.7 0.55 -16.75 0.45 -16.7 0.4 -16.65 0.4 -15.6 0.4 -15.6 -3.6 Q-15.6 -4.1 -15.25 -4.4 L-14.35 -4.75 Q-13.85 -4.75 -13.25 -4.2 -12.5 -3.4 -12.45 -2.5 L-12.45 0.4 -11.45 0.4 -11.45 -5.5 -12.45 -5.5 -12.45 -4.4 Q-13.45 -5.55 -14.5 -5.55 L-15.1 -5.5 -15.25 -5.35 -15.3 -5.35 -15.4 -5.35 -15.45 -5.4 -15.45 -5.45 -15.4 -5.5 -8.55 -13.25 -12.55 -13.25 -12.55 -13.9 -16.65 -13.9 -16.65 -13.25 -16.7 -13.25 -16.7 -13.9 -20.8 -13.9 -20.8 -13.35 -20.7 -13.3 -20.7 -13.25 -20.7 -13.2 -20.75 -13.15 -20.85 -13.15 -22.55 -13.35 -22.6 -13.35 -22.65 -13.45 -22.6 -13.55 -22.5 -13.55 -22.45 -13.55 -21.95 -14.05 Q-23.25 -15.5 -23.8 -16.65 -24.4 -17.95 -24.4 -19.35 -24.4 -21.05 -23.8 -22.3 L-21.95 -24.6 -22.45 -25.05 -22.5 -25.0 -22.6 -25.05 -27.9 -28.55 -27.95 -28.6 -27.9 -28.7 -27.9 -28.75 -27.85 -28.75 -27.8 -28.75 -27.25 -29.25 Q-28.6 -30.7 -29.1 -31.85 -29.7 -33.15 -29.7 -34.55 -29.7 -36.25 -29.1 -37.5 L-27.25 -39.8 -27.75 -40.25 -27.8 -40.25 -27.85 -40.2 -27.9 -40.25 -27.95 -40.35 -26.8 -47.3 -26.75 -47.35 -26.65 -47.35 -26.6 -47.35 -26.6 -47.25 -26.6 -47.2 -25.35 -46.2 Q-23.3 -49.15 -19.25 -51.75 L-20.3 -52.7 -20.4 -52.65 -20.45 -52.7 -20.5 -52.75 -20.45 -52.8 -15.2 -59.75 -15.15 -59.75 -15.05 -59.75 -15.05 -59.7 -15.05 -59.6 -14.5 -59.1 Q-11.9 -61.6 -11.85 -64.9 -11.9 -68.2 -14.5 -70.7 L-14.65 -70.75 -14.9 -70.3 -15.05 -70.05 -15.05 -70.0 -15.1 -69.95 -15.15 -70.0 -15.25 -70.05 -15.2 -70.15 -12.35 -75.3 -12.3 -75.35 -12.25 -75.35 -11.45 -76.35 Q-14.5 -78.95 -15.55 -85.1 L-16.6 -84.6 -16.6 -84.55 -16.6 -84.5 -16.65 -84.45 -16.75 -84.5 -16.8 -84.55 -18.2 -92.85 -18.15 -92.95 -18.1 -92.95 -18.05 -92.95 -18.0 -92.9 -17.95 -92.75 -16.75 -91.8 Q-14.7 -94.75 -10.65 -97.35 L-11.7 -98.3 -11.75 -98.25 -11.85 -98.3 -11.9 -98.35 -11.85 -98.4 -11.85 -98.45 -5.6 -100.55 -4.25 -101.0 -4.2 -101.0 -4.15 -100.95 -4.15 -100.85 -4.25 -100.8 -5.5 -100.35 -6.05 -100.15 Q-7.35 -99.45 -8.5 -98.2 L-7.9 -97.85 -5.3 -99.75 Q-4.05 -100.4 -2.6 -100.4 L0.35 -99.75 Q1.5 -99.2 2.8 -97.85 L3.35 -98.2 Q2.35 -99.45 0.85 -100.25 L-0.6 -100.85 -1.25 -100.9 -2.6 -101.0 -2.65 -101.05 -2.65 -101.15 M6.2 -85.55 Q6.2 -85.05 6.55 -84.65 6.95 -84.3 7.4 -84.3 7.9 -84.3 8.3 -84.65 8.65 -85.05 8.65 -85.55 L8.3 -86.35 Q7.9 -86.75 7.4 -86.75 6.95 -86.75 6.55 -86.35 L6.45 -86.2 6.2 -85.55 M5.85 -87.05 L-7.65 -87.05 -7.65 -86.5 5.85 -86.5 5.85 -87.05 M6.85 -86.1 L7.4 -86.35 8.0 -86.1 8.2 -85.55 8.0 -84.95 7.4 -84.75 Q7.05 -84.75 6.85 -84.95 L6.65 -85.55 6.85 -86.1 M18.8 -54.65 Q17.15 -55.55 15.35 -55.55 13.45 -55.55 11.95 -54.65 L9.4 -52.6 10.0 -52.25 12.6 -54.15 Q13.9 -54.8 15.35 -54.8 L18.35 -54.15 Q19.45 -53.6 20.75 -52.25 L21.35 -52.6 Q20.35 -53.85 18.8 -54.65 M21.9 -31.7 L10.4 -31.7 10.4 -30.55 21.9 -30.55 21.9 -31.7 M20.45 -38.9 L11.75 -38.9 11.75 -37.75 20.45 -37.75 20.45 -38.9 M5.55 -39.7 Q8.0 -37.4 8.0 -34.5 8.0 -31.55 5.55 -29.3 L6.15 -28.7 Q7.9 -30.35 8.5 -32.35 L8.8 -34.5 Q8.8 -37.8 6.15 -40.3 L5.55 -39.7 M8.95 -24.35 L8.9 -24.4 8.9 -24.5 7.95 -24.75 Q7.55 -17.95 3.75 -15.4 L4.4 -14.15 4.5 -14.15 4.55 -14.1 7.75 -8.65 7.8 -8.55 7.75 -8.55 7.7 -8.5 7.6 -8.55 7.55 -8.6 6.4 -8.6 9.65 -3.55 9.65 0.4 10.9 0.4 10.9 -3.55 14.15 -8.6 13.0 -8.6 13.0 -8.55 12.95 -8.5 12.85 -8.5 12.8 -8.55 12.8 -8.65 15.1 -13.95 15.15 -14.0 15.2 -14.0 15.25 -14.0 15.95 -15.1 Q12.95 -17.7 12.25 -24.55 L11.0 -24.3 10.95 -24.15 11.15 -24.1 11.2 -24.05 11.25 -23.95 11.2 -23.95 11.15 -23.95 11.15 -23.9 8.95 -24.35 M17.75 -4.6 Q18.4 -4.6 18.8 -4.2 19.45 -3.55 19.45 -2.5 19.45 -1.45 18.9 -0.85 18.4 -0.35 17.75 -0.35 17.15 -0.35 16.65 -0.85 16.05 -1.45 16.05 -2.5 16.05 -3.55 16.7 -4.2 17.15 -4.6 17.75 -4.6 M15.8 -4.75 Q14.9 -3.9 14.9 -2.5 14.9 -1.15 15.8 -0.2 L16.65 0.4 18.9 0.4 19.75 -0.2 Q20.6 -1.15 20.6 -2.5 20.6 -3.9 19.75 -4.75 18.95 -5.55 17.75 -5.55 16.55 -5.55 15.8 -4.75 M23.3 -4.25 L24.05 -4.55 Q24.75 -4.55 25.25 -4.1 L25.7 -3.3 25.7 0.4 26.75 0.4 26.75 -3.7 27.05 -4.35 27.85 -4.55 Q28.45 -4.55 28.9 -4.15 L29.35 -3.25 29.35 0.4 30.4 0.4 30.4 -5.5 29.35 -5.5 29.35 -4.55 Q28.65 -5.55 27.75 -5.55 26.75 -5.55 26.2 -5.05 L25.8 -4.45 Q25.1 -5.55 23.9 -5.55 23.0 -5.55 22.55 -5.1 22.15 -4.7 22.05 -4.2 L22.0 -3.95 22.0 0.4 23.1 0.4 23.1 -3.75 23.3 -4.25 M-9.25 -86.35 L-8.65 -86.1 -8.45 -85.55 -8.65 -84.95 Q-8.85 -84.75 -9.25 -84.75 L-9.85 -84.95 -10.05 -85.55 -9.85 -86.1 -9.25 -86.35 M-10.45 -85.55 Q-10.45 -85.05 -10.1 -84.65 -9.7 -84.3 -9.25 -84.3 -8.8 -84.3 -8.4 -84.65 -8.05 -85.05 -8.05 -85.55 L-8.25 -86.2 -8.4 -86.35 Q-8.8 -86.75 -9.25 -86.75 -9.7 -86.75 -10.1 -86.35 L-10.45 -85.55 M-2.95 -69.6 L0.75 -69.6 0.75 -66.95 Q0.75 -63.45 2.15 -61.3 L-2.95 -61.3 -2.95 -69.6 M-5.25 -61.3 L-5.25 -58.35 -4.15 -58.35 -4.15 -60.3 3.25 -60.3 3.25 -58.35 4.35 -58.35 4.35 -61.3 3.4 -61.3 Q1.8 -63.55 1.8 -66.95 L1.8 -70.65 -4.0 -70.65 -4.0 -61.3 -5.25 -61.3 M-16.5 -52.25 L-13.9 -54.15 Q-12.65 -54.8 -11.15 -54.8 L-8.2 -54.15 Q-7.05 -53.6 -5.75 -52.25 L-5.2 -52.6 -7.7 -54.65 Q-9.4 -55.55 -11.15 -55.55 -13.05 -55.55 -14.6 -54.65 -15.85 -53.9 -17.1 -52.6 L-16.5 -52.25 M2.8 -54.2 L0.05 -49.95 -0.05 -49.95 -2.75 -54.2 -4.2 -54.2 -0.6 -48.9 -0.6 -45.15 0.65 -45.15 0.65 -48.9 4.3 -54.2 2.8 -54.2 M-0.9 -36.95 Q-0.55 -36.55 -0.55 -36.15 -0.55 -35.65 -0.9 -35.3 -1.3 -34.95 -2.9 -34.95 L-4.1 -34.65 -4.25 -34.35 -4.1 -34.0 Q-3.85 -33.75 -3.35 -33.75 L-1.85 -33.95 Q0.3 -33.6 1.1 -32.8 L1.4 -32.05 1.2 -31.45 Q0.95 -31.25 0.35 -31.15 L-1.65 -30.9 Q-2.65 -30.75 -3.05 -30.35 L-3.4 -29.5 Q-3.45 -28.95 -3.0 -28.5 -2.45 -27.95 -1.15 -27.95 -0.45 -27.95 0.45 -28.3 L0.15 -29.15 -1.35 -28.85 Q-2.05 -28.85 -2.25 -29.1 L-2.35 -29.4 -2.2 -29.75 -1.55 -29.95 0.5 -30.25 Q1.55 -30.4 1.95 -30.85 2.4 -31.35 2.4 -32.0 2.4 -32.85 2.0 -33.3 1.2 -34.1 -0.55 -34.55 0.5 -35.1 0.5 -36.25 0.5 -36.9 0.1 -37.35 -0.5 -37.9 -1.8 -38.2 -1.3 -38.55 -1.3 -39.05 L-1.5 -39.8 Q-2.15 -40.45 -3.35 -40.5 L-3.55 -39.55 -2.45 -39.3 -2.35 -38.95 -2.45 -38.7 -3.65 -38.5 Q-4.7 -38.5 -5.05 -38.15 L-5.2 -37.85 -5.05 -37.55 -4.05 -37.35 -2.65 -37.65 Q-1.45 -37.5 -0.9 -36.95 M-9.4 -40.3 Q-12.05 -37.8 -12.05 -34.5 -12.05 -33.35 -11.7 -32.3 -11.15 -30.35 -9.4 -28.7 L-8.8 -29.3 Q-11.25 -31.55 -11.25 -34.5 -11.25 -37.4 -8.8 -39.7 L-9.4 -40.3 M-15.05 -38.9 L-23.75 -38.9 -23.75 -37.75 -15.05 -37.75 -15.05 -38.9 M-11.7 -23.45 Q-10.7 -17.55 -7.4 -14.5 L-7.3 -14.55 -7.25 -14.55 -6.45 -15.55 Q-9.55 -18.15 -10.6 -24.3 L-11.7 -23.75 Q-12.05 -23.55 -11.7 -23.45 M-13.6 -30.55 L-13.6 -31.7 -25.05 -31.7 -25.05 -30.55 -13.6 -30.55 M-7.8 -4.55 L-6.6 -4.1 Q-6.2 -3.7 -6.15 -3.3 L-6.15 0.4 -5.1 0.4 -5.1 -3.7 -4.8 -4.35 -4.0 -4.55 Q-3.45 -4.55 -3.0 -4.15 -2.5 -3.7 -2.5 -3.25 L-2.5 0.4 -1.45 0.4 -1.45 -5.5 -2.5 -5.5 -2.5 -4.55 Q-3.25 -5.55 -4.05 -5.55 -5.1 -5.55 -5.65 -5.05 L-6.05 -4.45 Q-6.8 -5.55 -7.95 -5.55 -8.85 -5.55 -9.25 -5.1 -9.85 -4.55 -9.85 -3.95 L-9.85 0.4 -8.75 0.4 -8.75 -3.75 -8.55 -4.25 Q-8.25 -4.55 -7.8 -4.55 M-0.05 -2.5 Q-0.05 -1.15 0.85 -0.2 L1.7 0.4 3.95 0.4 4.75 -0.2 Q5.65 -1.15 5.65 -2.5 5.65 -3.9 4.75 -4.75 3.95 -5.55 2.8 -5.55 1.6 -5.55 0.85 -4.75 L0.4 -4.2 Q-0.05 -3.5 -0.05 -2.5 M2.8 -4.6 Q3.45 -4.6 3.85 -4.2 4.5 -3.55 4.5 -2.5 4.5 -1.45 3.95 -0.85 3.45 -0.35 2.8 -0.35 2.15 -0.35 1.7 -0.85 1.1 -1.45 1.1 -2.5 1.1 -3.55 1.75 -4.2 2.15 -4.6 2.8 -4.6" fill="#ffffff" fill-rule="evenodd" stroke="none"/>
    <path d="M6.2 -100.15 Q7.2 -94.15 10.2 -91.6 L10.2 -91.55 10.2 -91.45 9.45 -90.45 Q6.35 -93.2 5.2 -98.55 L5.05 -99.45 Q4.7 -99.55 5.05 -99.75 L6.0 -100.2 6.15 -100.15 6.2 -100.15 M10.75 -85.85 L12.65 -83.45 Q13.35 -82.0 13.35 -80.15 13.35 -78.5 12.65 -77.05 12.0 -75.75 10.75 -74.35 L10.7 -74.35 10.6 -74.35 10.1 -74.85 Q11.4 -76.3 11.95 -77.45 12.55 -78.75 12.55 -80.15 12.55 -81.85 11.95 -83.1 11.4 -84.15 10.1 -85.4 L10.55 -85.85 10.6 -85.85 10.65 -85.8 10.75 -85.85 M13.1 -70.75 L13.1 -66.05 Q13.1 -61.9 16.65 -60.55 L16.7 -60.45 16.7 -60.4 16.1 -59.35 Q11.85 -61.15 11.85 -65.5 L11.85 -70.4 Q11.35 -70.75 11.9 -70.85 L12.95 -70.85 13.0 -70.75 13.1 -70.75 M23.05 -54.8 L28.6 -44.95 28.55 -44.9 28.55 -44.85 28.55 -44.75 28.15 -44.55 22.5 -54.55 22.95 -54.8 23.0 -54.75 23.05 -54.8 M28.8 -40.25 L30.75 -37.85 Q31.35 -36.4 31.4 -34.55 31.35 -32.9 30.75 -31.45 L28.8 -28.75 28.75 -28.75 28.7 -28.75 28.65 -28.75 28.15 -29.25 Q29.5 -30.7 30.0 -31.85 30.6 -33.15 30.6 -34.55 30.6 -36.25 30.0 -37.5 L28.15 -39.8 28.65 -40.25 28.7 -40.25 28.75 -40.2 28.8 -40.25 M27.9 -26.1 L27.9 -12.8 27.8 -12.75 26.85 -12.75 26.85 -26.2 27.8 -26.2 27.8 -26.15 27.85 -26.1 27.9 -26.1 M37.2 -5.35 L37.2 0.4 36.15 0.4 36.15 -2.5 Q36.15 -3.4 35.35 -4.2 34.8 -4.75 34.3 -4.75 33.7 -4.75 33.35 -4.4 33.05 -4.1 33.05 -3.6 L33.05 0.4 32.0 0.4 32.0 -3.95 Q32.0 -4.55 32.45 -4.95 33.05 -5.55 34.15 -5.55 35.2 -5.55 36.15 -4.4 L36.15 -5.5 37.05 -5.5 37.15 -5.4 37.2 -5.35 M-16.65 0.4 L-16.65 -3.95 Q-16.65 -4.55 -16.2 -4.95 L-15.45 -5.4 -15.4 -5.35 -15.3 -5.35 -15.25 -5.35 -15.1 -5.5 -14.5 -5.55 Q-13.45 -5.55 -12.45 -4.4 L-12.45 -5.5 -11.45 -5.5 -11.45 0.4 -12.45 0.4 -12.45 -2.5 Q-12.5 -3.4 -13.25 -4.2 -13.85 -4.75 -14.35 -4.75 L-15.25 -4.4 Q-15.6 -4.1 -15.6 -3.6 L-15.6 0.4 -16.65 0.4 M-12.55 -13.25 L-16.65 -13.25 -16.65 -13.9 -12.55 -13.9 -12.55 -13.25 M-16.7 -13.25 L-20.7 -13.25 -20.7 -13.3 -20.8 -13.35 -20.8 -13.9 -16.7 -13.9 -16.7 -13.25 M-22.6 -13.55 Q-23.85 -14.95 -24.45 -16.25 -25.2 -17.7 -25.2 -19.35 -25.2 -21.2 -24.45 -22.65 -23.95 -23.8 -22.6 -25.05 L-22.5 -25.0 -22.45 -25.05 -21.95 -24.6 -23.8 -22.3 Q-24.4 -21.05 -24.4 -19.35 -24.4 -17.95 -23.8 -16.65 -23.25 -15.5 -21.95 -14.05 L-22.45 -13.55 -22.5 -13.55 -22.6 -13.55 M-27.9 -28.75 Q-29.2 -30.15 -29.8 -31.45 -30.5 -32.9 -30.5 -34.55 -30.5 -36.4 -29.8 -37.85 -29.25 -39.0 -27.9 -40.25 L-27.85 -40.2 -27.8 -40.25 -27.75 -40.25 -27.25 -39.8 -29.1 -37.5 Q-29.7 -36.25 -29.7 -34.55 -29.7 -33.15 -29.1 -31.85 -28.6 -30.7 -27.25 -29.25 L-27.8 -28.75 -27.85 -28.75 -27.9 -28.75 M-26.65 -47.35 Q-24.65 -50.05 -20.45 -52.7 L-20.4 -52.65 -20.3 -52.7 -19.25 -51.75 Q-23.3 -49.15 -25.35 -46.2 L-26.6 -47.2 -26.6 -47.25 -26.6 -47.35 -26.65 -47.35 M-15.05 -59.75 Q-12.7 -62.0 -12.65 -64.9 -12.7 -67.75 -15.05 -70.0 L-15.05 -70.05 -14.9 -70.3 -14.5 -70.7 Q-11.9 -68.2 -11.85 -64.9 -11.9 -61.6 -14.5 -59.1 L-15.05 -59.6 -15.05 -59.7 -15.05 -59.75 M-12.35 -75.3 Q-15.65 -78.35 -16.65 -84.25 -17.0 -84.35 -16.75 -84.5 L-16.65 -84.45 -16.6 -84.5 -16.6 -84.55 -16.6 -84.6 -15.55 -85.1 Q-14.5 -78.95 -11.45 -76.35 L-12.25 -75.35 -12.3 -75.35 -12.35 -75.3 M-18.05 -92.95 Q-16.05 -95.65 -11.85 -98.3 L-11.75 -98.25 -11.7 -98.3 -10.65 -97.35 Q-14.7 -94.75 -16.75 -91.8 L-17.95 -92.75 -18.0 -92.9 -18.05 -92.95 M-4.15 -100.95 L-2.65 -101.15 -2.65 -101.05 -2.6 -101.0 -1.25 -100.9 -0.6 -100.85 0.85 -100.25 Q2.35 -99.45 3.35 -98.2 L2.8 -97.85 Q1.5 -99.2 0.35 -99.75 L-2.6 -100.4 Q-4.05 -100.4 -5.3 -99.75 L-7.9 -97.85 -8.5 -98.2 Q-7.35 -99.45 -6.05 -100.15 L-5.5 -100.35 -4.25 -100.8 -4.15 -100.85 -4.15 -100.95 M4.55 -14.1 L4.5 -14.15 4.4 -14.15 3.75 -15.4 Q7.55 -17.95 7.95 -24.75 L8.9 -24.5 8.9 -24.4 8.95 -24.35 Q8.6 -17.1 4.55 -14.1 M5.55 -39.7 L6.15 -40.3 Q8.8 -37.8 8.8 -34.5 L8.5 -32.35 Q7.9 -30.35 6.15 -28.7 L5.55 -29.3 Q8.0 -31.55 8.0 -34.5 8.0 -37.4 5.55 -39.7 M20.45 -38.9 L20.45 -37.75 11.75 -37.75 11.75 -38.9 20.45 -38.9 M21.9 -31.7 L21.9 -30.55 10.4 -30.55 10.4 -31.7 21.9 -31.7 M18.8 -54.65 Q20.35 -53.85 21.35 -52.6 L20.75 -52.25 Q19.45 -53.6 18.35 -54.15 L15.35 -54.8 Q13.9 -54.8 12.6 -54.15 L10.0 -52.25 9.4 -52.6 11.95 -54.65 Q13.45 -55.55 15.35 -55.55 17.15 -55.55 18.8 -54.65 M6.85 -86.1 L6.65 -85.55 6.85 -84.95 Q7.05 -84.75 7.4 -84.75 L8.0 -84.95 8.2 -85.55 8.0 -86.1 7.4 -86.35 6.85 -86.1 M5.85 -87.05 L5.85 -86.5 -7.65 -86.5 -7.65 -87.05 5.85 -87.05 M6.2 -85.55 L6.45 -86.2 6.55 -86.35 Q6.95 -86.75 7.4 -86.75 7.9 -86.75 8.3 -86.35 L8.65 -85.55 Q8.65 -85.05 8.3 -84.65 7.9 -84.3 7.4 -84.3 6.95 -84.3 6.55 -84.65 6.2 -85.05 6.2 -85.55 M11.15 -23.95 L11.2 -23.95 11.25 -23.95 11.2 -24.05 11.15 -24.1 10.95 -24.15 11.0 -24.3 12.25 -24.55 Q12.95 -17.7 15.95 -15.1 L15.25 -14.0 15.2 -14.0 15.15 -14.0 15.1 -13.95 Q11.85 -16.75 11.15 -23.95 M12.85 -8.5 L12.95 -8.5 13.0 -8.55 13.0 -8.6 14.15 -8.6 10.9 -3.55 10.9 0.4 9.65 0.4 9.65 -3.55 6.4 -8.6 7.55 -8.6 7.6 -8.55 7.7 -8.5 7.75 -8.55 10.3 -4.45 12.85 -8.5 M23.3 -4.25 L23.1 -3.75 23.1 0.4 22.0 0.4 22.0 -3.95 22.05 -4.2 Q22.15 -4.7 22.55 -5.1 23.0 -5.55 23.9 -5.55 25.1 -5.55 25.8 -4.45 L26.2 -5.05 Q26.75 -5.55 27.75 -5.55 28.65 -5.55 29.35 -4.55 L29.35 -5.5 30.4 -5.5 30.4 0.4 29.35 0.4 29.35 -3.25 28.9 -4.15 Q28.45 -4.55 27.85 -4.55 L27.05 -4.35 26.75 -3.7 26.75 0.4 25.7 0.4 25.7 -3.3 25.25 -4.1 Q24.75 -4.55 24.05 -4.55 L23.3 -4.25 M15.8 -4.75 Q16.55 -5.55 17.75 -5.55 18.95 -5.55 19.75 -4.75 20.6 -3.9 20.6 -2.5 20.6 -1.15 19.75 -0.2 L18.9 0.4 16.65 0.4 15.8 -0.2 Q14.9 -1.15 14.9 -2.5 14.9 -3.9 15.8 -4.75 M17.75 -4.6 Q17.15 -4.6 16.7 -4.2 16.05 -3.55 16.05 -2.5 16.05 -1.45 16.65 -0.85 17.15 -0.35 17.75 -0.35 18.4 -0.35 18.9 -0.85 19.45 -1.45 19.45 -2.5 19.45 -3.55 18.8 -4.2 18.4 -4.6 17.75 -4.6 M-5.25 -61.3 L-4.0 -61.3 -4.0 -70.65 1.8 -70.65 1.8 -66.95 Q1.8 -63.55 3.4 -61.3 L4.35 -61.3 4.35 -58.35 3.25 -58.35 3.25 -60.3 -4.15 -60.3 -4.15 -58.35 -5.25 -58.35 -5.25 -61.3 M-2.95 -69.6 L-2.95 -61.3 2.15 -61.3 Q0.75 -63.45 0.75 -66.95 L0.75 -69.6 -2.95 -69.6 M-10.45 -85.55 L-10.1 -86.35 Q-9.7 -86.75 -9.25 -86.75 -8.8 -86.75 -8.4 -86.35 L-8.25 -86.2 -8.05 -85.55 Q-8.05 -85.05 -8.4 -84.65 -8.8 -84.3 -9.25 -84.3 -9.7 -84.3 -10.1 -84.65 -10.45 -85.05 -10.45 -85.55 M-9.25 -86.35 L-9.85 -86.1 -10.05 -85.55 -9.85 -84.95 -9.25 -84.75 Q-8.85 -84.75 -8.65 -84.95 L-8.45 -85.55 -8.65 -86.1 -9.25 -86.35 M2.8 -4.6 Q2.15 -4.6 1.75 -4.2 1.1 -3.55 1.1 -2.5 1.1 -1.45 1.7 -0.85 2.15 -0.35 2.8 -0.35 3.45 -0.35 3.95 -0.85 4.5 -1.45 4.5 -2.5 4.5 -3.55 3.85 -4.2 3.45 -4.6 2.8 -4.6 M-0.05 -2.5 Q-0.05 -3.5 0.4 -4.2 L0.85 -4.75 Q1.6 -5.55 2.8 -5.55 3.95 -5.55 4.75 -4.75 5.65 -3.9 5.65 -2.5 5.65 -1.15 4.75 -0.2 L3.95 0.4 1.7 0.4 0.85 -0.2 Q-0.05 -1.15 -0.05 -2.5 M-7.8 -4.55 Q-8.25 -4.55 -8.55 -4.25 L-8.75 -3.75 -8.75 0.4 -9.85 0.4 -9.85 -3.95 Q-9.85 -4.55 -9.25 -5.1 -8.85 -5.55 -7.95 -5.55 -6.8 -5.55 -6.05 -4.45 L-5.65 -5.05 Q-5.1 -5.55 -4.05 -5.55 -3.25 -5.55 -2.5 -4.55 L-2.5 -5.5 -1.45 -5.5 -1.45 0.4 -2.5 0.4 -2.5 -3.25 Q-2.5 -3.7 -3.0 -4.15 -3.45 -4.55 -4.0 -4.55 L-4.8 -4.35 -5.1 -3.7 -5.1 0.4 -6.15 0.4 -6.15 -3.3 Q-6.2 -3.7 -6.6 -4.1 L-7.8 -4.55 M-13.6 -30.55 L-25.05 -30.55 -25.05 -31.7 -13.6 -31.7 -13.6 -30.55 M-11.7 -23.45 Q-12.05 -23.55 -11.7 -23.75 L-10.6 -24.3 Q-9.55 -18.15 -6.45 -15.55 L-7.25 -14.55 -7.3 -14.55 -7.4 -14.5 Q-10.7 -17.55 -11.7 -23.45 M-15.05 -38.9 L-15.05 -37.75 -23.75 -37.75 -23.75 -38.9 -15.05 -38.9 M-9.4 -40.3 L-8.8 -39.7 Q-11.25 -37.4 -11.25 -34.5 -11.25 -31.55 -8.8 -29.3 L-9.4 -28.7 Q-11.15 -30.35 -11.7 -32.3 -12.05 -33.35 -12.05 -34.5 -12.05 -37.8 -9.4 -40.3 M-0.9 -36.95 Q-1.45 -37.5 -2.65 -37.65 L-4.05 -37.35 -5.05 -37.55 -5.2 -37.85 -5.05 -38.15 Q-4.7 -38.5 -3.65 -38.5 L-2.45 -38.7 -2.35 -38.95 -2.45 -39.3 -3.55 -39.55 -3.35 -40.5 Q-2.15 -40.45 -1.5 -39.8 L-1.3 -39.05 Q-1.3 -38.55 -1.8 -38.2 -0.5 -37.9 0.1 -37.35 0.5 -36.9 0.5 -36.25 0.5 -35.1 -0.55 -34.55 1.2 -34.1 2.0 -33.3 2.4 -32.85 2.4 -32.0 2.4 -31.35 1.95 -30.85 1.55 -30.4 0.5 -30.25 L-1.55 -29.95 -2.2 -29.75 -2.35 -29.4 -2.25 -29.1 Q-2.05 -28.85 -1.35 -28.85 L0.15 -29.15 0.45 -28.3 Q-0.45 -27.95 -1.15 -27.95 -2.45 -27.95 -3.0 -28.5 -3.45 -28.95 -3.4 -29.5 L-3.05 -30.35 Q-2.65 -30.75 -1.65 -30.9 L0.35 -31.15 Q0.95 -31.25 1.2 -31.45 L1.4 -32.05 1.1 -32.8 Q0.3 -33.6 -1.85 -33.95 L-3.35 -33.75 Q-3.85 -33.75 -4.1 -34.0 L-4.25 -34.35 -4.1 -34.65 -2.9 -34.95 Q-1.3 -34.95 -0.9 -35.3 -0.55 -35.65 -0.55 -36.15 -0.55 -36.55 -0.9 -36.95 M2.8 -54.2 L4.3 -54.2 0.65 -48.9 0.65 -45.15 -0.6 -45.15 -0.6 -48.9 -4.2 -54.2 -2.75 -54.2 -0.05 -49.95 0.05 -49.95 2.8 -54.2 M-16.5 -52.25 L-17.1 -52.6 Q-15.85 -53.9 -14.6 -54.65 -13.05 -55.55 -11.15 -55.55 -9.4 -55.55 -7.7 -54.65 L-5.2 -52.6 -5.75 -52.25 Q-7.05 -53.6 -8.2 -54.15 L-11.15 -54.8 Q-12.65 -54.8 -13.9 -54.15 L-16.5 -52.25" fill="#000000" fill-rule="evenodd" stroke="none"/>
  </g>
</svg>
