<svg xmlns:xlink="http://www.w3.org/1999/xlink" height="84.05px" width="44.1px" xmlns="http://www.w3.org/2000/svg">
  <g transform="matrix(1.0, 0.0, 0.0, 1.0, 16.8, 83.5)">
    <path d="M-12.05 -70.65 L-12.65 -70.95 -6.9 -83.5 -1.4 -71.5 -1.15 -70.95 -2.3 -70.35 -6.9 -80.35 -11.45 -70.35 -12.05 -70.65 M3.4 -71.5 L8.9 -83.5 14.65 -70.95 13.5 -70.35 8.9 -80.35 4.35 -70.35 3.15 -70.95 3.4 -71.5 M17.0 -65.6 Q20.1 -62.7 20.1 -58.8 20.1 -54.95 17.0 -52.0 L16.3 -52.7 Q19.15 -55.35 19.15 -58.8 19.15 -62.25 16.3 -64.95 L17.0 -65.6 M13.45 -46.95 L14.15 -47.6 Q17.25 -44.7 17.25 -40.8 17.25 -36.95 14.15 -34.0 L13.45 -34.7 13.95 -35.2 Q16.3 -37.65 16.3 -40.8 16.3 -44.25 13.45 -46.95 M10.5 -30.95 L11.75 -30.95 11.75 -15.05 11.1 -15.05 10.5 -15.05 10.5 -30.95 M10.85 -10.25 L12.05 -10.25 12.05 -4.3 Q12.05 -2.1 10.75 -0.8 9.35 0.55 7.5 0.55 5.6 0.55 4.25 -0.8 2.9 -2.1 2.9 -4.3 L2.9 -10.25 4.1 -10.25 4.1 -4.3 Q4.1 -2.7 5.15 -1.6 6.1 -0.7 7.5 -0.7 8.85 -0.7 9.8 -1.6 10.85 -2.7 10.85 -4.3 L10.85 -10.25 M-1.95 -10.25 L-1.95 -4.3 Q-1.95 -2.1 -3.25 -0.8 -4.65 0.55 -6.5 0.55 -8.4 0.55 -9.75 -0.8 -11.1 -2.1 -11.1 -4.3 L-11.1 -10.25 -9.9 -10.25 -9.9 -4.3 Q-9.9 -2.7 -8.85 -1.6 -7.9 -0.7 -6.5 -0.7 -5.15 -0.7 -4.2 -1.6 -3.15 -2.7 -3.15 -4.3 L-3.15 -10.25 -1.95 -10.25 M-11.2 -15.05 L-11.2 -30.95 -11.1 -30.95 -9.95 -30.95 -9.95 -15.05 -11.2 -15.05 M-10.6 -33.05 L-11.2 -33.05 -11.2 -48.95 -9.95 -48.95 -9.95 -33.05 -10.6 -33.05 M-13.1 -34.5 L-13.65 -34.0 Q-16.8 -36.95 -16.8 -40.8 -16.8 -44.3 -14.25 -47.0 L-13.65 -47.6 -12.95 -46.95 Q-15.85 -44.25 -15.85 -40.8 -15.85 -37.7 -13.5 -35.25 L-12.95 -34.7 -13.1 -34.5 M-13.3 -52.35 L-13.65 -52.0 Q-16.8 -54.95 -16.8 -58.8 -16.8 -62.7 -13.65 -65.6 L-12.95 -64.95 Q-15.85 -62.25 -15.85 -58.8 -15.85 -55.35 -12.95 -52.7 L-13.3 -52.35 M-11.65 -66.2 Q-11.2 -66.6 -10.65 -66.6 -10.05 -66.6 -9.65 -66.2 -9.2 -65.75 -9.2 -65.2 -9.2 -64.6 -9.65 -64.2 -10.05 -63.75 -10.65 -63.75 -11.2 -63.75 -11.65 -64.2 -12.05 -64.6 -12.05 -65.2 L-11.65 -66.2 M-11.3 -65.85 L-11.55 -65.2 -11.3 -64.5 Q-11.05 -64.25 -10.65 -64.25 -10.2 -64.25 -9.95 -64.5 -9.7 -64.75 -9.7 -65.2 L-9.95 -65.85 -10.65 -66.1 -11.3 -65.85 M-6.35 -54.55 L-5.3 -54.55 Q-3.45 -57.2 -3.45 -61.25 L-3.45 -65.55 3.45 -65.55 3.45 -54.55 4.9 -54.55 4.9 -51.1 3.65 -51.1 3.65 -53.35 -5.1 -53.35 -5.1 -51.1 -6.35 -51.1 -6.35 -54.55 M8.05 -66.2 Q8.5 -66.6 9.05 -66.6 9.65 -66.6 10.05 -66.2 L10.5 -65.2 Q10.5 -64.6 10.05 -64.2 9.65 -63.75 9.05 -63.75 8.5 -63.75 8.05 -64.2 7.65 -64.6 7.65 -65.2 7.65 -65.75 8.05 -66.2 M8.15 -65.2 Q8.15 -64.75 8.4 -64.5 8.65 -64.25 9.05 -64.25 9.5 -64.25 9.75 -64.5 L10.0 -65.2 9.75 -65.85 9.05 -66.1 Q8.65 -66.1 8.4 -65.85 8.15 -65.6 8.15 -65.2 M-2.2 -61.25 Q-2.2 -57.1 -3.85 -54.55 L2.2 -54.55 2.2 -64.35 -2.2 -64.35 -2.2 -61.25 M11.75 -33.05 L10.5 -33.05 10.5 -48.95 11.75 -48.95 11.75 -33.05 M18.05 -24.8 Q19.3 -24.8 20.9 -23.85 22.55 -22.85 23.7 -22.85 24.5 -22.85 25.3 -23.7 L26.05 -24.75 27.3 -23.7 25.9 -22.05 Q24.9 -21.1 23.5 -21.1 22.45 -21.1 20.55 -22.25 19.15 -23.1 18.2 -23.1 17.15 -23.1 16.55 -22.45 15.95 -21.7 15.9 -21.35 L14.55 -22.2 15.95 -23.95 Q16.9 -24.8 18.05 -24.8" fill="#000000" fill-rule="evenodd" stroke="none"/>
    <path d="M-1.4 -71.5 L1.85 -71.65 3.4 -71.5 3.15 -70.95 4.35 -70.35 8.9 -80.35 13.5 -70.35 14.65 -70.95 Q15.35 -67.8 17.0 -65.6 L16.3 -64.95 Q19.15 -62.25 19.15 -58.8 19.15 -55.35 16.3 -52.7 L17.0 -52.0 12.65 -49.95 Q13.4 -48.35 13.45 -46.95 16.3 -44.25 16.3 -40.8 16.3 -37.65 13.95 -35.2 L13.45 -34.7 13.6 -34.55 Q12.85 -33.55 11.75 -33.05 10.6 -32.2 10.5 -30.95 L10.5 -15.05 11.1 -15.05 Q11.35 -14.25 11.15 -12.5 L10.85 -10.25 10.85 -4.3 Q10.85 -2.7 9.8 -1.6 8.85 -0.7 7.5 -0.7 6.1 -0.7 5.15 -1.6 4.1 -2.7 4.1 -4.3 L4.1 -10.25 2.9 -10.25 Q0.7 -11.0 -1.95 -10.25 L-3.15 -10.25 -3.15 -4.3 Q-3.15 -2.7 -4.2 -1.6 -5.15 -0.7 -6.5 -0.7 -7.9 -0.7 -8.85 -1.6 -9.9 -2.7 -9.9 -4.3 L-9.9 -10.25 -11.1 -10.25 Q-11.6 -12.65 -11.2 -15.05 L-9.95 -15.05 -9.95 -30.95 -11.1 -30.95 -10.6 -33.05 -9.95 -33.05 -9.95 -48.95 -11.2 -48.95 -11.2 -33.05 Q-12.4 -33.4 -13.1 -34.5 L-12.95 -34.7 -13.5 -35.25 Q-15.85 -37.7 -15.85 -40.8 -15.85 -44.25 -12.95 -46.95 L-13.65 -47.6 -11.3 -50.4 Q-12.55 -51.35 -13.3 -52.35 L-12.95 -52.7 Q-15.85 -55.35 -15.85 -58.8 -15.85 -62.25 -12.95 -64.95 L-13.65 -65.6 -12.05 -70.65 -11.45 -70.35 -6.9 -80.35 -2.3 -70.35 -1.15 -70.95 -1.4 -71.5 M11.75 -33.05 L11.75 -48.95 10.5 -48.95 10.5 -33.05 11.75 -33.05 M-2.2 -61.25 L-2.2 -64.35 2.2 -64.35 2.2 -54.55 -3.85 -54.55 Q-2.2 -57.1 -2.2 -61.25 M8.15 -65.2 Q8.15 -65.6 8.4 -65.85 8.65 -66.1 9.05 -66.1 L9.75 -65.85 10.0 -65.2 9.75 -64.5 Q9.5 -64.25 9.05 -64.25 8.65 -64.25 8.4 -64.5 8.15 -64.75 8.15 -65.2 M8.05 -66.2 Q7.65 -65.75 7.65 -65.2 7.65 -64.6 8.05 -64.2 8.5 -63.75 9.05 -63.75 9.65 -63.75 10.05 -64.2 10.5 -64.6 10.5 -65.2 L10.05 -66.2 Q9.65 -66.6 9.05 -66.6 8.5 -66.6 8.05 -66.2 M-6.35 -54.55 L-6.35 -51.1 -5.1 -51.1 -5.1 -53.35 3.65 -53.35 3.65 -51.1 4.9 -51.1 4.9 -54.55 3.45 -54.55 3.45 -65.55 -3.45 -65.55 -3.45 -61.25 Q-3.45 -57.2 -5.3 -54.55 L-6.35 -54.55 M-11.3 -65.85 L-10.65 -66.1 -9.95 -65.85 -9.7 -65.2 Q-9.7 -64.75 -9.95 -64.5 -10.2 -64.25 -10.65 -64.25 -11.05 -64.25 -11.3 -64.5 L-11.55 -65.2 -11.3 -65.85 M-11.65 -66.2 L-12.05 -65.2 Q-12.05 -64.6 -11.65 -64.2 -11.2 -63.75 -10.65 -63.75 -10.05 -63.75 -9.65 -64.2 -9.2 -64.6 -9.2 -65.2 -9.2 -65.75 -9.65 -66.2 -10.05 -66.6 -10.65 -66.6 -11.2 -66.6 -11.65 -66.2" fill="#ffffff" fill-rule="evenodd" stroke="none"/>
  </g>
</svg>
