<svg xmlns:xlink="http://www.w3.org/1999/xlink" height="30.85px" width="78.35px" xmlns="http://www.w3.org/2000/svg">
  <g transform="matrix(1.0, 0.0, 0.0, 1.0, 40.1, 30.0)">
    <path d="M19.25 -27.7 L19.6 -28.1 32.4 -17.45 31.75 -16.7 18.95 -27.35 19.25 -27.7 M33.2 -15.65 L33.2 -16.35 37.7 -16.35 37.7 -15.65 33.2 -15.65 M37.6 -13.0 L38.25 -13.0 38.25 -5.2 30.45 -5.2 30.45 -5.85 37.6 -5.85 37.6 -13.0 M28.25 -4.95 L21.55 -4.95 21.55 -5.9 28.25 -5.9 28.25 -4.95 M19.85 -4.65 Q19.6 -2.5 18.1 -1.0 16.3 0.85 13.65 0.85 11.0 0.85 9.2 -1.0 7.4 -2.8 7.4 -5.45 L7.45 -5.9 Q7.55 -8.2 9.2 -9.9 11.0 -11.7 13.65 -11.7 16.3 -11.7 18.1 -9.9 19.9 -8.05 19.9 -5.45 L19.85 -4.65 M5.75 -5.9 L5.75 -4.95 -0.95 -4.95 -0.95 -5.9 5.75 -5.9 M-1.75 -4.95 L-8.45 -4.95 -8.45 -5.0 -8.45 -5.9 -1.75 -5.9 -1.75 -4.95 M-10.1 -5.0 Q-10.25 -2.65 -11.9 -1.0 -13.7 0.85 -16.35 0.85 -19.0 0.85 -20.8 -1.0 -22.6 -2.8 -22.6 -5.45 -22.6 -8.05 -20.8 -9.9 -19.0 -11.7 -16.35 -11.7 -13.7 -11.7 -11.9 -9.9 -10.1 -8.05 -10.1 -5.45 L-10.1 -5.0 M-24.25 -5.45 L-24.25 -4.95 -30.95 -4.95 -30.95 -5.85 -30.95 -5.9 -24.25 -5.9 -24.25 -5.45 M-32.3 -5.85 L-32.3 -5.2 -40.1 -5.2 -40.1 -13.0 -39.45 -13.0 -39.45 -5.85 -32.3 -5.85 M-39.65 -15.05 L-39.7 -15.05 -39.7 -15.7 -24.75 -15.7 -24.75 -15.05 -39.65 -15.05 M-24.55 -17.4 L-25.4 -16.7 -26.05 -17.45 -13.25 -28.1 -12.6 -27.35 -24.55 -17.4 M-11.8 -29.35 L-11.8 -30.0 3.15 -30.0 3.15 -29.35 -11.8 -29.35 M3.2 -29.35 L3.2 -30.0 18.15 -30.0 18.15 -29.35 3.2 -29.35 M13.65 -0.5 Q15.65 -0.5 17.1 -1.95 18.55 -3.45 18.55 -5.45 18.55 -7.4 17.1 -8.9 15.65 -10.35 13.65 -10.35 11.65 -10.35 10.2 -8.9 8.75 -7.4 8.75 -5.45 8.75 -3.45 10.2 -1.95 11.65 -0.5 13.65 -0.5 M-16.35 -10.35 Q-18.35 -10.35 -19.8 -8.9 -21.25 -7.4 -21.25 -5.45 -21.25 -3.45 -19.8 -1.95 -18.35 -0.5 -16.35 -0.5 -14.35 -0.5 -12.9 -1.95 -11.6 -3.3 -11.45 -5.05 L-11.45 -5.45 Q-11.45 -7.4 -12.9 -8.9 -14.35 -10.35 -16.35 -10.35" fill="#000000" fill-rule="evenodd" stroke="none"/>
    <path d="M31.75 -16.7 L32.5 -16.85 Q32.7 -16.05 33.2 -15.65 L37.7 -15.65 Q37.3 -14.05 37.6 -13.0 L37.6 -5.85 30.45 -5.85 30.45 -5.2 28.25 -4.95 28.25 -5.9 21.55 -5.9 21.55 -4.95 19.85 -4.65 19.9 -5.45 Q19.9 -8.05 18.1 -9.9 16.3 -11.7 13.65 -11.7 11.0 -11.7 9.2 -9.9 7.55 -8.2 7.45 -5.9 L5.75 -5.9 -0.95 -5.9 -0.95 -4.95 -1.75 -4.95 -1.75 -5.9 -8.45 -5.9 -8.45 -5.0 -10.1 -5.0 -10.1 -5.45 Q-10.1 -8.05 -11.9 -9.9 -13.7 -11.7 -16.35 -11.7 -19.0 -11.7 -20.8 -9.9 -22.6 -8.05 -22.6 -5.45 L-24.25 -5.45 -24.25 -5.9 -30.95 -5.9 -30.95 -5.85 -32.3 -5.85 -39.45 -5.85 -39.45 -13.0 -39.65 -15.05 -24.75 -15.05 -24.55 -17.4 -12.6 -27.35 -11.8 -29.35 3.15 -29.35 3.2 -29.35 18.15 -29.35 18.15 -30.0 19.25 -27.7 18.95 -27.35 31.75 -16.7 M-16.35 -10.35 Q-14.35 -10.35 -12.9 -8.9 -11.45 -7.4 -11.45 -5.45 L-11.45 -5.05 Q-11.6 -3.3 -12.9 -1.95 -14.35 -0.5 -16.35 -0.5 -18.35 -0.5 -19.8 -1.95 -21.25 -3.45 -21.25 -5.45 -21.25 -7.4 -19.8 -8.9 -18.35 -10.35 -16.35 -10.35 M13.65 -0.5 Q11.65 -0.5 10.2 -1.95 8.75 -3.45 8.75 -5.45 8.75 -7.4 10.2 -8.9 11.65 -10.35 13.65 -10.35 15.65 -10.35 17.1 -8.9 18.55 -7.4 18.55 -5.45 18.55 -3.45 17.1 -1.95 15.65 -0.5 13.65 -0.5" fill="#ffffff" fill-rule="evenodd" stroke="none"/>
  </g>
</svg>
