<?xml version="1.0" encoding="UTF-8" standalone="no"?>
<svg xmlns:xlink="http://www.w3.org/1999/xlink" height="49.55px" width="54.0px" xmlns="http://www.w3.org/2000/svg">
  <g transform="matrix(1.0, 0.0, 0.0, 1.0, 27.0, 24.75)">
    <path d="M25.2 -14.9 Q26.7 -12.6 26.45 -10.5 26.2 -8.3 24.0 -7.9 19.05 8.25 2.0 -0.15 -5.8 4.6 -12.25 3.2 -18.6 1.85 -18.85 -4.3 L-18.9 -4.35 Q-23.55 -5.9 -24.8 -6.65 -26.65 -7.7 -26.5 -12.0 -26.4 -14.5 -23.75 -15.6 -21.5 -16.55 -19.75 -16.0 -15.0 -28.45 -5.0 -17.8 9.5 -30.95 16.25 -17.25 18.7 -19.1 21.35 -18.15 23.6 -17.35 25.2 -14.9 M4.5 -12.15 L-2.0 -12.75 4.5 -12.15 M-14.3 -10.5 Q-15.0 -9.75 -15.85 -9.55 -15.0 -9.75 -14.3 -10.5 M-5.0 -13.0 Q-8.85 -13.15 -10.4 -12.9 -8.85 -13.15 -5.0 -13.0 M9.75 -9.3 L8.75 -8.75 9.75 -9.3 M8.55 -10.55 Q7.85 -10.05 6.75 -9.6 7.85 -10.05 8.55 -10.55 M-0.5 -8.0 Q-0.55 -7.45 -0.75 -7.0 L-1.15 -6.35 Q-2.0 -5.4 -2.7 -5.0 -3.7 -4.45 -4.45 -5.0 -5.15 -5.5 -5.6 -7.0 L-5.8 -7.8 -6.4 -7.0 -7.5 -6.05 Q-8.8 -5.4 -8.95 -8.5 L-9.0 -9.5 -8.95 -8.5 Q-8.8 -5.4 -7.5 -6.05 L-6.4 -7.0 -5.8 -7.8 -5.6 -7.0 Q-5.15 -5.5 -4.45 -5.0 -3.7 -4.45 -2.7 -5.0 -2.0 -5.4 -1.15 -6.35 L-0.75 -7.0 Q-0.55 -7.45 -0.5 -8.0 M-14.65 -11.85 L-16.1 -11.3 -14.65 -11.85" fill="#cccccc" fill-rule="evenodd" stroke="none"/>
    <path d="M25.2 -14.9 Q26.7 -12.6 26.45 -10.5 26.2 -8.3 24.0 -7.9 19.05 8.25 2.0 -0.15 -5.8 4.6 -12.25 3.2 -18.6 1.85 -18.85 -4.3 L-18.9 -4.35 Q-23.55 -5.9 -24.8 -6.65 -26.65 -7.7 -26.5 -12.0 -26.4 -14.5 -23.75 -15.6 -21.5 -16.55 -19.75 -16.0 -15.0 -28.45 -5.0 -17.8 9.5 -30.95 16.25 -17.25 18.7 -19.1 21.35 -18.15 23.6 -17.35 25.2 -14.9 M-2.0 -12.75 L4.5 -12.15 M-9.0 -9.5 L-8.95 -8.5 Q-8.8 -5.4 -7.5 -6.05 L-6.4 -7.0 -5.8 -7.8 -5.6 -7.0 Q-5.15 -5.5 -4.45 -5.0 -3.7 -4.45 -2.7 -5.0 -2.0 -5.4 -1.15 -6.35 L-0.75 -7.0 Q-0.55 -7.45 -0.5 -8.0 M6.75 -9.6 Q7.85 -10.05 8.55 -10.55 M8.75 -8.75 L9.75 -9.3 M-10.4 -12.9 Q-8.85 -13.15 -5.0 -13.0 M-15.85 -9.55 Q-15.0 -9.75 -14.3 -10.5 M-16.1 -11.3 L-14.65 -11.85 M5.3 21.25 L4.75 22.2 4.3 22.75 M-2.7 21.75 Q-2.5 22.85 -3.1 23.8" fill="none" stroke="#8f7c3f" stroke-linecap="round" stroke-linejoin="round" stroke-width="1.0"/>
    <path d="M1.05 6.25 L0.15 8.8 M9.05 6.75 L8.8 8.7 M-17.95 5.75 Q-19.15 7.25 -19.65 8.65 M-13.45 6.75 Q-13.25 8.45 -13.85 9.3 M-6.45 6.75 Q-6.65 8.25 -7.3 8.9 M-20.2 13.75 Q-20.75 14.1 -22.05 17.2 M-24.95 22.25 L-25.85 24.3 M-9.95 19.75 L-10.85 22.3 M-17.45 19.25 L-18.15 21.7 M-14.45 13.75 L-15.85 15.4 M-0.95 14.25 L-1.7 16.7 M7.55 11.75 L6.6 15.25 M-7.95 12.75 Q-7.65 14.25 -8.35 15.3" fill="none" stroke="#8f7c3f" stroke-linecap="round" stroke-linejoin="round" stroke-width="1.0"/>
  </g>
</svg>
