<?xml version="1.0" encoding="UTF-8" standalone="no"?>
<svg xmlns:xlink="http://www.w3.org/1999/xlink" height="45.0px" width="48.5px" xmlns="http://www.w3.org/2000/svg">
  <g transform="matrix(1.0, 0.0, 0.0, 1.0, 24.25, 22.5)">
    <path d="M7.55 3.55 L6.25 4.25 7.55 3.55 M8.8 4.55 L7.75 5.0 8.8 4.55 M13.15 2.75 Q11.3 13.55 -2.6 14.35 -17.3 8.2 -13.65 -2.85 -10.05 -13.9 2.45 -10.95 14.95 -8.05 13.15 2.75 M6.7 -0.55 Q2.6 2.75 1.7 -2.95 2.6 2.75 6.7 -0.55 M-10.7 -1.2 Q-11.3 -0.9 -12.25 -0.75 -11.3 -0.9 -10.7 -1.2 M-1.75 -3.15 Q-6.35 -0.75 -6.75 -5.5 -6.35 -0.75 -1.75 -3.15 M2.55 5.9 Q-1.7 9.3 -3.25 4.2 -8.25 7.4 -5.9 0.4 -8.25 7.4 -3.25 4.2 -1.7 9.3 2.55 5.9 M-9.7 -0.45 Q-10.1 0.05 -11.0 0.0 -10.1 0.05 -9.7 -0.45" fill="#e2d5c0" fill-rule="evenodd" stroke="none"/>
    <path d="M8.4 -14.4 Q11.1 -14.65 12.15 -16.75 M19.4 -7.65 Q21.7 -8.15 23.75 -9.15 M10.95 16.05 Q10.7 18.9 11.65 21.2 M1.65 18.8 Q1.6 20.45 1.85 22.0 M16.9 10.15 Q18.95 11.45 20.7 13.3 M20.25 4.2 L22.8 4.2 M13.15 2.75 Q11.3 13.55 -2.6 14.35 -17.3 8.2 -13.65 -2.85 -10.05 -13.9 2.45 -10.95 14.95 -8.05 13.15 2.75 M1.7 -2.95 Q2.6 2.75 6.7 -0.55 M-7.45 -16.1 Q-7.35 -17.9 -8.35 -19.45 M-15.25 -10.15 L-18.75 -14.35 M-18.45 -4.05 L-21.4 -4.25 M-6.75 -5.5 Q-6.35 -0.75 -1.75 -3.15 M-6.8 17.75 Q-8.6 19.75 -10.3 20.95 M-21.2 5.9 L-23.75 5.9 M-15.05 11.4 Q-17.0 12.35 -18.25 13.7 M-5.9 0.4 Q-8.25 7.4 -3.25 4.2 -1.7 9.3 2.55 5.9 M-0.9 -16.95 Q0.25 -19.2 0.0 -22.0" fill="none" stroke="#8f7c3f" stroke-linecap="round" stroke-linejoin="round" stroke-width="1.0"/>
    <path d="M7.75 5.0 L8.8 4.55 M6.25 4.25 L7.55 3.55 M-12.25 -0.75 Q-11.3 -0.9 -10.7 -1.2 M-11.0 0.0 Q-10.1 0.05 -9.7 -0.45" fill="none" stroke="#8f7c3f" stroke-linecap="round" stroke-linejoin="round" stroke-width="1.0"/>
  </g>
</svg>
