<?xml version="1.0" encoding="UTF-8" standalone="no"?>
<svg xmlns:xlink="http://www.w3.org/1999/xlink" height="28.75px" width="54.0px" xmlns="http://www.w3.org/2000/svg">
  <g transform="matrix(1.0, 0.0, 0.0, 1.0, 27.0, 14.35)">
    <path d="M26.45 -0.1 Q26.2 2.1 24.0 2.5 19.05 18.65 2.0 10.25 -5.8 15.0 -12.25 13.6 -18.6 12.25 -18.85 6.1 L-18.9 6.05 Q-23.55 4.5 -24.8 3.75 -26.65 2.7 -26.5 -1.6 -26.4 -4.1 -23.75 -5.2 -21.5 -6.15 -19.75 -5.6 -15.0 -18.05 -5.0 -7.4 9.5 -20.55 16.25 -6.85 18.7 -8.7 21.35 -7.75 23.6 -6.95 25.2 -4.5 26.7 -2.2 26.45 -0.1 M4.5 -1.75 L-2.0 -2.35 4.5 -1.75 M8.55 -0.15 L6.75 0.8 8.55 -0.15 M9.75 1.1 L8.75 1.65 9.75 1.1 M-14.65 -1.45 L-16.1 -0.9 -14.65 -1.45 M-14.3 -0.1 Q-15.0 0.65 -15.85 0.85 -15.0 0.65 -14.3 -0.1 M-0.5 2.4 L-0.75 3.4 -1.15 4.05 -2.7 5.4 Q-3.7 5.95 -4.45 5.4 -5.15 4.9 -5.6 3.4 L-5.8 2.6 -6.4 3.4 -7.5 4.35 Q-8.8 5.0 -8.95 1.9 L-9.0 0.9 -8.95 1.9 Q-8.8 5.0 -7.5 4.35 L-6.4 3.4 -5.8 2.6 -5.6 3.4 Q-5.15 4.9 -4.45 5.4 -3.7 5.95 -2.7 5.4 L-1.15 4.05 -0.75 3.4 -0.5 2.4 M-5.0 -2.6 Q-8.85 -2.75 -10.4 -2.5 -8.85 -2.75 -5.0 -2.6" fill="#ffffff" fill-rule="evenodd" stroke="none"/>
    <path d="M26.45 -0.1 Q26.2 2.1 24.0 2.5 19.05 18.65 2.0 10.25 -5.8 15.0 -12.25 13.6 -18.6 12.25 -18.85 6.1 L-18.9 6.05 Q-23.55 4.5 -24.8 3.75 -26.65 2.7 -26.5 -1.6 -26.4 -4.1 -23.75 -5.2 -21.5 -6.15 -19.75 -5.6 -15.0 -18.05 -5.0 -7.4 9.5 -20.55 16.25 -6.85 18.7 -8.7 21.35 -7.75 23.6 -6.95 25.2 -4.5 26.7 -2.2 26.45 -0.1 M-10.4 -2.5 Q-8.85 -2.75 -5.0 -2.6 M-9.0 0.9 L-8.95 1.9 Q-8.8 5.0 -7.5 4.35 L-6.4 3.4 -5.8 2.6 -5.6 3.4 Q-5.15 4.9 -4.45 5.4 -3.7 5.95 -2.7 5.4 L-1.15 4.05 -0.75 3.4 -0.5 2.4 M-15.85 0.85 Q-15.0 0.65 -14.3 -0.1 M-16.1 -0.9 L-14.65 -1.45 M8.75 1.65 L9.75 1.1 M6.75 0.8 L8.55 -0.15 M-2.0 -2.35 L4.5 -1.75" fill="none" stroke="#8f7c3f" stroke-linecap="round" stroke-linejoin="round" stroke-width="1.0"/>
  </g>
</svg>
