<svg xmlns:xlink="http://www.w3.org/1999/xlink" height="38.65px" width="68.3px" xmlns="http://www.w3.org/2000/svg">
  <g transform="matrix(1.0, 0.0, 0.0, 1.0, 30.45, 38.3)">
    <path d="M-4.05 -35.45 L-2.55 -36.45 -1.5 -34.15 0.2 -29.75 1.0 -26.85 -0.85 -25.95 -1.85 -29.7 -2.3 -30.95 -4.05 -35.45 M15.35 -17.75 L16.15 -18.5 Q19.25 -15.65 19.75 -11.9 L19.85 -11.15 19.9 -10.35 Q19.85 -5.75 16.15 -2.2 L15.35 -3.05 Q18.75 -6.2 18.75 -10.35 L18.7 -11.2 18.55 -12.2 Q17.95 -15.25 15.35 -17.75 M-26.25 -2.6 L-26.65 -2.2 Q-30.45 -5.75 -30.45 -10.35 -30.45 -15.05 -26.65 -18.5 L-25.85 -17.75 Q-29.35 -14.5 -29.3 -10.35 -29.35 -6.2 -25.85 -3.05 L-26.25 -2.6 M-23.45 -26.15 L-24.15 -26.85 Q-23.6 -27.85 -23.15 -29.05 -21.95 -31.95 -21.25 -35.75 L-20.45 -35.3 -19.55 -34.9 Q-18.75 -34.4 -19.6 -34.35 -20.1 -31.65 -21.0 -29.15 -21.7 -27.2 -22.65 -25.4 L-23.45 -26.15 M-17.95 -35.45 L-16.45 -36.45 Q-14.65 -32.55 -13.65 -29.45 L-12.95 -26.85 -14.8 -25.95 -15.7 -29.35 Q-16.6 -32.3 -17.95 -35.45 M-10.25 -26.85 Q-9.55 -28.1 -9.0 -29.55 -7.95 -32.3 -7.35 -35.75 L-5.6 -34.9 Q-4.85 -34.4 -5.65 -34.35 -6.15 -31.9 -6.9 -29.6 L-8.0 -26.85 -8.75 -25.4 -10.25 -26.85 M7.55 -14.35 Q8.1 -13.05 8.25 -11.65 L8.3 -10.35 Q8.3 -5.85 4.75 -2.35 L4.6 -2.2 3.75 -3.05 Q7.15 -6.2 7.15 -10.35 L7.1 -11.65 6.35 -14.2 Q5.5 -16.1 3.75 -17.75 L4.6 -18.5 Q6.6 -16.6 7.55 -14.35 M-2.2 -12.1 L-2.3 -15.15 -0.8 -15.15 -1.0 -11.55 2.05 -13.55 2.85 -12.15 -0.4 -10.55 2.85 -8.85 2.05 -7.55 -1.0 -9.45 -0.8 -5.6 -2.3 -5.6 -2.2 -8.9 -2.2 -9.45 -2.65 -9.15 -5.25 -7.55 -6.05 -8.85 -2.8 -10.55 -6.0 -12.15 -6.05 -12.15 -5.25 -13.55 -2.65 -11.85 -2.2 -11.55 -2.2 -12.1 M8.15 -4.65 L9.85 -4.65 9.45 -2.2 8.85 -1.0 8.15 -1.0 8.85 -3.05 8.15 -3.05 8.15 -4.65 M12.75 -1.0 L12.05 -1.0 12.75 -3.05 12.05 -3.05 12.05 -4.65 13.75 -4.65 13.75 -3.05 12.75 -1.0 M24.2 -11.75 Q25.35 -12.75 26.75 -12.75 28.25 -12.75 30.15 -11.6 32.1 -10.4 33.5 -10.4 34.45 -10.45 35.45 -11.45 L36.05 -12.2 36.35 -12.7 37.85 -11.45 37.1 -10.45 36.15 -9.45 Q34.95 -8.3 33.25 -8.3 32.0 -8.3 29.75 -9.7 28.05 -10.7 26.9 -10.7 25.65 -10.75 24.95 -9.95 24.2 -9.05 24.15 -8.6 L22.55 -9.65 Q23.1 -10.75 24.2 -11.75 M-23.05 -19.1 Q-23.55 -19.1 -23.85 -18.8 L-24.15 -18.05 -23.85 -17.2 Q-23.55 -16.9 -23.05 -16.9 -22.55 -16.9 -22.25 -17.2 -21.95 -17.5 -21.95 -18.05 -21.95 -18.55 -22.25 -18.8 L-23.05 -19.1 M-21.85 -19.25 Q-21.35 -18.7 -21.35 -18.05 -21.35 -17.35 -21.85 -16.85 -22.35 -16.3 -23.05 -16.3 -23.75 -16.3 -24.25 -16.85 -24.75 -17.35 -24.75 -18.05 -24.75 -18.7 -24.25 -19.25 -23.75 -19.75 -23.05 -19.7 -22.35 -19.75 -21.85 -19.25 M-7.45 -18.65 L-7.75 -17.85 -7.45 -17.0 Q-7.2 -16.7 -6.7 -16.7 -6.15 -16.7 -5.85 -17.0 -5.55 -17.3 -5.55 -17.85 -5.55 -18.35 -5.85 -18.65 L-6.7 -18.95 -7.45 -18.65 M-6.7 -19.55 Q-6.0 -19.55 -5.5 -19.05 -4.95 -18.5 -4.95 -17.85 -4.95 -17.15 -5.5 -16.65 -6.0 -16.1 -6.7 -16.1 -7.35 -16.1 -7.9 -16.65 -8.4 -17.15 -8.35 -17.85 -8.4 -18.5 -7.9 -19.05 -7.35 -19.55 -6.7 -19.55 M-19.95 -11.3 L-9.35 -11.3 -9.35 -9.95 -19.95 -9.95 -19.95 -11.3" fill="#000000" fill-rule="evenodd" stroke="none"/>
    <path d="M1.0 -26.85 L2.15 -22.45 Q6.2 -24.5 10.15 -23.25 14.05 -22.0 15.35 -17.75 17.95 -15.25 18.55 -12.2 L18.7 -11.2 18.75 -10.35 Q18.75 -6.2 15.35 -3.05 L16.15 -2.2 15.7 -2.2 14.95 -1.85 12.75 -1.0 10.65 -0.5 8.45 -0.4 6.15 -0.7 3.95 -1.4 Q3.2 -1.7 2.55 -2.2 L2.5 -2.2 Q-15.4 3.1 -26.25 -2.6 L-25.85 -3.05 Q-29.35 -6.2 -29.3 -10.35 -29.35 -14.5 -25.85 -17.75 L-26.65 -18.5 -23.45 -26.15 -22.65 -25.4 Q-21.7 -27.2 -21.0 -29.15 -20.1 -31.65 -19.6 -34.35 -18.75 -34.4 -19.55 -34.9 L-20.45 -35.3 -20.15 -36.55 Q-19.8 -37.1 -19.25 -37.15 -18.7 -37.25 -18.35 -36.75 -17.9 -36.2 -17.95 -35.45 -16.6 -32.3 -15.7 -29.35 L-14.8 -25.95 -12.95 -26.85 -10.25 -26.85 -8.75 -25.4 -8.0 -26.85 -6.9 -29.6 Q-6.15 -31.9 -5.65 -34.35 -4.85 -34.4 -5.6 -34.9 L-7.35 -35.75 -6.95 -37.4 Q-6.6 -38.1 -6.05 -38.25 L-5.0 -38.05 Q-4.5 -37.7 -4.25 -37.0 -3.95 -36.25 -4.05 -35.45 L-2.3 -30.95 -1.85 -29.7 -0.85 -25.95 1.0 -26.85 M-2.2 -8.9 L-2.3 -5.6 -0.8 -5.6 -1.0 -9.45 2.05 -7.55 2.85 -8.85 -0.4 -10.55 2.85 -12.15 2.05 -13.55 -1.0 -11.55 -0.8 -15.15 -2.3 -15.15 -2.2 -12.1 -2.65 -11.85 -5.25 -13.55 -6.05 -12.15 -6.0 -12.15 -2.8 -10.55 -6.05 -8.85 -5.25 -7.55 -2.65 -9.15 -2.2 -8.9 M7.55 -14.35 Q6.6 -16.6 4.6 -18.5 L3.75 -17.75 Q5.5 -16.1 6.35 -14.2 L7.1 -11.65 7.15 -10.35 Q7.15 -6.2 3.75 -3.05 L4.6 -2.2 4.75 -2.35 Q8.3 -5.85 8.3 -10.35 L8.25 -11.65 Q8.1 -13.05 7.55 -14.35 M12.75 -1.0 L13.75 -3.05 13.75 -4.65 12.05 -4.65 12.05 -3.05 12.75 -3.05 12.05 -1.0 12.75 -1.0 M8.15 -4.65 L8.15 -3.05 8.85 -3.05 8.15 -1.0 8.85 -1.0 9.45 -2.2 9.85 -4.65 8.15 -4.65 M-19.95 -11.3 L-19.95 -9.95 -9.35 -9.95 -9.35 -11.3 -19.95 -11.3 M-6.7 -19.55 Q-7.35 -19.55 -7.9 -19.05 -8.4 -18.5 -8.35 -17.85 -8.4 -17.15 -7.9 -16.65 -7.35 -16.1 -6.7 -16.1 -6.0 -16.1 -5.5 -16.65 -4.95 -17.15 -4.95 -17.85 -4.95 -18.5 -5.5 -19.05 -6.0 -19.55 -6.7 -19.55 M-7.45 -18.65 L-6.7 -18.95 -5.85 -18.65 Q-5.55 -18.35 -5.55 -17.85 -5.55 -17.3 -5.85 -17.0 -6.15 -16.7 -6.7 -16.7 -7.2 -16.7 -7.45 -17.0 L-7.75 -17.85 -7.45 -18.65 M-21.85 -19.25 Q-22.35 -19.75 -23.05 -19.7 -23.75 -19.75 -24.25 -19.25 -24.75 -18.7 -24.75 -18.05 -24.75 -17.35 -24.25 -16.85 -23.75 -16.3 -23.05 -16.3 -22.35 -16.3 -21.85 -16.85 -21.35 -17.35 -21.35 -18.05 -21.35 -18.7 -21.85 -19.25 M-23.05 -19.1 L-22.25 -18.8 Q-21.95 -18.55 -21.95 -18.05 -21.95 -17.5 -22.25 -17.2 -22.55 -16.9 -23.05 -16.9 -23.55 -16.9 -23.85 -17.2 L-24.15 -18.05 -23.85 -18.8 Q-23.55 -19.1 -23.05 -19.1 M-8.15 -12.15 L-8.1 -12.15 -8.15 -12.15" fill="#ffffff" fill-rule="evenodd" stroke="none"/>
  </g>
</svg>
