<svg xmlns:xlink="http://www.w3.org/1999/xlink" height="47.55px" width="71.0px" xmlns="http://www.w3.org/2000/svg">
  <g transform="matrix(1.0, 0.0, 0.0, 1.0, 39.7, 23.8)">
    <path d="M-22.0 -6.0 L-18.75 -5.1 -19.2 -3.85 -22.45 -4.8 -25.05 -5.3 -24.75 -6.5 -22.0 -6.0 M-23.05 -2.0 L-22.1 -1.8 -19.15 -0.9 -19.6 0.35 -23.15 -0.8 -25.2 -1.2 -24.95 -2.4 -23.05 -2.0 M-23.15 2.4 Q-20.25 3.15 -18.25 4.1 L-18.95 5.45 Q-20.95 4.35 -23.1 3.7 L-25.6 3.05 -25.2 1.9 -23.15 2.4 M-22.7 10.75 Q-20.55 11.15 -18.25 11.9 L-18.7 13.15 -22.6 12.05 -24.55 11.7 -24.25 10.5 -22.7 10.75 M-22.4 15.05 L-21.6 15.2 Q-19.9 15.6 -18.65 16.1 L-19.1 17.35 -22.3 16.3 -24.7 15.8 -24.45 14.6 -22.4 15.05 M-22.05 19.55 Q-19.55 20.25 -17.75 21.1 L-18.45 22.45 Q-20.15 21.5 -21.9 20.9 L-25.1 20.05 -24.7 18.9 -22.05 19.55 M-17.2 23.35 L-17.2 23.1 -2.25 23.1 -2.25 23.15 -2.25 23.75 -17.2 23.75 -17.2 23.35 M-2.2 23.15 L-2.2 22.45 2.3 22.45 2.3 23.15 -2.2 23.15 M2.35 22.45 L6.85 22.45 6.85 22.9 6.85 23.15 2.35 23.15 2.35 22.45 M13.85 22.0 L13.55 20.9 17.1 20.25 Q21.2 19.1 23.15 16.85 L24.15 17.85 Q24.65 18.35 23.95 18.25 20.85 21.45 13.9 22.3 L13.85 22.0 M18.1 17.55 L14.65 18.5 14.3 17.2 18.75 15.85 22.15 13.65 23.0 14.55 Q23.35 15.1 22.75 14.95 20.55 16.6 18.1 17.55 M19.85 13.0 Q16.95 14.65 13.95 15.1 L13.6 13.75 Q17.4 13.25 20.65 10.85 L21.6 10.1 22.45 11.1 Q22.8 11.5 22.05 11.5 L19.85 13.0 M22.8 5.0 L20.85 5.3 20.5 3.9 22.7 3.55 Q27.85 2.45 30.1 -0.15 L31.1 0.85 Q31.6 1.35 30.9 1.25 28.25 4.0 22.8 5.0 M22.55 1.35 L21.6 1.5 21.25 0.2 22.45 -0.05 Q26.5 -1.05 29.1 -3.35 L29.95 -2.45 Q30.3 -1.9 29.7 -2.05 26.4 0.45 22.55 1.35 M22.3 -2.15 L20.9 -1.9 20.55 -3.25 22.2 -3.55 Q25.6 -4.45 28.55 -6.9 L29.4 -5.9 Q29.75 -5.5 29.0 -5.5 25.75 -3.0 22.3 -2.15 M14.25 -12.0 L13.15 -11.5 8.85 -20.85 4.6 -11.5 3.45 -12.0 8.85 -23.8 14.25 -12.0 M-5.35 -12.2 L-5.3 -12.0 -6.4 -11.5 -10.7 -20.85 -14.95 -11.5 -16.1 -12.0 -10.7 -23.8 -5.35 -12.2 M-36.3 16.2 Q-37.3 16.2 -37.8 16.85 L-38.45 17.85 -39.7 17.05 -38.4 15.45 Q-37.5 14.6 -36.4 14.6 -35.25 14.6 -33.75 15.5 -32.2 16.45 -31.15 16.45 -30.35 16.45 -29.6 15.65 L-28.9 14.65 -27.75 15.65 -29.1 17.2 Q-30.0 18.05 -31.3 18.05 -32.3 18.05 -34.05 17.0 -35.4 16.2 -36.3 16.2 M-16.8 3.25 L-15.45 3.25 -15.45 4.5 -16.25 6.1 -16.8 6.1 -16.25 4.5 -16.8 4.5 -16.8 3.25 M-12.4 3.25 L-12.4 4.5 -13.2 6.1 -13.75 6.1 -13.2 4.5 -13.75 4.5 -13.75 3.25 -12.4 3.25 M2.05 -5.75 L2.05 -2.8 Q2.05 1.05 0.45 3.45 L6.15 3.45 6.15 -5.75 2.05 -5.75 M7.35 -6.85 L7.35 3.45 8.65 3.45 8.65 6.7 7.5 6.7 7.5 4.6 -0.7 4.6 -0.7 6.7 -1.85 6.7 -1.85 3.45 -0.9 3.45 Q0.9 1.0 0.9 -2.8 L0.9 -6.85 7.35 -6.85 M-6.6 0.55 L-9.15 0.55 -9.15 -2.0 -6.6 -2.0 -6.6 0.55 M15.9 0.55 L13.35 0.55 13.35 -2.0 15.9 -2.0 15.9 0.55" fill="#000000" fill-rule="evenodd" stroke="none"/>
    <path d="M-22.45 -4.8 L-19.2 -3.85 -18.75 -5.1 -22.0 -6.0 Q-20.35 -9.9 -16.1 -12.0 L-14.95 -11.5 -10.7 -20.85 -6.4 -11.5 -5.3 -12.0 -5.35 -12.2 Q-4.5 -12.65 -4.4 -12.8 -4.0 -14.3 -2.9 -14.05 L-2.3 -13.1 -0.15 -14.05 2.6 -12.3 3.45 -12.0 4.6 -11.5 8.85 -20.85 13.15 -11.5 14.25 -12.0 14.25 -12.05 14.8 -12.05 21.55 -6.35 Q21.4 -5.55 22.05 -5.35 L22.2 -3.55 20.55 -3.25 20.9 -1.9 22.3 -2.15 22.45 -0.05 21.25 0.2 21.6 1.5 22.55 1.35 22.7 3.55 20.5 3.9 20.85 5.3 22.8 5.0 22.8 5.15 20.65 10.85 Q17.4 13.25 13.6 13.75 L13.95 15.1 Q16.95 14.65 19.85 13.0 L18.75 15.85 14.3 17.2 14.65 18.5 18.1 17.55 17.1 20.25 13.55 20.9 13.85 22.0 6.85 22.9 6.85 22.45 2.35 22.45 2.3 22.45 -2.2 22.45 -2.2 23.15 -2.25 23.15 -2.25 23.1 -17.2 23.1 -17.2 23.35 -20.85 23.35 -21.85 21.85 -21.9 20.9 Q-20.15 21.5 -18.45 22.45 L-17.75 21.1 Q-19.55 20.25 -22.05 19.55 L-22.3 16.3 -19.1 17.35 -18.65 16.1 Q-19.9 15.6 -21.6 15.2 L-22.4 15.05 -22.6 12.05 -18.7 13.15 -18.25 11.9 Q-20.55 11.15 -22.7 10.75 L-23.1 3.7 Q-20.95 4.35 -18.95 5.45 L-18.25 4.1 Q-20.25 3.15 -23.15 2.4 L-23.2 1.65 -23.15 -0.8 -19.6 0.35 -19.15 -0.9 -22.1 -1.8 -23.05 -2.0 -22.45 -4.8 M-12.4 3.25 L-13.75 3.25 -13.75 4.5 -13.2 4.5 -13.75 6.1 -13.2 6.1 -12.4 4.5 -12.4 3.25 M-16.8 3.25 L-16.8 4.5 -16.25 4.5 -16.8 6.1 -16.25 6.1 -15.45 4.5 -15.45 3.25 -16.8 3.25 M7.35 -6.85 L0.9 -6.85 0.9 -2.8 Q0.9 1.0 -0.9 3.45 L-1.85 3.45 -1.85 6.7 -0.7 6.7 -0.7 4.6 7.5 4.6 7.5 6.7 8.65 6.7 8.65 3.45 7.35 3.45 7.35 -6.85 M2.05 -5.75 L6.15 -5.75 6.15 3.45 0.45 3.45 Q2.05 1.05 2.05 -2.8 L2.05 -5.75 M-6.6 0.55 L-6.6 -2.0 -9.15 -2.0 -9.15 0.55 -6.6 0.55 M15.9 0.55 L15.9 -2.0 13.35 -2.0 13.35 0.55 15.9 0.55" fill="#ffffff" fill-rule="evenodd" stroke="none"/>
  </g>
</svg>
