<svg xmlns:xlink="http://www.w3.org/1999/xlink" height="50.2px" width="58.3px" xmlns="http://www.w3.org/2000/svg">
  <g transform="matrix(1.0, 0.0, 0.0, 1.0, 23.2, 25.1)">
    <path d="M9.85 -1.7 L7.15 -1.7 7.15 0.9 9.85 0.9 9.85 -1.7 M17.75 6.25 L17.7 6.3 17.7 6.65 14.2 9.35 15.55 11.75 15.6 11.8 15.5 11.8 15.3 12.0 17.25 14.3 17.45 14.7 Q18.1 16.15 18.1 18.1 18.1 19.7 17.45 21.15 L15.6 23.85 15.3 24.2 15.4 24.3 14.45 24.25 13.35 24.45 13.1 24.45 13.1 24.35 8.4 24.35 8.4 25.1 8.35 25.1 8.35 24.35 3.6 24.35 3.5 24.3 -16.9 24.3 -17.15 24.2 Q-18.7 22.55 -19.25 21.15 -20.0 19.7 -20.0 18.1 -20.0 16.15 -19.25 14.7 -18.7 13.4 -17.15 12.0 L-17.7 11.5 -16.85 9.4 -19.85 6.25 -19.4 5.8 Q-22.2 3.15 -22.2 -0.15 -22.2 -3.55 -19.4 -6.15 L-19.7 -6.45 -19.6 -8.0 -18.45 -12.45 -17.9 -12.2 -13.45 -22.0 -9.0 -12.2 -7.8 -12.7 -7.9 -12.9 -0.95 -12.7 0.25 -12.2 4.7 -22.0 9.15 -12.2 9.6 -12.4 Q14.35 -10.35 17.5 -6.4 L17.35 -6.15 Q20.15 -3.55 20.15 -0.15 20.15 3.15 17.35 5.8 L17.75 6.25 M-13.35 16.55 L-14.7 16.55 -14.7 20.2 Q-14.7 21.9 -13.8 22.8 -13.0 23.6 -11.4 23.6 -9.8 23.6 -8.75 22.25 L-8.75 23.45 -7.35 23.45 -7.35 16.55 -8.75 16.55 -8.75 20.2 Q-8.75 20.9 -9.75 21.9 -10.35 22.4 -11.3 22.4 -12.2 22.4 -12.7 21.9 -13.35 21.3 -13.35 20.15 L-13.35 16.55 M-4.05 -2.05 L-1.4 -2.05 -1.4 3.95 -4.95 3.95 Q-4.05 2.45 -4.05 -0.05 L-4.05 -2.05 M-13.7 -1.7 L-16.4 -1.7 -16.4 0.9 -13.7 0.9 -13.7 -1.7 M1.0 20.2 Q1.0 20.9 0.0 21.9 -0.6 22.4 -1.55 22.4 -2.45 22.4 -2.95 21.9 -3.6 21.3 -3.6 20.15 L-3.6 16.55 -4.95 16.55 -4.95 20.2 Q-4.95 21.9 -4.05 22.8 -3.25 23.6 -1.7 23.6 -0.05 23.6 1.0 22.25 L1.0 23.45 2.4 23.45 2.4 16.55 1.0 16.55 1.0 20.2 M0.95 6.8 L0.95 3.95 -0.15 3.95 -0.15 -3.25 -5.3 -3.25 -5.3 -0.05 Q-5.3 2.5 -6.3 3.95 L-7.3 3.95 -7.3 6.8 -6.05 6.8 -6.05 5.15 -0.3 5.15 -0.3 6.8 0.95 6.8 M11.35 5.1 L11.95 5.1 11.35 6.8 11.95 6.8 12.85 5.1 12.85 3.75 11.35 3.75 11.35 5.1 M16.05 5.1 L16.05 3.75 14.6 3.75 14.6 5.1 15.15 5.1 14.6 6.8 15.15 6.8 16.05 5.1" fill="#ffffff" fill-rule="evenodd" stroke="none"/>
    <path d="M9.85 -1.7 L9.85 0.9 7.15 0.9 7.15 -1.7 9.85 -1.7 M17.35 -6.15 L18.0 -6.9 Q21.05 -4.05 21.05 -0.15 21.05 3.4 18.35 6.2 L18.0 6.5 17.75 6.25 17.35 5.8 Q20.15 3.15 20.15 -0.15 20.15 -3.55 17.35 -6.15 M15.55 11.75 L15.95 11.35 Q17.5 12.85 18.25 14.3 19.0 15.95 19.0 18.1 19.0 20.0 18.25 21.65 17.5 23.15 15.95 24.9 L15.4 24.3 15.3 24.2 15.6 23.85 17.45 21.15 Q18.1 19.7 18.1 18.1 18.1 16.15 17.45 14.7 L17.25 14.3 15.3 12.0 15.5 11.8 15.6 11.8 15.55 11.75 M13.1 24.45 L13.1 25.1 8.4 25.1 8.4 24.35 13.1 24.35 13.1 24.45 M8.35 25.1 L3.6 25.1 3.6 24.35 8.35 24.35 8.35 25.1 M-17.15 24.2 L-17.85 24.9 Q-19.35 23.15 -20.1 21.65 -20.9 20.0 -20.9 18.1 -20.9 15.95 -20.1 14.3 -19.4 12.85 -17.85 11.35 L-17.7 11.5 -17.15 12.0 Q-18.7 13.4 -19.25 14.7 -20.0 16.15 -20.0 18.1 -20.0 19.7 -19.25 21.15 -18.7 22.55 -17.15 24.2 M-19.85 6.25 L-20.1 6.5 Q-23.2 3.6 -23.2 -0.15 -23.2 -3.95 -20.25 -6.75 L-20.1 -6.9 -19.7 -6.45 -19.4 -6.15 Q-22.2 -3.55 -22.2 -0.15 -22.2 3.15 -19.4 5.8 L-19.85 6.25 M-18.45 -12.45 L-19.05 -12.7 -13.45 -25.1 -7.9 -12.9 -7.8 -12.7 -9.0 -12.2 -13.45 -22.0 -17.9 -12.2 -18.45 -12.45 M-0.95 -12.7 L4.7 -25.1 10.3 -12.7 9.6 -12.4 9.15 -12.2 4.7 -22.0 0.25 -12.2 -0.95 -12.7 M24.5 18.5 Q23.9 19.2 23.85 19.55 L22.55 18.75 Q23.05 17.85 23.9 17.05 24.8 16.2 26.0 16.2 27.25 16.2 28.75 17.1 30.35 18.1 31.5 18.1 32.35 18.1 33.15 17.25 L33.85 16.25 35.1 17.25 33.65 18.9 Q32.65 19.8 31.35 19.8 30.3 19.8 28.4 18.7 27.05 17.8 26.15 17.85 25.05 17.8 24.5 18.5 M16.05 5.1 L15.15 6.8 14.6 6.8 15.15 5.1 14.6 5.1 14.6 3.75 16.05 3.75 16.05 5.1 M11.35 5.1 L11.35 3.75 12.85 3.75 12.85 5.1 11.95 6.8 11.35 6.8 11.95 5.1 11.35 5.1 M0.95 6.8 L-0.3 6.8 -0.3 5.15 -6.05 5.15 -6.05 6.8 -7.3 6.8 -7.3 3.95 -6.3 3.95 Q-5.3 2.5 -5.3 -0.05 L-5.3 -3.25 -0.15 -3.25 -0.15 3.95 0.95 3.95 0.95 6.8 M1.0 20.2 L1.0 16.55 2.4 16.55 2.4 23.45 1.0 23.45 1.0 22.25 Q-0.05 23.6 -1.7 23.6 -3.25 23.6 -4.05 22.8 -4.95 21.9 -4.95 20.2 L-4.95 16.55 -3.6 16.55 -3.6 20.15 Q-3.6 21.3 -2.95 21.9 -2.45 22.4 -1.55 22.4 -0.6 22.4 0.0 21.9 1.0 20.9 1.0 20.2 M-13.7 -1.7 L-13.7 0.9 -16.4 0.9 -16.4 -1.7 -13.7 -1.7 M-4.05 -2.05 L-4.05 -0.05 Q-4.05 2.45 -4.95 3.95 L-1.4 3.95 -1.4 -2.05 -4.05 -2.05 M-13.35 16.55 L-13.35 20.15 Q-13.35 21.3 -12.7 21.9 -12.2 22.4 -11.3 22.4 -10.35 22.4 -9.75 21.9 -8.75 20.9 -8.75 20.2 L-8.75 16.55 -7.35 16.55 -7.35 23.45 -8.75 23.45 -8.75 22.25 Q-9.8 23.6 -11.4 23.6 -13.0 23.6 -13.8 22.8 -14.7 21.9 -14.7 20.2 L-14.7 16.55 -13.35 16.55" fill="#000000" fill-rule="evenodd" stroke="none"/>
  </g>
</svg>
