<svg xmlns:xlink="http://www.w3.org/1999/xlink" height="47.55px" width="56.9px" xmlns="http://www.w3.org/2000/svg">
  <g transform="matrix(1.0, 0.0, 0.0, 1.0, 26.05, 47.4)">
    <path d="M21.75 -27.15 L20.1 -26.85 20.45 -25.5 21.85 -25.75 22.0 -23.65 20.8 -23.4 21.15 -22.1 22.1 -22.25 22.25 -20.05 20.05 -19.7 20.4 -18.3 22.35 -18.6 22.35 -18.45 20.2 -12.75 Q16.95 -10.35 13.15 -9.85 L13.5 -8.5 Q16.5 -8.95 19.4 -10.6 L18.3 -7.75 Q16.35 -6.9 13.85 -6.4 L14.2 -5.1 Q16.0 -5.4 17.65 -6.05 L16.65 -3.35 13.1 -2.7 13.4 -1.6 6.4 -0.7 6.4 -1.15 1.9 -1.15 1.85 -1.15 -2.65 -1.15 -2.65 -0.45 -2.7 -0.45 -2.7 -0.5 -17.65 -0.5 -17.65 -0.25 -21.3 -0.25 -22.3 -1.75 -22.35 -2.7 Q-20.6 -2.1 -18.9 -1.15 L-18.2 -2.5 Q-20.0 -3.35 -22.5 -4.05 L-22.75 -7.3 -19.55 -6.25 -19.1 -7.5 -22.05 -8.4 -22.85 -8.55 -23.05 -11.55 -19.15 -10.45 -18.7 -11.7 -23.15 -12.85 -23.55 -19.9 Q-21.4 -19.25 -19.4 -18.15 L-18.7 -19.5 Q-20.7 -20.45 -23.6 -21.2 L-23.65 -21.95 -23.6 -24.4 -20.05 -23.25 -19.6 -24.5 -22.55 -25.4 -23.5 -25.6 -22.9 -28.4 -19.65 -27.45 -19.2 -28.7 -22.45 -29.6 Q-20.8 -33.5 -16.55 -35.6 L-15.4 -35.1 -11.15 -44.45 -6.85 -35.1 -5.75 -35.6 -5.8 -35.8 -4.85 -36.4 Q-4.45 -37.9 -3.35 -37.65 L-2.75 -36.7 -0.6 -37.65 2.15 -35.9 3.0 -35.6 4.15 -35.1 8.4 -44.45 12.7 -35.1 13.8 -35.6 13.8 -35.65 14.35 -35.65 21.1 -29.95 Q20.95 -29.15 21.6 -28.95 L21.75 -27.15 M15.45 -25.6 L12.9 -25.6 12.9 -23.05 15.45 -23.05 15.45 -25.6 M1.6 -26.4 L1.6 -29.35 5.7 -29.35 5.7 -20.15 0.0 -20.15 Q1.6 -22.55 1.6 -26.4 M6.9 -30.45 L0.45 -30.45 0.45 -26.4 Q0.45 -22.6 -1.35 -20.15 L-2.3 -20.15 -2.3 -16.9 -1.15 -16.9 -1.15 -19.0 7.05 -19.0 7.05 -16.9 8.2 -16.9 8.2 -20.15 6.9 -20.15 6.9 -30.45 M-7.05 -25.6 L-9.6 -25.6 -9.6 -23.05 -7.05 -23.05 -7.05 -25.6 M-17.25 -20.35 L-17.25 -19.1 -16.7 -19.1 -17.25 -17.5 -16.7 -17.5 -15.9 -19.1 -15.9 -20.35 -17.25 -20.35 M-12.85 -20.35 L-14.2 -20.35 -14.2 -19.1 -13.65 -19.1 -14.2 -17.5 -13.65 -17.5 -12.85 -19.1 -12.85 -20.35" fill="#ffffff" fill-rule="evenodd" stroke="none"/>
    <path d="M21.85 -25.75 L20.45 -25.5 20.1 -26.85 21.75 -27.15 Q25.15 -28.05 28.1 -30.5 L28.95 -29.5 Q29.3 -29.1 28.55 -29.1 25.3 -26.6 21.85 -25.75 M13.8 -35.6 L12.7 -35.1 8.4 -44.45 4.15 -35.1 3.0 -35.6 8.4 -47.4 13.8 -35.6 M-5.8 -35.8 L-5.75 -35.6 -6.85 -35.1 -11.15 -44.45 -15.4 -35.1 -16.55 -35.6 -11.15 -47.4 -5.8 -35.8 M-22.45 -29.6 L-19.2 -28.7 -19.65 -27.45 -22.9 -28.4 -25.5 -28.9 -25.2 -30.1 -22.45 -29.6 M-23.5 -25.6 L-22.55 -25.4 -19.6 -24.5 -20.05 -23.25 -23.6 -24.4 -25.65 -24.8 -25.4 -26.0 -23.5 -25.6 M-23.6 -21.2 Q-20.7 -20.45 -18.7 -19.5 L-19.4 -18.15 Q-21.4 -19.25 -23.55 -19.9 L-26.05 -20.55 -25.65 -21.7 -23.6 -21.2 M-23.15 -12.85 L-18.7 -11.7 -19.15 -10.45 -23.05 -11.55 -25.0 -11.9 -24.7 -13.1 -23.15 -12.85 M-22.85 -8.55 L-22.05 -8.4 -19.1 -7.5 -19.55 -6.25 -22.75 -7.3 -25.15 -7.8 -24.9 -9.0 -22.85 -8.55 M-22.5 -4.05 Q-20.0 -3.35 -18.2 -2.5 L-18.9 -1.15 Q-20.6 -2.1 -22.35 -2.7 L-25.55 -3.55 -25.15 -4.7 -22.5 -4.05 M-17.65 -0.25 L-17.65 -0.5 -2.7 -0.5 -2.7 -0.45 -2.7 0.15 -17.65 0.15 -17.65 -0.25 M-2.65 -0.45 L-2.65 -1.15 1.85 -1.15 1.85 -0.45 -2.65 -0.45 M1.9 -1.15 L6.4 -1.15 6.4 -0.7 6.4 -0.45 1.9 -0.45 1.9 -1.15 M13.4 -1.6 L13.1 -2.7 16.65 -3.35 Q20.75 -4.5 22.7 -6.75 L23.7 -5.75 Q24.2 -5.25 23.5 -5.35 20.4 -2.15 13.45 -1.3 L13.4 -1.6 M17.65 -6.05 Q16.0 -5.4 14.2 -5.1 L13.85 -6.4 Q16.35 -6.9 18.3 -7.75 20.25 -8.65 21.7 -9.95 L22.55 -9.05 Q22.9 -8.5 22.3 -8.65 20.1 -7.0 17.65 -6.05 M19.4 -10.6 Q16.5 -8.95 13.5 -8.5 L13.15 -9.85 Q16.95 -10.35 20.2 -12.75 L21.15 -13.5 22.0 -12.5 Q22.35 -12.1 21.6 -12.1 L19.4 -10.6 M22.35 -18.6 L20.4 -18.3 20.05 -19.7 22.25 -20.05 Q27.4 -21.15 29.65 -23.75 L30.65 -22.75 Q31.15 -22.25 30.45 -22.35 27.8 -19.6 22.35 -18.6 M22.1 -22.25 L21.15 -22.1 20.8 -23.4 22.0 -23.65 Q26.05 -24.65 28.65 -26.95 L29.5 -26.05 Q29.85 -25.5 29.25 -25.65 25.95 -23.15 22.1 -22.25 M6.9 -30.45 L6.9 -20.15 8.2 -20.15 8.2 -16.9 7.05 -16.9 7.05 -19.0 -1.15 -19.0 -1.15 -16.9 -2.3 -16.9 -2.3 -20.15 -1.35 -20.15 Q0.45 -22.6 0.45 -26.4 L0.45 -30.45 6.9 -30.45 M1.6 -26.4 Q1.6 -22.55 0.0 -20.15 L5.7 -20.15 5.7 -29.35 1.6 -29.35 1.6 -26.4 M15.45 -25.6 L15.45 -23.05 12.9 -23.05 12.9 -25.6 15.45 -25.6 M-7.05 -25.6 L-7.05 -23.05 -9.6 -23.05 -9.6 -25.6 -7.05 -25.6 M-12.85 -20.35 L-12.85 -19.1 -13.65 -17.5 -14.2 -17.5 -13.65 -19.1 -14.2 -19.1 -14.2 -20.35 -12.85 -20.35 M-17.25 -20.35 L-15.9 -20.35 -15.9 -19.1 -16.7 -17.5 -17.25 -17.5 -16.7 -19.1 -17.25 -19.1 -17.25 -20.35" fill="#000000" fill-rule="evenodd" stroke="none"/>
  </g>
</svg>
