<svg xmlns:xlink="http://www.w3.org/1999/xlink" height="44.55px" width="51.3px" xmlns="http://www.w3.org/2000/svg">
  <g transform="matrix(1.0, 0.0, 0.0, 1.0, 29.25, 44.6)">
    <path d="M-24.85 -33.25 L-23.85 -32.8 -19.75 -41.8 -15.65 -32.8 -14.6 -33.3 -7.95 -33.3 -6.85 -32.8 -2.75 -41.8 1.3 -32.8 2.35 -33.25 2.4 -33.15 Q2.4 -32.95 2.55 -32.7 L2.55 -31.85 Q3.3 -31.5 3.35 -30.8 L3.75 -30.8 Q3.8 -30.15 4.0 -29.9 L4.0 -29.2 Q4.55 -28.95 4.85 -27.95 L4.25 -27.3 Q6.85 -24.9 6.85 -21.75 6.85 -18.7 4.25 -16.3 L4.85 -15.65 5.25 -16.05 8.2 -16.05 8.2 -15.4 12.55 -15.4 12.55 -16.05 13.0 -16.15 13.5 -16.3 19.45 -27.0 19.85 -27.9 20.95 -29.1 20.95 -14.8 21.05 -9.75 19.75 -9.75 19.75 -3.05 Q19.75 -2.2 19.25 -1.7 18.65 -1.1 17.45 -1.1 16.25 -1.1 15.65 -1.7 15.1 -2.2 15.1 -3.05 L15.1 -9.75 13.85 -9.75 13.85 -8.3 11.8 -8.2 11.8 -9.75 10.5 -9.75 10.5 -3.05 Q10.5 -2.2 10.0 -1.7 9.4 -1.1 8.2 -1.1 7.0 -1.1 6.4 -1.7 5.85 -2.2 5.85 -3.05 L5.85 -9.75 4.6 -9.75 4.6 -8.2 -1.8 -8.2 -1.8 -9.75 -3.15 -9.75 -3.15 -3.05 Q-3.15 -2.2 -3.6 -1.7 -4.2 -1.1 -5.4 -1.1 -6.65 -1.1 -7.2 -1.7 -7.75 -2.2 -7.75 -3.05 L-7.75 -9.75 -9.0 -9.75 -11.05 -9.75 -12.35 -9.75 -12.35 -3.05 Q-12.35 -2.2 -12.85 -1.7 -13.45 -1.1 -14.65 -1.1 -15.85 -1.1 -16.45 -1.7 -17.0 -2.2 -17.0 -3.05 L-17.0 -9.75 -18.25 -9.75 -21.5 -11.2 Q-24.85 -12.95 -26.4 -15.65 L-25.75 -16.3 Q-28.35 -18.7 -28.35 -21.75 -28.35 -24.9 -25.75 -27.3 L-26.1 -27.6 -25.1 -32.7 -24.85 -33.25 M-23.0 -25.8 L-21.65 -25.8 -18.8 -28.25 -20.85 -28.25 -23.0 -25.8 M-0.15 -28.25 L-2.1 -28.25 0.7 -25.8 1.95 -25.8 -0.15 -28.25 M-4.05 -21.4 L-4.05 -22.6 -15.3 -22.6 -15.3 -23.4 -16.55 -23.4 -16.55 -22.2 -15.3 -22.2 -15.3 -21.4 -4.05 -21.4" fill="#ffffff" fill-rule="evenodd" stroke="none"/>
    <path d="M-14.6 -33.3 L-15.65 -32.8 -19.75 -41.8 -23.85 -32.8 -24.85 -33.25 -24.9 -33.3 -19.75 -44.6 -14.6 -33.3 M-26.1 -27.6 L-25.75 -27.3 Q-28.35 -24.9 -28.35 -21.75 -28.35 -18.7 -25.75 -16.3 L-26.4 -15.65 Q-29.25 -18.3 -29.25 -21.75 -29.25 -25.3 -26.4 -27.95 L-26.1 -27.6 M-18.25 -9.75 L-17.0 -9.75 -17.0 -3.05 Q-17.0 -2.2 -16.45 -1.7 -15.85 -1.1 -14.65 -1.1 -13.45 -1.1 -12.85 -1.7 -12.35 -2.2 -12.35 -3.05 L-12.35 -9.75 -11.05 -9.75 -11.05 -3.0 Q-11.05 -1.75 -11.85 -0.95 -12.75 -0.05 -14.65 -0.05 -16.55 -0.05 -17.45 -0.95 -18.25 -1.75 -18.25 -3.0 L-18.25 -9.75 M-9.0 -9.75 L-7.75 -9.75 -7.75 -3.05 Q-7.75 -2.2 -7.2 -1.7 -6.65 -1.1 -5.4 -1.1 -4.2 -1.1 -3.6 -1.7 -3.15 -2.2 -3.15 -3.05 L-3.15 -9.75 -1.8 -9.75 -1.8 -8.2 -1.8 -3.0 Q-1.8 -1.75 -2.6 -0.95 -3.5 -0.05 -5.4 -0.05 -7.35 -0.05 -8.25 -0.95 -9.05 -1.75 -9.0 -3.0 L-9.0 -9.75 M4.6 -8.2 L4.6 -9.75 5.85 -9.75 5.85 -3.05 Q5.85 -2.2 6.4 -1.7 7.0 -1.1 8.2 -1.1 9.4 -1.1 10.0 -1.7 10.5 -2.2 10.5 -3.05 L10.5 -9.75 11.8 -9.75 11.8 -8.2 11.8 -3.0 Q11.8 -1.75 11.05 -0.95 10.1 -0.05 8.2 -0.05 6.3 -0.05 5.4 -0.95 4.6 -1.75 4.6 -3.0 L4.6 -8.2 M13.85 -8.3 L13.85 -9.75 15.1 -9.75 15.1 -3.05 Q15.1 -2.2 15.65 -1.7 16.25 -1.1 17.45 -1.1 18.65 -1.1 19.25 -1.7 19.75 -2.2 19.75 -3.05 L19.75 -9.75 21.05 -9.75 21.05 -3.0 Q21.05 -1.75 20.25 -0.95 19.35 -0.05 17.45 -0.05 15.55 -0.05 14.65 -0.95 13.85 -1.75 13.85 -3.0 L13.85 -8.3 M20.95 -14.8 L20.95 -29.1 22.05 -29.1 22.05 -14.8 20.95 -14.8 M19.45 -27.0 L13.5 -16.3 12.95 -16.65 18.9 -27.3 19.45 -27.0 M12.55 -16.05 L12.55 -15.4 8.2 -15.4 8.2 -16.05 12.55 -16.05 M5.25 -16.05 L4.85 -15.65 4.25 -16.3 Q6.85 -18.7 6.85 -21.75 6.85 -24.9 4.25 -27.3 L4.85 -27.95 Q7.65 -25.3 7.65 -21.75 7.65 -18.55 5.25 -16.05 M2.35 -33.25 L1.3 -32.8 -2.75 -41.8 -6.85 -32.8 -7.95 -33.3 -2.75 -44.6 2.4 -33.3 2.35 -33.25 M-0.15 -28.25 L1.95 -25.8 0.7 -25.8 -2.1 -28.25 -0.15 -28.25 M-23.0 -25.8 L-20.85 -28.25 -18.8 -28.25 -21.65 -25.8 -23.0 -25.8 M-4.05 -21.4 L-15.3 -21.4 -15.3 -22.2 -16.55 -22.2 -16.55 -23.4 -15.3 -23.4 -15.3 -22.6 -4.05 -22.6 -4.05 -21.4" fill="#000000" fill-rule="evenodd" stroke="none"/>
  </g>
</svg>
