<svg xmlns:xlink="http://www.w3.org/1999/xlink" height="102.65px" width="70.65px" xmlns="http://www.w3.org/2000/svg">
  <g transform="matrix(1.0, 0.0, 0.0, 1.0, 26.75, 101.7)">
    <path d="M15.95 -101.05 L16.05 -101.0 Q16.4 -97.85 18.0 -96.35 L30.8 -85.7 31.45 -86.45 Q33.0 -85.15 33.8 -82.7 37.3 -82.0 40.3 -80.15 41.8 -78.85 42.35 -77.6 43.0 -76.25 43.0 -74.35 43.0 -72.8 42.35 -71.4 41.8 -70.1 40.3 -68.5 37.2 -66.4 33.45 -66.85 L33.45 -67.05 33.45 -81.95 32.25 -81.95 32.25 -67.05 31.4 -66.7 31.05 -67.05 31.25 -66.65 Q27.15 -62.45 25.65 -62.1 L25.4 -62.05 Q23.95 -62.05 23.9 -62.4 22.25 -62.35 21.0 -61.1 19.75 -59.9 19.75 -57.85 L19.75 -52.3 20.9 -52.3 20.9 -57.85 Q20.9 -59.35 21.85 -60.35 22.75 -61.25 24.05 -61.25 25.35 -61.25 26.2 -60.35 27.2 -59.35 27.2 -57.85 L27.2 -52.3 Q26.6 -49.95 25.15 -46.9 L25.15 -41.6 Q25.15 -36.95 21.1 -35.5 L21.8 -34.15 Q17.05 -31.6 16.6 -28.7 L15.2 -29.1 Q14.85 -21.9 9.05 -18.65 L10.0 -17.45 Q10.0 -14.9 11.05 -12.75 L10.4 -12.15 Q11.9 -10.85 12.45 -9.6 13.1 -8.25 13.1 -6.35 13.1 -4.8 12.45 -3.4 11.9 -2.1 10.4 -0.5 9.85 -0.7 9.2 0.3 L-5.75 0.3 -7.4 -0.05 -7.0 -0.5 Q-8.45 -2.1 -9.05 -3.4 -9.7 -4.8 -9.7 -6.35 -9.7 -8.25 -9.05 -9.6 L-8.0 -11.15 -7.0 -12.15 -7.6 -12.75 -8.7 -11.6 -9.8 -10.0 Q-10.5 -8.5 -10.55 -6.65 L-10.65 -6.4 Q-11.7 -4.8 -13.9 -5.4 L-15.2 -5.95 Q-15.45 -4.05 -16.05 -3.1 -16.65 -2.2 -17.6 -1.95 L-18.05 -1.9 Q-19.7 -1.85 -20.25 -2.4 L-20.6 -3.05 -20.75 -4.45 -20.75 -12.55 Q-17.75 -15.3 -16.0 -18.45 L-14.7 -16.85 -14.1 -17.5 Q-15.55 -19.1 -16.15 -20.4 -16.8 -21.8 -16.8 -23.35 -16.8 -25.25 -16.15 -26.6 -15.55 -27.85 -14.1 -29.15 L-14.7 -29.75 Q-15.35 -31.25 -15.05 -33.85 -18.35 -32.35 -20.85 -34.5 -22.3 -36.1 -22.9 -37.4 -23.55 -38.8 -23.55 -40.35 -23.55 -42.25 -22.9 -43.6 -22.3 -44.85 -20.85 -46.15 L-21.45 -46.75 Q-17.85 -48.05 -15.25 -50.8 L-14.65 -51.5 Q-16.1 -53.1 -16.7 -54.4 -17.35 -55.8 -17.35 -57.35 -17.35 -59.25 -16.7 -60.6 -16.1 -61.85 -14.65 -63.15 -14.75 -63.9 -15.25 -63.75 -16.35 -64.2 -16.15 -65.95 -20.3 -66.2 -23.2 -68.5 -24.65 -70.1 -25.25 -71.4 -25.9 -72.8 -25.9 -74.35 -25.9 -76.25 -25.25 -77.6 -24.65 -78.85 -23.2 -80.15 L-23.8 -80.75 Q-21.6 -83.35 -19.65 -84.05 L-18.45 -84.05 -18.45 -98.95 -19.65 -98.95 Q-16.95 -101.9 -14.0 -101.7 L-14.0 -101.05 0.95 -101.05 0.95 -101.7 1.0 -101.7 1.0 -101.05 15.95 -101.05 M-7.6 -64.0 L-7.55 -64.05 -9.65 -64.05 -9.7 -64.0 -11.9 -61.45 -10.55 -61.45 -7.6 -64.0 M-0.05 -81.95 L-1.25 -81.95 -1.25 -67.05 -0.05 -67.05 -0.05 -81.95 M-16.0 -80.1 L-16.65 -79.35 -3.85 -68.7 -3.2 -69.45 -16.0 -80.1 M-15.9 -97.1 L-16.55 -96.35 -3.75 -85.7 -3.1 -86.45 -15.9 -97.1 M6.7 -20.7 L6.2 -21.35 Q4.0 -24.05 -0.2 -26.7 L-1.45 -25.6 Q3.0 -22.65 5.25 -19.45 L6.7 -20.7 M3.95 -58.85 L1.6 -54.7 -0.75 -58.85 3.95 -58.85 M1.6 -52.05 L7.0 -61.85 5.9 -62.45 4.55 -60.05 -1.35 -60.05 -2.7 -62.45 -3.8 -61.85 1.6 -52.05 M16.05 -67.05 L16.05 -67.7 1.1 -67.7 1.1 -67.05 16.05 -67.05 M31.05 -67.05 L31.05 -67.7 16.1 -67.7 16.1 -67.05 31.05 -67.05 M12.55 -64.0 L12.5 -64.05 10.4 -64.05 13.3 -61.45 14.65 -61.45 12.55 -64.0 M17.2 -84.05 L17.2 -84.7 2.25 -84.7 2.25 -84.05 17.2 -84.05 M-8.6 -40.35 Q-8.45 -42.8 -9.8 -43.95 L-10.45 -44.4 -12.35 -44.85 -15.2 -44.35 -18.95 -43.05 -18.45 -41.6 -15.15 -43.0 -12.15 -43.6 -11.15 -43.35 -10.5 -42.85 Q-9.85 -42.05 -9.85 -40.85 -9.8 -39.1 -10.75 -38.15 -11.85 -36.95 -14.5 -36.75 L-15.4 -36.75 -15.1 -35.4 -13.6 -35.45 Q-11.65 -35.7 -10.45 -36.6 -8.7 -37.9 -8.6 -40.35" fill="#ffffff" fill-rule="evenodd" stroke="none"/>
    <path d="M1.0 -101.7 L15.95 -101.7 15.95 -101.05 1.0 -101.05 1.0 -101.7 M18.0 -96.35 L18.65 -97.1 31.45 -86.45 30.8 -85.7 18.0 -96.35 M40.3 -80.15 L40.95 -80.75 Q42.5 -79.35 43.15 -78.0 L43.45 -77.25 Q43.9 -75.95 43.9 -74.35 43.9 -72.95 43.45 -71.65 L43.15 -70.95 Q42.45 -69.5 40.95 -67.85 L40.3 -68.5 Q41.8 -70.1 42.35 -71.4 43.0 -72.8 43.0 -74.35 43.0 -76.25 42.35 -77.6 41.8 -78.85 40.3 -80.15 M33.45 -67.05 L32.25 -67.05 32.25 -81.95 33.45 -81.95 33.45 -67.05 M25.65 -62.1 L27.1 -61.1 Q28.3 -59.9 28.3 -57.85 L28.3 -52.3 27.2 -52.3 27.2 -57.85 Q27.2 -59.35 26.2 -60.35 25.35 -61.25 24.05 -61.25 22.75 -61.25 21.85 -60.35 20.9 -59.35 20.9 -57.85 L20.9 -52.3 19.75 -52.3 19.75 -57.85 Q19.75 -59.9 21.0 -61.1 22.25 -62.35 23.9 -62.4 23.95 -62.05 25.4 -62.05 L25.65 -62.1 M25.15 -46.9 L26.45 -46.9 Q27.05 -46.75 26.5 -46.4 L26.5 -40.95 Q26.5 -36.15 21.8 -34.15 L21.1 -35.5 Q25.15 -36.95 25.15 -41.6 L25.15 -46.9 M16.6 -28.7 Q16.4 -25.0 14.55 -22.1 12.85 -19.15 10.0 -17.45 L9.05 -18.65 Q14.85 -21.9 15.2 -29.1 L16.6 -28.7 M11.05 -12.75 Q12.6 -11.35 13.25 -10.0 14.0 -8.4 14.0 -6.35 14.0 -4.55 13.25 -2.95 12.55 -1.5 11.05 0.15 L10.4 -0.5 Q11.9 -2.1 12.45 -3.4 13.1 -4.8 13.1 -6.35 13.1 -8.25 12.45 -9.6 11.9 -10.85 10.4 -12.15 L11.05 -12.75 M9.2 0.3 L9.2 0.95 -5.75 0.95 -5.75 0.3 9.2 0.3 M-7.4 -0.05 L-7.6 0.15 -8.15 -0.5 -9.8 -2.95 Q-10.55 -4.55 -10.55 -6.35 L-10.55 -6.65 Q-10.5 -8.5 -9.8 -10.0 L-8.7 -11.6 -7.6 -12.75 -7.0 -12.15 -8.0 -11.15 -9.05 -9.6 Q-9.7 -8.25 -9.7 -6.35 -9.7 -4.8 -9.05 -3.4 -8.45 -2.1 -7.0 -0.5 L-7.4 -0.05 M-13.9 -5.4 Q-14.3 -2.9 -15.5 -1.7 -16.65 -0.55 -18.55 -0.55 -20.4 -0.5 -21.15 -1.45 -21.8 -2.25 -21.9 -4.05 L-21.95 -4.45 -21.95 -12.55 -20.75 -12.55 -20.75 -4.45 -20.6 -3.05 -20.25 -2.4 Q-19.7 -1.85 -18.05 -1.9 L-17.6 -1.95 Q-16.65 -2.2 -16.05 -3.1 -15.45 -4.05 -15.2 -5.95 L-13.9 -5.4 M-16.0 -18.45 L-16.9 -19.95 Q-17.65 -21.55 -17.65 -23.35 -17.65 -25.4 -16.9 -27.0 -16.25 -28.35 -14.7 -29.75 L-14.1 -29.15 Q-15.55 -27.85 -16.15 -26.6 -16.8 -25.25 -16.8 -23.35 -16.8 -21.8 -16.15 -20.4 -15.55 -19.1 -14.1 -17.5 L-14.7 -16.85 -16.0 -18.45 M-20.85 -34.5 L-21.45 -33.85 Q-22.95 -35.5 -23.65 -36.95 -24.4 -38.55 -24.4 -40.35 -24.4 -42.4 -23.65 -44.0 -23.0 -45.35 -21.45 -46.75 L-20.85 -46.15 Q-22.3 -44.85 -22.9 -43.6 -23.55 -42.25 -23.55 -40.35 -23.55 -38.8 -22.9 -37.4 -22.3 -36.1 -20.85 -34.5 M-14.65 -51.5 L-15.25 -50.85 Q-16.75 -52.5 -17.45 -53.95 -18.2 -55.55 -18.2 -57.35 -18.2 -59.4 -17.45 -61.0 -16.8 -62.35 -15.25 -63.75 L-14.65 -63.15 Q-16.1 -61.85 -16.7 -60.6 -17.35 -59.25 -17.35 -57.35 -17.35 -55.8 -16.7 -54.4 -16.1 -53.1 -14.65 -51.5 M-23.2 -68.5 L-23.8 -67.85 Q-25.3 -69.5 -26.0 -70.95 -26.75 -72.55 -26.75 -74.35 -26.75 -76.4 -26.0 -78.0 -25.35 -79.35 -23.8 -80.75 L-23.2 -80.15 Q-24.65 -78.85 -25.25 -77.6 -25.9 -76.25 -25.9 -74.35 -25.9 -72.8 -25.25 -71.4 -24.65 -70.1 -23.2 -68.5 M-19.65 -84.05 L-19.65 -98.95 -18.45 -98.95 -18.45 -84.05 -19.65 -84.05 M-14.0 -101.7 L0.95 -101.7 0.95 -101.05 -14.0 -101.05 -14.0 -101.7 M17.2 -84.05 L2.25 -84.05 2.25 -84.7 17.2 -84.7 17.2 -84.05 M12.55 -64.0 L14.65 -61.45 13.3 -61.45 10.4 -64.05 12.5 -64.05 12.55 -64.0 M31.05 -67.05 L16.1 -67.05 16.1 -67.7 31.05 -67.7 31.05 -67.05 M16.05 -67.05 L1.1 -67.05 1.1 -67.7 16.05 -67.7 16.05 -67.05 M1.6 -52.05 L-3.8 -61.85 -2.7 -62.45 -1.35 -60.05 4.55 -60.05 5.9 -62.45 7.0 -61.85 1.6 -52.05 M3.95 -58.85 L-0.75 -58.85 1.6 -54.7 3.95 -58.85 M6.7 -20.7 L5.25 -19.45 Q3.0 -22.65 -1.45 -25.6 L-0.2 -26.7 Q4.0 -24.05 6.2 -21.35 L6.7 -20.7 M-15.9 -97.1 L-3.1 -86.45 -3.75 -85.7 -16.55 -96.35 -15.9 -97.1 M-16.0 -80.1 L-3.2 -69.45 -3.85 -68.7 -16.65 -79.35 -16.0 -80.1 M-0.05 -81.95 L-0.05 -67.05 -1.25 -67.05 -1.25 -81.95 -0.05 -81.95 M-7.6 -64.0 L-10.55 -61.45 -11.9 -61.45 -9.7 -64.0 -9.65 -64.05 -7.55 -64.05 -7.6 -64.0 M-8.6 -40.35 Q-8.7 -37.9 -10.45 -36.6 -11.65 -35.7 -13.6 -35.45 L-15.1 -35.4 -15.4 -36.75 -14.5 -36.75 Q-11.85 -36.95 -10.75 -38.15 -9.8 -39.1 -9.85 -40.85 -9.85 -42.05 -10.5 -42.85 L-11.15 -43.35 -12.15 -43.6 -15.15 -43.0 -18.45 -41.6 -18.95 -43.05 -15.2 -44.35 -12.35 -44.85 -10.45 -44.4 -9.8 -43.95 Q-8.45 -42.8 -8.6 -40.35" fill="#000000" fill-rule="evenodd" stroke="none"/>
  </g>
</svg>
