<svg xmlns:xlink="http://www.w3.org/1999/xlink" height="110.8px" width="69.65px" xmlns="http://www.w3.org/2000/svg">
  <g transform="matrix(1.0, 0.0, 0.0, 1.0, 38.45, 110.55)">
    <path d="M-10.3 -110.55 L-10.3 -110.05 1.65 -110.05 1.65 -110.55 1.7 -110.55 1.7 -110.05 13.65 -110.05 Q16.2 -108.45 18.45 -106.55 L18.5 -106.5 17.95 -105.9 28.2 -97.35 30.6 -94.6 30.6 -93.95 30.25 -93.95 30.25 -82.05 30.85 -82.05 30.85 -81.6 Q29.5 -80.1 28.6 -78.5 L18.35 -70.0 18.7 -69.6 18.4 -69.4 17.55 -68.85 17.3 -68.55 5.75 -68.55 5.75 -68.05 14.75 -68.05 14.75 -67.45 15.35 -65.0 14.85 -64.45 Q17.0 -62.45 17.0 -59.85 17.0 -57.3 14.85 -55.3 L12.6 -53.05 13.25 -52.6 12.75 -51.95 11.8 -51.95 11.8 -40.05 12.25 -40.05 12.25 -40.0 Q12.45 -37.9 12.1 -36.45 L11.95 -35.8 11.35 -35.8 11.35 -34.6 11.65 -34.6 11.35 -33.1 11.35 -27.85 12.25 -27.85 Q12.0 -24.85 12.2 -21.8 L11.35 -21.8 11.35 -20.6 12.3 -20.6 Q11.95 -19.7 12.3 -19.1 L11.35 -19.1 11.35 -13.85 11.55 -13.85 11.55 -13.8 Q11.6 -13.0 11.25 -12.55 L-4.95 -12.55 -4.95 -12.05 11.25 -12.05 Q11.15 -9.85 10.6 -7.85 L10.6 -2.25 Q10.6 -1.55 10.2 -1.15 9.7 -0.65 8.7 -0.65 7.7 -0.65 7.2 -1.15 6.75 -1.55 6.75 -2.25 L6.75 -7.85 6.2 -7.85 6.0 -8.15 4.5 -8.5 Q2.2 -9.25 0.6 -9.3 L-0.7 -9.3 -0.75 -9.15 -1.85 -8.95 -1.65 -9.3 -2.95 -9.3 -3.25 -8.65 -3.3 -8.65 -5.65 -7.85 -6.75 -7.85 -6.75 -2.25 Q-6.75 -1.55 -7.15 -1.15 -7.65 -0.65 -8.65 -0.65 -9.65 -0.65 -10.15 -1.15 -10.6 -1.55 -10.6 -2.25 L-10.6 -7.85 -11.65 -7.85 Q-11.65 -9.8 -12.05 -12.05 L-7.55 -12.05 -7.55 -12.55 -19.5 -12.55 Q-20.1 -12.85 -20.4 -12.55 L-20.4 -23.95 -21.35 -23.95 -21.35 -26.05 -20.4 -26.05 -20.4 -37.95 -21.35 -37.95 -21.35 -40.05 -20.4 -40.05 -20.4 -51.95 -21.35 -51.95 -21.35 -54.05 -20.4 -54.05 -20.4 -65.95 -21.35 -65.95 -21.35 -65.55 Q-25.35 -67.25 -26.7 -69.75 L-26.85 -70.0 -37.05 -78.5 -37.45 -78.0 -38.05 -78.55 Q-38.05 -80.2 -38.4 -81.95 L-37.5 -82.05 -37.5 -93.95 -37.5 -94.05 Q-37.95 -96.15 -37.6 -98.0 L-37.05 -97.35 -26.85 -105.9 -27.35 -106.5 Q-25.0 -108.2 -22.55 -110.3 L-22.3 -110.05 -10.35 -110.05 -10.35 -110.55 -10.3 -110.55 M8.9 -64.95 L3.75 -64.95 3.75 -61.7 Q3.75 -58.65 2.35 -56.7 L1.55 -56.7 1.55 -54.1 2.45 -54.1 2.45 -55.8 9.05 -55.8 9.05 -54.1 9.95 -54.1 9.95 -56.7 8.9 -56.7 8.9 -64.95 M4.65 -64.05 L7.95 -64.05 7.95 -56.7 3.4 -56.7 Q4.65 -58.6 4.65 -61.7 L4.65 -64.05 M5.7 -68.05 L5.7 -68.55 -6.25 -68.55 -6.25 -68.05 5.7 -68.05 M13.85 -65.4 Q13.55 -65.75 13.1 -65.75 L12.35 -65.4 12.05 -64.65 Q12.05 -64.25 12.35 -63.9 12.7 -63.55 13.1 -63.55 13.55 -63.55 13.85 -63.9 L14.2 -64.65 13.85 -65.4 M13.1 -65.35 L13.65 -65.15 13.8 -64.65 13.65 -64.15 13.1 -63.95 Q12.8 -63.95 12.6 -64.15 L12.4 -64.65 12.6 -65.15 Q12.8 -65.35 13.1 -65.35 M12.75 -51.95 L13.25 -52.55 13.35 -52.5 15.1 -51.05 14.6 -50.55 16.25 -48.5 Q16.75 -47.4 16.75 -45.9 16.75 -44.65 16.25 -43.55 L14.6 -41.25 12.75 -40.05 12.75 -51.95 M-17.6 -93.95 L-18.55 -93.95 -18.55 -82.05 -17.6 -82.05 -17.6 -93.95 M-17.1 -78.5 L-17.65 -77.9 -7.4 -69.35 -7.35 -69.4 -6.9 -70.0 -17.1 -78.5 M-6.9 -105.9 L-7.4 -106.5 -17.65 -98.0 -17.1 -97.35 -6.9 -105.9 M-7.1 -33.1 L-7.1 -27.85 -6.15 -27.85 -6.15 -33.1 -7.1 -33.1 M-6.15 -35.8 L-7.1 -35.8 -7.1 -34.6 -6.15 -34.6 -6.15 -35.8 M-5.85 -41.85 L-5.85 -47.1 -6.8 -47.1 -6.8 -41.85 -5.85 -41.85 M-8.35 -49.55 Q-8.0 -49.6 -8.35 -49.8 L-9.35 -50.3 Q-10.25 -44.85 -13.0 -42.6 L-12.25 -41.6 Q-9.3 -44.25 -8.35 -49.55 M-5.85 -49.8 L-6.8 -49.8 -6.8 -48.6 -5.85 -48.6 -5.85 -49.8 M-7.2 -55.85 L-6.75 -55.85 -7.2 -54.55 -6.75 -54.55 -6.1 -55.85 -6.1 -56.85 -7.2 -56.85 -7.2 -55.85 M-4.75 -55.85 L-4.3 -55.85 -4.75 -54.55 -4.3 -54.55 -3.65 -55.85 -3.65 -56.85 -4.75 -56.85 -4.75 -55.85 M-14.5 -50.55 L-15.0 -51.05 -16.75 -48.8 Q-17.35 -47.55 -17.35 -45.9 -17.35 -44.45 -16.75 -43.2 L-15.0 -40.7 -14.5 -41.25 -16.1 -43.55 Q-16.65 -44.65 -16.65 -45.9 -16.65 -47.4 -16.1 -48.5 L-14.5 -50.55 M-1.65 -65.75 Q-2.05 -65.75 -2.4 -65.4 L-2.7 -64.65 -2.4 -63.9 Q-2.05 -63.55 -1.65 -63.55 -1.2 -63.55 -0.9 -63.9 -0.55 -64.25 -0.55 -64.65 -0.55 -65.05 -0.9 -65.4 -1.2 -65.75 -1.65 -65.75 M-1.65 -65.35 L-1.1 -65.15 Q-0.95 -65.0 -0.95 -64.65 -0.95 -64.3 -1.1 -64.15 -1.3 -63.95 -1.65 -63.95 L-2.15 -64.15 Q-2.35 -64.3 -2.35 -64.65 L-2.15 -65.15 -1.65 -65.35 M-8.25 -64.45 L-8.8 -65.0 Q-11.15 -62.8 -11.15 -59.85 -11.15 -56.95 -8.8 -54.75 L-8.25 -55.3 Q-10.4 -57.3 -10.4 -59.85 -10.4 -62.45 -8.25 -64.45 M-6.7 -20.6 L-5.75 -20.6 -5.75 -21.8 -6.7 -21.8 -6.7 -20.6 M-5.75 -19.1 L-6.7 -19.1 -6.7 -13.85 -5.75 -13.85 -5.75 -19.1" fill="#ffffff" fill-rule="evenodd" stroke="none"/>
    <path d="M1.65 -110.55 L1.65 -110.05 -10.3 -110.05 -10.3 -110.55 1.65 -110.55 M-10.35 -110.55 L-10.35 -110.05 -22.3 -110.05 -22.3 -110.55 -10.35 -110.55 M-27.35 -106.5 L-26.85 -105.9 -37.05 -97.35 -37.6 -98.0 -27.35 -106.5 M-37.5 -93.95 L-37.5 -82.05 -38.45 -82.05 -38.45 -93.95 -37.5 -93.95 M-37.45 -78.0 L-37.05 -78.5 -26.85 -70.0 -27.35 -69.35 -37.6 -77.9 -37.45 -78.0 M-21.35 -65.55 L-21.35 -65.95 -20.4 -65.95 -20.4 -54.05 -21.35 -54.05 -21.35 -65.55 M-21.35 -51.95 L-20.4 -51.95 -20.4 -40.05 -21.35 -40.05 -21.35 -51.95 M-21.35 -37.95 L-20.4 -37.95 -20.4 -26.05 -21.35 -26.05 -21.35 -37.95 M-21.35 -23.95 L-20.4 -23.95 -20.4 -12.55 -20.4 -12.05 -21.35 -12.05 -21.35 -23.95 M-19.5 -12.55 L-7.55 -12.55 -7.55 -12.05 -12.05 -12.05 -19.5 -12.05 -19.5 -12.55 M-11.65 -7.85 L-10.6 -7.85 -10.6 -2.25 Q-10.6 -1.55 -10.15 -1.15 -9.65 -0.65 -8.65 -0.65 -7.65 -0.65 -7.15 -1.15 -6.75 -1.55 -6.75 -2.25 L-6.75 -7.85 -5.65 -7.85 -5.65 -2.2 Q-5.65 -1.15 -6.3 -0.5 -7.05 0.25 -8.65 0.25 -10.25 0.25 -11.0 -0.5 -11.65 -1.15 -11.65 -2.2 L-11.65 -7.85 M-3.25 -8.65 L-2.95 -9.3 -1.65 -9.3 -1.85 -8.95 -3.3 -6.95 -4.15 -6.95 -3.25 -8.65 M-0.75 -9.15 L-0.7 -9.3 0.6 -9.3 -1.05 -6.95 -1.9 -6.95 -0.75 -9.15 M6.2 -7.85 L6.75 -7.85 6.75 -2.25 Q6.75 -1.55 7.2 -1.15 7.7 -0.65 8.7 -0.65 9.7 -0.65 10.2 -1.15 10.6 -1.55 10.6 -2.25 L10.6 -7.85 11.7 -7.85 11.7 -2.2 Q11.7 -1.15 11.05 -0.5 10.3 0.25 8.7 0.25 7.1 0.25 6.35 -0.5 5.7 -1.15 5.7 -2.2 L5.7 -7.85 6.2 -7.85 M11.25 -12.05 L-4.95 -12.05 -4.95 -12.55 11.25 -12.55 11.85 -12.55 11.85 -12.05 11.25 -12.05 M11.55 -13.85 L11.35 -13.85 11.35 -19.1 12.3 -19.1 12.3 -13.85 11.55 -13.85 M12.3 -20.6 L11.35 -20.6 11.35 -21.8 12.2 -21.8 12.3 -21.8 12.3 -20.6 M12.25 -27.85 L11.35 -27.85 11.35 -33.1 12.3 -33.1 12.3 -27.85 12.25 -27.85 M11.65 -34.6 L11.35 -34.6 11.35 -35.8 11.95 -35.8 12.3 -35.8 12.3 -34.6 11.65 -34.6 M12.25 -40.05 L11.8 -40.05 11.8 -51.95 12.75 -51.95 12.75 -40.05 12.25 -40.05 M14.85 -55.3 Q17.0 -57.3 17.0 -59.85 17.0 -62.45 14.85 -64.45 L15.35 -65.0 Q17.7 -62.8 17.7 -59.85 17.7 -56.95 15.35 -54.75 L14.85 -55.3 M14.75 -68.05 L5.75 -68.05 5.75 -68.55 17.3 -68.55 17.7 -68.55 17.7 -68.05 14.75 -68.05 M18.7 -69.6 L18.35 -70.0 28.6 -78.5 29.1 -77.9 18.9 -69.35 18.7 -69.6 M30.85 -82.05 L30.25 -82.05 30.25 -93.95 30.6 -93.95 31.2 -93.95 31.2 -82.05 30.85 -82.05 M28.2 -97.35 L17.95 -105.9 18.5 -106.5 28.7 -98.0 28.2 -97.35 M13.65 -110.05 L1.7 -110.05 1.7 -110.55 13.65 -110.55 13.65 -110.05 M13.1 -65.35 Q12.8 -65.35 12.6 -65.15 L12.4 -64.65 12.6 -64.15 Q12.8 -63.95 13.1 -63.95 L13.65 -64.15 13.8 -64.65 13.65 -65.15 13.1 -65.35 M13.85 -65.4 L14.2 -64.65 13.85 -63.9 Q13.55 -63.55 13.1 -63.55 12.7 -63.55 12.35 -63.9 12.05 -64.25 12.05 -64.65 L12.35 -65.4 13.1 -65.75 Q13.55 -65.75 13.85 -65.4 M5.7 -68.05 L-6.25 -68.05 -6.25 -68.55 5.7 -68.55 5.7 -68.05 M4.65 -64.05 L4.65 -61.7 Q4.65 -58.6 3.4 -56.7 L7.95 -56.7 7.95 -64.05 4.65 -64.05 M8.9 -64.95 L8.9 -56.7 9.95 -56.7 9.95 -54.1 9.05 -54.1 9.05 -55.8 2.45 -55.8 2.45 -54.1 1.55 -54.1 1.55 -56.7 2.35 -56.7 Q3.75 -58.65 3.75 -61.7 L3.75 -64.95 8.9 -64.95 M15.1 -51.05 Q16.3 -49.9 16.85 -48.8 17.45 -47.55 17.45 -45.9 17.45 -44.45 16.85 -43.2 16.3 -42.05 15.1 -40.7 L14.6 -41.25 16.25 -43.55 Q16.75 -44.65 16.75 -45.9 16.75 -47.4 16.25 -48.5 L14.6 -50.55 15.1 -51.05 M-6.9 -105.9 L-17.1 -97.35 -17.65 -98.0 -7.4 -106.5 -6.9 -105.9 M-17.1 -78.5 L-6.9 -70.0 -7.35 -69.4 -7.4 -69.35 -17.65 -77.9 -17.1 -78.5 M-17.6 -93.95 L-17.6 -82.05 -18.55 -82.05 -18.55 -93.95 -17.6 -93.95 M-8.25 -64.45 Q-10.4 -62.45 -10.4 -59.85 -10.4 -57.3 -8.25 -55.3 L-8.8 -54.75 Q-11.15 -56.95 -11.15 -59.85 -11.15 -62.8 -8.8 -65.0 L-8.25 -64.45 M-1.65 -65.35 L-2.15 -65.15 -2.35 -64.65 Q-2.35 -64.3 -2.15 -64.15 L-1.65 -63.95 Q-1.3 -63.95 -1.1 -64.15 -0.95 -64.3 -0.95 -64.65 -0.95 -65.0 -1.1 -65.15 L-1.65 -65.35 M-1.65 -65.75 Q-1.2 -65.75 -0.9 -65.4 -0.55 -65.05 -0.55 -64.65 -0.55 -64.25 -0.9 -63.9 -1.2 -63.55 -1.65 -63.55 -2.05 -63.55 -2.4 -63.9 L-2.7 -64.65 -2.4 -65.4 Q-2.05 -65.75 -1.65 -65.75 M-14.5 -50.55 L-16.1 -48.5 Q-16.65 -47.4 -16.65 -45.9 -16.65 -44.65 -16.1 -43.55 L-14.5 -41.25 -15.0 -40.7 -16.75 -43.2 Q-17.35 -44.45 -17.35 -45.9 -17.35 -47.55 -16.75 -48.8 L-15.0 -51.05 -14.5 -50.55 M-4.75 -55.85 L-4.75 -56.85 -3.65 -56.85 -3.65 -55.85 -4.3 -54.55 -4.75 -54.55 -4.3 -55.85 -4.75 -55.85 M-7.2 -55.85 L-7.2 -56.85 -6.1 -56.85 -6.1 -55.85 -6.75 -54.55 -7.2 -54.55 -6.75 -55.85 -7.2 -55.85 M-5.85 -49.8 L-5.85 -48.6 -6.8 -48.6 -6.8 -49.8 -5.85 -49.8 M-8.35 -49.55 Q-9.3 -44.25 -12.25 -41.6 L-13.0 -42.6 Q-10.25 -44.85 -9.35 -50.3 L-8.35 -49.8 Q-8.0 -49.6 -8.35 -49.55 M-5.85 -41.85 L-6.8 -41.85 -6.8 -47.1 -5.85 -47.1 -5.85 -41.85 M-6.15 -35.8 L-6.15 -34.6 -7.1 -34.6 -7.1 -35.8 -6.15 -35.8 M-7.1 -33.1 L-6.15 -33.1 -6.15 -27.85 -7.1 -27.85 -7.1 -33.1 M-5.75 -19.1 L-5.75 -13.85 -6.7 -13.85 -6.7 -19.1 -5.75 -19.1 M-6.7 -20.6 L-6.7 -21.8 -5.75 -21.8 -5.75 -20.6 -6.7 -20.6" fill="#000000" fill-rule="evenodd" stroke="none"/>
  </g>
</svg>
