<?xml version="1.0" encoding="UTF-8" standalone="no"?>
<svg xmlns:ffdec="https://www.free-decompiler.com/flash" xmlns:xlink="http://www.w3.org/1999/xlink" ffdec:objectType="shape" height="88.9px" width="89.1px" xmlns="http://www.w3.org/2000/svg">
  <g transform="matrix(1.0, 0.0, 0.0, 1.0, 33.7, 88.8)">
    <path d="M2.7 -81.8 Q2.3 -84.6 2.7 -87.4 2.9 -89.2 4.65 -88.65 5.95 -88.25 6.45 -86.8 L7.1 -84.9 Q9.25 -86.4 11.4 -85.5 L12.15 -84.45 Q12.4 -83.4 11.55 -82.9 11.55 -82.65 12.95 -82.0 14.5 -81.3 13.95 -79.7 13.4 -78.55 12.1 -78.35 L7.15 -77.6 Q6.8 -75.95 6.05 -74.45 L6.0 -74.35 Q5.05 -72.65 3.45 -71.2 L3.1 -70.9 Q1.5 -69.6 0.15 -69.2 L0.35 -68.75 Q1.65 -66.05 2.15 -63.15 5.55 -64.2 7.1 -60.7 7.35 -60.2 7.05 -59.6 6.4 -58.4 8.3 -57.4 9.1 -56.9 9.55 -56.05 10.5 -54.45 8.65 -53.3 L5.5 -51.75 2.95 -51.7 3.0 -51.45 1.85 -51.2 6.95 -46.35 Q10.15 -43.3 12.45 -39.3 14.8 -35.25 16.45 -30.65 17.35 -28.0 16.9 -25.15 18.95 -26.5 22.4 -26.45 24.25 -26.45 25.85 -25.5 30.0 -23.15 34.65 -21.85 L44.4 -21.45 Q49.45 -22.45 52.85 -26.05 53.25 -26.5 53.7 -26.55 56.75 -23.55 54.3 -19.8 52.1 -16.5 48.0 -17.2 L43.9 -17.65 34.5 -18.8 26.1 -20.85 Q20.85 -22.3 16.4 -20.75 L16.2 -21.3 16.0 -20.6 Q14.95 -17.55 12.45 -16.0 15.9 -13.15 17.35 -8.95 L17.85 -7.8 Q18.85 -5.55 17.8 -3.95 18.65 -4.05 17.95 -2.85 L16.85 -1.9 Q15.5 -1.05 14.25 -1.65 L17.15 -3.1 14.7 -7.15 Q12.05 -10.8 11.6 -15.55 10.5 -15.05 9.15 -14.8 L8.75 -14.75 Q7.3 -12.1 6.6 -9.45 5.9 -7.0 7.0 -4.9 7.3 -4.25 6.7 -4.0 L6.95 -3.35 Q6.8 -2.65 5.85 -2.35 L4.45 -1.9 3.35 -1.45 Q1.45 -0.65 0.8 -2.05 L3.95 -3.25 Q2.7 -7.45 4.6 -11.65 L5.1 -12.45 6.55 -14.5 Q3.55 -14.45 0.85 -15.45 -0.6 -15.95 -0.9 -17.3 -2.2 -22.1 -1.45 -27.05 -1.1 -29.4 -1.6 -31.6 L-2.55 -35.25 -3.65 -32.05 Q-5.05 -27.5 -5.6 -22.7 L-6.9 -13.35 -8.6 -4.0 -8.65 -3.05 Q-8.7 -1.65 -9.95 -0.95 -11.85 0.1 -14.2 0.1 -19.25 0.05 -23.05 -3.3 L-23.35 -4.25 Q-25.25 -3.45 -26.45 -3.25 -28.1 -3.0 -29.4 -3.6 -32.65 -5.2 -33.5 -8.9 L-33.7 -10.6 Q-33.75 -15.6 -32.05 -20.1 -30.8 -23.65 -28.9 -26.9 -26.65 -31.05 -23.5 -34.6 -20.3 -38.25 -16.25 -40.35 -14.9 -40.65 -12.95 -43.65 -14.4 -42.9 -16.7 -43.15 L-22.0 -44.2 -29.05 -47.3 Q-32.35 -48.8 -33.3 -53.15 -34.3 -57.55 -29.9 -60.55 L-21.45 -66.15 -20.3 -65.5 Q-19.85 -66.4 -18.6 -67.1 L-18.95 -67.7 -21.3 -66.25 -21.3 -66.3 Q-23.45 -68.65 -21.1 -70.55 L-20.0 -71.65 Q-19.75 -71.95 -19.75 -72.45 -19.75 -75.4 -17.1 -75.25 -13.25 -75.15 -11.5 -71.8 -8.15 -74.35 -3.65 -73.2 -2.5 -72.9 -1.65 -72.1 L-0.25 -74.0 2.1 -77.85 3.2 -80.35 3.65 -81.15 2.7 -81.8 M-0.85 -59.9 L0.3 -61.35 Q1.65 -62.2 2.3 -62.2 L2.15 -63.15 2.3 -62.2 Q1.65 -62.2 0.3 -61.35 L-0.85 -59.9 -1.65 -60.4 -2.2 -59.3 Q-3.25 -57.9 -5.15 -58.25 -8.05 -58.85 -8.55 -61.5 -8.9 -63.35 -7.55 -64.55 -6.35 -65.55 -5.4 -64.15 -4.3 -62.45 -6.3 -61.6 -4.3 -62.45 -5.4 -64.15 -6.35 -65.55 -7.55 -64.55 -8.9 -63.35 -8.55 -61.5 -8.05 -58.85 -5.15 -58.25 -3.25 -57.9 -2.2 -59.3 L-1.5 -58.9 -0.85 -59.9 M-0.7 -69.35 Q-0.8 -68.9 0.15 -69.2 -0.8 -68.9 -0.7 -69.35 M5.35 -74.8 Q4.9 -76.95 3.0 -77.35 4.9 -76.95 5.35 -74.8 M7.15 -77.6 L7.35 -79.55 7.25 -80.35 Q6.7 -81.7 4.45 -81.95 L3.65 -81.15 4.45 -81.95 Q6.7 -81.7 7.25 -80.35 L7.35 -79.55 7.15 -77.6 M16.2 -21.3 L16.9 -24.95 16.9 -25.15 16.9 -24.95 16.2 -21.3 M1.95 -52.2 Q2.45 -51.9 2.95 -51.7 2.45 -51.9 1.95 -52.2 M1.85 -51.2 Q-0.05 -50.95 -1.1 -52.0 -2.05 -52.95 -2.35 -54.9 -2.65 -57.05 -1.5 -58.9 -2.65 -57.05 -2.35 -54.9 -2.05 -52.95 -1.1 -52.0 -0.05 -50.95 1.85 -51.2 M11.6 -15.55 L12.4 -16.0 12.35 -14.95 12.4 -16.0 11.6 -15.55 M12.45 -16.05 L12.4 -16.0 12.45 -16.0 12.45 -16.05 M17.8 -3.95 L17.15 -3.1 17.8 -3.95 M3.95 -3.25 L6.3 -3.85 6.7 -4.0 6.3 -3.85 3.95 -3.25 M6.55 -14.5 L8.75 -14.75 6.55 -14.5 M-26.35 -59.55 L-25.65 -56.85 Q-25.4 -55.95 -24.6 -55.65 -22.25 -54.75 -20.8 -57.25 -23.4 -58.8 -26.35 -59.55 -23.4 -58.8 -20.8 -57.25 -22.25 -54.75 -24.6 -55.65 -25.4 -55.95 -25.65 -56.85 L-26.35 -59.55 M-20.5 -50.75 Q-21.05 -49.8 -21.75 -48.8 L-22.85 -50.3 -23.05 -50.0 -23.85 -48.15 -25.5 -51.55 -25.55 -51.25 -26.5 -48.45 -26.55 -48.5 -27.35 -50.5 -27.65 -51.8 Q-27.7 -52.65 -27.9 -53.4 -27.7 -52.65 -27.65 -51.8 L-27.35 -50.5 -26.55 -48.5 -26.5 -48.45 -25.55 -51.25 -25.5 -51.55 -23.85 -48.15 -23.05 -50.0 -22.85 -50.3 -21.75 -48.8 Q-21.05 -49.8 -20.5 -50.75 M-18.7 -51.9 Q-21.1 -50.7 -23.0 -51.05 -24.9 -51.4 -25.05 -51.85 L-25.8 -53.35 -27.9 -53.4 Q-29.0 -53.95 -29.25 -55.65 -29.0 -53.95 -27.9 -53.4 L-25.8 -53.35 -25.05 -51.85 Q-24.9 -51.4 -23.0 -51.05 -21.1 -50.7 -18.7 -51.9 M-21.75 -48.8 L-22.55 -47.85 Q-22.9 -47.35 -23.4 -47.4 -25.1 -47.45 -26.5 -48.45 L-26.55 -48.45 -26.55 -48.5 -26.75 -48.65 -28.1 -50.25 Q-29.1 -51.95 -28.95 -54.0 -29.1 -51.95 -28.1 -50.25 L-26.75 -48.65 -26.55 -48.5 -26.55 -48.45 -26.5 -48.45 Q-25.1 -47.45 -23.4 -47.4 -22.9 -47.35 -22.55 -47.85 L-21.75 -48.8 M0.15 -69.2 L-0.1 -69.8 Q-0.7 -71.25 -1.65 -72.1 -0.7 -71.25 -0.1 -69.8 L0.15 -69.2 M-12.15 -71.25 Q-11.2 -71.2 -11.5 -71.75 L-11.5 -71.8 -12.15 -71.25 -13.5 -70.8 -18.95 -67.7 -13.5 -70.8 -12.15 -71.25 M-1.65 -60.4 Q-0.45 -63.7 -3.2 -65.9 -7.25 -69.25 -10.8 -65.6 -12.1 -64.15 -12.0 -62.25 -11.7 -56.45 -6.05 -55.95 -11.7 -56.45 -12.0 -62.25 -12.1 -64.15 -10.8 -65.6 -7.25 -69.25 -3.2 -65.9 -0.45 -63.7 -1.65 -60.4 M-16.5 -64.0 L-15.75 -64.65 -15.7 -65.15 -15.95 -65.45 Q-18.05 -66.35 -18.0 -63.7 -18.0 -62.45 -16.85 -62.4 -13.75 -62.4 -14.25 -65.3 L-14.25 -65.45 -14.25 -65.5 Q-14.75 -68.2 -17.25 -67.65 L-18.6 -67.1 -17.25 -67.65 Q-14.75 -68.2 -14.25 -65.5 L-14.25 -65.45 -14.25 -65.3 Q-13.75 -62.4 -16.85 -62.4 -18.0 -62.45 -18.0 -63.7 -18.05 -66.35 -15.95 -65.45 L-15.7 -65.15 -15.75 -64.65 -16.5 -64.0 M2.25 -72.05 Q1.3 -73.2 -0.25 -74.0 1.3 -73.2 2.25 -72.05 M-12.95 -43.65 Q-12.1 -43.6 -10.65 -44.55 -9.15 -45.5 -8.0 -45.4 L-4.3 -49.0 -1.45 -51.7 -1.1 -52.0 -1.45 -51.7 -4.3 -49.0 -8.0 -45.4 Q-6.45 -43.7 -5.4 -41.95 -3.65 -43.75 -2.05 -45.7 L-1.6 -46.25 -2.05 -45.7 Q-3.65 -43.75 -5.4 -41.95 -6.45 -43.7 -8.0 -45.4 -9.15 -45.5 -10.65 -44.55 -12.1 -43.6 -12.95 -43.65 M-23.35 -4.25 Q-24.3 -7.75 -22.8 -11.55 L-19.5 -20.05 Q-17.75 -24.7 -15.5 -29.1 -14.25 -31.75 -12.6 -34.1 -10.55 -37.1 -7.9 -39.55 L-5.4 -41.95 -7.9 -39.55 Q-10.55 -37.1 -12.6 -34.1 -14.25 -31.75 -15.5 -29.1 -17.75 -24.7 -19.5 -20.05 L-22.8 -11.55 Q-24.3 -7.75 -23.35 -4.25 M-1.2 -44.9 Q-0.8 -44.75 -0.6 -44.15 L-0.15 -42.0 Q0.0 -41.3 -0.3 -40.65 L-2.55 -35.25 -0.3 -40.65 Q0.0 -41.3 -0.15 -42.0 L-0.6 -44.15 Q-0.8 -44.75 -1.2 -44.9 M-20.3 -65.5 Q-21.05 -64.15 -19.65 -62.45 -21.05 -64.15 -20.3 -65.5" fill="#ffffff" fill-rule="evenodd" stroke="none"/>
    <path d="M-27.9 -53.4 Q-27.7 -52.65 -27.65 -51.8 L-27.35 -50.5 -26.55 -48.5 -26.5 -48.45 -25.55 -51.25 -25.5 -51.55 -23.85 -48.15 -23.05 -50.0 -22.85 -50.3 -21.75 -48.8 Q-21.05 -49.8 -20.5 -50.75 M-28.95 -54.0 Q-29.1 -51.95 -28.1 -50.25 L-26.75 -48.65 -26.55 -48.5 -26.55 -48.45 -26.5 -48.45 Q-25.1 -47.45 -23.4 -47.4 -22.9 -47.35 -22.55 -47.85 L-21.75 -48.8" fill="none" stroke="#000000" stroke-linecap="round" stroke-linejoin="round" stroke-width="0.05"/>
    <path d="M2.7 -81.8 Q2.3 -84.6 2.7 -87.4 2.9 -89.2 4.65 -88.65 5.95 -88.25 6.45 -86.8 L7.1 -84.9 Q9.25 -86.4 11.4 -85.5 L12.15 -84.45 Q12.4 -83.4 11.55 -82.9 11.55 -82.65 12.95 -82.0 14.5 -81.3 13.95 -79.7 13.4 -78.55 12.1 -78.35 L7.15 -77.6 Q6.8 -75.95 6.05 -74.45 L6.0 -74.35 Q5.05 -72.65 3.45 -71.2 L3.1 -70.9 Q1.5 -69.6 0.15 -69.2 L0.35 -68.75 Q1.65 -66.05 2.15 -63.15 5.55 -64.2 7.1 -60.7 7.35 -60.2 7.05 -59.6 6.4 -58.4 8.3 -57.4 9.1 -56.9 9.55 -56.05 10.5 -54.45 8.65 -53.3 L5.5 -51.75 2.95 -51.7 3.0 -51.45 1.85 -51.2 6.95 -46.35 Q10.15 -43.3 12.45 -39.3 14.8 -35.25 16.45 -30.65 17.35 -28.0 16.9 -25.15 18.95 -26.5 22.4 -26.45 24.25 -26.45 25.85 -25.5 30.0 -23.15 34.65 -21.85 L44.4 -21.45 Q49.45 -22.45 52.85 -26.05 53.25 -26.5 53.7 -26.55 56.75 -23.55 54.3 -19.8 52.1 -16.5 48.0 -17.2 L43.9 -17.65 34.5 -18.8 26.1 -20.85 Q20.85 -22.3 16.4 -20.75 L16.0 -20.6 Q14.95 -17.55 12.45 -16.0 15.9 -13.15 17.35 -8.95 L17.85 -7.8 Q18.85 -5.55 17.8 -3.95 18.65 -4.05 17.95 -2.85 L16.85 -1.9 Q15.5 -1.05 14.25 -1.65 L17.15 -3.1 14.7 -7.15 Q12.05 -10.8 11.6 -15.55 10.5 -15.05 9.15 -14.8 L8.75 -14.75 Q7.3 -12.1 6.6 -9.45 5.9 -7.0 7.0 -4.9 7.3 -4.25 6.7 -4.0 L6.3 -3.85 3.95 -3.25 Q2.7 -7.45 4.6 -11.65 L5.1 -12.45 6.55 -14.5 Q3.55 -14.45 0.85 -15.45 -0.6 -15.95 -0.9 -17.3 -2.2 -22.1 -1.45 -27.05 -1.1 -29.4 -1.6 -31.6 L-2.55 -35.25 -3.65 -32.05 Q-5.05 -27.5 -5.6 -22.7 L-6.9 -13.35 -8.6 -4.0 -8.65 -3.05 Q-8.7 -1.65 -9.95 -0.95 -11.85 0.1 -14.2 0.1 -19.25 0.05 -23.05 -3.3 L-23.35 -4.25 Q-25.25 -3.45 -26.45 -3.25 -28.1 -3.0 -29.4 -3.6 -32.65 -5.2 -33.5 -8.9 L-33.7 -10.6 Q-33.75 -15.6 -32.05 -20.1 -30.8 -23.65 -28.9 -26.9 -26.65 -31.05 -23.5 -34.6 -20.3 -38.25 -16.25 -40.35 -14.9 -40.65 -12.95 -43.65 -14.4 -42.9 -16.7 -43.15 L-22.0 -44.2 -29.05 -47.3 Q-32.35 -48.8 -33.3 -53.15 -34.3 -57.55 -29.9 -60.55 L-21.45 -66.15 -21.3 -66.25 -21.3 -66.3 Q-23.45 -68.65 -21.1 -70.55 L-20.0 -71.65 Q-19.75 -71.95 -19.75 -72.45 -19.75 -75.4 -17.1 -75.25 -13.25 -75.15 -11.5 -71.8 -8.15 -74.35 -3.65 -73.2 -2.5 -72.9 -1.65 -72.1 L-0.25 -74.0 2.1 -77.85 3.2 -80.35 3.65 -81.15 4.45 -81.95 Q6.7 -81.7 7.25 -80.35 L7.35 -79.55 7.15 -77.6 M6.95 -3.35 Q6.8 -2.65 5.85 -2.35 L4.45 -1.9 3.35 -1.45 Q1.45 -0.65 0.8 -2.05 L3.95 -3.25 M3.0 -77.35 Q4.9 -76.95 5.35 -74.8 M0.15 -69.2 Q-0.8 -68.9 -0.7 -69.35 M2.15 -63.15 L2.3 -62.2 Q1.65 -62.2 0.3 -61.35 L-0.85 -59.9 -1.5 -58.9 Q-2.65 -57.05 -2.35 -54.9 -2.05 -52.95 -1.1 -52.0 -0.05 -50.95 1.85 -51.2 M2.95 -51.7 Q2.45 -51.9 1.95 -52.2 M16.9 -25.15 L16.9 -24.95 16.2 -21.3 16.0 -20.6 M12.35 -14.95 L12.4 -16.0 11.6 -15.55 M12.45 -16.05 L12.4 -16.0 12.45 -16.0 12.45 -16.05 M8.75 -14.75 L6.55 -14.5 M17.15 -3.1 L17.8 -3.95 M-20.3 -65.5 Q-19.85 -66.4 -18.6 -67.1 L-17.25 -67.65 Q-14.75 -68.2 -14.25 -65.5 L-14.25 -65.45 -14.25 -65.3 Q-13.75 -62.4 -16.85 -62.4 -18.0 -62.45 -18.0 -63.7 -18.05 -66.35 -15.95 -65.45 L-15.7 -65.15 -15.75 -64.65 -16.5 -64.0 M-18.95 -67.7 L-21.3 -66.25 M-26.35 -59.55 Q-23.4 -58.8 -20.8 -57.25 -22.25 -54.75 -24.6 -55.65 -25.4 -55.95 -25.65 -56.85 L-26.35 -59.55 M-29.25 -55.65 Q-29.0 -53.95 -27.9 -53.4 L-25.8 -53.35 -25.05 -51.85 Q-24.9 -51.4 -23.0 -51.05 -21.1 -50.7 -18.7 -51.9 M-2.2 -59.3 Q-3.25 -57.9 -5.15 -58.25 -8.05 -58.85 -8.55 -61.5 -8.9 -63.35 -7.55 -64.55 -6.35 -65.55 -5.4 -64.15 -4.3 -62.45 -6.3 -61.6 M-1.65 -72.1 Q-0.7 -71.25 -0.1 -69.8 L0.15 -69.2 M-11.5 -71.8 L-11.5 -71.75 Q-11.2 -71.2 -12.15 -71.25 L-13.5 -70.8 -18.95 -67.7 M-12.15 -71.25 L-11.5 -71.8 M-6.05 -55.95 Q-11.7 -56.45 -12.0 -62.25 -12.1 -64.15 -10.8 -65.6 -7.25 -69.25 -3.2 -65.9 -0.45 -63.7 -1.65 -60.4 L-2.2 -59.3 M-1.1 -52.0 L-1.45 -51.7 -4.3 -49.0 -8.0 -45.4 Q-6.45 -43.7 -5.4 -41.95 -3.65 -43.75 -2.05 -45.7 L-1.6 -46.25 M-19.65 -62.45 Q-21.05 -64.15 -20.3 -65.5 M-2.55 -35.25 L-0.3 -40.65 Q0.0 -41.3 -0.15 -42.0 L-0.6 -44.15 Q-0.8 -44.75 -1.2 -44.9 M-5.4 -41.95 L-7.9 -39.55 Q-10.55 -37.1 -12.6 -34.1 -14.25 -31.75 -15.5 -29.1 -17.75 -24.7 -19.5 -20.05 L-22.8 -11.55 Q-24.3 -7.75 -23.35 -4.25 M-8.0 -45.4 Q-9.15 -45.5 -10.65 -44.55 -12.1 -43.6 -12.95 -43.65 M-0.25 -74.0 Q1.3 -73.2 2.25 -72.05" fill="none" stroke="#000000" stroke-linecap="round" stroke-linejoin="round" stroke-width="0.05"/>
  </g>
</svg>
