<?xml version="1.0" encoding="UTF-8" standalone="no"?>
<svg xmlns:xlink="http://www.w3.org/1999/xlink" height="36.6px" width="37.1px" xmlns="http://www.w3.org/2000/svg">
  <g transform="matrix(1.0, 0.0, 0.0, 1.0, 18.7, 18.3)">
    <path d="M-6.3 10.95 L-7.75 15.0 -8.7 17.8 M1.25 17.45 L-1.4 10.95" fill="none" stroke="#8f7c3f" stroke-linecap="round" stroke-linejoin="round" stroke-width="1.0"/>
    <path d="M-9.4 -0.05 Q-9.85 0.55 -9.65 1.6 -9.0 1.45 -8.55 0.95 -7.95 2.6 -6.6 4.25 L-5.8 3.0 -3.15 5.2" fill="none" stroke="#8f7c3f" stroke-linecap="round" stroke-linejoin="round" stroke-width="0.75"/>
    <path d="M1.75 12.3 Q-4.2 13.8 -7.9 12.5 -11.7 11.25 -14.3 6.65 -16.9 2.1 -16.9 -2.5 -16.9 -7.15 -16.05 -10.6 -15.25 -14.1 -11.4 -16.85 L-9.4 -15.4 -7.85 -15.5 Q-6.05 -16.6 -3.9 -17.4 L-2.85 -17.15 Q0.0 -16.1 2.4 -12.75 4.75 -9.35 5.25 -6.45 5.75 -3.65 10.05 -2.35 14.15 -1.15 13.95 0.35 13.6 2.85 10.65 6.85 7.65 10.8 1.75 12.3" fill="#ffffff" fill-rule="evenodd" stroke="none"/>
    <path d="M17.75 -6.25 L18.2 -6.7 18.4 -5.45 17.75 -6.25" fill="#e2d5c0" fill-rule="evenodd" stroke="none"/>
    <path d="M-3.9 -17.4 Q-6.05 -16.6 -7.85 -15.5 L-9.4 -15.4 -11.4 -16.85 -10.75 -17.1 -7.5 -17.75 -3.75 -17.45 -3.9 -17.4 M17.9 -5.0 L17.7 -4.85 18.05 -5.15 17.9 -5.0" fill="#8f7c3f" fill-rule="evenodd" stroke="none"/>
    <path d="M-11.4 -16.85 Q-15.25 -14.1 -16.05 -10.6 -16.9 -7.15 -16.9 -2.5 -16.9 2.1 -14.3 6.65 -11.7 11.25 -7.9 12.5 -4.2 13.8 1.75 12.3 M-11.4 -16.85 L-10.75 -17.1 -7.5 -17.75 -3.75 -17.45 -3.35 -17.4 -2.9 -17.15 -2.85 -17.15" fill="none" stroke="#8f7c3f" stroke-linecap="round" stroke-linejoin="round" stroke-width="1.0"/>
    <path d="M1.75 12.3 Q7.65 10.8 10.65 6.85 13.6 2.85 13.95 0.35 14.15 -1.15 10.05 -2.35 5.75 -3.65 5.25 -6.45 4.75 -9.35 2.4 -12.75 0.0 -16.1 -2.85 -17.15" fill="none" stroke="#8f7c3f" stroke-linecap="round" stroke-linejoin="round" stroke-width="1.0"/>
    <path d="M-12.25 -5.25 L-10.9 -6.75 Q-9.9 -7.6 -9.05 -8.55 L-8.45 -8.6 -6.5 -7.25 -4.65 -5.5 -4.2 -5.0 Q-4.7 -3.55 -5.75 -2.8 -6.85 -2.05 -7.65 -1.65 -8.4 -1.2 -8.95 -1.8 L-10.45 -3.45 -12.25 -5.25 -9.85 -5.45 -7.75 -5.4 -6.05 -5.4 -4.7 -5.1 -4.35 -5.05 -4.2 -5.0 -4.35 -5.05 -4.7 -5.1 -6.05 -5.4 -7.75 -5.4 -9.85 -5.45 -12.25 -5.25" fill="#e2d5c0" fill-rule="evenodd" stroke="none"/>
    <path d="M-12.25 -5.25 L-10.9 -6.75 Q-9.9 -7.6 -9.05 -8.55 L-8.45 -8.6 -6.5 -7.25 -4.65 -5.5 -4.2 -5.0 Q-4.7 -3.55 -5.75 -2.8 -6.85 -2.05 -7.65 -1.65 -8.4 -1.2 -8.95 -1.8 L-10.45 -3.45 -12.25 -5.25 -9.85 -5.45 -7.75 -5.4 -6.05 -5.4 -4.7 -5.1 -4.35 -5.05 -4.2 -5.0" fill="none" stroke="#8f7c3f" stroke-linecap="round" stroke-linejoin="round" stroke-width="1.0"/>
    <path d="M-13.85 -10.35 L-10.25 -10.35" fill="none" stroke="#8f7c3f" stroke-linecap="round" stroke-linejoin="round" stroke-width="1.0"/>
    <path d="M-7.4 -10.3 L-2.0 -10.6" fill="none" stroke="#8f7c3f" stroke-linecap="round" stroke-linejoin="round" stroke-width="1.0"/>
    <path d="M-14.85 -6.6 L-13.35 -7.6 M-18.35 -6.15 L-15.5 -7.75 M-1.7 -7.05 L0.0 -8.25 M-0.05 -6.7 Q1.3 -7.45 2.7 -7.9" fill="none" stroke="#8f7c3f" stroke-linecap="round" stroke-linejoin="round" stroke-width="0.75"/>
    <path d="M9.15 10.7 Q4.35 9.0 1.65 4.45 -1.1 0.0 0.0 -2.35 3.0 -7.15 7.7 -2.45 12.35 2.2 12.95 7.2 13.4 10.35 11.85 11.0 L11.75 10.8 11.55 10.35 11.35 9.95 10.4 10.3 9.85 9.9 9.15 10.7 M6.6 4.9 Q7.05 7.7 9.85 9.9 7.05 7.7 6.6 4.9 M7.85 1.8 L11.35 9.95 7.85 1.8" fill="#e2d5c0" fill-rule="evenodd" stroke="none"/>
    <path d="M11.85 11.0 Q13.4 10.35 12.95 7.2 12.35 2.2 7.7 -2.45 3.0 -7.15 0.0 -2.35 -1.1 0.0 1.65 4.45 4.35 9.0 9.15 10.7 L10.8 11.1 11.85 11.0 M9.85 9.9 Q7.05 7.7 6.6 4.9 M9.85 9.9 L10.4 10.3 10.9 10.6 M11.35 9.95 L7.85 1.8 M11.75 10.8 L11.55 10.35 11.35 9.95" fill="none" stroke="#8f7c3f" stroke-linecap="round" stroke-linejoin="round" stroke-width="1.0"/>
  </g>
</svg>
