<?xml version="1.0" encoding="UTF-8" standalone="no"?>
<svg xmlns:xlink="http://www.w3.org/1999/xlink" height="19.2px" width="26.35px" xmlns="http://www.w3.org/2000/svg">
  <g transform="matrix(1.0, 0.0, 0.0, 1.0, 13.15, 9.6)">
    <path d="M-9.55 -3.45 Q-8.75 -2.25 -8.95 -0.75 L-9.35 0.2 Q-11.4 -0.35 -12.65 -1.75 -11.2 -2.8 -9.55 -3.45" fill="#e2d5c0" fill-rule="evenodd" stroke="none"/>
    <path d="M-9.35 0.2 Q-11.4 -0.35 -12.65 -1.75 -11.2 -2.8 -9.55 -3.45" fill="none" stroke="#8f7c3f" stroke-linecap="round" stroke-linejoin="round" stroke-width="1.0"/>
    <path d="M-9.55 -3.45 Q-8.75 -2.25 -8.95 -0.75 L-9.35 0.2 Z" fill="none" stroke="#8f7c3f" stroke-linecap="round" stroke-linejoin="round" stroke-width="1.0"/>
    <path d="M1.05 -5.9 Q1.8 -3.65 1.8 -1.6 L7.7 -1.25 12.7 -1.05 Q12.4 3.4 11.45 5.1 10.45 6.8 7.25 8.0 4.05 9.2 0.45 9.1 -3.2 8.95 -7.0 5.1 -9.85 0.7 -9.45 -3.05 -9.05 -6.85 -7.0 -8.2 -4.95 -9.55 -2.3 -8.85 0.3 -8.15 1.05 -5.9 M-5.3 -3.45 L-5.25 -5.35 -5.3 -3.45" fill="#fefefe" fill-rule="evenodd" stroke="none"/>
    <path d="M1.05 -5.9 Q1.8 -3.65 1.8 -1.6 L7.7 -1.25 12.7 -1.05 Q12.4 3.4 11.45 5.1 10.45 6.8 7.25 8.0 4.05 9.2 0.45 9.1 -3.2 8.95 -7.0 5.1 -9.85 0.7 -9.45 -3.05 -9.05 -6.85 -7.0 -8.2 -4.95 -9.55 -2.3 -8.85 0.3 -8.15 1.05 -5.9" fill="none" stroke="#8f7c3f" stroke-linecap="round" stroke-linejoin="round" stroke-width="1.0"/>
    <path d="M-5.25 -5.35 L-5.3 -3.45" fill="none" stroke="#8f7c3f" stroke-linecap="round" stroke-linejoin="round" stroke-width="1.5"/>
  </g>
</svg>
