<?xml version="1.0" encoding="UTF-8" standalone="no"?>
<svg xmlns:ffdec="https://www.free-decompiler.com/flash" xmlns:xlink="http://www.w3.org/1999/xlink" ffdec:objectType="shape" height="30.75px" width="97.7px" xmlns="http://www.w3.org/2000/svg">
  <g transform="matrix(1.0, 0.0, 0.0, 1.0, 51.65, 30.25)">
    <path d="M9.05 -29.85 L12.75 -29.35 Q16.9 -28.65 20.2 -26.05 L17.4 -23.6 Q16.7 -22.95 17.45 -22.35 20.05 -20.2 22.05 -17.6 21.5 -16.45 20.8 -16.15 20.0 -15.75 19.95 -15.15 19.95 -14.6 20.3 -14.2 L21.8 -12.6 Q22.75 -11.7 22.0 -10.45 L21.1 -9.2 Q19.95 -7.75 21.9 -6.3 22.85 -5.6 23.0 -4.85 22.85 -5.6 21.9 -6.3 19.95 -7.75 21.1 -9.2 L22.0 -10.45 Q22.75 -11.7 21.8 -12.6 L20.3 -14.2 Q19.95 -14.6 19.95 -15.15 20.0 -15.75 20.8 -16.15 21.5 -16.45 22.05 -17.6 20.05 -20.2 17.45 -22.35 16.7 -22.95 17.4 -23.6 L20.2 -26.05 21.55 -24.85 23.15 -22.95 Q25.1 -20.05 26.45 -16.75 L27.25 -14.65 Q28.25 -11.6 30.95 -10.8 L33.75 -10.0 Q38.95 -8.5 44.25 -9.35 40.8 -8.25 37.05 -8.35 L30.25 -7.7 29.2 -7.35 23.0 -4.85 22.1 -4.5 20.35 -3.9 15.7 -2.85 Q15.25 -3.55 14.3 -4.0 L13.4 -4.8 Q12.9 -5.7 13.7 -6.3 14.9 -7.2 14.8 -8.6 14.75 -9.8 13.55 -10.4 11.8 -11.2 10.05 -12.5 10.35 -13.35 11.3 -14.0 11.95 -14.4 12.15 -15.05 12.3 -15.35 11.9 -15.6 L8.4 -18.1 Q8.1 -18.3 8.1 -18.65 8.15 -20.3 9.6 -21.4 10.1 -21.75 10.05 -22.2 10.05 -23.15 9.1 -23.8 7.65 -24.8 6.6 -26.2 6.05 -26.9 6.9 -27.55 L9.05 -29.85 6.9 -27.55 Q6.05 -26.9 6.6 -26.2 7.65 -24.8 9.1 -23.8 10.05 -23.15 10.05 -22.2 10.1 -21.75 9.6 -21.4 8.15 -20.3 8.1 -18.65 8.1 -18.3 8.4 -18.1 L11.9 -15.6 Q12.3 -15.35 12.15 -15.05 11.95 -14.4 11.3 -14.0 10.35 -13.35 10.05 -12.5 11.8 -11.2 13.55 -10.4 14.75 -9.8 14.8 -8.6 14.9 -7.2 13.7 -6.3 12.9 -5.7 13.4 -4.8 L14.3 -4.0 Q15.25 -3.55 15.7 -2.85 L14.9 -2.7 7.45 -1.5 5.5 -1.15 3.5 -0.75 3.5 -0.8 Q5.7 -2.85 3.15 -4.35 2.05 -5.0 1.85 -5.95 1.75 -6.4 2.05 -6.7 3.7 -8.6 1.3 -9.85 0.4 -10.3 0.15 -11.75 L0.65 -12.3 Q1.7 -13.15 2.25 -14.8 L-1.6 -19.0 1.0 -22.7 Q-0.9 -23.95 -1.9 -25.95 -2.45 -27.05 -1.05 -27.3 0.5 -27.6 1.5 -28.75 0.5 -27.6 -1.05 -27.3 -2.45 -27.05 -1.9 -25.95 -0.9 -23.95 1.0 -22.7 L-1.6 -19.0 2.25 -14.8 Q1.7 -13.15 0.65 -12.3 L0.15 -11.75 Q0.4 -10.3 1.3 -9.85 3.7 -8.6 2.05 -6.7 1.75 -6.4 1.85 -5.95 2.05 -5.0 3.15 -4.35 5.7 -2.85 3.5 -0.8 L3.5 -0.75 -1.55 -0.1 -6.05 0.25 -6.35 0.3 -9.45 0.35 -16.2 -0.2 Q-16.65 -1.3 -17.8 -2.0 -16.6 -2.5 -15.35 -3.15 -14.65 -3.55 -14.8 -4.65 -15.85 -5.35 -16.35 -6.45 -16.95 -7.9 -15.15 -8.4 -14.6 -8.55 -14.15 -8.95 -13.2 -9.7 -14.15 -10.4 -15.55 -11.35 -15.65 -12.95 -15.15 -14.0 -13.9 -14.45 L-13.15 -15.05 Q-12.35 -16.35 -14.05 -17.2 -15.2 -17.75 -14.7 -18.25 -13.15 -19.65 -13.45 -22.0 -14.8 -22.35 -16.0 -22.8 L-13.0 -26.05 -16.0 -22.8 Q-14.8 -22.35 -13.45 -22.0 -13.15 -19.65 -14.7 -18.25 -15.2 -17.75 -14.05 -17.2 -12.35 -16.35 -13.15 -15.05 L-13.9 -14.45 Q-15.15 -14.0 -15.65 -12.95 -15.55 -11.35 -14.15 -10.4 -13.2 -9.7 -14.15 -8.95 -14.6 -8.55 -15.15 -8.4 -16.95 -7.9 -16.35 -6.45 -15.85 -5.35 -14.8 -4.65 -14.65 -3.55 -15.35 -3.15 -16.6 -2.5 -17.8 -2.0 -16.65 -1.3 -16.2 -0.2 L-17.1 -0.4 -21.6 -1.6 Q-25.2 -2.8 -25.65 -6.7 -26.1 -10.6 -30.4 -8.3 -34.65 -6.0 -38.3 -6.0 -36.0 -6.3 -34.2 -7.85 -32.0 -9.8 -31.4 -12.55 L-33.6 -11.6 Q-36.25 -10.5 -39.15 -10.05 L-39.3 -10.0 -39.35 -10.05 -39.35 -10.0 -42.95 -9.6 -46.55 -9.4 -49.35 -9.7 -46.55 -9.4 -42.95 -9.6 -39.35 -10.0 -39.35 -10.05 -39.3 -10.0 -39.15 -10.05 Q-36.25 -10.5 -33.6 -11.6 L-31.4 -12.55 Q-32.0 -9.8 -34.2 -7.85 -36.0 -6.3 -38.3 -6.0 L-38.45 -6.0 -38.3 -6.0 -38.4 -6.0 -38.45 -6.0 -38.6 -6.0 Q-39.8 -6.35 -40.6 -7.25 L-41.15 -7.95 Q-42.0 -9.55 -42.95 -9.6 -42.75 -8.0 -43.25 -6.85 L-43.55 -6.35 -44.25 -7.1 -43.25 -6.85 -44.25 -7.1 -46.3 -7.85 Q-48.1 -8.55 -49.35 -9.7 -50.75 -11.0 -51.5 -12.9 -51.9 -13.9 -51.25 -14.6 -49.25 -16.85 -46.6 -17.9 L-44.8 -18.35 -43.05 -18.55 -42.5 -18.65 -41.3 -18.9 -42.5 -18.65 -42.35 -18.75 -40.2 -19.6 -40.2 -19.65 Q-41.6 -22.5 -41.0 -25.3 -40.75 -26.6 -39.65 -27.4 L-38.35 -28.4 Q-36.3 -30.05 -33.6 -29.55 -32.5 -29.35 -31.75 -28.45 L-29.6 -25.95 Q-28.05 -23.95 -28.5 -21.95 -27.8 -21.1 -27.4 -19.15 -27.05 -17.2 -24.2 -19.2 -21.35 -21.2 -19.85 -21.9 -18.3 -22.65 -16.85 -23.65 L-13.0 -26.05 Q-10.2 -27.6 -7.1 -28.7 -2.45 -30.3 2.4 -30.25 L9.05 -29.85 M-6.6 -27.9 Q-7.8 -25.95 -8.3 -23.9 -6.25 -22.55 -6.35 -20.45 L-6.5 -19.5 Q-6.85 -18.25 -8.05 -17.05 -8.45 -16.65 -8.45 -16.05 -8.5 -13.65 -6.45 -12.2 -6.05 -11.95 -6.2 -11.45 -6.55 -10.0 -8.1 -9.55 -9.3 -7.95 -7.85 -7.3 -6.35 -6.6 -5.65 -5.4 -5.35 -4.9 -5.85 -4.65 L-6.65 -4.0 Q-7.5 -3.2 -8.15 -2.85 -6.6 -1.45 -6.05 0.25 -6.6 -1.45 -8.15 -2.85 -7.5 -3.2 -6.65 -4.0 L-5.85 -4.65 Q-5.35 -4.9 -5.65 -5.4 -6.35 -6.6 -7.85 -7.3 -9.3 -7.95 -8.1 -9.55 -6.55 -10.0 -6.2 -11.45 -6.05 -11.95 -6.45 -12.2 -8.5 -13.65 -8.45 -16.05 -8.45 -16.65 -8.05 -17.05 -6.85 -18.25 -6.5 -19.5 L-6.35 -20.45 Q-6.25 -22.55 -8.3 -23.9 -7.8 -25.95 -6.6 -27.9 M-40.2 -19.6 Q-38.25 -16.05 -34.05 -16.25 -38.25 -16.05 -40.2 -19.6 M-35.35 -23.05 Q-36.3 -22.5 -36.15 -21.2 L-35.95 -20.35 Q-34.55 -19.95 -33.5 -20.75 -32.6 -21.45 -32.5 -22.4 -32.45 -23.25 -33.05 -24.35 -34.6 -27.05 -37.35 -25.7 -38.05 -25.3 -38.3 -24.55 -39.05 -22.2 -37.6 -20.65 L-36.2 -19.6 -35.15 -19.05 -31.45 -18.85 -30.5 -19.25 Q-29.6 -19.65 -29.1 -20.5 L-28.5 -21.95 -29.1 -20.5 Q-29.6 -19.65 -30.5 -19.25 L-31.45 -18.85 -35.15 -19.05 -36.2 -19.6 -37.6 -20.65 Q-39.05 -22.2 -38.3 -24.55 -38.05 -25.3 -37.35 -25.7 -34.6 -27.05 -33.05 -24.35 -32.45 -23.25 -32.5 -22.4 -32.6 -21.45 -33.5 -20.75 -34.55 -19.95 -35.95 -20.35 L-36.15 -21.2 Q-36.3 -22.5 -35.35 -23.05 M-36.2 -9.7 Q-35.75 -8.25 -35.7 -6.85 -37.0 -7.65 -38.1 -8.9 -38.95 -9.85 -39.3 -10.0 L-39.35 -10.0 Q-39.3 -7.75 -38.45 -6.0 -39.3 -7.75 -39.35 -10.0 L-39.3 -10.0 Q-38.95 -9.85 -38.1 -8.9 -37.0 -7.65 -35.7 -6.85 -35.75 -8.25 -36.2 -9.7 M-44.25 -7.1 L-45.25 -9.0 -44.25 -7.1 M-42.95 -9.6 Q-42.0 -9.55 -41.15 -7.95 L-40.6 -7.25 Q-39.8 -6.35 -38.6 -6.0 L-38.45 -6.0 -38.6 -6.0 -39.3 -6.1 -43.25 -6.85 Q-42.75 -8.0 -42.95 -9.6" fill="#ffffff" fill-rule="evenodd" stroke="none"/>
    <path d="M20.2 -26.05 Q16.9 -28.65 12.75 -29.35 L9.05 -29.85 6.9 -27.55 Q6.05 -26.9 6.6 -26.2 7.65 -24.8 9.1 -23.8 10.05 -23.15 10.05 -22.2 10.1 -21.75 9.6 -21.4 8.15 -20.3 8.1 -18.65 8.1 -18.3 8.4 -18.1 L11.9 -15.6 Q12.3 -15.35 12.15 -15.05 11.95 -14.4 11.3 -14.0 10.35 -13.35 10.05 -12.5 11.8 -11.2 13.55 -10.4 14.75 -9.8 14.8 -8.6 14.9 -7.2 13.7 -6.3 12.9 -5.7 13.4 -4.8 L14.3 -4.0 Q15.25 -3.55 15.7 -2.85 L20.35 -3.9 22.1 -4.5 23.0 -4.85 Q22.85 -5.6 21.9 -6.3 19.95 -7.75 21.1 -9.2 L22.0 -10.45 Q22.75 -11.7 21.8 -12.6 L20.3 -14.2 Q19.95 -14.6 19.95 -15.15 20.0 -15.75 20.8 -16.15 21.5 -16.45 22.05 -17.6 20.05 -20.2 17.45 -22.35 16.7 -22.95 17.4 -23.6 L20.2 -26.05 21.55 -24.85 23.15 -22.95 Q25.1 -20.05 26.45 -16.75 L27.25 -14.65 Q28.25 -11.6 30.95 -10.8 L33.75 -10.0 Q38.95 -8.5 44.25 -9.35 L46.05 -9.7 M9.05 -29.85 L2.4 -30.25 Q-2.45 -30.3 -7.1 -28.7 -10.2 -27.6 -13.0 -26.05 L-16.0 -22.8 Q-14.8 -22.35 -13.45 -22.0 -13.15 -19.65 -14.7 -18.25 -15.2 -17.75 -14.05 -17.2 -12.35 -16.35 -13.15 -15.05 L-13.9 -14.45 Q-15.15 -14.0 -15.65 -12.95 -15.55 -11.35 -14.15 -10.4 -13.2 -9.7 -14.15 -8.95 -14.6 -8.55 -15.15 -8.4 -16.95 -7.9 -16.35 -6.45 -15.85 -5.35 -14.8 -4.65 -14.65 -3.55 -15.35 -3.15 -16.6 -2.5 -17.8 -2.0 -16.65 -1.3 -16.2 -0.2 L-9.45 0.35 -6.35 0.3 -6.05 0.25 Q-6.6 -1.45 -8.15 -2.85 -7.5 -3.2 -6.65 -4.0 L-5.85 -4.65 Q-5.35 -4.9 -5.65 -5.4 -6.35 -6.6 -7.85 -7.3 -9.3 -7.95 -8.1 -9.55 -6.55 -10.0 -6.2 -11.45 -6.05 -11.95 -6.45 -12.2 -8.5 -13.65 -8.45 -16.05 -8.45 -16.65 -8.05 -17.05 -6.85 -18.25 -6.5 -19.5 L-6.35 -20.45 Q-6.25 -22.55 -8.3 -23.9 -7.8 -25.95 -6.6 -27.9 M1.5 -28.75 Q0.5 -27.6 -1.05 -27.3 -2.45 -27.05 -1.9 -25.95 -0.9 -23.95 1.0 -22.7 L-1.6 -19.0 2.25 -14.8 Q1.7 -13.15 0.65 -12.3 L0.15 -11.75 Q0.4 -10.3 1.3 -9.85 3.7 -8.6 2.05 -6.7 1.75 -6.4 1.85 -5.95 2.05 -5.0 3.15 -4.35 5.7 -2.85 3.5 -0.8 L3.5 -0.75 5.5 -1.15 7.45 -1.5 14.9 -2.7 15.7 -2.85 M23.0 -4.85 L29.2 -7.35 30.25 -7.7 37.05 -8.35 Q40.8 -8.25 44.25 -9.35 M-42.5 -18.65 L-43.05 -18.55 -44.8 -18.35 -46.6 -17.9 Q-49.25 -16.85 -51.25 -14.6 -51.9 -13.9 -51.5 -12.9 -50.75 -11.0 -49.35 -9.7 L-46.55 -9.4 -42.95 -9.6 -39.35 -10.0 -39.35 -10.05 -39.3 -10.0 -39.15 -10.05 Q-36.25 -10.5 -33.6 -11.6 L-31.4 -12.55 Q-32.0 -9.8 -34.2 -7.85 -36.0 -6.3 -38.3 -6.0 -34.65 -6.0 -30.4 -8.3 -26.1 -10.6 -25.65 -6.7 -25.2 -2.8 -21.6 -1.6 L-17.1 -0.4 -16.2 -0.2 Q-15.95 0.4 -16.7 0.5 M-41.3 -18.9 L-42.5 -18.65 -42.35 -18.75 -40.2 -19.6 -40.2 -19.65 Q-41.6 -22.5 -41.0 -25.3 -40.75 -26.6 -39.65 -27.4 L-38.35 -28.4 Q-36.3 -30.05 -33.6 -29.55 -32.5 -29.35 -31.75 -28.45 L-29.6 -25.95 Q-28.05 -23.95 -28.5 -21.95 -27.8 -21.1 -27.4 -19.15 -27.05 -17.2 -24.2 -19.2 -21.35 -21.2 -19.85 -21.9 -18.3 -22.65 -16.85 -23.65 L-13.0 -26.05 M-44.25 -7.1 L-43.55 -6.35 -43.25 -6.85 -44.25 -7.1 -46.3 -7.85 Q-48.1 -8.55 -49.35 -9.7 L-50.95 -10.35 M-45.25 -9.0 L-44.25 -7.1 M-42.95 -9.6 Q-42.0 -9.55 -41.15 -7.95 L-40.6 -7.25 Q-39.8 -6.35 -38.6 -6.0 L-38.45 -6.0 Q-39.3 -7.75 -39.35 -10.0 L-39.3 -10.0 Q-38.95 -9.85 -38.1 -8.9 -37.0 -7.65 -35.7 -6.85 -35.75 -8.25 -36.2 -9.7 M-43.25 -6.85 Q-42.75 -8.0 -42.95 -9.6 M-28.5 -21.95 L-29.1 -20.5 Q-29.6 -19.65 -30.5 -19.25 L-31.45 -18.85 -35.15 -19.05 -36.2 -19.6 -37.6 -20.65 Q-39.05 -22.2 -38.3 -24.55 -38.05 -25.3 -37.35 -25.7 -34.6 -27.05 -33.05 -24.35 -32.45 -23.25 -32.5 -22.4 -32.6 -21.45 -33.5 -20.75 -34.55 -19.95 -35.95 -20.35 L-36.15 -21.2 Q-36.3 -22.5 -35.35 -23.05 M-34.05 -16.25 Q-38.25 -16.05 -40.2 -19.6 M-38.6 -6.0 L-38.45 -6.0 -38.3 -6.0 -38.4 -6.0 -38.45 -6.0 M-43.25 -6.85 L-39.3 -6.1 -38.6 -6.0 M-6.05 0.25 L-6.05 0.3 Q-6.05 0.65 -6.35 0.3 M-6.05 0.25 L-1.55 -0.1 3.5 -0.75" fill="none" stroke="#000000" stroke-linecap="round" stroke-linejoin="round" stroke-width="0.05"/>
  </g>
</svg>
