<svg xmlns:xlink="http://www.w3.org/1999/xlink" height="48.4px" width="76.0px" xmlns="http://www.w3.org/2000/svg">
  <g transform="matrix(1.0, 0.0, 0.0, 1.0, 36.85, 47.65)">
    <path d="M26.4 -44.55 L26.55 -44.75 38.5 -34.8 38.4 -34.6 37.9 -34.05 25.95 -44.0 26.4 -44.55 M38.65 -30.45 L39.15 -30.45 39.15 -16.55 38.95 -16.55 38.05 -16.55 38.05 -30.45 38.65 -30.45 M39.15 -14.45 L39.15 -0.55 38.5 -0.55 38.05 -0.55 38.05 -14.45 39.15 -14.45 M36.9 0.15 L36.9 0.75 23.9 0.75 23.9 0.15 36.9 0.15 M-4.7 0.15 L-4.7 0.75 -5.05 0.75 -5.05 0.15 -4.7 0.15 M-5.1 0.15 L-5.1 0.75 -19.05 0.75 -19.05 0.15 -5.1 0.15 M-20.35 -0.55 L-21.1 -0.55 -21.1 -0.8 -21.1 -14.45 -20.0 -14.45 -20.0 -0.55 -20.35 -0.55 M-23.25 -2.35 L-23.5 -2.05 -35.45 -12.0 -35.4 -12.05 -35.05 -12.5 -34.85 -12.75 -22.9 -2.8 -23.25 -2.35 M-35.75 -16.9 L-36.85 -16.9 -36.85 -30.8 -35.9 -30.8 -35.75 -30.8 -35.75 -16.9 M-35.9 -32.65 L-36.85 -32.65 -36.85 -46.55 -36.0 -46.55 -35.75 -46.55 -35.75 -32.65 -35.9 -32.65 M-35.75 -47.05 L-35.75 -47.65 23.35 -47.65 23.35 -47.05 -35.75 -47.05 M-20.15 -30.45 L-20.15 -16.55 -21.25 -16.55 -21.25 -30.45 -20.15 -30.45 M-35.25 -44.0 L-34.65 -44.75 -22.7 -34.8 -23.3 -34.05 -35.25 -44.0 M5.8 -9.5 L5.8 -7.7 -2.45 -7.7 -2.45 -9.5 5.8 -9.5 M5.8 -5.25 L5.8 -3.5 -2.45 -3.5 -2.45 -5.25 5.8 -5.25 M12.55 -7.7 L12.55 -9.5 20.8 -9.5 20.8 -7.7 12.55 -7.7 M12.55 -3.5 L12.55 -5.25 20.8 -5.25 20.8 -3.5 12.55 -3.5 M36.95 -30.5 L36.95 -29.9 -19.0 -29.9 -19.0 -30.5 36.95 -30.5" fill="#000000" fill-rule="evenodd" stroke="none"/>
    <path d="M23.35 -47.05 L23.5 -47.2 26.4 -44.55 25.95 -44.0 37.9 -34.05 38.4 -34.6 38.65 -34.4 38.65 -30.45 38.05 -30.45 38.05 -16.55 38.95 -16.55 38.95 -16.5 39.15 -14.45 38.05 -14.45 38.05 -0.55 38.5 -0.55 36.95 0.25 36.9 0.15 23.9 0.15 -4.7 0.15 -5.05 0.15 -5.1 0.15 -19.05 0.15 -19.1 0.25 -20.35 -0.55 -20.0 -0.55 -20.0 -14.45 -21.1 -14.45 -21.1 -0.8 -23.05 -2.2 -23.25 -2.35 -22.9 -2.8 -34.85 -12.75 -35.05 -12.5 -35.75 -13.05 -35.75 -16.9 -35.75 -30.8 -35.9 -30.8 -35.9 -32.65 -35.75 -32.65 -35.75 -46.55 -36.0 -46.55 -35.8 -47.05 -35.75 -47.05 23.35 -47.05 M36.95 -30.5 L-19.0 -30.5 -19.0 -29.9 36.95 -29.9 36.95 -30.5 M12.55 -3.5 L20.8 -3.5 20.8 -5.25 12.55 -5.25 12.55 -3.5 M12.55 -7.7 L20.8 -7.7 20.8 -9.5 12.55 -9.5 12.55 -7.7 M5.8 -5.25 L-2.45 -5.25 -2.45 -3.5 5.8 -3.5 5.8 -5.25 M5.8 -9.5 L-2.45 -9.5 -2.45 -7.7 5.8 -7.7 5.8 -9.5 M-35.25 -44.0 L-23.3 -34.05 -22.7 -34.8 -34.65 -44.75 -35.25 -44.0 M-20.15 -30.45 L-21.25 -30.45 -21.25 -16.55 -20.15 -16.55 -20.15 -30.45" fill="#ffffff" fill-rule="evenodd" stroke="none"/>
  </g>
</svg>
