<?xml version="1.0" encoding="UTF-8" standalone="no"?>
<svg xmlns:ffdec="https://www.free-decompiler.com/flash" xmlns:xlink="http://www.w3.org/1999/xlink" ffdec:objectType="shape" height="121.35px" width="121.1px" xmlns="http://www.w3.org/2000/svg">
  <g transform="matrix(1.0, 0.0, 0.0, 1.0, 71.3, 121.2)">
    <path d="M-8.9 -102.8 Q-8.85 -104.55 -8.1 -106.05 L-7.85 -106.9 Q-7.0 -109.8 -4.85 -111.85 -0.5 -116.05 5.1 -117.75 L6.1 -118.1 Q9.75 -119.35 13.7 -119.15 13.2 -120.9 14.45 -121.15 15.0 -121.3 15.2 -120.9 15.75 -119.95 15.8 -118.95 19.8 -118.5 23.6 -117.2 25.7 -116.5 27.75 -115.5 31.6 -113.75 34.3 -110.6 L36.15 -108.6 Q38.3 -106.25 39.15 -103.5 L37.7 -103.5 35.1 -103.35 Q31.1 -102.85 27.15 -101.1 L27.25 -101.75 27.0 -101.25 25.85 -101.75 16.95 -102.0 16.55 -93.3 16.5 -92.45 15.9 -84.7 Q17.4 -85.7 19.05 -86.45 L25.65 -86.65 Q30.1 -85.8 31.9 -81.6 32.6 -79.9 31.35 -78.8 L31.3 -78.8 30.55 -78.3 Q31.45 -78.15 31.9 -77.55 L38.2 -74.5 Q41.95 -72.35 44.9 -69.0 47.0 -69.1 48.3 -67.55 L48.85 -66.7 Q50.0 -64.75 49.75 -62.4 49.6 -60.8 48.3 -59.95 47.5 -59.45 46.7 -59.3 46.0 -59.2 45.95 -59.6 L45.15 -60.35 Q42.7 -57.85 40.35 -54.65 37.25 -50.45 35.4 -46.1 35.15 -44.95 34.3 -44.45 32.9 -43.7 31.35 -43.6 L31.2 -43.6 31.55 -42.35 30.55 -41.7 Q31.3 -36.45 29.7 -32.95 L21.6 -31.9 21.6 -31.2 22.1 -29.25 24.15 -28.6 Q23.95 -27.75 23.2 -27.5 L23.05 -27.45 Q22.8 -25.3 21.75 -23.05 L15.8 -11.15 16.05 -10.3 Q18.3 -7.85 18.9 -5.05 20.0 -4.3 21.75 -4.1 22.15 -4.1 22.25 -3.4 22.55 -0.5 20.35 -0.45 L16.65 -0.4 5.85 0.15 Q5.15 -0.75 5.1 -2.5 5.05 -3.45 6.0 -3.45 11.2 -3.6 16.35 -3.35 L16.95 -3.9 15.8 -5.55 Q14.5 -7.75 12.45 -8.6 L10.95 -8.85 Q10.25 -10.15 10.4 -12.4 L12.1 -17.25 9.15 -16.55 9.1 -16.55 7.1 -16.2 Q5.45 -16.85 3.3 -16.9 L2.95 -16.9 2.75 -16.9 2.45 -16.9 2.0 -16.85 1.4 -16.85 Q1.15 -16.65 0.7 -17.05 L0.1 -17.75 Q-2.15 -19.8 -2.85 -22.45 -1.0 -22.95 0.55 -23.9 3.15 -25.6 2.5 -28.15 L2.3 -28.9 1.6 -28.7 1.7 -29.35 1.5 -31.55 1.3 -32.9 1.5 -31.55 1.6 -31.6 2.3 -28.9 3.7 -29.15 3.75 -29.15 4.4 -29.25 Q7.15 -29.6 9.5 -30.85 11.9 -32.15 13.95 -34.35 14.15 -36.45 10.95 -35.7 L1.6 -31.6 1.3 -32.9 1.3 -33.0 1.25 -33.15 0.8 -35.55 -0.35 -40.95 Q5.0 -42.4 9.6 -44.65 11.65 -45.65 11.2 -48.05 L10.95 -49.35 9.5 -49.15 8.7 -48.85 Q4.45 -47.0 -0.15 -45.65 0.2 -47.05 -0.3 -48.25 0.2 -47.05 -0.15 -45.65 4.45 -47.0 8.7 -48.85 L9.5 -49.15 10.95 -49.35 11.2 -48.05 Q11.65 -45.65 9.6 -44.65 5.0 -42.4 -0.35 -40.95 L0.8 -35.55 1.25 -33.15 1.3 -33.0 1.3 -32.9 1.6 -31.6 10.95 -35.7 Q14.15 -36.45 13.95 -34.35 11.9 -32.15 9.5 -30.85 11.45 -30.9 13.25 -31.55 L14.95 -32.4 15.15 -34.25 Q15.4 -37.6 15.0 -41.1 14.45 -46.3 13.2 -51.3 12.7 -53.35 11.6 -54.8 9.85 -57.0 6.65 -57.85 9.85 -57.0 11.6 -54.8 13.55 -55.8 16.15 -58.1 20.1 -61.7 23.4 -66.4 20.1 -61.7 16.15 -58.1 13.55 -55.8 11.6 -54.8 12.7 -53.35 13.2 -51.3 14.45 -46.3 15.0 -41.1 15.4 -37.6 15.15 -34.25 L14.95 -32.4 13.25 -31.55 Q11.45 -30.9 9.5 -30.85 7.15 -29.6 4.4 -29.25 L3.75 -29.15 3.7 -29.15 2.3 -28.9 1.6 -31.6 1.5 -31.55 1.7 -29.35 1.6 -28.7 2.3 -28.9 2.5 -28.15 Q3.15 -25.6 0.55 -23.9 -1.0 -22.95 -2.85 -22.45 -2.15 -19.8 0.1 -17.75 L0.7 -17.05 Q1.15 -16.65 1.4 -16.85 L2.0 -16.85 2.45 -16.9 2.75 -16.9 2.95 -16.9 2.95 -16.65 2.75 -16.5 2.45 -16.25 2.0 -15.95 Q0.0 -14.6 -2.1 -13.85 L-3.2 -13.5 -1.75 -11.6 -0.15 -9.7 Q0.5 -8.75 1.35 -8.3 1.55 -8.15 1.85 -8.05 2.65 -7.75 2.85 -7.0 3.25 -4.65 1.45 -4.35 L-8.65 -3.85 -10.85 -4.1 Q-11.85 -4.35 -11.75 -6.15 -9.35 -6.95 -6.4 -7.0 L-3.6 -7.05 Q-2.1 -7.2 -2.4 -8.2 L-2.5 -8.4 Q-4.15 -11.95 -7.25 -14.85 -7.15 -16.2 -6.7 -17.15 L-6.35 -17.7 -3.65 -22.1 Q-6.95 -20.75 -10.95 -20.55 L-12.4 -20.5 -13.45 -20.5 -13.3 -19.35 Q-13.15 -18.65 -13.35 -17.85 -13.55 -16.95 -15.15 -17.05 L-25.6 -17.65 Q-26.25 -17.7 -26.4 -18.15 -26.9 -20.0 -26.75 -21.8 L-27.8 -22.1 Q-31.35 -23.1 -34.3 -25.2 -35.25 -25.9 -35.4 -27.05 L-35.5 -28.1 Q-36.1 -31.45 -34.1 -33.35 L-33.45 -33.1 -33.65 -33.55 Q-35.15 -37.2 -33.95 -40.55 -31.55 -40.75 -30.5 -39.05 L-29.25 -42.75 Q-28.05 -45.5 -26.5 -47.4 L-24.1 -50.6 Q-24.6 -51.1 -25.25 -50.9 L-25.65 -51.15 Q-27.65 -48.55 -31.1 -49.75 -31.6 -49.9 -32.0 -50.3 -33.8 -52.3 -33.45 -54.2 L-34.95 -64.15 Q-35.8 -69.15 -37.8 -73.7 L-39.25 -76.25 -40.35 -76.35 Q-42.05 -76.6 -43.0 -77.55 -43.75 -76.4 -45.25 -75.0 L-45.95 -74.1 Q-46.8 -72.8 -48.4 -72.1 -52.75 -70.25 -55.95 -70.65 -59.15 -71.1 -62.75 -72.55 -66.35 -74.0 -69.7 -78.7 -59.3 -78.4 -54.8 -78.6 L-44.05 -79.3 -44.4 -81.0 Q-44.5 -82.45 -44.15 -83.55 L-44.95 -83.8 -55.65 -83.9 Q-61.1 -83.8 -71.3 -85.35 -65.5 -90.95 -60.6 -93.8 -56.65 -96.1 -52.5 -93.8 -46.7 -92.0 -44.2 -87.55 L-43.05 -85.35 Q-42.4 -85.95 -41.5 -86.25 -38.4 -87.45 -37.5 -85.6 -37.85 -84.75 -37.1 -84.05 -35.05 -82.3 -36.65 -79.65 L-35.95 -78.45 -35.25 -77.0 Q-33.3 -72.15 -31.0 -67.4 -28.75 -62.7 -27.3 -58.15 -26.25 -57.85 -25.5 -56.85 -25.15 -56.35 -24.7 -56.55 L-18.25 -56.1 -16.55 -56.95 Q-14.05 -58.05 -11.25 -57.85 L-11.15 -58.35 -11.2 -58.35 -17.3 -59.05 Q-19.15 -59.45 -20.3 -60.55 -21.45 -61.55 -22.0 -62.95 L-23.6 -67.6 -23.7 -68.25 Q-23.6 -69.25 -23.85 -69.8 -24.35 -69.2 -25.25 -69.3 L-26.15 -69.6 Q-28.85 -70.8 -28.05 -74.2 L-30.35 -74.75 Q-32.5 -74.85 -31.5 -76.85 L-28.15 -77.45 -25.35 -77.65 Q-22.4 -77.65 -21.2 -75.2 L-21.1 -75.0 -21.1 -74.95 Q-20.7 -74.0 -20.45 -72.7 -19.85 -69.65 -18.55 -66.45 L-18.0 -64.9 Q-17.6 -63.75 -16.05 -63.2 L-13.15 -62.9 Q-11.95 -63.2 -8.8 -64.95 -8.1 -66.4 -8.3 -68.6 -10.4 -67.7 -12.65 -67.8 L-14.15 -67.9 Q-15.9 -68.85 -17.15 -70.55 -17.8 -71.3 -17.55 -71.55 L-18.25 -72.0 -19.75 -75.35 Q-20.35 -77.05 -20.55 -78.8 -21.0 -82.0 -20.3 -85.4 -19.9 -87.35 -18.4 -88.8 -14.9 -92.15 -10.5 -93.65 L-8.6 -93.9 Q-4.95 -93.7 -1.5 -92.4 -0.15 -91.9 0.85 -90.75 2.35 -89.1 3.2 -87.05 L3.45 -85.5 Q3.05 -79.5 -0.65 -75.15 L0.25 -74.7 3.35 -75.3 9.5 -75.0 10.7 -74.7 13.85 -74.45 Q16.95 -75.75 19.9 -73.95 L20.55 -73.5 21.7 -72.45 Q22.65 -71.3 23.0 -69.8 L23.35 -67.05 23.4 -66.4 23.75 -66.7 Q26.55 -64.45 27.65 -61.85 29.15 -61.95 30.2 -61.35 L28.9 -60.15 29.4 -59.6 Q29.2 -57.8 29.85 -56.5 L29.9 -56.35 30.9 -56.85 Q34.5 -60.6 38.3 -63.05 40.5 -64.55 42.4 -65.1 42.35 -66.3 42.8 -67.4 L35.7 -71.0 34.6 -71.45 Q32.25 -72.2 30.4 -73.4 32.45 -73.9 32.45 -75.7 32.4 -76.9 31.9 -77.55 32.4 -76.9 32.45 -75.7 32.45 -73.9 30.4 -73.4 L29.5 -74.05 29.05 -73.85 27.9 -73.45 22.9 -73.65 Q21.55 -74.1 20.4 -74.7 L20.35 -74.7 Q16.85 -76.6 15.05 -80.15 L14.75 -80.95 14.65 -81.25 Q11.85 -81.05 10.4 -82.4 L9.8 -83.1 Q9.1 -84.6 9.8 -85.85 11.35 -81.5 14.05 -83.85 L13.9 -84.45 14.65 -84.05 15.3 -83.7 15.3 -83.6 15.45 -83.6 20.85 -80.4 Q24.15 -78.4 27.6 -76.75 27.7 -77.65 28.75 -78.15 L29.85 -78.75 Q26.45 -79.4 23.35 -80.95 19.65 -82.85 15.45 -83.6 L15.05 -84.2 14.95 -84.1 Q15.2 -88.15 15.05 -92.55 L14.3 -100.0 14.1 -101.6 14.0 -102.55 11.8 -102.9 Q7.7 -103.6 3.9 -101.85 3.45 -101.6 3.0 -101.65 L2.9 -101.65 Q1.55 -101.85 0.3 -102.45 -3.7 -104.45 -7.5 -102.55 L-8.9 -102.8 M13.7 -119.15 L15.8 -118.95 14.15 -119.1 13.7 -119.15 M27.25 -101.75 Q27.35 -103.5 26.9 -104.65 25.4 -108.8 22.9 -113.1 22.05 -114.85 20.55 -115.65 22.05 -114.85 22.9 -113.1 25.4 -108.8 26.9 -104.65 27.35 -103.5 27.25 -101.75 M15.1 -105.65 L15.15 -106.6 Q15.45 -111.25 14.15 -114.95 15.45 -111.25 15.15 -106.6 L15.1 -105.65 M16.95 -102.0 L14.0 -102.55 16.95 -102.0 M8.1 -115.2 Q5.7 -113.2 4.2 -110.35 2.25 -106.6 2.9 -101.75 L2.9 -101.65 2.9 -101.75 Q2.25 -106.6 4.2 -110.35 5.7 -113.2 8.1 -115.2 M42.4 -65.1 Q42.45 -63.9 42.95 -62.65 43.25 -61.9 44.0 -61.55 L45.65 -60.85 45.15 -60.35 45.65 -60.85 44.0 -61.55 Q43.25 -61.9 42.95 -62.65 42.45 -63.9 42.4 -65.1 M44.9 -69.0 L44.15 -68.9 43.4 -68.7 42.8 -67.4 43.4 -68.7 44.15 -68.9 44.9 -69.0 M14.65 -81.25 L14.05 -83.85 14.65 -84.05 14.05 -83.85 14.65 -81.25 M27.6 -76.75 Q27.5 -76.25 27.7 -75.65 28.1 -74.4 29.05 -73.85 28.1 -74.4 27.7 -75.65 27.5 -76.25 27.6 -76.75 M31.35 -78.8 L29.85 -78.75 31.35 -78.8 M15.9 -84.7 L15.05 -84.2 15.9 -84.7 M13.85 -74.45 Q13.15 -74.15 12.4 -73.65 L11.85 -73.05 Q10.6 -70.7 9.6 -68.15 L5.8 -58.15 9.6 -68.15 Q10.6 -70.7 11.85 -73.05 L12.4 -73.65 Q13.15 -74.15 13.85 -74.45 M9.5 -75.0 Q8.35 -72.6 6.35 -70.85 L2.65 -70.65 3.35 -75.3 2.65 -70.65 6.35 -70.85 Q8.35 -72.6 9.5 -75.0 M6.65 -57.85 L5.8 -58.15 5.8 -58.1 6.65 -57.85 M-0.35 -48.4 Q0.8 -49.05 1.3 -50.05 1.65 -50.8 1.6 -51.65 1.35 -55.05 0.3 -58.25 L0.15 -58.55 Q-0.9 -61.6 -3.2 -63.95 L-3.8 -64.65 Q-2.65 -65.7 -2.4 -67.35 L-2.2 -68.15 Q-1.5 -70.65 0.05 -72.75 1.0 -74.05 0.25 -74.7 1.0 -74.05 0.05 -72.75 -1.5 -70.65 -2.2 -68.15 L-2.4 -67.35 Q-2.65 -65.7 -3.8 -64.65 L-3.2 -63.95 Q-0.9 -61.6 0.15 -58.55 L0.3 -58.25 Q1.35 -55.05 1.6 -51.65 1.65 -50.8 1.3 -50.05 0.8 -49.05 -0.35 -48.4 L-0.9 -48.15 -1.85 -47.75 -2.3 -49.0 -3.2 -51.35 -3.2 -51.4 Q-4.2 -56.45 -9.35 -57.55 L-11.25 -57.85 -9.35 -57.55 Q-4.2 -56.45 -3.2 -51.4 -2.7 -51.8 -2.65 -52.75 -2.45 -55.45 -2.9 -57.95 L-3.0 -58.6 -2.9 -57.95 Q-2.45 -55.45 -2.65 -52.75 -2.7 -51.8 -3.2 -51.4 L-3.2 -51.35 -2.3 -49.0 -1.85 -47.75 -0.9 -48.15 -0.3 -48.25 -0.35 -48.4 M5.8 -58.1 L5.5 -58.3 Q3.4 -59.45 1.4 -59.1 3.4 -59.45 5.5 -58.3 L5.8 -58.1 M31.2 -43.6 Q26.55 -43.5 25.7 -47.85 25.15 -50.4 25.85 -52.4 26.5 -54.45 28.4 -55.9 29.45 -56.7 29.9 -56.35 27.95 -54.8 28.25 -52.35 28.8 -47.8 33.2 -46.7 L35.4 -46.1 33.2 -46.7 Q28.8 -47.8 28.25 -52.35 27.95 -54.8 29.9 -56.35 29.45 -56.7 28.4 -55.9 26.5 -54.45 25.85 -52.4 25.15 -50.4 25.7 -47.85 26.55 -43.5 31.2 -43.6 M27.65 -61.85 L26.45 -61.65 25.7 -61.4 Q22.05 -59.4 20.6 -55.05 22.05 -59.4 25.7 -61.4 L26.45 -61.65 27.65 -61.85 M28.9 -60.15 L28.85 -60.15 28.8 -60.1 Q26.7 -58.0 25.3 -55.05 L24.45 -52.9 24.45 -52.75 Q22.55 -46.75 23.85 -40.75 22.55 -46.75 24.45 -52.75 L24.45 -52.9 25.3 -55.05 Q26.7 -58.0 28.8 -60.1 L28.85 -60.15 28.9 -60.15 M20.6 -55.05 L19.95 -54.35 Q20.35 -54.1 20.6 -55.05 M23.15 -40.6 Q20.25 -41.5 19.25 -44.65 17.7 -49.6 19.95 -54.35 17.7 -49.6 19.25 -44.65 20.25 -41.5 23.15 -40.6 L23.95 -40.35 23.85 -40.75 23.15 -40.6 M30.55 -41.7 Q27.8 -40.2 23.95 -40.35 27.8 -40.2 30.55 -41.7 M12.7 -19.3 L12.1 -17.25 13.0 -17.1 12.1 -17.25 12.7 -19.3 12.05 -20.05 Q11.5 -21.5 11.4 -23.1 11.2 -26.75 14.4 -27.6 13.6 -28.4 15.1 -28.65 L17.35 -29.05 18.4 -29.25 Q20.35 -29.6 22.1 -29.25 20.35 -29.6 18.4 -29.25 L17.35 -29.05 15.1 -28.65 Q13.6 -28.4 14.4 -27.6 11.2 -26.75 11.4 -23.1 11.5 -21.5 12.05 -20.05 L12.7 -19.3 Q13.65 -23.8 18.05 -26.4 18.95 -26.95 19.95 -26.95 L23.05 -27.45 19.95 -26.95 Q18.95 -26.95 18.05 -26.4 13.65 -23.8 12.7 -19.3 M21.6 -31.9 L19.15 -31.85 15.9 -31.5 13.25 -31.55 15.9 -31.5 19.15 -31.85 21.6 -31.9 M-15.0 -71.85 Q-13.05 -71.8 -12.45 -72.25 L-12.7 -72.85 -13.8 -73.95 -15.35 -73.75 -13.8 -73.95 -12.7 -72.85 -12.45 -72.25 Q-13.05 -71.8 -15.0 -71.85 M-6.3 -70.0 L-2.55 -73.25 -0.65 -75.15 -2.55 -73.25 -6.3 -70.0 Q-5.7 -66.95 -3.8 -64.65 -5.7 -66.95 -6.3 -70.0 L-7.25 -69.15 -8.3 -68.6 -7.25 -69.15 -6.3 -70.0 M-11.15 -58.35 L-11.1 -58.65 -10.3 -61.65 -10.2 -61.95 -10.0 -62.4 -9.45 -63.95 -8.8 -64.95 -9.45 -63.95 -10.0 -62.4 -10.2 -61.95 -10.3 -61.65 -11.1 -58.65 -11.15 -58.35 M-18.25 -56.1 L-19.2 -55.4 Q-22.55 -52.95 -23.75 -51.15 L-24.1 -50.6 -23.75 -51.15 Q-22.55 -52.95 -19.2 -55.4 L-18.25 -56.1 M-21.35 -50.7 L-22.15 -49.95 -23.65 -47.55 Q-24.7 -45.7 -24.8 -43.7 L-24.85 -42.45 Q-24.8 -43.1 -24.15 -40.9 -23.65 -39.15 -22.9 -38.1 L-22.4 -37.5 Q-20.05 -39.55 -17.8 -42.55 L-16.9 -45.15 -15.0 -50.6 -20.55 -47.8 -20.65 -50.9 -20.55 -47.8 -15.0 -50.6 -16.9 -45.15 -17.8 -42.55 Q-20.05 -39.55 -22.4 -37.5 L-22.9 -38.1 Q-23.65 -39.15 -24.15 -40.9 -24.8 -43.1 -24.85 -42.45 L-24.8 -43.7 Q-24.7 -45.7 -23.65 -47.55 L-22.15 -49.95 -21.35 -50.7 M-25.65 -51.15 L-25.4 -51.55 Q-23.6 -54.25 -24.7 -56.55 -23.6 -54.25 -25.4 -51.55 L-25.65 -51.15 M-27.3 -58.15 L-30.35 -57.9 Q-31.45 -57.5 -32.2 -56.65 -33.3 -55.45 -33.45 -54.2 -33.3 -55.45 -32.2 -56.65 -31.45 -57.5 -30.35 -57.9 L-27.3 -58.15 M-40.35 -76.35 Q-39.2 -76.7 -37.85 -77.8 -36.95 -78.65 -36.65 -79.6 L-36.65 -79.65 -36.65 -79.6 Q-36.95 -78.65 -37.85 -77.8 -39.2 -76.7 -40.35 -76.35 M-19.85 -78.85 Q-19.15 -78.25 -18.05 -77.9 -17.5 -78.05 -16.95 -78.45 L-16.65 -81.7 Q-17.05 -82.95 -17.9 -83.4 L-19.2 -84.15 -17.9 -83.4 Q-17.05 -82.95 -16.65 -81.7 L-16.95 -78.45 Q-17.5 -78.05 -18.05 -77.9 -19.15 -78.25 -19.85 -78.85 M-12.85 -80.85 Q-13.6 -81.65 -11.05 -84.65 L-6.15 -84.15 -4.85 -82.85 Q-4.35 -80.6 -5.85 -79.2 L-6.15 -78.95 Q-9.25 -75.4 -12.4 -79.15 -9.25 -75.4 -6.15 -78.95 L-5.85 -79.2 Q-4.35 -80.6 -4.85 -82.85 L-6.15 -84.15 -11.05 -84.65 Q-13.6 -81.65 -12.85 -80.85 M15.8 -11.15 L12.7 -11.25 Q11.1 -11.65 10.4 -12.4 11.1 -11.65 12.7 -11.25 L15.8 -11.15 M16.95 -3.9 Q19.2 -3.35 19.0 -4.7 L18.9 -5.05 19.0 -4.7 Q19.2 -3.35 16.95 -3.9 M16.05 -10.3 Q16.15 -9.15 15.25 -8.5 L12.45 -8.6 15.25 -8.5 Q16.15 -9.15 16.05 -10.3 M8.9 -17.6 L7.75 -18.35 7.0 -19.2 Q3.35 -22.95 3.9 -28.1 3.35 -22.95 7.0 -19.2 L7.75 -18.35 8.9 -17.6 M-43.05 -85.35 Q-43.8 -84.65 -44.15 -83.55 -43.8 -84.65 -43.05 -85.35 M-44.05 -79.3 Q-43.75 -78.25 -43.0 -77.55 -43.75 -78.25 -44.05 -79.3 M-32.55 -32.75 L-33.45 -33.1 -32.55 -32.75 -30.9 -32.25 -30.9 -32.3 -30.95 -33.2 -32.55 -32.75 M-22.9 -38.1 Q-22.25 -39.8 -22.65 -40.0 -23.1 -40.2 -22.8 -42.05 -22.45 -43.95 -20.55 -47.8 -22.45 -43.95 -22.8 -42.05 -23.1 -40.2 -22.65 -40.0 -22.25 -39.8 -22.9 -38.1 M-9.5 -26.9 Q-8.95 -24.7 -7.85 -22.8 -4.55 -23.9 -1.35 -24.1 -1.05 -26.65 -1.35 -28.85 -4.6 -27.75 -8.15 -27.3 L-9.5 -26.9 -9.85 -28.6 -9.5 -26.9 -8.15 -27.3 Q-4.6 -27.75 -1.35 -28.85 -1.05 -26.65 -1.35 -24.1 -4.55 -23.9 -7.85 -22.8 -8.95 -24.7 -9.5 -26.9 M-6.9 -32.95 L-7.05 -32.95 -6.95 -32.95 -6.9 -32.95 -5.8 -34.3 Q-3.5 -36.65 -4.55 -39.85 L-5.05 -40.65 Q-7.55 -43.0 -10.8 -41.5 -12.9 -40.55 -12.7 -38.35 -12.25 -33.85 -8.15 -32.75 L-9.45 -32.5 -15.85 -31.8 -24.6 -31.55 -30.9 -32.25 -24.6 -31.55 -15.85 -31.8 -9.45 -32.5 -8.15 -32.75 Q-12.25 -33.85 -12.7 -38.35 -12.9 -40.55 -10.8 -41.5 -7.55 -43.0 -5.05 -40.65 L-4.55 -39.85 Q-3.5 -36.65 -5.8 -34.3 L-6.9 -32.95 -5.65 -33.25 -1.85 -34.35 Q-0.3 -34.85 1.25 -33.15 -0.3 -34.85 -1.85 -34.35 L-5.65 -33.25 -6.9 -32.95 -6.95 -32.95 -7.05 -32.95 -6.9 -32.95 M-8.15 -32.75 L-7.05 -32.95 -9.45 -32.5 -7.05 -32.95 -8.15 -32.75 M-10.95 -20.55 L-12.0 -23.85 Q-12.4 -24.9 -13.15 -25.1 L-16.6 -25.95 -27.25 -26.65 Q-27.85 -26.15 -27.5 -24.8 -27.2 -23.45 -27.8 -22.1 -27.2 -23.45 -27.5 -24.8 -27.85 -26.15 -27.25 -26.65 L-16.6 -25.95 -13.15 -25.1 Q-12.4 -24.9 -12.0 -23.85 L-10.95 -20.55 M-1.2 -45.35 Q-1.45 -46.6 -1.85 -47.75 -1.45 -46.6 -1.2 -45.35 L-0.15 -45.65 -1.2 -45.35 -0.9 -43.75 -0.35 -40.95 -0.9 -43.75 -1.2 -45.35 M-31.35 -38.85 Q-30.05 -36.25 -30.9 -33.25 L-30.95 -33.2 -30.9 -33.25 Q-30.05 -36.25 -31.35 -38.85 M-3.65 -22.1 L-2.85 -22.45 -3.65 -22.1 M-22.1 -18.95 Q-22.55 -20.05 -22.35 -21.85 -22.55 -20.05 -22.1 -18.95 M-24.25 -18.85 L-24.35 -22.35 -24.25 -18.85 M-30.9 -33.25 Q-29.1 -34.1 -28.8 -36.35 -28.75 -37.3 -29.3 -37.9 L-30.5 -39.05 -29.3 -37.9 Q-28.75 -37.3 -28.8 -36.35 -29.1 -34.1 -30.9 -33.25 M-30.1 -24.1 Q-29.05 -24.3 -29.25 -25.6 L-29.55 -26.45 Q-30.6 -28.1 -33.15 -28.6 -30.6 -28.1 -29.55 -26.45 L-29.25 -25.6 Q-29.05 -24.3 -30.1 -24.1 M-26.75 -21.8 L-26.1 -24.85 Q-25.55 -25.05 -24.35 -24.85 L-13.85 -23.55 -13.45 -20.5 -13.85 -23.55 -24.35 -24.85 Q-25.55 -25.05 -26.1 -24.85 L-26.75 -21.8 M-3.2 -13.5 Q-4.95 -14.65 -7.25 -14.85 -4.95 -14.65 -3.2 -13.5 M-2.1 -13.85 Q-4.2 -15.85 -6.7 -17.15 -4.2 -15.85 -2.1 -13.85 M-19.85 -20.1 L-20.6 -20.1 -19.85 -20.1 M-15.85 -18.6 L-15.85 -21.85 -15.85 -18.6 M-17.75 -18.85 L-17.85 -21.6 -17.75 -18.85 M1.35 -8.3 L-2.4 -8.2 1.35 -8.3" fill="#ffffff" fill-rule="evenodd" stroke="none"/>
    <path d="M-8.9 -102.8 Q-8.85 -104.55 -8.1 -106.05 L-7.85 -106.9 Q-7.0 -109.8 -4.85 -111.85 -0.5 -116.05 5.1 -117.75 L6.1 -118.1 Q9.75 -119.35 13.7 -119.15 13.2 -120.9 14.45 -121.15 15.0 -121.3 15.2 -120.9 15.75 -119.95 15.8 -118.95 19.8 -118.5 23.6 -117.2 25.7 -116.5 27.75 -115.5 31.6 -113.75 34.3 -110.6 L36.15 -108.6 Q38.3 -106.25 39.15 -103.5 L37.7 -103.5 35.1 -103.35 Q31.1 -102.85 27.15 -101.1 L27.0 -101.25 25.85 -101.75 16.95 -102.0 16.55 -93.3 16.5 -92.45 15.9 -84.7 Q17.4 -85.7 19.05 -86.45 L25.65 -86.65 Q30.1 -85.8 31.9 -81.6 32.6 -79.9 31.35 -78.8 L31.3 -78.8 30.55 -78.3 Q31.45 -78.15 31.9 -77.55 L38.2 -74.5 Q41.95 -72.35 44.9 -69.0 47.0 -69.1 48.3 -67.55 L48.85 -66.7 Q50.0 -64.75 49.75 -62.4 49.6 -60.8 48.3 -59.95 47.5 -59.45 46.7 -59.3 46.0 -59.2 45.95 -59.6 M45.15 -60.35 Q42.7 -57.85 40.35 -54.65 37.25 -50.45 35.4 -46.1 35.15 -44.95 34.3 -44.45 32.9 -43.7 31.35 -43.6 L31.2 -43.6 Q26.55 -43.5 25.7 -47.85 25.15 -50.4 25.85 -52.4 26.5 -54.45 28.4 -55.9 29.45 -56.7 29.9 -56.35 L29.85 -56.5 Q29.2 -57.8 29.4 -59.6 M31.55 -42.35 L30.55 -41.7 Q31.3 -36.45 29.7 -32.95 L21.6 -31.9 19.15 -31.85 15.9 -31.5 13.25 -31.55 14.95 -32.4 15.15 -34.25 Q15.4 -37.6 15.0 -41.1 14.45 -46.3 13.2 -51.3 12.7 -53.35 11.6 -54.8 13.55 -55.8 16.15 -58.1 20.1 -61.7 23.4 -66.4 L23.35 -67.05 23.75 -66.7 Q26.55 -64.45 27.65 -61.85 29.15 -61.95 30.2 -61.35 L28.9 -60.15 28.85 -60.15 28.8 -60.1 Q26.7 -58.0 25.3 -55.05 L24.45 -52.9 24.45 -52.75 Q22.55 -46.75 23.85 -40.75 L23.95 -40.35 Q27.8 -40.2 30.55 -41.7 M21.6 -31.2 L22.1 -29.25 24.15 -28.6 Q23.95 -27.75 23.2 -27.5 L23.05 -27.45 Q22.8 -25.3 21.75 -23.05 L15.8 -11.15 16.05 -10.3 Q18.3 -7.85 18.9 -5.05 20.0 -4.3 21.75 -4.1 22.15 -4.1 22.25 -3.4 22.55 -0.5 20.35 -0.45 L16.65 -0.4 5.85 0.15 Q5.15 -0.75 5.1 -2.5 5.05 -3.45 6.0 -3.45 11.2 -3.6 16.35 -3.35 L16.95 -3.9 15.8 -5.55 Q14.5 -7.75 12.45 -8.6 L10.95 -8.85 Q10.25 -10.15 10.4 -12.4 L12.1 -17.25 9.15 -16.55 9.1 -16.55 7.1 -16.2 Q5.45 -16.85 3.3 -16.9 L2.95 -16.65 2.75 -16.5 2.45 -16.25 2.0 -15.95 Q0.0 -14.6 -2.1 -13.85 L-3.2 -13.5 -1.75 -11.6 -0.15 -9.7 Q0.5 -8.75 1.35 -8.3 1.55 -8.15 1.85 -8.05 2.65 -7.75 2.85 -7.0 3.25 -4.65 1.45 -4.35 L-8.65 -3.85 -10.85 -4.1 Q-11.85 -4.35 -11.75 -6.15 -9.35 -6.95 -6.4 -7.0 L-3.6 -7.05 Q-2.1 -7.2 -2.4 -8.2 L-2.5 -8.4 Q-4.15 -11.95 -7.25 -14.85 -7.15 -16.2 -6.7 -17.15 L-6.35 -17.7 -3.65 -22.1 Q-6.95 -20.75 -10.95 -20.55 L-12.4 -20.5 -13.45 -20.5 -13.3 -19.35 Q-13.15 -18.65 -13.35 -17.85 -13.55 -16.95 -15.15 -17.05 L-25.6 -17.65 Q-26.25 -17.7 -26.4 -18.15 -26.9 -20.0 -26.75 -21.8 L-27.8 -22.1 Q-31.35 -23.1 -34.3 -25.2 -35.25 -25.9 -35.4 -27.05 L-35.5 -28.1 Q-36.1 -31.45 -34.1 -33.35 L-33.45 -33.1 -33.65 -33.55 Q-35.15 -37.2 -33.95 -40.55 -31.55 -40.75 -30.5 -39.05 L-29.25 -42.75 Q-28.05 -45.5 -26.5 -47.4 L-24.1 -50.6 Q-24.6 -51.1 -25.25 -50.9 M-25.65 -51.15 Q-27.65 -48.55 -31.1 -49.75 -31.6 -49.9 -32.0 -50.3 -33.8 -52.3 -33.45 -54.2 L-34.95 -64.15 Q-35.8 -69.15 -37.8 -73.7 L-39.25 -76.25 -40.35 -76.35 Q-42.05 -76.6 -43.0 -77.55 -43.75 -76.4 -45.25 -75.0 L-45.95 -74.1 Q-46.8 -72.8 -48.4 -72.1 -52.75 -70.25 -55.95 -70.65 -59.15 -71.1 -62.75 -72.55 -66.35 -74.0 -69.7 -78.7 -59.3 -78.4 -54.8 -78.6 L-44.05 -79.3 -44.4 -81.0 Q-44.5 -82.45 -44.15 -83.55 -43.8 -84.65 -43.05 -85.35 -42.4 -85.95 -41.5 -86.25 -38.4 -87.45 -37.5 -85.6 -37.85 -84.75 -37.1 -84.05 -35.05 -82.3 -36.65 -79.65 L-35.95 -78.45 -35.25 -77.0 Q-33.3 -72.15 -31.0 -67.4 -28.75 -62.7 -27.3 -58.15 -26.25 -57.85 -25.5 -56.85 -25.15 -56.35 -24.7 -56.55 L-18.25 -56.1 -16.55 -56.95 Q-14.05 -58.05 -11.25 -57.85 L-11.15 -58.35 -11.2 -58.35 -17.3 -59.05 Q-19.15 -59.45 -20.3 -60.55 -21.45 -61.55 -22.0 -62.95 L-23.6 -67.6 -23.7 -68.25 Q-23.6 -69.25 -23.85 -69.8 -24.35 -69.2 -25.25 -69.3 L-26.15 -69.6 Q-28.85 -70.8 -28.05 -74.2 L-30.35 -74.75 Q-32.5 -74.85 -31.5 -76.85 L-28.15 -77.45 -25.35 -77.65 Q-22.4 -77.65 -21.2 -75.2 L-21.1 -75.0 -21.1 -74.95 Q-20.7 -74.0 -20.45 -72.7 -19.85 -69.65 -18.55 -66.45 L-18.0 -64.9 Q-17.6 -63.75 -16.05 -63.2 L-13.15 -62.9 Q-11.95 -63.2 -8.8 -64.95 -8.1 -66.4 -8.3 -68.6 -10.4 -67.7 -12.65 -67.8 L-14.15 -67.9 Q-15.9 -68.85 -17.15 -70.55 -17.8 -71.3 -17.55 -71.55 M-44.95 -83.8 L-55.65 -83.9 Q-61.1 -83.8 -71.3 -85.35 -65.5 -90.95 -60.6 -93.8 -56.65 -96.1 -52.5 -93.8 -46.7 -92.0 -44.2 -87.55 L-43.05 -85.35 M-18.25 -72.0 L-19.75 -75.35 Q-20.35 -77.05 -20.55 -78.8 -21.0 -82.0 -20.3 -85.4 -19.9 -87.35 -18.4 -88.8 -14.9 -92.15 -10.5 -93.65 L-8.6 -93.9 Q-4.95 -93.7 -1.5 -92.4 -0.15 -91.9 0.85 -90.75 2.35 -89.1 3.2 -87.05 L3.45 -85.5 Q3.05 -79.5 -0.65 -75.15 L0.25 -74.7 3.35 -75.3 9.5 -75.0 10.7 -74.7 13.85 -74.45 Q16.95 -75.75 19.9 -73.95 L20.55 -73.5 21.7 -72.45 Q22.65 -71.3 23.0 -69.8 L23.35 -67.05 M30.9 -56.85 Q34.5 -60.6 38.3 -63.05 40.5 -64.55 42.4 -65.1 42.35 -66.3 42.8 -67.4 L35.7 -71.0 34.6 -71.45 Q32.25 -72.2 30.4 -73.4 29.6 -73.5 29.05 -73.85 L27.9 -73.45 22.9 -73.65 Q21.55 -74.1 20.4 -74.7 L20.35 -74.7 Q16.85 -76.6 15.05 -80.15 L14.75 -80.95 14.65 -81.25 Q11.85 -81.05 10.4 -82.4 L9.8 -83.1 Q9.1 -84.6 9.8 -85.85 11.35 -81.5 14.05 -83.85 L13.9 -84.45 14.65 -84.05 14.9 -84.1 14.95 -84.1 Q15.2 -88.15 15.05 -92.55 L14.3 -100.0 14.1 -101.6 14.0 -102.55 11.8 -102.9 Q7.7 -103.6 3.9 -101.85 3.45 -101.6 3.0 -101.65 L2.9 -101.65 Q1.55 -101.85 0.3 -102.45 -3.7 -104.45 -7.5 -102.55 M13.7 -119.15 L14.15 -119.1 15.8 -118.95 M2.9 -101.65 L2.9 -101.75 Q2.25 -106.6 4.2 -110.35 5.7 -113.2 8.1 -115.2 M14.0 -102.55 L16.95 -102.0 M14.15 -114.95 Q15.45 -111.25 15.15 -106.6 L15.1 -105.65 M20.55 -115.65 Q22.05 -114.85 22.9 -113.1 25.4 -108.8 26.9 -104.65 27.35 -103.5 27.25 -101.75 L27.15 -101.1 M42.8 -67.4 L43.4 -68.7 44.15 -68.9 44.9 -69.0 M45.15 -60.35 L45.65 -60.85 44.0 -61.55 Q43.25 -61.9 42.95 -62.65 42.45 -63.9 42.4 -65.1 M27.6 -76.75 Q24.15 -78.4 20.85 -80.4 L15.45 -83.6 15.3 -83.6 15.3 -83.7 14.65 -84.05 14.05 -83.85 14.65 -81.25 M27.6 -76.75 Q27.7 -77.65 28.75 -78.15 L29.85 -78.75 Q26.45 -79.4 23.35 -80.95 19.65 -82.85 15.45 -83.6 L15.3 -83.7 14.95 -84.1 14.9 -84.1 M29.05 -73.85 Q28.1 -74.4 27.7 -75.65 27.5 -76.25 27.6 -76.75 M31.9 -77.55 Q32.4 -76.9 32.45 -75.7 32.45 -73.9 30.4 -73.4 L29.5 -74.05 29.05 -73.85 M29.85 -78.75 L31.35 -78.8 M14.95 -84.1 L15.05 -84.2 15.9 -84.7 M5.8 -58.15 L9.6 -68.15 Q10.6 -70.7 11.85 -73.05 L12.4 -73.65 Q13.15 -74.15 13.85 -74.45 M6.65 -57.85 Q9.85 -57.0 11.6 -54.8 M5.8 -58.1 L5.8 -58.15 M0.25 -74.7 Q1.0 -74.05 0.05 -72.75 -1.5 -70.65 -2.2 -68.15 L-2.4 -67.35 Q-2.65 -65.7 -3.8 -64.65 L-3.2 -63.95 Q-0.9 -61.6 0.15 -58.55 L0.3 -58.25 Q1.35 -55.05 1.6 -51.65 1.65 -50.8 1.3 -50.05 0.8 -49.05 -0.35 -48.4 L-0.3 -48.25 Q0.2 -47.05 -0.15 -45.65 4.45 -47.0 8.7 -48.85 L9.5 -49.15 10.95 -49.35 11.2 -48.05 Q11.65 -45.65 9.6 -44.65 5.0 -42.4 -0.35 -40.95 L0.8 -35.55 1.25 -33.15 1.3 -33.0 1.3 -32.9 1.6 -31.6 10.95 -35.7 Q14.15 -36.45 13.95 -34.35 11.9 -32.15 9.5 -30.85 11.45 -30.9 13.25 -31.55 M5.8 -58.1 L6.65 -57.85 M1.4 -59.1 Q3.4 -59.45 5.5 -58.3 L5.8 -58.1 M20.6 -55.05 Q22.05 -59.4 25.7 -61.4 L26.45 -61.65 27.65 -61.85 M35.4 -46.1 L33.2 -46.7 Q28.8 -47.8 28.25 -52.35 27.95 -54.8 29.9 -56.35 M20.6 -55.05 Q20.35 -54.1 19.95 -54.35 17.7 -49.6 19.25 -44.65 20.25 -41.5 23.15 -40.6 L23.95 -40.35 M1.3 -32.9 L1.5 -31.55 1.6 -31.6 2.3 -28.9 3.7 -29.15 3.75 -29.15 4.4 -29.25 Q7.15 -29.6 9.5 -30.85 M1.5 -31.55 L1.7 -29.35 1.6 -28.7 2.3 -28.9 2.5 -28.15 Q3.15 -25.6 0.55 -23.9 -1.0 -22.95 -2.85 -22.45 -2.15 -19.8 0.1 -17.75 L0.7 -17.05 Q1.15 -16.65 1.4 -16.85 L2.0 -16.85 2.45 -16.9 2.75 -16.9 2.95 -16.9 3.3 -16.9 M22.1 -29.25 Q20.35 -29.6 18.4 -29.25 L17.35 -29.05 15.1 -28.65 Q13.6 -28.4 14.4 -27.6 11.2 -26.75 11.4 -23.1 11.5 -21.5 12.05 -20.05 L12.7 -19.3 Q13.65 -23.8 18.05 -26.4 18.95 -26.95 19.95 -26.95 L23.05 -27.45 M13.0 -17.1 L12.1 -17.25 12.7 -19.3 M3.9 -28.1 Q3.35 -22.95 7.0 -19.2 L7.75 -18.35 8.9 -17.6 M12.45 -8.6 L15.25 -8.5 Q16.15 -9.15 16.05 -10.3 M18.9 -5.05 L19.0 -4.7 Q19.2 -3.35 16.95 -3.9 M10.4 -12.4 Q11.1 -11.65 12.7 -11.25 L15.8 -11.15 M-12.4 -79.15 Q-9.25 -75.4 -6.15 -78.95 L-5.85 -79.2 Q-4.35 -80.6 -4.85 -82.85 L-6.15 -84.15 -11.05 -84.65 Q-13.6 -81.65 -12.85 -80.85 M-19.2 -84.15 L-17.9 -83.4 Q-17.05 -82.95 -16.65 -81.7 L-16.95 -78.45 Q-17.5 -78.05 -18.05 -77.9 -19.15 -78.25 -19.85 -78.85 M-36.65 -79.65 L-36.65 -79.6 Q-36.95 -78.65 -37.85 -77.8 -39.2 -76.7 -40.35 -76.35 M-33.45 -54.2 Q-33.3 -55.45 -32.2 -56.65 -31.45 -57.5 -30.35 -57.9 L-27.3 -58.15 M-24.7 -56.55 Q-23.6 -54.25 -25.4 -51.55 L-25.65 -51.15 M-20.65 -50.9 L-20.55 -47.8 -15.0 -50.6 -16.9 -45.15 -17.8 -42.55 Q-20.05 -39.55 -22.4 -37.5 L-22.9 -38.1 Q-23.65 -39.15 -24.15 -40.9 -24.8 -43.1 -24.85 -42.45 L-24.8 -43.7 Q-24.7 -45.7 -23.65 -47.55 L-22.15 -49.95 -21.35 -50.7 M-24.1 -50.6 L-23.75 -51.15 Q-22.55 -52.95 -19.2 -55.4 L-18.25 -56.1 M-3.8 -64.65 Q-5.7 -66.95 -6.3 -70.0 L-7.25 -69.15 -8.3 -68.6 M-8.8 -64.95 L-9.45 -63.95 -10.0 -62.4 -10.2 -61.95 -10.3 -61.65 -11.1 -58.65 -11.15 -58.35 M-0.65 -75.15 L-2.55 -73.25 -6.3 -70.0 M-15.35 -73.75 L-13.8 -73.95 -12.7 -72.85 -12.45 -72.25 Q-13.05 -71.8 -15.0 -71.85 M-11.25 -57.85 L-9.35 -57.55 Q-4.2 -56.45 -3.2 -51.4 -2.7 -51.8 -2.65 -52.75 -2.45 -55.45 -2.9 -57.95 L-3.0 -58.6 M-3.2 -51.4 L-3.2 -51.35 -2.3 -49.0 -1.85 -47.75 -0.9 -48.15 -0.35 -48.4 M-43.0 -77.55 Q-43.75 -78.25 -44.05 -79.3 M-0.15 -45.65 L-1.2 -45.35 -0.9 -43.75 -0.35 -40.95 M-1.85 -47.75 Q-1.45 -46.6 -1.2 -45.35 M-30.9 -32.25 L-24.6 -31.55 -15.85 -31.8 -9.45 -32.5 -8.15 -32.75 Q-12.25 -33.85 -12.7 -38.35 -12.9 -40.55 -10.8 -41.5 -7.55 -43.0 -5.05 -40.65 L-4.55 -39.85 Q-3.5 -36.65 -5.8 -34.3 L-6.9 -32.95 -5.65 -33.25 -1.85 -34.35 Q-0.3 -34.85 1.25 -33.15 M-27.8 -22.1 Q-27.2 -23.45 -27.5 -24.8 -27.85 -26.15 -27.25 -26.65 L-16.6 -25.95 -13.15 -25.1 Q-12.4 -24.9 -12.0 -23.85 L-10.95 -20.55 M-9.45 -32.5 L-7.05 -32.95 -8.15 -32.75 M-6.9 -32.95 L-6.95 -32.95 -7.05 -32.95 -6.9 -32.95 M-9.85 -28.6 L-9.5 -26.9 -8.15 -27.3 Q-4.6 -27.75 -1.35 -28.85 -1.05 -26.65 -1.35 -24.1 -4.55 -23.9 -7.85 -22.8 -8.95 -24.7 -9.5 -26.9 M-20.55 -47.8 Q-22.45 -43.95 -22.8 -42.05 -23.1 -40.2 -22.65 -40.0 -22.25 -39.8 -22.9 -38.1 M-33.45 -33.1 L-32.55 -32.75 -30.95 -33.2 -30.9 -33.25 Q-30.05 -36.25 -31.35 -38.85 M-32.55 -32.75 L-30.9 -32.25 -30.9 -32.3 -30.95 -33.2 M-13.45 -20.5 L-13.85 -23.55 -24.35 -24.85 Q-25.55 -25.05 -26.1 -24.85 L-26.75 -21.8 M-33.15 -28.6 Q-30.6 -28.1 -29.55 -26.45 L-29.25 -25.6 Q-29.05 -24.3 -30.1 -24.1 M-30.5 -39.05 L-29.3 -37.9 Q-28.75 -37.3 -28.8 -36.35 -29.1 -34.1 -30.9 -33.25 M-24.35 -22.35 L-24.25 -18.85 M-22.35 -21.85 Q-22.55 -20.05 -22.1 -18.95 M-2.85 -22.45 L-3.65 -22.1 M-17.85 -21.6 L-17.75 -18.85 M-15.85 -21.85 L-15.85 -18.6 M-20.6 -20.1 L-19.85 -20.1" fill="none" stroke="#000000" stroke-linecap="round" stroke-linejoin="round" stroke-width="0.05"/>
    <path d="M3.35 -75.3 L2.65 -70.65 6.35 -70.85 Q8.35 -72.6 9.5 -75.0 M-6.7 -17.15 Q-4.2 -15.85 -2.1 -13.85 M-7.25 -14.85 Q-4.95 -14.65 -3.2 -13.5 M-2.4 -8.2 L1.35 -8.3" fill="none" stroke="#000000" stroke-linecap="round" stroke-linejoin="round" stroke-width="0.05"/>
  </g>
</svg>
