<?xml version="1.0" encoding="UTF-8" standalone="no"?>
<svg xmlns:ffdec="https://www.free-decompiler.com/flash" xmlns:xlink="http://www.w3.org/1999/xlink" ffdec:objectType="shape" height="91.3px" width="51.85px" xmlns="http://www.w3.org/2000/svg">
  <g transform="matrix(1.0, 0.0, 0.0, 1.0, 24.1, 91.95)">
    <path d="M-9.05 -51.25 Q-11.1 -54.95 -11.65 -58.85 -12.1 -62.4 -11.35 -66.15 -10.9 -68.35 -9.25 -69.95 -5.35 -73.7 -0.45 -75.35 L1.65 -75.6 Q5.75 -75.4 9.55 -73.95 11.1 -73.4 12.2 -72.1 13.85 -70.3 14.75 -68.0 15.1 -67.15 15.05 -66.3 14.5 -58.0 8.4 -52.7 L4.25 -49.05 Q5.0 -45.15 7.7 -42.35 10.35 -39.55 11.55 -36.0 12.7 -32.45 13.0 -28.7 13.05 -27.75 12.7 -26.9 12.1 -25.75 10.8 -25.05 L10.25 -24.75 10.85 -24.9 Q11.55 -23.25 10.8 -21.25 L10.4 -20.25 Q9.25 -17.55 9.05 -14.0 8.8 -10.05 9.7 -6.5 L10.0 -4.7 Q10.35 -2.6 8.95 -1.9 5.8 -0.45 1.8 -0.65 -0.2 -0.7 -1.9 -1.25 -2.85 -1.55 -2.1 -2.7 L-1.2 -3.65 -3.85 -3.6 -5.45 -3.85 Q-6.3 -4.05 -6.8 -4.55 L-6.95 -5.1 Q-6.5 -5.65 -5.65 -5.9 -2.75 -6.9 -1.1 -9.1 -0.65 -9.7 -0.55 -10.1 0.3 -13.35 0.35 -16.45 L0.2 -18.2 0.05 -18.9 Q-0.4 -20.25 -1.2 -21.7 -2.95 -24.8 -1.85 -28.8 L-1.85 -28.85 Q-2.3 -29.5 -2.1 -30.05 -1.5 -31.55 -1.45 -33.25 L-1.2 -36.15 -8.0 -36.9 Q-10.1 -37.3 -11.35 -38.55 -12.65 -39.65 -13.25 -41.2 L-15.0 -46.4 -15.1 -47.1 Q-15.0 -48.2 -15.3 -48.8 -15.8 -48.15 -16.85 -48.3 L-17.85 -48.6 Q-20.8 -49.95 -19.95 -53.75 -21.05 -54.25 -22.5 -54.3 -24.9 -54.45 -23.75 -56.7 L-20.05 -57.3 -16.95 -57.55 Q-13.65 -57.55 -12.35 -54.85 -11.8 -53.75 -11.5 -52.05 -10.85 -48.7 -9.4 -45.1 L-8.8 -43.4 Q-8.3 -42.15 -6.6 -41.5 L-3.4 -41.2 Q-2.05 -41.5 1.45 -43.45 2.2 -45.05 2.0 -47.5 -0.3 -46.5 -2.85 -46.6 L-4.5 -46.7 Q-6.45 -47.8 -7.85 -49.65 -8.55 -50.55 -8.3 -50.8 L-9.05 -51.25 M7.85 -36.4 L8.0 -35.65 Q8.5 -32.9 8.3 -29.9 8.2 -28.3 7.0 -28.1 4.15 -27.65 2.95 -29.7 2.1 -31.1 0.5 -31.0 L-0.15 -30.75 Q-1.05 -30.0 -0.2 -29.1 L-1.75 -29.25 -1.85 -28.85 -1.75 -29.25 -0.2 -29.1 Q-1.05 -30.0 -0.15 -30.75 L0.5 -31.0 Q2.1 -31.1 2.95 -29.7 4.15 -27.65 7.0 -28.1 8.2 -28.3 8.3 -29.9 8.5 -32.9 8.0 -35.65 L7.85 -36.4 M-1.2 -36.15 L-1.15 -36.45 -0.25 -39.75 -0.1 -40.1 0.1 -40.6 0.7 -42.35 1.45 -43.45 0.7 -42.35 0.1 -40.6 -0.1 -40.1 -0.25 -39.75 -1.15 -36.45 -1.2 -36.15 M2.0 -47.5 L3.15 -48.1 4.25 -49.05 3.15 -48.1 2.0 -47.5 M-3.05 -61.15 Q-3.9 -62.0 -1.05 -64.55 2.15 -65.45 5.15 -64.0 L5.85 -63.35 Q6.4 -60.85 4.7 -59.3 L4.4 -59.0 Q0.95 -55.05 -2.55 -59.25 0.95 -55.05 4.4 -59.0 L4.7 -59.3 Q6.4 -60.85 5.85 -63.35 L5.15 -64.0 Q2.15 -65.45 -1.05 -64.55 -3.9 -62.0 -3.05 -61.15 M-0.2 -29.1 L0.15 -28.85 Q0.95 -28.25 1.0 -28.3 0.4 -28.9 -0.2 -29.1 M-5.45 -51.1 Q-3.3 -51.1 -2.65 -51.55 L-2.9 -52.25 -4.15 -53.45 -5.8 -53.25 -4.15 -53.45 -2.9 -52.25 -2.65 -51.55 Q-3.3 -51.1 -5.45 -51.1 M-10.8 -58.9 Q-10.05 -58.25 -8.8 -57.8 -8.2 -57.95 -7.6 -58.45 L-7.3 -62.05 Q-7.75 -63.45 -8.7 -63.95 L-10.1 -64.75 -8.7 -63.95 Q-7.75 -63.45 -7.3 -62.05 L-7.6 -58.45 Q-8.2 -57.95 -8.8 -57.8 -10.05 -58.25 -10.8 -58.9 M3.55 -19.5 L4.0 -18.2 4.15 -16.45 Q4.45 -12.65 4.2 -8.75 L3.95 -7.5 Q3.25 -5.7 1.25 -4.85 L0.1 -4.4 -1.2 -3.65 0.1 -4.4 1.25 -4.85 Q3.25 -5.7 3.95 -7.5 L4.2 -8.75 Q4.45 -12.65 4.15 -16.45 L4.0 -18.2 3.55 -19.5 M-1.85 -28.8 Q-2.15 -27.0 -0.55 -25.5 0.85 -24.25 2.9 -23.9 6.9 -23.3 10.25 -24.75 6.9 -23.3 2.9 -23.9 0.85 -24.25 -0.55 -25.5 -2.15 -27.0 -1.85 -28.8" fill="#ffffff" fill-rule="evenodd" stroke="none"/>
    <path d="M-9.05 -51.25 Q-11.1 -54.95 -11.65 -58.85 -12.1 -62.4 -11.35 -66.15 -10.9 -68.35 -9.25 -69.95 -5.35 -73.7 -0.45 -75.35 L1.65 -75.6 Q5.75 -75.4 9.55 -73.95 11.1 -73.4 12.2 -72.1 13.85 -70.3 14.75 -68.0 15.1 -67.15 15.05 -66.3 14.5 -58.0 8.4 -52.7 L4.25 -49.05 Q5.0 -45.15 7.7 -42.35 10.35 -39.55 11.55 -36.0 12.7 -32.45 13.0 -28.7 13.05 -27.75 12.7 -26.9 12.1 -25.75 10.8 -25.05 L10.85 -24.9 Q11.55 -23.25 10.8 -21.25 L10.4 -20.25 Q9.25 -17.55 9.05 -14.0 8.8 -10.05 9.7 -6.5 L10.0 -4.7 Q10.35 -2.6 8.95 -1.9 5.8 -0.45 1.8 -0.65 -0.2 -0.7 -1.9 -1.25 -2.85 -1.55 -2.1 -2.7 L-1.2 -3.65 -3.85 -3.6 -5.45 -3.85 Q-6.3 -4.05 -6.8 -4.55 L-6.95 -5.1 Q-6.5 -5.65 -5.65 -5.9 -2.75 -6.9 -1.1 -9.1 -0.65 -9.7 -0.55 -10.1 0.3 -13.35 0.35 -16.45 L0.2 -18.2 0.05 -18.9 Q-0.4 -20.25 -1.2 -21.7 -2.95 -24.8 -1.85 -28.8 L-1.85 -28.85 Q-2.3 -29.5 -2.1 -30.05 -1.5 -31.55 -1.45 -33.25 L-1.2 -36.15 -8.0 -36.9 Q-10.1 -37.3 -11.35 -38.55 -12.65 -39.65 -13.25 -41.2 L-15.0 -46.4 -15.1 -47.1 Q-15.0 -48.2 -15.3 -48.8 -15.8 -48.15 -16.85 -48.3 L-17.85 -48.6 Q-20.8 -49.95 -19.95 -53.75 -21.05 -54.25 -22.5 -54.3 -24.9 -54.45 -23.75 -56.7 L-20.05 -57.3 -16.95 -57.55 Q-13.65 -57.55 -12.35 -54.85 -11.8 -53.75 -11.5 -52.05 -10.85 -48.7 -9.4 -45.1 L-8.8 -43.4 Q-8.3 -42.15 -6.6 -41.5 L-3.4 -41.2 Q-2.05 -41.5 1.45 -43.45 2.2 -45.05 2.0 -47.5 -0.3 -46.5 -2.85 -46.6 L-4.5 -46.7 Q-6.45 -47.8 -7.85 -49.65 -8.55 -50.55 -8.3 -50.8 M-2.55 -59.25 Q0.95 -55.05 4.4 -59.0 L4.7 -59.3 Q6.4 -60.85 5.85 -63.35 L5.15 -64.0 Q2.15 -65.45 -1.05 -64.55 -3.9 -62.0 -3.05 -61.15 M4.25 -49.05 L3.15 -48.1 2.0 -47.5 M1.45 -43.45 L0.7 -42.35 0.1 -40.6 -0.1 -40.1 -0.25 -39.75 -1.15 -36.45 -1.2 -36.15 M-1.85 -28.85 L-1.75 -29.25 -0.2 -29.1 Q-1.05 -30.0 -0.15 -30.75 L0.5 -31.0 Q2.1 -31.1 2.95 -29.7 4.15 -27.65 7.0 -28.1 8.2 -28.3 8.3 -29.9 8.5 -32.9 8.0 -35.65 L7.85 -36.4 M-0.2 -29.1 Q0.4 -28.9 1.0 -28.3 0.95 -28.25 0.15 -28.85 L-0.2 -29.1 M10.8 -25.05 L10.25 -24.75 Q6.9 -23.3 2.9 -23.9 0.85 -24.25 -0.55 -25.5 -2.15 -27.0 -1.85 -28.8 M-1.2 -3.65 L0.1 -4.4 1.25 -4.85 Q3.25 -5.7 3.95 -7.5 L4.2 -8.75 Q4.45 -12.65 4.15 -16.45 L4.0 -18.2 3.55 -19.5 M-10.1 -64.75 L-8.7 -63.95 Q-7.75 -63.45 -7.3 -62.05 L-7.6 -58.45 Q-8.2 -57.95 -8.8 -57.8 -10.05 -58.25 -10.8 -58.9 M-5.8 -53.25 L-4.15 -53.45 -2.9 -52.25 -2.65 -51.55 Q-3.3 -51.1 -5.45 -51.1" fill="none" stroke="#000000" stroke-linecap="round" stroke-linejoin="round" stroke-width="0.05"/>
    <path d="M8.7 -90.15 L12.6 -90.15 Q16.4 -88.95 18.1 -85.8 L18.35 -84.75 18.35 -83.55 Q23.7 -84.8 26.25 -79.85 27.65 -77.15 26.95 -74.15 L26.75 -72.1 Q26.5 -71.2 25.85 -70.9 L27.35 -67.6 Q28.45 -63.45 26.45 -59.8 L20.75 -57.1 Q21.4 -56.3 21.35 -53.8 18.4 -49.85 13.2 -50.65 10.85 -51.0 8.95 -51.9 7.75 -52.5 8.1 -52.6 8.7 -52.9 8.9 -53.55 7.2 -55.6 6.0 -57.7 5.4 -60.55 7.25 -62.4 6.3 -64.85 3.9 -66.7 L3.9 -71.5 Q1.55 -70.3 -1.2 -69.8 L-3.6 -70.0 -4.5 -70.9 -5.4 -69.7 -10.55 -68.7 -10.85 -63.95 -11.7 -62.5 -12.6 -62.0 Q-13.2 -60.0 -17.2 -62.35 -21.25 -64.7 -19.55 -70.3 -23.6 -75.5 -20.8 -79.95 -18.05 -84.4 -15.25 -84.45 -12.5 -84.5 -11.8 -85.15 -11.25 -85.65 -11.1 -84.15 -10.0 -89.15 -6.85 -90.25 -3.7 -91.4 -0.3 -91.95 3.0 -91.45 5.4 -88.95 7.1 -88.7 8.7 -90.15" fill="#ffffff" fill-rule="evenodd" stroke="none"/>
    <path d="M8.7 -90.15 L12.6 -90.15 Q16.4 -88.95 18.1 -85.8 L18.35 -84.75 18.35 -83.55 Q23.7 -84.8 26.25 -79.85 27.65 -77.15 26.95 -74.15 L26.75 -72.1 Q26.5 -71.2 25.85 -70.9 L27.35 -67.6 Q28.45 -63.45 26.45 -59.8 L20.75 -57.1 Q21.4 -56.3 21.35 -53.8 18.4 -49.85 13.2 -50.65 10.85 -51.0 8.95 -51.9 7.75 -52.5 8.1 -52.6 8.7 -52.9 8.9 -53.55 7.2 -55.6 6.0 -57.7 5.4 -60.55 7.25 -62.4 6.3 -64.85 3.9 -66.7 L3.9 -71.5 Q1.55 -70.3 -1.2 -69.8 L-3.6 -70.0 -4.5 -70.9 -5.4 -69.7 -10.55 -68.7 -10.85 -63.95 -11.7 -62.5 -12.6 -62.0 Q-13.2 -60.0 -17.2 -62.35 -21.25 -64.7 -19.55 -70.3 -23.6 -75.5 -20.8 -79.95 -18.05 -84.4 -15.25 -84.45 -12.5 -84.5 -11.8 -85.15 -11.25 -85.65 -11.1 -84.15 -10.0 -89.15 -6.85 -90.25 -3.7 -91.4 -0.3 -91.95 3.0 -91.45 5.4 -88.95 7.1 -88.7 8.7 -90.15" fill="none" stroke="#000000" stroke-linecap="round" stroke-linejoin="round" stroke-width="0.05"/>
    <path d="M-11.5 -58.1 Q-12.65 -58.25 -13.5 -58.7" fill="none" stroke="#000000" stroke-linecap="round" stroke-linejoin="round" stroke-width="0.05"/>
  </g>
</svg>
