<?xml version="1.0" encoding="UTF-8" standalone="no"?>
<svg xmlns:ffdec="https://www.free-decompiler.com/flash" xmlns:xlink="http://www.w3.org/1999/xlink" ffdec:objectType="shape" height="88.1px" width="67.4px" xmlns="http://www.w3.org/2000/svg">
  <g transform="matrix(1.0, 0.0, 0.0, 1.0, 28.9, 88.35)">
    <path d="M-3.05 -73.9 Q-3.9 -74.75 -1.05 -77.3 2.15 -78.2 5.15 -76.75 L5.85 -76.1 Q6.4 -73.6 4.7 -72.05 L4.4 -71.75 Q0.95 -67.8 -2.55 -72.0 0.95 -67.8 4.4 -71.75 L4.7 -72.05 Q6.4 -73.6 5.85 -76.1 L5.15 -76.75 Q2.15 -78.2 -1.05 -77.3 -3.9 -74.75 -3.05 -73.9 M-9.05 -64.0 Q-11.1 -67.7 -11.65 -71.6 -12.1 -75.15 -11.35 -78.9 -10.9 -81.1 -9.25 -82.7 -5.35 -86.45 -0.45 -88.1 L1.65 -88.35 Q5.75 -88.15 9.55 -86.7 11.1 -86.15 12.2 -84.85 13.85 -83.05 14.75 -80.75 15.1 -79.9 15.05 -79.05 14.5 -70.75 8.4 -65.45 L4.25 -61.8 Q5.0 -57.9 7.7 -55.1 10.35 -52.3 11.55 -48.75 L12.55 -44.8 16.8 -44.55 Q17.65 -42.55 17.45 -41.0 L17.25 -40.65 23.0 -38.8 Q29.15 -36.5 38.5 -32.4 L35.3 -30.65 Q34.15 -30.15 33.65 -30.0 L31.0 -28.9 Q28.85 -27.95 25.9 -27.2 L19.45 -25.95 13.5 -25.2 Q14.2 -22.7 15.55 -20.45 18.3 -20.75 18.1 -18.1 17.8 -13.35 15.4 -9.1 14.05 -9.7 13.55 -11.15 13.35 -11.7 13.3 -12.4 13.15 -14.55 13.3 -16.1 10.15 -19.85 10.05 -24.8 L9.05 -24.7 7.9 -24.6 8.5 -20.45 Q9.0 -17.95 10.3 -16.75 11.55 -15.55 10.05 -13.35 L8.0 -10.95 Q6.9 -9.85 4.05 -9.3 3.9 -9.45 4.2 -11.55 4.45 -13.65 5.45 -14.65 6.45 -15.65 5.5 -18.0 4.55 -20.35 4.0 -24.25 L3.75 -24.25 3.35 -24.25 2.95 -24.2 0.25 -24.3 0.2 -24.3 0.0 -24.3 -9.7 -24.95 Q-17.2 -25.0 -24.15 -27.9 L-26.1 -28.5 Q-27.9 -28.95 -28.9 -30.1 L-25.3 -32.6 Q-21.55 -34.8 -17.25 -36.7 -12.95 -38.6 -8.1 -39.45 -8.85 -41.2 -7.75 -43.75 -4.85 -44.0 -1.75 -43.75 L-1.45 -46.0 -1.2 -48.9 -8.0 -49.65 Q-10.1 -50.05 -11.35 -51.3 -12.65 -52.4 -13.25 -53.95 L-15.0 -59.15 -15.1 -59.85 Q-15.0 -60.95 -15.3 -61.55 -15.8 -60.9 -16.85 -61.05 L-17.85 -61.35 Q-20.8 -62.7 -19.95 -66.5 -21.05 -67.0 -22.5 -67.05 -24.9 -67.2 -23.75 -69.45 L-20.05 -70.05 -16.95 -70.3 Q-13.65 -70.3 -12.35 -67.6 -11.8 -66.5 -11.5 -64.8 -10.85 -61.45 -9.4 -57.85 L-8.8 -56.15 Q-8.3 -54.9 -6.6 -54.25 L-3.4 -53.95 Q-2.05 -54.25 1.45 -56.2 2.2 -57.8 2.0 -60.25 -0.3 -59.25 -2.85 -59.35 L-4.5 -59.45 Q-6.45 -60.55 -7.85 -62.4 -8.55 -63.3 -8.3 -63.55 L-9.05 -64.0 M2.0 -60.25 L3.15 -60.85 4.25 -61.8 3.15 -60.85 2.0 -60.25 M-1.2 -48.9 L-1.15 -49.2 -0.25 -52.5 -0.1 -52.85 0.1 -53.35 0.7 -55.1 1.45 -56.2 0.7 -55.1 0.1 -53.35 -0.1 -52.85 -0.25 -52.5 -1.15 -49.2 -1.2 -48.9 M35.1 -32.4 L25.65 -31.3 15.9 -30.25 25.65 -31.3 35.1 -32.4 M12.8 -40.0 L13.0 -41.45 12.55 -44.8 13.0 -41.45 12.8 -40.0 14.95 -40.35 16.85 -40.55 17.25 -40.65 16.85 -40.55 14.95 -40.35 12.8 -40.0 12.7 -39.65 Q12.1 -38.5 10.8 -37.8 L10.25 -37.5 Q6.9 -36.05 2.9 -36.65 0.85 -37.0 -0.55 -38.25 L-1.25 -39.05 Q-2.1 -40.25 -1.85 -41.55 L-1.85 -41.6 -1.75 -42.0 -0.2 -41.85 Q-1.05 -42.75 -0.15 -43.5 L-0.05 -43.6 -0.15 -43.5 Q-1.05 -42.75 -0.2 -41.85 L-1.75 -42.0 -1.85 -41.6 -1.85 -41.55 Q-2.1 -40.25 -1.25 -39.05 L-0.55 -38.25 Q0.85 -37.0 2.9 -36.65 6.9 -36.05 10.25 -37.5 L10.8 -37.8 Q12.1 -38.5 12.7 -39.65 L12.8 -40.0 M-1.75 -43.75 L-0.05 -43.6 -1.75 -43.75 M8.35 -44.8 L8.3 -42.65 Q8.2 -41.05 7.0 -40.85 4.15 -40.4 2.95 -42.45 2.1 -43.85 0.5 -43.75 L0.1 -43.7 0.5 -43.75 Q2.1 -43.85 2.95 -42.45 4.15 -40.4 7.0 -40.85 8.2 -41.05 8.3 -42.65 L8.35 -44.8 8.0 -48.4 7.85 -49.15 8.0 -48.4 8.35 -44.8 1.65 -44.3 Q0.85 -44.1 0.1 -43.7 L-0.05 -43.6 0.1 -43.7 Q0.85 -44.1 1.65 -44.3 L8.35 -44.8 M0.1 -43.7 L-0.05 -43.6 0.1 -43.7 M-0.2 -41.85 L0.15 -41.6 Q0.95 -41.0 1.0 -41.05 0.4 -41.65 -0.2 -41.85 M9.25 -29.8 Q6.8 -28.65 4.05 -28.75 L0.95 -28.65 Q-3.9 -28.05 -8.8 -28.85 L-18.5 -29.5 -27.75 -30.05 -18.5 -29.5 -8.8 -28.85 Q-3.9 -28.05 0.95 -28.65 L4.05 -28.75 Q6.8 -28.65 9.25 -29.8 M7.9 -24.6 L7.1 -24.5 6.7 -24.5 4.3 -24.3 4.0 -24.25 4.3 -24.3 6.7 -24.5 7.1 -24.5 7.9 -24.6 M13.5 -25.2 L13.05 -25.15 10.55 -24.85 10.05 -24.8 10.55 -24.85 13.05 -25.15 13.5 -25.2 M-5.45 -63.85 Q-3.3 -63.85 -2.65 -64.3 L-2.9 -65.0 -4.15 -66.2 -5.8 -66.0 -4.15 -66.2 -2.9 -65.0 -2.65 -64.3 Q-3.3 -63.85 -5.45 -63.85 M-10.8 -71.65 Q-10.05 -71.0 -8.8 -70.55 -8.2 -70.7 -7.6 -71.2 L-7.3 -74.8 Q-7.75 -76.2 -8.7 -76.7 L-10.1 -77.5 -8.7 -76.7 Q-7.75 -76.2 -7.3 -74.8 L-7.6 -71.2 Q-8.2 -70.7 -8.8 -70.55 -10.05 -71.0 -10.8 -71.65 M-8.1 -39.45 L-2.25 -39.15 -8.1 -39.45" fill="#ffffff" fill-rule="evenodd" stroke="none"/>
    <path d="M-2.55 -72.0 Q0.95 -67.8 4.4 -71.75 L4.7 -72.05 Q6.4 -73.6 5.85 -76.1 L5.15 -76.75 Q2.15 -78.2 -1.05 -77.3 -3.9 -74.75 -3.05 -73.9 M-9.05 -64.0 Q-11.1 -67.7 -11.65 -71.6 -12.1 -75.15 -11.35 -78.9 -10.9 -81.1 -9.25 -82.7 -5.35 -86.45 -0.45 -88.1 L1.65 -88.35 Q5.75 -88.15 9.55 -86.7 11.1 -86.15 12.2 -84.85 13.85 -83.05 14.75 -80.75 15.1 -79.9 15.05 -79.05 14.5 -70.75 8.4 -65.45 L4.25 -61.8 Q5.0 -57.9 7.7 -55.1 10.35 -52.3 11.55 -48.75 L12.55 -44.8 13.0 -41.45 12.8 -40.0 12.7 -39.65 Q12.1 -38.5 10.8 -37.8 L10.25 -37.5 Q6.9 -36.05 2.9 -36.65 0.85 -37.0 -0.55 -38.25 L-1.25 -39.05 Q-2.1 -40.25 -1.85 -41.55 L-1.85 -41.6 -1.75 -42.0 -0.2 -41.85 Q-1.05 -42.75 -0.15 -43.5 L-0.05 -43.6 0.1 -43.7 0.5 -43.75 Q2.1 -43.85 2.95 -42.45 4.15 -40.4 7.0 -40.85 8.2 -41.05 8.3 -42.65 L8.35 -44.8 8.0 -48.4 7.85 -49.15 M17.25 -40.65 L23.0 -38.8 Q29.15 -36.5 38.5 -32.4 L35.3 -30.65 Q34.15 -30.15 33.65 -30.0 L31.0 -28.9 Q28.85 -27.95 25.9 -27.2 L19.45 -25.95 13.5 -25.2 Q14.2 -22.7 15.55 -20.45 18.3 -20.75 18.1 -18.1 17.8 -13.35 15.4 -9.1 14.05 -9.7 13.55 -11.15 13.35 -11.7 13.3 -12.4 13.15 -14.55 13.3 -16.1 10.15 -19.85 10.05 -24.8 L9.05 -24.7 7.9 -24.6 8.5 -20.45 Q9.0 -17.95 10.3 -16.75 11.55 -15.55 10.05 -13.35 L8.0 -10.95 Q6.9 -9.85 4.05 -9.3 3.9 -9.45 4.2 -11.55 4.45 -13.65 5.45 -14.65 6.45 -15.65 5.5 -18.0 4.55 -20.35 4.0 -24.25 L3.75 -24.25 3.35 -24.25 2.95 -24.2 0.25 -24.3 0.2 -24.3 0.0 -24.3 -9.7 -24.95 Q-17.2 -25.0 -24.15 -27.9 L-26.1 -28.5 Q-27.9 -28.95 -28.9 -30.1 L-25.3 -32.6 Q-21.55 -34.8 -17.25 -36.7 -12.95 -38.6 -8.1 -39.45 M-1.75 -43.75 L-1.45 -46.0 -1.2 -48.9 -8.0 -49.65 Q-10.1 -50.05 -11.35 -51.3 -12.65 -52.4 -13.25 -53.95 L-15.0 -59.15 -15.1 -59.85 Q-15.0 -60.95 -15.3 -61.55 -15.8 -60.9 -16.85 -61.05 L-17.85 -61.35 Q-20.8 -62.7 -19.95 -66.5 -21.05 -67.0 -22.5 -67.05 -24.9 -67.2 -23.75 -69.45 L-20.05 -70.05 -16.95 -70.3 Q-13.65 -70.3 -12.35 -67.6 -11.8 -66.5 -11.5 -64.8 -10.85 -61.45 -9.4 -57.85 L-8.8 -56.15 Q-8.3 -54.9 -6.6 -54.25 L-3.4 -53.95 Q-2.05 -54.25 1.45 -56.2 2.2 -57.8 2.0 -60.25 -0.3 -59.25 -2.85 -59.35 L-4.5 -59.45 Q-6.45 -60.55 -7.85 -62.4 -8.55 -63.3 -8.3 -63.55 M1.45 -56.2 L0.7 -55.1 0.1 -53.35 -0.1 -52.85 -0.25 -52.5 -1.15 -49.2 -1.2 -48.9 M4.25 -61.8 L3.15 -60.85 2.0 -60.25 M-0.2 -41.85 Q0.4 -41.65 1.0 -41.05 0.95 -41.0 0.15 -41.6 L-0.2 -41.85 M10.05 -24.8 L10.55 -24.85 13.05 -25.15 13.5 -25.2 M4.0 -24.25 L4.3 -24.3 6.7 -24.5 7.1 -24.5 7.9 -24.6 M-10.1 -77.5 L-8.7 -76.7 Q-7.75 -76.2 -7.3 -74.8 L-7.6 -71.2 Q-8.2 -70.7 -8.8 -70.55 -10.05 -71.0 -10.8 -71.65 M-5.8 -66.0 L-4.15 -66.2 -2.9 -65.0 -2.65 -64.3 Q-3.3 -63.85 -5.45 -63.85" fill="none" stroke="#000000" stroke-linecap="round" stroke-linejoin="round" stroke-width="0.05"/>
    <path d="M12.55 -44.8 L16.8 -44.55 Q17.65 -42.55 17.45 -41.0 L17.25 -40.65 16.85 -40.55 14.95 -40.35 12.8 -40.0 M-8.1 -39.45 Q-8.85 -41.2 -7.75 -43.75 -4.85 -44.0 -1.75 -43.75 L-0.05 -43.6 0.1 -43.7 Q0.85 -44.1 1.65 -44.3 L8.35 -44.8 M15.9 -30.25 L25.65 -31.3 35.1 -32.4 M-27.75 -30.05 L-18.5 -29.5 -8.8 -28.85 Q-3.9 -28.05 0.95 -28.65 L4.05 -28.75 Q6.8 -28.65 9.25 -29.8 M-14.9 -0.95 L-4.95 -0.7 -1.4 -0.5 3.35 -0.25 12.6 -0.25 22.05 -0.25 24.2 -0.25 M-2.25 -39.15 L-8.1 -39.45" fill="none" stroke="#000000" stroke-linecap="round" stroke-linejoin="round" stroke-width="0.05"/>
  </g>
</svg>
