<svg xmlns:xlink="http://www.w3.org/1999/xlink" height="108.05px" width="52.9px" xmlns="http://www.w3.org/2000/svg">
  <g transform="matrix(1.0, 0.0, 0.0, 1.0, 23.4, 107.8)">
    <path d="M-15.2 -97.45 L-10.9 -106.9 -6.9 -98.15 -6.6 -97.45 -7.5 -97.05 -10.9 -104.55 -14.3 -97.05 -15.2 -97.45 M-3.95 -97.9 L-4.45 -98.6 Q-1.7 -100.85 -0.8 -106.3 L0.2 -105.8 0.3 -105.55 0.2 -105.55 Q-0.75 -100.25 -3.7 -97.6 L-3.95 -97.9 M9.8 -91.9 L10.35 -92.5 20.55 -84.0 20.15 -83.45 20.05 -83.35 9.8 -91.9 M26.65 -78.55 L27.15 -79.05 28.9 -76.8 Q29.5 -75.55 29.5 -73.9 29.5 -72.45 28.9 -71.2 L27.15 -68.7 26.65 -69.25 28.3 -71.55 Q28.8 -72.65 28.8 -73.9 28.8 -75.4 28.3 -76.5 27.8 -77.5 26.65 -78.55 M25.65 -68.05 L20.1 -68.05 13.7 -68.05 13.7 -68.55 25.65 -68.55 25.65 -68.05 M21.65 -65.0 Q24.0 -62.8 24.0 -59.85 24.0 -56.95 21.65 -54.75 L21.15 -55.3 Q23.3 -57.3 23.3 -59.85 23.3 -62.45 21.15 -64.45 L21.65 -65.0 M19.95 -51.05 L21.7 -48.8 Q22.3 -47.55 22.3 -45.9 22.3 -44.45 21.7 -43.2 L19.95 -40.7 19.45 -41.25 21.1 -43.55 Q21.6 -44.65 21.6 -45.9 21.6 -47.4 21.1 -48.5 20.6 -49.5 19.45 -50.55 L19.95 -51.05 M16.95 -37.95 L17.9 -37.95 17.9 -26.05 16.95 -26.05 16.95 -37.95 M18.3 -22.3 L19.3 -21.8 Q19.65 -21.6 19.3 -21.55 18.35 -16.25 15.4 -13.6 L15.05 -14.1 14.65 -14.6 Q17.4 -16.85 18.3 -22.3 M9.9 -7.85 L11.0 -7.85 11.0 -2.2 Q11.0 -1.15 10.35 -0.5 9.6 0.25 8.0 0.25 6.4 0.25 5.65 -0.5 5.0 -1.15 5.0 -2.2 L5.0 -7.85 6.05 -7.85 6.05 -2.25 Q6.05 -1.55 6.5 -1.15 7.0 -0.65 8.0 -0.65 9.0 -0.65 9.5 -1.15 9.9 -1.55 9.9 -2.25 L9.9 -7.85 M2.2 -7.35 L1.9 -6.95 1.05 -6.95 1.2 -7.25 2.25 -9.3 3.55 -9.3 2.2 -7.35 M-0.2 -7.15 L-0.35 -6.95 -1.2 -6.95 -1.1 -7.1 0.0 -9.3 1.3 -9.3 -0.2 -7.15 M-2.7 -7.1 L-2.7 -2.2 Q-2.7 -1.15 -3.35 -0.5 -4.1 0.25 -5.7 0.25 -7.3 0.25 -8.05 -0.5 -8.7 -1.15 -8.7 -2.2 L-8.7 -7.85 -7.65 -7.85 -7.65 -2.25 Q-7.65 -1.55 -7.2 -1.15 -6.7 -0.65 -5.7 -0.65 -4.7 -0.65 -4.2 -1.15 -3.8 -1.55 -3.8 -2.25 L-3.8 -7.85 -2.7 -7.85 -2.7 -7.1 M-11.45 -13.05 Q-14.7 -14.45 -16.05 -18.15 -17.05 -14.65 -20.5 -13.05 L-21.2 -14.05 Q-16.75 -15.8 -16.75 -20.5 L-16.75 -22.95 -16.7 -22.95 -15.7 -22.95 Q-15.25 -22.85 -15.7 -22.55 L-15.7 -20.65 Q-15.35 -16.15 -10.9 -14.2 L-11.45 -13.05 M-16.75 -26.05 L-16.75 -37.95 -16.7 -37.95 -15.8 -37.95 -15.8 -26.05 -16.75 -26.05 M-16.65 -40.05 L-17.6 -40.05 -17.6 -51.95 -16.65 -51.95 -16.65 -40.05 M-16.55 -54.05 L-17.5 -54.05 -17.5 -65.95 -16.55 -65.95 -16.55 -65.2 -16.55 -54.05 M-16.55 -69.7 L-16.55 -68.05 -17.5 -68.05 -17.5 -79.95 -17.45 -79.95 -16.55 -79.95 -16.55 -69.7 M-17.5 -82.05 L-17.5 -93.95 -16.55 -93.95 -16.55 -82.05 -17.5 -82.05 M2.4 -106.85 L1.8 -106.4 1.5 -105.75 1.05 -106.3 1.55 -107.3 2.35 -107.8 Q2.85 -107.8 3.4 -107.25 4.05 -106.65 4.45 -106.65 4.75 -106.65 5.1 -107.15 L5.35 -107.8 5.85 -107.15 5.25 -106.2 Q4.9 -105.6 4.35 -105.6 L3.3 -106.3 Q2.75 -106.85 2.4 -106.85 M11.95 -77.0 L11.95 -78.05 13.05 -78.05 13.05 -77.0 12.4 -75.6 11.95 -75.6 12.4 -77.0 11.95 -77.0 M20.1 -64.65 L19.95 -65.15 19.4 -65.35 18.9 -65.15 18.7 -64.65 18.9 -64.15 19.4 -63.95 Q19.75 -63.95 19.95 -64.15 L20.1 -64.65 M20.15 -65.4 L20.5 -64.65 20.15 -63.9 Q19.85 -63.55 19.4 -63.55 19.0 -63.55 18.65 -63.9 18.35 -64.25 18.35 -64.65 L18.65 -65.4 Q19.0 -65.75 19.4 -65.75 19.85 -65.75 20.15 -65.4 M6.95 -69.85 L5.85 -69.85 5.85 -70.85 6.95 -70.85 6.95 -69.85 M15.2 -64.95 L15.2 -56.7 16.25 -56.7 16.25 -54.1 15.35 -54.1 15.35 -55.8 8.75 -55.8 8.75 -54.1 7.85 -54.1 7.85 -56.7 8.65 -56.7 Q10.05 -58.65 10.05 -61.7 L10.05 -64.95 15.2 -64.95 M10.95 -64.05 L10.95 -61.7 Q10.95 -58.6 9.7 -56.7 L14.25 -56.7 14.25 -64.05 10.95 -64.05 M17.6 -51.95 L17.6 -40.05 16.65 -40.05 16.65 -51.95 17.6 -51.95 M-4.3 -87.3 L-5.8 -87.3 -5.8 -88.75 -4.3 -88.75 -4.3 -87.3 M-23.2 -88.2 L-22.95 -89.25 -19.5 -88.05 -19.85 -86.95 -23.2 -88.2 M-19.85 -90.05 L-23.2 -91.15 -23.0 -92.3 -19.6 -91.3 -19.85 -90.05 M-23.4 -85.05 L-23.2 -86.2 Q-21.0 -85.6 -19.0 -84.55 L-19.35 -83.3 Q-21.25 -84.35 -23.4 -85.05 M-19.85 -76.05 L-23.2 -77.15 -23.0 -78.3 -19.6 -77.3 -19.85 -76.05 M-19.5 -74.05 L-19.85 -72.95 -23.2 -74.2 -22.95 -75.25 -19.5 -74.05 M-23.2 -72.2 Q-21.0 -71.6 -19.0 -70.55 L-19.35 -69.3 Q-21.25 -70.35 -23.4 -71.05 L-23.2 -72.2 M-23.0 -64.3 L-19.6 -63.3 -19.85 -62.05 -23.2 -63.15 -23.0 -64.3 M-14.95 -55.85 L-14.95 -56.85 -13.85 -56.85 -13.85 -55.85 -14.95 -55.85 M-19.0 -56.55 L-19.35 -55.3 Q-21.25 -56.35 -23.4 -57.05 L-23.2 -58.2 Q-21.0 -57.6 -19.0 -56.55 M-19.85 -58.95 L-23.2 -60.2 -22.95 -61.25 -19.5 -60.05 -19.85 -58.95 M2.05 -69.85 L0.95 -69.85 0.95 -70.85 2.05 -70.85 2.05 -69.85 M3.4 -70.85 L4.5 -70.85 4.5 -69.85 3.4 -69.85 3.4 -70.85 M-1.95 -64.45 Q-4.1 -62.45 -4.1 -59.85 -4.1 -57.3 -1.95 -55.3 L-2.5 -54.75 Q-4.85 -56.95 -4.85 -59.85 -4.85 -62.8 -2.5 -65.0 L-1.95 -64.45 M4.65 -65.35 L4.15 -65.15 3.95 -64.65 4.15 -64.15 Q4.35 -63.95 4.65 -63.95 L5.2 -64.15 5.35 -64.65 5.2 -65.15 4.65 -65.35 M5.4 -65.4 L5.75 -64.65 5.4 -63.9 Q5.1 -63.55 4.65 -63.55 4.25 -63.55 3.9 -63.9 3.6 -64.25 3.6 -64.65 L3.9 -65.4 4.65 -65.75 Q5.1 -65.75 5.4 -65.4 M-7.6 -51.05 L-7.1 -50.55 -8.7 -48.5 Q-9.25 -47.4 -9.25 -45.9 -9.25 -44.65 -8.7 -43.55 -8.25 -42.5 -7.1 -41.25 L-7.6 -40.7 -9.35 -43.2 Q-9.95 -44.45 -9.95 -45.9 -9.95 -47.55 -9.35 -48.8 L-7.6 -51.05 M2.65 -55.85 L2.0 -54.55 1.55 -54.55 2.0 -55.85 1.55 -55.85 1.55 -56.85 2.65 -56.85 2.65 -55.85 M0.2 -56.85 L0.2 -55.85 -0.45 -54.55 -0.9 -54.55 -0.45 -55.85 -0.9 -55.85 -0.9 -56.85 0.2 -56.85 M-0.95 -49.55 Q-1.9 -44.25 -4.85 -41.6 L-5.6 -42.6 Q-2.85 -44.85 -1.95 -50.3 L-0.95 -49.8 Q-0.6 -49.6 -0.95 -49.55 M6.0 -34.25 L3.35 -34.25 3.35 -33.35 6.0 -33.35 6.0 -34.25 M6.0 -36.05 L3.35 -36.05 3.35 -35.15 6.0 -35.15 6.0 -36.05 M3.35 -31.45 L6.0 -31.45 6.0 -32.5 3.35 -32.5 3.35 -31.45 M3.35 -30.25 L2.4 -30.25 2.4 -36.95 10.5 -36.95 10.5 -36.05 6.95 -36.05 6.95 -35.15 9.85 -35.15 9.85 -34.25 6.95 -34.25 6.95 -33.35 9.9 -33.35 9.9 -32.5 6.95 -32.5 6.95 -31.45 11.15 -31.45 10.85 -27.85 Q10.75 -26.7 9.95 -26.7 L8.65 -26.7 8.4 -27.6 9.6 -27.6 Q9.85 -27.6 9.9 -28.0 L10.15 -30.55 3.35 -30.55 3.35 -30.25 M4.75 -29.6 Q5.05 -28.7 5.0 -27.55 L3.95 -27.35 3.8 -29.55 4.75 -29.6 M5.65 -29.6 L6.55 -29.85 7.2 -28.05 6.2 -27.75 5.65 -29.6 M2.3 -27.15 L1.4 -27.6 Q2.0 -28.55 2.25 -29.8 L3.15 -29.55 Q3.0 -28.15 2.3 -27.15 M-9.4 -14.85 L-8.3 -14.85 -8.3 -13.85 -9.4 -13.85 -9.4 -14.85 M-5.2 -12.55 L6.75 -12.55 6.75 -12.05 -5.2 -12.05 -5.2 -12.55 M-5.85 -13.85 L-6.95 -13.85 -6.95 -14.85 -5.85 -14.85 -5.85 -13.85 M7.5 -29.8 L8.4 -30.15 9.3 -28.4 8.25 -28.05 7.5 -29.8 M11.05 -14.85 L11.05 -13.85 10.4 -12.55 9.95 -12.55 10.4 -13.85 9.95 -13.85 9.95 -14.85 11.05 -14.85 M8.6 -14.85 L8.6 -13.85 7.95 -12.55 7.5 -12.55 7.95 -13.85 7.5 -13.85 7.5 -14.85 8.6 -14.85 M13.5 -14.85 L13.5 -13.85 12.85 -12.55 12.4 -12.55 12.85 -13.85 12.4 -13.85 12.4 -14.85 13.5 -14.85" fill="#000000" fill-rule="evenodd" stroke="none"/>
    <path d="M-6.9 -98.15 L-4.4 -97.2 -3.95 -97.9 -3.7 -97.6 Q-0.75 -100.25 0.2 -105.55 L0.3 -105.55 Q1.55 -102.2 3.0 -99.35 4.45 -96.55 7.45 -94.35 9.0 -93.2 9.8 -91.9 L20.05 -83.35 20.15 -83.45 Q23.1 -82.1 25.7 -79.85 L26.65 -78.55 Q27.8 -77.5 28.3 -76.5 28.8 -75.4 28.8 -73.9 28.8 -72.65 28.3 -71.55 L26.65 -69.25 27.15 -68.7 Q25.9 -68.5 25.65 -68.05 L25.65 -68.55 13.7 -68.55 13.7 -68.05 20.1 -68.05 19.9 -67.45 Q20.7 -65.9 21.65 -65.0 L21.15 -64.45 Q23.3 -62.45 23.3 -59.85 23.3 -57.3 21.15 -55.3 L21.65 -54.75 Q20.25 -53.9 18.45 -53.3 18.8 -52.1 19.95 -51.05 L19.45 -50.55 Q20.6 -49.5 21.1 -48.5 21.6 -47.4 21.6 -45.9 21.6 -44.65 21.1 -43.55 L19.45 -41.25 19.95 -40.7 Q18.9 -38.45 16.95 -37.95 L16.95 -26.05 17.9 -26.05 Q18.35 -24.35 18.3 -22.3 17.4 -16.85 14.65 -14.6 L15.05 -14.1 13.05 -12.1 Q11.3 -10.55 11.1 -9.35 10.85 -8.15 9.9 -7.85 L9.9 -2.25 Q9.9 -1.55 9.5 -1.15 9.0 -0.65 8.0 -0.65 7.0 -0.65 6.5 -1.15 6.05 -1.55 6.05 -2.25 L6.05 -7.85 5.0 -7.85 2.2 -7.35 3.55 -9.3 2.25 -9.3 1.2 -7.25 -0.2 -7.15 1.3 -9.3 0.0 -9.3 -1.1 -7.1 -2.7 -7.1 -2.7 -7.85 -3.8 -7.85 -3.8 -2.25 Q-3.8 -1.55 -4.2 -1.15 -4.7 -0.65 -5.7 -0.65 -6.7 -0.65 -7.2 -1.15 -7.65 -1.55 -7.65 -2.25 L-7.65 -7.85 -8.7 -7.85 -9.55 -10.7 Q-9.95 -12.05 -11.45 -13.05 L-10.9 -14.2 Q-15.35 -16.15 -15.7 -20.65 L-15.7 -22.55 Q-15.25 -22.85 -15.7 -22.95 L-16.7 -22.95 Q-16.65 -24.65 -16.75 -26.05 L-15.8 -26.05 -15.8 -37.95 -16.7 -37.95 -16.65 -40.05 -16.65 -51.95 -17.6 -51.95 -16.55 -54.05 -16.55 -65.2 -16.55 -69.7 -16.55 -79.95 -17.45 -79.95 -17.5 -82.05 -16.55 -82.05 -16.55 -93.95 -17.5 -93.95 Q-16.95 -96.3 -15.2 -97.45 L-14.3 -97.05 -10.9 -104.55 -7.5 -97.05 -6.6 -97.45 -6.9 -98.15 M-4.3 -87.3 L-4.3 -88.75 -5.8 -88.75 -5.8 -87.3 -4.3 -87.3 M17.6 -51.95 L16.65 -51.95 16.65 -40.05 17.6 -40.05 17.6 -51.95 M10.95 -64.05 L14.25 -64.05 14.25 -56.7 9.7 -56.7 Q10.95 -58.6 10.95 -61.7 L10.95 -64.05 M15.2 -64.95 L10.05 -64.95 10.05 -61.7 Q10.05 -58.65 8.65 -56.7 L7.85 -56.7 7.85 -54.1 8.75 -54.1 8.75 -55.8 15.35 -55.8 15.35 -54.1 16.25 -54.1 16.25 -56.7 15.2 -56.7 15.2 -64.95 M6.95 -69.85 L6.95 -70.85 5.85 -70.85 5.85 -69.85 6.95 -69.85 M20.15 -65.4 Q19.85 -65.75 19.4 -65.75 19.0 -65.75 18.65 -65.4 L18.35 -64.65 Q18.35 -64.25 18.65 -63.9 19.0 -63.55 19.4 -63.55 19.85 -63.55 20.15 -63.9 L20.5 -64.65 20.15 -65.4 M20.1 -64.65 L19.95 -64.15 Q19.75 -63.95 19.4 -63.95 L18.9 -64.15 18.7 -64.65 18.9 -65.15 19.4 -65.35 19.95 -65.15 20.1 -64.65 M11.95 -77.0 L12.4 -77.0 11.95 -75.6 12.4 -75.6 13.05 -77.0 13.05 -78.05 11.95 -78.05 11.95 -77.0 M-14.95 -55.85 L-13.85 -55.85 -13.85 -56.85 -14.95 -56.85 -14.95 -55.85 M13.5 -14.85 L12.4 -14.85 12.4 -13.85 12.85 -13.85 12.4 -12.55 12.85 -12.55 13.5 -13.85 13.5 -14.85 M8.6 -14.85 L7.5 -14.85 7.5 -13.85 7.95 -13.85 7.5 -12.55 7.95 -12.55 8.6 -13.85 8.6 -14.85 M11.05 -14.85 L9.95 -14.85 9.95 -13.85 10.4 -13.85 9.95 -12.55 10.4 -12.55 11.05 -13.85 11.05 -14.85 M7.5 -29.8 L8.25 -28.05 9.3 -28.4 8.4 -30.15 7.5 -29.8 M-5.85 -13.85 L-5.85 -14.85 -6.95 -14.85 -6.95 -13.85 -5.85 -13.85 M-5.2 -12.55 L-5.2 -12.05 6.75 -12.05 6.75 -12.55 -5.2 -12.55 M-9.4 -14.85 L-9.4 -13.85 -8.3 -13.85 -8.3 -14.85 -9.4 -14.85 M2.3 -27.15 Q3.0 -28.15 3.15 -29.55 L2.25 -29.8 Q2.0 -28.55 1.4 -27.6 L2.3 -27.15 M5.65 -29.6 L6.2 -27.75 7.2 -28.05 6.55 -29.85 5.65 -29.6 M4.75 -29.6 L3.8 -29.55 3.95 -27.35 5.0 -27.55 Q5.05 -28.7 4.75 -29.6 M3.35 -30.25 L3.35 -30.55 10.15 -30.55 9.9 -28.0 Q9.85 -27.6 9.6 -27.6 L8.4 -27.6 8.65 -26.7 9.95 -26.7 Q10.75 -26.7 10.85 -27.85 L11.15 -31.45 6.95 -31.45 6.95 -32.5 9.9 -32.5 9.9 -33.35 6.95 -33.35 6.95 -34.25 9.85 -34.25 9.85 -35.15 6.95 -35.15 6.95 -36.05 10.5 -36.05 10.5 -36.95 2.4 -36.95 2.4 -30.25 3.35 -30.25 M3.35 -31.45 L3.35 -32.5 6.0 -32.5 6.0 -31.45 3.35 -31.45 M6.0 -36.05 L6.0 -35.15 3.35 -35.15 3.35 -36.05 6.0 -36.05 M6.0 -34.25 L6.0 -33.35 3.35 -33.35 3.35 -34.25 6.0 -34.25 M-0.95 -49.55 Q-0.6 -49.6 -0.95 -49.8 L-1.95 -50.3 Q-2.85 -44.85 -5.6 -42.6 L-4.85 -41.6 Q-1.9 -44.25 -0.95 -49.55 M0.2 -56.85 L-0.9 -56.85 -0.9 -55.85 -0.45 -55.85 -0.9 -54.55 -0.45 -54.55 0.2 -55.85 0.2 -56.85 M2.65 -55.85 L2.65 -56.85 1.55 -56.85 1.55 -55.85 2.0 -55.85 1.55 -54.55 2.0 -54.55 2.65 -55.85 M-7.6 -51.05 L-9.35 -48.8 Q-9.95 -47.55 -9.95 -45.9 -9.95 -44.45 -9.35 -43.2 L-7.6 -40.7 -7.1 -41.25 Q-8.25 -42.5 -8.7 -43.55 -9.25 -44.65 -9.25 -45.9 -9.25 -47.4 -8.7 -48.5 L-7.1 -50.55 -7.6 -51.05 M5.4 -65.4 Q5.1 -65.75 4.65 -65.75 L3.9 -65.4 3.6 -64.65 Q3.6 -64.25 3.9 -63.9 4.25 -63.55 4.65 -63.55 5.1 -63.55 5.4 -63.9 L5.75 -64.65 5.4 -65.4 M4.65 -65.35 L5.2 -65.15 5.35 -64.65 5.2 -64.15 4.65 -63.95 Q4.35 -63.95 4.15 -64.15 L3.95 -64.65 4.15 -65.15 4.65 -65.35 M-1.95 -64.45 L-2.5 -65.0 Q-4.85 -62.8 -4.85 -59.85 -4.85 -56.95 -2.5 -54.75 L-1.95 -55.3 Q-4.1 -57.3 -4.1 -59.85 -4.1 -62.45 -1.95 -64.45 M3.4 -70.85 L3.4 -69.85 4.5 -69.85 4.5 -70.85 3.4 -70.85 M2.05 -69.85 L2.05 -70.85 0.95 -70.85 0.95 -69.85 2.05 -69.85" fill="#ffffff" fill-rule="evenodd" stroke="none"/>
  </g>
</svg>
