<svg xmlns:xlink="http://www.w3.org/1999/xlink" height="69.25px" width="76.35px" xmlns="http://www.w3.org/2000/svg">
  <g transform="matrix(1.0, 0.0, 0.0, 1.0, 40.9, 68.5)">
    <path d="M6.0 -56.05 Q7.8 -53.05 11.1 -50.85 L11.95 -50.15 11.75 -50.0 12.2 -49.55 13.95 -47.25 Q14.65 -45.8 14.65 -43.8 14.65 -42.15 13.95 -40.65 13.3 -39.25 11.75 -37.55 L12.45 -36.9 13.05 -37.55 Q15.95 -35.65 18.25 -32.65 L17.55 -32.0 19.75 -29.25 Q20.45 -27.8 20.45 -25.8 20.45 -24.15 19.75 -22.65 19.1 -21.25 17.55 -19.55 L18.25 -18.9 18.3 -18.9 23.1 -14.65 22.4 -14.0 Q23.95 -12.55 24.6 -11.25 25.3 -9.8 25.3 -7.8 25.3 -6.15 24.6 -4.65 23.95 -3.25 22.4 -1.55 L22.8 -1.2 23.0 -0.8 21.8 0.05 -21.9 0.05 -23.45 -0.9 -22.75 -1.55 Q-24.0 -2.9 -24.65 -4.1 L-24.95 -4.65 Q-25.65 -6.15 -25.65 -7.8 -25.65 -9.8 -24.95 -11.25 L-24.15 -12.5 -22.75 -14.0 Q-20.95 -17.25 -18.35 -19.65 L-17.7 -18.9 -17.0 -19.55 Q-18.55 -21.25 -19.2 -22.65 -19.9 -24.15 -19.9 -25.8 -19.9 -27.8 -19.2 -29.25 -18.55 -30.55 -17.0 -32.0 L-17.7 -32.65 -12.8 -37.35 -12.4 -36.9 -11.7 -37.55 Q-13.25 -39.25 -13.9 -40.65 -14.6 -42.15 -14.6 -43.8 -14.6 -45.8 -13.9 -47.25 L-11.7 -50.0 -12.35 -50.6 -8.0 -54.85 -6.9 -55.95 -6.45 -55.3 Q-3.45 -56.7 -1.85 -59.15 -1.0 -60.5 -0.55 -62.15 L0.55 -59.8 Q2.4 -56.7 5.6 -55.3 L6.0 -56.05 M17.15 -6.65 L17.15 -9.3 14.5 -9.3 14.5 -6.65 17.15 -6.65 M3.85 -4.95 L1.35 -9.4 6.35 -9.4 3.85 -4.95 M7.0 -10.7 L0.75 -10.7 -0.7 -13.25 -1.9 -12.55 3.85 -2.15 9.6 -12.55 8.4 -13.25 7.0 -10.7 M0.25 -18.0 L0.25 -18.7 -15.7 -18.7 -15.7 -18.0 0.25 -18.0 M16.25 -18.0 L16.25 -18.7 0.3 -18.7 0.3 -18.0 16.25 -18.0 M5.55 -36.0 L5.55 -36.7 -10.4 -36.7 -10.4 -36.0 5.55 -36.0 M10.4 -36.65 L10.4 -37.4 5.6 -37.4 5.6 -36.65 10.4 -36.65 M-6.85 -9.3 L-9.5 -9.3 -9.5 -6.65 -6.85 -6.65 -6.85 -9.3" fill="#ffffff" fill-rule="evenodd" stroke="none"/>
    <path d="M-6.9 -55.95 L-7.4 -56.7 Q-5.95 -57.25 -4.85 -58.05 -1.45 -60.5 -1.45 -65.25 L-1.45 -68.5 -0.1 -68.5 Q0.55 -68.4 -0.05 -68.0 L-0.05 -65.45 Q0.2 -62.1 2.15 -59.85 3.7 -58.05 6.35 -56.9 L6.0 -56.05 5.6 -55.3 Q2.4 -56.7 0.55 -59.8 L-0.55 -62.15 Q-1.0 -60.5 -1.85 -59.15 -3.45 -56.7 -6.45 -55.3 L-6.9 -55.95 M11.95 -50.15 L12.45 -50.65 Q14.05 -49.15 14.75 -47.7 15.55 -46.0 15.55 -43.8 15.55 -41.9 14.75 -40.2 L13.05 -37.55 12.45 -36.9 11.75 -37.55 Q13.3 -39.25 13.95 -40.65 14.65 -42.15 14.65 -43.8 14.65 -45.8 13.95 -47.25 L12.2 -49.55 11.75 -50.0 11.95 -50.15 M18.25 -32.65 Q19.85 -31.15 20.55 -29.7 L21.3 -26.85 21.35 -25.8 Q21.35 -23.9 20.55 -22.2 L19.7 -20.7 18.3 -18.9 18.25 -18.9 17.55 -19.55 Q19.1 -21.25 19.75 -22.65 20.45 -24.15 20.45 -25.8 20.45 -27.8 19.75 -29.25 L17.55 -32.0 18.25 -32.65 M23.1 -14.65 Q24.7 -13.15 25.4 -11.7 26.2 -10.0 26.2 -7.8 26.2 -5.9 25.4 -4.2 24.65 -2.65 23.1 -0.9 L22.8 -1.2 22.4 -1.55 Q23.95 -3.25 24.6 -4.65 25.3 -6.15 25.3 -7.8 25.3 -9.8 24.6 -11.25 23.95 -12.55 22.4 -14.0 L23.1 -14.65 M21.8 0.05 L20.8 0.75 -20.35 0.75 -21.9 0.05 21.8 0.05 M-23.45 -0.9 L-24.75 -2.55 -25.75 -4.2 Q-26.55 -5.9 -26.55 -7.8 -26.55 -10.0 -25.75 -11.7 -25.2 -12.85 -24.05 -14.05 L-23.45 -14.65 -22.75 -14.0 -24.15 -12.5 -24.95 -11.25 Q-25.65 -9.8 -25.65 -7.8 -25.65 -6.15 -24.95 -4.65 L-24.65 -4.1 Q-24.0 -2.9 -22.75 -1.55 L-23.45 -0.9 M-18.35 -19.65 L-20.0 -22.2 -20.1 -22.45 Q-20.8 -24.05 -20.8 -25.8 -20.8 -27.9 -20.05 -29.55 L-20.0 -29.7 Q-19.3 -31.15 -17.7 -32.65 L-17.0 -32.0 Q-18.55 -30.55 -19.2 -29.25 -19.9 -27.8 -19.9 -25.8 -19.9 -24.15 -19.2 -22.65 -18.55 -21.25 -17.0 -19.55 L-17.7 -18.9 -18.35 -19.65 M-12.8 -37.35 Q-14.05 -38.85 -14.7 -40.2 -15.5 -41.9 -15.5 -43.8 -15.5 -46.0 -14.7 -47.7 L-13.1 -49.95 -12.4 -50.65 -12.35 -50.6 -11.7 -50.0 -13.9 -47.25 Q-14.6 -45.8 -14.6 -43.8 -14.6 -42.15 -13.9 -40.65 -13.25 -39.25 -11.7 -37.55 L-12.4 -36.9 -12.8 -37.35 M35.45 -30.75 L21.8 -19.35 21.1 -20.15 34.75 -31.55 35.45 -30.75 M10.4 -36.65 L5.6 -36.65 5.6 -37.4 10.4 -37.4 10.4 -36.65 M5.55 -36.0 L-10.4 -36.0 -10.4 -36.7 5.55 -36.7 5.55 -36.0 M16.25 -18.0 L0.3 -18.0 0.3 -18.7 16.25 -18.7 16.25 -18.0 M0.25 -18.0 L-15.7 -18.0 -15.7 -18.7 0.25 -18.7 0.25 -18.0 M7.0 -10.7 L8.4 -13.25 9.6 -12.55 3.85 -2.15 -1.9 -12.55 -0.7 -13.25 0.75 -10.7 7.0 -10.7 M3.85 -4.95 L6.35 -9.4 1.35 -9.4 3.85 -4.95 M17.15 -6.65 L14.5 -6.65 14.5 -9.3 17.15 -9.3 17.15 -6.65 M-27.25 -19.35 L-40.9 -30.75 -40.2 -31.55 -26.55 -20.15 -27.25 -19.35 M-6.85 -9.3 L-6.85 -6.65 -9.5 -6.65 -9.5 -9.3 -6.85 -9.3" fill="#000000" fill-rule="evenodd" stroke="none"/>
  </g>
</svg>
