<svg xmlns:xlink="http://www.w3.org/1999/xlink" height="80.35px" width="51.6px" xmlns="http://www.w3.org/2000/svg">
  <g transform="matrix(1.0, 0.0, 0.0, 1.0, 27.85, 80.4)">
    <path d="M6.2 -70.3 L5.3 -70.3 9.75 -80.4 11.15 -80.4 15.6 -70.3 14.05 -70.3 13.0 -72.85 7.85 -72.85 6.8 -70.3 6.2 -70.3 M18.35 -64.4 L18.7 -64.75 Q20.25 -63.35 20.9 -62.0 21.65 -60.4 21.65 -58.35 21.65 -56.55 20.9 -54.95 20.2 -53.5 18.7 -51.85 L18.05 -52.5 Q19.55 -54.1 20.1 -55.4 20.75 -56.8 20.75 -58.35 20.75 -60.25 20.1 -61.6 19.55 -62.85 18.05 -64.15 L18.35 -64.4 M17.0 -47.75 Q18.55 -46.35 19.2 -45.0 L19.75 -43.4 19.95 -41.35 19.7 -39.35 19.2 -37.95 Q18.5 -36.5 17.0 -34.85 L16.35 -35.5 Q17.85 -37.1 18.4 -38.4 19.05 -39.8 19.05 -41.35 19.05 -43.25 18.4 -44.6 17.85 -45.85 16.35 -47.15 L17.0 -47.75 M15.6 -31.95 L16.3 -31.95 16.3 -17.05 15.1 -17.05 15.1 -31.95 15.6 -31.95 M20.15 -13.15 L20.8 -13.75 Q22.35 -12.35 23.0 -11.0 23.75 -9.4 23.75 -7.35 23.75 -5.55 23.0 -3.95 22.3 -2.5 20.8 -0.85 L20.15 -1.5 Q21.65 -3.1 22.2 -4.4 22.85 -5.8 22.85 -7.35 22.85 -9.25 22.2 -10.6 21.65 -11.85 20.15 -13.15 M18.9 -0.7 L18.95 -0.7 18.95 -0.05 4.0 -0.05 4.0 -0.7 18.9 -0.7 M-3.55 -0.7 L-3.55 -0.05 -18.5 -0.05 -18.5 -0.65 -18.5 -0.7 -3.55 -0.7 M-18.55 -0.65 L-23.05 -0.65 -23.05 -1.35 -18.55 -1.35 -18.55 -0.65 M-24.9 -0.85 L-25.35 -1.35 -27.1 -3.95 Q-27.7 -5.25 -27.8 -6.7 L-27.85 -7.35 Q-27.85 -9.25 -27.2 -10.75 L-27.1 -11.0 Q-26.45 -12.35 -24.9 -13.75 L-24.5 -13.35 -24.3 -13.15 -24.95 -12.55 -26.35 -10.6 Q-27.0 -9.25 -27.0 -7.35 -27.0 -5.8 -26.35 -4.4 L-24.3 -1.5 -24.9 -0.85 M-23.05 -17.05 L-23.65 -17.05 -23.65 -32.0 -22.45 -32.0 -22.45 -17.05 -23.05 -17.05 M-24.4 -35.35 L-24.9 -34.85 -26.3 -36.6 -27.1 -37.95 Q-27.85 -39.55 -27.85 -41.35 -27.85 -43.4 -27.1 -45.0 L-26.95 -45.25 Q-26.3 -46.5 -24.9 -47.75 L-24.3 -47.15 Q-25.75 -45.85 -26.35 -44.6 -26.95 -43.4 -27.0 -41.7 L-27.0 -41.35 -27.0 -41.3 Q-27.0 -39.8 -26.35 -38.4 -25.85 -37.3 -24.75 -36.0 L-24.3 -35.5 -24.4 -35.35 M-24.9 -51.85 L-26.85 -54.5 -27.1 -54.95 Q-27.85 -56.55 -27.85 -58.35 -27.85 -60.15 -27.25 -61.6 L-27.1 -62.0 Q-26.45 -63.35 -24.9 -64.75 L-24.3 -64.15 Q-25.75 -62.85 -26.35 -61.6 L-26.55 -61.05 Q-27.0 -59.85 -27.0 -58.35 -27.0 -56.8 -26.35 -55.4 L-26.3 -55.35 Q-25.7 -54.05 -24.3 -52.5 L-24.9 -51.85 M-19.95 -71.25 L-15.95 -80.4 -14.55 -80.4 -10.1 -70.3 -10.9 -70.3 -11.65 -70.3 -12.7 -72.85 -17.85 -72.85 -18.9 -70.3 -20.4 -70.3 -19.95 -71.25 M-9.9 -68.7 L5.05 -68.7 5.05 -68.05 -9.9 -68.05 -9.9 -68.7 M10.35 -78.85 L8.45 -74.2 12.4 -74.2 10.5 -78.85 10.35 -78.85 M7.3 -62.85 L1.9 -53.05 -3.5 -62.85 -2.4 -63.45 -1.05 -61.05 4.85 -61.05 6.2 -63.45 7.3 -62.85 M4.25 -59.85 L-0.45 -59.85 1.9 -55.7 4.25 -59.85 M14.4 -59.8 L14.4 -57.25 11.85 -57.25 11.85 -59.8 14.4 -59.8 M1.25 -7.35 Q1.25 -5.9 0.75 -4.55 L0.5 -3.95 Q-0.2 -2.5 -1.7 -0.85 L-2.35 -1.5 Q-0.85 -3.1 -0.3 -4.35 L-0.3 -4.4 Q0.35 -5.8 0.35 -7.35 0.35 -9.25 -0.3 -10.6 -0.85 -11.85 -2.35 -13.15 L-1.7 -13.75 Q-0.15 -12.35 0.5 -11.0 1.25 -9.4 1.25 -7.35 M-15.35 -78.85 L-17.25 -74.2 -13.3 -74.2 -15.2 -78.85 -15.35 -78.85 M-10.65 -59.8 L-8.1 -59.8 -8.1 -57.25 -10.65 -57.25 -10.65 -59.8 M-15.8 -45.85 Q-14.25 -45.85 -13.25 -44.95 -11.9 -43.8 -12.05 -41.35 -12.15 -38.9 -13.9 -37.6 -15.55 -36.4 -18.55 -36.4 L-18.85 -37.75 Q-15.45 -37.75 -14.2 -39.15 -13.25 -40.1 -13.3 -41.85 -13.3 -43.05 -13.95 -43.85 -14.55 -44.55 -15.6 -44.6 -16.8 -44.65 -18.6 -44.0 L-21.9 -42.6 -22.4 -44.05 -22.0 -44.15 -18.65 -45.35 -15.8 -45.85 M-2.9 -32.0 L-2.9 -17.05 -4.1 -17.05 -4.1 -32.0 -2.9 -32.0" fill="#000000" fill-rule="evenodd" stroke="none"/>
    <path d="M15.6 -70.3 Q17.2 -67.5 18.35 -64.4 L18.05 -64.15 Q19.55 -62.85 20.1 -61.6 20.75 -60.25 20.75 -58.35 20.75 -56.8 20.1 -55.4 19.55 -54.1 18.05 -52.5 L18.7 -51.85 Q17.9 -49.2 17.0 -47.75 L16.35 -47.15 Q17.85 -45.85 18.4 -44.6 19.05 -43.25 19.05 -41.35 19.05 -39.8 18.4 -38.4 17.85 -37.1 16.35 -35.5 L17.0 -34.85 15.6 -31.95 15.1 -31.95 15.1 -17.05 16.3 -17.05 Q18.65 -15.15 20.15 -13.15 21.65 -11.85 22.2 -10.6 22.85 -9.25 22.85 -7.35 22.85 -5.8 22.2 -4.4 21.65 -3.1 20.15 -1.5 L18.9 -0.7 4.0 -0.7 Q-0.1 0.0 -3.55 -0.7 L-18.5 -0.7 -18.5 -0.65 -18.55 -0.65 -18.55 -1.35 -23.05 -1.35 -23.05 -0.65 -24.9 -0.85 -24.3 -1.5 -26.35 -4.4 Q-27.0 -5.8 -27.0 -7.35 -27.0 -9.25 -26.35 -10.6 L-24.95 -12.55 -24.3 -13.15 -24.5 -13.35 Q-23.4 -15.55 -23.05 -17.05 L-22.45 -17.05 -22.45 -32.0 -24.4 -35.35 -24.3 -35.5 -24.75 -36.0 Q-25.85 -37.3 -26.35 -38.4 -27.0 -39.8 -27.0 -41.3 L-27.0 -41.35 -27.0 -41.7 Q-26.95 -43.4 -26.35 -44.6 -25.75 -45.85 -24.3 -47.15 L-24.9 -51.85 -24.3 -52.5 Q-25.7 -54.05 -26.3 -55.35 L-26.35 -55.4 Q-27.0 -56.8 -27.0 -58.35 -27.0 -59.85 -26.55 -61.05 L-26.35 -61.6 Q-25.75 -62.85 -24.3 -64.15 L-24.9 -64.75 -20.0 -71.25 -19.95 -71.25 -20.4 -70.3 -18.9 -70.3 -17.85 -72.85 -12.7 -72.85 -11.65 -70.3 -10.9 -70.3 Q-10.05 -69.9 -9.9 -68.7 L-9.9 -68.05 5.05 -68.05 5.05 -68.7 Q5.5 -69.6 6.2 -70.3 L6.8 -70.3 7.85 -72.85 13.0 -72.85 14.05 -70.3 15.6 -70.3 M-2.9 -32.0 L-4.1 -32.0 -4.1 -17.05 -2.9 -17.05 -2.9 -32.0 M-15.8 -45.85 L-18.65 -45.35 -22.0 -44.15 -22.4 -44.05 -21.9 -42.6 -18.6 -44.0 Q-16.8 -44.65 -15.6 -44.6 -14.55 -44.55 -13.95 -43.85 -13.3 -43.05 -13.3 -41.85 -13.25 -40.1 -14.2 -39.15 -15.45 -37.75 -18.85 -37.75 L-18.55 -36.4 Q-15.55 -36.4 -13.9 -37.6 -12.15 -38.9 -12.05 -41.35 -11.9 -43.8 -13.25 -44.95 -14.25 -45.85 -15.8 -45.85 M-10.65 -59.8 L-10.65 -57.25 -8.1 -57.25 -8.1 -59.8 -10.65 -59.8 M-15.35 -78.85 L-15.2 -78.85 -13.3 -74.2 -17.25 -74.2 -15.35 -78.85 M1.25 -7.35 Q1.25 -9.4 0.5 -11.0 -0.15 -12.35 -1.7 -13.75 L-2.35 -13.15 Q-0.85 -11.85 -0.3 -10.6 0.35 -9.25 0.35 -7.35 0.35 -5.8 -0.3 -4.4 L-0.3 -4.35 Q-0.85 -3.1 -2.35 -1.5 L-1.7 -0.85 Q-0.2 -2.5 0.5 -3.95 L0.75 -4.55 Q1.25 -5.9 1.25 -7.35 M14.4 -59.8 L11.85 -59.8 11.85 -57.25 14.4 -57.25 14.4 -59.8 M4.25 -59.85 L1.9 -55.7 -0.45 -59.85 4.25 -59.85 M7.3 -62.85 L6.2 -63.45 4.85 -61.05 -1.05 -61.05 -2.4 -63.45 -3.5 -62.85 1.9 -53.05 7.3 -62.85 M10.35 -78.85 L10.5 -78.85 12.4 -74.2 8.45 -74.2 10.35 -78.85" fill="#ffffff" fill-rule="evenodd" stroke="none"/>
  </g>
</svg>
