<?xml version="1.0" encoding="UTF-8" standalone="no"?>
<svg xmlns:xlink="http://www.w3.org/1999/xlink" height="50.75px" width="29.75px" xmlns="http://www.w3.org/2000/svg">
  <g transform="matrix(1.0, 0.0, 0.0, 1.0, 15.55, 49.9)">
    <path d="M6.25 -4.4 Q4.05 -6.2 7.35 -7.55 10.6 -8.95 11.55 -6.75 12.4 -4.55 10.4 -3.6 8.35 -2.65 6.25 -4.4" fill="#ffffff" fill-rule="evenodd" stroke="none"/>
    <path d="M6.25 -4.4 Q4.05 -6.2 7.35 -7.55 10.6 -8.95 11.55 -6.75 12.4 -4.55 10.4 -3.6 8.35 -2.65 6.25 -4.4 Z" fill="none" stroke="#8f7c3f" stroke-linecap="round" stroke-linejoin="round" stroke-width="1.0"/>
    <path d="M-6.9 -34.3 L-10.5 -37.2 Q-12.95 -39.35 -14.1 -41.8 -15.3 -44.3 -14.95 -47.35 -14.6 -50.4 -10.85 -48.45 -7.2 -46.45 -6.1 -43.7 L-4.55 -38.7 Q-4.0 -36.5 -3.95 -33.85 L-3.95 -33.65 -3.95 -33.85 Q-4.1 -35.4 -4.6 -36.2 L-5.7 -38.5 Q-6.3 -39.9 -7.2 -41.3 -8.1 -42.75 -9.2 -43.15 -10.35 -43.55 -10.85 -42.9 -11.4 -42.25 -10.85 -40.3 -10.3 -38.4 -8.9 -37.25 L-6.45 -35.1 -6.9 -34.3" fill="#ffffff" fill-rule="evenodd" stroke="none"/>
    <path d="M-6.45 -35.1 L-8.9 -37.25 Q-10.3 -38.4 -10.85 -40.3 -11.4 -42.25 -10.85 -42.9 -10.35 -43.55 -9.2 -43.15 -8.1 -42.75 -7.2 -41.3 -6.3 -39.9 -5.7 -38.5 L-4.6 -36.2 Q-4.1 -35.4 -3.95 -33.85 L-3.95 -33.65 -4.4 -33.55 -6.45 -35.1" fill="#e2d5c0" fill-rule="evenodd" stroke="none"/>
    <path d="M-3.95 -33.65 L-3.95 -33.85 Q-4.0 -36.5 -4.55 -38.7 L-6.1 -43.7 Q-7.2 -46.45 -10.85 -48.45 -14.6 -50.4 -14.95 -47.35 -15.3 -44.3 -14.1 -41.8 -12.95 -39.35 -10.5 -37.2 L-6.9 -34.3 Q-5.55 -33.45 -4.4 -33.55 L-3.95 -33.65 -3.9 -33.65 -3.75 -34.3 -3.7 -33.65 -3.9 -33.65 -3.95 -33.55" fill="none" stroke="#8f7c3f" stroke-linecap="round" stroke-linejoin="round" stroke-width="1.0"/>
    <path d="M-6.45 -35.1 L-8.9 -37.25 Q-10.3 -38.4 -10.85 -40.3 -11.4 -42.25 -10.85 -42.9 -10.35 -43.55 -9.2 -43.15 -8.1 -42.75 -7.2 -41.3 -6.3 -39.9 -5.7 -38.5 L-4.6 -36.2 Q-4.1 -35.4 -3.95 -33.85 L-3.95 -33.65 -3.95 -33.55 M-4.4 -33.55 L-6.45 -35.1" fill="none" stroke="#8f7c3f" stroke-linecap="round" stroke-linejoin="round" stroke-width="1.0"/>
    <path d="M3.95 -34.6 L6.15 -36.85 Q7.2 -38.05 8.15 -39.95 9.05 -41.95 8.5 -42.6 7.9 -43.25 6.75 -43.0 5.55 -42.8 4.7 -41.05 L3.2 -38.0 2.05 -35.7 Q1.6 -34.9 1.5 -33.35 L1.5 -33.3 1.45 -33.1 1.45 -33.3 Q1.5 -35.95 1.85 -38.2 2.3 -41.05 3.3 -43.1 5.3 -47.2 9.05 -48.85 12.85 -50.55 12.5 -47.0 12.1 -43.55 11.15 -41.35 10.05 -39.2 7.8 -36.85 5.5 -34.45 4.4 -33.8 L3.95 -34.6" fill="#ffffff" fill-rule="evenodd" stroke="none"/>
    <path d="M1.45 -33.1 L1.5 -33.3 1.5 -33.35 Q1.6 -34.9 2.05 -35.7 L3.2 -38.0 4.7 -41.05 Q5.55 -42.8 6.75 -43.0 7.9 -43.25 8.5 -42.6 9.05 -41.95 8.15 -39.95 7.2 -38.05 6.15 -36.85 L3.95 -34.6 1.95 -33.05 1.45 -33.1" fill="#e2d5c0" fill-rule="evenodd" stroke="none"/>
    <path d="M4.4 -33.8 Q5.5 -34.45 7.8 -36.85 10.05 -39.2 11.15 -41.35 12.1 -43.55 12.5 -47.0 12.85 -50.55 9.05 -48.85 5.3 -47.2 3.3 -43.1 2.3 -41.05 1.85 -38.2 1.5 -35.95 1.45 -33.3 L1.45 -33.1 1.95 -33.05 Q3.05 -32.95 4.4 -33.8 M1.45 -33.05 L1.45 -33.1 1.25 -33.15 1.25 -33.8 1.45 -33.1" fill="none" stroke="#8f7c3f" stroke-linecap="round" stroke-linejoin="round" stroke-width="1.0"/>
    <path d="M1.45 -33.1 L1.5 -33.3 1.5 -33.35 Q1.6 -34.9 2.05 -35.7 L3.2 -38.0 4.7 -41.05 Q5.55 -42.8 6.75 -43.0 7.9 -43.25 8.5 -42.6 9.05 -41.95 8.15 -39.95 7.2 -38.05 6.15 -36.85 L3.95 -34.6 1.95 -33.05 M1.45 -33.1 L1.45 -33.05" fill="none" stroke="#8f7c3f" stroke-linecap="round" stroke-linejoin="round" stroke-width="1.0"/>
    <path d="M1.15 -15.85 L2.05 -15.1 5.25 -11.15 8.0 -7.0 Q9.05 -5.4 9.05 -2.4 9.05 0.55 6.05 0.1 L0.4 -0.2 -4.9 0.3 Q-8.6 0.75 -8.35 -2.15 -8.15 -4.65 -7.2 -7.0 -6.35 -9.3 -4.9 -11.35 L-2.3 -15.1 -2.05 -15.5 -1.65 -15.85 1.15 -15.85" fill="#e2d5c0" fill-rule="evenodd" stroke="none"/>
    <path d="M1.15 -15.85 L2.05 -15.1 5.25 -11.15 8.0 -7.0 Q9.05 -5.4 9.05 -2.4 9.05 0.55 6.05 0.1 L0.4 -0.2 -4.9 0.3 Q-8.6 0.75 -8.35 -2.15 -8.15 -4.65 -7.2 -7.0 -6.35 -9.3 -4.9 -11.35 L-2.3 -15.1 -2.05 -15.5 -1.65 -15.85" fill="none" stroke="#8f7c3f" stroke-linecap="round" stroke-linejoin="round" stroke-width="1.0"/>
    <path d="M0.05 -11.6 Q-2.15 -13.25 0.2 -12.85 0.4 -11.9 0.05 -11.6" fill="#d0bc9b" fill-rule="evenodd" stroke="none"/>
    <path d="M0.05 -11.6 Q-2.15 -13.25 0.2 -12.85 0.4 -11.9 0.05 -11.6 Z" fill="none" stroke="#8f7c3f" stroke-linecap="round" stroke-linejoin="round" stroke-width="1.0"/>
    <path d="M-2.65 -5.55 Q-4.25 -7.85 -3.35 -7.95 L1.3 -8.15 4.2 -8.2 3.15 -5.45 2.55 -4.25 Q2.05 -3.7 0.05 -3.65 -1.5 -3.7 -2.65 -5.55" fill="#8f7c3f" fill-rule="evenodd" stroke="none"/>
    <path d="M-2.65 -5.55 Q-4.25 -7.85 -3.35 -7.95 L1.3 -8.15 4.2 -8.2 3.15 -5.45 2.55 -4.25 Q2.05 -3.7 0.05 -3.65 -1.5 -3.7 -2.65 -5.55 Z" fill="none" stroke="#8f7c3f" stroke-linecap="round" stroke-linejoin="round" stroke-width="1.0"/>
    <path d="M-9.05 -12.5 L-8.9 -12.55 -4.9 -13.5 -3.15 -14.1 Q-6.3 -6.4 -11.5 -12.15 L-9.6 -12.45 -9.05 -12.5" fill="#ffffff" fill-rule="evenodd" stroke="none"/>
    <path d="M-9.05 -12.5 L-9.6 -12.45 -11.5 -12.15 Q-6.3 -6.4 -3.15 -14.1 L-4.9 -13.5 -8.9 -12.55 -9.05 -12.5 Z" fill="none" stroke="#8f7c3f" stroke-linecap="round" stroke-linejoin="round" stroke-width="1.0"/>
    <path d="M9.75 -12.85 L9.1 -12.95 Q6.2 -13.5 3.3 -14.5 6.45 -6.8 11.65 -12.55 L9.75 -12.85" fill="#ffffff" fill-rule="evenodd" stroke="none"/>
    <path d="M9.75 -12.85 L11.65 -12.55 Q6.45 -6.8 3.3 -14.5 6.2 -13.5 9.1 -12.95 L9.75 -12.85 Z" fill="none" stroke="#8f7c3f" stroke-linecap="round" stroke-linejoin="round" stroke-width="1.0"/>
    <path d="M-3.95 -36.0 Q5.65 -37.6 11.05 -30.6 17.05 -22.8 9.55 -17.15 5.25 -13.9 -3.5 -14.5 -13.2 -15.45 -13.9 -25.0 L-13.9 -25.6 Q-14.2 -33.6 -5.6 -35.7 L-3.95 -36.0" fill="#ffffff" fill-rule="evenodd" stroke="none"/>
    <path d="M-3.95 -36.0 Q5.65 -37.6 11.05 -30.6 17.05 -22.8 9.55 -17.15 5.25 -13.9 -3.5 -14.5 -13.2 -15.45 -13.9 -25.0 L-13.9 -25.6 Q-14.2 -33.6 -5.6 -35.7 L-3.95 -36.0 Z" fill="none" stroke="#8f7c3f" stroke-linecap="round" stroke-linejoin="round" stroke-width="1.0"/>
    <path d="M4.8 -23.6 Q4.25 -22.65 3.4 -22.05 2.6 -21.45 1.45 -22.05 0.25 -22.6 -0.1 -24.25 L-0.4 -24.3 Q-0.7 -22.45 -1.15 -22.1 L-2.8 -21.95 Q-3.6 -22.15 -4.0 -23.85 M1.5 -27.65 L3.95 -27.55 6.25 -27.5 M-7.25 -27.9 L-4.9 -27.6 -2.45 -27.6 M-9.9 -24.2 L-9.45 -24.8 Q-9.15 -25.1 -8.7 -25.2 L-8.45 -25.2 M-7.0 -24.65 L-7.75 -24.4 -7.75 -24.15 Q-7.8 -23.95 -8.0 -23.9 L-8.1 -23.9 -7.95 -24.15 -7.75 -24.4 M-0.4 -24.3 L-0.7 -24.45 Q-1.4 -24.9 -0.45 -26.4 0.75 -24.95 -0.1 -24.25 L-0.45 -26.4 -0.7 -24.45" fill="none" stroke="#8f7c3f" stroke-linecap="round" stroke-linejoin="round" stroke-width="1.0"/>
    <path d="M6.4 -24.5 L7.2 -24.85 8.05 -25.5 M8.15 -23.85 L8.9 -24.2 9.6 -24.55" fill="none" stroke="#8f7c3f" stroke-linecap="round" stroke-linejoin="round" stroke-width="1.0"/>
  </g>
</svg>
