<svg xmlns:xlink="http://www.w3.org/1999/xlink" height="106.2px" width="75.25px" xmlns="http://www.w3.org/2000/svg">
  <g transform="matrix(1.0, 0.0, 0.0, 1.0, 37.7, 105.9)">
    <path d="M-1.35 -97.8 L-2.25 -97.8 -2.25 -102.25 Q-2.25 -103.45 -3.05 -104.25 -3.75 -104.95 -4.8 -104.95 -5.85 -104.95 -6.55 -104.25 -7.35 -103.45 -7.35 -102.25 L-7.35 -97.8 -8.2 -97.8 -8.2 -102.25 Q-8.2 -103.9 -7.25 -104.85 -6.2 -105.9 -4.8 -105.9 -3.4 -105.9 -2.35 -104.85 -1.35 -103.9 -1.35 -102.25 L-1.35 -97.8 M-9.35 -91.8 L-8.7 -91.8 -11.95 -87.1 -11.95 -83.8 -13.0 -83.8 -13.0 -87.1 -16.25 -91.8 -14.95 -91.8 -12.5 -88.05 -12.4 -88.05 -10.0 -91.8 -9.35 -91.8 M-17.8 -92.95 L-17.35 -92.5 -18.95 -90.45 Q-19.5 -89.35 -19.5 -87.85 -19.5 -86.6 -18.95 -85.5 L-17.35 -83.2 -17.85 -82.65 -19.6 -85.15 Q-20.2 -86.4 -20.2 -87.85 -20.2 -89.5 -19.6 -90.75 L-18.35 -92.45 -18.2 -92.65 -17.85 -93.0 -17.8 -92.95 M-13.15 -77.75 L-12.65 -77.75 -12.65 -76.55 -13.0 -76.55 -13.6 -76.55 -13.6 -77.75 -13.15 -77.75 M-12.65 -75.05 L-12.65 -69.8 -13.6 -69.8 -13.6 -75.05 -12.65 -75.05 M-16.9 -64.15 L-21.85 -55.25 -22.3 -55.55 -17.35 -64.4 -16.9 -64.15 M-22.45 -51.9 L-21.5 -51.9 -21.5 -40.5 -21.5 -40.0 -22.45 -40.0 -22.45 -51.9 M-20.7 -40.5 L-20.25 -41.8 -20.7 -41.8 -20.7 -42.8 -19.6 -42.8 -19.6 -41.8 -20.25 -40.5 -20.7 -40.5 M-20.7 -37.9 L-20.7 -26.0 -21.65 -26.0 -21.65 -37.9 -20.7 -37.9 M-21.35 -20.1 L-20.85 -20.55 Q-17.05 -18.15 -15.3 -15.7 L-16.5 -14.75 Q-18.25 -17.3 -21.85 -19.65 L-21.35 -20.1 M-9.9 -7.05 L-9.9 -7.8 -8.85 -7.8 -8.85 -2.2 Q-8.85 -1.5 -8.4 -1.1 -7.9 -0.6 -6.9 -0.6 -5.9 -0.6 -5.4 -1.1 -5.0 -1.5 -5.0 -2.2 L-5.0 -7.8 -3.9 -7.8 -3.9 -2.15 Q-3.9 -1.1 -4.55 -0.45 -5.15 0.15 -6.2 0.25 L-6.9 0.3 -8.25 0.15 -9.25 -0.45 Q-9.9 -1.1 -9.9 -2.15 L-9.9 -7.05 M-1.8 -8.05 L-1.2 -9.25 0.1 -9.25 -0.5 -8.35 -1.55 -6.9 -2.4 -6.9 -1.8 -8.05 M0.3 -7.75 L1.05 -9.25 2.35 -9.25 1.2 -7.6 0.7 -6.9 -0.15 -6.9 0.3 -7.75 M3.8 -7.8 L4.85 -7.8 4.85 -2.2 Q4.85 -1.5 5.3 -1.1 5.8 -0.6 6.8 -0.6 7.8 -0.6 8.3 -1.1 8.7 -1.5 8.7 -2.2 L8.7 -7.8 9.8 -7.8 9.8 -2.15 Q9.8 -1.1 9.15 -0.45 8.4 0.3 6.8 0.3 5.2 0.3 4.45 -0.45 3.8 -1.1 3.8 -2.15 L3.8 -7.8 M12.25 -13.8 L11.6 -12.5 11.15 -12.5 11.6 -13.8 11.15 -13.8 11.15 -14.8 12.25 -14.8 12.25 -13.8 M13.2 -13.55 L18.15 -22.4 18.6 -22.15 13.65 -13.25 13.25 -13.55 13.2 -13.55 M20.5 -27.55 L25.45 -36.4 25.9 -36.15 24.4 -33.4 21.0 -27.3 20.95 -27.25 20.5 -27.55 M27.55 -40.7 L27.05 -41.25 Q29.2 -43.25 29.2 -45.8 29.2 -48.4 27.05 -50.4 L27.55 -50.95 Q29.9 -48.75 29.9 -45.8 29.9 -42.9 27.55 -40.7 M34.7 -55.25 Q36.85 -57.25 36.85 -59.8 36.85 -62.4 34.7 -64.4 L35.2 -64.95 Q37.55 -62.75 37.55 -59.8 37.55 -56.9 35.2 -54.7 L34.7 -55.25 M32.6 -71.2 L32.0 -70.75 Q30.25 -73.3 26.65 -75.65 L27.65 -76.55 Q31.45 -74.15 33.2 -71.7 L32.6 -71.2 M33.45 -82.95 L33.15 -83.25 Q35.3 -85.25 35.3 -87.8 35.3 -90.4 33.15 -92.4 L33.65 -92.95 Q36.0 -90.75 36.0 -87.8 36.0 -84.9 33.65 -82.7 L33.45 -82.95 M31.55 -92.15 Q31.35 -89.2 29.9 -86.85 28.55 -84.5 26.25 -83.15 L25.5 -84.05 26.15 -84.45 Q30.15 -87.1 30.45 -92.45 L31.55 -92.15 M23.65 -85.7 L22.45 -84.75 Q20.7 -87.3 17.1 -89.65 L17.6 -90.1 18.1 -90.55 Q21.9 -88.15 23.65 -85.7 M17.95 -97.8 L17.1 -97.8 17.1 -102.25 Q17.1 -103.45 16.3 -104.25 15.6 -104.95 14.55 -104.95 13.5 -104.95 12.8 -104.25 12.0 -103.45 12.0 -102.25 L12.0 -97.8 11.15 -97.8 11.15 -102.25 Q11.15 -103.9 12.1 -104.85 13.15 -105.9 14.55 -105.9 15.95 -105.9 17.0 -104.85 18.0 -103.9 18.0 -102.25 L18.0 -97.8 17.95 -97.8 M7.95 -98.0 L7.95 -97.8 7.3 -96.5 6.85 -96.5 7.3 -97.8 6.85 -97.8 6.85 -98.05 6.85 -98.8 7.95 -98.8 7.95 -98.0 M5.5 -98.05 L5.5 -97.8 4.85 -96.5 4.4 -96.5 4.85 -97.8 4.4 -97.8 4.4 -98.0 4.4 -98.8 5.5 -98.8 5.5 -98.05 M3.05 -98.0 L3.05 -97.8 2.4 -96.5 1.95 -96.5 2.4 -97.8 1.95 -97.8 1.95 -97.95 1.95 -98.8 3.05 -98.8 3.05 -98.0 M3.05 -102.1 L1.95 -102.1 1.95 -103.15 3.05 -103.15 3.05 -102.1 M5.5 -103.15 L5.5 -102.1 4.4 -102.1 4.4 -103.15 5.5 -103.15 M6.85 -103.15 L7.95 -103.15 7.95 -102.1 6.85 -102.1 6.85 -103.15 M19.65 -75.15 L19.65 -74.1 18.55 -74.1 18.55 -75.15 19.65 -75.15 M24.85 -77.85 Q24.55 -77.5 24.1 -77.5 23.7 -77.5 23.35 -77.85 23.05 -78.2 23.05 -78.6 L23.35 -79.35 Q23.7 -79.7 24.1 -79.7 24.55 -79.7 24.85 -79.35 L25.2 -78.6 Q25.2 -78.2 24.85 -77.85 M24.8 -78.6 L24.65 -79.1 24.1 -79.3 Q23.8 -79.3 23.6 -79.1 L23.4 -78.6 23.6 -78.1 Q23.8 -77.9 24.1 -77.9 L24.65 -78.1 24.8 -78.6 M22.1 -75.15 L22.1 -74.1 21.0 -74.1 21.0 -75.15 22.1 -75.15 M6.85 -89.15 L7.95 -89.15 7.95 -88.1 6.85 -88.1 6.85 -89.15 M9.3 -89.15 L10.4 -89.15 10.4 -88.1 9.3 -88.1 9.3 -89.15 M11.75 -89.15 L12.85 -89.15 12.85 -88.1 11.75 -88.1 11.75 -89.15 M14.2 -89.15 L15.3 -89.15 15.3 -88.1 14.2 -88.1 14.2 -89.15 M0.6 -89.15 L0.6 -88.1 -0.5 -88.1 -0.5 -89.15 0.6 -89.15 M-1.85 -89.15 L-1.85 -88.1 -2.95 -88.1 -2.95 -89.15 -1.85 -89.15 M1.95 -89.15 L3.05 -89.15 3.05 -88.1 1.95 -88.1 1.95 -89.15 M4.4 -89.15 L5.5 -89.15 5.5 -88.1 4.4 -88.1 4.4 -89.15 M5.5 -84.8 L5.5 -83.8 4.85 -82.5 4.4 -82.5 4.85 -83.8 4.4 -83.8 4.4 -84.8 5.5 -84.8 M1.95 -83.8 L1.95 -84.8 3.05 -84.8 3.05 -83.8 2.4 -82.5 1.95 -82.5 2.4 -83.8 1.95 -83.8 M0.6 -84.8 L0.6 -83.8 -0.05 -82.5 -0.5 -82.5 -0.05 -83.8 -0.5 -83.8 -0.5 -84.8 0.6 -84.8 M-2.95 -84.8 L-1.85 -84.8 -1.85 -83.8 -2.5 -82.5 -2.95 -82.5 -2.5 -83.8 -2.95 -83.8 -2.95 -84.8 M-0.25 -75.15 L-0.25 -74.1 -1.35 -74.1 -1.35 -75.15 -0.25 -75.15 M4.65 -75.15 L4.65 -74.1 3.55 -74.1 3.55 -75.15 4.65 -75.15 M2.2 -75.15 L2.2 -74.1 1.1 -74.1 1.1 -75.15 2.2 -75.15 M15.3 -83.8 L14.65 -82.5 14.2 -82.5 14.65 -83.8 14.2 -83.8 14.2 -84.8 15.3 -84.8 15.3 -83.8 M11.75 -84.8 L12.85 -84.8 12.85 -83.8 12.2 -82.5 11.75 -82.5 12.2 -83.8 11.75 -83.8 11.75 -84.8 M9.3 -84.8 L10.4 -84.8 10.4 -83.8 9.75 -82.5 9.3 -82.5 9.75 -83.8 9.3 -83.8 9.3 -84.8 M7.95 -84.8 L7.95 -83.8 7.3 -82.5 6.85 -82.5 7.3 -83.8 6.85 -83.8 6.85 -84.8 7.95 -84.8 M9.55 -75.15 L9.55 -74.1 8.45 -74.1 8.45 -75.15 9.55 -75.15 M15.1 -78.6 L14.75 -77.85 Q14.45 -77.5 14.0 -77.5 13.6 -77.5 13.25 -77.85 12.95 -78.2 12.95 -78.6 L13.25 -79.35 Q13.6 -79.7 14.0 -79.7 14.45 -79.7 14.75 -79.35 L15.1 -78.6 M14.7 -78.6 L14.55 -79.1 14.0 -79.3 13.5 -79.1 13.3 -78.6 13.5 -78.1 14.0 -77.9 14.55 -78.1 14.7 -78.6 M12.0 -75.15 L12.0 -74.1 10.9 -74.1 10.9 -75.15 12.0 -75.15 M7.1 -75.15 L7.1 -74.1 6.0 -74.1 6.0 -75.15 7.1 -75.15 M16.55 -69.8 L16.1 -69.8 16.1 -70.8 17.2 -70.8 17.2 -69.8 16.55 -68.5 16.1 -68.5 16.55 -69.8 M12.0 -69.8 L11.35 -68.5 10.9 -68.5 11.35 -69.8 10.9 -69.8 10.9 -70.8 12.0 -70.8 12.0 -69.8 M7.1 -69.8 L6.45 -68.5 6.0 -68.5 6.45 -69.8 6.0 -69.8 6.0 -70.8 7.1 -70.8 7.1 -69.8 M8.9 -69.8 L8.45 -69.8 8.45 -70.8 9.55 -70.8 9.55 -69.8 8.9 -68.5 8.45 -68.5 8.9 -69.8 M3.55 -70.8 L4.65 -70.8 4.65 -69.8 4.0 -68.5 3.55 -68.5 4.0 -69.8 3.55 -69.8 3.55 -70.8 M2.2 -69.8 L1.55 -68.5 1.1 -68.5 1.55 -69.8 1.1 -69.8 1.1 -70.8 2.2 -70.8 2.2 -69.8 M-3.35 -68.5 L-3.8 -68.5 -3.35 -69.8 -3.8 -69.8 -3.8 -70.8 -2.7 -70.8 -2.7 -69.8 -3.35 -68.5 M-1.35 -70.8 L-0.25 -70.8 -0.25 -69.8 -0.9 -68.5 -1.35 -68.5 -0.9 -69.8 -1.35 -69.8 -1.35 -70.8 M-0.75 -64.45 L9.45 -55.95 8.95 -55.3 -1.3 -63.85 -0.75 -64.45 M-2.55 -60.1 L-3.65 -60.1 -3.65 -61.15 -2.55 -61.15 -2.55 -60.1 M-2.55 -55.8 L-3.2 -54.5 -3.65 -54.5 -3.2 -55.8 -3.65 -55.8 -3.65 -56.8 -2.55 -56.8 -2.55 -55.8 M3.95 -50.4 Q1.8 -48.4 1.8 -45.8 1.8 -43.25 3.95 -41.25 L3.4 -40.7 Q1.05 -42.9 1.05 -45.8 L1.05 -45.85 Q1.1 -48.8 3.4 -50.95 L3.95 -50.4 M15.7 -61.15 L16.8 -61.15 16.8 -60.1 15.7 -60.1 15.7 -61.15 M14.35 -60.1 L13.25 -60.1 13.25 -61.15 14.35 -61.15 14.35 -60.1 M11.9 -60.1 L10.8 -60.1 10.8 -61.15 11.9 -61.15 11.9 -60.1 M11.9 -55.8 L11.25 -54.5 10.8 -54.5 11.25 -55.8 10.8 -55.8 10.8 -56.8 11.9 -56.8 11.9 -55.8 M13.25 -56.8 L14.35 -56.8 14.35 -55.8 13.7 -54.5 13.25 -54.5 13.7 -55.8 13.25 -55.8 13.25 -56.8 M15.7 -55.8 L15.7 -56.8 16.8 -56.8 16.8 -55.8 16.15 -54.5 15.7 -54.5 16.15 -55.8 15.7 -55.8 M10.55 -51.3 L10.05 -51.1 9.85 -50.6 10.05 -50.1 Q10.25 -49.9 10.55 -49.9 L11.1 -50.1 11.25 -50.6 11.1 -51.1 10.55 -51.3 M11.3 -51.35 L11.65 -50.6 11.3 -49.85 Q11.0 -49.5 10.55 -49.5 10.15 -49.5 9.8 -49.85 9.5 -50.2 9.5 -50.6 L9.8 -51.35 10.55 -51.7 Q11.0 -51.7 11.3 -51.35 M28.35 -64.3 Q26.95 -64.3 25.75 -63.75 24.75 -63.3 23.55 -62.05 L23.1 -62.4 Q24.0 -63.5 25.3 -64.2 26.8 -65.0 28.35 -65.0 30.05 -65.0 31.4 -64.2 L33.6 -62.4 33.1 -62.05 Q31.75 -63.3 30.8 -63.75 29.65 -64.3 28.35 -64.3 M22.1 -69.8 L21.45 -68.5 21.0 -68.5 21.45 -69.8 21.0 -69.8 21.0 -70.8 22.1 -70.8 22.1 -69.8 M19.0 -69.8 L18.55 -69.8 18.55 -70.8 19.65 -70.8 19.65 -69.8 19.0 -68.5 18.55 -68.5 19.0 -69.8 M21.7 -62.95 L21.05 -61.55 20.6 -61.55 21.05 -62.95 20.6 -62.95 20.6 -64.0 21.7 -64.0 21.7 -62.95 M18.15 -61.15 L19.25 -61.15 19.25 -60.1 18.15 -60.1 18.15 -61.15 M18.15 -56.8 L19.25 -56.8 19.25 -55.8 18.6 -54.5 18.15 -54.5 18.6 -55.8 18.15 -55.8 18.15 -56.8 M16.85 -50.0 L16.85 -47.65 Q16.85 -44.55 15.6 -42.65 L20.15 -42.65 20.15 -50.0 16.85 -50.0 M24.8 -51.1 L24.6 -50.6 24.8 -50.1 25.3 -49.9 25.85 -50.1 26.0 -50.6 25.85 -51.1 25.3 -51.3 24.8 -51.1 M25.3 -51.7 Q25.75 -51.7 26.05 -51.35 L26.4 -50.6 Q26.4 -50.2 26.05 -49.85 25.75 -49.5 25.3 -49.5 24.9 -49.5 24.55 -49.85 24.25 -50.2 24.25 -50.6 L24.55 -51.35 Q24.9 -51.7 25.3 -51.7 M-2.7 -74.1 L-3.8 -74.1 -3.8 -75.15 -2.7 -75.15 -2.7 -74.1 M17.2 -75.15 L17.2 -74.1 16.1 -74.1 16.1 -75.15 17.2 -75.15 M21.1 -50.9 L21.1 -42.65 22.15 -42.65 22.15 -40.05 21.25 -40.05 21.25 -41.75 14.65 -41.75 14.65 -40.05 13.75 -40.05 13.75 -42.65 14.55 -42.65 Q15.95 -44.6 15.95 -47.65 L15.95 -50.9 21.1 -50.9 M-7.85 -89.15 L-6.75 -89.15 -6.75 -88.1 -7.85 -88.1 -7.85 -89.15 M-4.3 -89.15 L-4.3 -88.1 -5.4 -88.1 -5.4 -89.15 -4.3 -89.15 M-5.4 -84.8 L-4.3 -84.8 -4.3 -83.8 -4.95 -82.5 -5.4 -82.5 -4.95 -83.8 -5.4 -83.8 -5.4 -84.8 M-7.85 -84.8 L-6.75 -84.8 -6.75 -83.8 -7.4 -82.5 -7.85 -82.5 -7.4 -83.8 -7.85 -83.8 -7.85 -84.8 M-10.05 -75.15 L-10.05 -74.1 -11.15 -74.1 -11.15 -75.15 -10.05 -75.15 M-5.15 -75.15 L-5.15 -74.1 -6.25 -74.1 -6.25 -75.15 -5.15 -75.15 M-7.6 -75.15 L-7.6 -74.1 -8.7 -74.1 -8.7 -75.15 -7.6 -75.15 M-36.25 -54.5 L-37.7 -54.5 -36.15 -57.85 -35.2 -57.85 -36.25 -54.5 M-28.65 -50.95 Q-26.3 -48.75 -26.3 -45.8 -26.3 -42.9 -28.65 -40.7 L-29.15 -41.25 Q-27.0 -43.25 -27.0 -45.8 -27.0 -48.4 -29.15 -50.4 L-28.65 -50.95 M-32.8 -57.85 L-33.85 -54.5 -35.3 -54.5 -33.75 -57.85 -32.8 -57.85 M-6.25 -70.8 L-5.15 -70.8 -5.15 -69.8 -5.8 -68.5 -6.25 -68.5 -5.8 -69.8 -6.25 -69.8 -6.25 -70.8 M-7.6 -69.8 L-8.25 -68.5 -8.7 -68.5 -8.25 -69.8 -8.7 -69.8 -8.7 -70.8 -7.6 -70.8 -7.6 -69.8 M-11.15 -70.8 L-10.05 -70.8 -10.05 -69.8 -10.7 -68.5 -11.15 -68.5 -10.7 -69.8 -11.15 -69.8 -11.15 -70.8 M-14.8 -56.8 L-14.8 -55.8 -15.45 -54.5 -15.9 -54.5 -15.45 -55.8 -15.9 -55.8 -15.9 -56.8 -14.8 -56.8 M-15.9 -61.15 L-14.8 -61.15 -14.8 -60.1 -15.9 -60.1 -15.9 -61.15 M-5.0 -60.1 L-6.1 -60.1 -6.1 -61.15 -5.0 -61.15 -5.0 -60.1 M-7.45 -61.15 L-7.45 -60.1 -8.55 -60.1 -8.55 -61.15 -7.45 -61.15 M-6.1 -56.8 L-5.0 -56.8 -5.0 -55.8 -5.65 -54.5 -6.1 -54.5 -5.65 -55.8 -6.1 -55.8 -6.1 -56.8 M-8.55 -56.8 L-7.45 -56.8 -7.45 -55.8 -8.1 -54.5 -8.55 -54.5 -8.1 -55.8 -8.55 -55.8 -8.55 -56.8 M-9.9 -61.15 L-9.9 -60.1 -11.0 -60.1 -11.0 -61.15 -9.9 -61.15 M-13.45 -61.15 L-12.35 -61.15 -12.35 -60.1 -13.45 -60.1 -13.45 -61.15 M-13.45 -56.8 L-12.35 -56.8 -12.35 -55.8 -13.0 -54.5 -13.45 -54.5 -13.0 -55.8 -13.45 -55.8 -13.45 -56.8 M-9.9 -55.8 L-10.55 -54.5 -11.0 -54.5 -10.55 -55.8 -11.0 -55.8 -11.0 -56.8 -9.9 -56.8 -9.9 -55.8 M-4.9 -47.15 L-4.9 -46.1 -6.0 -46.1 -6.0 -47.15 -4.9 -47.15 M-7.35 -47.15 L-7.35 -46.1 -8.45 -46.1 -8.45 -47.15 -7.35 -47.15 M-3.55 -47.15 L-2.45 -47.15 -2.45 -46.1 -3.55 -46.1 -3.55 -47.15 M-9.8 -47.15 L-9.8 -46.1 -10.9 -46.1 -10.9 -47.15 -9.8 -47.15 M-12.25 -47.15 L-12.25 -46.1 -13.35 -46.1 -13.35 -47.15 -12.25 -47.15 M-10.45 -41.8 L-10.9 -41.8 -10.9 -42.8 -9.8 -42.8 -9.8 -41.8 -10.45 -40.5 -10.9 -40.5 -10.45 -41.8 M-12.9 -41.8 L-13.35 -41.8 -13.35 -42.8 -12.25 -42.8 -12.25 -41.8 -12.9 -40.5 -13.35 -40.5 -12.9 -41.8 M-6.0 -41.8 L-6.0 -42.8 -4.9 -42.8 -4.9 -41.8 -5.55 -40.5 -6.0 -40.5 -5.55 -41.8 -6.0 -41.8 M-3.55 -42.8 L-2.45 -42.8 -2.45 -41.8 -3.1 -40.5 -3.55 -40.5 -3.1 -41.8 -3.55 -41.8 -3.55 -42.8 M-7.35 -42.8 L-7.35 -41.8 -8.0 -40.5 -8.45 -40.5 -8.0 -41.8 -8.45 -41.8 -8.45 -42.8 -7.35 -42.8 M-18.25 -47.15 L-17.15 -47.15 -17.15 -46.1 -18.25 -46.1 -18.25 -47.15 M-14.7 -47.15 L-14.7 -46.1 -15.8 -46.1 -15.8 -47.15 -14.7 -47.15 M-19.6 -47.15 L-19.6 -46.1 -20.7 -46.1 -20.7 -47.15 -19.6 -47.15 M-14.7 -42.8 L-14.7 -41.8 -15.35 -40.5 -15.8 -40.5 -15.35 -41.8 -15.8 -41.8 -15.8 -42.8 -14.7 -42.8 M-17.8 -41.8 L-18.25 -41.8 -18.25 -42.8 -17.15 -42.8 -17.15 -41.8 -17.8 -40.5 -18.25 -40.5 -17.8 -41.8 M-16.65 -33.15 L-15.55 -33.15 -15.55 -32.1 -16.65 -32.1 -16.65 -33.15 M-14.2 -33.15 L-13.1 -33.15 -13.1 -32.1 -14.2 -32.1 -14.2 -33.15 M-18.0 -32.1 L-19.1 -32.1 -19.1 -33.15 -18.0 -33.15 -18.0 -32.1 M-19.1 -28.8 L-18.0 -28.8 -18.0 -27.8 -18.65 -26.5 -19.1 -26.5 -18.65 -27.8 -19.1 -27.8 -19.1 -28.8 M-16.2 -27.8 L-16.65 -27.8 -16.65 -28.8 -15.55 -28.8 -15.55 -27.8 -16.2 -26.5 -16.65 -26.5 -16.2 -27.8 M-14.2 -27.8 L-14.2 -28.8 -13.1 -28.8 -13.1 -27.8 -13.75 -26.5 -14.2 -26.5 -13.75 -27.8 -14.2 -27.8 M-8.2 -32.1 L-9.3 -32.1 -9.3 -33.15 -8.2 -33.15 -8.2 -32.1 M-4.4 -33.15 L-3.3 -33.15 -3.3 -32.1 -4.4 -32.1 -4.4 -33.15 M-5.75 -33.15 L-5.75 -32.1 -6.85 -32.1 -6.85 -33.15 -5.75 -33.15 M-10.65 -32.1 L-11.75 -32.1 -11.75 -33.15 -10.65 -33.15 -10.65 -32.1 M-11.3 -27.8 L-11.75 -27.8 -11.75 -28.8 -10.65 -28.8 -10.65 -27.8 -11.3 -26.5 -11.75 -26.5 -11.3 -27.8 M-9.3 -27.8 L-9.3 -28.8 -8.2 -28.8 -8.2 -27.8 -8.85 -26.5 -9.3 -26.5 -8.85 -27.8 -9.3 -27.8 M-6.4 -27.8 L-6.85 -27.8 -6.85 -28.8 -5.75 -28.8 -5.75 -27.8 -6.4 -26.5 -6.85 -26.5 -6.4 -27.8 M-4.4 -27.8 L-4.4 -28.8 -3.3 -28.8 -3.3 -27.8 -3.95 -26.5 -4.4 -26.5 -3.95 -27.8 -4.4 -27.8 M-25.15 -42.8 L-24.05 -42.8 -24.05 -41.8 -25.15 -41.8 -25.15 -42.8 M-28.95 -28.55 Q-28.4 -28.55 -27.9 -29.4 L-27.3 -28.75 Q-28.05 -27.65 -29.05 -27.65 -29.75 -27.65 -30.1 -28.0 -30.45 -28.35 -30.2 -29.3 L-28.9 -34.15 -28.05 -34.15 -29.35 -29.2 -29.35 -28.7 -28.95 -28.55 M-7.35 -19.15 L-7.35 -18.1 -8.45 -18.1 -8.45 -19.15 -7.35 -19.15 M-4.9 -19.15 L-4.9 -18.1 -6.0 -18.1 -6.0 -19.15 -4.9 -19.15 M-13.35 -14.8 L-12.25 -14.8 -12.25 -13.8 -13.35 -13.8 -13.35 -14.8 M-10.9 -14.8 L-9.8 -14.8 -9.8 -13.8 -10.9 -13.8 -10.9 -14.8 M-8.0 -13.8 L-8.45 -13.8 -8.45 -14.8 -7.35 -14.8 -7.35 -13.8 -8.0 -12.5 -8.45 -12.5 -8.0 -13.8 M-5.55 -12.5 L-6.0 -12.5 -5.55 -13.8 -6.0 -13.8 -6.0 -14.8 -4.9 -14.8 -4.9 -13.8 -5.55 -12.5 M-3.55 -14.8 L-2.45 -14.8 -2.45 -13.8 -3.1 -12.5 -3.55 -12.5 -3.1 -13.8 -3.55 -13.8 -3.55 -14.8 M-3.55 -19.15 L-2.45 -19.15 -2.45 -18.1 -3.55 -18.1 -3.55 -19.15 M29.8 -27.9 L29.6 -28.95 Q32.3 -28.95 33.3 -30.1 34.05 -30.85 34.0 -32.25 34.0 -33.25 33.45 -33.85 33.0 -34.4 32.15 -34.45 L29.75 -34.0 27.15 -32.85 26.7 -34.0 29.7 -35.05 32.0 -35.45 Q33.25 -35.45 34.05 -34.75 35.1 -33.8 35.0 -31.85 34.9 -29.9 33.5 -28.85 32.2 -27.9 29.8 -27.9 M18.45 -33.15 L19.55 -33.15 19.55 -32.1 18.45 -32.1 18.45 -33.15 M17.1 -32.1 L16.0 -32.1 16.0 -33.15 17.1 -33.15 17.1 -32.1 M18.9 -27.8 L18.45 -27.8 18.45 -28.8 19.55 -28.8 19.55 -27.8 18.9 -26.5 18.45 -26.5 18.9 -27.8 M17.1 -27.8 L16.45 -26.5 16.0 -26.5 16.45 -27.8 16.0 -27.8 16.0 -28.8 17.1 -28.8 17.1 -27.8 M7.9 -40.5 L7.45 -40.5 7.9 -41.8 7.45 -41.8 7.45 -42.8 8.55 -42.8 8.55 -41.8 7.9 -40.5 M-1.1 -47.15 L0.0 -47.15 0.0 -46.1 -1.1 -46.1 -1.1 -47.15 M-0.65 -40.5 L-1.1 -40.5 -0.65 -41.8 -1.1 -41.8 -1.1 -42.8 0.0 -42.8 0.0 -41.8 -0.65 -40.5 M5.0 -40.5 L5.45 -41.8 5.0 -41.8 5.0 -42.8 6.1 -42.8 6.1 -41.8 5.45 -40.5 5.0 -40.5 M5.6 -35.45 Q6.85 -35.45 7.65 -34.75 8.7 -33.8 8.6 -31.85 8.5 -29.9 7.1 -28.85 5.8 -27.9 3.4 -27.9 L3.2 -28.95 Q5.9 -28.95 6.9 -30.1 7.65 -30.85 7.6 -32.25 7.6 -33.25 7.05 -33.85 6.6 -34.4 5.75 -34.45 L3.35 -34.0 0.75 -32.85 0.3 -34.0 3.3 -35.05 5.6 -35.45 M-1.95 -32.1 L-1.95 -33.15 -0.85 -33.15 -0.85 -32.1 -1.95 -32.1 M-1.5 -27.8 L-1.95 -27.8 -1.95 -28.8 -0.85 -28.8 -0.85 -27.8 -1.5 -26.5 -1.95 -26.5 -1.5 -27.8 M13.55 -33.15 L14.65 -33.15 14.65 -32.1 13.55 -32.1 13.55 -33.15 M13.55 -26.5 L14.0 -27.8 13.55 -27.8 13.55 -28.8 14.65 -28.8 14.65 -27.8 14.0 -26.5 13.55 -26.5 M9.8 -19.15 L9.8 -18.1 8.7 -18.1 8.7 -19.15 9.8 -19.15 M6.7 -12.5 L6.25 -12.5 6.7 -13.8 6.25 -13.8 6.25 -14.8 7.35 -14.8 7.35 -13.8 6.7 -12.5 M9.15 -13.8 L8.7 -13.8 8.7 -14.8 9.8 -14.8 9.8 -13.8 9.15 -12.5 8.7 -12.5 9.15 -13.8 M7.35 -18.1 L6.25 -18.1 6.25 -19.15 7.35 -19.15 7.35 -18.1 M11.15 -19.15 L12.25 -19.15 12.25 -18.1 11.15 -18.1 11.15 -19.15 M4.9 -19.15 L4.9 -18.1 3.8 -18.1 3.8 -19.15 4.9 -19.15 M0.0 -19.15 L0.0 -18.1 -1.1 -18.1 -1.1 -19.15 0.0 -19.15 M-1.1 -14.8 L0.0 -14.8 0.0 -13.8 -0.65 -12.5 -1.1 -12.5 -0.65 -13.8 -1.1 -13.8 -1.1 -14.8 M1.35 -14.8 L2.45 -14.8 2.45 -13.8 1.8 -12.5 1.35 -12.5 1.8 -13.8 1.35 -13.8 1.35 -14.8 M3.8 -14.8 L4.9 -14.8 4.9 -13.8 4.25 -12.5 3.8 -12.5 4.25 -13.8 3.8 -13.8 3.8 -14.8 M1.35 -19.15 L2.45 -19.15 2.45 -18.1 1.35 -18.1 1.35 -19.15" fill="#000000" fill-rule="evenodd" stroke="none"/>
    <path d="M-7.35 -97.8 L-7.35 -102.25 Q-7.35 -103.45 -6.55 -104.25 -5.85 -104.95 -4.8 -104.95 -3.75 -104.95 -3.05 -104.25 -2.25 -103.45 -2.25 -102.25 L-2.25 -97.8 -1.35 -97.8 1.95 -97.95 1.95 -97.8 2.4 -97.8 1.95 -96.5 2.4 -96.5 3.05 -97.8 3.05 -98.0 4.4 -98.0 4.4 -97.8 4.85 -97.8 4.4 -96.5 4.85 -96.5 5.5 -97.8 5.5 -98.05 6.15 -98.05 6.85 -98.05 6.85 -97.8 7.3 -97.8 6.85 -96.5 7.3 -96.5 7.95 -97.8 7.95 -98.0 11.15 -97.8 12.0 -97.8 12.0 -102.25 Q12.0 -103.45 12.8 -104.25 13.5 -104.95 14.55 -104.95 15.6 -104.95 16.3 -104.25 17.1 -103.45 17.1 -102.25 L17.1 -97.8 17.95 -97.8 17.95 -97.65 Q16.9 -93.7 17.55 -90.5 L17.55 -90.45 17.6 -90.1 17.1 -89.65 Q20.7 -87.3 22.45 -84.75 L23.65 -85.7 Q24.0 -84.15 25.5 -84.05 L26.25 -83.15 Q28.55 -84.5 29.9 -86.85 31.35 -89.2 31.55 -92.15 L31.55 -92.6 31.1 -94.5 Q31.5 -94.45 32.35 -93.8 33.5 -92.9 33.15 -92.4 35.3 -90.4 35.3 -87.8 35.3 -85.25 33.15 -83.25 L33.45 -82.95 Q31.3 -80.55 27.85 -78.95 L26.85 -78.3 Q26.4 -77.9 27.25 -77.15 28.0 -76.55 27.65 -76.55 L26.65 -75.65 Q30.25 -73.3 32.0 -70.75 L32.6 -71.2 32.65 -71.15 34.8 -67.0 35.05 -66.3 35.2 -64.95 34.7 -64.4 Q36.85 -62.4 36.85 -59.8 36.85 -57.25 34.7 -55.25 32.85 -52.55 29.75 -52.0 28.35 -51.75 27.55 -50.95 L27.05 -50.4 Q29.2 -48.4 29.2 -45.8 29.2 -43.25 27.05 -41.25 L27.55 -40.7 Q27.45 -39.95 26.6 -38.75 L25.15 -37.05 25.45 -36.4 20.5 -27.55 20.8 -27.15 18.15 -22.4 13.2 -13.55 12.25 -13.8 13.15 -13.35 Q11.9 -10.15 9.8 -7.8 L8.7 -7.8 8.7 -2.2 Q8.7 -1.5 8.3 -1.1 7.8 -0.6 6.8 -0.6 5.8 -0.6 5.3 -1.1 4.85 -1.5 4.85 -2.2 L4.85 -7.8 3.8 -7.8 1.2 -7.6 2.35 -9.25 1.05 -9.25 0.3 -7.75 -0.5 -8.35 0.1 -9.25 -1.2 -9.25 -1.8 -8.05 -3.9 -7.8 -5.0 -7.8 -5.0 -2.2 Q-5.0 -1.5 -5.4 -1.1 -5.9 -0.6 -6.9 -0.6 -7.9 -0.6 -8.4 -1.1 -8.85 -1.5 -8.85 -2.2 L-8.85 -7.8 -9.9 -7.8 -9.9 -7.05 -10.55 -8.0 -11.4 -9.25 Q-12.25 -11.35 -13.95 -12.9 L-13.95 -12.95 -16.5 -14.75 -15.3 -15.7 Q-17.05 -18.15 -20.85 -20.55 L-21.35 -20.1 Q-21.8 -21.3 -21.45 -23.0 -21.1 -24.65 -21.55 -25.8 L-20.7 -26.0 -20.7 -37.9 -21.65 -37.95 -21.5 -39.95 -21.5 -40.0 -20.7 -40.5 -21.5 -40.5 -21.5 -51.9 -22.45 -51.9 -22.3 -55.25 -21.85 -55.25 -16.9 -64.15 -17.35 -64.4 Q-15.9 -67.3 -13.6 -69.8 L-12.65 -69.8 -12.65 -75.05 -13.0 -76.55 -12.65 -76.55 -12.65 -77.75 -13.15 -77.75 -13.35 -79.7 -17.35 -83.2 -18.95 -85.5 Q-19.5 -86.6 -19.5 -87.85 -19.5 -89.35 -18.95 -90.45 L-17.35 -92.5 -17.8 -92.95 -16.15 -94.05 Q-15.5 -92.8 -16.25 -91.8 L-13.0 -87.1 -13.0 -83.8 -11.95 -83.8 -11.95 -87.1 -8.7 -91.8 -9.35 -91.8 Q-8.25 -94.55 -7.4 -97.5 L-7.4 -97.55 -7.35 -97.8 M-20.7 -40.5 L-20.25 -40.5 -19.6 -41.8 -19.6 -42.8 -20.7 -42.8 -20.7 -41.8 -20.25 -41.8 -20.7 -40.5 M12.25 -13.8 L12.25 -14.8 11.15 -14.8 11.15 -13.8 11.6 -13.8 11.15 -12.5 11.6 -12.5 12.25 -13.8 M22.1 -75.15 L21.0 -75.15 21.0 -74.1 22.1 -74.1 22.1 -75.15 M24.8 -78.6 L24.65 -78.1 24.1 -77.9 Q23.8 -77.9 23.6 -78.1 L23.4 -78.6 23.6 -79.1 Q23.8 -79.3 24.1 -79.3 L24.65 -79.1 24.8 -78.6 M24.85 -77.85 Q25.2 -78.2 25.2 -78.6 L24.85 -79.35 Q24.55 -79.7 24.1 -79.7 23.7 -79.7 23.35 -79.35 L23.05 -78.6 Q23.05 -78.2 23.35 -77.85 23.7 -77.5 24.1 -77.5 24.55 -77.5 24.85 -77.85 M19.65 -75.15 L18.55 -75.15 18.55 -74.1 19.65 -74.1 19.65 -75.15 M14.2 -89.15 L14.2 -88.1 15.3 -88.1 15.3 -89.15 14.2 -89.15 M11.75 -89.15 L11.75 -88.1 12.85 -88.1 12.85 -89.15 11.75 -89.15 M9.3 -89.15 L9.3 -88.1 10.4 -88.1 10.4 -89.15 9.3 -89.15 M6.85 -89.15 L6.85 -88.1 7.95 -88.1 7.95 -89.15 6.85 -89.15 M11.3 -51.35 Q11.0 -51.7 10.55 -51.7 L9.8 -51.35 9.5 -50.6 Q9.5 -50.2 9.8 -49.85 10.15 -49.5 10.55 -49.5 11.0 -49.5 11.3 -49.85 L11.65 -50.6 11.3 -51.35 M10.55 -51.3 L11.1 -51.1 11.25 -50.6 11.1 -50.1 10.55 -49.9 Q10.25 -49.9 10.05 -50.1 L9.85 -50.6 10.05 -51.1 10.55 -51.3 M15.7 -55.8 L16.15 -55.8 15.7 -54.5 16.15 -54.5 16.8 -55.8 16.8 -56.8 15.7 -56.8 15.7 -55.8 M13.25 -56.8 L13.25 -55.8 13.7 -55.8 13.25 -54.5 13.7 -54.5 14.35 -55.8 14.35 -56.8 13.25 -56.8 M11.9 -55.8 L11.9 -56.8 10.8 -56.8 10.8 -55.8 11.25 -55.8 10.8 -54.5 11.25 -54.5 11.9 -55.8 M11.9 -60.1 L11.9 -61.15 10.8 -61.15 10.8 -60.1 11.9 -60.1 M14.35 -60.1 L14.35 -61.15 13.25 -61.15 13.25 -60.1 14.35 -60.1 M15.7 -61.15 L15.7 -60.1 16.8 -60.1 16.8 -61.15 15.7 -61.15 M3.95 -50.4 L3.4 -50.95 Q1.1 -48.8 1.05 -45.85 L1.05 -45.8 Q1.05 -42.9 3.4 -40.7 L3.95 -41.25 Q1.8 -43.25 1.8 -45.8 1.8 -48.4 3.95 -50.4 M-2.55 -55.8 L-2.55 -56.8 -3.65 -56.8 -3.65 -55.8 -3.2 -55.8 -3.65 -54.5 -3.2 -54.5 -2.55 -55.8 M-2.55 -60.1 L-2.55 -61.15 -3.65 -61.15 -3.65 -60.1 -2.55 -60.1 M-0.75 -64.45 L-1.3 -63.85 8.95 -55.3 9.45 -55.95 -0.75 -64.45 M-1.35 -70.8 L-1.35 -69.8 -0.9 -69.8 -1.35 -68.5 -0.9 -68.5 -0.25 -69.8 -0.25 -70.8 -1.35 -70.8 M-3.35 -68.5 L-2.7 -69.8 -2.7 -70.8 -3.8 -70.8 -3.8 -69.8 -3.35 -69.8 -3.8 -68.5 -3.35 -68.5 M2.2 -69.8 L2.2 -70.8 1.1 -70.8 1.1 -69.8 1.55 -69.8 1.1 -68.5 1.55 -68.5 2.2 -69.8 M3.55 -70.8 L3.55 -69.8 4.0 -69.8 3.55 -68.5 4.0 -68.5 4.65 -69.8 4.65 -70.8 3.55 -70.8 M8.9 -69.8 L8.45 -68.5 8.9 -68.5 9.55 -69.8 9.55 -70.8 8.45 -70.8 8.45 -69.8 8.9 -69.8 M7.1 -69.8 L7.1 -70.8 6.0 -70.8 6.0 -69.8 6.45 -69.8 6.0 -68.5 6.45 -68.5 7.1 -69.8 M12.0 -69.8 L12.0 -70.8 10.9 -70.8 10.9 -69.8 11.35 -69.8 10.9 -68.5 11.35 -68.5 12.0 -69.8 M16.55 -69.8 L16.1 -68.5 16.55 -68.5 17.2 -69.8 17.2 -70.8 16.1 -70.8 16.1 -69.8 16.55 -69.8 M7.1 -75.15 L6.0 -75.15 6.0 -74.1 7.1 -74.1 7.1 -75.15 M12.0 -75.15 L10.9 -75.15 10.9 -74.1 12.0 -74.1 12.0 -75.15 M14.7 -78.6 L14.55 -78.1 14.0 -77.9 13.5 -78.1 13.3 -78.6 13.5 -79.1 14.0 -79.3 14.55 -79.1 14.7 -78.6 M15.1 -78.6 L14.75 -79.35 Q14.45 -79.7 14.0 -79.7 13.6 -79.7 13.25 -79.35 L12.95 -78.6 Q12.95 -78.2 13.25 -77.85 13.6 -77.5 14.0 -77.5 14.45 -77.5 14.75 -77.85 L15.1 -78.6 M9.55 -75.15 L8.45 -75.15 8.45 -74.1 9.55 -74.1 9.55 -75.15 M7.95 -84.8 L6.85 -84.8 6.85 -83.8 7.3 -83.8 6.85 -82.5 7.3 -82.5 7.95 -83.8 7.95 -84.8 M9.3 -84.8 L9.3 -83.8 9.75 -83.8 9.3 -82.5 9.75 -82.5 10.4 -83.8 10.4 -84.8 9.3 -84.8 M11.75 -84.8 L11.75 -83.8 12.2 -83.8 11.75 -82.5 12.2 -82.5 12.85 -83.8 12.85 -84.8 11.75 -84.8 M15.3 -83.8 L15.3 -84.8 14.2 -84.8 14.2 -83.8 14.65 -83.8 14.2 -82.5 14.65 -82.5 15.3 -83.8 M2.2 -75.15 L1.1 -75.15 1.1 -74.1 2.2 -74.1 2.2 -75.15 M4.65 -75.15 L3.55 -75.15 3.55 -74.1 4.65 -74.1 4.65 -75.15 M-0.25 -75.15 L-1.35 -75.15 -1.35 -74.1 -0.25 -74.1 -0.25 -75.15 M-2.95 -84.8 L-2.95 -83.8 -2.5 -83.8 -2.95 -82.5 -2.5 -82.5 -1.85 -83.8 -1.85 -84.8 -2.95 -84.8 M0.6 -84.8 L-0.5 -84.8 -0.5 -83.8 -0.05 -83.8 -0.5 -82.5 -0.05 -82.5 0.6 -83.8 0.6 -84.8 M1.95 -83.8 L2.4 -83.8 1.95 -82.5 2.4 -82.5 3.05 -83.8 3.05 -84.8 1.95 -84.8 1.95 -83.8 M5.5 -84.8 L4.4 -84.8 4.4 -83.8 4.85 -83.8 4.4 -82.5 4.85 -82.5 5.5 -83.8 5.5 -84.8 M4.4 -89.15 L4.4 -88.1 5.5 -88.1 5.5 -89.15 4.4 -89.15 M1.95 -89.15 L1.95 -88.1 3.05 -88.1 3.05 -89.15 1.95 -89.15 M-1.85 -89.15 L-2.95 -89.15 -2.95 -88.1 -1.85 -88.1 -1.85 -89.15 M0.6 -89.15 L-0.5 -89.15 -0.5 -88.1 0.6 -88.1 0.6 -89.15 M25.3 -51.7 Q24.9 -51.7 24.55 -51.35 L24.25 -50.6 Q24.25 -50.2 24.55 -49.85 24.9 -49.5 25.3 -49.5 25.75 -49.5 26.05 -49.85 26.4 -50.2 26.4 -50.6 L26.05 -51.35 Q25.75 -51.7 25.3 -51.7 M24.8 -51.1 L25.3 -51.3 25.85 -51.1 26.0 -50.6 25.85 -50.1 25.3 -49.9 24.8 -50.1 24.6 -50.6 24.8 -51.1 M16.85 -50.0 L20.15 -50.0 20.15 -42.65 15.6 -42.65 Q16.85 -44.55 16.85 -47.65 L16.85 -50.0 M18.15 -56.8 L18.15 -55.8 18.6 -55.8 18.15 -54.5 18.6 -54.5 19.25 -55.8 19.25 -56.8 18.15 -56.8 M18.15 -61.15 L18.15 -60.1 19.25 -60.1 19.25 -61.15 18.15 -61.15 M21.7 -62.95 L21.7 -64.0 20.6 -64.0 20.6 -62.95 21.05 -62.95 20.6 -61.55 21.05 -61.55 21.7 -62.95 M19.0 -69.8 L18.55 -68.5 19.0 -68.5 19.65 -69.8 19.65 -70.8 18.55 -70.8 18.55 -69.8 19.0 -69.8 M22.1 -69.8 L22.1 -70.8 21.0 -70.8 21.0 -69.8 21.45 -69.8 21.0 -68.5 21.45 -68.5 22.1 -69.8 M28.35 -64.3 Q29.65 -64.3 30.8 -63.75 31.75 -63.3 33.1 -62.05 L33.6 -62.4 31.4 -64.2 Q30.05 -65.0 28.35 -65.0 26.8 -65.0 25.3 -64.2 24.0 -63.5 23.1 -62.4 L23.55 -62.05 Q24.75 -63.3 25.75 -63.75 26.95 -64.3 28.35 -64.3 M21.1 -50.9 L15.95 -50.9 15.95 -47.65 Q15.95 -44.6 14.55 -42.65 L13.75 -42.65 13.75 -40.05 14.65 -40.05 14.65 -41.75 21.25 -41.75 21.25 -40.05 22.15 -40.05 22.15 -42.65 21.1 -42.65 21.1 -50.9 M17.2 -75.15 L16.1 -75.15 16.1 -74.1 17.2 -74.1 17.2 -75.15 M-2.7 -74.1 L-2.7 -75.15 -3.8 -75.15 -3.8 -74.1 -2.7 -74.1 M-4.3 -89.15 L-5.4 -89.15 -5.4 -88.1 -4.3 -88.1 -4.3 -89.15 M-7.85 -89.15 L-7.85 -88.1 -6.75 -88.1 -6.75 -89.15 -7.85 -89.15 M-7.85 -84.8 L-7.85 -83.8 -7.4 -83.8 -7.85 -82.5 -7.4 -82.5 -6.75 -83.8 -6.75 -84.8 -7.85 -84.8 M-5.4 -84.8 L-5.4 -83.8 -4.95 -83.8 -5.4 -82.5 -4.95 -82.5 -4.3 -83.8 -4.3 -84.8 -5.4 -84.8 M-7.6 -75.15 L-8.7 -75.15 -8.7 -74.1 -7.6 -74.1 -7.6 -75.15 M-5.15 -75.15 L-6.25 -75.15 -6.25 -74.1 -5.15 -74.1 -5.15 -75.15 M-10.05 -75.15 L-11.15 -75.15 -11.15 -74.1 -10.05 -74.1 -10.05 -75.15 M-11.15 -70.8 L-11.15 -69.8 -10.7 -69.8 -11.15 -68.5 -10.7 -68.5 -10.05 -69.8 -10.05 -70.8 -11.15 -70.8 M-7.6 -69.8 L-7.6 -70.8 -8.7 -70.8 -8.7 -69.8 -8.25 -69.8 -8.7 -68.5 -8.25 -68.5 -7.6 -69.8 M-6.25 -70.8 L-6.25 -69.8 -5.8 -69.8 -6.25 -68.5 -5.8 -68.5 -5.15 -69.8 -5.15 -70.8 -6.25 -70.8 M-19.6 -47.15 L-20.7 -47.15 -20.7 -46.1 -19.6 -46.1 -19.6 -47.15 M-14.7 -47.15 L-15.8 -47.15 -15.8 -46.1 -14.7 -46.1 -14.7 -47.15 M-18.25 -47.15 L-18.25 -46.1 -17.15 -46.1 -17.15 -47.15 -18.25 -47.15 M-7.35 -42.8 L-8.45 -42.8 -8.45 -41.8 -8.0 -41.8 -8.45 -40.5 -8.0 -40.5 -7.35 -41.8 -7.35 -42.8 M-3.55 -42.8 L-3.55 -41.8 -3.1 -41.8 -3.55 -40.5 -3.1 -40.5 -2.45 -41.8 -2.45 -42.8 -3.55 -42.8 M-6.0 -41.8 L-5.55 -41.8 -6.0 -40.5 -5.55 -40.5 -4.9 -41.8 -4.9 -42.8 -6.0 -42.8 -6.0 -41.8 M-12.9 -41.8 L-13.35 -40.5 -12.9 -40.5 -12.25 -41.8 -12.25 -42.8 -13.35 -42.8 -13.35 -41.8 -12.9 -41.8 M-10.45 -41.8 L-10.9 -40.5 -10.45 -40.5 -9.8 -41.8 -9.8 -42.8 -10.9 -42.8 -10.9 -41.8 -10.45 -41.8 M-12.25 -47.15 L-13.35 -47.15 -13.35 -46.1 -12.25 -46.1 -12.25 -47.15 M-9.8 -47.15 L-10.9 -47.15 -10.9 -46.1 -9.8 -46.1 -9.8 -47.15 M-3.55 -47.15 L-3.55 -46.1 -2.45 -46.1 -2.45 -47.15 -3.55 -47.15 M-7.35 -47.15 L-8.45 -47.15 -8.45 -46.1 -7.35 -46.1 -7.35 -47.15 M-4.9 -47.15 L-6.0 -47.15 -6.0 -46.1 -4.9 -46.1 -4.9 -47.15 M-9.9 -55.8 L-9.9 -56.8 -11.0 -56.8 -11.0 -55.8 -10.55 -55.8 -11.0 -54.5 -10.55 -54.5 -9.9 -55.8 M-13.45 -56.8 L-13.45 -55.8 -13.0 -55.8 -13.45 -54.5 -13.0 -54.5 -12.35 -55.8 -12.35 -56.8 -13.45 -56.8 M-13.45 -61.15 L-13.45 -60.1 -12.35 -60.1 -12.35 -61.15 -13.45 -61.15 M-9.9 -61.15 L-11.0 -61.15 -11.0 -60.1 -9.9 -60.1 -9.9 -61.15 M-8.55 -56.8 L-8.55 -55.8 -8.1 -55.8 -8.55 -54.5 -8.1 -54.5 -7.45 -55.8 -7.45 -56.8 -8.55 -56.8 M-6.1 -56.8 L-6.1 -55.8 -5.65 -55.8 -6.1 -54.5 -5.65 -54.5 -5.0 -55.8 -5.0 -56.8 -6.1 -56.8 M-7.45 -61.15 L-8.55 -61.15 -8.55 -60.1 -7.45 -60.1 -7.45 -61.15 M-5.0 -60.1 L-5.0 -61.15 -6.1 -61.15 -6.1 -60.1 -5.0 -60.1 M-15.9 -61.15 L-15.9 -60.1 -14.8 -60.1 -14.8 -61.15 -15.9 -61.15 M-14.8 -56.8 L-15.9 -56.8 -15.9 -55.8 -15.45 -55.8 -15.9 -54.5 -15.45 -54.5 -14.8 -55.8 -14.8 -56.8 M-4.4 -27.8 L-3.95 -27.8 -4.4 -26.5 -3.95 -26.5 -3.3 -27.8 -3.3 -28.8 -4.4 -28.8 -4.4 -27.8 M-6.4 -27.8 L-6.85 -26.5 -6.4 -26.5 -5.75 -27.8 -5.75 -28.8 -6.85 -28.8 -6.85 -27.8 -6.4 -27.8 M-9.3 -27.8 L-8.85 -27.8 -9.3 -26.5 -8.85 -26.5 -8.2 -27.8 -8.2 -28.8 -9.3 -28.8 -9.3 -27.8 M-11.3 -27.8 L-11.75 -26.5 -11.3 -26.5 -10.65 -27.8 -10.65 -28.8 -11.75 -28.8 -11.75 -27.8 -11.3 -27.8 M-10.65 -32.1 L-10.65 -33.15 -11.75 -33.15 -11.75 -32.1 -10.65 -32.1 M-5.75 -33.15 L-6.85 -33.15 -6.85 -32.1 -5.75 -32.1 -5.75 -33.15 M-4.4 -33.15 L-4.4 -32.1 -3.3 -32.1 -3.3 -33.15 -4.4 -33.15 M-8.2 -32.1 L-8.2 -33.15 -9.3 -33.15 -9.3 -32.1 -8.2 -32.1 M-14.2 -27.8 L-13.75 -27.8 -14.2 -26.5 -13.75 -26.5 -13.1 -27.8 -13.1 -28.8 -14.2 -28.8 -14.2 -27.8 M-16.2 -27.8 L-16.65 -26.5 -16.2 -26.5 -15.55 -27.8 -15.55 -28.8 -16.65 -28.8 -16.65 -27.8 -16.2 -27.8 M-19.1 -28.8 L-19.1 -27.8 -18.65 -27.8 -19.1 -26.5 -18.65 -26.5 -18.0 -27.8 -18.0 -28.8 -19.1 -28.8 M-18.0 -32.1 L-18.0 -33.15 -19.1 -33.15 -19.1 -32.1 -18.0 -32.1 M-14.2 -33.15 L-14.2 -32.1 -13.1 -32.1 -13.1 -33.15 -14.2 -33.15 M-16.65 -33.15 L-16.65 -32.1 -15.55 -32.1 -15.55 -33.15 -16.65 -33.15 M-17.8 -41.8 L-18.25 -40.5 -17.8 -40.5 -17.15 -41.8 -17.15 -42.8 -18.25 -42.8 -18.25 -41.8 -17.8 -41.8 M-14.7 -42.8 L-15.8 -42.8 -15.8 -41.8 -15.35 -41.8 -15.8 -40.5 -15.35 -40.5 -14.7 -41.8 -14.7 -42.8 M-3.55 -19.15 L-3.55 -18.1 -2.45 -18.1 -2.45 -19.15 -3.55 -19.15 M-3.55 -14.8 L-3.55 -13.8 -3.1 -13.8 -3.55 -12.5 -3.1 -12.5 -2.45 -13.8 -2.45 -14.8 -3.55 -14.8 M-5.55 -12.5 L-4.9 -13.8 -4.9 -14.8 -6.0 -14.8 -6.0 -13.8 -5.55 -13.8 -6.0 -12.5 -5.55 -12.5 M-8.0 -13.8 L-8.45 -12.5 -8.0 -12.5 -7.35 -13.8 -7.35 -14.8 -8.45 -14.8 -8.45 -13.8 -8.0 -13.8 M-10.9 -14.8 L-10.9 -13.8 -9.8 -13.8 -9.8 -14.8 -10.9 -14.8 M-13.35 -14.8 L-13.35 -13.8 -12.25 -13.8 -12.25 -14.8 -13.35 -14.8 M-4.9 -19.15 L-6.0 -19.15 -6.0 -18.1 -4.9 -18.1 -4.9 -19.15 M-7.35 -19.15 L-8.45 -19.15 -8.45 -18.1 -7.35 -18.1 -7.35 -19.15 M24.4 -33.4 L26.7 -34.0 27.15 -32.85 29.75 -34.0 32.15 -34.45 Q33.0 -34.4 33.45 -33.85 34.0 -33.25 34.0 -32.25 34.05 -30.85 33.3 -30.1 32.3 -28.95 29.6 -28.95 L29.8 -27.9 Q25.85 -26.85 21.85 -26.8 L21.0 -27.3 24.4 -33.4 M18.9 -27.8 L18.45 -26.5 18.9 -26.5 19.55 -27.8 19.55 -28.8 18.45 -28.8 18.45 -27.8 18.9 -27.8 M17.1 -32.1 L17.1 -33.15 16.0 -33.15 16.0 -32.1 17.1 -32.1 M18.45 -33.15 L18.45 -32.1 19.55 -32.1 19.55 -33.15 18.45 -33.15 M9.15 -13.8 L8.7 -12.5 9.15 -12.5 9.8 -13.8 9.8 -14.8 8.7 -14.8 8.7 -13.8 9.15 -13.8 M6.7 -12.5 L7.35 -13.8 7.35 -14.8 6.25 -14.8 6.25 -13.8 6.7 -13.8 6.25 -12.5 6.7 -12.5 M9.8 -19.15 L8.7 -19.15 8.7 -18.1 9.8 -18.1 9.8 -19.15 M13.55 -26.5 L14.0 -26.5 14.65 -27.8 14.65 -28.8 13.55 -28.8 13.55 -27.8 14.0 -27.8 13.55 -26.5 M13.55 -33.15 L13.55 -32.1 14.65 -32.1 14.65 -33.15 13.55 -33.15 M-1.5 -27.8 L-1.95 -26.5 -1.5 -26.5 -0.85 -27.8 -0.85 -28.8 -1.95 -28.8 -1.95 -27.8 -1.5 -27.8 M-1.95 -32.1 L-0.85 -32.1 -0.85 -33.15 -1.95 -33.15 -1.95 -32.1 M5.6 -35.45 L3.3 -35.05 0.3 -34.0 0.75 -32.85 3.35 -34.0 5.75 -34.45 Q6.6 -34.4 7.05 -33.85 7.6 -33.25 7.6 -32.25 7.65 -30.85 6.9 -30.1 5.9 -28.95 3.2 -28.95 L3.4 -27.9 Q5.8 -27.9 7.1 -28.85 8.5 -29.9 8.6 -31.85 8.7 -33.8 7.65 -34.75 6.85 -35.45 5.6 -35.45 M5.0 -40.5 L5.45 -40.5 6.1 -41.8 6.1 -42.8 5.0 -42.8 5.0 -41.8 5.45 -41.8 5.0 -40.5 M-0.65 -40.5 L0.0 -41.8 0.0 -42.8 -1.1 -42.8 -1.1 -41.8 -0.65 -41.8 -1.1 -40.5 -0.65 -40.5 M-1.1 -47.15 L-1.1 -46.1 0.0 -46.1 0.0 -47.15 -1.1 -47.15 M7.9 -40.5 L8.55 -41.8 8.55 -42.8 7.45 -42.8 7.45 -41.8 7.9 -41.8 7.45 -40.5 7.9 -40.5 M17.1 -27.8 L17.1 -28.8 16.0 -28.8 16.0 -27.8 16.45 -27.8 16.0 -26.5 16.45 -26.5 17.1 -27.8 M1.35 -19.15 L1.35 -18.1 2.45 -18.1 2.45 -19.15 1.35 -19.15 M3.8 -14.8 L3.8 -13.8 4.25 -13.8 3.8 -12.5 4.25 -12.5 4.9 -13.8 4.9 -14.8 3.8 -14.8 M1.35 -14.8 L1.35 -13.8 1.8 -13.8 1.35 -12.5 1.8 -12.5 2.45 -13.8 2.45 -14.8 1.35 -14.8 M-1.1 -14.8 L-1.1 -13.8 -0.65 -13.8 -1.1 -12.5 -0.65 -12.5 0.0 -13.8 0.0 -14.8 -1.1 -14.8 M0.0 -19.15 L-1.1 -19.15 -1.1 -18.1 0.0 -18.1 0.0 -19.15 M4.9 -19.15 L3.8 -19.15 3.8 -18.1 4.9 -18.1 4.9 -19.15 M11.15 -19.15 L11.15 -18.1 12.25 -18.1 12.25 -19.15 11.15 -19.15 M7.35 -18.1 L7.35 -19.15 6.25 -19.15 6.25 -18.1 7.35 -18.1" fill="#ffffff" fill-rule="evenodd" stroke="none"/>
  </g>
</svg>
