<svg xmlns:xlink="http://www.w3.org/1999/xlink" height="67.3px" width="51.35px" xmlns="http://www.w3.org/2000/svg">
  <g transform="matrix(1.0, 0.0, 0.0, 1.0, 25.2, 66.95)">
    <path d="M8.65 -64.45 L7.4 -63.3 7.3 -63.25 8.45 -62.45 Q12.35 -59.7 14.45 -56.7 L16.0 -58.0 19.3 -54.1 23.05 -49.6 22.35 -48.95 Q23.75 -47.65 24.45 -46.15 25.2 -44.6 25.2 -42.8 25.2 -39.35 22.35 -36.7 L23.05 -36.0 Q23.0 -33.25 22.45 -30.75 L22.25 -30.25 21.3 -30.7 Q20.05 -23.45 16.45 -20.45 L17.45 -19.1 Q17.15 -15.65 16.1 -13.6 L15.4 -12.95 Q18.25 -10.25 18.25 -6.8 18.25 -3.35 15.4 -0.7 L15.3 -0.4 14.35 -0.45 10.05 -0.45 10.05 0.3 9.95 0.3 9.95 -0.45 5.15 -0.45 4.65 -0.7 Q1.75 -3.35 1.75 -6.8 1.75 -10.25 4.65 -12.95 L3.95 -13.6 Q0.8 -10.7 0.8 -6.8 0.8 -2.95 3.95 0.0 L3.9 0.35 0.15 0.35 0.15 0.3 0.15 -0.45 -4.65 -0.45 -4.65 0.3 -4.75 0.3 -4.75 -0.45 -9.55 -0.45 -10.05 -0.7 Q-12.95 -3.35 -12.95 -6.8 -12.95 -10.25 -10.05 -12.95 L-10.75 -13.6 Q-11.35 -16.05 -12.45 -18.55 -13.15 -20.0 -13.8 -20.35 L-14.1 -20.7 -12.6 -22.0 Q-14.9 -25.25 -19.95 -28.45 L-21.3 -27.25 Q-23.35 -29.4 -24.35 -32.3 -25.25 -34.85 -25.2 -37.45 L-24.05 -37.45 -24.05 -43.35 Q-24.05 -45.0 -22.95 -46.05 -22.05 -47.0 -20.65 -47.0 -19.3 -47.0 -18.35 -46.05 -17.3 -45.0 -17.3 -43.35 L-17.3 -37.45 -16.1 -37.45 -16.1 -43.35 Q-16.1 -45.55 -17.4 -46.85 -18.8 -48.25 -20.65 -48.25 L-21.1 -48.2 -21.4 -54.15 -21.4 -54.65 -21.1 -55.1 -20.2 -54.75 -10.6 -66.55 -7.95 -66.5 -7.95 -55.0 3.55 -55.0 3.55 -66.5 Q6.3 -66.0 8.65 -64.45 M21.2 -44.35 L18.55 -44.35 18.55 -41.7 21.2 -41.7 21.2 -44.35 M5.8 -38.55 L5.8 -35.7 7.05 -35.7 7.05 -37.35 12.9 -37.35 12.9 -35.7 14.15 -35.7 14.15 -38.55 13.05 -38.55 13.05 -45.95 7.85 -45.95 7.85 -42.6 Q7.85 -40.05 6.8 -38.55 L5.8 -38.55 M-10.2 -38.8 L-11.65 -38.8 -11.65 -37.45 -11.05 -37.45 -11.65 -35.75 -11.05 -35.75 -10.2 -37.45 -10.2 -38.8 M-6.95 -38.8 L-8.4 -38.8 -8.4 -37.45 -7.8 -37.45 -8.4 -35.75 -7.8 -35.75 -6.95 -37.45 -6.95 -38.8 M-0.8 -44.35 L-3.45 -44.35 -3.45 -41.7 -0.8 -41.7 -0.8 -44.35 M9.1 -44.75 L11.8 -44.75 11.8 -38.55 8.15 -38.55 Q9.1 -40.1 9.1 -42.6 L9.1 -44.75 M12.8 -20.35 L12.8 -21.55 6.9 -21.55 Q5.25 -21.55 4.2 -22.6 3.25 -23.55 3.25 -24.95 3.25 -26.3 4.2 -27.25 5.25 -28.3 6.9 -28.3 L12.8 -28.3 12.8 -29.5 6.9 -29.5 Q4.7 -29.5 3.4 -28.2 2.0 -26.8 2.0 -24.95 2.0 -23.05 3.4 -21.7 4.7 -20.35 6.9 -20.35 L12.8 -20.35" fill="#ffffff" fill-rule="evenodd" stroke="none"/>
    <path d="M16.0 -58.0 L14.45 -56.7 Q12.35 -59.7 8.45 -62.45 L7.3 -63.25 7.4 -63.3 8.65 -64.45 Q13.7 -61.25 16.0 -58.0 M3.55 -66.5 L3.55 -55.0 -7.95 -55.0 -7.95 -66.5 3.55 -66.5 M-10.6 -66.55 L-20.2 -54.75 -21.1 -55.1 -11.5 -66.95 -10.6 -66.55 M-21.1 -48.2 L-20.65 -48.25 Q-18.8 -48.25 -17.4 -46.85 -16.1 -45.55 -16.1 -43.35 L-16.1 -37.45 -17.3 -37.45 -17.3 -43.35 Q-17.3 -45.0 -18.35 -46.05 -19.3 -47.0 -20.65 -47.0 -22.05 -47.0 -22.95 -46.05 -24.05 -45.0 -24.05 -43.35 L-24.05 -37.45 -25.2 -37.45 -25.2 -43.35 Q-25.2 -45.55 -23.9 -46.85 -22.7 -48.1 -21.1 -48.2 M-21.3 -27.25 L-19.95 -28.45 Q-14.9 -25.25 -12.6 -22.0 L-14.1 -20.7 -14.15 -20.7 Q-16.55 -24.1 -21.3 -27.25 M-10.75 -13.6 L-10.05 -12.95 Q-12.95 -10.25 -12.95 -6.8 -12.95 -3.35 -10.05 -0.7 L-10.75 0.0 -11.15 -0.4 Q-13.9 -3.2 -13.9 -6.8 -13.9 -10.7 -10.75 -13.6 M-9.55 -0.45 L-4.75 -0.45 -4.75 0.3 -9.55 0.3 -9.55 -0.45 M-4.65 0.3 L-4.65 -0.45 0.15 -0.45 0.15 0.3 -4.65 0.3 M3.95 0.0 Q0.8 -2.95 0.8 -6.8 0.8 -10.7 3.95 -13.6 L4.65 -12.95 Q1.75 -10.25 1.75 -6.8 1.75 -3.35 4.65 -0.7 L3.95 0.0 M5.15 -0.45 L9.95 -0.45 9.95 0.3 5.15 0.3 5.15 -0.45 M10.05 0.3 L10.05 -0.45 14.35 -0.45 14.85 -0.45 14.85 0.3 10.05 0.3 M15.4 -0.7 Q18.25 -3.35 18.25 -6.8 18.25 -10.25 15.4 -12.95 L16.1 -13.6 Q19.2 -10.7 19.2 -6.8 19.2 -2.95 16.1 0.0 L15.4 -0.7 M17.45 -19.1 L16.45 -20.45 Q20.05 -23.45 21.3 -30.7 L22.25 -30.25 22.3 -30.2 22.65 -30.05 Q23.05 -29.8 22.65 -29.7 L22.6 -29.4 Q21.3 -22.55 17.45 -19.1 M23.05 -36.0 L22.35 -36.7 Q25.2 -39.35 25.2 -42.8 25.2 -44.6 24.45 -46.15 23.75 -47.65 22.35 -48.95 L23.05 -49.6 Q24.4 -48.35 25.2 -46.85 26.15 -45.0 26.15 -42.8 26.15 -38.95 23.05 -36.0 M-0.8 -44.35 L-0.8 -41.7 -3.45 -41.7 -3.45 -44.35 -0.8 -44.35 M-6.95 -38.8 L-6.95 -37.45 -7.8 -35.75 -8.4 -35.75 -7.8 -37.45 -8.4 -37.45 -8.4 -38.8 -6.95 -38.8 M-10.2 -38.8 L-10.2 -37.45 -11.05 -35.75 -11.65 -35.75 -11.05 -37.45 -11.65 -37.45 -11.65 -38.8 -10.2 -38.8 M5.8 -38.55 L6.8 -38.55 Q7.85 -40.05 7.85 -42.6 L7.85 -45.95 13.05 -45.95 13.05 -38.55 14.15 -38.55 14.15 -35.7 12.9 -35.7 12.9 -37.35 7.05 -37.35 7.05 -35.7 5.8 -35.7 5.8 -38.55 M21.2 -44.35 L21.2 -41.7 18.55 -41.7 18.55 -44.35 21.2 -44.35 M9.1 -44.75 L9.1 -42.6 Q9.1 -40.1 8.15 -38.55 L11.8 -38.55 11.8 -44.75 9.1 -44.75 M12.8 -20.35 L6.9 -20.35 Q4.7 -20.35 3.4 -21.7 2.0 -23.05 2.0 -24.95 2.0 -26.8 3.4 -28.2 4.7 -29.5 6.9 -29.5 L12.8 -29.5 12.8 -28.3 6.9 -28.3 Q5.25 -28.3 4.2 -27.25 3.25 -26.3 3.25 -24.95 3.25 -23.55 4.2 -22.6 5.25 -21.55 6.9 -21.55 L12.8 -21.55 12.8 -20.35" fill="#000000" fill-rule="evenodd" stroke="none"/>
  </g>
</svg>
