<svg xmlns:xlink="http://www.w3.org/1999/xlink" height="74.1px" width="81.4px" xmlns="http://www.w3.org/2000/svg">
  <g transform="matrix(1.0, 0.0, 0.0, 1.0, 29.55, 74.4)">
    <path d="M41.85 -49.8 L43.75 -50.45 45.55 -51.05 48.25 -51.45 Q49.65 -51.45 50.6 -50.65 51.75 -49.65 51.8 -48.05 52.05 -45.0 50.05 -43.6 L49.1 -43.05 Q47.65 -42.4 45.55 -42.4 L45.3 -43.65 Q47.9 -43.65 49.25 -44.6 L49.7 -45.05 Q50.5 -45.9 50.55 -47.4 50.6 -48.75 50.0 -49.5 49.3 -50.35 48.25 -50.35 L45.7 -49.8 44.95 -49.5 42.4 -48.4 41.85 -49.8 M36.95 -40.65 L36.2 -41.4 36.6 -41.8 36.95 -42.1 Q39.45 -44.9 39.45 -48.3 39.45 -52.15 36.2 -55.2 L36.95 -55.95 Q40.45 -52.7 40.5 -48.45 L40.5 -48.3 Q40.5 -43.95 36.95 -40.65 M20.6 -34.9 L22.1 -34.2 Q22.6 -33.95 22.1 -33.8 20.7 -25.85 16.25 -21.9 L15.1 -23.4 Q19.2 -26.75 20.6 -34.9 M16.6 -15.35 L17.4 -16.05 Q19.2 -14.35 20.0 -12.75 20.9 -10.85 20.9 -8.4 20.9 -6.2 20.0 -4.3 19.15 -2.55 17.4 -0.55 L16.6 -1.35 Q18.35 -3.25 19.05 -4.8 19.85 -6.5 19.85 -8.4 19.85 -10.65 19.05 -12.25 18.35 -13.7 16.6 -15.35 M13.65 -1.05 L13.3 -0.35 12.6 -0.35 12.85 -1.0 13.3 -2.25 12.6 -2.25 12.6 -3.8 14.2 -3.8 14.2 -2.25 13.65 -1.05 M10.0 -1.0 L9.65 -0.35 8.95 -0.35 9.2 -1.05 9.65 -2.25 8.95 -2.25 8.95 -3.8 10.55 -3.8 10.55 -2.25 10.0 -1.0 M7.8 -1.15 L7.8 -0.3 2.4 -0.3 2.4 -1.15 7.8 -1.15 M2.3 -1.15 L2.3 -0.3 -3.1 -0.3 -3.1 -1.15 2.3 -1.15 M-16.15 -1.2 L-16.55 -0.35 -17.25 -0.35 -16.95 -1.15 -16.55 -2.25 -17.25 -2.25 -17.25 -3.8 -15.65 -3.8 -15.65 -2.25 -16.15 -1.2 M-18.4 -1.15 L-18.4 -0.3 -23.8 -0.3 -23.8 -1.15 -18.4 -1.15 M-25.3 -1.35 L-26.05 -0.55 Q-27.8 -2.55 -28.65 -4.3 -29.55 -6.2 -29.55 -8.4 -29.55 -10.85 -28.65 -12.75 -27.9 -14.35 -26.05 -16.05 L-25.3 -15.35 Q-27.05 -13.7 -27.75 -12.25 -28.5 -10.65 -28.5 -8.4 -28.5 -6.5 -27.75 -4.8 -27.05 -3.25 -25.3 -1.35 M-26.15 -21.5 L-26.9 -21.9 -19.4 -35.2 -18.7 -34.8 -26.15 -21.5 M-20.55 -40.55 Q-22.3 -42.55 -23.15 -44.3 -24.05 -46.2 -24.05 -48.4 -24.05 -50.85 -23.15 -52.75 -22.4 -54.35 -20.55 -56.05 L-19.8 -55.35 Q-21.55 -53.7 -22.25 -52.25 -23.0 -50.65 -23.0 -48.4 -23.0 -46.5 -22.25 -44.8 -21.55 -43.25 -19.8 -41.35 L-20.55 -40.55 M-15.15 -62.25 L-17.0 -62.25 -11.65 -74.4 -9.95 -74.4 -4.6 -62.25 -6.45 -62.25 -7.7 -65.35 -13.9 -65.35 -15.15 -62.25 M-2.55 -61.15 L1.05 -61.15 1.05 -60.3 -4.35 -60.3 -4.35 -61.15 -2.55 -61.15 M1.15 -60.3 L1.15 -61.15 6.55 -61.15 6.55 -60.3 1.15 -60.3 M6.65 -60.3 L6.65 -61.15 11.1 -61.15 12.05 -61.15 12.05 -60.3 6.65 -60.3 M12.35 -62.25 L12.4 -62.3 17.7 -74.4 19.4 -74.4 24.75 -62.25 23.8 -62.25 22.9 -62.25 21.65 -65.35 15.45 -65.35 14.2 -62.25 12.35 -62.25 M16.15 -66.95 L20.95 -66.95 18.6 -72.55 18.5 -72.55 16.15 -66.95 M6.6 -51.4 Q3.85 -48.3 3.85 -45.55 3.85 -44.1 4.25 -43.65 4.7 -43.25 5.35 -43.25 6.25 -43.25 6.85 -43.9 L7.8 -45.2 Q7.65 -45.85 7.8 -46.95 7.85 -47.75 8.4 -48.85 8.9 -49.85 9.4 -49.85 9.95 -49.85 9.95 -48.4 L9.6 -46.35 9.0 -45.0 Q9.0 -44.3 9.45 -43.8 9.95 -43.3 10.8 -43.3 11.7 -43.3 12.35 -43.95 13.5 -45.05 13.5 -47.8 13.5 -50.0 12.85 -51.7 L14.2 -52.05 Q14.95 -50.05 14.95 -47.8 14.95 -44.6 13.4 -43.05 12.45 -42.05 10.9 -42.05 9.55 -42.05 8.85 -42.75 8.3 -43.3 8.15 -43.8 L7.45 -42.9 Q6.6 -42.05 5.35 -42.05 4.15 -42.05 3.35 -42.8 2.6 -43.6 2.6 -45.55 2.6 -48.8 5.4 -52.05 L6.6 -51.4 M4.75 -25.05 L4.75 -24.25 0.7 -24.25 0.7 -22.25 -0.9 -22.25 -0.9 -24.25 -5.05 -24.25 -5.05 -25.05 -0.9 -25.05 -0.9 -26.5 -5.05 -26.5 -5.05 -27.3 -0.9 -27.3 -0.9 -27.6 -5.9 -34.3 -3.95 -34.3 -0.2 -28.95 0.0 -28.95 3.7 -34.3 5.7 -34.3 0.7 -27.6 0.7 -27.3 4.75 -27.3 4.75 -26.5 0.7 -26.5 0.7 -25.05 4.75 -25.05 M-10.85 -72.55 L-13.2 -66.95 -8.4 -66.95 -10.75 -72.55 -10.85 -72.55 M-18.2 -62.25 L-19.1 -60.35 -19.8 -60.35 -19.1 -62.25 -19.8 -62.25 -19.8 -63.8 -18.2 -63.8 -18.2 -62.25 M-17.25 -33.0 L-17.25 -34.55 -15.65 -34.55 -15.65 -33.0 -16.55 -30.9 -17.25 -30.9 -16.55 -33.0 -17.25 -33.0 M-4.4 -14.3 L-4.4 -5.8 -4.45 -5.1 Q-4.65 -4.0 -5.35 -3.25 -6.5 -2.1 -8.9 -2.1 -11.25 -2.1 -12.4 -3.25 -13.1 -3.95 -13.3 -4.9 L-13.4 -5.8 -13.4 -14.3 -11.75 -14.3 -11.75 -5.85 -11.6 -4.9 -11.15 -4.25 Q-10.35 -3.45 -8.9 -3.45 -7.4 -3.45 -6.65 -4.25 L-6.1 -5.05 -6.0 -5.85 -6.0 -14.3 -4.4 -14.3" fill="#000000" fill-rule="evenodd" stroke="none"/>
    <path d="M45.3 -43.65 Q40.9 -41.65 36.95 -40.65 40.5 -43.95 40.5 -48.3 L40.5 -48.45 41.85 -49.8 42.4 -48.4 44.95 -49.5 45.7 -49.8 48.25 -50.35 Q49.3 -50.35 50.0 -49.5 50.6 -48.75 50.55 -47.4 50.5 -45.9 49.7 -45.05 L49.25 -44.6 Q47.9 -43.65 45.3 -43.65 M36.6 -41.8 L36.2 -41.4 Q31.3 -37.35 25.35 -36.35 23.0 -35.95 20.6 -34.9 19.2 -26.75 15.1 -23.4 L16.25 -21.9 Q17.7 -19.3 16.6 -15.35 18.35 -13.7 19.05 -12.25 19.85 -10.65 19.85 -8.4 19.85 -6.5 19.05 -4.8 18.35 -3.25 16.6 -1.35 L13.65 -1.05 14.2 -2.25 14.2 -3.8 12.6 -3.8 12.6 -2.25 13.3 -2.25 12.85 -1.0 10.0 -1.0 10.55 -2.25 10.55 -3.8 8.95 -3.8 8.95 -2.25 9.65 -2.25 9.2 -1.05 7.8 -1.15 2.4 -1.15 2.3 -1.15 -3.1 -1.15 -3.1 -0.3 Q-3.3 -1.3 -4.25 -1.3 L-16.15 -1.2 -15.65 -2.25 -15.65 -3.8 -17.25 -3.8 -17.25 -2.25 -16.55 -2.25 -16.95 -1.15 -18.4 -1.15 -23.8 -1.15 -25.3 -1.35 Q-27.05 -3.25 -27.75 -4.8 -28.5 -6.5 -28.5 -8.4 -28.5 -10.65 -27.75 -12.25 -27.05 -13.7 -25.3 -15.35 L-26.05 -16.05 -26.15 -21.5 -18.7 -34.8 -19.4 -35.2 -20.55 -40.55 -19.8 -41.35 Q-21.55 -43.25 -22.25 -44.8 -23.0 -46.5 -23.0 -48.4 -23.0 -50.65 -22.25 -52.25 -21.55 -53.7 -19.8 -55.35 L-20.55 -56.05 Q-18.15 -59.9 -15.15 -62.25 L-13.9 -65.35 -7.7 -65.35 -6.45 -62.25 -4.6 -62.25 Q-3.7 -62.15 -2.55 -61.15 L-4.35 -61.15 -4.35 -60.3 1.05 -60.3 1.15 -60.3 6.55 -60.3 6.65 -60.3 12.05 -60.3 12.05 -61.15 11.1 -61.15 12.35 -62.25 14.2 -62.25 15.45 -65.35 21.65 -65.35 22.9 -62.25 23.8 -62.25 24.75 -62.1 Q31.05 -61.15 35.85 -57.6 38.4 -55.75 36.95 -55.95 L36.2 -55.2 Q39.45 -52.15 39.45 -48.3 39.45 -44.9 36.95 -42.1 L36.6 -41.8 M-10.85 -72.55 L-10.75 -72.55 -8.4 -66.95 -13.2 -66.95 -10.85 -72.55 M4.75 -25.05 L0.7 -25.05 0.7 -26.5 4.75 -26.5 4.75 -27.3 0.7 -27.3 0.7 -27.6 5.7 -34.3 3.7 -34.3 0.0 -28.95 -0.2 -28.95 -3.95 -34.3 -5.9 -34.3 -0.9 -27.6 -0.9 -27.3 -5.05 -27.3 -5.05 -26.5 -0.9 -26.5 -0.9 -25.05 -5.05 -25.05 -5.05 -24.25 -0.9 -24.25 -0.9 -22.25 0.7 -22.25 0.7 -24.25 4.75 -24.25 4.75 -25.05 M6.6 -51.4 L5.4 -52.05 Q2.6 -48.8 2.6 -45.55 2.6 -43.6 3.35 -42.8 4.15 -42.05 5.35 -42.05 6.6 -42.05 7.45 -42.9 L8.15 -43.8 Q8.3 -43.3 8.85 -42.75 9.55 -42.05 10.9 -42.05 12.45 -42.05 13.4 -43.05 14.95 -44.6 14.95 -47.8 14.95 -50.05 14.2 -52.05 L12.85 -51.7 Q13.5 -50.0 13.5 -47.8 13.5 -45.05 12.35 -43.95 11.7 -43.3 10.8 -43.3 9.95 -43.3 9.45 -43.8 9.0 -44.3 9.0 -45.0 L9.6 -46.35 9.95 -48.4 Q9.95 -49.85 9.4 -49.85 8.9 -49.85 8.4 -48.85 7.85 -47.75 7.8 -46.95 7.65 -45.85 7.8 -45.2 L6.85 -43.9 Q6.25 -43.25 5.35 -43.25 4.7 -43.25 4.25 -43.65 3.85 -44.1 3.85 -45.55 3.85 -48.3 6.6 -51.4 M16.15 -66.95 L18.5 -72.55 18.6 -72.55 20.95 -66.95 16.15 -66.95 M-4.4 -14.3 L-6.0 -14.3 -6.0 -5.85 -6.1 -5.05 -6.65 -4.25 Q-7.4 -3.45 -8.9 -3.45 -10.35 -3.45 -11.15 -4.25 L-11.6 -4.9 -11.75 -5.85 -11.75 -14.3 -13.4 -14.3 -13.4 -5.8 -13.3 -4.9 Q-13.1 -3.95 -12.4 -3.25 -11.25 -2.1 -8.9 -2.1 -6.5 -2.1 -5.35 -3.25 -4.65 -4.0 -4.45 -5.1 L-4.4 -5.8 -4.4 -14.3 M-17.25 -33.0 L-16.55 -33.0 -17.25 -30.9 -16.55 -30.9 -15.65 -33.0 -15.65 -34.55 -17.25 -34.55 -17.25 -33.0" fill="#ffffff" fill-rule="evenodd" stroke="none"/>
  </g>
</svg>
