<svg xmlns:xlink="http://www.w3.org/1999/xlink" height="42.5px" width="44.05px" xmlns="http://www.w3.org/2000/svg">
  <g transform="matrix(1.0, 0.0, 0.0, 1.0, 23.7, 42.55)">
    <path d="M20.35 -38.2 Q20.15 -35.25 18.7 -32.9 17.35 -30.55 15.05 -29.2 L14.3 -30.1 Q18.95 -32.75 19.25 -38.5 L20.35 -38.2 M-0.9 -42.05 L-12.85 -42.05 -12.85 -42.55 -0.9 -42.55 -0.9 -42.05 M-14.95 -39.95 L-14.0 -39.95 -14.0 -28.05 -14.95 -28.05 -14.95 -39.95 M-14.9 -25.95 L-13.95 -25.95 -13.95 -14.05 -14.9 -14.05 -14.9 -25.95 M-13.05 -14.05 L-13.05 -14.55 -1.1 -14.55 -1.1 -14.05 -13.05 -14.05 M-1.05 -14.55 L10.9 -14.55 10.9 -14.05 -1.05 -14.05 -1.05 -14.55 M11.9 -14.2 L11.9 -25.95 12.35 -25.95 12.85 -25.95 12.85 -14.05 11.9 -14.05 11.9 -14.2 M12.8 -28.05 L11.85 -28.05 11.85 -39.95 12.3 -39.95 12.8 -39.95 12.8 -28.05 M11.1 -42.55 L11.1 -42.05 -0.85 -42.05 -0.85 -42.55 11.1 -42.55 M3.2 -37.5 L-1.1 -29.65 -5.4 -37.5 -4.5 -38.0 -3.45 -36.05 1.25 -36.05 2.3 -38.0 3.2 -37.5 M0.8 -35.1 L-2.95 -35.1 -1.1 -31.75 0.8 -35.1 M6.85 -35.05 L8.9 -35.05 8.9 -33.05 6.85 -33.05 6.85 -35.05 M-11.15 -33.05 L-11.15 -35.05 -9.1 -35.05 -9.1 -33.05 -11.15 -33.05 M-6.45 -12.0 L-6.45 -0.05 -7.35 -0.05 -7.35 -12.0 -6.45 -12.0 M5.55 -12.0 L5.55 -0.05 4.65 -0.05 4.65 -12.0 5.55 -12.0 M-18.35 -30.8 Q-20.1 -33.35 -23.7 -35.7 L-22.7 -36.6 Q-18.9 -34.2 -17.15 -31.75 L-18.35 -30.8" fill="#000000" fill-rule="evenodd" stroke="none"/>
    <path d="M-0.9 -42.05 L-0.85 -42.05 11.1 -42.05 11.1 -42.55 12.35 -42.35 12.3 -39.95 11.85 -39.95 11.85 -28.05 12.8 -28.05 12.35 -25.95 11.9 -25.95 11.9 -14.2 10.9 -14.05 10.9 -14.55 -1.05 -14.55 -1.1 -14.55 -13.05 -14.55 -13.05 -14.05 -13.95 -14.05 -13.95 -25.95 -14.9 -25.95 -14.95 -28.05 -14.0 -28.05 -14.0 -39.95 -14.95 -39.95 -14.95 -42.4 -12.85 -42.55 -12.85 -42.05 -0.9 -42.05 M6.85 -35.05 L6.85 -33.05 8.9 -33.05 8.9 -35.05 6.85 -35.05 M0.8 -35.1 L-1.1 -31.75 -2.95 -35.1 0.8 -35.1 M3.2 -37.5 L2.3 -38.0 1.25 -36.05 -3.45 -36.05 -4.5 -38.0 -5.4 -37.5 -1.1 -29.65 3.2 -37.5 M-11.15 -33.05 L-9.1 -33.05 -9.1 -35.05 -11.15 -35.05 -11.15 -33.05" fill="#ffffff" fill-rule="evenodd" stroke="none"/>
  </g>
</svg>
