<svg xmlns:xlink="http://www.w3.org/1999/xlink" height="100.25px" width="92.1px" xmlns="http://www.w3.org/2000/svg">
  <g transform="matrix(1.0, 0.0, 0.0, 1.0, 46.05, 50.15)">
    <path d="M15.5 -49.75 L5.25 -49.75 5.25 -50.15 15.65 -50.15 15.65 -49.75 15.5 -49.75 M5.2 -49.75 L-5.2 -49.75 -15.6 -49.75 -15.6 -50.15 -5.2 -50.15 -5.2 -49.75 -5.2 -50.15 5.2 -50.15 5.2 -49.75 M-15.65 -50.15 L-15.65 -49.75 -26.05 -49.75 -26.05 -50.15 -15.65 -50.15 M-26.6 -48.35 L-35.5 -40.9 -36.0 -41.45 -27.1 -48.8 -27.05 -48.85 -26.6 -48.35 M-37.45 -37.45 L-37.15 -37.7 -36.7 -37.2 -45.15 -30.1 -45.6 -29.75 -46.05 -30.35 -37.45 -37.45 M-45.5 -27.85 L-44.95 -27.85 -44.95 -17.5 -45.45 -17.5 -45.75 -17.5 -45.75 -27.85 -45.5 -27.85 M-45.5 -16.7 L-44.95 -16.7 -44.95 -6.35 -45.35 -6.35 -45.75 -6.35 -45.75 -16.7 -45.5 -16.7 M-45.35 -5.3 L-44.95 -5.3 -44.95 5.05 -45.25 5.05 -45.75 5.05 -45.75 -5.3 -45.35 -5.3 M-45.35 5.8 L-44.95 5.8 -44.95 16.2 -45.4 16.2 -45.75 16.2 -45.75 5.8 -45.35 5.8 M-45.6 18.2 L-36.7 25.6 -36.85 25.8 -37.15 26.2 -46.05 18.75 -45.6 18.2 M-35.35 28.3 L-34.85 28.3 -34.85 38.7 -35.65 38.7 -35.65 38.1 -35.65 28.3 -35.35 28.3 M-36.95 40.65 L-36.8 40.55 -36.35 41.0 Q-37.4 41.9 -37.75 42.75 -38.25 43.7 -38.25 45.0 -38.25 46.1 -37.75 47.05 -37.4 47.9 -36.45 48.95 L-36.35 49.05 -36.8 49.55 -37.2 49.1 -38.35 47.35 Q-38.85 46.25 -38.85 45.0 -38.85 43.55 -38.35 42.5 L-36.95 40.65 M-34.85 49.2 L-32.35 49.2 -32.35 49.7 -35.5 49.7 -35.5 49.2 -34.85 49.2 M-32.3 49.7 L-21.9 49.7 -21.9 50.1 -32.3 50.1 -32.3 49.7 M-21.05 49.05 Q-20.05 47.95 -19.6 47.05 -19.2 46.1 -19.2 45.0 -19.2 43.7 -19.6 42.75 -20.05 41.9 -21.05 41.0 L-20.6 40.55 Q-19.6 41.5 -19.1 42.5 -18.6 43.55 -18.55 45.0 -18.6 46.25 -19.1 47.35 -19.6 48.35 -20.6 49.55 L-21.05 49.05 M-16.65 49.7 L-6.25 49.7 -6.25 49.85 -6.25 50.1 -16.65 50.1 -16.65 49.7 M-5.1 49.4 L-5.4 49.05 Q-4.4 47.95 -3.95 47.05 -3.55 46.1 -3.5 45.0 -3.55 43.7 -3.95 42.75 -4.4 41.9 -5.4 41.0 L-4.95 40.55 Q-3.95 41.5 -3.45 42.5 -2.95 43.55 -2.9 45.0 -2.95 46.25 -3.45 47.35 L-4.45 48.9 -4.65 49.2 -4.95 49.55 -5.1 49.4 M-7.85 38.65 L-7.85 38.7 -8.65 38.7 -8.65 28.35 -7.85 28.35 -7.85 38.65 M-8.8 25.95 L-9.1 26.2 -9.55 25.6 -0.65 18.2 -0.4 18.55 -0.2 18.75 -8.8 25.95 M0.5 16.2 L0.5 15.75 10.9 15.75 10.9 16.2 0.5 16.2 M10.95 16.2 L10.95 15.75 21.35 15.75 21.35 16.2 10.95 16.2 M21.4 15.75 L31.8 15.75 31.8 16.2 21.4 16.2 21.4 15.75 M32.85 15.0 L32.35 14.4 Q36.4 12.05 36.7 7.1 L37.65 7.35 Q37.45 9.9 36.2 11.95 35.15 13.7 33.55 14.85 L33.0 15.2 32.9 15.0 32.85 15.0 M46.05 5.05 L45.25 5.05 45.25 -4.5 45.25 -5.3 46.05 -5.3 46.05 5.05 M44.05 -6.35 L43.2 -6.35 43.2 -15.6 43.2 -16.7 44.05 -16.7 44.05 -6.35 M43.05 -18.65 L34.15 -26.05 34.65 -26.6 43.5 -19.2 43.05 -18.6 43.05 -18.65 M31.7 -29.75 L31.2 -29.05 30.25 -30.4 29.85 -30.85 30.2 -31.3 30.4 -31.6 31.75 -29.85 31.7 -29.75 M28.45 -33.75 Q28.45 -32.0 27.2 -30.75 25.95 -29.55 24.2 -29.55 22.4 -29.55 21.2 -30.75 19.95 -32.0 19.95 -33.75 19.95 -35.6 21.2 -36.8 22.4 -38.05 24.2 -38.05 25.95 -38.05 27.2 -36.8 L27.6 -36.35 28.3 -35.05 28.45 -33.75 M25.15 -40.9 L16.3 -48.3 16.25 -48.35 16.7 -48.85 25.6 -41.45 25.15 -40.9 M2.9 -30.75 Q1.7 -29.55 -0.1 -29.55 -1.9 -29.55 -3.1 -30.75 -4.3 -32.0 -4.3 -33.75 -4.3 -35.6 -3.1 -36.8 -1.9 -38.05 -0.1 -38.05 1.7 -38.05 2.9 -36.8 4.15 -35.6 4.2 -33.75 4.15 -32.0 2.9 -30.75 M37.4 -4.45 Q37.8 -4.35 37.4 -4.1 L37.4 -2.45 Q37.7 1.45 41.6 3.15 L41.1 4.15 Q38.25 2.95 37.1 -0.25 36.25 2.75 33.25 4.15 L32.65 3.3 Q36.5 1.75 36.5 -2.3 L36.5 -4.45 37.4 -4.45 M29.75 -14.9 L38.35 -14.9 34.0 -7.55 29.75 -14.9 M31.8 5.05 L21.4 5.05 21.4 4.6 31.8 4.6 31.8 5.05 M43.85 2.6 L43.85 3.5 42.9 3.5 42.9 2.6 43.85 2.6 M-18.1 -26.0 L-20.6 -22.15 -20.6 -19.05 -21.55 -19.05 -21.55 -22.15 -24.05 -26.0 -23.1 -26.0 -21.1 -22.85 -19.1 -26.0 -18.1 -26.0 M-38.1 -26.0 L-40.6 -22.15 -40.6 -19.05 -41.55 -19.05 -41.55 -22.15 -44.05 -26.0 -43.1 -26.0 -41.1 -22.85 -39.1 -26.0 -38.1 -26.0 M-40.5 -4.05 L-31.65 3.35 -32.05 3.9 -41.0 -3.55 -40.5 -4.05 M-39.85 -16.7 L-39.85 -6.35 -40.65 -6.35 -40.65 -16.7 -39.85 -16.7 M-21.2 -3.55 L-30.05 3.9 -30.55 3.35 -21.6 -4.05 -21.2 -3.55 M-20.4 -16.7 L-20.4 -6.35 -21.25 -6.35 -21.25 -16.7 -20.4 -16.7 M-10.65 25.75 L-11.6 25.75 -11.6 24.9 -10.65 24.9 -10.65 25.75 M-21.25 28.3 L-21.25 38.7 -22.0 38.7 -22.0 28.3 -21.25 28.3" fill="#000000" fill-rule="evenodd" stroke="none"/>
    <path d="M5.25 -49.75 L15.5 -49.75 16.25 -48.35 16.3 -48.3 25.15 -40.9 25.25 -40.95 27.6 -36.35 27.2 -36.8 Q25.95 -38.05 24.2 -38.05 22.4 -38.05 21.2 -36.8 19.95 -35.6 19.95 -33.75 19.95 -32.0 21.2 -30.75 22.4 -29.55 24.2 -29.55 25.95 -29.55 27.2 -30.75 28.45 -32.0 28.45 -33.75 L28.85 -33.95 30.2 -31.3 29.85 -30.85 30.25 -30.4 31.2 -29.05 31.7 -29.75 34.65 -26.6 34.15 -26.05 43.05 -18.65 43.2 -15.6 43.2 -6.35 44.05 -6.35 44.25 -6.45 45.25 -4.5 45.25 5.05 46.05 5.05 44.55 5.2 37.65 7.35 36.7 7.1 Q36.4 12.05 32.35 14.4 L32.85 15.0 32.85 15.05 31.8 16.2 31.8 15.75 21.4 15.75 21.35 15.75 10.95 15.75 10.95 16.2 10.9 16.2 10.9 15.75 0.5 15.75 0.5 16.2 0.7 16.3 -0.4 18.55 -0.65 18.2 -9.55 25.6 -9.1 26.2 -8.8 25.95 -8.65 28.35 -8.65 38.7 -7.85 38.7 -7.85 38.65 -7.75 38.65 -5.4 41.0 Q-4.4 41.9 -3.95 42.75 -3.55 43.7 -3.5 45.0 -3.55 46.1 -3.95 47.05 -4.4 47.95 -5.4 49.05 L-5.1 49.4 -6.2 49.85 -6.25 49.85 -6.25 49.7 -16.65 49.7 -16.7 50.0 -20.65 49.8 -20.6 49.55 Q-19.6 48.35 -19.1 47.35 -18.6 46.25 -18.55 45.0 -18.6 43.55 -19.1 42.5 -19.6 41.5 -20.6 40.55 L-21.05 41.0 Q-20.05 41.9 -19.6 42.75 -19.2 43.7 -19.2 45.0 -19.2 46.1 -19.6 47.05 -20.05 47.95 -21.05 49.05 L-21.9 49.7 -32.3 49.7 -32.35 49.7 -32.35 49.2 -34.85 49.2 -35.55 48.85 -36.4 48.95 -36.45 48.95 Q-37.4 47.9 -37.75 47.05 -38.25 46.1 -38.25 45.0 -38.25 43.7 -37.75 42.75 -37.4 41.9 -36.35 41.0 L-36.8 40.55 -36.95 40.65 -35.65 38.1 -35.65 38.7 -34.85 38.7 -34.85 28.3 -35.35 28.3 -36.85 25.8 -36.7 25.6 -45.6 18.2 -45.6 17.7 -45.4 16.2 -44.95 16.2 -44.95 5.8 -45.35 5.8 -45.25 5.05 -44.95 5.05 -44.95 -5.3 -45.35 -5.3 -45.35 -6.35 -44.95 -6.35 -44.95 -16.7 -45.5 -16.7 -45.45 -17.45 -45.45 -17.5 -44.95 -17.5 -44.95 -27.85 -45.5 -27.85 -45.15 -30.1 -36.7 -37.2 -37.15 -37.7 -37.45 -37.45 -35.5 -40.9 -26.6 -48.35 -26.05 -49.75 -15.65 -49.75 -15.65 -50.15 -15.6 -50.15 -15.6 -49.75 -5.2 -49.75 5.2 -49.75 5.25 -49.75 M31.8 5.05 L31.8 4.6 21.4 4.6 21.4 5.05 31.8 5.05 M29.75 -14.9 L34.0 -7.55 38.35 -14.9 29.75 -14.9 M37.4 -4.45 L36.5 -4.45 36.5 -2.3 Q36.5 1.75 32.65 3.3 L33.25 4.15 Q36.25 2.75 37.1 -0.25 38.25 2.95 41.1 4.15 L41.6 3.15 Q37.7 1.45 37.4 -2.45 L37.4 -4.1 Q37.8 -4.35 37.4 -4.45 M2.9 -30.75 Q4.15 -32.0 4.2 -33.75 4.15 -35.6 2.9 -36.8 1.7 -38.05 -0.1 -38.05 -1.9 -38.05 -3.1 -36.8 -4.3 -35.6 -4.3 -33.75 -4.3 -32.0 -3.1 -30.75 -1.9 -29.55 -0.1 -29.55 1.7 -29.55 2.9 -30.75 M43.85 2.6 L42.9 2.6 42.9 3.5 43.85 3.5 43.85 2.6 M-18.1 -26.0 L-19.1 -26.0 -21.1 -22.85 -23.1 -26.0 -24.05 -26.0 -21.55 -22.15 -21.55 -19.05 -20.6 -19.05 -20.6 -22.15 -18.1 -26.0 M-20.4 -16.7 L-21.25 -16.7 -21.25 -6.35 -20.4 -6.35 -20.4 -16.7 M-21.2 -3.55 L-21.6 -4.05 -30.55 3.35 -30.05 3.9 -21.2 -3.55 M-39.85 -16.7 L-40.65 -16.7 -40.65 -6.35 -39.85 -6.35 -39.85 -16.7 M-40.5 -4.05 L-41.0 -3.55 -32.05 3.9 -31.65 3.35 -40.5 -4.05 M-38.1 -26.0 L-39.1 -26.0 -41.1 -22.85 -43.1 -26.0 -44.05 -26.0 -41.55 -22.15 -41.55 -19.05 -40.6 -19.05 -40.6 -22.15 -38.1 -26.0 M-10.65 25.75 L-10.65 24.9 -11.6 24.9 -11.6 25.75 -10.65 25.75 M-21.25 28.3 L-22.0 28.3 -22.0 38.7 -21.25 38.7 -21.25 28.3" fill="#ffffff" fill-rule="evenodd" stroke="none"/>
  </g>
</svg>
