<svg xmlns:xlink="http://www.w3.org/1999/xlink" height="39.5px" width="100.4px" xmlns="http://www.w3.org/2000/svg">
  <g transform="matrix(1.0, 0.0, 0.0, 1.0, 50.2, 19.2)">
    <path d="M28.3 2.5 L28.25 2.05 31.2 1.8 34.15 4.55 35.0 4.55 38.55 6.1 38.6 6.2 38.5 6.25 39.1 7.95 42.8 6.25 Q44.85 5.5 46.2 5.55 47.35 5.65 48.0 6.45 48.75 7.35 48.8 8.85 48.85 10.95 47.8 12.1 46.35 13.8 42.6 13.8 L42.85 15.3 42.3 15.4 Q26.6 24.25 -0.2 17.05 -7.95 19.15 -17.0 19.0 -25.25 19.3 -30.65 16.8 L-30.8 16.75 -30.5 16.4 Q-32.15 14.55 -32.8 13.0 -33.55 11.3 -33.55 9.45 -33.55 7.2 -32.8 5.55 -32.15 4.05 -30.5 2.5 L-31.25 1.75 -31.35 1.85 -29.45 -4.75 -28.35 -4.2 -23.55 -15.45 -18.75 -4.2 -17.5 -4.8 -17.7 -5.3 -12.5 -5.3 -12.7 -4.8 -11.45 -4.2 -6.65 -15.45 -1.85 -4.2 -0.6 -4.8 -0.55 -4.9 1.5 1.0 13.6 2.2 13.5 2.5 14.15 3.05 Q15.8 1.15 17.25 0.5 18.9 -0.35 20.9 -0.35 22.7 -0.35 24.35 0.5 25.65 1.15 27.6 3.05 L28.3 2.5 M-33.35 14.1 L-37.15 14.0 -37.15 13.9 -38.8 13.85 -38.8 13.15 -45.05 13.15 Q-46.75 13.1 -47.85 11.95 -48.85 10.85 -48.85 9.4 -48.85 7.8 -47.85 6.75 -46.75 5.55 -45.05 5.55 L-38.8 5.55 -38.8 4.6 -33.4 4.6 -33.7 5.15 Q-34.55 7.0 -34.55 9.45 -34.55 11.6 -33.7 13.5 L-33.35 14.1 M-26.15 1.25 Q-26.6 0.7 -27.2 0.7 -27.8 0.7 -28.25 1.25 -28.7 1.75 -28.7 2.35 L-28.25 3.5 Q-27.8 4.0 -27.2 4.0 -26.6 4.0 -26.15 3.5 L-25.65 2.35 Q-25.7 1.75 -26.15 1.25 M-26.45 1.6 L-26.25 2.35 -26.45 3.1 Q-26.75 3.4 -27.2 3.4 -27.65 3.4 -27.9 3.1 L-28.2 2.35 -27.9 1.6 Q-27.65 1.3 -27.2 1.3 -26.75 1.3 -26.45 1.6 M-12.35 1.9 L-19.6 1.9 -19.6 6.75 Q-19.65 11.3 -21.6 14.25 L-22.7 14.25 -22.7 18.15 -21.45 18.15 -21.45 15.6 -12.15 15.6 -12.15 18.15 -10.9 18.15 -10.9 14.25 -12.35 14.25 -12.35 1.9 M-18.35 3.25 L-13.7 3.25 -13.7 14.25 -20.1 14.25 Q-18.35 11.4 -18.35 6.75 L-18.35 3.25 M-5.4 1.25 Q-5.8 0.7 -6.45 0.7 -7.0 0.7 -7.5 1.25 -7.95 1.75 -7.9 2.35 -7.95 2.95 -7.5 3.5 -7.0 4.0 -6.45 4.0 -5.8 4.0 -5.4 3.5 -4.9 2.95 -4.9 2.35 -4.9 1.75 -5.4 1.25 M-7.45 2.35 L-7.15 1.6 Q-6.85 1.3 -6.45 1.3 -5.95 1.3 -5.65 1.6 L-5.45 2.35 -5.65 3.1 -6.45 3.4 Q-6.85 3.4 -7.15 3.1 L-7.45 2.35 M9.35 5.55 L9.35 4.25 3.05 4.25 Q0.75 4.25 -0.65 5.75 -2.1 7.3 -2.1 9.4 -2.1 11.45 -0.65 13.0 0.75 14.45 3.05 14.45 L9.35 14.45 9.35 13.15 3.05 13.15 Q1.35 13.1 0.25 11.95 -0.75 10.85 -0.75 9.4 -0.75 7.8 0.25 6.75 1.35 5.55 3.05 5.55 L9.35 5.55" fill="#ffffff" fill-rule="evenodd" stroke="none"/>
    <path d="M36.65 -18.45 L37.4 -19.2 Q39.05 -17.45 39.85 -15.8 40.65 -13.95 40.7 -11.5 40.65 -9.35 39.85 -7.45 39.05 -5.7 37.4 -3.7 L36.65 -4.5 Q38.25 -6.4 39.0 -7.95 39.7 -9.65 39.7 -11.5 39.7 -13.75 39.0 -15.35 38.25 -16.85 36.65 -18.45 M13.5 2.5 L13.7 2.25 13.8 2.15 Q14.95 0.75 16.6 -0.2 18.7 -1.4 20.9 -1.35 23.25 -1.4 25.2 -0.2 L27.85 2.05 28.3 2.5 27.6 3.05 Q25.65 1.15 24.35 0.5 22.7 -0.35 20.9 -0.35 18.9 -0.35 17.25 0.5 15.8 1.15 14.15 3.05 L13.5 2.5 M31.2 1.8 L30.8 1.45 33.15 1.45 35.6 4.55 35.0 4.55 34.15 4.55 31.2 1.8 M38.6 6.2 L38.7 6.15 39.4 5.9 42.75 4.7 Q44.7 4.1 46.0 4.1 47.7 4.1 48.85 5.15 50.3 6.55 50.2 9.45 50.05 12.35 48.05 13.95 46.2 15.35 42.85 15.4 L42.85 15.3 42.6 13.8 Q46.35 13.8 47.8 12.1 48.85 10.95 48.8 8.85 48.75 7.35 48.0 6.45 47.35 5.65 46.2 5.55 44.85 5.5 42.8 6.25 L39.1 7.95 38.5 6.25 38.6 6.2 M-30.8 16.75 L-31.25 17.25 -33.35 14.1 -33.7 13.5 Q-34.55 11.6 -34.55 9.45 -34.55 7.0 -33.7 5.15 L-33.4 4.6 Q-32.7 3.25 -31.35 1.85 L-31.25 1.75 -30.5 2.5 Q-32.15 4.05 -32.8 5.55 -33.55 7.2 -33.55 9.45 -33.55 11.3 -32.8 13.0 -32.15 14.55 -30.5 16.4 L-30.8 16.75 M-38.8 13.85 L-38.8 14.45 -45.05 14.45 Q-47.4 14.45 -48.8 13.0 -50.2 11.45 -50.2 9.4 -50.2 7.3 -48.8 5.75 -47.4 4.25 -45.05 4.25 L-38.8 4.25 -38.8 4.6 -38.8 5.55 -45.05 5.55 Q-46.75 5.55 -47.85 6.75 -48.85 7.8 -48.85 9.4 -48.85 10.85 -47.85 11.95 -46.75 13.1 -45.05 13.15 L-38.8 13.15 -38.8 13.85 M-29.45 -4.75 L-29.65 -4.8 -23.55 -18.95 -17.7 -5.3 -17.5 -4.8 -18.75 -4.2 -23.55 -15.45 -28.35 -4.2 -29.45 -4.75 M-12.5 -5.3 L-6.65 -18.95 -0.6 -4.8 -1.85 -4.2 -6.65 -15.45 -11.45 -4.2 -12.7 -4.8 -12.5 -5.3 M9.35 5.55 L3.05 5.55 Q1.35 5.55 0.25 6.75 -0.75 7.8 -0.75 9.4 -0.75 10.85 0.25 11.95 1.35 13.1 3.05 13.15 L9.35 13.15 9.35 14.45 3.05 14.45 Q0.75 14.45 -0.65 13.0 -2.1 11.45 -2.1 9.4 -2.1 7.3 -0.65 5.75 0.75 4.25 3.05 4.25 L9.35 4.25 9.35 5.55 M-7.45 2.35 L-7.15 3.1 Q-6.85 3.4 -6.45 3.4 L-5.65 3.1 -5.45 2.35 -5.65 1.6 Q-5.95 1.3 -6.45 1.3 -6.85 1.3 -7.15 1.6 L-7.45 2.35 M-5.4 1.25 Q-4.9 1.75 -4.9 2.35 -4.9 2.95 -5.4 3.5 -5.8 4.0 -6.45 4.0 -7.0 4.0 -7.5 3.5 -7.95 2.95 -7.9 2.35 -7.95 1.75 -7.5 1.25 -7.0 0.7 -6.45 0.7 -5.8 0.7 -5.4 1.25 M-18.35 3.25 L-18.35 6.75 Q-18.35 11.4 -20.1 14.25 L-13.7 14.25 -13.7 3.25 -18.35 3.25 M-12.35 1.9 L-12.35 14.25 -10.9 14.25 -10.9 18.15 -12.15 18.15 -12.15 15.6 -21.45 15.6 -21.45 18.15 -22.7 18.15 -22.7 14.25 -21.6 14.25 Q-19.65 11.3 -19.6 6.75 L-19.6 1.9 -12.35 1.9 M-26.45 1.6 Q-26.75 1.3 -27.2 1.3 -27.65 1.3 -27.9 1.6 L-28.2 2.35 -27.9 3.1 Q-27.65 3.4 -27.2 3.4 -26.75 3.4 -26.45 3.1 L-26.25 2.35 -26.45 1.6 M-26.15 1.25 Q-25.7 1.75 -25.65 2.35 L-26.15 3.5 Q-26.6 4.0 -27.2 4.0 -27.8 4.0 -28.25 3.5 L-28.7 2.35 Q-28.7 1.75 -28.25 1.25 -27.8 0.7 -27.2 0.7 -26.6 0.7 -26.15 1.25" fill="#000000" fill-rule="evenodd" stroke="none"/>
  </g>
</svg>
