<?xml version="1.0" encoding="UTF-8" standalone="no"?>
<!DOCTYPE svg PUBLIC "-//W3C//DTD SVG 1.1//EN" "http://www.w3.org/Graphics/SVG/1.1/DTD/svg11.dtd">
<svg width="56px" height="91px" version="1.1" xmlns="http://www.w3.org/2000/svg" xmlns:xlink="http://www.w3.org/1999/xlink" xml:space="preserve" xmlns:serif="http://www.serif.com/" style="fill-rule:evenodd;clip-rule:evenodd;stroke-linejoin:round;stroke-miterlimit:2;">
    <g transform="matrix(0.456583,0.00992144,-0.00793718,0.365266,-57.9932,53.0235)">
        <path d="M139.366,-73.238L134.943,-47.836C134.943,-47.836 134.287,-39.247 133.181,-35.218C129.004,-20.005 128.976,-3.471 128.577,12.627C128.04,34.284 131.102,47.807 147,65L164.378,80.541C164.378,80.541 164.465,85.576 164.547,90.252C164.622,94.579 167.262,98.016 170.444,97.93L170.446,97.93C173.444,97.849 175.817,94.478 175.746,90.401C175.725,89.177 175.699,87.723 175.673,86.237C175.588,81.299 178.721,77.208 182.672,77.101C184.147,77.061 185.701,77.019 187.177,76.979C191.128,76.871 194.4,80.788 194.486,85.726C194.509,87.048 194.531,88.334 194.551,89.437C194.626,93.764 197.266,97.201 200.448,97.115L200.45,97.115C203.448,97.034 205.82,93.663 205.75,89.586C205.702,86.874 205.621,82.179 205.559,78.61C205.508,75.665 206.701,72.904 208.7,71.344C213.161,67.859 216.836,64.481 220.33,61.127C225.31,56.911 227.791,52.309 228.949,45.793C229.725,41.68 231.641,38.044 234.359,35.53C238.082,32.153 241.055,28.511 243.471,24.695C248.145,16.34 247.746,8.123 243.042,0.022C240.759,-4.827 241.384,-9.031 244.136,-12.763C246.351,-16.721 248.752,-22.3 245.905,-32.84C243.408,-42.082 236.998,-54.24 234.615,-56.921C231.855,-60.026 227.58,-65.044 223.729,-68.194C221.058,-76.652 216.459,-85.058 210.724,-93.432C208.218,-96.745 203.689,-101.555 199.838,-104.705C197.123,-107.823 179.009,-119.354 166.727,-115.984C149.046,-111.133 139.784,-87.239 139.366,-73.238Z" style="fill:white;"/>
    </g>
    <g transform="matrix(0.610261,0,0,0.610261,-39.8104,-42.2535)">
        <path d="M96.561,218.191L96.693,218.189C99.43,218.115 101.671,215.72 101.671,212.726L101.671,206.639C101.671,206.062 101.203,205.593 100.626,205.593C100.049,205.593 99.58,206.062 99.58,206.639L99.58,212.726C99.58,214.566 98.254,216.1 96.562,216.1L96.561,216.1C94.731,216.1 93.294,214.445 93.294,212.454L93.294,206.639C93.294,206.062 92.826,205.593 92.249,205.593C91.672,205.593 91.203,206.062 91.203,206.639L91.203,212.454C91.203,215.646 93.627,218.191 96.561,218.191ZM119.02,218.191L119.152,218.189C121.889,218.115 124.13,215.72 124.13,212.726L124.13,206.639C124.13,206.062 123.661,205.593 123.084,205.593C122.507,205.593 122.039,206.062 122.039,206.639L122.039,212.726C122.039,214.566 120.713,216.1 119.021,216.1L119.02,216.1C117.19,216.1 115.753,214.445 115.753,212.454L115.753,206.639C115.753,206.062 115.284,205.593 114.707,205.593C114.13,205.593 113.662,206.062 113.662,206.639L113.662,212.454C113.662,215.646 116.086,218.191 119.02,218.191ZM110.386,202.849L108.488,206.633C108.23,207.148 108.438,207.776 108.953,208.034C109.468,208.292 110.096,208.084 110.354,207.569L112.252,203.785C112.51,203.27 112.302,202.643 111.787,202.384C111.272,202.126 110.644,202.335 110.386,202.849ZM106.277,202.849L104.379,206.633C104.121,207.148 104.329,207.776 104.844,208.034C105.359,208.292 105.987,208.084 106.245,207.569L108.143,203.785C108.401,203.27 108.193,202.643 107.678,202.384C107.163,202.126 106.535,202.335 106.277,202.849ZM75.768,194.718L78.695,197.776C79.094,198.192 79.755,198.206 80.171,197.808C80.587,197.41 80.601,196.749 80.203,196.333L77.275,193.275C76.877,192.859 76.216,192.844 75.8,193.243C75.384,193.641 75.369,194.302 75.768,194.718ZM140.48,183.018C139.926,188.627 138.303,192.016 133.74,194.964C133.208,195.308 133.055,196.02 133.399,196.552C133.743,197.084 134.454,197.237 134.986,196.893C140.213,193.516 142.131,189.668 142.765,183.244C142.828,182.614 142.366,182.051 141.736,181.989C141.105,181.926 140.543,182.388 140.48,183.018ZM113.507,194.305C114.138,194.305 114.651,194.818 114.651,195.449C114.651,196.081 114.138,196.593 113.507,196.593C112.875,196.593 112.363,196.081 112.363,195.449C112.363,194.818 112.875,194.305 113.507,194.305ZM117.571,194.305C118.203,194.305 118.716,194.818 118.716,195.449C118.716,196.081 118.203,196.593 117.571,196.593C116.94,196.593 116.427,196.081 116.427,195.449C116.427,194.818 116.94,194.305 117.571,194.305ZM105.378,194.305C106.01,194.305 106.523,194.818 106.523,195.449C106.523,196.081 106.01,196.593 105.378,196.593C104.747,196.593 104.234,196.081 104.234,195.449C104.234,194.818 104.747,194.305 105.378,194.305ZM121.636,194.305C122.267,194.305 122.78,194.818 122.78,195.449C122.78,196.081 122.267,196.593 121.636,196.593C121.004,196.593 120.491,196.081 120.491,195.449C120.491,194.818 121.004,194.305 121.636,194.305ZM125.7,194.305C126.331,194.305 126.844,194.818 126.844,195.449C126.844,196.081 126.331,196.593 125.7,196.593C125.068,196.593 124.556,196.081 124.556,195.449C124.556,194.818 125.068,194.305 125.7,194.305ZM97.25,194.305C97.881,194.305 98.394,194.818 98.394,195.449C98.394,196.081 97.881,196.593 97.25,196.593C96.618,196.593 96.105,196.081 96.105,195.449C96.105,194.818 96.618,194.305 97.25,194.305ZM129.764,194.305C130.396,194.305 130.909,194.818 130.909,195.449C130.909,196.081 130.396,196.593 129.764,196.593C129.133,196.593 128.62,196.081 128.62,195.449C128.62,194.818 129.133,194.305 129.764,194.305ZM101.314,194.305C101.946,194.305 102.458,194.818 102.458,195.449C102.458,196.081 101.946,196.593 101.314,196.593C100.682,196.593 100.17,196.081 100.17,195.449C100.17,194.818 100.682,194.305 101.314,194.305ZM89.121,194.305C89.753,194.305 90.265,194.818 90.265,195.449C90.265,196.081 89.753,196.593 89.121,196.593C88.489,196.593 87.977,196.081 87.977,195.449C87.977,194.818 88.489,194.305 89.121,194.305ZM109.443,194.305C110.074,194.305 110.587,194.818 110.587,195.449C110.587,196.081 110.074,196.593 109.443,196.593C108.811,196.593 108.298,196.081 108.298,195.449C108.298,194.818 108.811,194.305 109.443,194.305ZM93.185,194.305C93.817,194.305 94.33,194.818 94.33,195.449C94.33,196.081 93.817,196.593 93.185,196.593C92.554,196.593 92.041,196.081 92.041,195.449C92.041,194.818 92.554,194.305 93.185,194.305ZM85.057,194.305C85.688,194.305 86.201,194.818 86.201,195.449C86.201,196.081 85.688,196.593 85.057,196.593C84.425,196.593 83.912,196.081 83.912,195.449C83.912,194.818 84.425,194.305 85.057,194.305ZM101.314,186.439C101.946,186.439 102.458,186.951 102.458,187.583C102.458,188.215 101.946,188.727 101.314,188.727C100.682,188.727 100.17,188.215 100.17,187.583C100.17,186.951 100.682,186.439 101.314,186.439ZM125.7,186.439C126.331,186.439 126.844,186.951 126.844,187.583C126.844,188.215 126.331,188.727 125.7,188.727C125.068,188.727 124.556,188.215 124.556,187.583C124.556,186.951 125.068,186.439 125.7,186.439ZM89.121,186.439C89.753,186.439 90.265,186.951 90.265,187.583C90.265,188.215 89.753,188.727 89.121,188.727C88.489,188.727 87.977,188.215 87.977,187.583C87.977,186.951 88.489,186.439 89.121,186.439ZM117.571,186.439C118.203,186.439 118.716,186.951 118.716,187.583C118.716,188.215 118.203,188.727 117.571,188.727C116.94,188.727 116.427,188.215 116.427,187.583C116.427,186.951 116.94,186.439 117.571,186.439ZM97.25,186.439C97.881,186.439 98.394,186.951 98.394,187.583C98.394,188.215 97.881,188.727 97.25,188.727C96.618,188.727 96.105,188.215 96.105,187.583C96.105,186.951 96.618,186.439 97.25,186.439ZM85.057,186.439C85.688,186.439 86.201,186.951 86.201,187.583C86.201,188.215 85.688,188.727 85.057,188.727C84.425,188.727 83.912,188.215 83.912,187.583C83.912,186.951 84.425,186.439 85.057,186.439ZM105.378,186.439C106.01,186.439 106.523,186.951 106.523,187.583C106.523,188.215 106.01,188.727 105.378,188.727C104.747,188.727 104.234,188.215 104.234,187.583C104.234,186.951 104.747,186.439 105.378,186.439ZM129.764,186.439C130.396,186.439 130.909,186.951 130.909,187.583C130.909,188.215 130.396,188.727 129.764,188.727C129.133,188.727 128.62,188.215 128.62,187.583C128.62,186.951 129.133,186.439 129.764,186.439ZM121.636,186.439C122.267,186.439 122.78,186.951 122.78,187.583C122.78,188.215 122.267,188.727 121.636,188.727C121.004,188.727 120.491,188.215 120.491,187.583C120.491,186.951 121.004,186.439 121.636,186.439ZM113.507,186.439C114.138,186.439 114.651,186.951 114.651,187.583C114.651,188.215 114.138,188.727 113.507,188.727C112.875,188.727 112.363,188.215 112.363,187.583C112.363,186.951 112.875,186.439 113.507,186.439ZM109.443,186.439C110.074,186.439 110.587,186.951 110.587,187.583C110.587,188.215 110.074,188.727 109.443,188.727C108.811,188.727 108.298,188.215 108.298,187.583C108.298,186.951 108.811,186.439 109.443,186.439ZM93.185,186.439C93.817,186.439 94.33,186.951 94.33,187.583C94.33,188.215 93.817,188.727 93.185,188.727C92.554,188.727 92.041,188.215 92.041,187.583C92.041,186.951 92.554,186.439 93.185,186.439ZM69.537,181.644L70.665,183.649C70.919,184.101 71.493,184.262 71.946,184.007C72.398,183.753 72.559,183.179 72.304,182.726L71.177,180.722C70.922,180.269 70.348,180.108 69.896,180.363C69.443,180.617 69.283,181.191 69.537,181.644ZM72.404,181.06L73.532,183.065C73.786,183.517 74.36,183.678 74.813,183.423C75.265,183.169 75.426,182.595 75.171,182.142L74.044,180.138C73.789,179.685 73.215,179.524 72.763,179.779C72.31,180.033 72.15,180.607 72.404,181.06ZM145.791,157.575L145.791,175.426C145.791,176.118 146.353,176.68 147.045,176.68C147.737,176.68 148.299,176.118 148.299,175.426L148.299,157.575C148.299,156.883 147.737,156.321 147.045,156.321C146.353,156.321 145.791,156.883 145.791,157.575ZM94.576,159.129C90.882,164.458 90.69,169.787 94.591,175.116C94.932,175.581 95.586,175.683 96.052,175.342C96.517,175.001 96.618,174.347 96.277,173.882C92.968,169.361 93.16,164.84 96.293,160.319C96.622,159.845 96.504,159.194 96.03,158.865C95.556,158.537 94.904,158.655 94.576,159.129ZM151.292,160.319C154.426,164.84 154.618,169.361 151.308,173.882C150.967,174.347 151.068,175.001 151.534,175.342C151.999,175.683 152.653,175.581 152.994,175.116C156.895,169.787 156.703,164.458 153.01,159.129C152.681,158.655 152.03,158.537 151.556,158.865C151.082,159.194 150.964,159.845 151.292,160.319ZM67.458,173.546L67.458,165.407C67.458,164.794 66.96,164.296 66.346,164.296C65.733,164.296 65.235,164.794 65.235,165.407L65.235,173.546C65.235,174.16 65.733,174.658 66.346,174.658C66.96,174.658 67.458,174.16 67.458,173.546ZM74.393,171.744C75.025,171.744 75.538,172.256 75.538,172.888C75.538,173.52 75.025,174.032 74.393,174.032C73.762,174.032 73.249,173.52 73.249,172.888C73.249,172.256 73.762,171.744 74.393,171.744ZM78.458,171.744C79.089,171.744 79.602,172.256 79.602,172.888C79.602,173.52 79.089,174.032 78.458,174.032C77.826,174.032 77.313,173.52 77.313,172.888C77.313,172.256 77.826,171.744 78.458,171.744ZM82.522,171.744C83.154,171.744 83.666,172.256 83.666,172.888C83.666,173.52 83.154,174.032 82.522,174.032C81.89,174.032 81.378,173.52 81.378,172.888C81.378,172.256 81.89,171.744 82.522,171.744ZM86.586,171.744C87.218,171.744 87.731,172.256 87.731,172.888C87.731,173.52 87.218,174.032 86.586,174.032C85.955,174.032 85.442,173.52 85.442,172.888C85.442,172.256 85.955,171.744 86.586,171.744ZM70.329,171.744C70.961,171.744 71.473,172.256 71.473,172.888C71.473,173.52 70.961,174.032 70.329,174.032C69.697,174.032 69.185,173.52 69.185,172.888C69.185,172.256 69.697,171.744 70.329,171.744ZM104.526,159.623C103.972,165.232 102.349,168.621 97.786,171.569C97.254,171.913 97.101,172.625 97.445,173.157C97.789,173.689 98.5,173.842 99.032,173.498C104.259,170.121 106.177,166.273 106.811,159.849C106.874,159.219 106.412,158.656 105.782,158.594C105.151,158.531 104.589,158.993 104.526,159.623ZM110.323,172.965C111.021,173.07 111.787,173.123 112.622,173.123C114.72,173.123 116.316,172.546 117.426,171.436C118.535,170.327 119.114,168.706 119.114,166.555C119.114,164.548 118.53,163.01 117.403,161.928C116.284,160.853 114.695,160.294 112.622,160.294C111.808,160.294 111.041,160.347 110.321,160.453C110.313,160.454 110.304,160.456 110.295,160.458C110.028,160.511 109.8,160.642 109.613,160.856C109.417,161.08 109.323,161.334 109.323,161.614L109.323,171.803C109.323,172.078 109.414,172.332 109.606,172.561C109.803,172.795 110.043,172.926 110.323,172.965ZM137.776,169.318L142.777,169.318C143.087,169.318 143.34,169.214 143.544,169.02C143.757,168.817 143.867,168.564 143.867,168.259L143.867,168.254C143.855,166.776 143.487,165.646 142.805,164.85C142.096,164.023 141.099,163.593 139.8,163.593C138.467,163.593 137.42,164.038 136.648,164.903C135.896,165.746 135.503,166.897 135.503,168.366C135.503,169.818 135.921,170.965 136.728,171.817C137.546,172.682 138.618,173.123 139.953,173.123C140.907,173.123 141.771,172.96 142.547,172.639C142.558,172.634 142.57,172.629 142.581,172.623C142.821,172.503 142.99,172.321 143.09,172.081C143.192,171.836 143.2,171.591 143.119,171.346C143.026,171.067 142.84,170.874 142.561,170.769C142.299,170.671 142.049,170.682 141.809,170.791C141.807,170.791 141.806,170.792 141.804,170.793C141.277,171.038 140.691,171.158 140.045,171.158C139.368,171.158 138.817,170.967 138.399,170.561C138.068,170.24 137.865,169.824 137.776,169.318ZM128.302,171.811C129.084,170.961 129.49,169.816 129.49,168.366C129.49,166.917 129.084,165.77 128.303,164.914C127.504,164.04 126.445,163.593 125.117,163.593C123.788,163.593 122.729,164.04 121.931,164.914C121.149,165.77 120.743,166.917 120.743,168.366C120.743,169.816 121.15,170.961 121.932,171.811C122.73,172.679 123.789,173.123 125.117,173.123C126.445,173.123 127.504,172.679 128.302,171.811ZM132.73,172.97L132.877,172.969C133.146,172.957 133.381,172.856 133.582,172.664C133.803,172.453 133.912,172.197 133.912,171.895L133.912,161.215C133.912,160.892 133.795,160.632 133.573,160.43C133.361,160.237 133.111,160.141 132.822,160.141L132.822,160.142L132.73,160.141C132.417,160.141 132.16,160.249 131.954,160.455C131.746,160.664 131.64,160.917 131.64,161.215L131.64,171.895C131.64,172.218 131.758,172.478 131.98,172.681C132.192,172.873 132.442,172.97 132.73,172.97ZM110.319,172.964L110.329,172.965L110.319,172.964ZM126.67,166.266C127.079,166.763 127.264,167.465 127.264,168.358C127.264,169.253 127.079,169.958 126.669,170.46L126.668,170.46C126.292,170.922 125.772,171.143 125.117,171.143C124.461,171.143 123.941,170.922 123.565,170.46C123.155,169.958 122.969,169.253 122.969,168.358C122.969,167.465 123.154,166.763 123.563,166.266C123.94,165.808 124.461,165.589 125.117,165.589C125.773,165.589 126.293,165.808 126.67,166.266ZM111.625,170.957L111.625,162.461C111.955,162.419 112.287,162.397 112.622,162.397C114.024,162.397 115.095,162.723 115.819,163.424C116.539,164.121 116.872,165.17 116.872,166.554C116.868,168.058 116.533,169.195 115.816,169.947C115.108,170.689 114.039,171.035 112.628,171.035C112.291,171.028 111.957,171.002 111.625,170.957ZM141.667,167.368L137.773,167.368C137.855,166.857 138.035,166.444 138.33,166.132C138.691,165.751 139.184,165.574 139.8,165.574C140.378,165.574 140.835,165.741 141.159,166.105C141.436,166.415 141.598,166.838 141.667,167.368ZM78.458,163.876C79.089,163.876 79.602,164.388 79.602,165.02C79.602,165.652 79.089,166.164 78.458,166.164C77.826,166.164 77.313,165.652 77.313,165.02C77.313,164.388 77.826,163.876 78.458,163.876ZM70.329,163.876C70.961,163.876 71.473,164.388 71.473,165.02C71.473,165.652 70.961,166.164 70.329,166.164C69.697,166.164 69.185,165.652 69.185,165.02C69.185,164.388 69.697,163.876 70.329,163.876ZM86.586,163.876C87.218,163.876 87.731,164.388 87.731,165.02C87.731,165.652 87.218,166.164 86.586,166.164C85.955,166.164 85.442,165.652 85.442,165.02C85.442,164.388 85.955,163.876 86.586,163.876ZM82.522,163.876C83.154,163.876 83.666,164.388 83.666,165.02C83.666,165.652 83.154,166.164 82.522,166.164C81.89,166.164 81.378,165.652 81.378,165.02C81.378,164.388 81.89,163.876 82.522,163.876ZM74.393,163.876C75.025,163.876 75.538,164.388 75.538,165.02C75.538,165.652 75.025,166.164 74.393,166.164C73.762,166.164 73.249,165.652 73.249,165.02C73.249,164.388 73.762,163.876 74.393,163.876ZM67.458,161.575L67.458,160.918C67.458,160.305 66.96,159.807 66.346,159.807C65.733,159.807 65.235,160.305 65.235,160.918L65.235,161.575C65.235,162.188 65.733,162.686 66.346,162.686C66.96,162.686 67.458,162.188 67.458,161.575ZM120.348,150.946C120.86,151.684 120.901,152.422 120.361,153.16C120.089,153.532 120.169,154.055 120.541,154.328C120.914,154.6 121.437,154.519 121.709,154.147C122.723,152.763 122.681,151.378 121.722,149.994C121.459,149.615 120.938,149.52 120.559,149.783C120.18,150.046 120.086,150.567 120.348,150.946ZM116.225,150.946C116.737,151.684 116.778,152.422 116.238,153.16C115.966,153.532 116.046,154.055 116.418,154.328C116.791,154.6 117.314,154.519 117.586,154.147C118.6,152.763 118.558,151.378 117.599,149.994C117.336,149.615 116.815,149.52 116.436,149.783C116.057,150.046 115.963,150.567 116.225,150.946ZM142.98,154.038L143.065,154.038C143.332,154.032 143.56,153.938 143.749,153.76C143.952,153.569 144.052,153.337 144.052,153.065L144.052,150.132C144.052,149.863 143.954,149.629 143.755,149.432C143.558,149.238 143.319,149.14 143.039,149.14L142.399,149.14L142.399,137.667C142.399,137.394 142.299,137.162 142.096,136.972C141.901,136.787 141.664,136.694 141.385,136.694L134.442,136.694C134.159,136.694 133.924,136.79 133.735,136.977C133.544,137.166 133.448,137.396 133.448,137.667L133.448,138.272C133.448,140.126 133.435,141.531 133.409,142.489C133.383,143.445 133.348,144.321 133.303,145.119C133.259,145.883 133.169,146.476 133.027,146.897C132.884,147.318 132.73,147.684 132.562,147.994C132.398,148.296 132.15,148.678 131.817,149.14L131.564,149.14C131.283,149.14 131.044,149.238 130.848,149.432C130.648,149.629 130.55,149.863 130.55,150.132L130.55,153.065C130.55,153.337 130.65,153.569 130.853,153.76C131.048,153.944 131.285,154.038 131.564,154.038L131.648,154.038C131.916,154.032 132.143,153.938 132.333,153.76C132.535,153.569 132.635,153.337 132.635,153.065L132.635,151.032L141.967,151.032L141.967,153.065C141.967,153.337 142.067,153.569 142.269,153.76C142.465,153.944 142.701,154.038 142.98,154.038ZM112.996,136.719C109.302,142.048 109.11,147.377 113.011,152.706C113.352,153.172 114.006,153.273 114.472,152.932C114.937,152.591 115.038,151.937 114.697,151.472C111.388,146.951 111.58,142.43 114.713,137.909C115.042,137.436 114.924,136.784 114.45,136.456C113.976,136.127 113.324,136.245 112.996,136.719ZM152.277,137.909C155.411,142.43 155.603,146.951 152.293,151.472C151.952,151.937 152.053,152.591 152.519,152.932C152.984,153.273 153.638,153.172 153.979,152.706C157.88,147.377 157.688,142.048 153.995,136.719C153.666,136.245 153.015,136.127 152.541,136.456C152.067,136.784 151.949,137.436 152.277,137.909ZM69.399,136.601L65.759,151.733C65.625,152.293 65.97,152.857 66.53,152.992C67.09,153.126 67.654,152.781 67.789,152.221L71.428,137.089C71.563,136.529 71.217,135.965 70.657,135.83C70.098,135.696 69.534,136.041 69.399,136.601ZM90.684,149.208C91.315,149.208 91.828,149.72 91.828,150.352C91.828,150.983 91.315,151.496 90.684,151.496C90.052,151.496 89.539,150.983 89.539,150.352C89.539,149.72 90.052,149.208 90.684,149.208ZM78.423,149.208C79.055,149.208 79.568,149.72 79.568,150.352C79.568,150.983 79.055,151.496 78.423,151.496C77.792,151.496 77.279,150.983 77.279,150.352C77.279,149.72 77.792,149.208 78.423,149.208ZM94.771,149.208C95.402,149.208 95.915,149.72 95.915,150.352C95.915,150.983 95.402,151.496 94.771,151.496C94.139,151.496 93.626,150.983 93.626,150.352C93.626,149.72 94.139,149.208 94.771,149.208ZM74.337,149.208C74.968,149.208 75.481,149.72 75.481,150.352C75.481,150.983 74.968,151.496 74.337,151.496C73.705,151.496 73.192,150.983 73.192,150.352C73.192,149.72 73.705,149.208 74.337,149.208ZM98.857,149.208C99.489,149.208 100.002,149.72 100.002,150.352C100.002,150.983 99.489,151.496 98.857,151.496C98.226,151.496 97.713,150.983 97.713,150.352C97.713,149.72 98.226,149.208 98.857,149.208ZM102.944,149.208C103.576,149.208 104.089,149.72 104.089,150.352C104.089,150.983 103.576,151.496 102.944,151.496C102.313,151.496 101.8,150.983 101.8,150.352C101.8,149.72 102.313,149.208 102.944,149.208ZM82.51,149.208C83.142,149.208 83.654,149.72 83.654,150.352C83.654,150.983 83.142,151.496 82.51,151.496C81.879,151.496 81.366,150.983 81.366,150.352C81.366,149.72 81.879,149.208 82.51,149.208ZM107.031,149.208C107.663,149.208 108.175,149.72 108.175,150.352C108.175,150.983 107.663,151.496 107.031,151.496C106.399,151.496 105.887,150.983 105.887,150.352C105.887,149.72 106.399,149.208 107.031,149.208ZM86.597,149.208C87.229,149.208 87.741,149.72 87.741,150.352C87.741,150.983 87.229,151.496 86.597,151.496C85.965,151.496 85.453,150.983 85.453,150.352C85.453,149.72 85.965,149.208 86.597,149.208ZM134.388,149.14C134.955,148.148 135.296,147.168 135.414,146.201C135.542,145.158 135.609,142.619 135.611,138.585L140.177,138.585L140.177,149.14L134.388,149.14ZM86.687,141.34C87.319,141.34 87.832,141.852 87.832,142.484C87.832,143.115 87.319,143.628 86.687,143.628C86.056,143.628 85.543,143.115 85.543,142.484C85.543,141.852 86.056,141.34 86.687,141.34ZM98.88,141.34C99.512,141.34 100.024,141.852 100.024,142.484C100.024,143.115 99.512,143.628 98.88,143.628C98.249,143.628 97.736,143.115 97.736,142.484C97.736,141.852 98.249,141.34 98.88,141.34ZM82.623,141.34C83.254,141.34 83.767,141.852 83.767,142.484C83.767,143.115 83.254,143.628 82.623,143.628C81.991,143.628 81.479,143.115 81.479,142.484C81.479,141.852 81.991,141.34 82.623,141.34ZM78.559,141.34C79.19,141.34 79.703,141.852 79.703,142.484C79.703,143.115 79.19,143.628 78.559,143.628C77.927,143.628 77.414,143.115 77.414,142.484C77.414,141.852 77.927,141.34 78.559,141.34ZM94.816,141.34C95.447,141.34 95.96,141.852 95.96,142.484C95.96,143.115 95.447,143.628 94.816,143.628C94.184,143.628 93.672,143.115 93.672,142.484C93.672,141.852 94.184,141.34 94.816,141.34ZM107.009,141.34C107.64,141.34 108.153,141.852 108.153,142.484C108.153,143.115 107.64,143.628 107.009,143.628C106.377,143.628 105.864,143.115 105.864,142.484C105.864,141.852 106.377,141.34 107.009,141.34ZM102.944,141.34C103.576,141.34 104.089,141.852 104.089,142.484C104.089,143.115 103.576,143.628 102.944,143.628C102.313,143.628 101.8,143.115 101.8,142.484C101.8,141.852 102.313,141.34 102.944,141.34ZM90.752,141.34C91.383,141.34 91.896,141.852 91.896,142.484C91.896,143.115 91.383,143.628 90.752,143.628C90.12,143.628 89.607,143.115 89.607,142.484C89.607,141.852 90.12,141.34 90.752,141.34ZM147.621,135.157C146.198,135.157 145.035,136.326 145.035,137.773C145.035,139.221 146.198,140.39 147.621,140.39C149.045,140.39 150.208,139.221 150.208,137.773C150.208,136.326 149.045,135.157 147.621,135.157ZM125.268,135.157C123.845,135.157 122.682,136.326 122.682,137.773C122.682,139.221 123.845,140.39 125.268,140.39C126.692,140.39 127.855,139.221 127.855,137.773C127.855,136.326 126.692,135.157 125.268,135.157ZM125.268,136.821C125.782,136.821 126.191,137.251 126.191,137.773C126.191,138.295 125.782,138.726 125.268,138.726C124.755,138.726 124.345,138.295 124.345,137.773C124.345,137.251 124.755,136.821 125.268,136.821ZM147.621,136.821C148.135,136.821 148.544,137.251 148.544,137.773C148.544,138.295 148.135,138.726 147.621,138.726C147.108,138.726 146.698,138.295 146.698,137.773C146.698,137.251 147.108,136.821 147.621,136.821ZM74.521,113.945L70.882,129.077C70.747,129.637 71.092,130.201 71.652,130.336C72.212,130.47 72.776,130.125 72.911,129.565L76.55,114.433C76.685,113.873 76.34,113.309 75.78,113.174C75.22,113.04 74.656,113.385 74.521,113.945ZM150.17,127.885L150.17,127.228C150.17,126.615 149.672,126.117 149.059,126.117C148.445,126.117 147.947,126.615 147.947,127.228L147.947,127.885C147.947,128.498 148.445,128.996 149.059,128.996C149.672,128.996 150.17,128.498 150.17,127.885ZM102.133,126.512C102.764,126.512 103.277,127.025 103.277,127.656C103.277,128.288 102.764,128.801 102.133,128.801C101.501,128.801 100.989,128.288 100.989,127.656C100.989,127.025 101.501,126.512 102.133,126.512ZM106.197,126.512C106.829,126.512 107.342,127.025 107.342,127.656C107.342,128.288 106.829,128.801 106.197,128.801C105.566,128.801 105.053,128.288 105.053,127.656C105.053,127.025 105.566,126.512 106.197,126.512ZM118.39,126.512C119.022,126.512 119.535,127.025 119.535,127.656C119.535,128.288 119.022,128.801 118.39,128.801C117.759,128.801 117.246,128.288 117.246,127.656C117.246,127.025 117.759,126.512 118.39,126.512ZM81.811,126.512C82.443,126.512 82.956,127.025 82.956,127.656C82.956,128.288 82.443,128.801 81.811,128.801C81.18,128.801 80.667,128.288 80.667,127.656C80.667,127.025 81.18,126.512 81.811,126.512ZM89.94,126.512C90.572,126.512 91.084,127.025 91.084,127.656C91.084,128.288 90.572,128.801 89.94,128.801C89.308,128.801 88.796,128.288 88.796,127.656C88.796,127.025 89.308,126.512 89.94,126.512ZM114.326,126.512C114.957,126.512 115.47,127.025 115.47,127.656C115.47,128.288 114.957,128.801 114.326,128.801C113.694,128.801 113.182,128.288 113.182,127.656C113.182,127.025 113.694,126.512 114.326,126.512ZM122.455,126.512C123.086,126.512 123.599,127.025 123.599,127.656C123.599,128.288 123.086,128.801 122.455,128.801C121.823,128.801 121.31,128.288 121.31,127.656C121.31,127.025 121.823,126.512 122.455,126.512ZM94.004,126.512C94.636,126.512 95.149,127.025 95.149,127.656C95.149,128.288 94.636,128.801 94.004,128.801C93.373,128.801 92.86,128.288 92.86,127.656C92.86,127.025 93.373,126.512 94.004,126.512ZM110.262,126.512C110.893,126.512 111.406,127.025 111.406,127.656C111.406,128.288 110.893,128.801 110.262,128.801C109.63,128.801 109.117,128.288 109.117,127.656C109.117,127.025 109.63,126.512 110.262,126.512ZM126.519,126.512C127.15,126.512 127.663,127.025 127.663,127.656C127.663,128.288 127.15,128.801 126.519,128.801C125.887,128.801 125.374,128.288 125.374,127.656C125.374,127.025 125.887,126.512 126.519,126.512ZM130.583,126.512C131.215,126.512 131.727,127.025 131.727,127.656C131.727,128.288 131.215,128.801 130.583,128.801C129.952,128.801 129.439,128.288 129.439,127.656C129.439,127.025 129.952,126.512 130.583,126.512ZM98.069,126.512C98.7,126.512 99.213,127.025 99.213,127.656C99.213,128.288 98.7,128.801 98.069,128.801C97.437,128.801 96.924,128.288 96.924,127.656C96.924,127.025 97.437,126.512 98.069,126.512ZM85.876,126.512C86.507,126.512 87.02,127.025 87.02,127.656C87.02,128.288 86.507,128.801 85.876,128.801C85.244,128.801 84.731,128.288 84.731,127.656C84.731,127.025 85.244,126.512 85.876,126.512ZM137.939,119.527C140.707,121.425 143.95,124.302 145.735,126.274C146.16,126.744 146.887,126.781 147.356,126.355C147.826,125.93 147.863,125.203 147.437,124.733C145.56,122.658 142.15,119.63 139.238,117.633C138.715,117.274 138,117.407 137.641,117.93C137.283,118.453 137.416,119.168 137.939,119.527ZM114.326,118.646C114.957,118.646 115.47,119.159 115.47,119.79C115.47,120.422 114.957,120.935 114.326,120.935C113.694,120.935 113.182,120.422 113.182,119.79C113.182,119.159 113.694,118.646 114.326,118.646ZM98.069,118.646C98.7,118.646 99.213,119.159 99.213,119.79C99.213,120.422 98.7,120.935 98.069,120.935C97.437,120.935 96.924,120.422 96.924,119.79C96.924,119.159 97.437,118.646 98.069,118.646ZM81.811,118.646C82.443,118.646 82.956,119.159 82.956,119.79C82.956,120.422 82.443,120.935 81.811,120.935C81.18,120.935 80.667,120.422 80.667,119.79C80.667,119.159 81.18,118.646 81.811,118.646ZM85.876,118.646C86.507,118.646 87.02,119.159 87.02,119.79C87.02,120.422 86.507,120.935 85.876,120.935C85.244,120.935 84.731,120.422 84.731,119.79C84.731,119.159 85.244,118.646 85.876,118.646ZM102.133,118.646C102.764,118.646 103.277,119.159 103.277,119.79C103.277,120.422 102.764,120.935 102.133,120.935C101.501,120.935 100.989,120.422 100.989,119.79C100.989,119.159 101.501,118.646 102.133,118.646ZM118.39,118.646C119.022,118.646 119.535,119.159 119.535,119.79C119.535,120.422 119.022,120.935 118.39,120.935C117.759,120.935 117.246,120.422 117.246,119.79C117.246,119.159 117.759,118.646 118.39,118.646ZM106.197,118.646C106.829,118.646 107.342,119.159 107.342,119.79C107.342,120.422 106.829,120.935 106.197,120.935C105.566,120.935 105.053,120.422 105.053,119.79C105.053,119.159 105.566,118.646 106.197,118.646ZM126.519,118.646C127.15,118.646 127.663,119.159 127.663,119.79C127.663,120.422 127.15,120.935 126.519,120.935C125.887,120.935 125.374,120.422 125.374,119.79C125.374,119.159 125.887,118.646 126.519,118.646ZM89.94,118.646C90.572,118.646 91.084,119.159 91.084,119.79C91.084,120.422 90.572,120.935 89.94,120.935C89.308,120.935 88.796,120.422 88.796,119.79C88.796,119.159 89.308,118.646 89.94,118.646ZM110.262,118.646C110.893,118.646 111.406,119.159 111.406,119.79C111.406,120.422 110.893,120.935 110.262,120.935C109.63,120.935 109.117,120.422 109.117,119.79C109.117,119.159 109.63,118.646 110.262,118.646ZM94.004,118.646C94.636,118.646 95.149,119.159 95.149,119.79C95.149,120.422 94.636,120.935 94.004,120.935C93.373,120.935 92.86,120.422 92.86,119.79C92.86,119.159 93.373,118.646 94.004,118.646ZM130.583,118.646C131.215,118.646 131.727,119.159 131.727,119.79C131.727,120.422 131.215,120.935 130.583,120.935C129.952,120.935 129.439,120.422 129.439,119.79C129.439,119.159 129.952,118.646 130.583,118.646ZM122.455,118.646C123.086,118.646 123.599,119.159 123.599,119.79C123.599,120.422 123.086,120.935 122.455,120.935C121.823,120.935 121.31,120.422 121.31,119.79C121.31,119.159 121.823,118.646 122.455,118.646ZM78.628,95.265C78.208,94.844 77.687,94.63 77.053,94.63C75.943,94.63 74.892,95.294 73.963,96.717C73.943,96.748 73.926,96.781 73.913,96.816C73.647,97.512 73.798,98.024 74.237,98.374C74.445,98.542 74.668,98.617 74.897,98.617C75.182,98.617 75.501,98.491 75.816,98.174C75.83,98.161 75.843,98.146 75.855,98.131L76.493,97.332C76.636,97.162 76.752,97.04 76.896,97.04C76.929,97.04 76.952,97.067 76.977,97.097C77.037,97.166 77.087,97.259 77.134,97.374C77.389,97.992 77.501,99.077 77.501,100.623C77.501,100.983 77.48,101.323 77.438,101.644C76.072,103.802 75.405,105.718 75.405,107.383C75.405,107.814 75.462,108.128 75.547,108.33C75.663,108.604 75.842,108.75 76.033,108.816C76.229,108.884 76.473,108.88 76.751,108.72C76.771,108.708 76.79,108.695 76.809,108.68C77.354,108.258 77.815,107.602 78.183,106.698C78.768,105.411 79.228,104.013 79.556,102.509C80.116,101.609 80.774,100.78 81.529,100.026C82.726,98.829 84.132,97.814 85.744,96.982C85.766,96.971 85.787,96.958 85.807,96.944C86.117,96.723 86.29,96.459 86.356,96.173C86.42,95.895 86.384,95.582 86.214,95.24C86.195,95.203 86.173,95.169 86.146,95.137C85.739,94.652 85.187,94.494 84.456,94.736C84.44,94.741 84.424,94.748 84.409,94.754C83.116,95.329 81.499,96.701 79.581,98.888C79.548,97.989 79.461,97.253 79.321,96.681C79.158,96.018 78.915,95.552 78.628,95.265ZM120.539,97.285C123.307,99.184 126.55,102.06 128.335,104.033C128.76,104.503 129.487,104.539 129.956,104.114C130.426,103.688 130.463,102.962 130.037,102.492C128.16,100.417 124.75,97.389 121.838,95.391C121.315,95.033 120.6,95.166 120.241,95.689C119.883,96.211 120.016,96.926 120.539,97.285ZM117.849,93.578L114.803,90.368C114.586,90.14 114.285,90.011 113.97,90.011C113.655,90.011 113.354,90.14 113.138,90.368L110.09,93.578C109.654,94.038 109.673,94.765 110.132,95.201C110.592,95.637 111.319,95.619 111.755,95.159L113.97,92.826L116.184,95.159C116.62,95.619 117.348,95.638 117.807,95.201C118.267,94.765 118.286,94.038 117.849,93.578ZM93.446,91.861C97.966,88.728 102.487,88.536 107.008,91.845C107.473,92.186 108.128,92.085 108.468,91.62C108.809,91.154 108.708,90.5 108.242,90.159C102.913,86.258 97.584,86.45 92.255,90.144C91.781,90.472 91.663,91.124 91.992,91.598C92.32,92.072 92.972,92.19 93.446,91.861ZM92.594,74.728C95.362,76.627 98.605,79.504 100.39,81.476C100.815,81.946 101.542,81.982 102.011,81.557C102.481,81.132 102.518,80.405 102.092,79.935C100.215,77.86 96.805,74.832 93.893,72.834C93.37,72.476 92.655,72.609 92.296,73.132C91.938,73.654 92.071,74.37 92.594,74.728Z" style="fill-rule:nonzero;"/>
    </g>
</svg>
