<?xml version="1.0" encoding="UTF-8" standalone="no"?>
<!DOCTYPE svg PUBLIC "-//W3C//DTD SVG 1.1//EN" "http://www.w3.org/Graphics/SVG/1.1/DTD/svg11.dtd">
<svg width="83px" height="105px" version="1.1" xmlns="http://www.w3.org/2000/svg" xmlns:xlink="http://www.w3.org/1999/xlink" xml:space="preserve" xmlns:serif="http://www.serif.com/" style="fill-rule:evenodd;clip-rule:evenodd;stroke-linejoin:round;stroke-miterlimit:2;">
    <g transform="matrix(0.613159,0,0,0.613159,-44.0491,1.86398)">
        <path d="M167,104.581C176.459,106.611 181.437,110.32 184.461,114.763L184.124,114.763C188.816,121.53 189.079,128.298 184.124,135.066C183.109,136.52 181.514,137.187 179.29,137L154,137C156.025,138.795 157.864,140.661 159.337,142.663C164.189,149.663 164.125,157 159,164C157.795,165.339 156.155,166.043 154,166L129,166C123.008,164.98 121.894,161.399 122.651,156.836C122.651,156.836 124.383,157 119.258,164C118.24,165.073 116.726,165.791 114.5,166L82,166C79.783,166.083 78.266,165.213 77,164C71.875,157 72.148,150 77,143C79.739,139.496 81.163,137.087 81,136L81,111L78,108C72.875,101 73.148,94 78,87C79.658,84.773 79.588,82.435 78,80C72.875,73 72.148,66 77,59L80,51L89,32L98,51L109.161,51C111.687,51.149 112.8,48.639 111.784,47C106.954,40.403 107.212,33.807 111.784,27.21L116.611,17.787L125.093,-0.118L133.335,16.987C133.86,18.942 135.033,20.038 138.047,19.814L161.686,20.219C164.898,20.488 166.817,19.496 167.341,17.392L175.98,-0.118L184.124,17.787L187.119,27.21C191.692,33.807 191.303,40.403 186.473,47C185.46,48.471 184.92,49.492 184.124,51C182.254,54.543 182.315,58.238 187.119,59.561C187.905,59.777 190.686,60.054 191,60.054C193.192,60.054 195.647,60.18 197.882,60.34C200.014,60.471 201.971,61.564 203.201,63.31C204.431,65.057 204.801,67.268 204.206,69.319C203.778,70.799 203.13,72.066 202.154,72.684C198.518,74.988 187.614,73.367 182.517,73.567C177.723,73.754 173.935,77.143 175.364,82.326C175.737,83.678 175.815,85.806 175.98,87.337C175.392,95.562 172.427,100.449 165.646,104.581" style="fill:white;"/>
    </g>
    <g transform="matrix(0.613159,0,0,0.613159,-26.1885,-29.493)">
        <path d="M99.871,218.529L124.871,218.529C125.638,218.529 126.26,217.907 126.26,217.14C126.26,216.373 125.638,215.751 124.871,215.751L99.871,215.751C99.104,215.751 98.482,216.373 98.482,217.14C98.482,217.907 99.104,218.529 99.871,218.529ZM85.372,215.751L52.872,215.751C52.105,215.751 51.483,216.373 51.483,217.14C51.483,217.907 52.105,218.529 52.872,218.529L85.372,218.529C86.138,218.529 86.76,217.907 86.76,217.14C86.76,216.373 86.138,215.751 85.372,215.751ZM88.988,194.931C93.468,201.394 93.74,207.857 89.008,214.319C88.556,214.938 88.69,215.808 89.308,216.261C89.927,216.713 90.797,216.579 91.25,215.961C96.768,208.423 96.495,200.886 91.27,193.349C90.834,192.719 89.968,192.562 89.338,192.999C88.708,193.435 88.551,194.301 88.988,194.931ZM128.73,194.931C133.21,201.394 133.482,207.857 128.75,214.319C128.298,214.938 128.432,215.808 129.05,216.261C129.669,216.713 130.539,216.579 130.992,215.961C136.51,208.423 136.237,200.886 131.012,193.349C130.576,192.719 129.71,192.562 129.08,192.999C128.45,193.435 128.293,194.301 128.73,194.931ZM46.73,193.349C41.505,200.886 41.232,208.423 46.75,215.961C47.203,216.579 48.073,216.713 48.692,216.261C49.31,215.808 49.444,214.938 48.992,214.319C44.26,207.857 44.532,201.394 49.012,194.931C49.449,194.301 49.292,193.435 48.662,192.999C48.032,192.562 47.166,192.719 46.73,193.349ZM125.99,189.53L150.161,189.53C150.928,189.53 151.55,188.907 151.55,188.141C151.55,187.374 150.928,186.751 150.161,186.751L125.99,186.751C125.223,186.751 124.601,187.374 124.601,188.141C124.601,188.907 125.223,189.53 125.99,189.53ZM110.97,186.751L79.548,186.751C78.782,186.751 78.159,187.374 78.159,188.14C78.159,188.907 78.782,189.53 79.548,189.53L110.97,189.53C111.736,189.53 112.359,188.907 112.359,188.14C112.359,187.374 111.736,186.751 110.97,186.751ZM50.482,162.14L50.482,187.14C50.482,187.907 51.104,188.529 51.871,188.529C52.638,188.529 53.26,187.907 53.26,187.14L53.26,162.14C53.26,161.373 52.638,160.751 51.871,160.751C51.104,160.751 50.482,161.373 50.482,162.14ZM114.462,166.694C118.782,172.925 119.045,179.155 114.483,185.386C114.031,186.004 114.165,186.875 114.783,187.327C115.402,187.78 116.272,187.645 116.725,187.027C122.073,179.722 121.809,172.416 116.746,165.112C116.309,164.482 115.443,164.325 114.813,164.761C114.183,165.198 114.026,166.064 114.462,166.694ZM73.605,165.112C68.542,172.416 68.278,179.722 73.627,187.027C74.079,187.645 74.949,187.78 75.568,187.327C76.186,186.875 76.32,186.004 75.868,185.386C71.306,179.155 71.569,172.925 75.889,166.694C76.325,166.064 76.168,165.198 75.538,164.761C74.909,164.325 74.042,164.482 73.605,165.112ZM153.853,166.694C158.173,172.925 158.436,179.155 153.874,185.386C153.422,186.004 153.556,186.875 154.174,187.327C154.793,187.78 155.663,187.645 156.116,187.027C161.464,179.722 161.2,172.416 156.137,165.112C155.7,164.482 154.834,164.325 154.204,164.761C153.574,165.198 153.417,166.064 153.853,166.694ZM47.73,137.349C42.505,144.886 42.232,152.423 47.75,159.961C48.203,160.579 49.073,160.713 49.692,160.261C50.31,159.808 50.444,158.938 49.992,158.319C45.26,151.857 45.532,145.394 50.012,138.931C50.449,138.301 50.292,137.435 49.662,136.999C49.032,136.562 48.166,136.719 47.73,137.349ZM144.85,138.378C144.3,146.074 142.139,150.669 135.794,154.536C135.139,154.935 134.932,155.789 135.331,156.444C135.729,157.099 136.585,157.307 137.24,156.907C144.457,152.511 146.995,147.331 147.62,138.577C147.676,137.812 147.099,137.147 146.335,137.092C145.57,137.037 144.905,137.614 144.85,138.378ZM118.85,138.378C118.3,146.074 116.139,150.669 109.794,154.536C109.139,154.935 108.932,155.789 109.331,156.444C109.729,157.099 110.585,157.307 111.24,156.907C118.457,152.511 120.995,147.331 121.62,138.577C121.676,137.812 121.099,137.147 120.335,137.092C119.57,137.037 118.905,137.614 118.85,138.378ZM72.252,145.476C75.072,144.673 77.52,143.438 79.791,142.77C81.642,142.226 83.355,142.083 85.079,143.281C85.809,143.788 86.313,144.371 86.645,144.987C87.23,146.094 87.328,147.393 86.916,148.575C86.503,149.758 85.616,150.716 84.468,151.218C84.465,151.22 84.463,151.221 84.46,151.222C82.899,151.917 81.157,152.59 78.776,152.754C78.011,152.807 77.433,153.471 77.486,154.236C77.538,155 78.202,155.579 78.968,155.526C81.74,155.334 83.774,154.569 85.59,153.76C87.438,152.951 88.871,151.403 89.539,149.49C90.206,147.577 90.046,145.473 89.098,143.682C89.097,143.68 89.095,143.677 89.093,143.674C88.576,142.713 87.803,141.791 86.664,141C84.163,139.261 81.693,139.315 79.007,140.105C76.743,140.771 74.303,142.003 71.492,142.805C70.754,143.014 70.326,143.783 70.536,144.521C70.746,145.258 71.515,145.686 72.252,145.476ZM47.73,109.349C42.505,116.886 42.232,124.423 47.75,131.961C48.203,132.579 49.073,132.713 49.692,132.261C50.31,131.808 50.444,130.938 49.992,130.319C45.26,123.857 45.532,117.394 50.012,110.931C50.449,110.301 50.292,109.435 49.662,108.999C49.032,108.562 48.166,108.719 47.73,109.349ZM161.872,113.53L169.71,113.53C170.975,113.53 172.19,114.032 173.085,114.927C173.98,115.822 174.484,117.036 174.484,118.303L174.484,118.305C174.484,119.483 174.015,120.615 173.18,121.449C172.346,122.283 171.216,122.751 170.036,122.751L161.872,122.751C161.105,122.751 160.484,123.374 160.484,124.14C160.484,124.906 161.105,125.53 161.872,125.53L170.036,125.53C171.952,125.53 173.789,124.768 175.145,123.413C176.5,122.058 177.26,120.221 177.26,118.305L177.26,118.303C177.26,116.3 176.466,114.379 175.049,112.963C173.633,111.547 171.713,110.751 169.71,110.751L161.872,110.751C161.105,110.751 160.484,111.374 160.484,112.14C160.484,112.906 161.105,113.53 161.872,113.53ZM88.871,110.751L81.033,110.751C79.03,110.751 77.109,111.547 75.693,112.963C74.277,114.379 73.482,116.3 73.482,118.303L73.482,118.305C73.482,120.221 74.243,122.058 75.597,123.413C76.953,124.768 78.791,125.53 80.706,125.53L88.871,125.53C89.637,125.53 90.259,124.906 90.259,124.14C90.259,123.374 89.637,122.751 88.871,122.751L80.706,122.751C79.527,122.751 78.396,122.283 77.562,121.449C76.728,120.615 76.259,119.483 76.259,118.305L76.259,118.303C76.259,117.036 76.763,115.822 77.658,114.927C78.553,114.032 79.767,113.53 81.033,113.53L88.871,113.53C89.637,113.53 90.259,112.906 90.259,112.14C90.259,111.374 89.637,110.751 88.871,110.751ZM59.871,81.751C59.672,81.751 59.469,81.794 59.277,81.885C59.133,81.953 59.006,82.043 58.899,82.148L58.879,82.168C58.774,82.275 58.684,82.402 58.616,82.546L49.616,101.546C49.288,102.238 49.584,103.067 50.277,103.395C50.969,103.724 51.798,103.428 52.126,102.735L59.871,86.385L67.616,102.735C67.944,103.428 68.773,103.724 69.466,103.395C70.159,103.067 70.455,102.238 70.126,101.546L61.126,82.546C61.058,82.402 60.969,82.275 60.863,82.168L60.844,82.148C60.736,82.043 60.61,81.953 60.466,81.885C60.274,81.794 60.071,81.751 59.871,81.751ZM156.203,79.142C160.403,85.202 160.661,91.26 156.224,97.319C155.771,97.939 155.905,98.808 156.524,99.261C157.143,99.714 158.013,99.579 158.465,98.961C163.688,91.827 163.431,84.693 158.486,77.559C158.049,76.93 157.183,76.772 156.553,77.21C155.923,77.646 155.766,78.512 156.203,79.142ZM81.514,77.559C76.569,84.693 76.312,91.827 81.535,98.961C81.987,99.579 82.857,99.714 83.476,99.261C84.094,98.808 84.229,97.939 83.776,97.319C79.339,91.26 79.597,85.202 83.797,79.142C84.234,78.512 84.077,77.646 83.447,77.21C82.817,76.772 81.951,76.93 81.514,77.559ZM134.751,84.193L124.703,84.193L122.849,80.486C122.488,79.764 121.609,79.471 120.887,79.832C120.165,80.193 119.872,81.072 120.233,81.794L122.482,86.291C122.487,86.303 122.493,86.314 122.499,86.325L128.233,97.794C128.519,98.365 129.128,98.668 129.727,98.591C130.326,98.668 130.935,98.365 131.221,97.794L139.221,81.794C139.582,81.072 139.289,80.193 138.567,79.832C137.845,79.471 136.965,79.764 136.604,80.486L134.751,84.193ZM126.165,87.118L129.727,94.241L133.289,87.118L126.165,87.118ZM110.837,77.106L106.837,81.106C106.266,81.677 106.266,82.603 106.837,83.175C107.408,83.745 108.334,83.745 108.905,83.175L112.905,79.175C113.476,78.603 113.476,77.677 112.905,77.106C112.334,76.535 111.408,76.535 110.837,77.106ZM145.837,79.175L149.837,83.175C150.408,83.745 151.334,83.745 151.905,83.175C152.476,82.603 152.476,81.677 151.905,81.106L147.905,77.106C147.334,76.535 146.408,76.535 145.837,77.106C145.266,77.677 145.266,78.603 145.837,79.175ZM109.157,73.143L132.716,73.143C133.482,73.143 134.105,72.52 134.105,71.754C134.105,70.988 133.482,70.365 132.716,70.365L109.157,70.365C108.391,70.365 107.768,70.988 107.768,71.754C107.768,72.52 108.391,73.143 109.157,73.143ZM95.964,49.633C95.764,49.633 95.561,49.676 95.369,49.767C95.225,49.835 95.099,49.925 94.991,50.031L94.972,50.05C94.866,50.157 94.777,50.284 94.709,50.428L86.227,68.333C85.899,69.025 86.195,69.854 86.888,70.182C87.581,70.511 88.41,70.214 88.738,69.522L95.964,54.267L103.19,69.522C103.518,70.214 104.347,70.511 105.04,70.182C105.732,69.854 106.028,69.025 105.7,68.333L97.219,50.428C97.151,50.284 97.061,50.157 96.956,50.05L96.936,50.031C96.829,49.925 96.702,49.835 96.558,49.767C96.366,49.676 96.163,49.633 95.964,49.633ZM146.851,49.633C146.651,49.633 146.449,49.676 146.257,49.767C146.113,49.835 145.986,49.925 145.878,50.031L145.859,50.05C145.754,50.157 145.664,50.284 145.596,50.428L137.115,68.333C136.787,69.025 137.083,69.854 137.775,70.182C138.468,70.511 139.297,70.214 139.625,69.522L146.851,54.267L154.077,69.522C154.405,70.214 155.234,70.511 155.927,70.182C156.62,69.854 156.916,69.025 156.588,68.333L148.106,50.428C148.038,50.284 147.948,50.157 147.843,50.05L147.824,50.031C147.716,49.925 147.589,49.835 147.446,49.767C147.253,49.676 147.051,49.633 146.851,49.633Z"/>
    </g>
</svg>
