<?xml version="1.0" encoding="UTF-8" standalone="no"?>
<svg xmlns:xlink="http://www.w3.org/1999/xlink" height="44.5px" width="21.7px" xmlns="http://www.w3.org/2000/svg">
  <g transform="matrix(1.0, 0.0, 0.0, 1.0, 10.7, 44.0)">
    <path d="M6.15 -33.55 Q7.05 -32.7 6.95 -30.85 6.8 -29.05 6.05 -28.5 L5.95 -28.45 Q6.85 -27.45 6.75 -25.75 6.65 -23.7 5.75 -23.25 L5.2 -22.95 Q6.4 -22.05 6.35 -20.4 6.35 -18.95 5.6 -18.35 6.1 -17.7 6.2 -16.65 6.25 -14.7 5.0 -14.2 L2.45 -14.05 -1.8 -15.25 Q-4.85 -16.2 -6.3 -18.65 L-7.65 -21.0 Q-8.55 -22.65 -8.0 -24.4 -7.4 -26.8 -6.1 -26.7 -6.25 -28.0 -5.6 -29.7 -5.1 -31.2 -4.15 -31.3 -4.7 -32.85 -4.05 -34.45 -3.1 -37.65 -1.75 -35.95 -1.9 -37.2 -1.45 -38.6 -0.9 -40.3 0.5 -38.75 L0.8 -38.35 Q1.5 -40.2 3.35 -41.4 5.55 -43.0 10.25 -43.25 7.4 -40.9 6.65 -38.75 5.9 -36.6 5.9 -35.1 5.9 -34.6 5.5 -34.15 L6.15 -33.55" fill="#ffffff" fill-rule="evenodd" stroke="none"/>
    <path d="M6.15 -33.55 Q7.05 -32.7 6.95 -30.85 6.8 -29.05 6.05 -28.5 L5.95 -28.45 Q6.85 -27.45 6.75 -25.75 6.65 -23.7 5.75 -23.25 L5.2 -22.95 Q6.4 -22.05 6.35 -20.4 6.35 -18.95 5.6 -18.35 6.1 -17.7 6.2 -16.65 6.25 -14.7 5.0 -14.2 L2.45 -14.05 -1.8 -15.25 Q-4.85 -16.2 -6.3 -18.65 L-7.65 -21.0 Q-8.55 -22.65 -8.0 -24.4 -7.4 -26.8 -6.1 -26.7 -6.25 -28.0 -5.6 -29.7 -5.1 -31.2 -4.15 -31.3 -4.7 -32.85 -4.05 -34.45 -3.1 -37.65 -1.75 -35.95 -1.9 -37.2 -1.45 -38.6 -0.9 -40.3 0.5 -38.75 L0.8 -38.35 Q1.5 -40.2 3.35 -41.4 5.55 -43.0 10.25 -43.25 7.4 -40.9 6.65 -38.75 5.9 -36.6 5.9 -35.1 5.9 -34.6 5.5 -34.15 L6.15 -33.55 Z" fill="none" stroke="#8f7c3f" stroke-linecap="round" stroke-linejoin="round" stroke-width="1.5"/>
    <path d="M10.2 -43.25 Q7.35 -40.9 6.6 -38.75 5.85 -36.6 5.85 -35.1 5.8 -33.7 3.2 -32.5 1.2 -33.05 0.65 -34.05 0.0 -35.15 0.5 -37.45 1.05 -39.9 3.3 -41.4 5.5 -43.0 10.2 -43.25" fill="#ffffff" fill-rule="evenodd" stroke="none"/>
    <path d="M10.2 -43.25 Q7.35 -40.9 6.6 -38.75 5.85 -36.6 5.85 -35.1 5.8 -33.7 3.2 -32.5 1.2 -33.05 0.65 -34.05 0.0 -35.15 0.5 -37.45 1.05 -39.9 3.3 -41.4 5.5 -43.0 10.2 -43.25 Z" fill="none" stroke="#8f7c3f" stroke-linecap="round" stroke-linejoin="round" stroke-width="0.5"/>
    <path d="M-4.8 -26.1 Q-2.35 -24.35 -1.7 -23.05 -1.05 -21.7 0.85 -21.0 L4.4 -19.4 Q6.0 -18.6 6.15 -16.6 6.2 -14.7 5.0 -14.2 L2.4 -14.0 -1.85 -15.2 Q-4.95 -16.15 -6.35 -18.6 L-7.7 -20.95 Q-8.6 -22.65 -8.05 -24.4 -7.2 -27.9 -4.8 -26.1" fill="#ffffff" fill-rule="evenodd" stroke="none"/>
    <path d="M-4.8 -26.1 Q-2.35 -24.35 -1.7 -23.05 -1.05 -21.7 0.85 -21.0 L4.4 -19.4 Q6.0 -18.6 6.15 -16.6 6.2 -14.7 5.0 -14.2 L2.4 -14.0 -1.85 -15.2 Q-4.95 -16.15 -6.35 -18.6 L-7.7 -20.95 Q-8.6 -22.65 -8.05 -24.4 -7.2 -27.9 -4.8 -26.1 Z" fill="none" stroke="#8f7c3f" stroke-linecap="round" stroke-linejoin="round" stroke-width="0.5"/>
    <path d="M-2.55 -30.75 Q-0.45 -29.15 -0.1 -27.4 0.25 -25.7 1.9 -24.85 3.6 -24.1 4.95 -23.1 6.4 -22.2 6.3 -20.4 6.25 -18.65 5.3 -18.25 L3.4 -18.1 Q2.4 -18.35 -0.4 -20.0 -3.2 -21.8 -4.15 -22.9 L-5.75 -25.6 Q-6.55 -27.15 -5.65 -29.7 -4.8 -32.25 -2.55 -30.75" fill="#ffffff" fill-rule="evenodd" stroke="none"/>
    <path d="M-2.55 -30.75 Q-0.45 -29.15 -0.1 -27.4 0.25 -25.7 1.9 -24.85 3.6 -24.1 4.95 -23.1 6.4 -22.2 6.3 -20.4 6.25 -18.65 5.3 -18.25 L3.4 -18.1 Q2.4 -18.35 -0.4 -20.0 -3.2 -21.8 -4.15 -22.9 L-5.75 -25.6 Q-6.55 -27.15 -5.65 -29.7 -4.8 -32.25 -2.55 -30.75 Z" fill="none" stroke="#8f7c3f" stroke-linecap="round" stroke-linejoin="round" stroke-width="0.5"/>
    <path d="M5.65 -28.7 Q6.8 -27.75 6.7 -25.75 6.6 -23.7 5.7 -23.25 4.75 -22.7 4.0 -23.0 3.2 -23.25 0.95 -24.95 L-2.3 -28.05 -4.05 -31.0 Q-4.8 -32.65 -4.1 -34.45 -3.1 -37.95 -1.5 -35.6 L0.8 -32.25 Q1.4 -31.35 2.95 -30.55 L5.65 -28.7" fill="#ffffff" fill-rule="evenodd" stroke="none"/>
    <path d="M5.65 -28.7 Q6.8 -27.75 6.7 -25.75 6.6 -23.7 5.7 -23.25 4.75 -22.7 4.0 -23.0 3.2 -23.25 0.95 -24.95 L-2.3 -28.05 -4.05 -31.0 Q-4.8 -32.65 -4.1 -34.45 -3.1 -37.95 -1.5 -35.6 L0.8 -32.25 Q1.4 -31.35 2.95 -30.55 L5.65 -28.7 Z" fill="none" stroke="#8f7c3f" stroke-linecap="round" stroke-linejoin="round" stroke-width="0.5"/>
    <path d="M6.0 -28.45 Q5.25 -27.95 4.6 -28.15 L1.9 -29.95 Q0.0 -31.5 -0.6 -32.65 L-1.6 -35.35 Q-2.05 -36.9 -1.5 -38.6 -0.9 -40.3 0.45 -38.75 L2.35 -36.55 Q2.8 -35.85 4.0 -35.15 L6.15 -33.55 Q7.05 -32.7 6.9 -30.85 6.8 -29.05 6.0 -28.45" fill="#ffffff" fill-rule="evenodd" stroke="none"/>
    <path d="M6.0 -28.45 Q5.25 -27.95 4.6 -28.15 L1.9 -29.95 Q0.0 -31.5 -0.6 -32.65 L-1.6 -35.35 Q-2.05 -36.9 -1.5 -38.6 -0.9 -40.3 0.45 -38.75 L2.35 -36.55 Q2.8 -35.85 4.0 -35.15 L6.15 -33.55 Q7.05 -32.7 6.9 -30.85 6.8 -29.05 6.0 -28.45 Z" fill="none" stroke="#8f7c3f" stroke-linecap="round" stroke-linejoin="round" stroke-width="0.5"/>
    <path d="M-7.7 -15.75 L-10.2 -16.35 Q-9.85 -18.85 -9.85 -20.6 -7.55 -19.55 -5.55 -19.15 L-1.55 -18.25 2.6 -17.15 7.0 -16.0 Q6.5 -12.6 5.5 -12.6 4.6 -12.55 3.05 -13.2 L2.45 -10.7 1.05 -7.65 -0.3 -4.85 Q-0.85 -3.15 -1.75 -1.9 -2.65 -0.7 -4.0 -0.2 -5.95 0.5 -7.45 -1.15 -8.75 -2.6 -8.7 -4.45 L-8.5 -7.95 -8.1 -11.7 Q-7.85 -13.55 -7.75 -15.5 L-7.7 -15.75 M0.55 -13.45 L-1.65 -14.1 -5.6 -15.5 -1.65 -14.1 0.55 -13.45" fill="#e2d5c0" fill-rule="evenodd" stroke="none"/>
    <path d="M-7.75 -15.5 Q-7.85 -13.55 -8.1 -11.7 L-8.5 -7.95 -8.7 -4.45 Q-8.75 -2.6 -7.45 -1.15 -5.95 0.5 -4.0 -0.2 -2.65 -0.7 -1.75 -1.9 -0.85 -3.15 -0.3 -4.85 L1.05 -7.65 2.45 -10.7 3.05 -13.2 Q4.6 -12.55 5.5 -12.6 6.5 -12.6 7.0 -16.0 L2.6 -17.15 -1.55 -18.25 -5.55 -19.15 Q-7.55 -19.55 -9.85 -20.6 -9.85 -18.85 -10.2 -16.35 L-7.7 -15.75" fill="none" stroke="#8f7c3f" stroke-linecap="round" stroke-linejoin="round" stroke-width="1.0"/>
    <path d="M-5.6 -15.5 L-1.65 -14.1 0.55 -13.45" fill="none" stroke="#8f7c3f" stroke-linecap="round" stroke-linejoin="round" stroke-width="0.5"/>
  </g>
</svg>
