<?xml version="1.0" encoding="UTF-8" standalone="no"?>
<svg xmlns:xlink="http://www.w3.org/1999/xlink" height="48.3px" width="17.4px" xmlns="http://www.w3.org/2000/svg">
  <g transform="matrix(1.0, 0.0, 0.0, 1.0, 8.7, 47.8)">
    <path d="M6.2 -27.15 Q8.4 -24.35 7.5 -20.9 6.9 -18.8 4.7 -17.3 2.5 -15.8 0.65 -16.25 -2.8 -15.8 -5.4 -17.75 -8.15 -19.75 -8.2 -23.15 -8.25 -25.4 -6.1 -27.75 -3.9 -30.15 0.0 -30.05 3.9 -29.95 6.2 -27.15" fill="#e2f5ec" fill-rule="evenodd" stroke="none"/>
    <path d="M6.2 -27.15 Q8.4 -24.35 7.5 -20.9 6.9 -18.8 4.7 -17.3 2.5 -15.8 0.65 -16.25 -2.8 -15.8 -5.4 -17.75 -8.15 -19.75 -8.2 -23.15 -8.25 -25.4 -6.1 -27.75 -3.9 -30.15 0.0 -30.05 3.9 -29.95 6.2 -27.15 Z" fill="none" stroke="#8f7c3f" stroke-linecap="round" stroke-linejoin="round" stroke-width="1.0"/>
    <path d="M-4.95 -27.45 Q-7.7 -28.2 -7.65 -31.2 -7.65 -34.2 -5.3 -36.35 -2.9 -38.55 1.0 -38.05 4.85 -37.6 6.85 -34.6 8.85 -31.6 7.85 -28.9 6.85 -26.2 5.0 -26.2 L0.45 -26.45 Q-2.25 -26.7 -4.95 -27.45" fill="#fff2c8" fill-rule="evenodd" stroke="none"/>
    <path d="M-4.95 -27.45 Q-7.7 -28.2 -7.65 -31.2 -7.65 -34.2 -5.3 -36.35 -2.9 -38.55 1.0 -38.05 4.85 -37.6 6.85 -34.6 8.85 -31.6 7.85 -28.9 6.85 -26.2 5.0 -26.2 L0.45 -26.45 Q-2.25 -26.7 -4.95 -27.45 Z" fill="none" stroke="#8f7c3f" stroke-linecap="round" stroke-linejoin="round" stroke-width="1.0"/>
    <path d="M-5.15 -14.6 Q-6.3 -14.8 -7.5 -14.6 L-8.1 -18.75 -3.95 -18.4 -0.15 -18.45 3.75 -18.35 7.95 -18.25 Q8.25 -14.9 7.35 -14.65 6.5 -14.4 5.0 -14.65 L5.0 -12.1 4.45 -8.9 Q4.0 -7.6 3.85 -5.9 3.7 -4.15 3.2 -2.7 2.6 -1.35 1.5 -0.55 -0.05 0.6 -1.8 -0.7 -3.25 -1.75 -3.55 -3.5 L-4.2 -6.95 -4.6 -10.65 -5.15 -14.35 -5.15 -14.6 M2.7 -14.35 L0.6 -14.45 -3.2 -14.85 0.6 -14.45 2.7 -14.35" fill="#e2d5c0" fill-rule="evenodd" stroke="none"/>
    <path d="M-5.15 -14.35 L-4.6 -10.65 -4.2 -6.95 -3.55 -3.5 Q-3.25 -1.75 -1.8 -0.7 -0.05 0.6 1.5 -0.55 2.6 -1.35 3.2 -2.7 3.7 -4.15 3.85 -5.9 4.0 -7.6 4.45 -8.9 L5.0 -12.1 5.0 -14.65 Q6.5 -14.4 7.35 -14.65 8.25 -14.9 7.95 -18.25 L3.75 -18.35 -0.15 -18.45 -3.95 -18.4 -8.1 -18.75 -7.5 -14.6 Q-6.3 -14.8 -5.15 -14.6" fill="none" stroke="#8f7c3f" stroke-linecap="round" stroke-linejoin="round" stroke-width="1.0"/>
    <path d="M-3.2 -14.85 L0.6 -14.45 2.7 -14.35" fill="none" stroke="#8f7c3f" stroke-linecap="round" stroke-linejoin="round" stroke-width="0.5"/>
    <path d="M-6.05 -44.7 Q-4.0 -47.2 -0.05 -47.3 3.85 -47.4 6.25 -44.7 8.6 -42.05 8.0 -39.2 7.4 -36.4 5.6 -36.1 L1.05 -35.7 -4.45 -35.95 Q-7.25 -36.3 -7.65 -39.25 -8.1 -42.25 -6.05 -44.7" fill="#fee5cb" fill-rule="evenodd" stroke="none"/>
    <path d="M-6.05 -44.7 Q-4.0 -47.2 -0.05 -47.3 3.85 -47.4 6.25 -44.7 8.6 -42.05 8.0 -39.2 7.4 -36.4 5.6 -36.1 L1.05 -35.7 -4.45 -35.95 Q-7.25 -36.3 -7.65 -39.25 -8.1 -42.25 -6.05 -44.7 Z" fill="none" stroke="#8f7c3f" stroke-linecap="round" stroke-linejoin="round" stroke-width="1.0"/>
  </g>
</svg>
