<?xml version="1.0" encoding="UTF-8" standalone="no"?>
<svg xmlns:xlink="http://www.w3.org/1999/xlink" height="64.95px" width="22.0px" xmlns="http://www.w3.org/2000/svg">
  <g transform="matrix(1.0, 0.0, 0.0, 1.0, 11.0, 64.45)">
    <path d="M-3.45 -61.35 L-3.45 -62.25 Q-1.8 -63.7 -0.35 -63.7 1.0 -63.7 3.25 -62.2 5.5 -60.75 5.95 -58.25 L6.05 -56.8 6.65 -55.45 Q6.9 -53.9 6.25 -53.3 L6.05 -53.2 Q7.45 -52.6 7.85 -51.0 8.3 -49.3 7.4 -48.6 L6.9 -48.35 Q8.5 -47.75 8.95 -46.2 9.35 -44.5 8.35 -43.8 L8.1 -43.65 Q8.95 -43.0 9.3 -41.95 9.7 -40.25 8.7 -39.55 L8.2 -39.35 Q9.25 -38.7 9.55 -37.5 10.05 -35.8 8.95 -35.15 L7.95 -34.7 Q8.95 -34.05 9.3 -32.95 9.7 -31.25 8.7 -30.55 L8.15 -30.3 Q9.65 -29.7 10.1 -28.3 10.6 -26.6 9.45 -25.9 8.9 -25.6 8.35 -25.45 9.25 -24.9 9.55 -23.85 10.05 -22.15 8.9 -21.5 L8.5 -21.25 Q9.15 -20.7 9.5 -19.8 10.0 -18.1 8.8 -17.7 L8.95 -17.6 10.0 -16.05 Q10.75 -14.05 9.3 -13.15 7.8 -12.3 6.15 -12.3 L0.3 -12.55 Q-3.75 -12.75 -6.3 -14.95 -6.95 -15.35 -8.8 -17.1 -10.35 -18.65 -10.25 -20.65 -10.25 -22.45 -9.4 -23.15 -9.85 -24.05 -9.65 -24.95 -9.5 -26.2 -8.95 -26.65 -9.85 -27.7 -9.55 -29.0 -9.4 -30.7 -8.35 -31.0 -9.3 -32.15 -9.0 -33.45 -8.9 -35.15 -7.85 -35.4 -8.95 -36.6 -8.65 -38.1 -8.55 -39.75 -7.65 -40.05 -8.75 -41.25 -8.4 -42.65 -8.35 -44.2 -7.5 -44.6 -8.45 -45.75 -8.2 -47.1 -8.05 -48.45 -7.45 -48.9 -8.25 -50.05 -8.0 -51.35 -7.85 -53.3 -6.7 -53.4 -7.8 -54.7 -7.5 -56.2 -7.3 -58.85 -5.55 -58.2 -6.0 -59.1 -5.9 -60.2 -5.7 -63.05 -3.55 -61.55 L-3.45 -61.35" fill="#ffffff" fill-rule="evenodd" stroke="none"/>
    <path d="M-3.45 -61.35 L-3.45 -62.25 Q-1.8 -63.7 -0.35 -63.7 1.0 -63.7 3.25 -62.2 5.5 -60.75 5.95 -58.25 L6.05 -56.8 6.65 -55.45 Q6.9 -53.9 6.25 -53.3 L6.05 -53.2 Q7.45 -52.6 7.85 -51.0 8.3 -49.3 7.4 -48.6 L6.9 -48.35 Q8.5 -47.75 8.95 -46.2 9.35 -44.5 8.35 -43.8 L8.1 -43.65 Q8.95 -43.0 9.3 -41.95 9.7 -40.25 8.7 -39.55 L8.2 -39.35 Q9.25 -38.7 9.55 -37.5 10.05 -35.8 8.95 -35.15 L7.95 -34.7 Q8.95 -34.05 9.3 -32.95 9.7 -31.25 8.7 -30.55 L8.15 -30.3 Q9.65 -29.7 10.1 -28.3 10.6 -26.6 9.45 -25.9 8.9 -25.6 8.35 -25.45 9.25 -24.9 9.55 -23.85 10.05 -22.15 8.9 -21.5 L8.5 -21.25 Q9.15 -20.7 9.5 -19.8 10.0 -18.1 8.8 -17.7 L8.95 -17.6 10.0 -16.05 Q10.75 -14.05 9.3 -13.15 7.8 -12.3 6.15 -12.3 L0.3 -12.55 Q-3.75 -12.75 -6.3 -14.95 -6.95 -15.35 -8.8 -17.1 -10.35 -18.65 -10.25 -20.65 -10.25 -22.45 -9.4 -23.15 -9.85 -24.05 -9.65 -24.95 -9.5 -26.2 -8.95 -26.65 -9.85 -27.7 -9.55 -29.0 -9.4 -30.7 -8.35 -31.0 -9.3 -32.15 -9.0 -33.45 -8.9 -35.15 -7.85 -35.4 -8.95 -36.6 -8.65 -38.1 -8.55 -39.75 -7.65 -40.05 -8.75 -41.25 -8.4 -42.65 -8.35 -44.2 -7.5 -44.6 -8.45 -45.75 -8.2 -47.1 -8.05 -48.45 -7.45 -48.9 -8.25 -50.05 -8.0 -51.35 -7.85 -53.3 -6.7 -53.4 -7.8 -54.7 -7.5 -56.2 -7.3 -58.85 -5.55 -58.2 -6.0 -59.1 -5.9 -60.2 -5.7 -63.05 -3.55 -61.55 L-3.45 -61.35 Z" fill="none" stroke="#8f7c3f" stroke-linecap="round" stroke-linejoin="round" stroke-width="1.5"/>
    <path d="M-6.65 -23.2 Q-3.05 -21.95 -1.85 -20.75 -0.6 -19.5 2.0 -19.25 L6.95 -18.5 Q9.2 -18.0 10.0 -15.95 10.7 -13.95 9.3 -13.05 7.8 -12.25 6.1 -12.25 L0.3 -12.45 Q-3.85 -12.6 -6.3 -14.85 -7.0 -15.25 -8.8 -17.0 -10.4 -18.55 -10.25 -20.55 -10.25 -24.5 -6.65 -23.2" fill="#ffffff" fill-rule="evenodd" stroke="none"/>
    <path d="M-6.65 -23.2 Q-3.05 -21.95 -1.85 -20.75 -0.6 -19.5 2.0 -19.25 L6.95 -18.5 Q9.2 -18.0 10.0 -15.95 10.7 -13.95 9.3 -13.05 7.8 -12.25 6.1 -12.25 L0.3 -12.45 Q-3.85 -12.6 -6.3 -14.85 -7.0 -15.25 -8.8 -17.0 -10.4 -18.55 -10.25 -20.55 -10.25 -24.5 -6.65 -23.2 Z" fill="none" stroke="#8f7c3f" stroke-linecap="round" stroke-linejoin="round" stroke-width="0.5"/>
    <path d="M-9.6 -24.85 Q-9.35 -28.0 -6.15 -26.3 L-1.65 -24.0 Q-0.35 -23.3 2.15 -22.9 L6.8 -21.95 Q8.95 -21.4 9.5 -19.7 10.0 -18.0 8.85 -17.6 L6.3 -17.35 0.45 -17.7 Q-3.95 -18.0 -5.45 -19.05 L-8.6 -21.8 Q-9.95 -23.2 -9.6 -24.85" fill="#ffffff" fill-rule="evenodd" stroke="none"/>
    <path d="M-9.6 -24.85 Q-9.35 -28.0 -6.15 -26.3 L-1.65 -24.0 Q-0.35 -23.3 2.15 -22.9 L6.8 -21.95 Q8.95 -21.4 9.5 -19.7 10.0 -18.0 8.85 -17.6 L6.3 -17.35 0.45 -17.7 Q-3.95 -18.0 -5.45 -19.05 L-8.6 -21.8 Q-9.95 -23.2 -9.6 -24.85 Z" fill="none" stroke="#8f7c3f" stroke-linecap="round" stroke-linejoin="round" stroke-width="0.5"/>
    <path d="M-9.6 -28.95 Q-9.35 -32.1 -6.15 -30.4 L-1.65 -28.1 Q-0.35 -27.4 2.15 -27.0 L6.8 -26.05 Q9.0 -25.5 9.5 -23.8 10.0 -22.1 8.85 -21.4 7.7 -20.8 6.3 -20.8 L0.65 -21.8 Q-3.7 -22.9 -5.25 -23.75 L-8.4 -25.95 Q-9.95 -27.3 -9.6 -28.95" fill="#ffffff" fill-rule="evenodd" stroke="none"/>
    <path d="M-9.6 -28.95 Q-9.35 -32.1 -6.15 -30.4 L-1.65 -28.1 Q-0.35 -27.4 2.15 -27.0 L6.8 -26.05 Q9.0 -25.5 9.5 -23.8 10.0 -22.1 8.85 -21.4 7.7 -20.8 6.3 -20.8 L0.65 -21.8 Q-3.7 -22.9 -5.25 -23.75 L-8.4 -25.95 Q-9.95 -27.3 -9.6 -28.95 Z" fill="none" stroke="#8f7c3f" stroke-linecap="round" stroke-linejoin="round" stroke-width="0.5"/>
    <path d="M-9.0 -33.35 Q-8.75 -36.5 -5.55 -34.8 -2.35 -33.25 -1.05 -32.5 0.25 -31.8 2.75 -31.4 L7.4 -30.45 Q9.6 -29.9 10.1 -28.2 10.6 -26.5 9.45 -25.8 8.3 -25.2 6.9 -25.2 L1.25 -26.2 Q-3.1 -27.3 -4.65 -28.15 L-7.8 -30.35 Q-9.35 -31.7 -9.0 -33.35" fill="#ffffff" fill-rule="evenodd" stroke="none"/>
    <path d="M-9.0 -33.35 Q-8.75 -36.5 -5.55 -34.8 -2.35 -33.25 -1.05 -32.5 0.25 -31.8 2.75 -31.4 L7.4 -30.45 Q9.6 -29.9 10.1 -28.2 10.6 -26.5 9.45 -25.8 8.3 -25.2 6.9 -25.2 L1.25 -26.2 Q-3.1 -27.3 -4.65 -28.15 L-7.8 -30.35 Q-9.35 -31.7 -9.0 -33.35 Z" fill="none" stroke="#8f7c3f" stroke-linecap="round" stroke-linejoin="round" stroke-width="0.5"/>
    <path d="M-8.75 -38.0 Q-8.5 -41.15 -5.5 -39.45 -2.5 -37.9 -1.25 -37.15 -0.05 -36.45 2.3 -36.05 L6.65 -35.1 Q8.7 -34.55 9.2 -32.85 9.65 -31.15 8.6 -30.45 7.5 -29.85 6.2 -29.85 L0.9 -30.85 Q-3.2 -31.95 -4.65 -32.8 L-7.6 -35.0 Q-9.05 -36.35 -8.75 -38.0" fill="#ffffff" fill-rule="evenodd" stroke="none"/>
    <path d="M-8.75 -38.0 Q-8.5 -41.15 -5.5 -39.45 -2.5 -37.9 -1.25 -37.15 -0.05 -36.45 2.3 -36.05 L6.65 -35.1 Q8.7 -34.55 9.2 -32.85 9.65 -31.15 8.6 -30.45 7.5 -29.85 6.2 -29.85 L0.9 -30.85 Q-3.2 -31.95 -4.65 -32.8 L-7.6 -35.0 Q-9.05 -36.35 -8.75 -38.0 Z" fill="none" stroke="#8f7c3f" stroke-linecap="round" stroke-linejoin="round" stroke-width="0.5"/>
    <path d="M-8.45 -42.6 Q-8.2 -45.75 -5.15 -44.05 L-0.9 -41.75 Q0.3 -41.05 2.65 -40.65 L7.05 -39.7 Q9.1 -39.15 9.6 -37.45 10.05 -35.75 8.95 -35.05 7.85 -34.45 6.6 -34.45 L1.25 -35.45 Q-2.85 -36.55 -4.35 -37.4 -5.85 -38.3 -7.3 -39.6 -8.75 -40.95 -8.45 -42.6" fill="#ffffff" fill-rule="evenodd" stroke="none"/>
    <path d="M-8.45 -42.6 Q-8.2 -45.75 -5.15 -44.05 L-0.9 -41.75 Q0.3 -41.05 2.65 -40.65 L7.05 -39.7 Q9.1 -39.15 9.6 -37.45 10.05 -35.75 8.95 -35.05 7.85 -34.45 6.6 -34.45 L1.25 -35.45 Q-2.85 -36.55 -4.35 -37.4 -5.85 -38.3 -7.3 -39.6 -8.75 -40.95 -8.45 -42.6 Z" fill="none" stroke="#8f7c3f" stroke-linecap="round" stroke-linejoin="round" stroke-width="0.5"/>
    <path d="M-8.25 -47.0 Q-8.0 -50.15 -5.05 -48.45 -2.15 -46.9 -0.95 -46.15 0.2 -45.45 2.55 -45.05 L6.75 -44.1 Q8.75 -43.55 9.25 -41.85 9.7 -40.15 8.65 -39.45 7.55 -38.85 6.35 -38.85 L1.15 -39.85 Q-2.85 -40.95 -4.25 -41.8 L-7.15 -44.0 Q-8.55 -45.35 -8.25 -47.0" fill="#ffffff" fill-rule="evenodd" stroke="none"/>
    <path d="M-8.25 -47.0 Q-8.0 -50.15 -5.05 -48.45 -2.15 -46.9 -0.95 -46.15 0.2 -45.45 2.55 -45.05 L6.75 -44.1 Q8.75 -43.55 9.25 -41.85 9.7 -40.15 8.65 -39.45 7.55 -38.85 6.35 -38.85 L1.15 -39.85 Q-2.85 -40.95 -4.25 -41.8 L-7.15 -44.0 Q-8.55 -45.35 -8.25 -47.0 Z" fill="none" stroke="#8f7c3f" stroke-linecap="round" stroke-linejoin="round" stroke-width="0.5"/>
    <path d="M-8.05 -51.25 Q-7.8 -54.4 -4.95 -52.7 -2.1 -51.15 -0.95 -50.4 0.2 -49.7 2.45 -49.3 L6.55 -48.35 Q8.45 -47.8 8.95 -46.1 9.4 -44.4 8.35 -43.7 7.3 -43.1 6.1 -43.1 L1.1 -44.1 Q-2.75 -45.2 -4.15 -46.05 L-6.95 -48.25 Q-8.35 -49.6 -8.05 -51.25" fill="#ffffff" fill-rule="evenodd" stroke="none"/>
    <path d="M-8.05 -51.25 Q-7.8 -54.4 -4.95 -52.7 -2.1 -51.15 -0.95 -50.4 0.2 -49.7 2.45 -49.3 L6.55 -48.35 Q8.45 -47.8 8.95 -46.1 9.4 -44.4 8.35 -43.7 7.3 -43.1 6.1 -43.1 L1.1 -44.1 Q-2.75 -45.2 -4.15 -46.05 L-6.95 -48.25 Q-8.35 -49.6 -8.05 -51.25 Z" fill="none" stroke="#8f7c3f" stroke-linecap="round" stroke-linejoin="round" stroke-width="0.5"/>
    <path d="M-7.5 -56.1 Q-7.25 -59.3 -4.7 -57.6 -2.1 -56.0 -1.05 -55.25 0.0 -54.55 2.0 -54.15 L5.75 -53.2 Q7.5 -52.6 7.95 -50.9 8.35 -49.2 7.4 -48.5 6.45 -47.85 5.35 -47.85 4.25 -47.9 0.8 -48.9 -2.7 -50.0 -4.0 -50.85 L-6.5 -53.1 Q-7.75 -54.45 -7.5 -56.1" fill="#ffffff" fill-rule="evenodd" stroke="none"/>
    <path d="M-7.5 -56.1 Q-7.25 -59.3 -4.7 -57.6 -2.1 -56.0 -1.05 -55.25 0.0 -54.55 2.0 -54.15 L5.75 -53.2 Q7.5 -52.6 7.95 -50.9 8.35 -49.2 7.4 -48.5 6.45 -47.85 5.35 -47.85 4.25 -47.9 0.8 -48.9 -2.7 -50.0 -4.0 -50.85 L-6.5 -53.1 Q-7.75 -54.45 -7.5 -56.1 Z" fill="none" stroke="#8f7c3f" stroke-linecap="round" stroke-linejoin="round" stroke-width="0.5"/>
    <path d="M-5.9 -60.05 Q-5.7 -62.95 -3.6 -61.4 L-0.7 -59.3 Q0.15 -58.7 1.8 -58.3 L4.85 -57.45 Q6.25 -56.95 6.65 -55.4 6.95 -53.85 6.2 -53.2 5.4 -52.65 4.55 -52.65 L0.85 -53.55 Q-2.0 -54.55 -3.05 -55.35 L-5.1 -57.35 Q-6.1 -58.6 -5.9 -60.05" fill="#ffffff" fill-rule="evenodd" stroke="none"/>
    <path d="M-5.9 -60.05 Q-5.7 -62.95 -3.6 -61.4 L-0.7 -59.3 Q0.15 -58.7 1.8 -58.3 L4.85 -57.45 Q6.25 -56.95 6.65 -55.4 6.95 -53.85 6.2 -53.2 5.4 -52.65 4.55 -52.65 L0.85 -53.55 Q-2.0 -54.55 -3.05 -55.35 L-5.1 -57.35 Q-6.1 -58.6 -5.9 -60.05 Z" fill="none" stroke="#8f7c3f" stroke-linecap="round" stroke-linejoin="round" stroke-width="0.5"/>
    <path d="M4.15 -51.75 Q3.15 -55.1 1.3 -56.65 -0.6 -58.25 -2.1 -58.85 -3.6 -59.55 -3.5 -62.2 -1.85 -63.55 -0.45 -63.6 0.95 -63.6 3.2 -62.05 5.4 -60.65 5.85 -58.2 6.35 -55.75 4.15 -51.75" fill="#ffffff" fill-rule="evenodd" stroke="none"/>
    <path d="M4.15 -51.75 Q3.15 -55.1 1.3 -56.65 -0.6 -58.25 -2.1 -58.85 -3.6 -59.55 -3.5 -62.2 -1.85 -63.55 -0.45 -63.6 0.95 -63.6 3.2 -62.05 5.4 -60.65 5.85 -58.2 6.35 -55.75 4.15 -51.75 Z" fill="none" stroke="#8f7c3f" stroke-linecap="round" stroke-linejoin="round" stroke-width="0.5"/>
    <path d="M6.95 -2.35 Q6.6 0.0 4.7 0.0 L-0.2 -0.15 -6.4 0.0 -6.65 -7.25 Q-6.75 -8.9 -8.35 -8.35 L-9.3 -9.4 -9.3 -10.7 Q-9.2 -11.55 -9.4 -13.25 -9.65 -14.95 -9.3 -16.15 L-3.75 -15.55 Q-1.3 -14.85 1.25 -14.75 L6.5 -14.9 Q8.3 -15.15 10.45 -14.95 L10.0 -10.55 Q9.75 -8.1 7.35 -7.75 7.0 -6.3 7.3 -4.15 7.45 -3.05 6.95 -2.35 L7.1 -3.75 Q6.8 -6.2 7.35 -7.75 6.8 -6.2 7.1 -3.75 L6.95 -2.35 M5.3 -8.45 L1.25 -8.5 -5.3 -8.7 1.25 -8.5 5.3 -8.45 M-3.4 -1.9 L-3.85 -7.25 -3.4 -1.9 M3.3 -2.6 Q3.6 -5.5 4.1 -6.65 3.6 -5.5 3.3 -2.6 M1.25 -2.55 L1.35 -6.9 1.25 -2.55 M-0.85 -2.55 L-1.15 -7.5 -0.85 -2.55" fill="#e2d5c0" fill-rule="evenodd" stroke="none"/>
    <path d="M6.95 -2.35 Q6.6 0.0 4.7 0.0 L-0.2 -0.15 -6.4 0.0 -6.65 -7.25 Q-6.75 -8.9 -8.35 -8.35 L-9.3 -9.4 -9.3 -10.7 M-9.3 -16.15 L-3.75 -15.55 Q-1.3 -14.85 1.25 -14.75 L6.5 -14.9 Q8.3 -15.15 10.45 -14.95 L10.0 -10.55 Q9.75 -8.1 7.35 -7.75 6.8 -6.2 7.1 -3.75 L6.95 -2.35" fill="none" stroke="#8f7c3f" stroke-linecap="round" stroke-linejoin="round" stroke-width="1.0"/>
    <path d="M-9.3 -10.7 Q-9.2 -11.55 -9.4 -13.25 -9.65 -14.95 -9.3 -16.15" fill="none" stroke="#8f7c3f" stroke-linecap="round" stroke-linejoin="round" stroke-width="1.0"/>
    <path d="M-1.15 -7.5 L-0.85 -2.55 M1.35 -6.9 L1.25 -2.55 M4.1 -6.65 Q3.6 -5.5 3.3 -2.6 M-3.85 -7.25 L-3.4 -1.9" fill="none" stroke="#8f7c3f" stroke-linecap="round" stroke-linejoin="round" stroke-width="0.5"/>
    <path d="M-5.3 -8.7 L1.25 -8.5 5.3 -8.45" fill="none" stroke="#8f7c3f" stroke-linecap="round" stroke-linejoin="round" stroke-width="0.5"/>
  </g>
</svg>
