<?xml version="1.0" encoding="UTF-8" standalone="no"?>
<!DOCTYPE svg PUBLIC "-//W3C//DTD SVG 1.1//EN" "http://www.w3.org/Graphics/SVG/1.1/DTD/svg11.dtd">
<svg width="50px" height="84px" version="1.1" xmlns="http://www.w3.org/2000/svg" xmlns:xlink="http://www.w3.org/1999/xlink" xml:space="preserve" xmlns:serif="http://www.serif.com/" style="fill-rule:evenodd;clip-rule:evenodd;stroke-linejoin:round;stroke-miterlimit:2;">
    <g transform="matrix(-0.414613,0,0,0.414613,79.025,-7.25643)">
        <path d="M168.299,30.477L164.969,27.147C161.242,23.813 154.633,20.785 150.422,19.147L128.637,19.147C115.792,21.093 103.698,28.932 97.715,35.077C92.836,38.351 89.144,41.899 85.997,45.3C81.641,51.076 78.328,56.435 77,61C72.148,68 71.875,75 77,82C83.143,88.759 85.056,93.58 83.931,97.008C82.399,102.854 78.564,107.917 71.855,111.346C75.702,111.145 80.19,112.531 83.931,113.736C91.703,116.585 101.425,118.022 107.144,118.305C107.765,118.305 108.34,118.636 108.654,119.172C108.967,119.709 108.973,120.372 108.669,120.914C106.624,124.526 105.227,127.474 104.584,131.404C104.247,133.369 102.553,134.812 100.559,134.831C95.659,134.786 89.972,131.645 85.997,132.176C84.305,132.403 82.766,134.457 82.36,135.172C81.444,136.794 81.248,138.724 81.82,140.496C82.392,142.268 83.68,143.72 85.371,144.5C86.908,145.211 88.633,146.735 90.915,146.908C100.584,148.354 113.083,148.045 114.8,156.692L114.8,185.49C114.8,185.49 117.005,186.102 119.024,186.662C120.836,187.165 122.059,188.854 121.973,190.732C121.866,192.506 121.991,194.123 122.302,196.714C123.102,204.818 126.634,210.279 133.227,214.539C139.794,215.846 141.735,212.532 141.026,207.291C146.362,224.312 156.249,220.745 155.864,195.704C155.824,193.101 154.668,190.317 153.319,188.511C152.854,187.95 152.809,187.151 153.207,186.541C155.498,182.999 162.882,171.693 162.882,171.693L154.516,160.823C154.516,160.823 153.28,159.166 152.023,157.482C150.686,155.688 150.906,153.177 152.534,151.643C153.133,151.086 153.757,150.431 154.516,149.761L162.882,138.131L154.516,127.261C154.516,127.261 153.222,126.009 151.604,124.443C150.578,123.451 150.263,121.933 150.808,120.614C151.353,119.296 152.648,118.444 154.075,118.465C157.258,118.514 160.085,118.557 160.085,118.557L180.677,118.557L185.114,114.709L185.114,95.974L188.938,81.6L188.938,62.865C185.893,51.51 180.655,40.474 168.299,30.477Z" style="fill:white;"/>
    </g>
    <g transform="matrix(0.615077,0,0,0.615077,-42.6974,-50.6325)">
        <path d="M102.988,209.752L102.972,209.746C102.687,209.632 102.402,209.643 102.117,209.785C101.853,209.916 101.658,210.13 101.545,210.436C101.545,210.437 101.545,210.437 101.544,210.438C100.96,212.048 100.252,213.275 99.404,214.109C98.621,214.879 97.773,215.277 96.848,215.277C96.321,215.277 95.896,215.222 95.573,215.095C95.288,214.983 95.041,214.766 94.82,214.458C94.57,214.111 94.404,213.612 94.3,212.97C94.183,212.252 94.126,211.328 94.126,210.199C94.126,208.059 94.178,205.484 94.282,202.475C94.299,202.169 94.207,201.896 94,201.655C93.791,201.414 93.549,201.29 93.285,201.261L93.132,201.238C92.814,201.217 92.533,201.329 92.299,201.6L92.299,201.601C92.108,201.822 92.002,202.083 91.985,202.385C91.985,202.389 91.984,202.393 91.984,202.397C91.879,205.471 91.827,208.072 91.827,210.199C91.827,212.97 92.204,214.877 92.892,215.931C93.629,217.061 94.936,217.668 96.848,217.668C98.328,217.668 99.662,217.113 100.844,215.988C101.971,214.915 102.909,213.344 103.641,211.263C103.642,211.26 103.643,211.257 103.644,211.254C103.732,210.99 103.732,210.716 103.636,210.431C103.525,210.104 103.32,209.89 103.039,209.772L103.08,209.791L102.988,209.752ZM113.906,202.87C113.403,207.961 111.93,211.037 107.788,213.714C107.303,214.027 107.164,214.675 107.477,215.159C107.79,215.644 108.438,215.783 108.922,215.47C113.669,212.404 115.411,208.909 115.987,203.075C116.044,202.501 115.624,201.989 115.049,201.932C114.475,201.875 113.963,202.295 113.906,202.87ZM104.887,202.881L104.887,205.179C104.887,205.814 105.403,206.329 106.038,206.329C106.673,206.329 107.188,205.814 107.188,205.179L107.188,202.881C107.188,202.247 106.673,201.731 106.038,201.731C105.403,201.731 104.887,202.247 104.887,202.881ZM108.127,195.881L111.898,195.881C112.512,195.881 113.01,195.383 113.01,194.769C113.01,194.155 112.512,193.657 111.898,193.657L108.127,193.657C107.513,193.657 107.015,194.155 107.015,194.769C107.015,195.383 107.513,195.881 108.127,195.881ZM119.469,176.145L119.469,194.734C119.469,195.31 119.937,195.778 120.513,195.778C121.089,195.778 121.557,195.31 121.557,194.734L121.557,176.145C121.557,175.568 121.089,175.1 120.513,175.1C119.937,175.1 119.469,175.568 119.469,176.145ZM94.658,195.244L94.737,195.124C94.848,194.908 94.903,194.663 94.892,194.388C94.891,194.388 94.891,194.387 94.891,194.387C94.88,194.101 94.802,193.868 94.676,193.682C93.192,191.404 91.74,189.421 90.322,187.731C89.967,187.293 89.739,186.993 89.641,186.827C89.585,186.731 89.557,186.629 89.557,186.52C89.557,186.393 89.587,186.279 89.65,186.177C89.758,186.004 90.02,185.68 90.432,185.203C91.627,183.833 92.924,182.162 94.321,180.19C94.323,180.189 94.324,180.187 94.325,180.185C94.449,180.005 94.534,179.77 94.556,179.47C94.578,179.182 94.53,178.933 94.425,178.72L94.381,178.621C94.21,178.287 93.966,178.142 93.709,178.112C93.43,178.079 93.162,178.174 92.94,178.469C92.937,178.472 92.935,178.475 92.933,178.478C91.662,180.244 90.389,181.878 89.111,183.38C88.443,184.159 88.028,184.714 87.857,185.037L87.856,185.037C87.663,185.402 87.553,185.895 87.553,186.52C87.553,187.116 87.657,187.591 87.843,187.951C88.007,188.267 88.396,188.805 89.02,189.559L89.02,189.558C90.371,191.192 91.768,193.096 93.211,195.269C93.427,195.637 93.713,195.742 93.999,195.709C94,195.709 94,195.709 94,195.708C94.242,195.68 94.478,195.547 94.658,195.244ZM105.063,179.454L98.363,193.008C98.091,193.558 98.317,194.224 98.867,194.496C99.416,194.768 100.083,194.542 100.355,193.992L107.054,180.439C107.326,179.889 107.1,179.222 106.551,178.951C106.001,178.679 105.334,178.905 105.063,179.454ZM114.865,180.748L114.865,192.121C114.865,192.698 115.334,193.166 115.91,193.166C116.487,193.166 116.955,192.698 116.955,192.121L116.955,180.748C116.955,180.171 116.487,179.703 115.91,179.703C115.334,179.703 114.865,180.171 114.865,180.748ZM97.013,154.747L97.013,172.793C97.013,173.406 97.511,173.905 98.125,173.905C98.739,173.905 99.237,173.406 99.237,172.793L99.237,154.747C99.237,154.134 98.739,153.635 98.125,153.635C97.511,153.635 97.013,154.134 97.013,154.747ZM100.734,158.186C102.95,162.433 103.087,166.68 100.746,170.927C100.45,171.463 100.646,172.139 101.182,172.435C101.719,172.731 102.395,172.535 102.69,171.999C105.417,167.052 105.284,162.105 102.702,157.158C102.419,156.615 101.748,156.404 101.204,156.688C100.661,156.971 100.45,157.643 100.734,158.186ZM94.658,172.022L94.737,171.902C94.848,171.686 94.903,171.441 94.892,171.166L94.891,171.166C94.88,170.879 94.802,170.646 94.676,170.46C93.192,168.183 91.74,166.199 90.322,164.51C89.967,164.072 89.739,163.772 89.641,163.606L89.641,163.605C89.585,163.51 89.557,163.407 89.557,163.298C89.557,163.171 89.587,163.057 89.65,162.955C89.758,162.782 90.02,162.459 90.432,161.982C91.627,160.611 92.924,158.94 94.321,156.968C94.323,156.967 94.324,156.965 94.325,156.963C94.449,156.784 94.534,156.548 94.556,156.248C94.578,155.961 94.53,155.711 94.425,155.498L94.381,155.399C94.21,155.065 93.966,154.921 93.709,154.89C93.43,154.857 93.162,154.952 92.94,155.247C92.937,155.25 92.935,155.253 92.933,155.256C91.662,157.023 90.389,158.657 89.111,160.158C88.443,160.937 88.028,161.492 87.857,161.815L87.856,161.815C87.663,162.18 87.553,162.673 87.553,163.298C87.553,163.894 87.657,164.37 87.843,164.729C88.007,165.045 88.396,165.583 89.02,166.337L89.02,166.336C90.371,167.97 91.768,169.874 93.211,172.047C93.427,172.415 93.713,172.52 93.999,172.487L94,172.487C94.242,172.458 94.478,172.326 94.658,172.022ZM123.722,170.48L123.722,162.341C123.722,161.727 123.224,161.229 122.61,161.229C121.996,161.229 121.498,161.727 121.498,162.341L121.498,170.48C121.498,171.093 121.996,171.592 122.61,171.592C123.224,171.592 123.722,171.093 123.722,170.48ZM108.802,170.48L108.802,162.341C108.802,161.727 108.304,161.229 107.69,161.229C107.076,161.229 106.578,161.727 106.578,162.341L106.578,170.48C106.578,171.093 107.076,171.592 107.69,171.592C108.304,171.592 108.802,171.093 108.802,170.48ZM126.49,169.824L126.49,170.48C126.49,171.094 126.988,171.591 127.601,171.591C128.215,171.591 128.713,171.094 128.713,170.48L128.713,169.824C128.713,169.211 128.215,168.713 127.601,168.713C126.988,168.713 126.49,169.211 126.49,169.824ZM114.034,165.629L111.288,168.966C110.898,169.44 110.966,170.14 111.44,170.53C111.913,170.92 112.614,170.852 113.004,170.378L115.473,167.378L117.942,170.378C118.332,170.852 119.033,170.92 119.506,170.53C119.98,170.14 120.048,169.44 119.658,168.966L116.912,165.629L119.657,162.295C120.046,161.821 119.978,161.12 119.505,160.73C119.031,160.341 118.33,160.409 117.94,160.882L115.473,163.88L113.006,160.882C112.616,160.409 111.915,160.341 111.441,160.73C110.968,161.12 110.9,161.821 111.289,162.295L114.034,165.629ZM132.374,162.835C134.222,162.254 135.826,161.362 137.314,160.879C138.428,160.518 139.462,160.41 140.5,161.205C140.891,161.505 141.179,161.845 141.382,162.204C141.842,163.017 141.94,163.985 141.653,164.874C141.653,164.875 141.653,164.875 141.652,164.875C141.366,165.765 140.72,166.493 139.871,166.884L139.87,166.884C138.943,167.314 137.903,167.716 136.528,167.82C135.896,167.868 135.423,168.419 135.471,169.051C135.519,169.682 136.07,170.156 136.702,170.108C138.4,169.979 139.687,169.497 140.832,168.968C142.263,168.308 143.353,167.08 143.836,165.579C144.321,164.08 144.155,162.447 143.38,161.074L143.379,161.073C143.036,160.468 142.557,159.891 141.898,159.385C141.898,159.385 141.897,159.385 141.897,159.384C140.168,158.059 138.463,158.094 136.606,158.696C135.124,159.177 133.527,160.067 131.687,160.645C131.083,160.835 130.746,161.48 130.936,162.084C131.126,162.688 131.77,163.024 132.374,162.835ZM126.488,157.851L126.488,165.99C126.488,166.604 126.986,167.102 127.6,167.102C128.214,167.102 128.712,166.604 128.712,165.99L128.712,157.851C128.712,157.237 128.214,156.739 127.6,156.739C126.986,156.739 126.488,157.237 126.488,157.851ZM108.793,158.507L108.793,157.851C108.793,157.237 108.295,156.739 107.681,156.739C107.068,156.739 106.57,157.237 106.57,157.851L106.57,158.507C106.57,159.12 107.068,159.618 107.681,159.618C108.295,159.618 108.793,159.12 108.793,158.507ZM123.723,158.507L123.723,157.851C123.723,157.237 123.225,156.739 122.611,156.739C121.998,156.739 121.5,157.237 121.5,157.851L121.5,158.507C121.5,159.12 121.998,159.618 122.611,159.618C123.225,159.618 123.723,159.12 123.723,158.507ZM76.107,151.551L79.878,151.551C80.492,151.551 80.99,151.053 80.99,150.439C80.99,149.825 80.492,149.327 79.878,149.327L76.107,149.327C75.493,149.327 74.995,149.825 74.995,150.439C74.995,151.053 75.493,151.551 76.107,151.551ZM86.216,151.551L89.987,151.551C90.601,151.551 91.099,151.053 91.099,150.439C91.099,149.825 90.601,149.327 89.987,149.327L86.216,149.327C85.603,149.327 85.104,149.825 85.104,150.439C85.104,151.053 85.603,151.551 86.216,151.551ZM98.168,145.243C96.864,145.243 95.804,146.302 95.804,147.607C95.804,148.912 96.864,149.971 98.168,149.971C99.473,149.971 100.532,148.912 100.532,147.607C100.532,146.302 99.473,145.243 98.168,145.243ZM82.102,135.165L82.102,148.308C82.102,148.885 82.571,149.354 83.149,149.354C83.726,149.354 84.195,148.885 84.195,148.308L84.195,135.165C84.195,134.588 83.726,134.119 83.149,134.119C82.571,134.119 82.102,134.588 82.102,135.165ZM92.07,147.189L92.07,147.845C92.07,148.458 92.568,148.956 93.181,148.956C93.795,148.956 94.293,148.458 94.293,147.845L94.293,147.189C94.293,146.575 93.795,146.077 93.181,146.077C92.568,146.077 92.07,146.575 92.07,147.189ZM72,147.189L72,147.845C72,148.458 72.498,148.956 73.111,148.956C73.725,148.956 74.223,148.458 74.223,147.845L74.223,147.189C74.223,146.575 73.725,146.077 73.111,146.077C72.498,146.077 72,146.575 72,147.189ZM134.68,147.189L134.68,147.845C134.68,148.458 135.178,148.956 135.791,148.956C136.405,148.956 136.903,148.458 136.903,147.845L136.903,147.189C136.903,146.575 136.405,146.077 135.791,146.077C135.178,146.077 134.68,146.575 134.68,147.189ZM129.352,136.151C128.849,141.242 127.376,144.318 123.234,146.995C122.749,147.308 122.61,147.956 122.923,148.44C123.236,148.925 123.884,149.064 124.368,148.751C129.115,145.685 130.857,142.19 131.433,136.356C131.49,135.782 131.07,135.27 130.495,135.213C129.921,135.156 129.409,135.576 129.352,136.151ZM98.168,146.909C98.554,146.909 98.867,147.222 98.867,147.607C98.867,147.992 98.554,148.305 98.168,148.305C97.783,148.305 97.47,147.992 97.47,147.607C97.47,147.222 97.783,146.909 98.168,146.909ZM140.212,136.204C141.062,139.446 142.878,142.364 145.866,144.667C144.184,144.935 142.491,145.384 140.97,145.873C140.367,146.066 140.035,146.713 140.229,147.316C140.423,147.919 141.07,148.251 141.673,148.057C144.07,147.286 146.936,146.595 149.403,146.724C149.944,146.752 150.431,146.398 150.571,145.875C150.712,145.352 150.467,144.802 149.985,144.556C145.794,142.416 143.388,139.27 142.431,135.622C142.27,135.009 141.643,134.642 141.03,134.803C140.418,134.964 140.051,135.592 140.212,136.204ZM134.678,135.216L134.678,143.355C134.678,143.969 135.176,144.467 135.79,144.467C136.404,144.467 136.902,143.969 136.902,143.355L136.902,135.216C136.902,134.602 136.404,134.104 135.79,134.104C135.176,134.104 134.678,134.602 134.678,135.216ZM92.068,135.216L92.068,143.355C92.068,143.969 92.566,144.467 93.18,144.467C93.794,144.467 94.292,143.969 94.292,143.355L94.292,135.216C94.292,134.602 93.794,134.104 93.18,134.104C92.566,134.104 92.068,134.602 92.068,135.216ZM71.998,135.216L71.998,143.355C71.998,143.969 72.496,144.467 73.11,144.467C73.724,144.467 74.222,143.969 74.222,143.355L74.222,135.216C74.222,134.602 73.724,134.104 73.11,134.104C72.496,134.104 71.998,134.602 71.998,135.216ZM110.892,142.569L118.359,142.569C118.936,142.569 119.404,142.101 119.404,141.525C119.404,140.949 118.936,140.481 118.359,140.481L110.892,140.481C110.316,140.481 109.848,140.949 109.848,141.525C109.848,142.101 110.316,142.569 110.892,142.569ZM104.862,131.687C103.439,131.687 102.276,132.855 102.276,134.303C102.276,135.751 103.439,136.919 104.862,136.919C106.286,136.919 107.448,135.751 107.448,134.303C107.448,132.855 106.286,131.687 104.862,131.687ZM122.554,131.687C121.131,131.687 119.968,132.855 119.968,134.303C119.968,135.751 121.131,136.919 122.554,136.919C123.978,136.919 125.14,135.751 125.14,134.303C125.14,132.855 123.978,131.687 122.554,131.687ZM104.862,133.35C105.375,133.35 105.785,133.781 105.785,134.303C105.785,134.825 105.375,135.256 104.862,135.256C104.349,135.256 103.939,134.825 103.939,134.303C103.939,133.781 104.349,133.35 104.862,133.35ZM122.554,133.35C123.067,133.35 123.477,133.781 123.477,134.303C123.477,134.825 123.067,135.256 122.554,135.256C122.041,135.256 121.631,134.825 121.631,134.303C121.631,133.781 122.041,133.35 122.554,133.35ZM88.421,111.587L88.411,111.587C88.379,111.587 88.351,111.594 88.327,111.608L88.327,111.587C87.982,111.587 87.592,111.738 87.35,112.28L87.349,112.28C87.248,112.508 87.188,112.781 87.188,113.106L87.188,117.45C87.188,120.087 86.967,122.043 86.492,123.313C86.086,124.398 85.391,125.153 84.391,125.563C84.134,125.656 83.835,125.881 83.678,126.389C83.595,126.659 83.566,126.939 83.594,127.229L84.423,127.983L83.599,127.274L84.431,128.04L83.604,127.305C83.645,127.645 83.744,127.912 83.876,128.115C84.219,128.648 84.657,128.714 85.053,128.596C85.069,128.591 85.085,128.585 85.101,128.58C86.703,127.991 87.879,126.774 88.592,124.891C89.232,123.198 89.569,120.706 89.569,117.412L89.569,113.106C89.569,112.776 89.505,112.498 89.397,112.267L89.396,112.266C89.148,111.735 88.76,111.587 88.421,111.587ZM131.414,111.587L131.405,111.587C131.373,111.587 131.345,111.594 131.321,111.608L131.321,111.587C130.975,111.587 130.585,111.738 130.343,112.28C130.242,112.508 130.181,112.781 130.181,113.106L130.181,117.45C130.181,120.087 129.961,122.043 129.486,123.313C129.08,124.398 128.384,125.153 127.385,125.563C127.128,125.656 126.829,125.881 126.672,126.389C126.588,126.659 126.559,126.939 126.587,127.229L126.598,127.305C126.638,127.645 126.738,127.912 126.869,128.115C127.212,128.648 127.65,128.714 128.046,128.596C128.062,128.591 128.079,128.585 128.095,128.58C129.697,127.991 130.873,126.774 131.585,124.891C132.226,123.198 132.562,120.706 132.562,117.412L132.562,113.106C132.562,112.776 132.498,112.498 132.39,112.267L132.39,112.266C132.141,111.735 131.753,111.587 131.414,111.587ZM120.278,109.729L120.278,126.675C120.278,127.253 120.747,127.722 121.324,127.722C121.902,127.722 122.371,127.253 122.371,126.675L122.371,109.729C122.371,109.151 121.902,108.682 121.324,108.682C120.747,108.682 120.278,109.151 120.278,109.729ZM96.669,112.664L96.669,125.806C96.669,126.383 97.138,126.852 97.715,126.852C98.293,126.852 98.762,126.383 98.762,125.806L98.762,112.664C98.762,112.086 98.293,111.617 97.715,111.617C97.138,111.617 96.669,112.086 96.669,112.664ZM135.793,112.236C138.783,116.55 138.967,120.865 135.809,125.179C135.468,125.644 135.569,126.299 136.034,126.639C136.5,126.98 137.154,126.879 137.495,126.413C141.245,121.291 141.061,116.168 137.51,111.045C137.182,110.571 136.53,110.453 136.056,110.782C135.582,111.11 135.464,111.762 135.793,112.236ZM145.135,112.236C148.125,116.55 148.309,120.865 145.151,125.179C144.81,125.644 144.911,126.299 145.376,126.639C145.842,126.98 146.496,126.879 146.837,126.413C150.587,121.291 150.403,116.168 146.852,111.045C146.524,110.571 145.872,110.453 145.398,110.782C144.924,111.11 144.806,111.762 145.135,112.236ZM94.412,125.527L94.412,117.388C94.412,116.774 93.914,116.276 93.3,116.276C92.686,116.276 92.188,116.774 92.188,117.388L92.188,125.527C92.188,126.14 92.686,126.639 93.3,126.639C93.914,126.639 94.412,126.14 94.412,125.527ZM71.642,125.527L71.642,117.388C71.642,116.774 71.144,116.276 70.53,116.276C69.916,116.276 69.418,116.774 69.418,117.388L69.418,125.527C69.418,126.14 69.916,126.639 70.53,126.639C71.144,126.639 71.642,126.14 71.642,125.527ZM112.759,109.958C112.437,109.958 112.161,110.08 111.936,110.336L111.935,110.336C111.732,110.567 111.629,110.838 111.629,111.153L111.629,114.433C111.629,116.422 111.307,118.267 110.659,119.968C110.557,120.235 110.449,120.495 110.333,120.748L110.312,120.698C109.334,118.514 108.381,116.748 107.454,115.4L107.454,111.153C107.454,110.815 107.344,110.539 107.139,110.318C106.916,110.076 106.643,109.958 106.324,109.958L106.132,109.963L106.132,109.958C105.803,109.958 105.527,110.085 105.307,110.346C105.116,110.574 105.017,110.842 105.017,111.153L105.017,114.433C105.017,116.423 104.758,118.268 104.235,119.968C103.722,121.639 103.006,123.033 102.08,124.143C102.079,124.144 102.078,124.145 102.078,124.146C101.857,124.415 101.76,124.688 101.756,124.951C101.751,125.216 101.837,125.484 102.043,125.743L102.145,125.889L102.143,125.887L102.161,125.91C102.362,126.164 102.623,126.294 102.941,126.306C103.265,126.318 103.539,126.205 103.762,125.964C103.767,125.958 103.772,125.952 103.777,125.946C104.633,124.937 105.361,123.665 105.956,122.127C106.363,121.074 106.671,119.976 106.88,118.832C107.362,119.737 107.852,120.778 108.351,121.954C108.358,121.97 108.366,121.985 108.374,122C108.53,122.29 108.755,122.461 109.034,122.534L109.035,122.534C109.125,122.557 109.213,122.568 109.3,122.567C108.897,123.145 108.444,123.671 107.941,124.144C107.71,124.355 107.58,124.617 107.551,124.932C107.521,125.253 107.602,125.531 107.781,125.767L108.224,125.987L107.786,125.774L107.862,125.872C108.056,126.141 108.31,126.286 108.617,126.32C108.935,126.356 109.214,126.268 109.455,126.055C109.461,126.05 109.466,126.044 109.472,126.039C110.928,124.637 112.048,122.83 112.823,120.614C113.599,122.868 114.721,124.675 116.177,126.041C116.424,126.281 116.718,126.375 117.055,126.327C117.365,126.282 117.617,126.131 117.805,125.866L117.784,125.893L117.884,125.741C118.081,125.461 118.148,125.183 118.119,124.918C118.091,124.658 117.967,124.395 117.712,124.15L117.711,124.15C116.555,123.042 115.661,121.658 115.027,120.001C114.385,118.323 114.066,116.473 114.066,114.45L114.066,111.153C114.066,110.815 113.955,110.539 113.75,110.318C113.527,110.076 113.254,109.958 112.935,109.958L112.935,109.96L112.759,109.958ZM117.241,125.664L117.252,125.654L117.423,125.987L117.241,125.664ZM77.439,113.329C77.89,117.888 77.141,120.85 73.973,123.926C73.518,124.368 73.507,125.096 73.949,125.551C74.391,126.006 75.119,126.016 75.574,125.575C79.309,121.948 80.257,118.478 79.726,113.103C79.664,112.472 79.101,112.01 78.47,112.073C77.839,112.135 77.377,112.698 77.439,113.329ZM83.87,111.587L83.862,111.587C83.837,111.587 83.814,111.591 83.793,111.6L83.793,111.587C83.431,111.587 83.046,111.747 82.807,112.28C82.706,112.507 82.646,112.781 82.646,113.106L82.646,120.309C82.646,120.631 82.706,120.908 82.811,121.144C83.059,121.697 83.456,121.847 83.793,121.847L83.87,121.847C84.213,121.847 84.613,121.694 84.853,121.131C84.952,120.899 85.009,120.625 85.009,120.309L85.009,113.106C85.009,112.781 84.949,112.508 84.848,112.28L84.847,112.28C84.606,111.738 84.215,111.587 83.87,111.587ZM126.863,111.59L126.787,111.587C126.424,111.587 126.039,111.747 125.801,112.28C125.699,112.507 125.639,112.781 125.639,113.106L125.639,120.309C125.639,120.631 125.7,120.908 125.805,121.144C126.052,121.697 126.45,121.847 126.787,121.847L126.863,121.847C127.206,121.847 127.607,121.694 127.847,121.131C127.946,120.899 128.003,120.625 128.003,120.309L128.003,113.106C128.003,112.781 127.943,112.508 127.841,112.28C127.599,111.738 127.209,111.587 126.863,111.587L126.863,111.59ZM94.413,113.554L94.413,112.898C94.413,112.284 93.915,111.786 93.301,111.786C92.688,111.786 92.19,112.284 92.19,112.898L92.19,113.554C92.19,114.167 92.688,114.665 93.301,114.665C93.915,114.665 94.413,114.167 94.413,113.554ZM71.643,113.554L71.643,112.898C71.643,112.284 71.145,111.786 70.531,111.786C69.918,111.786 69.42,112.284 69.42,112.898L69.42,113.554C69.42,114.167 69.918,114.665 70.531,114.665C71.145,114.665 71.643,114.167 71.643,113.554ZM112.892,103.242L112.892,95.103C112.892,94.49 112.394,93.992 111.78,93.992C111.166,93.992 110.668,94.49 110.668,95.103L110.668,103.242C110.668,103.856 111.166,104.354 111.78,104.354C112.394,104.354 112.892,103.856 112.892,103.242ZM127.682,103.242L127.682,95.103C127.682,94.49 127.184,93.992 126.57,93.992C125.956,93.992 125.458,94.49 125.458,95.103L125.458,103.242C125.458,103.856 125.956,104.354 126.57,104.354C127.184,104.354 127.682,103.856 127.682,103.242ZM96.444,91.565C95.941,96.656 94.468,99.732 90.326,102.409C89.841,102.722 89.702,103.369 90.015,103.854C90.328,104.339 90.976,104.478 91.46,104.165C96.207,101.099 97.949,97.604 98.525,91.77C98.582,91.196 98.162,90.684 97.587,90.627C97.013,90.57 96.501,90.99 96.444,91.565ZM117.601,98.369L114.855,101.706C114.465,102.18 114.533,102.88 115.007,103.27C115.48,103.66 116.181,103.592 116.571,103.118L119.04,100.118L121.509,103.118C121.899,103.592 122.6,103.66 123.073,103.27C123.547,102.88 123.615,102.18 123.225,101.706L120.479,98.369L123.224,95.035C123.613,94.561 123.545,93.86 123.072,93.47C122.598,93.081 121.897,93.149 121.507,93.622L119.04,96.62L116.573,93.622C116.183,93.149 115.482,93.081 115.008,93.47C114.535,93.86 114.467,94.561 114.856,95.035L117.601,98.369ZM130.087,94.079C133.31,96.242 137.084,99.519 139.163,101.766C139.554,102.189 140.215,102.215 140.638,101.824C141.061,101.432 141.087,100.771 140.696,100.348C138.533,98.009 134.605,94.597 131.251,92.345C130.772,92.024 130.123,92.152 129.802,92.631C129.481,93.109 129.609,93.758 130.087,94.079ZM101.344,100.494L107.724,100.494C108.338,100.494 108.837,99.995 108.837,99.381C108.837,98.767 108.338,98.268 107.724,98.268L101.344,98.268C100.729,98.268 100.231,98.767 100.231,99.381C100.231,99.995 100.729,100.494 101.344,100.494ZM101.344,95.819L107.724,95.819C108.338,95.819 108.837,95.32 108.837,94.706C108.837,94.092 108.338,93.593 107.724,93.593L101.344,93.593C100.729,93.593 100.231,94.092 100.231,94.706C100.231,95.32 100.729,95.819 101.344,95.819ZM77.685,90.753L77.685,93.051C77.685,93.685 78.2,94.201 78.835,94.201C79.47,94.201 79.986,93.685 79.986,93.051L79.986,90.753C79.986,90.118 79.47,89.603 78.835,89.603C78.2,89.603 77.685,90.118 77.685,90.753ZM127.683,91.27L127.683,90.613C127.683,90 127.185,89.502 126.571,89.502C125.958,89.502 125.46,90 125.46,90.613L125.46,91.27C125.46,91.883 125.958,92.381 126.571,92.381C127.185,92.381 127.683,91.883 127.683,91.27ZM112.893,91.27L112.893,90.613C112.893,90 112.395,89.502 111.781,89.502C111.168,89.502 110.67,90 110.67,90.613L110.67,91.27C110.67,91.883 111.168,92.381 111.781,92.381C112.395,92.381 112.893,91.883 112.893,91.27ZM86.343,87.55L83.639,90.254C83.191,90.702 83.191,91.429 83.639,91.877C84.087,92.325 84.814,92.325 85.262,91.877L87.966,89.173C88.414,88.725 88.414,87.998 87.966,87.55C87.518,87.102 86.791,87.102 86.343,87.55ZM95.093,84.538L113.023,84.538C113.635,84.538 114.132,84.041 114.132,83.428C114.132,82.816 113.635,82.319 113.023,82.319L95.093,82.319C94.481,82.319 93.984,82.816 93.984,83.428C93.984,84.041 94.481,84.538 95.093,84.538Z"/>
    </g>
</svg>
