<?xml version="1.0" encoding="UTF-8" standalone="no"?>
<!DOCTYPE svg PUBLIC "-//W3C//DTD SVG 1.1//EN" "http://www.w3.org/Graphics/SVG/1.1/DTD/svg11.dtd">
<svg width="70px" height="33px" version="1.1" xmlns="http://www.w3.org/2000/svg" xmlns:xlink="http://www.w3.org/1999/xlink" xml:space="preserve" xmlns:serif="http://www.serif.com/" style="fill-rule:evenodd;clip-rule:evenodd;stroke-linejoin:round;stroke-miterlimit:2;">
    <g transform="matrix(-0.506562,0,0,0.506562,94.0798,-15.1278)">
        <path d="M77,82C71.875,75 72.148,68 77,61L80,51L89,32L98,50.345C99.328,51.726 101.474,52.288 104.338,52.132L128,52.132C130.965,52.427 132.851,51.727 134,50.345L143,32L152,51C153.279,54.333 154.629,57.667 156.258,61C161.11,68 161.383,75 156.258,82C153.892,85.106 151.466,89.446 148.466,91.171C144.23,87.161 139.994,86.176 135.758,91.171C131.442,86.192 127.127,86.327 122.812,91.171C118.496,87.039 114.181,86.024 109.866,91.171C105.471,86.935 101.077,86.403 96.682,91.171C92.367,86.192 88.052,86.327 83.736,91.171C84.878,88.277 83.118,87.622 81.705,86.465C80.261,85.282 78.178,83.76 77.44,82.613" style="fill:white;"/>
    </g>
    <g transform="matrix(0.614682,0,0,0.614682,-32.615,-101.159)">
        <path d="M53.06,214.146L53.06,217.146C53.06,217.759 53.558,218.257 54.171,218.257C54.784,218.257 55.282,217.759 55.282,217.146L55.282,214.146C55.282,213.533 54.784,213.035 54.171,213.035C53.558,213.035 53.06,213.533 53.06,214.146ZM142.718,214.146L142.718,217.146C142.718,217.759 143.216,218.257 143.829,218.257C144.442,218.257 144.94,217.759 144.94,217.146L144.94,214.146C144.94,213.533 144.442,213.035 143.829,213.035C143.216,213.035 142.718,213.533 142.718,214.146ZM57.46,214.146L57.46,217.146C57.46,217.759 57.958,218.257 58.571,218.257C59.184,218.257 59.682,217.759 59.682,217.146L59.682,214.146C59.682,213.533 59.184,213.035 58.571,213.035C57.958,213.035 57.46,213.533 57.46,214.146ZM147.118,214.146L147.118,217.146C147.118,217.759 147.616,218.257 148.229,218.257C148.842,218.257 149.34,217.759 149.34,217.146L149.34,214.146C149.34,213.533 148.842,213.035 148.229,213.035C147.616,213.035 147.118,213.533 147.118,214.146ZM61.86,214.146L61.86,217.146C61.86,217.759 62.358,218.257 62.971,218.257C63.584,218.257 64.082,217.759 64.082,217.146L64.082,214.146C64.082,213.533 63.584,213.035 62.971,213.035C62.358,213.035 61.86,213.533 61.86,214.146ZM151.518,214.146L151.518,217.146C151.518,217.759 152.016,218.257 152.629,218.257C153.242,218.257 153.74,217.759 153.74,217.146L153.74,214.146C153.74,213.533 153.242,213.035 152.629,213.035C152.016,213.035 151.518,213.533 151.518,214.146ZM66.26,214.146L66.26,217.146C66.26,217.759 66.758,218.257 67.371,218.257C67.984,218.257 68.482,217.759 68.482,217.146L68.482,214.146C68.482,213.533 67.984,213.035 67.371,213.035C66.758,213.035 66.26,213.533 66.26,214.146ZM155.918,214.146L155.918,217.146C155.918,217.759 156.416,218.257 157.029,218.257C157.642,218.257 158.14,217.759 158.14,217.146L158.14,214.146C158.14,213.533 157.642,213.035 157.029,213.035C156.416,213.035 155.918,213.533 155.918,214.146ZM70.66,214.146L70.66,217.146C70.66,217.759 71.158,218.257 71.771,218.257C72.384,218.257 72.882,217.759 72.882,217.146L72.882,214.146C72.882,213.533 72.384,213.035 71.771,213.035C71.158,213.035 70.66,213.533 70.66,214.146ZM160.318,214.146L160.318,217.146C160.318,217.759 160.816,218.257 161.429,218.257C162.042,218.257 162.54,217.759 162.54,217.146L162.54,214.146C162.54,213.533 162.042,213.035 161.429,213.035C160.816,213.035 160.318,213.533 160.318,214.146ZM75.06,214.146L75.06,217.146C75.06,217.759 75.558,218.257 76.171,218.257C76.784,218.257 77.282,217.759 77.282,217.146L77.282,214.146C77.282,213.533 76.784,213.035 76.171,213.035C75.558,213.035 75.06,213.533 75.06,214.146ZM164.718,214.146L164.718,217.146C164.718,217.759 165.216,218.257 165.829,218.257C166.442,218.257 166.94,217.759 166.94,217.146L166.94,214.146C166.94,213.533 166.442,213.035 165.829,213.035C165.216,213.035 164.718,213.533 164.718,214.146ZM86.204,215.17L83.367,211.799C82.874,211.213 81.997,211.137 81.411,211.63C80.824,212.124 80.748,213.001 81.242,213.587L84.079,216.958C84.573,217.545 85.45,217.62 86.036,217.127C86.623,216.633 86.698,215.756 86.204,215.17ZM96.873,215.17L94.036,211.799C93.543,211.213 92.666,211.137 92.08,211.63C91.493,212.124 91.417,213.001 91.911,213.587L94.748,216.958C95.242,217.545 96.119,217.62 96.705,217.127C97.292,216.633 97.367,215.756 96.873,215.17ZM118.21,215.17L115.373,211.799C114.88,211.213 114.003,211.137 113.417,211.63C112.83,212.124 112.754,213.001 113.248,213.587L116.085,216.958C116.579,217.545 117.456,217.62 118.042,217.127C118.629,216.633 118.704,215.756 118.21,215.17ZM128.879,215.17L126.042,211.799C125.549,211.213 124.672,211.137 124.086,211.63C123.499,212.124 123.423,213.001 123.917,213.587L126.754,216.958C127.248,217.545 128.125,217.62 128.711,217.127C129.298,216.633 129.373,215.756 128.879,215.17ZM107.541,215.17L104.704,211.799C104.211,211.213 103.334,211.137 102.748,211.63C102.161,212.124 102.085,213.001 102.579,213.587L105.416,216.958C105.91,217.545 106.787,217.62 107.373,217.127C107.96,216.633 108.035,215.756 107.541,215.17ZM139.548,215.17L136.711,211.799C136.218,211.213 135.341,211.137 134.755,211.63C134.168,212.124 134.092,213.001 134.586,213.587L137.423,216.958C137.917,217.545 138.794,217.62 139.38,217.127C139.967,216.633 140.042,215.756 139.548,215.17ZM76.311,189.397C71.919,195.731 71.694,202.066 76.332,208.4C76.81,209.052 77.725,209.193 78.376,208.717C79.028,208.239 79.169,207.324 78.693,206.673C74.883,201.469 75.108,196.267 78.714,191.063C79.174,190.4 79.009,189.489 78.346,189.029C77.682,188.569 76.771,188.734 76.311,189.397ZM141.627,191.063C145.234,196.267 145.459,201.469 141.649,206.673C141.173,207.324 141.313,208.239 141.965,208.717C142.616,209.193 143.532,209.052 144.009,208.4C148.647,202.066 148.422,195.731 144.031,189.397C143.571,188.734 142.659,188.569 141.996,189.029C141.332,189.489 141.168,190.4 141.627,191.063ZM97.103,196.773C97.109,196.784 97.114,196.795 97.12,196.806L101.893,206.352C102.173,206.913 102.766,207.215 103.356,207.153C103.945,207.215 104.538,206.913 104.818,206.352L111.479,193.032C111.84,192.31 111.547,191.431 110.825,191.07C110.103,190.709 109.223,191.002 108.862,191.724L107.387,194.674L99.324,194.674L97.849,191.724C97.488,191.002 96.609,190.709 95.887,191.07C95.165,191.431 94.872,192.31 95.233,193.032L97.103,196.773ZM100.787,197.599L103.356,202.737L105.925,197.599L100.787,197.599ZM88.392,188.716L85.136,191.972C84.566,192.542 84.566,193.469 85.136,194.04C85.708,194.611 86.634,194.611 87.205,194.04L90.461,190.784C91.032,190.214 91.032,189.286 90.461,188.716C89.89,188.145 88.964,188.145 88.392,188.716ZM116.88,190.784L120.136,194.04C120.708,194.611 121.634,194.611 122.205,194.04C122.776,193.469 122.776,192.542 122.205,191.972L118.949,188.716C118.378,188.145 117.452,188.145 116.88,188.716C116.31,189.286 116.31,190.214 116.88,190.784ZM120.3,181.999L100.8,181.999C99.993,181.999 99.337,182.655 99.337,183.462C99.337,184.268 99.993,184.924 100.8,184.924L120.3,184.924C121.106,184.924 121.762,184.268 121.762,183.462C121.762,182.655 121.106,181.999 120.3,181.999ZM132.94,164.869C132.73,164.868 132.516,164.914 132.314,165.01C132.162,165.081 132.029,165.176 131.916,165.287L131.895,165.307C131.784,165.42 131.69,165.554 131.618,165.705L124.201,181.363C123.856,182.093 124.167,182.965 124.897,183.311C125.626,183.656 126.499,183.345 126.845,182.615L132.94,169.748L139.035,182.615C139.381,183.345 140.253,183.656 140.983,183.311C141.712,182.965 142.024,182.093 141.678,181.363L134.261,165.705C134.19,165.554 134.095,165.42 133.984,165.307L133.964,165.287C133.851,165.176 133.717,165.081 133.566,165.01C133.363,164.914 133.15,164.868 132.94,164.869ZM88.438,164.869C88.228,164.868 88.014,164.914 87.812,165.01C87.661,165.081 87.527,165.176 87.414,165.287L87.394,165.307C87.283,165.42 87.188,165.554 87.116,165.705L79.699,181.363C79.354,182.093 79.666,182.965 80.395,183.311C81.125,183.656 81.997,183.345 82.343,182.615L88.438,169.748L94.533,182.615C94.879,183.345 95.752,183.656 96.481,183.311C97.211,182.965 97.522,182.093 97.177,181.363L89.76,165.705C89.688,165.554 89.594,165.42 89.483,165.307L89.462,165.287C89.349,165.176 89.216,165.081 89.064,165.01C88.862,164.914 88.648,164.868 88.438,164.869Z"/>
    </g>
</svg>
