<?xml version="1.0" encoding="UTF-8" standalone="no"?>
<!DOCTYPE svg PUBLIC "-//W3C//DTD SVG 1.1//EN" "http://www.w3.org/Graphics/SVG/1.1/DTD/svg11.dtd">
<svg width="68px" height="37px" version="1.1" xmlns="http://www.w3.org/2000/svg" xmlns:xlink="http://www.w3.org/1999/xlink" xml:space="preserve" xmlns:serif="http://www.serif.com/" style="fill-rule:evenodd;clip-rule:evenodd;stroke-linejoin:round;stroke-miterlimit:2;">
    <g transform="matrix(-0.610136,0,0,0.428086,313.781,-180.039)">
        <path d="M411.145,456.65C409.795,455.941 408.125,455.829 406.978,455.142C405.624,454.331 404.692,452.528 404.548,450.445C404.405,448.362 405.093,445.125 406.309,443.954C406.311,443.952 406.313,443.95 406.315,443.949C409.241,441.136 412.111,444.328 416.013,445.864L419.986,446.097L428.549,446.097C430.778,446.051 433.462,446.07 435.858,447.922C437.359,445.172 438.752,443.421 441.08,440.774C441.297,440.958 447.383,435.344 457.526,427.324C464.169,422.072 474.969,422.598 486.851,423.56C486.851,423.56 495.286,426.366 497.96,427.94C500.076,429.187 501.099,433.521 501.099,433.521C509.845,451.741 513.578,462.896 512,481C512,481 512.692,488.393 510.101,491.962C507.14,496.042 508.294,494.538 508.294,494.538C505.411,498.214 503.693,499.004 500.39,501.48C500.439,501.339 463.199,501.39 462.018,501.48C461.113,501.55 459.548,502.314 458.754,503.252C458.701,503.315 458.607,503.3 458.545,503.313C454.391,504.205 451.697,502.559 450.9,497.466C448.301,498.264 438.007,497.971 434.596,497.466C432.897,497.214 431.625,494.941 430.431,494.436C429.51,494.046 428.732,494.587 428.167,493.899C425.951,491.202 424.465,484.515 424.465,484.515L422.548,484.515L414.12,481.262C412.064,481.065 410.54,480.287 409.18,479.471C407.567,478.503 406.457,476.353 406.286,473.872C406.115,471.39 406.911,468.974 408.36,467.576C408.361,467.576 408.362,467.575 408.362,467.574C411.837,464.225 415.134,470.963 419.878,469.856C422.941,469.141 424.986,467.775 426.862,466.382C427.396,465.978 427.679,465.119 427.555,464.275C427.432,463.431 426.933,462.805 426.33,462.738C421.059,461.953 416.157,459.284 411.145,456.65Z" style="fill:white;"/>
    </g>
    <g transform="matrix(0.610136,0,0,0.610136,-33.6392,-97.0663)">
        <path d="M115.125,216.034L110.87,216.034C110.257,216.034 109.759,216.532 109.759,217.146C109.759,217.759 110.257,218.257 110.87,218.257L115.125,218.257C115.739,218.257 116.237,217.759 116.237,217.146C116.237,216.532 115.739,216.034 115.125,216.034ZM107.397,214.748L100.767,214.748C100.154,214.748 99.655,215.246 99.655,215.86C99.655,216.473 100.154,216.972 100.767,216.972L107.397,216.972C108.011,216.972 108.509,216.473 108.509,215.86C108.509,215.246 108.011,214.748 107.397,214.748ZM98.314,214.748L91.684,214.748C91.071,214.748 90.572,215.246 90.572,215.86C90.572,216.473 91.071,216.972 91.684,216.972L98.314,216.972C98.928,216.972 99.426,216.473 99.426,215.86C99.426,215.246 98.928,214.748 98.314,214.748ZM89.086,214.748L82.456,214.748C81.843,214.748 81.344,215.246 81.344,215.86C81.344,216.473 81.843,216.972 82.456,216.972L89.086,216.972C89.7,216.972 90.198,216.473 90.198,215.86C90.198,215.246 89.7,214.748 89.086,214.748ZM78.699,214.749L69.025,214.749C68.412,214.749 67.914,215.246 67.914,215.86C67.914,216.473 68.412,216.971 69.025,216.971L78.699,216.971C79.312,216.971 79.81,216.473 79.81,215.86C79.81,215.246 79.312,214.749 78.699,214.749ZM121.481,210.043L121.481,213.043C121.481,213.656 121.978,214.153 122.591,214.153C123.204,214.153 123.701,213.656 123.701,213.043L123.701,210.043C123.701,209.43 123.204,208.933 122.591,208.933C121.978,208.933 121.481,209.43 121.481,210.043ZM129.633,210.043L129.633,213.043C129.633,213.656 130.13,214.153 130.743,214.153C131.356,214.153 131.853,213.656 131.853,213.043L131.853,210.043C131.853,209.43 131.356,208.933 130.743,208.933C130.13,208.933 129.633,209.43 129.633,210.043ZM133.709,210.043L133.709,213.043C133.709,213.656 134.206,214.153 134.819,214.153C135.432,214.153 135.929,213.656 135.929,213.043L135.929,210.043C135.929,209.43 135.432,208.933 134.819,208.933C134.206,208.933 133.709,209.43 133.709,210.043ZM125.557,210.043L125.557,213.043C125.557,213.656 126.054,214.153 126.667,214.153C127.28,214.153 127.777,213.656 127.777,213.043L127.777,210.043C127.777,209.43 127.28,208.933 126.667,208.933C126.054,208.933 125.557,209.43 125.557,210.043ZM63.913,210.043L63.913,213.043C63.913,213.656 64.41,214.153 65.023,214.153C65.636,214.153 66.133,213.656 66.133,213.043L66.133,210.043C66.133,209.43 65.636,208.933 65.023,208.933C64.41,208.933 63.913,209.43 63.913,210.043ZM117.405,210.043L117.405,213.043C117.405,213.656 117.902,214.153 118.515,214.153C119.128,214.153 119.625,213.656 119.625,213.043L119.625,210.043C119.625,209.43 119.128,208.933 118.515,208.933C117.902,208.933 117.405,209.43 117.405,210.043ZM56.443,208.078L60.237,211.873C60.725,212.36 61.517,212.36 62.005,211.873C62.493,211.385 62.493,210.593 62.005,210.105L58.21,206.311C57.722,205.823 56.93,205.823 56.443,206.311C55.955,206.798 55.955,207.59 56.443,208.078ZM139.625,207.78L138.239,210.543C138.033,210.954 138.2,211.455 138.611,211.662C139.022,211.868 139.524,211.701 139.73,211.29L141.116,208.527C141.322,208.116 141.155,207.614 140.744,207.408C140.333,207.202 139.831,207.368 139.625,207.78ZM142.625,207.78L141.239,210.543C141.033,210.954 141.2,211.455 141.611,211.662C142.022,211.868 142.524,211.701 142.73,211.29L144.116,208.527C144.322,208.116 144.155,207.614 143.744,207.408C143.333,207.202 142.831,207.368 142.625,207.78ZM146.866,202.844L142.611,202.844C141.998,202.844 141.5,203.342 141.5,203.956C141.5,204.569 141.998,205.067 142.611,205.067L146.866,205.067C147.48,205.067 147.978,204.569 147.978,203.956C147.978,203.342 147.48,202.844 146.866,202.844ZM160.274,193.216L160.286,193.223L160.278,193.221C161.305,193.916 161.87,195.118 161.748,196.352L161.748,196.353C161.627,197.587 160.84,198.657 159.697,199.139C158.458,199.66 157.074,200.164 155.202,200.289C154.438,200.341 153.86,201.003 153.911,201.766C153.962,202.53 154.624,203.109 155.388,203.058C157.629,202.907 159.29,202.32 160.773,201.697C160.773,201.696 160.774,201.696 160.774,201.696C162.855,200.819 164.289,198.872 164.509,196.624C164.731,194.378 163.704,192.191 161.836,190.925L161.83,190.921C159.712,189.489 157.622,189.524 155.348,190.174C153.485,190.707 151.479,191.694 149.167,192.334C148.429,192.538 147.996,193.303 148.2,194.041C148.405,194.779 149.17,195.212 149.908,195.008C152.228,194.365 154.242,193.376 156.111,192.842C157.568,192.425 158.919,192.301 160.276,193.219L160.274,193.216ZM56.305,189.563L56.305,201.49C56.305,202.103 56.802,202.6 57.415,202.6C58.028,202.6 58.525,202.103 58.525,201.49L58.525,189.563C58.525,188.95 58.028,188.453 57.415,188.453C56.802,188.453 56.305,188.95 56.305,189.563ZM95.053,192.735L101.048,192.735C102.863,192.735 104.334,194.207 104.334,196.022L104.334,196.024C104.334,196.796 104.027,197.537 103.481,198.084C102.935,198.63 102.194,198.937 101.422,198.937L95.053,198.937C94.286,198.937 93.663,199.559 93.663,200.326C93.663,201.093 94.286,201.715 95.053,201.715L101.422,201.715C102.931,201.715 104.379,201.116 105.446,200.048C106.513,198.981 107.113,197.533 107.113,196.024L107.113,196.022C107.113,192.672 104.398,189.956 101.048,189.956L95.053,189.956C94.286,189.956 93.663,190.579 93.663,191.346C93.663,192.112 94.286,192.735 95.053,192.735ZM127.284,192.456C128.903,190.84 130.73,189.954 132.586,189.931C134.433,189.908 136.28,190.745 137.947,192.447C138.376,192.886 139.08,192.893 139.519,192.464C139.957,192.034 139.965,191.33 139.535,190.892C137.376,188.687 134.951,187.677 132.558,187.708C130.174,187.738 127.793,188.806 125.713,190.883C125.279,191.316 125.279,192.021 125.712,192.455C126.146,192.889 126.85,192.89 127.284,192.456ZM162.438,191.993L162.44,192.07C162.44,192.045 162.44,192.019 162.438,191.993ZM162.417,191.815L162.428,191.891C162.425,191.866 162.421,191.84 162.417,191.815ZM162.315,191.495L162.279,191.421C162.318,191.494 162.349,191.57 162.374,191.646L162.315,191.495ZM161.139,190.687C161.125,190.686 161.111,190.686 161.097,190.685C161.083,190.685 161.069,190.684 161.055,190.684L161.139,190.687ZM75.03,180.405C75.568,181.416 75.507,182.376 74.727,183.275C74.326,183.738 74.376,184.44 74.839,184.842C75.302,185.243 76.004,185.194 76.406,184.73C77.865,183.047 77.997,181.252 76.991,179.362C76.703,178.82 76.03,178.615 75.489,178.903C74.948,179.191 74.742,179.864 75.03,180.405ZM162.32,176.644L162.327,176.65C163.121,177.186 163.557,178.114 163.463,179.067L163.463,179.068C163.37,180.021 162.762,180.846 161.879,181.217C160.854,181.648 159.708,182.066 158.158,182.169C157.393,182.22 156.813,182.884 156.864,183.649C156.915,184.415 157.578,184.995 158.344,184.944C160.263,184.815 161.687,184.314 162.956,183.781L162.956,183.78C164.781,183.013 166.038,181.308 166.231,179.339C166.424,177.373 165.526,175.459 163.891,174.351L163.878,174.341C162.034,173.098 160.215,173.121 158.236,173.685C156.668,174.132 154.978,174.96 153.032,175.498C152.292,175.702 151.858,176.468 152.062,177.208C152.266,177.947 153.032,178.382 153.772,178.178C155.727,177.638 157.423,176.808 158.998,176.359C160.16,176.028 161.238,175.917 162.32,176.644ZM67.594,167.221L58.359,182.7C58.045,183.227 58.218,183.909 58.744,184.223C59.271,184.537 59.953,184.365 60.267,183.838L69.501,168.359C69.815,167.832 69.643,167.15 69.117,166.836C68.59,166.522 67.908,166.694 67.594,167.221ZM92.599,181.131C91.831,181.108 91.115,180.809 90.466,180.203C90.46,180.196 90.453,180.19 90.446,180.184C90.271,180.032 90.066,179.978 89.871,180.011C89.579,179.961 89.276,180.112 89.09,180.438C88.825,180.899 88.889,181.549 89.234,181.91L89.375,182.036C90.338,182.84 91.37,183.231 92.472,183.231C92.512,183.231 92.552,183.231 92.592,183.23C92.626,183.231 92.66,183.231 92.694,183.231C94.018,183.231 95.003,182.826 95.667,182.103C96.371,181.336 96.756,180.2 96.756,178.661C96.756,177.747 96.567,176.983 96.209,176.361C95.994,175.985 95.712,175.656 95.36,175.383C96.15,174.664 96.561,173.648 96.561,172.457C96.561,170.348 95.265,168.893 93.019,168.893C92.982,168.893 92.945,168.893 92.909,168.894C92.872,168.893 92.834,168.893 92.797,168.893C91.695,168.893 90.678,169.252 89.728,170.012C89.607,170.108 89.511,170.243 89.446,170.399C89.264,170.745 89.262,171.212 89.461,171.565C89.637,171.879 89.929,172.027 90.21,171.975C90.381,172.006 90.561,171.965 90.72,171.845C90.722,171.844 90.723,171.843 90.724,171.842C91.421,171.307 92.147,171.017 92.914,170.993C93.974,171.024 94.712,171.47 94.712,172.457C94.712,173.026 94.47,173.471 94.065,173.789C93.521,174.215 92.73,174.425 91.757,174.425C91.757,174.425 91.38,174.428 91.233,174.438C90.835,174.452 90.499,174.852 90.459,175.375C90.418,175.907 90.697,176.392 91.103,176.497C91.16,176.515 91.219,176.524 91.279,176.524L91.757,176.524C92.673,176.524 93.406,176.655 93.955,176.943C94.582,177.272 94.907,177.837 94.907,178.661C94.907,179.32 94.804,179.857 94.558,180.253C94.181,180.861 93.517,181.11 92.599,181.131ZM56.391,180.281C57.085,180.281 57.648,180.844 57.648,181.538C57.648,182.232 57.085,182.795 56.391,182.795C55.697,182.795 55.134,182.232 55.134,181.538C55.134,180.844 55.697,180.281 56.391,180.281ZM127.468,174.352C129.714,176.144 132.345,178.86 133.793,180.721C134.264,181.326 135.137,181.435 135.742,180.965C136.347,180.494 136.456,179.621 135.985,179.016C134.431,177.019 131.61,174.104 129.2,172.181C128.601,171.703 127.727,171.802 127.249,172.401C126.771,173 126.869,173.874 127.468,174.352ZM149.429,175.89L140.867,175.89C140.253,175.89 139.756,176.388 139.756,177.001C139.756,177.614 140.253,178.112 140.867,178.112L149.429,178.112C150.042,178.112 150.54,177.614 150.54,177.001C150.54,176.388 150.042,175.89 149.429,175.89ZM78.908,169.82C79.425,170.839 79.344,171.798 78.546,172.685C78.135,173.141 78.172,173.844 78.628,174.255C79.084,174.665 79.787,174.628 80.198,174.172C81.691,172.512 81.858,170.72 80.89,168.814C80.612,168.267 79.943,168.049 79.396,168.326C78.849,168.604 78.631,169.273 78.908,169.82ZM117.075,167.77L120.87,171.565C121.358,172.052 122.15,172.052 122.637,171.565C123.125,171.077 123.125,170.285 122.637,169.797L118.843,166.003C118.355,165.515 117.563,165.515 117.075,166.003C116.587,166.49 116.587,167.282 117.075,167.77ZM113.262,163.15L109.007,163.15C108.394,163.15 107.896,163.648 107.896,164.262C107.896,164.875 108.394,165.373 109.007,165.373L113.262,165.373C113.876,165.373 114.374,164.875 114.374,164.262C114.374,163.648 113.876,163.15 113.262,163.15ZM77.363,161.189L77.363,164.189C77.363,164.802 77.86,165.299 78.473,165.299C79.086,165.299 79.583,164.802 79.583,164.189L79.583,161.189C79.583,160.576 79.086,160.079 78.473,160.079C77.86,160.079 77.363,160.576 77.363,161.189ZM100.24,161.189L100.24,164.189C100.24,164.802 100.737,165.299 101.35,165.299C101.963,165.299 102.46,164.802 102.46,164.189L102.46,161.189C102.46,160.576 101.963,160.079 101.35,160.079C100.737,160.079 100.24,160.576 100.24,161.189ZM81.454,161.189L81.454,164.189C81.454,164.802 81.951,165.299 82.564,165.299C83.177,165.299 83.674,164.802 83.674,164.189L83.674,161.189C83.674,160.576 83.177,160.079 82.564,160.079C81.951,160.079 81.454,160.576 81.454,161.189ZM95.991,161.189L95.991,164.189C95.991,164.802 96.488,165.299 97.101,165.299C97.714,165.299 98.211,164.802 98.211,164.189L98.211,161.189C98.211,160.576 97.714,160.079 97.101,160.079C96.488,160.079 95.991,160.576 95.991,161.189ZM91.741,161.189L91.741,164.189C91.741,164.802 92.238,165.299 92.851,165.299C93.464,165.299 93.961,164.802 93.961,164.189L93.961,161.189C93.961,160.576 93.464,160.079 92.851,160.079C92.238,160.079 91.741,160.576 91.741,161.189ZM104.49,161.189L104.49,164.189C104.49,164.802 104.987,165.299 105.6,165.299C106.213,165.299 106.71,164.802 106.71,164.189L106.71,161.189C106.71,160.576 106.213,160.079 105.6,160.079C104.987,160.079 104.49,160.576 104.49,161.189ZM75.122,162.841L70.867,162.841C70.253,162.841 69.755,163.339 69.755,163.953C69.755,164.566 70.253,165.064 70.867,165.064L75.122,165.064C75.735,165.064 76.233,164.566 76.233,163.953C76.233,163.339 75.735,162.841 75.122,162.841ZM86.29,159.899C86.984,159.899 87.547,160.462 87.547,161.156C87.547,161.85 86.984,162.413 86.29,162.413C85.596,162.413 85.033,161.85 85.033,161.156C85.033,160.462 85.596,159.899 86.29,159.899ZM89.455,159.899C90.149,159.899 90.712,160.462 90.712,161.156C90.712,161.85 90.149,162.413 89.455,162.413C88.761,162.413 88.198,161.85 88.198,161.156C88.198,160.462 88.761,159.899 89.455,159.899Z"/>
    </g>
</svg>
