<?xml version="1.0" encoding="UTF-8" standalone="no"?>
<!DOCTYPE svg PUBLIC "-//W3C//DTD SVG 1.1//EN" "http://www.w3.org/Graphics/SVG/1.1/DTD/svg11.dtd">
<svg width="43px" height="66px" version="1.1" xmlns="http://www.w3.org/2000/svg" xmlns:xlink="http://www.w3.org/1999/xlink" xml:space="preserve" xmlns:serif="http://www.serif.com/" style="fill-rule:evenodd;clip-rule:evenodd;stroke-linejoin:round;stroke-miterlimit:2;">
    <g transform="matrix(0.616626,0,0,0.616626,-46.3789,-68.9032)">
        <path d="M83.931,165.965C84.436,165.575 84.755,164.991 84.81,164.355C84.865,163.719 84.652,163.089 84.222,162.617C81.169,159.251 79.523,155.344 79.523,151.324C79.523,139.321 93.88,130.349 111.621,130.349C129.361,130.349 143.81,139.321 143.81,151.324C143.81,155.483 140.46,162.657 134.906,165.339C129.533,167.934 120.781,169.391 112.092,169.049C114.654,172.208 116.178,176.163 116.178,180.453C116.178,190.788 107.332,199.179 96.435,199.179C85.538,199.179 76.692,190.788 76.692,180.453C76.692,174.617 79.513,169.401 83.931,165.965ZM90.133,114.217C90.35,114.028 90.644,113.956 90.924,114.021C91.203,114.087 91.434,114.283 91.544,114.549C93.634,119.592 96.375,123.127 99.654,125.417C99.884,125.568 99.99,125.85 99.917,126.116C99.843,126.381 99.607,126.568 99.332,126.579C96.081,126.685 94.484,127.015 91.819,128.695C90.64,129.344 89.165,129.05 88.326,127.999C85.022,123.825 86.068,117.856 90.133,114.217Z" style="fill:white;"/>
    </g>
    <g transform="matrix(0.616626,0,0,0.616626,-46.3789,-68.9032)">
        <path d="M113.573,218.451L113.683,218.451C113.991,218.445 114.254,218.341 114.472,218.144C114.708,217.93 114.824,217.67 114.824,217.364L114.824,211.205C114.824,209.304 114.403,207.918 113.597,207.038C112.782,206.149 111.547,205.689 109.882,205.689L109.88,205.689C108.091,205.703 106.605,206.31 105.422,207.509L105.422,201.718C105.422,201.392 105.301,201.128 105.065,200.924C104.841,200.731 104.571,200.631 104.251,200.631L104.177,200.631C103.833,200.631 103.555,200.739 103.34,200.944C103.117,201.156 103.006,201.415 103.006,201.718L103.006,217.364C103.006,217.691 103.126,217.955 103.362,218.159C103.586,218.352 103.857,218.452 104.177,218.452L104.281,218.451C104.589,218.445 104.852,218.341 105.07,218.144C105.306,217.93 105.422,217.67 105.422,217.364L105.422,211.655C105.422,210.602 105.807,209.674 106.573,208.867C107.336,208.065 108.239,207.661 109.287,207.661C110.427,207.661 111.244,207.905 111.722,208.435C112.211,208.976 112.432,209.948 112.432,211.34L112.432,217.364C112.432,217.691 112.553,217.955 112.789,218.159C113.006,218.346 113.267,218.445 113.573,218.451ZM97.525,218.451L97.634,218.451C97.943,218.445 98.205,218.341 98.424,218.144C98.659,217.93 98.775,217.67 98.775,217.364L98.775,211.205C98.775,209.304 98.355,207.918 97.549,207.038C96.734,206.149 95.499,205.689 93.834,205.689L93.832,205.689C92.043,205.703 90.557,206.31 89.373,207.509L89.373,201.718C89.373,201.392 89.253,201.128 89.017,200.924C88.793,200.731 88.522,200.631 88.203,200.631L88.128,200.631C87.784,200.631 87.507,200.739 87.292,200.944C87.068,201.156 86.957,201.415 86.957,201.718L86.957,217.364C86.957,217.691 87.078,217.955 87.314,218.159C87.538,218.352 87.809,218.452 88.128,218.452L88.233,218.451C88.541,218.445 88.804,218.341 89.022,218.144C89.258,217.93 89.373,217.67 89.373,217.364L89.373,211.655C89.373,210.602 89.759,209.674 90.525,208.867C91.287,208.065 92.191,207.661 93.238,207.661C94.379,207.661 95.195,207.905 95.674,208.435C96.163,208.976 96.384,209.948 96.384,211.34L96.384,217.364C96.384,217.691 96.504,217.955 96.741,218.159C96.957,218.346 97.218,218.445 97.525,218.451ZM79.175,169.418C74.028,176.843 73.755,184.269 79.192,191.694C79.55,192.184 80.239,192.29 80.729,191.932C81.219,191.573 81.325,190.884 80.967,190.394C76.153,183.82 76.426,177.245 80.983,170.671C81.329,170.172 81.205,169.486 80.706,169.14C80.207,168.794 79.521,168.919 79.175,169.418ZM111.172,170.671C115.729,177.245 116.002,183.82 111.188,190.394C110.83,190.884 110.936,191.573 111.426,191.932C111.916,192.29 112.605,192.184 112.963,191.694C118.4,184.269 118.127,176.843 112.98,169.418C112.634,168.919 111.948,168.794 111.449,169.14C110.95,169.486 110.826,170.172 111.172,170.671ZM94.734,171.844C94.175,179.65 91.976,184.305 85.54,188.227C85.022,188.543 84.857,189.22 85.173,189.739C85.489,190.257 86.166,190.421 86.685,190.106C93.811,185.763 96.31,180.644 96.928,172.001C96.971,171.395 96.515,170.868 95.909,170.825C95.304,170.782 94.777,171.238 94.734,171.844ZM82.319,140.225C77.172,147.651 76.899,155.076 82.335,162.502C82.694,162.992 83.383,163.098 83.873,162.739C84.363,162.381 84.469,161.692 84.111,161.202C79.297,154.628 79.57,148.053 84.127,141.479C84.473,140.98 84.349,140.294 83.85,139.948C83.351,139.602 82.665,139.726 82.319,140.225ZM139.017,141.479C143.574,148.053 143.847,154.628 139.033,161.202C138.675,161.692 138.781,162.381 139.271,162.739C139.761,163.098 140.45,162.992 140.808,162.502C146.245,155.076 145.972,147.651 140.825,140.225C140.479,139.726 139.793,139.602 139.294,139.948C138.795,140.294 138.671,140.98 139.017,141.479ZM111.917,156.012L110.365,159.91C110.139,160.48 109.492,160.758 108.922,160.532C108.352,160.305 108.074,159.658 108.301,159.088L114.786,142.794C114.949,142.383 115.339,142.11 115.778,142.094L115.779,142.094C116.217,142.11 116.607,142.383 116.771,142.794L123.256,159.088C123.482,159.658 123.204,160.305 122.634,160.532C122.064,160.758 121.418,160.48 121.191,159.91L119.64,156.012L111.917,156.012ZM115.778,146.31L112.801,153.79L118.755,153.79L115.778,146.31ZM100.429,148.717C101.708,148.717 102.747,149.755 102.747,151.034C102.747,152.313 101.708,153.352 100.429,153.352C99.15,153.352 98.112,152.313 98.112,151.034C98.112,149.755 99.15,148.717 100.429,148.717ZM129.668,148.717C130.948,148.717 131.986,149.755 131.986,151.034C131.986,152.313 130.948,153.352 129.668,153.352C128.389,153.352 127.351,152.313 127.351,151.034C127.351,149.755 128.389,148.717 129.668,148.717ZM90.298,114.075C91.391,118.532 93.821,122.505 97.867,125.556C95.531,125.872 93.134,126.533 91.016,127.262C90.436,127.461 90.127,128.094 90.326,128.674C90.526,129.254 91.159,129.563 91.738,129.363C94.706,128.343 98.262,127.432 101.313,127.602C101.832,127.631 102.301,127.296 102.443,126.797C102.586,126.297 102.363,125.766 101.907,125.517C96.662,122.653 93.654,118.43 92.456,113.546C92.31,112.95 91.708,112.585 91.112,112.731C90.517,112.877 90.152,113.48 90.298,114.075ZM95.685,116.68L97.904,118.444C98.384,118.825 99.083,118.745 99.465,118.265C99.846,117.785 99.766,117.086 99.286,116.704L97.067,114.941C96.587,114.559 95.888,114.639 95.506,115.119C95.124,115.599 95.205,116.299 95.685,116.68ZM98.685,114.68L100.904,116.444C101.384,116.825 102.083,116.745 102.465,116.265C102.846,115.785 102.766,115.086 102.286,114.704L100.067,112.941C99.587,112.559 98.888,112.639 98.506,113.119C98.124,113.599 98.205,114.299 98.685,114.68Z"/>
    </g>
</svg>
