<?xml version="1.0" encoding="UTF-8" standalone="no"?>
<!DOCTYPE svg PUBLIC "-//W3C//DTD SVG 1.1//EN" "http://www.w3.org/Graphics/SVG/1.1/DTD/svg11.dtd">
<svg width="47px" height="103px" version="1.1" xmlns="http://www.w3.org/2000/svg" xmlns:xlink="http://www.w3.org/1999/xlink" xml:space="preserve" xmlns:serif="http://www.serif.com/" style="fill-rule:evenodd;clip-rule:evenodd;stroke-linejoin:round;stroke-miterlimit:2;">
    <g transform="matrix(-0.426275,0,0,0.426275,68.5422,13.4183)">
        <path d="M68.698,157.63C68.132,158.307 67.698,159.085 67.418,159.921C65.884,164.429 62.63,168.316 57.875,171.405C57.448,171.683 57.244,172.201 57.367,172.696C57.491,173.191 57.914,173.553 58.422,173.597C61.43,173.956 64.537,174.739 67.273,175.594C67.273,175.594 69.716,176.503 72.509,177.541C77.364,179.347 80.585,183.981 80.585,189.162L80.585,201.443C80.585,204.913 83.171,207.725 86.361,207.725L86.362,207.725C89.747,207.725 92.492,204.74 92.492,201.057L92.492,196.996C92.492,195.881 92.935,194.811 93.723,194.023C94.512,193.235 95.581,192.792 96.696,192.792L116.068,192.792C118.39,192.792 120.273,194.674 120.273,196.996L120.273,201.443C120.273,204.913 122.858,207.725 126.048,207.725L126.049,207.725C129.435,207.725 132.179,204.74 132.179,201.057L132.179,185.223C132.179,182.284 133.585,179.521 135.961,177.79C136.203,177.614 136.352,177.505 136.352,177.505C136.352,177.505 147.92,167.746 154.579,162.129C157.453,159.705 158.979,156.042 158.675,152.294C158.497,150.093 158.338,148.126 158.338,148.126L158.338,57.676C158.049,54.363 156.227,51.453 153.008,48.911L132.179,30.505L121.811,17.103C121.811,17.103 109.205,6.457 102,0.373C98.893,-2.251 97.1,-6.112 97.1,-10.179L97.1,-23.721L70.069,-23.721L70.069,-11.661C70.091,-9.382 72.426,-5.753 77.186,-0.709L88.371,16.695C84.283,27.141 84.777,32.171 85.105,37.397L85.105,46.303C85.105,47.995 84.501,49.631 83.402,50.917C81.284,53.48 79.155,56.822 77,61C72.148,68 71.875,75 77,82C78.318,86.348 78.075,90.269 75.507,93.557C70.654,100.557 70.381,107.557 75.507,114.557C76.624,115.781 77.922,117.005 79.748,118.229C81.655,119.547 82.794,121.717 82.794,124.036C82.843,128.672 82.843,136.233 82.843,140.684C82.843,142.903 81.807,144.994 80.041,146.338C75.874,149.56 72.248,153.381 68.698,157.63Z" style="fill:white;"/>
    </g>
    <g transform="matrix(0.605881,0,0,0.605881,-43.5972,-29.5977)">
        <path d="M96.442,216.1C98.116,216.076 99.421,214.552 99.421,212.726L99.421,206.639C99.421,206.062 99.889,205.593 100.466,205.593L100.52,205.595C101.072,205.623 101.512,206.08 101.512,206.639L101.512,212.726C101.512,215.72 99.271,218.115 96.533,218.189L96.458,218.19C96.447,218.191 96.436,218.191 96.426,218.191L96.403,218.191L96.411,218.191L96.402,218.191C93.467,218.191 91.044,215.646 91.044,212.454L91.044,206.639C91.044,206.062 91.512,205.593 92.089,205.593C92.666,205.593 93.135,206.062 93.135,206.639L93.135,212.454C93.135,214.444 94.571,216.099 96.4,216.1L96.442,216.1ZM124.356,216.1C126.034,216.081 127.343,214.555 127.343,212.726L127.343,206.639C127.343,206.062 127.812,205.593 128.389,205.593C128.966,205.593 129.434,206.062 129.434,206.639L129.434,212.726C129.434,215.72 127.193,218.115 124.456,218.189L124.364,218.19C124.352,218.191 124.34,218.191 124.328,218.191L124.325,218.191L124.326,218.191L124.324,218.191C121.39,218.191 118.966,215.646 118.966,212.454L118.966,206.639C118.966,206.062 119.435,205.593 120.012,205.593C120.589,205.593 121.057,206.062 121.057,206.639L121.057,212.454C121.057,214.435 122.48,216.084 124.297,216.1L124.356,216.1ZM110.226,202.849L108.329,206.633C108.07,207.148 108.279,207.776 108.794,208.034C109.308,208.292 109.936,208.084 110.194,207.569L112.092,203.785C112.35,203.27 112.142,202.643 111.627,202.384C111.112,202.126 110.485,202.335 110.226,202.849ZM106.117,202.849L104.22,206.633C103.961,207.148 104.17,207.776 104.685,208.034C105.199,208.292 105.827,208.084 106.085,207.569L107.983,203.785C108.241,203.27 108.033,202.643 107.518,202.384C107.003,202.126 106.376,202.335 106.117,202.849ZM112.184,198.774L130.397,198.774C130.974,198.774 131.442,198.306 131.442,197.729C131.442,197.152 130.974,196.684 130.397,196.684L112.184,196.684C111.607,196.684 111.139,197.152 111.139,197.729C111.139,198.306 111.607,198.774 112.184,198.774ZM92.339,198.295L96.565,198.295C97.141,198.295 97.609,197.827 97.609,197.25C97.609,196.674 97.141,196.206 96.565,196.206L92.339,196.206C91.763,196.206 91.295,196.674 91.295,197.25C91.295,197.827 91.763,198.295 92.339,198.295ZM132.707,193.431L132.707,196.843C132.707,197.536 133.27,198.098 133.962,198.098C134.655,198.098 135.218,197.536 135.218,196.843L135.218,193.431C135.218,192.738 134.655,192.176 133.962,192.176C133.27,192.176 132.707,192.738 132.707,193.431ZM72.365,183.227L88.412,196.763C88.897,197.172 89.623,197.11 90.032,196.625C90.442,196.14 90.38,195.414 89.895,195.005L73.848,181.469C73.363,181.06 72.637,181.121 72.227,181.606C71.818,182.092 71.88,182.818 72.365,183.227ZM136.646,182.788C137.612,186.365 139.694,189.578 143.136,192.096C141.174,192.381 139.188,192.888 137.413,193.443C136.807,193.632 136.47,194.277 136.659,194.882C136.848,195.487 137.492,195.825 138.097,195.636C140.808,194.789 144.048,194.033 146.837,194.174C147.381,194.202 147.869,193.844 148.007,193.317C148.144,192.791 147.893,192.24 147.406,191.998C142.667,189.648 139.946,186.196 138.864,182.189C138.699,181.577 138.067,181.215 137.455,181.38C136.843,181.545 136.481,182.176 136.646,182.788ZM99.559,186.739C102.328,188.638 105.57,191.515 107.355,193.487C107.78,193.957 108.507,193.993 108.977,193.568C109.447,193.143 109.483,192.416 109.058,191.946C107.18,189.871 103.771,186.843 100.858,184.846C100.336,184.487 99.62,184.62 99.262,185.143C98.903,185.666 99.037,186.381 99.559,186.739ZM72.432,156.972L72.432,175.213C72.432,175.905 72.993,176.467 73.685,176.467C74.377,176.467 74.938,175.905 74.938,175.213L74.938,156.972C74.938,156.28 74.377,155.719 73.685,155.719C72.993,155.719 72.432,156.28 72.432,156.972ZM97.942,172.273L97.942,164.134C97.942,163.521 97.444,163.022 96.831,163.022C96.217,163.022 95.719,163.521 95.719,164.134L95.719,172.273C95.719,172.887 96.217,173.385 96.831,173.385C97.444,173.385 97.942,172.887 97.942,172.273ZM127.772,172.273L127.772,164.134C127.772,163.521 127.274,163.022 126.661,163.022C126.047,163.022 125.549,163.521 125.549,164.134L125.549,172.273C125.549,172.887 126.047,173.385 126.661,173.385C127.274,173.385 127.772,172.887 127.772,172.273ZM97.943,160.3L97.943,159.644C97.943,159.031 97.445,158.533 96.832,158.533C96.219,158.533 95.721,159.031 95.721,159.644L95.721,160.3C95.721,160.914 96.219,161.412 96.832,161.412C97.445,161.412 97.943,160.914 97.943,160.3ZM127.773,160.3L127.773,159.644C127.773,159.031 127.275,158.533 126.662,158.533C126.049,158.533 125.551,159.031 125.551,159.644L125.551,160.3C125.551,160.914 126.049,161.412 126.662,161.412C127.275,161.412 127.773,160.914 127.773,160.3ZM72.432,134.784L72.432,153.025C72.432,153.717 72.993,154.279 73.685,154.279C74.377,154.279 74.938,153.717 74.938,153.025L74.938,134.784C74.938,134.092 74.377,133.531 73.685,133.531C72.993,133.531 72.432,134.092 72.432,134.784ZM125.989,134.657L125.989,152.898C125.989,153.59 126.55,154.151 127.242,154.151C127.934,154.151 128.495,153.59 128.495,152.898L128.495,134.657C128.495,133.965 127.934,133.403 127.242,133.403C126.55,133.403 125.989,133.965 125.989,134.657ZM82.041,136.225C78.347,141.554 78.155,146.883 82.057,152.212C82.397,152.678 83.052,152.779 83.517,152.438C83.982,152.098 84.083,151.443 83.743,150.978C80.433,146.457 80.625,141.936 83.758,137.416C84.087,136.942 83.969,136.29 83.495,135.962C83.021,135.633 82.37,135.751 82.041,136.225ZM131.103,137.416C134.236,141.936 134.428,146.457 131.118,150.978C130.778,151.443 130.879,152.098 131.344,152.438C131.809,152.779 132.464,152.678 132.804,152.212C136.706,146.883 136.514,141.554 132.82,136.225C132.492,135.751 131.84,135.633 131.366,135.962C130.892,136.29 130.774,136.942 131.103,137.416ZM98.782,150.629L98.782,142.49C98.782,141.876 98.284,141.378 97.671,141.378C97.057,141.378 96.559,141.876 96.559,142.49L96.559,150.629C96.559,151.242 97.057,151.74 97.671,151.74C98.284,151.74 98.782,151.242 98.782,150.629ZM92.325,137.088C91.397,142.133 89.921,145.44 86.417,148.959C85.969,149.408 85.97,150.137 86.42,150.584C86.87,151.032 87.598,151.031 88.046,150.581C91.91,146.702 93.563,143.067 94.587,137.504C94.701,136.88 94.288,136.28 93.664,136.165C93.04,136.05 92.44,136.464 92.325,137.088ZM98.783,138.656L98.783,137.999C98.783,137.386 98.285,136.888 97.672,136.888C97.059,136.888 96.561,137.386 96.561,137.999L96.561,138.656C96.561,139.269 97.059,139.767 97.672,139.767C98.285,139.767 98.783,139.269 98.783,138.656ZM72.432,111.576L72.432,129.817C72.432,130.509 72.993,131.071 73.685,131.071C74.377,131.071 74.938,130.509 74.938,129.817L74.938,111.576C74.938,110.884 74.377,110.323 73.685,110.323C72.993,110.323 72.432,110.884 72.432,111.576ZM120.756,130.638L120.84,130.638C121.108,130.633 121.336,130.539 121.525,130.361C121.727,130.17 121.828,129.938 121.828,129.665L121.828,126.732C121.828,126.464 121.73,126.23 121.53,126.033C121.334,125.839 121.095,125.741 120.814,125.741L120.174,125.741L120.174,114.268C120.174,113.995 120.074,113.763 119.872,113.572C119.676,113.388 119.44,113.294 119.161,113.294L112.217,113.294C111.934,113.294 111.7,113.391 111.511,113.577C111.319,113.767 111.223,113.997 111.223,114.268L111.223,114.872C111.223,116.726 111.211,118.132 111.185,119.089C111.159,120.045 111.123,120.922 111.078,121.72C111.035,122.484 110.945,123.077 110.802,123.497C110.66,123.918 110.505,124.284 110.337,124.594C110.174,124.897 109.925,125.279 109.593,125.741L109.339,125.742L109.339,125.741C109.058,125.741 108.82,125.838 108.623,126.033C108.423,126.23 108.326,126.464 108.326,126.732L108.326,129.665C108.326,129.938 108.426,130.17 108.628,130.361C108.824,130.545 109.06,130.638 109.339,130.638L109.424,130.638C109.691,130.633 109.919,130.539 110.108,130.361C110.311,130.17 110.411,129.938 110.411,129.665L110.411,127.632L119.742,127.632L119.742,129.665C119.742,129.938 119.842,130.17 120.045,130.361C120.24,130.545 120.477,130.638 120.756,130.638ZM130.053,114.51C133.186,119.031 133.378,123.552 130.068,128.072C129.728,128.538 129.829,129.192 130.294,129.533C130.759,129.873 131.414,129.772 131.754,129.307C135.656,123.978 135.464,118.649 131.77,113.32C131.442,112.846 130.79,112.728 130.316,113.056C129.842,113.385 129.724,114.036 130.053,114.51ZM91.78,113.32C88.086,118.649 87.894,123.978 91.796,129.307C92.136,129.772 92.791,129.873 93.256,129.533C93.721,129.192 93.822,128.538 93.482,128.072C90.172,123.552 90.364,119.031 93.497,114.51C93.826,114.036 93.708,113.385 93.234,113.056C92.76,112.728 92.108,112.846 91.78,113.32ZM112.163,125.741C112.73,124.749 113.071,123.769 113.19,122.802C113.318,121.759 113.384,119.22 113.386,115.186L117.953,115.186L117.953,125.741L112.163,125.741ZM125.397,111.758C123.973,111.758 122.81,112.927 122.81,114.374C122.81,115.822 123.973,116.991 125.397,116.991C126.82,116.991 127.983,115.822 127.983,114.374C127.983,112.927 126.82,111.758 125.397,111.758ZM103.044,111.758C101.62,111.758 100.457,112.927 100.457,114.374C100.457,115.822 101.62,116.991 103.044,116.991C104.467,116.991 105.63,115.822 105.63,114.374C105.63,112.927 104.467,111.758 103.044,111.758ZM125.397,113.422C125.91,113.422 126.32,113.852 126.32,114.374C126.32,114.896 125.91,115.327 125.397,115.327C124.884,115.327 124.474,114.896 124.474,114.374C124.474,113.852 124.884,113.422 125.397,113.422ZM103.044,113.422C103.557,113.422 103.967,113.852 103.967,114.374C103.967,114.896 103.557,115.327 103.044,115.327C102.531,115.327 102.121,114.896 102.121,114.374C102.121,113.852 102.531,113.422 103.044,113.422ZM126.312,105.448L126.312,97.309C126.312,96.695 125.814,96.197 125.201,96.197C124.587,96.197 124.089,96.695 124.089,97.309L124.089,105.448C124.089,106.062 124.587,106.56 125.201,106.56C125.814,106.56 126.312,106.062 126.312,105.448ZM92.74,90.995L76.693,104.531C76.208,104.94 76.146,105.666 76.556,106.151C76.965,106.636 77.691,106.698 78.176,106.289L94.223,92.753C94.708,92.344 94.77,91.618 94.361,91.132C93.951,90.647 93.225,90.586 92.74,90.995ZM115.612,92.257L107.742,104.502C107.399,105.035 107.554,105.746 108.087,106.089C108.621,106.432 109.332,106.277 109.674,105.744L117.544,93.499C117.887,92.966 117.732,92.255 117.199,91.912C116.666,91.569 115.954,91.724 115.612,92.257ZM126.313,93.475L126.313,92.819C126.313,92.205 125.815,91.707 125.202,91.707C124.589,91.707 124.091,92.205 124.091,92.819L124.091,93.475C124.091,94.088 124.589,94.586 125.202,94.586C125.815,94.586 126.313,94.088 126.313,93.475ZM114.69,68.616L98.643,82.152C98.158,82.561 98.096,83.287 98.505,83.772C98.914,84.257 99.641,84.319 100.126,83.91L116.173,70.374C116.658,69.965 116.719,69.239 116.31,68.753C115.901,68.268 115.175,68.207 114.69,68.616ZM129.814,69.878L121.944,82.123C121.602,82.656 121.756,83.367 122.289,83.71C122.823,84.053 123.534,83.898 123.877,83.365L131.746,71.12C132.089,70.587 131.934,69.876 131.401,69.533C130.868,69.19 130.157,69.345 129.814,69.878ZM117.405,55.18L135.021,55.18L135.021,62.916C135.021,63.141 135.108,63.339 135.287,63.507C135.46,63.669 135.671,63.752 135.921,63.752C136.172,63.752 136.379,63.672 136.543,63.518C136.71,63.36 136.798,63.154 136.798,62.895L136.798,54.155C136.798,53.89 136.705,53.661 136.517,53.466C136.328,53.271 136.092,53.173 135.809,53.173L116.617,53.173C116.334,53.173 116.098,53.271 115.909,53.466C115.721,53.661 115.628,53.89 115.628,54.155L115.628,62.895C115.628,63.135 115.712,63.337 115.879,63.503C116.043,63.667 116.255,63.752 116.516,63.752C116.776,63.752 116.986,63.671 117.15,63.518C117.317,63.36 117.405,63.154 117.405,62.895L117.405,55.18Z"/>
    </g>
</svg>
