<?xml version="1.0" encoding="UTF-8" standalone="no"?>
<!DOCTYPE svg PUBLIC "-//W3C//DTD SVG 1.1//EN" "http://www.w3.org/Graphics/SVG/1.1/DTD/svg11.dtd">
<svg width="47px" height="88px" version="1.1" xmlns="http://www.w3.org/2000/svg" xmlns:xlink="http://www.w3.org/1999/xlink" xml:space="preserve" xmlns:serif="http://www.serif.com/" style="fill-rule:evenodd;clip-rule:evenodd;stroke-linejoin:round;stroke-miterlimit:2;">
    <g transform="matrix(3.45381e-17,0.518636,0.541406,-3.03711e-17,-73.0007,24.8289)">
        <path d="M82.75,216.61C85.81,217.199 88.908,215.778 90.35,213.126C91.054,211.826 91.666,210.35 91.833,208.429C92.801,205.117 94.595,197.472 94.622,194.135C94.584,193.885 94.67,193.632 94.855,193.451C95.04,193.27 95.301,193.182 95.564,193.212C99.287,193.644 102.048,193.245 105.636,193.068C112.275,192.399 116.268,189.775 119.759,184.265C122.154,179.73 119.326,174.586 112.766,177.425C126.24,170.54 121.568,162.183 102.626,164.984C100.089,165.131 98.548,165.883 96.441,166.603C96.037,166.743 95.586,166.675 95.245,166.424C94.904,166.172 94.721,165.771 94.76,165.36C95.086,161.657 94.571,158.22 93.162,152.304C93.001,151.619 92.966,150.912 93.059,150.216C93.201,149.135 93.402,147.621 93.402,147.621C94.308,140.418 93.292,136.668 90.35,135.837C88.315,135.262 85.742,136.316 83.425,139.303C83.425,139.303 81.427,138.753 79.357,138.184C76.563,137.415 73.554,138.164 71.504,140.139C69.188,142.37 66.512,144.948 66.512,144.948L66.512,140.674C66.72,138.273 65.843,136.913 63.52,136.937L-13.467,136.937C-21.048,138.616 -28.059,143.022 -34.266,151.28L-37.464,154.345C-40.503,159.054 -42.648,163.55 -43.488,167.733L-43.488,189.751C-40.806,195.798 -37.395,201.768 -31.62,207.486C-29.01,211.213 -25.053,215.577 -22.342,217.981C-17.975,219.621 -13.823,220.438 -10.144,219.445C-2.071,218.68 2.784,216.405 7.027,210.112C8.025,208.773 14.157,209.008 20.686,209.365L34.139,209.365C38.92,208.862 43.94,208.646 49.923,209.582L63.52,212.355" style="fill:white;"/>
    </g>
    <g transform="matrix(0.613597,0,0,0.613448,-44.4956,-45.6999)">
        <path d="M110.204,209.771L110.147,209.75C109.907,209.659 109.667,209.667 109.427,209.779C109.193,209.888 109.025,210.068 108.925,210.322C108.925,210.323 108.924,210.323 108.924,210.324C108.27,212.015 107.474,213.302 106.526,214.178C105.613,215.022 104.62,215.45 103.541,215.45C102.923,215.45 102.424,215.384 102.046,215.245C101.692,215.114 101.381,214.866 101.107,214.508C100.817,214.129 100.619,213.587 100.498,212.888C100.369,212.141 100.305,211.181 100.305,210.007C100.305,207.805 100.362,205.156 100.476,202.059C100.491,201.801 100.409,201.57 100.223,201.367C100.041,201.169 99.832,201.065 99.602,201.043L99.466,201.023C99.198,201.004 98.963,201.097 98.767,201.311C98.591,201.502 98.495,201.728 98.479,201.989L98.479,201.997C98.364,205.154 98.307,207.824 98.307,210.007C98.307,212.799 98.697,214.721 99.435,215.783C100.199,216.882 101.56,217.459 103.541,217.459C105.093,217.459 106.489,216.908 107.727,215.8C108.937,214.719 109.94,213.132 110.727,211.033C110.727,211.031 110.728,211.029 110.729,211.027C110.81,210.797 110.809,210.559 110.719,210.312C110.623,210.045 110.449,209.867 110.204,209.771ZM122.303,204.171C121.752,209.411 120.127,212.574 115.588,215.328C115.096,215.627 114.939,216.269 115.238,216.761C115.536,217.253 116.178,217.41 116.67,217.111C121.855,213.965 123.748,210.375 124.377,204.389C124.438,203.817 124.022,203.303 123.449,203.243C122.877,203.182 122.363,203.598 122.303,204.171ZM112.021,203.974L112.021,206.335C112.021,206.969 112.536,207.484 113.17,207.484C113.804,207.484 114.319,206.969 114.319,206.335L114.319,203.974C114.319,203.34 113.804,202.825 113.17,202.825C112.536,202.825 112.021,203.34 112.021,203.974ZM113.509,192.4L113.509,194.761C113.509,195.395 114.024,195.91 114.658,195.91C115.293,195.91 115.807,195.395 115.807,194.761L115.807,192.4C115.807,191.766 115.293,191.251 114.658,191.251C114.024,191.251 113.509,191.766 113.509,192.4ZM75.222,178.038L75.101,178.057C75.101,178.057 74.656,178.237 74.505,178.499C74.374,178.728 74.325,178.966 74.354,179.212C74.355,179.215 74.355,179.218 74.356,179.222C74.704,181.527 75.058,183.529 75.418,185.229C73.471,186.641 72.516,188.249 72.516,190.027C72.516,191.589 73.088,192.777 74.217,193.6C75.309,194.394 76.899,194.805 78.993,194.805C80.413,194.805 81.94,194.682 83.575,194.436C83.583,194.434 83.59,194.433 83.598,194.431C83.849,194.374 84.045,194.241 84.187,194.032C84.32,193.836 84.383,193.606 84.368,193.339C84.352,193.053 84.238,192.825 84.033,192.654C83.814,192.471 83.583,192.41 83.348,192.451C81.848,192.678 80.394,192.793 78.993,192.793C75.998,192.793 74.452,191.897 74.452,189.95C74.452,188.828 75.197,187.781 76.634,186.772C78.157,185.703 80.453,184.73 83.52,183.844C83.523,183.843 83.526,183.842 83.529,183.841C83.766,183.765 83.95,183.61 84.077,183.372C84.195,183.15 84.233,182.91 84.189,182.653C84.143,182.385 84.017,182.174 83.818,182.017C83.588,181.836 83.347,181.795 83.099,181.878C80.724,182.557 78.754,183.312 77.188,184.139C76.825,182.393 76.513,180.647 76.253,178.901C76.221,178.628 76.107,178.41 75.917,178.246C75.707,178.063 75.474,177.998 75.222,178.038ZM90.656,185.344C91.236,183.638 91.927,181.634 92.73,179.333C92.731,179.329 92.733,179.325 92.734,179.32C92.809,179.073 92.802,178.839 92.72,178.618C92.63,178.378 92.468,178.205 92.233,178.1C91.983,177.988 91.734,178 91.484,178.142C91.264,178.268 91.107,178.455 91.016,178.706C91.015,178.707 91.015,178.709 91.014,178.71C89.303,183.664 87.693,188.416 86.185,192.966L86.185,192.967C86.11,193.197 86.115,193.436 86.204,193.683C86.302,193.952 86.474,194.131 86.71,194.227C86.959,194.328 87.2,194.313 87.432,194.18C87.639,194.063 87.793,193.88 87.885,193.626C87.885,193.625 87.886,193.623 87.887,193.621C88.784,191.015 89.588,189.168 90.305,188.083C90.955,187.101 91.576,186.574 92.225,186.574C92.475,186.574 92.644,186.795 92.803,187.162C93.021,187.665 93.214,188.492 93.39,189.643C93.622,191.236 93.955,192.393 94.375,193.117C94.846,193.929 95.502,194.326 96.331,194.326C97.178,194.326 97.958,193.886 98.65,192.969C99.288,192.125 99.867,190.674 100.373,188.609C100.433,188.361 100.41,188.123 100.305,187.893C100.19,187.641 100.013,187.481 99.783,187.404C99.536,187.32 99.296,187.356 99.065,187.523C98.866,187.668 98.734,187.866 98.672,188.12C98.237,189.875 97.765,191.108 97.24,191.811C96.954,192.194 96.666,192.409 96.347,192.409C96.062,192.409 95.869,192.18 95.707,191.788C95.488,191.26 95.295,190.369 95.118,189.116C94.918,187.662 94.607,186.583 94.197,185.876C93.735,185.08 93.114,184.696 92.353,184.696C91.763,184.696 91.194,184.908 90.656,185.344ZM132.532,184.538C134.665,183.803 136.517,182.671 138.236,182.059C139.554,181.59 140.777,181.465 142.005,182.499C142.908,183.259 143.35,184.216 143.543,185.159C143.961,187.244 142.951,189.355 141.065,190.337C140.038,190.87 138.873,191.339 137.356,191.465C136.724,191.518 136.253,192.074 136.306,192.706C136.359,193.338 136.915,193.809 137.547,193.756C139.418,193.6 140.858,193.034 142.125,192.377C142.125,192.377 142.126,192.376 142.127,192.376C144.92,190.921 146.417,187.794 145.796,184.705L145.796,184.702C145.508,183.294 144.832,181.876 143.486,180.741L143.485,180.741C141.518,179.085 139.577,179.142 137.465,179.894C135.753,180.504 133.908,181.633 131.783,182.365C131.183,182.572 130.864,183.227 131.071,183.827C131.277,184.426 131.932,184.745 132.532,184.538ZM125.422,181.362C125.215,181.446 125.053,181.606 124.955,181.862C124.869,182.088 124.863,182.315 124.935,182.541C124.936,182.544 124.937,182.548 124.938,182.551C125.984,185.6 126.903,189.016 127.694,192.799C127.694,192.802 127.695,192.805 127.696,192.809C127.754,193.056 127.881,193.249 128.07,193.391C128.295,193.558 128.667,193.552 128.667,193.552L128.914,193.494L128.919,193.493L128.937,193.488C129.173,193.426 129.358,193.281 129.485,193.04C129.6,192.822 129.631,192.59 129.575,192.345C128.768,188.546 127.81,185.07 126.702,181.918C126.701,181.914 126.699,181.911 126.698,181.907C126.597,181.644 126.439,181.467 126.243,181.362C126.018,181.24 125.789,181.223 125.555,181.304L125.422,181.362ZM118.248,193.213L118.389,193.298L118.385,193.296L118.397,193.302C118.608,193.417 118.834,193.439 119.077,193.36C119.318,193.282 119.5,193.121 119.612,192.867C119.613,192.867 119.613,192.867 119.613,192.866C121.066,189.576 121.988,186.076 122.377,182.365C122.405,182.123 122.349,181.893 122.203,181.68C122.04,181.442 121.836,181.325 121.609,181.3L121.467,181.282C121.201,181.262 120.971,181.349 120.78,181.551C120.619,181.722 120.523,181.926 120.495,182.164L120.495,182.166C120.106,185.613 119.237,188.87 117.886,191.937C117.789,192.157 117.769,192.391 117.832,192.637C117.902,192.911 118.048,193.098 118.248,193.213ZM109.517,179.554C109.167,185.226 107.595,188.598 102.896,191.4C102.4,191.695 102.237,192.338 102.533,192.834C102.829,193.33 103.471,193.493 103.967,193.197C109.343,189.993 111.206,186.171 111.605,179.683C111.641,179.107 111.202,178.61 110.625,178.574C110.049,178.539 109.552,178.978 109.517,179.554ZM121.607,181.3L121.65,181.308L121.587,181.298L121.607,181.3ZM77.667,172.315L81.439,172.315C82.052,172.315 82.551,171.817 82.551,171.203C82.551,170.589 82.052,170.091 81.439,170.091L77.667,170.091C77.054,170.091 76.555,170.589 76.555,171.203C76.555,171.817 77.054,172.315 77.667,172.315ZM104.763,172.024L109.383,172.024C109.997,172.024 110.494,171.526 110.494,170.913C110.494,170.3 109.997,169.802 109.383,169.802L104.763,169.802C104.15,169.802 103.652,170.3 103.652,170.913C103.652,171.526 104.15,172.024 104.763,172.024ZM123.659,172.024L128.279,172.024C128.892,172.024 129.39,171.526 129.39,170.913C129.39,170.3 128.892,169.802 128.279,169.802L123.659,169.802C123.046,169.802 122.548,170.3 122.548,170.913C122.548,171.526 123.046,172.024 123.659,172.024ZM100.232,167.751L100.232,170.049C100.232,170.684 100.747,171.199 101.382,171.199C102.017,171.199 102.532,170.684 102.532,170.049L102.532,167.751C102.532,167.117 102.017,166.601 101.382,166.601C100.747,166.601 100.232,167.117 100.232,167.751ZM90.527,155.038L83.827,168.592C83.555,169.142 83.781,169.808 84.331,170.08C84.88,170.352 85.547,170.126 85.819,169.576L92.518,156.023C92.79,155.473 92.564,154.806 92.015,154.535C91.465,154.263 90.798,154.489 90.527,155.038ZM73.326,155.389L73.326,168.674C73.326,169.25 73.794,169.719 74.371,169.719C74.947,169.719 75.416,169.25 75.416,168.674L75.416,155.389C75.416,154.813 74.947,154.344 74.371,154.344C73.794,154.344 73.326,154.813 73.326,155.389ZM137.441,156.755C137.185,156.859 136.982,157.056 136.862,157.372C136.759,157.644 136.752,157.916 136.838,158.188C136.839,158.193 136.841,158.198 136.843,158.202C137.886,161.244 138.802,164.652 139.591,168.425C139.592,168.43 139.593,168.435 139.595,168.441C139.665,168.739 139.819,168.971 140.047,169.142C140.328,169.352 140.598,169.349 140.769,169.344C140.871,169.341 141.07,169.28 141.07,169.28C141.372,169.206 141.611,169.027 141.772,168.721C141.91,168.458 141.948,168.18 141.881,167.886C141.072,164.077 140.111,160.593 139,157.433C138.998,157.427 138.996,157.422 138.994,157.416C138.872,157.099 138.679,156.889 138.444,156.762C138.164,156.611 137.879,156.59 137.589,156.691L137.441,156.755ZM130.242,168.975L130.408,169.074C130.667,169.212 130.945,169.239 131.243,169.142C131.541,169.046 131.766,168.849 131.905,168.535C133.367,165.225 134.295,161.704 134.686,157.971C134.72,157.68 134.653,157.402 134.477,157.146C134.275,156.852 134.02,156.71 133.739,156.678L133.553,156.656C133.236,156.64 132.96,156.749 132.73,156.992C132.537,157.195 132.423,157.439 132.39,157.723C132.39,157.724 132.389,157.725 132.389,157.726C132.003,161.152 131.14,164.389 129.797,167.437C129.681,167.7 129.656,167.979 129.732,168.273C129.817,168.607 129.998,168.834 130.242,168.975ZM119.222,155.512C119.405,155.263 119.7,155.101 120.033,155.101C120.588,155.101 121.038,155.551 121.038,156.106C121.038,156.283 120.992,156.45 120.911,156.595L120.911,156.596L116.873,162.795L116.873,166.69C116.873,167.242 116.425,167.69 115.873,167.69L115.848,167.69C115.297,167.69 114.848,167.242 114.848,166.69L114.848,162.795L110.811,156.596L110.811,156.595C110.73,156.45 110.684,156.283 110.684,156.106C110.684,155.551 111.134,155.101 111.689,155.101C112.021,155.101 112.316,155.263 112.499,155.512L112.511,155.504L115.861,160.647L119.211,155.504L119.222,155.512ZM133.736,156.677L133.77,156.683L133.707,156.674L133.736,156.677ZM73.328,128.213L73.328,148.292C73.328,148.867 73.795,149.335 74.371,149.335C74.946,149.335 75.414,148.867 75.414,148.292L75.414,128.213C75.414,127.638 74.946,127.17 74.371,127.17C73.795,127.17 73.328,127.638 73.328,128.213ZM89.182,127.857L89.182,146.446C89.182,147.022 89.65,147.49 90.226,147.49C90.802,147.49 91.27,147.022 91.27,146.446L91.27,127.857C91.27,127.28 90.802,126.812 90.226,126.812C89.65,126.812 89.182,127.28 89.182,127.857ZM132.511,130.453C132.29,136.56 130.758,140.334 126.019,143.832C125.555,144.175 125.457,144.83 125.799,145.293C126.142,145.757 126.796,145.856 127.26,145.513C132.577,141.588 134.351,137.38 134.599,130.528C134.62,129.952 134.169,129.467 133.593,129.447C133.017,129.426 132.532,129.877 132.511,130.453ZM84.578,132.46L84.578,143.833C84.578,144.41 85.047,144.878 85.623,144.878C86.2,144.878 86.668,144.41 86.668,143.833L86.668,132.46C86.668,131.883 86.2,131.415 85.623,131.415C85.047,131.415 84.578,131.883 84.578,132.46ZM137.232,132.46L137.232,143.833C137.232,144.41 137.7,144.878 138.277,144.878C138.853,144.878 139.322,144.41 139.322,143.833L139.322,132.46C139.322,131.883 138.853,131.415 138.277,131.415C137.7,131.415 137.232,131.883 137.232,132.46ZM110.912,138.772L119.497,138.772C120.073,138.772 120.541,138.304 120.541,137.728C120.541,137.152 120.073,136.684 119.497,136.684L110.912,136.684C110.336,136.684 109.868,137.152 109.868,137.728C109.868,138.304 110.336,138.772 110.912,138.772ZM101.621,126.852C100.198,126.852 99.035,128.02 99.035,129.468C99.035,130.916 100.198,132.084 101.621,132.084C103.045,132.084 104.207,130.916 104.207,129.468C104.207,128.02 103.045,126.852 101.621,126.852ZM123.406,126.852C121.983,126.852 120.82,128.02 120.82,129.468C120.82,130.916 121.983,132.084 123.406,132.084C124.83,132.084 125.992,130.916 125.992,129.468C125.992,128.02 124.83,126.852 123.406,126.852ZM101.621,128.515C102.134,128.515 102.544,128.946 102.544,129.468C102.544,129.99 102.134,130.421 101.621,130.421C101.108,130.421 100.698,129.99 100.698,129.468C100.698,128.946 101.108,128.515 101.621,128.515ZM123.406,128.515C123.919,128.515 124.329,128.946 124.329,129.468C124.329,129.99 123.919,130.421 123.406,130.421C122.893,130.421 122.483,129.99 122.483,129.468C122.483,128.946 122.893,128.515 123.406,128.515ZM73.328,103.585L73.328,123.664C73.328,124.239 73.795,124.706 74.371,124.706C74.946,124.706 75.414,124.239 75.414,123.664L75.414,103.585C75.414,103.009 74.946,102.542 74.371,102.542C73.795,102.542 73.328,103.009 73.328,103.585ZM124.855,106.292C124.218,112.746 122.344,116.641 117.093,120.033C116.609,120.347 116.469,120.995 116.783,121.479C117.096,121.964 117.744,122.104 118.229,121.79C124.083,118.008 126.226,113.694 126.937,106.498C126.994,105.923 126.573,105.411 125.999,105.354C125.425,105.297 124.912,105.718 124.855,106.292ZM114.218,106.292C113.581,112.746 111.707,116.641 106.456,120.033C105.972,120.347 105.832,120.995 106.146,121.479C106.459,121.964 107.107,122.104 107.592,121.79C113.446,118.008 115.589,113.694 116.3,106.498C116.357,105.923 115.936,105.411 115.362,105.354C114.788,105.297 114.275,105.718 114.218,106.292ZM92.943,106.292C92.306,112.746 90.432,116.641 85.181,120.033C84.697,120.347 84.557,120.995 84.871,121.479C85.184,121.964 85.832,122.104 86.317,121.79C92.171,118.008 94.314,113.694 95.025,106.498C95.082,105.923 94.661,105.411 94.087,105.354C93.513,105.297 93,105.718 92.943,106.292ZM135.493,106.292C134.856,112.746 132.982,116.641 127.731,120.033C127.247,120.347 127.107,120.995 127.421,121.479C127.734,121.964 128.382,122.104 128.867,121.79C134.721,118.008 136.864,113.694 137.575,106.498C137.632,105.923 137.211,105.411 136.637,105.354C136.063,105.297 135.55,105.718 135.493,106.292ZM146.13,106.292C145.493,112.746 143.619,116.641 138.368,120.033C137.884,120.347 137.744,120.995 138.058,121.479C138.371,121.964 139.019,122.104 139.504,121.79C145.358,118.008 147.501,113.694 148.212,106.498C148.269,105.923 147.848,105.411 147.274,105.354C146.7,105.297 146.187,105.718 146.13,106.292ZM103.581,106.292C102.944,112.746 101.07,116.641 95.819,120.033C95.335,120.347 95.195,120.995 95.509,121.479C95.822,121.964 96.47,122.104 96.955,121.79C102.809,118.008 104.952,113.694 105.663,106.498C105.72,105.923 105.299,105.411 104.725,105.354C104.151,105.297 103.638,105.718 103.581,106.292ZM136.037,89.105C139.26,91.268 143.034,94.544 145.113,96.791C145.504,97.214 146.165,97.24 146.588,96.849C147.011,96.458 147.037,95.796 146.646,95.373C144.483,93.035 140.555,89.622 137.201,87.371C136.722,87.05 136.073,87.177 135.752,87.656C135.431,88.134 135.559,88.784 136.037,89.105ZM79.144,85.156L79.144,87.453C79.144,88.088 79.659,88.603 80.294,88.603C80.929,88.603 81.444,88.088 81.444,87.453L81.444,85.156C81.444,84.521 80.929,84.005 80.294,84.005C79.659,84.005 79.144,84.521 79.144,85.156ZM88.919,82.485L86.215,85.189C85.767,85.637 85.767,86.365 86.215,86.813C86.663,87.261 87.39,87.261 87.838,86.813L90.542,84.108C90.99,83.661 90.99,82.933 90.542,82.485C90.094,82.037 89.367,82.037 88.919,82.485ZM101.543,79.312L120.97,79.312C121.582,79.312 122.078,78.816 122.078,78.204C122.078,77.593 121.582,77.096 120.97,77.096L101.543,77.096C100.931,77.096 100.435,77.593 100.435,78.204C100.435,78.816 100.931,79.312 101.543,79.312Z" style="fill-rule:nonzero;"/>
    </g>
</svg>
