<?xml version="1.0" encoding="UTF-8" standalone="no"?>
<!DOCTYPE svg PUBLIC "-//W3C//DTD SVG 1.1//EN" "http://www.w3.org/Graphics/SVG/1.1/DTD/svg11.dtd">
<svg width="52px" height="82px" version="1.1" xmlns="http://www.w3.org/2000/svg" xmlns:xlink="http://www.w3.org/1999/xlink" xml:space="preserve" xmlns:serif="http://www.serif.com/" style="fill-rule:evenodd;clip-rule:evenodd;stroke-linejoin:round;stroke-miterlimit:2;">
    <g transform="matrix(0.550692,0,0,0.550692,-38.8627,-12.928)">
        <path d="M118.179,168.079C117.14,169.292 115.453,169.858 113.421,170.079L80.921,170.079C78.704,169.963 77.146,169.187 75.921,168.079C70.796,161.079 70.262,154.079 75.115,147.079L80,140.157L80,115.157L77,110C71.875,103 72.148,96 77,89C79.197,86.804 78.938,84.454 77,82C71.875,75 71.552,68 76.405,61L80,51L89,32L98,50.318C98.937,52.047 100.408,53.243 103,53.318L128,53.318C130.438,53.558 132.555,52.89 134,50.318L143,32L152,51L156.804,61C161.656,68 161.383,75 156.258,82C154.664,84.201 154.749,86.541 156.258,89C161.11,96 161.383,103 156.258,110L151,115.157L151,140.157C154.617,142.383 157.289,144.688 158.921,147.079C163.774,154.079 164.047,161.079 158.921,168.079C157.925,169.248 156.241,169.902 153.921,170.079L128.921,170.079C124.591,168.989 122.198,165.854 121.589,160.835" style="fill:white;"/>
    </g>
    <g transform="matrix(0.594053,0,0,0.594053,-39.6611,-48.263)">
        <path d="M120.855,218.605L144.03,218.605C144.836,218.605 145.49,217.951 145.49,217.145C145.49,216.339 144.836,215.685 144.03,215.685L120.855,215.685C120.049,215.685 119.395,216.339 119.395,217.145C119.395,217.951 120.049,218.605 120.855,218.605ZM106.486,215.685L76.359,215.685C75.553,215.685 74.899,216.339 74.899,217.145C74.899,217.951 75.553,218.605 76.359,218.605L106.486,218.605C107.292,218.605 107.946,217.951 107.946,217.145C107.946,216.339 107.292,215.685 106.486,215.685ZM147.465,196.656C151.572,202.58 151.825,208.504 147.487,214.429C147.011,215.079 147.152,215.993 147.803,216.469C148.453,216.945 149.367,216.804 149.843,216.153C155.007,209.1 154.754,202.046 149.865,194.992C149.406,194.33 148.496,194.165 147.833,194.624C147.171,195.083 147.006,195.993 147.465,196.656ZM109.697,196.656C113.804,202.58 114.057,208.504 109.719,214.429C109.243,215.079 109.384,215.993 110.035,216.469C110.685,216.945 111.599,216.804 112.075,216.153C117.239,209.1 116.986,202.046 112.097,194.992C111.638,194.33 110.728,194.165 110.065,194.624C109.403,195.083 109.238,195.993 109.697,196.656ZM70.524,194.992C65.634,202.046 65.38,209.1 70.546,216.154C71.022,216.804 71.936,216.945 72.587,216.469C73.237,215.993 73.378,215.079 72.902,214.428C68.564,208.504 68.816,202.58 72.924,196.656C73.383,195.994 73.218,195.083 72.556,194.624C71.894,194.165 70.983,194.33 70.524,194.992ZM74.045,166.233L74.045,189.408C74.045,190.214 74.699,190.868 75.505,190.868C76.311,190.868 76.965,190.214 76.965,189.408L76.965,166.233C76.965,165.427 76.311,164.773 75.505,164.773C74.699,164.773 74.045,165.427 74.045,166.233ZM106.953,166.233L106.953,189.408C106.953,190.214 107.607,190.868 108.413,190.868C109.219,190.868 109.873,190.214 109.873,189.408L109.873,166.233C109.873,165.427 109.219,164.773 108.413,164.773C107.607,164.773 106.953,165.427 106.953,166.233ZM139.862,166.233L139.862,189.408C139.862,190.214 140.516,190.868 141.322,190.868C142.128,190.868 142.782,190.214 142.782,189.408L142.782,166.233C142.782,165.427 142.128,164.773 141.322,164.773C140.516,164.773 139.862,165.427 139.862,166.233ZM144.996,142.817C149.103,148.741 149.356,154.665 145.018,160.59C144.542,161.24 144.683,162.154 145.334,162.63C145.984,163.106 146.898,162.965 147.374,162.314C152.538,155.261 152.285,148.207 147.396,141.153C146.937,140.491 146.027,140.326 145.364,140.785C144.702,141.244 144.537,142.154 144.996,142.817ZM71.524,141.153C66.634,148.207 66.38,155.261 71.546,162.315C72.022,162.965 72.936,163.106 73.587,162.63C74.237,162.154 74.378,161.24 73.902,160.589C69.564,154.665 69.816,148.741 73.924,142.817C74.383,142.155 74.218,141.244 73.556,140.785C72.894,140.326 71.983,140.491 71.524,141.153ZM144.996,116.861C149.103,122.785 149.356,128.709 145.018,134.634C144.542,135.284 144.683,136.198 145.334,136.674C145.984,137.15 146.898,137.009 147.374,136.358C152.538,129.305 152.285,122.251 147.396,115.197C146.937,114.535 146.027,114.37 145.364,114.829C144.702,115.288 144.537,116.198 144.996,116.861ZM71.524,115.197C66.634,122.251 66.38,129.305 71.546,136.359C72.022,137.009 72.936,137.15 73.587,136.674C74.237,136.198 74.378,135.284 73.902,134.633C69.564,128.709 69.816,122.785 73.924,116.861C74.383,116.199 74.218,115.288 73.556,114.829C72.894,114.37 71.983,114.535 71.524,115.197ZM113.095,117.994C112.799,118.43 112.796,119.018 113.119,119.463C113.506,119.998 114.236,120.15 114.805,119.816C114.807,119.815 114.809,119.814 114.811,119.813C115.995,119.108 117.231,118.741 118.542,118.741C120.366,118.741 121.656,119.298 121.656,120.588C121.656,121.304 121.263,121.865 120.603,122.266C119.719,122.803 118.433,123.068 116.852,123.068C116.852,123.068 116.239,123.071 115.999,123.084C115.352,123.101 114.807,123.606 114.742,124.264C114.675,124.935 115.128,125.546 115.789,125.678L115.788,125.678C115.881,125.701 115.977,125.713 116.075,125.713L116.852,125.713C118.341,125.713 119.533,125.877 120.425,126.24C121.445,126.655 121.973,127.367 121.973,128.405C121.973,129.236 121.805,129.912 121.405,130.412C120.765,131.213 119.613,131.519 118.014,131.519C116.707,131.519 115.49,131.144 114.391,130.348C114.381,130.34 114.37,130.332 114.359,130.325C113.758,129.921 112.946,130.062 112.515,130.644C112.085,131.226 112.188,132.044 112.75,132.5L112.979,132.658C114.545,133.671 116.223,134.164 118.014,134.164C120.166,134.164 121.768,133.654 122.847,132.743C123.992,131.776 124.617,130.345 124.617,128.405C124.617,127.253 124.31,126.291 123.729,125.507C123.378,125.033 122.92,124.619 122.348,124.275C123.632,123.369 124.301,122.088 124.301,120.588C124.301,117.93 122.193,116.096 118.542,116.096C116.751,116.096 115.097,116.549 113.552,117.507C113.356,117.627 113.2,117.797 113.095,117.994ZM134.369,122.518C135.649,122.518 136.687,123.557 136.687,124.836C136.687,126.115 135.649,127.153 134.369,127.153C133.09,127.153 132.052,126.115 132.052,124.836C132.052,123.557 133.09,122.518 134.369,122.518ZM103.508,122.518C104.787,122.518 105.826,123.557 105.826,124.836C105.826,126.115 104.787,127.153 103.508,127.153C102.229,127.153 101.191,126.115 101.191,124.836C101.191,123.557 102.229,122.518 103.508,122.518ZM96.826,111L120.001,111C120.807,111 121.461,110.346 121.461,109.54C121.461,108.734 120.807,108.08 120.001,108.08L96.826,108.08C96.02,108.08 95.366,108.734 95.366,109.54C95.366,110.346 96.02,111 96.826,111ZM83.878,87.686L83.697,87.693C83.537,87.709 83.377,87.753 83.223,87.826L83.029,87.936L82.823,88.104L82.67,88.283L82.529,88.52L74.186,106.134C73.841,106.862 74.152,107.734 74.88,108.078C75.608,108.423 76.48,108.112 76.824,107.384L83.848,92.556L90.872,107.384C91.216,108.112 92.088,108.423 92.816,108.078C93.544,107.734 93.855,106.862 93.51,106.134L85.167,88.52L85.057,88.326L84.889,88.12L84.71,87.967L84.473,87.826C84.319,87.753 84.159,87.709 83.999,87.693L83.878,87.686ZM133.936,87.686L133.755,87.693C133.595,87.709 133.435,87.753 133.281,87.826L133.087,87.936L132.881,88.104L132.728,88.283L132.587,88.52L124.244,106.134C123.899,106.862 124.21,107.734 124.938,108.078C125.666,108.423 126.538,108.112 126.882,107.384L133.906,92.556L140.93,107.384C141.274,108.112 142.146,108.423 142.874,108.078C143.602,107.734 143.913,106.862 143.568,106.134L135.225,88.52L135.115,88.326L134.947,88.12L134.768,87.967L134.531,87.826C134.377,87.753 134.217,87.709 134.057,87.693L133.936,87.686Z"/>
    </g>
</svg>
