<?xml version="1.0" encoding="UTF-8" standalone="no"?>
<!DOCTYPE svg PUBLIC "-//W3C//DTD SVG 1.1//EN" "http://www.w3.org/Graphics/SVG/1.1/DTD/svg11.dtd">
<svg width="101px" height="104px" version="1.1" xmlns="http://www.w3.org/2000/svg" xmlns:xlink="http://www.w3.org/1999/xlink" xml:space="preserve" xmlns:serif="http://www.serif.com/" style="fill-rule:evenodd;clip-rule:evenodd;stroke-linejoin:round;stroke-miterlimit:2;">
    <g transform="matrix(0.600209,0,0,0.600209,-15.6231,-27.723)">
        <path d="M137.093,167.701C137.093,167.701 136.242,187.097 137.093,193.011C137.634,196.767 140.691,199.704 142.199,203.186C144.028,207.409 148.067,218.351 148.067,218.351L153.935,203.186L159.803,218.351C159.803,218.351 163.978,207.409 165.671,203.186C167.04,199.77 169.519,196.665 169.961,193.011C170.676,187.097 169.961,167.701 169.961,167.701C172.389,166.354 174.454,164.827 176.075,163.077C181.2,156.077 180.927,149.077 176.075,142.077C177.381,139.212 177.726,134.734 176.623,131.181L168.07,115.29L159.517,132.959C157.111,132.436 154.762,132.424 152.474,132.959L143.921,115.29L135.712,130.669C134.498,133.174 133.769,137.883 134.161,141.077C129.309,148.077 129.036,155.077 134.161,162.077C135.616,163.952 136.715,165.826 137.093,167.701ZM58.479,208.006C60.362,210.93 63.118,217.351 63.118,217.351C63.118,217.351 65.752,212.167 67.633,208.463C67.987,207.767 68.702,207.331 69.481,207.334C70.261,207.338 70.972,207.781 71.319,208.48C73.157,212.183 75.723,217.351 75.723,217.351C75.723,217.351 78.706,211.064 80.362,208.006C82.665,203.755 85.831,196.806 89.54,191.843C93.181,186.969 95.871,178.767 89.54,170.843C89.959,167.421 89.07,164.056 87.554,160.718L79.685,144.867L71.132,162.619C69.099,162.042 67.065,162.046 65.031,162.619L56.479,144.867L48.699,160.538C47.171,163.527 46.53,166.978 46.685,170.843C40.169,179.044 42.344,187.365 46.685,191.843C51.209,196.508 55.74,203.755 58.479,208.006ZM99.33,75.687C112.574,75.687 123.327,84.106 123.327,94.477C123.327,104.847 112.574,113.266 99.33,113.266C86.086,113.266 75.333,104.847 75.333,94.477C75.333,84.106 86.086,75.687 99.33,75.687Z" style="fill:white;"/>
    </g>
    <g transform="matrix(0.600209,0,0,0.600209,-15.6231,-27.723)">
        <path d="M141.163,203.587L147.031,218.752C147.197,219.18 147.608,219.462 148.067,219.462C148.526,219.462 148.938,219.18 149.103,218.752L153.935,206.265L158.767,218.752C158.932,219.18 159.344,219.462 159.803,219.462C160.262,219.462 160.673,219.18 160.839,218.752L166.707,203.587C166.928,203.015 166.644,202.371 166.072,202.15C165.5,201.929 164.856,202.213 164.634,202.785L159.803,215.272L154.971,202.785C154.806,202.357 154.394,202.075 153.935,202.075C153.476,202.075 153.064,202.357 152.899,202.785L148.067,215.272L143.236,202.785C143.014,202.213 142.37,201.929 141.798,202.15C141.227,202.371 140.942,203.015 141.163,203.587ZM57.483,208.5L62.123,217.845C62.31,218.223 62.696,218.462 63.118,218.462C63.54,218.462 63.925,218.223 64.113,217.845L68.752,208.5C69.025,207.951 68.8,207.284 68.251,207.011C67.702,206.738 67.034,206.963 66.762,207.512L63.118,214.852L59.474,207.512C59.201,206.963 58.534,206.738 57.985,207.011C57.435,207.284 57.211,207.951 57.483,208.5ZM70.089,208.5L74.728,217.845C74.915,218.223 75.301,218.462 75.723,218.462C76.145,218.462 76.53,218.223 76.718,217.845L81.357,208.5C81.63,207.951 81.405,207.284 80.856,207.011C80.307,206.738 79.639,206.963 79.367,207.512L75.723,214.852L72.079,207.512C71.806,206.963 71.139,206.738 70.59,207.011C70.04,207.284 69.816,207.951 70.089,208.5ZM171.072,193.011L171.072,167.701C171.072,167.088 170.574,166.59 169.961,166.59C169.347,166.59 168.85,167.088 168.85,167.701L168.85,193.011C168.85,193.624 169.347,194.122 169.961,194.122C170.574,194.122 171.072,193.624 171.072,193.011ZM138.204,193.011L138.204,167.701C138.204,167.088 137.706,166.59 137.093,166.59C136.48,166.59 135.982,167.088 135.982,167.701L135.982,193.011C135.982,193.624 136.48,194.122 137.093,194.122C137.706,194.122 138.204,193.624 138.204,193.011ZM45.772,170.21C40.622,177.64 40.349,185.069 45.789,192.499C46.151,192.994 46.847,193.102 47.342,192.739C47.837,192.377 47.944,191.681 47.582,191.186C42.771,184.616 43.044,178.046 47.599,171.476C47.948,170.972 47.822,170.279 47.318,169.93C46.814,169.58 46.122,169.706 45.772,170.21ZM88.627,171.476C93.181,178.046 93.454,184.616 88.643,191.186C88.281,191.681 88.388,192.377 88.883,192.739C89.378,193.102 90.074,192.994 90.436,192.499C95.876,185.069 95.603,177.64 90.453,170.21C90.103,169.706 89.411,169.58 88.907,169.93C88.403,170.279 88.277,170.972 88.627,171.476ZM106.499,170.981L95.875,188.912C95.562,189.44 95.737,190.122 96.264,190.434C96.792,190.747 97.474,190.572 97.787,190.045L108.411,172.113C108.723,171.586 108.549,170.904 108.021,170.591C107.493,170.279 106.811,170.453 106.499,170.981ZM63.865,188.336L63.663,188.195C63.25,187.851 63.177,187.247 63.496,186.815C63.818,186.38 64.425,186.275 64.875,186.577C64.878,186.579 64.882,186.582 64.885,186.584C64.891,186.587 64.895,186.592 64.901,186.595C65.966,187.367 67.15,187.733 68.421,187.733C70.008,187.733 71.143,187.401 71.778,186.607C72.183,186.1 72.363,185.419 72.363,184.579C72.363,183.503 71.821,182.76 70.763,182.329C69.909,181.98 68.766,181.82 67.338,181.82L66.614,181.82C66.545,181.82 66.478,181.811 66.412,181.795C66.407,181.794 66.401,181.792 66.396,181.791C65.906,181.694 65.57,181.241 65.62,180.744L65.62,180.743C65.668,180.255 66.071,179.88 66.55,179.867L66.556,179.867C66.777,179.855 67.339,179.854 67.339,179.854C68.867,179.854 70.11,179.588 70.965,179.069C71.662,178.646 72.067,178.047 72.067,177.291C72.067,176.59 71.721,176.086 71.123,175.759C70.58,175.463 69.813,175.319 68.914,175.319C67.646,175.319 66.452,175.672 65.307,176.354L65.308,176.353L65.303,176.356C64.884,176.602 64.345,176.49 64.061,176.095C64.061,176.095 64.06,176.095 64.06,176.094C63.822,175.767 63.824,175.334 64.042,175.013C64.047,175.006 64.051,174.998 64.056,174.99C64.133,174.845 64.248,174.72 64.392,174.631L64.393,174.631C65.793,173.763 67.291,173.353 68.914,173.353C72.143,173.353 74.033,174.94 74.033,177.291C74.033,178.607 73.444,179.729 72.318,180.524C72.249,180.573 72.209,180.653 72.212,180.738C72.215,180.822 72.261,180.899 72.333,180.943C72.837,181.246 73.241,181.609 73.549,182.026C74.06,182.716 74.328,183.564 74.328,184.579C74.328,186.3 73.782,187.574 72.766,188.433C71.796,189.251 70.355,189.699 68.421,189.699C66.801,189.699 65.282,189.252 63.865,188.336ZM26.521,177.195C30.394,179.794 34.929,183.732 37.426,186.431C37.842,186.881 38.546,186.909 38.996,186.492C39.446,186.076 39.474,185.372 39.057,184.922C36.469,182.125 31.772,178.043 27.759,175.35C27.25,175.008 26.559,175.144 26.218,175.653C25.876,176.163 26.012,176.854 26.521,177.195ZM56.027,178.515C57.057,178.515 57.893,179.351 57.893,180.381C57.893,181.41 57.057,182.246 56.027,182.246C54.998,182.246 54.162,181.41 54.162,180.381C54.162,179.351 54.998,178.515 56.027,178.515ZM80.869,178.515C81.899,178.515 82.735,179.351 82.735,180.381C82.735,181.41 81.899,182.246 80.869,182.246C79.84,182.246 79.004,181.41 79.004,180.381C79.004,179.351 79.84,178.515 80.869,178.515ZM175.161,142.71C179.716,149.28 179.989,155.85 175.178,162.42C174.816,162.915 174.923,163.611 175.418,163.973C175.913,164.336 176.609,164.228 176.971,163.733C182.411,156.303 182.138,148.874 176.988,141.444C176.638,140.94 175.946,140.814 175.442,141.164C174.938,141.513 174.812,142.206 175.161,142.71ZM48.921,162.589L56.479,147.366L64.036,162.589C64.309,163.138 64.976,163.363 65.526,163.09C66.075,162.818 66.299,162.15 66.027,161.601L57.474,144.373C57.286,143.995 56.901,143.756 56.479,143.756C56.057,143.756 55.671,143.995 55.483,144.373L46.931,161.601C46.658,162.15 46.883,162.818 47.432,163.09C47.981,163.363 48.649,163.138 48.921,162.589ZM72.127,162.589L79.685,147.366L87.242,162.589C87.515,163.138 88.182,163.363 88.732,163.09C89.281,162.818 89.505,162.15 89.233,161.601L80.68,144.373C80.492,143.995 80.107,143.756 79.685,143.756C79.263,143.756 78.877,143.995 78.69,144.373L70.137,161.601C69.864,162.15 70.089,162.818 70.638,163.09C71.187,163.363 71.855,163.138 72.127,162.589ZM133.248,140.444C128.098,147.874 127.825,155.303 133.265,162.733C133.627,163.228 134.323,163.336 134.818,162.973C135.312,162.611 135.42,161.915 135.058,161.42C130.247,154.85 130.52,148.28 135.074,141.71C135.424,141.206 135.298,140.513 134.794,140.164C134.29,139.814 133.597,139.94 133.248,140.444ZM191.904,143.045L181.28,160.976C180.968,161.504 181.142,162.186 181.67,162.498C182.197,162.811 182.879,162.636 183.192,162.109L193.816,144.178C194.128,143.65 193.954,142.968 193.426,142.655C192.899,142.343 192.216,142.517 191.904,143.045ZM151.224,159.279L151.022,159.138C150.609,158.794 150.536,158.19 150.855,157.758C151.177,157.323 151.784,157.218 152.233,157.52C152.237,157.522 152.241,157.525 152.244,157.527C152.25,157.53 152.254,157.535 152.26,157.538C153.325,158.31 154.509,158.676 155.78,158.676C157.367,158.676 158.502,158.344 159.137,157.55C159.542,157.043 159.722,156.362 159.722,155.522C159.722,154.446 159.18,153.703 158.122,153.272C157.268,152.923 156.125,152.763 154.697,152.763L153.973,152.763C153.904,152.763 153.836,152.754 153.771,152.738C153.766,152.737 153.76,152.735 153.755,152.734C153.265,152.637 152.929,152.184 152.979,151.687L152.979,151.686C153.026,151.198 153.43,150.823 153.909,150.81L153.915,150.81C154.136,150.798 154.698,150.797 154.698,150.797C156.226,150.797 157.469,150.531 158.324,150.012C159.021,149.589 159.426,148.99 159.426,148.234C159.426,147.533 159.08,147.029 158.482,146.702C157.939,146.406 157.172,146.262 156.273,146.262C155.005,146.262 153.81,146.615 152.666,147.297L152.667,147.296L152.661,147.299C152.243,147.545 151.704,147.433 151.42,147.038C151.419,147.038 151.419,147.038 151.419,147.037C151.18,146.71 151.183,146.277 151.401,145.956C151.406,145.949 151.41,145.941 151.415,145.933C151.492,145.788 151.607,145.663 151.751,145.574L151.752,145.574C153.152,144.706 154.65,144.296 156.273,144.296C159.502,144.296 161.392,145.883 161.392,148.234C161.392,149.55 160.803,150.672 159.677,151.467C159.608,151.516 159.568,151.596 159.571,151.681C159.574,151.765 159.62,151.842 159.692,151.886C160.196,152.189 160.599,152.552 160.908,152.969C161.419,153.659 161.687,154.507 161.687,155.522C161.687,157.243 161.141,158.517 160.125,159.376C159.155,160.194 157.714,160.642 155.78,160.642C154.16,160.642 152.641,160.195 151.224,159.279ZM114.786,147.752C118.659,150.351 123.194,154.289 125.691,156.988C126.107,157.438 126.811,157.466 127.261,157.049C127.711,156.633 127.739,155.929 127.322,155.479C124.734,152.682 120.037,148.599 116.024,145.907C115.515,145.565 114.824,145.701 114.482,146.21C114.141,146.719 114.277,147.41 114.786,147.752ZM167.228,149.458C168.258,149.458 169.093,150.294 169.093,151.324C169.093,152.353 168.258,153.189 167.228,153.189C166.198,153.189 165.363,152.353 165.363,151.324C165.363,150.294 166.198,149.458 167.228,149.458ZM142.386,149.458C143.416,149.458 144.252,150.294 144.252,151.324C144.252,152.353 143.416,153.189 142.386,153.189C141.357,153.189 140.521,152.353 140.521,151.324C140.521,150.294 141.357,149.458 142.386,149.458ZM160.512,133.012L168.07,117.789L175.627,133.012C175.9,133.561 176.567,133.786 177.117,133.513C177.666,133.241 177.891,132.573 177.618,132.024L169.065,114.796C168.877,114.418 168.492,114.179 168.07,114.179C167.648,114.179 167.262,114.418 167.075,114.796L158.522,132.024C158.249,132.573 158.474,133.241 159.023,133.513C159.572,133.786 160.24,133.561 160.512,133.012ZM136.363,133.012L143.921,117.789L151.478,133.012C151.751,133.561 152.418,133.786 152.968,133.513C153.517,133.241 153.742,132.573 153.469,132.024L144.916,114.796C144.729,114.418 144.343,114.179 143.921,114.179C143.499,114.179 143.113,114.418 142.926,114.796L134.373,132.024C134.1,132.573 134.325,133.241 134.874,133.513C135.423,133.786 136.091,133.561 136.363,133.012ZM100.172,130.202L100.172,114.953C100.172,114.34 99.674,113.842 99.061,113.842C98.448,113.842 97.95,114.34 97.95,114.953L97.95,130.202C97.95,130.815 98.448,131.313 99.061,131.313C99.674,131.313 100.172,130.815 100.172,130.202ZM75.673,118.714L78.682,115.437C79.065,115.02 79.038,114.37 78.62,113.986C78.203,113.603 77.552,113.631 77.169,114.048L74.16,117.325C73.777,117.742 73.804,118.393 74.222,118.776C74.639,119.159 75.29,119.132 75.673,118.714ZM124.953,114.048L121.944,110.771C121.561,110.354 120.911,110.326 120.493,110.71C120.076,111.093 120.048,111.743 120.431,112.161L123.44,115.437C123.824,115.855 124.474,115.883 124.891,115.499C125.309,115.116 125.337,114.466 124.953,114.048ZM78.313,83.096C73.162,90.525 72.889,97.955 78.329,105.385C78.692,105.88 79.387,105.987 79.882,105.625C80.377,105.263 80.485,104.567 80.122,104.072C75.312,97.502 75.584,90.932 80.139,84.362C80.488,83.858 80.363,83.165 79.859,82.815C79.355,82.466 78.662,82.592 78.313,83.096ZM118.634,84.362C123.189,90.932 123.462,97.502 118.651,104.072C118.289,104.567 118.396,105.263 118.891,105.625C119.386,105.987 120.082,105.88 120.444,105.385C125.884,97.955 125.611,90.525 120.461,83.096C120.111,82.592 119.419,82.466 118.915,82.815C118.411,83.165 118.285,83.858 118.634,84.362ZM94.452,101.357L94.249,101.216C93.836,100.872 93.764,100.267 94.083,99.835C94.404,99.4 95.011,99.295 95.461,99.597C95.465,99.6 95.468,99.602 95.472,99.604C95.477,99.607 95.482,99.612 95.487,99.616C96.552,100.387 97.736,100.753 99.007,100.753C100.595,100.753 101.729,100.421 102.365,99.627C102.769,99.12 102.949,98.44 102.949,97.599C102.949,96.523 102.408,95.78 101.35,95.349C100.495,95.001 99.352,94.84 97.924,94.84L97.2,94.84C97.131,94.84 97.064,94.831 96.998,94.815C96.993,94.814 96.988,94.813 96.982,94.812C96.493,94.714 96.156,94.261 96.206,93.764L96.206,93.763C96.254,93.275 96.657,92.9 97.136,92.888C97.138,92.888 97.141,92.888 97.143,92.887C97.363,92.876 97.925,92.874 97.925,92.874C99.454,92.874 100.696,92.608 101.551,92.09L101.551,92.089C102.249,91.666 102.653,91.067 102.653,90.311C102.653,89.61 102.307,89.106 101.709,88.78C101.166,88.483 100.4,88.339 99.5,88.339C98.233,88.339 97.038,88.692 95.893,89.374L95.895,89.373L95.889,89.377C95.47,89.622 94.932,89.51 94.647,89.116C94.647,89.115 94.647,89.115 94.646,89.114C94.408,88.788 94.41,88.354 94.628,88.033C94.633,88.026 94.638,88.018 94.642,88.01C94.719,87.865 94.835,87.74 94.978,87.652C94.979,87.652 94.979,87.651 94.979,87.651C96.379,86.784 97.878,86.373 99.5,86.373C102.729,86.373 104.619,87.96 104.619,90.311C104.619,91.627 104.03,92.75 102.904,93.545C102.835,93.593 102.795,93.674 102.799,93.758C102.802,93.842 102.847,93.92 102.92,93.963C103.423,94.266 103.827,94.629 104.135,95.046C104.135,95.047 104.136,95.047 104.136,95.047C104.647,95.736 104.914,96.584 104.914,97.599C104.914,99.321 104.369,100.594 103.352,101.453C102.383,102.271 100.941,102.719 99.007,102.719C97.388,102.719 95.869,102.272 94.452,101.357ZM111.455,92.535C112.485,92.535 113.321,93.371 113.321,94.401C113.321,95.43 112.485,96.266 111.455,96.266C110.426,96.266 109.59,95.43 109.59,94.401C109.59,93.371 110.426,92.535 111.455,92.535ZM86.614,92.535C87.643,92.535 88.479,93.371 88.479,94.401C88.479,95.43 87.643,96.266 86.614,96.266C85.584,96.266 84.748,95.43 84.748,94.401C84.748,93.371 85.584,92.535 86.614,92.535ZM133.374,95.365L144.007,95.365C144.62,95.365 145.118,94.867 145.118,94.254C145.118,93.641 144.62,93.143 144.007,93.143L133.374,93.143C132.761,93.143 132.263,93.641 132.263,94.254C132.263,94.867 132.761,95.365 133.374,95.365ZM52.695,95.365L63.328,95.365C63.941,95.365 64.439,94.867 64.439,94.254C64.439,93.641 63.941,93.143 63.328,93.143L52.695,93.143C52.082,93.143 51.584,93.641 51.584,94.254C51.584,94.867 52.082,95.365 52.695,95.365ZM121.944,76.325L124.953,73.049C125.337,72.631 125.309,71.981 124.891,71.597C124.474,71.214 123.824,71.242 123.44,71.659L120.431,74.936C120.048,75.353 120.076,76.004 120.493,76.387C120.911,76.771 121.561,76.743 121.944,76.325ZM73.673,74.936L70.664,71.659C70.281,71.242 69.63,71.214 69.213,71.597C68.795,71.981 68.768,72.631 69.151,73.049L72.16,76.325C72.543,76.743 73.194,76.771 73.611,76.387C74.029,76.004 74.056,75.353 73.673,74.936ZM100.172,73.482L100.172,58.233C100.172,57.62 99.674,57.122 99.061,57.122C98.448,57.122 97.95,57.62 97.95,58.233L97.95,73.482C97.95,74.095 98.448,74.593 99.061,74.593C99.674,74.593 100.172,74.095 100.172,73.482Z"/>
    </g>
</svg>
