<?xml version="1.0" encoding="UTF-8" standalone="no"?>
<!DOCTYPE svg PUBLIC "-//W3C//DTD SVG 1.1//EN" "http://www.w3.org/Graphics/SVG/1.1/DTD/svg11.dtd">
<svg width="58px" height="25px" version="1.1" xmlns="http://www.w3.org/2000/svg" xmlns:xlink="http://www.w3.org/1999/xlink" xml:space="preserve" xmlns:serif="http://www.serif.com/" style="fill-rule:evenodd;clip-rule:evenodd;stroke-linejoin:round;stroke-miterlimit:2;">
    <g transform="matrix(0.499034,0,0,0.530981,-26.0187,-80.0385)">
        <path d="M79.677,196.878C75.818,196.878 72.12,195.423 69.403,192.836C64.916,188.603 62.312,183.637 62.312,178.322C62.312,163.097 83.68,150.737 110,150.737C136.32,150.737 157.688,163.097 157.688,178.322C157.688,183.637 155.084,188.603 150.574,192.815C147.864,195.397 144.174,196.849 140.323,196.849C127.377,196.878 92.623,196.878 79.677,196.878Z" style="fill:white;"/>
    </g>
    <g transform="matrix(0.512441,0,0,0.512441,-27.4935,-86.7744)">
        <path d="M149.087,184.549C155.009,193.092 155.363,201.634 149.109,210.176C148.632,210.828 148.773,211.744 149.425,212.22C150.076,212.697 150.992,212.556 151.469,211.904C158.552,202.23 158.197,192.557 151.491,182.883C151.031,182.219 150.119,182.054 149.456,182.514C148.792,182.974 148.627,183.886 149.087,184.549ZM68.509,182.883C61.803,192.557 61.448,202.23 68.531,211.904C69.008,212.556 69.924,212.697 70.575,212.22C71.227,211.744 71.368,210.828 70.891,210.176C64.637,201.634 64.991,193.092 70.913,184.549C71.373,183.886 71.208,182.974 70.544,182.514C69.881,182.054 68.969,182.219 68.509,182.883ZM119.526,196.133C121.536,194.913 122.611,193.035 122.611,190.74C122.611,187.098 119.904,184.718 115.342,184.718C112.965,184.718 110.772,185.391 108.704,186.779C108.238,187.092 108.079,187.703 108.332,188.204L108.612,188.756C108.755,189.038 109.012,189.246 109.318,189.328C109.624,189.409 109.95,189.356 110.214,189.182C111.841,188.112 113.54,187.554 115.342,187.554C118.026,187.554 119.829,188.658 119.829,190.74C119.829,193.438 117.156,194.847 113.102,194.847L111.983,194.847C111.369,194.847 110.872,195.345 110.872,195.958L110.872,196.572C110.872,197.186 111.369,197.683 111.983,197.683L113.102,197.683C117.764,197.683 120.249,198.983 120.249,202.097C120.249,203.766 119.846,205.04 118.93,205.877C117.981,206.746 116.54,207.125 114.642,207.125C112.832,207.125 111.149,206.547 109.587,205.405C109.344,205.228 109.04,205.156 108.744,205.207C108.447,205.258 108.184,205.427 108.014,205.675L107.679,206.166C107.341,206.66 107.455,207.333 107.937,207.688C110.016,209.219 112.252,209.961 114.642,209.961C117.406,209.961 119.465,209.264 120.852,207.981C122.266,206.671 123.031,204.725 123.031,202.097C123.031,200.162 122.447,198.624 121.334,197.458C120.843,196.944 120.241,196.5 119.526,196.133ZM94.002,193.545C95.612,193.545 96.919,194.852 96.919,196.461C96.919,198.071 95.612,199.378 94.002,199.378C92.392,199.378 91.086,198.071 91.086,196.461C91.086,194.852 92.392,193.545 94.002,193.545ZM136.524,193.545C138.134,193.545 139.441,194.852 139.441,196.461C139.441,198.071 138.134,199.378 136.524,199.378C134.915,199.378 133.608,198.071 133.608,196.461C133.608,194.852 134.915,193.545 136.524,193.545Z" style="fill-rule:nonzero;"/>
    </g>
</svg>
