<?xml version="1.0" encoding="UTF-8" standalone="no"?>
<!DOCTYPE svg PUBLIC "-//W3C//DTD SVG 1.1//EN" "http://www.w3.org/Graphics/SVG/1.1/DTD/svg11.dtd">
<svg width="63px" height="64px" version="1.1" xmlns="http://www.w3.org/2000/svg" xmlns:xlink="http://www.w3.org/1999/xlink" xml:space="preserve" xmlns:serif="http://www.serif.com/" style="fill-rule:evenodd;clip-rule:evenodd;stroke-linejoin:round;stroke-miterlimit:2;">
    <g transform="matrix(0.615725,0,0,0.615725,-35.4663,-35.0387)">
        <path d="M66.697,142.579L66.634,142.54C66.634,142.54 64.748,136.813 63.677,133.562C63.22,132.174 62.177,131.055 60.825,130.5C59.326,129.886 57.588,129.173 57.588,129.173L57.588,113.962L63.137,111.78L71.495,111.78C73.363,113.832 74.72,113.343 75.443,111.824C76.519,109.567 75.737,105.348 73.583,102.406C69.231,96.463 68.614,90.115 72.734,84.172L76.13,75.681L83.772,59.549L92.507,76.404C93.084,77.5 94.424,78.068 96.752,77.951L117.978,77.951C119.977,78.035 121.748,77.667 123.073,76.404L129.62,59.549L137.262,75.681L141.564,84.172C145.684,90.115 144.931,97.685 140.79,103.188C139.046,105.505 141.657,108.279 144.268,109.251C145.779,109.814 152.244,111.312 152.244,111.312L157.443,113.962L157.443,129.173L151.856,131.775L151.856,140.541L151.685,141.198C154.655,142.79 156.674,145.903 156.674,149.479C156.674,154.674 152.412,158.892 147.163,158.892C142.94,158.892 139.356,156.162 138.116,152.39L82.674,152.39L82.285,152.151C81.12,156.046 77.475,158.892 73.163,158.892C67.914,158.892 63.652,154.674 63.652,149.479C63.652,146.754 64.825,144.298 66.697,142.579Z" style="fill:white;"/>
    </g>
    <g transform="matrix(0.615725,0,0,0.615725,-37.0605,-70.5433)">
        <path d="M68.99,199.671C66.876,201.735 65.82,204.221 65.82,207.129C65.82,210.037 66.875,212.527 68.989,214.599C71.098,216.665 73.653,217.7 76.655,217.7C79.658,217.7 82.213,216.665 84.321,214.599C86.435,212.527 87.491,210.037 87.491,207.129C87.491,204.221 86.435,201.735 84.321,199.671C82.212,197.613 79.657,196.583 76.655,196.583C73.653,196.583 71.098,197.613 68.99,199.671ZM142.99,199.671C140.876,201.735 139.82,204.221 139.82,207.129C139.82,210.037 140.875,212.527 142.989,214.599C145.098,216.665 147.653,217.7 150.655,217.7C153.657,217.7 156.212,216.665 158.321,214.599C160.435,212.527 161.49,210.037 161.49,207.129C161.49,204.221 160.435,201.735 158.32,199.671C156.212,197.613 153.657,196.583 150.655,196.583C147.653,196.583 145.098,197.613 142.99,199.671ZM70.643,212.975C68.983,211.362 68.152,209.418 68.152,207.141C68.152,204.865 68.983,202.921 70.643,201.308C72.308,199.689 74.313,198.881 76.655,198.881C78.998,198.881 81.002,199.689 82.668,201.308C84.327,202.921 85.158,204.865 85.158,207.141C85.158,209.418 84.327,211.362 82.668,212.975C81.002,214.594 78.998,215.402 76.655,215.402C74.313,215.402 72.308,214.594 70.643,212.975ZM144.643,212.975C142.983,211.362 142.152,209.418 142.152,207.141C142.152,204.865 142.983,202.921 144.643,201.308C146.308,199.689 148.312,198.881 150.655,198.881C152.998,198.881 155.002,199.689 156.667,201.308C158.327,202.921 159.158,204.865 159.158,207.141C159.158,209.418 158.327,211.362 156.667,212.975C155.002,214.594 152.998,215.402 150.655,215.402C148.312,215.402 146.308,214.594 144.643,212.975ZM145.764,202.354C144.395,203.684 143.713,205.281 143.713,207.141C143.713,209.003 144.396,210.596 145.766,211.918C147.128,213.234 148.758,213.892 150.655,213.892C152.552,213.892 154.182,213.234 155.545,211.918C156.914,210.596 157.597,209.003 157.597,207.141C157.597,205.281 156.915,203.684 155.546,202.354C154.183,201.029 152.553,200.366 150.655,200.366C148.758,200.366 147.127,201.029 145.764,202.354ZM71.764,202.354C70.395,203.684 69.713,205.281 69.713,207.141C69.713,209.003 70.396,210.596 71.766,211.918C73.128,213.234 74.758,213.892 76.655,213.892C78.552,213.892 80.182,213.234 81.545,211.918C82.914,210.596 83.597,209.003 83.597,207.141C83.597,205.281 82.915,203.684 81.546,202.354C80.183,201.029 78.553,200.366 76.655,200.366C74.758,200.366 73.127,201.029 71.764,202.354ZM73.391,210.28C72.495,209.408 72.045,208.359 72.045,207.129C72.045,205.899 72.495,204.85 73.391,203.979C74.293,203.102 75.381,202.664 76.655,202.664C77.929,202.664 79.017,203.102 79.92,203.979C80.816,204.85 81.265,205.899 81.265,207.129C81.265,208.359 80.816,209.409 79.92,210.28C79.017,211.156 77.929,211.594 76.655,211.594C75.382,211.594 74.293,211.156 73.391,210.28ZM147.391,210.28C146.495,209.408 146.045,208.359 146.045,207.129C146.045,205.899 146.495,204.85 147.391,203.979C148.293,203.102 149.381,202.664 150.655,202.664C151.929,202.664 153.017,203.102 153.919,203.979C154.816,204.85 155.265,205.899 155.265,207.129C155.265,208.359 154.816,209.409 153.919,210.28C153.017,211.156 151.929,211.594 150.655,211.594C149.381,211.594 148.293,211.156 147.391,210.28ZM136.073,208.939L91.428,208.939C90.814,208.939 90.314,209.438 90.314,210.053C90.314,210.668 90.814,211.167 91.428,211.167L136.073,211.167C136.688,211.167 137.187,210.668 137.187,210.053C137.187,209.438 136.688,208.939 136.073,208.939ZM62.085,185.798L62.085,172.681L66.303,170.914C66.862,170.683 67.184,170.208 67.184,169.443C67.184,169.108 67.058,168.835 66.812,168.622C66.507,168.357 66.183,168.316 65.847,168.466C65.853,168.463 60.58,170.623 60.58,170.623C60.576,170.624 60.572,170.626 60.568,170.628C59.958,170.894 59.622,171.408 59.622,172.207L59.622,186.269C59.607,187.069 59.943,187.587 60.573,187.854L65.859,190.019C66.221,190.168 66.545,190.11 66.832,189.849C67.063,189.638 67.184,189.368 67.184,189.037C67.184,188.271 66.862,187.796 66.3,187.565L62.085,185.798ZM159.72,172.681L159.72,185.798L155.502,187.566C154.943,187.796 154.621,188.271 154.621,189.037C154.621,189.368 154.742,189.638 154.973,189.849C155.26,190.11 155.585,190.168 155.947,190.019C155.946,190.019 161.225,187.857 161.225,187.857C161.228,187.856 161.23,187.855 161.232,187.854C161.863,187.587 162.199,187.069 162.183,186.269L162.183,172.207C162.183,171.408 161.847,170.894 161.237,170.628L155.952,168.463C155.618,168.317 155.297,168.359 154.993,168.622C154.747,168.835 154.621,169.108 154.621,169.443C154.621,170.208 154.943,170.683 155.505,170.915L159.72,172.681ZM92.35,188.299L92.539,188.296C94.461,188.249 96.293,187.465 97.657,186.102C99.063,184.695 99.854,182.787 99.854,180.798L99.854,173.285C99.854,172.477 99.198,171.822 98.391,171.822C97.583,171.822 96.928,172.477 96.928,173.285L96.928,180.798C96.928,182.011 96.446,183.175 95.588,184.033C94.729,184.892 93.566,185.373 92.352,185.373L92.344,185.373C91.218,185.371 90.14,184.924 89.345,184.129C88.548,183.332 88.1,182.251 88.1,181.124L88.1,173.285C88.1,172.477 87.445,171.822 86.638,171.822C85.83,171.822 85.175,172.477 85.175,173.285L85.175,181.124C85.175,183.026 85.931,184.851 87.275,186.197L87.276,186.198C88.622,187.543 90.447,188.299 92.35,188.299ZM70.513,171.054L70.528,171.077C70.571,171.144 70.62,171.194 70.669,171.231C70.858,171.39 71.075,171.449 71.315,171.418C71.556,171.388 71.766,171.271 71.932,171.045C71.934,171.043 71.935,171.041 71.936,171.04C72.32,170.504 72.745,170.206 73.247,170.206C73.649,170.206 74.029,170.465 74.427,170.915C74.427,170.915 74.428,170.915 74.428,170.916C75.19,171.772 76.037,172.18 76.948,172.18C78.081,172.19 79.026,171.667 79.758,170.578C79.763,170.571 79.768,170.563 79.773,170.556C79.89,170.362 79.944,170.142 79.925,169.892C79.904,169.629 79.806,169.415 79.643,169.245L79.672,169.278L79.581,169.184C79.38,168.982 79.141,168.902 78.867,168.935C78.619,168.966 78.402,169.089 78.235,169.332C78.024,169.624 77.814,169.841 77.593,169.97C77.4,170.082 77.184,170.136 76.948,170.136L76.939,170.136C76.54,170.142 76.163,169.886 75.768,169.44C75.768,169.439 75.767,169.439 75.767,169.438C75.004,168.582 74.157,168.174 73.247,168.174C72.114,168.165 71.169,168.687 70.436,169.776C70.436,169.777 70.435,169.779 70.434,169.78C70.311,169.966 70.25,170.188 70.27,170.451C70.289,170.691 70.373,170.891 70.513,171.054ZM70.62,171.186L70.6,171.167C70.607,171.174 70.613,171.18 70.62,171.186ZM151.073,166.669L103.428,166.669C102.665,166.669 102.045,167.289 102.045,168.053C102.045,168.817 102.665,169.437 103.428,169.437L151.073,169.437C151.836,169.437 152.457,168.817 152.457,168.053C152.457,167.289 151.836,166.669 151.073,166.669ZM143.165,142.669C146.892,148.046 147.123,153.422 143.187,158.799C142.709,159.451 142.851,160.369 143.503,160.846C144.156,161.324 145.073,161.182 145.55,160.53C150.316,154.02 150.084,147.51 145.572,141C145.112,140.336 144.199,140.17 143.534,140.631C142.87,141.091 142.704,142.004 143.165,142.669ZM75.871,141C71.359,147.51 71.127,154.02 75.893,160.53C76.371,161.182 77.288,161.324 77.94,160.846C78.592,160.369 78.734,159.451 78.257,158.799C74.32,153.422 74.552,148.046 78.279,142.669C78.739,142.004 78.574,141.091 77.909,140.631C77.245,140.17 76.332,140.336 75.871,141ZM115.273,145.618C114.997,146.024 114.994,146.573 115.296,146.987C115.656,147.486 116.337,147.628 116.868,147.317C116.869,147.316 116.871,147.315 116.873,147.314C117.977,146.656 119.129,146.314 120.352,146.314C122.052,146.314 123.255,146.834 123.255,148.036C123.255,148.704 122.889,149.227 122.273,149.601C121.449,150.101 120.25,150.349 118.776,150.349C118.776,150.349 118.205,150.351 117.981,150.363C117.378,150.379 116.869,150.85 116.809,151.464C116.746,152.089 117.169,152.659 117.785,152.782L117.784,152.782C117.871,152.803 117.96,152.815 118.052,152.815L118.776,152.815C120.164,152.815 121.276,152.967 122.107,153.306C123.058,153.693 123.551,154.357 123.551,155.324C123.551,156.099 123.394,156.729 123.021,157.196C122.424,157.942 121.35,158.228 119.859,158.228C118.641,158.228 117.506,157.878 116.482,157.136C116.472,157.129 116.462,157.121 116.452,157.115C115.891,156.738 115.134,156.869 114.733,157.412C114.332,157.955 114.428,158.717 114.952,159.142L115.165,159.29C116.625,160.234 118.19,160.694 119.859,160.694C121.866,160.694 123.359,160.218 124.365,159.369C125.433,158.467 126.016,157.133 126.016,155.324C126.016,154.25 125.729,153.353 125.188,152.623C124.861,152.181 124.434,151.795 123.9,151.474C125.097,150.629 125.721,149.435 125.721,148.036C125.721,145.558 123.756,143.848 120.352,143.848C118.682,143.848 117.14,144.271 115.699,145.164C115.517,145.276 115.371,145.434 115.273,145.618ZM135.824,149.158C137.103,149.158 138.141,150.197 138.141,151.476C138.141,152.755 137.103,153.793 135.824,153.793C134.545,153.793 133.506,152.755 133.506,151.476C133.506,150.197 134.545,149.158 135.824,149.158ZM104.963,149.158C106.242,149.158 107.28,150.197 107.28,151.476C107.28,152.755 106.242,153.793 104.963,153.793C103.684,153.793 102.645,152.755 102.645,151.476C102.645,150.197 103.684,149.158 104.963,149.158ZM99.15,137.356L120.376,137.356C121.185,137.356 121.841,136.7 121.841,135.891C121.841,135.083 121.185,134.427 120.376,134.427L99.15,134.427C98.342,134.427 97.686,135.083 97.686,135.891C97.686,136.7 98.342,137.356 99.15,137.356ZM133.112,115.747C132.901,115.747 132.688,115.792 132.485,115.888C132.275,115.988 132.099,116.131 131.964,116.302L131.951,116.319C131.889,116.4 131.834,116.489 131.788,116.585L124.147,132.717C123.801,133.448 124.113,134.322 124.844,134.668C125.574,135.014 126.448,134.702 126.794,133.971L133.112,120.634L139.43,133.971C139.776,134.702 140.65,135.014 141.38,134.668C142.111,134.322 142.423,133.448 142.077,132.717L134.436,116.585C134.39,116.489 134.335,116.4 134.273,116.319L134.26,116.302C134.125,116.131 133.949,115.988 133.739,115.888C133.536,115.792 133.323,115.747 133.112,115.747ZM87.264,115.747C87.053,115.747 86.84,115.792 86.637,115.888C86.574,115.918 86.514,115.952 86.457,115.99L86.45,115.994C86.237,116.136 86.058,116.337 85.94,116.585L78.299,132.717C77.953,133.448 78.265,134.322 78.995,134.668C79.726,135.014 80.6,134.702 80.946,133.971L87.264,120.633L93.582,133.971C93.928,134.702 94.802,135.014 95.532,134.668C96.263,134.322 96.575,133.448 96.229,132.717L88.588,116.585C88.47,116.337 88.291,116.136 88.077,115.994L88.07,115.99C88.014,115.952 87.954,115.918 87.891,115.888C87.688,115.792 87.474,115.747 87.264,115.747Z"/>
    </g>
</svg>
