<?xml version="1.0" encoding="UTF-8" standalone="no"?>
<svg xmlns:ffdec="https://www.free-decompiler.com/flash" xmlns:xlink="http://www.w3.org/1999/xlink" ffdec:objectType="shape" height="106.7px" width="59.1px" xmlns="http://www.w3.org/2000/svg">
  <g transform="matrix(1.0, 0.0, 0.0, 1.0, 31.05, 107.05)">
    <path d="M-8.9 -78.15 L-12.15 -79.0 Q-9.6 -80.95 -6.55 -82.2 -10.65 -84.45 -9.7 -87.65 L-9.1 -89.05 -8.45 -90.05 -8.7 -91.35 -8.6 -92.95 -8.8 -94.8 Q-9.05 -95.75 -9.55 -96.55 L-16.8 -97.2 -10.8 -100.5 Q-13.35 -102.65 -14.2 -105.9 L-14.7 -106.85 -11.9 -106.65 -9.5 -105.85 Q-4.6 -104.45 0.55 -103.75 L8.25 -102.55 Q10.15 -102.2 11.95 -101.45 14.15 -100.5 15.2 -98.85 16.3 -97.15 17.8 -95.85 20.05 -94.05 21.6 -91.8 22.95 -89.85 22.65 -87.5 22.4 -86.0 21.4 -85.05 L20.15 -84.05 Q22.05 -83.3 22.9 -81.35 23.25 -80.6 22.95 -79.9 20.8 -75.35 15.35 -76.7 12.95 -77.3 12.15 -74.95 10.9 -72.2 8.95 -69.8 L7.6 -67.9 7.55 -67.85 8.3 -67.4 Q9.45 -65.95 10.05 -64.15 L10.1 -64.05 10.55 -62.35 11.4 -62.5 Q15.1 -59.65 19.2 -57.25 23.45 -54.7 26.0 -51.2 27.55 -49.05 28.0 -46.4 28.35 -44.3 26.5 -43.3 L18.55 -39.25 17.85 -38.7 17.0 -38.2 16.95 -38.2 Q16.1 -36.15 13.6 -35.2 L13.25 -35.9 12.65 -34.9 12.45 -34.8 12.8 -34.1 16.6 -25.75 Q18.5 -21.6 19.35 -17.05 20.1 -12.7 19.8 -8.2 19.5 -4.75 18.0 -2.85 L15.9 -3.05 Q15.9 -2.1 15.05 -1.05 L14.4 -0.85 14.35 -0.85 Q10.1 0.2 4.95 -0.85 3.45 -1.15 2.9 -1.85 L2.8 -2.05 3.75 -2.65 2.75 -2.45 0.35 -2.2 -2.45 -2.3 Q-6.05 -2.4 -7.95 -4.35 -5.2 -5.65 -1.9 -6.45 2.3 -18.65 -0.9 -26.25 -4.15 -33.85 -4.2 -35.45 L-3.9 -36.05 -3.95 -36.1 -4.8 -36.4 -5.05 -36.55 Q-3.7 -40.25 -3.25 -44.8 -2.75 -49.5 -0.35 -53.5 L-3.35 -51.6 Q-6.25 -50.7 -9.4 -51.15 -14.35 -51.75 -18.4 -53.9 -22.6 -56.2 -25.35 -60.0 L-25.95 -60.6 Q-27.1 -61.65 -26.5 -62.7 L-26.15 -63.25 -27.55 -65.5 -28.2 -64.9 Q-30.15 -66.15 -30.6 -68.45 L-30.85 -69.4 Q-31.6 -72.5 -29.7 -75.0 -28.0 -75.25 -26.35 -74.5 L-25.3 -73.85 Q-23.2 -72.45 -24.4 -69.7 L-24.95 -68.25 Q-25.25 -67.35 -25.9 -66.85 L-27.55 -65.5 -25.9 -66.85 Q-25.25 -67.35 -24.95 -68.25 L-24.4 -69.7 Q-23.2 -72.45 -25.3 -73.85 L-24.6 -75.0 Q-25.35 -77.75 -23.95 -80.45 -23.0 -82.25 -20.45 -81.3 L-20.95 -80.2 Q-22.5 -76.8 -20.6 -73.55 -19.1 -72.75 -18.35 -71.7 -17.55 -70.5 -17.5 -69.05 -17.85 -68.0 -17.65 -67.3 L-16.4 -67.55 Q-15.5 -67.0 -14.8 -65.75 -13.75 -63.8 -12.15 -61.75 L-10.85 -60.15 Q-9.15 -58.05 -5.35 -58.3 -2.8 -57.95 -0.5 -58.7 2.45 -59.75 4.4 -61.3 L4.75 -61.85 Q5.65 -63.25 7.2 -63.5 L7.4 -63.55 Q7.25 -65.55 6.6 -66.45 6.0 -65.75 5.15 -65.25 2.0 -63.3 -1.05 -65.3 -4.2 -67.35 -6.05 -70.5 L-6.85 -72.2 Q-7.8 -74.65 -9.1 -77.4 L-8.9 -78.15 Q-4.6 -77.25 0.0 -77.1 L-1.1 -76.55 0.0 -77.1 Q-4.6 -77.25 -8.9 -78.15 M4.4 -71.7 Q5.55 -73.4 5.7 -74.65 L3.2 -74.65 -0.15 -74.75 3.2 -74.65 5.7 -74.65 Q5.55 -73.4 4.4 -71.7 L3.55 -71.85 3.2 -70.5 3.25 -70.4 3.25 -70.45 4.4 -71.7 M6.95 -96.15 Q5.95 -97.55 3.95 -98.65 3.75 -98.5 2.6 -98.25 -2.2 -97.2 -7.0 -96.7 L-9.55 -96.55 -7.0 -96.7 Q-2.2 -97.2 2.6 -98.25 3.75 -98.5 3.95 -98.65 5.95 -97.55 6.95 -96.15 M6.05 -84.6 L6.95 -84.8 Q8.25 -86.4 6.35 -87.2 L5.55 -87.25 Q3.5 -86.3 4.5 -83.05 6.55 -81.1 9.55 -81.8 10.65 -82.0 10.9 -82.95 11.75 -86.7 8.35 -89.05 6.5 -90.35 4.25 -89.8 L3.55 -89.55 Q-0.05 -87.65 1.05 -83.9 1.7 -81.65 3.25 -80.65 1.7 -81.65 1.05 -83.9 -0.05 -87.65 3.55 -89.55 L4.25 -89.8 Q6.5 -90.35 8.35 -89.05 11.75 -86.7 10.9 -82.95 10.65 -82.0 9.55 -81.8 6.55 -81.1 4.5 -83.05 3.5 -86.3 5.55 -87.25 L6.35 -87.2 Q8.25 -86.4 6.95 -84.8 L6.05 -84.6 M-1.75 -70.4 Q1.05 -68.65 3.25 -70.4 1.05 -68.65 -1.75 -70.4 -1.25 -72.8 -0.2 -74.8 -1.25 -72.8 -1.75 -70.4 L-1.8 -70.45 -1.75 -70.35 -1.75 -70.4 M-0.2 -74.8 L-3.85 -75.0 -6.4 -75.15 Q-4.9 -72.45 -1.9 -70.55 L-1.8 -70.45 -1.9 -70.55 Q-4.9 -72.45 -6.4 -75.15 L-3.85 -75.0 -0.2 -74.8 -0.15 -74.75 -0.2 -74.8 M12.85 -91.3 L3.25 -91.6 12.85 -91.3 M15.45 -84.45 Q16.75 -84.75 18.7 -84.45 L20.15 -84.05 18.7 -84.45 Q16.75 -84.75 15.45 -84.45 M-3.85 -75.0 Q-2.9 -74.8 -2.6 -72.9 -2.4 -71.4 -1.8 -70.45 -2.4 -71.4 -2.6 -72.9 -2.9 -74.8 -3.85 -75.0 M3.3 -73.55 Q3.9 -73.25 3.65 -72.3 L3.55 -71.85 3.65 -72.3 Q3.9 -73.25 3.3 -73.55 M7.55 -67.85 L7.05 -67.1 6.6 -66.45 7.05 -67.1 7.55 -67.85 M8.75 -64.15 L9.6 -63.95 10.05 -64.15 8.75 -64.15 7.4 -63.55 8.75 -64.15 M12.8 -51.45 Q13.6 -47.5 13.75 -43.6 15.55 -44.65 17.1 -46.75 19.15 -49.55 16.0 -51.55 13.75 -53.0 12.2 -54.55 L12.8 -51.45 M12.65 -34.9 L12.5 -34.85 11.35 -35.35 Q10.15 -36.05 9.45 -37.35 L8.95 -38.05 Q7.8 -39.2 8.55 -39.9 9.4 -40.7 10.6 -41.35 L13.65 -43.55 13.75 -43.6 15.45 -41.05 Q15.95 -40.0 16.75 -39.2 17.4 -38.5 17.0 -38.25 L17.0 -38.2 17.0 -38.25 Q17.4 -38.5 16.75 -39.2 15.95 -40.0 15.45 -41.05 L13.75 -43.6 13.65 -43.55 10.6 -41.35 Q9.4 -40.7 8.55 -39.9 7.8 -39.2 8.95 -38.05 L9.45 -37.35 Q10.15 -36.05 11.35 -35.35 L12.5 -34.85 12.65 -34.9 M12.2 -54.55 L10.8 -60.4 10.65 -61.45 10.55 -62.35 10.65 -61.45 10.8 -60.4 12.2 -54.55 M2.55 -29.35 Q5.2 -30.2 5.5 -29.15 L5.85 -28.45 Q7.75 -25.85 8.4 -23.0 9.3 -18.95 8.85 -14.45 8.35 -10.05 7.3 -5.9 8.35 -10.05 8.85 -14.45 9.3 -18.95 8.4 -23.0 7.75 -25.85 5.85 -28.45 L5.5 -29.15 Q5.2 -30.2 2.55 -29.35 M-3.9 -36.05 Q-1.4 -35.05 0.85 -33.75 1.3 -33.5 1.8 -33.4 6.3 -32.4 10.75 -34.2 L11.7 -34.5 12.45 -34.8 11.7 -34.5 10.75 -34.2 Q6.3 -32.4 1.8 -33.4 1.3 -33.5 0.85 -33.75 -1.4 -35.05 -3.9 -36.05 M3.9 -6.05 L3.55 -3.55 Q3.5 -3.35 3.75 -2.65 5.55 -3.7 7.7 -4.4 L7.25 -5.65 7.3 -5.85 7.3 -5.9 6.2 -6.1 5.45 -6.1 3.9 -6.05 -1.9 -6.45 3.9 -6.05 M15.9 -3.05 L7.95 -4.3 7.7 -4.4 7.95 -4.3 15.9 -3.05 M-1.25 -53.55 L-0.3 -53.6 -0.35 -53.5 -0.3 -53.6 -1.25 -53.55 M-26.15 -63.25 L-25.7 -63.8 -24.9 -64.65 Q-24.1 -65.4 -23.25 -65.65 -20.75 -66.65 -17.65 -67.3 -17.45 -66.45 -16.5 -66.1 -17.45 -66.45 -17.65 -67.3 -20.75 -66.65 -23.25 -65.65 -24.1 -65.4 -24.9 -64.65 L-25.7 -63.8 -26.15 -63.25 M-6.55 -82.2 L-4.55 -82.9 -6.55 -82.2 M-1.75 -91.2 Q-4.2 -93.6 -7.45 -94.95 -4.2 -93.6 -1.75 -91.2 M-5.3 -86.85 Q-4.3 -86.8 -4.35 -87.6 -4.45 -88.25 -4.9 -88.35 -7.0 -88.8 -7.35 -86.45 -7.45 -86.0 -7.2 -85.65 -6.25 -84.1 -4.65 -84.2 -3.8 -84.25 -2.8 -84.8 -2.2 -85.1 -1.9 -85.6 0.25 -88.35 -2.4 -90.25 L-3.25 -90.75 -4.65 -91.3 Q-6.95 -91.75 -8.45 -90.05 -6.95 -91.75 -4.65 -91.3 L-3.25 -90.75 -2.4 -90.25 Q0.25 -88.35 -1.9 -85.6 -2.2 -85.1 -2.8 -84.8 -3.8 -84.25 -4.65 -84.2 -6.25 -84.1 -7.2 -85.65 -7.45 -86.0 -7.35 -86.45 -7.0 -88.8 -4.9 -88.35 -4.45 -88.25 -4.35 -87.6 -4.3 -86.8 -5.3 -86.85 M4.4 -61.3 L-0.3 -53.6 4.4 -61.3 M3.2 -70.5 L-0.15 -74.75 3.2 -70.5" fill="#ffffff" fill-rule="evenodd" stroke="none"/>
    <path d="M-8.9 -78.15 L-12.15 -79.0 Q-9.6 -80.95 -6.55 -82.2 -10.65 -84.45 -9.7 -87.65 L-9.1 -89.05 -8.45 -90.05 -8.7 -91.35 -8.6 -92.95 -8.8 -94.8 Q-9.05 -95.75 -9.55 -96.55 L-16.8 -97.2 -10.8 -100.5 Q-13.35 -102.65 -14.2 -105.9 L-14.7 -106.85 -11.9 -106.65 -9.5 -105.85 Q-4.6 -104.45 0.55 -103.75 L8.25 -102.55 Q10.15 -102.2 11.95 -101.45 14.15 -100.5 15.2 -98.85 16.3 -97.15 17.8 -95.85 20.05 -94.05 21.6 -91.8 22.95 -89.85 22.65 -87.5 22.4 -86.0 21.4 -85.05 L20.15 -84.05 Q22.05 -83.3 22.9 -81.35 23.25 -80.6 22.95 -79.9 20.8 -75.35 15.35 -76.7 12.95 -77.3 12.15 -74.95 10.9 -72.2 8.95 -69.8 L7.6 -67.9 7.55 -67.85 7.05 -67.1 6.6 -66.45 Q6.0 -65.75 5.15 -65.25 2.0 -63.3 -1.05 -65.3 -4.2 -67.35 -6.05 -70.5 L-6.85 -72.2 Q-7.8 -74.65 -9.1 -77.4 M8.3 -67.4 Q9.45 -65.95 10.05 -64.15 L10.1 -64.05 10.55 -62.35 10.65 -61.45 10.8 -60.4 12.2 -54.55 12.8 -51.45 Q13.6 -47.5 13.75 -43.6 15.55 -44.65 17.1 -46.75 19.15 -49.55 16.0 -51.55 13.75 -53.0 12.2 -54.55 M11.4 -62.5 Q15.1 -59.65 19.2 -57.25 23.45 -54.7 26.0 -51.2 27.55 -49.05 28.0 -46.4 28.35 -44.3 26.5 -43.3 L18.55 -39.25 17.85 -38.7 17.0 -38.2 16.95 -38.2 Q16.1 -36.15 13.6 -35.2 L12.65 -34.9 12.45 -34.8 11.7 -34.5 10.75 -34.2 Q6.3 -32.4 1.8 -33.4 1.3 -33.5 0.85 -33.75 -1.4 -35.05 -3.9 -36.05 L-3.95 -36.1 -4.8 -36.4 -5.05 -36.55 Q-3.7 -40.25 -3.25 -44.8 -2.75 -49.5 -0.35 -53.5 L-3.35 -51.6 Q-6.25 -50.7 -9.4 -51.15 -14.35 -51.75 -18.4 -53.9 -22.6 -56.2 -25.35 -60.0 L-25.95 -60.6 Q-27.1 -61.65 -26.5 -62.7 L-26.15 -63.25 -27.55 -65.5 -28.2 -64.9 Q-30.15 -66.15 -30.6 -68.45 L-30.85 -69.4 Q-31.6 -72.5 -29.7 -75.0 -28.0 -75.25 -26.35 -74.5 -25.65 -75.1 -24.6 -75.0 -25.35 -77.75 -23.95 -80.45 -23.0 -82.25 -20.45 -81.3 L-20.95 -80.2 Q-22.5 -76.8 -20.6 -73.55 -19.1 -72.75 -18.35 -71.7 -17.55 -70.5 -17.5 -69.05 -17.85 -68.0 -17.65 -67.3 L-16.4 -67.55 Q-15.5 -67.0 -14.8 -65.75 -13.75 -63.8 -12.15 -61.75 L-10.85 -60.15 Q-9.15 -58.05 -5.35 -58.3 -2.8 -57.95 -0.5 -58.7 2.45 -59.75 4.4 -61.3 L4.75 -61.85 Q5.65 -63.25 7.2 -63.5 L7.4 -63.55 Q7.25 -65.55 6.6 -66.45 M12.8 -34.1 L16.6 -25.75 Q18.5 -21.6 19.35 -17.05 20.1 -12.7 19.8 -8.2 19.5 -4.75 18.0 -2.85 L15.9 -3.05 Q15.9 -2.1 15.05 -1.05 L14.4 -0.85 14.35 -0.85 Q10.1 0.2 4.95 -0.85 3.45 -1.15 2.9 -1.85 L2.8 -2.05 3.75 -2.65 2.75 -2.45 0.35 -2.2 -2.45 -2.3 Q-6.05 -2.4 -7.95 -4.35 -5.2 -5.65 -1.9 -6.45 2.3 -18.65 -0.9 -26.25 -4.15 -33.85 -4.2 -35.45 M-8.9 -78.15 Q-4.6 -77.25 0.0 -77.1 L-1.1 -76.55 M3.25 -80.65 Q1.7 -81.65 1.05 -83.9 -0.05 -87.65 3.55 -89.55 L4.25 -89.8 Q6.5 -90.35 8.35 -89.05 11.75 -86.7 10.9 -82.95 10.65 -82.0 9.55 -81.8 6.55 -81.1 4.5 -83.05 3.5 -86.3 5.55 -87.25 L6.35 -87.2 Q8.25 -86.4 6.95 -84.8 L6.05 -84.6 M-9.55 -96.55 L-7.0 -96.7 Q-2.2 -97.2 2.6 -98.25 3.75 -98.5 3.95 -98.65 5.95 -97.55 6.95 -96.15 M-0.15 -74.75 L3.2 -74.65 5.7 -74.65 Q5.55 -73.4 4.4 -71.7 L3.25 -70.45 3.25 -70.4 Q1.05 -68.65 -1.75 -70.4 L-1.75 -70.35 -1.8 -70.45 -1.9 -70.55 Q-4.9 -72.45 -6.4 -75.15 L-3.85 -75.0 -0.2 -74.8 -0.15 -74.75 -0.2 -74.8 Q-1.25 -72.8 -1.75 -70.4 L-1.8 -70.45 Q-2.4 -71.4 -2.6 -72.9 -2.9 -74.8 -3.85 -75.0 M20.15 -84.05 L18.7 -84.45 Q16.75 -84.75 15.45 -84.45 M3.25 -91.6 L12.85 -91.3 M3.2 -70.5 L3.55 -71.85 3.65 -72.3 Q3.9 -73.25 3.3 -73.55 M8.75 -64.15 L9.6 -63.95 M8.75 -64.15 L7.4 -63.55 M17.0 -38.2 L17.0 -38.25 Q17.4 -38.5 16.75 -39.2 15.95 -40.0 15.45 -41.05 L13.75 -43.6 13.65 -43.55 10.6 -41.35 Q9.4 -40.7 8.55 -39.9 7.8 -39.2 8.95 -38.05 L9.45 -37.35 Q10.15 -36.05 11.35 -35.35 L12.5 -34.85 12.65 -34.9 M7.3 -5.9 Q8.35 -10.05 8.85 -14.45 9.3 -18.95 8.4 -23.0 7.75 -25.85 5.85 -28.45 L5.5 -29.15 Q5.2 -30.2 2.55 -29.35 M3.75 -2.65 Q3.5 -3.35 3.55 -3.55 L3.9 -6.05 -1.9 -6.45 M7.7 -4.4 Q6.95 -4.7 7.25 -5.65 L7.3 -5.85 7.3 -5.9 M6.2 -6.1 L5.45 -6.1 3.9 -6.05 M7.7 -4.4 L7.95 -4.3 15.9 -3.05 M7.7 -4.4 Q5.55 -3.7 3.75 -2.65 M-8.45 -90.05 Q-6.95 -91.75 -4.65 -91.3 L-3.25 -90.75 -2.4 -90.25 Q0.25 -88.35 -1.9 -85.6 -2.2 -85.1 -2.8 -84.8 -3.8 -84.25 -4.65 -84.2 -6.25 -84.1 -7.2 -85.65 -7.45 -86.0 -7.35 -86.45 -7.0 -88.8 -4.9 -88.35 -4.45 -88.25 -4.35 -87.6 -4.3 -86.8 -5.3 -86.85 M-7.45 -94.95 Q-4.2 -93.6 -1.75 -91.2 M-4.55 -82.9 L-6.55 -82.2 M-25.3 -73.85 Q-23.2 -72.45 -24.4 -69.7 L-24.95 -68.25 Q-25.25 -67.35 -25.9 -66.85 L-27.55 -65.5 M-16.5 -66.1 Q-17.45 -66.45 -17.65 -67.3 -20.75 -66.65 -23.25 -65.65 -24.1 -65.4 -24.9 -64.65 L-25.7 -63.8 -26.15 -63.25 M-0.35 -53.5 L-0.3 -53.6 -1.25 -53.55 M-25.3 -73.85 L-26.35 -74.5 M-0.15 -74.75 L3.2 -70.5 M-0.3 -53.6 L4.4 -61.3" fill="none" stroke="#000000" stroke-linecap="round" stroke-linejoin="round" stroke-width="0.05"/>
  </g>
</svg>
