<?xml version="1.0" encoding="UTF-8" standalone="no"?>
<svg xmlns:ffdec="https://www.free-decompiler.com/flash" xmlns:xlink="http://www.w3.org/1999/xlink" ffdec:objectType="shape" height="104.7px" width="57.4px" xmlns="http://www.w3.org/2000/svg">
  <g transform="matrix(1.0, 0.0, 0.0, 1.0, 29.9, 104.35)">
    <path d="M21.1 -85.0 Q21.75 -82.2 21.1 -79.45 20.65 -77.95 19.9 -76.7 18.9 -75.05 17.55 -74.1 L18.15 -74.05 19.25 -73.8 19.65 -73.6 Q21.1 -71.6 19.85 -69.25 18.85 -67.5 17.1 -66.8 L16.9 -66.25 16.8 -65.2 Q16.75 -64.0 16.35 -62.9 L16.15 -62.55 Q15.65 -61.4 14.4 -60.9 L9.3 -59.25 9.05 -59.15 9.1 -58.85 Q10.6 -58.45 11.8 -57.55 L16.4 -54.55 Q18.75 -52.8 20.3 -50.55 21.9 -48.1 23.65 -45.7 L23.95 -45.2 Q25.15 -42.5 25.95 -39.9 26.4 -38.35 26.45 -36.65 L23.45 -34.2 23.25 -32.65 23.2 -32.45 23.15 -32.05 23.9 -31.9 Q24.85 -29.3 24.4 -26.2 L24.2 -25.6 24.05 -25.3 24.6 -24.85 24.55 -19.25 22.35 -10.7 Q21.6 -8.0 20.1 -5.7 19.35 -4.7 18.4 -4.05 16.75 -3.0 14.9 -2.35 15.1 -1.7 14.05 -0.85 L12.6 -0.2 Q11.3 0.35 9.8 0.35 L5.4 0.1 Q4.1 -0.1 4.5 -1.05 5.0 -2.2 6.05 -3.05 4.2 -3.55 2.75 -4.65 L2.7 -3.55 Q2.75 -2.65 2.35 -2.0 1.75 -1.15 0.9 -1.05 L-4.25 -0.8 Q-6.5 -0.9 -8.25 -1.6 L-8.5 -2.25 Q-6.55 -4.4 -3.3 -4.5 L-5.0 -5.75 Q-6.55 -6.6 -8.0 -8.0 -10.2 -9.85 -11.55 -12.5 L-14.55 -18.25 Q-15.25 -19.65 -15.35 -21.05 L-15.7 -23.55 -15.4 -24.05 -15.8 -24.3 -17.05 -25.55 Q-18.2 -27.5 -18.35 -29.8 -18.55 -32.7 -17.85 -35.55 L-13.9 -48.35 -17.3 -48.85 Q-20.15 -49.4 -22.75 -50.6 -25.25 -51.85 -26.75 -54.25 L-29.45 -59.3 -28.2 -60.4 -29.25 -63.45 Q-29.85 -65.55 -29.9 -67.7 L-29.7 -68.2 -28.1 -69.55 Q-27.0 -70.2 -25.8 -70.15 L-24.95 -69.8 Q-23.3 -68.55 -22.05 -66.8 -21.15 -65.5 -20.75 -64.25 L-20.0 -64.55 Q-19.55 -64.35 -19.25 -63.75 L-17.1 -60.15 Q-15.35 -57.9 -12.35 -57.15 -11.5 -57.0 -10.95 -57.15 L-8.5 -58.0 -7.15 -59.15 -7.0 -59.75 Q-9.15 -60.45 -11.0 -61.8 -13.15 -63.5 -14.55 -66.2 -15.85 -68.7 -15.75 -71.75 -15.7 -74.7 -14.65 -77.6 L-14.25 -78.9 Q-13.2 -80.7 -12.45 -83.25 L-12.1 -83.7 -13.75 -85.0 -7.25 -85.0 0.9 -85.0 6.3 -85.0 21.1 -85.0 M23.45 -34.2 L21.55 -32.9 18.85 -31.65 17.25 -31.45 Q16.55 -31.6 16.0 -32.0 L12.35 -43.1 Q11.6 -44.95 11.25 -46.85 L10.8 -48.25 Q10.9 -48.6 10.65 -48.65 L10.05 -49.2 Q8.95 -51.4 9.7 -54.2 10.25 -56.55 11.8 -57.55 10.25 -56.55 9.7 -54.2 8.95 -51.4 10.05 -49.2 L10.65 -48.65 Q10.9 -48.6 10.8 -48.25 L11.25 -46.85 Q11.6 -44.95 12.35 -43.1 L16.0 -32.0 Q16.55 -31.6 17.25 -31.45 L18.85 -31.65 21.55 -32.9 23.45 -34.2 M9.05 -59.15 L6.75 -58.75 6.7 -58.75 4.65 -58.5 Q2.65 -58.35 0.6 -58.5 L-7.0 -59.75 0.6 -58.5 Q2.65 -58.35 4.65 -58.5 L6.7 -58.75 6.75 -58.75 9.05 -59.15 M6.2 -58.0 L6.85 -58.1 Q6.85 -57.0 6.3 -56.0 L5.25 -54.35 4.25 -53.25 3.7 -52.9 3.65 -52.95 1.5 -56.9 Q1.15 -57.65 0.55 -57.7 -2.35 -56.25 -4.7 -54.6 L-5.1 -54.45 -5.2 -54.45 -5.25 -54.5 -5.3 -54.5 -5.5 -54.8 -5.6 -55.1 -5.7 -56.35 -5.25 -58.85 -5.7 -56.35 -5.6 -55.1 -5.5 -54.8 -5.3 -54.5 -5.25 -54.5 -5.2 -54.45 -5.1 -54.45 -4.7 -54.6 Q-2.35 -56.25 0.55 -57.7 1.15 -57.65 1.5 -56.9 L3.65 -52.95 3.7 -52.9 4.25 -53.25 5.25 -54.35 6.3 -56.0 Q6.85 -57.0 6.85 -58.1 L6.2 -58.0 M2.75 -63.9 L1.6 -62.3 -0.05 -64.1 Q-0.25 -64.3 -0.5 -64.35 L-1.05 -64.25 Q-1.25 -63.1 -2.0 -62.35 L-2.15 -62.25 -2.8 -62.35 Q-3.75 -63.15 -4.65 -64.8 L-1.65 -64.8 -0.55 -64.9 -0.15 -64.9 5.9 -65.35 Q5.15 -63.55 2.8 -62.65 L1.6 -62.3 2.8 -62.65 Q5.15 -63.55 5.9 -65.35 L-0.15 -64.9 -0.55 -64.9 -1.65 -64.8 -4.65 -64.8 Q-3.75 -63.15 -2.8 -62.35 L-2.15 -62.25 -2.0 -62.35 Q-1.25 -63.1 -1.05 -64.25 L-0.5 -64.35 Q-0.25 -64.3 -0.05 -64.1 L1.6 -62.3 2.75 -63.9 M14.1 -66.45 L15.75 -66.5 17.1 -66.8 15.75 -66.5 14.1 -66.45 Q15.15 -65.2 15.65 -63.6 15.75 -63.3 16.35 -62.9 15.75 -63.3 15.65 -63.6 15.15 -65.2 14.1 -66.45 L12.75 -66.8 12.05 -67.1 12.75 -66.8 14.1 -66.45 M7.85 -80.35 Q5.6 -82.8 2.65 -84.65 5.6 -82.8 7.85 -80.35 M4.25 -75.2 Q5.25 -74.95 5.25 -75.65 L5.1 -77.0 Q4.85 -78.3 3.6 -78.05 3.05 -78.0 2.85 -77.55 L2.65 -76.95 Q2.1 -74.65 4.05 -73.6 L5.25 -73.05 8.05 -73.2 Q10.0 -74.6 9.4 -77.0 8.7 -79.95 5.6 -80.45 2.45 -80.9 0.2 -78.65 L-0.25 -78.0 Q-1.0 -76.0 -0.5 -73.85 L-0.15 -73.1 0.75 -71.85 Q2.5 -69.35 5.55 -69.5 2.5 -69.35 0.75 -71.85 L-0.15 -73.1 -0.5 -73.85 Q-1.0 -76.0 -0.25 -78.0 L0.2 -78.65 Q2.45 -80.9 5.6 -80.45 8.7 -79.95 9.4 -77.0 10.0 -74.6 8.05 -73.2 L5.25 -73.05 4.05 -73.6 Q2.1 -74.65 2.65 -76.95 L2.85 -77.55 Q3.05 -78.0 3.6 -78.05 4.85 -78.3 5.1 -77.0 L5.25 -75.65 Q5.25 -74.95 4.25 -75.2 M-10.85 -82.6 L-9.7 -83.2 -5.3 -83.6 0.3 -84.8 0.9 -85.0 0.3 -84.8 -5.3 -83.6 -9.7 -83.2 -10.85 -82.6 M17.55 -74.1 Q17.05 -74.65 16.3 -74.25 L14.15 -73.3 Q13.35 -73.0 13.4 -73.75 13.55 -75.5 14.15 -77.0 14.5 -77.9 13.85 -78.55 L10.45 -80.7 Q8.45 -82.0 6.95 -83.7 L6.55 -84.3 6.3 -85.0 6.55 -84.3 6.95 -83.7 Q8.45 -82.0 10.45 -80.7 L13.85 -78.55 Q14.5 -77.9 14.15 -77.0 13.55 -75.5 13.4 -73.75 13.35 -73.0 14.15 -73.3 L16.3 -74.25 Q17.05 -74.65 17.55 -74.1 M-13.9 -48.35 L-13.85 -48.5 -10.7 -54.9 Q-9.9 -56.65 -8.5 -58.0 -9.9 -56.65 -10.7 -54.9 L-13.85 -48.5 -13.9 -48.35 M3.7 -52.9 L-0.45 -49.25 Q-1.8 -47.2 -3.4 -49.1 L-3.7 -49.65 -5.35 -54.35 -5.4 -54.4 -5.4 -54.45 -5.5 -54.8 -5.4 -54.45 -5.4 -54.4 -5.35 -54.35 -3.7 -49.65 -3.4 -49.1 Q-1.8 -47.2 -0.45 -49.25 L3.7 -52.9 M-4.65 -64.8 L-7.25 -65.05 -5.8 -63.5 Q-5.05 -62.95 -3.8 -62.55 L-2.8 -62.35 -2.75 -62.3 -2.8 -61.75 -2.15 -62.25 -1.75 -62.15 1.6 -62.3 -1.75 -62.15 -2.15 -62.25 -2.8 -61.75 -2.75 -62.3 -2.8 -62.35 -3.8 -62.55 Q-5.05 -62.95 -5.8 -63.5 L-7.25 -65.05 -4.65 -64.8 M-8.7 -72.25 L-7.5 -72.5 -8.7 -72.25 Q-11.0 -71.7 -12.7 -70.2 -13.8 -69.25 -12.45 -68.4 -10.05 -66.75 -7.15 -66.45 L-4.45 -66.25 -7.15 -66.45 Q-10.05 -66.75 -12.45 -68.4 -13.8 -69.25 -12.7 -70.2 -11.0 -71.7 -8.7 -72.25 -11.25 -72.45 -11.9 -74.9 L-12.3 -76.4 Q-13.15 -79.65 -10.45 -81.25 -8.5 -82.45 -6.5 -80.9 -4.2 -79.1 -4.6 -76.15 -4.7 -75.65 -5.1 -75.2 -6.8 -73.4 -8.7 -74.65 -10.0 -75.5 -10.1 -77.1 -10.15 -78.25 -9.55 -79.15 -9.4 -79.4 -9.1 -79.45 -7.35 -79.55 -7.55 -77.6 -7.65 -76.8 -8.55 -76.45 -7.65 -76.8 -7.55 -77.6 -7.35 -79.55 -9.1 -79.45 -9.4 -79.4 -9.55 -79.15 -10.15 -78.25 -10.1 -77.1 -10.0 -75.5 -8.7 -74.65 -6.8 -73.4 -5.1 -75.2 -4.7 -75.65 -4.6 -76.15 -4.2 -79.1 -6.5 -80.9 -8.5 -82.45 -10.45 -81.25 -13.15 -79.65 -12.3 -76.4 L-11.9 -74.9 Q-11.25 -72.45 -8.7 -72.25 M-28.0 -59.95 L-28.2 -60.4 -28.0 -60.55 -25.3 -62.15 -20.75 -64.25 -25.3 -62.15 -28.0 -60.55 -28.2 -60.4 -28.0 -59.95 M-7.25 -85.0 L-9.7 -83.2 -10.75 -83.25 -11.95 -83.6 -12.1 -83.7 -11.95 -83.6 -10.75 -83.25 -9.7 -83.2 -7.25 -85.0 M14.9 -2.35 L14.15 -2.15 Q14.15 -1.95 13.5 -1.9 L6.05 -3.05 13.5 -1.9 Q14.15 -1.95 14.15 -2.15 L14.9 -2.35 M7.45 -5.4 L6.85 -5.7 3.65 -5.85 6.85 -5.7 7.45 -5.4 M2.75 -4.65 L2.75 -4.7 Q1.25 -3.5 0.15 -3.55 L-2.15 -4.05 -3.3 -4.5 -2.15 -4.05 0.15 -3.55 Q1.25 -3.5 2.75 -4.7 L1.4 -5.9 Q-0.4 -7.85 -1.5 -10.5 -2.6 -13.2 -3.15 -16.05 -2.6 -13.2 -1.5 -10.5 -0.4 -7.85 1.4 -5.9 L2.75 -4.7 2.75 -4.65 M24.05 -25.3 Q22.95 -23.15 20.2 -22.25 L12.9 -20.1 7.7 -19.3 2.15 -19.45 -10.65 -21.95 Q-13.25 -22.6 -15.4 -24.05 -13.25 -22.6 -10.65 -21.95 L2.15 -19.45 7.7 -19.3 12.9 -20.1 20.2 -22.25 Q22.95 -23.15 24.05 -25.3 M17.0 -30.85 Q17.2 -29.45 18.25 -27.95 19.5 -26.35 21.3 -27.4 21.85 -27.75 22.15 -28.45 L23.15 -32.05 22.15 -28.45 Q21.85 -27.75 21.3 -27.4 19.5 -26.35 18.25 -27.95 17.2 -29.45 17.0 -30.85" fill="#ffffff" fill-rule="evenodd" stroke="none"/>
    <path d="M21.1 -85.0 Q21.75 -82.2 21.1 -79.45 20.65 -77.95 19.9 -76.7 18.9 -75.05 17.55 -74.1 L18.15 -74.05 19.25 -73.8 19.65 -73.6 Q21.1 -71.6 19.85 -69.25 18.85 -67.5 17.1 -66.8 L16.9 -66.25 16.8 -65.2 Q16.75 -64.0 16.35 -62.9 L16.15 -62.55 Q15.65 -61.4 14.4 -60.9 L9.3 -59.25 9.05 -59.15 6.75 -58.75 6.7 -58.75 4.65 -58.5 Q2.65 -58.35 0.6 -58.5 L-7.0 -59.75 Q-9.15 -60.45 -11.0 -61.8 -13.15 -63.5 -14.55 -66.2 -15.85 -68.7 -15.75 -71.75 -15.7 -74.7 -14.65 -77.6 L-14.25 -78.9 Q-13.2 -80.7 -12.45 -83.25 M9.1 -58.85 Q10.6 -58.45 11.8 -57.55 L16.4 -54.55 Q18.75 -52.8 20.3 -50.55 21.9 -48.1 23.65 -45.7 L23.95 -45.2 Q25.15 -42.5 25.95 -39.9 26.4 -38.35 26.45 -36.65 L23.45 -34.2 23.25 -32.65 23.55 -32.35 23.9 -31.9 Q24.85 -29.3 24.4 -26.2 L24.2 -25.6 24.05 -25.3 Q22.95 -23.15 20.2 -22.25 L12.9 -20.1 7.7 -19.3 2.15 -19.45 -10.65 -21.95 Q-13.25 -22.6 -15.4 -24.05 L-15.8 -24.3 -17.05 -25.55 Q-18.2 -27.5 -18.35 -29.8 -18.55 -32.7 -17.85 -35.55 L-13.9 -48.35 -17.3 -48.85 Q-20.15 -49.4 -22.75 -50.6 -25.25 -51.85 -26.75 -54.25 L-29.45 -59.3 -28.2 -60.4 -29.25 -63.45 Q-29.85 -65.55 -29.9 -67.7 L-29.7 -68.2 -28.1 -69.55 Q-27.0 -70.2 -25.8 -70.15 L-24.95 -69.8 Q-23.3 -68.55 -22.05 -66.8 -21.15 -65.5 -20.75 -64.25 L-20.0 -64.55 Q-19.55 -64.35 -19.25 -63.75 L-17.1 -60.15 Q-15.35 -57.9 -12.35 -57.15 -11.5 -57.0 -10.95 -57.15 L-8.5 -58.0 -7.15 -59.15 M24.6 -24.85 L24.55 -19.25 22.35 -10.7 Q21.6 -8.0 20.1 -5.7 19.35 -4.7 18.4 -4.05 16.75 -3.0 14.9 -2.35 15.1 -1.7 14.05 -0.85 L12.6 -0.2 Q11.3 0.35 9.8 0.35 L5.4 0.1 Q4.1 -0.1 4.5 -1.05 5.0 -2.2 6.05 -3.05 4.2 -3.55 2.75 -4.65 L2.75 -4.7 1.4 -5.9 Q-0.4 -7.85 -1.5 -10.5 -2.6 -13.2 -3.15 -16.05 M2.7 -3.55 Q2.75 -2.65 2.35 -2.0 1.75 -1.15 0.9 -1.05 L-4.25 -0.8 Q-6.5 -0.9 -8.25 -1.6 -8.85 -1.9 -8.5 -2.25 -6.55 -4.4 -3.3 -4.5 L-5.0 -5.75 Q-6.55 -6.6 -8.0 -8.0 -10.2 -9.85 -11.55 -12.5 L-14.55 -18.25 Q-15.25 -19.65 -15.35 -21.05 L-15.7 -23.55 M-12.1 -83.7 L-13.75 -85.0 M6.3 -85.0 L6.55 -84.3 6.95 -83.7 Q8.45 -82.0 10.45 -80.7 L13.85 -78.55 Q14.5 -77.9 14.15 -77.0 13.55 -75.5 13.4 -73.75 13.35 -73.0 14.15 -73.3 L16.3 -74.25 Q17.05 -74.65 17.55 -74.1 M0.9 -85.0 L0.3 -84.8 -5.3 -83.6 -9.7 -83.2 -10.85 -82.6 M5.55 -69.5 Q2.5 -69.35 0.75 -71.85 L-0.15 -73.1 -0.5 -73.85 Q-1.0 -76.0 -0.25 -78.0 L0.2 -78.65 Q2.45 -80.9 5.6 -80.45 8.7 -79.95 9.4 -77.0 10.0 -74.6 8.05 -73.2 L5.25 -73.05 4.05 -73.6 Q2.1 -74.65 2.65 -76.95 L2.85 -77.55 Q3.05 -78.0 3.6 -78.05 4.85 -78.3 5.1 -77.0 L5.25 -75.65 Q5.25 -74.95 4.25 -75.2 M2.65 -84.65 Q5.6 -82.8 7.85 -80.35 M16.35 -62.9 Q15.75 -63.3 15.65 -63.6 15.15 -65.2 14.1 -66.45 L12.75 -66.8 12.05 -67.1 M17.1 -66.8 L15.75 -66.5 14.1 -66.45 M1.6 -62.3 L2.8 -62.65 Q5.15 -63.55 5.9 -65.35 L-0.15 -64.9 -0.55 -64.9 -1.65 -64.8 -4.65 -64.8 Q-3.75 -63.15 -2.8 -62.35 L-2.15 -62.25 -2.0 -62.35 Q-1.25 -63.1 -1.05 -64.25 L-0.5 -64.35 Q-0.25 -64.3 -0.05 -64.1 L1.6 -62.3 2.75 -63.9 M-5.25 -58.85 L-5.7 -56.35 -5.6 -55.1 -5.5 -54.8 -5.3 -54.5 -5.25 -54.5 -5.2 -54.45 -5.1 -54.45 -4.7 -54.6 Q-2.35 -56.25 0.55 -57.7 1.15 -57.65 1.5 -56.9 L3.65 -52.95 3.7 -52.9 4.25 -53.25 5.25 -54.35 6.3 -56.0 Q6.85 -57.0 6.85 -58.1 L6.2 -58.0 M11.8 -57.55 Q10.25 -56.55 9.7 -54.2 8.95 -51.4 10.05 -49.2 L10.65 -48.65 Q10.9 -48.6 10.8 -48.25 L11.25 -46.85 Q11.6 -44.95 12.35 -43.1 L16.0 -32.0 Q16.55 -31.6 17.25 -31.45 L18.85 -31.65 21.55 -32.9 23.45 -34.2 M23.25 -32.65 L23.2 -32.45 23.15 -32.05 22.15 -28.45 Q21.85 -27.75 21.3 -27.4 19.5 -26.35 18.25 -27.95 17.2 -29.45 17.0 -30.85 M-3.3 -4.5 L-2.15 -4.05 0.15 -3.55 Q1.25 -3.5 2.75 -4.7 M3.65 -5.85 L6.85 -5.7 7.45 -5.4 M6.05 -3.05 L13.5 -1.9 Q14.15 -1.95 14.15 -2.15 L14.9 -2.35 M-4.45 -66.25 L-7.15 -66.45 Q-10.05 -66.75 -12.45 -68.4 -13.8 -69.25 -12.7 -70.2 -11.0 -71.7 -8.7 -72.25 -11.25 -72.45 -11.9 -74.9 L-12.3 -76.4 Q-13.15 -79.65 -10.45 -81.25 -8.5 -82.45 -6.5 -80.9 -4.2 -79.1 -4.6 -76.15 -4.7 -75.65 -5.1 -75.2 -6.8 -73.4 -8.7 -74.65 -10.0 -75.5 -10.1 -77.1 -10.15 -78.25 -9.55 -79.15 -9.4 -79.4 -9.1 -79.45 -7.35 -79.55 -7.55 -77.6 -7.65 -76.8 -8.55 -76.45 M-9.7 -83.2 L-10.75 -83.25 -11.95 -83.6 -12.1 -83.7 M-9.7 -83.2 L-7.25 -85.0 M-20.75 -64.25 L-25.3 -62.15 -28.0 -60.55 -28.2 -60.4 -28.0 -59.95 M-7.5 -72.5 L-8.7 -72.25 M1.6 -62.3 L-1.75 -62.15 -2.15 -62.25 -2.8 -61.75 -2.75 -62.3 -2.8 -62.35 -3.8 -62.55 Q-5.05 -62.95 -5.8 -63.5 L-7.25 -65.05 -4.65 -64.8 M-5.5 -54.8 L-5.4 -54.45 -5.4 -54.4 -5.35 -54.35 -3.7 -49.65 -3.4 -49.1 Q-1.8 -47.2 -0.45 -49.25 L3.7 -52.9 M-8.5 -58.0 Q-9.9 -56.65 -10.7 -54.9 L-13.85 -48.5 -13.9 -48.35" fill="none" stroke="#000000" stroke-linecap="round" stroke-linejoin="round" stroke-width="0.05"/>
    <path d="M15.95 -98.8 Q18.5 -94.65 19.6 -89.95 19.75 -89.15 20.05 -88.5 23.7 -91.05 27.5 -91.75 27.5 -89.6 25.3 -88.7 24.0 -88.25 23.3 -87.25 L22.15 -86.25 21.3 -85.25 Q17.6 -83.05 12.7 -83.2 L8.2 -83.25 -1.35 -83.0 -6.85 -83.65 Q-11.3 -84.75 -15.6 -86.4 -16.3 -86.7 -16.55 -87.4 L-16.55 -87.6 -18.6 -88.95 Q-20.25 -90.1 -21.25 -91.65 -22.5 -93.55 -20.15 -93.1 -18.4 -92.75 -16.65 -91.8 -15.15 -90.95 -15.05 -89.65 -13.55 -93.95 -10.7 -97.55 L-8.4 -100.05 Q-4.85 -103.75 0.3 -104.25 5.15 -104.7 9.85 -103.35 11.35 -102.9 12.65 -102.15 14.7 -100.95 15.95 -98.8 M-8.5 -92.75 Q-9.0 -93.35 -9.85 -93.45 -10.7 -93.55 -11.35 -93.05 -11.95 -92.5 -12.05 -91.7 -12.1 -90.95 -11.6 -90.35 -11.1 -89.7 -10.25 -89.6 -9.4 -89.5 -8.75 -90.05 -8.1 -90.55 -8.05 -91.3 -7.95 -92.1 -8.5 -92.75 -7.95 -92.1 -8.05 -91.3 -8.1 -90.55 -8.75 -90.05 -9.4 -89.5 -10.25 -89.6 -11.1 -89.7 -11.6 -90.35 -12.1 -90.95 -12.05 -91.7 -11.95 -92.5 -11.35 -93.05 -10.7 -93.55 -9.85 -93.45 -9.0 -93.35 -8.5 -92.75 M1.5 -88.9 Q1.6 -88.1 3.0 -88.65 4.95 -89.35 3.05 -91.0 1.2 -92.8 -0.15 -90.45 -0.55 -89.75 -0.1 -89.2 L0.7 -88.5 -0.1 -89.2 Q-0.55 -89.75 -0.15 -90.45 1.2 -92.8 3.05 -91.0 4.95 -89.35 3.0 -88.65 1.6 -88.1 1.5 -88.9 M15.4 -89.15 Q16.05 -89.7 16.15 -90.55 16.25 -91.4 15.7 -92.1 15.25 -92.75 14.45 -92.85 13.65 -92.95 12.95 -92.4 12.35 -91.8 12.25 -90.95 12.15 -90.1 12.65 -89.45 13.2 -88.75 14.0 -88.65 14.8 -88.55 15.4 -89.15 14.8 -88.55 14.0 -88.65 13.2 -88.75 12.65 -89.45 12.15 -90.1 12.25 -90.95 12.35 -91.8 12.95 -92.4 13.65 -92.95 14.45 -92.85 15.25 -92.75 15.7 -92.1 16.25 -91.4 16.15 -90.55 16.05 -89.7 15.4 -89.15 M20.55 -87.55 L20.05 -88.5 20.55 -87.55 22.15 -86.25 20.55 -87.55 Q17.55 -89.4 13.7 -87.8 9.5 -86.05 4.5 -86.55 L-4.7 -87.45 Q-9.8 -87.85 -14.3 -89.55 L-15.05 -89.65 Q-17.2 -89.75 -16.55 -87.6 -17.2 -89.75 -15.05 -89.65 L-14.3 -89.55 Q-9.8 -87.85 -4.7 -87.45 L4.5 -86.55 Q9.5 -86.05 13.7 -87.8 17.55 -89.4 20.55 -87.55" fill="#ffffff" fill-rule="evenodd" stroke="none"/>
    <path d="M15.95 -98.8 Q18.5 -94.65 19.6 -89.95 19.75 -89.15 20.05 -88.5 23.7 -91.05 27.5 -91.75 27.5 -89.6 25.3 -88.7 24.0 -88.25 23.3 -87.25 L22.15 -86.25 21.3 -85.25 Q17.6 -83.05 12.7 -83.2 L8.2 -83.25 -1.35 -83.0 -6.85 -83.65 Q-11.3 -84.75 -15.6 -86.4 -16.3 -86.7 -16.55 -87.4 L-16.55 -87.6 -18.6 -88.95 Q-20.25 -90.1 -21.25 -91.65 -22.5 -93.55 -20.15 -93.1 -18.4 -92.75 -16.65 -91.8 -15.15 -90.95 -15.05 -89.65 -13.55 -93.95 -10.7 -97.55 L-8.4 -100.05 Q-4.85 -103.75 0.3 -104.25 5.15 -104.7 9.85 -103.35 11.35 -102.9 12.65 -102.15 14.7 -100.95 15.95 -98.8 M22.15 -86.25 L20.55 -87.55 Q17.55 -89.4 13.7 -87.8 9.5 -86.05 4.5 -86.55 L-4.7 -87.45 Q-9.8 -87.85 -14.3 -89.55 L-15.05 -89.65 Q-17.2 -89.75 -16.55 -87.6 M20.05 -88.5 L20.55 -87.55 M15.4 -89.15 Q14.8 -88.55 14.0 -88.65 13.2 -88.75 12.65 -89.45 12.15 -90.1 12.25 -90.95 12.35 -91.8 12.95 -92.4 13.65 -92.95 14.45 -92.85 15.25 -92.75 15.7 -92.1 16.25 -91.4 16.15 -90.55 16.05 -89.7 15.4 -89.15 M0.7 -88.5 L-0.1 -89.2 Q-0.55 -89.75 -0.15 -90.45 1.2 -92.8 3.05 -91.0 4.95 -89.35 3.0 -88.65 1.6 -88.1 1.5 -88.9 M-8.5 -92.75 Q-7.95 -92.1 -8.05 -91.3 -8.1 -90.55 -8.75 -90.05 -9.4 -89.5 -10.25 -89.6 -11.1 -89.7 -11.6 -90.35 -12.1 -90.95 -12.05 -91.7 -11.95 -92.5 -11.35 -93.05 -10.7 -93.55 -9.85 -93.45 -9.0 -93.35 -8.5 -92.75 Z" fill="none" stroke="#000000" stroke-linecap="round" stroke-linejoin="round" stroke-width="0.05"/>
  </g>
</svg>
