<?xml version="1.0" encoding="UTF-8" standalone="no"?>
<svg xmlns:ffdec="https://www.free-decompiler.com/flash" xmlns:xlink="http://www.w3.org/1999/xlink" ffdec:objectType="shape" height="102.1px" width="63.85px" xmlns="http://www.w3.org/2000/svg">
  <g transform="matrix(1.0, 0.0, 0.0, 1.0, 27.2, 101.4)">
    <path d="M-13.7 -52.35 L-8.5 -58.0 Q-6.9 -56.65 -7.0 -53.85 L-7.0 -52.4 Q-6.85 -48.45 -7.0 -44.45 -7.05 -41.5 -7.85 -38.65 -8.85 -35.0 -11.55 -32.45 -14.5 -29.65 -18.15 -31.05 -19.15 -31.5 -19.65 -32.45 -21.35 -35.55 -20.4 -38.75 -19.2 -42.6 -17.4 -46.4 -16.05 -49.65 -13.7 -52.35" fill="#ffffff" fill-rule="evenodd" stroke="none"/>
    <path d="M-13.7 -52.35 Q-16.05 -49.65 -17.4 -46.4 -19.2 -42.6 -20.4 -38.75 -21.35 -35.55 -19.65 -32.45 -19.15 -31.5 -18.15 -31.05 -14.5 -29.65 -11.55 -32.45 -8.85 -35.0 -7.85 -38.65 -7.05 -41.5 -7.0 -44.45 -6.85 -48.45 -7.0 -52.4 L-7.0 -53.85 Q-6.9 -56.65 -8.5 -58.0 L-13.7 -52.35 Z" fill="none" stroke="#000000" stroke-linecap="round" stroke-linejoin="round" stroke-width="0.05"/>
    <path d="M5.65 -89.55 Q7.65 -90.85 10.05 -91.15 L14.75 -91.25 Q16.75 -91.1 18.35 -89.7 20.45 -87.95 21.1 -85.05 21.75 -82.25 21.1 -79.45 20.65 -77.95 19.9 -76.7 18.9 -75.05 17.55 -74.1 L18.15 -74.05 19.25 -73.8 19.65 -73.6 Q21.1 -71.6 19.85 -69.25 18.85 -67.5 17.1 -66.8 L16.9 -66.25 16.8 -65.2 Q16.75 -64.0 16.35 -62.9 L16.15 -62.55 Q15.65 -61.4 14.4 -60.9 L9.3 -59.25 9.05 -59.15 9.25 -59.05 11.8 -57.55 Q20.15 -48.9 22.4 -37.3 23.05 -34.1 23.15 -30.55 L23.35 -25.35 24.6 -24.85 24.7 -23.35 24.65 -22.05 24.65 -20.85 24.1 -19.2 Q23.1 -15.55 24.15 -11.8 L21.4 -11.3 14.7 -10.9 Q15.05 -6.75 14.75 -4.75 14.4 -2.8 14.9 -2.35 L14.9 -1.75 Q10.85 1.9 5.05 0.1 L4.45 -0.6 Q10.45 -4.0 7.5 -10.9 L7.35 -10.9 7.0 -10.9 2.75 -10.6 2.75 -9.75 2.75 -4.65 2.7 -3.55 Q2.75 -2.65 2.35 -2.0 1.75 -1.15 0.9 -1.05 L-4.25 -0.8 Q-6.5 -0.9 -8.25 -1.6 L-8.5 -2.25 Q-6.55 -4.4 -3.3 -4.5 -3.0 -6.6 -3.35 -9.45 L-4.45 -11.7 -9.3 -11.4 -9.8 -11.35 -11.4 -11.25 -15.3 -11.0 -17.1 -22.35 -18.05 -28.0 -18.35 -29.8 Q-18.55 -32.7 -17.85 -35.55 L-13.85 -48.5 -10.7 -54.9 Q-9.9 -56.65 -8.5 -58.0 L-7.15 -59.15 -7.0 -59.75 -5.8 -59.45 0.6 -58.5 Q2.65 -58.35 4.65 -58.5 L6.7 -58.75 6.75 -58.75 9.05 -59.15 6.75 -58.75 6.7 -58.75 4.65 -58.5 Q2.65 -58.35 0.6 -58.5 L-5.8 -59.45 -7.0 -59.75 Q-9.15 -60.45 -11.0 -61.8 -13.15 -63.5 -14.55 -66.2 -15.85 -68.7 -15.75 -71.75 -15.7 -74.7 -14.65 -77.6 L-14.25 -78.9 Q-13.2 -80.7 -12.45 -83.25 L-12.1 -83.7 Q-14.65 -85.1 -15.2 -87.85 L-15.25 -88.7 Q-15.3 -91.8 -13.05 -93.95 -10.95 -96.0 -8.05 -96.35 -5.25 -96.75 -2.7 -95.75 -0.55 -94.95 1.25 -93.6 3.35 -92.0 4.5 -89.6 L4.95 -89.05 5.65 -89.55 M24.1 -19.2 Q23.15 -20.0 21.2 -20.55 L18.8 -21.25 17.6 -19.55 16.0 -17.45 13.85 -15.05 Q13.0 -14.05 12.05 -13.6 L12.15 -14.75 12.45 -17.4 Q12.55 -19.6 13.25 -21.2 L12.25 -21.15 Q8.05 -20.65 3.8 -21.05 L7.15 -24.8 7.5 -25.2 8.25 -26.0 7.5 -25.2 7.15 -24.8 3.8 -21.05 Q8.05 -20.65 12.25 -21.15 L13.25 -21.2 Q12.55 -19.6 12.45 -17.4 L12.15 -14.75 12.05 -13.6 Q13.0 -14.05 13.85 -15.05 L16.0 -17.45 17.6 -19.55 18.8 -21.25 21.2 -20.55 Q23.15 -20.0 24.1 -19.2 M-4.65 -64.8 L-7.25 -65.05 -5.8 -63.5 Q-5.05 -62.95 -3.8 -62.55 L-2.8 -62.35 -2.75 -62.3 -2.8 -61.75 -2.15 -62.25 -1.75 -62.15 1.6 -62.3 -0.05 -64.1 Q-0.25 -64.3 -0.5 -64.35 L-1.05 -64.25 Q-1.25 -63.1 -2.0 -62.35 L-2.15 -62.25 -2.8 -62.35 Q-3.75 -63.15 -4.65 -64.8 L-1.65 -64.8 -0.55 -64.9 -0.15 -64.9 1.95 -65.1 2.1 -65.1 5.9 -65.35 Q5.15 -63.55 2.8 -62.65 L1.6 -62.3 2.75 -63.9 1.6 -62.3 2.8 -62.65 Q5.15 -63.55 5.9 -65.35 L2.1 -65.1 1.95 -65.1 -0.15 -64.9 -0.55 -64.9 -1.65 -64.8 -4.65 -64.8 Q-3.75 -63.15 -2.8 -62.35 L-2.15 -62.25 -2.0 -62.35 Q-1.25 -63.1 -1.05 -64.25 L-0.5 -64.35 Q-0.25 -64.3 -0.05 -64.1 L1.6 -62.3 -1.75 -62.15 -2.15 -62.25 -2.8 -61.75 -2.75 -62.3 -2.8 -62.35 -3.8 -62.55 Q-5.05 -62.95 -5.8 -63.5 L-7.25 -65.05 -4.65 -64.8 M14.1 -66.45 L15.75 -66.5 17.1 -66.8 15.75 -66.5 14.1 -66.45 Q15.15 -65.2 15.65 -63.6 15.75 -63.3 16.35 -62.9 15.75 -63.3 15.65 -63.6 15.15 -65.2 14.1 -66.45 L12.75 -66.8 12.05 -67.1 12.75 -66.8 14.1 -66.45 M7.85 -80.35 Q5.6 -82.8 2.65 -84.65 5.6 -82.8 7.85 -80.35 M4.25 -75.2 Q5.25 -74.95 5.25 -75.65 L5.1 -77.0 Q4.85 -78.3 3.6 -78.05 3.05 -78.0 2.85 -77.55 L2.65 -76.95 Q2.1 -74.65 4.05 -73.6 L5.25 -73.05 8.05 -73.2 Q10.0 -74.6 9.4 -77.0 8.7 -79.95 5.6 -80.45 2.45 -80.9 0.2 -78.65 L-0.25 -78.0 Q-1.0 -76.0 -0.5 -73.85 L-0.15 -73.1 0.75 -71.85 Q2.5 -69.35 5.55 -69.5 2.5 -69.35 0.75 -71.85 L-0.15 -73.1 -0.5 -73.85 Q-1.0 -76.0 -0.25 -78.0 L0.2 -78.65 Q2.45 -80.9 5.6 -80.45 8.7 -79.95 9.4 -77.0 10.0 -74.6 8.05 -73.2 L5.25 -73.05 4.05 -73.6 Q2.1 -74.65 2.65 -76.95 L2.85 -77.55 Q3.05 -78.0 3.6 -78.05 4.85 -78.3 5.1 -77.0 L5.25 -75.65 Q5.25 -74.95 4.25 -75.2 M-10.85 -82.6 L-9.7 -83.2 -5.3 -83.6 0.3 -84.8 1.65 -85.25 Q3.4 -86.15 4.55 -87.2 3.4 -86.15 1.65 -85.25 L0.3 -84.8 -5.3 -83.6 -9.7 -83.2 -10.85 -82.6 M17.55 -74.1 Q17.05 -74.65 16.3 -74.25 L14.15 -73.3 Q13.35 -73.0 13.4 -73.75 13.55 -75.5 14.15 -77.0 14.5 -77.9 13.85 -78.55 L10.45 -80.7 Q8.45 -82.0 6.95 -83.7 L6.55 -84.3 Q6.1 -85.65 5.2 -86.65 6.1 -85.65 6.55 -84.3 L6.95 -83.7 Q8.45 -82.0 10.45 -80.7 L13.85 -78.55 Q14.5 -77.9 14.15 -77.0 13.55 -75.5 13.4 -73.75 13.35 -73.0 14.15 -73.3 L16.3 -74.25 Q17.05 -74.65 17.55 -74.1 M24.7 -23.35 L24.65 -23.25 24.65 -22.05 Q23.75 -23.6 22.15 -25.15 23.75 -23.6 24.65 -22.05 L24.65 -23.25 24.7 -23.35 M2.55 -10.55 L1.2 -10.45 Q1.55 -9.75 1.8 -10.45 2.15 -9.75 2.75 -9.75 L2.55 -10.55 2.75 -10.6 2.55 -10.55 2.75 -9.75 Q2.15 -9.75 1.8 -10.45 1.55 -9.75 1.2 -10.45 L0.6 -10.4 0.5 -10.1 0.6 -10.4 1.2 -10.45 2.55 -10.55 M-4.45 -11.7 L-2.0 -11.85 -1.5 -10.5 -1.4 -10.3 0.6 -10.4 0.65 -10.65 2.0 -16.4 -0.05 -14.85 -0.4 -14.5 Q-1.25 -13.6 -2.45 -13.2 L-3.15 -16.05 Q-5.2 -16.55 -4.8 -19.0 -4.95 -22.1 -5.5 -24.45 -4.95 -22.1 -4.8 -19.0 -5.2 -16.55 -3.15 -16.05 L-2.45 -13.2 Q-1.25 -13.6 -0.4 -14.5 L-0.05 -14.85 2.0 -16.4 0.65 -10.65 0.6 -10.4 -1.4 -10.3 -1.5 -10.5 -2.0 -11.85 -4.45 -11.7 M14.7 -10.9 L7.5 -10.9 7.45 -11.25 7.35 -10.9 7.45 -11.25 7.5 -10.9 14.7 -10.9 M-6.7 -85.4 L-9.7 -83.2 -10.75 -83.25 -11.95 -83.6 -12.1 -83.7 -11.95 -83.6 -10.75 -83.25 -9.7 -83.2 -6.7 -85.4 M-8.7 -72.25 L-7.5 -72.5 -8.7 -72.25 Q-11.0 -71.7 -12.7 -70.2 -13.8 -69.25 -12.45 -68.4 -10.05 -66.75 -7.15 -66.45 L-4.45 -66.25 -7.15 -66.45 Q-10.05 -66.75 -12.45 -68.4 -13.8 -69.25 -12.7 -70.2 -11.0 -71.7 -8.7 -72.25 -11.25 -72.45 -11.9 -74.9 L-12.3 -76.4 Q-13.15 -79.65 -10.45 -81.25 -8.5 -82.45 -6.5 -80.9 -4.2 -79.1 -4.6 -76.15 -4.7 -75.65 -5.1 -75.2 -6.8 -73.4 -8.7 -74.65 -10.0 -75.5 -10.1 -77.1 -10.15 -78.25 -9.55 -79.15 -9.4 -79.4 -9.1 -79.45 -7.35 -79.55 -7.55 -77.6 -7.65 -76.8 -8.55 -76.45 -7.65 -76.8 -7.55 -77.6 -7.35 -79.55 -9.1 -79.45 -9.4 -79.4 -9.55 -79.15 -10.15 -78.25 -10.1 -77.1 -10.0 -75.5 -8.7 -74.65 -6.8 -73.4 -5.1 -75.2 -4.7 -75.65 -4.6 -76.15 -4.2 -79.1 -6.5 -80.9 -8.5 -82.45 -10.45 -81.25 -13.15 -79.65 -12.3 -76.4 L-11.9 -74.9 Q-11.25 -72.45 -8.7 -72.25 M-11.4 -11.25 Q-11.1 -11.75 -11.05 -12.45 -11.05 -13.2 -10.45 -13.2 L-9.05 -13.0 -8.1 -12.8 -5.0 -12.6 -8.9 -15.8 -9.35 -16.1 Q-9.7 -16.3 -9.7 -16.55 L-9.55 -17.45 -9.35 -17.85 -7.45 -22.35 -7.9 -22.15 Q-10.1 -20.6 -13.0 -19.2 L-17.1 -22.35 -13.0 -19.2 Q-10.1 -20.6 -7.9 -22.15 L-7.45 -22.35 -9.35 -17.85 -9.55 -17.45 -9.7 -16.55 Q-9.7 -16.3 -9.35 -16.1 L-8.9 -15.8 -5.0 -12.6 -8.1 -12.8 -9.05 -13.0 -10.45 -13.2 Q-11.05 -13.2 -11.05 -12.45 -11.1 -11.75 -11.4 -11.25 M-9.5 -46.95 Q-10.5 -47.35 -10.7 -46.75 -10.5 -47.35 -9.5 -46.95 M-9.8 -33.3 Q-8.85 -32.8 -8.1 -32.15 L-9.15 -30.85 -8.1 -32.15 Q-8.85 -32.8 -9.8 -33.3 M-6.85 -30.55 L-8.1 -32.15 -6.35 -33.6 -8.1 -32.15 -6.85 -30.55 M23.35 -25.35 L-18.0 -28.0 -18.05 -28.0 -18.0 -28.0 23.35 -25.35 M1.1 -46.15 L-1.2 -46.15 1.1 -46.15 M-2.0 -11.85 L-2.45 -13.2 -2.0 -11.85" fill="#ffffff" fill-rule="evenodd" stroke="none"/>
    <path d="M5.65 -89.55 Q7.65 -90.85 10.05 -91.15 L14.75 -91.25 Q16.75 -91.1 18.35 -89.7 20.45 -87.95 21.1 -85.05 21.75 -82.25 21.1 -79.45 20.65 -77.95 19.9 -76.7 18.9 -75.05 17.55 -74.1 L18.15 -74.05 19.25 -73.8 19.65 -73.6 Q21.1 -71.6 19.85 -69.25 18.85 -67.5 17.1 -66.8 L16.9 -66.25 16.8 -65.2 Q16.75 -64.0 16.35 -62.9 L16.15 -62.55 Q15.65 -61.4 14.4 -60.9 L9.3 -59.25 9.05 -59.15 9.25 -59.05 11.8 -57.55 Q20.15 -48.9 22.4 -37.3 23.05 -34.1 23.15 -30.55 L23.35 -25.35 -18.0 -28.0 -18.05 -28.0 -18.35 -29.8 Q-18.55 -32.7 -17.85 -35.55 L-13.85 -48.5 -10.7 -54.9 Q-9.9 -56.65 -8.5 -58.0 L-7.15 -59.15 M24.6 -24.85 L24.7 -23.35 24.65 -22.05 24.65 -20.85 24.1 -19.2 Q23.1 -15.55 24.15 -11.8 L21.4 -11.3 14.7 -10.9 Q15.05 -6.75 14.75 -4.75 14.4 -2.8 14.9 -2.35 L14.9 -1.75 Q10.85 1.9 5.05 0.1 L4.45 -0.6 Q10.45 -4.0 7.5 -10.9 L7.35 -10.9 Q7.15 -10.35 7.0 -10.9 L2.75 -10.6 2.75 -9.75 2.75 -4.65 M2.7 -3.55 Q2.75 -2.65 2.35 -2.0 1.75 -1.15 0.9 -1.05 L-4.25 -0.8 Q-6.5 -0.9 -8.25 -1.6 -8.85 -1.9 -8.5 -2.25 -6.55 -4.4 -3.3 -4.5 -3.0 -6.6 -3.35 -9.45 L-4.45 -11.7 -9.3 -11.4 Q-9.3 -10.9 -9.8 -11.35 L-11.4 -11.25 -11.6 -10.95 M-12.1 -83.7 Q-14.65 -85.1 -15.2 -87.85 L-15.25 -88.7 Q-15.3 -91.8 -13.05 -93.95 -10.95 -96.0 -8.05 -96.35 -5.25 -96.75 -2.7 -95.75 -0.55 -94.95 1.25 -93.6 3.35 -92.0 4.5 -89.6 L4.95 -89.05 M5.2 -86.65 Q6.1 -85.65 6.55 -84.3 L6.95 -83.7 Q8.45 -82.0 10.45 -80.7 L13.85 -78.55 Q14.5 -77.9 14.15 -77.0 13.55 -75.5 13.4 -73.75 13.35 -73.0 14.15 -73.3 L16.3 -74.25 Q17.05 -74.65 17.55 -74.1 M4.55 -87.2 Q3.4 -86.15 1.65 -85.25 L0.3 -84.8 -5.3 -83.6 -9.7 -83.2 -10.85 -82.6 M5.55 -69.5 Q2.5 -69.35 0.75 -71.85 L-0.15 -73.1 -0.5 -73.85 Q-1.0 -76.0 -0.25 -78.0 L0.2 -78.65 Q2.45 -80.9 5.6 -80.45 8.7 -79.95 9.4 -77.0 10.0 -74.6 8.05 -73.2 L5.25 -73.05 4.05 -73.6 Q2.1 -74.65 2.65 -76.95 L2.85 -77.55 Q3.05 -78.0 3.6 -78.05 4.85 -78.3 5.1 -77.0 L5.25 -75.65 Q5.25 -74.95 4.25 -75.2 M2.65 -84.65 Q5.6 -82.8 7.85 -80.35 M16.35 -62.9 Q15.75 -63.3 15.65 -63.6 15.15 -65.2 14.1 -66.45 L12.75 -66.8 12.05 -67.1 M17.1 -66.8 L15.75 -66.5 14.1 -66.45 M2.75 -63.9 L1.6 -62.3 2.8 -62.65 Q5.15 -63.55 5.9 -65.35 L2.1 -65.1 1.95 -65.1 -0.15 -64.9 -0.55 -64.9 -1.65 -64.8 -4.65 -64.8 Q-3.75 -63.15 -2.8 -62.35 L-2.15 -62.25 -2.0 -62.35 Q-1.25 -63.1 -1.05 -64.25 L-0.5 -64.35 Q-0.25 -64.3 -0.05 -64.1 L1.6 -62.3 -1.75 -62.15 -2.15 -62.25 -2.8 -61.75 -2.75 -62.3 -2.8 -62.35 -3.8 -62.55 Q-5.05 -62.95 -5.8 -63.5 L-7.25 -65.05 -4.65 -64.8 M-7.0 -59.75 L-5.8 -59.45 0.6 -58.5 Q2.65 -58.35 4.65 -58.5 L6.7 -58.75 6.75 -58.75 9.05 -59.15 M8.25 -26.0 L7.5 -25.2 7.15 -24.8 3.8 -21.05 Q8.05 -20.65 12.25 -21.15 L13.25 -21.2 Q12.55 -19.6 12.45 -17.4 L12.15 -14.75 12.05 -13.6 Q13.0 -14.05 13.85 -15.05 L16.0 -17.45 17.6 -19.55 18.8 -21.25 21.2 -20.55 Q23.15 -20.0 24.1 -19.2 M7.0 -10.9 L7.35 -10.9 7.45 -11.25 7.5 -10.9 14.7 -10.9 M2.75 -10.6 L2.55 -10.55 2.75 -9.75 Q2.15 -9.75 1.8 -10.45 1.55 -9.75 1.2 -10.45 L0.6 -10.4 0.5 -10.1 M-5.5 -24.45 Q-4.95 -22.1 -4.8 -19.0 -5.2 -16.55 -3.15 -16.05 L-2.45 -13.2 Q-1.25 -13.6 -0.4 -14.5 L-0.05 -14.85 2.0 -16.4 0.65 -10.65 0.6 -10.4 -1.4 -10.3 -1.5 -10.5 -2.0 -11.85 -4.45 -11.7 M1.2 -10.45 L2.55 -10.55 M22.15 -25.15 Q23.75 -23.6 24.65 -22.05 L24.65 -23.25 24.7 -23.35 M-12.1 -83.7 L-11.95 -83.6 -10.75 -83.25 -9.7 -83.2 -6.7 -85.4 M-7.0 -59.75 Q-9.15 -60.45 -11.0 -61.8 -13.15 -63.5 -14.55 -66.2 -15.85 -68.7 -15.75 -71.75 -15.7 -74.7 -14.65 -77.6 L-14.25 -78.9 Q-13.2 -80.7 -12.45 -83.25 M-4.45 -66.25 L-7.15 -66.45 Q-10.05 -66.75 -12.45 -68.4 -13.8 -69.25 -12.7 -70.2 -11.0 -71.7 -8.7 -72.25 -11.25 -72.45 -11.9 -74.9 L-12.3 -76.4 Q-13.15 -79.65 -10.45 -81.25 -8.5 -82.45 -6.5 -80.9 -4.2 -79.1 -4.6 -76.15 -4.7 -75.65 -5.1 -75.2 -6.8 -73.4 -8.7 -74.65 -10.0 -75.5 -10.1 -77.1 -10.15 -78.25 -9.55 -79.15 -9.4 -79.4 -9.1 -79.45 -7.35 -79.55 -7.55 -77.6 -7.65 -76.8 -8.55 -76.45 M-7.5 -72.5 L-8.7 -72.25 M-11.4 -11.25 L-15.3 -11.0 -17.1 -22.35 -18.05 -28.0 M-6.35 -33.6 L-8.1 -32.15 -6.85 -30.55 M-9.15 -30.85 L-8.1 -32.15 Q-8.85 -32.8 -9.8 -33.3 M-10.7 -46.75 Q-10.5 -47.35 -9.5 -46.95 M-17.1 -22.35 L-13.0 -19.2 Q-10.1 -20.6 -7.9 -22.15 L-7.45 -22.35 -9.35 -17.85 -9.55 -17.45 -9.7 -16.55 Q-9.7 -16.3 -9.35 -16.1 L-8.9 -15.8 -5.0 -12.6 -8.1 -12.8 -9.05 -13.0 -10.45 -13.2 Q-11.05 -13.2 -11.05 -12.45 -11.1 -11.75 -11.4 -11.25 M-9.8 -11.35 L-9.3 -11.4 M-2.45 -13.2 L-2.0 -11.85 M-1.2 -46.15 L1.1 -46.15" fill="none" stroke="#000000" stroke-linecap="round" stroke-linejoin="round" stroke-width="0.05"/>
    <path d="M7.5 -77.75 L6.6 -79.45 6.65 -80.2 Q5.55 -81.4 3.35 -81.75 L-0.8 -82.2 Q-4.45 -82.45 -8.2 -83.55 -8.65 -83.05 -9.7 -83.2 -12.8 -84.0 -15.85 -82.85 L-16.5 -81.95 -16.6 -82.95 -16.5 -81.95 -15.85 -82.85 Q-12.8 -84.0 -9.7 -83.2 -8.65 -83.05 -8.2 -83.55 -4.45 -82.45 -0.8 -82.2 L3.35 -81.75 Q5.55 -81.4 6.65 -80.2 L6.6 -79.45 7.5 -77.75 7.3 -78.1 2.3 -78.75 -5.2 -79.55 Q-9.0 -79.95 -12.4 -78.75 -14.2 -78.2 -15.05 -76.3 -15.5 -73.25 -13.45 -71.45 L-10.5 -71.65 Q-8.8 -70.7 -6.95 -70.2 L-3.1 -69.65 1.05 -69.75 3.25 -69.85 Q6.2 -71.45 7.2 -74.15 7.95 -76.05 7.5 -77.75 M-16.5 -81.95 L-17.4 -79.75 Q-17.9 -77.75 -17.65 -75.8 -17.5 -73.85 -16.65 -71.95 L-13.7 -71.45 -13.45 -71.45 -13.7 -71.45 -16.65 -71.95 Q-17.5 -73.85 -17.65 -75.8 -17.9 -77.75 -17.4 -79.75 L-16.5 -81.95 M-10.9 -62.8 Q-9.2 -63.0 -7.95 -62.3 -7.45 -62.05 -7.4 -61.15 -7.35 -59.85 -7.8 -58.55 -11.25 -58.55 -13.9 -59.4 -15.95 -60.0 -17.15 -62.15 -18.15 -63.9 -18.3 -65.95 L-18.55 -69.9 -18.6 -72.75 Q-19.2 -73.7 -18.9 -74.65 L-19.05 -75.65 -19.65 -82.25 Q-19.8 -85.55 -20.3 -88.7 L-20.8 -93.9 Q-20.8 -96.0 -21.1 -98.1 -21.3 -99.9 -20.6 -100.95 -20.4 -101.25 -19.8 -101.3 -17.7 -101.8 -18.0 -99.9 L-18.05 -98.7 Q-17.7 -94.8 -17.7 -90.8 -17.75 -87.0 -16.65 -83.2 L-16.6 -82.95 -16.2 -83.3 Q-13.8 -85.35 -10.2 -85.05 L-2.5 -84.2 5.0 -84.0 Q6.95 -83.85 8.25 -82.45 11.7 -80.9 13.15 -77.25 14.65 -73.6 12.8 -69.95 12.45 -69.25 11.7 -68.95 8.4 -67.65 4.6 -67.7 L-3.1 -67.75 Q-5.6 -67.8 -7.6 -68.6 L-8.75 -69.15 Q-10.65 -70.2 -12.7 -70.2 -13.25 -70.65 -13.75 -70.6 L-15.75 -70.2 -15.65 -69.65 Q-15.8 -66.95 -15.1 -64.55 L-14.5 -63.55 Q-14.2 -63.2 -13.75 -63.1 L-13.1 -62.95 -12.45 -62.85 -11.95 -62.65 -10.9 -62.8 M22.35 -38.85 L29.9 -38.6 31.8 -38.2 Q32.95 -37.85 33.65 -37.2 36.25 -34.6 36.6 -30.9 36.8 -28.8 35.55 -27.3 33.75 -25.15 31.15 -23.6 L29.85 -22.95 Q27.7 -21.95 25.25 -21.75 L21.45 -21.55 17.55 -21.55 13.8 -21.35 11.7 -21.15 6.05 -21.45 1.95 -21.85 -1.45 -22.05 -7.9 -22.45 -9.15 -22.6 -13.05 -23.1 -16.9 -23.6 -18.75 -23.9 -20.5 -24.4 -23.7 -26.25 Q-25.45 -27.65 -26.35 -29.5 -27.0 -30.9 -27.15 -32.55 -27.35 -34.95 -26.45 -36.85 L-26.1 -37.5 -24.65 -39.3 Q-22.5 -41.35 -19.2 -40.95 L-16.05 -40.3 Q-16.1 -39.6 -16.75 -39.0 L-17.55 -36.6 -12.5 -35.65 -12.1 -35.6 -4.6 -35.2 -3.8 -35.2 -3.1 -35.2 -2.7 -35.2 4.8 -35.2 5.6 -35.2 12.55 -35.3 14.85 -35.3 16.6 -35.3 16.65 -35.3 20.45 -35.35 22.7 -35.35 Q23.1 -37.2 22.35 -38.85 M-16.6 -82.95 L-16.9 -82.65 Q-17.95 -82.65 -18.5 -81.75 L-18.9 -80.75 Q-19.4 -78.6 -18.9 -75.7 L-18.9 -75.55 Q-19.0 -72.55 -17.35 -69.95 L-15.75 -70.2 -17.35 -69.95 Q-19.0 -72.55 -18.9 -75.55 L-18.9 -75.7 Q-19.4 -78.6 -18.9 -80.75 L-18.5 -81.75 Q-17.95 -82.65 -16.9 -82.65 L-16.6 -82.95 M14.85 -35.3 Q12.45 -34.15 10.7 -32.45 L6.15 -27.65 Q3.65 -24.75 1.95 -21.85 3.65 -24.75 6.15 -27.65 L10.7 -32.45 Q12.45 -34.15 14.85 -35.3 M5.6 -35.2 Q4.85 -34.8 4.15 -34.55 L2.65 -33.65 -3.15 -28.45 Q-6.05 -25.95 -7.9 -22.45 -6.05 -25.95 -3.15 -28.45 L2.65 -33.65 4.15 -34.55 Q4.85 -34.8 5.6 -35.2 M27.95 -37.6 Q29.85 -37.25 31.35 -35.75 32.7 -34.35 32.5 -32.15 32.35 -30.8 32.5 -29.45 32.9 -26.15 31.15 -23.6 32.9 -26.15 32.5 -29.45 32.35 -30.8 32.5 -32.15 32.7 -34.35 31.35 -35.75 29.85 -37.25 27.95 -37.6 M23.4 -34.85 Q23.35 -35.2 22.7 -35.35 L25.25 -36.1 22.7 -35.35 Q23.35 -35.2 23.4 -34.85 M22.25 -34.45 Q22.25 -33.85 21.5 -33.35 L20.75 -32.65 16.35 -26.6 Q14.15 -23.4 11.7 -21.15 14.15 -23.4 16.35 -26.6 L20.75 -32.65 21.5 -33.35 Q22.25 -33.85 22.25 -34.45 M26.3 -35.5 L26.85 -34.9 Q28.15 -31.25 26.55 -27.55 25.65 -25.4 24.3 -23.7 23.1 -22.15 21.45 -21.55 23.1 -22.15 24.3 -23.7 25.65 -25.4 26.55 -27.55 28.15 -31.25 26.85 -34.9 L26.3 -35.5 M-19.4 -37.15 L-17.55 -36.6 -17.75 -36.1 Q-21.2 -35.1 -23.9 -32.7 -25.4 -31.4 -26.35 -29.5 -25.4 -31.4 -23.9 -32.7 -21.2 -35.1 -17.75 -36.1 L-17.55 -36.6 -19.4 -37.15 M-12.5 -35.65 L-13.05 -35.7 Q-15.65 -34.25 -18.05 -31.2 -20.35 -28.3 -20.5 -24.4 -20.35 -28.3 -18.05 -31.2 -15.65 -34.25 -13.05 -35.7 L-12.5 -35.65 M-19.4 -38.2 Q-20.85 -39.45 -23.55 -39.0 -25.3 -38.75 -26.1 -37.5 -25.3 -38.75 -23.55 -39.0 -20.85 -39.45 -19.4 -38.2 M-3.8 -35.2 Q-7.3 -33.9 -10.0 -30.9 L-10.7 -29.95 Q-12.65 -26.7 -13.05 -23.1 -12.65 -26.7 -10.7 -29.95 L-10.0 -30.9 Q-7.3 -33.9 -3.8 -35.2" fill="#ffffff" fill-rule="evenodd" stroke="none"/>
    <path d="M-16.6 -82.95 L-16.5 -81.95 -15.85 -82.85 Q-12.8 -84.0 -9.7 -83.2 -8.65 -83.05 -8.2 -83.55 -4.45 -82.45 -0.8 -82.2 L3.35 -81.75 Q5.55 -81.4 6.65 -80.2 L6.6 -79.45 7.5 -77.75 Q7.95 -76.05 7.2 -74.15 6.2 -71.45 3.25 -69.85 L1.05 -69.75 -3.1 -69.65 -6.95 -70.2 Q-8.8 -70.7 -10.5 -71.65 L-13.45 -71.45 -13.7 -71.45 -16.65 -71.95 Q-17.5 -73.85 -17.65 -75.8 -17.9 -77.75 -17.4 -79.75 L-16.5 -81.95 M-10.9 -62.8 Q-9.2 -63.0 -7.95 -62.3 -7.45 -62.05 -7.4 -61.15 -7.35 -59.85 -7.8 -58.55 -11.25 -58.55 -13.9 -59.4 -15.95 -60.0 -17.15 -62.15 -18.15 -63.9 -18.3 -65.95 L-18.55 -69.9 -18.6 -72.75 Q-19.2 -73.7 -18.9 -74.65 L-19.05 -75.65 -19.65 -82.25 Q-19.8 -85.55 -20.3 -88.7 L-20.8 -93.9 Q-20.8 -96.0 -21.1 -98.1 -21.3 -99.9 -20.6 -100.95 -20.4 -101.25 -19.8 -101.3 -17.7 -101.8 -18.0 -99.9 L-18.05 -98.7 Q-17.7 -94.8 -17.7 -90.8 -17.75 -87.0 -16.65 -83.2 L-16.6 -82.95 -16.2 -83.3 Q-13.8 -85.35 -10.2 -85.05 L-2.5 -84.2 5.0 -84.0 Q6.95 -83.85 8.25 -82.45 11.7 -80.9 13.15 -77.25 14.65 -73.6 12.8 -69.95 12.45 -69.25 11.7 -68.95 8.4 -67.65 4.6 -67.7 L-3.1 -67.75 Q-5.6 -67.8 -7.6 -68.6 L-8.75 -69.15 Q-10.65 -70.2 -12.7 -70.2 -13.25 -70.65 -13.75 -70.6 L-15.75 -70.2 -17.35 -69.95 Q-19.0 -72.55 -18.9 -75.55 L-18.9 -75.7 Q-19.4 -78.6 -18.9 -80.75 L-18.5 -81.75 Q-17.95 -82.65 -16.9 -82.65 L-16.6 -82.95 M-15.65 -69.65 Q-15.8 -66.95 -15.1 -64.55 L-14.5 -63.55 Q-14.2 -63.2 -13.75 -63.1 L-13.1 -62.95 -12.45 -62.85 -13.0 -63.5 -13.15 -64.0 M22.35 -38.85 L29.9 -38.6 31.8 -38.2 Q32.95 -37.85 33.65 -37.2 36.25 -34.6 36.6 -30.9 36.8 -28.8 35.55 -27.3 33.75 -25.15 31.15 -23.6 L29.85 -22.95 Q27.7 -21.95 25.25 -21.75 L21.45 -21.55 17.55 -21.55 13.8 -21.35 11.7 -21.15 6.05 -21.45 1.95 -21.85 -1.45 -22.05 -7.9 -22.45 -9.15 -22.6 -13.05 -23.1 -16.9 -23.6 -18.75 -23.9 -20.5 -24.4 -23.7 -26.25 Q-25.45 -27.65 -26.35 -29.5 -27.0 -30.9 -27.15 -32.55 -27.35 -34.95 -26.45 -36.85 L-26.1 -37.5 -24.65 -39.3 Q-22.5 -41.35 -19.2 -40.95 L-16.05 -40.3 M-17.55 -36.6 L-12.5 -35.65 -12.1 -35.6 -4.6 -35.2 -3.8 -35.2 Q-2.55 -35.45 -2.7 -35.2 L4.8 -35.2 5.6 -35.2 12.55 -35.3 14.85 -35.3 16.6 -35.3 16.65 -35.3 20.45 -35.35 22.7 -35.35 25.25 -36.1 M21.45 -21.55 Q23.1 -22.15 24.3 -23.7 25.65 -25.4 26.55 -27.55 28.15 -31.25 26.85 -34.9 L26.3 -35.5 M11.7 -21.15 Q14.15 -23.4 16.35 -26.6 L20.75 -32.65 21.5 -33.35 Q22.25 -33.85 22.25 -34.45 M22.7 -35.35 Q23.35 -35.2 23.4 -34.85 M31.15 -23.6 Q32.9 -26.15 32.5 -29.45 32.35 -30.8 32.5 -32.15 32.7 -34.35 31.35 -35.75 29.85 -37.25 27.95 -37.6 M-7.9 -22.45 Q-6.05 -25.95 -3.15 -28.45 L2.65 -33.65 4.15 -34.55 Q4.85 -34.8 5.6 -35.2 M1.95 -21.85 Q3.65 -24.75 6.15 -27.65 L10.7 -32.45 Q12.45 -34.15 14.85 -35.3 M-12.45 -62.85 L-11.95 -62.65 -10.9 -62.8 -12.45 -62.85 M-20.5 -24.4 Q-20.35 -28.3 -18.05 -31.2 -15.65 -34.25 -13.05 -35.7 L-12.5 -35.65 M-26.35 -29.5 Q-25.4 -31.4 -23.9 -32.7 -21.2 -35.1 -17.75 -36.1 L-17.55 -36.6 -19.4 -37.15 M-3.8 -35.2 L-3.1 -35.2 -2.7 -35.2 M-13.05 -23.1 Q-12.65 -26.7 -10.7 -29.95 L-10.0 -30.9 Q-7.3 -33.9 -3.8 -35.2 M-26.1 -37.5 Q-25.3 -38.75 -23.55 -39.0 -20.85 -39.45 -19.4 -38.2" fill="none" stroke="#000000" stroke-linecap="round" stroke-linejoin="round" stroke-width="0.05"/>
    <path d="M11.5 -49.25 L11.0 -56.8 11.8 -57.55 Q15.5 -56.8 18.2 -54.1 L23.5 -48.95 Q26.3 -46.25 28.3 -42.95 30.25 -39.7 31.05 -36.05 31.45 -32.95 30.65 -30.3 30.15 -28.55 28.45 -27.65 26.85 -25.95 25.3 -26.45 L23.2 -29.15 Q20.85 -29.3 19.8 -31.3 19.6 -32.2 20.75 -32.65 L21.35 -33.3 19.85 -35.35 Q18.45 -35.95 17.2 -37.25 L16.0 -38.75 Q15.1 -40.0 14.75 -40.75 L13.45 -43.3 Q12.55 -45.1 11.5 -49.25" fill="#ffffff" fill-rule="evenodd" stroke="none"/>
    <path d="M11.8 -57.55 Q15.5 -56.8 18.2 -54.1 L23.5 -48.95 Q26.3 -46.25 28.3 -42.95 30.25 -39.7 31.05 -36.05 31.45 -32.95 30.65 -30.3 30.15 -28.55 28.45 -27.65 26.85 -25.95 25.3 -26.45 L23.2 -29.15 Q20.85 -29.3 19.8 -31.3 19.6 -32.2 20.75 -32.65 L21.35 -33.3 19.85 -35.35 Q18.45 -35.95 17.2 -37.25 L16.0 -38.75 Q15.1 -40.0 14.75 -40.75 L13.45 -43.3 Q12.55 -45.1 11.5 -49.25" fill="none" stroke="#000000" stroke-linecap="round" stroke-linejoin="round" stroke-width="0.05"/>
  </g>
</svg>
