<?xml version="1.0" encoding="UTF-8" standalone="no"?>
<svg xmlns:ffdec="https://www.free-decompiler.com/flash" xmlns:xlink="http://www.w3.org/1999/xlink" ffdec:objectType="shape" height="54.05px" width="66.2px" xmlns="http://www.w3.org/2000/svg">
  <g transform="matrix(1.0, 0.0, 0.0, 1.0, 32.05, 53.85)">
    <path d="M-18.15 -10.0 Q-20.5 -10.9 -22.7 -12.25 L-22.75 -12.3 -23.35 -11.3 -23.85 -13.05 Q-26.0 -14.75 -27.3 -17.55 L-27.4 -17.7 -27.85 -18.95 Q-28.1 -19.75 -28.0 -21.0 -31.9 -22.1 -32.05 -26.5 -32.15 -28.55 -30.8 -29.95 -29.8 -30.95 -28.4 -31.25 L-25.75 -31.3 -25.7 -32.75 -25.7 -35.65 Q-25.75 -39.55 -24.2 -42.35 L-23.5 -50.2 Q-23.3 -52.45 -22.2 -53.85 -20.8 -53.45 -20.05 -52.75 -17.4 -50.05 -15.05 -47.0 L-13.75 -45.65 -5.8 -45.4 Q-4.75 -45.05 -3.95 -44.25 L-2.35 -42.7 Q-1.0 -41.5 0.45 -41.05 L1.55 -40.95 8.45 -41.25 10.6 -40.95 8.35 -33.35 Q8.05 -32.2 9.1 -31.95 L10.75 -31.55 Q14.45 -30.55 16.9 -27.25 17.2 -26.8 17.65 -26.5 20.55 -24.2 21.75 -20.65 22.45 -18.6 22.45 -16.5 22.45 -14.8 22.05 -13.1 L21.3 -10.2 Q21.05 -9.2 20.25 -8.45 L18.85 -7.25 19.25 -6.7 20.15 -5.35 20.4 -4.8 Q20.9 -3.4 20.9 -1.7 20.85 -0.5 19.85 -0.5 17.8 -0.4 16.6 -1.45 14.9 -0.65 13.95 -2.8 13.95 -3.9 13.55 -4.7 L12.2 -4.3 8.7 -3.75 1.7 -4.4 -0.25 -4.75 -1.35 -4.9 -1.75 -4.95 -1.75 -4.9 Q-1.7 -3.3 -2.1 -2.55 L-2.25 -1.9 Q-2.25 -0.75 -3.25 -0.25 L-6.9 0.1 Q-8.4 -0.15 -8.25 -1.5 -9.2 -1.2 -10.3 -2.2 L-10.55 -2.75 Q-10.3 -4.9 -9.4 -7.05 L-15.45 -9.05 -17.15 -9.6 Q-15.15 -10.4 -13.6 -11.6 L-13.3 -11.85 Q-11.9 -13.0 -10.85 -14.55 -9.85 -15.95 -9.85 -16.9 L-11.0 -16.7 -12.05 -16.55 -16.15 -15.9 Q-17.9 -15.75 -19.7 -15.85 L-20.1 -15.85 -19.7 -15.85 Q-17.9 -15.75 -16.15 -15.9 L-12.05 -16.55 -11.0 -16.7 -9.85 -16.9 Q-9.85 -15.95 -10.85 -14.55 -11.9 -13.0 -13.3 -11.85 L-13.6 -11.6 Q-15.15 -10.4 -17.15 -9.6 L-17.8 -9.85 Q-16.75 -11.6 -16.65 -13.95 L-16.3 -14.8 Q-16.05 -15.15 -16.15 -15.9 -14.65 -13.9 -13.6 -11.6 -14.65 -13.9 -16.15 -15.9 -16.05 -15.15 -16.3 -14.8 L-16.65 -13.95 Q-16.75 -11.6 -17.8 -9.85 L-18.15 -10.0 Q-19.75 -12.7 -20.1 -15.85 L-20.15 -16.45 -20.5 -15.9 -20.1 -15.85 Q-19.75 -12.7 -18.15 -10.0 M18.85 -7.25 L17.05 -6.1 17.0 -6.1 15.1 -5.2 14.35 -4.95 13.55 -4.7 14.35 -4.95 15.1 -5.2 17.0 -6.1 17.05 -6.1 18.85 -7.25 M21.9 -16.65 L22.45 -16.5 21.9 -16.65 M16.6 -1.45 Q15.3 -2.65 15.1 -5.2 15.3 -2.65 16.6 -1.45 M-25.75 -30.05 L-25.75 -31.3 Q-24.1 -31.05 -22.7 -29.9 L-21.8 -29.05 Q-20.5 -27.65 -18.75 -26.8 -15.45 -25.25 -14.25 -21.95 -14.0 -21.35 -14.5 -20.85 -16.7 -18.95 -19.95 -19.2 L-20.6 -19.25 -21.9 -19.35 Q-25.05 -19.75 -27.55 -20.9 -25.05 -19.75 -21.9 -19.35 L-20.6 -19.25 -19.95 -19.2 Q-16.7 -18.95 -14.5 -20.85 -14.0 -21.35 -14.25 -21.95 -15.45 -25.25 -18.75 -26.8 -20.5 -27.65 -21.8 -29.05 L-22.7 -29.9 Q-24.1 -31.05 -25.75 -31.3 L-25.75 -30.05 M-4.75 -30.75 L-3.6 -30.95 Q-3.65 -32.05 -4.95 -32.3 -6.25 -32.55 -6.55 -31.35 -7.25 -28.65 -4.25 -28.0 L-3.15 -28.15 Q0.15 -30.3 -0.85 -34.5 -1.0 -35.3 -1.6 -35.65 L-5.6 -35.45 Q-9.15 -33.65 -9.35 -29.85 -9.4 -28.85 -9.0 -28.0 -7.35 -24.35 -3.4 -24.9 -7.35 -24.35 -9.0 -28.0 -9.4 -28.85 -9.35 -29.85 -9.15 -33.65 -5.6 -35.45 L-1.6 -35.65 Q-1.0 -35.3 -0.85 -34.5 0.15 -30.3 -3.15 -28.15 L-4.25 -28.0 Q-7.25 -28.65 -6.55 -31.35 -6.25 -32.55 -4.95 -32.3 -3.65 -32.05 -3.6 -30.95 L-4.75 -30.75 M-16.15 -35.65 L-15.25 -35.75 Q-15.0 -36.3 -15.25 -36.9 -15.45 -37.3 -15.9 -37.3 -18.35 -37.2 -18.55 -34.75 L-18.4 -34.05 Q-17.2 -32.7 -15.0 -32.95 -14.65 -32.95 -14.5 -33.3 -13.8 -34.5 -13.7 -35.65 -13.5 -37.65 -15.2 -39.5 L-16.45 -40.3 Q-18.95 -40.85 -21.1 -39.3 -23.3 -37.75 -23.05 -35.0 -22.85 -32.65 -21.45 -31.25 -20.55 -30.35 -19.05 -29.85 -20.55 -30.35 -21.45 -31.25 -22.85 -32.65 -23.05 -35.0 -23.3 -37.75 -21.1 -39.3 -18.95 -40.85 -16.45 -40.3 L-15.2 -39.5 Q-13.5 -37.65 -13.7 -35.65 -13.8 -34.5 -14.5 -33.3 -14.65 -32.95 -15.0 -32.95 -17.2 -32.7 -18.4 -34.05 L-18.55 -34.75 Q-18.35 -37.2 -15.9 -37.3 -15.45 -37.3 -15.25 -36.9 -15.0 -36.3 -15.25 -35.75 L-16.15 -35.65 M-28.0 -21.35 L-28.0 -21.0 -27.55 -20.9 -28.0 -21.35 M-24.35 -16.55 L-27.3 -17.55 -24.35 -16.55 -20.5 -15.9 -22.75 -12.3 -23.85 -13.05 -22.75 -12.3 -20.5 -15.9 -24.35 -16.55 -23.85 -13.05 -24.35 -16.55 M-9.4 -7.05 L-8.55 -6.7 -8.5 -6.7 -7.5 -6.35 -8.5 -6.7 -8.55 -6.7 -9.4 -7.05 M-2.4 -4.3 Q-1.8 -4.15 -1.75 -4.9 -1.8 -4.15 -2.4 -4.3 M-8.25 -1.5 L-8.25 -1.7 -7.5 -6.35 -8.25 -1.7 -8.25 -1.5 M-20.9 -25.7 Q-22.05 -23.55 -21.7 -20.7 -22.05 -23.55 -20.9 -25.7 M-24.55 -26.9 Q-26.4 -25.55 -26.85 -22.7 -26.4 -25.55 -24.55 -26.9 M-7.5 -6.35 L-5.05 -5.6 -2.85 -5.1 -1.75 -4.95 -2.85 -5.1 -5.05 -5.6 -7.5 -6.35" fill="#ffffff" fill-rule="evenodd" stroke="none"/>
    <path d="M-18.15 -10.0 Q-20.5 -10.9 -22.7 -12.25 L-22.75 -12.3 -23.35 -11.3 -23.85 -13.05 Q-26.0 -14.75 -27.3 -17.55 L-27.4 -17.7 -27.85 -18.95 Q-28.1 -19.75 -28.0 -21.0 -31.9 -22.1 -32.05 -26.5 -32.15 -28.55 -30.8 -29.95 -29.8 -30.95 -28.4 -31.25 L-25.75 -31.3 -25.7 -32.75 -25.7 -35.65 Q-25.75 -39.55 -24.2 -42.35 L-23.5 -50.2 Q-23.3 -52.45 -22.2 -53.85 -20.8 -53.45 -20.05 -52.75 -17.4 -50.05 -15.05 -47.0 L-13.75 -45.65 -5.8 -45.4 Q-4.75 -45.05 -3.95 -44.25 L-2.35 -42.7 Q-1.0 -41.5 0.45 -41.05 L1.55 -40.95 8.45 -41.25 10.6 -40.95 8.35 -33.35 Q8.05 -32.2 9.1 -31.95 L10.75 -31.55 Q14.45 -30.55 16.9 -27.25 17.2 -26.8 17.65 -26.5 20.55 -24.2 21.75 -20.65 22.45 -18.6 22.45 -16.5 26.0 -15.75 28.7 -18.35 L28.95 -18.6 Q28.15 -18.95 27.75 -19.8 26.75 -22.0 29.1 -23.05 29.75 -23.3 30.05 -22.85 30.65 -21.9 30.1 -20.45 29.7 -19.4 28.95 -18.6 L29.95 -18.35 Q31.7 -18.2 33.5 -18.3 L34.15 -18.45 M13.55 -4.7 L12.2 -4.3 8.7 -3.75 1.7 -4.4 -0.25 -4.75 -1.35 -4.9 -1.75 -4.95 -2.85 -5.1 -5.05 -5.6 -7.5 -6.35 -8.5 -6.7 -8.55 -6.7 -9.4 -7.05 -15.45 -9.05 -17.15 -9.6 -17.95 -9.6 -19.95 -9.4 M13.55 -4.7 L14.35 -4.95 15.1 -5.2 17.0 -6.1 17.05 -6.1 18.85 -7.25 20.25 -8.45 Q21.05 -9.2 21.3 -10.2 L22.05 -13.1 Q22.45 -14.8 22.45 -16.5 L21.9 -16.65 M-19.05 -29.85 Q-20.55 -30.35 -21.45 -31.25 -22.85 -32.65 -23.05 -35.0 -23.3 -37.75 -21.1 -39.3 -18.95 -40.85 -16.45 -40.3 L-15.2 -39.5 Q-13.5 -37.65 -13.7 -35.65 -13.8 -34.5 -14.5 -33.3 -14.65 -32.95 -15.0 -32.95 -17.2 -32.7 -18.4 -34.05 L-18.55 -34.75 Q-18.35 -37.2 -15.9 -37.3 -15.45 -37.3 -15.25 -36.9 -15.0 -36.3 -15.25 -35.75 L-16.15 -35.65 M-3.4 -24.9 Q-7.35 -24.35 -9.0 -28.0 -9.4 -28.85 -9.35 -29.85 -9.15 -33.65 -5.6 -35.45 L-1.6 -35.65 Q-1.0 -35.3 -0.85 -34.5 0.15 -30.3 -3.15 -28.15 L-4.25 -28.0 Q-7.25 -28.65 -6.55 -31.35 -6.25 -32.55 -4.95 -32.3 -3.65 -32.05 -3.6 -30.95 L-4.75 -30.75 M-27.55 -20.9 Q-25.05 -19.75 -21.9 -19.35 L-20.6 -19.25 -19.95 -19.2 Q-16.7 -18.95 -14.5 -20.85 -14.0 -21.35 -14.25 -21.95 -15.45 -25.25 -18.75 -26.8 -20.5 -27.65 -21.8 -29.05 L-22.7 -29.9 Q-24.1 -31.05 -25.75 -31.3 L-25.75 -30.05 M-28.0 -21.35 L-28.0 -21.0 -27.55 -20.9 -28.0 -21.35 M-23.85 -13.05 L-22.75 -12.3 -20.5 -15.9 -24.35 -16.55 -23.85 -13.05 M-27.3 -17.55 L-24.35 -16.55 M-20.1 -15.85 L-19.7 -15.85 Q-17.9 -15.75 -16.15 -15.9 L-12.05 -16.55 -11.0 -16.7 -9.85 -16.9 Q-9.85 -15.95 -10.85 -14.55 -11.9 -13.0 -13.3 -11.85 L-13.6 -11.6 Q-15.15 -10.4 -17.15 -9.6 L-17.8 -9.85 -17.95 -9.6 -18.15 -10.0 Q-19.75 -12.7 -20.1 -15.85 L-20.5 -15.9 -20.15 -16.45 -20.1 -15.85 M-17.8 -9.85 Q-16.75 -11.6 -16.65 -13.95 L-16.3 -14.8 Q-16.05 -15.15 -16.15 -15.9 -14.65 -13.9 -13.6 -11.6 M-17.8 -9.85 L-18.15 -10.0 M-26.85 -22.7 Q-26.4 -25.55 -24.55 -26.9 M-21.7 -20.7 Q-22.05 -23.55 -20.9 -25.7" fill="none" stroke="#000000" stroke-linecap="round" stroke-linejoin="round" stroke-width="0.05"/>
    <path d="M-1.75 -4.9 Q-1.7 -3.3 -2.1 -2.55 L-2.25 -1.9 Q-2.25 -0.75 -3.25 -0.25 L-6.9 0.1 Q-8.4 -0.15 -8.25 -1.5 -9.2 -1.2 -10.3 -2.2 L-10.55 -2.75 Q-10.3 -4.9 -9.4 -7.05 M19.25 -6.7 L20.15 -5.35 20.4 -4.8 Q20.9 -3.4 20.9 -1.7 20.85 -0.5 19.85 -0.5 17.8 -0.4 16.6 -1.45 14.9 -0.65 13.95 -2.8 13.95 -3.9 13.55 -4.7 M15.1 -5.2 Q15.3 -2.65 16.6 -1.45 M-7.5 -6.35 L-8.25 -1.7 -8.25 -1.5 M-1.75 -4.9 Q-1.8 -4.15 -2.4 -4.3" fill="none" stroke="#000000" stroke-linecap="round" stroke-linejoin="round" stroke-width="0.05"/>
  </g>
</svg>
