<?xml version="1.0" encoding="UTF-8" standalone="no"?>
<svg xmlns:xlink="http://www.w3.org/1999/xlink" height="38.7px" width="34.75px" xmlns="http://www.w3.org/2000/svg">
  <g transform="matrix(1.0, 0.0, 0.0, 1.0, 16.0, 38.0)">
    <path d="M6.05 -4.3 Q9.75 -4.8 11.75 -5.9 L12.05 -6.05 Q14.65 -7.65 14.95 -10.6 L14.95 -10.8 Q15.2 -13.1 16.4 -14.8 17.9 -15.0 18.2 -12.75 18.45 -10.8 17.85 -8.8 L17.8 -8.7 Q17.2 -7.1 16.15 -6.05 L13.85 -4.6 8.25 -2.7 4.95 -1.95 Q3.85 -3.0 4.15 -3.65 4.4 -4.35 6.05 -4.3" fill="#ffffff" fill-rule="evenodd" stroke="none"/>
    <path d="M6.05 -4.3 Q9.75 -4.8 11.75 -5.9 L12.05 -6.05 Q14.65 -7.65 14.95 -10.6 L14.95 -10.8 Q15.2 -13.1 16.4 -14.8 17.9 -15.0 18.2 -12.75 18.45 -10.8 17.85 -8.8 L17.8 -8.7 Q17.2 -7.1 16.15 -6.05 L13.85 -4.6 8.25 -2.7" fill="none" stroke="#8f7c3f" stroke-linecap="round" stroke-linejoin="round" stroke-width="1.0"/>
    <path d="M8.25 -2.7 L4.95 -1.95 Q3.85 -3.0 4.15 -3.65 4.4 -4.35 6.05 -4.3 Z" fill="none" stroke="#8f7c3f" stroke-linecap="round" stroke-linejoin="round" stroke-width="1.0"/>
    <path d="M1.9 -14.95 L2.7 -14.25 Q4.35 -12.55 5.5 -10.5 L7.7 -6.6 Q8.75 -4.75 8.85 -2.5 8.95 -0.25 6.15 -0.1 L1.0 -0.05 -3.8 0.15 Q-7.3 0.6 -7.05 -2.15 -6.85 -4.45 -6.0 -6.7 -5.2 -8.85 -3.85 -10.8 L-1.4 -14.25 -1.15 -14.65 -0.75 -14.95 1.9 -14.95" fill="#e2d5c0" fill-rule="evenodd" stroke="none"/>
    <path d="M1.9 -14.95 L2.7 -14.25 Q4.35 -12.55 5.5 -10.5 L7.7 -6.6 Q8.75 -4.75 8.85 -2.5 8.95 -0.25 6.15 -0.1 L1.0 -0.05 -3.8 0.15 Q-7.3 0.6 -7.05 -2.15 -6.85 -4.45 -6.0 -6.7 -5.2 -8.85 -3.85 -10.8 L-1.4 -14.25 -1.15 -14.65 -0.75 -14.95" fill="none" stroke="#8f7c3f" stroke-linecap="round" stroke-linejoin="round" stroke-width="1.0"/>
    <path d="M0.8 -11.0 Q-1.3 -12.55 0.9 -12.15 1.1 -11.3 0.8 -11.0" fill="#d0bc9b" fill-rule="evenodd" stroke="none"/>
    <path d="M0.8 -11.0 Q-1.3 -12.55 0.9 -12.15 1.1 -11.3 0.8 -11.0 Z" fill="none" stroke="#8f7c3f" stroke-linecap="round" stroke-linejoin="round" stroke-width="1.0"/>
    <path d="M-6.2 -7.9 L-2.85 -8.25 -0.75 -8.4 -1.35 -6.15 -1.75 -5.2 Q-2.1 -4.7 -3.5 -4.6 -4.65 -4.6 -5.6 -6.0 -6.9 -7.8 -6.2 -7.9" fill="#8f7c3f" fill-rule="evenodd" stroke="none"/>
    <path d="M-6.2 -7.9 L-2.85 -8.25 -0.75 -8.4 -1.35 -6.15 -1.75 -5.2 Q-2.1 -4.7 -3.5 -4.6 -4.65 -4.6 -5.6 -6.0 -6.9 -7.8 -6.2 -7.9 Z" fill="none" stroke="#8f7c3f" stroke-linecap="round" stroke-linejoin="round" stroke-width="1.0"/>
    <path d="M3.25 -6.3 Q2.1 -8.15 2.7 -8.25 L6.1 -8.4 Q7.7 -8.65 8.2 -8.4 L7.5 -6.25 7.0 -5.3 Q6.65 -4.85 5.2 -4.8 4.1 -4.85 3.25 -6.3" fill="#8f7c3f" fill-rule="evenodd" stroke="none"/>
    <path d="M3.25 -6.3 Q2.1 -8.15 2.7 -8.25 L6.1 -8.4 Q7.7 -8.65 8.2 -8.4 L7.5 -6.25 7.0 -5.3 Q6.65 -4.85 5.2 -4.8 4.1 -4.85 3.25 -6.3 Z" fill="none" stroke="#8f7c3f" stroke-linecap="round" stroke-linejoin="round" stroke-width="1.0"/>
    <path d="M-7.7 -11.85 L-7.55 -11.9 -3.85 -12.8 -2.15 -13.35 Q-5.15 -6.1 -10.0 -11.5 L-8.2 -11.8 -7.7 -11.85" fill="#ffffff" fill-rule="evenodd" stroke="none"/>
    <path d="M-7.7 -11.85 L-8.2 -11.8 -10.0 -11.5 Q-5.15 -6.1 -2.15 -13.35 L-3.85 -12.8 -7.55 -11.9 -7.7 -11.85 Z" fill="none" stroke="#8f7c3f" stroke-linecap="round" stroke-linejoin="round" stroke-width="1.0"/>
    <path d="M9.9 -12.15 L9.25 -12.25 Q6.55 -12.75 3.85 -13.7 6.8 -6.45 11.65 -11.9 L9.9 -12.15" fill="#ffffff" fill-rule="evenodd" stroke="none"/>
    <path d="M9.9 -12.15 L11.65 -11.9 Q6.8 -6.45 3.85 -13.7 6.55 -12.75 9.25 -12.25 L9.9 -12.15 Z" fill="none" stroke="#8f7c3f" stroke-linecap="round" stroke-linejoin="round" stroke-width="1.0"/>
    <path d="M-10.05 -25.9 Q-11.95 -27.75 -13.15 -30.1 -14.9 -33.55 -15.5 -37.3 L-11.7 -36.2 -7.9 -34.75 Q-7.0 -32.9 -7.3 -30.7 -7.75 -27.7 -9.85 -25.75 L-9.9 -25.8 -10.05 -25.9" fill="#fefefe" fill-rule="evenodd" stroke="none"/>
    <path d="M-9.9 -25.8 L-9.85 -25.75 Q-7.75 -27.7 -7.3 -30.7 -7.0 -32.9 -7.9 -34.75 L-11.7 -36.2 -15.5 -37.3 Q-14.9 -33.55 -13.15 -30.1 -11.95 -27.75 -10.05 -25.9" fill="none" stroke="#8f7c3f" stroke-linecap="round" stroke-linejoin="round" stroke-width="1.0"/>
    <path d="M9.75 -26.1 L9.6 -25.95 9.55 -25.95 Q7.45 -27.85 7.0 -30.85 6.65 -33.1 7.65 -34.9 L11.4 -36.35 15.25 -37.5 Q14.55 -33.75 12.85 -30.3 11.65 -27.95 9.75 -26.1" fill="#ffffff" fill-rule="evenodd" stroke="none"/>
    <path d="M9.6 -25.95 L9.55 -25.95 Q7.45 -27.85 7.0 -30.85 6.65 -33.1 7.65 -34.9 L11.4 -36.35 15.25 -37.5 Q14.55 -33.75 12.85 -30.3 11.65 -27.95 9.75 -26.1" fill="none" stroke="#8f7c3f" stroke-linecap="round" stroke-linejoin="round" stroke-width="1.0"/>
    <path d="M-3.7 -36.15 Q6.05 -37.75 11.65 -30.55 17.8 -22.65 10.1 -16.85 5.65 -13.5 -3.3 -14.15 -13.2 -15.1 -13.85 -24.85 L-13.9 -25.45 Q-14.15 -33.65 -5.4 -35.8 L-3.7 -36.15" fill="#ffffff" fill-rule="evenodd" stroke="none"/>
    <path d="M-3.7 -36.15 Q6.05 -37.75 11.65 -30.55 17.8 -22.65 10.1 -16.85 5.65 -13.5 -3.3 -14.15 -13.2 -15.1 -13.85 -24.85 L-13.9 -25.45 Q-14.15 -33.65 -5.4 -35.8 L-3.7 -36.15 Z" fill="none" stroke="#8f7c3f" stroke-linecap="round" stroke-linejoin="round" stroke-width="1.0"/>
    <path d="M5.2 -22.8 Q4.65 -21.85 3.8 -21.25 2.95 -20.65 1.75 -21.25 0.55 -21.8 0.15 -23.55 L-0.1 -23.55 Q-0.45 -21.65 -0.9 -21.35 L-2.6 -21.15 Q-3.4 -21.35 -3.8 -23.1 M1.8 -27.0 L4.3 -26.85 6.65 -26.85 M-7.15 -27.25 L-4.7 -26.95 -2.2 -26.9 M-9.8 -23.45 L-9.35 -24.05 -8.6 -24.45 -8.35 -24.5 M-6.9 -23.9 L-7.6 -23.65 -7.6 -23.4 -7.9 -23.15 -8.0 -23.15 -7.85 -23.4 -7.6 -23.65 M-0.1 -23.55 L-0.45 -23.7 Q-1.1 -24.2 -0.15 -25.7 1.1 -24.2 0.15 -23.55 L-0.15 -25.7 -0.45 -23.7" fill="none" stroke="#8f7c3f" stroke-linecap="round" stroke-linejoin="round" stroke-width="1.0"/>
    <path d="M6.85 -23.75 Q7.3 -23.8 7.65 -24.15 L8.55 -24.75 M8.6 -23.1 L9.4 -23.5 10.1 -23.8" fill="none" stroke="#8f7c3f" stroke-linecap="round" stroke-linejoin="round" stroke-width="1.0"/>
  </g>
</svg>
