<?xml version="1.0" encoding="UTF-8" standalone="no"?>
<svg xmlns:xlink="http://www.w3.org/1999/xlink" height="38.35px" width="34.75px" xmlns="http://www.w3.org/2000/svg">
  <g transform="matrix(1.0, 0.0, 0.0, 1.0, 16.15, 37.4)">
    <path d="M17.6 -8.45 Q17.0 -6.85 15.95 -5.8 15.0 -4.85 13.6 -4.35 L8.05 -2.45 4.7 -1.7 Q3.6 -2.75 3.9 -3.4 4.15 -4.1 5.85 -4.05 9.55 -4.55 11.55 -5.65 L11.85 -5.8 Q14.45 -7.45 14.7 -10.4 L14.75 -10.55 15.8 -9.7 17.6 -8.45" fill="#ffffff" fill-rule="evenodd" stroke="none"/>
    <path d="M14.75 -10.55 Q15.0 -12.85 16.2 -14.65 17.7 -14.8 18.05 -12.5 18.3 -10.55 17.65 -8.6 L17.6 -8.45 15.8 -9.7 14.75 -10.55" fill="#8f7c3f" fill-rule="evenodd" stroke="none"/>
    <path d="M17.6 -8.45 Q17.0 -6.85 15.95 -5.8 15.0 -4.85 13.6 -4.35 L8.05 -2.45 M5.85 -4.05 Q9.55 -4.55 11.55 -5.65 L11.85 -5.8 Q14.45 -7.45 14.7 -10.4 L14.75 -10.55 Q15.0 -12.85 16.2 -14.65 17.7 -14.8 18.05 -12.5 18.3 -10.55 17.65 -8.6 L17.6 -8.45" fill="none" stroke="#8f7c3f" stroke-linecap="round" stroke-linejoin="round" stroke-width="1.0"/>
    <path d="M8.05 -2.45 L4.7 -1.7 Q3.6 -2.75 3.9 -3.4 4.15 -4.1 5.85 -4.05" fill="none" stroke="#8f7c3f" stroke-linecap="round" stroke-linejoin="round" stroke-width="1.0"/>
    <path d="M1.5 -14.65 L2.3 -13.95 Q4.0 -12.2 5.2 -10.2 L7.3 -6.45 Q8.2 -4.65 8.7 -2.0 9.15 0.6 6.2 0.35 L0.7 0.2 -5.05 0.45 Q-8.2 0.6 -7.7 -1.75 -7.25 -4.1 -6.4 -6.35 -5.6 -8.5 -4.25 -10.45 L-1.75 -13.95 -1.5 -14.3 -1.1 -14.65 1.5 -14.65" fill="#e2d5c0" fill-rule="evenodd" stroke="none"/>
    <path d="M1.5 -14.65 L2.3 -13.95 Q4.0 -12.2 5.2 -10.2 L7.3 -6.45 Q8.2 -4.65 8.7 -2.0 9.15 0.6 6.2 0.35 L0.7 0.2 -5.05 0.45 Q-8.2 0.6 -7.7 -1.75 -7.25 -4.1 -6.4 -6.35 -5.6 -8.5 -4.25 -10.45 L-1.75 -13.95 -1.5 -14.3 -1.1 -14.65" fill="none" stroke="#8f7c3f" stroke-linecap="round" stroke-linejoin="round" stroke-width="1.0"/>
    <path d="M0.55 -10.8 Q-1.5 -12.35 0.7 -11.95 0.85 -11.1 0.55 -10.8" fill="#d0bc9b" fill-rule="evenodd" stroke="none"/>
    <path d="M0.55 -10.8 Q-1.5 -12.35 0.7 -11.95 0.85 -11.1 0.55 -10.8 Z" fill="none" stroke="#8f7c3f" stroke-linecap="round" stroke-linejoin="round" stroke-width="1.0"/>
    <path d="M-4.1 -12.6 L-2.45 -13.15 Q-5.4 -5.9 -10.3 -11.35 L-8.5 -11.6 -8.0 -11.65 Q-7.55 -11.1 -6.35 -10.75 -5.15 -10.35 -4.45 -11.2 -3.75 -12.05 -4.1 -12.6" fill="#ffffff" fill-rule="evenodd" stroke="none"/>
    <path d="M-4.1 -12.6 Q-3.75 -12.05 -4.45 -11.2 -5.15 -10.35 -6.35 -10.75 -7.55 -11.1 -8.0 -11.65 L-7.85 -11.7 -4.1 -12.6" fill="#8f7c3f" fill-rule="evenodd" stroke="none"/>
    <path d="M-8.0 -11.65 L-8.5 -11.6 -10.3 -11.35 Q-5.4 -5.9 -2.45 -13.15 L-4.1 -12.6 -7.85 -11.7 -8.0 -11.65 Z" fill="none" stroke="#8f7c3f" stroke-linecap="round" stroke-linejoin="round" stroke-width="1.0"/>
    <path d="M9.75 -11.9 L9.1 -12.0 Q6.4 -12.5 3.7 -13.45 6.65 -6.2 11.55 -11.65 L9.75 -11.9" fill="#ffffff" fill-rule="evenodd" stroke="none"/>
    <path d="M9.75 -11.9 L11.55 -11.65 Q6.65 -6.2 3.7 -13.45 6.4 -12.5 9.1 -12.0 L9.75 -11.9 Z" fill="none" stroke="#8f7c3f" stroke-linecap="round" stroke-linejoin="round" stroke-width="1.0"/>
    <path d="M-10.15 -25.45 Q-12.05 -27.3 -13.25 -29.65 -15.05 -33.15 -15.65 -36.9 L-11.8 -35.75 Q-9.2 -34.9 -8.0 -34.3 -7.1 -32.45 -7.4 -30.25 -7.85 -27.2 -9.95 -25.3 L-10.0 -25.3 -10.15 -25.45" fill="#fefefe" fill-rule="evenodd" stroke="none"/>
    <path d="M-10.0 -25.3 L-9.95 -25.3 Q-7.85 -27.2 -7.4 -30.25 -7.1 -32.45 -8.0 -34.3 -9.2 -34.9 -11.8 -35.75 L-15.65 -36.9 Q-15.05 -33.15 -13.25 -29.65 -12.05 -27.3 -10.15 -25.45" fill="none" stroke="#8f7c3f" stroke-linecap="round" stroke-linejoin="round" stroke-width="1.0"/>
    <path d="M9.75 -25.35 L9.6 -25.2 9.55 -25.2 Q7.45 -27.15 7.0 -30.15 6.65 -32.35 7.6 -34.2 8.75 -34.8 11.4 -35.65 L15.25 -36.8 Q14.6 -33.05 12.85 -29.55 11.6 -27.2 9.75 -25.35" fill="#8f7c3f" fill-rule="evenodd" stroke="none"/>
    <path d="M9.6 -25.2 L9.55 -25.2 Q7.45 -27.15 7.0 -30.15 6.65 -32.35 7.6 -34.2 8.75 -34.8 11.4 -35.65 L15.25 -36.8 Q14.6 -33.05 12.85 -29.55 11.6 -27.2 9.75 -25.35" fill="none" stroke="#8f7c3f" stroke-linecap="round" stroke-linejoin="round" stroke-width="1.0"/>
    <path d="M-3.8 -35.75 Q6.0 -37.4 11.6 -30.2 17.75 -22.25 10.05 -16.4 5.6 -13.05 -3.35 -13.7 -13.3 -14.7 -14.0 -24.45 L-14.05 -25.1 Q-14.35 -33.3 -5.5 -35.45 L-3.8 -35.75" fill="#ffffff" fill-rule="evenodd" stroke="none"/>
    <path d="M-3.8 -35.75 Q6.0 -37.4 11.6 -30.2 17.75 -22.25 10.05 -16.4 5.6 -13.05 -3.35 -13.7 -13.3 -14.7 -14.0 -24.45 L-14.05 -25.1 Q-14.35 -33.3 -5.5 -35.45 L-3.8 -35.75 Z" fill="none" stroke="#8f7c3f" stroke-linecap="round" stroke-linejoin="round" stroke-width="1.0"/>
    <path d="M5.2 -22.35 L3.8 -20.75 Q2.95 -20.15 1.75 -20.75 0.55 -21.35 0.15 -23.05 L-0.15 -23.1 Q-0.45 -21.15 -0.9 -20.85 L-2.6 -20.7 Q-3.4 -20.9 -3.85 -22.65 M1.8 -26.5 L4.3 -26.4 6.7 -26.35 M-7.2 -26.8 L-4.75 -26.5 -2.2 -26.45 M-9.85 -22.95 L-9.4 -23.55 -8.65 -24.0 -8.4 -24.0 M-6.9 -23.45 L-7.65 -23.2 -7.65 -22.9 -7.9 -22.65 -8.05 -22.65 -7.9 -22.9 -7.65 -23.2 M-0.15 -23.1 L-0.45 -23.25 Q-1.15 -23.7 -0.15 -25.25 1.05 -23.75 0.15 -23.05 L-0.15 -25.25 -0.45 -23.25" fill="none" stroke="#8f7c3f" stroke-linecap="round" stroke-linejoin="round" stroke-width="1.0"/>
    <path d="M6.85 -23.3 Q7.3 -23.35 7.7 -23.7 L8.55 -24.3 M8.65 -22.6 L9.45 -23.0 10.1 -23.35" fill="none" stroke="#8f7c3f" stroke-linecap="round" stroke-linejoin="round" stroke-width="1.0"/>
    <path d="M13.25 -28.0 Q11.0 -27.0 8.55 -27.75 5.5 -28.7 4.1 -29.7 2.65 -30.75 1.8 -32.55 0.85 -34.55 1.15 -36.5 3.55 -36.65 6.75 -34.65 L10.6 -31.8 13.25 -28.0" fill="#8f7c3f" fill-rule="evenodd" stroke="none"/>
    <path d="M4.2 -4.5 Q2.8 -3.0 0.9 -2.5 -0.85 -2.05 -2.1 -3.45 -3.0 -4.4 -3.6 -5.8 -3.85 -6.2 -3.65 -7.1 L0.15 -7.1 4.05 -6.85 5.7 -6.6 4.2 -4.5" fill="#e2d5c0" fill-rule="evenodd" stroke="none"/>
    <path d="M4.2 -4.5 Q2.8 -3.0 0.9 -2.5 -0.85 -2.05 -2.1 -3.45 -3.0 -4.4 -3.6 -5.8 -3.85 -6.2 -3.65 -7.1 L0.15 -7.1 4.05 -6.85 5.7 -6.6 4.2 -4.5 Z" fill="none" stroke="#8f7c3f" stroke-linecap="round" stroke-linejoin="round" stroke-width="1.0"/>
  </g>
</svg>
