<?xml version="1.0" encoding="UTF-8" standalone="no"?>
<svg xmlns:xlink="http://www.w3.org/1999/xlink" height="38.75px" width="36.65px" xmlns="http://www.w3.org/2000/svg">
  <g transform="matrix(1.0, 0.0, 0.0, 1.0, 17.5, 38.2)">
    <path d="M6.45 -7.8 Q10.1 -8.3 12.1 -9.4 L12.4 -9.55 Q15.0 -11.15 15.3 -14.1 15.5 -16.5 16.75 -18.35 18.25 -18.5 18.6 -16.25 18.85 -14.25 18.2 -12.35 17.6 -10.65 16.5 -9.55 15.55 -8.6 14.2 -8.1 L8.6 -6.2 5.3 -5.45 Q4.2 -6.5 4.5 -7.15 4.8 -7.85 6.45 -7.8" fill="#ffffff" fill-rule="evenodd" stroke="none"/>
    <path d="M6.45 -7.8 Q10.1 -8.3 12.1 -9.4 L12.4 -9.55 Q15.0 -11.15 15.3 -14.1 15.5 -16.5 16.75 -18.35 18.25 -18.5 18.6 -16.25 18.85 -14.25 18.2 -12.35 17.6 -10.65 16.5 -9.55 15.55 -8.6 14.2 -8.1 L8.6 -6.2" fill="none" stroke="#8f7c3f" stroke-linecap="round" stroke-linejoin="round" stroke-width="1.0"/>
    <path d="M8.6 -6.2 L5.3 -5.45 Q4.2 -6.5 4.5 -7.15 4.8 -7.85 6.45 -7.8 Z" fill="none" stroke="#8f7c3f" stroke-linecap="round" stroke-linejoin="round" stroke-width="1.0"/>
    <path d="M0.65 -15.15 L1.5 -14.45 4.5 -10.75 7.1 -6.85 Q8.05 -5.35 7.85 -2.65 7.6 0.05 4.85 -0.1 L-0.15 -0.3 -5.0 0.0 Q-8.5 0.35 -8.2 -2.3 -8.05 -4.7 -7.2 -6.9 -6.4 -9.05 -5.05 -11.0 L-2.55 -14.45 -2.35 -14.85 -1.95 -15.15 0.65 -15.15" fill="#e2d5c0" fill-rule="evenodd" stroke="none"/>
    <path d="M0.65 -15.15 L1.5 -14.45 4.5 -10.75 7.1 -6.85 Q8.05 -5.35 7.85 -2.65 7.6 0.05 4.85 -0.1 L-0.15 -0.3 -5.0 0.0 Q-8.5 0.35 -8.2 -2.3 -8.05 -4.7 -7.2 -6.9 -6.4 -9.05 -5.05 -11.0 L-2.55 -14.45 -2.35 -14.85 -1.95 -15.15" fill="none" stroke="#8f7c3f" stroke-linecap="round" stroke-linejoin="round" stroke-width="1.0"/>
    <path d="M-0.35 -11.2 Q-2.45 -12.75 -0.25 -12.35 -0.05 -11.5 -0.35 -11.2" fill="#d0bc9b" fill-rule="evenodd" stroke="none"/>
    <path d="M-0.35 -11.2 Q-2.45 -12.75 -0.25 -12.35 -0.05 -11.5 -0.35 -11.2 Z" fill="none" stroke="#8f7c3f" stroke-linecap="round" stroke-linejoin="round" stroke-width="1.0"/>
    <path d="M-7.35 -8.05 L-3.95 -8.45 -1.85 -8.6 Q-2.3 -6.55 -2.5 -6.35 L-2.85 -5.4 Q-3.25 -4.9 -4.65 -4.8 -5.8 -4.8 -6.7 -6.2 -8.0 -8.0 -7.35 -8.05" fill="#e2d5c0" fill-rule="evenodd" stroke="none"/>
    <path d="M-7.35 -8.05 L-3.95 -8.45 -1.85 -8.6 Q-2.3 -6.55 -2.5 -6.35 L-2.85 -5.4 Q-3.25 -4.9 -4.65 -4.8 -5.8 -4.8 -6.7 -6.2 -8.0 -8.0 -7.35 -8.05 Z" fill="none" stroke="#8f7c3f" stroke-linecap="round" stroke-linejoin="round" stroke-width="1.0"/>
    <path d="M1.6 -8.45 L4.95 -8.65 Q6.55 -8.85 7.1 -8.65 L6.3 -6.45 5.9 -5.5 Q5.5 -5.05 4.05 -5.05 2.95 -5.05 2.1 -6.5 0.9 -8.4 1.6 -8.45" fill="#e2d5c0" fill-rule="evenodd" stroke="none"/>
    <path d="M1.6 -8.45 L4.95 -8.65 Q6.55 -8.85 7.1 -8.65 L6.3 -6.45 5.9 -5.5 Q5.5 -5.05 4.05 -5.05 2.95 -5.05 2.1 -6.5 0.9 -8.4 1.6 -8.45 Z" fill="none" stroke="#8f7c3f" stroke-linecap="round" stroke-linejoin="round" stroke-width="1.0"/>
    <path d="M-9.4 -12.0 L-8.75 -12.1 Q-6.1 -12.6 -3.35 -13.55 -6.3 -6.3 -11.2 -11.75 L-9.4 -12.0" fill="#ffffff" fill-rule="evenodd" stroke="none"/>
    <path d="M-9.4 -12.0 L-11.2 -11.75 Q-6.3 -6.3 -3.35 -13.55 -6.1 -12.6 -8.75 -12.1 L-9.4 -12.0 Z" fill="none" stroke="#8f7c3f" stroke-linecap="round" stroke-linejoin="round" stroke-width="1.0"/>
    <path d="M8.8 -12.3 L8.15 -12.4 Q5.5 -12.9 2.75 -13.85 5.7 -6.6 10.6 -12.05 L8.8 -12.3" fill="#ffffff" fill-rule="evenodd" stroke="none"/>
    <path d="M8.8 -12.3 L10.6 -12.05 Q5.7 -6.6 2.75 -13.85 5.5 -12.9 8.15 -12.4 L8.8 -12.3 Z" fill="none" stroke="#8f7c3f" stroke-linecap="round" stroke-linejoin="round" stroke-width="1.0"/>
    <path d="M-11.55 -26.3 Q-13.45 -28.15 -14.65 -30.5 -16.4 -34.0 -17.0 -37.7 L-13.2 -36.55 -9.4 -35.15 Q-8.45 -33.3 -8.8 -31.05 -9.3 -28.1 -11.35 -26.15 L-11.35 -26.2 Q-11.45 -26.2 -11.55 -26.3" fill="#ffffff" fill-rule="evenodd" stroke="none"/>
    <path d="M-11.35 -26.2 L-11.35 -26.15 Q-9.3 -28.1 -8.8 -31.05 -8.45 -33.3 -9.4 -35.15 L-13.2 -36.55 -17.0 -37.7 Q-16.4 -34.0 -14.65 -30.5 -13.45 -28.15 -11.55 -26.3" fill="none" stroke="#8f7c3f" stroke-linecap="round" stroke-linejoin="round" stroke-width="1.0"/>
    <path d="M9.2 -25.5 L9.4 -25.6 Q11.3 -27.45 12.5 -29.8 14.25 -33.3 14.85 -37.0 L11.05 -35.85 7.25 -34.45 Q6.3 -32.6 6.65 -30.35 7.15 -27.4 9.2 -25.45 L9.2 -25.5" fill="#ffffff" fill-rule="evenodd" stroke="none"/>
    <path d="M9.2 -25.5 L9.2 -25.45 Q7.15 -27.4 6.65 -30.35 6.3 -32.6 7.25 -34.45 L11.05 -35.85 14.85 -37.0 Q14.25 -33.3 12.5 -29.8 11.3 -27.45 9.4 -25.6" fill="none" stroke="#8f7c3f" stroke-linecap="round" stroke-linejoin="round" stroke-width="1.0"/>
    <path d="M-4.6 -36.1 Q5.15 -37.7 10.7 -30.55 16.85 -22.6 9.15 -16.8 4.75 -13.45 -4.2 -14.1 -14.1 -15.1 -14.75 -24.8 L-14.8 -25.45 Q-15.1 -33.65 -6.3 -35.8 L-4.6 -36.1" fill="#ffffff" fill-rule="evenodd" stroke="none"/>
    <path d="M-4.6 -36.1 Q5.15 -37.7 10.7 -30.55 16.85 -22.6 9.15 -16.8 4.75 -13.45 -4.2 -14.1 -14.1 -15.1 -14.75 -24.8 L-14.8 -25.45 Q-15.1 -33.65 -6.3 -35.8 L-4.6 -36.1 Z" fill="none" stroke="#8f7c3f" stroke-linecap="round" stroke-linejoin="round" stroke-width="1.0"/>
    <path d="M1.35 -28.85 Q2.1 -28.9 2.3 -28.35 2.45 -27.6 2.0 -27.35 L1.45 -27.45 1.2 -28.15 1.25 -28.5 1.35 -28.85" fill="#8f7c3f" fill-rule="evenodd" stroke="none"/>
    <path d="M4.3 -22.7 Q3.75 -21.75 2.9 -21.15 2.05 -20.55 0.85 -21.15 -0.35 -21.7 -0.75 -23.45 L-1.0 -23.45 Q-1.35 -21.55 -1.8 -21.25 L-3.5 -21.05 Q-4.3 -21.25 -4.7 -23.0 M7.7 -23.6 L8.5 -24.0 9.2 -24.3 M5.95 -24.25 Q6.4 -24.3 6.75 -24.65 L7.65 -25.25 M-3.35 -28.65 Q-2.8 -28.45 -3.05 -27.9 -3.05 -27.45 -4.0 -27.3 -4.4 -28.05 -4.0 -28.8 L-3.35 -28.65 Q-4.15 -27.8 -3.85 -27.55 L-4.0 -27.3 M-3.85 -27.55 L-3.25 -27.55 Q-3.45 -28.35 -3.85 -27.55 M-3.05 -27.9 L-3.25 -27.55 M1.45 -27.45 L1.2 -28.15 1.25 -28.5 1.35 -28.85 M-8.7 -24.25 L-9.45 -24.0 Q-9.4 -23.4 -9.8 -23.45 L-9.45 -24.0 M-1.0 -23.45 L-1.35 -23.65 Q-2.0 -24.1 -1.05 -25.6 0.2 -24.1 -0.75 -23.45 L-1.05 -25.6 -1.35 -23.65 M-11.6 -23.75 Q-11.1 -24.7 -10.15 -24.8" fill="none" stroke="#8f7c3f" stroke-linecap="round" stroke-linejoin="round" stroke-width="1.0"/>
    <path d="M1.35 -28.85 Q2.1 -28.9 2.3 -28.35 2.45 -27.6 2.0 -27.35 L1.45 -27.45" fill="none" stroke="#8f7c3f" stroke-linecap="round" stroke-linejoin="round" stroke-width="1.0"/>
    <path d="M-1.5 -36.2 Q-1.65 -34.45 -0.9 -33.25 M-3.6 -36.35 Q-3.75 -34.5 -3.35 -32.85 M0.6 -36.1 Q0.7 -34.7 1.15 -33.35" fill="none" stroke="#8f7c3f" stroke-linecap="round" stroke-linejoin="round" stroke-width="1.0"/>
    <path d="M-5.6 -13.25 L-5.1 -12.0 M-6.9 -13.1 L-6.3 -11.45 M-8.05 -12.75 Q-7.9 -11.75 -7.4 -11.1" fill="none" stroke="#8f7c3f" stroke-linecap="round" stroke-linejoin="round" stroke-width="1.0"/>
    <path d="M7.55 -12.85 L6.9 -11.65 M5.1 -13.55 L4.45 -12.45" fill="none" stroke="#8f7c3f" stroke-linecap="round" stroke-linejoin="round" stroke-width="1.0"/>
    <path d="M6.4 -13.3 L5.55 -12.1" fill="none" stroke="#8f7c3f" stroke-linecap="round" stroke-linejoin="round" stroke-width="1.0"/>
  </g>
</svg>
