<?xml version="1.0" encoding="UTF-8" standalone="no"?>
<!DOCTYPE svg PUBLIC "-//W3C//DTD SVG 1.1//EN" "http://www.w3.org/Graphics/SVG/1.1/DTD/svg11.dtd">
<svg width="82px" height="46px" version="1.1" xmlns="http://www.w3.org/2000/svg" xmlns:xlink="http://www.w3.org/1999/xlink" xml:space="preserve" xmlns:serif="http://www.serif.com/" style="fill-rule:evenodd;clip-rule:evenodd;stroke-linejoin:round;stroke-miterlimit:2;">
    <g transform="matrix(0.605775,0,0,0.605775,-26.1047,-86.6273)">
        <path d="M87.557,196.328C86.615,199.257 85.803,202.444 86.476,206.383C89.864,219.922 79.927,219.599 79.072,212.816C78.982,212.095 79.201,210.937 78.814,210.728L52.367,210.728C49.973,219.881 41.967,220.597 44.246,202.858C44.006,200.407 44.198,198.295 45.193,196.769C45.193,196.769 51.508,186.818 53.668,183.175C54.057,182.521 54.072,181.83 53.423,181.433C46.145,176.954 43.667,169.736 48.316,164.6C51.025,161.605 52.838,158.956 53.967,156.978L59.276,145.769L64.586,156.978C69.745,156.055 73.979,155.68 78.814,155.986L83.99,145.769L89.299,156.978C95.489,158.563 99.298,159.93 104.335,164.6C108.168,168.153 108.243,173.016 104.335,176.842C101.462,179.655 99.777,180.734 92.337,182.417C91.676,182.578 91.137,183.056 90.9,183.693C90.149,185.721 89.508,187.71 88.961,189.751C90.097,190.365 90.861,191.508 90.861,192.816C90.861,194.612 89.421,196.098 87.557,196.328ZM140.094,185.74C140.976,182.847 143.864,180.858 147.47,181.512C146.534,176.004 149.886,172.542 154.377,172.311C153.919,170.711 154.092,168.323 155.944,166.635C160.393,162.579 164.734,162.154 168.681,166.635C172.227,163.26 181.488,173.138 173.081,180.382C168.883,182.956 166.476,182.705 162.158,181.512C162.317,182.68 161.087,184.596 159.033,185.74L159.901,185.74C159.903,192.326 157.08,197.723 147.114,198.2L147.766,198.104L124.643,198.104C124.991,197.268 119.07,191.908 114.601,188.51C114.073,188.111 113.858,187.419 114.069,186.792C114.279,186.164 114.866,185.741 115.528,185.74L140.094,185.74Z" style="fill:white;"/>
    </g>
    <g transform="matrix(0.605775,0,0,0.605775,-26.1047,-86.6273)">
        <path d="M85.417,206.061L85.417,212.803C85.417,213.84 85.207,214.611 84.72,215.097C84.319,215.497 83.757,215.677 83.049,215.677C82.299,215.677 81.7,215.476 81.263,215.039C80.871,214.649 80.661,213.953 80.563,212.976C80.529,212.624 80.393,212.369 80.198,212.193C80.003,212.016 79.736,211.907 79.383,211.907C79.362,211.907 79.342,211.908 79.321,211.91C78.976,211.948 78.726,212.098 78.553,212.327C78.407,212.521 78.313,212.79 78.313,213.146C78.313,213.167 78.314,213.188 78.316,213.209C78.488,214.702 78.923,215.755 79.564,216.394C80.427,217.256 81.566,217.7 82.991,217.7C84.42,217.7 85.539,217.273 86.361,216.452C87.22,215.596 87.67,214.403 87.67,212.861L87.67,206.061C87.67,205.682 87.555,205.406 87.382,205.217C87.194,205.01 86.921,204.879 86.543,204.879C86.165,204.879 85.893,205.01 85.704,205.217C85.531,205.406 85.417,205.682 85.417,206.061ZM52.584,210.253L52.567,210.246C52.294,210.126 52.021,210.137 51.747,210.287C51.516,210.415 51.34,210.62 51.241,210.917C51.241,210.918 51.24,210.919 51.24,210.92C50.751,212.41 50.161,213.546 49.453,214.318C48.818,215.009 48.136,215.373 47.387,215.373C46.965,215.373 46.624,215.326 46.366,215.214C46.139,215.115 45.945,214.921 45.768,214.649C45.56,214.327 45.422,213.865 45.334,213.27C45.237,212.602 45.189,211.744 45.189,210.694C45.189,208.706 45.233,206.314 45.32,203.518C45.333,203.234 45.253,202.981 45.079,202.757C44.887,202.511 44.661,202.389 44.418,202.359L44.282,202.337C43.983,202.314 43.713,202.423 43.493,202.706C43.331,202.913 43.24,203.157 43.226,203.439C43.225,203.443 43.225,203.446 43.225,203.45C43.137,206.304 43.093,208.719 43.093,210.694C43.093,213.267 43.41,215.039 43.987,216.017C44.621,217.093 45.743,217.667 47.387,217.667C48.655,217.667 49.801,217.145 50.814,216.077C51.761,215.079 52.551,213.617 53.167,211.68C53.168,211.677 53.168,211.674 53.169,211.671C53.242,211.428 53.242,211.175 53.162,210.913C53.064,210.593 52.877,210.388 52.629,210.272L52.669,210.293L52.584,210.253ZM77.826,209.152L70.417,209.152C69.804,209.152 69.306,209.65 69.306,210.264C69.306,210.877 69.804,211.375 70.417,211.375L77.826,211.375C78.44,211.375 78.938,210.877 78.938,210.264C78.938,209.65 78.44,209.152 77.826,209.152ZM66.228,209.151L55.395,209.151C54.781,209.151 54.283,209.649 54.283,210.263C54.283,210.876 54.781,211.374 55.395,211.374L66.228,211.374C66.841,211.374 67.339,210.876 67.339,210.263C67.339,209.649 66.841,209.151 66.228,209.151ZM147.766,196.872L138.421,196.872C137.807,196.872 137.309,197.37 137.309,197.983C137.309,198.597 137.807,199.095 138.421,199.095L147.766,199.095C148.379,199.095 148.877,198.597 148.877,197.983C148.877,197.37 148.379,196.872 147.766,196.872ZM133.988,196.872L124.643,196.872C124.029,196.872 123.531,197.37 123.531,197.983C123.531,198.597 124.029,199.095 124.643,199.095L133.988,199.095C134.601,199.095 135.099,198.597 135.099,197.983C135.099,197.37 134.601,196.872 133.988,196.872ZM51.785,183.97L44.459,196.357C44.147,196.886 44.322,197.568 44.851,197.881C45.379,198.194 46.062,198.018 46.374,197.49L53.7,185.103C54.013,184.575 53.838,183.892 53.309,183.579C52.781,183.267 52.098,183.442 51.785,183.97ZM158.978,187.028C158.983,187.041 158.989,187.056 158.992,187.068C159.001,187.102 159.007,187.14 159.011,187.18C158.801,189.652 158.109,191.659 156.914,193.197C155.794,194.637 154.181,195.531 152.085,195.9C152.084,195.9 152.082,195.901 152.081,195.901C151.621,195.985 151.303,196.306 151.303,196.982C151.303,197.002 151.304,197.023 151.306,197.043C151.339,197.342 151.459,197.557 151.625,197.706C151.792,197.857 152.019,197.953 152.32,197.953C152.347,197.953 152.373,197.951 152.399,197.947C155.018,197.568 157.043,196.444 158.484,194.591C159.992,192.651 160.868,190.199 161.092,187.227C161.093,187.213 161.094,187.199 161.094,187.185C161.094,186.381 160.934,185.838 160.7,185.537C160.367,185.109 159.801,184.848 158.968,184.848L151.35,184.848C151.089,184.848 150.885,184.938 150.728,185.089C150.558,185.253 150.425,185.526 150.425,185.938C150.425,186.349 150.558,186.622 150.728,186.787C150.885,186.938 151.089,187.028 151.35,187.028L158.978,187.028ZM87.05,188.162C84.312,188.162 82.128,190.271 82.128,192.816C82.128,195.362 84.312,197.471 87.05,197.471C89.788,197.471 91.972,195.362 91.972,192.816C91.972,190.271 89.788,188.162 87.05,188.162ZM163.25,184.677C164.763,186.288 165.581,188.113 165.603,189.96C165.625,191.801 164.852,193.648 163.256,195.309C162.937,195.641 162.948,196.169 163.28,196.487C163.612,196.806 164.14,196.796 164.459,196.464C166.399,194.443 167.297,192.179 167.27,189.94C167.244,187.707 166.294,185.483 164.465,183.535C164.15,183.2 163.622,183.183 163.287,183.498C162.951,183.813 162.935,184.341 163.25,184.677ZM168.185,184.677C169.698,186.288 170.516,188.113 170.538,189.96C170.56,191.801 169.787,193.648 168.191,195.309C167.872,195.641 167.883,196.169 168.215,196.487C168.547,196.806 169.075,196.796 169.394,196.464C171.334,194.443 172.232,192.179 172.205,189.94C172.179,187.707 171.229,185.483 169.4,183.535C169.085,183.2 168.557,183.183 168.222,183.498C167.886,183.813 167.87,184.341 168.185,184.677ZM87.05,190.385C88.519,190.385 89.749,191.451 89.749,192.816C89.749,194.182 88.519,195.248 87.05,195.248C85.582,195.248 84.351,194.182 84.351,192.816C84.351,191.451 85.582,190.385 87.05,190.385ZM113.831,189.507C116.092,191.022 118.74,193.318 120.198,194.892C120.614,195.342 121.317,195.369 121.767,194.953C122.217,194.536 122.244,193.833 121.828,193.383C120.279,191.711 117.469,189.271 115.068,187.662C114.559,187.321 113.868,187.457 113.527,187.966C113.186,188.475 113.322,189.166 113.831,189.507ZM109.845,189.446L93.815,189.446C93.201,189.446 92.702,189.944 92.702,190.558C92.702,191.172 93.201,191.671 93.815,191.671L109.845,191.671C110.459,191.671 110.958,191.172 110.958,190.558C110.958,189.944 110.459,189.446 109.845,189.446ZM147.113,185.052L138.91,185.052C138.296,185.052 137.799,185.549 137.799,186.162C137.799,186.775 138.296,187.273 138.91,187.273L147.113,187.273C147.726,187.273 148.224,186.775 148.224,186.162C148.224,185.549 147.726,185.052 147.113,185.052ZM133.987,185.052L125.784,185.052C125.17,185.052 124.673,185.549 124.673,186.162C124.673,186.775 125.17,187.273 125.784,187.273L133.987,187.273C134.6,187.273 135.098,186.775 135.098,186.162C135.098,185.549 134.6,185.052 133.987,185.052ZM172.943,168.299C174.617,169.975 175.525,171.872 175.549,173.793C175.573,175.708 174.715,177.627 172.95,179.355C172.62,179.677 172.615,180.206 172.937,180.535C173.26,180.865 173.788,180.87 174.118,180.548C176.26,178.45 177.248,176.097 177.218,173.772C177.189,171.454 176.144,169.142 174.124,167.12C173.799,166.794 173.27,166.793 172.944,167.119C172.618,167.444 172.617,167.973 172.943,168.299ZM132.204,174.489C130.803,174.489 129.665,175.627 129.665,177.029C129.665,178.43 130.803,179.568 132.204,179.568C133.606,179.568 134.743,178.43 134.743,177.029C134.743,175.627 133.606,174.489 132.204,174.489ZM53.769,175.231C54.066,175.552 54.257,175.855 54.261,176.176C54.265,176.484 54.086,176.775 53.785,177.083C53.464,177.412 53.47,177.94 53.799,178.262C54.128,178.583 54.656,178.577 54.978,178.247C55.653,177.555 55.936,176.846 55.927,176.154C55.918,175.475 55.621,174.779 54.993,174.1C54.681,173.762 54.154,173.741 53.816,174.053C53.478,174.365 53.457,174.893 53.769,175.231ZM48.056,163.814C45.979,165.894 44.911,168.274 44.881,170.659C44.85,173.051 45.86,175.477 48.064,177.636C48.503,178.065 49.207,178.058 49.637,177.619C50.066,177.181 50.059,176.476 49.62,176.047C47.918,174.38 47.081,172.534 47.104,170.687C47.127,168.831 48.013,167.004 49.629,165.385C50.063,164.951 50.062,164.246 49.628,163.813C49.194,163.379 48.489,163.38 48.056,163.814ZM103.549,165.385C105.165,167.004 106.051,168.831 106.074,170.687C106.097,172.534 105.26,174.38 103.558,176.047C103.119,176.476 103.112,177.181 103.541,177.619C103.971,178.058 104.675,178.065 105.113,177.636C107.318,175.477 108.328,173.051 108.297,170.659C108.267,168.274 107.199,165.894 105.122,163.814C104.689,163.38 103.984,163.379 103.55,163.813C103.116,164.246 103.115,164.951 103.549,165.385ZM132.204,176.155C132.686,176.155 133.078,176.546 133.078,177.029C133.078,177.511 132.686,177.902 132.204,177.902C131.722,177.902 131.33,177.511 131.33,177.029C131.33,176.546 131.722,176.155 132.204,176.155ZM88.345,167.538C88.873,167.45 89.264,167.631 89.524,168.064L89.524,168.065C90.264,169.309 90.637,170.775 90.637,172.467C90.637,173.868 90.31,174.964 89.679,175.762C89.02,176.595 88.197,177.006 87.215,177.006C86.604,177.006 86.087,176.853 85.662,176.556C85.248,176.267 84.918,175.836 84.681,175.259C84.444,175.836 84.114,176.267 83.7,176.556C83.274,176.853 82.758,177.006 82.147,177.006C81.165,177.006 80.342,176.595 79.683,175.762C79.052,174.964 78.725,173.868 78.725,172.467C78.725,170.764 79.099,169.297 79.838,168.064C80.1,167.628 80.493,167.448 81.025,167.539C81.044,167.539 81.062,167.541 81.077,167.545L81.078,167.543C81.335,167.582 81.514,167.724 81.612,167.971C81.704,168.201 81.691,168.416 81.58,168.618C81.579,168.62 81.579,168.621 81.578,168.623C80.934,169.754 80.609,171.025 80.599,172.436C80.599,173.384 80.767,174.122 81.127,174.646C81.446,175.112 81.824,175.359 82.277,175.359C82.755,175.359 83.097,175.056 83.336,174.494C83.624,173.817 83.76,172.801 83.76,171.447L83.76,169.488C83.76,169.239 83.848,169.028 84.022,168.854L84.022,168.853C84.196,168.679 84.408,168.592 84.657,168.592L84.657,168.593C84.664,168.592 84.672,168.592 84.681,168.592C84.689,168.592 84.697,168.592 84.705,168.593L84.705,168.592C84.952,168.592 85.161,168.675 85.334,168.84C85.509,169.007 85.602,169.221 85.602,169.488L85.602,171.447C85.602,172.801 85.738,173.817 86.026,174.494C86.265,175.056 86.607,175.359 87.085,175.359C87.538,175.359 87.915,175.112 88.235,174.646C88.594,174.122 88.763,173.383 88.763,172.435C88.763,171.025 88.438,169.755 87.785,168.625C87.784,168.623 87.783,168.62 87.781,168.618C87.673,168.419 87.656,168.207 87.737,167.981C87.824,167.742 87.994,167.595 88.254,167.548C88.283,167.542 88.314,167.538 88.345,167.538ZM97.143,168.559C98.206,168.559 99.069,169.422 99.069,170.485C99.069,171.548 98.206,172.411 97.143,172.411C96.079,172.411 95.216,171.548 95.216,170.485C95.216,169.422 96.079,168.559 97.143,168.559ZM71.41,168.559C72.474,168.559 73.337,169.422 73.337,170.485C73.337,171.548 72.474,172.411 71.41,172.411C70.347,172.411 69.484,171.548 69.484,170.485C69.484,169.422 70.347,168.559 71.41,168.559ZM141.507,169.63C142.201,169.63 142.764,170.194 142.764,170.888C142.764,171.581 142.201,172.145 141.507,172.145C140.813,172.145 140.25,171.581 140.25,170.888C140.25,170.194 140.813,169.63 141.507,169.63ZM149.867,169.63C150.56,169.63 151.124,170.194 151.124,170.888C151.124,171.581 150.56,172.145 149.867,172.145C149.173,172.145 148.609,171.581 148.609,170.888C148.609,170.194 149.173,169.63 149.867,169.63ZM54.826,168.38C55.52,168.38 56.084,168.943 56.084,169.637C56.084,170.331 55.52,170.894 54.826,170.894C54.133,170.894 53.569,170.331 53.569,169.637C53.569,168.943 54.133,168.38 54.826,168.38ZM156.988,166.905C158.664,165.231 160.561,164.323 162.482,164.299C164.397,164.275 166.316,165.133 168.044,166.898C168.366,167.228 168.895,167.233 169.224,166.911C169.554,166.588 169.559,166.06 169.237,165.73C167.139,163.588 164.786,162.6 162.461,162.63C160.143,162.659 157.831,163.704 155.809,165.724C155.483,166.049 155.482,166.578 155.808,166.904C156.133,167.23 156.662,167.231 156.988,166.905ZM60.686,162.96L62.071,165.723C62.278,166.134 62.779,166.301 63.19,166.095C63.602,165.888 63.768,165.387 63.562,164.976L62.176,162.213C61.97,161.801 61.468,161.635 61.057,161.841C60.646,162.047 60.479,162.549 60.686,162.96ZM148.274,162.266C148.968,162.266 149.532,162.829 149.532,163.523C149.532,164.217 148.968,164.78 148.274,164.78C147.58,164.78 147.017,164.217 147.017,163.523C147.017,162.829 147.58,162.266 148.274,162.266ZM72.972,155.421L72.972,157.591C72.972,158.051 73.346,158.425 73.806,158.425C74.266,158.425 74.64,158.051 74.64,157.591L74.64,155.421C74.64,154.961 74.266,154.587 73.806,154.587C73.346,154.587 72.972,154.961 72.972,155.421ZM69.604,155.421L69.604,157.591C69.604,158.051 69.978,158.425 70.438,158.425C70.898,158.425 71.272,158.051 71.272,157.591L71.272,155.421C71.272,154.961 70.898,154.587 70.438,154.587C69.978,154.587 69.604,154.961 69.604,155.421ZM90.304,156.502L84.994,145.293C84.811,144.905 84.419,144.657 83.99,144.657C83.56,144.657 83.169,144.905 82.985,145.293L77.676,156.502C77.413,157.056 77.65,157.719 78.205,157.982C78.759,158.245 79.422,158.008 79.685,157.453L83.99,148.365L88.294,157.453C88.557,158.008 89.221,158.245 89.775,157.982C90.329,157.719 90.566,157.056 90.304,156.502ZM65.591,156.502L60.281,145.293C60.098,144.905 59.706,144.657 59.277,144.657C58.847,144.657 58.456,144.905 58.272,145.293L52.963,156.502C52.7,157.056 52.937,157.719 53.492,157.982C54.046,158.245 54.709,158.008 54.972,157.453L59.277,148.365L63.581,157.453C63.844,158.008 64.508,158.245 65.062,157.982C65.616,157.719 65.853,157.056 65.591,156.502Z"/>
    </g>
</svg>
