<?xml version="1.0" encoding="UTF-8" standalone="no"?>
<!DOCTYPE svg PUBLIC "-//W3C//DTD SVG 1.1//EN" "http://www.w3.org/Graphics/SVG/1.1/DTD/svg11.dtd">
<svg width="104px" height="104px" version="1.1" xmlns="http://www.w3.org/2000/svg" xmlns:xlink="http://www.w3.org/1999/xlink" xml:space="preserve" xmlns:serif="http://www.serif.com/" style="fill-rule:evenodd;clip-rule:evenodd;stroke-linejoin:round;stroke-miterlimit:2;">
    <g transform="matrix(0.614951,0,0,0.614951,-15.6446,-31.0318)">
        <path d="M58.65,70.113C59.394,69.758 59.867,69.007 59.867,68.183C59.875,64.902 59.875,56.886 59.875,56.886L65.862,57.666L65.862,67.785C70.163,66.98 74.704,67.029 78.825,67.832L78.825,57.753L84.812,58.533L84.812,69.679C87.778,70.998 90.202,72.82 91.684,75.085C91.785,75.24 91.922,75.369 92.037,75.513C95.894,80.339 95.375,85.318 91.301,90.144C91.724,97.296 88.889,106.083 82.643,107.741C84.952,107.612 87.647,108.289 89.894,109.061C94.441,110.972 98.458,114.119 101.513,119.51C101.513,119.51 105.654,127.057 107.948,131.237C108.259,131.804 108.845,132.164 109.491,132.185C110.137,132.207 110.746,131.886 111.094,131.341C113.686,127.277 118.4,119.886 118.4,119.886C118.4,119.886 121.187,125.341 122.541,128.089C122.94,128.899 123.493,129.812 124.132,130.766C124.209,130.881 124.341,130.948 124.48,130.941C124.62,130.934 124.745,130.855 124.81,130.732C125.607,129.208 126.258,127.463 126.697,125.405L126.819,124.798C127.371,122.424 128.731,120.551 130.66,119.884C134.009,118.725 137.812,121.639 139.147,126.386C140.226,130.22 139.563,133.999 137.231,136.041C135.999,137.12 133.649,138.648 131.157,139.633C131.546,140.074 131.776,140.327 131.776,140.327L117.197,153.162C115.228,154.403 113.259,154.403 111.29,153.162L96.71,140.327C94.258,146.545 97.357,153.689 103.852,161.399C107.709,166.225 107.926,171.051 103.852,175.877L97.71,183.324C97.71,183.324 87.905,191.956 83.625,195.724C83.115,196.173 82.812,196.812 82.786,197.491C82.761,198.17 83.015,198.83 83.49,199.316C85.38,201.25 88.059,203.993 88.059,203.993C91.916,208.819 92.133,213.645 88.059,218.471C86.521,219.428 85.055,219.261 83.663,217.969L69.084,205.134C67.05,203.468 65.135,203.441 63.346,205.134L48.767,217.969C47.291,219.077 45.875,219.257 44.521,218.471C40.447,213.645 40.664,208.819 44.521,203.993C44.521,203.993 46.68,201.456 48.29,199.564C49.245,198.442 49.126,196.761 48.022,195.784C43.722,191.979 33.941,183.324 33.941,183.324C31.602,180.862 30.767,178.593 29.525,175.877C25.452,171.051 24.462,168.46 31.836,156.24C35.538,150.106 42.931,143.328 36.413,133.443C33.043,128.333 32.556,123.791 36.413,118.965C39.587,112.65 44.511,106.155 54.961,99.094C51.439,97.175 49.596,94.488 51.707,89.991C47.634,85.165 47.851,80.339 51.707,75.513C53.539,73.221 55.934,71.433 58.65,70.113ZM75.149,172.936C75.353,172.861 75.582,172.934 75.705,173.113C75.828,173.292 75.813,173.531 75.67,173.694C72.586,177.198 72.433,181.311 71.828,184.283C71.435,186.21 66.857,195.422 66.857,195.422C66.857,195.422 62.981,188.025 61.887,184.283C61.349,182.444 63.651,176.553 59.571,172.933C62.841,174.496 65.052,174.232 68.31,174.206C70.593,174.188 72.873,173.769 75.149,172.936Z" style="fill:white;"/>
    </g>
    <g transform="matrix(0.614951,0,0,0.614951,-15.6446,-31.0318)">
        <path d="M87.191,204.687C88.942,206.877 89.898,209.054 89.922,211.244C89.947,213.419 89.046,215.58 87.21,217.754C86.815,218.223 86.874,218.924 87.343,219.32C87.811,219.715 88.513,219.656 88.908,219.188C91.147,216.536 92.174,213.871 92.144,211.219C92.115,208.584 91.034,205.935 88.927,203.299C88.544,202.82 87.845,202.742 87.366,203.125C86.887,203.508 86.808,204.208 87.191,204.687ZM43.653,203.299C41.547,205.935 40.466,208.584 40.436,211.219C40.406,213.871 41.434,216.536 43.672,219.188C44.067,219.656 44.769,219.715 45.238,219.32C45.706,218.924 45.766,218.223 45.37,217.754C43.535,215.58 42.634,213.419 42.658,211.244C42.683,209.054 43.639,206.877 45.389,204.687C45.772,204.208 45.694,203.508 45.215,203.125C44.736,202.742 44.036,202.82 43.653,203.299ZM84.397,217.135L69.818,204.3C69.358,203.895 68.655,203.94 68.25,204.4C67.845,204.86 67.889,205.563 68.35,205.968L82.929,218.803C83.389,219.209 84.092,219.164 84.497,218.704C84.902,218.243 84.858,217.541 84.397,217.135ZM49.501,218.803L64.08,205.968C64.54,205.563 64.585,204.86 64.18,204.4C63.775,203.94 63.072,203.895 62.612,204.3L48.032,217.135C47.572,217.541 47.527,218.243 47.933,218.704C48.338,219.164 49.04,219.209 49.501,218.803ZM96.976,182.49L82.397,195.325C81.937,195.73 81.892,196.433 82.297,196.893C82.702,197.354 83.405,197.398 83.865,196.993L98.445,184.158C98.905,183.753 98.95,183.05 98.544,182.59C98.139,182.129 97.437,182.085 96.976,182.49ZM33.207,184.158L47.786,196.993C48.246,197.398 48.949,197.354 49.354,196.893C49.759,196.433 49.715,195.73 49.254,195.325L34.675,182.49C34.215,182.085 33.512,182.129 33.107,182.59C32.702,183.05 32.746,183.753 33.207,184.158ZM70.813,183.831L66.857,192.695L62.902,183.831C62.652,183.271 61.994,183.019 61.434,183.269C60.874,183.519 60.622,184.176 60.872,184.736L65.843,195.875C66.021,196.275 66.419,196.533 66.857,196.533C67.296,196.533 67.693,196.275 67.872,195.875L72.842,184.736C73.092,184.176 72.84,183.519 72.28,183.269C71.72,183.019 71.063,183.271 70.813,183.831ZM28.658,160.706C26.551,163.342 25.47,165.99 25.441,168.626C25.411,171.278 26.438,173.942 28.676,176.594C29.072,177.063 29.774,177.122 30.242,176.726C30.711,176.331 30.77,175.629 30.375,175.161C28.539,172.986 27.638,170.825 27.663,168.651C27.687,166.461 28.643,164.283 30.393,162.093C30.776,161.614 30.698,160.914 30.219,160.531C29.74,160.149 29.04,160.227 28.658,160.706ZM102.984,162.093C104.735,164.283 105.691,166.461 105.715,168.651C105.74,170.825 104.839,172.986 103.003,175.161C102.608,175.629 102.667,176.331 103.136,176.726C103.604,177.122 104.306,177.063 104.701,176.594C106.94,173.942 107.967,171.278 107.937,168.626C107.908,165.99 106.827,163.342 104.72,160.706C104.338,160.227 103.638,160.149 103.159,160.531C102.68,160.914 102.602,161.614 102.984,162.093ZM46.786,163.386L61.365,176.222C61.826,176.627 62.528,176.582 62.934,176.122C63.339,175.661 63.294,174.959 62.834,174.554L48.254,161.718C47.794,161.313 47.092,161.358 46.686,161.818C46.281,162.278 46.326,162.981 46.786,163.386ZM84.438,164.645C81.719,166.468 78.536,169.231 76.783,171.124C76.366,171.574 76.393,172.277 76.843,172.694C77.293,173.111 77.997,173.084 78.414,172.634C80.076,170.839 83.096,168.22 85.675,166.491C86.184,166.15 86.321,165.459 85.979,164.95C85.638,164.44 84.947,164.304 84.438,164.645ZM53.487,154.045L53.663,153.912C53.736,153.655 53.699,153.407 53.544,153.17C53.389,152.933 53.181,152.801 52.926,152.762C52.922,152.761 52.918,152.761 52.914,152.76C48.456,152.206 44.941,150.982 42.374,149.069C42.372,149.068 42.371,149.067 42.369,149.066C42.156,148.912 41.918,148.857 41.652,148.905C41.393,148.952 41.184,149.086 41.028,149.31C40.882,149.522 40.821,149.764 40.854,150.037C40.889,150.331 41.02,150.55 41.231,150.702C43.967,152.768 47.733,154.121 52.529,154.739C52.534,154.74 52.539,154.741 52.545,154.741C52.838,154.768 53.076,154.7 53.264,154.563C53.444,154.431 53.586,154.228 53.664,153.939L53.261,154.248C53.261,154.248 53.377,154.151 53.487,154.045ZM72.257,154.045L72.433,153.912C72.506,153.655 72.47,153.407 72.314,153.17C72.16,152.933 71.951,152.801 71.697,152.762C71.693,152.761 71.688,152.761 71.684,152.76C67.226,152.206 63.711,150.982 61.144,149.069C61.143,149.068 61.141,149.067 61.139,149.066C60.927,148.912 60.688,148.857 60.422,148.905C60.163,148.952 59.954,149.086 59.799,149.31C59.652,149.522 59.592,149.764 59.624,150.037C59.659,150.331 59.79,150.55 60.001,150.702C62.737,152.768 66.503,154.121 71.299,154.739C71.304,154.74 71.31,154.741 71.315,154.741C71.609,154.768 71.846,154.7 72.034,154.563C72.214,154.431 72.356,154.228 72.434,153.939L72.031,154.248C72.031,154.248 72.147,154.151 72.257,154.045ZM91.027,154.045L91.203,153.912C91.276,153.655 91.24,153.407 91.085,153.17C90.93,152.933 90.722,152.801 90.467,152.762C90.463,152.761 90.459,152.761 90.455,152.76C85.997,152.206 82.481,150.982 79.915,149.069C79.913,149.068 79.911,149.067 79.909,149.066C79.697,148.912 79.458,148.857 79.192,148.905C78.933,148.952 78.725,149.086 78.569,149.31C78.423,149.522 78.362,149.764 78.394,150.037C78.43,150.331 78.561,150.55 78.771,150.702C81.507,152.768 85.274,154.121 90.069,154.739C90.075,154.74 90.08,154.741 90.085,154.741C90.379,154.768 90.617,154.7 90.804,154.563C90.985,154.431 91.126,154.228 91.205,153.939L90.801,154.248C90.801,154.248 90.918,154.151 91.027,154.045ZM131.042,139.493L116.462,152.328C116.002,152.733 115.957,153.436 116.363,153.896C116.768,154.356 117.471,154.401 117.931,153.996L132.51,141.161C132.97,140.755 133.015,140.053 132.61,139.592C132.205,139.132 131.502,139.087 131.042,139.493ZM95.976,141.161L110.556,153.996C111.016,154.401 111.719,154.356 112.124,153.896C112.529,153.436 112.484,152.733 112.024,152.328L97.445,139.493C96.984,139.087 96.282,139.132 95.877,139.592C95.471,140.053 95.516,140.755 95.976,141.161ZM53.155,154.076C53.152,154.082 53.148,154.088 53.143,154.094L53.158,154.113L53.261,154.216L53.155,154.076ZM90.696,154.076C90.692,154.082 90.688,154.088 90.684,154.094L90.698,154.113L90.801,154.216L90.696,154.076ZM71.926,154.076C71.922,154.082 71.918,154.088 71.914,154.094L71.928,154.113L72.031,154.216L71.926,154.076ZM53.34,148.744C53.409,148.494 53.374,148.248 53.224,148.008C53.068,147.761 52.858,147.625 52.602,147.586C52.6,147.586 52.599,147.585 52.597,147.585C48.741,147.032 45.725,146.022 43.556,144.539C43.345,144.39 43.109,144.337 42.847,144.384C42.577,144.433 42.37,144.574 42.226,144.808C42.093,145.024 42.047,145.265 42.097,145.535C42.148,145.81 42.281,146.018 42.484,146.165C42.486,146.166 42.488,146.167 42.489,146.168C44.875,147.84 48.11,148.971 52.199,149.547C52.452,149.583 52.694,149.525 52.923,149.36C53.137,149.206 53.276,149 53.34,148.744ZM72.111,148.744C72.179,148.494 72.145,148.248 71.994,148.008C71.839,147.761 71.628,147.625 71.372,147.586C71.371,147.586 71.369,147.585 71.368,147.585C67.511,147.032 64.495,146.022 62.326,144.539C62.115,144.39 61.879,144.337 61.617,144.384C61.347,144.433 61.14,144.574 60.996,144.808C60.863,145.024 60.817,145.265 60.867,145.535C60.918,145.81 61.051,146.018 61.255,146.165C61.256,146.166 61.258,146.167 61.26,146.168C63.645,147.84 66.88,148.971 70.97,149.547C71.222,149.583 71.465,149.525 71.693,149.36C71.907,149.206 72.046,149 72.111,148.744ZM90.881,148.744C90.95,148.494 90.915,148.248 90.764,148.008C90.609,147.761 90.398,147.625 90.142,147.586C90.141,147.586 90.139,147.585 90.138,147.585C86.281,147.032 83.266,146.022 81.096,144.539C80.886,144.39 80.65,144.337 80.387,144.384C80.117,144.433 79.91,144.574 79.766,144.808C79.634,145.024 79.588,145.265 79.637,145.535C79.688,145.81 79.821,146.018 80.025,146.165C80.027,146.166 80.028,146.167 80.03,146.168C82.415,147.84 85.65,148.971 89.74,149.547C89.992,149.583 90.235,149.525 90.463,149.36C90.677,149.206 90.817,149 90.881,148.744ZM52.166,144.626L52.168,144.626C52.415,144.662 52.655,144.609 52.886,144.458C53.114,144.308 53.26,144.101 53.326,143.837C53.394,143.575 53.361,143.333 53.232,143.109C53.088,142.86 52.885,142.724 52.636,142.682C52.634,142.682 52.631,142.681 52.629,142.681C49.114,142.158 46.385,141.339 44.444,140.209C44.215,140.076 43.969,140.045 43.705,140.121C43.451,140.194 43.257,140.345 43.122,140.573C42.989,140.798 42.948,141.044 43.006,141.313C43.068,141.599 43.224,141.808 43.47,141.942C45.548,143.163 48.446,144.063 52.166,144.626ZM70.936,144.626L70.939,144.626C71.186,144.662 71.426,144.609 71.656,144.458C71.884,144.308 72.031,144.101 72.097,143.837C72.165,143.575 72.131,143.333 72.002,143.109C71.858,142.86 71.656,142.724 71.406,142.682C71.404,142.682 71.402,142.681 71.399,142.681C67.885,142.158 65.155,141.339 63.214,140.209C62.985,140.076 62.739,140.045 62.475,140.121C62.222,140.194 62.027,140.345 61.892,140.573C61.759,140.798 61.719,141.044 61.777,141.313C61.838,141.599 61.995,141.808 62.24,141.942C64.318,143.163 67.216,144.063 70.936,144.626ZM89.706,144.626L89.709,144.626C89.956,144.662 90.196,144.609 90.426,144.458C90.654,144.308 90.801,144.101 90.867,143.837C90.935,143.575 90.902,143.333 90.772,143.109C90.629,142.86 90.426,142.724 90.177,142.682C90.174,142.682 90.172,142.681 90.17,142.681C86.655,142.158 83.925,141.339 81.984,140.209C81.756,140.076 81.509,140.045 81.245,140.121C80.992,140.194 80.797,140.345 80.662,140.573C80.53,140.798 80.489,141.044 80.547,141.313C80.609,141.599 80.765,141.808 81.011,141.942C83.088,143.163 85.987,144.063 89.706,144.626ZM141.985,123.97L141.989,123.967C142.379,124.462 142.293,125.18 141.797,125.571C141.311,125.954 140.612,125.881 140.217,125.413L140.216,125.414L139.926,125.042C139.628,124.66 139.372,124.365 139.153,124.16C139.317,124.599 139.597,125.272 139.994,126.179C140.359,127.014 140.546,128.005 140.546,129.154C140.546,130.22 140.202,131.087 139.529,131.76C138.965,132.323 138.365,132.678 137.734,132.836C137.734,132.836 137.928,133.549 138.11,134.214C138.183,134.483 138.127,134.771 137.957,134.993C137.788,135.215 137.525,135.345 137.246,135.345L137.245,135.345C136.538,135.345 135.922,134.864 135.751,134.178C135.6,133.575 135.447,132.964 135.447,132.964C134.109,132.801 132.974,132.252 132.043,131.32C130.01,129.287 128.971,127.165 128.971,123.201C128.971,123.201 128.972,123.16 128.972,123.093C128.978,122.448 129.502,121.928 130.147,121.928L130.15,121.928C130.457,121.928 130.751,122.05 130.968,122.268C131.185,122.485 131.306,122.78 131.305,123.087L131.305,123.194C131.351,126.61 132.117,128.231 133.661,129.775C134.063,130.177 134.492,130.467 134.95,130.641C134.95,130.641 132.698,122.017 131.858,118.8C131.775,118.521 131.828,118.219 132.002,117.986C132.176,117.752 132.45,117.615 132.741,117.615C132.741,117.609 132.742,117.609 132.743,117.609C133.432,117.609 134.033,118.078 134.2,118.747C134.998,121.937 137.197,130.734 137.197,130.734C137.462,130.649 137.699,130.5 137.911,130.289C138.177,130.022 138.286,129.614 138.286,129.081C138.286,128.21 138.077,127.294 137.664,126.332L137.664,126.331C136.937,124.618 136.599,123.598 136.599,123.286C136.599,122.815 136.767,122.411 137.104,122.074C137.429,121.749 137.878,121.57 138.463,121.57C138.824,121.57 139.231,121.684 139.678,121.934C140.256,122.258 140.922,122.819 141.669,123.628L141.985,123.97ZM35.545,118.272C33.439,120.907 32.358,123.556 32.328,126.192C32.298,128.844 33.326,131.508 35.564,134.16C35.96,134.629 36.661,134.688 37.13,134.292C37.599,133.897 37.658,133.195 37.262,132.727C35.427,130.552 34.526,128.391 34.55,126.217C34.575,124.027 35.531,121.849 37.281,119.659C37.664,119.18 37.586,118.48 37.107,118.097C36.628,117.715 35.928,117.793 35.545,118.272ZM60.559,118.272C58.453,120.907 57.372,123.556 57.342,126.192C57.312,128.844 58.34,131.508 60.578,134.16C60.973,134.629 61.675,134.688 62.144,134.292C62.612,133.897 62.672,133.195 62.276,132.727C60.441,130.552 59.54,128.391 59.564,126.217C59.589,124.027 60.545,121.849 62.295,119.659C62.678,119.18 62.6,118.48 62.121,118.097C61.642,117.715 60.942,117.793 60.559,118.272ZM75.962,119.557C77.712,121.747 78.668,123.924 78.693,126.115C78.717,128.289 77.816,130.45 75.981,132.624C75.585,133.093 75.645,133.795 76.113,134.19C76.582,134.586 77.283,134.526 77.679,134.058C79.917,131.406 80.945,128.741 80.915,126.09C80.885,123.454 79.804,120.805 77.698,118.17C77.315,117.691 76.615,117.612 76.136,117.995C75.657,118.378 75.579,119.078 75.962,119.557ZM100.539,120.045L107.513,132.754C107.808,133.292 108.484,133.489 109.021,133.194C109.559,132.899 109.756,132.223 109.461,131.685L102.488,118.976C102.193,118.438 101.517,118.241 100.979,118.536C100.441,118.831 100.244,119.507 100.539,120.045ZM69.219,118.965C67.59,118.965 66.229,119.345 65.131,120.091C64.538,120.492 64.298,120.91 64.298,121.26C64.298,121.549 64.408,121.806 64.641,122.025C64.885,122.258 65.19,122.38 65.561,122.38C65.882,122.38 66.161,122.277 66.4,122.072C66.4,122.071 66.4,122.071 66.401,122.071C67.19,121.387 68.124,121.046 69.2,121.046C69.843,121.046 70.395,121.129 70.856,121.3C70.857,121.3 70.858,121.3 70.859,121.301C71.5,121.534 71.856,121.878 71.856,122.394C71.856,122.742 71.625,123.013 71.22,123.246L71.219,123.247C70.797,123.492 69.919,123.773 68.589,124.105C67.099,124.472 66.024,124.829 65.361,125.169C64.078,125.822 63.453,126.779 63.453,128.017C63.453,129.301 64.062,130.295 65.302,130.986C66.252,131.516 67.479,131.79 68.987,131.79C70.81,131.79 72.338,131.347 73.573,130.475L73.574,130.475C73.96,130.202 74.226,129.945 74.381,129.716C74.525,129.502 74.586,129.298 74.586,129.111C74.586,128.872 74.501,128.642 74.316,128.429C74.089,128.169 73.785,128.031 73.397,128.031C73.08,128.031 72.673,128.201 72.206,128.603C71.85,128.909 71.385,129.161 70.815,129.365C70.233,129.573 69.612,129.676 68.95,129.676C68.107,129.676 67.405,129.548 66.847,129.278C66.235,128.984 65.904,128.581 65.904,128.033C65.904,127.565 66.175,127.227 66.677,126.989L66.678,126.989C67.203,126.739 68.204,126.423 69.679,126.033C70.975,125.692 71.993,125.316 72.735,124.909C73.777,124.336 74.289,123.501 74.289,122.418C74.289,121.174 73.615,120.208 72.219,119.555C71.383,119.165 70.384,118.965 69.219,118.965ZM111.094,130.96C111.277,131.308 111.532,131.474 111.805,131.522C112.146,131.582 112.475,131.467 112.705,131.035C113.969,129.058 115.445,126.655 117.129,123.831C117.129,123.83 117.13,123.829 117.13,123.829C117.744,122.788 118.14,122.149 118.323,121.914C118.356,121.871 118.389,121.834 118.423,121.805C118.433,121.796 118.44,121.785 118.447,121.777C118.477,121.807 118.533,121.867 118.567,121.919C118.736,122.182 119.065,122.862 119.561,123.957C119.561,123.958 119.562,123.959 119.562,123.96C120.532,126.066 121.269,127.642 121.775,128.688C121.777,128.692 121.779,128.696 121.781,128.7C121.981,129.087 122.265,129.244 122.564,129.261C122.879,129.28 123.17,129.152 123.384,128.793L123.453,128.694C123.591,128.472 123.678,128.197 123.697,127.865C123.716,127.528 123.654,127.237 123.527,126.989C122.814,125.55 122.115,124.081 121.432,122.589L121.432,122.588C120.7,120.999 120.19,120.007 119.912,119.61C119.525,119.056 119.027,118.794 118.436,118.794C117.885,118.794 117.407,119.025 117.015,119.512C116.735,119.86 116.124,120.813 115.187,122.376C115.186,122.377 115.186,122.377 115.186,122.378C113.725,124.837 112.359,127.063 111.087,129.054C111.085,129.056 111.084,129.058 111.083,129.06C110.947,129.278 110.859,129.553 110.834,129.891C110.808,130.241 110.869,130.539 110.997,130.787L111.491,131.088L111.01,130.811L111.094,130.96ZM122.37,128.588C122.381,128.652 122.404,128.714 122.437,128.771C122.537,128.942 122.72,129.047 122.917,129.047L122.864,128.943C122.716,128.911 122.585,128.819 122.505,128.687C122.457,128.667 122.412,128.635 122.37,128.588ZM163.951,124.415L145.807,124.415C145.194,124.415 144.696,124.913 144.696,125.526C144.696,126.139 145.194,126.637 145.807,126.637L163.951,126.637C164.565,126.637 165.062,126.139 165.062,125.526C165.062,124.913 164.565,124.415 163.951,124.415ZM164.979,118.174C164.986,118.193 164.995,118.211 165.005,118.229C164.806,118.207 164.632,118.08 164.553,117.893C164.467,117.689 164.51,117.454 164.662,117.294L164.666,117.29C164.665,117.291 164.663,117.292 164.662,117.294C164.507,117.455 164.414,117.657 164.394,117.906C164.376,118.141 164.427,118.349 164.538,118.531C164.542,118.539 164.547,118.546 164.552,118.553C165.212,119.535 166.066,120.005 167.092,119.996C167.908,119.996 168.672,119.631 169.36,118.858C169.36,118.858 169.361,118.858 169.361,118.857C169.697,118.478 170.014,118.253 170.354,118.253C170.778,118.253 171.133,118.51 171.458,118.962C171.459,118.964 171.46,118.966 171.462,118.968C171.62,119.183 171.821,119.294 172.05,119.323C172.309,119.357 172.54,119.282 172.737,119.083L172.341,119.248L172.547,119.122L172.775,119.026C172.932,118.864 173.027,118.66 173.046,118.409C173.066,118.162 173.007,117.952 172.891,117.776C172.89,117.775 172.89,117.774 172.889,117.773C172.228,116.79 171.375,116.321 170.349,116.33C169.533,116.33 168.768,116.695 168.081,117.468C168.08,117.468 168.08,117.468 168.08,117.469C167.747,117.845 167.432,118.067 167.095,118.062L167.087,118.062C166.89,118.062 166.711,118.017 166.55,117.923C166.363,117.815 166.186,117.63 166.006,117.382C165.844,117.147 165.637,117.031 165.401,117.002C165.138,116.97 164.909,117.046 164.716,117.24L164.675,117.281L164.676,117.284C164.549,117.442 164.516,117.658 164.595,117.848C164.665,118.014 164.809,118.133 164.979,118.174ZM172.197,118.771C172.181,118.774 172.164,118.775 172.147,118.774L172.376,119.194L172.197,118.771ZM176.822,97.263C178.573,99.453 179.529,101.631 179.553,103.821C179.578,105.995 178.677,108.156 176.841,110.331C176.446,110.799 176.505,111.501 176.974,111.896C177.442,112.292 178.144,112.233 178.54,111.764C180.778,109.112 181.805,106.448 181.775,103.796C181.746,101.16 180.665,98.512 178.558,95.876C178.176,95.397 177.476,95.319 176.997,95.702C176.518,96.084 176.44,96.784 176.822,97.263ZM88.815,98.279C87.965,101.742 85.83,104.735 82.11,106.766C81.654,107.015 81.432,107.546 81.574,108.046C81.717,108.545 82.186,108.879 82.704,108.85C84.88,108.729 87.416,109.384 89.532,110.112C90.112,110.311 90.745,110.003 90.945,109.423C91.144,108.843 90.835,108.21 90.255,108.011C88.912,107.548 87.415,107.125 85.927,106.868C88.591,104.673 90.215,101.897 90.973,98.808C91.119,98.212 90.754,97.61 90.158,97.464C89.563,97.318 88.961,97.683 88.815,98.279ZM62.764,103.33C62.755,103.368 62.749,103.408 62.745,103.449C62.619,103.392 62.517,103.289 62.462,103.156C62.376,102.949 62.423,102.71 62.582,102.551C62.353,102.78 62.217,103.07 62.189,103.426C62.161,103.767 62.235,104.069 62.4,104.333C62.405,104.341 62.41,104.348 62.415,104.355C63.611,106.083 65.146,106.925 67.003,106.911C68.489,106.91 69.865,106.249 71.11,104.89C71.11,104.89 71.11,104.889 71.111,104.889C71.91,104.012 72.696,103.54 73.505,103.54C74.512,103.54 75.384,104.09 76.154,105.134C76.156,105.136 76.157,105.138 76.158,105.139C76.373,105.424 76.643,105.575 76.955,105.614C77.27,105.653 77.552,105.57 77.797,105.354C77.842,105.319 77.886,105.273 77.926,105.213L77.967,105.152C78.17,104.93 78.29,104.655 78.317,104.322C78.345,103.968 78.264,103.668 78.093,103.416C78.092,103.415 78.092,103.414 78.091,103.413C76.895,101.685 75.36,100.843 73.503,100.858C72.016,100.858 70.641,101.519 69.396,102.878L69.395,102.879C68.598,103.754 67.815,104.219 67.009,104.207L67.001,104.207C66.505,104.207 66.054,104.095 65.648,103.866C65.219,103.623 64.803,103.217 64.388,102.659C64.173,102.352 63.896,102.193 63.574,102.154C63.228,102.112 62.927,102.214 62.673,102.463L62.592,102.541L62.597,102.555C62.497,102.706 62.476,102.899 62.547,103.071C62.591,103.18 62.668,103.27 62.764,103.33ZM77.373,104.981C77.362,104.989 77.35,104.996 77.338,105.003L77.531,105.36L77.373,104.981ZM51.913,98.326L54.132,100.09C54.612,100.472 55.312,100.392 55.693,99.911C56.075,99.431 55.995,98.732 55.515,98.35L53.296,96.587C52.815,96.205 52.116,96.285 51.734,96.765C51.353,97.245 51.433,97.945 51.913,98.326ZM54.913,96.326L57.132,98.09C57.612,98.472 58.312,98.392 58.693,97.911C59.075,97.431 58.995,96.732 58.515,96.35L56.296,94.587C55.815,94.205 55.116,94.285 54.734,94.765C54.353,95.245 54.433,95.945 54.913,96.326ZM181.284,74.938C179.178,77.574 178.097,80.222 178.067,82.858C178.037,85.51 179.065,88.175 181.303,90.826C181.699,91.295 182.4,91.354 182.869,90.959C183.337,90.563 183.397,89.861 183.001,89.393C181.166,87.218 180.265,85.057 180.289,82.883C180.314,80.693 181.27,78.516 183.02,76.325C183.403,75.846 183.325,75.147 182.846,74.764C182.367,74.381 181.667,74.459 181.284,74.938ZM171.987,74.938C169.88,77.574 168.799,80.222 168.77,82.858C168.74,85.51 169.767,88.175 172.006,90.826C172.401,91.295 173.103,91.354 173.571,90.959C174.04,90.563 174.099,89.861 173.704,89.393C171.868,87.218 170.967,85.057 170.992,82.883C171.017,80.693 171.972,78.516 173.723,76.325C174.106,75.846 174.027,75.147 173.548,74.764C173.069,74.381 172.37,74.459 171.987,74.938ZM91.169,76.207C92.919,78.397 93.875,80.574 93.9,82.764C93.924,84.939 93.023,87.1 91.188,89.274C90.792,89.743 90.852,90.444 91.32,90.84C91.789,91.235 92.491,91.176 92.886,90.708C95.124,88.056 96.152,85.391 96.122,82.739C96.092,80.104 95.011,77.455 92.905,74.819C92.522,74.34 91.822,74.262 91.343,74.645C90.864,75.028 90.786,75.728 91.169,76.207ZM50.839,74.819C48.733,77.455 47.652,80.104 47.622,82.739C47.593,85.391 48.62,88.056 50.858,90.708C51.254,91.176 51.955,91.235 52.424,90.84C52.893,90.444 52.952,89.743 52.556,89.274C50.721,87.1 49.82,84.939 49.844,82.764C49.869,80.574 50.825,78.397 52.575,76.207C52.958,75.728 52.88,75.028 52.401,74.645C51.922,74.262 51.222,74.34 50.839,74.819ZM76.332,88.932C78.346,88.932 79.954,88.344 81.163,87.191C82.38,86.03 82.998,84.482 82.998,82.539C82.998,80.574 82.385,79.021 81.18,77.872C79.983,76.73 78.369,76.146 76.332,76.146C75.009,76.146 73.81,76.417 72.735,76.953C72.479,77.081 72.317,77.272 72.238,77.518C72.16,77.763 72.177,78.002 72.293,78.238C72.397,78.464 72.581,78.629 72.857,78.714C73.123,78.796 73.364,78.774 73.581,78.664C74.422,78.26 75.302,78.056 76.214,78.056C77.602,78.056 78.713,78.452 79.54,79.266C80.366,80.078 80.768,81.175 80.768,82.547C80.768,83.918 80.356,85.013 79.511,85.824C78.662,86.639 77.561,87.038 76.214,87.038C75.281,87.038 74.401,86.84 73.573,86.442C73.372,86.34 73.14,86.311 72.883,86.373C72.59,86.443 72.397,86.608 72.289,86.849C72.18,87.073 72.159,87.307 72.226,87.545C72.296,87.797 72.461,87.997 72.74,88.128C73.814,88.663 75.011,88.932 76.332,88.932ZM86.468,73.675C84.874,73.675 83.579,74.969 83.579,76.564C83.579,78.159 84.874,79.454 86.468,79.454C88.063,79.454 89.358,78.159 89.358,76.564C89.358,74.969 88.063,73.675 86.468,73.675ZM68.109,73.407C66.881,73.407 65.884,74.404 65.884,75.632C65.884,76.86 66.881,77.857 68.109,77.857C69.337,77.857 70.334,76.86 70.334,75.632C70.334,74.404 69.337,73.407 68.109,73.407ZM86.468,75.341C87.143,75.341 87.691,75.889 87.691,76.564C87.691,77.239 87.143,77.787 86.468,77.787C85.793,77.787 85.245,77.239 85.245,76.564C85.245,75.889 85.793,75.341 86.468,75.341ZM68.109,75.073C68.417,75.073 68.668,75.324 68.668,75.632C68.668,75.94 68.417,76.19 68.109,76.19C67.801,76.19 67.551,75.94 67.551,75.632C67.551,75.324 67.801,75.073 68.109,75.073ZM78.14,56.801L76.432,56.512C76.202,56.473 75.985,56.517 75.781,56.646C75.572,56.778 75.444,56.974 75.399,57.236C75.355,57.498 75.412,57.725 75.565,57.918C75.715,58.108 75.906,58.221 76.135,58.26L78.144,58.6L78.17,63.34L76.425,63.044C76.176,63.002 75.955,63.048 75.759,63.179C75.561,63.312 75.436,63.507 75.392,63.768C75.348,64.029 75.401,64.254 75.545,64.445C75.686,64.633 75.88,64.75 76.128,64.792L78.215,65.145L78.23,68.382C78.238,68.64 78.326,68.875 78.497,69.084C78.671,69.297 78.887,69.424 79.142,69.467L79.239,69.481L79.204,69.478C79.441,69.518 79.665,69.457 79.873,69.285C80.078,69.116 80.183,68.901 80.19,68.642L80.155,65.474L83.95,66.117L83.985,69.356C83.993,69.616 84.085,69.852 84.265,70.064C84.446,70.277 84.664,70.403 84.918,70.446L84.994,70.456C84.982,70.456 84.97,70.455 84.959,70.453C85.196,70.493 85.42,70.432 85.628,70.26C85.833,70.09 85.938,69.876 85.945,69.617L85.91,66.449L87.68,66.748C87.91,66.787 88.127,66.743 88.33,66.614C88.539,66.482 88.667,66.286 88.712,66.024C88.756,65.763 88.703,65.538 88.559,65.348C88.418,65.159 88.224,65.043 87.976,65L85.906,64.65L85.879,59.91L87.687,60.216C87.935,60.258 88.157,60.212 88.352,60.081C88.55,59.948 88.675,59.753 88.719,59.492C88.763,59.231 88.71,59.006 88.566,58.816C88.425,58.627 88.231,58.51 87.983,58.468L85.855,58.108L85.832,55.293C85.824,55.033 85.732,54.797 85.552,54.586C85.371,54.373 85.153,54.247 84.899,54.204C84.903,54.204 84.906,54.205 84.91,54.206L84.858,54.197C84.621,54.156 84.397,54.218 84.189,54.389C83.984,54.559 83.879,54.774 83.872,55.033L83.895,57.776L80.1,57.133L80.077,54.318C80.069,54.059 79.981,53.825 79.81,53.616C79.637,53.404 79.415,53.275 79.144,53.229L79.103,53.222C78.849,53.179 78.617,53.245 78.409,53.424C78.198,53.606 78.104,53.824 78.118,54.072L78.14,56.801ZM85.203,70.245C85.174,70.251 85.144,70.254 85.114,70.255C85.074,70.357 84.994,70.456 84.994,70.456C85.102,70.456 85.193,70.373 85.202,70.264C85.203,70.258 85.203,70.251 85.203,70.245ZM189.607,55.221C191.357,57.412 192.313,59.589 192.337,61.779C192.362,63.953 191.461,66.114 189.625,68.289C189.23,68.757 189.289,69.459 189.758,69.855C190.226,70.25 190.928,70.191 191.324,69.722C193.562,67.071 194.589,64.406 194.559,61.754C194.53,59.118 193.449,56.47 191.342,53.834C190.96,53.355 190.26,53.277 189.781,53.66C189.302,54.043 189.224,54.742 189.607,55.221ZM59.121,55.801L57.413,55.512C57.183,55.473 56.966,55.517 56.762,55.646C56.554,55.778 56.425,55.974 56.381,56.236C56.337,56.498 56.394,56.725 56.547,56.918C56.697,57.108 56.887,57.221 57.117,57.26L59.125,57.6L59.152,62.34L57.406,62.044C57.158,62.002 56.936,62.048 56.741,62.179C56.542,62.312 56.418,62.507 56.374,62.768C56.33,63.029 56.383,63.254 56.526,63.445C56.668,63.633 56.862,63.75 57.11,63.792L59.197,64.145L59.212,67.382C59.22,67.64 59.308,67.875 59.479,68.084C59.653,68.297 59.868,68.424 60.124,68.467L60.221,68.481L60.186,68.478C60.423,68.518 60.647,68.457 60.854,68.285C61.06,68.116 61.165,67.901 61.171,67.642L61.137,64.474L64.932,65.117L64.967,68.356C64.975,68.616 65.067,68.852 65.247,69.064C65.428,69.277 65.646,69.403 65.9,69.446L65.934,69.449L65.901,69.446L65.976,69.456C65.964,69.456 65.952,69.455 65.941,69.453C66.178,69.493 66.402,69.432 66.609,69.26C66.815,69.09 66.92,68.876 66.926,68.617L66.892,65.449L68.661,65.748C68.891,65.787 69.108,65.743 69.312,65.614C69.52,65.482 69.649,65.286 69.694,65.024C69.738,64.763 69.685,64.538 69.541,64.348C69.4,64.159 69.206,64.043 68.957,64L66.888,63.65L66.861,58.91L68.668,59.216C68.917,59.258 69.138,59.212 69.334,59.081C69.532,58.948 69.656,58.753 69.701,58.492C69.745,58.231 69.692,58.006 69.548,57.816C69.407,57.627 69.213,57.51 68.964,57.468L66.837,57.108L66.813,54.293C66.806,54.033 66.714,53.797 66.534,53.586C66.353,53.373 66.134,53.247 65.881,53.204C65.885,53.204 65.888,53.205 65.892,53.206L65.84,53.197C65.602,53.156 65.379,53.218 65.171,53.389C64.966,53.559 64.861,53.774 64.854,54.033L64.876,56.776L61.081,56.133L61.058,53.318C61.051,53.059 60.963,52.825 60.792,52.616C60.619,52.404 60.397,52.275 60.126,52.229C60.13,52.229 60.133,52.23 60.137,52.231L60.085,52.222C59.83,52.179 59.598,52.245 59.39,52.424C59.18,52.606 59.086,52.824 59.099,53.072L59.121,55.801ZM80.151,63.675L80.104,58.932L83.899,59.575L83.945,64.318L80.151,63.675ZM61.132,62.675L61.086,57.932L64.881,58.575L64.927,63.318L61.132,62.675ZM85.065,54.469C85.069,54.456 85.071,54.442 85.073,54.427C85.081,54.332 85.023,54.245 84.935,54.213C84.983,54.231 85.004,54.264 85.007,54.304C85.026,54.338 85.035,54.379 85.031,54.42C85.031,54.432 85.029,54.443 85.026,54.454C85.039,54.459 85.052,54.464 85.065,54.469ZM66.046,53.469C66.05,53.456 66.053,53.442 66.054,53.427C66.062,53.332 66.004,53.245 65.917,53.213C66.013,53.249 65.999,53.346 65.959,53.437C65.989,53.446 66.018,53.457 66.046,53.469ZM60.292,52.492C60.296,52.479 60.298,52.466 60.299,52.452C60.307,52.357 60.249,52.27 60.162,52.238C60.21,52.256 60.231,52.289 60.234,52.329C60.253,52.364 60.262,52.404 60.258,52.445C60.257,52.456 60.256,52.467 60.253,52.477C60.266,52.482 60.279,52.487 60.292,52.492Z" style="fill-rule:nonzero;"/>
    </g>
</svg>
