<?xml version="1.0" encoding="UTF-8" standalone="no"?>
<!DOCTYPE svg PUBLIC "-//W3C//DTD SVG 1.1//EN" "http://www.w3.org/Graphics/SVG/1.1/DTD/svg11.dtd">
<svg width="58px" height="93px" version="1.1" xmlns="http://www.w3.org/2000/svg" xmlns:xlink="http://www.w3.org/1999/xlink" xml:space="preserve" xmlns:serif="http://www.serif.com/" style="fill-rule:evenodd;clip-rule:evenodd;stroke-linejoin:round;stroke-miterlimit:2;">
    <g transform="matrix(-0.479542,0,0,0.479542,92.4051,-10.0702)">
        <path d="M135.893,32.605C120.877,21.138 106.572,19.235 93.494,33.858C89.261,36.698 84.305,41.004 81.576,43.955C79.738,47.997 77.227,52.994 76.231,61C71.379,68 71.605,78.112 76.231,82C83.407,88.032 85.955,91.57 89.746,96.891C93.631,102.344 96.135,110.054 100.308,114.717C104.238,119.108 112.606,119.391 114.783,124.868C116.748,129.811 115.512,144.126 114.986,149.269C114.87,150.492 115.106,151.722 115.668,152.814C116.245,153.981 117.025,155.498 117.584,156.586C118.053,157.497 118.297,158.507 118.297,159.531L118.297,184.241L120.059,195.418L120.059,205.428C120.059,209.887 123.129,213.503 126.916,213.503L126.918,213.503C130.485,213.503 133.378,210.097 133.378,205.895C133.378,201.722 133.438,170.459 133.457,160.804C133.46,158.999 134.22,157.279 135.552,156.061C136.714,154.999 138.156,153.68 139.32,152.616C140.654,151.395 141.415,149.67 141.415,147.861L141.415,125.989C141.415,125.331 141.856,124.755 142.491,124.583C143.126,124.411 143.797,124.686 144.129,125.254C148.656,132.998 157.253,147.708 157.253,147.708C157.02,152.418 157.559,156.727 159.159,162.194C159.159,162.194 166.59,174.482 169.721,180.02C172.584,185.085 176.573,191.183 177.944,195.418C178.971,198.593 177.944,200.608 177.944,205.428C177.944,209.887 181.014,213.503 184.801,213.503L184.802,213.503C188.37,213.503 191.263,210.097 191.263,205.895C191.263,200.95 192.196,198.783 191.263,195.418C190.066,191.106 186.75,185.015 184.082,180.02C181.125,174.482 173.521,162.194 173.521,162.194C172.27,158.541 171.904,154.798 172.854,151.137L172.854,84.165C172.854,81.812 172.247,79.498 171.09,77.448C168.085,72.121 162.293,61.855 162.293,61.855C162.293,61.855 159.551,56.742 157.58,53.065C156.277,50.637 154.532,48.473 152.434,46.687C146.858,41.94 135.893,32.605 135.893,32.605Z" style="fill:white;"/>
    </g>
    <g transform="matrix(0.617929,0,0,0.617929,-38.9913,-42.6929)">
        <path d="M118.357,204.447L118.357,212.215C118.357,215.017 116.527,217.37 114.147,217.37L114.146,217.37C111.937,217.37 110.244,215.18 110.244,212.578L110.244,204.447C110.244,203.834 109.746,203.336 109.133,203.336C108.519,203.336 108.021,203.834 108.021,204.447L108.021,212.578C108.021,216.498 110.817,219.593 114.146,219.593L114.147,219.593C117.646,219.593 120.58,216.336 120.58,212.215L120.58,204.447C120.58,203.834 120.082,203.336 119.469,203.336C118.855,203.336 118.357,203.834 118.357,204.447ZM73.436,204.447L73.436,212.215C73.436,215.017 71.606,217.37 69.226,217.37L69.225,217.37C67.015,217.37 65.322,215.18 65.322,212.578L65.322,204.447C65.322,203.834 64.825,203.336 64.211,203.336C63.598,203.336 63.1,203.834 63.1,204.447L63.1,212.578C63.1,216.498 65.896,219.593 69.225,219.593L69.226,219.593C72.725,219.593 75.658,216.336 75.658,212.215L75.658,204.447C75.658,203.834 75.161,203.336 74.547,203.336C73.934,203.336 73.436,203.834 73.436,204.447ZM107.956,175.387L107.956,195.773C107.956,196.387 108.454,196.884 109.067,196.884C109.68,196.884 110.178,196.387 110.178,195.773L110.178,175.387C110.178,174.774 109.68,174.276 109.067,174.276C108.454,174.276 107.956,174.774 107.956,175.387ZM119.725,175.387L119.725,195.773C119.725,196.387 120.223,196.884 120.836,196.884C121.449,196.884 121.947,196.387 121.947,195.773L121.947,175.387C121.947,174.774 121.449,174.276 120.836,174.276C120.223,174.276 119.725,174.774 119.725,175.387ZM76.991,178.078L68.795,191.911C68.472,192.457 68.653,193.162 69.198,193.486C69.744,193.809 70.449,193.628 70.772,193.083L78.968,179.249C79.292,178.704 79.111,177.998 78.566,177.675C78.02,177.352 77.315,177.532 76.991,178.078ZM88.136,178.078L79.94,191.911C79.617,192.457 79.798,193.162 80.343,193.486C80.889,193.809 81.594,193.628 81.917,193.083L90.113,179.249C90.437,178.704 90.256,177.998 89.711,177.675C89.165,177.352 88.46,177.532 88.136,178.078ZM101.785,149.697L101.785,170.083C101.785,170.696 102.282,171.194 102.896,171.194C103.509,171.194 104.007,170.696 104.007,170.083L104.007,149.697C104.007,149.084 103.509,148.586 102.896,148.586C102.282,148.586 101.785,149.084 101.785,149.697ZM122.452,149.697L122.452,170.083C122.452,170.696 122.95,171.194 123.563,171.194C124.176,171.194 124.674,170.696 124.674,170.083L124.674,149.697C124.674,149.084 124.176,148.586 123.563,148.586C122.95,148.586 122.452,149.084 122.452,149.697ZM77.386,149.697L77.386,170.083C77.386,170.696 77.884,171.194 78.497,171.194C79.11,171.194 79.608,170.696 79.608,170.083L79.608,149.697C79.608,149.084 79.11,148.586 78.497,148.586C77.884,148.586 77.386,149.084 77.386,149.697ZM97.812,152.387L89.616,166.221C89.292,166.766 89.473,167.472 90.018,167.795C90.564,168.118 91.27,167.938 91.593,167.392L99.789,153.559C100.112,153.013 99.932,152.308 99.386,151.984C98.84,151.661 98.135,151.842 97.812,152.387ZM77.386,123.755L77.386,144.141C77.386,144.754 77.884,145.252 78.497,145.252C79.11,145.252 79.608,144.754 79.608,144.141L79.608,123.755C79.608,123.142 79.11,122.644 78.497,122.644C77.884,122.644 77.386,123.142 77.386,123.755ZM142.004,127.4L133.808,141.233C133.485,141.779 133.665,142.484 134.211,142.808C134.756,143.131 135.462,142.95 135.785,142.405L143.981,128.571C144.304,128.026 144.124,127.32 143.578,126.997C143.033,126.674 142.327,126.854 142.004,127.4ZM117.198,118.954L122.088,118.954C122.655,118.954 123.115,118.494 123.115,117.927C123.115,117.36 122.655,116.9 122.088,116.9L117.198,116.9C116.631,116.9 116.171,117.36 116.171,117.927C116.171,118.494 116.631,118.954 117.198,118.954ZM151.94,100.787C155.398,105.775 155.609,110.763 151.957,115.751C151.583,116.262 151.694,116.982 152.206,117.356C152.717,117.731 153.437,117.62 153.812,117.108C158.114,111.231 157.903,105.355 153.829,99.478C153.467,98.956 152.751,98.827 152.23,99.188C151.709,99.549 151.579,100.266 151.94,100.787ZM85.704,100.21L77.508,114.044C77.185,114.589 77.366,115.295 77.911,115.618C78.457,115.941 79.162,115.761 79.486,115.215L87.681,101.382C88.005,100.836 87.824,100.131 87.279,99.807C86.733,99.484 86.028,99.664 85.704,100.21ZM126.524,100.836C127.828,106.334 130.014,109.274 133.496,111.549C133.497,111.549 127.296,112.961 127.296,112.961C126.743,113.087 126.396,113.637 126.522,114.19C126.648,114.743 127.199,115.089 127.752,114.964L136.506,112.971C136.927,112.875 137.242,112.527 137.297,112.099C137.351,111.671 137.133,111.255 136.749,111.057C132.439,108.83 129.917,106.241 128.523,100.363C128.392,99.811 127.838,99.469 127.287,99.6C126.735,99.731 126.394,100.285 126.524,100.836ZM141.427,99.781L144.436,103.058C144.82,103.475 145.47,103.503 145.888,103.119C146.305,102.736 146.333,102.086 145.949,101.668L142.94,98.392C142.557,97.974 141.907,97.946 141.489,98.33C141.072,98.713 141.044,99.363 141.427,99.781ZM111.321,98.266L108.313,101.543C107.929,101.961 107.957,102.611 108.374,102.994C108.792,103.378 109.442,103.35 109.826,102.933L112.835,99.656C113.218,99.238 113.19,98.588 112.773,98.205C112.355,97.821 111.705,97.849 111.321,98.266ZM109.134,74.925L91.791,89.689C91.308,90.101 91.25,90.826 91.661,91.309C92.072,91.792 92.798,91.85 93.281,91.439L110.624,76.674C111.107,76.263 111.165,75.538 110.754,75.055C110.343,74.572 109.617,74.513 109.134,74.925ZM139.444,80.023C142.656,82.179 146.418,85.445 148.49,87.685C148.921,88.15 149.648,88.179 150.114,87.748C150.579,87.317 150.608,86.59 150.177,86.124C148.012,83.784 144.082,80.368 140.724,78.115C140.198,77.761 139.483,77.902 139.13,78.429C138.776,78.955 138.917,79.67 139.444,80.023ZM116.244,74.744C121.601,71.03 126.958,70.804 132.315,74.727C132.826,75.101 133.546,74.99 133.921,74.478C134.295,73.967 134.184,73.247 133.672,72.872C127.426,68.299 121.181,68.525 114.935,72.855C114.413,73.216 114.284,73.933 114.645,74.454C115.006,74.975 115.723,75.105 116.244,74.744Z" style="fill-opacity:0.9;"/>
    </g>
</svg>
