<?xml version="1.0" encoding="UTF-8" standalone="no"?>
<!DOCTYPE svg PUBLIC "-//W3C//DTD SVG 1.1//EN" "http://www.w3.org/Graphics/SVG/1.1/DTD/svg11.dtd">
<svg width="44px" height="46px" version="1.1" xmlns="http://www.w3.org/2000/svg" xmlns:xlink="http://www.w3.org/1999/xlink" xml:space="preserve" xmlns:serif="http://www.serif.com/" style="fill-rule:evenodd;clip-rule:evenodd;stroke-linejoin:round;stroke-miterlimit:2;">
    <g transform="matrix(-3.10647e-17,0.507325,0.507325,3.10647e-17,-14.2225,-36.4445)">
        <path d="M140.775,49.35C140.775,46.743 142.888,44.63 145.495,44.63L153.572,44.63C157.764,44.63 161.162,41.744 161.162,38.184L161.162,38.182C161.162,34.828 157.96,32.109 154.011,32.109L144.162,32.109C144.162,32.109 136.848,31.746 131.732,31.491C128.531,31.332 125.338,31.931 122.412,33.239C117.324,35.513 109.691,38.925 109.691,38.925L96.582,46.056C96.582,46.056 87.357,50.651 82.248,53.196C80.133,54.249 78.538,56.117 77.828,58.37C77.656,58.918 77.489,59.446 77.352,59.883C77.12,60.618 76.793,61.32 76.378,61.97C72.134,68.64 72.109,75.32 77,82L82.6,90.18C84.376,92.825 86.754,95.768 88.971,98.21C90.881,100.254 93.218,101.853 95.816,102.892C99.072,104.246 103.747,106.116 106.218,107.105C107.226,107.508 108.198,107.997 109.123,108.566C115.711,112.643 122.305,112.605 128.899,107.777C135.885,101.66 138.245,92.953 140.121,82.228C140.521,79.975 142.48,78.334 144.768,78.334C147.515,78.332 151.099,78.332 153.572,78.332C157.764,78.332 161.162,75.447 161.162,71.887L161.162,71.885C161.162,68.531 157.96,65.812 154.011,65.812L145.495,65.812C144.243,65.812 143.043,65.315 142.157,64.429C141.272,63.544 140.775,62.343 140.775,61.092L140.775,49.35Z" style="fill:white;"/>
    </g>
    <g transform="matrix(0.614541,0,0,0.614541,-45.6069,-88.8924)">
        <path d="M86.802,204.356L86.802,212.124C86.802,214.926 84.971,217.279 82.592,217.279L82.59,217.279C80.381,217.279 78.688,215.088 78.688,212.486L78.688,204.356C78.688,203.742 78.19,203.245 77.577,203.245C76.964,203.245 76.466,203.742 76.466,204.356L76.466,212.486C76.466,216.406 79.261,219.501 82.59,219.501L82.592,219.501C86.091,219.501 89.024,216.244 89.024,212.124L89.024,204.356C89.024,203.742 88.526,203.245 87.913,203.245C87.3,203.245 86.802,203.742 86.802,204.356ZM114.625,204.356L114.625,212.124C114.625,214.926 112.794,217.279 110.415,217.279L110.413,217.279C108.204,217.279 106.511,215.088 106.511,212.486L106.511,204.356C106.511,203.742 106.013,203.245 105.4,203.245C104.786,203.245 104.289,203.742 104.289,204.356L104.289,212.486C104.289,216.406 107.084,219.501 110.413,219.501L110.415,219.501C113.914,219.501 116.847,216.244 116.847,212.124L116.847,204.356C116.847,203.742 116.349,203.245 115.736,203.245C115.122,203.245 114.625,203.742 114.625,204.356ZM104.005,193.598L108.895,193.598C109.461,193.598 109.922,193.137 109.922,192.571C109.922,192.004 109.461,191.543 108.895,191.543L104.005,191.543C103.438,191.543 102.978,192.004 102.978,192.571C102.978,193.137 103.438,193.598 104.005,193.598ZM139.099,175.074C142.797,180.408 143.022,185.743 139.116,191.077C138.742,191.588 138.853,192.308 139.365,192.683C139.876,193.057 140.596,192.946 140.971,192.434C145.527,186.211 145.302,179.988 140.988,173.765C140.627,173.243 139.91,173.114 139.389,173.475C138.868,173.836 138.738,174.553 139.099,175.074ZM82.167,175.403L75.83,188.657C75.557,189.229 75.799,189.916 76.371,190.189C76.944,190.463 77.63,190.22 77.904,189.648L84.24,176.394C84.514,175.822 84.271,175.135 83.699,174.862C83.127,174.588 82.44,174.831 82.167,175.403ZM113.335,176.346C114.622,181.43 116.762,184.188 120.16,186.312C120.16,186.313 114.116,187.601 114.116,187.601C113.562,187.719 113.208,188.265 113.326,188.82C113.444,189.374 113.99,189.728 114.545,189.61L123.299,187.744C123.728,187.652 124.052,187.298 124.104,186.863C124.157,186.427 123.927,186.006 123.532,185.815C119.236,183.737 116.715,181.327 115.326,175.842C115.187,175.292 114.628,174.959 114.078,175.098C113.529,175.238 113.196,175.797 113.335,176.346ZM128.234,174.424L131.243,177.701C131.626,178.118 132.277,178.146 132.694,177.763C133.112,177.379 133.139,176.729 132.756,176.311L129.747,173.035C129.364,172.617 128.713,172.59 128.296,172.973C127.878,173.356 127.851,174.007 128.234,174.424ZM98.128,172.91L95.119,176.186C94.736,176.604 94.763,177.254 95.181,177.638C95.599,178.021 96.249,177.993 96.632,177.576L99.641,174.299C100.025,173.882 99.997,173.231 99.579,172.848C99.162,172.465 98.512,172.492 98.128,172.91ZM95.308,149.405L88.053,164.581C87.78,165.153 88.022,165.84 88.595,166.113C89.167,166.387 89.853,166.144 90.127,165.572L97.382,150.396C97.655,149.824 97.413,149.138 96.841,148.864C96.269,148.591 95.582,148.833 95.308,149.405ZM124.876,154.489C128.119,156.665 131.917,159.963 134.008,162.223C134.439,162.689 135.166,162.717 135.632,162.286C136.098,161.856 136.126,161.128 135.695,160.662C133.51,158.301 129.544,154.854 126.156,152.58C125.63,152.227 124.915,152.367 124.562,152.894C124.208,153.421 124.349,154.135 124.876,154.489ZM102.082,149.855C107.416,146.158 112.75,145.933 118.085,149.838C118.596,150.213 119.316,150.102 119.691,149.59C120.065,149.078 119.954,148.359 119.442,147.984C113.219,143.427 106.996,143.653 100.773,147.967C100.251,148.328 100.122,149.045 100.483,149.566C100.844,150.087 101.561,150.217 102.082,149.855Z" style="fill-opacity:0.9;"/>
    </g>
</svg>
