<?xml version="1.0" encoding="UTF-8" standalone="no"?>
<!DOCTYPE svg PUBLIC "-//W3C//DTD SVG 1.1//EN" "http://www.w3.org/Graphics/SVG/1.1/DTD/svg11.dtd">
<svg width="62px" height="63px" version="1.1" xmlns="http://www.w3.org/2000/svg" xmlns:xlink="http://www.w3.org/1999/xlink" xml:space="preserve" xmlns:serif="http://www.serif.com/" style="fill-rule:evenodd;clip-rule:evenodd;stroke-linejoin:round;stroke-miterlimit:2;">
    <g transform="matrix(0.605595,0,0,0.605595,-35.331,-69.9336)">
        <path d="M62.301,192.3L62.301,173.005C62.301,172.28 62.22,171.558 62.06,170.851C61.843,169.89 61.509,168.417 61.194,167.022C60.643,164.59 61.045,162.039 62.316,159.894C64.741,155.8 68.532,149.401 68.532,149.401L76.375,138.17L92.744,124.235C104.809,115.789 115.791,116.685 123.923,127.674C125.933,129.023 128.154,130.797 130.059,132.496C132.02,134.284 133.422,136.6 134.098,139.166C134.736,141.442 135.487,144.289 135.967,146.112C136.28,147.299 136.75,148.44 137.365,149.503C139.698,153.418 140.184,157.364 138.664,161.311C137.968,163.11 136.934,164.759 135.618,166.169C134.169,167.727 131.125,170.99 129.03,173.235C127.569,174.801 126.282,176.52 125.19,178.362C122.798,182.4 118.636,189.424 118.636,189.424C124.823,192.604 129.34,196.088 131.739,200.46C135.199,205.45 135.393,210.999 131.739,215.99C130.626,217.19 129.182,217.616 127.528,217.551L112.393,217.551C110.499,217.551 108.643,217.009 107.046,215.99C104.111,217.937 100.903,217.058 97.727,216.992C97.34,217.88 96.48,218.342 95.168,218.397L76.931,218.397C75.386,217.92 73.575,217.01 72.771,215.422C59.378,217.168 59.4,210.782 64.233,206.332L62.301,192.3ZM156.132,199.6C156.132,199.059 155.693,198.62 155.153,198.62L143.933,198.62C143.393,198.62 142.954,199.059 142.954,199.6L142.954,209.883C142.954,210.424 143.393,210.863 143.933,210.863L155.153,210.863C155.693,210.863 156.132,210.424 156.132,209.883L156.132,199.6Z" style="fill:white;"/>
    </g>
    <g transform="matrix(0.605595,0,0,0.605595,-35.331,-69.9336)">
        <path d="M95.168,217.286L75.566,217.286C74.952,217.286 74.455,217.784 74.455,218.397C74.455,219.011 74.952,219.509 75.566,219.509L95.168,219.509C95.781,219.509 96.279,219.011 96.279,218.397C96.279,217.784 95.781,217.286 95.168,217.286ZM102.276,215.881L97.727,215.881C97.113,215.881 96.615,216.379 96.615,216.992C96.615,217.605 97.113,218.103 97.727,218.103L102.276,218.103C102.889,218.103 103.387,217.605 103.387,216.992C103.387,216.379 102.889,215.881 102.276,215.881ZM127.528,215.881L115.631,215.881C115.018,215.881 114.52,216.379 114.52,216.992C114.52,217.605 115.018,218.103 115.631,218.103L127.528,218.103C128.141,218.103 128.639,217.605 128.639,216.992C128.639,216.379 128.141,215.881 127.528,215.881ZM140.336,216.938L158.896,216.938C159.155,216.938 159.383,216.847 159.577,216.661C159.776,216.472 159.873,216.249 159.873,215.994C159.873,215.739 159.776,215.516 159.577,215.327C159.383,215.142 159.155,215.05 158.896,215.05L140.336,215.05C140.077,215.05 139.849,215.142 139.655,215.327C139.456,215.516 139.359,215.739 139.359,215.994C139.359,216.249 139.456,216.472 139.655,216.661C139.849,216.847 140.077,216.938 140.336,216.938ZM62.806,198.708C62.801,198.69 62.798,198.672 62.797,198.653C62.788,198.54 62.84,198.435 62.927,198.373L62.925,198.339L63.058,198.319L63.059,198.319C63.327,198.276 63.574,198.346 63.797,198.539C64.001,198.716 64.123,198.949 64.157,199.241C64.445,201.176 64.791,203.11 65.195,205.045C66.92,204.128 69.098,203.292 71.726,202.541C71.989,202.452 72.244,202.496 72.489,202.688C72.702,202.856 72.836,203.082 72.885,203.368C72.932,203.644 72.891,203.902 72.765,204.14C72.63,204.394 72.433,204.559 72.18,204.64C72.177,204.641 72.174,204.642 72.171,204.643C68.794,205.618 66.266,206.69 64.589,207.868C62.998,208.985 62.175,210.146 62.175,211.389C62.175,213.545 63.884,214.546 67.201,214.546C68.743,214.546 70.343,214.42 72,214.169C72.249,214.127 72.493,214.193 72.724,214.386C72.944,214.569 73.065,214.812 73.082,215.117C73.098,215.404 73.03,215.651 72.888,215.861C72.737,216.084 72.527,216.226 72.259,216.287C72.251,216.289 72.244,216.29 72.236,216.291C70.44,216.562 68.761,216.697 67.201,216.697C64.906,216.697 63.164,216.248 61.967,215.377C60.733,214.479 60.108,213.18 60.108,211.474C60.108,209.521 61.162,207.758 63.304,206.209C62.907,204.336 62.517,202.128 62.132,199.585C62.131,199.582 62.131,199.578 62.13,199.575C62.099,199.311 62.152,199.056 62.293,198.81C62.453,198.532 62.666,198.383 62.915,198.34C62.755,198.368 62.642,198.514 62.656,198.676C62.66,198.719 62.672,198.76 62.692,198.797C62.728,198.761 62.766,198.731 62.806,198.708ZM130.795,201.114C133.946,205.66 134.14,210.206 130.812,214.752C130.437,215.264 130.548,215.984 131.06,216.358C131.572,216.733 132.292,216.622 132.666,216.11C136.646,210.675 136.451,205.24 132.683,199.805C132.322,199.284 131.606,199.154 131.084,199.515C130.563,199.876 130.433,200.593 130.795,201.114ZM105.88,201.114C109.031,205.66 109.225,210.206 105.897,214.752C105.522,215.264 105.633,215.984 106.145,216.358C106.657,216.733 107.376,216.622 107.751,216.11C111.731,210.675 111.536,205.24 107.768,199.805C107.407,199.284 106.691,199.154 106.169,199.515C105.648,199.876 105.518,200.593 105.88,201.114ZM143.035,197.741C142.757,197.741 142.522,197.839 142.327,198.033C142.133,198.227 142.036,198.463 142.036,198.74L142.036,210.718C142.036,210.996 142.133,211.231 142.327,211.425C142.522,211.62 142.757,211.717 143.035,211.717L156.197,211.717C156.475,211.717 156.71,211.62 156.905,211.425C157.099,211.231 157.196,210.996 157.196,210.718L157.196,198.74C157.196,198.463 157.099,198.227 156.905,198.033C156.71,197.839 156.475,197.741 156.197,197.741L143.035,197.741ZM144.209,205.64L155.023,205.64L155.023,209.829L144.209,209.829L144.209,205.64ZM144.209,199.651L155.023,199.651L155.023,203.774L144.209,203.774L144.209,199.651ZM61.19,171.914L61.19,192.3C61.19,192.913 61.688,193.411 62.301,193.411C62.914,193.411 63.412,192.913 63.412,192.3L63.412,171.914C63.412,171.301 62.914,170.803 62.301,170.803C61.688,170.803 61.19,171.301 61.19,171.914ZM125.843,175.005L117.647,188.839C117.324,189.384 117.505,190.09 118.05,190.413C118.596,190.736 119.301,190.556 119.625,190.01L127.821,176.177C128.144,175.631 127.963,174.926 127.418,174.602C126.872,174.279 126.167,174.46 125.843,175.005ZM135.506,148.6C139.204,153.934 139.429,159.268 135.523,164.603C135.149,165.114 135.26,165.834 135.772,166.209C136.283,166.583 137.003,166.472 137.378,165.96C141.934,159.737 141.709,153.514 137.395,147.291C137.034,146.769 136.317,146.64 135.796,147.001C135.275,147.362 135.145,148.079 135.506,148.6ZM98.142,166.3L103.031,166.3C103.598,166.3 104.058,165.84 104.058,165.273C104.058,164.706 103.598,164.246 103.031,164.246L98.142,164.246C97.575,164.246 97.115,164.706 97.115,165.273C97.115,165.84 97.575,166.3 98.142,166.3ZM67.544,148.816L59.348,162.649C59.025,163.195 59.205,163.9 59.751,164.223C60.296,164.547 61.002,164.366 61.325,163.82L69.521,149.987C69.844,149.441 69.664,148.736 69.118,148.413C68.572,148.089 67.867,148.27 67.544,148.816ZM107.472,149.069C108.758,154.143 110.898,156.897 114.293,159.018L108.253,160.303C107.699,160.421 107.345,160.967 107.463,161.522C107.581,162.076 108.127,162.431 108.681,162.313L117.435,160.449C117.865,160.358 118.189,160.004 118.241,159.568C118.294,159.132 118.063,158.711 117.668,158.52C113.373,156.446 110.852,154.04 109.463,148.564C109.323,148.015 108.764,147.682 108.215,147.821C107.665,147.961 107.332,148.52 107.472,149.069ZM122.371,147.127L125.38,150.403C125.763,150.821 126.413,150.849 126.831,150.465C127.248,150.082 127.276,149.431 126.893,149.014L123.884,145.737C123.5,145.32 122.85,145.292 122.433,145.675C122.015,146.059 121.987,146.709 122.371,147.127ZM92.265,145.612L89.256,148.889C88.873,149.306 88.9,149.957 89.318,150.34C89.735,150.723 90.386,150.696 90.769,150.278L93.778,147.002C94.161,146.584 94.134,145.934 93.716,145.55C93.299,145.167 92.648,145.195 92.265,145.612ZM92.974,122.53L75.631,137.295C75.148,137.706 75.089,138.432 75.5,138.915C75.912,139.398 76.637,139.456 77.12,139.045L94.464,124.28C94.947,123.869 95.005,123.143 94.594,122.66C94.183,122.177 93.457,122.119 92.974,122.53ZM123.283,128.628C126.496,130.784 130.258,134.051 132.33,136.29C132.76,136.756 133.488,136.784 133.953,136.353C134.419,135.923 134.447,135.195 134.017,134.729C131.851,132.389 127.921,128.973 124.564,126.72C124.037,126.367 123.323,126.507 122.969,127.034C122.616,127.561 122.757,128.275 123.283,128.628ZM100.083,122.349C105.44,118.636 110.797,118.41 116.154,122.332C116.666,122.707 117.386,122.595 117.76,122.084C118.135,121.572 118.024,120.852 117.512,120.478C111.266,115.905 105.02,116.131 98.774,120.461C98.253,120.822 98.123,121.538 98.484,122.06C98.846,122.581 99.562,122.711 100.083,122.349Z" style="fill-rule:nonzero;"/>
    </g>
</svg>
