<?xml version="1.0" encoding="UTF-8" standalone="no"?>
<!DOCTYPE svg PUBLIC "-//W3C//DTD SVG 1.1//EN" "http://www.w3.org/Graphics/SVG/1.1/DTD/svg11.dtd">
<svg width="64px" height="113px" version="1.1" xmlns="http://www.w3.org/2000/svg" xmlns:xlink="http://www.w3.org/1999/xlink" xml:space="preserve" xmlns:serif="http://www.serif.com/" style="fill-rule:evenodd;clip-rule:evenodd;stroke-linejoin:round;stroke-miterlimit:2;">
    <g transform="matrix(0.508801,0,0,-0.508801,-369.23,431.043)">
        <path d="M745.205,818.075C751.214,828.411 772.489,830.162 782.044,826.996C784.597,826.121 787.419,827.066 788.931,829.301C791.641,833.428 794.473,836.487 799.356,839.296C806.278,844.721 816.909,839.177 822.137,836.532C825.309,834.405 827.894,832.312 829.94,830.103C832.051,827.733 834.838,824.889 837.096,819.696C839.3,819.632 840.775,818.454 841.902,817.318C845.758,811.755 845.975,806.192 841.902,800.629C843.39,795.315 845.398,791.596 846.32,784.893C847.231,778.272 845.231,771.849 847.221,767.057C851.077,761.494 851.294,755.931 847.221,750.368C844.52,746.927 841.624,743.943 838.52,741.444L832.096,727.882L825.672,741.444C823.042,741.178 820.412,741.171 817.783,741.444L811.359,727.882L804.935,741.444C800.568,743.872 797.132,746.766 794.648,750.136C794.56,747.025 794.057,743.844 792.96,740.564L784.606,725.34C780.656,721.957 787.574,719.898 787.131,712.045C790.304,709.918 794.018,706.695 796.064,704.486C798.327,700.297 799.74,696.028 799.176,691.571C803.032,686.008 803.249,680.445 799.176,674.882C797.434,671.606 794.835,668.416 791.412,665.308L774.579,650.279C774.579,650.279 781.365,644.126 783.929,639.163C785.722,635.694 785.704,632.942 785.153,630.975C784.866,629.977 784.167,629.15 783.23,628.703C782.294,628.255 781.211,628.229 780.255,628.632C778.596,629.278 776.854,630.011 776.854,630.011C776.854,630.011 763.815,641.572 758.743,646.069C757.175,647.459 756.447,649.568 756.824,651.63C757.558,656.385 760.085,656.189 758.885,655.377C758.885,655.377 756.11,652.859 753.34,650.345C750.899,648.13 749.964,644.701 750.94,641.553C751.131,640.988 751.197,640.41 751.161,639.838C750.982,636.997 746.81,634.18 743.664,634.856C738.628,635.356 735.457,637.423 731.653,639.781C730.588,640.442 729.84,641.102 729.449,641.482C729.22,641.719 729.083,642.03 729.062,642.359C728.711,648 735.51,649.221 740.052,649.704C741.59,649.881 742.953,650.774 743.73,652.113C746.27,656.482 751.753,665.925 751.753,665.925C753.306,670.145 755.786,673.555 759.456,675.923L742.864,690.53L735.011,699.85C730.938,705.413 731.154,710.976 735.011,716.539L744.439,725.907C748.769,730.254 750.607,734.332 751.753,740.564C742.835,740.879 735.651,743.795 730.839,750.269C726.766,755.832 726.982,761.395 730.839,766.958C727.775,769.554 727.277,773.757 728.418,776.858L733.751,786.579C736.44,788.945 746.404,794.707 754.95,790.729C750.538,794.028 747.928,796.118 744.593,800.629C738.057,810.011 745.205,818.075 745.205,818.075Z" style="fill:white;"/>
    </g>
    <g transform="matrix(0.609469,0,0,0.609469,-35.028,-20.3986)">
        <path d="M104.267,216.697L104.257,216.685L104.257,216.686L104.253,216.682L104.253,216.718C104.222,216.995 104.307,217.242 104.517,217.457C104.704,217.648 104.93,217.76 105.197,217.793C105.201,217.794 105.205,217.794 105.209,217.794C106.925,217.961 108.614,218.304 110.275,218.824C110.559,218.917 110.818,218.885 111.052,218.743C111.293,218.596 111.428,218.388 111.46,218.121L111.479,218.034C111.516,217.743 111.452,217.488 111.296,217.266C111.147,217.053 110.942,216.903 110.678,216.821C108.907,216.263 107.135,215.903 105.363,215.741C105.091,215.708 104.843,215.778 104.62,215.959C104.394,216.143 104.274,216.375 104.254,216.651L104.671,217.098L104.267,216.697ZM110.879,218.356C110.915,218.374 110.954,218.387 110.994,218.393L111.047,218.463C110.966,218.463 110.887,218.439 110.819,218.395C110.825,218.392 110.83,218.389 110.835,218.386C110.85,218.377 110.865,218.367 110.879,218.356ZM111.227,218.422C111.192,218.438 111.157,218.448 111.128,218.454C111.099,218.46 111.075,218.462 111.061,218.462C111.12,218.461 111.177,218.446 111.227,218.422ZM111.451,218.152L111.443,218.178C111.446,218.17 111.449,218.161 111.451,218.152ZM93.359,210.1C95.938,211.828 98.957,214.447 100.62,216.243C101.037,216.693 101.741,216.719 102.191,216.303C102.64,215.886 102.667,215.182 102.251,214.733C100.497,212.84 97.315,210.076 94.596,208.254C94.087,207.913 93.396,208.049 93.055,208.558C92.713,209.068 92.85,209.759 93.359,210.1ZM68.517,210.1C71.096,211.828 74.115,214.447 75.778,216.243C76.195,216.693 76.899,216.719 77.349,216.303C77.798,215.886 77.825,215.182 77.409,214.733C75.655,212.84 72.473,210.076 69.754,208.254C69.245,207.913 68.554,208.049 68.213,208.558C67.871,209.068 68.007,209.759 68.517,210.1ZM109.97,211.312C108.643,210.903 107.338,210.634 106.056,210.505C106.051,210.505 106.047,210.504 106.042,210.504C105.767,210.486 105.526,210.568 105.32,210.751C105.114,210.934 105.005,211.156 104.985,211.413L105.402,211.862L104.984,211.447L104.984,211.499C104.952,211.8 105.047,212.05 105.261,212.25C105.445,212.421 105.667,212.525 105.929,212.557C105.931,212.558 105.934,212.558 105.937,212.558C107.125,212.683 108.34,212.931 109.584,213.304C109.588,213.306 109.592,213.307 109.596,213.308C109.87,213.381 110.119,213.348 110.344,213.22C110.591,213.08 110.73,212.873 110.762,212.599L110.781,212.515C110.818,212.242 110.759,211.989 110.603,211.758C110.45,211.531 110.239,211.382 109.97,211.312ZM110.177,212.832C110.215,212.851 110.255,212.865 110.297,212.872L110.35,212.941C110.266,212.941 110.184,212.916 110.115,212.869C110.123,212.865 110.13,212.861 110.138,212.857C110.151,212.849 110.164,212.841 110.177,212.832ZM110.53,212.9C110.494,212.917 110.46,212.926 110.431,212.932C110.402,212.938 110.378,212.94 110.364,212.941C110.423,212.939 110.48,212.925 110.53,212.9ZM110.754,212.631L110.746,212.657C110.749,212.648 110.752,212.639 110.754,212.631ZM109.971,211.312L109.96,211.309L109.971,211.312ZM74.345,208.844L76.564,210.607C77.044,210.989 77.744,210.909 78.125,210.429C78.507,209.948 78.427,209.249 77.946,208.867L75.727,207.104C75.247,206.722 74.548,206.802 74.166,207.282C73.785,207.763 73.865,208.462 74.345,208.844ZM77.345,206.844L79.564,208.607C80.044,208.989 80.744,208.909 81.125,208.429C81.507,207.948 81.427,207.249 80.946,206.867L78.727,205.104C78.247,204.722 77.548,204.802 77.166,205.282C76.785,205.763 76.865,206.462 77.345,206.844ZM104.669,206.636L104.662,206.7C104.653,206.816 104.693,206.931 104.772,207.016C104.839,207.088 104.929,207.134 105.026,207.147L105.062,207.198C104.946,207.198 104.836,207.15 104.757,207.065C104.678,206.981 104.637,206.867 104.645,206.752C104.625,207.058 104.728,207.311 104.954,207.512C105.143,207.68 105.365,207.781 105.623,207.813C105.628,207.814 105.633,207.814 105.638,207.815C107.09,207.94 108.559,208.19 110.044,208.565C110.312,208.637 110.565,208.602 110.799,208.466C111.065,208.31 111.204,208.085 111.226,207.795L111.115,207.898C111.138,207.874 111.158,207.851 111.175,207.829L111.223,207.787C111.262,207.503 111.192,207.245 111.011,207.014C110.844,206.801 110.629,206.662 110.366,206.596C108.758,206.178 107.215,205.91 105.742,205.792L105.736,205.792C105.466,205.774 105.225,205.853 105.013,206.033C104.813,206.202 104.702,206.405 104.669,206.636ZM59.555,205.692L61.979,208.174C62.407,208.613 63.111,208.622 63.55,208.193C63.989,207.765 63.997,207.061 63.569,206.622L61.146,204.14C60.717,203.701 60.013,203.692 59.574,204.121C59.136,204.549 59.127,205.253 59.555,205.692ZM110.697,208.021L110.689,208.029L110.809,208.15L110.697,208.021ZM78.259,184.246L71.286,196.955C70.991,197.493 71.188,198.169 71.726,198.464C72.263,198.759 72.939,198.562 73.234,198.024L80.208,185.315C80.503,184.777 80.306,184.101 79.768,183.806C79.23,183.511 78.554,183.708 78.259,184.246ZM94.057,184.461L80.205,196.656C79.745,197.061 79.701,197.764 80.106,198.224C80.511,198.684 81.214,198.729 81.674,198.324L95.525,186.129C95.985,185.724 96.03,185.021 95.625,184.561C95.22,184.101 94.517,184.056 94.057,184.461ZM111.608,184.461L97.756,196.656C97.296,197.061 97.251,197.764 97.657,198.224C98.062,198.684 98.764,198.729 99.225,198.324L113.076,186.129C113.536,185.724 113.581,185.021 113.176,184.561C112.771,184.101 112.068,184.056 111.608,184.461ZM117.965,163.966C120.904,168.206 121.085,172.446 117.981,176.686C117.64,177.151 117.741,177.805 118.206,178.146C118.672,178.486 119.326,178.385 119.666,177.92C123.363,172.872 123.181,167.823 119.682,162.775C119.354,162.301 118.702,162.183 118.228,162.512C117.754,162.84 117.636,163.492 117.965,163.966ZM100.577,163.966C103.516,168.206 103.697,172.446 100.593,176.686C100.252,177.151 100.353,177.805 100.818,178.146C101.284,178.486 101.938,178.385 102.278,177.92C105.975,172.872 105.794,167.823 102.294,162.775C101.966,162.301 101.314,162.183 100.84,162.512C100.367,162.84 100.249,163.492 100.577,163.966ZM71.079,165.073L84.93,177.268C85.391,177.673 86.093,177.628 86.499,177.168C86.904,176.708 86.859,176.005 86.399,175.6L72.547,163.405C72.087,163 71.385,163.045 70.979,163.505C70.574,163.966 70.619,164.668 71.079,165.073ZM64.398,141.931C60.899,146.98 60.718,152.028 64.414,157.076C64.755,157.541 65.409,157.642 65.874,157.302C66.339,156.961 66.44,156.307 66.1,155.842C62.995,151.602 63.176,147.362 66.115,143.122C66.444,142.648 66.326,141.996 65.852,141.668C65.378,141.339 64.727,141.457 64.398,141.931ZM103.98,142.287L97.006,154.996C96.711,155.534 96.908,156.21 97.446,156.505C97.983,156.8 98.659,156.603 98.954,156.065L105.928,143.356C106.223,142.818 106.026,142.142 105.488,141.848C104.95,141.553 104.275,141.75 103.98,142.287ZM79.714,144.171L93.565,156.365C94.026,156.77 94.728,156.725 95.134,156.265C95.539,155.805 95.494,155.102 95.034,154.697L81.182,142.503C80.722,142.097 80.02,142.142 79.614,142.602C79.209,143.063 79.254,143.765 79.714,144.171ZM108.15,147.202C110.728,148.93 113.748,151.549 115.411,153.344C115.828,153.794 116.531,153.821 116.981,153.404C117.431,152.988 117.458,152.284 117.041,151.834C115.288,149.941 112.106,147.178 109.387,145.356C108.877,145.014 108.187,145.151 107.845,145.66C107.504,146.169 107.64,146.86 108.15,147.202ZM112.66,121.935L105.687,134.645C105.392,135.182 105.589,135.858 106.126,136.153C106.664,136.448 107.34,136.251 107.635,135.714L114.608,123.004C114.903,122.467 114.706,121.791 114.169,121.496C113.631,121.201 112.955,121.398 112.66,121.935ZM78.103,122.262C77.194,127.206 75.748,130.447 72.314,133.895C71.866,134.344 71.868,135.072 72.317,135.52C72.767,135.967 73.495,135.966 73.942,135.517C77.736,131.707 79.359,128.14 80.364,122.678C80.478,122.054 80.065,121.454 79.441,121.34C78.818,121.225 78.218,121.638 78.103,122.262ZM146.306,134.168L146.465,134.157L146.618,134.123L146.764,134.069L146.901,133.996L147.025,133.904L147.136,133.796L147.232,133.671L147.31,133.533L152.673,122.211C152.936,121.657 152.699,120.994 152.145,120.731C151.591,120.469 150.927,120.705 150.665,121.26L146.306,130.462L141.947,121.26C141.685,120.705 141.022,120.469 140.468,120.731C139.913,120.994 139.677,121.657 139.939,122.211L145.302,133.533L146.306,134.168ZM128.994,130.462L124.635,121.26C124.373,120.705 123.71,120.469 123.156,120.731C122.601,120.994 122.364,121.657 122.627,122.211L127.99,133.533L128.068,133.671L128.164,133.796L128.275,133.904L128.458,134.03L128.608,134.099L128.758,134.143L128.923,134.166L129.074,134.165C129.472,134.137 129.826,133.897 129.998,133.533L135.361,122.211C135.624,121.657 135.387,120.994 134.833,120.731C134.278,120.469 133.615,120.705 133.353,121.26L128.994,130.462ZM98.687,99.19L98.687,115.448C98.687,116.061 99.185,116.559 99.799,116.559C100.412,116.559 100.91,116.061 100.91,115.448L100.91,99.19C100.91,98.577 100.412,98.079 99.799,98.079C99.185,98.079 98.687,98.577 98.687,99.19ZM108.932,101.124L101.958,113.834C101.663,114.371 101.86,115.047 102.398,115.342C102.935,115.637 103.611,115.44 103.906,114.903L110.88,102.193C111.175,101.656 110.978,100.98 110.44,100.685C109.903,100.39 109.227,100.587 108.932,101.124ZM60.915,99.84C57.416,104.889 57.235,109.937 60.931,114.985C61.272,115.45 61.926,115.551 62.391,115.211C62.856,114.87 62.957,114.216 62.617,113.751C59.512,109.511 59.693,105.271 62.632,101.031C62.961,100.557 62.843,99.906 62.369,99.577C61.895,99.249 61.244,99.367 60.915,99.84ZM113.966,99.84C110.467,104.889 110.286,109.937 113.982,114.985C114.322,115.45 114.977,115.551 115.442,115.211C115.907,114.87 116.008,114.216 115.668,113.751C112.563,109.511 112.744,105.271 115.683,101.031C116.012,100.557 115.894,99.906 115.42,99.577C114.946,99.249 114.295,99.367 113.966,99.84ZM158.074,100.948C161.013,105.188 161.194,109.428 158.09,113.668C157.749,114.133 157.85,114.788 158.316,115.128C158.781,115.469 159.435,115.368 159.776,114.903C163.472,109.854 163.291,104.806 159.791,99.758C159.463,99.284 158.811,99.166 158.338,99.494C157.864,99.823 157.746,100.474 158.074,100.948ZM75.964,112.562C75.928,112.824 76.022,113.06 76.269,113.26C76.474,113.426 76.722,113.525 77.014,113.552L77.02,113.552C79.395,113.718 81.734,114.081 84.036,114.641C84.321,114.715 84.583,114.689 84.819,114.571C85.086,114.438 85.224,114.244 85.256,114.004L85.281,113.915C85.323,113.632 85.249,113.382 85.058,113.167C84.89,112.977 84.661,112.842 84.366,112.771C81.957,112.181 79.548,111.807 77.142,111.651C76.861,111.624 76.605,111.688 76.375,111.841C76.115,112.014 75.985,112.234 75.964,112.49L76.241,112.79L75.963,112.516L75.964,112.562ZM84.917,114.138C84.919,114.138 84.921,114.139 84.923,114.14L84.983,114.222C84.943,114.222 84.905,114.214 84.869,114.198C84.888,114.179 84.904,114.159 84.917,114.138ZM85.067,114.209C85.055,114.213 85.043,114.216 85.032,114.218C85.022,114.22 85.013,114.221 85.005,114.221C85.026,114.22 85.047,114.216 85.067,114.209ZM85.241,114.047L85.248,114.029C85.244,114.039 85.241,114.049 85.236,114.059L85.241,114.047ZM76.918,106.803C76.881,107.085 76.982,107.321 77.232,107.506C77.435,107.656 77.679,107.747 77.967,107.773C77.969,107.773 77.97,107.774 77.972,107.774C79.62,107.899 81.307,108.163 83.035,108.565C83.037,108.565 83.039,108.566 83.042,108.566C83.323,108.624 83.579,108.596 83.808,108.489C84.079,108.362 84.22,108.17 84.252,107.927L84.276,107.841C84.318,107.573 84.248,107.326 84.057,107.103C83.887,106.902 83.654,106.768 83.356,106.71C81.555,106.279 79.785,106 78.049,105.873C78.046,105.873 78.043,105.873 78.041,105.872C77.756,105.859 77.508,105.933 77.296,106.087C77.059,106.26 76.939,106.471 76.918,106.71L77.195,107.012L76.917,106.738L76.918,106.803ZM83.912,108.06C83.915,108.061 83.917,108.062 83.919,108.062L83.979,108.145C83.938,108.145 83.899,108.136 83.863,108.12C83.882,108.101 83.898,108.081 83.912,108.06ZM84.063,108.132C84.05,108.136 84.039,108.139 84.028,108.141C84.018,108.142 84.008,108.144 84.001,108.144C84.022,108.143 84.043,108.138 84.063,108.132ZM84.237,107.97L84.243,107.952C84.24,107.962 84.236,107.972 84.232,107.982L84.237,107.97ZM76.439,101.47L76.433,101.485L76.437,101.491C76.435,101.5 76.434,101.51 76.434,101.52C76.427,101.598 76.453,101.675 76.506,101.732C76.544,101.774 76.594,101.803 76.648,101.815L76.687,101.875C76.61,101.875 76.536,101.842 76.484,101.786C76.431,101.729 76.405,101.653 76.41,101.576C76.389,101.861 76.502,102.1 76.764,102.285C76.974,102.433 77.221,102.522 77.506,102.549L77.514,102.549C79.521,102.672 81.552,102.933 83.607,103.334C83.885,103.391 84.145,103.36 84.385,103.245C84.669,103.109 84.812,102.907 84.839,102.66L84.842,102.6C84.877,102.336 84.795,102.095 84.583,101.881C84.396,101.692 84.158,101.567 83.865,101.511C81.677,101.071 79.582,100.795 77.582,100.683L77.579,100.683C77.298,100.67 77.048,100.741 76.828,100.894C76.596,101.055 76.472,101.251 76.439,101.47ZM84.503,102.799L84.507,102.793L84.564,102.859L84.503,102.799ZM64.584,81.056L57.61,93.765C57.315,94.303 57.512,94.979 58.05,95.274C58.588,95.569 59.264,95.372 59.558,94.834L66.532,82.125C66.827,81.587 66.63,80.911 66.092,80.616C65.555,80.321 64.879,80.518 64.584,81.056ZM110.51,79.541L103.536,92.25C103.241,92.788 103.438,93.464 103.976,93.759C104.514,94.054 105.19,93.857 105.485,93.319L112.458,80.61C112.753,80.072 112.556,79.396 112.018,79.101C111.481,78.806 110.805,79.003 110.51,79.541ZM86.13,81.424L99.981,93.619C100.441,94.024 101.144,93.979 101.549,93.519C101.954,93.059 101.91,92.356 101.449,91.951L87.598,79.756C87.138,79.351 86.435,79.396 86.03,79.856C85.625,80.316 85.669,81.019 86.13,81.424ZM120.113,92.296L120.113,84.739C120.113,84.131 119.62,83.639 119.013,83.639C118.405,83.639 117.913,84.131 117.913,84.739L117.913,92.296C117.913,92.903 118.405,93.396 119.013,93.396C119.62,93.396 120.113,92.903 120.113,92.296ZM159.281,92.296L159.281,84.739C159.281,84.131 158.788,83.639 158.181,83.639C157.574,83.639 157.081,84.131 157.081,84.739L157.081,92.296C157.081,92.903 157.574,93.396 158.181,93.396C158.788,93.396 159.281,92.903 159.281,92.296ZM69.864,82.69C74.104,79.751 78.344,79.57 82.584,82.675C83.049,83.015 83.703,82.914 84.044,82.449C84.385,81.984 84.283,81.33 83.818,80.989C78.77,77.293 73.722,77.474 68.674,80.973C68.2,81.302 68.082,81.953 68.41,82.427C68.739,82.901 69.39,83.019 69.864,82.69ZM120.113,81.179L120.113,80.57C120.113,79.963 119.62,79.47 119.013,79.47C118.405,79.47 117.913,79.963 117.913,80.57L117.913,81.179C117.913,81.786 118.405,82.279 119.013,82.279C119.62,82.279 120.113,81.786 120.113,81.179ZM159.281,81.179L159.281,80.57C159.281,79.963 158.788,79.47 158.181,79.47C157.574,79.47 157.081,79.963 157.081,80.57L157.081,81.179C157.081,81.786 157.574,82.279 158.181,82.279C158.788,82.279 159.281,81.786 159.281,81.179ZM113.914,58.989C116.853,63.229 117.034,67.469 113.93,71.709C113.589,72.174 113.69,72.828 114.155,73.169C114.62,73.509 115.275,73.408 115.615,72.943C119.311,67.895 119.13,62.847 115.631,57.798C115.302,57.325 114.651,57.207 114.177,57.535C113.703,57.863 113.585,58.515 113.914,58.989ZM153.634,58.989C156.573,63.229 156.754,67.469 153.649,71.709C153.309,72.174 153.41,72.828 153.875,73.169C154.34,73.509 154.995,73.408 155.335,72.943C159.031,67.895 158.85,62.847 155.351,57.798C155.022,57.325 154.371,57.207 153.897,57.535C153.423,57.863 153.305,58.515 153.634,58.989ZM72.398,57.798C68.899,62.847 68.718,67.895 72.414,72.943C72.754,73.408 73.409,73.509 73.874,73.169C74.339,72.828 74.44,72.174 74.099,71.709C70.995,67.469 71.176,63.229 74.115,58.989C74.444,58.515 74.326,57.863 73.852,57.535C73.378,57.207 72.727,57.325 72.398,57.798ZM142.235,70.366C142.199,70.628 142.293,70.864 142.54,71.064C142.745,71.23 142.993,71.329 143.285,71.356L143.291,71.356C145.667,71.522 148.006,71.885 150.308,72.445C150.593,72.519 150.855,72.493 151.091,72.375C151.357,72.242 151.496,72.048 151.527,71.808L151.552,71.719C151.594,71.435 151.52,71.186 151.329,70.971C151.161,70.781 150.932,70.646 150.637,70.575C148.228,69.985 145.82,69.611 143.413,69.455C143.132,69.428 142.876,69.492 142.646,69.645C142.387,69.818 142.256,70.038 142.236,70.294L142.513,70.594L142.235,70.32L142.235,70.366ZM151.189,71.942C151.191,71.942 151.193,71.943 151.195,71.943L151.254,72.026C151.215,72.026 151.176,72.018 151.141,72.002C151.159,71.983 151.175,71.963 151.189,71.942ZM151.338,72.013C151.326,72.017 151.314,72.02 151.304,72.022C151.293,72.024 151.284,72.025 151.276,72.025C151.298,72.024 151.319,72.02 151.338,72.013ZM151.513,71.851L151.519,71.833C151.516,71.843 151.512,71.853 151.508,71.863L151.513,71.851ZM83.394,66.396L93.574,66.396C94.085,66.396 94.498,65.983 94.498,65.473C94.498,64.964 94.085,64.55 93.574,64.55L83.326,64.55C83.724,63.024 85.248,61.912 87.035,61.912L93.574,61.912C94.093,61.912 94.513,61.491 94.513,60.973C94.513,60.455 94.093,60.034 93.574,60.034L87.035,60.034C84.904,60.034 83.062,61.124 82.088,62.724C81.481,63.72 81.347,64.86 81.347,65.339L81.347,65.34C81.347,68.395 84.003,70.912 87.326,70.912L93.574,70.912C94.093,70.912 94.513,70.491 94.513,69.973C94.513,69.455 94.093,69.035 93.574,69.035L87.326,69.035C85.483,69.035 83.9,67.934 83.394,66.396ZM143.189,64.607C143.152,64.889 143.253,65.125 143.504,65.31C143.706,65.46 143.951,65.551 144.239,65.577C144.24,65.577 144.242,65.577 144.243,65.578C145.891,65.703 147.579,65.967 149.306,66.369C149.308,66.369 149.311,66.37 149.313,66.37C149.594,66.428 149.85,66.4 150.08,66.293C150.35,66.166 150.491,65.974 150.523,65.73L150.547,65.645C150.59,65.377 150.52,65.13 150.329,64.906C150.158,64.706 149.926,64.572 149.628,64.514C147.826,64.082 146.057,63.803 144.32,63.677C144.317,63.677 144.315,63.676 144.312,63.676C144.027,63.663 143.779,63.737 143.567,63.891C143.33,64.064 143.21,64.275 143.19,64.514L143.466,64.815L143.189,64.542L143.189,64.607ZM150.184,65.864C150.186,65.865 150.188,65.866 150.19,65.866L150.25,65.949C150.21,65.949 150.17,65.94 150.134,65.924C150.153,65.905 150.169,65.885 150.184,65.864ZM150.334,65.936C150.322,65.94 150.31,65.943 150.3,65.944C150.289,65.946 150.28,65.947 150.272,65.948C150.294,65.946 150.314,65.942 150.334,65.936ZM150.508,65.774L150.515,65.756C150.512,65.766 150.508,65.776 150.503,65.785L150.508,65.774ZM99.884,56.248C98.523,56.248 97.419,57.352 97.419,58.713C97.419,60.073 98.523,61.177 99.884,61.177C101.244,61.177 102.348,60.073 102.348,58.713C102.348,57.352 101.244,56.248 99.884,56.248ZM77.809,56.248C76.448,56.248 75.344,57.352 75.344,58.713C75.344,60.073 76.448,61.177 77.809,61.177C79.169,61.177 80.274,60.073 80.274,58.713C80.274,57.352 79.169,56.248 77.809,56.248ZM142.711,59.274L142.704,59.289L142.708,59.294C142.707,59.304 142.706,59.314 142.705,59.324C142.698,59.402 142.724,59.478 142.777,59.536C142.815,59.578 142.865,59.606 142.92,59.619L142.959,59.678C142.881,59.678 142.808,59.646 142.755,59.59C142.703,59.533 142.676,59.457 142.682,59.38C142.66,59.665 142.773,59.904 143.035,60.089C143.245,60.237 143.492,60.326 143.777,60.352C143.78,60.353 143.783,60.353 143.785,60.353C145.792,60.476 147.823,60.737 149.878,61.138C150.157,61.195 150.417,61.164 150.656,61.049C150.94,60.913 151.083,60.711 151.111,60.464L151.114,60.404C151.148,60.14 151.066,59.898 150.854,59.685C150.668,59.496 150.429,59.371 150.136,59.314C147.949,58.875 145.854,58.599 143.854,58.487C143.853,58.487 143.852,58.487 143.851,58.486C143.569,58.474 143.319,58.545 143.099,58.698C142.867,58.859 142.744,59.055 142.711,59.274ZM150.775,60.603L150.779,60.597L150.836,60.663L150.775,60.603ZM99.884,57.914C100.324,57.914 100.682,58.272 100.682,58.713C100.682,59.153 100.324,59.511 99.884,59.511C99.443,59.511 99.085,59.153 99.085,58.713C99.085,58.272 99.443,57.914 99.884,57.914ZM77.809,57.914C78.249,57.914 78.607,58.272 78.607,58.713C78.607,59.153 78.249,59.511 77.809,59.511C77.368,59.511 77.011,59.153 77.011,58.713C77.011,58.272 77.368,57.914 77.809,57.914ZM113.613,38.202C112.939,42.717 111.726,45.703 108.714,48.937C108.282,49.401 108.308,50.129 108.772,50.561C109.236,50.994 109.964,50.968 110.396,50.504C113.755,46.896 115.134,43.578 115.886,38.542C115.98,37.914 115.547,37.329 114.92,37.235C114.292,37.142 113.707,37.575 113.613,38.202ZM86.444,38.202C85.769,42.717 84.557,45.703 81.545,48.937C81.113,49.401 81.139,50.129 81.603,50.561C82.067,50.994 82.794,50.968 83.227,50.504C86.586,46.896 87.965,43.578 88.717,38.542C88.811,37.914 88.378,37.329 87.75,37.235C87.123,37.142 86.538,37.575 86.444,38.202ZM104.557,38.202C103.882,42.717 102.67,45.703 99.658,48.937C99.225,49.401 99.251,50.129 99.715,50.561C100.18,50.994 100.907,50.968 101.339,50.504C104.699,46.896 106.077,43.578 106.83,38.542C106.924,37.914 106.49,37.329 105.863,37.235C105.236,37.142 104.651,37.575 104.557,38.202ZM95.5,38.202C94.826,42.717 93.613,45.703 90.601,48.937C90.169,49.401 90.195,50.129 90.659,50.561C91.123,50.994 91.851,50.968 92.283,50.504C95.643,46.896 97.021,43.578 97.773,38.542C97.867,37.914 97.434,37.329 96.807,37.235C96.179,37.142 95.594,37.575 95.5,38.202ZM136.43,42.333C139.008,44.061 142.028,46.68 143.691,48.475C144.108,48.925 144.811,48.952 145.261,48.536C145.711,48.119 145.738,47.415 145.321,46.965C143.568,45.072 140.386,42.309 137.667,40.487C137.158,40.145 136.467,40.282 136.125,40.791C135.784,41.301 135.92,41.991 136.43,42.333ZM119.569,41.713C123.809,38.774 128.049,38.593 132.289,41.698C132.754,42.038 133.408,41.937 133.749,41.472C134.09,41.007 133.988,40.352 133.523,40.012C128.475,36.316 123.427,36.497 118.379,39.996C117.905,40.325 117.787,40.976 118.115,41.45C118.444,41.924 119.095,42.042 119.569,41.713Z" style="fill-opacity:0.9;fill-rule:nonzero;"/>
    </g>
</svg>
