<?xml version="1.0" encoding="UTF-8" standalone="no"?>
<!DOCTYPE svg PUBLIC "-//W3C//DTD SVG 1.1//EN" "http://www.w3.org/Graphics/SVG/1.1/DTD/svg11.dtd">
<svg width="89px" height="111px" version="1.1" xmlns="http://www.w3.org/2000/svg" xmlns:xlink="http://www.w3.org/1999/xlink" xml:space="preserve" xmlns:serif="http://www.serif.com/" style="fill-rule:evenodd;clip-rule:evenodd;stroke-linejoin:round;stroke-miterlimit:2;">
    <g transform="matrix(0.520668,0,0,0.520668,-29.8572,-15.3325)">
        <path d="M75.171,145.957C77.364,147.76 80.535,147.729 82.693,145.884C87.989,141.521 98.432,132.595 104.178,127.684C106.472,125.723 109.868,125.78 112.096,127.816C117.645,132.887 127.6,141.985 131.705,145.737C132.193,146.183 132.483,146.806 132.51,147.467C132.537,148.128 132.299,148.772 131.849,149.257C122.506,160.127 106.671,191.139 107.339,190.612C101.821,201.257 94.15,213.003 89.742,218.473C87.848,220.824 80.893,223.432 80.893,223.432C76.888,224.888 73.597,236.756 80.725,241.16C84.517,242.143 88.005,242.258 91.12,241.307C93.795,241.112 95.776,239.813 97.049,237.602C97.594,236.684 97.882,235.636 97.882,234.568C97.916,232.172 98.368,226.685 98.368,223.152C98.368,221.347 99.183,219.638 100.587,218.503C104.199,215.582 110.497,209.769 110.497,209.769C110.497,209.769 128.8,193.737 136.002,187.43C137.633,186.001 140.076,186.02 141.685,187.475C147.057,192.333 158.768,202.923 164.921,208.487C167.175,210.526 170.6,210.549 172.882,208.541C179.849,202.408 193.465,190.423 193.465,190.423C193.465,190.423 210.072,203.017 212.646,205.796C223.362,212.601 228.966,191.799 225.89,180.891C225.418,179.202 224.467,177.686 223.151,176.527C218.253,172.2 202.64,158.455 202.64,158.455C199.646,156.332 197.099,155.945 195.011,157.335C194.779,166.465 192.54,172.262 184.8,177.801C182.915,179.344 181.03,179.25 179.145,177.801C179.145,177.801 166.278,166.473 160.235,161.153C158.488,159.615 157.459,157.419 157.396,155.091C157.338,152.17 156.573,149.144 154.993,145.996L165.504,126.84L171.896,131.662C175.888,134.338 180.562,138.394 183.137,141.174C185.562,143.66 189.092,143.908 191.234,143.557C196.35,140.226 198.24,132.275 196.639,125.95C196.147,124.067 195.131,122.361 193.709,121.031C184.345,112.094 171.814,100.846 162.671,97.431C156.167,92.233 149.663,91.941 143.158,97.431C141.347,93.024 139.325,88.898 137.099,85.044C136.052,83.253 136.009,81.047 136.986,79.216C140.338,73.092 139.86,66.801 135.263,61C125.538,48.73 87.778,47.497 77,61C71.686,67.657 71.875,75 77,82C78.898,84.428 81.313,86.902 85.015,89.494C85.964,90.162 86.528,91.249 86.528,92.409C86.536,96.101 86.536,104.155 86.536,107.069C86.536,107.808 86.374,108.539 86.06,109.208C83.59,112.336 75.524,116.053 72.019,121.59C67.193,129.214 67.451,139.739 75.171,145.957Z" style="fill:white;"/>
    </g>
    <g transform="matrix(0.622638,0,0,0.622638,-23.9762,-25.5376)">
        <path d="M71.324,201.127L71.324,212.543C71.324,213.241 71.136,213.927 70.78,214.528C69.881,216.039 68.516,216.935 66.671,217.07C66.059,217.114 65.599,217.647 65.644,218.259C65.688,218.87 66.221,219.331 66.833,219.286C69.462,219.095 71.41,217.818 72.691,215.663L72.691,215.662C73.251,214.718 73.547,213.64 73.546,212.542L73.546,201.127C73.546,200.514 73.049,200.016 72.435,200.016C71.822,200.016 71.324,200.514 71.324,201.127ZM50.859,215.869C50.823,216.188 50.92,216.472 51.161,216.718C51.379,216.941 51.643,217.072 51.954,217.11C51.958,217.111 51.962,217.111 51.966,217.112C54.137,217.322 56.273,217.756 58.373,218.414C58.699,218.521 58.995,218.486 59.264,218.323C59.539,218.155 59.692,217.917 59.727,217.611L59.75,217.508C59.793,217.17 59.719,216.874 59.539,216.616C59.364,216.367 59.125,216.192 58.817,216.097C56.591,215.395 54.364,214.943 52.137,214.74C51.825,214.701 51.539,214.783 51.282,214.991C51.021,215.203 50.883,215.469 50.86,215.786L50.859,215.869ZM59.718,217.643L59.71,217.669C59.713,217.66 59.716,217.652 59.718,217.643ZM51.781,209.291C51.743,209.637 51.85,209.923 52.096,210.152C52.31,210.352 52.57,210.473 52.876,210.511C52.879,210.511 52.881,210.511 52.884,210.512C54.388,210.669 55.927,210.984 57.501,211.456C57.505,211.458 57.509,211.459 57.513,211.46C57.829,211.544 58.115,211.506 58.374,211.359C58.655,211.2 58.812,210.964 58.848,210.651L58.871,210.552C58.914,210.234 58.845,209.941 58.664,209.672C58.486,209.408 58.241,209.235 57.928,209.154C56.261,208.641 54.622,208.303 53.012,208.141C53.008,208.14 53.003,208.14 52.998,208.139C52.682,208.118 52.405,208.213 52.168,208.424C51.931,208.635 51.805,208.889 51.782,209.184L51.781,209.291ZM58.839,210.683L58.831,210.71C58.834,210.701 58.837,210.692 58.839,210.683ZM51.352,203.321L51.353,203.309C51.353,203.313 51.353,203.317 51.352,203.321C51.332,203.666 51.451,203.951 51.706,204.179C51.928,204.376 52.189,204.494 52.49,204.531C52.495,204.532 52.501,204.532 52.506,204.533C54.341,204.691 56.198,205.007 58.075,205.481C58.388,205.564 58.678,205.524 58.946,205.367C59.239,205.196 59.397,204.95 59.429,204.635L59.425,204.655L59.43,204.582C59.471,204.258 59.389,203.963 59.182,203.699C58.988,203.45 58.737,203.288 58.429,203.211C56.408,202.686 54.47,202.349 52.618,202.2L52.612,202.2C52.301,202.179 52.023,202.271 51.778,202.478C51.546,202.675 51.417,202.912 51.381,203.183L51.377,203.195L51.379,203.198C51.378,203.214 51.376,203.229 51.375,203.245C51.366,203.356 51.347,203.419 51.352,203.321ZM79.341,175.251L70.551,191.27C70.256,191.808 70.453,192.484 70.991,192.779C71.528,193.074 72.204,192.877 72.499,192.339L81.289,176.32C81.584,175.782 81.387,175.107 80.849,174.812C80.312,174.517 79.636,174.714 79.341,175.251ZM100.598,174.793L82.222,190.971C81.761,191.376 81.717,192.079 82.122,192.539C82.527,192.999 83.23,193.044 83.69,192.639L102.066,176.461C102.526,176.056 102.571,175.353 102.166,174.893C101.761,174.432 101.058,174.388 100.598,174.793ZM151.602,174.793L133.225,190.971C132.765,191.376 132.72,192.079 133.126,192.539C133.531,192.999 134.234,193.044 134.694,192.639L153.07,176.461C153.53,176.056 153.575,175.353 153.17,174.893C152.765,174.432 152.062,174.388 151.602,174.793ZM110.541,176.461L128.917,192.639C129.377,193.044 130.08,192.999 130.485,192.539C130.89,192.079 130.846,191.376 130.385,190.971L112.009,174.793C111.549,174.388 110.846,174.432 110.441,174.893C110.036,175.353 110.081,176.056 110.541,176.461ZM66.752,189.268C67.446,189.268 68.009,189.831 68.009,190.525C68.009,191.219 67.446,191.782 66.752,191.782C66.058,191.782 65.495,191.219 65.495,190.525C65.495,189.831 66.058,189.268 66.752,189.268ZM172.589,189.04C172.552,189.359 172.65,189.643 172.89,189.889C173.108,190.111 173.373,190.242 173.684,190.281C173.688,190.282 173.691,190.282 173.695,190.282C175.866,190.493 178.002,190.927 180.103,191.585C180.429,191.692 180.725,191.656 180.993,191.493C181.268,191.326 181.421,191.088 181.456,190.782L181.48,190.679C181.522,190.341 181.449,190.045 181.268,189.787C181.094,189.538 180.854,189.363 180.546,189.267C178.321,188.566 176.094,188.114 173.867,187.911C173.554,187.872 173.269,187.953 173.011,188.162C172.751,188.373 172.613,188.64 172.59,188.957L172.589,189.04ZM181.448,190.813L181.44,190.84C181.443,190.831 181.445,190.822 181.448,190.813ZM158.357,181.452C161.626,183.643 165.453,186.962 167.561,189.238C167.977,189.688 168.681,189.715 169.131,189.298C169.581,188.881 169.608,188.178 169.191,187.728C166.993,185.355 163.003,181.891 159.594,179.606C159.085,179.265 158.394,179.401 158.053,179.91C157.711,180.42 157.848,181.11 158.357,181.452ZM173.511,182.462C173.472,182.808 173.58,183.093 173.826,183.322C174.04,183.522 174.299,183.643 174.606,183.682L174.614,183.682C176.118,183.84 177.657,184.155 179.231,184.627C179.235,184.628 179.239,184.629 179.243,184.631C179.558,184.715 179.845,184.677 180.104,184.53C180.385,184.371 180.542,184.134 180.578,183.822L180.601,183.722C180.643,183.404 180.575,183.111 180.394,182.843C180.215,182.579 179.97,182.406 179.658,182.325C177.99,181.811 176.352,181.474 174.742,181.311C174.737,181.311 174.732,181.31 174.728,181.31C174.411,181.289 174.135,181.384 173.897,181.595C173.66,181.805 173.534,182.06 173.512,182.355L173.511,182.462ZM180.569,183.854L180.561,183.88C180.564,183.872 180.567,183.863 180.569,183.854ZM173.111,176.354L173.107,176.365L173.109,176.369C173.107,176.384 173.106,176.4 173.105,176.416C173.096,176.532 173.075,176.595 173.083,176.479C173.059,176.83 173.178,177.119 173.436,177.349C173.657,177.546 173.918,177.664 174.22,177.702C174.225,177.703 174.23,177.703 174.235,177.704C176.071,177.862 177.927,178.178 179.805,178.652C180.118,178.734 180.408,178.695 180.676,178.538C180.969,178.367 181.127,178.121 181.158,177.805L181.155,177.826L181.159,177.753C181.2,177.429 181.119,177.134 180.912,176.87C180.717,176.621 180.466,176.458 180.159,176.382C178.138,175.857 176.199,175.519 174.348,175.371L174.342,175.371C174.031,175.35 173.753,175.441 173.508,175.649C173.276,175.846 173.146,176.083 173.111,176.354ZM152.48,147.929C152.296,155.155 150.547,159.754 144.421,164.138C143.905,164.507 143.786,165.225 144.155,165.741C144.524,166.257 145.243,166.376 145.758,166.007C152.578,161.127 154.573,156.031 154.778,147.988C154.794,147.354 154.292,146.826 153.658,146.81C153.024,146.794 152.496,147.295 152.48,147.929ZM159.274,149.729L177.65,165.906C178.111,166.312 178.813,166.267 179.219,165.807C179.624,165.346 179.579,164.644 179.119,164.238L160.743,148.061C160.282,147.655 159.58,147.7 159.174,148.16C158.769,148.621 158.814,149.323 159.274,149.729ZM121.994,147.784L121.988,147.784C121.679,147.783 121.371,147.91 121.151,148.16C120.746,148.621 120.79,149.323 121.251,149.729L139.627,165.906C139.837,166.092 140.098,166.183 140.358,166.183L140.365,166.183C140.672,166.182 140.977,166.055 141.195,165.807C141.6,165.346 141.556,164.644 141.095,164.238L122.719,148.061C122.511,147.877 122.252,147.786 121.994,147.784ZM94.392,148.214L85.603,164.233C85.308,164.771 85.505,165.447 86.043,165.742C86.58,166.036 87.256,165.84 87.551,165.302L96.341,149.283C96.636,148.745 96.439,148.069 95.901,147.774C95.363,147.479 94.687,147.676 94.392,148.214ZM83.214,162.226C83.908,162.226 84.472,162.789 84.472,163.483C84.472,164.177 83.908,164.74 83.214,164.74C82.521,164.74 81.957,164.177 81.957,163.483C81.957,162.789 82.521,162.226 83.214,162.226ZM114.716,147.755L108.139,160.908L101.563,147.755C101.289,147.207 100.621,146.984 100.072,147.258C99.524,147.533 99.301,148.201 99.575,148.749L107.146,163.89C107.334,164.266 107.719,164.504 108.139,164.504C108.56,164.504 108.945,164.266 109.133,163.89L116.703,148.749C116.978,148.201 116.755,147.533 116.207,147.258C115.658,146.984 114.99,147.207 114.716,147.755ZM127.98,121.923L119.191,137.942C118.896,138.48 119.093,139.156 119.63,139.451C120.168,139.746 120.844,139.549 121.139,139.011L129.929,122.992C130.223,122.454 130.026,121.778 129.489,121.483C128.951,121.188 128.275,121.385 127.98,121.923ZM78.191,121.381L59.815,137.559C59.355,137.964 59.31,138.667 59.715,139.127C60.12,139.587 60.823,139.632 61.283,139.227L79.659,123.049C80.12,122.644 80.164,121.941 79.759,121.481C79.354,121.02 78.651,120.976 78.191,121.381ZM82.48,123.049L100.856,139.227C101.317,139.632 102.019,139.587 102.425,139.127C102.83,138.667 102.785,137.964 102.325,137.559L83.949,121.381C83.488,120.976 82.786,121.02 82.381,121.481C81.975,121.941 82.02,122.644 82.48,123.049ZM38.533,138.345C38.534,138.399 38.544,138.446 38.56,138.486C38.653,138.798 38.81,139.021 39.011,139.168C39.228,139.326 39.503,139.403 39.843,139.372C39.848,139.372 39.854,139.371 39.859,139.37C45.88,138.594 50.609,136.897 54.054,134.298C54.293,134.124 54.44,133.874 54.48,133.538C54.518,133.222 54.448,132.942 54.279,132.697C54.1,132.44 53.861,132.286 53.563,132.232C53.259,132.177 52.986,132.24 52.742,132.415C52.741,132.417 52.739,132.418 52.737,132.419C49.489,134.839 45.042,136.391 39.401,137.091C39.397,137.092 39.392,137.092 39.388,137.093C39.098,137.138 38.861,137.29 38.684,137.559C38.52,137.811 38.472,138.073 38.533,138.345ZM149.397,136.096L149.397,136.16C149.354,136.467 149.465,136.743 149.755,136.977C150.003,137.178 150.302,137.297 150.655,137.33L150.661,137.33C153.659,137.539 156.611,137.998 159.516,138.705C159.86,138.793 160.173,138.763 160.455,138.622C160.619,138.54 160.743,138.437 160.828,138.318C160.904,138.21 160.95,138.089 160.966,137.955L160.997,137.849C161.046,137.514 160.959,137.219 160.734,136.965C160.531,136.735 160.254,136.574 159.898,136.488C156.866,135.745 153.835,135.275 150.806,135.078C150.467,135.046 150.16,135.122 149.883,135.306C149.578,135.509 149.422,135.768 149.398,136.069L149.397,136.096ZM160.952,137.999L160.958,137.981C160.955,137.992 160.951,138.002 160.946,138.012L160.952,137.999ZM133.68,127.413C136.949,129.603 140.776,132.923 142.884,135.199C143.301,135.649 144.004,135.676 144.454,135.259C144.904,134.842 144.931,134.139 144.515,133.689C142.316,131.315 138.326,127.851 134.918,125.567C134.408,125.225 133.718,125.362 133.376,125.871C133.035,126.381 133.171,127.071 133.68,127.413ZM38.956,131.896C39.031,132.193 39.192,132.431 39.44,132.61C39.703,132.799 39.982,132.868 40.274,132.825C45.407,132.103 49.469,130.685 52.465,128.586C52.466,128.585 52.468,128.584 52.469,128.582C52.704,128.413 52.856,128.174 52.915,127.856C52.972,127.546 52.92,127.267 52.767,127.018C52.602,126.751 52.366,126.589 52.057,126.534C51.753,126.479 51.48,126.541 51.237,126.717C48.497,128.588 44.682,129.868 39.802,130.569L39.797,130.569C39.506,130.614 39.266,130.77 39.089,131.052C38.916,131.327 38.876,131.61 38.956,131.896ZM150.599,128.813L150.6,128.9C150.555,129.231 150.674,129.507 150.967,129.724C151.212,129.905 151.508,130.014 151.857,130.046C151.859,130.046 151.86,130.047 151.861,130.047C153.942,130.205 156.073,130.538 158.254,131.046C158.256,131.046 158.258,131.047 158.261,131.047C158.599,131.117 158.906,131.084 159.182,130.954C159.499,130.807 159.665,130.582 159.701,130.296L159.731,130.192C159.78,129.876 159.697,129.584 159.472,129.32C159.266,129.078 158.986,128.919 158.626,128.848C156.359,128.306 154.133,127.955 151.948,127.795L151.94,127.795C151.598,127.779 151.301,127.867 151.047,128.052C150.767,128.255 150.625,128.503 150.6,128.784L150.599,128.813ZM159.686,130.339L159.692,130.321C159.689,130.332 159.685,130.342 159.68,130.352L159.686,130.339ZM40.311,126.624C40.312,126.623 40.313,126.623 40.314,126.623C44.986,125.916 48.627,124.788 51.241,123.251C51.521,123.097 51.698,122.859 51.769,122.533C51.836,122.222 51.789,121.937 51.636,121.678C51.481,121.415 51.257,121.241 50.965,121.157C50.662,121.07 50.38,121.105 50.118,121.258C47.663,122.687 44.209,123.726 39.763,124.387C39.76,124.388 39.758,124.388 39.755,124.388C39.473,124.435 39.244,124.591 39.081,124.874C38.933,125.131 38.895,125.409 38.973,125.709C39.049,126.015 39.219,126.255 39.483,126.428C39.749,126.603 40.026,126.665 40.311,126.624ZM150.006,122.128C150.057,121.893 150.202,121.683 150.455,121.507C150.719,121.324 151.02,121.238 151.358,121.253L151.361,121.253C153.879,121.395 156.516,121.743 159.27,122.296C159.624,122.364 159.912,122.514 160.138,122.742C160.388,122.995 160.486,123.28 160.443,123.593L160.441,123.661C160.41,123.951 160.241,124.187 159.908,124.346C159.62,124.484 159.308,124.521 158.973,124.452C156.379,123.946 153.816,123.616 151.284,123.462C151.281,123.461 151.278,123.461 151.275,123.461C150.929,123.429 150.63,123.322 150.375,123.142C150.074,122.929 149.94,122.656 149.959,122.33C149.963,122.256 149.98,122.188 150.006,122.128ZM131.514,100.855L149.891,117.033C150.351,117.438 151.054,117.393 151.459,116.933C151.864,116.472 151.819,115.77 151.359,115.365L132.983,99.187C132.523,98.781 131.82,98.826 131.415,99.286C131.009,99.747 131.054,100.449 131.514,100.855ZM74.243,96.252L92.62,112.43C93.08,112.835 93.782,112.791 94.188,112.33C94.593,111.87 94.548,111.168 94.088,110.762L75.712,94.584C75.251,94.179 74.549,94.224 74.144,94.684C73.738,95.144 73.783,95.847 74.243,96.252ZM61.808,94.513L61.808,105.928C61.808,106.627 61.62,107.312 61.263,107.913C60.365,109.425 58.999,110.321 57.154,110.455C56.543,110.5 56.082,111.032 56.127,111.644C56.172,112.256 56.704,112.716 57.316,112.671C59.946,112.48 61.893,111.203 63.174,109.048L63.174,109.047C63.735,108.103 64.03,107.025 64.03,105.927L64.03,94.513C64.03,93.899 63.532,93.401 62.919,93.401C62.305,93.401 61.808,93.899 61.808,94.513ZM103.747,96.712C102.765,102.055 101.201,105.557 97.49,109.283C97.042,109.733 97.044,110.461 97.493,110.908C97.942,111.356 98.671,111.355 99.118,110.905C103.189,106.818 104.93,102.989 106.008,97.128C106.122,96.504 105.709,95.905 105.085,95.79C104.462,95.675 103.862,96.089 103.747,96.712ZM127.279,96.997C124.336,94.646 121.381,93.435 118.439,93.402C115.481,93.369 112.509,94.519 109.551,97.016C109.083,97.411 109.023,98.113 109.419,98.582C109.814,99.05 110.516,99.11 110.985,98.714C113.466,96.62 115.933,95.596 118.414,95.624C120.911,95.652 123.395,96.738 125.891,98.733C126.37,99.116 127.07,99.038 127.453,98.559C127.836,98.08 127.758,97.38 127.279,96.997ZM102.807,67.995C106.585,73.445 106.813,78.894 102.823,84.344C102.482,84.809 102.583,85.463 103.048,85.804C103.514,86.144 104.168,86.043 104.508,85.578C109.09,79.32 108.862,73.063 104.524,66.805C104.196,66.331 103.544,66.213 103.07,66.542C102.597,66.87 102.478,67.521 102.807,67.995ZM54.086,66.805C49.748,73.063 49.52,79.32 54.102,85.578C54.442,86.043 55.096,86.144 55.562,85.804C56.027,85.463 56.128,84.809 55.787,84.344C51.797,78.894 52.025,73.445 55.803,67.995C56.131,67.521 56.013,66.87 55.54,66.542C55.066,66.213 54.414,66.331 54.086,66.805ZM68.085,77.45L80.336,77.45C80.95,77.45 81.448,76.952 81.448,76.339C81.448,75.726 80.95,75.228 80.336,75.228L68.003,75.228C68.482,73.392 70.316,72.053 72.467,72.053L80.336,72.053C80.96,72.053 81.466,71.547 81.466,70.924C81.466,70.3 80.96,69.794 80.336,69.794L72.467,69.794C69.902,69.794 67.685,71.105 66.513,73.031C65.783,74.229 65.622,75.601 65.622,76.178L65.622,76.179C65.622,79.855 68.818,82.884 72.817,82.884L80.336,82.884C80.96,82.884 81.466,82.378 81.466,81.754C81.466,81.131 80.96,80.625 80.336,80.625L72.817,80.625C70.599,80.625 68.694,79.3 68.085,77.45ZM96.609,70.662L97.093,70.656C97.534,70.679 97.884,71.043 97.884,71.489L97.885,71.488L97.885,74.875L100.77,73.182C100.898,73.107 101.044,73.068 101.192,73.068C101.192,73.068 101.617,73.027 101.887,73.441L102.088,73.801C102.144,73.902 102.174,73.996 102.185,74.085C102.236,74.419 102.078,74.756 101.78,74.929L98.876,76.621L101.781,78.314C102.107,78.503 102.264,78.888 102.166,79.251C102.148,79.32 102.121,79.384 102.087,79.444L101.927,79.736C101.661,80.22 101.193,80.175 101.193,80.175C101.044,80.175 100.899,80.136 100.771,80.061L97.885,78.367L97.885,81.754C97.885,82.2 97.534,82.564 97.094,82.587L96.67,82.587C96.23,82.564 95.88,82.2 95.88,81.754L95.88,78.367L92.993,80.061C92.865,80.136 92.72,80.175 92.572,80.175C92.572,80.175 92.156,80.215 91.886,79.815L91.677,79.444C91.643,79.384 91.617,79.32 91.598,79.251C91.5,78.888 91.658,78.503 91.983,78.314L94.888,76.622L91.982,74.929C91.657,74.74 91.499,74.355 91.597,73.992C91.616,73.924 91.642,73.859 91.676,73.799L91.836,73.509L91.838,73.512L91.885,73.428C92.155,73.028 92.571,73.068 92.571,73.068C92.719,73.068 92.865,73.107 92.993,73.182L95.879,74.875L95.879,71.489C95.879,71.066 96.194,70.717 96.602,70.663L96.609,70.662ZM88.506,64.912C86.911,64.912 85.616,66.207 85.616,67.802C85.616,69.397 86.911,70.692 88.506,70.692C90.101,70.692 91.395,69.397 91.395,67.802C91.395,66.207 90.101,64.912 88.506,64.912ZM60.682,64.912C59.087,64.912 57.792,66.207 57.792,67.802C57.792,69.397 59.087,70.692 60.682,70.692C62.277,70.692 63.572,69.397 63.572,67.802C63.572,66.207 62.277,64.912 60.682,64.912ZM88.506,66.579C89.181,66.579 89.729,67.127 89.729,67.802C89.729,68.477 89.181,69.025 88.506,69.025C87.831,69.025 87.283,68.477 87.283,67.802C87.283,67.127 87.831,66.579 88.506,66.579ZM60.682,66.579C61.357,66.579 61.905,67.127 61.905,67.802C61.905,68.477 61.357,69.025 60.682,69.025C60.007,69.025 59.459,68.477 59.459,67.802C59.459,67.127 60.007,66.579 60.682,66.579ZM84.538,41.994C83.677,47.753 82.127,51.56 78.286,55.685C77.853,56.149 77.879,56.877 78.343,57.309C78.807,57.741 79.535,57.715 79.967,57.251C84.157,52.753 85.872,48.614 86.811,42.334C86.904,41.707 86.471,41.121 85.844,41.028C85.217,40.934 84.631,41.367 84.538,41.994ZM73.123,41.994C72.262,47.753 70.712,51.56 66.871,55.685C66.438,56.149 66.464,56.877 66.928,57.309C67.392,57.741 68.12,57.715 68.552,57.251C72.742,52.753 74.457,48.614 75.396,42.334C75.489,41.707 75.056,41.121 74.429,41.028C73.802,40.934 73.216,41.367 73.123,41.994ZM95.953,41.994C95.092,47.753 93.542,51.56 89.701,55.685C89.268,56.149 89.294,56.877 89.758,57.309C90.222,57.741 90.95,57.715 91.382,57.251C95.572,52.753 97.287,48.614 98.226,42.334C98.319,41.707 97.886,41.121 97.259,41.028C96.632,40.934 96.046,41.367 95.953,41.994ZM107.368,41.994C106.507,47.753 104.957,51.56 101.116,55.685C100.683,56.149 100.709,56.877 101.173,57.309C101.637,57.741 102.365,57.715 102.797,57.251C106.986,52.753 108.702,48.614 109.64,42.334C109.734,41.707 109.301,41.121 108.674,41.028C108.047,40.934 107.461,41.367 107.368,41.994Z" style="fill-rule:nonzero;"/>
    </g>
</svg>
