<?xml version="1.0" encoding="UTF-8" standalone="no"?>
<svg xmlns:xlink="http://www.w3.org/1999/xlink" height="43.85px" width="42.05px" xmlns="http://www.w3.org/2000/svg">
  <g transform="matrix(1.0, 0.0, 0.0, 1.0, 21.0, 43.35)">
    <path d="M-20.5 -18.95 Q-20.5 -28.85 -14.55 -35.85 -8.5 -42.85 0.0 -42.85 8.5 -42.85 14.5 -35.85 20.5 -28.85 20.55 -18.95 20.5 -9.1 14.85 -4.6 9.2 -0.1 0.35 0.0 -8.45 0.05 -14.45 -4.5 -20.5 -9.1 -20.5 -18.95" fill="#fee5cb" fill-rule="evenodd" stroke="none"/>
    <path d="M-20.5 -18.95 Q-20.5 -28.85 -14.55 -35.85 -8.5 -42.85 0.0 -42.85 8.5 -42.85 14.5 -35.85 20.5 -28.85 20.55 -18.95 20.5 -9.1 14.85 -4.6 9.2 -0.1 0.35 0.0 -8.45 0.05 -14.45 -4.5 -20.5 -9.1 -20.5 -18.95 Z" fill="none" stroke="#8f7c3f" stroke-linecap="round" stroke-linejoin="round" stroke-width="1.0"/>
    <path d="M-17.0 -25.6 Q-17.0 -31.7 -12.1 -36.0 -7.2 -40.4 -0.25 -40.4 6.75 -40.4 11.65 -36.0 16.6 -31.7 16.6 -25.6 16.6 -19.5 11.95 -16.7 7.3 -13.95 0.05 -13.85 -7.15 -13.8 -12.1 -16.65 -17.0 -19.45 -17.0 -25.6" fill="#ffffff" fill-rule="evenodd" stroke="none"/>
    <path d="M-17.0 -25.6 Q-17.0 -31.7 -12.1 -36.0 -7.2 -40.4 -0.25 -40.4 6.75 -40.4 11.65 -36.0 16.6 -31.7 16.6 -25.6 16.6 -19.5 11.95 -16.7 7.3 -13.95 0.05 -13.85 -7.15 -13.8 -12.1 -16.65 -17.0 -19.45 -17.0 -25.6 Z" fill="none" stroke="#8f7c3f" stroke-linecap="round" stroke-linejoin="round" stroke-width="0.75"/>
    <path d="M-7.15 -33.25 Q-4.95 -33.25 -3.45 -31.35 -1.9 -29.45 -1.9 -26.85 -1.9 -24.2 -3.45 -22.3 -4.95 -20.45 -7.15 -20.45 -9.35 -20.45 -10.9 -22.3 -12.4 -24.2 -12.4 -26.85 -12.4 -29.45 -10.9 -31.35 -9.35 -33.25 -7.15 -33.25" fill="#ffffff" fill-rule="evenodd" stroke="none"/>
    <path d="M-7.15 -33.25 Q-4.95 -33.25 -3.45 -31.35 -1.9 -29.45 -1.9 -26.85 -1.9 -24.2 -3.45 -22.3 -4.95 -20.45 -7.15 -20.45 -9.35 -20.45 -10.9 -22.3 -12.4 -24.2 -12.4 -26.85 -12.4 -29.45 -10.9 -31.35 -9.35 -33.25 -7.15 -33.25 Z" fill="none" stroke="#8f7c3f" stroke-linecap="round" stroke-linejoin="round" stroke-width="0.75"/>
    <path d="M-6.7 -30.65 Q-5.4 -30.65 -4.5 -29.55 -3.55 -28.45 -3.55 -26.9 -3.55 -25.35 -4.5 -24.2 -5.4 -23.1 -6.7 -23.1 -8.0 -23.1 -8.9 -24.2 -9.8 -25.35 -9.8 -26.9 -9.8 -28.45 -8.9 -29.55 -8.0 -30.65 -6.7 -30.65" fill="#8f7c3f" fill-rule="evenodd" stroke="none"/>
    <path d="M-6.7 -30.65 Q-5.4 -30.65 -4.5 -29.55 -3.55 -28.45 -3.55 -26.9 -3.55 -25.35 -4.5 -24.2 -5.4 -23.1 -6.7 -23.1 -8.0 -23.1 -8.9 -24.2 -9.8 -25.35 -9.8 -26.9 -9.8 -28.45 -8.9 -29.55 -8.0 -30.65 -6.7 -30.65 Z" fill="none" stroke="#8f7c3f" stroke-linecap="round" stroke-linejoin="round" stroke-width="0.75"/>
    <path d="M20.2 -19.2 L19.9 -18.0 19.55 -17.6 19.3 -17.35 Q18.5 -16.45 16.85 -15.9 15.0 -15.2 12.95 -15.1 L11.45 -15.05 6.95 -15.1 6.55 -15.15 3.75 -15.65 3.55 -15.7 1.9 -16.4 1.4 -16.8 1.35 -16.95 Q1.2 -17.35 1.65 -17.65 L2.25 -18.15 3.5 -19.05 4.65 -19.5 7.7 -19.85 9.75 -19.75 10.15 -19.7 Q11.5 -19.4 12.85 -18.75 L13.1 -18.65 13.55 -18.45 14.05 -18.25 Q15.45 -17.6 16.9 -17.85 L18.75 -18.25 19.2 -18.4 19.75 -18.95 19.95 -19.1 20.2 -19.2" fill="#8f7c3f" fill-rule="evenodd" stroke="none"/>
    <path d="M20.2 -19.2 L19.9 -18.0 19.55 -17.6 19.3 -17.35 Q18.5 -16.45 16.85 -15.9 15.0 -15.2 12.95 -15.1 L11.45 -15.05 6.95 -15.1 6.55 -15.15 3.75 -15.65 3.55 -15.7 1.9 -16.4 1.4 -16.8 1.35 -16.95 Q1.2 -17.35 1.65 -17.65 L2.25 -18.15 3.5 -19.05 4.65 -19.5 7.7 -19.85 9.75 -19.75 10.15 -19.7 Q11.5 -19.4 12.85 -18.75 L13.1 -18.65 13.55 -18.45 14.05 -18.25 Q15.45 -17.6 16.9 -17.85 L18.75 -18.25 19.2 -18.4 19.75 -18.95 19.95 -19.1 20.2 -19.2 20.3 -19.5" fill="none" stroke="#8f7c3f" stroke-linecap="round" stroke-linejoin="round" stroke-width="0.75"/>
    <path d="M-18.75 -18.9 L-18.45 -17.7 -18.1 -17.3 -17.85 -17.05 Q-17.05 -16.15 -15.4 -15.6 -13.55 -14.9 -11.5 -14.8 L-10.0 -14.75 -5.5 -14.8 -5.1 -14.85 -2.3 -15.35 -2.1 -15.4 -0.45 -16.1 0.05 -16.5 0.1 -16.65 Q0.25 -17.05 -0.2 -17.35 L-0.8 -17.85 Q-1.3 -18.35 -2.05 -18.75 L-3.2 -19.2 -6.25 -19.55 -8.3 -19.45 -8.7 -19.4 Q-10.05 -19.1 -11.4 -18.45 L-11.65 -18.35 -12.1 -18.15 -12.6 -17.95 Q-14.0 -17.3 -15.45 -17.55 L-17.3 -17.95 -17.75 -18.1 -18.3 -18.65 -18.5 -18.8 -18.75 -18.9" fill="#8f7c3f" fill-rule="evenodd" stroke="none"/>
    <path d="M-18.75 -18.9 L-18.45 -17.7 -18.1 -17.3 -17.85 -17.05 Q-17.05 -16.15 -15.4 -15.6 -13.55 -14.9 -11.5 -14.8 L-10.0 -14.75 -5.5 -14.8 -5.1 -14.85 -2.3 -15.35 -2.1 -15.4 -0.45 -16.1 0.05 -16.5 0.1 -16.65 Q0.25 -17.05 -0.2 -17.35 L-0.8 -17.85 Q-1.3 -18.35 -2.05 -18.75 L-3.2 -19.2 -6.25 -19.55 -8.3 -19.45 -8.7 -19.4 Q-10.05 -19.1 -11.4 -18.45 L-11.65 -18.35 -12.1 -18.15 -12.6 -17.95 Q-14.0 -17.3 -15.45 -17.55 L-17.3 -17.95 -17.75 -18.1 -18.3 -18.65 -18.5 -18.8 -18.75 -18.9 -18.85 -19.2" fill="none" stroke="#8f7c3f" stroke-linecap="round" stroke-linejoin="round" stroke-width="0.75"/>
    <path d="M7.0 -34.05 Q9.2 -34.05 10.7 -32.15 12.25 -30.25 12.25 -27.65 12.25 -25.0 10.7 -23.1 9.2 -21.25 7.0 -21.25 4.8 -21.25 3.25 -23.1 1.75 -25.0 1.75 -27.65 1.75 -30.25 3.25 -32.15 4.8 -34.05 7.0 -34.05" fill="#ffffff" fill-rule="evenodd" stroke="none"/>
    <path d="M7.0 -34.05 Q9.2 -34.05 10.7 -32.15 12.25 -30.25 12.25 -27.65 12.25 -25.0 10.7 -23.1 9.2 -21.25 7.0 -21.25 4.8 -21.25 3.25 -23.1 1.75 -25.0 1.75 -27.65 1.75 -30.25 3.25 -32.15 4.8 -34.05 7.0 -34.05 Z" fill="none" stroke="#8f7c3f" stroke-linecap="round" stroke-linejoin="round" stroke-width="0.75"/>
  </g>
</svg>
