<?xml version="1.0" encoding="UTF-8" standalone="no"?>
<svg xmlns:xlink="http://www.w3.org/1999/xlink" height="43.85px" width="48.2px" xmlns="http://www.w3.org/2000/svg">
  <g transform="matrix(1.0, 0.0, 0.0, 1.0, 24.1, 43.35)">
    <path d="M-23.6 -18.95 Q-23.6 -28.85 -16.75 -35.85 -9.8 -42.85 -0.05 -42.85 9.75 -42.85 16.6 -35.85 23.55 -28.85 23.6 -18.95 23.55 -9.1 17.05 -4.6 10.5 -0.1 0.4 0.0 -9.7 0.05 -16.65 -4.5 -23.6 -9.1 -23.6 -18.95" fill="#fee5cb" fill-rule="evenodd" stroke="none"/>
    <path d="M-23.6 -18.95 Q-23.6 -28.85 -16.75 -35.85 -9.8 -42.85 -0.05 -42.85 9.75 -42.85 16.6 -35.85 23.55 -28.85 23.6 -18.95 23.55 -9.1 17.05 -4.6 10.5 -0.1 0.4 0.0 -9.7 0.05 -16.65 -4.5 -23.6 -9.1 -23.6 -18.95 Z" fill="none" stroke="#8f7c3f" stroke-linecap="round" stroke-linejoin="round" stroke-width="1.0"/>
    <path d="M-16.7 -25.6 Q-16.7 -31.7 -11.8 -36.0 -6.9 -40.4 0.05 -40.4 7.05 -40.4 11.95 -36.0 16.9 -31.7 16.9 -25.6 16.9 -19.5 12.25 -16.7 7.6 -13.95 0.35 -13.85 -6.85 -13.8 -11.8 -16.65 -16.7 -19.45 -16.7 -25.6" fill="#ffffff" fill-rule="evenodd" stroke="none"/>
    <path d="M-16.7 -25.6 Q-16.7 -31.7 -11.8 -36.0 -6.9 -40.4 0.05 -40.4 7.05 -40.4 11.95 -36.0 16.9 -31.7 16.9 -25.6 16.9 -19.5 12.25 -16.7 7.6 -13.95 0.35 -13.85 -6.85 -13.8 -11.8 -16.65 -16.7 -19.45 -16.7 -25.6 Z" fill="none" stroke="#8f7c3f" stroke-linecap="round" stroke-linejoin="round" stroke-width="0.75"/>
    <path d="M-6.85 -33.25 Q-4.65 -33.25 -3.15 -31.35 -1.6 -29.45 -1.6 -26.85 -1.6 -24.2 -3.15 -22.3 -4.65 -20.45 -6.85 -20.45 -9.05 -20.45 -10.6 -22.3 -12.1 -24.2 -12.1 -26.85 -12.1 -29.45 -10.6 -31.35 -9.05 -33.25 -6.85 -33.25" fill="#ffffff" fill-rule="evenodd" stroke="none"/>
    <path d="M-6.85 -33.25 Q-4.65 -33.25 -3.15 -31.35 -1.6 -29.45 -1.6 -26.85 -1.6 -24.2 -3.15 -22.3 -4.65 -20.45 -6.85 -20.45 -9.05 -20.45 -10.6 -22.3 -12.1 -24.2 -12.1 -26.85 -12.1 -29.45 -10.6 -31.35 -9.05 -33.25 -6.85 -33.25 Z" fill="none" stroke="#8f7c3f" stroke-linecap="round" stroke-linejoin="round" stroke-width="0.75"/>
    <path d="M-5.65 -32.4 Q-4.35 -32.4 -3.45 -31.3 -2.5 -30.2 -2.5 -28.65 -2.5 -27.1 -3.45 -25.95 -4.35 -24.85 -5.65 -24.85 -6.95 -24.85 -7.85 -25.95 -8.75 -27.1 -8.75 -28.65 -8.75 -30.2 -7.85 -31.3 -6.95 -32.4 -5.65 -32.4" fill="#8f7c3f" fill-rule="evenodd" stroke="none"/>
    <path d="M-5.65 -32.4 Q-4.35 -32.4 -3.45 -31.3 -2.5 -30.2 -2.5 -28.65 -2.5 -27.1 -3.45 -25.95 -4.35 -24.85 -5.65 -24.85 -6.95 -24.85 -7.85 -25.95 -8.75 -27.1 -8.75 -28.65 -8.75 -30.2 -7.85 -31.3 -6.95 -32.4 -5.65 -32.4 Z" fill="none" stroke="#8f7c3f" stroke-linecap="round" stroke-linejoin="round" stroke-width="0.75"/>
    <path d="M20.5 -19.2 L20.2 -18.0 19.85 -17.6 19.6 -17.35 Q18.8 -16.45 17.15 -15.9 15.3 -15.2 13.25 -15.1 L11.75 -15.05 7.25 -15.1 6.85 -15.15 4.05 -15.65 3.85 -15.7 2.2 -16.4 1.7 -16.8 1.65 -16.95 Q1.5 -17.35 1.95 -17.65 L2.55 -18.15 3.8 -19.05 4.95 -19.5 8.0 -19.85 10.05 -19.75 10.45 -19.7 13.15 -18.75 13.4 -18.65 13.85 -18.45 14.35 -18.25 Q15.75 -17.6 17.2 -17.85 L19.05 -18.25 19.5 -18.4 20.05 -18.95 20.25 -19.1 20.5 -19.2" fill="#8f7c3f" fill-rule="evenodd" stroke="none"/>
    <path d="M20.5 -19.2 L20.2 -18.0 19.85 -17.6 19.6 -17.35 Q18.8 -16.45 17.15 -15.9 15.3 -15.2 13.25 -15.1 L11.75 -15.05 7.25 -15.1 6.85 -15.15 4.05 -15.65 3.85 -15.7 2.2 -16.4 1.7 -16.8 1.65 -16.95 Q1.5 -17.35 1.95 -17.65 L2.55 -18.15 3.8 -19.05 4.95 -19.5 8.0 -19.85 10.05 -19.75 10.45 -19.7 13.15 -18.75 13.4 -18.65 13.85 -18.45 14.35 -18.25 Q15.75 -17.6 17.2 -17.85 L19.05 -18.25 19.5 -18.4 20.05 -18.95 20.25 -19.1 20.5 -19.2 20.6 -19.5" fill="none" stroke="#8f7c3f" stroke-linecap="round" stroke-linejoin="round" stroke-width="0.75"/>
    <path d="M-18.45 -18.9 L-18.15 -17.7 -17.8 -17.3 -17.55 -17.05 Q-16.75 -16.15 -15.1 -15.6 -13.25 -14.9 -11.2 -14.8 L-9.7 -14.75 -5.2 -14.8 -4.8 -14.85 -2.0 -15.35 -1.8 -15.4 Q-1.05 -15.85 -0.15 -16.1 L0.35 -16.5 0.4 -16.65 Q0.55 -17.05 0.1 -17.35 L-0.5 -17.85 -1.75 -18.75 -2.9 -19.2 -5.95 -19.55 -8.0 -19.45 -8.4 -19.4 Q-9.75 -19.1 -11.1 -18.45 L-11.35 -18.35 -11.8 -18.15 -12.3 -17.95 Q-13.7 -17.3 -15.15 -17.55 L-17.0 -17.95 -17.45 -18.1 -18.0 -18.65 -18.2 -18.8 -18.45 -18.9" fill="#8f7c3f" fill-rule="evenodd" stroke="none"/>
    <path d="M-18.45 -18.9 L-18.15 -17.7 -17.8 -17.3 -17.55 -17.05 Q-16.75 -16.15 -15.1 -15.6 -13.25 -14.9 -11.2 -14.8 L-9.7 -14.75 -5.2 -14.8 -4.8 -14.85 -2.0 -15.35 -1.8 -15.4 Q-1.05 -15.85 -0.15 -16.1 L0.35 -16.5 0.4 -16.65 Q0.55 -17.05 0.1 -17.35 L-0.5 -17.85 -1.75 -18.75 -2.9 -19.2 -5.95 -19.55 -8.0 -19.45 -8.4 -19.4 Q-9.75 -19.1 -11.1 -18.45 L-11.35 -18.35 -11.8 -18.15 -12.3 -17.95 Q-13.7 -17.3 -15.15 -17.55 L-17.0 -17.95 -17.45 -18.1 -18.0 -18.65 -18.2 -18.8 -18.45 -18.9 -18.55 -19.2" fill="none" stroke="#8f7c3f" stroke-linecap="round" stroke-linejoin="round" stroke-width="0.75"/>
    <path d="M7.3 -34.05 Q9.5 -34.05 11.0 -32.15 12.55 -30.25 12.55 -27.65 12.55 -25.0 11.0 -23.1 9.5 -21.25 7.3 -21.25 5.1 -21.25 3.55 -23.1 2.05 -25.0 2.05 -27.65 2.05 -30.25 3.55 -32.15 5.1 -34.05 7.3 -34.05" fill="#ffffff" fill-rule="evenodd" stroke="none"/>
    <path d="M7.3 -34.05 Q9.5 -34.05 11.0 -32.15 12.55 -30.25 12.55 -27.65 12.55 -25.0 11.0 -23.1 9.5 -21.25 7.3 -21.25 5.1 -21.25 3.55 -23.1 2.05 -25.0 2.05 -27.65 2.05 -30.25 3.55 -32.15 5.1 -34.05 7.3 -34.05 Z" fill="none" stroke="#8f7c3f" stroke-linecap="round" stroke-linejoin="round" stroke-width="0.75"/>
  </g>
</svg>
