<?xml version="1.0" encoding="UTF-8" standalone="no"?>
<!DOCTYPE svg PUBLIC "-//W3C//DTD SVG 1.1//EN" "http://www.w3.org/Graphics/SVG/1.1/DTD/svg11.dtd">
<svg width="44px" height="35px" version="1.1" xmlns="http://www.w3.org/2000/svg" xmlns:xlink="http://www.w3.org/1999/xlink" xml:space="preserve" xmlns:serif="http://www.serif.com/" style="fill-rule:evenodd;clip-rule:evenodd;stroke-linejoin:round;stroke-miterlimit:2;">
    <g transform="matrix(0.623786,0,0,0.623786,-48.8895,-101.204)">
        <path d="M97.705,194.021C98.226,193.527 98.488,192.819 98.413,192.106C98.339,191.392 97.936,190.753 97.325,190.378C92.493,187.443 89.428,183.088 89.428,178.229C89.428,169.405 99.536,162.241 111.985,162.241C124.434,162.241 134.541,169.405 134.541,178.229C134.541,182.305 132.385,186.027 128.836,188.852C126.144,190.992 125.511,194.823 127.371,197.715C129.219,200.597 130.277,204.01 130.277,207.664L130.277,207.667C130.276,213.567 125.493,218.35 119.593,218.35L97.938,218.35C96.019,218.35 94.269,217.252 93.435,215.525C92.394,213.107 91.777,210.456 91.777,207.664C91.777,202.305 94.052,197.463 97.705,194.021Z" style="fill:white;"/>
    </g>
    <g transform="matrix(0.623786,0,0,0.623786,-46.2971,-48.2969)">
        <path d="M89.655,113.537C85.133,120.06 84.894,126.583 89.67,133.107C90.011,133.572 90.665,133.673 91.13,133.332C91.596,132.992 91.697,132.338 91.356,131.872C87.172,126.157 87.41,120.442 91.372,114.727C91.7,114.253 91.582,113.602 91.108,113.273C90.635,112.945 89.983,113.063 89.655,113.537ZM123.066,130.303C123.28,130.663 123.572,130.79 123.887,130.772C124.186,130.754 124.47,130.598 124.669,130.21C124.671,130.206 124.673,130.202 124.675,130.198C125.181,129.153 125.919,127.577 126.888,125.47C126.889,125.469 126.889,125.468 126.89,125.467C127.385,124.373 127.715,123.692 127.884,123.43C127.918,123.377 127.974,123.317 128.003,123.287C128.011,123.295 128.018,123.306 128.028,123.315C128.062,123.345 128.095,123.382 128.128,123.424C128.31,123.659 128.706,124.298 129.32,125.339C129.321,125.34 129.321,125.34 129.322,125.341C131.007,128.167 132.483,130.571 133.75,132.553C133.978,132.978 134.306,133.093 134.646,133.033C134.918,132.984 135.173,132.818 135.357,132.47L135.454,132.297C135.582,132.049 135.642,131.751 135.617,131.402C135.592,131.064 135.503,130.788 135.367,130.57C135.366,130.568 135.365,130.566 135.364,130.564C134.092,128.573 132.725,126.348 131.265,123.888C131.265,123.888 131.264,123.887 131.264,123.886C130.327,122.324 129.716,121.37 129.436,121.022C129.044,120.535 128.565,120.305 128.014,120.305C127.424,120.305 126.926,120.566 126.538,121.12C126.26,121.518 125.751,122.509 125.019,124.098C125.019,124.099 125.018,124.099 125.018,124.1C124.336,125.592 123.637,127.061 122.92,128.507C122.797,128.747 122.735,129.038 122.754,129.375C122.773,129.708 122.86,129.983 122.998,130.205L123.066,130.303ZM106.686,130.303C106.9,130.663 107.192,130.79 107.507,130.772C107.806,130.754 108.09,130.598 108.289,130.21C108.291,130.206 108.293,130.202 108.295,130.198C108.801,129.153 109.539,127.577 110.508,125.47C110.509,125.469 110.509,125.468 110.51,125.467C111.005,124.373 111.335,123.692 111.504,123.43C111.538,123.377 111.594,123.317 111.623,123.287C111.631,123.295 111.638,123.306 111.648,123.315C111.682,123.345 111.714,123.382 111.748,123.424C111.93,123.659 112.326,124.298 112.94,125.339C112.941,125.34 112.941,125.34 112.942,125.341C114.627,128.167 116.103,130.571 117.37,132.553C117.598,132.978 117.926,133.093 118.266,133.033C118.538,132.984 118.793,132.818 118.977,132.47L119.074,132.297C119.202,132.049 119.262,131.751 119.237,131.402C119.212,131.064 119.123,130.788 118.987,130.57C118.986,130.568 118.985,130.566 118.984,130.564C117.712,128.573 116.345,126.348 114.885,123.888C114.885,123.888 114.884,123.887 114.884,123.886C113.947,122.324 113.336,121.37 113.055,121.022C112.663,120.535 112.185,120.305 111.634,120.305C111.044,120.305 110.546,120.566 110.158,121.12C109.88,121.518 109.371,122.509 108.639,124.098C108.639,124.099 108.638,124.099 108.638,124.1C107.956,125.592 107.256,127.061 106.54,128.507C106.417,128.747 106.355,129.038 106.374,129.375C106.393,129.708 106.479,129.983 106.617,130.205L106.686,130.303ZM81.772,115.989C80.912,121.748 79.362,125.555 75.52,129.68C75.088,130.144 75.114,130.871 75.578,131.304C76.042,131.736 76.77,131.71 77.202,131.246C81.391,126.748 83.107,122.608 84.045,116.328C84.139,115.701 83.706,115.116 83.078,115.022C82.451,114.928 81.866,115.362 81.772,115.989ZM88.019,84.105C83.497,90.628 83.258,97.151 88.035,103.674C88.375,104.14 89.03,104.241 89.495,103.9C89.96,103.56 90.061,102.905 89.72,102.44C85.536,96.725 85.774,91.01 89.736,85.295C90.065,84.821 89.947,84.17 89.473,83.841C88.999,83.513 88.347,83.631 88.019,84.105ZM125.692,85.295C129.654,91.01 129.893,96.725 125.708,102.44C125.367,102.905 125.469,103.56 125.934,103.9C126.399,104.241 127.053,104.14 127.394,103.674C132.17,97.151 131.931,90.628 127.409,84.105C127.081,83.631 126.43,83.513 125.956,83.841C125.482,84.17 125.364,84.821 125.692,85.295ZM102.072,98.304L109.874,98.304L111.426,102.202C111.653,102.772 112.299,103.051 112.869,102.824C113.439,102.597 113.717,101.951 113.49,101.381L107.005,85.086C106.837,84.663 106.428,84.385 105.973,84.385C105.518,84.385 105.109,84.663 104.941,85.086L98.456,101.381C98.229,101.95 98.507,102.597 99.077,102.824C99.647,103.051 100.294,102.772 100.52,102.202L102.072,98.304ZM141.478,86.827C140.618,92.585 139.068,96.393 135.226,100.517C134.794,100.982 134.82,101.709 135.284,102.142C135.748,102.574 136.476,102.548 136.908,102.084C141.097,97.586 142.813,93.446 143.751,87.166C143.845,86.539 143.412,85.954 142.784,85.86C142.157,85.766 141.572,86.2 141.478,86.827ZM102.956,96.082L108.99,96.082L105.973,88.501L102.956,96.082ZM94.003,85.497L94.003,88.497C94.003,89.11 94.501,89.608 95.114,89.608C95.727,89.608 96.225,89.11 96.225,88.497L96.225,85.497C96.225,84.883 95.727,84.385 95.114,84.385C94.501,84.385 94.003,84.883 94.003,85.497ZM116.68,84.235L119.104,86.717C119.532,87.156 120.236,87.164 120.675,86.736C121.114,86.308 121.122,85.604 120.694,85.165L118.27,82.682C117.842,82.243 117.138,82.235 116.699,82.663C116.26,83.092 116.252,83.796 116.68,84.235Z"/>
    </g>
</svg>
