<?xml version="1.0" encoding="UTF-8" standalone="no"?>
<!DOCTYPE svg PUBLIC "-//W3C//DTD SVG 1.1//EN" "http://www.w3.org/Graphics/SVG/1.1/DTD/svg11.dtd">
<svg width="38px" height="35px" version="1.1" xmlns="http://www.w3.org/2000/svg" xmlns:xlink="http://www.w3.org/1999/xlink" xml:space="preserve" xmlns:serif="http://www.serif.com/" style="fill-rule:evenodd;clip-rule:evenodd;stroke-linejoin:round;stroke-miterlimit:2;">
    <g transform="matrix(0.623786,0,0,0.623786,-49.4314,-101.204)">
        <path d="M97.705,194.021C98.226,193.527 98.488,192.819 98.413,192.106C98.339,191.392 97.936,190.753 97.325,190.378C92.493,187.443 89.428,183.088 89.428,178.229C89.428,169.405 99.536,162.241 111.985,162.241C124.434,162.241 134.541,169.405 134.541,178.229C134.541,182.305 132.385,186.027 128.836,188.852C126.144,190.992 125.511,194.823 127.371,197.715C129.219,200.597 130.277,204.01 130.277,207.664L130.277,207.667C130.276,213.567 125.493,218.35 119.593,218.35L97.938,218.35C96.019,218.35 94.269,217.252 93.435,215.525C92.394,213.107 91.777,210.456 91.777,207.664C91.777,202.305 94.052,197.463 97.705,194.021Z" style="fill:white;"/>
    </g>
    <g transform="matrix(0.623786,0,0,0.623786,-49.4314,-101.204)">
        <path d="M93.941,198.352C89.419,204.876 89.18,211.399 93.956,217.922C94.297,218.387 94.951,218.488 95.416,218.148C95.882,217.807 95.983,217.153 95.642,216.688C91.458,210.973 91.696,205.258 95.658,199.543C95.986,199.069 95.868,198.417 95.394,198.089C94.921,197.76 94.269,197.878 93.941,198.352ZM127.352,215.119C127.566,215.478 127.858,215.606 128.173,215.587C128.472,215.57 128.756,215.413 128.955,215.026C128.957,215.022 128.959,215.018 128.961,215.014C129.467,213.968 130.205,212.392 131.174,210.286C131.175,210.285 131.175,210.284 131.176,210.283C131.671,209.188 132.001,208.508 132.17,208.245C132.204,208.193 132.26,208.133 132.289,208.103C132.297,208.111 132.304,208.122 132.314,208.13C132.348,208.16 132.381,208.197 132.414,208.24C132.596,208.475 132.992,209.114 133.606,210.154C133.607,210.155 133.607,210.156 133.608,210.157C135.293,212.983 136.769,215.387 138.036,217.369C138.264,217.793 138.592,217.908 138.932,217.848C139.204,217.8 139.459,217.634 139.643,217.285L139.74,217.113C139.868,216.864 139.928,216.567 139.903,216.217C139.878,215.879 139.789,215.604 139.653,215.385C139.652,215.384 139.651,215.382 139.65,215.38C138.378,213.388 137.011,211.163 135.551,208.704C135.551,208.703 135.55,208.703 135.55,208.702C134.613,207.139 134.002,206.186 133.722,205.838C133.33,205.351 132.851,205.12 132.3,205.12C131.71,205.12 131.212,205.382 130.824,205.936C130.546,206.333 130.037,207.324 129.305,208.914L129.304,208.915C128.622,210.407 127.922,211.876 127.206,213.323C127.083,213.563 127.021,213.853 127.04,214.191C127.059,214.523 127.145,214.798 127.284,215.02L127.303,215.05L127.352,215.119ZM110.972,215.119C111.186,215.478 111.478,215.606 111.793,215.587C112.092,215.57 112.376,215.413 112.575,215.026C112.577,215.022 112.579,215.018 112.581,215.014C113.087,213.968 113.825,212.392 114.794,210.286C114.795,210.285 114.795,210.284 114.796,210.283C115.291,209.188 115.621,208.508 115.79,208.245C115.824,208.193 115.88,208.133 115.909,208.103C115.917,208.111 115.924,208.122 115.934,208.13C115.967,208.16 116,208.197 116.034,208.24C116.216,208.475 116.612,209.114 117.226,210.154C117.227,210.155 117.227,210.156 117.227,210.157C118.913,212.983 120.389,215.387 121.656,217.369C121.884,217.793 122.212,217.908 122.552,217.848C122.824,217.8 123.079,217.634 123.263,217.285L123.36,217.113C123.488,216.864 123.548,216.567 123.523,216.217C123.498,215.879 123.409,215.604 123.273,215.385C123.272,215.384 123.271,215.382 123.27,215.38C121.997,213.388 120.631,211.163 119.171,208.704C119.171,208.703 119.17,208.703 119.17,208.702C118.233,207.139 117.622,206.186 117.341,205.838C116.949,205.351 116.471,205.12 115.92,205.12C115.329,205.12 114.832,205.382 114.444,205.936C114.166,206.333 113.657,207.324 112.925,208.914C112.924,208.914 112.924,208.915 112.924,208.915C112.242,210.407 111.542,211.876 110.826,213.323C110.702,213.563 110.641,213.853 110.66,214.191C110.679,214.523 110.765,214.798 110.903,215.02L111.375,215.282L110.923,215.05L110.972,215.119ZM86.058,200.804C85.198,206.563 83.648,210.37 79.806,214.495C79.374,214.959 79.4,215.687 79.864,216.119C80.328,216.551 81.056,216.526 81.488,216.061C85.677,211.563 87.393,207.424 88.331,201.144C88.425,200.517 87.992,199.931 87.364,199.838C86.737,199.744 86.152,200.177 86.058,200.804ZM92.305,168.92C87.783,175.443 87.544,181.967 92.321,188.49C92.661,188.955 93.315,189.056 93.781,188.716C94.246,188.375 94.347,187.721 94.006,187.256C89.822,181.541 90.06,175.826 94.022,170.11C94.351,169.637 94.232,168.985 93.759,168.657C93.285,168.328 92.633,168.446 92.305,168.92ZM129.978,170.11C133.94,175.826 134.179,181.541 129.994,187.256C129.653,187.721 129.755,188.375 130.22,188.716C130.685,189.056 131.339,188.955 131.68,188.49C136.456,181.967 136.217,175.443 131.695,168.92C131.367,168.446 130.716,168.328 130.242,168.657C129.768,168.985 129.65,169.637 129.978,170.11ZM106.358,183.12L114.16,183.12L115.712,187.018C115.939,187.588 116.585,187.866 117.155,187.639C117.725,187.412 118.003,186.766 117.776,186.196L111.291,169.901C111.123,169.478 110.714,169.201 110.259,169.201C109.804,169.201 109.395,169.478 109.227,169.901L102.742,186.196C102.515,186.766 102.793,187.413 103.363,187.639C103.933,187.866 104.58,187.588 104.806,187.018L106.358,183.12ZM107.242,180.897L113.276,180.897L110.259,173.317L107.242,180.897ZM98.289,170.312L98.289,173.312C98.289,173.925 98.787,174.423 99.4,174.423C100.013,174.423 100.511,173.925 100.511,173.312L100.511,170.312C100.511,169.699 100.013,169.201 99.4,169.201C98.787,169.201 98.289,169.699 98.289,170.312ZM120.966,169.05L123.389,171.533C123.818,171.972 124.522,171.98 124.961,171.552C125.4,171.123 125.408,170.419 124.98,169.98L122.556,167.498C122.128,167.059 121.424,167.051 120.985,167.479C120.546,167.907 120.538,168.611 120.966,169.05Z"/>
    </g>
</svg>
