<?xml version="1.0" encoding="UTF-8" standalone="no"?>
<!DOCTYPE svg PUBLIC "-//W3C//DTD SVG 1.1//EN" "http://www.w3.org/Graphics/SVG/1.1/DTD/svg11.dtd">
<svg width="76px" height="68px" version="1.1" xmlns="http://www.w3.org/2000/svg" xmlns:xlink="http://www.w3.org/1999/xlink" xml:space="preserve" xmlns:serif="http://www.serif.com/" style="fill-rule:evenodd;clip-rule:evenodd;stroke-linejoin:round;stroke-miterlimit:2;">
    <g transform="matrix(0.611329,0,0,0.611329,-46.8365,-50.2888)">
        <path d="M176.726,130.912C182.039,127.562 186.228,118.477 175.167,107.986C175.121,107.943 175.018,107.893 174.942,107.847C170.262,101.855 170.735,94.846 175.167,88.854C176.951,87.061 178.286,87.213 179.172,89.311L185.615,106.218L192.507,89.311C193.46,87.615 194.778,87.257 196.629,88.854C201.061,94.846 201.086,101.855 196.405,107.847C192.298,112.406 190.652,115.799 191.095,118.202C190.506,126.427 188.158,131.314 181.376,135.446C178.969,136.913 177.56,137.818 172.83,138.456C169.416,141.631 166.686,142.476 162.191,143.774C159.979,144.413 158.669,145.244 157.943,146.823C157.943,146.823 147.722,163.401 144.006,169.562C143.101,171.062 141.477,171.979 139.725,171.979L113.393,171.979C111.592,171.979 109.93,171.011 109.042,169.443C108.155,167.876 108.179,165.952 109.105,164.408C109.105,164.408 115.036,154.521 117.782,149.942C118.972,147.958 119.181,145.535 118.346,143.376C117.032,139.979 114.06,136.27 108.615,132.113C106.095,129.393 101.522,125.424 97.615,122.805C92.293,119 86.948,115.032 81.143,107.847C76.462,101.855 76.936,94.846 81.367,88.854C83.423,87.205 85.012,87.068 85.87,89.311L92.313,106.218L99.205,89.311C100.496,87.045 101.788,87.228 103.079,88.854C107.51,94.846 105.694,100.794 102.854,107.847C101.376,111.518 100.548,113.177 104.782,118.202C107.598,121.546 111.414,123.684 114.467,126.045C114.712,123.471 115.786,120.854 117.747,118.025C114.344,117.412 109.986,113.866 112.452,107.847L121.081,90.717L130.081,109.717C135.845,108.783 141.734,108.659 147.805,109.717L156.805,90.717L164.919,107.847C169.188,112.098 172.212,115.227 173.416,116.72C176.695,121.45 177.883,126.181 176.726,130.912Z" style="fill:white;"/>
    </g>
    <g transform="matrix(0.611329,0,0,0.611329,-29.2119,-65.5951)">
        <path d="M76.69,199.802C76.14,207.499 73.979,212.094 67.634,215.96C66.98,216.358 66.772,217.213 67.171,217.867C67.569,218.521 68.423,218.728 69.077,218.33C76.294,213.933 78.832,208.753 79.458,200C79.513,199.236 78.937,198.572 78.173,198.517C77.41,198.463 76.745,199.038 76.69,199.802ZM111.962,201.929C113.016,206.22 115.283,210.072 119.017,213.103C116.918,213.453 114.803,214.05 112.906,214.702C112.144,214.964 111.738,215.795 111.999,216.557C112.261,217.319 113.092,217.725 113.854,217.464C116.784,216.457 120.285,215.552 123.299,215.721C123.98,215.759 124.597,215.319 124.784,214.663C124.971,214.006 124.678,213.308 124.079,212.981C118.925,210.169 115.975,206.026 114.798,201.233C114.606,200.45 113.814,199.971 113.032,200.163C112.249,200.355 111.77,201.146 111.962,201.929ZM83.622,198.406L109.33,198.406C110.096,198.406 110.719,197.784 110.719,197.017C110.719,196.251 110.096,195.628 109.33,195.628L83.622,195.628C82.855,195.628 82.233,196.251 82.233,197.017C82.233,197.784 82.855,198.406 83.622,198.406ZM89.407,172.064L78.34,190.615C78.027,191.141 78.199,191.823 78.725,192.137C79.251,192.45 79.933,192.278 80.247,191.752L91.313,173.201C91.627,172.675 91.454,171.994 90.928,171.68C90.402,171.366 89.721,171.538 89.407,172.064ZM127.474,172.064L116.408,190.615C116.094,191.141 116.266,191.823 116.792,192.137C117.318,192.45 118,192.278 118.314,191.752L129.38,173.201C129.694,172.675 129.522,171.994 128.996,171.68C128.47,171.366 127.788,171.538 127.474,172.064ZM88.569,140.926C83.325,148.49 83.052,156.055 88.591,163.62C89.067,164.27 89.981,164.411 90.631,163.935C91.281,163.459 91.423,162.545 90.947,161.895C86.235,155.46 86.508,149.024 90.969,142.589C91.428,141.927 91.263,141.017 90.601,140.557C89.938,140.098 89.028,140.263 88.569,140.926ZM143.386,142.589C147.847,149.024 148.12,155.46 143.408,161.895C142.932,162.545 143.073,163.459 143.724,163.935C144.374,164.411 145.288,164.27 145.764,163.62C151.303,156.055 151.029,148.49 145.786,140.926C145.327,140.263 144.417,140.098 143.754,140.557C143.092,141.017 142.927,141.927 143.386,142.589ZM123.959,146.701C124.763,146.561 125.359,146.828 125.754,147.485L125.754,147.486C126.987,149.559 127.607,152.005 127.607,154.824C127.607,157.137 127.075,158.948 126.032,160.266C124.962,161.617 123.628,162.289 122.033,162.289C121.048,162.289 120.215,162.045 119.53,161.566C118.734,161.009 118.134,160.129 117.745,158.917C117.357,160.129 116.757,161.009 115.961,161.566C115.275,162.045 114.442,162.289 113.458,162.289C111.863,162.289 110.528,161.617 109.458,160.266C108.416,158.948 107.884,157.137 107.884,154.824C107.884,151.985 108.504,149.54 109.737,147.485C110.133,146.825 110.732,146.559 111.541,146.703L111.618,146.707C111.97,146.762 112.216,146.958 112.352,147.297C112.481,147.62 112.463,147.923 112.308,148.208C112.307,148.209 112.307,148.211 112.306,148.212C111.199,150.158 110.639,152.344 110.621,154.771C110.621,156.428 110.924,157.717 111.552,158.633C112.141,159.492 112.843,159.935 113.677,159.935C114.57,159.935 115.222,159.388 115.669,158.339C116.164,157.174 116.404,155.427 116.404,153.098L116.404,149.783C116.404,149.422 116.531,149.116 116.784,148.863C117.037,148.61 117.343,148.483 117.704,148.483L117.704,148.485L117.786,148.483C118.145,148.483 118.45,148.605 118.701,148.844C118.955,149.085 119.086,149.397 119.086,149.783L119.086,153.098C119.086,155.427 119.326,157.174 119.822,158.339C120.268,159.388 120.921,159.935 121.814,159.935C122.647,159.935 123.35,159.492 123.938,158.633C124.567,157.717 124.87,156.427 124.87,154.77C124.87,152.344 124.31,150.159 123.186,148.214C123.185,148.212 123.183,148.21 123.182,148.208C123.029,147.927 123.006,147.627 123.121,147.307C123.24,146.979 123.474,146.778 123.831,146.714C123.866,146.705 123.944,146.701 123.959,146.701ZM162.274,141.853L162.265,141.853C161.544,141.851 160.933,142.41 160.88,143.141C160.33,150.838 158.169,155.433 151.824,159.299C151.17,159.697 150.962,160.552 151.361,161.206C151.622,161.635 152.08,161.872 152.549,161.871L152.557,161.871C152.8,161.87 153.045,161.804 153.267,161.669C160.484,157.272 163.022,152.092 163.648,143.339C163.703,142.575 163.127,141.911 162.363,141.856C162.333,141.854 162.304,141.853 162.274,141.853ZM68.798,146.455L68.79,146.455C68.341,146.454 67.9,146.67 67.632,147.07C67.206,147.706 67.376,148.569 68.012,148.996C71.831,151.556 76.304,155.434 78.767,158.093C79.039,158.388 79.41,158.537 79.782,158.538L79.79,158.538C80.126,158.537 80.462,158.415 80.728,158.169C81.29,157.648 81.323,156.77 80.803,156.208C78.228,153.426 73.552,149.368 69.558,146.69C69.324,146.534 69.06,146.457 68.798,146.455ZM98.079,148.901C99.358,148.901 100.396,149.94 100.396,151.219C100.396,152.498 99.358,153.536 98.079,153.536C96.8,153.536 95.761,152.498 95.761,151.219C95.761,149.94 96.8,148.901 98.079,148.901ZM136.892,148.901C138.171,148.901 139.21,149.94 139.21,151.219C139.21,152.498 138.171,153.536 136.892,153.536C135.613,153.536 134.574,152.498 134.574,151.219C134.574,149.94 135.613,148.901 136.892,148.901ZM120.29,135.38L127.97,119.165L135.651,135.38C135.996,136.108 136.867,136.419 137.595,136.074C138.323,135.729 138.635,134.858 138.29,134.13L129.29,115.13C129.048,114.62 128.534,114.295 127.97,114.295C127.406,114.295 126.892,114.62 126.651,115.13L117.651,134.13C117.306,134.858 117.617,135.729 118.345,136.074C119.073,136.419 119.945,136.108 120.29,135.38ZM84.57,135.38L92.25,119.165L99.931,135.38C100.276,136.108 101.147,136.419 101.875,136.074C102.603,135.729 102.915,134.858 102.57,134.13L93.57,115.13C93.328,114.62 92.814,114.295 92.25,114.295C91.686,114.295 91.172,114.62 90.931,115.13L81.931,134.13C81.586,134.858 81.897,135.729 82.625,136.074C83.353,136.419 84.225,136.108 84.57,135.38ZM106.885,135.987L114.327,135.987C115.093,135.987 115.715,135.365 115.715,134.598C115.715,133.832 115.093,133.21 114.327,133.21L106.885,133.21C106.119,133.21 105.497,133.832 105.497,134.598C105.497,135.365 106.119,135.987 106.885,135.987ZM73.131,115.57C75.189,118.353 76.302,121.126 76.331,123.909C76.359,126.676 75.311,129.434 73.149,132.201C72.772,132.684 72.858,133.383 73.341,133.76C73.824,134.137 74.523,134.052 74.9,133.568C77.419,130.344 78.585,127.11 78.552,123.886C78.519,120.677 77.291,117.458 74.918,114.249C74.553,113.756 73.857,113.652 73.364,114.017C72.871,114.381 72.767,115.077 73.131,115.57ZM166.682,115.57C168.74,118.353 169.853,121.126 169.882,123.909C169.91,126.676 168.862,129.434 166.7,132.201C166.323,132.684 166.409,133.383 166.892,133.76C167.375,134.137 168.074,134.052 168.451,133.568C170.97,130.344 172.136,127.11 172.103,123.886C172.07,120.677 170.842,117.458 168.469,114.249C168.104,113.756 167.408,113.652 166.915,114.017C166.422,114.381 166.318,115.077 166.682,115.57ZM51.42,114.249C49.047,117.458 47.819,120.677 47.785,123.886C47.752,127.11 48.919,130.344 51.438,133.568C51.815,134.052 52.513,134.137 52.997,133.76C53.48,133.383 53.566,132.684 53.188,132.201C51.027,129.434 49.978,126.676 50.007,123.909C50.036,121.126 51.148,118.353 53.206,115.57C53.57,115.077 53.466,114.381 52.973,114.017C52.48,113.652 51.784,113.756 51.42,114.249ZM145.22,114.249C142.847,117.458 141.619,120.677 141.585,123.886C141.552,127.11 142.719,130.344 145.237,133.568C145.615,134.052 146.313,134.137 146.796,133.76C147.28,133.383 147.365,132.684 146.988,132.201C144.826,129.434 143.778,126.676 143.807,123.909C143.836,121.126 144.948,118.353 147.006,115.57C147.37,115.077 147.266,114.381 146.773,114.017C146.28,113.652 145.584,113.756 145.22,114.249ZM148.77,115.932L155.438,131.821C155.666,132.364 156.197,132.718 156.786,132.718C157.374,132.718 157.905,132.364 158.133,131.821L164.801,115.932C165.113,115.188 164.762,114.33 164.018,114.018C163.275,113.706 162.417,114.057 162.105,114.801L156.786,127.479L151.466,114.801C151.154,114.057 150.296,113.706 149.553,114.018C148.809,114.33 148.458,115.188 148.77,115.932ZM55.468,115.932L62.136,131.821C62.364,132.364 62.895,132.718 63.484,132.718C64.072,132.718 64.603,132.364 64.831,131.821L71.499,115.932C71.811,115.188 71.46,114.33 70.716,114.018C69.973,113.706 69.115,114.057 68.803,114.801L63.484,127.479L58.164,114.801C57.852,114.057 56.994,113.706 56.251,114.018C55.507,114.33 55.156,115.188 55.468,115.932Z"/>
    </g>
</svg>
