<?xml version="1.0" encoding="UTF-8" standalone="no"?>
<svg xmlns:xlink="http://www.w3.org/1999/xlink" height="40.95px" width="29.45px" xmlns="http://www.w3.org/2000/svg">
  <g transform="matrix(1.0, 0.0, 0.0, 1.0, 21.65, 8.4)">
    <path d="M-2.25 25.7 L-6.6 26.45 Q-10.8 27.15 -13.9 25.3 -17.05 23.4 -19.45 23.05 -21.85 22.7 -20.9 21.7 -18.6 19.25 -15.65 18.05 -12.8 16.9 -10.05 15.1 -8.05 13.25 -4.65 14.3 -3.4 14.75 -1.65 15.75 L0.35 17.1 Q1.2 18.25 4.95 20.95 8.65 23.65 6.45 24.25 L1.1 25.25 -2.25 25.7" fill="#ffffff" fill-rule="evenodd" stroke="none"/>
    <path d="M-2.25 25.7 L1.1 25.25 6.45 24.25 Q8.65 23.65 4.95 20.95 1.2 18.25 0.35 17.1 L-1.65 15.75 Q-3.4 14.75 -4.65 14.3 -8.05 13.25 -10.05 15.1 -12.8 16.9 -15.65 18.05 -18.6 19.25 -20.9 21.7 -21.85 22.7 -19.45 23.05 -17.05 23.4 -13.9 25.3 -10.8 27.15 -6.6 26.45 L-2.25 25.7 Z" fill="none" stroke="#8f7c3f" stroke-linecap="round" stroke-linejoin="round" stroke-width="1.0"/>
    <path d="M-5.4 15.3 L-4.7 15.9 Q-3.3 17.3 -2.2 19.0 L-0.05 22.25 Q0.8 23.55 0.8 24.9 0.8 26.8 -1.85 26.95 L-6.0 27.4 -10.15 27.95 Q-13.05 28.3 -12.9 26.05 -12.7 24.1 -12.0 22.2 -11.35 20.45 -10.2 18.8 L-8.15 15.9 -7.95 15.55 -7.6 15.3 -5.4 15.3" fill="#e2d5c0" fill-rule="evenodd" stroke="none"/>
    <path d="M-5.4 15.3 L-4.7 15.9 Q-3.3 17.3 -2.2 19.0 L-0.05 22.25 Q0.8 23.55 0.8 24.9 0.8 26.8 -1.85 26.95 L-6.0 27.4 -10.15 27.95 Q-13.05 28.3 -12.9 26.05 -12.7 24.1 -12.0 22.2 -11.35 20.45 -10.2 18.8 L-8.15 15.9 -7.95 15.55 -7.6 15.3" fill="none" stroke="#8f7c3f" stroke-linecap="round" stroke-linejoin="round" stroke-width="1.0"/>
    <path d="M-5.0 3.75 L-8.35 3.75 Q-6.8 2.4 -5.0 3.75" fill="#ffffff" fill-rule="evenodd" stroke="none"/>
    <path d="M-5.0 3.75 Q-6.8 2.4 -8.35 3.75" fill="none" stroke="#8f7c3f" stroke-linecap="round" stroke-linejoin="round" stroke-width="1.0"/>
    <path d="M-10.6 -4.75 Q-0.95 -6.25 4.6 0.45 10.7 7.85 3.05 13.3 -1.3 16.4 -10.2 15.85 -20.0 14.9 -20.7 5.8 L-20.75 5.25 Q-21.05 -2.45 -12.3 -4.45 L-10.6 -4.75" fill="#ffffff" fill-rule="evenodd" stroke="none"/>
    <path d="M-10.6 -4.75 Q-0.95 -6.25 4.6 0.45 10.7 7.85 3.05 13.3 -1.3 16.4 -10.2 15.85 -20.0 14.9 -20.7 5.8 L-20.75 5.25 Q-21.05 -2.45 -12.3 -4.45 L-10.6 -4.75 Z" fill="none" stroke="#8f7c3f" stroke-linecap="round" stroke-linejoin="round" stroke-width="1.0"/>
    <path d="M1.45 5.2 L2.4 4.55 M0.0 5.05 Q0.25 4.35 0.95 4.15 M-1.8 6.9 Q-2.8 8.0 -3.65 8.3 L-5.5 8.25 Q-6.4 7.85 -6.75 6.2 L-7.35 6.0 Q-8.0 5.65 -7.1 4.5 L-7.05 4.45 Q-5.85 5.6 -6.75 6.2 M-5.4 2.45 L-0.55 2.7 M-14.7 5.6 L-14.35 5.05 -13.6 4.8 M-16.55 5.3 Q-16.0 4.3 -15.1 4.2" fill="none" stroke="#8f7c3f" stroke-linecap="round" stroke-linejoin="round" stroke-width="1.0"/>
    <path d="M-7.15 6.45 Q-7.25 8.3 -8.6 8.6 -10.0 8.85 -10.35 7.75 L-10.75 6.45 M-8.6 2.45 L-13.3 2.65" fill="none" stroke="#8f7c3f" stroke-linecap="round" stroke-linejoin="round" stroke-width="1.0"/>
    <path d="M-8.45 0.1 L-9.25 -3.3 -12.25 -3.35 -9.5 -5.15 -10.3 -8.4 -7.1 -5.8 -4.05 -7.65 -5.45 -4.75 -3.2 -1.95 -6.75 -2.6 -8.45 0.1" fill="#8f7c3f" fill-rule="evenodd" stroke="none"/>
    <path d="M-9.3 20.25 Q-3.3 18.55 -6.9 24.5 M-4.15 20.4 Q-6.25 18.65 -3.55 19.15 -3.25 20.1 -4.15 20.4" fill="none" stroke="#8f7c3f" stroke-linecap="round" stroke-linejoin="round" stroke-width="0.5"/>
    <path d="M-1.3 31.8 L-3.0 31.7 Q-2.1 28.7 -1.3 31.8 M-7.2 31.4 L-7.15 31.55 Q-8.15 32.75 -9.95 30.95 -8.35 29.15 -7.2 31.4" fill="#8f7c3f" fill-rule="evenodd" stroke="none"/>
    <path d="M-1.3 31.8 L-3.0 31.7 Q-2.1 28.7 -1.3 31.8 M-7.2 31.4 L-7.3 27.05 M-7.2 31.4 L-7.15 31.55 Q-8.15 32.75 -9.95 30.95 -8.35 29.15 -7.2 31.4 M-4.25 26.4 Q-4.1 28.9 -3.1 30.9" fill="none" stroke="#8f7c3f" stroke-linecap="round" stroke-linejoin="round" stroke-width="1.0"/>
    <path d="M-11.35 15.15 Q-9.35 13.65 -7.6 15.95 -9.1 17.2 -11.35 15.15 M-1.15 14.3 Q-2.85 16.7 -5.65 15.95 -4.5 12.9 -1.15 14.3 M-5.95 15.7 Q-5.2 16.7 -6.45 16.75 L-7.4 16.45 Q-7.55 13.55 -5.95 15.7" fill="#ffffff" fill-rule="evenodd" stroke="none"/>
    <path d="M-11.35 15.15 Q-9.1 17.2 -7.6 15.95 -9.35 13.65 -11.35 15.15 M-1.15 14.3 Q-2.85 16.7 -5.65 15.95 -4.5 12.9 -1.15 14.3 M-5.95 15.7 Q-5.2 16.7 -6.45 16.75 L-7.4 16.45 Q-7.55 13.55 -5.95 15.7" fill="none" stroke="#8f7c3f" stroke-linecap="round" stroke-linejoin="round" stroke-width="1.0"/>
    <path d="M-11.35 21.95 Q-11.35 23.5 -12.45 23.55 -13.2 23.6 -13.45 23.0 -14.5 20.75 -11.35 21.95" fill="#fefefe" fill-rule="evenodd" stroke="none"/>
    <path d="M-11.35 21.95 Q-11.9 21.5 -12.25 20.55 L-13.2 18.6 -11.25 17.9 -9.05 17.55 M-11.35 21.95 Q-11.35 23.5 -12.45 23.55 -13.2 23.6 -13.45 23.0 -14.5 20.75 -11.35 21.95 Z" fill="none" stroke="#8f7c3f" stroke-linecap="round" stroke-linejoin="round" stroke-width="1.0"/>
    <path d="M-0.85 21.4 L0.6 21.45 Q1.1 21.7 1.2 22.8 L-0.65 22.9 Q-1.25 22.5 -0.85 21.4" fill="#fefefe" fill-rule="evenodd" stroke="none"/>
    <path d="M-0.85 21.4 L0.6 21.45 Q1.1 21.7 1.2 22.8 L-0.65 22.9 Q-1.25 22.5 -0.85 21.4 0.1 19.35 0.85 18.45 -0.7 18.25 -3.2 17.1" fill="none" stroke="#8f7c3f" stroke-linecap="round" stroke-linejoin="round" stroke-width="1.0"/>
  </g>
</svg>
