<?xml version="1.0" encoding="UTF-8" standalone="no"?>
<!DOCTYPE svg PUBLIC "-//W3C//DTD SVG 1.1//EN" "http://www.w3.org/Graphics/SVG/1.1/DTD/svg11.dtd">
<svg width="109px" height="48px" version="1.1" xmlns="http://www.w3.org/2000/svg" xmlns:xlink="http://www.w3.org/1999/xlink" xml:space="preserve" xmlns:serif="http://www.serif.com/" style="fill-rule:evenodd;clip-rule:evenodd;stroke-linejoin:round;stroke-miterlimit:2;">
    <g transform="matrix(0.625779,0,0,0.625779,-14.2879,-88.9255)">
        <path d="M161.944,160.638C162.505,160.178 162.969,159.594 163.292,158.913C165.559,154.126 169.876,145.012 169.876,145.012L177.816,161.772C177.816,161.772 182.767,169.328 184.568,175.931C186.611,175.433 188.679,174.782 191.002,173.952C191.218,173.846 191.447,173.763 191.686,173.705L191.695,173.702L191.695,173.703C191.949,173.642 192.214,173.61 192.486,173.61C194.354,173.61 195.871,175.126 195.871,176.995C195.871,178.178 195.262,179.22 194.341,179.825C195.868,180.152 197.015,181.511 197.015,183.135C197.015,184.145 196.572,185.052 195.87,185.672L195.871,185.675L195.856,185.684C195.598,185.91 195.305,186.097 194.987,186.237C190.349,189.115 186.804,190.154 181.75,190.772C180.136,192.859 177.995,194.598 175.401,195.912C172.747,197.256 169.826,197.993 166.852,198.068C165.234,198.109 163.076,198.164 161.107,198.214C158.246,198.286 155.964,200.626 155.964,203.489L155.964,211.44C155.964,214.76 153.49,217.452 150.438,217.452L150.436,217.452C147.197,217.452 144.57,214.595 144.57,211.071L144.57,206.259C144.57,204.604 143.913,203.017 142.743,201.847C141.573,200.677 139.985,200.019 138.33,200.019L138.328,200.019C136.674,200.019 135.086,200.677 133.916,201.847C132.746,203.017 132.088,204.604 132.088,206.259L132.088,211.44C132.088,214.76 129.614,217.452 126.562,217.452L126.561,217.452C123.321,217.452 120.695,214.595 120.695,211.071L120.695,206.328C120.695,203.567 118.456,201.328 115.695,201.328L107.648,201.328C107.443,202.574 106.36,203.525 105.056,203.525C103.752,203.525 102.669,202.574 102.464,201.328L102.461,201.328C101.38,202.668 99.724,203.525 97.87,203.525C96.045,203.525 94.412,202.694 93.33,201.391C92.248,202.694 90.615,203.525 88.79,203.525C87.118,203.525 85.608,202.828 84.534,201.709C84.192,202.763 83.201,203.525 82.034,203.525C80.731,203.525 79.648,202.574 79.442,201.328L79.37,201.328C76.608,201.328 74.37,203.567 74.37,206.328L74.37,211.44C74.37,214.76 71.896,217.452 68.843,217.452L68.842,217.452C65.602,217.452 62.976,214.595 62.976,211.071L62.976,204.206C62.976,203.443 62.673,202.711 62.133,202.171C61.593,201.631 60.861,201.328 60.098,201.328L60.094,201.328C59.331,201.328 58.599,201.631 58.059,202.171C57.52,202.711 57.216,203.443 57.216,204.206L57.216,211.44C57.216,214.76 54.742,217.452 51.69,217.452L51.689,217.452C48.449,217.452 46.259,214.568 45.823,211.071C45.54,208.799 45.277,193.661 46.067,183.846C46.361,180.192 47.218,176.607 49.276,173.575C49.642,173.036 50.022,172.476 50.407,171.909C53.233,167.747 57.592,164.947 62.454,164.06L62.454,162.046L62.553,162.046C62.509,161.83 62.486,161.607 62.486,161.379C62.486,159.544 63.975,158.054 65.81,158.054C66.862,158.054 67.801,158.544 68.41,159.308C69.019,158.544 69.958,158.054 71.01,158.054C72.062,158.054 73.001,158.544 73.61,159.308C74.22,158.544 75.158,158.054 76.211,158.054C77.263,158.054 78.201,158.544 78.811,159.308C79.42,158.544 80.359,158.054 81.411,158.054C82.463,158.054 83.402,158.544 84.011,159.308C84.62,158.544 85.559,158.054 86.611,158.054C87.663,158.054 88.602,158.544 89.211,159.308C89.821,158.544 90.759,158.054 91.812,158.054C92.864,158.054 93.802,158.544 94.412,159.308C95.021,158.544 95.96,158.054 97.012,158.054C98.064,158.054 99.003,158.544 99.612,159.308C100.221,158.544 101.16,158.054 102.212,158.054C103.304,158.054 104.274,158.582 104.88,159.396C105.49,158.68 106.399,158.225 107.413,158.225C108.465,158.225 109.403,158.715 110.013,159.479C110.622,158.715 111.561,158.225 112.613,158.225C113.627,158.225 114.535,158.68 115.145,159.396C115.751,158.582 116.721,158.054 117.813,158.054C118.865,158.054 119.804,158.544 120.413,159.308C121.023,158.544 121.961,158.054 123.013,158.054C124.848,158.054 126.338,159.544 126.338,161.379C126.338,161.834 126.246,162.269 126.08,162.664C126.821,162.16 127.427,161.457 127.815,160.609C130.198,155.399 134.948,145.012 134.948,145.012C134.948,145.012 139.265,154.126 141.533,158.913C142.044,159.992 142.91,160.829 143.954,161.311C143.956,159.445 145.472,157.93 147.339,157.93C148.492,157.93 149.512,158.509 150.123,159.391C150.734,158.509 151.754,157.93 152.907,157.93C154.11,157.93 155.167,158.559 155.767,159.505C156.368,158.559 157.425,157.93 158.627,157.93C160.263,157.93 161.63,159.094 161.944,160.638Z" style="fill:white;"/>
    </g>
    <g transform="matrix(0.625779,0,0,0.625779,-14.2879,-88.9255)">
        <path d="M143.389,203.267L143.389,211.177C143.389,215.419 146.605,218.808 150.505,218.808L150.507,218.808C154.219,218.808 157.283,215.585 157.283,211.546L157.283,203.267C157.283,202.577 156.723,202.017 156.033,202.017C155.343,202.017 154.783,202.577 154.783,203.267L154.783,211.546C154.783,214.148 152.899,216.308 150.507,216.308L150.505,216.308C147.925,216.308 145.889,213.983 145.889,211.177L145.889,203.267C145.889,202.577 145.329,202.017 144.639,202.017C143.949,202.017 143.389,202.577 143.389,203.267ZM61.795,203.267L61.795,211.177C61.795,215.419 65.011,218.808 68.911,218.808L68.912,218.808C72.625,218.808 75.689,215.585 75.689,211.546L75.689,203.267C75.689,202.577 75.129,202.017 74.439,202.017C73.749,202.017 73.189,202.577 73.189,203.267L73.189,211.546C73.189,214.148 71.304,216.308 68.912,216.308L68.911,216.308C66.331,216.308 64.295,213.983 64.295,211.177L64.295,203.267C64.295,202.577 63.735,202.017 63.045,202.017C62.355,202.017 61.795,202.577 61.795,203.267ZM44.642,203.267L44.642,211.177C44.642,215.419 47.858,218.808 51.757,218.808L51.759,218.808C55.471,218.808 58.535,215.585 58.535,211.546L58.535,203.267C58.535,202.577 57.975,202.017 57.285,202.017C56.595,202.017 56.035,202.577 56.035,203.267L56.035,211.546C56.035,214.148 54.151,216.308 51.759,216.308L51.757,216.308C49.178,216.308 47.142,213.983 47.142,211.177L47.142,203.267C47.142,202.577 46.582,202.017 45.892,202.017C45.202,202.017 44.642,202.577 44.642,203.267ZM119.514,203.267L119.514,211.177C119.514,215.419 122.73,218.808 126.629,218.808L126.631,218.808C130.343,218.808 133.407,215.585 133.407,211.546L133.407,203.267C133.407,202.577 132.847,202.017 132.157,202.017C131.467,202.017 130.907,202.577 130.907,203.267L130.907,211.546C130.907,214.148 129.023,216.308 126.631,216.308L126.629,216.308C124.05,216.308 122.014,213.983 122.014,211.177L122.014,203.267C122.014,202.577 121.454,202.017 120.764,202.017C120.074,202.017 119.514,202.577 119.514,203.267ZM80.327,199.18L78.429,202.964C78.171,203.48 78.379,204.108 78.895,204.366C79.41,204.625 80.038,204.416 80.297,203.901L82.195,200.117C82.453,199.602 82.245,198.973 81.729,198.715C81.214,198.456 80.586,198.665 80.327,199.18ZM92.496,199.18L90.598,202.964C90.339,203.48 90.548,204.108 91.063,204.366C91.578,204.625 92.207,204.416 92.465,203.901L94.363,200.117C94.622,199.602 94.413,198.973 93.898,198.715C93.382,198.456 92.754,198.665 92.496,199.18ZM102.939,199.18L101.041,202.964C100.783,203.48 100.991,204.108 101.507,204.366C102.022,204.625 102.65,204.416 102.909,203.901L104.807,200.117C105.065,199.602 104.857,198.973 104.341,198.715C103.826,198.456 103.198,198.665 102.939,199.18ZM107.048,199.18L105.15,202.964C104.891,203.48 105.1,204.108 105.615,204.366C106.131,204.625 106.759,204.416 107.018,203.901L108.915,200.117C109.174,199.602 108.965,198.973 108.45,198.715C107.935,198.456 107.306,198.665 107.048,199.18ZM84.436,199.18L82.538,202.964C82.279,203.48 82.488,204.108 83.003,204.366C83.519,204.625 84.147,204.416 84.405,203.901L86.303,200.117C86.562,199.602 86.353,198.973 85.838,198.715C85.323,198.456 84.694,198.665 84.436,199.18ZM164.093,194.951L164.202,194.95C164.585,194.941 164.912,194.796 165.182,194.51C165.45,194.227 165.587,193.885 165.587,193.48L165.587,189.414C165.587,189.017 165.454,188.673 165.191,188.381C164.91,188.07 164.567,187.919 164.165,187.919L163.542,187.919L163.542,172.135C163.542,171.731 163.405,171.388 163.137,171.105C162.858,170.81 162.519,170.665 162.121,170.665L153.533,170.665C153.127,170.665 152.789,170.815 152.519,171.115C152.266,171.395 152.135,171.734 152.135,172.135L152.135,172.973C152.135,175.543 152.119,177.491 152.087,178.817C152.055,180.142 152.011,181.357 151.955,182.462C151.902,183.514 151.793,184.33 151.618,184.908C151.443,185.487 151.253,185.99 151.048,186.416C150.855,186.816 150.565,187.317 150.181,187.919L149.972,187.919C149.571,187.919 149.228,188.07 148.947,188.381C148.683,188.673 148.551,189.017 148.551,189.414L148.551,193.48C148.551,193.885 148.688,194.227 148.955,194.51C149.234,194.805 149.574,194.951 149.972,194.951L150.082,194.95C150.464,194.941 150.791,194.796 151.061,194.51C151.329,194.227 151.466,193.885 151.466,193.48L151.466,190.783L162.672,190.783L162.672,193.48C162.672,193.885 162.808,194.227 163.076,194.51C163.355,194.805 163.695,194.951 164.093,194.951ZM83.957,189.075L83.957,192.075C83.957,192.689 84.455,193.186 85.068,193.186C85.681,193.186 86.179,192.689 86.179,192.075L86.179,189.075C86.179,188.462 85.681,187.964 85.068,187.964C84.455,187.964 83.957,188.462 83.957,189.075ZM109.878,189.075L109.878,192.075C109.878,192.689 110.376,193.186 110.989,193.186C111.602,193.186 112.1,192.689 112.1,192.075L112.1,189.075C112.1,188.462 111.602,187.964 110.989,187.964C110.376,187.964 109.878,188.462 109.878,189.075ZM89.141,189.075L89.141,192.075C89.141,192.689 89.639,193.186 90.252,193.186C90.866,193.186 91.363,192.689 91.363,192.075L91.363,189.075C91.363,188.462 90.866,187.964 90.252,187.964C89.639,187.964 89.141,188.462 89.141,189.075ZM94.325,189.075L94.325,192.075C94.325,192.689 94.823,193.186 95.436,193.186C96.05,193.186 96.548,192.689 96.548,192.075L96.548,189.075C96.548,188.462 96.05,187.964 95.436,187.964C94.823,187.964 94.325,188.462 94.325,189.075ZM99.509,189.075L99.509,192.075C99.509,192.689 100.007,193.186 100.621,193.186C101.234,193.186 101.732,192.689 101.732,192.075L101.732,189.075C101.732,188.462 101.234,187.964 100.621,187.964C100.007,187.964 99.509,188.462 99.509,189.075ZM78.773,189.075L78.773,192.075C78.773,192.689 79.271,193.186 79.884,193.186C80.497,193.186 80.995,192.689 80.995,192.075L80.995,189.075C80.995,188.462 80.497,187.964 79.884,187.964C79.271,187.964 78.773,188.462 78.773,189.075ZM104.694,189.075L104.694,192.075C104.694,192.689 105.191,193.186 105.805,193.186C106.418,193.186 106.916,192.689 106.916,192.075L106.916,189.075C106.916,188.462 106.418,187.964 105.805,187.964C105.191,187.964 104.694,188.462 104.694,189.075ZM135.27,189.322C135.781,190.06 135.822,190.798 135.282,191.536C135.01,191.908 135.091,192.431 135.463,192.704C135.835,192.976 136.358,192.895 136.631,192.523C137.644,191.138 137.603,189.754 136.643,188.369C136.38,187.99 135.859,187.896 135.48,188.159C135.101,188.421 135.007,188.942 135.27,189.322ZM131.147,189.322C131.658,190.06 131.7,190.798 131.159,191.536C130.887,191.908 130.968,192.431 131.34,192.704C131.712,192.976 132.235,192.895 132.508,192.523C133.522,191.138 133.48,189.754 132.521,188.369C132.258,187.99 131.737,187.896 131.358,188.159C130.979,188.421 130.884,188.942 131.147,189.322ZM179.797,191.005C179.798,191.06 179.808,191.108 179.824,191.15C179.922,191.481 180.088,191.718 180.3,191.873C180.529,192.04 180.82,192.12 181.178,192.088C181.184,192.087 181.189,192.087 181.194,192.086C187.71,191.246 192.829,189.411 196.557,186.597C196.807,186.414 196.962,186.151 197.004,185.798C197.044,185.465 196.971,185.17 196.792,184.911C196.604,184.64 196.352,184.478 196.039,184.422C195.72,184.364 195.432,184.429 195.177,184.614C195.175,184.615 195.173,184.616 195.171,184.618C191.649,187.242 186.825,188.926 180.707,189.686C180.703,189.687 180.698,189.687 180.694,189.688C180.389,189.735 180.14,189.894 179.955,190.178C179.782,190.443 179.732,190.719 179.797,191.005ZM115.109,188.655C115.061,189.017 115.182,189.343 115.497,189.623C115.765,189.861 116.09,190.003 116.473,190.044C116.476,190.044 116.479,190.045 116.482,190.045C119.447,190.294 122.364,190.809 125.233,191.588C125.617,191.698 125.966,191.663 126.282,191.496C126.631,191.311 126.818,191.043 126.862,190.705L126.894,190.585C126.95,190.196 126.856,189.853 126.616,189.555C126.398,189.285 126.1,189.093 125.715,188.989C122.702,188.166 119.688,187.635 116.673,187.396C116.299,187.355 115.958,187.443 115.651,187.659C115.313,187.897 115.14,188.2 115.111,188.556L115.109,188.655ZM150.741,188.073C150.641,187.977 150.506,187.919 150.357,187.919C150.344,187.919 150.33,187.919 150.318,187.921C150.545,187.94 150.6,188.115 150.583,188.321C150.638,188.236 150.69,188.154 150.741,188.073ZM153.704,187.919C154.362,186.588 154.761,185.272 154.903,183.973C155.06,182.537 155.142,179.055 155.146,173.529L160.458,173.529L160.458,187.919L153.704,187.919ZM180.253,184.013C180.333,184.327 180.503,184.579 180.765,184.768C181.042,184.968 181.336,185.04 181.644,184.996C187.198,184.214 191.594,182.68 194.835,180.409C194.837,180.408 194.838,180.406 194.84,180.405C195.087,180.227 195.247,179.975 195.308,179.641C195.369,179.313 195.314,179.019 195.153,178.757C194.98,178.476 194.732,178.307 194.408,178.248C194.088,178.191 193.801,178.256 193.545,178.441C190.573,180.471 186.435,181.86 181.142,182.62L181.137,182.62C180.831,182.668 180.58,182.831 180.394,183.127C180.213,183.416 180.17,183.712 180.253,184.013ZM23.248,182.882L23.293,182.937C23.341,182.998 23.392,183.041 23.442,183.072C23.685,183.248 23.962,183.321 24.275,183.289C24.6,183.255 24.875,183.116 25.099,182.87C25.101,182.868 25.103,182.866 25.104,182.865C25.984,181.872 26.994,181.362 28.145,181.362C29.072,181.362 29.984,181.801 30.9,182.638C30.9,182.638 30.901,182.638 30.901,182.639C32.267,183.88 33.77,184.491 35.401,184.492C37.444,184.505 39.123,183.722 40.438,182.141C40.444,182.134 40.45,182.127 40.456,182.119C40.655,181.853 40.741,181.548 40.708,181.204C40.675,180.862 40.528,180.578 40.267,180.355L40.149,180.259C39.893,180.051 39.593,179.96 39.245,179.994C38.909,180.028 38.626,180.176 38.4,180.443C37.935,180.964 37.464,181.344 36.981,181.571C36.508,181.794 35.981,181.902 35.403,181.902L35.396,181.902C34.471,181.914 33.561,181.481 32.648,180.646C32.647,180.646 32.647,180.645 32.646,180.645C31.28,179.404 29.778,178.792 28.146,178.792C26.104,178.778 24.424,179.561 23.109,181.142C23.108,181.144 23.107,181.145 23.106,181.146C22.899,181.4 22.805,181.703 22.839,182.06C22.871,182.389 23.007,182.663 23.248,182.882ZM180.253,184.013L180.255,184.019L180.253,184.013ZM124.511,180.802C122.256,180.199 120.041,179.803 117.865,179.612C117.861,179.612 117.857,179.612 117.852,179.611C117.474,179.589 117.143,179.691 116.859,179.91C116.552,180.147 116.393,180.438 116.363,180.77L116.362,180.896C116.311,181.288 116.444,181.615 116.764,181.875C117.028,182.088 117.348,182.219 117.725,182.26C117.728,182.26 117.73,182.261 117.732,182.261C119.788,182.448 121.892,182.821 124.045,183.381C124.048,183.382 124.052,183.383 124.056,183.384C124.43,183.471 124.77,183.432 125.077,183.281C125.433,183.106 125.623,182.84 125.667,182.497L125.699,182.38C125.755,182.013 125.667,181.674 125.426,181.364C125.204,181.079 124.901,180.888 124.511,180.802ZM23.381,183.026C23.386,183.03 23.391,183.034 23.396,183.037L23.376,183.022L23.381,183.026ZM181.684,178.277C181.685,178.277 181.686,178.277 181.687,178.276C186.743,177.511 190.684,176.29 193.513,174.627C193.807,174.466 193.993,174.215 194.067,173.872C194.138,173.544 194.089,173.245 193.928,172.972C193.764,172.694 193.528,172.512 193.221,172.423C192.903,172.331 192.606,172.368 192.33,172.529C189.668,174.078 185.922,175.205 181.1,175.923C181.097,175.923 181.095,175.924 181.092,175.924C180.797,175.973 180.557,176.137 180.386,176.433C180.23,176.704 180.19,176.996 180.273,177.312C180.353,177.635 180.532,177.888 180.811,178.071C181.091,178.255 181.383,178.32 181.684,178.277ZM50.341,170.363L46.626,174.077C46.055,174.648 46.055,175.575 46.626,176.145C47.197,176.716 48.124,176.716 48.694,176.145L52.409,172.431C52.98,171.86 52.98,170.933 52.409,170.363C51.838,169.792 50.911,169.792 50.341,170.363ZM116.192,173.011C116.233,172.972 116.279,172.935 116.328,172.899C116.621,172.683 116.955,172.584 117.328,172.606L117.333,172.606C119.839,172.78 122.462,173.176 125.203,173.795C125.584,173.878 125.893,174.056 126.135,174.323C126.408,174.625 126.511,174.964 126.459,175.335L126.454,175.416L126.457,175.399C126.417,175.748 126.226,176.026 125.853,176.214C125.534,176.376 125.189,176.417 124.817,176.332C122.254,175.77 119.72,175.396 117.215,175.209C117.21,175.208 117.205,175.208 117.201,175.207C116.828,175.167 116.506,175.039 116.233,174.828C116.065,174.698 115.944,174.55 115.869,174.385C115.792,174.236 115.748,174.067 115.748,173.888C115.748,173.532 115.922,173.215 116.192,173.011ZM171.339,168.862C169.39,168.862 167.807,170.445 167.807,172.394C167.807,174.343 169.39,175.925 171.339,175.925C173.288,175.925 174.87,174.343 174.87,172.394C174.87,170.445 173.288,168.862 171.339,168.862ZM140.449,168.862C138.5,168.862 136.918,170.445 136.918,172.394C136.918,174.343 138.5,175.925 140.449,175.925C142.398,175.925 143.981,174.343 143.981,172.394C143.981,170.445 142.398,168.862 140.449,168.862ZM140.449,171.161C141.13,171.161 141.682,171.713 141.682,172.394C141.682,173.074 141.13,173.627 140.449,173.627C139.769,173.627 139.216,173.074 139.216,172.394C139.216,171.713 139.769,171.161 140.449,171.161ZM171.339,171.161C172.019,171.161 172.572,171.713 172.572,172.394C172.572,173.074 172.019,173.627 171.339,173.627C170.658,173.627 170.105,173.074 170.105,172.394C170.105,171.713 170.658,171.161 171.339,171.161ZM154.372,160.64L154.372,163.64C154.372,164.253 154.87,164.751 155.483,164.751C156.097,164.751 156.594,164.253 156.594,163.64L156.594,160.64C156.594,160.026 156.097,159.528 155.483,159.528C154.87,159.528 154.372,160.026 154.372,160.64ZM149.188,160.64L149.188,163.64C149.188,164.253 149.686,164.751 150.299,164.751C150.912,164.751 151.41,164.253 151.41,163.64L151.41,160.64C151.41,160.026 150.912,159.528 150.299,159.528C149.686,159.528 149.188,160.026 149.188,160.64ZM98.257,160.418L98.257,163.418C98.257,164.032 98.755,164.53 99.368,164.53C99.981,164.53 100.479,164.032 100.479,163.418L100.479,160.418C100.479,159.805 99.981,159.307 99.368,159.307C98.755,159.307 98.257,159.805 98.257,160.418ZM67.152,160.418L67.152,163.418C67.152,164.032 67.65,164.53 68.263,164.53C68.877,164.53 69.374,164.032 69.374,163.418L69.374,160.418C69.374,159.805 68.877,159.307 68.263,159.307C67.65,159.307 67.152,159.805 67.152,160.418ZM77.52,160.418L77.52,163.418C77.52,164.032 78.018,164.53 78.632,164.53C79.245,164.53 79.743,164.032 79.743,163.418L79.743,160.418C79.743,159.805 79.245,159.307 78.632,159.307C78.018,159.307 77.52,159.805 77.52,160.418ZM87.889,160.418L87.889,163.418C87.889,164.032 88.387,164.53 89,164.53C89.613,164.53 90.111,164.032 90.111,163.418L90.111,160.418C90.111,159.805 89.613,159.307 89,159.307C88.387,159.307 87.889,159.805 87.889,160.418ZM82.705,160.418L82.705,163.418C82.705,164.032 83.202,164.53 83.816,164.53C84.429,164.53 84.927,164.032 84.927,163.418L84.927,160.418C84.927,159.805 84.429,159.307 83.816,159.307C83.202,159.307 82.705,159.805 82.705,160.418ZM93.073,160.418L93.073,163.418C93.073,164.032 93.571,164.53 94.184,164.53C94.797,164.53 95.295,164.032 95.295,163.418L95.295,160.418C95.295,159.805 94.797,159.307 94.184,159.307C93.571,159.307 93.073,159.805 93.073,160.418ZM61.968,160.418L61.968,163.418C61.968,164.032 62.466,164.53 63.079,164.53C63.692,164.53 64.19,164.032 64.19,163.418L64.19,160.418C64.19,159.805 63.692,159.307 63.079,159.307C62.466,159.307 61.968,159.805 61.968,160.418ZM118.993,160.418L118.993,163.418C118.993,164.032 119.491,164.53 120.104,164.53C120.718,164.53 121.216,164.032 121.216,163.418L121.216,160.418C121.216,159.805 120.718,159.307 120.104,159.307C119.491,159.307 118.993,159.805 118.993,160.418ZM72.336,160.418L72.336,163.418C72.336,164.032 72.834,164.53 73.447,164.53C74.061,164.53 74.559,164.032 74.559,163.418L74.559,160.418C74.559,159.805 74.061,159.307 73.447,159.307C72.834,159.307 72.336,159.805 72.336,160.418ZM108.625,160.418L108.625,163.418C108.625,164.032 109.123,164.53 109.736,164.53C110.349,164.53 110.847,164.032 110.847,163.418L110.847,160.418C110.847,159.805 110.349,159.307 109.736,159.307C109.123,159.307 108.625,159.805 108.625,160.418ZM103.441,160.418L103.441,163.418C103.441,164.032 103.939,164.53 104.552,164.53C105.165,164.53 105.663,164.032 105.663,163.418L105.663,160.418C105.663,159.805 105.165,159.307 104.552,159.307C103.939,159.307 103.441,159.805 103.441,160.418ZM113.809,160.418L113.809,163.418C113.809,164.032 114.307,164.53 114.92,164.53C115.534,164.53 116.031,164.032 116.031,163.418L116.031,160.418C116.031,159.805 115.534,159.307 114.92,159.307C114.307,159.307 113.809,159.805 113.809,160.418ZM163.328,162.505L169.945,148.534L176.563,162.505C176.908,163.234 177.781,163.546 178.511,163.2C179.24,162.855 179.552,161.982 179.206,161.252L171.267,144.492C171.025,143.981 170.51,143.656 169.945,143.656C169.38,143.656 168.866,143.981 168.624,144.492L160.684,161.252C160.339,161.982 160.651,162.855 161.38,163.2C162.11,163.546 162.982,163.234 163.328,162.505ZM128.399,162.505L135.017,148.534L141.634,162.505C141.98,163.234 142.853,163.546 143.582,163.2C144.312,162.855 144.623,161.982 144.278,161.252L136.339,144.492C136.097,143.981 135.582,143.656 135.017,143.656C134.452,143.656 133.937,143.981 133.695,144.492L125.756,161.252C125.41,161.982 125.722,162.855 126.452,163.2C127.181,163.546 128.054,163.234 128.399,162.505Z" style="fill-rule:nonzero;"/>
    </g>
</svg>
