<?xml version="1.0" encoding="UTF-8" standalone="no"?>
<!DOCTYPE svg PUBLIC "-//W3C//DTD SVG 1.1//EN" "http://www.w3.org/Graphics/SVG/1.1/DTD/svg11.dtd">
<svg width="58px" height="87px" version="1.1" xmlns="http://www.w3.org/2000/svg" xmlns:xlink="http://www.w3.org/1999/xlink" xml:space="preserve" xmlns:serif="http://www.serif.com/" style="fill-rule:evenodd;clip-rule:evenodd;stroke-linejoin:round;stroke-miterlimit:2;">
    <g transform="matrix(0.620547,0,0,0.620547,-39.1672,-49.6511)">
        <path d="M106,218.551L74.242,218.551C72.426,219.225 70.068,218.107 68.5,216.551C63.375,209.551 63.348,202.551 68.2,195.551C70.141,192.571 71.881,189.757 71.5,187.551L71.5,162.551L68.5,159.551C63.375,152.551 64.081,145.551 68.933,138.551C69.732,137.255 70.118,136.055 70.139,134.938C70.161,133.712 69.739,132.587 68.933,131.551C63.808,124.551 63.348,117.993 68.2,110.993C69.114,107.963 70.069,105.115 72.516,98.406L80.5,81.551L89.75,100.551C91.173,102.768 92.583,103.807 94.5,103.551L119.5,103.551C121.419,103.632 124.077,103.195 125.5,100.551L134.5,81.551L143.5,100.551L147.758,110.551C152.61,117.551 152.525,124.551 147.4,131.551C145.724,134.142 145.862,136.454 147.4,138.551C152.252,145.551 153.253,153.147 147.4,159.551C145.208,161.95 141.317,164.195 142.5,162.067L142.5,187.551C142.456,188.463 148.202,190.747 151.814,195.551C156.932,202.359 157.23,208.688 152.105,215.688C150.665,217.655 148.433,218.245 146.5,218.551L121.5,218.551C115.484,216.182 113.998,213.512 113.785,210.756C113.497,215.165 109.485,218 106,218.551Z" style="fill:white;"/>
    </g>
    <g transform="matrix(0.620547,0,0,0.620547,-39.0396,-48.6546)">
        <path d="M121.144,218.605L146.144,218.605C146.95,218.605 147.604,217.951 147.604,217.145C147.604,216.339 146.95,215.685 146.144,215.685L121.144,215.685C120.338,215.685 119.684,216.339 119.684,217.145C119.684,217.951 120.338,218.605 121.144,218.605ZM105.644,215.685L73.144,215.685C72.338,215.685 71.684,216.339 71.684,217.145C71.684,217.951 72.338,218.605 73.144,218.605L105.644,218.605C106.45,218.605 107.104,217.951 107.104,217.145C107.104,216.339 106.45,215.685 105.644,215.685ZM149.944,194.977C154.406,201.412 154.678,207.847 149.966,214.282C149.49,214.933 149.631,215.847 150.281,216.323C150.932,216.799 151.846,216.658 152.322,216.008C157.862,208.443 157.588,200.878 152.344,193.313C151.885,192.651 150.974,192.486 150.312,192.945C149.65,193.404 149.485,194.315 149.944,194.977ZM66.944,193.313C61.701,200.878 61.428,208.443 66.966,216.007C67.442,216.658 68.356,216.799 69.006,216.323C69.657,215.847 69.798,214.933 69.322,214.283C64.61,207.847 64.883,201.412 69.344,194.977C69.803,194.314 69.638,193.404 68.976,192.945C68.313,192.486 67.403,192.651 66.944,193.313ZM109.202,194.977C113.663,201.412 113.936,207.847 109.224,214.283C108.748,214.933 108.889,215.847 109.54,216.323C110.19,216.799 111.104,216.658 111.58,216.007C117.118,208.443 116.845,200.878 111.602,193.313C111.143,192.651 110.233,192.486 109.57,192.945C108.908,193.404 108.743,194.314 109.202,194.977ZM70.684,163.145L70.684,188.145C70.684,188.951 71.338,189.605 72.144,189.605C72.95,189.605 73.604,188.951 73.604,188.145L73.604,163.145C73.604,162.339 72.95,161.685 72.144,161.685C71.338,161.685 70.684,162.339 70.684,163.145ZM105.184,163.145L105.184,188.145C105.184,188.951 105.838,189.605 106.644,189.605C107.45,189.605 108.104,188.951 108.104,188.145L108.104,163.145C108.104,162.339 107.45,161.685 106.644,161.685C105.838,161.685 105.184,162.339 105.184,163.145ZM140.684,163.145L140.684,188.145C140.684,188.951 141.338,189.605 142.144,189.605C142.95,189.605 143.604,188.951 143.604,188.145L143.604,163.145C143.604,162.339 142.95,161.685 142.144,161.685C141.338,161.685 140.684,162.339 140.684,163.145ZM66.944,136.313C61.701,143.878 61.428,151.443 66.966,159.007C67.442,159.658 68.356,159.799 69.006,159.323C69.657,158.847 69.798,157.933 69.322,157.283C64.61,150.847 64.883,144.412 69.344,137.977C69.803,137.314 69.638,136.404 68.976,135.945C68.313,135.486 67.403,135.651 66.944,136.313ZM146.202,137.977C150.663,144.412 150.936,150.847 146.224,157.283C145.748,157.933 145.889,158.847 146.54,159.323C147.19,159.799 148.104,159.658 148.58,159.007C154.118,151.443 153.845,143.878 148.602,136.313C148.143,135.651 147.233,135.486 146.57,135.945C145.908,136.404 145.743,137.314 146.202,137.977ZM108.644,133.605L115.144,133.605C115.95,133.605 116.604,132.951 116.604,132.145C116.604,131.339 115.95,130.685 115.144,130.685L108.644,130.685C107.838,130.685 107.184,131.339 107.184,132.145C107.184,132.951 107.838,133.605 108.644,133.605ZM66.944,108.313C61.701,115.878 61.428,123.443 66.966,131.007C67.442,131.658 68.356,131.799 69.006,131.323C69.657,130.847 69.798,129.933 69.322,129.283C64.61,122.847 64.883,116.412 69.344,109.977C69.803,109.314 69.638,108.404 68.976,107.945C68.313,107.486 67.403,107.651 66.944,108.313ZM146.202,109.977C150.663,116.412 150.936,122.847 146.224,129.283C145.748,129.933 145.889,130.847 146.54,131.323C147.19,131.799 148.104,131.658 148.58,131.007C154.118,123.443 153.845,115.878 148.602,108.313C148.143,107.651 147.233,107.486 146.57,107.945C145.908,108.404 145.743,109.314 146.202,109.977ZM118.717,114.044C119.85,119.29 121.705,122.264 124.576,124.532L119.79,125.729C119.008,125.924 118.532,126.717 118.728,127.499C118.923,128.281 119.716,128.757 120.498,128.561L128.498,126.561C129.077,126.417 129.51,125.934 129.591,125.342C129.671,124.751 129.384,124.17 128.864,123.875C125.034,121.703 122.81,119.165 121.571,113.428C121.401,112.64 120.623,112.139 119.836,112.309C119.048,112.479 118.547,113.257 118.717,114.044ZM132.112,110.177L136.112,114.177C136.681,114.747 137.607,114.747 138.176,114.177C138.746,113.608 138.746,112.682 138.176,112.113L134.176,108.113C133.607,107.543 132.681,107.543 132.112,108.113C131.542,108.682 131.542,109.608 132.112,110.177ZM100.612,108.113L96.612,112.113C96.042,112.682 96.042,113.608 96.612,114.177C97.181,114.747 98.107,114.747 98.676,114.177L102.676,110.177C103.246,109.608 103.246,108.682 102.676,108.113C102.107,107.543 101.181,107.543 100.612,108.113ZM94.144,103.605L119.144,103.605C119.95,103.605 120.604,102.951 120.604,102.145C120.604,101.339 119.95,100.685 119.144,100.685L94.144,100.685C93.338,100.685 92.684,101.339 92.684,102.145C92.684,102.951 93.338,103.605 94.144,103.605ZM134.174,78.686L134.152,78.685L134.136,78.685L134.114,78.686L134.082,78.686L134.065,78.687L134.053,78.688L134.01,78.691L133.993,78.693C133.833,78.709 133.673,78.753 133.519,78.826L133.452,78.859L133.387,78.896L133.352,78.919L133.34,78.927L133.336,78.929L133.325,78.936L133.295,78.958L133.282,78.967L133.277,78.97L133.266,78.978L133.24,78.999L133.226,79.01L133.22,79.015L133.209,79.023L133.187,79.043L133.171,79.056L133.165,79.062L133.155,79.071L133.136,79.089L133.119,79.104L133.112,79.113L133.103,79.12L133.088,79.137L133.07,79.156L133.061,79.166L133.055,79.172L133.042,79.188L133.022,79.21L133.014,79.221L133.009,79.227L132.998,79.241L132.977,79.267L132.969,79.278L132.966,79.283L132.957,79.296L132.935,79.326L132.928,79.337L132.926,79.341L132.918,79.353L132.895,79.388L132.888,79.4L132.882,79.411L132.858,79.453L132.825,79.52L123.825,98.52C123.48,99.248 123.791,100.12 124.519,100.464C125.247,100.809 126.119,100.498 126.463,99.77L134.144,83.556L141.825,99.77C142.169,100.498 143.041,100.809 143.769,100.464C144.497,100.12 144.808,99.248 144.463,98.52L135.463,79.52L135.43,79.453L135.393,79.388L135.37,79.353L135.362,79.341L135.36,79.337L135.353,79.326L135.331,79.296L135.322,79.283L135.319,79.278L135.311,79.267L135.29,79.241L135.279,79.227L135.274,79.221L135.266,79.21L135.246,79.188L135.233,79.172L135.227,79.166L135.218,79.156L135.2,79.137L135.185,79.12L135.176,79.113L135.169,79.104L135.152,79.089L135.133,79.071L135.123,79.062L135.117,79.056L135.101,79.043L135.079,79.023L135.068,79.015L135.062,79.01L135.048,78.999L135.022,78.978L135.011,78.97L135.006,78.967L134.993,78.958L134.963,78.936L134.952,78.929L134.948,78.927L134.936,78.919L134.901,78.896L134.889,78.889L134.878,78.883L134.836,78.859L134.769,78.826C134.615,78.753 134.455,78.709 134.295,78.693L134.278,78.691L134.235,78.688L134.223,78.687L134.206,78.686L134.174,78.686ZM80.152,78.685L80.136,78.685L80.114,78.686L80.082,78.686L80.065,78.687L80.053,78.688L80.01,78.691L79.993,78.693C79.833,78.709 79.673,78.753 79.519,78.826L79.452,78.859L79.387,78.896L79.352,78.919L79.34,78.927L79.336,78.929L79.325,78.936L79.295,78.958L79.282,78.967L79.277,78.97L79.266,78.978L79.24,78.999L79.226,79.01L79.22,79.015L79.209,79.023L79.187,79.043L79.171,79.056L79.165,79.062L79.155,79.071L79.136,79.089L79.119,79.104L79.112,79.113L79.103,79.12L79.088,79.137L79.07,79.156L79.061,79.166L79.055,79.172L79.042,79.188L79.022,79.21L79.014,79.221L79.009,79.227L78.998,79.241L78.977,79.267L78.969,79.278L78.966,79.283L78.957,79.296L78.935,79.326L78.928,79.337L78.926,79.341L78.918,79.353L78.895,79.388L78.888,79.4L78.882,79.411L78.858,79.453L78.825,79.52L69.825,98.52C69.48,99.248 69.791,100.12 70.519,100.464C71.247,100.809 72.119,100.498 72.463,99.77L80.144,83.556L87.825,99.77C88.169,100.498 89.041,100.809 89.769,100.464C90.497,100.12 90.808,99.248 90.463,98.52L81.463,79.52L81.43,79.453L81.393,79.388L81.37,79.353L81.362,79.341L81.36,79.337L81.353,79.326L81.331,79.296L81.322,79.283L81.319,79.278L81.311,79.267L81.29,79.241L81.279,79.227L81.274,79.221L81.266,79.21L81.246,79.188L81.233,79.172L81.227,79.166L81.218,79.156L81.2,79.137L81.185,79.12L81.176,79.113L81.169,79.104L81.152,79.089L81.133,79.071L81.123,79.062L81.117,79.056L81.101,79.043L81.079,79.023L81.068,79.015L81.062,79.01L81.048,78.999L81.022,78.978L81.011,78.97L81.006,78.967L80.993,78.958L80.963,78.936L80.952,78.929L80.948,78.927L80.936,78.919L80.901,78.896L80.889,78.889L80.878,78.883L80.836,78.859L80.769,78.826C80.615,78.753 80.455,78.709 80.295,78.693L80.278,78.691L80.235,78.688L80.223,78.687L80.206,78.686L80.174,78.686L80.152,78.685Z"/>
    </g>
</svg>
