<?xml version="1.0" encoding="UTF-8" standalone="no"?>
<!DOCTYPE svg PUBLIC "-//W3C//DTD SVG 1.1//EN" "http://www.w3.org/Graphics/SVG/1.1/DTD/svg11.dtd">
<svg width="87px" height="28px" version="1.1" xmlns="http://www.w3.org/2000/svg" xmlns:xlink="http://www.w3.org/1999/xlink" xml:space="preserve" xmlns:serif="http://www.serif.com/" style="fill-rule:evenodd;clip-rule:evenodd;stroke-linejoin:round;stroke-miterlimit:2;">
    <g transform="matrix(1.03657,0,0,1.03657,-732.282,-435.446)">
        <circle cx="780" cy="434" r="9" style="fill:white;"/>
    </g>
    <g transform="matrix(1,0,0,1,-66.5,-191.509)">
        <path d="M90.689,217.286L67.929,217.286C67.316,217.286 66.818,217.784 66.818,218.397C66.818,219.011 67.316,219.509 67.929,219.509L90.689,219.509C91.302,219.509 91.8,219.011 91.8,218.397C91.8,217.784 91.302,217.286 90.689,217.286ZM94.092,193.898L94.092,217.437C94.092,218.051 94.59,218.548 95.204,218.548C95.817,218.548 96.315,218.051 96.315,217.437L96.315,193.898C96.315,193.285 95.817,192.787 95.204,192.787C94.59,192.787 94.092,193.285 94.092,193.898ZM126.007,193.898L126.007,217.437C126.007,218.051 126.505,218.548 127.119,218.548C127.732,218.548 128.23,218.051 128.23,217.437L128.23,193.898C128.23,193.285 127.732,192.787 127.119,192.787C126.505,192.787 126.007,193.285 126.007,193.898ZM142.742,195.494C136.98,195.494 132.301,200.172 132.301,205.934C132.301,211.696 136.98,216.374 142.742,216.374C148.504,216.374 153.182,211.696 153.182,205.934C153.182,200.172 148.504,195.494 142.742,195.494ZM142.742,197.716C147.277,197.716 150.96,201.399 150.96,205.934C150.96,210.47 147.277,214.152 142.742,214.152C138.206,214.152 134.524,210.47 134.524,205.934C134.524,201.399 138.206,197.716 142.742,197.716ZM122.73,192.787L99.97,192.787C99.357,192.787 98.859,193.285 98.859,193.898C98.859,194.512 99.357,195.009 99.97,195.009L122.73,195.009C123.343,195.009 123.841,194.512 123.841,193.898C123.841,193.285 123.343,192.787 122.73,192.787Z"/>
    </g>
</svg>
