<?xml version="1.0" encoding="UTF-8" standalone="no"?>
<!DOCTYPE svg PUBLIC "-//W3C//DTD SVG 1.1//EN" "http://www.w3.org/Graphics/SVG/1.1/DTD/svg11.dtd">
<svg width="87px" height="28px" version="1.1" xmlns="http://www.w3.org/2000/svg" xmlns:xlink="http://www.w3.org/1999/xlink" xml:space="preserve" xmlns:serif="http://www.serif.com/" style="fill-rule:evenodd;clip-rule:evenodd;stroke-linejoin:round;stroke-miterlimit:2;">
    <g transform="matrix(0.537963,0,0,0.654833,-13.7,-100.922)">
        <path d="M84.514,196.878C74.264,196.878 65.353,191.101 62.969,182.911C62.537,181.418 62.312,179.885 62.312,178.322C62.312,163.097 84.184,154.119 110.504,154.119C136.823,154.119 157.688,163.097 157.688,178.322C157.688,179.885 157.463,181.418 157.03,182.911C154.647,191.101 145.736,196.877 135.486,196.877C122.033,196.878 97.967,196.878 84.514,196.878Z" style="fill:white;"/>
    </g>
    <g transform="matrix(0.583989,0,0,0.583989,-18.7629,-97.996)">
        <path d="M129.413,213.423L129.564,213.423C129.986,213.414 130.346,213.269 130.644,212.99C130.959,212.695 131.115,212.337 131.115,211.916L131.115,206.45C131.115,206.032 130.961,205.67 130.648,205.363C130.339,205.061 129.964,204.908 129.523,204.908L128.011,204.908L128.011,183.221C128.011,182.8 127.854,182.442 127.539,182.147C127.231,181.859 126.858,181.713 126.418,181.713L113.379,181.713C112.936,181.713 112.567,181.861 112.271,182.152C111.972,182.445 111.823,182.801 111.823,183.221L111.823,184.348C111.823,187.806 111.799,190.429 111.75,192.215C111.701,193.999 111.635,195.636 111.549,197.125C111.466,198.585 111.29,199.716 111.016,200.519C110.742,201.322 110.444,202.019 110.122,202.611C109.799,203.204 109.302,203.959 108.633,204.876C108.612,204.9 108.588,204.908 108.558,204.908L107.974,204.908C107.532,204.908 107.157,205.061 106.848,205.363C106.535,205.67 106.381,206.032 106.381,206.45L106.381,211.916C106.381,212.337 106.537,212.695 106.852,212.99C107.16,213.278 107.534,213.423 107.974,213.423L108.124,213.423C108.546,213.414 108.906,213.269 109.204,212.99C109.519,212.695 109.676,212.337 109.676,211.916L109.676,207.821L127.82,207.821L127.82,211.916C127.82,212.337 127.977,212.695 128.292,212.99C128.6,213.278 128.973,213.423 129.413,213.423ZM147.64,184.043C153.243,192.126 153.58,200.21 147.662,208.293C147.185,208.944 147.326,209.86 147.978,210.337C148.629,210.814 149.545,210.672 150.022,210.021C156.768,200.806 156.431,191.591 150.044,182.377C149.584,181.713 148.672,181.548 148.008,182.008C147.345,182.468 147.18,183.38 147.64,184.043ZM87.973,205.219C88.416,205.778 88.682,206.325 88.688,206.884C88.694,207.428 88.447,207.958 87.991,208.501C87.597,208.971 87.659,209.673 88.129,210.067C88.599,210.461 89.3,210.399 89.694,209.929C90.549,208.91 90.921,207.878 90.91,206.859C90.899,205.856 90.509,204.841 89.713,203.837C89.332,203.357 88.632,203.277 88.152,203.658C87.672,204.039 87.591,204.739 87.973,205.219ZM69.029,181.377C62.641,190.591 62.304,199.806 69.051,209.021C69.527,209.672 70.443,209.814 71.095,209.337C71.746,208.86 71.887,207.944 71.411,207.293C65.492,199.21 65.829,191.126 71.432,183.043C71.892,182.38 71.727,181.468 71.064,181.008C70.4,180.548 69.488,180.713 69.029,181.377ZM169.406,183.043C175.009,191.126 175.346,199.21 169.428,207.293C168.951,207.944 169.093,208.86 169.744,209.337C170.395,209.814 171.311,209.672 171.788,209.021C178.535,199.806 178.197,190.591 171.81,181.377C171.35,180.713 170.438,180.548 169.775,181.008C169.111,181.468 168.946,182.38 169.406,183.043ZM41.423,181.377C35.036,190.591 34.698,199.806 41.445,209.021C41.922,209.672 42.838,209.814 43.489,209.337C44.141,208.86 44.282,207.944 43.805,207.293C37.887,199.21 38.224,191.126 43.827,183.043C44.287,182.38 44.122,181.468 43.458,181.008C42.795,180.548 41.883,180.713 41.423,181.377ZM52.979,181.377C46.591,190.591 46.254,199.806 53.001,209.021C53.478,209.672 54.394,209.814 55.045,209.337C55.696,208.86 55.838,207.944 55.361,207.293C49.443,199.21 49.78,191.126 55.383,183.043C55.843,182.38 55.678,181.468 55.014,181.008C54.351,180.548 53.439,180.713 52.979,181.377ZM157.85,183.043C163.454,191.126 163.791,199.21 157.872,207.293C157.395,207.944 157.537,208.86 158.188,209.337C158.839,209.814 159.755,209.672 160.232,209.021C166.979,199.806 166.642,190.591 160.254,181.377C159.794,180.713 158.882,180.548 158.219,181.008C157.556,181.468 157.39,182.38 157.85,183.043ZM112.736,204.908C113.941,202.942 114.66,201.002 114.897,199.088C115.14,197.123 115.263,192.302 115.264,184.626L124.46,184.626L124.46,204.908L112.736,204.908ZM88.805,191.921C90.018,191.921 91.003,192.906 91.003,194.119C91.003,195.332 90.018,196.317 88.805,196.317C87.592,196.317 86.608,195.332 86.608,194.119C86.608,192.906 87.592,191.921 88.805,191.921ZM140.895,178.601C139.051,178.601 137.548,180.116 137.548,181.991C137.548,183.866 139.051,185.381 140.895,185.381C142.738,185.381 144.242,183.866 144.242,181.991C144.242,180.116 142.738,178.601 140.895,178.601ZM97.434,178.601C95.591,178.601 94.087,180.116 94.087,181.991C94.087,183.866 95.591,185.381 97.434,185.381C99.277,185.381 100.781,183.866 100.781,181.991C100.781,180.116 99.277,178.601 97.434,178.601ZM140.895,180.268C141.826,180.268 142.575,181.044 142.575,181.991C142.575,182.938 141.826,183.714 140.895,183.714C139.963,183.714 139.214,182.938 139.214,181.991C139.214,181.044 139.963,180.268 140.895,180.268ZM97.434,180.268C98.365,180.268 99.114,181.044 99.114,181.991C99.114,182.938 98.365,183.714 97.434,183.714C96.503,183.714 95.754,182.938 95.754,181.991C95.754,181.044 96.503,180.268 97.434,180.268Z"/>
    </g>
</svg>
