<?xml version="1.0" encoding="UTF-8" standalone="no"?>
<!DOCTYPE svg PUBLIC "-//W3C//DTD SVG 1.1//EN" "http://www.w3.org/Graphics/SVG/1.1/DTD/svg11.dtd">
<svg width="93px" height="93px" version="1.1" xmlns="http://www.w3.org/2000/svg" xmlns:xlink="http://www.w3.org/1999/xlink" xml:space="preserve" xmlns:serif="http://www.serif.com/" style="fill-rule:evenodd;clip-rule:evenodd;stroke-linejoin:round;stroke-miterlimit:2;">
    <g transform="matrix(0.514636,0,0,0.514636,-0.669057,-14.8158)">
        <path d="M69.422,114.693C69.532,113.452 70.666,111.866 69.788,111.157C62.078,104.931 65.418,98.295 74.102,95.392C74.338,95.313 74.714,95.28 74.805,95.002C75.27,93.588 76.098,90.294 78.826,85.954C72.127,78.78 70.608,67.076 75.964,61L80,51L89,32L97.612,50.482C99.629,52.885 101.285,53.842 102.612,53.482L127.612,53.482C130.603,53.308 132.692,52.382 133.612,50.482L143,32L152,51L157.423,61C162.276,68 161.124,76.295 155.999,83.295L160.104,88.327C164.956,95.327 164.469,103 159.344,110L157.423,113.491L165.356,113.491L180.799,113.639C180.799,113.639 180.385,164.673 180.28,177.632C180.264,179.516 179.437,181.301 178.01,182.53C172.218,187.519 156.757,200.836 149.97,206.681C147.86,208.499 145.168,209.499 142.383,209.499L9.063,209.499C7.469,209.499 5.941,208.866 4.814,207.739C3.687,206.612 3.054,205.083 3.054,203.49L3.054,147.83C3.054,147.019 3.394,146.245 3.992,145.697C9.538,140.61 37.797,114.693 37.797,114.693L69.422,114.693Z" style="fill:white;"/>
    </g>
    <g transform="matrix(0.618466,0,0,0.618466,-21.3915,-41.2974)">
        <path d="M178.313,194.831L158.194,212.368C157.587,212.898 157.524,213.821 158.053,214.428C158.583,215.035 159.506,215.099 160.113,214.569L180.232,197.032C180.84,196.503 180.903,195.58 180.373,194.972C179.844,194.365 178.921,194.302 178.313,194.831ZM34.588,194.446L34.588,213.446C34.588,214.251 35.242,214.906 36.048,214.906C36.854,214.906 37.508,214.251 37.508,213.446L37.508,194.446C37.508,193.64 36.854,192.986 36.048,192.986C35.242,192.986 34.588,193.64 34.588,194.446ZM153.588,194.446L153.588,213.446C153.588,214.251 154.242,214.906 155.048,214.906C155.854,214.906 156.508,214.251 156.508,213.446L156.508,194.446C156.508,193.64 155.854,192.986 155.048,192.986C154.242,192.986 153.588,193.64 153.588,194.446ZM72.675,198.649C72.607,198.752 72.563,198.862 72.54,198.977C72.485,199.251 72.553,199.585 72.826,199.953C73.096,200.317 73.42,200.785 73.797,201.357C73.909,201.529 74.031,201.665 74.159,201.769L73.064,201.769C72.727,201.769 72.482,201.864 72.313,202.003C72.111,202.17 71.988,202.412 71.988,202.745C71.988,203.079 72.111,203.32 72.313,203.487C72.482,203.626 72.727,203.721 73.064,203.721L74.08,203.721C74.063,203.909 74.045,204.077 74.027,204.225L72.242,204.225C71.875,204.225 71.608,204.328 71.426,204.482C71.213,204.661 71.084,204.921 71.084,205.28C71.084,205.639 71.213,205.899 71.426,206.078C71.608,206.233 71.875,206.335 72.242,206.335L73.692,206.335C73.288,208.244 72.533,209.877 71.424,211.232C71.388,210.962 71.241,210.673 70.944,210.387L70.059,209.654C70.851,207.775 71.262,204.734 71.262,200.526C71.262,199.955 71.069,199.494 70.698,199.137C70.32,198.773 69.9,198.6 69.446,198.6L68.458,198.6C68.531,198.028 68.588,197.44 68.63,196.837C68.631,196.826 68.631,196.814 68.631,196.803C68.631,196.326 68.473,196.009 68.242,195.818C68.069,195.675 67.843,195.59 67.555,195.59C67.169,195.59 66.888,195.719 66.695,195.929C66.514,196.125 66.398,196.41 66.398,196.803C66.398,197.351 66.362,197.949 66.29,198.6L65.418,198.6C65.053,198.6 64.786,198.703 64.603,198.857C64.39,199.036 64.261,199.296 64.261,199.655C64.261,200.014 64.39,200.274 64.603,200.454C64.786,200.608 65.053,200.71 65.418,200.71L66.016,200.71C65.789,202.823 65.403,204.958 64.857,207.115C64.568,208.036 64.778,208.731 65.423,209.228C65.676,209.463 66.211,209.848 67.036,210.378C66.321,211.158 65.625,211.809 64.949,212.331C64.946,212.333 64.943,212.335 64.941,212.338C64.68,212.548 64.53,212.777 64.464,213.007C64.39,213.269 64.415,213.543 64.563,213.829C64.581,213.864 64.603,213.897 64.629,213.927C64.814,214.14 65.025,214.268 65.255,214.325C65.567,214.403 65.931,214.349 66.334,214.107C66.345,214.1 66.355,214.094 66.365,214.087C67.126,213.548 67.981,212.748 68.926,211.683L69.375,212.084C69.662,212.32 69.945,212.434 70.211,212.454L70.242,212.455C69.789,212.896 69.706,213.351 69.889,213.791C69.91,213.843 69.94,213.89 69.977,213.931C70.192,214.173 70.434,214.309 70.693,214.357C71.042,214.423 71.447,214.327 71.884,213.999C71.898,213.989 71.911,213.978 71.924,213.966C73.331,212.662 74.432,210.965 75.222,208.87L75.239,208.87C75.853,209.925 76.534,210.822 77.278,211.563C76.248,212.025 75.163,212.382 74.024,212.635C74.021,212.636 74.018,212.637 74.015,212.637C73.28,212.815 72.975,213.228 72.975,213.757C72.975,213.779 72.976,213.8 72.979,213.821C73.021,214.146 73.167,214.382 73.394,214.545C73.649,214.727 74.055,214.818 74.622,214.727C74.631,214.725 74.64,214.724 74.649,214.722C76.299,214.363 77.798,213.809 79.147,213.064C80.205,213.652 81.337,214.122 82.541,214.475C83.129,214.649 83.583,214.614 83.9,214.448C84.162,214.311 84.358,214.087 84.47,213.762C84.48,213.733 84.487,213.704 84.492,213.673C84.582,213.072 84.294,212.588 83.492,212.331C83.482,212.328 83.473,212.325 83.463,212.323C82.691,212.126 81.936,211.871 81.195,211.556C81.96,210.813 82.574,210.015 83.039,209.164C83.047,209.149 83.055,209.133 83.061,209.117C83.374,208.365 83.299,207.801 82.99,207.423C82.75,207.119 82.33,206.92 81.696,206.92L75.823,206.92C75.863,206.731 75.903,206.537 75.943,206.335L83.175,206.335C83.541,206.335 83.808,206.233 83.991,206.078C84.204,205.899 84.333,205.639 84.333,205.28C84.333,204.921 84.204,204.661 83.991,204.482C83.808,204.327 83.541,204.225 83.175,204.225L76.267,204.225C76.284,204.074 76.301,203.906 76.318,203.721L82.518,203.721C82.854,203.721 83.099,203.626 83.268,203.487C83.47,203.32 83.593,203.079 83.593,202.745C83.593,202.412 83.47,202.17 83.268,202.003C83.1,201.864 82.854,201.769 82.518,201.769L81.706,201.769L81.745,201.726C81.764,201.703 81.781,201.679 81.797,201.654C82.248,200.894 82.641,200.106 82.979,199.293C82.981,199.289 82.982,199.285 82.984,199.282C83.121,198.93 83.118,198.631 83.026,198.389C82.962,198.218 82.852,198.065 82.687,197.94L82.777,197.928C83.278,197.831 83.595,197.613 83.766,197.342C83.898,197.132 83.957,196.88 83.917,196.58C83.878,196.278 83.757,196.05 83.577,195.884C83.342,195.668 82.98,195.543 82.47,195.592C82.458,195.593 82.445,195.595 82.433,195.597C79.064,196.173 75.748,196.462 72.488,196.462C72.093,196.462 71.805,196.571 71.608,196.74C71.384,196.932 71.248,197.211 71.248,197.596C71.248,197.884 71.339,198.11 71.493,198.283C71.685,198.499 72.007,198.65 72.488,198.65L72.675,198.649ZM93.818,198.497C93.831,198.555 93.856,198.68 93.856,198.784C93.856,199.418 93.557,200.793 92.978,202.914C90.486,203.178 88.61,203.996 87.335,205.331C87.329,205.338 87.323,205.344 87.317,205.351C86.186,206.669 85.635,208.024 85.635,209.4C85.635,210.421 85.894,211.259 86.393,211.92C86.925,212.625 87.684,212.99 88.683,212.99C89.513,212.99 90.283,212.69 90.986,212.074C90.996,212.065 91.007,212.055 91.017,212.045C91.758,211.275 92.474,210.205 93.159,208.831C93.159,208.831 93.159,208.83 93.16,208.83C93.667,207.802 94.175,206.574 94.684,205.143C96.549,205.537 98.292,206.129 99.91,206.921C99.733,208.655 99.288,209.923 98.527,210.707C97.694,211.506 96.445,212.146 94.787,212.645C94.771,212.65 94.756,212.655 94.741,212.661C94.343,212.825 94.125,213.068 94.034,213.331C93.965,213.529 93.962,213.753 94.047,214C94.149,214.293 94.323,214.492 94.551,214.614C94.754,214.723 95.011,214.772 95.327,214.729C95.354,214.725 95.38,214.719 95.405,214.712C97.577,214.051 99.172,213.241 100.2,212.305C101.193,211.399 101.88,209.962 102.224,207.978C102.65,208.224 103.064,208.471 103.466,208.717C103.47,208.719 103.473,208.721 103.477,208.724C103.941,208.992 104.354,209.059 104.707,208.978C104.97,208.918 105.209,208.778 105.416,208.544C105.456,208.5 105.487,208.449 105.509,208.393C105.753,207.765 105.633,207.214 105.143,206.742C105.126,206.726 105.108,206.711 105.089,206.697C104.671,206.395 103.822,205.95 102.537,205.369C102.732,203.54 102.83,201.9 102.83,200.447C102.83,200.028 102.706,199.722 102.51,199.512C102.304,199.291 102.003,199.155 101.59,199.155C101.176,199.155 100.876,199.291 100.669,199.512C100.473,199.722 100.35,200.028 100.35,200.447C100.35,201.462 100.286,202.783 100.16,204.41C98.482,203.769 96.876,203.318 95.341,203.055L95.58,202.316C96.028,200.585 96.278,199.34 96.334,198.583C96.335,198.57 96.335,198.558 96.335,198.546C96.335,198.037 96.257,197.653 96.128,197.391C95.907,196.842 95.482,196.454 94.837,196.247C94.818,196.241 94.798,196.236 94.778,196.232C94.465,196.172 94.058,196.167 93.557,196.227L91.672,196.465L89.882,196.621L88.301,196.702C87.912,196.743 87.628,196.887 87.434,197.095C87.233,197.31 87.114,197.604 87.114,197.991C87.114,198.034 87.12,198.076 87.13,198.117C87.217,198.452 87.38,198.696 87.597,198.863C87.813,199.03 88.09,199.125 88.436,199.125C88.451,199.125 88.466,199.124 88.481,199.123C90.862,198.91 92.469,198.722 93.3,198.561C93.307,198.56 93.314,198.558 93.321,198.557C93.464,198.522 93.589,198.501 93.697,198.494C93.735,198.492 93.784,198.494 93.818,198.497ZM44.688,214.495C47.929,214.653 51.008,214.136 53.927,212.945C55.587,213.504 57.17,213.912 58.674,214.171C58.675,214.171 58.676,214.171 58.676,214.172C59.97,214.389 61.066,214.495 61.965,214.495C62.482,214.495 62.828,214.333 63.034,214.094C63.186,213.919 63.278,213.693 63.287,213.408C63.322,213.192 63.28,212.996 63.177,212.824C63.054,212.62 62.817,212.432 62.426,212.325C62.395,212.316 62.363,212.311 62.331,212.308C60.622,212.184 58.88,211.947 57.104,211.597C57.855,211.198 58.536,210.756 59.149,210.271C60.089,209.556 60.492,208.89 60.492,208.37C60.492,207.968 60.363,207.676 60.154,207.475C59.952,207.28 59.657,207.157 59.252,207.157L50.648,207.157C50.677,207.061 50.69,206.969 50.691,206.881L50.699,206.882C50.728,206.887 50.756,206.89 50.785,206.89L56.786,206.89C57.493,206.89 58.014,206.694 58.367,206.353C58.726,206.007 58.931,205.497 58.931,204.805L58.931,203.696C58.931,203.331 58.822,203.066 58.657,202.884C58.477,202.686 58.216,202.562 57.855,202.562C57.495,202.562 57.234,202.686 57.053,202.884C56.888,203.066 56.779,203.331 56.779,203.696L56.779,204.409C56.779,204.536 56.772,204.639 56.706,204.702C56.635,204.771 56.519,204.78 56.376,204.78L55.497,204.78C55.541,204.71 55.575,204.635 55.599,204.558C55.671,204.329 55.66,204.051 55.518,203.731C55.512,203.717 55.505,203.704 55.498,203.691C55.103,202.979 54.707,202.409 54.312,201.978L59.175,201.978C59.148,201.998 59.122,202.02 59.096,202.044C58.91,202.187 58.807,202.363 58.769,202.56C58.723,202.793 58.774,203.088 59.002,203.421C59.586,204.291 60.065,205.161 60.437,206.031C60.45,206.062 60.466,206.091 60.485,206.118C60.857,206.659 61.277,206.804 61.652,206.722C62.196,206.628 62.532,206.289 62.625,205.672C62.633,205.619 62.632,205.565 62.623,205.512C62.567,205.19 62.461,204.856 62.303,204.51C62.617,204.491 62.849,204.372 63.014,204.19C63.18,204.008 63.288,203.743 63.288,203.379L63.288,201.636C63.288,201.191 63.109,200.776 62.723,200.404C62.346,200.04 61.925,199.868 61.473,199.868L60.128,199.868C60.276,199.694 60.421,199.51 60.562,199.315C60.773,199.03 60.863,198.754 60.863,198.506C60.863,198.219 60.752,197.949 60.504,197.71C60.48,197.687 60.453,197.666 60.424,197.648L60.744,197.611C61.674,197.432 61.972,196.947 61.885,196.412C61.836,196.087 61.7,195.851 61.507,195.688C61.318,195.528 61.063,195.432 60.733,195.432C60.712,195.432 60.69,195.433 60.669,195.436C58.222,195.75 56.155,195.933 54.469,195.986C54.463,195.987 54.456,195.987 54.449,195.987C52.975,196.093 51.501,196.172 50.028,196.224L50.015,196.224C49.144,196.277 47.675,196.303 45.606,196.303C45.27,196.303 45.024,196.397 44.856,196.536C44.654,196.704 44.531,196.945 44.531,197.278C44.531,197.613 44.654,197.854 44.856,198.021C45.025,198.16 45.27,198.254 45.606,198.254C45.942,198.254 46.279,198.253 46.616,198.251C46.566,198.308 46.523,198.371 46.487,198.439C46.371,198.663 46.332,198.978 46.438,199.385C46.451,199.436 46.473,199.486 46.502,199.531C46.578,199.647 46.649,199.76 46.716,199.868L45.359,199.868C44.906,199.868 44.486,200.04 44.108,200.404C43.723,200.776 43.544,201.191 43.544,201.636L43.544,203.696C43.544,204.06 43.652,204.325 43.818,204.508C43.998,204.706 44.259,204.83 44.62,204.83C44.98,204.83 45.241,204.706 45.422,204.508C45.587,204.325 45.695,204.06 45.695,203.696L45.696,201.978L49.453,201.978C49.308,202.157 49.216,202.409 49.216,202.745L49.216,205.359C49.216,205.39 49.219,205.421 49.225,205.452C49.253,205.599 49.292,205.736 49.342,205.861C49.079,205.913 48.841,206.064 48.648,206.342C48.638,206.356 48.629,206.37 48.621,206.385C47.751,207.964 46.394,209.095 44.559,209.791C44.202,209.884 43.973,210.05 43.838,210.245C43.679,210.476 43.623,210.768 43.728,211.126C43.731,211.134 43.733,211.141 43.736,211.149C43.822,211.398 43.968,211.574 44.158,211.69C44.392,211.834 44.719,211.89 45.146,211.788C46.249,211.535 47.332,210.968 48.388,210.077C49.028,210.643 49.884,211.188 50.959,211.708C49.173,212.214 47.086,212.465 44.702,212.465C44.352,212.465 44.098,212.575 43.923,212.744C43.742,212.919 43.626,213.171 43.626,213.52C43.626,213.854 43.749,214.095 43.952,214.262C44.118,214.399 44.359,214.492 44.688,214.495ZM135.295,196.439C135.28,196.46 135.267,196.483 135.255,196.507C134.544,197.984 133.86,199.408 133.203,200.78C131.719,203.692 130.236,206.869 128.753,210.31L128.096,211.814C128.091,211.826 128.086,211.838 128.082,211.85C127.955,212.215 127.959,212.539 128.064,212.822C128.168,213.102 128.375,213.352 128.707,213.552C128.744,213.575 128.784,213.592 128.826,213.604C129.24,213.724 129.592,213.694 129.881,213.554C130.171,213.415 130.413,213.159 130.578,212.76C131.009,211.723 131.44,210.761 131.87,209.878C132.821,208.2 133.789,206.955 134.788,206.144C134.793,206.14 134.797,206.137 134.802,206.133C135.837,205.23 136.759,204.75 137.597,204.75C137.88,204.75 138.111,204.805 138.281,204.943C138.562,205.17 138.659,205.583 138.659,206.152C138.659,206.719 138.55,207.724 138.335,209.168L138.335,209.169C138.277,209.565 138.248,209.932 138.248,210.271C138.248,211.428 138.663,212.37 139.485,213.101C139.504,213.118 139.525,213.134 139.546,213.148C140.29,213.626 141.065,213.861 141.872,213.861C142.916,213.861 143.837,213.563 144.636,212.971C144.641,212.967 144.646,212.963 144.651,212.959C145.358,212.392 146.016,211.436 146.606,210.074C146.609,210.067 146.613,210.059 146.616,210.05C147.124,208.686 147.436,207.267 147.55,205.794C147.55,205.781 147.551,205.768 147.551,205.756C147.551,205.408 147.454,205.142 147.296,204.947C147.127,204.737 146.881,204.593 146.543,204.547C146.538,204.547 146.534,204.546 146.529,204.546C146.126,204.502 145.818,204.593 145.594,204.765C145.364,204.943 145.202,205.22 145.157,205.62C144.947,207.385 144.534,208.853 143.907,210.016C143.311,210.986 142.684,211.514 141.954,211.514C141.629,211.514 141.36,211.468 141.153,211.354C140.789,211.114 140.645,210.692 140.645,210.113C140.645,209.833 140.669,209.576 140.717,209.343C140.718,209.337 140.72,209.331 140.721,209.324C141.001,207.649 141.139,206.433 141.139,205.677C141.139,204.684 140.863,203.914 140.349,203.357C140.348,203.356 140.347,203.356 140.347,203.355C139.764,202.73 138.961,202.403 137.926,202.403C137.129,202.403 136.331,202.634 135.533,203.107C135.143,203.318 134.723,203.587 134.281,203.908C134.633,203.211 134.98,202.561 135.32,201.961C135.324,201.954 135.328,201.946 135.331,201.939C136.098,200.409 136.836,198.959 137.547,197.588C137.555,197.572 137.563,197.556 137.569,197.54C137.708,197.184 137.699,196.872 137.584,196.605C137.474,196.352 137.259,196.125 136.91,195.956C136.878,195.941 136.844,195.929 136.81,195.921C136.132,195.758 135.634,195.95 135.295,196.439ZM112.776,196.611C112.584,197.446 112.37,198.28 112.135,199.115C110.841,199.252 109.594,199.345 108.393,199.393C108.384,199.393 108.374,199.394 108.365,199.395C107.955,199.435 107.655,199.573 107.45,199.771C107.222,199.99 107.091,200.291 107.091,200.685C107.091,200.707 107.093,200.728 107.095,200.749C107.133,201.04 107.247,201.269 107.421,201.444C107.648,201.673 108,201.819 108.495,201.819C108.509,201.819 108.523,201.819 108.537,201.818C109.538,201.734 110.522,201.65 111.489,201.566C110.805,203.665 110.121,205.468 109.437,206.975C108.682,208.639 107.873,210.121 107.01,211.421C107,211.436 106.99,211.452 106.982,211.468C106.811,211.799 106.771,212.111 106.836,212.401C106.898,212.682 107.063,212.951 107.355,213.193C107.386,213.219 107.42,213.24 107.457,213.258C107.799,213.423 108.123,213.451 108.423,213.368C108.705,213.29 108.977,213.108 109.219,212.798C109.233,212.779 109.246,212.76 109.258,212.74C110.089,211.297 110.866,209.721 111.586,208.011C112.226,206.672 113.054,204.399 114.061,201.201C115.012,201.028 115.897,200.917 116.717,200.869C117.489,200.872 118.095,201.148 118.543,201.708C118.996,202.293 119.176,203.542 119.176,205.438C119.176,207.552 118.932,209.114 118.409,210.121C117.97,210.967 117.401,211.425 116.659,211.435C115.668,211.383 114.54,211 113.254,210.307C113.227,210.292 113.199,210.28 113.17,210.271C112.538,210.067 112.139,210.259 111.924,210.658C111.77,210.913 111.736,211.162 111.789,211.394C111.839,211.609 111.97,211.824 112.217,212.015C112.854,212.515 113.608,212.937 114.481,213.274C115.366,213.615 116.164,213.781 116.872,213.782C118.736,213.84 120.056,212.9 120.801,210.923C120.802,210.921 120.803,210.918 120.804,210.915C121.369,209.336 121.655,207.458 121.655,205.28C121.655,202.731 121.114,200.959 120.115,199.939C120.112,199.936 120.108,199.932 120.105,199.929C119.249,199.104 118.123,198.68 116.716,198.68C116.398,198.68 115.729,198.732 114.71,198.838C114.897,198.228 115.069,197.618 115.227,197.008C115.232,196.99 115.235,196.972 115.238,196.955C115.289,196.611 115.207,196.333 115.029,196.112C114.876,195.923 114.635,195.767 114.285,195.683C114.281,195.682 114.277,195.681 114.272,195.68C113.873,195.594 113.554,195.652 113.31,195.802C113.059,195.956 112.867,196.217 112.776,196.612L112.776,196.611ZM89.213,206.494C89.94,205.755 90.961,205.291 92.266,205.077C92.046,205.79 91.797,206.474 91.517,207.131C91.194,207.804 90.82,208.525 90.393,209.297C90.046,209.846 89.713,210.251 89.381,210.512C89.126,210.712 88.883,210.821 88.638,210.803C88.626,210.802 88.614,210.801 88.601,210.801C88.348,210.801 88.174,210.664 88.061,210.413C87.947,210.158 87.888,209.817 87.868,209.393C87.872,208.446 88.332,207.488 89.209,206.498L89.213,206.494ZM50.917,209.266L56.693,209.266C55.778,209.849 54.851,210.299 53.912,210.616C52.913,210.273 51.915,209.823 50.917,209.266ZM79.212,210.332C78.63,209.853 78.148,209.366 77.769,208.87L80.431,208.87C80.091,209.403 79.685,209.89 79.212,210.332ZM69.108,200.71C69.11,200.728 69.111,200.748 69.111,200.765C69.111,204.204 68.799,206.763 68.148,208.439C67.826,208.243 67.469,208.025 67.077,207.785L67.027,207.761C67.031,207.728 67.038,207.678 67.049,207.641C67.051,207.632 67.054,207.623 67.056,207.614C67.625,205.22 68.025,202.918 68.255,200.71L69.108,200.71ZM121.014,197.437C120.984,197.46 120.958,197.486 120.934,197.514C120.564,197.961 120.538,198.453 120.908,198.988C120.919,199.005 120.931,199.02 120.944,199.035C121.836,200.046 122.52,201.132 122.992,202.295C123.52,203.671 123.84,204.893 123.946,205.963C123.947,205.981 123.95,205.998 123.954,206.016C124.037,206.418 124.212,206.7 124.442,206.881C124.686,207.073 125.003,207.167 125.402,207.124C125.797,207.082 126.086,206.927 126.284,206.693C126.474,206.47 126.588,206.162 126.588,205.756C126.588,205.742 126.587,205.728 126.586,205.714C126.472,204.338 126.102,202.962 125.474,201.586C125.471,201.581 125.469,201.575 125.466,201.57C124.618,199.879 123.681,198.518 122.663,197.482C122.629,197.448 122.59,197.418 122.548,197.395C121.951,197.066 121.44,197.108 121.014,197.437ZM47.932,202.124C47.569,201.974 47.269,202.001 47.035,202.126C46.82,202.241 46.633,202.458 46.531,202.816C46.214,203.516 45.717,204.317 45.041,205.218C45.032,205.23 45.024,205.242 45.017,205.254C44.865,205.498 44.817,205.733 44.842,205.952C44.868,206.175 44.971,206.392 45.176,206.591C45.2,206.614 45.226,206.635 45.254,206.653C45.526,206.827 45.791,206.89 46.04,206.868C46.295,206.846 46.544,206.735 46.775,206.512C47.484,205.829 48.053,204.839 48.467,203.529C48.469,203.521 48.472,203.513 48.474,203.505C48.58,203.098 48.54,202.783 48.424,202.56C48.323,202.363 48.162,202.214 47.932,202.124ZM52.391,201.978L51.131,201.978C51.275,202.157 51.368,202.409 51.368,202.745L51.368,204.78L53.585,204.78L53.561,204.743C53.138,204.028 52.793,203.491 52.531,203.136C52.336,202.897 52.258,202.663 52.258,202.448C52.258,202.287 52.299,202.129 52.391,201.978ZM61.136,202.752L61.136,201.978L60.387,201.978L60.513,202.077C60.739,202.305 60.947,202.53 61.136,202.752ZM75.807,198.566C75.371,198.587 74.94,198.605 74.513,198.618C74.96,199.103 75.379,199.615 75.77,200.153C75.781,200.167 75.79,200.182 75.799,200.198C76.06,200.651 76.086,201.036 75.971,201.339C75.91,201.498 75.808,201.644 75.658,201.769L77.282,201.769C77.143,201.663 77.017,201.52 76.908,201.335C76.907,201.333 76.905,201.33 76.904,201.328C76.579,200.756 76.256,200.21 75.932,199.69C75.751,199.422 75.687,199.161 75.71,198.915C75.721,198.797 75.752,198.68 75.807,198.566ZM81.104,198.131C79.944,198.262 78.813,198.368 77.71,198.449L77.728,198.47C78.124,198.96 78.548,199.587 79.002,200.351C79.016,200.375 79.028,200.399 79.038,200.425C79.175,200.777 79.172,201.076 79.08,201.318C79.015,201.49 78.904,201.644 78.737,201.769L79.819,201.769C79.728,201.642 79.67,201.502 79.642,201.353C79.598,201.121 79.628,200.856 79.758,200.562C79.77,200.536 79.784,200.511 79.799,200.487C80.272,199.779 80.64,199.097 80.902,198.44C80.912,198.416 80.923,198.392 80.936,198.37C80.989,198.281 81.045,198.201 81.104,198.131ZM52.05,198.149C50.79,198.19 49.541,198.218 48.305,198.235L48.355,198.283C48.81,198.77 49.158,199.299 49.401,199.868L52.527,199.868C52.391,199.655 52.248,199.441 52.1,199.226C52.089,199.209 52.078,199.192 52.068,199.173C51.918,198.885 51.892,198.629 51.942,198.414C51.964,198.321 51.999,198.232 52.05,198.149ZM58.727,197.804C57.734,197.883 56.63,197.954 55.414,198.015L54.039,198.076C54.51,198.635 54.902,199.233 55.214,199.868L57.192,199.868C57.691,199.196 58.189,198.524 58.686,197.852L58.727,197.804ZM34.588,170.446L34.588,189.446C34.588,190.251 35.242,190.906 36.048,190.906C36.854,190.906 37.508,190.251 37.508,189.446L37.508,170.446C37.508,169.64 36.854,168.986 36.048,168.986C35.242,168.986 34.588,169.64 34.588,170.446ZM153.588,169.446L153.588,188.446C153.588,189.251 154.242,189.906 155.048,189.906C155.854,189.906 156.508,189.251 156.508,188.446L156.508,169.446C156.508,168.64 155.854,167.986 155.048,167.986C154.242,167.986 153.588,168.64 153.588,169.446ZM181.588,168.446L181.588,187.446C181.588,188.251 182.242,188.906 183.048,188.906C183.854,188.906 184.508,188.251 184.508,187.446L184.508,168.446C184.508,167.64 183.854,166.986 183.048,166.986C182.242,166.986 181.588,167.64 181.588,168.446ZM150.5,167.796L40.102,167.796C39.296,167.796 38.642,168.45 38.642,169.256C38.642,170.061 39.296,170.716 40.102,170.716L150.5,170.716C151.306,170.716 151.96,170.061 151.96,169.256C151.96,168.45 151.306,167.796 150.5,167.796ZM181.588,144.446L181.588,163.446C181.588,164.251 182.242,164.906 183.048,164.906C183.854,164.906 184.508,164.251 184.508,163.446L184.508,144.446C184.508,143.64 183.854,142.986 183.048,142.986C182.242,142.986 181.588,143.64 181.588,144.446ZM62.413,163.299L80.972,163.299C81.322,163.299 81.63,163.176 81.893,162.926C82.166,162.666 82.296,162.358 82.296,162.008C82.296,161.657 82.166,161.35 81.893,161.09C81.63,160.84 81.322,160.717 80.972,160.717L62.413,160.717C62.062,160.717 61.754,160.84 61.492,161.09C61.219,161.35 61.089,161.657 61.089,162.008C61.089,162.358 61.219,162.666 61.492,162.926C61.755,163.176 62.062,163.299 62.413,163.299ZM151.313,142.831L131.194,160.368C130.587,160.898 130.524,161.821 131.053,162.428C131.583,163.035 132.506,163.099 133.113,162.569L153.232,145.032C153.84,144.503 153.903,143.58 153.373,142.972C152.844,142.365 151.921,142.302 151.313,142.831ZM178.313,142.831L158.194,160.368C157.587,160.898 157.524,161.821 158.053,162.428C158.583,163.035 159.506,163.099 160.113,162.569L180.232,145.032C180.84,144.503 180.903,143.58 180.373,142.972C179.844,142.365 178.921,142.302 178.313,142.831ZM105.313,142.831L85.194,160.368C84.587,160.898 84.524,161.821 85.053,162.428C85.583,163.035 86.506,163.099 87.113,162.569L107.232,145.032C107.84,144.503 107.903,143.58 107.373,142.972C106.844,142.365 105.921,142.302 105.313,142.831ZM59.313,142.831L39.194,160.368C38.587,160.898 38.524,161.821 39.053,162.428C39.583,163.035 40.506,163.099 41.113,162.569L61.232,145.032C61.84,144.503 61.903,143.58 61.373,142.972C60.844,142.365 59.921,142.302 59.313,142.831ZM108.895,162.377L126.49,162.377C126.863,162.377 127.18,162.246 127.442,161.984C127.705,161.721 127.835,161.407 127.835,161.043C127.835,160.676 127.7,160.358 127.422,160.092C127.149,159.832 126.837,159.708 126.49,159.708L108.895,159.708C108.522,159.708 108.204,159.84 107.943,160.101C107.679,160.365 107.55,160.679 107.55,161.043C107.55,161.41 107.685,161.728 107.963,161.993C108.236,162.254 108.548,162.377 108.895,162.377ZM65.111,143.408C64.737,143.408 64.42,143.54 64.159,143.801L64.158,143.801C63.897,144.063 63.765,144.38 63.765,144.754L63.765,156.732C63.765,157.106 63.897,157.423 64.159,157.684C64.42,157.946 64.737,158.078 65.111,158.078L78.274,158.078C78.647,158.078 78.965,157.946 79.226,157.684C79.488,157.423 79.619,157.106 79.619,156.732L79.619,144.754C79.619,144.38 79.488,144.063 79.226,143.801C78.965,143.54 78.647,143.408 78.274,143.408L65.111,143.408ZM66.632,152.001L66.632,155.496L76.753,155.496L76.753,152.001L66.632,152.001ZM111.725,151.613C111.375,151.613 111.067,151.735 110.804,151.986C110.536,152.241 110.402,152.555 110.402,152.926C110.402,153.289 110.531,153.604 110.795,153.867C111.06,154.132 111.372,154.26 111.725,154.26L123.659,154.26C124.04,154.26 124.357,154.124 124.61,153.857C124.859,153.597 124.983,153.286 124.983,152.926C124.983,152.555 124.849,152.241 124.58,151.986C124.317,151.735 124.01,151.613 123.659,151.613L111.725,151.613ZM66.632,146.012L66.632,149.441L76.753,149.441L76.753,146.012L66.632,146.012ZM125.939,144.953C125.664,144.678 125.348,144.549 124.998,144.549L110.387,144.549C110.037,144.549 109.721,144.678 109.446,144.953C109.172,145.226 109.041,145.545 109.041,145.906C109.041,146.272 109.176,146.59 109.455,146.856C109.727,147.116 110.04,147.24 110.387,147.24L124.998,147.24C125.345,147.24 125.657,147.116 125.93,146.856C126.208,146.59 126.343,146.272 126.343,145.906C126.343,145.545 126.212,145.226 125.939,144.953ZM93.932,121.477C92.222,121.721 90.506,122.542 89.105,123.944C85.958,127.094 85.742,131.836 88.419,134.511L88.419,134.512C89.184,135.276 90.118,135.804 91.135,136.094L90.774,137.981C90.622,138.773 91.142,139.538 91.933,139.69C92.725,139.841 93.49,139.322 93.642,138.53L94.069,136.296C95.808,136.068 97.56,135.243 98.985,133.817L98.986,133.817C102.134,130.666 102.348,125.924 99.672,123.25C98.886,122.465 97.922,121.929 96.873,121.644L97.456,118.6C97.607,117.809 97.088,117.043 96.296,116.892C95.505,116.74 94.739,117.26 94.588,118.051L93.932,121.477ZM141.5,136.796L103.102,136.796C102.296,136.796 101.642,137.45 101.642,138.256C101.642,139.061 102.296,139.716 103.102,139.716L141.5,139.716C142.306,139.716 142.96,139.061 142.96,138.256C142.96,137.45 142.306,136.796 141.5,136.796ZM85.5,136.796L65.102,136.796C64.296,136.796 63.642,137.45 63.642,138.256C63.642,139.061 64.296,139.716 65.102,139.716L85.5,139.716C86.306,139.716 86.96,139.061 86.96,138.256C86.96,137.45 86.306,136.796 85.5,136.796ZM183.5,135.796L171.102,135.796C170.296,135.796 169.642,136.45 169.642,137.256C169.642,138.061 170.296,138.716 171.102,138.716L183.5,138.716C184.306,138.716 184.96,138.061 184.96,137.256C184.96,136.45 184.306,135.796 183.5,135.796ZM164.899,117.708C168.545,122.969 168.772,128.228 164.921,133.488C164.445,134.138 164.586,135.053 165.236,135.529C165.886,136.005 166.801,135.863 167.277,135.213C171.955,128.823 171.728,122.435 167.299,116.045C166.84,115.383 165.929,115.218 165.267,115.677C164.605,116.136 164.44,117.046 164.899,117.708ZM144.792,126.956C144.792,126.956 144.792,126.991 144.792,126.959C144.792,127.025 144.793,127.09 144.794,127.156C144.9,131.141 148.163,134.341 152.174,134.341L159.534,134.341C160.34,134.341 160.994,133.686 160.994,132.881C160.994,132.075 160.34,131.421 159.534,131.421L152.174,131.421C149.71,131.421 147.713,129.422 147.712,126.958C147.712,127.346 147.712,127.761 147.712,126.956C147.712,124.672 149.563,122.822 151.846,122.822L159.534,122.822C160.34,122.822 160.994,122.167 160.994,121.362C160.994,120.556 160.34,119.902 159.534,119.902L151.846,119.902C147.951,119.902 144.792,123.059 144.792,126.956ZM93.333,124.609L91.685,133.221C91.242,133.053 90.834,132.796 90.483,132.446C88.846,130.81 89.247,127.934 91.171,126.008C91.813,125.365 92.561,124.893 93.333,124.609ZM96.325,124.51C96.799,124.677 97.236,124.944 97.608,125.316C99.244,126.95 98.845,129.826 96.92,131.753C96.252,132.421 95.47,132.906 94.665,133.185L96.325,124.51ZM96.379,92.746C91.95,99.135 91.723,105.524 96.401,111.914C96.877,112.564 97.791,112.706 98.441,112.23C99.091,111.754 99.233,110.84 98.757,110.189C94.906,104.929 95.133,99.669 98.779,94.409C99.238,93.747 99.073,92.837 98.411,92.378C97.748,91.919 96.838,92.084 96.379,92.746ZM162.331,94.41C165.977,99.669 166.204,104.929 162.353,110.189C161.877,110.839 162.018,111.754 162.668,112.23C163.318,112.706 164.233,112.564 164.709,111.914C169.387,105.524 169.16,99.135 164.731,92.746C164.271,92.084 163.361,91.919 162.699,92.378C162.037,92.837 161.872,93.747 162.331,94.41ZM130.717,100.407C130.722,100.418 130.728,100.43 130.734,100.441L135.504,109.982C135.752,110.477 136.259,110.79 136.813,110.79C137.367,110.79 137.873,110.477 138.121,109.982L142.891,100.441C142.897,100.43 142.903,100.418 142.908,100.407L144.778,96.668C145.139,95.946 144.846,95.067 144.124,94.706C143.402,94.345 142.522,94.638 142.161,95.36L140.687,98.309L132.938,98.309L131.464,95.36C131.103,94.638 130.224,94.345 129.502,94.706C128.78,95.067 128.487,95.946 128.848,96.668L130.717,100.407ZM139.225,101.234L134.401,101.234L136.813,106.058L139.225,101.234ZM119.134,99.402C120.282,99.402 121.214,100.334 121.214,101.482C121.214,102.63 120.282,103.563 119.134,103.563C117.986,103.563 117.054,102.63 117.054,101.482C117.054,100.334 117.986,99.402 119.134,99.402ZM152.915,99.402C154.063,99.402 154.995,100.334 154.995,101.482C154.995,102.63 154.063,103.563 152.915,103.563C151.767,103.563 150.835,102.63 150.835,101.482C150.835,100.334 151.767,99.402 152.915,99.402ZM119.214,89.213L140.017,89.213C140.823,89.213 141.477,88.558 141.477,87.753C141.477,86.947 140.823,86.293 140.017,86.293L119.214,86.293C118.408,86.293 117.754,86.947 117.754,87.753C117.754,88.558 118.408,89.213 119.214,89.213ZM102.115,85.823L108.282,72.803L114.45,85.823C114.795,86.552 115.668,86.864 116.398,86.518C117.127,86.173 117.439,85.3 117.093,84.571L109.604,68.76C109.362,68.25 108.848,67.924 108.282,67.924C107.717,67.924 107.203,68.25 106.961,68.76L99.472,84.571C99.126,85.3 99.438,86.173 100.167,86.518C100.897,86.864 101.77,86.552 102.115,85.823ZM146.371,85.823L152.538,72.803L158.705,85.823C159.051,86.552 159.924,86.864 160.653,86.518C161.382,86.173 161.694,85.3 161.349,84.571L153.86,68.76C153.618,68.25 153.103,67.924 152.538,67.924C151.973,67.924 151.458,68.25 151.216,68.76L143.727,84.571C143.382,85.3 143.693,86.173 144.423,86.518C145.152,86.864 146.025,86.552 146.371,85.823Z"/>
    </g>
</svg>
