<?xml version="1.0" encoding="UTF-8" standalone="no"?>
<!DOCTYPE svg PUBLIC "-//W3C//DTD SVG 1.1//EN" "http://www.w3.org/Graphics/SVG/1.1/DTD/svg11.dtd">
<svg width="56px" height="87px" version="1.1" xmlns="http://www.w3.org/2000/svg" xmlns:xlink="http://www.w3.org/1999/xlink" xml:space="preserve" xmlns:serif="http://www.serif.com/" style="fill-rule:evenodd;clip-rule:evenodd;stroke-linejoin:round;stroke-miterlimit:2;">
    <g transform="matrix(0.592244,0,0,0.592244,-42.4837,-14.5788)">
        <path d="M120.28,147.022C125.132,154.022 125.405,161.022 120.28,168.022C119.628,169.227 118.035,169.894 115.5,170.022L83,170.022C81.341,170.039 79.682,169.351 78.022,168.022C72.897,161.022 72.148,154.022 77,147.022C80.046,143.564 82.105,140.971 83,139.396C88.125,132.396 87.852,125.396 83,118.396L77,110C71.875,103 72.148,96 77,89C78.668,86.667 78.775,84.333 77,82C71.875,75 71.308,68 76.161,61L80,51L89,32L97.935,50.484C99.513,52.003 101.52,52.663 103.958,52.461L128.958,52.461C131.034,52.636 132.72,52.03 133.935,50.484L143,32L152,51L156.968,61C161.82,68 161.383,75 156.258,82C154.564,84.854 154.455,87.221 156.258,89C161.11,96 161.383,103 156.258,110C154.189,112.458 152.674,113.899 151.432,114.842C157.392,121.907 159.433,133.17 153.075,140.098C155.681,141.553 158.805,143.681 161.022,147.022C165.875,154.022 166.148,161.022 161.022,168.022C159.814,169.607 158.037,170.053 156.022,170.022L131.022,170.022C126.159,168.94 124.09,165.063 123.934,159.274" style="fill:white;"/>
    </g>
    <g transform="matrix(0.605503,0,0,0.605503,-35.4722,-21.3608)">
        <path d="M116.574,178.96L141.026,178.96C141.832,178.96 142.486,178.306 142.486,177.5C142.486,176.694 141.832,176.04 141.026,176.04L116.574,176.04C115.768,176.04 115.114,176.694 115.114,177.5C115.114,178.306 115.768,178.96 116.574,178.96ZM101.391,176.04L69.603,176.04C68.797,176.04 68.143,176.694 68.143,177.5C68.143,178.306 68.797,178.96 69.603,178.96L101.391,178.96C102.197,178.96 102.851,178.306 102.851,177.5C102.851,176.694 102.197,176.04 101.391,176.04ZM63.534,154.172C58.397,161.583 58.129,168.995 63.556,176.406C64.032,177.057 64.946,177.198 65.596,176.722C66.247,176.246 66.388,175.332 65.912,174.682C61.313,168.399 61.579,162.117 65.934,155.836C66.393,155.174 66.228,154.263 65.566,153.804C64.904,153.345 63.993,153.51 63.534,154.172ZM104.866,155.836C109.222,162.117 109.487,168.399 104.888,174.682C104.412,175.332 104.553,176.246 105.204,176.722C105.854,177.198 106.768,177.057 107.244,176.406C112.671,168.995 112.404,161.583 107.266,154.172C106.807,153.51 105.896,153.345 105.234,153.804C104.572,154.263 104.407,155.174 104.866,155.836ZM144.717,155.836C149.072,162.117 149.338,168.399 144.739,174.682C144.263,175.332 144.404,176.246 145.055,176.722C145.705,177.198 146.619,177.057 147.095,176.406C152.522,168.995 152.254,161.583 147.117,154.172C146.658,153.51 145.747,153.345 145.085,153.804C144.423,154.263 144.258,155.174 144.717,155.836ZM68.403,127.836C72.758,134.117 73.024,140.399 68.425,146.682C67.949,147.332 68.09,148.246 68.741,148.722C69.391,149.198 70.305,149.057 70.781,148.406C76.208,140.995 75.94,133.583 70.803,126.172C70.344,125.51 69.433,125.345 68.771,125.804C68.109,126.263 67.944,127.174 68.403,127.836ZM107.635,127.836C111.99,134.117 112.256,140.399 107.657,146.682C107.181,147.332 107.322,148.246 107.973,148.722C108.623,149.198 109.537,149.057 110.013,148.406C115.44,140.995 115.172,133.583 110.035,126.172C109.576,125.51 108.665,125.345 108.003,125.804C107.341,126.263 107.176,127.174 107.635,127.836ZM137.226,127.836C141.581,134.117 141.847,140.399 137.248,146.682C136.772,147.332 136.913,148.246 137.564,148.722C138.214,149.198 139.128,149.057 139.604,148.406C145.031,140.995 144.763,133.583 139.626,126.172C139.167,125.51 138.256,125.345 137.594,125.804C136.932,126.263 136.767,127.174 137.226,127.836ZM140.056,99.084C144.411,105.366 144.677,111.647 140.078,117.93C139.602,118.58 139.743,119.494 140.394,119.97C141.044,120.446 141.958,120.305 142.434,119.654C147.861,112.243 147.593,104.832 142.456,97.42C141.997,96.758 141.087,96.593 140.424,97.052C139.762,97.511 139.597,98.421 140.056,99.084ZM62.534,97.42C57.397,104.832 57.129,112.243 62.556,119.654C63.032,120.305 63.946,120.446 64.596,119.97C65.247,119.494 65.388,118.58 64.912,117.93C60.313,111.647 60.579,105.366 64.934,99.084C65.393,98.421 65.228,97.511 64.566,97.052C63.903,96.593 62.993,96.758 62.534,97.42ZM78.235,106.904C81.055,106.101 83.503,104.866 85.774,104.198C87.604,103.66 89.298,103.514 91.002,104.699C91.721,105.199 92.218,105.773 92.546,106.38C93.121,107.469 93.217,108.748 92.811,109.911C92.405,111.076 91.533,112.019 90.403,112.513C90.4,112.515 90.397,112.516 90.394,112.517C88.841,113.209 87.105,113.88 84.734,114.043C83.93,114.099 83.323,114.797 83.378,115.601C83.434,116.405 84.132,117.012 84.936,116.957C87.717,116.764 89.759,115.997 91.582,115.185C93.452,114.364 94.896,112.801 95.569,110.873C96.242,108.942 96.081,106.817 95.124,105.009C95.123,105.006 95.121,105.003 95.119,105C94.597,104.03 93.817,103.1 92.668,102.301C90.147,100.549 87.658,100.601 84.951,101.396C82.686,102.062 80.247,103.295 77.435,104.096C76.66,104.317 76.21,105.125 76.431,105.9C76.652,106.675 77.46,107.125 78.235,106.904ZM124.835,100.04L115.495,100.04C113.341,100.04 111.275,100.896 109.753,102.419C108.23,103.941 107.375,106.007 107.375,108.16L107.375,108.162C107.375,110.23 108.196,112.213 109.659,113.676L109.659,113.677C111.122,115.138 113.105,115.96 115.173,115.96L124.835,115.96C125.641,115.96 126.295,115.306 126.295,114.5C126.295,113.694 125.641,113.04 124.835,113.04L115.173,113.04C113.879,113.04 112.638,112.526 111.723,111.611C110.808,110.696 110.295,109.456 110.295,108.162L110.295,108.16C110.295,106.781 110.842,105.459 111.817,104.483C112.793,103.508 114.115,102.96 115.495,102.96L124.835,102.96C125.641,102.96 126.295,102.306 126.295,101.5C126.295,100.694 125.641,100.04 124.835,100.04ZM140.056,71.697C144.411,77.979 144.677,84.26 140.078,90.543C139.602,91.193 139.743,92.107 140.394,92.583C141.044,93.059 141.958,92.918 142.434,92.267C147.861,84.856 147.593,77.445 142.456,70.033C141.997,69.371 141.087,69.206 140.424,69.665C139.762,70.124 139.597,71.034 140.056,71.697ZM62.534,70.033C57.397,77.445 57.129,84.856 62.556,92.267C63.032,92.918 63.946,93.059 64.596,92.583C65.247,92.107 65.388,91.193 64.912,90.543C60.313,84.26 60.579,77.979 64.934,71.697C65.393,71.034 65.228,70.124 64.566,69.665C63.903,69.206 62.993,69.371 62.534,70.033ZM104.766,77.88L110.377,89.102C110.624,89.597 111.13,89.909 111.683,89.909C112.236,89.909 112.742,89.597 112.989,89.102L118.596,77.887L118.616,77.849L118.62,77.839L120.814,73.452C121.174,72.731 120.882,71.853 120.161,71.493C119.44,71.133 118.562,71.425 118.202,72.146L116.397,75.756L106.969,75.756L105.164,72.146C104.803,71.425 103.926,71.133 103.205,71.493C102.484,71.854 102.192,72.731 102.552,73.452L104.76,77.869L104.766,77.88ZM114.937,78.676L108.429,78.676L111.683,85.184L114.937,78.676ZM95.615,71.538L92.202,68.126C91.632,67.556 90.708,67.557 90.138,68.127L86.726,71.539C86.156,72.108 86.156,73.034 86.726,73.603C87.295,74.173 88.221,74.173 88.79,73.603L91.17,71.224L93.551,73.604C94.121,74.173 95.046,74.173 95.616,73.603C96.185,73.033 96.185,72.108 95.615,71.538ZM135.022,71.538L131.609,68.126C131.039,67.556 130.115,67.557 129.545,68.127L126.133,71.539C125.563,72.108 125.563,73.034 126.133,73.603C126.702,74.173 127.628,74.173 128.197,73.603L130.577,71.224L132.958,73.604C133.528,74.173 134.453,74.173 135.023,73.603C135.592,73.033 135.592,72.108 135.022,71.538ZM90.165,64.478L114.617,64.478C115.423,64.478 116.077,63.824 116.077,63.018C116.077,62.212 115.423,61.558 114.617,61.558L90.165,61.558C89.359,61.558 88.705,62.212 88.705,63.018C88.705,63.824 89.359,64.478 90.165,64.478ZM120.805,61.709L128.289,45.91L135.773,61.709C136.117,62.437 136.989,62.748 137.717,62.403C138.445,62.059 138.756,61.187 138.411,60.459L129.608,41.875C129.367,41.365 128.853,41.04 128.289,41.04C127.725,41.04 127.211,41.365 126.97,41.875L118.167,60.459C117.822,61.187 118.133,62.059 118.861,62.403C119.589,62.748 120.461,62.437 120.805,61.709ZM67.987,61.709L75.471,45.91L82.955,61.709C83.299,62.437 84.171,62.748 84.899,62.403C85.627,62.059 85.938,61.187 85.593,60.459L76.79,41.875C76.549,41.365 76.035,41.04 75.471,41.04C74.907,41.04 74.393,41.365 74.152,41.875L65.349,60.459C65.004,61.187 65.315,62.059 66.043,62.403C66.771,62.748 67.643,62.437 67.987,61.709Z"/>
    </g>
</svg>
