<?xml version="1.0" encoding="UTF-8" standalone="no"?>
<!DOCTYPE svg PUBLIC "-//W3C//DTD SVG 1.1//EN" "http://www.w3.org/Graphics/SVG/1.1/DTD/svg11.dtd">
<svg width="102px" height="53px" version="1.1" xmlns="http://www.w3.org/2000/svg" xmlns:xlink="http://www.w3.org/1999/xlink" xml:space="preserve" xmlns:serif="http://www.serif.com/" style="fill-rule:evenodd;clip-rule:evenodd;stroke-linejoin:round;stroke-miterlimit:2;">
    <g transform="matrix(-0.626371,0,0,0.501097,108.797,-8.98443)">
        <path d="M148.905,102.901L148.905,113.548C148.905,118.292 146.077,122.137 142.588,122.137L142.586,122.137C139.3,122.137 136.635,118.514 136.635,114.045L136.635,104.097C136.635,102.324 135.485,100.887 134.067,100.887L133,100.887C131.582,100.887 130.433,102.324 130.433,104.097L130.433,113.548C130.433,118.292 127.605,122.137 124.116,122.137L124.114,122.137C120.828,122.137 118.163,118.514 118.163,114.045L118.163,100.503C118.163,99.442 117.826,98.423 117.225,97.672C116.624,96.922 115.81,96.5 114.96,96.5L73.277,96.5C70.515,96.5 68.277,99.298 68.277,102.75L68.277,113.548C68.277,118.292 65.449,122.137 61.96,122.137L61.958,122.137C58.672,122.137 56.007,118.514 56.007,114.045L56.007,104.577C56.007,103.332 55.612,102.138 54.907,101.257C54.203,100.377 53.248,99.882 52.252,99.882L46.321,99.882C44.247,99.882 42.566,101.984 42.566,104.577L42.566,113.548C42.566,118.292 39.738,122.137 36.249,122.137L36.247,122.137C32.961,122.137 30.296,118.514 30.296,114.045L30.296,101.438C30.296,98.669 28.838,96.23 26.713,95.445C21.346,93.532 18.069,90.465 16.083,86.691C10.958,77.941 10.878,68.75 15.731,60L21.301,45.457L29.85,22.896L38.4,45.457C44.55,44.55 50.809,44.536 57.184,45.457L65.734,22.896L74.283,45.457C74.847,48.503 76.264,52.074 76.706,57.199L118.485,57.199C128.332,55.739 136.758,56.309 143,60L147,65C151.027,70.795 153.751,84.226 148.905,102.901Z" style="fill:white;"/>
    </g>
    <g transform="matrix(0.626371,0,0,0.626371,-18.1934,-83.7957)">
        <path d="M60.152,218.394L60.337,218.392C64.201,218.287 67.354,214.897 67.354,210.671L67.354,201.755C67.354,201.066 66.794,200.506 66.105,200.506C65.415,200.506 64.855,201.066 64.855,201.755L64.855,210.671C64.855,213.528 62.78,215.895 60.153,215.895L60.146,215.895C57.323,215.895 55.085,213.35 55.085,210.273L55.085,201.755C55.085,201.066 54.525,200.506 53.835,200.506C53.145,200.506 52.585,201.066 52.585,201.755L52.585,210.273C52.585,214.786 56.002,218.394 60.152,218.394ZM140.78,218.394L140.965,218.392C144.829,218.287 147.982,214.897 147.982,210.671L147.982,201.755C147.982,201.066 147.422,200.506 146.733,200.506C146.043,200.506 145.483,201.066 145.483,201.755L145.483,210.671C145.483,213.528 143.408,215.895 140.781,215.895L140.769,215.895C137.951,215.895 135.713,213.35 135.713,210.273L135.713,201.755C135.713,201.066 135.153,200.506 134.463,200.506C133.773,200.506 133.213,201.066 133.213,201.755L133.213,210.273C133.213,214.786 136.63,218.394 140.78,218.394ZM78.624,218.394L78.809,218.392C82.673,218.287 85.826,214.897 85.826,210.671L85.826,201.755C85.826,201.066 85.266,200.506 84.577,200.506C83.887,200.506 83.327,201.066 83.327,201.755L83.327,210.671C83.327,213.528 81.252,215.895 78.625,215.895L78.624,215.895C75.795,215.895 73.557,213.35 73.557,210.273L73.557,201.755C73.557,201.066 72.997,200.506 72.307,200.506C71.617,200.506 71.057,201.066 71.057,201.755L71.057,210.273C71.057,214.786 74.474,218.394 78.624,218.394ZM166.491,218.394L166.676,218.392C170.54,218.287 173.693,214.897 173.693,210.671L173.693,201.755C173.693,201.066 173.133,200.506 172.444,200.506C171.754,200.506 171.194,201.066 171.194,201.755L171.194,210.671C171.194,213.528 169.119,215.895 166.492,215.895L166.48,215.895C163.662,215.895 161.424,213.35 161.424,210.273L161.424,201.755C161.424,201.066 160.864,200.506 160.174,200.506C159.484,200.506 158.924,201.066 158.924,201.755L158.924,210.273C158.924,214.786 162.341,218.394 166.491,218.394ZM84.255,197.68L126.034,197.68C126.611,197.68 127.079,197.212 127.079,196.636C127.079,196.059 126.611,195.591 126.034,195.591L84.255,195.591C83.679,195.591 83.211,196.059 83.211,196.636C83.211,197.212 83.679,197.68 84.255,197.68ZM172.086,192.066L172.241,192.066C172.642,192.056 172.984,191.904 173.267,191.605C173.548,191.308 173.691,190.949 173.691,190.525L173.691,186.147C173.691,185.73 173.552,185.368 173.275,185.062C172.982,184.737 172.623,184.578 172.202,184.578L171.489,184.578L171.489,167.538C171.489,167.114 171.346,166.755 171.065,166.458C170.773,166.15 170.417,165.997 170,165.997L160.752,165.997C160.328,165.997 159.975,166.154 159.692,166.468C159.427,166.762 159.29,167.118 159.29,167.538L159.29,168.441C159.29,171.209 159.272,173.307 159.238,174.736C159.204,176.163 159.156,177.471 159.096,178.662C159.038,179.799 158.919,180.681 158.73,181.306C158.541,181.932 158.337,182.475 158.114,182.936C157.904,183.372 157.587,183.919 157.166,184.578L156.918,184.578C156.498,184.578 156.14,184.737 155.845,185.062C155.569,185.368 155.43,185.729 155.43,186.147L155.43,190.525C155.43,190.949 155.573,191.308 155.854,191.605C156.137,191.904 156.479,192.056 156.879,192.066L157.035,192.066C157.435,192.056 157.777,191.904 158.06,191.605C158.341,191.308 158.485,190.949 158.485,190.525L158.485,187.578L170.636,187.578L170.636,190.525C170.636,190.949 170.779,191.308 171.06,191.605C171.343,191.904 171.685,192.056 172.086,192.066ZM131.786,166.956C126.542,174.521 126.269,182.086 131.807,189.65C132.283,190.301 133.198,190.442 133.848,189.966C134.498,189.49 134.64,188.576 134.164,187.926C129.452,181.49 129.725,175.055 134.185,168.62C134.644,167.957 134.479,167.047 133.817,166.588C133.155,166.129 132.245,166.294 131.786,166.956ZM185.456,168.62C189.917,175.055 190.19,181.49 185.478,187.926C185.002,188.576 185.143,189.49 185.794,189.966C186.444,190.442 187.358,190.301 187.834,189.65C193.372,182.086 193.099,174.521 187.856,166.956C187.397,166.294 186.487,166.129 185.824,166.588C185.162,167.047 184.997,167.957 185.456,168.62ZM157.333,184.586L157.333,184.578C157.319,184.578 157.305,184.579 157.291,184.58C157.306,184.582 157.32,184.584 157.333,184.586ZM160.868,184.578C161.593,183.129 162.031,181.696 162.186,180.282C162.356,178.732 162.444,174.971 162.448,168.997L168.253,168.997L168.253,184.578L160.868,184.578ZM29.482,179.774L29.532,179.836C29.579,179.895 29.629,179.938 29.677,179.969C29.932,180.155 30.224,180.233 30.552,180.199C30.891,180.164 31.179,180.019 31.413,179.762C31.414,179.76 31.416,179.758 31.417,179.757C32.374,178.677 33.472,178.124 34.724,178.124C35.731,178.124 36.724,178.599 37.719,179.509C37.72,179.509 37.72,179.51 37.72,179.51C39.183,180.838 40.792,181.494 42.538,181.495C44.724,181.509 46.522,180.671 47.93,178.978C47.936,178.971 47.941,178.964 47.947,178.956C48.156,178.678 48.245,178.36 48.211,178.001C48.176,177.643 48.022,177.347 47.749,177.113L47.624,177.012C47.358,176.795 47.045,176.7 46.682,176.736C46.33,176.771 46.034,176.926 45.799,177.206C45.294,177.771 44.782,178.183 44.257,178.43C43.742,178.672 43.17,178.791 42.54,178.791L42.533,178.791C41.527,178.803 40.537,178.334 39.544,177.427C39.544,177.426 39.543,177.426 39.543,177.426C38.08,176.097 36.472,175.441 34.725,175.441C32.539,175.427 30.741,176.265 29.334,177.957C29.333,177.958 29.332,177.96 29.331,177.961C29.114,178.225 29.017,178.542 29.053,178.914C29.086,179.258 29.229,179.545 29.482,179.774ZM29.635,179.937L29.616,179.921C29.622,179.927 29.629,179.932 29.635,179.937ZM58.706,166.402L54.706,170.402C54.135,170.973 54.135,171.899 54.706,172.47C55.277,173.041 56.203,173.041 56.774,172.47L60.774,168.47C61.345,167.899 61.345,166.973 60.774,166.402C60.203,165.831 59.277,165.831 58.706,166.402ZM179.925,164.102C177.875,164.102 176.211,165.767 176.211,167.817C176.211,169.867 177.875,171.532 179.925,171.532C181.976,171.532 183.64,169.867 183.64,167.817C183.64,165.767 181.976,164.102 179.925,164.102ZM146.665,164.102C144.615,164.102 142.951,165.767 142.951,167.817C142.951,169.867 144.615,171.532 146.665,171.532C148.716,171.532 150.38,169.867 150.38,167.817C150.38,165.767 148.716,164.102 146.665,164.102ZM179.925,166.401C180.707,166.401 181.342,167.035 181.342,167.817C181.342,168.598 180.707,169.233 179.925,169.233C179.144,169.233 178.509,168.598 178.509,167.817C178.509,167.035 179.144,166.401 179.925,166.401ZM146.665,166.401C147.447,166.401 148.082,167.035 148.082,167.817C148.082,168.598 147.447,169.233 146.665,169.233C145.884,169.233 145.249,168.598 145.249,167.817C145.249,167.035 145.884,166.401 146.665,166.401ZM84.255,166.24L126.034,166.24C126.611,166.24 127.079,165.772 127.079,165.195C127.079,164.619 126.611,164.151 126.034,164.151L84.255,164.151C83.679,164.151 83.211,164.619 83.211,165.195C83.211,165.772 83.679,166.24 84.255,166.24ZM129.774,156.427L137.001,141.169L144.229,156.427C144.574,157.157 145.447,157.469 146.177,157.123C146.907,156.777 147.218,155.904 146.873,155.175L138.323,137.126C138.081,136.615 137.566,136.289 137.001,136.289C136.436,136.289 135.921,136.615 135.679,137.126L127.13,155.175C126.784,155.904 127.096,156.777 127.825,157.123C128.555,157.469 129.428,157.157 129.774,156.427ZM165.662,156.427L172.889,141.169L180.117,156.427C180.462,157.157 181.335,157.469 182.065,157.123C182.795,156.777 183.106,155.904 182.761,155.175L174.211,137.126C173.969,136.615 173.454,136.289 172.889,136.289C172.324,136.289 171.809,136.615 171.567,137.126L163.018,155.175C162.672,155.904 162.984,156.777 163.713,157.123C164.443,157.469 165.316,157.157 165.662,156.427Z"/>
    </g>
</svg>
