<?xml version="1.0" encoding="UTF-8" standalone="no"?>
<!DOCTYPE svg PUBLIC "-//W3C//DTD SVG 1.1//EN" "http://www.w3.org/Graphics/SVG/1.1/DTD/svg11.dtd">
<svg width="71px" height="104px" version="1.1" xmlns="http://www.w3.org/2000/svg" xmlns:xlink="http://www.w3.org/1999/xlink" xml:space="preserve" xmlns:serif="http://www.serif.com/" style="fill-rule:evenodd;clip-rule:evenodd;stroke-linejoin:round;stroke-miterlimit:2;">
    <g transform="matrix(0.617802,0,0,0.617802,-32.7007,-31.0342)">
        <path d="M98.162,206.002C95.745,213.28 88.455,218.572 79.849,218.572C69.272,218.572 60.684,210.578 60.684,200.732C60.684,190.885 69.272,182.891 79.849,182.891C84.16,182.891 88.14,184.219 91.344,186.46C92.904,187.548 94.761,188.131 96.663,188.131C104.077,188.162 121.723,188.162 121.723,188.162C124.679,185.96 128.429,184.643 132.507,184.643C142.046,184.643 149.79,191.852 149.79,200.732C149.79,209.612 142.046,216.821 132.507,216.821C125.883,216.821 120.124,213.344 117.224,208.246C116.438,206.839 115.018,205.902 113.415,205.733C108.443,205.206 103.361,205.283 98.162,206.002ZM130.692,153.126L140.625,135.867C143.289,130.066 149.44,126.334 156.653,125.12C159.33,124.905 161.27,124.015 163.001,123.077C165.314,121.82 166.681,119.329 166.497,116.702C166.336,114.784 165.669,112.663 163.701,111.071C160.021,108.098 156.403,110.616 151.823,112.565C150.512,113.107 149.005,112.804 148.007,111.797L148.004,111.799C146.006,109.785 145.677,106.653 147.213,104.268C148.889,101.665 150.748,98.777 150.748,98.777C155.874,91.778 155.601,84.778 150.748,77.778L144.584,70.288L136.034,52.239L127.485,70.288L118.076,70.288L109.527,52.239L100.977,70.288L96.268,77.777C91.415,84.778 91.143,91.778 96.268,98.778C99.046,101.969 99.477,105.16 97.669,108.351L88.872,123.632C88.431,130.25 87.865,134.924 85.265,139.024L79.716,149.26C78.294,152.142 78.123,157.147 80.209,160.028L80.21,172.356C79.462,183.058 89.311,182.87 93.015,174.246C94.845,170.081 99.001,167.428 103.549,167.521C103.552,167.484 103.553,167.485 103.555,167.484C108.614,167.589 113.057,170.875 114.635,175.683C116.611,181.835 125.517,182.499 126.349,172.659L126.349,162.787C125.577,160.1 127.687,156.622 130.692,153.126Z" style="fill:white;"/>
    </g>
    <g transform="matrix(0.617802,0,0,0.617802,-32.7007,-31.0342)">
        <path d="M130.298,191.524C134.759,197.96 135.032,204.395 130.32,210.83C129.844,211.48 129.985,212.395 130.636,212.871C131.286,213.347 132.2,213.205 132.676,212.555C138.215,204.99 137.941,197.426 132.698,189.861C132.239,189.199 131.329,189.034 130.666,189.493C130.004,189.952 129.839,190.862 130.298,191.524ZM63.227,189.861C57.983,197.426 57.71,204.99 63.249,212.555C63.725,213.205 64.639,213.347 65.289,212.871C65.939,212.395 66.081,211.48 65.605,210.83C60.893,204.395 61.166,197.96 65.627,191.524C66.086,190.862 65.921,189.952 65.258,189.493C64.596,189.034 63.686,189.199 63.227,189.861ZM144.057,191.524C148.518,197.96 148.791,204.395 144.079,210.83C143.603,211.48 143.744,212.395 144.395,212.871C145.045,213.347 145.959,213.205 146.435,212.555C151.974,204.99 151.7,197.426 146.457,189.861C145.998,189.199 145.088,189.034 144.425,189.493C143.763,189.952 143.598,190.862 144.057,191.524ZM94.071,191.524C98.532,197.96 98.805,204.395 94.093,210.83C93.617,211.48 93.758,212.395 94.409,212.871C95.059,213.347 95.973,213.205 96.449,212.555C101.988,204.99 101.714,197.426 96.471,189.861C96.012,189.199 95.102,189.034 94.439,189.493C93.777,189.952 93.612,190.862 94.071,191.524ZM71.767,192.185C69.399,194.496 68.217,197.28 68.217,200.537C68.217,203.793 69.399,206.581 71.766,208.901C74.128,211.216 76.99,212.375 80.353,212.375C83.716,212.375 86.578,211.216 88.94,208.901C91.307,206.581 92.489,203.793 92.489,200.537C92.489,197.28 91.307,194.496 88.939,192.185C86.577,189.88 83.716,188.726 80.353,188.726C76.99,188.726 74.129,189.88 71.767,192.185ZM73.531,207.173C71.647,205.342 70.704,203.135 70.704,200.551C70.704,197.966 71.647,195.759 73.531,193.929C75.421,192.092 77.695,191.175 80.353,191.175C83.011,191.175 85.285,192.092 87.175,193.929C89.059,195.759 90.002,197.966 90.002,200.551C90.002,203.135 89.059,205.342 87.175,207.173C85.285,209.009 83.011,209.927 80.353,209.927C77.695,209.927 75.421,209.009 73.531,207.173ZM74.892,195.207C73.364,196.692 72.603,198.474 72.603,200.551C72.603,202.629 73.365,204.406 74.894,205.881L74.894,205.882C76.415,207.35 78.235,208.085 80.353,208.085C82.471,208.085 84.291,207.35 85.813,205.882L85.813,205.881C87.341,204.406 88.103,202.629 88.103,200.551C88.103,198.474 87.342,196.692 85.814,195.207C84.292,193.728 82.472,192.989 80.353,192.989C78.235,192.989 76.414,193.728 74.892,195.207ZM76.627,204.136C75.603,203.141 75.09,201.942 75.09,200.537C75.09,199.132 75.603,197.933 76.627,196.937C77.657,195.936 78.899,195.437 80.353,195.437C81.807,195.437 83.049,195.936 84.079,196.937C85.103,197.933 85.616,199.132 85.616,200.537C85.616,201.942 85.103,203.141 84.079,204.136C83.049,205.137 81.807,205.637 80.353,205.637C78.899,205.637 77.657,205.137 76.627,204.136ZM101.782,189.097L127.53,189.097C128.107,189.097 128.576,188.628 128.576,188.051C128.576,187.474 128.107,187.006 127.53,187.006L101.782,187.006C101.205,187.006 100.737,187.474 100.737,188.051C100.737,188.628 101.205,189.097 101.782,189.097ZM94.035,171.083L94.017,171.076C93.647,170.932 93.277,170.946 92.906,171.125C92.555,171.294 92.298,171.572 92.148,171.967C92.147,171.968 92.147,171.969 92.146,171.97C91.311,174.201 90.297,175.9 89.086,177.054L89.086,177.055C87.949,178.14 86.714,178.696 85.371,178.696C84.603,178.696 83.984,178.615 83.514,178.436C83.091,178.275 82.721,177.966 82.394,177.523C82.033,177.037 81.791,176.339 81.641,175.44C81.475,174.449 81.393,173.174 81.393,171.615C81.393,168.67 81.467,165.126 81.615,160.983C81.638,160.584 81.514,160.226 81.235,159.912C80.961,159.603 80.643,159.442 80.296,159.406L80.101,159.377C79.682,159.346 79.314,159.491 79.007,159.836C78.748,160.127 78.606,160.471 78.583,160.867C78.582,160.872 78.582,160.877 78.582,160.882C78.433,165.112 78.359,168.689 78.359,171.615C78.359,175.408 78.885,178.019 79.857,179.461C80.884,180.987 82.707,181.802 85.371,181.802C87.441,181.802 89.304,181.047 90.957,179.521C92.547,178.054 93.869,175.903 94.903,173.055C94.904,173.052 94.905,173.048 94.907,173.044C95.026,172.696 95.025,172.334 94.894,171.959C94.748,171.539 94.479,171.261 94.106,171.11L94.147,171.127L94.035,171.083ZM124.483,162.481L124.483,173.328C124.483,175.084 124.109,176.384 123.284,177.206C122.593,177.896 121.629,178.218 120.408,178.218C119.122,178.218 118.098,177.863 117.348,177.114C116.686,176.453 116.311,175.284 116.145,173.634C116.097,173.144 115.914,172.787 115.644,172.542C115.373,172.297 115,172.151 114.509,172.151C114.486,172.151 114.463,172.152 114.44,172.155C113.968,172.207 113.623,172.409 113.387,172.722C113.181,172.996 113.053,173.378 113.053,173.88C113.053,173.904 113.055,173.927 113.057,173.951C113.324,176.277 113.99,177.923 114.989,178.919C116.33,180.258 118.102,180.942 120.315,180.942C122.534,180.942 124.274,180.286 125.551,179.012C126.887,177.679 127.578,175.821 127.578,173.421L127.578,162.481C127.578,161.952 127.426,161.565 127.185,161.3C126.926,161.016 126.549,160.843 126.031,160.843C125.512,160.843 125.136,161.016 124.877,161.3C124.636,161.565 124.483,161.952 124.483,162.481ZM110.655,161.801L100.72,179.06C100.404,179.61 100.593,180.314 101.144,180.631C101.694,180.948 102.398,180.758 102.715,180.208L112.649,162.949C112.966,162.399 112.776,161.695 112.226,161.378C111.675,161.061 110.972,161.251 110.655,161.801ZM96.62,161.745L96.62,165.158C96.62,165.85 97.183,166.413 97.876,166.413C98.568,166.413 99.131,165.85 99.131,165.158L99.131,161.745C99.131,161.053 98.568,160.49 97.876,160.49C97.183,160.49 96.62,161.053 96.62,161.745ZM80.763,160.325C80.807,160.244 80.833,160.152 80.837,160.053C80.848,159.768 80.668,159.519 80.408,159.433C80.585,159.492 80.643,159.619 80.637,159.77C80.669,159.849 80.685,159.936 80.681,160.026C80.679,160.091 80.667,160.153 80.646,160.212C80.686,160.245 80.725,160.283 80.763,160.325ZM126.56,135.293L116.625,152.552C116.308,153.102 116.498,153.806 117.048,154.123C117.599,154.44 118.303,154.25 118.619,153.7L128.554,136.441C128.871,135.891 128.681,135.187 128.131,134.87C127.58,134.553 126.876,134.743 126.56,135.293ZM139.629,135.293L129.694,152.552C129.378,153.102 129.567,153.806 130.118,154.123C130.668,154.44 131.372,154.25 131.689,153.7L141.623,136.441C141.94,135.891 141.75,135.187 141.2,134.87C140.649,134.553 139.946,134.743 139.629,135.293ZM86.429,135.292L76.495,152.551C76.178,153.101 76.368,153.805 76.918,154.122C77.469,154.439 78.173,154.249 78.489,153.699L88.424,136.44C88.74,135.89 88.551,135.186 88.001,134.869C87.45,134.552 86.746,134.742 86.429,135.292ZM53.367,145.327L53.417,145.39C53.464,145.449 53.514,145.492 53.563,145.522C53.818,145.709 54.109,145.787 54.437,145.753C54.777,145.718 55.064,145.573 55.298,145.315C55.3,145.314 55.301,145.312 55.303,145.31C56.26,144.231 57.357,143.678 58.609,143.678C59.616,143.678 60.609,144.153 61.604,145.062C61.605,145.063 61.605,145.063 61.606,145.063C63.068,146.392 64.677,147.048 66.423,147.048C68.61,147.063 70.407,146.224 71.815,144.532C71.821,144.525 71.827,144.517 71.832,144.51C72.041,144.232 72.131,143.914 72.096,143.554C72.061,143.196 71.908,142.9 71.635,142.667L71.509,142.565C71.243,142.349 70.93,142.253 70.567,142.29C70.215,142.325 69.92,142.48 69.684,142.76C69.179,143.325 68.667,143.737 68.142,143.984C67.628,144.226 67.055,144.344 66.425,144.344L66.418,144.344C65.412,144.357 64.423,143.888 63.429,142.98L63.428,142.979C61.965,141.651 60.357,140.995 58.61,140.995C56.424,140.98 54.627,141.818 53.219,143.511C53.218,143.512 53.217,143.513 53.216,143.514C53,143.779 52.902,144.095 52.938,144.468C52.971,144.812 53.114,145.098 53.367,145.327ZM53.52,145.49L53.501,145.475C53.507,145.48 53.514,145.485 53.52,145.49ZM119.998,117.313L132.796,117.313L132.796,129.227C132.796,129.805 133.265,130.274 133.842,130.274C134.42,130.274 134.889,129.805 134.889,129.227L134.889,117.313L145.202,117.313C146.01,117.313 146.667,116.657 146.667,115.848C146.667,115.04 146.01,114.384 145.202,114.384L119.611,114.384C119.167,112.812 118.289,111.262 116.72,109.992L116.719,109.992C114.159,107.922 111.631,107.996 108.881,108.936C106.601,109.715 104.145,111.158 101.315,112.095C100.588,112.336 100.193,113.122 100.433,113.849C100.674,114.577 101.46,114.972 102.188,114.731C105.027,113.791 107.492,112.345 109.779,111.563C111.597,110.942 113.281,110.783 114.974,112.151C116.589,113.458 117.116,115.209 117.208,116.787C117.209,116.793 117.209,116.798 117.209,116.803C117.355,118.868 116.28,120.827 114.461,121.816C114.452,121.821 114.443,121.826 114.433,121.831C112.881,122.722 111.121,123.541 108.688,123.736C107.924,123.798 107.354,124.468 107.415,125.231C107.477,125.995 108.146,126.565 108.91,126.504C111.824,126.27 113.942,125.314 115.802,124.247C118.36,122.85 119.949,120.193 119.998,117.313ZM150.043,114.731C152.882,113.791 155.347,112.345 157.634,111.563C159.452,110.942 161.136,110.783 162.829,112.151C164.444,113.458 164.971,115.209 165.064,116.787C165.064,116.793 165.064,116.798 165.065,116.803C165.21,118.868 164.135,120.827 162.317,121.816C162.307,121.821 162.298,121.826 162.288,121.831C160.736,122.722 158.976,123.541 156.543,123.736C155.779,123.798 155.209,124.468 155.27,125.231C155.332,125.995 156.002,126.565 156.765,126.504C159.679,126.27 161.797,125.314 163.657,124.247C166.42,122.738 168.052,119.758 167.835,116.617C167.7,114.352 166.892,111.867 164.575,109.992C162.014,107.922 159.486,107.996 156.736,108.936C154.457,109.715 152,111.158 149.17,112.095C148.443,112.336 148.048,113.122 148.288,113.849C148.529,114.577 149.315,114.972 150.043,114.731ZM96.673,107.778L86.885,124.78C86.569,125.33 86.758,126.033 87.308,126.35C87.858,126.666 88.562,126.477 88.878,125.927L98.666,108.925C98.982,108.375 98.793,107.672 98.243,107.355C97.693,107.039 96.989,107.228 96.673,107.778ZM136.15,101.985L136.312,101.985C136.721,101.976 137.069,101.833 137.358,101.56C137.669,101.267 137.823,100.91 137.823,100.492L137.823,96.322C137.823,95.91 137.673,95.551 137.367,95.249C137.067,94.952 136.702,94.802 136.272,94.802L135.472,94.802L135.472,78.599C135.472,78.18 135.318,77.823 135.008,77.53C134.709,77.249 134.348,77.105 133.922,77.105L124.049,77.105C123.616,77.105 123.257,77.253 122.968,77.539C122.674,77.83 122.526,78.183 122.526,78.599L122.526,79.459C122.526,82.093 122.508,84.091 122.471,85.451C122.435,86.809 122.384,88.055 122.32,89.188C122.259,90.262 122.134,91.096 121.933,91.686C121.733,92.279 121.515,92.793 121.28,93.229L121.279,93.23C121.054,93.647 120.714,94.171 120.261,94.802L119.957,94.802C119.527,94.802 119.163,94.952 118.862,95.249C118.555,95.551 118.406,95.91 118.406,96.322L118.406,100.492C118.406,100.91 118.56,101.267 118.871,101.56C119.169,101.842 119.53,101.985 119.957,101.985L120.08,101.985C120.489,101.976 120.836,101.833 121.125,101.56C121.437,101.267 121.59,100.91 121.59,100.492L121.59,97.711L134.638,97.711L134.638,100.492C134.638,100.91 134.792,101.267 135.103,101.56C135.392,101.833 135.74,101.976 136.15,101.985ZM149.548,78.609C154.009,85.045 154.282,91.48 149.57,97.915C149.094,98.565 149.235,99.48 149.886,99.956C150.536,100.432 151.45,100.29 151.926,99.64C157.465,92.075 157.191,84.511 151.948,76.946C151.489,76.284 150.579,76.119 149.916,76.578C149.254,77.037 149.089,77.947 149.548,78.609ZM95.068,76.946C89.824,84.511 89.551,92.075 95.09,99.64C95.566,100.29 96.48,100.432 97.13,99.956C97.78,99.48 97.922,98.565 97.446,97.915C92.734,91.48 93.007,85.045 97.468,78.609C97.927,77.947 97.762,77.037 97.1,76.578C96.437,76.119 95.527,76.284 95.068,76.946ZM120.399,94.804L120.399,94.802C120.392,94.802 120.386,94.802 120.38,94.803L120.399,94.804ZM124.16,94.802C124.919,93.434 125.377,92.081 125.541,90.746C125.722,89.271 125.817,85.693 125.821,80.014L132.094,80.014L132.094,94.802L124.16,94.802ZM111.322,74.326C109.271,74.326 107.607,75.991 107.607,78.041C107.607,80.091 109.271,81.755 111.322,81.755C113.372,81.755 115.036,80.091 115.036,78.041C115.036,75.991 113.372,74.326 111.322,74.326ZM143.252,74.326C141.201,74.326 139.537,75.991 139.537,78.041C139.537,80.091 141.201,81.755 143.252,81.755C145.302,81.755 146.966,80.091 146.966,78.041C146.966,75.991 145.302,74.326 143.252,74.326ZM143.252,76.625C144.033,76.625 144.668,77.259 144.668,78.041C144.668,78.822 144.033,79.457 143.252,79.457C142.47,79.457 141.835,78.822 141.835,78.041C141.835,77.259 142.47,76.625 143.252,76.625ZM111.322,76.625C112.103,76.625 112.738,77.259 112.738,78.041C112.738,78.822 112.103,79.457 111.322,79.457C110.54,79.457 109.905,78.822 109.905,78.041C109.905,77.259 110.54,76.625 111.322,76.625ZM102.3,70.914L109.527,55.656L116.755,70.914C117.1,71.643 117.973,71.955 118.703,71.61C119.433,71.264 119.744,70.391 119.399,69.661L110.849,51.612C110.607,51.101 110.093,50.776 109.527,50.776C108.962,50.776 108.447,51.101 108.205,51.612L99.656,69.661C99.31,70.391 99.622,71.264 100.351,71.61C101.081,71.955 101.954,71.643 102.3,70.914ZM128.81,70.914L136.037,55.656L143.265,70.914C143.61,71.643 144.483,71.955 145.213,71.61C145.943,71.264 146.254,70.391 145.909,69.661L137.359,51.612C137.117,51.101 136.603,50.776 136.037,50.776C135.472,50.776 134.957,51.101 134.715,51.612L126.166,69.661C125.82,70.391 126.132,71.264 126.861,71.61C127.591,71.955 128.464,71.643 128.81,70.914Z" style="fill-rule:nonzero;"/>
    </g>
</svg>
