<?xml version="1.0" encoding="UTF-8" standalone="no"?>
<!DOCTYPE svg PUBLIC "-//W3C//DTD SVG 1.1//EN" "http://www.w3.org/Graphics/SVG/1.1/DTD/svg11.dtd">
<svg width="67px" height="69px" version="1.1" xmlns="http://www.w3.org/2000/svg" xmlns:xlink="http://www.w3.org/1999/xlink" xml:space="preserve" xmlns:serif="http://www.serif.com/" style="fill-rule:evenodd;clip-rule:evenodd;stroke-linejoin:round;stroke-miterlimit:2;">
    <g transform="matrix(0.554694,0.0330171,0.0333473,0.55172,-61.3782,-249.479)">
        <path d="M128.341,480.937L118.804,490.516L118.908,490.862L127.083,499.641C130.568,504.488 131.927,508.716 130.21,512.819C122.602,523.787 115.34,534.804 113.19,546.552C106.092,545.053 101.534,542.227 99.026,538.33C97.923,536.635 97.957,534.337 99.114,532.404C103.166,525.669 102.841,519.196 98.74,512.949C96.848,509.62 92.063,510.46 91.439,515.14C89.352,523.82 86.496,529.59 80.203,535.933C77.556,540.177 77.122,544.288 80.267,548.185L103,568C104.403,568.901 110.324,569.536 116.161,569.117C116.161,569.117 174.652,565.412 188.737,564.52C190.821,564.388 192.8,563.112 193.883,561.202C197.648,554.538 197.697,547.79 193.721,541.733C191.177,537.773 186.895,534.88 181.388,532.737L182.751,510.065C183.193,502.72 180.114,499.78 182.807,496.884L192.347,486.467L192.493,486.106L184.044,477.603C182.137,474.856 183.942,470.529 187.753,464.846C192.787,458.182 193.073,450.592 190.003,444.104C189.206,442.422 187.442,441.483 185.49,441.702L185.49,441.672C183.756,441.867 182.142,442.956 181.239,444.542C178.951,448.555 174.471,456.416 171.496,461.637C169.689,464.807 166.395,466.917 162.934,467.121C157.162,467.46 149.02,467.938 149.02,467.938C154.034,461.301 154.916,453.127 152.039,446.495C151.273,444.751 149.484,443.764 147.492,443.988L147.492,443.948C145.777,444.14 144.18,445.216 143.283,446.783C139.921,452.656 131.858,466.739 131.858,466.739C129.116,470.999 127.968,475.738 128.341,480.937Z" style="fill:white;"/>
    </g>
    <g transform="matrix(0.622719,8.64197e-18,-8.64197e-18,0.622719,-34.8614,-66.8712)">
        <path d="M91.366,218.19L114.63,218.19C115.206,218.19 115.674,217.722 115.674,217.145C115.674,216.569 115.206,216.101 114.63,216.101L91.366,216.101C90.79,216.101 90.322,216.569 90.322,217.145C90.322,217.722 90.79,218.19 91.366,218.19ZM147.762,212.54L147.762,216.376C147.762,216.989 148.26,217.487 148.873,217.487C149.486,217.487 149.984,216.989 149.984,216.376L149.984,212.54C149.984,211.927 149.486,211.429 148.873,211.429C148.26,211.429 147.762,211.927 147.762,212.54ZM128.869,212.54L128.869,216.376C128.869,216.989 129.367,217.487 129.98,217.487C130.594,217.487 131.092,216.989 131.092,216.376L131.092,212.54C131.092,211.927 130.594,211.429 129.98,211.429C129.367,211.429 128.869,211.927 128.869,212.54ZM123.394,212.54L123.394,216.376C123.394,216.989 123.892,217.487 124.505,217.487C125.118,217.487 125.616,216.989 125.616,216.376L125.616,212.54C125.616,211.927 125.118,211.429 124.505,211.429C123.892,211.429 123.394,211.927 123.394,212.54ZM153.238,212.54L153.238,216.376C153.238,216.989 153.736,217.487 154.349,217.487C154.962,217.487 155.46,216.989 155.46,216.376L155.46,212.54C155.46,211.927 154.962,211.429 154.349,211.429C153.736,211.429 153.238,211.927 153.238,212.54ZM117.918,212.54L117.918,216.376C117.918,216.989 118.416,217.487 119.029,217.487C119.642,217.487 120.14,216.989 120.14,216.376L120.14,212.54C120.14,211.927 119.642,211.429 119.029,211.429C118.416,211.429 117.918,211.927 117.918,212.54ZM142.286,212.54L142.286,216.376C142.286,216.989 142.784,217.487 143.398,217.487C144.011,217.487 144.509,216.989 144.509,216.376L144.509,212.54C144.509,211.927 144.011,211.429 143.398,211.429C142.784,211.429 142.286,211.927 142.286,212.54ZM158.074,197.629C162.254,203.659 162.506,209.689 158.091,215.72C157.728,216.214 157.836,216.91 158.331,217.273C158.826,217.635 159.521,217.527 159.884,217.033C164.928,210.143 164.676,203.253 159.9,196.363C159.551,195.859 158.858,195.733 158.354,196.083C157.85,196.432 157.725,197.125 158.074,197.629ZM86.598,196.363C81.822,203.253 81.57,210.143 86.615,217.033C86.977,217.527 87.673,217.635 88.168,217.273C88.663,216.91 88.77,216.214 88.408,215.72C83.993,209.689 84.244,203.659 88.425,197.629C88.774,197.125 88.649,196.432 88.145,196.083C87.641,195.733 86.948,195.859 86.598,196.363ZM133.553,217.421L139.398,217.421C139.974,217.421 140.442,216.953 140.442,216.376C140.442,215.8 139.974,215.331 139.398,215.331L133.553,215.331C132.977,215.331 132.508,215.8 132.508,216.376C132.508,216.953 132.977,217.421 133.553,217.421ZM57.538,197.531L78.849,216.292C79.309,216.697 80.012,216.653 80.417,216.192C80.822,215.732 80.777,215.029 80.317,214.624L59.007,195.863C58.546,195.458 57.844,195.502 57.438,195.963C57.033,196.423 57.078,197.126 57.538,197.531ZM146.409,164.75L146.409,188.372C146.409,188.985 146.906,189.483 147.52,189.483C148.133,189.483 148.631,188.985 148.631,188.372L148.631,164.75C148.631,164.136 148.133,163.638 147.52,163.638C146.906,163.638 146.409,164.136 146.409,164.75ZM99.87,167.439L89.608,185.265C89.292,185.815 89.481,186.518 90.031,186.834C90.581,187.151 91.284,186.961 91.6,186.412L101.861,168.585C102.178,168.035 101.988,167.332 101.439,167.016C100.889,166.699 100.186,166.889 99.87,167.439ZM65.324,167.804C63.978,175.125 61.831,179.922 56.745,185.028C56.297,185.477 56.299,186.205 56.748,186.653C57.198,187.1 57.926,187.099 58.373,186.649C63.819,181.182 66.143,176.059 67.584,168.22C67.699,167.596 67.286,166.996 66.662,166.882C66.038,166.767 65.439,167.18 65.324,167.804ZM71.927,167.091C76.107,173.122 76.359,179.152 71.944,185.182C71.581,185.677 71.689,186.373 72.184,186.735C72.679,187.097 73.374,186.99 73.737,186.495C78.781,179.605 78.53,172.715 73.753,165.825C73.404,165.321 72.711,165.196 72.207,165.545C71.703,165.894 71.578,166.587 71.927,167.091ZM126.003,159.488L131.848,159.488C132.424,159.488 132.892,159.02 132.892,158.444C132.892,157.867 132.424,157.399 131.848,157.399L126.003,157.399C125.427,157.399 124.959,157.867 124.959,158.444C124.959,159.02 125.427,159.488 126.003,159.488ZM153.444,147.747L146.036,155.155C145.603,155.588 145.603,156.292 146.036,156.726C146.47,157.16 147.174,157.16 147.608,156.726L155.503,148.831C155.637,148.725 155.769,148.562 155.854,148.323C155.868,148.281 155.959,148.027 155.959,148.027L155.957,148.028C156.106,147.623 156.007,147.168 155.7,146.861L147.718,138.879C147.285,138.446 146.581,138.446 146.147,138.879C145.713,139.313 145.713,140.017 146.147,140.451L153.444,147.747ZM91.049,147.747L98.456,155.155C98.89,155.588 98.89,156.292 98.456,156.726C98.023,157.16 97.319,157.16 96.885,156.726L88.99,148.831C88.855,148.725 88.724,148.562 88.639,148.323C88.625,148.281 88.534,148.027 88.534,148.027L88.535,148.028C88.387,147.623 88.486,147.168 88.793,146.861L96.774,138.879C97.208,138.446 97.912,138.446 98.346,138.879C98.779,139.313 98.779,140.017 98.346,140.451L91.049,147.747ZM133.742,144.776C134.879,144.776 135.802,145.699 135.802,146.836C135.802,147.974 134.879,148.897 133.742,148.897C132.604,148.897 131.681,147.974 131.681,146.836C131.681,145.699 132.604,144.776 133.742,144.776ZM141.416,135.447C139.969,135.447 138.794,136.621 138.794,138.068C138.794,139.515 139.969,140.69 141.416,140.69C142.862,140.69 144.037,139.515 144.037,138.068C144.037,136.621 142.862,135.447 141.416,135.447ZM114.858,135.447C113.412,135.447 112.237,136.621 112.237,138.068C112.237,139.515 113.412,140.69 114.858,140.69C116.305,140.69 117.48,139.515 117.48,138.068C117.48,136.621 116.305,135.447 114.858,135.447ZM141.416,137.113C141.943,137.113 142.37,137.541 142.37,138.068C142.37,138.595 141.943,139.023 141.416,139.023C140.889,139.023 140.461,138.595 140.461,138.068C140.461,137.541 140.889,137.113 141.416,137.113ZM114.858,137.113C115.385,137.113 115.813,137.541 115.813,138.068C115.813,138.595 115.385,139.023 114.858,139.023C114.331,139.023 113.904,138.595 113.904,138.068C113.904,137.541 114.331,137.113 114.858,137.113ZM124.003,130.605L129.848,130.605C130.424,130.605 130.892,130.137 130.892,129.56C130.892,128.984 130.424,128.515 129.848,128.515L124.003,128.515C123.427,128.515 122.959,128.984 122.959,129.56C122.959,130.137 123.427,130.605 124.003,130.605ZM148.002,109.812C152.182,115.842 152.434,121.873 148.019,127.903C147.656,128.398 147.764,129.094 148.259,129.456C148.754,129.818 149.449,129.711 149.812,129.216C154.856,122.326 154.604,115.436 149.828,108.546C149.479,108.042 148.786,107.917 148.282,108.266C147.778,108.615 147.653,109.308 148.002,109.812ZM114.305,109.812C118.485,115.842 118.737,121.873 114.321,127.903C113.959,128.398 114.067,129.094 114.561,129.456C115.056,129.818 115.752,129.711 116.114,129.216C121.159,122.326 120.907,115.436 116.131,108.546C115.782,108.042 115.089,107.917 114.585,108.266C114.081,108.615 113.955,109.308 114.305,109.812ZM142.828,108.873L132.567,126.699C132.251,127.249 132.44,127.952 132.99,128.269C133.539,128.585 134.242,128.396 134.559,127.846L144.82,110.019C145.136,109.47 144.947,108.766 144.397,108.45C143.848,108.134 143.145,108.323 142.828,108.873ZM109.131,108.873L98.87,126.699C98.553,127.249 98.743,127.952 99.292,128.269C99.842,128.585 100.545,128.396 100.861,127.846L111.123,110.019C111.439,109.47 111.25,108.766 110.7,108.45C110.15,108.134 109.447,108.323 109.131,108.873Z"/>
    </g>
</svg>
