<?xml version="1.0" encoding="UTF-8" standalone="no"?>
<svg xmlns:ffdec="https://www.free-decompiler.com/flash" xmlns:xlink="http://www.w3.org/1999/xlink" ffdec:objectType="shape" height="92.15px" width="51.2px" xmlns="http://www.w3.org/2000/svg">
  <g transform="matrix(1.0, 0.0, 0.0, 1.0, 23.95, 92.45)">
    <path d="M20.2 -74.45 L20.2 -72.7 Q19.65 -65.45 19.9 -60.0 20.2 -54.6 21.05 -52.4 21.85 -50.2 19.35 -45.95 L16.2 -40.85 16.55 -39.2 17.15 -36.15 17.8 -30.1 Q17.85 -29.45 17.05 -29.05 17.45 -28.15 17.25 -27.3 21.85 -27.1 22.15 -23.3 L22.15 -23.25 25.0 -22.85 Q25.3 -22.8 25.3 -22.35 L25.5 -21.45 Q26.3 -19.4 26.75 -17.2 L27.05 -15.5 27.2 -14.15 Q27.4 -11.9 27.05 -9.9 27.0 -9.45 26.45 -9.4 L18.8 -9.15 11.15 -9.0 10.2 -8.95 10.6 -6.9 Q12.6 -6.15 12.7 -4.2 12.75 -3.45 12.35 -2.95 L10.85 -1.75 Q7.5 0.25 3.4 -0.5 L2.1 -0.65 Q0.7 -0.6 0.7 -1.8 L2.35 -3.4 Q4.65 -5.55 7.15 -6.75 6.95 -7.8 6.9 -8.9 L6.6 -11.5 Q6.05 -15.25 5.85 -18.65 L2.85 -18.65 0.75 -18.8 1.0 -14.0 Q1.0 -12.05 1.5 -10.25 L1.6 -9.95 1.6 -9.9 1.6 -9.5 1.65 -9.45 Q2.7 -8.45 2.9 -6.8 3.0 -6.1 2.4 -5.85 -0.6 -4.55 -4.7 -5.2 -6.75 -5.15 -8.05 -6.15 -4.8 -7.6 -1.5 -9.45 L-1.45 -9.45 Q-2.2 -12.05 -2.1 -15.15 -2.05 -17.15 -2.35 -19.1 L-4.25 -19.25 -9.05 -19.35 Q-9.35 -20.85 -9.0 -22.15 -7.95 -25.95 -6.15 -29.4 -6.45 -29.45 -6.85 -30.0 L-8.2 -32.1 Q-9.1 -33.65 -8.95 -36.2 -9.2 -35.8 -10.2 -35.5 L-11.05 -35.35 -18.1 -35.35 -18.6 -36.0 Q-19.75 -35.5 -21.2 -35.65 L-22.05 -35.7 Q-23.9 -35.7 -23.95 -37.65 -24.0 -38.45 -23.6 -38.7 L-20.25 -41.25 -20.25 -41.95 Q-20.15 -42.7 -18.9 -42.95 L-17.8 -43.2 Q-14.95 -43.95 -12.3 -45.6 -10.45 -46.75 -8.95 -48.15 -9.1 -49.4 -8.75 -50.55 L-8.5 -51.25 Q-7.9 -53.6 -8.0 -56.35 -8.95 -56.45 -9.6 -57.0 L-11.15 -58.55 Q-13.0 -60.35 -14.0 -62.75 L-16.0 -63.0 -15.7 -63.2 -14.4 -64.0 Q-14.9 -65.85 -14.75 -67.95 -14.7 -69.55 -15.15 -71.0 L-14.5 -71.85 -17.75 -69.1 -19.55 -73.35 Q-23.7 -84.7 -17.0 -88.25 -9.2 -92.45 -6.05 -89.7 6.0 -95.2 11.8 -89.75 18.65 -83.3 19.55 -76.75 L20.15 -74.2 20.2 -74.45 M-7.7 -77.5 Q-6.8 -75.85 -5.55 -74.3 L-3.55 -73.35 Q2.75 -69.75 2.9 -62.15 L3.1 -58.55 1.75 -58.0 0.65 -57.55 -1.1 -57.05 -1.35 -57.0 -1.4 -57.0 -2.55 -56.75 -7.7 -56.35 -8.0 -56.35 -7.7 -56.35 -2.55 -56.75 -1.4 -57.0 -1.35 -57.0 -1.1 -57.05 0.65 -57.55 1.75 -58.0 3.1 -58.55 2.9 -62.15 Q2.75 -69.75 -3.55 -73.35 L-5.55 -74.3 Q-6.8 -75.85 -7.7 -77.5 L-7.95 -78.0 -7.7 -77.5 -4.9 -76.35 -2.75 -75.4 -4.9 -76.35 -7.7 -77.5 M-11.2 -77.45 L-9.25 -81.6 -8.9 -80.35 -7.95 -78.0 -8.9 -80.35 -9.25 -81.6 -11.2 -77.45 -11.35 -77.15 -11.2 -77.45 M-14.3 -72.05 L-12.6 -74.4 -11.35 -77.15 -12.6 -74.4 -14.3 -72.05 -14.5 -71.85 -14.3 -72.05 -13.65 -71.55 -14.3 -72.05 M6.8 -57.3 L3.15 -56.35 3.1 -58.55 3.15 -56.35 6.8 -57.3 6.55 -55.4 7.45 -55.65 8.9 -55.75 9.65 -55.0 Q10.55 -54.05 10.35 -52.8 12.35 -51.45 13.55 -49.45 L14.2 -48.25 14.2 -48.2 14.7 -46.7 16.2 -40.85 14.7 -46.7 14.2 -48.2 14.2 -48.25 13.55 -49.45 Q12.35 -51.45 10.35 -52.8 10.55 -54.05 9.65 -55.0 L8.9 -55.75 7.45 -55.65 6.55 -55.4 6.8 -57.3 M-12.35 -69.6 Q-13.05 -69.15 -12.9 -67.75 -12.9 -67.0 -12.25 -66.7 -9.9 -65.95 -10.1 -69.6 -10.3 -73.4 -13.15 -72.55 L-13.65 -71.55 -13.15 -72.55 Q-10.3 -73.4 -10.1 -69.6 -9.9 -65.95 -12.25 -66.7 -12.9 -67.0 -12.9 -67.75 -13.05 -69.15 -12.35 -69.6 M-4.8 -50.4 L-5.4 -50.35 -5.35 -49.5 -6.05 -49.55 Q-6.25 -49.6 -6.3 -49.25 -6.3 -49.0 -6.45 -48.8 -7.0 -47.65 -6.35 -46.85 -6.15 -46.65 -5.8 -46.65 L-5.0 -46.75 -4.65 -45.0 -5.95 -42.5 -5.9 -41.55 Q-5.35 -40.2 -5.2 -38.65 L-5.2 -39.15 -5.1 -39.85 Q-4.9 -41.75 -4.35 -43.5 L-4.3 -43.5 -4.25 -43.2 -4.2 -43.0 -3.95 -43.2 -2.95 -43.7 -3.0 -43.25 -3.0 -42.75 -2.95 -39.0 -2.85 -37.65 -1.9 -39.45 -1.45 -40.0 0.2 -42.0 Q-0.1 -43.45 -0.55 -44.75 L0.85 -45.55 1.2 -45.35 1.9 -45.45 2.0 -46.35 3.3 -47.35 Q5.2 -47.9 6.65 -49.3 L9.9 -52.35 10.2 -52.65 10.35 -52.8 10.2 -52.65 9.9 -52.35 6.65 -49.3 Q5.2 -47.9 3.3 -47.35 L2.0 -46.35 1.9 -45.45 1.2 -45.35 0.85 -45.55 -0.55 -44.75 Q-0.1 -43.45 0.2 -42.0 L-1.45 -40.0 -1.9 -39.45 -2.85 -37.65 -2.95 -39.0 -3.0 -42.75 -3.0 -43.25 -2.95 -43.7 -3.95 -43.2 -4.2 -43.0 -4.25 -43.2 -4.3 -43.5 -4.35 -43.5 Q-4.9 -41.75 -5.1 -39.85 L-5.2 -39.15 -5.2 -38.65 Q-5.35 -40.2 -5.9 -41.55 L-5.95 -42.5 -4.65 -45.0 -5.0 -46.75 -5.8 -46.65 Q-6.15 -46.65 -6.35 -46.85 -7.0 -47.65 -6.45 -48.8 -6.3 -49.0 -6.3 -49.25 -6.25 -49.6 -6.05 -49.55 L-5.35 -49.5 -5.4 -50.35 -4.8 -50.4 -4.3 -51.1 Q-3.55 -52.8 -2.05 -49.95 L-0.25 -52.55 Q3.6 -52.8 7.0 -54.25 L7.25 -54.4 8.4 -55.15 7.25 -54.4 7.0 -54.25 Q3.6 -52.8 -0.25 -52.55 L-2.05 -49.95 Q-3.55 -52.8 -4.3 -51.1 L-4.8 -50.4 -4.65 -51.2 Q-5.45 -50.9 -4.8 -50.4 M-8.95 -36.35 L-8.95 -36.55 -8.15 -43.2 -8.05 -44.35 Q-7.75 -47.65 -6.65 -50.75 -6.5 -51.25 -3.9 -52.6 L-4.65 -51.35 -4.65 -51.25 -4.65 -51.2 -4.65 -51.25 -4.65 -51.35 -3.9 -52.6 Q-6.5 -51.25 -6.65 -50.75 -7.75 -47.65 -8.05 -44.35 L-8.15 -43.2 -8.95 -36.55 -8.95 -36.35 -8.95 -36.2 -8.95 -36.35 -10.0 -36.15 -8.95 -36.35 M13.0 -26.4 L14.05 -25.7 13.0 -26.4 Q11.65 -25.95 11.15 -24.95 L10.9 -26.1 11.15 -24.95 Q11.65 -25.95 13.0 -26.4 12.4 -27.0 12.05 -27.85 L11.6 -27.85 Q10.55 -27.9 10.2 -28.95 L10.1 -29.15 10.2 -28.95 Q10.55 -27.9 11.6 -27.85 L12.05 -27.85 Q12.4 -27.0 13.0 -26.4 M12.05 -27.85 L12.25 -27.9 Q14.9 -28.05 17.05 -29.05 14.9 -28.05 12.25 -27.9 L12.05 -27.85 M7.85 -37.85 L8.0 -37.65 7.85 -37.7 8.35 -33.7 Q8.5 -32.35 10.1 -29.15 L8.8 -28.85 6.2 -28.7 Q2.2 -28.4 -1.75 -28.7 L-3.65 -28.95 -6.15 -29.4 -3.65 -28.95 -1.75 -28.7 Q2.2 -28.4 6.2 -28.7 L8.8 -28.85 10.1 -29.15 Q8.5 -32.35 8.35 -33.7 L7.85 -37.7 7.85 -37.85 7.35 -41.6 7.3 -41.2 7.35 -41.7 7.35 -41.6 7.55 -42.6 7.7 -43.2 8.0 -45.2 Q8.4 -49.1 10.35 -51.9 8.4 -49.1 8.0 -45.2 L7.7 -43.2 7.55 -42.6 7.35 -41.6 7.35 -41.7 7.3 -41.2 7.35 -41.6 7.85 -37.85 7.85 -37.7 8.0 -37.65 7.85 -37.85 M3.3 -47.35 L2.35 -49.3 -0.25 -52.55 2.35 -49.3 3.3 -47.35 M2.0 -46.35 L2.0 -46.8 Q2.1 -48.2 1.6 -49.65 -0.05 -49.9 -1.65 -49.1 L-2.0 -49.35 -2.5 -49.4 -2.05 -49.95 -2.5 -49.4 -2.0 -49.35 -1.65 -49.1 Q-0.05 -49.9 1.6 -49.65 2.1 -48.2 2.0 -46.8 L2.0 -46.35 M14.05 -25.7 L15.4 -23.1 19.35 -23.2 20.35 -23.25 Q19.6 -25.45 17.15 -25.55 L16.35 -25.7 15.95 -25.35 Q14.85 -25.35 14.05 -25.7 13.0 -25.0 12.85 -23.25 L11.55 -23.3 10.85 -23.3 Q10.8 -24.25 11.15 -24.95 10.8 -24.25 10.85 -23.3 L11.55 -23.3 12.85 -23.25 Q13.0 -25.0 14.05 -25.7 M10.6 -6.9 Q10.1 -6.4 9.25 -6.25 8.5 -6.1 7.15 -6.75 8.5 -6.1 9.25 -6.25 10.1 -6.4 10.6 -6.9 M7.35 -18.75 L7.35 -18.2 9.75 -17.85 9.45 -20.45 9.3 -21.05 Q9.0 -22.4 7.7 -22.75 L7.7 -22.45 7.65 -22.35 7.35 -20.6 7.3 -19.4 7.35 -18.75 6.45 -18.7 5.85 -18.65 6.45 -18.7 7.35 -18.75 7.3 -19.4 7.35 -20.6 7.65 -22.35 7.7 -22.45 7.7 -22.75 7.65 -22.95 7.65 -23.15 7.25 -26.85 7.65 -23.15 7.65 -22.95 7.7 -22.75 Q9.0 -22.4 9.3 -21.05 L9.45 -20.45 9.75 -17.85 7.35 -18.2 7.3 -17.9 7.3 -17.05 9.8 -16.9 7.3 -17.05 7.3 -17.9 7.35 -18.2 7.35 -18.75 M7.3 -17.05 Q7.25 -15.9 7.35 -14.8 7.5 -12.45 8.0 -10.25 8.1 -9.85 8.35 -9.7 9.2 -9.15 10.2 -8.95 9.2 -9.15 8.35 -9.7 8.1 -9.85 8.0 -10.25 7.5 -12.45 7.35 -14.8 7.25 -15.9 7.3 -17.05 M9.45 -20.45 L7.35 -20.6 9.45 -20.45 M15.4 -23.1 L12.85 -23.25 15.4 -23.1 M17.0 -14.7 L15.7 -14.7 15.2 -14.75 11.3 -14.7 9.9 -14.65 9.85 -15.85 9.8 -16.9 9.75 -17.2 9.75 -17.85 10.05 -17.9 9.75 -17.85 9.75 -17.2 9.8 -16.9 9.85 -15.85 9.9 -14.65 11.3 -14.7 15.2 -14.75 15.7 -14.7 17.0 -14.7 17.6 -14.75 18.85 -14.9 19.5 -14.95 21.25 -15.05 21.45 -12.95 17.25 -12.8 17.0 -14.7 17.25 -12.8 21.45 -12.95 21.25 -15.05 19.5 -14.95 18.85 -14.9 17.6 -14.75 17.0 -14.7 M17.25 -27.3 Q17.05 -26.5 16.35 -25.7 17.05 -26.5 17.25 -27.3 M-11.35 -77.15 L-14.8 -75.95 -11.35 -77.15 M2.95 -26.45 L2.85 -18.65 2.95 -26.45 M27.05 -15.5 L26.6 -15.25 23.8 -15.0 22.55 -15.05 21.25 -15.05 22.55 -15.05 23.8 -15.0 26.6 -15.25 27.05 -15.5 M22.1 -22.35 L22.15 -23.25 20.35 -23.25 22.15 -23.25 22.1 -22.35 M10.85 -23.3 L7.65 -23.15 10.85 -23.3 M11.0 -9.45 L10.85 -9.75 Q10.45 -10.2 10.35 -10.8 L9.9 -14.65 10.35 -10.8 Q10.45 -10.2 10.85 -9.75 L11.0 -9.45 M-1.45 -9.45 Q-0.65 -9.0 0.1 -8.85 0.8 -8.75 1.6 -9.95 0.8 -8.75 0.1 -8.85 -0.65 -9.0 -1.45 -9.45 M-4.8 -68.95 Q-5.25 -66.65 -3.2 -66.2 -1.4 -65.85 -1.15 -66.6 -0.9 -67.65 -1.0 -68.6 -1.6 -71.7 -5.15 -72.65 -6.4 -72.9 -6.6 -72.4 -9.35 -67.9 -5.05 -64.35 -9.35 -67.9 -6.6 -72.4 -6.4 -72.9 -5.15 -72.65 -1.6 -71.7 -1.0 -68.6 -0.9 -67.65 -1.15 -66.6 -1.4 -65.85 -3.2 -66.2 -5.25 -66.65 -4.8 -68.95 M-13.95 -65.0 Q-14.8 -68.85 -13.65 -71.55 -14.8 -68.85 -13.95 -65.0 M-4.65 -61.7 L-5.7 -61.4 -6.2 -61.25 -6.7 -61.2 -8.65 -61.1 -10.5 -61.45 -8.65 -61.1 -6.7 -61.2 -6.2 -61.25 -5.7 -61.4 -4.65 -61.7 Q-9.05 -59.4 -10.5 -61.45 -9.05 -59.4 -4.65 -61.7 M-14.4 -64.0 L-10.6 -66.2 -14.4 -64.0 M-10.55 -62.7 L-11.75 -62.8 -14.0 -62.75 -11.75 -62.8 -10.55 -62.7 M-3.9 -52.6 L-3.25 -53.15 Q-2.3 -53.85 -1.2 -54.05 -0.75 -53.65 -0.95 -52.75 -0.75 -53.65 -1.2 -54.05 -2.3 -53.85 -3.25 -53.15 L-3.9 -52.6 M-8.95 -48.15 L-6.65 -50.75 -8.95 -48.15 M0.75 -18.8 L-1.3 -19.0 -2.35 -19.1 -1.3 -19.0 0.75 -18.8 M-2.25 -27.4 Q-1.85 -28.1 -2.25 -26.65 L-4.25 -19.25 -2.25 -26.65 Q-1.85 -28.1 -2.25 -27.4 M-18.6 -36.0 Q-19.4 -37.15 -19.55 -38.7 L-19.85 -39.9 -20.25 -41.25 -19.85 -39.9 -19.55 -38.7 Q-19.4 -37.15 -18.6 -36.0 M-5.35 -49.5 L-3.1 -49.0 Q-2.9 -49.35 -2.5 -49.4 -2.9 -49.35 -3.1 -49.0 L-3.25 -48.4 -3.35 -47.75 Q-3.35 -47.4 -3.0 -47.25 L-3.0 -47.3 -3.0 -47.25 -2.8 -47.2 -2.5 -47.15 -1.65 -47.3 -1.85 -47.7 -1.4 -47.45 -1.35 -47.95 -1.65 -49.1 -1.35 -47.95 -1.4 -47.45 -1.85 -47.7 -1.65 -47.3 -2.5 -47.15 -2.8 -47.2 -3.0 -47.25 -3.0 -47.3 -3.0 -47.25 Q-3.35 -47.4 -3.35 -47.75 L-3.25 -48.4 -3.1 -49.0 -5.35 -49.5 M-2.95 -43.7 L-2.5 -47.15 -2.95 -43.7 M-3.35 -47.75 Q-4.05 -47.0 -5.0 -46.75 -4.05 -47.0 -3.35 -47.75 M-4.3 -43.5 L-3.0 -47.25 -3.4 -46.75 -4.65 -45.0 -3.4 -46.75 -3.0 -47.25 -4.3 -43.5 M-1.65 -47.3 L-1.2 -46.45 -0.55 -44.75 -1.2 -46.45 -1.65 -47.3 -1.4 -47.45 -0.5 -46.5 0.85 -45.55 -0.5 -46.5 -1.4 -47.45 -1.65 -47.3 M-1.2 -54.05 L-1.1 -57.05 -1.2 -54.05" fill="#ffffff" fill-rule="evenodd" stroke="none"/>
    <path d="M20.2 -74.65 L20.2 -74.45 20.2 -72.7 M-8.0 -56.35 Q-8.95 -56.45 -9.6 -57.0 L-11.15 -58.55 Q-13.0 -60.35 -14.0 -62.75 M-14.4 -64.0 Q-14.9 -65.85 -14.75 -67.95 -14.7 -69.55 -15.15 -71.0 L-14.5 -71.85 -17.75 -69.1 -19.55 -73.35 Q-23.7 -84.7 -17.0 -88.25 -9.2 -92.45 -6.05 -89.7 6.0 -95.2 11.8 -89.75 18.65 -83.3 19.55 -76.75 M-8.0 -56.35 L-7.7 -56.35 -2.55 -56.75 -1.4 -57.0 -1.35 -57.0 -1.1 -57.05 0.65 -57.55 1.75 -58.0 3.1 -58.55 2.9 -62.15 Q2.75 -69.75 -3.55 -73.35 L-5.55 -74.3 Q-6.8 -75.85 -7.7 -77.5 M-7.95 -78.0 L-8.9 -80.35 -9.25 -81.6 -11.2 -77.45 M-11.35 -77.15 L-12.6 -74.4 -14.3 -72.05 -14.5 -71.85 M-13.65 -71.55 L-13.15 -72.55 Q-10.3 -73.4 -10.1 -69.6 -9.9 -65.95 -12.25 -66.7 -12.9 -67.0 -12.9 -67.75 -13.05 -69.15 -12.35 -69.6 M3.1 -58.55 L3.15 -56.35 6.8 -57.3 M-5.05 -64.35 Q-9.35 -67.9 -6.6 -72.4 -6.4 -72.9 -5.15 -72.65 -1.6 -71.7 -1.0 -68.6 -0.9 -67.65 -1.15 -66.6 -1.4 -65.85 -3.2 -66.2 -5.25 -66.65 -4.8 -68.95 M-13.65 -71.55 Q-14.8 -68.85 -13.95 -65.0 M-4.65 -61.7 Q-9.05 -59.4 -10.5 -61.45" fill="none" stroke="#000000" stroke-linecap="round" stroke-linejoin="round" stroke-width="0.05"/>
    <path d="M20.2 -72.7 Q19.65 -65.45 19.9 -60.0 20.2 -54.6 21.05 -52.4 21.85 -50.2 19.35 -45.95 L16.2 -40.85 16.55 -39.2 17.15 -36.15 17.8 -30.1 Q17.85 -29.45 17.05 -29.05 17.45 -28.15 17.25 -27.3 21.85 -27.1 22.15 -23.3 L22.15 -23.25 25.0 -22.85 Q25.3 -22.8 25.3 -22.35 L25.5 -21.45 Q26.3 -19.4 26.75 -17.2 L27.05 -15.5 27.2 -14.15 Q27.4 -11.9 27.05 -9.9 27.0 -9.45 26.45 -9.4 L18.8 -9.15 11.15 -9.0 10.2 -8.95 10.6 -6.9 Q12.6 -6.15 12.7 -4.2 12.75 -3.45 12.35 -2.95 L10.85 -1.75 Q7.5 0.25 3.4 -0.5 L2.1 -0.65 Q0.7 -0.6 0.7 -1.8 L2.35 -3.4 Q4.65 -5.55 7.15 -6.75 6.95 -7.8 6.9 -8.9 L6.6 -11.5 Q6.05 -15.25 5.85 -18.65 L2.85 -18.65 0.75 -18.8 1.0 -14.0 Q1.0 -12.05 1.5 -10.25 L1.6 -9.95 1.6 -9.9 1.65 -9.45 Q2.7 -8.45 2.9 -6.8 3.0 -6.1 2.4 -5.85 -0.6 -4.55 -4.7 -5.2 -6.75 -5.15 -8.05 -6.15 -4.8 -7.6 -1.5 -9.45 L-1.45 -9.45 Q-2.2 -12.05 -2.1 -15.15 -2.05 -17.15 -2.35 -19.1 L-4.25 -19.25 -9.05 -19.35 Q-9.35 -20.85 -9.0 -22.15 -7.95 -25.95 -6.15 -29.4 -6.45 -29.45 -6.85 -30.0 L-8.2 -32.1 Q-9.1 -33.65 -8.95 -36.2 -9.2 -35.8 -10.2 -35.5 L-11.05 -35.35 -18.1 -35.35 -18.6 -36.0 Q-19.75 -35.5 -21.2 -35.65 L-22.05 -35.7 Q-23.9 -35.7 -23.95 -37.65 -24.0 -38.45 -23.6 -38.7 L-20.25 -41.25 -20.25 -41.95 Q-20.15 -42.7 -18.9 -42.95 L-17.8 -43.2 Q-14.95 -43.95 -12.3 -45.6 -10.45 -46.75 -8.95 -48.15 -9.1 -49.4 -8.75 -50.55 L-8.5 -51.25 Q-7.9 -53.6 -8.0 -56.35 M-14.0 -62.75 L-16.0 -63.0 -15.7 -63.2 -14.4 -64.0 -10.6 -66.2 M19.55 -76.75 L20.15 -74.2 20.2 -74.65 M-7.7 -77.5 L-7.95 -78.0 M-11.2 -77.45 L-11.35 -77.15 -14.8 -75.95 M6.8 -57.3 L6.55 -55.4 7.45 -55.65 8.9 -55.75 9.65 -55.0 Q10.55 -54.05 10.35 -52.8 12.35 -51.45 13.55 -49.45 L14.2 -48.25 14.2 -48.2 14.7 -46.7 16.2 -40.85 M-4.8 -50.4 L-4.3 -51.1 Q-3.55 -52.8 -2.05 -49.95 L-0.25 -52.55 Q3.6 -52.8 7.0 -54.25 L7.25 -54.4 8.4 -55.15 M10.35 -52.8 L10.2 -52.65 9.9 -52.35 6.65 -49.3 Q5.2 -47.9 3.3 -47.35 L2.0 -46.35 1.9 -45.45 1.2 -45.35 0.85 -45.55 -0.55 -44.75 Q-0.1 -43.45 0.2 -42.0 L-1.45 -40.0 -1.9 -39.45 -2.85 -37.65 -2.95 -39.0 -3.0 -42.75 -3.0 -43.25 -2.95 -43.7 -3.95 -43.2 -4.2 -43.0 -4.25 -43.2 -4.3 -43.5 -4.35 -43.5 Q-4.9 -41.75 -5.1 -39.85 L-5.2 -39.15 -5.2 -38.65 Q-5.35 -40.2 -5.9 -41.55 L-5.95 -42.5 -4.65 -45.0 -5.0 -46.75 -5.8 -46.65 Q-6.15 -46.65 -6.35 -46.85 -7.0 -47.65 -6.45 -48.8 -6.3 -49.0 -6.3 -49.25 -6.25 -49.6 -6.05 -49.55 L-5.35 -49.5 -5.4 -50.35 -4.8 -50.4 Q-5.45 -50.9 -4.65 -51.2 L-4.65 -51.25 -4.65 -51.35 -3.9 -52.6 Q-6.5 -51.25 -6.65 -50.75 -7.75 -47.65 -8.05 -44.35 L-8.15 -43.2 -8.95 -36.55 -8.95 -36.35 -8.95 -36.2 -8.95 -36.35 -10.0 -36.15 M20.2 -74.45 L20.15 -74.2 M-2.05 -49.95 L-2.5 -49.4 -2.0 -49.35 -1.65 -49.1 Q-0.05 -49.9 1.6 -49.65 2.1 -48.2 2.0 -46.8 L2.0 -46.35 M-0.25 -52.55 L2.35 -49.3 3.3 -47.35 M-6.15 -29.4 L-3.65 -28.95 -1.75 -28.7 Q2.2 -28.4 6.2 -28.7 L8.8 -28.85 10.1 -29.15 Q8.5 -32.35 8.35 -33.7 L7.85 -37.7 7.85 -37.85 7.35 -41.6 7.3 -41.2 7.35 -41.7 7.35 -41.6 7.55 -42.6 7.7 -43.2 8.0 -45.2 Q8.4 -49.1 10.35 -51.9 M7.85 -37.7 L8.0 -37.65 7.85 -37.85 M10.9 -26.1 L11.15 -24.95 Q11.65 -25.95 13.0 -26.4 12.4 -27.0 12.05 -27.85 L11.6 -27.85 Q10.55 -27.9 10.2 -28.95 L10.1 -29.15 M17.05 -29.05 Q14.9 -28.05 12.25 -27.9 L12.05 -27.85 M14.05 -25.7 L13.0 -26.4 M14.05 -25.7 L15.4 -23.1 19.35 -23.2 20.35 -23.25 Q19.6 -25.45 17.15 -25.55 L16.35 -25.7 15.95 -25.35 Q14.85 -25.35 14.05 -25.7 13.0 -25.0 12.85 -23.25 L15.4 -23.1 M16.35 -25.7 Q17.05 -26.5 17.25 -27.3 M11.15 -24.95 Q10.8 -24.25 10.85 -23.3 L11.55 -23.3 12.85 -23.25 M17.25 -12.8 L21.45 -12.95 21.25 -15.05 19.5 -14.95 18.85 -14.9 17.6 -14.75 17.0 -14.7 17.25 -12.8 M10.05 -17.9 L9.75 -17.85 9.75 -17.2 9.8 -16.9 9.85 -15.85 9.9 -14.65 11.3 -14.7 15.2 -14.75 15.7 -14.7 17.0 -14.7 M5.85 -18.65 L6.45 -18.7 7.35 -18.75 7.3 -19.4 7.35 -20.6 7.65 -22.35 7.7 -22.45 7.7 -22.75 7.65 -22.95 7.65 -23.15 7.25 -26.85 M7.7 -22.75 Q9.0 -22.4 9.3 -21.05 L9.45 -20.45 9.75 -17.85 7.35 -18.2 7.3 -17.9 7.3 -17.05 9.8 -16.9 M7.35 -20.6 L9.45 -20.45 M10.2 -8.95 Q9.2 -9.15 8.35 -9.7 8.1 -9.85 8.0 -10.25 7.5 -12.45 7.35 -14.8 7.25 -15.9 7.3 -17.05 M7.35 -18.2 L7.35 -18.75 M7.15 -6.75 Q8.5 -6.1 9.25 -6.25 10.1 -6.4 10.6 -6.9 M1.65 -9.45 L1.6 -9.5 1.6 -9.9 1.6 -9.95 Q0.8 -8.75 0.1 -8.85 -0.65 -9.0 -1.45 -9.45 M9.9 -14.65 L10.35 -10.8 Q10.45 -10.2 10.85 -9.75 L11.0 -9.45 M7.65 -23.15 L10.85 -23.3 M20.35 -23.25 L22.15 -23.25 22.1 -22.35 M21.25 -15.05 L22.55 -15.05 23.8 -15.0 26.6 -15.25 27.05 -15.5 M2.85 -18.65 L2.95 -26.45 M-7.7 -77.5 L-4.9 -76.35 -2.75 -75.4 M-14.0 -62.75 L-11.75 -62.8 -10.55 -62.7 M-10.5 -61.45 L-8.65 -61.1 -6.7 -61.2 -6.2 -61.25 -5.7 -61.4 -4.65 -61.7 M-0.95 -52.75 Q-0.75 -53.65 -1.2 -54.05 -2.3 -53.85 -3.25 -53.15 L-3.9 -52.6 M-4.8 -50.4 L-4.65 -51.2 M-1.1 -57.05 L-1.2 -54.05 M-2.5 -49.4 Q-2.9 -49.35 -3.1 -49.0 L-3.25 -48.4 -3.35 -47.75 Q-3.35 -47.4 -3.0 -47.25 L-3.0 -47.3 -3.0 -47.25 -2.8 -47.2 -2.5 -47.15 -1.65 -47.3 -1.85 -47.7 -1.4 -47.45 -1.35 -47.95 -1.65 -49.1 M-1.65 -47.3 L-1.4 -47.45 -0.5 -46.5 0.85 -45.55 M-0.55 -44.75 L-1.2 -46.45 -1.65 -47.3 M-4.65 -45.0 L-3.4 -46.75 -3.0 -47.25 -4.3 -43.5 M-5.0 -46.75 Q-4.05 -47.0 -3.35 -47.75 M-2.5 -47.15 L-2.95 -43.7 M-3.1 -49.0 L-5.35 -49.5 M-20.25 -41.25 L-19.85 -39.9 -19.55 -38.7 Q-19.4 -37.15 -18.6 -36.0 M-4.25 -19.25 L-2.25 -26.65 Q-1.85 -28.1 -2.25 -27.4 M-2.35 -19.1 L-1.3 -19.0 0.75 -18.8 M-6.65 -50.75 L-8.95 -48.15" fill="none" stroke="#000000" stroke-linecap="round" stroke-linejoin="round" stroke-width="0.05"/>
  </g>
</svg>
