<?xml version="1.0" encoding="UTF-8" standalone="no"?>
<svg xmlns:ffdec="https://www.free-decompiler.com/flash" xmlns:xlink="http://www.w3.org/1999/xlink" ffdec:objectType="shape" height="88.3px" width="50.55px" xmlns="http://www.w3.org/2000/svg">
  <g transform="matrix(1.0, 0.0, 0.0, 1.0, 27.0, 88.55)">
    <path d="M-5.35 -51.0 L-5.35 -51.05 -5.3 -51.1 -5.25 -51.15 -5.05 -51.4 -4.7 -51.9 -4.5 -52.15 -3.55 -52.85 Q-1.9 -53.75 0.05 -54.05 -0.1 -55.55 -0.6 -56.95 L-2.7 -56.55 -6.85 -56.1 Q-9.25 -56.05 -10.4 -57.15 -12.8 -59.5 -14.6 -62.75 L-14.9 -63.75 -15.1 -66.65 -18.2 -69.75 Q-19.5 -71.75 -19.5 -74.2 -19.5 -76.65 -18.65 -78.95 -17.3 -82.6 -14.55 -85.45 -11.9 -88.25 -7.85 -88.25 L-4.2 -87.5 Q-0.7 -89.2 3.0 -88.2 L7.35 -86.65 Q10.1 -85.35 12.05 -83.05 14.5 -80.15 15.7 -76.65 16.65 -73.8 16.4 -70.6 16.1 -66.7 14.55 -63.4 L12.6 -59.95 Q11.5 -58.4 11.95 -56.5 11.1 -56.65 10.25 -58.0 L10.05 -58.4 Q9.85 -58.25 9.8 -57.45 9.75 -56.75 9.3 -56.3 7.75 -57.6 7.25 -59.3 L6.3 -58.65 6.35 -56.05 Q7.7 -56.1 8.7 -55.45 L9.65 -54.25 Q10.05 -53.4 10.05 -52.7 L10.05 -52.3 9.55 -51.65 Q6.3 -49.65 3.7 -47.45 6.3 -49.65 9.55 -51.65 L10.05 -52.3 10.9 -51.9 10.9 -51.95 10.95 -52.0 Q13.05 -51.7 14.55 -50.0 15.75 -48.65 17.45 -48.05 L20.05 -46.65 Q21.6 -45.55 22.75 -44.05 23.4 -43.25 23.5 -42.4 23.65 -40.8 23.35 -39.55 L22.4 -37.55 Q20.15 -34.2 16.55 -33.05 L16.05 -32.85 15.4 -32.6 14.3 -32.75 13.7 -33.25 13.15 -32.95 13.5 -32.35 13.35 -30.05 13.15 -29.4 14.25 -28.35 14.4 -28.15 16.7 -21.3 Q16.8 -20.95 16.5 -20.85 L14.3 -20.15 14.2 -20.15 12.1 -19.8 12.25 -19.0 12.25 -17.3 12.5 -10.25 12.5 -10.05 12.5 -9.95 12.5 -9.7 12.9 -9.95 Q15.3 -6.9 15.4 -3.05 L15.25 -2.15 Q14.7 -0.6 12.9 -0.55 L11.45 -0.4 Q8.65 0.15 7.0 -1.15 5.55 -2.3 6.1 -4.2 L6.7 -6.15 Q7.3 -8.05 9.2 -9.3 L9.15 -9.7 9.0 -12.35 8.35 -19.7 3.95 -19.8 1.7 -19.8 1.5 -19.8 -2.9 -19.9 -3.55 -19.95 -3.75 -19.95 -2.6 -19.8 Q-3.35 -17.1 -4.45 -14.3 L-5.1 -12.1 -5.45 -11.05 Q-4.5 -10.15 -4.5 -8.35 -4.5 -7.5 -5.15 -7.3 L-7.55 -7.0 -15.15 -6.9 Q-17.1 -6.8 -17.05 -8.35 L-16.95 -8.7 Q-16.55 -9.3 -15.35 -9.5 -11.5 -10.15 -8.8 -12.05 L-8.2 -12.05 -8.05 -14.15 Q-7.95 -16.1 -7.3 -17.8 L-6.35 -20.2 -6.65 -20.3 -7.85 -20.5 Q-8.75 -20.35 -8.7 -21.1 L-8.4 -22.7 -6.3 -29.5 -6.25 -30.0 -6.45 -30.05 Q-6.95 -30.15 -7.2 -30.75 L-8.15 -33.85 -8.8 -35.8 Q-9.3 -37.25 -9.1 -39.2 L-8.8 -43.2 -8.8 -43.35 -11.45 -43.5 -14.9 -44.15 Q-18.7 -45.2 -21.55 -47.55 -22.3 -48.1 -21.95 -49.2 L-21.8 -49.6 Q-22.35 -49.4 -23.05 -49.85 L-23.45 -50.05 Q-25.25 -50.35 -26.3 -51.15 L-25.65 -51.5 -24.55 -52.3 -24.95 -52.75 Q-25.9 -53.0 -26.0 -54.05 -26.1 -56.2 -26.95 -58.05 L-27.0 -58.25 -24.4 -58.6 -24.1 -58.5 Q-22.2 -56.3 -20.05 -53.3 L-19.4 -53.7 Q-18.1 -54.05 -16.7 -53.3 L-13.15 -51.75 Q-9.85 -50.55 -5.9 -50.95 L-5.9 -50.15 -5.35 -51.0 M6.3 -58.65 L6.25 -59.35 6.3 -58.65 M7.2 -63.75 Q6.85 -63.05 6.95 -61.85 L7.15 -59.8 7.25 -59.3 7.15 -59.8 6.95 -61.85 Q6.85 -63.05 7.2 -63.75 M7.2 -64.45 Q8.8 -64.35 9.9 -65.15 11.2 -66.1 10.85 -67.9 10.65 -68.95 9.65 -69.3 7.25 -70.15 5.85 -68.85 4.85 -68.45 4.5 -67.5 4.1 -66.2 3.2 -65.55 L3.1 -65.5 3.0 -65.45 2.95 -65.65 2.95 -65.8 Q3.0 -67.25 2.4 -68.45 L-0.8 -74.75 2.4 -68.45 Q3.0 -67.25 2.95 -65.8 L2.95 -65.65 3.0 -65.45 3.1 -65.5 3.2 -65.55 Q4.1 -66.2 4.5 -67.5 4.85 -68.45 5.85 -68.85 7.25 -70.15 9.65 -69.3 10.65 -68.95 10.85 -67.9 11.2 -66.1 9.9 -65.15 8.8 -64.35 7.2 -64.45 M-8.8 -43.35 L-8.3 -45.6 -6.95 -48.35 -6.5 -49.2 -5.9 -50.15 -6.5 -49.2 -6.95 -48.35 -8.3 -45.6 -8.8 -43.35 M0.15 -51.4 L0.15 -51.45 5.8 -53.55 6.6 -53.75 7.2 -53.85 6.6 -53.75 5.8 -53.55 0.15 -51.45 -0.3 -51.3 -0.75 -51.1 Q-1.65 -50.7 -2.2 -49.55 -1.65 -50.7 -0.75 -51.1 L-0.3 -51.3 0.15 -51.4 Q1.35 -51.5 1.65 -50.25 L1.75 -49.9 1.65 -50.25 Q1.35 -51.5 0.15 -51.4 M2.25 -49.15 L2.0 -49.85 1.9 -49.95 1.75 -49.9 1.9 -49.65 2.25 -49.15 3.3 -47.2 2.25 -49.15 Q2.95 -46.7 1.2 -45.05 0.5 -44.35 -0.1 -45.4 L-1.1 -46.55 Q-1.25 -46.1 -1.7 -45.85 -0.85 -43.5 1.1 -41.85 L1.2 -41.7 -2.5 -36.7 -2.8 -38.05 Q-2.85 -41.85 -2.5 -45.4 -2.85 -41.85 -2.8 -38.05 L-2.5 -36.7 1.2 -41.7 1.1 -41.85 Q-0.85 -43.5 -1.7 -45.85 -1.25 -46.1 -1.1 -46.55 L-0.1 -45.4 Q0.5 -44.35 1.2 -45.05 2.95 -46.7 2.25 -49.15 M3.7 -47.45 L3.3 -47.2 3.35 -47.05 Q3.35 -47.05 3.45 -47.0 3.3 -47.1 3.7 -47.45 M0.1 -53.05 L0.05 -54.05 0.1 -53.05 M-3.4 -45.5 L-3.0 -45.5 -2.5 -45.4 -1.7 -45.85 -2.25 -45.75 -2.5 -45.85 -2.7 -45.9 -3.15 -46.05 -3.4 -45.65 -3.45 -45.55 -5.2 -42.25 Q-6.95 -38.9 -4.6 -36.35 L-4.3 -38.05 -3.4 -45.5 -4.3 -38.05 -4.6 -36.35 Q-6.95 -38.9 -5.2 -42.25 L-3.45 -45.55 -3.4 -45.5 M6.45 -54.4 L6.35 -56.05 6.45 -54.4 M-5.05 -51.4 L-5.2 -51.1 -5.2 -51.0 -5.2 -50.95 -5.45 -49.9 -5.55 -49.65 -5.5 -49.65 -5.25 -49.8 -3.8 -50.95 -3.45 -51.05 Q-2.45 -51.05 -2.2 -49.55 L-2.2 -49.5 -2.5 -48.9 -3.05 -48.9 Q-3.65 -48.85 -3.8 -48.45 L-3.8 -48.4 -4.95 -49.5 -5.15 -49.65 -5.15 -49.6 -5.4 -49.5 -5.95 -48.85 -6.2 -47.95 Q-6.35 -46.3 -5.45 -45.8 L-4.8 -45.85 -3.85 -46.6 -3.15 -46.05 -3.85 -46.6 -4.8 -45.85 -5.45 -45.8 Q-6.35 -46.3 -6.2 -47.95 L-5.95 -48.85 -5.4 -49.5 -5.15 -49.6 -5.15 -49.65 -4.95 -49.5 -3.8 -48.4 -3.8 -48.45 Q-3.65 -48.85 -3.05 -48.9 L-2.5 -48.9 -2.2 -49.5 -2.2 -49.55 Q-2.45 -51.05 -3.45 -51.05 L-3.8 -50.95 -5.25 -49.8 -5.5 -49.65 -5.55 -49.65 -5.45 -49.9 -5.2 -50.95 -5.2 -51.0 -5.2 -51.1 -5.05 -51.4 M12.6 -41.35 L12.35 -40.7 12.7 -36.9 12.7 -36.8 12.75 -36.85 Q13.45 -38.25 14.4 -39.25 L14.8 -39.9 14.95 -40.35 15.0 -40.4 12.6 -41.35 11.65 -41.75 11.15 -41.95 Q10.3 -42.25 9.55 -42.65 8.45 -43.25 8.6 -45.1 8.9 -48.85 10.9 -51.9 8.9 -48.85 8.6 -45.1 8.45 -43.25 9.55 -42.65 10.3 -42.25 11.15 -41.95 L11.65 -41.75 12.6 -41.35 M17.65 -43.0 Q15.9 -42.35 15.05 -40.45 L15.0 -40.4 15.05 -40.45 Q15.9 -42.35 17.65 -43.0 M12.5 -9.7 Q12.05 -7.95 11.15 -7.95 L9.6 -8.2 Q8.95 -8.4 9.2 -9.3 8.95 -8.4 9.6 -8.2 L11.15 -7.95 Q12.05 -7.95 12.5 -9.7 M9.5 -19.2 L9.5 -19.7 8.35 -19.7 9.5 -19.7 9.5 -19.2 M12.1 -19.8 L11.95 -19.75 11.75 -19.75 9.5 -19.7 Q9.4 -22.75 8.45 -25.45 9.4 -22.75 9.5 -19.7 L11.75 -19.75 11.95 -19.75 12.1 -19.8 M13.15 -29.4 Q12.65 -28.6 11.4 -28.55 12.65 -28.6 13.15 -29.4 M12.7 -36.8 L12.4 -36.25 12.35 -35.5 12.4 -35.4 Q12.8 -34.15 13.7 -33.25 12.8 -34.15 12.4 -35.4 L12.35 -35.5 9.3 -35.05 Q8.85 -35.05 8.75 -34.45 8.45 -32.35 7.6 -30.45 L10.05 -29.95 Q11.6 -29.8 11.85 -31.0 12.1 -32.2 13.05 -32.9 L13.15 -32.95 13.05 -32.9 Q12.1 -32.2 11.85 -31.0 11.6 -29.8 10.05 -29.95 L7.6 -30.45 Q8.45 -32.35 8.75 -34.45 8.85 -35.05 9.3 -35.05 L12.35 -35.5 12.4 -36.25 12.7 -36.8 M10.65 -28.7 L8.55 -28.45 2.85 -29.0 -4.6 -29.85 -6.25 -30.0 -4.6 -29.85 2.85 -29.0 8.55 -28.45 10.65 -28.7 M-2.5 -73.6 L-3.75 -73.9 -4.7 -76.15 -5.35 -77.8 -5.9 -76.65 Q-6.45 -75.9 -6.5 -75.0 L-6.55 -74.6 Q-6.55 -73.45 -6.75 -73.15 L-6.8 -73.1 -6.85 -73.05 -6.9 -73.2 -8.15 -75.05 -8.25 -75.3 -8.95 -77.8 -8.25 -75.3 -8.15 -75.05 -6.9 -73.2 -6.85 -73.05 -6.8 -73.1 -6.75 -73.15 Q-6.55 -73.45 -6.55 -74.6 L-6.5 -75.0 -7.45 -75.55 -6.5 -75.0 Q-6.45 -75.9 -5.9 -76.65 L-5.35 -77.8 -4.7 -76.15 -3.75 -73.9 -2.5 -73.6 M-10.85 -74.25 Q-11.55 -73.75 -12.4 -73.4 -10.95 -75.7 -9.65 -78.15 L-9.35 -78.75 -9.65 -78.15 Q-10.95 -75.7 -12.4 -73.4 -11.55 -73.75 -10.85 -74.25 M-15.1 -66.65 L-15.3 -68.1 -15.5 -69.2 -16.0 -71.4 -15.95 -71.7 -15.55 -73.15 -14.6 -75.35 -14.3 -75.9 -14.25 -75.55 -14.2 -75.4 -14.2 -75.15 -13.95 -73.25 -13.9 -73.0 -14.85 -72.85 -13.9 -73.0 -13.95 -73.25 -14.2 -75.15 -14.2 -75.4 -14.25 -75.55 -14.3 -75.9 -14.6 -75.35 -15.55 -73.15 -15.95 -71.7 -16.0 -71.4 -15.5 -69.2 -15.3 -68.1 -15.1 -66.65 M3.8 -25.65 Q3.5 -22.8 3.95 -19.8 3.5 -22.8 3.8 -25.65 M12.15 -26.15 L14.05 -20.9 12.15 -26.15 M-1.15 -74.6 L-0.8 -74.75 -1.0 -75.15 -1.05 -74.8 -1.15 -74.6 -1.5 -73.25 -2.1 -71.55 -2.15 -71.6 -3.75 -73.9 Q-5.2 -74.35 -6.5 -75.0 -5.2 -74.35 -3.75 -73.9 L-2.15 -71.6 -2.1 -71.55 -1.5 -73.25 -1.15 -74.6 M-21.8 -49.6 L-20.5 -52.75 -20.05 -53.3 -20.5 -52.75 -21.8 -49.6 M-3.85 -69.9 Q-5.4 -69.8 -5.0 -68.15 -4.55 -66.15 -2.55 -67.05 -0.55 -67.9 -1.75 -70.0 L-2.6 -71.15 -2.6 -71.2 Q-4.05 -72.65 -6.25 -72.0 -8.65 -71.35 -8.25 -68.7 -7.75 -65.3 -4.4 -65.25 -7.75 -65.3 -8.25 -68.7 -8.65 -71.35 -6.25 -72.0 -4.05 -72.65 -2.6 -71.2 L-2.6 -71.15 -1.75 -70.0 Q-0.55 -67.9 -2.55 -67.05 -4.55 -66.15 -5.0 -68.15 -5.4 -69.8 -3.85 -69.9 M-4.75 -61.3 L-4.8 -59.55 -5.95 -61.05 -4.75 -61.3 -3.2 -61.8 -2.9 -61.9 -2.7 -62.0 Q-2.7 -61.05 -3.95 -60.05 -4.35 -59.7 -4.8 -59.5 -6.05 -58.85 -7.3 -59.25 -8.0 -59.5 -8.7 -60.05 L-9.55 -61.2 -10.5 -61.45 -9.55 -61.2 -8.7 -60.05 Q-8.0 -59.5 -7.3 -59.25 -6.05 -58.85 -4.8 -59.5 -4.35 -59.7 -3.95 -60.05 -2.7 -61.05 -2.7 -62.0 L-2.9 -61.9 -3.2 -61.8 -4.75 -61.3 -5.95 -61.05 -4.8 -59.55 -4.75 -61.3 M-10.4 -62.4 L-11.65 -62.5 -12.0 -62.5 Q-13.25 -62.5 -13.35 -62.8 L-13.3 -62.9 Q-12.15 -63.95 -10.7 -65.8 -12.15 -63.95 -13.3 -62.9 L-13.35 -62.8 Q-13.25 -62.5 -12.0 -62.5 L-11.65 -62.5 -10.4 -62.4 M-16.7 -69.75 Q-16.25 -70.35 -16.0 -71.4 -16.25 -70.35 -16.7 -69.75 M-11.45 -68.6 Q-12.85 -68.8 -12.65 -67.55 -12.45 -66.15 -11.05 -66.8 L-10.45 -67.4 Q-9.2 -69.8 -11.65 -70.7 L-13.5 -70.75 Q-14.25 -70.45 -14.6 -69.4 L-14.8 -68.2 Q-14.85 -66.6 -13.15 -66.0 -14.85 -66.6 -14.8 -68.2 L-14.6 -69.4 Q-14.25 -70.45 -13.5 -70.75 L-11.65 -70.7 Q-9.2 -69.8 -10.45 -67.4 L-11.05 -66.8 Q-12.45 -66.15 -12.65 -67.55 -12.85 -68.8 -11.45 -68.6 M-12.4 -73.4 L-13.9 -73.0 Q-13.75 -71.85 -13.9 -71.55 -13.5 -71.7 -13.15 -72.3 L-12.4 -73.4 -13.15 -72.3 Q-13.5 -71.7 -13.9 -71.55 -13.75 -71.85 -13.9 -73.0 L-12.4 -73.4 M-6.45 -61.0 L-5.95 -61.05 -6.3 -61.45 -6.35 -61.25 -6.45 -61.0 -7.9 -61.0 -7.3 -59.7 -7.25 -59.55 -6.45 -61.0 -7.25 -59.55 -7.3 -59.7 -7.9 -61.0 -9.55 -61.2 -7.9 -61.0 -6.45 -61.0 M-3.8 -48.4 L-3.85 -48.2 Q-4.2 -47.25 -3.9 -46.65 L-3.85 -46.6 -3.9 -46.65 Q-4.2 -47.25 -3.85 -48.2 L-3.8 -48.4 M-1.1 -46.55 L-1.05 -47.2 Q-1.1 -48.0 -1.4 -48.4 -1.8 -48.85 -2.5 -48.9 -1.8 -48.85 -1.4 -48.4 -0.05 -49.7 1.75 -49.9 -0.05 -49.7 -1.4 -48.4 -1.1 -48.0 -1.05 -47.2 L-1.1 -46.55 M-3.75 -19.95 L-5.8 -20.1 -5.9 -20.1 -6.35 -20.2 -5.9 -20.1 -5.8 -20.1 -3.75 -19.95 M-1.15 -26.9 Q-1.8 -23.55 -3.45 -20.15 L-3.55 -19.95 -3.45 -20.15 Q-1.8 -23.55 -1.15 -26.9 M-8.2 -12.05 L-7.3 -11.95 Q-6.15 -11.7 -5.45 -11.05 -6.15 -11.7 -7.3 -11.95 L-8.2 -12.05 M3.95 -58.4 L-0.6 -56.95 3.95 -58.4" fill="#ffffff" fill-rule="evenodd" stroke="none"/>
    <path d="M-5.35 -51.0 L-5.35 -51.05 -5.3 -51.1 -5.25 -51.15 -5.05 -51.4 -4.7 -51.9 -4.5 -52.15 -3.55 -52.85 Q-1.9 -53.75 0.05 -54.05 -0.1 -55.55 -0.6 -56.95 L-2.7 -56.55 -6.85 -56.1 Q-9.25 -56.05 -10.4 -57.15 -12.8 -59.5 -14.6 -62.75 L-14.9 -63.75 -15.1 -66.65 -18.2 -69.75 Q-19.5 -71.75 -19.5 -74.2 -19.5 -76.65 -18.65 -78.95 -17.3 -82.6 -14.55 -85.45 -11.9 -88.25 -7.85 -88.25 L-4.2 -87.5 Q-0.7 -89.2 3.0 -88.2 L7.35 -86.65 Q10.1 -85.35 12.05 -83.05 14.5 -80.15 15.7 -76.65 16.65 -73.8 16.4 -70.6 16.1 -66.7 14.55 -63.4 L12.6 -59.95 Q11.5 -58.4 11.95 -56.5 11.1 -56.65 10.25 -58.0 L10.05 -58.4 Q9.85 -58.25 9.8 -57.45 9.75 -56.75 9.3 -56.3 7.75 -57.6 7.25 -59.3 L6.3 -58.65 6.35 -56.05 Q7.7 -56.1 8.7 -55.45 L9.65 -54.25 Q10.05 -53.4 10.05 -52.7 L10.05 -52.3 10.9 -51.95 10.95 -52.0 Q13.05 -51.7 14.55 -50.0 15.75 -48.65 17.45 -48.05 L20.05 -46.65 Q21.6 -45.55 22.75 -44.05 23.4 -43.25 23.5 -42.4 23.65 -40.8 23.35 -39.55 L22.4 -37.55 Q20.15 -34.2 16.55 -33.05 L16.05 -32.85 15.4 -32.6 14.3 -32.75 13.7 -33.25 13.15 -32.95 13.05 -32.9 Q12.1 -32.2 11.85 -31.0 11.6 -29.8 10.05 -29.95 L7.6 -30.45 Q8.45 -32.35 8.75 -34.45 8.85 -35.05 9.3 -35.05 L12.35 -35.5 12.4 -36.25 12.7 -36.8 12.75 -36.85 Q13.45 -38.25 14.4 -39.25 L14.8 -39.9 14.95 -40.35 15.0 -40.4 15.05 -40.45 Q15.9 -42.35 17.65 -43.0 M13.5 -32.35 L13.35 -30.05 13.15 -29.4 14.25 -28.35 14.4 -28.15 16.7 -21.3 Q16.8 -20.95 16.5 -20.85 L14.3 -20.15 14.2 -20.15 12.1 -19.8 12.25 -19.0 12.25 -17.3 12.5 -10.25 12.75 -10.15 12.85 -10.05 12.9 -9.95 Q15.3 -6.9 15.4 -3.05 L15.25 -2.15 Q14.7 -0.6 12.9 -0.55 L11.45 -0.4 Q8.65 0.15 7.0 -1.15 5.55 -2.3 6.1 -4.2 L6.7 -6.15 Q7.3 -8.05 9.2 -9.3 L9.15 -9.7 9.0 -12.35 8.35 -19.7 3.95 -19.8 1.7 -19.8 1.5 -19.8 -2.9 -19.9 -3.55 -19.95 -3.75 -19.95 -5.8 -20.1 -5.9 -20.1 -6.35 -20.2 -6.65 -20.3 -7.85 -20.5 Q-8.75 -20.35 -8.7 -21.1 L-8.4 -22.7 -6.3 -29.5 M-6.25 -30.0 L-6.45 -30.05 Q-6.95 -30.15 -7.2 -30.75 L-8.15 -33.85 -8.8 -35.8 Q-9.3 -37.25 -9.1 -39.2 L-8.8 -43.2 -8.8 -43.35 -11.45 -43.5 -14.9 -44.15 Q-18.7 -45.2 -21.55 -47.55 -22.3 -48.1 -21.95 -49.2 L-21.8 -49.6 Q-22.35 -49.4 -23.05 -49.85 L-23.45 -50.05 Q-25.25 -50.35 -26.3 -51.15 L-25.65 -51.5 -24.55 -52.3 -24.95 -52.75 Q-25.9 -53.0 -26.0 -54.05 -26.1 -56.2 -26.95 -58.05 L-27.0 -58.25 -24.4 -58.6 -24.1 -58.5 Q-22.2 -56.3 -20.05 -53.3 L-19.4 -53.7 Q-18.1 -54.05 -16.7 -53.3 L-13.15 -51.75 Q-9.85 -50.55 -5.9 -50.95 L-5.35 -51.0 -5.9 -50.15 -6.5 -49.2 -6.95 -48.35 -8.3 -45.6 -8.8 -43.35 M-0.8 -74.75 L2.4 -68.45 Q3.0 -67.25 2.95 -65.8 L2.95 -65.65 3.0 -65.45 3.1 -65.5 3.2 -65.55 Q4.1 -66.2 4.5 -67.5 4.85 -68.45 5.85 -68.85 7.25 -70.15 9.65 -69.3 10.65 -68.95 10.85 -67.9 11.2 -66.1 9.9 -65.15 8.8 -64.35 7.2 -64.45 M7.25 -59.3 L7.15 -59.8 6.95 -61.85 Q6.85 -63.05 7.2 -63.75 M6.25 -59.35 L6.3 -58.65 M0.15 -51.4 Q1.35 -51.5 1.65 -50.25 L1.75 -49.9 1.9 -49.95 2.0 -49.85 2.25 -49.15 3.3 -47.2 3.35 -47.05 Q3.35 -47.05 3.45 -47.0 3.3 -47.1 3.7 -47.45 6.3 -49.65 9.55 -51.65 L10.05 -52.3 M10.9 -51.9 L10.9 -51.95 M0.05 -54.05 L0.1 -53.05 M1.75 -49.9 L1.9 -49.65 2.25 -49.15 Q2.95 -46.7 1.2 -45.05 0.5 -44.35 -0.1 -45.4 L-1.1 -46.55 Q-1.25 -46.1 -1.7 -45.85 -0.85 -43.5 1.1 -41.85 L1.2 -41.7 -2.5 -36.7 -2.8 -38.05 Q-2.85 -41.85 -2.5 -45.4 L-2.5 -45.5 -2.5 -45.55 -2.5 -45.75 -2.25 -45.75 -2.5 -45.85 -2.7 -45.9 -2.5 -45.75 -2.5 -45.85 M-3.4 -45.5 L-4.3 -38.05 -4.6 -36.35 Q-6.95 -38.9 -5.2 -42.25 L-3.45 -45.55 -3.4 -45.65 -3.15 -46.05 -3.85 -46.6 -4.8 -45.85 -5.45 -45.8 Q-6.35 -46.3 -6.2 -47.95 L-5.95 -48.85 -5.4 -49.5 -5.15 -49.6 -5.15 -49.65 -4.95 -49.5 -3.8 -48.4 -3.8 -48.45 Q-3.65 -48.85 -3.05 -48.9 L-2.5 -48.9 -2.2 -49.5 -2.2 -49.55 Q-2.45 -51.05 -3.45 -51.05 L-3.8 -50.95 -5.25 -49.8 -5.5 -49.65 -5.55 -49.65 -5.45 -49.9 -5.2 -50.95 -5.2 -51.0 -5.2 -51.1 -5.05 -51.4 M0.15 -51.45 L5.8 -53.55 6.6 -53.75 7.2 -53.85 M6.35 -56.05 L6.45 -54.4 M12.6 -41.35 L11.65 -41.75 11.15 -41.95 Q10.3 -42.25 9.55 -42.65 8.45 -43.25 8.6 -45.1 8.9 -48.85 10.9 -51.9 M12.6 -41.35 L15.0 -40.4 M12.35 -40.7 L12.7 -36.9 12.7 -36.8 M13.7 -33.25 Q12.8 -34.15 12.4 -35.4 L12.35 -35.5 M-6.25 -30.0 L-4.6 -29.85 2.85 -29.0 8.55 -28.45 10.65 -28.7 M11.4 -28.55 Q12.65 -28.6 13.15 -29.4 M8.45 -25.45 Q9.4 -22.75 9.5 -19.7 L11.75 -19.75 11.95 -19.75 12.1 -19.8 M8.35 -19.7 L9.5 -19.7 9.5 -19.2 M9.2 -9.3 Q8.95 -8.4 9.6 -8.2 L11.15 -7.95 Q12.05 -7.95 12.5 -9.7 L12.5 -9.95 12.5 -10.05 12.5 -10.25 M14.05 -20.9 L12.15 -26.15 M3.95 -19.8 Q3.5 -22.8 3.8 -25.65 M-14.85 -72.85 L-13.9 -73.0 -13.95 -73.25 -14.2 -75.15 -14.2 -75.4 -14.25 -75.55 -14.3 -75.9 -14.6 -75.35 -15.55 -73.15 -15.95 -71.7 -16.0 -71.4 -15.5 -69.2 -15.3 -68.1 -15.1 -66.65 M-9.35 -78.75 L-9.65 -78.15 Q-10.95 -75.7 -12.4 -73.4 -11.55 -73.75 -10.85 -74.25 M-8.95 -77.8 L-8.25 -75.3 -8.15 -75.05 -6.9 -73.2 -6.85 -73.05 -6.8 -73.1 -6.75 -73.15 Q-6.55 -73.45 -6.55 -74.6 L-6.5 -75.0 -7.45 -75.55 M-6.5 -75.0 Q-6.45 -75.9 -5.9 -76.65 L-5.35 -77.8 -4.7 -76.15 -3.75 -73.9 -2.5 -73.6 M-1.15 -74.6 L-1.5 -73.25 -2.1 -71.55 -2.15 -71.6 -3.75 -73.9 Q-5.2 -74.35 -6.5 -75.0 M-1.15 -74.6 L-1.05 -74.8 -1.0 -75.15 -0.8 -74.75 M-20.05 -53.3 L-20.5 -52.75 -21.8 -49.6 M-5.95 -61.05 L-4.75 -61.3 -3.2 -61.8 -2.9 -61.9 -2.7 -62.0 Q-2.7 -61.05 -3.95 -60.05 -4.35 -59.7 -4.8 -59.5 -6.05 -58.85 -7.3 -59.25 -8.0 -59.5 -8.7 -60.05 L-9.55 -61.2 -10.5 -61.45 M-12.4 -73.4 L-13.15 -72.3 Q-13.5 -71.7 -13.9 -71.55 -13.75 -71.85 -13.9 -73.0 L-12.4 -73.4 M-13.15 -66.0 Q-14.85 -66.6 -14.8 -68.2 L-14.6 -69.4 Q-14.25 -70.45 -13.5 -70.75 L-11.65 -70.7 Q-9.2 -69.8 -10.45 -67.4 L-11.05 -66.8 Q-12.45 -66.15 -12.65 -67.55 -12.85 -68.8 -11.45 -68.6 M-16.0 -71.4 Q-16.25 -70.35 -16.7 -69.75 M-10.7 -65.8 Q-12.15 -63.95 -13.3 -62.9 L-13.35 -62.8 Q-13.25 -62.5 -12.0 -62.5 L-11.65 -62.5 -10.4 -62.4 M-5.95 -61.05 L-4.8 -59.55 -4.75 -61.3 M-6.45 -61.0 L-6.35 -61.25 -6.3 -61.45 -5.95 -61.05 -6.45 -61.0 -7.25 -59.55 -7.3 -59.7 -7.9 -61.0 -9.55 -61.2 M-7.9 -61.0 L-6.45 -61.0 M-2.2 -49.55 Q-1.65 -50.7 -0.75 -51.1 L-0.3 -51.3 0.15 -51.45 M-2.5 -48.9 Q-1.8 -48.85 -1.4 -48.4 -0.05 -49.7 1.75 -49.9 M-1.4 -48.4 Q-1.1 -48.0 -1.05 -47.2 L-1.1 -46.55 M-3.85 -46.6 L-3.9 -46.65 Q-4.2 -47.25 -3.85 -48.2 L-3.8 -48.4 M-3.4 -45.5 L-3.4 -45.6 -3.4 -45.65 M-2.7 -45.9 L-3.15 -46.05 M-1.7 -45.85 L-2.25 -45.75 M-3.55 -19.95 L-3.45 -20.15 Q-1.8 -23.55 -1.15 -26.9 M-0.3 -51.3 L0.15 -51.4 M-0.6 -56.95 L3.95 -58.4" fill="none" stroke="#000000" stroke-linecap="round" stroke-linejoin="round" stroke-width="0.05"/>
    <path d="M-2.6 -19.8 Q-3.35 -17.1 -4.45 -14.3 L-5.1 -12.1 -5.45 -11.05 Q-4.5 -10.15 -4.5 -8.35 -4.5 -7.5 -5.15 -7.3 L-7.55 -7.0 -15.15 -6.9 Q-17.1 -6.8 -17.05 -8.35 L-16.95 -8.7 Q-16.55 -9.3 -15.35 -9.5 -11.5 -10.15 -8.8 -12.05 L-8.2 -12.05 -8.05 -14.15 Q-7.95 -16.1 -7.3 -17.8 L-6.35 -20.2 M-4.4 -65.25 Q-7.75 -65.3 -8.25 -68.7 -8.65 -71.35 -6.25 -72.0 -4.05 -72.65 -2.6 -71.2 L-2.6 -71.15 -1.75 -70.0 Q-0.55 -67.9 -2.55 -67.05 -4.55 -66.15 -5.0 -68.15 -5.4 -69.8 -3.85 -69.9 M-5.45 -11.05 Q-6.15 -11.7 -7.3 -11.95 L-8.2 -12.05" fill="none" stroke="#000000" stroke-linecap="round" stroke-linejoin="round" stroke-width="0.05"/>
  </g>
</svg>
