<?xml version="1.0" encoding="UTF-8" standalone="no"?>
<svg xmlns:ffdec="https://www.free-decompiler.com/flash" xmlns:xlink="http://www.w3.org/1999/xlink" ffdec:objectType="shape" height="92.5px" width="54.45px" xmlns="http://www.w3.org/2000/svg">
  <g transform="matrix(1.0, 0.0, 0.0, 1.0, 24.9, 92.7)">
    <path d="M3.9 -69.7 Q-1.25 -71.2 -1.75 -76.45 -1.85 -77.7 -0.8 -78.5 L-0.1 -79.05 Q1.6 -80.4 3.8 -80.45 L1.7 -82.05 -1.7 -85.45 1.7 -82.05 3.8 -80.45 Q1.6 -80.4 -0.1 -79.05 L-0.8 -78.5 Q-1.85 -77.7 -1.75 -76.45 -1.25 -71.2 3.9 -69.7 M7.05 -78.4 Q7.85 -78.55 6.2 -79.2 4.9 -79.75 3.8 -80.45 L5.6 -80.3 Q10.25 -79.4 10.25 -74.75 10.25 -73.25 8.7 -72.45 6.45 -71.3 4.35 -72.1 0.8 -73.4 2.1 -75.8 3.4 -78.25 5.85 -77.65 8.25 -77.1 6.0 -74.1 L4.6 -74.05 6.0 -74.1 Q8.25 -77.1 5.85 -77.65 3.4 -78.25 2.1 -75.8 0.8 -73.4 4.35 -72.1 6.45 -71.3 8.7 -72.45 10.25 -73.25 10.25 -74.75 10.25 -79.4 5.6 -80.3 L3.8 -80.45 Q4.9 -79.75 6.2 -79.2 7.85 -78.55 7.05 -78.4 M4.4 -50.05 L4.4 -50.35 3.65 -54.75 3.5 -55.35 2.35 -54.5 Q-0.2 -52.55 -3.55 -53.2 -4.6 -53.45 -5.2 -54.35 L-6.05 -55.7 Q-8.25 -51.8 -12.1 -52.05 L-13.55 -52.1 Q-15.5 -52.05 -17.05 -52.9 -20.5 -54.75 -23.05 -57.85 L-22.0 -57.65 -20.6 -57.8 Q-18.95 -58.35 -18.05 -59.9 -16.75 -62.0 -16.7 -64.6 -16.6 -69.35 -16.9 -74.3 -17.2 -79.2 -15.85 -83.7 L-15.45 -85.5 Q-14.8 -88.95 -11.3 -91.3 -8.05 -91.95 -2.55 -89.75 3.0 -93.35 8.25 -92.55 L9.45 -92.4 Q14.65 -92.05 17.45 -88.1 20.4 -84.0 20.65 -79.15 L20.95 -69.45 21.15 -67.7 Q22.4 -62.35 27.6 -61.7 29.0 -61.5 29.55 -62.45 L27.55 -57.0 27.15 -56.35 Q24.5 -54.15 20.85 -53.6 15.05 -52.75 11.2 -57.4 9.65 -59.25 10.1 -61.2 L10.1 -61.25 Q7.6 -58.4 4.4 -56.05 L5.1 -55.15 Q6.05 -53.55 6.2 -51.25 L6.6 -51.35 Q7.35 -51.45 8.05 -50.85 L9.45 -49.45 Q11.2 -48.8 12.7 -47.3 L15.4 -44.85 Q17.25 -43.3 18.55 -41.25 21.1 -37.15 23.2 -32.75 L25.05 -27.75 Q25.2 -27.25 24.5 -27.0 L22.8 -26.3 Q24.2 -26.45 23.75 -24.95 22.9 -22.2 21.0 -19.7 19.35 -22.15 19.25 -24.95 L17.2 -24.7 Q15.05 -29.2 13.6 -33.8 L13.5 -34.1 12.25 -38.15 12.35 -36.55 12.4 -33.75 Q12.25 -32.0 11.7 -30.55 L10.75 -29.6 10.05 -29.15 10.85 -27.35 13.25 -23.1 Q14.4 -21.25 14.7 -19.2 L12.85 -17.6 Q13.5 -13.1 15.45 -8.9 L15.7 -8.0 Q16.0 -6.1 16.7 -4.4 L16.0 -4.1 16.7 -4.4 Q16.8 -4.05 17.05 -3.8 L18.25 -2.15 18.3 -2.05 Q19.75 -0.15 17.45 -0.2 L13.05 -0.75 15.05 -2.05 Q13.6 -3.95 12.7 -6.5 11.0 -11.05 10.55 -16.1 L10.55 -16.35 9.45 -15.95 Q7.0 -15.15 4.55 -15.05 L4.7 -14.1 6.15 -7.05 7.4 -3.25 7.75 -2.15 5.8 -1.8 1.25 -1.45 Q2.55 -2.85 4.35 -3.3 5.0 -3.5 4.45 -4.25 4.15 -4.65 3.95 -5.5 L2.05 -15.1 0.05 -15.4 -2.15 -15.75 Q-2.65 -15.85 -2.75 -16.25 -3.35 -18.5 -2.95 -21.0 -2.6 -23.55 -3.05 -25.5 -4.7 -26.0 -5.65 -27.45 -7.0 -29.4 -6.75 -31.95 -6.45 -34.9 -5.5 -37.65 L-5.3 -38.1 -5.6 -37.75 -5.7 -37.7 Q-6.75 -36.6 -8.25 -35.9 L-9.15 -35.45 Q-11.15 -34.3 -13.55 -34.7 -17.85 -35.45 -21.85 -37.45 L-21.5 -38.65 Q-24.6 -40.15 -24.9 -44.05 L-20.65 -43.45 -20.55 -45.25 Q-19.2 -44.45 -17.15 -44.15 -12.3 -43.45 -7.5 -43.95 -2.9 -44.45 0.25 -47.5 L0.5 -47.75 1.45 -48.85 2.65 -49.75 4.15 -50.55 4.35 -50.05 4.4 -50.05 4.45 -49.35 4.35 -49.25 5.9 -50.35 6.2 -50.65 6.3 -50.75 6.6 -51.35 6.3 -50.75 6.2 -50.65 5.9 -50.35 4.35 -49.25 4.45 -49.35 4.4 -50.05 M-7.25 -62.45 Q-5.7 -59.95 -3.05 -59.4 L-3.0 -59.4 -1.7 -59.3 1.05 -59.6 1.1 -59.6 Q2.55 -60.0 3.9 -60.75 4.25 -61.4 3.2 -62.25 L2.45 -62.2 1.05 -59.7 Q0.4 -60.4 -0.05 -61.45 L-0.65 -62.55 3.65 -63.1 Q5.7 -63.5 7.5 -64.35 7.45 -63.6 6.2 -62.45 5.1 -61.45 3.9 -60.75 5.1 -61.45 6.2 -62.45 7.45 -63.6 7.5 -64.35 5.7 -63.5 3.65 -63.1 L-0.65 -62.55 -0.05 -61.45 Q0.4 -60.4 1.05 -59.7 L2.45 -62.2 3.2 -62.25 Q4.25 -61.4 3.9 -60.75 2.55 -60.0 1.1 -59.6 L1.05 -59.6 -1.7 -59.3 -3.0 -59.4 -3.05 -59.4 Q-5.7 -59.95 -7.25 -62.45 M12.35 -64.15 L10.75 -62.1 10.1 -61.25 9.55 -62.45 9.4 -68.0 9.45 -70.45 9.4 -68.0 9.55 -62.45 10.1 -61.25 10.75 -62.1 12.35 -64.15 M4.4 -56.05 L4.05 -55.8 3.5 -55.35 4.4 -56.05 M7.4 -3.25 L4.35 -3.3 7.4 -3.25 M4.55 -15.05 L2.05 -15.1 4.55 -15.05 M12.85 -17.6 L10.55 -16.35 12.85 -17.6 M19.25 -24.95 L19.85 -25.15 22.8 -26.3 19.85 -25.15 19.25 -24.95 M-3.05 -25.5 L-2.15 -25.3 Q2.9 -24.7 7.05 -27.3 L10.05 -29.15 7.05 -27.3 Q2.9 -24.7 -2.15 -25.3 L-3.05 -25.5 M4.15 -49.05 L4.35 -49.25 4.15 -49.05 4.5 -48.8 4.85 -48.35 Q5.55 -47.45 6.3 -47.1 7.65 -48.6 7.9 -50.5 7.65 -48.6 6.3 -47.1 5.55 -47.45 4.85 -48.35 L4.5 -48.8 4.15 -49.05 4.1 -48.95 2.7 -47.85 2.5 -47.65 Q2.25 -48.65 2.65 -49.75 2.25 -48.65 2.5 -47.65 L2.7 -47.85 4.1 -48.95 4.15 -49.05 M12.25 -38.15 L11.9 -39.2 10.45 -42.9 Q9.35 -45.6 9.45 -49.45 9.35 -45.6 10.45 -42.9 L11.9 -39.2 12.25 -38.15 M-20.55 -38.25 L-21.5 -38.65 Q-20.85 -41.0 -20.65 -43.45 -20.85 -41.0 -21.5 -38.65 L-20.55 -38.25 M0.25 -47.5 Q-2.15 -44.65 -4.0 -41.1 L-5.3 -38.1 -4.0 -41.1 Q-2.15 -44.65 0.25 -47.5 M-6.05 -55.7 Q-8.15 -59.15 -9.9 -62.9 -8.15 -59.15 -6.05 -55.7 M-5.0 -62.75 Q-4.3 -61.1 -3.05 -59.4 L-3.0 -59.4 Q-2.6 -59.65 -2.15 -60.95 -1.7 -62.35 -1.0 -62.55 L-0.65 -62.55 -0.65 -62.6 -1.0 -62.55 -5.0 -62.75 -5.8 -62.9 -5.0 -62.75 -1.0 -62.55 -0.65 -62.6 -0.65 -62.55 -1.0 -62.55 Q-1.7 -62.35 -2.15 -60.95 -2.6 -59.65 -3.0 -59.4 L-3.05 -59.4 Q-4.3 -61.1 -5.0 -62.75 M-1.3 -64.95 L-3.6 -64.5 -7.5 -64.1 Q-12.3 -63.8 -15.5 -65.9 -14.5 -66.2 -13.65 -66.65 L-5.05 -70.9 -13.65 -66.65 Q-14.5 -66.2 -15.5 -65.9 -12.3 -63.8 -7.5 -64.1 L-3.6 -64.5 -1.3 -64.95 M-13.6 -77.2 Q-11.45 -78.55 -9.05 -80.6 -11.4 -80.35 -13.25 -78.1 L-13.6 -77.4 -13.6 -77.2 -13.7 -75.25 Q-13.5 -72.95 -12.15 -71.0 -10.6 -68.85 -8.7 -69.7 -10.6 -68.85 -12.15 -71.0 -13.5 -72.95 -13.7 -75.25 L-13.6 -77.2 -13.6 -77.4 -13.25 -78.1 Q-11.4 -80.35 -9.05 -80.6 L-9.0 -80.6 Q-7.95 -81.0 -7.0 -81.55 -4.05 -83.4 -2.65 -86.9 -4.05 -83.4 -7.0 -81.55 -7.95 -81.0 -9.0 -80.6 L-9.05 -80.6 Q-11.45 -78.55 -13.6 -77.2 M-6.45 -74.75 Q-5.45 -75.75 -6.8 -77.2 L-8.35 -77.6 Q-9.0 -77.65 -9.65 -77.0 -10.35 -76.45 -10.25 -74.75 -10.15 -73.1 -8.4 -72.55 L-4.8 -72.25 Q-3.35 -72.45 -2.8 -73.4 -2.05 -74.75 -2.4 -76.25 -3.05 -78.85 -5.4 -79.9 L-5.6 -80.0 Q-7.45 -80.75 -9.0 -80.6 -7.45 -80.75 -5.6 -80.0 L-5.4 -79.9 Q-3.05 -78.85 -2.4 -76.25 -2.05 -74.75 -2.8 -73.4 -3.35 -72.45 -4.8 -72.25 L-8.4 -72.55 Q-10.15 -73.1 -10.25 -74.75 -10.35 -76.45 -9.65 -77.0 -9.0 -77.65 -8.35 -77.6 L-6.8 -77.2 Q-5.45 -75.75 -6.45 -74.75 M18.25 -2.15 L15.05 -2.05 18.25 -2.15" fill="#ffffff" fill-rule="evenodd" stroke="none"/>
    <path d="M4.6 -74.05 L6.0 -74.1 Q8.25 -77.1 5.85 -77.65 3.4 -78.25 2.1 -75.8 0.8 -73.4 4.35 -72.1 6.45 -71.3 8.7 -72.45 10.25 -73.25 10.25 -74.75 10.25 -79.4 5.6 -80.3 L3.8 -80.45 Q4.9 -79.75 6.2 -79.2 7.85 -78.55 7.05 -78.4 M-1.7 -85.45 L1.7 -82.05 3.8 -80.45 Q1.6 -80.4 -0.1 -79.05 L-0.8 -78.5 Q-1.85 -77.7 -1.75 -76.45 -1.25 -71.2 3.9 -69.7 M4.4 -50.05 L4.4 -50.35 3.65 -54.75 3.5 -55.35 2.35 -54.5 Q-0.2 -52.55 -3.55 -53.2 -4.6 -53.45 -5.2 -54.35 L-6.05 -55.7 Q-8.25 -51.8 -12.1 -52.05 L-13.55 -52.1 Q-15.5 -52.05 -17.05 -52.9 -20.5 -54.75 -23.05 -57.85 L-22.0 -57.65 -20.6 -57.8 Q-18.95 -58.35 -18.05 -59.9 -16.75 -62.0 -16.7 -64.6 -16.6 -69.35 -16.9 -74.3 -17.2 -79.2 -15.85 -83.7 L-15.45 -85.5 Q-14.8 -88.95 -11.3 -91.3 -8.05 -91.95 -2.55 -89.75 3.0 -93.35 8.25 -92.55 L9.45 -92.4 Q14.65 -92.05 17.45 -88.1 20.4 -84.0 20.65 -79.15 L20.95 -69.45 21.15 -67.7 Q22.4 -62.35 27.6 -61.7 29.0 -61.5 29.55 -62.45 L27.55 -57.0 27.15 -56.35 Q24.5 -54.15 20.85 -53.6 15.05 -52.75 11.2 -57.4 9.65 -59.25 10.1 -61.2 L10.1 -61.25 Q7.6 -58.4 4.4 -56.05 L4.05 -55.8 3.5 -55.35 M5.1 -55.15 Q6.05 -53.55 6.2 -51.25 L6.6 -51.35 Q7.35 -51.45 8.05 -50.85 L9.45 -49.45 Q11.2 -48.8 12.7 -47.3 L15.4 -44.85 Q17.25 -43.3 18.55 -41.25 21.1 -37.15 23.2 -32.75 L25.05 -27.75 Q25.2 -27.25 24.5 -27.0 L22.8 -26.3 Q24.2 -26.45 23.75 -24.95 22.9 -22.2 21.0 -19.7 19.35 -22.15 19.25 -24.95 L17.2 -24.7 Q15.05 -29.2 13.6 -33.8 L13.5 -34.1 12.25 -38.15 12.35 -36.55 12.4 -33.75 Q12.25 -32.0 11.7 -30.55 L10.75 -29.6 10.05 -29.15 10.85 -27.35 13.25 -23.1 Q14.4 -21.25 14.7 -19.2 L12.85 -17.6 Q13.5 -13.1 15.45 -8.9 L15.7 -8.0 Q16.0 -6.1 16.7 -4.4 L17.05 -3.8 18.25 -2.15 18.3 -2.05 Q19.75 -0.15 17.45 -0.2 L13.05 -0.75 15.05 -2.05 Q13.6 -3.95 12.7 -6.5 11.0 -11.05 10.55 -16.1 L10.55 -16.35 9.45 -15.95 Q7.0 -15.15 4.55 -15.05 L4.7 -14.1 6.15 -7.05 7.4 -3.25 7.75 -2.15 5.8 -1.8 1.25 -1.45 Q2.55 -2.85 4.35 -3.3 5.0 -3.5 4.45 -4.25 4.15 -4.65 3.95 -5.5 L2.05 -15.1 0.05 -15.4 -2.15 -15.75 Q-2.65 -15.85 -2.75 -16.25 -3.35 -18.5 -2.95 -21.0 -2.6 -23.55 -3.05 -25.5 -4.7 -26.0 -5.65 -27.45 -7.0 -29.4 -6.75 -31.95 -6.45 -34.9 -5.5 -37.65 L-5.3 -38.1 -5.6 -37.75 -5.7 -37.7 Q-6.75 -36.6 -8.25 -35.9 L-9.15 -35.45 Q-11.15 -34.3 -13.55 -34.7 -17.85 -35.45 -21.85 -37.45 L-21.5 -38.65 Q-24.6 -40.15 -24.9 -44.05 L-20.65 -43.45 -20.55 -45.25 Q-19.2 -44.45 -17.15 -44.15 -12.3 -43.45 -7.5 -43.95 -2.9 -44.45 0.25 -47.5 L0.5 -47.75 1.45 -48.85 2.65 -49.75 4.15 -50.55 M4.4 -50.05 L4.45 -49.35 4.35 -49.25 5.9 -50.35 6.2 -50.65 6.3 -50.75 6.6 -51.35 M9.45 -70.45 L9.4 -68.0 9.55 -62.45 10.1 -61.25 10.75 -62.1 12.35 -64.15 M3.2 -62.25 Q4.25 -61.4 3.9 -60.75 5.1 -61.45 6.2 -62.45 7.45 -63.6 7.5 -64.35 5.7 -63.5 3.65 -63.1 L-0.65 -62.55 -0.05 -61.45 Q0.4 -60.4 1.05 -59.7 L2.45 -62.2 3.2 -62.25 M3.9 -60.75 Q2.55 -60.0 1.1 -59.6 L1.05 -59.6 -1.7 -59.3 -3.0 -59.4 -3.05 -59.4 Q-5.7 -59.95 -7.25 -62.45 M9.45 -49.45 Q9.35 -45.6 10.45 -42.9 L11.9 -39.2 12.25 -38.15 M7.9 -50.5 Q7.65 -48.6 6.3 -47.1 5.55 -47.45 4.85 -48.35 L4.5 -48.8 4.15 -49.05 4.1 -48.95 2.7 -47.85 2.5 -47.65 Q2.25 -48.65 2.65 -49.75 M4.35 -49.25 L4.15 -49.05 M10.05 -29.15 L7.05 -27.3 Q2.9 -24.7 -2.15 -25.3 L-3.05 -25.5 M22.8 -26.3 L19.85 -25.15 19.25 -24.95 M10.55 -16.35 L12.85 -17.6 M2.05 -15.1 L4.55 -15.05 M4.35 -3.3 L7.4 -3.25 M16.7 -4.4 L16.0 -4.1 M16.7 -4.4 Q16.8 -4.05 17.05 -3.8 M15.05 -2.05 L18.25 -2.15 M-8.7 -69.7 Q-10.6 -68.85 -12.15 -71.0 -13.5 -72.95 -13.7 -75.25 L-13.6 -77.2 -13.6 -77.4 -13.25 -78.1 Q-11.4 -80.35 -9.05 -80.6 L-9.0 -80.6 Q-7.95 -81.0 -7.0 -81.55 -4.05 -83.4 -2.65 -86.9 M-9.0 -80.6 Q-7.45 -80.75 -5.6 -80.0 L-5.4 -79.9 Q-3.05 -78.85 -2.4 -76.25 -2.05 -74.75 -2.8 -73.4 -3.35 -72.45 -4.8 -72.25 L-8.4 -72.55 Q-10.15 -73.1 -10.25 -74.75 -10.35 -76.45 -9.65 -77.0 -9.0 -77.65 -8.35 -77.6 L-6.8 -77.2 Q-5.45 -75.75 -6.45 -74.75 M-9.05 -80.6 Q-11.45 -78.55 -13.6 -77.2 M-5.05 -70.9 L-13.65 -66.65 Q-14.5 -66.2 -15.5 -65.9 -12.3 -63.8 -7.5 -64.1 L-3.6 -64.5 -1.3 -64.95 M-5.8 -62.9 L-5.0 -62.75 -1.0 -62.55 -0.65 -62.6 -0.65 -62.55 -1.0 -62.55 Q-1.7 -62.35 -2.15 -60.95 -2.6 -59.65 -3.0 -59.4 L-3.05 -59.4 Q-4.3 -61.1 -5.0 -62.75 M-9.9 -62.9 Q-8.15 -59.15 -6.05 -55.7 M-5.3 -38.1 L-4.0 -41.1 Q-2.15 -44.65 0.25 -47.5 M-20.65 -43.45 Q-20.85 -41.0 -21.5 -38.65 L-20.55 -38.25" fill="none" stroke="#000000" stroke-linecap="round" stroke-linejoin="round" stroke-width="0.05"/>
  </g>
</svg>
