<?xml version="1.0" encoding="UTF-8" standalone="no"?>
<!DOCTYPE svg PUBLIC "-//W3C//DTD SVG 1.1//EN" "http://www.w3.org/Graphics/SVG/1.1/DTD/svg11.dtd">
<svg width="43px" height="107px" version="1.1" xmlns="http://www.w3.org/2000/svg" xmlns:xlink="http://www.w3.org/1999/xlink" xml:space="preserve" xmlns:serif="http://www.serif.com/" style="fill-rule:evenodd;clip-rule:evenodd;stroke-linejoin:round;stroke-miterlimit:2;">
    <g transform="matrix(-0.433221,0,0,0.433221,69.469,16.4432)">
        <path d="M77.106,-32.515C73.835,-32.392 70.8,-30.784 68.861,-28.148C66.922,-25.511 66.293,-22.134 67.151,-18.975C70.555,-6.259 75.55,5.077 82.751,14.503C84.483,16.697 84.849,19.672 83.703,22.22C80.525,29.292 77.582,37.338 79.601,43.894C79.761,49.596 79.139,55.298 77,61C72.148,68 71.875,75 77,82C78.512,83.743 79.179,85.679 77.152,88.226C64.138,99.364 66.376,107.835 71.501,114.835C73.07,116.71 74.582,118.209 76.053,119.447C78.368,121.344 79.711,124.18 79.711,127.174C79.766,133.713 79.766,144.292 79.766,144.292C80.582,152.467 71.299,172.592 62.732,174.687C66.869,174.478 71.696,175.579 75.72,176.837C77.251,177.526 78.329,179.025 79.035,181.189C79.948,183.988 80.239,187.901 80.083,192.613L80.083,201.264C80.083,204.734 82.669,207.547 85.858,207.547L85.86,207.547C89.245,207.547 91.99,204.561 91.99,200.879L91.99,197.197C91.989,194.12 93.97,191.392 96.897,190.439C103.088,188.426 109.028,188.75 114.806,190.623C117.747,191.557 119.745,194.287 119.745,197.373C119.77,198.61 119.77,199.962 119.77,201.264C119.77,204.734 122.356,207.547 125.545,207.547L125.547,207.547C128.932,207.547 131.677,204.561 131.677,200.879L131.677,192.613C131.579,190.468 132.057,188.162 132.883,185.805C133.8,183.191 135.145,180.515 136.609,177.926C136.609,177.926 147.69,168.579 154.164,163.118C157.008,160.719 158.448,157.047 157.994,153.355C157.66,150.636 157.337,148.005 157.337,148.005L157.337,63.77C157.337,60.786 156.767,57.83 155.659,55.06C155.646,55.028 155.633,54.995 155.62,54.963C154.228,51.484 152.023,48.39 149.189,45.939C137.547,35.921 127.621,26.806 120.954,16.584C114.714,7.016 108.145,4.184 102.738,0.291C95.673,-7.946 91.243,-16.915 87.352,-26.033C85.6,-30.097 81.531,-32.665 77.109,-32.499C77.108,-32.515 77.107,-32.515 77.106,-32.515Z" style="fill:white;"/>
    </g>
    <g transform="matrix(0.615753,0,0,0.615753,-46.2329,-27.3765)">
        <path d="M94.216,206.679L94.216,212.495C94.216,215.686 96.639,218.231 99.573,218.231L99.574,218.231C102.37,218.231 104.682,215.808 104.682,212.766L104.682,206.679C104.682,206.103 104.214,205.635 103.637,205.635C103.061,205.635 102.593,206.103 102.593,206.679L102.593,212.766C102.593,214.608 101.267,216.142 99.574,216.142L99.573,216.142C97.743,216.142 96.305,214.486 96.305,212.495L96.305,206.679C96.305,206.103 95.837,205.635 95.26,205.635C94.684,205.635 94.216,206.103 94.216,206.679ZM122.138,206.679L122.138,212.495C122.138,215.686 124.562,218.231 127.495,218.231L127.497,218.231C130.292,218.231 132.604,215.808 132.604,212.766L132.604,206.679C132.604,206.103 132.136,205.635 131.56,205.635C130.983,205.635 130.515,206.103 130.515,206.679L130.515,212.766C130.515,214.608 129.189,216.142 127.497,216.142L127.495,216.142C125.665,216.142 124.227,214.486 124.227,212.495L124.227,206.679C124.227,206.103 123.759,205.635 123.183,205.635C122.606,205.635 122.138,206.103 122.138,206.679ZM109.288,202.889L107.39,206.674C107.131,207.189 107.34,207.817 107.855,208.076C108.371,208.334 108.999,208.126 109.257,207.61L111.155,203.826C111.414,203.311 111.205,202.683 110.69,202.424C110.174,202.166 109.546,202.374 109.288,202.889ZM113.396,202.889L111.498,206.674C111.24,207.189 111.448,207.817 111.964,208.076C112.479,208.334 113.107,208.126 113.366,207.61L115.264,203.826C115.522,203.311 115.314,202.683 114.798,202.424C114.283,202.166 113.655,202.374 113.396,202.889ZM96.18,198.987L119.765,198.987C120.341,198.987 120.81,198.519 120.81,197.942C120.81,197.366 120.341,196.898 119.765,196.898L96.18,196.898C95.604,196.898 95.135,197.366 95.135,197.942C95.135,198.519 95.604,198.987 96.18,198.987ZM127.372,195.581L127.372,197.759C127.372,198.278 127.793,198.699 128.312,198.699C128.831,198.699 129.252,198.278 129.252,197.759L129.252,195.581C129.252,195.062 128.831,194.64 128.312,194.64C127.793,194.64 127.372,195.062 127.372,195.581ZM75.491,184.101L91.538,197.637C92.023,198.046 92.748,197.985 93.157,197.5C93.566,197.015 93.505,196.289 93.02,195.88L76.973,182.345C76.488,181.936 75.763,181.997 75.354,182.482C74.945,182.967 75.007,183.692 75.491,184.101ZM133.52,183.829C134.485,187.406 136.569,190.619 140.01,193.137C138.047,193.422 136.06,193.929 134.286,194.484C133.681,194.673 133.343,195.318 133.532,195.924C133.722,196.529 134.367,196.867 134.972,196.677C137.68,195.831 140.926,195.075 143.71,195.216C144.253,195.243 144.742,194.885 144.879,194.359C145.017,193.832 144.766,193.281 144.279,193.039C139.545,190.689 136.819,187.237 135.739,183.231C135.573,182.618 134.942,182.255 134.33,182.421C133.718,182.586 133.355,183.217 133.52,183.829ZM118.047,182.648L118.065,182.676C118.107,182.743 118.154,182.793 118.202,182.83C118.399,183.002 118.624,183.065 118.874,183.032C119.121,182.999 119.338,182.877 119.509,182.638C119.51,182.636 119.512,182.635 119.513,182.633C119.929,182.035 120.388,181.704 120.932,181.704C121.368,181.704 121.779,181.992 122.209,182.492L122.21,182.493C123.014,183.422 123.908,183.864 124.868,183.865C126.066,183.875 127.063,183.309 127.835,182.129C127.84,182.122 127.844,182.114 127.849,182.107C127.967,181.906 128.022,181.677 128.002,181.418C127.981,181.145 127.881,180.923 127.716,180.746L127.745,180.78L127.653,180.681C127.445,180.466 127.197,180.383 126.915,180.419C126.66,180.451 126.436,180.579 126.265,180.836C126.036,181.163 125.808,181.404 125.569,181.547C125.36,181.672 125.126,181.733 124.87,181.733L124.861,181.733C124.428,181.74 124.021,181.456 123.593,180.959C123.593,180.958 123.592,180.958 123.592,180.957C122.788,180.028 121.894,179.586 120.934,179.586C119.736,179.576 118.739,180.141 117.967,181.322C117.966,181.323 117.965,181.324 117.965,181.325C117.841,181.518 117.779,181.748 117.8,182.019C117.819,182.27 117.905,182.478 118.047,182.648ZM75.953,158.09L75.953,175.295C75.953,175.987 76.515,176.549 77.207,176.549C77.899,176.549 78.461,175.987 78.461,175.295L78.461,158.09C78.461,157.398 77.899,156.837 77.207,156.837C76.515,156.837 75.953,157.398 75.953,158.09ZM132.632,172.271L132.632,164.713C132.632,164.1 132.134,163.602 131.521,163.602C130.907,163.602 130.41,164.1 130.41,164.713L130.41,172.271C130.41,172.884 130.907,173.382 131.521,173.382C132.134,173.382 132.632,172.884 132.632,172.271ZM113.371,167.576L113.403,167.614C113.454,167.675 113.507,167.718 113.558,167.748C113.773,167.894 114.017,167.955 114.292,167.928C114.583,167.899 114.829,167.778 115.03,167.566C115.032,167.564 115.033,167.563 115.035,167.561C115.746,166.791 116.562,166.395 117.492,166.395C118.242,166.395 118.979,166.738 119.72,167.388C119.72,167.388 119.72,167.389 119.721,167.389C120.87,168.391 122.134,168.885 123.506,168.885C125.227,168.896 126.64,168.261 127.748,166.983C127.754,166.975 127.76,166.968 127.766,166.961C127.952,166.723 128.031,166.45 128,166.143C127.969,165.84 127.836,165.588 127.597,165.39L127.493,165.308C127.264,165.13 126.996,165.05 126.686,165.08C126.384,165.109 126.131,165.238 125.929,165.467C125.553,165.871 125.173,166.165 124.783,166.342C124.401,166.514 123.976,166.598 123.508,166.598L123.501,166.598C122.754,166.607 122.019,166.268 121.28,165.62C121.279,165.62 121.279,165.62 121.279,165.619C120.129,164.617 118.865,164.123 117.493,164.123C115.773,164.112 114.36,164.747 113.252,166.026C113.251,166.027 113.25,166.028 113.249,166.029C113.055,166.257 112.967,166.529 113,166.85C113.029,167.14 113.151,167.383 113.371,167.576ZM113.507,167.712L113.488,167.697C113.494,167.702 113.5,167.707 113.507,167.712ZM132.632,161.154L132.632,160.544C132.632,159.931 132.134,159.433 131.521,159.433C130.907,159.433 130.41,159.931 130.41,160.544L130.41,161.154C130.41,161.767 130.907,162.265 131.521,162.265C132.134,162.265 132.632,161.767 132.632,161.154ZM131.625,135.306L131.625,153.547C131.625,154.239 132.187,154.801 132.879,154.801C133.57,154.801 134.132,154.239 134.132,153.547L134.132,135.306C134.132,134.614 133.57,134.053 132.879,134.053C132.187,134.053 131.625,134.614 131.625,135.306ZM75.953,135.644L75.953,152.849C75.953,153.541 76.515,154.103 77.207,154.103C77.899,154.103 78.461,153.541 78.461,152.849L78.461,135.644C78.461,134.952 77.899,134.391 77.207,134.391C76.515,134.391 75.953,134.952 75.953,135.644ZM84.546,137.012C80.852,142.341 80.66,147.67 84.562,152.999C84.903,153.464 85.557,153.565 86.022,153.225C86.487,152.884 86.588,152.23 86.248,151.765C82.938,147.244 83.129,142.723 86.263,138.202C86.592,137.728 86.474,137.077 86,136.748C85.526,136.42 84.875,136.538 84.546,137.012ZM136.739,137.778C139.873,142.299 140.065,146.82 136.755,151.341C136.414,151.806 136.516,152.46 136.981,152.801C137.446,153.141 138.1,153.04 138.441,152.575C142.343,147.246 142.151,141.917 138.456,136.588C138.128,136.114 137.477,135.996 137.003,136.325C136.529,136.653 136.411,137.304 136.739,137.778ZM94.831,137.875C93.903,142.92 92.428,146.227 88.923,149.745C88.475,150.195 88.477,150.923 88.926,151.371C89.376,151.818 90.104,151.817 90.551,151.367C94.416,147.488 96.068,143.853 97.091,138.29C97.206,137.667 96.793,137.067 96.169,136.952C95.545,136.838 94.946,137.251 94.831,137.875ZM113.371,145.643L113.403,145.681C113.454,145.742 113.507,145.785 113.558,145.815C113.773,145.96 114.017,146.022 114.292,145.994C114.583,145.965 114.829,145.845 115.03,145.632C115.032,145.631 115.033,145.629 115.035,145.627C115.746,144.857 116.562,144.462 117.492,144.462C118.242,144.462 118.979,144.805 119.72,145.454C119.72,145.455 119.72,145.455 119.721,145.455C120.87,146.457 122.134,146.951 123.506,146.952C125.227,146.963 126.64,146.327 127.748,145.049C127.754,145.042 127.76,145.035 127.766,145.027C127.952,144.789 128.031,144.517 128,144.209C127.969,143.906 127.836,143.654 127.597,143.456L127.493,143.375C127.264,143.197 126.996,143.117 126.686,143.147C126.384,143.176 126.131,143.304 125.929,143.534C125.553,143.937 125.173,144.232 124.783,144.408C124.401,144.581 123.976,144.664 123.508,144.664L123.501,144.664C122.754,144.673 122.019,144.335 121.28,143.687C121.279,143.687 121.279,143.686 121.279,143.686C120.129,142.684 118.865,142.19 117.493,142.189C115.773,142.179 114.36,142.814 113.252,144.092C113.251,144.093 113.25,144.094 113.249,144.096C113.055,144.323 112.967,144.596 113,144.917C113.029,145.206 113.151,145.449 113.371,145.643ZM113.507,145.778L113.488,145.764C113.494,145.769 113.5,145.773 113.507,145.778ZM75.953,112.853L75.953,130.058C75.953,130.75 76.515,131.311 77.207,131.311C77.899,131.311 78.461,130.75 78.461,130.058L78.461,112.853C78.461,112.161 77.899,111.599 77.207,111.599C76.515,111.599 75.953,112.161 75.953,112.853ZM123.573,130.805L123.658,130.805C123.926,130.799 124.153,130.706 124.343,130.528C124.545,130.337 124.645,130.105 124.645,129.832L124.645,126.899C124.645,126.631 124.548,126.397 124.348,126.2C124.151,126.005 123.913,125.908 123.632,125.908L122.992,125.908L122.992,114.435C122.992,114.162 122.892,113.93 122.69,113.739C122.494,113.555 122.258,113.461 121.979,113.461L115.035,113.461C114.752,113.461 114.517,113.558 114.329,113.744C114.137,113.934 114.041,114.164 114.041,114.435L114.041,115.039C114.041,116.893 114.028,118.299 114.002,119.256C113.977,120.212 113.941,121.089 113.896,121.886C113.853,122.651 113.763,123.244 113.62,123.664C113.477,124.085 113.323,124.451 113.155,124.761C112.992,125.064 112.743,125.446 112.41,125.908L112.157,125.908C111.876,125.908 111.637,126.005 111.441,126.2C111.241,126.397 111.143,126.631 111.143,126.899L111.143,129.832C111.143,130.105 111.244,130.337 111.446,130.528C111.641,130.712 111.878,130.805 112.157,130.805L112.241,130.805C112.509,130.799 112.737,130.706 112.926,130.528C113.129,130.337 113.229,130.105 113.229,129.832L113.229,127.799L122.56,127.799L122.56,129.832C122.56,130.105 122.66,130.337 122.863,130.528C123.058,130.712 123.294,130.805 123.573,130.805ZM95.358,113.486C91.664,118.816 91.472,124.145 95.374,129.474C95.714,129.939 96.368,130.04 96.834,129.699C97.299,129.359 97.4,128.704 97.059,128.239C93.749,123.718 93.941,119.198 97.075,114.677C97.403,114.203 97.285,113.552 96.812,113.223C96.338,112.895 95.686,113.013 95.358,113.486ZM132.87,114.677C136.004,119.198 136.196,123.718 132.886,128.239C132.545,128.704 132.647,129.359 133.112,129.699C133.577,130.04 134.231,129.939 134.572,129.474C138.474,124.145 138.282,118.816 134.587,113.486C134.259,113.013 133.608,112.895 133.134,113.223C132.66,113.552 132.542,114.203 132.87,114.677ZM114.981,125.908C115.548,124.916 115.889,123.936 116.008,122.969C116.136,121.926 116.202,119.387 116.204,115.353L120.771,115.353L120.771,125.908L114.981,125.908ZM128.214,111.923C126.79,111.923 125.626,113.092 125.626,114.541C125.626,115.989 126.79,117.159 128.214,117.159C129.639,117.159 130.802,115.989 130.802,114.541C130.802,113.092 129.639,111.923 128.214,111.923ZM105.861,111.923C104.437,111.923 103.273,113.092 103.273,114.541C103.273,115.989 104.437,117.159 105.861,117.159C107.286,117.159 108.449,115.989 108.449,114.541C108.449,113.092 107.286,111.923 105.861,111.923ZM105.861,113.59C106.374,113.59 106.783,114.02 106.783,114.541C106.783,115.062 106.374,115.492 105.861,115.492C105.349,115.492 104.94,115.062 104.94,114.541C104.94,114.02 105.349,113.59 105.861,113.59ZM128.214,113.59C128.727,113.59 129.136,114.02 129.136,114.541C129.136,115.062 128.727,115.492 128.214,115.492C127.702,115.492 127.293,115.062 127.293,114.541C127.293,114.02 127.702,113.59 128.214,113.59ZM95.22,91.671L79.174,105.207C78.689,105.616 78.627,106.341 79.036,106.826C79.445,107.311 80.171,107.372 80.656,106.963L96.702,93.428C97.187,93.019 97.248,92.293 96.84,91.808C96.431,91.324 95.705,91.262 95.22,91.671ZM132.632,104.922L132.632,97.364C132.632,96.751 132.134,96.253 131.521,96.253C130.907,96.253 130.41,96.751 130.41,97.364L130.41,104.922C130.41,105.535 130.907,106.033 131.521,106.033C132.134,106.033 132.632,105.535 132.632,104.922ZM113.371,100.131L113.403,100.169C113.454,100.23 113.507,100.273 113.558,100.303C113.773,100.448 114.017,100.509 114.292,100.482C114.583,100.453 114.829,100.333 115.03,100.12C115.032,100.119 115.033,100.117 115.035,100.115C115.746,99.345 116.562,98.949 117.492,98.949C118.242,98.949 118.979,99.293 119.72,99.942C119.72,99.942 119.72,99.943 119.721,99.943C120.87,100.945 122.134,101.439 123.506,101.44C125.227,101.45 126.64,100.815 127.748,99.537C127.754,99.53 127.76,99.523 127.766,99.515C127.952,99.277 128.031,99.005 128,98.697C127.969,98.394 127.836,98.142 127.597,97.944L127.493,97.863C127.264,97.685 126.996,97.605 126.686,97.635C126.384,97.664 126.131,97.792 125.929,98.022C125.553,98.425 125.173,98.72 124.783,98.896C124.401,99.069 123.976,99.152 123.508,99.152L123.501,99.152C122.754,99.161 122.019,98.823 121.28,98.175L121.279,98.174C120.129,97.172 118.865,96.678 117.493,96.677C115.773,96.666 114.36,97.302 113.252,98.58C113.251,98.581 113.25,98.582 113.249,98.583C113.055,98.811 112.967,99.084 113,99.404C113.029,99.694 113.151,99.937 113.371,100.131ZM113.507,100.266L113.488,100.252C113.494,100.257 113.5,100.261 113.507,100.266ZM132.632,93.805L132.632,93.195C132.632,92.582 132.134,92.084 131.521,92.084C130.907,92.084 130.41,92.582 130.41,93.195L130.41,93.805C130.41,94.418 130.907,94.916 131.521,94.916C132.134,94.916 132.632,94.418 132.632,93.805ZM134.528,71.022L126.658,83.267C126.315,83.8 126.47,84.512 127.004,84.854C127.537,85.197 128.249,85.043 128.592,84.509L136.461,72.264C136.804,71.731 136.649,71.019 136.116,70.676C135.582,70.333 134.871,70.488 134.528,71.022ZM116.555,69.474L100.508,83.009C100.023,83.418 99.962,84.144 100.371,84.629C100.78,85.113 101.505,85.175 101.99,84.766L118.037,71.23C118.521,70.821 118.583,70.096 118.174,69.611C117.765,69.126 117.04,69.065 116.555,69.474ZM119.886,69.69L119.904,69.718C119.946,69.785 119.993,69.835 120.042,69.872C120.238,70.044 120.463,70.107 120.713,70.074C120.96,70.041 121.178,69.919 121.348,69.68C121.349,69.679 121.351,69.677 121.352,69.675C121.768,69.078 122.227,68.746 122.771,68.746C123.207,68.746 123.618,69.034 124.048,69.534C124.048,69.535 124.049,69.535 124.049,69.535C124.853,70.465 125.747,70.907 126.707,70.907C127.905,70.917 128.902,70.352 129.674,69.171C129.679,69.164 129.684,69.156 129.688,69.149C129.806,68.948 129.861,68.72 129.841,68.46C129.821,68.187 129.72,67.965 129.555,67.788L129.585,67.822L129.492,67.723C129.284,67.508 129.037,67.425 128.754,67.461C128.499,67.493 128.275,67.622 128.104,67.879C127.875,68.205 127.647,68.446 127.408,68.589C127.199,68.715 126.965,68.775 126.709,68.775L126.7,68.775C126.267,68.782 125.86,68.498 125.432,68.001L125.431,68C124.627,67.07 123.733,66.628 122.773,66.628C121.575,66.618 120.578,67.183 119.806,68.364C119.805,68.365 119.804,68.366 119.804,68.368C119.68,68.56 119.618,68.79 119.639,69.062C119.658,69.313 119.744,69.52 119.886,69.69ZM137.423,59.6L137.3,59.442C137.163,59.232 136.961,59.095 136.686,59.042C136.419,58.99 136.175,59.034 135.953,59.17C135.129,59.633 134.163,59.861 133.057,59.861C131.448,59.861 130.128,59.374 129.102,58.39C128.081,57.41 127.575,56.153 127.575,54.62C127.575,53.087 128.081,51.83 129.102,50.85C130.128,49.866 131.448,49.379 133.057,49.379C134.704,49.379 136.034,49.856 137.041,50.823C138.044,51.785 138.54,53.052 138.54,54.62C138.54,55.324 138.373,55.857 138.008,56.209C137.64,56.565 137.081,56.726 136.344,56.726C136.233,56.726 136.148,56.726 136.097,56.689C136.095,56.668 136.09,56.621 136.093,56.585C136.105,56.409 136.175,56.039 136.3,55.476L137.136,51.628C137.197,51.373 137.138,51.129 136.94,50.903C136.753,50.69 136.522,50.586 136.247,50.586L135.391,50.586C135.11,50.586 134.864,50.67 134.653,50.836C134.55,50.917 134.464,51.008 134.395,51.108C134.252,50.991 134.106,50.896 133.959,50.822C133.589,50.627 133.204,50.531 132.804,50.531C131.724,50.531 130.799,50.879 130.027,51.573C129.269,52.255 128.753,53.22 128.491,54.473C128.221,55.765 128.462,56.81 129.185,57.614C129.789,58.316 130.598,58.673 131.618,58.673L131.622,58.673C132.618,58.661 133.425,58.368 134.048,57.803C134.2,57.999 134.423,58.176 134.724,58.327C135.164,58.554 135.71,58.673 136.363,58.673C137.791,58.673 138.885,58.32 139.654,57.641C140.435,56.951 140.839,55.947 140.839,54.62C140.839,52.448 140.103,50.68 138.639,49.313C137.182,47.953 135.323,47.268 133.057,47.268C130.818,47.268 128.965,47.959 127.495,49.332C126.017,50.712 125.275,52.474 125.275,54.62C125.275,56.78 126.028,58.545 127.526,59.919C129.016,61.286 130.859,61.972 133.057,61.972C134.58,61.972 135.926,61.646 137.099,60.998C137.1,60.997 137.102,60.996 137.104,60.995C137.354,60.85 137.507,60.637 137.565,60.356C137.621,60.082 137.574,59.83 137.423,59.6ZM133.666,54.474C133.387,55.632 132.86,56.242 132.011,56.231L131.998,56.231C131.699,56.24 131.467,56.141 131.308,55.921C131.307,55.92 131.306,55.918 131.304,55.916C131.068,55.603 131.035,55.175 131.164,54.639C131.303,54.07 131.527,53.626 131.847,53.314C132.14,53.027 132.478,52.88 132.863,52.88C133.166,52.88 133.402,52.98 133.564,53.193C133.778,53.488 133.795,53.917 133.666,54.474Z" style="fill-opacity:0.9;"/>
    </g>
</svg>
