<?xml version="1.0" encoding="UTF-8" standalone="no"?>
<!DOCTYPE svg PUBLIC "-//W3C//DTD SVG 1.1//EN" "http://www.w3.org/Graphics/SVG/1.1/DTD/svg11.dtd">
<svg width="63px" height="26px" version="1.1" xmlns="http://www.w3.org/2000/svg" xmlns:xlink="http://www.w3.org/1999/xlink" xml:space="preserve" xmlns:serif="http://www.serif.com/" style="fill-rule:evenodd;clip-rule:evenodd;stroke-linejoin:round;stroke-miterlimit:2;">
    <g transform="matrix(0.607207,0,0,0.56349,-35.2208,-84.9388)">
        <path d="M79.73,196.878C75.486,196.878 71.466,195.04 68.778,191.871C65.562,188.098 64.312,183.84 64.312,178.985C64.312,163.76 83.68,150.737 110,150.737C136.32,150.737 155.688,163.76 155.688,178.985C155.688,183.84 154.438,188.098 151.217,191.866C148.53,195.035 144.512,196.872 140.27,196.872C127.3,196.878 92.7,196.878 79.73,196.878Z" style="fill:white;"/>
    </g>
    <g transform="matrix(0.543815,0,0,0.543815,-28.3196,-92.0872)">
        <path d="M128.423,214.374L128.566,214.374C128.969,214.365 129.311,214.231 129.596,213.973C129.9,213.697 130.05,213.361 130.05,212.967L130.05,207.95C130.05,207.56 129.902,207.22 129.6,206.934C129.305,206.654 128.948,206.512 128.527,206.512L127.11,206.512L127.11,186.627C127.11,186.233 126.96,185.898 126.656,185.622C126.362,185.356 126.007,185.221 125.587,185.221L113.241,185.221C112.818,185.221 112.467,185.358 112.185,185.626C111.896,185.901 111.752,186.235 111.752,186.627L111.752,187.662C111.752,190.836 111.729,193.243 111.683,194.882C111.637,196.52 111.574,198.022 111.494,199.389C111.415,200.725 111.249,201.761 110.99,202.496C110.731,203.232 110.45,203.87 110.145,204.412C109.84,204.956 109.37,205.648 108.737,206.488C108.721,206.507 108.7,206.512 108.676,206.512L108.122,206.512C107.701,206.512 107.344,206.654 107.049,206.934C106.747,207.22 106.599,207.56 106.599,207.95L106.599,212.967C106.599,213.361 106.75,213.697 107.054,213.973C107.347,214.239 107.703,214.374 108.122,214.374L108.265,214.374C108.667,214.365 109.01,214.231 109.294,213.973C109.599,213.697 109.749,213.361 109.749,212.967L109.749,209.231L126.9,209.231L126.9,212.967C126.9,213.361 127.051,213.697 127.355,213.973C127.648,214.239 128.004,214.374 128.423,214.374ZM63.304,185.831C57.225,194.6 56.906,203.37 63.326,212.139C63.803,212.79 64.719,212.932 65.37,212.455C66.022,211.978 66.163,211.063 65.686,210.411C60.094,202.773 60.414,195.135 65.708,187.497C66.168,186.834 66.003,185.922 65.34,185.462C64.676,185.002 63.764,185.168 63.304,185.831ZM154.292,187.497C159.586,195.135 159.906,202.773 154.314,210.411C153.837,211.063 153.978,211.978 154.63,212.455C155.281,212.932 156.197,212.79 156.674,212.139C163.094,203.37 162.775,194.6 156.696,185.831C156.236,185.168 155.324,185.002 154.66,185.462C153.997,185.922 153.832,186.834 154.292,187.497ZM76.095,206.956C76.538,207.515 76.804,208.062 76.81,208.621C76.816,209.164 76.569,209.695 76.113,210.238C75.719,210.708 75.781,211.409 76.251,211.803C76.721,212.197 77.422,212.136 77.816,211.666C78.671,210.647 79.043,209.615 79.032,208.596C79.021,207.593 78.631,206.577 77.835,205.574C77.454,205.094 76.754,205.014 76.274,205.395C75.794,205.776 75.713,206.476 76.095,206.956ZM112.666,206.512C113.795,204.717 114.469,202.944 114.692,201.196C114.922,199.394 115.039,194.975 115.04,187.94L123.719,187.94L123.719,206.512L112.666,206.512ZM76.927,193.658C78.14,193.658 79.125,194.643 79.125,195.856C79.125,197.069 78.14,198.054 76.927,198.054C75.714,198.054 74.73,197.069 74.73,195.856C74.73,194.643 75.714,193.658 76.927,193.658ZM138.816,186.144L143.036,190.467C143.6,191.045 144.526,191.056 145.104,190.492C145.682,189.928 145.693,189.002 145.129,188.424L140.909,184.101C140.345,183.523 139.418,183.512 138.841,184.076C138.263,184.64 138.252,185.566 138.816,186.144ZM94.933,184.101L90.713,188.424C90.149,189.002 90.16,189.928 90.738,190.492C91.316,191.056 92.242,191.045 92.806,190.467L97.026,186.144C97.59,185.566 97.579,184.64 97.001,184.076C96.424,183.512 95.497,183.523 94.933,184.101Z"/>
    </g>
</svg>
