<?xml version="1.0" encoding="UTF-8" standalone="no"?>
<!DOCTYPE svg PUBLIC "-//W3C//DTD SVG 1.1//EN" "http://www.w3.org/Graphics/SVG/1.1/DTD/svg11.dtd">
<svg width="56px" height="87px" version="1.1" xmlns="http://www.w3.org/2000/svg" xmlns:xlink="http://www.w3.org/1999/xlink" xml:space="preserve" xmlns:serif="http://www.serif.com/" style="fill-rule:evenodd;clip-rule:evenodd;stroke-linejoin:round;stroke-miterlimit:2;">
    <g transform="matrix(0.612368,0,0,0.612368,-39.3605,-46.9331)">
        <path d="M68.946,108.246C74.949,96.687 90.065,87.623 107.745,87.623C126.568,87.623 142.485,97.896 147.593,110.517C150.567,116.487 150.122,122.457 145.751,128.426C144.578,130.906 144.596,133.237 145.751,135.426C150.603,142.426 151.531,149.535 146.405,156.535C145.308,157.881 142.755,159.917 140.493,162.426L140.493,187.426C144.09,189.163 147.353,191.233 149.493,194.426C154.346,201.426 154.619,208.426 149.493,215.426L144.493,217.426L119.493,217.426C116.449,217.098 114.168,215.794 112.824,213.79C111.491,215.514 109.726,217.148 105.993,217.426L73.493,217.426C72.16,217.501 70.827,216.656 69.493,215.426C64.368,208.426 64.641,201.426 69.493,194.426C71.547,191.698 72.767,189.282 72.493,187.426L72.493,160.681L69.493,156.426C64.368,149.426 64.641,142.426 69.493,135.426C71.334,133.093 71.143,130.76 69.493,128.426C64.568,121.699 64.628,114.972 68.946,108.246Z" style="fill:white;"/>
    </g>
    <g transform="matrix(0.612368,0,0,0.612368,-39.3605,-46.9331)">
        <path d="M106.5,215.789L74,215.789C73.193,215.789 72.538,216.444 72.538,217.251C72.538,218.058 73.193,218.714 74,218.714L106.5,218.714C107.307,218.714 107.962,218.058 107.962,217.251C107.962,216.444 107.307,215.789 106.5,215.789ZM120,218.714L145,218.714C145.807,218.714 146.462,218.058 146.462,217.251C146.462,216.444 145.807,215.789 145,215.789L120,215.789C119.193,215.789 118.538,216.444 118.538,217.251C118.538,218.058 119.193,218.714 120,218.714ZM148.798,195.084C153.258,201.519 153.531,207.953 148.82,214.387C148.343,215.038 148.485,215.954 149.136,216.431C149.787,216.908 150.703,216.766 151.18,216.115C156.72,208.549 156.447,200.984 151.202,193.418C150.742,192.754 149.83,192.589 149.167,193.049C148.503,193.509 148.338,194.421 148.798,195.084ZM110.056,195.084C114.516,201.519 114.789,207.953 110.078,214.387C109.601,215.038 109.742,215.954 110.394,216.431C111.045,216.908 111.961,216.766 112.438,216.115C117.977,208.549 117.704,200.984 112.46,193.418C112,192.754 111.088,192.589 110.424,193.049C109.761,193.509 109.596,194.421 110.056,195.084ZM68.798,193.418C63.553,200.984 63.28,208.549 68.82,216.115C69.297,216.766 70.213,216.908 70.864,216.431C71.515,215.954 71.657,215.038 71.18,214.387C66.469,207.953 66.742,201.519 71.202,195.084C71.662,194.421 71.497,193.509 70.833,193.049C70.17,192.589 69.258,192.754 68.798,193.418ZM71.538,162.251L71.538,187.251C71.538,188.058 72.193,188.714 73,188.714C73.807,188.714 74.462,188.058 74.462,187.251L74.462,162.251C74.462,161.444 73.807,160.789 73,160.789C72.193,160.789 71.538,161.444 71.538,162.251ZM106.038,162.251L106.038,187.251C106.038,188.058 106.693,188.714 107.5,188.714C108.307,188.714 108.962,188.058 108.962,187.251L108.962,162.251C108.962,161.444 108.307,160.789 107.5,160.789C106.693,160.789 106.038,161.444 106.038,162.251ZM139.538,162.251L139.538,187.251C139.538,188.058 140.193,188.714 141,188.714C141.807,188.714 142.462,188.058 142.462,187.251L142.462,162.251C142.462,161.444 141.807,160.789 141,160.789C140.193,160.789 139.538,161.444 139.538,162.251ZM68.798,134.418C63.553,141.984 63.28,149.549 68.82,157.115C69.297,157.766 70.213,157.908 70.864,157.431C71.515,156.954 71.657,156.038 71.18,155.387C66.469,148.953 66.742,142.519 71.202,136.084C71.662,135.421 71.497,134.509 70.833,134.049C70.17,133.589 69.258,133.754 68.798,134.418ZM145.056,136.084C149.516,142.519 149.789,148.953 145.078,155.387C144.601,156.038 144.742,156.954 145.394,157.431C146.045,157.908 146.961,157.766 147.438,157.115C152.977,149.549 152.704,141.984 147.46,134.418C147,133.754 146.088,133.589 145.424,134.049C144.761,134.509 144.596,135.421 145.056,136.084ZM145.056,108.084C149.516,114.519 149.789,120.953 145.078,127.387C144.601,128.038 144.742,128.954 145.394,129.431C146.045,129.908 146.961,129.766 147.438,129.115C152.977,121.549 152.704,113.984 147.46,106.418C147,105.754 146.088,105.589 145.424,106.049C144.761,106.509 144.596,107.421 145.056,108.084ZM68.798,106.418C63.553,113.984 63.28,121.549 68.82,129.115C69.297,129.766 70.213,129.908 70.864,129.431C71.515,128.954 71.657,128.038 71.18,127.387C66.469,120.953 66.742,114.519 71.202,108.084C71.662,107.421 71.497,106.509 70.833,106.049C70.17,105.589 69.258,105.754 68.798,106.418ZM121.274,111.804L111.226,111.804L109.372,108.097C109.012,107.375 108.132,107.082 107.41,107.443C106.688,107.804 106.395,108.683 106.756,109.405L114.756,125.405C115.042,125.976 115.651,126.278 116.25,126.202C116.849,126.278 117.458,125.976 117.744,125.405L125.744,109.405C126.105,108.683 125.812,107.804 125.09,107.443C124.368,107.082 123.488,107.375 123.128,108.097L121.274,111.804ZM112.688,114.729L119.812,114.729L116.25,121.852L112.688,114.729ZM132.345,107.785L136.345,111.785C136.915,112.356 137.842,112.356 138.413,111.785C138.984,111.214 138.984,110.288 138.413,109.717L134.413,105.717C133.842,105.146 132.915,105.146 132.345,105.717C131.774,106.288 131.774,107.214 132.345,107.785ZM97.345,105.717L93.345,109.717C92.774,110.288 92.774,111.214 93.345,111.785C93.915,112.356 94.842,112.356 95.413,111.785L99.413,107.785C99.984,107.214 99.984,106.288 99.413,105.717C98.842,105.146 97.915,105.146 97.345,105.717ZM69.455,100.054C77.464,99.135 83.692,96.898 88.16,93.399C88.474,93.177 88.637,92.886 88.7,92.574C88.754,92.304 88.735,91.987 88.554,91.639C88.552,91.635 88.55,91.631 88.548,91.627C88.36,91.279 88.086,91.085 87.768,90.995C87.49,90.917 87.105,90.906 86.656,91.167C86.612,91.193 86.57,91.221 86.53,91.252C82.386,94.489 76.574,96.502 69.113,97.347C69.084,97.351 69.056,97.355 69.027,97.361C68.61,97.441 68.345,97.646 68.174,97.868C67.963,98.143 67.846,98.492 67.934,98.938C68.031,99.472 68.32,99.76 68.607,99.917C68.842,100.046 69.123,100.113 69.455,100.054ZM103.435,98.743L124.565,98.743C124.982,98.743 125.337,98.596 125.629,98.304C125.923,98.01 126.069,97.659 126.069,97.252C126.069,96.843 125.917,96.488 125.607,96.192C125.302,95.901 124.953,95.762 124.565,95.762L103.435,95.762C103.018,95.762 102.663,95.909 102.371,96.201C102.077,96.495 101.931,96.846 101.931,97.252C101.931,97.662 102.083,98.017 102.393,98.313C102.698,98.604 103.047,98.743 103.435,98.743ZM69.082,97.863C69.074,97.865 69.065,97.866 69.056,97.868C69.048,97.87 69.039,97.872 69.03,97.874L69.082,97.863ZM137.736,94.646C141.633,94.832 145.659,95.45 149.814,96.497C149.815,96.497 149.815,96.497 149.816,96.497C150.177,96.587 150.476,96.526 150.721,96.399C151.021,96.245 151.321,95.957 151.409,95.406C151.486,94.924 151.344,94.573 151.144,94.323C150.978,94.115 150.749,93.95 150.431,93.87C146.107,92.784 141.911,92.146 137.842,91.955C137.825,91.954 137.807,91.953 137.79,91.953C137.438,91.953 137.168,92.073 136.957,92.249C136.709,92.456 136.491,92.782 136.491,93.3C136.491,93.798 136.692,94.113 136.907,94.312C137.119,94.509 137.388,94.638 137.736,94.646ZM137.735,94.646L137.756,94.646L137.735,94.646ZM69.943,91.814C76.986,90.909 82.419,89.019 86.261,86.196C86.273,86.187 86.285,86.179 86.296,86.169C86.627,85.905 86.77,85.593 86.811,85.285C86.851,84.985 86.8,84.65 86.559,84.308C86.295,83.935 85.97,83.783 85.664,83.736C85.353,83.689 85.001,83.739 84.646,84.013C81.154,86.605 76.122,88.294 69.57,89.137C69.547,89.14 69.524,89.143 69.501,89.148C69.083,89.228 68.819,89.433 68.648,89.656C68.436,89.931 68.318,90.282 68.409,90.731C68.489,91.145 68.693,91.404 68.908,91.571C69.177,91.779 69.517,91.896 69.947,91.813L69.943,91.814ZM106.834,86.04C106.443,86.04 106.099,86.177 105.805,86.457C105.506,86.742 105.356,87.091 105.356,87.505C105.356,87.911 105.502,88.262 105.796,88.556C106.092,88.852 106.439,88.995 106.834,88.995L121.166,88.995C121.591,88.995 121.944,88.844 122.227,88.546C122.505,88.255 122.644,87.907 122.644,87.505C122.644,87.091 122.494,86.742 122.195,86.457C121.901,86.177 121.557,86.04 121.166,86.04L106.834,86.04ZM139.478,83.996C139.46,83.995 139.443,83.995 139.425,83.995C139.074,83.995 138.804,84.115 138.593,84.29C138.345,84.498 138.126,84.823 138.126,85.341C138.126,85.839 138.328,86.154 138.543,86.354C138.755,86.55 139.025,86.68 139.374,86.687C142.269,86.841 145.269,87.3 148.367,88.062C148.763,88.166 149.082,88.091 149.347,87.93C149.6,87.777 149.88,87.494 149.962,86.956C150.035,86.479 149.897,86.133 149.708,85.887C149.54,85.669 149.307,85.498 148.983,85.417C148.982,85.417 148.98,85.416 148.978,85.416C145.709,84.613 142.542,84.14 139.478,83.996ZM139.459,84.467C139.451,84.466 139.442,84.466 139.433,84.466C139.424,84.466 139.416,84.466 139.407,84.466L139.459,84.467ZM69.935,84.102C76.439,83.201 81.381,81.656 84.775,79.514C84.81,79.492 84.843,79.468 84.875,79.443C85.21,79.176 85.347,78.865 85.388,78.576C85.435,78.252 85.376,77.898 85.095,77.55C85.092,77.547 85.09,77.544 85.088,77.541C84.789,77.178 84.459,77.049 84.186,77.012C83.888,76.973 83.594,77.029 83.313,77.216C80.149,79.195 75.543,80.584 69.51,81.429C69.476,81.434 69.442,81.44 69.409,81.448C68.988,81.548 68.727,81.78 68.563,82.054C68.415,82.301 68.327,82.62 68.409,83.025C68.513,83.554 68.804,83.832 69.085,83.981C69.323,84.108 69.606,84.17 69.938,84.102L69.935,84.102ZM69.506,81.921C69.496,81.923 69.487,81.925 69.478,81.927C69.469,81.93 69.459,81.932 69.45,81.934L69.506,81.921ZM138.717,79.694C142.092,79.833 145.6,80.295 149.243,81.077C149.606,81.162 149.898,81.1 150.139,80.976C150.438,80.822 150.738,80.534 150.826,79.983C150.899,79.525 150.775,79.19 150.607,78.952C150.444,78.721 150.214,78.544 149.895,78.455C149.875,78.449 149.854,78.444 149.834,78.44C146.096,77.625 142.422,77.146 138.812,77.002C138.797,77.002 138.782,77.001 138.767,77.001C138.318,77.001 138.002,77.182 137.777,77.438C137.596,77.644 137.449,77.935 137.449,78.348C137.449,78.866 137.668,79.191 137.916,79.399C138.121,79.57 138.382,79.688 138.718,79.694L138.717,79.694ZM123.824,78.009C123.517,77.702 123.164,77.557 122.773,77.557L105.227,77.557C104.836,77.557 104.483,77.702 104.175,78.009C103.87,78.315 103.723,78.671 103.723,79.074C103.723,79.483 103.874,79.838 104.185,80.135C104.49,80.426 104.839,80.565 105.227,80.565C105.227,80.565 122.773,80.565 122.773,80.565C123.161,80.565 123.51,80.426 123.815,80.135C124.126,79.838 124.277,79.483 124.277,79.074C124.277,78.671 124.13,78.315 123.825,78.009L123.824,78.009ZM84.519,79.083C84.527,79.078 84.534,79.073 84.542,79.068C84.549,79.063 84.557,79.058 84.564,79.052L84.519,79.083Z" style="fill-rule:nonzero;"/>
    </g>
</svg>
