<?xml version="1.0" encoding="UTF-8" standalone="no"?>
<!DOCTYPE svg PUBLIC "-//W3C//DTD SVG 1.1//EN" "http://www.w3.org/Graphics/SVG/1.1/DTD/svg11.dtd">
<svg width="48px" height="75px" version="1.1" xmlns="http://www.w3.org/2000/svg" xmlns:xlink="http://www.w3.org/1999/xlink" xml:space="preserve" xmlns:serif="http://www.serif.com/" style="fill-rule:evenodd;clip-rule:evenodd;stroke-linejoin:round;stroke-miterlimit:2;">
    <g transform="matrix(-0.345864,0.125522,0.116892,0.333297,2.08435,-143.702)">
        <path d="M139.314,585.972C147.85,596.198 159.151,594.346 160.899,586.755C161.906,582.379 158.018,573.265 153.744,561.669C159.972,558.264 164.451,552.11 167.26,543.333C170.554,531.649 167.081,522.514 157.867,515.542C165.352,500.123 172.936,482.926 154.405,470.955C150.849,466.342 149.443,461.389 150.015,456.332C153.31,444.648 149.837,435.513 140.623,428.541C130.957,422.169 115.144,416.889 86.974,408.939C74.282,406.479 63.639,410.081 55.41,420.826C45.753,437.849 37.882,452.738 35.675,468.065C32.723,479.62 35.511,489.012 45.068,495.856C55.15,501.092 59.407,504.914 57.837,507.323C54.885,518.878 57.674,528.271 67.23,535.114C73.339,540.137 77.837,544.552 80.267,548.185C80.267,548.185 89.305,555.688 96.215,561.425C101.312,565.658 107.244,568.674 113.599,570.266C113.599,570.266 113.6,570.266 113.6,570.266C119.459,571.733 124.946,574.462 129.71,578.278C134.274,581.934 139.314,585.972 139.314,585.972Z" style="fill:white;"/>
    </g>
    <g transform="matrix(0.632503,0,0,0.632503,43.434,15.8421)">
        <path d="M-33.618,83.269L-33.632,83.263C-33.939,83.152 -34.246,83.163 -34.553,83.301C-34.857,83.438 -35.076,83.665 -35.206,83.984C-35.206,83.985 -35.207,83.986 -35.207,83.987C-35.927,85.783 -36.8,87.15 -37.842,88.08C-38.831,88.962 -39.905,89.411 -41.073,89.411C-41.742,89.411 -42.282,89.344 -42.692,89.199C-43.059,89.068 -43.381,88.818 -43.666,88.458C-43.974,88.07 -44.181,87.512 -44.31,86.793C-44.452,85.997 -44.522,84.971 -44.522,83.717C-44.522,81.343 -44.458,78.485 -44.331,75.145C-44.311,74.814 -44.418,74.516 -44.666,74.255C-44.898,74.011 -45.164,73.883 -45.457,73.855L-45.622,73.832C-45.972,73.807 -46.279,73.924 -46.536,74.195C-46.764,74.435 -46.888,74.719 -46.909,75.046C-46.909,75.051 -46.909,75.055 -46.909,75.06C-47.038,78.471 -47.102,81.357 -47.102,83.717C-47.102,86.788 -46.645,88.899 -45.804,90.067C-44.923,91.291 -43.358,91.949 -41.073,91.949C-39.297,91.949 -37.699,91.34 -36.281,90.117C-34.908,88.932 -33.766,87.195 -32.873,84.895C-32.872,84.892 -32.871,84.889 -32.87,84.885C-32.763,84.594 -32.763,84.292 -32.88,83.978C-33.007,83.639 -33.235,83.412 -33.557,83.29L-33.523,83.304L-33.618,83.269ZM-45.055,74.604C-45.024,74.54 -45.005,74.468 -45.002,74.393C-44.993,74.154 -45.146,73.946 -45.364,73.876C-45.214,73.925 -45.166,74.033 -45.173,74.161C-45.147,74.226 -45.134,74.297 -45.136,74.371C-45.138,74.42 -45.146,74.467 -45.161,74.511C-45.124,74.538 -45.089,74.569 -45.055,74.604ZM-42.946,55.768C-43.325,55.37 -43.796,55.168 -44.368,55.168C-45.37,55.168 -46.319,55.797 -47.158,57.142C-47.176,57.171 -47.191,57.203 -47.204,57.236C-47.443,57.895 -47.307,58.379 -46.912,58.709C-46.723,58.869 -46.521,58.94 -46.316,58.94C-46.057,58.939 -45.77,58.82 -45.485,58.521C-45.472,58.508 -45.461,58.495 -45.45,58.48L-44.874,57.725C-44.745,57.563 -44.64,57.447 -44.511,57.447C-44.48,57.447 -44.459,57.474 -44.437,57.501C-44.383,57.567 -44.337,57.656 -44.295,57.763C-44.065,58.349 -43.964,59.374 -43.964,60.837C-43.964,61.178 -43.983,61.5 -44.021,61.803C-45.254,63.844 -45.856,65.657 -45.856,67.232C-45.856,67.639 -45.805,67.937 -45.728,68.127C-45.624,68.387 -45.462,68.525 -45.289,68.587C-45.112,68.651 -44.892,68.648 -44.642,68.496C-44.623,68.485 -44.606,68.473 -44.588,68.459C-44.096,68.06 -43.68,67.44 -43.349,66.585C-42.821,65.367 -42.404,64.044 -42.108,62.621C-41.603,61.77 -41.009,60.986 -40.327,60.272C-39.246,59.14 -37.978,58.181 -36.521,57.393C-36.501,57.382 -36.483,57.37 -36.464,57.357C-36.185,57.148 -36.028,56.899 -35.969,56.627C-35.911,56.364 -35.944,56.068 -36.098,55.745C-36.114,55.71 -36.135,55.678 -36.158,55.647C-36.527,55.189 -37.025,55.039 -37.684,55.268C-37.699,55.274 -37.713,55.279 -37.728,55.286C-38.894,55.83 -40.354,57.127 -42.087,59.197C-42.116,58.345 -42.194,57.649 -42.32,57.108C-42.468,56.482 -42.687,56.041 -42.946,55.768ZM-8.78,51.835L-17.599,66.619C-17.913,67.145 -17.741,67.828 -17.214,68.142C-16.687,68.456 -16.005,68.284 -15.691,67.757L-6.872,52.973C-6.558,52.447 -6.73,51.764 -7.257,51.45C-7.783,51.136 -8.466,51.308 -8.78,51.835ZM-57.428,50.028C-61.48,55.873 -61.692,61.717 -57.413,67.562C-57.072,68.027 -56.418,68.128 -55.953,67.788C-55.487,67.447 -55.386,66.793 -55.727,66.328C-59.415,61.291 -59.203,56.255 -55.711,51.218C-55.383,50.745 -55.501,50.093 -55.975,49.765C-56.448,49.436 -57.1,49.554 -57.428,50.028ZM-9.832,26.128L-9.832,43.624C-9.832,44.237 -9.335,44.735 -8.721,44.735C-8.108,44.735 -7.61,44.237 -7.61,43.624L-7.61,26.128C-7.61,25.515 -8.108,25.017 -8.721,25.017C-9.335,25.017 -9.832,25.515 -9.832,26.128ZM-59.357,26.128L-59.357,43.624C-59.357,44.237 -58.859,44.735 -58.246,44.735C-57.632,44.735 -57.134,44.237 -57.134,43.624L-57.134,26.128C-57.134,25.515 -57.632,25.017 -58.246,25.017C-58.859,25.017 -59.357,25.515 -59.357,26.128ZM-3.944,27.31C-0.453,32.347 -0.241,37.383 -3.928,42.42C-4.269,42.885 -4.168,43.539 -3.703,43.88C-3.237,44.22 -2.583,44.119 -2.243,43.654C2.037,37.809 1.825,31.965 -2.227,26.12C-2.555,25.646 -3.207,25.528 -3.681,25.857C-4.154,26.185 -4.272,26.836 -3.944,27.31ZM-63.812,26.12C-67.863,31.965 -68.075,37.809 -63.796,43.654C-63.456,44.119 -62.801,44.22 -62.336,43.88C-61.871,43.539 -61.77,42.885 -62.11,42.42C-65.798,37.383 -65.586,32.347 -62.095,27.31C-61.766,26.836 -61.884,26.185 -62.358,25.857C-62.832,25.528 -63.483,25.646 -63.812,26.12ZM-26.225,7.546C-26.243,7.561 -26.26,7.576 -26.277,7.592L-26.272,7.587C-26.666,7.924 -26.743,8.505 -26.447,8.933C-26.447,8.933 -26.447,8.934 -26.446,8.934C-26.299,9.145 -26.171,9.35 -26.063,9.55C-25.599,10.436 -25.37,11.499 -25.37,12.738C-25.37,14.176 -25.655,15.335 -26.24,16.212C-26.24,16.212 -26.24,16.213 -26.241,16.214C-26.709,16.928 -27.249,17.303 -27.885,17.303C-28.849,17.303 -29.41,16.488 -29.68,14.941C-29.156,13.867 -28.896,12.815 -28.896,11.785C-28.896,11.095 -28.992,10.615 -29.156,10.339C-29.312,10.076 -29.527,9.955 -29.788,9.955C-30.067,9.955 -30.358,10.12 -30.622,10.506C-31.16,11.283 -31.44,12.437 -31.44,13.972C-31.44,14.172 -31.433,14.408 -31.418,14.679C-32.203,16.402 -33.088,17.303 -34.146,17.303C-34.625,17.303 -34.965,17.002 -35.195,16.438C-35.195,16.438 -35.195,16.437 -35.196,16.436C-35.368,16.023 -35.451,15.516 -35.451,14.917C-35.451,12.752 -34.503,10.821 -32.618,9.117C-32.618,9.117 -32.618,9.117 -32.618,9.117C-32.214,8.752 -32.171,8.133 -32.52,7.715L-32.571,7.656C-32.748,7.446 -33.004,7.318 -33.279,7.3C-33.555,7.282 -33.827,7.378 -34.03,7.566C-34.723,8.204 -35.291,8.826 -35.736,9.432C-36.99,11.134 -37.615,12.982 -37.615,14.973C-37.615,16.173 -37.37,17.161 -36.891,17.941C-36.891,17.942 -36.89,17.942 -36.89,17.942C-36.252,18.975 -35.369,19.486 -34.25,19.486C-32.967,19.486 -31.838,18.736 -30.895,17.196C-30.279,18.734 -29.26,19.486 -27.868,19.486C-26.461,19.486 -25.294,18.771 -24.381,17.317C-24.381,17.317 -24.381,17.317 -24.381,17.317C-23.6,16.074 -23.206,14.561 -23.206,12.776C-23.206,10.849 -23.726,9.167 -24.756,7.723C-24.757,7.722 -24.758,7.721 -24.759,7.719C-24.925,7.495 -25.177,7.349 -25.454,7.316C-25.732,7.283 -26.011,7.366 -26.225,7.546L-26.225,7.546ZM-64.115,1.319C-68.167,7.163 -68.379,13.008 -64.1,18.853C-63.759,19.318 -63.105,19.419 -62.64,19.078C-62.175,18.738 -62.073,18.084 -62.414,17.618C-66.102,12.582 -65.89,7.545 -62.398,2.509C-62.07,2.035 -62.188,1.384 -62.662,1.055C-63.136,0.727 -63.787,0.845 -64.115,1.319ZM0.947,2.509C4.439,7.545 4.651,12.582 0.963,17.618C0.622,18.084 0.724,18.738 1.189,19.078C1.654,19.419 2.308,19.318 2.649,18.853C6.928,13.008 6.716,7.163 2.664,1.319C2.336,0.845 1.685,0.727 1.211,1.055C0.737,1.384 0.619,2.035 0.947,2.509ZM-46.594,6.508C-45.315,6.508 -44.276,7.547 -44.276,8.826C-44.276,10.105 -45.315,11.143 -46.594,11.143C-47.873,11.143 -48.911,10.105 -48.911,8.826C-48.911,7.547 -47.873,6.508 -46.594,6.508ZM-15.29,6.508C-14.011,6.508 -12.972,7.547 -12.972,8.826C-12.972,10.105 -14.011,11.143 -15.29,11.143C-16.569,11.143 -17.607,10.105 -17.607,8.826C-17.607,7.547 -16.569,6.508 -15.29,6.508ZM-7.278,3.219L-4.855,5.702C-4.426,6.141 -3.722,6.149 -3.284,5.721C-2.845,5.293 -2.836,4.589 -3.265,4.15L-5.688,1.667C-6.116,1.228 -6.82,1.22 -7.259,1.648C-7.698,2.077 -7.707,2.781 -7.278,3.219ZM-54.941,0.426L-57.365,2.908C-57.793,3.347 -57.785,4.051 -57.346,4.48C-56.907,4.908 -56.203,4.9 -55.775,4.461L-53.351,1.978C-52.923,1.539 -52.931,0.835 -53.37,0.407C-53.809,-0.021 -54.513,-0.013 -54.941,0.426ZM-56.347,-3.865C-50.409,-4.669 -45.793,-6.619 -42.481,-9.675C-42.284,-9.84 -42.171,-10.052 -42.13,-10.289C-42.098,-10.479 -42.112,-10.699 -42.221,-10.943C-42.222,-10.946 -42.223,-10.949 -42.224,-10.951C-42.358,-11.245 -42.568,-11.398 -42.796,-11.474C-43.024,-11.549 -43.347,-11.567 -43.715,-11.315C-43.748,-11.293 -43.78,-11.268 -43.809,-11.241C-46.862,-8.433 -51.145,-6.684 -56.642,-5.95C-56.667,-5.947 -56.692,-5.943 -56.717,-5.937C-57.034,-5.865 -57.236,-5.696 -57.365,-5.498C-57.491,-5.306 -57.565,-5.06 -57.512,-4.747C-57.449,-4.34 -57.242,-4.117 -57.056,-3.997C-56.859,-3.869 -56.625,-3.807 -56.347,-3.865ZM-56.672,-5.5C-56.68,-5.499 -56.688,-5.497 -56.696,-5.495C-56.704,-5.493 -56.712,-5.491 -56.72,-5.489L-56.672,-5.5ZM-15.126,-8.528C-11.972,-8.378 -8.713,-7.878 -5.35,-7.031C-5.35,-7.031 -5.349,-7.031 -5.349,-7.03C-5.075,-6.962 -4.848,-7.008 -4.662,-7.104C-4.435,-7.222 -4.208,-7.441 -4.141,-7.86C-4.082,-8.227 -4.19,-8.494 -4.342,-8.685C-4.468,-8.842 -4.641,-8.967 -4.883,-9.028C-8.373,-9.904 -11.76,-10.419 -15.044,-10.574C-15.057,-10.575 -15.07,-10.575 -15.083,-10.575C-15.349,-10.575 -15.554,-10.484 -15.714,-10.351C-15.903,-10.193 -16.068,-9.945 -16.068,-9.551C-16.068,-9.172 -15.916,-8.932 -15.752,-8.781C-15.592,-8.632 -15.388,-8.534 -15.126,-8.528L-15.126,-8.528ZM-55.987,-11.036C-50.766,-11.826 -46.739,-13.474 -43.89,-15.938C-43.882,-15.946 -43.873,-15.954 -43.865,-15.961C-43.654,-16.16 -43.555,-16.385 -43.529,-16.617C-43.504,-16.829 -43.54,-17.062 -43.685,-17.304C-43.881,-17.63 -44.139,-17.754 -44.367,-17.795C-44.619,-17.84 -44.914,-17.802 -45.201,-17.54C-47.773,-15.293 -51.481,-13.826 -56.307,-13.096C-56.327,-13.093 -56.347,-13.089 -56.367,-13.084C-56.684,-13.012 -56.886,-12.844 -57.015,-12.645C-57.141,-12.452 -57.215,-12.205 -57.161,-11.89C-57.092,-11.474 -56.871,-11.254 -56.663,-11.137C-56.475,-11.03 -56.249,-10.978 -55.981,-11.038L-55.987,-11.036ZM-56.328,-12.668C-56.335,-12.667 -56.342,-12.665 -56.349,-12.663C-56.356,-12.662 -56.363,-12.66 -56.37,-12.658L-56.328,-12.668ZM-13.722,-17.005C-13.735,-17.006 -13.748,-17.006 -13.761,-17.006C-14.027,-17.006 -14.233,-16.916 -14.392,-16.782C-14.581,-16.625 -14.746,-16.377 -14.746,-15.983C-14.746,-15.604 -14.594,-15.364 -14.431,-15.212C-14.271,-15.064 -14.069,-14.967 -13.808,-14.96C-11.457,-14.835 -9.028,-14.464 -6.52,-13.846C-6.219,-13.767 -5.978,-13.824 -5.777,-13.946C-5.584,-14.063 -5.372,-14.278 -5.31,-14.687C-5.255,-15.051 -5.359,-15.315 -5.502,-15.502C-5.63,-15.668 -5.807,-15.797 -6.053,-15.859C-6.054,-15.859 -6.056,-15.859 -6.057,-15.86C-8.694,-16.507 -11.25,-16.889 -13.722,-17.005ZM-13.737,-16.625C-13.744,-16.625 -13.75,-16.625 -13.757,-16.626C-13.763,-16.626 -13.77,-16.626 -13.776,-16.626L-13.737,-16.625ZM-55.986,-17.749L-55.978,-17.751L-55.99,-17.748C-51.168,-18.535 -47.505,-19.884 -44.989,-21.753C-44.963,-21.773 -44.939,-21.793 -44.915,-21.815C-44.701,-22.016 -44.607,-22.24 -44.58,-22.458C-44.552,-22.687 -44.594,-22.932 -44.763,-23.178C-44.765,-23.18 -44.766,-23.182 -44.768,-23.185C-44.992,-23.506 -45.257,-23.614 -45.463,-23.646C-45.71,-23.685 -45.957,-23.638 -46.19,-23.453C-48.517,-21.74 -51.91,-20.535 -56.352,-19.803C-56.382,-19.798 -56.411,-19.791 -56.44,-19.783C-56.68,-19.716 -56.851,-19.587 -56.974,-19.427C-57.123,-19.232 -57.224,-18.964 -57.161,-18.6C-57.094,-18.194 -56.885,-17.979 -56.702,-17.865C-56.502,-17.739 -56.265,-17.681 -55.986,-17.749ZM-36.873,-18.862C-30.706,-22.427 -24.539,-22.641 -18.372,-18.874C-17.88,-18.574 -17.237,-18.729 -16.936,-19.221C-16.636,-19.714 -16.791,-20.357 -17.283,-20.657C-24.162,-24.858 -31.04,-24.647 -37.919,-20.67C-38.418,-20.382 -38.589,-19.742 -38.3,-19.243C-38.012,-18.744 -37.372,-18.573 -36.873,-18.862ZM-56.362,-19.373C-56.371,-19.371 -56.379,-19.369 -56.388,-19.367C-56.396,-19.364 -56.405,-19.362 -56.413,-19.359L-56.362,-19.373ZM-56.327,-19.381L-56.342,-19.378L-56.318,-19.382L-56.327,-19.381ZM-14.331,-20.611C-11.6,-20.498 -8.76,-20.125 -5.811,-19.491C-5.535,-19.428 -5.315,-19.474 -5.133,-19.568C-4.906,-19.685 -4.679,-19.904 -4.612,-20.323C-4.556,-20.672 -4.65,-20.927 -4.778,-21.109C-4.902,-21.284 -5.076,-21.418 -5.318,-21.485C-5.333,-21.49 -5.348,-21.494 -5.364,-21.497C-8.381,-22.154 -11.346,-22.541 -14.26,-22.657C-14.271,-22.657 -14.282,-22.658 -14.293,-22.658C-14.634,-22.658 -14.874,-22.521 -15.044,-22.327C-15.182,-22.17 -15.293,-21.948 -15.293,-21.634C-15.293,-21.24 -15.128,-20.992 -14.939,-20.835C-14.784,-20.705 -14.586,-20.616 -14.331,-20.611ZM-14.332,-20.611L-14.329,-20.611L-14.332,-20.611ZM-45.181,-22.127C-45.175,-22.131 -45.169,-22.136 -45.163,-22.141C-45.156,-22.145 -45.15,-22.15 -45.144,-22.155L-45.181,-22.127Z"/>
    </g>
</svg>
