<?xml version="1.0" encoding="UTF-8" standalone="no"?>
<!DOCTYPE svg PUBLIC "-//W3C//DTD SVG 1.1//EN" "http://www.w3.org/Graphics/SVG/1.1/DTD/svg11.dtd">
<svg width="62px" height="112px" version="1.1" xmlns="http://www.w3.org/2000/svg" xmlns:xlink="http://www.w3.org/1999/xlink" xml:space="preserve" xmlns:serif="http://www.serif.com/" style="fill-rule:evenodd;clip-rule:evenodd;stroke-linejoin:round;stroke-miterlimit:2;">
    <g transform="matrix(0.602269,0,0,0.602269,-35.5194,-19.1176)">
        <path d="M101.141,202.807C101.195,202.357 101.054,201.905 100.753,201.566C100.452,201.226 100.02,201.032 99.567,201.032C92.452,201.008 64.431,201.008 64.431,201.008C63.359,201.008 62.345,200.52 61.676,199.683C61.006,198.846 60.753,197.751 60.989,196.705L60.989,155.719L73.661,155.665L73.661,44.64C73.661,43.887 73.831,43.144 74.158,42.466C74.352,42.065 74.585,41.583 74.822,41.091C75.656,39.363 77.406,38.265 79.325,38.265L129.244,38.265C131.346,38.265 133.223,39.58 133.942,41.555C134.073,41.916 134.197,42.255 134.3,42.54C134.5,43.088 134.602,43.667 134.602,44.25L134.602,107.855L138.224,112.314C141.638,117.239 140.53,122.498 136.924,127.423C135.358,128.421 135.24,131.839 136.872,132.414C144.828,135.219 144.689,144.89 141.083,149.815C144.183,150.769 145.956,152.718 146.326,155.719L146.326,173.96L146.278,174.036L160.948,174.036C161.485,174.036 161.92,174.472 161.92,175.008L161.92,200.315C161.92,200.852 161.485,201.287 160.948,201.287L131.73,201.287C131.157,201.287 130.608,201.516 130.205,201.922C129.802,202.328 129.577,202.879 129.582,203.452C129.607,206.791 129.652,212.818 129.652,212.818C128.348,218.455 122.376,217.888 121.311,213.451C120.662,209.077 118.033,204.778 113.635,201.445C110.951,218.02 98.84,223.098 101.227,204.835C101.227,204.835 101.168,203.803 101.141,202.807Z" style="fill:white;"/>
    </g>
    <g transform="matrix(0.602269,0,0,0.602269,-35.5194,-19.1176)">
        <path d="M110.122,210.104C110.116,210.076 110.105,210.056 110.09,210.043L110.091,210.041L110.07,210.033C109.766,209.905 109.462,209.917 109.159,210.078C108.896,210.217 108.698,210.441 108.585,210.767C108.585,210.768 108.584,210.769 108.584,210.77C108.078,212.254 107.469,213.386 106.737,214.155C106.089,214.834 105.392,215.194 104.626,215.194C104.195,215.194 103.846,215.148 103.582,215.038C103.358,214.944 103.168,214.759 102.994,214.501C102.783,214.187 102.646,213.737 102.558,213.157C102.456,212.49 102.407,211.631 102.407,210.581C102.407,208.58 102.452,206.173 102.544,203.36C102.56,203.044 102.468,202.762 102.267,202.514C102.053,202.249 101.8,202.117 101.529,202.084L101.382,202.062L101.367,202.061C101.036,202.04 100.739,202.161 100.495,202.463C100.312,202.69 100.208,202.957 100.192,203.266C100.191,203.27 100.191,203.275 100.191,203.279C100.099,206.157 100.053,208.59 100.053,210.581C100.053,213.203 100.394,215.006 101.005,216.003C101.681,217.107 102.874,217.706 104.626,217.706C105.972,217.706 107.188,217.173 108.263,216.082C109.262,215.067 110.098,213.58 110.749,211.611C110.75,211.607 110.751,211.604 110.752,211.6C110.835,211.332 110.836,211.054 110.744,210.765C110.632,210.412 110.418,210.185 110.132,210.058L110.122,210.104ZM127.964,205.461L127.964,212.536C127.964,213.639 127.737,214.459 127.219,214.976C126.789,215.404 126.19,215.6 125.431,215.6C124.63,215.6 123.99,215.383 123.523,214.917L123.523,214.916C123.106,214.501 122.879,213.761 122.774,212.722C122.74,212.367 122.603,212.109 122.407,211.93C122.21,211.752 121.941,211.643 121.584,211.643C121.564,211.643 121.544,211.644 121.524,211.646C121.178,211.685 120.926,211.835 120.752,212.065C120.603,212.261 120.509,212.535 120.509,212.896C120.509,212.916 120.51,212.936 120.512,212.956C120.691,214.508 121.141,215.606 121.808,216.271C122.705,217.167 123.889,217.626 125.37,217.626C126.855,217.626 128.019,217.184 128.874,216.331C129.767,215.441 130.232,214.199 130.232,212.596L130.232,205.461C130.232,205.077 130.118,204.798 129.943,204.606C129.753,204.398 129.478,204.267 129.098,204.267C128.718,204.267 128.443,204.398 128.253,204.606C128.078,204.798 127.964,205.077 127.964,205.461ZM113.286,202.766L115.99,205.47C116.439,205.919 117.167,205.919 117.615,205.47C118.064,205.022 118.064,204.294 117.615,203.845L114.911,201.141C114.463,200.693 113.734,200.693 113.286,201.141C112.838,201.59 112.838,202.318 113.286,202.766ZM101.896,203.13C101.994,203.024 102.056,202.885 102.062,202.732C102.074,202.456 101.906,202.213 101.66,202.119C101.779,202.165 101.839,202.244 101.861,202.339C101.932,202.445 101.972,202.575 101.966,202.713C101.961,202.832 101.923,202.943 101.861,203.036C101.876,203.066 101.887,203.097 101.896,203.13ZM60.02,201.972L96.528,201.972C97.105,201.972 97.573,201.504 97.573,200.928C97.573,200.351 97.105,199.883 96.528,199.883L60.02,199.883C59.444,199.883 58.976,200.351 58.976,200.928C58.976,201.504 59.444,201.972 60.02,201.972ZM82.668,178.383L82.668,196.624C82.668,197.316 83.229,197.878 83.921,197.878C84.613,197.878 85.175,197.316 85.175,196.624L85.175,178.383C85.175,177.691 84.613,177.13 83.921,177.13C83.229,177.13 82.668,177.691 82.668,178.383ZM59.735,178.383L59.735,196.624C59.735,197.316 60.297,197.878 60.989,197.878C61.681,197.878 62.243,197.316 62.243,196.624L62.243,178.383C62.243,177.691 61.681,177.13 60.989,177.13C60.297,177.13 59.735,177.691 59.735,178.383ZM134.22,180.915C137.354,185.436 137.546,189.957 134.236,194.478C133.895,194.943 133.996,195.597 134.462,195.938C134.927,196.279 135.581,196.177 135.922,195.712C139.823,190.383 139.631,185.054 135.937,179.725C135.609,179.251 134.957,179.133 134.484,179.462C134.01,179.79 133.892,180.442 134.22,180.915ZM112.705,179.725C109.01,185.054 108.818,190.383 112.72,195.712C113.061,196.177 113.715,196.279 114.18,195.938C114.645,195.597 114.747,194.943 114.406,194.478C111.096,189.957 111.288,185.436 114.422,180.915C114.75,180.442 114.632,179.79 114.158,179.462C113.684,179.133 113.033,179.251 112.705,179.725ZM104.017,195.585L104.239,195.585C104.527,195.578 104.76,195.476 104.942,195.287C105.131,195.092 105.225,194.86 105.225,194.593L105.225,185.85C105.225,185.558 105.12,185.322 104.916,185.14C104.722,184.966 104.488,184.876 104.211,184.876L100.751,184.876L100.751,179.966C100.751,179.693 100.651,179.461 100.449,179.27C100.253,179.086 100.017,178.992 99.738,178.992L93.358,178.992C93.079,178.992 92.843,179.086 92.648,179.27C92.445,179.461 92.345,179.693 92.345,179.966L92.345,184.876L88.885,184.876C88.586,184.876 88.346,184.975 88.159,185.16C87.968,185.349 87.872,185.579 87.872,185.85L87.872,194.593C87.872,194.862 87.969,195.096 88.169,195.293C88.366,195.487 88.604,195.585 88.885,195.585L89.106,195.585C89.376,195.579 89.605,195.481 89.796,195.293C89.995,195.096 90.093,194.862 90.093,194.593L90.093,194.54L103.003,194.54L103.003,194.587L103.316,194.907L103.003,194.593C103.003,194.862 103.101,195.096 103.3,195.293C103.497,195.487 103.736,195.585 104.017,195.585ZM159.085,195.585L159.308,195.585C159.596,195.578 159.829,195.476 160.011,195.287C160.2,195.092 160.293,194.86 160.293,194.593L160.293,185.85C160.293,185.558 160.188,185.322 159.985,185.14C159.791,184.966 159.557,184.876 159.28,184.876L155.82,184.876L155.82,179.966C155.82,179.693 155.72,179.461 155.517,179.27C155.322,179.086 155.085,178.992 154.806,178.992L148.427,178.992C148.148,178.992 147.912,179.086 147.716,179.27C147.514,179.461 147.414,179.693 147.414,179.966L147.414,184.876L143.954,184.876C143.655,184.876 143.414,184.975 143.228,185.16C143.036,185.349 142.94,185.579 142.94,185.85L142.94,194.593C142.94,194.862 143.038,195.096 143.238,195.293C143.434,195.487 143.673,195.585 143.954,195.585L144.175,195.585C144.444,195.579 144.674,195.481 144.864,195.293C145.064,195.096 145.162,194.862 145.162,194.593C145.162,194.766 145.022,194.907 144.848,194.907C144.848,194.907 145.162,194.876 145.162,194.587L145.162,194.54L158.072,194.54L158.072,194.593C158.072,194.862 158.169,195.096 158.369,195.293C158.566,195.487 158.804,195.585 159.085,195.585ZM89.778,194.648L89.78,194.65L89.778,194.648ZM158.385,194.65L158.275,194.54L158.272,194.54L158.385,194.65ZM158.072,194.344L158.271,194.539L158.274,194.539L158.072,194.337L158.072,194.344ZM153.657,180.902L153.657,185.813C153.657,186.091 153.764,186.324 153.98,186.509C154.18,186.681 154.417,186.768 154.69,186.768L158.072,186.768L158.072,192.612L145.162,192.612L145.162,186.768L148.544,186.768C148.836,186.768 149.077,186.677 149.269,186.505C149.474,186.32 149.577,186.09 149.577,185.813L149.577,180.902L153.657,180.902ZM98.588,180.902L98.588,185.813C98.588,186.091 98.695,186.324 98.911,186.509C99.112,186.681 99.348,186.768 99.621,186.768L103.003,186.768L103.003,192.612L90.093,192.612L90.093,186.768L93.475,186.768C93.768,186.768 94.008,186.677 94.2,186.505C94.405,186.32 94.508,186.09 94.508,185.813L94.508,180.902L98.588,180.902ZM115.589,181.038C115.584,181.033 115.58,181.029 115.575,181.024C115.418,180.863 115.323,180.659 115.303,180.408C115.284,180.16 115.342,179.951 115.459,179.775C115.46,179.774 115.46,179.773 115.461,179.772C116.122,178.789 116.975,178.32 117.996,178.329C118.817,178.329 119.582,178.694 120.269,179.466C120.27,179.467 120.27,179.467 120.27,179.468C120.603,179.844 120.917,180.066 121.255,180.061L121.263,180.061C121.46,180.061 121.639,180.016 121.8,179.922C121.988,179.813 122.166,179.627 122.346,179.378C122.505,179.146 122.712,179.03 122.949,179.001C123.211,178.969 123.44,179.045 123.633,179.238L123.719,179.328L123.69,179.295C123.843,179.456 123.936,179.657 123.956,179.905C123.974,180.14 123.923,180.348 123.812,180.53C123.808,180.537 123.803,180.545 123.798,180.552C123.137,181.534 122.284,182.004 121.263,181.995C120.442,181.995 119.677,181.63 118.99,180.857L118.989,180.856C118.653,180.477 118.336,180.252 117.996,180.252C117.572,180.252 117.217,180.508 116.892,180.961C116.891,180.963 116.89,180.965 116.888,180.967C116.73,181.182 116.529,181.293 116.299,181.322C116.088,181.349 115.895,181.304 115.725,181.178C115.7,181.161 115.677,181.142 115.655,181.121C115.648,181.115 115.641,181.108 115.633,181.101C115.627,181.095 115.62,181.088 115.613,181.081L115.633,181.101C115.638,181.105 115.643,181.109 115.647,181.113C115.625,181.09 115.606,181.065 115.589,181.038ZM124.86,181.008C124.713,180.849 124.623,180.651 124.604,180.408C124.585,180.16 124.643,179.951 124.759,179.775C124.76,179.774 124.761,179.773 124.762,179.772C125.422,178.789 126.275,178.32 127.297,178.329C128.117,178.329 128.882,178.694 129.57,179.466C129.57,179.467 129.57,179.467 129.571,179.468C129.904,179.844 130.218,180.066 130.555,180.061L130.563,180.061C130.76,180.061 130.94,180.016 131.101,179.922C131.288,179.813 131.467,179.627 131.647,179.378C131.806,179.146 132.013,179.03 132.25,179.001C132.512,178.969 132.741,179.045 132.934,179.238L133.02,179.328L132.991,179.295C133.144,179.456 133.237,179.657 133.256,179.905C133.275,180.14 133.223,180.348 133.113,180.53C133.108,180.537 133.103,180.545 133.098,180.552C132.438,181.534 131.585,182.004 130.563,181.995C129.743,181.995 128.978,181.63 128.29,180.857C128.29,180.857 128.29,180.856 128.289,180.856C127.954,180.477 127.636,180.252 127.297,180.252C126.873,180.252 126.517,180.508 126.193,180.961C126.191,180.963 126.19,180.965 126.189,180.967C126.031,181.182 125.829,181.293 125.6,181.322C125.381,181.35 125.182,181.301 125.008,181.165C124.947,181.124 124.896,181.071 124.86,181.008ZM113.118,155.639L113.118,173.88C113.118,174.572 113.68,175.134 114.372,175.134C115.064,175.134 115.625,174.572 115.625,173.88L115.625,155.639C115.625,154.947 115.064,154.386 114.372,154.386C113.68,154.386 113.118,154.947 113.118,155.639ZM145.073,155.639L145.073,173.88C145.073,174.572 145.634,175.134 146.326,175.134C147.018,175.134 147.58,174.572 147.58,173.88L147.58,155.639C147.58,154.947 147.018,154.386 146.326,154.386C145.634,154.386 145.073,154.947 145.073,155.639ZM60.895,154.389C60.864,154.387 60.833,154.386 60.801,154.386C60.109,154.386 59.547,154.947 59.547,155.639L59.547,173.88C59.547,174.572 60.109,175.134 60.801,175.134L60.989,175.134C61.681,175.134 62.243,174.572 62.243,173.88L62.243,155.639C62.243,154.947 61.681,154.386 60.989,154.386C60.957,154.386 60.926,154.387 60.895,154.389ZM84.359,155.639L84.359,173.88C84.359,174.572 84.921,175.134 85.613,175.134C86.305,175.134 86.866,174.572 86.866,173.88L86.866,155.639C86.866,154.947 86.305,154.386 85.613,154.386C84.921,154.386 84.359,154.947 84.359,155.639ZM108.043,155.639L108.043,173.88C108.043,174.572 108.605,175.134 109.297,175.134C109.989,175.134 110.55,174.572 110.55,173.88L110.55,155.639C110.55,154.947 109.989,154.386 109.297,154.386C108.605,154.386 108.043,154.947 108.043,155.639ZM124.493,171.142L124.493,163.585C124.493,162.972 123.995,162.474 123.382,162.474C122.768,162.474 122.27,162.972 122.27,163.585L122.27,171.142C122.27,171.756 122.768,172.254 123.382,172.254C123.995,172.254 124.493,171.756 124.493,171.142ZM128.778,171.142L128.778,163.585C128.778,162.972 128.28,162.474 127.667,162.474C127.054,162.474 126.556,162.972 126.556,163.585L126.556,171.142C126.556,171.756 127.054,172.254 127.667,172.254C128.28,172.254 128.778,171.756 128.778,171.142ZM124.493,160.025L124.493,159.416C124.493,158.803 123.995,158.305 123.382,158.305C122.768,158.305 122.27,158.803 122.27,159.416L122.27,160.025C122.27,160.639 122.768,161.136 123.382,161.136C123.995,161.136 124.493,160.639 124.493,160.025ZM128.778,160.025L128.778,159.416C128.778,158.803 128.28,158.305 127.667,158.305C127.054,158.305 126.556,158.803 126.556,159.416L126.556,160.025C126.556,160.639 127.054,161.136 127.667,161.136C128.28,161.136 128.778,160.639 128.778,160.025ZM130.578,158.376C130.426,158.215 130.334,158.015 130.315,157.769C130.295,157.521 130.354,157.312 130.47,157.136C130.471,157.135 130.472,157.133 130.472,157.132C131.133,156.15 131.986,155.681 133.008,155.689C133.828,155.689 134.593,156.055 135.281,156.827C135.281,156.827 135.281,156.828 135.282,156.828C135.615,157.205 135.929,157.426 136.266,157.421L136.274,157.421C136.471,157.421 136.65,157.377 136.811,157.283C136.999,157.174 137.177,156.988 137.358,156.738C137.517,156.507 137.724,156.391 137.96,156.362C138.223,156.329 138.452,156.406 138.645,156.599L138.731,156.689L138.702,156.656C138.855,156.817 138.948,157.018 138.967,157.265C138.985,157.501 138.934,157.708 138.823,157.891C138.819,157.898 138.814,157.905 138.809,157.913C138.149,158.895 137.295,159.364 136.274,159.356C135.453,159.356 134.689,158.99 134.001,158.218L134,158.217C133.665,157.837 133.347,157.613 133.008,157.613C132.583,157.613 132.228,157.869 131.904,158.322C131.902,158.324 131.901,158.325 131.9,158.327C131.741,158.543 131.54,158.654 131.311,158.683C131.074,158.713 130.861,158.653 130.676,158.49C130.668,158.483 130.661,158.477 130.654,158.47C130.651,158.467 130.648,158.464 130.645,158.461C130.638,158.455 130.631,158.449 130.625,158.442L130.645,158.461C130.646,158.463 130.647,158.464 130.648,158.465C130.621,158.438 130.597,158.408 130.578,158.376ZM64.445,156.824L82.157,156.824C82.733,156.824 83.201,156.356 83.201,155.78C83.201,155.203 82.733,154.735 82.157,154.735L64.445,154.735C63.869,154.735 63.401,155.203 63.401,155.78C63.401,156.356 63.869,156.824 64.445,156.824ZM88.599,156.824L106.31,156.824C106.887,156.824 107.355,156.356 107.355,155.78C107.355,155.203 106.887,154.735 106.31,154.735L88.599,154.735C88.023,154.735 87.554,155.203 87.554,155.78C87.554,156.356 88.023,156.824 88.599,156.824ZM73.047,133.986L73.047,152.227C73.047,152.919 73.609,153.481 74.301,153.481C74.993,153.481 75.554,152.919 75.554,152.227L75.554,133.986C75.554,133.294 74.993,132.733 74.301,132.733C73.609,132.733 73.047,133.294 73.047,133.986ZM135.11,133.083L135.11,151.324C135.11,152.016 135.672,152.578 136.364,152.578C137.056,152.578 137.618,152.016 137.618,151.324L137.618,133.083C137.618,132.391 137.056,131.83 136.364,131.83C135.672,131.83 135.11,132.391 135.11,133.083ZM82.845,134.365C79.151,139.694 78.959,145.023 82.861,150.352C83.201,150.817 83.856,150.918 84.321,150.578C84.786,150.237 84.887,149.583 84.546,149.118C81.236,144.597 81.428,140.076 84.562,135.555C84.891,135.081 84.773,134.43 84.299,134.101C83.825,133.773 83.174,133.891 82.845,134.365ZM140.225,135.555C143.359,140.076 143.551,144.597 140.241,149.118C139.9,149.583 140.001,150.237 140.466,150.578C140.931,150.918 141.586,150.817 141.926,150.352C145.828,145.023 145.636,139.694 141.942,134.365C141.613,133.891 140.962,133.773 140.488,134.101C140.014,134.43 139.896,135.081 140.225,135.555ZM93.13,135.228C92.202,140.273 90.726,143.58 87.222,147.099C86.774,147.548 86.776,148.276 87.225,148.724C87.674,149.171 88.402,149.17 88.85,148.72C92.714,144.841 94.367,141.207 95.39,135.643C95.505,135.02 95.092,134.42 94.468,134.305C93.844,134.191 93.245,134.604 93.13,135.228ZM73.047,111.344L73.047,129.585C73.047,130.277 73.609,130.838 74.301,130.838C74.993,130.838 75.554,130.277 75.554,129.585L75.554,111.344C75.554,110.652 74.993,110.09 74.301,110.09C73.609,110.09 73.047,110.652 73.047,111.344ZM89.987,111.344L89.987,129.585C89.987,130.277 90.549,130.838 91.241,130.838C91.933,130.838 92.494,130.277 92.494,129.585L92.494,111.344C92.494,110.652 91.933,110.09 91.241,110.09C90.549,110.09 89.987,110.652 89.987,111.344ZM100.814,125.866C101.325,126.604 101.366,127.342 100.826,128.08C100.554,128.452 100.634,128.975 101.007,129.248C101.379,129.52 101.902,129.439 102.175,129.067C103.188,127.683 103.147,126.298 102.187,124.914C101.924,124.535 101.403,124.44 101.024,124.703C100.645,124.966 100.551,125.487 100.814,125.866ZM104.936,125.866C105.448,126.604 105.489,127.342 104.949,128.08C104.676,128.452 104.757,128.975 105.129,129.248C105.501,129.52 106.025,129.439 106.297,129.067C107.311,127.683 107.27,126.298 106.31,124.914C106.047,124.535 105.526,124.44 105.147,124.703C104.768,124.966 104.673,125.487 104.936,125.866ZM127.569,128.958L127.653,128.958C127.921,128.952 128.149,128.859 128.338,128.68C128.54,128.49 128.64,128.257 128.64,127.985L128.64,125.052C128.64,124.783 128.543,124.55 128.343,124.352C128.146,124.158 127.908,124.06 127.627,124.06L126.987,124.06L126.987,112.587C126.987,112.315 126.887,112.083 126.685,111.892C126.489,111.708 126.253,111.614 125.974,111.614L119.03,111.614C118.747,111.614 118.512,111.71 118.324,111.897C118.132,112.087 118.036,112.317 118.036,112.587L118.036,113.192C118.036,115.046 118.023,116.452 117.998,117.409C117.972,118.365 117.936,119.242 117.891,120.039C117.848,120.804 117.758,121.397 117.615,121.817C117.472,122.238 117.318,122.604 117.15,122.914C116.987,123.217 116.738,123.599 116.405,124.06L116.152,124.06C115.871,124.06 115.632,124.158 115.436,124.352C115.236,124.55 115.138,124.783 115.138,125.052L115.138,127.985C115.138,128.257 115.239,128.49 115.441,128.68C115.636,128.864 115.873,128.958 116.152,128.958L116.236,128.958C116.504,128.952 116.732,128.859 116.921,128.68C117.124,128.49 117.224,128.257 117.224,127.985L117.224,125.952L126.555,125.952L126.555,127.985C126.555,128.257 126.655,128.49 126.858,128.68C127.053,128.864 127.29,128.958 127.569,128.958ZM97.584,111.639C93.89,116.968 93.698,122.297 97.6,127.626C97.941,128.092 98.595,128.193 99.06,127.852C99.525,127.511 99.626,126.857 99.286,126.392C95.976,121.871 96.167,117.35 99.301,112.83C99.63,112.356 99.512,111.704 99.038,111.376C98.564,111.047 97.913,111.165 97.584,111.639ZM136.865,112.83C139.999,117.35 140.191,121.871 136.881,126.392C136.541,126.857 136.642,127.511 137.107,127.852C137.572,128.193 138.226,128.092 138.567,127.626C142.469,122.297 142.277,116.968 138.583,111.639C138.254,111.165 137.603,111.047 137.129,111.376C136.655,111.704 136.537,112.356 136.865,112.83ZM118.976,124.06C119.543,123.069 119.884,122.089 120.003,121.122C120.131,120.078 120.197,117.54 120.199,113.506L124.766,113.506L124.766,124.06L118.976,124.06ZM132.209,110.076C130.785,110.076 129.622,111.245 129.622,112.694C129.622,114.142 130.785,115.311 132.209,115.311C133.634,115.311 134.797,114.142 134.797,112.694C134.797,111.245 133.634,110.076 132.209,110.076ZM109.856,110.076C108.432,110.076 107.268,111.245 107.268,112.694C107.268,114.142 108.432,115.311 109.856,115.311C111.281,115.311 112.444,114.142 112.444,112.694C112.444,111.245 111.281,110.076 109.856,110.076ZM132.209,111.742C132.722,111.742 133.131,112.172 133.131,112.694C133.131,113.215 132.722,113.645 132.209,113.645C131.697,113.645 131.288,113.215 131.288,112.694C131.288,112.172 131.697,111.742 132.209,111.742ZM109.856,111.742C110.369,111.742 110.778,112.172 110.778,112.694C110.778,113.215 110.369,113.645 109.856,113.645C109.344,113.645 108.935,113.215 108.935,112.694C108.935,112.172 109.344,111.742 109.856,111.742ZM132.741,88.813L132.741,107.054C132.741,107.746 133.302,108.307 133.994,108.307C134.686,108.307 135.248,107.746 135.248,107.054L135.248,88.813C135.248,88.121 134.686,87.559 133.994,87.559C133.302,87.559 132.741,88.121 132.741,88.813ZM89.987,88.813L89.987,107.054C89.987,107.746 90.549,108.307 91.241,108.307C91.933,108.307 92.494,107.746 92.494,107.054L92.494,88.813C92.494,88.121 91.933,87.559 91.241,87.559C90.549,87.559 89.987,88.121 89.987,88.813ZM73.047,88.701L73.047,106.942C73.047,107.634 73.609,108.196 74.301,108.196C74.993,108.196 75.554,107.634 75.554,106.942L75.554,88.701C75.554,88.009 74.993,87.448 74.301,87.448C73.609,87.448 73.047,88.009 73.047,88.701ZM108.661,92.16C108.469,92.16 108.31,92.094 108.182,91.963C108.055,91.832 107.991,91.669 107.991,91.472L107.991,88.959C107.991,88.762 108.055,88.595 108.182,88.458C108.31,88.32 108.469,88.252 108.661,88.252L115.338,88.252C115.402,88.252 115.433,88.219 115.433,88.153L115.433,87.25C115.433,87.054 115.497,86.887 115.625,86.749C115.752,86.612 115.918,86.543 116.122,86.543L116.888,86.543C117.079,86.543 117.241,86.609 117.375,86.74C117.509,86.87 117.576,87.041 117.576,87.25L117.576,88.153C117.576,88.219 117.608,88.252 117.672,88.252L124.349,88.252C124.541,88.252 124.7,88.317 124.828,88.448C124.955,88.579 125.019,88.749 125.019,88.959L125.019,91.472C125.019,91.669 124.955,91.832 124.828,91.963C124.7,92.094 124.541,92.16 124.349,92.16L123.565,92.16C123.501,92.16 123.469,92.186 123.469,92.238C123.444,92.422 123.364,92.572 123.23,92.69C123.096,92.808 122.946,92.867 122.78,92.867L119.451,92.867C119.375,92.867 119.349,92.893 119.375,92.945C119.668,94.268 120.07,95.485 120.58,96.598C120.606,96.664 120.644,96.67 120.695,96.618C121.435,95.976 122.155,95.237 122.857,94.399C122.984,94.255 123.144,94.173 123.335,94.153C123.527,94.134 123.692,94.183 123.833,94.3L124.158,94.556C124.298,94.674 124.384,94.831 124.416,95.027C124.448,95.223 124.407,95.394 124.292,95.538C123.488,96.546 122.595,97.469 121.613,98.307C121.55,98.359 121.537,98.405 121.575,98.444C122.532,99.989 123.654,101.325 124.942,102.451C125.083,102.581 125.162,102.745 125.182,102.942C125.201,103.138 125.146,103.308 125.019,103.452L124.579,104.022C124.451,104.179 124.292,104.267 124.101,104.287C123.909,104.306 123.743,104.257 123.603,104.139C122.111,102.869 120.8,101.226 119.671,99.21C118.543,97.194 117.768,95.112 117.347,92.965C117.321,92.9 117.283,92.867 117.232,92.867L116.524,92.867C116.447,92.867 116.39,92.886 116.352,92.926C116.007,93.227 115.752,93.436 115.587,93.554C115.536,93.607 115.529,93.652 115.567,93.692C116.613,94.674 117.43,95.836 118.016,97.178C118.603,98.519 118.896,99.897 118.896,101.311C118.896,102.725 118.724,103.701 118.38,104.238C118.035,104.774 117.474,105.043 116.696,105.043C116.122,105.043 115.319,105.023 114.286,104.984C114.094,104.971 113.928,104.892 113.788,104.748C113.648,104.604 113.578,104.434 113.578,104.238L113.578,103.825C113.578,103.642 113.651,103.485 113.798,103.354C113.944,103.223 114.107,103.164 114.286,103.177C115.14,103.216 115.695,103.236 115.95,103.236C116.307,103.236 116.537,103.131 116.639,102.922C116.741,102.712 116.792,102.176 116.792,101.311C116.792,100.932 116.773,100.565 116.734,100.212C116.734,100.186 116.722,100.169 116.696,100.163C116.671,100.156 116.652,100.159 116.639,100.172C114.764,101.783 112.34,103.171 109.368,104.336C109.19,104.401 109.005,104.398 108.814,104.326C108.622,104.254 108.488,104.12 108.412,103.923L108.24,103.491C108.163,103.308 108.16,103.131 108.23,102.961C108.3,102.791 108.425,102.673 108.603,102.608C111.856,101.429 114.419,100.035 116.294,98.425C116.345,98.372 116.358,98.326 116.333,98.287C116.231,97.973 116.058,97.587 115.816,97.128C115.791,97.063 115.752,97.056 115.701,97.109C114.056,98.379 111.977,99.492 109.464,100.447C109.286,100.513 109.101,100.51 108.909,100.438C108.718,100.366 108.584,100.238 108.507,100.055L108.374,99.701C108.31,99.531 108.313,99.361 108.383,99.19C108.453,99.02 108.571,98.902 108.737,98.837C111.263,97.96 113.303,96.971 114.859,95.872C114.923,95.832 114.93,95.786 114.879,95.734C114.636,95.407 114.324,95.079 113.941,94.752C113.903,94.713 113.852,94.713 113.788,94.752C112.602,95.446 111.205,96.094 109.598,96.696C109.419,96.762 109.241,96.759 109.062,96.687C108.884,96.615 108.75,96.48 108.661,96.284L108.527,95.989C108.45,95.819 108.447,95.649 108.517,95.479C108.587,95.309 108.718,95.191 108.909,95.125C110.925,94.484 112.627,93.744 114.018,92.906C114.043,92.88 114.03,92.867 113.979,92.867L110.229,92.867C110.064,92.867 109.917,92.808 109.789,92.69C109.662,92.572 109.579,92.422 109.541,92.238C109.541,92.199 109.509,92.173 109.445,92.16L108.661,92.16ZM110.134,89.96C110.07,89.96 110.038,89.993 110.038,90.058L110.038,91.04C110.038,91.093 110.07,91.119 110.134,91.119L122.876,91.119C122.94,91.119 122.972,91.093 122.972,91.04L122.972,90.058C122.972,89.993 122.94,89.96 122.876,89.96L110.134,89.96ZM132.741,66.625L132.741,84.866C132.741,85.558 133.302,86.119 133.994,86.119C134.686,86.119 135.248,85.558 135.248,84.866L135.248,66.625C135.248,65.933 134.686,65.371 133.994,65.371C133.302,65.371 132.741,65.933 132.741,66.625ZM89.987,66.625L89.987,84.866C89.987,85.558 90.549,86.119 91.241,86.119C91.933,86.119 92.494,85.558 92.494,84.866L92.494,66.625C92.494,65.933 91.933,65.371 91.241,65.371C90.549,65.371 89.987,65.933 89.987,66.625ZM73.047,66.059L73.047,84.3C73.047,84.992 73.609,85.553 74.301,85.553C74.993,85.553 75.554,84.992 75.554,84.3L75.554,66.059C75.554,65.367 74.993,64.805 74.301,64.805C73.609,64.805 73.047,65.367 73.047,66.059ZM108.374,69.791C108.182,69.791 108.02,69.722 107.886,69.585C107.752,69.448 107.685,69.281 107.685,69.084L107.685,68.652C107.685,68.456 107.752,68.289 107.886,68.151C108.02,68.014 108.182,67.945 108.374,67.945L115.338,67.945C115.402,67.945 115.433,67.912 115.433,67.847L115.433,65.824C115.433,65.628 115.497,65.461 115.625,65.323C115.752,65.186 115.918,65.117 116.122,65.117L116.888,65.117C117.079,65.117 117.241,65.186 117.375,65.323C117.509,65.461 117.576,65.628 117.576,65.824L117.576,67.847C117.576,67.912 117.608,67.945 117.672,67.945L124.636,67.945C124.828,67.945 124.99,68.011 125.124,68.142C125.258,68.272 125.325,68.443 125.325,68.652L125.325,69.084C125.325,69.281 125.258,69.448 125.124,69.585C124.99,69.722 124.828,69.791 124.636,69.791L117.672,69.791C117.608,69.791 117.576,69.824 117.576,69.889L117.576,73.424C117.576,73.49 117.608,73.523 117.672,73.523L122.876,73.523C123.067,73.523 123.23,73.591 123.364,73.729C123.498,73.866 123.565,74.033 123.565,74.23L123.565,82.556C123.565,82.753 123.498,82.92 123.364,83.057C123.23,83.195 123.067,83.263 122.876,83.263L122.149,83.263C121.958,83.263 121.792,83.195 121.652,83.057C121.511,82.92 121.441,82.753 121.441,82.556L121.441,82.164C121.441,82.098 121.416,82.065 121.365,82.065L111.645,82.065C111.581,82.065 111.55,82.098 111.55,82.164L111.55,82.556C111.55,82.753 111.483,82.92 111.349,83.057C111.215,83.195 111.052,83.263 110.861,83.263L110.134,83.263C109.942,83.263 109.78,83.195 109.646,83.057C109.512,82.92 109.445,82.753 109.445,82.556L109.445,74.23C109.445,74.033 109.512,73.866 109.646,73.729C109.78,73.591 109.942,73.523 110.134,73.523L115.338,73.523C115.402,73.523 115.433,73.49 115.433,73.424L115.433,69.889C115.433,69.824 115.402,69.791 115.338,69.791L108.374,69.791ZM121.365,75.388L111.645,75.388C111.581,75.388 111.55,75.421 111.55,75.486L111.55,80.161C111.55,80.213 111.581,80.239 111.645,80.239L121.365,80.239C121.416,80.239 121.441,80.213 121.441,80.161L121.441,75.486C121.441,75.421 121.416,75.388 121.365,75.388ZM132.741,43.416L132.741,61.657C132.741,62.349 133.302,62.911 133.994,62.911C134.686,62.911 135.248,62.349 135.248,61.657L135.248,43.416C135.248,42.724 134.686,42.163 133.994,42.163C133.302,42.163 132.741,42.724 132.741,43.416ZM73.047,43.416L73.047,61.657C73.047,62.349 73.609,62.911 74.301,62.911C74.993,62.911 75.554,62.349 75.554,61.657L75.554,43.416C75.554,42.724 74.993,42.163 74.301,42.163C73.609,42.163 73.047,42.724 73.047,43.416ZM89.987,43.416L89.987,61.657C89.987,62.349 90.549,62.911 91.241,62.911C91.933,62.911 92.494,62.349 92.494,61.657L92.494,43.416C92.494,42.724 91.933,42.163 91.241,42.163C90.549,42.163 89.987,42.724 89.987,43.416ZM107.78,48.601C107.589,48.601 107.426,48.529 107.293,48.385C107.159,48.241 107.092,48.071 107.092,47.874L107.092,47.482C107.092,47.285 107.159,47.122 107.293,46.991C107.426,46.86 107.589,46.794 107.78,46.794L108.565,46.794C108.629,46.794 108.661,46.755 108.661,46.676L108.661,44.104C108.661,43.907 108.727,43.744 108.861,43.613C108.995,43.482 109.158,43.416 109.349,43.416L109.942,43.416C110.134,43.416 110.296,43.482 110.43,43.613C110.564,43.744 110.631,43.907 110.631,44.104L110.631,46.676C110.631,46.742 110.663,46.781 110.727,46.794L111.263,46.794C111.492,46.794 111.671,46.879 111.798,47.05C111.824,47.076 111.837,47.069 111.837,47.03L111.837,44.418C111.837,44.222 111.907,44.055 112.047,43.917C112.187,43.78 112.353,43.711 112.544,43.711L113.08,43.711C113.271,43.711 113.434,43.776 113.568,43.907C113.702,44.038 113.769,44.208 113.769,44.418L113.769,45.321C113.769,45.413 113.801,45.439 113.865,45.4C114.859,45.099 115.905,44.726 117.002,44.28C117.181,44.215 117.359,44.218 117.538,44.29C117.717,44.362 117.844,44.483 117.921,44.654L118.035,44.968C118.112,45.151 118.118,45.331 118.055,45.508C117.991,45.685 117.863,45.812 117.672,45.891C116.409,46.415 115.146,46.827 113.884,47.128C113.807,47.154 113.769,47.194 113.769,47.246L113.769,48.189C113.769,48.398 113.82,48.526 113.922,48.572C114.024,48.617 114.375,48.64 114.974,48.64C115.676,48.64 116.116,48.585 116.294,48.473C116.473,48.362 116.588,48.031 116.639,47.482C116.664,47.298 116.75,47.141 116.897,47.01C117.044,46.879 117.206,46.82 117.385,46.833L117.787,46.873C117.978,46.899 118.131,46.984 118.246,47.128C118.361,47.272 118.412,47.449 118.399,47.658C118.361,48.13 118.322,48.496 118.284,48.758C118.246,49.02 118.169,49.262 118.055,49.485C117.94,49.707 117.822,49.871 117.701,49.976C117.58,50.08 117.369,50.166 117.069,50.231C116.77,50.296 116.479,50.332 116.199,50.339C115.918,50.346 115.497,50.349 114.936,50.349L114.343,50.349C114.292,50.349 114.254,50.375 114.228,50.427C114.203,50.519 114.158,50.657 114.094,50.84C114.03,51.023 113.979,51.161 113.941,51.252C113.928,51.265 113.928,51.285 113.941,51.311C113.954,51.337 113.973,51.35 113.999,51.35L116.945,51.35C117.136,51.35 117.299,51.419 117.433,51.557C117.567,51.694 117.634,51.861 117.634,52.057L117.634,52.352C117.634,52.548 117.567,52.715 117.433,52.853C117.299,52.99 117.136,53.059 116.945,53.059L115.95,53.059C115.899,53.059 115.874,53.092 115.874,53.157L115.874,54.728C115.874,54.794 115.899,54.826 115.95,54.826L117.136,54.826C117.328,54.826 117.493,54.895 117.634,55.033C117.774,55.17 117.844,55.337 117.844,55.533L117.844,55.867C117.844,56.064 117.774,56.231 117.634,56.368C117.493,56.506 117.328,56.574 117.136,56.574L115.778,56.574C115.727,56.574 115.689,56.607 115.663,56.673C115.663,56.686 115.657,56.699 115.644,56.712C115.631,56.725 115.625,56.738 115.625,56.751C115.599,56.817 115.612,56.895 115.663,56.987C116.39,57.89 116.862,58.486 117.079,58.774C117.372,59.154 117.366,59.527 117.06,59.893L116.734,60.306C116.632,60.437 116.492,60.499 116.314,60.492C116.135,60.486 115.995,60.41 115.893,60.266C115.663,59.926 115.3,59.435 114.802,58.794C114.751,58.741 114.713,58.748 114.687,58.813C114.011,59.847 113.169,60.672 112.162,61.288C111.996,61.379 111.817,61.399 111.626,61.347C111.435,61.294 111.275,61.189 111.148,61.032L110.842,60.581C110.74,60.437 110.708,60.273 110.746,60.09C110.784,59.906 110.88,59.769 111.033,59.677C112.385,58.905 113.278,57.903 113.712,56.673C113.75,56.607 113.724,56.574 113.635,56.574L111.798,56.574C111.607,56.574 111.444,56.509 111.31,56.378C111.176,56.247 111.109,56.077 111.109,55.867L111.109,55.533C111.109,55.337 111.176,55.17 111.31,55.033C111.444,54.895 111.607,54.826 111.798,54.826L113.865,54.826C113.928,54.826 113.96,54.794 113.96,54.728L113.96,53.157C113.96,53.092 113.928,53.059 113.865,53.059L113.214,53.059C113.138,53.059 113.093,53.085 113.08,53.138C112.991,53.308 112.838,53.556 112.621,53.884C112.519,54.054 112.372,54.152 112.181,54.178C111.99,54.205 111.817,54.165 111.664,54.061L111.492,53.943C111.454,53.917 111.396,53.917 111.32,53.943L111.301,53.943L110.708,54.198C110.657,54.211 110.631,54.257 110.631,54.336L110.631,58.499C110.631,59.428 110.587,60.083 110.497,60.463C110.408,60.842 110.255,61.095 110.038,61.219C109.821,61.343 109.445,61.405 108.909,61.405C108.539,61.405 108.208,61.392 107.914,61.366C107.723,61.353 107.56,61.271 107.426,61.121C107.293,60.97 107.219,60.797 107.206,60.6L107.187,60.266C107.175,60.083 107.235,59.923 107.369,59.785C107.503,59.648 107.659,59.592 107.838,59.618C108.093,59.645 108.252,59.658 108.316,59.658C108.482,59.658 108.581,59.612 108.613,59.52C108.645,59.428 108.661,59.121 108.661,58.597L108.661,55.062C108.661,54.984 108.629,54.964 108.565,55.003C108.208,55.121 107.978,55.2 107.876,55.239C107.698,55.291 107.535,55.262 107.388,55.151C107.242,55.039 107.162,54.892 107.149,54.709L107.092,54.218C107.079,54.021 107.133,53.841 107.254,53.678C107.375,53.514 107.525,53.393 107.704,53.314C108.036,53.223 108.323,53.138 108.565,53.059C108.629,53.033 108.661,52.987 108.661,52.922L108.661,48.68C108.661,48.627 108.629,48.601 108.565,48.601L107.78,48.601ZM125.172,59.461C125.351,59.461 125.507,59.53 125.641,59.667C125.775,59.805 125.842,59.972 125.842,60.168L125.822,60.541C125.81,60.738 125.74,60.905 125.612,61.042C125.484,61.18 125.325,61.248 125.134,61.248L125.019,61.248C123.59,61.248 122.452,61.104 121.604,60.816C120.756,60.528 120.064,60.05 119.528,59.383C119.502,59.37 119.477,59.383 119.451,59.422C119.311,60.011 119.164,60.496 119.011,60.875C118.947,61.059 118.826,61.196 118.648,61.288C118.469,61.379 118.291,61.392 118.112,61.327L117.691,61.189C117.525,61.137 117.404,61.023 117.328,60.846C117.251,60.669 117.245,60.489 117.308,60.306C117.959,58.512 118.348,56.195 118.476,53.354C118.488,53.17 118.568,53.013 118.715,52.882C118.861,52.751 119.024,52.692 119.203,52.705L119.585,52.725C119.777,52.738 119.939,52.813 120.073,52.951C120.207,53.088 120.268,53.262 120.255,53.471C120.191,54.754 120.083,55.88 119.93,56.849C119.93,56.928 119.936,56.987 119.949,57.026C120.191,57.602 120.516,58.067 120.925,58.42C120.976,58.447 121.007,58.44 121.02,58.401L121.02,52.097C121.02,52.044 120.982,52.018 120.905,52.018L118.667,52.018C118.476,52.018 118.313,51.946 118.179,51.802C118.045,51.658 117.978,51.488 117.978,51.291L117.978,50.84C117.978,50.643 118.042,50.48 118.169,50.349C118.297,50.218 118.463,50.152 118.667,50.152L121.25,50.152C121.301,50.152 121.314,50.126 121.288,50.074C120.88,49.576 120.223,48.804 119.317,47.757C119.19,47.626 119.132,47.462 119.145,47.266C119.158,47.069 119.241,46.912 119.394,46.794L119.7,46.519C119.84,46.388 120.009,46.329 120.207,46.343C120.405,46.356 120.567,46.434 120.695,46.578C120.848,46.761 121.224,47.2 121.824,47.894C121.837,47.907 121.852,47.914 121.872,47.914C121.891,47.914 121.907,47.907 121.919,47.894C122.442,47.239 122.927,46.552 123.374,45.832C123.386,45.793 123.367,45.773 123.316,45.773L119.203,45.773C119.011,45.773 118.849,45.704 118.715,45.567C118.581,45.429 118.514,45.262 118.514,45.066L118.514,44.712C118.514,44.516 118.581,44.349 118.715,44.212C118.849,44.074 119.011,44.005 119.203,44.005L124.923,44.005C125.115,44.005 125.277,44.074 125.411,44.212C125.545,44.349 125.612,44.516 125.612,44.712L125.612,45.066C125.612,45.524 125.491,45.963 125.248,46.382C124.611,47.429 123.916,48.431 123.163,49.387C123.112,49.439 123.112,49.491 123.163,49.544C123.214,49.609 123.287,49.694 123.383,49.799C123.479,49.904 123.546,49.995 123.584,50.074C123.622,50.126 123.673,50.152 123.737,50.152L125.019,50.152C125.21,50.152 125.373,50.218 125.507,50.349C125.641,50.48 125.708,50.643 125.708,50.84L125.708,51.291C125.708,51.776 125.631,52.241 125.478,52.686C125.376,52.974 125.248,53.288 125.095,53.629C125.019,53.799 124.885,53.917 124.694,53.982C124.502,54.047 124.317,54.041 124.139,53.962L123.89,53.864C123.724,53.786 123.613,53.655 123.555,53.471C123.498,53.288 123.507,53.111 123.584,52.941C123.66,52.771 123.775,52.496 123.928,52.116C123.967,52.051 123.947,52.018 123.871,52.018L123.01,52.018C122.959,52.018 122.933,52.044 122.933,52.097L122.933,54.63C122.933,54.682 122.959,54.709 123.01,54.709L124.636,54.709C124.828,54.709 124.99,54.781 125.124,54.925C125.258,55.069 125.325,55.239 125.325,55.435L125.325,55.769C125.325,55.966 125.258,56.132 125.124,56.27C124.99,56.407 124.828,56.476 124.636,56.476L123.01,56.476C122.959,56.476 122.933,56.509 122.933,56.574L122.933,59.186C122.933,59.265 122.965,59.311 123.029,59.324C123.692,59.415 124.356,59.461 125.019,59.461L125.172,59.461ZM110.631,48.68L110.631,52.175C110.631,52.201 110.644,52.221 110.669,52.234C110.695,52.247 110.714,52.247 110.727,52.234L111.129,52.057C111.256,52.018 111.365,52.012 111.454,52.038C111.505,52.051 111.556,52.025 111.607,51.959C111.926,51.357 112.187,50.801 112.391,50.29C112.417,50.238 112.398,50.198 112.334,50.172C112.13,50.094 111.996,49.979 111.932,49.828C111.868,49.678 111.837,49.445 111.837,49.131L111.837,48.326C111.837,48.287 111.824,48.28 111.798,48.306C111.671,48.49 111.492,48.588 111.263,48.601L110.727,48.601C110.663,48.601 110.631,48.627 110.631,48.68ZM76.187,39.23L132.745,39.23C133.321,39.23 133.789,38.762 133.789,38.185C133.789,37.609 133.321,37.141 132.745,37.141L76.187,37.141C75.61,37.141 75.142,37.609 75.142,38.185C75.142,38.762 75.61,39.23 76.187,39.23Z" style="fill-rule:nonzero;"/>
    </g>
</svg>
