<?xml version="1.0" encoding="UTF-8" standalone="no"?>
<svg xmlns:ffdec="https://www.free-decompiler.com/flash" xmlns:xlink="http://www.w3.org/1999/xlink" ffdec:objectType="shape" height="78.15px" width="52.3px" xmlns="http://www.w3.org/2000/svg">
  <g transform="matrix(1.0, 0.0, 0.0, 1.0, 27.05, 78.65)">
    <path d="M3.55 -74.85 L2.75 -74.8 Q-0.9 -74.4 -4.1 -72.65 -0.9 -74.4 2.75 -74.8 L3.55 -74.85 Q6.2 -77.15 9.8 -77.3 9.95 -74.8 8.95 -72.5 L9.0 -72.45 Q12.45 -74.3 14.25 -72.2 14.15 -70.15 13.35 -67.95 14.7 -66.7 15.55 -65.0 L17.15 -61.2 Q20.45 -62.4 21.35 -59.25 22.05 -56.6 19.55 -56.1 L20.55 -55.7 Q22.7 -54.7 23.25 -52.4 22.6 -49.45 20.2 -49.65 L21.65 -48.45 Q23.0 -46.8 22.35 -44.65 L13.95 -43.85 Q10.3 -44.3 11.6 -40.6 13.25 -39.2 14.95 -36.85 17.05 -36.05 18.7 -34.05 18.15 -33.25 16.45 -33.1 18.5 -31.6 20.2 -29.2 19.6 -28.8 17.85 -28.7 L17.85 -28.65 Q20.25 -26.6 21.35 -23.65 L18.7 -24.05 18.7 -24.0 21.05 -20.65 Q21.8 -19.35 21.85 -17.95 20.6 -18.45 19.3 -18.6 L21.15 -12.65 18.85 -13.25 17.7 -13.35 17.15 -11.9 Q20.5 -10.5 23.7 -11.35 25.0 -10.4 25.25 -9.1 L25.25 -8.3 23.65 -6.75 22.0 -6.05 21.55 -5.95 Q20.3 -5.8 19.3 -6.45 18.2 -7.25 17.95 -8.5 L15.9 -10.05 14.6 -8.75 Q14.55 -5.55 15.55 -2.8 11.6 -0.6 7.1 -0.5 1.45 -0.35 -2.7 -2.8 L-5.75 -2.4 Q-8.6 -2.05 -10.3 -3.55 -10.7 -5.75 -8.8 -5.35 -5.0 -4.7 -4.35 -7.7 -6.05 -8.15 -7.6 -8.9 L-10.95 -10.95 Q-15.2 -14.3 -14.55 -19.7 L-19.4 -20.8 Q-20.25 -21.05 -20.9 -21.75 -22.35 -23.4 -20.75 -24.35 -22.1 -24.15 -22.95 -25.1 -25.3 -27.7 -22.75 -29.2 -23.95 -30.45 -23.9 -32.0 -23.8 -34.0 -22.05 -34.8 -21.15 -35.25 -20.0 -34.8 -15.9 -32.95 -10.5 -32.55 L-8.2 -35.75 Q-10.15 -35.8 -11.95 -36.35 L-11.95 -36.3 -11.95 -36.35 -12.3 -36.45 -14.3 -37.3 Q-17.8 -39.2 -19.85 -44.15 L-19.8 -44.2 -20.6 -44.45 -20.95 -44.55 Q-22.1 -45.0 -22.45 -46.15 L-22.85 -47.35 -23.0 -47.35 -25.25 -47.65 Q-27.4 -48.35 -26.95 -50.55 -26.3 -50.8 -25.8 -50.3 -25.25 -49.65 -24.25 -49.6 -23.1 -49.5 -22.35 -50.45 L-22.7 -51.55 Q-24.05 -54.0 -22.85 -56.15 -22.65 -58.0 -22.05 -59.75 -22.1 -60.75 -23.45 -61.95 -24.35 -62.65 -24.4 -63.8 L-24.45 -64.75 Q-24.6 -66.95 -22.55 -68.3 -19.55 -70.35 -16.15 -68.5 L-14.95 -69.65 Q-13.2 -71.15 -7.7 -72.75 -6.35 -74.8 -4.65 -76.2 L-4.1 -72.65 -1.2 -76.05 0.25 -77.3 1.55 -78.25 Q3.5 -77.25 2.35 -74.75 L3.55 -74.85 Q5.85 -74.85 7.55 -73.6 L8.95 -72.5 7.55 -73.6 Q5.85 -74.85 3.55 -74.85 M-4.1 -72.65 L-6.55 -71.05 Q-8.6 -69.45 -10.15 -67.45 L-9.05 -70.1 -8.25 -71.9 -7.7 -72.75 -8.25 -71.9 -9.05 -70.1 -10.15 -67.45 Q-8.6 -69.45 -6.55 -71.05 L-4.1 -72.65 M19.65 -49.75 L20.2 -49.65 19.65 -49.75 M0.15 -61.65 Q0.1 -60.35 1.45 -60.35 3.75 -60.3 3.6 -62.5 3.4 -65.5 0.9 -65.6 -3.0 -65.85 -2.45 -62.5 L-2.05 -61.25 Q0.05 -56.95 4.7 -58.8 6.2 -59.45 6.7 -60.95 7.9 -65.15 3.35 -67.7 0.0 -68.4 -2.6 -66.6 L-3.55 -65.6 Q-5.25 -62.9 -4.45 -59.7 -3.7 -56.6 -1.5 -57.3 -3.7 -56.6 -4.45 -59.7 -5.25 -62.9 -3.55 -65.6 L-2.6 -66.6 Q0.0 -68.4 3.35 -67.7 7.9 -65.15 6.7 -60.95 6.2 -59.45 4.7 -58.8 0.05 -56.95 -2.05 -61.25 L-2.45 -62.5 Q-3.0 -65.85 0.9 -65.6 3.4 -65.5 3.6 -62.5 3.75 -60.3 1.45 -60.35 0.1 -60.35 0.15 -61.65 M9.0 -72.45 L8.95 -72.45 8.95 -72.5 8.95 -72.45 9.0 -72.45 10.55 -70.9 13.35 -67.95 10.55 -70.9 9.0 -72.45 M6.25 -45.25 L8.0 -45.1 9.0 -45.3 Q9.95 -45.75 10.55 -46.7 L10.7 -46.95 Q11.15 -47.85 10.4 -48.65 L9.15 -47.55 Q8.3 -46.95 7.25 -47.0 8.3 -46.95 9.15 -47.55 L10.4 -48.65 Q11.15 -47.85 10.7 -46.95 L10.55 -46.7 Q9.95 -45.75 9.0 -45.3 L8.0 -45.1 6.25 -45.25 M-13.75 -57.6 L-14.75 -57.7 -14.05 -60.25 -13.5 -59.9 -14.05 -60.25 -14.75 -57.7 -13.75 -57.6 -13.4 -57.55 -13.4 -57.5 -13.4 -57.55 -10.15 -56.95 -8.3 -56.45 Q-4.1 -55.2 -0.8 -52.75 L2.7 -49.65 Q3.6 -48.75 3.75 -47.5 L3.6 -45.7 Q2.7 -42.35 -1.1 -41.85 -6.1 -41.25 -11.15 -42.0 L-15.2 -42.8 Q-17.6 -43.35 -19.8 -44.2 -17.6 -43.35 -15.2 -42.8 L-11.15 -42.0 Q-6.1 -41.25 -1.1 -41.85 2.7 -42.35 3.6 -45.7 L3.75 -47.5 Q3.6 -48.75 2.7 -49.65 L-0.8 -52.75 Q-4.1 -55.2 -8.3 -56.45 L-10.15 -56.95 -13.4 -57.55 -13.4 -57.6 -13.75 -57.6 M-16.15 -68.5 L-18.15 -66.35 -18.65 -65.75 -18.85 -65.55 -20.1 -63.8 Q-20.4 -64.55 -20.9 -64.9 -20.4 -64.55 -20.1 -63.8 L-18.85 -65.55 -18.65 -65.75 Q-19.65 -66.65 -21.55 -66.45 -23.4 -66.25 -22.55 -64.6 L-21.0 -62.2 -20.1 -63.8 -21.0 -62.2 -22.55 -64.6 Q-23.4 -66.25 -21.55 -66.45 -19.65 -66.65 -18.65 -65.75 L-18.15 -66.35 -16.15 -68.5 M-22.35 -50.45 L-22.3 -50.2 Q-23.25 -49.25 -22.85 -47.45 -23.25 -49.25 -22.3 -50.2 L-22.35 -50.45 M-12.8 -62.8 L-10.75 -66.6 -10.65 -66.4 -10.15 -67.45 -10.75 -66.6 -11.25 -67.7 Q-11.8 -69.95 -12.85 -70.2 -13.85 -66.0 -13.65 -61.5 L-14.05 -60.25 -16.05 -62.2 Q-16.0 -59.85 -14.9 -57.75 L-20.5 -57.8 -21.6 -57.55 -22.15 -57.1 -22.85 -56.15 -22.15 -57.1 -21.6 -57.55 -20.5 -57.8 -14.9 -57.75 Q-16.0 -59.85 -16.05 -62.2 L-14.05 -60.25 -13.65 -61.5 Q-13.85 -66.0 -12.85 -70.2 -11.8 -69.95 -11.25 -67.7 L-10.75 -66.6 -10.15 -67.45 -10.65 -66.4 -10.75 -66.6 -12.8 -62.8 M-21.0 -62.2 L-21.3 -61.65 -22.05 -59.75 -21.3 -61.65 -21.0 -62.2 M22.0 -6.05 L20.7 -7.15 22.0 -6.05 M25.25 -9.1 Q22.9 -9.05 21.15 -9.9 22.9 -9.05 25.25 -9.1 M23.65 -6.75 L21.15 -8.3 23.65 -6.75 M17.15 -11.9 L15.9 -10.05 17.15 -11.9 M-2.7 -2.8 Q-1.3 -3.5 0.6 -4.0 2.35 -4.55 1.65 -7.15 L-4.35 -7.7 1.65 -7.15 Q2.35 -4.55 0.6 -4.0 -1.3 -3.5 -2.7 -2.8 M12.4 -20.45 Q11.9 -20.85 11.2 -20.1 10.8 -19.8 10.35 -19.75 9.5 -19.8 8.55 -20.15 8.05 -20.35 7.85 -20.8 6.95 -22.75 5.3 -22.0 L3.0 -21.55 Q0.4 -21.55 0.25 -24.6 0.4 -21.55 3.0 -21.55 L5.3 -22.0 Q6.95 -22.75 7.85 -20.8 8.05 -20.35 8.55 -20.15 9.5 -19.8 10.35 -19.75 10.8 -19.8 11.2 -20.1 11.9 -20.85 12.4 -20.45 M14.2 -26.5 L14.45 -24.6 Q14.55 -21.7 14.1 -18.9 13.55 -15.95 10.9 -14.2 8.75 -12.8 7.35 -15.2 6.95 -15.85 6.35 -15.65 3.65 -14.7 1.55 -15.65 0.9 -15.95 0.9 -16.7 0.9 -18.15 -0.3 -18.5 L-2.95 -18.6 Q-5.5 -19.15 -3.8 -22.15 L-0.85 -27.35 -3.8 -22.15 Q-5.5 -19.15 -2.95 -18.6 L-0.3 -18.5 Q0.9 -18.15 0.9 -16.7 0.9 -15.95 1.55 -15.65 3.65 -14.7 6.35 -15.65 6.95 -15.85 7.35 -15.2 8.75 -12.8 10.9 -14.2 13.55 -15.95 14.1 -18.9 14.55 -21.7 14.45 -24.6 L14.2 -26.5 M13.8 -37.2 L14.95 -36.85 15.2 -36.55 16.45 -33.1 17.85 -28.7 17.8 -28.7 17.85 -28.65 18.0 -28.15 18.7 -24.05 18.65 -24.05 18.7 -24.0 Q18.9 -20.75 18.3 -17.3 L18.1 -15.85 17.7 -13.35 18.1 -15.85 18.3 -17.3 Q18.9 -20.75 18.7 -24.0 L18.65 -24.05 18.7 -24.05 18.0 -28.15 17.85 -28.65 17.8 -28.7 17.85 -28.7 16.45 -33.1 15.2 -36.55 14.95 -36.85 13.8 -37.2 M-6.3 -35.8 L-8.2 -35.75 -6.3 -35.8 M-12.9 -27.25 Q-12.0 -30.1 -10.5 -32.55 -12.0 -30.1 -12.9 -27.25 L-9.15 -24.75 -7.8 -24.35 -5.65 -24.05 -7.8 -24.35 -9.15 -24.75 -12.9 -27.25 -13.05 -26.9 Q-13.8 -24.6 -14.2 -22.15 -11.8 -20.95 -9.6 -20.6 -11.8 -20.95 -14.2 -22.15 -13.8 -24.6 -13.05 -26.9 L-12.9 -27.25 M-15.35 -23.65 Q-15.2 -23.75 -15.45 -24.35 -15.65 -26.1 -14.65 -26.9 -15.15 -27.0 -15.45 -27.25 -17.35 -28.85 -15.55 -30.3 -17.35 -28.85 -15.45 -27.25 -15.15 -27.0 -14.65 -26.9 -15.65 -26.1 -15.45 -24.35 -15.2 -23.75 -15.35 -23.65 M-9.9 -39.15 Q-9.2 -37.55 -9.9 -36.7 L-11.0 -39.05 -11.6 -37.95 -11.95 -36.35 Q-12.35 -38.35 -13.05 -39.25 L-13.55 -38.35 Q-13.9 -37.6 -14.3 -37.3 L-14.4 -40.9 -14.3 -37.3 Q-13.9 -37.6 -13.55 -38.35 L-13.05 -39.25 Q-12.35 -38.35 -11.95 -36.35 L-11.6 -37.95 -11.0 -39.05 -9.9 -36.7 Q-9.2 -37.55 -9.9 -39.15 M-2.6 -45.2 Q-3.0 -47.4 -4.1 -49.75 L-5.0 -48.05 Q-5.45 -46.4 -6.5 -45.75 L-7.55 -50.0 Q-8.55 -49.4 -8.65 -48.2 -8.85 -46.65 -9.85 -46.2 L-9.9 -46.2 Q-9.2 -49.35 -10.5 -51.8 -12.0 -49.8 -13.3 -46.85 -14.05 -49.8 -14.45 -52.8 -16.6 -50.95 -17.8 -48.2 -18.55 -49.75 -19.1 -52.65 -19.9 -52.1 -20.35 -51.15 -20.65 -49.4 -19.35 -48.8 -16.55 -47.6 -13.3 -46.85 L-11.2 -46.4 -9.9 -46.2 -9.9 -46.15 -9.85 -46.2 -2.6 -45.2 -0.9 -45.05 Q1.3 -44.85 -0.25 -46.5 -2.0 -48.35 -4.1 -49.75 L-5.25 -50.45 Q-9.55 -53.05 -14.9 -53.5 -17.6 -53.75 -19.1 -52.65 -17.6 -53.75 -14.9 -53.5 -9.55 -53.05 -5.25 -50.45 L-4.1 -49.75 Q-2.0 -48.35 -0.25 -46.5 1.3 -44.85 -0.9 -45.05 L-2.6 -45.2 -9.85 -46.2 -9.9 -46.15 -9.9 -46.2 -11.2 -46.4 -13.3 -46.85 Q-16.55 -47.6 -19.35 -48.8 -20.65 -49.4 -20.35 -51.15 -19.9 -52.1 -19.1 -52.65 -18.55 -49.75 -17.8 -48.2 -16.6 -50.95 -14.45 -52.8 -14.05 -49.8 -13.3 -46.85 -12.0 -49.8 -10.5 -51.8 -9.2 -49.35 -9.9 -46.2 L-9.85 -46.2 Q-8.85 -46.65 -8.65 -48.2 -8.55 -49.4 -7.55 -50.0 L-6.5 -45.75 Q-5.45 -46.4 -5.0 -48.05 L-4.1 -49.75 Q-3.0 -47.4 -2.6 -45.2 M-9.0 -58.05 Q-8.7 -58.4 -8.65 -58.8 -8.55 -59.55 -9.0 -60.15 -9.6 -60.95 -10.7 -60.9 L-9.7 -59.6 -9.0 -58.05 -9.7 -59.6 -10.7 -60.9 Q-9.6 -60.95 -9.0 -60.15 -8.55 -59.55 -8.65 -58.8 -8.7 -58.4 -9.0 -58.05 M-18.3 -58.9 L-18.9 -59.35 -18.9 -59.8 Q-18.45 -60.6 -17.55 -60.75 L-18.3 -58.9 -17.55 -60.75 Q-18.45 -60.6 -18.9 -59.8 L-18.9 -59.35 -18.3 -58.9 M-14.75 -57.7 L-14.9 -57.75 -14.75 -57.7 M-22.85 -47.45 L-22.85 -47.35 -22.85 -47.45 M-8.25 -22.7 Q-10.6 -23.25 -12.8 -24.35 -10.6 -23.25 -8.25 -22.7 M-14.55 -19.7 L-14.2 -22.15 -14.55 -19.7" fill="#ffffff" fill-rule="evenodd" stroke="none"/>
    <path d="M-4.1 -72.65 Q-0.9 -74.4 2.75 -74.8 L3.55 -74.85 2.35 -74.75 Q3.5 -77.25 1.55 -78.25 L0.25 -77.3 -1.2 -76.05 -4.1 -72.65 -4.65 -76.2 Q-6.35 -74.8 -7.7 -72.75 L-8.25 -71.9 -9.05 -70.1 -10.15 -67.45 Q-8.6 -69.45 -6.55 -71.05 L-4.1 -72.65 M1.55 -78.25 L2.2 -78.65 M3.55 -74.85 Q6.2 -77.15 9.8 -77.3 9.95 -74.8 8.95 -72.5 L9.0 -72.45 Q12.45 -74.3 14.25 -72.2 14.15 -70.15 13.35 -67.95 14.7 -66.7 15.55 -65.0 L17.15 -61.2 Q20.45 -62.4 21.35 -59.25 22.05 -56.6 19.55 -56.1 L20.55 -55.7 Q22.7 -54.7 23.25 -52.4 22.6 -49.45 20.2 -49.65 L21.65 -48.45 Q23.0 -46.8 22.35 -44.65 L13.95 -43.85 Q10.3 -44.3 11.6 -40.6 13.25 -39.2 14.95 -36.85 17.05 -36.05 18.7 -34.05 18.15 -33.25 16.45 -33.1 18.5 -31.6 20.2 -29.2 19.6 -28.8 17.85 -28.7 L17.85 -28.65 Q20.25 -26.6 21.35 -23.65 L18.7 -24.05 18.7 -24.0 21.05 -20.65 Q21.8 -19.35 21.85 -17.95 20.6 -18.45 19.3 -18.6 L21.15 -12.65 18.85 -13.25 17.7 -13.35 17.15 -11.9 Q20.5 -10.5 23.7 -11.35 25.0 -10.4 25.25 -9.1 L25.25 -8.3 23.65 -6.75 22.0 -6.05 21.55 -5.95 Q20.3 -5.8 19.3 -6.45 18.2 -7.25 17.95 -8.5 L15.9 -10.05 14.6 -8.75 Q14.55 -5.55 15.55 -2.8 11.6 -0.6 7.1 -0.5 1.45 -0.35 -2.7 -2.8 L-5.75 -2.4 Q-8.6 -2.05 -10.3 -3.55 -10.7 -5.75 -8.8 -5.35 -5.0 -4.7 -4.35 -7.7 -6.05 -8.15 -7.6 -8.9 L-10.95 -10.95 Q-15.2 -14.3 -14.55 -19.7 L-19.4 -20.8 Q-20.25 -21.05 -20.9 -21.75 -22.35 -23.4 -20.75 -24.35 -22.1 -24.15 -22.95 -25.1 -25.3 -27.7 -22.75 -29.2 -23.95 -30.45 -23.9 -32.0 -23.8 -34.0 -22.05 -34.8 -21.15 -35.25 -20.0 -34.8 -15.9 -32.95 -10.5 -32.55 L-8.2 -35.75 Q-10.15 -35.8 -11.95 -36.35 L-11.95 -36.3 -11.95 -36.35 -12.3 -36.45 -14.3 -37.3 Q-17.8 -39.2 -19.85 -44.15 M-19.8 -44.2 L-20.6 -44.45 -20.95 -44.55 Q-22.1 -45.0 -22.45 -46.15 L-22.85 -47.35 M-22.35 -50.45 L-22.7 -51.55 Q-24.05 -54.0 -22.85 -56.15 -22.65 -58.0 -22.05 -59.75 -22.1 -60.75 -23.45 -61.95 -24.35 -62.65 -24.4 -63.8 L-24.45 -64.75 Q-24.6 -66.95 -22.55 -68.3 -19.55 -70.35 -16.15 -68.5 L-14.95 -69.65 Q-13.2 -71.15 -7.7 -72.75 M9.0 -72.45 L10.55 -70.9 13.35 -67.95 M8.95 -72.5 L8.95 -72.45 9.0 -72.45 M3.55 -74.85 Q5.85 -74.85 7.55 -73.6 L8.95 -72.5 M-1.5 -57.3 Q-3.7 -56.6 -4.45 -59.7 -5.25 -62.9 -3.55 -65.6 L-2.6 -66.6 Q0.0 -68.4 3.35 -67.7 7.9 -65.15 6.7 -60.95 6.2 -59.45 4.7 -58.8 0.05 -56.95 -2.05 -61.25 L-2.45 -62.5 Q-3.0 -65.85 0.9 -65.6 3.4 -65.5 3.6 -62.5 3.75 -60.3 1.45 -60.35 0.1 -60.35 0.15 -61.65 M20.2 -49.65 L19.65 -49.75 M-13.4 -57.55 L-10.15 -56.95 -8.3 -56.45 Q-4.1 -55.2 -0.8 -52.75 L2.7 -49.65 Q3.6 -48.75 3.75 -47.5 L3.6 -45.7 Q2.7 -42.35 -1.1 -41.85 -6.1 -41.25 -11.15 -42.0 L-15.2 -42.8 Q-17.6 -43.35 -19.8 -44.2 M17.7 -13.35 L18.1 -15.85 18.3 -17.3 Q18.9 -20.75 18.7 -24.0 L18.65 -24.05 18.7 -24.05 18.0 -28.15 17.85 -28.65 17.8 -28.7 17.85 -28.7 16.45 -33.1 15.2 -36.55 14.95 -36.85 13.8 -37.2 M-0.85 -27.35 L-3.8 -22.15 Q-5.5 -19.15 -2.95 -18.6 L-0.3 -18.5 Q0.9 -18.15 0.9 -16.7 0.9 -15.95 1.55 -15.65 3.65 -14.7 6.35 -15.65 6.95 -15.85 7.35 -15.2 8.75 -12.8 10.9 -14.2 13.55 -15.95 14.1 -18.9 14.55 -21.7 14.45 -24.6 L14.2 -26.5 M0.25 -24.6 Q0.4 -21.55 3.0 -21.55 L5.3 -22.0 Q6.95 -22.75 7.85 -20.8 8.05 -20.35 8.55 -20.15 9.5 -19.8 10.35 -19.75 10.8 -19.8 11.2 -20.1 11.9 -20.85 12.4 -20.45 M-4.35 -7.7 L1.65 -7.15 Q2.35 -4.55 0.6 -4.0 -1.3 -3.5 -2.7 -2.8 M15.9 -10.05 L17.15 -11.9 M21.15 -8.3 L23.65 -6.75 M21.15 -9.9 Q22.9 -9.05 25.25 -9.1 M20.7 -7.15 L22.0 -6.05 M-20.9 -64.9 Q-20.4 -64.55 -20.1 -63.8 L-18.85 -65.55 -18.65 -65.75 Q-19.65 -66.65 -21.55 -66.45 -23.4 -66.25 -22.55 -64.6 L-21.0 -62.2 -20.1 -63.8 M-22.05 -59.75 L-21.3 -61.65 -21.0 -62.2 M-22.85 -56.15 L-22.15 -57.1 -21.6 -57.55 -20.5 -57.8 -14.9 -57.75 Q-16.0 -59.85 -16.05 -62.2 L-14.05 -60.25 -13.65 -61.5 Q-13.85 -66.0 -12.85 -70.2 -11.8 -69.95 -11.25 -67.7 L-10.75 -66.6 -10.15 -67.45 -10.65 -66.4 -10.75 -66.6 -12.8 -62.8 M-22.85 -47.45 Q-23.25 -49.25 -22.3 -50.2 L-22.35 -50.45 M-18.65 -65.75 L-18.15 -66.35 -16.15 -68.5 M-13.5 -59.9 L-14.05 -60.25 -14.75 -57.7 -13.75 -57.6 -13.4 -57.55 -13.4 -57.5 -13.4 -57.55 M-14.9 -57.75 L-14.75 -57.7 M-18.3 -58.9 L-17.55 -60.75 Q-18.45 -60.6 -18.9 -59.8 L-18.9 -59.35 -18.3 -58.9 M-14.9 -53.5 Q-9.55 -53.05 -5.25 -50.45 L-4.1 -49.75 Q-2.0 -48.35 -0.25 -46.5 1.3 -44.85 -0.9 -45.05 L-2.6 -45.2 -9.85 -46.2 -9.9 -46.15 -9.9 -46.2 -11.2 -46.4 -13.3 -46.85 Q-16.55 -47.6 -19.35 -48.8 -20.65 -49.4 -20.35 -51.15 -19.9 -52.1 -19.1 -52.65 -17.6 -53.75 -14.9 -53.5 M-9.0 -58.05 L-9.7 -59.6 -10.7 -60.9 Q-9.6 -60.95 -9.0 -60.15 -8.55 -59.55 -8.65 -58.8 -8.7 -58.4 -9.0 -58.05 M-19.1 -52.65 Q-18.55 -49.75 -17.8 -48.2 -16.6 -50.95 -14.45 -52.8 -14.05 -49.8 -13.3 -46.85 -12.0 -49.8 -10.5 -51.8 -9.2 -49.35 -9.9 -46.2 L-9.85 -46.2 Q-8.85 -46.65 -8.65 -48.2 -8.55 -49.4 -7.55 -50.0 L-6.5 -45.75 Q-5.45 -46.4 -5.0 -48.05 L-4.1 -49.75 Q-3.0 -47.4 -2.6 -45.2 M-14.4 -40.9 L-14.3 -37.3 Q-13.9 -37.6 -13.55 -38.35 L-13.05 -39.25 Q-12.35 -38.35 -11.95 -36.35 L-11.6 -37.95 -11.0 -39.05 -9.9 -36.7 Q-9.2 -37.55 -9.9 -39.15 M-15.55 -30.3 Q-17.35 -28.85 -15.45 -27.25 -15.15 -27.0 -14.65 -26.9 -15.65 -26.1 -15.45 -24.35 -15.2 -23.75 -15.35 -23.65 M-5.65 -24.05 L-7.8 -24.35 -9.15 -24.75 -12.9 -27.25 -13.05 -26.9 Q-13.8 -24.6 -14.2 -22.15 -11.8 -20.95 -9.6 -20.6 M-10.5 -32.55 Q-12.0 -30.1 -12.9 -27.25 M-8.2 -35.75 L-6.3 -35.8 M-14.2 -22.15 L-14.55 -19.7 M-12.8 -24.35 Q-10.6 -23.25 -8.25 -22.7" fill="none" stroke="#000000" stroke-linecap="round" stroke-linejoin="round" stroke-width="0.05"/>
    <path d="M-22.85 -47.35 L-23.0 -47.35 -25.25 -47.65 Q-27.4 -48.35 -26.95 -50.55 -26.3 -50.8 -25.8 -50.3 -25.25 -49.65 -24.25 -49.6 -23.1 -49.5 -22.35 -50.45 M7.25 -47.0 Q8.3 -46.95 9.15 -47.55 L10.4 -48.65 Q11.15 -47.85 10.7 -46.95 L10.55 -46.7 Q9.95 -45.75 9.0 -45.3 L8.0 -45.1 6.25 -45.25 M-22.85 -47.35 L-22.85 -47.45" fill="none" stroke="#000000" stroke-linecap="round" stroke-linejoin="round" stroke-width="0.05"/>
  </g>
</svg>
