<?xml version="1.0" encoding="UTF-8" standalone="no"?>
<!DOCTYPE svg PUBLIC "-//W3C//DTD SVG 1.1//EN" "http://www.w3.org/Graphics/SVG/1.1/DTD/svg11.dtd">
<svg width="89px" height="118px" version="1.1" xmlns="http://www.w3.org/2000/svg" xmlns:xlink="http://www.w3.org/1999/xlink" xml:space="preserve" xmlns:serif="http://www.serif.com/" style="fill-rule:evenodd;clip-rule:evenodd;stroke-linejoin:round;stroke-miterlimit:2;">
    <g transform="matrix(-0.309271,2.56178e-17,-5.83556e-17,-0.363978,113.479,107.093)">
        <path d="M234.616,245.01C232.336,243.377 231.723,240.606 233.149,238.38C235.684,234.41 239.269,228.816 239.269,228.816C240.047,226.327 241.325,224.475 243.802,224.151L335.133,224.151C335.601,222.94 335.244,221.41 333.32,219.275L342.415,205.431C342.36,203.225 342.187,200.817 341.915,198.242L351.01,184.399C352.018,180.93 352.07,178.002 351.122,175.642L358.748,175.642C360.471,175.642 362.123,175.06 363.342,174.025C364.56,172.99 365.244,171.586 365.244,170.122L365.244,170.116C365.244,168.652 364.56,167.248 363.342,166.213C362.123,165.177 360.471,164.596 358.748,164.596L351.122,164.596C349.118,162.587 347.19,161.157 345.404,160.812L338.352,160.812C336.762,161.072 335.319,161.705 334.164,163.074L325.069,176.917L320.756,185.567L311.661,199.411C310.894,201.067 311.571,202.846 312.978,204.688L261.826,204.688L264.562,199.703L273.656,185.859L277.103,176.707L286.198,162.864L289.865,153.711L298.959,139.868L298.98,134.234L298.98,113.957C298.98,113.957 298.98,113.543 298.979,112.912C298.972,108.918 296.933,105.122 293.388,102.5C287.871,98.42 280.247,92.783 280.247,92.783C277.402,90.659 274.689,89.549 272.115,89.503C272.235,88.412 271.993,86.746 272.115,83.807L281.21,69.964L284.404,64.302L293.499,50.459C293.499,45.794 291.455,42.576 286.565,41.374L305.285,27.531L315.443,19.757L334.164,5.914L343.996,-2.617C348.53,-8.175 348.785,-13.732 343.996,-19.289C341.235,-22.958 337.944,-26.026 334.164,-28.541L286.565,-28.541C280.944,-25.292 277.742,-22.249 275.519,-19.289C270.73,-13.732 270.985,-8.175 275.519,-2.617C276.371,-1.392 278.338,-1.113 281.228,-1.619L298.959,-1.619L289.815,5.33L271.094,19.173L263.418,20.933L263.418,3.128L263.461,3.171C259.41,3.677 255.36,6.063 251.31,12.167C245.134,19.34 241.809,24.322 240.198,27.987L231.104,41.83C230.641,45.628 232.41,48.52 234.12,49.732L215.399,63.575L207.648,68.135L188.927,81.979C188.804,82.043 188.683,82.107 188.563,82.172C185.878,83.623 184.156,86.064 183.918,88.76C183.68,91.455 184.953,94.088 187.353,95.863C192.878,99.956 200.665,105.713 200.665,105.713C200.665,105.713 202.273,107.398 204.098,109.309C207.36,112.725 212.261,114.709 217.439,114.709L231.104,114.709L231.137,115.659L231.137,134.659L226.79,139.868L217.696,153.711L214.029,162.864L204.934,176.707L201.487,185.859L192.393,199.703C190.398,201.835 188.518,201.449 186.698,199.739L167.977,185.896C165.667,183.056 163.394,180.183 161.609,176.897L142.888,163.053C141.708,162.029 140.236,161.253 138.186,160.968L129.012,160.968C127.09,161.564 125.821,162.252 125.204,163.032L106.483,176.876C105.143,178.952 103.139,181.367 99.675,184.527C99.675,184.527 91.133,190.843 85.589,194.943C82.647,197.118 80.968,200.276 80.99,203.59C80.996,204.414 81,205 81,205L81,211.48C81,212.944 81.684,214.348 82.903,215.383C84.121,216.418 85.773,217 87.496,217L87.504,217C89.227,217 90.879,216.418 92.097,215.383C93.316,214.348 94,212.944 94,211.48L94,205C98.218,204.531 102.634,202.543 107.276,198.826L125.997,184.983C129.187,183.765 131.681,184.323 133.598,186.352L152.319,200.196C151.405,202.314 151.727,204.222 152.936,205.979L171.657,219.822C170.852,220.353 170.76,221.733 172.078,224.789L199.197,224.789C205.243,224.603 207.636,225.651 206.685,228.816L199.731,241.341C188.932,240.98 172.739,243.988 166.971,249.927C162.182,255.485 161.296,261.042 165.829,266.599L169.163,278.871L176.927,292.798L185.336,277.714C187.05,276.664 188.764,276.726 190.479,276.798L213.091,276.798C216.479,276.673 219.905,276.528 220.869,277.714L229.278,292.798L237.687,277.714L241.969,266.599C246.503,261.042 245.616,255.485 240.828,249.927C239.056,248.125 236.931,246.609 234.616,245.01Z" style="fill:white;"/>
    </g>
    <g transform="matrix(0.623919,0,0,0.623919,-24.15,-18.0007)">
        <path d="M54.28,217.978L79.636,217.978C80.095,217.978 80.468,217.605 80.468,217.146C80.468,216.686 80.095,216.313 79.636,216.313L54.28,216.313C53.821,216.313 53.448,216.686 53.448,217.146C53.448,217.605 53.821,217.978 54.28,217.978ZM83.331,202.498C85.354,205.417 85.481,208.337 83.343,211.256C83.071,211.628 83.152,212.15 83.523,212.421C83.894,212.693 84.417,212.613 84.688,212.241C87.298,208.677 87.172,205.112 84.701,201.548C84.439,201.17 83.919,201.076 83.541,201.338C83.163,201.6 83.068,202.12 83.331,202.498ZM49.388,201.548C46.917,205.112 46.791,208.677 49.4,212.241C49.672,212.613 50.194,212.693 50.565,212.421C50.937,212.15 51.017,211.628 50.745,211.256C48.608,208.337 48.734,205.417 50.758,202.498C51.02,202.12 50.926,201.6 50.548,201.338C50.17,201.076 49.65,201.17 49.388,201.548ZM67.271,202.274L81.186,202.274C81.647,202.274 82.021,201.9 82.021,201.44C82.021,200.979 81.647,200.605 81.186,200.605L67.271,200.605C66.81,200.605 66.436,200.979 66.436,201.44C66.436,201.9 66.81,202.274 67.271,202.274ZM89.963,199.48L90.014,199.506L90.057,199.505C90.164,199.5 90.266,199.474 90.358,199.432C92.475,199.039 94.639,197.551 96.742,193.807C96.967,193.405 96.824,192.896 96.423,192.67C96.021,192.444 95.511,192.587 95.286,192.989C93.794,195.645 92.334,197.015 90.849,197.569L90.849,188.284C90.849,187.823 90.475,187.449 90.014,187.449C89.553,187.449 89.179,187.823 89.179,188.284L89.179,198.464C89.161,198.542 89.155,198.623 89.161,198.707C89.174,198.882 89.24,199.041 89.342,199.169C89.49,199.352 89.713,199.471 89.963,199.48ZM85.662,188.681L76.383,196.757C76.035,197.059 75.999,197.587 76.301,197.934C76.603,198.281 77.13,198.318 77.477,198.015L86.757,189.94C87.105,189.637 87.141,189.11 86.839,188.763C86.537,188.416 86.01,188.379 85.662,188.681ZM63.679,188.34L54.399,196.416C54.052,196.718 54.015,197.246 54.317,197.593C54.62,197.94 55.147,197.977 55.494,197.674L64.774,189.599C65.121,189.296 65.158,188.769 64.855,188.422C64.553,188.075 64.026,188.038 63.679,188.34ZM90.661,184.736L90.661,173.651C90.661,173.191 90.287,172.817 89.827,172.817C89.367,172.817 88.993,173.191 88.993,173.651L88.993,184.736C88.993,185.196 89.367,185.569 89.827,185.569C90.287,185.569 90.661,185.196 90.661,184.736ZM77.994,175.73L68.714,183.806C68.367,184.108 68.33,184.635 68.632,184.982C68.934,185.329 69.462,185.366 69.809,185.064L79.089,176.988C79.436,176.686 79.472,176.159 79.17,175.811C78.868,175.464 78.341,175.428 77.994,175.73ZM105.305,175.687L100.797,183.763C100.573,184.164 100.717,184.672 101.118,184.896C101.519,185.12 102.027,184.976 102.251,184.575L106.759,176.499C106.983,176.098 106.84,175.59 106.438,175.366C106.037,175.142 105.529,175.286 105.305,175.687ZM113.269,162.778L103.989,170.854C103.642,171.156 103.606,171.683 103.908,172.031C104.21,172.378 104.737,172.414 105.084,172.112L114.364,164.036C114.711,163.734 114.748,163.207 114.446,162.86C114.144,162.513 113.616,162.476 113.269,162.778ZM78.884,162.577L74.376,170.653C74.152,171.054 74.296,171.562 74.698,171.786C75.099,172.01 75.607,171.866 75.831,171.465L80.339,163.389C80.563,162.988 80.419,162.48 80.018,162.256C79.616,162.032 79.108,162.176 78.884,162.577ZM92.138,162.267L82.858,170.343C82.511,170.645 82.475,171.172 82.777,171.519C83.079,171.867 83.606,171.903 83.953,171.601L93.233,163.525C93.58,163.223 93.617,162.696 93.315,162.349C93.013,162.001 92.485,161.965 92.138,162.267ZM126.391,152.042L117.111,160.118C116.764,160.42 116.728,160.947 117.03,161.295C117.332,161.642 117.859,161.678 118.206,161.376L127.486,153.3C127.833,152.998 127.87,152.471 127.568,152.124C127.266,151.777 126.738,151.74 126.391,152.042ZM84.976,151.199L80.468,159.274C80.244,159.676 80.388,160.183 80.789,160.408C81.19,160.632 81.698,160.488 81.922,160.086L86.431,152.01C86.655,151.609 86.511,151.101 86.109,150.877C85.708,150.653 85.2,150.797 84.976,151.199ZM105.941,150.849L96.661,158.925C96.314,159.227 96.278,159.754 96.58,160.102C96.882,160.449 97.409,160.485 97.756,160.183L107.036,152.107C107.383,151.805 107.42,151.278 107.118,150.931C106.816,150.584 106.288,150.547 105.941,150.849ZM84.993,149.115L110.348,149.115C110.808,149.115 111.181,148.742 111.181,148.282C111.181,147.822 110.808,147.449 110.348,147.449L84.993,147.449C84.534,147.449 84.16,147.822 84.16,148.282C84.16,148.742 84.534,149.115 84.993,149.115ZM120.573,139.454L129.853,147.53C130.2,147.832 130.727,147.796 131.03,147.448C131.332,147.101 131.295,146.574 130.948,146.272L121.668,138.196C121.321,137.894 120.794,137.93 120.492,138.278C120.189,138.625 120.226,139.152 120.573,139.454ZM71.845,138.922L81.125,146.997C81.472,147.3 81.999,147.263 82.301,146.916C82.604,146.569 82.567,146.041 82.22,145.739L72.94,137.663C72.593,137.361 72.066,137.398 71.763,137.745C71.461,138.092 71.498,138.619 71.845,138.922ZM73.22,134.016L73.22,122.187C73.22,121.727 72.846,121.354 72.387,121.354C71.927,121.354 71.554,121.727 71.554,122.187L71.554,134.016C71.554,134.476 71.927,134.849 72.387,134.849C72.846,134.849 73.22,134.476 73.22,134.016ZM105.182,132.745L91.508,132.745C91.048,132.745 90.675,133.118 90.675,133.577C90.675,134.037 91.048,134.41 91.508,134.41L116.863,134.41C117.323,134.41 117.696,134.037 117.696,133.577C117.696,133.118 117.323,132.745 116.863,132.745L106.849,132.745L106.849,121.939C106.849,121.479 106.476,121.105 106.016,121.105C105.555,121.105 105.182,121.479 105.182,121.939L105.182,132.745ZM111.951,110.418L107.443,118.494C107.219,118.895 107.363,119.403 107.764,119.627C108.166,119.851 108.673,119.707 108.897,119.306L113.406,111.23C113.63,110.829 113.486,110.321 113.084,110.097C112.683,109.873 112.175,110.017 111.951,110.418ZM76.178,110.418L71.669,118.494C71.445,118.895 71.589,119.403 71.991,119.627C72.392,119.851 72.9,119.707 73.124,119.306L77.632,111.23C77.856,110.829 77.712,110.321 77.311,110.097C76.909,109.873 76.402,110.017 76.178,110.418ZM49.375,107.517L52.87,107.517C53.331,107.517 53.705,107.143 53.705,106.682C53.705,106.222 53.331,105.848 52.87,105.848L49.375,105.848C48.914,105.848 48.54,106.222 48.54,106.682C48.54,107.143 48.914,107.517 49.375,107.517ZM152.091,107.424L156.639,107.424C157.098,107.424 157.472,107.051 157.472,106.591C157.472,106.131 157.098,105.758 156.639,105.758L152.091,105.758C151.631,105.758 151.258,106.131 151.258,106.591C151.258,107.051 151.631,107.424 152.091,107.424ZM82.503,97.003L77.995,105.079C77.771,105.48 77.915,105.988 78.317,106.212C78.718,106.436 79.226,106.292 79.45,105.891L83.958,97.815C84.182,97.414 84.038,96.906 83.637,96.682C83.235,96.458 82.727,96.602 82.503,97.003ZM118.277,97.003L113.769,105.079C113.545,105.48 113.689,105.988 114.09,106.212C114.491,106.436 114.999,106.292 115.223,105.891L119.731,97.815C119.955,97.414 119.812,96.906 119.41,96.682C119.009,96.458 118.501,96.602 118.277,97.003ZM167.258,96.682L157.978,104.757C157.631,105.06 157.595,105.587 157.897,105.934C158.199,106.281 158.726,106.318 159.073,106.016L168.353,97.94C168.7,97.638 168.737,97.11 168.435,96.763C168.133,96.416 167.605,96.379 167.258,96.682ZM139.932,97.928L149.212,106.003C149.559,106.306 150.086,106.269 150.389,105.922C150.691,105.575 150.654,105.047 150.307,104.745L141.027,96.669C140.68,96.367 140.153,96.404 139.851,96.751C139.548,97.098 139.585,97.625 139.932,97.928ZM58.727,96.88L54.219,104.956C53.995,105.358 54.139,105.865 54.54,106.089C54.942,106.314 55.449,106.17 55.674,105.768L60.182,97.692C60.406,97.291 60.262,96.783 59.86,96.559C59.459,96.335 58.951,96.479 58.727,96.88ZM46.541,97.197L42.761,97.197C41.686,97.197 40.654,97.624 39.894,98.385C39.134,99.145 38.707,100.176 38.707,101.251L38.707,101.255C38.707,102.33 39.134,103.361 39.894,104.121C40.654,104.881 41.686,105.308 42.761,105.308L46.541,105.308C47.001,105.308 47.375,104.935 47.375,104.475C47.375,104.015 47.001,103.641 46.541,103.641L42.761,103.641C42.128,103.641 41.521,103.39 41.074,102.942L41.073,102.942C40.626,102.494 40.374,101.888 40.374,101.255L40.374,101.251C40.374,100.618 40.626,100.011 41.073,99.563L41.074,99.563C41.521,99.115 42.128,98.864 42.761,98.864L46.541,98.864C47.001,98.864 47.375,98.491 47.375,98.031C47.375,97.571 47.001,97.197 46.541,97.197ZM50.377,84.44L45.869,92.516C45.645,92.917 45.789,93.425 46.19,93.649C46.591,93.873 47.099,93.729 47.323,93.328L51.831,85.252C52.055,84.851 51.911,84.343 51.51,84.119C51.109,83.895 50.601,84.039 50.377,84.44ZM179.912,84.142L170.632,92.218C170.285,92.52 170.249,93.048 170.551,93.395C170.853,93.742 171.38,93.779 171.727,93.476L181.007,85.401C181.354,85.098 181.391,84.571 181.089,84.224C180.787,83.877 180.259,83.84 179.912,84.142ZM166.865,83.876L157.585,91.952C157.238,92.254 157.202,92.781 157.504,93.129C157.806,93.476 158.333,93.512 158.68,93.21L167.96,85.134C168.307,84.832 168.344,84.305 168.042,83.958C167.74,83.611 167.212,83.574 166.865,83.876ZM65.373,83.758L60.865,91.834C60.641,92.236 60.785,92.743 61.186,92.967C61.588,93.192 62.096,93.048 62.32,92.646L66.828,84.57C67.052,84.169 66.908,83.661 66.507,83.437C66.105,83.213 65.597,83.357 65.373,83.758ZM124.494,83.588L119.985,91.664C119.761,92.065 119.905,92.573 120.307,92.797C120.708,93.021 121.216,92.877 121.44,92.476L125.948,84.4C126.172,83.999 126.028,83.491 125.627,83.267C125.225,83.043 124.718,83.187 124.494,83.588ZM88.72,83.588L84.212,91.664C83.988,92.065 84.132,92.573 84.533,92.797C84.935,93.021 85.442,92.877 85.667,92.476L90.175,84.4C90.399,83.999 90.255,83.491 89.853,83.267C89.452,83.043 88.944,83.187 88.72,83.588ZM127.496,84.602L136.776,92.678C137.123,92.98 137.65,92.943 137.953,92.596C138.255,92.249 138.218,91.722 137.871,91.419L128.591,83.344C128.244,83.042 127.717,83.078 127.415,83.425C127.112,83.772 127.149,84.3 127.496,84.602ZM144.537,84.336L153.817,92.411C154.164,92.714 154.691,92.677 154.994,92.33C155.296,91.983 155.259,91.455 154.912,91.153L145.632,83.077C145.285,82.775 144.758,82.812 144.456,83.159C144.153,83.506 144.19,84.033 144.537,84.336ZM65.449,81.919L90.804,81.919C91.263,81.919 91.636,81.546 91.636,81.086C91.636,80.626 91.263,80.253 90.804,80.253L65.449,80.253C64.989,80.253 64.616,80.626 64.616,81.086C64.616,81.546 64.989,81.919 65.449,81.919ZM181.27,80.904L181.27,77.124C181.27,76.049 180.844,75.018 180.083,74.258C179.323,73.498 178.292,73.07 177.217,73.07L177.213,73.07C176.138,73.07 175.107,73.498 174.347,74.258C173.586,75.018 173.159,76.049 173.159,77.124L173.159,80.904C173.159,81.365 173.533,81.738 173.993,81.738C174.453,81.738 174.826,81.365 174.826,80.904L174.826,77.124C174.826,76.491 175.078,75.884 175.525,75.437L175.526,75.437C175.973,74.989 176.58,74.738 177.213,74.738L177.217,74.738C177.85,74.738 178.457,74.989 178.904,75.437C179.352,75.884 179.603,76.491 179.603,77.124L179.603,80.904C179.603,81.365 179.977,81.738 180.437,81.738C180.897,81.738 181.27,81.365 181.27,80.904ZM54.637,72.17L50.129,80.246C49.905,80.648 50.049,81.155 50.45,81.379C50.852,81.604 51.359,81.46 51.584,81.058L56.092,72.982C56.316,72.581 56.172,72.073 55.77,71.849C55.369,71.625 54.861,71.769 54.637,72.17ZM134.952,72.886L144.232,80.962C144.579,81.264 145.106,81.227 145.409,80.88C145.711,80.533 145.674,80.006 145.327,79.703L136.047,71.628C135.7,71.326 135.173,71.362 134.871,71.709C134.568,72.056 134.605,72.584 134.952,72.886ZM54.466,70.563L99.738,70.563C100.197,70.563 100.57,70.191 100.57,69.732C100.57,69.273 100.197,68.9 99.738,68.9L54.466,68.9C54.007,68.9 53.635,69.273 53.635,69.732C53.635,70.191 54.007,70.563 54.466,70.563ZM121.848,70.192L135.291,70.192C135.75,70.192 136.123,69.819 136.123,69.359C136.123,68.9 135.75,68.527 135.291,68.527L121.848,68.527C121.389,68.527 121.016,68.9 121.016,69.359C121.016,69.819 121.389,70.192 121.848,70.192ZM120.648,59.736L116.904,66.612C116.684,67.016 116.833,67.522 117.237,67.742C117.641,67.962 118.148,67.813 118.368,67.409L122.112,60.533C122.332,60.129 122.183,59.622 121.779,59.402C121.375,59.182 120.868,59.332 120.648,59.736ZM104.997,59.736L101.253,66.612C101.033,67.016 101.182,67.522 101.586,67.742C101.99,67.962 102.497,67.813 102.717,67.409L106.461,60.533C106.682,60.129 106.532,59.622 106.128,59.402C105.724,59.182 105.217,59.332 104.997,59.736ZM120.083,44.748L120.083,45.159C120.083,46.415 120.075,47.368 120.059,48.017C120.043,48.665 120.022,49.259 119.994,49.8C119.968,50.31 119.915,50.706 119.83,50.987C119.744,51.267 119.652,51.511 119.552,51.718C119.459,51.909 119.322,52.146 119.139,52.431L119.058,52.431C118.849,52.431 118.671,52.509 118.524,52.67C118.387,52.821 118.319,52.999 118.319,53.204L118.319,55.194C118.319,55.403 118.39,55.581 118.529,55.727C118.666,55.87 118.829,55.946 119.02,55.954L119.132,55.954C119.323,55.946 119.487,55.87 119.623,55.727C119.762,55.581 119.834,55.403 119.834,55.194L119.834,53.916L125.269,53.916L125.269,55.194C125.269,55.403 125.34,55.581 125.48,55.727C125.616,55.87 125.779,55.946 125.97,55.954L126.083,55.954C126.273,55.946 126.437,55.87 126.573,55.727C126.713,55.581 126.784,55.403 126.784,55.194L126.784,53.204C126.784,52.999 126.715,52.821 126.578,52.67C126.432,52.509 126.253,52.431 126.044,52.431L125.778,52.431L125.778,44.748C125.778,44.539 125.706,44.361 125.567,44.215C125.422,44.062 125.245,43.987 125.038,43.987L120.811,43.987C120.599,43.987 120.423,44.065 120.282,44.22C120.151,44.365 120.083,44.541 120.083,44.748ZM137.138,45.443C139.161,48.363 139.288,51.282 137.15,54.202C136.878,54.573 136.959,55.095 137.33,55.367C137.701,55.639 138.224,55.558 138.495,55.187C141.105,51.623 140.979,48.058 138.508,44.494C138.246,44.115 137.726,44.021 137.348,44.283C136.97,44.545 136.875,45.065 137.138,45.443ZM100.527,44.494C98.057,48.058 97.93,51.623 100.54,55.187C100.812,55.558 101.334,55.639 101.705,55.367C102.076,55.095 102.157,54.573 101.885,54.202C99.747,51.282 99.874,48.363 101.898,45.443C102.16,45.065 102.065,44.545 101.687,44.283C101.309,44.021 100.789,44.115 100.527,44.494ZM105.235,52.92C105.368,53.078 105.457,53.227 105.459,53.384C105.461,53.534 105.379,53.674 105.245,53.824C105.041,54.052 105.061,54.404 105.289,54.608C105.518,54.812 105.869,54.792 106.074,54.564C106.426,54.169 106.574,53.766 106.57,53.371C106.565,52.984 106.411,52.59 106.083,52.203C105.886,51.969 105.535,51.939 105.301,52.137C105.067,52.335 105.037,52.686 105.235,52.92ZM119.248,52.434L119.248,52.431L119.228,52.431L119.248,52.434ZM120.96,52.431C121.269,51.795 121.457,51.167 121.525,50.546C121.602,49.846 121.643,48.155 121.645,45.472L124.179,45.472L124.179,52.431L120.96,52.431ZM105.845,47.946C105.376,47.946 104.995,48.327 104.995,48.796C104.995,49.266 105.376,49.647 105.845,49.647C106.314,49.647 106.695,49.266 106.695,48.796C106.695,48.327 106.314,47.946 105.845,47.946ZM114.177,43.586L112.338,45.459C112.016,45.787 112.021,46.314 112.348,46.636C112.676,46.958 113.204,46.953 113.526,46.626L115.365,44.752C115.687,44.425 115.682,43.897 115.354,43.575C115.026,43.253 114.499,43.258 114.177,43.586ZM129.589,44.687L131.428,46.56C131.75,46.888 132.277,46.893 132.605,46.571C132.933,46.249 132.938,45.722 132.616,45.394L130.777,43.521C130.455,43.193 129.927,43.188 129.6,43.51C129.272,43.832 129.267,44.359 129.589,44.687ZM114.961,39.852L126.17,39.852C126.63,39.852 127.003,39.479 127.003,39.019C127.003,38.559 126.63,38.185 126.17,38.185L114.961,38.185C114.501,38.185 114.127,38.559 114.127,39.019C114.127,39.479 114.501,39.852 114.961,39.852ZM103.523,38.842L106.937,31.632L110.352,38.842C110.549,39.257 111.047,39.435 111.463,39.238C111.878,39.041 112.056,38.544 111.859,38.128L107.691,29.328C107.553,29.037 107.26,28.851 106.937,28.851C106.615,28.851 106.322,29.037 106.184,29.328L102.016,38.128C101.819,38.544 101.996,39.041 102.412,39.238C102.828,39.435 103.326,39.257 103.523,38.842ZM129.473,38.842L132.887,31.632L136.302,38.842C136.499,39.257 136.997,39.435 137.413,39.238C137.828,39.041 138.006,38.544 137.809,38.128L133.641,29.328C133.503,29.037 133.21,28.851 132.887,28.851C132.565,28.851 132.272,29.037 132.134,29.328L127.966,38.128C127.769,38.544 127.946,39.041 128.362,39.238C128.778,39.435 129.276,39.257 129.473,38.842Z" style="fill-rule:nonzero;"/>
    </g>
</svg>
