<?xml version="1.0" encoding="UTF-8" standalone="no"?>
<svg xmlns:xlink="http://www.w3.org/1999/xlink" height="44.9px" width="40.05px" xmlns="http://www.w3.org/2000/svg">
  <g transform="matrix(1.0, 0.0, 0.0, 1.0, 20.0, 22.45)">
    <path d="M-11.3 -12.75 L-12.75 -13.15 -11.3 -12.7 Q-11.55 -11.65 -9.8 -10.7 L-9.0 -10.3 -8.3 -10.3 -8.1 -10.35 Q-7.25 -10.45 -6.7 -10.85 L-6.55 -10.75 Q-2.4 -8.9 -4.1 -5.4 -4.45 -4.75 -5.25 -5.0 -8.8 -6.15 -8.5 -9.15 -10.2 -5.15 -13.55 -6.25 -13.4 -9.05 -11.7 -10.1 -15.8 -8.05 -16.7 -11.75 -14.7 -13.4 -12.75 -13.15 -15.45 -14.5 -15.0 -17.95 -14.8 -20.0 -13.15 -19.05 -11.3 -17.95 -10.65 -16.15 -10.3 -15.2 -10.3 -14.0 L-11.3 -12.75 M-6.3 -11.15 Q-5.75 -11.95 -6.0 -13.4 L-6.05 -13.45 Q-2.75 -15.75 0.65 -13.45 2.15 -12.4 0.45 -11.2 -3.15 -8.7 -6.3 -11.15 M-10.45 -16.2 Q-11.35 -18.55 -9.5 -21.3 -8.8 -22.4 -7.6 -21.7 -6.4 -21.1 -6.5 -19.6 -6.75 -15.8 -9.55 -14.65 L-10.45 -16.2 M-7.35 -15.3 Q-6.1 -19.05 -2.2 -19.55 0.6 -19.9 -0.7 -17.2 L-1.9 -15.9 Q-4.1 -14.45 -7.05 -15.15 L-7.35 -15.3 M-11.7 -10.1 L-11.2 -10.35 -9.8 -10.7 -11.2 -10.35 -11.7 -10.1 M-8.5 -9.15 L-8.5 -9.55 -8.3 -10.3 -8.5 -9.55 -8.5 -9.15" fill="#ffffff" fill-rule="evenodd" stroke="none"/>
    <path d="M-11.3 -12.7 L-11.3 -12.75 -10.3 -14.0 -9.5 -14.55 -9.45 -14.55 -9.1 -14.75 Q-7.85 -15.45 -7.05 -15.15 -6.3 -14.8 -6.05 -13.45 L-6.0 -13.4 Q-5.75 -11.95 -6.3 -11.15 L-6.7 -10.85 Q-7.25 -10.45 -8.1 -10.35 L-8.3 -10.3 -9.0 -10.3 -9.8 -10.7 Q-11.55 -11.65 -11.3 -12.7" fill="#ffcc00" fill-rule="evenodd" stroke="none"/>
    <path d="M-11.3 -12.7 L-11.3 -12.75 -12.75 -13.15 -11.3 -12.7 Q-11.55 -11.65 -9.8 -10.7 L-9.0 -10.3 -8.3 -10.3 -8.1 -10.35 Q-7.25 -10.45 -6.7 -10.85 L-6.3 -11.15 Q-5.75 -11.95 -6.0 -13.4 L-6.05 -13.45 Q-6.3 -14.8 -7.05 -15.15 -7.85 -15.45 -9.1 -14.75 L-9.45 -14.55 -9.5 -14.55 -10.3 -14.0 -11.3 -12.75 M-10.45 -16.2 Q-11.35 -18.55 -9.5 -21.3 -8.8 -22.4 -7.6 -21.7 -6.4 -21.1 -6.5 -19.6 -6.75 -15.8 -9.55 -14.65 L-10.45 -16.2 M-6.7 -10.85 L-6.55 -10.75 Q-2.4 -8.9 -4.1 -5.4 -4.45 -4.75 -5.25 -5.0 -8.8 -6.15 -8.5 -9.15 -10.2 -5.15 -13.55 -6.25 -13.4 -9.05 -11.7 -10.1 -15.8 -8.05 -16.7 -11.75 -14.7 -13.4 -12.75 -13.15 -15.45 -14.5 -15.0 -17.95 -14.8 -20.0 -13.15 -19.05 -11.3 -17.95 -10.65 -16.15 -10.3 -15.2 -10.3 -14.0 M-7.05 -15.15 L-7.4 -15.25 -7.35 -15.3 Q-6.1 -19.05 -2.2 -19.55 0.6 -19.9 -0.7 -17.2 L-1.9 -15.9 Q-4.1 -14.45 -7.05 -15.15 M-6.05 -13.45 Q-2.75 -15.75 0.65 -13.45 2.15 -12.4 0.45 -11.2 -3.15 -8.7 -6.3 -11.15 M-8.3 -10.3 L-8.5 -9.55 -8.5 -9.15 M-9.8 -10.7 L-11.2 -10.35 -11.7 -10.1" fill="none" stroke="#8f7c3f" stroke-linecap="round" stroke-linejoin="round" stroke-width="1.0"/>
    <path d="M-18.85 1.2 L-11.05 -0.05 -1.85 -0.65 11.15 -1.1 Q13.85 -1.25 13.8 0.35 L12.35 4.95 10.55 5.1 Q10.5 5.6 11.35 7.9 11.15 9.2 10.6 10.0 9.7 14.45 7.85 19.95 L-0.35 20.35 Q-5.9 20.3 -11.1 21.95 L-12.35 17.25 Q-13.55 11.65 -15.1 7.85 L-16.35 7.9 Q-16.35 7.3 -16.75 6.8 L-19.3 1.45 -18.85 1.2 M-15.1 7.85 L-7.05 7.3 3.5 5.9 10.55 5.1 3.5 5.9 -7.05 7.3 -15.1 7.85" fill="#e2d5c0" fill-rule="evenodd" stroke="none"/>
    <path d="M-18.85 1.2 L-11.05 -0.05 -1.85 -0.65 11.15 -1.1 Q13.85 -1.25 13.8 0.35 L12.35 4.95 11.45 7.15 10.55 5.1 Q10.5 5.6 11.35 7.9 11.15 9.2 10.6 10.0 9.7 14.45 7.85 19.95 L-0.35 20.35 Q-5.9 20.3 -11.1 21.95 L-12.35 17.25 Q-13.55 11.65 -15.1 7.85 L-16.35 7.9 Q-16.35 7.3 -16.75 6.8 L-19.3 1.45 M10.55 5.1 L3.5 5.9 -7.05 7.3 -15.1 7.85 M10.55 5.1 L12.35 4.95" fill="none" stroke="#8f7c3f" stroke-linecap="round" stroke-linejoin="round" stroke-width="1.0"/>
    <path d="M6.7 -13.6 Q7.55 -13.15 7.5 -12.1 7.35 -9.45 5.35 -8.6 L4.75 -9.7 Q4.1 -11.35 5.35 -13.3 5.85 -14.05 6.7 -13.6 M6.9 -9.1 Q7.75 -11.7 10.5 -12.05 12.5 -12.3 11.6 -10.4 L10.75 -9.5 Q9.2 -8.45 7.15 -8.95 L6.9 -9.1 M7.65 -6.15 Q8.0 -6.7 7.85 -7.7 L7.85 -7.8 Q10.15 -9.4 12.5 -7.8 13.6 -7.05 12.4 -6.2 9.85 -4.45 7.65 -6.15 M4.85 -8.15 Q4.25 -7.7 4.15 -7.3 L3.1 -7.55 Q3.55 -7.35 4.1 -7.25 3.9 -6.5 5.15 -5.85 L5.75 -5.55 6.25 -5.55 6.35 -5.6 Q7.0 -5.65 7.35 -5.95 L7.5 -5.85 Q10.4 -4.6 9.2 -2.1 8.95 -1.65 8.4 -1.85 5.9 -2.65 6.1 -4.75 4.9 -1.9 2.55 -2.7 2.65 -4.7 3.85 -5.4 0.95 -4.0 0.35 -6.6 1.75 -7.7 3.1 -7.55 1.2 -8.5 1.5 -10.95 1.7 -12.35 2.85 -11.7 4.1 -10.95 4.6 -9.65 L4.85 -8.15 M6.1 -4.75 L6.1 -5.0 6.25 -5.55 6.1 -5.0 6.1 -4.75 M3.85 -5.4 L4.2 -5.6 5.15 -5.85 4.2 -5.6 3.85 -5.4" fill="#ffffff" fill-rule="evenodd" stroke="none"/>
    <path d="M7.85 -7.8 L7.85 -7.7 Q8.0 -6.7 7.65 -6.15 L7.35 -5.95 Q7.0 -5.65 6.35 -5.6 L6.25 -5.55 5.75 -5.55 5.15 -5.85 Q3.9 -6.5 4.1 -7.25 L4.15 -7.3 Q4.25 -7.7 4.85 -8.15 L5.4 -8.55 5.7 -8.7 7.1 -8.95 Q7.65 -8.7 7.85 -7.8" fill="#ffcc00" fill-rule="evenodd" stroke="none"/>
    <path d="M6.7 -13.6 Q7.55 -13.15 7.5 -12.1 7.35 -9.45 5.35 -8.6 L4.75 -9.7 Q4.1 -11.35 5.35 -13.3 5.85 -14.05 6.7 -13.6 M7.15 -8.95 L7.1 -8.95 6.9 -9.05 6.9 -9.1 Q7.75 -11.7 10.5 -12.05 12.5 -12.3 11.6 -10.4 L10.75 -9.5 Q9.2 -8.45 7.15 -8.95 M7.85 -7.8 L7.85 -7.7 Q8.0 -6.7 7.65 -6.15 9.85 -4.45 12.4 -6.2 13.6 -7.05 12.5 -7.8 10.15 -9.4 7.85 -7.8 7.65 -8.7 7.1 -8.95 L5.7 -8.7 5.4 -8.55 4.85 -8.15 Q4.25 -7.7 4.15 -7.3 L4.1 -7.25 Q3.9 -6.5 5.15 -5.85 L5.75 -5.55 6.25 -5.55 6.35 -5.6 Q7.0 -5.65 7.35 -5.95 L7.65 -6.15 M6.25 -5.55 L6.1 -5.0 6.1 -4.75 Q5.9 -2.65 8.4 -1.85 8.95 -1.65 9.2 -2.1 10.4 -4.6 7.5 -5.85 L7.35 -5.95 M6.1 -4.75 Q4.9 -1.9 2.55 -2.7 2.65 -4.7 3.85 -5.4 0.95 -4.0 0.35 -6.6 1.75 -7.7 3.1 -7.55 1.2 -8.5 1.5 -10.95 1.7 -12.35 2.85 -11.7 4.1 -10.95 4.6 -9.65 L4.85 -8.15 M5.15 -5.85 L4.2 -5.6 3.85 -5.4 M4.15 -7.3 L3.1 -7.55 Q3.55 -7.35 4.1 -7.25" fill="none" stroke="#8f7c3f" stroke-linecap="round" stroke-linejoin="round" stroke-width="1.0"/>
    <path d="M7.85 -18.7 Q4.1 -17.35 0.95 -16.95 4.4 -21.05 7.85 -18.7" fill="#8f7c3f" fill-rule="evenodd" stroke="none"/>
    <path d="M7.85 -18.7 Q4.1 -17.35 0.95 -16.95 4.4 -21.05 7.85 -18.7 Z" fill="none" stroke="#8f7c3f" stroke-linecap="round" stroke-linejoin="round" stroke-width="1.0"/>
    <path d="M19.55 -4.15 L11.95 -3.95 Q16.85 -7.55 19.55 -4.15" fill="#8f7c3f" fill-rule="evenodd" stroke="none"/>
    <path d="M19.55 -4.15 L11.95 -3.95 Q16.85 -7.55 19.55 -4.15 Z" fill="none" stroke="#8f7c3f" stroke-linecap="round" stroke-linejoin="round" stroke-width="1.0"/>
    <path d="M-10.8 -3.2 L-17.55 -3.35 Q-18.8 -3.3 -19.5 -5.05 -15.05 -5.35 -10.8 -3.2" fill="#8f7c3f" fill-rule="evenodd" stroke="none"/>
    <path d="M-10.8 -3.2 Q-15.05 -5.35 -19.5 -5.05 -18.8 -3.3 -17.55 -3.35 L-10.8 -3.2 Z" fill="none" stroke="#8f7c3f" stroke-linecap="round" stroke-linejoin="round" stroke-width="1.0"/>
    <path d="M-3.1 -3.5 Q-0.85 -5.0 1.35 -4.05 -2.55 -1.4 -6.35 0.65 -5.2 -2.15 -3.1 -3.5" fill="#8f7c3f" fill-rule="evenodd" stroke="none"/>
    <path d="M-3.1 -3.5 Q-0.85 -5.0 1.35 -4.05 -2.55 -1.4 -6.35 0.65 -5.2 -2.15 -3.1 -3.5 Z" fill="none" stroke="#8f7c3f" stroke-linecap="round" stroke-linejoin="round" stroke-width="1.0"/>
  </g>
</svg>
