<?xml version="1.0" encoding="UTF-8" standalone="no"?>
<!DOCTYPE svg PUBLIC "-//W3C//DTD SVG 1.1//EN" "http://www.w3.org/Graphics/SVG/1.1/DTD/svg11.dtd">
<svg width="101px" height="144px" version="1.1" xmlns="http://www.w3.org/2000/svg" xmlns:xlink="http://www.w3.org/1999/xlink" xml:space="preserve" xmlns:serif="http://www.serif.com/" style="fill-rule:evenodd;clip-rule:evenodd;stroke-linejoin:round;stroke-miterlimit:2;">
    <g transform="matrix(0.614656,0,0,0.614656,-17.112,-0.741119)">
        <path d="M90.354,83.52L86.488,90.447C85.555,91.777 85.26,93.107 85.4,94.438L85.4,104.584C84.363,105.176 83.822,106.123 83.663,107.343L83.663,117.489L83.415,120.745L83.415,130.891C84.069,132.387 84.027,133.68 83.476,134.825L79.609,141.752C78.725,143.159 78.14,146.211 77.735,150.253L76.364,152.709C75.978,154.965 75.692,159.141 75.252,163.194L72.498,168.128L69.561,174.466L61.602,181.392L55.336,187.599L51.47,194.525L51.446,194.501L48.81,194.501C45.151,193.511 43.178,195.05 42.891,199.117C42.284,202.56 41.187,204.701 38.492,206.739C36.013,207.899 34.551,209.657 34.677,212.35L31.435,212.35C29.91,212.35 28.673,213.586 28.673,215.112L28.673,215.115C28.673,216.64 29.91,217.877 31.435,217.877L34.677,217.877C36.449,216.974 38.277,216.299 40.201,216.01L44.578,215.789C46.042,215.947 46.918,215.434 47.309,214.365L47.676,212.349C47.295,210.894 49.822,208.684 53.579,206.155L61.539,199.228C61.745,198.172 64.253,195.801 67.893,192.783L75.852,185.857C77.762,184.011 79.144,182.253 79.904,180.598C82.599,178.561 83.979,176.749 84.585,173.306C85.847,172.128 87.033,170.575 88.055,168.199L91.922,161.272C93.234,158.107 93.735,155.887 93.611,154.398L101.57,147.471L108.283,141.375L115.889,134.017C118.712,133.41 121.608,131.405 124.546,128.614L132.505,121.687L136.814,114.594C139.523,114.553 140.901,115.104 141.624,115.945L141.624,115.946C142.458,117.1 144.006,117.48 145.279,116.842C146.253,116.354 147.182,115.889 147.182,115.889L155.485,115.889L160.977,115.94C162.16,115.855 163.008,115.493 163.768,115.119C164.771,114.65 165.348,113.535 165.174,112.401C165.078,111.728 164.766,111.021 164.016,110.474C162.182,109.136 160.383,110.654 157.938,111.385C156.469,109.671 155.457,109.179 154.541,108.94L148.126,108.94C145.388,108.507 143.074,107.529 141.624,105.44L143.646,102.613L151.606,95.686L156.661,90.431L160.528,83.504L161.953,78.579L165.853,78.579C167.324,78.707 168.589,78.364 169.674,77.609C172.368,75.571 173.853,73.353 174.46,69.91C173.972,67.455 183.401,64.278 187.099,64.01C188.282,63.925 189.13,63.564 189.89,63.189C190.894,62.72 191.47,61.605 191.296,60.472C191.2,59.799 190.888,59.091 190.138,58.544C188.304,57.206 186.506,58.725 184.06,59.455C183.457,59.635 182.805,59.71 181.232,60.143L177.394,60.536C175.535,60.565 173.438,61.856 172.194,63.189C167.96,64.072 161.892,67.84 159.458,70.805C159.458,70.805 155.866,73.931 153.508,75.983C152.218,77.106 151.407,78.68 151.243,80.382C151.139,81.457 151.042,82.45 151.042,82.45L143.083,89.376L135.723,96.261C135.723,96.261 133.02,92.626 131.753,90.922C131.326,90.348 130.841,89.82 130.306,89.346C128.228,87.504 122.844,82.734 122.844,82.734C126.981,82.241 130.08,80.397 132.838,77.748C134.874,74.967 135.317,72.054 133.39,69.274L131.893,63.845L128.605,56.297L125.03,63.845C124.421,64.296 123.698,64.465 122.844,64.303L113.23,64.303L109.051,59.455L111.077,50.984L113.23,46.448L115.905,36.677L117.654,33.465L120.925,25.253L124.136,19.355L126.882,13.72C128.918,10.939 128.809,8.159 126.882,5.378C124.834,3.829 122.699,4.175 120.483,6.33L117.271,12.228L113.942,20.866L111.553,25.253L108.283,33.465L105.835,37.96L104.176,46.448L101.705,50.984L99.305,60.143L96.94,64.486L94.193,70.818L90.844,75.843C89.879,77.466 89.848,80.18 90.354,83.52ZM115.905,116.338C117.373,116.129 118.842,115.166 120.311,112.717C121.191,111.916 121.846,111.161 122.162,110.474L122.487,109.225C123.621,106.746 124.782,104.559 126.032,103.345L120.311,97.855L116.992,101.983C115.983,103.737 115.688,106.205 115.905,109.186L115.905,116.338L115.889,116.34L115.905,116.357L115.905,116.338Z" style="fill:white;"/>
    </g>
    <g transform="matrix(1,0,0,1,0,0.512008)">
        <path d="M43.659,141.34C35.73,141.34 28.994,141.555 26.617,141.848C26.089,141.913 25.738,141.994 25.571,142.065C25.315,142.173 25.243,142.303 25.243,142.414C25.243,142.524 25.315,142.655 25.571,142.763C25.738,142.833 26.089,142.914 26.617,142.98C28.994,143.273 35.73,143.488 43.659,143.488C51.588,143.488 58.323,143.273 60.7,142.98C61.228,142.914 61.579,142.833 61.746,142.763C62.003,142.655 62.074,142.524 62.074,142.414C62.074,142.303 62.003,142.173 61.746,142.065C61.579,141.994 61.228,141.913 60.7,141.848C58.323,141.555 51.588,141.34 43.659,141.34ZM4.202,128.756L2.21,128.756C0.989,128.756 0,129.746 0,130.966L0,130.968C0,132.189 0.989,133.178 2.21,133.178L4.202,133.178C4.485,133.178 4.715,132.948 4.715,132.666C4.715,132.383 4.485,132.154 4.202,132.154L2.21,132.154C1.555,132.154 1.024,131.622 1.024,130.968L1.024,130.966C1.024,130.311 1.555,129.781 2.21,129.781L4.202,129.781C4.485,129.781 4.715,129.551 4.715,129.268C4.715,128.986 4.485,128.756 4.202,128.756ZM7.598,132.031L10.514,132.031C10.797,132.031 11.026,131.801 11.026,131.519C11.026,131.236 10.797,131.007 10.514,131.007L7.598,131.007C7.316,131.007 7.086,131.236 7.086,131.519C7.086,131.801 7.316,132.031 7.598,132.031ZM11.68,129.269L11.68,130.643C11.68,130.926 11.91,131.156 12.192,131.156C12.475,131.156 12.704,130.926 12.704,130.643L12.704,129.269C12.704,128.986 12.475,128.756 12.192,128.756C11.91,128.756 11.68,128.986 11.68,129.269ZM8.747,121.046C8.399,123.016 7.78,124.246 6.238,125.411C6.013,125.582 5.968,125.903 6.139,126.129C6.309,126.354 6.631,126.399 6.856,126.228C8.627,124.89 9.356,123.487 9.755,121.224C9.804,120.946 9.618,120.68 9.34,120.631C9.061,120.581 8.796,120.768 8.747,121.046ZM20.377,120.817L15.485,125.075C15.272,125.261 15.25,125.584 15.435,125.797C15.62,126.01 15.944,126.033 16.157,125.847L21.049,121.589C21.262,121.404 21.284,121.081 21.099,120.868C20.914,120.655 20.59,120.632 20.377,120.817ZM14.232,117.785L12.889,117.785C12.606,117.785 12.377,118.015 12.377,118.298C12.377,118.581 12.606,118.811 12.889,118.811L14.404,118.811C14.621,118.863 14.857,118.768 14.971,118.562L17.347,114.305C17.485,114.058 17.397,113.746 17.15,113.609C16.904,113.471 16.591,113.56 16.454,113.806L14.232,117.785ZM29.175,112.599L24.283,116.856C24.07,117.042 24.047,117.365 24.233,117.578C24.418,117.792 24.742,117.814 24.954,117.628L29.847,113.371C30.06,113.185 30.082,112.862 29.897,112.649C29.711,112.436 29.388,112.413 29.175,112.599ZM25.308,105.597L20.416,109.854C20.203,110.04 20.18,110.363 20.366,110.577C20.551,110.79 20.875,110.812 21.088,110.627L25.98,106.369C26.193,106.184 26.216,105.86 26.03,105.647C25.844,105.434 25.521,105.412 25.308,105.597ZM34.375,105.181C34.027,107.151 33.408,108.381 31.866,109.547C31.641,109.717 31.596,110.038 31.767,110.264C31.938,110.489 32.259,110.534 32.485,110.363C34.255,109.025 34.985,107.622 35.384,105.359C35.432,105.081 35.246,104.815 34.968,104.766C34.69,104.717 34.424,104.903 34.375,105.181ZM38.942,97.624L36.565,101.882C36.427,102.128 36.515,102.44 36.762,102.578C37.009,102.716 37.321,102.627 37.458,102.381L39.835,98.123C39.973,97.877 39.884,97.564 39.638,97.427C39.391,97.289 39.079,97.378 38.942,97.624ZM29.379,97.581L27.002,101.838C26.864,102.085 26.953,102.397 27.2,102.535C27.446,102.673 27.758,102.584 27.896,102.337L30.272,98.08C30.41,97.833 30.322,97.521 30.075,97.384C29.829,97.246 29.516,97.335 29.379,97.581ZM44.982,89.005L40.09,93.262C39.877,93.448 39.855,93.771 40.041,93.985C40.226,94.197 40.549,94.22 40.762,94.034L45.654,89.777C45.867,89.592 45.89,89.268 45.705,89.055C45.519,88.842 45.196,88.82 44.982,89.005ZM31.288,88.941L28.912,93.199C28.774,93.445 28.862,93.757 29.109,93.895C29.355,94.033 29.668,93.944 29.805,93.697L32.182,89.44C32.32,89.193 32.231,88.881 31.984,88.744C31.738,88.606 31.425,88.694 31.288,88.941ZM33.75,81.368L31.373,85.626C31.236,85.872 31.324,86.185 31.571,86.322C31.818,86.46 32.129,86.372 32.267,86.125L34.644,81.867C34.782,81.621 34.693,81.309 34.447,81.171C34.199,81.033 33.888,81.122 33.75,81.368ZM54.001,81L49.109,85.258C48.896,85.443 48.873,85.767 49.059,85.98C49.244,86.193 49.568,86.215 49.781,86.03L54.673,81.772C54.886,81.587 54.908,81.263 54.723,81.05C54.538,80.837 54.214,80.815 54.001,81ZM34.671,79.2L34.671,72.963C34.671,72.681 34.442,72.452 34.159,72.452C33.877,72.452 33.647,72.681 33.647,72.963L33.647,79.2C33.647,79.482 33.877,79.712 34.159,79.712C34.442,79.712 34.671,79.482 34.671,79.2ZM63.997,73.156L59.105,77.414C58.892,77.599 58.869,77.923 59.055,78.136C59.24,78.349 59.564,78.371 59.777,78.186L64.669,73.928C64.882,73.743 64.905,73.42 64.719,73.207C64.534,72.994 64.21,72.971 63.997,73.156ZM69.522,70.313L70.412,71.544C70.577,71.773 70.897,71.825 71.127,71.659C71.356,71.494 71.408,71.174 71.242,70.944L70.353,69.713C70.187,69.485 69.867,69.433 69.637,69.598C69.409,69.764 69.357,70.084 69.522,70.313ZM34.824,70.962L34.824,64.726C34.824,64.444 34.595,64.214 34.312,64.214C34.03,64.214 33.8,64.444 33.8,64.726L33.8,70.962C33.8,71.245 34.03,71.474 34.312,71.474C34.595,71.474 34.824,71.245 34.824,70.962ZM54.106,70.769L54.129,70.78L54.155,70.779C54.212,70.776 54.267,70.764 54.317,70.743C55.298,70.569 56.302,69.923 57.276,68.292C57.421,68.049 57.342,67.734 57.099,67.59C56.856,67.444 56.541,67.524 56.396,67.767C55.805,68.757 55.227,69.315 54.641,69.578L54.641,65.859C54.641,65.576 54.412,65.347 54.129,65.347C53.846,65.347 53.616,65.576 53.616,65.859L53.616,70.161C53.608,70.203 53.605,70.247 53.608,70.292C53.616,70.405 53.661,70.508 53.73,70.589C53.821,70.696 53.956,70.765 54.106,70.769ZM80.112,67.701C80.865,67.476 81.519,67.13 82.125,66.943C82.571,66.805 82.985,66.761 83.4,67.064C83.728,67.303 83.864,67.613 83.906,67.907C83.906,67.909 83.907,67.911 83.907,67.913C83.979,68.382 83.747,68.847 83.332,69.041C83.329,69.043 83.326,69.044 83.322,69.046C82.907,69.251 82.443,69.453 81.797,69.499C81.515,69.52 81.302,69.765 81.323,70.047C81.343,70.329 81.589,70.541 81.87,70.521C82.675,70.463 83.254,70.221 83.772,69.966C84.585,69.583 85.06,68.682 84.92,67.76C84.843,67.229 84.596,66.669 84.003,66.237C83.291,65.717 82.588,65.728 81.824,65.964C81.219,66.151 80.569,66.495 79.819,66.72C79.548,66.8 79.394,67.086 79.475,67.357C79.555,67.628 79.841,67.782 80.112,67.701ZM73.354,70.491L78.458,70.491C78.74,70.491 78.97,70.261 78.97,69.979C78.97,69.696 78.74,69.466 78.458,69.466L73.354,69.466C73.071,69.466 72.842,69.696 72.842,69.979C72.842,70.261 73.071,70.491 73.354,70.491ZM68.54,65.342L66.163,69.599C66.025,69.846 66.114,70.158 66.361,70.296C66.607,70.434 66.919,70.345 67.057,70.098L69.433,65.841C69.571,65.594 69.483,65.282 69.236,65.144C68.99,65.007 68.677,65.095 68.54,65.342ZM57.663,65.883L57.663,67.258C57.663,67.54 57.893,67.77 58.175,67.77C58.458,67.77 58.687,67.54 58.687,67.258L58.687,65.883C58.687,65.6 58.458,65.371 58.175,65.371C57.893,65.371 57.663,65.6 57.663,65.883ZM73.934,66.22L77.877,66.22C78.16,66.22 78.39,65.99 78.39,65.707C78.39,65.425 78.16,65.195 77.877,65.195L73.934,65.195C73.652,65.195 73.422,65.425 73.422,65.707C73.422,65.99 73.652,66.22 73.934,66.22ZM35.892,63.029L35.892,56.793C35.892,56.511 35.662,56.282 35.38,56.282C35.097,56.282 34.868,56.511 34.868,56.793L34.868,63.029C34.868,63.312 35.097,63.541 35.38,63.541C35.662,63.541 35.892,63.312 35.892,63.029ZM66.432,57.48L61.539,61.737C61.327,61.923 61.304,62.246 61.49,62.46C61.675,62.673 61.998,62.695 62.212,62.51L67.104,58.252C67.316,58.067 67.339,57.743 67.154,57.53C66.969,57.317 66.645,57.295 66.432,57.48ZM60.402,62.308L60.454,62.252C60.558,62.133 60.603,61.989 60.583,61.82C60.564,61.67 60.502,61.549 60.402,61.452C60.4,61.452 60.4,61.45 60.399,61.449C59.802,60.892 59.162,60.268 58.478,59.579C58.477,59.578 58.477,59.578 58.476,59.577C58.028,59.13 57.735,58.858 57.601,58.758C57.415,58.62 57.193,58.548 56.932,58.548C56.65,58.548 56.417,58.633 56.231,58.792C56.096,58.908 55.848,59.194 55.492,59.656C55.173,60.074 54.846,60.484 54.511,60.889C54.412,61.002 54.367,61.142 54.382,61.304C54.396,61.454 54.457,61.578 54.561,61.678L54.798,61.772L54.578,61.693L54.583,61.695C54.693,61.809 54.828,61.864 54.991,61.858C55.149,61.853 55.283,61.79 55.388,61.667C55.391,61.664 55.393,61.661 55.395,61.659C55.633,61.364 55.981,60.921 56.438,60.327C56.438,60.326 56.438,60.326 56.439,60.325C56.661,60.031 56.808,59.847 56.885,59.777C56.896,59.766 56.904,59.753 56.918,59.753C56.941,59.753 56.962,59.767 56.984,59.785C57.067,59.849 57.248,60.024 57.528,60.308L57.529,60.309C58.32,61.102 59.013,61.777 59.608,62.334C59.722,62.458 59.866,62.512 60.038,62.494C60.183,62.479 60.304,62.417 60.402,62.308ZM75.737,57.175L70.845,61.433C70.632,61.618 70.609,61.941 70.795,62.155C70.98,62.367 71.304,62.39 71.517,62.205L76.409,57.947C76.622,57.762 76.644,57.438 76.459,57.225C76.274,57.012 75.95,56.99 75.737,57.175ZM37.978,49.833L35.601,54.091C35.464,54.338 35.552,54.65 35.799,54.787C36.045,54.925 36.357,54.837 36.495,54.59L38.872,50.332C39.01,50.086 38.921,49.774 38.674,49.636C38.428,49.498 38.115,49.587 37.978,49.833ZM81.111,49.824L78.734,54.081C78.596,54.328 78.685,54.64 78.932,54.778C79.178,54.915 79.49,54.827 79.628,54.58L82.004,50.323C82.142,50.076 82.053,49.764 81.807,49.626C81.56,49.489 81.248,49.577 81.111,49.824ZM58.248,50.231L63.14,54.488C63.353,54.674 63.676,54.651 63.862,54.438C64.048,54.225 64.025,53.902 63.812,53.716L58.92,49.458C58.707,49.273 58.383,49.296 58.198,49.509C58.012,49.722 58.035,50.045 58.248,50.231ZM75.391,49.039L70.499,53.296C70.286,53.482 70.263,53.805 70.449,54.019C70.634,54.232 70.958,54.254 71.171,54.069L76.063,49.811C76.276,49.626 76.298,49.302 76.113,49.089C75.928,48.876 75.604,48.854 75.391,49.039ZM82.433,47.559L84.83,47.559C85.113,47.559 85.342,47.329 85.342,47.046C85.342,46.763 85.113,46.533 84.83,46.533L82.433,46.533C82.15,46.533 81.921,46.763 81.921,47.046C81.921,47.329 82.15,47.559 82.433,47.559ZM58.288,47.227L58.35,47.227C58.457,47.222 58.55,47.179 58.627,47.098C58.706,47.016 58.746,46.916 58.746,46.798L58.746,45.75C58.746,45.634 58.707,45.534 58.63,45.45C58.547,45.358 58.446,45.314 58.328,45.314L58.328,45.316L58.215,45.314L58.215,41.291C58.215,41.173 58.175,41.074 58.097,40.992C58.014,40.905 57.915,40.862 57.798,40.862L55.569,40.862C55.45,40.862 55.35,40.907 55.27,40.995C55.197,41.076 55.158,41.175 55.158,41.291L55.158,41.508C55.158,42.17 55.154,42.672 55.146,43.014C55.137,43.355 55.126,43.668 55.111,43.953C55.098,44.22 55.071,44.426 55.026,44.573L54.881,44.954C54.834,45.051 54.765,45.171 54.673,45.314L54.645,45.314C54.527,45.314 54.427,45.358 54.344,45.449C54.267,45.534 54.228,45.634 54.228,45.75L54.228,46.798C54.228,46.916 54.268,47.016 54.347,47.099C54.429,47.185 54.529,47.227 54.645,47.227L54.686,47.227C54.793,47.222 54.886,47.179 54.963,47.099C55.041,47.016 55.082,46.916 55.082,46.798L55.082,46.152L57.892,46.152L57.892,46.798C57.892,46.916 57.933,47.016 58.011,47.098C58.087,47.179 58.18,47.222 58.288,47.227ZM64.116,41.7C65.163,43.21 65.23,44.721 64.124,46.232C63.957,46.461 64.007,46.782 64.235,46.949C64.463,47.116 64.784,47.066 64.951,46.838C66.348,44.931 66.281,43.023 64.959,41.116C64.798,40.883 64.478,40.825 64.246,40.987C64.013,41.148 63.955,41.467 64.116,41.7ZM80.564,41.882L75.671,46.139C75.459,46.324 75.436,46.648 75.622,46.861C75.807,47.074 76.131,47.096 76.344,46.911L81.236,42.654C81.449,42.468 81.471,42.145 81.286,41.932C81.101,41.719 80.777,41.696 80.564,41.882ZM89.378,41.676C89.03,43.646 88.411,44.876 86.869,46.041C86.644,46.211 86.599,46.533 86.77,46.758C86.941,46.984 87.262,47.029 87.488,46.858C89.258,45.519 89.988,44.117 90.387,41.854C90.435,41.575 90.249,41.309 89.971,41.26C89.693,41.212 89.427,41.397 89.378,41.676ZM40.335,42.031L38.361,45.656C38.225,45.904 38.317,46.215 38.565,46.351C38.814,46.485 39.125,46.394 39.26,46.145L41.234,42.521C41.369,42.272 41.278,41.961 41.029,41.826C40.781,41.691 40.47,41.783 40.335,42.031ZM45.802,42.031L43.828,45.656C43.693,45.904 43.784,46.215 44.033,46.351C44.281,46.485 44.592,46.394 44.727,46.145L46.702,42.521C46.837,42.272 46.745,41.961 46.497,41.826C46.249,41.691 45.938,41.783 45.802,42.031ZM55.691,45.314C55.845,44.989 55.938,44.668 55.973,44.351C56.014,43.984 56.035,43.1 56.036,41.701L57.318,41.701L57.318,45.314L55.691,45.314ZM52.02,40.628L51.05,41.615C50.852,41.817 50.855,42.141 51.057,42.339C51.259,42.537 51.583,42.534 51.781,42.333L52.75,41.345C52.948,41.143 52.945,40.819 52.744,40.622C52.542,40.424 52.218,40.426 52.02,40.628ZM60.145,41.311L61.115,42.298C61.313,42.5 61.636,42.502 61.838,42.304C62.04,42.107 62.043,41.783 61.845,41.581L60.875,40.593C60.678,40.392 60.353,40.389 60.151,40.587C59.95,40.785 59.947,41.109 60.145,41.311ZM88.375,37.731L88.375,39.105C88.375,39.388 88.604,39.618 88.887,39.618C89.17,39.618 89.399,39.388 89.399,39.105L89.399,37.731C89.399,37.448 89.17,37.218 88.887,37.218C88.604,37.218 88.375,37.448 88.375,37.731ZM43.997,34.513L42.023,38.138C41.888,38.387 41.98,38.698 42.228,38.833C42.476,38.968 42.787,38.877 42.923,38.628L44.897,35.003C45.032,34.755 44.94,34.444 44.692,34.308C44.444,34.173 44.132,34.265 43.997,34.513ZM49.758,34.513L47.783,38.138C47.648,38.387 47.74,38.698 47.988,38.833C48.236,38.968 48.547,38.877 48.683,38.628L50.657,35.003C50.792,34.755 50.7,34.444 50.452,34.308C50.204,34.173 49.892,34.265 49.758,34.513ZM52.485,38.784L58.395,38.784C58.677,38.784 58.907,38.554 58.907,38.271C58.907,37.988 58.677,37.758 58.395,37.758L52.485,37.758C52.203,37.758 51.973,37.988 51.973,38.271C51.973,38.554 52.203,38.784 52.485,38.784ZM98.811,33.889L98.803,33.889C98.502,33.888 98.196,33.948 97.88,34.045C97.275,34.232 96.625,34.576 95.875,34.801C95.604,34.881 95.45,35.167 95.531,35.438C95.612,35.709 95.897,35.863 96.168,35.782C96.921,35.557 97.575,35.211 98.181,35.024C98.627,34.887 99.041,34.843 99.456,35.145C99.784,35.384 99.92,35.694 99.962,35.988L99.963,35.994C100.035,36.463 99.803,36.928 99.388,37.122C99.385,37.124 99.382,37.125 99.379,37.127C98.963,37.332 98.5,37.533 97.853,37.58C97.571,37.6 97.358,37.846 97.379,38.128C97.4,38.41 97.645,38.623 97.926,38.602C98.731,38.544 99.311,38.302 99.828,38.047C100.641,37.664 101.116,36.763 100.976,35.841C100.899,35.31 100.652,34.75 100.06,34.318L100.059,34.318C99.645,34.015 99.234,33.892 98.811,33.889ZM60.202,38.209L61.936,34.548L63.67,38.209C63.791,38.465 64.097,38.574 64.353,38.453C64.608,38.332 64.718,38.026 64.597,37.77L62.399,33.131C62.314,32.952 62.134,32.838 61.936,32.838C61.738,32.838 61.557,32.952 61.472,33.131L59.275,37.77C59.154,38.026 59.263,38.332 59.519,38.453C59.775,38.574 60.081,38.465 60.202,38.209ZM91.924,36.468L94.321,36.468C94.604,36.468 94.833,36.238 94.833,35.956C94.833,35.673 94.604,35.443 94.321,35.443L91.924,35.443C91.641,35.443 91.412,35.673 91.412,35.956C91.412,36.238 91.641,36.468 91.924,36.468ZM52.686,26.215L50.712,29.84C50.577,30.088 50.669,30.399 50.917,30.534C51.165,30.67 51.476,30.577 51.611,30.33L53.586,26.704C53.721,26.456 53.629,26.145 53.381,26.01C53.133,25.875 52.822,25.966 52.686,26.215ZM46.926,26.215L44.952,29.84C44.817,30.088 44.909,30.399 45.157,30.534C45.405,30.67 45.716,30.577 45.851,30.33L47.826,26.704C47.961,26.456 47.869,26.145 47.62,26.01C47.373,25.875 47.061,25.966 46.926,26.215ZM49.464,18.209L47.49,21.834C47.355,22.082 47.447,22.393 47.695,22.529C47.943,22.664 48.255,22.572 48.39,22.324L50.364,18.699C50.499,18.451 50.407,18.139 50.159,18.004C49.911,17.869 49.6,17.961 49.464,18.209ZM55.224,18.209L53.251,21.834C53.115,22.082 53.207,22.393 53.455,22.529C53.704,22.664 54.015,22.572 54.15,22.324L56.124,18.699C56.259,18.451 56.167,18.139 55.92,18.004C55.671,17.869 55.36,17.961 55.224,18.209ZM58.74,10.399L56.765,14.024C56.63,14.272 56.722,14.583 56.97,14.719C57.218,14.853 57.529,14.762 57.665,14.513L59.639,10.889C59.774,10.64 59.682,10.329 59.434,10.194C59.186,10.059 58.875,10.151 58.74,10.399ZM52.979,10.399L51.005,14.024C50.87,14.272 50.962,14.583 51.21,14.719C51.458,14.853 51.769,14.762 51.905,14.513L53.879,10.889C54.014,10.64 53.922,10.329 53.674,10.194C53.426,10.059 53.114,10.151 52.979,10.399ZM60.455,2.344C61.502,3.855 61.569,5.366 60.463,6.877C60.296,7.106 60.346,7.426 60.574,7.594C60.802,7.761 61.123,7.711 61.29,7.483C62.687,5.575 62.62,3.668 61.298,1.761C61.137,1.528 60.817,1.47 60.585,1.631C60.352,1.792 60.294,2.112 60.455,2.344ZM56.494,2.393L54.52,6.018C54.385,6.266 54.476,6.578 54.725,6.713C54.973,6.847 55.284,6.756 55.419,6.508L57.393,2.883C57.529,2.635 57.436,2.324 57.189,2.188C56.94,2.053 56.629,2.145 56.494,2.393Z" style="fill-rule:nonzero;"/>
    </g>
</svg>
