<?xml version="1.0" encoding="UTF-8" standalone="no"?>
<!DOCTYPE svg PUBLIC "-//W3C//DTD SVG 1.1//EN" "http://www.w3.org/Graphics/SVG/1.1/DTD/svg11.dtd">
<svg width="134px" height="95px" version="1.1" xmlns="http://www.w3.org/2000/svg" xmlns:xlink="http://www.w3.org/1999/xlink" xml:space="preserve" xmlns:serif="http://www.serif.com/" style="fill-rule:evenodd;clip-rule:evenodd;stroke-linecap:round;stroke-linejoin:round;stroke-miterlimit:2;">
    <g transform="matrix(0.620067,0,0,0.620067,-1.81509,-41.6029)">
        <path d="M33.542,163.788C33.557,163.763 33.568,163.736 33.577,163.709C34.23,162.467 43.646,154.266 43.646,154.266L50.417,145.072L58.628,138.146L61.701,131.711L75.004,131.711L86.503,111.963L91.46,103.083C92.829,100.867 92.311,98.542 90.105,96.121C87.495,92.556 86.676,89.997 89.147,86.432L92.555,78.297L97.138,68.621L101.399,77.519C102.205,78.316 103.444,79.062 105.334,78.811L117.659,78.811C120.077,78.964 121.82,78.258 122.605,77.131L126.82,68.621L131.084,77.131L134.056,86.432C136.527,89.997 135.955,92.556 133.345,96.121C131.154,99.197 130.24,102.018 130.603,104.583C134.735,100.508 140.275,104.259 145.861,105.447C148.331,107.102 151.222,109.611 152.815,111.331C154.48,114.004 155.267,116.748 155.298,119.552L155.298,131.74C155.704,132.582 156.649,132.885 158.383,132.399L187.32,132.399C187.744,132.399 188.152,132.568 188.452,132.868C188.753,133.169 188.921,133.576 188.921,134.001L188.921,138.146L200.503,148.404L205.223,153.529L215.426,162.409C215.426,162.409 217.09,164.056 218.411,165.363C218.823,165.771 219.048,166.331 219.032,166.91C219.017,167.489 218.762,168.036 218.329,168.421C214.344,171.964 204.61,180.618 204.61,180.618L196.661,188.44C196.661,188.44 189.66,194.697 186.317,197.685C185.342,198.556 183.857,198.514 182.933,197.588C181.464,196.115 179.542,194.189 179.542,194.189L154.658,216.564C153.825,217.665 152.504,218.612 150.241,218.777C150.241,218.777 50.699,218.387 35.008,218.326C34.459,218.324 33.933,218.104 33.546,217.714C33.159,217.324 32.943,216.796 32.945,216.247L33.11,175.301L32.433,176.316L22.536,185.579L18.658,191.469C18.658,191.469 12.113,197.165 8.904,199.958C8.451,200.352 7.858,200.543 7.26,200.489C6.663,200.434 6.114,200.137 5.741,199.668C5.367,199.198 4.965,198.693 4.598,198.231C3.866,197.311 3.989,195.977 4.876,195.205C8.027,192.462 14.777,186.588 14.777,186.588L18.349,180.315L28.552,171.435C28.552,171.435 33.373,164.046 33.542,163.788Z" fill="#ffffff"/>
    </g>
    <g transform="matrix(0.620067,0,0,0.620067,-1.81509,-41.6029)">
        <g transform="matrix(0.145579,0,0,0.145579,-11.2155,74.3777)">
            <path d="M503.311,825.753C504.021,825.14 504.843,824.898 505.779,825.027C506.715,825.156 507.489,825.607 508.102,826.382C508.715,827.156 508.99,828.027 508.925,828.995C508.409,837.32 507.683,843.611 506.747,847.87C505.811,852.13 504.763,854.872 503.601,856.098C502.44,857.324 500.762,857.937 498.568,857.937C494.502,857.937 490.727,853.92 487.243,845.886C483.758,837.852 481.822,827.156 481.435,813.798C481.435,813.476 481.241,813.314 480.854,813.314L431.101,813.314C430.262,813.314 429.552,813.008 428.971,812.395C428.391,811.782 428.1,811.04 428.1,810.168C428.1,809.297 428.391,808.571 428.971,807.99C429.552,807.41 430.262,807.119 431.101,807.119L485.694,807.119C486.597,807.119 487.388,807.458 488.065,808.136C488.743,808.813 489.082,809.604 489.082,810.507C489.146,817.928 489.792,824.768 491.018,831.028C492.244,837.287 493.551,841.901 494.938,844.87C496.325,847.838 497.535,849.322 498.568,849.322C499.278,849.322 499.891,847.645 500.407,844.289C500.923,840.933 501.504,835.481 502.149,827.93C502.214,827.092 502.601,826.366 503.311,825.753ZM420.357,803.344C419.582,802.828 419.13,802.086 419.001,801.118C418.872,800.15 419.13,799.311 419.776,798.601C426.422,790.212 431.617,780.726 435.36,770.143C435.683,769.24 436.296,768.546 437.199,768.062C438.102,767.578 439.038,767.433 440.006,767.626L440.297,767.723C441.2,767.917 441.878,768.417 442.329,769.224C442.781,770.03 442.878,770.853 442.62,771.692C442.232,772.789 441.781,774.015 441.264,775.37C441.2,775.435 441.216,775.531 441.313,775.661C441.41,775.79 441.523,775.854 441.652,775.854L497.6,775.854C498.503,775.854 499.278,776.177 499.923,776.822C500.568,777.467 500.891,778.209 500.891,779.048C500.891,779.952 500.584,780.726 499.971,781.372C499.358,782.017 498.568,782.339 497.6,782.339L438.748,782.339C438.425,782.339 438.199,782.501 438.07,782.823C434.779,789.922 430.649,796.536 425.68,802.667C424.196,804.474 422.486,804.732 420.55,803.441L420.357,803.344ZM491.792,797.44L440.006,797.44C439.167,797.44 438.425,797.133 437.78,796.52C437.135,795.907 436.812,795.165 436.812,794.294C436.812,793.423 437.118,792.697 437.731,792.116C438.344,791.535 439.103,791.245 440.006,791.245L491.792,791.245C492.631,791.245 493.373,791.535 494.018,792.116C494.664,792.697 494.986,793.423 494.986,794.294C494.986,795.165 494.664,795.907 494.018,796.52C493.373,797.133 492.631,797.44 491.792,797.44ZM422.68,850.678C432.101,846.483 440.684,841.546 448.427,835.868C448.621,835.674 448.621,835.448 448.427,835.19C442.362,830.802 436.844,827.221 431.875,824.446C431.165,823.994 430.698,823.333 430.472,822.461C430.246,821.59 430.391,820.8 430.907,820.09C432.133,818.283 433.682,817.896 435.554,818.928C441.813,822.478 447.976,826.446 454.042,830.834C454.3,831.028 454.558,830.996 454.816,830.738C459.269,826.995 463.495,822.897 467.496,818.444C468.142,817.735 468.964,817.347 469.965,817.283C470.965,817.218 471.836,817.476 472.578,818.057C473.32,818.638 473.74,819.396 473.836,820.332C473.933,821.268 473.659,822.09 473.014,822.8C468.755,827.511 464.528,831.609 460.333,835.093C460.14,835.287 460.14,835.513 460.333,835.771C464.012,838.61 469.239,843.063 476.014,849.129C476.724,849.774 477.111,850.532 477.176,851.404C477.24,852.275 476.934,853.065 476.256,853.775C475.579,854.485 474.756,854.856 473.788,854.888C472.82,854.92 471.981,854.614 471.271,853.969C465.27,848.548 459.849,843.966 455.01,840.224C454.88,840.159 454.719,840.127 454.526,840.127C454.332,840.127 454.203,840.159 454.138,840.224C445.298,846.87 435.908,852.323 425.971,856.582C425.132,856.969 424.244,857.018 423.309,856.727C422.373,856.437 421.679,855.84 421.228,854.937C420.776,854.162 420.711,853.339 421.034,852.468C421.357,851.597 421.905,851 422.68,850.678Z" style="fill-rule:nonzero;stroke:#000;stroke-width:2.87px;"/>
            <path d="M594.783,782.823C595.687,782.823 596.477,783.146 597.155,783.791C597.832,784.437 598.171,785.227 598.171,786.163C598.171,787.099 597.832,787.889 597.155,788.534C596.477,789.18 595.687,789.502 594.783,789.502L559.453,789.502C558.549,789.502 557.759,789.18 557.081,788.534C556.404,787.889 556.065,787.099 556.065,786.163C556.065,785.227 556.404,784.437 557.081,783.791C557.759,783.146 558.549,782.823 559.453,782.823L594.783,782.823ZM532.446,854.356C531.479,854.485 530.591,854.275 529.785,853.727C528.978,853.178 528.446,852.388 528.187,851.355C525.413,839.869 524.025,827.527 524.025,814.331C524.025,801.134 525.413,788.76 528.187,777.209C528.446,776.241 528.978,775.483 529.785,774.935C530.591,774.386 531.479,774.176 532.446,774.305L532.93,774.402C533.834,774.531 534.56,774.967 535.108,775.709C535.657,776.451 535.834,777.306 535.641,778.274C532.995,789.244 531.672,801.263 531.672,814.331C531.672,827.398 532.995,839.417 535.641,850.387C535.834,851.291 535.657,852.13 535.108,852.904C534.56,853.678 533.834,854.13 532.93,854.259L532.446,854.356ZM577.844,850.194C568.81,850.194 561.663,848.532 556.404,845.209C551.144,841.885 548.515,837.449 548.515,831.899C548.515,829.382 549.402,826.527 551.177,823.333C552.951,820.138 555.387,817.057 558.485,814.089C559.195,813.379 560.066,813.024 561.098,813.024C562.131,813.024 563.066,813.347 563.905,813.992C564.551,814.573 564.873,815.331 564.873,816.267C564.873,817.202 564.551,817.993 563.905,818.638C558.678,823.736 556.065,828.14 556.065,831.851C556.065,835.561 557.936,838.384 561.679,840.32C565.422,842.256 570.81,843.224 577.844,843.224C583.716,843.224 589.814,842.547 596.138,841.192C597.042,840.998 597.881,841.159 598.655,841.676C599.429,842.192 599.881,842.934 600.01,843.902C600.139,844.87 599.978,845.725 599.526,846.467C599.075,847.209 598.397,847.677 597.494,847.87C590.782,849.419 584.232,850.194 577.844,850.194Z" style="fill-rule:nonzero;stroke:#000;stroke-width:2.87px;"/>
            <path d="M659.54,855.227C649.086,855.227 641.842,852.565 637.809,847.241C633.776,841.918 631.759,832.254 631.759,818.251C631.759,806.958 632.082,793.148 632.727,776.822C632.792,775.854 633.179,775.015 633.889,774.305C634.599,773.596 635.438,773.273 636.406,773.337L637.083,773.434C637.987,773.499 638.793,773.886 639.503,774.596C640.213,775.306 640.536,776.112 640.471,777.016C639.826,793.084 639.503,806.829 639.503,818.251C639.503,824.446 639.874,829.511 640.616,833.448C641.358,837.384 642.617,840.417 644.391,842.547C646.166,844.676 648.199,846.128 650.489,846.903C652.78,847.677 655.797,848.064 659.54,848.064C666.057,848.064 672.075,845.725 677.592,841.046C683.11,836.368 687.772,829.511 691.579,820.477C691.967,819.574 692.612,818.928 693.515,818.541C694.419,818.154 695.322,818.122 696.226,818.444L696.516,818.541C697.419,818.864 698.049,819.477 698.404,820.38C698.758,821.284 698.775,822.155 698.452,822.994C694.128,833.577 688.643,841.595 681.997,847.048C675.35,852.501 667.864,855.227 659.54,855.227Z" style="fill-rule:nonzero;stroke:#000;stroke-width:2.87px;"/>
            <path d="M775.018,833.641L775.018,831.802C775.018,831.48 774.856,831.222 774.534,831.028C769.565,828.769 764.951,827.672 760.692,827.737C751.464,827.737 746.85,830.963 746.85,837.416C746.85,840.708 748.06,843.305 750.48,845.209C752.9,847.112 756.304,848.064 760.692,848.064C766.112,848.064 769.855,847.048 771.92,845.015C773.985,842.982 775.018,839.191 775.018,833.641ZM800.185,785.727C801.088,785.792 801.814,786.211 802.363,786.986C802.911,787.76 803.121,788.615 802.992,789.551C802.863,790.486 802.443,791.212 801.733,791.729C801.024,792.245 800.249,792.439 799.41,792.309C793.861,791.535 788.311,791.116 782.761,791.051C782.439,791.051 782.245,791.212 782.181,791.535L782.181,826.963C782.181,827.414 782.31,827.705 782.568,827.834C788.44,830.996 794.506,835.061 800.766,840.03C801.475,840.611 801.879,841.369 801.975,842.305C802.072,843.24 801.798,844.079 801.153,844.821C800.507,845.564 799.701,845.983 798.733,846.08C797.765,846.177 796.894,845.935 796.119,845.354C790.828,841.159 786.311,837.933 782.568,835.674C782.503,835.61 782.406,835.61 782.277,835.674C782.148,835.739 782.084,835.803 782.084,835.868C781.826,842.45 780.035,847.161 776.712,850C773.388,852.839 768.048,854.259 760.692,854.259C754.045,854.259 748.867,852.759 745.156,849.758C741.446,846.757 739.59,842.643 739.59,837.416C739.59,832.319 741.429,828.35 745.108,825.511C748.786,822.671 753.981,821.252 760.692,821.252C765.015,821.252 769.629,822.187 774.534,824.059C774.856,824.188 775.018,824.091 775.018,823.768L775.018,787.76C775.018,786.792 775.34,785.969 775.986,785.292C776.631,784.614 777.438,784.275 778.406,784.275C785.633,784.34 792.893,784.824 800.185,785.727ZM721.635,839.885C720.699,840.304 719.779,840.337 718.876,839.982C717.973,839.627 717.327,839.03 716.94,838.191C716.553,837.352 716.585,836.449 717.037,835.481C723.425,820.703 728.975,806.022 733.686,791.438C733.879,791.051 733.783,790.858 733.395,790.858L721.005,790.858C720.102,790.858 719.312,790.519 718.634,789.841C717.956,789.164 717.618,788.405 717.618,787.566C717.618,786.728 717.94,785.969 718.586,785.292C719.231,784.614 720.037,784.275 721.005,784.275L735.428,784.275C735.751,784.275 735.977,784.082 736.106,783.695C736.493,782.469 737.057,780.613 737.8,778.129C738.542,775.644 739.074,773.757 739.397,772.466C739.655,771.563 740.203,770.853 741.042,770.337C741.881,769.82 742.785,769.627 743.753,769.756C744.656,769.885 745.366,770.337 745.882,771.111C746.398,771.885 746.527,772.692 746.269,773.531C745.495,776.435 744.527,779.855 743.365,783.791C743.172,784.114 743.301,784.275 743.753,784.275L758.659,784.275C759.498,784.275 760.24,784.598 760.885,785.243C761.531,785.889 761.853,786.663 761.853,787.566C761.853,788.47 761.531,789.244 760.885,789.89C760.24,790.535 759.498,790.858 758.659,790.858L741.72,790.858C741.462,790.858 741.236,791.051 741.042,791.438C736.138,806.926 730.33,822.413 723.619,837.9C723.232,838.804 722.57,839.465 721.635,839.885Z" style="fill-rule:nonzero;stroke:#000;stroke-width:2.87px;"/>
            <path d="M892.044,839.449C891.528,819.509 887.656,801.828 880.429,786.405C880.042,785.566 880.025,784.711 880.38,783.84C880.735,782.969 881.364,782.404 882.268,782.146L882.558,782.146C883.526,781.823 884.478,781.855 885.414,782.243C886.349,782.63 887.043,783.275 887.495,784.179C895.239,800.118 899.304,818.574 899.691,839.546C899.691,840.449 899.352,841.256 898.675,841.966C897.997,842.676 897.175,843.031 896.207,843.031L895.626,843.031C894.658,843.031 893.819,842.676 893.109,841.966C892.399,841.256 892.044,840.417 892.044,839.449ZM841.904,853.291C836.741,853.291 831.982,849.581 827.626,842.16C823.271,834.738 821.093,825.801 821.093,815.347C821.093,804.893 822.287,794.729 824.674,784.856C824.932,783.888 825.465,783.114 826.271,782.533C827.078,781.952 827.998,781.759 829.03,781.952L829.417,782.049C830.321,782.178 831.047,782.614 831.595,783.356C832.144,784.098 832.289,784.921 832.031,785.824C829.708,795.762 828.578,805.603 828.643,815.347C828.643,823.93 830.159,831.141 833.192,836.981C836.225,842.821 839.29,845.741 842.388,845.741C844.324,845.741 846.824,843.886 849.89,840.175C852.955,836.465 855.907,831.222 858.746,824.446C859.134,823.542 859.779,822.897 860.682,822.51C861.586,822.123 862.457,822.09 863.296,822.413L863.683,822.51C864.522,822.833 865.151,823.446 865.571,824.349C865.99,825.252 866.038,826.156 865.716,827.059C862.489,835.255 858.65,841.676 854.197,846.322C849.744,850.968 845.647,853.291 841.904,853.291Z" style="fill-rule:nonzero;stroke:#000;stroke-width:2.87px;"/>
            <path d="M977.612,801.021C979.548,800.053 981.097,800.473 982.258,802.279C986.13,809.12 988.131,812.669 988.26,812.927C988.647,813.701 988.695,814.508 988.405,815.347C988.115,816.186 987.582,816.799 986.808,817.186C986.033,817.573 985.211,817.638 984.339,817.38C983.468,817.122 982.807,816.605 982.355,815.831C981.452,814.089 979.451,810.636 976.354,805.474C975.902,804.699 975.805,803.877 976.063,803.005C976.322,802.134 976.838,801.473 977.612,801.021ZM996.294,798.601C998.101,801.57 1000.17,805.119 1002.49,809.249C1002.94,810.023 1003.02,810.862 1002.73,811.766C1002.44,812.669 1001.86,813.314 1000.99,813.701C1000.12,814.089 999.23,814.137 998.327,813.847C997.423,813.556 996.746,812.992 996.294,812.153C994.81,809.507 992.841,806.055 990.389,801.796C989.873,801.021 989.728,800.182 989.954,799.279C990.18,798.375 990.712,797.698 991.551,797.246C992.39,796.794 993.277,796.698 994.213,796.956C995.148,797.214 995.842,797.762 996.294,798.601ZM919.438,788.147C918.534,788.147 917.744,787.808 917.066,787.131C916.389,786.453 916.05,785.647 916.05,784.711C916.05,783.775 916.389,782.953 917.066,782.243C917.744,781.533 918.566,781.178 919.534,781.178C944.83,781.049 969.255,780.436 992.809,779.339C993.713,779.274 994.519,779.581 995.229,780.258C995.939,780.936 996.326,781.759 996.391,782.727C996.455,783.695 996.165,784.534 995.519,785.243C994.874,785.953 994.035,786.373 993.003,786.502C977.386,788.373 965.48,792.519 957.285,798.94C949.09,805.361 944.992,813.25 944.992,822.607C944.992,830.544 947.541,836.803 952.639,841.385C957.737,845.967 964.545,848.258 973.063,848.258C975.838,848.258 978.774,848.032 981.871,847.58C982.839,847.451 983.726,847.677 984.533,848.258C985.34,848.838 985.808,849.629 985.937,850.629C986.066,851.629 985.808,852.517 985.162,853.291C984.517,854.065 983.71,854.517 982.742,854.646C979.451,855.033 976.128,855.227 972.772,855.227C961.802,855.227 953.074,852.372 946.589,846.661C940.104,840.95 936.861,833.19 936.861,823.381C936.861,815.315 939.41,808.168 944.508,801.941C949.606,795.713 956.865,790.825 966.287,787.276C966.352,787.276 966.384,787.212 966.384,787.082C966.384,787.018 966.319,786.986 966.19,786.986C950.251,787.631 934.667,788.018 919.438,788.147Z" style="fill-rule:nonzero;stroke:#000;stroke-width:2.87px;"/>
            <path d="M541.061,934.116C535.77,930.502 532.43,927.937 531.043,926.421C529.656,924.904 528.962,922.888 528.962,920.371C528.962,917.725 529.688,915.628 531.14,914.079C532.592,912.53 536.157,909.885 541.836,906.142C553.387,898.463 564.905,890.106 576.392,881.072C577.166,880.491 578.037,880.233 579.005,880.297C579.973,880.362 580.78,880.749 581.425,881.459L581.716,881.846C582.361,882.556 582.619,883.395 582.49,884.363C582.361,885.331 581.942,886.105 581.232,886.686C568.777,896.623 557.226,905.045 546.579,911.95C542.642,914.531 540.158,916.289 539.125,917.225C538.093,918.161 537.577,919.209 537.577,920.371C537.577,921.403 538.045,922.371 538.98,923.275C539.916,924.178 542.094,925.824 545.514,928.211C558.162,936.729 571.1,946.732 584.329,958.218C585.039,958.799 585.426,959.541 585.491,960.444C585.555,961.348 585.265,962.155 584.62,962.864L584.136,963.252C583.426,963.961 582.587,964.349 581.619,964.413C580.651,964.478 579.812,964.155 579.102,963.445C566.002,952.281 553.322,942.505 541.061,934.116Z" style="fill-rule:nonzero;stroke:#000;stroke-width:2.87px;"/>
            <path d="M686.062,891.622C684.062,888.073 682.319,885.008 680.835,882.427C680.383,881.717 680.27,880.959 680.496,880.152C680.722,879.345 681.19,878.748 681.9,878.361C682.61,877.974 683.384,877.893 684.223,878.119C685.062,878.345 685.707,878.813 686.159,879.523C688.934,884.234 690.708,887.363 691.483,888.912C691.87,889.622 691.934,890.38 691.676,891.187C691.418,891.993 690.934,892.59 690.224,892.978C689.514,893.365 688.74,893.413 687.901,893.123C687.062,892.832 686.449,892.332 686.062,891.622ZM695.354,876.619C696.129,876.232 696.935,876.167 697.774,876.425C698.613,876.683 699.259,877.2 699.71,877.974C700.936,880.104 702.776,883.33 705.228,887.654C705.615,888.364 705.679,889.122 705.421,889.928C705.163,890.735 704.647,891.332 703.873,891.719C703.098,892.106 702.308,892.171 701.501,891.913C700.694,891.655 700.033,891.138 699.517,890.364C697.516,886.815 695.742,883.621 694.193,880.781C693.741,880.071 693.644,879.297 693.903,878.458C694.161,877.619 694.645,877.006 695.354,876.619ZM657.798,916.402C657.668,915.499 657.91,914.66 658.524,913.885C659.137,913.111 659.895,912.692 660.798,912.627C671.51,911.337 682.61,910.594 694.096,910.401C695,910.401 695.79,910.723 696.468,911.369C697.145,912.014 697.484,912.805 697.484,913.74C697.484,914.676 697.145,915.466 696.468,916.112C695.79,916.757 695.032,917.08 694.193,917.08C682.9,917.209 671.994,917.951 661.476,919.306C660.572,919.435 659.75,919.193 659.007,918.58C658.265,917.967 657.862,917.241 657.798,916.402ZM650.151,945.635C650.151,941.376 653.055,936.923 658.862,932.277C660.54,930.986 662.121,931.083 663.605,932.567C664.186,933.148 664.46,933.874 664.428,934.745C664.396,935.616 664.057,936.31 663.412,936.826C659.54,939.924 657.572,942.634 657.507,944.957C657.507,947.99 659.443,950.474 663.315,952.41C667.187,954.346 672.285,955.314 678.609,955.314C684.223,955.314 689.837,954.863 695.451,953.959C696.29,953.83 697.081,954.024 697.823,954.54C698.565,955.056 699,955.782 699.13,956.718C699.259,957.653 699.049,958.492 698.5,959.234C697.952,959.977 697.258,960.412 696.419,960.541C690.289,961.509 684.352,961.993 678.609,961.993C670.091,961.993 663.218,960.477 657.991,957.444C652.764,954.411 650.151,950.474 650.151,945.635ZM621.693,963.058C620.789,962.8 620.095,962.284 619.611,961.509C619.127,960.735 619.047,959.864 619.369,958.896C626.016,939.988 631.598,920.048 636.115,899.076C636.244,898.753 636.115,898.592 635.728,898.592L624.403,898.592C623.564,898.592 622.806,898.253 622.128,897.575C621.451,896.898 621.112,896.14 621.112,895.301C621.112,894.397 621.451,893.607 622.128,892.929C622.806,892.252 623.564,891.913 624.403,891.913L637.083,891.913C637.406,891.913 637.599,891.784 637.664,891.526C638.438,887.46 639.019,884.395 639.406,882.33C639.535,881.426 639.987,880.668 640.761,880.055C641.536,879.442 642.439,879.2 643.472,879.329L643.762,879.329C644.666,879.458 645.408,879.894 645.988,880.636C646.569,881.378 646.795,882.201 646.666,883.104L645.117,891.429C644.988,891.751 645.117,891.913 645.504,891.913L676.382,891.913C677.221,891.913 677.98,892.235 678.657,892.881C679.335,893.526 679.673,894.333 679.673,895.301C679.673,896.14 679.335,896.898 678.657,897.575C677.98,898.253 677.221,898.592 676.382,898.592L644.149,898.592C643.891,898.592 643.698,898.753 643.569,899.076C638.922,921.145 633.276,941.698 626.629,960.735C626.307,961.638 625.71,962.332 624.838,962.816C623.967,963.3 623.048,963.413 622.08,963.155L621.693,963.058Z" style="fill-rule:nonzero;stroke:#000;stroke-width:2.87px;"/>
            <path d="M723.909,900.044C723.006,900.044 722.215,899.705 721.538,899.027C720.86,898.35 720.521,897.591 720.521,896.753C720.521,895.849 720.876,895.059 721.586,894.381C722.296,893.703 723.07,893.365 723.909,893.365C735.525,893.365 749.754,893.139 766.596,892.687C766.855,892.687 766.984,892.494 766.984,892.106C766.661,890.106 766.274,887.073 765.822,883.007C765.693,882.104 765.951,881.265 766.596,880.491C767.242,879.716 768.048,879.297 769.016,879.232L769.307,879.232C770.275,879.168 771.114,879.442 771.823,880.055C772.533,880.668 772.953,881.491 773.082,882.524C773.469,886.783 773.824,889.945 774.147,892.01C774.147,892.332 774.372,892.494 774.824,892.494C775.405,892.494 782.439,892.203 795.926,891.622C796.765,891.558 797.539,891.832 798.249,892.445C798.959,893.058 799.346,893.849 799.41,894.817C799.475,895.656 799.185,896.43 798.539,897.14C797.894,897.85 797.12,898.237 796.216,898.301C787.633,898.688 780.89,898.947 775.986,899.076C775.857,899.076 775.76,899.14 775.695,899.269C775.631,899.398 775.631,899.495 775.695,899.56C777.825,908.529 781.245,916.886 785.956,924.63C786.472,925.404 786.633,926.275 786.44,927.243C786.246,928.211 785.73,928.921 784.891,929.373L784.213,929.76C782.277,930.922 780.309,930.889 778.309,929.663C771.081,925.404 763.209,923.307 754.691,923.372C748.173,923.372 743.075,924.646 739.397,927.195C735.718,929.744 733.879,933.309 733.879,937.891C733.879,949.506 743.559,955.314 762.918,955.314C769.436,955.314 776.147,954.766 783.052,953.669C783.955,953.54 784.778,953.733 785.52,954.249C786.262,954.766 786.73,955.476 786.924,956.379C787.053,957.282 786.843,958.105 786.294,958.847C785.746,959.589 785.052,960.057 784.213,960.251C776.728,961.412 769.613,961.993 762.87,961.993C756.126,961.993 750.302,961.316 745.398,959.96C740.494,958.605 736.686,956.75 733.976,954.395C731.266,952.039 729.298,949.458 728.072,946.651C726.845,943.844 726.232,940.795 726.232,937.504C726.232,931.115 728.701,926.05 733.637,922.307C738.574,918.564 745.463,916.693 754.303,916.693C762.112,916.693 769.468,918.37 776.373,921.726L776.663,921.726L776.663,921.532C772.985,914.886 770.242,907.594 768.436,899.656C768.371,899.463 768.145,899.366 767.758,899.366C750.464,899.818 735.848,900.044 723.909,900.044Z" style="fill-rule:nonzero;stroke:#000;stroke-width:2.87px;"/>
            <path d="M892.044,947.474C891.528,927.534 887.656,909.852 880.429,894.429C880.042,893.591 880.025,892.736 880.38,891.864C880.735,890.993 881.364,890.429 882.268,890.17L882.558,890.17C883.526,889.848 884.478,889.88 885.414,890.267C886.349,890.654 887.043,891.3 887.495,892.203C895.239,908.142 899.304,926.598 899.691,947.571C899.691,948.474 899.352,949.281 898.675,949.99C897.997,950.7 897.175,951.055 896.207,951.055L895.626,951.055C894.658,951.055 893.819,950.7 893.109,949.99C892.399,949.281 892.044,948.442 892.044,947.474ZM841.904,961.316C836.741,961.316 831.982,957.605 827.626,950.184C823.271,942.763 821.093,933.825 821.093,923.372C821.093,912.918 822.287,902.754 824.674,892.881C824.932,891.913 825.465,891.138 826.271,890.558C827.078,889.977 827.998,889.783 829.03,889.977L829.417,890.074C830.321,890.203 831.047,890.638 831.595,891.38C832.144,892.122 832.289,892.945 832.031,893.849C829.708,903.786 828.578,913.627 828.643,923.372C828.643,931.954 830.159,939.165 833.192,945.005C836.225,950.845 839.29,953.766 842.388,953.766C844.324,953.766 846.824,951.91 849.89,948.2C852.955,944.489 855.907,939.246 858.746,932.47C859.134,931.567 859.779,930.922 860.682,930.534C861.586,930.147 862.457,930.115 863.296,930.438L863.683,930.534C864.522,930.857 865.151,931.47 865.571,932.374C865.99,933.277 866.038,934.18 865.716,935.084C862.489,943.279 858.65,949.7 854.197,954.346C849.744,958.993 845.647,961.316 841.904,961.316Z" style="fill-rule:nonzero;stroke:#000;stroke-width:2.87px;"/>
        </g>
        <g transform="matrix(0.134502,0,0,0.141261,46.6687,-25.3824)">
            <path d="M432.456,842.934C432.327,843.192 432.392,843.321 432.65,843.321L464.883,843.321C465.205,843.321 465.367,843.16 465.367,842.837L465.367,784.759C465.367,784.437 465.205,784.275 464.883,784.275L440.103,784.275C439.78,784.275 439.587,784.437 439.522,784.759C439.522,806.635 439.2,820.364 438.554,825.946C437.909,831.528 435.876,837.191 432.456,842.934ZM420.937,865.875C419.969,865.875 419.147,865.536 418.469,864.858C417.791,864.181 417.453,863.358 417.453,862.39L417.453,846.903C417.453,845.935 417.791,845.096 418.469,844.386C419.147,843.676 419.969,843.321 420.937,843.321L422.486,843.321C422.809,843.321 423.067,843.192 423.26,842.934C425.067,840.288 426.406,838.11 427.277,836.4C428.149,834.69 428.955,832.673 429.697,830.35C430.439,828.027 430.923,824.752 431.149,820.526C431.375,816.299 431.553,811.653 431.682,806.587C431.811,801.521 431.875,794.084 431.875,784.275L431.875,781.081C431.875,780.113 432.198,779.29 432.843,778.613C433.489,777.935 434.295,777.596 435.263,777.596L469.819,777.596C470.787,777.596 471.61,777.935 472.288,778.613C472.965,779.29 473.304,780.113 473.304,781.081L473.304,842.837C473.304,843.16 473.465,843.321 473.788,843.321L478.047,843.321C479.015,843.321 479.838,843.676 480.515,844.386C481.193,845.096 481.532,845.935 481.532,846.903L481.532,862.39C481.532,863.358 481.193,864.181 480.515,864.858C479.838,865.536 479.015,865.875 478.047,865.875L477.757,865.875C476.789,865.875 475.966,865.536 475.288,864.858C474.611,864.181 474.272,863.358 474.272,862.39L474.272,850.484C474.272,850.161 474.111,850 473.788,850L425.196,850C424.874,850 424.712,850.161 424.712,850.484L424.712,862.39C424.712,863.358 424.374,864.181 423.696,864.858C423.018,865.536 422.196,865.875 421.228,865.875L420.937,865.875Z" style="fill-rule:nonzero;stroke:#000;stroke-width:4.54px;"/>
        </g>
        <g transform="matrix(-0.505548,0,0,0.41192,170.339,59.7605)">
            <path d="M143,60L147,65" style="fill:none;stroke:#000;stroke-width:3.61px;stroke-miterlimit:1.5;"/>
        </g>
        <g transform="matrix(0.505548,0,0,0.41192,44.0765,59.8322)">
            <path d="M143,60L147,65" style="fill:none;stroke:#000;stroke-width:3.61px;stroke-miterlimit:1.5;"/>
        </g>
        <g transform="matrix(-0.316538,0.113408,0.112986,0.318031,54.9305,-80.3593)">
            <path d="M80.267,548.185L103,568" style="fill:none;stroke:#000;stroke-width:4.94px;stroke-miterlimit:1.5;"/>
        </g>
        <g transform="matrix(-0.316538,0.113408,0.112986,0.318031,90.7457,-80.3593)">
            <path d="M80.267,548.185L103,568" style="fill:none;stroke:#000;stroke-width:4.94px;stroke-miterlimit:1.5;"/>
        </g>
        <g transform="matrix(-0.316538,0.113408,0.112986,0.318031,99.0107,-44.3146)">
            <path d="M80.267,548.185L103,568" style="fill:none;stroke:#000;stroke-width:4.94px;stroke-miterlimit:1.5;"/>
        </g>
        <g transform="matrix(-0.316538,0.113408,0.112986,0.318031,90.5161,-29.3916)">
            <path d="M80.267,548.185L103,568" style="fill:none;stroke:#000;stroke-width:4.94px;stroke-miterlimit:1.5;"/>
        </g>
        <g transform="matrix(-0.316538,0.113408,0.112986,0.318031,60.2109,-44.3146)">
            <path d="M80.267,548.185L103,568" style="fill:none;stroke:#000;stroke-width:4.94px;stroke-miterlimit:1.5;"/>
        </g>
        <g transform="matrix(-0.316538,0.113408,0.112986,0.318031,66.6393,-61.763)">
            <path d="M80.267,548.185L103,568" style="fill:none;stroke:#000;stroke-width:4.94px;stroke-miterlimit:1.5;"/>
        </g>
        <g transform="matrix(-0.316538,0.113408,0.112986,0.318031,45.2879,-63.1405)">
            <path d="M80.267,548.185L103,568" style="fill:none;stroke:#000;stroke-width:4.94px;stroke-miterlimit:1.5;"/>
        </g>
        <g transform="matrix(-0.316538,0.113408,0.112986,0.318031,89.3681,-61.5334)">
            <path d="M80.267,548.185L103,568" style="fill:none;stroke:#000;stroke-width:4.94px;stroke-miterlimit:1.5;"/>
        </g>
        <g transform="matrix(-0.316538,0.113408,0.112986,0.318031,82.9398,-44.7737)">
            <path d="M80.267,548.185L103,568" style="fill:none;stroke:#000;stroke-width:4.94px;stroke-miterlimit:1.5;"/>
        </g>
        <g transform="matrix(-0.316538,0.113408,0.112986,0.318031,106.128,-61.0742)">
            <path d="M80.267,548.185L103,568" style="fill:none;stroke:#000;stroke-width:4.94px;stroke-miterlimit:1.5;"/>
        </g>
        <g transform="matrix(0.521278,0.186761,-0.0830887,0.233878,142.691,-3.9678)">
            <path d="M80.267,548.185L103,568" style="fill:none;stroke:#000;stroke-width:3.88px;stroke-miterlimit:1.5;"/>
        </g>
        <g transform="matrix(0.521278,0.186761,-0.0830887,0.233878,208.929,10.3296)">
            <path d="M80.267,548.185L103,568" style="fill:none;stroke:#000;stroke-width:3.88px;stroke-miterlimit:1.5;"/>
        </g>
        <g transform="matrix(0.521278,0.186761,-0.0830887,0.233878,194.006,-3.67502)">
            <path d="M80.267,548.185L103,568" style="fill:none;stroke:#000;stroke-width:3.88px;stroke-miterlimit:1.5;"/>
        </g>
        <g transform="matrix(0.521278,0.186761,-0.0830887,0.233878,159.568,28.6964)">
            <path d="M80.267,548.185L103,568" style="fill:none;stroke:#000;stroke-width:3.88px;stroke-miterlimit:1.5;"/>
        </g>
        <g transform="matrix(0.521278,0.186761,-0.0830887,0.233878,176.099,44.7673)">
            <path d="M80.267,548.185L103,568" style="fill:none;stroke:#000;stroke-width:3.88px;stroke-miterlimit:1.5;"/>
        </g>
        <g transform="matrix(-0.521278,0.186761,0.0830887,0.233878,54.9215,-5.05331)">
            <path d="M80.267,548.185L103,568" style="fill:none;stroke:#000;stroke-width:3.88px;stroke-miterlimit:1.5;"/>
        </g>
        <g transform="matrix(-0.521278,0.186761,0.0830887,0.233878,41.3761,9.86967)">
            <path d="M80.267,548.185L103,568" style="fill:none;stroke:#000;stroke-width:3.88px;stroke-miterlimit:1.5;"/>
        </g>
        <g transform="matrix(-0.521278,0.186761,0.0830887,0.233878,24.846,28.2364)">
            <path d="M80.267,548.185L103,568" style="fill:none;stroke:#000;stroke-width:3.88px;stroke-miterlimit:1.5;"/>
        </g>
        <g transform="matrix(-0.521278,0.186761,0.0830887,0.233878,11.0709,43.389)">
            <path d="M80.267,548.185L103,568" style="fill:none;stroke:#000;stroke-width:3.88px;stroke-miterlimit:1.5;"/>
        </g>
        <g transform="matrix(-0.521278,0.186761,0.0830887,0.233878,161.155,64.4847)">
            <path d="M80.267,548.185L103,568" style="fill:none;stroke:#000;stroke-width:3.88px;stroke-miterlimit:1.5;"/>
        </g>
        <g transform="matrix(-0.521278,0.186761,0.0830887,0.233878,166.782,10.1142)">
            <path d="M80.267,548.185L103,568" style="fill:none;stroke:#000;stroke-width:3.88px;stroke-miterlimit:1.5;"/>
        </g>
        <g transform="matrix(-0.521278,0.186761,0.0830887,0.233878,181.934,-4.34963)">
            <path d="M80.267,548.185L103,568" style="fill:none;stroke:#000;stroke-width:3.88px;stroke-miterlimit:1.5;"/>
        </g>
        <g transform="matrix(-0.521278,0.186761,0.0830887,0.233878,192.954,45.2406)">
            <path d="M80.267,548.185L103,568" style="fill:none;stroke:#000;stroke-width:3.88px;stroke-miterlimit:1.5;"/>
        </g>
        <g transform="matrix(-0.521278,0.186761,0.0830887,0.233878,211.091,28.0218)">
            <path d="M80.267,548.185L103,568" style="fill:none;stroke:#000;stroke-width:3.88px;stroke-miterlimit:1.5;"/>
        </g>
        <g transform="matrix(-0.509258,0,0,0.509258,742.003,-119.805)">
            <path d="M1199,389L1208,370L1217,389" style="fill:none;stroke:#000;stroke-width:3.27px;stroke-miterlimit:1.5;"/>
        </g>
        <g transform="matrix(-0.509258,0,0,0.509258,712.322,-119.805)">
            <path d="M1199,389L1208,370L1217,389" style="fill:none;stroke:#000;stroke-width:3.27px;stroke-miterlimit:1.5;"/>
        </g>
        <g transform="matrix(-0.509258,0,0,0.509258,172.558,54.3615)">
            <path d="M77,61C72.148,68 71.875,75 77,82" style="fill:none;stroke:#000;stroke-width:3.27px;stroke-miterlimit:1.5;"/>
        </g>
        <g transform="matrix(-3.1183e-17,0.509258,0.509258,3.1183e-17,99.5387,65.3702)">
            <path d="M77,61C72.148,68 71.875,75 77,82" style="fill:none;stroke:#000;stroke-width:3.27px;stroke-miterlimit:1.5;"/>
        </g>
        <g transform="matrix(-3.1183e-17,0.509258,0.509258,3.1183e-17,75.8456,82.8186)">
            <path d="M77,61C72.148,68 71.875,75 77,82" style="fill:none;stroke:#000;stroke-width:3.27px;stroke-miterlimit:1.5;"/>
        </g>
        <g transform="matrix(-3.1183e-17,0.509258,0.509258,3.1183e-17,53.8055,82.8186)">
            <path d="M77,61C72.148,68 71.875,75 77,82" style="fill:none;stroke:#000;stroke-width:3.27px;stroke-miterlimit:1.5;"/>
        </g>
        <g transform="matrix(0.509258,0,0,0.509258,50.892,54.3615)">
            <path d="M77,61C72.148,68 71.875,75 77,82" style="fill:none;stroke:#000;stroke-width:3.27px;stroke-linejoin:miter;"/>
        </g>
        <g transform="matrix(0.509258,0,0,0.509258,25.8673,120.941)">
            <path d="M77,61C72.148,68 71.875,75 77,82" style="fill:none;stroke:#000;stroke-width:3.27px;stroke-linejoin:miter;"/>
        </g>
        <g transform="matrix(0.509258,0,0,0.509258,30.9181,107.625)">
            <path d="M77,61C72.148,68 71.875,75 77,82" style="fill:none;stroke:#000;stroke-width:3.27px;stroke-linejoin:miter;"/>
        </g>
        <g transform="matrix(-0.492989,0,0,0.508764,168.546,50.9021)">
            <path d="M103,55L128,55" style="fill:none;stroke:#000;stroke-width:3.33px;stroke-miterlimit:1.5;"/>
        </g>
        <g transform="matrix(-2.98526e-17,-0.487531,-0.508764,3.11528e-17,185.346,200.322)">
            <path d="M103,55L128,55" style="fill:none;stroke:#000;stroke-width:3.34px;stroke-miterlimit:1.5;"/>
        </g>
        <g transform="matrix(-2.98526e-17,-0.487531,-0.508764,3.11528e-17,179.377,231.776)">
            <path d="M103,55L128,55" style="fill:none;stroke:#000;stroke-width:3.34px;stroke-miterlimit:1.5;"/>
        </g>
        <g transform="matrix(-2.98526e-17,-0.487531,-0.508764,3.11528e-17,61.1408,231.776)">
            <path d="M103,55L128,55" style="fill:none;stroke:#000;stroke-width:3.34px;stroke-miterlimit:1.5;"/>
        </g>
        <g transform="matrix(-2.98526e-17,-0.487531,-0.508764,3.11528e-17,61.1408,249.454)">
            <path d="M103,55L128,55" style="fill:none;stroke:#000;stroke-width:3.34px;stroke-miterlimit:1.5;"/>
        </g>
        <g transform="matrix(-2.98526e-17,-0.487531,-0.508764,3.11528e-17,60.9112,266.902)">
            <path d="M103,55L128,55" style="fill:none;stroke:#000;stroke-width:3.34px;stroke-miterlimit:1.5;"/>
        </g>
        <g transform="matrix(-2.98526e-17,-0.487531,-0.508764,3.11528e-17,179.377,250.142)">
            <path d="M103,55L128,55" style="fill:none;stroke:#000;stroke-width:3.34px;stroke-miterlimit:1.5;"/>
        </g>
        <g transform="matrix(-2.98526e-17,-0.487531,-0.508764,3.11528e-17,179.377,267.361)">
            <path d="M103,55L128,55" style="fill:none;stroke:#000;stroke-width:3.34px;stroke-miterlimit:1.5;"/>
        </g>
        <g transform="matrix(-2.98526e-17,-0.487531,-0.508764,3.11528e-17,183.28,181.956)">
            <path d="M103,55L128,55" style="fill:none;stroke:#000;stroke-width:3.34px;stroke-miterlimit:1.5;"/>
        </g>
        <g transform="matrix(-1.14632,0,0,0.875477,305.112,84.248)">
            <path d="M103,55L128,55" style="fill:none;stroke:#000;stroke-width:1.63px;stroke-miterlimit:1.5;"/>
        </g>
        <g transform="matrix(-0.53103,0,0,0.95964,129.7,78.9303)">
            <path d="M103,55L128,55" style="fill:none;stroke:#000;stroke-width:2.15px;stroke-miterlimit:1.5;"/>
        </g>
        <g transform="matrix(-1.1004,0,0,0.846596,261.812,122.34)">
            <path d="M103,55L128,55" style="fill:none;stroke:#000;stroke-width:1.7px;stroke-miterlimit:1.5;"/>
        </g>
        <g transform="matrix(-2.08302,0,0,1.60258,333.865,76.3992)">
            <path d="M103,55L128,55" style="fill:none;stroke:#000;stroke-width:0.9px;stroke-miterlimit:1.5;"/>
        </g>
        <g transform="matrix(-0.53103,0,0,0.40855,166.663,127.377)">
            <path d="M103,55L128,55" style="fill:none;stroke:#000;stroke-width:3.52px;stroke-miterlimit:1.5;"/>
        </g>
        <g transform="matrix(5.22392e-17,0.637266,0.743954,-3.22809e-17,-76.212,89.829)">
            <path d="M81,202.429C79.263,207.256 75.652,210.808 78.833,214.429C79.995,215.75 81.461,216.383 82.901,216.638C85.736,217.139 88.612,215.962 89.938,213.758C90.815,212.201 91.625,210.818 91.833,208.429" style="fill:none;stroke:#000;stroke-width:2.41px;stroke-miterlimit:1.5;"/>
        </g>
        <g transform="matrix(-1.17387,0,0,0.903118,186.27,119.461)">
            <path d="M103,55L128,55" style="fill:none;stroke:#000;stroke-width:1.59px;stroke-miterlimit:1.5;"/>
        </g>
        <g transform="matrix(0.53488,0,0,0.53488,-127.533,115.64)">
            <path d="M518,74C522.617,77.095 528.023,81.785 531,85" style="fill:none;stroke:#000;stroke-width:3.12px;stroke-miterlimit:1.5;"/>
        </g>
        <g transform="matrix(0.53488,0,0,0.53488,-131.207,65.8661)">
            <path d="M518,74C522.617,77.095 528.023,81.785 531,85" style="fill:none;stroke:#000;stroke-width:3.12px;stroke-miterlimit:1.5;"/>
        </g>
    </g>
</svg>
