<?xml version="1.0" encoding="UTF-8" standalone="no"?>
<!DOCTYPE svg PUBLIC "-//W3C//DTD SVG 1.1//EN" "http://www.w3.org/Graphics/SVG/1.1/DTD/svg11.dtd">
<svg width="95px" height="104px" version="1.1" xmlns="http://www.w3.org/2000/svg" xmlns:xlink="http://www.w3.org/1999/xlink" xml:space="preserve" xmlns:serif="http://www.serif.com/" style="fill-rule:evenodd;clip-rule:evenodd;stroke-linejoin:round;stroke-miterlimit:2;">
    <g transform="matrix(0.620106,0,0,0.620106,-20.2003,-18.7722)">
        <path d="M43.463,99.302L43.463,108.563C43.635,113.429 48.575,114.219 48.486,116.976L48.486,132.964L48.162,145.404C47.374,145.074 49.43,146.037 47.128,148.397C45.977,149.577 43.77,151.785 42.717,153.825C42.012,157.826 41.993,159.265 38.862,161.633C33.006,170.99 30.547,176.178 39.466,185.174C40.35,186.26 40.399,187.346 39.466,188.431C41.666,190.791 44.129,192.165 47.128,191.53C46.715,195.896 49.899,196.752 55.872,195.53C57.092,197.236 58.852,197.682 61.029,197.153C64.16,194.786 64.006,193.864 65.19,192.138L98.486,192.138C100.206,190.803 100.929,189.567 100.653,188.431C101.587,187.346 101.537,186.26 100.653,185.174C102.773,183.258 103.731,181.341 103.855,179.425C106.986,177.057 108.261,174.57 108.966,170.568C109.486,169.009 110.496,168.545 112.754,170.87L122.413,179.282C125.76,183.068 124.55,183.201 127.457,189.142C129.927,190.798 132.818,193.307 134.411,195.026C135.813,197.004 137.368,197.457 139.02,196.94C143.627,194.077 144.664,188.173 144.066,184.519C144.01,184.329 144.095,184.126 144.268,184.031C144.442,183.936 144.659,183.975 144.789,184.124C146.458,186.027 149.16,189.142 149.16,189.142C151.63,190.798 154.521,193.307 156.113,195.026C157.166,196.948 158.569,197.47 160.235,196.94C163.366,194.572 164.641,192.085 165.346,188.083C166.116,185.181 167.426,182.387 169.388,179.724L174.081,171.312C174.554,169.624 174.953,167.986 175.221,165.955C175.635,162.82 176.438,161.131 176.755,160.803C182.085,153.014 184.88,146.199 185.021,140.405C184.049,138.98 181.816,139.315 181.187,140.61C181.266,140.192 178.174,138.247 176.755,141.214C176.479,138.722 172.682,138.468 172.096,141.214C171.107,145.846 172.335,138.13 169.995,134.753C169.198,132.192 167.662,129.754 165.668,127.392L156.008,118.98C156.171,115.802 155.203,112.756 153.195,109.833L145.383,103.03C144.982,98.488 143.867,94.581 141.67,91.636L132.903,84.001C133.046,80.379 131.69,77.272 130.301,75.337L122.413,68.441C120.994,67.738 118.26,66.388 115.955,68.441C112.578,66.102 109.201,65.97 105.824,68.441C103.36,68.647 102.085,65.108 105.074,63.795C107.571,62.698 109.589,61.105 111.16,59.073C113.631,55.696 113.499,52.319 111.16,48.942C110.152,47.186 108.449,44.924 106.093,42.188L101.754,33.022L97.415,42.188C96.313,43.356 94.897,43.816 93.305,43.881L79.092,43.881C77.315,43.865 76.285,43.185 75.612,42.188L71.273,33.022L67.152,41.728L66.14,48.643C63.801,52.02 63.973,55.507 66.444,58.884C66.711,59.477 67.016,59.986 67.348,60.442C67.961,61.284 69.509,62.377 70.106,63.162C71.07,64.43 71.112,67.031 70.106,68.441C69.934,68.682 69.63,68.947 69.25,69.191C68.008,69.983 66.451,70.094 65.11,69.486C55.76,65.286 47.372,67.531 46.758,70.95L43.991,75.91C41.111,82.381 42.556,88.089 46.19,93.41C44.755,94.498 42.508,96.412 43.463,99.302ZM163.913,147.488C161.181,151.6 158.606,156.658 156.034,161.737C154.566,159.002 152.517,156.485 151.906,153.532C150.949,148.91 149.204,145.073 147.306,141.649C147.306,141.649 149.336,143.552 151.078,145.186C152.655,146.665 154.736,147.488 156.898,147.488L163.913,147.488ZM115.273,101.966C116.069,99.901 117.411,100.018 119.204,101.944L128.864,110.356C131.043,113.828 133.47,118.123 133.254,120.477C129.291,117.884 118.175,116.219 112.639,120.026C110.789,123.186 108.949,125.912 107.619,128.524C107.497,128.785 107.208,128.925 106.928,128.858C106.647,128.791 106.452,128.536 106.462,128.247C106.514,125.557 106.631,121.786 106.876,120.026C107.352,116.609 108.914,113.361 110.162,110.822C113.766,108.289 115.022,104.978 115.273,101.966Z" style="fill:white;"/>
    </g>
    <g transform="matrix(0.620106,0,0,0.620106,-20.62,-31.0395)">
        <path d="M65.997,207.935C65.334,211.698 64.148,214.045 61.204,216.271C60.837,216.549 60.765,217.071 61.042,217.438C61.319,217.805 61.842,217.877 62.208,217.6C65.526,215.092 66.891,212.463 67.638,208.224C67.717,207.771 67.415,207.339 66.962,207.259C66.509,207.179 66.077,207.482 65.997,207.935ZM165.202,207.722C164.539,211.485 163.353,213.832 160.409,216.058C160.042,216.336 159.97,216.858 160.247,217.225C160.524,217.592 161.047,217.664 161.413,217.387C164.731,214.879 166.096,212.25 166.843,208.011C166.922,207.558 166.62,207.126 166.167,207.046C165.714,206.966 165.282,207.269 165.202,207.722ZM143.987,207.722C143.324,211.485 142.138,213.832 139.194,216.058C138.827,216.336 138.755,216.858 139.032,217.225C139.309,217.592 139.832,217.664 140.198,217.387C143.516,214.879 144.881,212.25 145.628,208.011C145.707,207.558 145.405,207.126 144.952,207.046C144.499,206.966 144.067,207.269 143.987,207.722ZM56.548,206.953L51.807,206.953C50.516,206.953 49.277,207.466 48.364,208.379L48.363,208.379C47.45,209.293 46.937,210.531 46.937,211.823L46.937,211.826C46.937,212.972 47.392,214.071 48.203,214.881C49.013,215.691 50.112,216.146 51.257,216.146L56.548,216.146C57.009,216.146 57.383,215.773 57.383,215.312C57.383,214.852 57.009,214.478 56.548,214.478L51.257,214.478C50.554,214.478 49.88,214.198 49.382,213.701C48.885,213.204 48.606,212.529 48.606,211.826L48.606,211.823C48.606,210.974 48.943,210.16 49.543,209.559C50.144,208.959 50.958,208.622 51.807,208.622L56.548,208.622C57.009,208.622 57.383,208.248 57.383,207.787C57.383,207.327 57.009,206.953 56.548,206.953ZM149.372,209.618C151.789,211.238 154.619,213.692 156.178,215.375C156.491,215.713 157.019,215.734 157.357,215.421C157.695,215.108 157.715,214.579 157.402,214.241C155.776,212.485 152.823,209.922 150.301,208.232C149.919,207.975 149.4,208.078 149.143,208.46C148.887,208.843 148.989,209.361 149.372,209.618ZM127.67,209.618C130.087,211.238 132.917,213.692 134.476,215.375C134.789,215.713 135.317,215.734 135.655,215.421C135.993,215.108 136.013,214.579 135.7,214.241C134.074,212.485 131.121,209.922 128.599,208.232C128.217,207.975 127.698,208.078 127.441,208.46C127.185,208.843 127.287,209.361 127.67,209.618ZM69.724,212.757L99.164,212.757C99.625,212.757 100,212.382 100,211.921C100,211.459 99.625,211.084 99.164,211.084L69.724,211.084C69.262,211.084 68.887,211.459 68.887,211.921C68.887,212.382 69.262,212.757 69.724,212.757ZM39.496,205.483C39.801,205.857 39.986,206.221 39.991,206.595C39.995,206.957 39.822,207.309 39.511,207.671C39.211,208.02 39.25,208.546 39.599,208.846C39.948,209.146 40.474,209.106 40.774,208.757C41.396,208.034 41.665,207.3 41.657,206.576C41.649,205.865 41.368,205.143 40.788,204.431C40.498,204.075 39.973,204.021 39.616,204.311C39.26,204.601 39.206,205.127 39.496,205.483ZM100.684,205.483C100.989,205.857 101.174,206.221 101.179,206.595C101.183,206.957 101.01,207.309 100.698,207.671C100.399,208.02 100.438,208.546 100.787,208.846C101.136,209.146 101.662,209.106 101.962,208.757C102.584,208.034 102.853,207.3 102.845,206.576C102.837,205.865 102.556,205.143 101.976,204.431C101.686,204.075 101.161,204.021 100.804,204.311C100.448,204.601 100.394,205.127 100.684,205.483ZM174.029,190.689L169.336,199.101C169.112,199.503 169.256,200.011 169.658,200.235C170.06,200.459 170.569,200.315 170.793,199.913L175.486,191.501C175.71,191.099 175.565,190.591 175.164,190.367C174.762,190.142 174.253,190.287 174.029,190.689ZM165.392,189.813C167.508,192.868 167.639,195.922 165.404,198.977C165.132,199.348 165.213,199.871 165.585,200.143C165.957,200.415 166.479,200.334 166.751,199.962C169.458,196.262 169.326,192.563 166.763,188.863C166.501,188.485 165.981,188.39 165.603,188.653C165.224,188.915 165.13,189.435 165.392,189.813ZM35.222,188.744C32.66,192.444 32.528,196.143 35.235,199.843C35.507,200.215 36.029,200.296 36.401,200.024C36.772,199.752 36.853,199.229 36.581,198.858C34.347,195.803 34.478,192.749 36.594,189.694C36.856,189.316 36.762,188.796 36.383,188.534C36.005,188.271 35.484,188.366 35.222,188.744ZM62.341,190.207C61.678,193.97 60.492,196.317 57.548,198.543C57.181,198.821 57.109,199.343 57.386,199.71C57.663,200.077 58.186,200.149 58.552,199.872C61.87,197.364 63.235,194.735 63.982,190.496C64.061,190.043 63.759,189.611 63.306,189.531C62.853,189.451 62.421,189.754 62.341,190.207ZM108.823,190.207C108.16,193.97 106.974,196.317 104.03,198.543C103.663,198.821 103.591,199.343 103.868,199.71C104.145,200.077 104.668,200.149 105.034,199.872C108.352,197.364 109.717,194.735 110.464,190.496C110.543,190.043 110.241,189.611 109.788,189.531C109.335,189.451 108.903,189.754 108.823,190.207ZM112.883,191.281L122.543,199.693C122.89,199.995 123.417,199.959 123.719,199.612C124.022,199.265 123.985,198.738 123.638,198.435L113.978,190.023C113.631,189.721 113.104,189.758 112.802,190.105C112.5,190.452 112.536,190.979 112.883,191.281ZM132.099,190.726L141.759,199.138C142.106,199.441 142.633,199.404 142.935,199.057C143.238,198.71 143.201,198.183 142.854,197.881L133.194,189.469C132.847,189.167 132.32,189.203 132.018,189.55C131.716,189.897 131.752,190.424 132.099,190.726ZM124.121,170.789C123.914,170.789 123.737,170.868 123.592,171.032C123.459,171.182 123.39,171.364 123.39,171.579L123.39,172.759C123.39,174.885 122.965,176.792 122.111,178.481C121.262,180.16 120.08,181.47 118.562,182.411C118.56,182.412 118.557,182.414 118.555,182.415C118.395,182.52 118.289,182.673 118.242,182.876L118.242,182.877C118.198,183.071 118.224,183.254 118.321,183.427L118.357,183.503C118.464,183.692 118.62,183.811 118.822,183.862C119.024,183.914 119.216,183.888 119.399,183.785C119.401,183.784 119.403,183.783 119.405,183.781C120.587,183.07 121.624,182.079 122.517,180.808C123.244,179.771 123.815,178.632 124.228,177.39C124.639,178.623 125.2,179.759 125.912,180.798C126.788,182.075 127.809,183.069 128.974,183.78C128.979,183.783 128.984,183.786 128.989,183.789C129.183,183.891 129.375,183.912 129.563,183.861C129.753,183.809 129.904,183.693 130.01,183.504L130,183.52L130.039,183.44C130.154,183.261 130.183,183.07 130.13,182.868C130.078,182.668 129.97,182.519 129.813,182.415C129.811,182.414 129.809,182.413 129.807,182.411C128.289,181.461 127.106,180.146 126.257,178.467C125.403,176.778 124.978,174.875 124.978,172.759L124.978,171.579C124.978,171.364 124.909,171.182 124.776,171.032C124.631,170.868 124.454,170.789 124.247,170.789L124.247,170.79L124.121,170.789ZM42.574,173.463C41.911,177.226 40.725,179.573 37.78,181.799C37.414,182.077 37.341,182.599 37.618,182.966C37.896,183.333 38.419,183.405 38.785,183.128C42.103,180.62 43.467,177.991 44.214,173.752C44.294,173.299 43.991,172.867 43.539,172.787C43.086,172.707 42.654,173.01 42.574,173.463ZM156.628,182.357L156.687,182.359L156.727,182.354C156.78,182.354 156.833,182.347 156.885,182.335L156.886,182.335L156.885,182.335C157.128,182.282 157.338,182.122 157.452,181.894L161.665,173.482C161.871,173.069 161.704,172.567 161.292,172.36C160.879,172.154 160.377,172.321 160.17,172.733L156.696,179.672L153.23,172.738C153.024,172.325 152.522,172.158 152.109,172.364C151.697,172.57 151.529,173.073 151.735,173.485L155.939,181.897C156.072,182.163 156.335,182.336 156.628,182.357ZM181.396,171.768L176.703,180.18C176.479,180.582 176.623,181.09 177.025,181.314C177.427,181.538 177.936,181.394 178.16,180.992L182.853,172.58C183.077,172.178 182.932,171.67 182.531,171.446C182.129,171.221 181.62,171.366 181.396,171.768ZM65.408,172.805L65.408,175.041C65.408,175.501 65.782,175.875 66.242,175.875C66.702,175.875 67.075,175.501 67.075,175.041L67.075,172.805C67.075,172.345 66.702,171.971 66.242,171.971C65.782,171.971 65.408,172.345 65.408,172.805ZM154.837,168.102L167.068,168.102C167.527,168.102 167.899,167.73 167.899,167.271C167.899,166.812 167.527,166.44 167.068,166.44L154.837,166.44C154.378,166.44 154.006,166.812 154.006,167.271C154.006,167.73 154.378,168.102 154.837,168.102ZM70.875,163.389L70.875,165.625C70.875,166.085 71.249,166.459 71.709,166.459C72.169,166.459 72.542,166.085 72.542,165.625L72.542,163.389C72.542,162.929 72.169,162.555 71.709,162.555C71.249,162.555 70.875,162.929 70.875,163.389ZM49.996,165.069L49.996,152.747C49.996,152.287 49.622,151.914 49.162,151.914C48.702,151.914 48.329,152.287 48.329,152.747L48.329,165.069C48.329,165.529 48.702,165.902 49.162,165.902C49.622,165.902 49.996,165.529 49.996,165.069ZM108.831,165.069L108.831,152.747C108.831,152.287 108.458,151.914 107.998,151.914C107.538,151.914 107.165,152.287 107.165,152.747L107.165,165.069C107.165,165.529 107.538,165.902 107.998,165.902C108.458,165.902 108.831,165.529 108.831,165.069ZM169.986,155.01C172.102,158.065 172.233,161.119 169.998,164.174C169.726,164.545 169.807,165.068 170.179,165.34C170.551,165.612 171.073,165.531 171.345,165.159C174.052,161.459 173.92,157.76 171.357,154.06C171.095,153.682 170.575,153.587 170.197,153.85C169.818,154.112 169.724,154.632 169.986,155.01ZM178.592,159.048C178.56,158.989 178.522,158.937 178.481,158.892C178.325,158.719 178.102,158.606 177.791,158.606C177.479,158.606 177.256,158.719 177.101,158.892C176.962,159.045 176.865,159.265 176.865,159.572L176.865,164.496C176.865,164.802 176.962,165.023 177.101,165.176C177.256,165.349 177.479,165.462 177.791,165.462C178.102,165.462 178.325,165.349 178.481,165.176C178.619,165.023 178.717,164.802 178.717,164.496L178.717,161.241C178.779,161.014 178.888,160.822 179.047,160.663C179.297,160.413 179.606,160.291 179.971,160.291C180.195,160.291 180.382,160.355 180.525,160.498L180.525,160.499C180.679,160.652 180.732,160.882 180.732,161.172L180.732,164.496C180.732,164.802 180.83,165.023 180.968,165.176C181.124,165.349 181.347,165.462 181.658,165.462C181.97,165.462 182.193,165.349 182.349,165.176C182.487,165.023 182.584,164.802 182.584,164.496L182.584,161.241C182.646,161.014 182.755,160.822 182.915,160.663C183.165,160.413 183.474,160.291 183.839,160.291C184.063,160.291 184.249,160.355 184.393,160.498L184.393,160.499C184.547,160.652 184.6,160.882 184.6,161.172L184.6,164.496C184.6,164.802 184.697,165.023 184.836,165.176C184.991,165.349 185.214,165.462 185.526,165.462C185.837,165.462 186.06,165.349 186.216,165.176C186.354,165.023 186.452,164.802 186.452,164.496L186.452,161.254C186.452,160.394 186.202,159.749 185.754,159.301C185.299,158.847 184.692,158.606 183.921,158.606C183.173,158.606 182.511,158.872 181.945,159.422C181.927,159.398 181.908,159.374 181.888,159.35C181.519,158.875 180.944,158.606 180.136,158.606C179.575,158.606 179.059,158.751 178.592,159.048ZM141.173,156.607L150.833,165.019C151.18,165.321 151.707,165.285 152.009,164.938C152.312,164.591 152.275,164.064 151.928,163.762L142.268,155.35C141.921,155.047 141.394,155.084 141.092,155.431C140.79,155.778 140.826,156.305 141.173,156.607ZM74.52,156.099L74.52,158.336C74.52,158.796 74.894,159.169 75.354,159.169C75.814,159.169 76.187,158.796 76.187,158.336L76.187,156.099C76.187,155.639 75.814,155.266 75.354,155.266C74.894,155.266 74.52,155.639 74.52,156.099ZM49.996,149.081L49.996,136.759C49.996,136.299 49.622,135.926 49.162,135.926C48.702,135.926 48.329,136.299 48.329,136.759L48.329,149.081C48.329,149.541 48.702,149.914 49.162,149.914C49.622,149.914 49.996,149.541 49.996,149.081ZM156.137,139.392L165.797,147.804C166.144,148.106 166.671,148.069 166.973,147.722C167.276,147.375 167.239,146.848 166.892,146.546L157.232,138.134C156.885,137.832 156.358,137.868 156.056,138.215C155.754,138.562 155.79,139.089 156.137,139.392ZM131.629,139.361L141.289,147.773C141.636,148.075 142.163,148.039 142.465,147.692C142.768,147.345 142.731,146.818 142.384,146.516L132.724,138.104C132.377,137.801 131.85,137.838 131.548,138.185C131.246,138.532 131.282,139.059 131.629,139.361ZM113.208,138.289L108.516,146.7C108.291,147.102 108.436,147.611 108.838,147.835C109.24,148.059 109.748,147.915 109.972,147.513L114.665,139.101C114.889,138.699 114.745,138.191 114.343,137.967C113.941,137.742 113.433,137.887 113.208,138.289ZM71.774,145.729C71.275,145.729 70.869,146.135 70.869,146.634C70.869,147.133 71.275,147.538 71.774,147.538C72.273,147.538 72.678,147.133 72.678,146.634C72.678,146.135 72.273,145.729 71.774,145.729ZM71.774,140.328C71.275,140.328 70.869,140.734 70.869,141.233C70.869,141.732 71.275,142.137 71.774,142.137C72.273,142.137 72.678,141.732 72.678,141.233C72.678,140.734 72.273,140.328 71.774,140.328ZM128.214,138.612C124.514,136.049 120.815,135.918 117.115,138.625C116.744,138.896 116.663,139.419 116.935,139.791C117.207,140.162 117.729,140.243 118.101,139.971C121.155,137.736 124.209,137.868 127.264,139.984C127.642,140.246 128.163,140.151 128.425,139.773C128.687,139.394 128.593,138.874 128.214,138.612ZM44.973,131.407L44.973,119.085C44.973,118.625 44.599,118.252 44.139,118.252C43.679,118.252 43.306,118.625 43.306,119.085L43.306,131.407C43.306,131.867 43.679,132.24 44.139,132.24C44.599,132.24 44.973,131.867 44.973,131.407ZM115.13,121.604C114.467,125.367 113.281,127.714 110.337,129.94C109.97,130.218 109.898,130.74 110.175,131.107C110.452,131.474 110.975,131.546 111.341,131.269C114.659,128.761 116.024,126.132 116.771,121.893C116.85,121.44 116.548,121.008 116.095,120.928C115.642,120.848 115.21,121.151 115.13,121.604ZM119.333,122.356L128.993,130.768C129.34,131.07 129.867,131.034 130.169,130.687C130.472,130.34 130.435,129.812 130.088,129.51L120.428,121.098C120.081,120.796 119.554,120.832 119.252,121.179C118.95,121.526 118.986,122.054 119.333,122.356ZM143.664,121.833L153.324,130.245C153.671,130.547 154.198,130.51 154.5,130.163C154.803,129.816 154.766,129.289 154.419,128.987L144.759,120.575C144.412,120.273 143.885,120.309 143.583,120.656C143.281,121.003 143.317,121.53 143.664,121.833ZM48.282,107.495L48.288,107.481C48.5,106.992 49.069,106.765 49.559,106.977C50.048,107.189 50.274,107.758 50.062,108.248L49.762,108.943L47.852,113.515L47.595,114.12C47.069,115.387 46.101,116.105 44.805,116.415C44.286,116.54 43.764,116.22 43.64,115.701C43.516,115.182 43.836,114.661 44.354,114.537C45.023,114.377 45.541,114.03 45.813,113.375L45.909,113.146L44.346,109.523L44.335,109.518L44.095,108.943L43.794,108.248C43.582,107.758 43.809,107.189 44.298,106.977C44.788,106.765 45.357,106.992 45.568,107.481L45.575,107.495L45.583,107.492L45.873,108.188L46.929,110.63L47.984,108.188L48.274,107.492L48.282,107.495ZM75.889,112.295C75.39,112.295 74.984,112.701 74.984,113.2C74.984,113.699 75.39,114.104 75.889,114.104C76.388,114.104 76.793,113.699 76.793,113.2C76.793,112.701 76.388,112.295 75.889,112.295ZM133.032,104.412L142.692,112.824C143.039,113.126 143.566,113.09 143.868,112.743C144.171,112.396 144.134,111.869 143.787,111.567L134.127,103.155C133.78,102.852 133.253,102.889 132.951,103.236C132.649,103.583 132.685,104.11 133.032,104.412ZM66.682,107.84L60.147,107.84C59.686,107.84 59.312,108.214 59.312,108.675C59.312,109.136 59.686,109.51 60.147,109.51L67.327,109.51C67.327,109.51 67.474,109.53 67.692,109.426L67.871,109.34C68.155,109.207 68.352,108.918 68.352,108.584L68.352,101.4C68.352,100.939 67.978,100.565 67.517,100.565C67.056,100.565 66.682,100.939 66.682,101.4L66.682,107.84ZM84.573,109.34L84.752,109.426C84.97,109.53 85.117,109.51 85.117,109.51L92.297,109.51C92.758,109.51 93.132,109.136 93.132,108.675C93.132,108.214 92.758,107.84 92.297,107.84L85.762,107.84L85.762,101.4C85.762,100.939 85.388,100.565 84.927,100.565C84.466,100.565 84.092,100.939 84.092,101.4L84.092,108.584C84.092,108.918 84.288,109.207 84.573,109.34ZM75.889,106.894C75.39,106.894 74.984,107.3 74.984,107.799C74.984,108.298 75.39,108.703 75.889,108.703C76.388,108.703 76.793,108.298 76.793,107.799C76.793,107.3 76.388,106.894 75.889,106.894ZM48.633,86.874L43.94,95.286C43.716,95.688 43.86,96.196 44.262,96.42C44.664,96.645 45.172,96.5 45.396,96.098L50.089,87.686C50.313,87.285 50.169,86.776 49.767,86.552C49.365,86.328 48.857,86.472 48.633,86.874ZM121.346,87.838L131.006,96.25C131.353,96.552 131.88,96.515 132.182,96.168C132.485,95.821 132.448,95.294 132.101,94.992L122.441,86.58C122.094,86.278 121.567,86.314 121.265,86.661C120.963,87.008 120.999,87.535 121.346,87.838ZM62.689,87.538C58.99,84.976 55.29,84.844 51.591,87.551C51.219,87.823 51.138,88.345 51.41,88.717C51.682,89.088 52.204,89.169 52.576,88.897C55.63,86.663 58.685,86.794 61.739,88.91C62.118,89.172 62.638,89.078 62.9,88.699C63.162,88.321 63.068,87.8 62.689,87.538ZM117.106,87.538C113.406,84.976 109.707,84.844 106.007,87.551C105.636,87.823 105.555,88.345 105.827,88.717C106.099,89.088 106.621,89.169 106.993,88.897C110.047,86.663 113.101,86.794 116.156,88.91C116.534,89.172 117.055,89.078 117.317,88.699C117.579,88.321 117.485,87.8 117.106,87.538ZM111.151,69.199C113.267,72.254 113.398,75.308 111.163,78.363C110.891,78.734 110.972,79.257 111.344,79.529C111.716,79.8 112.238,79.719 112.51,79.348C115.217,75.648 115.085,71.949 112.522,68.249C112.26,67.871 111.74,67.776 111.362,68.038C110.983,68.301 110.889,68.821 111.151,69.199ZM66.435,68.061C63.872,71.76 63.74,75.46 66.447,79.159C66.719,79.531 67.242,79.612 67.613,79.34C67.985,79.068 68.066,78.546 67.794,78.174C65.559,75.12 65.691,72.065 67.806,69.011C68.069,68.632 67.974,68.112 67.596,67.85C67.217,67.588 66.697,67.682 66.435,68.061ZM79.768,64.497L93.982,64.497C94.442,64.497 94.815,64.124 94.815,63.664C94.815,63.204 94.442,62.831 93.982,62.831L79.768,62.831C79.309,62.831 78.936,63.204 78.936,63.664C78.936,64.124 79.309,64.497 79.768,64.497ZM98.846,62.327L102.431,54.754L106.015,62.327C106.212,62.743 106.71,62.921 107.126,62.724C107.543,62.527 107.721,62.029 107.524,61.613L103.185,52.447C103.047,52.156 102.753,51.97 102.431,51.97C102.108,51.97 101.814,52.156 101.676,52.447L97.338,61.613C97.141,62.029 97.318,62.527 97.735,62.724C98.151,62.921 98.649,62.743 98.846,62.327ZM68.366,62.327L71.951,54.754L75.535,62.327C75.732,62.743 76.23,62.921 76.646,62.724C77.063,62.527 77.241,62.029 77.044,61.613L72.705,52.447C72.567,52.156 72.273,51.97 71.951,51.97C71.628,51.97 71.334,52.156 71.196,52.447L66.858,61.613C66.661,62.029 66.838,62.527 67.255,62.724C67.671,62.921 68.169,62.743 68.366,62.327Z"/>
    </g>
</svg>
