<?xml version="1.0" encoding="UTF-8" standalone="no"?>
<!DOCTYPE svg PUBLIC "-//W3C//DTD SVG 1.1//EN" "http://www.w3.org/Graphics/SVG/1.1/DTD/svg11.dtd">
<svg width="49px" height="43px" version="1.1" xmlns="http://www.w3.org/2000/svg" xmlns:xlink="http://www.w3.org/1999/xlink" xml:space="preserve" xmlns:serif="http://www.serif.com/" style="fill-rule:evenodd;clip-rule:evenodd;stroke-linejoin:round;stroke-miterlimit:2;">
    <g transform="matrix(0.582333,0,0,0.577934,-39.7804,-73.5848)">
        <path d="M80.59,170.845C80.903,170.596 81.086,170.216 81.086,169.814C81.086,169.412 80.903,169.032 80.59,168.783C75.144,164.401 71.87,158.784 71.87,152.662C71.87,138.677 88.955,127.324 110,127.324C131.045,127.324 148.13,138.677 148.13,152.662C148.13,158.784 144.856,164.401 139.41,168.783C139.097,169.032 138.914,169.412 138.914,169.814C138.914,170.216 139.097,170.596 139.41,170.845C144.856,175.227 148.13,180.844 148.13,186.966C148.13,190.624 146.961,194.102 144.858,197.244C142.981,200.045 139.832,201.726 136.46,201.726C125.009,201.727 94.991,201.727 83.54,201.727C80.168,201.727 77.018,200.046 75.142,197.244C73.039,194.102 71.87,190.624 71.87,186.966C71.87,180.844 75.144,175.227 80.59,170.845Z" style="fill:white;"/>
    </g>
    <g transform="matrix(0.56767,0,0,0.56767,-37.9437,-71.7268)">
        <path d="M142.428,175.303C147.723,182.941 148.042,190.579 142.45,198.217C141.973,198.869 142.115,199.784 142.766,200.261C143.417,200.738 144.333,200.596 144.81,199.945C151.231,191.176 150.911,182.406 144.832,173.637C144.372,172.974 143.46,172.808 142.797,173.268C142.133,173.728 141.968,174.64 142.428,175.303ZM75.168,173.637C69.089,182.406 68.769,191.176 75.19,199.945C75.667,200.596 76.583,200.738 77.234,200.261C77.885,199.784 78.027,198.869 77.55,198.217C71.958,190.579 72.277,182.941 77.572,175.303C78.032,174.64 77.867,173.728 77.203,173.268C76.54,172.808 75.628,172.974 75.168,173.637ZM88.488,196.179L88.488,185.77C88.488,181.93 91.288,178.761 94.818,178.761L94.82,178.761C98.103,178.761 100.704,181.712 100.704,185.284L100.704,196.179C100.704,196.945 101.326,197.568 102.093,197.568C102.859,197.568 103.482,196.945 103.482,196.179L103.482,185.284C103.482,180.117 99.57,175.984 94.82,175.984L94.818,175.984C89.821,175.984 85.71,180.334 85.71,185.77L85.71,196.179C85.71,196.945 86.332,197.568 87.099,197.568C87.865,197.568 88.488,196.945 88.488,196.179ZM118.644,196.179L118.644,185.77C118.644,181.93 121.445,178.761 124.974,178.761L124.976,178.761C128.26,178.761 130.86,181.712 130.86,185.284L130.86,196.179C130.86,196.945 131.483,197.568 132.249,197.568C133.016,197.568 133.638,196.945 133.638,196.179L133.638,185.284C133.638,180.117 129.727,175.984 124.976,175.984L124.974,175.984C119.978,175.984 115.866,180.334 115.866,185.77L115.866,196.179C115.866,196.945 116.489,197.568 117.255,197.568C118.022,197.568 118.644,196.945 118.644,196.179ZM95.591,167.459L124.752,167.459C125.442,167.459 126.002,166.899 126.002,166.209C126.002,165.519 125.442,164.959 124.752,164.959L95.591,164.959C94.902,164.959 94.341,165.519 94.341,166.209C94.341,166.899 94.902,167.459 95.591,167.459ZM142.428,140.565C147.723,148.203 148.042,155.841 142.45,163.479C141.973,164.131 142.115,165.046 142.766,165.523C143.417,166 144.333,165.858 144.81,165.207C151.231,156.438 150.911,147.668 144.832,138.899C144.372,138.236 143.46,138.07 142.797,138.53C142.133,138.99 141.968,139.902 142.428,140.565ZM75.168,138.899C69.089,147.668 68.769,156.438 75.19,165.207C75.667,165.858 76.583,166 77.234,165.523C77.885,165.046 78.027,164.131 77.55,163.479C71.958,155.841 72.277,148.203 77.572,140.565C78.032,139.902 77.867,138.99 77.203,138.53C76.54,138.07 75.628,138.236 75.168,138.899ZM81.011,152.751L92.61,152.751C93.3,152.751 93.86,152.191 93.86,151.501C93.86,150.811 93.3,150.251 92.61,150.251L81.011,150.251C80.321,150.251 79.761,150.811 79.761,151.501C79.761,152.191 80.321,152.751 81.011,152.751ZM127.33,152.751L138.929,152.751C139.619,152.751 140.179,152.191 140.179,151.501C140.179,150.811 139.619,150.251 138.929,150.251L127.33,150.251C126.64,150.251 126.08,150.811 126.08,151.501C126.08,152.191 126.64,152.751 127.33,152.751Z" style="fill-opacity:0.9;"/>
    </g>
</svg>
