<?xml version="1.0" encoding="UTF-8" standalone="no"?>
<!DOCTYPE svg PUBLIC "-//W3C//DTD SVG 1.1//EN" "http://www.w3.org/Graphics/SVG/1.1/DTD/svg11.dtd">
<svg width="58px" height="67px" version="1.1" xmlns="http://www.w3.org/2000/svg" xmlns:xlink="http://www.w3.org/1999/xlink" xml:space="preserve" xmlns:serif="http://www.serif.com/" style="fill-rule:evenodd;clip-rule:evenodd;stroke-linejoin:round;stroke-miterlimit:2;">
    <g transform="matrix(-0.681762,0,0,0.886681,352.963,-392.564)">
        <path d="M447.939,508.326C445.488,508.326 443.141,507.564 441.432,506.213C439.316,504.547 437.834,502.581 437.369,500.134C432.746,495.279 432.992,490.423 437.369,485.568C433.397,481.971 435.181,477.045 438.4,475.673C439.953,474.384 443.445,471.844 445.5,470.365C446.518,469.627 447.086,468.596 447.068,467.521C447.033,465.356 446.969,461.573 446.924,458.858C446.889,456.794 448.128,454.84 450.263,453.588C452.349,452.348 454.96,450.827 456.793,449.883C456.793,449.883 462.026,447.592 465.669,445.997C467.923,445.01 470.473,444.491 473.067,444.491L484.059,444.491C487.719,444.491 491.251,445.523 493.987,447.391C498.802,450.68 506.448,455.9 510.028,458.346C511.282,459.202 512,460.43 512,461.719L512,481C511.743,482.372 512.123,483.907 512.997,485.568C518.312,493.533 516.039,498.219 510.687,502.993C507.023,506.361 501.606,508.307 495.895,508.307C482.688,508.326 456.97,508.326 447.939,508.326Z" style="fill:white;"/>
    </g>
    <g transform="matrix(0.61502,0,0,0.61502,-38.6522,-67.7882)">
        <path d="M124.6,203.544C125.652,207.834 127.922,211.686 131.652,214.716C129.554,215.067 127.439,215.663 125.545,216.315C124.782,216.577 124.375,217.41 124.638,218.173C124.9,218.937 125.733,219.343 126.496,219.081C129.422,218.074 132.929,217.17 135.937,217.338C136.62,217.376 137.237,216.936 137.425,216.278C137.612,215.621 137.319,214.921 136.719,214.594C131.571,211.783 128.616,207.64 127.441,202.847C127.249,202.063 126.456,201.583 125.672,201.775C124.888,201.967 124.408,202.76 124.6,203.544ZM89.89,203.544C90.942,207.834 93.212,211.686 96.942,214.716C94.844,215.067 92.729,215.663 90.835,216.315C90.072,216.577 89.665,217.41 89.928,218.173C90.19,218.937 91.023,219.343 91.786,219.081C94.712,218.074 98.219,217.17 101.227,217.338C101.909,217.376 102.527,216.936 102.715,216.278C102.902,215.621 102.609,214.921 102.009,214.594C96.861,211.783 93.906,207.64 92.731,202.847C92.539,202.063 91.746,201.583 90.962,201.775C90.178,201.967 89.698,202.76 89.89,203.544ZM82.328,203.672C82.84,204.41 82.881,205.148 82.341,205.886C82.068,206.258 82.149,206.781 82.522,207.054C82.894,207.326 83.417,207.245 83.69,206.873C84.703,205.489 84.662,204.104 83.702,202.72C83.439,202.34 82.918,202.246 82.539,202.509C82.16,202.772 82.066,203.293 82.328,203.672ZM77.154,203.672C77.666,204.41 77.707,205.148 77.166,205.886C76.894,206.258 76.975,206.781 77.347,207.054C77.719,207.326 78.243,207.245 78.515,206.873C79.529,205.489 79.487,204.104 78.528,202.72C78.265,202.34 77.744,202.246 77.365,202.509C76.986,202.772 76.891,203.293 77.154,203.672ZM106.905,203.672C107.417,204.41 107.458,205.148 106.918,205.886C106.645,206.258 106.726,206.781 107.099,207.054C107.471,207.326 107.994,207.245 108.267,206.873C109.28,205.489 109.239,204.104 108.279,202.72C108.016,202.34 107.495,202.246 107.116,202.509C106.737,202.772 106.643,203.293 106.905,203.672ZM117.531,203.672C118.043,204.41 118.084,205.148 117.544,205.886C117.271,206.258 117.352,206.781 117.724,207.054C118.096,207.326 118.62,207.245 118.892,206.873C119.906,205.489 119.865,204.104 118.905,202.72C118.642,202.34 118.121,202.246 117.742,202.509C117.363,202.772 117.268,203.293 117.531,203.672ZM112.218,203.672C112.73,204.41 112.771,205.148 112.231,205.886C111.958,206.258 112.039,206.781 112.411,207.054C112.784,207.326 113.307,207.245 113.579,206.873C114.593,205.489 114.552,204.104 113.592,202.72C113.329,202.34 112.808,202.246 112.429,202.509C112.05,202.772 111.956,203.293 112.218,203.672ZM147.599,198.899L143.599,202.899C143.028,203.469 143.028,204.396 143.599,204.967C144.17,205.538 145.097,205.538 145.667,204.967L149.667,200.967C150.238,200.396 150.238,199.469 149.667,198.899C149.097,198.328 148.17,198.328 147.599,198.899ZM66.881,171.144C61.636,178.709 61.363,186.275 66.903,193.841C67.38,194.492 68.295,194.634 68.947,194.157C69.598,193.68 69.74,192.764 69.263,192.113C64.552,185.679 64.824,179.244 69.285,172.81C69.744,172.147 69.579,171.235 68.916,170.775C68.253,170.315 67.341,170.48 66.881,171.144ZM150.715,172.81C155.176,179.244 155.448,185.679 150.737,192.113C150.26,192.764 150.402,193.68 151.053,194.157C151.705,194.634 152.62,194.492 153.097,193.841C158.637,186.275 158.364,178.709 153.119,171.144C152.659,170.48 151.747,170.315 151.084,170.775C150.421,171.235 150.256,172.147 150.715,172.81ZM68.076,140.882L68.076,165.391C68.076,166.005 68.574,166.502 69.187,166.502C69.801,166.502 70.298,166.005 70.298,165.391L70.298,140.882C70.298,140.269 69.801,139.771 69.187,139.771C68.574,139.771 68.076,140.269 68.076,140.882ZM106.602,153.132L96.954,143.484C96.709,143.239 96.414,143.117 96.071,143.117C95.728,143.117 95.433,143.239 95.188,143.484L85.54,153.132C85.277,153.395 85.157,153.698 85.165,154.035C85.174,154.367 85.297,154.656 85.54,154.898L95.188,164.547C95.433,164.792 95.728,164.914 96.071,164.914C96.414,164.914 96.709,164.792 96.954,164.547L106.602,154.898C106.847,154.653 106.969,154.359 106.969,154.015C106.969,153.672 106.847,153.377 106.602,153.132ZM87.504,154.015L96.071,162.582L104.624,154.03L96.057,145.463L87.504,154.015ZM140.36,150.661C144.179,153.221 148.651,157.1 151.114,159.759C151.635,160.322 152.515,160.355 153.077,159.834C153.639,159.314 153.673,158.434 153.152,157.872C150.576,155.091 145.901,151.031 141.907,148.354C141.27,147.927 140.406,148.098 139.98,148.734C139.553,149.371 139.723,150.235 140.36,150.661ZM118.722,145.078L115.31,141.666C114.876,141.232 114.173,141.232 113.739,141.666L110.326,145.078C109.893,145.512 109.893,146.216 110.326,146.65C110.76,147.083 111.464,147.083 111.898,146.65L114.524,144.023L117.151,146.65C117.585,147.083 118.289,147.083 118.722,146.65C119.156,146.216 119.156,145.512 118.722,145.078ZM82.351,145.078L78.939,141.666C78.505,141.232 77.801,141.232 77.367,141.666L73.955,145.078C73.521,145.512 73.521,146.216 73.955,146.65C74.388,147.083 75.092,147.083 75.526,146.65L78.153,144.023L80.78,146.65C81.213,147.083 81.917,147.083 82.351,146.65C82.785,146.216 82.785,145.512 82.351,145.078ZM88.577,115.513L68.457,133.05C67.995,133.453 67.947,134.156 68.35,134.618C68.753,135.08 69.455,135.128 69.917,134.725L90.037,117.188C90.499,116.785 90.547,116.083 90.144,115.62C89.741,115.158 89.039,115.11 88.577,115.513ZM129.612,121.683C133.431,124.242 137.904,128.121 140.366,130.78C140.887,131.343 141.767,131.377 142.329,130.856C142.892,130.335 142.925,129.455 142.404,128.893C139.828,126.112 135.153,122.053 131.159,119.375C130.522,118.949 129.658,119.119 129.232,119.756C128.805,120.392 128.975,121.256 129.612,121.683ZM93.864,114.145L116.734,114.145C117.5,114.145 118.122,113.522 118.122,112.756C118.122,111.989 117.5,111.367 116.734,111.367L93.864,111.367C93.097,111.367 92.475,111.989 92.475,112.756C92.475,113.522 93.097,114.145 93.864,114.145Z"/>
    </g>
</svg>
