<?xml version="1.0" encoding="UTF-8" standalone="no"?>
<!DOCTYPE svg PUBLIC "-//W3C//DTD SVG 1.1//EN" "http://www.w3.org/Graphics/SVG/1.1/DTD/svg11.dtd">
<svg width="52px" height="38px" version="1.1" xmlns="http://www.w3.org/2000/svg" xmlns:xlink="http://www.w3.org/1999/xlink" xml:space="preserve" xmlns:serif="http://www.serif.com/" style="fill-rule:evenodd;clip-rule:evenodd;stroke-linejoin:round;stroke-miterlimit:2;">
    <g transform="matrix(0.610454,0,0,0.648662,-41.1498,-103.565)">
        <path d="M129.691,214.109L98.266,214.117L98.266,213.292C96.656,215.435 93.603,216.104 90.99,216.104C81.949,216.104 74.07,203.314 74.07,188.391C74.07,185.545 74.755,183.87 75.561,180.035C76.684,174.69 82.708,165.581 89.689,165.449C89.766,165.447 89.601,165.437 129.499,165.437C132.712,165.437 139.859,168.755 142.679,175.874C144.343,180.075 145.629,183.416 145.488,188.391C145.283,195.636 144.397,201.174 141.777,205.616C140.685,207.465 135.11,214.109 129.691,214.109Z" style="fill:white;"/>
    </g>
    <g transform="matrix(0.610454,0,0,0.610454,-41.1498,-95.3078)">
        <path d="M131.268,213.428L131.268,217.264C131.268,217.877 131.766,218.375 132.379,218.375C132.992,218.375 133.49,217.877 133.49,217.264L133.49,213.428C133.49,212.815 132.992,212.317 132.379,212.317C131.766,212.317 131.268,212.815 131.268,213.428ZM104.753,213.428L104.753,217.264C104.753,217.877 105.251,218.375 105.865,218.375C106.478,218.375 106.976,217.877 106.976,217.264L106.976,213.428C106.976,212.815 106.478,212.317 105.865,212.317C105.251,212.317 104.753,212.815 104.753,213.428ZM111.382,213.428L111.382,217.264C111.382,217.877 111.88,218.375 112.493,218.375C113.106,218.375 113.604,217.877 113.604,217.264L113.604,213.428C113.604,212.815 113.106,212.317 112.493,212.317C111.88,212.317 111.382,212.815 111.382,213.428ZM98.125,213.428L98.125,217.264C98.125,217.877 98.623,218.375 99.236,218.375C99.849,218.375 100.347,217.877 100.347,217.264L100.347,213.428C100.347,212.815 99.849,212.317 99.236,212.317C98.623,212.317 98.125,212.815 98.125,213.428ZM118.011,213.428L118.011,217.264C118.011,217.877 118.508,218.375 119.122,218.375C119.735,218.375 120.233,217.877 120.233,217.264L120.233,213.428C120.233,212.815 119.735,212.317 119.122,212.317C118.508,212.317 118.011,212.815 118.011,213.428ZM124.639,213.428L124.639,217.264C124.639,217.877 125.137,218.375 125.75,218.375C126.364,218.375 126.861,217.877 126.861,217.264L126.861,213.428C126.861,212.815 126.364,212.317 125.75,212.317C125.137,212.317 124.639,212.815 124.639,213.428ZM91.605,209.613L89.463,213.885C89.204,214.4 89.413,215.028 89.928,215.287C90.443,215.545 91.072,215.337 91.33,214.821L93.472,210.55C93.731,210.035 93.522,209.406 93.007,209.148C92.492,208.889 91.863,209.098 91.605,209.613ZM85.967,209.613L83.825,213.885C83.566,214.4 83.775,215.028 84.29,215.287C84.806,215.545 85.434,215.337 85.692,214.821L87.835,210.55C88.093,210.035 87.885,209.406 87.369,209.148C86.854,208.889 86.226,209.098 85.967,209.613ZM118.195,201.519L118.301,201.519C118.615,201.513 118.882,201.407 119.103,201.206C119.343,200.99 119.46,200.725 119.46,200.416L119.46,196.744C119.46,196.437 119.345,196.171 119.108,195.946C118.878,195.728 118.599,195.617 118.271,195.617L117.308,195.617L117.308,181.14C117.308,180.83 117.19,180.566 116.951,180.349C116.722,180.141 116.445,180.036 116.119,180.036L107.078,180.036C106.748,180.036 106.474,180.144 106.254,180.353C106.027,180.569 105.914,180.831 105.914,181.14L105.914,181.897C105.914,184.219 105.897,185.979 105.864,187.178C105.83,188.376 105.784,189.475 105.725,190.474C105.668,191.444 105.548,192.195 105.36,192.728C105.172,193.261 104.968,193.725 104.747,194.118C104.526,194.511 104.187,195.011 103.731,195.617L103.331,195.617C103.002,195.617 102.724,195.728 102.494,195.946C102.257,196.171 102.141,196.437 102.141,196.744L102.141,200.416C102.141,200.725 102.259,200.99 102.498,201.206C102.727,201.414 103.004,201.519 103.331,201.519L103.437,201.519C103.751,201.513 104.017,201.407 104.239,201.206C104.478,200.99 104.596,200.725 104.596,200.416L104.596,197.756L117.006,197.756L117.006,200.416C117.006,200.725 117.123,200.99 117.363,201.206C117.591,201.414 117.868,201.519 118.195,201.519ZM140.976,194.264L140.976,194.374C140.934,194.725 141.044,195.036 141.313,195.304C141.565,195.555 141.871,195.702 142.229,195.743L142.236,195.743C145.231,196.007 148.181,196.575 151.084,197.45C151.442,197.564 151.766,197.527 152.058,197.347C152.357,197.164 152.519,196.905 152.55,196.571L152.579,196.448C152.625,196.066 152.54,195.731 152.332,195.441C152.128,195.158 151.849,194.961 151.492,194.855C148.455,193.934 145.42,193.349 142.388,193.101C142.04,193.059 141.723,193.153 141.438,193.385C141.151,193.62 140.998,193.914 140.976,194.264ZM67.417,194.282L67.417,194.392C67.376,194.741 67.485,195.05 67.752,195.316C68.003,195.566 68.306,195.711 68.662,195.752C68.664,195.752 68.667,195.753 68.669,195.753C71.641,196.014 74.567,196.578 77.448,197.446C77.804,197.559 78.126,197.522 78.416,197.344C78.713,197.162 78.875,196.904 78.905,196.573L78.934,196.45C78.979,196.071 78.895,195.738 78.688,195.449C78.486,195.168 78.208,194.973 77.854,194.867C74.841,193.953 71.83,193.373 68.821,193.126C68.475,193.085 68.159,193.178 67.877,193.409C67.591,193.643 67.439,193.935 67.417,194.282ZM103.975,195.754C103.937,195.69 103.874,195.642 103.8,195.625C103.903,195.651 103.912,195.747 103.885,195.852C103.905,195.839 103.922,195.822 103.938,195.803C103.951,195.787 103.963,195.77 103.975,195.754ZM106.791,195.617C107.582,194.332 108.055,193.063 108.215,191.811C108.383,190.497 108.469,187.285 108.47,182.175L114.676,182.175L114.676,195.617L106.791,195.617ZM88.147,183.559C89.426,183.559 90.465,184.597 90.465,185.876C90.465,187.155 89.426,188.194 88.147,188.194C86.868,188.194 85.83,187.155 85.83,185.876C85.83,184.597 86.868,183.559 88.147,183.559ZM132.589,183.559C133.868,183.559 134.906,184.597 134.906,185.876C134.906,187.155 133.868,188.194 132.589,188.194C131.31,188.194 130.271,187.155 130.271,185.876C130.271,184.597 131.31,183.559 132.589,183.559ZM68.596,185.389L68.597,185.528C68.554,185.904 68.671,186.214 68.941,186.459C69.189,186.685 69.489,186.82 69.841,186.86C69.843,186.861 69.845,186.861 69.847,186.861C71.909,187.058 74.02,187.468 76.182,188.091C76.185,188.092 76.188,188.093 76.19,188.093C76.539,188.182 76.855,188.141 77.139,187.978C77.439,187.806 77.604,187.552 77.635,187.216L77.664,187.096C77.709,186.739 77.629,186.41 77.421,186.111C77.215,185.814 76.934,185.622 76.577,185.535C74.323,184.867 72.111,184.434 69.94,184.235C69.936,184.235 69.933,184.234 69.93,184.234C69.581,184.214 69.277,184.32 69.018,184.553C68.757,184.786 68.619,185.065 68.596,185.389ZM142.164,185.3L142.165,185.441C142.122,185.819 142.239,186.13 142.511,186.377C142.761,186.605 143.062,186.74 143.417,186.781L143.422,186.781C145.501,186.98 147.629,187.393 149.808,188.021C149.811,188.022 149.814,188.023 149.816,188.024C150.167,188.113 150.485,188.072 150.771,187.908C151.073,187.735 151.239,187.479 151.27,187.141L151.299,187.021C151.344,186.661 151.263,186.33 151.054,186.029C150.848,185.73 150.565,185.537 150.205,185.45C147.934,184.777 145.704,184.34 143.516,184.139C143.513,184.139 143.51,184.139 143.506,184.138C143.155,184.118 142.849,184.225 142.588,184.459C142.326,184.693 142.187,184.975 142.164,185.3ZM76.577,185.535L76.574,185.534L76.577,185.535ZM150.205,185.45L150.202,185.449L150.205,185.45ZM67.981,177.36C68.012,177.052 68.156,176.784 68.419,176.559C68.688,176.329 68.996,176.225 69.341,176.245L69.345,176.245C71.845,176.423 74.465,176.853 77.205,177.535C77.557,177.619 77.846,177.802 78.071,178.082C78.305,178.372 78.399,178.697 78.357,179.057L78.356,179.12C78.329,179.459 78.162,179.724 77.847,179.91C77.552,180.083 77.231,180.128 76.885,180.041C74.313,179.419 71.772,179.012 69.262,178.818C69.258,178.818 69.255,178.818 69.251,178.817C68.902,178.777 68.599,178.645 68.341,178.421C68.058,178.175 67.927,177.863 67.949,177.484L67.949,177.504C67.951,177.47 67.957,177.438 67.965,177.407L67.965,177.406L67.968,177.399C67.972,177.385 67.976,177.373 67.981,177.36ZM141.529,177.257L141.528,177.255L141.544,177.209C141.576,176.899 141.72,176.629 141.984,176.403C142.255,176.171 142.565,176.066 142.912,176.086C142.914,176.086 142.915,176.087 142.916,176.087C145.437,176.266 148.077,176.699 150.838,177.386C151.193,177.471 151.483,177.655 151.71,177.937C151.945,178.229 152.04,178.556 151.997,178.918L151.997,178.982C151.97,179.323 151.801,179.589 151.485,179.776C151.188,179.951 150.865,179.996 150.516,179.908C147.924,179.281 145.363,178.871 142.833,178.676C142.83,178.675 142.826,178.675 142.823,178.675C142.471,178.634 142.166,178.501 141.907,178.276C141.621,178.028 141.489,177.714 141.512,177.333C141.512,177.343 141.511,177.354 141.512,177.364C141.514,177.327 141.519,177.291 141.529,177.257ZM91.98,159.517L91.98,163.353C91.98,163.966 92.478,164.464 93.091,164.464C93.704,164.464 94.202,163.966 94.202,163.353L94.202,159.517C94.202,158.903 93.704,158.406 93.091,158.406C92.478,158.406 91.98,158.903 91.98,159.517ZM111.731,159.517L111.731,163.353C111.731,163.966 112.229,164.464 112.842,164.464C113.455,164.464 113.953,163.966 113.953,163.353L113.953,159.517C113.953,158.903 113.455,158.406 112.842,158.406C112.229,158.406 111.731,158.903 111.731,159.517ZM137.32,159.517L137.32,163.353C137.32,163.966 137.817,164.464 138.431,164.464C139.044,164.464 139.542,163.966 139.542,163.353L139.542,159.517C139.542,158.903 139.044,158.406 138.431,158.406C137.817,158.406 137.32,158.903 137.32,159.517ZM124.062,159.517L124.062,163.353C124.062,163.966 124.56,164.464 125.174,164.464C125.787,164.464 126.285,163.966 126.285,163.353L126.285,159.517C126.285,158.903 125.787,158.406 125.174,158.406C124.56,158.406 124.062,158.903 124.062,159.517ZM98.608,159.517L98.608,163.353C98.608,163.966 99.106,164.464 99.719,164.464C100.333,164.464 100.83,163.966 100.83,163.353L100.83,159.517C100.83,158.903 100.333,158.406 99.719,158.406C99.106,158.406 98.608,158.903 98.608,159.517ZM130.691,159.517L130.691,163.353C130.691,163.966 131.189,164.464 131.802,164.464C132.415,164.464 132.913,163.966 132.913,163.353L132.913,159.517C132.913,158.903 132.415,158.406 131.802,158.406C131.189,158.406 130.691,158.903 130.691,159.517ZM85.351,159.517L85.351,163.353C85.351,163.966 85.849,164.464 86.462,164.464C87.075,164.464 87.573,163.966 87.573,163.353L87.573,159.517C87.573,158.903 87.075,158.406 86.462,158.406C85.849,158.406 85.351,158.903 85.351,159.517ZM78.722,159.517L78.722,163.353C78.722,163.966 79.22,164.464 79.834,164.464C80.447,164.464 80.945,163.966 80.945,163.353L80.945,159.517C80.945,158.903 80.447,158.406 79.834,158.406C79.22,158.406 78.722,158.903 78.722,159.517ZM106.372,158.517C107.208,158.517 107.887,159.195 107.887,160.031C107.887,160.867 107.208,161.545 106.372,161.545C105.537,161.545 104.858,160.867 104.858,160.031C104.858,159.195 105.537,158.517 106.372,158.517ZM119.183,158.517C120.018,158.517 120.697,159.195 120.697,160.031C120.697,160.867 120.018,161.545 119.183,161.545C118.347,161.545 117.668,160.867 117.668,160.031C117.668,159.195 118.347,158.517 119.183,158.517Z" style="fill-rule:nonzero;"/>
    </g>
</svg>
