<?xml version="1.0" encoding="UTF-8" standalone="no"?>
<!DOCTYPE svg PUBLIC "-//W3C//DTD SVG 1.1//EN" "http://www.w3.org/Graphics/SVG/1.1/DTD/svg11.dtd">
<svg width="52px" height="84px" version="1.1" xmlns="http://www.w3.org/2000/svg" xmlns:xlink="http://www.w3.org/1999/xlink" xml:space="preserve" xmlns:serif="http://www.serif.com/" style="fill-rule:evenodd;clip-rule:evenodd;stroke-linejoin:round;stroke-miterlimit:2;">
    <g transform="matrix(0.566,0,0,0.577372,-39.8867,-15.621)">
        <path d="M75.784,31.162C70.931,37.642 70.658,44.122 75.784,50.602C78.138,54.068 78.574,57.534 77,61C72.148,68 71.875,75 77,82C78.719,83.772 79.21,85.944 77,89C72.148,96 71.875,103 77,110L80,116L80,141C79.437,143.119 78.437,145.453 77,148C72.148,155 71.875,162 77,169C78.168,170.397 79.475,171.181 81,171L113.5,171C118.447,170.519 120.478,166.633 121.666,161.765C121.624,165.941 122.383,169.635 127,171L152,171C154.638,171 156.151,170.227 157,169C162.125,162 161.852,155 157,148C155.32,145.667 152.299,143.333 148,141L148,116L153.258,110C158.383,103 158.11,96 153.258,89C151.143,86.459 151.007,84.113 153.258,82C158.383,75 158.11,68 153.258,61C150.431,56.957 150.715,53.421 153.127,50.234C158.253,43.754 157.98,37.274 153.127,30.794L75.784,31.162Z" style="fill:white;"/>
    </g>
    <g transform="matrix(0.607969,0,0,0.607969,-40.8854,-48.908)">
        <path d="M107.308,215.68L77.052,215.68C76.243,215.68 75.587,216.337 75.587,217.145C75.587,217.954 76.243,218.61 77.052,218.61L107.308,218.61C108.117,218.61 108.773,217.954 108.773,217.145C108.773,216.337 108.117,215.68 107.308,215.68ZM119.876,218.607L143.15,218.607C143.957,218.607 144.612,217.952 144.612,217.145C144.612,216.338 143.957,215.683 143.15,215.683L119.876,215.683C119.069,215.683 118.414,216.338 118.414,217.145C118.414,217.952 119.069,218.607 119.876,218.607ZM72.118,194.481C67.222,201.687 66.968,208.893 72.139,216.099C72.61,216.755 73.524,216.905 74.18,216.434C74.836,215.964 74.986,215.049 74.515,214.394C70.145,208.304 70.399,202.215 74.537,196.125C74.99,195.457 74.817,194.547 74.149,194.094C73.482,193.64 72.571,193.814 72.118,194.481ZM110.528,196.125C114.666,202.215 114.92,208.304 110.549,214.394C110.079,215.049 110.229,215.964 110.885,216.434C111.54,216.905 112.455,216.755 112.925,216.099C118.097,208.893 117.843,201.687 112.947,194.481C112.493,193.814 111.583,193.64 110.915,194.094C110.248,194.547 110.074,195.457 110.528,196.125ZM146.596,196.125C150.734,202.215 150.988,208.304 146.617,214.394C146.147,215.049 146.297,215.964 146.953,216.434C147.608,216.905 148.523,216.755 148.993,216.099C154.165,208.893 153.911,201.687 149.015,194.481C148.561,193.814 147.651,193.64 146.983,194.094C146.316,194.547 146.142,195.457 146.596,196.125ZM106.777,164.913L106.777,188.655C106.777,189.462 107.432,190.117 108.239,190.117C109.046,190.117 109.701,189.462 109.701,188.655L109.701,164.913C109.701,164.106 109.046,163.451 108.239,163.451C107.432,163.451 106.777,164.106 106.777,164.913ZM137.964,164.913L137.964,188.655C137.964,189.462 138.619,190.117 139.426,190.117C140.233,190.117 140.888,189.462 140.888,188.655L140.888,164.913C140.888,164.106 140.233,163.451 139.426,163.451C138.619,163.451 137.964,164.106 137.964,164.913ZM74.658,164.913L74.658,188.655C74.658,189.462 75.313,190.117 76.12,190.117C76.927,190.117 77.583,189.462 77.583,188.655L77.583,164.913C77.583,164.106 76.927,163.451 76.12,163.451C75.313,163.451 74.658,164.106 74.658,164.913ZM72.118,138.45C67.222,145.656 66.968,152.862 72.139,160.068C72.61,160.724 73.524,160.874 74.18,160.403C74.836,159.933 74.986,159.018 74.515,158.363C70.145,152.273 70.399,146.184 74.537,140.094C74.99,139.426 74.817,138.516 74.149,138.063C73.482,137.609 72.571,137.783 72.118,138.45ZM143.112,140.094C147.25,146.184 147.504,152.273 143.133,158.363C142.663,159.018 142.813,159.933 143.469,160.403C144.124,160.874 145.039,160.724 145.509,160.068C150.681,152.862 150.427,145.656 145.531,138.45C145.077,137.783 144.167,137.609 143.499,138.063C142.832,138.516 142.658,139.426 143.112,140.094ZM143.112,113.503C147.25,119.593 147.504,125.682 143.133,131.772C142.663,132.427 142.813,133.342 143.469,133.812C144.124,134.283 145.039,134.133 145.509,133.477C150.681,126.271 150.427,119.065 145.531,111.859C145.077,111.192 144.167,111.018 143.499,111.472C142.832,111.925 142.658,112.836 143.112,113.503ZM72.118,111.859C67.222,119.065 66.968,126.271 72.139,133.477C72.61,134.133 73.524,134.283 74.18,133.812C74.836,133.342 74.986,132.427 74.515,131.772C70.145,125.682 70.399,119.593 74.537,113.503C74.99,112.836 74.817,111.925 74.149,111.472C73.482,111.018 72.571,111.192 72.118,111.859ZM124.912,133.992L125.058,133.992C125.439,133.983 125.765,133.838 126.034,133.555C126.302,133.273 126.439,132.932 126.439,132.529L126.439,128.494C126.439,128.098 126.307,127.756 126.043,127.465C125.763,127.156 125.421,127.006 125.02,127.006L124.401,127.006L124.401,111.345C124.401,110.942 124.264,110.601 123.997,110.319C123.718,110.027 123.38,109.882 122.982,109.882L114.423,109.882C114.019,109.882 113.682,110.031 113.412,110.329C113.16,110.608 113.029,110.946 113.029,111.345L113.029,112.177C113.029,114.727 113.013,116.66 112.981,117.977C112.949,119.291 112.906,120.497 112.85,121.594C112.797,122.637 112.688,123.447 112.513,124.02C112.339,124.594 112.151,125.093 111.946,125.515L111.946,125.516C111.753,125.912 111.465,126.409 111.082,127.006L110.875,127.006C110.475,127.006 110.133,127.156 109.853,127.465C109.589,127.755 109.457,128.098 109.457,128.494L109.457,132.529C109.457,132.932 109.593,133.273 109.861,133.555C110.131,133.839 110.457,133.983 110.838,133.992L110.984,133.992C111.366,133.983 111.691,133.839 111.961,133.555C112.229,133.273 112.366,132.932 112.366,132.529L112.366,129.857L123.53,129.857L123.53,132.529C123.53,132.932 123.667,133.273 123.935,133.555C124.204,133.838 124.53,133.983 124.912,133.992ZM86.31,127.677C86.596,128.038 86.778,128.385 86.782,128.746C86.786,129.09 86.617,129.421 86.329,129.766C85.935,130.236 85.996,130.938 86.466,131.332C86.936,131.726 87.638,131.664 88.032,131.194C88.72,130.374 89.013,129.541 89.004,128.721C88.995,127.917 88.689,127.1 88.051,126.296C87.67,125.815 86.97,125.735 86.489,126.116C86.009,126.497 85.929,127.197 86.31,127.677ZM78.989,125.753C79.893,125.753 80.627,126.487 80.627,127.391C80.627,128.295 79.893,129.029 78.989,129.029C78.085,129.029 77.351,128.295 77.351,127.391C77.351,126.487 78.085,125.753 78.989,125.753ZM114.598,127.006C115.253,125.687 115.649,124.382 115.791,123.095C115.948,121.669 116.03,118.215 116.033,112.733L121.324,112.733L121.324,127.006L114.598,127.006ZM87.152,117.59C88.056,117.59 88.79,118.324 88.79,119.228C88.79,120.132 88.056,120.866 87.152,120.866C86.248,120.866 85.514,120.132 85.514,119.228C85.514,118.324 86.248,117.59 87.152,117.59ZM101.15,109.148L97.426,112.947C96.861,113.523 96.87,114.449 97.446,115.014C98.022,115.578 98.948,115.569 99.513,114.993L103.237,111.195C103.802,110.619 103.792,109.692 103.216,109.128C102.64,108.563 101.714,108.572 101.15,109.148ZM132.357,111.062L136.08,114.861C136.645,115.437 137.571,115.446 138.147,114.881C138.723,114.317 138.732,113.391 138.168,112.815L134.444,109.016C133.879,108.44 132.953,108.431 132.377,108.996C131.801,109.56 131.792,110.486 132.357,111.062ZM83.472,83.48C81.008,86.836 79.74,90.204 79.705,93.561C79.671,96.937 80.877,100.326 83.495,103.702C83.99,104.34 84.909,104.457 85.547,103.962C86.184,103.468 86.301,102.548 85.806,101.91C83.653,99.133 82.601,96.368 82.63,93.591C82.659,90.793 83.776,88.008 85.829,85.21C86.307,84.56 86.167,83.644 85.516,83.166C84.865,82.689 83.949,82.829 83.472,83.48ZM95.928,83.48C93.464,86.836 92.196,90.204 92.161,93.561C92.126,96.937 93.333,100.326 95.951,103.702C96.445,104.34 97.364,104.457 98.002,103.962C98.64,103.468 98.756,102.548 98.262,101.91C96.109,99.133 95.057,96.368 95.085,93.591C95.114,90.793 96.232,88.008 98.285,85.21C98.763,84.56 98.622,83.644 97.972,83.166C97.321,82.689 96.405,82.829 95.928,83.48ZM71.016,83.48C68.553,86.836 67.284,90.204 67.25,93.561C67.215,96.937 68.422,100.326 71.039,103.702C71.534,104.34 72.453,104.457 73.091,103.962C73.729,103.468 73.845,102.548 73.351,101.91C71.197,99.133 70.145,96.368 70.174,93.591C70.203,90.793 71.32,88.008 73.374,85.21C73.851,84.56 73.711,83.644 73.06,83.166C72.41,82.689 71.494,82.829 71.016,83.48ZM118.11,84.861C120.163,87.658 121.28,90.444 121.309,93.241C121.338,96.019 120.286,98.784 118.133,101.561C117.638,102.199 117.755,103.118 118.392,103.613C119.03,104.107 119.949,103.991 120.444,103.353C123.062,99.976 124.268,96.588 124.234,93.211C124.199,89.855 122.931,86.487 120.467,83.13C119.99,82.48 119.074,82.339 118.423,82.817C117.772,83.294 117.632,84.21 118.11,84.861ZM130.566,84.861C132.619,87.658 133.736,90.444 133.765,93.241C133.794,96.019 132.742,98.784 130.589,101.561C130.094,102.199 130.211,103.118 130.848,103.613C131.486,104.107 132.405,103.991 132.9,103.353C135.518,99.976 136.724,96.588 136.69,93.211C136.655,89.855 135.387,86.487 132.923,83.13C132.446,82.48 131.53,82.339 130.879,82.817C130.228,83.294 130.088,84.21 130.566,84.861ZM143.021,84.861C145.074,87.658 146.191,90.444 146.22,93.241C146.249,96.019 145.197,98.784 143.044,101.561C142.549,102.199 142.666,103.118 143.303,103.613C143.941,104.107 144.86,103.991 145.355,103.353C147.973,99.976 149.179,96.588 149.145,93.211C149.11,89.855 147.842,86.487 145.378,83.13C144.901,82.48 143.985,82.339 143.334,82.817C142.683,83.294 142.543,84.21 143.021,84.861Z" style="fill-rule:nonzero;"/>
    </g>
</svg>
