<?xml version="1.0" encoding="UTF-8" standalone="no"?>
<!DOCTYPE svg PUBLIC "-//W3C//DTD SVG 1.1//EN" "http://www.w3.org/Graphics/SVG/1.1/DTD/svg11.dtd">
<svg width="59px" height="59px" version="1.1" xmlns="http://www.w3.org/2000/svg" xmlns:xlink="http://www.w3.org/1999/xlink" xml:space="preserve" xmlns:serif="http://www.serif.com/" style="fill-rule:evenodd;clip-rule:evenodd;stroke-linejoin:round;stroke-miterlimit:2;">
    <g transform="matrix(0.626215,0,0,0.626215,-39.6441,-77.8477)">
        <path d="M98.925,132.796C99.411,131.054 100.325,127.579 101.679,125.838L133.076,125.775C135.233,128.55 136.532,132.475 136.446,135.25L146.779,130.83C149.349,130.033 152.084,131.473 152.881,134.043C153.678,136.614 152.238,139.349 149.667,140.146C149.667,140.146 147.4,140.586 144.843,141.082C143.831,141.279 143.034,142.058 142.815,143.065C142.597,144.071 142.998,145.112 143.836,145.71C146.05,147.12 147.903,148.729 148.858,150.141C152.958,156.2 153.188,162.258 148.858,168.317C147.099,170.628 143.298,172.52 139.103,174.354C137.217,175.179 136.89,177.507 137.091,179.378C135.753,189.213 134.506,198.964 137.091,205.155C137.091,205.155 138.887,204.864 140.79,206.209C140.969,206.335 141.135,206.465 141.302,206.586C142.658,207.755 143.361,209.509 143.189,211.29C143.016,213.072 141.99,214.658 140.435,215.545C138.864,216.442 137.139,217.396 134.603,217.572C132.861,218.883 120.877,217.972 116.447,217.145C116.447,217.145 113.371,218.294 111.701,218.232C106.949,218.055 103.828,217.461 99.664,215.77C97.145,213.05 92.571,209.08 88.664,206.462C84.919,201.802 84.737,197.32 86.541,192.938L95.269,176.912C95.77,175.569 95.623,174.227 94.455,172.885C92.19,170.642 90.966,169.092 90.299,167.914C85.969,161.855 86.199,155.797 90.299,149.738C93.034,145.541 96.946,143.194 101.679,141.661C101.299,141.199 99.974,139.958 99.664,139.495C97.233,140.823 86.434,143.797 86.521,135.81C86.55,133.19 88.474,130.996 90.388,130.996C93.724,131.106 96.607,131.669 98.925,132.796Z" style="fill:white;"/>
    </g>
    <g transform="matrix(0.626215,0,0,0.626215,-39.6441,-77.8477)">
        <path d="M105.82,209.364C108.38,208.632 110.602,207.507 112.663,206.898C114.304,206.414 115.823,206.279 117.351,207.345C118.54,208.176 119.041,209.247 119.193,210.268C119.193,210.274 119.194,210.279 119.195,210.284C119.46,211.933 118.584,213.554 117.059,214.236C117.051,214.24 117.042,214.244 117.034,214.248C115.58,214.934 113.958,215.605 111.696,215.762C110.933,215.814 110.356,216.477 110.409,217.24C110.461,218.004 111.124,218.581 111.887,218.528C114.567,218.343 116.495,217.569 118.217,216.756C120.866,215.563 122.393,212.734 121.934,209.853C121.685,208.185 120.88,206.428 118.939,205.071L118.938,205.071C116.632,203.461 114.355,203.507 111.878,204.238C109.823,204.845 107.609,205.969 105.058,206.698C104.322,206.908 103.895,207.677 104.106,208.412C104.316,209.148 105.084,209.575 105.82,209.364ZM128.467,209.364C131.026,208.632 133.248,207.507 135.31,206.898C136.95,206.414 138.47,206.279 139.998,207.345C141.187,208.176 141.687,209.247 141.839,210.268C141.84,210.274 141.841,210.279 141.842,210.284C142.106,211.933 141.231,213.554 139.706,214.236C139.698,214.24 139.689,214.244 139.681,214.248C138.227,214.934 136.605,215.605 134.343,215.762C133.579,215.814 133.002,216.477 133.055,217.24C133.108,218.004 133.771,218.581 134.534,218.528C137.214,218.343 139.141,217.569 140.864,216.756C143.512,215.563 145.04,212.734 144.581,209.853C144.331,208.185 143.527,206.428 141.585,205.071C139.279,203.461 137.001,203.507 134.525,204.238C132.47,204.845 130.256,205.969 127.704,206.698C126.969,206.908 126.542,207.677 126.752,208.412C126.963,209.148 127.731,209.575 128.467,209.364ZM87.892,207.615C91.711,210.175 96.184,214.054 98.647,216.713C99.167,217.275 100.046,217.309 100.608,216.788C101.17,216.268 101.203,215.389 100.683,214.827C98.108,212.046 93.432,207.987 89.437,205.31C88.801,204.883 87.939,205.054 87.512,205.69C87.086,206.326 87.256,207.189 87.892,207.615ZM66.33,212.353L66.372,212.406C66.421,212.467 66.472,212.51 66.522,212.541C66.761,212.713 67.032,212.784 67.338,212.753C67.657,212.72 67.927,212.583 68.147,212.342C68.148,212.34 68.15,212.338 68.151,212.336C68.998,211.381 69.969,210.89 71.076,210.89C71.968,210.89 72.845,211.313 73.726,212.118C73.726,212.119 73.727,212.119 73.727,212.119C75.052,213.322 76.508,213.915 78.089,213.915C80.069,213.928 81.697,213.169 82.972,211.637C82.978,211.629 82.983,211.622 82.989,211.615C83.185,211.353 83.269,211.055 83.237,210.717C83.204,210.381 83.061,210.104 82.805,209.885L82.689,209.791C82.439,209.587 82.144,209.497 81.803,209.531C81.472,209.564 81.195,209.709 80.973,209.971C80.526,210.472 80.073,210.838 79.608,211.057C79.153,211.271 78.647,211.375 78.091,211.375L78.084,211.375C77.194,211.386 76.319,210.969 75.441,210.166C75.44,210.165 75.44,210.165 75.439,210.165C74.115,208.962 72.659,208.369 71.078,208.369C69.098,208.356 67.47,209.115 66.195,210.648C66.194,210.649 66.193,210.65 66.192,210.651C65.988,210.9 65.896,211.197 65.93,211.548C65.961,211.87 66.094,212.139 66.33,212.353ZM66.475,212.506L66.456,212.491C66.462,212.496 66.468,212.501 66.475,212.506ZM94.292,176.379L85.564,192.406C85.27,192.945 85.47,193.621 86.009,193.914C86.548,194.208 87.224,194.009 87.518,193.47L96.246,177.443C96.539,176.904 96.34,176.228 95.801,175.934C95.262,175.641 94.586,175.84 94.292,176.379ZM135.63,179.378L135.63,186.376C135.63,188.355 134.026,189.959 132.047,189.959L132.045,189.959C131.187,189.959 130.365,189.618 129.759,189.012C129.153,188.406 128.812,187.583 128.812,186.726L128.812,179.378C128.812,178.572 128.158,177.917 127.351,177.917C126.545,177.917 125.89,178.572 125.89,179.378L125.89,186.726C125.89,188.359 126.539,189.925 127.693,191.079C128.847,192.233 130.412,192.881 132.045,192.881L132.047,192.881C135.64,192.881 138.552,189.969 138.552,186.376L138.552,179.378C138.552,178.572 137.898,177.917 137.091,177.917C136.285,177.917 135.63,178.572 135.63,179.378ZM113.99,179.378L113.99,186.376C113.99,188.355 112.386,189.959 110.407,189.959L110.405,189.959C109.547,189.959 108.725,189.618 108.119,189.012C107.513,188.406 107.172,187.583 107.172,186.726L107.172,179.378C107.172,178.572 106.518,177.917 105.711,177.917C104.905,177.917 104.25,178.572 104.25,179.378L104.25,186.726C104.25,188.359 104.899,189.925 106.053,191.079C107.207,192.233 108.772,192.881 110.405,192.881L110.407,192.881C114,192.881 116.912,189.969 116.912,186.376L116.912,179.378C116.912,178.572 116.258,177.917 115.451,177.917C114.645,177.917 113.99,178.572 113.99,179.378ZM130.987,171.674L131.192,171.674C131.538,171.658 131.834,171.521 132.081,171.26C132.333,170.994 132.462,170.672 132.462,170.292L132.462,166.614C132.462,166.241 132.337,165.918 132.09,165.644C131.825,165.351 131.501,165.208 131.122,165.208L130.612,165.208L130.612,150.985C130.612,150.604 130.483,150.282 130.231,150.016C129.968,149.738 129.648,149.601 129.273,149.601L121.505,149.601C121.122,149.601 120.803,149.743 120.548,150.026C120.31,150.29 120.187,150.608 120.187,150.985L120.187,151.743C120.187,154.066 120.173,155.828 120.144,157.028C120.115,158.225 120.075,159.324 120.025,160.323C119.977,161.269 119.879,162.003 119.721,162.523C119.564,163.043 119.394,163.496 119.209,163.879C119.038,164.234 118.782,164.677 118.443,165.208L118.284,165.208C117.906,165.208 117.582,165.35 117.317,165.644C117.07,165.918 116.945,166.241 116.945,166.614L116.945,170.292C116.945,170.672 117.074,170.994 117.326,171.26C117.573,171.521 117.869,171.658 118.215,171.674L118.42,171.674C118.765,171.658 119.062,171.521 119.308,171.26C119.56,170.994 119.689,170.672 119.689,170.292L119.689,167.906L129.717,167.906L129.717,170.292C129.717,170.672 129.846,170.994 130.098,171.26C130.345,171.521 130.641,171.658 130.987,171.674ZM147.647,150.96C151.37,156.462 151.601,161.964 147.668,167.467C147.199,168.123 147.351,169.037 148.008,169.507C148.664,169.976 149.579,169.824 150.048,169.167C154.776,162.552 154.546,155.937 150.069,149.321C149.617,148.653 148.707,148.477 148.038,148.93C147.37,149.382 147.194,150.292 147.647,150.96ZM97.844,166.093C98.282,166.725 98.323,167.356 97.861,167.988C97.499,168.483 97.606,169.179 98.101,169.541C98.596,169.903 99.292,169.796 99.654,169.301C100.746,167.81 100.705,166.318 99.671,164.827C99.322,164.323 98.629,164.198 98.125,164.547C97.621,164.896 97.495,165.589 97.844,166.093ZM93.722,166.093C94.16,166.725 94.201,167.356 93.739,167.988C93.377,168.483 93.484,169.179 93.979,169.541C94.474,169.903 95.17,169.796 95.532,169.301C96.624,167.81 96.583,166.318 95.549,164.827C95.2,164.323 94.507,164.198 94.003,164.547C93.499,164.896 93.373,165.589 93.722,166.093ZM89.088,148.918C84.612,155.534 84.381,162.149 89.109,168.765C89.579,169.421 90.493,169.573 91.15,169.104C91.806,168.635 91.958,167.72 91.489,167.064C87.557,161.562 87.788,156.06 91.511,150.558C91.963,149.889 91.787,148.979 91.119,148.527C90.45,148.074 89.54,148.25 89.088,148.918ZM121.745,165.208C122.322,164.024 122.671,162.854 122.797,161.699C122.939,160.403 123.014,157.269 123.018,152.299L127.716,152.299L127.716,165.208L121.745,165.208ZM98.733,156.896C99.554,156.896 100.22,157.565 100.22,158.389C100.22,159.213 99.554,159.882 98.733,159.882C97.913,159.882 97.246,159.213 97.246,158.389C97.246,157.565 97.913,156.896 98.733,156.896ZM107.358,148.893L103.978,152.355C103.414,152.933 103.425,153.861 104.003,154.425C104.581,154.989 105.509,154.978 106.073,154.4L109.453,150.938C110.017,150.36 110.006,149.432 109.428,148.868C108.85,148.304 107.922,148.315 107.358,148.893ZM137.68,150.817L141.059,154.279C141.624,154.857 142.551,154.868 143.129,154.304C143.707,153.74 143.719,152.812 143.154,152.234L139.775,148.772C139.21,148.194 138.283,148.183 137.705,148.747C137.127,149.311 137.115,150.239 137.68,150.817ZM100.525,124.941C98.251,127.867 97.089,130.808 97.057,133.734C97.024,136.68 98.131,139.642 100.549,142.588C101.061,143.211 101.982,143.302 102.606,142.79C103.229,142.279 103.319,141.357 102.808,140.734C100.896,138.406 99.953,136.094 99.978,133.765C100.004,131.417 101.006,129.083 102.832,126.734C103.327,126.098 103.212,125.179 102.575,124.684C101.939,124.19 101.02,124.305 100.525,124.941ZM107.048,124.941C104.775,127.867 103.612,130.808 103.58,133.734C103.548,136.68 104.654,139.642 107.073,142.588C107.584,143.211 108.506,143.302 109.129,142.79C109.752,142.279 109.843,141.357 109.331,140.734C107.42,138.406 106.476,136.094 106.502,133.765C106.527,131.417 107.53,129.083 109.355,126.734C109.85,126.098 109.735,125.179 109.098,124.684C108.462,124.19 107.543,124.305 107.048,124.941ZM113.572,124.941C111.298,127.867 110.135,130.808 110.103,133.734C110.071,136.68 111.177,139.642 113.596,142.588C114.108,143.211 115.029,143.302 115.652,142.79C116.275,142.279 116.366,141.357 115.854,140.734C113.943,138.406 112.999,136.094 113.025,133.765C113.051,131.417 114.053,129.083 115.879,126.734C116.373,126.098 116.258,125.179 115.622,124.684C114.985,124.19 114.066,124.305 113.572,124.941ZM131.923,126.672C133.748,129.02 134.751,131.354 134.776,133.703C134.802,136.031 133.858,138.343 131.947,140.671C131.435,141.294 131.526,142.216 132.149,142.727C132.772,143.239 133.694,143.148 134.205,142.525C136.624,139.579 137.73,136.617 137.698,133.671C137.666,130.745 136.503,127.804 134.23,124.879C133.735,124.242 132.816,124.127 132.18,124.622C131.543,125.116 131.428,126.035 131.923,126.672ZM125.4,126.672C127.225,129.02 128.228,131.354 128.253,133.703C128.279,136.031 127.335,138.343 125.424,140.671C124.912,141.294 125.003,142.216 125.626,142.727C126.249,143.239 127.171,143.148 127.682,142.525C130.101,139.579 131.207,136.617 131.175,133.671C131.143,130.745 129.98,127.804 127.707,124.879C127.212,124.242 126.293,124.127 125.657,124.622C125.02,125.116 124.905,126.035 125.4,126.672ZM85.575,136.189L85.575,136.119C85.575,134.302 86.169,132.845 87.183,131.83C88.198,130.816 89.654,130.222 91.471,130.222C92.583,130.222 93.632,130.473 94.618,130.956C95.082,131.183 95.329,131.7 95.212,132.204C95.191,132.294 95.16,132.38 95.119,132.459L94.968,132.762C94.628,133.44 93.97,133.384 93.97,133.384C93.798,133.384 93.628,133.343 93.473,133.266C92.849,132.954 92.181,132.799 91.471,132.799C90.449,132.799 89.602,133.084 89.022,133.661C88.443,134.237 88.152,135.083 88.152,136.119C88.152,136.473 88.191,136.808 88.267,137.119L88.255,137.119C88.387,137.705 88.643,138.199 89.022,138.576C89.602,139.153 90.449,139.439 91.471,139.439C92.181,139.439 92.849,139.283 93.473,138.971C93.628,138.894 93.798,138.854 93.97,138.854C93.97,138.854 94.628,138.797 94.968,139.475L95.119,139.778C95.16,139.857 95.191,139.943 95.212,140.033C95.329,140.537 95.082,141.054 94.618,141.282C93.632,141.764 92.583,142.015 91.471,142.015C89.654,142.015 88.198,141.422 87.183,140.407C86.182,139.405 85.591,137.974 85.575,136.189ZM141.834,134.601C143.875,134.018 145.646,133.12 147.29,132.635C148.513,132.274 149.647,132.157 150.785,132.952C151.255,133.28 151.583,133.656 151.798,134.054C152.174,134.767 152.238,135.604 151.973,136.365C151.706,137.128 151.135,137.746 150.395,138.071C150.393,138.072 150.39,138.073 150.387,138.074C149.298,138.56 148.081,139.032 146.42,139.148C145.656,139.201 145.079,139.864 145.132,140.627C145.185,141.391 145.848,141.968 146.612,141.915C148.663,141.773 150.172,141.208 151.518,140.608C152.956,139.977 154.072,138.77 154.592,137.279L154.593,137.278C155.112,135.787 154.987,134.147 154.248,132.752C154.246,132.749 154.245,132.746 154.243,132.743C153.844,132.002 153.249,131.289 152.374,130.677C150.456,129.338 148.564,129.366 146.505,129.974C144.868,130.457 143.104,131.352 141.071,131.934C140.335,132.144 139.908,132.913 140.119,133.649C140.329,134.385 141.098,134.812 141.834,134.601Z" style="fill-rule:nonzero;"/>
    </g>
</svg>
