<?xml version="1.0" encoding="UTF-8" standalone="no"?>
<!DOCTYPE svg PUBLIC "-//W3C//DTD SVG 1.1//EN" "http://www.w3.org/Graphics/SVG/1.1/DTD/svg11.dtd">
<svg width="62px" height="84px" version="1.1" xmlns="http://www.w3.org/2000/svg" xmlns:xlink="http://www.w3.org/1999/xlink" xml:space="preserve" xmlns:serif="http://www.serif.com/" style="fill-rule:evenodd;clip-rule:evenodd;stroke-linejoin:round;stroke-miterlimit:2;">
    <g transform="matrix(0.578382,0,0,0.590002,-31.5332,-16.6903)">
        <path d="M67.725,109.409C65.173,115.43 65.742,121.451 66.642,127.473C66.642,127.473 62.825,132.053 60.042,135.392C58.071,137.756 56.77,140.586 56.269,143.598C51.621,171.126 62.748,169.506 69.28,159.953C71.893,156.133 72.045,153.285 72.834,148.913C72.62,143.657 81.401,142.466 83.789,146.575C84.513,147.821 84.93,149.208 84.402,150.074C80.688,156.17 80.995,162.052 85.53,168.29C86.489,168.925 88.23,169.395 91.191,169.609L114.628,169.609C116.753,169.426 118.241,169.034 118.65,168.29C123.606,161.474 123.342,155.185 118.65,148.369C117.437,146.607 113.745,141.349 113.66,136.591L113.66,128.447L120.479,120.84C123.221,114.296 127.856,110.999 133.951,110.207L140.522,110.207C144.253,109.589 147.816,108.599 150.975,106.719C153.196,106.55 154.876,105.915 156.358,105.196C159.064,103.956 160.558,101.065 159.976,98.193C159.749,96.8 159.052,95.391 157.59,94.276C153.598,91.231 149.683,94.687 144.36,96.35C141.352,95.909 140.207,91.858 145.064,90.276C150.137,88.624 153.588,85.912 156.371,82.763C161.497,75.763 161.224,68.763 156.371,61.763C153.747,59.514 153.245,56.704 154.944,53.286C160.069,46.806 159.796,40.326 154.944,33.847L77.6,34.214C72.748,40.694 72.475,47.174 77.6,53.654C79.292,56.219 79.122,58.669 77,61C72.148,68 71.875,75 77,82C79.054,85.606 79.632,88.656 78.055,90.893L67.725,109.409" style="fill:white;"/>
    </g>
    <g transform="matrix(0.621268,0,0,0.621268,-37.6283,-51.5259)">
        <path d="M94.657,218.144L116.476,218.144C117.165,218.144 117.724,217.585 117.724,216.896C117.724,216.207 117.165,215.648 116.476,215.648L94.657,215.648C93.969,215.648 93.409,216.207 93.409,216.896C93.409,217.585 93.969,218.144 94.657,218.144ZM88.401,196.275C83.713,203.222 83.467,210.17 88.419,217.117C88.819,217.679 89.601,217.81 90.162,217.409C90.724,217.009 90.855,216.228 90.455,215.666C86.18,209.668 86.426,203.671 90.473,197.674C90.859,197.102 90.708,196.324 90.136,195.938C89.564,195.552 88.787,195.703 88.401,196.275ZM119.234,197.674C123.281,203.671 123.527,209.668 119.252,215.666C118.852,216.228 118.983,217.009 119.545,217.409C120.106,217.81 120.888,217.679 121.288,217.117C126.24,210.17 125.994,203.222 121.306,196.275C120.92,195.703 120.143,195.552 119.571,195.938C118.999,196.324 118.848,197.102 119.234,197.674ZM74.051,206.537L74.037,206.533C73.73,206.421 73.423,206.432 73.115,206.57C72.811,206.707 72.592,206.934 72.462,207.254C72.462,207.254 72.462,207.255 72.461,207.256C71.742,209.052 70.868,210.419 69.826,211.349C68.838,212.231 67.763,212.68 66.596,212.68C65.927,212.68 65.387,212.613 64.977,212.468C64.61,212.337 64.288,212.087 64.003,211.728C63.695,211.339 63.488,210.781 63.36,210.063C63.217,209.266 63.147,208.241 63.147,206.987C63.147,204.612 63.211,201.755 63.338,198.415C63.358,198.084 63.251,197.785 63.003,197.525C62.772,197.281 62.505,197.152 62.212,197.124L62.047,197.101C61.696,197.076 61.39,197.194 61.133,197.464C60.904,197.704 60.78,197.988 60.76,198.316C60.759,198.32 60.759,198.325 60.759,198.329C60.631,201.741 60.567,204.627 60.567,206.987C60.567,210.057 61.024,212.169 61.864,213.337C62.746,214.561 64.311,215.219 66.596,215.219C68.372,215.219 69.97,214.61 71.389,213.387C72.762,212.202 73.903,210.465 74.796,208.165C74.797,208.162 74.798,208.158 74.799,208.155C74.906,207.864 74.906,207.562 74.789,207.248C74.662,206.909 74.434,206.681 74.113,206.559L74.146,206.573L74.051,206.537ZM76.747,198.182C77.033,198.542 77.215,198.889 77.219,199.25C77.223,199.594 77.055,199.926 76.766,200.27C76.372,200.74 76.433,201.442 76.903,201.836C77.373,202.23 78.075,202.168 78.469,201.698C79.157,200.878 79.45,200.045 79.441,199.225C79.432,198.421 79.126,197.604 78.488,196.8C78.107,196.319 77.407,196.239 76.926,196.62C76.446,197.001 76.366,197.701 76.747,198.182ZM62.614,197.874C62.645,197.81 62.664,197.738 62.667,197.662C62.676,197.423 62.523,197.215 62.305,197.145C62.455,197.194 62.503,197.302 62.496,197.43C62.522,197.495 62.535,197.566 62.533,197.64C62.531,197.689 62.523,197.737 62.509,197.781C62.545,197.808 62.58,197.839 62.614,197.874ZM71.912,168.076L71.715,168.076C71.355,168.076 71.047,168.213 70.795,168.497C70.567,168.755 70.449,169.066 70.449,169.434L70.449,171.285C70.449,174.597 69.787,177.57 68.456,180.202C67.136,182.813 65.297,184.851 62.936,186.315C62.931,186.317 62.927,186.32 62.923,186.323C62.646,186.505 62.462,186.768 62.381,187.12C62.305,187.451 62.349,187.765 62.513,188.061L62.574,188.188L62.583,188.203C62.766,188.521 63.033,188.721 63.377,188.809C63.725,188.897 64.056,188.853 64.37,188.676C64.375,188.673 64.379,188.671 64.383,188.668C66.249,187.545 67.889,185.981 69.298,183.972C70.38,182.431 71.242,180.745 71.883,178.916C72.518,180.733 73.366,182.413 74.424,183.956C75.807,185.974 77.421,187.542 79.26,188.666C79.27,188.672 79.28,188.678 79.291,188.684C79.625,188.86 79.955,188.894 80.278,188.806C80.606,188.717 80.867,188.517 81.051,188.191L81.038,188.213L81.099,188.089C81.294,187.779 81.343,187.45 81.252,187.103C81.161,186.759 80.975,186.501 80.704,186.323C80.701,186.321 80.697,186.318 80.693,186.316C78.331,184.838 76.492,182.791 75.171,180.18C73.84,177.548 73.178,174.583 73.178,171.285L73.178,169.434C73.178,169.066 73.06,168.755 72.832,168.497C72.58,168.213 72.272,168.076 71.912,168.076ZM114.34,179.484L114.34,184.986C114.34,185.423 114.468,185.743 114.667,185.961C114.882,186.198 115.195,186.344 115.625,186.344C116.056,186.344 116.368,186.198 116.584,185.961C116.782,185.743 116.91,185.423 116.91,184.986L116.91,179.484L122.486,172.265C122.494,172.254 122.501,172.244 122.508,172.233C122.736,171.891 122.82,171.571 122.801,171.286C122.78,170.964 122.635,170.666 122.335,170.409C122.322,170.398 122.309,170.388 122.296,170.378C121.993,170.162 121.686,170.091 121.384,170.135C121.112,170.173 120.831,170.312 120.559,170.584C120.54,170.602 120.523,170.622 120.508,170.642L115.625,177.13L110.743,170.642C110.727,170.622 110.71,170.602 110.692,170.584C110.42,170.312 110.138,170.173 109.867,170.135C109.564,170.091 109.257,170.162 108.954,170.378C108.941,170.388 108.928,170.398 108.916,170.409C108.615,170.666 108.471,170.964 108.449,171.286C108.43,171.571 108.514,171.891 108.742,172.233C108.749,172.244 108.757,172.254 108.765,172.265L114.34,179.484ZM134.515,161.982L140.632,161.982C141.322,161.982 141.882,161.422 141.882,160.732C141.882,160.042 141.322,159.482 140.632,159.482L134.515,159.482C133.826,159.482 133.266,160.042 133.266,160.732C133.266,161.422 133.826,161.982 134.515,161.982ZM81.502,141.857L71.885,159.441C71.591,159.98 71.789,160.656 72.327,160.95C72.865,161.244 73.541,161.046 73.835,160.508L83.452,142.924C83.747,142.386 83.549,141.71 83.011,141.415C82.472,141.121 81.796,141.319 81.502,141.857ZM91.846,149.158C94.666,148.355 97.113,147.12 99.385,146.452C101.236,145.908 102.949,145.764 104.673,146.962C105.402,147.469 105.907,148.053 106.239,148.669C106.824,149.775 106.922,151.075 106.51,152.257C106.097,153.44 105.21,154.399 104.062,154.901C104.059,154.902 104.057,154.904 104.054,154.905C102.494,155.599 100.751,156.273 98.37,156.437C97.606,156.489 97.028,157.153 97.08,157.917C97.133,158.682 97.796,159.26 98.561,159.207C101.332,159.017 103.367,158.25 105.183,157.442C107.031,156.633 108.465,155.085 109.132,153.172C109.8,151.259 109.64,149.155 108.691,147.364C108.69,147.361 108.688,147.359 108.687,147.356C108.17,146.396 107.396,145.473 106.258,144.682C103.757,142.943 101.287,142.998 98.602,143.787C96.337,144.453 93.897,145.686 91.085,146.487C90.348,146.697 89.92,147.465 90.13,148.202C90.34,148.94 91.109,149.368 91.846,149.158ZM144.628,148.898C147.11,148.107 149.265,146.891 151.264,146.233C152.805,145.726 154.234,145.584 155.669,146.701C156.725,147.523 157.227,148.564 157.429,149.584C157.85,151.705 156.771,153.839 154.814,154.758C153.544,155.334 152.13,155.888 150.258,156.032C149.492,156.091 148.919,156.761 148.978,157.526C149.036,158.292 149.706,158.865 150.471,158.806C152.73,158.633 154.442,157.982 155.973,157.287C155.977,157.285 155.982,157.283 155.987,157.281C159.107,155.821 160.829,152.421 160.158,149.042C159.839,147.436 159.042,145.801 157.378,144.505C155.096,142.73 152.844,142.784 150.394,143.59C148.402,144.245 146.256,145.459 143.784,146.247C143.052,146.48 142.647,147.263 142.88,147.995C143.114,148.727 143.897,149.131 144.628,148.898ZM154.179,115.548C158.316,121.638 158.571,127.728 154.2,133.817C153.729,134.473 153.88,135.387 154.535,135.858C155.191,136.328 156.105,136.178 156.576,135.522C161.748,128.317 161.494,121.111 156.597,113.905C156.144,113.237 155.234,113.064 154.566,113.517C153.899,113.971 153.725,114.881 154.179,115.548ZM135.737,136.037L135.846,136.038C136.243,136.038 136.582,135.893 136.86,135.6C137.128,135.318 137.264,134.977 137.264,134.574L137.264,130.539C137.264,130.143 137.132,129.801 136.868,129.51C136.588,129.201 136.246,129.051 135.846,129.051L135.226,129.051L135.226,113.39C135.226,112.987 135.09,112.646 134.822,112.364C134.544,112.072 134.205,111.927 133.808,111.927L125.249,111.927C124.844,111.927 124.508,112.076 124.238,112.374C123.985,112.653 123.854,112.991 123.854,113.39L123.854,114.222C123.854,116.772 123.838,118.705 123.807,120.022C123.775,121.336 123.731,122.542 123.675,123.639C123.622,124.682 123.513,125.492 123.339,126.065C123.164,126.639 122.976,127.138 122.771,127.56L122.771,127.561C122.579,127.957 122.291,128.454 121.908,129.051L121.7,129.051C121.3,129.051 120.958,129.201 120.678,129.51C120.414,129.8 120.282,130.143 120.282,130.539L120.282,134.574C120.282,134.977 120.419,135.318 120.687,135.6C120.965,135.893 121.303,136.038 121.7,136.038L121.772,136.038C122.17,136.038 122.508,135.893 122.786,135.6C123.054,135.318 123.191,134.977 123.191,134.574L123.191,131.902L134.355,131.902L134.355,134.574C134.355,134.977 134.492,135.318 134.76,135.6C135.029,135.883 135.355,136.028 135.737,136.037ZM80.286,113.18C75.39,120.386 75.136,127.592 80.308,134.798C80.778,135.453 81.692,135.604 82.348,135.133C83.004,134.662 83.154,133.748 82.683,133.092C78.313,127.003 78.567,120.913 82.705,114.824C83.159,114.156 82.985,113.246 82.317,112.792C81.65,112.339 80.74,112.513 80.286,113.18ZM89.888,129.964C90.174,130.325 90.355,130.672 90.359,131.032C90.363,131.377 90.195,131.708 89.906,132.053C89.512,132.523 89.574,133.224 90.044,133.618C90.514,134.012 91.216,133.951 91.61,133.481C92.297,132.66 92.591,131.828 92.582,131.008C92.573,130.203 92.267,129.387 91.629,128.582C91.247,128.102 90.548,128.021 90.067,128.403C89.587,128.784 89.506,129.484 89.888,129.964ZM125.424,129.051C126.078,127.732 126.475,126.427 126.616,125.14C126.773,123.714 126.855,120.26 126.859,114.778L132.15,114.778L132.15,129.051L125.424,129.051ZM90.731,119.877C91.635,119.877 92.369,120.611 92.369,121.515C92.369,122.419 91.635,123.153 90.731,123.153C89.826,123.153 89.092,122.419 89.092,121.515C89.092,120.611 89.826,119.877 90.731,119.877ZM111.975,111.194L108.251,114.992C107.687,115.568 107.696,116.495 108.272,117.059C108.848,117.624 109.774,117.615 110.339,117.039L114.063,113.24C114.627,112.664 114.618,111.738 114.042,111.173C113.466,110.609 112.54,110.618 111.975,111.194ZM143.182,113.108L146.906,116.906C147.47,117.482 148.396,117.491 148.972,116.927C149.548,116.362 149.558,115.436 148.993,114.86L145.269,111.061C144.704,110.485 143.778,110.476 143.202,111.041C142.626,111.605 142.617,112.532 143.182,113.108ZM93.331,87.699C90.867,91.055 89.599,94.424 89.565,97.78C89.53,101.157 90.736,104.545 93.354,107.922C93.849,108.56 94.768,108.676 95.406,108.181C96.044,107.687 96.16,106.768 95.665,106.13C93.512,103.352 92.46,100.588 92.489,97.81C92.518,95.013 93.635,92.227 95.689,89.43C96.166,88.779 96.026,87.863 95.375,87.386C94.724,86.908 93.809,87.049 93.331,87.699ZM105.787,87.699C103.323,91.055 102.055,94.424 102.02,97.78C101.985,101.157 103.192,104.545 105.81,107.922C106.304,108.56 107.224,108.676 107.861,108.181C108.499,107.687 108.615,106.768 108.121,106.13C105.968,103.352 104.916,100.588 104.944,97.81C104.973,95.013 106.091,92.227 108.144,89.43C108.622,88.779 108.481,87.863 107.831,87.386C107.18,86.908 106.264,87.049 105.787,87.699ZM80.875,87.699C78.412,91.055 77.144,94.424 77.109,97.78C77.074,101.157 78.281,104.545 80.899,107.922C81.393,108.56 82.312,108.676 82.95,108.181C83.588,107.687 83.704,106.768 83.21,106.13C81.056,103.352 80.005,100.588 80.033,97.81C80.062,95.013 81.179,92.227 83.233,89.43C83.71,88.779 83.57,87.863 82.919,87.386C82.269,86.908 81.353,87.049 80.875,87.699ZM127.969,89.08C130.023,91.878 131.14,94.663 131.169,97.461C131.198,100.238 130.146,103.003 127.992,105.78C127.498,106.418 127.614,107.338 128.252,107.832C128.89,108.327 129.809,108.21 130.304,107.572C132.922,104.196 134.128,100.807 134.093,97.431C134.059,94.074 132.79,90.706 130.327,87.35C129.849,86.699 128.933,86.559 128.283,87.036C127.632,87.514 127.492,88.43 127.969,89.08ZM140.424,89.08C142.478,91.878 143.595,94.663 143.624,97.461C143.653,100.238 142.601,103.003 140.447,105.78C139.953,106.418 140.069,107.338 140.707,107.832C141.345,108.327 142.264,108.21 142.759,107.572C145.377,104.196 146.583,100.807 146.548,97.431C146.514,94.074 145.245,90.706 142.782,87.35C142.304,86.699 141.388,86.559 140.738,87.036C140.087,87.514 139.947,88.43 140.424,89.08ZM152.88,89.08C154.934,91.878 156.051,94.663 156.08,97.461C156.109,100.238 155.057,103.003 152.903,105.78C152.409,106.418 152.525,107.338 153.163,107.832C153.801,108.327 154.72,108.21 155.215,107.572C157.833,104.196 159.039,100.807 159.004,97.431C158.97,94.074 157.701,90.706 155.238,87.35C154.76,86.699 153.844,86.559 153.194,87.036C152.543,87.514 152.403,88.43 152.88,89.08Z" style="fill-rule:nonzero;"/>
    </g>
</svg>
