<?xml version="1.0" encoding="UTF-8" standalone="no"?>
<!DOCTYPE svg PUBLIC "-//W3C//DTD SVG 1.1//EN" "http://www.w3.org/Graphics/SVG/1.1/DTD/svg11.dtd">
<svg width="53px" height="68px" version="1.1" xmlns="http://www.w3.org/2000/svg" xmlns:xlink="http://www.w3.org/1999/xlink" xml:space="preserve" xmlns:serif="http://www.serif.com/" style="fill-rule:evenodd;clip-rule:evenodd;stroke-linejoin:round;stroke-miterlimit:2;">
    <g transform="matrix(0.578065,0,0,0.578065,-41.0733,-17.6284)">
        <path d="M101.852,32.461L81.403,50.925L75.895,62.73C71.042,69.73 71.875,75 77,82C79.29,85.859 79.101,89.223 77,92.204C72.148,99.204 71.875,106.204 77,113.204C79.146,116.66 78.806,120.115 77,123.57C72.148,130.57 71.875,137.57 77,144.57C77.845,145.652 79.241,146.367 81.403,146.57L106.403,146.57C108.296,146.809 109.949,146.088 111.403,144.57C116.528,137.57 114.917,136.798 114.917,136.798C115.709,141.496 117.874,145.166 123.058,146.57L148.058,146.57C150.479,146.192 151.24,145.365 152.367,144.57C157.492,137.57 157.91,130.57 153.058,123.57C150.511,118.926 146.502,115.712 148.895,111.068C152.5,110.815 154.756,108.99 155.664,105.59L155.664,95.047C154.851,91.491 154.291,87.765 156.792,82C161.917,75 161.644,68 156.792,61L150.888,50.925L129.622,32.461C119.324,31.21 109.956,31.077 101.852,32.461Z" style="fill:white;"/>
    </g>
    <g transform="matrix(0.617415,0,0,0.617415,-41.4156,-66.9699)">
        <path d="M115.769,218.605L139.176,218.605C139.982,218.605 140.636,217.951 140.636,217.145C140.636,216.339 139.982,215.685 139.176,215.685L115.769,215.685C114.963,215.685 114.309,216.339 114.309,217.145C114.309,217.951 114.963,218.605 115.769,218.605ZM76.769,218.605L100.176,218.605C100.982,218.605 101.636,217.951 101.636,217.145C101.636,216.339 100.982,215.685 100.176,215.685L76.769,215.685C75.963,215.685 75.309,216.339 75.309,217.145C75.309,217.951 75.963,218.605 76.769,218.605ZM71.447,194.779C66.513,201.898 66.256,209.017 71.469,216.136C71.945,216.786 72.859,216.927 73.51,216.451C74.16,215.975 74.301,215.061 73.825,214.41C69.44,208.421 69.695,202.432 73.847,196.443C74.306,195.78 74.141,194.87 73.479,194.411C72.816,193.952 71.906,194.117 71.447,194.779ZM142.657,196.443C146.809,202.432 147.064,208.421 142.679,214.41C142.203,215.061 142.344,215.975 142.994,216.451C143.645,216.927 144.559,216.786 145.035,216.136C150.248,209.017 149.991,201.898 145.057,194.779C144.598,194.117 143.688,193.952 143.025,194.411C142.363,194.87 142.198,195.78 142.657,196.443ZM103.657,196.443C107.809,202.432 108.064,208.421 103.679,214.41C103.203,215.061 103.344,215.975 103.994,216.451C104.645,216.927 105.559,216.786 106.035,216.136C111.248,209.017 110.991,201.898 106.057,194.779C105.598,194.117 104.688,193.952 104.025,194.411C103.363,194.87 103.198,195.78 103.657,196.443ZM71.447,165.412C66.513,172.531 66.256,179.65 71.469,186.769C71.945,187.419 72.859,187.56 73.51,187.084C74.16,186.608 74.301,185.694 73.825,185.043C69.44,179.054 69.695,173.065 73.847,167.076C74.306,166.413 74.141,165.503 73.479,165.044C72.816,164.585 71.906,164.75 71.447,165.412ZM96.958,182.446C95.578,182.446 94.256,181.898 93.28,180.923C92.305,179.947 91.758,178.625 91.758,177.246L91.758,168.906C91.758,168.1 91.104,167.446 90.298,167.446C89.492,167.446 88.838,168.1 88.838,168.906L88.838,177.246C88.838,179.399 89.693,181.465 91.216,182.987C92.738,184.51 94.804,185.366 96.958,185.366L96.96,185.366C101.266,185.366 104.758,181.874 104.758,177.568L104.758,168.906C104.758,168.1 104.104,167.446 103.298,167.446C102.492,167.446 101.838,168.1 101.838,168.906L101.838,177.568C101.838,180.262 99.654,182.446 96.96,182.446L96.958,182.446ZM139.958,182.446C138.578,182.446 137.256,181.898 136.28,180.923C135.305,179.947 134.758,178.625 134.758,177.246L134.758,168.906C134.758,168.1 134.104,167.446 133.298,167.446C132.492,167.446 131.838,168.1 131.838,168.906L131.838,177.246C131.838,179.399 132.693,181.465 134.216,182.987C135.738,184.51 137.804,185.366 139.958,185.366L139.96,185.366C144.266,185.366 147.758,181.874 147.758,177.568L147.758,168.906C147.758,168.1 147.104,167.446 146.298,167.446C145.492,167.446 144.838,168.1 144.838,168.906L144.838,177.568C144.838,180.262 142.654,182.446 139.96,182.446L139.958,182.446ZM108.066,159.023L114.151,159.023C114.957,159.023 115.611,158.369 115.611,157.563C115.611,156.757 114.957,156.103 114.151,156.103L108.066,156.103C107.26,156.103 106.606,156.757 106.606,157.563C106.606,158.369 107.26,159.023 108.066,159.023ZM71.447,136.197C66.513,143.316 66.256,150.434 71.469,157.553C71.945,158.203 72.859,158.344 73.51,157.868C74.16,157.392 74.301,156.478 73.825,155.827C69.44,149.838 69.695,143.85 73.847,137.861C74.306,137.198 74.141,136.288 73.479,135.829C72.816,135.37 71.906,135.535 71.447,136.197ZM146.153,137.861C150.305,143.85 150.56,149.838 146.175,155.827C145.699,156.478 145.84,157.392 146.49,157.868C147.141,158.344 148.055,158.203 148.531,157.553C153.744,150.434 153.487,143.316 148.553,136.197C148.094,135.535 147.184,135.37 146.521,135.829C145.859,136.288 145.694,137.198 146.153,137.861ZM118.406,140.635C119.453,145.484 121.156,148.27 123.776,150.39C123.777,150.39 119.479,151.465 119.479,151.465C118.697,151.66 118.221,152.453 118.417,153.235C118.612,154.017 119.405,154.493 120.187,154.297L127.677,152.425C128.256,152.281 128.689,151.798 128.77,151.206C128.85,150.615 128.563,150.034 128.043,149.739C124.48,147.718 122.412,145.356 121.26,140.019C121.09,139.231 120.313,138.73 119.525,138.9C118.737,139.07 118.236,139.847 118.406,140.635ZM99.416,135.997L95.671,139.742C95.101,140.311 95.101,141.237 95.671,141.806C96.24,142.376 97.166,142.376 97.735,141.806L101.48,138.061C102.05,137.492 102.05,136.566 101.48,135.997C100.911,135.427 99.985,135.427 99.416,135.997ZM131.908,137.062L135.654,140.807C136.224,141.376 137.149,141.376 137.719,140.806C138.288,140.236 138.288,139.311 137.718,138.741L133.972,134.996C133.402,134.427 132.477,134.427 131.907,134.997C131.338,135.567 131.338,136.492 131.908,137.062ZM95.318,108.845L74.318,127.845C73.721,128.386 73.675,129.31 74.215,129.908C74.756,130.505 75.68,130.551 76.278,130.011L97.278,111.011C97.875,110.47 97.921,109.546 97.381,108.948C96.84,108.351 95.916,108.305 95.318,108.845ZM121.318,111.011L142.318,130.011C142.916,130.551 143.84,130.505 144.381,129.908C144.921,129.31 144.875,128.386 144.278,127.845L123.278,108.845C122.68,108.305 121.756,108.351 121.215,108.948C120.675,109.546 120.721,110.47 121.318,111.011ZM118.55,110.145C118.55,109.454 117.989,108.893 117.298,108.893L101.298,108.893C100.607,108.893 100.046,109.454 100.046,110.145L100.046,126.145C100.046,126.837 100.607,127.397 101.298,127.397L117.298,127.397C117.989,127.397 118.55,126.837 118.55,126.145L118.55,110.145Z"/>
    </g>
</svg>
