<?xml version="1.0" encoding="UTF-8" standalone="no"?>
<svg xmlns:ffdec="https://www.free-decompiler.com/flash" xmlns:xlink="http://www.w3.org/1999/xlink" ffdec:objectType="shape" height="59.7px" width="68.4px" xmlns="http://www.w3.org/2000/svg">
  <g transform="matrix(1.0, 0.0, 0.0, 1.0, 30.6, 60.5)">
    <path d="M22.85 -42.3 Q20.3 -44.95 17.1 -47.05 L21.6 -49.2 23.95 -50.7 Q26.3 -52.65 29.2 -52.4 28.65 -50.95 28.35 -49.3 28.15 -48.25 27.45 -47.35 L23.45 -41.9 22.85 -42.3 M1.7 -60.5 Q2.45 -58.0 2.65 -55.25 2.75 -54.0 3.4 -52.9 4.05 -51.65 3.9 -50.35 3.8 -49.7 3.15 -49.6 0.6 -49.25 -1.7 -48.35 L-1.1 -55.15 Q-0.9 -58.65 1.7 -60.5 M11.5 -35.35 Q12.75 -35.45 13.0 -36.85 L13.1 -38.45 Q13.1 -40.6 11.15 -40.05 10.55 -39.85 10.4 -39.45 9.4 -37.4 9.7 -35.05 9.85 -33.8 11.05 -33.0 13.55 -31.4 16.15 -32.15 13.55 -31.4 11.05 -33.0 9.85 -33.8 9.7 -35.05 9.4 -37.4 10.4 -39.45 10.55 -39.85 11.15 -40.05 13.1 -40.6 13.1 -38.45 L13.0 -36.85 Q12.75 -35.45 11.5 -35.35 M12.45 -28.15 Q8.7 -28.95 6.85 -32.45 4.9 -35.95 6.55 -39.45 L7.3 -40.6 Q10.0 -43.4 13.8 -42.3 L18.05 -40.9 Q19.35 -40.4 20.0 -39.05 21.65 -35.35 18.15 -33.1 17.15 -32.45 16.15 -32.15 L12.45 -28.15 M-0.5 -35.35 Q-3.0 -37.6 -3.3 -41.1 -3.5 -43.75 -1.2 -45.1 1.05 -46.55 3.3 -44.75 4.15 -44.0 4.4 -42.95 4.9 -40.7 3.25 -39.45 1.6 -37.2 -0.5 -35.35 M1.9 -42.1 Q2.1 -42.75 1.2 -42.55 -1.7 -42.05 -0.3 -39.5 0.3 -38.4 1.55 -38.65 L2.2 -38.85 3.25 -39.45 2.2 -38.85 1.55 -38.65 Q0.3 -38.4 -0.3 -39.5 -1.7 -42.05 1.2 -42.55 2.1 -42.75 1.9 -42.1 M-27.9 -32.25 L-27.8 -32.8 -26.3 -38.5 Q-24.95 -43.45 -20.95 -42.85 -17.0 -42.25 -14.1 -37.7 -11.2 -33.2 -6.95 -32.0 L0.3 -30.2 5.85 -28.75 Q8.3 -28.0 11.55 -26.0 14.8 -24.0 17.3 -21.25 L19.1 -18.6 19.6 -17.55 19.9 -15.95 19.6 -17.55 20.35 -17.85 Q24.05 -18.15 27.65 -19.25 31.4 -20.4 33.7 -23.35 L34.75 -24.3 Q38.3 -21.4 37.75 -17.2 37.7 -16.7 36.95 -16.4 34.8 -15.6 32.5 -15.25 L31.1 -15.2 23.9 -15.75 19.9 -15.95 Q19.9 -13.75 17.85 -11.8 16.9 -10.9 15.75 -10.35 15.35 -10.65 15.3 -10.15 L14.8 -9.95 12.4 -9.35 8.75 -9.1 12.4 -9.35 14.8 -9.95 15.3 -10.15 15.75 -10.35 Q16.9 -9.15 17.95 -7.2 19.15 -5.05 18.45 -2.7 18.05 -1.5 17.0 -1.3 14.5 -0.95 13.8 -3.2 L12.6 -5.6 12.45 -3.7 Q12.35 -3.15 12.05 -2.7 10.2 0.2 7.4 -1.5 L6.8 -2.0 Q6.05 -2.8 6.05 -3.8 6.05 -6.95 8.75 -9.1 L7.6 -9.2 Q5.55 -9.35 3.65 -9.95 L1.05 -10.4 0.55 -10.4 0.55 -8.8 -0.15 -6.45 Q-1.1 -3.85 -3.0 -1.75 L-3.85 -1.2 -8.2 -1.1 Q-8.85 -1.25 -8.9 -1.75 L-10.2 -1.9 -12.75 -2.25 Q-12.8 -3.25 -12.35 -4.05 -10.3 -7.85 -6.45 -10.4 L-5.9 -10.7 -6.3 -10.75 -6.7 -10.75 -10.95 -10.95 -14.45 -11.1 -22.0 -12.0 -23.6 -12.45 Q-25.45 -13.0 -26.7 -14.3 -28.45 -16.0 -29.55 -18.25 -30.45 -20.1 -30.6 -22.1 L-25.0 -20.1 -30.6 -22.1 Q-30.7 -23.8 -30.3 -25.55 -29.6 -29.1 -27.9 -32.25 L-26.9 -31.8 -27.9 -32.25 M-24.95 -20.1 L-24.9 -20.05 -24.0 -19.85 -16.45 -18.8 -16.3 -18.8 -16.25 -18.8 -9.05 -18.6 -8.15 -18.65 Q-4.6 -18.95 -1.35 -20.25 -0.35 -20.7 -1.1 -21.3 -2.8 -22.6 -4.75 -23.3 L-7.35 -23.95 -10.5 -24.65 -11.95 -25.1 Q-15.55 -26.3 -18.95 -27.85 L-23.35 -29.9 -24.65 -30.9 Q-25.75 -32.1 -26.9 -31.8 -25.75 -32.1 -24.65 -30.9 L-23.35 -29.9 -18.95 -27.85 Q-15.55 -26.3 -11.95 -25.1 L-10.5 -24.65 -7.35 -23.95 -4.75 -23.3 Q-2.8 -22.6 -1.1 -21.3 -0.35 -20.7 -1.35 -20.25 -4.6 -18.95 -8.15 -18.65 L-9.05 -18.6 -16.25 -18.8 -16.3 -18.8 -16.45 -18.8 -24.0 -19.85 -24.9 -20.05 -24.95 -20.1 -25.0 -20.1 -24.95 -20.1 -24.5 -20.45 Q-23.25 -21.4 -22.2 -22.9 -20.95 -24.85 -19.2 -26.2 -18.0 -24.2 -17.4 -22.2 L-16.65 -20.15 -16.2 -19.7 -15.65 -19.8 Q-12.9 -21.3 -10.85 -23.35 -9.55 -22.6 -9.25 -21.2 L-8.95 -20.0 -8.35 -18.95 -8.15 -18.7 -5.25 -21.25 Q-4.45 -22.35 -4.7 -22.3 -4.45 -22.35 -5.25 -21.25 L-8.15 -18.7 -8.35 -18.95 -8.95 -20.0 -9.25 -21.2 Q-9.55 -22.6 -10.85 -23.35 -12.9 -21.3 -15.65 -19.8 L-16.2 -19.7 -16.65 -20.15 -17.4 -22.2 Q-18.0 -24.2 -19.2 -26.2 -20.95 -24.85 -22.2 -22.9 -23.25 -21.4 -24.5 -20.45 L-24.95 -20.1 M0.55 -10.4 L-1.6 -10.5 -3.25 -10.6 -5.9 -10.7 -3.25 -10.6 -1.6 -10.5 0.55 -10.4 -0.25 -9.5 0.55 -10.4 M12.55 -8.6 L12.6 -5.6 12.55 -8.6 M-25.0 -20.1 L-25.5 -24.15 Q-26.05 -27.75 -26.9 -31.8 -26.05 -27.75 -25.5 -24.15 L-25.0 -20.1 M-3.25 -10.6 L-4.1 -9.6 Q-5.9 -7.55 -7.35 -5.3 -8.35 -3.8 -8.8 -2.45 L-8.9 -1.75 -8.8 -2.45 Q-8.35 -3.8 -7.35 -5.3 -5.9 -7.55 -4.1 -9.6 L-3.25 -10.6" fill="#ffffff" fill-rule="evenodd" stroke="none"/>
    <path d="M19.6 -17.55 L19.1 -18.6 17.3 -21.25 Q14.8 -24.0 11.55 -26.0 8.3 -28.0 5.85 -28.75 L0.3 -30.2 -6.95 -32.0 Q-11.2 -33.2 -14.1 -37.7 -17.0 -42.25 -20.95 -42.85 -24.95 -43.45 -26.3 -38.5 L-27.8 -32.8 -27.9 -32.25 -28.6 -32.15 M-26.9 -31.8 Q-25.75 -32.1 -24.65 -30.9 L-23.35 -29.9 -18.95 -27.85 Q-15.55 -26.3 -11.95 -25.1 L-10.5 -24.65 -7.35 -23.95 -4.75 -23.3 Q-2.8 -22.6 -1.1 -21.3 -0.35 -20.7 -1.35 -20.25 -4.6 -18.95 -8.15 -18.65 L-9.05 -18.6 -16.25 -18.8 -16.3 -18.8 -16.45 -18.8 -24.0 -19.85 -24.9 -20.05 -24.95 -20.1 -25.0 -20.1 -30.6 -22.1 Q-30.45 -20.1 -29.55 -18.25 -28.45 -16.0 -26.7 -14.3 -25.45 -13.0 -23.6 -12.45 L-22.0 -12.0 -14.45 -11.1 -10.95 -10.95 -6.7 -10.75 -6.3 -10.75 -5.9 -10.7 -3.25 -10.6 -1.6 -10.5 0.55 -10.4 1.05 -10.4 3.65 -9.95 Q5.55 -9.35 7.6 -9.2 L8.75 -9.1 12.4 -9.35 14.8 -9.95 15.3 -10.15 Q15.35 -10.65 15.75 -10.35 16.9 -10.9 17.85 -11.8 19.9 -13.75 19.9 -15.95 L19.6 -17.55 M20.35 -17.85 Q24.05 -18.15 27.65 -19.25 31.4 -20.4 33.7 -23.35 L34.75 -24.3 Q38.3 -21.4 37.75 -17.2 37.7 -16.7 36.95 -16.4 34.8 -15.6 32.5 -15.25 L31.1 -15.2 23.9 -15.75 19.9 -15.95 M-8.9 -1.75 Q-8.85 -1.25 -8.2 -1.1 L-3.85 -1.2 -3.0 -1.75 Q-1.1 -3.85 -0.15 -6.45 L0.55 -8.8 0.55 -10.4 -0.25 -9.5 M8.75 -9.1 Q6.05 -6.95 6.05 -3.8 6.05 -2.8 6.8 -2.0 L7.4 -1.5 Q10.2 0.2 12.05 -2.7 12.35 -3.15 12.45 -3.7 L12.6 -5.6 12.55 -8.6 M15.3 -10.15 L15.75 -10.35 Q16.9 -9.15 17.95 -7.2 19.15 -5.05 18.45 -2.7 18.05 -1.5 17.0 -1.3 14.5 -0.95 13.8 -3.2 L12.6 -5.6 M-26.9 -31.8 Q-26.05 -27.75 -25.5 -24.15 L-25.0 -20.1 -24.95 -20.1 -24.5 -20.45 Q-23.25 -21.4 -22.2 -22.9 -20.95 -24.85 -19.2 -26.2 -18.0 -24.2 -17.4 -22.2 L-16.65 -20.15 -16.2 -19.7 -15.65 -19.8 Q-12.9 -21.3 -10.85 -23.35 -9.55 -22.6 -9.25 -21.2 L-8.95 -20.0 -8.35 -18.95 -8.15 -18.7 -5.25 -21.25 Q-4.45 -22.35 -4.7 -22.3 M-27.9 -32.25 Q-29.6 -29.1 -30.3 -25.55 -30.7 -23.8 -30.6 -22.1 M-5.9 -10.7 L-6.45 -10.4 Q-10.3 -7.85 -12.35 -4.05 -12.8 -3.25 -12.75 -2.25 L-10.2 -1.9 -8.9 -1.75 -8.8 -2.45 Q-8.35 -3.8 -7.35 -5.3 -5.9 -7.55 -4.1 -9.6 L-3.25 -10.6" fill="none" stroke="#000000" stroke-linecap="round" stroke-linejoin="round" stroke-width="0.05"/>
    <path d="M1.7 -60.5 Q-0.9 -58.65 -1.1 -55.15 L-1.7 -48.35 Q0.6 -49.25 3.15 -49.6 3.8 -49.7 3.9 -50.35 4.05 -51.65 3.4 -52.9 2.75 -54.0 2.65 -55.25 2.45 -58.0 1.7 -60.5 M23.45 -41.9 L27.45 -47.35 Q28.15 -48.25 28.35 -49.3 28.65 -50.95 29.2 -52.4 26.3 -52.65 23.95 -50.7 L21.6 -49.2 17.1 -47.05 Q20.3 -44.95 22.85 -42.3 L23.35 -41.75 23.45 -41.9 M16.15 -32.15 Q13.55 -31.4 11.05 -33.0 9.85 -33.8 9.7 -35.05 9.4 -37.4 10.4 -39.45 10.55 -39.85 11.15 -40.05 13.1 -40.6 13.1 -38.45 L13.0 -36.85 Q12.75 -35.45 11.5 -35.35 M12.45 -28.15 Q8.7 -28.95 6.85 -32.45 4.9 -35.95 6.55 -39.45 L7.3 -40.6 Q10.0 -43.4 13.8 -42.3 L18.05 -40.9 Q19.35 -40.4 20.0 -39.05 21.65 -35.35 18.15 -33.1 17.15 -32.45 16.15 -32.15 M-0.5 -35.35 Q-3.0 -37.6 -3.3 -41.1 -3.5 -43.75 -1.2 -45.1 1.05 -46.55 3.3 -44.75 4.15 -44.0 4.4 -42.95 4.9 -40.7 3.25 -39.45 L2.2 -38.85 1.55 -38.65 Q0.3 -38.4 -0.3 -39.5 -1.7 -42.05 1.2 -42.55 2.1 -42.75 1.9 -42.1 M-0.5 -35.35 L0.35 -34.65" fill="none" stroke="#000000" stroke-linecap="round" stroke-linejoin="round" stroke-width="0.05"/>
  </g>
</svg>
