<?xml version="1.0" encoding="UTF-8" standalone="no"?>
<svg xmlns:xlink="http://www.w3.org/1999/xlink" height="54.5px" width="61.1px" xmlns="http://www.w3.org/2000/svg">
  <g transform="matrix(1.0, 0.0, 0.0, 1.0, 36.9, 23.75)">
    <path d="M1.2 18.6 Q17.95 23.1 22.2 7.2 25.2 8.15 22.25 14.5 20.8 17.55 17.5 19.85 14.65 21.8 12.05 22.15 9.0 22.55 7.2 22.05 4.8 21.35 1.2 18.6" fill="#e2d5c0" fill-rule="evenodd" stroke="none"/>
    <path d="M1.2 18.6 Q17.95 23.1 22.2 7.2 25.2 8.15 22.25 14.5 20.8 17.55 17.5 19.85 14.65 21.8 12.05 22.15 9.0 22.55 7.2 22.05 4.8 21.35 1.2 18.6 Z" fill="none" stroke="#8f7c3f" stroke-linecap="round" stroke-linejoin="round" stroke-width="1.0"/>
    <path d="M-4.35 8.55 L-3.15 9.5 Q-0.8 11.95 1.15 14.85 L4.85 20.45 Q6.25 22.55 6.25 24.95 6.25 28.2 1.7 28.45 L-5.4 29.2 -12.45 30.2 Q-17.45 30.75 -17.1 26.9 -16.8 23.55 -15.6 20.35 -14.45 17.3 -12.55 14.5 L-9.0 9.5 -8.65 9.0 -8.1 8.55 -4.35 8.55" fill="#e2d5c0" fill-rule="evenodd" stroke="none"/>
    <path d="M-4.35 8.55 L-3.15 9.5 Q-0.8 11.95 1.15 14.85 L4.85 20.45 Q6.25 22.55 6.25 24.95 6.25 28.2 1.7 28.45 L-5.4 29.2 -12.45 30.2 Q-17.45 30.75 -17.1 26.9 -16.8 23.55 -15.6 20.35 -14.45 17.3 -12.55 14.5 L-9.0 9.5 -8.65 9.0 -8.1 8.55" fill="none" stroke="#8f7c3f" stroke-linecap="round" stroke-linejoin="round" stroke-width="1.0"/>
    <path d="M-5.85 14.2 Q-8.8 12.0 -5.7 12.55 -5.45 13.8 -5.85 14.2" fill="#d0bc9b" fill-rule="evenodd" stroke="none"/>
    <path d="M-1.35 23.25 Q-2.1 24.1 -5.45 24.25 -8.1 24.35 -10.3 21.75 -13.25 18.6 -11.75 18.4 L-3.9 17.7 1.0 17.5 -0.4 21.5 -1.35 23.25" fill="#8f7c3f" fill-rule="evenodd" stroke="none"/>
    <path d="M-1.35 23.25 Q-2.1 24.1 -5.45 24.25 -8.1 24.35 -10.3 21.75 -13.25 18.6 -11.75 18.4 L-3.9 17.7 1.0 17.5 -0.4 21.5 -1.35 23.25 M-5.85 14.2 Q-8.8 12.0 -5.7 12.55 -5.45 13.8 -5.85 14.2" fill="none" stroke="#8f7c3f" stroke-linecap="round" stroke-linejoin="round" stroke-width="1.0"/>
    <path d="M-3.95 -2.75 L-8.75 -2.75 Q-6.55 -4.65 -3.95 -2.75" fill="#ffffff" fill-rule="evenodd" stroke="none"/>
    <path d="M-3.95 -2.75 Q-6.55 -4.65 -8.75 -2.75" fill="none" stroke="#8f7c3f" stroke-linecap="round" stroke-linejoin="round" stroke-width="1.0"/>
    <path d="M-18.8 13.05 L-17.9 12.95 Q-14.05 12.2 -10.15 10.85 -14.35 21.2 -21.35 13.45 L-18.8 13.05" fill="#ffffff" fill-rule="evenodd" stroke="none"/>
    <path d="M-18.8 13.05 L-21.35 13.45 Q-14.35 21.2 -10.15 10.85 -14.05 12.2 -17.9 12.95 L-18.8 13.05 Z" fill="none" stroke="#8f7c3f" stroke-linecap="round" stroke-linejoin="round" stroke-width="1.0"/>
    <path d="M7.25 12.6 L6.35 12.5 Q2.5 11.75 -1.4 10.4 2.8 20.75 9.8 13.0 L7.25 12.6" fill="#ffffff" fill-rule="evenodd" stroke="none"/>
    <path d="M7.25 12.6 L9.8 13.0 Q2.8 20.75 -1.4 10.4 2.5 11.75 6.35 12.5 L7.25 12.6 Z" fill="none" stroke="#8f7c3f" stroke-linecap="round" stroke-linejoin="round" stroke-width="1.0"/>
    <path d="M-12.3 -22.85 Q1.7 -25.15 9.7 -14.9 18.5 -3.55 7.45 4.8 1.15 9.55 -11.65 8.65 -25.85 7.25 -26.8 -6.7 L-26.85 -7.6 Q-27.3 -19.35 -14.7 -22.4 L-12.3 -22.85" fill="#ffffff" fill-rule="evenodd" stroke="none"/>
    <path d="M-12.3 -22.85 Q1.7 -25.15 9.7 -14.9 18.5 -3.55 7.45 4.8 1.15 9.55 -11.65 8.65 -25.85 7.25 -26.8 -6.7 L-26.85 -7.6 Q-27.3 -19.35 -14.7 -22.4 L-12.3 -22.85 Z" fill="none" stroke="#8f7c3f" stroke-linecap="round" stroke-linejoin="round" stroke-width="1.0"/>
    <path d="M-22.35 -5.2 Q-21.6 -6.6 -20.25 -6.75 M0.35 -3.85 Q-1.0 -2.05 -2.3 -1.65 L-4.85 -1.85 Q-6.1 -2.4 -6.7 -4.75 -7.3 -4.8 -7.6 -5.0 -8.05 -2.4 -8.6 -1.95 L-9.6 -1.35 -10.3 -1.2 -10.65 -1.3 Q-12.35 -1.85 -13.2 -4.25 M-19.7 -4.75 L-19.15 -5.55 Q-18.45 -5.75 -18.1 -5.9 M-7.6 -5.0 Q-8.55 -5.65 -7.2 -7.85 -5.45 -5.75 -6.7 -4.75 L-7.2 -7.85 -7.6 -5.0 M-5.65 -10.5 L-1.9 -10.25 2.0 -10.25" fill="none" stroke="#8f7c3f" stroke-linecap="round" stroke-linejoin="round" stroke-width="1.0"/>
    <path d="M3.75 -5.85 L5.35 -6.8 M6.05 -5.35 Q6.25 -5.95 7.0 -6.25 M-10.15 -10.25 L-13.9 -10.2 -15.9 -10.15" fill="none" stroke="#8f7c3f" stroke-linecap="round" stroke-linejoin="round" stroke-width="1.0"/>
    <path d="M-34.95 -2.05 Q-38.95 -5.05 -31.75 -11.65 L-23.45 -18.5 Q-26.5 4.4 -34.95 -2.05" fill="#e2d5c0" fill-rule="evenodd" stroke="none"/>
    <path d="M-34.95 -2.05 Q-38.95 -5.05 -31.75 -11.65 L-23.45 -18.5 Q-26.5 4.4 -34.95 -2.05 Z" fill="none" stroke="#8f7c3f" stroke-linecap="round" stroke-linejoin="round" stroke-width="1.0"/>
    <path d="M20.1 -5.25 Q23.55 -8.85 15.4 -14.1 L5.95 -19.4 Q12.9 2.55 20.1 -5.25" fill="#e2d5c0" fill-rule="evenodd" stroke="none"/>
    <path d="M20.1 -5.25 Q23.55 -8.85 15.4 -14.1 L5.95 -19.4 Q12.9 2.55 20.1 -5.25 Z" fill="none" stroke="#8f7c3f" stroke-linecap="round" stroke-linejoin="round" stroke-width="1.0"/>
  </g>
</svg>
