<?xml version="1.0" encoding="UTF-8" standalone="no"?>
<!DOCTYPE svg PUBLIC "-//W3C//DTD SVG 1.1//EN" "http://www.w3.org/Graphics/SVG/1.1/DTD/svg11.dtd">
<svg width="77px" height="81px" version="1.1" xmlns="http://www.w3.org/2000/svg" xmlns:xlink="http://www.w3.org/1999/xlink" xml:space="preserve" xmlns:serif="http://www.serif.com/" style="fill-rule:evenodd;clip-rule:evenodd;stroke-linejoin:round;stroke-miterlimit:2;">
    <g transform="matrix(0.638198,0,0,0.638198,-26.6201,5.39915)">
        <path d="M137.258,26C135.077,21.606 132.327,16.844 128.796,12L119.258,-7L110.258,12.741C103.591,11.633 96.924,11.604 90.258,12.741L81.258,-7L72.258,12C70.175,17.586 69.643,20.867 69.327,26C64.474,33 64.201,40 69.327,47C71.764,50.329 73.84,51.605 74.907,53.391C76.965,56.836 77.119,58.655 76.138,60.946C72.785,68.776 71.875,75 77,82C82.866,89.143 97.081,92.364 110.258,92.424C123.128,92.484 134.143,87.884 138.258,82C143.229,74.89 142.237,67.857 138.258,60.327C136.098,56.239 134.119,52.652 138.258,47C143.383,40 142.11,33 137.258,26" style="fill:white;"/>
    </g>
    <g transform="matrix(0.638198,0,0,0.638198,-31.651,-58.5132)">
        <path d="M116.941,196.977C121.402,203.412 121.675,209.847 116.963,216.283C116.487,216.933 116.628,217.847 117.279,218.323C117.929,218.799 118.843,218.658 119.319,218.007C124.857,210.443 124.584,202.878 119.341,195.313C118.882,194.651 117.972,194.486 117.309,194.945C116.647,195.404 116.482,196.314 116.941,196.977ZM105.941,196.977C110.402,203.412 110.675,209.847 105.963,216.283C105.487,216.933 105.628,217.847 106.279,218.323C106.929,218.799 107.843,218.658 108.319,218.007C113.857,210.443 113.584,202.878 108.341,195.313C107.882,194.651 106.972,194.486 106.309,194.945C105.647,195.404 105.482,196.314 105.941,196.977ZM83.683,160.313C78.44,167.878 78.167,175.443 83.705,183.007C84.181,183.658 85.095,183.799 85.746,183.323C86.396,182.847 86.537,181.933 86.061,181.283C81.35,174.847 81.622,168.412 86.083,161.977C86.542,161.314 86.377,160.404 85.715,159.945C85.053,159.486 84.142,159.651 83.683,160.313ZM144.941,161.977C149.402,168.412 149.675,174.847 144.963,181.283C144.487,181.933 144.628,182.847 145.279,183.323C145.929,183.799 146.843,183.658 147.319,183.007C152.857,175.443 152.584,167.878 147.341,160.313C146.882,159.651 145.972,159.486 145.309,159.945C144.647,160.404 144.482,161.314 144.941,161.977ZM126.14,171.864L122.262,167.21C121.746,166.591 120.824,166.508 120.205,167.023C119.586,167.539 119.503,168.461 120.018,169.08L124.24,174.145L120.018,179.21C119.503,179.829 119.586,180.751 120.205,181.267C120.824,181.782 121.746,181.699 122.262,181.08L126.14,176.426L130.018,181.08C130.534,181.699 131.456,181.782 132.075,181.267C132.694,180.751 132.777,179.829 132.262,179.21L128.04,174.145L132.262,169.08C132.777,168.461 132.694,167.539 132.075,167.023C131.456,166.508 130.534,166.591 130.018,167.21L126.14,171.864ZM51.021,172.923L51.071,172.985C51.118,173.044 51.168,173.087 51.217,173.118C51.472,173.304 51.763,173.382 52.091,173.348C52.431,173.313 52.718,173.168 52.952,172.911C52.954,172.909 52.955,172.907 52.957,172.906C53.914,171.826 55.012,171.273 56.263,171.273C57.271,171.273 58.263,171.748 59.258,172.658C59.259,172.658 59.259,172.659 59.26,172.659C60.723,173.987 62.331,174.643 64.077,174.644C66.264,174.658 68.061,173.82 69.469,172.127C69.475,172.12 69.481,172.113 69.486,172.105C69.695,171.827 69.785,171.509 69.75,171.15C69.715,170.792 69.562,170.496 69.289,170.262L69.163,170.161C68.897,169.944 68.584,169.849 68.222,169.885L68.221,169.885C67.869,169.92 67.574,170.075 67.338,170.355C66.834,170.92 66.322,171.332 65.797,171.579C65.282,171.821 64.709,171.94 64.079,171.94L64.072,171.94C63.067,171.952 62.077,171.483 61.084,170.576C61.083,170.575 61.083,170.575 61.082,170.575C59.619,169.246 58.011,168.59 56.265,168.59C54.078,168.576 52.281,169.414 50.873,171.106C50.872,171.107 50.871,171.109 50.87,171.11C50.654,171.374 50.556,171.691 50.592,172.063C50.625,172.407 50.768,172.694 51.021,172.923ZM51.174,173.086L51.155,173.07C51.161,173.076 51.168,173.081 51.174,173.086ZM143.941,126.977C148.402,133.412 148.675,139.848 143.963,146.283C143.487,146.933 143.628,147.847 144.279,148.323C144.929,148.799 145.843,148.658 146.319,148.008C151.857,140.443 151.584,132.878 146.341,125.314C145.882,124.651 144.972,124.486 144.309,124.945C143.647,125.405 143.482,126.315 143.941,126.977ZM76.683,125.314C71.44,132.878 71.167,140.443 76.705,148.008C77.181,148.658 78.095,148.799 78.746,148.323C79.396,147.847 79.537,146.933 79.061,146.283C74.35,139.848 74.622,133.412 79.083,126.977C79.542,126.315 79.377,125.405 78.715,124.945C78.053,124.486 77.142,124.651 76.683,125.314ZM167.475,129.046C166.925,136.743 164.764,141.338 158.418,145.204C157.765,145.603 157.557,146.457 157.955,147.111C158.354,147.765 159.208,147.972 159.862,147.574C167.079,143.177 169.617,137.997 170.243,129.244C170.298,128.481 169.722,127.816 168.958,127.761C168.194,127.707 167.53,128.283 167.475,129.046ZM124.065,132.473C124.206,132.059 124.704,131.904 124.863,131.874C125.687,131.718 126.296,131.982 126.697,132.651C126.697,132.651 126.698,132.651 126.698,132.652C127.93,134.725 128.55,137.17 128.55,139.99C128.55,142.302 128.018,144.114 126.976,145.431C125.906,146.783 124.571,147.454 122.976,147.454C121.992,147.454 121.158,147.21 120.473,146.731C119.677,146.175 119.077,145.295 118.689,144.082C118.3,145.295 117.7,146.175 116.904,146.731C116.219,147.21 115.385,147.454 114.401,147.454C112.806,147.454 111.471,146.783 110.402,145.431C109.359,144.114 108.827,142.302 108.827,139.99C108.827,137.151 109.447,134.705 110.68,132.651C111.077,131.989 111.679,131.723 112.486,131.869C112.49,131.868 112.494,131.868 112.499,131.868C112.521,131.868 112.541,131.871 112.558,131.875L112.558,131.872C112.912,131.926 113.159,132.122 113.295,132.463C113.424,132.786 113.407,133.089 113.252,133.373C113.251,133.375 113.25,133.376 113.249,133.378C112.143,135.323 111.582,137.51 111.564,139.936C111.564,141.594 111.867,142.883 112.495,143.799C113.084,144.657 113.786,145.101 114.62,145.101C115.513,145.101 116.166,144.554 116.612,143.504C117.107,142.34 117.348,140.592 117.348,138.264L117.348,134.949C117.348,134.588 117.474,134.281 117.727,134.029L117.727,134.028C117.98,133.776 118.286,133.649 118.647,133.649L118.73,133.649C119.089,133.649 119.393,133.77 119.645,134.01C119.898,134.251 120.03,134.563 120.03,134.949L120.03,138.264C120.03,140.592 120.27,142.34 120.765,143.504C121.211,144.554 121.864,145.101 122.757,145.101C123.591,145.101 124.293,144.657 124.882,143.799C125.51,142.883 125.813,141.593 125.813,139.935C125.813,137.51 125.253,135.324 124.129,133.38C124.128,133.378 124.127,133.375 124.125,133.373C123.972,133.092 123.95,132.792 124.065,132.473ZM50.368,133.298C54.187,135.858 58.66,139.737 61.123,142.396C61.643,142.958 62.522,142.992 63.084,142.471C63.646,141.951 63.679,141.072 63.159,140.51C60.584,137.729 55.908,133.67 51.913,130.993C51.277,130.566 50.415,130.737 49.988,131.373C49.562,132.009 49.732,132.872 50.368,133.298ZM84.141,141.189L96.141,141.189C96.717,141.189 97.185,140.721 97.185,140.145C97.185,139.569 96.717,139.101 96.141,139.101L84.141,139.101C83.565,139.101 83.097,139.569 83.097,140.145C83.097,140.721 83.565,141.189 84.141,141.189ZM84.141,134.189L96.141,134.189C96.717,134.189 97.185,133.721 97.185,133.145C97.185,132.569 96.717,132.101 96.141,132.101L84.141,132.101C83.565,132.101 83.097,132.569 83.097,133.145C83.097,133.721 83.565,134.189 84.141,134.189ZM136.835,121.865C134.785,121.865 133.121,123.53 133.121,125.58C133.121,127.63 134.785,129.295 136.835,129.295C138.886,129.295 140.55,127.63 140.55,125.58C140.55,123.53 138.886,121.865 136.835,121.865ZM100.705,121.865C98.655,121.865 96.991,123.53 96.991,125.58C96.991,127.63 98.655,129.295 100.705,129.295C102.756,129.295 104.42,127.63 104.42,125.58C104.42,123.53 102.756,121.865 100.705,121.865ZM136.835,124.164C137.617,124.164 138.252,124.798 138.252,125.58C138.252,126.361 137.617,126.996 136.835,126.996C136.054,126.996 135.419,126.361 135.419,125.58C135.419,124.798 136.054,124.164 136.835,124.164ZM100.705,124.164C101.487,124.164 102.122,124.798 102.122,125.58C102.122,126.361 101.487,126.996 100.705,126.996C99.924,126.996 99.289,126.361 99.289,125.58C99.289,124.798 99.924,124.164 100.705,124.164ZM119.459,112.77L127.14,96.556L134.821,112.77C135.165,113.498 136.037,113.809 136.765,113.464C137.493,113.12 137.804,112.248 137.459,111.52L128.459,92.52C128.218,92.01 127.704,91.685 127.14,91.685C126.576,91.685 126.062,92.01 125.821,92.52L116.821,111.52C116.476,112.248 116.787,113.12 117.515,113.464C118.243,113.809 119.115,113.498 119.459,112.77ZM81.459,112.77L89.14,96.556L96.821,112.77C97.165,113.498 98.037,113.809 98.765,113.464C99.493,113.12 99.804,112.248 99.459,111.52L90.459,92.52C90.218,92.01 89.704,91.685 89.14,91.685C88.576,91.685 88.062,92.01 87.821,92.52L78.821,111.52C78.476,112.248 78.787,113.12 79.515,113.464C80.243,113.809 81.115,113.498 81.459,112.77Z"/>
    </g>
</svg>
