<?xml version="1.0" encoding="UTF-8" standalone="no"?>
<!DOCTYPE svg PUBLIC "-//W3C//DTD SVG 1.1//EN" "http://www.w3.org/Graphics/SVG/1.1/DTD/svg11.dtd">
<svg width="59px" height="25px" version="1.1" xmlns="http://www.w3.org/2000/svg" xmlns:xlink="http://www.w3.org/1999/xlink" xml:space="preserve" xmlns:serif="http://www.serif.com/" style="fill-rule:evenodd;clip-rule:evenodd;stroke-linejoin:round;stroke-miterlimit:2;">
    <g transform="matrix(0.522899,0,0,0.541817,-28.0189,-81.6719)">
        <path d="M79.454,196.878C75.775,196.878 72.241,195.496 69.6,193.024C64.993,188.748 62.312,183.715 62.312,178.322C62.312,163.097 83.68,150.737 110,150.737C136.32,150.737 157.688,163.097 157.688,178.322C157.688,183.715 155.007,188.748 150.375,193C147.741,195.466 144.216,196.845 140.546,196.845C127.707,196.878 92.293,196.878 79.454,196.878Z" style="fill:white;"/>
    </g>
    <g transform="matrix(0.522899,0,0,0.522899,-28.0189,-91.2373)">
        <path d="M150.104,190.521C156.051,199.099 156.407,207.678 150.126,216.256C149.649,216.907 149.791,217.823 150.442,218.3C151.093,218.777 152.009,218.635 152.486,217.984C159.595,208.274 159.239,198.564 152.508,188.855C152.048,188.191 151.136,188.026 150.473,188.486C149.809,188.946 149.644,189.858 150.104,190.521ZM67.492,188.855C60.761,198.564 60.405,208.274 67.514,217.984C67.991,218.635 68.907,218.777 69.558,218.3C70.209,217.823 70.351,216.907 69.874,216.256C63.593,207.678 63.949,199.099 69.896,190.521C70.356,189.858 70.191,188.946 69.527,188.486C68.864,188.026 67.952,188.191 67.492,188.855ZM127.003,197.866L129.623,192.627C129.984,191.905 130.97,191.719 131.692,192.08C132.393,192.43 132.69,193.27 132.375,193.979L132.393,193.935L121.678,215.366C121.43,215.861 120.924,216.174 120.37,216.174L120.215,216.174C119.661,216.174 119.155,215.861 118.907,215.366L108.192,193.935C107.878,193.225 108.174,192.386 108.875,192.035C109.597,191.674 110.602,191.905 110.963,192.627L113.582,197.866L127.003,197.866ZM115.045,200.791L120.293,211.287L125.541,200.791L115.045,200.791ZM95.219,199.109C96.829,199.109 98.136,200.416 98.136,202.025C98.136,203.635 96.829,204.942 95.219,204.942C93.609,204.942 92.302,203.635 92.302,202.025C92.302,200.416 93.609,199.109 95.219,199.109ZM144.61,199.109C146.22,199.109 147.527,200.416 147.527,202.025C147.527,203.635 146.22,204.942 144.61,204.942C143.001,204.942 141.694,203.635 141.694,202.025C141.694,200.416 143.001,199.109 144.61,199.109Z"/>
    </g>
</svg>
