<?xml version="1.0" encoding="UTF-8" standalone="no"?>
<!DOCTYPE svg PUBLIC "-//W3C//DTD SVG 1.1//EN" "http://www.w3.org/Graphics/SVG/1.1/DTD/svg11.dtd">
<svg width="43px" height="66px" version="1.1" xmlns="http://www.w3.org/2000/svg" xmlns:xlink="http://www.w3.org/1999/xlink" xml:space="preserve" xmlns:serif="http://www.serif.com/" style="fill-rule:evenodd;clip-rule:evenodd;stroke-linejoin:round;stroke-miterlimit:2;">
    <g transform="matrix(0.629852,0,0,0.629852,-47.7837,-72.0843)">
        <path d="M134.742,175.406C134.742,175.406 135.004,191.213 135.218,195.903C135.331,198.4 135.909,201.048 136.026,203.545C136.158,206.363 135.533,213.066 135.533,213.066C134.71,219.458 125.904,218.605 125.786,213.167C125.305,210.486 124.791,207.678 122.969,205.22C117.087,200.914 110.609,202.29 105.324,205.22C102.077,207.02 98.45,209.689 96.519,212.039C90.641,219.193 84.47,219.862 85.04,211.984C84.495,206.644 83.941,201.648 85.787,196.157L85.787,175.5L80.853,168.852C76.547,162.97 76.776,157.089 80.853,151.207C83.674,149.09 84.291,146.4 82.425,143.046C78.119,137.164 78.348,131.283 82.425,125.401C93.811,108.977 124.388,112.733 133.17,125.401C137.247,131.283 137.476,137.164 133.17,143.046C133.17,143.046 133.175,143.473 133.179,143.862C133.184,144.255 133.383,144.62 133.711,144.836C138.328,148.012 142.015,154.677 142.015,160.883C142.015,166.94 139.125,172.28 134.742,175.406Z" style="fill:white;"/>
    </g>
    <g transform="matrix(0.629852,0,0,0.629852,-47.7837,-72.0843)">
        <path d="M84.993,200.873C84.625,200.851 84.302,200.981 84.031,201.285C83.804,201.541 83.679,201.842 83.658,202.19L83.658,202.205C83.537,205.625 83.477,208.517 83.477,210.882C83.477,213.98 83.915,216.11 84.708,217.288C85.557,218.55 87.061,219.233 89.263,219.233C90.965,219.233 92.499,218.613 93.858,217.358C95.154,216.162 96.234,214.409 97.077,212.087C97.079,212.083 97.08,212.079 97.081,212.076C97.186,211.769 97.186,211.45 97.071,211.12C96.94,210.745 96.7,210.498 96.367,210.363L96.408,210.381L96.29,210.334C95.96,210.206 95.629,210.219 95.299,210.378C94.988,210.528 94.76,210.773 94.626,211.124C94.626,211.125 94.625,211.126 94.625,211.127C93.957,212.909 93.15,214.268 92.182,215.19C91.288,216.043 90.319,216.483 89.263,216.483C88.66,216.483 88.174,216.422 87.805,216.281C87.483,216.159 87.203,215.921 86.953,215.584C86.672,215.204 86.485,214.657 86.367,213.953C86.234,213.158 86.169,212.134 86.169,210.882C86.169,208.504 86.229,205.642 86.348,202.297C86.368,201.943 86.258,201.625 86.011,201.346C85.767,201.072 85.485,200.931 85.178,200.899L85,200.874L84.993,200.873ZM134.202,203.983L134.202,212.488C134.202,213.814 133.929,214.8 133.306,215.421C132.789,215.936 132.069,216.171 131.157,216.171C130.194,216.171 129.424,215.91 128.864,215.35C128.864,215.349 128.864,215.349 128.863,215.349C128.362,214.849 128.089,213.96 127.963,212.711C127.922,212.285 127.758,211.975 127.522,211.76C127.285,211.546 126.961,211.414 126.532,211.414C126.508,211.414 126.485,211.415 126.461,211.418C126.045,211.465 125.741,211.645 125.533,211.921C125.354,212.158 125.241,212.486 125.241,212.92C125.241,212.944 125.242,212.969 125.244,212.993C125.459,214.859 126.001,216.178 126.802,216.977C127.88,218.054 129.303,218.606 131.084,218.606C132.869,218.606 134.268,218.075 135.295,217.049C136.369,215.979 136.928,214.487 136.928,212.56L136.928,203.983C136.928,203.522 136.791,203.186 136.581,202.956C136.353,202.706 136.022,202.549 135.565,202.549C135.108,202.549 134.777,202.706 134.549,202.956C134.339,203.186 134.202,203.522 134.202,203.983ZM105.919,206.078C111.397,202.281 116.874,202.052 122.352,206.063C122.817,206.403 123.471,206.302 123.812,205.837C124.152,205.372 124.051,204.718 123.586,204.377C117.3,199.775 111.015,200.004 104.729,204.361C104.255,204.69 104.137,205.341 104.466,205.815C104.794,206.289 105.445,206.407 105.919,206.078ZM133.631,175.5L133.631,196.157C133.631,196.771 134.129,197.269 134.742,197.269C135.355,197.269 135.853,196.771 135.853,196.157L135.853,175.5C135.853,174.887 135.355,174.389 134.742,174.389C134.129,174.389 133.631,174.887 133.631,175.5ZM84.675,175.5L84.675,196.157C84.675,196.771 85.173,197.269 85.787,197.269C86.4,197.269 86.898,196.771 86.898,196.157L86.898,175.5C86.898,174.887 86.4,174.389 85.787,174.389C85.173,174.389 84.675,174.887 84.675,175.5ZM133.631,149.048L133.631,169.706C133.631,170.319 134.129,170.817 134.742,170.817C135.355,170.817 135.853,170.319 135.853,169.706L135.853,149.048C135.853,148.435 135.355,147.937 134.742,147.937C134.129,147.937 133.631,148.435 133.631,149.048ZM138.288,152.656C142.085,158.134 142.315,163.611 138.304,169.089C137.963,169.554 138.065,170.208 138.53,170.549C138.995,170.889 139.649,170.788 139.99,170.323C144.592,164.037 144.363,157.752 140.005,151.466C139.677,150.992 139.026,150.874 138.552,151.203C138.078,151.531 137.96,152.183 138.288,152.656ZM79.995,150.612C75.637,156.898 75.408,163.183 80.01,169.469C80.351,169.934 81.005,170.035 81.47,169.695C81.935,169.354 82.037,168.7 81.696,168.235C77.685,162.757 77.915,157.28 81.712,151.803C82.04,151.329 81.922,150.677 81.448,150.349C80.974,150.02 80.323,150.138 79.995,150.612ZM81.567,124.806C77.21,131.092 76.98,137.377 81.582,143.663C81.923,144.128 82.577,144.229 83.042,143.889C83.508,143.548 83.609,142.894 83.268,142.429C79.258,136.951 79.487,131.474 83.284,125.997C83.612,125.523 83.494,124.871 83.02,124.543C82.547,124.214 81.895,124.332 81.567,124.806ZM132.311,125.997C136.108,131.474 136.337,136.951 132.327,142.429C131.986,142.894 132.087,143.548 132.553,143.889C133.018,144.229 133.672,144.128 134.013,143.663C138.615,137.377 138.386,131.092 134.028,124.806C133.7,124.332 133.048,124.214 132.575,124.543C132.101,124.871 131.983,125.523 132.311,125.997ZM107.681,128.183L113.901,141.291C114.085,141.679 114.476,141.926 114.905,141.926C115.334,141.926 115.725,141.679 115.909,141.291L122.129,128.183C122.392,127.629 122.156,126.966 121.602,126.703C121.048,126.44 120.385,126.677 120.122,127.231L118.668,130.295L111.143,130.295L109.688,127.231C109.425,126.676 108.763,126.44 108.208,126.703C107.654,126.966 107.418,127.629 107.681,128.183ZM117.613,132.517L112.197,132.517L114.905,138.223L117.613,132.517ZM101.126,123.687C99.697,123.687 98.537,124.847 98.537,126.276C98.537,127.704 99.697,128.864 101.126,128.864C102.554,128.864 103.714,127.704 103.714,126.276C103.714,124.847 102.554,123.687 101.126,123.687ZM128.33,123.687C126.901,123.687 125.742,124.847 125.742,126.276C125.742,127.704 126.901,128.864 128.33,128.864C129.759,128.864 130.918,127.704 130.918,126.276C130.918,124.847 129.759,123.687 128.33,123.687ZM101.126,125.354C101.634,125.354 102.047,125.767 102.047,126.276C102.047,126.784 101.634,127.197 101.126,127.197C100.617,127.197 100.204,126.784 100.204,126.276C100.204,125.767 100.617,125.354 101.126,125.354ZM128.33,125.354C128.839,125.354 129.252,125.767 129.252,126.276C129.252,126.784 128.839,127.197 128.33,127.197C127.821,127.197 127.408,126.784 127.408,126.276C127.408,125.767 127.821,125.354 128.33,125.354ZM99.371,119.285L105.19,119.285C105.65,119.285 106.024,118.912 106.024,118.452C106.024,117.992 105.65,117.618 105.19,117.618L99.371,117.618C98.911,117.618 98.537,117.992 98.537,118.452C98.537,118.912 98.911,119.285 99.371,119.285Z"/>
    </g>
</svg>
