<?xml version="1.0" encoding="UTF-8" standalone="no"?>
<!DOCTYPE svg PUBLIC "-//W3C//DTD SVG 1.1//EN" "http://www.w3.org/Graphics/SVG/1.1/DTD/svg11.dtd">
<svg width="22px" height="52px" version="1.1" xmlns="http://www.w3.org/2000/svg" xmlns:xlink="http://www.w3.org/1999/xlink" xml:space="preserve" xmlns:serif="http://www.serif.com/" style="fill-rule:evenodd;clip-rule:evenodd;stroke-linejoin:round;stroke-miterlimit:2;">
    <g transform="matrix(0.601724,0,0,0.601724,-55.4162,-80.3141)">
        <path d="M103.653,178.768C107.411,184.189 107.623,189.61 103.653,195.032L97.436,200.872C93.678,206.293 93.466,211.714 97.436,217.136C98.588,218.449 99.741,218.946 100.894,218.847L119.165,218.847C121.194,218.99 122.853,218.549 124.122,217.498C128.092,212.076 127.88,206.655 124.122,201.234L119.153,194.42C115.183,188.999 115.395,183.578 119.153,178.156C119.153,178.156 119.903,175.45 120.385,173.71C120.479,173.371 120.409,173.007 120.196,172.726C119.983,172.445 119.65,172.281 119.298,172.281L103.355,172.281C103.003,172.281 102.671,172.445 102.458,172.725C102.244,173.004 102.174,173.368 102.267,173.707C102.79,175.617 103.653,178.768 103.653,178.768ZM98.782,133.504C102.242,133.109 105.479,136.537 106.005,141.152C106.204,142.9 106.204,144.609 105.452,145.989C104.353,148.003 101.28,148.003 100.045,145.023C100.045,145.023 99.125,148.757 95.708,147.605C93.776,146.953 93.705,144.691 93.464,142.581C92.938,137.965 95.321,133.898 98.782,133.504Z" style="fill:white;"/>
    </g>
    <g transform="matrix(0.601724,0,0,0.601724,-55.4162,-80.3141)">
        <path d="M100.894,219.892L119.165,219.892C119.741,219.892 120.209,219.424 120.209,218.847C120.209,218.27 119.741,217.802 119.165,217.802L100.894,217.802C100.318,217.802 99.849,218.27 99.849,218.847C99.849,219.424 100.318,219.892 100.894,219.892ZM123.264,201.829C126.742,206.846 126.953,211.863 123.279,216.88C122.939,217.346 123.04,218 123.505,218.34C123.97,218.681 124.625,218.58 124.965,218.115C129.23,212.289 129.019,206.464 124.981,200.639C124.652,200.165 124.001,200.047 123.527,200.375C123.053,200.704 122.935,201.355 123.264,201.829ZM96.577,200.277C92.539,206.102 92.328,211.927 96.593,217.753C96.933,218.218 97.588,218.319 98.053,217.979C98.518,217.638 98.619,216.984 98.279,216.519C94.605,211.501 94.816,206.484 98.294,201.467C98.623,200.993 98.505,200.342 98.031,200.013C97.557,199.685 96.906,199.803 96.577,200.277ZM102.795,179.363C106.273,184.38 106.484,189.397 102.81,194.414C102.47,194.88 102.571,195.534 103.036,195.874C103.501,196.215 104.156,196.114 104.496,195.649C108.761,189.823 108.55,183.998 104.512,178.173C104.183,177.699 103.532,177.581 103.058,177.909C102.584,178.238 102.466,178.889 102.795,179.363ZM118.294,177.561C114.256,183.387 114.045,189.212 118.31,195.037C118.651,195.502 119.305,195.604 119.77,195.263C120.235,194.922 120.336,194.268 119.996,193.803C116.322,188.786 116.533,183.769 120.011,178.751C120.34,178.278 120.222,177.626 119.748,177.298C119.274,176.969 118.623,177.087 118.294,177.561ZM115.477,173.392L120.781,173.392C121.395,173.392 121.892,172.894 121.892,172.281C121.892,171.668 121.395,171.17 120.781,171.17L115.477,171.17C114.863,171.17 114.365,171.668 114.365,172.281C114.365,172.894 114.863,173.392 115.477,173.392ZM112.063,161.821L112.066,161.818C112.456,162.313 112.37,163.031 111.874,163.422C111.389,163.804 110.69,163.731 110.295,163.264L110.293,163.265L110.003,162.892C109.706,162.51 109.45,162.216 109.231,162.01C109.394,162.45 109.675,163.122 110.071,164.029C110.437,164.864 110.624,165.856 110.624,167.004C110.624,168.071 110.28,168.937 109.606,169.61C109.043,170.174 108.443,170.529 107.811,170.686C107.811,170.686 108.006,171.399 108.187,172.065C108.261,172.334 108.205,172.622 108.035,172.844C107.866,173.065 107.603,173.195 107.324,173.195L107.323,173.195C106.616,173.195 106,172.714 105.828,172.029C105.678,171.426 105.525,170.814 105.525,170.814C104.186,170.651 103.052,170.102 102.121,169.17C100.088,167.138 99.049,165.015 99.049,161.051C99.049,161.051 99.05,161.01 99.05,160.943C99.056,160.298 99.58,159.778 100.225,159.778L100.228,159.778C100.535,159.778 100.829,159.901 101.046,160.118C101.263,160.336 101.384,160.631 101.383,160.938L101.383,161.045C101.429,164.46 102.195,166.082 103.739,167.626C104.14,168.028 104.569,168.317 105.028,168.492C105.027,168.491 102.775,159.867 101.936,156.65C101.852,156.371 101.906,156.069 102.08,155.836C102.254,155.603 102.528,155.465 102.819,155.465C102.819,155.459 102.82,155.459 102.82,155.459C103.51,155.459 104.111,155.928 104.278,156.597C105.075,159.787 107.275,168.585 107.275,168.585C107.539,168.499 107.777,168.35 107.988,168.139C108.255,167.872 108.364,167.465 108.364,166.931C108.364,166.06 108.155,165.145 107.742,164.182C107.015,162.469 106.677,161.448 106.677,161.137C106.677,160.665 106.845,160.261 107.182,159.924C107.507,159.599 107.956,159.42 108.541,159.42C108.901,159.42 109.309,159.535 109.756,159.785C110.334,160.108 111,160.67 111.746,161.478L112.063,161.821ZM103.243,136.491C103.095,136.537 103.065,136.532 103.217,136.491C102.944,136.565 102.763,136.746 102.686,137.046C102.616,137.314 102.654,137.556 102.792,137.772C102.793,137.773 102.794,137.775 102.794,137.776C103.697,139.145 104.244,140.73 104.437,142.531C104.56,143.755 104.452,144.727 104.092,145.446C103.77,146.092 103.351,146.46 102.807,146.514C102.227,146.572 101.777,146.216 101.412,145.505C100.986,144.674 100.693,143.393 100.519,141.663L100.27,139.186C100.241,138.898 100.122,138.664 99.916,138.481C99.7,138.289 99.452,138.209 99.174,138.237L99.189,138.55L99.172,138.237L99.118,138.242L99.133,138.556L99.117,138.243C98.841,138.27 98.615,138.394 98.442,138.613C98.275,138.824 98.2,139.083 98.231,139.391L98.48,141.868C98.654,143.597 98.621,144.912 98.369,145.811C98.153,146.58 97.782,147.019 97.202,147.077C96.659,147.132 96.175,146.855 95.731,146.286C95.235,145.653 94.936,144.721 94.813,143.497C94.632,141.696 94.852,140.034 95.476,138.513C95.477,138.511 95.478,138.509 95.479,138.506C95.569,138.27 95.563,138.029 95.452,137.782C95.326,137.5 95.11,137.352 94.804,137.336L94.782,137.341L94.747,137.338C94.137,137.285 93.712,137.542 93.471,138.104C93.471,138.104 93.471,138.105 93.47,138.105C92.773,139.748 92.527,141.628 92.74,143.747C92.915,145.491 93.426,146.819 94.25,147.74C95.113,148.703 96.113,149.119 97.243,149.006C98.662,148.863 99.585,148.013 99.967,146.422C100.659,147.905 101.732,148.555 103.151,148.412C104.281,148.299 105.178,147.692 105.832,146.577C106.457,145.51 106.693,144.107 106.518,142.363C106.304,140.23 105.688,138.436 104.68,136.978C104.332,136.475 103.864,136.308 103.276,136.481L103.268,136.482L103.268,136.483L103.243,136.491Z"/>
    </g>
</svg>
