<?xml version="1.0" encoding="UTF-8" standalone="no"?>
<svg xmlns:xlink="http://www.w3.org/1999/xlink" height="32.6px" width="27.8px" xmlns="http://www.w3.org/2000/svg">
  <g transform="matrix(1.0, 0.0, 0.0, 1.0, 15.6, 14.3)">
    <path d="M8.95 -12.2 Q13.7 -6.1 4.05 -4.95 0.6 -7.45 1.35 -9.8 1.95 -11.65 5.1 -13.4 7.15 -14.55 8.95 -12.2 M8.4 -8.6 Q5.3 -8.15 3.05 -9.25 5.3 -8.15 8.4 -8.6 M-14.3 1.8 Q-12.25 -2.4 -7.8 -3.85 -6.2 -4.4 -4.2 -4.55 L2.1 -4.1 3.45 -3.75 3.65 -3.65 5.9 -2.8 Q8.7 -1.55 10.35 1.0 L10.8 1.8 10.35 2.05 10.85 2.45 11.7 3.15 Q10.55 5.55 8.1 6.9 3.45 9.35 -1.8 9.3 L-4.95 9.0 Q-11.15 8.05 -14.05 3.35 L-13.3 2.75 -14.15 2.9 -14.3 1.8 M-11.2 -3.65 Q-14.8 -3.55 -15.05 -7.05 L-14.9 -9.35 Q-13.95 -15.6 -8.3 -12.75 -2.15 -9.7 -5.7 -6.05 -6.55 -5.2 -7.95 -4.3 -9.85 -3.7 -11.2 -3.65 M-7.95 -8.65 Q-10.6 -7.15 -13.8 -7.05 -10.6 -7.15 -7.95 -8.65 M-5.45 12.4 Q-4.95 11.6 -3.85 10.7 L-1.8 9.35 Q-0.55 9.55 0.7 10.2 L2.75 11.4 3.65 12.1 Q5.65 13.75 4.7 15.05 3.85 16.15 0.85 16.95 L-2.45 16.8 Q-6.9 14.9 -5.45 12.4 L-5.05 12.6 -5.45 12.4 M10.35 2.05 L-2.1 2.0 -13.3 2.75 -2.1 2.0 10.35 2.05" fill="#ffffff" fill-rule="evenodd" stroke="none"/>
    <path d="M8.95 -12.2 Q13.7 -6.1 4.05 -4.95 0.6 -7.45 1.35 -9.8 1.95 -11.65 5.1 -13.4 7.15 -14.55 8.95 -12.2 M-14.3 1.8 Q-12.25 -2.4 -7.8 -3.85 -6.2 -4.4 -4.2 -4.55 L2.1 -4.1 3.45 -3.75 3.65 -3.65 5.9 -2.8 Q8.7 -1.55 10.35 1.0 L10.8 1.8 10.85 2.45 M11.7 3.15 Q10.55 5.55 8.1 6.9 3.45 9.35 -1.8 9.3 L-4.95 9.0 Q-11.15 8.05 -14.05 3.35 L-14.1 3.3 -14.3 2.95 -14.35 2.9 -14.15 2.9 -13.3 2.75 -2.1 2.0 10.35 2.05 M-11.2 -3.65 Q-14.8 -3.55 -15.05 -7.05 L-14.9 -9.35 Q-13.95 -15.6 -8.3 -12.75 -2.15 -9.7 -5.7 -6.05 -6.55 -5.2 -7.95 -4.3 L-8.0 -4.25 Q-9.4 -3.35 -11.2 -3.65 -9.85 -3.7 -7.95 -4.3 M-5.45 12.4 Q-6.9 14.9 -2.45 16.8 L0.85 16.95 Q3.85 16.15 4.7 15.05 5.65 13.75 3.65 12.1 L2.75 11.4 0.7 10.2 Q-0.55 9.55 -1.8 9.35 L-3.85 10.7 Q-4.95 11.6 -5.45 12.4 L-5.05 12.6 M-5.45 12.4 Q-12.8 8.9 -8.9 15.85 -10.15 18.1 -11.85 17.5 M3.65 12.1 Q10.1 7.65 9.7 16.6 9.9 18.5 11.5 17.45" fill="none" stroke="#8f7c3f" stroke-linecap="round" stroke-linejoin="round" stroke-width="1.0"/>
    <path d="M3.05 -9.25 Q5.3 -8.15 8.4 -8.6 M-13.8 -7.05 Q-10.6 -7.15 -7.95 -8.65" fill="none" stroke="#8f7c3f" stroke-linecap="round" stroke-linejoin="round" stroke-width="1.0"/>
  </g>
</svg>
