<?xml version="1.0" encoding="UTF-8" standalone="no"?>
<svg xmlns:xlink="http://www.w3.org/1999/xlink" height="44.6px" width="33.8px" xmlns="http://www.w3.org/2000/svg">
  <g transform="matrix(1.0, 0.0, 0.0, 1.0, 15.6, 26.3)">
    <path d="M1.6 -11.35 L5.1 -13.4 Q7.15 -14.55 8.95 -12.2 L9.45 -11.55 Q13.2 -6.05 4.05 -4.95 0.6 -7.45 1.35 -9.8 L2.0 -11.0 1.6 -11.35 M-14.3 1.8 Q-12.25 -2.4 -7.8 -3.85 -6.2 -4.4 -4.2 -4.55 L2.1 -4.1 3.45 -3.75 3.65 -3.65 5.9 -2.8 Q8.7 -1.55 10.35 1.0 L10.8 1.8 10.35 2.05 10.85 2.45 11.7 3.15 Q10.55 5.55 8.1 6.9 3.45 9.35 -1.8 9.3 L-4.95 9.0 Q-11.15 8.05 -14.05 3.35 L-13.3 2.75 -14.15 2.9 -14.3 1.8 M8.4 -8.6 Q5.3 -8.15 3.05 -9.25 5.3 -8.15 8.4 -8.6 M0.7 10.2 L2.75 11.4 3.65 12.1 Q5.65 13.75 4.7 15.05 3.85 16.15 0.85 16.95 L-2.45 16.8 Q-6.9 14.9 -5.45 12.4 L-5.4 12.4 -3.85 10.7 -1.8 9.35 Q-0.55 9.55 0.7 10.2 M-11.2 -3.65 Q-14.8 -3.55 -15.05 -7.05 L-14.9 -9.35 Q-14.25 -13.55 -11.5 -13.6 -10.15 -13.7 -8.3 -12.75 L-6.45 -11.65 Q-2.8 -9.05 -5.7 -6.05 -6.55 -5.2 -7.95 -4.3 -9.85 -3.7 -11.2 -3.65 M-7.95 -8.65 Q-10.6 -7.15 -13.8 -7.05 -10.6 -7.15 -7.95 -8.65 M10.35 2.05 L-2.1 2.0 -13.3 2.75 -2.1 2.0 10.35 2.05" fill="#ffffff" fill-rule="evenodd" stroke="none"/>
    <path d="M1.6 -11.35 L5.1 -13.4 Q7.15 -14.55 8.95 -12.2 L9.45 -11.55 Q13.2 -6.05 4.05 -4.95 0.6 -7.45 1.35 -9.8 L2.0 -11.0 M-14.3 1.8 Q-12.25 -2.4 -7.8 -3.85 -6.2 -4.4 -4.2 -4.55 L2.1 -4.1 3.45 -3.75 3.65 -3.65 5.9 -2.8 Q8.7 -1.55 10.35 1.0 L10.8 1.8 10.85 2.45 M11.7 3.15 Q10.55 5.55 8.1 6.9 3.45 9.35 -1.8 9.3 L-4.95 9.0 Q-11.15 8.05 -14.05 3.35 L-14.1 3.3 -14.3 2.95 -14.35 2.9 -14.15 2.9 -13.3 2.75 -2.1 2.0 10.35 2.05 M0.7 10.2 Q-0.55 9.55 -1.8 9.35 L-3.85 10.7 -5.4 12.4 -5.45 12.4 Q-6.9 14.9 -2.45 16.8 L0.85 16.95 Q3.85 16.15 4.7 15.05 5.65 13.75 3.65 12.1 L2.75 11.4 0.7 10.2 M3.65 12.1 Q10.1 7.65 9.7 16.6 9.9 18.5 11.5 17.45 M-11.2 -3.65 Q-14.8 -3.55 -15.05 -7.05 L-14.9 -9.35 Q-14.25 -13.55 -11.5 -13.6 -10.15 -13.7 -8.3 -12.75 L-6.45 -11.65 Q-2.8 -9.05 -5.7 -6.05 -6.55 -5.2 -7.95 -4.3 L-8.0 -4.25 Q-9.4 -3.35 -11.2 -3.65 -9.85 -3.7 -7.95 -4.3 M-5.45 12.4 Q-12.8 8.9 -8.9 15.85 -10.15 18.1 -11.85 17.5" fill="none" stroke="#8f7c3f" stroke-linecap="round" stroke-linejoin="round" stroke-width="1.0"/>
    <path d="M3.05 -9.25 Q5.3 -8.15 8.4 -8.6 M-13.8 -7.05 Q-10.6 -7.15 -7.95 -8.65" fill="none" stroke="#8f7c3f" stroke-linecap="round" stroke-linejoin="round" stroke-width="1.0"/>
    <path d="M9.25 -12.45 Q1.3 -11.9 -3.85 -12.6 -9.0 -13.35 -10.75 -14.4 -12.5 -15.45 -11.55 -17.75 -10.6 -20.1 -6.25 -22.75 -1.9 -25.45 3.7 -25.75 9.35 -26.05 11.2 -23.2 12.3 -21.5 10.8 -20.55 18.1 -21.55 17.65 -17.0 17.25 -13.45 10.8 -12.65 L9.25 -12.45 M-9.1 -15.75 Q-4.55 -15.85 -1.2 -17.9 3.15 -20.5 9.15 -20.1 3.15 -20.5 -1.2 -17.9 -4.55 -15.85 -9.1 -15.75" fill="#66cc99" fill-rule="evenodd" stroke="none"/>
    <path d="M11.8 -12.05 Q11.9 -6.2 11.3 -0.85 L11.0 1.65 M9.25 -12.45 Q1.3 -11.9 -3.85 -12.6 -9.0 -13.35 -10.75 -14.4 -12.5 -15.45 -11.55 -17.75 -10.6 -20.1 -6.25 -22.75 -1.9 -25.45 3.7 -25.75 9.35 -26.05 11.2 -23.2 12.3 -21.5 10.8 -20.55 18.1 -21.55 17.65 -17.0 17.25 -13.45 10.8 -12.65 L9.25 -12.45" fill="none" stroke="#8f7c3f" stroke-linecap="round" stroke-linejoin="round" stroke-width="1.0"/>
    <path d="M9.15 -20.1 Q3.15 -20.5 -1.2 -17.9 -4.55 -15.85 -9.1 -15.75" fill="none" stroke="#8f7c3f" stroke-linecap="round" stroke-linejoin="round" stroke-width="1.0"/>
  </g>
</svg>
