<?xml version="1.0" encoding="UTF-8" standalone="no"?>
<!DOCTYPE svg PUBLIC "-//W3C//DTD SVG 1.1//EN" "http://www.w3.org/Graphics/SVG/1.1/DTD/svg11.dtd">
<svg width="76px" height="89px" version="1.1" xmlns="http://www.w3.org/2000/svg" xmlns:xlink="http://www.w3.org/1999/xlink" xml:space="preserve" xmlns:serif="http://www.serif.com/" style="fill-rule:evenodd;clip-rule:evenodd;stroke-linejoin:round;stroke-miterlimit:2;">
    <g transform="matrix(0.628926,0,0,0.628926,-31.3608,-48.9267)">
        <path d="M104.93,99.157C105.122,99.142 105.287,99.018 105.356,98.838C105.425,98.658 105.384,98.455 105.251,98.316C103.9,96.762 103.04,94.399 103.04,91.754C103.04,87.069 105.739,83.265 109.064,83.265C112.389,83.265 115.089,87.069 115.089,91.754C115.089,94.462 114.187,96.876 112.783,98.431C112.65,98.565 112.605,98.764 112.668,98.942C112.731,99.12 112.891,99.247 113.079,99.267C127.609,100.9 138.747,109.978 138.747,120.918C138.747,124.773 137.364,128.397 134.936,131.546C144.694,135.845 151.005,142.666 151.005,150.34C151.005,155.845 147.757,160.912 142.32,164.922L162.411,164.922C163.647,164.992 164.476,165.581 164.795,166.819L169.025,166.819L169.025,188.468L163.924,188.468C163.152,191.513 162.002,193.249 159.042,194.002L141.348,194.002C141.178,194.002 141.016,194.069 140.897,194.188C140.777,194.308 140.71,194.47 140.71,194.639L140.71,218.471L113.29,218.471C113.213,217.278 112.6,216.621 111.405,216.546L105.285,216.546C103.917,216.832 103.377,217.556 103.197,218.471L76.327,218.471C76.327,218.471 76.274,200.065 76.259,195.18C76.258,194.529 75.729,194.002 75.078,194.002L59.14,194.002C56.379,192.874 55.423,190.96 55.756,188.468L50.975,188.468L50.975,166.819L55.205,166.819C56.046,165.487 57.166,164.836 58.589,164.922L78.936,164.922C73.499,160.912 70.251,155.845 70.251,150.34C70.251,143.99 74.588,137.611 81.61,133.292C81.987,133.063 82.246,132.682 82.32,132.247C82.394,131.813 82.275,131.368 81.995,131.027C79.492,127.982 78.051,124.836 78.051,120.918C78.051,109.676 89.81,100.402 104.93,99.157Z" style="fill:white;"/>
    </g>
    <g transform="matrix(0.628926,0,0,0.628926,-31.3608,-48.9267)">
        <path d="M103.197,217.638L79.245,217.638C78.785,217.638 78.412,218.012 78.412,218.471C78.412,218.931 78.785,219.305 79.245,219.305L103.197,219.305C103.657,219.305 104.031,218.931 104.031,218.471C104.031,218.012 103.657,217.638 103.197,217.638ZM137.242,217.638L113.29,217.638C112.83,217.638 112.457,218.012 112.457,218.471C112.457,218.931 112.83,219.305 113.29,219.305L137.242,219.305C137.702,219.305 138.076,218.931 138.076,218.471C138.076,218.012 137.702,217.638 137.242,217.638ZM77.16,218.471L77.16,195.052C77.16,194.592 76.786,194.219 76.327,194.219C75.867,194.219 75.493,194.592 75.493,195.052L75.493,218.471C75.493,218.931 75.867,219.305 76.327,219.305C76.786,219.305 77.16,218.931 77.16,218.471ZM141.543,218.471L141.543,195.052C141.543,194.592 141.17,194.219 140.71,194.219C140.25,194.219 139.876,194.592 139.876,195.052L139.876,218.471C139.876,218.931 140.25,219.305 140.71,219.305C141.17,219.305 141.543,218.931 141.543,218.471ZM111.405,215.713L105.285,215.713C104.825,215.713 104.452,216.086 104.452,216.546C104.452,217.006 104.825,217.38 105.285,217.38L111.405,217.38C111.865,217.38 112.238,217.006 112.238,216.546C112.238,216.086 111.865,215.713 111.405,215.713ZM72.511,193.168L58.589,193.168C58.129,193.168 57.756,193.542 57.756,194.002C57.756,194.462 58.129,194.835 58.589,194.835L72.511,194.835C72.971,194.835 73.344,194.462 73.344,194.002C73.344,193.542 72.971,193.168 72.511,193.168ZM159.042,193.168L145.12,193.168C144.66,193.168 144.287,193.542 144.287,194.002C144.287,194.462 144.66,194.835 145.12,194.835L159.042,194.835C159.502,194.835 159.875,194.462 159.875,194.002C159.875,193.542 159.502,193.168 159.042,193.168ZM55.205,165.708L50.975,165.708C50.362,165.708 49.864,166.205 49.864,166.819L49.864,188.468C49.864,189.082 50.362,189.579 50.975,189.579L55.205,189.579C55.819,189.579 56.316,189.081 56.316,188.468C56.316,187.855 55.819,187.357 55.205,187.357L52.086,187.357L52.086,167.93L55.205,167.93C55.819,167.93 56.316,167.432 56.316,166.819C56.316,166.206 55.819,165.708 55.205,165.708ZM164.795,167.93L167.914,167.93L167.914,187.357L164.795,187.357C164.181,187.357 163.684,187.855 163.684,188.468C163.684,189.081 164.181,189.579 164.795,189.579L169.025,189.579C169.638,189.579 170.136,189.082 170.136,188.468L170.136,166.819C170.136,166.205 169.638,165.708 169.025,165.708L164.795,165.708C164.181,165.708 163.684,166.206 163.684,166.819C163.684,167.432 164.181,167.93 164.795,167.93ZM162.411,164.088L58.589,164.088C58.129,164.088 57.756,164.462 57.756,164.922C57.756,165.381 58.129,165.755 58.589,165.755L162.411,165.755C162.871,165.755 163.244,165.381 163.244,164.922C163.244,164.462 162.871,164.088 162.411,164.088ZM73.243,139.217C68.254,146.413 67.991,153.608 73.259,160.804C73.622,161.299 74.317,161.407 74.812,161.044C75.307,160.682 75.415,159.986 75.052,159.491C70.413,153.155 70.677,146.819 75.069,140.483C75.418,139.979 75.293,139.286 74.789,138.937C74.285,138.588 73.592,138.713 73.243,139.217ZM146.474,140.483C150.866,146.819 151.13,153.155 146.491,159.491C146.129,159.986 146.236,160.682 146.731,161.044C147.226,161.407 147.922,161.299 148.284,160.804C153.552,153.608 153.289,146.413 148.301,139.217C147.951,138.713 147.258,138.588 146.754,138.937C146.25,139.286 146.125,139.979 146.474,140.483ZM110.135,141.796L117.424,157.154C117.607,157.542 117.998,157.789 118.427,157.789C118.856,157.789 119.247,157.542 119.431,157.154L126.72,141.796C126.982,141.242 126.746,140.579 126.192,140.316C125.638,140.053 124.975,140.29 124.712,140.844L122.956,144.543L113.898,144.543L112.143,140.844C111.88,140.289 111.217,140.053 110.663,140.316C110.108,140.579 109.872,141.242 110.135,141.796ZM121.902,146.765L114.953,146.765L118.427,154.086L121.902,146.765ZM96.064,146.179C97.089,146.179 97.92,147.011 97.92,148.035C97.92,149.06 97.089,149.891 96.064,149.891C95.04,149.891 94.208,149.06 94.208,148.035C94.208,147.011 95.04,146.179 96.064,146.179ZM135.88,146.179C136.904,146.179 137.736,147.011 137.736,148.035C137.736,149.06 136.904,149.891 135.88,149.891C134.855,149.891 134.024,149.06 134.024,148.035C134.024,147.011 134.855,146.179 135.88,146.179ZM134.217,111.078C138.609,117.414 138.872,123.75 134.233,130.086C133.871,130.581 133.979,131.276 134.473,131.639C134.968,132.001 135.664,131.893 136.026,131.399C141.295,124.203 141.031,117.007 136.043,109.812C135.694,109.308 135.001,109.182 134.497,109.531C133.993,109.881 133.867,110.574 134.217,111.078ZM80.758,109.812C75.77,117.007 75.506,124.203 80.775,131.399C81.137,131.893 81.833,132.001 82.328,131.639C82.822,131.276 82.93,130.581 82.568,130.086C77.928,123.75 78.192,117.414 82.584,111.078C82.934,110.574 82.808,109.881 82.304,109.531C81.8,109.182 81.107,109.308 80.758,109.812ZM107.538,112.391L114.827,127.749C115.011,128.137 115.402,128.384 115.831,128.384C116.26,128.384 116.651,128.137 116.835,127.749L124.123,112.391C124.386,111.837 124.15,111.174 123.595,110.911C123.041,110.648 122.378,110.884 122.115,111.438L120.36,115.137L111.302,115.137L109.546,111.438C109.283,110.884 108.62,110.648 108.066,110.911C107.512,111.174 107.275,111.836 107.538,112.391ZM119.305,117.36L112.356,117.36L115.831,124.681L119.305,117.36ZM94.208,117.306C95.233,117.306 96.064,118.137 96.064,119.162C96.064,120.186 95.233,121.018 94.208,121.018C93.184,121.018 92.352,120.186 92.352,119.162C92.352,118.137 93.184,117.306 94.208,117.306ZM131.179,117.306C132.203,117.306 133.035,118.137 133.035,119.162C133.035,120.186 132.203,121.018 131.179,121.018C130.155,121.018 129.323,120.186 129.323,119.162C129.323,118.137 130.155,117.306 131.179,117.306ZM104.999,92.198C105.031,93.657 105.296,94.869 105.791,95.834C106.535,97.315 107.635,98.055 109.09,98.055C110.491,98.055 111.645,97.413 112.55,96.13C112.852,95.692 113.208,95.472 113.617,95.472C113.887,95.472 114.124,95.549 114.329,95.702C114.62,95.933 114.766,96.229 114.766,96.591C114.766,96.953 114.582,97.37 114.216,97.841C112.965,99.443 111.262,100.243 109.106,100.243C106.799,100.243 105.037,99.251 103.819,97.265C102.902,95.774 102.444,93.909 102.444,91.672C102.444,89.533 102.87,87.74 103.722,86.292C104.918,84.274 106.632,83.265 108.864,83.265C110.394,83.265 111.715,83.802 112.825,84.877C113.58,85.612 114.156,86.528 114.555,87.625C114.911,88.59 115.089,89.566 115.089,90.553C115.089,91.65 114.561,92.198 113.504,92.198L104.999,92.198ZM105.064,90.208L111.984,90.208C112.34,90.208 112.518,90.038 112.518,89.698C112.518,88.623 112.189,87.663 111.532,86.818C110.809,85.908 109.931,85.453 108.896,85.453C108.012,85.453 107.204,85.842 106.471,86.621C105.608,87.542 105.139,88.738 105.064,90.208ZM105.013,77.794C105.652,77.794 106.171,78.313 106.171,78.952C106.171,79.591 105.652,80.109 105.013,80.109C104.374,80.109 103.856,79.591 103.856,78.952C103.856,78.313 104.374,77.794 105.013,77.794ZM112.186,77.794C112.825,77.794 113.344,78.313 113.344,78.952C113.344,79.591 112.825,80.109 112.186,80.109C111.548,80.109 111.029,79.591 111.029,78.952C111.029,78.313 111.548,77.794 112.186,77.794Z"/>
    </g>
</svg>
