<?xml version="1.0" encoding="UTF-8" standalone="no"?>
<!DOCTYPE svg PUBLIC "-//W3C//DTD SVG 1.1//EN" "http://www.w3.org/Graphics/SVG/1.1/DTD/svg11.dtd">
<svg width="88px" height="31px" version="1.1" xmlns="http://www.w3.org/2000/svg" xmlns:xlink="http://www.w3.org/1999/xlink" xml:space="preserve" xmlns:serif="http://www.serif.com/" style="fill-rule:evenodd;clip-rule:evenodd;stroke-linejoin:round;stroke-miterlimit:2;">
    <g transform="matrix(0.608046,0,0,0.608046,-22.885,-102.77)">
        <path d="M168.05,171.789C164.717,171.29 161.22,171.278 157.55,171.789C153.003,172.77 148.263,175.147 146.402,179.38C142.946,187.238 149.061,194.558 157.55,195.972C161.667,196.657 164.777,196.342 168.05,195.972C176.757,194.985 182.602,187.209 179.208,179.345C177.367,175.08 172.7,172.61 168.05,171.789ZM133.527,173.724C132.095,171.324 129.5,169.859 126.705,169.872C114.566,169.93 73.189,170.129 73.189,170.129C66.386,170.129 62.042,178.46 62.042,185.263C62.042,192.066 66.386,194.782 73.189,194.782C73.189,194.782 120.925,194.552 128.893,194.514C130.569,194.506 132.199,193.965 133.547,192.969C138.996,188.921 136.834,179.281 133.527,173.724Z" style="fill:white;"/>
    </g>
    <g transform="matrix(0.608046,0,0,0.608046,-23.1464,-101.879)">
        <path d="M114.808,197.145L114.808,217.145C114.808,217.913 115.431,218.535 116.198,218.535C116.965,218.535 117.588,217.913 117.588,217.145L117.588,197.145C117.588,196.378 116.965,195.755 116.198,195.755C115.431,195.755 114.808,196.378 114.808,197.145ZM80.808,197.145L80.808,217.145C80.808,217.913 81.431,218.535 82.198,218.535C82.965,218.535 83.588,217.913 83.588,217.145L83.588,197.145C83.588,196.378 82.965,195.755 82.198,195.755C81.431,195.755 80.808,196.378 80.808,197.145ZM71.528,194.206L129.981,194.206C130.594,194.206 131.092,193.708 131.092,193.095C131.092,192.481 130.594,191.983 129.981,191.983L71.528,191.983C70.915,191.983 70.417,192.481 70.417,193.095C70.417,193.708 70.915,194.206 71.528,194.206ZM64.247,173.72C60.05,179.775 59.835,185.829 64.268,191.884C64.72,192.501 65.589,192.636 66.207,192.183C66.825,191.731 66.959,190.862 66.507,190.244C62.86,185.263 63.075,180.282 66.527,175.301C66.964,174.671 66.807,173.806 66.178,173.37C65.548,172.934 64.683,173.091 64.247,173.72ZM148.247,173.72C144.05,179.775 143.835,185.829 148.268,191.884C148.72,192.501 149.589,192.636 150.207,192.183C150.825,191.731 150.959,190.862 150.507,190.244C146.86,185.263 147.075,180.282 150.527,175.301C150.964,174.671 150.807,173.806 150.178,173.37C149.548,172.934 148.683,173.091 148.247,173.72ZM133.48,175.301C136.933,180.282 137.148,185.263 133.501,190.244C133.049,190.862 133.183,191.731 133.801,192.183C134.419,192.636 135.287,192.501 135.74,191.884C140.172,185.829 139.957,179.775 135.761,173.72C135.324,173.091 134.459,172.934 133.83,173.37C133.201,173.806 133.044,174.671 133.48,175.301ZM176.48,175.301C179.933,180.282 180.148,185.263 176.501,190.244C176.049,190.862 176.183,191.731 176.801,192.183C177.419,192.636 178.287,192.501 178.74,191.884C183.172,185.829 182.957,179.775 178.761,173.72C178.324,173.091 177.459,172.934 176.83,173.37C176.201,173.806 176.044,174.671 176.48,175.301ZM39.31,184.619L39.36,184.681C39.407,184.74 39.457,184.783 39.505,184.814C39.76,185 40.051,185.078 40.38,185.044C40.719,185.009 41.007,184.864 41.241,184.607C41.242,184.605 41.244,184.603 41.245,184.602C42.202,183.522 43.3,182.969 44.551,182.969C45.559,182.969 46.552,183.444 47.547,184.354L47.548,184.355C49.011,185.683 50.619,186.339 52.366,186.34C54.552,186.354 56.35,185.516 57.758,183.823C57.763,183.816 57.769,183.809 57.775,183.801C57.984,183.523 58.073,183.205 58.039,182.846C58.004,182.488 57.85,182.192 57.577,181.958L57.452,181.857C57.186,181.64 56.873,181.545 56.51,181.581C56.158,181.616 55.862,181.771 55.627,182.051C55.122,182.616 54.61,183.028 54.085,183.275C53.57,183.517 52.997,183.636 52.368,183.636L52.361,183.636C51.355,183.648 50.365,183.179 49.372,182.272C49.372,182.271 49.371,182.271 49.371,182.271C47.908,180.942 46.3,180.286 44.553,180.286C42.367,180.272 40.569,181.11 39.162,182.802C39.161,182.803 39.16,182.805 39.159,182.806C38.942,183.07 38.844,183.387 38.881,183.759C38.914,184.103 39.057,184.39 39.31,184.619ZM39.463,184.782L39.444,184.766C39.45,184.772 39.456,184.777 39.463,184.782ZM162.732,177.136L159.32,173.724C158.886,173.29 158.182,173.29 157.747,173.724L154.335,177.136C153.9,177.57 153.9,178.275 154.334,178.709C154.768,179.143 155.473,179.143 155.907,178.709L158.534,176.083L161.159,178.709C161.593,179.143 162.298,179.143 162.732,178.709C163.166,178.275 163.166,177.57 162.732,177.136ZM173.732,177.136L170.32,173.724C169.886,173.29 169.182,173.29 168.747,173.724L165.335,177.136C164.9,177.57 164.9,178.275 165.334,178.709C165.768,179.143 166.473,179.143 166.907,178.709L169.534,176.083L172.159,178.709C172.593,179.143 173.298,179.143 173.732,178.709C174.166,178.275 174.166,177.57 173.732,177.136ZM71.528,169.775L129.981,169.775C130.594,169.775 131.092,169.277 131.092,168.664C131.092,168.05 130.594,167.552 129.981,167.552L71.528,167.552C70.915,167.552 70.417,168.05 70.417,168.664C70.417,169.277 70.915,169.775 71.528,169.775Z" style="fill-rule:nonzero;"/>
    </g>
</svg>
