<?xml version="1.0" encoding="UTF-8" standalone="no"?>
<svg xmlns:ffdec="https://www.free-decompiler.com/flash" xmlns:xlink="http://www.w3.org/1999/xlink" ffdec:objectType="shape" height="50.9px" width="69.5px" xmlns="http://www.w3.org/2000/svg">
  <g transform="matrix(1.0, 0.0, 0.0, 1.0, 35.85, 50.45)">
    <path d="M7.25 -25.35 L7.95 -25.0 Q10.45 -23.8 12.25 -22.15 L13.65 -20.85 Q13.2 -21.65 13.1 -22.65 12.85 -24.75 13.25 -26.8 13.65 -29.1 15.55 -30.5 17.2 -31.85 19.25 -32.6 21.4 -33.4 23.6 -32.65 L24.25 -32.4 Q25.55 -31.7 26.15 -30.35 24.4 -29.2 22.85 -27.85 L20.9 -26.5 20.3 -25.9 Q23.1 -25.75 25.9 -26.0 L28.15 -26.55 28.65 -26.65 29.25 -22.95 Q29.4 -22.0 29.05 -21.1 28.25 -19.15 26.35 -18.25 24.1 -17.2 21.65 -17.05 L17.4 -17.2 Q17.05 -17.3 16.75 -17.5 16.35 -17.7 16.1 -17.95 L16.05 -17.95 18.0 -14.85 18.85 -12.4 21.55 -12.6 25.75 -12.4 30.0 -12.0 32.35 -11.5 33.3 -11.0 Q33.85 -10.5 33.5 -10.15 33.35 -10.0 33.15 -10.0 L28.75 -9.85 25.25 -10.05 21.75 -10.25 20.65 -10.35 21.25 -10.1 22.15 -9.7 24.65 -9.3 Q26.75 -8.95 28.6 -8.0 L29.3 -7.35 29.85 -5.85 29.35 -5.85 28.15 -6.0 24.65 -6.65 Q23.7 -6.85 23.0 -7.4 L22.65 -7.6 23.25 -7.05 24.6 -5.9 25.4 -5.05 Q26.15 -4.3 26.05 -3.25 L25.25 -3.4 24.15 -4.0 22.75 -4.75 21.65 -5.6 21.9 -5.0 Q22.25 -3.55 22.05 -2.35 L21.75 -2.15 Q21.3 -2.2 20.9 -2.5 L18.7 -4.25 Q17.75 -5.1 17.25 -5.9 L16.85 -6.05 16.65 -5.9 15.35 -4.9 Q13.2 -3.3 10.6 -2.1 L8.7 -1.4 Q6.1 -0.65 3.3 -0.25 L-2.55 -0.1 -3.9 -0.15 -7.9 -0.4 Q-10.55 -0.85 -12.85 -2.1 L-14.6 -3.1 -14.8 -2.7 Q-15.2 -1.15 -16.3 0.05 -17.1 0.85 -17.55 -0.05 -17.9 -0.7 -17.8 -1.6 L-17.75 -2.6 -19.65 -0.8 Q-20.3 -0.45 -21.25 -0.45 -21.45 -0.85 -21.25 -1.25 L-20.2 -3.6 Q-21.65 -1.7 -24.1 -1.55 -24.8 -1.5 -24.3 -2.25 L-22.55 -5.05 Q-22.9 -4.75 -23.45 -4.5 L-25.9 -3.45 Q-26.9 -2.95 -27.55 -3.1 -27.4 -4.8 -26.0 -5.9 L-25.4 -6.4 -23.5 -7.9 -20.1 -10.8 -20.55 -13.05 -20.65 -14.95 -20.2 -19.3 -19.9 -20.55 -18.75 -22.85 Q-19.15 -22.4 -20.2 -22.4 L-21.2 -22.35 -25.2 -22.1 Q-26.9 -22.05 -28.4 -22.8 L-29.2 -23.3 -32.4 -26.2 -34.4 -28.5 -35.05 -29.75 -35.7 -33.9 -35.85 -36.4 Q-35.95 -38.7 -35.3 -40.85 -34.65 -43.05 -33.65 -45.1 L-33.2 -45.95 -33.05 -46.35 -29.55 -41.25 -27.25 -38.05 -26.9 -37.65 -26.7 -37.25 Q-25.95 -40.35 -25.7 -43.5 L-25.4 -47.25 -25.0 -49.55 -24.75 -49.8 Q-23.45 -50.55 -21.85 -50.45 -19.2 -50.3 -17.2 -48.5 -15.65 -47.1 -14.6 -45.2 -13.3 -42.8 -12.65 -40.1 -12.05 -37.6 -11.9 -35.0 -11.75 -32.7 -12.45 -30.45 L-13.1 -28.65 Q-13.5 -27.65 -14.5 -27.2 L-14.5 -27.15 -13.9 -27.55 Q-11.5 -29.0 -8.45 -29.0 L-7.45 -29.0 -9.15 -30.35 Q-10.35 -31.55 -10.65 -33.3 -11.0 -35.55 -9.75 -37.4 -8.4 -39.5 -6.0 -39.6 L-3.4 -39.2 Q-2.35 -38.85 -1.85 -37.8 L-1.35 -36.7 Q-0.3 -34.7 -1.3 -32.7 L-1.9 -31.8 -3.4 -30.7 Q-4.25 -29.25 -5.35 -28.85 L-2.7 -28.5 2.75 -27.1 3.65 -26.8 Q1.9 -28.2 1.8 -30.4 L1.8 -31.8 Q1.75 -33.95 3.2 -35.5 4.75 -37.1 6.8 -37.3 8.9 -37.55 10.85 -36.7 12.9 -35.85 13.75 -33.75 14.15 -32.7 13.9 -31.5 13.35 -29.25 11.35 -27.95 L10.55 -27.5 Q9.15 -25.8 7.25 -25.35 L3.65 -26.8 7.25 -25.35 M-20.1 -10.8 L-19.45 -8.75 -19.05 -7.6 Q-18.45 -5.65 -16.45 -4.25 L-14.6 -3.1 -16.45 -4.25 Q-18.45 -5.65 -19.05 -7.6 L-19.45 -8.75 -20.1 -10.8 M-12.8 -13.55 L-13.25 -13.6 Q-14.75 -13.8 -16.0 -14.55 L-14.9 -12.7 Q-13.85 -11.1 -12.2 -9.9 L-11.95 -9.7 -11.5 -9.4 Q-10.4 -8.65 -9.15 -8.1 L-7.35 -7.45 -4.65 -6.55 -3.9 -6.45 -2.1 -6.4 0.0 -6.35 1.5 -6.45 2.05 -6.55 2.5 -5.85 2.65 -6.65 6.8 -7.3 9.95 -8.1 10.95 -8.5 11.1 -8.55 11.45 -8.25 11.1 -8.55 10.95 -8.5 9.95 -8.1 6.8 -7.3 2.65 -6.65 2.5 -5.85 2.05 -6.55 1.5 -6.45 0.0 -6.35 -2.1 -6.4 -3.9 -6.45 -4.65 -6.55 -7.35 -7.45 -9.15 -8.1 Q-10.4 -8.65 -11.5 -9.4 L-11.95 -9.7 -12.2 -9.9 Q-13.85 -11.1 -14.9 -12.7 L-16.0 -14.55 -16.75 -15.05 -16.0 -14.55 Q-14.75 -13.8 -13.25 -13.6 L-12.8 -13.55 -9.0 -13.15 -4.75 -12.7 -0.8 -12.4 2.7 -12.2 6.2 -12.05 9.95 -12.0 14.2 -12.05 15.05 -12.2 16.4 -12.45 15.6 -11.65 14.95 -10.95 14.0 -10.25 13.05 -9.6 12.05 -9.0 11.1 -8.55 9.5 -10.55 8.95 -11.2 8.45 -10.7 Q7.8 -8.8 6.8 -7.3 L4.1 -11.7 Q3.2 -10.55 3.0 -8.85 L2.65 -6.65 2.05 -6.55 Q0.6 -8.85 -0.4 -11.35 L-0.7 -9.95 Q-1.1 -8.0 -2.1 -6.4 -2.95 -7.8 -3.4 -9.25 -4.0 -10.95 -4.9 -12.05 L-5.15 -11.55 -5.45 -10.9 Q-6.0 -9.15 -7.0 -7.85 L-9.95 -13.2 Q-10.75 -12.25 -11.0 -11.05 -11.3 -10.05 -11.95 -9.7 -12.7 -11.25 -12.8 -13.55 -12.7 -11.25 -11.95 -9.7 -11.3 -10.05 -11.0 -11.05 -10.75 -12.25 -9.95 -13.2 L-7.0 -7.85 Q-6.0 -9.15 -5.45 -10.9 L-5.15 -11.55 -4.9 -12.05 Q-4.0 -10.95 -3.4 -9.25 -2.95 -7.8 -2.1 -6.4 -1.1 -8.0 -0.7 -9.95 L-0.4 -11.35 Q0.6 -8.85 2.05 -6.55 L2.65 -6.65 3.0 -8.85 Q3.2 -10.55 4.1 -11.7 L6.8 -7.3 Q7.8 -8.8 8.45 -10.7 L8.95 -11.2 9.5 -10.55 11.1 -8.55 12.05 -9.0 13.05 -9.6 14.0 -10.25 14.95 -10.95 15.6 -11.65 16.4 -12.45 15.05 -12.2 14.2 -12.05 9.95 -12.0 6.2 -12.05 2.7 -12.2 -0.8 -12.4 -4.75 -12.7 -9.0 -13.15 -12.8 -13.55 M-22.1 -5.75 Q-22.2 -5.35 -22.55 -5.05 -22.2 -5.35 -22.1 -5.75 M-5.35 -28.85 L-7.45 -29.0 -5.35 -28.85 M-6.0 -33.65 Q-5.65 -33.25 -5.25 -33.5 L-4.75 -33.8 Q-3.5 -34.35 -4.35 -35.75 L-5.0 -36.25 Q-6.55 -36.65 -7.25 -35.1 -8.15 -33.15 -7.3 -31.15 -6.95 -30.2 -5.85 -30.15 L-3.4 -30.7 -5.85 -30.15 Q-6.95 -30.2 -7.3 -31.15 -8.15 -33.15 -7.25 -35.1 -6.55 -36.65 -5.0 -36.25 L-4.35 -35.75 Q-3.5 -34.35 -4.75 -33.8 L-5.25 -33.5 Q-5.65 -33.25 -6.0 -33.65 M-14.5 -27.15 L-14.7 -27.0 Q-16.35 -25.95 -17.5 -24.55 L-18.75 -22.85 -17.5 -24.55 Q-16.35 -25.95 -14.7 -27.0 L-14.5 -27.15 M16.85 -6.05 Q18.65 -7.55 18.8 -9.6 L18.85 -10.55 18.85 -12.4 18.85 -10.55 18.8 -9.6 Q18.65 -7.55 16.85 -6.05 M15.45 -18.75 Q15.1 -18.05 16.05 -17.95 L15.6 -18.55 15.45 -18.75 15.2 -19.05 13.65 -20.85 15.2 -19.05 15.45 -18.75 15.6 -18.55 16.05 -17.95 Q15.1 -18.05 15.45 -18.75 M8.75 -31.45 L9.2 -31.65 Q10.1 -32.3 10.1 -33.3 L9.95 -33.8 Q9.0 -35.1 7.5 -34.3 5.3 -33.25 5.15 -30.9 L5.15 -30.15 Q5.1 -28.15 7.1 -27.45 8.9 -26.8 10.55 -27.5 8.9 -26.8 7.1 -27.45 5.1 -28.15 5.15 -30.15 L5.15 -30.9 Q5.3 -33.25 7.5 -34.3 9.0 -35.1 9.95 -33.8 L10.1 -33.3 Q10.1 -32.3 9.2 -31.65 L8.75 -31.45" fill="#ffffff" fill-rule="evenodd" stroke="none"/>
    <path d="M7.25 -25.35 L7.95 -25.0 Q10.45 -23.8 12.25 -22.15 L13.65 -20.85 Q13.2 -21.65 13.1 -22.65 12.85 -24.75 13.25 -26.8 13.65 -29.1 15.55 -30.5 17.2 -31.85 19.25 -32.6 21.4 -33.4 23.6 -32.65 L24.25 -32.4 Q25.55 -31.7 26.15 -30.35 24.4 -29.2 22.85 -27.85 L20.9 -26.5 20.3 -25.9 Q23.1 -25.75 25.9 -26.0 L28.15 -26.55 28.65 -26.65 29.25 -22.95 Q29.4 -22.0 29.05 -21.1 28.25 -19.15 26.35 -18.25 24.1 -17.2 21.65 -17.05 L17.4 -17.2 Q17.05 -17.3 16.75 -17.5 16.35 -17.7 16.1 -17.95 L16.05 -17.95 18.0 -14.85 18.85 -12.4 21.55 -12.6 25.75 -12.4 30.0 -12.0 32.35 -11.5 33.3 -11.0 Q33.85 -10.5 33.5 -10.15 33.35 -10.0 33.15 -10.0 L28.75 -9.85 25.25 -10.05 21.75 -10.25 20.65 -10.35 21.25 -10.1 22.15 -9.7 24.65 -9.3 Q26.75 -8.95 28.6 -8.0 L29.3 -7.35 29.85 -5.85 29.35 -5.85 28.15 -6.0 24.65 -6.65 Q23.7 -6.85 23.0 -7.4 L22.65 -7.6 23.25 -7.05 24.6 -5.9 25.4 -5.05 Q26.15 -4.3 26.05 -3.25 L25.25 -3.4 24.15 -4.0 22.75 -4.75 21.65 -5.6 21.9 -5.0 Q22.25 -3.55 22.05 -2.35 L21.75 -2.15 Q21.3 -2.2 20.9 -2.5 L18.7 -4.25 Q17.75 -5.1 17.25 -5.9 L16.85 -6.05 16.65 -5.9 15.35 -4.9 Q13.2 -3.3 10.6 -2.1 L8.7 -1.4 Q6.1 -0.65 3.3 -0.25 L-2.55 -0.1 -3.9 -0.15 -7.9 -0.4 Q-10.55 -0.85 -12.85 -2.1 L-14.6 -3.1 -14.8 -2.7 Q-15.2 -1.15 -16.3 0.05 -17.1 0.85 -17.55 -0.05 -17.9 -0.7 -17.8 -1.6 L-17.75 -2.6 -19.65 -0.8 Q-20.3 -0.45 -21.25 -0.45 -21.45 -0.85 -21.25 -1.25 L-20.2 -3.6 Q-21.65 -1.7 -24.1 -1.55 -24.8 -1.5 -24.3 -2.25 L-22.55 -5.05 Q-22.9 -4.75 -23.45 -4.5 L-25.9 -3.45 Q-26.9 -2.95 -27.55 -3.1 -27.4 -4.8 -26.0 -5.9 L-25.4 -6.4 -23.5 -7.9 -20.1 -10.8 -20.55 -13.05 -20.65 -14.95 -20.2 -19.3 -19.9 -20.55 -18.75 -22.85 Q-19.15 -22.4 -20.2 -22.4 L-21.2 -22.35 -25.2 -22.1 Q-26.9 -22.05 -28.4 -22.8 L-29.2 -23.3 -32.4 -26.2 -34.4 -28.5 -35.05 -29.75 -35.7 -33.9 -35.85 -36.4 Q-35.95 -38.7 -35.3 -40.85 -34.65 -43.05 -33.65 -45.1 L-33.2 -45.95 -33.05 -46.35 -29.55 -41.25 -27.25 -38.05 -26.9 -37.65 -26.7 -37.25 Q-25.95 -40.35 -25.7 -43.5 L-25.4 -47.25 -25.0 -49.55 -24.75 -49.8 Q-23.45 -50.55 -21.85 -50.45 -19.2 -50.3 -17.2 -48.5 -15.65 -47.1 -14.6 -45.2 -13.3 -42.8 -12.65 -40.1 -12.05 -37.6 -11.9 -35.0 -11.75 -32.7 -12.45 -30.45 L-13.1 -28.65 Q-13.5 -27.65 -14.5 -27.2 L-14.5 -27.15 -13.9 -27.55 Q-11.5 -29.0 -8.45 -29.0 L-7.45 -29.0 -9.15 -30.35 Q-10.35 -31.55 -10.65 -33.3 -11.0 -35.55 -9.75 -37.4 -8.4 -39.5 -6.0 -39.6 L-3.4 -39.2 Q-2.35 -38.85 -1.85 -37.8 L-1.35 -36.7 Q-0.3 -34.7 -1.3 -32.7 L-1.9 -31.8 -3.4 -30.7 -5.85 -30.15 Q-6.95 -30.2 -7.3 -31.15 -8.15 -33.15 -7.25 -35.1 -6.55 -36.65 -5.0 -36.25 L-4.35 -35.75 Q-3.5 -34.35 -4.75 -33.8 L-5.25 -33.5 Q-5.65 -33.25 -6.0 -33.65 M-5.35 -28.85 L-2.7 -28.5 2.75 -27.1 3.65 -26.8 Q1.9 -28.2 1.8 -30.4 L1.8 -31.8 Q1.75 -33.95 3.2 -35.5 4.75 -37.1 6.8 -37.3 8.9 -37.55 10.85 -36.7 12.9 -35.85 13.75 -33.75 14.15 -32.7 13.9 -31.5 13.35 -29.25 11.35 -27.95 L10.55 -27.5 Q8.9 -26.8 7.1 -27.45 5.1 -28.15 5.15 -30.15 L5.15 -30.9 Q5.3 -33.25 7.5 -34.3 9.0 -35.1 9.95 -33.8 L10.1 -33.3 Q10.1 -32.3 9.2 -31.65 L8.75 -31.45 M7.25 -25.35 L3.65 -26.8 M13.65 -20.85 L15.2 -19.05 15.45 -18.75 15.6 -18.55 16.05 -17.95 Q15.1 -18.05 15.45 -18.75 M8.95 -11.2 L9.5 -10.55 11.1 -8.55 12.05 -9.0 13.05 -9.6 14.0 -10.25 14.95 -10.95 15.6 -11.65 16.4 -12.45 15.05 -12.2 14.2 -12.05 9.95 -12.0 6.2 -12.05 2.7 -12.2 -0.8 -12.4 -4.75 -12.7 -9.0 -13.15 -12.8 -13.55 Q-12.7 -11.25 -11.95 -9.7 -11.3 -10.05 -11.0 -11.05 -10.75 -12.25 -9.95 -13.2 L-7.0 -7.85 Q-6.0 -9.15 -5.45 -10.9 L-5.15 -11.55 -4.9 -12.05 Q-4.0 -10.95 -3.4 -9.25 -2.95 -7.8 -2.1 -6.4 -1.1 -8.0 -0.7 -9.95 L-0.4 -11.35 Q0.6 -8.85 2.05 -6.55 L2.65 -6.65 3.0 -8.85 Q3.2 -10.55 4.1 -11.7 L6.8 -7.3 Q7.8 -8.8 8.45 -10.7 L8.95 -11.2 M11.45 -8.25 L11.1 -8.55 10.95 -8.5 9.95 -8.1 6.8 -7.3 2.65 -6.65 2.5 -5.85 2.05 -6.55 1.5 -6.45 0.0 -6.35 -2.1 -6.4 -3.9 -6.45 -4.65 -6.55 -7.35 -7.45 -9.15 -8.1 Q-10.4 -8.65 -11.5 -9.4 L-11.95 -9.7 -12.2 -9.9 Q-13.85 -11.1 -14.9 -12.7 L-16.0 -14.55 -16.75 -15.05 M18.85 -12.4 L18.85 -10.55 18.8 -9.6 Q18.65 -7.55 16.85 -6.05 M-18.75 -22.85 L-17.5 -24.55 Q-16.35 -25.95 -14.7 -27.0 L-14.5 -27.15 M-7.45 -29.0 L-5.35 -28.85 M-22.55 -5.05 Q-22.2 -5.35 -22.1 -5.75 M-16.0 -14.55 Q-14.75 -13.8 -13.25 -13.6 L-12.8 -13.55 M-14.6 -3.1 L-16.45 -4.25 Q-18.45 -5.65 -19.05 -7.6 L-19.45 -8.75 -20.1 -10.8" fill="none" stroke="#000000" stroke-linecap="round" stroke-linejoin="round" stroke-width="0.05"/>
  </g>
</svg>
