<?xml version="1.0" encoding="UTF-8" standalone="no"?>
<svg xmlns:ffdec="https://www.free-decompiler.com/flash" xmlns:xlink="http://www.w3.org/1999/xlink" ffdec:objectType="shape" height="97.15px" width="43.1px" xmlns="http://www.w3.org/2000/svg">
  <g transform="matrix(1.0, 0.0, 0.0, 1.0, 18.4, 96.45)">
    <path d="M5.65 -89.55 Q7.65 -90.85 10.05 -91.15 L14.75 -91.25 Q16.75 -91.1 18.35 -89.7 20.45 -87.95 21.1 -85.05 21.75 -82.25 21.1 -79.45 20.65 -77.95 19.9 -76.7 18.9 -75.05 17.55 -74.1 L18.15 -74.05 19.25 -73.8 19.65 -73.6 Q21.1 -71.6 19.85 -69.25 18.85 -67.5 17.1 -66.8 L16.9 -66.25 16.8 -65.2 Q16.75 -64.0 16.35 -62.9 L16.15 -62.55 Q15.65 -61.4 14.4 -60.9 L9.3 -59.25 9.05 -59.15 9.25 -59.05 11.8 -57.55 Q20.15 -48.9 22.4 -37.3 23.05 -34.1 23.15 -30.55 L23.35 -25.35 24.6 -24.85 24.7 -23.35 24.65 -22.05 24.65 -20.85 Q22.85 -16.4 24.15 -11.8 L21.4 -11.3 18.0 -11.3 14.7 -10.9 Q15.05 -6.75 14.75 -4.75 14.4 -2.8 14.9 -2.35 L14.9 -1.75 Q10.85 1.9 5.05 0.1 L4.45 -0.6 Q10.45 -4.0 7.5 -10.9 L7.35 -10.9 7.0 -10.9 2.75 -10.6 2.75 -9.75 2.75 -4.65 2.7 -3.55 Q2.75 -2.65 2.35 -2.0 1.75 -1.15 0.9 -1.05 L-4.25 -0.8 Q-6.5 -0.9 -8.25 -1.6 L-8.5 -2.25 Q-6.55 -4.4 -3.3 -4.5 -3.0 -6.6 -3.35 -9.45 L-4.45 -11.7 -6.1 -11.6 -6.6 -13.1 Q-7.15 -14.6 -7.25 -16.2 -7.75 -21.4 -7.9 -27.35 L-12.95 -27.65 -16.1 -27.85 -18.0 -28.0 -18.05 -28.0 -18.35 -29.8 Q-18.55 -32.7 -17.85 -35.55 L-13.85 -48.5 -10.7 -54.9 Q-9.9 -56.65 -8.5 -58.0 L-7.15 -59.15 -7.0 -59.75 Q-9.15 -60.45 -11.0 -61.8 -13.15 -63.5 -14.55 -66.2 -15.85 -68.7 -15.75 -71.75 -15.7 -74.7 -14.65 -77.6 L-14.25 -78.9 Q-13.2 -80.7 -12.45 -83.25 L-12.1 -83.7 Q-14.65 -85.1 -15.2 -87.85 L-15.25 -88.7 Q-15.3 -91.8 -13.05 -93.95 -10.95 -96.0 -8.05 -96.35 -5.25 -96.75 -2.7 -95.75 -0.55 -94.95 1.25 -93.6 3.35 -92.0 4.5 -89.6 L4.95 -89.05 5.65 -89.55 M-6.9 -11.55 L-9.3 -11.4 -9.8 -11.35 -12.55 -11.15 -15.3 -11.0 -18.05 -28.0 -18.0 -28.0 -16.1 -27.85 -12.95 -27.65 -7.9 -27.35 0.35 -26.8 14.2 -25.95 23.35 -25.35 14.2 -25.95 0.35 -26.8 -7.9 -27.35 Q-7.75 -21.4 -7.25 -16.2 -7.15 -14.6 -6.6 -13.1 L-6.1 -11.6 -6.9 -11.55 M14.7 -10.9 L9.95 -10.9 Q10.1 -12.25 9.9 -13.45 9.05 -19.1 7.65 -24.75 9.05 -19.1 9.9 -13.45 10.1 -12.25 9.95 -10.9 L14.7 -10.9 M9.05 -59.15 L6.75 -58.75 6.7 -58.75 4.65 -58.5 Q2.65 -58.35 0.6 -58.5 L-5.8 -59.45 -7.0 -59.75 -5.8 -59.45 0.6 -58.5 Q2.65 -58.35 4.65 -58.5 L6.7 -58.75 6.75 -58.75 9.05 -59.15 M2.75 -63.9 L1.6 -62.3 -0.05 -64.1 Q-0.25 -64.3 -0.5 -64.35 L-1.05 -64.25 Q-1.25 -63.1 -2.0 -62.35 L-2.15 -62.25 -2.8 -62.35 Q-3.75 -63.15 -4.65 -64.8 L-1.65 -64.8 -0.55 -64.9 -0.15 -64.9 1.95 -65.1 2.1 -65.1 5.9 -65.35 Q5.15 -63.55 2.8 -62.65 L1.6 -62.3 2.8 -62.65 Q5.15 -63.55 5.9 -65.35 L2.1 -65.1 1.95 -65.1 -0.15 -64.9 -0.55 -64.9 -1.65 -64.8 -4.65 -64.8 Q-3.75 -63.15 -2.8 -62.35 L-2.15 -62.25 -2.0 -62.35 Q-1.25 -63.1 -1.05 -64.25 L-0.5 -64.35 Q-0.25 -64.3 -0.05 -64.1 L1.6 -62.3 2.75 -63.9 M14.1 -66.45 L15.75 -66.5 17.1 -66.8 15.75 -66.5 14.1 -66.45 Q15.15 -65.2 15.65 -63.6 15.75 -63.3 16.35 -62.9 15.75 -63.3 15.65 -63.6 15.15 -65.2 14.1 -66.45 L12.75 -66.8 12.05 -67.1 12.75 -66.8 14.1 -66.45 M7.85 -80.35 Q5.6 -82.8 2.65 -84.65 5.6 -82.8 7.85 -80.35 M4.25 -75.2 Q5.25 -74.95 5.25 -75.65 L5.1 -77.0 Q4.85 -78.3 3.6 -78.05 3.05 -78.0 2.85 -77.55 L2.65 -76.95 Q2.1 -74.65 4.05 -73.6 L5.25 -73.05 8.05 -73.2 Q10.0 -74.6 9.4 -77.0 8.7 -79.95 5.6 -80.45 2.45 -80.9 0.2 -78.65 L-0.25 -78.0 Q-1.0 -76.0 -0.5 -73.85 L-0.15 -73.1 0.75 -71.85 Q2.5 -69.35 5.55 -69.5 2.5 -69.35 0.75 -71.85 L-0.15 -73.1 -0.5 -73.85 Q-1.0 -76.0 -0.25 -78.0 L0.2 -78.65 Q2.45 -80.9 5.6 -80.45 8.7 -79.95 9.4 -77.0 10.0 -74.6 8.05 -73.2 L5.25 -73.05 4.05 -73.6 Q2.1 -74.65 2.65 -76.95 L2.85 -77.55 Q3.05 -78.0 3.6 -78.05 4.85 -78.3 5.1 -77.0 L5.25 -75.65 Q5.25 -74.95 4.25 -75.2 M-10.85 -82.6 L-9.7 -83.2 -5.3 -83.6 0.3 -84.8 1.65 -85.25 Q3.4 -86.15 4.55 -87.2 3.4 -86.15 1.65 -85.25 L0.3 -84.8 -5.3 -83.6 -9.7 -83.2 -10.85 -82.6 M17.55 -74.1 Q17.05 -74.65 16.3 -74.25 L14.15 -73.3 Q13.35 -73.0 13.4 -73.75 13.55 -75.5 14.15 -77.0 14.5 -77.9 13.85 -78.55 L10.45 -80.7 Q8.45 -82.0 6.95 -83.7 L6.55 -84.3 Q6.1 -85.65 5.2 -86.65 6.1 -85.65 6.55 -84.3 L6.95 -83.7 Q8.45 -82.0 10.45 -80.7 L13.85 -78.55 Q14.5 -77.9 14.15 -77.0 13.55 -75.5 13.4 -73.75 13.35 -73.0 14.15 -73.3 L16.3 -74.25 Q17.05 -74.65 17.55 -74.1 M-9.5 -46.95 Q-10.5 -47.35 -10.7 -46.75 -10.5 -47.35 -9.5 -46.95 M-6.85 -30.55 L-8.1 -32.15 -6.35 -33.6 -8.1 -32.15 -6.85 -30.55 M-9.8 -33.3 Q-8.85 -32.8 -8.1 -32.15 L-9.15 -30.85 -8.1 -32.15 Q-8.85 -32.8 -9.8 -33.3 M-4.65 -64.8 L-7.25 -65.05 -5.8 -63.5 Q-5.05 -62.95 -3.8 -62.55 L-2.8 -62.35 -2.75 -62.3 -2.8 -61.75 -2.15 -62.25 -1.75 -62.15 1.6 -62.3 -1.75 -62.15 -2.15 -62.25 -2.8 -61.75 -2.75 -62.3 -2.8 -62.35 -3.8 -62.55 Q-5.05 -62.95 -5.8 -63.5 L-7.25 -65.05 -4.65 -64.8 M-8.7 -72.25 L-7.5 -72.5 -8.7 -72.25 Q-11.0 -71.7 -12.7 -70.2 -13.8 -69.25 -12.45 -68.4 -10.05 -66.75 -7.15 -66.45 L-4.45 -66.25 -7.15 -66.45 Q-10.05 -66.75 -12.45 -68.4 -13.8 -69.25 -12.7 -70.2 -11.0 -71.7 -8.7 -72.25 -11.25 -72.45 -11.9 -74.9 L-12.3 -76.4 Q-13.15 -79.65 -10.45 -81.25 -8.5 -82.45 -6.5 -80.9 -4.2 -79.1 -4.6 -76.15 -4.7 -75.65 -5.1 -75.2 -6.8 -73.4 -8.7 -74.65 -10.0 -75.5 -10.1 -77.1 -10.15 -78.25 -9.55 -79.15 -9.4 -79.4 -9.1 -79.45 -7.35 -79.55 -7.55 -77.6 -7.65 -76.8 -8.55 -76.45 -7.65 -76.8 -7.55 -77.6 -7.35 -79.55 -9.1 -79.45 -9.4 -79.4 -9.55 -79.15 -10.15 -78.25 -10.1 -77.1 -10.0 -75.5 -8.7 -74.65 -6.8 -73.4 -5.1 -75.2 -4.7 -75.65 -4.6 -76.15 -4.2 -79.1 -6.5 -80.9 -8.5 -82.45 -10.45 -81.25 -13.15 -79.65 -12.3 -76.4 L-11.9 -74.9 Q-11.25 -72.45 -8.7 -72.25 M-6.7 -85.4 L-9.7 -83.2 -10.75 -83.25 -11.95 -83.6 -12.1 -83.7 -11.95 -83.6 -10.75 -83.25 -9.7 -83.2 -6.7 -85.4 M24.7 -23.35 L24.65 -23.25 24.65 -22.05 24.65 -23.25 24.7 -23.35 M21.4 -11.3 Q21.75 -12.5 20.55 -15.85 19.3 -19.25 20.55 -25.2 19.3 -19.25 20.55 -15.85 21.75 -12.5 21.4 -11.3 M18.0 -11.3 L17.3 -14.3 Q16.1 -19.85 14.2 -25.95 16.1 -19.85 17.3 -14.3 L18.0 -11.3 M0.35 -26.8 L1.7 -15.6 Q1.9 -13.05 2.55 -10.55 L1.2 -10.45 Q1.55 -9.75 1.8 -10.45 2.15 -9.75 2.75 -9.75 L2.55 -10.55 2.75 -10.6 2.55 -10.55 2.75 -9.75 Q2.15 -9.75 1.8 -10.45 1.55 -9.75 1.2 -10.45 L-1.4 -10.3 -1.5 -10.5 -2.0 -11.85 -4.45 -11.7 -2.0 -11.85 -1.5 -10.5 -1.4 -10.3 1.2 -10.45 2.55 -10.55 Q1.9 -13.05 1.7 -15.6 L0.35 -26.8 M9.95 -10.9 L7.5 -10.9 7.45 -11.25 7.35 -10.9 7.45 -11.25 7.5 -10.9 9.95 -10.9 M-3.15 -16.05 L-1.85 -16.2 Q-2.4 -18.65 -2.25 -21.7 -2.1 -25.1 -5.5 -24.45 -4.95 -22.1 -4.8 -19.0 -5.2 -16.55 -3.15 -16.05 -2.75 -13.9 -2.0 -11.85 -2.75 -13.9 -3.15 -16.05 -5.2 -16.55 -4.8 -19.0 -4.95 -22.1 -5.5 -24.45 -2.1 -25.1 -2.25 -21.7 -2.4 -18.65 -1.85 -16.2 L-3.15 -16.05 M-12.95 -27.65 Q-11.55 -21.25 -10.5 -15.6 -10.15 -13.75 -9.65 -12.75 L-9.3 -11.4 -9.65 -12.75 Q-10.15 -13.75 -10.5 -15.6 -11.55 -21.25 -12.95 -27.65 M1.1 -46.15 L-1.2 -46.15 1.1 -46.15 M-12.55 -11.15 Q-13.85 -14.0 -14.0 -16.5 -14.35 -22.3 -16.1 -27.85 -14.35 -22.3 -14.0 -16.5 -13.85 -14.0 -12.55 -11.15" fill="#ffffff" fill-rule="evenodd" stroke="none"/>
    <path d="M5.65 -89.55 Q7.65 -90.85 10.05 -91.15 L14.75 -91.25 Q16.75 -91.1 18.35 -89.7 20.45 -87.95 21.1 -85.05 21.75 -82.25 21.1 -79.45 20.65 -77.95 19.9 -76.7 18.9 -75.05 17.55 -74.1 L18.15 -74.05 19.25 -73.8 19.65 -73.6 Q21.1 -71.6 19.85 -69.25 18.85 -67.5 17.1 -66.8 L16.9 -66.25 16.8 -65.2 Q16.75 -64.0 16.35 -62.9 L16.15 -62.55 Q15.65 -61.4 14.4 -60.9 L9.3 -59.25 9.05 -59.15 9.25 -59.05 11.8 -57.55 Q20.15 -48.9 22.4 -37.3 23.05 -34.1 23.15 -30.55 L23.35 -25.35 14.2 -25.95 Q16.1 -19.85 17.3 -14.3 L18.0 -11.3 14.7 -10.9 Q15.05 -6.75 14.75 -4.75 14.4 -2.8 14.9 -2.35 L14.9 -1.75 Q10.85 1.9 5.05 0.1 L4.45 -0.6 Q10.45 -4.0 7.5 -10.9 L7.35 -10.9 Q7.15 -10.35 7.0 -10.9 L2.75 -10.6 2.75 -9.75 2.75 -4.65 M24.6 -24.85 L24.7 -23.35 24.65 -22.05 24.65 -20.85 Q22.85 -16.4 24.15 -11.8 L21.4 -11.3 18.0 -11.3 M2.7 -3.55 Q2.75 -2.65 2.35 -2.0 1.75 -1.15 0.9 -1.05 L-4.25 -0.8 Q-6.5 -0.9 -8.25 -1.6 -8.85 -1.9 -8.5 -2.25 -6.55 -4.4 -3.3 -4.5 -3.0 -6.6 -3.35 -9.45 L-4.45 -11.7 -6.1 -11.6 Q-5.7 -10.1 -6.9 -11.55 L-9.3 -11.4 Q-9.3 -10.9 -9.8 -11.35 L-12.55 -11.15 -15.3 -11.0 -18.05 -28.0 -18.35 -29.8 Q-18.55 -32.7 -17.85 -35.55 L-13.85 -48.5 -10.7 -54.9 Q-9.9 -56.65 -8.5 -58.0 L-7.15 -59.15 M-7.0 -59.75 Q-9.15 -60.45 -11.0 -61.8 -13.15 -63.5 -14.55 -66.2 -15.85 -68.7 -15.75 -71.75 -15.7 -74.7 -14.65 -77.6 L-14.25 -78.9 Q-13.2 -80.7 -12.45 -83.25 M-12.1 -83.7 Q-14.65 -85.1 -15.2 -87.85 L-15.25 -88.7 Q-15.3 -91.8 -13.05 -93.95 -10.95 -96.0 -8.05 -96.35 -5.25 -96.75 -2.7 -95.75 -0.55 -94.95 1.25 -93.6 3.35 -92.0 4.5 -89.6 L4.95 -89.05 M5.2 -86.65 Q6.1 -85.65 6.55 -84.3 L6.95 -83.7 Q8.45 -82.0 10.45 -80.7 L13.85 -78.55 Q14.5 -77.9 14.15 -77.0 13.55 -75.5 13.4 -73.75 13.35 -73.0 14.15 -73.3 L16.3 -74.25 Q17.05 -74.65 17.55 -74.1 M4.55 -87.2 Q3.4 -86.15 1.65 -85.25 L0.3 -84.8 -5.3 -83.6 -9.7 -83.2 -10.85 -82.6 M5.55 -69.5 Q2.5 -69.35 0.75 -71.85 L-0.15 -73.1 -0.5 -73.85 Q-1.0 -76.0 -0.25 -78.0 L0.2 -78.65 Q2.45 -80.9 5.6 -80.45 8.7 -79.95 9.4 -77.0 10.0 -74.6 8.05 -73.2 L5.25 -73.05 4.05 -73.6 Q2.1 -74.65 2.65 -76.95 L2.85 -77.55 Q3.05 -78.0 3.6 -78.05 4.85 -78.3 5.1 -77.0 L5.25 -75.65 Q5.25 -74.95 4.25 -75.2 M2.65 -84.65 Q5.6 -82.8 7.85 -80.35 M16.35 -62.9 Q15.75 -63.3 15.65 -63.6 15.15 -65.2 14.1 -66.45 L12.75 -66.8 12.05 -67.1 M17.1 -66.8 L15.75 -66.5 14.1 -66.45 M1.6 -62.3 L2.8 -62.65 Q5.15 -63.55 5.9 -65.35 L2.1 -65.1 1.95 -65.1 -0.15 -64.9 -0.55 -64.9 -1.65 -64.8 -4.65 -64.8 Q-3.75 -63.15 -2.8 -62.35 L-2.15 -62.25 -2.0 -62.35 Q-1.25 -63.1 -1.05 -64.25 L-0.5 -64.35 Q-0.25 -64.3 -0.05 -64.1 L1.6 -62.3 2.75 -63.9 M-7.0 -59.75 L-5.8 -59.45 0.6 -58.5 Q2.65 -58.35 4.65 -58.5 L6.7 -58.75 6.75 -58.75 9.05 -59.15 M-18.05 -28.0 L-18.0 -28.0 -16.1 -27.85 -12.95 -27.65 -7.9 -27.35 0.35 -26.8 14.2 -25.95 M7.65 -24.75 Q9.05 -19.1 9.9 -13.45 10.1 -12.25 9.95 -10.9 L14.7 -10.9 M7.0 -10.9 L7.35 -10.9 7.45 -11.25 7.5 -10.9 9.95 -10.9 M2.75 -10.6 L2.55 -10.55 2.75 -9.75 Q2.15 -9.75 1.8 -10.45 1.55 -9.75 1.2 -10.45 L-1.4 -10.3 -1.5 -10.5 -2.0 -11.85 -4.45 -11.7 M1.2 -10.45 L2.55 -10.55 Q1.9 -13.05 1.7 -15.6 L0.35 -26.8 M20.55 -25.2 Q19.3 -19.25 20.55 -15.85 21.75 -12.5 21.4 -11.3 M24.65 -22.05 L24.65 -23.25 24.7 -23.35 M-4.45 -66.25 L-7.15 -66.45 Q-10.05 -66.75 -12.45 -68.4 -13.8 -69.25 -12.7 -70.2 -11.0 -71.7 -8.7 -72.25 -11.25 -72.45 -11.9 -74.9 L-12.3 -76.4 Q-13.15 -79.65 -10.45 -81.25 -8.5 -82.45 -6.5 -80.9 -4.2 -79.1 -4.6 -76.15 -4.7 -75.65 -5.1 -75.2 -6.8 -73.4 -8.7 -74.65 -10.0 -75.5 -10.1 -77.1 -10.15 -78.25 -9.55 -79.15 -9.4 -79.4 -9.1 -79.45 -7.35 -79.55 -7.55 -77.6 -7.65 -76.8 -8.55 -76.45 M-9.7 -83.2 L-10.75 -83.25 -11.95 -83.6 -12.1 -83.7 M-9.7 -83.2 L-6.7 -85.4 M-7.5 -72.5 L-8.7 -72.25 M1.6 -62.3 L-1.75 -62.15 -2.15 -62.25 -2.8 -61.75 -2.75 -62.3 -2.8 -62.35 -3.8 -62.55 Q-5.05 -62.95 -5.8 -63.5 L-7.25 -65.05 -4.65 -64.8 M-9.15 -30.85 L-8.1 -32.15 Q-8.85 -32.8 -9.8 -33.3 M-6.35 -33.6 L-8.1 -32.15 -6.85 -30.55 M-10.7 -46.75 Q-10.5 -47.35 -9.5 -46.95 M-7.9 -27.35 Q-7.75 -21.4 -7.25 -16.2 -7.15 -14.6 -6.6 -13.1 L-6.1 -11.6 -6.9 -11.55 M-2.0 -11.85 Q-2.75 -13.9 -3.15 -16.05 -5.2 -16.55 -4.8 -19.0 -4.95 -22.1 -5.5 -24.45 -2.1 -25.1 -2.25 -21.7 -2.4 -18.65 -1.85 -16.2 L-3.15 -16.05 M-9.8 -11.35 L-9.3 -11.4 -9.65 -12.75 Q-10.15 -13.75 -10.5 -15.6 -11.55 -21.25 -12.95 -27.65 M-16.1 -27.85 Q-14.35 -22.3 -14.0 -16.5 -13.85 -14.0 -12.55 -11.15 M-1.2 -46.15 L1.1 -46.15" fill="none" stroke="#000000" stroke-linecap="round" stroke-linejoin="round" stroke-width="0.05"/>
  </g>
</svg>
