<?xml version="1.0" encoding="UTF-8" standalone="no"?>
<svg xmlns:ffdec="https://www.free-decompiler.com/flash" xmlns:xlink="http://www.w3.org/1999/xlink" ffdec:objectType="shape" height="76.4px" width="50.5px" xmlns="http://www.w3.org/2000/svg">
  <g transform="matrix(1.0, 0.0, 0.0, 1.0, 26.4, 76.25)">
    <path d="M21.9 -62.7 L20.0 -63.45 19.95 -62.1 20.05 -59.2 Q18.8 -60.0 17.9 -61.1 16.1 -63.25 13.85 -63.7 13.8 -61.95 13.45 -60.95 11.0 -63.8 9.05 -67.1 L8.6 -67.6 8.1 -67.5 Q6.4 -65.95 6.05 -64.85 6.4 -65.95 8.1 -67.5 L8.6 -67.6 9.05 -67.1 Q11.0 -63.8 13.45 -60.95 13.8 -61.95 13.85 -63.7 16.1 -63.25 17.9 -61.1 18.8 -60.0 20.05 -59.2 L19.95 -62.1 20.0 -63.45 21.9 -62.7 21.4 -59.0 21.4 -58.8 Q20.5 -52.9 19.5 -48.75 L18.05 -42.55 17.8 -42.2 Q16.25 -40.2 15.85 -37.75 18.95 -34.95 19.95 -30.95 20.3 -29.5 20.3 -27.9 L20.2 -26.4 Q19.9 -24.35 20.1 -23.65 L19.5 -23.55 Q20.15 -19.45 19.7 -15.6 19.45 -13.65 18.1 -12.85 16.75 -13.7 15.95 -12.85 L15.4 -12.4 15.8 -11.9 Q15.2 -11.45 14.75 -10.4 13.25 -6.95 8.95 -6.6 8.8 -4.65 8.95 -2.55 9.0 0.15 6.75 0.15 L-0.6 -0.8 0.05 -1.7 -1.7 -2.2 Q-3.65 -2.25 -4.75 -3.1 L-2.95 -3.75 -2.55 -4.7 Q-1.9 -6.9 -3.15 -8.5 -6.8 -9.95 -9.0 -12.25 L-9.75 -13.0 -11.55 -15.15 Q-14.35 -18.35 -13.55 -22.1 L-13.4 -22.8 -13.0 -24.25 -14.0 -24.7 Q-14.8 -25.0 -14.65 -25.7 L-14.2 -26.9 -14.75 -27.3 Q-15.2 -27.3 -15.4 -27.6 -16.2 -29.1 -14.55 -30.15 -15.7 -30.45 -16.55 -31.0 -17.6 -31.6 -16.7 -32.85 -15.3 -34.75 -13.1 -35.6 -9.25 -37.2 -5.1 -37.85 L-3.1 -39.3 Q-1.95 -41.4 -3.45 -42.45 -4.4 -43.05 -5.65 -43.2 L-10.2 -43.55 -14.45 -43.85 Q-20.45 -44.65 -23.15 -49.75 L-23.1 -49.9 -23.0 -50.1 -24.45 -56.35 -25.9 -56.7 -25.6 -58.0 Q-21.3 -62.3 -15.25 -63.75 -18.1 -66.9 -14.85 -69.95 -13.85 -70.95 -12.95 -71.25 L-13.15 -71.95 Q-15.55 -71.05 -17.75 -73.05 -15.8 -75.45 -12.0 -75.1 -10.85 -76.55 -8.15 -76.2 -1.25 -75.25 5.35 -73.2 L18.5 -68.95 Q20.95 -68.15 22.85 -65.6 L23.3 -64.75 Q24.6 -63.25 23.85 -62.0 L21.9 -62.7 M4.9 -65.55 Q3.1 -66.95 1.9 -68.95 L1.35 -69.35 Q1.0 -69.35 0.65 -69.05 L-0.1 -68.25 Q-2.45 -65.6 -3.0 -68.85 -3.35 -70.65 -4.0 -71.8 L0.5 -70.25 1.5 -69.9 Q5.0 -68.8 8.65 -67.95 L12.25 -67.2 22.85 -65.6 12.25 -67.2 8.65 -67.95 Q5.0 -68.8 1.5 -69.9 L0.5 -70.25 -4.0 -71.8 Q-3.35 -70.65 -3.0 -68.85 -2.45 -65.6 -0.1 -68.25 L0.65 -69.05 Q1.0 -69.35 1.35 -69.35 L1.9 -68.95 Q3.1 -66.95 4.9 -65.55 L4.85 -65.5 5.35 -65.25 6.05 -64.8 6.05 -64.85 5.35 -65.25 4.9 -65.55 M1.45 -58.5 Q1.75 -58.9 2.6 -58.95 3.6 -58.95 3.95 -59.7 5.5 -63.3 1.8 -63.5 -0.1 -63.7 -0.65 -61.65 -1.6 -58.45 0.75 -56.3 3.1 -54.15 5.8 -55.85 7.9 -57.2 8.15 -59.9 8.45 -63.2 6.05 -64.85 8.45 -63.2 8.15 -59.9 7.9 -57.2 5.8 -55.85 3.1 -54.15 0.75 -56.3 -1.6 -58.45 -0.65 -61.65 -0.1 -63.7 1.8 -63.5 5.5 -63.3 3.95 -59.7 3.6 -58.95 2.6 -58.95 1.75 -58.9 1.45 -58.5 M0.3 -54.15 Q-3.7 -54.6 -4.1 -59.2 -4.35 -62.35 -1.85 -64.5 1.15 -67.1 4.85 -65.5 1.15 -67.1 -1.85 -64.5 -4.35 -62.35 -4.1 -59.2 -3.7 -54.6 0.3 -54.15 M9.9 -11.45 Q11.4 -11.75 12.35 -13.15 12.2 -12.4 13.15 -11.65 14.35 -11.6 15.4 -12.4 14.35 -11.6 13.15 -11.65 12.2 -12.4 12.35 -13.15 11.4 -11.75 9.9 -11.45 L9.8 -11.05 Q9.15 -8.9 8.95 -6.6 9.15 -8.9 9.8 -11.05 L9.9 -11.45 8.8 -11.3 Q7.6 -11.3 7.6 -12.5 6.7 -16.8 6.6 -20.75 6.5 -23.8 5.4 -26.65 6.5 -23.8 6.6 -20.75 6.7 -16.8 7.6 -12.5 7.6 -11.3 8.8 -11.3 L9.9 -11.45 M0.05 -1.7 L0.8 -2.05 Q1.15 -2.15 1.35 -2.4 2.0 -3.45 2.3 -5.15 2.4 -5.95 2.0 -6.1 -0.35 -7.45 -2.8 -8.35 L-3.15 -8.5 -2.8 -8.35 Q-0.35 -7.45 2.0 -6.1 2.4 -5.95 2.3 -5.15 2.0 -3.45 1.35 -2.4 1.15 -2.15 0.8 -2.05 L0.05 -1.7 M19.5 -23.55 L19.4 -24.1 18.35 -26.9 16.2 -31.4 Q18.0 -31.35 18.9 -32.05 18.0 -31.35 16.2 -31.4 L18.35 -26.9 20.3 -27.9 18.35 -26.9 19.4 -24.1 19.5 -23.55 M16.2 -31.4 Q15.65 -33.4 15.65 -35.3 15.6 -36.6 15.85 -37.75 15.6 -36.6 15.65 -35.3 15.65 -33.4 16.2 -31.4 M-20.3 -59.45 L-21.85 -58.75 -20.3 -59.45 M-12.0 -75.1 Q-11.3 -74.4 -9.7 -73.55 -10.8 -72.9 -13.15 -71.95 -10.8 -72.9 -9.7 -73.55 -11.3 -74.4 -12.0 -75.1 M-19.25 -55.25 Q-19.9 -51.8 -18.25 -48.6 L-23.05 -49.85 -23.1 -49.9 -23.05 -49.85 -18.25 -48.6 Q-19.9 -51.8 -19.25 -55.25 L-19.2 -55.3 -19.3 -55.25 -19.25 -55.25 -6.45 -52.45 -8.7 -48.8 -11.1 -47.2 -8.7 -48.8 -6.45 -52.45 -19.25 -55.25 M-23.0 -50.1 L-19.3 -55.25 -23.0 -50.1 M-4.4 -71.9 L-4.0 -71.8 -4.15 -72.05 -4.4 -71.9 -6.8 -70.35 Q-8.3 -69.6 -8.15 -70.9 -8.0 -72.9 -8.9 -73.4 L-9.7 -73.55 -8.9 -73.4 Q-8.0 -72.9 -8.15 -70.9 -8.3 -69.6 -6.8 -70.35 L-4.4 -71.9 -5.3 -72.25 -8.9 -73.4 -5.3 -72.25 -4.4 -71.9 M-15.25 -63.75 L-12.0 -64.3 -15.25 -63.75 M-11.0 -68.45 Q-13.4 -69.65 -13.3 -66.95 -10.85 -65.65 -9.65 -68.3 -9.2 -69.25 -9.75 -70.0 -11.15 -71.95 -12.95 -71.25 -11.15 -71.95 -9.75 -70.0 -9.2 -69.25 -9.65 -68.3 -10.85 -65.65 -13.3 -66.95 -13.4 -69.65 -11.0 -68.45 M-11.95 -47.45 L-11.75 -46.9 -11.1 -47.2 -11.95 -47.45 -13.35 -47.7 -17.9 -48.55 -18.25 -48.6 -18.1 -48.35 -17.9 -48.55 -13.35 -47.7 -11.95 -47.45 -12.65 -49.35 Q-12.85 -52.15 -13.45 -53.7 L-17.9 -48.55 -13.45 -53.7 Q-12.85 -52.15 -12.65 -49.35 L-11.95 -47.45 M-19.3 -55.25 L-24.45 -56.35 -19.3 -55.25 M-14.0 -58.05 Q-13.95 -59.0 -14.35 -59.75 -13.95 -59.0 -14.0 -58.05 M-9.15 -18.1 L-10.65 -19.65 -11.85 -18.7 -10.65 -19.65 -11.55 -20.85 -10.65 -19.65 -9.1 -20.6 -10.65 -19.65 -9.15 -18.1 M-13.0 -24.25 L-12.3 -26.2 Q-10.85 -29.8 -8.95 -33.2 -7.55 -35.85 -5.1 -37.85 -7.55 -35.85 -8.95 -33.2 -10.85 -29.8 -12.3 -26.2 L-13.0 -24.25" fill="#ffffff" fill-rule="evenodd" stroke="none"/>
    <path d="M6.05 -64.85 Q6.4 -65.95 8.1 -67.5 L8.6 -67.6 9.05 -67.1 Q11.0 -63.8 13.45 -60.95 13.8 -61.95 13.85 -63.7 16.1 -63.25 17.9 -61.1 18.8 -60.0 20.05 -59.2 L19.95 -62.1 20.0 -63.45 21.9 -62.7 23.85 -62.0 Q24.6 -63.25 23.3 -64.75 L22.85 -65.6 12.25 -67.2 8.65 -67.95 Q5.0 -68.8 1.5 -69.9 L0.5 -70.25 -4.0 -71.8 Q-3.35 -70.65 -3.0 -68.85 -2.45 -65.6 -0.1 -68.25 L0.65 -69.05 Q1.0 -69.35 1.35 -69.35 L1.9 -68.95 Q3.1 -66.95 4.9 -65.55 L5.35 -65.25 6.05 -64.85 Q8.45 -63.2 8.15 -59.9 7.9 -57.2 5.8 -55.85 3.1 -54.15 0.75 -56.3 -1.6 -58.45 -0.65 -61.65 -0.1 -63.7 1.8 -63.5 5.5 -63.3 3.95 -59.7 3.6 -58.95 2.6 -58.95 1.75 -58.9 1.45 -58.5 M6.05 -64.85 L6.05 -64.8 5.35 -65.25 4.85 -65.5 Q1.15 -67.1 -1.85 -64.5 -4.35 -62.35 -4.1 -59.2 -3.7 -54.6 0.3 -54.15 M-13.15 -71.95 Q-15.55 -71.05 -17.75 -73.05 -15.8 -75.45 -12.0 -75.1 -10.85 -76.55 -8.15 -76.2 -1.25 -75.25 5.35 -73.2 L18.5 -68.95 Q20.95 -68.15 22.85 -65.6 M21.9 -62.7 L21.4 -59.0 21.4 -58.8 Q20.5 -52.9 19.5 -48.75 L18.05 -42.55 17.8 -42.2 M-10.2 -43.55 L-14.45 -43.85 Q-20.45 -44.65 -23.15 -49.75 L-23.2 -49.8 -23.2 -49.85 -23.25 -49.9 -24.4 -50.3 M-21.85 -58.75 L-20.3 -59.45 M-25.6 -58.0 L-26.4 -56.8 -25.9 -56.7 -24.45 -56.35 -19.3 -55.25 -23.0 -50.1 -24.45 -56.35 M-25.6 -58.0 Q-21.3 -62.3 -15.25 -63.75 -18.1 -66.9 -14.85 -69.95 -13.85 -70.95 -12.95 -71.25 -11.15 -71.95 -9.75 -70.0 -9.2 -69.25 -9.65 -68.3 -10.85 -65.65 -13.3 -66.95 -13.4 -69.65 -11.0 -68.45 M-13.15 -71.95 Q-10.8 -72.9 -9.7 -73.55 -11.3 -74.4 -12.0 -75.1 M-23.25 -49.9 L-23.2 -49.9 -23.15 -49.9 -23.1 -49.9 -23.05 -49.85 -18.25 -48.6 Q-19.9 -51.8 -19.25 -55.25 L-19.3 -55.25 -19.2 -55.3 -19.25 -55.25 -6.45 -52.45 -8.7 -48.8 -11.1 -47.2 -11.75 -46.9 -11.95 -47.45 -13.35 -47.7 -17.9 -48.55 -18.1 -48.35 -18.25 -48.6 -17.9 -48.55 -13.45 -53.7 Q-12.85 -52.15 -12.65 -49.35 L-11.95 -47.45 -11.1 -47.2 M-4.4 -71.9 L-4.15 -72.05 -4.0 -71.8 -4.4 -71.9 -6.8 -70.35 Q-8.3 -69.6 -8.15 -70.9 -8.0 -72.9 -8.9 -73.4 L-9.7 -73.55 M-4.4 -71.9 L-5.3 -72.25 -8.9 -73.4 M-12.0 -64.3 L-15.25 -63.75 M-14.35 -59.75 Q-13.95 -59.0 -14.0 -58.05" fill="none" stroke="#000000" stroke-linecap="round" stroke-linejoin="round" stroke-width="0.05"/>
    <path d="M17.8 -42.2 Q16.25 -40.2 15.85 -37.75 18.95 -34.95 19.95 -30.95 20.3 -29.5 20.3 -27.9 L20.2 -26.4 Q19.9 -24.35 20.1 -23.65 M19.5 -23.55 Q20.15 -19.45 19.7 -15.6 19.45 -13.65 18.1 -12.85 16.75 -13.7 15.95 -12.85 L15.4 -12.4 Q14.35 -11.6 13.15 -11.65 12.2 -12.4 12.35 -13.15 11.4 -11.75 9.9 -11.45 L8.8 -11.3 Q7.6 -11.3 7.6 -12.5 6.7 -16.8 6.6 -20.75 6.5 -23.8 5.4 -26.65 M15.8 -11.9 Q15.2 -11.45 14.75 -10.4 13.25 -6.95 8.95 -6.6 8.8 -4.65 8.95 -2.55 9.0 0.15 6.75 0.15 L-0.6 -0.8 0.05 -1.7 -1.7 -2.2 Q-3.65 -2.25 -4.75 -3.1 L-2.95 -3.75 -2.55 -4.7 Q-1.9 -6.9 -3.15 -8.5 -6.8 -9.95 -9.0 -12.25 L-9.75 -13.0 -11.55 -15.15 Q-14.35 -18.35 -13.55 -22.1 L-13.4 -22.8 -13.0 -24.25 -14.0 -24.7 Q-14.8 -25.0 -14.65 -25.7 L-14.2 -26.9 -14.75 -27.3 Q-15.2 -27.3 -15.4 -27.6 -16.2 -29.1 -14.55 -30.15 -15.7 -30.45 -16.55 -31.0 -17.6 -31.6 -16.7 -32.85 -15.3 -34.75 -13.1 -35.6 -9.25 -37.2 -5.1 -37.85 L-3.1 -39.3 Q-1.95 -41.4 -3.45 -42.45 -4.4 -43.05 -5.65 -43.2 L-10.2 -43.55 M18.9 -32.05 Q18.0 -31.35 16.2 -31.4 L18.35 -26.9 20.3 -27.9 M15.85 -37.75 Q15.6 -36.6 15.65 -35.3 15.65 -33.4 16.2 -31.4 M18.35 -26.9 L19.4 -24.1 19.5 -23.55 M8.95 -6.6 Q9.15 -8.9 9.8 -11.05 L9.9 -11.45 M-3.15 -8.5 L-2.8 -8.35 Q-0.35 -7.45 2.0 -6.1 2.4 -5.95 2.3 -5.15 2.0 -3.45 1.35 -2.4 1.15 -2.15 0.8 -2.05 L0.05 -1.7 M-5.1 -37.85 Q-7.55 -35.85 -8.95 -33.2 -10.85 -29.8 -12.3 -26.2 L-13.0 -24.25 M-11.85 -18.7 L-10.65 -19.65 -11.55 -20.85 M-10.65 -19.65 L-9.1 -20.6 M-10.65 -19.65 L-9.15 -18.1" fill="none" stroke="#000000" stroke-linecap="round" stroke-linejoin="round" stroke-width="0.05"/>
  </g>
</svg>
