<?xml version="1.0" encoding="UTF-8" standalone="no"?>
<!DOCTYPE svg PUBLIC "-//W3C//DTD SVG 1.1//EN" "http://www.w3.org/Graphics/SVG/1.1/DTD/svg11.dtd">
<svg width="53px" height="62px" version="1.1" xmlns="http://www.w3.org/2000/svg" xmlns:xlink="http://www.w3.org/1999/xlink" xml:space="preserve" xmlns:serif="http://www.serif.com/" style="fill-rule:evenodd;clip-rule:evenodd;stroke-linejoin:round;stroke-miterlimit:2;">
    <g transform="matrix(0.61987,0,0,0.61987,-41.6857,-73.5222)">
        <path d="M117.799,120.815C126.874,121.687 141.581,129.478 145.404,136.273L142.603,136.273C142.263,136.273 141.955,136.476 141.821,136.789C141.687,137.101 141.752,137.464 141.987,137.71C144.109,139.963 146.173,142.427 148.163,145.16C156.678,155.079 148.39,168.399 139.89,171.973C144.368,178.433 144.62,184.893 139.89,191.353C136.832,195.514 132.155,199.101 124.794,201.111L124.567,201.111C126.367,211.168 109.004,228.787 108.601,208.819L108.673,201.166C106.365,201.368 104.204,201.274 102.079,201.111C103.278,207.809 95.976,217.861 90.846,217.93L90.801,217.931C88.249,217.935 86.246,215.448 86.113,208.819L86.203,199.321L86.104,199.277C81.931,197.447 78.755,194.839 75.849,192.023L69.193,192.023L69.193,170.636L76.269,170.636C68.048,161.675 64.668,153.58 71.286,145.16C71.286,145.16 75.461,140.173 77.556,137.67C77.768,137.417 77.814,137.063 77.674,136.764C77.534,136.464 77.233,136.273 76.903,136.273L67.785,136.273C70.674,127.002 89.196,121.229 95.418,120.815L117.799,120.815Z" style="fill:white;"/>
    </g>
    <g transform="matrix(0.61987,0,0,0.61987,-41.6857,-73.5222)">
        <path d="M122.096,209.516L122.029,209.491C121.756,209.386 121.484,209.396 121.211,209.524C120.945,209.648 120.754,209.853 120.64,210.142C120.64,210.143 120.64,210.143 120.639,210.144C119.85,212.186 118.887,213.74 117.742,214.798C116.633,215.823 115.425,216.342 114.113,216.342C113.362,216.342 112.756,216.261 112.296,216.092C111.86,215.931 111.476,215.627 111.139,215.185C110.786,214.724 110.543,214.065 110.395,213.212C110.24,212.313 110.163,211.155 110.163,209.74C110.163,207.095 110.231,203.912 110.369,200.19C110.386,199.897 110.292,199.633 110.08,199.402C109.873,199.177 109.636,199.058 109.373,199.034L109.213,199.01C108.91,198.988 108.646,199.093 108.424,199.335C108.223,199.554 108.113,199.813 108.095,200.112C108.095,200.114 108.094,200.117 108.094,200.119C107.957,203.911 107.888,207.118 107.888,209.74C107.888,213.077 108.35,215.375 109.232,216.644C110.14,217.95 111.76,218.63 114.113,218.63C115.962,218.63 117.625,217.973 119.101,216.653C120.548,215.36 121.747,213.461 122.688,210.95C122.688,210.948 122.689,210.947 122.69,210.945C122.782,210.683 122.78,210.41 122.679,210.128C122.57,209.826 122.373,209.624 122.096,209.516ZM99.381,209.516L99.314,209.491C99.041,209.386 98.768,209.396 98.496,209.524C98.23,209.648 98.039,209.853 97.925,210.142C97.925,210.143 97.925,210.143 97.924,210.144C97.134,212.186 96.172,213.74 95.027,214.798C93.917,215.823 92.709,216.342 91.398,216.342C90.647,216.342 90.041,216.261 89.581,216.092C89.145,215.931 88.761,215.627 88.424,215.185C88.071,214.724 87.828,214.065 87.68,213.212C87.525,212.313 87.448,211.155 87.448,209.74C87.448,207.095 87.516,203.912 87.653,200.19C87.671,199.897 87.577,199.633 87.365,199.402C87.158,199.177 86.921,199.058 86.658,199.034L86.498,199.01C86.195,198.988 85.931,199.093 85.709,199.335C85.508,199.554 85.398,199.813 85.38,200.112C85.38,200.114 85.379,200.117 85.379,200.119C85.242,203.911 85.173,207.118 85.173,209.74C85.173,213.077 85.635,215.375 86.517,216.644C87.425,217.95 89.045,218.63 91.398,218.63C93.247,218.63 94.91,217.973 96.386,216.653C97.833,215.36 99.032,213.461 99.973,210.95C99.973,210.948 99.974,210.947 99.975,210.945C100.067,210.683 100.065,210.41 99.964,210.128C99.855,209.826 99.658,209.624 99.381,209.516ZM100.968,201.111L100.968,204.947C100.968,205.56 101.465,206.058 102.079,206.058C102.692,206.058 103.19,205.56 103.19,204.947L103.19,201.111C103.19,200.497 102.692,200 102.079,200C101.465,200 100.968,200.497 100.968,201.111ZM123.683,201.111L123.683,204.947C123.683,205.56 124.181,206.058 124.794,206.058C125.407,206.058 125.905,205.56 125.905,204.947L125.905,201.111C125.905,200.497 125.407,200 124.794,200C124.181,200 123.683,200.497 123.683,201.111ZM86.919,199.438C86.927,199.412 86.931,199.385 86.933,199.357C86.939,199.197 86.824,199.059 86.668,199.035C86.868,199.068 86.852,199.229 86.788,199.379C86.833,199.394 86.876,199.414 86.919,199.438ZM109.634,199.438C109.642,199.412 109.647,199.385 109.648,199.357C109.654,199.197 109.539,199.059 109.383,199.035C109.583,199.068 109.567,199.229 109.503,199.379C109.548,199.394 109.591,199.414 109.634,199.438ZM138.977,172.606C143.157,178.636 143.409,184.666 138.993,190.697C138.631,191.191 138.739,191.887 139.233,192.25C139.728,192.612 140.424,192.504 140.786,192.009C145.831,185.12 145.579,178.23 140.803,171.34C140.453,170.836 139.761,170.71 139.257,171.06C138.753,171.409 138.627,172.102 138.977,172.606ZM82.25,171.34C77.474,178.23 77.222,185.12 82.267,192.009C82.629,192.504 83.325,192.612 83.82,192.25C84.314,191.887 84.422,191.191 84.06,190.697C79.644,184.666 79.896,178.636 84.076,172.606C84.426,172.102 84.3,171.409 83.796,171.06C83.292,170.71 82.599,170.836 82.25,171.34ZM70.079,192.301L75.878,192.301C76.167,192.301 76.364,192.179 76.479,191.956C76.546,191.827 76.561,191.702 76.536,191.584C76.513,191.476 76.454,191.368 76.347,191.27C74.923,189.919 73.821,188.377 73.042,186.643C72.265,184.913 71.876,183.146 71.876,181.341C71.876,179.537 72.265,177.769 73.042,176.04C73.821,174.306 74.923,172.763 76.347,171.412C76.454,171.314 76.513,171.206 76.536,171.094C76.561,170.977 76.547,170.852 76.482,170.721C76.366,170.484 76.168,170.359 75.878,170.359L70.079,170.359C69.749,170.359 69.475,170.467 69.255,170.676C69.028,170.892 68.915,171.154 68.915,171.462L68.915,191.197C68.915,191.527 69.032,191.794 69.26,192C69.479,192.198 69.751,192.301 70.079,192.301ZM127.353,190.112C127.134,190.116 126.935,190.015 126.769,189.788C126.619,189.584 126.555,189.349 126.578,189.084L126.982,185.655L125.443,185.696C125.228,185.702 125.033,185.619 124.862,185.437C124.705,185.269 124.618,185.049 124.61,184.772C124.603,184.497 124.674,184.273 124.814,184.099C124.967,183.908 125.161,183.812 125.393,183.805L127.193,183.758L127.775,178.628L126.202,178.67C125.97,178.676 125.772,178.59 125.609,178.407C125.46,178.24 125.377,178.021 125.37,177.746C125.362,177.471 125.434,177.247 125.574,177.073C125.727,176.882 125.92,176.786 126.153,176.779L128.003,176.731L128.354,173.7C128.39,173.429 128.497,173.197 128.672,173.003C128.863,172.792 129.079,172.689 129.314,172.683L129.315,172.686L129.315,172.683L129.351,172.682C129.572,172.676 129.772,172.777 129.94,173.006C130.089,173.21 130.154,173.445 130.131,173.71L129.787,176.684L133.087,176.596L133.437,173.566C133.473,173.296 133.576,173.065 133.743,172.872C133.927,172.661 134.146,172.555 134.398,172.549L134.399,172.552L134.399,172.549L134.434,172.548C134.67,172.542 134.877,172.648 135.044,172.886C135.195,173.102 135.251,173.335 135.213,173.585L134.87,176.549L136.355,176.51C136.57,176.505 136.766,176.587 136.936,176.769C137.094,176.937 137.181,177.157 137.188,177.434C137.195,177.711 137.12,177.936 136.971,178.112C136.811,178.302 136.62,178.395 136.405,178.401L134.66,178.447L134.077,183.576L135.596,183.536C135.828,183.53 136.027,183.616 136.189,183.799C136.338,183.966 136.422,184.185 136.429,184.46C136.436,184.735 136.365,184.959 136.225,185.133C136.072,185.324 135.878,185.421 135.646,185.427L133.831,185.475L133.438,188.959C133.402,189.23 133.299,189.461 133.132,189.654C132.947,189.866 132.733,189.97 132.496,189.976L132.436,189.978L132.434,189.769L132.433,189.769L132.436,189.978C132.217,189.982 132.018,189.881 131.852,189.654C131.703,189.45 131.638,189.215 131.662,188.949L132.066,185.521L128.766,185.608L128.355,189.094C128.319,189.365 128.212,189.597 128.037,189.791C127.846,190.002 127.63,190.105 127.394,190.111L127.353,190.112ZM132.441,189.978L132.436,189.978L132.441,189.978ZM132.488,189.768L132.487,189.768L132.49,189.977L132.488,189.768ZM98.666,177.212L106.36,177.212C109.15,177.212 111.456,179.242 111.456,181.806L111.456,181.808C111.456,184.19 109.311,186.072 106.719,186.072L98.666,186.072C98.053,186.072 97.555,186.57 97.555,187.183C97.555,187.797 98.053,188.294 98.666,188.294L106.719,188.294C110.587,188.294 113.678,185.363 113.678,181.808L113.678,181.806C113.678,178.068 110.426,174.989 106.36,174.989L98.666,174.989C98.053,174.989 97.555,175.487 97.555,176.1C97.555,176.714 98.053,177.212 98.666,177.212ZM129.577,178.581L128.977,183.711L132.276,183.624L132.876,178.494L129.577,178.581ZM147.25,145.793C151.43,151.823 151.682,157.853 147.266,163.883C146.904,164.378 147.012,165.074 147.506,165.436C148.001,165.799 148.697,165.691 149.059,165.196C154.104,158.306 153.852,151.416 149.076,144.527C148.727,144.023 148.034,143.897 147.53,144.246C147.026,144.596 146.9,145.289 147.25,145.793ZM70.924,144.527C66.148,151.416 65.896,158.306 70.941,165.196C71.303,165.691 71.999,165.799 72.494,165.436C72.988,165.074 73.096,164.378 72.734,163.883C68.318,157.853 68.57,151.823 72.75,145.793C73.1,145.289 72.974,144.596 72.47,144.246C71.966,143.897 71.273,144.023 70.924,144.527ZM102.26,151.187L93.891,151.187L92.288,147.981C91.976,147.357 91.215,147.103 90.591,147.415C89.967,147.728 89.713,148.488 90.025,149.112L96.945,162.951C97.006,163.074 97.085,163.183 97.176,163.275L97.186,163.285C97.278,163.376 97.387,163.455 97.51,163.516C97.692,163.607 97.886,163.65 98.076,163.65C98.266,163.65 98.46,163.607 98.642,163.516C98.764,163.455 98.873,163.376 98.966,163.285L98.975,163.275C99.067,163.183 99.146,163.074 99.207,162.951L106.126,149.112C106.439,148.488 106.185,147.728 105.561,147.415C104.936,147.103 104.176,147.357 103.864,147.981L102.26,151.187ZM130.064,161.919L130.064,154.225C130.064,151.435 132.094,149.129 134.659,149.129L134.66,149.129C137.043,149.129 138.925,151.274 138.925,153.866L138.925,161.919C138.925,162.532 139.423,163.03 140.036,163.03C140.649,163.03 141.147,162.532 141.147,161.919L141.147,153.866C141.147,149.998 138.216,146.907 134.66,146.907L134.659,146.907C130.921,146.907 127.842,150.158 127.842,154.225L127.842,161.919C127.842,162.532 128.34,163.03 128.953,163.03C129.566,163.03 130.064,162.532 130.064,161.919ZM95.156,153.717L100.996,153.717L98.076,159.557L95.156,153.717ZM79.796,152.515C80.933,152.515 81.857,153.439 81.857,154.576C81.857,155.713 80.933,156.637 79.796,156.637C78.659,156.637 77.736,155.713 77.736,154.576C77.736,153.439 78.659,152.515 79.796,152.515ZM116.69,152.515C117.828,152.515 118.751,153.439 118.751,154.576C118.751,155.713 117.828,156.637 116.69,156.637C115.553,156.637 114.63,155.713 114.63,154.576C114.63,153.439 115.553,152.515 116.69,152.515ZM78.577,132.437L78.577,136.273C78.577,136.886 79.075,137.384 79.688,137.384C80.302,137.384 80.8,136.886 80.8,136.273L80.8,132.437C80.8,131.824 80.302,131.326 79.688,131.326C79.075,131.326 78.577,131.824 78.577,132.437ZM131.398,132.437L131.398,136.273C131.398,136.886 131.896,137.384 132.509,137.384C133.122,137.384 133.62,136.886 133.62,136.273L133.62,132.437C133.62,131.824 133.122,131.326 132.509,131.326C131.896,131.326 131.398,131.824 131.398,132.437ZM136.631,132.437L136.631,136.273C136.631,136.886 137.129,137.384 137.742,137.384C138.355,137.384 138.853,136.886 138.853,136.273L138.853,132.437C138.853,131.824 138.355,131.326 137.742,131.326C137.129,131.326 136.631,131.824 136.631,132.437ZM73.102,132.437L73.102,136.273C73.102,136.886 73.6,137.384 74.213,137.384C74.826,137.384 75.324,136.886 75.324,136.273L75.324,132.437C75.324,131.824 74.826,131.326 74.213,131.326C73.6,131.326 73.102,131.824 73.102,132.437ZM67.626,132.437L67.626,136.273C67.626,136.886 68.124,137.384 68.737,137.384C69.35,137.384 69.848,136.886 69.848,136.273L69.848,132.437C69.848,131.824 69.35,131.326 68.737,131.326C68.124,131.326 67.626,131.824 67.626,132.437ZM141.128,133.114L144.223,136.754C144.597,137.194 145.256,137.247 145.696,136.873C146.135,136.5 146.188,135.84 145.815,135.401L142.72,131.76C142.346,131.321 141.686,131.268 141.247,131.641C140.808,132.015 140.754,132.675 141.128,133.114ZM110.849,133.271L118.543,133.271C122.609,133.271 125.861,130.192 125.861,126.454L125.861,126.453C125.861,122.897 122.77,119.966 118.902,119.966L110.849,119.966C110.236,119.966 109.738,120.464 109.738,121.077C109.738,121.69 110.236,122.188 110.849,122.188L118.902,122.188C121.493,122.188 123.639,124.07 123.639,126.453L123.639,126.454C123.639,129.019 121.333,131.049 118.543,131.049L110.849,131.049C110.236,131.049 109.738,131.547 109.738,132.16C109.738,132.773 110.236,133.271 110.849,133.271ZM100.159,131.049L92.465,131.049C89.676,131.049 87.37,129.019 87.37,126.454L87.37,126.453C87.37,124.07 89.515,122.188 92.106,122.188L100.159,122.188C100.773,122.188 101.271,121.69 101.271,121.077C101.271,120.464 100.773,119.966 100.159,119.966L92.106,119.966C88.238,119.966 85.148,122.897 85.148,126.453L85.148,126.454C85.148,130.192 88.399,133.271 92.465,133.271L100.159,133.271C100.773,133.271 101.271,132.773 101.271,132.16C101.271,131.547 100.773,131.049 100.159,131.049ZM132.509,124.112C133.203,124.112 133.766,124.675 133.766,125.369C133.766,126.063 133.203,126.626 132.509,126.626C131.815,126.626 131.252,126.063 131.252,125.369C131.252,124.675 131.815,124.112 132.509,124.112ZM79.688,124.112C80.382,124.112 80.946,124.675 80.946,125.369C80.946,126.063 80.382,126.626 79.688,126.626C78.995,126.626 78.431,126.063 78.431,125.369C78.431,124.675 78.995,124.112 79.688,124.112Z" style="fill-rule:nonzero;"/>
    </g>
</svg>
