<?xml version="1.0" encoding="UTF-8" standalone="no"?>
<svg xmlns:xlink="http://www.w3.org/1999/xlink" height="48.35px" width="53.85px" xmlns="http://www.w3.org/2000/svg">
  <g transform="matrix(1.0, 0.0, 0.0, 1.0, 26.9, 24.15)">
    <path d="M1.45 -1.5 L-8.5 -0.95 -13.5 -5.75 Q-16.8 -8.95 -26.4 -8.8 -18.6 -15.95 -10.8 -19.2 -3.65 -22.2 4.0 -20.45 4.9 -21.65 5.45 -23.65 L5.65 -20.0 7.5 -19.4 Q17.25 -15.8 22.2 -8.45 27.4 -0.55 26.25 8.7 20.7 -0.35 13.2 5.35 L11.25 6.65 Q10.05 4.85 6.05 0.85 L3.65 -0.85 1.45 -1.5 M-0.35 13.75 L1.15 14.3 Q-3.05 26.85 -9.3 22.6 -15.6 18.3 -11.95 16.25 -5.1 22.0 -3.75 12.25 L-2.2 12.95 -0.35 13.75 M5.7 -19.25 L5.65 -20.0 5.7 -19.25 M2.7 -9.9 L2.8 -10.6 2.95 -11.4 2.8 -10.6 2.7 -9.9 M0.8 -9.8 L0.85 -11.9 0.8 -9.8 M4.2 -6.9 Q2.7 -2.2 0.65 -6.2 -1.6 -3.7 -1.55 -7.4 -1.6 -3.7 0.65 -6.2 2.7 -2.2 4.2 -6.9 M11.25 6.65 Q11.5 0.55 10.15 -4.9 8.75 -10.4 5.95 -18.15 8.75 -10.4 10.15 -4.9 11.5 0.55 11.25 6.65 M-8.5 -0.95 L-6.3 -5.15 Q-2.3 -13.65 4.9 -19.6 -2.3 -13.65 -6.3 -5.15 L-8.5 -0.95 M5.65 -20.0 L4.0 -20.45 3.3 -19.65 4.0 -20.45 5.65 -20.0" fill="#e2d5c0" fill-rule="evenodd" stroke="none"/>
    <path d="M3.65 -0.85 Q2.2 5.8 -0.35 13.75 L-2.2 12.95 Q-0.8 6.55 1.45 -1.5 L3.65 -0.85" fill="#cccccc" fill-rule="evenodd" stroke="none"/>
    <path d="M1.45 -1.5 L-8.5 -0.95 -13.5 -5.75 Q-16.8 -8.95 -26.4 -8.8 -18.6 -15.95 -10.8 -19.2 -3.65 -22.2 4.0 -20.45 4.9 -21.65 5.45 -23.65 L5.65 -20.0 7.5 -19.4 Q17.25 -15.8 22.2 -8.45 27.4 -0.55 26.25 8.7 20.7 -0.35 13.2 5.35 L11.25 6.65 Q10.05 4.85 6.05 0.85 L3.65 -0.85 Q2.2 5.8 -0.35 13.75 L1.15 14.3 Q-3.05 26.85 -9.3 22.6 -15.6 18.3 -11.95 16.25 -5.1 22.0 -3.75 12.25 L-2.2 12.95 Q-0.8 6.55 1.45 -1.5 L3.65 -0.85 M5.65 -20.0 L5.7 -19.25 M0.85 -11.9 L0.8 -9.8 M4.9 -19.6 Q-2.3 -13.65 -6.3 -5.15 L-8.5 -0.95 M5.95 -18.15 Q8.75 -10.4 10.15 -4.9 11.5 0.55 11.25 6.65 M-2.2 12.95 L-0.35 13.75 M3.3 -19.65 L4.0 -20.45 5.65 -20.0" fill="none" stroke="#8f7c3f" stroke-linecap="round" stroke-linejoin="round" stroke-width="1.0"/>
    <path d="M2.95 -11.4 L2.8 -10.6 2.7 -9.9 M-1.55 -7.4 Q-1.6 -3.7 0.65 -6.2 2.7 -2.2 4.2 -6.9" fill="none" stroke="#8f7c3f" stroke-linecap="round" stroke-linejoin="round" stroke-width="1.0"/>
  </g>
</svg>
