<?xml version="1.0" encoding="UTF-8" standalone="no"?>
<!DOCTYPE svg PUBLIC "-//W3C//DTD SVG 1.1//EN" "http://www.w3.org/Graphics/SVG/1.1/DTD/svg11.dtd">
<svg width="54px" height="34px" version="1.1" xmlns="http://www.w3.org/2000/svg" xmlns:xlink="http://www.w3.org/1999/xlink" xml:space="preserve" xmlns:serif="http://www.serif.com/" style="fill-rule:evenodd;clip-rule:evenodd;stroke-linejoin:round;stroke-miterlimit:2;">
    <g transform="matrix(-0.511764,0.0414196,0.0331356,0.409411,105.566,0.665056)">
        <path d="M202.319,41.728C207.284,31.635 206.86,22.087 200.959,13.093C195.898,5.844 190.236,2.324 184.949,0.511L188.254,-5.228C193.598,-7.356 200.433,-9.846 203.863,-18.141C203.863,-18.141 145.947,-12.282 130.502,-10.719C127.679,-10.434 124.941,-9.378 122.481,-7.625C118.506,-4.812 115.462,-1.795 113.504,1.468L110.199,7.207C108.191,10.75 106.792,15.11 107.668,22.531C103.001,32.594 103.321,42.152 109.519,51.116C117.109,58.455 129.322,59.771 142.269,60.131C142.269,60.131 144.14,62.455 145.659,64.342C146.13,64.927 146.785,65.218 147.446,65.137C148.107,65.055 148.704,64.61 149.075,63.921C150.168,61.89 151.457,59.495 151.457,59.495L176.847,56.926C185.599,55.891 194.148,51.733 202.319,41.728Z" style="fill:white;"/>
    </g>
    <g transform="matrix(0.60782,0,0,0.60782,-39.8876,-99.0995)">
        <path d="M121.377,213.617L118.282,217.257C117.908,217.697 117.961,218.356 118.401,218.73C118.84,219.103 119.5,219.05 119.873,218.611L122.969,214.97C123.342,214.531 123.289,213.871 122.849,213.498C122.41,213.124 121.75,213.178 121.377,213.617ZM105.621,215.452L105.639,215.48C105.681,215.547 105.728,215.597 105.776,215.634C105.972,215.806 106.198,215.869 106.448,215.836C106.695,215.803 106.912,215.681 107.083,215.442C107.084,215.44 107.085,215.439 107.087,215.437C107.503,214.84 107.962,214.508 108.506,214.508C108.942,214.508 109.352,214.796 109.783,215.296L109.784,215.297C110.588,216.226 111.482,216.669 112.442,216.669C113.64,216.679 114.637,216.114 115.409,214.933C115.414,214.926 115.418,214.918 115.423,214.911C115.541,214.71 115.596,214.481 115.576,214.222C115.555,213.949 115.455,213.727 115.29,213.55L115.319,213.584L115.227,213.485C115.019,213.27 114.771,213.187 114.488,213.223C114.233,213.255 114.01,213.383 113.839,213.64C113.61,213.967 113.381,214.208 113.143,214.351C112.933,214.476 112.7,214.537 112.444,214.537L112.435,214.537C112.002,214.544 111.595,214.26 111.167,213.763C111.167,213.762 111.166,213.762 111.166,213.762C110.362,212.832 109.468,212.39 108.508,212.39C107.31,212.38 106.312,212.945 105.541,214.126C105.54,214.127 105.539,214.128 105.538,214.129C105.415,214.322 105.353,214.552 105.374,214.823C105.393,215.074 105.479,215.282 105.621,215.452ZM93.202,215.452L93.22,215.48C93.262,215.547 93.31,215.597 93.358,215.634C93.554,215.806 93.78,215.869 94.03,215.836C94.277,215.803 94.494,215.681 94.664,215.442C94.666,215.44 94.667,215.439 94.668,215.437C95.084,214.84 95.543,214.508 96.088,214.508C96.523,214.508 96.934,214.796 97.364,215.296C97.365,215.296 97.365,215.297 97.365,215.297C98.17,216.226 99.063,216.669 100.023,216.669C101.222,216.679 102.219,216.114 102.991,214.933C102.995,214.926 103,214.918 103.004,214.911C103.123,214.71 103.177,214.481 103.158,214.222C103.137,213.949 103.037,213.727 102.872,213.55L102.901,213.584L102.808,213.485C102.6,213.27 102.353,213.187 102.07,213.223C101.815,213.255 101.591,213.383 101.42,213.64C101.191,213.967 100.963,214.208 100.724,214.351C100.515,214.476 100.282,214.537 100.025,214.537L100.017,214.537C99.584,214.544 99.176,214.26 98.749,213.763C98.748,213.762 98.748,213.762 98.747,213.762C97.943,212.832 97.05,212.39 96.09,212.39C94.891,212.38 93.894,212.945 93.122,214.126C93.122,214.127 93.121,214.128 93.12,214.129C92.996,214.322 92.935,214.552 92.955,214.823C92.974,215.074 93.06,215.282 93.202,215.452ZM133.809,196.458C133.058,197.068 132.651,198.258 132.651,200.053L132.651,205.162C132.651,205.452 132.602,205.674 132.478,205.819C132.365,205.95 132.192,206.002 131.967,206.002L131.306,206.002C131.079,206.002 130.899,206.075 130.763,206.206C130.591,206.372 130.481,206.656 130.481,207.071C130.481,207.482 130.591,207.763 130.765,207.927C130.901,208.057 131.079,208.129 131.306,208.129L132.223,208.129C132.808,208.129 133.273,207.961 133.624,207.641C134.123,207.185 134.397,206.395 134.397,205.255L134.397,200.053C134.397,199.439 134.466,198.927 134.61,198.517C134.802,197.992 135.071,197.678 135.46,197.615C135.754,197.567 135.97,197.434 136.117,197.229C136.251,197.042 136.328,196.786 136.328,196.456C136.328,196.047 136.213,195.752 136.016,195.56C135.875,195.422 135.69,195.331 135.456,195.297L135.452,195.297C135.176,195.26 134.958,195.068 134.775,194.747L134.774,194.747C134.517,194.299 134.397,193.669 134.397,192.86L134.397,187.658C134.397,186.518 134.123,185.728 133.624,185.272C133.273,184.952 132.808,184.784 132.223,184.784L131.306,184.784C131.079,184.784 130.899,184.857 130.763,184.989C130.591,185.155 130.481,185.438 130.481,185.854C130.481,186.265 130.591,186.545 130.765,186.71C130.901,186.839 131.079,186.911 131.306,186.911L131.967,186.911C132.191,186.911 132.365,186.964 132.477,187.096C132.602,187.243 132.651,187.468 132.651,187.762L132.651,192.86C132.651,194.662 133.059,195.852 133.809,196.458ZM138.476,204.092C138.772,204.413 138.963,204.717 138.967,205.038C138.971,205.346 138.793,205.636 138.492,205.945C138.17,206.274 138.177,206.802 138.506,207.123C138.835,207.444 139.363,207.438 139.684,207.109C140.36,206.417 140.643,205.708 140.634,205.016C140.625,204.336 140.328,203.641 139.7,202.961C139.388,202.623 138.86,202.603 138.522,202.915C138.185,203.227 138.164,203.755 138.476,204.092ZM144.223,204.092C144.52,204.413 144.711,204.717 144.715,205.038C144.719,205.346 144.54,205.636 144.239,205.945C143.918,206.274 143.924,206.802 144.253,207.123C144.582,207.444 145.11,207.438 145.432,207.109C146.107,206.417 146.39,205.708 146.381,205.016C146.372,204.336 146.075,203.641 145.447,202.961C145.135,202.623 144.607,202.603 144.27,202.915C143.932,203.227 143.911,203.755 144.223,204.092ZM148.965,187.281C153.145,193.311 153.397,199.341 148.982,205.372C148.619,205.866 148.727,206.562 149.222,206.925C149.716,207.287 150.412,207.179 150.775,206.684C155.819,199.795 155.567,192.905 150.791,186.015C150.442,185.511 149.749,185.385 149.245,185.735C148.741,186.084 148.616,186.777 148.965,187.281ZM70.319,186.015C65.542,192.905 65.291,199.795 70.335,206.684C70.697,207.179 71.393,207.287 71.888,206.925C72.383,206.562 72.49,205.866 72.128,205.372C67.713,199.341 67.965,193.311 72.145,187.281C72.494,186.777 72.369,186.084 71.865,185.735C71.361,185.385 70.668,185.511 70.319,186.015ZM90.286,189.383L97.856,204.524C98.045,204.9 98.429,205.138 98.85,205.138C99.271,205.138 99.656,204.9 99.844,204.524L107.414,189.383C107.689,188.835 107.466,188.167 106.917,187.892C106.369,187.618 105.701,187.841 105.427,188.389L103.597,192.048L94.103,192.048L92.274,188.389C91.999,187.84 91.332,187.618 90.783,187.892C90.234,188.167 90.012,188.834 90.286,189.383ZM102.486,194.27L95.214,194.27L98.85,201.542L102.486,194.27ZM117.085,194.003C118.222,194.003 119.146,194.927 119.146,196.064C119.146,197.201 118.222,198.125 117.085,198.125C115.948,198.125 115.024,197.201 115.024,196.064C115.024,194.927 115.948,194.003 117.085,194.003ZM79.191,194.003C80.328,194.003 81.251,194.927 81.251,196.064C81.251,197.201 80.328,198.125 79.191,198.125C78.053,198.125 77.13,197.201 77.13,196.064C77.13,194.927 78.053,194.003 79.191,194.003ZM144.835,193.161C145.529,193.161 146.093,193.725 146.093,194.418C146.093,195.112 145.529,195.676 144.835,195.676C144.142,195.676 143.578,195.112 143.578,194.418C143.578,193.725 144.142,193.161 144.835,193.161ZM139.088,193.161C139.782,193.161 140.345,193.725 140.345,194.418C140.345,195.112 139.782,195.676 139.088,195.676C138.394,195.676 137.831,195.112 137.831,194.418C137.831,193.725 138.394,193.161 139.088,193.161ZM135.873,174.1L135.873,177.936C135.873,178.549 136.371,179.047 136.984,179.047C137.597,179.047 138.095,178.549 138.095,177.936L138.095,174.1C138.095,173.487 137.597,172.989 136.984,172.989C136.371,172.989 135.873,173.487 135.873,174.1ZM130.397,174.1L130.397,177.936C130.397,178.549 130.895,179.047 131.508,179.047C132.122,179.047 132.619,178.549 132.619,177.936L132.619,174.1C132.619,173.487 132.122,172.989 131.508,172.989C130.895,172.989 130.397,173.487 130.397,174.1ZM111.221,174.1L111.221,177.936C111.221,178.549 111.719,179.047 112.332,179.047C112.945,179.047 113.443,178.549 113.443,177.936L113.443,174.1C113.443,173.487 112.945,172.989 112.332,172.989C111.719,172.989 111.221,173.487 111.221,174.1ZM124.922,174.1L124.922,177.936C124.922,178.549 125.419,179.047 126.033,179.047C126.646,179.047 127.144,178.549 127.144,177.936L127.144,174.1C127.144,173.487 126.646,172.989 126.033,172.989C125.419,172.989 124.922,173.487 124.922,174.1ZM105.745,174.1L105.745,177.936C105.745,178.549 106.243,179.047 106.856,179.047C107.469,179.047 107.967,178.549 107.967,177.936L107.967,174.1C107.967,173.487 107.469,172.989 106.856,172.989C106.243,172.989 105.745,173.487 105.745,174.1ZM89.318,174.1L89.318,177.936C89.318,178.549 89.816,179.047 90.429,179.047C91.043,179.047 91.541,178.549 91.541,177.936L91.541,174.1C91.541,173.487 91.043,172.989 90.429,172.989C89.816,172.989 89.318,173.487 89.318,174.1ZM100.27,174.1L100.27,177.936C100.27,178.549 100.767,179.047 101.381,179.047C101.994,179.047 102.492,178.549 102.492,177.936L102.492,174.1C102.492,173.487 101.994,172.989 101.381,172.989C100.767,172.989 100.27,173.487 100.27,174.1ZM94.794,174.1L94.794,177.936C94.794,178.549 95.292,179.047 95.905,179.047C96.518,179.047 97.016,178.549 97.016,177.936L97.016,174.1C97.016,173.487 96.518,172.989 95.905,172.989C95.292,172.989 94.794,173.487 94.794,174.1ZM116.734,174.118L119.829,177.759C120.203,178.198 120.862,178.251 121.302,177.878C121.741,177.504 121.794,176.845 121.421,176.405L118.326,172.765C117.952,172.326 117.292,172.272 116.853,172.646C116.414,173.019 116.36,173.679 116.734,174.118ZM79.719,174.118L82.814,177.759C83.187,178.198 83.847,178.251 84.286,177.878C84.726,177.504 84.779,176.845 84.406,176.405L81.31,172.765C80.937,172.326 80.277,172.272 79.838,172.646C79.399,173.019 79.345,173.679 79.719,174.118ZM143.021,173.534L146.116,177.175C146.489,177.614 147.149,177.668 147.588,177.294C148.028,176.921 148.081,176.261 147.708,175.822L144.612,172.181C144.239,171.742 143.579,171.688 143.14,172.062C142.701,172.435 142.647,173.095 143.021,173.534ZM66.668,167.842L77.795,167.842C78.372,167.842 78.84,167.374 78.84,166.797C78.84,166.221 78.372,165.753 77.795,165.753L66.668,165.753C66.092,165.753 65.624,166.221 65.624,166.797C65.624,167.374 66.092,167.842 66.668,167.842ZM102.053,164.283C102.747,164.283 103.311,164.846 103.311,165.54C103.311,166.234 102.747,166.797 102.053,166.797C101.359,166.797 100.796,166.234 100.796,165.54C100.796,164.846 101.359,164.283 102.053,164.283ZM106.801,164.283C107.495,164.283 108.058,164.846 108.058,165.54C108.058,166.234 107.495,166.797 106.801,166.797C106.107,166.797 105.544,166.234 105.544,165.54C105.544,164.846 106.107,164.283 106.801,164.283ZM126.522,164.283C127.216,164.283 127.78,164.846 127.78,165.54C127.78,166.234 127.216,166.797 126.522,166.797C125.829,166.797 125.265,166.234 125.265,165.54C125.265,164.846 125.829,164.283 126.522,164.283ZM112.295,164.283C112.989,164.283 113.552,164.846 113.552,165.54C113.552,166.234 112.989,166.797 112.295,166.797C111.601,166.797 111.037,166.234 111.037,165.54C111.037,164.846 111.601,164.283 112.295,164.283ZM132.016,164.283C132.71,164.283 133.273,164.846 133.273,165.54C133.273,166.234 132.71,166.797 132.016,166.797C131.322,166.797 130.759,166.234 130.759,165.54C130.759,164.846 131.322,164.283 132.016,164.283Z" style="fill-opacity:0.9;"/>
    </g>
</svg>
