<?xml version="1.0" encoding="UTF-8" standalone="no"?>
<!DOCTYPE svg PUBLIC "-//W3C//DTD SVG 1.1//EN" "http://www.w3.org/Graphics/SVG/1.1/DTD/svg11.dtd">
<svg width="69px" height="122px" version="1.1" xmlns="http://www.w3.org/2000/svg" xmlns:xlink="http://www.w3.org/1999/xlink" xml:space="preserve" xmlns:serif="http://www.serif.com/" style="fill-rule:evenodd;clip-rule:evenodd;stroke-linejoin:round;stroke-miterlimit:2;">
    <g transform="matrix(3.6068e-17,0.447648,0.518341,-2.30818e-17,-44.5287,51.9677)">
        <path d="M80.415,202.008C78.678,206.835 75.067,210.387 78.249,214.008C78.95,214.806 79.785,215.369 80.674,215.761C82.505,216.556 84.638,216.654 86.556,216.029C88.474,215.404 90.002,214.115 90.769,212.473C91.248,211.313 91.694,210.025 91.833,208.429C91.833,208.429 93.242,200.137 94.228,194.33C94.755,191.23 97.945,188.995 101.567,189.189C113.426,189.743 126.314,189.278 140.201,187.825L148.977,187.825C152.497,187.825 155.35,185.56 155.35,182.766L155.35,182.764C155.35,179.799 152.322,177.394 148.586,177.394L138.568,177.394C140.26,171.367 140.125,165.537 138.568,159.86L148.977,159.86C152.497,159.86 155.35,157.595 155.35,154.801L155.35,154.799C155.35,151.833 152.322,149.429 148.586,149.429L140.201,149.429C122.699,149.831 109.353,150.095 99.146,150.254C95.547,150.307 92.492,147.988 92.091,144.899C91.546,140.704 90.885,135.615 90.885,135.615L90.885,127.203C90.885,123.83 87.974,121.095 84.383,121.095L84.381,121.095C80.57,121.095 77.481,123.998 77.481,127.578L77.481,133.581C77.481,135.366 76.491,137.044 74.82,138.094C73.148,139.143 70.995,139.439 69.029,138.889C69.028,138.888 69.027,138.888 69.027,138.888C66.568,138.2 64.904,136.223 64.904,133.991L64.904,126.096C64.589,124.629 63.559,123.162 61.781,121.695L44.35,104.033C44.35,104.033 42.309,102.256 40.095,100.329C36.58,97.269 31.796,95.548 26.805,95.548L8.36,95.548C7.443,95.547 6.561,95.244 5.894,94.7C-4.096,86.542 -13.45,82.769 -30.166,95.887C-30.166,95.887 -44.194,102.178 -54.177,106.654C-60.651,109.557 -66.447,113.468 -71.274,118.191C-74.079,120.936 -77.235,124.024 -79.863,126.595C-83.512,130.166 -85.525,134.764 -85.525,139.525L-85.525,170.849C-85.525,175.421 -83.669,179.849 -80.278,183.361C-70.323,193.753 -60.422,203.851 -47.947,208.026C-41.045,213.319 -33.505,217.547 -23.48,217.625C-23.48,217.625 51.313,217.45 54.959,217.377C57.27,217.331 59.604,217.074 62.971,212.226C65.483,208.608 68.049,203.603 69.946,199.237C70.787,197.286 72.987,196.025 75.395,196.114C77.803,196.202 79.872,197.619 80.519,199.624C80.807,200.553 80.827,201.379 80.415,202.008Z" style="fill:white;"/>
    </g>
    <g transform="matrix(0.624858,0,0,0.624858,-34.2928,-14.3685)">
        <path d="M129.636,206.341L129.636,212.348C129.636,215.625 132.123,218.239 135.135,218.239L135.136,218.239C138.006,218.239 140.378,215.75 140.378,212.628L140.378,206.341C140.378,205.765 139.91,205.296 139.333,205.296C138.756,205.296 138.288,205.765 138.288,206.341L138.288,212.628C138.288,214.55 136.902,216.149 135.136,216.149L135.135,216.149C133.226,216.149 131.725,214.424 131.725,212.348L131.725,206.341C131.725,205.765 131.257,205.296 130.68,205.296C130.104,205.296 129.636,205.765 129.636,206.341ZM106.438,206.341L106.438,212.348C106.438,215.625 108.925,218.239 111.937,218.239L111.938,218.239C114.808,218.239 117.18,215.75 117.18,212.628L117.18,206.341C117.18,205.765 116.711,205.296 116.135,205.296C115.558,205.296 115.09,205.765 115.09,206.341L115.09,212.628C115.09,214.55 113.704,216.149 111.938,216.149L111.937,216.149C110.028,216.149 108.527,214.424 108.527,212.348L108.527,206.341C108.527,205.765 108.059,205.296 107.482,205.296C106.906,205.296 106.438,205.765 106.438,206.341ZM121.511,202.467L119.853,205.773C119.594,206.289 119.803,206.917 120.318,207.175C120.833,207.434 121.462,207.225 121.72,206.71L123.378,203.404C123.637,202.889 123.428,202.26 122.913,202.002C122.397,201.743 121.769,201.952 121.511,202.467ZM125.1,202.467L123.442,205.773C123.184,206.289 123.392,206.917 123.908,207.175C124.423,207.434 125.051,207.225 125.31,206.71L126.968,203.404C127.226,202.889 127.018,202.26 126.502,202.002C125.987,201.743 125.359,201.952 125.1,202.467ZM107.093,180.154L107.093,197.242C107.093,197.876 107.608,198.391 108.242,198.391C108.877,198.391 109.391,197.876 109.391,197.242L109.391,180.154C109.391,179.52 108.877,179.005 108.242,179.005C107.608,179.005 107.093,179.52 107.093,180.154ZM116.206,180.154L116.206,197.242C116.206,197.876 116.721,198.391 117.355,198.391C117.989,198.391 118.504,197.876 118.504,197.242L118.504,180.154C118.504,179.52 117.989,179.005 117.355,179.005C116.721,179.005 116.206,179.52 116.206,180.154ZM134.43,180.154L134.43,197.242C134.43,197.876 134.945,198.391 135.58,198.391C136.214,198.391 136.729,197.876 136.729,197.242L136.729,180.154C136.729,179.52 136.214,179.005 135.58,179.005C134.945,179.005 134.43,179.52 134.43,180.154ZM129.874,180.154L129.874,197.242C129.874,197.876 130.389,198.391 131.023,198.391C131.658,198.391 132.172,197.876 132.172,197.242L132.172,180.154C132.172,179.52 131.658,179.005 131.023,179.005C130.389,179.005 129.874,179.52 129.874,180.154ZM138.987,180.154L138.987,197.242C138.987,197.876 139.502,198.391 140.136,198.391C140.77,198.391 141.285,197.876 141.285,197.242L141.285,180.154C141.285,179.52 140.77,179.005 140.136,179.005C139.502,179.005 138.987,179.52 138.987,180.154ZM125.318,180.154L125.318,197.242C125.318,197.876 125.833,198.391 126.467,198.391C127.101,198.391 127.616,197.876 127.616,197.242L127.616,180.154C127.616,179.52 127.101,179.005 126.467,179.005C125.833,179.005 125.318,179.52 125.318,180.154ZM120.762,180.154L120.762,197.242C120.762,197.876 121.277,198.391 121.911,198.391C122.545,198.391 123.06,197.876 123.06,197.242L123.06,180.154C123.06,179.52 122.545,179.005 121.911,179.005C121.277,179.005 120.762,179.52 120.762,180.154ZM111.649,180.154L111.649,197.242C111.649,197.876 112.164,198.391 112.799,198.391C113.433,198.391 113.948,197.876 113.948,197.242L113.948,180.154C113.948,179.52 113.433,179.005 112.799,179.005C112.164,179.005 111.649,179.52 111.649,180.154ZM139.157,171.169C139.786,171.169 140.296,171.679 140.296,172.307C140.296,172.935 139.786,173.445 139.157,173.445C138.529,173.445 138.019,172.935 138.019,172.307C138.019,171.679 138.529,171.169 139.157,171.169ZM102.607,173.402L116.433,173.402C116.752,173.402 117.023,173.288 117.246,173.059C117.466,172.833 117.576,172.564 117.576,172.252C117.576,171.938 117.462,171.665 117.229,171.437C116.996,171.209 116.729,171.103 116.433,171.103L102.607,171.103C102.288,171.103 102.017,171.217 101.794,171.446C101.574,171.672 101.465,171.941 101.465,172.252C101.465,172.567 101.578,172.84 101.811,173.068C102.044,173.295 102.311,173.402 102.607,173.402ZM151.788,165.027C153.794,164.403 155.535,163.444 157.151,162.926C158.395,162.527 159.548,162.413 160.707,163.293C161.548,163.931 161.949,164.738 162.11,165.53C162.441,167.154 161.613,168.793 160.11,169.491C159.064,169.966 157.897,170.427 156.338,170.545C155.705,170.592 155.231,171.144 155.278,171.777C155.326,172.409 155.878,172.884 156.511,172.836C158.392,172.695 159.804,172.155 161.066,171.581C161.068,171.579 161.071,171.578 161.073,171.577C163.545,170.433 164.906,167.74 164.362,165.072C164.102,163.794 163.454,162.492 162.096,161.462C160.251,160.062 158.43,160.102 156.449,160.738C154.839,161.254 153.105,162.211 151.106,162.832C150.5,163.02 150.161,163.665 150.35,164.27C150.538,164.876 151.182,165.215 151.788,165.027ZM121.345,165.027C123.351,164.403 125.092,163.444 126.707,162.926C127.951,162.527 129.105,162.413 130.263,163.293C131.105,163.931 131.506,164.738 131.667,165.53C131.998,167.154 131.17,168.793 129.667,169.491C128.62,169.966 127.454,170.427 125.895,170.545C125.262,170.592 124.787,171.144 124.835,171.777C124.883,172.409 125.435,172.884 126.067,172.836C127.949,172.695 129.361,172.155 130.623,171.581C130.625,171.579 130.627,171.578 130.63,171.577C133.101,170.433 134.462,167.74 133.919,165.072C133.659,163.794 133.011,162.492 131.653,161.462C129.807,160.062 127.986,160.102 126.005,160.738C124.396,161.254 122.661,162.211 120.663,162.832C120.057,163.02 119.718,163.665 119.906,164.27C120.095,164.876 120.739,165.215 121.345,165.027ZM96.023,160.363L89.356,160.363C85.786,160.363 82.933,163.07 82.933,166.352L82.933,166.353C82.933,169.477 85.646,172.056 89.045,172.056L96.023,172.056C96.599,172.056 97.067,171.588 97.067,171.011C97.067,170.434 96.599,169.966 96.023,169.966L89.045,169.966C86.846,169.966 85.023,168.374 85.023,166.353L85.023,166.352C85.023,164.173 86.986,162.453 89.356,162.453L96.023,162.453C96.599,162.453 97.067,161.985 97.067,161.408C97.067,160.832 96.599,160.363 96.023,160.363ZM104.831,164.579C104.532,164.579 104.268,164.685 104.044,164.905C103.819,165.124 103.706,165.393 103.706,165.711C103.706,166.023 103.815,166.292 104.035,166.518C104.262,166.751 104.529,166.861 104.831,166.861L114.209,166.861C114.535,166.861 114.805,166.743 115.023,166.509C115.23,166.285 115.335,166.02 115.335,165.711C115.335,165.393 115.221,165.124 114.996,164.905C114.772,164.685 114.508,164.579 114.209,164.579L104.831,164.579ZM139.157,164.007C139.786,164.007 140.296,164.517 140.296,165.145C140.296,165.773 139.786,166.283 139.157,166.283C138.529,166.283 138.019,165.773 138.019,165.145C138.019,164.517 138.529,164.007 139.157,164.007ZM116.065,159.239C115.83,158.998 115.559,158.887 115.26,158.887L103.78,158.887C103.481,158.887 103.21,158.998 102.975,159.239C102.747,159.473 102.637,159.746 102.637,160.054C102.637,160.369 102.75,160.642 102.983,160.87C103.216,161.097 103.483,161.204 103.78,161.204L115.26,161.204C115.557,161.204 115.824,161.097 116.057,160.87C116.29,160.642 116.403,160.369 116.403,160.054C116.403,159.746 116.294,159.473 116.065,159.239ZM112.279,150.144C112.791,150.882 112.832,151.62 112.292,152.358C112.019,152.731 112.1,153.254 112.472,153.526C112.845,153.799 113.368,153.718 113.64,153.346C114.654,151.961 114.613,150.577 113.653,149.192C113.39,148.813 112.869,148.719 112.49,148.981C112.111,149.244 112.017,149.765 112.279,150.144ZM116.402,150.144C116.914,150.882 116.955,151.62 116.414,152.358C116.142,152.731 116.223,153.254 116.595,153.526C116.967,153.799 117.491,153.718 117.763,153.346C118.777,151.961 118.735,150.577 117.776,149.192C117.513,148.813 116.992,148.719 116.613,148.981C116.234,149.244 116.139,149.765 116.402,150.144ZM88.126,153.443L93.103,153.443C93.679,153.443 94.147,152.975 94.147,152.398C94.147,151.821 93.679,151.353 93.103,151.353L88.126,151.353C87.55,151.353 87.081,151.821 87.081,152.398C87.081,152.975 87.55,153.443 88.126,153.443ZM139.034,153.237L139.119,153.237C139.386,153.231 139.614,153.137 139.804,152.959C140.006,152.768 140.106,152.536 140.106,152.263L140.106,149.331C140.106,149.062 140.008,148.828 139.809,148.631C139.612,148.437 139.374,148.339 139.093,148.339L138.453,148.339L138.453,136.866C138.453,136.593 138.353,136.361 138.15,136.17C137.955,135.986 137.719,135.893 137.439,135.893L130.496,135.893C130.213,135.893 129.978,135.989 129.789,136.176C129.598,136.365 129.502,136.595 129.502,136.866L129.502,137.471C129.502,139.325 129.489,140.73 129.463,141.688C129.437,142.643 129.402,143.52 129.357,144.318C129.313,145.082 129.223,145.675 129.081,146.096C128.938,146.517 128.784,146.883 128.616,147.193C128.452,147.495 128.204,147.877 127.871,148.339L127.618,148.339C127.337,148.339 127.098,148.437 126.902,148.631C126.702,148.828 126.604,149.062 126.604,149.331L126.604,152.263C126.604,152.536 126.704,152.768 126.907,152.959C127.102,153.143 127.339,153.237 127.618,153.237L127.702,153.237C127.97,153.231 128.198,153.137 128.387,152.959C128.589,152.768 128.69,152.536 128.69,152.263L128.69,150.231L138.021,150.231L138.021,152.263C138.021,152.536 138.121,152.768 138.323,152.959C138.519,153.143 138.755,153.237 139.034,153.237ZM148.331,137.108C151.465,141.629 151.657,146.15 148.347,150.671C148.006,151.136 148.107,151.79 148.573,152.131C149.038,152.471 149.692,152.37 150.033,151.905C153.934,146.576 153.742,141.247 150.048,135.918C149.72,135.444 149.068,135.326 148.595,135.654C148.121,135.983 148.003,136.634 148.331,137.108ZM108.648,135.918C104.954,141.247 104.762,146.576 108.664,151.905C109.004,152.37 109.659,152.471 110.124,152.131C110.589,151.79 110.69,151.136 110.35,150.671C107.039,146.15 107.231,141.629 110.365,137.108C110.694,136.634 110.576,135.983 110.102,135.654C109.628,135.326 108.977,135.444 108.648,135.918ZM162.698,135.926C162.698,139.869 162.759,142.643 162.699,145.247C162.661,146.899 162.362,147.994 161.756,148.733C161.171,149.447 160.321,149.794 159.306,150.071C158.694,150.237 158.333,150.87 158.5,151.481C158.667,152.093 159.299,152.455 159.911,152.288C161.433,151.873 162.656,151.26 163.533,150.19C164.39,149.146 164.942,147.635 164.996,145.3C165.057,142.681 164.997,139.892 164.997,135.926C164.997,135.292 164.482,134.777 163.847,134.777C163.213,134.777 162.698,135.292 162.698,135.926ZM69.147,138.469L83.798,150.956C84.237,151.33 84.897,151.277 85.271,150.839C85.645,150.4 85.592,149.74 85.153,149.366L70.502,136.878C70.063,136.504 69.403,136.557 69.029,136.996C68.655,137.435 68.708,138.095 69.147,138.469ZM130.442,148.339C131.009,147.347 131.35,146.367 131.468,145.4C131.596,144.357 131.663,141.818 131.665,137.784L136.231,137.784L136.231,148.339L130.442,148.339ZM121.322,134.354C119.898,134.354 118.734,135.523 118.734,136.972C118.734,138.421 119.898,139.59 121.322,139.59C122.747,139.59 123.91,138.421 123.91,136.972C123.91,135.523 122.747,134.354 121.322,134.354ZM143.675,134.354C142.251,134.354 141.087,135.523 141.087,136.972C141.087,138.421 142.251,139.59 143.675,139.59C145.1,139.59 146.263,138.421 146.263,136.972C146.263,135.523 145.1,134.354 143.675,134.354ZM143.675,136.021C144.188,136.021 144.596,136.451 144.596,136.972C144.596,137.493 144.188,137.923 143.675,137.923C143.163,137.923 142.754,137.493 142.754,136.972C142.754,136.451 143.163,136.021 143.675,136.021ZM121.322,136.021C121.835,136.021 122.243,136.451 122.243,136.972C122.243,137.493 121.835,137.923 121.322,137.923C120.81,137.923 120.401,137.493 120.401,136.972C120.401,136.451 120.81,136.021 121.322,136.021ZM61.532,112.45L61.532,130.691C61.532,131.383 62.094,131.944 62.786,131.944C63.478,131.944 64.039,131.383 64.039,130.691L64.039,112.45C64.039,111.758 63.478,111.196 62.786,111.196C62.094,111.196 61.532,111.758 61.532,112.45ZM162.799,112.45L162.799,130.691C162.799,131.383 163.361,131.944 164.053,131.944C164.745,131.944 165.306,131.383 165.306,130.691L165.306,112.45C165.306,111.758 164.745,111.196 164.053,111.196C163.361,111.196 162.799,111.758 162.799,112.45ZM139.233,128.557C139.468,128.557 139.668,128.473 139.833,128.303C139.996,128.136 140.078,127.933 140.078,127.694L140.078,115.414C140.078,115.175 139.996,114.972 139.833,114.805C139.668,114.636 139.468,114.551 139.233,114.551L127.286,114.551C127.052,114.551 126.853,114.632 126.689,114.792C126.526,114.952 126.441,115.158 126.441,115.414L126.441,127.694C126.441,127.933 126.523,128.136 126.686,128.303C126.851,128.473 127.051,128.557 127.286,128.557L139.233,128.557ZM162.799,89.08L162.799,107.322C162.799,108.013 163.361,108.575 164.053,108.575C164.745,108.575 165.306,108.013 165.306,107.322L165.306,89.08C165.306,88.389 164.745,87.827 164.053,87.827C163.361,87.827 162.799,88.389 162.799,89.08ZM57.722,90.237C54.028,95.566 53.836,100.895 57.737,106.224C58.078,106.689 58.732,106.791 59.197,106.45C59.663,106.109 59.764,105.455 59.423,104.99C56.113,100.469 56.305,95.948 59.439,91.427C59.767,90.954 59.649,90.302 59.175,89.974C58.702,89.645 58.05,89.763 57.722,90.237ZM138.415,92.337C140.436,92.337 142.097,92.944 143.397,94.157C144.697,95.37 145.346,96.94 145.346,98.867C145.346,100.001 145.012,100.862 144.345,101.452C143.677,102.041 142.723,102.336 141.483,102.336C140.93,102.336 140.467,102.246 140.093,102.064C139.708,101.894 139.474,101.684 139.39,101.435C139.39,101.412 139.383,101.401 139.371,101.401L139.335,101.418C138.77,102.019 138.018,102.325 137.079,102.336C136.225,102.336 135.539,102.041 135.021,101.452C134.407,100.76 134.215,99.882 134.443,98.816C134.672,97.739 135.114,96.903 135.77,96.308C136.426,95.713 137.211,95.415 138.126,95.415C138.415,95.415 138.71,95.478 139.01,95.602C139.215,95.693 139.414,95.835 139.606,96.027L139.66,96.027L139.678,95.959C139.763,95.619 139.991,95.449 140.364,95.449L141.393,95.449C141.562,95.449 141.7,95.514 141.808,95.645C141.917,95.775 141.953,95.914 141.917,96.061L141.177,99.581C141.02,100.364 141.02,100.823 141.177,100.959C141.249,101.015 141.363,101.044 141.52,101.044C142.988,101.044 143.722,100.318 143.722,98.867C143.722,97.337 143.237,96.107 142.269,95.177C141.3,94.248 140.015,93.783 138.415,93.783C136.838,93.783 135.56,94.253 134.579,95.194C133.598,96.135 133.108,97.359 133.108,98.867C133.108,100.375 133.598,101.599 134.579,102.54C135.56,103.481 136.838,103.952 138.415,103.952C139.474,103.952 140.394,103.731 141.177,103.288C141.333,103.198 141.498,103.169 141.673,103.203C141.847,103.237 141.983,103.323 142.079,103.459L142.224,103.646C142.32,103.793 142.35,103.955 142.314,104.13C142.278,104.306 142.175,104.439 142.007,104.53C140.96,105.108 139.763,105.397 138.415,105.397C136.453,105.397 134.808,104.788 133.478,103.569C132.148,102.35 131.483,100.783 131.483,98.867C131.483,96.963 132.139,95.398 133.451,94.174C134.762,92.949 136.417,92.337 138.415,92.337ZM109.52,92.337C111.542,92.337 113.203,92.944 114.502,94.157C115.802,95.37 116.452,96.94 116.452,98.867C116.452,100.001 116.121,100.862 115.459,101.452C114.797,102.041 113.84,102.336 112.589,102.336C112.071,102.336 111.608,102.246 111.199,102.064C110.814,101.894 110.573,101.696 110.477,101.469C110.477,101.458 110.465,101.452 110.441,101.452L110.405,101.469C109.851,102.036 109.117,102.325 108.202,102.336C107.36,102.336 106.674,102.036 106.145,101.435C105.531,100.766 105.326,99.905 105.531,98.85C105.747,97.773 106.184,96.94 106.839,96.35C107.495,95.761 108.281,95.466 109.195,95.466C109.508,95.466 109.779,95.512 110.007,95.602C110.212,95.67 110.417,95.795 110.621,95.976L110.639,95.976L110.657,95.993C110.669,95.993 110.675,95.988 110.675,95.976L110.693,95.925C110.754,95.631 110.946,95.483 111.271,95.483L112.517,95.483C112.673,95.483 112.805,95.546 112.914,95.67C113.022,95.795 113.064,95.937 113.04,96.095L112.336,99.564C112.18,100.335 112.198,100.783 112.39,100.908C112.45,100.953 112.553,100.976 112.697,100.976C113.407,100.976 113.928,100.809 114.259,100.474C114.589,100.14 114.755,99.604 114.755,98.867C114.755,97.348 114.277,96.132 113.32,95.22C112.363,94.307 111.097,93.851 109.52,93.851C107.968,93.851 106.707,94.316 105.738,95.245C104.77,96.175 104.285,97.382 104.285,98.867C104.285,100.352 104.77,101.56 105.738,102.489C106.707,103.419 107.968,103.884 109.52,103.884C110.543,103.884 111.452,103.668 112.246,103.237C112.39,103.147 112.553,103.118 112.733,103.152C112.914,103.186 113.046,103.271 113.13,103.408L113.329,103.646C113.425,103.793 113.455,103.955 113.419,104.13C113.383,104.306 113.281,104.439 113.112,104.53C112.065,105.108 110.868,105.397 109.52,105.397C107.559,105.397 105.913,104.788 104.583,103.569C103.253,102.35 102.588,100.783 102.588,98.867C102.588,96.963 103.244,95.398 104.556,94.174C105.868,92.949 107.522,92.337 109.52,92.337ZM64.096,96.335C64.203,95.854 64.357,95.451 64.563,95.126C64.876,94.633 65.271,94.368 65.77,94.368C66.152,94.368 66.505,94.429 66.827,94.557C67.12,94.675 67.389,94.627 67.628,94.403C67.805,94.238 67.907,94.019 67.907,93.733C67.907,93.472 67.845,93.247 67.734,93.055C67.595,92.816 67.409,92.668 67.191,92.591C67.188,92.591 67.186,92.59 67.183,92.589C66.704,92.429 66.233,92.351 65.77,92.351C64.521,92.351 63.552,92.934 62.877,94.123C62.273,95.186 61.953,96.786 61.953,98.932L61.953,98.933C61.961,102.518 63.194,104.216 65.35,104.216C66.385,104.216 67.207,103.818 67.819,103.028C68.389,102.292 68.693,101.282 68.693,99.988C68.693,98.804 68.413,97.862 67.884,97.154C67.31,96.386 66.537,96 65.565,96C65.002,96 64.513,96.112 64.096,96.335ZM65.382,97.946C65.783,97.946 66.104,98.11 66.347,98.435C66.636,98.821 66.765,99.341 66.765,99.988C66.765,100.737 66.641,101.317 66.352,101.72C66.113,102.052 65.777,102.214 65.35,102.214C64.894,102.214 64.555,102.011 64.332,101.609C64.05,101.102 63.913,100.533 63.913,99.904C63.913,99.315 64.053,98.827 64.357,98.449C64.625,98.115 64.966,97.946 65.382,97.946ZM139.191,98.816C139.323,98.261 139.269,97.819 139.028,97.49C138.848,97.229 138.571,97.099 138.198,97.099C137.789,97.099 137.431,97.252 137.124,97.558C136.817,97.864 136.598,98.289 136.465,98.833C136.345,99.4 136.405,99.842 136.646,100.16C136.826,100.42 137.103,100.545 137.476,100.534C138.355,100.534 138.926,99.961 139.191,98.816ZM109.619,100.024C109.89,99.751 110.083,99.355 110.197,98.833C110.311,98.312 110.26,97.904 110.044,97.609C109.887,97.359 109.625,97.238 109.258,97.243C108.891,97.249 108.566,97.391 108.284,97.668C108.001,97.946 107.802,98.34 107.688,98.85C107.574,99.36 107.631,99.763 107.859,100.058C108.04,100.307 108.299,100.432 108.636,100.432C109.021,100.432 109.349,100.296 109.619,100.024ZM149.185,99.76L155.578,99.76C156.155,99.76 156.623,99.292 156.623,98.716C156.623,98.139 156.155,97.671 155.578,97.671L149.185,97.671C148.609,97.671 148.141,98.139 148.141,98.716C148.141,99.292 148.609,99.76 149.185,99.76ZM81.655,99.76L88.048,99.76C88.625,99.76 89.093,99.292 89.093,98.716C89.093,98.139 88.625,97.671 88.048,97.671L81.655,97.671C81.079,97.671 80.61,98.139 80.61,98.716C80.61,99.292 81.079,99.76 81.655,99.76ZM91.475,99.76L97.868,99.76C98.444,99.76 98.912,99.292 98.912,98.716C98.912,98.139 98.444,97.671 97.868,97.671L91.475,97.671C90.898,97.671 90.43,98.139 90.43,98.716C90.43,99.292 90.898,99.76 91.475,99.76ZM120.33,99.76L126.723,99.76C127.3,99.76 127.768,99.292 127.768,98.716C127.768,98.139 127.3,97.671 126.723,97.671L120.33,97.671C119.754,97.671 119.285,98.139 119.285,98.716C119.285,99.292 119.754,99.76 120.33,99.76ZM71.835,99.76L78.228,99.76C78.805,99.76 79.273,99.292 79.273,98.716C79.273,98.139 78.805,97.671 78.228,97.671L71.835,97.671C71.259,97.671 70.791,98.139 70.791,98.716C70.791,99.292 71.259,99.76 71.835,99.76ZM76.794,82.396C76.996,82.396 77.149,82.305 77.25,82.115C77.344,81.937 77.341,81.755 77.233,81.569L70.856,69.668C70.758,69.474 70.603,69.38 70.401,69.38C70.2,69.38 70.045,69.474 69.944,69.673C69.946,69.668 63.568,81.571 63.568,81.571C63.568,81.572 63.567,81.573 63.566,81.575C63.474,81.757 63.473,81.935 63.557,82.109C63.651,82.302 63.803,82.396 64.008,82.396L76.794,82.396ZM154.465,71.833C156.74,74.302 159.257,77.831 160.557,80.152C160.866,80.705 161.567,80.903 162.121,80.593C162.674,80.284 162.872,79.583 162.562,79.029C161.195,76.587 158.548,72.874 156.156,70.276C155.726,69.81 154.999,69.78 154.532,70.21C154.066,70.639 154.036,71.367 154.465,71.833ZM139.517,76.948L145.909,76.948C146.486,76.948 146.954,76.48 146.954,75.903C146.954,75.327 146.486,74.859 145.909,74.859L139.517,74.859C138.94,74.859 138.472,75.327 138.472,75.903C138.472,76.48 138.94,76.948 139.517,76.948ZM108.848,76.948L122.342,76.948C122.918,76.948 123.386,76.48 123.386,75.903C123.386,75.327 122.918,74.859 122.342,74.859L108.848,74.859C108.272,74.859 107.804,75.327 107.804,75.903C107.804,76.48 108.272,76.948 108.848,76.948ZM133.416,48.38L148.067,60.867C148.506,61.241 149.166,61.189 149.54,60.75C149.914,60.311 149.861,59.651 149.423,59.277L134.771,46.79C134.332,46.416 133.672,46.468 133.298,46.907C132.924,47.346 132.977,48.006 133.416,48.38ZM89.616,46.79L74.964,59.277C74.525,59.651 74.473,60.311 74.847,60.75C75.221,61.189 75.881,61.241 76.319,60.867L90.971,48.38C91.41,48.006 91.463,47.346 91.089,46.907C90.715,46.468 90.055,46.416 89.616,46.79ZM93.137,45.676L131.104,45.676C131.681,45.676 132.149,45.207 132.149,44.631C132.149,44.054 131.681,43.586 131.104,43.586L93.137,43.586C92.56,43.586 92.092,44.054 92.092,44.631C92.092,45.207 92.56,45.676 93.137,45.676ZM114.451,25.76C113.654,26.395 112.953,27.19 112.35,28.148C111.397,29.659 110.924,31.235 110.924,32.873C110.924,34.622 111.408,35.883 112.31,36.682C113.19,37.462 114.587,37.884 116.519,37.884C117.05,37.884 117.475,37.936 117.794,38.054C118.097,38.165 118.271,38.342 118.271,38.621C118.271,39.353 117.642,39.595 116.537,39.595C115.942,39.595 115.391,39.537 114.885,39.421C114.883,39.42 114.881,39.42 114.879,39.42C114.602,39.359 114.347,39.389 114.112,39.5C113.812,39.641 113.64,39.871 113.586,40.179C113.585,40.183 113.584,40.187 113.584,40.192C113.54,40.478 113.59,40.732 113.72,40.957C113.866,41.209 114.083,41.372 114.375,41.441C115.085,41.631 115.819,41.728 116.573,41.728C118.194,41.728 119.314,41.326 119.962,40.614C120.424,40.106 120.67,39.433 120.67,38.587C120.67,37.61 120.319,36.893 119.658,36.419C119.062,35.992 118.14,35.752 116.88,35.752C115.593,35.752 114.677,35.556 114.151,35.085C113.641,34.629 113.431,33.814 113.431,32.669C113.431,31.305 113.884,29.964 114.777,28.642C115.669,27.32 116.704,26.404 117.894,25.907C117.897,25.905 117.9,25.904 117.903,25.903C118.49,25.645 118.756,25.228 118.756,24.693C118.756,24.38 118.639,24.117 118.402,23.905C118.181,23.707 117.926,23.61 117.638,23.61L112.476,23.61C112.156,23.61 111.897,23.719 111.692,23.923C111.481,24.133 111.376,24.387 111.376,24.685C111.376,24.986 111.486,25.244 111.711,25.456C111.926,25.659 112.181,25.76 112.476,25.76L114.451,25.76Z" style="fill-rule:nonzero;"/>
    </g>
</svg>
