<?xml version="1.0" encoding="UTF-8" standalone="no"?>
<svg xmlns:xlink="http://www.w3.org/1999/xlink" height="33.2px" width="31.0px" xmlns="http://www.w3.org/2000/svg">
  <g transform="matrix(1.0, 0.0, 0.0, 1.0, 13.8, 50.7)">
    <path d="M12.7 -24.6 L16.7 -23.9 Q13.95 -20.75 10.35 -19.7 7.25 -18.8 3.3 -18.2 -0.65 -17.65 -5.4 -18.8 -10.15 -19.95 -12.05 -22.1 -14.0 -24.25 -12.9 -25.9 -11.8 -27.55 -9.65 -28.35 -7.55 -29.2 -3.3 -29.8 L4.8 -30.05 11.35 -29.1 Q14.0 -28.5 16.5 -26.6 L11.85 -25.3 Q11.4 -24.75 12.7 -24.6" fill="#66cc99" fill-rule="evenodd" stroke="none"/>
    <path d="M12.7 -24.6 L16.7 -23.9 Q13.95 -20.75 10.35 -19.7 7.25 -18.8 3.3 -18.2 -0.65 -17.65 -5.4 -18.8 -10.15 -19.95 -12.05 -22.1 -14.0 -24.25 -12.9 -25.9 -11.8 -27.55 -9.65 -28.35 -7.55 -29.2 -3.3 -29.8 L4.8 -30.05 11.35 -29.1 Q14.0 -28.5 16.5 -26.6 L11.85 -25.3 Q11.4 -24.75 12.7 -24.6 Z" fill="none" stroke="#96844b" stroke-linecap="round" stroke-linejoin="round" stroke-width="1.0"/>
    <path d="M8.35 -48.9 Q12.2 -43.95 4.3 -43.0 1.5 -45.05 2.1 -46.95 2.6 -48.5 5.15 -49.9 6.85 -50.85 8.35 -48.9 M7.85 -45.95 Q5.35 -45.6 3.5 -46.55 5.35 -45.6 7.85 -45.95 M-8.2 -41.95 Q-11.15 -41.85 -11.3 -44.75 L-11.2 -46.6 Q-10.45 -51.7 -5.8 -49.35 -0.8 -46.9 -3.7 -43.9 L-5.5 -42.45 -8.2 -41.95 M-5.5 -46.0 Q-7.65 -44.8 -10.3 -44.7 -7.65 -44.8 -5.5 -46.0" fill="#ffffff" fill-rule="evenodd" stroke="none"/>
    <path d="M-10.7 -37.45 Q-9.0 -40.9 -5.4 -42.1 L-2.45 -42.65 2.7 -42.3 3.8 -42.0 3.95 -41.95 5.8 -41.25 Q8.15 -40.2 9.45 -38.15 L9.85 -37.5 9.45 -37.25 9.85 -36.95 10.55 -36.4 Q9.6 -34.45 7.6 -33.3 3.8 -31.3 -0.45 -31.35 L-3.05 -31.55 Q-8.1 -32.35 -10.5 -36.2 L-9.9 -36.7 -10.6 -36.6 -10.7 -37.45 M1.6 -30.6 L3.25 -29.6 3.95 -29.05 Q5.6 -27.7 4.85 -26.65 4.15 -25.75 1.7 -25.05 L-1.0 -25.2 Q-4.65 -26.75 -3.45 -28.8 L-2.15 -30.2 -0.45 -31.3 Q0.55 -31.15 1.6 -30.6 M9.45 -37.25 L-0.75 -37.3 -9.9 -36.7 -0.75 -37.3 9.45 -37.25" fill="#e2d5c0" fill-rule="evenodd" stroke="none"/>
    <path d="M8.35 -48.9 Q12.2 -43.95 4.3 -43.0 1.5 -45.05 2.1 -46.95 2.6 -48.5 5.15 -49.9 6.85 -50.85 8.35 -48.9 M-10.7 -37.45 Q-9.0 -40.9 -5.4 -42.1 L-2.45 -42.65 2.7 -42.3 3.8 -42.0 3.95 -41.95 5.8 -41.25 Q8.15 -40.2 9.45 -38.15 L9.85 -37.5 9.85 -36.95 M10.55 -36.4 Q9.6 -34.45 7.6 -33.3 3.8 -31.3 -0.45 -31.35 L-3.05 -31.55 Q-8.1 -32.35 -10.5 -36.2 L-10.55 -36.25 -10.7 -36.5 -10.75 -36.55 -10.6 -36.6 -9.9 -36.7 -0.75 -37.3 9.45 -37.25 M3.95 -29.05 Q9.25 -32.7 8.95 -25.35 9.1 -23.85 10.4 -24.65 M1.6 -30.6 Q0.55 -31.15 -0.45 -31.3 L-2.15 -30.2 -3.45 -28.8 Q-4.65 -26.75 -1.0 -25.2 L1.7 -25.05 Q4.15 -25.75 4.85 -26.65 5.6 -27.7 3.95 -29.05 L3.25 -29.6 1.6 -30.6 M-8.2 -41.95 Q-11.15 -41.85 -11.3 -44.75 L-11.2 -46.6 Q-10.45 -51.7 -5.8 -49.35 -0.8 -46.9 -3.7 -43.9 L-5.5 -42.45 -5.55 -42.45 Q-6.7 -41.7 -8.2 -41.95 L-5.5 -42.45 M-3.45 -28.8 Q-9.5 -31.7 -6.3 -26.0 -7.35 -24.15 -8.7 -24.65" fill="none" stroke="#8f7c3f" stroke-linecap="round" stroke-linejoin="round" stroke-width="1.0"/>
    <path d="M3.5 -46.55 Q5.35 -45.6 7.85 -45.95 M-10.3 -44.7 Q-7.65 -44.8 -5.5 -46.0" fill="none" stroke="#8f7c3f" stroke-linecap="round" stroke-linejoin="round" stroke-width="1.0"/>
  </g>
</svg>
