<?xml version="1.0" encoding="UTF-8" standalone="no"?>
<svg xmlns:xlink="http://www.w3.org/1999/xlink" height="27.05px" width="31.0px" xmlns="http://www.w3.org/2000/svg">
  <g transform="matrix(1.0, 0.0, 0.0, 1.0, 14.4, 65.15)">
    <path d="M10.75 -49.7 Q13.4 -49.1 15.9 -47.2 L11.25 -45.9 Q10.8 -45.35 12.1 -45.2 L16.1 -44.5 Q13.35 -41.35 9.75 -40.3 6.65 -39.4 2.7 -38.8 -1.25 -38.25 -6.0 -39.4 -10.75 -40.55 -12.65 -42.7 -14.6 -44.85 -13.5 -46.5 -12.4 -48.15 -10.25 -48.95 -8.15 -49.8 -3.9 -50.4 L4.2 -50.65 10.75 -49.7" fill="#b2e5cb" fill-rule="evenodd" stroke="none"/>
    <path d="M10.75 -49.7 Q13.4 -49.1 15.9 -47.2 L11.25 -45.9 Q10.8 -45.35 12.1 -45.2 L16.1 -44.5 Q13.35 -41.35 9.75 -40.3 6.65 -39.4 2.7 -38.8 -1.25 -38.25 -6.0 -39.4 -10.75 -40.55 -12.65 -42.7 -14.6 -44.85 -13.5 -46.5 -12.4 -48.15 -10.25 -48.95 -8.15 -49.8 -3.9 -50.4 L4.2 -50.65 10.75 -49.7 Z" fill="none" stroke="#96844b" stroke-linecap="round" stroke-linejoin="round" stroke-width="1.0"/>
    <path d="M1.5 -62.15 Q1.85 -63.3 3.8 -64.4 5.1 -65.1 6.2 -63.65 9.15 -59.85 3.15 -59.15 1.05 -60.7 1.5 -62.15 M5.85 -61.4 Q3.95 -61.15 2.55 -61.8 3.95 -61.15 5.85 -61.4 M-8.2 -54.95 Q-6.95 -57.55 -4.2 -58.45 L-1.95 -58.9 1.95 -58.6 2.8 -58.4 2.9 -58.35 4.3 -57.8 Q6.05 -57.05 7.05 -55.45 L7.35 -54.95 7.05 -54.8 7.4 -54.55 7.9 -54.1 Q7.2 -52.65 5.7 -51.8 2.8 -50.3 -0.45 -50.3 L-2.4 -50.5 Q-6.25 -51.1 -8.05 -54.0 L-7.6 -54.35 -8.1 -54.3 -8.2 -54.95 M-2.7 -48.4 L-1.75 -49.45 -0.45 -50.3 1.1 -49.75 2.35 -49.0 2.9 -48.55 Q4.15 -47.55 3.55 -46.75 3.05 -46.05 1.2 -45.55 L-0.85 -45.65 Q-3.6 -46.85 -2.7 -48.4 L-2.5 -48.25 -2.7 -48.4 M-6.3 -58.35 Q-8.5 -58.3 -8.7 -60.45 L-8.6 -61.85 Q-8.0 -65.75 -4.5 -64.0 -0.7 -62.1 -2.9 -59.85 L-4.25 -58.75 -6.3 -58.35 M-4.25 -61.45 Q-5.9 -60.5 -7.9 -60.45 -5.9 -60.5 -4.25 -61.45 M7.05 -54.8 L-0.65 -54.85 -7.6 -54.35 -0.65 -54.85 7.05 -54.8" fill="#ffffff" fill-rule="evenodd" stroke="none"/>
    <path d="M1.5 -62.15 Q1.85 -63.3 3.8 -64.4 5.1 -65.1 6.2 -63.65 9.15 -59.85 3.15 -59.15 1.05 -60.7 1.5 -62.15 M-8.2 -54.95 Q-6.95 -57.55 -4.2 -58.45 L-1.95 -58.9 1.95 -58.6 2.8 -58.4 2.9 -58.35 4.3 -57.8 Q6.05 -57.05 7.05 -55.45 L7.35 -54.95 7.4 -54.55 M7.9 -54.1 Q7.2 -52.65 5.7 -51.8 2.8 -50.3 -0.45 -50.3 L-2.4 -50.5 Q-6.25 -51.1 -8.05 -54.0 L-8.1 -54.05 -8.2 -54.25 -8.25 -54.3 -8.1 -54.3 -7.6 -54.35 -0.65 -54.85 7.05 -54.8 M-2.7 -48.4 Q-3.6 -46.85 -0.85 -45.65 L1.2 -45.55 Q3.05 -46.05 3.55 -46.75 4.15 -47.55 2.9 -48.55 L2.35 -49.0 1.1 -49.75 -0.45 -50.3 -1.75 -49.45 -2.7 -48.4 -2.5 -48.25 M2.9 -48.55 Q6.9 -51.35 6.65 -45.8 6.8 -44.6 7.8 -45.25 M-6.3 -58.35 Q-8.5 -58.3 -8.7 -60.45 L-8.6 -61.85 Q-8.0 -65.75 -4.5 -64.0 -0.7 -62.1 -2.9 -59.85 L-4.25 -58.75 -4.3 -58.7 Q-5.15 -58.15 -6.3 -58.35 L-4.25 -58.75 M-2.7 -48.4 Q-7.3 -50.55 -4.85 -46.25 -5.65 -44.85 -6.7 -45.25" fill="none" stroke="#8f7c3f" stroke-linecap="round" stroke-linejoin="round" stroke-width="1.0"/>
    <path d="M2.55 -61.8 Q3.95 -61.15 5.85 -61.4 M-7.9 -60.45 Q-5.9 -60.5 -4.25 -61.45" fill="none" stroke="#8f7c3f" stroke-linecap="round" stroke-linejoin="round" stroke-width="1.0"/>
  </g>
</svg>
