<?xml version="1.0" encoding="UTF-8" standalone="no"?>
<svg xmlns:xlink="http://www.w3.org/1999/xlink" height="28.7px" width="31.0px" xmlns="http://www.w3.org/2000/svg">
  <g transform="matrix(1.0, 0.0, 0.0, 1.0, 14.0, 61.4)">
    <path d="M12.5 -39.8 L16.5 -39.1 Q13.75 -35.95 10.15 -34.9 7.05 -34.0 3.1 -33.4 -0.85 -32.85 -5.6 -34.0 -10.35 -35.15 -12.25 -37.3 -14.2 -39.45 -13.1 -41.1 -12.0 -42.75 -9.85 -43.55 -7.75 -44.4 -3.5 -45.0 L4.6 -45.25 11.15 -44.3 Q13.8 -43.7 16.3 -41.8 L11.65 -40.5 Q11.2 -39.95 12.5 -39.8" fill="#66cc99" fill-rule="evenodd" stroke="none"/>
    <path d="M12.5 -39.8 L16.5 -39.1 Q13.75 -35.95 10.15 -34.9 7.05 -34.0 3.1 -33.4 -0.85 -32.85 -5.6 -34.0 -10.35 -35.15 -12.25 -37.3 -14.2 -39.45 -13.1 -41.1 -12.0 -42.75 -9.85 -43.55 -7.75 -44.4 -3.5 -45.0 L4.6 -45.25 11.15 -44.3 Q13.8 -43.7 16.3 -41.8 L11.65 -40.5 Q11.2 -39.95 12.5 -39.8 Z" fill="none" stroke="#96844b" stroke-linecap="round" stroke-linejoin="round" stroke-width="1.0"/>
    <path d="M4.25 -60.65 Q5.55 -61.4 6.8 -59.85 9.9 -55.8 3.5 -55.05 1.25 -56.7 1.75 -58.25 2.15 -59.5 4.25 -60.65 M6.4 -57.45 Q4.35 -57.2 2.85 -57.95 4.35 -57.2 6.4 -57.45 M-6.55 -54.2 Q-8.9 -54.15 -9.05 -56.45 L-9.0 -58.0 Q-8.35 -62.05 -4.6 -60.2 -0.55 -58.25 -2.95 -55.8 L-4.4 -54.6 -6.55 -54.2 M-4.4 -57.5 Q-6.1 -56.5 -8.25 -56.45 -6.1 -56.5 -4.4 -57.5" fill="#ffffff" fill-rule="evenodd" stroke="none"/>
    <path d="M-8.6 -50.6 Q-7.2 -53.4 -4.3 -54.35 L-1.95 -54.8 2.25 -54.45 3.15 -54.3 3.25 -54.2 4.75 -53.65 Q6.6 -52.8 7.7 -51.15 L8.0 -50.65 7.7 -50.45 8.05 -50.2 8.55 -49.7 Q7.8 -48.15 6.2 -47.25 3.15 -45.6 -0.35 -45.65 L-2.4 -45.85 Q-6.5 -46.5 -8.45 -49.6 L-7.95 -50.0 -8.5 -49.9 -8.6 -50.6 M1.35 -45.05 L2.65 -44.25 3.25 -43.85 Q4.55 -42.75 3.95 -41.85 3.4 -41.15 1.45 -40.6 L-0.75 -40.7 Q-3.7 -41.95 -2.75 -43.6 L-1.65 -44.75 -0.35 -45.6 1.35 -45.05 M7.7 -50.45 L-0.55 -50.5 -7.95 -50.0 -0.55 -50.5 7.7 -50.45" fill="#e2d5c0" fill-rule="evenodd" stroke="none"/>
    <path d="M4.25 -60.65 Q5.55 -61.4 6.8 -59.85 9.9 -55.8 3.5 -55.05 1.25 -56.7 1.75 -58.25 2.15 -59.5 4.25 -60.65 M-8.6 -50.6 Q-7.2 -53.4 -4.3 -54.35 L-1.95 -54.8 2.25 -54.45 3.15 -54.3 3.25 -54.2 4.75 -53.65 Q6.6 -52.8 7.7 -51.15 L8.0 -50.65 8.05 -50.2 M8.55 -49.7 Q7.8 -48.15 6.2 -47.25 3.15 -45.6 -0.35 -45.65 L-2.4 -45.85 Q-6.5 -46.5 -8.45 -49.6 L-8.45 -49.65 -8.6 -49.8 -8.65 -49.85 -8.5 -49.9 -7.95 -50.0 -0.55 -50.5 7.7 -50.45 M1.35 -45.05 L-0.35 -45.6 -1.65 -44.75 -2.75 -43.6 Q-3.7 -41.95 -0.75 -40.7 L1.45 -40.6 Q3.4 -41.15 3.95 -41.85 4.55 -42.75 3.25 -43.85 L2.65 -44.25 1.35 -45.05 M3.25 -43.85 Q7.5 -46.75 7.25 -40.85 7.35 -39.6 8.45 -40.25 M-6.55 -54.2 Q-8.9 -54.15 -9.05 -56.45 L-9.0 -58.0 Q-8.35 -62.05 -4.6 -60.2 -0.55 -58.25 -2.95 -55.8 L-4.4 -54.6 Q-5.35 -54.0 -6.55 -54.2 L-4.4 -54.6 M-2.75 -43.6 Q-7.6 -45.9 -5.05 -41.3 -5.9 -39.85 -7.0 -40.2" fill="none" stroke="#8f7c3f" stroke-linecap="round" stroke-linejoin="round" stroke-width="1.0"/>
    <path d="M2.85 -57.95 Q4.35 -57.2 6.4 -57.45 M-8.25 -56.45 Q-6.1 -56.5 -4.4 -57.5" fill="none" stroke="#8f7c3f" stroke-linecap="round" stroke-linejoin="round" stroke-width="1.0"/>
  </g>
</svg>
