<?xml version="1.0" encoding="UTF-8" standalone="no"?>
<!DOCTYPE svg PUBLIC "-//W3C//DTD SVG 1.1//EN" "http://www.w3.org/Graphics/SVG/1.1/DTD/svg11.dtd">
<svg width="72px" height="94px" version="1.1" xmlns="http://www.w3.org/2000/svg" xmlns:xlink="http://www.w3.org/1999/xlink" xml:space="preserve" xmlns:serif="http://www.serif.com/" style="fill-rule:evenodd;clip-rule:evenodd;stroke-linejoin:round;stroke-miterlimit:2;">
    <g transform="matrix(-0.41866,0.0462408,-0.0467031,0.410913,124.248,-223.843)">
        <path d="M181.636,598.5C180.392,599.692 179.469,601.178 178.999,602.747C177.033,609.184 173.53,614.734 168.489,619.405C163.256,623.273 155.709,630.259 152.188,634.062C159.813,636.793 166.942,641.853 173.144,651.279L182.474,671.805C182.474,671.805 186.64,681.685 188.131,685.22C188.47,686.023 188.634,686.922 188.616,687.868C188.442,696.966 190.544,702.529 197.057,706.654C198.061,707.29 198.812,708.236 199.23,709.393C200.371,712.487 202.618,718.703 203.558,721.306C203.842,722.092 204.281,722.784 204.852,723.349C206.763,725.237 211.336,729.754 213.309,731.704C213.832,732.22 213.761,733.166 213.148,733.852C211.01,736.25 206.226,741.613 203.282,744.914C201.708,746.679 199.6,747.824 197.494,748.058C190.007,748.89 172.425,750.842 172.425,750.842C168.933,751.214 158.837,743.649 157.576,740.129C157.013,743.656 155.573,747.517 153.557,750.777C152,753.3 149.378,755.053 146.71,755.353C134.564,756.722 95.661,761.099 95.661,761.099C91.515,761.566 90.089,761.597 88.485,760.807C88.485,760.807 65.987,763.338 57.287,764.317C54.964,764.579 52.974,763.517 52.11,761.554C48.797,754.009 50.634,745.909 56.965,737.304L64.494,726.039L67.892,695.571C63.079,694.439 58.391,692.178 53.934,687.85C48.983,680.355 50.205,672.166 56.662,663.387C63.819,653.658 80.752,646.98 93.023,645.261C93.491,645.204 93.95,644.895 94.224,644.453C94.498,644.01 94.545,643.502 94.346,643.122C90.711,636.003 92.318,627.587 98.252,619.519L84.399,628.868C79.165,632.736 72.91,638.41 69.389,642.213C69.389,642.213 63.649,649.251 60.727,652.834C60.483,653.132 60.11,653.278 59.799,653.198C59.488,653.118 59.308,652.829 59.349,652.479C60.14,645.847 62.324,627.384 62.748,621.817C62.949,619.183 61.987,616.546 62.182,613.911C62.654,607.515 64.625,589.843 65.581,583.443C65.988,580.716 67.507,578.234 67.914,575.507C68.734,570.013 70.783,550.313 71.347,544.846C71.378,544.545 71.561,544.247 71.829,544.061C72.098,543.874 72.414,543.826 72.661,543.934C75.587,545.306 79.521,547.807 82.488,550.121C87.739,554.216 103,568 103,568C105.33,569.163 108.501,567.568 113.03,561.513C116.551,557.71 122.806,552.036 128.039,548.167C128.039,548.167 131.317,544.827 133.411,542.693C134.451,541.633 135.877,541.157 137.072,541.471C137.622,541.615 138.256,541.517 138.839,541.197C139.605,540.776 140.725,540.162 141.667,539.645C142.782,539.033 144.002,538.91 144.993,539.31C145.039,539.328 145.084,539.347 145.129,539.365C145.714,539.601 146.404,539.614 147.094,539.402C147.929,539.145 149.146,538.771 150.345,538.403C152.831,537.64 155.252,538.152 156.781,539.763C157.183,540.187 157.471,540.49 157.471,540.49C157.471,540.49 162.403,545.881 164.879,548.586C165.761,549.55 167.086,550.003 168.543,549.839C171.719,549.482 177.086,548.878 177.086,548.878C180.017,548.537 184.207,553.689 182.653,557.521C181.3,559.173 181.064,560.7 182.144,562.078C183.121,563.584 183.341,565.668 183.177,568.047C183.072,569.705 183.522,571.226 184.454,572.367C189.817,578.956 195.862,579.247 202.138,577.465L204.768,590.892C204.35,595.661 198.793,595.334 197.696,589.832C191.335,591.582 185.925,594.408 181.636,598.5Z" style="fill:white;"/>
    </g>
    <g transform="matrix(0.606424,0,0,0.606424,-30.8821,-39.0379)">
        <path d="M131.153,217.159L98.268,217.159C97.655,217.159 97.157,217.657 97.157,218.27C97.157,218.884 97.655,219.381 98.268,219.381L131.153,219.381C131.766,219.381 132.264,218.884 132.264,218.27C132.264,217.657 131.766,217.159 131.153,217.159ZM155.077,216.414L151.448,216.414C150.835,216.414 150.337,216.911 150.337,217.525C150.337,218.138 150.835,218.636 151.448,218.636L155.077,218.636C155.69,218.636 156.188,218.138 156.188,217.525C156.188,216.911 155.69,216.414 155.077,216.414ZM135.217,199.829C139.155,205.509 139.393,211.188 135.234,216.868C134.872,217.363 134.979,218.059 135.474,218.421C135.969,218.784 136.665,218.676 137.027,218.181C141.815,211.642 141.577,205.102 137.044,198.563C136.694,198.059 136.001,197.933 135.497,198.283C134.993,198.632 134.868,199.325 135.217,199.829ZM92.377,198.563C87.844,205.102 87.606,211.642 92.394,218.181C92.756,218.676 93.452,218.784 93.947,218.421C94.442,218.059 94.549,217.363 94.187,216.868C90.028,211.188 90.266,205.509 94.204,199.829C94.553,199.325 94.428,198.632 93.924,198.283C93.42,197.933 92.727,198.059 92.377,198.563ZM158.788,199.829C162.725,205.509 162.963,211.188 158.804,216.868C158.442,217.363 158.55,218.059 159.045,218.421C159.539,218.784 160.235,218.676 160.597,218.181C165.386,211.642 165.147,205.102 160.614,198.563C160.265,198.059 159.572,197.933 159.068,198.283C158.564,198.632 158.438,199.325 158.788,199.829ZM77.455,214.844C77.683,215.13 77.833,215.403 77.837,215.69C77.84,215.96 77.701,216.217 77.474,216.488C77.08,216.958 77.142,217.659 77.612,218.053C78.082,218.447 78.783,218.386 79.177,217.916C79.803,217.17 80.067,216.411 80.059,215.665C80.051,214.935 79.775,214.192 79.196,213.462C78.815,212.982 78.115,212.901 77.635,213.282C77.155,213.664 77.074,214.363 77.455,214.844ZM74.502,216.062L69.745,216.062C69.132,216.062 68.634,216.56 68.634,217.173C68.634,217.787 69.132,218.284 69.745,218.284L74.502,218.284C75.115,218.284 75.613,217.787 75.613,217.173C75.613,216.56 75.115,216.062 74.502,216.062ZM60.308,217.604L60.419,217.473C60.584,217.227 60.662,216.947 60.645,216.634C60.628,216.312 60.519,216.049 60.335,215.84C58.306,213.447 56.321,211.363 54.381,209.588C53.894,209.126 53.582,208.81 53.448,208.635C53.385,208.553 53.348,208.466 53.348,208.371C53.348,208.26 53.387,208.16 53.46,208.071C53.608,207.888 53.968,207.548 54.533,207.044C56.167,205.605 57.939,203.849 59.85,201.778C59.852,201.776 59.853,201.775 59.855,201.773C60.035,201.572 60.153,201.309 60.186,200.975C60.218,200.646 60.149,200.361 59.994,200.117L59.933,200.011C59.728,199.704 59.46,199.554 59.153,199.526C58.842,199.498 58.557,199.597 58.308,199.85C58.305,199.854 58.302,199.857 58.299,199.86C56.561,201.717 54.818,203.436 53.07,205.014C52.157,205.832 51.589,206.415 51.355,206.754C51.08,207.153 50.925,207.689 50.925,208.371C50.925,209.023 51.073,209.541 51.337,209.933C51.56,210.265 52.093,210.832 52.946,211.623L52.945,211.622C54.794,213.34 56.705,215.342 58.679,217.627C58.926,217.95 59.224,218.067 59.551,218.038C59.836,218.012 60.095,217.878 60.308,217.604ZM146.934,213.3C147.75,213.3 148.412,213.962 148.412,214.778C148.412,215.594 147.75,216.256 146.934,216.256C146.119,216.256 145.457,215.594 145.457,214.778C145.457,213.962 146.119,213.3 146.934,213.3ZM83.068,213.486C83.78,213.486 84.358,214.064 84.358,214.776C84.358,215.488 83.78,216.066 83.068,216.066C82.356,216.066 81.778,215.488 81.778,214.776C81.778,214.064 82.356,213.486 83.068,213.486ZM154.26,171.751L154.26,192.137C154.26,192.75 154.758,193.248 155.371,193.248C155.984,193.248 156.482,192.75 156.482,192.137L156.482,171.751C156.482,171.138 155.984,170.64 155.371,170.64C154.758,170.64 154.26,171.138 154.26,171.751ZM93.51,171.751L93.51,192.137C93.51,192.75 94.008,193.248 94.621,193.248C95.235,193.248 95.732,192.75 95.732,192.137L95.732,171.751C95.732,171.138 95.235,170.64 94.621,170.64C94.008,170.64 93.51,171.138 93.51,171.751ZM71.593,174.706C71.11,181.462 69.211,185.493 63.641,188.887C63.117,189.206 62.951,189.89 63.27,190.414C63.589,190.938 64.274,191.104 64.797,190.785C71.065,186.966 73.266,182.466 73.81,174.865C73.854,174.253 73.393,173.721 72.781,173.677C72.169,173.633 71.637,174.094 71.593,174.706ZM123.766,173.514L123.766,189.289C123.766,189.903 124.263,190.401 124.877,190.401L140.397,190.401C141.011,190.401 141.508,189.903 141.508,189.289L141.508,173.514C141.508,172.901 141.01,172.403 140.397,172.403C139.784,172.403 139.286,172.901 139.286,173.514L139.286,188.178L125.988,188.178L125.988,173.514C125.988,172.901 125.49,172.403 124.877,172.403C124.264,172.403 123.766,172.901 123.766,173.514ZM164.689,149.72C168.173,154.746 168.386,159.772 164.706,164.798C164.344,165.293 164.451,165.989 164.946,166.351C165.441,166.713 166.137,166.606 166.499,166.111C170.808,160.225 170.596,154.34 166.516,148.454C166.166,147.95 165.473,147.824 164.969,148.174C164.465,148.523 164.34,149.216 164.689,149.72ZM92.65,148.454C88.57,154.34 88.358,160.225 92.667,166.111C93.029,166.606 93.725,166.713 94.22,166.351C94.715,165.989 94.822,165.293 94.46,164.798C90.78,159.772 90.993,154.746 94.477,149.72C94.826,149.216 94.701,148.523 94.197,148.174C93.693,147.824 93,147.95 92.65,148.454ZM132.201,166.548L132.351,166.548C132.607,166.542 132.827,166.444 133.008,166.254C133.193,166.061 133.285,165.832 133.285,165.568L133.285,160.878L139.204,160.878L139.204,162.598C137.821,162.73 136.347,162.817 134.78,162.858L134.772,162.858C134.504,162.876 134.291,162.977 134.13,163.156C133.964,163.34 133.892,163.552 133.91,163.791C133.928,164.039 134.033,164.253 134.228,164.43C134.427,164.611 134.645,164.688 134.879,164.672C138.035,164.547 141.273,164.206 144.596,163.651L144.885,164.115C145.026,164.348 145.198,164.503 145.395,164.586C145.174,164.575 144.929,164.562 144.658,164.546C144.421,164.528 144.202,164.611 144.008,164.805C143.814,164.999 143.731,165.218 143.75,165.458C143.767,165.703 143.866,165.918 144.05,166.101C144.234,166.285 144.449,166.384 144.693,166.402L144.7,166.402C145.774,166.444 146.541,166.465 147.001,166.465C147.582,166.465 148.032,166.405 148.354,166.292C148.602,166.204 148.78,166.083 148.896,165.937C149.005,165.799 149.097,165.581 149.163,165.278C149.25,164.873 149.295,164.303 149.295,163.567L149.295,160.106C149.295,159.821 149.198,159.591 149.011,159.413C148.826,159.236 148.601,159.147 148.336,159.147L141.332,159.147L141.332,158.335L147.022,158.335C147.29,158.335 147.518,158.237 147.705,158.041C147.89,157.847 147.982,157.618 147.982,157.354L147.982,152.289C147.982,152.025 147.89,151.796 147.705,151.603C147.518,151.406 147.29,151.309 147.022,151.309L145.059,151.309C145.09,151.219 145.105,151.128 145.105,151.038L145.105,150.288L148.961,150.288C149.194,150.288 149.407,150.201 149.595,150.022C149.785,149.841 149.879,149.624 149.879,149.37C149.879,149.116 149.787,148.902 149.605,148.729C149.426,148.559 149.212,148.473 148.961,148.473L145.105,148.473L145.105,147.932C145.105,147.664 145.007,147.437 144.811,147.249C144.617,147.064 144.389,146.973 144.125,146.973L144.125,146.975L144,146.973C143.733,146.973 143.507,147.066 143.32,147.253C143.134,147.439 143.04,147.665 143.04,147.932L143.04,148.473L137.496,148.473L137.496,147.932C137.496,147.665 137.402,147.439 137.216,147.253C137.029,147.066 136.803,146.973 136.537,146.973L136.537,146.975L136.411,146.973C136.129,146.973 135.897,147.067 135.711,147.253C135.525,147.439 135.431,147.665 135.431,147.932L135.431,148.473L131.554,148.473C131.302,148.473 131.092,148.556 130.921,148.718C130.747,148.882 130.657,149.095 130.657,149.36C130.657,149.62 130.748,149.839 130.927,150.018C131.109,150.2 131.318,150.288 131.554,150.288L135.431,150.288L135.431,151.038C135.431,151.128 135.446,151.218 135.477,151.309L133.514,151.309C133.246,151.309 133.018,151.406 132.831,151.603C132.646,151.796 132.554,152.025 132.554,152.289L132.554,157.354C132.554,157.618 132.646,157.847 132.831,158.041C133.018,158.237 133.246,158.335 133.514,158.335L139.204,158.335L139.204,159.147L132.201,159.147C131.934,159.147 131.708,159.24 131.521,159.427C131.335,159.613 131.241,159.84 131.241,160.106L131.241,165.568C131.241,165.832 131.333,166.061 131.518,166.254C131.705,166.45 131.933,166.548 132.201,166.548ZM127.503,148.257C127.786,148.259 128.067,148.367 128.282,148.583C128.716,149.016 128.716,149.72 128.282,150.154L121.134,157.302L128.391,164.559C128.825,164.993 128.825,165.697 128.391,166.131C128.176,166.346 127.894,166.454 127.612,166.456L127.605,166.456C127.321,166.456 127.036,166.347 126.82,166.131L119.071,158.382C118.936,158.277 118.805,158.114 118.72,157.874C118.706,157.833 118.617,157.583 118.617,157.583L118.618,157.584L118.615,157.575C118.471,157.173 118.572,156.722 118.876,156.418L126.711,148.583C126.926,148.367 127.208,148.259 127.49,148.257L127.503,148.257ZM160.13,157.297L152.874,164.554C152.44,164.987 152.44,165.691 152.874,166.125C153.307,166.559 154.011,166.559 154.445,166.125L162.194,158.376C162.328,158.271 162.459,158.108 162.544,157.868C162.559,157.828 162.647,157.578 162.647,157.578L162.646,157.579C162.795,157.174 162.695,156.719 162.389,156.412L154.553,148.577C154.12,148.143 153.416,148.143 152.982,148.577C152.548,149.011 152.548,149.715 152.982,150.148L160.13,157.297ZM85.145,149.23L77.123,163.85C76.828,164.387 77.025,165.063 77.563,165.358C78.1,165.653 78.776,165.456 79.071,164.919L87.093,150.299C87.388,149.761 87.191,149.085 86.653,148.79C86.116,148.495 85.44,148.692 85.145,149.23ZM147.251,160.878L144.857,160.878C145.033,160.962 145.189,161.103 145.321,161.305L145.321,161.306C145.656,161.821 146.087,162.511 146.617,163.374C146.618,163.375 146.618,163.377 146.619,163.378C146.747,163.598 146.774,163.827 146.701,164.066C146.626,164.311 146.466,164.481 146.222,164.575L146.085,164.617C146.305,164.625 146.478,164.629 146.605,164.629C146.795,164.629 146.945,164.618 147.057,164.593C147.092,164.585 147.122,164.576 147.147,164.565C147.157,164.561 147.171,164.552 147.176,164.549C147.194,164.52 147.201,164.464 147.212,164.388C147.239,164.208 147.251,163.941 147.251,163.588L147.251,160.878ZM143.948,160.878L141.332,160.878L141.332,162.363C142.252,162.259 143.002,162.16 143.582,162.066C143.579,162.062 143.576,162.057 143.573,162.053C143.441,161.845 143.415,161.618 143.5,161.372C143.582,161.136 143.732,160.972 143.948,160.878ZM134.64,155.583L134.64,156.666L139.204,156.666L139.204,155.583L134.64,155.583ZM141.332,155.583L141.332,156.666L145.896,156.666L145.896,155.583L141.332,155.583ZM134.64,152.915L134.64,153.998L139.204,153.998L139.204,152.915L134.64,152.915ZM141.332,152.915L141.332,153.998L145.896,153.998L145.896,152.915L141.332,152.915ZM115.986,150.218C110.1,146.138 104.214,145.925 98.329,150.235C97.834,150.597 97.726,151.293 98.089,151.787C98.451,152.282 99.147,152.39 99.642,152.027C104.668,148.347 109.694,148.56 114.72,152.044C115.224,152.394 115.917,152.268 116.266,151.764C116.615,151.26 116.49,150.567 115.986,150.218ZM143.04,150.288L143.041,151.057C143.049,151.145 143.066,151.228 143.093,151.309L137.454,151.309C137.482,151.222 137.496,151.132 137.496,151.038L137.496,150.288L143.04,150.288ZM163.491,121.383L163.491,141.769C163.491,142.382 163.989,142.88 164.602,142.88C165.216,142.88 165.713,142.382 165.713,141.769L165.713,121.383C165.713,120.77 165.216,120.272 164.602,120.272C163.989,120.272 163.491,120.77 163.491,121.383ZM139.355,123.837C142.839,128.863 143.052,133.889 139.372,138.915C139.009,139.41 139.117,140.105 139.612,140.468C140.106,140.83 140.802,140.722 141.165,140.228C145.474,134.342 145.261,128.456 141.181,122.57C140.832,122.067 140.139,121.941 139.635,122.29C139.131,122.64 139.006,123.333 139.355,123.837ZM114.381,126.5L120.765,139.268C120.953,139.645 121.338,139.882 121.759,139.882C122.18,139.882 122.565,139.645 122.753,139.268L129.137,126.5C129.411,125.952 129.188,125.284 128.64,125.01C128.091,124.735 127.423,124.958 127.149,125.507L125.655,128.495L117.863,128.495L116.369,125.507C116.095,124.958 115.427,124.735 114.878,125.01C114.329,125.284 114.107,125.952 114.381,126.5ZM148.494,128.734C151.739,130.909 155.539,134.205 157.632,136.465C158.048,136.915 158.752,136.942 159.202,136.525C159.652,136.108 159.679,135.405 159.262,134.955C157.079,132.598 153.116,129.157 149.731,126.888C149.221,126.547 148.531,126.683 148.189,127.193C147.848,127.702 147.984,128.393 148.494,128.734ZM91.169,128.734C94.414,130.909 98.214,134.205 100.307,136.465C100.723,136.915 101.427,136.942 101.877,136.525C102.327,136.108 102.354,135.405 101.937,134.955C99.754,132.598 95.791,129.157 92.406,126.888C91.896,126.547 91.206,126.683 90.864,127.193C90.523,127.702 90.659,128.393 91.169,128.734ZM124.544,130.718L118.975,130.718L121.759,136.287L124.544,130.718ZM135.384,120.023C133.82,120.023 132.544,121.308 132.544,122.898C132.544,124.489 133.82,125.773 135.384,125.773C136.948,125.773 138.225,124.489 138.225,122.898C138.225,121.308 136.948,120.023 135.384,120.023ZM107.605,120.023C106.041,120.023 104.765,121.308 104.765,122.898C104.765,124.489 106.041,125.773 107.605,125.773C109.169,125.773 110.446,124.489 110.446,122.898C110.446,121.308 109.169,120.023 107.605,120.023ZM135.384,121.69C136.036,121.69 136.558,122.235 136.558,122.898C136.558,123.561 136.036,124.106 135.384,124.106C134.732,124.106 134.21,123.561 134.21,122.898C134.21,122.235 134.732,121.69 135.384,121.69ZM107.605,121.69C108.257,121.69 108.779,122.235 108.779,122.898C108.779,123.561 108.257,124.106 107.605,124.106C106.953,124.106 106.431,123.561 106.431,122.898C106.431,122.235 106.953,121.69 107.605,121.69ZM164.491,95.596L164.491,115.982C164.491,116.596 164.989,117.094 165.602,117.094C166.216,117.094 166.713,116.596 166.713,115.982L166.713,95.596C166.713,94.983 166.216,94.485 165.602,94.485C164.989,94.485 164.491,94.983 164.491,95.596ZM158.783,95.596L158.783,115.982C158.783,116.596 159.281,117.094 159.894,117.094C160.508,117.094 161.005,116.596 161.005,115.982L161.005,95.596C161.005,94.983 160.508,94.485 159.894,94.485C159.281,94.485 158.783,94.983 158.783,95.596ZM84.487,95.596L84.487,115.982C84.487,116.596 84.984,117.094 85.598,117.094C86.211,117.094 86.709,116.596 86.709,115.982L86.709,95.596C86.709,94.983 86.211,94.485 85.598,94.485C84.984,94.485 84.487,94.983 84.487,95.596ZM99.141,99.491C97.243,101.343 96.296,103.575 96.296,106.185C96.296,108.795 97.243,111.03 99.14,112.89C101.032,114.744 103.325,115.673 106.019,115.673C108.713,115.673 111.006,114.744 112.898,112.89C114.795,111.03 115.743,108.795 115.743,106.185C115.743,103.575 114.795,101.343 112.897,99.491C111.005,97.644 108.713,96.719 106.019,96.719C103.325,96.719 101.033,97.644 99.141,99.491ZM74.752,110.872C74.752,110.872 74.752,110.871 74.753,110.87C75.026,110.338 74.861,109.686 74.368,109.347C74.359,109.341 74.35,109.334 74.341,109.328C74.114,109.172 73.83,109.122 73.563,109.19C73.296,109.259 73.072,109.44 72.948,109.687C72.485,110.614 72.142,111.196 71.911,111.428C71.482,111.856 71.088,112.084 70.712,112.084C70.467,112.084 70.249,111.983 70.053,111.787C69.799,111.534 69.809,111.127 70.011,110.57L72.293,103.376C72.954,103.478 73.564,103.529 74.122,103.529C75.209,103.529 76.12,103.32 76.855,102.91L77.086,102.796C77.557,102.58 77.859,102.109 77.859,101.591L77.859,101.529C77.859,101.26 77.724,101.009 77.499,100.86C77.274,100.712 76.99,100.686 76.743,100.791L76.742,100.791C75.633,101.2 74.67,101.407 73.853,101.407C73.262,101.407 72.524,101.347 71.639,101.229C70.428,101.048 69.611,100.958 69.187,100.958C68.389,100.958 67.591,101.08 66.793,101.326C66.793,101.326 66.55,101.432 66.294,101.542C65.943,101.695 65.715,102.042 65.715,102.426L65.715,102.633C65.715,102.927 65.865,103.202 66.112,103.361C66.36,103.52 66.671,103.543 66.94,103.421C67.573,103.133 68.292,102.991 69.097,102.991C69.444,102.991 69.833,103.034 70.265,103.119L68.09,110.077C67.642,111.488 67.795,112.543 68.501,113.249C69.081,113.829 69.759,114.117 70.533,114.117C71.544,114.117 72.462,113.711 73.283,112.89C73.772,112.4 74.263,111.728 74.752,110.872ZM100.699,111.356C99.231,109.929 98.496,108.21 98.496,106.196C98.496,104.183 99.231,102.463 100.699,101.037C102.173,99.604 103.946,98.889 106.019,98.889C108.092,98.889 109.866,99.604 111.339,101.037C112.807,102.463 113.542,104.183 113.542,106.196C113.542,108.21 112.807,109.929 111.339,111.356C109.866,112.788 108.092,113.503 106.019,113.503C103.946,113.503 102.173,112.788 100.699,111.356ZM101.615,101.883C100.382,103.081 99.768,104.52 99.768,106.196C99.768,107.873 100.383,109.308 101.617,110.5C102.844,111.684 104.311,112.277 106.019,112.277C107.727,112.277 109.195,111.684 110.422,110.5C111.656,109.308 112.271,107.873 112.271,106.196C112.271,104.52 111.656,103.081 110.423,101.883C109.196,100.69 107.728,100.094 106.019,100.094C104.311,100.094 102.843,100.69 101.615,101.883ZM103.15,108.952C102.363,108.187 101.968,107.265 101.968,106.185C101.968,105.105 102.363,104.183 103.15,103.419C103.943,102.648 104.9,102.263 106.019,102.263C107.139,102.263 108.095,102.648 108.888,103.419C109.675,104.183 110.07,105.105 110.07,106.185C110.07,107.265 109.675,108.187 108.888,108.952C108.095,109.722 107.139,110.107 106.019,110.107C104.9,110.107 103.943,109.722 103.15,108.952ZM163.491,70.011L163.491,90.397C163.491,91.011 163.989,91.508 164.602,91.508C165.216,91.508 165.713,91.011 165.713,90.397L165.713,70.011C165.713,69.398 165.216,68.9 164.602,68.9C163.989,68.9 163.491,69.398 163.491,70.011ZM85.905,87.65C86.132,87.936 86.283,88.21 86.286,88.496C86.289,88.767 86.15,89.024 85.924,89.294C85.53,89.764 85.591,90.466 86.061,90.86C86.531,91.254 87.232,91.192 87.626,90.722C88.252,89.976 88.516,89.217 88.508,88.471C88.5,87.741 88.225,86.998 87.645,86.268C87.264,85.788 86.565,85.707 86.084,86.089C85.604,86.47 85.523,87.169 85.905,87.65ZM157.444,71.992L140.224,87.152C139.764,87.557 139.719,88.26 140.124,88.72C140.529,89.18 141.232,89.225 141.692,88.82L158.913,73.66C159.373,73.254 159.418,72.552 159.012,72.091C158.607,71.631 157.904,71.586 157.444,71.992ZM124.58,77.379C127.826,79.554 131.626,82.85 133.718,85.11C134.135,85.56 134.839,85.587 135.289,85.17C135.739,84.753 135.765,84.05 135.349,83.6C133.166,81.243 129.203,77.802 125.818,75.533C125.308,75.192 124.618,75.328 124.276,75.838C123.935,76.347 124.071,77.038 124.58,77.379ZM98.663,79.567L91.284,79.567C90.671,79.567 90.173,80.065 90.173,80.678C90.173,81.291 90.671,81.789 91.284,81.789L98.663,81.789C99.277,81.789 99.774,81.291 99.774,80.678C99.774,80.065 99.277,79.567 98.663,79.567ZM107.1,70.24L104.677,72.722C104.248,73.161 104.257,73.865 104.696,74.294C105.134,74.722 105.838,74.713 106.267,74.275L108.69,71.792C109.119,71.353 109.11,70.649 108.671,70.221C108.233,69.792 107.528,69.801 107.1,70.24ZM112.729,72.965L112.742,72.985C112.786,73.053 112.835,73.103 112.884,73.14C113.07,73.296 113.283,73.353 113.52,73.323C113.756,73.293 113.964,73.178 114.127,72.956C114.128,72.954 114.129,72.952 114.131,72.951C114.494,72.443 114.895,72.16 115.37,72.16C115.75,72.16 116.109,72.407 116.485,72.832C116.485,72.833 116.485,72.833 116.486,72.834C117.222,73.661 118.041,74.054 118.92,74.054C120.014,74.063 120.928,73.559 121.635,72.507C121.64,72.5 121.645,72.493 121.649,72.485C121.764,72.295 121.818,72.079 121.798,71.834C121.778,71.577 121.682,71.367 121.522,71.2L121.551,71.234L121.462,71.141C121.264,70.942 121.028,70.863 120.758,70.896C120.514,70.927 120.301,71.047 120.137,71.286C119.936,71.563 119.737,71.77 119.528,71.891C119.346,71.997 119.143,72.048 118.92,72.048L118.912,72.048C118.534,72.054 118.179,71.809 117.805,71.387C117.805,71.387 117.804,71.387 117.804,71.386C117.068,70.559 116.249,70.166 115.37,70.166C114.276,70.157 113.362,70.661 112.655,71.713C112.654,71.714 112.653,71.715 112.652,71.716C112.531,71.899 112.471,72.117 112.491,72.374C112.51,72.61 112.592,72.805 112.729,72.965ZM113.754,72.577C113.781,72.739 113.704,72.875 113.599,72.982C113.555,73.036 113.5,73.08 113.439,73.114C113.319,73.196 113.21,73.241 113.21,73.241C113.434,73.241 113.636,73.106 113.722,72.899C113.766,72.795 113.776,72.683 113.754,72.577ZM112.834,73.095L112.814,73.076C112.821,73.082 112.828,73.089 112.834,73.095Z"/>
    </g>
</svg>
