<?xml version="1.0" encoding="UTF-8" standalone="no"?>
<!DOCTYPE svg PUBLIC "-//W3C//DTD SVG 1.1//EN" "http://www.w3.org/Graphics/SVG/1.1/DTD/svg11.dtd">
<svg width="57px" height="26px" version="1.1" xmlns="http://www.w3.org/2000/svg" xmlns:xlink="http://www.w3.org/1999/xlink" xml:space="preserve" xmlns:serif="http://www.serif.com/" style="fill-rule:evenodd;clip-rule:evenodd;stroke-linejoin:round;stroke-miterlimit:2;">
    <g transform="matrix(0.539541,0,0,0.56349,-30.8495,-84.9388)">
        <path d="M79.73,196.878C75.486,196.878 71.466,195.04 68.778,191.871C65.562,188.098 64.312,183.84 64.312,178.985C64.312,163.76 83.68,150.737 110,150.737C136.32,150.737 155.688,163.76 155.688,178.985C155.688,183.84 154.438,188.098 151.217,191.866C148.53,195.035 144.512,196.872 140.27,196.872C127.3,196.878 92.7,196.878 79.73,196.878Z" style="fill:white;"/>
    </g>
    <g transform="matrix(0.543815,0,0,0.543815,-31.3196,-92.0872)">
        <path d="M69.492,184.056C62.761,193.765 62.405,203.475 69.514,213.185C69.991,213.836 70.907,213.978 71.558,213.501C72.209,213.024 72.351,212.108 71.874,211.457C65.593,202.879 65.949,194.3 71.896,185.722C72.356,185.059 72.191,184.147 71.527,183.687C70.864,183.227 69.952,183.392 69.492,184.056ZM148.104,185.722C154.051,194.3 154.407,202.879 148.126,211.457C147.649,212.108 147.791,213.024 148.442,213.501C149.093,213.978 150.009,213.836 150.486,213.185C157.595,203.475 157.239,193.765 150.508,184.056C150.048,183.392 149.136,183.227 148.473,183.687C147.809,184.147 147.644,185.059 148.104,185.722ZM125.003,193.067L127.623,187.828C127.984,187.106 128.988,186.875 129.71,187.236C130.411,187.587 130.708,188.426 130.393,189.136L119.678,210.567C119.43,211.062 118.924,211.375 118.37,211.375L118.215,211.375C117.661,211.375 117.155,211.062 116.907,210.567L106.192,189.136C105.877,188.426 106.174,187.587 106.875,187.236C107.597,186.875 108.602,187.106 108.963,187.828L111.582,193.067L125.003,193.067ZM113.045,195.992L118.293,206.488L123.541,195.992L113.045,195.992ZM95.719,183.357C93.876,183.357 92.372,184.872 92.372,186.747C92.372,188.622 93.876,190.137 95.719,190.137C97.563,190.137 99.066,188.622 99.066,186.747C99.066,184.872 97.563,183.357 95.719,183.357ZM140.18,183.357C138.337,183.357 136.833,184.872 136.833,186.747C136.833,188.622 138.337,190.137 140.18,190.137C142.023,190.137 143.527,188.622 143.527,186.747C143.527,184.872 142.023,183.357 140.18,183.357ZM95.719,185.024C96.651,185.024 97.4,185.8 97.4,186.747C97.4,187.694 96.651,188.47 95.719,188.47C94.788,188.47 94.039,187.694 94.039,186.747C94.039,185.8 94.788,185.024 95.719,185.024ZM140.18,185.024C141.111,185.024 141.86,185.8 141.86,186.747C141.86,187.694 141.111,188.47 140.18,188.47C139.249,188.47 138.5,187.694 138.5,186.747C138.5,185.8 139.249,185.024 140.18,185.024Z"/>
    </g>
</svg>
