<?xml version="1.0" encoding="UTF-8" standalone="no"?>
<!DOCTYPE svg PUBLIC "-//W3C//DTD SVG 1.1//EN" "http://www.w3.org/Graphics/SVG/1.1/DTD/svg11.dtd">
<svg width="45px" height="79px" version="1.1" xmlns="http://www.w3.org/2000/svg" xmlns:xlink="http://www.w3.org/1999/xlink" xml:space="preserve" xmlns:serif="http://www.serif.com/" style="fill-rule:evenodd;clip-rule:evenodd;stroke-linejoin:round;stroke-miterlimit:2;">
    <g transform="matrix(-0.580591,0.0553266,-0.0558798,0.572118,110.196,-315.181)">
        <path d="M124.631,579.001C129.98,586.87 129.101,595.342 121.777,604.438C118.319,608.39 114.384,610.963 110.158,613.242C109.892,613.385 109.681,613.63 109.58,613.911C109.48,614.192 109.501,614.481 109.637,614.699C114.395,622.4 113.948,631.679 106.893,640.439C97.231,647.724 88.474,648.522 80.557,642.986C75.192,635.605 76.419,626.53 82.411,617.928C82.629,617.619 82.683,617.244 82.553,616.951C82.422,616.658 82.128,616.493 81.785,616.521C54.043,618.721 46.367,596.762 70.198,576.004C70.198,576.004 72.329,553.861 73.136,545.475C73.191,544.911 73.565,544.367 74.094,544.085C74.623,543.802 75.208,543.833 75.592,544.163C82.487,550.109 103.598,568.311 103.598,568.311C112.348,569.566 119.287,572.818 124.631,579.001Z" style="fill:white;"/>
    </g>
    <g transform="matrix(0.623389,0,0,0.623389,8.47403,30.4383)">
        <path d="M-12.667,50.459L-12.667,76.79C-12.667,77.403 -12.17,77.9 -11.557,77.9C-10.945,77.9 -10.448,77.403 -10.448,76.79L-10.448,50.459C-10.448,49.847 -10.945,49.35 -11.557,49.35C-12.17,49.35 -12.667,49.847 -12.667,50.459ZM28.97,77.302L29.086,77.171C29.249,76.926 29.323,76.648 29.307,76.336C29.29,76.021 29.189,75.763 29.009,75.56C26.178,72.193 23.409,69.261 20.703,66.763C19.985,66.077 19.527,65.605 19.331,65.345C19.16,65.12 19.073,64.879 19.073,64.621C19.073,64.33 19.168,64.067 19.358,63.832C19.575,63.562 20.098,63.057 20.926,62.313C23.205,60.289 25.677,57.82 28.343,54.906C28.343,54.905 28.344,54.905 28.344,54.904C28.523,54.704 28.633,54.439 28.665,54.105C28.698,53.774 28.631,53.486 28.471,53.242L28.404,53.12C28.226,52.852 27.999,52.712 27.732,52.687C27.463,52.663 27.22,52.756 27.005,52.976C27.004,52.978 27.003,52.979 27.001,52.98C24.552,55.619 22.096,58.06 19.633,60.303C18.402,61.415 17.631,62.202 17.317,62.662C16.986,63.145 16.815,63.797 16.815,64.621C16.815,65.407 16.979,66.035 17.295,66.508C17.596,66.958 18.318,67.722 19.465,68.796C22.077,71.244 24.778,74.096 27.568,77.353C27.772,77.628 28.016,77.742 28.29,77.717C28.549,77.693 28.779,77.559 28.97,77.302ZM13.773,77.302L13.889,77.171C14.052,76.926 14.126,76.648 14.11,76.336C14.094,76.021 13.992,75.763 13.812,75.56C10.982,72.193 8.213,69.261 5.506,66.763C4.788,66.077 4.33,65.605 4.134,65.345C3.963,65.12 3.876,64.879 3.876,64.621C3.876,64.33 3.972,64.067 4.161,63.832C4.378,63.562 4.902,63.057 5.729,62.313C8.008,60.289 10.48,57.82 13.146,54.906C13.146,54.905 13.147,54.905 13.148,54.904C13.326,54.704 13.436,54.439 13.469,54.105C13.501,53.774 13.434,53.486 13.275,53.242L13.207,53.12C13.029,52.852 12.802,52.712 12.535,52.687C12.267,52.663 12.023,52.756 11.808,52.976C11.807,52.978 11.806,52.979 11.805,52.98C9.355,55.619 6.899,58.06 4.436,60.303C3.205,61.415 2.435,62.202 2.12,62.662C1.79,63.145 1.618,63.797 1.618,64.621C1.618,65.407 1.782,66.035 2.098,66.508C2.399,66.958 3.121,67.722 4.269,68.796C6.88,71.244 9.581,74.096 12.371,77.353C12.575,77.628 12.819,77.742 13.093,77.717C13.353,77.693 13.582,77.559 13.773,77.302ZM28.75,77.242L28.809,77.378C28.757,77.378 28.708,77.358 28.67,77.325C28.698,77.3 28.724,77.272 28.75,77.242ZM13.554,77.242L13.612,77.378C13.56,77.378 13.511,77.358 13.473,77.325C13.501,77.3 13.528,77.272 13.554,77.242ZM28.963,77.309C28.96,77.313 28.956,77.317 28.952,77.32C28.949,77.323 28.945,77.327 28.942,77.33C28.949,77.323 28.957,77.317 28.963,77.309ZM13.767,77.309C13.763,77.313 13.759,77.317 13.756,77.32C13.752,77.323 13.748,77.327 13.745,77.33C13.753,77.323 13.76,77.317 13.767,77.309ZM38.473,72.179C38.986,72.734 39.292,73.272 39.299,73.827C39.306,74.37 39.019,74.895 38.489,75.438C38.168,75.767 38.174,76.295 38.503,76.616C38.832,76.937 39.36,76.931 39.682,76.602C40.586,75.675 40.977,74.732 40.965,73.806C40.953,72.892 40.542,71.962 39.697,71.048C39.385,70.71 38.858,70.689 38.52,71.002C38.182,71.314 38.161,71.841 38.473,72.179ZM32.962,70.781L32.952,70.78C32.749,70.78 32.545,70.853 32.384,71.002C32.046,71.314 32.025,71.841 32.337,72.179C32.85,72.734 33.156,73.272 33.163,73.827C33.17,74.37 32.883,74.895 32.353,75.438C32.032,75.767 32.038,76.295 32.367,76.616C32.529,76.774 32.739,76.853 32.949,76.853L32.959,76.853C33.173,76.85 33.385,76.766 33.546,76.602C34.45,75.675 34.841,74.732 34.829,73.806C34.817,72.892 34.406,71.962 33.561,71.048C33.4,70.874 33.182,70.784 32.962,70.781ZM13.192,53.534C13.228,53.515 13.259,53.485 13.279,53.448C13.305,53.399 13.311,53.344 13.296,53.293C13.324,53.395 13.249,53.469 13.183,53.512C13.186,53.52 13.189,53.527 13.192,53.534ZM28.389,53.534C28.425,53.515 28.456,53.485 28.476,53.448C28.502,53.399 28.507,53.344 28.493,53.293C28.521,53.395 28.446,53.469 28.38,53.512C28.383,53.52 28.386,53.527 28.389,53.534ZM13.29,53.274L13.287,53.265C13.29,53.273 13.293,53.282 13.296,53.29L13.29,53.274ZM28.487,53.274L28.483,53.265C28.487,53.273 28.49,53.282 28.492,53.29L28.487,53.274ZM5.318,19.08C2.317,23.142 0.757,27.214 0.715,31.276C0.673,35.353 2.153,39.441 5.335,43.518C5.713,44.003 6.414,44.089 6.898,43.711C7.383,43.333 7.469,42.633 7.091,42.148C4.267,38.528 2.904,34.919 2.942,31.299C2.98,27.664 4.424,24.038 7.109,20.403C7.474,19.909 7.369,19.211 6.875,18.846C6.381,18.481 5.683,18.586 5.318,19.08ZM29.617,20.403C32.303,24.038 33.746,27.664 33.784,31.299C33.822,34.919 32.46,38.528 29.635,42.148C29.257,42.633 29.343,43.333 29.828,43.711C30.313,44.089 31.013,44.003 31.391,43.518C34.573,39.441 36.054,35.353 36.011,31.276C35.969,27.214 34.41,23.142 31.409,19.08C31.044,18.586 30.346,18.481 29.851,18.846C29.357,19.211 29.252,19.909 29.617,20.403ZM-4.965,21.832C-4.857,29.848 -6.698,34.791 -12.927,39.351C-13.422,39.715 -13.53,40.412 -13.167,40.908C-12.804,41.404 -12.107,41.511 -11.611,41.148C-4.722,36.104 -2.619,30.668 -2.738,21.802C-2.746,21.188 -3.252,20.696 -3.866,20.704C-4.481,20.712 -4.973,21.218 -4.965,21.832ZM41.401,22.055C43.096,29.204 45.985,32.891 50.649,35.783C50.65,35.783 42.172,37.713 42.172,37.713C41.62,37.839 41.274,38.39 41.399,38.942C41.525,39.494 42.076,39.84 42.628,39.715L53.696,37.195C54.117,37.099 54.432,36.751 54.487,36.323C54.541,35.896 54.322,35.48 53.94,35.282C48.417,32.43 45.184,29.114 43.398,21.582C43.268,21.031 42.714,20.69 42.163,20.82C41.612,20.951 41.271,21.504 41.401,22.055ZM-5.317,-12.64C-8.318,-8.578 -9.877,-4.506 -9.919,-0.444C-9.962,3.634 -8.481,7.721 -5.299,11.798C-4.921,12.283 -4.221,12.369 -3.736,11.991C-3.251,11.613 -3.165,10.913 -3.543,10.428C-6.368,6.809 -7.73,3.199 -7.692,-0.421C-7.654,-4.056 -6.211,-7.681 -3.525,-11.316C-3.16,-11.811 -3.265,-12.509 -3.759,-12.874C-4.254,-13.239 -4.952,-13.134 -5.317,-12.64ZM51.986,-11.316C54.672,-7.681 56.115,-4.056 56.153,-0.421C56.191,3.199 54.829,6.809 52.004,10.428C51.626,10.913 51.712,11.613 52.197,11.991C52.682,12.369 53.382,12.283 53.76,11.798C56.942,7.721 58.423,3.634 58.38,-0.444C58.338,-4.506 56.779,-8.578 53.778,-12.64C53.413,-13.134 52.715,-13.239 52.22,-12.874C51.726,-12.509 51.621,-11.811 51.986,-11.316ZM42.508,7.679C42.805,8 42.996,8.303 43,8.624C43.004,8.932 42.825,9.223 42.524,9.531C42.203,9.86 42.209,10.388 42.538,10.71C42.867,11.031 43.395,11.025 43.717,10.695C44.392,10.003 44.675,9.294 44.666,8.602C44.657,7.923 44.36,7.227 43.732,6.548C43.42,6.21 42.893,6.189 42.555,6.501C42.217,6.813 42.196,7.341 42.508,7.679ZM10.605,3.186L19.215,3.186L20.927,7.521C21.153,8.092 21.798,8.372 22.369,8.147C22.939,7.921 23.219,7.276 22.994,6.705L15.943,-11.148C15.776,-11.572 15.366,-11.851 14.91,-11.851C14.454,-11.851 14.044,-11.572 13.877,-11.148L6.826,6.705C6.601,7.275 6.881,7.921 7.451,8.147C8.022,8.372 8.668,8.092 8.893,7.521L10.605,3.186ZM11.482,0.964L14.91,-7.715L18.338,0.964L11.482,0.964ZM43.477,-4.874C44.171,-4.874 44.734,-4.31 44.734,-3.616C44.734,-2.922 44.171,-2.359 43.477,-2.359C42.783,-2.359 42.22,-2.922 42.22,-3.616C42.22,-4.31 42.783,-4.874 43.477,-4.874ZM1.732,-10.965L1.732,-6.803C1.732,-6.189 2.23,-5.691 2.843,-5.691C3.456,-5.691 3.954,-6.189 3.954,-6.803L3.954,-10.965C3.954,-11.579 3.456,-12.076 2.843,-12.076C2.23,-12.076 1.732,-11.579 1.732,-10.965ZM27.051,-13.323L30.751,-9.294C31.134,-8.877 31.783,-8.849 32.2,-9.232C32.617,-9.615 32.645,-10.265 32.262,-10.682L28.562,-14.71C28.179,-15.127 27.53,-15.155 27.113,-14.772C26.696,-14.389 26.668,-13.74 27.051,-13.323ZM45.054,-47.716L45.054,-20.123C45.054,-19.51 45.552,-19.012 46.165,-19.012C46.778,-19.012 47.276,-19.51 47.276,-20.123L47.276,-47.716C47.276,-48.329 46.778,-48.827 46.165,-48.827C45.552,-48.827 45.054,-48.329 45.054,-47.716ZM38.547,-45.03L15.599,-24.827C15.139,-24.422 15.094,-23.72 15.499,-23.26C15.904,-22.8 16.606,-22.756 17.066,-23.161L40.015,-43.363C40.474,-43.768 40.519,-44.47 40.114,-44.93C39.709,-45.39 39.007,-45.435 38.547,-45.03Z" style="fill-rule:nonzero;"/>
    </g>
</svg>
