<?xml version="1.0" encoding="UTF-8" standalone="no"?>
<!DOCTYPE svg PUBLIC "-//W3C//DTD SVG 1.1//EN" "http://www.w3.org/Graphics/SVG/1.1/DTD/svg11.dtd">
<svg width="48px" height="62px" version="1.1" xmlns="http://www.w3.org/2000/svg" xmlns:xlink="http://www.w3.org/1999/xlink" xml:space="preserve" xmlns:serif="http://www.serif.com/" style="fill-rule:evenodd;clip-rule:evenodd;stroke-linejoin:round;stroke-miterlimit:2;">
    <g transform="matrix(0.61512,0,0,0.61512,-43.9192,-73.0323)">
        <path d="M124.846,183.132C124.629,183.121 124.421,183.221 124.294,183.398C124.168,183.575 124.14,183.804 124.221,184.006C125.707,187.698 127.611,191.677 129.753,195.317C133.879,201.269 134.935,207.489 132.547,213.577C131.427,216.482 128.635,218.398 125.521,218.4C118.574,218.404 91.828,218.411 91.828,218.411C90.33,218.14 88.645,217.517 88.123,216.367C64.516,220.518 72.436,204.708 78.066,204.209C75.081,196.737 74.387,189.869 76.929,183.853C71.401,176.303 71.696,168.753 76.929,161.203C80.204,157.04 82.161,153.23 80.966,150.259C75.438,142.709 75.91,135.28 80.966,127.609C87.623,117.509 110.572,117.284 117.34,127.609C122.076,134.834 122.794,141.824 118.251,148.9C117.661,149.819 117.113,150.923 117.087,152.014C117.004,155.494 117.74,158.382 118.418,160.94L126.117,160.94C126.823,160.94 127.396,161.513 127.396,162.219L127.396,170.278C129.762,169.663 131.965,168.991 134.038,167.78C135.332,165.059 137.762,163.225 140.544,163.225C144.684,163.225 148.044,167.285 148.044,172.287C148.044,177.246 144.825,181.291 140.733,181.349C136.362,182.381 130.637,183.386 124.846,183.132Z" style="fill:white;"/>
    </g>
    <g transform="matrix(0.61512,0,0,0.61512,-43.9192,-73.0323)">
        <path d="M117.34,219.522L124.959,219.522C125.573,219.522 126.07,219.024 126.07,218.411C126.07,217.798 125.573,217.3 124.959,217.3L117.34,217.3C116.727,217.3 116.229,217.798 116.229,218.411C116.229,219.024 116.727,219.522 117.34,219.522ZM90.791,219.522L105.515,219.522C106.128,219.522 106.626,219.024 106.626,218.411C106.626,217.798 106.128,217.3 105.515,217.3L90.791,217.3C90.178,217.3 89.68,217.798 89.68,218.411C89.68,219.024 90.178,219.522 90.791,219.522ZM128.551,196.15C133.392,203.134 133.686,210.119 128.573,217.103C128.096,217.754 128.238,218.67 128.889,219.147C129.54,219.624 130.456,219.482 130.933,218.831C136.875,210.715 136.581,202.6 130.955,194.484C130.495,193.821 129.583,193.655 128.92,194.115C128.256,194.575 128.091,195.487 128.551,196.15ZM109.14,196.15C113.981,203.134 114.275,210.119 109.162,217.103C108.685,217.754 108.827,218.67 109.478,219.147C110.129,219.624 111.045,219.482 111.522,218.831C117.464,210.715 117.17,202.6 111.544,194.484C111.084,193.821 110.172,193.655 109.509,194.115C108.845,194.575 108.68,195.487 109.14,196.15ZM75.377,193.563L75.559,193.536L75.561,193.535C75.892,193.482 76.197,193.57 76.473,193.81C76.729,194.032 76.882,194.326 76.925,194.696C77.324,197.378 77.805,200.061 78.367,202.743C80.73,201.471 83.729,200.314 87.363,199.274C87.686,199.165 87.999,199.22 88.298,199.456C88.566,199.667 88.734,199.951 88.795,200.311C88.855,200.661 88.804,200.987 88.644,201.288C88.475,201.606 88.23,201.813 87.913,201.915C87.911,201.916 87.908,201.917 87.905,201.917C83.297,203.248 79.847,204.713 77.558,206.32C75.356,207.866 74.228,209.481 74.228,211.201C74.228,214.191 76.577,215.608 81.177,215.608C83.279,215.608 85.461,215.437 87.721,215.094C88.029,215.042 88.329,215.126 88.616,215.364C88.89,215.593 89.041,215.897 89.062,216.278C89.082,216.641 88.998,216.954 88.817,217.22C88.628,217.499 88.366,217.677 88.03,217.753C88.023,217.754 88.015,217.756 88.008,217.757C85.57,218.124 83.293,218.307 81.177,218.307C78.084,218.307 75.736,217.708 74.124,216.535C72.474,215.334 71.642,213.597 71.642,211.316C71.642,208.676 73.083,206.298 75.999,204.207L75.992,204.164C75.451,201.612 74.918,198.6 74.393,195.129C74.392,195.126 74.392,195.123 74.392,195.119C74.352,194.784 74.419,194.461 74.598,194.149C74.796,193.805 75.058,193.618 75.366,193.565M75.727,160.37C70.101,168.485 69.807,176.601 75.749,184.717C76.226,185.368 77.142,185.509 77.793,185.033C78.444,184.556 78.586,183.64 78.109,182.989C72.996,176.004 73.29,169.02 78.131,162.036C78.591,161.373 78.426,160.461 77.762,160.001C77.099,159.541 76.187,159.706 75.727,160.37ZM107.635,183.786L130.812,183.786C131.123,183.786 131.395,183.676 131.627,183.454C131.864,183.229 131.98,182.963 131.98,182.659C131.98,182.355 131.864,182.089 131.627,181.864C131.395,181.642 131.123,181.532 130.812,181.532L107.635,181.532C107.324,181.532 107.052,181.642 106.819,181.864C106.583,182.089 106.467,182.355 106.467,182.659C106.467,182.963 106.583,183.229 106.819,183.454C107.052,183.676 107.324,183.786 107.635,183.786ZM140.544,161.836C135.716,161.836 131.655,166.453 131.655,172.287C131.655,178.12 135.716,182.738 140.544,182.738C145.372,182.738 149.433,178.12 149.433,172.287C149.433,166.453 145.372,161.836 140.544,161.836ZM82.967,170.228C86.096,169.334 88.812,167.958 91.332,167.215C93.431,166.596 95.373,166.441 97.328,167.805C98.614,168.702 99.279,169.814 99.574,170.929C100.2,173.359 98.974,175.885 96.677,176.897C96.674,176.898 96.672,176.899 96.669,176.9C94.91,177.687 92.948,178.455 90.258,178.642C89.493,178.694 88.915,179.358 88.968,180.123C89.021,180.888 89.685,181.466 90.45,181.413C93.533,181.199 95.788,180.338 97.804,179.436C101.343,177.873 103.23,173.976 102.263,170.23C102.262,170.227 102.261,170.225 102.261,170.223C101.82,168.553 100.845,166.871 98.917,165.526C96.183,163.619 93.482,163.685 90.547,164.551C88.033,165.292 85.325,166.665 82.204,167.557C81.467,167.767 81.039,168.537 81.25,169.274C81.46,170.011 82.23,170.438 82.967,170.228ZM140.544,164.614C143.996,164.614 146.655,168.116 146.655,172.287C146.655,176.458 143.996,179.96 140.544,179.96C137.092,179.96 134.433,176.458 134.433,172.287C134.433,168.116 137.092,164.614 140.544,164.614ZM111.004,159.916C110.672,159.916 110.39,160.033 110.158,160.265C109.926,160.497 109.809,160.78 109.809,161.111L109.809,176.07C109.809,176.402 109.926,176.684 110.158,176.916C110.39,177.149 110.672,177.265 111.004,177.265L127.442,177.265C127.774,177.265 128.056,177.149 128.289,176.916C128.521,176.684 128.637,176.402 128.637,176.07L128.637,161.111C128.637,160.78 128.521,160.497 128.289,160.265C128.056,160.033 127.774,159.916 127.442,159.916L111.004,159.916ZM112.419,169.676L126.028,169.676L126.028,175.012L112.419,175.012L112.419,169.676ZM112.419,162.197L126.028,162.197L126.028,167.45L112.419,167.45L112.419,162.197ZM92.486,153.006L99.043,153.006C99.851,153.006 100.506,152.35 100.506,151.543C100.506,150.736 99.851,150.081 99.043,150.081L92.486,150.081C91.679,150.081 91.023,150.736 91.023,151.543C91.023,152.35 91.679,153.006 92.486,153.006ZM79.764,126.776C74.138,134.892 73.843,143.007 79.786,151.123C80.262,151.774 81.178,151.916 81.83,151.439C82.481,150.962 82.622,150.046 82.146,149.395C77.032,142.411 77.326,135.427 82.168,128.443C82.627,127.779 82.462,126.867 81.799,126.407C81.135,125.948 80.224,126.113 79.764,126.776ZM116.138,128.443C120.98,135.427 121.274,142.411 116.16,149.395C115.684,150.046 115.825,150.962 116.476,151.439C117.128,151.916 118.044,151.774 118.52,151.123C124.463,143.007 124.168,134.892 118.542,126.776C118.082,126.113 117.171,125.948 116.507,126.407C115.844,126.867 115.679,127.779 116.138,128.443ZM87.323,129.689L87.323,133.132C87.323,133.94 87.978,134.595 88.786,134.595C89.593,134.595 90.248,133.94 90.248,133.132L90.248,129.689C90.248,128.882 89.593,128.227 88.786,128.227C87.978,128.227 87.323,128.882 87.323,129.689ZM104.001,127.265L107.46,130.723C108.03,131.294 108.957,131.294 109.528,130.723C110.099,130.152 110.099,129.226 109.528,128.655L106.069,125.197C105.499,124.626 104.572,124.626 104.001,125.197C103.43,125.767 103.43,126.694 104.001,127.265Z" style="fill-rule:nonzero;"/>
    </g>
</svg>
