<?xml version="1.0" encoding="UTF-8" standalone="no"?>
<svg xmlns:xlink="http://www.w3.org/1999/xlink" height="46.7px" width="73.15px" xmlns="http://www.w3.org/2000/svg">
  <g transform="matrix(1.0, 0.0, 0.0, 1.0, 36.55, 23.35)">
    <path d="M25.7 -15.9 Q22.85 -15.0 20.95 -18.15 18.7 -13.05 14.2 -18.4 11.85 -15.55 9.75 -15.65 7.9 -15.75 4.95 -18.45 3.5 -17.75 1.2 -15.95 -0.45 -14.6 -4.05 -16.55 -7.0 -18.15 -7.95 -17.05 -11.6 -12.85 -15.8 -17.4 -11.6 -12.85 -7.95 -17.05 -7.0 -18.15 -4.05 -16.55 -0.45 -14.6 1.2 -15.95 3.5 -17.75 4.95 -18.45 7.9 -15.75 9.75 -15.65 11.85 -15.55 14.2 -18.4 18.7 -13.05 20.95 -18.15 22.85 -15.0 25.7 -15.9 M-19.4 -22.8 Q-10.95 -22.15 -1.55 -22.55 8.1 -23.0 17.05 -21.45 L23.45 -20.9 23.7 -20.9 29.25 -10.65 31.85 -5.95 36.1 3.4 30.95 4.2 25.2 4.35 16.95 4.1 14.0 4.05 5.25 3.75 -1.55 4.2 -1.6 4.2 -3.05 4.35 -5.4 0.25 -7.55 -3.55 -10.1 -8.1 Q-14.65 -16.2 -19.2 -20.45 L-19.25 -20.5 -19.5 -20.75 -19.4 -22.8 M-9.8 -8.15 Q-5.85 -6.7 -2.95 -8.9 2.35 -6.45 6.45 -9.3 11.55 -5.85 14.7 -11.15 19.1 -6.95 22.95 -11.15 26.2 -7.7 29.25 -10.65 26.2 -7.7 22.95 -11.15 19.1 -6.95 14.7 -11.15 11.55 -5.85 6.45 -9.3 2.35 -6.45 -2.95 -8.9 -5.85 -6.7 -9.8 -8.15 M32.7 -2.1 Q30.45 -1.15 29.2 -3.15 26.6 -0.2 22.7 -2.85 18.75 0.4 13.8 -2.1 10.0 0.35 5.8 -2.45 4.35 -3.4 3.4 -2.45 -0.6 1.5 -5.55 -1.65 -0.6 1.5 3.4 -2.45 4.35 -3.4 5.8 -2.45 10.0 0.35 13.8 -2.1 18.75 0.4 22.7 -2.85 26.6 -0.2 29.2 -3.15 30.45 -1.15 32.7 -2.1" fill="#e2d5c0" fill-rule="evenodd" stroke="none"/>
    <path d="M-21.0 -21.65 L-20.5 -21.6 -19.5 -20.75 -19.25 -20.5 -19.2 -20.45 -19.55 -20.15 -23.5 -12.65 -28.4 -3.85 -30.45 0.2 -30.5 0.25 -30.55 0.35 -30.55 0.4 Q-31.75 3.05 -32.55 5.85 L-33.55 5.85 -36.05 5.85 -36.05 5.35 -29.7 -5.4 Q-27.2 -9.4 -25.05 -13.45 -22.85 -17.5 -21.0 -21.65 M-24.55 22.35 L-27.25 12.25 Q-27.8 9.65 -27.75 7.7 L-27.75 7.6 Q-27.75 4.15 -25.35 1.2 -22.9 -1.9 -20.2 -2.2 L-14.35 -1.95 Q-11.4 -1.35 -9.05 0.85 -7.75 2.15 -7.25 5.25 -6.95 8.3 -7.3 13.0 -7.75 19.15 -8.55 22.75 L-9.05 22.75 -24.55 22.7 -24.55 22.35" fill="#8f7c3f" fill-rule="evenodd" stroke="none"/>
    <path d="M-32.55 5.85 Q-31.75 3.05 -30.55 0.4 L-30.55 0.35 -30.5 0.25 -30.45 0.2 -28.4 -3.85 -23.5 -12.65 -19.55 -20.15 -19.2 -20.45 Q-14.65 -16.2 -10.1 -8.1 L-7.55 -3.55 -5.4 0.25 -3.05 4.35 -1.6 4.2 -1.55 4.2 5.25 3.75 14.0 4.05 16.95 4.1 25.2 4.35 30.95 4.2 Q31.15 14.7 29.2 22.1 26.35 21.4 17.45 21.95 L-0.5 22.8 Q-0.8 22.35 -1.05 22.4 L-1.55 22.45 -5.2 22.65 -8.55 22.75 Q-7.75 19.15 -7.3 13.0 -6.95 8.3 -7.25 5.25 -7.75 2.15 -9.05 0.85 -11.4 -1.35 -14.35 -1.95 L-20.2 -2.2 Q-22.9 -1.9 -25.35 1.2 -27.75 4.15 -27.75 7.6 L-27.75 7.7 Q-27.8 9.65 -27.25 12.25 L-24.55 22.35 -24.55 22.7 -29.6 22.55 Q-31.3 14.25 -32.55 5.85 M-1.1 21.85 Q-1.65 15.65 -1.6 9.2 L-1.6 9.05 -1.55 4.85 -1.6 9.05 -1.6 9.2 Q-1.65 15.65 -1.1 21.85 M5.45 4.35 L5.25 3.75 5.45 4.35" fill="#ffffff" fill-rule="evenodd" stroke="none"/>
    <path d="M-15.8 -17.4 Q-11.6 -12.85 -7.95 -17.05 -7.0 -18.15 -4.05 -16.55 -0.45 -14.6 1.2 -15.95 3.5 -17.75 4.95 -18.45 7.9 -15.75 9.75 -15.65 11.85 -15.55 14.2 -18.4 18.7 -13.05 20.95 -18.15 22.85 -15.0 25.7 -15.9 M29.25 -10.65 L29.7 -11.15 M-20.55 -22.65 L-21.0 -21.65 -20.5 -21.6 -19.5 -20.75 -19.25 -20.5 -19.2 -20.45 Q-14.65 -16.2 -10.1 -8.1 L-7.55 -3.55 -5.4 0.25 -3.05 4.35 -1.6 4.2 -1.55 4.2 5.25 3.75 14.0 4.05 16.95 4.1 25.2 4.35 30.95 4.2 36.1 3.4 M-21.0 -21.65 Q-22.85 -17.5 -25.05 -13.45 -27.2 -9.4 -29.7 -5.4 L-36.05 5.35 M-36.05 5.85 L-33.55 5.85 M-32.55 5.85 Q-31.75 3.05 -30.55 0.4 L-30.55 0.35 -30.5 0.25 -30.45 0.2 -28.4 -3.85 -23.5 -12.65 -19.55 -20.15 M29.25 -10.65 Q26.2 -7.7 22.95 -11.15 19.1 -6.95 14.7 -11.15 11.55 -5.85 6.45 -9.3 2.35 -6.45 -2.95 -8.9 -5.85 -6.7 -9.8 -8.15 M-24.55 22.7 L-9.05 22.75 -8.55 22.75 -5.2 22.65 -1.55 22.45 -1.05 22.4 Q-0.8 22.35 -0.5 22.8 L17.45 21.95 Q26.35 21.4 29.2 22.1 31.15 14.7 30.95 4.2 M-1.55 4.85 L-1.6 9.05 -1.6 9.2 Q-1.65 15.65 -1.1 21.85 M-32.55 5.85 Q-31.3 14.25 -29.6 22.55 L-24.55 22.7 M-1.55 22.45 L-1.05 22.85 -0.5 22.8 M-5.55 -1.65 Q-0.6 1.5 3.4 -2.45 4.35 -3.4 5.8 -2.45 10.0 0.35 13.8 -2.1 18.75 0.4 22.7 -2.85 26.6 -0.2 29.2 -3.15 30.45 -1.15 32.7 -2.1" fill="none" stroke="#8f7c3f" stroke-linecap="round" stroke-linejoin="round" stroke-width="1.0"/>
    <path d="M-19.4 -22.8 Q-10.95 -22.15 -1.55 -22.55 8.1 -23.0 17.05 -21.45 L23.45 -20.9 M23.7 -20.9 L29.25 -10.65 31.85 -5.95 36.1 3.4 M-19.4 -22.8 L-20.0 -22.85 M-8.55 22.75 Q-7.75 19.15 -7.3 13.0 -6.95 8.3 -7.25 5.25 -7.75 2.15 -9.05 0.85 -11.4 -1.35 -14.35 -1.95 L-20.2 -2.2 Q-22.9 -1.9 -25.35 1.2 -27.75 4.15 -27.75 7.6 L-27.75 7.7 Q-27.8 9.65 -27.25 12.25 L-24.55 22.35" fill="none" stroke="#8f7c3f" stroke-linecap="round" stroke-linejoin="round" stroke-width="1.0"/>
    <path d="M5.25 3.75 L5.45 4.35" fill="none" stroke="#8f7c3f" stroke-linecap="round" stroke-linejoin="round" stroke-width="0.25"/>
  </g>
</svg>
