<?xml version="1.0" encoding="UTF-8" standalone="no"?>
<svg xmlns:xlink="http://www.w3.org/1999/xlink" height="54.45px" width="47.6px" xmlns="http://www.w3.org/2000/svg">
  <g transform="matrix(1.0, 0.0, 0.0, 1.0, 33.35, 22.65)">
    <path d="M1.45 24.8 Q-0.4 20.05 4.5 20.0 7.95 19.95 8.35 23.1 8.7 26.2 5.35 26.75 2.0 27.3 1.45 24.8" fill="#ffffff" fill-rule="evenodd" stroke="none"/>
    <path d="M1.45 24.8 Q-0.4 20.05 4.5 20.0 7.95 19.95 8.35 23.1 8.7 26.2 5.35 26.75 2.0 27.3 1.45 24.8 Z" fill="none" stroke="#8f7c3f" stroke-linecap="round" stroke-linejoin="round" stroke-width="1.0"/>
    <path d="M6.25 -17.05 Q8.1 -18.6 9.65 -17.05 11.15 -15.5 9.85 -13.75 9.2 -12.85 8.05 -12.8 7.0 -12.7 6.15 -13.2 L5.55 -13.7 5.25 -14.45 Q4.9 -15.9 6.25 -17.05" fill="#e2d5c0" fill-rule="evenodd" stroke="none"/>
    <path d="M6.25 -17.05 Q4.9 -15.9 5.25 -14.45 L5.55 -13.7 6.15 -13.2 Q7.0 -12.7 8.05 -12.8 9.2 -12.85 9.85 -13.75 11.15 -15.5 9.65 -17.05 8.1 -18.6 6.25 -17.05 M8.5 -21.8 Q13.95 -21.05 13.75 -15.75 13.55 -11.1 8.4 -10.55 L7.3 -10.5 Q5.9 -10.8 4.9 -11.35 L4.0 -12.05 Q2.1 -13.85 2.7 -17.4 3.55 -22.6 8.5 -21.8" fill="#ffffff" fill-rule="evenodd" stroke="none"/>
    <path d="M8.5 -21.8 Q13.95 -21.05 13.75 -15.75 13.55 -11.1 8.4 -10.55 L7.3 -10.5 Q5.9 -10.8 4.9 -11.35 L4.0 -12.05 Q2.1 -13.85 2.7 -17.4 3.55 -22.6 8.5 -21.8" fill="none" stroke="#8f7c3f" stroke-linecap="round" stroke-linejoin="round" stroke-width="1.0"/>
    <path d="M6.25 -17.05 Q8.1 -18.6 9.65 -17.05 11.15 -15.5 9.85 -13.75 9.2 -12.85 8.05 -12.8 7.0 -12.7 6.15 -13.2 L5.55 -13.7 5.25 -14.45 Q4.9 -15.9 6.25 -17.05" fill="none" stroke="#8f7c3f" stroke-linecap="round" stroke-linejoin="round" stroke-width="1.0"/>
    <path d="M-24.0 -16.05 Q-24.1 -14.65 -25.1 -13.9 -25.95 -13.3 -27.0 -13.3 -28.0 -13.75 -28.65 -14.45 -29.6 -15.5 -29.15 -16.75 -28.75 -17.95 -27.45 -18.4 -26.25 -18.8 -25.15 -18.15 -24.0 -17.45 -24.0 -16.05" fill="#e2d5c0" fill-rule="evenodd" stroke="none"/>
    <path d="M-24.0 -16.05 Q-24.0 -17.45 -25.15 -18.15 -26.25 -18.8 -27.45 -18.4 -28.75 -17.95 -29.15 -16.75 -29.6 -15.5 -28.65 -14.45 -28.0 -13.75 -27.0 -13.3 -25.95 -13.3 -25.1 -13.9 -24.1 -14.65 -24.0 -16.05 M-26.65 -22.05 Q-21.0 -21.3 -21.2 -16.1 -21.45 -11.6 -26.65 -11.0 L-26.85 -11.0 -27.9 -10.95 Q-32.85 -11.9 -32.85 -16.15 L-32.7 -17.75 Q-31.95 -22.15 -27.9 -22.15 L-26.65 -22.05" fill="#ffffff" fill-rule="evenodd" stroke="none"/>
    <path d="M-24.0 -16.05 Q-24.1 -14.65 -25.1 -13.9 -25.95 -13.3 -27.0 -13.3 -28.0 -13.75 -28.65 -14.45 -29.6 -15.5 -29.15 -16.75 -28.75 -17.95 -27.45 -18.4 -26.25 -18.8 -25.15 -18.15 -24.0 -17.45 -24.0 -16.05 M-26.65 -22.05 Q-21.0 -21.3 -21.2 -16.1 -21.45 -11.6 -26.65 -11.0 L-26.85 -11.0 -27.9 -10.95 Q-32.85 -11.9 -32.85 -16.15 L-32.7 -17.75 Q-31.95 -22.15 -27.9 -22.15 L-26.65 -22.05" fill="none" stroke="#8f7c3f" stroke-linecap="round" stroke-linejoin="round" stroke-width="1.0"/>
    <path d="M-20.5 14.65 L-19.7 14.5 Q-16.35 13.85 -12.95 12.7 -16.65 21.75 -22.75 14.95 L-20.5 14.65" fill="#ffffff" fill-rule="evenodd" stroke="none"/>
    <path d="M-20.5 14.65 L-22.75 14.95 Q-16.65 21.75 -12.95 12.7 -16.35 13.85 -19.7 14.5 L-20.5 14.65 Z" fill="none" stroke="#8f7c3f" stroke-linecap="round" stroke-linejoin="round" stroke-width="1.0"/>
    <path d="M3.1 13.8 L5.35 14.15 Q-0.75 20.95 -4.45 11.9 L2.3 13.7 3.1 13.8" fill="#ffffff" fill-rule="evenodd" stroke="none"/>
    <path d="M3.1 13.8 L5.35 14.15 Q-0.75 20.95 -4.45 11.9 L2.3 13.7 3.1 13.8 Z" fill="none" stroke="#8f7c3f" stroke-linecap="round" stroke-linejoin="round" stroke-width="1.0"/>
    <path d="M-6.85 10.1 L-5.85 11.05 Q-3.85 13.45 -2.2 16.25 L0.9 21.7 Q2.05 23.8 2.1 26.1 2.1 29.3 -1.75 29.55 L-7.7 30.25 -13.6 31.2 -14.65 31.3 Q-17.8 31.3 -17.55 28.05 -17.3 24.75 -16.3 21.65 -15.3 18.65 -13.7 15.95 L-10.75 11.05 -10.45 10.55 -9.95 10.1 -6.85 10.1" fill="#e2d5c0" fill-rule="evenodd" stroke="none"/>
    <path d="M-6.85 10.1 L-5.85 11.05 Q-3.85 13.45 -2.2 16.25 L0.9 21.7 Q2.05 23.8 2.1 26.1 2.1 29.3 -1.75 29.55 L-7.7 30.25 -13.6 31.2 -14.65 31.3 Q-17.8 31.3 -17.55 28.05 -17.3 24.75 -16.3 21.65 -15.3 18.65 -13.7 15.95 L-10.75 11.05 -10.45 10.55 -9.95 10.1" fill="none" stroke="#8f7c3f" stroke-linecap="round" stroke-linejoin="round" stroke-width="1.0"/>
    <path d="M-8.75 16.4 Q-11.35 14.5 -8.65 14.95 -8.4 16.05 -8.75 16.4" fill="#d0bc9b" fill-rule="evenodd" stroke="none"/>
    <path d="M-6.6 20.1 L-2.2 19.9 -3.45 23.9 -4.3 25.6 Q-5.0 26.45 -8.0 26.65 -10.3 26.7 -12.25 24.15 -14.85 20.95 -13.5 20.8 L-6.6 20.1" fill="#8f7c3f" fill-rule="evenodd" stroke="none"/>
    <path d="M-6.6 20.1 L-2.2 19.9 -3.45 23.9 -4.3 25.6 Q-5.0 26.45 -8.0 26.65 -10.3 26.7 -12.25 24.15 -14.85 20.95 -13.5 20.8 L-6.6 20.1 M-8.75 16.4 Q-11.35 14.5 -8.65 14.95 -8.4 16.05 -8.75 16.4" fill="none" stroke="#8f7c3f" stroke-linecap="round" stroke-linejoin="round" stroke-width="1.0"/>
    <path d="M11.2 -1.8 Q11.2 3.9 5.05 8.6 -1.3 13.45 -14.2 12.55 -28.5 11.1 -29.45 -3.15 L-29.5 -4.0 Q-29.9 -16.0 -17.25 -19.1 L-14.8 -19.6 Q-0.75 -21.95 7.3 -11.45 11.2 -6.35 11.2 -1.8" fill="#fefefe" fill-rule="evenodd" stroke="none"/>
    <path d="M11.2 -1.8 Q11.2 3.9 5.05 8.6 -1.3 13.45 -14.2 12.55 -28.5 11.1 -29.45 -3.15 L-29.5 -4.0 Q-29.9 -16.0 -17.25 -19.1 L-14.8 -19.6 Q-0.75 -21.95 7.3 -11.45 11.2 -6.35 11.2 -1.8 Z" fill="none" stroke="#8f7c3f" stroke-linecap="round" stroke-linejoin="round" stroke-width="1.0"/>
    <path d="M-15.4 12.15 Q-18.2 10.9 -19.35 8.0 -21.0 4.1 -19.1 0.8 -17.2 -2.5 -13.75 -3.15 L-6.65 -3.6 Q-3.0 -3.35 -0.05 -0.9 2.85 1.55 2.2 5.7 1.55 10.05 -2.45 11.15 -6.2 12.1 -10.0 12.25 L-15.3 11.85 -15.4 12.15" fill="#ffffff" fill-rule="evenodd" stroke="none"/>
    <path d="M-15.4 12.15 Q-18.2 10.9 -19.35 8.0 -21.0 4.1 -19.1 0.8 -17.2 -2.5 -13.75 -3.15 L-6.65 -3.6 Q-3.0 -3.35 -0.05 -0.9 2.85 1.55 2.2 5.7 1.55 10.05 -2.45 11.15 -6.2 12.1 -10.0 12.25 L-15.3 11.85 M-15.4 12.15 L-13.95 12.65" fill="none" stroke="#8f7c3f" stroke-linecap="round" stroke-linejoin="round" stroke-width="1.0"/>
    <path d="M4.0 -0.75 L5.15 -1.3 6.1 -1.75 M1.5 -1.7 Q2.15 -1.75 2.7 -2.25 L3.95 -3.1 M-20.65 -1.65 Q-21.0 -1.5 -21.7 -1.3 -21.65 -0.5 -22.25 -0.55 L-21.7 -1.3 M-24.8 -0.95 Q-24.05 -2.35 -22.75 -2.5 M-10.3 -0.8 L-9.85 -0.6 -9.45 -0.5 -9.9 -3.55 -10.3 -0.8 Q-11.25 -1.45 -9.9 -3.55 -8.2 -1.5 -9.45 -0.5 -8.95 1.75 -7.4 2.65 L-4.35 2.7 Q-3.2 1.85 -2.4 0.5 M-15.05 0.05 Q-14.45 2.55 -13.3 2.8 L-11.0 2.6 Q-10.35 2.1 -9.85 -0.6" fill="none" stroke="#8f7c3f" stroke-linecap="round" stroke-linejoin="round" stroke-width="1.0"/>
    <path d="M-19.25 -6.0 L-12.0 -6.2 M-7.75 -6.25 L0.25 -6.5" fill="none" stroke="#8f7c3f" stroke-linecap="round" stroke-linejoin="round" stroke-width="1.0"/>
  </g>
</svg>
