<?xml version="1.0" encoding="UTF-8" standalone="no"?>
<svg xmlns:xlink="http://www.w3.org/1999/xlink" height="42.65px" width="37.05px" xmlns="http://www.w3.org/2000/svg">
  <g transform="matrix(1.0, 0.0, 0.0, 1.0, 18.25, 43.2)">
    <path d="M7.45 -6.05 Q6.05 -9.75 9.85 -9.8 12.5 -9.8 12.8 -7.4 13.1 -5.0 10.5 -4.55 7.9 -4.15 7.45 -6.05" fill="#f0e9df" fill-rule="evenodd" stroke="none"/>
    <path d="M7.45 -6.05 Q6.05 -9.75 9.85 -9.8 12.5 -9.8 12.8 -7.4 13.1 -5.0 10.5 -4.55 7.9 -4.15 7.45 -6.05 Z" fill="none" stroke="#8f7c3f" stroke-linecap="round" stroke-linejoin="round" stroke-width="1.0"/>
    <path d="M12.5 -38.95 Q13.9 -40.15 15.1 -38.95 16.25 -37.75 15.25 -36.4 14.75 -35.7 13.9 -35.65 13.05 -35.55 12.4 -35.95 L11.95 -36.35 11.7 -36.95 Q11.45 -38.05 12.5 -38.95" fill="#e2d5c0" fill-rule="evenodd" stroke="none"/>
    <path d="M14.2 -42.6 Q18.45 -42.05 18.3 -37.95 18.15 -34.35 14.15 -33.9 L13.3 -33.85 Q12.2 -34.1 11.45 -34.55 L10.75 -35.05 Q9.25 -36.45 9.75 -39.2 10.4 -43.25 14.2 -42.6 M12.5 -38.95 Q11.45 -38.05 11.7 -36.95 L11.95 -36.35 12.4 -35.95 Q13.05 -35.55 13.9 -35.65 14.75 -35.7 15.25 -36.4 16.25 -37.75 15.1 -38.95 13.9 -40.15 12.5 -38.95" fill="#f0e9df" fill-rule="evenodd" stroke="none"/>
    <path d="M14.2 -42.6 Q18.45 -42.05 18.3 -37.95 18.15 -34.35 14.15 -33.9 L13.3 -33.85 Q12.2 -34.1 11.45 -34.55 L10.75 -35.05 Q9.25 -36.45 9.75 -39.2 10.4 -43.25 14.2 -42.6" fill="none" stroke="#8f7c3f" stroke-linecap="round" stroke-linejoin="round" stroke-width="1.0"/>
    <path d="M12.5 -38.95 Q13.9 -40.15 15.1 -38.95 16.25 -37.75 15.25 -36.4 14.75 -35.7 13.9 -35.65 13.05 -35.55 12.4 -35.95 L11.95 -36.35 11.7 -36.95 Q11.45 -38.05 12.5 -38.95" fill="none" stroke="#8f7c3f" stroke-linecap="round" stroke-linejoin="round" stroke-width="1.0"/>
    <path d="M-13.55 -39.6 L-11.8 -39.4 Q-10.9 -38.85 -10.9 -37.75 -11.0 -36.7 -11.75 -36.1 -12.45 -35.6 -13.25 -35.65 L-14.5 -36.55 Q-15.25 -37.3 -14.9 -38.3 -14.6 -39.25 -13.55 -39.6" fill="#e2d5c0" fill-rule="evenodd" stroke="none"/>
    <path d="M-12.95 -42.4 Q-8.6 -41.8 -8.75 -37.8 -8.95 -34.3 -12.95 -33.85 L-13.15 -33.85 -13.9 -33.8 Q-17.75 -34.55 -17.75 -37.85 L-17.65 -39.05 Q-17.05 -42.5 -13.95 -42.5 L-12.95 -42.4 M-13.55 -39.6 Q-14.6 -39.25 -14.9 -38.3 -15.25 -37.3 -14.5 -36.55 L-13.25 -35.65 Q-12.45 -35.6 -11.75 -36.1 -11.0 -36.7 -10.9 -37.75 -10.9 -38.85 -11.8 -39.4 L-13.55 -39.6" fill="#f0e9df" fill-rule="evenodd" stroke="none"/>
    <path d="M-12.95 -42.4 Q-8.6 -41.8 -8.75 -37.8 -8.95 -34.3 -12.95 -33.85 L-13.15 -33.85 -13.9 -33.8 Q-17.75 -34.55 -17.75 -37.85 L-17.65 -39.05 Q-17.05 -42.5 -13.95 -42.5 L-12.95 -42.4 M-13.55 -39.6 L-11.8 -39.4 Q-10.9 -38.85 -10.9 -37.75 -11.0 -36.7 -11.75 -36.1 -12.45 -35.6 -13.25 -35.65 L-14.5 -36.55 Q-15.25 -37.3 -14.9 -38.3 -14.6 -39.25 -13.55 -39.6" fill="none" stroke="#8f7c3f" stroke-linecap="round" stroke-linejoin="round" stroke-width="1.0"/>
    <path d="M-8.7 -13.9 L-8.1 -14.05 Q-5.5 -14.55 -2.85 -15.45 -5.75 -8.45 -10.45 -13.7 L-8.7 -13.9" fill="#f0e9df" fill-rule="evenodd" stroke="none"/>
    <path d="M-8.7 -13.9 L-10.45 -13.7 Q-5.75 -8.45 -2.85 -15.45 -5.5 -14.55 -8.1 -14.05 L-8.7 -13.9 Z" fill="none" stroke="#8f7c3f" stroke-linecap="round" stroke-linejoin="round" stroke-width="1.0"/>
    <path d="M9.55 -14.6 L11.3 -14.3 Q6.55 -9.05 3.7 -16.05 6.35 -15.15 8.95 -14.65 L9.55 -14.6" fill="#f0e9df" fill-rule="evenodd" stroke="none"/>
    <path d="M9.55 -14.6 L11.3 -14.3 Q6.55 -9.05 3.7 -16.05 6.35 -15.15 8.95 -14.65 L9.55 -14.6 Z" fill="none" stroke="#8f7c3f" stroke-linecap="round" stroke-linejoin="round" stroke-width="1.0"/>
    <path d="M2.0 -17.45 L2.8 -16.7 5.85 -12.65 8.45 -8.45 Q9.4 -6.85 9.25 -3.8 9.15 -0.8 6.4 -1.05 L1.2 -1.35 -3.7 -1.1 -4.55 -1.05 Q-7.15 -1.05 -6.95 -3.55 -6.8 -6.1 -5.95 -8.5 -5.15 -10.85 -3.8 -12.9 L-1.3 -16.7 -1.05 -17.1 -0.65 -17.45 2.0 -17.45" fill="#8f7c3f" fill-rule="evenodd" stroke="none"/>
    <path d="M2.0 -17.45 L2.8 -16.7 5.85 -12.65 8.45 -8.45 Q9.4 -6.85 9.25 -3.8 9.15 -0.8 6.4 -1.05 L1.2 -1.35 -3.7 -1.1 -4.55 -1.05 Q-7.15 -1.05 -6.95 -3.55 -6.8 -6.1 -5.95 -8.5 -5.15 -10.85 -3.8 -12.9 L-1.3 -16.7 -1.05 -17.1 -0.65 -17.45" fill="none" stroke="#8f7c3f" stroke-linecap="round" stroke-linejoin="round" stroke-width="1.0"/>
    <path d="M-0.1 -13.65 Q-0.65 -13.55 0.25 -12.7 -0.65 -13.55 -0.1 -13.65 L0.45 -13.55 0.25 -12.7 0.1 -12.45 Q-1.6 -13.85 -0.1 -13.65" fill="#d0bc9b" fill-rule="evenodd" stroke="none"/>
    <path d="M1.05 -4.55 Q-0.85 -4.5 -2.4 -6.55 -4.55 -9.05 -3.45 -9.15 L3.05 -9.55 5.75 -9.6 Q5.05 -7.0 4.8 -6.75 L4.15 -5.4 Q3.55 -4.7 1.05 -4.55" fill="#ffffff" fill-rule="evenodd" stroke="none"/>
    <path d="M1.05 -4.55 Q-0.85 -4.5 -2.4 -6.55 -4.55 -9.05 -3.45 -9.15 L3.05 -9.55 5.75 -9.6 Q5.05 -7.0 4.8 -6.75 L4.15 -5.4 Q3.55 -4.7 1.05 -4.55" fill="none" stroke="#8f7c3f" stroke-linecap="round" stroke-linejoin="round" stroke-width="1.0"/>
    <path d="M0.25 -12.7 Q-0.65 -13.55 -0.1 -13.65 L0.95 -13.55 Q0.95 -12.85 0.6 -12.45 0.4 -12.6 0.25 -12.7" fill="none" stroke="#ffffff" stroke-linecap="round" stroke-linejoin="round" stroke-width="1.0"/>
    <path d="M16.3 -27.15 Q16.3 -22.75 11.55 -19.1 6.65 -15.35 -3.35 -16.05 -14.4 -17.15 -15.15 -28.2 L-15.15 -28.85 Q-15.5 -38.15 -5.7 -40.5 L-3.8 -40.9 Q7.05 -42.75 13.3 -34.6 16.3 -30.65 16.3 -27.15" fill="#f0e9df" fill-rule="evenodd" stroke="none"/>
    <path d="M16.3 -27.15 Q16.3 -22.75 11.55 -19.1 6.65 -15.35 -3.35 -16.05 -14.4 -17.15 -15.15 -28.2 L-15.15 -28.85 Q-15.5 -38.15 -5.7 -40.5 L-3.8 -40.9 Q7.05 -42.75 13.3 -34.6 16.3 -30.65 16.3 -27.15 Z" fill="none" stroke="#8f7c3f" stroke-linecap="round" stroke-linejoin="round" stroke-width="1.0"/>
    <path d="M-4.25 -16.35 Q-6.4 -17.3 -7.3 -19.55 -8.6 -22.6 -7.15 -25.15 -5.65 -27.7 -3.0 -28.2 L2.5 -28.5 Q5.35 -28.35 7.6 -26.45 9.85 -24.55 9.35 -21.35 8.85 -17.95 5.75 -17.15 L-0.05 -16.3 -4.15 -16.6 -4.25 -16.35" fill="#e2d5c0" fill-rule="evenodd" stroke="none"/>
    <path d="M-4.25 -16.35 Q-6.4 -17.3 -7.3 -19.55 -8.6 -22.6 -7.15 -25.15 -5.65 -27.7 -3.0 -28.2 L2.5 -28.5 Q5.35 -28.35 7.6 -26.45 9.85 -24.55 9.35 -21.35 8.85 -17.95 5.75 -17.15 L-0.05 -16.3 -4.15 -16.6 M-4.25 -16.35 L-3.15 -15.95" fill="none" stroke="#8f7c3f" stroke-linecap="round" stroke-linejoin="round" stroke-width="0.5"/>
    <path d="M8.8 -27.05 Q9.3 -27.1 9.75 -27.5 L10.7 -28.15 M10.75 -26.35 L11.65 -26.75 12.35 -27.1 M-8.3 -27.05 L-9.15 -26.75 Q-9.1 -26.15 -9.55 -26.2 L-9.15 -26.75 M-11.55 -26.5 Q-10.95 -27.55 -9.95 -27.7 M-4.0 -25.7 Q-3.55 -23.8 -2.65 -23.6 L-0.85 -23.75 Q-0.35 -24.15 0.05 -26.2 L-0.3 -26.35 Q-1.05 -26.85 0.0 -28.5 1.3 -26.9 0.35 -26.15 0.75 -24.4 1.95 -23.7 L4.3 -23.65 Q5.15 -24.3 5.8 -25.35 M0.05 -26.2 L0.35 -26.15 Q0.1 -27.2 0.0 -28.5 L-0.3 -26.35" fill="none" stroke="#8f7c3f" stroke-linecap="round" stroke-linejoin="round" stroke-width="1.0"/>
    <path d="M-7.25 -30.4 L-1.65 -30.55 M1.65 -30.6 L7.85 -30.8" fill="none" stroke="#8f7c3f" stroke-linecap="round" stroke-linejoin="round" stroke-width="1.0"/>
  </g>
</svg>
