<?xml version="1.0" encoding="UTF-8" standalone="no"?>
<!DOCTYPE svg PUBLIC "-//W3C//DTD SVG 1.1//EN" "http://www.w3.org/Graphics/SVG/1.1/DTD/svg11.dtd">
<svg width="50px" height="95px" version="1.1" xmlns="http://www.w3.org/2000/svg" xmlns:xlink="http://www.w3.org/1999/xlink" xml:space="preserve" xmlns:serif="http://www.serif.com/" style="fill-rule:evenodd;clip-rule:evenodd;stroke-linejoin:round;stroke-miterlimit:2;">
    <g transform="matrix(0.623014,0,0,0.623014,-43.791,-41.8039)">
        <path d="M85.896,134.82L91.414,124.865C92.397,123.09 92.916,121.095 92.922,119.066C92.938,113.755 92.969,102.765 92.991,95.403C92.996,93.46 92.228,91.596 90.857,90.221C89.485,88.846 87.622,88.074 85.68,88.075C80.686,88.077 74.976,88.081 74.976,88.081C74.976,88.081 80.778,81.315 84.335,77.167C86.089,75.121 88.471,73.714 91.109,73.166C91.331,73.12 91.551,73.074 91.765,73.03C93.26,72.719 94.684,72.129 95.962,71.293C100.867,68.052 105.775,68.927 110.682,72.849L114.948,75.718L131.315,90.421C133.521,92.912 135.153,95.138 136.494,97.58C136.541,97.408 136.524,97.207 136.631,97.066C138.619,94.458 138.35,81.543 138.35,80.244C138.35,76.817 140.905,74.038 144.056,74.038L144.058,74.038C147.027,74.038 149.433,76.656 149.433,79.885L149.433,87.938L148.547,98.455C147.517,104.057 145.865,107.723 141.974,111.629C138.775,114.531 135.272,116.18 131.901,116.784C131.715,116.914 131.526,117.043 131.334,117.171C130.166,117.966 129.856,119.551 130.637,120.727C130.858,121.099 131.029,121.356 131.029,121.356C138.765,129.015 133.362,137.274 127.169,142.225C126.672,142.618 126.254,143.102 125.938,143.651C123.904,147.174 116.185,160.585 116.185,160.585C120.205,164.144 123.303,168.287 122.346,172.269C121.325,176.515 119.618,179.916 115.727,183.822C112.244,186.536 110.065,188.732 110.065,195.171L110.065,201.581C110.065,204.436 107.937,206.751 105.312,206.751L105.311,206.751C102.838,206.751 100.833,204.57 100.833,201.88L100.833,195.649C100.833,195.092 100.612,194.559 100.218,194.165C99.825,193.772 99.291,193.551 98.735,193.551L98.734,193.551C97.575,193.551 96.636,194.49 96.636,195.649L96.636,201.581C96.636,204.436 94.508,206.751 91.883,206.751L91.881,206.751C89.408,206.751 87.403,204.57 87.403,201.88L87.403,194.218C87.231,186.565 88.315,184.39 92.02,183.548C95.911,179.641 96.991,175.976 98.021,170.374C98.438,168.106 94.18,165.028 90.562,161.528C89.745,160.561 89.091,159.576 88.593,158.579C87.472,159.439 86.154,160.041 84.73,160.318C83.008,160.653 81.445,160.957 81.445,160.957C68.889,163.267 67.861,152.92 80.167,149.412C81.167,149.12 81.899,148.263 82.031,147.229C82.78,141.31 84,137.171 85.798,134.731L85.896,134.82Z" style="fill:white;"/>
    </g>
    <g transform="matrix(0.623014,0,0,0.623014,-43.791,-41.8039)">
        <path d="M112.243,212.595L112.067,212.595C97.014,212.595 84.227,213.296 79.714,214.249C78.712,214.461 78.046,214.725 77.728,214.954C77.242,215.305 77.105,215.73 77.105,216.089C77.105,216.449 77.242,216.874 77.728,217.225C78.046,217.454 78.712,217.718 79.714,217.93C84.227,218.883 97.014,219.584 112.067,219.584L112.243,219.584C127.219,219.578 139.924,218.879 144.42,217.93C145.421,217.718 146.087,217.454 146.406,217.225C146.892,216.874 147.028,216.449 147.028,216.089C147.028,215.73 146.892,215.305 146.406,214.954C146.087,214.725 145.421,214.461 144.42,214.249C139.924,213.3 127.219,212.601 112.243,212.595ZM108.954,195.171L108.954,201.581C108.954,203.798 107.351,205.64 105.312,205.64L105.311,205.64C103.424,205.64 101.944,203.932 101.944,201.88L101.944,195.171C101.944,194.558 101.446,194.06 100.833,194.06C100.22,194.06 99.722,194.558 99.722,195.171L99.722,201.88C99.722,205.209 102.251,207.862 105.311,207.862L105.312,207.862C108.524,207.862 111.176,205.075 111.176,201.581L111.176,195.171C111.176,194.558 110.678,194.06 110.065,194.06C109.452,194.06 108.954,194.558 108.954,195.171ZM95.525,195.171L95.525,201.581C95.525,203.798 93.921,205.64 91.883,205.64L91.881,205.64C89.995,205.64 88.514,203.932 88.514,201.88L88.514,195.171C88.514,194.558 88.017,194.06 87.403,194.06C86.79,194.06 86.292,194.558 86.292,195.171L86.292,201.88C86.292,205.209 88.821,207.862 91.881,207.862L91.883,207.862C95.095,207.862 97.747,205.075 97.747,201.581L97.747,195.171C97.747,194.558 97.249,194.06 96.636,194.06C96.022,194.06 95.525,194.558 95.525,195.171ZM108.205,177.359L102.304,183.26C101.87,183.694 101.87,184.398 102.304,184.831C102.738,185.265 103.442,185.265 103.875,184.831L110.301,178.406C110.437,178.3 110.568,178.137 110.653,177.897C110.665,177.863 110.739,177.655 110.739,177.655L110.738,177.656C110.886,177.252 110.786,176.797 110.48,176.491L103.966,169.977C103.532,169.543 102.828,169.543 102.394,169.977C101.961,170.41 101.961,171.115 102.394,171.548L108.205,177.359ZM121.17,170.166C120.188,175.509 118.624,179.011 114.913,182.737C114.465,183.186 114.467,183.914 114.916,184.362C115.366,184.81 116.094,184.808 116.541,184.359C120.612,180.271 122.353,176.443 123.431,170.582C123.545,169.958 123.132,169.358 122.508,169.244C121.885,169.129 121.285,169.542 121.17,170.166ZM97.463,170.166C96.48,175.509 94.917,179.011 91.205,182.737C90.758,183.186 90.759,183.914 91.209,184.362C91.658,184.81 92.386,184.808 92.834,184.359C96.905,180.271 98.645,176.443 99.723,170.582C99.838,169.958 99.425,169.358 98.801,169.244C98.177,169.129 97.578,169.542 97.463,170.166ZM89.999,143.946C87.647,146.888 86.437,149.843 86.404,152.786C86.371,155.744 87.521,158.715 90.018,161.673C90.413,162.142 91.115,162.201 91.583,161.806C92.052,161.41 92.111,160.709 91.716,160.24C89.622,157.759 88.598,155.291 88.626,152.811C88.654,150.314 89.739,147.83 91.735,145.333C92.117,144.854 92.039,144.154 91.56,143.772C91.081,143.389 90.382,143.467 89.999,143.946ZM72.844,144.041C72.702,144.067 72.853,144.039 72.853,144.039L72.975,144.02C73.221,143.978 73.447,144.045 73.652,144.233C73.832,144.399 73.941,144.619 73.972,144.895C74.236,146.78 74.553,148.665 74.924,150.55C76.501,149.659 78.491,148.848 80.893,148.118C81.135,148.032 81.369,148.073 81.594,148.261C81.783,148.419 81.903,148.632 81.946,148.902C81.988,149.161 81.952,149.402 81.84,149.625C81.719,149.868 81.54,150.025 81.312,150.103C81.31,150.104 81.307,150.105 81.304,150.105C78.219,151.052 75.908,152.093 74.376,153.236C72.913,154.327 72.16,155.467 72.16,156.68C72.16,158.78 73.721,159.771 76.761,159.771C78.17,159.771 79.631,159.649 81.145,159.405C81.373,159.365 81.596,159.428 81.808,159.615C82.002,159.787 82.111,160.015 82.126,160.302C82.14,160.571 82.08,160.803 81.954,161C81.817,161.214 81.627,161.35 81.384,161.408C81.377,161.41 81.37,161.411 81.363,161.412C79.721,161.675 78.187,161.806 76.761,161.806C74.663,161.806 73.071,161.371 71.978,160.526C70.857,159.66 70.289,158.408 70.289,156.763C70.289,154.872 71.255,153.168 73.212,151.669L73.211,151.656L73.211,151.663C72.848,149.841 72.49,147.692 72.137,145.216C72.137,145.213 72.136,145.21 72.136,145.208C72.108,144.96 72.156,144.72 72.28,144.49C72.425,144.223 72.619,144.082 72.844,144.041ZM123.388,145.767L115.189,160.011C114.872,160.561 115.062,161.264 115.612,161.581C116.161,161.897 116.864,161.708 117.181,161.158L125.38,146.914C125.696,146.364 125.507,145.661 124.957,145.345C124.407,145.028 123.704,145.218 123.388,145.767ZM102.471,150.918C105.285,152.804 108.579,155.661 110.394,157.62C110.81,158.07 111.514,158.097 111.964,157.68C112.414,157.264 112.441,156.56 112.024,156.11C110.119,154.053 106.662,151.052 103.708,149.072C103.199,148.731 102.508,148.867 102.167,149.376C101.825,149.886 101.962,150.577 102.471,150.918ZM123.648,132.722L120.996,126.82C120.759,126.291 120.137,126.055 119.608,126.292C119.08,126.53 118.843,127.152 119.081,127.68L122.492,135.273C121.878,136.41 121.06,137.235 119.674,137.215C119.095,137.206 118.617,137.67 118.609,138.249C118.6,138.829 119.064,139.306 119.643,139.315C122.091,139.351 123.564,137.918 124.578,135.803C124.582,135.794 124.586,135.784 124.591,135.775L128.183,127.676C128.418,127.146 128.179,126.525 127.649,126.29C127.119,126.055 126.498,126.295 126.263,126.824L123.648,132.722ZM130.161,122.05C132.156,124.546 133.242,127.03 133.27,129.527C133.298,132.008 132.274,134.475 130.18,136.956C129.784,137.425 129.844,138.127 130.312,138.522C130.781,138.918 131.483,138.858 131.878,138.39C134.375,135.432 135.525,132.46 135.492,129.502C135.459,126.56 134.248,123.605 131.897,120.662C131.514,120.183 130.814,120.105 130.335,120.488C129.856,120.871 129.778,121.571 130.161,122.05ZM91.931,122.11L83.732,136.354C83.416,136.904 83.605,137.607 84.155,137.923C84.704,138.24 85.407,138.05 85.724,137.501L93.923,123.257C94.239,122.707 94.05,122.004 93.5,121.687C92.95,121.371 92.247,121.56 91.931,122.11ZM96.181,120.977L98.605,123.46C99.033,123.898 99.737,123.907 100.176,123.478C100.615,123.05 100.623,122.346 100.195,121.907L97.771,119.425C97.343,118.986 96.639,118.977 96.2,119.406C95.761,119.834 95.753,120.538 96.181,120.977ZM91.901,95.411L91.901,114.467C91.901,115.081 92.399,115.578 93.012,115.578C93.625,115.578 94.123,115.081 94.123,114.467L94.123,95.411C94.123,94.798 93.625,94.3 93.012,94.3C92.399,94.3 91.901,94.798 91.901,95.411ZM117.679,114.998L122.382,114.998C122.959,114.998 123.427,114.53 123.427,113.953C123.427,113.377 122.959,112.909 122.382,112.909L117.679,112.909C117.103,112.909 116.635,113.377 116.635,113.953C116.635,114.53 117.103,114.998 117.679,114.998ZM134.66,97.577C136.656,100.074 137.741,102.558 137.769,105.055C137.797,107.536 136.773,110.003 134.679,112.484C134.284,112.953 134.343,113.654 134.812,114.05C135.28,114.446 135.982,114.386 136.377,113.918C138.874,110.959 140.024,107.988 139.991,105.03C139.958,102.088 138.748,99.132 136.396,96.19C136.013,95.711 135.314,95.633 134.835,96.016C134.356,96.399 134.277,97.098 134.66,97.577ZM104.179,97.318L95.98,111.562C95.664,112.112 95.853,112.815 96.403,113.131C96.953,113.448 97.656,113.258 97.972,112.709L106.171,98.465C106.487,97.915 106.298,97.212 105.748,96.896C105.199,96.579 104.496,96.769 104.179,97.318ZM147.417,98.247C146.435,103.59 144.871,107.092 141.16,110.818C140.712,111.268 140.714,111.996 141.163,112.444C141.612,112.891 142.341,112.89 142.788,112.44C146.859,108.353 148.6,104.524 149.678,98.663C149.792,98.039 149.379,97.44 148.755,97.325C148.132,97.21 147.532,97.624 147.417,98.247ZM129.775,97.36C130.286,98.098 130.328,98.836 129.787,99.574C129.515,99.946 129.596,100.469 129.968,100.742C130.34,101.014 130.863,100.934 131.136,100.561C132.15,99.177 132.108,97.792 131.148,96.408C130.886,96.029 130.365,95.934 129.986,96.197C129.606,96.46 129.512,96.981 129.775,97.36ZM112.263,97.36C112.774,98.098 112.816,98.836 112.275,99.574C112.003,99.946 112.084,100.469 112.456,100.742C112.828,101.014 113.351,100.934 113.624,100.561C114.638,99.177 114.596,97.792 113.636,96.408C113.374,96.029 112.853,95.934 112.473,96.197C112.094,96.46 112,96.981 112.263,97.36ZM114.214,76.552L130.915,91.255C131.375,91.66 132.078,91.616 132.483,91.155C132.888,90.695 132.843,89.992 132.383,89.587L115.682,74.884C115.222,74.479 114.519,74.523 114.114,74.984C113.709,75.444 113.753,76.147 114.214,76.552ZM87.914,86.969L77.434,86.969L87.874,75.106C88.279,74.645 88.235,73.943 87.774,73.537C87.314,73.132 86.611,73.177 86.206,73.638L74.142,87.346C73.854,87.674 73.784,88.14 73.964,88.538C74.143,88.936 74.54,89.192 74.976,89.192L87.914,89.192C88.527,89.192 89.025,88.694 89.025,88.081C89.025,87.467 88.527,86.969 87.914,86.969ZM139.462,87.938L139.462,80.244C139.462,77.455 141.492,75.149 144.056,75.149L144.058,75.149C146.44,75.149 148.322,77.294 148.322,79.885L148.322,87.938C148.322,88.552 148.82,89.05 149.433,89.05C150.047,89.05 150.544,88.552 150.544,87.938L150.544,79.885C150.544,76.017 147.613,72.927 144.058,72.927L144.056,72.927C140.318,72.927 137.239,76.178 137.239,80.244L137.239,87.938C137.239,88.552 137.737,89.05 138.35,89.05C138.964,89.05 139.462,88.552 139.462,87.938ZM111.376,71.981C108.433,69.63 105.478,68.419 102.536,68.386C99.578,68.353 96.606,69.503 93.648,72C93.18,72.396 93.12,73.097 93.516,73.566C93.911,74.034 94.613,74.094 95.082,73.698C97.562,71.604 100.03,70.581 102.511,70.608C105.008,70.636 107.492,71.722 109.988,73.717C110.467,74.1 111.167,74.022 111.55,73.543C111.933,73.064 111.855,72.364 111.376,71.981Z"/>
    </g>
</svg>
