<?xml version="1.0" encoding="UTF-8" standalone="no"?>
<!DOCTYPE svg PUBLIC "-//W3C//DTD SVG 1.1//EN" "http://www.w3.org/Graphics/SVG/1.1/DTD/svg11.dtd">
<svg width="56px" height="87px" version="1.1" xmlns="http://www.w3.org/2000/svg" xmlns:xlink="http://www.w3.org/1999/xlink" xml:space="preserve" xmlns:serif="http://www.serif.com/" style="fill-rule:evenodd;clip-rule:evenodd;stroke-linejoin:round;stroke-miterlimit:2;">
    <g transform="matrix(0.618977,0,0,0.618977,-39.9723,-49.197)">
        <path d="M120,218.573C115.357,216.917 114.177,213.754 113.982,211.839C113.837,210.426 112.393,215.222 111.258,216.573C109.905,217.806 108.336,218.513 106.5,218.573L74,218.573C72.667,218.385 71.333,217.705 70,216.573C64.875,209.573 65.148,202.573 70,195.573C71.74,193.715 73.154,191.648 73,188.573L73,163.573C72.458,160.658 71.226,159.121 70,157.573C64.875,150.573 65.148,143.573 70,136.573C71.584,134.239 71.654,131.906 70,129.573C64.875,122.573 64.428,115.573 69.28,108.573C71.217,104.565 72.642,101.408 74,98.363L83.379,82.164L92.758,98.363C93.553,100.137 95.442,101.334 97.313,101.573L118.846,101.573C120.95,101.134 122.002,100.75 122.879,99.083L133.121,82.164L142.796,98.363C144.138,101.915 145.127,105.031 146.686,108.573C151.538,115.573 151.383,122.573 146.258,129.573C144.296,132.434 144.711,134.656 146.258,136.573C151.11,143.573 151.383,150.573 146.258,157.573C144.709,159.813 143.051,161.23 141,163.03L141,188.573C144.66,190.312 147.689,192.619 150,195.573C154.852,202.573 155.125,209.573 150,216.573L145,218.573L120,218.573Z" style="fill:white;"/>
    </g>
    <g transform="matrix(0.618977,0,0,0.618977,-40.0875,-48.3133)">
        <path d="M106.501,215.684L74,215.684C73.193,215.684 72.539,216.339 72.539,217.146C72.539,217.953 73.193,218.608 74,218.608L106.501,218.608C107.308,218.608 107.962,217.953 107.962,217.146C107.962,216.339 107.308,215.684 106.501,215.684ZM120,218.607L145,218.607C145.807,218.607 146.462,217.952 146.462,217.145C146.462,216.338 145.807,215.683 145,215.683L120,215.683C119.193,215.683 118.538,216.338 118.538,217.145C118.538,217.952 119.193,218.607 120,218.607ZM110.056,194.978C114.516,201.412 114.789,207.847 110.078,214.281C109.601,214.932 109.743,215.848 110.394,216.325C111.045,216.802 111.961,216.66 112.438,216.009C117.978,208.443 117.705,200.878 112.46,193.312C112,192.648 111.088,192.483 110.425,192.943C109.761,193.403 109.596,194.315 110.056,194.978ZM148.798,194.978C153.258,201.412 153.531,207.847 148.82,214.281C148.343,214.932 148.485,215.848 149.136,216.325C149.787,216.802 150.703,216.66 151.18,216.009C156.72,208.443 156.447,200.878 151.202,193.312C150.742,192.648 149.83,192.483 149.167,192.943C148.503,193.403 148.338,194.315 148.798,194.978ZM68.798,193.312C63.553,200.878 63.28,208.443 68.82,216.009C69.297,216.66 70.213,216.802 70.864,216.325C71.515,215.848 71.657,214.932 71.18,214.281C66.469,207.847 66.742,201.412 71.202,194.978C71.662,194.315 71.497,193.403 70.833,192.943C70.17,192.483 69.258,192.648 68.798,193.312ZM71.538,162.146L71.538,187.146C71.538,187.953 72.193,188.608 73,188.608C73.807,188.608 74.462,187.953 74.462,187.146L74.462,162.146C74.462,161.339 73.807,160.684 73,160.684C72.193,160.684 71.538,161.339 71.538,162.146ZM106.038,162.146L106.038,187.146C106.038,187.953 106.693,188.608 107.5,188.608C108.307,188.608 108.962,187.953 108.962,187.146L108.962,162.146C108.962,161.339 108.307,160.684 107.5,160.684C106.693,160.684 106.038,161.339 106.038,162.146ZM139.538,162.146L139.538,187.146C139.538,187.953 140.193,188.608 141,188.608C141.807,188.608 142.462,187.953 142.462,187.146L142.462,162.146C142.462,161.339 141.807,160.684 141,160.684C140.193,160.684 139.538,161.339 139.538,162.146ZM145.056,135.979C149.516,142.413 149.789,148.848 145.078,155.282C144.601,155.933 144.743,156.849 145.394,157.326C146.045,157.803 146.961,157.661 147.438,157.01C152.978,149.444 152.705,141.879 147.46,134.313C147,133.649 146.088,133.484 145.425,133.944C144.761,134.404 144.596,135.316 145.056,135.979ZM68.798,134.313C63.553,141.879 63.28,149.444 68.82,157.01C69.297,157.661 70.213,157.803 70.864,157.326C71.515,156.849 71.657,155.933 71.18,155.282C66.469,148.848 66.742,142.413 71.202,135.979C71.662,135.316 71.497,134.404 70.833,133.944C70.17,133.484 69.258,133.649 68.798,134.313ZM145.056,107.979C149.516,114.413 149.789,120.848 145.078,127.282C144.601,127.933 144.743,128.849 145.394,129.326C146.045,129.803 146.961,129.661 147.438,129.01C152.978,121.444 152.705,113.879 147.46,106.313C147,105.649 146.088,105.484 145.425,105.944C144.761,106.404 144.596,107.316 145.056,107.979ZM68.798,106.313C63.553,113.879 63.28,121.444 68.82,129.01C69.297,129.661 70.213,129.803 70.864,129.326C71.515,128.849 71.657,127.933 71.18,127.282C66.469,120.848 66.742,114.413 71.202,107.979C71.662,107.316 71.497,106.404 70.833,105.944C70.17,105.484 69.258,105.649 68.798,106.313ZM121.96,113.198L111.912,113.198L110.058,109.491C109.697,108.77 108.818,108.476 108.096,108.837C107.374,109.198 107.081,110.078 107.442,110.8L115.442,126.8C115.727,127.37 116.336,127.673 116.936,127.596C117.535,127.673 118.144,127.37 118.429,126.8L126.429,110.8C126.79,110.078 126.497,109.198 125.775,108.837C125.053,108.476 124.174,108.77 123.813,109.491L121.96,113.198ZM113.374,116.123L116.936,123.246L120.497,116.123L113.374,116.123ZM97.466,107.111L93.466,111.111C92.895,111.682 92.895,112.609 93.466,113.18C94.037,113.75 94.963,113.75 95.534,113.18L99.534,109.18C100.105,108.609 100.105,107.682 99.534,107.111C98.963,106.541 98.037,106.541 97.466,107.111ZM132.466,108.18L136.466,112.18C137.037,112.75 137.963,112.75 138.534,112.18C139.105,111.609 139.105,110.682 138.534,110.111L134.534,106.111C133.963,105.541 133.037,105.541 132.466,106.111C131.895,106.682 131.895,107.609 132.466,108.18ZM96.564,101.534L119.436,101.534C120.202,101.534 120.824,100.912 120.824,100.145C120.824,99.378 120.202,98.756 119.436,98.756L96.564,98.756C95.798,98.756 95.176,99.378 95.176,100.145C95.176,100.912 95.798,101.534 96.564,101.534ZM134.202,80.041C133.954,79.612 133.496,79.348 133,79.348C132.504,79.348 132.046,79.612 131.798,80.041L122.298,96.45C122.049,96.879 122.049,97.409 122.297,97.839C122.545,98.269 123.004,98.534 123.5,98.534L142.5,98.534C142.996,98.534 143.455,98.269 143.703,97.839C143.951,97.409 143.951,96.879 143.702,96.45L134.202,80.041ZM84.581,80.041C84.332,79.612 83.874,79.348 83.379,79.348C82.883,79.348 82.425,79.612 82.177,80.041L72.677,96.45C72.428,96.879 72.428,97.409 72.676,97.839C72.924,98.269 73.382,98.534 73.879,98.534L92.879,98.534C93.375,98.534 93.834,98.269 94.082,97.839C94.33,97.409 94.33,96.879 94.081,96.45L84.581,80.041Z"/>
    </g>
</svg>
