<?xml version="1.0" encoding="UTF-8" standalone="no"?>
<!DOCTYPE svg PUBLIC "-//W3C//DTD SVG 1.1//EN" "http://www.w3.org/Graphics/SVG/1.1/DTD/svg11.dtd">
<svg width="41px" height="51px" version="1.1" xmlns="http://www.w3.org/2000/svg" xmlns:xlink="http://www.w3.org/1999/xlink" xml:space="preserve" xmlns:serif="http://www.serif.com/" style="fill-rule:evenodd;clip-rule:evenodd;stroke-linejoin:round;stroke-miterlimit:2;">
    <g transform="matrix(0.544735,0,0,0.544735,-33.6535,-28.5958)">
        <path d="M77,61C72.305,68.106 69.1,75.067 81.349,88.183L81.349,111.797C81.349,117.234 85.757,121.642 91.195,121.642L91.43,121.642C94.041,121.642 96.545,120.605 98.392,118.759C100.238,116.912 101.275,114.408 101.275,111.797L101.275,88.228C117.625,83.177 116.656,67.348 111.948,60.171C105.387,50.168 84.646,49.428 77,61Z" style="fill:white;"/>
    </g>
    <g transform="matrix(0.624117,0,0,0.624117,-48.1528,-86.0106)">
        <path d="M94.153,219.527L100.043,219.527C100.656,219.527 101.154,219.03 101.154,218.416L101.154,202.706C101.154,202.093 100.656,201.595 100.043,201.595C99.429,201.595 98.932,202.093 98.932,202.706L98.932,217.305L94.153,217.305C93.539,217.305 93.042,217.803 93.042,218.416C93.042,219.029 93.539,219.527 94.153,219.527ZM105.735,200.821L105.735,215.148C105.735,215.762 106.233,216.26 106.846,216.26L116.255,216.26C116.869,216.26 117.366,215.762 117.366,215.148C117.366,214.535 116.869,214.037 116.255,214.037L107.957,214.037L107.957,200.821C107.957,200.208 107.46,199.71 106.846,199.71C106.233,199.71 105.735,200.208 105.735,200.821ZM93.123,169.62L93.123,191.633C93.123,192.246 93.621,192.744 94.234,192.744C94.847,192.744 95.345,192.246 95.345,191.633L95.345,169.62C95.345,169.007 94.847,168.509 94.234,168.509C93.621,168.509 93.123,169.007 93.123,169.62ZM110.514,169.62L110.514,191.633C110.514,192.246 111.012,192.744 111.626,192.744C112.239,192.744 112.737,192.246 112.737,191.633L112.737,169.62C112.737,169.007 112.239,168.509 111.626,168.509C111.012,168.509 110.514,169.007 110.514,169.62ZM86.696,173.507C86.213,180.263 84.314,184.294 78.744,187.688C78.22,188.007 78.054,188.692 78.373,189.215C78.693,189.739 79.377,189.905 79.9,189.586C86.168,185.767 88.369,181.267 88.913,173.666C88.957,173.054 88.496,172.522 87.884,172.478C87.272,172.434 86.74,172.896 86.696,173.507ZM98.088,186.841C98.051,187.16 98.149,187.443 98.389,187.69C98.607,187.912 98.872,188.043 99.183,188.082C99.187,188.082 99.19,188.083 99.194,188.083C101.365,188.294 103.501,188.728 105.602,189.385C105.928,189.493 106.224,189.457 106.492,189.294C106.767,189.127 106.92,188.889 106.955,188.583L106.979,188.479C107.021,188.142 106.948,187.845 106.767,187.587C106.593,187.339 106.353,187.164 106.045,187.068C103.82,186.367 101.593,185.915 99.366,185.712C99.053,185.673 98.768,185.754 98.51,185.963C98.25,186.174 98.112,186.44 98.089,186.758L98.088,186.841ZM99.01,180.263C98.971,180.608 99.079,180.894 99.324,181.123C99.539,181.323 99.798,181.444 100.104,181.482C100.107,181.483 100.11,181.483 100.113,181.483C101.617,181.641 103.156,181.956 104.73,182.428C104.734,182.429 104.738,182.43 104.742,182.431C105.057,182.515 105.344,182.478 105.603,182.331C105.884,182.171 106.041,181.935 106.077,181.623L106.1,181.523C106.142,181.205 106.074,180.912 105.893,180.644C105.714,180.38 105.469,180.207 105.157,180.126C103.489,179.612 101.851,179.274 100.241,179.112C100.236,179.112 100.231,179.111 100.227,179.111C99.91,179.09 99.634,179.185 99.396,179.395C99.159,179.606 99.033,179.861 99.011,180.156L99.01,180.263ZM98.582,174.28C98.558,174.631 98.677,174.92 98.935,175.15C99.156,175.347 99.417,175.465 99.719,175.503C99.724,175.503 99.729,175.504 99.734,175.504C101.57,175.663 103.426,175.979 105.304,176.453C105.617,176.535 105.907,176.495 106.175,176.339C106.468,176.168 106.626,175.922 106.657,175.606L106.654,175.627L106.658,175.554C106.699,175.229 106.618,174.935 106.411,174.671C106.216,174.422 105.965,174.259 105.658,174.183C103.637,173.657 101.698,173.32 99.847,173.172C99.845,173.172 99.843,173.171 99.841,173.171C99.53,173.151 99.252,173.242 99.007,173.45C98.775,173.647 98.645,173.883 98.61,174.154L98.582,174.28ZM101.956,164.935L107.846,164.935C108.46,164.935 108.957,164.438 108.957,163.824L108.957,148.114C108.957,147.501 108.46,147.003 107.846,147.003C107.233,147.003 106.735,147.501 106.735,148.114L106.735,162.713L101.956,162.713C101.343,162.713 100.845,163.211 100.845,163.824C100.845,164.437 101.343,164.935 101.956,164.935ZM89.525,144.602C84.992,151.141 84.753,157.681 89.541,164.22C89.904,164.715 90.6,164.823 91.094,164.46C91.589,164.098 91.697,163.402 91.334,162.907C87.176,157.228 87.414,151.548 91.351,145.868C91.7,145.364 91.575,144.671 91.071,144.322C90.567,143.972 89.874,144.098 89.525,144.602ZM119.559,145.144C123.496,150.824 123.734,156.504 119.575,162.184C119.213,162.678 119.321,163.374 119.815,163.736C120.31,164.099 121.006,163.991 121.368,163.496C126.156,156.957 125.918,150.417 121.385,143.878C121.035,143.374 120.343,143.248 119.839,143.598C119.335,143.947 119.209,144.64 119.559,145.144ZM139.569,146.795C139.086,153.55 137.187,157.582 131.617,160.976C131.093,161.295 130.927,161.979 131.246,162.503C131.565,163.027 132.25,163.193 132.773,162.874C139.041,159.055 141.242,154.555 141.786,146.953C141.83,146.342 141.369,145.81 140.757,145.766C140.145,145.722 139.613,146.183 139.569,146.795ZM114.198,141.958C112.634,141.958 111.357,143.242 111.357,144.833C111.357,146.423 112.634,147.707 114.198,147.707C115.761,147.707 117.038,146.423 117.038,144.833C117.038,143.242 115.761,141.958 114.198,141.958ZM96.16,141.958C94.596,141.958 93.319,143.242 93.319,144.833C93.319,146.423 94.596,147.707 96.16,147.707C97.724,147.707 99.001,146.423 99.001,144.833C99.001,143.242 97.724,141.958 96.16,141.958ZM114.198,143.624C114.849,143.624 115.372,144.17 115.372,144.833C115.372,145.496 114.849,146.041 114.198,146.041C113.546,146.041 113.024,145.496 113.024,144.833C113.024,144.17 113.546,143.624 114.198,143.624ZM96.16,143.624C96.812,143.624 97.334,144.17 97.334,144.833C97.334,145.496 96.812,146.041 96.16,146.041C95.508,146.041 94.986,145.496 94.986,144.833C94.986,144.17 95.508,143.624 96.16,143.624Z"/>
    </g>
</svg>
