<?xml version="1.0" encoding="UTF-8" standalone="no"?>
<!DOCTYPE svg PUBLIC "-//W3C//DTD SVG 1.1//EN" "http://www.w3.org/Graphics/SVG/1.1/DTD/svg11.dtd">
<svg width="79px" height="87px" version="1.1" xmlns="http://www.w3.org/2000/svg" xmlns:xlink="http://www.w3.org/1999/xlink" xml:space="preserve" xmlns:serif="http://www.serif.com/" style="fill-rule:evenodd;clip-rule:evenodd;stroke-linejoin:round;stroke-miterlimit:2;">
    <g transform="matrix(0.609933,0,0,0.609933,-27.769,-46.7444)">
        <path d="M136.077,102.231L112.524,102.231C109.44,102.414 107.192,101.7 105.661,99.555L98.163,83.383L90.665,99.555C89.634,102.199 88.936,104.976 88.916,108.024C84.064,115.024 83.791,122.024 88.916,129.024C89.99,130.491 86.977,136.805 85.77,138.934L76.579,155.684C76.579,155.684 70.396,163.126 70.397,167.601C70.4,176.12 65.23,182.827 60.679,184.845C56.748,186.587 57.718,193.01 55.319,196.579C53.531,199.238 49.381,203.377 47.308,205.383C46.639,206.036 46.622,207.107 47.271,207.781C48.967,209.547 52.087,212.788 53.91,214.682C54.826,215.634 56.082,216.185 57.403,216.214C61.746,216.311 71.787,216.524 76.195,216.524C82.66,216.524 81.387,209.942 94.13,216.166C95.553,217.44 97.209,218.134 99.13,218.166L119.819,218.166C121.135,218.166 122.428,217.821 123.569,217.166C124.71,216.511 126.003,216.166 127.319,216.166L167.449,216.166C169.275,216.166 170.956,215.172 171.834,213.571C176.81,204.665 174.223,198.733 164.35,188.31L164.35,164.7C170.746,160.001 178.876,147.652 170.421,138.225C167.599,135.305 166.674,132.254 168.303,129.024C173.428,122.024 173.155,115.024 168.303,108.024C164.911,103.813 161.125,101.178 157.112,99.555L149.614,83.383L142.116,99.555C140.704,101.566 138.654,102.16 136.077,102.231ZM98.163,79.3C99.271,79.3 100.17,80.215 100.17,81.341C100.17,82.468 99.271,83.383 98.163,83.383C97.055,83.383 96.156,82.468 96.156,81.341C96.156,80.215 97.055,79.3 98.163,79.3ZM149.614,79.3C150.722,79.3 151.622,80.215 151.622,81.341C151.622,82.468 150.722,83.383 149.614,83.383C148.507,83.383 147.607,82.468 147.607,81.341C147.607,80.215 148.507,79.3 149.614,79.3Z" style="fill:white;"/>
    </g>
    <g transform="matrix(0.609933,0,0,0.609933,-27.769,-46.7444)">
        <path d="M121.827,217.055L99.13,217.055C98.516,217.055 98.018,217.553 98.018,218.166C98.018,218.779 98.516,219.277 99.13,219.277L121.827,219.277C122.44,219.277 122.938,218.779 122.938,218.166C122.938,217.553 122.44,217.055 121.827,217.055ZM75.97,213.396C76.257,213.757 76.438,214.104 76.442,214.464C76.446,214.809 76.278,215.14 75.989,215.485C75.595,215.955 75.657,216.656 76.127,217.05C76.597,217.444 77.298,217.382 77.692,216.913C78.38,216.092 78.674,215.26 78.664,214.44C78.655,213.635 78.349,212.819 77.711,212.015C77.33,211.534 76.63,211.454 76.15,211.835C75.67,212.216 75.589,212.916 75.97,213.396ZM72.459,215.055L67.009,215.055C66.396,215.055 65.898,215.553 65.898,216.166C65.898,216.779 66.396,217.277 67.009,217.277L72.459,217.277C73.073,217.277 73.571,216.779 73.571,216.166C73.571,215.553 73.073,215.055 72.459,215.055ZM165.096,215.055L159.646,215.055C159.033,215.055 158.535,215.553 158.535,216.166C158.535,216.779 159.033,217.277 159.646,217.277L165.096,217.277C165.71,217.277 166.207,216.779 166.207,216.166C166.207,215.553 165.71,215.055 165.096,215.055ZM137.71,215.055L125.311,215.055C124.698,215.055 124.2,215.553 124.2,216.166C124.2,216.779 124.698,217.277 125.311,217.277L137.71,217.277C138.323,217.277 138.821,216.779 138.821,216.166C138.821,215.553 138.323,215.055 137.71,215.055ZM93.216,194.533C88.066,201.963 87.793,209.393 93.233,216.823C93.595,217.317 94.291,217.425 94.786,217.063C95.281,216.7 95.388,216.005 95.026,215.51C90.215,208.94 90.488,202.369 95.043,195.799C95.392,195.295 95.267,194.602 94.763,194.253C94.259,193.904 93.566,194.029 93.216,194.533ZM142.145,195.799C146.699,202.369 146.972,208.94 142.161,215.51C141.799,216.005 141.907,216.7 142.401,217.063C142.896,217.425 143.592,217.317 143.954,216.823C149.394,209.393 149.121,201.963 143.971,194.533C143.622,194.029 142.929,193.904 142.425,194.253C141.921,194.602 141.795,195.295 142.145,195.799ZM169.261,195.799C173.815,202.369 174.088,208.94 169.277,215.51C168.915,216.005 169.023,216.7 169.517,217.063C170.012,217.425 170.708,217.317 171.07,216.823C176.51,209.393 176.237,201.963 171.087,194.533C170.738,194.029 170.045,193.904 169.541,194.253C169.037,194.602 168.911,195.295 169.261,195.799ZM56.136,216.607L56.258,216.464C56.437,216.196 56.521,215.893 56.503,215.552C56.484,215.2 56.365,214.914 56.162,214.687C53.843,211.951 51.572,209.566 49.351,207.534C48.789,207 48.428,206.635 48.274,206.433C48.19,206.323 48.143,206.207 48.143,206.081C48.143,205.935 48.193,205.804 48.289,205.686C48.46,205.475 48.874,205.082 49.527,204.5C51.397,202.853 53.426,200.843 55.613,198.472C55.615,198.471 55.616,198.469 55.618,198.467C55.814,198.249 55.942,197.963 55.977,197.599C56.012,197.241 55.938,196.931 55.768,196.666L55.7,196.547C55.481,196.219 55.196,196.058 54.866,196.028C54.534,195.998 54.23,196.105 53.964,196.375C53.961,196.379 53.958,196.382 53.955,196.385C51.961,198.515 49.963,200.485 47.958,202.295C46.919,203.226 46.272,203.889 46.007,204.274C45.699,204.72 45.528,205.32 45.528,206.081C45.528,206.809 45.691,207.388 45.986,207.826C46.241,208.203 46.847,208.847 47.817,209.747C49.938,211.719 52.132,214.016 54.398,216.639C54.658,216.98 54.974,217.107 55.322,217.076C55.63,217.048 55.907,216.903 56.136,216.607ZM55.365,216.506C55.442,216.6 55.547,216.666 55.664,216.695L55.712,216.803C55.512,216.803 55.329,216.696 55.23,216.524C55.244,216.524 55.258,216.524 55.272,216.522C55.304,216.52 55.335,216.514 55.365,216.506ZM155.133,211.942C155.948,211.942 156.61,212.604 156.61,213.419C156.61,214.235 155.948,214.897 155.133,214.897C154.317,214.897 153.655,214.235 153.655,213.419C153.655,212.604 154.317,211.942 155.133,211.942ZM82.274,211.942C83.09,211.942 83.752,212.604 83.752,213.419C83.752,214.235 83.09,214.897 82.274,214.897C81.458,214.897 80.796,214.235 80.796,213.419C80.796,212.604 81.458,211.942 82.274,211.942ZM55.429,197.486C55.577,197.448 55.705,197.349 55.779,197.21C55.834,197.107 55.854,196.992 55.84,196.88C55.867,197.159 55.602,197.347 55.43,197.439C55.43,197.454 55.429,197.47 55.429,197.486ZM93.959,164.7L93.959,188.31C93.959,188.923 94.457,189.421 95.07,189.421C95.684,189.421 96.182,188.923 96.182,188.31L96.182,164.7C96.182,164.087 95.684,163.589 95.07,163.589C94.457,163.589 93.959,164.087 93.959,164.7ZM137.181,164.7L137.181,188.31C137.181,188.923 137.679,189.421 138.292,189.421C138.906,189.421 139.403,188.923 139.403,188.31L139.403,164.7C139.403,164.087 138.906,163.589 138.292,163.589C137.679,163.589 137.181,164.087 137.181,164.7ZM163.239,164.7L163.239,188.31C163.239,188.923 163.737,189.421 164.35,189.421C164.964,189.421 165.462,188.923 165.462,188.31L165.462,164.7C165.462,164.087 164.964,163.589 164.35,163.589C163.737,163.589 163.239,164.087 163.239,164.7ZM69.289,167.522C68.731,175.323 66.533,179.976 60.1,183.896C59.577,184.215 59.411,184.899 59.73,185.423C60.049,185.947 60.733,186.113 61.257,185.794C68.387,181.449 70.887,176.328 71.505,167.68C71.549,167.068 71.088,166.536 70.476,166.493C69.865,166.449 69.333,166.91 69.289,167.522ZM91.345,137.592C86.714,144.273 86.47,150.953 91.362,157.634C91.724,158.129 92.42,158.236 92.915,157.874C93.41,157.512 93.517,156.816 93.155,156.321C88.893,150.5 89.136,144.679 93.172,138.858C93.521,138.354 93.395,137.661 92.891,137.312C92.387,136.962 91.695,137.088 91.345,137.592ZM169.508,138.858C173.543,144.679 173.787,150.5 169.525,156.321C169.162,156.816 169.27,157.512 169.765,157.874C170.259,158.236 170.955,158.129 171.318,157.634C176.209,150.953 175.965,144.273 171.334,137.592C170.985,137.088 170.292,136.962 169.788,137.312C169.284,137.661 169.159,138.354 169.508,138.858ZM84.795,138.399L75.605,155.15C75.31,155.687 75.507,156.363 76.044,156.658C76.582,156.953 77.258,156.756 77.553,156.219L86.744,139.468C87.039,138.931 86.842,138.255 86.304,137.96C85.766,137.665 85.09,137.862 84.795,138.399ZM136.993,155.134L136.993,144.962L142.926,154.57C143.179,154.979 143.626,155.229 144.108,155.229C144.589,155.229 145.036,154.979 145.289,154.57L151.222,144.962L151.222,155.134C151.222,155.9 151.844,156.523 152.611,156.523C153.377,156.523 154,155.9 154,155.134L154,140.069C154,139.448 153.587,138.902 152.99,138.732C152.393,138.563 151.755,138.811 151.429,139.339L144.108,151.196L136.786,139.339C136.46,138.811 135.823,138.563 135.225,138.732C134.628,138.902 134.216,139.448 134.216,140.069L134.216,155.134C134.216,155.9 134.838,156.523 135.605,156.523C136.371,156.523 136.993,155.9 136.993,155.134ZM117.856,139.654C111.175,135.022 104.494,134.779 97.814,139.67C97.319,140.032 97.211,140.728 97.574,141.223C97.936,141.718 98.632,141.825 99.126,141.463C104.948,137.201 110.769,137.445 116.59,141.48C117.094,141.829 117.787,141.704 118.136,141.2C118.485,140.696 118.36,140.003 117.856,139.654ZM121.787,138.392L121.807,138.423C121.85,138.49 121.898,138.539 121.947,138.576C122.147,138.747 122.376,138.811 122.632,138.778C122.886,138.746 123.108,138.622 123.284,138.383C123.285,138.381 123.286,138.379 123.287,138.377C123.746,137.738 124.256,137.388 124.855,137.388C125.335,137.388 125.793,137.691 126.267,138.228C126.268,138.228 126.268,138.229 126.268,138.229C127.123,139.19 128.072,139.649 129.093,139.65C130.368,139.66 131.427,139.072 132.248,137.85C132.253,137.843 132.258,137.836 132.262,137.828C132.388,137.621 132.446,137.384 132.425,137.116C132.403,136.834 132.298,136.605 132.122,136.422L132.152,136.456L132.055,136.356C131.843,136.143 131.592,136.058 131.304,136.094C131.041,136.127 130.812,136.257 130.636,136.514C130.386,136.861 130.136,137.117 129.875,137.268C129.642,137.405 129.381,137.471 129.095,137.471L129.087,137.471C128.609,137.478 128.155,137.178 127.683,136.645C127.682,136.645 127.682,136.644 127.682,136.644C126.826,135.683 125.878,135.223 124.857,135.223C123.582,135.213 122.523,135.801 121.702,137.022C121.701,137.023 121.7,137.025 121.699,137.026C121.568,137.225 121.503,137.463 121.525,137.743C121.545,138.003 121.636,138.218 121.787,138.392ZM156.81,138.392L156.83,138.423C156.873,138.49 156.921,138.539 156.969,138.576C157.169,138.747 157.399,138.811 157.654,138.778C157.908,138.746 158.13,138.622 158.306,138.383C158.307,138.381 158.308,138.379 158.31,138.377C158.768,137.738 159.278,137.388 159.877,137.388C160.358,137.388 160.815,137.691 161.289,138.228C161.29,138.228 161.29,138.229 161.291,138.229C162.146,139.19 163.094,139.649 164.115,139.65C165.39,139.66 166.449,139.072 167.27,137.85C167.275,137.843 167.28,137.836 167.284,137.828C167.41,137.621 167.468,137.384 167.447,137.116C167.425,136.834 167.32,136.605 167.144,136.422L167.174,136.456L167.078,136.356C166.866,136.143 166.614,136.058 166.326,136.094C166.063,136.127 165.835,136.257 165.658,136.514C165.408,136.861 165.158,137.117 164.898,137.268C164.664,137.405 164.403,137.471 164.117,137.471L164.109,137.471C163.631,137.478 163.177,137.178 162.705,136.645C162.704,136.645 162.704,136.644 162.704,136.644C161.849,135.683 160.9,135.223 159.879,135.223C158.604,135.213 157.545,135.801 156.724,137.022C156.723,137.023 156.722,137.025 156.722,137.026C156.59,137.225 156.525,137.463 156.547,137.743C156.567,138.003 156.658,138.218 156.81,138.392ZM157.85,138.065L157.847,138.068C157.857,138.45 157.297,138.679 157.297,138.679C157.521,138.679 157.723,138.544 157.81,138.337C157.847,138.249 157.859,138.156 157.85,138.065ZM121.9,138.533L121.88,138.514C121.886,138.52 121.893,138.527 121.9,138.533ZM156.922,138.533L156.902,138.514C156.909,138.52 156.915,138.527 156.922,138.533ZM167.389,108.657C171.944,115.227 172.217,121.797 167.406,128.368C167.044,128.862 167.151,129.558 167.646,129.92C168.141,130.283 168.837,130.175 169.199,129.68C174.639,122.251 174.366,114.821 169.216,107.391C168.866,106.887 168.174,106.761 167.67,107.111C167.166,107.46 167.04,108.153 167.389,108.657ZM88.003,107.391C82.853,114.821 82.58,122.251 88.02,129.68C88.382,130.175 89.078,130.283 89.573,129.92C90.068,129.558 90.175,128.862 89.813,128.368C85.002,121.797 85.275,115.227 89.83,108.657C90.179,108.153 90.053,107.46 89.549,107.111C89.045,106.761 88.353,106.887 88.003,107.391ZM149.014,115.741L145.962,123.872L142.91,115.741C142.747,115.307 142.333,115.02 141.87,115.02C141.407,115.02 140.992,115.307 140.83,115.741L137.778,123.872L134.726,115.741C134.511,115.166 133.87,114.875 133.295,115.091C132.721,115.306 132.43,115.947 132.646,116.521L136.738,127.425C136.9,127.859 137.315,128.146 137.778,128.146C138.241,128.146 138.655,127.859 138.818,127.425L141.87,119.293L144.922,127.425C145.084,127.859 145.499,128.146 145.962,128.146C146.425,128.146 146.84,127.859 147.002,127.425L151.094,116.521C151.31,115.947 151.019,115.306 150.444,115.091C149.87,114.875 149.229,115.166 149.014,115.741ZM113.82,108.257L97.325,108.257C96.843,108.257 96.416,108.568 96.268,109.026C96.119,109.484 96.283,109.986 96.673,110.268L106.759,117.577L96.673,124.886C96.283,125.169 96.119,125.671 96.268,126.129C96.416,126.587 96.843,126.897 97.325,126.897L113.82,126.897C114.433,126.897 114.931,126.399 114.931,125.786C114.931,125.173 114.433,124.675 113.82,124.675L100.752,124.675L109.305,118.477C109.593,118.268 109.764,117.933 109.764,117.577C109.764,117.221 109.593,116.887 109.305,116.678L100.752,110.48L113.82,110.48C114.433,110.48 114.931,109.982 114.931,109.368C114.931,108.755 114.433,108.257 113.82,108.257ZM155.6,108.05L158.949,111.399C159.382,111.832 160.087,111.832 160.52,111.399C160.954,110.965 160.954,110.261 160.52,109.827L157.172,106.479C156.738,106.045 156.034,106.045 155.6,106.479C155.167,106.912 155.167,107.617 155.6,108.05ZM125.945,106.479L122.596,109.827C122.162,110.261 122.162,110.965 122.596,111.399C123.03,111.832 123.734,111.832 124.167,111.399L127.516,108.05C127.95,107.617 127.95,106.912 127.516,106.479C127.082,106.045 126.378,106.045 125.945,106.479ZM136.077,101.476L112.524,101.476C111.91,101.476 111.412,101.974 111.412,102.587C111.412,103.2 111.91,103.698 112.524,103.698L136.077,103.698C136.69,103.698 137.188,103.2 137.188,102.587C137.188,101.974 136.69,101.476 136.077,101.476ZM97.181,84.039C97.177,84.047 97.173,84.054 97.169,84.062L89.671,99.058C89.397,99.607 89.619,100.274 90.168,100.548C90.717,100.823 91.384,100.6 91.659,100.052L93.468,96.434L102.858,96.434L104.667,100.052C104.941,100.6 105.609,100.823 106.158,100.548C106.706,100.274 106.929,99.606 106.655,99.058L99.157,84.062C99.153,84.054 99.149,84.047 99.145,84.039C100.228,83.635 101.004,82.581 101.004,81.341C101.004,79.751 99.727,78.467 98.163,78.467C96.599,78.467 95.322,79.751 95.322,81.341C95.322,82.581 96.098,83.635 97.181,84.039ZM148.632,84.039C148.628,84.047 148.624,84.054 148.621,84.062L141.123,99.058C140.848,99.607 141.071,100.274 141.619,100.548C142.168,100.823 142.836,100.6 143.11,100.052L144.919,96.434L154.31,96.434L156.119,100.052C156.393,100.6 157.061,100.823 157.609,100.548C158.158,100.274 158.38,99.606 158.106,99.058L150.608,84.062C150.604,84.054 150.601,84.047 150.597,84.039C151.679,83.635 152.455,82.581 152.455,81.341C152.455,79.751 151.178,78.467 149.614,78.467C148.051,78.467 146.774,79.751 146.774,81.341C146.774,82.581 147.549,83.635 148.632,84.039ZM94.579,94.212L101.747,94.212L98.163,87.043L94.579,94.212ZM146.03,94.212L153.199,94.212L149.614,87.043L146.03,94.212ZM98.163,80.133C98.815,80.133 99.337,80.678 99.337,81.341C99.337,82.004 98.815,82.55 98.163,82.55C97.511,82.55 96.989,82.004 96.989,81.341C96.989,80.678 97.511,80.133 98.163,80.133ZM149.614,80.133C150.266,80.133 150.788,80.678 150.788,81.341C150.788,82.004 150.266,82.55 149.614,82.55C148.963,82.55 148.44,82.004 148.44,81.341C148.44,80.678 148.963,80.133 149.614,80.133Z" style="fill-opacity:0.9;"/>
    </g>
</svg>
