<?xml version="1.0" encoding="UTF-8" standalone="no"?>
<!DOCTYPE svg PUBLIC "-//W3C//DTD SVG 1.1//EN" "http://www.w3.org/Graphics/SVG/1.1/DTD/svg11.dtd">
<svg width="56px" height="86px" version="1.1" xmlns="http://www.w3.org/2000/svg" xmlns:xlink="http://www.w3.org/1999/xlink" xml:space="preserve" xmlns:serif="http://www.serif.com/" style="fill-rule:evenodd;clip-rule:evenodd;stroke-linejoin:round;stroke-miterlimit:2;">
    <g transform="matrix(0.618977,0,0,0.618977,-40.0875,-50.1827)">
        <path d="M114.285,210.756C113.675,212.688 112.672,214.62 111.258,216.551C110.12,217.916 109.089,218.464 107.5,218.551L74,218.551C72.667,218.538 71.334,217.983 70,216.551C64.875,209.551 64.844,202.999 69.696,195.999C71.235,193.7 73.105,190.953 73,188.551L73,163.551L70,157.551C64.874,150.551 65.148,143.551 70,136.551C71.77,134.286 71.826,131.955 70,129.551C64.875,122.551 64.844,115.999 69.696,108.999C71.516,105.917 74.477,101.769 75,98.982C75,98.982 74.51,93.14 74.75,88.452C74.89,85.705 77.158,83.551 79.907,83.551L83.365,83.551C85.969,83.551 88.124,85.578 88.283,88.177C88.561,92.723 88,98.298 88,98.298C89.058,100.566 92.974,101.212 95.501,101.298L120,101.298C122.55,101.419 124.574,101.056 126,98.298C126,98.298 126.386,92.757 126.679,88.372C126.859,85.659 129.112,83.551 131.831,83.551L135.215,83.551C137.88,83.551 140.062,85.67 140.141,88.334C140.27,92.724 140,98.551 140,98.551C140.129,100.948 143.454,105.071 146.257,108.551C151.11,115.551 151.798,122.551 146.673,129.551C145.324,131.088 144.978,133.217 146.673,136.551C151.525,143.551 151.383,150.551 146.257,157.551L141,163.551L141,188.551C145.206,190.956 148.485,193.305 150,195.551C154.852,202.551 155.126,209.551 150,216.551C148.889,217.771 147.246,218.483 145,218.551L120,218.551C115.402,217.009 113.278,213.894 114.285,210.756" style="fill:white;"/>
    </g>
    <g transform="matrix(0.618977,0,0,0.618977,-40.1345,-49.3127)">
        <path d="M120.076,218.607L145.076,218.607C145.883,218.607 146.538,217.952 146.538,217.145C146.538,216.338 145.883,215.683 145.076,215.683L120.076,215.683C119.269,215.683 118.614,216.338 118.614,217.145C118.614,217.952 119.269,218.607 120.076,218.607ZM106.577,215.683L74.076,215.683C73.269,215.683 72.615,216.338 72.615,217.145C72.615,217.952 73.269,218.607 74.076,218.607L106.577,218.607C107.384,218.607 108.038,217.952 108.038,217.145C108.038,216.338 107.384,215.683 106.577,215.683ZM148.874,194.978C153.334,201.412 153.607,207.847 148.896,214.281C148.419,214.932 148.561,215.848 149.212,216.325C149.863,216.802 150.779,216.66 151.256,216.009C156.796,208.443 156.523,200.878 151.278,193.312C150.818,192.648 149.906,192.483 149.243,192.943C148.579,193.403 148.414,194.315 148.874,194.978ZM110.132,194.978C114.592,201.412 114.865,207.847 110.154,214.281C109.677,214.932 109.819,215.848 110.47,216.325C111.121,216.802 112.037,216.66 112.514,216.009C118.054,208.443 117.781,200.878 112.536,193.312C112.076,192.648 111.164,192.483 110.501,192.943C109.837,193.403 109.672,194.315 110.132,194.978ZM68.874,193.312C63.629,200.878 63.356,208.443 68.896,216.009C69.373,216.66 70.289,216.802 70.94,216.325C71.591,215.848 71.733,214.932 71.256,214.281C66.545,207.847 66.818,201.412 71.278,194.978C71.738,194.315 71.573,193.403 70.909,192.943C70.246,192.483 69.334,192.648 68.874,193.312ZM71.614,162.145L71.614,187.145C71.614,187.952 72.269,188.607 73.076,188.607C73.883,188.607 74.538,187.952 74.538,187.145L74.538,162.145C74.538,161.338 73.883,160.683 73.076,160.683C72.269,160.683 71.614,161.338 71.614,162.145ZM106.114,162.145L106.114,187.145C106.114,187.952 106.769,188.607 107.576,188.607C108.383,188.607 109.038,187.952 109.038,187.145L109.038,162.145C109.038,161.338 108.383,160.683 107.576,160.683C106.769,160.683 106.114,161.338 106.114,162.145ZM139.614,162.145L139.614,187.145C139.614,187.952 140.269,188.607 141.076,188.607C141.883,188.607 142.538,187.952 142.538,187.145L142.538,162.145C142.538,161.338 141.883,160.683 141.076,160.683C140.269,160.683 139.614,161.338 139.614,162.145ZM68.874,134.312C63.629,141.878 63.356,149.443 68.896,157.009C69.373,157.66 70.289,157.802 70.94,157.325C71.591,156.848 71.733,155.932 71.256,155.281C66.545,148.847 66.818,142.412 71.278,135.978C71.738,135.315 71.573,134.403 70.909,133.943C70.246,133.483 69.334,133.648 68.874,134.312ZM145.132,135.978C149.592,142.412 149.865,148.847 145.154,155.281C144.677,155.932 144.819,156.848 145.47,157.325C146.121,157.802 147.037,157.66 147.514,157.009C153.054,149.443 152.781,141.878 147.536,134.312C147.076,133.648 146.164,133.483 145.501,133.943C144.837,134.403 144.672,135.315 145.132,135.978ZM145.132,107.978C149.592,114.412 149.865,120.847 145.154,127.281C144.677,127.932 144.819,128.848 145.47,129.325C146.121,129.802 147.037,129.66 147.514,129.009C153.054,121.443 152.781,113.878 147.536,106.312C147.076,105.648 146.164,105.483 145.501,105.943C144.837,106.403 144.672,107.315 145.132,107.978ZM68.874,106.312C63.629,113.878 63.356,121.443 68.896,129.009C69.373,129.66 70.289,129.802 70.94,129.325C71.591,128.848 71.733,127.932 71.256,127.281C66.545,120.847 66.818,114.412 71.278,107.978C71.738,107.315 71.573,106.403 70.909,105.943C70.246,105.483 69.334,105.648 68.874,106.312ZM120.415,113.198L110.738,113.198L108.884,109.491C108.523,108.769 107.644,108.476 106.922,108.837C106.2,109.198 105.907,110.078 106.268,110.799L108.533,115.33L114.268,126.799C114.339,126.942 114.43,127.067 114.536,127.174L114.547,127.185C114.654,127.291 114.78,127.382 114.922,127.454C115.132,127.559 115.356,127.608 115.576,127.608C115.796,127.608 116.02,127.559 116.23,127.454C116.372,127.382 116.498,127.291 116.605,127.185L116.616,127.174C116.722,127.067 116.813,126.942 116.884,126.799L122.636,115.296L124.884,110.799C125.245,110.078 124.952,109.198 124.23,108.837C123.508,108.476 122.629,108.769 122.268,109.491L120.415,113.198ZM112.2,116.123L115.576,122.875L118.952,116.123L112.2,116.123ZM96.542,106.111L92.542,110.111C91.971,110.682 91.971,111.609 92.542,112.18C93.113,112.75 94.039,112.75 94.61,112.18L98.61,108.18C99.181,107.609 99.181,106.682 98.61,106.111C98.039,105.541 97.113,105.541 96.542,106.111ZM131.542,108.18L135.542,112.18C136.113,112.75 137.039,112.75 137.61,112.18C138.181,111.609 138.181,110.682 137.61,110.111L133.61,106.111C133.039,105.541 132.113,105.541 131.542,106.111C130.971,106.682 130.971,107.609 131.542,108.18ZM95.076,101.607L120.076,101.607C120.883,101.607 121.538,100.952 121.538,100.145C121.538,99.338 120.883,98.683 120.076,98.683L95.076,98.683C94.269,98.683 93.614,99.338 93.614,100.145C93.614,100.952 94.269,101.607 95.076,101.607ZM76.465,97.145L76.465,88.805C76.465,87.408 77.02,86.067 78.009,85.078C78.997,84.089 80.338,83.534 81.736,83.534L81.738,83.534C84.471,83.534 86.687,85.75 86.687,88.483L86.687,97.145C86.687,97.912 87.309,98.534 88.076,98.534C88.843,98.534 89.465,97.912 89.465,97.145L89.465,88.483C89.465,84.215 86.005,80.757 81.738,80.757L81.736,80.757C79.601,80.757 77.554,81.604 76.045,83.114C74.535,84.623 73.687,86.67 73.687,88.805L73.687,97.145C73.687,97.912 74.309,98.534 75.076,98.534C75.843,98.534 76.465,97.912 76.465,97.145ZM128.465,97.145L128.465,88.805C128.465,87.408 129.02,86.067 130.009,85.078C130.997,84.089 132.338,83.534 133.736,83.534L133.738,83.534C136.471,83.534 138.687,85.75 138.687,88.483L138.687,97.145C138.687,97.912 139.309,98.534 140.076,98.534C140.843,98.534 141.465,97.912 141.465,97.145L141.465,88.483C141.465,84.215 138.005,80.757 133.738,80.757L133.736,80.757C131.601,80.757 129.554,81.604 128.045,83.114C126.535,84.623 125.687,86.67 125.687,88.805L125.687,97.145C125.687,97.912 126.309,98.534 127.076,98.534C127.843,98.534 128.465,97.912 128.465,97.145Z"/>
    </g>
</svg>
