<?xml version="1.0" encoding="UTF-8" standalone="no"?>
<!DOCTYPE svg PUBLIC "-//W3C//DTD SVG 1.1//EN" "http://www.w3.org/Graphics/SVG/1.1/DTD/svg11.dtd">
<svg width="49px" height="86px" version="1.1" xmlns="http://www.w3.org/2000/svg" xmlns:xlink="http://www.w3.org/1999/xlink" xml:space="preserve" xmlns:serif="http://www.serif.com/" style="fill-rule:evenodd;clip-rule:evenodd;stroke-linejoin:round;stroke-miterlimit:2;">
    <g transform="matrix(-0.388636,0.138653,0.135571,0.379997,-28.6215,-199.182)">
        <path d="M149.245,660.107C161.461,669.23 162.224,677.188 160.983,687.829C160.706,690.378 158.857,692.455 156.402,692.976C156.403,692.983 156.403,692.983 156.402,692.983C154.977,693.285 153.496,692.894 152.392,691.925C146.763,686.985 129.496,671.831 129.496,671.831C128.641,671.278 123.398,668.077 120.421,670.625C118.277,672.459 118.955,674.856 117.002,675.282C115.051,675.707 113.823,674.693 112.465,674.337C107.022,672.91 101.691,678.779 103.421,683.034C103.421,683.034 105.648,689.416 107.715,695.341C109.627,700.824 107.183,706.727 102.254,708.525C102.253,708.525 102.253,708.526 102.252,708.526C97.609,710.22 92.384,707.406 90.582,702.24L82.254,678.368C81.558,676.371 79.41,675.33 77.458,676.043C76.9,676.246 76.343,676.449 75.845,676.631C75.358,676.809 74.822,676.781 74.355,676.555C73.887,676.328 73.527,675.921 73.354,675.423C71.591,670.369 66.673,656.273 63.634,647.561C62.966,645.644 61.579,644.077 59.781,643.205C57.982,642.332 55.918,642.227 54.043,642.911L54.042,642.911C52.167,643.595 50.635,645.013 49.782,646.853C48.929,648.692 48.826,650.803 49.495,652.721C51.077,657.255 53.018,662.819 54.114,665.96C56.026,671.443 53.582,677.346 48.653,679.144C48.652,679.145 48.652,679.145 48.651,679.145C44.008,680.839 38.783,678.025 36.981,672.859C34.86,666.78 32.487,659.978 32.487,659.978C31.002,654.426 30.849,648.473 31.59,642.249L21.982,614.706L19.568,602.302C8.799,594.831 6.683,586.536 7.892,574.316C3.995,570.436 0.817,565.002 -1.52,557.757L1.2,529.938L22.375,551.609C27.135,549.369 31.753,547.598 36.141,546.586L39.122,516.101L60.297,537.772C66.715,539.446 73.428,543.343 80.267,548.185L103,568L112.266,581.361L118.074,579.242L128.053,607.85C128.053,607.85 122.313,609.945 121.145,610.371C121.093,610.39 121.051,610.431 121.03,610.484C121.009,610.536 121.011,610.596 121.035,610.647C122.215,613.11 133.922,637.551 137.923,645.904C138.698,647.522 138.249,649.474 136.85,650.568C136.849,650.569 136.847,650.571 136.846,650.572C136.142,651.123 135.81,652.039 135.993,652.927C136.175,653.814 136.839,654.516 137.701,654.731C141.157,655.562 144.934,656.888 149.245,660.107Z" style="fill:white;"/>
    </g>
    <g transform="matrix(0.618914,0,0,0.618914,-43.5048,-49.3006)">
        <path d="M74.164,196.218C69.129,203.482 68.868,210.746 74.186,218.011C74.664,218.663 75.58,218.804 76.232,218.327C76.884,217.85 77.026,216.933 76.549,216.281C72.06,210.149 72.321,204.018 76.571,197.886C77.031,197.222 76.866,196.309 76.201,195.849C75.537,195.389 74.625,195.554 74.164,196.218ZM88.535,198.724L78.601,215.983C78.284,216.533 78.474,217.237 79.024,217.554C79.575,217.871 80.279,217.681 80.595,217.131L90.53,199.872C90.847,199.322 90.657,198.618 90.107,198.301C89.556,197.984 88.852,198.174 88.535,198.724ZM115.039,217.003L115.224,217.001C119.088,216.896 122.241,213.507 122.241,209.28L122.241,200.365C122.241,199.675 121.681,199.115 120.991,199.115C120.302,199.115 119.742,199.675 119.742,200.365L119.742,209.28C119.742,212.138 117.667,214.504 115.04,214.504L115.039,214.504C112.209,214.504 109.972,211.959 109.972,208.882L109.972,200.365C109.972,199.675 109.412,199.115 108.722,199.115C108.032,199.115 107.472,199.675 107.472,200.365L107.472,208.882C107.472,213.395 110.889,217.003 115.039,217.003ZM91.767,198.404L91.785,198.432C91.827,198.499 91.874,198.549 91.922,198.586C92.119,198.758 92.344,198.821 92.594,198.788C92.841,198.756 93.059,198.633 93.229,198.394C93.23,198.393 93.232,198.391 93.233,198.389C93.649,197.792 94.108,197.46 94.652,197.46C95.088,197.46 95.499,197.748 95.929,198.248C95.929,198.249 95.93,198.249 95.93,198.249C96.734,199.179 97.628,199.621 98.588,199.621C99.786,199.631 100.784,199.066 101.555,197.885C101.56,197.878 101.565,197.87 101.569,197.863C101.687,197.662 101.742,197.433 101.722,197.174C101.702,196.901 101.601,196.679 101.436,196.502L101.465,196.536L101.373,196.437C101.165,196.222 100.918,196.139 100.635,196.175C100.38,196.207 100.156,196.336 99.985,196.593C99.756,196.919 99.528,197.16 99.289,197.303C99.08,197.429 98.846,197.489 98.59,197.489L98.581,197.489C98.148,197.496 97.741,197.212 97.313,196.715C97.313,196.714 97.312,196.714 97.312,196.714C96.508,195.784 95.614,195.342 94.654,195.342C93.456,195.332 92.459,195.897 91.687,197.078C91.686,197.079 91.685,197.08 91.685,197.082C91.561,197.274 91.499,197.504 91.52,197.775C91.539,198.027 91.625,198.235 91.767,198.404ZM124.678,166.149L124.678,190.256C124.678,190.95 125.241,191.513 125.935,191.513C126.629,191.513 127.192,190.95 127.192,190.256L127.192,166.149C127.192,165.456 126.629,164.892 125.935,164.892C125.241,164.892 124.678,165.456 124.678,166.149ZM100.354,191.016L122.308,191.016C122.885,191.016 123.353,190.547 123.353,189.97C123.353,189.393 122.885,188.925 122.308,188.925L100.354,188.925C99.777,188.925 99.308,189.393 99.308,189.97C99.308,190.547 99.777,191.016 100.354,191.016ZM76.839,188.363L96.152,188.363C96.538,188.363 96.865,188.227 97.135,187.957C97.407,187.685 97.541,187.361 97.541,186.986C97.541,186.607 97.401,186.28 97.114,186.006C96.833,185.737 96.51,185.608 96.152,185.608L76.839,185.608C76.453,185.608 76.126,185.744 75.856,186.014C75.584,186.286 75.45,186.61 75.45,186.986C75.45,187.364 75.59,187.692 75.876,187.965C76.158,188.234 76.481,188.363 76.839,188.363ZM142.261,186.956L142.446,186.954C146.31,186.849 149.463,183.46 149.463,179.233L149.463,170.318C149.463,169.628 148.903,169.068 148.213,169.068C147.524,169.068 146.964,169.628 146.964,170.318L146.964,179.233C146.964,182.091 144.889,184.457 142.262,184.457L142.261,184.457C139.431,184.457 137.194,181.912 137.194,178.835L137.194,170.318C137.194,169.628 136.634,169.068 135.944,169.068C135.254,169.068 134.694,169.628 134.694,170.318L134.694,178.835C134.694,183.348 138.111,186.956 142.261,186.956ZM79.946,176.723C79.584,176.723 79.267,176.849 78.995,177.108C78.719,177.371 78.58,177.694 78.58,178.076C78.58,178.451 78.715,178.775 78.986,179.047C79.26,179.321 79.581,179.453 79.946,179.453L93.045,179.453C93.438,179.453 93.764,179.313 94.026,179.038C94.282,178.769 94.411,178.448 94.411,178.076C94.411,177.694 94.272,177.371 93.996,177.108C93.724,176.849 93.407,176.723 93.045,176.723L79.946,176.723ZM95.486,169.387C95.202,169.103 94.876,168.969 94.514,168.969L78.477,168.969C78.115,168.969 77.789,169.103 77.505,169.387C77.223,169.669 77.087,169.998 77.087,170.37C77.087,170.748 77.227,171.076 77.514,171.35C77.796,171.619 78.118,171.747 78.477,171.747L94.514,171.747C94.873,171.747 95.195,171.619 95.477,171.35C95.764,171.076 95.904,170.748 95.904,170.37C95.904,169.998 95.768,169.669 95.486,169.387ZM99.884,154.198L99.884,158.92C99.884,159.141 99.873,159.316 99.847,159.446C99.839,159.488 99.829,159.525 99.817,159.556C99.812,159.57 99.8,159.591 99.797,159.596C99.768,159.615 99.712,159.622 99.632,159.634C99.441,159.663 99.154,159.677 98.772,159.677C98.283,159.677 97.516,159.652 96.47,159.601C96.174,159.581 95.914,159.676 95.692,159.887C95.464,160.105 95.364,160.356 95.386,160.639C95.407,160.926 95.523,161.179 95.739,161.394C95.955,161.61 96.207,161.727 96.495,161.747C96.497,161.747 96.499,161.747 96.501,161.748C97.674,161.799 98.541,161.824 99.102,161.824C99.937,161.824 100.585,161.766 101.048,161.653C101.389,161.57 101.637,161.453 101.795,161.314C101.957,161.172 102.093,160.947 102.19,160.634C102.32,160.216 102.387,159.628 102.387,158.87L102.387,154.198L110.185,154.198C110.484,154.198 110.734,154.087 110.937,153.863C111.136,153.643 111.233,153.397 111.233,153.125C111.233,152.833 111.129,152.577 110.921,152.358C110.708,152.134 110.462,152.026 110.185,152.026L91.426,152.026C91.149,152.026 90.903,152.134 90.69,152.358C90.481,152.577 90.378,152.833 90.378,153.125C90.378,153.397 90.475,153.643 90.673,153.863C90.876,154.087 91.127,154.198 91.426,154.198L99.884,154.198ZM110.03,160.713C110.238,160.942 110.492,161.066 110.793,161.086C111.098,161.107 111.366,161.014 111.596,160.804C111.824,160.597 111.949,160.338 111.969,160.027C111.99,159.714 111.896,159.443 111.688,159.214C110.464,157.836 108.916,156.33 107.045,154.697C106.798,154.472 106.52,154.367 106.213,154.378C105.903,154.388 105.64,154.502 105.424,154.718C105.203,154.939 105.098,155.206 105.108,155.521C105.119,155.839 105.242,156.093 105.474,156.284C107.094,157.685 108.613,159.161 110.03,160.714L110.03,160.713ZM95.74,154.707C95.507,154.54 95.234,154.484 94.918,154.547C94.608,154.609 94.373,154.756 94.207,154.983C93.1,156.459 91.732,157.826 90.105,159.084C89.87,159.256 89.739,159.501 89.717,159.822C89.696,160.138 89.784,160.4 89.974,160.611C89.974,160.611 89.975,160.611 89.975,160.612C90.18,160.837 90.436,160.966 90.744,160.997C91.053,161.028 91.33,160.95 91.577,160.765C91.578,160.765 91.578,160.764 91.579,160.764C93.376,159.378 94.847,157.88 95.994,156.271C95.994,156.27 95.995,156.27 95.995,156.269C96.181,156 96.246,155.715 96.195,155.415C96.142,155.111 95.99,154.876 95.739,154.707L95.74,154.707ZM143.046,141.37L143.046,158.293L131.213,158.293C130.848,158.293 130.559,158.421 130.337,158.658C130.126,158.883 130.009,159.17 130.009,159.528C130.009,159.89 130.132,160.182 130.359,160.41C130.592,160.644 130.876,160.763 131.213,160.763L144.417,160.763C144.774,160.763 145.085,160.638 145.347,160.384C145.611,160.129 145.746,159.811 145.746,159.428L145.746,140.235C145.746,139.852 145.611,139.534 145.347,139.279C145.085,139.025 144.775,138.9 144.417,138.9L140.045,138.9C139.68,138.9 139.391,139.028 139.17,139.264C138.956,139.492 138.842,139.776 138.842,140.124C138.842,140.467 138.957,140.756 139.18,140.994C139.42,141.25 139.704,141.37 140.024,141.37L143.046,141.37ZM78.141,158.293L78.141,141.37L81.163,141.37C81.483,141.37 81.767,141.25 82.007,140.994C82.23,140.756 82.346,140.467 82.346,140.124C82.346,139.776 82.231,139.492 82.018,139.264C81.796,139.028 81.507,138.9 81.142,138.9L76.77,138.9C76.413,138.9 76.102,139.025 75.84,139.279C75.576,139.534 75.441,139.852 75.441,140.235L75.441,159.428C75.441,159.811 75.576,160.129 75.84,160.384C76.102,160.638 76.413,160.763 76.77,160.763L81.142,160.763C81.478,160.763 81.763,160.645 81.996,160.41C82.223,160.182 82.346,159.89 82.346,159.528C82.346,159.17 82.229,158.883 82.018,158.658C81.796,158.421 81.507,158.293 81.142,158.293L78.141,158.293ZM100.344,138.791C100.343,138.787 100.343,138.783 100.343,138.779C100.34,138.738 100.348,138.699 100.366,138.666C100.367,138.602 100.396,138.554 100.483,138.554L100.537,138.554C100.871,138.508 101.156,138.559 101.394,138.697C101.632,138.836 101.825,139.066 101.964,139.393C101.965,139.395 101.965,139.397 101.966,139.398C102.86,141.668 104.181,143.699 105.926,145.494C107.003,144.361 107.939,143.119 108.737,141.769L104.288,141.769C104.015,141.769 103.773,141.675 103.563,141.486C103.348,141.292 103.24,141.05 103.24,140.759C103.24,140.471 103.346,140.225 103.559,140.023C103.77,139.822 104.013,139.724 104.288,139.724L110.439,139.724C110.713,139.724 110.957,139.822 111.168,140.023C111.38,140.224 111.487,140.474 111.487,140.772C111.487,141.386 111.342,141.937 111.053,142.425C110.197,144.002 109.054,145.546 107.622,147.057C108.991,148.202 110.589,149.256 112.418,150.22L112.419,150.221C112.689,150.366 112.871,150.589 112.965,150.89C113.057,151.188 113.032,151.482 112.888,151.77L112.86,151.826C112.715,152.096 112.497,152.278 112.206,152.371C111.912,152.465 111.629,152.439 111.357,152.292C111.356,152.292 111.355,152.292 111.355,152.291C109.522,151.279 107.838,150.114 106.302,148.795L106.302,148.804C106.302,149.079 106.198,149.324 105.986,149.536C105.774,149.748 105.529,149.852 105.254,149.852L96.433,149.852C96.136,149.852 95.886,149.745 95.684,149.533C95.51,149.349 95.413,149.141 95.39,148.909C93.842,150.195 92.13,151.323 90.252,152.294C89.979,152.44 89.691,152.462 89.388,152.357C89.09,152.254 88.869,152.068 88.725,151.801C88.724,151.799 88.723,151.797 88.722,151.795C88.576,151.503 88.557,151.211 88.662,150.92C88.763,150.637 88.944,150.414 89.207,150.253C89.211,150.25 89.216,150.247 89.221,150.245C90.395,149.641 91.459,149.014 92.412,148.363C91.666,147.665 91.114,147.153 90.757,146.828C90.539,146.652 90.429,146.421 90.429,146.135C90.429,145.856 90.526,145.621 90.719,145.428C90.959,145.187 91.209,145.073 91.46,145.068C91.708,145.063 91.966,145.165 92.225,145.393L94.082,147.101C94.697,146.58 95.208,146.119 95.614,145.717L94.752,144.915C94.34,144.528 94.032,144.232 93.827,144.028C93.614,143.853 93.503,143.63 93.492,143.36C93.481,143.091 93.579,142.847 93.795,142.632C93.797,142.63 93.799,142.628 93.801,142.626C94.057,142.39 94.309,142.276 94.55,142.266C94.799,142.255 95.044,142.353 95.278,142.574C96.207,143.409 96.788,143.949 97.026,144.19C97.686,143.375 98.241,142.559 98.691,141.743L94.12,141.743C94.092,141.743 94.067,141.757 94.044,141.779C93.086,142.89 91.889,143.95 90.454,144.958C90.222,145.126 89.954,145.186 89.649,145.134C89.338,145.08 89.108,144.922 88.958,144.664C88.814,144.418 88.767,144.147 88.818,143.85C88.87,143.546 89.014,143.312 89.243,143.145C91.07,141.804 92.538,140.346 93.644,138.77C93.645,138.769 93.646,138.768 93.647,138.767C94.081,138.174 94.609,137.978 95.221,138.156C95.222,138.156 95.223,138.157 95.224,138.157C95.508,138.244 95.705,138.425 95.814,138.698L95.814,138.699C95.925,138.976 95.902,139.237 95.749,139.481L95.56,139.8L99.65,139.8C99.565,139.539 99.592,139.282 99.733,139.03C99.885,138.759 100.122,138.599 100.447,138.556C100.338,138.571 100.259,138.667 100.266,138.777C100.267,138.79 100.269,138.803 100.272,138.815C100.295,138.806 100.319,138.798 100.344,138.791ZM100.912,142.435C99.861,144.311 98.456,146.076 96.695,147.73L105.127,147.73C103.399,146.073 101.993,144.308 100.912,142.435ZM107.512,147.168L107.505,147.173C107.507,147.172 107.509,147.17 107.512,147.168ZM101.013,142.223C101.013,142.218 101.014,142.213 101.014,142.209C101.014,142.204 101.015,142.199 101.015,142.195L101.013,142.223ZM142.492,111.845C146.953,118.28 147.226,124.715 142.514,131.15C142.038,131.801 142.179,132.715 142.83,133.191C143.48,133.667 144.394,133.526 144.87,132.875C150.408,125.311 150.135,117.746 144.892,110.181C144.433,109.519 143.523,109.354 142.86,109.813C142.198,110.272 142.033,111.182 142.492,111.845ZM92.726,111.81L82.791,129.069C82.475,129.619 82.664,130.323 83.215,130.64C83.765,130.957 84.469,130.767 84.786,130.217L94.72,112.958C95.037,112.408 94.847,111.704 94.297,111.387C93.747,111.07 93.043,111.26 92.726,111.81ZM125.401,117.709C129.038,120.203 133.298,123.982 135.643,126.574C136.156,127.141 137.034,127.185 137.602,126.671C138.17,126.158 138.213,125.28 137.7,124.712C135.243,121.997 130.781,118.035 126.971,115.421C126.339,114.988 125.475,115.149 125.042,115.78C124.609,116.412 124.77,117.276 125.401,117.709ZM105.304,102.143L112.531,86.885L119.759,102.143C120.104,102.873 120.977,103.185 121.707,102.839C122.437,102.493 122.748,101.62 122.403,100.891L113.853,82.842C113.611,82.331 113.096,82.005 112.531,82.005C111.966,82.005 111.451,82.331 111.209,82.842L102.66,100.891C102.314,101.62 102.626,102.493 103.355,102.839C104.085,103.185 104.958,102.873 105.304,102.143ZM132.144,102.143L139.371,86.885L146.599,102.143C146.944,102.873 147.817,103.185 148.547,102.839C149.277,102.493 149.588,101.62 149.243,100.891L140.693,82.842C140.451,82.331 139.936,82.005 139.371,82.005C138.806,82.005 138.291,82.331 138.049,82.842L129.5,100.891C129.154,101.62 129.466,102.493 130.195,102.839C130.925,103.185 131.798,102.873 132.144,102.143Z" style="fill-rule:nonzero;"/>
    </g>
</svg>
