<?xml version="1.0" encoding="UTF-8" standalone="no"?>
<!DOCTYPE svg PUBLIC "-//W3C//DTD SVG 1.1//EN" "http://www.w3.org/Graphics/SVG/1.1/DTD/svg11.dtd">
<svg width="76px" height="88px" version="1.1" xmlns="http://www.w3.org/2000/svg" xmlns:xlink="http://www.w3.org/1999/xlink" xml:space="preserve" xmlns:serif="http://www.serif.com/" style="fill-rule:evenodd;clip-rule:evenodd;stroke-linejoin:round;stroke-miterlimit:2;">
    <g transform="matrix(0.616863,0,0,0.616863,-29.8549,-46.1424)">
        <path d="M122.019,86.713L125.881,77.078L131.487,91.543L130.272,91.543C130.889,92.021 131.496,92.523 132.088,93.048C135.773,96.306 138.863,100.597 140.7,107.563C142.749,115.329 139.995,122.332 142.212,127.559L142.215,127.663C143.374,131.96 146.277,135.681 151.353,138.201C148.443,138.054 145.046,138.828 142.215,139.714C137.06,140.582 132.904,142.543 130.603,143.825C130.127,144.113 129.808,144.602 129.737,145.153C129.666,145.706 129.851,146.259 130.239,146.658C131.072,147.537 132.198,148.701 133.479,150.04C137.237,155.461 137.448,160.883 133.479,166.304C134.63,168.987 135.156,171.136 135.199,172.87L135.199,216.787L106.063,216.756L106.063,197.083C106.277,194.391 103.38,194.034 103.12,197.083C103.027,198.195 102.744,199.139 102.426,200.376C102.184,201.316 101.937,201.863 101.63,202.859C100.767,205.668 99.01,208.268 97.47,210.981C96.795,212.865 96.459,213.396 95.311,214.391C90.519,218.543 86.839,216.405 87.146,209.876C87.146,209.876 87.484,208.196 86.823,207.789C85.703,207.101 84.871,208.466 84.871,208.466L77.284,216.737C77.284,216.737 76.928,217.024 76.706,216.961C76.485,216.898 76.332,216.696 76.332,216.466C76.332,211.388 76.143,197.083 76.143,197.083C76.115,194.418 76.245,191.969 76.604,189.762L83.764,176.208C84.833,173.11 84.409,169.798 82.709,166.304C78.74,160.883 79.158,155.599 82.709,150.04C84.163,147.763 85.385,146.431 86.752,145.333C87.262,144.939 87.481,144.274 87.305,143.653C87.129,143.033 86.593,142.581 85.952,142.513C82.502,142.291 78.11,142.281 73.336,142.205C73.059,142.2 72.816,142.018 72.73,141.754C72.646,141.49 72.739,141.202 72.961,141.036C77.023,137.944 79.665,133.668 79.589,128.251C79.59,128.246 79.594,128.242 79.598,128.242C80.007,127.959 69.517,106.189 82.709,93.048C83.234,92.524 83.778,92.022 84.338,91.543L82.158,91.543L87.956,77.078L91.741,86.843C100.899,82.663 112.171,82.535 122.019,86.713ZM156.581,175.348L170.736,175.348L170.736,189.803L156.581,189.803L156.581,175.348ZM63.391,175.313L49.236,175.313L49.236,189.768L63.391,189.768L63.391,175.313ZM156.897,151.406L169.476,151.406L169.476,163.821L156.897,163.821L156.897,151.406ZM62.927,151.298L50.348,151.298L50.348,163.713L62.927,163.713L62.927,151.298ZM157.323,128.41L168.177,128.41L168.177,139.307L157.323,139.307L157.323,128.41ZM61.388,128.301L50.533,128.301L50.533,139.199L61.388,139.199L61.388,128.301ZM63.559,104.728L56.282,104.728L56.282,115.626L63.559,115.626L63.559,104.728ZM157.006,104.614L164.283,104.614L164.283,115.512L157.006,115.512L157.006,104.614Z" style="fill:white;"/>
    </g>
    <g transform="matrix(0.616863,0,0,0.616863,-29.8549,-46.1424)">
        <path d="M97.786,209.771L97.729,209.75C97.489,209.659 97.248,209.667 97.008,209.779C96.775,209.888 96.606,210.068 96.507,210.322C96.506,210.323 96.506,210.323 96.506,210.324C95.852,212.015 95.056,213.302 94.108,214.178C93.195,215.022 92.201,215.45 91.123,215.45C90.505,215.45 90.006,215.384 89.628,215.245C89.274,215.114 88.962,214.866 88.688,214.508C88.399,214.129 88.2,213.587 88.079,212.888C87.95,212.141 87.887,211.181 87.887,210.007C87.887,207.805 87.944,205.156 88.058,202.059C88.073,201.801 87.99,201.57 87.804,201.367C87.623,201.169 87.414,201.065 87.184,201.043L87.047,201.023C86.779,201.004 86.545,201.097 86.349,201.311L86.348,201.311C86.173,201.502 86.077,201.728 86.061,201.989L86.061,201.997C85.946,205.154 85.889,207.824 85.889,210.007C85.889,212.799 86.279,214.721 87.017,215.783C87.781,216.882 89.142,217.459 91.123,217.459C92.674,217.459 94.07,216.908 95.309,215.8C96.519,214.719 97.522,213.132 98.308,211.033C98.309,211.031 98.31,211.029 98.31,211.027C98.391,210.797 98.39,210.559 98.301,210.312C98.205,210.045 98.031,209.867 97.786,209.771ZM105.266,197.083L105.266,216.311C105.266,216.887 105.734,217.355 106.31,217.355C106.886,217.355 107.353,216.887 107.353,216.311L107.353,197.083C107.353,196.507 106.886,196.04 106.31,196.04C105.734,196.04 105.266,196.507 105.266,197.083ZM75.561,197.083L75.561,216.311C75.561,216.887 76.028,217.355 76.604,217.355C77.18,217.355 77.648,216.887 77.648,216.311L77.648,197.083C77.648,196.507 77.18,196.04 76.604,196.04C76.028,196.04 75.561,196.507 75.561,197.083ZM128.98,197.083L128.98,216.311C128.98,216.887 129.448,217.355 130.024,217.355C130.6,217.355 131.067,216.887 131.067,216.311L131.067,197.083C131.067,196.507 130.6,196.04 130.024,196.04C129.448,196.04 128.98,196.507 128.98,197.083ZM134.156,197.083L134.156,216.311C134.156,216.887 134.624,217.355 135.2,217.355C135.776,217.355 136.244,216.887 136.244,216.311L136.244,197.083C136.244,196.507 135.776,196.04 135.2,196.04C134.624,196.04 134.156,196.507 134.156,197.083ZM109.381,217.329L126.952,217.329C127.531,217.329 128,216.859 128,216.281C128,215.703 127.531,215.233 126.952,215.233L109.381,215.233C108.802,215.233 108.333,215.703 108.333,216.281C108.333,216.859 108.802,217.329 109.381,217.329ZM81.315,211.416C82.078,211.416 82.698,212.036 82.698,212.799C82.698,213.562 82.078,214.181 81.315,214.181C80.552,214.181 79.932,213.562 79.932,212.799C79.932,212.036 80.552,211.416 81.315,211.416ZM81.315,204.054C82.078,204.054 82.698,204.674 82.698,205.437C82.698,206.2 82.078,206.819 81.315,206.819C80.552,206.819 79.932,206.2 79.932,205.437C79.932,204.674 80.552,204.054 81.315,204.054ZM100.35,200.391L100.35,202.752C100.35,203.386 100.865,203.901 101.499,203.901C102.133,203.901 102.648,203.386 102.648,202.752L102.648,200.391C102.648,199.757 102.133,199.242 101.499,199.242C100.865,199.242 100.35,199.757 100.35,200.391ZM91.424,201.676L93.224,203.107C93.631,203.43 94.223,203.363 94.546,202.956C94.869,202.55 94.801,201.958 94.395,201.635L92.594,200.204C92.188,199.881 91.595,199.948 91.272,200.355C90.949,200.761 91.017,201.353 91.424,201.676ZM93.858,200.053L95.658,201.484C96.065,201.807 96.657,201.74 96.98,201.333C97.303,200.927 97.235,200.335 96.829,200.012L95.028,198.581C94.622,198.258 94.029,198.325 93.706,198.732C93.383,199.138 93.451,199.73 93.858,200.053ZM128.98,172.87L128.98,192.098C128.98,192.674 129.448,193.141 130.024,193.141C130.6,193.141 131.067,192.674 131.067,192.098L131.067,172.87C131.067,172.294 130.6,171.826 130.024,171.826C129.448,171.826 128.98,172.294 128.98,172.87ZM134.156,172.87L134.156,192.098C134.156,192.674 134.624,193.141 135.2,193.141C135.776,193.141 136.244,192.674 136.244,192.098L136.244,172.87C136.244,172.294 135.776,171.826 135.2,171.826C134.624,171.826 134.156,172.294 134.156,172.87ZM90.469,190.701L96.313,178.774L102.158,190.701C102.412,191.219 103.038,191.434 103.556,191.18C104.074,190.926 104.289,190.299 104.035,189.781L97.252,175.939C97.076,175.581 96.712,175.354 96.313,175.354C95.914,175.354 95.55,175.581 95.375,175.939L88.592,189.781C88.338,190.299 88.552,190.926 89.07,191.18C89.588,191.434 90.215,191.219 90.469,190.701ZM82.769,175.715L76.069,189.269C75.797,189.819 76.023,190.485 76.573,190.757C77.122,191.029 77.789,190.803 78.061,190.253L84.76,176.7C85.032,176.15 84.806,175.483 84.257,175.212C83.707,174.94 83.04,175.166 82.769,175.715ZM170.366,174.545L156.972,174.545C156.629,174.545 156.337,174.666 156.097,174.906C155.857,175.146 155.736,175.437 155.736,175.781L155.736,189.175C155.736,189.543 155.865,189.839 156.106,190.069C156.344,190.295 156.632,190.411 156.972,190.411L170.366,190.411C170.709,190.411 171.001,190.29 171.241,190.05C171.481,189.81 171.602,189.518 171.602,189.175L171.602,175.781C171.602,175.437 171.481,175.146 171.241,174.906C171.001,174.666 170.709,174.545 170.366,174.545ZM63.028,174.545L49.634,174.545C49.291,174.545 48.999,174.666 48.759,174.906C48.519,175.146 48.398,175.437 48.398,175.781L48.398,189.175C48.398,189.543 48.527,189.839 48.768,190.069C49.006,190.295 49.294,190.411 49.634,190.411L63.028,190.411C63.371,190.411 63.663,190.29 63.903,190.05C64.143,189.81 64.264,189.518 64.264,189.175L64.264,175.781C64.264,175.437 64.143,175.146 63.903,174.906C63.663,174.666 63.371,174.545 63.028,174.545ZM122.426,190.059C121.885,190.059 121.445,190.055 121.106,190.049C120.768,190.042 120.437,190.021 120.112,189.987C119.787,189.953 119.54,189.919 119.371,189.885C119.202,189.851 119.036,189.783 118.873,189.68C118.711,189.578 118.599,189.479 118.539,189.383C118.478,189.288 118.42,189.141 118.366,188.943C118.312,188.746 118.281,188.551 118.275,188.36C118.268,188.169 118.264,187.91 118.264,187.583L118.264,178.783C118.264,178.592 118.336,178.422 118.478,178.272C118.62,178.122 118.786,178.047 118.975,178.047L124.334,178.047C124.402,178.047 124.436,178.012 124.436,177.944L124.436,177.167C124.436,177.098 124.402,177.064 124.334,177.064L118.975,177.064C118.786,177.064 118.62,176.993 118.478,176.849C118.336,176.706 118.264,176.539 118.264,176.348L118.264,172.092C118.264,171.901 118.336,171.73 118.478,171.58C118.62,171.43 118.786,171.355 118.975,171.355L119.767,171.355C119.956,171.355 120.125,171.43 120.274,171.58C120.423,171.73 120.497,171.901 120.497,172.092L120.497,172.808C120.497,172.876 120.531,172.91 120.599,172.91L126.141,172.91C126.33,172.91 126.496,172.985 126.638,173.135C126.78,173.285 126.851,173.456 126.851,173.647L126.851,173.872C126.851,174.063 126.78,174.233 126.638,174.384C126.496,174.534 126.33,174.609 126.141,174.609L120.599,174.609C120.531,174.609 120.497,174.643 120.497,174.711L120.497,175.468C120.497,175.536 120.531,175.57 120.599,175.57L125.938,175.57C126.127,175.57 126.293,175.645 126.435,175.796C126.577,175.946 126.648,176.116 126.648,176.307L126.648,178.804C126.648,178.995 126.581,179.165 126.445,179.315C126.31,179.465 126.141,179.54 125.938,179.54L120.599,179.54C120.531,179.54 120.497,179.575 120.497,179.643L120.497,180.42C120.497,180.475 120.531,180.502 120.599,180.502L125.938,180.502C126.127,180.502 126.293,180.574 126.435,180.717C126.577,180.86 126.648,181.034 126.648,181.239L126.648,181.321C126.648,181.512 126.581,181.682 126.445,181.832C126.31,181.982 126.141,182.057 125.938,182.057L120.599,182.057C120.531,182.057 120.497,182.092 120.497,182.16L120.497,182.937C120.497,182.992 120.531,183.019 120.599,183.019L125.938,183.019C126.127,183.019 126.293,183.091 126.435,183.234C126.577,183.377 126.648,183.551 126.648,183.756L126.648,183.838C126.648,184.029 126.581,184.199 126.445,184.349C126.31,184.499 126.141,184.574 125.938,184.574L120.599,184.574C120.531,184.574 120.497,184.609 120.497,184.677L120.497,185.454C120.497,185.509 120.531,185.536 120.599,185.536L125.938,185.536C126.127,185.536 126.293,185.608 126.435,185.751C126.577,185.894 126.648,186.062 126.648,186.253L126.648,186.355C126.648,186.437 126.682,186.478 126.75,186.478L126.851,186.478C127.041,186.505 127.203,186.594 127.338,186.744C127.474,186.894 127.535,187.071 127.521,187.276C127.426,188.558 127.102,189.343 126.547,189.629C125.992,189.916 124.618,190.059 122.426,190.059ZM114.489,188.074C114.786,188.074 114.962,188.046 115.017,187.992C115.071,187.937 115.098,187.767 115.098,187.48L115.098,186.723C115.098,186.655 115.064,186.621 114.996,186.621L111.22,186.621C111.153,186.621 111.119,186.655 111.119,186.723L111.119,189.22C111.119,189.411 111.048,189.581 110.906,189.731C110.764,189.881 110.591,189.956 110.388,189.956L109.82,189.956C109.63,189.956 109.461,189.881 109.312,189.731C109.163,189.581 109.089,189.411 109.089,189.22L109.089,180.093C109.089,179.902 109.16,179.735 109.302,179.592C109.444,179.448 109.617,179.377 109.82,179.377L116.356,179.377C116.546,179.377 116.715,179.448 116.864,179.592C117.013,179.735 117.087,179.902 117.087,180.093L117.087,187.48C117.087,188.599 116.972,189.285 116.742,189.537C116.512,189.789 115.93,189.916 114.996,189.916C114.78,189.916 114.374,189.895 113.778,189.854C113.575,189.84 113.406,189.759 113.271,189.609C113.135,189.458 113.061,189.281 113.047,189.077L113.047,188.667C113.034,188.49 113.095,188.333 113.23,188.197C113.365,188.06 113.528,187.999 113.717,188.012C114.164,188.053 114.421,188.074 114.489,188.074ZM156.781,189.178C156.781,189.232 156.791,189.278 156.827,189.312C156.866,189.349 156.914,189.366 156.969,189.366C156.93,189.341 156.896,189.313 156.865,189.282C156.834,189.251 156.806,189.217 156.781,189.178ZM49.443,189.178C49.443,189.232 49.453,189.278 49.489,189.312C49.528,189.349 49.576,189.366 49.631,189.366C49.592,189.341 49.558,189.313 49.527,189.282C49.496,189.251 49.468,189.217 49.443,189.178ZM170.557,189.178C170.532,189.217 170.504,189.251 170.473,189.282C170.442,189.313 170.408,189.341 170.369,189.366C170.421,189.365 170.466,189.348 170.502,189.311C170.539,189.274 170.557,189.23 170.557,189.178ZM63.219,189.178C63.194,189.217 63.166,189.251 63.135,189.282C63.104,189.313 63.07,189.341 63.031,189.366C63.083,189.365 63.128,189.348 63.164,189.311C63.201,189.274 63.219,189.23 63.219,189.178ZM157.732,176.56L157.732,188.415L169.606,188.415L169.606,176.56L157.732,176.56ZM50.394,176.56L50.394,188.415L62.268,188.415L62.268,176.56L50.394,176.56ZM120.497,187.194L120.497,187.685C120.497,187.958 120.592,188.122 120.782,188.176C120.971,188.231 121.627,188.258 122.751,188.258C123.874,188.258 124.581,188.207 124.872,188.104C125.163,188.002 125.336,187.699 125.39,187.194C125.39,187.126 125.356,187.085 125.288,187.071L120.599,187.071C120.531,187.085 120.497,187.126 120.497,187.194ZM114.996,184.984C115.064,184.984 115.098,184.95 115.098,184.881L115.098,183.961C115.098,183.892 115.064,183.858 114.996,183.858L111.22,183.858C111.153,183.858 111.119,183.892 111.119,183.961L111.119,184.881C111.119,184.95 111.153,184.984 111.22,184.984L114.996,184.984ZM111.119,181.178L111.119,182.098C111.119,182.167 111.153,182.201 111.22,182.201L114.996,182.201C115.064,182.201 115.098,182.167 115.098,182.098L115.098,181.178C115.098,181.109 115.064,181.075 114.996,181.075L111.22,181.075C111.153,181.075 111.119,181.109 111.119,181.178ZM116.864,176.594C117.053,176.594 117.222,176.669 117.371,176.819C117.52,176.969 117.595,177.139 117.595,177.33L117.595,177.576C117.595,177.767 117.52,177.934 117.371,178.077C117.222,178.22 117.053,178.292 116.864,178.292L109.191,178.292C109.001,178.292 108.835,178.22 108.693,178.077C108.551,177.934 108.48,177.767 108.48,177.576L108.48,177.33C108.48,177.139 108.551,176.969 108.693,176.819C108.835,176.669 109.001,176.594 109.191,176.594L110.449,176.594C110.517,176.594 110.537,176.566 110.51,176.512C110.266,175.912 110.002,175.318 109.718,174.731C109.705,174.677 109.664,174.65 109.596,174.65L109.454,174.65C109.265,174.65 109.099,174.578 108.957,174.435C108.815,174.291 108.744,174.118 108.744,173.913L108.744,173.647C108.744,173.456 108.815,173.285 108.957,173.135C109.099,172.985 109.265,172.91 109.454,172.91L111.931,172.91C111.999,172.91 112.032,172.876 112.032,172.808L112.032,171.989C112.032,171.798 112.107,171.628 112.256,171.478C112.405,171.328 112.574,171.253 112.763,171.253L113.453,171.253C113.643,171.253 113.812,171.328 113.961,171.478C114.11,171.628 114.184,171.798 114.184,171.989L114.184,172.808C114.184,172.876 114.218,172.91 114.286,172.91L116.823,172.91C117.013,172.91 117.182,172.985 117.331,173.135C117.48,173.285 117.554,173.456 117.554,173.647L117.554,173.913C117.554,174.104 117.48,174.274 117.331,174.424C117.182,174.575 117.013,174.65 116.823,174.65L116.681,174.65C116.6,174.65 116.553,174.677 116.539,174.731C116.309,175.441 116.072,176.034 115.829,176.512C115.801,176.566 115.822,176.594 115.889,176.594L116.864,176.594ZM114.509,174.752C114.536,174.684 114.516,174.65 114.448,174.65L111.829,174.65C111.762,174.65 111.742,174.677 111.769,174.731C112.229,175.796 112.479,176.389 112.52,176.512C112.533,176.566 112.581,176.594 112.662,176.594L113.596,176.594C113.677,176.594 113.724,176.566 113.738,176.512C114.008,175.993 114.265,175.407 114.509,174.752ZM170.335,175.59C170.388,175.618 170.434,175.654 170.473,175.693C170.504,175.724 170.532,175.759 170.557,175.798L170.557,175.781C170.557,175.727 170.539,175.682 170.502,175.645C170.465,175.607 170.42,175.59 170.366,175.59L170.335,175.59ZM62.997,175.59C63.05,175.618 63.096,175.654 63.135,175.693C63.166,175.724 63.194,175.759 63.219,175.798L63.219,175.781C63.219,175.727 63.201,175.682 63.164,175.645C63.127,175.607 63.082,175.59 63.028,175.59L62.997,175.59ZM49.665,175.59L49.634,175.59C49.581,175.59 49.535,175.607 49.498,175.645C49.461,175.682 49.443,175.727 49.443,175.781L49.443,175.798C49.468,175.759 49.496,175.724 49.527,175.693C49.566,175.654 49.612,175.618 49.665,175.59ZM157.003,175.59L156.972,175.59C156.919,175.59 156.873,175.607 156.836,175.645C156.799,175.682 156.781,175.727 156.781,175.781L156.781,175.798C156.806,175.759 156.834,175.724 156.865,175.693C156.904,175.654 156.95,175.618 157.003,175.59ZM113.643,148.586L113.643,167.814C113.643,168.39 114.111,168.858 114.687,168.858C115.263,168.858 115.731,168.39 115.731,167.814L115.731,148.586C115.731,148.01 115.263,147.543 114.687,147.543C114.111,147.543 113.643,148.01 113.643,148.586ZM118.819,148.586L118.819,167.814C118.819,168.39 119.287,168.858 119.863,168.858C120.439,168.858 120.907,168.39 120.907,167.814L120.907,148.586C120.907,148.01 120.439,147.543 119.863,147.543C119.287,147.543 118.819,148.01 118.819,148.586ZM108.467,148.586L108.467,167.814C108.467,168.39 108.935,168.858 109.511,168.858C110.087,168.858 110.554,168.39 110.554,167.814L110.554,148.586C110.554,148.01 110.087,147.543 109.511,147.543C108.935,147.543 108.467,148.01 108.467,148.586ZM86.195,168.199L96.777,168.199C97.353,168.199 97.821,167.731 97.821,167.155C97.821,166.579 97.353,166.111 96.777,166.111L86.195,166.111C85.619,166.111 85.151,166.579 85.151,167.155C85.151,167.731 85.619,168.199 86.195,168.199ZM81.85,149.445C77.812,155.27 77.6,161.096 81.866,166.922C82.206,167.387 82.861,167.488 83.327,167.148C83.792,166.807 83.894,166.152 83.553,165.686C79.88,160.67 80.091,155.653 83.568,150.636C83.897,150.162 83.779,149.51 83.305,149.181C82.831,148.852 82.179,148.97 81.85,149.445ZM132.62,150.636C136.097,155.653 136.309,160.67 132.636,165.686C132.295,166.152 132.396,166.807 132.862,167.148C133.327,167.488 133.982,167.387 134.323,166.922C138.588,161.096 138.377,155.27 134.339,149.445C134.01,148.97 133.358,148.852 132.884,149.181C132.409,149.51 132.291,150.162 132.62,150.636ZM169.208,150.519L157.506,150.519C157.188,150.519 156.917,150.631 156.695,150.853C156.472,151.076 156.36,151.346 156.36,151.664L156.36,163.367C156.36,163.708 156.48,163.982 156.704,164.195C156.924,164.405 157.191,164.512 157.506,164.512L169.208,164.512C169.526,164.512 169.796,164.4 170.019,164.178C170.242,163.955 170.354,163.685 170.354,163.367L170.354,151.664C170.354,151.346 170.242,151.076 170.019,150.853C169.796,150.631 169.526,150.519 169.208,150.519ZM62.494,150.519L50.792,150.519C50.474,150.519 50.204,150.631 49.981,150.853C49.758,151.076 49.646,151.346 49.646,151.664L49.646,163.367C49.646,163.708 49.766,163.982 49.99,164.195C50.21,164.405 50.477,164.512 50.792,164.512L62.494,164.512C62.813,164.512 63.083,164.4 63.305,164.178C63.528,163.955 63.64,163.685 63.64,163.367L63.64,151.664C63.64,151.346 63.528,151.076 63.305,150.853C63.083,150.631 62.813,150.519 62.494,150.519ZM158.235,152.411L158.235,162.637L168.478,162.637L168.478,152.411L158.235,152.411ZM51.522,152.411L51.522,162.637L61.765,162.637L61.765,152.411L51.522,152.411ZM98.037,151.229L98.052,151.252C98.094,151.32 98.141,151.371 98.189,151.408C98.379,151.576 98.597,151.635 98.837,151.603C99.074,151.571 99.284,151.453 99.447,151.22C99.449,151.218 99.45,151.217 99.451,151.215C99.811,150.688 100.205,150.391 100.676,150.391C101.053,150.391 101.404,150.65 101.776,151.09C101.776,151.091 101.777,151.091 101.777,151.091C102.513,151.957 103.333,152.365 104.211,152.365C105.302,152.375 106.217,151.852 106.923,150.753C106.927,150.746 106.932,150.739 106.936,150.731C107.046,150.541 107.098,150.324 107.079,150.079C107.06,149.819 106.966,149.608 106.812,149.439L106.84,149.473L106.753,149.378C106.552,149.167 106.312,149.086 106.038,149.121C105.793,149.153 105.577,149.276 105.413,149.527C105.213,149.817 105.014,150.033 104.805,150.16C104.627,150.269 104.429,150.321 104.211,150.321L104.202,150.321C103.828,150.327 103.48,150.071 103.111,149.634C103.11,149.634 103.11,149.633 103.11,149.633C102.374,148.768 101.554,148.359 100.676,148.359C99.585,148.35 98.67,148.872 97.964,149.971C97.964,149.972 97.963,149.973 97.962,149.975C97.846,150.158 97.788,150.376 97.808,150.634C97.825,150.871 97.906,151.068 98.037,151.229ZM122.265,151.229L122.279,151.252C122.321,151.32 122.369,151.371 122.417,151.408C122.606,151.576 122.824,151.635 123.065,151.603C123.302,151.571 123.512,151.453 123.675,151.22C123.676,151.218 123.678,151.217 123.679,151.215C124.039,150.688 124.433,150.391 124.904,150.391C125.281,150.391 125.631,150.65 126.004,151.09C126.004,151.091 126.004,151.091 126.005,151.091C126.74,151.957 127.56,152.365 128.438,152.365C129.53,152.375 130.444,151.852 131.15,150.753C131.155,150.746 131.159,150.739 131.164,150.731C131.274,150.541 131.325,150.324 131.307,150.079C131.288,149.819 131.193,149.608 131.039,149.439L131.068,149.473L130.98,149.378C130.779,149.167 130.539,149.086 130.266,149.121L130.265,149.121C130.021,149.153 129.805,149.276 129.641,149.527C129.441,149.817 129.242,150.033 129.033,150.16C128.855,150.269 128.656,150.321 128.438,150.321L128.43,150.321C128.056,150.327 127.708,150.071 127.339,149.634C127.338,149.634 127.338,149.633 127.337,149.633C126.602,148.768 125.782,148.359 124.904,148.359C123.812,148.35 122.898,148.872 122.192,149.971C122.191,149.972 122.19,149.973 122.19,149.975C122.074,150.158 122.016,150.376 122.035,150.634C122.053,150.871 122.133,151.068 122.265,151.229ZM78.544,128.259C78.626,133.939 77.274,137.355 72.662,140.285C72.175,140.594 72.031,141.241 72.34,141.728C72.65,142.215 73.296,142.359 73.783,142.05C79.097,138.673 80.729,134.774 80.635,128.229C80.627,127.652 80.151,127.191 79.575,127.199C78.998,127.207 78.536,127.682 78.544,128.259ZM91.378,129.573L91.359,129.583L91.259,129.166L91.174,129.208C90.981,129.293 90.826,129.453 90.735,129.713C90.659,129.932 90.653,130.152 90.717,130.372C90.718,130.375 90.719,130.378 90.72,130.381C91.68,133.431 92.524,136.848 93.25,140.632C93.251,140.635 93.251,140.638 93.252,140.642C93.305,140.888 93.423,141.079 93.596,141.22C93.819,141.401 94.053,141.444 94.292,141.376L94.178,141.392L94.419,141.332L94.427,141.331L94.447,141.325C94.668,141.261 94.847,141.115 94.966,140.868L94.967,140.868C95.069,140.655 95.097,140.43 95.047,140.193C94.306,136.394 93.427,132.92 92.41,129.769C92.409,129.765 92.408,129.762 92.407,129.758C92.313,129.493 92.164,129.316 91.983,129.21C91.76,129.078 91.532,129.06 91.3,129.148L91.378,129.573ZM94.267,140.945L94.254,140.949L94.319,141.345L94.267,140.945ZM135.389,127.312C135.471,132.992 134.119,136.408 129.507,139.338C129.02,139.647 128.876,140.294 129.185,140.781C129.495,141.268 130.141,141.412 130.628,141.103C135.942,137.726 137.574,133.827 137.48,127.282C137.472,126.705 136.996,126.244 136.42,126.252C135.843,126.26 135.381,126.735 135.389,127.312ZM84.583,141.044L84.714,141.131L84.71,141.128L84.723,141.136C84.932,141.259 85.156,141.281 85.396,141.197L85.397,141.197C85.623,141.116 85.797,140.955 85.903,140.695C87.236,137.407 88.082,133.91 88.439,130.202C88.464,129.965 88.413,129.741 88.282,129.534C88.126,129.286 87.925,129.167 87.707,129.141L87.575,129.122C87.315,129.101 87.088,129.19 86.901,129.405C86.755,129.572 86.668,129.773 86.642,130.008L86.642,130.01C86.285,133.46 85.487,136.719 84.246,139.789C84.159,140.003 84.141,140.23 84.197,140.469L84.197,140.47C84.261,140.743 84.399,140.929 84.583,141.044ZM85.345,140.759C85.346,140.8 85.342,140.843 85.33,140.885C85.279,141.065 85.115,141.189 84.927,141.189C84.927,141.189 85.178,141.006 85.269,140.798C85.296,140.788 85.322,140.774 85.345,140.759ZM141.107,127.962C142.074,131.539 144.155,134.752 147.597,137.27C145.635,137.554 143.649,138.062 141.874,138.617C141.269,138.806 140.931,139.45 141.12,140.055C141.309,140.66 141.954,140.998 142.559,140.809C145.269,139.963 148.51,139.206 151.299,139.348C151.842,139.375 152.331,139.018 152.468,138.491C152.606,137.964 152.355,137.413 151.867,137.172C147.129,134.822 144.408,131.369 143.325,127.363C143.16,126.751 142.529,126.388 141.917,126.554C141.305,126.719 140.942,127.35 141.107,127.962ZM61.024,127.741L51.014,127.741C50.721,127.741 50.472,127.844 50.267,128.049C50.062,128.254 49.958,128.503 49.958,128.796L49.958,138.807C49.958,139.121 50.069,139.373 50.276,139.57C50.479,139.763 50.724,139.862 51.014,139.862L61.024,139.862C61.317,139.862 61.566,139.759 61.771,139.554C61.976,139.349 62.08,139.1 62.08,138.807L62.08,128.796C62.08,128.503 61.976,128.254 61.771,128.049C61.566,127.844 61.317,127.741 61.024,127.741ZM167.738,127.741L157.727,127.741C157.434,127.741 157.186,127.844 156.981,128.049C156.775,128.254 156.672,128.503 156.672,128.796L156.672,138.807C156.672,139.121 156.783,139.373 156.99,139.57C157.192,139.763 157.438,139.862 157.727,139.862L167.738,139.862C168.031,139.862 168.28,139.759 168.485,139.554C168.69,139.349 168.793,139.1 168.793,138.807L168.793,128.796C168.793,128.503 168.69,128.254 168.485,128.049C168.28,127.844 168.031,127.741 167.738,127.741ZM51.713,129.511L51.713,138.107L60.324,138.107L60.324,129.511L51.713,129.511ZM158.427,129.511L158.427,138.107L167.038,138.107L167.038,129.511L158.427,129.511ZM110.159,135.498L120.741,135.498C121.317,135.498 121.785,135.03 121.785,134.454C121.785,133.878 121.317,133.41 120.741,133.41L110.159,133.41C109.583,133.41 109.115,133.878 109.115,134.454C109.115,135.03 109.583,135.498 110.159,135.498ZM147.02,129.945L148.82,131.376C149.227,131.699 149.819,131.631 150.142,131.225C150.465,130.818 150.397,130.226 149.991,129.903L148.19,128.472C147.784,128.149 147.191,128.217 146.868,128.623C146.545,129.03 146.613,129.622 147.02,129.945ZM149.454,128.322L151.254,129.753C151.661,130.076 152.253,130.008 152.576,129.602C152.899,129.195 152.831,128.603 152.425,128.28L150.624,126.849C150.218,126.526 149.625,126.594 149.302,127C148.979,127.407 149.047,127.999 149.454,128.322ZM87.966,129.824C88.023,129.756 88.059,129.669 88.064,129.574C88.073,129.382 87.951,129.213 87.775,129.157C87.892,129.195 87.931,129.279 87.927,129.379C87.949,129.434 87.96,129.494 87.958,129.556C87.955,129.619 87.939,129.678 87.912,129.731L87.966,129.824ZM87.706,129.141L87.729,129.145L87.685,129.138L87.706,129.141ZM126.933,123.366C125.51,123.366 124.347,124.534 124.347,125.982C124.347,127.43 125.51,128.598 126.933,128.598C128.357,128.598 129.519,127.43 129.519,125.982C129.519,124.534 128.357,123.366 126.933,123.366ZM100.489,123.366C99.066,123.366 97.903,124.534 97.903,125.982C97.903,127.43 99.066,128.598 100.489,128.598C101.913,128.598 103.075,127.43 103.075,125.982C103.075,124.534 101.913,123.366 100.489,123.366ZM126.933,125.029C127.446,125.029 127.856,125.46 127.856,125.982C127.856,126.504 127.446,126.935 126.933,126.935C126.42,126.935 126.01,126.504 126.01,125.982C126.01,125.46 126.42,125.029 126.933,125.029ZM100.489,125.029C101.002,125.029 101.412,125.46 101.412,125.982C101.412,126.504 101.002,126.935 100.489,126.935C99.976,126.935 99.566,126.504 99.566,125.982C99.566,125.46 99.976,125.029 100.489,125.029ZM135.388,109.943C135.388,112.293 136.218,114.304 137.877,115.978C139.538,117.653 141.551,118.491 143.915,118.491C146.28,118.491 148.292,117.653 149.953,115.978C151.613,114.304 152.443,112.293 152.443,109.943C152.443,107.594 151.613,105.585 149.952,103.918C148.292,102.25 146.28,101.416 143.915,101.416C141.551,101.416 139.539,102.25 137.878,103.918C136.218,105.585 135.388,107.594 135.388,109.943ZM68.212,109.943C68.212,112.293 69.042,114.304 70.702,115.978C72.363,117.653 74.375,118.491 76.74,118.491C79.104,118.491 81.117,117.653 82.778,115.978C84.438,114.304 85.267,112.293 85.267,109.943C85.267,107.594 84.437,105.585 82.777,103.918C81.116,102.25 79.104,101.416 76.74,101.416C74.376,101.416 72.363,102.25 70.703,103.918C69.042,105.585 68.212,107.594 68.212,109.943ZM108.499,103.796C108.581,109.476 107.229,112.891 102.617,115.821C102.13,116.131 101.986,116.777 102.295,117.264C102.605,117.751 103.251,117.895 103.738,117.586C109.052,114.21 110.684,110.31 110.59,103.766C110.582,103.189 110.106,102.727 109.53,102.735C108.953,102.744 108.491,103.219 108.499,103.796ZM126.248,104.667L126.217,104.675L126.063,104.72C125.774,104.792 125.568,104.948 125.433,105.172C125.272,105.441 125.263,105.71 125.397,105.979C125.399,105.983 125.401,105.987 125.404,105.991C127.051,109.035 128.498,112.445 129.744,116.221C129.746,116.226 129.747,116.231 129.749,116.236C129.838,116.475 130.016,116.674 130.305,116.81C130.56,116.931 130.825,116.968 131.099,116.923L131.031,116.929L131.345,116.876C131.657,116.826 131.892,116.691 132.06,116.49C132.273,116.233 132.318,115.959 132.214,115.672C130.938,111.868 129.425,108.388 127.674,105.231C127.671,105.227 127.669,105.222 127.666,105.218C127.521,104.978 127.309,104.807 127.029,104.712C126.773,104.624 126.513,104.609 126.248,104.667ZM131.242,116.47L131.231,116.472L131.273,116.882L131.242,116.47ZM98.575,103.411C96.642,109.112 94.189,112.392 88.929,114.86C88.407,115.105 88.183,115.727 88.427,116.248C88.672,116.77 89.294,116.994 89.815,116.75C95.65,114.012 98.408,110.404 100.551,104.081C100.736,103.536 100.444,102.943 99.898,102.758C99.353,102.573 98.76,102.866 98.575,103.411ZM114.783,116.623L115.029,116.714C115.016,116.711 115.003,116.707 114.99,116.702C115.235,116.789 115.498,116.807 115.78,116.749C116.103,116.682 116.333,116.53 116.484,116.314C118.787,113.01 120.245,109.495 120.862,105.769C120.912,105.491 120.83,105.225 120.572,104.987C120.367,104.798 120.123,104.693 119.837,104.675L119.641,104.658C119.327,104.643 119.058,104.717 118.832,104.869C118.568,105.045 118.426,105.266 118.381,105.513C118.38,105.514 118.38,105.516 118.38,105.517C117.77,108.948 116.403,112.19 114.281,115.244C114.1,115.503 114.069,115.777 114.186,116.067C114.29,116.325 114.484,116.515 114.783,116.623ZM115.544,116.361C115.543,116.367 115.543,116.373 115.542,116.379C115.507,116.58 115.333,116.726 115.13,116.726C115.13,116.726 115.308,116.554 115.404,116.363C115.45,116.365 115.497,116.365 115.544,116.361ZM164.159,104.026L157.25,104.026C156.984,104.026 156.745,104.138 156.559,104.407C156.431,104.593 156.36,104.816 156.36,105.082L156.36,115.092C156.36,115.378 156.437,115.606 156.566,115.784C156.751,116.039 156.986,116.148 157.25,116.148L164.159,116.148C164.424,116.148 164.663,116.036 164.849,115.767C164.977,115.581 165.049,115.358 165.049,115.092L165.049,105.082C165.049,104.816 164.977,104.593 164.849,104.407C164.663,104.138 164.424,104.026 164.159,104.026ZM63.374,104.026L56.465,104.026C56.199,104.026 55.96,104.138 55.774,104.407C55.646,104.593 55.575,104.816 55.575,105.082L55.575,115.092C55.575,115.378 55.652,115.606 55.781,115.784C55.966,116.039 56.201,116.148 56.465,116.148L63.374,116.148C63.639,116.148 63.878,116.036 64.064,115.767C64.192,115.581 64.264,115.358 64.264,115.092L64.264,105.082C64.264,104.816 64.192,104.593 64.064,104.407C63.878,104.138 63.639,104.026 63.374,104.026ZM57.11,105.797L57.11,114.392L62.729,114.392L62.729,105.797L57.11,105.797ZM157.895,105.797L157.895,114.392L163.514,114.392L163.514,105.797L157.895,105.797ZM120.2,105.223C120.212,105.185 120.22,105.144 120.221,105.103C120.227,104.881 120.059,104.694 119.839,104.675C120.079,104.698 120.094,104.872 120.038,105.055C120.039,105.065 120.039,105.075 120.039,105.086C120.038,105.103 120.037,105.12 120.034,105.137C120.093,105.158 120.148,105.187 120.2,105.223ZM126.497,76.742C126.346,76.334 126.071,76.188 125.771,76.188C125.471,76.188 125.196,76.334 125.044,76.742C125.045,76.742 119.428,91.304 119.428,91.304C119.313,91.601 119.318,91.874 119.417,92.123C119.57,92.504 119.835,92.649 120.141,92.649L131.401,92.649C131.712,92.649 131.983,92.498 132.126,92.091C132.215,91.838 132.214,91.579 132.117,91.313L126.497,76.742ZM88.664,76.742C88.512,76.334 88.237,76.188 87.937,76.188C87.637,76.188 87.362,76.334 87.211,76.742L81.595,91.304C81.479,91.601 81.484,91.874 81.584,92.123C81.737,92.504 82.001,92.649 82.307,92.649L93.568,92.649C93.879,92.649 94.15,92.498 94.292,92.091C94.381,91.838 94.38,91.579 94.284,91.313L88.664,76.742ZM120.45,91.559L120.432,91.604L120.508,91.604C120.487,91.59 120.468,91.575 120.45,91.559ZM82.616,91.559L82.599,91.604L82.675,91.604C82.654,91.59 82.634,91.575 82.616,91.559ZM93.258,91.559C93.241,91.575 93.221,91.59 93.2,91.604L93.276,91.604L93.258,91.559ZM131.092,91.559C131.074,91.575 131.055,91.59 131.034,91.604L131.11,91.604L131.092,91.559ZM121.521,90.653L130.02,90.653L125.771,79.675L121.521,90.653ZM83.688,90.653L92.187,90.653L87.937,79.675L83.688,90.653Z"/>
    </g>
</svg>
