<?xml version="1.0" encoding="UTF-8" standalone="no"?>
<!DOCTYPE svg PUBLIC "-//W3C//DTD SVG 1.1//EN" "http://www.w3.org/Graphics/SVG/1.1/DTD/svg11.dtd">
<svg width="55px" height="81px" version="1.1" xmlns="http://www.w3.org/2000/svg" xmlns:xlink="http://www.w3.org/1999/xlink" xml:space="preserve" xmlns:serif="http://www.serif.com/" style="fill-rule:evenodd;clip-rule:evenodd;stroke-linejoin:round;stroke-miterlimit:2;">
    <g transform="matrix(-0.471277,0,0,0.471277,82.8551,25.3398)">
        <path d="M139.708,-48.649L106.058,-48.649C94.736,-47.44 86.722,-41.843 80.078,-31.915C75.942,-29.079 72.957,-26.414 70.29,-23.468C68.003,-16.473 67.49,-10.247 68.473,-4.705C68.36,3.188 69.587,7.259 76.107,12.335C80.56,15.802 84.795,18.935 90.031,20.601C91.4,21.018 92.525,22.001 93.121,23.302C93.718,24.603 93.729,26.096 93.152,27.406C92.24,29.178 90.437,30.752 88.329,32.254C83.521,35.552 77.892,40.55 74.791,43.976C73.725,48.449 73.978,53.802 77,61C72.148,68 71.875,75 77,82C83.391,90.771 84.131,96.593 80.078,99.915C77.998,101.341 74.082,104.846 70.363,108.353C68.894,109.69 68.399,111.794 69.118,113.647C69.837,115.499 71.622,116.719 73.609,116.715C80.957,116.715 89.042,116.699 89.042,116.699L148.252,116.699L153.7,116.752L153.7,57.115C155.654,54.933 156.12,51.56 155.803,47.562L146.172,28.077C144.377,24.249 142.83,22.363 146.172,21.162C149.551,19.946 151.957,18.98 155.231,16.335C158.093,16.278 161.142,15.427 164.385,13.751L174.523,4.992L164.385,-3.766C163.088,-5.483 160.402,-9.156 160.56,-15.006C160.808,-24.253 156.035,-42.73 139.708,-48.649Z" style="fill:white;"/>
    </g>
    <g transform="matrix(0.608522,0,0,0.608522,-39.1194,-51.7745)">
        <path d="M80.412,196.42L80.412,217.146C80.412,217.723 80.881,218.192 81.458,218.192C82.036,218.192 82.504,217.723 82.504,217.146L82.504,196.42C82.504,195.843 82.036,195.374 81.458,195.374C80.881,195.374 80.412,195.843 80.412,196.42ZM115.609,196.42L115.609,217.146C115.609,217.723 116.077,218.192 116.655,218.192C117.232,218.192 117.701,217.723 117.701,217.146L117.701,196.42C117.701,195.843 117.232,195.374 116.655,195.374C116.077,195.374 115.609,195.843 115.609,196.42ZM85.677,218.148L112.435,218.148C113.011,218.148 113.479,217.68 113.479,217.104C113.479,216.528 113.011,216.06 112.435,216.06L85.677,216.06C85.101,216.06 84.633,216.528 84.633,217.104C84.633,217.68 85.101,218.148 85.677,218.148ZM120.252,218.147L131.534,218.147C132.109,218.147 132.577,217.68 132.577,217.104C132.577,216.528 132.109,216.061 131.534,216.061L120.252,216.061C119.677,216.061 119.209,216.528 119.209,217.104C119.209,217.68 119.677,218.147 120.252,218.147ZM137.69,205.251C140.806,207.388 144.455,210.626 146.464,212.846C146.979,213.415 147.858,213.458 148.427,212.944C148.996,212.429 149.04,211.55 148.525,210.981C146.404,208.637 142.552,205.216 139.262,202.959C138.629,202.525 137.764,202.687 137.33,203.319C136.896,203.952 137.057,204.817 137.69,205.251ZM80.412,170.958L80.412,191.684C80.412,192.261 80.881,192.73 81.458,192.73C82.036,192.73 82.504,192.261 82.504,191.684L82.504,170.958C82.504,170.381 82.036,169.912 81.458,169.912C80.881,169.912 80.412,170.381 80.412,170.958ZM112.936,192.259L118.113,192.259C118.727,192.259 119.225,191.761 119.225,191.147C119.225,190.533 118.727,190.035 118.113,190.035L112.936,190.035C112.322,190.035 111.824,190.533 111.824,191.147C111.824,191.761 112.322,192.259 112.936,192.259ZM133.907,173.572C129.869,179.397 129.658,185.223 133.923,191.049C134.264,191.514 134.919,191.615 135.384,191.275C135.85,190.934 135.951,190.279 135.61,189.813C131.937,184.797 132.149,179.78 135.626,174.763C135.955,174.289 135.837,173.637 135.362,173.308C134.888,172.979 134.236,173.097 133.907,173.572ZM140,174.563C143.477,179.58 143.689,184.597 140.016,189.613C139.675,190.079 139.776,190.734 140.242,191.075C140.707,191.415 141.362,191.314 141.703,190.849C145.968,185.023 145.757,179.197 141.719,173.372C141.39,172.897 140.738,172.779 140.264,173.108C139.789,173.437 139.671,174.089 140,174.563ZM127.968,174.982L121.268,188.536C120.996,189.086 121.222,189.752 121.772,190.024C122.321,190.296 122.988,190.07 123.26,189.52L129.959,175.967C130.231,175.417 130.005,174.75 129.456,174.479C128.906,174.207 128.239,174.433 127.968,174.982ZM91.413,176.166C91.495,181.846 90.143,185.262 85.531,188.192C85.044,188.501 84.9,189.148 85.209,189.635C85.519,190.122 86.165,190.266 86.652,189.957C91.966,186.58 93.598,182.681 93.504,176.136C93.496,175.559 93.02,175.098 92.444,175.106C91.867,175.114 91.405,175.589 91.413,176.166ZM97.272,178.41C100.909,180.904 105.169,184.683 107.514,187.275C108.027,187.842 108.905,187.886 109.473,187.372C110.041,186.859 110.084,185.981 109.571,185.413C107.114,182.698 102.652,178.736 98.842,176.122C98.21,175.689 97.346,175.85 96.913,176.481C96.48,177.113 96.641,177.977 97.272,178.41ZM99.46,162.386C98.895,163.69 98.104,164.704 96.504,164.705C95.925,164.705 95.455,165.176 95.455,165.755C95.455,166.335 95.926,166.805 96.505,166.805C99.259,166.804 100.664,165.099 101.572,162.769L105.198,155.208C105.448,154.685 105.227,154.058 104.705,153.807C104.182,153.556 103.555,153.777 103.304,154.3L100.608,159.923L97.911,154.3C97.661,153.777 97.033,153.556 96.51,153.807C95.988,154.058 95.767,154.685 96.018,155.208L99.46,162.386ZM121.996,161.518C120.616,161.518 119.489,162.65 119.489,164.053C119.489,165.456 120.616,166.589 121.996,166.589C123.375,166.589 124.502,165.456 124.502,164.053C124.502,162.65 123.375,161.518 121.996,161.518ZM121.996,163.185C122.463,163.185 122.835,163.578 122.835,164.053C122.835,164.529 122.463,164.921 121.996,164.921C121.528,164.921 121.156,164.529 121.156,164.053C121.156,163.578 121.528,163.185 121.996,163.185ZM86.294,147.978L78.835,163.068C78.563,163.617 78.789,164.284 79.338,164.555C79.887,164.827 80.554,164.601 80.825,164.052L88.284,148.962C88.556,148.413 88.33,147.746 87.781,147.475C87.232,147.203 86.565,147.429 86.294,147.978ZM131.3,152.849C134.937,155.343 139.197,159.122 141.542,161.713C142.055,162.281 142.933,162.325 143.501,161.811C144.069,161.297 144.112,160.42 143.599,159.852C141.142,157.137 136.68,153.175 132.87,150.561C132.238,150.128 131.374,150.289 130.941,150.92C130.508,151.551 130.669,152.416 131.3,152.849ZM107.663,157.672C107.761,157.443 107.925,157.266 108.158,157.141L110.627,155.786L108.163,154.431C107.874,154.276 107.686,154.043 107.597,153.734C107.511,153.429 107.545,153.136 107.711,152.852L107.729,152.818C107.884,152.53 108.118,152.344 108.428,152.255L108.429,152.255C108.732,152.169 109.036,152.202 109.339,152.375L111.748,153.855C111.726,153.153 111.704,152.212 111.683,151.034L111.683,151.023C111.683,150.717 111.795,150.44 112.036,150.199C112.277,149.96 112.554,149.848 112.86,149.848L112.86,149.863C112.87,149.853 112.881,149.848 112.893,149.848L112.894,149.848C113.204,149.848 113.477,149.959 113.71,150.191C113.94,150.419 114.055,150.697 114.055,151.023L113.991,153.864L116.4,152.384C116.514,152.314 116.631,152.265 116.75,152.236C116.862,152.201 116.98,152.182 117.103,152.182C117.753,152.182 118.281,152.71 118.281,153.36C118.281,153.843 117.99,154.259 117.574,154.441L115.115,155.778L117.591,157.138C117.881,157.293 118.068,157.526 118.158,157.836C118.247,158.151 118.207,158.455 118.027,158.747L118.026,158.753C117.871,159.04 117.637,159.227 117.326,159.315C117.017,159.403 116.706,159.363 116.398,159.168L113.991,157.701L114.055,160.547C114.055,160.85 113.948,161.123 113.719,161.362C113.484,161.606 113.208,161.722 112.894,161.722L112.86,161.722C112.547,161.722 112.271,161.606 112.036,161.362C111.807,161.123 111.7,160.85 111.7,160.547L111.763,157.718C111.195,158.067 110.426,158.527 109.458,159.098C109.258,159.256 109.005,159.35 108.73,159.35C108.079,159.35 107.551,158.823 107.551,158.172C107.551,157.993 107.591,157.823 107.663,157.672ZM94.741,141.066L99.732,141.066C100.308,141.066 100.777,140.598 100.777,140.021C100.777,139.445 100.308,138.976 99.732,138.976L94.741,138.976C94.164,138.976 93.696,139.445 93.696,140.021C93.696,140.598 94.164,141.066 94.741,141.066ZM127.471,119.954C127.119,119.954 126.819,120.079 126.572,120.325C126.325,120.572 126.201,120.872 126.201,121.225L126.201,122.872C126.201,125.8 125.539,128.429 124.21,130.755L124.209,130.755C122.885,133.074 121.037,134.882 118.668,136.182C118.664,136.184 118.659,136.186 118.655,136.189C118.363,136.359 118.175,136.608 118.089,136.937C118.006,137.26 118.051,137.566 118.232,137.855L118.31,137.994C118.494,138.273 118.757,138.454 119.101,138.531C119.436,138.607 119.754,138.568 120.057,138.417C120.061,138.415 120.066,138.412 120.07,138.41C121.949,137.409 123.599,136.015 125.018,134.225C126.117,132.84 126.991,131.324 127.64,129.678C128.284,131.312 129.143,132.823 130.218,134.21C131.611,136.008 133.235,137.407 135.088,138.409C135.098,138.414 135.107,138.419 135.117,138.423C135.439,138.574 135.757,138.605 136.068,138.529C136.395,138.451 136.653,138.27 136.838,137.984L136.826,138.002L136.89,137.886C137.107,137.582 137.157,137.259 137.056,136.918C136.961,136.598 136.771,136.355 136.486,136.189C136.482,136.187 136.479,136.185 136.475,136.183C134.105,134.87 132.257,133.055 130.932,130.736C129.602,128.409 128.94,125.787 128.94,122.872L128.94,121.225C128.94,120.872 128.816,120.572 128.569,120.325C128.322,120.079 128.023,119.954 127.67,119.954L127.67,119.956L127.471,119.954ZM153.286,135.718C154.049,135.718 154.669,136.337 154.669,137.1C154.669,137.863 154.049,138.483 153.286,138.483C152.523,138.483 151.904,137.863 151.904,137.1C151.904,136.337 152.523,135.718 153.286,135.718ZM78.678,120.527C74.64,126.352 74.429,132.178 78.694,138.004C79.035,138.469 79.69,138.571 80.155,138.23C80.621,137.889 80.722,137.234 80.381,136.768C76.708,131.752 76.92,126.735 80.397,121.718C80.726,121.244 80.608,120.592 80.133,120.263C79.659,119.934 79.007,120.052 78.678,120.527ZM115.659,136.583L108.723,130.591L115.659,124.599C116.096,124.222 116.144,123.561 115.767,123.124C115.39,122.688 114.729,122.64 114.292,123.017L106.441,129.8C106.211,129.998 106.079,130.287 106.079,130.591C106.079,130.895 106.211,131.183 106.441,131.382L114.292,138.165C114.729,138.542 115.39,138.494 115.767,138.057C116.144,137.621 116.096,136.96 115.659,136.583ZM73.866,136.583L66.93,130.591L73.866,124.599C74.303,124.222 74.351,123.561 73.974,123.124C73.597,122.688 72.936,122.64 72.5,123.017L64.648,129.8C64.418,129.998 64.286,130.287 64.286,130.591C64.286,130.895 64.418,131.183 64.648,131.382L72.5,138.165C72.936,138.542 73.597,138.494 73.974,138.057C74.351,137.621 74.303,136.96 73.866,136.583ZM136.263,137.815L136.424,138.138L136.238,137.837C136.246,137.83 136.254,137.822 136.263,137.815ZM146.417,123.096C146.499,128.776 145.147,132.192 140.535,135.122C140.048,135.431 139.904,136.078 140.213,136.565C140.523,137.052 141.169,137.196 141.656,136.887C146.97,133.51 148.602,129.611 148.508,123.066C148.5,122.489 148.024,122.028 147.448,122.036C146.871,122.044 146.409,122.519 146.417,123.096ZM101.808,123.052L101.808,125.413C101.808,126.047 102.323,126.562 102.957,126.562C103.591,126.562 104.106,126.047 104.106,125.413L104.106,123.052C104.106,122.418 103.591,121.903 102.957,121.903C102.323,121.903 101.808,122.418 101.808,123.052ZM83.404,123.052L83.404,125.413C83.404,126.047 83.919,126.562 84.553,126.562C85.187,126.562 85.702,126.047 85.702,125.413L85.702,123.052C85.702,122.418 85.187,121.903 84.553,121.903C83.919,121.903 83.404,122.418 83.404,123.052ZM90.344,94.68C89.991,94.68 89.691,94.805 89.445,95.051C89.198,95.298 89.073,95.598 89.073,95.951L89.073,97.599C89.073,100.528 88.411,103.158 87.081,105.486C85.756,107.806 83.907,109.615 81.537,110.915C81.533,110.917 81.528,110.92 81.524,110.922C81.232,111.092 81.043,111.341 80.958,111.67C80.875,111.993 80.92,112.299 81.101,112.588L81.178,112.727C81.363,113.006 81.626,113.187 81.97,113.265C82.305,113.34 82.624,113.301 82.926,113.15C82.931,113.148 82.935,113.146 82.939,113.143C84.819,112.142 86.469,110.747 87.889,108.957C88.989,107.57 89.864,106.053 90.513,104.407C91.157,106.042 92.017,107.554 93.092,108.942C94.486,110.741 96.111,112.14 97.964,113.142C97.974,113.147 97.984,113.152 97.993,113.157C98.316,113.307 98.633,113.338 98.944,113.263C99.272,113.184 99.529,113.003 99.714,112.717L99.702,112.735L99.767,112.619C99.983,112.315 100.034,111.992 99.933,111.651C99.838,111.331 99.647,111.088 99.362,110.922C99.359,110.92 99.355,110.918 99.351,110.916C96.98,109.603 95.131,107.786 93.805,105.466C92.475,103.138 91.813,100.515 91.813,97.599L91.813,95.951C91.813,95.598 91.689,95.298 91.442,95.051C91.195,94.805 90.895,94.68 90.542,94.68L90.542,94.682L90.344,94.68ZM121.165,103.418L117.392,103.418C116.813,103.418 116.342,103.888 116.342,104.468C116.342,105.047 116.813,105.518 117.392,105.518L121.165,105.518L121.165,109.502C121.165,110.081 121.635,110.552 122.215,110.552C122.794,110.552 123.265,110.081 123.265,109.502L123.265,105.518L127.038,105.518C127.617,105.518 128.088,105.047 128.088,104.468C128.088,103.888 127.617,103.418 127.038,103.418L123.265,103.418L123.265,99.434C123.265,98.854 122.794,98.384 122.215,98.384C121.635,98.384 121.165,98.854 121.165,99.434L121.165,103.418ZM136.252,101.888C139.368,104.025 143.017,107.262 145.026,109.483C145.541,110.051 146.42,110.095 146.989,109.58C147.558,109.066 147.602,108.186 147.087,107.618C144.966,105.273 141.114,101.853 137.824,99.596C137.191,99.162 136.326,99.323 135.892,99.956C135.458,100.588 135.619,101.454 136.252,101.888ZM92.294,90.319L122.047,90.319C122.749,90.319 123.318,89.749 123.318,89.048C123.318,88.346 122.749,87.777 122.047,87.777L92.294,87.777C91.593,87.777 91.023,88.346 91.023,89.048C91.023,89.749 91.593,90.319 92.294,90.319Z"/>
    </g>
</svg>
