<?xml version="1.0" encoding="UTF-8" standalone="no"?>
<!DOCTYPE svg PUBLIC "-//W3C//DTD SVG 1.1//EN" "http://www.w3.org/Graphics/SVG/1.1/DTD/svg11.dtd">
<svg width="56px" height="93px" version="1.1" xmlns="http://www.w3.org/2000/svg" xmlns:xlink="http://www.w3.org/1999/xlink" xml:space="preserve" xmlns:serif="http://www.serif.com/" style="fill-rule:evenodd;clip-rule:evenodd;stroke-linejoin:round;stroke-miterlimit:2;">
    <g transform="matrix(0.400734,0,0,0.510416,-15.2937,-15.4363)">
        <path d="M63.542,51L72.542,32L81.542,51C84.834,53.397 87.428,53.576 91.289,53.515L123.858,53.515C128.72,53.256 132.554,53.046 134,51L143,32L152,51C155.666,56.714 157.909,62.316 158.729,67.807C164.427,70.875 171.058,77.123 174.733,80.31C167.573,79.939 162.178,80.15 156.764,81.821C155.993,82.065 155.396,82.561 155.13,83.18C154.865,83.798 154.956,84.477 155.381,85.037C161.09,92.702 164.823,104.035 147.697,112.05C143.928,114.686 144.306,118.937 150.984,123.971C157.344,131.175 157.702,138.379 150.984,145.582C147.512,147.752 145.596,150.194 146.127,153.062L146.127,178.789C152.435,182.279 156.063,184.928 157.924,187.022C164.284,194.226 164.642,202.1 157.924,209.303C155.992,210.386 153.747,210.977 151.37,211.361L118.601,210.691C114.074,209.529 110.455,207.394 108.595,203.439C106.992,207.653 103.738,210.572 97.687,211.294L55.685,211.361C53.681,211.1 51.581,210.613 49.131,209.303C42.413,202.1 42.771,194.226 49.131,187.022C53.371,183.055 56.031,179.877 55.377,178.354L55.377,153.339L49.131,145.193C42.413,137.989 42.771,130.786 49.131,123.582C49.131,123.582 51.714,121.036 53.558,119.219C53.895,118.887 53.96,118.433 53.725,118.051C53.49,117.669 52.998,117.426 52.457,117.426L40.402,117.426L40.402,90.967C39.003,74.135 47.132,61.189 63.542,51Z" style="fill:white;"/>
    </g>
    <g transform="matrix(0.613198,0,0,0.613198,-39.6622,-40.7071)">
        <path d="M103.971,215.126L76.132,215.126C75.325,215.126 74.67,215.781 74.67,216.587C74.67,217.394 75.325,218.049 76.132,218.049L103.971,218.049C104.778,218.049 105.433,217.394 105.433,216.587C105.433,215.781 104.778,215.126 103.971,215.126ZM117.248,218.048L138.663,218.048C139.469,218.048 140.124,217.394 140.124,216.588C140.124,215.782 139.469,215.127 138.663,215.127L117.248,215.127C116.442,215.127 115.788,215.782 115.788,216.588C115.788,217.394 116.442,218.048 117.248,218.048ZM106.846,197.717C110.611,203.149 110.845,208.58 106.868,214.011C106.392,214.662 106.533,215.576 107.184,216.052C107.834,216.529 108.749,216.387 109.225,215.737C114.029,209.176 113.795,202.614 109.247,196.053C108.788,195.391 107.877,195.226 107.215,195.685C106.552,196.144 106.387,197.055 106.846,197.717ZM70.648,196.053C66.1,202.614 65.866,209.176 70.67,215.737C71.146,216.387 72.061,216.529 72.711,216.052C73.361,215.576 73.503,214.662 73.027,214.011C69.05,208.58 69.284,203.149 73.049,197.717C73.508,197.055 73.343,196.144 72.68,195.685C72.018,195.226 71.107,195.391 70.648,196.053ZM141.746,197.717C145.511,203.149 145.745,208.58 141.768,214.011C141.292,214.662 141.433,215.576 142.084,216.052C142.734,216.529 143.649,216.387 144.125,215.737C148.929,209.176 148.695,202.614 144.147,196.053C143.688,195.391 142.777,195.226 142.115,195.685C141.452,196.144 141.287,197.055 141.746,197.717ZM133.776,168.618L133.776,190.033C133.776,190.839 134.431,191.493 135.237,191.493C136.043,191.493 136.697,190.839 136.697,190.033L136.697,168.618C136.697,167.812 136.043,167.157 135.237,167.157C134.431,167.157 133.776,167.812 133.776,168.618ZM74.467,168.849L74.467,189.671C74.467,190.479 75.123,191.134 75.93,191.134C76.738,191.134 77.393,190.479 77.393,189.671L77.393,168.849C77.393,168.041 76.738,167.386 75.93,167.386C75.123,167.386 74.467,168.041 74.467,168.849ZM104.272,168.849L104.272,189.671C104.272,190.479 104.927,191.134 105.735,191.134C106.542,191.134 107.198,190.479 107.198,189.671L107.198,168.849C107.198,168.041 106.542,167.386 105.735,167.386C104.927,167.386 104.272,168.041 104.272,168.849ZM137.21,145.235C140.975,150.667 141.209,156.098 137.232,161.529C136.756,162.18 136.897,163.094 137.548,163.57C138.198,164.047 139.113,163.905 139.589,163.255C144.393,156.694 144.159,150.133 139.611,143.571C139.152,142.909 138.241,142.744 137.579,143.203C136.916,143.662 136.751,144.573 137.21,145.235ZM70.648,143.247C66.1,149.809 65.866,156.37 70.67,162.931C71.146,163.581 72.061,163.723 72.711,163.247C73.361,162.77 73.503,161.856 73.027,161.205C69.05,155.774 69.284,150.343 73.049,144.912C73.508,144.249 73.343,143.338 72.68,142.879C72.018,142.42 71.107,142.585 70.648,143.247ZM64.681,116.931L64.681,137.754C64.681,138.561 65.336,139.217 66.144,139.217C66.951,139.217 67.607,138.561 67.607,137.754L67.607,116.931C67.607,116.124 66.951,115.468 66.144,115.468C65.336,115.468 64.681,116.124 64.681,116.931ZM115.862,122.882L106.182,122.882L104.328,119.174C103.967,118.452 103.09,118.16 102.369,118.521C101.648,118.881 101.356,119.758 101.716,120.48L109.716,136.48C109.964,136.974 110.469,137.287 111.022,137.287C111.575,137.287 112.081,136.974 112.328,136.48L120.328,120.48C120.688,119.759 120.396,118.881 119.675,118.521C118.954,118.16 118.077,118.453 117.716,119.174L115.862,122.882ZM142.695,120.565C142.104,126.549 140.376,130.167 135.508,133.312C134.863,133.729 134.678,134.59 135.095,135.234C135.511,135.878 136.372,136.063 137.016,135.647C142.688,131.983 144.772,127.809 145.461,120.838C145.537,120.075 144.978,119.394 144.215,119.318C143.452,119.243 142.771,119.801 142.695,120.565ZM81.682,119.279L81.756,119.251C82.134,119.127 82.504,119.154 82.868,119.341C83.187,119.504 83.446,119.775 83.612,120.184C83.615,120.192 83.618,120.199 83.62,120.207C85.105,124.213 86.389,128.629 87.471,133.456C87.566,133.849 87.515,134.221 87.32,134.573C87.319,134.573 87.319,134.573 87.319,134.574C87.11,134.949 86.807,135.179 86.421,135.277L85.991,135.367L86.191,135.343C85.796,135.44 85.413,135.375 85.046,135.115C84.733,134.893 84.525,134.59 84.428,134.201C84.427,134.194 84.425,134.187 84.423,134.18C83.37,129.401 82.147,125.086 80.753,121.234C80.751,121.228 80.749,121.221 80.746,121.215C80.625,120.852 80.635,120.49 80.78,120.127C80.943,119.721 81.213,119.466 81.56,119.332L81.682,119.279ZM71.944,134.903L72.142,135.016L72.135,135.013L72.164,135.028C72.501,135.199 72.863,135.232 73.25,135.113L73.251,135.113C73.652,134.989 73.95,134.734 74.137,134.334L74.138,134.333C76.094,130.132 77.335,125.663 77.86,120.926C77.906,120.533 77.813,120.167 77.57,119.831C77.301,119.459 76.966,119.277 76.593,119.236L76.389,119.211C75.955,119.18 75.58,119.319 75.268,119.631C75.002,119.898 74.846,120.218 74.799,120.592L74.799,120.596C74.284,124.929 73.132,129.024 71.341,132.88C71.178,133.228 71.145,133.599 71.25,133.99C71.367,134.424 71.61,134.72 71.944,134.903ZM114.402,125.802L107.642,125.802L111.022,132.562L114.402,125.802ZM90.704,118.833L94.704,122.833C95.275,123.403 96.201,123.403 96.772,122.833C97.343,122.262 97.343,121.335 96.772,120.764L92.772,116.764C92.201,116.194 91.275,116.194 90.704,116.764C90.133,117.335 90.133,118.262 90.704,118.833ZM129.892,116.764L125.892,120.764C125.321,121.335 125.321,122.262 125.892,122.833C126.462,123.403 127.389,123.403 127.96,122.833L131.96,118.833C132.531,118.262 132.531,117.335 131.96,116.764C131.389,116.194 130.462,116.194 129.892,116.764ZM76.589,119.236L76.674,119.251L76.551,119.232L76.589,119.236ZM118.472,94.289C122.206,99.444 122.439,104.598 118.495,109.753C118.004,110.394 118.126,111.313 118.768,111.804C119.409,112.294 120.328,112.172 120.818,111.531C125.654,105.211 125.419,98.892 120.841,92.573C120.367,91.919 119.452,91.773 118.798,92.246C118.144,92.72 117.998,93.635 118.472,94.289ZM95.673,94.787L87.094,109.688C86.789,110.219 86.972,110.899 87.503,111.204C88.034,111.51 88.713,111.327 89.019,110.796L97.597,95.895C97.903,95.364 97.72,94.684 97.189,94.379C96.658,94.073 95.978,94.256 95.673,94.787ZM110.191,94.658L110.265,94.63C110.643,94.505 111.013,94.533 111.377,94.719C111.696,94.883 111.955,95.154 112.121,95.563C112.124,95.57 112.127,95.578 112.129,95.586C113.614,99.591 114.898,104.007 115.98,108.835C116.075,109.228 116.024,109.6 115.829,109.952L115.828,109.952C115.619,110.328 115.316,110.558 114.93,110.656L114.5,110.746L114.7,110.721C114.305,110.819 113.922,110.753 113.555,110.493C113.242,110.271 113.034,109.968 112.937,109.58C112.936,109.573 112.934,109.566 112.932,109.559C111.879,104.78 110.656,100.465 109.262,96.613C109.26,96.607 109.258,96.6 109.255,96.594C109.134,96.231 109.144,95.869 109.289,95.506C109.452,95.1 109.722,94.844 110.069,94.71L110.191,94.658ZM100.453,110.282L100.651,110.395L100.643,110.392L100.673,110.406C101.01,110.577 101.372,110.611 101.759,110.492L101.76,110.492C102.16,110.368 102.459,110.113 102.646,109.712C102.646,109.712 102.647,109.712 102.647,109.711C104.603,105.511 105.844,101.042 106.368,96.305C106.415,95.912 106.322,95.546 106.079,95.209C105.81,94.838 105.475,94.655 105.101,94.615L104.898,94.59C104.463,94.558 104.089,94.697 103.777,95.01C103.511,95.277 103.355,95.597 103.308,95.97L103.308,95.974C102.793,100.308 101.641,104.402 99.85,108.258C99.687,108.607 99.653,108.977 99.759,109.369C99.875,109.803 100.119,110.099 100.453,110.282ZM77.788,100.071C77.258,99.729 76.641,99.503 75.935,99.395C74.476,99.17 73.258,99.492 72.262,100.323C71.296,101.12 70.665,102.302 70.42,103.896C70.162,105.572 70.429,106.976 71.173,108.119C71.947,109.306 73.061,110.018 74.536,110.245C76.143,110.492 77.469,110.087 78.514,109.067C79.484,108.13 80.162,106.609 80.491,104.474C80.955,101.454 80.869,99.209 80.297,97.738C79.648,96.068 78.407,95.084 76.561,94.8C75.543,94.644 74.382,94.789 73.082,95.268C73.067,95.273 73.051,95.279 73.037,95.286C72.731,95.419 72.47,95.653 72.282,96.011C72.276,96.022 72.271,96.033 72.265,96.044C72.106,96.384 72.064,96.718 72.13,97.044C72.19,97.468 72.405,97.776 72.765,97.98C73.129,98.186 73.496,98.21 73.864,98.07C74.729,97.762 75.464,97.635 76.057,97.726C76.735,97.83 77.217,98.142 77.478,98.698C77.647,99.059 77.748,99.516 77.788,100.071ZM127.555,99.96C131.192,102.454 135.451,106.233 137.796,108.825C138.31,109.392 139.188,109.436 139.756,108.922C140.323,108.409 140.367,107.531 139.853,106.963C137.396,104.248 132.935,100.286 129.124,97.672C128.493,97.239 127.629,97.4 127.196,98.031C126.763,98.663 126.924,99.527 127.555,99.96ZM142.687,98.797C146.324,101.292 150.583,105.07 152.928,107.662C153.442,108.229 154.32,108.273 154.888,107.759C155.455,107.246 155.499,106.368 154.985,105.8C152.528,103.085 148.067,99.123 144.256,96.509C143.625,96.076 142.761,96.237 142.328,96.868C141.895,97.5 142.056,98.364 142.687,98.797ZM75.77,102.226C76.344,102.314 76.784,102.594 77.085,103.073C77.086,103.074 77.087,103.076 77.088,103.078C77.426,103.605 77.521,104.226 77.412,104.935C77.271,105.85 76.991,106.54 76.507,106.973C76.505,106.974 76.503,106.976 76.501,106.978C76.09,107.352 75.575,107.475 74.977,107.383C74.371,107.29 73.914,107.011 73.62,106.524L73.62,106.523C73.283,105.967 73.212,105.238 73.349,104.346C73.468,103.576 73.741,102.987 74.201,102.597C74.629,102.244 75.153,102.131 75.77,102.226ZM105.098,94.614L105.183,94.63L105.06,94.61L105.098,94.614ZM100.027,88.126L121.311,88.126C122.119,88.126 122.774,87.47 122.774,86.663C122.774,85.856 122.119,85.201 121.311,85.201L100.027,85.201C99.22,85.201 98.564,85.856 98.564,86.663C98.564,87.47 99.22,88.126 100.027,88.126ZM128.682,84.173L133.193,72.045L137.703,84.173C137.985,84.93 138.828,85.316 139.584,85.034C140.341,84.753 140.727,83.91 140.446,83.153L134.564,67.338C134.351,66.765 133.804,66.385 133.193,66.385C132.582,66.385 132.035,66.765 131.822,67.338L125.94,83.153C125.659,83.91 126.045,84.753 126.801,85.034C127.558,85.316 128.401,84.93 128.682,84.173ZM82.637,84.173L87.147,72.045L91.658,84.173C91.939,84.93 92.782,85.316 93.539,85.034C94.296,84.753 94.682,83.91 94.4,83.153L88.519,67.338C88.306,66.765 87.759,66.385 87.147,66.385C86.536,66.385 85.989,66.765 85.776,67.338L79.895,83.153C79.613,83.91 79.999,84.753 80.756,85.034C81.513,85.316 82.356,84.93 82.637,84.173Z"/>
    </g>
</svg>
