<?xml version="1.0" encoding="UTF-8" standalone="no"?>
<!DOCTYPE svg PUBLIC "-//W3C//DTD SVG 1.1//EN" "http://www.w3.org/Graphics/SVG/1.1/DTD/svg11.dtd">
<svg width="58px" height="87px" version="1.1" xmlns="http://www.w3.org/2000/svg" xmlns:xlink="http://www.w3.org/1999/xlink" xml:space="preserve" xmlns:serif="http://www.serif.com/" style="fill-rule:evenodd;clip-rule:evenodd;stroke-linejoin:round;stroke-miterlimit:2;">
    <g transform="matrix(0.620508,0,0,0.620508,-39.2557,-49.5197)">
        <path d="M106,218.551L74.242,218.551C72.426,219.225 70.068,218.107 68.5,216.551C63.375,209.551 63.348,202.551 68.2,195.551C70.141,192.571 71.881,189.757 71.5,187.551L71.5,162.551L68.5,159.551C63.375,152.551 64.081,145.551 68.933,138.551C69.732,137.255 70.118,136.055 70.139,134.938C70.161,133.712 69.739,132.587 68.933,131.551C63.808,124.551 63.348,117.993 68.2,110.993C69.114,107.963 70.069,105.115 72.516,98.406L80.5,81.551L89.75,100.551C91.173,102.768 92.583,103.807 94.5,103.551L119.5,103.551C121.419,103.632 124.077,103.195 125.5,100.551L134.5,81.551L143.5,100.551L147.758,110.551C152.61,117.551 152.525,124.551 147.4,131.551C145.724,134.142 145.862,136.454 147.4,138.551C152.252,145.551 153.253,153.147 147.4,159.551C145.208,161.95 141.317,164.195 142.5,162.067L142.5,187.551C142.456,188.463 148.202,190.747 151.814,195.551C156.932,202.359 157.23,208.688 152.105,215.688C150.665,217.655 148.433,218.245 146.5,218.551L121.5,218.551C115.484,216.182 113.998,213.512 113.785,210.756C113.497,215.165 109.485,218 106,218.551Z" style="fill:white;"/>
    </g>
    <g transform="matrix(0.620508,0,0,0.620508,-39.128,-48.5232)">
        <path d="M121.294,218.407L146.294,218.407C147.101,218.407 147.756,217.752 147.756,216.945C147.756,216.138 147.101,215.483 146.294,215.483L121.294,215.483C120.487,215.483 119.832,216.138 119.832,216.945C119.832,217.752 120.487,218.407 121.294,218.407ZM105.795,215.483L73.295,215.483C72.488,215.483 71.833,216.138 71.833,216.945C71.833,217.752 72.488,218.407 73.295,218.407L105.795,218.407C106.602,218.407 107.257,217.752 107.257,216.945C107.257,216.138 106.602,215.483 105.795,215.483ZM109.35,194.778C113.81,201.212 114.083,207.647 109.372,214.081C108.895,214.732 109.037,215.648 109.688,216.125C110.339,216.602 111.255,216.46 111.732,215.809C117.272,208.243 116.999,200.678 111.754,193.112C111.294,192.448 110.382,192.283 109.719,192.743C109.055,193.203 108.89,194.115 109.35,194.778ZM150.092,194.778C154.552,201.212 154.825,207.647 150.114,214.081C149.637,214.732 149.779,215.648 150.43,216.125C151.081,216.602 151.997,216.46 152.474,215.809C158.014,208.243 157.741,200.678 152.496,193.112C152.036,192.448 151.124,192.283 150.461,192.743C149.797,193.203 149.632,194.115 150.092,194.778ZM67.092,193.112C61.847,200.678 61.574,208.243 67.114,215.809C67.591,216.46 68.507,216.602 69.158,216.125C69.809,215.648 69.951,214.732 69.474,214.081C64.763,207.647 65.036,201.212 69.496,194.778C69.956,194.115 69.791,193.203 69.127,192.743C68.464,192.283 67.552,192.448 67.092,193.112ZM69.832,160.945L69.832,185.945C69.832,186.752 70.487,187.407 71.294,187.407C72.101,187.407 72.756,186.752 72.756,185.945L72.756,160.945C72.756,160.138 72.101,159.483 71.294,159.483C70.487,159.483 69.832,160.138 69.832,160.945ZM105.332,160.945L105.332,185.945C105.332,186.752 105.987,187.407 106.794,187.407C107.601,187.407 108.256,186.752 108.256,185.945L108.256,160.945C108.256,160.138 107.601,159.483 106.794,159.483C105.987,159.483 105.332,160.138 105.332,160.945ZM140.832,160.945L140.832,185.945C140.832,186.752 141.487,187.407 142.294,187.407C143.101,187.407 143.756,186.752 143.756,185.945L143.756,160.945C143.756,160.138 143.101,159.483 142.294,159.483C141.487,159.483 140.832,160.138 140.832,160.945ZM146.35,137.778C150.81,144.212 151.083,150.647 146.372,157.081C145.895,157.732 146.037,158.648 146.688,159.125C147.339,159.602 148.255,159.46 148.732,158.809C154.272,151.243 153.999,143.678 148.754,136.112C148.294,135.448 147.382,135.283 146.719,135.743C146.055,136.203 145.89,137.115 146.35,137.778ZM67.092,136.112C61.847,143.678 61.574,151.243 67.114,158.809C67.591,159.46 68.507,159.602 69.158,159.125C69.809,158.648 69.951,157.732 69.474,157.081C64.763,150.647 65.036,144.212 69.496,137.778C69.956,137.115 69.791,136.203 69.127,135.743C68.464,135.283 67.552,135.448 67.092,136.112ZM146.35,109.778C150.81,116.212 151.083,122.647 146.372,129.081C145.895,129.732 146.037,130.648 146.688,131.125C147.339,131.602 148.255,131.46 148.732,130.809C154.272,123.243 153.999,115.678 148.754,108.112C148.294,107.448 147.382,107.283 146.719,107.743C146.055,108.203 145.89,109.115 146.35,109.778ZM67.092,108.112C61.847,115.678 61.574,123.243 67.114,130.809C67.591,131.46 68.507,131.602 69.158,131.125C69.809,130.648 69.951,129.732 69.474,129.081C64.763,122.647 65.036,116.212 69.496,109.778C69.956,109.115 69.791,108.203 69.127,107.743C68.464,107.283 67.552,107.448 67.092,108.112ZM121.095,115.008L111.418,115.008L109.565,111.301C109.204,110.579 108.325,110.286 107.603,110.647C106.881,111.008 106.588,111.887 106.949,112.609L109.197,117.106C109.203,117.117 109.208,117.128 109.214,117.139L114.949,128.609C115.02,128.751 115.111,128.877 115.217,128.984L115.228,128.995C115.335,129.101 115.461,129.192 115.603,129.263C115.813,129.368 116.037,129.418 116.257,129.417C116.477,129.418 116.701,129.368 116.911,129.263C117.053,129.192 117.179,129.101 117.286,128.995L117.297,128.984C117.403,128.877 117.494,128.751 117.565,128.609L123.3,117.139C123.305,117.128 123.311,117.117 123.316,117.106L125.565,112.609C125.926,111.887 125.633,111.008 124.911,110.647C124.189,110.286 123.31,110.579 122.949,111.301L121.095,115.008ZM112.881,117.933L116.257,124.685L119.633,117.933L112.881,117.933ZM97.26,107.911L93.26,111.911C92.689,112.482 92.689,113.408 93.26,113.98C93.831,114.55 94.757,114.55 95.328,113.98L99.328,109.98C99.899,109.408 99.899,108.482 99.328,107.911C98.757,107.34 97.831,107.34 97.26,107.911ZM132.26,109.98L136.26,113.98C136.831,114.55 137.757,114.55 138.328,113.98C138.899,113.408 138.899,112.482 138.328,111.911L134.328,107.911C133.757,107.34 132.831,107.34 132.26,107.911C131.689,108.482 131.689,109.408 132.26,109.98ZM94.294,103.407L119.294,103.407C120.101,103.407 120.756,102.752 120.756,101.945C120.756,101.138 120.101,100.483 119.294,100.483L94.294,100.483C93.487,100.483 92.832,101.138 92.832,101.945C92.832,102.752 93.487,103.407 94.294,103.407ZM72.616,99.571L80.294,83.361L87.972,99.571C88.318,100.301 89.191,100.612 89.92,100.267C90.65,99.921 90.961,99.048 90.616,98.319L81.616,79.319C81.374,78.808 80.859,78.483 80.294,78.483C79.729,78.483 79.214,78.808 78.972,79.319L69.972,98.319C69.627,99.048 69.938,99.921 70.668,100.267C71.397,100.612 72.27,100.301 72.616,99.571ZM126.616,99.571L134.294,83.361L141.972,99.571C142.318,100.301 143.191,100.612 143.92,100.267C144.65,99.921 144.961,99.048 144.616,98.319L135.616,79.319C135.374,78.808 134.859,78.483 134.294,78.483C133.729,78.483 133.214,78.808 132.972,79.319L123.972,98.319C123.627,99.048 123.938,99.921 124.668,100.267C125.397,100.612 126.27,100.301 126.616,99.571Z"/>
    </g>
</svg>
