<?xml version="1.0" encoding="UTF-8" standalone="no"?>
<!DOCTYPE svg PUBLIC "-//W3C//DTD SVG 1.1//EN" "http://www.w3.org/Graphics/SVG/1.1/DTD/svg11.dtd">
<svg width="58px" height="87px" version="1.1" xmlns="http://www.w3.org/2000/svg" xmlns:xlink="http://www.w3.org/1999/xlink" xml:space="preserve" xmlns:serif="http://www.serif.com/" style="fill-rule:evenodd;clip-rule:evenodd;stroke-linejoin:round;stroke-miterlimit:2;">
    <g transform="matrix(0.620514,0,0,0.620514,-39.6048,-49.6452)">
        <path d="M106,218.551L74.242,218.551C72.426,219.225 70.068,218.107 68.5,216.551C63.375,209.551 63.348,202.551 68.2,195.551C70.141,192.571 71.881,189.757 71.5,187.551L71.5,162.551L68.5,159.551C63.375,152.551 64.081,145.551 68.933,138.551C69.732,137.255 70.118,136.055 70.139,134.938C70.161,133.712 69.739,132.587 68.933,131.551C63.808,124.551 63.348,117.993 68.2,110.993C69.114,107.963 70.069,105.115 72.516,98.406L80.5,81.551L89.75,100.551C91.173,102.768 92.583,103.807 94.5,103.551L119.5,103.551C121.419,103.632 124.077,103.195 125.5,100.551L134.5,81.551L143.5,100.551L147.758,110.551C152.61,117.551 152.525,124.551 147.4,131.551C145.724,134.142 145.862,136.454 147.4,138.551C152.252,145.551 153.253,153.147 147.4,159.551C145.208,161.95 141.317,164.195 142.5,162.067L142.5,187.551C142.456,188.463 148.202,190.747 151.814,195.551C156.932,202.359 157.23,208.688 152.105,215.688C150.665,217.655 148.433,218.245 146.5,218.551L121.5,218.551C115.484,216.182 113.998,213.512 113.785,210.756C113.497,215.165 109.485,218 106,218.551Z" style="fill:white;"/>
    </g>
    <g transform="matrix(0.620514,0,0,0.620514,-39.4772,-48.6488)">
        <path d="M73.856,218.607L106.366,218.607C107.168,218.602 107.818,217.949 107.818,217.145C107.818,216.338 107.163,215.683 106.356,215.683L73.856,215.683C73.049,215.683 72.394,216.338 72.394,217.145C72.394,217.952 73.049,218.607 73.856,218.607ZM121.856,218.607L146.865,218.607C147.668,218.602 148.318,217.949 148.318,217.145C148.318,216.338 147.663,215.683 146.856,215.683L121.856,215.683C121.049,215.683 120.394,216.338 120.394,217.145C120.394,217.952 121.049,218.607 121.856,218.607ZM151.863,192.683L151.854,192.683C151.566,192.683 151.276,192.767 151.022,192.943C150.358,193.403 150.193,194.315 150.653,194.978C155.113,201.412 155.386,207.847 150.675,214.281C150.198,214.932 150.34,215.848 150.991,216.325C151.251,216.515 151.552,216.607 151.851,216.607L151.86,216.607C152.308,216.606 152.75,216.398 153.035,216.009C158.575,208.443 158.302,200.878 153.057,193.312C152.775,192.905 152.323,192.685 151.863,192.683ZM111.121,192.683L111.112,192.683C110.824,192.683 110.534,192.767 110.28,192.943C109.616,193.403 109.451,194.315 109.911,194.978C114.371,201.412 114.644,207.847 109.933,214.281C109.456,214.932 109.598,215.848 110.249,216.325C110.509,216.515 110.81,216.607 111.109,216.607L111.118,216.607C111.566,216.606 112.008,216.398 112.293,216.009C117.833,208.443 117.56,200.878 112.315,193.312C112.033,192.905 111.581,192.685 111.121,192.683ZM68.866,192.683L68.857,192.683C68.394,192.683 67.938,192.902 67.654,193.312C62.409,200.878 62.136,208.443 67.676,216.009C67.963,216.401 68.409,216.608 68.86,216.607L68.869,216.607C69.165,216.605 69.463,216.513 69.72,216.325C70.371,215.848 70.513,214.932 70.036,214.281C65.325,207.847 65.598,201.412 70.058,194.978C70.518,194.315 70.353,193.403 69.689,192.943C69.438,192.769 69.151,192.684 68.866,192.683ZM71.865,159.684L71.856,159.683C71.049,159.683 70.394,160.338 70.394,161.145L70.394,186.145C70.394,186.952 71.049,187.607 71.856,187.607L71.865,187.607C72.668,187.602 73.318,186.949 73.318,186.145L73.318,161.145C73.318,160.342 72.668,159.689 71.865,159.684ZM107.365,159.684L107.356,159.683C106.549,159.683 105.894,160.338 105.894,161.145L105.894,186.145C105.894,186.952 106.549,187.607 107.356,187.607L107.365,187.607C108.168,187.602 108.818,186.949 108.818,186.145L108.818,161.145C108.818,160.342 108.168,159.689 107.365,159.684ZM142.865,159.684L142.856,159.683C142.049,159.683 141.394,160.338 141.394,161.145L141.394,186.145C141.394,186.952 142.049,187.607 142.856,187.607L142.865,187.607C143.668,187.602 144.318,186.949 144.318,186.145L144.318,161.145C144.318,160.342 143.668,159.689 142.865,159.684ZM148.121,135.683L148.112,135.683C147.824,135.683 147.534,135.767 147.28,135.943C146.616,136.403 146.451,137.315 146.911,137.978C151.371,144.412 151.644,150.847 146.933,157.281C146.456,157.932 146.598,158.848 147.249,159.325C147.509,159.516 147.81,159.607 148.109,159.608L148.118,159.608C148.566,159.606 149.008,159.399 149.293,159.009C154.833,151.443 154.56,143.878 149.315,136.312C149.033,135.905 148.581,135.686 148.121,135.683ZM68.866,135.683L68.857,135.683C68.394,135.683 67.938,135.903 67.654,136.312C62.409,143.878 62.136,151.443 67.676,159.009C67.963,159.401 68.409,159.609 68.86,159.608L68.869,159.608C69.165,159.605 69.463,159.514 69.72,159.325C70.371,158.848 70.513,157.932 70.036,157.281C65.325,150.847 65.598,144.412 70.058,137.978C70.518,137.315 70.353,136.403 69.689,135.943C69.438,135.769 69.151,135.685 68.866,135.683ZM148.121,107.683L148.112,107.683C147.824,107.683 147.534,107.767 147.28,107.943C146.616,108.403 146.451,109.315 146.911,109.978C151.371,116.412 151.644,122.847 146.933,129.281C146.456,129.932 146.598,130.848 147.249,131.325C147.509,131.516 147.81,131.607 148.109,131.608L148.118,131.608C148.566,131.606 149.008,131.399 149.293,131.009C154.833,123.443 154.56,115.878 149.315,108.312C149.033,107.905 148.581,107.686 148.121,107.683ZM68.866,107.683L68.857,107.683C68.394,107.683 67.938,107.903 67.654,108.312C62.409,115.878 62.136,123.443 67.676,131.009C67.963,131.401 68.409,131.609 68.86,131.608L68.869,131.608C69.165,131.605 69.463,131.514 69.72,131.325C70.371,130.848 70.513,129.932 70.036,129.281C65.325,122.847 65.598,116.412 70.058,109.978C70.518,109.315 70.353,108.403 69.689,107.943C69.438,107.769 69.151,107.685 68.866,107.683ZM107.366,116.991C107.371,117.002 107.377,117.013 107.383,117.024L113.294,128.848C113.581,129.42 114.193,129.723 114.794,129.644C115.395,129.723 116.007,129.42 116.293,128.848L124.54,112.354C124.901,111.632 124.608,110.753 123.886,110.392C123.164,110.031 122.285,110.324 121.924,111.046L120.001,114.892L109.587,114.892L107.664,111.046C107.303,110.324 106.424,110.031 105.702,110.392C104.98,110.753 104.687,111.632 105.048,112.354L107.366,116.991ZM111.049,117.817L114.794,125.306L118.538,117.817L111.049,117.817ZM92.372,116.145C93.744,116.154 94.856,117.271 94.856,118.645C94.856,120.02 93.744,121.137 92.372,121.145L92.356,121.145C90.976,121.145 89.856,120.025 89.856,118.645C89.856,117.266 90.976,116.145 92.356,116.145L92.372,116.145ZM135.372,116.145C136.744,116.154 137.856,117.271 137.856,118.645C137.856,120.02 136.744,121.137 135.372,121.145L135.356,121.145C133.976,121.145 132.856,120.025 132.856,118.645C132.856,117.266 133.976,116.145 135.356,116.145L135.372,116.145ZM94.856,103.607L119.865,103.607C120.668,103.602 121.318,102.949 121.318,102.145C121.318,101.338 120.663,100.683 119.856,100.683L94.856,100.683C94.049,100.683 93.394,101.338 93.394,102.145C93.394,102.952 94.049,103.607 94.856,103.607ZM80.883,78.683L80.856,78.683C80.646,78.683 80.432,78.728 80.23,78.824C80.078,78.895 79.945,78.99 79.832,79.101L79.811,79.121C79.7,79.234 79.606,79.368 79.534,79.519L70.534,98.519C70.188,99.249 70.5,100.122 71.23,100.467C71.429,100.562 71.639,100.607 71.846,100.608L71.864,100.608C72.274,100.603 72.67,100.428 72.944,100.123C73.039,100.018 73.116,99.899 73.177,99.772L80.856,83.562L88.534,99.772C88.785,100.302 89.315,100.611 89.865,100.608L89.883,100.608C90.084,100.604 90.288,100.559 90.482,100.467C91.211,100.122 91.523,99.249 91.177,98.519L82.177,79.519C82.106,79.368 82.011,79.234 81.9,79.121L81.88,79.101C81.767,78.99 81.633,78.895 81.482,78.824C81.288,78.732 81.084,78.687 80.883,78.683ZM134.883,78.683L134.856,78.683C134.646,78.683 134.432,78.728 134.23,78.824C134.078,78.895 133.945,78.99 133.832,79.101L133.811,79.121C133.7,79.234 133.606,79.368 133.534,79.519L124.534,98.519C124.188,99.249 124.5,100.122 125.23,100.467C125.429,100.562 125.639,100.607 125.846,100.608L125.864,100.608C126.274,100.603 126.67,100.428 126.944,100.123C127.039,100.018 127.116,99.899 127.177,99.772L134.856,83.562L142.534,99.772C142.785,100.302 143.315,100.611 143.865,100.608L143.883,100.608C144.084,100.604 144.288,100.559 144.482,100.467C145.211,100.122 145.523,99.249 145.177,98.519L136.177,79.519C136.106,79.368 136.011,79.234 135.9,79.121L135.88,79.101C135.767,78.99 135.633,78.895 135.482,78.824C135.288,78.732 135.084,78.687 134.883,78.683Z"/>
    </g>
</svg>
