<?xml version="1.0" encoding="UTF-8" standalone="no"?>
<!DOCTYPE svg PUBLIC "-//W3C//DTD SVG 1.1//EN" "http://www.w3.org/Graphics/SVG/1.1/DTD/svg11.dtd">
<svg width="42px" height="49px" version="1.1" xmlns="http://www.w3.org/2000/svg" xmlns:xlink="http://www.w3.org/1999/xlink" xml:space="preserve" xmlns:serif="http://www.serif.com/" style="fill-rule:evenodd;clip-rule:evenodd;stroke-linejoin:round;stroke-miterlimit:2;">
    <g transform="matrix(0.602947,0,0,0.602947,-45.3423,-24.6357)">
        <path d="M91.525,63.468C91.724,62.824 95.62,56.095 97.298,54.171C97.454,53.992 97.586,53.791 97.731,53.601C97.731,53.601 100.03,48.254 101.648,44.491C101.911,43.878 102.517,43.483 103.184,43.488C103.851,43.493 104.45,43.897 104.704,44.514C106.254,48.276 108.449,53.601 108.449,53.601C108.697,53.744 108.946,53.882 109.195,54.014L109.274,52.946C109.312,52.435 109.68,52.009 110.18,51.898C110.68,51.787 111.194,52.016 111.444,52.463L113.207,55.601C115.899,56.297 118.666,56.254 121.527,55.258L120.86,53.229C120.701,52.742 120.878,52.209 121.298,51.915C121.717,51.621 122.28,51.637 122.682,51.954L124.868,53.677C124.91,53.652 124.952,53.627 124.994,53.601C124.994,53.601 127.283,48.278 128.9,44.516C129.164,43.902 129.771,43.506 130.44,43.513C131.108,43.52 131.708,43.927 131.959,44.547C133.18,47.553 134.975,52.031 135.744,53.981C135.768,54.049 135.804,54.264 135.909,54.575C136.675,56.849 137.802,61.686 138.128,64.72C138.137,64.805 138.111,64.901 138.156,64.971C138.954,66.217 138.613,67.168 138.473,67.78C138.294,68.563 138.73,69.206 139.502,69.425C140.274,69.644 141.801,68.909 141.801,68.909C142.296,68.779 142.976,69.159 143.244,69.595C143.512,70.032 143.398,70.544 143.121,70.975C142.43,72.05 141.185,73.834 142.26,74.719C143.23,75.518 143.317,77.315 142.365,78.267L144.169,79.069C144.637,79.276 144.913,79.766 144.85,80.274C144.786,80.783 144.397,81.189 143.892,81.274C143.892,81.274 143.353,81.366 142.85,81.451C142.736,81.47 142.648,81.562 142.634,81.677C142.62,81.791 142.682,81.902 142.788,81.949C143.035,82.059 143.244,82.151 143.244,82.151C143.712,82.359 143.989,82.849 143.925,83.357C143.861,83.866 143.472,84.272 142.967,84.357C142.967,84.357 141.958,84.529 141.475,84.61C141.327,84.636 141.215,84.757 141.201,84.906C141.016,86.792 140.622,88.782 140.121,90.826C143.538,90.805 146.595,97.103 138.083,99.139C137.231,99.343 136.299,100.478 137.178,101.375L138.76,102.564C139.198,102.83 139.409,103.351 139.28,103.847C139.152,104.343 138.714,104.696 138.202,104.716C138.202,104.716 137.161,104.799 136.35,104.838C136.25,104.843 136.162,104.905 136.123,104.997C136.084,105.089 136.102,105.195 136.169,105.27C136.635,105.791 137.178,106.558 137.178,106.558C137.527,106.934 137.589,107.493 137.33,107.935C137.072,108.377 136.554,108.598 136.056,108.478C136.056,108.478 135.921,108.466 135.56,108.379C135.327,108.323 135.081,108.362 134.877,108.487C134.673,108.612 134.527,108.814 134.472,109.047C133.536,112.56 133.761,113.865 133.695,116.786C133.602,120.844 128.97,122.127 126.808,119.392L126.013,112.462C126.013,110.396 124.551,108.693 122.79,109.961L122.682,112.462C122.532,112.886 122.151,113.185 121.704,113.23C121.257,113.275 120.824,113.058 120.593,112.673L118.991,110.132L118.777,112.462C118.627,112.886 118.221,113.269 117.775,113.21C116.416,113.032 116.189,112.494 114.624,110.554C114.152,109.969 113.794,109.754 113.207,108.962C113.101,108.577 112.579,108.323 112.354,108.314C112.146,108.306 111.467,108.353 111.444,108.888L110.35,110.74C110.2,111.164 109.917,111.599 109.47,111.644C109.023,111.69 108.737,111.448 108.505,111.063L107.778,110.132L107.309,111.01C107.127,111.351 106.786,111.579 106.402,111.618C106.017,111.657 105.638,111.501 105.391,111.204C105.391,111.204 104.064,109.994 103.238,109.241C103.108,109.122 102.923,109.084 102.756,109.14C102.589,109.196 102.466,109.338 102.434,109.511C102.225,110.635 101.887,112.462 101.887,112.462C101.756,112.946 101.403,113.254 100.903,113.281C100.403,113.309 99.951,112.953 99.85,112.462C99.629,111.384 99.423,110.501 98.766,110.132L98.524,112.462C98.345,112.815 97.999,113.052 97.606,113.091C97.213,113.131 96.826,112.968 96.58,112.659L95.971,111.893C94.334,110.365 91.854,113.501 88.894,118.783C85.301,123.372 80.425,121.926 84.97,108.962C84.846,108.695 84.725,108.427 84.607,108.157L82.548,108.076C82.037,108.056 81.599,107.703 81.47,107.207C81.341,106.711 81.553,106.19 81.99,105.924C81.99,105.924 82.48,105.626 82.869,105.389C82.932,105.351 82.962,105.276 82.944,105.205C82.926,105.133 82.863,105.083 82.789,105.08C81.982,105.048 80.575,104.993 80.575,104.993C80.064,104.973 79.625,104.62 79.497,104.124C79.368,103.628 79.58,103.107 80.017,102.841C80.017,102.841 80.791,102.354 81.447,101.941C81.606,101.841 81.692,101.657 81.666,101.47C81.64,101.284 81.507,101.13 81.326,101.077C79.682,100.597 76.629,99.706 76.629,99.706C76.17,99.574 75.839,99.175 75.794,98.7C75.748,98.226 75.998,97.771 76.423,97.555C76.423,97.555 78.558,96.469 79.692,95.892C79.82,95.828 79.899,95.695 79.896,95.552C79.893,95.409 79.808,95.281 79.678,95.222C78.546,94.707 76.45,93.754 76.45,93.754C76.016,93.556 75.747,93.113 75.772,92.637C75.796,92.16 76.11,91.747 76.562,91.596C76.562,91.596 78.757,90.628 80.67,89.784C81.216,89.543 81.584,89.02 81.627,88.425C81.669,87.83 81.379,87.259 80.873,86.943C79.639,86.173 78.427,85.415 78.427,85.415C78,85.132 77.809,84.603 77.957,84.113C78.105,83.622 78.556,83.287 79.068,83.287C79.068,83.287 80.009,83.286 80.905,83.286C81.568,83.286 82.109,82.754 82.121,82.091C81.279,79.862 79.494,75.308 79.494,75.308C79.303,74.862 79.41,74.344 79.761,74.01C80.113,73.676 80.635,73.595 81.071,73.808C81.071,73.808 82.698,74.603 83.704,75.095C83.85,75.166 84.023,75.148 84.151,75.049C84.278,74.949 84.338,74.786 84.305,74.628C84.011,73.221 83.455,70.556 83.455,70.556C83.358,70.092 83.553,69.616 83.947,69.353C84.341,69.09 84.855,69.092 85.246,69.359C85.246,69.359 85.984,69.495 86.725,69.184C87.578,68.827 88.489,66.239 87.837,65.546C87.512,65.201 87.363,64.686 87.625,64.291C87.887,63.897 88.362,63.701 88.826,63.796C88.826,63.796 89.525,63.94 90.138,64.066C90.68,64.178 91.362,63.997 91.525,63.468Z" style="fill:white;"/>
    </g>
    <g transform="matrix(0.602947,0,0,0.602947,-45.3241,-83.3721)">
        <path d="M83.856,206.137L81.863,215.109C81.293,217.173 82.127,218.527 83.327,219.16C84.997,220.04 87.745,219.452 88.948,216.842C89.204,216.286 88.961,215.626 88.405,215.369C87.848,215.113 87.188,215.356 86.932,215.913C86.364,217.145 85.151,217.612 84.363,217.196C83.929,216.967 83.797,216.427 84.008,215.679C84.014,215.659 84.019,215.639 84.024,215.618L86.024,206.618C86.156,206.02 85.779,205.427 85.181,205.294C84.583,205.161 83.989,205.539 83.856,206.137ZM132.854,218.351C132.89,218.519 132.967,218.658 133.067,218.773C133.224,218.956 133.473,219.118 133.867,219.118C134.261,219.118 134.51,218.956 134.668,218.773C134.809,218.61 134.904,218.4 134.904,218.128L134.904,210.119C134.904,209.846 134.809,209.637 134.668,209.473C134.51,209.291 134.261,209.129 133.867,209.129C133.473,209.129 133.224,209.291 133.067,209.473C132.925,209.637 132.831,209.846 132.831,210.119L132.831,214.593C132.831,215.336 132.552,215.968 132,216.49C131.429,217.03 130.732,217.295 129.914,217.295C129.114,217.295 128.53,217.196 128.197,216.869C127.87,216.547 127.77,215.99 127.77,215.234L127.77,210.119C127.77,209.853 127.68,209.648 127.549,209.489C127.39,209.296 127.14,209.129 126.743,209.129C126.346,209.129 126.096,209.296 125.938,209.489C125.806,209.648 125.716,209.853 125.716,210.119L125.716,215.234C125.716,216.672 126.105,217.681 126.759,218.302C127.401,218.911 128.441,219.274 129.914,219.274C130.886,219.274 131.765,219.03 132.552,218.55C132.656,218.486 132.757,218.42 132.854,218.351ZM97.064,207.45C97.361,207.771 97.551,208.075 97.556,208.396C97.56,208.704 97.381,208.994 97.08,209.303C96.759,209.632 96.765,210.16 97.094,210.481C97.423,210.802 97.951,210.796 98.273,210.467C98.948,209.775 99.231,209.066 99.222,208.374C99.213,207.694 98.916,206.999 98.288,206.319C97.976,205.981 97.448,205.961 97.111,206.273C96.773,206.585 96.752,207.113 97.064,207.45ZM121.071,207.45C121.368,207.771 121.558,208.075 121.563,208.396C121.567,208.704 121.388,208.994 121.087,209.303C120.766,209.632 120.772,210.16 121.101,210.481C121.43,210.802 121.958,210.796 122.28,210.467C122.955,209.775 123.238,209.066 123.229,208.374C123.22,207.694 122.923,206.999 122.295,206.319C121.983,205.981 121.455,205.961 121.118,206.273C120.78,206.585 120.759,207.113 121.071,207.45ZM100.522,207.45C100.819,207.771 101.009,208.075 101.014,208.396C101.018,208.704 100.839,208.994 100.538,209.303C100.217,209.632 100.223,210.16 100.552,210.481C100.881,210.802 101.409,210.796 101.731,210.467C102.406,209.775 102.689,209.066 102.68,208.374C102.671,207.694 102.374,206.999 101.746,206.319C101.434,205.981 100.906,205.961 100.569,206.273C100.231,206.585 100.21,207.113 100.522,207.45ZM117.613,207.45C117.91,207.771 118.1,208.075 118.105,208.396C118.109,208.704 117.93,208.994 117.629,209.303C117.308,209.632 117.314,210.16 117.643,210.481C117.972,210.802 118.5,210.796 118.822,210.467C119.497,209.775 119.78,209.066 119.771,208.374C119.762,207.694 119.465,206.999 118.837,206.319C118.525,205.981 117.997,205.961 117.66,206.273C117.322,206.585 117.301,207.113 117.613,207.45ZM107.147,205.129L105.761,207.892C105.555,208.304 105.721,208.805 106.133,209.011C106.544,209.218 107.046,209.051 107.252,208.64L108.638,205.877C108.844,205.466 108.677,204.964 108.266,204.758C107.855,204.552 107.353,204.718 107.147,205.129ZM110.147,205.129L108.761,207.892C108.555,208.304 108.721,208.805 109.133,209.011C109.544,209.218 110.046,209.051 110.252,208.64L111.638,205.877C111.844,205.466 111.677,204.964 111.266,204.758C110.855,204.552 110.353,204.718 110.147,205.129ZM113.069,206.077L113.875,208.26C113.982,208.548 114.302,208.695 114.589,208.589C114.877,208.482 115.025,208.162 114.918,207.875L114.112,205.692C114.006,205.404 113.686,205.257 113.398,205.363C113.111,205.469 112.963,205.789 113.069,206.077ZM114.482,205.162L115.288,207.345C115.394,207.633 115.714,207.78 116.002,207.674C116.289,207.568 116.437,207.248 116.33,206.96L115.525,204.777C115.418,204.489 115.098,204.342 114.811,204.448C114.523,204.554 114.375,204.874 114.482,205.162ZM130.102,196.224C130.399,196.544 130.589,196.848 130.594,197.169C130.598,197.477 130.419,197.767 130.118,198.076C129.797,198.405 129.803,198.933 130.132,199.254C130.461,199.576 130.989,199.569 131.311,199.24C131.986,198.548 132.269,197.839 132.26,197.147C132.251,196.467 131.954,195.772 131.326,195.092C131.014,194.754 130.486,194.734 130.149,195.046C129.811,195.358 129.79,195.886 130.102,196.224ZM80.541,194.644C81.235,194.644 81.798,195.207 81.798,195.901C81.798,196.595 81.235,197.158 80.541,197.158C79.847,197.158 79.284,196.595 79.284,195.901C79.284,195.207 79.847,194.644 80.541,194.644ZM76.429,194.644C77.122,194.644 77.686,195.207 77.686,195.901C77.686,196.595 77.122,197.158 76.429,197.158C75.735,197.158 75.171,196.595 75.171,195.901C75.171,195.207 75.735,194.644 76.429,194.644ZM101.863,191.152C103.504,190.685 104.929,189.967 106.251,189.578C107.236,189.288 108.15,189.195 109.068,189.833C109.615,190.213 109.885,190.678 109.984,191.149C110.201,192.232 109.673,193.327 108.691,193.831C107.86,194.251 106.997,194.693 105.554,194.793C104.943,194.835 104.481,195.365 104.523,195.977C104.565,196.588 105.095,197.05 105.707,197.008C107.54,196.882 108.643,196.345 109.698,195.81C109.699,195.81 109.7,195.809 109.702,195.808C111.572,194.851 112.577,192.766 112.16,190.706C112.16,190.704 112.16,190.702 112.159,190.7C111.96,189.744 111.444,188.78 110.336,188.009C108.796,186.939 107.277,186.961 105.624,187.447C104.308,187.834 102.889,188.551 101.255,189.016C100.666,189.184 100.323,189.799 100.491,190.389C100.659,190.978 101.274,191.32 101.863,191.152ZM134.375,191.152C136.016,190.685 137.44,189.967 138.762,189.578C139.748,189.288 140.662,189.195 141.58,189.833C142.126,190.213 142.397,190.678 142.496,191.149C142.713,192.232 142.185,193.327 141.202,193.831C140.372,194.251 139.509,194.693 138.066,194.793C137.454,194.835 136.992,195.365 137.034,195.977C137.076,196.588 137.607,197.05 138.218,197.008C140.051,196.882 141.154,196.345 142.209,195.81C142.211,195.81 142.212,195.809 142.213,195.808C144.083,194.851 145.088,192.766 144.672,190.706C144.672,190.704 144.671,190.702 144.671,190.7C144.472,189.744 143.955,188.78 142.847,188.009C141.308,186.939 139.789,186.961 138.136,187.447C136.819,187.834 135.401,188.551 133.767,189.016C133.177,189.184 132.835,189.799 133.003,190.389C133.171,190.978 133.785,191.32 134.375,191.152ZM80.541,188.872C81.235,188.872 81.798,189.435 81.798,190.129C81.798,190.823 81.235,191.386 80.541,191.386C79.847,191.386 79.284,190.823 79.284,190.129C79.284,189.435 79.847,188.872 80.541,188.872ZM76.429,188.872C77.122,188.872 77.686,189.435 77.686,190.129C77.686,190.823 77.122,191.386 76.429,191.386C75.735,191.386 75.171,190.823 75.171,190.129C75.171,189.435 75.735,188.872 76.429,188.872ZM141.788,172.881C142.085,173.202 142.275,173.506 142.28,173.826C142.284,174.135 142.105,174.425 141.804,174.733C141.483,175.063 141.489,175.591 141.818,175.912C142.147,176.233 142.675,176.227 142.997,175.898C143.672,175.206 143.955,174.497 143.946,173.805C143.937,173.125 143.64,172.43 143.012,171.75C142.7,171.412 142.172,171.391 141.835,171.704C141.497,172.016 141.476,172.543 141.788,172.881ZM79.216,172.881C79.513,173.202 79.703,173.506 79.708,173.826C79.712,174.135 79.533,174.425 79.232,174.733C78.911,175.063 78.917,175.591 79.246,175.912C79.575,176.233 80.103,176.227 80.425,175.898C81.1,175.206 81.383,174.497 81.374,173.805C81.365,173.125 81.068,172.43 80.44,171.75C80.128,171.412 79.6,171.391 79.263,171.704C78.925,172.016 78.904,172.543 79.216,172.881ZM120.028,165.156L112.857,165.156L111.484,162.411C111.209,161.861 110.541,161.639 109.992,161.914C109.442,162.188 109.219,162.857 109.494,163.406L115.447,175.313C115.636,175.69 116.021,175.928 116.443,175.928C116.864,175.928 117.249,175.69 117.438,175.313L123.391,163.406C123.666,162.857 123.443,162.188 122.894,161.914C122.344,161.639 121.676,161.862 121.401,162.411L120.028,165.156ZM84.369,171.927C85.063,171.927 85.626,172.491 85.626,173.184C85.626,173.878 85.063,174.442 84.369,174.442C83.675,174.442 83.112,173.878 83.112,173.184C83.112,172.491 83.675,171.927 84.369,171.927ZM118.916,167.381L113.969,167.381L116.443,172.328L118.916,167.381ZM142.4,166.156C143.094,166.156 143.658,166.719 143.658,167.413C143.658,168.107 143.094,168.67 142.4,168.67C141.707,168.67 141.143,168.107 141.143,167.413C141.143,166.719 141.707,166.156 142.4,166.156ZM84.369,166.156C85.063,166.156 85.626,166.719 85.626,167.413C85.626,168.107 85.063,168.67 84.369,168.67C83.675,168.67 83.112,168.107 83.112,167.413C83.112,166.719 83.675,166.156 84.369,166.156ZM87.328,162.974C87.625,163.295 87.815,163.599 87.82,163.919C87.824,164.228 87.645,164.518 87.344,164.826C87.023,165.156 87.029,165.684 87.358,166.005C87.687,166.326 88.215,166.32 88.537,165.991C89.212,165.299 89.495,164.59 89.486,163.898C89.477,163.218 89.18,162.523 88.552,161.843C88.24,161.505 87.712,161.484 87.375,161.797C87.037,162.109 87.016,162.636 87.328,162.974ZM137.539,162.974C137.836,163.295 138.026,163.599 138.031,163.919C138.035,164.228 137.856,164.518 137.555,164.826C137.234,165.156 137.24,165.684 137.569,166.005C137.898,166.326 138.426,166.32 138.748,165.991C139.423,165.299 139.706,164.59 139.697,163.898C139.688,163.218 139.391,162.523 138.763,161.843C138.451,161.505 137.923,161.484 137.586,161.797C137.248,162.109 137.227,162.636 137.539,162.974ZM127.307,161.462L130.284,164.439C130.718,164.873 131.423,164.873 131.857,164.439C132.291,164.005 132.291,163.3 131.857,162.867L128.88,159.89C128.446,159.456 127.741,159.456 127.307,159.89C126.874,160.324 126.874,161.028 127.307,161.462ZM102.261,159.89L99.284,162.867C98.85,163.3 98.85,164.005 99.284,164.439C99.718,164.873 100.423,164.873 100.857,164.439L103.834,161.462C104.268,161.028 104.268,160.324 103.834,159.89C103.4,159.456 102.695,159.456 102.261,159.89ZM118.995,152.208L113.889,152.208C113.275,152.208 112.776,152.707 112.776,153.322C112.776,153.936 113.275,154.435 113.889,154.435L118.995,154.435C119.61,154.435 120.109,153.936 120.109,153.322C120.109,152.707 119.61,152.208 118.995,152.208ZM110.534,150.887C110.83,151.208 111.021,151.512 111.025,151.832C111.029,152.141 110.85,152.431 110.549,152.739C110.228,153.069 110.234,153.597 110.564,153.918C110.893,154.239 111.421,154.233 111.742,153.904C112.417,153.212 112.701,152.503 112.692,151.811C112.683,151.131 112.386,150.435 111.758,149.756C111.445,149.418 110.918,149.397 110.58,149.71C110.242,150.022 110.221,150.55 110.534,150.887ZM120.877,150.887C121.173,151.208 121.364,151.512 121.368,151.832C121.372,152.141 121.193,152.431 120.892,152.739C120.571,153.069 120.577,153.597 120.907,153.918C121.236,154.239 121.764,154.233 122.085,153.904C122.76,153.212 123.044,152.503 123.035,151.811C123.026,151.131 122.729,150.435 122.101,149.756C121.788,149.418 121.261,149.397 120.923,149.71C120.585,150.022 120.564,150.55 120.877,150.887ZM134.611,151.458C134.619,151.483 134.627,151.508 134.637,151.533C134.773,151.872 135.003,152.03 135.221,152.105C135.405,152.168 135.612,152.181 135.84,152.099C136.22,151.969 136.388,151.722 136.465,151.499C136.529,151.311 136.543,151.097 136.452,150.86C135.574,147.971 134.421,145.12 132.993,142.316C132.984,142.298 132.975,142.281 132.965,142.264C132.766,141.935 132.501,141.816 132.263,141.784C132.081,141.758 131.884,141.781 131.683,141.891C131.434,142.012 131.294,142.201 131.219,142.397C131.139,142.603 131.118,142.851 131.244,143.136C131.251,143.15 131.257,143.164 131.264,143.177C132.684,145.942 133.8,148.702 134.611,151.458ZM107.348,151.458C107.356,151.483 107.364,151.508 107.374,151.533C107.51,151.872 107.74,152.03 107.958,152.105C108.142,152.168 108.349,152.181 108.577,152.099C108.957,151.969 109.125,151.722 109.202,151.499C109.266,151.311 109.28,151.097 109.189,150.86C108.312,147.971 107.158,145.12 105.73,142.316C105.721,142.298 105.712,142.281 105.702,142.264C105.503,141.935 105.238,141.816 105,141.784C104.818,141.758 104.621,141.781 104.42,141.891C104.172,142.012 104.031,142.201 103.956,142.397C103.876,142.603 103.855,142.851 103.982,143.136C103.988,143.15 103.994,143.164 104.001,143.177C105.421,145.942 106.537,148.702 107.348,151.458ZM97.299,151.891C97.311,151.899 97.323,151.906 97.335,151.913C97.578,152.047 97.807,152.064 98.009,152.024C98.221,151.981 98.429,151.872 98.599,151.646C98.613,151.627 98.627,151.608 98.639,151.587C99.596,150.059 100.348,148.623 100.897,147.28C101.45,145.927 101.874,144.485 102.169,142.954C102.169,142.952 102.17,142.949 102.17,142.947C102.226,142.642 102.151,142.407 102.033,142.227C101.906,142.034 101.71,141.87 101.397,141.811C101.08,141.751 100.836,141.833 100.647,141.969C100.472,142.095 100.316,142.288 100.26,142.596C100.004,143.995 99.623,145.316 99.115,146.56C98.603,147.814 97.896,149.151 96.997,150.571C96.996,150.572 96.995,150.573 96.994,150.575C96.83,150.837 96.817,151.085 96.866,151.298C96.916,151.511 97.036,151.727 97.299,151.891ZM124.562,151.891C124.574,151.899 124.586,151.906 124.598,151.913C124.841,152.047 125.07,152.064 125.272,152.024C125.484,151.981 125.692,151.872 125.862,151.646C125.876,151.627 125.89,151.608 125.902,151.587C126.859,150.059 127.61,148.623 128.16,147.28C128.713,145.927 129.137,144.485 129.432,142.954C129.432,142.952 129.433,142.949 129.433,142.947C129.489,142.642 129.414,142.407 129.296,142.227C129.169,142.034 128.973,141.87 128.66,141.811C128.343,141.751 128.099,141.833 127.91,141.969C127.735,142.095 127.579,142.288 127.523,142.596C127.267,143.995 126.886,145.316 126.378,146.56C125.866,147.814 125.159,149.151 124.26,150.571C124.259,150.572 124.258,150.573 124.257,150.575C124.093,150.837 124.08,151.085 124.129,151.298C124.179,151.511 124.299,151.727 124.562,151.891Z"/>
    </g>
</svg>
