<?xml version="1.0" encoding="UTF-8" standalone="no"?>
<!DOCTYPE svg PUBLIC "-//W3C//DTD SVG 1.1//EN" "http://www.w3.org/Graphics/SVG/1.1/DTD/svg11.dtd">
<svg width="71px" height="98px" version="1.1" xmlns="http://www.w3.org/2000/svg" xmlns:xlink="http://www.w3.org/1999/xlink" xml:space="preserve" xmlns:serif="http://www.serif.com/" style="fill-rule:evenodd;clip-rule:evenodd;stroke-linejoin:round;stroke-miterlimit:2;">
    <g transform="matrix(-0.116685,0,0,0.116685,10.0745,14.2214)">
        <path d="M-64.952,29.5L-32.894,29.5L-21.242,40L62.758,40C76.31,42.597 80.022,50.115 77,61C72.148,68 71.875,75 77,82C74.705,99.002 69.473,113.906 57.508,124C44.456,132.521 29.175,145.437 20.758,154.288C16.268,159.737 12.962,167.856 15.657,176.325C18.833,186.31 21.553,197.756 21.597,209.073L21.597,271.527L26.847,313L26.847,502C26.337,524.949 22.648,542.6 15.508,554.5C2.456,563.021 -12.825,575.937 -21.242,584.788L-40.178,604.682C-48.394,613.787 -45.204,632.303 -38.772,645.037C-22.78,668.107 -23.287,689.088 -40.178,712.157C-47.727,719.652 -54.887,719.771 -61.531,710.068L-99.992,645.037C-104.258,637.068 -108.284,630.535 -111.644,628L-374.702,628C-380.995,628.796 -380.217,637.104 -378.94,648.554C-378.94,648.554 -379.65,666.205 -380.287,682.032C-380.838,695.73 -392.104,706.551 -405.813,706.552L-405.816,706.552C-418.444,706.551 -428.833,696.608 -429.387,683.993C-430.102,667.701 -430.942,648.554 -430.942,648.554L-429.245,607.652C-429.371,598.681 -431.075,596.543 -432.909,594.973C-461.941,575.972 -479.855,494.111 -483.242,474.648L-488.492,382.945L-490.491,313.087C-487.304,301.068 -494.002,292.09 -502.344,283.618C-519.235,260.549 -518.595,233.783 -499.161,213.527C-490.334,204.327 -483.039,209.081 -477.839,214.983C-478.952,214.735 -477.158,173.984 -470.186,161.416C-462.402,147.386 -447.138,134.016 -438.538,128.401C-427.784,120.74 -429.896,105.483 -435.153,97.844C-443.164,86.203 -446.963,76.447 -445.653,72.573L-445.653,-11.427L-435.153,-47L-435.153,-90.177L-407.612,-107.706L-400.496,-116.045L-393.379,-107.706L-366.89,-96.443L-332.134,-37.677C-330.727,-27.873 -331.976,-11.804 -343,-2C-347.852,5 -348.125,12 -343,19C-339.838,26.424 -332.6,31.766 -322.202,29.5L-295.324,29.5C-298.009,26 -288.566,22.5 -280.202,19L-190.394,19C-182.661,20.606 -172.819,23.75 -174.754,29.5L-148.394,29.5C-135.426,29.16 -111.552,40.621 -103.279,54.228L-92.31,75.42L-81.088,49.335C-79.256,40.595 -73.689,34.097 -64.952,29.5" style="fill:white;"/>
    </g>
    <g transform="matrix(0.612596,0,0,0.612596,-31.9176,-35.0699)">
        <path d="M75.288,202.296C71.944,207.12 71.773,211.944 75.304,216.768C75.667,217.263 76.362,217.371 76.857,217.008C77.352,216.646 77.46,215.95 77.097,215.455C74.195,211.491 74.366,207.527 77.114,203.562C77.463,203.058 77.338,202.366 76.834,202.016C76.33,201.667 75.637,201.792 75.288,202.296ZM86.636,202.761L79.31,215.148C78.998,215.676 79.173,216.359 79.702,216.671C80.23,216.984 80.913,216.809 81.225,216.28L88.551,203.893C88.864,203.365 88.689,202.682 88.16,202.37C87.632,202.057 86.949,202.232 86.636,202.761ZM145.846,216.155L145.987,216.153C148.911,216.079 151.258,213.686 151.258,210.744L151.258,203.997C151.258,203.384 150.76,202.886 150.147,202.886C149.534,202.886 149.036,203.384 149.036,203.997L149.036,210.744C149.036,212.506 147.609,213.933 145.847,213.933L145.846,213.933C143.878,213.933 142.282,212.338 142.282,210.37L142.282,203.997C142.282,203.384 141.784,202.886 141.171,202.886C140.558,202.886 140.061,203.384 140.061,203.997L140.061,210.37C140.061,213.565 142.651,216.155 145.846,216.155ZM139.919,198.975L89.813,198.975C89.202,198.975 88.706,199.471 88.706,200.082C88.706,200.692 89.202,201.188 89.813,201.188L139.919,201.188C140.53,201.188 141.026,200.692 141.026,200.082C141.026,199.471 140.53,198.975 139.919,198.975ZM155.743,182.488C155.41,187.148 154.109,189.935 150.266,192.276C149.743,192.595 149.576,193.279 149.896,193.803C150.215,194.327 150.899,194.493 151.423,194.174C155.963,191.408 157.566,188.153 157.96,182.646C158.004,182.035 157.543,181.502 156.931,181.459C156.319,181.415 155.787,181.876 155.743,182.488ZM64.987,187.012C67.402,188.589 70.232,190.978 71.789,192.616C72.212,193.061 72.915,193.078 73.36,192.656C73.804,192.234 73.822,191.53 73.399,191.086C71.751,189.351 68.758,186.821 66.202,185.152C65.688,184.816 64.999,184.961 64.664,185.474C64.329,185.988 64.474,186.677 64.987,187.012ZM62.322,160.082L62.322,176.082C62.322,176.696 62.82,177.194 63.434,177.194C64.048,177.194 64.546,176.696 64.546,176.082L64.546,160.082C64.546,159.468 64.048,158.97 63.434,158.97C62.82,158.97 62.322,159.468 62.322,160.082ZM159.482,162.082L159.482,173.082C159.482,173.695 159.98,174.194 160.594,174.194C161.208,174.194 161.706,173.695 161.706,173.082L161.706,162.082C161.706,161.468 161.208,160.97 160.594,160.97C159.98,160.97 159.482,161.468 159.482,162.082ZM62.322,140.082L62.322,156.082C62.322,156.696 62.82,157.194 63.434,157.194C64.048,157.194 64.546,156.696 64.546,156.082L64.546,140.082C64.546,139.468 64.048,138.97 63.434,138.97C62.82,138.97 62.322,139.468 62.322,140.082ZM160.482,140.082L160.482,156.082C160.482,156.696 160.98,157.194 161.594,157.194C162.208,157.194 162.706,156.696 162.706,156.082L162.706,140.082C162.706,139.468 162.208,138.97 161.594,138.97C160.98,138.97 160.482,139.468 160.482,140.082ZM63.322,120.286L63.322,136.286C63.322,136.9 63.82,137.398 64.434,137.398C65.048,137.398 65.546,136.9 65.546,136.286L65.546,120.286C65.546,119.672 65.048,119.174 64.434,119.174C63.82,119.174 63.322,119.672 63.322,120.286ZM74.288,120.653C70.944,125.477 70.773,130.301 74.304,135.125C74.667,135.62 75.362,135.728 75.857,135.365C76.352,135.003 76.46,134.307 76.097,133.812C73.195,129.848 73.366,125.884 76.114,121.919C76.463,121.415 76.338,120.723 75.834,120.373C75.33,120.024 74.637,120.149 74.288,120.653ZM162.938,121.919C165.686,125.884 165.857,129.848 162.955,133.812C162.592,134.307 162.7,135.003 163.195,135.365C163.69,135.728 164.385,135.62 164.748,135.125C168.28,130.301 168.108,125.477 164.764,120.653C164.415,120.149 163.722,120.024 163.218,120.373C162.714,120.723 162.589,121.415 162.938,121.919ZM158.802,120.516L151.476,132.903C151.164,133.431 151.339,134.114 151.868,134.426C152.396,134.739 153.079,134.564 153.391,134.035L160.717,121.648C161.03,121.12 160.855,120.437 160.326,120.125C159.798,119.812 159.115,119.987 158.802,120.516ZM78.822,125.235C81.575,127.081 84.801,129.877 86.576,131.794C87.097,132.356 87.975,132.39 88.537,131.869C89.099,131.349 89.133,130.47 88.613,129.908C86.724,127.869 83.296,124.893 80.367,122.929C79.731,122.503 78.868,122.673 78.442,123.309C78.015,123.946 78.186,124.808 78.822,125.235ZM118.382,103.287L111.551,103.287L110.254,100.694C109.911,100.008 109.077,99.73 108.392,100.073C107.706,100.416 107.428,101.25 107.771,101.935L113.725,113.842C113.96,114.312 114.44,114.609 114.966,114.609C115.492,114.609 115.972,114.312 116.207,113.842L122.161,101.935C122.503,101.25 122.225,100.416 121.54,100.073C120.855,99.731 120.021,100.009 119.678,100.694L118.382,103.287ZM150.987,106.012C153.402,107.589 156.232,109.978 157.789,111.617C158.212,112.061 158.915,112.079 159.36,111.656C159.804,111.234 159.822,110.53 159.399,110.086C157.751,108.352 154.758,105.821 152.202,104.152C151.688,103.817 150.999,103.961 150.664,104.475C150.329,104.988 150.474,105.677 150.987,106.012ZM56.987,105.012C59.402,106.589 62.232,108.978 63.789,110.617C64.212,111.061 64.915,111.079 65.36,110.656C65.804,110.234 65.822,109.53 65.399,109.086C63.751,107.352 60.758,104.821 58.202,103.152C57.688,102.817 56.999,102.961 56.664,103.475C56.329,103.988 56.474,104.677 56.987,105.012ZM116.994,106.062L112.938,106.062L114.966,110.118L116.994,106.062ZM98.589,98.1L95.612,101.077C95.07,101.619 95.07,102.499 95.612,103.04C96.154,103.582 97.033,103.582 97.575,103.04L100.552,100.064C101.094,99.522 101.094,98.642 100.552,98.1C100.01,97.559 99.131,97.559 98.589,98.1ZM128.636,100.064L131.612,103.04C132.154,103.582 133.034,103.582 133.576,103.04C134.117,102.499 134.117,101.619 133.576,101.077L130.599,98.1C130.057,97.559 129.177,97.559 128.636,98.1C128.094,98.642 128.094,99.522 128.636,100.064ZM87.488,89.478L87.494,89.464C87.713,88.957 88.302,88.723 88.809,88.942C89.315,89.161 89.549,89.75 89.33,90.257L89.019,90.977L87.043,95.708L86.777,96.334C86.232,97.646 85.231,98.389 83.889,98.71C83.352,98.839 82.812,98.508 82.684,97.971C82.555,97.434 82.886,96.894 83.423,96.766C84.115,96.6 84.651,96.241 84.932,95.563L85.032,95.326L83.414,91.577L83.403,91.572L83.154,90.977L82.843,90.257C82.624,89.75 82.858,89.161 83.365,88.942C83.872,88.723 84.461,88.957 84.679,89.464L84.686,89.478L84.694,89.475L84.995,90.195L86.087,92.723L87.179,90.195L87.479,89.475L87.488,89.478ZM52.968,92.715C53.594,93.619 53.646,94.522 52.984,95.425C52.622,95.92 52.73,96.616 53.225,96.979C53.72,97.341 54.416,97.233 54.778,96.739C56.069,94.975 56.017,93.212 54.795,91.449C54.445,90.945 53.752,90.819 53.248,91.169C52.744,91.518 52.618,92.211 52.968,92.715ZM152.322,78.286L152.322,94.286C152.322,94.9 152.82,95.398 153.434,95.398C154.048,95.398 154.546,94.9 154.546,94.286L154.546,78.286C154.546,77.672 154.048,77.174 153.434,77.174C152.82,77.174 152.322,77.672 152.322,78.286ZM73.147,86.971L56.594,86.971C55.981,86.971 55.483,87.469 55.483,88.082C55.483,88.695 55.981,89.193 56.594,89.193L73.147,89.193C73.76,89.193 74.258,88.695 74.258,88.082C74.258,87.469 73.76,86.971 73.147,86.971ZM80.919,84.972L74.813,84.972C74.2,84.972 73.703,85.469 73.703,86.082C73.703,86.695 74.2,87.192 74.813,87.192L80.919,87.192C81.532,87.192 82.03,86.695 82.03,86.082C82.03,85.469 81.532,84.972 80.919,84.972ZM129.919,84.972L123.813,84.972C123.2,84.972 122.703,85.469 122.703,86.082C122.703,86.695 123.2,87.192 123.813,87.192L129.919,87.192C130.532,87.192 131.03,86.695 131.03,86.082C131.03,85.469 130.532,84.972 129.919,84.972ZM102.919,84.972L96.813,84.972C96.2,84.972 95.703,85.469 95.703,86.082C95.703,86.695 96.2,87.192 96.813,87.192L102.919,87.192C103.532,87.192 104.03,86.695 104.03,86.082C104.03,85.469 103.532,84.972 102.919,84.972ZM132.968,80.715C133.594,81.619 133.646,82.522 132.985,83.425C132.622,83.92 132.73,84.616 133.225,84.979C133.72,85.341 134.416,85.233 134.778,84.739C136.069,82.975 136.017,81.212 134.795,79.449C134.445,78.945 133.752,78.819 133.248,79.169C132.744,79.518 132.618,80.211 132.968,80.715ZM121.919,82.973L104.813,82.973C104.201,82.973 103.704,83.47 103.704,84.082C103.704,84.694 104.201,85.191 104.813,85.191L121.919,85.191C122.532,85.191 123.028,84.694 123.028,84.082C123.028,83.47 122.532,82.973 121.919,82.973ZM137.473,61.527L130.147,73.914C129.835,74.442 130.01,75.125 130.539,75.437C131.067,75.75 131.75,75.575 132.062,75.046L139.388,62.659C139.701,62.131 139.526,61.448 138.997,61.136C138.469,60.823 137.786,60.998 137.473,61.527ZM150.322,63.286L150.322,73.286C150.322,73.9 150.82,74.398 151.434,74.398C152.047,74.398 152.546,73.9 152.546,73.286L152.546,63.286C152.546,62.673 152.047,62.175 151.434,62.175C150.82,62.175 150.322,62.673 150.322,63.286ZM148.59,61.05L145.678,57.638C145.467,57.39 145.158,57.248 144.833,57.248C144.508,57.248 144.199,57.39 143.988,57.638L141.075,61.05C140.677,61.516 140.732,62.218 141.199,62.616C141.665,63.014 142.367,62.958 142.765,62.492L144.833,60.07L146.9,62.492C147.298,62.958 148,63.014 148.466,62.616C148.932,62.218 148.988,61.516 148.59,61.05Z"/>
    </g>
</svg>
