<?xml version="1.0" encoding="UTF-8" standalone="no"?>
<!DOCTYPE svg PUBLIC "-//W3C//DTD SVG 1.1//EN" "http://www.w3.org/Graphics/SVG/1.1/DTD/svg11.dtd">
<svg width="73px" height="98px" version="1.1" xmlns="http://www.w3.org/2000/svg" xmlns:xlink="http://www.w3.org/1999/xlink" xml:space="preserve" xmlns:serif="http://www.serif.com/" style="fill-rule:evenodd;clip-rule:evenodd;stroke-linejoin:round;stroke-miterlimit:2;">
    <g transform="matrix(0.616451,0,0,0.616451,-31.3169,-36.542)">
        <path d="M101.974,81.843C102.789,80.996 104.063,81.056 105.052,81.552C105.245,80.793 105.933,80.23 106.753,80.23C107.452,80.23 108.056,80.64 108.338,81.233C109.112,81.18 109.446,80.524 110.682,81.115C111.34,81.666 111.755,82.151 112.539,82.151C113.326,82.151 114.016,81.733 114.4,81.108C114.416,81.108 114.432,81.109 114.448,81.109C114.752,80.584 115.319,80.23 115.969,80.23C116.686,80.23 117.304,80.662 117.575,81.279C117.732,81.292 117.978,81.004 117.978,80.836C117.978,79.868 118.764,79.082 119.732,79.082C120.532,79.082 121.475,80.206 121.475,80.206C121.945,80.918 122.385,81.569 123.236,82.051C123.322,81.162 124.071,80.466 124.982,80.466C125.81,80.466 126.505,81.041 126.689,81.813C127.743,83.001 128.865,83.649 130.254,84.14L133.065,81.329C132.107,80.321 132.468,79.107 133.255,77.974L138.614,66.49C140.215,65.005 142.622,63.404 144.15,62.802L146.327,60.252L149.24,63.664C151.236,64.92 152.331,66.709 152.929,68.792L152.929,75.179L154.929,80.179L154.929,96.179C154.889,97.468 154.944,99.161 156.833,101.557C157.65,102.372 158.332,103.117 158.332,104.254C158.332,104.829 158.179,105.368 157.912,105.833C158.015,106.242 158.121,106.651 158.229,107.056C159.73,107.116 160.931,108.354 160.931,109.87C160.931,110.75 160.526,111.537 159.892,112.054C161.505,114.927 162.199,117.44 162.333,121.288C162.333,121.289 162.334,121.29 162.334,121.29C163.283,120.972 164.655,121.711 165.05,122.281C168.096,126.675 168.549,131.422 165.331,135.816C164.332,137.995 163.432,139.187 161.663,140.938C161.111,141.493 160.882,142.292 161.057,143.056L161.053,143.057C161.153,143.045 161.256,143.04 161.36,143.04C162.089,143.04 162.751,143.327 163.239,143.795C163.314,143.789 163.391,143.785 163.469,143.785C164.968,143.785 166.185,145.002 166.185,146.501C166.185,148 164.968,149.217 163.469,149.217C163.322,149.217 163.336,149.217 163.469,149.217C164.968,149.217 166.185,150.434 166.185,151.933C166.185,153.432 164.968,154.649 163.469,154.649C163.191,154.649 162.923,154.607 162.671,154.53C162.763,154.802 162.812,155.092 162.812,155.395C162.812,156.534 162.109,157.511 161.113,157.914C160.599,162.571 159.628,167.26 158.123,170.772C158.795,171.267 159.231,172.063 159.231,172.96C159.231,174.459 158.014,175.676 156.515,175.676C156.483,175.676 156.451,175.676 156.42,175.675C157.042,176.172 157.441,176.938 157.441,177.797C157.441,179.08 156.549,180.156 155.352,180.44C153.787,181.226 153.05,182.332 152.783,183.299C152.811,183.298 152.84,183.298 152.869,183.298C154.368,183.298 155.585,184.515 155.585,186.014C155.585,186.882 155.177,187.656 154.542,188.153C155.625,188.51 156.394,189.277 156.394,190.479C156.394,191.752 155.517,192.821 154.334,193.115C153.843,193.605 149.091,195.613 148.807,195.512C148.109,198.671 147.652,201.863 147.642,204.889L147.642,211.636C147.642,214.011 145.717,215.936 143.342,215.937L143.34,215.937C142.1,215.937 140.912,215.444 140.035,214.568C139.159,213.691 138.666,212.502 138.666,211.262C138.666,209.041 138.666,206.462 138.664,204.559C138.36,204.798 137.977,204.94 137.562,204.94L137.54,204.94C137.372,203.628 136.268,202.613 134.933,202.613C134.112,202.613 133.378,202.997 132.896,203.598C132.615,203.668 132.16,204.21 132.16,204.431C132.16,205.418 131.359,206.219 130.372,206.219C129.408,206.219 128.621,205.455 128.585,204.499C128.553,204.505 128.52,204.51 128.488,204.516C128.199,204.128 127.737,203.876 127.217,203.876C126.531,203.876 125.946,204.314 125.727,204.925C125.025,205.015 122.532,203.305 121.438,203.305C121.227,203.305 121.023,203.335 120.829,203.391C120.832,203.429 120.833,203.468 120.833,203.507C120.833,204.555 119.982,205.406 118.933,205.406C117.969,205.406 117.172,204.687 117.05,203.756C116.412,204.071 115.749,205.093 115.645,205.538C115.315,206.146 114.671,206.558 113.932,206.558C113.267,206.558 112.679,206.224 112.327,205.715C112.204,206.87 111.224,207.772 110.036,207.772C109.114,207.772 108.318,207.229 107.95,206.445C108.116,206.16 108.212,205.828 108.212,205.474C108.212,204.91 107.97,204.402 107.584,204.05C107.285,204.779 106.567,205.294 105.73,205.294C105.249,205.294 104.807,205.124 104.462,204.84C104.429,204.935 104.462,204.84 104.462,204.84C104.19,204.397 103.167,203.558 102.299,203.558C101.591,203.558 100.971,203.941 100.636,204.512C100.335,204.473 100.034,204.433 99.732,204.392C99.734,204.418 99.734,204.444 99.734,204.47C99.734,205.479 98.916,206.297 97.907,206.297C97.084,206.297 96.387,205.751 96.159,205.002C96.1,204.809 96.192,204.051 96.082,203.854C95.851,203.443 95.411,203.165 94.907,203.165C94.542,203.165 94.211,203.311 93.968,203.547C93.844,203.51 92.784,204.879 91.925,204.741C91.052,204.601 90.041,203.846 89.573,203.17C87.074,203.543 84.807,204.998 83.441,207.235C80.904,211.392 77.763,216.539 77.763,216.539C76.407,218.107 75.051,218.105 73.696,217.004C68.698,213.23 72.652,203.328 72.509,203.311C72.642,202.949 72.714,202.557 72.714,202.149C72.714,200.278 71.196,198.76 69.326,198.76C69.292,198.76 69.258,198.76 69.224,198.761C69.36,198.103 69.668,197.507 70.097,197.021C69.481,195.677 68.914,194.317 68.397,192.936C68.297,192.911 68.199,192.882 68.103,192.849C68.195,192.542 68.244,192.216 68.244,191.88C68.244,190.26 67.106,188.905 65.586,188.57C65.711,187.884 66.019,187.262 66.459,186.757C66.153,185.553 65.883,184.332 65.652,183.092C65.256,183.359 64.826,183.575 64.359,183.736C65.034,181.583 64.79,178.061 61.265,174.747C61.265,174.747 61.001,174.163 60.875,173.845C60.872,173.839 60.862,173.844 60.856,173.844C59.357,173.844 58.14,172.627 58.14,171.128C58.14,169.629 59.357,168.412 60.856,168.412C61.317,168.412 61.255,168.412 60.886,168.412C59.404,168.412 58.2,167.209 58.2,165.727C58.2,164.661 58.822,163.74 59.722,163.306C60.218,163.299 60.694,163.21 61.138,163.053C61.207,163.059 61.353,163.005 61.357,162.968C62.953,162.302 64.075,160.726 64.075,158.891C64.075,158.215 63.923,157.574 63.651,157.001C63.923,156.428 64.075,155.787 64.075,155.112C64.075,154.365 63.435,153.255 63.435,153.255C62.661,149.019 62.179,146.896 60.435,144.26C60.435,144.26 59.706,141.348 59.706,140.648C59.706,139.218 60.867,138.058 62.297,138.058C62.506,138.058 62.708,138.082 62.902,138.129C62.976,138.162 63.414,138.229 63.417,138.19C63.81,138.114 64.107,137.768 64.107,137.353C64.107,136.981 63.868,136.664 63.535,136.548C63.558,136.116 61.123,134.542 60.435,134.542C59.005,134.542 57.844,133.382 57.844,131.952C57.844,130.537 58.981,129.386 60.389,129.361C60.426,129.172 60.47,128.8 60.435,128.8C59.005,128.8 57.844,127.64 57.844,126.21C57.844,124.78 59.005,123.619 60.435,123.619C61.571,123.619 63.551,124.675 63.889,124.328C65.34,121.928 64.424,113.529 62.376,112.063C60.773,110.377 57.862,107.917 55.376,106.294C54.352,104.771 53.679,103.329 53.343,101.966C52.995,100.552 53.011,99.222 53.376,97.974C54.352,96.641 54.3,95.308 53.376,93.974C53.389,91.984 54.3,90.656 56.089,89.974L70.3,89.974C71.784,89.974 73.191,89.315 74.141,88.175C74.244,88.051 74.308,87.974 74.308,87.974L80.187,87.974C80.388,87.949 80.592,87.937 80.799,87.937C83.279,87.937 85.334,89.773 85.677,92.159L87.013,93.222L89.407,88.116C90.615,86.863 92.153,85.722 93.63,84.974C93.865,84.817 94.115,84.664 94.38,84.516C94.083,84.202 93.901,83.778 93.901,83.312C93.901,82.344 94.687,81.557 95.655,81.557C96.38,81.557 97.003,81.998 97.27,82.626L97.27,82.591C97.27,81.704 97.929,80.97 98.784,80.853L98.784,80.836C98.784,79.868 99.57,79.082 100.538,79.082C101.506,79.082 102.292,79.868 102.292,80.836C102.292,81.211 102.175,81.558 101.974,81.843C101.907,81.914 101.842,81.991 101.781,82.074C101.852,82.003 101.917,81.926 101.974,81.843Z" style="fill:white;"/>
    </g>
    <g transform="matrix(0.616451,0,0,0.616451,-31.3169,-36.542)">
        <path d="M72.493,203.326C69.149,208.15 68.977,212.974 72.509,217.798C72.872,218.293 73.567,218.4 74.062,218.038C74.557,217.676 74.665,216.98 74.302,216.485C71.4,212.521 71.571,208.556 74.319,204.592C74.668,204.088 74.543,203.395 74.039,203.046C73.535,202.696 72.842,202.822 72.493,203.326ZM83.843,203.723L76.516,216.11C76.204,216.638 76.379,217.32 76.907,217.632C77.435,217.945 78.117,217.769 78.429,217.242L85.755,204.855C86.067,204.327 85.892,203.645 85.365,203.333C84.837,203.021 84.155,203.196 83.843,203.723ZM137.265,205.027L137.265,211.4C137.265,214.595 139.855,217.185 143.05,217.185L143.052,217.185C146.041,217.185 148.463,214.762 148.463,211.774L148.463,205.027C148.463,204.413 147.965,203.916 147.352,203.916C146.739,203.916 146.241,204.413 146.241,205.027L146.241,211.774C146.241,213.535 144.813,214.963 143.052,214.963L143.05,214.963C141.083,214.963 139.487,213.368 139.487,211.4L139.487,205.027C139.487,204.413 138.99,203.916 138.376,203.916C137.763,203.916 137.265,204.413 137.265,205.027ZM107.557,204.124C107.854,204.445 108.045,204.748 108.049,205.069C108.053,205.378 107.874,205.668 107.573,205.976C107.252,206.305 107.258,206.833 107.587,207.155C107.916,207.476 108.444,207.47 108.766,207.141C109.441,206.449 109.724,205.74 109.715,205.048C109.706,204.368 109.409,203.672 108.781,202.993C108.469,202.655 107.941,202.634 107.604,202.946C107.266,203.259 107.245,203.786 107.557,204.124ZM111.016,204.124C111.312,204.445 111.503,204.748 111.507,205.069C111.511,205.378 111.332,205.668 111.031,205.976C110.71,206.305 110.716,206.833 111.046,207.155C111.375,207.476 111.903,207.47 112.224,207.141C112.899,206.449 113.183,205.74 113.174,205.048C113.165,204.368 112.868,203.672 112.24,202.993C111.927,202.655 111.4,202.634 111.062,202.946C110.724,203.259 110.703,203.786 111.016,204.124ZM117.437,202.054L114.46,205.031C114.135,205.356 114.135,205.884 114.46,206.209C114.786,206.535 115.314,206.535 115.639,206.209L118.616,203.233C118.941,202.908 118.941,202.379 118.616,202.054C118.29,201.729 117.762,201.729 117.437,202.054ZM97.092,201.803L95.707,204.566C95.5,204.977 95.667,205.479 96.078,205.685C96.489,205.891 96.99,205.725 97.196,205.313L98.582,202.55C98.788,202.139 98.622,201.638 98.211,201.432C97.8,201.226 97.299,201.392 97.092,201.803ZM100.092,201.803L98.707,204.566C98.5,204.977 98.667,205.479 99.078,205.685C99.489,205.891 99.99,205.725 100.196,205.313L101.582,202.55C101.788,202.139 101.622,201.638 101.211,201.432C100.8,201.226 100.299,201.392 100.092,201.803ZM132.44,201.803L131.054,204.566C130.848,204.977 131.014,205.479 131.425,205.685C131.836,205.891 132.338,205.725 132.544,205.313L133.93,202.55C134.136,202.139 133.969,201.638 133.558,201.432C133.147,201.226 132.646,201.392 132.44,201.803ZM129.44,201.803L128.054,204.566C127.848,204.977 128.014,205.479 128.425,205.685C128.836,205.891 129.338,205.725 129.544,205.313L130.93,202.55C131.136,202.139 130.969,201.638 130.558,201.432C130.147,201.226 129.646,201.392 129.44,201.803ZM120.086,204.664L120.104,204.701C120.121,204.735 120.14,204.763 120.161,204.785C120.299,204.949 120.463,204.999 120.64,204.969C120.798,204.943 120.944,204.85 121.053,204.657C121.054,204.656 121.054,204.655 121.055,204.654C121.371,204.078 121.707,203.757 122.12,203.757C122.449,203.757 122.75,204.031 123.075,204.51L123.075,204.511C123.641,205.342 124.28,205.731 124.956,205.731C125.792,205.74 126.503,205.248 127.044,204.198C127.046,204.194 127.048,204.19 127.05,204.186C127.116,204.044 127.147,203.881 127.136,203.697C127.124,203.506 127.068,203.349 126.978,203.224L126.929,203.16C126.789,202.977 126.617,202.918 126.427,202.948C126.265,202.974 126.115,203.071 126.006,203.276C125.828,203.598 125.652,203.833 125.468,203.973C125.314,204.09 125.144,204.149 124.956,204.149L124.949,204.149C124.622,204.156 124.325,203.884 124.002,203.408L124.001,203.407C123.435,202.576 122.796,202.187 122.12,202.187C121.284,202.178 120.573,202.67 120.032,203.72C120.032,203.72 120.031,203.721 120.031,203.722C119.963,203.857 119.929,204.018 119.94,204.209C119.951,204.391 120.003,204.542 120.086,204.664ZM87.071,204.664L87.089,204.701C87.106,204.735 87.126,204.763 87.147,204.785C87.284,204.949 87.449,204.999 87.625,204.969C87.783,204.943 87.93,204.85 88.038,204.657C88.039,204.656 88.039,204.655 88.04,204.654C88.356,204.078 88.693,203.757 89.106,203.757C89.435,203.757 89.735,204.031 90.06,204.51L90.06,204.511C90.627,205.342 91.265,205.731 91.941,205.731C92.777,205.74 93.489,205.248 94.029,204.198C94.031,204.194 94.033,204.19 94.035,204.186C94.101,204.044 94.132,203.881 94.121,203.697C94.11,203.506 94.053,203.349 93.963,203.224L93.914,203.16C93.774,202.977 93.602,202.918 93.412,202.948C93.251,202.974 93.1,203.071 92.992,203.276C92.814,203.598 92.638,203.833 92.453,203.973C92.3,204.09 92.129,204.149 91.941,204.149L91.935,204.149C91.607,204.156 91.31,203.884 90.987,203.408C90.987,203.407 90.986,203.407 90.986,203.407C90.42,202.576 89.782,202.187 89.106,202.187C88.269,202.178 87.558,202.67 87.017,203.72C87.017,203.72 87.017,203.721 87.016,203.722C86.948,203.857 86.914,204.018 86.926,204.209C86.936,204.391 86.988,204.542 87.071,204.664ZM103.014,202.751L103.82,204.934C103.926,205.221 104.246,205.368 104.534,205.262C104.821,205.156 104.969,204.836 104.862,204.549L104.056,202.366C103.95,202.078 103.63,201.931 103.343,202.037C103.055,202.143 102.908,202.463 103.014,202.751ZM104.426,201.836L105.232,204.019C105.339,204.306 105.658,204.454 105.946,204.347C106.234,204.241 106.381,203.921 106.275,203.634L105.469,201.451C105.362,201.163 105.043,201.016 104.755,201.122C104.467,201.229 104.32,201.548 104.426,201.836ZM67.875,194.369C68.501,195.273 68.553,196.176 67.892,197.08C67.529,197.575 67.637,198.27 68.132,198.633C68.627,198.995 69.322,198.887 69.685,198.393C70.976,196.629 70.924,194.866 69.701,193.103C69.352,192.599 68.659,192.474 68.155,192.823C67.651,193.172 67.526,193.865 67.875,194.369ZM145.103,197.69C149.433,197.102 152.798,195.671 155.217,193.444C155.432,193.264 155.552,193.035 155.596,192.78C155.63,192.582 155.617,192.351 155.504,192.096C155.503,192.093 155.502,192.089 155.5,192.086C155.352,191.762 155.118,191.595 154.867,191.511C154.622,191.43 154.274,191.401 153.878,191.671C153.839,191.697 153.802,191.727 153.768,191.758C151.631,193.724 148.627,194.939 144.779,195.453C144.749,195.457 144.72,195.462 144.691,195.468C144.35,195.546 144.135,195.73 143.995,195.944C143.861,196.15 143.778,196.413 143.834,196.748C143.902,197.181 144.129,197.413 144.328,197.541C144.544,197.68 144.799,197.751 145.103,197.69ZM144.733,195.779C144.722,195.781 144.712,195.783 144.702,195.786C144.692,195.788 144.682,195.791 144.671,195.794L144.733,195.779ZM144.775,195.771L144.746,195.777L144.794,195.768L144.775,195.771ZM145.367,192.551C149.185,191.972 152.126,190.757 154.21,188.954C154.22,188.945 154.23,188.936 154.24,188.927C154.466,188.715 154.569,188.473 154.597,188.226C154.623,188.002 154.587,187.754 154.434,187.498C154.221,187.143 153.936,187.014 153.689,186.969C153.414,186.92 153.09,186.955 152.775,187.241C150.978,188.81 148.383,189.824 145.012,190.334C144.989,190.338 144.965,190.342 144.942,190.348C144.601,190.425 144.386,190.61 144.246,190.823C144.111,191.03 144.028,191.295 144.086,191.633C144.161,192.08 144.405,192.311 144.628,192.437C144.834,192.554 145.08,192.613 145.371,192.551L145.367,192.551ZM144.976,190.644C144.967,190.646 144.958,190.648 144.949,190.65C144.94,190.653 144.931,190.655 144.922,190.658L144.976,190.644ZM145.019,190.636L144.995,190.641L145.027,190.635L145.019,190.636ZM69.501,186.736C70.195,186.736 70.758,187.299 70.758,187.993C70.758,188.687 70.195,189.25 69.501,189.25C68.807,189.25 68.244,188.687 68.244,187.993C68.244,187.299 68.807,186.736 69.501,186.736ZM63.875,184.369C64.501,185.273 64.553,186.176 63.892,187.08C63.529,187.575 63.637,188.27 64.132,188.633C64.627,188.995 65.322,188.887 65.685,188.393C66.976,186.629 66.924,184.866 65.701,183.103C65.352,182.599 64.659,182.474 64.155,182.823C63.651,183.172 63.526,183.865 63.875,184.369ZM145.368,187.742C148.89,187.166 151.562,186.172 153.402,184.805C153.432,184.783 153.46,184.759 153.488,184.733C153.717,184.518 153.815,184.278 153.844,184.045C153.874,183.799 153.831,183.535 153.649,183.27C153.648,183.268 153.646,183.265 153.644,183.263C153.404,182.919 153.116,182.81 152.896,182.776C152.622,182.733 152.347,182.784 152.088,182.987C150.46,184.184 148.082,185.018 144.975,185.53C144.94,185.536 144.906,185.543 144.872,185.553C144.611,185.625 144.425,185.767 144.292,185.942C144.132,186.15 144.019,186.436 144.086,186.826C144.158,187.261 144.39,187.486 144.586,187.608C144.805,187.746 145.064,187.813 145.368,187.742ZM144.944,185.842C144.933,185.845 144.923,185.848 144.912,185.85C144.901,185.853 144.891,185.857 144.88,185.86L144.944,185.842ZM144.987,185.833L144.953,185.84L145.011,185.829L144.987,185.833ZM153.261,184.54L153.307,184.504C153.292,184.517 153.276,184.529 153.261,184.54ZM150.027,174.934C150.323,175.255 150.514,175.559 150.518,175.88C150.522,176.188 150.344,176.478 150.043,176.787C149.721,177.116 149.728,177.644 150.057,177.965C150.386,178.286 150.914,178.28 151.235,177.951C151.911,177.259 152.194,176.55 152.185,175.858C152.176,175.178 151.879,174.483 151.251,173.803C150.939,173.465 150.411,173.445 150.073,173.757C149.736,174.069 149.715,174.597 150.027,174.934ZM155.197,173.854C155.89,173.854 156.454,174.418 156.454,175.112C156.454,175.805 155.89,176.369 155.197,176.369C154.503,176.369 153.939,175.805 153.939,175.112C153.939,174.418 154.503,173.854 155.197,173.854ZM60.015,175.024C62.718,175.154 65.509,175.582 68.389,176.308L68.39,176.308C68.697,176.385 68.952,176.331 69.161,176.224C69.414,176.093 69.67,175.852 69.745,175.386C69.81,174.981 69.688,174.687 69.519,174.476C69.379,174.3 69.185,174.16 68.916,174.092C65.89,173.332 62.953,172.886 60.106,172.751C60.09,172.751 60.075,172.75 60.06,172.75C59.761,172.75 59.532,172.853 59.352,173.003C59.143,173.178 58.956,173.451 58.956,173.888C58.956,174.307 59.129,174.571 59.31,174.739C59.49,174.906 59.719,175.017 60.015,175.024ZM60.014,175.024L60.028,175.025L60.014,175.024ZM155.197,168.083C155.89,168.083 156.454,168.646 156.454,169.34C156.454,170.034 155.89,170.597 155.197,170.597C154.503,170.597 153.939,170.034 153.939,169.34C153.939,168.646 154.503,168.083 155.197,168.083ZM151.084,168.083C151.778,168.083 152.341,168.646 152.341,169.34C152.341,170.034 151.778,170.597 151.084,170.597C150.39,170.597 149.827,170.034 149.827,169.34C149.827,168.646 150.39,168.083 151.084,168.083ZM61.245,167.207C61.23,167.206 61.215,167.206 61.2,167.206C60.901,167.206 60.671,167.308 60.492,167.458C60.283,167.633 60.095,167.906 60.095,168.343C60.095,168.762 60.268,169.026 60.449,169.194C60.63,169.361 60.86,169.472 61.156,169.48C63.16,169.586 65.236,169.904 67.38,170.431C67.716,170.519 67.988,170.454 68.215,170.317C68.429,170.187 68.668,169.951 68.737,169.498C68.798,169.097 68.68,168.808 68.522,168.602C68.379,168.416 68.181,168.271 67.907,168.203C67.905,168.202 67.904,168.202 67.903,168.202C65.612,167.639 63.393,167.308 61.245,167.207ZM61.235,167.535C61.227,167.534 61.219,167.534 61.211,167.534L61.186,167.534L61.235,167.535ZM158.847,162.745C159.474,163.648 159.525,164.552 158.864,165.455C158.502,165.95 158.609,166.646 159.104,167.008C159.599,167.37 160.295,167.263 160.657,166.768C161.948,165.005 161.896,163.242 160.673,161.479C160.324,160.975 159.631,160.849 159.127,161.198C158.623,161.548 158.498,162.241 158.847,162.745ZM60.7,164.607C63.039,164.704 65.471,165.024 67.996,165.566C68.302,165.637 68.55,165.584 68.755,165.478C69.008,165.348 69.264,165.107 69.339,164.641C69.4,164.257 69.293,163.976 69.152,163.777C69.013,163.58 68.819,163.429 68.547,163.353C68.529,163.348 68.511,163.344 68.493,163.34C65.878,162.77 63.306,162.435 60.78,162.334C60.767,162.334 60.754,162.333 60.741,162.333C60.36,162.333 60.093,162.488 59.902,162.705C59.749,162.879 59.624,163.123 59.624,163.47C59.624,163.907 59.811,164.181 60.02,164.355C60.194,164.5 60.415,164.601 60.701,164.607L60.7,164.607ZM63.162,153.745C63.789,154.648 63.84,155.552 63.179,156.455C62.817,156.95 62.924,157.646 63.419,158.008C63.914,158.37 64.61,158.263 64.972,157.768C66.263,156.005 66.211,154.242 64.989,152.479C64.639,151.975 63.946,151.849 63.442,152.198C62.938,152.548 62.813,153.241 63.162,153.745ZM159.822,155.1C161.243,155.254 162.602,155.634 163.897,156.241C164.198,156.397 164.467,156.393 164.697,156.327C164.965,156.25 165.28,156.064 165.437,155.59C165.541,155.297 165.516,155.034 165.435,154.814C165.344,154.568 165.174,154.345 164.873,154.194C164.866,154.191 164.86,154.188 164.854,154.185C163.273,153.436 161.66,152.98 160.014,152.816C159.982,152.813 159.95,152.812 159.918,152.812C159.561,152.812 159.311,152.945 159.133,153.112C158.935,153.299 158.787,153.56 158.787,153.932C158.787,154.351 158.951,154.618 159.119,154.785C159.3,154.967 159.529,155.084 159.822,155.1ZM159.821,155.1L159.83,155.101L159.821,155.1ZM164.766,154.499L164.818,154.526C164.801,154.516 164.783,154.507 164.766,154.499ZM159.94,153.157C159.932,153.157 159.924,153.157 159.916,153.156L159.891,153.156L159.94,153.157ZM160.532,147.107C160.502,147.104 160.472,147.103 160.441,147.103C160.076,147.103 159.82,147.246 159.637,147.433C159.462,147.613 159.324,147.864 159.324,148.223C159.324,148.651 159.5,148.921 159.686,149.092C159.861,149.252 160.081,149.361 160.362,149.375C161.368,149.487 162.398,149.768 163.448,150.215C163.735,150.359 163.999,150.355 164.225,150.29C164.497,150.213 164.816,150.022 164.971,149.537C165.065,149.243 165.041,148.992 164.971,148.786C164.88,148.52 164.704,148.293 164.401,148.141C164.386,148.133 164.37,148.126 164.354,148.119C163.076,147.561 161.801,147.226 160.532,147.107ZM160.476,147.432C160.468,147.432 160.46,147.431 160.452,147.431L160.428,147.431L160.476,147.432ZM152.027,144.123C152.323,144.444 152.514,144.747 152.518,145.068C152.522,145.377 152.344,145.667 152.043,145.975C151.721,146.304 151.728,146.832 152.057,147.154C152.386,147.475 152.914,147.469 153.235,147.14C153.911,146.448 154.194,145.739 154.185,145.047C154.176,144.367 153.879,143.671 153.251,142.992C152.939,142.654 152.411,142.633 152.073,142.945C151.736,143.258 151.715,143.785 152.027,144.123ZM155.485,144.123C155.782,144.444 155.973,144.747 155.977,145.068C155.981,145.377 155.802,145.667 155.501,145.975C155.18,146.304 155.186,146.832 155.515,147.154C155.844,147.475 156.372,147.469 156.694,147.14C157.369,146.448 157.652,145.739 157.643,145.047C157.634,144.367 157.337,143.671 156.709,142.992C156.397,142.654 155.869,142.633 155.532,142.945C155.194,143.258 155.173,143.785 155.485,144.123ZM104.382,144.123C104.679,144.444 104.869,144.747 104.874,145.068C104.878,145.377 104.699,145.667 104.398,145.975C104.077,146.304 104.083,146.832 104.412,147.154C104.741,147.475 105.269,147.469 105.59,147.14C106.266,146.448 106.549,145.739 106.54,145.047C106.531,144.367 106.234,143.671 105.606,142.992C105.294,142.654 104.766,142.633 104.428,142.945C104.091,143.258 104.07,143.785 104.382,144.123ZM97.486,142.345L96.1,145.108C95.894,145.519 96.06,146.02 96.472,146.226C96.883,146.433 97.384,146.266 97.59,145.855L98.976,143.092C99.182,142.681 99.016,142.18 98.605,141.974C98.193,141.767 97.692,141.934 97.486,142.345ZM100.486,142.345L99.1,145.108C98.894,145.519 99.06,146.02 99.472,146.226C99.883,146.433 100.384,146.266 100.59,145.855L101.976,143.092C102.182,142.681 102.016,142.18 101.605,141.974C101.193,141.767 100.692,141.934 100.486,142.345ZM148.251,140.962L145.274,143.939C144.949,144.264 144.949,144.792 145.274,145.117C145.6,145.442 146.128,145.442 146.453,145.117L149.43,142.14C149.755,141.815 149.755,141.287 149.43,140.962C149.104,140.637 148.576,140.637 148.251,140.962ZM160.169,144.339C161.442,144.463 162.648,144.751 163.785,145.206C164.086,145.328 164.354,145.306 164.589,145.213C164.832,145.118 165.107,144.919 165.246,144.484C165.253,144.461 165.26,144.438 165.265,144.415C165.338,144.112 165.294,143.865 165.21,143.668C165.097,143.405 164.9,143.191 164.58,143.068C163.21,142.531 161.793,142.199 160.33,142.07C160.302,142.068 160.273,142.066 160.245,142.066C159.889,142.066 159.639,142.2 159.461,142.367C159.262,142.554 159.115,142.814 159.115,143.187C159.115,143.211 159.116,143.234 159.117,143.258C159.147,143.661 159.323,143.915 159.511,144.076C159.687,144.228 159.902,144.326 160.169,144.339ZM59.408,142.659L60.214,144.841C60.32,145.129 60.64,145.276 60.927,145.17C61.215,145.064 61.362,144.744 61.256,144.456L60.45,142.274C60.344,141.986 60.024,141.839 59.736,141.945C59.449,142.051 59.302,142.371 59.408,142.659ZM160.167,144.339L160.185,144.34L160.167,144.339ZM60.82,141.744L61.626,143.926C61.732,144.214 62.052,144.361 62.34,144.255C62.627,144.149 62.774,143.829 62.668,143.541L61.862,141.359C61.756,141.071 61.436,140.924 61.149,141.03C60.861,141.136 60.714,141.456 60.82,141.744ZM160.275,142.396C160.268,142.395 160.26,142.395 160.253,142.395L160.232,142.395L160.275,142.396ZM107.956,124.562C110.704,128.526 110.875,132.491 107.973,136.455C107.61,136.95 107.718,137.646 108.213,138.008C108.707,138.37 109.403,138.263 109.766,137.768C113.298,132.944 113.126,128.12 109.782,123.296C109.433,122.792 108.74,122.667 108.236,123.016C107.732,123.365 107.607,124.058 107.956,124.562ZM92.474,134.871C92.771,135.191 92.961,135.495 92.965,135.816C92.969,136.124 92.791,136.415 92.49,136.723C92.168,137.052 92.175,137.58 92.504,137.901C92.833,138.223 93.361,138.216 93.682,137.887C94.358,137.195 94.641,136.486 94.632,135.794C94.623,135.115 94.326,134.419 93.698,133.739C93.386,133.402 92.858,133.381 92.52,133.693C92.183,134.005 92.162,134.533 92.474,134.871ZM103.821,123.159L96.495,135.546C96.183,136.074 96.358,136.756 96.886,137.068C97.414,137.38 98.096,137.205 98.408,136.677L105.734,124.29C106.046,123.763 105.871,123.081 105.343,122.768C104.815,122.456 104.133,122.631 103.821,123.159ZM60.08,135.768C61.501,135.922 62.86,136.302 64.155,136.908C64.456,137.064 64.725,137.061 64.955,136.995C65.223,136.918 65.538,136.731 65.695,136.258C65.799,135.964 65.774,135.701 65.693,135.481C65.602,135.236 65.432,135.013 65.131,134.862C65.124,134.859 65.118,134.855 65.112,134.853C63.531,134.103 61.918,133.648 60.272,133.484C60.24,133.481 60.208,133.479 60.176,133.479C59.819,133.479 59.569,133.612 59.391,133.78C59.193,133.966 59.045,134.227 59.045,134.6C59.045,135.019 59.209,135.285 59.377,135.453C59.558,135.634 59.787,135.752 60.08,135.768ZM146.607,133.722L147.993,136.485C148.199,136.896 148.7,137.063 149.111,136.856C149.523,136.65 149.689,136.149 149.483,135.738L148.097,132.975C147.891,132.564 147.39,132.398 146.978,132.604C146.567,132.81 146.401,133.311 146.607,133.722ZM163.652,123.256C166.4,127.22 166.571,131.184 163.668,135.149C163.306,135.643 163.414,136.339 163.908,136.702C164.403,137.064 165.099,136.956 165.461,136.461C168.993,131.637 168.822,126.813 165.478,121.99C165.129,121.486 164.436,121.36 163.932,121.709C163.428,122.059 163.302,122.752 163.652,123.256ZM89.523,133.548C90.217,133.548 90.78,134.111 90.78,134.805C90.78,135.499 90.217,136.062 89.523,136.062C88.829,136.062 88.266,135.499 88.266,134.805C88.266,134.111 88.829,133.548 89.523,133.548ZM159.517,121.853L152.191,134.239C151.879,134.767 152.054,135.449 152.581,135.761C153.109,136.074 153.791,135.898 154.103,135.371L161.43,122.984C161.742,122.456 161.567,121.774 161.039,121.462C160.511,121.15 159.829,121.325 159.517,121.853ZM60.079,135.768L60.088,135.768L60.079,135.768ZM65.024,135.166L65.076,135.193C65.059,135.183 65.041,135.175 65.024,135.166ZM60.198,133.825C60.19,133.824 60.182,133.824 60.174,133.824L60.149,133.824L60.198,133.825ZM60.79,127.774C60.76,127.772 60.73,127.77 60.699,127.77C60.334,127.77 60.078,127.913 59.895,128.101C59.72,128.28 59.582,128.532 59.582,128.891C59.582,129.319 59.758,129.588 59.944,129.759C60.119,129.919 60.339,130.028 60.62,130.043C61.626,130.154 62.656,130.436 63.706,130.883C63.993,131.027 64.257,131.022 64.483,130.958C64.755,130.88 65.074,130.69 65.229,130.204C65.323,129.91 65.299,129.659 65.229,129.453C65.138,129.188 64.962,128.96 64.659,128.808C64.644,128.801 64.628,128.793 64.612,128.786C63.334,128.229 62.059,127.893 60.79,127.774ZM60.734,128.1C60.726,128.099 60.718,128.099 60.71,128.099C60.702,128.098 60.694,128.098 60.686,128.098L60.734,128.1ZM60.427,125.007C61.7,125.13 62.906,125.419 64.043,125.873C64.344,125.995 64.612,125.973 64.847,125.881C65.09,125.785 65.365,125.587 65.504,125.151C65.511,125.128 65.518,125.105 65.523,125.082C65.596,124.78 65.552,124.532 65.468,124.336C65.355,124.073 65.158,123.858 64.838,123.735C63.468,123.198 62.051,122.866 60.588,122.738C60.56,122.735 60.531,122.734 60.503,122.734C60.147,122.734 59.897,122.867 59.719,123.035C59.52,123.221 59.373,123.482 59.373,123.855C59.373,123.878 59.374,123.902 59.375,123.925C59.405,124.329 59.581,124.582 59.769,124.744C59.945,124.895 60.16,124.993 60.427,125.007ZM60.425,125.006L60.443,125.007L60.425,125.006ZM60.533,123.063C60.526,123.063 60.518,123.062 60.511,123.062L60.49,123.062L60.533,123.063ZM161.018,113.203C161.711,113.203 162.275,113.766 162.275,114.46C162.275,115.154 161.711,115.717 161.018,115.717C160.324,115.717 159.76,115.154 159.76,114.46C159.76,113.766 160.324,113.203 161.018,113.203ZM115.925,104.459L108.416,104.459L106.978,101.583C106.698,101.023 106.016,100.795 105.456,101.075C104.896,101.355 104.668,102.038 104.948,102.598L111.156,115.013C111.211,115.123 111.282,115.221 111.364,115.304L111.372,115.313C111.456,115.395 111.553,115.465 111.663,115.52C111.826,115.602 112,115.641 112.171,115.64C112.342,115.641 112.515,115.602 112.678,115.52C112.789,115.465 112.886,115.395 112.969,115.313L112.978,115.304C113.06,115.221 113.131,115.123 113.186,115.013L119.394,102.598C119.674,102.038 119.446,101.355 118.886,101.075C118.326,100.795 117.644,101.023 117.364,101.583L115.925,104.459ZM54.479,107.362C56.894,108.939 59.723,111.328 61.281,112.966C61.703,113.411 62.407,113.428 62.852,113.006C63.296,112.583 63.314,111.879 62.891,111.435C61.243,109.701 58.25,107.17 55.693,105.501C55.18,105.166 54.491,105.31 54.156,105.824C53.82,106.337 53.965,107.027 54.479,107.362ZM109.551,106.729L112.171,111.968L114.791,106.729L109.551,106.729ZM161.018,107.431C161.711,107.431 162.275,107.995 162.275,108.689C162.275,109.382 161.711,109.946 161.018,109.946C160.324,109.946 159.76,109.382 159.76,108.689C159.76,107.995 160.324,107.431 161.018,107.431ZM157.198,104.032C157.495,104.352 157.685,104.656 157.69,104.977C157.694,105.285 157.515,105.576 157.214,105.884C156.893,106.213 156.899,106.741 157.228,107.062C157.557,107.384 158.085,107.377 158.406,107.048C159.082,106.356 159.365,105.647 159.356,104.955C159.347,104.276 159.05,103.58 158.422,102.9C158.11,102.563 157.582,102.542 157.245,102.854C156.907,103.166 156.886,103.694 157.198,104.032ZM151.408,102.659L152.214,104.841C152.32,105.129 152.64,105.276 152.927,105.17C153.215,105.064 153.362,104.744 153.256,104.456L152.45,102.274C152.344,101.986 152.024,101.839 151.736,101.945C151.449,102.051 151.302,102.371 151.408,102.659ZM95.794,99.129L92.817,102.106C92.275,102.648 92.275,103.528 92.817,104.07C93.359,104.612 94.239,104.612 94.781,104.07L97.758,101.094C98.3,100.552 98.3,99.672 97.758,99.129C97.216,98.587 96.336,98.587 95.794,99.129ZM125.84,101.094L128.817,104.07C129.359,104.612 130.239,104.612 130.781,104.07C131.323,103.528 131.323,102.648 130.781,102.106L127.804,99.129C127.262,98.587 126.382,98.587 125.84,99.129C125.298,99.672 125.298,100.552 125.84,101.094ZM152.82,101.744L153.626,103.926C153.732,104.214 154.052,104.361 154.34,104.255C154.627,104.149 154.774,103.829 154.668,103.541L153.862,101.359C153.756,101.071 153.436,100.924 153.149,101.03C152.861,101.136 152.714,101.456 152.82,101.744ZM52.173,94.745C52.799,95.648 52.851,96.552 52.19,97.455C51.827,97.95 51.935,98.646 52.43,99.008C52.924,99.37 53.62,99.263 53.983,98.768C55.273,97.005 55.221,95.242 53.999,93.479C53.65,92.975 52.957,92.849 52.453,93.198C51.949,93.548 51.824,94.241 52.173,94.745ZM88.389,86.663L88.396,86.646C88.647,86.039 89.322,85.759 89.903,86.021C90.483,86.283 90.751,86.988 90.5,87.595L90.144,88.456L87.879,94.116L87.574,94.865C86.95,96.434 85.803,97.323 84.265,97.707C83.65,97.862 83.031,97.466 82.884,96.823C82.736,96.181 83.116,95.535 83.731,95.382C84.524,95.183 85.138,94.754 85.46,93.942L85.575,93.659L83.721,89.174L83.708,89.168L83.423,88.456L83.066,87.595C82.815,86.988 83.084,86.283 83.665,86.021C84.246,85.759 84.921,86.039 85.17,86.646L85.178,86.663L85.188,86.659L85.532,87.521L86.784,90.545L88.035,87.521L88.379,86.659L88.389,86.663ZM153.528,80.316L153.528,96.316C153.528,96.929 154.026,97.427 154.639,97.427C155.252,97.427 155.75,96.929 155.75,96.316L155.75,80.316C155.75,79.703 155.252,79.205 154.639,79.205C154.026,79.205 153.528,79.703 153.528,80.316ZM72.352,89L55.799,89C55.186,89 54.688,89.498 54.688,90.112C54.688,90.725 55.186,91.223 55.799,91.223L72.352,91.223C72.965,91.223 73.463,90.725 73.463,90.112C73.463,89.498 72.965,89 72.352,89ZM80.124,87L74.018,87C73.405,87 72.907,87.498 72.907,88.112C72.907,88.725 73.405,89.223 74.018,89.223L80.124,89.223C80.738,89.223 81.236,88.725 81.236,88.112C81.236,87.498 80.738,87 80.124,87ZM104.474,82.677C104.771,82.998 104.961,83.302 104.965,83.622C104.969,83.931 104.791,84.221 104.49,84.529C104.168,84.859 104.175,85.387 104.504,85.708C104.833,86.029 105.361,86.023 105.682,85.694C106.358,85.002 106.641,84.293 106.632,83.601C106.623,82.921 106.326,82.226 105.698,81.546C105.386,81.208 104.858,81.187 104.52,81.5C104.183,81.812 104.162,82.339 104.474,82.677ZM92.474,82.677C92.771,82.998 92.961,83.302 92.965,83.622C92.969,83.931 92.791,84.221 92.49,84.529C92.168,84.859 92.175,85.387 92.504,85.708C92.833,86.029 93.361,86.023 93.682,85.694C94.358,85.002 94.641,84.293 94.632,83.601C94.623,82.921 94.326,82.226 93.698,81.546C93.386,81.208 92.858,81.187 92.52,81.5C92.183,81.812 92.162,82.339 92.474,82.677ZM131.99,80.68L129.013,83.657C128.58,84.091 128.58,84.795 129.013,85.228C129.447,85.662 130.151,85.662 130.585,85.228L133.561,82.252C133.995,81.818 133.995,81.114 133.561,80.68C133.128,80.247 132.424,80.247 131.99,80.68ZM98.179,79.856L96.793,82.619C96.587,83.031 96.753,83.532 97.164,83.738C97.576,83.944 98.077,83.778 98.283,83.367L99.669,80.604C99.875,80.193 99.709,79.691 99.297,79.485C98.886,79.279 98.385,79.445 98.179,79.856ZM101.179,79.856L99.793,82.619C99.587,83.031 99.753,83.532 100.164,83.738C100.576,83.944 101.077,83.778 101.283,83.367L102.669,80.604C102.875,80.193 102.709,79.691 102.297,79.485C101.886,79.279 101.385,79.445 101.179,79.856ZM117.486,79.711L116.1,82.474C115.894,82.885 116.06,83.386 116.472,83.592C116.883,83.799 117.384,83.632 117.59,83.221L118.976,80.458C119.182,80.047 119.016,79.546 118.605,79.34C118.193,79.133 117.692,79.3 117.486,79.711ZM120.486,79.711L119.1,82.474C118.894,82.885 119.06,83.386 119.472,83.592C119.883,83.799 120.384,83.632 120.59,83.221L121.976,80.458C122.182,80.047 122.016,79.546 121.605,79.34C121.193,79.133 120.692,79.3 120.486,79.711ZM107.992,82.388L108.011,82.425C108.028,82.459 108.047,82.487 108.068,82.509C108.206,82.672 108.37,82.723 108.547,82.693C108.704,82.667 108.851,82.574 108.96,82.381C108.96,82.38 108.961,82.379 108.961,82.378C109.277,81.802 109.614,81.48 110.027,81.48C110.356,81.48 110.656,81.755 110.981,82.234C110.981,82.235 110.982,82.235 110.982,82.235C111.548,83.065 112.186,83.455 112.862,83.455C113.699,83.464 114.41,82.972 114.951,81.922C114.953,81.918 114.955,81.914 114.957,81.91C115.023,81.768 115.054,81.605 115.043,81.421C115.031,81.23 114.975,81.073 114.884,80.948L114.836,80.884C114.696,80.701 114.524,80.642 114.333,80.672C114.172,80.698 114.021,80.795 113.913,81C113.735,81.322 113.559,81.557 113.375,81.697C113.221,81.814 113.051,81.873 112.862,81.873L112.856,81.873C112.529,81.88 112.231,81.608 111.908,81.132L111.908,81.131C111.342,80.3 110.703,79.911 110.027,79.911C109.191,79.902 108.48,80.394 107.939,81.444C107.938,81.444 107.938,81.445 107.938,81.446C107.869,81.581 107.836,81.742 107.847,81.932C107.858,82.115 107.91,82.266 107.992,82.388ZM123.408,80.659L124.214,82.841C124.32,83.129 124.64,83.276 124.927,83.17C125.215,83.064 125.362,82.744 125.256,82.456L124.45,80.274C124.344,79.986 124.024,79.839 123.736,79.945C123.449,80.051 123.302,80.371 123.408,80.659ZM124.82,79.744L125.626,81.926C125.732,82.214 126.052,82.361 126.34,82.255C126.627,82.149 126.774,81.829 126.668,81.541L125.862,79.359C125.756,79.071 125.436,78.924 125.149,79.03C124.861,79.136 124.714,79.456 124.82,79.744ZM138.958,62.642L131.958,77.642C131.699,78.197 131.939,78.859 132.495,79.118C133.051,79.378 133.712,79.137 133.972,78.581L140.972,63.581C141.231,63.026 140.991,62.364 140.435,62.105C139.879,61.845 139.217,62.086 138.958,62.642ZM151.528,65.316L151.528,75.316C151.528,75.929 152.026,76.427 152.639,76.427C153.252,76.427 153.75,75.929 153.75,75.316L153.75,65.316C153.75,64.703 153.252,64.205 152.639,64.205C152.026,64.205 151.528,64.703 151.528,65.316ZM149.795,63.08L146.883,59.667C146.672,59.42 146.363,59.278 146.038,59.278C145.712,59.278 145.404,59.42 145.192,59.667L142.28,63.08C141.882,63.546 141.937,64.248 142.404,64.646C142.87,65.044 143.572,64.989 143.97,64.523L146.038,62.1L148.105,64.523C148.503,64.989 149.205,65.044 149.671,64.646C150.138,64.248 150.193,63.546 149.795,63.08Z"/>
    </g>
</svg>
