<?xml version="1.0" encoding="UTF-8" standalone="no"?>
<!DOCTYPE svg PUBLIC "-//W3C//DTD SVG 1.1//EN" "http://www.w3.org/Graphics/SVG/1.1/DTD/svg11.dtd">
<svg width="53px" height="52px" version="1.1" xmlns="http://www.w3.org/2000/svg" xmlns:xlink="http://www.w3.org/1999/xlink" xml:space="preserve" xmlns:serif="http://www.serif.com/" style="fill-rule:evenodd;clip-rule:evenodd;stroke-linejoin:round;stroke-miterlimit:2;">
    <g transform="matrix(0.607929,0,0,0.607929,-451.121,-440.363)">
        <path d="M755.469,772.582L762.059,776.576L762.059,787.157L763.785,787.654C764.516,790.057 765.666,792.641 766.7,794.579C767.765,796.575 767.278,798.626 767.286,800.714L768.209,807.334C770.392,809.147 772.015,809.204 774.724,807.334L774.724,803.585L811.552,803.585L813.485,807.334C816.577,809.224 819.107,808.024 820.136,804L819.542,795.874C819.475,795.164 820.108,794.028 820.823,793.425C823.309,791.33 825.256,789.416 825.801,787.654C829.974,782.349 828.051,774.695 824.025,770.036C822.721,768.295 823.509,766.066 825.439,763.571C829.097,758.575 828.902,753.578 825.439,748.582C823.669,746.091 821.062,743.719 817.783,741.444L811.359,727.882L804.935,741.185C804.437,742.453 803.21,743.137 801.366,743.327L783.521,743.327C781.204,743.503 779.94,742.625 779.239,741.185L772.815,727.882L766.391,741.444L760.614,748.077C757.15,753.073 758.196,756.051 758.196,756.051C757.149,755.369 755.137,753.424 752.339,750.452L749.31,747.422C747.965,746.761 746.807,747.088 745.866,748.582C742.403,753.578 742.208,759.143 745.866,764.139C748.506,767.744 753.069,770.606 755.469,772.582Z" style="fill:white;"/>
    </g>
    <g transform="matrix(0.607929,0,0,0.607929,-40.3633,-80.5157)">
        <path d="M98.247,217.056C98.283,217.224 98.36,217.363 98.46,217.478C98.617,217.66 98.866,217.823 99.26,217.823C99.654,217.823 99.903,217.66 100.061,217.478C100.202,217.315 100.297,217.105 100.297,216.833L100.297,208.823C100.297,208.551 100.202,208.341 100.061,208.178C99.903,207.996 99.654,207.834 99.26,207.834C98.866,207.834 98.617,207.996 98.46,208.178C98.318,208.341 98.224,208.551 98.224,208.823L98.224,213.297C98.224,214.041 97.945,214.673 97.393,215.195C96.822,215.735 96.125,216 95.307,216C94.507,216 93.923,215.901 93.59,215.574C93.263,215.252 93.163,214.695 93.163,213.939L93.163,208.823C93.163,208.558 93.073,208.353 92.941,208.194C92.783,208.001 92.533,207.834 92.136,207.834C91.739,207.834 91.489,208.001 91.33,208.194C91.199,208.353 91.109,208.558 91.109,208.823L91.109,213.939C91.109,215.377 91.498,216.386 92.152,217.007C92.794,217.616 93.833,217.979 95.307,217.979C96.279,217.979 97.158,217.735 97.945,217.255C98.049,217.191 98.15,217.125 98.247,217.056ZM142.66,204.639L142.66,212.014C142.66,213.164 142.423,214.019 141.883,214.558C141.435,215.004 140.81,215.208 140.019,215.208C139.184,215.208 138.517,214.982 138.031,214.496C138.031,214.495 138.031,214.495 138.03,214.495C137.596,214.062 137.359,213.291 137.25,212.208C137.214,211.838 137.072,211.569 136.867,211.383C136.662,211.197 136.381,211.083 136.009,211.083C135.988,211.083 135.968,211.084 135.947,211.086C135.586,211.127 135.323,211.283 135.142,211.523C134.987,211.728 134.889,212.013 134.889,212.389C134.889,212.41 134.89,212.431 134.892,212.452C135.078,214.07 135.548,215.214 136.243,215.907C137.178,216.841 138.412,217.32 139.956,217.32C141.504,217.32 142.717,216.859 143.608,215.97C144.539,215.042 145.024,213.748 145.024,212.077L145.024,204.639C145.024,204.239 144.905,203.948 144.723,203.748C144.525,203.531 144.238,203.395 143.842,203.395C143.446,203.395 143.159,203.531 142.961,203.748C142.779,203.948 142.66,204.239 142.66,204.639ZM130.699,210.552L126.854,210.552C126.242,210.552 125.744,211.049 125.744,211.662C125.744,212.275 126.242,212.772 126.854,212.772L130.699,212.772C131.311,212.772 131.809,212.275 131.809,211.662C131.809,211.049 131.311,210.552 130.699,210.552ZM120.699,210.552L102.854,210.552C102.242,210.552 101.744,211.049 101.744,211.662C101.744,212.274 102.242,212.772 102.854,212.772L120.699,212.772C121.311,212.772 121.809,212.274 121.809,211.662C121.809,211.049 121.311,210.552 120.699,210.552ZM84.95,186.391L84.474,186.391C84.194,186.391 83.978,186.493 83.811,186.655C83.655,186.805 83.506,187.043 83.506,187.418C83.506,187.793 83.655,188.031 83.811,188.181C83.978,188.342 84.194,188.444 84.474,188.444L84.95,188.444C84.979,188.488 85.031,188.571 85.059,188.638C85.222,189.027 85.29,189.543 85.29,190.182L85.29,193.353C85.29,194.531 85.483,195.377 85.795,195.904C86.204,196.597 86.854,196.97 87.772,196.97L88.724,196.97C89.009,196.97 89.225,196.867 89.39,196.71C89.557,196.552 89.711,196.301 89.698,195.907C89.686,195.544 89.542,195.313 89.393,195.167C89.221,194.999 89.002,194.898 88.724,194.898L87.772,194.898C87.619,194.898 87.493,194.872 87.418,194.763C87.249,194.519 87.225,194.043 87.225,193.353L87.225,190.182C87.225,188.956 87.002,188.042 86.632,187.418C87.002,186.793 87.225,185.879 87.225,184.653L87.225,181.482C87.225,180.796 87.248,180.322 87.42,180.079C87.497,179.97 87.621,179.938 87.772,179.938L88.724,179.938C89.002,179.938 89.213,179.838 89.375,179.692C89.552,179.533 89.712,179.281 89.698,178.882C89.685,178.516 89.536,178.285 89.379,178.138C89.21,177.982 88.996,177.884 88.724,177.884L87.772,177.884C86.855,177.884 86.207,178.255 85.797,178.936C85.485,179.457 85.29,180.301 85.29,181.482L85.29,184.653C85.29,185.292 85.222,185.808 85.059,186.197C85.031,186.265 84.979,186.347 84.95,186.391ZM148.86,181.291C152.025,185.858 152.22,190.425 148.876,194.992C148.515,195.487 148.622,196.182 149.116,196.544C149.611,196.905 150.306,196.798 150.667,196.304C154.64,190.878 154.445,185.452 150.684,180.026C150.335,179.523 149.643,179.397 149.14,179.746C148.636,180.095 148.511,180.787 148.86,181.291ZM76.856,179.285L79.886,182.315C80.32,182.748 81.024,182.748 81.457,182.315C81.891,181.881 81.891,181.177 81.457,180.743L78.428,177.713C77.994,177.28 77.29,177.28 76.856,177.713C76.423,178.147 76.423,178.851 76.856,179.285ZM148.86,157.291C152.025,161.858 152.22,166.425 148.876,170.992C148.515,171.487 148.622,172.182 149.116,172.544C149.611,172.905 150.306,172.798 150.667,172.304C154.64,166.878 154.445,161.452 150.684,156.026C150.335,155.523 149.643,155.397 149.14,155.746C148.636,156.095 148.511,156.787 148.86,157.291ZM69.287,156.026C65.526,161.452 65.331,166.878 69.304,172.304C69.665,172.798 70.36,172.905 70.855,172.544C71.349,172.182 71.456,171.487 71.095,170.992C67.751,166.425 67.946,161.858 71.111,157.291C71.46,156.787 71.335,156.095 70.831,155.746C70.328,155.397 69.636,155.523 69.287,156.026ZM84.287,156.026C80.526,161.452 80.331,166.878 84.304,172.304C84.665,172.798 85.36,172.905 85.855,172.544C86.349,172.182 86.456,171.487 86.095,170.992C82.751,166.425 82.946,161.858 86.111,157.291C86.46,156.787 86.335,156.095 85.831,155.746C85.328,155.397 84.636,155.523 84.287,156.026ZM109.672,161.081L102.345,161.081L100.941,158.275C100.667,157.727 100,157.505 99.452,157.779C98.904,158.053 98.682,158.719 98.956,159.267L105.015,171.386C105.203,171.762 105.588,172 106.008,172C106.428,172 106.813,171.762 107.001,171.386L113.06,159.267C113.334,158.72 113.112,158.053 112.564,157.779C112.016,157.505 111.349,157.727 111.075,158.275L109.672,161.081ZM144.072,157.517C143.657,163.325 142.028,166.793 137.24,169.71C136.717,170.029 136.551,170.712 136.87,171.235C137.188,171.758 137.872,171.924 138.395,171.605C143.879,168.264 145.81,164.328 146.285,157.676C146.329,157.065 145.869,156.534 145.258,156.49C144.647,156.446 144.116,156.907 144.072,157.517ZM108.562,163.301L103.454,163.301L106.008,168.409L108.562,163.301ZM92.346,155.713L89.317,158.743C88.883,159.177 88.883,159.881 89.317,160.315C89.75,160.748 90.454,160.748 90.888,160.315L93.918,157.285C94.351,156.851 94.351,156.147 93.918,155.713C93.484,155.28 92.78,155.28 92.346,155.713ZM118.856,157.285L121.886,160.315C122.32,160.748 123.024,160.748 123.457,160.315C123.891,159.881 123.891,159.177 123.457,158.743L120.428,155.713C119.994,155.28 119.29,155.28 118.856,155.713C118.423,156.147 118.423,156.851 118.856,157.285ZM72.856,156.285L75.886,159.315C76.32,159.748 77.024,159.748 77.457,159.315C77.891,158.881 77.891,158.177 77.457,157.743L74.428,154.713C73.994,154.28 73.29,154.28 72.856,154.713C72.423,155.147 72.423,155.851 72.856,156.285ZM125.699,150.552L107.854,150.552C107.242,150.552 106.744,151.049 106.744,151.662C106.744,152.274 107.242,152.772 107.854,152.772L125.699,152.772C126.311,152.772 126.809,152.274 126.809,151.662C126.809,151.049 126.311,150.552 125.699,150.552ZM143.119,149.045L136.695,135.483C136.511,135.096 136.121,134.849 135.692,134.849C135.263,134.849 134.872,135.096 134.689,135.483L128.265,149.045C128.002,149.599 128.239,150.262 128.793,150.524C129.346,150.786 130.009,150.549 130.271,149.996L135.692,138.552L141.113,149.996C141.375,150.549 142.037,150.786 142.591,150.524C143.144,150.262 143.381,149.599 143.119,149.045ZM104.575,149.045L98.151,135.483C97.967,135.096 97.577,134.849 97.148,134.849C96.719,134.849 96.328,135.096 96.145,135.483L89.721,149.045C89.458,149.599 89.695,150.262 90.249,150.524C90.802,150.786 91.465,150.549 91.727,149.996L97.148,138.552L102.569,149.996C102.831,150.549 103.493,150.786 104.047,150.524C104.6,150.262 104.837,149.599 104.575,149.045Z"/>
    </g>
</svg>
