<?xml version="1.0" encoding="UTF-8" standalone="no"?>
<!DOCTYPE svg PUBLIC "-//W3C//DTD SVG 1.1//EN" "http://www.w3.org/Graphics/SVG/1.1/DTD/svg11.dtd">
<svg width="49px" height="53px" version="1.1" xmlns="http://www.w3.org/2000/svg" xmlns:xlink="http://www.w3.org/1999/xlink" xml:space="preserve" xmlns:serif="http://www.serif.com/" style="fill-rule:evenodd;clip-rule:evenodd;stroke-linejoin:round;stroke-miterlimit:2;">
    <g transform="matrix(-0.438431,0,0,0.438431,80.3968,-11.4755)">
        <path d="M105.944,140.219C106.681,138.135 108.653,136.741 110.864,136.741C122.088,136.728 152.176,136.728 162.584,136.728C164.592,136.729 166.423,137.878 167.296,139.686C170.398,146.352 179.461,148.364 179.666,138.055C179.666,138.055 179.931,128.149 179.988,125.983C179.996,125.707 180.019,125.431 180.059,125.157C180.276,123.676 181.025,118.545 181.454,115.606C181.655,114.229 181.442,112.823 180.841,111.568C179.197,108.128 175.76,100.94 173.987,97.229C173.25,95.688 172.763,94.039 172.546,92.345C172.228,89.872 171.749,86.146 171.431,83.673C171.213,81.979 170.727,80.33 169.99,78.789C168.085,74.803 164.26,66.803 162.8,63.749C162.411,62.934 162.09,62.088 161.843,61.219C161.401,59.667 160.638,56.989 159.967,54.634C159.097,51.581 157.344,48.855 154.927,46.798C149.501,42.178 140.031,34.116 140.031,34.116C127.743,29.835 115.383,27.025 102.887,37.476C98.856,40.18 94.137,44.28 91.538,47.089C70.174,61.395 66.516,75.632 86,93.128C87.358,94.349 88.463,95.825 89.251,97.473C91.7,102.577 96.912,113.479 96.912,113.479C97.899,114.918 95.221,126.775 95.221,126.775L95.351,139.387C96.244,143.545 103.673,146.602 105.944,140.219Z" style="fill:white;"/>
    </g>
    <g transform="matrix(0.614966,0,0,0.614966,-43.1536,-81.7335)">
        <path d="M72.724,202.723C72.379,202.703 72.074,202.825 71.819,203.111C71.608,203.349 71.491,203.63 71.472,203.955C71.471,203.96 71.471,203.965 71.471,203.97C71.365,206.992 71.312,209.548 71.312,211.639C71.312,214.396 71.705,216.292 72.411,217.34C73.173,218.472 74.52,219.091 76.496,219.091C78.019,219.091 79.39,218.537 80.606,217.415C81.759,216.351 82.72,214.793 83.47,212.728C83.471,212.725 83.472,212.721 83.474,212.717C83.572,212.431 83.572,212.134 83.464,211.825C83.341,211.473 83.115,211.241 82.802,211.113L82.843,211.131L82.73,211.086C82.42,210.966 82.109,210.978 81.798,211.128C81.507,211.269 81.292,211.498 81.167,211.827C81.167,211.828 81.166,211.829 81.166,211.83C80.581,213.392 79.874,214.584 79.026,215.393C78.251,216.132 77.412,216.515 76.496,216.515C75.975,216.515 75.553,216.463 75.234,216.342C74.961,216.238 74.726,216.036 74.515,215.75C74.271,215.421 74.112,214.948 74.01,214.34C73.892,213.641 73.836,212.74 73.836,211.639C73.836,209.538 73.888,207.011 73.994,204.056C74.012,203.724 73.91,203.426 73.677,203.165C73.449,202.908 73.185,202.776 72.897,202.745L72.733,202.723L72.724,202.723ZM131.712,205.037L131.712,212.551C131.712,213.723 131.471,214.594 130.921,215.143C130.464,215.597 129.827,215.805 129.021,215.805C128.171,215.805 127.491,215.575 126.996,215.08C126.996,215.079 126.996,215.079 126.995,215.079C126.553,214.638 126.311,213.852 126.2,212.749C126.163,212.372 126.019,212.098 125.81,211.908C125.601,211.719 125.315,211.602 124.936,211.602C124.914,211.602 124.894,211.603 124.872,211.605C124.505,211.647 124.237,211.806 124.052,212.051C123.894,212.26 123.794,212.55 123.794,212.933C123.794,212.954 123.795,212.976 123.797,212.997C123.987,214.646 124.466,215.811 125.174,216.518C126.127,217.469 127.384,217.957 128.957,217.957C130.534,217.957 131.77,217.488 132.678,216.582C133.627,215.636 134.121,214.318 134.121,212.615L134.121,205.037C134.121,204.629 134,204.333 133.814,204.129C133.613,203.908 133.32,203.769 132.917,203.769C132.513,203.769 132.221,203.908 132.019,204.129C131.834,204.333 131.712,204.629 131.712,205.037ZM120.805,210.577L86.289,210.577C85.654,210.577 85.14,211.091 85.14,211.726C85.14,212.36 85.654,212.875 86.289,212.875L120.805,212.875C121.44,212.875 121.954,212.36 121.954,211.726C121.954,211.091 121.44,210.577 120.805,210.577ZM73.315,203.74C73.388,203.642 73.433,203.522 73.438,203.392C73.449,203.11 73.273,202.863 73.018,202.775C73.153,202.823 73.217,202.911 73.234,203.02C73.297,203.122 73.332,203.244 73.327,203.372C73.323,203.469 73.298,203.559 73.256,203.64C73.279,203.672 73.299,203.706 73.315,203.74ZM76.621,181.411L70.285,194.665C70.011,195.238 70.254,195.924 70.826,196.198C71.398,196.471 72.085,196.229 72.358,195.657L78.695,182.402C78.968,181.83 78.726,181.144 78.154,180.87C77.582,180.597 76.895,180.839 76.621,181.411ZM137.114,181.401L130.777,194.655C130.504,195.227 130.746,195.914 131.318,196.187C131.891,196.461 132.577,196.218 132.851,195.646L139.187,182.392C139.461,181.82 139.218,181.133 138.646,180.86C138.074,180.586 137.387,180.829 137.114,181.401ZM117.348,175.628L121.853,175.628C122.42,175.628 122.88,175.167 122.88,174.601C122.88,174.034 122.42,173.574 121.853,173.574L117.348,173.574C116.781,173.574 116.321,174.034 116.321,174.601C116.321,175.167 116.781,175.628 117.348,175.628ZM145.066,158.391C148.217,162.937 148.412,167.483 145.083,172.029C144.708,172.541 144.82,173.26 145.331,173.635C145.843,174.01 146.563,173.898 146.937,173.387C150.917,167.952 150.722,162.517 146.955,157.082C146.593,156.56 145.877,156.431 145.356,156.792C144.834,157.153 144.705,157.87 145.066,158.391ZM84.221,158.327L77.885,171.582C77.611,172.154 77.854,172.84 78.426,173.114C78.998,173.387 79.684,173.145 79.958,172.573L86.294,159.319C86.568,158.746 86.325,158.06 85.753,157.786C85.181,157.513 84.494,157.755 84.221,158.327ZM125.052,160.905C125.851,164.937 127.178,167.179 129.24,168.896L125.789,169.836C125.242,169.984 124.919,170.549 125.068,171.096C125.217,171.643 125.782,171.966 126.329,171.818L131.874,170.308C132.269,170.2 132.562,169.869 132.621,169.464C132.679,169.059 132.492,168.658 132.144,168.443C129.473,166.793 127.93,164.862 127.067,160.505C126.956,159.949 126.415,159.587 125.859,159.698C125.303,159.808 124.941,160.349 125.052,160.905ZM110.952,156.351L108.179,159.371C107.796,159.788 107.824,160.438 108.241,160.822C108.659,161.205 109.309,161.178 109.692,160.76L112.465,157.741C112.848,157.323 112.82,156.673 112.403,156.29C111.985,155.906 111.335,155.934 110.952,156.351ZM136.006,157.741L138.779,160.76C139.162,161.178 139.813,161.205 140.23,160.822C140.648,160.438 140.675,159.788 140.292,159.371L137.519,156.351C137.136,155.934 136.486,155.906 136.068,156.29C135.651,156.673 135.623,157.323 136.006,157.741ZM100.96,137.157L87.066,148.985C86.583,149.396 86.525,150.122 86.936,150.605C87.347,151.088 88.073,151.146 88.556,150.735L102.45,138.907C102.933,138.495 102.991,137.77 102.58,137.287C102.169,136.804 101.443,136.745 100.96,137.157ZM126.914,141.919C129.716,143.799 132.996,146.647 134.802,148.599C135.233,149.065 135.96,149.093 136.426,148.662C136.891,148.232 136.92,147.504 136.489,147.039C134.589,144.985 131.141,141.988 128.195,140.011C127.668,139.657 126.954,139.798 126.601,140.325C126.247,140.851 126.388,141.566 126.914,141.919ZM108.305,138.725C112.459,135.846 116.613,135.667 120.767,138.708C121.279,139.083 121.998,138.971 122.373,138.46C122.748,137.948 122.636,137.228 122.125,136.854C117.082,133.161 112.039,133.341 106.996,136.836C106.475,137.198 106.345,137.914 106.706,138.435C107.067,138.957 107.784,139.087 108.305,138.725Z" style="fill-opacity:0.9;"/>
    </g>
</svg>
