<?xml version="1.0" encoding="UTF-8" standalone="no"?>
<!DOCTYPE svg PUBLIC "-//W3C//DTD SVG 1.1//EN" "http://www.w3.org/Graphics/SVG/1.1/DTD/svg11.dtd">
<svg width="77px" height="48px" version="1.1" xmlns="http://www.w3.org/2000/svg" xmlns:xlink="http://www.w3.org/1999/xlink" xml:space="preserve" xmlns:serif="http://www.serif.com/" style="fill-rule:evenodd;clip-rule:evenodd;stroke-linejoin:round;stroke-miterlimit:2;">
    <g transform="matrix(0.608111,0,0,0.608111,-28.3924,-85.6895)">
        <path d="M117.713,144.099L117.713,143.704C117.713,142.163 118.964,140.911 120.506,140.911C122.047,140.911 123.298,142.163 123.298,143.704C123.298,143.814 123.292,143.922 123.279,144.029C124.258,145.567 124.519,146.915 123.86,148.312C123.546,148.975 123.591,149.752 123.978,150.375C124.366,150.998 125.043,151.381 125.776,151.394C127.367,151.447 128.754,151.47 128.754,151.47L139.834,151.47L140.128,151.61L140.128,163.262L148.406,169.002L148.406,180.859C150.913,181.328 154.84,180.994 157.087,180.291C161.539,179.018 164.814,177.155 168.154,179.487C168.428,179.678 168.67,179.881 168.883,180.092C169.977,181.195 170.11,182.75 170.166,184.293C170.381,190.175 154.325,191.76 148.638,193.13C144.739,194.068 137.361,197.535 137.361,197.535L137.361,208.616L136.999,208.755L122.974,208.755L122.974,217.063C122.974,217.432 122.828,217.786 122.567,218.047C122.306,218.308 121.951,218.455 121.582,218.455L116.867,218.455C115.299,218.455 113.795,217.832 112.686,216.723C111.577,215.614 110.954,214.11 110.954,212.541L110.954,208.755L78.48,208.755L78.48,217.063C78.48,217.832 77.857,218.455 77.088,218.455L72.374,218.455C70.805,218.455 69.301,217.832 68.192,216.723C67.083,215.614 66.46,214.11 66.46,212.541L66.46,209.391L50.262,209.391L49.969,209.251L49.75,151.436L101.486,151.436C105.424,150.019 105.391,146.934 105.861,144.121C105.84,143.985 105.83,143.845 105.83,143.704C105.83,142.163 107.081,140.911 108.622,140.911C110.163,140.911 111.414,142.163 111.414,143.704L111.414,144.099C111.414,144.198 111.494,144.278 111.593,144.278C111.691,144.278 111.771,144.198 111.771,144.099L111.771,143.704C111.771,142.163 113.023,140.911 114.564,140.911C116.105,140.911 117.356,142.163 117.356,143.704L117.356,144.093L117.357,144.093L117.357,144.099C117.357,144.198 117.436,144.278 117.535,144.278C117.633,144.278 117.713,144.198 117.713,144.099Z" style="fill:white;"/>
    </g>
    <g transform="matrix(0.608111,0,0,0.608111,-28.3924,-85.6895)">
        <path d="M123.228,207.366C122.792,207.366 122.374,207.539 122.066,207.847C121.758,208.155 121.585,208.573 121.585,209.009L121.585,217.063C121.585,217.065 121.584,217.066 121.582,217.066L116.867,217.066C115.667,217.066 114.517,216.589 113.668,215.741C112.819,214.892 112.343,213.741 112.343,212.541L112.343,207.493C112.343,206.727 111.72,206.104 110.954,206.104C110.187,206.104 109.565,206.727 109.565,207.493L109.565,212.541C109.565,214.478 110.334,216.336 111.704,217.705C113.073,219.075 114.931,219.844 116.867,219.844L121.582,219.844C123.118,219.844 124.363,218.599 124.363,217.063L124.363,210.144L136.999,210.144L137.59,209.985C138.248,209.876 138.75,209.304 138.75,208.616L138.75,197.535C138.75,196.768 138.128,196.146 137.361,196.146C136.595,196.146 135.972,196.768 135.972,197.535L135.972,207.366L123.228,207.366ZM65.071,207.493L65.071,212.541C65.071,214.478 65.84,216.336 67.21,217.705C68.579,219.075 70.437,219.844 72.374,219.844L77.088,219.844C78.624,219.844 79.869,218.599 79.869,217.063L79.869,207.493C79.869,206.727 79.247,206.104 78.48,206.104C77.714,206.104 77.091,206.727 77.091,207.493L77.091,217.063C77.091,217.065 77.09,217.066 77.088,217.066L72.374,217.066C71.174,217.066 70.023,216.589 69.174,215.741C68.326,214.892 67.849,213.741 67.849,212.541L67.849,207.493C67.849,206.727 67.226,206.104 66.46,206.104C65.693,206.104 65.071,206.727 65.071,207.493ZM49.381,210.509L49.658,210.642C50.019,210.814 50.262,210.78 50.262,210.78L61.343,210.78C62.11,210.78 62.732,210.157 62.732,209.391C62.732,208.624 62.11,208.002 61.343,208.002L51.358,208.002L51.358,198.17C51.358,197.404 50.736,196.782 49.969,196.782C49.202,196.782 48.58,197.404 48.58,198.17L48.58,209.251C48.58,209.808 48.908,210.288 49.381,210.509ZM51.358,208.538L51.358,208.593C51.768,209.466 50.262,210.78 50.262,210.78C51.029,210.78 51.651,210.158 51.651,209.391C51.651,209.069 51.542,208.773 51.358,208.538ZM82.992,210.144L107.488,210.144C108.254,210.144 108.877,209.522 108.877,208.755C108.877,207.989 108.254,207.366 107.488,207.366L82.992,207.366C82.225,207.366 81.603,207.989 81.603,208.755C81.603,209.522 82.225,210.144 82.992,210.144ZM147.017,169.002L147.017,192.768C147.017,193.534 147.639,194.156 148.406,194.156C149.172,194.156 149.795,193.534 149.795,192.768L149.795,169.002C149.795,168.236 149.172,167.613 148.406,167.613C147.639,167.613 147.017,168.236 147.017,169.002ZM48.362,169.002L48.362,192.768C48.362,193.534 48.984,194.156 49.75,194.156C50.517,194.156 51.139,193.534 51.139,192.768L51.139,169.002C51.139,168.236 50.517,167.613 49.75,167.613C48.984,167.613 48.362,168.236 48.362,169.002ZM126.741,191.301L126.853,191.301C127.179,191.295 127.456,191.188 127.686,190.985C127.937,190.764 128.06,190.493 128.06,190.177L128.06,186.414C128.06,186.101 127.939,185.828 127.69,185.598C127.452,185.378 127.162,185.266 126.821,185.266L125.791,185.266L125.791,170.42C125.791,170.104 125.668,169.833 125.417,169.612C125.18,169.403 124.892,169.296 124.553,169.296L115.025,169.296C114.683,169.296 114.398,169.405 114.17,169.616C113.931,169.837 113.814,170.105 113.814,170.42L113.814,171.196C113.814,173.576 113.796,175.381 113.76,176.61C113.725,177.837 113.676,178.963 113.614,179.988C113.554,180.981 113.428,181.751 113.23,182.297C113.031,182.845 112.816,183.32 112.583,183.723C112.349,184.127 111.99,184.641 111.507,185.265L111.503,185.266L111.076,185.266C110.735,185.266 110.445,185.378 110.207,185.598C109.958,185.828 109.837,186.101 109.837,186.414L109.837,190.177C109.837,190.493 109.96,190.764 110.211,190.985C110.449,191.194 110.736,191.301 111.076,191.301L111.187,191.301C111.513,191.295 111.79,191.188 112.02,190.985C112.271,190.764 112.394,190.493 112.394,190.177L112.394,187.444L125.503,187.444L125.503,190.177C125.503,190.493 125.626,190.764 125.877,190.985C126.115,191.194 126.402,191.301 126.741,191.301ZM90.321,180.898L90.229,180.871C89.863,180.758 89.497,180.77 89.131,180.908C88.738,181.057 88.462,181.309 88.294,181.655C88.293,181.657 88.293,181.658 88.292,181.659C87.287,183.762 86.062,185.362 84.604,186.451C83.184,187.512 81.637,188.046 79.96,188.046C78.994,188.046 78.214,187.963 77.623,187.787C77.083,187.626 76.605,187.322 76.187,186.879C75.757,186.425 75.465,185.773 75.285,184.934C75.087,184.008 74.991,182.815 74.991,181.357C74.991,178.591 75.08,175.262 75.257,171.37C75.284,170.987 75.146,170.635 74.803,170.333C74.516,170.081 74.191,169.943 73.828,169.915L73.614,169.889C73.193,169.865 72.829,169.99 72.52,170.262C72.206,170.54 72.042,170.871 72.013,171.249C72.013,171.255 72.012,171.26 72.012,171.266C71.834,175.243 71.745,178.607 71.745,181.357C71.745,184.94 72.376,187.402 73.547,188.764C74.74,190.152 76.867,190.898 79.96,190.898C82.376,190.898 84.548,190.2 86.477,188.805C88.379,187.43 89.955,185.413 91.192,182.744C91.194,182.74 91.196,182.736 91.197,182.732C91.349,182.384 91.349,182.023 91.182,181.649C91.019,181.283 90.736,181.029 90.321,180.898ZM157.469,182.41C159.699,181.772 161.635,180.791 163.431,180.261C164.805,179.855 166.079,179.732 167.359,180.626C167.562,180.768 167.743,180.918 167.901,181.075C168.67,181.852 169.007,182.959 168.802,184.033C168.596,185.109 167.873,186.015 166.869,186.453C166.865,186.455 166.861,186.457 166.858,186.459C165.668,186.991 164.336,187.501 162.524,187.627C161.76,187.68 161.182,188.344 161.235,189.108C161.288,189.873 161.952,190.451 162.716,190.398C164.919,190.245 166.544,189.642 167.991,188.995C169.83,188.187 171.153,186.527 171.53,184.554C171.908,182.577 171.286,180.542 169.869,179.114C169.866,179.111 169.863,179.108 169.861,179.106C169.594,178.841 169.292,178.587 168.949,178.348C166.889,176.91 164.856,176.944 162.644,177.597C160.855,178.125 158.927,179.104 156.705,179.739C155.968,179.95 155.541,180.719 155.752,181.456C155.962,182.193 156.732,182.62 157.469,182.41ZM114.704,185.266C115.54,183.946 116.04,182.643 116.208,181.358C116.385,180.01 116.476,176.715 116.477,171.474L123.048,171.474L123.048,185.266L114.704,185.266ZM134.316,169.385L139.221,172.015C139.932,172.397 140.819,172.129 141.201,171.418C141.582,170.707 141.315,169.82 140.603,169.438L135.699,166.807C134.988,166.425 134.1,166.693 133.719,167.404C133.337,168.116 133.605,169.003 134.316,169.385ZM100.065,166.807L95.161,169.438C94.449,169.82 94.182,170.707 94.563,171.418C94.945,172.129 95.832,172.397 96.543,172.015L101.448,169.385C102.159,169.003 102.427,168.116 102.045,167.404C101.664,166.693 100.776,166.425 100.065,166.807ZM51.139,152.824L102.842,152.824C103.609,152.824 104.231,152.202 104.231,151.436C104.231,150.669 103.609,150.047 102.842,150.047L49.75,150.047C48.983,150.047 48.362,150.668 48.362,151.436L48.362,163.878C48.362,164.645 48.984,165.267 49.75,165.267C50.517,165.267 51.139,164.645 51.139,163.878L51.139,152.824ZM138.739,153.431L138.739,163.262C138.739,164.029 139.361,164.651 140.128,164.651C140.894,164.651 141.516,164.029 141.516,163.262L141.516,152.18C141.516,151.341 140.839,150.659 140,150.654C139.898,150.653 139.834,150.653 139.834,150.653L128.754,150.653C127.987,150.653 127.365,151.275 127.365,152.042C127.365,152.808 127.987,153.431 128.754,153.431L138.739,153.431ZM122.094,144.167C122.496,144.602 122.766,145.009 122.772,145.445C122.777,145.86 122.525,146.245 122.12,146.66C121.584,147.208 121.595,148.088 122.143,148.624C122.692,149.159 123.572,149.149 124.107,148.6C125.137,147.546 125.563,146.463 125.549,145.409C125.536,144.375 125.089,143.315 124.134,142.281C123.613,141.718 122.734,141.684 122.171,142.204C121.608,142.724 121.573,143.604 122.094,144.167ZM110.394,144.167C110.797,144.602 111.067,145.009 111.072,145.445C111.078,145.86 110.826,146.245 110.42,146.66C109.885,147.208 109.896,148.088 110.444,148.624C110.993,149.159 111.873,149.149 112.408,148.6C113.437,147.546 113.863,146.463 113.85,145.409C113.836,144.375 113.39,143.315 112.434,142.281C111.914,141.718 111.034,141.684 110.472,142.204C109.909,142.724 109.874,143.604 110.394,144.167ZM116.244,144.167C116.647,144.602 116.916,145.009 116.922,145.445C116.927,145.86 116.675,146.245 116.27,146.66C115.735,147.208 115.745,148.088 116.294,148.624C116.842,149.159 117.722,149.149 118.258,148.6C119.287,147.546 119.713,146.463 119.699,145.409C119.686,144.375 119.239,143.315 118.284,142.281C117.764,141.718 116.884,141.684 116.321,142.204C115.758,142.724 115.724,143.604 116.244,144.167ZM104.545,144.167C104.947,144.602 105.217,145.009 105.223,145.445C105.228,145.86 104.976,146.245 104.571,146.66C104.035,147.208 104.046,148.088 104.594,148.624C105.143,149.159 106.023,149.149 106.558,148.6C107.588,147.546 108.014,146.463 108,145.409C107.987,144.375 107.54,143.315 106.585,142.281C106.064,141.718 105.185,141.684 104.622,142.204C104.059,142.724 104.024,143.604 104.545,144.167Z" style="fill-rule:nonzero;"/>
    </g>
</svg>
