<?xml version="1.0" encoding="UTF-8" standalone="no"?>
<!DOCTYPE svg PUBLIC "-//W3C//DTD SVG 1.1//EN" "http://www.w3.org/Graphics/SVG/1.1/DTD/svg11.dtd">
<svg width="74px" height="55px" version="1.1" xmlns="http://www.w3.org/2000/svg" xmlns:xlink="http://www.w3.org/1999/xlink" xml:space="preserve" xmlns:serif="http://www.serif.com/" style="fill-rule:evenodd;clip-rule:evenodd;stroke-linejoin:round;stroke-miterlimit:2;">
    <g transform="matrix(0.61151,0,0,0.61151,-30.3083,-78.2834)">
        <path d="M159.151,197.069C164.469,197.069 168.786,201.386 168.786,206.704C168.786,212.022 164.469,216.34 159.151,216.34C153.833,216.34 149.515,212.022 149.515,206.704C149.515,201.386 153.833,197.069 159.151,197.069ZM69.601,197.069C74.919,197.069 79.237,201.386 79.237,206.704C79.237,212.022 74.919,216.34 69.601,216.34C64.283,216.34 59.965,212.022 59.965,206.704C59.965,201.386 64.283,197.069 69.601,197.069ZM141.383,168.002C141.225,167.431 140.844,166.946 140.327,166.657C139.809,166.368 139.198,166.297 138.628,166.462C134.14,167.686 129.098,168.385 123.767,168.385C122.396,168.385 121.043,168.338 119.714,168.248C118.583,168.173 117.491,168.679 116.815,169.59C116.14,170.501 115.974,171.693 116.375,172.754C117.177,174.642 117.571,176.709 117.571,178.862C117.571,188.91 108.983,197.069 98.404,197.069C87.825,197.069 79.237,188.91 79.237,178.862C79.237,171.193 84.238,164.626 91.31,161.945C92.277,161.569 93.012,160.761 93.293,159.762C93.573,158.763 93.368,157.69 92.738,156.866C91.04,154.564 90.085,152.056 90.085,149.423C90.085,138.957 105.177,130.461 123.767,130.461C142.357,130.461 157.45,138.957 157.45,149.423C157.45,153.734 154.888,157.712 150.574,160.9C150.359,161.058 150.297,161.352 150.43,161.583C152.207,164.722 153.062,168.075 152.923,171.659L152.923,178.937C152.923,182.496 150.516,185.381 147.547,185.381L147.546,185.381C144.394,185.381 141.84,182.319 141.84,178.541L141.84,173.497L141.825,171.659C141.873,170.412 141.713,169.193 141.383,168.002ZM67.338,170.063L50.82,170.063L50.82,185.381L67.338,185.381L67.338,170.063Z" style="fill:white;"/>
    </g>
    <g transform="matrix(0.61151,0,0,0.61151,-30.3083,-78.2834)">
        <path d="M61.433,198.897C59.198,201.079 58.081,203.708 58.081,206.782C58.081,209.856 59.197,212.489 61.432,214.679C63.662,216.864 66.363,217.958 69.538,217.958C72.712,217.958 75.414,216.864 77.644,214.679C79.879,212.489 80.994,209.856 80.994,206.782C80.994,203.708 79.878,201.079 77.643,198.897C75.413,196.721 72.712,195.632 69.538,195.632C66.364,195.632 63.662,196.721 61.433,198.897ZM151.014,198.897C148.779,201.079 147.662,203.708 147.662,206.782C147.662,209.856 148.778,212.489 151.013,214.679C153.243,216.864 155.944,217.958 159.119,217.958C162.294,217.958 164.995,216.864 167.225,214.679C169.46,212.489 170.575,209.856 170.575,206.782C170.575,203.708 169.459,201.079 167.224,198.897C164.995,196.721 162.293,195.632 159.119,195.632C155.945,195.632 153.243,196.721 151.014,198.897ZM116.253,207.098L108.8,214.551C108.474,214.876 108.474,215.404 108.8,215.729C109.125,216.055 109.653,216.055 109.978,215.729L117.752,207.956C117.853,207.875 117.949,207.753 118.012,207.576L118.114,207.287C118.227,206.983 118.152,206.64 117.922,206.41L110.087,198.574C109.761,198.249 109.233,198.249 108.908,198.574C108.583,198.9 108.583,199.428 108.908,199.753L116.253,207.098ZM63.139,213.005C61.372,211.288 60.488,209.219 60.488,206.795C60.488,204.372 61.372,202.302 63.139,200.585C64.911,198.862 67.045,198.002 69.538,198.002C72.031,198.002 74.164,198.862 75.937,200.585C77.703,202.302 78.588,204.372 78.588,206.795C78.588,209.219 77.703,211.288 75.937,213.005C74.164,214.728 72.031,215.589 69.538,215.589C67.045,215.589 64.911,214.728 63.139,213.005ZM152.72,213.005C150.953,211.288 150.069,209.219 150.069,206.795C150.069,204.372 150.953,202.302 152.72,200.585C154.493,198.862 156.626,198.002 159.119,198.002C161.612,198.002 163.745,198.862 165.518,200.585C167.285,202.302 168.169,204.372 168.169,206.795C168.169,209.219 167.285,211.288 165.518,213.005C163.745,214.728 161.612,215.589 159.119,215.589C156.626,215.589 154.493,214.728 152.72,213.005ZM64.375,201.742C62.93,203.146 62.21,204.831 62.21,206.795C62.21,208.76 62.931,210.441 64.376,211.837C65.815,213.225 67.535,213.92 69.538,213.92C71.54,213.92 73.261,213.225 74.7,211.837C76.145,210.441 76.866,208.76 76.866,206.795C76.866,204.831 76.146,203.146 74.701,201.742C73.262,200.343 71.541,199.644 69.538,199.644C67.535,199.644 65.814,200.343 64.375,201.742ZM153.956,201.742C152.511,203.146 151.791,204.831 151.791,206.795C151.791,208.76 152.512,210.441 153.957,211.837C155.396,213.225 157.116,213.92 159.119,213.92C161.121,213.92 162.842,213.225 164.281,211.837C165.726,210.441 166.447,208.76 166.447,206.795C166.447,204.831 165.727,203.146 164.282,201.742C162.843,200.343 161.122,199.644 159.119,199.644C157.116,199.644 155.395,200.343 153.956,201.742ZM66.053,210.147C65.096,209.217 64.616,208.095 64.616,206.782C64.616,205.469 65.096,204.348 66.053,203.417C67.016,202.481 68.178,202.014 69.538,202.014C70.898,202.014 72.06,202.481 73.023,203.417C73.98,204.348 74.46,205.469 74.46,206.782C74.46,208.095 73.98,209.217 73.023,210.147C72.06,211.083 70.898,211.55 69.538,211.55C68.178,211.55 67.016,211.083 66.053,210.147ZM155.634,210.147C154.677,209.217 154.197,208.095 154.197,206.782C154.197,205.469 154.677,204.348 155.634,203.417C156.597,202.481 157.759,202.014 159.119,202.014C160.479,202.014 161.641,202.481 162.604,203.417C163.561,204.348 164.041,205.469 164.041,206.782C164.041,208.095 163.561,209.217 162.604,210.147C161.641,211.083 160.479,211.55 159.119,211.55C157.759,211.55 156.597,211.083 155.634,210.147ZM86.316,207.197L103.602,207.197C104.178,207.197 104.647,206.728 104.647,206.152C104.647,205.575 104.178,205.107 103.602,205.107L86.316,205.107C85.74,205.107 85.272,205.575 85.272,206.152C85.272,206.728 85.74,207.197 86.316,207.197ZM131.966,205.319L121.425,205.319C120.965,205.319 120.592,205.692 120.592,206.152C120.592,206.612 120.965,206.985 121.425,206.985L132.506,206.985C132.506,206.985 132.653,207.005 132.871,206.901L133.149,206.768C133.435,206.636 133.633,206.347 133.633,206.012L133.633,194.931C133.633,194.472 133.259,194.098 132.799,194.098C132.339,194.098 131.966,194.472 131.966,194.931L131.966,205.319ZM125.301,178.664L125.301,189.204C125.301,189.664 125.675,190.038 126.134,190.038C126.594,190.038 126.968,189.664 126.968,189.204L126.968,178.123C126.968,178.123 126.988,177.977 126.884,177.758L126.751,177.48C126.619,177.195 126.33,176.997 125.995,176.997L114.914,176.997C114.454,176.997 114.081,177.37 114.081,177.83C114.081,178.29 114.454,178.664 114.914,178.664L125.301,178.664ZM81.438,168.602C78.839,171.854 77.498,175.118 77.462,178.369C77.425,181.636 78.699,184.917 81.456,188.184C81.852,188.652 82.554,188.712 83.022,188.316C83.491,187.92 83.55,187.219 83.155,186.75C80.8,183.96 79.653,181.184 79.684,178.394C79.716,175.588 80.931,172.796 83.173,169.99C83.556,169.511 83.478,168.811 82.999,168.428C82.52,168.045 81.82,168.123 81.438,168.602ZM68.621,169.296C68.621,168.606 68.062,168.046 67.371,168.046L50.813,168.046C50.122,168.046 49.563,168.606 49.563,169.296L49.563,185.855C49.563,186.545 50.122,187.105 50.813,187.105L67.371,187.105C68.062,187.105 68.621,186.545 68.621,185.855L68.621,169.296ZM140.795,170.34L140.795,178.819C140.795,183.221 143.873,186.703 147.546,186.703L147.547,186.703C151.037,186.703 153.968,183.398 153.968,179.215L153.968,170.34C153.968,169.764 153.5,169.296 152.923,169.296C152.347,169.296 151.879,169.764 151.879,170.34L151.879,179.214C151.879,182.15 149.996,184.614 147.547,184.614L147.546,184.614C144.914,184.614 142.884,181.973 142.884,178.819L142.884,170.34C142.884,169.764 142.416,169.296 141.84,169.296C141.263,169.296 140.795,169.764 140.795,170.34ZM66.121,170.546L66.121,184.605L52.063,184.605L52.063,170.546L66.121,170.546ZM96.711,174.484C100.765,176.925 105.647,180.793 108.414,183.52C108.96,184.058 109.84,184.052 110.378,183.506C110.916,182.96 110.91,182.08 110.364,181.542C107.474,178.694 102.378,174.654 98.143,172.104C97.487,171.709 96.633,171.921 96.237,172.578C95.842,173.234 96.054,174.088 96.711,174.484ZM145.591,160.516L145.703,160.516C146.031,160.509 146.31,160.4 146.541,160.193C146.792,159.969 146.916,159.695 146.916,159.374L146.916,155.529C146.916,155.212 146.795,154.935 146.546,154.702C146.306,154.477 146.015,154.362 145.671,154.362L144.634,154.362L144.634,139.191C144.634,138.87 144.51,138.596 144.259,138.371C144.02,138.157 143.731,138.048 143.389,138.048L133.805,138.048C133.46,138.048 133.173,138.159 132.943,138.376C132.705,138.599 132.587,138.871 132.587,139.191L132.587,139.984C132.587,142.415 132.57,144.258 132.534,145.514C132.498,146.768 132.449,147.919 132.386,148.965C132.326,149.981 132.199,150.769 131.999,151.327C131.8,151.887 131.583,152.373 131.348,152.785C131.113,153.198 130.752,153.724 130.265,154.362L129.831,154.362C129.488,154.362 129.197,154.477 128.957,154.702C128.708,154.935 128.587,155.212 128.587,155.529L128.587,159.374C128.587,159.695 128.71,159.969 128.961,160.193C129.2,160.407 129.49,160.516 129.831,160.516L129.944,160.516C130.271,160.509 130.55,160.4 130.782,160.193C131.033,159.969 131.156,159.695 131.156,159.374L131.156,156.576L144.347,156.576L144.347,159.374C144.347,159.695 144.47,159.969 144.721,160.193C144.96,160.407 145.249,160.516 145.591,160.516ZM153.239,141.011C155.481,143.816 156.697,146.609 156.728,149.415C156.76,152.205 155.613,154.981 153.258,157.771C152.862,158.24 152.922,158.941 153.39,159.337C153.859,159.733 154.56,159.673 154.956,159.205C157.714,155.937 158.987,152.657 158.951,149.39C158.914,146.139 157.573,142.875 154.975,139.623C154.592,139.144 153.892,139.066 153.413,139.449C152.934,139.832 152.856,140.532 153.239,141.011ZM92.533,139.623C89.935,142.875 88.594,146.139 88.557,149.39C88.521,152.657 89.794,155.937 92.552,159.205C92.947,159.673 93.649,159.733 94.118,159.337C94.586,158.941 94.646,158.24 94.25,157.771C91.895,154.981 90.748,152.205 90.779,149.415C90.811,146.609 92.027,143.816 94.269,141.011C94.652,140.532 94.574,139.832 94.095,139.449C93.616,139.066 92.916,139.144 92.533,139.623ZM133.474,154.362C134.318,153.012 134.823,151.678 134.993,150.363C135.171,148.986 135.262,145.619 135.264,140.261L141.877,140.261L141.877,154.362L133.474,154.362ZM116.137,139.102L120.025,143.084C120.453,143.523 121.157,143.532 121.596,143.103C122.035,142.675 122.043,141.971 121.615,141.532L117.727,137.55C117.299,137.111 116.595,137.102 116.156,137.531C115.717,137.959 115.709,138.663 116.137,139.102Z" style="fill-opacity:0.9;fill-rule:nonzero;"/>
    </g>
</svg>
