<?xml version="1.0" encoding="UTF-8" standalone="no"?>
<!DOCTYPE svg PUBLIC "-//W3C//DTD SVG 1.1//EN" "http://www.w3.org/Graphics/SVG/1.1/DTD/svg11.dtd">
<svg width="69px" height="64px" version="1.1" xmlns="http://www.w3.org/2000/svg" xmlns:xlink="http://www.w3.org/1999/xlink" xml:space="preserve" xmlns:serif="http://www.serif.com/" style="fill-rule:evenodd;clip-rule:evenodd;stroke-linejoin:round;stroke-miterlimit:2;">
    <g transform="matrix(0.600076,0,0,0.585122,-31.5162,-64.8912)">
        <path d="M91.033,160.541C91.383,160.073 91.52,159.473 91.407,158.895C91.294,158.316 90.944,157.816 90.445,157.522C82.389,152.704 77.225,145.341 77.225,137.091C77.225,122.637 93.079,110.902 112.607,110.902C132.134,110.902 147.988,122.637 147.988,137.091C147.988,142.741 145.566,147.975 141.451,152.255C139.651,154.156 139.568,157.153 141.258,159.157C144.336,162.754 146.132,167.061 146.132,171.69C146.132,184.236 132.94,194.422 116.691,194.422C100.442,194.422 87.25,184.236 87.25,171.69C87.25,167.64 88.624,163.836 91.033,160.541Z" style="fill:white;"/>
    </g>
    <g transform="matrix(0.600076,0,0,0.600076,-31.4365,-67.0723)">
        <path d="M104.236,195.352L91.946,216.704C91.63,217.253 91.819,217.957 92.369,218.273C92.919,218.589 93.622,218.4 93.938,217.85L106.228,196.498C106.545,195.949 106.355,195.246 105.806,194.929C105.256,194.613 104.553,194.802 104.236,195.352ZM132.412,202.091C136.412,205.283 141.096,210.119 143.675,213.434C144.146,214.039 145.019,214.148 145.624,213.678C146.229,213.207 146.338,212.334 145.867,211.729C143.182,208.278 138.308,203.242 134.144,199.92C133.545,199.442 132.67,199.54 132.192,200.139C131.714,200.739 131.812,201.613 132.412,202.091ZM90.928,159.96C87.877,164.089 86.3,168.23 86.257,172.359C86.214,176.509 87.713,180.67 90.951,184.82C91.448,185.456 92.368,185.57 93.004,185.073C93.64,184.576 93.754,183.657 93.257,183.02C90.489,179.473 89.145,175.937 89.182,172.39C89.219,168.821 90.644,165.266 93.281,161.698C93.76,161.049 93.623,160.132 92.973,159.652C92.324,159.173 91.408,159.31 90.928,159.96ZM140.279,161.698C142.916,165.266 144.341,168.821 144.378,172.39C144.415,175.937 143.071,179.473 140.303,183.02C139.806,183.657 139.92,184.576 140.556,185.073C141.192,185.57 142.112,185.456 142.609,184.82C145.847,180.67 147.346,176.509 147.303,172.359C147.26,168.23 145.683,164.089 142.632,159.96C142.152,159.31 141.236,159.173 140.587,159.652C139.937,160.132 139.8,161.049 140.279,161.698ZM120.277,152.115L120.408,152.114C120.782,152.107 121.101,151.981 121.366,151.741C121.649,151.484 121.789,151.171 121.789,150.803L121.789,146.209C121.789,145.845 121.652,145.528 121.37,145.261C121.096,145.001 120.764,144.869 120.372,144.869L119.098,144.869L119.098,126.686C119.098,126.318 118.958,126.005 118.674,125.748C118.401,125.5 118.07,125.374 117.68,125.374L106.375,125.374C105.981,125.374 105.654,125.502 105.392,125.752C105.123,126.008 104.989,126.32 104.989,126.686L104.989,127.633C104.989,130.539 104.968,132.742 104.926,134.243C104.884,135.743 104.826,137.118 104.752,138.369C104.68,139.59 104.529,140.536 104.292,141.207C104.056,141.88 103.799,142.463 103.521,142.958C103.241,143.455 102.812,144.088 102.233,144.856C102.223,144.867 102.21,144.869 102.195,144.869L101.689,144.869C101.297,144.869 100.964,145.001 100.69,145.261C100.409,145.528 100.271,145.845 100.271,146.209L100.271,150.803C100.271,151.171 100.411,151.484 100.694,151.741C100.968,151.989 101.298,152.115 101.689,152.115L101.82,152.114C102.194,152.107 102.513,151.981 102.778,151.741C103.061,151.484 103.201,151.171 103.201,150.803L103.201,147.406L118.859,147.406L118.859,150.803C118.859,151.171 118.999,151.484 119.283,151.741C119.556,151.989 119.886,152.115 120.277,152.115ZM79.581,124.783C76.531,128.912 74.953,133.053 74.91,137.182C74.867,141.332 76.366,145.494 79.604,149.643C80.101,150.279 81.021,150.393 81.657,149.896C82.294,149.4 82.407,148.48 81.91,147.844C79.142,144.296 77.798,140.761 77.835,137.213C77.872,133.645 79.297,130.089 81.934,126.521C82.413,125.872 82.276,124.955 81.626,124.476C80.977,123.996 80.061,124.134 79.581,124.783ZM142.472,126.521C145.109,130.089 146.534,133.645 146.571,137.213C146.608,140.761 145.264,144.296 142.496,147.844C141.999,148.48 142.113,149.4 142.749,149.896C143.385,150.393 144.305,150.279 144.802,149.643C148.04,145.494 149.539,141.332 149.496,137.182C149.453,133.053 147.876,128.912 144.825,124.783C144.345,124.134 143.429,123.996 142.78,124.476C142.13,124.955 141.993,125.872 142.472,126.521ZM162.362,128.019C161.015,135.341 158.868,140.137 153.783,145.243C153.335,145.692 153.337,146.42 153.786,146.868C154.235,147.316 154.963,147.314 155.411,146.865C160.856,141.398 163.18,136.274 164.622,128.435C164.737,127.811 164.323,127.212 163.7,127.097C163.076,126.982 162.476,127.396 162.362,128.019ZM55.642,133.16C59.642,136.351 64.326,141.188 66.905,144.503C67.376,145.108 68.25,145.217 68.855,144.746C69.46,144.276 69.568,143.402 69.098,142.797C66.413,139.346 61.538,134.31 57.374,130.989C56.775,130.511 55.9,130.609 55.422,131.208C54.944,131.807 55.043,132.682 55.642,133.16ZM105.891,144.869C106.914,143.234 107.524,141.62 107.727,140.028C107.938,138.379 108.045,134.34 108.046,127.911L115.946,127.911L115.946,144.869L105.891,144.869ZM86.101,124.674L89.989,128.656C90.553,129.234 91.479,129.245 92.057,128.681C92.635,128.117 92.646,127.191 92.082,126.613L88.194,122.63C87.63,122.053 86.704,122.042 86.126,122.605C85.549,123.169 85.537,124.096 86.101,124.674ZM135.727,122.63L131.84,126.613C131.276,127.191 131.287,128.117 131.865,128.681C132.442,129.245 133.369,129.234 133.933,128.656L137.82,124.674C138.384,124.096 138.373,123.169 137.795,122.605C137.218,122.042 136.291,122.053 135.727,122.63Z"/>
    </g>
</svg>
