<?xml version="1.0" encoding="UTF-8" standalone="no"?>
<!DOCTYPE svg PUBLIC "-//W3C//DTD SVG 1.1//EN" "http://www.w3.org/Graphics/SVG/1.1/DTD/svg11.dtd">
<svg width="71px" height="53px" version="1.1" xmlns="http://www.w3.org/2000/svg" xmlns:xlink="http://www.w3.org/1999/xlink" xml:space="preserve" xmlns:serif="http://www.serif.com/" style="fill-rule:evenodd;clip-rule:evenodd;stroke-linejoin:round;stroke-miterlimit:2;">
    <g transform="matrix(0.595452,0,0,0.595452,-29.9798,-76.5442)">
        <path d="M96.561,196.556C102.235,196.556 106.842,200.994 106.842,206.461C106.842,211.928 102.235,216.366 96.561,216.366C90.887,216.366 86.28,211.928 86.28,206.461C86.28,200.994 90.887,196.556 96.561,196.556ZM82.113,164.913C82.533,164.913 82.898,164.625 82.996,164.217C83.095,163.809 82.901,163.387 82.528,163.195C75.535,159.622 71.082,154.19 71.082,148.114C71.082,137.315 85.153,128.548 102.486,128.548C119.818,128.548 133.89,137.315 133.89,148.114C133.89,154.19 129.436,159.622 122.453,163.212C122.087,163.4 121.897,163.813 121.993,164.213C122.09,164.613 122.447,164.894 122.858,164.894C128.295,164.913 136.988,164.913 136.988,164.913C137.476,164.913 137.944,165.107 138.289,165.452C138.634,165.797 138.828,166.265 138.828,166.753L138.828,191.164C138.828,191.945 138.517,192.695 137.964,193.248C137.411,193.801 136.662,194.111 135.88,194.111L57.242,194.111C56.46,194.111 55.711,193.801 55.158,193.248C54.605,192.695 54.294,191.945 54.294,191.164L54.294,166.753C54.294,166.265 54.488,165.797 54.833,165.452C55.178,165.107 55.646,164.913 56.134,164.913L82.113,164.913Z" style="fill:white;"/>
    </g>
    <g transform="matrix(0.595452,0,0,0.595452,-29.9798,-76.5442)">
        <path d="M88.485,198.69C86.273,200.85 85.168,203.451 85.168,206.494C85.168,209.536 86.272,212.142 88.484,214.31C90.691,216.473 93.364,217.556 96.506,217.556C99.648,217.556 102.322,216.473 104.529,214.31C106.741,212.142 107.845,209.536 107.845,206.494C107.845,203.451 106.74,200.85 104.528,198.69C102.321,196.537 99.648,195.459 96.506,195.459C93.365,195.459 90.691,196.537 88.485,198.69ZM90.181,212.646C88.435,210.948 87.56,208.903 87.56,206.507C87.56,204.111 88.435,202.066 90.181,200.368C91.933,198.666 94.042,197.815 96.506,197.815C98.971,197.815 101.08,198.666 102.832,200.368C104.578,202.066 105.453,204.111 105.453,206.507C105.453,208.903 104.578,210.948 102.832,212.646C101.08,214.349 98.971,215.199 96.506,215.199C94.042,215.199 91.933,214.349 90.181,212.646ZM91.395,201.504C89.964,202.894 89.251,204.563 89.251,206.507C89.251,208.452 89.965,210.117 91.396,211.498C92.821,212.873 94.524,213.561 96.506,213.561C98.489,213.561 100.192,212.873 101.616,211.498C103.048,210.117 103.761,208.452 103.761,206.507C103.761,204.563 103.048,202.894 101.618,201.504C100.193,200.12 98.489,199.427 96.506,199.427C94.523,199.427 92.82,200.12 91.395,201.504ZM93.063,209.818C92.118,208.899 91.644,207.791 91.644,206.494C91.644,205.197 92.118,204.089 93.063,203.17C94.015,202.245 95.163,201.784 96.506,201.784C97.85,201.784 98.998,202.245 99.949,203.17C100.895,204.089 101.369,205.197 101.369,206.494C101.369,207.792 100.895,208.899 99.949,209.818C98.998,210.743 97.85,211.204 96.506,211.204C95.163,211.204 94.015,210.743 93.063,209.818ZM59.268,194.935L82.335,194.935C82.912,194.935 83.38,194.466 83.38,193.89C83.38,193.313 82.912,192.845 82.335,192.845L59.268,192.845C58.692,192.845 58.224,193.313 58.224,193.89C58.224,194.466 58.692,194.935 59.268,194.935ZM111.708,194.935L134.775,194.935C135.352,194.935 135.82,194.466 135.82,193.89C135.82,193.313 135.352,192.845 134.775,192.845L111.708,192.845C111.131,192.845 110.663,193.313 110.663,193.89C110.663,194.466 111.131,194.935 111.708,194.935ZM137.509,165.181L137.509,190.066C137.509,190.679 138.007,191.177 138.621,191.177C139.234,191.177 139.732,190.679 139.732,190.066L139.732,165.181C139.732,164.567 139.234,164.07 138.621,164.07C138.007,164.07 137.509,164.567 137.509,165.181ZM53.577,165.181L53.577,190.066C53.577,190.679 54.075,191.177 54.688,191.177C55.302,191.177 55.799,190.679 55.799,190.066L55.799,165.181C55.799,164.567 55.302,164.07 54.688,164.07C54.075,164.07 53.577,164.567 53.577,165.181ZM143.147,178.668L166.214,178.668C166.79,178.668 167.258,178.2 167.258,177.623C167.258,177.047 166.79,176.579 166.214,176.579L143.147,176.579C142.57,176.579 142.102,177.047 142.102,177.623C142.102,178.2 142.57,178.668 143.147,178.668ZM59.268,166.225L134.775,166.225C135.352,166.225 135.82,165.757 135.82,165.181C135.82,164.604 135.352,164.136 134.775,164.136L59.268,164.136C58.692,164.136 58.224,164.604 58.224,165.181C58.224,165.757 58.692,166.225 59.268,166.225ZM109.254,161.144L109.366,161.143C109.694,161.137 109.973,161.028 110.204,160.821C110.455,160.596 110.578,160.322 110.578,160.001L110.578,156.157C110.578,155.839 110.457,155.562 110.209,155.329C109.969,155.104 109.677,154.99 109.334,154.99L108.296,154.99L108.296,139.818C108.296,139.497 108.173,139.223 107.922,138.998C107.683,138.785 107.394,138.675 107.052,138.675L97.468,138.675C97.122,138.675 96.836,138.787 96.606,139.003C96.368,139.227 96.25,139.499 96.25,139.818L96.25,140.611C96.25,143.042 96.232,144.886 96.196,146.141C96.161,147.396 96.112,148.546 96.049,149.593C95.989,150.609 95.861,151.396 95.662,151.955C95.462,152.514 95.246,153 95.011,153.412C94.776,153.826 94.414,154.351 93.928,154.99L93.494,154.99C93.151,154.99 92.86,155.104 92.619,155.329C92.371,155.562 92.25,155.839 92.25,156.157L92.25,160.001C92.25,160.322 92.373,160.596 92.624,160.821C92.863,161.035 93.153,161.144 93.494,161.144L93.606,161.143C93.934,161.137 94.213,161.028 94.444,160.821C94.696,160.596 94.819,160.322 94.819,160.001L94.819,157.203L108.009,157.203L108.009,160.001C108.009,160.322 108.133,160.596 108.384,160.821C108.623,161.035 108.912,161.144 109.254,161.144ZM74.287,138.277C71.705,141.711 70.368,145.155 70.331,148.589C70.295,152.039 71.565,155.499 74.305,158.948C74.686,159.429 75.386,159.509 75.866,159.127C76.346,158.746 76.426,158.047 76.045,157.566C73.672,154.578 72.522,151.601 72.553,148.613C72.585,145.609 73.804,142.616 76.063,139.612C76.431,139.122 76.333,138.425 75.843,138.056C75.352,137.688 74.655,137.787 74.287,138.277ZM129.022,139.612C131.28,142.616 132.5,145.609 132.531,148.613C132.563,151.601 131.413,154.578 129.04,157.566C128.659,158.047 128.739,158.746 129.219,159.127C129.699,159.509 130.399,159.429 130.78,158.948C133.52,155.499 134.79,152.039 134.754,148.589C134.717,145.155 133.38,141.711 130.798,138.277C130.43,137.787 129.732,137.688 129.242,138.056C128.752,138.425 128.653,139.122 129.022,139.612ZM144.813,140.868C143.557,147.701 141.553,152.179 136.806,156.945C136.359,157.394 136.36,158.122 136.81,158.57C137.259,159.017 137.987,159.016 138.435,158.567C143.542,153.44 145.722,148.635 147.074,141.283C147.188,140.659 146.775,140.06 146.151,139.945C145.528,139.831 144.928,140.244 144.813,140.868ZM97.137,154.99C97.981,153.639 98.486,152.306 98.656,150.99C98.834,149.613 98.925,146.246 98.927,140.889L105.539,140.889L105.539,154.99L97.137,154.99ZM53.213,145.505C57.286,147.958 62.189,151.842 64.968,154.582C65.405,155.012 66.109,155.007 66.539,154.57C66.97,154.134 66.965,153.43 66.528,152.999C63.65,150.163 58.576,146.14 54.359,143.601C53.834,143.285 53.151,143.455 52.834,143.98C52.518,144.506 52.688,145.189 53.213,145.505ZM122.446,137.177L118.559,141.16C118.13,141.598 118.139,142.302 118.578,142.731C119.016,143.159 119.72,143.151 120.149,142.712L124.037,138.729C124.465,138.29 124.456,137.586 124.018,137.158C123.579,136.73 122.875,136.738 122.446,137.177ZM80.322,138.729L84.21,142.712C84.638,143.151 85.342,143.159 85.781,142.731C86.22,142.302 86.228,141.598 85.8,141.16L81.912,137.177C81.484,136.738 80.78,136.73 80.341,137.158C79.902,137.586 79.894,138.29 80.322,138.729Z" style="fill-opacity:0.9;fill-rule:nonzero;"/>
    </g>
</svg>
