<?xml version="1.0" encoding="UTF-8" standalone="no"?>
<!DOCTYPE svg PUBLIC "-//W3C//DTD SVG 1.1//EN" "http://www.w3.org/Graphics/SVG/1.1/DTD/svg11.dtd">
<svg width="120px" height="120px" version="1.1" xmlns="http://www.w3.org/2000/svg" xmlns:xlink="http://www.w3.org/1999/xlink" xml:space="preserve" xmlns:serif="http://www.serif.com/" style="fill-rule:evenodd;clip-rule:evenodd;stroke-linejoin:round;stroke-miterlimit:2;">
    <g transform="matrix(-3.08979e-17,-0.504602,-0.585966,3.58801e-17,379.183,307.202)">
        <path d="M497.982,586.474C500.245,588.279 503.546,591.555 505.724,594.353C507.197,597.947 515.05,606.292 507.107,614.286C507.918,617.306 507.407,619.829 504.836,621.576C502.418,623.042 499.917,623.387 496.611,628.065C494.407,631.996 492.594,637.533 492.727,645.164C492.731,645.823 493.227,646.404 493.955,646.605C494.683,646.806 495.478,646.581 495.926,646.048C499.081,642.361 503.536,638.993 507.939,638.3C519.243,634.309 530.721,629.122 542.541,621.576C547.264,618.512 551.4,617.466 557.502,617.234C557.502,617.234 565.437,616.422 569.652,615.991C571.113,615.841 572.214,614.774 572.214,613.507L572.214,613.505C572.214,612.296 571.094,611.307 569.69,611.277C565.485,611.186 557.502,611.014 557.502,611.014C551.4,610.782 547.264,609.736 542.541,606.672L534.66,597.104L530.698,589.355C528.52,586.557 525.218,583.281 522.956,581.476C517.76,573.164 516.912,566.918 518.593,561.874L532.258,555.933L518.593,549.991C520.064,541.973 520.308,533.338 518.593,523.718L532.258,517.777L518.593,511.836C518.107,507.957 518.588,504.079 520.236,500.2C523.079,495.329 526.658,493.548 532.633,492.607C537.542,491.405 541.228,487.496 544.32,482.272C547.163,477.401 551.939,476.1 555.356,475.475C558.297,474.938 562.753,477.77 564.821,478.527C565.36,478.724 567.104,478.894 568.736,479.017C569.542,479.133 570.366,478.938 570.989,478.484C571.612,478.03 571.972,477.363 571.972,476.66C571.992,476.626 571.992,476.592 571.992,476.559C571.992,475.561 571.277,474.667 570.195,474.31C568.24,473.776 565.334,472.906 564.73,472.443C563.397,471.423 562.172,469.739 560.325,468.006C558.374,466.175 556.357,465.315 553.916,463.836C545.665,458.836 547.759,452.818 529.86,454.403C526.999,454.656 527.982,446.712 509.897,446.633C504.572,442.968 497.559,443.141 491.894,446.344C491.468,446.588 491.215,447.002 491.224,447.443C491.234,447.884 491.503,448.291 491.939,448.522C493.968,449.606 496.92,451.167 496.92,451.167C499.182,452.972 502.484,456.248 504.662,459.046C517.422,460.829 513.807,486.615 501.841,494.921C500.907,495.57 493.274,496.764 492.134,498.598C489.403,500.752 487.077,503.489 485.088,506.708C478.276,513.89 471.411,521.034 462.101,526.495C456.18,530.569 450.259,530.798 444.338,526.495C433.332,518.494 425.439,517.115 419.451,522.178C420.363,521.529 411.764,526.191 403.533,532.045C394.414,538.531 382.862,544.135 380.139,543.987C375.192,544.893 372.478,548.044 372.107,553.07C378.776,553.426 385.497,553.738 393.167,553.232C395.09,553.1 396.925,552.484 398.444,551.46C402.17,548.919 406.475,547.705 411.551,546.901C415.361,548.117 418.992,547.383 420.628,546.727C426.549,542.424 431.292,543.433 437.213,547.507C444.795,550.046 445.518,548.936 448.727,550.552C451.937,552.169 453.427,555.141 456.47,557.206C462.465,561.276 465.457,560.902 470.791,564.01C478.197,568.325 484.796,579.942 497.982,586.474Z" style="fill:white;"/>
    </g>
    <g transform="matrix(0.619068,0,0,0.619068,-8.08557,-15.3512)">
        <path d="M103.481,216.565L103.481,205.628C103.481,205.392 103.366,205.185 103.112,205.02C102.898,204.88 102.639,204.808 102.332,204.808C102.029,204.808 101.766,204.879 101.544,205.017C101.277,205.182 101.158,205.392 101.158,205.628L101.158,217.846C101.158,218.082 101.277,218.291 101.544,218.456C101.772,218.598 102.031,218.657 102.322,218.631C104.595,218.481 106.512,217.78 108.075,216.533C109.64,215.284 110.711,213.522 111.28,211.244C111.281,211.241 111.282,211.237 111.282,211.233C111.331,210.98 111.253,210.752 111.035,210.555C110.854,210.391 110.623,210.275 110.341,210.21C110.338,210.209 110.335,210.208 110.332,210.208C110.049,210.155 109.78,210.179 109.527,210.278C109.227,210.395 109.069,210.57 109.021,210.772C108.614,212.392 107.907,213.707 106.897,214.711C105.921,215.681 104.783,216.299 103.481,216.565ZM106.779,185.368C105.926,190.005 104.57,193.045 101.349,196.279C100.902,196.728 100.903,197.456 101.353,197.904C101.802,198.352 102.53,198.35 102.978,197.901C106.559,194.306 108.091,190.938 109.039,185.783C109.154,185.159 108.74,184.56 108.117,184.445C107.493,184.331 106.893,184.744 106.779,185.368ZM123.458,186.073C122.642,190.542 121.116,193.232 116.886,195.358C116.319,195.643 116.091,196.335 116.375,196.901C116.66,197.468 117.352,197.697 117.918,197.412C122.91,194.903 124.755,191.76 125.719,186.487C125.833,185.863 125.419,185.264 124.796,185.15C124.172,185.036 123.573,185.45 123.458,186.073ZM130.441,165.352C132.192,167.543 133.148,169.72 133.172,171.91C133.197,174.084 132.296,176.245 130.46,178.42C130.065,178.888 130.124,179.59 130.593,179.986C131.061,180.381 131.763,180.322 132.158,179.853C134.397,177.202 135.424,174.537 135.394,171.885C135.365,169.249 134.284,166.601 132.177,163.965C131.795,163.486 131.095,163.408 130.616,163.791C130.137,164.174 130.059,164.873 130.441,165.352ZM106.467,165.352C108.217,167.543 109.173,169.72 109.198,171.91C109.222,174.084 108.321,176.245 106.486,178.42C106.09,178.888 106.15,179.59 106.618,179.986C107.087,180.381 107.788,180.322 108.184,179.853C110.422,177.202 111.45,174.537 111.42,171.885C111.39,169.249 110.309,166.601 108.203,163.965C107.82,163.486 107.12,163.408 106.641,163.791C106.162,164.174 106.084,164.873 106.467,165.352ZM126.356,143.679C124.25,146.315 123.169,148.963 123.139,151.599C123.109,154.251 124.137,156.915 126.375,159.567C126.771,160.036 127.472,160.095 127.941,159.699C128.409,159.304 128.469,158.602 128.073,158.134C126.238,155.959 125.337,153.798 125.361,151.624C125.386,149.434 126.342,147.257 128.092,145.066C128.475,144.587 128.397,143.887 127.918,143.505C127.439,143.122 126.739,143.2 126.356,143.679ZM97.536,149.885C100.115,151.614 103.134,154.233 104.797,156.028C105.214,156.478 105.918,156.505 106.367,156.088C106.817,155.671 106.844,154.968 106.428,154.518C104.674,152.625 101.492,149.862 98.773,148.039C98.264,147.698 97.573,147.834 97.231,148.344C96.89,148.853 97.026,149.544 97.536,149.885ZM133.45,138.123L146.687,126.47C147.147,126.065 147.192,125.362 146.787,124.902C146.382,124.441 145.679,124.397 145.219,124.802L131.982,136.455C131.522,136.86 131.477,137.563 131.882,138.023C132.287,138.484 132.99,138.528 133.45,138.123ZM92.449,136.455L79.212,124.802C78.752,124.397 78.049,124.441 77.644,124.902C77.239,125.362 77.284,126.065 77.744,126.47L90.981,138.123C91.441,138.528 92.144,138.484 92.549,138.023C92.954,137.563 92.909,136.86 92.449,136.455ZM102.678,116.835C101.45,116.835 100.453,117.832 100.453,119.06C100.453,120.288 101.45,121.285 102.678,121.285C103.906,121.285 104.903,120.288 104.903,119.06C104.903,117.832 103.906,116.835 102.678,116.835ZM145.581,116.835C144.353,116.835 143.356,117.832 143.356,119.06C143.356,120.288 144.353,121.285 145.581,121.285C146.809,121.285 147.806,120.288 147.806,119.06C147.806,117.832 146.809,116.835 145.581,116.835ZM79.445,104.72C77.338,107.356 76.257,110.005 76.228,112.641C76.198,115.292 77.225,117.957 79.464,120.609C79.859,121.077 80.561,121.137 81.029,120.741C81.498,120.345 81.557,119.644 81.162,119.175C79.326,117.001 78.425,114.84 78.45,112.666C78.474,110.475 79.43,108.298 81.181,106.108C81.563,105.629 81.485,104.929 81.006,104.546C80.527,104.163 79.827,104.241 79.445,104.72ZM152.761,106.108C154.511,108.298 155.467,110.475 155.492,112.666C155.516,114.84 154.615,117.001 152.78,119.175C152.384,119.644 152.444,120.345 152.912,120.741C153.381,121.137 154.082,121.077 154.478,120.609C156.716,117.957 157.744,115.292 157.714,112.641C157.684,110.005 156.603,107.356 154.497,104.72C154.114,104.241 153.414,104.163 152.935,104.546C152.456,104.929 152.378,105.629 152.761,106.108ZM201.948,106.108C203.698,108.298 204.654,110.475 204.678,112.666C204.703,114.84 203.802,117.001 201.966,119.175C201.571,119.644 201.63,120.345 202.099,120.741C202.567,121.137 203.269,121.077 203.665,120.609C205.903,117.957 206.93,115.292 206.9,112.641C206.871,110.005 205.79,107.356 203.683,104.72C203.301,104.241 202.601,104.163 202.122,104.546C201.643,104.929 201.565,105.629 201.948,106.108ZM102.678,118.501C102.987,118.501 103.237,118.751 103.237,119.06C103.237,119.368 102.987,119.618 102.678,119.618C102.37,119.618 102.12,119.368 102.12,119.06C102.12,118.751 102.37,118.501 102.678,118.501ZM145.581,118.501C145.89,118.501 146.14,118.751 146.14,119.06C146.14,119.368 145.89,119.618 145.581,119.618C145.273,119.618 145.023,119.368 145.023,119.06C145.023,118.751 145.273,118.501 145.581,118.501ZM20.266,106.803C19.449,111.271 17.924,113.962 13.694,116.088C13.127,116.373 12.899,117.064 13.183,117.631C13.468,118.197 14.159,118.426 14.726,118.141C19.717,115.632 21.563,112.489 22.527,107.216C22.641,106.592 22.227,105.993 21.603,105.879C20.98,105.765 20.38,106.179 20.266,106.803ZM138.647,113.458L129.898,113.458C129.285,113.458 128.787,112.96 128.787,112.347C128.787,111.733 129.285,111.236 129.898,111.236L138.735,111.236C138.283,110.165 137.12,109.424 135.788,109.423L129.898,109.423C129.275,109.423 128.768,108.917 128.768,108.294C128.768,107.67 129.275,107.164 129.898,107.164L135.788,107.164C137.574,107.164 139.143,107.97 140.124,109.204C140.97,110.268 141.195,111.314 141.195,112.226L141.195,112.227C141.195,115.128 138.682,117.53 135.526,117.53L129.898,117.53C129.275,117.53 128.768,117.023 128.768,116.4C128.768,115.776 129.275,115.27 129.898,115.27L135.526,115.27C136.905,115.27 138.114,114.535 138.647,113.458ZM112.755,113.458L121.504,113.458C122.117,113.458 122.615,112.96 122.615,112.347C122.615,111.733 122.117,111.236 121.504,111.236L112.667,111.236C113.119,110.165 114.282,109.424 115.614,109.423L121.504,109.423C122.127,109.423 122.634,108.917 122.634,108.294C122.634,107.67 122.127,107.164 121.504,107.164L115.614,107.164C113.828,107.164 112.259,107.97 111.278,109.204C110.432,110.268 110.207,111.314 110.207,112.226L110.207,112.227C110.207,115.128 112.72,117.53 115.876,117.53L121.504,117.53C122.127,117.53 122.634,117.023 122.634,116.4C122.634,115.776 122.127,115.27 121.504,115.27L115.876,115.27C114.497,115.27 113.288,114.535 112.755,113.458ZM190.447,110.604C193.026,112.332 196.046,114.951 197.709,116.747C198.125,117.197 198.829,117.224 199.279,116.807C199.729,116.39 199.756,115.687 199.339,115.237C197.586,113.344 194.403,110.58 191.684,108.758C191.175,108.417 190.484,108.553 190.143,109.062C189.801,109.572 189.938,110.263 190.447,110.604ZM62.375,109.738C64.954,111.466 67.974,114.085 69.636,115.88C70.053,116.33 70.757,116.357 71.207,115.941C71.657,115.524 71.683,114.82 71.267,114.37C69.513,112.477 66.331,109.714 63.612,107.892C63.103,107.55 62.412,107.687 62.071,108.196C61.729,108.706 61.866,109.396 62.375,109.738ZM36.293,108.45L33.668,113.684C33.41,114.199 33.618,114.827 34.134,115.086C34.649,115.344 35.277,115.136 35.536,114.62L38.161,109.387C38.419,108.872 38.21,108.244 37.695,107.985C37.18,107.727 36.551,107.935 36.293,108.45ZM31.14,108.45L28.516,113.684C28.257,114.199 28.466,114.827 28.981,115.086C29.496,115.344 30.125,115.136 30.383,114.62L33.008,109.387C33.266,108.872 33.058,108.244 32.542,107.985C32.027,107.727 31.399,107.935 31.14,108.45ZM59.299,106.82C56.663,104.713 54.014,103.632 51.378,103.603C48.727,103.573 46.062,104.6 43.41,106.838C42.942,107.234 42.882,107.936 43.278,108.404C43.674,108.873 44.375,108.932 44.844,108.537C47.018,106.701 49.179,105.8 51.353,105.825C53.544,105.849 55.721,106.805 57.911,108.556C58.39,108.938 59.09,108.86 59.473,108.381C59.856,107.902 59.778,107.202 59.299,106.82ZM165.067,104.244L162.644,106.726C162.216,107.165 162.224,107.869 162.663,108.297C163.102,108.726 163.806,108.717 164.234,108.279L166.658,105.796C167.086,105.357 167.077,104.653 166.639,104.225C166.2,103.796 165.496,103.805 165.067,104.244ZM186.377,102.588L170.286,102.588C169.673,102.588 169.175,103.086 169.175,103.7C169.175,104.313 169.673,104.811 170.286,104.811L186.377,104.811C186.99,104.811 187.488,104.313 187.488,103.7C187.488,103.086 186.99,102.588 186.377,102.588ZM175.3,83.888L175.3,99.979C175.3,100.593 175.798,101.091 176.412,101.091C177.025,101.091 177.523,100.593 177.523,99.979L177.523,83.888C177.523,83.275 177.025,82.777 176.412,82.777C175.798,82.777 175.3,83.275 175.3,83.888ZM45.912,83.888L45.912,99.979C45.912,100.593 46.41,101.091 47.023,101.091C47.637,101.091 48.134,100.593 48.134,99.979L48.134,83.888C48.134,83.275 47.637,82.777 47.023,82.777C46.41,82.777 45.912,83.275 45.912,83.888ZM105.976,97.825L100.352,86.687C100.163,86.312 99.779,86.076 99.36,86.076C98.941,86.076 98.557,86.312 98.368,86.687L92.745,97.825C92.468,98.373 92.688,99.042 93.236,99.318C93.783,99.594 94.452,99.374 94.729,98.827L99.36,89.653L103.992,98.827C104.268,99.374 104.937,99.594 105.484,99.318C106.032,99.042 106.252,98.373 105.976,97.825ZM142.091,97.825L136.467,86.687C136.278,86.312 135.895,86.076 135.475,86.076C135.056,86.076 134.673,86.312 134.484,86.687L128.86,97.825C128.584,98.373 128.804,99.042 129.351,99.318C129.899,99.594 130.568,99.374 130.844,98.827L135.475,89.653L140.107,98.827C140.383,99.374 141.052,99.594 141.6,99.318C142.147,99.042 142.367,98.373 142.091,97.825ZM30.474,86.347L24.241,97.706C23.946,98.244 24.143,98.92 24.681,99.215C25.219,99.51 25.895,99.313 26.19,98.775L32.422,87.416C32.717,86.878 32.52,86.202 31.982,85.907C31.445,85.612 30.769,85.809 30.474,86.347ZM118.513,96.362L118.513,86.395C118.513,85.782 118.015,85.284 117.402,85.284C116.789,85.284 116.291,85.782 116.291,86.395L116.291,96.362L112.396,96.362C111.783,96.362 111.285,96.86 111.285,97.473C111.285,98.086 111.783,98.584 112.396,98.584L122.408,98.584C123.021,98.584 123.519,98.086 123.519,97.473C123.519,96.86 123.021,96.362 122.408,96.362L118.513,96.362ZM158.169,86.675C157.352,91.143 155.826,93.834 151.596,95.96C151.03,96.245 150.801,96.936 151.086,97.503C151.371,98.069 152.062,98.298 152.629,98.013C157.62,95.504 159.466,92.361 160.43,87.088C160.544,86.464 160.13,85.865 159.506,85.751C158.882,85.637 158.283,86.051 158.169,86.675ZM193.372,90.065C195.95,91.794 198.97,94.412 200.633,96.208C201.05,96.658 201.753,96.685 202.203,96.268C202.653,95.851 202.68,95.148 202.264,94.698C200.51,92.805 197.328,90.042 194.609,88.219C194.1,87.878 193.409,88.014 193.067,88.524C192.726,89.033 192.862,89.724 193.372,90.065ZM67.106,89.382C69.684,91.11 72.704,93.729 74.367,95.525C74.784,95.974 75.488,96.001 75.937,95.585C76.387,95.168 76.414,94.464 75.998,94.015C74.244,92.121 71.062,89.358 68.343,87.536C67.834,87.195 67.143,87.331 66.801,87.84C66.46,88.35 66.596,89.04 67.106,89.382ZM57.815,84.799L60.238,87.282C60.667,87.721 61.371,87.729 61.81,87.301C62.248,86.872 62.257,86.168 61.828,85.729L59.405,83.247C58.977,82.808 58.273,82.8 57.834,83.228C57.395,83.656 57.387,84.36 57.815,84.799ZM121.532,76.446L119.107,76.091C118.708,76.019 118.431,75.939 118.298,75.794C118.187,75.675 118.146,75.506 118.146,75.297C118.146,75.026 118.241,74.79 118.429,74.587C119.028,73.937 120.147,73.481 121.764,73.172C122.344,73.352 122.965,73.443 123.628,73.443C124.204,73.443 124.629,73.266 124.918,72.954C125.134,72.72 125.225,72.478 125.225,72.244C125.225,72.01 125.134,71.769 124.918,71.535C124.79,71.396 124.596,71.275 124.324,71.192C124.017,71.098 123.589,71.046 123.038,71.046C122.3,71.046 121.732,70.994 121.334,70.882C121.144,70.829 121.002,70.772 120.92,70.683C120.69,70.434 120.572,70.151 120.572,69.831C120.572,69.552 120.694,69.294 120.92,69.049C121.287,68.652 121.871,68.404 122.66,68.274C123.375,68.552 124.003,68.687 124.545,68.687C125.324,68.687 125.81,68.51 126.032,68.269C126.248,68.035 126.34,67.793 126.34,67.559C126.34,67.303 126.255,67.092 126.098,66.921C125.736,66.53 125.053,66.29 124.021,66.29C123.638,66.29 123.33,66.269 123.099,66.226C122.966,66.201 122.867,66.19 122.82,66.14C122.803,66.121 122.8,66.096 122.8,66.068C122.8,66.007 122.792,65.957 122.82,65.926C122.869,65.873 122.965,65.849 123.093,65.816C123.302,65.762 123.577,65.726 123.916,65.705C123.916,65.705 124.312,65.698 124.754,65.69C125.049,65.685 125.326,65.549 125.51,65.319C125.694,65.089 125.767,64.789 125.707,64.501C125.698,64.457 125.69,64.414 125.681,64.372C125.586,63.907 125.174,63.575 124.699,63.58C124.181,63.586 123.608,63.592 123.608,63.592C122.474,63.646 121.618,64.009 121.027,64.649C120.8,64.894 120.654,65.314 120.654,65.926C120.654,66.278 120.737,66.59 120.903,66.862C120.091,67.153 119.479,67.532 119.06,67.986C118.64,68.44 118.425,69.007 118.425,69.689C118.425,70.578 118.702,71.287 119.251,71.819C118.119,72.238 117.271,72.762 116.701,73.381C116.291,73.824 116.065,74.482 116.065,75.368C116.065,76.095 116.301,76.71 116.766,77.213C117.164,77.644 117.827,77.961 118.772,78.122L121.34,78.55C121.608,78.583 121.792,78.61 121.879,78.704C121.925,78.754 121.964,78.796 121.964,78.846C121.964,78.907 121.972,78.958 121.944,78.989C121.902,79.035 121.829,79.057 121.738,79.08C121.58,79.121 121.379,79.138 121.137,79.138C120.578,79.138 120.001,79.006 119.402,78.747C119.141,78.641 118.848,78.653 118.597,78.777C118.345,78.902 118.159,79.129 118.086,79.4C118.086,79.4 118.085,79.401 118.085,79.402C117.936,79.951 118.227,80.524 118.759,80.727C119.558,81.033 120.264,81.181 120.875,81.181C122.119,81.181 122.978,80.876 123.476,80.337C123.899,79.878 124.111,79.334 124.111,78.704C124.111,78.173 123.923,77.699 123.541,77.285C123.192,76.907 122.53,76.608 121.532,76.446ZM180.378,63.656L180.378,79.747C180.378,80.36 180.876,80.858 181.489,80.858C182.102,80.858 182.6,80.36 182.6,79.747L182.6,63.656C182.6,63.042 182.102,62.545 181.489,62.545C180.876,62.545 180.378,63.042 180.378,63.656ZM40.188,66.561C39.981,71.271 39.055,74.468 36.309,78.114C35.927,78.621 36.029,79.342 36.535,79.723C37.042,80.105 37.763,80.003 38.145,79.497C41.198,75.444 42.253,71.898 42.484,66.662C42.512,66.028 42.021,65.491 41.387,65.463C40.753,65.435 40.216,65.927 40.188,66.561ZM46.076,66.662C46.307,71.898 47.362,75.444 50.416,79.497C50.797,80.003 51.518,80.105 52.025,79.723C52.531,79.342 52.633,78.621 52.251,78.114C49.505,74.468 48.58,71.271 48.372,66.561C48.344,65.927 47.807,65.435 47.173,65.463C46.539,65.491 46.048,66.028 46.076,66.662ZM175.138,67.044C174.321,71.512 172.795,74.203 168.566,76.329C167.999,76.614 167.77,77.305 168.055,77.872C168.34,78.438 169.031,78.667 169.598,78.382C174.589,75.873 176.435,72.73 177.399,67.457C177.513,66.833 177.099,66.234 176.475,66.12C175.851,66.006 175.252,66.42 175.138,67.044ZM185.914,70.457C188.492,72.185 191.512,74.804 193.175,76.6C193.592,77.05 194.295,77.077 194.745,76.66C195.195,76.243 195.222,75.54 194.806,75.09C193.052,73.197 189.87,70.434 187.151,68.611C186.642,68.27 185.951,68.406 185.609,68.916C185.268,69.425 185.404,70.116 185.914,70.457ZM175.025,57.138L175.025,59.991C175.025,60.604 175.522,61.102 176.136,61.102C176.749,61.102 177.247,60.604 177.247,59.991L177.247,57.138C177.247,56.525 176.749,56.027 176.136,56.027C175.522,56.027 175.025,56.525 175.025,57.138ZM45.877,57.138L45.877,59.991C45.877,60.604 46.375,61.102 46.988,61.102C47.602,61.102 48.099,60.604 48.099,59.991L48.099,57.138C48.099,56.525 47.602,56.027 46.988,56.027C46.375,56.027 45.877,56.525 45.877,57.138ZM41.715,57.138L41.715,59.991C41.715,60.604 42.213,61.102 42.826,61.102C43.439,61.102 43.937,60.604 43.937,59.991L43.937,57.138C43.937,56.525 43.439,56.027 42.826,56.027C42.213,56.027 41.715,56.525 41.715,57.138ZM170.862,57.138L170.862,59.991C170.862,60.604 171.36,61.102 171.973,61.102C172.586,61.102 173.084,60.604 173.084,59.991L173.084,57.138C173.084,56.525 172.586,56.027 171.973,56.027C171.36,56.027 170.862,56.525 170.862,57.138ZM105.608,58.241L92.372,46.588C91.911,46.183 91.209,46.227 90.803,46.688C90.398,47.148 90.443,47.851 90.903,48.256L104.14,59.909C104.6,60.314 105.303,60.27 105.708,59.809C106.113,59.349 106.069,58.646 105.608,58.241ZM142.94,59.909L156.176,48.256C156.637,47.851 156.681,47.148 156.276,46.688C155.871,46.227 155.168,46.183 154.708,46.588L141.471,58.241C141.011,58.646 140.966,59.349 141.371,59.809C141.777,60.27 142.479,60.314 142.94,59.909ZM125.439,46.912L119.206,58.271C118.911,58.809 119.108,59.485 119.646,59.78C120.184,60.075 120.86,59.878 121.155,59.34L127.387,47.981C127.682,47.443 127.485,46.767 126.948,46.472C126.41,46.177 125.734,46.374 125.439,46.912ZM87.453,39.381L83.984,39.381C83.371,39.381 82.873,39.879 82.873,40.492C82.873,41.106 83.371,41.604 83.984,41.604L87.453,41.604C88.067,41.604 88.564,41.106 88.564,40.492C88.564,39.879 88.067,39.381 87.453,39.381ZM161.745,39.381L158.276,39.381C157.663,39.381 157.165,39.879 157.165,40.492C157.165,41.106 157.663,41.604 158.276,41.604L161.745,41.604C162.359,41.604 162.856,41.106 162.856,40.492C162.856,39.879 162.359,39.381 161.745,39.381ZM133.05,39.381L129.581,39.381C128.967,39.381 128.469,39.879 128.469,40.492C128.469,41.106 128.967,41.604 129.581,41.604L133.05,41.604C133.663,41.604 134.161,41.106 134.161,40.492C134.161,39.879 133.663,39.381 133.05,39.381ZM81.047,37.694L67.81,26.041C67.35,25.636 66.647,25.681 66.242,26.141C65.837,26.601 65.881,27.304 66.342,27.709L79.578,39.362C80.039,39.768 80.741,39.723 81.147,39.263C81.552,38.802 81.507,38.1 81.047,37.694ZM137.758,39.362L150.995,27.709C151.455,27.304 151.5,26.601 151.095,26.141C150.689,25.681 149.987,25.636 149.527,26.041L136.29,37.694C135.829,38.1 135.785,38.802 136.19,39.263C136.595,39.723 137.298,39.768 137.758,39.362ZM166.702,39.362L179.939,27.709C180.399,27.304 180.444,26.601 180.039,26.141C179.634,25.681 178.931,25.636 178.471,26.041L165.234,37.694C164.774,38.1 164.729,38.802 165.134,39.263C165.539,39.723 166.242,39.768 166.702,39.362Z" style="fill-rule:nonzero;"/>
    </g>
</svg>
