<?xml version="1.0" encoding="UTF-8" standalone="no"?>
<svg xmlns:xlink="http://www.w3.org/1999/xlink" height="60.95px" width="56.45px" xmlns="http://www.w3.org/2000/svg">
  <g transform="matrix(1.0, 0.0, 0.0, 1.0, 30.0, 30.15)">
    <path d="M7.05 18.1 Q12.75 17.35 15.85 15.65 L16.3 15.4 Q20.3 12.9 20.75 8.35 21.1 4.65 23.0 1.8 25.35 1.55 25.85 5.05 26.25 8.1 25.25 11.1 24.35 13.7 22.65 15.4 21.15 16.85 19.05 17.65 L10.45 20.6 5.3 21.75 Q3.6 20.1 4.05 19.1 4.5 18.05 7.05 18.1" fill="#ffffff" fill-rule="evenodd" stroke="none"/>
    <path d="M7.05 18.1 Q12.75 17.35 15.85 15.65 L16.3 15.4 Q20.3 12.9 20.75 8.35 21.1 4.65 23.0 1.8 25.35 1.55 25.85 5.05 26.25 8.1 25.25 11.1 24.35 13.7 22.65 15.4 21.15 16.85 19.05 17.65 L10.45 20.6" fill="none" stroke="#8f7c3f" stroke-linecap="round" stroke-linejoin="round" stroke-width="1.0"/>
    <path d="M10.45 20.6 L5.3 21.75 Q3.6 20.1 4.05 19.1 4.5 18.05 7.05 18.1 Z" fill="none" stroke="#8f7c3f" stroke-linecap="round" stroke-linejoin="round" stroke-width="1.0"/>
    <path d="M-1.75 6.8 L-0.45 7.85 Q2.1 10.5 4.2 13.6 L8.2 19.65 Q9.7 21.95 9.75 24.5 9.7 28.05 4.8 28.3 L-2.85 29.1 -10.5 30.2 Q-15.9 30.8 -15.5 26.65 -15.2 23.0 -13.9 19.55 -12.65 16.25 -10.6 13.25 L-6.75 7.85 -6.4 7.3 -5.8 6.8 -1.75 6.8" fill="#e2d5c0" fill-rule="evenodd" stroke="none"/>
    <path d="M-1.75 6.8 L-0.45 7.85 Q2.1 10.5 4.2 13.6 L8.2 19.65 Q9.7 21.95 9.75 24.5 9.7 28.05 4.8 28.3 L-2.85 29.1 -10.5 30.2 Q-15.9 30.8 -15.5 26.65 -15.2 23.0 -13.9 19.55 -12.65 16.25 -10.6 13.25 L-6.75 7.85 -6.4 7.3 -5.8 6.8" fill="none" stroke="#8f7c3f" stroke-linecap="round" stroke-linejoin="round" stroke-width="1.0"/>
    <path d="M-3.35 12.9 Q-6.55 10.55 -3.2 11.1 -2.9 12.45 -3.35 12.9" fill="#d0bc9b" fill-rule="evenodd" stroke="none"/>
    <path d="M-3.35 12.9 Q-6.55 10.55 -3.2 11.1 -2.9 12.45 -3.35 12.9 Z" fill="none" stroke="#8f7c3f" stroke-linecap="round" stroke-linejoin="round" stroke-width="1.0"/>
    <path d="M-14.15 17.75 L-8.95 17.15 -5.7 16.95 Q-6.4 20.1 -6.65 20.4 L-7.25 21.9 Q-7.8 22.65 -10.0 22.8 -11.75 22.85 -13.2 20.65 -15.2 17.9 -14.15 17.75" fill="#ffffff" fill-rule="evenodd" stroke="none"/>
    <path d="M-14.15 17.75 L-8.95 17.15 -5.7 16.95 Q-6.4 20.1 -6.65 20.4 L-7.25 21.9 Q-7.8 22.65 -10.0 22.8 -11.75 22.85 -13.2 20.65 -15.2 17.9 -14.15 17.75 Z" fill="none" stroke="#8f7c3f" stroke-linecap="round" stroke-linejoin="round" stroke-width="1.0"/>
    <path d="M0.45 20.15 Q-1.35 17.3 -0.35 17.2 L4.9 16.95 Q7.35 16.55 8.15 16.9 L7.0 20.3 6.3 21.75 Q5.75 22.45 3.5 22.5 1.75 22.45 0.45 20.15" fill="#ffffff" fill-rule="evenodd" stroke="none"/>
    <path d="M0.45 20.15 Q-1.35 17.3 -0.35 17.2 L4.9 16.95 Q7.35 16.55 8.15 16.9 L7.0 20.3 6.3 21.75 Q5.75 22.45 3.5 22.5 1.75 22.45 0.45 20.15 Z" fill="none" stroke="#8f7c3f" stroke-linecap="round" stroke-linejoin="round" stroke-width="1.0"/>
    <path d="M-17.35 11.7 L-16.35 11.55 Q-12.2 10.75 -8.0 9.3 -12.55 20.5 -20.1 12.1 L-17.35 11.7" fill="#ffffff" fill-rule="evenodd" stroke="none"/>
    <path d="M-17.35 11.7 L-20.1 12.1 Q-12.55 20.5 -8.0 9.3 -12.2 10.75 -16.35 11.55 L-17.35 11.7 Z" fill="none" stroke="#8f7c3f" stroke-linecap="round" stroke-linejoin="round" stroke-width="1.0"/>
    <path d="M10.8 11.2 L9.8 11.05 Q5.65 10.25 1.45 8.8 6.0 20.0 13.55 11.6 L10.8 11.2" fill="#ffffff" fill-rule="evenodd" stroke="none"/>
    <path d="M10.8 11.2 L13.55 11.6 Q6.0 20.0 1.45 8.8 5.65 10.25 9.8 11.05 L10.8 11.2 Z" fill="none" stroke="#8f7c3f" stroke-linecap="round" stroke-linejoin="round" stroke-width="1.0"/>
    <path d="M-21.05 -12.0 Q-23.95 -14.85 -25.85 -18.55 -28.55 -23.85 -29.5 -29.65 L-23.55 -27.9 Q-19.6 -26.55 -17.75 -25.7 -16.3 -22.8 -16.85 -19.4 -17.5 -14.75 -20.75 -11.8 L-20.8 -11.8 -21.05 -12.0" fill="#ffffff" fill-rule="evenodd" stroke="none"/>
    <path d="M-20.8 -11.8 L-20.75 -11.8 Q-17.5 -14.75 -16.85 -19.4 -16.3 -22.8 -17.75 -25.7 -19.6 -26.55 -23.55 -27.9 L-29.5 -29.65 Q-28.55 -23.85 -25.85 -18.55 -23.95 -14.85 -21.05 -12.0" fill="none" stroke="#8f7c3f" stroke-linecap="round" stroke-linejoin="round" stroke-width="1.0"/>
    <path d="M11.05 -10.8 L11.3 -11.0 Q14.2 -13.85 16.1 -17.55 18.8 -22.85 19.75 -28.65 L13.8 -26.9 Q9.85 -25.55 8.0 -24.7 6.55 -21.8 7.1 -18.4 7.75 -13.75 11.0 -10.8 L11.05 -10.8" fill="#ffffff" fill-rule="evenodd" stroke="none"/>
    <path d="M11.05 -10.8 L11.0 -10.8 Q7.75 -13.75 7.1 -18.4 6.55 -21.8 8.0 -24.7 9.85 -25.55 13.8 -26.9 L19.75 -28.65 Q18.8 -22.85 16.1 -17.55 14.2 -13.85 11.3 -11.0" fill="none" stroke="#8f7c3f" stroke-linecap="round" stroke-linejoin="round" stroke-width="1.0"/>
    <path d="M-10.3 -27.15 Q4.8 -29.65 13.4 -18.55 22.9 -6.3 11.0 2.7 4.2 7.85 -9.65 6.85 -24.95 5.35 -26.05 -9.7 L-26.05 -10.65 Q-26.5 -23.3 -12.95 -26.6 L-10.3 -27.15" fill="#ffffff" fill-rule="evenodd" stroke="none"/>
    <path d="M-10.3 -27.15 Q4.8 -29.65 13.4 -18.55 22.9 -6.3 11.0 2.7 4.2 7.85 -9.65 6.85 -24.95 5.35 -26.05 -9.7 L-26.05 -10.65 Q-26.5 -23.3 -12.95 -26.6 L-10.3 -27.15 Z" fill="none" stroke="#8f7c3f" stroke-linecap="round" stroke-linejoin="round" stroke-width="1.0"/>
    <path d="M-1.05 -15.9 Q0.1 -16.0 0.35 -15.15 0.65 -14.0 -0.1 -13.6 -0.5 -13.35 -0.9 -13.75 L-1.35 -14.85 -1.25 -15.4 -1.05 -15.9" fill="#8f7c3f" fill-rule="evenodd" stroke="none"/>
    <path d="M3.45 -6.45 Q2.6 -4.95 1.3 -4.0 0.0 -3.1 -1.85 -4.0 -3.7 -4.9 -4.3 -7.55 L-4.75 -7.6 Q-5.25 -4.65 -5.95 -4.15 L-8.55 -3.9 Q-9.8 -4.2 -10.45 -6.9 M8.75 -7.8 Q9.4 -8.2 10.0 -8.4 L11.05 -8.9 M6.0 -8.85 Q6.7 -8.9 7.3 -9.45 L8.65 -10.4 M-8.35 -15.65 Q-7.5 -15.3 -7.85 -14.45 -7.9 -13.75 -9.35 -13.55 -9.95 -14.7 -9.35 -15.85 L-8.35 -15.65 Q-9.6 -14.3 -9.15 -13.95 L-9.35 -13.55 M-9.15 -13.95 Q-8.9 -13.8 -8.2 -13.95 -8.5 -15.15 -9.15 -13.95 M-7.85 -14.45 L-8.2 -13.95 M-0.9 -13.75 L-1.35 -14.85 -1.25 -15.4 -1.05 -15.9 M-16.6 -8.8 L-17.75 -8.4 Q-17.7 -7.5 -18.35 -7.6 L-17.75 -8.4 M-4.75 -7.6 L-5.25 -7.85 Q-6.3 -8.55 -4.8 -10.9 -2.9 -8.6 -4.3 -7.55 L-4.8 -10.9 -5.25 -7.85 M-21.15 -8.05 Q-20.35 -9.55 -18.9 -9.7" fill="none" stroke="#8f7c3f" stroke-linecap="round" stroke-linejoin="round" stroke-width="1.0"/>
    <path d="M-1.05 -15.9 Q0.1 -16.0 0.35 -15.15 0.65 -14.0 -0.1 -13.6 -0.5 -13.35 -0.9 -13.75" fill="none" stroke="#8f7c3f" stroke-linecap="round" stroke-linejoin="round" stroke-width="1.0"/>
  </g>
</svg>
