<?xml version="1.0" encoding="UTF-8" standalone="no"?>
<svg xmlns:xlink="http://www.w3.org/1999/xlink" height="52.5px" width="46.55px" xmlns="http://www.w3.org/2000/svg">
  <g transform="matrix(1.0, 0.0, 0.0, 1.0, 29.1, 21.75)">
    <path d="M0.5 24.15 Q5.45 23.5 8.15 22.05 L8.55 21.8 Q12.05 19.65 12.45 15.7 L12.45 15.45 Q12.8 12.35 14.4 10.0 16.4 9.75 16.85 12.8 17.2 15.45 16.35 18.1 L16.3 18.25 Q15.5 20.4 14.1 21.8 12.75 23.1 10.95 23.8 L3.45 26.35 -1.0 27.35 Q-2.5 25.9 -2.1 25.05 -1.75 24.1 0.5 24.15" fill="#ffffff" fill-rule="evenodd" stroke="none"/>
    <path d="M0.5 24.15 Q5.45 23.5 8.15 22.05 L8.55 21.8 Q12.05 19.65 12.45 15.7 L12.45 15.45 Q12.8 12.35 14.4 10.0 16.4 9.75 16.85 12.8 17.2 15.45 16.35 18.1 L16.3 18.25 Q15.5 20.4 14.1 21.8 12.75 23.1 10.95 23.8 L3.45 26.35" fill="none" stroke="#8f7c3f" stroke-linecap="round" stroke-linejoin="round" stroke-width="1.0"/>
    <path d="M3.45 26.35 L-1.0 27.35 Q-2.5 25.9 -2.1 25.05 -1.75 24.1 0.5 24.15 Z" fill="none" stroke="#8f7c3f" stroke-linecap="round" stroke-linejoin="round" stroke-width="1.0"/>
    <path d="M-5.15 9.8 L-4.05 10.75 Q-1.8 13.05 0.0 15.75 L3.5 21.0 Q4.8 23.0 4.85 25.25 4.8 28.3 0.55 28.55 L-6.15 29.25 -12.8 30.2 Q-17.5 30.7 -17.15 27.1 -16.9 23.95 -15.75 20.9 -14.65 18.05 -12.9 15.45 L-9.55 10.75 -9.2 10.25 -8.7 9.8 -5.15 9.8" fill="#e2d5c0" fill-rule="evenodd" stroke="none"/>
    <path d="M-5.15 9.8 L-4.05 10.75 Q-1.8 13.05 0.0 15.75 L3.5 21.0 Q4.8 23.0 4.85 25.25 4.8 28.3 0.55 28.55 L-6.15 29.25 -12.8 30.2 Q-17.5 30.7 -17.15 27.1 -16.9 23.95 -15.75 20.9 -14.65 18.05 -12.9 15.45 L-9.55 10.75 -9.2 10.25 -8.7 9.8" fill="none" stroke="#8f7c3f" stroke-linecap="round" stroke-linejoin="round" stroke-width="1.0"/>
    <path d="M-6.55 15.15 Q-9.35 13.1 -6.45 13.55 -6.15 14.75 -6.55 15.15" fill="#d0bc9b" fill-rule="evenodd" stroke="none"/>
    <path d="M-6.55 15.15 Q-9.35 13.1 -6.45 13.55 -6.15 14.75 -6.55 15.15 Z" fill="none" stroke="#8f7c3f" stroke-linecap="round" stroke-linejoin="round" stroke-width="1.0"/>
    <path d="M-15.95 19.35 L-11.45 18.85 -8.6 18.65 Q-9.2 21.4 -9.45 21.65 L-9.95 22.95 Q-10.45 23.6 -12.35 23.75 -13.9 23.8 -15.15 21.9 -16.9 19.5 -15.95 19.35" fill="#8f7c3f" fill-rule="evenodd" stroke="none"/>
    <path d="M-15.95 19.35 L-11.45 18.85 -8.6 18.65 Q-9.2 21.4 -9.45 21.65 L-9.95 22.95 Q-10.45 23.6 -12.35 23.75 -13.9 23.8 -15.15 21.9 -16.9 19.5 -15.95 19.35 Z" fill="none" stroke="#8f7c3f" stroke-linecap="round" stroke-linejoin="round" stroke-width="1.0"/>
    <path d="M-3.25 21.45 Q-4.85 18.95 -3.95 18.9 L0.6 18.65 3.45 18.6 2.45 21.55 1.85 22.85 Q1.35 23.45 -0.6 23.5 -2.15 23.45 -3.25 21.45" fill="#8f7c3f" fill-rule="evenodd" stroke="none"/>
    <path d="M-3.25 21.45 Q-4.85 18.95 -3.95 18.9 L0.6 18.65 3.45 18.6 2.45 21.55 1.85 22.85 Q1.35 23.45 -0.6 23.5 -2.15 23.45 -3.25 21.45 Z" fill="none" stroke="#8f7c3f" stroke-linecap="round" stroke-linejoin="round" stroke-width="1.0"/>
    <path d="M-18.05 14.0 L-17.85 13.95 -12.85 12.75 -10.6 12.0 Q-14.6 21.75 -21.15 14.45 L-18.75 14.1 -18.05 14.0" fill="#ffffff" fill-rule="evenodd" stroke="none"/>
    <path d="M-18.05 14.0 L-18.75 14.1 -21.15 14.45 Q-14.6 21.75 -10.6 12.0 L-12.85 12.75 -17.85 13.95 -18.05 14.0 Z" fill="none" stroke="#8f7c3f" stroke-linecap="round" stroke-linejoin="round" stroke-width="1.0"/>
    <path d="M5.7 13.65 L4.85 13.5 Q1.25 12.8 -2.4 11.55 1.55 21.3 8.1 14.0 L5.7 13.65" fill="#ffffff" fill-rule="evenodd" stroke="none"/>
    <path d="M5.7 13.65 L8.1 14.0 Q1.55 21.3 -2.4 11.55 1.25 12.8 4.85 13.5 L5.7 13.65 Z" fill="none" stroke="#8f7c3f" stroke-linecap="round" stroke-linejoin="round" stroke-width="1.0"/>
    <path d="M-21.0 -5.7 L-21.25 -5.9 Q-23.75 -8.4 -25.35 -11.55 -27.75 -16.2 -28.6 -21.25 L-23.45 -19.75 -18.35 -17.8 Q-17.1 -15.3 -17.55 -12.35 -18.15 -8.3 -20.95 -5.7 L-21.0 -5.7" fill="#fefefe" fill-rule="evenodd" stroke="none"/>
    <path d="M-21.0 -5.7 L-20.95 -5.7 Q-18.15 -8.3 -17.55 -12.35 -17.1 -15.3 -18.35 -17.8 L-23.45 -19.75 -28.6 -21.25 Q-27.75 -16.2 -25.35 -11.55 -23.75 -8.4 -21.25 -5.9" fill="none" stroke="#8f7c3f" stroke-linecap="round" stroke-linejoin="round" stroke-width="1.0"/>
    <path d="M5.25 -5.0 L5.2 -4.95 Q2.35 -7.55 1.75 -11.6 1.3 -14.6 2.6 -17.05 4.15 -17.9 7.7 -19.0 L12.85 -20.55 Q11.95 -15.5 9.6 -10.85 8.0 -7.65 5.45 -5.2 L5.25 -5.0" fill="#ffffff" fill-rule="evenodd" stroke="none"/>
    <path d="M5.25 -5.0 L5.2 -4.95 Q2.35 -7.55 1.75 -11.6 1.3 -14.6 2.6 -17.05 4.15 -17.9 7.7 -19.0 L12.85 -20.55 Q11.95 -15.5 9.6 -10.85 8.0 -7.65 5.45 -5.2" fill="none" stroke="#8f7c3f" stroke-linecap="round" stroke-linejoin="round" stroke-width="1.0"/>
    <path d="M-12.7 -19.75 Q0.45 -21.95 7.95 -12.25 16.25 -1.6 5.85 6.25 -0.05 10.75 -12.15 9.85 -25.45 8.55 -26.4 -4.6 L-26.4 -5.4 Q-26.8 -16.45 -15.0 -19.3 L-12.7 -19.75" fill="#ffffff" fill-rule="evenodd" stroke="none"/>
    <path d="M-12.7 -19.75 Q0.45 -21.95 7.95 -12.25 16.25 -1.6 5.85 6.25 -0.05 10.75 -12.15 9.85 -25.45 8.55 -26.4 -4.6 L-26.4 -5.4 Q-26.8 -16.45 -15.0 -19.3 L-12.7 -19.75 Z" fill="none" stroke="#8f7c3f" stroke-linecap="round" stroke-linejoin="round" stroke-width="1.0"/>
    <path d="M-5.15 -7.35 L-1.8 -7.15 1.35 -7.1 M-0.65 -1.7 Q-1.4 -0.4 -2.5 0.4 -3.65 1.2 -5.25 0.4 -6.85 -0.35 -7.4 -2.65 L-7.8 -2.7 Q-8.2 -0.15 -8.85 0.3 L-11.1 0.5 Q-12.2 0.25 -12.75 -2.1 M-17.25 -7.7 L-13.95 -7.3 -10.55 -7.25 M-20.85 -2.55 L-20.25 -3.35 -19.25 -3.95 -18.9 -4.0 M-16.9 -3.2 L-17.9 -2.85 -17.9 -2.5 Q-17.95 -2.2 -18.25 -2.15 L-18.4 -2.15 -18.2 -2.5 -17.9 -2.85 M-7.8 -2.7 L-8.2 -2.95 Q-9.15 -3.55 -7.85 -5.6 -6.15 -3.6 -7.4 -2.65 L-7.85 -5.6 -8.2 -2.95" fill="none" stroke="#8f7c3f" stroke-linecap="round" stroke-linejoin="round" stroke-width="1.0"/>
    <path d="M3.95 -2.05 L5.05 -2.55 5.95 -3.0 M1.55 -2.95 Q2.2 -3.0 2.7 -3.5 L3.9 -4.3" fill="none" stroke="#8f7c3f" stroke-linecap="round" stroke-linejoin="round" stroke-width="1.0"/>
  </g>
</svg>
