<?xml version="1.0" encoding="UTF-8" standalone="no"?>
<svg xmlns:xlink="http://www.w3.org/1999/xlink" height="37.9px" width="34.55px" xmlns="http://www.w3.org/2000/svg">
  <g transform="matrix(1.0, 0.0, 0.0, 1.0, 29.75, 7.25)">
    <path d="M-8.95 26.85 Q-6.3 24.8 -3.0 24.8 0.55 24.75 2.25 21.6 L4.3 17.35" fill="none" stroke="#8f7c3f" stroke-linecap="round" stroke-linejoin="round" stroke-width="1.0"/>
    <path d="M-1.55 -2.25 Q-3.3 -3.8 -5.4 -2.25 -6.95 -1.1 -6.55 0.45 L-6.2 1.25 -5.55 1.75 -3.4 2.15 Q-2.05 2.1 -1.35 1.2 0.2 -0.65 -1.55 -2.25 M-2.5 -6.0 Q2.5 -5.3 2.3 -0.8 2.1 3.2 -2.55 3.65 L-3.6 3.7 -5.8 2.95 -6.6 2.4 Q-8.35 0.85 -7.8 -2.2 -7.05 -6.65 -2.5 -6.0" fill="#ffffff" fill-rule="evenodd" stroke="none"/>
    <path d="M-1.55 -2.25 Q0.2 -0.65 -1.35 1.2 -2.05 2.1 -3.4 2.15 L-5.55 1.75 -6.2 1.25 -6.55 0.45 Q-6.95 -1.1 -5.4 -2.25 -3.3 -3.8 -1.55 -2.25" fill="#fefefe" fill-rule="evenodd" stroke="none"/>
    <path d="M-2.5 -6.0 Q2.5 -5.3 2.3 -0.8 2.1 3.2 -2.55 3.65 L-3.6 3.7 -5.8 2.95 -6.6 2.4 Q-8.35 0.85 -7.8 -2.2 -7.05 -6.65 -2.5 -6.0" fill="none" stroke="#8f7c3f" stroke-linecap="round" stroke-linejoin="round" stroke-width="1.0"/>
    <path d="M-1.55 -2.25 Q0.2 -0.65 -1.35 1.2 -2.05 2.1 -3.4 2.15 L-5.55 1.75 -6.2 1.25 -6.55 0.45 Q-6.95 -1.1 -5.4 -2.25 -3.3 -3.8 -1.55 -2.25" fill="none" stroke="#8f7c3f" stroke-linecap="round" stroke-linejoin="round" stroke-width="0.5"/>
    <path d="M-23.95 -3.6 Q-25.4 -3.1 -25.8 -1.85 -26.3 -0.45 -25.3 0.6 L-23.5 1.85 Q-22.35 1.85 -21.4 1.2 -20.3 0.4 -20.2 -1.1 -20.2 -2.55 -21.45 -3.3 -22.65 -4.0 -23.95 -3.6 M-29.1 -2.75 Q-28.65 -5.15 -27.1 -6.1 -26.1 -6.75 -24.55 -6.75 L-23.35 -6.65 -21.15 -6.1 Q-20.3 -5.75 -19.65 -5.2 -18.1 -3.85 -18.2 -1.3 -18.35 0.75 -19.65 1.95 L-20.55 2.55 Q-21.7 3.1 -23.35 3.3 L-23.55 3.3 -24.55 3.35 -26.95 2.55 Q-29.25 1.3 -29.25 -1.35 L-29.1 -2.75" fill="#ffffff" fill-rule="evenodd" stroke="none"/>
    <path d="M-23.95 -3.6 Q-22.65 -4.0 -21.45 -3.3 -20.2 -2.55 -20.2 -1.1 -20.3 0.4 -21.4 1.2 -22.35 1.85 -23.5 1.85 L-25.3 0.6 Q-26.3 -0.45 -25.8 -1.85 -25.4 -3.1 -23.95 -3.6" fill="#fefefe" fill-rule="evenodd" stroke="none"/>
    <path d="M-29.1 -2.75 Q-28.65 -5.15 -27.1 -6.1 -26.1 -6.75 -24.55 -6.75 L-23.35 -6.65 -21.15 -6.1 Q-20.3 -5.75 -19.65 -5.2 -18.1 -3.85 -18.2 -1.3 -18.35 0.75 -19.65 1.95 L-20.55 2.55 Q-21.7 3.1 -23.35 3.3 L-23.55 3.3 -24.55 3.35 -26.95 2.55 Q-29.25 1.3 -29.25 -1.35 L-29.1 -2.75" fill="none" stroke="#8f7c3f" stroke-linecap="round" stroke-linejoin="round" stroke-width="1.0"/>
    <path d="M-23.95 -3.6 Q-22.65 -4.0 -21.45 -3.3 -20.2 -2.55 -20.2 -1.1 -20.3 0.4 -21.4 1.2 -22.35 1.85 -23.5 1.85 L-25.3 0.6 Q-26.3 -0.45 -25.8 -1.85 -25.4 -3.1 -23.95 -3.6" fill="none" stroke="#8f7c3f" stroke-linecap="round" stroke-linejoin="round" stroke-width="0.5"/>
    <path d="M-19.6 19.8 L-19.05 19.7 -14.5 18.45 Q-17.0 24.6 -21.15 20.0 L-19.6 19.8" fill="#ffffff" fill-rule="evenodd" stroke="none"/>
    <path d="M-19.6 19.8 L-21.15 20.0 Q-17.0 24.6 -14.5 18.45 L-19.05 19.7 -19.6 19.8 Z" fill="none" stroke="#8f7c3f" stroke-linecap="round" stroke-linejoin="round" stroke-width="1.0"/>
    <path d="M-6.15 20.2 L-4.6 20.45 Q-8.75 25.05 -11.25 18.95 L-6.7 20.15 -6.15 20.2" fill="#ffffff" fill-rule="evenodd" stroke="none"/>
    <path d="M-6.15 20.2 L-4.6 20.45 Q-8.75 25.05 -11.25 18.95 L-6.7 20.15 -6.15 20.2 Z" fill="none" stroke="#8f7c3f" stroke-linecap="round" stroke-linejoin="round" stroke-width="1.0"/>
    <path d="M-12.2 17.85 L-11.65 18.4 -9.6 21.4 -7.9 24.6 Q-7.25 25.8 -7.25 27.15 -7.25 29.0 -9.35 29.15 L-12.65 29.55 -15.95 30.1 -16.55 30.15 Q-18.3 30.15 -18.15 28.25 -18.0 26.35 -17.45 24.55 -16.9 22.8 -16.0 21.25 L-14.35 18.4 -14.2 18.1 -13.9 17.85 -12.2 17.85" fill="#e2d5c0" fill-rule="evenodd" stroke="none"/>
    <path d="M-12.2 17.85 L-11.65 18.4 -9.6 21.4 -7.9 24.6 Q-7.25 25.8 -7.25 27.15 -7.25 29.0 -9.35 29.15 L-12.65 29.55 -15.95 30.1 -16.55 30.15 Q-18.3 30.15 -18.15 28.25 -18.0 26.35 -17.45 24.55 -16.9 22.8 -16.0 21.25 L-14.35 18.4 -14.2 18.1 -13.9 17.85" fill="none" stroke="#8f7c3f" stroke-linecap="round" stroke-linejoin="round" stroke-width="1.0"/>
    <path d="M-13.2 20.85 Q-14.95 19.55 -13.1 19.85 -12.95 20.6 -13.2 20.85" fill="#d0bc9b" fill-rule="evenodd" stroke="none"/>
    <path d="M-11.85 23.65 L-9.7 23.55 -10.35 25.35 -10.75 26.1 Q-11.1 26.5 -12.55 26.55 -13.65 26.6 -14.6 25.45 -15.9 24.05 -15.25 23.95 L-11.85 23.65" fill="#fefefe" fill-rule="evenodd" stroke="none"/>
    <path d="M-11.85 23.65 L-9.7 23.55 -10.35 25.35 -10.75 26.1 Q-11.1 26.5 -12.55 26.55 -13.65 26.6 -14.6 25.45 -15.9 24.05 -15.25 23.95 L-11.85 23.65 M-13.2 20.85 Q-14.95 19.55 -13.1 19.85 -12.95 20.6 -13.2 20.85" fill="none" stroke="#8f7c3f" stroke-linecap="round" stroke-linejoin="round" stroke-width="1.0"/>
    <path d="M-0.95 10.05 Q-0.95 13.25 -4.5 15.9 -8.15 18.6 -15.6 18.1 -23.85 17.3 -24.4 9.3 L-24.4 8.8 Q-24.65 2.05 -17.35 0.3 L-15.95 0.05 Q-7.85 -1.3 -3.2 4.6 -0.95 7.5 -0.95 10.05" fill="#fefefe" fill-rule="evenodd" stroke="none"/>
    <path d="M-0.95 10.05 Q-0.95 13.25 -4.5 15.9 -8.15 18.6 -15.6 18.1 -23.85 17.3 -24.4 9.3 L-24.4 8.8 Q-24.65 2.05 -17.35 0.3 L-15.95 0.05 Q-7.85 -1.3 -3.2 4.6 -0.95 7.5 -0.95 10.05 Z" fill="none" stroke="#8f7c3f" stroke-linecap="round" stroke-linejoin="round" stroke-width="1.0"/>
    <path d="M-13.55 10.15 L-13.25 10.3 -12.95 10.35 -13.25 8.3 -13.55 10.15 Q-14.2 9.75 -13.25 8.3 -12.1 9.7 -12.95 10.35 -12.65 11.9 -11.6 12.5 L-9.5 12.55 Q-8.7 11.95 -8.2 11.05 M-16.75 10.75 Q-16.35 12.4 -15.6 12.6 L-14.0 12.45 Q-13.55 12.15 -13.25 10.3" fill="none" stroke="#8f7c3f" stroke-linecap="round" stroke-linejoin="round" stroke-width="1.0"/>
    <path d="M-19.6 6.65 L-14.7 6.5 M-11.8 6.45 L-6.35 6.3" fill="none" stroke="#8f7c3f" stroke-linecap="round" stroke-linejoin="round" stroke-width="1.0"/>
    <path d="M-4.25 10.5 Q-3.85 10.25 -3.45 10.15 L-2.8 9.8 M-5.9 9.85 L-5.1 9.5 -4.25 8.9 M-20.85 10.6 L-20.45 10.1 -19.75 9.9 M-22.6 10.35 Q-22.1 9.4 -21.2 9.3" fill="none" stroke="#8f7c3f" stroke-linecap="round" stroke-linejoin="round" stroke-width="0.5"/>
  </g>
</svg>
