<?xml version="1.0" encoding="UTF-8" standalone="no"?>
<!DOCTYPE svg PUBLIC "-//W3C//DTD SVG 1.1//EN" "http://www.w3.org/Graphics/SVG/1.1/DTD/svg11.dtd">
<svg width="50px" height="82px" version="1.1" xmlns="http://www.w3.org/2000/svg" xmlns:xlink="http://www.w3.org/1999/xlink" xml:space="preserve" xmlns:serif="http://www.serif.com/" style="fill-rule:evenodd;clip-rule:evenodd;stroke-linejoin:round;stroke-miterlimit:2;">
    <g transform="matrix(-0.423379,0,0,0.423379,54.8929,-19.2924)">
        <path d="M105.59,59.261C96.143,52.647 82.25,57.571 75.583,63.28C75.186,59.53 68.222,58.836 68.222,58.836C64.553,61.338 63.294,62.23 61.049,59.95C61.049,59.95 56.855,59.262 55.461,62.367C50.609,69.367 51.105,75.68 56.23,82.68C56.451,84.109 54.055,83.987 49.799,83.992L21.769,83.992C20.453,83.992 19.282,84.83 18.858,86.076C18.433,87.322 18.849,88.7 19.891,89.504C22.624,91.611 25.097,93.518 25.097,93.518L47.904,112.757C40.552,114.132 32.242,119.122 28.915,124.399C24.371,131.603 23.789,138.399 28.915,145.399C30.923,148.27 30.107,151.912 26.992,156.18C22.14,163.18 21.867,170.18 26.992,177.18C29.513,181.919 31.468,186.28 31.003,189.028C32.39,196.567 34.613,201.5 39.85,206.758C43.984,210.371 46.194,215.908 47.022,222.828L47.022,231.479C47.022,234.949 49.608,237.762 52.797,237.762L52.799,237.762C56.184,237.762 58.929,234.776 58.929,231.094L58.929,224.363C58.929,222.462 60.47,220.92 62.371,220.92L62.375,220.92C63.288,220.92 64.164,221.283 64.81,221.929C65.455,222.574 65.818,223.45 65.818,224.363L65.818,231.479C65.818,234.949 68.404,237.762 71.593,237.762L71.595,237.762C74.98,237.762 77.724,234.776 77.724,231.094L77.724,222.828C77.889,216.613 80.201,211.753 85.199,208.59C95.229,204.549 96.679,195.172 95.924,179.643L95.924,122.054C95.999,118.347 95.55,115.218 93.805,113.514C98.93,106.514 98.657,99.514 93.805,92.514C107.069,105.049 121.753,95.959 124.164,85.472C125.038,81.669 122.76,72.732 116.952,68.267C112.451,64.806 109.017,61.66 105.59,59.261Z" style="fill:white;"/>
    </g>
    <g transform="matrix(0.601764,0,0,0.601764,-41.2851,-49.2994)">
        <path d="M122.727,216.1L122.673,216.1C120.849,216.1 119.412,214.445 119.412,212.454L119.412,206.639C119.412,206.08 118.973,205.623 118.421,205.595L118.367,205.593C117.79,205.593 117.321,206.062 117.321,206.639L117.321,212.454C117.321,215.646 119.745,218.191 122.68,218.191L122.709,218.191L122.681,218.191L122.811,218.189C125.548,218.115 127.789,215.72 127.789,212.726L127.789,206.639C127.789,206.08 127.35,205.623 126.797,205.595L126.744,205.593C126.167,205.593 125.698,206.062 125.698,206.639L125.698,212.726C125.698,214.549 124.397,216.072 122.727,216.1ZM109.491,216.1L109.489,216.099L109.456,216.1L109.457,216.1L109.449,216.1C107.625,216.1 106.188,214.445 106.188,212.454L106.188,206.639C106.188,206.08 105.749,205.623 105.196,205.595L105.143,205.593C104.566,205.593 104.097,206.062 104.097,206.639L104.097,212.454C104.097,215.646 106.521,218.191 109.455,218.191L109.485,218.191L109.456,218.191L109.587,218.189C112.324,218.115 114.565,215.72 114.565,212.726L114.565,206.639C114.565,206.08 114.125,205.623 113.573,205.595L113.52,205.593C112.943,205.593 112.474,206.062 112.474,206.639L112.474,212.726C112.474,214.553 111.167,216.079 109.491,216.1ZM109.485,218.191L109.486,218.191L109.487,218.19L109.485,218.191ZM122.709,218.191L122.712,218.191C122.74,218.19 122.767,218.189 122.793,218.187L122.709,218.191ZM111.731,198.77L115.956,198.77C116.533,198.77 117.001,198.302 117.001,197.726C117.001,197.149 116.533,196.681 115.956,196.681L111.731,196.681C111.154,196.681 110.686,197.149 110.686,197.726C110.686,198.302 111.154,198.77 111.731,198.77ZM122.541,195.226L122.541,197.404C122.541,197.923 122.962,198.345 123.481,198.345C124,198.345 124.422,197.923 124.422,197.404L124.422,195.226C124.422,194.707 124,194.285 123.481,194.285C122.962,194.285 122.541,194.707 122.541,195.226ZM118.393,195.226L118.393,197.404C118.393,197.923 118.814,198.345 119.334,198.345C119.853,198.345 120.274,197.923 120.274,197.404L120.274,195.226C120.274,194.707 119.853,194.285 119.334,194.285C118.814,194.285 118.393,194.707 118.393,195.226ZM126.689,195.226L126.689,197.404C126.689,197.923 127.11,198.345 127.629,198.345C128.148,198.345 128.569,197.923 128.569,197.404L128.569,195.226C128.569,194.707 128.148,194.285 127.629,194.285C127.11,194.285 126.689,194.707 126.689,195.226ZM92.659,181.668L92.494,181.668C92.174,181.668 91.903,181.782 91.679,182.008C91.458,182.232 91.346,182.504 91.346,182.824L91.346,184.207C91.346,186.649 90.802,188.842 89.706,190.783C88.616,192.714 87.096,194.221 85.147,195.303C85.143,195.305 85.139,195.308 85.134,195.31C84.871,195.466 84.7,195.693 84.623,195.992L84.623,195.993C84.549,196.285 84.589,196.563 84.749,196.825L84.82,196.952C84.987,197.204 85.223,197.368 85.532,197.438C85.833,197.507 86.12,197.472 86.392,197.334C86.396,197.332 86.4,197.33 86.405,197.327C87.973,196.481 89.352,195.303 90.537,193.79C91.404,192.683 92.103,191.477 92.634,190.174C93.16,191.468 93.847,192.669 94.694,193.777L94.695,193.777C95.858,195.297 97.214,196.479 98.761,197.326C98.771,197.331 98.781,197.336 98.791,197.341C99.08,197.478 99.366,197.505 99.646,197.436C99.94,197.365 100.172,197.201 100.339,196.942L100.326,196.961L100.385,196.855C100.578,196.579 100.623,196.284 100.532,195.974C100.447,195.682 100.275,195.462 100.018,195.31C100.015,195.308 100.011,195.306 100.008,195.304C98.058,194.211 96.537,192.698 95.447,190.766C94.351,188.825 93.807,186.638 93.807,184.207L93.807,182.824C93.807,182.504 93.695,182.232 93.474,182.008C93.25,181.782 92.978,181.668 92.659,181.668ZM136.883,182.651C135.956,187.696 134.48,191.003 130.975,194.521C130.527,194.971 130.529,195.699 130.978,196.147C131.428,196.595 132.157,196.593 132.604,196.144C136.469,192.264 138.122,188.63 139.145,183.067C139.26,182.442 138.846,181.843 138.222,181.728C137.598,181.613 136.998,182.027 136.883,182.651ZM109.041,194.117C109.687,194.117 110.212,194.642 110.212,195.288C110.212,195.935 109.687,196.46 109.041,196.46C108.394,196.46 107.87,195.935 107.87,195.288C107.87,194.642 108.394,194.117 109.041,194.117ZM104.893,194.117C105.54,194.117 106.065,194.642 106.065,195.288C106.065,195.935 105.54,196.46 104.893,196.46C104.247,196.46 103.722,195.935 103.722,195.288C103.722,194.642 104.247,194.117 104.893,194.117ZM91.084,158.014L91.084,176.255C91.084,176.947 91.645,177.509 92.337,177.509C93.029,177.509 93.591,176.947 93.591,176.255L93.591,158.014C93.591,157.323 93.029,156.761 92.337,156.761C91.645,156.761 91.084,157.323 91.084,158.014ZM134.863,158.014L134.863,176.255C134.863,176.947 135.424,177.509 136.116,177.509C136.808,177.509 137.37,176.947 137.37,176.255L137.37,158.014C137.37,157.323 136.808,156.761 136.116,156.761C135.424,156.761 134.863,157.323 134.863,158.014ZM97.929,159.152C94.236,164.481 94.043,169.81 97.945,175.139C98.286,175.605 98.94,175.706 99.405,175.365C99.871,175.025 99.972,174.37 99.631,173.905C96.321,169.384 96.513,164.863 99.647,160.343C99.975,159.869 99.857,159.217 99.383,158.889C98.909,158.56 98.258,158.678 97.929,159.152ZM139.977,160.343C143.111,164.863 143.303,169.384 139.993,173.905C139.652,174.37 139.753,175.025 140.218,175.365C140.684,175.706 141.338,175.605 141.679,175.139C145.58,169.81 145.388,164.481 141.694,159.152C141.366,158.678 140.714,158.56 140.24,158.889C139.767,159.217 139.648,159.869 139.977,160.343ZM107.438,160.69C106.511,165.735 105.035,169.042 101.53,172.56C101.082,173.01 101.084,173.738 101.533,174.186C101.983,174.634 102.712,174.632 103.159,174.183C107.024,170.303 108.677,166.669 109.7,161.106C109.815,160.481 109.401,159.882 108.777,159.767C108.153,159.652 107.553,160.066 107.438,160.69ZM91.084,135.737L91.084,153.979C91.084,154.67 91.645,155.232 92.337,155.232C93.029,155.232 93.591,154.67 93.591,153.979L93.591,135.737C93.591,135.046 93.029,134.484 92.337,134.484C91.645,134.484 91.084,135.046 91.084,135.737ZM106.696,151.019C107.208,151.757 107.249,152.496 106.709,153.234C106.436,153.606 106.517,154.129 106.889,154.401C107.261,154.674 107.784,154.593 108.057,154.221C109.07,152.836 109.029,151.452 108.069,150.067C107.807,149.689 107.286,149.594 106.907,149.857C106.528,150.119 106.434,150.64 106.696,151.019ZM102.573,151.019C103.085,151.757 103.126,152.496 102.586,153.234C102.313,153.606 102.394,154.129 102.766,154.401C103.138,154.674 103.661,154.593 103.934,154.221C104.947,152.836 104.906,151.452 103.946,150.067C103.684,149.689 103.163,149.594 102.784,149.857C102.405,150.119 102.311,150.64 102.573,151.019ZM129.302,154.111L129.412,154.111C129.68,154.105 129.908,154.012 130.097,153.833C130.3,153.643 130.4,153.41 130.4,153.138L130.4,150.205C130.4,149.936 130.302,149.703 130.102,149.505C129.906,149.311 129.667,149.213 129.386,149.213L128.747,149.213L128.747,137.74C128.747,137.468 128.646,137.236 128.444,137.045C128.249,136.861 128.012,136.767 127.733,136.767L120.79,136.767C120.507,136.767 120.272,136.863 120.083,137.05C119.892,137.239 119.796,137.47 119.796,137.74L119.796,138.345C119.796,140.199 119.783,141.604 119.757,142.562C119.731,143.518 119.696,144.395 119.65,145.192C119.607,145.957 119.517,146.55 119.375,146.97C119.232,147.391 119.077,147.757 118.91,148.067C118.746,148.37 118.497,148.752 118.165,149.213L117.911,149.213C117.63,149.213 117.392,149.311 117.195,149.505C116.996,149.703 116.898,149.936 116.898,150.205L116.898,153.138C116.898,153.41 116.998,153.643 117.201,153.833C117.396,154.017 117.632,154.111 117.911,154.111L117.97,154.111C118.249,154.111 118.485,154.017 118.681,153.833C118.883,153.643 118.983,153.41 118.983,153.138L118.983,151.105L128.314,151.105L128.314,153.138C128.314,153.41 128.415,153.643 128.617,153.833C128.806,154.012 129.034,154.105 129.302,154.111ZM98.344,136.792C94.65,142.121 94.458,147.45 98.359,152.78C98.7,153.245 99.354,153.346 99.819,153.005C100.285,152.665 100.386,152.01 100.045,151.545C96.735,147.024 96.927,142.504 100.061,137.983C100.389,137.509 100.271,136.857 99.797,136.529C99.324,136.2 98.672,136.318 98.344,136.792ZM138.625,137.983C141.759,142.504 141.951,147.024 138.641,151.545C138.3,152.01 138.401,152.665 138.866,153.005C139.332,153.346 139.986,153.245 140.327,152.78C144.228,147.45 144.036,142.121 140.342,136.792C140.014,136.318 139.362,136.2 138.888,136.529C138.415,136.857 138.296,137.509 138.625,137.983ZM120.736,149.213C121.303,148.222 121.644,147.242 121.762,146.275C121.89,145.231 121.957,142.693 121.959,138.658L126.525,138.658L126.525,149.213L120.736,149.213ZM111.616,135.231C110.193,135.231 109.03,136.399 109.03,137.847C109.03,139.295 110.193,140.463 111.616,140.463C113.04,140.463 114.202,139.295 114.202,137.847C114.202,136.399 113.04,135.231 111.616,135.231ZM133.969,135.231C132.546,135.231 131.383,136.399 131.383,137.847C131.383,139.295 132.546,140.463 133.969,140.463C135.393,140.463 136.555,139.295 136.555,137.847C136.555,136.399 135.393,135.231 133.969,135.231ZM111.616,136.894C112.129,136.894 112.539,137.325 112.539,137.847C112.539,138.369 112.129,138.8 111.616,138.8C111.103,138.8 110.693,138.369 110.693,137.847C110.693,137.325 111.103,136.894 111.616,136.894ZM133.969,136.894C134.482,136.894 134.892,137.325 134.892,137.847C134.892,138.369 134.482,138.8 133.969,138.8C133.456,138.8 133.046,138.369 133.046,137.847C133.046,137.325 133.456,136.894 133.969,136.894ZM92.97,114.359C89.277,119.688 89.085,125.017 92.986,130.346C93.327,130.812 93.981,130.913 94.446,130.572C94.912,130.232 95.013,129.577 94.672,129.112C91.362,124.591 91.554,120.07 94.688,115.55C95.016,115.076 94.898,114.424 94.424,114.096C93.95,113.767 93.299,113.885 92.97,114.359ZM141.429,114.782L125.382,128.317C124.897,128.727 124.835,129.453 125.245,129.938C125.654,130.423 126.38,130.485 126.865,130.076L142.912,116.54C143.397,116.13 143.459,115.404 143.049,114.919C142.64,114.434 141.914,114.372 141.429,114.782ZM105.726,120.385C106.69,120.385 107.473,121.167 107.473,122.131C107.473,123.095 106.69,123.878 105.726,123.878C104.763,123.878 103.98,123.095 103.98,122.131C103.98,121.167 104.763,120.385 105.726,120.385ZM86.355,116.709L86.355,118.887C86.355,119.406 86.777,119.828 87.296,119.828C87.815,119.828 88.236,119.406 88.236,118.887L88.236,116.709C88.236,116.19 87.815,115.768 87.296,115.768C86.777,115.768 86.355,116.19 86.355,116.709ZM82.207,116.709L82.207,118.887C82.207,119.406 82.629,119.828 83.148,119.828C83.667,119.828 84.088,119.406 84.088,118.887L84.088,116.709C84.088,116.19 83.667,115.768 83.148,115.768C82.629,115.768 82.207,116.19 82.207,116.709ZM78.06,116.709L78.06,118.887C78.06,119.406 78.481,119.828 79,119.828C79.519,119.828 79.941,119.406 79.941,118.887L79.941,116.709C79.941,116.19 79.519,115.768 79,115.768C78.481,115.768 78.06,116.19 78.06,116.709ZM124.79,110.003L142.726,110.003C143.303,110.003 143.77,109.535 143.77,108.959C143.77,108.383 143.303,107.915 142.726,107.915L124.79,107.915C124.214,107.915 123.746,108.383 123.746,108.959C123.746,109.535 124.214,110.003 124.79,110.003ZM73.454,95.932C73.034,95.511 72.513,95.297 71.879,95.297C70.769,95.297 69.718,95.962 68.789,97.384C68.769,97.415 68.752,97.449 68.738,97.483C68.473,98.18 68.624,98.692 69.062,99.041C69.271,99.21 69.494,99.285 69.722,99.285C70.008,99.284 70.326,99.158 70.642,98.842C70.656,98.828 70.669,98.814 70.681,98.799L71.319,98C71.462,97.829 71.578,97.707 71.721,97.707C71.755,97.707 71.778,97.735 71.803,97.764C71.863,97.833 71.913,97.927 71.96,98.041C72.215,98.66 72.327,99.744 72.327,101.29C72.327,101.651 72.306,101.991 72.264,102.311C70.898,104.469 70.231,106.386 70.231,108.05C70.231,108.481 70.288,108.796 70.373,108.997C70.488,109.271 70.668,109.417 70.859,109.483C71.055,109.551 71.299,109.547 71.576,109.387C71.597,109.375 71.616,109.362 71.635,109.348C72.18,108.926 72.641,108.27 73.008,107.366C73.593,106.079 74.054,104.68 74.382,103.176C74.942,102.276 75.599,101.448 76.355,100.693C77.552,99.496 78.957,98.482 80.57,97.649C80.592,97.638 80.613,97.625 80.633,97.611C80.943,97.391 81.116,97.127 81.182,96.84C81.246,96.562 81.21,96.249 81.039,95.907C81.021,95.87 80.998,95.836 80.972,95.804C80.564,95.32 80.012,95.161 79.282,95.403C79.266,95.409 79.25,95.415 79.234,95.422C77.942,95.997 76.325,97.368 74.406,99.556C74.374,98.656 74.287,97.92 74.147,97.348C73.984,96.686 73.741,96.22 73.454,95.932ZM148.538,102.643C146.798,102.643 145.379,104.072 145.379,105.841C145.379,107.61 146.798,109.039 148.538,109.039C150.277,109.039 151.696,107.61 151.696,105.841C151.696,104.072 150.277,102.643 148.538,102.643ZM119.322,93.378C122.456,97.898 122.648,102.419 119.338,106.94C118.997,107.405 119.098,108.06 119.563,108.4C120.029,108.741 120.683,108.64 121.024,108.174C124.925,102.845 124.733,97.516 121.039,92.187C120.711,91.713 120.059,91.595 119.585,91.924C119.112,92.252 118.993,92.904 119.322,93.378ZM104.794,93.378C107.928,97.898 108.12,102.419 104.81,106.94C104.469,107.405 104.57,108.06 105.035,108.4C105.501,108.741 106.155,108.64 106.496,108.174C110.397,102.845 110.205,97.516 106.511,92.187C106.183,91.713 105.531,91.595 105.057,91.924C104.584,92.252 104.465,92.904 104.794,93.378ZM148.538,104.312C149.364,104.312 150.027,105.001 150.027,105.841C150.027,106.681 149.364,107.37 148.538,107.37C147.712,107.37 147.048,106.681 147.048,105.841C147.048,105.001 147.712,104.312 148.538,104.312ZM109.657,93.38C109.654,93.377 109.651,93.374 109.649,93.372C109.492,93.21 109.397,93.006 109.377,92.755C109.358,92.508 109.416,92.298 109.532,92.122C109.533,92.121 109.534,92.12 109.535,92.119C110.195,91.136 111.049,90.667 112.07,90.676C112.891,90.676 113.655,91.041 114.343,91.814C114.343,91.814 114.344,91.814 114.344,91.815C114.677,92.191 114.991,92.413 115.328,92.408L115.336,92.408C115.533,92.408 115.713,92.363 115.874,92.269C116.061,92.16 116.24,91.974 116.42,91.725C116.579,91.494 116.786,91.378 117.023,91.348C117.285,91.316 117.514,91.392 117.707,91.586L117.793,91.675L117.764,91.642C117.917,91.803 118.01,92.004 118.029,92.252C118.048,92.487 117.996,92.695 117.886,92.877C117.881,92.885 117.876,92.892 117.872,92.899C117.211,93.881 116.358,94.351 115.336,94.342C114.516,94.342 113.751,93.977 113.063,93.204L113.062,93.203C112.727,92.824 112.41,92.6 112.07,92.6C111.646,92.6 111.29,92.856 110.966,93.308C110.965,93.31 110.963,93.312 110.962,93.314C110.804,93.529 110.603,93.64 110.373,93.669C110.123,93.701 109.899,93.632 109.707,93.448C109.7,93.442 109.693,93.435 109.687,93.429L109.743,93.478C109.71,93.449 109.681,93.416 109.657,93.38ZM86.132,92.417C90.653,89.284 95.174,89.092 99.695,92.402C100.16,92.742 100.814,92.641 101.155,92.176C101.496,91.71 101.395,91.056 100.929,90.716C95.6,86.814 90.271,87.006 84.942,90.7C84.468,91.028 84.35,91.68 84.679,92.154C85.007,92.628 85.659,92.746 86.132,92.417Z" style="fill-rule:nonzero;"/>
    </g>
</svg>
