<?xml version="1.0" encoding="UTF-8" standalone="no"?>
<!DOCTYPE svg PUBLIC "-//W3C//DTD SVG 1.1//EN" "http://www.w3.org/Graphics/SVG/1.1/DTD/svg11.dtd">
<svg width="67px" height="88px" version="1.1" xmlns="http://www.w3.org/2000/svg" xmlns:xlink="http://www.w3.org/1999/xlink" xml:space="preserve" xmlns:serif="http://www.serif.com/" style="fill-rule:evenodd;clip-rule:evenodd;stroke-linejoin:round;stroke-miterlimit:2;">
    <g transform="matrix(0.627469,0,0,0.627469,-313.015,-26.1232)">
        <path d="M550.142,175.301C548.531,175.996 546.944,176.632 544.524,177.058C542.985,178.888 540.333,179.708 537.312,181L513,181C510.896,180.582 509.198,179.488 507.611,178.207L502.258,168.5L508.258,157.5L512,151L512,126L506.784,120C501.954,113.403 502.212,106.807 506.784,100.21L512,92.31L509.242,90L500.242,81.5L509.242,73L512,63L521,44L530,63L535,65L560,65L565,63L574,44L583,61.816L595.242,73L604.242,81.5L595.242,90L587.503,97.6L589.473,100.21C594.046,106.807 594.303,113.403 589.473,120C586.887,122.476 584.376,124.576 582,126L582,162L598,162C596.39,170.99 591.683,176.739 583,177.746C580.522,179.647 577.919,180.151 575.704,181L559,181C555.219,179.929 552.279,178.016 550.142,175.301Z" style="fill:white;"/>
    </g>
    <g transform="matrix(0.627469,0,0,0.627469,-35.5216,-48.8033)">
        <path d="M116.758,218.024L133.758,218.024C134.565,218.024 135.22,217.368 135.22,216.561C135.22,215.754 134.565,215.099 133.758,215.099L116.758,215.099C115.95,215.099 115.295,215.754 115.295,216.561C115.295,217.368 115.95,218.024 116.758,218.024ZM95.258,215.099L70.758,215.099C69.95,215.099 69.295,215.754 69.295,216.561C69.295,217.368 69.95,218.024 70.758,218.024L95.258,218.024C96.065,218.024 96.72,217.368 96.72,216.561C96.72,215.754 96.065,215.099 95.258,215.099ZM63.796,192.396L57.796,203.396C57.57,203.811 57.57,204.312 57.796,204.726L63.796,215.726C64.163,216.399 65.007,216.648 65.68,216.28C66.353,215.913 66.602,215.069 66.235,214.396L60.597,204.061L66.235,193.726C66.602,193.053 66.353,192.209 65.68,191.842C65.007,191.475 64.163,191.723 63.796,192.396ZM114.958,199.024C114.152,202.365 112.829,205.031 110.879,207.006C108.635,209.278 105.57,210.606 101.608,211.065C100.806,211.158 100.231,211.885 100.324,212.687C100.417,213.488 101.143,214.064 101.945,213.971C106.666,213.423 110.286,211.768 112.96,209.061C115.603,206.384 117.332,202.651 118.197,197.819C118.197,197.819 118.201,197.772 118.207,197.693C118.24,197.286 118.103,196.884 117.829,196.582C117.554,196.28 117.167,196.105 116.759,196.099L99.758,196.099C98.95,196.099 98.295,196.754 98.295,197.561C98.295,198.368 98.95,199.024 99.758,199.024L114.958,199.024ZM153.962,199.024C153.156,202.365 151.833,205.031 149.883,207.006C147.639,209.278 144.574,210.606 140.612,211.065C139.81,211.158 139.235,211.885 139.328,212.687C139.421,213.488 140.147,214.064 140.949,213.971C145.67,213.423 149.29,211.768 151.964,209.061C154.607,206.384 156.336,202.651 157.201,197.819C157.201,197.819 157.205,197.772 157.211,197.693C157.244,197.286 157.107,196.884 156.833,196.582C156.558,196.28 156.171,196.105 155.763,196.099L138.762,196.099C137.954,196.099 137.299,196.754 137.299,197.561C137.299,198.368 137.954,199.024 138.762,199.024L153.962,199.024ZM102.795,161.561L102.795,186.561C102.795,187.368 103.45,188.024 104.258,188.024C105.065,188.024 105.72,187.368 105.72,186.561L105.72,161.561C105.72,160.754 105.065,160.099 104.258,160.099C103.45,160.099 102.795,160.754 102.795,161.561ZM138.295,161.561L138.295,186.561C138.295,187.368 138.95,188.024 139.758,188.024C140.565,188.024 141.22,187.368 141.22,186.561L141.22,161.561C141.22,160.754 140.565,160.099 139.758,160.099C138.95,160.099 138.295,160.754 138.295,161.561ZM68.295,161.561L68.295,186.561C68.295,187.368 68.95,188.024 69.758,188.024C70.565,188.024 71.22,187.368 71.22,186.561L71.22,161.561C71.22,160.754 70.565,160.099 69.758,160.099C68.95,160.099 68.295,160.754 68.295,161.561ZM63.4,134.98C58.455,142.114 58.198,149.248 63.421,156.382C63.874,157 64.744,157.135 65.362,156.682C65.981,156.229 66.115,155.359 65.663,154.741C61.226,148.681 61.483,142.622 65.683,136.563C66.12,135.933 65.963,135.067 65.333,134.63C64.703,134.193 63.837,134.35 63.4,134.98ZM146.09,136.563C150.29,142.622 150.547,148.681 146.11,154.741C145.658,155.359 145.792,156.229 146.41,156.682C147.029,157.135 147.899,157 148.352,156.382C153.575,149.248 153.318,142.114 148.372,134.98C147.936,134.35 147.07,134.193 146.44,134.63C145.81,135.067 145.653,135.933 146.09,136.563ZM128.596,112.611L118.919,112.611L117.066,108.904C116.705,108.182 115.826,107.889 115.104,108.25C114.382,108.611 114.089,109.49 114.45,110.212L122.45,126.212C122.697,126.708 123.204,127.021 123.758,127.021C124.312,127.021 124.818,126.708 125.066,126.212L133.066,110.212C133.427,109.49 133.134,108.611 132.412,108.25C131.689,107.889 130.811,108.182 130.45,108.904L128.596,112.611ZM159.977,117.061L152.046,124.551C151.489,125.078 151.464,125.957 151.99,126.515C152.517,127.072 153.396,127.097 153.954,126.571L162.954,118.071L162.952,118.071C163.097,117.935 163.214,117.767 163.291,117.574C163.501,117.046 163.367,116.442 162.954,116.051L153.954,107.551C153.396,107.025 152.517,107.05 151.99,107.607C151.464,108.165 151.489,109.045 152.046,109.571L159.977,117.061ZM60.023,117.061L67.954,124.551C68.511,125.078 68.536,125.957 68.01,126.515C67.483,127.072 66.604,127.097 66.046,126.571L57.046,118.071L57.048,118.071C56.903,117.935 56.786,117.767 56.709,117.574C56.499,117.046 56.633,116.442 57.046,116.051L66.046,107.551C66.604,107.025 67.483,107.05 68.01,107.607C68.536,108.165 68.511,109.045 67.954,109.571L60.023,117.061ZM74.984,111.715C79.514,114.751 84.818,119.351 87.739,122.505C88.26,123.067 89.139,123.101 89.701,122.58C90.264,122.059 90.297,121.18 89.777,120.617C86.743,117.342 81.236,112.561 76.531,109.407C75.894,108.981 75.031,109.151 74.604,109.788C74.177,110.425 74.348,111.288 74.984,111.715ZM127.134,115.536L120.382,115.536L123.758,122.288L127.134,115.536ZM144.724,105.524L140.724,109.524C140.153,110.095 140.153,111.022 140.724,111.592C141.294,112.163 142.221,112.163 142.792,111.592L146.792,107.592C147.363,107.022 147.363,106.095 146.792,105.524C146.221,104.953 145.294,104.953 144.724,105.524ZM99.724,107.592L103.724,111.592C104.294,112.163 105.221,112.163 105.792,111.592C106.363,111.022 106.363,110.095 105.792,109.524L101.792,105.524C101.221,104.953 100.294,104.953 99.724,105.524C99.153,106.095 99.153,107.022 99.724,107.592ZM92.758,102.024L117.758,102.024C118.565,102.024 119.22,101.368 119.22,100.561C119.22,99.754 118.565,99.099 117.758,99.099L92.758,99.099C91.95,99.099 91.295,99.754 91.295,100.561C91.295,101.368 91.95,102.024 92.758,102.024ZM124.079,99.187L131.758,82.977L139.436,99.187C139.781,99.917 140.654,100.228 141.384,99.883C142.113,99.537 142.425,98.665 142.079,97.935L133.079,78.935C132.837,78.424 132.323,78.099 131.758,78.099C131.192,78.099 130.678,78.424 130.436,78.935L121.436,97.935C121.09,98.665 121.402,99.537 122.132,99.883C122.861,100.228 123.734,99.917 124.079,99.187ZM70.079,99.187L77.758,82.977L85.436,99.187C85.781,99.917 86.654,100.228 87.384,99.883C88.113,99.537 88.425,98.665 88.079,97.935L79.079,78.935C78.837,78.424 78.323,78.099 77.758,78.099C77.192,78.099 76.678,78.424 76.436,78.935L67.436,97.935C67.09,98.665 67.402,99.537 68.132,99.883C68.861,100.228 69.734,99.917 70.079,99.187Z"/>
    </g>
</svg>
