<?xml version="1.0" encoding="UTF-8" standalone="no"?>
<!DOCTYPE svg PUBLIC "-//W3C//DTD SVG 1.1//EN" "http://www.w3.org/Graphics/SVG/1.1/DTD/svg11.dtd">
<svg width="63px" height="87px" version="1.1" xmlns="http://www.w3.org/2000/svg" xmlns:xlink="http://www.w3.org/1999/xlink" xml:space="preserve" xmlns:serif="http://www.serif.com/" style="fill-rule:evenodd;clip-rule:evenodd;stroke-linejoin:round;stroke-miterlimit:2;">
    <g transform="matrix(0.588051,0,0,0.604053,-37.4693,-18.7821)">
        <path d="M77,61C72.946,67.223 71.875,75 77,82C74.668,84.412 72.554,86.983 70.677,89.727C65.824,96.727 65.551,103.727 70.677,110.727C75.065,115.13 80.433,118.263 86.485,120.506C81.633,127.506 81.36,135.349 86.485,142.349C78.767,142.042 72.711,141.31 73.227,152.314C71.975,163.941 73.006,169.373 76.3,170.023C81.282,171.006 83.846,168.76 86.808,162.779L89.588,156.669C91.976,153.435 95.879,155.918 95.879,155.918C92.69,163.501 92.953,166.074 98.078,173.074C99.242,173.877 100.715,174.199 102.767,173.62L127.006,173.62C128.817,173.946 130.205,173.743 131.222,173.074C136.347,166.074 136.074,159.074 131.222,152.074C129.362,148.982 127.026,146.022 123.918,143.277C123.676,143.064 123.556,142.749 123.597,142.434C123.639,142.119 123.837,141.844 124.127,141.698C125.353,141.08 127.006,140.25 127.006,140.25C134.153,136.011 137.618,130.846 137.964,122.393C138.188,116.908 140.531,114.102 145.891,111.853C148.586,111.662 150.586,109.874 151.768,107.436C152.102,106.752 152.275,106.004 152.275,105.247C152.299,103.308 152.299,98.582 152.299,94.658C152.3,91.476 154.209,88.587 157.184,87.267C159.14,86.4 161.364,85.027 163.892,83.026C169.018,76.026 168.742,69.028 163.892,62.026C157.839,54.43 147.597,46.543 127.006,44.317C114.368,42.952 85.941,47.276 77,61Z" style="fill:white;"/>
    </g>
    <g transform="matrix(0.619742,0,0,0.619742,-36.6716,-48.3027)">
        <path d="M96.224,218.321L119.225,218.321C120.032,218.321 120.687,217.665 120.687,216.858C120.687,216.051 120.032,215.395 119.224,215.395L96.225,215.395C95.417,215.395 94.762,216.051 94.762,216.858C94.762,217.665 95.417,218.321 96.224,218.321ZM90.564,195.04C85.585,202.418 85.326,209.797 90.585,217.175C91.053,217.832 91.967,217.985 92.624,217.517C93.281,217.048 93.434,216.135 92.966,215.478C88.499,209.21 88.758,202.943 92.987,196.676C93.439,196.007 93.262,195.097 92.593,194.646C91.924,194.195 91.015,194.371 90.564,195.04ZM122.012,196.676C126.241,202.943 126.501,209.21 122.034,215.478C121.565,216.135 121.719,217.048 122.376,217.517C123.033,217.985 123.946,217.832 124.415,217.175C129.674,209.797 129.415,202.418 124.436,195.04C123.985,194.371 123.075,194.195 122.406,194.646C121.738,195.097 121.561,196.007 122.012,196.676ZM80.889,205.485L80.875,205.48C80.55,205.362 80.225,205.374 79.9,205.52C79.579,205.665 79.347,205.905 79.209,206.242C79.209,206.243 79.209,206.244 79.208,206.245C78.45,208.137 77.53,209.579 76.431,210.558C75.39,211.487 74.259,211.96 73.029,211.96C72.325,211.96 71.756,211.89 71.324,211.737C70.938,211.599 70.599,211.336 70.299,210.958C69.975,210.549 69.757,209.961 69.622,209.205C69.471,208.365 69.398,207.284 69.398,205.963C69.398,203.46 69.465,200.448 69.6,196.927C69.621,196.577 69.507,196.261 69.245,195.985C69,195.727 68.718,195.592 68.408,195.562L68.234,195.537C67.863,195.511 67.539,195.635 67.267,195.921C67.025,196.175 66.894,196.476 66.873,196.822C66.872,196.827 66.872,196.832 66.872,196.836C66.737,200.433 66.669,203.475 66.669,205.963C66.669,209.201 67.151,211.428 68.038,212.659C68.968,213.95 70.619,214.645 73.029,214.645C74.903,214.645 76.588,214.003 78.084,212.712C79.532,211.463 80.736,209.631 81.677,207.206C81.679,207.203 81.68,207.199 81.681,207.196C81.794,206.888 81.794,206.568 81.67,206.236C81.536,205.878 81.295,205.637 80.955,205.508L80.99,205.523L80.889,205.485ZM79.564,164.271C74.585,171.649 74.326,179.028 79.585,186.406C80.053,187.063 80.967,187.216 81.624,186.748C82.281,186.279 82.434,185.366 81.966,184.709C77.499,178.441 77.758,172.174 81.987,165.907C82.439,165.238 82.262,164.328 81.593,163.877C80.924,163.426 80.015,163.602 79.564,164.271ZM127.559,166.99C127.009,174.687 124.848,179.282 118.502,183.148C117.848,183.547 117.641,184.401 118.039,185.055C118.438,185.709 119.292,185.916 119.946,185.518C127.163,181.121 129.701,175.941 130.327,167.188C130.382,166.425 129.806,165.76 129.042,165.706C128.278,165.651 127.614,166.227 127.559,166.99ZM102.452,172.242C106.271,174.802 110.744,178.681 113.206,181.34C113.727,181.902 114.605,181.936 115.167,181.415C115.729,180.895 115.763,180.016 115.243,179.454C112.667,176.673 107.992,172.614 103.997,169.937C103.361,169.51 102.498,169.681 102.072,170.317C101.645,170.953 101.816,171.816 102.452,172.242ZM141.836,138.089L141.836,150.209C141.836,150.818 141.686,151.417 141.391,151.95C140.478,153.588 139.068,154.562 137.124,154.704C136.359,154.759 135.784,155.425 135.84,156.19C135.895,156.954 136.561,157.53 137.326,157.474C140.281,157.259 142.431,155.79 143.818,153.301C143.819,153.3 143.819,153.299 143.82,153.298C144.344,152.352 144.614,151.29 144.614,150.209L144.614,138.089C144.614,137.323 143.991,136.7 143.225,136.7C142.458,136.7 141.836,137.323 141.836,138.089ZM64.564,134.271C59.585,141.65 59.326,149.028 64.585,156.406C65.053,157.063 65.967,157.217 66.624,156.748C67.281,156.28 67.434,155.366 66.966,154.709C62.499,148.442 62.758,142.174 66.987,135.907C67.439,135.238 67.262,134.329 66.593,133.877C65.924,133.426 65.015,133.603 64.564,134.271ZM70.606,145.593C73.426,144.79 75.874,143.555 78.145,142.887C79.996,142.343 81.709,142.199 83.433,143.397C84.163,143.905 84.667,144.489 84.999,145.104C85.584,146.211 85.682,147.511 85.27,148.692C84.857,149.876 83.97,150.834 82.822,151.337C82.819,151.338 82.817,151.339 82.814,151.34C81.254,152.034 79.511,152.708 77.13,152.872C76.366,152.925 75.788,153.588 75.84,154.353C75.893,155.117 76.556,155.695 77.321,155.643C80.093,155.452 82.127,154.686 83.943,153.877C85.791,153.069 87.225,151.52 87.892,149.607C88.56,147.695 88.4,145.59 87.451,143.8C87.45,143.797 87.448,143.794 87.447,143.791C86.93,142.831 86.156,141.909 85.018,141.117C82.517,139.379 80.047,139.434 77.362,140.223C75.097,140.889 72.657,142.122 69.845,142.922C69.108,143.132 68.68,143.901 68.89,144.638C69.1,145.375 69.869,145.803 70.606,145.593ZM153.012,108.907C157.241,115.174 157.501,121.442 153.034,127.709C152.565,128.366 152.719,129.28 153.376,129.748C154.033,130.217 154.946,130.063 155.415,129.406C160.674,122.028 160.415,114.65 155.436,107.271C154.985,106.603 154.075,106.426 153.406,106.877C152.738,107.329 152.561,108.238 153.012,108.907ZM70.564,106.271C65.585,113.65 65.326,121.028 70.585,128.406C71.053,129.063 71.967,129.217 72.624,128.748C73.281,128.28 73.434,127.366 72.966,126.709C68.499,120.442 68.758,114.174 72.987,107.907C73.439,107.238 73.262,106.329 72.593,105.877C71.924,105.426 71.015,105.603 70.564,106.271ZM107.065,112.144L97.385,112.144L95.53,108.436C95.17,107.715 94.293,107.423 93.572,107.783C92.85,108.144 92.558,109.021 92.919,109.742L100.919,125.742C101.166,126.237 101.671,126.549 102.224,126.549C102.778,126.549 103.283,126.237 103.53,125.742L111.53,109.742C111.891,109.021 111.598,108.144 110.877,107.783C110.157,107.423 109.279,107.716 108.919,108.436L107.065,112.144ZM144.44,124.642L144.44,117.129C144.44,115.139 143.65,113.232 142.244,111.825L142.243,111.824C140.836,110.417 138.929,109.627 136.939,109.627L136.936,109.627C135.033,109.627 133.208,110.383 131.863,111.728L131.862,111.729C130.518,113.075 129.761,114.9 129.761,116.802L129.761,124.642C129.761,125.449 130.417,126.104 131.224,126.104C132.032,126.104 132.687,125.449 132.687,124.642L132.687,116.802C132.687,115.676 133.135,114.594 133.931,113.797C134.728,113.001 135.809,112.553 136.936,112.553L136.939,112.553C138.153,112.553 139.316,113.035 140.175,113.893C141.032,114.751 141.515,115.915 141.515,117.129L141.515,124.642C141.515,125.449 142.17,126.104 142.977,126.104C143.785,126.104 144.44,125.449 144.44,124.642ZM105.605,115.064L98.844,115.064L102.224,121.825L105.605,115.064ZM116.19,108.123L120.19,112.123C120.761,112.694 121.688,112.694 122.259,112.123C122.829,111.553 122.829,110.626 122.259,110.055L118.259,106.055C117.688,105.484 116.761,105.484 116.19,106.055C115.62,106.626 115.62,107.553 116.19,108.123ZM83.191,106.055L79.191,110.055C78.62,110.626 78.62,111.553 79.191,112.123C79.761,112.694 80.688,112.694 81.259,112.123L85.259,108.123C85.83,107.553 85.83,106.626 85.259,106.055C84.688,105.484 83.761,105.484 83.191,106.055ZM87.729,77.94C81.851,77.94 77.079,82.712 77.079,88.589C77.079,94.467 81.851,99.239 87.729,99.239C93.606,99.239 98.378,94.467 98.378,88.589C98.378,82.712 93.606,77.94 87.729,77.94ZM114.229,77.94C108.351,77.94 103.579,82.712 103.579,88.589C103.579,94.467 108.351,99.239 114.229,99.239C120.106,99.239 124.878,94.467 124.878,88.589C124.878,82.712 120.106,77.94 114.229,77.94ZM140.725,77.94C134.847,77.94 130.075,82.712 130.075,88.589C130.075,94.467 134.847,99.239 140.725,99.239C146.602,99.239 151.374,94.467 151.374,88.589C151.374,82.712 146.602,77.94 140.725,77.94Z"/>
    </g>
</svg>
