<?xml version="1.0" encoding="UTF-8" standalone="no"?>
<!DOCTYPE svg PUBLIC "-//W3C//DTD SVG 1.1//EN" "http://www.w3.org/Graphics/SVG/1.1/DTD/svg11.dtd">
<svg width="62px" height="98px" version="1.1" xmlns="http://www.w3.org/2000/svg" xmlns:xlink="http://www.w3.org/1999/xlink" xml:space="preserve" xmlns:serif="http://www.serif.com/" style="fill-rule:evenodd;clip-rule:evenodd;stroke-linejoin:round;stroke-miterlimit:2;">
    <g transform="matrix(0.608353,0,0,0.608353,-38.5824,-29.0593)">
        <path d="M134.79,114.855C132.029,115.988 130.228,118.68 130.234,121.665C130.235,122.51 130.236,123.121 130.236,123.121L135.449,123.121C138.877,123.121 141.656,125.675 141.656,128.827L141.656,128.828C141.656,131.797 139.038,134.204 135.808,134.204L130.236,134.204L130.236,144.552C130.236,147.58 129.441,150.554 127.931,153.177C126.034,156.473 123.656,160.604 123.656,160.604C121.621,162.838 120.846,166.646 120.1,170.491C119.07,176.093 117.418,179.758 113.527,183.665C109.381,187.378 107.057,191.504 107.094,196.167L107.094,202.577C107.094,205.432 104.966,207.747 102.341,207.747L102.34,207.747C99.867,207.747 97.862,205.566 97.862,202.876L97.862,196.485C97.862,195.327 96.922,194.387 95.764,194.387L95.762,194.387C94.604,194.387 93.664,195.327 93.664,196.485L93.664,202.577C93.664,205.432 91.536,207.747 88.911,207.747L88.91,207.747C86.437,207.747 84.432,205.566 84.432,202.876L84.432,196.167C84.432,191.962 82.98,186.274 89.819,183.665C93.71,179.758 95.363,176.093 96.393,170.491C94.022,167.785 91.644,165.023 89.082,160.781C84.491,155.342 85.305,149.903 89.652,144.464C91.37,141.626 91.054,139.369 89.652,137.423C85.061,131.983 85.305,126.544 89.652,121.105C90.558,119.046 90.96,116.666 91.029,114.075L91.029,95.019C90.986,90.467 89.211,87.449 85.306,86.315L72.368,86.315L84.432,72.606C85.957,71.297 87.901,70.468 90.725,70.646L109.353,70.646C110.573,71.155 111.686,71.809 112.549,72.794C112.549,72.794 122.62,81.722 127.532,86.077C129.206,87.562 130.167,89.691 130.171,91.929L130.19,101.135C131.397,100.822 134.25,99.851 134.864,97.549C135.499,95.173 135.159,90.687 135.159,86.689C135.159,84.174 135.115,81.26 135.115,79.803C135.115,76.375 137.669,73.597 140.82,73.597L140.822,73.597C143.791,73.597 146.198,76.215 146.198,79.444C146.198,83.245 146.337,86.31 146.337,86.31L145.984,101.204C145.984,101.204 145.868,104.643 145.809,106.419C145.772,107.522 145.371,108.582 144.669,109.434C143.475,110.881 141.788,111.886 140.699,112.381C139.313,113.011 136.977,113.973 134.79,114.855Z" style="fill:white;"/>
    </g>
    <g transform="matrix(0.608353,0,0,0.608353,-38.5824,-29.0593)">
        <path d="M92.553,196.167L92.553,202.577C92.553,204.794 90.95,206.636 88.911,206.636L88.91,206.636C87.024,206.636 85.543,204.928 85.543,202.876L85.543,196.167C85.543,195.554 85.045,195.056 84.432,195.056C83.819,195.056 83.321,195.554 83.321,196.167L83.321,202.876C83.321,206.204 85.85,208.858 88.91,208.858L88.911,208.858C92.123,208.858 94.776,206.071 94.776,202.577L94.776,196.167C94.776,195.554 94.278,195.056 93.664,195.056C93.051,195.056 92.553,195.554 92.553,196.167ZM105.983,196.167L105.983,202.577C105.983,204.794 104.379,206.636 102.341,206.636L102.34,206.636C100.453,206.636 98.973,204.928 98.973,202.876L98.973,196.167C98.973,195.554 98.475,195.056 97.862,195.056C97.248,195.056 96.751,195.554 96.751,196.167L96.751,202.876C96.751,206.204 99.28,208.858 102.34,208.858L102.341,208.858C105.553,208.858 108.205,206.071 108.205,202.577L108.205,196.167C108.205,195.554 107.707,195.056 107.094,195.056C106.481,195.056 105.983,195.554 105.983,196.167ZM106.005,177.476L100.104,183.377C99.67,183.811 99.67,184.515 100.104,184.949C100.537,185.382 101.242,185.382 101.675,184.949L108.101,178.523C108.236,178.417 108.368,178.254 108.453,178.014C108.465,177.98 108.539,177.773 108.539,177.773L108.538,177.773C108.685,177.369 108.586,176.915 108.28,176.608L101.765,170.094C101.332,169.66 100.628,169.66 100.194,170.094C99.76,170.528 99.76,171.232 100.194,171.665L106.005,177.476ZM95.263,170.283C94.28,175.626 92.716,179.128 89.005,182.854C88.558,183.304 88.559,184.032 89.008,184.479C89.458,184.927 90.186,184.925 90.633,184.476C94.705,180.389 96.445,176.56 97.523,170.699C97.638,170.075 97.224,169.476 96.601,169.361C95.977,169.246 95.377,169.66 95.263,170.283ZM118.97,170.283C117.988,175.626 116.424,179.128 112.713,182.854C112.265,183.304 112.267,184.032 112.716,184.479C113.165,184.927 113.893,184.925 114.341,184.476C118.412,180.389 120.153,176.56 121.23,170.699C121.345,170.075 120.932,169.476 120.308,169.361C119.684,169.246 119.085,169.66 118.97,170.283ZM88.784,143.77C86.433,146.713 85.222,149.668 85.189,152.61C85.156,155.568 86.306,158.54 88.803,161.498C89.199,161.966 89.9,162.026 90.369,161.63C90.838,161.235 90.897,160.533 90.501,160.064C88.407,157.584 87.384,155.116 87.412,152.635C87.44,150.138 88.525,147.655 90.52,145.158C90.903,144.679 90.825,143.979 90.346,143.596C89.867,143.213 89.167,143.291 88.784,143.77ZM130.859,145.787L122.66,160.031C122.344,160.581 122.533,161.284 123.083,161.6C123.632,161.917 124.335,161.727 124.652,161.178L132.851,146.934C133.167,146.384 132.978,145.681 132.428,145.364C131.878,145.048 131.175,145.238 130.859,145.787ZM109.788,151.168C112.584,153.042 115.858,155.882 117.661,157.828C118.182,158.391 119.061,158.425 119.624,157.904C120.186,157.383 120.22,156.503 119.699,155.941C117.783,153.872 114.305,150.852 111.334,148.861C110.697,148.434 109.834,148.605 109.407,149.241C108.98,149.878 109.151,150.742 109.788,151.168ZM88.784,120.412C86.433,123.354 85.222,126.309 85.189,129.251C85.156,132.21 86.306,135.181 88.803,138.139C89.199,138.608 89.9,138.667 90.369,138.272C90.838,137.876 90.897,137.174 90.501,136.706C88.407,134.225 87.384,131.757 87.412,129.276C87.44,126.78 88.525,124.296 90.52,121.799C90.903,121.32 90.825,120.62 90.346,120.237C89.867,119.855 89.167,119.933 88.784,120.412ZM105.53,135.891L121.007,135.891C121.358,135.891 121.658,135.76 121.903,135.49C122.134,135.238 122.249,134.942 122.249,134.601C122.249,134.24 122.121,133.946 121.876,133.713C121.637,133.485 121.348,133.369 121.007,133.369L105.53,133.369C105.188,133.369 104.899,133.485 104.661,133.713C104.416,133.946 104.288,134.24 104.288,134.601C104.288,134.942 104.403,135.238 104.633,135.49C104.879,135.76 105.179,135.891 105.53,135.891ZM127.755,124.232L135.449,124.232C138.239,124.232 140.545,126.262 140.545,128.827L140.545,128.828C140.545,131.21 138.4,133.093 135.808,133.093L127.755,133.093C127.142,133.093 126.644,133.591 126.644,134.204C126.644,134.817 127.142,135.315 127.755,135.315L135.808,135.315C139.676,135.315 142.767,132.384 142.767,128.828L142.767,128.827C142.767,125.089 139.516,122.01 135.449,122.01L127.755,122.01C127.142,122.01 126.644,122.508 126.644,123.121C126.644,123.734 127.142,124.232 127.755,124.232ZM107.417,121.418C107.069,121.418 106.772,121.544 106.529,121.8C106.292,122.047 106.175,122.341 106.175,122.679C106.175,123.017 106.292,123.31 106.529,123.558C106.772,123.813 107.069,123.939 107.417,123.939L119.12,123.939C119.493,123.939 119.794,123.805 120.027,123.548C120.25,123.303 120.362,123.013 120.362,122.679C120.362,122.341 120.245,122.047 120.008,121.799C119.764,121.544 119.468,121.418 119.12,121.418L107.417,121.418ZM94.879,120.267L97.303,122.75C97.731,123.188 98.435,123.197 98.874,122.769C99.313,122.34 99.321,121.636 98.893,121.197L96.47,118.715C96.041,118.276 95.337,118.267 94.898,118.696C94.46,119.124 94.451,119.828 94.879,120.267ZM129.125,95.019L129.125,114.075C129.125,114.688 129.623,115.186 130.236,115.186C130.849,115.186 131.347,114.688 131.347,114.075L131.347,95.019C131.347,94.406 130.849,93.908 130.236,93.908C129.623,93.908 129.125,94.406 129.125,95.019ZM89.917,95.019L89.917,114.075C89.917,114.688 90.415,115.186 91.029,115.186C91.642,115.186 92.14,114.688 92.14,114.075L92.14,95.019C92.14,94.406 91.642,93.908 91.029,93.908C90.415,93.908 89.917,94.406 89.917,95.019ZM102.196,96.926L93.997,111.17C93.681,111.719 93.87,112.422 94.42,112.739C94.969,113.055 95.672,112.866 95.989,112.316L104.188,98.072C104.504,97.522 104.315,96.819 103.765,96.503C103.215,96.187 102.512,96.376 102.196,96.926ZM144.663,96.456L144.663,106.481C144.663,107.284 144.415,108.068 143.952,108.724C143.951,108.725 143.95,108.726 143.949,108.728C143.18,109.827 142.068,110.469 140.618,110.575C140.006,110.619 139.546,111.152 139.59,111.764C139.635,112.375 140.168,112.836 140.779,112.791C142.954,112.633 144.614,111.653 145.768,110.004C146.495,108.973 146.885,107.743 146.885,106.481L146.885,96.456C146.885,95.843 146.387,95.345 145.774,95.345C145.161,95.345 144.663,95.843 144.663,96.456ZM119.789,99.525L119.789,105.934C119.789,108.152 118.185,109.994 116.147,109.994L116.146,109.994C114.259,109.994 112.779,108.286 112.779,106.233L112.779,99.525C112.779,98.912 112.281,98.414 111.668,98.414C111.054,98.414 110.557,98.912 110.557,99.525L110.557,106.233C110.557,109.562 113.086,112.216 116.146,112.216L116.147,112.216C119.359,112.216 122.011,109.428 122.011,105.934L122.011,99.525C122.011,98.912 121.513,98.414 120.9,98.414C120.287,98.414 119.789,98.912 119.789,99.525ZM107.524,94.421C106.078,94.421 104.903,95.596 104.903,97.043C104.903,98.49 106.078,99.664 107.524,99.664C108.971,99.664 110.146,98.49 110.146,97.043C110.146,95.596 108.971,94.421 107.524,94.421ZM124.936,94.421C123.489,94.421 122.315,95.596 122.315,97.043C122.315,98.49 123.489,99.664 124.936,99.664C126.383,99.664 127.557,98.49 127.557,97.043C127.557,95.596 126.383,94.421 124.936,94.421ZM107.524,96.088C108.051,96.088 108.479,96.516 108.479,97.043C108.479,97.57 108.051,97.998 107.524,97.998C106.998,97.998 106.57,97.57 106.57,97.043C106.57,96.516 106.998,96.088 107.524,96.088ZM124.936,96.088C125.463,96.088 125.891,96.516 125.891,97.043C125.891,97.57 125.463,97.998 124.936,97.998C124.409,97.998 123.981,97.57 123.981,97.043C123.981,96.516 124.409,96.088 124.936,96.088ZM136.226,87.497L136.226,79.803C136.226,77.014 138.256,74.708 140.82,74.708L140.822,74.708C143.204,74.708 145.086,76.853 145.086,79.444L145.086,87.497C145.086,88.111 145.584,88.608 146.198,88.608C146.811,88.608 147.309,88.111 147.309,87.497L147.309,79.444C147.309,75.576 144.378,72.485 140.822,72.485L140.82,72.485C137.082,72.485 134.004,75.737 134.004,79.803L134.004,87.497C134.004,88.111 134.501,88.608 135.115,88.608C135.728,88.608 136.226,88.111 136.226,87.497ZM111.815,73.628L128.516,88.331C128.977,88.737 129.679,88.692 130.085,88.232C130.49,87.771 130.445,87.069 129.985,86.663L113.284,71.96C112.823,71.555 112.121,71.6 111.715,72.06C111.31,72.52 111.355,73.223 111.815,73.628ZM85.306,85.204L74.826,85.204L85.266,73.34C85.671,72.879 85.627,72.177 85.166,71.772C84.706,71.367 84.003,71.411 83.598,71.872L71.534,85.581C71.245,85.908 71.176,86.375 71.356,86.772C71.535,87.17 71.931,87.426 72.368,87.426L85.306,87.426C85.919,87.426 86.417,86.928 86.417,86.315C86.417,85.702 85.919,85.204 85.306,85.204ZM109.353,69.535L90.725,69.535C90.112,69.535 89.614,70.033 89.614,70.646C89.614,71.259 90.112,71.757 90.725,71.757L109.353,71.757C109.966,71.757 110.464,71.259 110.464,70.646C110.464,70.033 109.966,69.535 109.353,69.535ZM150.354,55.72L146.182,61.879C145.826,62.404 145.963,63.119 146.489,63.475C147.014,63.83 147.729,63.693 148.084,63.168L151.742,57.769L155.399,63.168C155.755,63.693 156.47,63.83 156.995,63.475C157.52,63.119 157.658,62.404 157.302,61.879L153.13,55.72L157.302,49.561C157.658,49.036 157.52,48.321 156.995,47.965C156.47,47.609 155.755,47.747 155.399,48.272L151.742,53.671L148.084,48.272C147.729,47.747 147.014,47.609 146.489,47.965C145.963,48.321 145.826,49.036 146.182,49.561L150.354,55.72Z"/>
    </g>
</svg>
