<?xml version="1.0" encoding="UTF-8" standalone="no"?>
<!DOCTYPE svg PUBLIC "-//W3C//DTD SVG 1.1//EN" "http://www.w3.org/Graphics/SVG/1.1/DTD/svg11.dtd">
<svg width="87px" height="41px" version="1.1" xmlns="http://www.w3.org/2000/svg" xmlns:xlink="http://www.w3.org/1999/xlink" xml:space="preserve" xmlns:serif="http://www.serif.com/" style="fill-rule:evenodd;clip-rule:evenodd;stroke-linejoin:round;stroke-miterlimit:2;">
    <g transform="matrix(0.616435,0,0,0.616435,-24.6574,-94.292)">
        <path d="M57.028,188.613C58.397,185.295 60.433,182.38 63.231,179.929L65.654,177.447C68.061,175.131 74.296,171.744 76.589,171.655L119.851,171.655C121.772,171.655 123.523,170.555 124.356,168.824C126.639,164.086 130.986,155.06 130.986,155.06L137.671,169.172L142.684,159.364L146.108,167.843L148.805,159.657L151.501,167.843L154.905,159.233L160.215,169.172L166.899,155.06C171.02,162.755 175.006,170.436 177.017,177.897C180.885,183.477 181.102,189.057 177.017,194.638C173.575,198.267 169.272,199.799 164.432,200.047C161.796,200.211 159.743,202.397 159.742,205.037L159.742,212.157C159.742,215.585 157.383,218.364 154.472,218.364L154.471,218.364C151.728,218.364 149.505,215.745 149.505,212.516C149.505,210.585 149.42,208.059 149.338,206.041C149.266,204.125 147.692,202.608 145.775,202.608C144.74,202.608 143.597,202.608 142.541,202.609C141.573,202.609 140.646,203.003 139.974,203.7C139.302,204.397 138.943,205.337 138.978,206.305C139.056,208.17 139.129,210.403 139.129,212.157C139.129,215.585 136.769,218.364 133.858,218.364L133.857,218.364C131.115,218.364 128.891,215.745 128.891,212.516L128.891,204.951C128.891,203.625 128.365,202.353 127.427,201.415C126.489,200.478 125.217,199.951 123.891,199.951L89.022,199.951C86.655,200.134 85.712,201.742 85.883,204.463L85.883,212.157C85.883,215.585 83.524,218.364 80.613,218.364L80.611,218.364C77.869,218.364 75.646,215.745 75.646,212.516C75.646,210.585 75.561,208.059 75.479,206.041C75.407,204.125 73.833,202.608 71.915,202.608C70.85,202.608 69.669,202.608 68.582,202.609C67.614,202.609 66.687,203.003 66.015,203.7C65.343,204.397 64.984,205.337 65.019,206.305C65.097,208.17 65.17,210.403 65.17,212.157C65.17,215.585 62.81,218.364 59.899,218.364L59.898,218.364C57.155,218.364 54.932,215.745 54.932,212.516L54.932,204.463C54.737,201.629 54.776,198.932 55.075,196.389C54.713,194.833 53.977,193.853 52.749,193.805C51.643,194.345 50.393,194.649 49.07,194.649C44.547,194.649 40.875,191.093 40.875,186.712C40.875,182.331 44.547,178.774 49.07,178.774C53.593,178.774 57.265,182.331 57.265,186.712C57.265,187.367 57.183,188.004 57.028,188.613Z" style="fill:white;"/>
    </g>
    <g transform="matrix(0.616435,0,0,0.616435,-24.6574,-94.292)">
        <path d="M84.772,204.463L84.772,212.157C84.772,214.926 82.964,217.252 80.613,217.252L80.611,217.252C78.428,217.252 76.757,215.087 76.757,212.516L76.757,204.463C76.757,203.85 76.259,203.352 75.646,203.352C75.032,203.352 74.534,203.85 74.534,204.463L74.534,212.516C74.534,216.405 77.309,219.475 80.611,219.475L80.613,219.475C84.084,219.475 86.994,216.244 86.994,212.157L86.994,204.463C86.994,203.85 86.496,203.352 85.883,203.352C85.27,203.352 84.772,203.85 84.772,204.463ZM138.018,204.463L138.018,212.157C138.018,214.926 136.21,217.252 133.858,217.252L133.857,217.252C131.674,217.252 130.002,215.087 130.002,212.516L130.002,204.463C130.002,203.85 129.505,203.352 128.891,203.352C128.278,203.352 127.78,203.85 127.78,204.463L127.78,212.516C127.78,216.405 130.554,219.475 133.857,219.475L133.858,219.475C137.329,219.475 140.24,216.244 140.24,212.157L140.24,204.463C140.24,203.85 139.742,203.352 139.129,203.352C138.516,203.352 138.018,203.85 138.018,204.463ZM64.059,204.463L64.059,212.157C64.059,214.926 62.251,217.252 59.899,217.252L59.898,217.252C57.715,217.252 56.043,215.087 56.043,212.516L56.043,204.463C56.043,203.85 55.545,203.352 54.932,203.352C54.319,203.352 53.821,203.85 53.821,204.463L53.821,212.516C53.821,216.405 56.595,219.475 59.898,219.475L59.899,219.475C63.37,219.475 66.281,216.244 66.281,212.157L66.281,204.463C66.281,203.85 65.783,203.352 65.17,203.352C64.557,203.352 64.059,203.85 64.059,204.463ZM158.631,204.463L158.631,212.157C158.631,214.926 156.823,217.252 154.472,217.252L154.471,217.252C152.287,217.252 150.616,215.087 150.616,212.516L150.616,204.463C150.616,203.85 150.118,203.352 149.505,203.352C148.892,203.352 148.394,203.85 148.394,204.463L148.394,212.516C148.394,216.405 151.168,219.475 154.471,219.475L154.472,219.475C157.943,219.475 160.854,216.244 160.854,212.157L160.854,204.463C160.854,203.85 160.356,203.352 159.742,203.352C159.129,203.352 158.631,203.85 158.631,204.463ZM119.013,198.84L89.022,198.84C88.409,198.84 87.911,199.337 87.911,199.951C87.911,200.564 88.409,201.062 89.022,201.062L119.013,201.062C119.627,201.062 120.125,200.564 120.125,199.951C120.125,199.337 119.627,198.84 119.013,198.84ZM164.806,196.78L164.903,196.78C165.196,196.774 165.446,196.672 165.653,196.475C165.872,196.267 165.981,196.015 165.981,195.718L165.981,192.229C165.981,191.935 165.875,191.68 165.658,191.464C165.443,191.251 165.182,191.144 164.875,191.144L164.024,191.144L164.024,177.4C164.024,177.103 163.915,176.85 163.695,176.642C163.482,176.44 163.223,176.337 162.917,176.337L154.696,176.337C154.387,176.337 154.13,176.442 153.924,176.647C153.716,176.854 153.612,177.105 153.612,177.4L153.612,178.12C153.612,180.326 153.597,181.999 153.566,183.139C153.535,184.277 153.493,185.321 153.44,186.271C153.388,187.191 153.279,187.905 153.108,188.411C152.937,188.918 152.752,189.358 152.551,189.731C152.352,190.102 152.046,190.573 151.635,191.144L151.288,191.144C150.98,191.144 150.72,191.251 150.505,191.464C150.288,191.68 150.181,191.935 150.181,192.229L150.181,195.718C150.181,196.015 150.29,196.267 150.509,196.475C150.723,196.678 150.982,196.78 151.288,196.78L151.385,196.78C151.678,196.774 151.928,196.672 152.135,196.475C152.354,196.267 152.463,196.015 152.463,195.718L152.463,193.204L163.699,193.204L163.699,195.718C163.699,196.015 163.808,196.267 164.027,196.475C164.241,196.678 164.5,196.78 164.806,196.78ZM176.103,178.53C179.674,183.68 179.891,188.831 176.12,193.981C175.758,194.476 175.865,195.172 176.36,195.534C176.855,195.896 177.551,195.789 177.913,195.294C182.313,189.284 182.096,183.274 177.93,177.264C177.58,176.76 176.888,176.635 176.384,176.984C175.88,177.333 175.754,178.026 176.103,178.53ZM118.1,177.264C113.934,183.274 113.717,189.284 118.117,195.294C118.479,195.789 119.175,195.896 119.67,195.534C120.165,195.172 120.272,194.476 119.91,193.981C116.139,188.831 116.356,183.68 119.927,178.53C120.276,178.026 120.15,177.333 119.646,176.984C119.142,176.635 118.45,176.76 118.1,177.264ZM49.07,177.914C51.716,177.914 53.889,178.725 55.59,180.347C57.29,181.969 58.141,184.069 58.141,186.645C58.141,188.161 57.704,189.313 56.83,190.101C55.956,190.89 54.708,191.284 53.086,191.284C52.361,191.284 51.755,191.155 51.267,190.897C50.795,190.655 50.503,190.359 50.393,190.01C50.393,189.98 50.385,189.965 50.369,189.965L50.322,189.988C49.598,190.836 48.598,191.268 47.322,191.284C46.204,191.284 45.315,190.89 44.653,190.101C43.85,189.192 43.598,188.006 43.897,186.543C44.197,185.08 44.779,183.951 45.645,183.155C46.511,182.359 47.551,181.962 48.763,181.962C49.188,181.962 49.598,182.068 49.992,182.28C50.259,182.416 50.519,182.621 50.771,182.894C50.771,182.909 50.787,182.917 50.818,182.917C50.834,182.917 50.842,182.909 50.842,182.894L50.865,182.826C50.928,182.598 51.054,182.409 51.243,182.257C51.432,182.106 51.653,182.03 51.905,182.03L52.944,182.03C53.165,182.03 53.35,182.117 53.499,182.291C53.649,182.466 53.7,182.651 53.653,182.848L52.637,187.623C52.48,188.351 52.393,188.828 52.377,189.055C52.361,189.283 52.409,189.434 52.519,189.51C52.629,189.601 52.81,189.647 53.062,189.647C55.093,189.647 56.109,188.646 56.109,186.645C56.109,184.584 55.464,182.92 54.172,181.655C52.881,180.389 51.18,179.756 49.07,179.756C47.007,179.756 45.319,180.4 44.004,181.689C42.689,182.977 42.031,184.629 42.031,186.645C42.031,188.661 42.689,190.314 44.004,191.602C45.319,192.89 47.007,193.535 49.07,193.535C50.488,193.535 51.724,193.231 52.779,192.625C52.968,192.504 53.176,192.466 53.405,192.511C53.633,192.557 53.802,192.671 53.912,192.852L54.054,193.034C54.18,193.231 54.22,193.447 54.172,193.682C54.125,193.917 53.999,194.095 53.794,194.217C52.424,194.99 50.85,195.376 49.07,195.376C46.504,195.376 44.35,194.561 42.61,192.932C40.87,191.303 40,189.207 40,186.645C40,184.099 40.858,182.007 42.575,180.37C44.291,178.733 46.456,177.914 49.07,177.914ZM154.469,191.144C155.183,189.927 155.61,188.726 155.755,187.541C155.907,186.293 155.985,183.245 155.987,178.397L161.58,178.397L161.58,191.144L154.469,191.144ZM50.18,186.554C50.369,185.721 50.306,185.084 49.992,184.645C49.724,184.281 49.338,184.099 48.834,184.099C48.267,184.099 47.767,184.315 47.334,184.747C46.901,185.179 46.59,185.789 46.401,186.577C46.212,187.38 46.291,188.017 46.637,188.487C46.905,188.866 47.291,189.048 47.795,189.033C48.992,189.048 49.787,188.222 50.18,186.554ZM144.936,175.798C143.341,175.798 142.046,177.093 142.046,178.688C142.046,180.283 143.341,181.578 144.936,181.578C146.53,181.578 147.825,180.283 147.825,178.688C147.825,177.093 146.53,175.798 144.936,175.798ZM171.528,175.798C169.933,175.798 168.638,177.093 168.638,178.688C168.638,180.283 169.933,181.578 171.528,181.578C173.123,181.578 174.417,180.283 174.417,178.688C174.417,177.093 173.123,175.798 171.528,175.798ZM64.859,176.67L62.435,179.153C62.007,179.592 62.016,180.296 62.454,180.724C62.893,181.153 63.597,181.144 64.026,180.705L66.449,178.223C66.877,177.784 66.869,177.08 66.43,176.651C65.991,176.223 65.287,176.232 64.859,176.67ZM144.936,177.465C145.611,177.465 146.159,178.013 146.159,178.688C146.159,179.363 145.611,179.911 144.936,179.911C144.261,179.911 143.713,179.363 143.713,178.688C143.713,178.013 144.261,177.465 144.936,177.465ZM171.528,177.465C172.203,177.465 172.751,178.013 172.751,178.688C172.751,179.363 172.203,179.911 171.528,179.911C170.853,179.911 170.305,179.363 170.305,178.688C170.305,178.013 170.853,177.465 171.528,177.465ZM111.725,170.544L76.589,170.544C75.976,170.544 75.478,171.042 75.478,171.655C75.478,172.268 75.976,172.766 76.589,172.766L111.725,172.766C112.338,172.766 112.836,172.268 112.836,171.655C112.836,171.042 112.338,170.544 111.725,170.544ZM167.86,154.575C167.683,154.205 167.31,153.969 166.899,153.969C166.489,153.969 166.116,154.205 165.939,154.575C163.877,158.903 159.211,168.696 159.211,168.696C158.948,169.251 159.185,169.914 159.739,170.176C160.293,170.439 160.956,170.202 161.219,169.648L166.899,157.655L172.58,169.648C172.843,170.202 173.506,170.439 174.06,170.176C174.614,169.914 174.851,169.251 174.588,168.696C174.588,168.696 169.922,158.903 167.86,154.575ZM131.946,154.575C131.77,154.205 131.396,153.969 130.986,153.969C130.576,153.969 130.202,154.205 130.026,154.575C127.964,158.903 123.297,168.696 123.297,168.696C123.035,169.251 123.271,169.914 123.826,170.176C124.38,170.439 125.043,170.202 125.305,169.648L130.986,157.655L136.667,169.648C136.929,170.202 137.592,170.439 138.146,170.176C138.701,169.914 138.937,169.251 138.675,168.696C138.675,168.696 134.008,158.903 131.946,154.575ZM153.406,159.397L151.501,165.179L149.596,159.397C149.484,159.055 149.165,158.824 148.805,158.824C148.445,158.824 148.126,159.055 148.013,159.397L146.108,165.179L144.203,159.397C144.059,158.96 143.588,158.722 143.151,158.866C142.714,159.01 142.476,159.481 142.62,159.918L145.317,168.103C145.429,168.445 145.749,168.676 146.108,168.676C146.468,168.676 146.787,168.445 146.9,168.103L148.805,162.321L150.71,168.103C150.822,168.445 151.142,168.676 151.501,168.676C151.861,168.676 152.18,168.445 152.293,168.103L154.989,159.918C155.133,159.481 154.895,159.01 154.458,158.866C154.022,158.722 153.55,158.96 153.406,159.397Z" style="fill-rule:nonzero;"/>
    </g>
</svg>
