<?xml version="1.0" encoding="UTF-8" standalone="no"?>
<!DOCTYPE svg PUBLIC "-//W3C//DTD SVG 1.1//EN" "http://www.w3.org/Graphics/SVG/1.1/DTD/svg11.dtd">
<svg width="38px" height="96px" version="1.1" xmlns="http://www.w3.org/2000/svg" xmlns:xlink="http://www.w3.org/1999/xlink" xml:space="preserve" xmlns:serif="http://www.serif.com/" style="fill-rule:evenodd;clip-rule:evenodd;stroke-linejoin:round;stroke-miterlimit:2;">
    <g transform="matrix(0.61912,0,0,0.61912,-49.1033,-39.9025)">
        <path d="M109.385,82.395C107.846,85.564 107.108,89.062 107.238,92.583C107.423,97.618 107.671,104.381 107.671,104.381C108.157,105.628 108.328,106.512 109.108,107.37C118.763,111.256 133.083,123.687 123.749,136.862C126.796,132.746 129.792,128.579 131.637,123.262C132.02,117.101 135.642,118.966 136.571,120.121C144.702,130.234 134.293,142.336 124.007,148.168C124.007,148.168 124.193,206.972 124.193,211.243C124.193,215.194 121.473,218.397 118.117,218.397L118.116,218.397C114.954,218.397 112.392,215.379 112.392,211.657L112.392,204.544C112.392,200.98 109.503,198.091 105.939,198.091L104.632,198.091C102.92,198.091 101.279,198.771 100.069,199.981C98.859,201.191 98.179,202.833 98.179,204.544L98.179,211.243C98.179,215.194 95.459,218.397 92.104,218.397L92.102,218.397C88.941,218.397 86.378,215.379 86.378,211.657L86.378,169.501C86.378,168.839 86.166,168.194 85.773,167.661C84.911,166.49 83.429,164.478 83.429,164.478C79.343,158.898 79.561,153.318 83.429,147.737C85.983,143.821 85.847,140.576 84.429,137.653C75.391,128.403 86.481,112.457 97.632,107.581C98.304,106.701 98.753,105.662 99.074,104.609L99.591,81.29L107.262,65.159L117.741,65.192C117.741,65.192 112.534,75.911 109.385,82.395Z" style="fill:white;"/>
    </g>
    <g transform="matrix(0.61912,0,0,0.61912,-49.1033,-39.9025)">
        <path d="M97.068,202.374L97.068,211.243C97.068,214.535 94.899,217.286 92.104,217.286L92.102,217.286C89.5,217.286 87.489,214.721 87.489,211.657L87.489,202.374C87.489,201.76 86.991,201.263 86.378,201.263C85.765,201.263 85.267,201.76 85.267,202.374L85.267,211.657C85.267,216.039 88.38,219.509 92.102,219.509L92.104,219.509C96.019,219.509 99.29,215.854 99.29,211.243L99.29,202.374C99.29,201.76 98.792,201.263 98.179,201.263C97.566,201.263 97.068,201.76 97.068,202.374ZM123.082,202.374L123.082,211.243C123.082,214.535 120.913,217.286 118.117,217.286L118.116,217.286C115.514,217.286 113.503,214.721 113.503,211.657L113.503,202.374C113.503,201.76 113.005,201.263 112.392,201.263C111.778,201.263 111.28,201.76 111.28,202.374L111.28,211.657C111.281,216.039 114.394,219.509 118.116,219.509L118.117,219.509C122.033,219.509 125.304,215.854 125.304,211.243L125.304,202.374C125.304,201.76 124.806,201.263 124.193,201.263C123.58,201.263 123.082,201.76 123.082,202.374ZM123.082,172.402L123.082,193.849C123.082,194.463 123.58,194.961 124.193,194.961C124.806,194.961 125.304,194.463 125.304,193.849L125.304,172.402C125.304,171.788 124.806,171.29 124.193,171.29C123.58,171.29 123.082,171.788 123.082,172.402ZM85.267,172.402L85.267,193.849C85.267,194.463 85.765,194.961 86.378,194.961C86.991,194.961 87.489,194.463 87.489,193.849L87.489,172.402C87.489,171.788 86.991,171.29 86.378,171.29C85.765,171.29 85.267,171.788 85.267,172.402ZM88.219,156.696C90.778,155.964 93,154.838 95.06,154.23C96.784,153.721 98.379,153.595 99.984,154.715C101.248,155.598 101.779,156.738 101.941,157.825C101.942,157.829 101.942,157.833 101.943,157.837C102.227,159.609 101.285,161.35 99.648,162.083C99.641,162.086 99.634,162.089 99.627,162.093C98.146,162.791 96.494,163.473 94.19,163.633C93.578,163.675 93.116,164.206 93.158,164.818C93.201,165.43 93.732,165.892 94.344,165.85C96.978,165.667 98.872,164.905 100.567,164.107C103.114,162.961 104.577,160.25 104.138,157.491C103.897,155.886 103.123,154.197 101.256,152.893C99.027,151.337 96.825,151.392 94.431,152.098C92.376,152.705 90.161,153.829 87.608,154.559C87.019,154.728 86.677,155.343 86.846,155.933C87.014,156.522 87.63,156.864 88.219,156.696ZM82.516,147.104C78.35,153.114 78.132,159.124 82.532,165.134C82.895,165.629 83.591,165.737 84.085,165.374C84.58,165.012 84.688,164.316 84.325,163.822C80.554,158.671 80.772,153.521 84.342,148.37C84.691,147.866 84.566,147.174 84.062,146.824C83.558,146.475 82.865,146.6 82.516,147.104ZM125.118,163.093L125.118,154.055C125.118,153.442 124.62,152.944 124.007,152.944C123.394,152.944 122.896,153.442 122.896,154.055L122.896,163.093C122.896,163.706 123.394,164.204 124.007,164.204C124.62,164.204 125.118,163.706 125.118,163.093ZM125.118,149.799L125.118,149.07C125.118,148.457 124.62,147.959 124.007,147.959C123.394,147.959 122.896,148.457 122.896,149.07L122.896,149.799C122.896,150.412 123.394,150.91 124.007,150.91C124.62,150.91 125.118,150.412 125.118,149.799ZM83.516,120.279C79.35,126.289 79.132,132.299 83.532,138.309C83.895,138.804 84.591,138.912 85.085,138.549C85.58,138.187 85.688,137.491 85.325,136.996C81.554,131.846 81.772,126.696 85.342,121.545C85.691,121.041 85.566,120.348 85.062,119.999C84.558,119.65 83.865,119.775 83.516,120.279ZM88.663,135.292C88.96,135.613 89.15,135.916 89.155,136.237C89.159,136.545 88.98,136.836 88.679,137.144C88.357,137.473 88.364,138.001 88.693,138.322C89.022,138.644 89.55,138.637 89.871,138.308C90.547,137.616 90.83,136.907 90.821,136.215C90.812,135.536 90.515,134.84 89.887,134.161C89.575,133.823 89.047,133.802 88.709,134.114C88.372,134.426 88.351,134.954 88.663,135.292ZM100.626,130.743L100.862,130.743C101.186,130.728 101.45,130.601 101.658,130.372C101.87,130.139 101.977,129.864 101.977,129.545L101.977,125.752L111.886,125.752L111.886,127.15C111.886,129.818 111.224,131.872 109.856,133.299C108.477,134.736 106.323,135.576 103.414,135.865C103.408,135.866 103.403,135.867 103.397,135.867C103.066,135.911 102.81,136.061 102.623,136.303C102.439,136.542 102.362,136.81 102.395,137.11L102.4,137.154C102.435,137.399 102.636,137.583 102.879,137.601L102.917,137.639C102.656,137.639 102.434,137.445 102.4,137.186C102.442,137.505 102.596,137.775 102.873,137.988C103.148,138.199 103.446,138.279 103.764,138.239C107.284,137.907 109.924,136.793 111.698,134.935C113.483,133.067 114.394,130.476 114.394,127.15L114.394,124.516C114.394,124.165 114.271,123.882 114.04,123.663C113.813,123.446 113.538,123.336 113.213,123.336L100.686,123.336C100.365,123.336 100.086,123.447 99.85,123.672C99.607,123.904 99.487,124.185 99.487,124.516L99.487,129.545C99.487,129.893 99.611,130.18 99.85,130.408C100.071,130.619 100.33,130.73 100.626,130.743ZM135.658,120.754C139.228,125.905 139.446,131.055 135.675,136.206C135.312,136.7 135.42,137.396 135.915,137.758C136.409,138.121 137.105,138.013 137.468,137.518C141.868,131.508 141.65,125.498 137.484,119.488C137.135,118.984 136.442,118.859 135.938,119.208C135.434,119.558 135.309,120.25 135.658,120.754ZM122.836,120.754C126.406,125.905 126.624,131.055 122.853,136.206C122.49,136.7 122.598,137.396 123.093,137.758C123.588,138.121 124.283,138.013 124.646,137.518C129.046,131.508 128.829,125.498 124.662,119.488C124.313,118.984 123.62,118.859 123.116,119.208C122.612,119.558 122.487,120.25 122.836,120.754ZM103.156,137.545C103.164,137.552 103.173,137.559 103.182,137.567C103.103,137.613 103.012,137.639 102.917,137.639C102.917,137.639 102.935,137.625 102.963,137.6C103.031,137.594 103.096,137.575 103.156,137.545ZM89.275,125.361C89.969,125.361 90.532,125.924 90.532,126.618C90.532,127.312 89.969,127.875 89.275,127.875C88.581,127.875 88.018,127.312 88.018,126.618C88.018,125.924 88.581,125.361 89.275,125.361ZM130.513,120.639C130.784,120.981 130.95,121.313 130.954,121.655C130.958,121.985 130.803,122.305 130.527,122.635C130.231,122.988 130.278,123.514 130.63,123.809C130.983,124.105 131.509,124.058 131.804,123.706C132.38,123.019 132.628,122.323 132.621,121.637C132.613,120.962 132.354,120.278 131.818,119.603C131.532,119.243 131.008,119.183 130.647,119.469C130.287,119.755 130.227,120.279 130.513,120.639ZM94.668,117.022C93.073,117.022 91.779,118.317 91.779,119.912C91.779,121.507 93.073,122.802 94.668,122.802C96.263,122.802 97.558,121.507 97.558,119.912C97.558,118.317 96.263,117.022 94.668,117.022ZM117.26,116.022C115.666,116.022 114.371,117.317 114.371,118.912C114.371,120.507 115.666,121.802 117.26,121.802C118.855,121.802 120.15,120.507 120.15,118.912C120.15,117.317 118.855,116.022 117.26,116.022ZM94.668,118.689C95.343,118.689 95.891,119.237 95.891,119.912C95.891,120.587 95.343,121.135 94.668,121.135C93.993,121.135 93.445,120.587 93.445,119.912C93.445,119.237 93.993,118.689 94.668,118.689ZM117.26,117.689C117.935,117.689 118.483,118.237 118.483,118.912C118.483,119.587 117.935,120.135 117.26,120.135C116.585,120.135 116.037,119.587 116.037,118.912C116.037,118.237 116.585,117.689 117.26,117.689ZM103.169,91.196L103.169,91.195C102.879,91.195 102.633,91.297 102.43,91.5C102.227,91.703 102.125,91.949 102.125,92.239L102.125,94.005C102.125,97.202 101.401,100.071 99.949,102.611C98.5,105.148 96.479,107.126 93.887,108.548C93.885,108.549 93.883,108.55 93.881,108.551C93.644,108.689 93.491,108.891 93.422,109.158C93.353,109.422 93.393,109.672 93.545,109.908L93.594,110.002L93.593,110.001L93.598,110.01C93.752,110.254 93.974,110.411 94.268,110.477C94.553,110.541 94.824,110.509 95.081,110.38C95.083,110.379 95.085,110.378 95.087,110.377C97.063,109.324 98.798,107.857 100.291,105.975C101.625,104.292 102.645,102.428 103.35,100.382C104.052,102.415 105.057,104.275 106.364,105.962C107.829,107.852 109.535,109.323 111.483,110.376C111.488,110.379 111.493,110.381 111.498,110.383C111.772,110.511 112.043,110.54 112.308,110.476C112.584,110.409 112.799,110.254 112.953,110.009L112.942,110.025L112.999,109.919C113.174,109.677 113.217,109.42 113.137,109.148C113.059,108.886 112.903,108.687 112.67,108.551C112.668,108.55 112.666,108.549 112.665,108.548C110.072,107.113 108.051,105.127 106.601,102.59C105.15,100.05 104.425,97.188 104.425,94.005L104.425,92.239C104.425,91.949 104.324,91.703 104.121,91.5C103.918,91.297 103.672,91.195 103.382,91.195L103.382,91.2C103.368,91.197 103.353,91.195 103.336,91.195L103.169,91.196ZM93.991,110.044C93.999,110.05 94.006,110.056 94.014,110.062C93.964,110.107 93.898,110.133 93.829,110.133C93.829,110.133 93.915,110.104 93.991,110.044ZM112.691,109.901L112.764,110.048L112.681,109.915C112.685,109.911 112.688,109.906 112.691,109.901ZM116.708,65.7L108.775,80.159C108.48,80.697 108.677,81.373 109.214,81.668C109.752,81.963 110.428,81.766 110.723,81.228L118.656,66.769C118.951,66.231 118.754,65.555 118.217,65.26C117.679,64.965 117.003,65.162 116.708,65.7ZM106.247,65.782L100.81,77.967L95.372,65.782C95.123,65.222 94.465,64.97 93.905,65.22C93.345,65.47 93.093,66.127 93.343,66.687L99.795,81.147C99.974,81.547 100.371,81.805 100.81,81.805C101.248,81.805 101.646,81.547 101.825,81.147L108.277,66.687C108.526,66.127 108.275,65.47 107.715,65.22C107.155,64.97 106.497,65.222 106.247,65.782Z" style="fill-opacity:0.9;"/>
    </g>
</svg>
