<?xml version="1.0" encoding="UTF-8" standalone="no"?>
<!DOCTYPE svg PUBLIC "-//W3C//DTD SVG 1.1//EN" "http://www.w3.org/Graphics/SVG/1.1/DTD/svg11.dtd">
<svg width="31px" height="64px" version="1.1" xmlns="http://www.w3.org/2000/svg" xmlns:xlink="http://www.w3.org/1999/xlink" xml:space="preserve" xmlns:serif="http://www.serif.com/" style="fill-rule:evenodd;clip-rule:evenodd;stroke-linejoin:round;stroke-miterlimit:2;">
    <g transform="matrix(0.494537,0,0,0.554142,-48.0214,-31.7863)">
        <path d="M138.315,138.211C135.629,136.005 134.104,132.896 134.108,129.639C134.093,113.601 134.087,97.546 136.115,81.69C136.259,80.583 136.632,79.509 137.217,78.523C139.34,74.938 144.702,65.897 146.15,63.454C146.227,63.324 146.222,63.167 146.137,63.042C146.052,62.916 145.899,62.839 145.734,62.839C143.186,62.846 135.184,62.865 133.519,62.869C133.334,62.87 133.166,62.968 133.091,63.119C132.312,64.7 128.03,73.391 125.932,77.648C125.166,79.203 124.91,80.919 125.192,82.599C126.64,93.504 126.968,120.419 127.013,130.472C127.024,133.181 125.761,135.77 123.531,137.607C117.251,142.205 109.207,145.093 102.209,152.837C99.103,156.274 97.898,160.453 98.461,164.568C99.156,169.277 103.653,172.796 108.974,172.796C119.072,172.855 137.971,172.855 148.013,172.855C153.805,172.856 158.54,168.732 158.681,163.565C158.642,160.06 157.391,156.441 155.306,152.837C152.348,147.722 144.529,143.245 138.315,138.211Z" style="fill:white;"/>
    </g>
    <g transform="matrix(0.613189,0,0,0.613189,-51.9508,-70.4457)">
        <path d="M130.247,201.799C133.817,206.949 134.035,212.1 130.264,217.25C129.901,217.745 130.009,218.441 130.504,218.803C130.999,219.165 131.694,219.058 132.057,218.563C136.457,212.553 136.239,206.543 132.073,200.533C131.724,200.029 131.031,199.903 130.527,200.253C130.023,200.602 129.898,201.295 130.247,201.799ZM87.927,200.533C83.761,206.543 83.543,212.553 87.943,218.563C88.306,219.058 89.001,219.165 89.496,218.803C89.991,218.441 90.099,217.745 89.736,217.25C85.965,212.1 86.183,206.949 89.753,201.799C90.102,201.295 89.977,200.602 89.473,200.253C88.969,199.903 88.276,200.029 87.927,200.533ZM120.606,207.491L106.739,207.491C106.126,207.491 105.628,207.988 105.628,208.602C105.628,209.215 106.126,209.713 106.739,209.713L120.606,209.713C121.22,209.713 121.718,209.215 121.718,208.602C121.718,207.988 121.22,207.491 120.606,207.491ZM125.671,198.672C124.077,198.672 122.782,199.967 122.782,201.561C122.782,203.156 124.077,204.451 125.671,204.451C127.266,204.451 128.561,203.156 128.561,201.561C128.561,199.967 127.266,198.672 125.671,198.672ZM102.079,198.672C100.484,198.672 99.189,199.967 99.189,201.561C99.189,203.156 100.484,204.451 102.079,204.451C103.674,204.451 104.969,203.156 104.969,201.561C104.969,199.967 103.674,198.672 102.079,198.672ZM125.671,200.338C126.346,200.338 126.894,200.886 126.894,201.561C126.894,202.236 126.346,202.784 125.671,202.784C124.996,202.784 124.448,202.236 124.448,201.561C124.448,200.886 124.996,200.338 125.671,200.338ZM102.079,200.338C102.754,200.338 103.302,200.886 103.302,201.561C103.302,202.236 102.754,202.784 102.079,202.784C101.404,202.784 100.856,202.236 100.856,201.561C100.856,200.886 101.404,200.338 102.079,200.338ZM111.793,171.845L111.58,171.845C111.29,171.845 111.044,171.947 110.841,172.149C110.638,172.352 110.536,172.599 110.536,172.888L110.536,174.654C110.536,177.851 109.812,180.72 108.36,183.261C106.911,185.797 104.89,187.775 102.298,189.197C102.296,189.198 102.294,189.199 102.292,189.201C102.055,189.339 101.902,189.541 101.833,189.807C101.764,190.071 101.804,190.322 101.956,190.557L102.004,190.651L102.004,190.65L102.009,190.659C102.163,190.903 102.385,191.06 102.679,191.126C102.964,191.191 103.235,191.158 103.492,191.029C103.494,191.028 103.496,191.027 103.498,191.026C105.474,189.973 107.209,188.506 108.702,186.624C110.036,184.941 111.056,183.077 111.761,181.031C112.463,183.064 113.468,184.924 114.775,186.611C116.239,188.501 117.946,189.972 119.894,191.025C119.899,191.028 119.904,191.03 119.909,191.033C120.183,191.161 120.454,191.189 120.719,191.125C120.995,191.059 121.21,190.903 121.364,190.658L121.353,190.674L121.41,190.568C121.585,190.326 121.628,190.069 121.548,189.798C121.47,189.535 121.314,189.337 121.081,189.201C121.079,189.199 121.077,189.198 121.076,189.197C118.483,187.762 116.462,185.776 115.012,183.239C113.561,180.699 112.836,177.837 112.836,174.654L112.836,172.888C112.836,172.599 112.735,172.352 112.532,172.149C112.329,171.947 112.083,171.845 111.793,171.845ZM121.102,190.551L121.175,190.697L121.092,190.564C121.095,190.56 121.099,190.555 121.102,190.551ZM113.436,144.866L113.436,165.252C113.436,165.865 113.934,166.363 114.547,166.363C115.161,166.363 115.658,165.865 115.658,165.252L115.658,144.866C115.658,144.253 115.161,143.755 114.547,143.755C113.934,143.755 113.436,144.253 113.436,144.866ZM107.728,144.866L107.728,165.252C107.728,165.865 108.226,166.363 108.839,166.363C109.453,166.363 109.951,165.865 109.951,165.252L109.951,144.866C109.951,144.253 109.453,143.755 108.839,143.755C108.226,143.755 107.728,144.253 107.728,144.866ZM123.119,120.349L115.185,134.808C114.89,135.346 115.087,136.022 115.625,136.317C116.163,136.612 116.839,136.415 117.134,135.877L125.067,121.418C125.362,120.881 125.165,120.205 124.628,119.91C124.09,119.615 123.414,119.812 123.119,120.349ZM112.658,120.431L107.221,132.616L101.783,120.431C101.534,119.871 100.876,119.619 100.316,119.869C99.756,120.119 99.504,120.776 99.754,121.336L106.206,135.796C106.385,136.196 106.782,136.454 107.221,136.454C107.659,136.454 108.057,136.196 108.235,135.796L114.687,121.336C114.937,120.776 114.686,120.119 114.126,119.869C113.566,119.619 112.908,119.871 112.658,120.431Z" style="fill-rule:nonzero;"/>
    </g>
</svg>
