<?xml version="1.0" encoding="UTF-8" standalone="no"?>
<!DOCTYPE svg PUBLIC "-//W3C//DTD SVG 1.1//EN" "http://www.w3.org/Graphics/SVG/1.1/DTD/svg11.dtd">
<svg width="57px" height="94px" version="1.1" xmlns="http://www.w3.org/2000/svg" xmlns:xlink="http://www.w3.org/1999/xlink" xml:space="preserve" xmlns:serif="http://www.serif.com/" style="fill-rule:evenodd;clip-rule:evenodd;stroke-linejoin:round;stroke-miterlimit:2;">
    <g transform="matrix(0.615318,0,0,0.615318,-38.783,-41.0468)">
        <path d="M75.041,157.273C74.818,155.122 74.343,153.125 73.54,151.45C73.252,150.895 72.749,150.482 72.147,150.31C70.04,149.707 64.965,148.256 64.965,148.256C68.306,144.901 70.155,140.608 70.333,136.943C70.617,131.085 59.092,122.442 66.671,113.11C70.496,106.956 80.176,103.494 84.321,99.86C85.229,99.063 85.673,98.476 86.271,97.753C86.91,96.917 87.268,95.901 87.296,94.849C87.393,91.122 87.613,82.655 87.613,82.655C87.611,81.972 87.75,81.295 88.02,80.668C89.22,77.882 92.87,69.776 93.634,68.002C93.724,67.791 93.933,67.654 94.163,67.655C95.648,67.657 101.565,67.691 103.792,67.695C103.994,67.695 104.18,67.802 104.284,67.975C104.388,68.148 104.393,68.363 104.298,68.541C102.68,71.572 97.258,80.933 97.258,80.933L97.257,80.933C96.044,82.708 95.46,84.839 95.598,86.985C95.793,89.99 96.069,94.26 96.26,96.342C96.327,97.382 96.737,98.371 97.425,99.153C97.593,99.375 97.778,99.579 97.998,99.743C102.849,103.378 115.267,105.351 120.645,113.11C123.896,117.8 124.079,122.49 120.645,127.179C117.999,129.7 117.454,132.463 119.11,135.48C122.361,140.17 122.544,144.859 119.11,149.549C116.332,153.007 117.038,155.768 119.11,158.256C120.059,159.625 120.746,160.993 121.159,162.362C122.593,162.686 123.74,162.874 124.697,162.566C128.467,161.286 131.241,158.627 134.069,160.97C135.105,161.828 135.599,162.912 135.797,163.976C136.206,166.168 135.162,168.376 133.208,169.45C132.053,170.11 130.735,170.812 129.04,171.24C126.203,171.956 122.55,172.167 119.344,171.999C119.268,172.108 119.19,172.217 119.11,172.326C116.374,175.798 116.767,178.645 117.679,181.388C118.644,185.324 121.061,188.732 125.288,191.04C122.864,190.905 119.578,191.635 117.679,192.425C116.366,192.972 115.108,195.783 113.891,195.783L111.198,195.783C109.379,197.272 109.459,199.812 111.234,203.353C113.553,206.697 114.311,210.594 113.328,214.26C112.673,216.763 110.412,218.509 107.826,218.509C102.32,218.509 91.534,218.509 86.029,218.49C83.45,218.49 81.197,216.75 80.545,214.256C79.543,210.594 80.301,206.697 82.62,203.353C85.039,200.268 84.919,197.702 82.836,195.783L74.734,195.783L70.039,195.285L66.092,193.2L66.092,181.991L70.225,180.055C71.334,178.882 72.64,175.814 73.635,171.983C73.442,171.998 73.246,172.005 73.048,172.005C68.909,172.005 65.548,168.645 65.548,164.505C65.548,160.366 68.909,157.005 73.048,157.005C73.738,157.005 74.406,157.099 75.041,157.273ZM150.546,158.503C150.546,158.14 150.251,157.846 149.889,157.846L141.819,157.846C141.456,157.846 141.162,158.14 141.162,158.503L141.162,167.169C141.162,167.531 141.456,167.825 141.819,167.825L149.889,167.825C150.251,167.825 150.546,167.531 150.546,167.169L150.546,158.503Z" style="fill:white;"/>
    </g>
    <g transform="matrix(0.615318,0,0,0.615318,-38.783,-41.0468)">
        <path d="M106.236,217.252L100.712,217.252C100.099,217.252 99.601,217.75 99.601,218.364C99.601,218.977 100.099,219.475 100.712,219.475L106.236,219.475C106.849,219.475 107.347,218.977 107.347,218.364C107.347,217.75 106.849,217.252 106.236,217.252ZM91.407,217.252L85.883,217.252C85.27,217.252 84.772,217.75 84.772,218.364C84.772,218.977 85.27,219.475 85.883,219.475L91.407,219.475C92.02,219.475 92.518,218.977 92.518,218.364C92.518,217.75 92.02,217.252 91.407,217.252ZM81.707,202.72C78.158,207.84 77.975,212.959 81.723,218.079C82.086,218.574 82.781,218.681 83.276,218.319C83.771,217.957 83.879,217.261 83.516,216.766C80.397,212.506 80.58,208.246 83.533,203.986C83.882,203.482 83.757,202.789 83.253,202.44C82.749,202.091 82.056,202.216 81.707,202.72ZM93.757,203.986C96.71,208.246 96.893,212.506 93.774,216.766C93.411,217.261 93.519,217.957 94.014,218.319C94.508,218.681 95.204,218.574 95.567,218.079C99.315,212.959 99.132,207.84 95.583,202.72C95.234,202.216 94.541,202.091 94.037,202.44C93.533,202.789 93.408,203.482 93.757,203.986ZM110.321,203.986C113.274,208.246 113.457,212.506 110.338,216.766C109.976,217.261 110.083,217.957 110.578,218.319C111.073,218.681 111.769,218.574 112.131,218.079C115.88,212.959 115.697,207.84 112.148,202.72C111.798,202.216 111.105,202.091 110.601,202.44C110.097,202.789 109.972,203.482 110.321,203.986ZM90.938,194.672L74.734,194.672C74.121,194.672 73.623,195.169 73.623,195.783C73.623,196.396 74.121,196.894 74.734,196.894L90.938,196.894C91.551,196.894 92.049,196.396 92.049,195.783C92.049,195.169 91.551,194.672 90.938,194.672ZM113.44,194.433L103.474,194.433C102.861,194.433 102.363,194.931 102.363,195.544C102.363,196.157 102.861,196.655 103.474,196.655L113.44,196.655C114.053,196.655 114.551,196.157 114.551,195.544C114.551,194.931 114.053,194.433 113.44,194.433ZM67.159,192.783L67.159,182.705L70.378,181.356C70.858,181.158 71.14,180.753 71.14,180.096C71.14,179.796 71.028,179.553 70.808,179.362C70.529,179.121 70.234,179.085 69.928,179.22C69.932,179.219 65.817,180.904 65.817,180.904C65.813,180.906 65.809,180.907 65.805,180.909C65.285,181.136 64.993,181.572 64.993,182.253L64.993,193.231C64.981,193.913 65.272,194.352 65.81,194.581L69.938,196.271C70.268,196.407 70.564,196.354 70.826,196.116C71.032,195.927 71.14,195.688 71.14,195.392C71.14,194.734 70.858,194.329 70.375,194.13L67.159,192.783ZM98.232,182.705L98.232,192.783L95.014,194.131C94.533,194.329 94.251,194.734 94.251,195.392C94.251,195.688 94.359,195.927 94.566,196.116C94.827,196.354 95.123,196.407 95.454,196.271C95.453,196.271 99.575,194.583 99.575,194.583C99.577,194.583 99.579,194.582 99.581,194.581C100.119,194.352 100.411,193.913 100.398,193.231L100.398,182.253C100.398,181.572 100.107,181.136 99.586,180.909L95.459,179.219C95.155,179.086 94.861,179.122 94.583,179.362C94.363,179.553 94.251,179.796 94.251,180.096C94.251,180.753 94.533,181.158 95.017,181.358L98.232,182.705ZM116.6,181.653C117.401,184.919 119.129,187.851 121.97,190.157C120.372,190.424 118.761,190.878 117.318,191.375C116.738,191.574 116.429,192.207 116.628,192.787C116.828,193.367 117.461,193.675 118.04,193.476C120.268,192.71 122.936,192.022 125.226,192.149C125.745,192.178 126.214,191.844 126.356,191.345C126.499,190.845 126.276,190.314 125.82,190.065C121.902,187.925 119.653,184.772 118.758,181.124C118.612,180.528 118.01,180.163 117.414,180.309C116.819,180.455 116.454,181.058 116.6,181.653ZM98.55,192.652L98.584,192.643C98.572,192.645 98.561,192.649 98.55,192.652ZM66.841,192.652C66.836,192.65 66.83,192.649 66.825,192.647C66.819,192.645 66.813,192.644 66.808,192.643L66.841,192.652ZM66.927,182.802C66.913,182.809 66.898,182.815 66.883,182.821C66.868,182.827 66.853,182.832 66.838,182.836L66.927,182.802ZM98.464,182.802L98.553,182.836C98.523,182.827 98.493,182.816 98.464,182.802ZM109.794,172.66L99.829,172.66C99.215,172.66 98.718,173.158 98.718,173.771C98.718,174.384 99.215,174.882 99.829,174.882L109.794,174.882C110.408,174.882 110.905,174.384 110.905,173.771C110.905,173.158 110.408,172.66 109.794,172.66ZM93.757,158.889C96.71,163.149 96.893,167.409 93.774,171.669C93.411,172.164 93.519,172.86 94.014,173.222C94.508,173.585 95.204,173.477 95.567,172.982C99.315,167.863 99.132,162.743 95.583,157.623C95.234,157.119 94.541,156.994 94.037,157.343C93.533,157.693 93.408,158.385 93.757,158.889ZM111.929,158.889C114.882,163.149 115.065,167.409 111.945,171.669C111.583,172.164 111.691,172.86 112.186,173.222C112.68,173.585 113.376,173.477 113.738,172.982C117.487,167.863 117.304,162.743 113.755,157.623C113.406,157.119 112.713,156.994 112.209,157.343C111.705,157.693 111.579,158.385 111.929,158.889ZM87.489,158.889C90.442,163.149 90.624,167.409 87.505,171.669C87.143,172.164 87.251,172.86 87.745,173.222C88.24,173.585 88.936,173.477 89.298,172.982C93.047,167.863 92.864,162.743 89.315,157.623C88.966,157.119 88.273,156.994 87.769,157.343C87.265,157.693 87.139,158.385 87.489,158.889ZM118.197,158.889C121.15,163.149 121.333,167.409 118.214,171.669C117.851,172.164 117.959,172.86 118.454,173.222C118.949,173.585 119.644,173.477 120.007,172.982C123.755,167.863 123.572,162.743 120.023,157.623C119.674,157.119 118.981,156.994 118.477,157.343C117.973,157.693 117.848,158.385 118.197,158.889ZM73.048,155.894C68.296,155.894 64.437,159.753 64.437,164.505C64.437,169.258 68.296,173.117 73.048,173.117C77.801,173.117 81.66,169.258 81.66,164.505C81.66,159.753 77.801,155.894 73.048,155.894ZM139.629,172.959L152.18,172.959C152.377,172.959 152.553,172.878 152.701,172.707C152.839,172.549 152.908,172.363 152.908,172.149C152.908,171.935 152.839,171.749 152.701,171.591C152.553,171.42 152.377,171.339 152.18,171.339L139.629,171.339C139.432,171.339 139.257,171.42 139.108,171.591C138.971,171.749 138.901,171.935 138.901,172.149C138.901,172.363 138.971,172.549 139.108,172.707C139.257,172.878 139.432,172.959 139.629,172.959ZM84.474,169.05C85.289,169.05 85.951,169.712 85.951,170.528C85.951,171.343 85.289,172.005 84.474,172.005C83.658,172.005 82.996,171.343 82.996,170.528C82.996,169.712 83.658,169.05 84.474,169.05ZM125.054,163.618C126.943,162.977 128.583,161.991 130.104,161.458C131.243,161.059 132.3,160.947 133.361,161.826C134.17,162.497 134.55,163.348 134.705,164.179C135.039,165.972 134.13,167.764 132.49,168.554C131.572,168.954 130.574,169.331 129.292,169.437C128.681,169.487 128.225,170.024 128.276,170.635C128.326,171.247 128.863,171.702 129.474,171.652C131.047,171.522 132.274,171.073 133.378,170.592C133.388,170.587 133.398,170.583 133.408,170.578C135.981,169.364 137.411,166.568 136.889,163.772C136.648,162.476 136.04,161.16 134.778,160.115C133.011,158.65 131.267,158.696 129.369,159.361C127.854,159.892 126.221,160.875 124.34,161.514C123.759,161.711 123.448,162.342 123.645,162.923C123.842,163.504 124.473,163.815 125.054,163.618ZM73.048,158.117C76.575,158.117 79.437,160.979 79.437,164.505C79.437,168.032 76.575,170.894 73.048,170.894C69.522,170.894 66.66,168.032 66.66,164.505C66.66,160.979 69.522,158.117 73.048,158.117ZM141.454,157.192C141.243,157.192 141.062,157.278 140.915,157.456C140.781,157.619 140.711,157.815 140.711,158.047L140.711,167.837C140.711,168.069 140.781,168.265 140.915,168.427C141.062,168.605 141.243,168.691 141.454,168.691L150.355,168.691C150.566,168.691 150.747,168.605 150.894,168.427C151.029,168.265 151.098,168.069 151.098,167.837L151.098,158.047C151.098,157.815 151.029,157.619 150.894,157.456C150.747,157.278 150.566,157.192 150.355,157.192L141.454,157.192ZM142.316,163.724L149.493,163.724L149.493,167.072L142.316,167.072L142.316,163.724ZM142.316,158.829L149.493,158.829L149.493,162.123L142.316,162.123L142.316,158.829ZM149.461,138.364L149.929,148.982C149.959,149.486 149.938,149.883 149.861,150.173C149.818,150.334 149.76,150.458 149.678,150.54C149.413,150.805 149.154,150.948 148.889,150.948C148.497,150.948 148.231,150.905 148.1,150.775C147.921,150.596 147.814,150.348 147.769,150.034C147.769,150.034 147.746,149.912 147.715,149.751C147.632,149.314 147.251,148.998 146.806,148.998L146.625,148.998C146.348,148.998 146.086,149.123 145.91,149.337C145.734,149.551 145.664,149.833 145.718,150.105C145.883,150.93 146.217,151.589 146.712,152.085C147.106,152.479 147.776,152.692 148.733,152.692C149.675,152.692 150.479,152.36 151.144,151.695C151.643,151.196 151.885,150.314 151.83,149.04L151.361,138.189C151.314,137.434 151.409,136.912 151.691,136.63C151.913,136.408 152.203,136.301 152.558,136.301C152.9,136.301 153.14,136.346 153.269,136.474C153.448,136.653 153.555,136.901 153.6,137.214L153.603,137.236C153.684,137.804 154.17,138.225 154.743,138.225L154.745,138.225C155.011,138.225 155.265,138.109 155.44,137.908C155.614,137.706 155.693,137.439 155.655,137.175C155.654,137.162 155.653,137.155 155.653,137.155C155.541,136.376 155.258,135.765 154.813,135.32C154.311,134.818 153.562,134.556 152.558,134.556C151.664,134.556 150.939,134.839 150.381,135.398C149.721,136.058 149.406,137.044 149.461,138.364ZM142.648,138.364L143.116,148.982C143.146,149.486 143.125,149.883 143.048,150.173C143.005,150.334 142.948,150.458 142.865,150.54C142.601,150.805 142.341,150.948 142.076,150.948C141.684,150.948 141.418,150.905 141.287,150.775C141.108,150.596 141.001,150.348 140.956,150.034C140.956,150.034 140.933,149.912 140.902,149.751C140.819,149.314 140.438,148.998 139.994,148.998L139.812,148.998C139.535,148.998 139.273,149.123 139.097,149.337C138.921,149.551 138.851,149.833 138.905,150.105C139.07,150.93 139.404,151.589 139.899,152.085C140.293,152.479 140.963,152.692 141.92,152.692C142.863,152.692 143.666,152.36 144.331,151.695C144.83,151.196 145.072,150.314 145.017,149.04L144.548,138.189C144.501,137.434 144.596,136.912 144.878,136.63C145.1,136.408 145.39,136.301 145.745,136.301C146.087,136.301 146.327,136.346 146.456,136.474C146.635,136.653 146.742,136.901 146.787,137.214L146.79,137.236C146.871,137.804 147.357,138.225 147.93,138.225L147.932,138.225C148.198,138.225 148.452,138.109 148.627,137.908C148.801,137.706 148.88,137.439 148.842,137.175C148.841,137.162 148.84,137.155 148.84,137.155C148.728,136.376 148.445,135.765 148,135.32C147.498,134.818 146.749,134.556 145.745,134.556C144.851,134.556 144.126,134.839 143.568,135.398C142.908,136.058 142.593,137.044 142.648,138.364ZM118.197,136.113C121.15,140.373 121.333,144.633 118.214,148.893C117.851,149.388 117.959,150.083 118.454,150.446C118.949,150.808 119.644,150.7 120.007,150.206C123.755,145.086 123.572,139.966 120.023,134.847C119.674,134.343 118.981,134.217 118.477,134.567C117.973,134.916 117.848,135.609 118.197,136.113ZM69.48,136.735C68.643,141.286 67.312,144.271 64.151,147.445C63.703,147.894 63.705,148.622 64.154,149.07C64.603,149.517 65.332,149.516 65.779,149.066C69.3,145.531 70.808,142.22 71.74,137.151C71.855,136.527 71.441,135.927 70.817,135.813C70.194,135.698 69.594,136.111 69.48,136.735ZM80.533,138.891L80.581,138.873C80.828,138.795 81.071,138.812 81.309,138.93C81.524,139.036 81.697,139.213 81.808,139.479C81.81,139.484 81.812,139.489 81.814,139.495C82.802,142.064 83.655,144.898 84.375,147.995C84.439,148.255 84.404,148.501 84.27,148.734C84.13,148.976 83.929,149.126 83.671,149.189L83.39,149.246L83.519,149.231C83.26,149.293 83.009,149.25 82.769,149.086C82.556,148.941 82.416,148.742 82.351,148.487C82.35,148.482 82.349,148.478 82.348,148.473C81.648,145.412 80.836,142.647 79.911,140.18C79.909,140.175 79.907,140.171 79.906,140.166C79.822,139.925 79.829,139.684 79.929,139.443C80.039,139.179 80.218,139.012 80.452,138.925L80.533,138.891ZM74.065,148.95L74.196,149.023L74.191,149.02L74.21,149.03C74.431,149.138 74.668,149.159 74.921,149.084C75.19,149.005 75.389,148.837 75.514,148.579L75.514,148.578C76.816,145.882 77.641,143.013 77.99,139.972C78.023,139.717 77.96,139.472 77.791,139.247C77.613,139.008 77.391,138.89 77.142,138.864L77.01,138.849C76.724,138.829 76.478,138.918 76.272,139.117C76.091,139.293 75.985,139.504 75.954,139.75C75.954,139.751 75.953,139.751 75.953,139.752C75.612,142.526 74.847,145.147 73.66,147.615C73.547,147.847 73.524,148.093 73.597,148.353C73.676,148.636 73.838,148.831 74.065,148.95ZM109.283,140.866L97.829,140.866C97.215,140.866 96.718,141.364 96.718,141.977C96.718,142.59 97.215,143.088 97.829,143.088L109.283,143.088C109.896,143.088 110.394,142.59 110.394,141.977C110.394,141.364 109.896,140.866 109.283,140.866ZM92.916,132.605C91.353,132.605 90.076,133.889 90.076,135.48C90.076,137.07 91.353,138.355 92.916,138.355C94.48,138.355 95.757,137.07 95.757,135.48C95.757,133.889 94.48,132.605 92.916,132.605ZM113.321,132.605C111.757,132.605 110.48,133.889 110.48,135.48C110.48,137.07 111.757,138.355 113.321,138.355C114.885,138.355 116.161,137.07 116.161,135.48C116.161,133.889 114.885,132.605 113.321,132.605ZM92.916,134.272C93.568,134.272 94.09,134.817 94.09,135.48C94.09,136.143 93.568,136.688 92.916,136.688C92.265,136.688 91.742,136.143 91.742,135.48C91.742,134.817 92.265,134.272 92.916,134.272ZM113.321,134.272C113.973,134.272 114.495,134.817 114.495,135.48C114.495,136.143 113.973,136.688 113.321,136.688C112.669,136.688 112.147,136.143 112.147,135.48C112.147,134.817 112.669,134.272 113.321,134.272ZM119.732,113.743C122.685,118.003 122.868,122.263 119.749,126.523C119.387,127.018 119.494,127.714 119.989,128.076C120.484,128.438 121.18,128.331 121.542,127.836C125.29,122.716 125.108,117.597 121.559,112.477C121.209,111.973 120.516,111.847 120.012,112.197C119.508,112.546 119.383,113.239 119.732,113.743ZM65.758,112.477C62.209,117.597 62.026,122.716 65.774,127.836C66.136,128.331 66.832,128.438 67.327,128.076C67.822,127.714 67.929,127.018 67.567,126.523C64.448,122.263 64.631,118.003 67.584,113.743C67.933,113.239 67.808,112.546 67.304,112.197C66.8,111.847 66.107,111.973 65.758,112.477ZM77.472,113.828C77.077,119.355 75.529,122.656 70.972,125.433C70.448,125.752 70.282,126.436 70.601,126.96C70.92,127.484 71.604,127.65 72.128,127.331C77.382,124.129 79.233,120.36 79.688,113.987C79.732,113.375 79.271,112.843 78.659,112.799C78.048,112.755 77.516,113.216 77.472,113.828ZM88.46,113.828C88.065,119.355 86.517,122.656 81.96,125.433C81.436,125.752 81.27,126.436 81.589,126.96C81.908,127.484 82.592,127.65 83.116,127.331C88.371,124.129 90.221,120.36 90.677,113.987C90.721,113.375 90.259,112.843 89.648,112.799C89.036,112.755 88.504,113.216 88.46,113.828ZM99.686,117.249L99.599,116.686C99.846,116.608 100.088,116.625 100.326,116.743C100.541,116.849 100.714,117.026 100.826,117.292C100.828,117.297 100.83,117.302 100.832,117.308C101.819,119.877 102.673,122.711 103.392,125.808C103.456,126.068 103.421,126.314 103.287,126.547C103.148,126.789 102.947,126.939 102.689,127.002L102.407,127.059L102.536,127.044C102.278,127.106 102.026,127.063 101.786,126.899C101.574,126.754 101.434,126.555 101.369,126.3C101.367,126.295 101.366,126.291 101.365,126.286C100.665,123.225 99.853,120.46 98.928,117.993C98.927,117.988 98.925,117.984 98.923,117.979C98.84,117.738 98.847,117.497 98.947,117.256C99.056,116.992 99.236,116.825 99.469,116.738L99.551,116.704L99.663,117.258C99.667,117.257 99.672,117.255 99.676,117.254L99.686,117.249ZM93.082,126.763L93.213,126.836L93.209,126.833L93.228,126.843C93.449,126.951 93.685,126.972 93.939,126.897C94.207,126.817 94.406,126.65 94.531,126.391L94.532,126.391C95.833,123.695 96.659,120.826 97.007,117.785C97.04,117.53 96.978,117.285 96.809,117.06C96.63,116.821 96.408,116.703 96.159,116.677L96.027,116.661C95.741,116.642 95.495,116.731 95.29,116.93C95.108,117.106 95.003,117.317 94.971,117.562L94.971,117.565C94.629,120.339 93.865,122.96 92.677,125.428C92.565,125.659 92.542,125.906 92.614,126.166C92.693,126.449 92.856,126.644 93.082,126.763ZM94.001,126.203C93.979,126.236 93.954,126.264 93.926,126.288C93.918,126.315 93.908,126.342 93.896,126.368C93.894,126.381 93.892,126.394 93.889,126.406C93.849,126.57 93.739,126.703 93.595,126.774C93.52,126.848 93.462,126.895 93.462,126.895C93.719,126.895 93.942,126.719 94.002,126.47C94.024,126.38 94.023,126.288 94.001,126.203ZM107.364,118.084C110.028,120.082 113.148,123.111 114.866,125.186C115.257,125.659 115.958,125.725 116.43,125.334C116.903,124.943 116.969,124.242 116.578,123.769C114.773,121.589 111.496,118.406 108.697,116.307C108.206,115.939 107.509,116.038 107.141,116.529C106.773,117.019 106.873,117.716 107.364,118.084ZM96.459,117.645C96.569,117.548 96.64,117.408 96.646,117.25C96.656,116.994 96.491,116.771 96.256,116.698C96.376,116.736 96.434,116.812 96.451,116.907C96.513,117.001 96.548,117.114 96.544,117.235C96.54,117.348 96.502,117.453 96.441,117.539C96.451,117.574 96.457,117.609 96.459,117.645ZM112.537,116.015L114.218,117.351C114.578,117.637 115.103,117.577 115.389,117.217C115.675,116.857 115.615,116.332 115.255,116.046L113.574,114.71C113.214,114.424 112.689,114.484 112.403,114.844C112.117,115.204 112.177,115.729 112.537,116.015ZM114.81,114.5L116.491,115.836C116.851,116.122 117.376,116.062 117.662,115.702C117.948,115.342 117.888,114.817 117.528,114.531L115.847,113.195C115.487,112.909 114.962,112.969 114.676,113.329C114.39,113.689 114.45,114.214 114.81,114.5ZM91.442,84.615C91.112,84.615 90.833,84.731 90.602,84.962C90.371,85.192 90.255,85.472 90.255,85.802L90.255,87.257C90.255,89.831 89.674,92.143 88.505,94.189C87.34,96.226 85.717,97.815 83.634,98.957C83.63,98.96 83.626,98.962 83.622,98.965C83.348,99.124 83.172,99.357 83.092,99.665C83.014,99.967 83.056,100.253 83.224,100.523L83.298,100.654C83.47,100.913 83.714,101.08 84.034,101.152C84.345,101.223 84.641,101.187 84.922,101.046C84.926,101.044 84.93,101.042 84.934,101.039C86.602,100.151 88.066,98.914 89.326,97.326C90.267,96.139 91.022,94.845 91.591,93.443C92.155,94.835 92.897,96.124 93.817,97.312C95.054,98.908 96.495,100.149 98.14,101.038C98.149,101.043 98.159,101.048 98.169,101.053C98.468,101.192 98.762,101.22 99.051,101.151C99.357,101.077 99.597,100.908 99.77,100.642L99.756,100.662L99.816,100.556C100.019,100.271 100.066,99.966 99.971,99.646C99.882,99.347 99.704,99.12 99.438,98.965C99.434,98.962 99.431,98.96 99.427,98.958C97.344,97.805 95.72,96.209 94.555,94.171C93.386,92.125 92.804,89.82 92.804,87.257L92.804,85.802C92.804,85.472 92.688,85.192 92.457,84.962C92.227,84.731 91.947,84.615 91.617,84.615L91.617,84.616L91.442,84.615ZM102.823,68.215L96.284,80.133C95.989,80.671 96.186,81.347 96.723,81.642C97.261,81.937 97.937,81.74 98.232,81.202L104.771,69.284C105.066,68.746 104.869,68.07 104.331,67.775C103.794,67.48 103.118,67.677 102.823,68.215ZM93.232,68.297L88.929,77.941L84.626,68.297C84.376,67.737 83.718,67.485 83.158,67.735C82.598,67.985 82.347,68.642 82.596,69.202L87.914,81.12C88.093,81.521 88.491,81.779 88.929,81.779C89.368,81.779 89.765,81.521 89.944,81.12L95.262,69.202C95.512,68.642 95.26,67.985 94.7,67.735C94.14,67.485 93.482,67.737 93.232,68.297Z" style="fill-rule:nonzero;"/>
    </g>
</svg>
