<?xml version="1.0" encoding="UTF-8" standalone="no"?>
<!DOCTYPE svg PUBLIC "-//W3C//DTD SVG 1.1//EN" "http://www.w3.org/Graphics/SVG/1.1/DTD/svg11.dtd">
<svg width="58px" height="24px" version="1.1" xmlns="http://www.w3.org/2000/svg" xmlns:xlink="http://www.w3.org/1999/xlink" xml:space="preserve" xmlns:serif="http://www.serif.com/" style="fill-rule:evenodd;clip-rule:evenodd;stroke-linejoin:round;stroke-miterlimit:2;">
    <g transform="matrix(0.521062,0,0,0.520145,-28.3874,-78.4051)">
        <path d="M79.456,196.878C75.735,196.878 72.155,195.45 69.454,192.886C64.936,188.64 62.312,183.657 62.312,178.322C62.312,163.097 83.68,150.737 110,150.737C136.32,150.737 157.688,163.097 157.688,178.322C157.688,183.657 155.064,188.64 150.524,192.863C147.828,195.421 144.257,196.846 140.544,196.846C127.703,196.878 92.297,196.878 79.456,196.878Z" style="fill:white;"/>
    </g>
    <g transform="matrix(0.535513,0,0,0.535513,-28.6117,-93.831)">
        <path d="M125.56,217.423L125.673,217.423C125.999,217.417 126.277,217.313 126.507,217.116C126.763,216.898 126.887,216.631 126.887,216.319L126.887,212.648C126.887,212.339 126.765,212.07 126.512,211.844C126.273,211.63 125.983,211.521 125.641,211.521L124.6,211.521L124.6,197.043C124.6,196.732 124.476,196.465 124.22,196.247C123.982,196.044 123.694,195.94 123.354,195.94L113.748,195.94C113.404,195.94 113.119,196.046 112.889,196.251C112.647,196.469 112.528,196.733 112.528,197.043L112.528,197.801C112.528,200.122 112.51,201.883 112.474,203.082C112.438,204.279 112.389,205.378 112.327,206.377C112.266,207.345 112.139,208.095 111.94,208.626C111.74,209.16 111.524,209.623 111.289,210.015C111.053,210.41 110.691,210.911 110.204,211.52L110.196,211.521L109.765,211.521C109.423,211.521 109.133,211.63 108.894,211.844C108.641,212.07 108.519,212.339 108.519,212.648L108.519,216.319C108.519,216.631 108.643,216.898 108.899,217.116C109.137,217.319 109.425,217.423 109.765,217.423L109.878,217.423C110.204,217.417 110.482,217.313 110.712,217.116C110.968,216.898 111.092,216.631 111.092,216.319L111.092,213.66L124.314,213.66L124.314,216.319C124.314,216.631 124.438,216.898 124.694,217.116C124.932,217.319 125.22,217.423 125.56,217.423ZM65.726,189.135C59.647,197.905 59.328,206.674 65.748,215.444C66.225,216.095 67.141,216.237 67.792,215.76C68.444,215.283 68.585,214.367 68.108,213.716C62.516,206.078 62.836,198.44 68.13,190.802C68.59,190.138 68.425,189.227 67.762,188.767C67.098,188.307 66.186,188.472 65.726,189.135ZM147.034,190.802C152.329,198.44 152.649,206.078 147.056,213.716C146.579,214.367 146.721,215.283 147.372,215.76C148.023,216.237 148.939,216.095 149.416,215.444C155.837,206.674 155.517,197.905 149.438,189.135C148.978,188.472 148.066,188.307 147.403,188.767C146.74,189.227 146.574,190.138 147.034,190.802ZM113.428,211.521C114.266,210.237 114.768,208.968 114.938,207.717C115.116,206.403 115.207,203.19 115.209,198.078L121.838,198.078L121.838,211.521L113.428,211.521ZM91.954,188.024C90.11,188.024 88.607,189.539 88.607,191.414C88.607,193.289 90.11,194.804 91.954,194.804C93.797,194.804 95.301,193.289 95.301,191.414C95.301,189.539 93.797,188.024 91.954,188.024ZM137.415,188.024C135.571,188.024 134.068,189.539 134.068,191.414C134.068,193.289 135.571,194.804 137.415,194.804C139.258,194.804 140.762,193.289 140.762,191.414C140.762,189.539 139.258,188.024 137.415,188.024ZM91.954,189.691C92.885,189.691 93.634,190.467 93.634,191.414C93.634,192.361 92.885,193.137 91.954,193.137C91.022,193.137 90.274,192.361 90.274,191.414C90.274,190.467 91.022,189.691 91.954,189.691ZM137.415,189.691C138.346,189.691 139.095,190.467 139.095,191.414C139.095,192.361 138.346,193.137 137.415,193.137C136.483,193.137 135.734,192.361 135.734,191.414C135.734,190.467 136.483,189.691 137.415,189.691Z" style="fill-opacity:0.9;fill-rule:nonzero;"/>
    </g>
</svg>
