<?xml version="1.0" encoding="UTF-8" standalone="no"?>
<!DOCTYPE svg PUBLIC "-//W3C//DTD SVG 1.1//EN" "http://www.w3.org/Graphics/SVG/1.1/DTD/svg11.dtd">
<svg width="59px" height="84px" version="1.1" xmlns="http://www.w3.org/2000/svg" xmlns:xlink="http://www.w3.org/1999/xlink" xml:space="preserve" xmlns:serif="http://www.serif.com/" style="fill-rule:evenodd;clip-rule:evenodd;stroke-linejoin:round;stroke-miterlimit:2;">
    <g transform="matrix(-0.546601,0,0,0.546601,65.8663,-297.922)">
        <path d="M103.507,664.832C112.25,664.853 111.62,672.856 111.197,676.517C111.129,677.109 111.23,677.674 111.197,678.235C110.904,683.272 111.096,687.113 110.955,689.921C110.613,696.776 102.199,696.023 98.514,690.771C95.7,686.759 95.346,684.35 94.644,682.06C93.72,679.048 91.309,678.847 88.406,679.49C90.665,685.416 90.256,689.456 86.36,694.882C86.041,696.069 83.195,698.183 80.267,697.643L54.414,697.419C52.662,697.587 51.127,696.76 49.895,696.148C44.4,688.439 45.254,681.891 49.895,673.832C51.411,671.199 55.416,667.37 60.075,664.832C52.413,660.163 48.085,654.388 47.42,645.094C45.894,638.737 42.887,634.088 38.063,631.536C35.301,631.334 33.813,629.953 32.518,627.622C32.058,626.786 31.816,625.847 31.817,624.893C31.817,621.592 31.037,611.12 31.037,611.12C31.32,609.145 30.673,606.824 28.531,606.254C24.876,605.281 21.308,604.046 18.258,601.558C12.763,593.849 12.264,586.018 17.466,578.309C19.366,574.873 21.385,571.436 23.772,568L46.505,549.037C56.851,547.94 68.136,547.984 80.267,549.037L103,568L109.001,576.935C114.203,584.644 113.522,592.719 108.027,600.428C108.299,599.793 114.278,605.586 115.81,609.077C118.37,614.917 120.278,622.664 114.806,631.536C110.877,637.907 103.507,641.705 103.507,641.705C108.71,649.414 109.002,657.123 103.507,664.832Z" style="fill:white;"/>
    </g>
    <g transform="matrix(0.617603,0,0,0.617603,-38.3245,-50.6522)">
        <path d="M97.543,218.024L120.543,218.024C121.351,218.024 122.006,217.369 122.006,216.562C122.006,215.754 121.351,215.099 120.543,215.099L97.543,215.099C96.736,215.099 96.08,215.754 96.08,216.562C96.08,217.369 96.736,218.024 97.543,218.024ZM123.331,196.379C127.56,202.646 127.82,208.914 123.353,215.181C122.884,215.838 123.038,216.752 123.695,217.22C124.352,217.688 125.265,217.535 125.734,216.878C130.993,209.5 130.734,202.122 125.755,194.743C125.304,194.075 124.394,193.898 123.725,194.349C123.057,194.801 122.88,195.71 123.331,196.379ZM91.882,194.743C86.904,202.122 86.645,209.5 91.904,216.878C92.372,217.535 93.286,217.688 93.943,217.22C94.6,216.752 94.753,215.838 94.285,215.181C89.818,208.914 90.077,202.646 94.306,196.379C94.758,195.71 94.581,194.801 93.912,194.349C93.243,193.898 92.334,194.075 91.882,194.743ZM83.208,206.957L83.194,206.952C82.869,206.834 82.544,206.846 82.219,206.992C81.897,207.137 81.666,207.377 81.528,207.714C81.528,207.715 81.527,207.716 81.527,207.717C80.769,209.609 79.849,211.051 78.75,212.03C77.709,212.959 76.578,213.432 75.348,213.432C74.643,213.432 74.074,213.362 73.643,213.209C73.256,213.071 72.918,212.808 72.618,212.43C72.294,212.021 72.076,211.433 71.941,210.677C71.79,209.837 71.717,208.756 71.717,207.435C71.717,204.932 71.784,201.92 71.918,198.399C71.94,198.049 71.826,197.733 71.564,197.457C71.319,197.199 71.037,197.064 70.727,197.034L70.553,197.009C70.182,196.983 69.858,197.107 69.586,197.393C69.344,197.647 69.213,197.948 69.191,198.294L69.191,198.308C69.055,201.905 68.988,204.947 68.988,207.435C68.988,210.673 69.47,212.9 70.357,214.131C71.287,215.422 72.938,216.117 75.348,216.117C77.221,216.117 78.907,215.475 80.403,214.184C81.851,212.935 83.054,211.103 83.996,208.678C83.997,208.675 83.999,208.671 84,208.668C84.113,208.36 84.112,208.04 83.989,207.708L83.988,207.708C83.854,207.35 83.614,207.109 83.273,206.98L83.309,206.995L83.208,206.957ZM75.882,166.743C70.904,174.122 70.645,181.5 75.904,188.878C76.372,189.535 77.286,189.688 77.943,189.22C78.6,188.752 78.753,187.838 78.285,187.181C73.818,180.914 74.077,174.646 78.306,168.379C78.758,167.71 78.581,166.801 77.912,166.349C77.243,165.898 76.334,166.075 75.882,166.743ZM124.878,170.462C124.328,178.159 122.167,182.754 115.821,186.62C115.167,187.018 114.96,187.873 115.358,188.527C115.757,189.181 116.611,189.388 117.265,188.99C124.482,184.593 127.02,179.413 127.646,170.66C127.701,169.896 127.125,169.232 126.361,169.177C125.597,169.122 124.933,169.698 124.878,170.462ZM98.771,174.714C102.59,177.274 107.063,181.152 109.525,183.812C110.046,184.374 110.924,184.407 111.486,183.887C112.048,183.367 112.082,182.488 111.562,181.926C108.986,179.145 104.31,175.086 100.316,172.409C99.68,171.982 98.817,172.152 98.391,172.789C97.964,173.425 98.135,174.287 98.771,174.714ZM139.155,140.562L139.155,152.682C139.155,153.291 139.005,153.89 138.71,154.423C137.797,156.06 136.387,157.035 134.443,157.176C133.678,157.232 133.103,157.898 133.159,158.662C133.214,159.427 133.88,160.002 134.645,159.947C137.6,159.732 139.75,158.263 141.137,155.774C141.138,155.773 141.138,155.772 141.139,155.771C141.663,154.825 141.933,153.763 141.933,152.682L141.933,140.562C141.933,139.795 141.31,139.173 140.544,139.173C139.777,139.173 139.155,139.795 139.155,140.562ZM65.882,136.743C60.904,144.122 60.645,151.5 65.904,158.878C66.372,159.535 67.286,159.688 67.943,159.22C68.6,158.752 68.753,157.838 68.285,157.181C63.818,150.914 64.077,144.646 68.306,138.379C68.758,137.71 68.581,136.801 67.912,136.349C67.243,135.898 66.334,136.075 65.882,136.743ZM71.925,148.065C74.745,147.262 77.193,146.027 79.464,145.359C81.315,144.815 83.028,144.671 84.752,145.869C85.482,146.377 85.986,146.961 86.318,147.576C86.903,148.683 87.001,149.983 86.589,151.164C86.176,152.348 85.289,153.306 84.141,153.809C84.138,153.81 84.136,153.811 84.133,153.812C82.573,154.506 80.83,155.18 78.449,155.344C77.685,155.397 77.107,156.06 77.159,156.825C77.212,157.589 77.875,158.167 78.64,158.115C81.412,157.924 83.446,157.158 85.262,156.349C87.11,155.541 88.544,153.992 89.211,152.079C89.879,150.167 89.719,148.062 88.77,146.272C88.769,146.269 88.767,146.266 88.766,146.263C88.249,145.303 87.475,144.381 86.337,143.589C83.836,141.851 81.366,141.906 78.681,142.695C76.416,143.361 73.976,144.594 71.164,145.394C70.427,145.604 69.999,146.373 70.209,147.11C70.419,147.847 71.188,148.275 71.925,148.065ZM151.331,112.379C155.56,118.646 155.82,124.914 151.353,131.181C150.884,131.838 151.038,132.752 151.695,133.22C152.352,133.688 153.265,133.535 153.734,132.878C158.993,125.5 158.734,118.122 153.755,110.743C153.304,110.075 152.394,109.898 151.725,110.349C151.057,110.801 150.88,111.71 151.331,112.379ZM71.882,109.743C66.904,117.122 66.645,124.5 71.904,131.878C72.372,132.535 73.286,132.688 73.943,132.22C74.6,131.752 74.753,130.838 74.285,130.181C69.818,123.914 70.077,117.646 74.306,111.379C74.758,110.71 74.581,109.801 73.912,109.349C73.243,108.898 72.334,109.075 71.882,109.743ZM106.383,115.616L96.704,115.616L94.849,111.908C94.488,111.187 93.611,110.895 92.89,111.255C92.169,111.616 91.877,112.493 92.237,113.214L100.237,129.214C100.485,129.709 100.99,130.021 101.543,130.021C102.096,130.021 102.602,129.709 102.849,129.214L110.849,113.214C111.21,112.493 110.917,111.616 110.196,111.255C109.475,110.895 108.598,111.188 108.237,111.908L106.383,115.616ZM143.759,128.113L143.759,120.6C143.759,118.611 142.969,116.703 141.563,115.296L141.562,115.296C140.155,113.889 138.248,113.099 136.258,113.099L136.255,113.099C134.352,113.099 132.527,113.855 131.182,115.199C131.182,115.2 131.181,115.2 131.181,115.2C129.837,116.546 129.08,118.372 129.08,120.274L129.08,128.113C129.08,128.92 129.736,129.576 130.543,129.576C131.351,129.576 132.006,128.92 132.006,128.113L132.006,120.274C132.006,119.147 132.454,118.066 133.25,117.268C134.047,116.472 135.128,116.024 136.255,116.024L136.258,116.024C137.472,116.024 138.635,116.506 139.494,117.364C140.351,118.223 140.834,119.387 140.834,120.6L140.834,128.113C140.834,128.92 141.489,129.576 142.296,129.576C143.104,129.576 143.759,128.92 143.759,128.113ZM104.923,118.536L98.163,118.536L101.543,125.297L104.923,118.536ZM115.509,111.595L119.509,115.595C120.08,116.166 121.007,116.166 121.577,115.595C122.148,115.025 122.148,114.098 121.577,113.527L117.577,109.527C117.007,108.956 116.08,108.956 115.509,109.527C114.938,110.098 114.938,111.025 115.509,111.595ZM82.51,109.527L78.51,113.527C77.939,114.098 77.939,115.025 78.51,115.595C79.08,116.166 80.007,116.166 80.578,115.595L84.578,111.595C85.149,111.025 85.149,110.098 84.578,109.527C84.007,108.956 83.08,108.956 82.51,109.527ZM126.813,85.63L146.933,103.167C147.395,103.57 148.097,103.522 148.5,103.059C148.903,102.597 148.855,101.895 148.392,101.492L128.273,83.955C127.811,83.553 127.109,83.601 126.706,84.063C126.303,84.525 126.351,85.227 126.813,85.63ZM96.933,83.955L76.813,101.492C76.351,101.895 76.303,102.597 76.706,103.059C77.108,103.522 77.811,103.57 78.273,103.167L98.392,85.63C98.854,85.227 98.903,84.525 98.5,84.063C98.097,83.601 97.395,83.553 96.933,83.955ZM121.933,85.561C121.933,84.794 121.311,84.172 120.544,84.172L105.544,84.172C104.777,84.172 104.154,84.794 104.154,85.561L104.154,100.561C104.154,101.329 104.777,101.951 105.544,101.951L120.544,101.951C121.311,101.951 121.933,101.329 121.933,100.561L121.933,85.561Z"/>
    </g>
</svg>
