<?xml version="1.0" encoding="UTF-8" standalone="no"?>
<!DOCTYPE svg PUBLIC "-//W3C//DTD SVG 1.1//EN" "http://www.w3.org/Graphics/SVG/1.1/DTD/svg11.dtd">
<svg width="65px" height="50px" version="1.1" xmlns="http://www.w3.org/2000/svg" xmlns:xlink="http://www.w3.org/1999/xlink" xml:space="preserve" xmlns:serif="http://www.serif.com/" style="fill-rule:evenodd;clip-rule:evenodd;stroke-linejoin:round;stroke-miterlimit:2;">
    <g transform="matrix(-0.544856,0,0,0.544856,68.2619,-298.004)">
        <path d="M80.673,549.078L98.836,564.37C100.795,565.951 104.653,571.88 107.325,578.692C110.631,587.121 110.563,594.759 105.953,601.473C102.108,607.456 96.349,610.049 91.547,611.42C96.681,618.825 97.684,627.399 92.262,634.804C91.192,636.475 89.581,637.461 87.181,637.447L30.567,637.447C28.777,637.305 27.336,636.365 26.167,634.804C20.745,627.399 21.034,618.825 26.167,611.42C20.985,609.336 16.579,605.589 12.608,600.908C7.186,593.502 7.475,586.097 12.608,578.692C15.751,575.328 19.383,571.641 23.772,568L46.911,549.078C58.756,547.659 69.91,547.898 80.673,549.078Z" style="fill:white;"/>
    </g>
    <g transform="matrix(0.615631,0,0,0.615631,-35.507,-84.3627)">
        <path d="M141.354,216.039L91.247,216.039C90.637,216.039 90.141,216.535 90.141,217.145C90.141,217.756 90.637,218.252 91.247,218.252L141.354,218.252C141.964,218.252 142.46,217.756 142.46,217.145C142.46,216.535 141.964,216.039 141.354,216.039ZM85.552,194.313C80.617,201.432 80.361,208.551 85.573,215.67C86.05,216.32 86.964,216.462 87.615,215.985C88.265,215.509 88.407,214.594 87.93,213.944C83.546,207.955 83.801,201.966 87.952,195.977C88.412,195.315 88.246,194.404 87.584,193.945C86.921,193.486 86.011,193.651 85.552,194.313ZM144.048,195.977C148.199,201.966 148.454,207.955 144.069,213.944C143.593,214.594 143.735,215.509 144.385,215.985C145.036,216.462 145.95,216.32 146.426,215.67C151.638,208.551 151.383,201.432 146.448,194.313C145.989,193.651 145.078,193.486 144.416,193.945C143.753,194.404 143.588,195.315 144.048,195.977ZM59.128,205.922L59.179,205.985C59.226,206.044 59.276,206.087 59.324,206.118C59.579,206.304 59.87,206.382 60.199,206.348C60.538,206.313 60.825,206.168 61.059,205.91C61.061,205.909 61.063,205.907 61.064,205.905C62.021,204.826 63.119,204.273 64.37,204.273C65.378,204.273 66.37,204.748 67.366,205.657C67.366,205.658 67.367,205.658 67.367,205.659C68.83,206.987 70.438,207.643 72.185,207.643C74.371,207.658 76.169,206.819 77.576,205.127C77.582,205.12 77.588,205.112 77.594,205.105C77.802,204.827 77.892,204.509 77.857,204.149C77.823,203.791 77.669,203.495 77.396,203.262L77.271,203.16C77.004,202.944 76.691,202.849 76.329,202.885C75.976,202.92 75.681,203.075 75.446,203.355C74.941,203.92 74.429,204.332 73.904,204.579C73.389,204.821 72.816,204.939 72.186,204.939L72.18,204.939C71.174,204.952 70.184,204.483 69.191,203.575C69.19,203.575 69.19,203.575 69.19,203.574C67.727,202.246 66.118,201.59 64.372,201.59C62.186,201.575 60.388,202.414 58.98,204.106C58.979,204.107 58.978,204.108 58.977,204.109C58.761,204.374 58.663,204.69 58.699,205.063C58.733,205.407 58.876,205.693 59.128,205.922ZM59.282,206.085L59.262,206.07C59.269,206.075 59.275,206.08 59.282,206.085ZM135.148,188.7L135.294,188.7C135.675,188.692 136.001,188.547 136.27,188.263C136.538,187.981 136.675,187.64 136.675,187.237L136.675,183.202C136.675,182.807 136.543,182.464 136.279,182.173C135.999,181.865 135.657,181.714 135.257,181.714L134.637,181.714L134.637,166.053C134.637,165.65 134.5,165.309 134.233,165.027C133.954,164.735 133.616,164.59 133.219,164.59L124.66,164.59C124.255,164.59 123.919,164.739 123.649,165.037C123.396,165.316 123.265,165.654 123.265,166.053L123.265,166.885C123.265,169.435 123.249,171.368 123.217,172.685C123.186,174 123.142,175.205 123.086,176.302C123.033,177.345 122.924,178.155 122.75,178.728C122.575,179.302 122.387,179.801 122.182,180.224C121.99,180.621 121.702,181.117 121.319,181.714L121.111,181.714C120.711,181.714 120.369,181.864 120.089,182.173C119.825,182.464 119.693,182.807 119.693,183.202L119.693,187.237C119.693,187.64 119.829,187.982 120.098,188.263C120.367,188.547 120.693,188.692 121.074,188.7L121.22,188.7C121.602,188.692 121.927,188.547 122.197,188.263C122.465,187.982 122.602,187.64 122.602,187.237L122.602,184.565L133.766,184.565L133.766,187.237C133.766,187.64 133.903,187.981 134.171,188.263C134.44,188.547 134.766,188.692 135.148,188.7ZM79.335,183.778C79.961,184.682 80.013,185.585 79.351,186.489C78.989,186.984 79.097,187.68 79.592,188.042C80.086,188.404 80.783,188.297 81.145,187.802C82.436,186.039 82.384,184.275 81.162,182.512C80.812,182.008 80.119,181.882 79.615,182.232C79.111,182.581 78.985,183.274 79.335,183.778ZM83.335,183.778C83.961,184.682 84.013,185.585 83.351,186.489C82.989,186.984 83.097,187.68 83.592,188.042C84.086,188.404 84.783,188.297 85.145,187.802C86.436,186.039 86.384,184.275 85.162,182.512C84.812,182.008 84.119,181.882 83.615,182.232C83.111,182.581 82.985,183.274 83.335,183.778ZM73.552,164.313C68.617,171.432 68.361,178.551 73.573,185.67C74.05,186.32 74.964,186.462 75.615,185.985C76.265,185.509 76.407,184.594 75.93,183.944C71.546,177.955 71.801,171.966 75.952,165.977C76.412,165.315 76.247,164.404 75.584,163.945C74.921,163.486 74.011,163.651 73.552,164.313ZM156.048,165.977C160.199,171.966 160.454,177.955 156.069,183.944C155.593,184.594 155.735,185.509 156.385,185.985C157.036,186.462 157.95,186.32 158.426,185.67C163.638,178.551 163.383,171.432 158.448,164.313C157.989,163.651 157.078,163.486 156.416,163.945C155.753,164.404 155.588,165.315 156.048,165.977ZM89.744,178.251C89.853,177.996 90.037,177.798 90.297,177.659L93.053,176.146C92.609,175.906 92.093,175.622 91.506,175.295L90.302,174.634C89.98,174.461 89.77,174.201 89.671,173.856C89.574,173.516 89.612,173.188 89.798,172.872L89.818,172.833C89.991,172.512 90.252,172.304 90.598,172.205L90.599,172.205C90.937,172.109 91.277,172.146 91.615,172.339L94.304,173.991C94.279,173.207 94.255,172.157 94.231,170.842L94.231,170.83C94.231,170.488 94.356,170.179 94.625,169.91C94.894,169.643 95.203,169.518 95.545,169.518L95.545,169.535C95.556,169.524 95.568,169.518 95.582,169.518L95.583,169.518C95.929,169.518 96.234,169.642 96.494,169.901C96.75,170.156 96.879,170.466 96.879,170.83L96.807,174.001L99.496,172.349C99.623,172.271 99.754,172.216 99.887,172.184C100.012,172.145 100.144,172.124 100.281,172.124C101.007,172.124 101.596,172.713 101.596,173.439C101.596,173.978 101.271,174.442 100.807,174.645L98.062,176.138L100.826,177.656C101.149,177.829 101.358,178.089 101.458,178.435C101.558,178.786 101.513,179.125 101.312,179.451L101.311,179.458C101.138,179.778 100.877,179.987 100.53,180.086C100.185,180.184 99.838,180.139 99.494,179.921L96.807,178.284L96.879,181.461C96.879,181.799 96.759,182.104 96.504,182.37C96.242,182.643 95.933,182.772 95.583,182.772L95.545,182.772C95.196,182.772 94.887,182.643 94.625,182.37C94.37,182.104 94.25,181.799 94.25,181.461L94.321,178.303C93.686,178.693 92.828,179.206 91.748,179.843C91.524,180.02 91.242,180.125 90.935,180.125C90.209,180.125 89.619,179.536 89.619,178.81C89.619,178.61 89.664,178.42 89.744,178.251ZM124.835,181.714C125.489,180.395 125.885,179.091 126.027,177.803C126.184,176.377 126.266,172.923 126.27,167.441L131.561,167.441L131.561,181.714L124.835,181.714ZM145.566,173.146C146.845,173.146 147.883,174.184 147.883,175.463C147.883,176.742 146.845,177.781 145.566,177.781C144.287,177.781 143.248,176.742 143.248,175.463C143.248,174.184 144.287,173.146 145.566,173.146ZM108.565,173.146C109.844,173.146 110.883,174.184 110.883,175.463C110.883,176.742 109.844,177.781 108.565,177.781C107.286,177.781 106.248,176.742 106.248,175.463C106.248,174.184 107.286,173.146 108.565,173.146ZM126.518,138.983L146.638,156.52C147.1,156.922 147.802,156.874 148.205,156.412C148.607,155.95 148.559,155.248 148.097,154.845L127.978,137.308C127.516,136.905 126.813,136.953 126.411,137.415C126.008,137.878 126.056,138.58 126.518,138.983ZM96.637,137.308L76.518,154.845C76.056,155.248 76.008,155.95 76.41,156.412C76.813,156.874 77.515,156.922 77.977,156.52L98.097,138.983C98.559,138.58 98.607,137.878 98.204,137.415C97.802,136.953 97.099,136.905 96.637,137.308ZM121.638,138.914C121.638,138.147 121.016,137.524 120.249,137.524L105.249,137.524C104.481,137.524 103.859,138.147 103.859,138.914L103.859,153.914C103.859,154.681 104.481,155.303 105.249,155.303L120.249,155.303C121.016,155.303 121.638,154.681 121.638,153.914L121.638,138.914Z"/>
    </g>
</svg>
