<?xml version="1.0" encoding="UTF-8" standalone="no"?>
<!DOCTYPE svg PUBLIC "-//W3C//DTD SVG 1.1//EN" "http://www.w3.org/Graphics/SVG/1.1/DTD/svg11.dtd">
<svg width="59px" height="87px" version="1.1" xmlns="http://www.w3.org/2000/svg" xmlns:xlink="http://www.w3.org/1999/xlink" xml:space="preserve" xmlns:serif="http://www.serif.com/" style="fill-rule:evenodd;clip-rule:evenodd;stroke-linejoin:round;stroke-miterlimit:2;">
    <g transform="matrix(0.611775,0,0,0.611775,-37.6598,-47.5664)">
        <path d="M110.842,211.399C109.564,215.107 107.823,218.313 103.294,218.499L70.794,218.499L66.794,216.498C61.669,209.499 61.942,202.498 66.794,195.499C68.175,193.451 69.475,191.342 69.794,188.498L69.794,163.499C69.689,162.265 68.746,160.315 66.794,157.499C61.669,150.498 61.942,143.499 66.794,136.498C68.366,134.584 69.186,132.47 66.794,129.499C61.669,122.498 61.942,115.499 66.794,108.499C69.149,104.983 69.53,101.96 67.665,99.499C62.54,93.165 62.813,86.832 67.665,80.499C69.001,78.918 70.667,78.441 72.794,79.498L93.794,98.498C95.457,100.015 96.959,100.564 98.358,100.498L121.23,100.498C123.136,100.473 124.679,99.843 125.794,98.498L146.794,79.498C148.999,77.89 151.012,78.098 152.794,80.499C157.647,86.832 158.684,92.165 153.559,98.498C153.575,100.963 149.247,104.477 143.452,106.475C143.065,106.607 142.759,106.908 142.622,107.292C142.484,107.676 142.528,108.102 142.742,108.45C146.825,115.149 147.826,122.978 143.052,129.499C140.975,131.832 140.697,134.166 143.052,136.498C147.905,143.499 148.177,150.498 143.052,157.499L137.794,163.499L137.794,188.498C141.697,190.503 144.748,192.818 146.794,195.499C151.647,202.498 151.92,209.499 146.794,216.498C145.705,217.744 144.064,218.435 141.794,218.499L116.794,218.499C112.101,216.638 110.905,214.235 110.842,211.399Z" style="fill:white;"/>
    </g>
    <g transform="matrix(0.611775,0,0,0.611775,-37.6597,-46.7383)">
        <path d="M116.794,218.607L141.794,218.607C142.601,218.607 143.256,217.952 143.256,217.145C143.256,216.338 142.601,215.683 141.794,215.683L116.794,215.683C115.987,215.683 115.332,216.338 115.332,217.145C115.332,217.952 115.987,218.607 116.794,218.607ZM103.295,215.683L70.794,215.683C69.987,215.683 69.333,216.338 69.333,217.145C69.333,217.952 69.987,218.607 70.794,218.607L103.295,218.607C104.102,218.607 104.756,217.952 104.756,217.145C104.756,216.338 104.102,215.683 103.295,215.683ZM106.85,194.978C111.31,201.412 111.583,207.847 106.872,214.281C106.395,214.932 106.537,215.848 107.188,216.325C107.839,216.802 108.755,216.66 109.232,216.009C114.772,208.443 114.499,200.878 109.254,193.312C108.794,192.648 107.882,192.483 107.219,192.943C106.555,193.403 106.39,194.315 106.85,194.978ZM145.592,194.978C150.052,201.412 150.325,207.847 145.614,214.281C145.137,214.932 145.279,215.848 145.93,216.325C146.581,216.802 147.497,216.66 147.974,216.009C153.514,208.443 153.241,200.878 147.996,193.312C147.536,192.648 146.624,192.483 145.961,192.943C145.297,193.403 145.132,194.315 145.592,194.978ZM65.592,193.312C60.347,200.878 60.074,208.443 65.614,216.009C66.091,216.66 67.007,216.802 67.658,216.325C68.309,215.848 68.451,214.932 67.974,214.281C63.263,207.847 63.536,201.412 67.996,194.978C68.456,194.315 68.291,193.403 67.627,192.943C66.964,192.483 66.052,192.648 65.592,193.312ZM68.332,162.145L68.332,187.145C68.332,187.952 68.987,188.607 69.794,188.607C70.601,188.607 71.256,187.952 71.256,187.145L71.256,162.145C71.256,161.338 70.601,160.683 69.794,160.683C68.987,160.683 68.332,161.338 68.332,162.145ZM102.832,162.145L102.832,187.145C102.832,187.952 103.487,188.607 104.294,188.607C105.101,188.607 105.756,187.952 105.756,187.145L105.756,162.145C105.756,161.338 105.101,160.683 104.294,160.683C103.487,160.683 102.832,161.338 102.832,162.145ZM136.332,162.145L136.332,187.145C136.332,187.952 136.987,188.607 137.794,188.607C138.601,188.607 139.256,187.952 139.256,187.145L139.256,162.145C139.256,161.338 138.601,160.683 137.794,160.683C136.987,160.683 136.332,161.338 136.332,162.145ZM141.85,135.978C146.31,142.412 146.583,148.847 141.872,155.281C141.395,155.932 141.537,156.848 142.188,157.325C142.839,157.802 143.755,157.66 144.232,157.009C149.772,149.443 149.499,141.878 144.254,134.312C143.794,133.648 142.882,133.483 142.219,133.943C141.555,134.403 141.39,135.315 141.85,135.978ZM65.592,134.312C60.347,141.878 60.074,149.443 65.614,157.009C66.091,157.66 67.007,157.802 67.658,157.325C68.309,156.848 68.451,155.932 67.974,155.281C63.263,148.847 63.536,142.412 67.996,135.978C68.456,135.315 68.291,134.403 67.627,133.943C66.964,133.483 66.052,133.648 65.592,134.312ZM141.85,107.978C146.31,114.412 146.583,120.847 141.872,127.281C141.395,127.932 141.537,128.848 142.188,129.325C142.839,129.802 143.755,129.66 144.232,129.009C149.772,121.443 149.499,113.878 144.254,106.312C143.794,105.648 142.882,105.483 142.219,105.943C141.555,106.403 141.39,107.315 141.85,107.978ZM65.592,106.312C60.347,113.878 60.074,121.443 65.614,129.009C66.091,129.66 67.007,129.802 67.658,129.325C68.309,128.848 68.451,127.932 67.974,127.281C63.263,120.847 63.536,114.412 67.996,107.978C68.456,107.315 68.291,106.403 67.627,105.943C66.964,105.483 66.052,105.648 65.592,106.312ZM118.068,112.698L108.02,112.698L106.167,108.991C105.806,108.269 104.926,107.976 104.204,108.337C103.482,108.698 103.189,109.578 103.55,110.299L105.799,114.796C105.804,114.808 105.81,114.819 105.816,114.83L111.55,126.299C111.836,126.87 112.445,127.173 113.044,127.096C113.643,127.173 114.252,126.87 114.538,126.299L122.538,110.299C122.899,109.578 122.606,108.698 121.884,108.337C121.162,107.976 120.283,108.269 119.922,108.991L118.068,112.698ZM109.482,115.623L113.044,122.746L116.606,115.623L109.482,115.623ZM129.139,107.68L133.139,111.68C133.71,112.25 134.636,112.25 135.207,111.68C135.778,111.109 135.778,110.182 135.207,109.611L131.207,105.611C130.636,105.041 129.71,105.041 129.139,105.611C128.568,106.182 128.568,107.109 129.139,107.68ZM94.139,105.611L90.139,109.611C89.568,110.182 89.568,111.109 90.139,111.68C90.71,112.25 91.636,112.25 92.207,111.68L96.207,107.68C96.778,107.109 96.778,106.182 96.207,105.611C95.636,105.041 94.71,105.041 94.139,105.611ZM98.358,100.534L121.23,100.534C121.996,100.534 122.618,99.912 122.618,99.145C122.618,98.378 121.996,97.756 121.23,97.756L98.358,97.756C97.592,97.756 96.97,98.378 96.97,99.145C96.97,99.912 97.592,100.534 98.358,100.534ZM151.633,80.035C153.84,82.916 155.042,85.781 155.073,88.661C155.104,91.521 153.971,94.365 151.657,97.225C151.149,97.853 151.247,98.774 151.874,99.283C152.501,99.79 153.423,99.693 153.931,99.066C156.742,95.591 158.035,92.103 157.998,88.63C157.961,85.177 156.601,81.709 153.955,78.256C153.464,77.615 152.545,77.493 151.905,77.985C151.264,78.475 151.142,79.394 151.633,80.035ZM66.504,78.256C63.858,81.709 62.498,85.177 62.461,88.63C62.424,92.103 63.717,95.591 66.528,99.066C67.036,99.693 67.958,99.79 68.585,99.283C69.212,98.774 69.31,97.853 68.802,97.225C66.488,94.365 65.355,91.521 65.386,88.661C65.417,85.781 66.619,82.916 68.826,80.035C69.317,79.394 69.195,78.475 68.554,77.985C67.914,77.493 66.995,77.615 66.504,78.256ZM71.862,79.175L92.862,98.175C93.431,98.689 94.31,98.645 94.824,98.077C95.338,97.508 95.294,96.629 94.726,96.115L73.726,77.115C73.157,76.601 72.278,76.645 71.764,77.213C71.25,77.782 71.294,78.661 71.862,79.175ZM145.862,77.115L124.862,96.115C124.294,96.629 124.25,97.508 124.764,98.077C125.278,98.645 126.157,98.689 126.726,98.175L147.726,79.175C148.294,78.661 148.338,77.782 147.824,77.213C147.31,76.645 146.431,76.601 145.862,77.115Z"/>
    </g>
</svg>
