<?xml version="1.0" encoding="UTF-8" standalone="no"?>
<!DOCTYPE svg PUBLIC "-//W3C//DTD SVG 1.1//EN" "http://www.w3.org/Graphics/SVG/1.1/DTD/svg11.dtd">
<svg width="110px" height="66px" version="1.1" xmlns="http://www.w3.org/2000/svg" xmlns:xlink="http://www.w3.org/1999/xlink" xml:space="preserve" xmlns:serif="http://www.serif.com/" style="fill-rule:evenodd;clip-rule:evenodd;stroke-linejoin:round;stroke-miterlimit:2;">
    <g transform="matrix(0.61751,0,0,0.61751,-10.3952,-69.4713)">
        <path d="M168.92,164.57C169.621,165.22 170.02,166.133 170.02,167.089L170.02,187.787L167.296,198.453L167.296,218.271L73.288,218.271C70.027,218.444 66.768,218.592 63.844,215.844L45.467,199.666L45.041,187.293C45.041,187.293 43.036,188.912 41.879,189.846C41.418,190.219 40.756,190.205 40.311,189.813C36.692,186.628 21.388,173.155 17.246,169.509C16.984,169.278 16.834,168.945 16.834,168.596C16.833,168.247 16.984,167.914 17.246,167.683C22.279,163.245 44.074,144.03 47.434,141.068C47.711,140.824 47.866,140.471 47.86,140.103C47.85,139.49 47.834,138.505 47.821,137.709C47.816,137.371 47.946,137.046 48.183,136.805C48.419,136.565 48.743,136.429 49.08,136.429L70.378,136.429C70.378,136.429 83.612,136.239 88.684,136.166C89.759,136.151 90.618,135.267 90.604,134.192C90.604,134.192 90.604,134.191 90.603,134.19C90.589,133.134 89.729,132.286 88.674,132.286L75.699,132.286L89.573,116.521C91.216,115.07 93.64,114.329 96.81,114.267L117.131,114.267C118.344,114.267 119.515,114.708 120.427,115.507C125.353,119.827 141.451,133.943 141.451,133.943C141.451,133.943 141.391,137.708 141.364,139.369C141.357,139.859 141.564,140.328 141.932,140.652C145.61,143.89 165.559,161.452 165.559,161.452C165.559,161.452 167.6,163.345 168.92,164.57Z" style="fill:white;"/>
    </g>
    <g transform="matrix(0.61751,0,0,0.61751,-10.3952,-69.4713)">
        <path d="M67.999,196.12L67.999,218.271C67.999,218.885 68.497,219.383 69.11,219.383C69.723,219.383 70.221,218.885 70.221,218.271L70.221,196.12C70.221,195.507 69.723,195.009 69.11,195.009C68.497,195.009 67.999,195.507 67.999,196.12ZM166.185,196.12L166.185,218.271C166.185,218.885 166.683,219.383 167.296,219.383C167.91,219.383 168.407,218.885 168.407,218.271L168.407,196.12C168.407,195.507 167.91,195.009 167.296,195.009C166.683,195.009 166.185,195.507 166.185,196.12ZM163.683,217.227L73.288,217.227C72.712,217.227 72.244,217.695 72.244,218.271C72.244,218.848 72.712,219.316 73.288,219.316L163.683,219.316C164.259,219.316 164.727,218.848 164.727,218.271C164.727,217.695 164.259,217.227 163.683,217.227ZM44.733,200.5L63.109,216.678C63.57,217.083 64.272,217.039 64.678,216.578C65.083,216.118 65.038,215.415 64.578,215.01L46.202,198.832C45.741,198.427 45.039,198.472 44.634,198.932C44.228,199.392 44.273,200.095 44.733,200.5ZM67.999,169.009L67.999,191.16C67.999,191.774 68.497,192.272 69.11,192.272C69.723,192.272 70.221,191.774 70.221,191.16L70.221,169.009C70.221,168.396 69.723,167.898 69.11,167.898C68.497,167.898 67.999,168.396 67.999,169.009ZM168.908,169.009L168.908,191.16C168.908,191.774 169.406,192.272 170.02,192.272C170.633,192.272 171.131,191.774 171.131,191.16L171.131,169.009C171.131,168.396 170.633,167.898 170.02,167.898C169.406,167.898 168.908,168.396 168.908,169.009ZM62.226,170.882L43.346,187.504C42.886,187.909 42.841,188.611 43.246,189.072C43.652,189.532 44.354,189.577 44.814,189.171L63.695,172.55C64.155,172.144 64.2,171.442 63.795,170.982C63.389,170.521 62.687,170.477 62.226,170.882ZM174.747,172.83L193.123,189.008C193.584,189.413 194.286,189.368 194.692,188.908C195.097,188.448 195.052,187.745 194.592,187.34L176.216,171.162C175.755,170.757 175.053,170.801 174.647,171.262C174.242,171.722 174.287,172.425 174.747,172.83ZM19.338,172.83L37.715,189.008C38.175,189.413 38.878,189.368 39.283,188.908C39.688,188.448 39.643,187.745 39.183,187.34L20.807,171.162C20.346,170.757 19.644,170.801 19.239,171.262C18.833,171.722 18.878,172.425 19.338,172.83ZM107.834,173.292L107.834,180.811C107.834,183.513 105.871,185.747 103.388,185.747L103.387,185.747C101.082,185.747 99.263,183.67 99.263,181.162L99.263,173.292C99.263,172.669 98.757,172.163 98.133,172.163C97.51,172.163 97.004,172.669 97.004,173.292L97.004,181.162C97.004,184.968 99.889,188.007 103.387,188.007L103.388,188.007C107.065,188.007 110.094,184.811 110.094,180.811L110.094,173.292C110.094,172.669 109.588,172.163 108.964,172.163C108.341,172.163 107.834,172.669 107.834,173.292ZM139.151,173.292L139.151,180.811C139.151,183.513 137.188,185.747 134.705,185.747L134.704,185.747C132.399,185.747 130.58,183.67 130.58,181.162L130.58,173.292C130.58,172.669 130.074,172.163 129.45,172.163C128.827,172.163 128.32,172.669 128.32,173.292L128.32,181.162C128.32,184.968 131.206,188.007 134.704,188.007L134.705,188.007C138.381,188.007 141.411,184.811 141.411,180.811L141.411,173.292C141.411,172.669 140.905,172.163 140.281,172.163C139.658,172.163 139.151,172.669 139.151,173.292ZM94.574,167.965L73.288,167.965C72.712,167.965 72.244,168.433 72.244,169.009C72.244,169.586 72.712,170.054 73.288,170.054L94.574,170.054C95.15,170.054 95.618,169.586 95.618,169.009C95.618,168.433 95.15,167.965 94.574,167.965ZM165.559,167.965L143.184,167.965C142.607,167.965 142.139,168.433 142.139,169.009C142.139,169.586 142.607,170.054 143.184,170.054L165.559,170.054C166.135,170.054 166.603,169.586 166.603,169.009C166.603,168.433 166.135,167.965 165.559,167.965ZM140.136,142.296L140.136,164.21C140.136,164.823 140.634,165.321 141.247,165.321C141.86,165.321 142.358,164.823 142.358,164.21L142.358,142.296C142.358,141.682 141.86,141.185 141.247,141.185C140.634,141.185 140.136,141.682 140.136,142.296ZM95.048,142.296L95.048,164.21C95.048,164.823 95.546,165.321 96.159,165.321C96.772,165.321 97.27,164.823 97.27,164.21L97.27,142.296C97.27,141.682 96.772,141.185 96.159,141.185C95.546,141.185 95.048,141.682 95.048,142.296ZM109.151,144.574L99.722,160.955C99.406,161.505 99.595,162.208 100.145,162.524C100.694,162.84 101.397,162.651 101.714,162.101L111.142,145.721C111.459,145.171 111.269,144.468 110.72,144.152C110.17,143.835 109.467,144.025 109.151,144.574ZM49.866,146.108L68.242,162.286C68.703,162.691 69.405,162.647 69.811,162.186C70.216,161.726 70.171,161.023 69.711,160.618L51.335,144.44C50.874,144.035 50.172,144.08 49.767,144.54C49.361,145 49.406,145.703 49.866,146.108ZM146.448,146.108L164.824,162.286C165.285,162.691 165.987,162.647 166.392,162.186C166.798,161.726 166.753,161.023 166.293,160.618L147.917,144.44C147.456,144.035 146.754,144.08 146.348,144.54C145.943,145 145.988,145.703 146.448,146.108ZM43.346,143.191L24.259,159.994C23.799,160.4 23.754,161.102 24.159,161.563C24.564,162.023 25.267,162.068 25.727,161.662L44.814,144.859C45.275,144.453 45.319,143.751 44.914,143.29C44.509,142.83 43.806,142.785 43.346,143.191ZM129.4,147.478L129.4,154.848C129.4,157.494 127.477,159.683 125.045,159.683L125.043,159.683C122.786,159.683 121.005,157.648 121.005,155.192L121.005,147.478C121.005,146.864 120.507,146.367 119.894,146.367C119.28,146.367 118.783,146.864 118.783,147.478L118.783,155.192C118.783,158.925 121.612,161.905 125.043,161.905L125.045,161.905C128.651,161.905 131.622,158.771 131.622,154.848L131.622,147.478C131.622,146.864 131.124,146.367 130.511,146.367C129.898,146.367 129.4,146.864 129.4,147.478ZM115.129,141.733C113.534,141.733 112.239,143.028 112.239,144.623C112.239,146.218 113.534,147.513 115.129,147.513C116.724,147.513 118.019,146.218 118.019,144.623C118.019,143.028 116.724,141.733 115.129,141.733ZM135.152,141.733C133.557,141.733 132.262,143.028 132.262,144.623C132.262,146.218 133.557,147.513 135.152,147.513C136.747,147.513 138.042,146.218 138.042,144.623C138.042,143.028 136.747,141.733 135.152,141.733ZM115.129,143.4C115.804,143.4 116.352,143.948 116.352,144.623C116.352,145.298 115.804,145.846 115.129,145.846C114.454,145.846 113.906,145.298 113.906,144.623C113.906,143.948 114.454,143.4 115.129,143.4ZM135.152,143.4C135.827,143.4 136.375,143.948 136.375,144.623C136.375,145.298 135.827,145.846 135.152,145.846C134.477,145.846 133.929,145.298 133.929,144.623C133.929,143.948 134.477,143.4 135.152,143.4ZM70.378,135.385L48.373,135.385C47.796,135.385 47.328,135.853 47.328,136.429C47.328,137.006 47.796,137.474 48.373,137.474L70.378,137.474C70.954,137.474 71.422,137.006 71.422,136.429C71.422,135.853 70.954,135.385 70.378,135.385ZM121.174,117.571L140.38,134.48C140.84,134.885 141.543,134.84 141.948,134.38C142.353,133.92 142.308,133.217 141.848,132.812L122.642,115.903C122.182,115.498 121.479,115.543 121.074,116.003C120.669,116.463 120.713,117.166 121.174,117.571ZM90.578,131.175L78.157,131.175L90.407,117.255C90.812,116.794 90.767,116.092 90.307,115.687C89.847,115.282 89.144,115.326 88.739,115.787L74.865,131.552C74.577,131.88 74.507,132.346 74.687,132.744C74.867,133.141 75.263,133.397 75.699,133.397L90.578,133.397C91.191,133.397 91.689,132.899 91.689,132.286C91.689,131.673 91.191,131.175 90.578,131.175ZM118.232,113.156L96.81,113.156C96.197,113.156 95.699,113.654 95.699,114.267C95.699,114.88 96.197,115.378 96.81,115.378L118.232,115.378C118.845,115.378 119.343,114.88 119.343,114.267C119.343,113.654 118.845,113.156 118.232,113.156Z"/>
    </g>
</svg>
