<?xml version="1.0" encoding="UTF-8" standalone="no"?>
<!DOCTYPE svg PUBLIC "-//W3C//DTD SVG 1.1//EN" "http://www.w3.org/Graphics/SVG/1.1/DTD/svg11.dtd">
<svg width="49px" height="107px" version="1.1" xmlns="http://www.w3.org/2000/svg" xmlns:xlink="http://www.w3.org/1999/xlink" xml:space="preserve" xmlns:serif="http://www.serif.com/" style="fill-rule:evenodd;clip-rule:evenodd;stroke-linejoin:round;stroke-miterlimit:2;">
    <g transform="matrix(-0.439301,0,0,0.439301,80.4448,29.4427)">
        <path d="M137.929,30.481L137.341,-65.388L103.212,-65.388L102.903,-26.278L74.822,-26.278L74.762,6.934L102.903,6.929L102.903,18.596C102.112,24.834 97.575,29.055 92.104,32.773C80.766,41.391 78.121,51.461 77,61C72.148,68 71.875,75 77,82L81.979,89.641L81.979,115.316C81.49,118.468 80.431,121.295 78.684,123.728C73.832,130.728 73.559,137.728 78.684,144.728C77.996,148.768 77.609,153.184 77.64,158.123L77.64,167.509C77.64,171.273 80.445,174.324 83.905,174.324L83.907,174.324C87.58,174.324 90.557,171.085 90.557,167.09L90.557,158.123C90.809,155.787 92.401,154.424 94.63,153.526L119.842,153.526C123.661,153.245 126.407,154.86 127.89,158.712L127.89,168.098C127.89,171.862 130.695,174.914 134.155,174.914L134.157,174.914C137.829,174.914 140.807,171.675 140.807,167.68L140.807,158.712C141.018,154.051 144.809,149.39 148.176,144.728C153.301,137.728 153.029,130.728 148.176,123.728C146.338,121.454 145.231,118.694 145.049,115.316L145.049,89.641C164.478,79.591 158.182,63.466 147.159,47.958C140.681,43.703 138.781,38.475 137.929,30.481Z" style="fill:white;"/>
    </g>
    <g transform="matrix(0.624395,0,0,0.624395,-44.343,-29.3266)">
        <path d="M99.743,205.89L99.743,212.2C99.743,215.611 102.331,218.334 105.467,218.334L105.468,218.334C108.454,218.334 110.921,215.743 110.921,212.494L110.921,205.89C110.921,205.314 110.453,204.846 109.876,204.846C109.299,204.846 108.831,205.314 108.831,205.89L108.831,212.494C108.831,214.542 107.351,216.245 105.468,216.245L105.467,216.245C103.434,216.244 101.833,214.41 101.833,212.2L101.833,205.89C101.833,205.314 101.365,204.846 100.788,204.846C100.212,204.846 99.743,205.314 99.743,205.89ZM135.097,205.476L135.097,211.785C135.097,215.196 137.685,217.919 140.821,217.919L140.822,217.919C143.808,217.919 146.275,215.328 146.275,212.079L146.275,205.476C146.275,204.899 145.806,204.431 145.23,204.431C144.653,204.431 144.185,204.899 144.185,205.476L144.185,212.079C144.185,214.128 142.705,215.83 140.822,215.83L140.821,215.83C138.788,215.83 137.187,213.996 137.187,211.785L137.187,205.476C137.187,204.899 136.718,204.431 136.142,204.431C135.565,204.431 135.097,204.899 135.097,205.476ZM115.538,203.286L133.276,203.286C133.853,203.286 134.321,202.818 134.321,202.242C134.321,201.665 133.853,201.197 133.276,201.197L115.538,201.197C114.961,201.197 114.493,201.665 114.493,202.242C114.493,202.818 114.961,203.286 115.538,203.286ZM143.637,181.872C146.771,186.393 146.963,190.914 143.652,195.435C143.312,195.9 143.413,196.554 143.878,196.895C144.343,197.235 144.998,197.134 145.338,196.669C149.24,191.34 149.048,186.011 145.354,180.682C145.025,180.208 144.374,180.09 143.9,180.419C143.426,180.747 143.308,181.398 143.637,181.872ZM137.614,181.872C140.748,186.393 140.94,190.914 137.63,195.435C137.289,195.9 137.39,196.554 137.856,196.895C138.321,197.235 138.975,197.134 139.315,196.669C143.217,191.34 143.025,186.011 139.331,180.682C139.003,180.208 138.351,180.09 137.877,180.419C137.404,180.747 137.286,181.398 137.614,181.872ZM113.504,180.682C109.81,186.011 109.618,191.34 113.519,196.669C113.86,197.134 114.514,197.235 114.979,196.895C115.445,196.554 115.546,195.9 115.205,195.435C111.895,190.914 112.087,186.393 115.221,181.872C115.549,181.398 115.431,180.747 114.957,180.419C114.484,180.09 113.832,180.208 113.504,180.682ZM94.745,180.682C91.051,186.011 90.858,191.34 94.76,196.669C95.101,197.134 95.755,197.235 96.22,196.895C96.686,196.554 96.787,195.9 96.446,195.435C93.136,190.914 93.328,186.393 96.462,181.872C96.79,181.398 96.672,180.747 96.198,180.419C95.724,180.09 95.073,180.208 94.745,180.682ZM107.251,180.682C103.557,186.011 103.365,191.34 107.266,196.669C107.607,197.134 108.261,197.235 108.726,196.895C109.192,196.554 109.293,195.9 108.952,195.435C105.642,190.914 105.834,186.393 108.968,181.872C109.296,181.398 109.178,180.747 108.704,180.419C108.231,180.09 107.579,180.208 107.251,180.682ZM100.998,180.682C97.304,186.011 97.112,191.34 101.013,196.669C101.354,197.134 102.008,197.235 102.473,196.895C102.939,196.554 103.04,195.9 102.699,195.435C99.389,190.914 99.581,186.393 102.715,181.872C103.043,181.398 102.925,180.747 102.451,180.419C101.978,180.09 101.326,180.208 100.998,180.682ZM134.698,193.704C135.329,193.704 135.842,194.217 135.842,194.849C135.842,195.481 135.329,195.994 134.698,195.994C134.066,195.994 133.553,195.481 133.553,194.849C133.553,194.217 134.066,193.704 134.698,193.704ZM130.645,193.704C131.277,193.704 131.79,194.217 131.79,194.849C131.79,195.481 131.277,195.994 130.645,195.994C130.013,195.994 129.5,195.481 129.5,194.849C129.5,194.217 130.013,193.704 130.645,193.704ZM118.575,193.704C119.207,193.704 119.72,194.217 119.72,194.849C119.72,195.481 119.207,195.994 118.575,195.994C117.943,195.994 117.43,195.481 117.43,194.849C117.43,194.217 117.943,193.704 118.575,193.704ZM126.593,193.704C127.225,193.704 127.738,194.217 127.738,194.849C127.738,195.481 127.225,195.994 126.593,195.994C125.961,195.994 125.448,195.481 125.448,194.849C125.448,194.217 125.961,193.704 126.593,193.704ZM122.546,193.704C123.178,193.704 123.691,194.217 123.691,194.849C123.691,195.481 123.178,195.994 122.546,195.994C121.915,195.994 121.402,195.481 121.402,194.849C121.402,194.217 121.915,193.704 122.546,193.704ZM71.509,190.206L71.541,190.244C71.592,190.305 71.645,190.348 71.696,190.378C71.911,190.523 72.155,190.584 72.43,190.557C72.721,190.528 72.967,190.407 73.168,190.195C73.17,190.194 73.171,190.192 73.173,190.19C73.884,189.42 74.7,189.024 75.63,189.024C76.38,189.024 77.117,189.367 77.858,190.017C77.858,190.017 77.858,190.018 77.859,190.018C79.008,191.02 80.272,191.514 81.644,191.515C83.365,191.525 84.778,190.89 85.886,189.612C85.892,189.605 85.898,189.597 85.903,189.59C86.09,189.352 86.169,189.08 86.138,188.772C86.107,188.469 85.974,188.217 85.734,188.019L85.631,187.938C85.402,187.76 85.134,187.68 84.824,187.71C84.522,187.739 84.269,187.867 84.067,188.096C83.691,188.5 83.311,188.795 82.921,188.971C82.539,189.143 82.114,189.227 81.646,189.227L81.639,189.227C80.892,189.236 80.157,188.897 79.418,188.25L79.417,188.249C78.267,187.247 77.003,186.753 75.631,186.752C73.911,186.741 72.498,187.377 71.39,188.655C71.389,188.656 71.388,188.657 71.387,188.658C71.193,188.886 71.105,189.158 71.138,189.479C71.167,189.769 71.289,190.012 71.509,190.206ZM71.645,190.341L71.626,190.327C71.632,190.331 71.638,190.336 71.645,190.341ZM130.645,186.375C131.277,186.375 131.79,186.888 131.79,187.519C131.79,188.151 131.277,188.664 130.645,188.664C130.013,188.664 129.5,188.151 129.5,187.519C129.5,186.888 130.013,186.375 130.645,186.375ZM118.575,186.375C119.207,186.375 119.72,186.888 119.72,187.519C119.72,188.151 119.207,188.664 118.575,188.664C117.943,188.664 117.43,188.151 117.43,187.519C117.43,186.888 117.943,186.375 118.575,186.375ZM134.698,186.375C135.329,186.375 135.842,186.888 135.842,187.519C135.842,188.151 135.329,188.664 134.698,188.664C134.066,188.664 133.553,188.151 133.553,187.519C133.553,186.888 134.066,186.375 134.698,186.375ZM126.593,186.375C127.225,186.375 127.738,186.888 127.738,187.519C127.738,188.151 127.225,188.664 126.593,188.664C125.961,188.664 125.448,188.151 125.448,187.519C125.448,186.888 125.961,186.375 126.593,186.375ZM122.546,186.375C123.178,186.375 123.691,186.888 123.691,187.519C123.691,188.151 123.178,188.664 122.546,188.664C121.915,188.664 121.402,188.151 121.402,187.519C121.402,186.888 121.915,186.375 122.546,186.375ZM96.55,157.295L96.55,175.358C96.55,176.05 97.111,176.612 97.803,176.612C98.495,176.612 99.057,176.05 99.057,175.358L99.057,157.295C99.057,156.603 98.495,156.041 97.803,156.041C97.111,156.041 96.55,156.603 96.55,157.295ZM140.923,157.295L140.923,175.358C140.923,176.05 141.485,176.612 142.177,176.612C142.869,176.612 143.43,176.05 143.43,175.358L143.43,157.295C143.43,156.603 142.869,156.041 142.177,156.041C141.485,156.041 140.923,156.603 140.923,157.295ZM102.077,171.275C102.709,171.275 103.222,171.788 103.222,172.42C103.222,173.052 102.709,173.565 102.077,173.565C101.445,173.565 100.932,173.052 100.932,172.42C100.932,171.788 101.445,171.275 102.077,171.275ZM124.932,171.079C125.564,171.079 126.077,171.592 126.077,172.224C126.077,172.856 125.564,173.369 124.932,173.369C124.3,173.369 123.787,172.856 123.787,172.224C123.787,171.592 124.3,171.079 124.932,171.079ZM137.083,171.079C137.715,171.079 138.228,171.592 138.228,172.224C138.228,172.856 137.715,173.369 137.083,173.369C136.451,173.369 135.938,172.856 135.938,172.224C135.938,171.592 136.451,171.079 137.083,171.079ZM133.031,171.079C133.663,171.079 134.176,171.592 134.176,172.224C134.176,172.856 133.663,173.369 133.031,173.369C132.399,173.369 131.886,172.856 131.886,172.224C131.886,171.592 132.399,171.079 133.031,171.079ZM128.979,171.079C129.611,171.079 130.124,171.592 130.124,172.224C130.124,172.856 129.611,173.369 128.979,173.369C128.347,173.369 127.834,172.856 127.834,172.224C127.834,171.592 128.347,171.079 128.979,171.079ZM107.92,160.535L107.92,166.845C107.92,170.256 110.507,172.979 113.643,172.979L113.644,172.979C116.63,172.979 119.097,170.388 119.097,167.139L119.097,160.535C119.097,159.959 118.629,159.491 118.052,159.491C117.476,159.491 117.008,159.959 117.008,160.535L117.008,167.139C117.008,169.187 115.527,170.89 113.644,170.89L113.643,170.89C111.611,170.889 110.009,169.055 110.009,166.845L110.009,160.535C110.009,159.959 109.541,159.491 108.964,159.491C108.388,159.491 107.92,159.959 107.92,160.535ZM102.077,163.945C102.709,163.945 103.222,164.458 103.222,165.09C103.222,165.722 102.709,166.235 102.077,166.235C101.445,166.235 100.932,165.722 100.932,165.09C100.932,164.458 101.445,163.945 102.077,163.945ZM137.083,163.75C137.715,163.75 138.228,164.263 138.228,164.894C138.228,165.526 137.715,166.039 137.083,166.039C136.451,166.039 135.938,165.526 135.938,164.894C135.938,164.263 136.451,163.75 137.083,163.75ZM133.031,163.75C133.663,163.75 134.176,164.263 134.176,164.894C134.176,165.526 133.663,166.039 133.031,166.039C132.399,166.039 131.886,165.526 131.886,164.894C131.886,164.263 132.399,163.75 133.031,163.75ZM128.979,163.75C129.611,163.75 130.124,164.263 130.124,164.894C130.124,165.526 129.611,166.039 128.979,166.039C128.347,166.039 127.834,165.526 127.834,164.894C127.834,164.263 128.347,163.75 128.979,163.75ZM124.932,163.75C125.564,163.75 126.077,164.263 126.077,164.894C126.077,165.526 125.564,166.039 124.932,166.039C124.3,166.039 123.787,165.526 123.787,164.894C123.787,164.263 124.3,163.75 124.932,163.75ZM108.77,150.775C109.281,151.513 109.322,152.251 108.782,152.989C108.51,153.361 108.591,153.885 108.963,154.157C109.335,154.43 109.858,154.349 110.131,153.977C111.144,152.592 111.103,151.208 110.143,149.823C109.88,149.444 109.359,149.35 108.98,149.612C108.601,149.875 108.507,150.396 108.77,150.775ZM112.892,150.775C113.404,151.513 113.445,152.251 112.905,152.989C112.632,153.361 112.713,153.885 113.085,154.157C113.458,154.43 113.981,154.349 114.253,153.977C115.267,152.592 115.226,151.208 114.266,149.823C114.003,149.444 113.482,149.35 113.103,149.612C112.724,149.875 112.629,150.396 112.892,150.775ZM135.525,153.868L135.609,153.867C135.877,153.862 136.105,153.768 136.294,153.59C136.496,153.399 136.596,153.167 136.596,152.894L136.596,149.961C136.596,149.693 136.499,149.459 136.299,149.262C136.102,149.068 135.864,148.97 135.583,148.97L134.943,148.97L134.943,137.497C134.943,137.224 134.843,136.992 134.641,136.801C134.445,136.617 134.209,136.524 133.93,136.524L126.986,136.524C126.703,136.524 126.469,136.62 126.28,136.807C126.088,136.996 125.992,137.226 125.992,137.497L125.992,138.102C125.992,139.955 125.979,141.361 125.954,142.318C125.928,143.274 125.892,144.151 125.847,144.949C125.804,145.713 125.714,146.306 125.571,146.726C125.429,147.148 125.274,147.514 125.106,147.824C124.943,148.126 124.694,148.508 124.362,148.97L124.108,148.97C123.827,148.97 123.589,149.068 123.392,149.262C123.192,149.459 123.094,149.693 123.094,149.961L123.094,152.894C123.094,153.167 123.195,153.399 123.397,153.59C123.592,153.774 123.829,153.868 124.108,153.868L124.192,153.867C124.46,153.862 124.688,153.768 124.877,153.59C125.08,153.399 125.18,153.167 125.18,152.894L125.18,150.861L134.511,150.861L134.511,152.894C134.511,153.167 134.611,153.399 134.814,153.59C135.009,153.774 135.246,153.868 135.525,153.868ZM144.822,137.739C147.955,142.26 148.147,146.781 144.837,151.302C144.497,151.767 144.598,152.421 145.063,152.762C145.528,153.102 146.182,153.001 146.523,152.536C150.425,147.207 150.233,141.878 146.539,136.549C146.21,136.075 145.559,135.957 145.085,136.285C144.611,136.614 144.493,137.265 144.822,137.739ZM105.309,136.549C101.615,141.878 101.423,147.207 105.325,152.536C105.665,153.001 106.319,153.102 106.785,152.762C107.25,152.421 107.351,151.767 107.01,151.302C103.7,146.781 103.892,142.26 107.026,137.739C107.355,137.265 107.236,136.614 106.763,136.285C106.289,135.957 105.637,136.075 105.309,136.549ZM90.268,136.549C86.574,141.878 86.382,147.207 90.283,152.536C90.624,153.001 91.278,153.102 91.743,152.762C92.209,152.421 92.31,151.767 91.969,151.302C88.659,146.781 88.851,142.26 91.985,137.739C92.313,137.265 92.195,136.614 91.721,136.285C91.248,135.957 90.596,136.075 90.268,136.549ZM95.459,148.497C96.091,148.497 96.604,149.01 96.604,149.642C96.604,150.274 96.091,150.787 95.459,150.787C94.827,150.787 94.314,150.274 94.314,149.642C94.314,149.01 94.827,148.497 95.459,148.497ZM99.511,148.497C100.143,148.497 100.656,149.01 100.656,149.642C100.656,150.274 100.143,150.787 99.511,150.787C98.879,150.787 98.366,150.274 98.366,149.642C98.366,149.01 98.879,148.497 99.511,148.497ZM126.932,148.97C127.499,147.978 127.84,146.998 127.959,146.031C128.087,144.988 128.153,142.449 128.155,138.415L132.722,138.415L132.722,148.97L126.932,148.97ZM95.459,141.167C96.091,141.167 96.604,141.68 96.604,142.312C96.604,142.944 96.091,143.457 95.459,143.457C94.827,143.457 94.314,142.944 94.314,142.312C94.314,141.68 94.827,141.167 95.459,141.167ZM99.511,141.167C100.143,141.167 100.656,141.68 100.656,142.312C100.656,142.944 100.143,143.457 99.511,143.457C98.879,143.457 98.366,142.944 98.366,142.312C98.366,141.68 98.879,141.167 99.511,141.167ZM117.812,134.985C116.388,134.985 115.225,136.154 115.225,137.603C115.225,139.052 116.388,140.221 117.812,140.221C119.237,140.221 120.4,139.052 120.4,137.603C120.4,136.154 119.237,134.985 117.812,134.985ZM140.165,134.985C138.741,134.985 137.578,136.154 137.578,137.603C137.578,139.052 138.741,140.221 140.165,140.221C141.59,140.221 142.753,139.052 142.753,137.603C142.753,136.154 141.59,134.985 140.165,134.985ZM117.812,136.652C118.325,136.652 118.734,137.082 118.734,137.603C118.734,138.124 118.325,138.554 117.812,138.554C117.3,138.554 116.891,138.124 116.891,137.603C116.891,137.082 117.3,136.652 117.812,136.652ZM140.165,136.652C140.678,136.652 141.087,137.082 141.087,137.603C141.087,138.124 140.678,138.554 140.165,138.554C139.653,138.554 139.244,138.124 139.244,137.603C139.244,137.082 139.653,136.652 140.165,136.652ZM101.67,115.55C101.113,120.774 99.59,123.942 95.356,126.723C94.826,127.071 94.678,127.785 95.026,128.315C95.375,128.845 96.088,128.992 96.618,128.644C101.5,125.437 103.313,121.817 103.956,115.794C104.023,115.163 103.565,114.596 102.935,114.529C102.304,114.462 101.738,114.919 101.67,115.55ZM111.105,126.18C111.737,126.18 112.25,126.693 112.25,127.325C112.25,127.957 111.737,128.47 111.105,128.47C110.473,128.47 109.96,127.957 109.96,127.325C109.96,126.693 110.473,126.18 111.105,126.18ZM107.053,126.18C107.684,126.18 108.197,126.693 108.197,127.325C108.197,127.957 107.684,128.47 107.053,128.47C106.421,128.47 105.908,127.957 105.908,127.325C105.908,126.693 106.421,126.18 107.053,126.18ZM115.157,126.18C115.789,126.18 116.302,126.693 116.302,127.325C116.302,127.957 115.789,128.47 115.157,128.47C114.525,128.47 114.012,127.957 114.012,127.325C114.012,126.693 114.525,126.18 115.157,126.18ZM123.262,126.18C123.894,126.18 124.407,126.693 124.407,127.325C124.407,127.957 123.894,128.47 123.262,128.47C122.63,128.47 122.117,127.957 122.117,127.325C122.117,126.693 122.63,126.18 123.262,126.18ZM127.314,126.18C127.946,126.18 128.459,126.693 128.459,127.325C128.459,127.957 127.946,128.47 127.314,128.47C126.682,128.47 126.169,127.957 126.169,127.325C126.169,126.693 126.682,126.18 127.314,126.18ZM119.21,126.18C119.841,126.18 120.354,126.693 120.354,127.325C120.354,127.957 119.841,128.47 119.21,128.47C118.578,128.47 118.065,127.957 118.065,127.325C118.065,126.693 118.578,126.18 119.21,126.18ZM134.403,118.232C137.172,120.131 140.414,123.007 142.199,124.98C142.625,125.45 143.352,125.486 143.822,125.06C144.292,124.635 144.328,123.908 143.903,123.437C142.025,121.362 138.616,118.334 135.703,116.337C135.18,115.978 134.464,116.111 134.106,116.634C133.747,117.157 133.88,117.873 134.403,118.232ZM127.314,118.85C127.946,118.85 128.459,119.363 128.459,119.995C128.459,120.627 127.946,121.14 127.314,121.14C126.682,121.14 126.169,120.627 126.169,119.995C126.169,119.363 126.682,118.85 127.314,118.85ZM115.157,118.85C115.789,118.85 116.302,119.363 116.302,119.995C116.302,120.627 115.789,121.14 115.157,121.14C114.525,121.14 114.012,120.627 114.012,119.995C114.012,119.363 114.525,118.85 115.157,118.85ZM119.21,118.85C119.841,118.85 120.354,119.363 120.354,119.995C120.354,120.627 119.841,121.14 119.21,121.14C118.578,121.14 118.065,120.627 118.065,119.995C118.065,119.363 118.578,118.85 119.21,118.85ZM123.262,118.85C123.894,118.85 124.407,119.363 124.407,119.995C124.407,120.627 123.894,121.14 123.262,121.14C122.63,121.14 122.117,120.627 122.117,119.995C122.117,119.363 122.63,118.85 123.262,118.85ZM111.105,118.85C111.737,118.85 112.25,119.363 112.25,119.995C112.25,120.627 111.737,121.14 111.105,121.14C110.473,121.14 109.96,120.627 109.96,119.995C109.96,119.363 110.473,118.85 111.105,118.85ZM107.053,118.85C107.684,118.85 108.197,119.363 108.197,119.995C108.197,120.627 107.684,121.14 107.053,121.14C106.421,121.14 105.908,120.627 105.908,119.995C105.908,119.363 106.421,118.85 107.053,118.85ZM102.148,89.703L102.148,107.554C102.148,108.246 102.71,108.808 103.401,108.808C104.093,108.808 104.655,108.246 104.655,107.554L104.655,89.703C104.655,89.011 104.093,88.449 103.401,88.449C102.71,88.449 102.148,89.011 102.148,89.703ZM128.5,107.31L128.5,100.146L147.255,100.15C147.532,100.15 147.798,100.04 147.993,99.844C148.189,99.648 148.3,99.382 148.3,99.105L148.3,89.801C148.3,89.224 147.831,88.756 147.255,88.756C146.678,88.756 146.21,89.224 146.21,89.801L146.21,98.06L127.456,98.057C127.179,98.057 126.913,98.167 126.717,98.362C126.521,98.558 126.411,98.824 126.411,99.101L126.411,107.31C126.411,107.886 126.879,108.354 127.456,108.354C128.032,108.354 128.5,107.886 128.5,107.31ZM107.732,103.448C108.364,103.448 108.877,103.961 108.877,104.593C108.877,105.225 108.364,105.738 107.732,105.738C107.1,105.738 106.587,105.225 106.587,104.593C106.587,103.961 107.1,103.448 107.732,103.448ZM115.836,103.448C116.468,103.448 116.981,103.961 116.981,104.593C116.981,105.225 116.468,105.738 115.836,105.738C115.204,105.738 114.691,105.225 114.691,104.593C114.691,103.961 115.204,103.448 115.836,103.448ZM111.784,103.448C112.416,103.448 112.929,103.961 112.929,104.593C112.929,105.225 112.416,105.738 111.784,105.738C111.152,105.738 110.639,105.225 110.639,104.593C110.639,103.961 111.152,103.448 111.784,103.448ZM115.836,96.118C116.468,96.118 116.981,96.631 116.981,97.263C116.981,97.895 116.468,98.408 115.836,98.408C115.204,98.408 114.691,97.895 114.691,97.263C114.691,96.631 115.204,96.118 115.836,96.118ZM107.732,96.118C108.364,96.118 108.877,96.631 108.877,97.263C108.877,97.895 108.364,98.408 107.732,98.408C107.1,98.408 106.587,97.895 106.587,97.263C106.587,96.631 107.1,96.118 107.732,96.118ZM111.784,96.118C112.416,96.118 112.929,96.631 112.929,97.263C112.929,97.895 112.416,98.408 111.784,98.408C111.152,98.408 110.639,97.895 110.639,97.263C110.639,96.631 111.152,96.118 111.784,96.118ZM148.255,85.089L148.257,75.738C148.257,75.461 148.147,75.196 147.951,75C147.755,74.804 147.49,74.694 147.212,74.694L128.5,74.694L128.5,67.402C128.5,66.825 128.032,66.357 127.456,66.357C126.879,66.357 126.411,66.825 126.411,67.402L126.411,75.738C126.411,76.315 126.879,76.783 127.456,76.783L146.168,76.783L146.166,85.088C146.166,85.665 146.634,86.133 147.211,86.133C147.787,86.133 148.255,85.665 148.255,85.089ZM102.148,66.813L102.148,84.664C102.148,85.356 102.71,85.918 103.401,85.918C104.093,85.918 104.655,85.356 104.655,84.664L104.655,66.813C104.655,66.121 104.093,65.559 103.401,65.559C102.71,65.559 102.148,66.121 102.148,66.813ZM107.732,80.993C108.364,80.993 108.877,81.506 108.877,82.138C108.877,82.77 108.364,83.283 107.732,83.283C107.1,83.283 106.587,82.77 106.587,82.138C106.587,81.506 107.1,80.993 107.732,80.993ZM111.784,80.993C112.416,80.993 112.929,81.506 112.929,82.138C112.929,82.77 112.416,83.283 111.784,83.283C111.152,83.283 110.639,82.77 110.639,82.138C110.639,81.506 111.152,80.993 111.784,80.993ZM115.836,80.993C116.468,80.993 116.981,81.506 116.981,82.138C116.981,82.77 116.468,83.283 115.836,83.283C115.204,83.283 114.691,82.77 114.691,82.138C114.691,81.506 115.204,80.993 115.836,80.993ZM111.784,73.664C112.416,73.664 112.929,74.177 112.929,74.808C112.929,75.44 112.416,75.953 111.784,75.953C111.152,75.953 110.639,75.44 110.639,74.808C110.639,74.177 111.152,73.664 111.784,73.664ZM115.836,73.664C116.468,73.664 116.981,74.177 116.981,74.808C116.981,75.44 116.468,75.953 115.836,75.953C115.204,75.953 114.691,75.44 114.691,74.808C114.691,74.177 115.204,73.664 115.836,73.664ZM107.732,73.664C108.364,73.664 108.877,74.177 108.877,74.808C108.877,75.44 108.364,75.953 107.732,75.953C107.1,75.953 106.587,75.44 106.587,74.808C106.587,74.177 107.1,73.664 107.732,73.664ZM101.973,48.222L101.973,59.862C101.973,60.554 102.535,61.115 103.227,61.115C103.918,61.115 104.48,60.554 104.48,59.862L104.48,48.222C104.48,47.53 103.918,46.968 103.227,46.968C102.535,46.968 101.973,47.53 101.973,48.222ZM125.985,48.222L125.985,59.862C125.985,60.554 126.546,61.115 127.238,61.115C127.93,61.115 128.492,60.554 128.492,59.862L128.492,48.222C128.492,47.53 127.93,46.968 127.238,46.968C126.546,46.968 125.985,47.53 125.985,48.222ZM120.842,57.422L109.202,57.422C108.51,57.422 107.948,57.984 107.948,58.676C107.948,59.368 108.51,59.929 109.202,59.929L120.842,59.929C121.533,59.929 122.095,59.368 122.095,58.676C122.095,57.984 121.533,57.422 120.842,57.422ZM120.842,52.262L109.202,52.262C108.51,52.262 107.948,52.823 107.948,53.515C107.948,54.207 108.51,54.769 109.202,54.769L120.842,54.769C121.533,54.769 122.095,54.207 122.095,53.515C122.095,52.823 121.533,52.262 120.842,52.262ZM120.842,47.101L109.202,47.101C108.51,47.101 107.948,47.663 107.948,48.355C107.948,49.047 108.51,49.608 109.202,49.608L120.842,49.608C121.533,49.608 122.095,49.047 122.095,48.355C122.095,47.663 121.533,47.101 120.842,47.101Z"/>
    </g>
</svg>
