<?xml version="1.0" encoding="UTF-8" standalone="no"?>
<svg xmlns:ffdec="https://www.free-decompiler.com/flash" xmlns:xlink="http://www.w3.org/1999/xlink" ffdec:objectType="shape" height="90.1px" width="91.6px" xmlns="http://www.w3.org/2000/svg">
  <g transform="matrix(1.0, 0.0, 0.0, 1.0, 49.75, 90.3)">
    <path d="M15.2 -80.55 L17.05 -77.0 Q17.7 -75.8 17.75 -74.4 L17.7 -73.35 Q17.7 -72.8 17.85 -72.3 L17.9 -71.85 18.1 -69.5 18.1 -69.2 18.5 -67.5 18.55 -67.1 Q20.4 -70.65 20.85 -74.8 L22.15 -79.1 23.15 -78.9 Q23.55 -83.75 27.05 -85.9 L29.25 -85.55 Q30.95 -82.8 30.8 -79.85 30.75 -77.15 29.45 -76.15 L30.35 -75.5 Q30.5 -70.85 28.45 -66.9 26.55 -63.1 23.0 -60.65 L21.7 -59.65 21.45 -59.5 21.75 -58.95 22.65 -56.8 23.05 -55.85 Q22.55 -55.95 22.15 -56.25 L21.85 -56.35 20.95 -56.6 Q20.0 -56.9 19.3 -57.55 19.1 -57.7 19.0 -57.8 18.75 -58.05 18.65 -58.25 L18.55 -58.35 Q20.15 -58.65 21.45 -59.5 20.15 -58.65 18.55 -58.35 L16.65 -58.15 13.65 -58.1 12.15 -58.15 12.4 -56.75 8.55 -56.95 3.3 -57.25 0.8 -57.4 3.3 -57.25 8.55 -56.95 12.4 -56.75 Q12.45 -56.15 12.7 -56.7 L14.65 -56.5 Q18.15 -56.1 21.4 -54.7 L22.65 -54.25 29.35 -52.65 30.05 -52.3 Q29.95 -48.75 30.8 -46.7 L32.9 -46.65 Q33.7 -43.55 35.25 -40.4 L37.7 -34.75 39.05 -29.1 39.9 -22.4 Q40.15 -19.65 40.65 -16.9 L40.9 -15.5 Q41.55 -12.05 41.25 -8.65 L41.15 -7.05 41.1 -7.05 37.95 -7.1 37.5 -7.2 35.5 -7.2 Q35.05 -7.75 35.1 -8.85 L35.1 -9.0 35.1 -9.65 35.1 -9.7 35.1 -10.25 35.05 -10.9 35.05 -10.95 34.65 -13.1 Q34.15 -15.05 33.1 -16.8 L30.5 -20.7 Q29.8 -21.6 28.75 -22.1 27.1 -22.8 24.95 -22.7 21.25 -22.55 18.7 -19.95 16.1 -17.35 15.35 -13.85 14.9 -12.05 14.8 -10.25 14.9 -12.05 15.35 -13.85 16.1 -17.35 18.7 -19.95 21.25 -22.55 24.95 -22.7 27.1 -22.8 28.75 -22.1 29.8 -21.6 30.5 -20.7 L33.1 -16.8 Q34.15 -15.05 34.65 -13.1 L35.05 -10.95 34.25 -10.85 33.6 -12.85 33.05 -13.85 Q31.2 -17.0 27.5 -17.35 23.7 -17.75 20.95 -15.2 18.5 -12.95 18.25 -9.7 18.5 -12.95 20.95 -15.2 23.7 -17.75 27.5 -17.35 31.2 -17.0 33.05 -13.85 L33.6 -12.85 34.25 -10.85 34.4 -10.05 34.4 -9.65 Q34.5 -8.05 34.0 -6.35 32.85 -2.8 29.25 -1.65 27.05 -0.95 24.75 -1.05 L24.2 -1.05 23.35 -0.9 Q20.45 -1.9 19.1 -4.75 18.15 -6.85 18.2 -9.2 L18.25 -9.7 14.8 -10.25 Q14.7 -8.6 14.85 -6.95 L8.2 -6.25 2.35 -6.75 2.35 -7.35 1.8 -6.75 -5.25 -6.45 -11.75 -6.05 -18.45 -6.35 -19.0 -7.15 Q-18.8 -8.25 -18.85 -9.55 L-20.6 -9.5 Q-20.25 -7.2 -20.8 -4.95 -21.35 -2.85 -23.1 -1.65 -25.9 0.2 -29.25 -0.35 L-29.65 -0.45 Q-32.95 -0.45 -35.5 -2.6 L-36.15 -3.45 Q-37.7 -6.55 -37.65 -10.1 L-37.65 -10.3 -39.3 -10.35 -40.35 -7.7 Q-41.35 -8.4 -42.1 -7.7 L-42.65 -7.4 Q-46.0 -6.9 -49.1 -8.1 -49.7 -9.6 -49.75 -11.6 -49.9 -15.25 -47.0 -17.55 L-46.6 -18.3 -46.25 -22.6 Q-46.15 -25.0 -44.95 -26.7 -41.05 -28.35 -37.65 -29.35 -34.35 -30.35 -31.35 -31.6 L-30.4 -31.7 Q-28.15 -35.75 -27.15 -39.15 L-25.35 -45.35 Q-24.6 -47.85 -22.2 -50.55 L-20.5 -51.05 -17.25 -56.75 Q-16.8 -57.6 -15.7 -57.65 -12.3 -57.9 -8.8 -57.75 L-3.05 -57.55 0.8 -57.4 Q1.8 -58.2 2.9 -59.55 L3.35 -60.05 0.8 -59.3 -0.05 -59.2 -3.05 -60.8 -5.15 -63.25 Q-6.95 -61.15 -9.65 -59.55 -8.2 -62.7 -7.95 -66.15 L-7.9 -67.4 Q-9.5 -67.7 -10.85 -68.3 -10.3 -68.45 -9.75 -68.75 L-7.7 -69.95 -5.0 -71.6 -3.95 -72.3 -5.0 -71.6 -7.7 -69.95 -7.8 -72.75 -7.8 -74.1 Q-7.05 -72.95 -5.45 -72.3 -7.05 -72.95 -7.8 -74.1 -8.65 -75.45 -8.3 -77.5 L-9.2 -79.15 Q-10.1 -80.4 -11.5 -81.2 -11.75 -81.35 -12.65 -83.4 -13.55 -85.4 -12.15 -86.8 -10.75 -88.2 -8.75 -88.55 L-6.15 -89.2 Q-2.85 -90.25 0.7 -90.3 L4.4 -89.9 7.6 -89.15 Q10.95 -88.15 13.0 -85.25 L15.35 -81.15 15.15 -80.9 Q15.0 -81.05 15.2 -80.55 M29.45 -76.15 Q26.65 -77.95 23.15 -78.9 26.65 -77.95 29.45 -76.15 L29.35 -76.1 28.9 -75.6 29.35 -76.1 29.45 -76.15 M10.3 -65.15 Q9.3 -69.3 9.25 -74.1 9.25 -78.35 5.95 -80.0 L5.2 -80.4 5.0 -80.45 1.75 -83.15 Q0.6 -84.1 0.1 -83.8 L-1.0 -83.25 Q-3.6 -81.9 -5.75 -80.4 -7.1 -80.2 -7.8 -78.95 L-8.3 -77.5 -7.8 -78.95 Q-7.1 -80.2 -5.75 -80.4 -3.6 -81.9 -1.0 -83.25 L0.1 -83.8 Q0.6 -84.1 1.75 -83.15 L5.0 -80.45 5.2 -80.4 5.95 -80.0 Q9.25 -78.35 9.25 -74.1 9.3 -69.3 10.3 -65.15 L10.1 -64.85 10.0 -64.75 7.2 -61.75 7.15 -61.7 Q5.3 -60.75 3.35 -60.05 5.3 -60.75 7.15 -61.7 L7.2 -61.75 9.4 -61.55 Q10.6 -61.2 11.3 -60.25 L12.8 -60.95 Q11.15 -63.35 10.35 -65.05 L10.3 -65.15 M12.8 -61.0 L12.8 -60.95 12.8 -61.0 Q13.85 -61.6 14.8 -62.35 L14.85 -62.35 14.75 -62.5 14.45 -62.95 13.85 -63.7 12.8 -61.0 12.8 -60.95 12.8 -61.0 M3.6 -75.15 Q4.2 -75.3 4.15 -75.9 4.05 -78.1 1.95 -77.45 0.25 -77.0 1.1 -75.3 2.05 -73.35 4.1 -73.0 5.9 -72.7 6.85 -74.2 8.05 -76.05 7.45 -78.15 7.1 -79.4 5.95 -80.0 7.1 -79.4 7.45 -78.15 8.05 -76.05 6.85 -74.2 5.9 -72.7 4.1 -73.0 2.05 -73.35 1.1 -75.3 0.25 -77.0 1.95 -77.45 4.05 -78.1 4.15 -75.9 4.2 -75.3 3.6 -75.15 M18.55 -67.1 L18.1 -66.2 Q16.7 -63.95 14.85 -62.35 16.7 -63.95 18.1 -66.2 L18.55 -67.1 M15.35 -81.2 Q14.7 -82.6 15.65 -82.4 L15.35 -81.2 M3.1 -63.5 L3.6 -64.25 Q4.3 -65.65 3.6 -66.6 L2.65 -66.3 1.2 -65.9 2.65 -66.3 3.6 -66.6 Q4.3 -65.65 3.6 -64.25 L3.1 -63.5 3.05 -63.45 3.1 -63.4 3.1 -63.5 2.65 -66.3 3.1 -63.5 M12.15 -58.15 L11.95 -58.9 11.3 -60.25 11.95 -58.9 12.15 -58.15 M-3.1 -65.35 L-2.45 -65.4 Q-2.25 -63.25 -0.1 -62.75 L0.35 -62.65 Q2.0 -62.4 3.05 -63.45 2.0 -62.4 0.35 -62.65 L-0.1 -62.75 Q-2.25 -63.25 -2.45 -65.4 L-3.1 -65.35 M1.2 -65.9 L1.15 -65.9 1.2 -65.9 3.05 -63.45 1.2 -65.9 M1.15 -65.9 Q1.1 -64.25 0.3 -62.65 -0.9 -63.4 -1.35 -65.5 L1.15 -65.9 -1.35 -65.5 Q-0.9 -63.4 0.3 -62.65 1.1 -64.25 1.15 -65.9 M-17.8 -51.4 L-20.5 -51.05 -17.8 -51.4 -15.3 -51.35 -13.8 -51.25 -7.25 -50.65 -4.5 -50.3 -3.6 -50.2 3.15 -49.7 10.05 -49.05 12.1 -48.8 10.05 -49.05 3.15 -49.7 -3.6 -50.2 -4.35 -50.6 Q-3.45 -52.65 -1.2 -54.95 L-7.1 -55.3 -14.2 -55.3 Q-15.55 -55.3 -16.6 -54.65 -17.3 -54.3 -17.5 -53.35 L-17.65 -52.6 -17.8 -51.4 -17.95 -50.75 -17.8 -51.4 M12.25 -52.6 L6.15 -54.1 -0.2 -54.85 -1.2 -54.95 -0.2 -54.85 6.15 -54.1 12.25 -52.6 12.1 -48.8 16.7 -48.2 17.9 -48.05 Q17.85 -49.6 17.25 -51.1 16.65 -52.55 14.65 -52.3 L12.65 -52.45 12.25 -52.6 M21.15 -47.75 L21.1 -47.75 17.9 -48.05 21.1 -47.75 21.15 -47.75 23.05 -47.6 29.05 -47.0 Q28.2 -48.65 27.75 -50.3 L21.4 -51.1 Q21.2 -49.6 21.15 -47.75 M30.8 -46.7 L29.95 -46.85 29.45 -46.9 29.05 -47.0 29.45 -46.9 29.95 -46.85 30.8 -46.7 M31.1 -43.55 Q31.0 -43.85 30.35 -43.9 L27.7 -43.45 Q28.7 -40.3 29.35 -36.9 29.8 -35.0 31.65 -35.0 33.05 -34.95 33.75 -35.7 L32.5 -40.15 31.1 -43.55 M22.25 -44.0 L21.75 -44.2 14.85 -44.2 12.2 -44.2 Q12.1 -40.35 10.7 -37.35 L10.4 -36.9 9.8 -36.45 Q9.6 -34.75 8.9 -33.45 L12.8 -33.1 19.9 -32.8 22.7 -32.85 Q23.9 -32.9 24.4 -33.8 L24.5 -34.5 Q24.25 -37.85 23.45 -41.0 L22.25 -44.0 M17.9 -48.05 L17.85 -47.35 17.9 -48.05 M19.75 -29.1 Q20.15 -27.55 21.8 -27.6 24.85 -27.7 25.3 -30.55 L20.85 -30.4 25.3 -30.55 Q24.85 -27.7 21.8 -27.6 20.15 -27.55 19.75 -29.1 M24.55 -25.2 Q21.6 -25.25 19.3 -23.85 16.25 -22.0 14.65 -18.85 16.25 -22.0 19.3 -23.85 21.6 -25.25 24.55 -25.2 M8.3 -32.65 L8.9 -33.45 6.5 -34.0 6.1 -34.3 5.95 -34.6 Q5.3 -36.0 5.5 -37.7 L5.7 -44.2 8.0 -44.2 12.2 -44.2 8.0 -44.2 5.7 -44.2 5.5 -37.7 Q5.3 -36.0 5.95 -34.6 8.0 -35.1 9.8 -36.45 8.0 -35.1 5.95 -34.6 L6.1 -34.3 6.5 -34.0 8.9 -33.45 8.3 -32.65 M12.65 -16.45 L8.2 -16.35 2.95 -16.25 2.95 -20.0 2.95 -27.1 2.95 -33.55 3.1 -40.65 Q3.2 -44.25 3.7 -47.75 3.2 -44.25 3.1 -40.65 L2.95 -33.55 2.95 -27.1 2.95 -20.0 2.95 -16.25 8.2 -16.35 12.65 -16.45 M2.95 -16.25 L1.3 -16.25 -2.45 -16.4 -9.35 -16.85 -11.2 -16.85 -18.3 -17.55 -11.2 -16.85 -9.35 -16.85 -2.45 -16.4 1.3 -16.25 2.95 -16.25 2.95 -15.5 2.95 -16.25 M40.0 -16.8 L37.3 -15.95 Q36.9 -15.85 36.95 -15.5 L36.65 -14.6 Q35.75 -12.55 35.7 -10.25 L35.7 -9.7 35.7 -9.65 35.75 -9.0 Q35.8 -8.35 36.1 -8.05 36.55 -7.5 37.5 -7.2 36.55 -7.5 36.1 -8.05 35.8 -8.35 35.75 -9.0 L35.7 -9.65 35.7 -9.7 35.7 -10.25 Q35.75 -12.55 36.65 -14.6 L36.95 -15.5 Q36.9 -15.85 37.3 -15.95 L40.0 -16.8 M2.35 -7.35 Q3.0 -7.15 2.95 -7.85 2.7 -11.4 3.3 -14.75 2.7 -11.4 2.95 -7.85 3.0 -7.15 2.35 -7.35 M25.7 -6.2 L26.0 -6.05 26.9 -6.5 27.5 -6.95 Q30.1 -9.35 28.25 -12.05 27.15 -13.75 25.1 -12.85 24.0 -12.4 23.75 -11.15 22.9 -8.1 25.7 -6.2 22.9 -8.1 23.75 -11.15 24.0 -12.4 25.1 -12.85 27.15 -13.75 28.25 -12.05 30.1 -9.35 27.5 -6.95 L26.9 -6.5 26.0 -6.05 25.7 -6.2 M-1.5 -76.85 Q-1.5 -77.7 -1.9 -78.65 -2.55 -80.25 -4.4 -80.45 L-5.75 -80.4 -4.4 -80.45 Q-2.55 -80.25 -1.9 -78.65 -1.5 -77.7 -1.5 -76.85 L-1.55 -76.4 -1.05 -76.35 -1.05 -76.85 Q-1.05 -78.05 -0.15 -79.0 2.0 -81.5 5.0 -80.45 2.0 -81.5 -0.15 -79.0 -1.05 -78.05 -1.05 -76.85 L-1.5 -76.85 M-4.25 -76.2 Q-4.15 -77.35 -5.25 -77.3 L-5.75 -77.1 Q-6.9 -75.3 -5.3 -73.7 -5.0 -73.4 -4.6 -73.4 -2.8 -73.35 -1.9 -75.3 L-1.55 -76.4 -1.9 -75.3 Q-2.8 -73.35 -4.6 -73.4 -5.0 -73.4 -5.3 -73.7 -6.9 -75.3 -5.75 -77.1 L-5.25 -77.3 Q-4.15 -77.35 -4.25 -76.2 M2.95 -71.45 Q-0.7 -72.55 -1.05 -76.35 -0.7 -72.55 2.95 -71.45 M-0.5 -67.65 L-1.65 -67.4 -4.4 -67.05 -7.1 -67.25 -7.9 -67.4 -7.1 -67.25 -4.4 -67.05 -1.65 -67.4 -0.5 -67.65 M-1.35 -65.5 L-2.45 -65.4 -1.35 -65.5 M-7.1 -67.25 L-6.65 -66.05 -5.15 -63.25 -6.65 -66.05 -7.1 -67.25 M-5.1 -46.05 L-1.05 -44.9 Q-0.8 -42.15 -1.2 -39.4 L-1.35 -37.9 -1.6 -35.8 -2.0 -36.05 -3.15 -37.1 -3.5 -37.5 -3.15 -37.1 -2.0 -36.05 -1.6 -35.8 -1.35 -37.9 -1.2 -39.4 Q-0.8 -42.15 -1.05 -44.9 L-5.1 -46.05 -8.0 -46.3 -15.1 -46.7 -19.95 -46.85 Q-20.45 -43.45 -21.45 -40.1 -22.45 -36.8 -22.35 -33.4 L-22.2 -32.35 Q-22.0 -31.7 -21.3 -31.75 L-14.9 -31.75 -8.05 -31.65 -3.5 -37.5 Q-4.2 -38.35 -4.55 -39.4 -5.7 -42.5 -5.1 -46.05 M-46.6 -18.3 L-45.1 -18.25 Q-44.1 -18.1 -43.8 -17.45 -42.6 -15.3 -42.05 -12.9 L-41.45 -10.95 -41.35 -10.1 -41.75 -8.35 -42.1 -7.7 -41.75 -8.35 -41.35 -10.1 -41.45 -10.95 -42.05 -12.9 Q-42.6 -15.3 -43.8 -17.45 -44.1 -18.1 -45.1 -18.25 L-46.6 -18.3 M-1.6 -35.8 Q-1.9 -34.05 -2.5 -32.25 L-8.0 -31.65 -8.05 -31.65 -8.0 -31.65 -2.5 -32.25 Q-1.9 -34.05 -1.6 -35.8 M-32.55 -10.1 Q-32.75 -8.05 -31.6 -6.5 L-30.95 -5.85 Q-29.65 -4.8 -27.9 -5.15 L-27.55 -5.45 -26.75 -6.05 Q-25.05 -7.2 -25.2 -9.55 L-25.35 -10.8 Q-26.1 -13.0 -28.55 -12.9 L-30.7 -12.5 Q-32.45 -11.8 -32.55 -10.1 -32.45 -11.8 -30.7 -12.5 L-28.55 -12.9 Q-26.1 -13.0 -25.35 -10.8 L-25.2 -9.55 Q-25.05 -7.2 -26.75 -6.05 L-27.55 -5.45 -27.9 -5.15 Q-29.65 -4.8 -30.95 -5.85 L-31.6 -6.5 Q-32.75 -8.05 -32.55 -10.1 M-36.1 -17.55 L-37.8 -13.95 -39.3 -10.35 -37.8 -13.95 -36.1 -17.55 -40.6 -17.95 -36.1 -17.55 -35.1 -19.2 Q-32.9 -22.45 -28.9 -21.7 -25.45 -21.0 -22.9 -18.75 L-21.15 -16.75 Q-19.2 -13.75 -18.9 -10.25 L-18.85 -9.55 -18.9 -10.25 Q-19.2 -13.75 -21.15 -16.75 L-22.9 -18.75 Q-25.45 -21.0 -28.9 -21.7 -32.9 -22.45 -35.1 -19.2 L-36.1 -17.55 M-20.6 -9.5 L-20.7 -9.9 Q-21.35 -13.5 -24.6 -15.5 L-25.8 -16.15 Q-29.1 -17.5 -32.65 -16.75 -33.6 -16.6 -34.45 -15.95 -36.0 -14.9 -36.8 -13.5 -37.65 -12.1 -37.65 -10.3 -37.65 -12.1 -36.8 -13.5 -36.0 -14.9 -34.45 -15.95 -33.6 -16.6 -32.65 -16.75 -29.1 -17.5 -25.8 -16.15 L-24.6 -15.5 Q-21.35 -13.5 -20.7 -9.9 L-20.6 -9.5 M-8.9 -25.3 Q-7.05 -23.85 -4.4 -24.45 -1.6 -25.1 -1.55 -28.0 L-2.6 -28.15 Q-6.1 -28.4 -9.7 -28.3 -6.1 -28.4 -2.6 -28.15 L-1.55 -28.0 Q-1.6 -25.1 -4.4 -24.45 -7.05 -23.85 -8.9 -25.3 M-8.75 -30.85 L-8.05 -31.65 -8.75 -30.85" fill="#ffffff" fill-rule="evenodd" stroke="none"/>
    <path d="M35.05 -10.95 L35.05 -10.9 M14.8 -10.25 L18.25 -9.7 M34.25 -10.85 L35.05 -10.95 M-18.85 -9.55 L-20.6 -9.5 M-37.65 -10.3 L-39.3 -10.35" fill="none" stroke="#000000" stroke-linecap="round" stroke-linejoin="round" stroke-width="0.05"/>
    <path d="M15.2 -80.55 L17.05 -77.0 Q17.7 -75.8 17.75 -74.4 L17.7 -73.35 Q17.7 -72.8 17.85 -72.3 L17.9 -71.85 18.1 -69.5 18.1 -69.2 18.5 -67.5 18.55 -67.1 Q20.4 -70.65 20.85 -74.8 L22.15 -79.1 23.15 -78.9 Q23.55 -83.75 27.05 -85.9 L29.25 -85.55 Q30.95 -82.8 30.8 -79.85 30.75 -77.15 29.45 -76.15 L30.35 -75.5 Q30.5 -70.85 28.45 -66.9 26.55 -63.1 23.0 -60.65 L21.7 -59.65 21.45 -59.5 21.75 -58.95 22.65 -56.8 23.05 -55.85 Q22.55 -55.95 22.15 -56.25 L21.85 -56.35 20.95 -56.6 Q20.0 -56.9 19.3 -57.55 19.1 -57.7 19.0 -57.8 18.75 -58.05 18.65 -58.25 L18.55 -58.35 16.65 -58.15 13.65 -58.1 12.15 -58.15 12.4 -56.75 12.7 -56.7 14.65 -56.5 Q18.15 -56.1 21.4 -54.7 L22.65 -54.25 29.35 -52.65 30.05 -52.3 Q29.95 -48.75 30.8 -46.7 L32.9 -46.65 Q33.7 -43.55 35.25 -40.4 L37.7 -34.75 39.05 -29.1 39.9 -22.4 Q40.15 -19.65 40.65 -16.9 L40.9 -15.5 Q41.55 -12.05 41.25 -8.65 L41.15 -7.05 41.85 -7.15 M29.45 -76.15 L29.35 -76.1 28.9 -75.6 M23.15 -78.9 Q26.65 -77.95 29.45 -76.15 M15.35 -81.15 L13.0 -85.25 Q10.95 -88.15 7.6 -89.15 L4.4 -89.9 0.7 -90.3 Q-2.85 -90.25 -6.15 -89.2 L-8.75 -88.55 Q-10.75 -88.2 -12.15 -86.8 -13.55 -85.4 -12.65 -83.4 -11.75 -81.35 -11.5 -81.2 -10.1 -80.4 -9.2 -79.15 L-8.3 -77.5 -7.8 -78.95 Q-7.1 -80.2 -5.75 -80.4 -3.6 -81.9 -1.0 -83.25 L0.1 -83.8 Q0.6 -84.1 1.75 -83.15 L5.0 -80.45 5.2 -80.4 5.95 -80.0 Q9.25 -78.35 9.25 -74.1 9.3 -69.3 10.3 -65.15 L10.35 -65.05 Q11.15 -63.35 12.8 -60.95 L12.8 -61.0 13.85 -63.7 14.45 -62.95 14.75 -62.5 14.8 -62.35 Q13.85 -61.6 12.8 -61.0 L12.8 -60.95 11.3 -60.25 11.95 -58.9 12.15 -58.15 M14.85 -62.35 Q16.7 -63.95 18.1 -66.2 L18.55 -67.1 M5.95 -80.0 Q7.1 -79.4 7.45 -78.15 8.05 -76.05 6.85 -74.2 5.9 -72.7 4.1 -73.0 2.05 -73.35 1.1 -75.3 0.25 -77.0 1.95 -77.45 4.05 -78.1 4.15 -75.9 4.2 -75.3 3.6 -75.15 M14.8 -62.35 L14.85 -62.35 M1.2 -65.9 L2.65 -66.3 3.6 -66.6 Q4.3 -65.65 3.6 -64.25 L3.1 -63.5 3.1 -63.4 3.05 -63.45 Q2.0 -62.4 0.35 -62.65 L-0.1 -62.75 Q-2.25 -63.25 -2.45 -65.4 L-3.1 -65.35 M1.15 -65.9 L1.2 -65.9 3.05 -63.45 3.1 -63.5 2.65 -66.3 M1.15 -65.9 L1.2 -65.9 M1.15 -65.9 L-1.35 -65.5 Q-0.9 -63.4 0.3 -62.65 1.1 -64.25 1.15 -65.9 M7.2 -61.75 L10.0 -64.75 10.1 -64.85 10.3 -65.15 M0.8 -57.4 L3.3 -57.25 8.55 -56.95 12.4 -56.75 Q12.45 -56.15 12.7 -56.7 M3.35 -60.05 Q5.3 -60.75 7.15 -61.7 L7.2 -61.75 9.4 -61.55 Q10.6 -61.2 11.3 -60.25 M0.8 -59.3 L3.35 -60.05 2.9 -59.55 Q1.8 -58.2 0.8 -57.4 L-3.05 -57.55 -8.8 -57.75 Q-12.3 -57.9 -15.7 -57.65 -16.8 -57.6 -17.25 -56.75 L-20.5 -51.05 -17.8 -51.4 -17.65 -52.6 -17.5 -53.35 Q-17.3 -54.3 -16.6 -54.65 -15.55 -55.3 -14.2 -55.3 L-7.1 -55.3 -1.2 -54.95 -0.2 -54.85 6.15 -54.1 12.25 -52.6 12.65 -52.45 14.65 -52.3 Q16.65 -52.55 17.25 -51.1 17.85 -49.6 17.9 -48.05 L21.1 -47.75 21.15 -47.75 Q21.2 -49.6 21.4 -51.1 L27.75 -50.3 Q28.2 -48.65 29.05 -47.0 L29.45 -46.9 29.95 -46.85 30.8 -46.7 M21.45 -59.5 Q20.15 -58.65 18.55 -58.35 M31.1 -43.55 Q31.0 -43.85 30.35 -43.9 L27.7 -43.45 Q28.7 -40.3 29.35 -36.9 29.8 -35.0 31.65 -35.0 33.05 -34.95 33.75 -35.7 L32.5 -40.15 31.1 -43.55 M21.15 -47.75 L23.05 -47.6 29.05 -47.0 M22.25 -44.0 L21.75 -44.2 14.85 -44.2 12.2 -44.2 Q12.1 -40.35 10.7 -37.35 L10.4 -36.9 9.8 -36.45 Q9.6 -34.75 8.9 -33.45 L12.8 -33.1 19.9 -32.8 22.7 -32.85 Q23.9 -32.9 24.4 -33.8 L24.5 -34.5 Q24.25 -37.85 23.45 -41.0 L22.25 -44.0 M20.85 -30.4 L25.3 -30.55 Q24.85 -27.7 21.8 -27.6 20.15 -27.55 19.75 -29.1 M17.85 -47.35 L17.9 -48.05 16.7 -48.2 12.1 -48.8 10.05 -49.05 3.15 -49.7 -3.6 -50.2 -4.5 -50.3 -7.25 -50.65 -13.8 -51.25 -15.3 -51.35 -17.8 -51.4 -17.95 -50.75 M12.2 -44.2 L8.0 -44.2 5.7 -44.2 5.5 -37.7 Q5.3 -36.0 5.95 -34.6 8.0 -35.1 9.8 -36.45 M3.7 -47.75 Q3.2 -44.25 3.1 -40.65 L2.95 -33.55 2.95 -27.1 2.95 -20.0 2.95 -16.25 8.2 -16.35 12.65 -16.45 M5.95 -34.6 L6.1 -34.3 6.5 -34.0 8.9 -33.45 8.3 -32.65 M14.65 -18.85 Q16.25 -22.0 19.3 -23.85 21.6 -25.25 24.55 -25.2 M14.8 -10.25 Q14.9 -12.05 15.35 -13.85 16.1 -17.35 18.7 -19.95 21.25 -22.55 24.95 -22.7 27.1 -22.8 28.75 -22.1 29.8 -21.6 30.5 -20.7 L33.1 -16.8 Q34.15 -15.05 34.65 -13.1 L35.05 -10.95 M35.05 -10.9 L35.1 -10.25 35.1 -9.7 35.1 -9.65 35.1 -9.0 35.1 -8.85 Q35.05 -7.75 35.5 -7.2 L37.5 -7.2 Q36.55 -7.5 36.1 -8.05 35.8 -8.35 35.75 -9.0 L35.7 -9.65 35.7 -9.7 35.7 -10.25 Q35.75 -12.55 36.65 -14.6 L36.95 -15.5 Q36.9 -15.85 37.3 -15.95 L40.0 -16.8 M2.95 -16.25 L2.95 -15.5 M-18.3 -17.55 L-11.2 -16.85 -9.35 -16.85 -2.45 -16.4 1.3 -16.25 2.95 -16.25 M2.35 -6.75 L8.2 -6.25 14.85 -6.95 Q14.7 -8.6 14.8 -10.25 M18.25 -9.7 Q18.5 -12.95 20.95 -15.2 23.7 -17.75 27.5 -17.35 31.2 -17.0 33.05 -13.85 L33.6 -12.85 34.25 -10.85 34.4 -10.05 34.4 -9.65 Q34.5 -8.05 34.0 -6.35 32.85 -2.8 29.25 -1.65 27.05 -0.95 24.75 -1.05 L24.2 -1.05 23.35 -0.9 Q20.45 -1.9 19.1 -4.75 18.15 -6.85 18.2 -9.2 L18.25 -9.7 M2.35 -6.75 L1.8 -6.75 -5.25 -6.45 -11.75 -6.05 -18.45 -6.35 M-19.0 -7.15 Q-18.8 -8.25 -18.85 -9.55 L-18.9 -10.25 Q-19.2 -13.75 -21.15 -16.75 L-22.9 -18.75 Q-25.45 -21.0 -28.9 -21.7 -32.9 -22.45 -35.1 -19.2 L-36.1 -17.55 -40.6 -17.95 M-20.6 -9.5 Q-20.25 -7.2 -20.8 -4.95 -21.35 -2.85 -23.1 -1.65 -25.9 0.2 -29.25 -0.35 L-29.65 -0.45 Q-32.95 -0.45 -35.5 -2.6 L-36.15 -3.45 Q-37.7 -6.55 -37.65 -10.1 L-37.65 -10.3 Q-37.65 -12.1 -36.8 -13.5 -36.0 -14.9 -34.45 -15.95 -33.6 -16.6 -32.65 -16.75 -29.1 -17.5 -25.8 -16.15 L-24.6 -15.5 Q-21.35 -13.5 -20.7 -9.9 L-20.6 -9.5 M-39.3 -10.35 L-40.35 -7.7 Q-41.35 -8.4 -42.1 -7.7 L-42.65 -7.4 Q-46.0 -6.9 -49.1 -8.1 -49.7 -9.6 -49.75 -11.6 -49.9 -15.25 -47.0 -17.55 M-46.6 -18.3 L-46.25 -22.6 Q-46.15 -25.0 -44.95 -26.7 -41.05 -28.35 -37.65 -29.35 -34.35 -30.35 -31.35 -31.6 L-30.4 -31.7 Q-28.15 -35.75 -27.15 -39.15 L-25.35 -45.35 Q-24.6 -47.85 -22.2 -50.55 L-20.5 -51.05 M3.3 -14.75 Q2.7 -11.4 2.95 -7.85 3.0 -7.15 2.35 -7.35 M25.7 -6.2 Q22.9 -8.1 23.75 -11.15 24.0 -12.4 25.1 -12.85 27.15 -13.75 28.25 -12.05 30.1 -9.35 27.5 -6.95 L26.9 -6.5 26.0 -6.05 25.7 -6.2 M37.5 -7.2 L37.95 -7.1 41.1 -7.05 41.15 -7.05 M12.1 -48.8 L12.25 -52.6 M-1.55 -76.4 L-1.9 -75.3 Q-2.8 -73.35 -4.6 -73.4 -5.0 -73.4 -5.3 -73.7 -6.9 -75.3 -5.75 -77.1 L-5.25 -77.3 Q-4.15 -77.35 -4.25 -76.2 M-1.05 -76.85 Q-1.05 -78.05 -0.15 -79.0 2.0 -81.5 5.0 -80.45 M-5.75 -80.4 L-4.4 -80.45 Q-2.55 -80.25 -1.9 -78.65 -1.5 -77.7 -1.5 -76.85 L-1.55 -76.4 M-1.05 -76.85 L-1.05 -76.35 Q-0.7 -72.55 2.95 -71.45 M-3.95 -72.3 L-5.0 -71.6 -7.7 -69.95 -9.75 -68.75 Q-10.3 -68.45 -10.85 -68.3 -9.5 -67.7 -7.9 -67.4 L-7.1 -67.25 -4.4 -67.05 -1.65 -67.4 -0.5 -67.65 M-5.45 -72.3 Q-7.05 -72.95 -7.8 -74.1 L-7.8 -72.75 -7.7 -69.95 M-7.9 -67.4 L-7.95 -66.15 Q-8.2 -62.7 -9.65 -59.55 -6.95 -61.15 -5.15 -63.25 L-6.65 -66.05 -7.1 -67.25 M-2.45 -65.4 L-1.35 -65.5 M-5.15 -63.25 L-3.05 -60.8 -0.05 -59.2 M-4.5 -50.3 L-4.35 -50.6 Q-3.45 -52.65 -1.2 -54.95 M-7.8 -74.1 Q-8.65 -75.45 -8.3 -77.5 M-42.1 -7.7 L-41.75 -8.35 -41.35 -10.1 -41.45 -10.95 -42.05 -12.9 Q-42.6 -15.3 -43.8 -17.45 -44.1 -18.1 -45.1 -18.25 L-46.6 -18.3 M-3.5 -37.5 L-3.15 -37.1 -2.0 -36.05 -1.6 -35.8 -1.35 -37.9 -1.2 -39.4 Q-0.8 -42.15 -1.05 -44.9 L-5.1 -46.05 Q-5.7 -42.5 -4.55 -39.4 -4.2 -38.35 -3.5 -37.5 L-8.05 -31.65 -8.0 -31.65 -2.5 -32.25 Q-1.9 -34.05 -1.6 -35.8 M-5.1 -46.05 L-8.0 -46.3 -15.1 -46.7 -19.95 -46.85 Q-20.45 -43.45 -21.45 -40.1 -22.45 -36.8 -22.35 -33.4 L-22.2 -32.35 Q-22.0 -31.7 -21.3 -31.75 L-14.9 -31.75 -8.05 -31.65 -8.75 -30.85 M-9.7 -28.3 Q-6.1 -28.4 -2.6 -28.15 L-1.55 -28.0 Q-1.6 -25.1 -4.4 -24.45 -7.05 -23.85 -8.9 -25.3 M-39.3 -10.35 L-37.8 -13.95 -36.1 -17.55 M-32.55 -10.1 Q-32.45 -11.8 -30.7 -12.5 L-28.55 -12.9 Q-26.1 -13.0 -25.35 -10.8 L-25.2 -9.55 Q-25.05 -7.2 -26.75 -6.05 L-27.55 -5.45 -27.9 -5.15 Q-29.65 -4.8 -30.95 -5.85 L-31.6 -6.5 Q-32.75 -8.05 -32.55 -10.1 Z" fill="none" stroke="#000000" stroke-linecap="round" stroke-linejoin="round" stroke-width="0.05"/>
  </g>
</svg>
