<?xml version="1.0" encoding="UTF-8" standalone="no"?>
<svg xmlns:xlink="http://www.w3.org/1999/xlink" height="72.2px" width="48.85px" xmlns="http://www.w3.org/2000/svg">
  <g transform="matrix(1.0, 0.0, 0.0, 1.0, 27.9, 39.7)">
    <path d="M2.7 22.15 L-4.05 23.3 Q-10.6 24.45 -15.45 21.5 -20.35 18.6 -24.1 18.05 -27.85 17.5 -26.4 15.95 -22.75 12.1 -18.15 10.25 -13.75 8.45 -9.45 5.65 -6.3 2.75 -1.0 4.4 0.95 5.05 3.65 6.65 6.2 8.1 6.75 8.8 8.1 10.55 13.9 14.75 19.7 18.95 16.3 19.95 L7.9 21.45 2.7 22.15" fill="#ffffff" fill-rule="evenodd" stroke="none"/>
    <path d="M2.7 22.15 L7.9 21.45 16.3 19.95 Q19.7 18.95 13.9 14.75 8.1 10.55 6.75 8.8 6.2 8.1 3.65 6.65 0.95 5.05 -1.0 4.4 -6.3 2.75 -9.45 5.65 -13.75 8.45 -18.15 10.25 -22.75 12.1 -26.4 15.95 -27.85 17.5 -24.1 18.05 -20.35 18.6 -15.45 21.5 -10.6 24.45 -4.05 23.3 L2.7 22.15 Z" fill="none" stroke="#8f7c3f" stroke-linecap="round" stroke-linejoin="round" stroke-width="1.0"/>
    <path d="M-2.15 6.0 Q-1.65 6.3 -1.1 6.9 1.1 9.1 2.85 11.75 L6.2 16.85 Q7.5 18.8 7.55 20.95 7.5 23.95 3.35 24.15 L-3.1 24.85 -9.55 25.75 Q-14.1 26.25 -13.8 22.75 -13.55 19.65 -12.45 16.8 -11.4 14.0 -9.65 11.5 L-6.45 6.9 -6.1 6.4 -5.6 6.0 -2.15 6.0" fill="#e2d5c0" fill-rule="evenodd" stroke="none"/>
    <path d="M-2.15 6.0 Q-1.65 6.3 -1.1 6.9 1.1 9.1 2.85 11.75 L6.2 16.85 Q7.5 18.8 7.55 20.95 7.5 23.95 3.35 24.15 L-3.1 24.85 -9.55 25.75 Q-14.1 26.25 -13.8 22.75 -13.55 19.65 -12.45 16.8 -11.4 14.0 -9.65 11.5 L-6.45 6.9 -6.1 6.4 -5.6 6.0" fill="none" stroke="#8f7c3f" stroke-linecap="round" stroke-linejoin="round" stroke-width="1.0"/>
    <path d="M-1.6 -12.15 L-6.8 -12.15 Q-4.4 -14.2 -1.6 -12.15" fill="#ffffff" fill-rule="evenodd" stroke="none"/>
    <path d="M-1.6 -12.15 Q-4.4 -14.2 -6.8 -12.15" fill="none" stroke="#8f7c3f" stroke-linecap="round" stroke-linejoin="round" stroke-width="1.0"/>
    <path d="M1.8 6.7 Q2.3 5.8 3.05 5.05 6.2 1.8 7.55 -2.75 L9.9 -11.8 Q10.95 -16.45 11.55 -21.25 12.25 -26.55 8.65 -29.9 5.2 -33.15 0.05 -33.5 L-1.0 -33.55 0.05 -33.5 Q5.2 -33.15 8.65 -29.9 12.25 -26.55 11.55 -21.25 10.95 -16.45 9.9 -11.8 L7.55 -2.75 Q6.2 1.8 3.05 5.05 2.3 5.8 1.8 6.7 L1.3 6.75 Q-2.45 7.35 -9.65 6.9 -14.7 6.4 -19.0 3.75 -23.35 1.0 -23.75 -3.75 L-25.0 -11.25 -26.15 -16.35 Q-27.25 -20.6 -27.4 -24.1 -27.65 -29.95 -22.4 -33.3 -17.6 -36.4 -14.0 -34.5 -12.45 -33.65 -10.4 -33.55 L-7.8 -33.55 -4.7 -33.4 -1.0 -33.55 1.25 -33.75 8.2 -34.85 Q11.95 -35.45 13.5 -34.75 15.8 -33.8 19.5 -28.25 21.2 -25.7 19.8 -19.7 L16.75 -9.25 Q14.35 -0.25 8.75 3.75 5.65 5.95 1.8 6.7 M-12.0 6.25 Q-13.45 3.8 -14.3 0.75 -15.5 -3.65 -16.1 -8.5 L-17.4 -18.0 Q-18.15 -22.75 -16.5 -27.25 -13.5 -31.2 -9.1 -32.5 L-4.7 -33.4 -9.1 -32.5 Q-13.5 -31.2 -16.5 -27.25 -18.15 -22.75 -17.4 -18.0 L-16.1 -8.5 Q-15.5 -3.65 -14.3 0.75 -13.45 3.8 -12.0 6.25" fill="#ffffff" fill-rule="evenodd" stroke="none"/>
    <path d="M1.8 6.7 Q5.65 5.95 8.75 3.75 14.35 -0.25 16.75 -9.25 L19.8 -19.7 Q21.2 -25.7 19.5 -28.25 15.8 -33.8 13.5 -34.75 11.95 -35.45 8.2 -34.85 L1.25 -33.75 -1.0 -33.55 M-4.7 -33.4 L-7.8 -33.55 -10.4 -33.55 Q-12.45 -33.65 -14.0 -34.5 -17.6 -36.4 -22.4 -33.3 -27.65 -29.95 -27.4 -24.1 -27.25 -20.6 -26.15 -16.35 L-25.0 -11.25 -23.75 -3.75 Q-23.35 1.0 -19.0 3.75 -14.7 6.4 -9.65 6.9 -2.45 7.35 1.3 6.75 L1.8 6.7" fill="none" stroke="#8f7c3f" stroke-linecap="round" stroke-linejoin="round" stroke-width="1.0"/>
    <path d="M-1.0 -33.55 L0.05 -33.5 Q5.2 -33.15 8.65 -29.9 12.25 -26.55 11.55 -21.25 10.95 -16.45 9.9 -11.8 L7.55 -2.75 Q6.2 1.8 3.05 5.05 2.3 5.8 1.8 6.7 L1.5 7.25 M-1.0 -33.55 L-4.7 -33.4 -9.1 -32.5 Q-13.5 -31.2 -16.5 -27.25 -18.15 -22.75 -17.4 -18.0 L-16.1 -8.5 Q-15.5 -3.65 -14.3 0.75 -13.45 3.8 -12.0 6.25" fill="none" stroke="#8f7c3f" stroke-linecap="round" stroke-linejoin="round" stroke-width="1.0"/>
    <path d="M-7.05 -12.6 Q-6.25 -11.85 -6.6 -11.05 -7.4 -10.4 -7.85 -10.7 L-8.0 -11.25 Q-8.25 -12.05 -8.1 -12.6 L-7.05 -12.6 M-1.15 -10.75 Q-2.05 -10.3 -2.25 -11.1 -2.5 -11.95 -2.1 -12.6 -1.2 -12.75 -0.75 -12.0 -0.3 -11.25 -1.15 -10.75" fill="#8f7c3f" fill-rule="evenodd" stroke="none"/>
    <path d="M3.3 -7.75 Q3.7 -8.8 4.8 -9.1 M5.55 -7.5 L7.05 -8.5 M3.7 -4.45 L2.6 -3.35 Q1.65 -2.5 0.75 -2.2 L-2.05 -2.35 Q-3.45 -2.9 -4.05 -5.55 L-5.0 -5.85 Q-5.6 -6.25 -5.55 -7.3 -5.45 -8.45 -4.4 -8.5 -3.0 -8.6 -3.1 -7.35 -3.2 -6.2 -4.05 -5.55 M-7.05 -12.6 Q-6.25 -11.85 -6.6 -11.05 -7.4 -10.4 -7.85 -10.7 L-8.0 -11.25 Q-8.25 -12.05 -8.1 -12.6 L-7.05 -12.6 M-12.7 -7.25 L-12.25 -7.9 -11.4 -8.2 M-14.85 -7.6 Q-14.25 -8.8 -13.15 -8.9 M-1.15 -10.75 Q-0.3 -11.25 -0.75 -12.0 -1.2 -12.75 -2.1 -12.6 -2.5 -11.95 -2.25 -11.1 -2.05 -10.3 -1.15 -10.75" fill="none" stroke="#8f7c3f" stroke-linecap="round" stroke-linejoin="round" stroke-width="1.0"/>
    <path d="M-2.25 -14.4 Q-1.45 -13.9 -0.5 -13.9 0.45 -13.95 1.3 -14.4 L2.45 -15.15 M-6.25 -14.25 L-8.0 -14.3 Q-8.9 -14.45 -9.65 -15.0 L-10.5 -15.75 M-4.65 -5.1 Q-4.8 -2.2 -6.9 -1.8 -9.05 -1.4 -9.65 -3.05 L-10.25 -5.1" fill="none" stroke="#8f7c3f" stroke-linecap="round" stroke-linejoin="round" stroke-width="1.0"/>
    <path d="M-7.0 12.5 L-6.25 12.2 Q-1.55 8.95 0.55 12.35 2.6 15.7 -0.45 16.1 L-6.15 16.5 -5.25 22.25 M-6.25 12.2 L-6.15 16.5" fill="none" stroke="#8f7c3f" stroke-linecap="round" stroke-linejoin="round" stroke-width="1.0"/>
    <path d="M4.1 31.65 L1.5 31.5 Q2.9 26.8 4.1 31.65 M-5.1 31.05 L-5.0 31.25 Q-6.55 33.1 -9.35 30.35 -6.85 27.55 -5.1 31.05" fill="#8f7c3f" fill-rule="evenodd" stroke="none"/>
    <path d="M4.1 31.65 L1.5 31.5 Q2.9 26.8 4.1 31.65 M-5.1 31.05 Q-5.4 27.9 -5.25 24.25 M-5.1 31.05 L-5.0 31.25 Q-6.55 33.1 -9.35 30.35 -6.85 27.55 -5.1 31.05 M-0.5 23.25 Q-0.25 27.15 1.3 30.25" fill="none" stroke="#8f7c3f" stroke-linecap="round" stroke-linejoin="round" stroke-width="1.0"/>
    <path d="M-11.35 5.75 Q-8.3 3.4 -5.5 7.0 -7.85 8.9 -11.35 5.75 M4.5 4.4 Q1.85 8.15 -2.5 7.0 -0.7 2.2 4.5 4.4 M-2.95 6.55 Q-1.8 8.1 -3.75 8.2 -4.5 8.25 -5.25 7.75 -5.45 3.2 -2.95 6.55" fill="#ffffff" fill-rule="evenodd" stroke="none"/>
    <path d="M-11.35 5.75 Q-7.85 8.9 -5.5 7.0 -8.3 3.4 -11.35 5.75 M4.5 4.4 Q1.85 8.15 -2.5 7.0 -0.7 2.2 4.5 4.4 M-2.95 6.55 Q-1.8 8.1 -3.75 8.2 -4.5 8.25 -5.25 7.75 -5.45 3.2 -2.95 6.55" fill="none" stroke="#8f7c3f" stroke-linecap="round" stroke-linejoin="round" stroke-width="1.0"/>
    <path d="M-11.5 16.25 Q-11.5 18.75 -13.3 18.8 -14.4 18.85 -14.85 17.9 -16.45 14.4 -11.5 16.25" fill="#fefefe" fill-rule="evenodd" stroke="none"/>
    <path d="M-11.5 16.25 Q-12.4 15.55 -12.95 14.15 L-14.4 11.05 -11.35 9.95 Q-9.75 9.45 -7.95 9.45 M-11.5 16.25 Q-11.5 18.75 -13.3 18.8 -14.4 18.85 -14.85 17.9 -16.45 14.4 -11.5 16.25 Z" fill="none" stroke="#8f7c3f" stroke-linecap="round" stroke-linejoin="round" stroke-width="1.0"/>
    <path d="M4.85 15.45 L7.1 15.5 Q7.9 15.9 8.0 17.65 L5.15 17.8 Q4.2 17.15 4.85 15.45" fill="#fefefe" fill-rule="evenodd" stroke="none"/>
    <path d="M4.85 15.45 L7.1 15.5 Q7.9 15.9 8.0 17.65 L5.15 17.8 Q4.2 17.15 4.85 15.45 6.3 12.25 7.45 10.8 5.05 10.55 1.2 8.75" fill="none" stroke="#8f7c3f" stroke-linecap="round" stroke-linejoin="round" stroke-width="1.0"/>
    <path d="M-2.15 -39.15 L-2.15 -34.1 3.45 -34.7 Q4.85 -30.55 0.4 -31.9 -0.2 -28.5 -4.85 -29.1 -7.45 -29.45 -8.3 -32.05 -11.05 -33.3 -10.2 -33.9 L-5.5 -33.8 -5.35 -39.2 -2.15 -39.15" fill="#ffffff" fill-rule="evenodd" stroke="none"/>
    <path d="M-2.15 -39.15 L-2.15 -34.1 3.45 -34.7 Q4.85 -30.55 0.4 -31.9 -0.2 -28.5 -4.85 -29.1 -7.45 -29.45 -8.3 -32.05 -11.05 -33.3 -10.2 -33.9 L-5.5 -33.8" fill="none" stroke="#8f7c3f" stroke-linecap="round" stroke-linejoin="round" stroke-width="1.0"/>
    <path d="M-5.5 -33.8 L-5.35 -39.2 -2.15 -39.15 Z" fill="none" stroke="#8f7c3f" stroke-linecap="round" stroke-linejoin="round" stroke-width="1.0"/>
  </g>
</svg>
