<?xml version="1.0" encoding="UTF-8" standalone="no"?>
<!DOCTYPE svg PUBLIC "-//W3C//DTD SVG 1.1//EN" "http://www.w3.org/Graphics/SVG/1.1/DTD/svg11.dtd">
<svg width="43px" height="66px" version="1.1" xmlns="http://www.w3.org/2000/svg" xmlns:xlink="http://www.w3.org/1999/xlink" xml:space="preserve" xmlns:serif="http://www.serif.com/" style="fill-rule:evenodd;clip-rule:evenodd;stroke-linejoin:round;stroke-miterlimit:2;">
    <g transform="matrix(0.548118,-5.50919e-17,1.03423e-16,0.78275,-37.4386,-103.857)">
        <path d="M76.935,167.99C78.341,169.198 79.125,170.703 79.16,172.262C79.332,179.634 79.819,201.228 79.819,201.228C79.75,201.513 80.236,210.453 80.236,210.453C80.236,213.89 83.625,216.435 86.923,216.435C86.924,216.435 86.925,216.435 86.925,216.435C91.438,216.435 93.992,213.052 93.992,210.554L93.992,204.705C93.992,203.813 94.501,202.959 95.407,202.332C102.604,197.377 110.743,196.53 120.441,202.387C121.491,203.018 122.095,203.938 122.095,204.907C122.114,206.207 122.114,208.195 122.114,210.096C122.114,213.055 125.153,216.034 128.849,216.034C128.849,216.034 128.85,216.034 128.851,216.034C133.287,216.034 135.905,213.855 135.905,210.056L135.905,186.248C138.457,185.515 140.255,184.3 141.694,183.255C146.112,178.814 145.425,174.24 141.242,169.799C139.622,168.16 139.684,166.686 141.174,165.315C148.982,156.398 138.841,146.401 137.187,143.539C134.574,141.414 131.957,140.043 127.904,137.998C113.873,130.916 89.642,132.921 77.559,147.418C64.736,157.486 71.03,163.063 76.935,167.99Z" style="fill:white;"/>
    </g>
    <path d="M28.691,55.913L28.691,61.059C28.691,63.805 30.772,66 33.297,66C33.297,66 33.297,66 33.298,66C35.701,66 37.683,63.913 37.683,61.299C37.683,58.757 37.683,55.913 37.683,55.913C37.683,55.477 37.329,55.123 36.893,55.123C36.456,55.123 36.102,55.477 36.102,55.913L36.102,61.299C36.102,63.005 34.866,64.419 33.298,64.419C33.298,64.419 33.297,64.419 33.297,64.419C31.607,64.419 30.271,62.897 30.271,61.059L30.271,55.913C30.271,55.477 29.917,55.123 29.481,55.123C29.045,55.123 28.691,55.477 28.691,55.913ZM5.71,55.913L5.71,61.059C5.71,63.805 7.792,66 10.317,66C10.317,66 10.317,66 10.318,66C12.72,66 14.703,63.913 14.703,61.299C14.703,58.757 14.703,55.913 14.703,55.913C14.703,55.477 14.349,55.123 13.913,55.123C13.476,55.123 13.122,55.477 13.122,55.913L13.122,61.299C13.122,63.005 11.886,64.419 10.318,64.419C10.318,64.419 10.317,64.419 10.317,64.419C8.627,64.419 7.291,62.897 7.291,61.059L7.291,55.913C7.291,55.477 6.937,55.123 6.501,55.123C6.065,55.123 5.71,55.477 5.71,55.913ZM16.672,53.913C19.857,51.705 23.042,51.571 26.227,53.903C26.521,54.118 26.934,54.054 27.15,53.76C27.365,53.466 27.301,53.052 27.007,52.837C23.311,50.131 19.615,50.265 15.919,52.827C15.62,53.035 15.545,53.446 15.753,53.746C15.961,54.046 16.372,54.12 16.672,53.913ZM5.609,42.135L5.609,53.198C5.609,53.586 5.924,53.901 6.312,53.901C6.699,53.901 7.014,53.586 7.014,53.198L7.014,42.135C7.014,41.747 6.699,41.432 6.312,41.432C5.924,41.432 5.609,41.747 5.609,42.135ZM36.351,42.135L36.351,53.198C36.351,53.586 36.666,53.901 37.054,53.901C37.441,53.901 37.756,53.586 37.756,53.198L37.756,42.135C37.756,41.747 37.441,41.432 37.054,41.432C36.666,41.432 36.351,41.747 36.351,42.135ZM5.088,30.176L5.088,35.322C5.088,38.068 7.169,40.263 9.694,40.263C9.694,40.263 9.695,40.263 9.695,40.263C12.098,40.263 14.08,38.176 14.08,35.562C14.08,33.02 14.08,30.176 14.08,30.176C14.08,29.74 13.726,29.386 13.29,29.386C12.854,29.386 12.499,29.74 12.499,30.176L12.499,35.562C12.499,37.267 11.263,38.682 9.695,38.682C9.695,38.682 9.694,38.682 9.694,38.682C8.004,38.682 6.669,37.16 6.669,35.322L6.669,30.176C6.669,29.74 6.315,29.386 5.878,29.386C5.442,29.386 5.088,29.74 5.088,30.176ZM36.351,31.714L36.351,39.51C36.351,39.898 36.666,40.213 37.054,40.213C37.441,40.213 37.756,39.898 37.756,39.51L37.756,31.714C37.756,31.326 37.441,31.011 37.054,31.011C36.666,31.011 36.351,31.326 36.351,31.714ZM39.632,29.566C41.839,32.75 41.973,35.935 39.641,39.12C39.426,39.414 39.49,39.828 39.784,40.043C40.078,40.259 40.492,40.195 40.707,39.901C43.413,36.205 43.279,32.509 40.717,28.813C40.51,28.513 40.098,28.439 39.798,28.646C39.498,28.854 39.424,29.266 39.632,29.566ZM39.632,15.328C41.839,18.513 41.973,21.698 39.641,24.883C39.426,25.177 39.49,25.591 39.784,25.806C40.078,26.022 40.492,25.958 40.707,25.663C43.413,21.968 43.279,18.272 40.717,14.576C40.51,14.276 40.098,14.201 39.798,14.409C39.498,14.617 39.424,15.029 39.632,15.328ZM2.283,14.576C-0.279,18.272 -0.413,21.968 2.293,25.663C2.508,25.958 2.922,26.022 3.216,25.806C3.51,25.591 3.574,25.177 3.359,24.883C1.027,21.698 1.161,18.513 3.368,15.328C3.576,15.029 3.502,14.617 3.202,14.409C2.902,14.201 2.49,14.276 2.283,14.576ZM28.979,17.318C28.968,17.327 28.957,17.337 28.946,17.347L28.95,17.344C28.7,17.557 28.652,17.924 28.839,18.195L29.082,18.585C29.375,19.145 29.52,19.817 29.52,20.601C29.52,21.51 29.34,22.243 28.97,22.797C28.97,22.798 28.97,22.798 28.969,22.799C28.673,23.251 28.332,23.488 27.93,23.488C27.32,23.488 26.965,22.972 26.794,21.994C27.126,21.315 27.29,20.649 27.29,19.998C27.29,19.562 27.23,19.258 27.126,19.084C27.027,18.917 26.891,18.841 26.727,18.841C26.55,18.841 26.366,18.945 26.199,19.189C25.859,19.681 25.681,20.41 25.681,21.381C25.681,21.508 25.686,21.657 25.696,21.828C25.199,22.918 24.639,23.488 23.97,23.488C23.667,23.488 23.453,23.297 23.307,22.941C23.307,22.94 23.307,22.94 23.307,22.94C23.198,22.678 23.145,22.358 23.145,21.978C23.145,20.61 23.745,19.388 24.936,18.311C24.936,18.311 24.936,18.311 24.936,18.311C25.192,18.08 25.219,17.689 24.998,17.424L24.967,17.387C24.854,17.255 24.693,17.173 24.519,17.162C24.344,17.151 24.172,17.212 24.044,17.33C23.606,17.734 23.246,18.127 22.965,18.51C22.172,19.587 21.777,20.755 21.777,22.014C21.777,22.773 21.932,23.398 22.235,23.891C22.235,23.891 22.235,23.892 22.235,23.892C22.639,24.545 23.197,24.868 23.905,24.868C24.716,24.868 25.43,24.394 26.026,23.42C26.416,24.392 27.06,24.868 27.941,24.868C28.83,24.868 29.568,24.416 30.145,23.497C30.145,23.497 30.145,23.497 30.145,23.497C30.639,22.71 30.889,21.753 30.889,20.625C30.889,19.406 30.56,18.343 29.909,17.43C29.908,17.429 29.907,17.428 29.907,17.427C29.801,17.285 29.642,17.193 29.467,17.172C29.291,17.151 29.115,17.204 28.979,17.318L28.979,17.318ZM20.081,14.819L18.127,12.864C17.852,12.59 17.408,12.59 17.133,12.864L15.179,14.819C14.905,15.093 14.905,15.538 15.179,15.812C15.453,16.087 15.898,16.087 16.172,15.812L17.63,14.355C17.63,14.355 19.088,15.812 19.088,15.812C19.362,16.087 19.807,16.087 20.081,15.812C20.355,15.538 20.355,15.093 20.081,14.819ZM37.478,14.819L35.524,12.864C35.249,12.59 34.804,12.59 34.53,12.864L32.575,14.819C32.301,15.093 32.301,15.538 32.575,15.812C32.85,16.087 33.295,16.087 33.569,15.812L35.027,14.355C35.027,14.355 36.484,15.812 36.484,15.812C36.758,16.087 37.204,16.087 37.478,15.812C37.752,15.538 37.752,15.093 37.478,14.819ZM11.32,3.171L4.686,10.823C4.432,11.116 4.464,11.56 4.757,11.814C5.05,12.068 5.494,12.036 5.748,11.743L12.382,4.092C12.636,3.799 12.604,3.355 12.311,3.101C12.018,2.847 11.574,2.878 11.32,3.171ZM32.299,4.884C34.564,6.437 37.216,8.791 38.676,10.405C38.946,10.702 39.405,10.725 39.703,10.456C40,10.187 40.023,9.727 39.754,9.43C38.234,7.751 35.477,5.301 33.121,3.686C32.79,3.459 32.337,3.543 32.11,3.874C31.884,4.205 31.968,4.657 32.299,4.884ZM16.348,3.079C20.248,0.824 24.147,0.69 28.047,3.071C28.358,3.261 28.765,3.163 28.955,2.852C29.145,2.541 29.047,2.134 28.736,1.944C24.386,-0.713 20.036,-0.579 15.687,1.935C15.371,2.118 15.263,2.522 15.445,2.838C15.628,3.154 16.032,3.262 16.348,3.079Z"/>
</svg>
