<?xml version="1.0" encoding="UTF-8" standalone="no"?>
<!DOCTYPE svg PUBLIC "-//W3C//DTD SVG 1.1//EN" "http://www.w3.org/Graphics/SVG/1.1/DTD/svg11.dtd">
<svg width="59px" height="87px" version="1.1" xmlns="http://www.w3.org/2000/svg" xmlns:xlink="http://www.w3.org/1999/xlink" xml:space="preserve" xmlns:serif="http://www.serif.com/" style="fill-rule:evenodd;clip-rule:evenodd;stroke-linejoin:round;stroke-miterlimit:2;">
    <g transform="matrix(0.619364,0,0,0.619364,-42.6562,-18.5782)">
        <path d="M127,169L121.867,160.411L118,167.5C117.838,168.105 116.739,169 116.739,169C116.739,169 114.746,169.055 113.5,169L81,169C79.914,169.168 77.258,169 77.258,169C77.258,169 76.633,168.288 76.258,167.5L70.258,156.5L76.258,145.5L80,139L80,114L77.258,108.5L71.258,97.5L77.258,86.5L78.78,83.069L77,80L71,69L77,58L80,51L89,32L98,51L98.985,52.595L132.136,52.595L133,51L142,32L151,51L152.242,58L158.242,69L152.242,80L150.534,83.069L151.985,86.5L157.985,97.5L151.985,108.5L148,114.943L148,138L156.742,145.5L162.742,156.5L156.742,167.5C156.298,167.997 155.826,169 155.826,169C155.826,169 153.184,169.156 152,169L127,169" style="fill:white;"/>
    </g>
    <g transform="matrix(0.619364,0,0,0.619364,-38.6304,-48.3515)">
        <path d="M120.5,218.533L145.5,218.533C146.307,218.533 146.962,217.878 146.962,217.071C146.962,216.264 146.307,215.609 145.5,215.609L120.5,215.609C119.693,215.609 119.038,216.264 119.038,217.071C119.038,217.878 119.693,218.533 120.5,218.533ZM107.001,215.609L74.501,215.609C73.694,215.609 73.039,216.264 73.039,217.071C73.039,217.878 73.694,218.533 74.501,218.533L107.001,218.533C107.808,218.533 108.463,217.878 108.463,217.071C108.463,216.264 107.808,215.609 107.001,215.609ZM154.66,204.57L149.024,214.903C148.657,215.576 148.905,216.42 149.578,216.787C150.251,217.154 151.095,216.906 151.462,216.233L157.429,205.293C157.551,205.093 157.62,204.865 157.63,204.631L157.63,204.508C157.62,204.275 157.551,204.046 157.429,203.846L151.462,192.906C151.095,192.233 150.251,191.985 149.578,192.352C148.905,192.719 148.657,193.563 149.024,194.236L154.66,204.57ZM115.917,204.57L110.281,214.903C109.914,215.576 110.162,216.42 110.835,216.787C111.508,217.154 112.352,216.906 112.719,216.233L118.686,205.293C118.808,205.093 118.877,204.865 118.887,204.631L118.887,204.508C118.877,204.275 118.808,204.046 118.686,203.846L112.719,192.906C112.352,192.233 111.508,191.985 110.835,192.352C110.162,192.719 109.914,193.563 110.281,194.236L115.917,204.57ZM62.572,203.846C62.45,204.046 62.381,204.275 62.371,204.508L62.371,204.631C62.381,204.865 62.45,205.093 62.572,205.293L68.539,216.233C68.906,216.906 69.75,217.154 70.423,216.787C71.096,216.42 71.344,215.576 70.977,214.903L65.341,204.57L70.977,194.236C71.344,193.563 71.096,192.719 70.423,192.352C69.75,191.985 68.906,192.233 68.539,192.906L62.572,203.846ZM72.038,162.071L72.038,187.071C72.038,187.878 72.693,188.533 73.5,188.533C74.307,188.533 74.962,187.878 74.962,187.071L74.962,162.071C74.962,161.264 74.307,160.609 73.5,160.609C72.693,160.609 72.038,161.264 72.038,162.071ZM105.538,162.071L105.538,187.071C105.538,187.878 106.193,188.533 107,188.533C107.807,188.533 108.462,187.878 108.462,187.071L108.462,162.071C108.462,161.264 107.807,160.609 107,160.609C106.193,160.609 105.538,161.264 105.538,162.071ZM140.038,161.071L140.038,186.071C140.038,186.878 140.693,187.533 141.5,187.533C142.307,187.533 142.962,186.878 142.962,186.071L142.962,161.071C142.962,160.264 142.307,159.609 141.5,159.609C140.693,159.609 140.038,160.264 140.038,161.071ZM149.902,145.57L144.266,155.903C143.899,156.576 144.147,157.42 144.82,157.787C145.493,158.154 146.337,157.906 146.704,157.233L152.671,146.293C152.793,146.093 152.862,145.865 152.872,145.631L152.872,145.508C152.862,145.275 152.793,145.046 152.671,144.846L146.704,133.906C146.337,133.233 145.493,132.985 144.82,133.352C144.147,133.719 143.899,134.563 144.266,135.236L149.902,145.57ZM63.572,144.846C63.45,145.046 63.381,145.275 63.371,145.508L63.371,145.631C63.381,145.865 63.45,146.093 63.572,146.293L69.539,157.233C69.906,157.906 70.75,158.154 71.423,157.787C72.096,157.42 72.344,156.576 71.977,155.903L66.341,145.57L71.977,135.236C72.344,134.563 72.096,133.719 71.423,133.352C70.75,132.985 69.906,133.233 69.539,133.906L63.572,144.846ZM150.16,117.07L144.524,127.403C144.157,128.076 144.405,128.92 145.078,129.287C145.751,129.654 146.595,129.406 146.962,128.733L152.929,117.793C153.051,117.593 153.12,117.365 153.13,117.131L153.13,117.008C153.12,116.775 153.051,116.546 152.929,116.346L146.962,105.406C146.595,104.733 145.751,104.485 145.078,104.852C144.405,105.219 144.157,106.063 144.524,106.736L150.16,117.07ZM63.314,116.346C63.193,116.546 63.123,116.775 63.113,117.008L63.113,117.131C63.123,117.365 63.193,117.593 63.314,117.793L69.281,128.733C69.648,129.406 70.492,129.654 71.165,129.287C71.838,128.92 72.086,128.076 71.719,127.403L66.083,117.07L71.719,106.736C72.086,106.063 71.838,105.219 71.165,104.852C70.492,104.485 69.648,104.733 69.281,105.406L63.314,116.346ZM121.964,113.352L111.916,113.352L110.062,109.645C109.701,108.923 108.822,108.63 108.1,108.991C107.378,109.352 107.085,110.231 107.446,110.953L109.695,115.45C109.7,115.462 109.706,115.473 109.712,115.484L115.446,126.953C115.732,127.524 116.341,127.827 116.94,127.75C117.539,127.827 118.148,127.524 118.434,126.953L126.434,110.953C126.795,110.231 126.502,109.352 125.78,108.991C125.058,108.63 124.178,108.923 123.817,109.645L121.964,113.352ZM113.378,116.277L116.94,123.4L120.502,116.277L113.378,116.277ZM132.466,108.103L136.466,112.103C137.037,112.673 137.963,112.673 138.534,112.103C139.105,111.531 139.105,110.605 138.534,110.034L134.534,106.034C133.963,105.463 133.037,105.463 132.466,106.034C131.895,106.605 131.895,107.531 132.466,108.103ZM97.466,106.034L93.466,110.034C92.895,110.605 92.895,111.531 93.466,112.103C94.037,112.673 94.963,112.673 95.534,112.103L99.534,108.103C100.105,107.531 100.105,106.605 99.534,106.034C98.963,105.463 98.037,105.463 97.466,106.034ZM96.5,102.533L121.5,102.533C122.307,102.533 122.962,101.878 122.962,101.071C122.962,100.264 122.307,99.609 121.5,99.609L96.5,99.609C95.693,99.609 95.038,100.264 95.038,101.071C95.038,101.878 95.693,102.533 96.5,102.533ZM82.5,78.608C82.29,78.608 82.077,78.653 81.874,78.749C81.723,78.821 81.589,78.916 81.476,79.027L81.456,79.047C81.345,79.16 81.25,79.294 81.179,79.445L72.179,98.445C71.833,99.174 72.145,100.047 72.874,100.393C73.604,100.738 74.477,100.427 74.822,99.697L82.5,83.487L90.179,99.697C90.524,100.427 91.397,100.738 92.126,100.393C92.856,100.047 93.168,99.174 92.822,98.445L83.822,79.445C83.75,79.294 83.656,79.16 83.545,79.047L83.525,79.027C83.411,78.916 83.278,78.821 83.126,78.749C82.924,78.653 82.711,78.608 82.5,78.608ZM135.5,78.608C135.29,78.608 135.077,78.653 134.874,78.749C134.723,78.821 134.589,78.916 134.476,79.027L134.456,79.047C134.345,79.16 134.25,79.294 134.179,79.445L125.179,98.445C124.833,99.174 125.145,100.047 125.874,100.393C126.604,100.738 127.477,100.427 127.822,99.697L135.5,83.487L143.179,99.697C143.524,100.427 144.397,100.738 145.126,100.393C145.856,100.047 146.168,99.174 145.822,98.445L136.822,79.445C136.75,79.294 136.656,79.16 136.545,79.047L136.525,79.027C136.411,78.916 136.278,78.821 136.126,78.749C135.924,78.653 135.711,78.608 135.5,78.608Z"/>
    </g>
</svg>
