<?xml version="1.0" encoding="UTF-8" standalone="no"?>
<!DOCTYPE svg PUBLIC "-//W3C//DTD SVG 1.1//EN" "http://www.w3.org/Graphics/SVG/1.1/DTD/svg11.dtd">
<svg width="56px" height="67px" version="1.1" xmlns="http://www.w3.org/2000/svg" xmlns:xlink="http://www.w3.org/1999/xlink" xml:space="preserve" xmlns:serif="http://www.serif.com/" style="fill-rule:evenodd;clip-rule:evenodd;stroke-linejoin:round;stroke-miterlimit:2;">
    <g transform="matrix(0.523569,0,0,0.523569,-29.5931,-47.4168)">
        <path d="M140.07,162.368C135.63,166.035 132.422,166.422 127.055,167.344C125.746,167.569 123.837,169.218 123.258,170.14L111.29,189.239C111.29,189.239 109.76,192.114 108.56,194.368C107.69,195.998 105.99,197.017 104.15,197.017L78.16,197.017C76.73,197.017 75.36,196.417 74.39,195.364C73.41,194.31 72.93,192.898 73.04,191.469C73.15,190.212 73.23,189.239 73.23,189.239L84.29,170.688C86.37,167.3 86.77,164.499 85.26,162.368C80.13,155.368 79.44,149.859 84.29,142.859C83.3,140.053 83.64,136.836 84.29,133.743L93.18,114.977L102.18,133.977C108.09,132.978 114,132.831 119.9,133.977L128.9,114.977L137.9,133.977L140.82,141.368C145.67,148.368 145.56,157.843 140.07,162.368Z" style="fill:white;"/>
    </g>
    <g transform="matrix(0.523569,0,0,0.523569,-29.5931,-47.4168)">
        <path d="M74.505,199.802C73.955,207.499 71.794,212.094 65.448,215.96C64.795,216.359 64.587,217.213 64.985,217.867C65.384,218.521 66.238,218.728 66.892,218.33C74.109,213.933 76.647,208.753 77.273,200C77.328,199.237 76.752,198.572 75.988,198.517C75.224,198.463 74.56,199.039 74.505,199.802ZM109.782,201.929C110.836,206.221 113.103,210.072 116.837,213.103C114.738,213.453 112.623,214.05 110.726,214.702C109.964,214.964 109.557,215.795 109.819,216.557C110.081,217.319 110.912,217.726 111.674,217.464C114.603,216.458 118.105,215.553 121.119,215.721C121.8,215.759 122.417,215.32 122.604,214.663C122.791,214.007 122.498,213.308 121.899,212.981C116.745,210.17 113.795,206.027 112.618,201.233C112.426,200.45 111.634,199.971 110.852,200.163C110.069,200.355 109.59,201.147 109.782,201.929ZM81.436,198.406L107.144,198.406C107.911,198.406 108.533,197.783 108.533,197.017C108.533,196.25 107.911,195.628 107.144,195.628L81.436,195.628C80.67,195.628 80.047,196.25 80.047,197.017C80.047,197.783 80.67,198.406 81.436,198.406ZM121.401,170.121L110.335,188.671C110.021,189.197 110.193,189.879 110.719,190.193C111.245,190.507 111.927,190.334 112.241,189.808L123.307,171.258C123.621,170.732 123.449,170.05 122.923,169.736C122.397,169.422 121.715,169.595 121.401,170.121ZM83.334,170.121L72.267,188.671C71.954,189.197 72.126,189.879 72.652,190.193C73.178,190.507 73.86,190.334 74.173,189.808L85.24,171.258C85.554,170.732 85.381,170.05 84.855,169.736C84.329,169.422 83.648,169.595 83.334,170.121ZM66.244,171.131C65.694,178.828 63.533,183.423 57.187,187.289C56.534,187.688 56.326,188.542 56.724,189.196C57.123,189.85 57.977,190.057 58.631,189.659C65.848,185.262 68.386,180.082 69.012,171.329C69.067,170.566 68.491,169.901 67.727,169.846C66.963,169.792 66.299,170.368 66.244,171.131ZM138.868,142.2C143.329,148.636 143.602,155.071 138.89,161.506C138.414,162.156 138.555,163.071 139.206,163.547C139.856,164.023 140.77,163.881 141.246,163.231C146.784,155.666 146.511,148.102 141.268,140.537C140.809,139.875 139.899,139.71 139.236,140.169C138.574,140.628 138.409,141.538 138.868,142.2ZM84.051,140.537C78.807,148.102 78.534,155.666 84.073,163.231C84.549,163.881 85.463,164.023 86.113,163.547C86.763,163.071 86.905,162.156 86.429,161.506C81.717,155.071 81.99,148.636 86.451,142.2C86.91,141.538 86.745,140.628 86.082,140.169C85.42,139.71 84.51,139.875 84.051,140.537ZM118.603,146.918C118.818,146.561 119.145,146.365 119.432,146.314C120.241,146.17 120.84,146.436 121.236,147.096L121.236,147.097C122.469,149.17 123.089,151.616 123.089,154.436C123.089,156.748 122.556,158.559 121.514,159.877C120.444,161.228 119.11,161.9 117.515,161.9C116.53,161.9 115.697,161.656 115.012,161.177C114.216,160.621 113.616,159.74 113.227,158.528C112.839,159.74 112.239,160.621 111.442,161.177C110.757,161.656 109.924,161.9 108.94,161.9C107.345,161.9 106.01,161.228 104.94,159.877C103.898,158.559 103.366,156.748 103.366,154.436C103.366,151.597 103.986,149.151 105.219,147.096C105.615,146.436 106.214,146.17 107.023,146.314L107.044,146.314C107.063,146.314 107.081,146.316 107.097,146.319L107.097,146.318C107.451,146.372 107.698,146.568 107.834,146.908C107.963,147.231 107.945,147.535 107.79,147.819C107.789,147.82 107.789,147.822 107.788,147.824C106.681,149.769 106.121,151.955 106.103,154.382C106.103,156.039 106.406,157.328 107.034,158.244C107.623,159.103 108.325,159.546 109.159,159.546C110.052,159.546 110.704,159 111.151,157.95C111.646,156.785 111.886,155.038 111.886,152.71L111.886,149.395C111.886,149.034 112.013,148.727 112.266,148.474C112.519,148.221 112.825,148.095 113.186,148.095L113.268,148.095C113.627,148.095 113.932,148.216 114.183,148.455C114.437,148.697 114.568,149.008 114.568,149.395L114.568,152.71C114.568,155.038 114.808,156.785 115.303,157.95C115.75,159 116.403,159.546 117.296,159.546C118.129,159.546 118.832,159.103 119.42,158.244C120.049,157.328 120.352,156.039 120.352,154.381C120.352,151.955 119.792,149.77 118.668,147.826C118.666,147.823 118.665,147.821 118.664,147.819C118.511,147.538 118.488,147.238 118.603,146.919L118.603,146.918ZM160.702,142.203L160.702,154.323C160.702,154.932 160.552,155.531 160.257,156.064C159.344,157.702 157.934,158.676 155.99,158.818C155.226,158.873 154.65,159.539 154.706,160.304C154.761,161.068 155.427,161.644 156.192,161.588C159.147,161.373 161.297,159.904 162.684,157.415C162.685,157.414 162.685,157.413 162.686,157.412C163.21,156.466 163.48,155.404 163.48,154.323L163.48,142.203C163.48,141.436 162.858,140.814 162.091,140.814C161.324,140.814 160.702,141.436 160.702,142.203ZM93.561,148.512C94.84,148.512 95.878,149.551 95.878,150.83C95.878,152.109 94.84,153.147 93.561,153.147C92.282,153.147 91.243,152.109 91.243,150.83C91.243,149.551 92.282,148.512 93.561,148.512ZM132.374,148.512C133.653,148.512 134.691,149.551 134.691,150.83C134.691,152.109 133.653,153.147 132.374,153.147C131.095,153.147 130.056,152.109 130.056,150.83C130.056,149.551 131.095,148.512 132.374,148.512ZM85.499,134.602L93.18,118.388L100.861,134.602C101.205,135.33 102.077,135.641 102.805,135.296C103.533,134.952 103.844,134.08 103.499,133.352L94.499,114.352C94.258,113.842 93.744,113.517 93.18,113.517C92.616,113.517 92.102,113.842 91.861,114.352L82.861,133.352C82.516,134.08 82.827,134.952 83.555,135.296C84.283,135.641 85.155,135.33 85.499,134.602ZM121.219,134.602L128.9,118.388L136.581,134.602C136.925,135.33 137.797,135.641 138.525,135.296C139.253,134.952 139.564,134.08 139.219,133.352L130.219,114.352C129.978,113.842 129.464,113.517 128.9,113.517C128.336,113.517 127.822,113.842 127.581,114.352L118.581,133.352C118.236,134.08 118.547,134.952 119.275,135.296C120.003,135.641 120.875,135.33 121.219,134.602ZM107.81,135.209L115.251,135.209C116.018,135.209 116.64,134.587 116.64,133.821C116.64,133.055 116.018,132.432 115.251,132.432L107.81,132.432C107.044,132.432 106.422,133.055 106.422,133.821C106.422,134.587 107.044,135.209 107.81,135.209Z"/>
    </g>
</svg>
