<?xml version="1.0" encoding="UTF-8" standalone="no"?>
<!DOCTYPE svg PUBLIC "-//W3C//DTD SVG 1.1//EN" "http://www.w3.org/Graphics/SVG/1.1/DTD/svg11.dtd">
<svg width="68px" height="85px" version="1.1" xmlns="http://www.w3.org/2000/svg" xmlns:xlink="http://www.w3.org/1999/xlink" xml:space="preserve" xmlns:serif="http://www.serif.com/" style="fill-rule:evenodd;clip-rule:evenodd;stroke-linejoin:round;stroke-miterlimit:2;">
    <g transform="matrix(0.634314,0,0,0.634314,-36.408,-2.86025)">
        <path d="M134.946,33.829C132.286,31.216 130.145,28.409 128.347,25.473C123.568,23.328 121.927,19.462 119,12.77C116.759,18.284 113.876,23.156 109.108,26.142C107.861,27.802 104.793,30.886 101.065,34.486L82.119,51L76.198,61C71.346,68 71.875,75 77,82C79.197,85.53 83.225,88.522 89,91C84.148,98 83.28,104.704 87.974,112C90.465,115.871 92.075,118.019 95.186,120.583L95.186,131.338C95.186,134.492 97.743,137.05 100.898,137.05L100.901,137.05C102.503,137.05 104.038,136.414 105.171,135.281C106.303,134.149 106.939,132.613 106.939,131.012L106.939,123.498C114.355,124.236 121.77,124.233 129.186,123.498L129.186,131.338C129.186,132.853 129.788,134.305 130.859,135.377C131.93,136.448 133.383,137.05 134.898,137.05L134.901,137.05C136.503,137.05 138.038,136.414 139.171,135.281C140.303,134.149 140.939,132.613 140.939,131.012L140.939,122.393C147.476,120.103 151.931,116.5 155.258,112C160.383,105 158.611,95.948 153.758,88.948C156.228,86.102 158.051,83.794 159.258,82C164.383,75 164.899,68 160.047,61L153.892,51L134.946,33.829Z" style="fill:white;"/>
    </g>
    <g transform="matrix(0.634314,0,0,0.634314,-35.9756,-53.6661)">
        <path d="M138.794,203.593L138.794,211.107C138.794,212.32 138.312,213.484 137.454,214.342C136.596,215.2 135.433,215.682 134.219,215.682L134.216,215.682C133.089,215.682 132.008,215.234 131.211,214.438C130.415,213.641 129.967,212.56 129.967,211.433L129.967,203.593C129.967,202.786 129.311,202.131 128.504,202.131C127.697,202.131 127.041,202.786 127.041,203.593L127.041,211.433C127.041,213.335 127.797,215.16 129.142,216.506C129.142,216.506 129.142,216.507 129.143,216.507C130.488,217.852 132.313,218.608 134.216,218.608L134.219,218.608C136.209,218.608 138.116,217.818 139.523,216.411L139.523,216.41C140.929,215.003 141.72,213.096 141.72,211.107L141.72,203.593C141.72,202.786 141.064,202.131 140.257,202.131C139.45,202.131 138.794,202.786 138.794,203.593ZM104.794,203.593L104.794,211.107C104.794,212.32 104.312,213.484 103.454,214.342C102.596,215.2 101.433,215.682 100.219,215.682L100.216,215.682C99.089,215.682 98.008,215.234 97.211,214.438C96.415,213.641 95.967,212.56 95.967,211.433L95.967,203.593C95.967,202.786 95.311,202.131 94.504,202.131C93.697,202.131 93.041,202.786 93.041,203.593L93.041,211.433C93.041,213.335 93.797,215.16 95.142,216.506C95.142,216.506 95.142,216.507 95.143,216.507C96.488,217.852 98.313,218.608 100.216,218.608L100.219,218.608C102.209,218.608 104.116,217.818 105.523,216.411L105.523,216.41C106.929,215.003 107.72,213.096 107.72,211.107L107.72,203.593C107.72,202.786 107.064,202.131 106.257,202.131C105.45,202.131 104.794,202.786 104.794,203.593ZM87.118,170.264C81.875,177.829 81.602,185.394 87.14,192.958C87.616,193.608 88.531,193.75 89.181,193.274C89.831,192.798 89.972,191.883 89.496,191.233C84.785,184.798 85.058,178.363 89.518,171.928C89.977,171.265 89.812,170.355 89.15,169.896C88.488,169.437 87.577,169.602 87.118,170.264ZM153.376,171.928C157.836,178.363 158.109,184.798 153.397,191.233C152.921,191.883 153.063,192.798 153.713,193.274C154.363,193.75 155.278,193.608 155.754,192.958C161.292,185.394 161.019,177.829 155.775,170.264C155.316,169.602 154.406,169.437 153.744,169.896C153.082,170.355 152.917,171.265 153.376,171.928ZM136.962,176.794L134.969,185.759C134.357,187.987 135.279,189.442 136.575,190.125C138.356,191.065 141.298,190.461 142.581,187.677C142.902,186.981 142.597,186.154 141.9,185.833C141.204,185.512 140.377,185.817 140.056,186.514C139.691,187.307 139.037,187.736 138.412,187.767C138.144,187.781 137.88,187.73 137.716,187.548C137.509,187.316 137.523,186.947 137.656,186.473C137.663,186.448 137.67,186.422 137.675,186.397L139.675,177.397C139.842,176.648 139.369,175.905 138.62,175.739C137.871,175.572 137.128,176.045 136.962,176.794ZM108.794,174.593L108.794,182.107C108.794,183.32 108.312,184.484 107.454,185.342C106.596,186.2 105.433,186.682 104.219,186.682L104.216,186.682C103.089,186.682 102.008,186.234 101.211,185.438C100.415,184.641 99.967,183.56 99.967,182.433L99.967,174.593C99.967,173.786 99.311,173.131 98.504,173.131C97.697,173.131 97.041,173.786 97.041,174.593L97.041,182.433C97.041,184.335 97.797,186.16 99.142,187.506C99.142,187.506 99.142,187.507 99.143,187.507C100.488,188.852 102.313,189.608 104.216,189.608L104.219,189.608C106.209,189.608 108.116,188.818 109.523,187.411L109.523,187.41C110.929,186.003 111.72,184.096 111.72,182.107L111.72,174.593C111.72,173.786 111.064,173.131 110.257,173.131C109.45,173.131 108.794,173.786 108.794,174.593ZM57.152,182.569L57.202,182.632C57.25,182.691 57.299,182.734 57.348,182.764C57.603,182.951 57.894,183.029 58.223,182.995C58.562,182.96 58.849,182.815 59.083,182.557C59.085,182.556 59.086,182.554 59.088,182.552C60.045,181.472 61.143,180.92 62.394,180.92C63.402,180.92 64.394,181.395 65.39,182.304C65.39,182.305 65.39,182.305 65.391,182.305C66.854,183.634 68.462,184.29 70.208,184.29C72.395,184.305 74.192,183.466 75.6,181.774C75.606,181.767 75.612,181.759 75.617,181.752C75.826,181.474 75.916,181.156 75.881,180.796C75.846,180.438 75.693,180.142 75.42,179.909L75.294,179.807C75.028,179.591 74.715,179.495 74.353,179.532L74.352,179.532C74,179.567 73.705,179.722 73.469,180.002C72.965,180.567 72.453,180.979 71.928,181.226C71.413,181.468 70.84,181.586 70.21,181.586L70.203,181.586C69.198,181.599 68.208,181.13 67.215,180.222C67.214,180.222 67.214,180.222 67.213,180.221C65.75,178.893 64.142,178.237 62.396,178.237C60.209,178.222 58.412,179.06 57.004,180.753C57.003,180.754 57.002,180.755 57.001,180.756C56.785,181.021 56.687,181.337 56.723,181.71C56.756,182.054 56.899,182.34 57.152,182.569ZM57.305,182.732L57.286,182.717C57.292,182.722 57.299,182.727 57.305,182.732ZM75.118,140.264C69.875,147.829 69.602,155.394 75.14,162.958C75.616,163.608 76.531,163.75 77.181,163.274C77.831,162.798 77.972,161.883 77.496,161.233C72.785,154.798 73.058,148.363 77.518,141.928C77.977,141.265 77.812,140.355 77.15,139.896C76.488,139.437 75.577,139.602 75.118,140.264ZM157.376,141.928C161.836,148.363 162.109,154.798 157.397,161.233C156.921,161.883 157.063,162.798 157.713,163.274C158.363,163.75 159.278,163.608 159.754,162.958C165.292,155.394 165.019,147.829 159.775,140.264C159.316,139.602 158.406,139.437 157.744,139.896C157.082,140.355 156.917,141.265 157.376,141.928ZM93.818,144.709C88.913,144.709 84.931,148.691 84.931,153.596C84.931,158.501 88.913,162.484 93.818,162.484C98.723,162.484 102.706,158.501 102.706,153.596C102.706,148.691 98.723,144.709 93.818,144.709ZM135.158,147.151L125.479,147.151L123.624,143.443C123.263,142.722 122.386,142.429 121.665,142.79C120.944,143.151 120.652,144.028 121.012,144.749L129.012,160.749C129.26,161.243 129.765,161.556 130.318,161.556C130.871,161.556 131.377,161.243 131.624,160.749L139.624,144.749C139.985,144.028 139.692,143.15 138.971,142.79C138.251,142.43 137.373,142.722 137.012,143.443L135.158,147.151ZM93.818,147.484C97.192,147.484 99.931,150.223 99.931,153.596C99.931,156.97 97.192,159.709 93.818,159.709C90.445,159.709 87.706,156.97 87.706,153.596C87.706,150.223 90.445,147.484 93.818,147.484ZM133.698,150.071L126.938,150.071L130.318,156.831L133.698,150.071ZM111.284,140.062L107.284,144.062C106.714,144.632 106.714,145.559 107.284,146.13C107.855,146.701 108.782,146.701 109.353,146.13L113.353,142.13C113.923,141.559 113.923,140.632 113.353,140.062C112.782,139.491 111.855,139.491 111.284,140.062ZM146.284,142.13L150.284,146.13C150.855,146.701 151.782,146.701 152.352,146.13C152.923,145.559 152.923,144.632 152.352,144.062L148.352,140.062C147.782,139.491 146.855,139.491 146.284,140.062C145.713,140.632 145.713,141.559 146.284,142.13ZM99.654,113.744L79.535,131.281C79.073,131.684 79.025,132.386 79.427,132.848C79.83,133.311 80.532,133.359 80.995,132.956L101.114,115.419C101.576,115.016 101.624,114.314 101.222,113.852C100.819,113.39 100.117,113.342 99.654,113.744ZM133.534,115.419L153.654,132.956C154.116,133.359 154.818,133.311 155.221,132.848C155.624,132.386 155.576,131.684 155.113,131.281L134.994,113.744C134.532,113.342 133.83,113.39 133.427,113.852C133.024,114.314 133.072,115.016 133.534,115.419ZM110.819,120.984C107.721,120.984 105.207,123.499 105.207,126.596C105.207,129.693 107.721,132.207 110.819,132.207C113.916,132.207 116.43,129.693 116.43,126.596C116.43,123.499 113.916,120.984 110.819,120.984ZM110.819,123.207C112.689,123.207 114.207,124.725 114.207,126.596C114.207,128.466 112.689,129.984 110.819,129.984C108.948,129.984 107.43,128.466 107.43,126.596C107.43,124.725 108.948,123.207 110.819,123.207ZM69.692,115.729C70.318,116.632 70.37,117.536 69.709,118.439C69.346,118.934 69.454,119.63 69.949,119.993C70.444,120.355 71.14,120.247 71.502,119.752C72.793,117.989 72.741,116.226 71.519,114.463C71.169,113.959 70.476,113.833 69.972,114.182C69.468,114.532 69.343,115.225 69.692,115.729ZM73.692,115.729C74.318,116.632 74.37,117.536 73.709,118.439C73.346,118.934 73.454,119.63 73.949,119.993C74.444,120.355 75.14,120.247 75.502,119.752C76.793,117.989 76.741,116.226 75.519,114.463C75.169,113.959 74.476,113.833 73.972,114.182C73.468,114.532 73.343,115.225 73.692,115.729ZM120.319,109.984C118.601,109.984 117.207,111.378 117.207,113.096C117.207,114.813 118.601,116.208 120.319,116.208C122.036,116.208 123.431,114.813 123.431,113.096C123.431,111.378 122.036,109.984 120.319,109.984ZM120.319,112.208C120.809,112.208 121.207,112.606 121.207,113.096C121.207,113.586 120.809,113.984 120.319,113.984C119.828,113.984 119.431,113.586 119.431,113.096C119.431,112.606 119.828,112.208 120.319,112.208ZM118.176,84.605C117.769,84.605 117.424,84.748 117.139,85.033C116.854,85.318 116.711,85.663 116.711,86.07L116.711,88.167C116.711,91.92 115.862,95.289 114.157,98.272C112.458,101.246 110.088,103.566 107.048,105.233C107.044,105.235 107.039,105.238 107.035,105.24C106.7,105.436 106.483,105.722 106.386,106.099C106.289,106.472 106.343,106.826 106.554,107.159L106.623,107.289L106.63,107.298C106.844,107.634 107.152,107.85 107.559,107.942C107.95,108.03 108.322,107.985 108.675,107.809C108.679,107.807 108.684,107.804 108.688,107.802C111.06,106.538 113.144,104.777 114.936,102.517C116.407,100.663 117.558,98.625 118.391,96.403C119.218,98.61 120.351,100.642 121.79,102.5C123.549,104.77 125.599,106.536 127.939,107.801C127.948,107.806 127.958,107.811 127.968,107.815C128.344,107.991 128.715,108.028 129.078,107.94C129.459,107.849 129.757,107.637 129.972,107.303L129.959,107.321L130.035,107.184C130.282,106.837 130.341,106.468 130.226,106.08C130.117,105.711 129.897,105.432 129.569,105.24C129.565,105.238 129.562,105.236 129.558,105.234C126.518,103.551 124.147,101.221 122.447,98.246C120.743,95.264 119.893,91.903 119.893,88.167L119.893,86.07C119.893,85.663 119.75,85.318 119.465,85.033C119.181,84.748 118.835,84.605 118.428,84.605L118.428,84.608L118.176,84.605ZM99.026,101.052C100.174,101.052 101.106,101.984 101.106,103.132C101.106,104.28 100.174,105.212 99.026,105.212C97.878,105.212 96.945,104.28 96.945,103.132C96.945,101.984 97.878,101.052 99.026,101.052ZM139.517,89.085L141.736,90.848C142.217,91.23 142.917,91.15 143.299,90.67C143.681,90.189 143.601,89.489 143.12,89.107L140.901,87.343C140.42,86.961 139.72,87.041 139.338,87.522C138.956,88.002 139.036,88.703 139.517,89.085ZM142.517,87.085L144.736,88.848C145.217,89.23 145.917,89.15 146.299,88.67C146.681,88.189 146.601,87.489 146.12,87.107L143.901,85.343C143.42,84.961 142.72,85.041 142.338,85.522C141.956,86.002 142.036,86.703 142.517,87.085Z"/>
    </g>
</svg>
