<?xml version="1.0" encoding="UTF-8" standalone="no"?>
<!DOCTYPE svg PUBLIC "-//W3C//DTD SVG 1.1//EN" "http://www.w3.org/Graphics/SVG/1.1/DTD/svg11.dtd">
<svg width="69px" height="99px" version="1.1" xmlns="http://www.w3.org/2000/svg" xmlns:xlink="http://www.w3.org/1999/xlink" xml:space="preserve" xmlns:serif="http://www.serif.com/" style="fill-rule:evenodd;clip-rule:evenodd;stroke-linejoin:round;stroke-miterlimit:2;">
    <g transform="matrix(0.628752,0,0,0.628752,-34.6629,-38.7479)">
        <path d="M127.34,104.036L115.085,76.673L103.476,102.379L88.048,115.799C84,123.568 69.758,140.019 80.338,153.83C83.722,156.935 85.735,160.207 84.724,163.302C79.037,170.999 78.455,178.908 84.724,186.393C92.092,195.191 135.356,196.048 142.485,186.393C148.284,178.539 148.172,170.999 142.485,163.302C141.966,159.387 143.317,156.58 146.871,153.83C156.366,145.762 146.453,126.797 141.089,116.291L127.34,104.036ZM115.085,70.883C116.501,70.883 117.65,72.033 117.65,73.449C117.65,74.864 116.501,76.014 115.085,76.014C113.669,76.014 112.52,74.864 112.52,73.449C112.52,72.033 113.669,70.883 115.085,70.883Z" style="fill:white;"/>
    </g>
    <g transform="matrix(0.628752,0,0,0.628752,-34.6629,-38.7479)">
        <path d="M100.261,218.538L100.399,218.377C100.602,218.07 100.697,217.723 100.677,217.333C100.656,216.93 100.522,216.603 100.291,216.344C97.456,212.971 94.679,210.031 91.964,207.526C91.268,206.86 90.822,206.403 90.631,206.151C90.51,205.99 90.444,205.82 90.444,205.636C90.444,205.425 90.514,205.234 90.652,205.064C90.863,204.801 91.375,204.31 92.181,203.586C94.468,201.555 96.948,199.078 99.622,196.155C99.624,196.153 99.625,196.151 99.627,196.15C99.85,195.899 99.994,195.571 100.034,195.154C100.074,194.743 99.99,194.387 99.796,194.083L99.717,193.943C99.472,193.574 99.155,193.391 98.788,193.357C98.417,193.323 98.077,193.445 97.781,193.749C97.778,193.753 97.775,193.756 97.772,193.759C95.329,196.391 92.88,198.825 90.424,201.062C89.163,202.2 88.377,203.01 88.055,203.481C87.691,204.013 87.493,204.728 87.493,205.636C87.493,206.502 87.682,207.193 88.031,207.715C88.339,208.177 89.076,208.963 90.253,210.064L90.252,210.063C92.853,212.501 95.542,215.341 98.321,218.584C98.609,218.967 98.959,219.112 99.346,219.076C99.692,219.045 100.004,218.877 100.261,218.538ZM99.534,218.453C99.599,218.522 99.682,218.573 99.772,218.6L99.833,218.739C99.653,218.739 99.486,218.652 99.383,218.509C99.435,218.497 99.485,218.478 99.534,218.453ZM99.486,194.892C99.621,194.849 99.736,194.755 99.805,194.626C99.861,194.523 99.881,194.406 99.867,194.294C99.893,194.561 99.654,194.744 99.482,194.84C99.484,194.857 99.485,194.875 99.486,194.892ZM83.607,162.477C80.567,166.591 78.993,170.718 78.95,174.833C78.907,178.967 80.403,183.114 83.629,187.248C84.101,187.852 84.974,187.96 85.579,187.488C86.183,187.017 86.291,186.143 85.819,185.539C83.039,181.976 81.691,178.425 81.728,174.862C81.765,171.28 83.194,167.71 85.841,164.127C86.297,163.511 86.166,162.64 85.549,162.185C84.933,161.729 84.063,161.86 83.607,162.477ZM141.368,164.127C144.014,167.71 145.444,171.28 145.481,174.862C145.518,178.425 144.17,181.976 141.39,185.539C140.918,186.143 141.026,187.017 141.63,187.488C142.234,187.96 143.108,187.852 143.58,187.248C146.806,183.114 148.301,178.967 148.259,174.833C148.216,170.718 146.642,166.591 143.602,162.477C143.146,161.86 142.276,161.729 141.659,162.185C141.043,162.64 140.912,163.511 141.368,164.127ZM120.983,170.721C120.867,170.92 120.312,171.828 119.316,173.447C118.203,175.255 117.314,176.673 116.649,177.698C116.444,178.012 116.354,178.384 116.4,178.815C116.446,179.246 116.605,179.585 116.857,179.843L117.255,180.01L116.865,179.851L116.991,179.976C117.313,180.278 117.683,180.39 118.099,180.323C118.5,180.259 118.824,180.042 119.057,179.653C120.619,177.214 122.118,174.775 123.546,172.346L123.848,171.824C124.505,170.733 124.994,169.953 125.316,169.484C125.44,169.302 125.609,169.121 125.688,169.038C125.708,169.052 125.729,169.07 125.754,169.087C125.891,169.182 126.039,169.328 126.204,169.519C126.603,169.979 127.353,170.957 128.456,172.453C131.515,176.572 134.091,179.952 136.187,182.593L136.187,182.594C136.456,182.93 136.799,183.094 137.215,183.094C137.63,183.094 137.974,182.93 138.242,182.595L138.4,182.397L137.97,182.6L138.404,182.391C138.657,182.075 138.781,181.704 138.77,181.273C138.759,180.854 138.627,180.492 138.381,180.185C136.154,177.359 133.6,174.008 130.721,170.133L130.72,170.133C129.19,168.08 128.178,166.814 127.689,166.331C127.097,165.745 126.408,165.457 125.625,165.457C124.873,165.457 124.213,165.782 123.659,166.462C123.218,167.005 122.331,168.409 121.006,170.679L120.986,170.715L120.983,170.721ZM137.625,182.419L137.623,182.42L137.808,182.804L137.625,182.419ZM137.803,182.253L137.802,182.255L137.97,182.6L137.803,182.253ZM145.753,131.564C148.4,135.146 149.83,138.716 149.867,142.299C149.904,145.862 148.556,149.412 145.776,152.975C145.304,153.58 145.412,154.453 146.016,154.925C146.62,155.396 147.494,155.289 147.965,154.684C151.192,150.55 152.687,146.404 152.644,142.27C152.602,138.155 151.028,134.028 147.988,129.913C147.532,129.297 146.662,129.166 146.045,129.621C145.429,130.077 145.298,130.947 145.753,131.564ZM79.221,129.913C76.181,134.028 74.607,138.155 74.564,142.27C74.521,146.404 76.017,150.55 79.243,154.684C79.715,155.289 80.588,155.396 81.193,154.925C81.797,154.453 81.905,153.58 81.433,152.975C78.653,149.412 77.305,145.862 77.342,142.299C77.379,138.716 78.809,135.146 81.455,131.564C81.911,130.947 81.78,130.077 81.164,129.621C80.547,129.166 79.677,129.297 79.221,129.913ZM162.088,132.998C162.195,140.908 160.386,145.79 154.239,150.291C153.621,150.744 153.486,151.614 153.939,152.232C154.392,152.851 155.262,152.985 155.88,152.532C162.851,147.428 164.986,141.931 164.866,132.961C164.855,132.194 164.225,131.58 163.458,131.59C162.692,131.601 162.078,132.231 162.088,132.998ZM108.972,137.007L98.565,137.007C98.565,137.007 97.005,134.167 96.122,132.559C95.744,131.97 94.988,131.754 94.356,132.053C94.337,132.046 94.324,132.052 94.311,132.058C93.971,132.22 93.709,132.511 93.586,132.867C93.463,133.223 93.487,133.614 93.655,133.951C95.781,138.236 102.514,151.806 102.514,151.806C102.744,152.291 103.232,152.6 103.768,152.6C104.305,152.6 104.793,152.291 105.023,151.806L113.496,133.953C113.824,133.26 113.529,132.431 112.837,132.103C112.144,131.774 111.315,132.069 110.986,132.762L108.972,137.007ZM55.745,138.457C59.759,141.15 64.46,145.233 67.049,148.031C67.57,148.594 68.449,148.628 69.012,148.107C69.575,147.587 69.609,146.707 69.088,146.145C66.386,143.224 61.482,138.961 57.292,136.15C56.656,135.723 55.792,135.893 55.365,136.529C54.938,137.166 55.108,138.03 55.745,138.457ZM107.654,139.785L103.768,147.971L99.883,139.785L107.654,139.785ZM86.663,127.233C84.613,127.233 82.949,128.898 82.949,130.948C82.949,132.998 84.613,134.662 86.663,134.662C88.713,134.662 90.378,132.998 90.378,130.948C90.378,128.898 88.713,127.233 86.663,127.233ZM120.955,127.233C118.905,127.233 117.24,128.898 117.24,130.948C117.24,132.998 118.905,134.662 120.955,134.662C123.005,134.662 124.669,132.998 124.669,130.948C124.669,128.898 123.005,127.233 120.955,127.233ZM86.663,129.532C87.445,129.532 88.08,130.166 88.08,130.948C88.08,131.73 87.445,132.364 86.663,132.364C85.882,132.364 85.247,131.73 85.247,130.948C85.247,130.166 85.882,129.532 86.663,129.532ZM120.955,129.532C121.736,129.532 122.371,130.166 122.371,130.948C122.371,131.73 121.736,132.364 120.955,132.364C120.173,132.364 119.539,131.73 119.539,130.948C119.539,130.166 120.173,129.532 120.955,129.532ZM105.991,98.35L83.042,118.553C82.467,119.059 82.411,119.938 82.918,120.513C83.424,121.088 84.303,121.144 84.878,120.638L107.826,100.435C108.402,99.928 108.457,99.05 107.951,98.474C107.444,97.899 106.566,97.843 105.991,98.35ZM121.113,100.435L144.062,120.638C144.637,121.144 145.515,121.088 146.022,120.513C146.528,119.938 146.472,119.059 145.897,118.553L122.949,98.35C122.373,97.843 121.495,97.899 120.989,98.474C120.482,99.05 120.538,99.928 121.113,100.435ZM113.471,76.795L105.7,92.337C105.357,93.023 105.635,93.857 106.321,94.2C107.008,94.543 107.842,94.265 108.185,93.579L110.099,89.751L120.071,89.751L121.985,93.579C122.328,94.265 123.163,94.543 123.848,94.2C124.534,93.857 124.812,93.022 124.47,92.337L116.698,76.795C117.941,76.194 118.799,74.92 118.799,73.449C118.799,71.398 117.135,69.734 115.085,69.734C113.035,69.734 111.371,71.398 111.371,73.449C111.371,74.92 112.229,76.194 113.471,76.795ZM111.488,86.973L115.085,79.779L118.682,86.973L111.488,86.973ZM115.085,72.032C115.867,72.032 116.501,72.667 116.501,73.449C116.501,74.23 115.867,74.865 115.085,74.865C114.303,74.865 113.669,74.23 113.669,73.449C113.669,72.667 114.303,72.032 115.085,72.032Z" style="fill-rule:nonzero;"/>
    </g>
</svg>
