<?xml version="1.0" encoding="UTF-8" standalone="no"?>
<!DOCTYPE svg PUBLIC "-//W3C//DTD SVG 1.1//EN" "http://www.w3.org/Graphics/SVG/1.1/DTD/svg11.dtd">
<svg width="57px" height="93px" version="1.1" xmlns="http://www.w3.org/2000/svg" xmlns:xlink="http://www.w3.org/1999/xlink" xml:space="preserve" xmlns:serif="http://www.serif.com/" style="fill-rule:evenodd;clip-rule:evenodd;stroke-linejoin:round;stroke-miterlimit:2;">
    <g transform="matrix(0.608365,0,0,0.608365,-38.58,-39.9929)">
        <path d="M149.339,104.046L140.22,114.749C139.838,115.198 139.795,115.843 140.113,116.338C143.91,122.374 145.735,131.557 141.541,137.286C137.874,141.984 136.949,145.539 139.173,148.369C143.33,154.365 143.26,160.61 138.87,166.606C137.439,167.887 135.94,168.757 134.366,169.176L134.366,190.591C137.508,192.245 140.083,194.525 142.076,197.444C146.232,203.44 146.466,209.436 142.076,215.432L137.793,217.145L116.378,217.145C113.716,217.514 109.509,214.245 110,210.807C108.392,214.858 106.357,217.712 103.1,217.145L75.261,217.145L70.978,215.432C66.587,209.436 66.5,203.44 70.656,197.444C71.931,195.521 74.042,193.447 76.679,191.201L76.152,170.378C76.211,165.071 75.668,160.409 74.431,157.362C74.11,156.571 73.821,156.102 73.511,155.646C73.365,155.457 73.122,155.371 72.89,155.426C72.658,155.481 72.48,155.667 72.435,155.901C71.967,157.104 70.51,158.181 69.443,158.53C69.443,158.53 71.646,160.255 71.764,161.153C71.821,161.586 71.74,162.121 71.539,162.666C73.94,164.25 74.138,169.385 71.786,172.788L72.038,185.932C72.068,187.815 70.565,189.369 68.682,189.4C66.799,189.431 65.245,187.927 65.214,186.044C65.086,182.008 65.798,172.788 65.798,172.788C63.511,170.761 63.242,166.641 64.434,163.928C63.01,161.867 63.074,159.993 64.662,158.308C64.662,158.308 64.038,156.786 64.084,155.992C64.131,155.18 64.945,153.434 64.945,153.434C64.945,153.434 64.285,152.145 64.084,151.464C63.722,150.235 63.882,148.408 65.52,147.66C63.732,145.067 64.18,141.048 66.931,138.979L66.931,119.085C66.931,119.085 66.541,116.037 66.578,113.483C66.601,111.828 67.017,110.014 67.619,108.716L66.502,110.345C66.164,110.838 65.543,111.052 64.973,110.871C64.404,110.691 64.019,110.159 64.027,109.562L64.19,96.206C64.196,95.719 64.522,95.295 64.99,95.163C65.459,95.032 65.958,95.224 66.216,95.637C68.266,98.906 71.17,103.539 71.17,103.539L69.322,106.233C72.544,101.89 76.975,95.25 76.975,95.25C78.594,92.099 79.748,89.465 80.704,87.05L88.562,71.788L96.041,87.05C97.187,88.188 98.821,88.757 101.045,88.639L121.82,88.639C123.445,88.766 124.87,88.36 125.956,87.05L133.435,71.788L141.155,87.4L144.636,95.664L149.664,102.575L154.891,96.257C155.228,95.85 155.782,95.699 156.278,95.877C156.775,96.056 157.105,96.526 157.105,97.054C157.105,100.466 156.988,105.787 156.988,109.21C156.988,109.77 156.644,110.273 156.121,110.475C155.599,110.677 155.006,110.538 154.629,110.124L149.339,104.046Z" style="fill:white;"/>
    </g>
    <g transform="matrix(0.608365,0,0,0.608365,-38.58,-39.9929)">
        <path d="M103.101,215.684L75.261,215.684C74.454,215.684 73.799,216.339 73.799,217.146C73.799,217.952 74.454,218.607 75.261,218.607L103.101,218.607C103.907,218.607 104.562,217.952 104.562,217.146C104.562,216.339 103.907,215.684 103.101,215.684ZM116.378,218.606L137.793,218.606C138.599,218.606 139.253,217.951 139.253,217.145C139.253,216.339 138.599,215.684 137.793,215.684L116.378,215.684C115.572,215.684 114.917,216.339 114.917,217.145C114.917,217.951 115.572,218.606 116.378,218.606ZM69.777,196.612C65.23,203.173 64.996,209.734 69.799,216.295C70.276,216.945 71.19,217.087 71.841,216.611C72.491,216.134 72.632,215.22 72.156,214.569C68.18,209.138 68.413,203.707 72.178,198.276C72.637,197.613 72.472,196.702 71.81,196.243C71.147,195.784 70.237,195.949 69.777,196.612ZM140.875,198.276C144.64,203.707 144.874,209.138 140.897,214.569C140.421,215.22 140.563,216.134 141.213,216.611C141.863,217.087 142.778,216.945 143.254,216.295C148.058,209.734 147.824,203.173 143.276,196.612C142.817,195.949 141.906,195.784 141.244,196.243C140.581,196.702 140.416,197.613 140.875,198.276ZM105.975,198.276C109.74,203.707 109.974,209.138 105.997,214.569C105.521,215.22 105.663,216.134 106.313,216.611C106.963,217.087 107.878,216.945 108.354,216.295C113.158,209.734 112.924,203.173 108.376,196.612C107.917,195.949 107.006,195.784 106.344,196.243C105.681,196.702 105.516,197.613 105.975,198.276ZM75.216,170.378L75.216,191.201C75.216,192.008 75.872,192.664 76.679,192.664C77.487,192.664 78.143,192.008 78.143,191.201L78.143,170.378C78.143,169.571 77.487,168.915 76.679,168.915C75.872,168.915 75.216,169.571 75.216,170.378ZM132.906,169.176L132.906,190.591C132.906,191.397 133.56,192.051 134.366,192.051C135.172,192.051 135.827,191.397 135.827,190.591L135.827,169.176C135.827,168.37 135.172,167.715 134.366,167.715C133.56,167.715 132.906,168.37 132.906,169.176ZM64.374,187.755L64.374,188.541C64.374,189.348 65.03,190.003 65.837,190.003C66.644,190.003 67.299,189.348 67.299,188.541L67.299,187.755C67.299,186.948 66.644,186.293 65.837,186.293C65.03,186.293 64.374,186.948 64.374,187.755ZM69.649,187.755L69.649,188.541C69.649,189.348 70.304,190.003 71.111,190.003C71.919,190.003 72.574,189.348 72.574,188.541L72.574,187.755C72.574,186.948 71.919,186.293 71.111,186.293C70.304,186.293 69.649,186.948 69.649,187.755ZM107.197,182.4L107.197,187.902C107.197,188.339 107.325,188.659 107.524,188.877C107.739,189.114 108.052,189.26 108.482,189.26C108.913,189.26 109.225,189.114 109.441,188.877C109.64,188.659 109.768,188.339 109.768,187.902L109.768,182.4L115.343,175.181C115.351,175.17 115.358,175.16 115.366,175.149C115.594,174.807 115.677,174.487 115.658,174.202C115.637,173.88 115.492,173.582 115.192,173.325C115.179,173.314 115.167,173.304 115.153,173.294C114.851,173.078 114.544,173.007 114.241,173.051C113.969,173.089 113.688,173.228 113.416,173.5C113.398,173.518 113.381,173.538 113.365,173.558L108.482,180.046L103.6,173.558C103.584,173.538 103.567,173.518 103.549,173.5C103.277,173.228 102.996,173.089 102.724,173.051C102.421,173.007 102.114,173.078 101.812,173.294C101.798,173.304 101.785,173.314 101.773,173.325C101.473,173.582 101.328,173.88 101.306,174.202C101.287,174.487 101.371,174.807 101.599,175.149C101.606,175.16 101.614,175.17 101.622,175.181L107.197,182.4ZM69.651,173.425L69.651,183.167C69.651,183.974 70.305,184.628 71.111,184.628C71.918,184.628 72.572,183.974 72.572,183.167L72.572,173.425C72.572,172.618 71.918,171.964 71.111,171.964C70.305,171.964 69.651,172.618 69.651,173.425ZM64.376,173.425L64.376,183.167C64.376,183.974 65.03,184.628 65.837,184.628C66.643,184.628 67.298,183.974 67.298,183.167L67.298,173.425C67.298,172.618 66.643,171.964 65.837,171.964C65.03,171.964 64.376,172.618 64.376,173.425ZM137.669,149.45C141.434,154.881 141.668,160.312 137.691,165.743C137.215,166.394 137.357,167.308 138.007,167.785C138.657,168.261 139.572,168.119 140.048,167.469C144.852,160.908 144.618,154.347 140.07,147.785C139.611,147.123 138.7,146.958 138.038,147.417C137.375,147.876 137.21,148.787 137.669,149.45ZM81.367,162.748C81.919,163.544 81.971,164.34 81.388,165.137C80.935,165.755 81.069,166.625 81.688,167.077C82.306,167.53 83.176,167.396 83.628,166.777C84.998,164.907 84.946,163.036 83.649,161.166C83.213,160.536 82.347,160.379 81.717,160.816C81.087,161.252 80.93,162.118 81.367,162.748ZM64.549,153.276C63.874,153.994 63.528,154.911 63.528,156.031C63.528,157.202 63.895,158.14 64.593,158.857L64.593,158.858C65.233,159.514 66.27,160.039 67.732,160.367C67.734,160.368 67.737,160.368 67.739,160.369C68.363,160.503 68.813,160.659 69.055,160.918C69.058,160.921 69.061,160.924 69.064,160.927C69.255,161.125 69.325,161.39 69.325,161.706C69.325,162.038 69.22,162.31 68.988,162.512C68.708,162.756 68.321,162.85 67.835,162.85C67.171,162.85 66.499,162.685 65.818,162.366C65.817,162.366 65.816,162.366 65.816,162.365C65.447,162.194 65.078,162.192 64.71,162.361C64.336,162.526 64.092,162.807 63.966,163.233C63.965,163.238 63.963,163.244 63.962,163.249C63.864,163.608 63.893,163.961 64.031,164.307C64.191,164.711 64.455,164.977 64.82,165.127C65.811,165.581 66.86,165.81 67.964,165.81C69.236,165.81 70.272,165.417 71.072,164.665C71.893,163.891 72.311,162.908 72.311,161.706C72.311,160.599 71.994,159.702 71.387,159.007C72.056,158.29 72.4,157.377 72.4,156.263C72.4,155.09 72.032,154.153 71.335,153.436C70.696,152.779 69.661,152.256 68.201,151.927C67.577,151.781 67.122,151.614 66.866,151.358C66.68,151.161 66.603,150.901 66.603,150.587C66.603,150.255 66.708,149.983 66.94,149.781C67.219,149.538 67.605,149.443 68.082,149.443L68.096,149.443C68.765,149.432 69.434,149.586 70.096,149.896C70.504,150.103 70.877,150.101 71.25,149.926C71.608,149.758 71.873,149.463 71.979,149.03C72.077,148.663 72.052,148.302 71.891,147.948C71.716,147.561 71.458,147.31 71.108,147.166C70.116,146.712 69.056,146.482 67.964,146.482C66.676,146.482 65.651,146.878 64.861,147.632C64.055,148.403 63.637,149.384 63.636,150.584C63.628,151.686 63.939,152.581 64.549,153.276ZM70.758,159.556L70.765,159.551C70.763,159.553 70.761,159.555 70.759,159.557L70.758,159.556ZM69.314,157.709C69.321,157.712 69.328,157.715 69.335,157.719C69.343,157.722 69.35,157.726 69.357,157.73L69.314,157.709ZM66.942,154.694C67.138,154.754 67.378,154.817 67.664,154.883C68.396,155.056 68.925,155.259 69.233,155.553C69.461,155.783 69.552,156.095 69.552,156.476L69.552,156.493C69.562,156.982 69.378,157.349 69.009,157.594C68.803,157.526 68.552,157.457 68.258,157.389L68.255,157.389C67.53,157.225 67.001,157.027 66.697,156.732C66.466,156.507 66.366,156.197 66.366,155.817C66.366,155.317 66.557,154.942 66.942,154.694ZM65.468,119.085L65.468,138.979C65.468,139.787 66.124,140.443 66.931,140.443C67.739,140.443 68.395,139.787 68.395,138.979L68.395,119.085C68.395,118.277 67.739,117.621 66.931,117.621C66.124,117.621 65.468,118.277 65.468,119.085ZM139.954,120.129C143.719,125.561 143.953,130.992 139.976,136.423C139.5,137.074 139.642,137.988 140.292,138.464C140.942,138.941 141.857,138.799 142.333,138.149C147.137,131.588 146.903,125.026 142.355,118.465C141.896,117.803 140.985,117.638 140.323,118.097C139.66,118.556 139.495,119.467 139.954,120.129ZM121.106,125.242L112.925,125.242L111.349,121.923C111.003,121.193 110.131,120.882 109.401,121.229C108.672,121.575 108.361,122.447 108.707,123.177L115.694,137.899C115.936,138.41 116.451,138.735 117.015,138.735C117.58,138.735 118.094,138.41 118.336,137.899L125.323,123.177C125.669,122.447 125.358,121.575 124.629,121.229C123.9,120.883 123.027,121.194 122.681,121.923L121.106,125.242ZM81.973,122.357C81.381,128.342 79.654,131.96 74.785,135.105C74.141,135.521 73.956,136.382 74.372,137.027C74.788,137.671 75.649,137.856 76.293,137.44C81.965,133.776 84.05,129.602 84.739,122.631C84.814,121.867 84.256,121.186 83.492,121.111C82.729,121.036 82.048,121.594 81.973,122.357ZM119.718,128.166L114.313,128.166L117.015,133.862L119.718,128.166ZM102.807,121.327L99.761,118.117C99.484,117.826 99.101,117.661 98.699,117.661C98.298,117.661 97.914,117.826 97.637,118.117L94.59,121.327C94.034,121.913 94.058,122.84 94.644,123.396C95.229,123.953 96.157,123.929 96.713,123.343L98.699,121.251L100.684,123.342C101.24,123.928 102.167,123.953 102.753,123.396C103.339,122.84 103.364,121.913 102.807,121.327ZM137.995,121.327L134.949,118.117C134.672,117.826 134.289,117.661 133.887,117.661C133.486,117.661 133.102,117.826 132.825,118.117L129.778,121.327C129.222,121.913 129.246,122.84 129.832,123.396C130.417,123.953 131.345,123.929 131.901,123.343L133.887,121.251L135.872,123.342C136.428,123.928 137.355,123.953 137.941,123.396C138.527,122.84 138.552,121.913 137.995,121.327ZM72.461,116.85C70.871,116.85 69.58,118.141 69.58,119.731C69.58,121.322 70.871,122.613 72.461,122.613C74.052,122.613 75.343,121.322 75.343,119.731C75.343,118.141 74.052,116.85 72.461,116.85ZM72.461,119.073C72.825,119.073 73.12,119.368 73.12,119.731C73.12,120.095 72.825,120.39 72.461,120.39C72.098,120.39 71.803,120.095 71.803,119.731C71.803,119.368 72.098,119.073 72.461,119.073ZM95.11,97.079C94.518,103.063 92.791,106.681 87.922,109.827C87.278,110.243 87.093,111.104 87.509,111.748C87.925,112.393 88.786,112.578 89.43,112.162C95.102,108.497 97.187,104.324 97.876,97.352C97.951,96.589 97.393,95.908 96.629,95.833C95.866,95.757 95.185,96.316 95.11,97.079ZM116.96,98.643C117.268,98.565 117.572,98.601 117.87,98.754C118.156,98.9 118.391,99.143 118.539,99.51C118.542,99.517 118.545,99.525 118.548,99.532C119.722,102.7 120.737,106.192 121.591,109.999C121.679,110.357 121.633,110.696 121.456,111.015L121.456,111.016C121.266,111.356 120.992,111.564 120.642,111.654L120.254,111.732L120.454,111.708C120.093,111.797 119.742,111.739 119.407,111.501C119.125,111.301 118.937,111.029 118.851,110.679C118.849,110.672 118.847,110.665 118.846,110.658C118.016,106.895 117.053,103.497 115.956,100.464C115.953,100.458 115.951,100.451 115.949,100.445C115.84,100.118 115.849,99.792 115.979,99.465C116.124,99.105 116.361,98.876 116.665,98.751C116.753,98.697 116.853,98.659 116.96,98.643ZM109.1,111.353L109.082,111.343C108.779,111.176 108.558,110.909 108.452,110.516C108.357,110.165 108.388,109.833 108.535,109.52C109.94,106.494 110.844,103.28 111.248,99.88L111.248,99.875C111.29,99.541 111.43,99.254 111.668,99.015C111.942,98.741 112.268,98.614 112.645,98.631L112.857,98.653C113.198,98.69 113.506,98.855 113.751,99.194C113.97,99.497 114.054,99.827 114.012,100.181C113.596,103.938 112.611,107.483 111.06,110.815C111.059,110.815 111.059,110.815 111.059,110.816C110.889,111.18 110.617,111.412 110.252,111.524L110.251,111.524C109.952,111.616 109.669,111.608 109.403,111.507C109.293,111.473 109.191,111.42 109.1,111.353ZM71.085,100.854L66.665,95.417C66.156,94.791 65.235,94.696 64.61,95.205C63.984,95.713 63.889,96.634 64.397,97.26L69.202,103.17L64.406,109.07C63.898,109.695 63.993,110.616 64.618,111.125C65.244,111.634 66.165,111.539 66.674,110.913L71.085,105.486L75.496,110.913C76.005,111.539 76.926,111.634 77.552,111.125C78.177,110.616 78.272,109.695 77.764,109.07L72.968,103.17L77.773,97.26C78.281,96.634 78.186,95.713 77.56,95.205C76.935,94.696 76.014,94.791 75.505,95.417L71.085,100.854ZM150.095,100.854L145.675,95.417C145.166,94.791 144.245,94.696 143.62,95.205C142.994,95.713 142.899,96.634 143.407,97.26L148.212,103.17L143.416,109.07C142.908,109.695 143.003,110.616 143.628,111.125C144.254,111.634 145.175,111.539 145.684,110.913L150.095,105.486L154.506,110.913C155.015,111.539 155.936,111.634 156.562,111.125C157.187,110.616 157.282,109.695 156.774,109.07L151.978,103.17L156.783,97.26C157.291,96.634 157.196,95.713 156.57,95.205C155.945,94.696 155.024,94.791 154.515,95.417L150.095,100.854ZM123.484,106.507C123.337,106.28 123.241,106 123.221,105.661C123.2,105.311 123.271,105.01 123.402,104.766C123.988,103.635 124.56,102.487 125.118,101.321C125.119,101.32 125.119,101.32 125.119,101.319C125.737,100.038 126.17,99.241 126.404,98.921C126.8,98.379 127.31,98.126 127.914,98.126C128.476,98.126 128.963,98.349 129.363,98.822L129.363,98.823C129.598,99.101 130.111,99.863 130.896,101.113C130.896,101.114 130.897,101.115 130.898,101.116C132.093,103.04 133.212,104.782 134.254,106.34C134.256,106.343 134.257,106.345 134.259,106.348C134.404,106.57 134.503,106.849 134.529,107.193C134.557,107.557 134.487,107.865 134.348,108.123L134.256,108.279C134.038,108.664 133.736,108.843 133.416,108.897L133.414,108.897C132.993,108.967 132.587,108.842 132.303,108.344C131.264,106.789 130.053,104.905 128.671,102.691C128.671,102.69 128.67,102.689 128.669,102.688C128.349,102.169 128.104,101.78 127.931,101.524C127.786,101.798 127.587,102.206 127.329,102.749C127.329,102.751 127.328,102.752 127.327,102.754C126.53,104.409 125.924,105.647 125.508,106.468C125.505,106.475 125.501,106.481 125.498,106.487C125.257,106.936 124.91,107.108 124.547,107.128C124.187,107.149 123.853,107.025 123.596,106.669C123.551,106.621 123.513,106.567 123.484,106.507ZM124.159,106.876L124.157,106.876L124.185,106.89L124.159,106.876ZM113.102,98.723C113.078,98.712 113.054,98.703 113.029,98.694C113.047,98.701 113.064,98.708 113.08,98.716C113.087,98.718 113.095,98.721 113.102,98.723ZM112.857,98.653L112.902,98.66C112.887,98.657 112.872,98.655 112.857,98.653ZM72.953,85.576C73.505,86.373 73.557,87.169 72.974,87.965C72.522,88.583 72.656,89.453 73.274,89.906C73.893,90.358 74.762,90.224 75.215,89.606C76.584,87.735 76.532,85.865 75.236,83.994C74.799,83.364 73.933,83.207 73.304,83.644C72.674,84.081 72.517,84.946 72.953,85.576ZM101.045,90.101L121.82,90.101C122.627,90.101 123.282,89.446 123.282,88.639C123.282,87.831 122.627,87.176 121.82,87.176L101.045,87.176C100.238,87.176 99.582,87.831 99.582,88.639C99.582,89.446 100.238,90.101 101.045,90.101ZM127.269,87.694L133.435,75.112L139.6,87.694C139.955,88.419 140.832,88.719 141.557,88.364C142.282,88.008 142.582,87.131 142.227,86.406L134.748,71.144C134.503,70.643 133.993,70.325 133.435,70.325C132.876,70.325 132.367,70.643 132.121,71.144L124.642,86.406C124.287,87.131 124.587,88.008 125.312,88.364C126.037,88.719 126.914,88.419 127.269,87.694ZM82.397,87.694L88.562,75.112L94.727,87.694C95.082,88.419 95.959,88.719 96.684,88.364C97.409,88.008 97.71,87.131 97.354,86.406L89.875,71.144C89.63,70.643 89.12,70.325 88.562,70.325C88.004,70.325 87.494,70.643 87.248,71.144L79.769,86.406C79.414,87.131 79.714,88.008 80.439,88.364C81.164,88.719 82.041,88.419 82.397,87.694Z"/>
    </g>
</svg>
