<?xml version="1.0" encoding="UTF-8" standalone="no"?>
<!DOCTYPE svg PUBLIC "-//W3C//DTD SVG 1.1//EN" "http://www.w3.org/Graphics/SVG/1.1/DTD/svg11.dtd">
<svg width="54px" height="117px" version="1.1" xmlns="http://www.w3.org/2000/svg" xmlns:xlink="http://www.w3.org/1999/xlink" xml:space="preserve" xmlns:serif="http://www.serif.com/" style="fill-rule:evenodd;clip-rule:evenodd;stroke-linejoin:round;stroke-miterlimit:2;">
    <g transform="matrix(0.61166,0,0,0.61166,-40.2819,-16.6424)">
        <path d="M83.847,43.777L83.664,43.777L83.664,32.139L119.177,32.139L119.177,43.777L118.786,43.777C119.525,47.796 126.864,49.808 131.079,55.724L131.049,55.724C134.339,60.679 134.17,65.634 129.987,70.589C128.569,72.044 125.967,73.961 123.265,75.814C122.643,76.285 122.401,77.107 122.667,77.84C122.933,78.574 123.646,79.048 124.425,79.011C127.013,79.048 129.72,79.539 132.484,80.093C134.997,80.582 136.736,82.89 136.511,85.44C136.036,90.574 135.311,98.542 135.211,100.39L135.211,121.178C135.807,123.799 136.1,126.648 136.178,129.491L136.178,137.031C136.178,140.39 134.568,143.114 131.93,143.114L131.929,143.114C129.443,143.114 126.428,140.286 126.636,137.127C126.778,134.982 126.567,129.491 126.567,129.491C126.567,129.491 126.568,126.943 126.569,125.088C126.57,124.584 126.37,124.101 126.014,123.745C125.658,123.389 125.175,123.189 124.671,123.189L124.67,123.189C123.611,123.189 122.747,124.035 122.725,125.094C122.594,131.236 122.192,150.128 122.192,150.128L144.504,150.128L148.8,151.018L153.03,151.018L153.03,170.443L148.8,170.443L144.504,175.011L122.192,175.011L122.192,195.799C125.946,196.714 128.748,198.582 130.936,201.063C134.616,205.667 134.991,210.636 132.234,215.353C131.354,216.893 129.718,217.845 127.944,217.849C118.977,217.916 88.318,217.989 79.325,218.01C77.533,218.015 75.876,217.06 74.981,215.508C72.227,210.737 72.508,205.671 76.191,201.063C77.831,199.364 79.619,197.629 81.783,195.799L82.042,149.516L82.042,125.653C82.042,125.065 81.804,124.501 81.383,124.089C80.961,123.678 80.392,123.454 79.803,123.468L79.802,123.468C78.539,123.499 77.529,124.529 77.523,125.792C77.506,129.046 77.479,134.925 77.479,137.482C77.479,140.841 74.407,143.114 71.769,143.114L71.768,143.114C69.282,143.114 66.772,140.548 66.772,137.383C66.772,133.658 66.97,121.178 66.97,121.178L66.97,83.497C66.969,82.436 67.587,81.472 68.55,81.029C71.069,79.91 76.275,78.041 81.892,78.707C82.61,78.791 83.307,78.428 83.649,77.791C83.991,77.154 83.909,76.373 83.442,75.821C81.614,73.622 79.762,71.43 79.762,71.43C75.17,65.991 75.415,60.552 79.762,55.113C82.459,51.442 83.965,47.643 83.847,43.777Z" style="fill:white;"/>
    </g>
    <g transform="matrix(0.61166,0,0,0.61166,-40.2819,-16.6424)">
        <path d="M101.393,201.757C103.388,204.254 104.473,206.738 104.501,209.234C104.529,211.715 103.506,214.183 101.412,216.664C101.016,217.132 101.075,217.834 101.544,218.229C102.013,218.625 102.714,218.566 103.11,218.097C105.607,215.139 106.756,212.168 106.723,209.209C106.69,206.267 105.48,203.312 103.129,200.37C102.746,199.891 102.046,199.813 101.567,200.195C101.088,200.578 101.01,201.278 101.393,201.757ZM130.069,201.757C132.064,204.254 133.149,206.738 133.177,209.234C133.205,211.715 132.182,214.183 130.088,216.664C129.692,217.132 129.751,217.834 130.22,218.229C130.689,218.625 131.39,218.566 131.786,218.097C134.283,215.139 135.432,212.168 135.399,209.209C135.366,206.267 134.156,203.312 131.805,200.37C131.422,199.891 130.722,199.813 130.243,200.195C129.764,200.578 129.686,201.278 130.069,201.757ZM75.323,200.37C72.972,203.312 71.762,206.267 71.729,209.209C71.695,212.168 72.845,215.139 75.342,218.097C75.737,218.566 76.439,218.625 76.908,218.229C77.376,217.834 77.435,217.132 77.04,216.664C74.946,214.183 73.923,211.715 73.95,209.234C73.978,206.738 75.064,204.254 77.059,201.757C77.442,201.278 77.364,200.578 76.884,200.195C76.405,199.813 75.706,199.891 75.323,200.37ZM110.144,216.81L126.695,216.81C127.049,216.81 127.352,216.678 127.6,216.406C127.834,216.15 127.951,215.849 127.951,215.503C127.951,215.138 127.822,214.841 127.575,214.605C127.333,214.375 127.04,214.257 126.695,214.257L110.144,214.257C109.798,214.257 109.506,214.375 109.264,214.605C109.017,214.841 108.888,215.138 108.888,215.503C108.888,215.849 109.004,216.15 109.238,216.406C109.487,216.678 109.789,216.81 110.144,216.81ZM80.495,216.81L97.046,216.81C97.401,216.81 97.704,216.678 97.952,216.406C98.186,216.15 98.303,215.849 98.303,215.503C98.303,215.138 98.174,214.841 97.926,214.605C97.685,214.375 97.392,214.257 97.046,214.257L80.495,214.257C80.15,214.257 79.857,214.375 79.615,214.605C79.368,214.841 79.239,215.138 79.239,215.503C79.239,215.849 79.356,216.15 79.59,216.406C79.838,216.678 80.141,216.81 80.495,216.81ZM82.513,201.477C82.162,201.477 81.862,201.605 81.616,201.863C81.376,202.114 81.257,202.411 81.257,202.754C81.257,203.096 81.376,203.393 81.616,203.644C81.862,203.902 82.162,204.03 82.513,204.03L95.029,204.03C95.406,204.03 95.709,203.894 95.945,203.635C96.171,203.386 96.285,203.093 96.285,202.754C96.285,202.411 96.166,202.114 95.926,201.863C95.68,201.605 95.38,201.477 95.029,201.477L82.513,201.477ZM112.162,201.477C111.81,201.477 111.51,201.605 111.264,201.863C111.025,202.114 110.906,202.411 110.906,202.754C110.906,203.096 111.025,203.393 111.264,203.644C111.51,203.902 111.81,204.03 112.162,204.03L124.677,204.03C125.054,204.03 125.358,203.894 125.593,203.635C125.819,203.386 125.933,203.093 125.933,202.754C125.933,202.411 125.814,202.114 125.575,201.863C125.328,201.605 125.029,201.477 124.677,201.477L112.162,201.477ZM80.671,175.011L80.671,195.799C80.671,196.413 81.17,196.911 81.783,196.911C82.397,196.911 82.895,196.413 82.895,195.799L82.895,175.011C82.895,174.397 82.397,173.899 81.783,173.899C81.17,173.899 80.671,174.397 80.671,175.011ZM101.491,175.011L101.491,195.799C101.491,196.413 101.99,196.911 102.603,196.911C103.217,196.911 103.715,196.413 103.715,195.799L103.715,175.011C103.715,174.397 103.217,173.899 102.603,173.899C101.99,173.899 101.491,174.397 101.491,175.011ZM121.079,175.011L121.079,195.799C121.079,196.413 121.578,196.911 122.191,196.911C122.805,196.911 123.303,196.413 123.303,195.799L123.303,175.011C123.303,174.397 122.805,173.899 122.191,173.899C121.578,173.899 121.079,174.397 121.079,175.011ZM144.503,173.899L126.358,173.899C125.745,173.899 125.247,174.397 125.247,175.01C125.247,175.624 125.745,176.121 126.358,176.121L144.503,176.121C145.116,176.121 145.614,175.624 145.614,175.01C145.614,174.397 145.116,173.899 144.503,173.899ZM148.804,152.648L151.922,152.648L151.922,169.334L148.804,169.334C148.192,169.334 147.695,169.831 147.695,170.443C147.695,171.055 148.192,171.552 148.804,171.552L153.032,171.552C153.644,171.552 154.141,171.056 154.141,170.443L154.141,151.539C154.141,150.926 153.644,150.43 153.032,150.43L148.804,150.43C148.192,150.43 147.695,150.927 147.695,151.539C147.695,152.151 148.192,152.648 148.804,152.648ZM121.079,149.36L121.079,170.148C121.079,170.762 121.578,171.26 122.191,171.26C122.805,171.26 123.303,170.762 123.303,170.148L123.303,149.36C123.303,148.746 122.805,148.248 122.191,148.248C121.578,148.248 121.079,148.746 121.079,149.36ZM80.671,149.36L80.671,170.148C80.671,170.762 81.17,171.26 81.783,171.26C82.397,171.26 82.895,170.762 82.895,170.148L82.895,149.36C82.895,148.746 82.397,148.248 81.783,148.248C81.17,148.248 80.671,148.746 80.671,149.36ZM101.491,149.36L101.491,170.148C101.491,170.762 101.99,171.26 102.603,171.26C103.217,171.26 103.715,170.762 103.715,170.148L103.715,149.36C103.715,148.746 103.217,148.248 102.603,148.248C101.99,148.248 101.491,148.746 101.491,149.36ZM144.503,149.016L126.358,149.016C125.745,149.016 125.247,149.514 125.247,150.127C125.247,150.741 125.745,151.238 126.358,151.238L144.503,151.238C145.116,151.238 145.614,150.741 145.614,150.127C145.614,149.514 145.116,149.016 144.503,149.016ZM121.079,125.575L121.079,145.697C121.079,146.311 121.577,146.81 122.191,146.81C122.805,146.81 123.304,146.311 123.304,145.697L123.304,125.575C123.304,124.961 122.805,124.462 122.191,124.462C121.577,124.462 121.079,124.961 121.079,125.575ZM140.89,136.713L148.77,136.713L148.77,145.544C148.77,146.157 149.267,146.654 149.88,146.654C150.493,146.654 150.99,146.157 150.99,145.544L150.99,135.603C150.99,134.99 150.493,134.493 149.88,134.493L140.89,134.493C140.277,134.493 139.78,134.99 139.78,135.603C139.78,136.216 140.277,136.713 140.89,136.713ZM71.626,144.222L71.917,144.222C75.023,144.125 77.655,141.005 77.655,137.032L77.655,129.491C77.655,128.879 77.158,128.382 76.545,128.382C75.933,128.382 75.436,128.879 75.436,129.491L75.436,137.032C75.436,139.716 73.876,142.005 71.768,142.005C69.812,142.005 68.376,139.874 68.376,137.384L68.376,129.491C68.376,128.879 67.879,128.382 67.267,128.382C66.655,128.382 66.157,128.879 66.157,129.491L66.157,137.384C66.157,141.166 68.669,144.13 71.626,144.222ZM131.788,144.222L132.079,144.222C135.185,144.125 137.817,141.005 137.817,137.032L137.817,129.491C137.817,128.879 137.32,128.382 136.707,128.382C136.095,128.382 135.598,128.879 135.598,129.491L135.598,137.032C135.598,139.716 134.038,142.005 131.93,142.005C129.974,142.005 128.538,139.874 128.538,137.384L128.538,129.491C128.538,128.879 128.041,128.382 127.429,128.382C126.817,128.382 126.319,128.879 126.319,129.491L126.319,137.384C126.319,141.166 128.831,144.13 131.788,144.222ZM82.968,128.121L82.751,128.122L82.751,128.121C82.479,128.121 82.259,128.212 82.088,128.39C81.919,128.566 81.833,128.78 81.833,129.032L81.833,143.086C81.833,143.34 81.927,143.557 82.115,143.735C82.3,143.91 82.519,143.997 82.771,143.997L82.774,143.997C89.493,143.905 93.988,141.072 96.268,135.513L96.268,135.512C96.371,135.258 96.364,135.016 96.252,134.787C96.142,134.56 95.976,134.406 95.756,134.322L95.659,134.284C95.403,134.182 95.165,134.187 94.943,134.288C94.72,134.39 94.566,134.552 94.481,134.773C92.636,139.263 89.102,141.687 83.886,142.049L83.886,129.032C83.886,128.779 83.797,128.563 83.617,128.386C83.439,128.209 83.223,128.121 82.968,128.121ZM103.429,134.023L103.42,134.034C103.325,134.146 102.852,134.67 102.003,135.608C101.059,136.652 100.305,137.469 99.741,138.061C99.575,138.233 99.51,138.437 99.547,138.673C99.583,138.899 99.696,139.08 99.891,139.215L100.01,139.252L99.895,139.218L100,139.289L99.996,139.287C100.193,139.412 100.419,139.464 100.674,139.436C100.932,139.407 101.136,139.305 101.287,139.135C102.616,137.725 103.885,136.32 105.096,134.921L105.351,134.62C105.912,133.988 106.329,133.536 106.602,133.265C106.727,133.141 106.838,133.047 106.936,132.985C107.003,132.943 107.057,132.915 107.105,132.915C107.297,132.915 107.532,133.043 107.824,133.272C108.163,133.539 108.803,134.106 109.743,134.972C112.334,137.344 114.517,139.29 116.292,140.812C116.46,140.954 116.671,141.03 116.93,141.03C117.19,141.03 117.401,140.954 117.568,140.812C117.558,140.821 117.547,140.828 117.536,140.835L117.706,140.695C117.906,140.525 117.996,140.323 117.987,140.091C117.978,139.866 117.881,139.669 117.687,139.504C115.797,137.875 113.631,135.942 111.188,133.708C109.902,132.535 109.052,131.811 108.641,131.534C108.2,131.238 107.689,131.088 107.105,131.088C106.555,131.088 106.077,131.259 105.671,131.598C105.299,131.908 104.554,132.712 103.439,134.011C103.435,134.015 103.432,134.019 103.429,134.023ZM117.374,140.697L117.373,140.698L117.433,140.862L117.374,140.697ZM117.512,140.585L117.511,140.587L117.571,140.745L117.512,140.585ZM100.248,139.181C100.264,139.187 100.281,139.193 100.298,139.198C100.265,139.271 100.191,139.319 100.109,139.319C100.109,139.319 100.192,139.259 100.248,139.181ZM95.862,134.619C95.873,134.6 95.881,134.578 95.886,134.555C95.904,134.456 95.849,134.359 95.756,134.322C95.885,134.374 95.857,134.484 95.801,134.576C95.822,134.59 95.843,134.604 95.862,134.619ZM121.079,100.39L121.079,121.178C121.079,121.792 121.578,122.29 122.191,122.29C122.805,122.29 123.303,121.792 123.303,121.178L123.303,100.39C123.303,99.776 122.805,99.278 122.191,99.278C121.578,99.278 121.079,99.776 121.079,100.39ZM133.072,100.39L133.072,121.178C133.072,121.792 133.571,122.29 134.184,122.29C134.798,122.29 135.296,121.792 135.296,121.178L135.296,100.39C135.296,99.776 134.798,99.278 134.184,99.278C133.571,99.278 133.072,99.776 133.072,100.39ZM66.857,100.39L66.857,121.178C66.857,121.792 67.356,122.29 67.969,122.29C68.583,122.29 69.081,121.792 69.081,121.178L69.081,100.39C69.081,99.776 68.583,99.278 67.969,99.278C67.356,99.278 66.857,99.776 66.857,100.39ZM76.973,100.39L76.973,121.178C76.973,121.792 77.472,122.29 78.085,122.29C78.699,122.29 79.197,121.792 79.197,121.178L79.197,100.39C79.197,99.776 78.699,99.278 78.085,99.278C77.472,99.278 76.973,99.776 76.973,100.39ZM101.491,100.39L101.491,121.178C101.491,121.792 101.99,122.29 102.603,122.29C103.217,122.29 103.715,121.792 103.715,121.178L103.715,100.39C103.715,99.776 103.217,99.278 102.603,99.278C101.99,99.278 101.491,99.776 101.491,100.39ZM129.772,120.068L126.36,120.068C125.747,120.068 125.25,120.566 125.25,121.178C125.25,121.791 125.747,122.288 126.36,122.288L129.772,122.288C130.384,122.288 130.882,121.791 130.882,121.178C130.882,120.566 130.384,120.068 129.772,120.068ZM74.515,120.068L71.103,120.068C70.49,120.068 69.993,120.566 69.993,121.178C69.993,121.791 70.49,122.288 71.103,122.288L74.515,122.288C75.127,122.288 75.625,121.791 75.625,121.178C75.625,120.566 75.127,120.068 74.515,120.068ZM94.11,116.951C94.804,116.951 95.367,117.514 95.367,118.208C95.367,118.902 94.804,119.465 94.11,119.465C93.416,119.465 92.853,118.902 92.853,118.208C92.853,117.514 93.416,116.951 94.11,116.951ZM94.11,108.652C94.804,108.652 95.367,109.216 95.367,109.909C95.367,110.603 94.804,111.167 94.11,111.167C93.416,111.167 92.853,110.603 92.853,109.909C92.853,109.216 93.416,108.652 94.11,108.652ZM110.528,79.27L110.548,79.244C110.923,78.761 111.62,78.673 112.104,79.049C112.587,79.424 112.674,80.121 112.299,80.605L106.622,87.91L106.622,94.252C106.622,94.864 106.125,95.361 105.513,95.361L105.46,95.361C104.848,95.361 104.351,94.864 104.351,94.252L104.351,87.91L98.674,80.605C98.299,80.121 98.386,79.424 98.87,79.049C99.353,78.673 100.05,78.761 100.426,79.244L100.446,79.27L105.487,85.688L110.494,79.244L110.528,79.27ZM65.857,80.136L65.857,93.995C65.857,94.609 66.355,95.108 66.969,95.108C67.583,95.108 68.082,94.609 68.082,93.995L68.082,80.136C68.082,79.522 67.583,79.023 66.969,79.023C66.355,79.023 65.857,79.522 65.857,80.136ZM135.814,80.136L135.814,93.995C135.814,94.609 136.312,95.108 136.926,95.108C137.54,95.108 138.039,94.609 138.039,93.995L138.039,80.136C138.039,79.522 137.54,79.023 136.926,79.023C136.312,79.023 135.814,79.522 135.814,80.136ZM132.356,80.944C129.414,78.593 126.459,77.383 123.517,77.35C120.558,77.316 117.587,78.466 114.629,80.963C114.16,81.359 114.101,82.06 114.497,82.529C114.892,82.997 115.594,83.057 116.062,82.661C118.543,80.567 121.011,79.544 123.492,79.572C125.988,79.6 128.472,80.685 130.969,82.68C131.448,83.063 132.148,82.985 132.531,82.506C132.913,82.027 132.835,81.327 132.356,80.944ZM88.613,80.944C85.671,78.593 82.716,77.383 79.774,77.35C76.815,77.316 73.844,78.466 70.886,80.963C70.417,81.359 70.358,82.06 70.754,82.529C71.149,82.997 71.851,83.057 72.319,82.661C74.8,80.567 77.268,79.544 79.749,79.572C82.245,79.6 84.729,80.685 87.226,82.68C87.705,83.063 88.405,82.985 88.788,82.506C89.17,82.027 89.092,81.327 88.613,80.944ZM78.894,54.419C76.542,57.362 75.332,60.317 75.299,63.259C75.266,66.217 76.416,69.189 78.913,72.147C79.308,72.615 80.01,72.675 80.478,72.279C80.947,71.884 81.006,71.182 80.611,70.714C78.517,68.233 77.493,65.765 77.521,63.284C77.549,60.787 78.634,58.303 80.63,55.807C81.012,55.328 80.934,54.628 80.455,54.245C79.976,53.862 79.276,53.94 78.894,54.419ZM129.119,54.966C131.114,57.462 132.199,59.946 132.227,62.443C132.255,64.924 131.232,67.392 129.138,69.872C128.742,70.341 128.801,71.043 129.27,71.438C129.739,71.834 130.44,71.774 130.836,71.306C133.333,68.348 134.482,65.376 134.449,62.418C134.416,59.476 133.206,56.521 130.855,53.578C130.472,53.099 129.772,53.021 129.293,53.404C128.814,53.787 128.736,54.487 129.119,54.966ZM110.391,71.639L110.575,71.639C110.837,71.633 111.05,71.537 111.215,71.357C111.383,71.174 111.467,70.957 111.467,70.708L111.467,63.583C111.467,63.315 111.376,63.094 111.199,62.918C111.02,62.741 110.804,62.652 110.549,62.652L98.251,62.652C97.977,62.652 97.755,62.748 97.584,62.935C97.416,63.118 97.332,63.334 97.332,63.583L97.332,70.708C97.332,70.976 97.423,71.198 97.601,71.374C97.779,71.55 97.996,71.639 98.251,71.639L98.432,71.639C98.678,71.633 98.888,71.54 99.061,71.36C99.238,71.176 99.327,70.959 99.327,70.708C99.327,70.823 99.233,70.917 99.118,70.917C99.118,70.917 99.327,70.895 99.327,70.702L99.327,70.565L109.473,70.565L109.473,70.708L109.682,70.917L109.473,70.708C109.473,70.976 109.564,71.198 109.742,71.374C109.92,71.55 110.137,71.639 110.391,71.639ZM109.707,70.912L109.708,70.915C109.699,70.916 109.691,70.917 109.682,70.917C109.682,70.917 109.692,70.916 109.707,70.912ZM99.327,64.397L109.473,64.397L109.473,68.84L99.327,68.84L99.327,64.397ZM107.52,55.711C107.452,55.767 107.494,55.744 107.561,55.691L107.56,55.686L107.586,55.673C107.817,55.518 108.044,55.454 108.263,55.47C108.486,55.486 108.705,55.585 108.916,55.778C108.918,55.779 108.919,55.781 108.92,55.782C110.647,57.453 112.196,59.104 113.567,60.736C113.567,60.736 113.567,60.737 113.568,60.737C113.722,60.924 113.788,61.144 113.762,61.399C113.737,61.648 113.632,61.855 113.448,62.021C113.429,62.038 113.406,62.052 113.382,62.061L113.314,62.088C113.132,62.226 112.923,62.283 112.686,62.259C112.448,62.235 112.238,62.134 112.058,61.956C112.053,61.951 112.048,61.946 112.044,61.941C111.681,61.504 111.292,61.055 110.879,60.593C105.602,61.099 100.654,61.424 96.032,61.567C95.796,61.582 95.579,61.508 95.385,61.341C95.188,61.172 95.083,60.964 95.066,60.719C95.049,60.47 95.129,60.251 95.311,60.062C95.488,59.879 95.695,59.781 95.93,59.764L97.706,59.707C97.715,59.699 97.726,59.689 97.738,59.678C99.121,57.713 100.347,55.741 101.417,53.764C101.418,53.762 101.419,53.76 101.42,53.759C101.551,53.532 101.735,53.376 101.971,53.287C102.212,53.196 102.449,53.2 102.682,53.298L102.834,53.354C103.077,53.44 103.244,53.593 103.339,53.807C103.437,54.028 103.423,54.264 103.281,54.511C102.295,56.316 101.261,58.01 100.18,59.593C103.426,59.432 106.495,59.22 109.387,58.958C108.674,58.188 108.02,57.508 107.426,56.92C107.246,56.741 107.171,56.53 107.198,56.289C107.224,56.058 107.33,55.865 107.52,55.711ZM113.124,61.964C113.142,61.997 113.167,62.023 113.197,62.042L113.21,62.114C113.135,62.114 113.067,62.074 113.03,62.011C113.062,61.998 113.094,61.983 113.124,61.964ZM113.28,62.101L113.288,62.098C113.279,62.102 113.27,62.105 113.261,62.107L113.28,62.101ZM89.66,53.768C88.7,55.153 88.659,56.537 89.672,57.922C89.945,58.294 90.468,58.375 90.84,58.102C91.212,57.83 91.293,57.307 91.02,56.935C90.48,56.196 90.521,55.458 91.033,54.72C91.296,54.341 91.201,53.82 90.822,53.558C90.443,53.295 89.922,53.389 89.66,53.768ZM123.014,53.768C122.054,55.153 122.013,56.537 123.026,57.922C123.299,58.294 123.822,58.375 124.194,58.102C124.566,57.83 124.647,57.307 124.374,56.935C123.834,56.196 123.875,55.458 124.387,54.72C124.649,54.341 124.555,53.82 124.176,53.558C123.797,53.295 123.276,53.389 123.014,53.768ZM96.709,42.665L83.851,42.665C83.237,42.665 82.738,43.163 82.738,43.777C82.738,44.391 83.237,44.89 83.851,44.89L96.709,44.89C97.323,44.89 97.822,44.391 97.822,43.777C97.822,43.163 97.323,42.665 96.709,42.665ZM119.177,42.665L106.319,42.665C105.705,42.665 105.206,43.163 105.206,43.777C105.206,44.391 105.705,44.89 106.319,44.89L119.177,44.89C119.791,44.89 120.29,44.391 120.29,43.777C120.29,43.163 119.791,42.665 119.177,42.665ZM119.177,36.979L106.319,36.979C105.705,36.979 105.206,37.477 105.206,38.091C105.206,38.705 105.705,39.204 106.319,39.204L119.177,39.204C119.791,39.204 120.29,38.705 120.29,38.091C120.29,37.477 119.791,36.979 119.177,36.979ZM96.709,36.979L83.851,36.979C83.237,36.979 82.738,37.477 82.738,38.091C82.738,38.705 83.237,39.204 83.851,39.204L96.709,39.204C97.323,39.204 97.822,38.705 97.822,38.091C97.822,37.477 97.323,36.979 96.709,36.979ZM119.177,31.294L106.319,31.294C105.705,31.294 105.206,31.792 105.206,32.406C105.206,33.02 105.705,33.519 106.319,33.519L119.177,33.519C119.791,33.519 120.29,33.02 120.29,32.406C120.29,31.792 119.791,31.294 119.177,31.294ZM96.709,31.294L83.851,31.294C83.237,31.294 82.738,31.792 82.738,32.406C82.738,33.02 83.237,33.519 83.851,33.519L96.709,33.519C97.323,33.519 97.822,33.02 97.822,32.406C97.822,31.792 97.323,31.294 96.709,31.294Z" style="fill-rule:nonzero;"/>
    </g>
</svg>
