<?xml version="1.0" encoding="UTF-8" standalone="no"?>
<!DOCTYPE svg PUBLIC "-//W3C//DTD SVG 1.1//EN" "http://www.w3.org/Graphics/SVG/1.1/DTD/svg11.dtd">
<svg width="51px" height="98px" version="1.1" xmlns="http://www.w3.org/2000/svg" xmlns:xlink="http://www.w3.org/1999/xlink" xml:space="preserve" xmlns:serif="http://www.serif.com/" style="fill-rule:evenodd;clip-rule:evenodd;stroke-linejoin:round;stroke-miterlimit:2;">
    <g transform="matrix(0.610922,0,0,0.610922,-41.7015,-35.0418)">
        <path d="M138.927,105.258C138.98,105.121 139.099,105.021 139.242,104.992C139.386,104.963 139.534,105.009 139.636,105.114C141.046,107.238 140.497,111.5 139.492,113.481C138.134,116.156 136.517,117.575 134.301,118.475C133.956,118.616 133.61,118.76 133.272,118.897C131.116,119.762 129.969,122.123 130.621,124.352C130.761,124.829 130.971,125.112 131.254,125.147C136.819,131.112 142.399,122.6 148.343,126.045C149.734,126.851 150.234,128.243 150.479,129.447C150.987,131.945 149.714,134.464 147.401,135.536C146.057,136.147 144.542,137.159 142.552,137.439C137.566,138.14 136.2,137.956 130.604,137.952C130.398,144.66 130.077,154.368 129.852,164.045C129.909,167.635 134.591,169.453 134.258,173.727L134.301,193.642L120.986,193.642C120.986,193.642 121.176,210.219 120.572,212.091C119.182,216.398 112.17,216.323 112.132,210.468C111.395,204.921 112.199,200.564 108.006,198.843C107.546,198.652 107.018,198.736 106.64,199.06C105.625,199.927 103.577,201.677 103.577,201.677C100.583,204.043 98.555,206.701 97.571,209.676C96.555,212.225 96.015,213.315 94.852,214.752C91.929,218.364 86.858,217.203 86.43,212.808L86.847,193.642L70.577,193.642C69.959,193.642 69.387,193.318 69.07,192.788C68.752,192.258 68.736,191.601 69.027,191.056C71.675,186.103 77.203,175.762 77.203,175.762C77.898,173.394 78.276,170.673 78.115,167.353L78.536,146.531C78.423,143.904 77.523,141.859 76.009,140.268C71.619,134.272 71.852,128.276 76.009,122.28C76.572,121.467 77.057,120.836 77.419,120.388C77.815,119.92 77.824,119.236 77.441,118.757C76.019,116.915 74.845,114.544 74.129,111.947C74.129,111.947 71.284,114.484 70.532,111.947C69.137,107.241 69.467,103.319 70.135,97.886C71.168,89.488 73.485,83.751 77.698,75.707C80.072,71.175 94.979,56.547 110.766,68.984C124.575,66.211 135.691,73.657 135.019,92.347C134.753,99.76 132.86,112.698 132.86,112.698C136.718,112.263 138.382,107.476 138.927,105.258Z" style="fill:white;"/>
    </g>
    <g transform="matrix(0.610922,0,0,0.610922,-41.7015,-35.0418)">
        <path d="M86.799,199.89C86.437,199.869 86.118,199.997 85.851,200.296L85.851,200.297C85.628,200.548 85.504,200.844 85.484,201.187L85.484,201.202C85.367,204.526 85.308,207.338 85.308,209.637C85.308,212.653 85.735,214.727 86.507,215.874C87.336,217.104 88.802,217.772 90.949,217.772C92.608,217.772 94.103,217.168 95.428,215.945C96.69,214.78 97.741,213.074 98.562,210.814C98.563,210.81 98.564,210.806 98.566,210.803C98.669,210.501 98.669,210.188 98.556,209.863C98.427,209.494 98.19,209.25 97.863,209.117L97.903,209.135L97.786,209.088C97.461,208.962 97.135,208.975 96.81,209.132C96.503,209.279 96.279,209.521 96.147,209.866C96.147,209.867 96.147,209.868 96.146,209.869C95.498,211.599 94.714,212.917 93.776,213.813C92.91,214.639 91.972,215.065 90.949,215.065C90.366,215.065 89.895,215.005 89.538,214.87C89.228,214.752 88.959,214.523 88.718,214.198C88.445,213.83 88.265,213.3 88.151,212.619C88.022,211.847 87.959,210.853 87.959,209.637C87.959,207.325 88.017,204.543 88.133,201.292C88.153,200.943 88.045,200.63 87.801,200.356C87.561,200.086 87.284,199.947 86.981,199.915L86.806,199.891L86.799,199.89ZM119.087,203.305L119.087,210.68C119.087,211.807 118.86,212.647 118.331,213.175C117.896,213.609 117.286,213.804 116.517,213.804C115.703,213.804 115.052,213.586 114.578,213.112C114.152,212.687 113.925,211.93 113.818,210.868C113.779,210.476 113.628,210.193 113.412,209.997C113.196,209.801 112.899,209.679 112.507,209.679C112.483,209.679 112.46,209.68 112.437,209.683C112.054,209.726 111.775,209.893 111.583,210.148C111.421,210.363 111.316,210.661 111.316,211.055C111.316,211.079 111.318,211.103 111.32,211.126C111.508,212.765 111.987,213.921 112.691,214.623C113.639,215.569 114.889,216.057 116.454,216.057C118.023,216.057 119.252,215.587 120.155,214.686C121.098,213.746 121.592,212.436 121.592,210.743L121.592,203.305C121.592,202.884 121.464,202.578 121.273,202.367C121.063,202.137 120.76,201.991 120.34,201.991C119.92,201.991 119.617,202.137 119.407,202.367C119.215,202.578 119.087,202.884 119.087,203.305ZM105.47,198.161L102.766,200.865C102.318,201.313 102.318,202.041 102.766,202.489C103.214,202.936 103.941,202.936 104.389,202.489L107.093,199.784C107.541,199.336 107.541,198.609 107.093,198.161C106.645,197.713 105.918,197.713 105.47,198.161ZM130.42,191.821L79.514,191.821C78.878,191.821 78.362,192.337 78.362,192.974C78.362,193.61 78.878,194.126 79.514,194.126L130.42,194.126C131.056,194.126 131.572,193.61 131.572,192.974C131.572,192.337 131.056,191.821 130.42,191.821ZM133.107,171.67L133.107,192.492C133.107,193.127 133.623,193.643 134.258,193.643C134.892,193.643 135.408,193.127 135.408,192.492L135.408,171.67C135.408,171.035 134.892,170.52 134.258,170.52C133.623,170.52 133.107,171.035 133.107,171.67ZM76.992,175.081L68.413,189.983C68.097,190.533 68.286,191.237 68.836,191.553C69.386,191.87 70.09,191.68 70.407,191.13L78.985,176.229C79.302,175.679 79.112,174.975 78.562,174.658C78.012,174.342 77.308,174.531 76.992,175.081ZM77.385,146.531L77.385,167.353C77.385,167.988 77.901,168.503 78.536,168.503C79.171,168.503 79.686,167.988 79.686,167.353L79.686,146.531C79.686,145.896 79.171,145.38 78.536,145.38C77.901,145.38 77.385,145.896 77.385,146.531ZM128.701,146.531L128.701,167.353C128.701,167.988 129.217,168.503 129.852,168.503C130.487,168.503 131.002,167.988 131.002,167.353L131.002,146.531C131.002,145.896 130.487,145.38 129.852,145.38C129.217,145.38 128.701,145.896 128.701,146.531ZM90.668,144.767C88.977,144.767 87.604,146.14 87.604,147.831C87.604,149.522 88.977,150.894 90.668,150.894C92.359,150.894 93.732,149.522 93.732,147.831C93.732,146.14 92.359,144.767 90.668,144.767ZM118.133,144.767C116.442,144.767 115.069,146.14 115.069,147.831C115.069,149.522 116.442,150.894 118.133,150.894C119.824,150.894 121.197,149.522 121.197,147.831C121.197,146.14 119.824,144.767 118.133,144.767ZM90.668,146.858C91.205,146.858 91.641,147.294 91.641,147.831C91.641,148.367 91.205,148.803 90.668,148.803C90.131,148.803 89.695,148.367 89.695,147.831C89.695,147.294 90.131,146.858 90.668,146.858ZM118.133,146.858C118.67,146.858 119.106,147.294 119.106,147.831C119.106,148.367 118.67,148.803 118.133,148.803C117.596,148.803 117.16,148.367 117.16,147.831C117.16,147.294 117.596,146.858 118.133,146.858ZM75.066,121.626C70.602,128.066 70.368,134.506 75.083,140.946C75.457,141.458 76.176,141.569 76.687,141.194C77.198,140.82 77.309,140.101 76.935,139.59C72.87,134.038 73.104,128.486 76.952,122.934C77.313,122.413 77.183,121.697 76.663,121.336C76.142,120.975 75.426,121.105 75.066,121.626ZM117.041,130.918L95.752,130.918L95.752,120.613C95.752,119.98 95.238,119.466 94.604,119.466C93.971,119.466 93.456,119.98 93.456,120.613L93.456,130.918L82.275,130.918L82.275,123.723C82.275,123.09 81.761,122.576 81.127,122.576C80.494,122.576 79.98,123.09 79.98,123.723L79.98,137.548C79.98,138.181 80.494,138.695 81.127,138.695C81.761,138.695 82.275,138.181 82.275,137.548L82.275,133.218L129.741,133.218L129.741,137.289C129.741,137.922 130.255,138.436 130.888,138.436C131.522,138.436 132.036,137.922 132.036,137.289L132.036,123.464C132.036,122.831 131.522,122.317 130.888,122.317C130.255,122.317 129.741,122.831 129.741,123.464L129.741,130.918L119.337,130.918L119.337,120.613C119.337,119.98 118.823,119.466 118.189,119.466C117.555,119.466 117.041,119.98 117.041,120.613L117.041,130.918ZM137.103,128.949C139.436,128.224 141.461,127.109 143.341,126.506C144.848,126.022 146.245,125.896 147.649,126.961C148.67,127.736 149.157,128.715 149.352,129.677C149.754,131.651 148.748,133.643 146.92,134.491C145.685,135.053 144.308,135.596 142.467,135.734C141.834,135.782 141.359,136.334 141.406,136.967C141.454,137.6 142.006,138.075 142.639,138.027C144.803,137.864 146.426,137.243 147.878,136.582C147.88,136.581 147.882,136.58 147.884,136.579C150.68,135.284 152.221,132.237 151.606,129.218C151.311,127.77 150.577,126.296 149.039,125.129C146.948,123.543 144.883,123.596 142.638,124.316C140.765,124.917 138.746,126.03 136.421,126.753C135.815,126.942 135.476,127.586 135.664,128.192C135.852,128.798 136.497,129.137 137.103,128.949ZM70.752,112.897L70.748,112.893C70.711,112.606 70.748,112.328 70.858,112.061C71.021,111.664 71.277,111.477 71.543,111.406C72.988,110.965 74.013,110.167 74.599,108.99C75.232,107.718 75.529,105.757 75.529,103.115L75.529,98.77C75.529,98.454 75.604,98.186 75.735,97.965C75.735,97.964 75.736,97.964 75.736,97.964C75.946,97.61 76.227,97.469 76.526,97.459L76.687,97.458C76.994,97.458 77.289,97.592 77.513,97.953C77.653,98.178 77.732,98.449 77.732,98.77L77.732,103.077C77.732,106.365 77.289,108.852 76.438,110.542C75.538,112.33 74.08,113.507 72.057,114.066C72.047,114.069 72.037,114.071 72.027,114.073C71.702,114.146 71.38,114.065 71.097,113.736C70.951,113.566 70.841,113.349 70.783,113.08C70.763,113.022 70.752,112.961 70.752,112.897ZM133.348,97.05C133.08,97.05 132.837,97.173 132.65,97.468C132.514,97.68 132.442,97.931 132.442,98.221L132.442,112.698C132.442,112.989 132.514,113.239 132.649,113.452C132.846,113.761 133.101,113.874 133.381,113.848L133.379,113.849C135.033,113.758 136.403,112.913 137.475,111.29C138.497,109.742 139.138,107.647 139.381,104.999C139.407,104.726 139.357,104.472 139.232,104.236C139.09,103.966 138.896,103.814 138.676,103.752L138.635,103.734C138.616,103.727 138.597,103.722 138.577,103.717C138.309,103.66 138.047,103.736 137.817,104.01C137.656,104.201 137.557,104.436 137.531,104.718C137.531,104.719 137.53,104.719 137.53,104.72C137.356,106.645 136.948,108.192 136.293,109.358C135.779,110.274 135.149,110.9 134.39,111.224L134.39,98.221C134.39,97.928 134.314,97.675 134.171,97.46C133.978,97.17 133.734,97.05 133.47,97.05L133.348,97.05ZM129.862,97.05L129.74,97.05C129.472,97.05 129.229,97.173 129.041,97.468C128.906,97.68 128.833,97.931 128.833,98.221L128.833,101.581C128.833,103.925 128.769,105.733 128.639,107.005C128.513,108.235 128.312,109.186 128.026,109.857C127.753,110.495 127.34,111.043 126.787,111.501C126.601,111.651 126.469,111.875 126.417,112.182C126.373,112.445 126.397,112.69 126.482,112.917L126.534,113.068L126.533,113.065C126.714,113.494 126.98,113.678 127.235,113.712C127.423,113.738 127.637,113.69 127.861,113.522C127.866,113.518 127.87,113.515 127.875,113.511C128.639,112.887 129.223,112.146 129.629,111.289C130.024,110.458 130.32,109.266 130.508,107.709C130.69,106.197 130.782,104.154 130.782,101.581L130.782,98.221C130.782,97.928 130.706,97.675 130.563,97.46C130.369,97.17 130.125,97.05 129.862,97.05ZM71.356,113.475L71.355,113.475L71.381,113.498L71.356,113.475ZM70.532,107.305L70.693,107.303C70.984,107.286 71.262,107.14 71.468,106.778C71.596,106.55 71.668,106.283 71.668,105.973L71.668,98.77C71.668,98.454 71.593,98.186 71.462,97.965L71.461,97.964C71.242,97.596 70.947,97.458 70.634,97.458L70.612,97.458C70.582,97.458 70.556,97.463 70.532,97.472L70.532,97.458C70.204,97.458 69.909,97.602 69.694,97.964C69.562,98.186 69.487,98.453 69.487,98.77L69.487,105.973C69.487,106.288 69.563,106.558 69.699,106.788C69.924,107.168 70.225,107.305 70.532,107.305ZM110.723,104.226L94.287,104.226C93.654,104.226 93.139,104.74 93.139,105.374C93.139,106.007 93.654,106.521 94.287,106.521L110.723,106.521C111.357,106.521 111.871,106.007 111.871,105.374C111.871,104.74 111.357,104.226 110.723,104.226ZM120.28,95.187L117.576,97.891C117.128,98.339 117.128,99.067 117.576,99.515C118.024,99.963 118.751,99.963 119.199,99.515L121.903,96.81C122.351,96.363 122.351,95.635 121.903,95.187C121.455,94.739 120.728,94.739 120.28,95.187ZM86.069,95.187L83.365,97.891C82.917,98.339 82.917,99.067 83.365,99.515C83.813,99.963 84.54,99.963 84.988,99.515L87.692,96.81C88.14,96.363 88.14,95.635 87.692,95.187C87.244,94.739 86.517,94.739 86.069,95.187ZM100.444,71.316C99.844,77.386 98.086,81.052 93.148,84.242C92.615,84.586 92.462,85.299 92.806,85.832C93.151,86.365 93.863,86.518 94.396,86.174C99.999,82.554 102.052,78.429 102.733,71.542C102.795,70.911 102.333,70.347 101.702,70.285C101.07,70.222 100.507,70.685 100.444,71.316ZM118.14,75.707C121.357,77.866 125.124,81.136 127.198,83.378C127.628,83.843 128.354,83.871 128.819,83.441C129.284,83.011 129.313,82.285 128.883,81.82C126.715,79.476 122.781,76.057 119.419,73.801C118.893,73.449 118.18,73.589 117.827,74.115C117.474,74.641 117.615,75.354 118.14,75.707ZM81.975,74.905L79.602,82.088C79.404,82.69 79.731,83.34 80.333,83.539C80.935,83.737 81.585,83.41 81.783,82.808L84.156,75.626C84.355,75.024 84.027,74.374 83.425,74.175C82.824,73.976 82.174,74.303 81.975,74.905ZM76.668,74.739L74.295,81.922C74.097,82.524 74.424,83.174 75.026,83.373C75.628,83.571 76.278,83.244 76.476,82.642L78.849,75.46C79.048,74.858 78.72,74.208 78.118,74.009C77.517,73.81 76.867,74.137 76.668,74.739ZM124.708,74.067L126.576,75.553C127.072,75.947 127.794,75.865 128.189,75.369C128.583,74.874 128.501,74.151 128.005,73.756L126.137,72.27C125.641,71.876 124.918,71.958 124.524,72.454C124.13,72.949 124.212,73.672 124.708,74.067ZM114.506,72.38L111.46,69.17C111.243,68.942 110.942,68.813 110.627,68.813C110.312,68.812 110.011,68.942 109.794,69.17L106.747,72.38C106.311,72.84 106.33,73.567 106.789,74.003C107.249,74.439 107.976,74.42 108.412,73.961L110.627,71.628L112.841,73.961C113.277,74.42 114.004,74.439 114.464,74.003C114.923,73.567 114.942,72.84 114.506,72.38ZM127.234,72.381L129.102,73.867C129.598,74.262 130.32,74.179 130.715,73.684C131.109,73.188 131.027,72.465 130.531,72.071L128.663,70.584C128.167,70.19 127.444,70.272 127.05,70.768C126.656,71.264 126.738,71.987 127.234,72.381Z"/>
    </g>
</svg>
