<?xml version="1.0" encoding="UTF-8" standalone="no"?>
<svg xmlns:ffdec="https://www.free-decompiler.com/flash" xmlns:xlink="http://www.w3.org/1999/xlink" ffdec:objectType="shape" height="95.8px" width="61.15px" xmlns="http://www.w3.org/2000/svg">
  <g transform="matrix(1.0, 0.0, 0.0, 1.0, 34.95, 95.85)">
    <path d="M5.3 -84.05 L5.9 -82.6 Q6.15 -81.55 5.8 -80.0 L15.85 -80.8 Q17.55 -79.35 17.8 -76.45 18.0 -73.95 19.1 -71.6 20.4 -68.9 18.35 -67.55 15.35 -65.6 11.0 -65.9 L8.1 -65.95 4.85 -65.45 Q5.2 -63.85 6.4 -62.25 L7.1 -62.25 9.05 -62.5 Q8.45 -59.3 6.5 -57.6 7.05 -54.4 7.25 -51.0 L7.25 -50.95 4.8 -50.15 5.2 -50.15 7.25 -50.15 7.3 -50.15 12.5 -50.05 13.5 -49.1 13.9 -49.55 Q16.2 -49.2 17.0 -46.95 17.5 -46.8 18.0 -46.2 20.05 -43.9 21.55 -41.35 24.9 -35.8 23.3 -29.55 L22.05 -26.2 Q20.45 -22.7 16.9 -20.95 17.3 -17.75 18.35 -14.9 19.6 -11.45 21.8 -8.6 L22.45 -7.75 Q24.2 -5.65 26.05 -3.9 L25.35 -3.85 26.1 -3.85 Q26.7 -0.2 24.0 -0.35 L20.55 -0.5 12.2 -0.65 9.8 -0.45 Q6.6 0.1 6.75 -2.9 8.1 -3.75 10.45 -3.6 L12.9 -3.55 19.9 -3.75 21.15 -3.8 21.1 -3.85 19.9 -4.95 Q16.3 -8.75 13.8 -13.6 L12.5 -16.3 12.05 -15.5 Q11.55 -14.75 10.65 -14.5 7.1 -13.65 4.85 -16.85 L7.45 -17.4 Q8.75 -17.5 9.5 -18.6 10.2 -19.55 8.75 -21.05 6.85 -23.1 5.85 -24.95 4.65 -22.85 2.25 -21.4 L-2.6 -13.4 -4.1 -10.95 Q-5.95 -7.7 -6.4 -4.55 L-6.35 -3.55 -6.05 -1.35 Q-12.9 0.4 -19.5 -0.25 -23.25 -0.6 -26.15 -0.3 -28.3 -0.05 -26.9 -1.9 -25.5 -3.7 -22.6 -3.45 L-18.8 -3.35 -11.2 -3.85 Q-11.55 -6.75 -10.8 -7.65 -10.0 -8.3 -9.55 -9.7 -8.2 -13.6 -6.2 -17.55 L-4.65 -20.6 Q-2.7 -24.05 1.95 -26.45 2.1 -27.85 1.85 -29.55 1.6 -31.3 1.85 -32.35 -3.85 -32.25 -9.25 -33.7 -9.1 -35.85 -8.45 -38.0 L-7.4 -40.8 -7.45 -40.85 Q-7.85 -41.4 -9.7 -41.35 L-14.55 -41.7 Q-17.1 -42.2 -19.3 -43.35 -21.75 -44.6 -23.7 -46.6 -24.45 -47.4 -25.05 -48.7 -25.8 -50.2 -27.0 -50.8 -27.8 -51.2 -28.85 -51.2 L-31.05 -51.45 Q-35.15 -52.5 -34.95 -56.7 -34.9 -57.65 -33.2 -58.1 -31.75 -57.05 -30.1 -56.45 L-25.6 -56.35 -28.3 -59.35 Q-28.95 -61.7 -26.9 -62.05 L-25.35 -61.95 -22.25 -60.1 Q-19.45 -57.9 -20.1 -54.7 -20.25 -54.1 -20.8 -53.9 L-24.65 -53.8 -24.1 -52.95 -22.5 -51.05 Q-19.9 -48.6 -16.8 -47.25 L-15.25 -46.7 Q-12.65 -45.9 -9.75 -46.25 L-5.85 -46.0 -4.95 -45.35 Q-2.9 -48.25 -0.1 -50.05 L1.6 -50.2 4.7 -50.15 Q4.85 -53.8 3.6 -56.15 L1.6 -55.8 Q-5.1 -55.2 -10.25 -58.75 L-14.4 -62.0 -14.3 -62.7 -13.45 -62.65 Q-13.75 -65.2 -15.05 -65.5 L-15.3 -65.5 -20.1 -65.75 Q-22.0 -65.85 -23.0 -66.75 L-23.65 -67.7 Q-24.25 -68.85 -23.95 -70.3 -22.85 -76.1 -20.75 -81.3 L-19.75 -81.65 -8.1 -82.05 -7.8 -82.0 Q-7.75 -83.6 -7.0 -84.55 -6.45 -85.25 -5.5 -85.6 L-5.25 -85.7 1.3 -86.05 3.3 -85.55 3.65 -85.45 Q4.65 -85.05 5.3 -84.05 L4.2 -83.6 5.3 -84.05 M0.25 -62.2 L0.25 -62.25 Q-1.1 -64.4 -2.85 -65.45 L4.7 -66.35 7.45 -67.05 Q6.85 -70.3 6.55 -73.85 6.45 -75.35 6.7 -76.75 7.05 -79.0 5.8 -80.0 4.9 -80.7 3.25 -80.85 L-7.8 -82.0 3.25 -80.85 Q4.9 -80.7 5.8 -80.0 7.05 -79.0 6.7 -76.75 6.45 -75.35 6.55 -73.85 6.85 -70.3 7.45 -67.05 L4.7 -66.35 -2.85 -65.45 Q-1.1 -64.4 0.25 -62.25 L0.25 -62.2 Q0.7 -61.15 1.05 -62.2 L0.25 -62.2 -4.5 -62.25 0.25 -62.2 M4.8 -50.15 L4.7 -50.15 4.8 -50.15 M6.4 -62.25 L1.05 -62.2 1.05 -62.25 Q2.4 -64.45 4.85 -65.45 2.4 -64.45 1.05 -62.25 L1.05 -62.2 6.4 -62.25 6.4 -62.2 6.45 -61.25 6.4 -62.2 6.4 -62.25 M3.6 -56.15 Q5.3 -56.6 6.5 -57.6 5.3 -56.6 3.6 -56.15 M7.3 -49.25 L7.3 -50.15 7.3 -49.25 M17.95 -33.55 L18.1 -35.3 18.1 -36.65 Q17.7 -39.75 16.65 -42.5 16.0 -44.25 15.2 -44.4 16.0 -44.25 16.65 -42.5 17.7 -39.75 18.1 -36.65 L18.1 -35.3 17.95 -33.55 17.25 -33.45 Q14.8 -33.2 13.1 -32.45 L13.55 -31.35 Q14.45 -28.15 14.55 -26.65 L13.65 -25.85 13.5 -25.7 13.7 -25.55 Q14.6 -25.15 14.55 -26.65 16.7 -28.95 17.55 -31.9 L17.95 -33.55 M14.35 -43.7 L14.25 -44.3 14.25 -44.5 Q14.3 -45.2 14.75 -45.85 15.8 -47.45 17.0 -46.95 15.8 -47.45 14.75 -45.85 14.3 -45.2 14.25 -44.5 L14.25 -44.3 14.35 -43.7 M13.5 -49.1 Q13.55 -48.25 12.85 -46.55 L12.45 -45.45 Q10.7 -40.9 9.35 -36.2 L8.9 -34.7 8.65 -33.35 Q8.6 -32.5 8.1 -32.5 L2.25 -32.35 1.85 -32.35 2.25 -32.35 8.1 -32.5 Q8.6 -32.5 8.65 -33.35 L8.9 -34.7 9.35 -36.2 Q10.7 -40.9 12.45 -45.45 L12.85 -46.55 Q13.55 -48.25 13.5 -49.1 M2.25 -21.4 Q1.9 -23.9 3.05 -25.75 3.7 -26.8 4.8 -27.65 L5.8 -27.75 8.1 -26.35 9.6 -25.1 Q10.25 -24.5 11.0 -24.55 11.65 -24.6 12.3 -24.9 13.35 -22.35 14.65 -20.1 L13.3 -19.75 Q13.2 -17.85 12.5 -16.3 13.2 -17.85 13.3 -19.75 L14.65 -20.1 Q13.35 -22.35 12.3 -24.9 11.65 -24.6 11.0 -24.55 10.25 -24.5 9.6 -25.1 L8.1 -26.35 5.8 -27.75 4.8 -27.65 Q3.7 -26.8 3.05 -25.75 1.9 -23.9 2.25 -21.4 M8.45 -36.45 L4.45 -37.1 Q3.45 -38.6 4.65 -40.45 4.45 -41.85 2.25 -41.8 L-0.3 -42.05 Q-3.45 -42.6 -4.05 -38.75 -5.5 -37.55 -8.45 -38.0 -5.5 -37.55 -4.05 -38.75 -3.45 -42.6 -0.3 -42.05 L2.25 -41.8 Q4.45 -41.85 4.65 -40.45 3.45 -38.6 4.45 -37.1 L8.45 -36.45 M23.3 -29.55 Q21.0 -31.45 17.55 -31.9 21.0 -31.45 23.3 -29.55 M8.1 -26.35 Q9.25 -27.05 10.65 -26.75 L13.5 -25.7 12.3 -24.9 13.5 -25.7 10.65 -26.75 Q9.25 -27.05 8.1 -26.35 M8.6 -31.5 L10.35 -31.7 Q11.55 -31.65 12.6 -32.2 L13.1 -32.45 12.6 -32.2 Q11.55 -31.65 10.35 -31.7 L8.6 -31.5 M21.6 -2.8 Q22.75 -2.25 21.15 -3.8 L24.7 -3.85 25.35 -3.85 24.7 -3.85 21.15 -3.8 Q22.75 -2.25 21.6 -2.8 M16.9 -20.95 Q15.85 -20.45 14.65 -20.1 15.85 -20.45 16.9 -20.95 M18.35 -14.9 L13.8 -13.6 18.35 -14.9 M-1.95 -69.0 L-1.35 -68.95 -0.35 -68.9 Q1.4 -68.7 1.8 -70.35 2.85 -75.05 -1.35 -76.95 -4.3 -78.25 -6.65 -76.0 L-6.95 -75.15 Q-6.5 -70.05 -1.3 -69.95 -6.5 -70.05 -6.95 -75.15 L-6.65 -76.0 Q-4.3 -78.25 -1.35 -76.95 2.85 -75.05 1.8 -70.35 1.4 -68.7 -0.35 -68.9 L-1.35 -68.95 -1.95 -69.0 M-14.1 -77.25 L-14.9 -77.7 Q-20.0 -78.4 -20.3 -73.55 -20.55 -69.6 -17.2 -69.35 L-15.85 -69.4 -13.5 -70.0 Q-12.4 -70.45 -12.2 -71.3 -11.45 -74.95 -14.1 -77.25 -11.45 -74.95 -12.2 -71.3 -12.4 -70.45 -13.5 -70.0 L-15.85 -69.4 -17.2 -69.35 Q-20.55 -69.6 -20.3 -73.55 -20.0 -78.4 -14.9 -77.7 L-14.1 -77.25 M-8.55 -65.35 L-15.05 -65.5 -8.55 -65.35 -8.3 -65.35 -8.35 -65.45 -8.55 -65.35 Q-9.85 -64.85 -10.6 -62.45 L-6.4 -62.25 -8.3 -65.35 -4.55 -65.4 -2.95 -65.45 -2.85 -65.45 -2.95 -65.45 -4.55 -65.4 -8.3 -65.35 -6.4 -62.25 -10.6 -62.45 Q-9.85 -64.85 -8.55 -65.35 M-24.1 -52.95 Q-25.05 -51.6 -27.0 -50.8 -25.05 -51.6 -24.1 -52.95 M-2.95 -65.45 L-3.65 -64.4 Q-4.0 -63.2 -4.5 -62.25 -4.0 -63.2 -3.65 -64.4 L-2.95 -65.45 M-4.5 -62.25 L-4.55 -62.25 -6.4 -62.25 -5.5 -60.9 -4.5 -62.25 M-13.45 -62.65 Q-12.7 -60.7 -10.85 -61.55 L-10.6 -62.45 -13.45 -62.65 -10.6 -62.45 -10.85 -61.55 Q-12.7 -60.7 -13.45 -62.65 M-7.95 -3.55 Q-9.3 -4.2 -11.2 -3.85 -9.3 -4.2 -7.95 -3.55 M-2.6 -13.4 Q-3.8 -15.5 -6.2 -17.55 -3.8 -15.5 -2.6 -13.4 M-16.8 -47.25 Q-18.3 -45.6 -19.3 -43.35 -18.3 -45.6 -16.8 -47.25 M-7.4 -40.8 L-7.4 -40.85 -7.15 -41.45 Q-6.2 -43.6 -4.95 -45.35 -6.2 -43.6 -7.15 -41.45 L-7.4 -40.85 -7.4 -40.8" fill="#ffffff" fill-rule="evenodd" stroke="none"/>
    <path d="M3.3 -85.55 Q5.45 -90.2 10.85 -93.85 13.65 -95.7 16.8 -94.4 21.15 -92.65 20.4 -88.1 20.25 -87.2 19.55 -86.9 14.25 -84.7 8.4 -84.1 6.5 -83.9 5.3 -84.1 L5.3 -84.05 5.9 -82.6 Q6.15 -81.55 5.8 -80.0 L15.85 -80.8 Q17.55 -79.35 17.8 -76.45 18.0 -73.95 19.1 -71.6 20.4 -68.9 18.35 -67.55 15.35 -65.6 11.0 -65.9 L8.1 -65.95 4.85 -65.45 Q5.2 -63.85 6.4 -62.25 L7.1 -62.25 9.05 -62.5 Q8.45 -59.3 6.5 -57.6 7.05 -54.4 7.25 -51.0 L7.25 -50.95 7.3 -50.15 12.5 -50.05 M13.9 -49.55 Q16.2 -49.2 17.0 -46.95 17.5 -46.8 18.0 -46.2 20.05 -43.9 21.55 -41.35 24.9 -35.8 23.3 -29.55 L22.05 -26.2 Q20.45 -22.7 16.9 -20.95 17.3 -17.75 18.35 -14.9 19.6 -11.45 21.8 -8.6 L22.45 -7.75 Q24.2 -5.65 26.05 -3.9 L26.1 -3.85 Q26.7 -0.2 24.0 -0.35 L20.55 -0.5 12.2 -0.65 9.8 -0.45 Q6.6 0.1 6.75 -2.9 8.1 -3.75 10.45 -3.6 L12.9 -3.55 19.9 -3.75 21.15 -3.8 21.1 -3.85 19.9 -4.95 Q16.3 -8.75 13.8 -13.6 L12.5 -16.3 12.05 -15.5 Q11.55 -14.75 10.65 -14.5 7.1 -13.65 4.85 -16.85 L7.45 -17.4 Q8.75 -17.5 9.5 -18.6 10.2 -19.55 8.75 -21.05 6.85 -23.1 5.85 -24.95 4.65 -22.85 2.25 -21.4 L-2.6 -13.4 -4.1 -10.95 Q-5.95 -7.7 -6.4 -4.55 L-6.35 -3.55 -6.05 -1.35 Q-12.9 0.4 -19.5 -0.25 -23.25 -0.6 -26.15 -0.3 -28.3 -0.05 -26.9 -1.9 -25.5 -3.7 -22.6 -3.45 L-18.8 -3.35 -11.2 -3.85 Q-11.55 -6.75 -10.8 -7.65 -10.0 -8.3 -9.55 -9.7 -8.2 -13.6 -6.2 -17.55 L-4.65 -20.6 Q-2.7 -24.05 1.95 -26.45 2.1 -27.85 1.85 -29.55 1.6 -31.3 1.85 -32.35 -3.85 -32.25 -9.25 -33.7 -9.1 -35.85 -8.45 -38.0 L-7.4 -40.8 -7.45 -40.85 Q-7.85 -41.4 -9.7 -41.35 L-14.55 -41.7 Q-17.1 -42.2 -19.3 -43.35 -21.75 -44.6 -23.7 -46.6 -24.45 -47.4 -25.05 -48.7 -25.8 -50.2 -27.0 -50.8 -27.8 -51.2 -28.85 -51.2 L-31.05 -51.45 Q-35.15 -52.5 -34.95 -56.7 -34.9 -57.65 -33.2 -58.1 -31.75 -57.05 -30.1 -56.45 L-25.6 -56.35 -28.3 -59.35 Q-28.95 -61.7 -26.9 -62.05 L-25.35 -61.95 -22.25 -60.1 Q-19.45 -57.9 -20.1 -54.7 -20.25 -54.1 -20.8 -53.9 L-24.65 -53.8 -24.1 -52.95 -22.5 -51.05 Q-19.9 -48.6 -16.8 -47.25 L-15.25 -46.7 Q-12.65 -45.9 -9.75 -46.25 L-5.85 -46.0 M-4.95 -45.35 Q-2.9 -48.25 -0.1 -50.05 L1.6 -50.2 4.7 -50.15 Q4.85 -53.8 3.6 -56.15 L1.6 -55.8 Q-5.1 -55.2 -10.25 -58.75 L-14.4 -62.0 M-14.3 -62.7 L-15.55 -62.85 M3.3 -85.55 L3.65 -85.45 Q4.65 -85.05 5.3 -84.05 L4.2 -83.6 M-5.5 -85.6 L-5.25 -85.7 1.3 -86.05 3.3 -85.55 M-7.8 -82.0 L3.25 -80.85 Q4.9 -80.7 5.8 -80.0 7.05 -79.0 6.7 -76.75 6.45 -75.35 6.55 -73.85 6.85 -70.3 7.45 -67.05 L4.7 -66.35 -2.85 -65.45 Q-1.1 -64.4 0.25 -62.25 L0.25 -62.2 1.05 -62.2 1.05 -62.25 Q2.4 -64.45 4.85 -65.45 M6.4 -62.25 L6.4 -62.2 6.45 -61.25 M1.05 -62.2 L6.4 -62.25 M4.7 -50.15 L4.8 -50.15 5.2 -50.15 7.25 -50.15 7.3 -50.15 7.3 -49.25 M6.5 -57.6 Q5.3 -56.6 3.6 -56.15 M0.25 -62.2 Q0.7 -61.15 1.05 -62.2 M1.85 -32.35 L2.25 -32.35 8.1 -32.5 Q8.6 -32.5 8.65 -33.35 L8.9 -34.7 9.35 -36.2 Q10.7 -40.9 12.45 -45.45 L12.85 -46.55 Q13.55 -48.25 13.5 -49.1 M17.0 -46.95 Q15.8 -47.45 14.75 -45.85 14.3 -45.2 14.25 -44.5 L14.25 -44.3 14.35 -43.7 M15.2 -44.4 Q16.0 -44.25 16.65 -42.5 17.7 -39.75 18.1 -36.65 L18.1 -35.3 17.95 -33.55 17.55 -31.9 Q21.0 -31.45 23.3 -29.55 M-8.45 -38.0 Q-5.5 -37.55 -4.05 -38.75 -3.45 -42.6 -0.3 -42.05 L2.25 -41.8 Q4.45 -41.85 4.65 -40.45 3.45 -38.6 4.45 -37.1 L8.45 -36.45 M12.5 -16.3 Q13.2 -17.85 13.3 -19.75 L14.65 -20.1 Q13.35 -22.35 12.3 -24.9 11.65 -24.6 11.0 -24.55 10.25 -24.5 9.6 -25.1 L8.1 -26.35 5.8 -27.75 4.8 -27.65 Q3.7 -26.8 3.05 -25.75 1.9 -23.9 2.25 -21.4 M13.1 -32.45 Q14.8 -33.2 17.25 -33.45 L17.95 -33.55 M13.1 -32.45 L12.6 -32.2 Q11.55 -31.65 10.35 -31.7 L8.6 -31.5 M12.3 -24.9 L13.5 -25.7 10.65 -26.75 Q9.25 -27.05 8.1 -26.35 M17.55 -31.9 Q16.7 -28.95 14.55 -26.65 14.6 -25.15 13.7 -25.55 L13.5 -25.7 13.65 -25.85 14.55 -26.65 Q14.45 -28.15 13.55 -31.35 M13.8 -13.6 L18.35 -14.9 M14.65 -20.1 Q15.85 -20.45 16.9 -20.95 M25.35 -3.85 L24.7 -3.85 21.15 -3.8 Q22.75 -2.25 21.6 -2.8 M26.1 -3.85 L25.35 -3.85 26.05 -3.9 M-5.5 -85.6 Q-4.65 -87.95 -6.7 -90.55 L-9.25 -93.45 Q-11.65 -95.9 -14.9 -95.85 -17.35 -95.8 -17.5 -93.3 -18.0 -86.45 -11.9 -84.5 L-10.35 -84.2 -7.0 -84.55 Q-6.45 -85.25 -5.5 -85.6 M-14.1 -77.25 Q-11.45 -74.95 -12.2 -71.3 -12.4 -70.45 -13.5 -70.0 L-15.85 -69.4 -17.2 -69.35 Q-20.55 -69.6 -20.3 -73.55 -20.0 -78.4 -14.9 -77.7 L-14.1 -77.25 M-1.3 -69.95 Q-6.5 -70.05 -6.95 -75.15 L-6.65 -76.0 Q-4.3 -78.25 -1.35 -76.95 2.85 -75.05 1.8 -70.35 1.4 -68.7 -0.35 -68.9 L-1.35 -68.95 -1.95 -69.0 M-19.75 -81.65 L-8.1 -82.05 -7.8 -82.0 Q-7.75 -83.6 -7.0 -84.55 M-23.0 -66.75 Q-22.0 -65.85 -20.1 -65.75 L-15.3 -65.5 -15.05 -65.5 -8.55 -65.35 -8.35 -65.45 -8.3 -65.35 -4.55 -65.4 -2.95 -65.45 -2.85 -65.45 M-20.75 -81.3 Q-22.85 -76.1 -23.95 -70.3 -24.25 -68.85 -23.65 -67.7 M-27.0 -50.8 Q-25.05 -51.6 -24.1 -52.95 M-8.3 -65.35 L-8.55 -65.35 Q-9.85 -64.85 -10.6 -62.45 L-6.4 -62.25 -8.3 -65.35 M-4.5 -62.25 Q-4.0 -63.2 -3.65 -64.4 L-2.95 -65.45 M-6.4 -62.25 L-4.55 -62.25 -4.5 -62.25 0.25 -62.2 M-14.3 -62.7 L-13.45 -62.65 Q-13.75 -65.2 -15.05 -65.5 M-13.45 -62.65 L-10.6 -62.45 -10.85 -61.55 Q-12.7 -60.7 -13.45 -62.65 M-6.4 -62.25 L-5.5 -60.9 -4.5 -62.25 M-4.95 -45.35 Q-6.2 -43.6 -7.15 -41.45 L-7.4 -40.85 -7.4 -40.8 M-19.3 -43.35 Q-18.3 -45.6 -16.8 -47.25 M-6.2 -17.55 Q-3.8 -15.5 -2.6 -13.4 M-11.2 -3.85 Q-9.3 -4.2 -7.95 -3.55" fill="none" stroke="#000000" stroke-linecap="round" stroke-linejoin="round" stroke-width="0.05"/>
  </g>
</svg>
