<?xml version="1.0" encoding="UTF-8" standalone="no"?>
<svg xmlns:ffdec="https://www.free-decompiler.com/flash" xmlns:xlink="http://www.w3.org/1999/xlink" ffdec:objectType="shape" height="93.2px" width="82.9px" xmlns="http://www.w3.org/2000/svg">
  <g transform="matrix(1.0, 0.0, 0.0, 1.0, 45.15, 94.9)">
    <path d="M23.65 -57.7 L23.6 -50.4 23.6 -50.1 28.55 -53.3 Q31.55 -55.3 32.6 -58.2 L32.75 -59.1 32.55 -69.05 32.3 -70.35 Q30.0 -69.55 29.95 -72.4 L29.7 -76.0 Q29.45 -77.65 29.5 -79.3 29.55 -80.4 31.05 -79.85 31.75 -75.8 31.85 -72.15 L34.55 -72.5 Q34.45 -76.4 35.35 -79.45 37.9 -79.2 37.75 -76.9 L37.65 -73.1 Q37.65 -71.65 37.3 -70.55 36.9 -69.5 34.9 -70.15 35.1 -65.55 35.55 -63.35 L36.5 -58.6 Q37.05 -56.05 34.2 -54.3 31.3 -52.55 28.55 -50.25 25.75 -48.0 23.6 -47.6 L23.5 -40.7 23.5 -38.75 Q25.85 -37.85 28.0 -35.85 L28.8 -34.8 Q29.85 -32.95 31.1 -31.8 L30.05 -30.95 28.1 -30.9 Q26.7 -33.1 24.75 -34.75 L23.45 -35.9 23.4 -31.05 23.45 -25.9 23.5 -21.1 23.75 -15.0 Q26.5 -12.5 27.6 -8.85 27.75 -8.4 27.5 -8.1 26.05 -6.1 23.2 -4.8 18.65 -2.65 13.75 -2.4 L9.9 -2.15 0.25 -1.8 -9.4 -1.7 Q-14.15 -1.55 -18.6 -2.7 -23.45 -3.95 -27.55 -7.05 -26.4 -11.0 -23.5 -13.95 L-23.55 -19.35 -23.3 -24.2 -23.0 -29.0 -22.25 -38.4 -22.25 -38.5 Q-23.6 -37.55 -24.55 -34.85 -25.65 -34.25 -25.95 -34.95 -25.15 -38.2 -22.15 -40.05 L-21.95 -43.35 Q-24.75 -44.55 -27.2 -46.4 -30.8 -49.2 -33.6 -52.3 -34.1 -52.9 -34.4 -53.85 L-36.25 -60.7 -37.75 -66.2 -39.55 -64.7 -41.95 -66.5 -44.0 -67.95 Q-46.6 -69.5 -43.4 -71.25 -42.1 -71.55 -40.25 -69.65 -38.7 -67.85 -37.85 -70.15 -39.1 -71.8 -41.1 -73.65 -40.2 -74.9 -37.9 -75.0 L-35.5 -72.95 Q-34.15 -71.7 -34.75 -70.3 -35.15 -69.4 -34.75 -68.45 L-33.8 -66.05 Q-32.3 -61.9 -31.75 -57.2 -31.6 -56.15 -31.25 -55.6 L-29.35 -53.05 Q-26.5 -49.25 -21.8 -47.65 -21.65 -51.7 -21.65 -55.7 L-21.65 -56.45 -21.35 -56.45 Q-18.95 -58.0 -17.45 -58.35 L-14.05 -59.1 -8.15 -59.85 0.55 -60.25 Q1.45 -65.5 0.95 -69.5 L0.55 -72.75 Q0.35 -74.45 0.5 -76.25 L-1.55 -75.8 -2.3 -75.95 Q-4.5 -76.15 -6.3 -77.45 L-7.25 -78.3 Q-8.4 -79.6 -8.6 -81.4 L-8.75 -82.85 -9.1 -87.25 Q-9.35 -90.95 -6.85 -92.75 -5.15 -94.0 -3.05 -94.8 1.8 -95.45 4.85 -92.3 L4.95 -91.65 11.7 -91.95 15.25 -91.7 Q18.25 -91.5 18.05 -88.55 L7.9 -87.85 5.05 -87.85 5.05 -87.8 Q5.0 -82.85 3.95 -77.7 L2.8 -77.1 2.75 -77.05 0.85 -76.35 Q0.65 -76.4 0.5 -76.6 L0.5 -76.25 0.85 -76.35 1.3 -76.4 2.75 -77.05 2.8 -77.05 2.8 -69.2 Q2.8 -64.4 3.65 -60.2 L9.65 -59.8 19.05 -59.5 Q21.35 -59.6 23.65 -58.5 L23.3 -58.2 23.65 -57.7 M4.95 -91.65 L2.9 -91.25 2.3 -91.1 2.9 -91.25 4.95 -91.65 M3.05 -90.6 Q2.05 -90.05 2.65 -88.5 2.85 -87.9 3.3 -87.9 L5.05 -87.85 3.3 -87.9 Q2.85 -87.9 2.65 -88.5 2.05 -90.05 3.05 -90.6 M-21.35 -56.45 L-21.1 -56.45 -13.3 -55.25 -3.35 -54.45 6.0 -54.35 Q9.0 -54.2 13.95 -54.5 18.7 -54.85 23.3 -58.2 18.7 -54.85 13.95 -54.5 9.0 -54.2 6.0 -54.35 L-3.35 -54.45 -13.3 -55.25 -21.1 -56.45 -21.35 -56.45 M1.05 -83.45 L0.25 -83.35 0.6 -83.35 1.05 -83.4 1.05 -83.45 Q0.75 -86.5 -0.15 -89.35 -0.65 -91.05 -2.05 -91.6 -0.65 -91.05 -0.15 -89.35 0.75 -86.5 1.05 -83.45 M0.65 -78.0 L1.05 -78.55 1.2 -79.65 1.05 -83.4 1.2 -79.65 1.05 -78.55 0.65 -78.0 M4.55 -50.4 L7.65 -50.6 Q8.6 -47.2 8.8 -43.2 7.25 -42.3 5.1 -42.25 L4.55 -50.4 5.1 -42.25 Q7.25 -42.3 8.8 -43.2 8.6 -47.2 7.65 -50.6 L4.55 -50.4 M0.55 -60.25 L0.6 -58.6 1.25 -57.75 Q3.65 -57.2 3.65 -60.2 3.65 -57.2 1.25 -57.75 L0.6 -58.6 0.55 -60.25 M23.75 -15.0 L24.0 -11.2 Q24.1 -10.15 23.5 -9.55 22.05 -8.1 19.35 -7.6 L18.3 -7.55 15.2 -7.3 5.85 -6.3 -3.55 -5.75 -13.3 -6.15 Q-18.15 -6.85 -22.55 -8.85 -23.15 -9.15 -23.2 -9.7 L-23.5 -13.95 -23.2 -9.7 Q-23.15 -9.15 -22.55 -8.85 -18.15 -6.85 -13.3 -6.15 L-3.55 -5.75 5.85 -6.3 15.2 -7.3 18.3 -7.55 19.35 -7.6 Q22.05 -8.1 23.5 -9.55 24.1 -10.15 24.0 -11.2 L23.75 -15.0 M-10.95 -17.05 L-10.6 -16.3 Q-10.35 -15.2 -10.4 -14.0 -10.45 -12.35 -13.05 -12.8 -14.1 -15.2 -13.95 -18.0 L-10.95 -17.6 -9.7 -17.6 Q-4.7 -17.75 0.25 -17.5 L3.85 -17.55 6.9 -18.05 9.2 -18.65 Q10.35 -19.0 10.25 -20.1 L9.8 -23.35 8.65 -28.0 Q7.35 -32.45 7.0 -37.55 L0.0 -38.2 -9.7 -38.3 -15.25 -37.9 -9.7 -38.3 0.0 -38.2 7.0 -37.55 Q7.35 -32.45 8.65 -28.0 L9.8 -23.35 Q14.85 -23.7 19.1 -24.8 L20.1 -24.95 Q22.35 -25.0 23.45 -25.9 22.35 -25.0 20.1 -24.95 L19.1 -24.8 Q14.85 -23.7 9.8 -23.35 L10.25 -20.1 Q10.35 -19.0 9.2 -18.65 L6.9 -18.05 3.85 -17.55 Q3.55 -14.9 4.25 -13.6 L7.25 -13.85 Q7.35 -15.65 7.1 -17.0 7.35 -15.65 7.25 -13.85 L4.25 -13.6 Q3.55 -14.9 3.85 -17.55 L0.25 -17.5 Q-4.7 -17.75 -9.7 -17.6 L-10.95 -17.6 -13.95 -18.0 Q-14.1 -15.2 -13.05 -12.8 -10.45 -12.35 -10.4 -14.0 -10.35 -15.2 -10.6 -16.3 L-10.95 -17.05 M18.75 -38.7 L18.7 -38.7 Q18.5 -38.3 18.05 -38.7 18.5 -38.3 18.7 -38.7 L18.75 -39.15 Q18.9 -44.0 18.65 -48.9 18.6 -50.4 18.05 -51.25 L21.0 -51.05 21.2 -48.6 23.6 -50.1 21.2 -48.6 21.0 -51.05 18.05 -51.25 Q18.6 -50.4 18.65 -48.9 18.9 -44.0 18.75 -39.15 L18.7 -38.7 18.75 -38.7 20.6 -39.15 22.75 -39.0 23.5 -38.75 22.75 -39.0 20.6 -39.15 18.75 -38.7 Q20.8 -38.6 22.4 -36.9 L23.45 -35.9 22.4 -36.9 Q20.8 -38.6 18.75 -38.7 M21.85 -39.85 L21.8 -40.8 21.35 -46.45 20.65 -45.8 21.35 -46.45 Q22.4 -47.45 23.6 -47.6 22.4 -47.45 21.35 -46.45 L21.8 -40.8 21.85 -39.85 M21.2 -48.6 L20.45 -48.2 21.2 -48.6 M-10.45 -92.35 Q-10.35 -90.3 -11.3 -88.7 -12.0 -87.55 -14.0 -87.55 -18.95 -87.55 -24.05 -88.65 -24.8 -89.75 -24.05 -91.7 -22.65 -93.15 -20.1 -93.0 L-10.45 -92.35 M1.05 -78.55 L-1.05 -78.45 -2.15 -78.4 -5.0 -78.35 Q-4.5 -80.25 -4.35 -82.2 -3.1 -80.85 -2.15 -78.45 L-1.95 -79.9 Q-1.85 -81.4 -1.3 -82.7 L1.05 -78.55 -1.3 -82.7 Q-1.85 -81.4 -1.95 -79.9 L-2.15 -78.45 Q-3.1 -80.85 -4.35 -82.2 -4.5 -80.25 -5.0 -78.35 L-2.15 -78.4 -1.05 -78.45 1.05 -78.55 M-8.75 -82.85 L-5.1 -78.35 -7.25 -78.3 -5.1 -78.35 -8.75 -82.85 -4.4 -83.1 -1.25 -83.25 0.25 -83.35 -1.25 -83.25 -4.4 -83.1 -8.75 -82.85 M-5.0 -78.35 L-5.1 -78.35 -5.05 -78.3 -5.0 -78.35 M-23.3 -24.2 L-17.3 -23.6 -17.3 -26.2 -17.05 -29.45 -16.1 -37.95 -16.05 -38.95 -16.1 -37.95 -17.05 -29.45 -17.3 -26.2 -17.3 -23.6 -17.4 -20.2 -17.3 -23.6 -23.3 -24.2 M-17.05 -19.35 Q-15.65 -18.45 -13.95 -18.0 -15.65 -18.45 -17.05 -19.35 M-22.25 -38.5 L-22.15 -40.05 -22.25 -38.5 M-21.95 -43.35 L-21.85 -46.05 -21.8 -47.65 -21.85 -46.05 -21.95 -43.35 M-8.65 -35.55 Q-7.9 -33.8 -5.5 -32.55 -2.85 -33.25 -2.5 -36.05 L-7.9 -36.05 -2.5 -36.05 Q-2.85 -33.25 -5.5 -32.55 -7.9 -33.8 -8.65 -35.55 M-11.8 -51.0 Q-11.25 -50.7 -11.25 -49.6 -11.25 -46.5 -11.75 -43.75 -13.6 -43.1 -16.3 -43.25 L-16.05 -50.9 -11.8 -51.0 -16.05 -50.9 -16.3 -43.25 Q-13.6 -43.1 -11.75 -43.75 -11.25 -46.5 -11.25 -49.6 -11.25 -50.7 -11.8 -51.0 M-1.05 -77.35 Q-1.2 -76.25 -1.55 -75.8 -1.2 -76.25 -1.05 -77.35" fill="#ffffff" fill-rule="evenodd" stroke="none"/>
    <path d="M23.65 -57.7 L23.6 -50.4 23.6 -50.1 28.55 -53.3 Q31.55 -55.3 32.6 -58.2 L32.75 -59.1 32.55 -69.05 32.3 -70.35 Q30.0 -69.55 29.95 -72.4 L29.7 -76.0 Q29.45 -77.65 29.5 -79.3 29.55 -80.4 31.05 -79.85 31.75 -75.8 31.85 -72.15 L34.55 -72.5 Q34.45 -76.4 35.35 -79.45 37.9 -79.2 37.75 -76.9 L37.65 -73.1 Q37.65 -71.65 37.3 -70.55 36.9 -69.5 34.9 -70.15 35.1 -65.55 35.55 -63.35 L36.5 -58.6 Q37.05 -56.05 34.2 -54.3 31.3 -52.55 28.55 -50.25 25.75 -48.0 23.6 -47.6 L23.5 -40.7 23.5 -38.75 Q25.85 -37.85 28.0 -35.85 L28.8 -34.8 Q29.85 -32.95 31.1 -31.8 L30.05 -30.95 28.1 -30.9 Q26.7 -33.1 24.75 -34.75 L23.45 -35.9 23.4 -31.05 23.45 -25.9 23.5 -21.1 23.75 -15.0 Q26.5 -12.5 27.6 -8.85 27.75 -8.4 27.5 -8.1 26.05 -6.1 23.2 -4.8 18.65 -2.65 13.75 -2.4 L9.9 -2.15 0.25 -1.8 -9.4 -1.7 Q-14.15 -1.55 -18.6 -2.7 -23.45 -3.95 -27.55 -7.05 -26.4 -11.0 -23.5 -13.95 L-23.55 -19.35 -23.3 -24.2 -23.0 -29.0 -22.25 -38.4 -22.25 -38.5 Q-23.6 -37.55 -24.55 -34.85 -25.65 -34.25 -25.95 -34.95 -25.15 -38.2 -22.15 -40.05 L-21.95 -43.35 Q-24.75 -44.55 -27.2 -46.4 -30.8 -49.2 -33.6 -52.3 -34.1 -52.9 -34.4 -53.85 L-36.25 -60.7 -37.75 -66.2 -39.55 -64.7 -41.95 -66.5 -44.0 -67.95 Q-46.6 -69.5 -43.4 -71.25 -42.1 -71.55 -40.25 -69.65 -38.7 -67.85 -37.85 -70.15 -39.1 -71.8 -41.1 -73.65 -40.2 -74.9 -37.9 -75.0 L-35.5 -72.95 Q-34.15 -71.7 -34.75 -70.3 -35.15 -69.4 -34.75 -68.45 L-33.8 -66.05 Q-32.3 -61.9 -31.75 -57.2 -31.6 -56.15 -31.25 -55.6 L-29.35 -53.05 Q-26.5 -49.25 -21.8 -47.65 -21.65 -51.7 -21.65 -55.7 M-21.65 -56.45 L-22.4 -56.5 M-21.65 -56.45 L-21.35 -56.45 Q-18.95 -58.0 -17.45 -58.35 L-14.05 -59.1 -8.15 -59.85 0.55 -60.25 Q1.45 -65.5 0.95 -69.5 L0.55 -72.75 Q0.35 -74.45 0.5 -76.25 L-1.55 -75.8 -2.3 -75.95 Q-4.5 -76.15 -6.3 -77.45 L-7.25 -78.3 Q-8.4 -79.6 -8.6 -81.4 L-8.75 -82.85 -9.1 -87.25 Q-9.35 -90.95 -6.85 -92.75 -5.15 -94.0 -3.05 -94.8 1.8 -95.45 4.85 -92.3 L4.95 -91.65 11.7 -91.95 15.25 -91.7 Q18.25 -91.5 18.05 -88.55 L7.9 -87.85 5.05 -87.85 5.05 -87.8 Q5.0 -82.85 3.95 -77.7 L2.8 -77.05 2.8 -69.2 Q2.8 -64.4 3.65 -60.2 L9.65 -59.8 19.05 -59.5 Q21.35 -59.6 23.65 -58.5 24.15 -58.3 23.65 -57.7 L23.65 -58.5 23.3 -58.2 Q18.7 -54.85 13.95 -54.5 9.0 -54.2 6.0 -54.35 L-3.35 -54.45 -13.3 -55.25 -21.1 -56.45 -21.35 -56.45 M5.05 -87.85 L3.3 -87.9 Q2.85 -87.9 2.65 -88.5 2.05 -90.05 3.05 -90.6 M2.3 -91.1 L2.9 -91.25 4.95 -91.65 M1.05 -83.45 Q0.75 -86.5 -0.15 -89.35 -0.65 -91.05 -2.05 -91.6 M1.05 -83.45 L1.05 -83.4 1.2 -79.65 1.05 -78.55 0.65 -78.0 M0.25 -83.35 L0.6 -83.35 1.05 -83.4 M2.8 -77.05 L2.75 -77.05 1.3 -76.4 0.85 -76.35 0.5 -76.25 0.5 -76.6 Q0.65 -76.4 0.85 -76.35 L2.75 -77.05 2.8 -77.1 2.8 -77.05 M3.65 -60.2 Q3.65 -57.2 1.25 -57.75 L0.6 -58.6 0.55 -60.25 M4.55 -50.4 L5.1 -42.25 Q7.25 -42.3 8.8 -43.2 8.6 -47.2 7.65 -50.6 L4.55 -50.4 M18.05 -38.7 Q18.5 -38.3 18.7 -38.7 L18.75 -39.15 Q18.9 -44.0 18.65 -48.9 18.6 -50.4 18.05 -51.25 L21.0 -51.05 21.2 -48.6 23.6 -50.1 M20.65 -45.8 L21.35 -46.45 Q22.4 -47.45 23.6 -47.6 M20.45 -48.2 L21.2 -48.6 M21.35 -46.45 L21.8 -40.8 21.85 -39.85 M23.5 -38.75 L22.75 -39.0 20.6 -39.15 18.75 -38.7 Q20.8 -38.6 22.4 -36.9 L23.45 -35.9 M18.7 -38.7 L18.75 -38.7 M-15.25 -37.9 L-9.7 -38.3 0.0 -38.2 7.0 -37.55 Q7.35 -32.45 8.65 -28.0 L9.8 -23.35 Q14.85 -23.7 19.1 -24.8 L20.1 -24.95 Q22.35 -25.0 23.45 -25.9 M9.8 -23.35 L10.25 -20.1 Q10.35 -19.0 9.2 -18.65 L6.9 -18.05 3.85 -17.55 Q3.55 -14.9 4.25 -13.6 L7.25 -13.85 Q7.35 -15.65 7.1 -17.0 M3.85 -17.55 L0.25 -17.5 Q-4.7 -17.75 -9.7 -17.6 L-10.95 -17.6 -13.95 -18.0 Q-14.1 -15.2 -13.05 -12.8 -10.45 -12.35 -10.4 -14.0 -10.35 -15.2 -10.6 -16.3 L-10.95 -17.05 M-23.5 -13.95 L-23.2 -9.7 Q-23.15 -9.15 -22.55 -8.85 -18.15 -6.85 -13.3 -6.15 L-3.55 -5.75 5.85 -6.3 15.2 -7.3 18.3 -7.55 19.35 -7.6 Q22.05 -8.1 23.5 -9.55 24.1 -10.15 24.0 -11.2 L23.75 -15.0 M-10.45 -92.35 L-20.1 -93.0 Q-22.65 -93.15 -24.05 -91.7 -24.8 -89.75 -24.05 -88.65 -18.95 -87.55 -14.0 -87.55 -12.0 -87.55 -11.3 -88.7 -10.35 -90.3 -10.45 -92.35 M-8.75 -82.85 L-4.4 -83.1 -1.25 -83.25 0.25 -83.35 M-7.25 -78.3 L-5.1 -78.35 -8.75 -82.85 M-5.0 -78.35 Q-4.5 -80.25 -4.35 -82.2 -3.1 -80.85 -2.15 -78.45 L-1.95 -79.9 Q-1.85 -81.4 -1.3 -82.7 L1.05 -78.55 -1.05 -78.45 -2.15 -78.4 -5.0 -78.35 -5.1 -78.35 -5.05 -78.3 -5.0 -78.35 M-1.55 -75.8 Q-1.2 -76.25 -1.05 -77.35 M-11.8 -51.0 L-16.05 -50.9 -16.3 -43.25 Q-13.6 -43.1 -11.75 -43.75 -11.25 -46.5 -11.25 -49.6 -11.25 -50.7 -11.8 -51.0 M-7.9 -36.05 L-2.5 -36.05 Q-2.85 -33.25 -5.5 -32.55 -7.9 -33.8 -8.65 -35.55 M-16.05 -38.95 L-16.1 -37.95 -17.05 -29.45 -17.3 -26.2 -17.3 -23.6 -17.4 -20.2 M-21.8 -47.65 L-21.85 -46.05 -21.95 -43.35 M-22.15 -40.05 L-22.25 -38.5 M-13.95 -18.0 Q-15.65 -18.45 -17.05 -19.35 M-17.3 -23.6 L-23.3 -24.2" fill="none" stroke="#000000" stroke-linecap="round" stroke-linejoin="round" stroke-width="0.05"/>
  </g>
</svg>
