<?xml version="1.0" encoding="UTF-8" standalone="no"?>
<!DOCTYPE svg PUBLIC "-//W3C//DTD SVG 1.1//EN" "http://www.w3.org/Graphics/SVG/1.1/DTD/svg11.dtd">
<svg width="102px" height="132px" version="1.1" xmlns="http://www.w3.org/2000/svg" xmlns:xlink="http://www.w3.org/1999/xlink" xml:space="preserve" xmlns:serif="http://www.serif.com/" style="fill-rule:evenodd;clip-rule:evenodd;stroke-linejoin:round;stroke-miterlimit:2;">
    <g transform="matrix(0.619571,0,0,0.619571,-17.1528,-3.85399)">
        <path d="M120.076,117.301C120.076,117.301 119.623,114.319 119.623,111.551C119.623,108.989 117.566,106.913 115.028,106.913L115.027,106.913C112.635,106.913 110.697,108.869 110.697,111.283L110.697,117.301C110.468,121.833 111.073,124.878 112.34,126.743L125.595,138.029C125.013,139.391 124.908,141.026 125.049,142.803L125.049,178.685C125.049,178.685 121.957,181.664 120.811,183.354C118.86,186.234 115.432,192.758 113.34,195.965C111.841,198.262 109.755,200.3 108.256,202.597C106.164,205.804 100.785,215.208 100.785,215.208C98.017,215.289 95.66,216.69 95.47,218.438L108.327,218.438C110.561,218.438 112.724,217.652 114.436,216.217C119.007,212.425 128.024,204.9 130.331,202.597C132.585,200.348 133.576,197.386 135.846,195.148C138.619,192.413 146.716,185.69 149.958,183.016C150.746,182.364 151.887,182.372 152.665,183.034C156.414,186.225 166.727,195.005 166.727,195.005C168.411,196.474 169.679,196.86 170.77,196.788L175.185,196.788L175.185,185.263C176.121,184.232 176.909,183.191 177.556,182.138C178.255,181 178.787,179.849 179.159,178.685L179.159,162.409C179.082,160.562 179.449,159.022 180.16,157.72L187.631,145.109C187.631,145.109 188.64,143.22 189.593,141.435C190.684,139.392 191.267,137.116 191.292,134.8C191.357,128.813 191.482,117.301 191.482,117.301L191.482,111.551C191.482,108.989 189.424,106.913 186.886,106.913L186.885,106.913C184.493,106.913 182.555,108.869 182.555,111.283L182.555,117.301C182.486,121.643 182.03,125.697 180.544,127.835C179.818,128.879 178.847,129.466 177.556,129.407L175.221,125.233C175.783,123.208 175.863,121.003 175.521,118.64L169.421,106.352L163.32,119.047C158.285,118.427 153.251,118.474 148.217,119.047L142.116,106.352L136.921,117.301C136.068,120.106 135.962,122.316 137.333,125.233C135.916,127.277 135.032,130.123 135.032,130.123C129.837,128.753 128.495,127.802 125.317,125.365C122.884,123.498 120.205,120.519 120.076,117.301ZM42.455,144.683C38.031,145.142 38.534,139.601 38.603,136.978L38.603,131.228C38.603,128.666 36.545,126.59 34.007,126.59L34.006,126.59C31.614,126.59 29.676,128.546 29.676,130.96C29.676,133.8 29.17,136.978 29.17,136.978C28.399,140.721 28.024,142.131 28.984,145.963L36.456,158.574L44.331,162.409L44.331,179.252C41.048,179.55 38.575,181.165 36.456,183.354L28.984,195.965C27.76,197.067 27.649,198.108 28.518,199.094L44.794,199.094C47.281,198.291 49.397,196.968 51.158,195.148C51.158,195.148 61.056,186.719 65.286,183.116C66.37,182.193 67.964,182.193 69.048,183.116C73.28,186.718 83.181,195.148 83.181,195.148C85.482,197.501 88.942,197.223 93.317,197.223L97.732,197.223L97.732,187.124C97.732,185.523 97.07,183.993 95.902,182.898C93.74,180.872 90.435,177.773 90.435,177.773L85.573,169.631C88.536,164.104 91.931,158.576 95.631,153.048C98.788,148.327 100.054,142.592 99.178,136.98L99.191,136.978C99.191,136.978 98.632,133.996 98.632,131.228C98.632,128.666 96.575,126.59 94.037,126.59L94.035,126.59C91.644,126.59 89.706,128.546 89.706,130.96L89.706,136.978C89.722,141.712 86.972,146.142 85.886,145.451C84.639,144.656 84.738,142.76 82.465,137.653L75.91,125.365L69.81,138.122C65.286,137.778 61.524,137.785 58.476,138.122L52.375,125.365L45.934,137.483C45.934,137.483 43.292,142.198 42.455,144.683ZM72.354,41.871C64.529,50.469 64.945,59.066 72.354,67.664C72.354,67.664 80.685,74.757 85.409,78.779C87.458,80.523 90.061,81.481 92.752,81.481L102.289,81.481C104.98,81.481 107.584,80.523 109.633,78.779C114.357,74.757 122.688,67.664 122.688,67.664C130.942,59.066 131.762,50.469 122.688,41.871C122.688,41.871 113.93,34.134 109.024,29.8C106.939,27.958 104.254,26.942 101.472,26.942L94.087,26.942C91.377,26.942 88.756,27.907 86.693,29.663C81.635,33.969 72.354,41.871 72.354,41.871Z" style="fill:white;"/>
    </g>
    <g transform="matrix(0.619571,0,0,0.619571,-17.1528,-3.85399)">
        <path d="M95.47,219.271L111.745,219.271C112.205,219.271 112.579,218.898 112.579,218.438C112.579,217.978 112.205,217.605 111.745,217.605L95.47,217.605C95.01,217.605 94.636,217.978 94.636,218.438C94.636,218.898 95.01,219.271 95.47,219.271ZM107.539,202.172L100.068,214.783C99.833,215.179 99.964,215.69 100.36,215.925C100.756,216.159 101.267,216.028 101.502,215.633L108.973,203.022C109.208,202.626 109.077,202.115 108.681,201.88C108.285,201.646 107.774,201.777 107.539,202.172ZM129.791,201.962L116.535,213.248C116.185,213.546 116.143,214.072 116.441,214.422C116.739,214.772 117.265,214.815 117.616,214.517L130.871,203.232C131.222,202.933 131.264,202.407 130.966,202.057C130.668,201.707 130.141,201.664 129.791,201.962ZM28.518,199.927L44.794,199.927C45.254,199.927 45.627,199.554 45.627,199.094C45.627,198.634 45.254,198.261 44.794,198.261L28.518,198.261C28.058,198.261 27.685,198.634 27.685,199.094C27.685,199.554 28.058,199.927 28.518,199.927ZM85.934,197.839L90.222,197.839C90.681,197.839 91.055,197.465 91.055,197.005C91.055,196.545 90.681,196.172 90.222,196.172L85.934,196.172C85.474,196.172 85.101,196.545 85.101,197.005C85.101,197.465 85.474,197.839 85.934,197.839ZM170.77,197.622L175.185,197.622C175.646,197.622 176.019,197.248 176.019,196.788L176.019,185.263C176.019,184.803 175.645,184.429 175.185,184.429C174.725,184.429 174.352,184.803 174.352,185.263L174.352,195.955L170.77,195.955C170.31,195.955 169.937,196.328 169.937,196.788C169.937,197.248 170.31,197.622 170.77,197.622ZM93.317,197.622L97.732,197.622C98.193,197.622 98.566,197.248 98.566,196.788L98.566,185.263C98.566,184.803 98.192,184.429 97.732,184.429C97.272,184.429 96.899,184.803 96.899,185.263L96.899,195.955L93.317,195.955C92.857,195.955 92.484,196.328 92.484,196.788C92.484,197.248 92.857,197.622 93.317,197.622ZM35.739,182.93L28.267,195.54C28.033,195.936 28.164,196.448 28.559,196.682C28.955,196.917 29.467,196.786 29.701,196.39L37.173,183.779C37.407,183.383 37.276,182.872 36.881,182.637C36.485,182.403 35.973,182.534 35.739,182.93ZM120.094,182.93L112.623,195.54C112.388,195.936 112.519,196.448 112.915,196.682C113.311,196.917 113.822,196.786 114.057,196.39L121.528,183.779C121.763,183.383 121.632,182.872 121.236,182.637C120.84,182.403 120.329,182.534 120.094,182.93ZM148.562,183.228L135.306,194.513C134.956,194.811 134.914,195.338 135.212,195.688C135.51,196.038 136.036,196.08 136.386,195.782L149.642,184.497C149.992,184.199 150.035,183.672 149.737,183.322C149.438,182.972 148.912,182.93 148.562,183.228ZM63.873,183.228L50.617,194.513C50.267,194.811 50.225,195.338 50.523,195.688C50.821,196.038 51.348,196.08 51.698,195.782L64.954,184.497C65.304,184.199 65.346,183.672 65.048,183.322C64.75,182.972 64.223,182.93 63.873,183.228ZM69.385,184.497L82.641,195.782C82.991,196.08 83.517,196.038 83.816,195.688C84.114,195.338 84.071,194.811 83.721,194.513L70.465,183.228C70.115,182.93 69.589,182.972 69.291,183.322C68.992,183.672 69.035,184.199 69.385,184.497ZM152.931,184.355L166.187,195.64C166.537,195.938 167.064,195.896 167.362,195.546C167.66,195.195 167.618,194.669 167.268,194.371L154.012,183.086C153.662,182.788 153.135,182.83 152.837,183.18C152.539,183.53 152.581,184.057 152.931,184.355ZM45.164,178.685L45.164,162.409C45.164,161.95 44.791,161.576 44.331,161.576C43.871,161.576 43.497,161.95 43.497,162.409L43.497,178.685C43.497,179.145 43.871,179.518 44.331,179.518C44.791,179.518 45.164,179.145 45.164,178.685ZM125.883,178.685L125.883,162.409C125.883,161.95 125.509,161.576 125.049,161.576C124.589,161.576 124.216,161.95 124.216,162.409L124.216,178.685C124.216,179.145 124.589,179.518 125.049,179.518C125.509,179.518 125.883,179.145 125.883,178.685ZM179.992,178.685L179.992,162.409C179.992,161.95 179.619,161.576 179.159,161.576C178.699,161.576 178.326,161.95 178.326,162.409L178.326,178.685C178.326,179.145 178.699,179.518 179.159,179.518C179.619,179.518 179.992,179.145 179.992,178.685ZM91.151,177.345L86.546,169.635L91.039,162.228C91.278,161.835 91.152,161.322 90.759,161.084C90.366,160.845 89.853,160.971 89.614,161.364L84.86,169.199C84.7,169.463 84.699,169.794 84.857,170.059L89.72,178.2C89.956,178.595 90.468,178.724 90.863,178.488C91.258,178.252 91.387,177.74 91.151,177.345ZM125.883,159.078L125.883,142.803C125.883,142.343 125.509,141.969 125.049,141.969C124.589,141.969 124.216,142.343 124.216,142.803L124.216,159.078C124.216,159.538 124.589,159.911 125.049,159.911C125.509,159.911 125.883,159.538 125.883,159.078ZM28.267,146.388L35.739,158.999C35.973,159.394 36.485,159.525 36.881,159.291C37.276,159.056 37.407,158.545 37.173,158.149L29.701,145.538C29.467,145.143 28.955,145.012 28.559,145.246C28.164,145.48 28.033,145.992 28.267,146.388ZM41.77,144.208C38.519,148.898 38.349,153.588 41.783,158.277C42.054,158.648 42.576,158.729 42.947,158.457C43.318,158.186 43.399,157.664 43.127,157.293C40.166,153.248 40.336,149.203 43.14,145.158C43.402,144.78 43.308,144.26 42.93,143.998C42.552,143.736 42.032,143.83 41.77,144.208ZM84.329,145.158C87.133,149.203 87.303,153.248 84.341,157.293C84.07,157.664 84.15,158.186 84.521,158.457C84.892,158.729 85.414,158.648 85.686,158.277C89.12,153.588 88.95,148.898 85.699,144.208C85.437,143.83 84.917,143.736 84.539,143.998C84.161,144.26 84.067,144.78 84.329,145.158ZM99.132,144.684L91.661,157.295C91.426,157.69 91.557,158.202 91.953,158.436C92.348,158.671 92.86,158.54 93.094,158.144L100.566,145.533C100.8,145.138 100.67,144.626 100.274,144.392C99.878,144.157 99.367,144.288 99.132,144.684ZM186.914,144.684L179.443,157.295C179.208,157.69 179.339,158.202 179.735,158.436C180.131,158.671 180.642,158.54 180.877,158.144L188.348,145.533C188.583,145.138 188.452,144.626 188.056,144.392C187.66,144.157 187.149,144.288 186.914,144.684ZM64.34,157.477L69.685,146.214C69.882,145.798 69.705,145.301 69.29,145.104C68.874,144.906 68.377,145.084 68.18,145.499L66.897,148.202L60.277,148.202L58.994,145.499C58.797,145.083 58.3,144.906 57.884,145.104C57.469,145.301 57.291,145.798 57.489,146.214L62.834,157.477C62.972,157.768 63.265,157.953 63.587,157.953C63.909,157.953 64.202,157.768 64.34,157.477ZM66.106,149.868L61.068,149.868L63.587,155.176L66.106,149.868ZM52.349,142.07C51.27,142.07 50.395,142.945 50.395,144.024C50.395,145.102 51.27,145.977 52.349,145.977C53.427,145.977 54.302,145.102 54.302,144.024C54.302,142.945 53.427,142.07 52.349,142.07ZM74.564,142.07C73.486,142.07 72.61,142.945 72.61,144.024C72.61,145.102 73.486,145.977 74.564,145.977C75.642,145.977 76.518,145.102 76.518,144.024C76.518,142.945 75.642,142.07 74.564,142.07ZM74.564,143.181C75.029,143.181 75.407,143.559 75.407,144.024C75.407,144.489 75.029,144.866 74.564,144.866C74.099,144.866 73.721,144.489 73.721,144.024C73.721,143.559 74.099,143.181 74.564,143.181ZM52.349,143.181C52.814,143.181 53.191,143.559 53.191,144.024C53.191,144.489 52.814,144.866 52.349,144.866C51.884,144.866 51.506,144.489 51.506,144.024C51.506,143.559 51.884,143.181 52.349,143.181ZM136.648,124.758C133.397,129.448 133.227,134.137 136.661,138.827C136.932,139.198 137.454,139.279 137.825,139.007C138.196,138.735 138.277,138.214 138.005,137.843C135.044,133.797 135.214,129.752 138.018,125.707C138.28,125.329 138.186,124.81 137.808,124.548C137.43,124.286 136.91,124.38 136.648,124.758ZM174.536,125.707C177.34,129.752 177.51,133.797 174.548,137.843C174.277,138.214 174.357,138.735 174.728,139.007C175.099,139.279 175.621,139.198 175.893,138.827C179.327,134.137 179.156,129.448 175.905,124.758C175.643,124.38 175.124,124.286 174.746,124.548C174.368,124.81 174.274,125.329 174.536,125.707ZM192.087,138.326L192.087,122.05C192.087,121.59 191.714,121.217 191.254,121.217C190.794,121.217 190.421,121.59 190.421,122.05L190.421,138.326C190.421,138.785 190.794,139.159 191.254,139.159C191.714,139.159 192.087,138.785 192.087,138.326ZM111.799,127.378L125.055,138.663C125.406,138.961 125.932,138.919 126.23,138.569C126.528,138.219 126.486,137.692 126.136,137.394L112.88,126.109C112.53,125.811 112.003,125.853 111.705,126.203C111.407,126.553 111.449,127.08 111.799,127.378ZM70.556,138.024L75.91,127.239L81.265,138.024C81.469,138.436 81.97,138.604 82.382,138.4C82.794,138.195 82.962,137.695 82.757,137.283L76.657,124.994C76.516,124.711 76.227,124.532 75.91,124.532C75.594,124.532 75.305,124.711 75.164,124.994L69.063,137.283C68.859,137.695 69.027,138.195 69.439,138.4C69.851,138.604 70.352,138.436 70.556,138.024ZM47.021,138.024L52.375,127.239L57.73,138.024C57.934,138.436 58.435,138.604 58.847,138.4C59.258,138.195 59.427,137.695 59.222,137.283L53.122,124.994C52.981,124.711 52.692,124.532 52.375,124.532C52.059,124.532 51.77,124.711 51.629,124.994L45.528,137.283C45.324,137.695 45.492,138.195 45.904,138.4C46.316,138.604 46.817,138.436 47.021,138.024ZM159.593,137.943L164.938,126.679C165.135,126.264 164.958,125.766 164.543,125.569C164.127,125.372 163.63,125.549 163.432,125.965L162.15,128.667L155.53,128.667L154.247,125.965C154.05,125.549 153.553,125.372 153.137,125.569C152.721,125.767 152.544,126.264 152.742,126.679L158.087,137.943C158.225,138.234 158.518,138.419 158.84,138.419C159.162,138.419 159.455,138.234 159.593,137.943ZM99.466,136.978L99.466,131.228C99.466,128.204 97.033,125.756 94.037,125.756L94.035,125.756C91.186,125.756 88.872,128.084 88.872,130.96L88.872,136.978C88.872,137.438 89.246,137.811 89.706,137.811C90.165,137.811 90.539,137.438 90.539,136.978L90.539,130.96C90.539,129.009 92.102,127.423 94.035,127.423L94.037,127.423C96.117,127.423 97.799,129.129 97.799,131.228L97.799,136.978C97.799,137.438 98.172,137.811 98.632,137.811C99.092,137.811 99.466,137.438 99.466,136.978ZM39.436,136.978L39.436,131.228C39.436,128.204 37.003,125.756 34.007,125.756L34.006,125.756C31.156,125.756 28.842,128.084 28.842,130.96L28.842,136.978C28.842,137.438 29.216,137.811 29.676,137.811C30.136,137.811 30.509,137.438 30.509,136.978L30.509,130.96C30.509,129.009 32.072,127.423 34.006,127.423L34.007,127.423C36.087,127.423 37.769,129.129 37.769,131.228L37.769,136.978C37.769,137.438 38.143,137.811 38.603,137.811C39.063,137.811 39.436,137.438 39.436,136.978ZM161.359,130.334L156.321,130.334L158.84,135.642L161.359,130.334ZM147.652,122.459C146.573,122.459 145.698,123.334 145.698,124.412C145.698,125.491 146.573,126.366 147.652,126.366C148.73,126.366 149.605,125.491 149.605,124.412C149.605,123.334 148.73,122.459 147.652,122.459ZM169.867,122.459C168.789,122.459 167.913,123.334 167.913,124.412C167.913,125.491 168.789,126.366 169.867,126.366C170.945,126.366 171.821,125.491 171.821,124.412C171.821,123.334 170.945,122.459 169.867,122.459ZM147.652,123.57C148.117,123.57 148.494,123.947 148.494,124.412C148.494,124.877 148.117,125.255 147.652,125.255C147.187,125.255 146.809,124.877 146.809,124.412C146.809,123.947 147.187,123.57 147.652,123.57ZM169.867,123.57C170.332,123.57 170.71,123.947 170.71,124.412C170.71,124.877 170.332,125.255 169.867,125.255C169.402,125.255 169.024,124.877 169.024,124.412C169.024,123.947 169.402,123.57 169.867,123.57ZM164.066,119.011L169.421,108.226L174.775,119.011C174.979,119.423 175.48,119.591 175.892,119.387C176.304,119.182 176.472,118.682 176.268,118.27L170.167,105.981C170.026,105.698 169.737,105.518 169.421,105.518C169.104,105.518 168.815,105.698 168.674,105.981L162.574,118.27C162.369,118.682 162.537,119.182 162.949,119.387C163.361,119.591 163.862,119.423 164.066,119.011ZM136.762,119.011L142.116,108.226L147.47,119.011C147.675,119.423 148.175,119.591 148.587,119.387C148.999,119.182 149.167,118.682 148.963,118.27L142.862,105.981C142.722,105.698 142.432,105.518 142.116,105.518C141.799,105.518 141.51,105.698 141.37,105.981L135.269,118.27C135.064,118.682 135.233,119.182 135.645,119.387C136.057,119.591 136.557,119.423 136.762,119.011ZM192.315,117.301L192.315,111.551C192.315,108.527 189.882,106.079 186.886,106.079L186.885,106.079C184.035,106.079 181.721,108.407 181.721,111.283L181.721,117.301C181.721,117.761 182.095,118.134 182.555,118.134C183.015,118.134 183.388,117.761 183.388,117.301L183.388,111.283C183.388,109.332 184.951,107.746 186.885,107.746L186.886,107.746C188.966,107.746 190.648,109.452 190.648,111.551L190.648,117.301C190.648,117.761 191.022,118.134 191.482,118.134C191.942,118.134 192.315,117.761 192.315,117.301ZM120.457,117.301L120.457,111.551C120.457,108.527 118.024,106.079 115.028,106.079L115.027,106.079C112.177,106.079 109.863,108.407 109.863,111.283L109.863,117.301C109.863,117.761 110.237,118.134 110.697,118.134C111.157,118.134 111.53,117.761 111.53,117.301L111.53,111.283C111.53,109.332 113.093,107.746 115.027,107.746L115.028,107.746C117.108,107.746 118.79,109.452 118.79,111.551L118.79,117.301C118.79,117.761 119.164,118.134 119.623,118.134C120.083,118.134 120.457,117.761 120.457,117.301ZM98.796,102.04L98.796,85.765C98.796,85.305 98.423,84.932 97.963,84.932C97.503,84.932 97.129,85.305 97.129,85.765L97.129,102.04C97.129,102.5 97.503,102.874 97.963,102.874C98.423,102.874 98.796,102.5 98.796,102.04ZM120.394,88.73L133.65,100.015C134,100.313 134.526,100.271 134.825,99.921C135.123,99.57 135.081,99.044 134.73,98.746L121.474,87.461C121.124,87.163 120.598,87.205 120.3,87.555C120.002,87.905 120.044,88.432 120.394,88.73ZM74.059,87.461L60.803,98.746C60.453,99.044 60.411,99.57 60.709,99.921C61.007,100.271 61.533,100.313 61.884,100.015L75.14,88.73C75.49,88.432 75.532,87.905 75.234,87.555C74.936,87.205 74.409,87.163 74.059,87.461ZM89.555,82.315L105.83,82.315C106.29,82.315 106.664,81.941 106.664,81.481C106.664,81.021 106.29,80.648 105.83,80.648L89.555,80.648C89.095,80.648 88.722,81.021 88.722,81.481C88.722,81.941 89.095,82.315 89.555,82.315ZM122.148,67.03L108.892,78.315C108.542,78.613 108.5,79.139 108.798,79.49C109.096,79.84 109.622,79.882 109.973,79.584L123.228,68.299C123.579,68.001 123.621,67.474 123.323,67.124C123.025,66.774 122.498,66.732 122.148,67.03ZM71.813,68.299L85.069,79.584C85.419,79.882 85.946,79.84 86.244,79.49C86.542,79.139 86.5,78.613 86.15,78.315L72.894,67.03C72.544,66.732 72.017,66.774 71.719,67.124C71.421,67.474 71.463,68.001 71.813,68.299ZM68.24,47.47C64.989,52.16 64.819,56.85 68.253,61.539C68.525,61.911 69.046,61.991 69.417,61.72C69.789,61.448 69.869,60.926 69.598,60.555C66.636,56.51 66.806,52.465 69.61,48.42C69.872,48.042 69.778,47.522 69.4,47.26C69.022,46.998 68.502,47.092 68.24,47.47ZM126.208,48.42C129.012,52.465 129.182,56.51 126.22,60.555C125.949,60.926 126.029,61.448 126.4,61.72C126.772,61.991 127.293,61.911 127.565,61.539C130.999,56.85 130.829,52.16 127.578,47.47C127.316,47.092 126.796,46.998 126.418,47.26C126.04,47.522 125.946,48.042 126.208,48.42ZM99.368,60.733L104.713,49.469C104.911,49.054 104.733,48.556 104.318,48.359C103.902,48.162 103.405,48.339 103.208,48.754L101.925,51.457L95.305,51.457L94.023,48.754C93.825,48.339 93.328,48.162 92.913,48.359C92.497,48.556 92.32,49.053 92.517,49.469L97.862,60.733C98,61.024 98.293,61.209 98.615,61.209C98.937,61.209 99.23,61.024 99.368,60.733ZM101.134,53.124L96.096,53.124L98.615,58.432L101.134,53.124ZM44.794,54.936L61.069,54.936C61.529,54.936 61.903,54.563 61.903,54.103C61.903,53.643 61.529,53.27 61.069,53.27L44.794,53.27C44.334,53.27 43.961,53.643 43.961,54.103C43.961,54.563 44.334,54.936 44.794,54.936ZM133.261,54.936L149.536,54.936C149.996,54.936 150.369,54.563 150.369,54.103C150.369,53.643 149.996,53.27 149.536,53.27L133.261,53.27C132.801,53.27 132.427,53.643 132.427,54.103C132.427,54.563 132.801,54.936 133.261,54.936ZM113.908,44.61C112.313,44.61 111.019,45.904 111.019,47.499C111.019,49.094 112.313,50.389 113.908,50.389C115.503,50.389 116.798,49.094 116.798,47.499C116.798,45.904 115.503,44.61 113.908,44.61ZM81.121,44.61C79.526,44.61 78.231,45.904 78.231,47.499C78.231,49.094 79.526,50.389 81.121,50.389C82.716,50.389 84.01,49.094 84.01,47.499C84.01,45.904 82.716,44.61 81.121,44.61ZM113.908,46.276C114.583,46.276 115.131,46.824 115.131,47.499C115.131,48.174 114.583,48.722 113.908,48.722C113.233,48.722 112.685,48.174 112.685,47.499C112.685,46.824 113.233,46.276 113.908,46.276ZM81.121,46.276C81.796,46.276 82.344,46.824 82.344,47.499C82.344,48.174 81.796,48.722 81.121,48.722C80.446,48.722 79.898,48.174 79.898,47.499C79.898,46.824 80.446,46.276 81.121,46.276ZM108.892,31.22L122.148,42.505C122.498,42.803 123.025,42.761 123.323,42.411C123.621,42.061 123.579,41.534 123.228,41.236L109.973,29.951C109.622,29.653 109.096,29.695 108.798,30.045C108.5,30.396 108.542,30.922 108.892,31.22ZM85.069,29.951L71.813,41.236C71.463,41.534 71.421,42.061 71.719,42.411C72.017,42.761 72.544,42.803 72.894,42.505L86.15,31.22C86.5,30.922 86.542,30.396 86.244,30.045C85.946,29.695 85.419,29.653 85.069,29.951ZM89.555,27.775L105.83,27.775C106.29,27.775 106.664,27.402 106.664,26.942C106.664,26.482 106.29,26.109 105.83,26.109L89.555,26.109C89.095,26.109 88.722,26.482 88.722,26.942C88.722,27.402 89.095,27.775 89.555,27.775ZM98.796,23.836L98.796,7.561C98.796,7.101 98.423,6.727 97.963,6.727C97.503,6.727 97.129,7.101 97.129,7.561L97.129,23.836C97.129,24.296 97.503,24.669 97.963,24.669C98.423,24.669 98.796,24.296 98.796,23.836ZM60.803,11.12L74.059,22.405C74.409,22.703 74.936,22.661 75.234,22.311C75.532,21.961 75.49,21.434 75.14,21.136L61.884,9.851C61.533,9.553 61.007,9.595 60.709,9.945C60.411,10.296 60.453,10.822 60.803,11.12ZM134.076,9.851L120.82,21.136C120.47,21.434 120.427,21.961 120.725,22.311C121.024,22.661 121.55,22.703 121.9,22.405L135.156,11.12C135.506,10.822 135.548,10.296 135.25,9.945C134.952,9.595 134.426,9.553 134.076,9.851Z"/>
    </g>
</svg>
