<?xml version="1.0" encoding="UTF-8" standalone="no"?>
<!DOCTYPE svg PUBLIC "-//W3C//DTD SVG 1.1//EN" "http://www.w3.org/Graphics/SVG/1.1/DTD/svg11.dtd">
<svg width="92px" height="51px" version="1.1" xmlns="http://www.w3.org/2000/svg" xmlns:xlink="http://www.w3.org/1999/xlink" xml:space="preserve" xmlns:serif="http://www.serif.com/" style="fill-rule:evenodd;clip-rule:evenodd;stroke-linejoin:round;stroke-miterlimit:2;">
    <path d="M84.468,41.949C84.426,41.84 84.321,41.768 84.204,41.769C84.087,41.77 83.983,41.843 83.942,41.953C83.213,43.896 81.451,48.69 81.451,48.69C81.305,49.087 80.991,49.4 80.592,49.544C80.194,49.688 79.753,49.649 79.386,49.438C75.467,47.185 70.968,46.638 67.44,49.211C66.233,50.092 64.755,50.725 63.415,49.541C59.811,47.339 54.616,47.366 50.792,49.386C50.464,49.58 50.06,49.596 49.717,49.428C49.374,49.26 49.139,48.931 49.091,48.552C48.72,45.838 48.1,40.968 48.1,40.968C48.1,40.968 48.059,41.202 47.479,41.645C46.709,42.233 45.463,42.457 44.409,42.639L37.801,45.1C37.801,45.1 37.56,45.144 37.231,45.204C36.096,45.411 34.947,44.926 34.305,43.968C32.076,40.857 27.719,34.727 24.111,33.752C23.302,33.538 21.806,33.372 20.655,32.486C20.164,32.107 14.03,27.477 9.943,26.788C9.943,26.788 7.736,26.437 5.567,26.437C3.725,26.437 2.231,25.063 2.231,23.369C2.231,23.369 2.231,23.369 2.231,23.368C2.231,21.57 3.816,20.113 5.772,20.113L10.162,20.113L13.181,18.31C14.222,17.708 16.275,17.131 17.315,16.824C15.506,14.21 15.318,10.57 15.83,7.027C16.094,5.204 17.933,3.777 19.627,3.777C19.627,3.777 19.628,3.777 19.628,3.777C21.426,3.777 22.884,5.362 22.884,7.318C22.884,7.318 22.852,10.114 22.83,12.171C22.825,12.609 23.041,13.019 23.403,13.264C23.766,13.509 24.227,13.556 24.631,13.389C25.561,13 26.803,12.756 28.237,12.948C28.901,13.037 29.447,13.186 29.881,13.345C30.664,13.686 31.577,13.504 32.169,12.889C33.58,11.493 36.038,8.941 37.897,7.011C39.639,5.202 41.763,3.805 44.114,2.921C47.822,1.506 52.201,0.466 57.082,3.432C57.082,3.432 57.644,3.765 58.335,4.174C60.501,5.457 62.431,7.1 64.044,9.032C67.207,12.863 71.059,18.278 70.445,17.971C72.817,21.393 73.122,24.6 70.617,28.022C68.873,29.773 66.743,31.147 65.025,32.217C64.717,32.421 64.559,32.787 64.62,33.15C64.682,33.514 64.951,33.808 65.309,33.899C66.242,34.188 67.168,34.578 67.943,34.865C75.693,30.708 80.676,32.074 85.275,35.427C85.763,35.785 85.955,36.424 85.746,36.992C85.684,37.177 85.615,37.364 85.554,37.53C85.526,37.607 85.55,37.693 85.613,37.745C85.676,37.797 85.765,37.804 85.835,37.762C86.307,37.488 86.856,37.333 87.439,37.333C89.236,37.333 90.694,38.802 90.694,40.611C90.694,42.42 89.236,43.889 87.439,43.889C86.116,43.889 84.976,43.092 84.468,41.949Z" style="fill:white;"/>
    <path d="M67.243,49.912C71.122,47.669 75.002,47.535 78.881,49.904C79.19,50.093 79.595,49.995 79.784,49.685C79.973,49.376 79.875,48.971 79.566,48.782C75.239,46.14 70.912,46.272 66.585,48.774C66.271,48.956 66.164,49.358 66.345,49.672C66.527,49.986 66.929,50.093 67.243,49.912ZM51.046,49.912C54.925,47.669 58.804,47.535 62.684,49.904C62.993,50.093 63.398,49.995 63.587,49.685C63.776,49.376 63.678,48.971 63.369,48.782C59.042,46.14 54.715,46.272 50.388,48.774C50.074,48.956 49.967,49.358 50.148,49.672C50.33,49.986 50.732,50.093 51.046,49.912ZM35.633,45.802L37.452,45.802C37.838,45.802 38.151,45.489 38.151,45.103C38.151,44.717 37.838,44.404 37.452,44.404L35.633,44.404C35.247,44.404 34.934,44.717 34.934,45.103C34.934,45.489 35.247,45.802 35.633,45.802ZM64.935,44.103L68.731,35.329C68.884,34.975 68.721,34.564 68.367,34.41C68.013,34.257 67.601,34.42 67.448,34.774L63.652,43.548C63.499,43.902 63.662,44.314 64.016,44.467C64.37,44.62 64.782,44.457 64.935,44.103ZM87.206,44.17C86.128,44.165 85.262,43.814 84.658,43.21C84.049,42.601 83.698,41.726 83.698,40.636L83.698,40.636C83.698,39.546 84.049,38.671 84.658,38.062C85.262,37.458 86.128,37.107 87.206,37.102L87.263,37.102C87.924,37.106 88.548,37.258 89.134,37.545C89.341,37.646 89.456,37.868 89.423,38.092C89.419,38.123 89.411,38.155 89.399,38.189L89.275,38.446C89.114,38.767 88.804,38.741 88.804,38.741C88.722,38.741 88.642,38.722 88.569,38.685L88.568,38.685L88.569,38.685C88.152,38.477 87.706,38.373 87.232,38.373C86.546,38.373 85.975,38.591 85.579,38.989C85.182,39.387 84.969,39.959 84.969,40.636C84.969,41.313 85.182,41.884 85.579,42.283C85.975,42.681 86.546,42.899 87.232,42.899C87.706,42.899 88.152,42.795 88.569,42.586L88.568,42.587L88.569,42.586C88.642,42.55 88.722,42.531 88.804,42.531C88.804,42.531 89.114,42.505 89.275,42.825L89.399,43.083C89.411,43.116 89.418,43.149 89.423,43.18C89.456,43.404 89.341,43.626 89.134,43.727C88.548,44.014 87.924,44.165 87.263,44.17L87.206,44.17ZM41.275,39.552C42.4,39.24 43.373,38.763 44.277,38.505C44.977,38.305 45.627,38.245 46.286,38.683C46.699,38.957 46.933,39.262 47.028,39.578C47.24,40.29 46.804,41.009 46.527,41.221C45.836,41.749 44.708,41.919 43.762,42.081C43.382,42.147 43.126,42.508 43.192,42.889C43.257,43.269 43.619,43.524 43.999,43.459C45.162,43.259 46.526,42.981 47.375,42.331C47.91,41.923 48.776,40.549 48.367,39.179C48.195,38.603 47.81,38.017 47.06,37.519C46.018,36.827 44.999,36.845 43.893,37.16C42.992,37.418 42.022,37.894 40.901,38.206C40.529,38.309 40.311,38.694 40.414,39.066C40.517,39.438 40.903,39.656 41.275,39.552ZM26.688,35.583C28.197,36.975 29.912,39.013 30.826,40.378C31.048,40.709 31.498,40.798 31.829,40.576C32.161,40.354 32.249,39.905 32.027,39.573C31.064,38.136 29.258,35.987 27.669,34.521C27.376,34.25 26.918,34.268 26.648,34.562C26.377,34.855 26.395,35.312 26.688,35.583ZM70.737,34.815C74.617,32.572 78.496,32.438 82.375,34.807C82.684,34.996 83.089,34.898 83.278,34.589C83.467,34.279 83.369,33.874 83.06,33.685C78.733,31.043 74.406,31.176 70.079,33.677C69.766,33.859 69.658,34.261 69.84,34.575C70.021,34.889 70.423,34.997 70.737,34.815ZM51.046,34.815C54.925,32.572 58.804,32.438 62.684,34.807C62.993,34.996 63.398,34.898 63.587,34.589C63.776,34.279 63.678,33.874 63.369,33.685C59.042,31.043 54.715,31.176 50.388,33.677C50.074,33.859 49.967,34.261 50.148,34.575C50.33,34.889 50.732,34.997 51.046,34.815ZM19.731,32.418L21.255,33.979C21.524,34.255 21.967,34.261 22.243,33.991C22.519,33.722 22.525,33.279 22.255,33.003L20.731,31.441C20.461,31.165 20.018,31.16 19.742,31.429C19.466,31.699 19.461,32.142 19.731,32.418ZM58.014,21.448C58.003,21.458 57.991,21.467 57.981,21.477L57.984,21.474C57.736,21.686 57.688,22.052 57.874,22.321L58.115,22.709C58.408,23.266 58.552,23.935 58.552,24.714C58.552,25.619 58.372,26.348 58.005,26.899C58.004,26.9 58.004,26.9 58.004,26.901C57.709,27.35 57.369,27.586 56.969,27.586C56.363,27.586 56.01,27.073 55.84,26.1C56.17,25.425 56.334,24.763 56.334,24.115C56.334,23.681 56.273,23.379 56.17,23.205C56.072,23.04 55.937,22.964 55.773,22.964C55.597,22.964 55.414,23.067 55.248,23.31C54.91,23.799 54.733,24.525 54.733,25.491C54.733,25.617 54.738,25.765 54.747,25.935C54.253,27.019 53.697,27.586 53.031,27.586C52.73,27.586 52.516,27.397 52.371,27.042C52.371,27.042 52.371,27.041 52.371,27.041C52.263,26.781 52.21,26.462 52.21,26.085C52.21,24.723 52.807,23.508 53.992,22.437C53.992,22.437 53.992,22.437 53.992,22.437C54.246,22.207 54.274,21.817 54.054,21.555L54.022,21.518C53.91,21.386 53.75,21.305 53.577,21.294C53.403,21.282 53.232,21.343 53.104,21.461C52.668,21.862 52.311,22.254 52.031,22.635C51.242,23.706 50.849,24.867 50.849,26.12C50.849,26.875 51.003,27.497 51.305,27.987C51.305,27.988 51.305,27.988 51.305,27.988C51.707,28.637 52.262,28.959 52.966,28.959C53.773,28.959 54.483,28.487 55.076,27.519C55.464,28.486 56.105,28.959 56.98,28.959C57.865,28.959 58.599,28.509 59.174,27.595C59.174,27.595 59.174,27.595 59.174,27.595C59.665,26.813 59.913,25.861 59.913,24.738C59.913,23.526 59.586,22.468 58.938,21.56C58.937,21.559 58.937,21.558 58.936,21.557C58.832,21.416 58.673,21.324 58.499,21.304C58.324,21.283 58.148,21.335 58.014,21.448L58.014,21.448ZM30.785,17.511C28.237,21.188 28.103,24.864 30.795,28.54C31.009,28.833 31.421,28.897 31.713,28.682C32.006,28.468 32.07,28.057 31.855,27.764C29.536,24.596 29.669,21.428 31.865,18.26C32.072,17.962 31.998,17.552 31.7,17.345C31.402,17.139 30.992,17.213 30.785,17.511ZM69.551,18.26C71.747,21.428 71.88,24.596 69.561,27.764C69.346,28.057 69.41,28.468 69.703,28.682C69.995,28.897 70.407,28.833 70.621,28.54C73.313,24.864 73.179,21.188 70.631,17.511C70.424,17.213 70.015,17.139 69.717,17.345C69.418,17.552 69.344,17.962 69.551,18.26ZM9.631,19.543L5.241,19.543C2.883,19.543 1,21.331 1,23.498C1,23.499 1,23.499 1,23.499C1,25.562 2.791,27.266 5.036,27.266C7.205,27.266 9.631,27.266 9.631,27.266C10.017,27.266 10.33,26.952 10.33,26.567C10.33,26.181 10.017,25.868 9.631,25.868L5.036,25.868C3.594,25.868 2.398,24.824 2.398,23.499C2.398,23.499 2.398,23.498 2.398,23.498C2.398,22.069 3.686,20.941 5.241,20.941L9.631,20.941C10.017,20.941 10.33,20.628 10.33,20.242C10.33,19.857 10.017,19.543 9.631,19.543ZM67.409,18.382L65.464,16.438C65.191,16.165 64.749,16.165 64.476,16.438L62.532,18.382C62.259,18.655 62.259,19.097 62.532,19.37C62.805,19.643 63.248,19.643 63.52,19.37L64.97,17.92C64.97,17.92 66.42,19.37 66.42,19.37C66.693,19.643 67.136,19.643 67.409,19.37C67.681,19.097 67.681,18.655 67.409,18.382ZM47.491,18.363L45.546,16.419C45.273,16.146 44.831,16.146 44.558,16.419L42.614,18.363C42.341,18.636 42.341,19.079 42.614,19.352C42.887,19.624 43.33,19.624 43.602,19.352L45.052,17.902C45.052,17.902 46.502,19.352 46.502,19.352C46.775,19.624 47.218,19.624 47.491,19.352C47.763,19.079 47.763,18.636 47.491,18.363ZM13.237,19.42C17.116,17.177 20.995,17.043 24.874,19.412C25.184,19.601 25.589,19.504 25.778,19.194C25.967,18.884 25.869,18.48 25.559,18.291C21.233,15.648 16.906,15.781 12.579,18.283C12.265,18.464 12.157,18.866 12.339,19.18C12.521,19.494 12.923,19.602 13.237,19.42ZM40.301,3.447L30.929,12.971C30.658,13.246 30.662,13.689 30.937,13.96C31.212,14.23 31.654,14.227 31.925,13.952L41.297,4.427C41.568,4.152 41.564,3.709 41.289,3.439C41.014,3.168 40.571,3.172 40.301,3.447ZM23.052,11.837L23.052,7.446C23.052,5.089 21.265,3.206 19.098,3.206C19.097,3.206 19.097,3.206 19.097,3.206C17.033,3.206 15.33,4.997 15.33,7.242C15.33,9.411 15.33,11.837 15.33,11.837C15.33,12.223 15.643,12.536 16.029,12.536C16.415,12.536 16.728,12.223 16.728,11.837L16.728,7.242C16.728,5.8 17.772,4.604 19.097,4.604C19.097,4.604 19.098,4.604 19.098,4.604C20.527,4.604 21.655,5.892 21.655,7.446L21.655,11.837C21.655,12.223 21.968,12.536 22.353,12.536C22.739,12.536 23.052,12.223 23.052,11.837ZM8.096,4.651L5.738,10.395C5.601,10.731 5.761,11.115 6.097,11.253C6.432,11.39 6.817,11.23 6.954,10.894L9.312,5.15C9.45,4.814 9.289,4.43 8.954,4.292C8.618,4.155 8.234,4.315 8.096,4.651ZM4.554,4.651L2.196,10.395C2.059,10.731 2.219,11.115 2.555,11.253C2.89,11.39 3.274,11.23 3.412,10.894L5.77,5.15C5.908,4.814 5.747,4.43 5.412,4.292C5.076,4.155 4.692,4.315 4.554,4.651ZM59.859,6.037C61.367,7.429 63.082,9.468 63.997,10.832C64.219,11.164 64.668,11.252 65,11.03C65.331,10.808 65.42,10.359 65.198,10.028C64.234,8.59 62.428,6.442 60.839,4.975C60.546,4.704 60.088,4.723 59.818,5.016C59.547,5.309 59.566,5.767 59.859,6.037ZM44.575,4.129C48.454,1.886 52.333,1.752 56.213,4.121C56.522,4.31 56.927,4.213 57.116,3.903C57.305,3.594 57.207,3.189 56.897,3C52.571,0.357 48.244,0.49 43.917,2.992C43.603,3.173 43.496,3.576 43.677,3.889C43.859,4.203 44.261,4.311 44.575,4.129Z"/>
</svg>
