<?xml version="1.0" encoding="UTF-8" standalone="no"?>
<!DOCTYPE svg PUBLIC "-//W3C//DTD SVG 1.1//EN" "http://www.w3.org/Graphics/SVG/1.1/DTD/svg11.dtd">
<svg width="106px" height="93px" version="1.1" xmlns="http://www.w3.org/2000/svg" xmlns:xlink="http://www.w3.org/1999/xlink" xml:space="preserve" xmlns:serif="http://www.serif.com/" style="fill-rule:evenodd;clip-rule:evenodd;stroke-linejoin:round;stroke-miterlimit:2;">
    <g transform="matrix(0.383219,0,0,0.383219,6.7161,-11.5119)">
        <path d="M143.649,113.244L151.62,94.128C163.626,93.16 172.735,84.755 175.378,78.374L182.458,61.805C182.219,50.598 181.362,50.553 181.543,49.407C181.543,49.407 181.199,44.032 180.891,39.223C180.624,35.054 177.165,31.809 172.987,31.809L172.985,31.809C169.12,31.809 165.917,34.804 165.658,38.66C165.326,43.602 164.936,49.407 164.936,49.407C164.534,58.262 163.542,60.778 160.276,64.428L152.675,51L143,32L134.088,50.385C132.347,52.485 130.309,53.325 128.088,53.385L103.088,53.385C100.775,53.089 99.08,52.12 98.088,50.385L89,32L80,51L77,61C72.148,68 72.981,75.805 78.106,82.805C74.916,85.467 71.702,89.351 70.625,94.128L61.562,113.244L-11.888,113.244C-13.455,113.244 -14.861,114.207 -15.427,115.668C-15.993,117.129 -15.602,118.788 -14.444,119.844C-12.221,121.869 -10.349,123.576 -10.349,123.576L8.319,140.209L8.712,240.777L15.498,240.777L15.498,178.503L50.545,208.829L50.545,272.633L56.917,272.633L56.917,210.116L235.336,210.116L235.336,272.633L241.708,272.633L241.708,180.151C241.708,180.151 247.441,180.073 253.089,179.997C254.827,179.973 256.371,178.883 256.975,177.254C257.578,175.624 257.117,173.791 255.815,172.641C237.633,156.592 195.402,119.314 195.402,119.314L141.201,119.314L143.649,113.244Z" style="fill:white;"/>
    </g>
    <g transform="matrix(0.610477,0,0,0.610477,-14.2544,-40.2396)">
        <path d="M180.97,200.145L180.97,217.145C180.97,217.758 181.467,218.255 182.08,218.255C182.693,218.255 183.19,217.758 183.19,217.145L183.19,200.145C183.19,199.532 182.693,199.035 182.08,199.035C181.467,199.035 180.97,199.532 180.97,200.145ZM64.97,200.145L64.97,217.145C64.97,217.758 65.467,218.255 66.08,218.255C66.693,218.255 67.19,217.758 67.19,217.145L67.19,200.145C67.19,199.532 66.693,199.035 66.08,199.035C65.467,199.035 64.97,199.532 64.97,200.145ZM184.97,200.145L184.97,217.145C184.97,217.758 185.467,218.255 186.08,218.255C186.693,218.255 187.19,217.758 187.19,217.145L187.19,200.145C187.19,199.532 186.693,199.035 186.08,199.035C185.467,199.035 184.97,199.532 184.97,200.145ZM68.97,200.145L68.97,217.145C68.97,217.758 69.467,218.255 70.08,218.255C70.693,218.255 71.19,217.758 71.19,217.145L71.19,200.145C71.19,199.532 70.693,199.035 70.08,199.035C69.467,199.035 68.97,199.532 68.97,200.145ZM42.97,180.145L42.97,197.145C42.97,197.758 43.467,198.255 44.08,198.255C44.693,198.255 45.19,197.758 45.19,197.145L45.19,180.145C45.19,179.532 44.693,179.035 44.08,179.035C43.467,179.035 42.97,179.532 42.97,180.145ZM184.97,180.145L184.97,197.145C184.97,197.758 185.467,198.255 186.08,198.255C186.693,198.255 187.19,197.758 187.19,197.145L187.19,180.145C187.19,179.532 186.693,179.035 186.08,179.035C185.467,179.035 184.97,179.532 184.97,180.145ZM68.97,180.145L68.97,197.145C68.97,197.758 69.467,198.255 70.08,198.255C70.693,198.255 71.19,197.758 71.19,197.145L71.19,180.145C71.19,179.532 70.693,179.035 70.08,179.035C69.467,179.035 68.97,179.532 68.97,180.145ZM180.97,180.145L180.97,197.145C180.97,197.758 181.467,198.255 182.08,198.255C182.693,198.255 183.19,197.758 183.19,197.145L183.19,180.145C183.19,179.532 182.693,179.035 182.08,179.035C181.467,179.035 180.97,179.532 180.97,180.145ZM38.97,180.145L38.97,197.145C38.97,197.758 39.467,198.255 40.08,198.255C40.693,198.255 41.19,197.758 41.19,197.145L41.19,180.145C41.19,179.532 40.693,179.035 40.08,179.035C39.467,179.035 38.97,179.532 38.97,180.145ZM64.97,180.145L64.97,197.145C64.97,197.758 65.467,198.255 66.08,198.255C66.693,198.255 67.19,197.758 67.19,197.145L67.19,180.145C67.19,179.532 66.693,179.035 66.08,179.035C65.467,179.035 64.97,179.532 64.97,180.145ZM73.628,180.066L179.026,180.066C179.639,180.066 180.136,179.569 180.136,178.956C180.136,178.343 179.639,177.846 179.026,177.846L73.628,177.846C73.015,177.846 72.518,178.343 72.518,178.956C72.518,179.569 73.015,180.066 73.628,180.066ZM42.97,160.145L42.97,177.145C42.97,177.758 43.467,178.255 44.08,178.255C44.693,178.255 45.19,177.758 45.19,177.145L45.19,160.145C45.19,159.532 44.693,159.035 44.08,159.035C43.467,159.035 42.97,159.532 42.97,160.145ZM68.97,160.145L68.97,177.145C68.97,177.758 69.467,178.255 70.08,178.255C70.693,178.255 71.19,177.758 71.19,177.145L71.19,160.145C71.19,159.532 70.693,159.035 70.08,159.035C69.467,159.035 68.97,159.532 68.97,160.145ZM38.97,160.145L38.97,177.145C38.97,177.758 39.467,178.255 40.08,178.255C40.693,178.255 41.19,177.758 41.19,177.145L41.19,160.145C41.19,159.532 40.693,159.035 40.08,159.035C39.467,159.035 38.97,159.532 38.97,160.145ZM180.97,160.145L180.97,177.145C180.97,177.758 181.467,178.255 182.08,178.255C182.693,178.255 183.19,177.758 183.19,177.145L183.19,160.145C183.19,159.532 182.693,159.035 182.08,159.035C181.467,159.035 180.97,159.532 180.97,160.145ZM64.97,160.145L64.97,177.145C64.97,177.758 65.467,178.255 66.08,178.255C66.693,178.255 67.19,177.758 67.19,177.145L67.19,160.145C67.19,159.532 66.693,159.035 66.08,159.035C65.467,159.035 64.97,159.532 64.97,160.145ZM184.97,160.145L184.97,177.145C184.97,177.758 185.467,178.255 186.08,178.255C186.693,178.255 187.19,177.758 187.19,177.145L187.19,160.145C187.19,159.532 186.693,159.035 186.08,159.035C185.467,159.035 184.97,159.532 184.97,160.145ZM47.297,163.468L60.416,174.904C60.877,175.306 61.579,175.258 61.982,174.796C62.384,174.335 62.336,173.633 61.874,173.23L48.755,161.794C48.294,161.392 47.592,161.44 47.189,161.902C46.787,162.363 46.835,163.065 47.297,163.468ZM73.628,161.066L179.026,161.066C179.639,161.066 180.136,160.569 180.136,159.956C180.136,159.343 179.639,158.846 179.026,158.846L73.628,158.846C73.015,158.846 72.518,159.343 72.518,159.956C72.518,160.569 73.015,161.066 73.628,161.066ZM42.97,140.145L42.97,157.145C42.97,157.758 43.467,158.255 44.08,158.255C44.693,158.255 45.19,157.758 45.19,157.145L45.19,140.145C45.19,139.532 44.693,139.035 44.08,139.035C43.467,139.035 42.97,139.532 42.97,140.145ZM38.97,140.145L38.97,157.145C38.97,157.758 39.467,158.255 40.08,158.255C40.693,158.255 41.19,157.758 41.19,157.145L41.19,140.145C41.19,139.532 40.693,139.035 40.08,139.035C39.467,139.035 38.97,139.532 38.97,140.145ZM178.297,143.468L191.416,154.904C191.877,155.306 192.579,155.258 192.982,154.796C193.384,154.335 193.336,153.633 192.874,153.23L179.755,141.794C179.294,141.392 178.592,141.44 178.189,141.902C177.787,142.363 177.835,143.065 178.297,143.468ZM47.297,143.468L60.416,154.904C60.877,155.306 61.579,155.258 61.982,154.796C62.384,154.335 62.336,153.633 61.874,153.23L48.755,141.794C48.294,141.392 47.592,141.44 47.189,141.902C46.787,142.363 46.835,143.065 47.297,143.468ZM158.126,125.468L171.245,136.904C171.706,137.306 172.408,137.258 172.811,136.796C173.213,136.335 173.165,135.633 172.703,135.23L159.584,123.794C159.123,123.392 158.421,123.44 158.018,123.902C157.616,124.363 157.664,125.065 158.126,125.468ZM27.126,125.468L40.245,136.904C40.706,137.306 41.408,137.258 41.811,136.796C42.213,136.335 42.165,135.633 41.703,135.23L28.584,123.794C28.123,123.392 27.421,123.44 27.018,123.902C26.616,124.363 26.664,125.065 27.126,125.468ZM79.231,124.552C78.897,129.212 77.596,131.999 73.753,134.341C73.23,134.66 73.064,135.343 73.383,135.867C73.702,136.39 74.385,136.556 74.909,136.237C79.448,133.471 81.051,130.216 81.445,124.71C81.489,124.099 81.028,123.568 80.417,123.524C79.806,123.48 79.275,123.941 79.231,124.552ZM56.512,130.77L56.512,130.772C56.512,130.772 56.514,131.753 56.512,130.772C56.512,133.76 58.934,136.182 61.922,136.182L68.669,136.182C69.282,136.182 69.779,135.685 69.779,135.072C69.779,134.459 69.282,133.962 68.669,133.962L61.922,133.962C60.16,133.962 58.732,132.534 58.732,130.772L58.732,130.77C58.732,128.802 60.327,127.206 62.296,127.206L68.669,127.206C69.282,127.206 69.779,126.709 69.779,126.096C69.779,125.483 69.282,124.986 68.669,124.986L62.296,124.986C59.101,124.986 56.512,127.576 56.512,130.77ZM84.628,123.066L156.026,123.066C156.639,123.066 157.136,122.569 157.136,121.956C157.136,121.343 156.639,120.846 156.026,120.846L84.628,120.846C84.015,120.846 83.518,121.343 83.518,121.956C83.518,122.569 84.015,123.066 84.628,123.066ZM34.008,120.066L65.701,120.066C66.314,120.066 66.811,119.569 66.811,118.956C66.811,118.343 66.314,117.846 65.701,117.846L34.008,117.846C33.395,117.846 32.898,118.343 32.898,118.956C32.898,119.569 33.395,120.066 34.008,120.066ZM88.399,118.618L94.049,106.618C94.31,106.064 94.072,105.402 93.518,105.141C92.964,104.88 92.302,105.118 92.041,105.672L86.391,117.672C86.13,118.226 86.368,118.888 86.922,119.149C87.476,119.41 88.138,119.172 88.399,118.618ZM74.632,118.618L80.281,106.618C80.542,106.063 80.304,105.402 79.75,105.141C79.195,104.88 78.534,105.118 78.273,105.672L72.624,117.672C72.363,118.227 72.601,118.888 73.155,119.149C73.71,119.41 74.371,119.172 74.632,118.618ZM125.122,118.618L130.771,106.618C131.032,106.063 130.794,105.402 130.24,105.141C129.685,104.88 129.024,105.118 128.763,105.672L123.114,117.672C122.853,118.227 123.091,118.888 123.645,119.149C124.2,119.41 124.861,119.172 125.122,118.618ZM132.528,85.982C135.276,89.947 135.447,93.912 132.544,97.876C132.182,98.371 132.29,99.066 132.784,99.428C133.279,99.79 133.974,99.682 134.336,99.188C137.867,94.364 137.696,89.541 134.352,84.718C134.003,84.214 133.311,84.089 132.808,84.438C132.304,84.787 132.179,85.479 132.528,85.982ZM81.775,84.718C78.431,89.541 78.26,94.364 81.791,99.188C82.153,99.682 82.848,99.79 83.343,99.428C83.837,99.066 83.945,98.371 83.583,97.876C80.68,93.912 80.851,89.947 83.599,85.982C83.948,85.479 83.823,84.787 83.319,84.438C82.816,84.089 82.124,84.214 81.775,84.718ZM144.122,98.414L149.771,86.414C150.032,85.859 149.794,85.198 149.24,84.937C148.685,84.676 148.024,84.914 147.763,85.468L142.114,97.468C141.853,98.023 142.091,98.684 142.645,98.945C143.2,99.206 143.861,98.968 144.122,98.414ZM116.737,88.957L110.9,88.957L109.789,86.736C109.514,86.188 108.848,85.966 108.299,86.24C107.751,86.514 107.529,87.181 107.803,87.729L112.825,97.773C113.013,98.149 113.398,98.387 113.818,98.387C114.238,98.387 114.623,98.149 114.811,97.773L119.833,87.729C120.107,87.181 119.884,86.514 119.336,86.24C118.788,85.966 118.121,86.189 117.847,86.737L116.737,88.957ZM115.627,91.177L112.009,91.177L113.818,94.795L115.627,91.177ZM123.705,86.135L126.216,88.646C126.649,89.079 127.353,89.079 127.786,88.646C128.219,88.213 128.219,87.509 127.786,87.076L125.275,84.565C124.842,84.132 124.138,84.132 123.705,84.565C123.272,84.998 123.272,85.702 123.705,86.135ZM100.734,84.565L98.223,87.076C97.79,87.509 97.79,88.213 98.223,88.646C98.656,89.079 99.36,89.079 99.793,88.646L102.304,86.135C102.737,85.702 102.737,84.998 102.304,84.565C101.871,84.132 101.167,84.132 100.734,84.565ZM99.008,82.066L114.701,82.066C115.314,82.066 115.811,81.569 115.811,80.956C115.811,80.343 115.314,79.846 114.701,79.846L99.008,79.846C98.395,79.846 97.898,80.343 97.898,80.956C97.898,81.569 98.395,82.066 99.008,82.066ZM119.471,79.547L124.118,69.738L128.764,79.547C129.026,80.101 129.688,80.337 130.242,80.075C130.796,79.813 131.032,79.151 130.77,78.597L125.121,66.67C124.938,66.282 124.547,66.035 124.118,66.035C123.689,66.035 123.299,66.282 123.115,66.67L117.465,78.597C117.203,79.15 117.439,79.813 117.993,80.075C118.546,80.337 119.209,80.101 119.471,79.547ZM85.573,79.547L90.22,69.738L94.866,79.547C95.128,80.101 95.79,80.337 96.344,80.075C96.898,79.813 97.134,79.151 96.872,78.597L91.223,66.67C91.04,66.282 90.649,66.035 90.22,66.035C89.791,66.035 89.401,66.282 89.217,66.67L83.567,78.597C83.305,79.15 83.541,79.813 84.095,80.075C84.648,80.337 85.311,80.101 85.573,79.547ZM142.931,65.915L142.93,65.915C139.942,65.915 137.52,68.338 137.52,71.325L137.52,78.072C137.52,78.685 138.017,79.182 138.63,79.182C139.243,79.182 139.74,78.685 139.74,78.072L139.74,71.325C139.74,69.564 141.168,68.135 142.93,68.135L142.931,68.135C144.9,68.135 146.495,69.731 146.495,71.699L146.495,78.072C146.495,78.685 146.992,79.182 147.605,79.182C148.218,79.182 148.715,78.685 148.715,78.072L148.715,71.699C148.715,68.505 146.126,65.915 142.931,65.915Z"/>
    </g>
</svg>
