<?xml version="1.0" encoding="UTF-8" standalone="no"?>
<!DOCTYPE svg PUBLIC "-//W3C//DTD SVG 1.1//EN" "http://www.w3.org/Graphics/SVG/1.1/DTD/svg11.dtd">
<svg width="104px" height="101px" version="1.1" xmlns="http://www.w3.org/2000/svg" xmlns:xlink="http://www.w3.org/1999/xlink" xml:space="preserve" xmlns:serif="http://www.serif.com/" style="fill-rule:evenodd;clip-rule:evenodd;stroke-linejoin:round;stroke-miterlimit:2;">
    <g transform="matrix(0.620102,0,0,0.620102,-16.2114,-35.1807)">
        <path d="M56.593,209.154L61.232,218.499C61.232,218.499 63.839,213.174 65.689,209.398C66.027,208.707 66.729,208.268 67.498,208.266C68.268,208.264 68.972,208.699 69.314,209.388C71.189,213.165 73.837,218.499 73.837,218.499L78.476,209.154L90.238,192.991C95.363,185.991 95.09,178.991 90.238,171.991C90.047,169.49 89.381,166.513 88.351,163.243L79.799,146.015L71.246,163.243C69.212,163.023 67.179,162.961 65.145,163.243L56.593,146.015L48.04,163.243C46.948,166.257 46.577,169.163 46.799,171.991C41.947,178.991 41.674,185.991 46.799,192.991L56.593,209.154ZM136.207,168.849C136.207,168.849 135.356,188.412 136.207,194.159C136.72,197.622 139.875,200.144 141.313,203.334C143.142,207.391 147.181,218.499 147.181,218.499L153.049,203.334L158.917,218.499C158.917,218.499 163.091,207.391 164.784,203.334C166.085,200.219 168.658,197.51 169.075,194.159C169.79,188.412 169.075,168.849 169.075,168.849C172.794,166.523 174.532,164.787 175.188,164.225C180.314,157.225 180.041,150.225 175.188,143.225C175.175,140.623 173.525,136.027 171.865,132.911L164.184,117.438L155.631,134.666C153.283,134.184 150.935,134.293 148.587,134.666L140.035,117.438L132.029,133.564C131.217,136.205 130.161,140.091 130.275,143.225C125.422,150.225 125.15,157.225 130.275,164.225C131.793,165.843 133.725,167.392 136.207,168.849ZM103.074,75.315C117.135,75.315 128.551,84.753 128.551,96.377C128.551,108.001 117.135,117.438 103.074,117.438C89.013,117.438 77.597,108.001 77.597,96.377C77.597,84.753 89.013,75.315 103.074,75.315Z" style="fill:white;"/>
    </g>
    <g transform="matrix(0.620102,0,0,0.620102,-16.2114,-35.1807)">
        <path d="M68.202,209.649L72.841,218.993C73.029,219.371 73.415,219.61 73.837,219.61C74.259,219.61 74.644,219.371 74.832,218.993L79.471,209.649C79.744,209.099 79.519,208.432 78.97,208.159C78.421,207.887 77.753,208.111 77.481,208.66L73.837,216L70.193,208.66C69.92,208.111 69.253,207.887 68.704,208.159C68.154,208.432 67.93,209.099 68.202,209.649ZM140.277,203.735L146.145,218.9C146.31,219.328 146.722,219.61 147.181,219.61C147.64,219.61 148.052,219.328 148.217,218.9L153.049,206.413L157.88,218.9C158.046,219.328 158.458,219.61 158.917,219.61C159.376,219.61 159.787,219.328 159.953,218.9L165.821,203.735C166.042,203.163 165.757,202.519 165.185,202.298C164.614,202.077 163.97,202.361 163.748,202.933L158.917,215.42L154.085,202.933C153.919,202.505 153.508,202.223 153.049,202.223C152.59,202.223 152.178,202.505 152.013,202.933L147.181,215.42L142.349,202.933C142.128,202.361 141.484,202.077 140.912,202.298C140.34,202.519 140.056,203.163 140.277,203.735ZM55.597,209.649L60.236,218.993C60.424,219.371 60.81,219.61 61.232,219.61C61.654,219.61 62.039,219.371 62.227,218.993L66.866,209.649C67.139,209.099 66.914,208.432 66.365,208.159C65.815,207.887 65.148,208.111 64.875,208.66L61.232,216L57.588,208.66C57.315,208.111 56.648,207.887 56.098,208.159C55.549,208.432 55.325,209.099 55.597,209.649ZM137.318,194.159L137.318,168.849C137.318,168.236 136.82,167.738 136.207,167.738C135.594,167.738 135.096,168.236 135.096,168.849L135.096,194.159C135.096,194.772 135.594,195.27 136.207,195.27C136.82,195.27 137.318,194.772 137.318,194.159ZM170.186,194.159L170.186,168.849C170.186,168.236 169.688,167.738 169.075,167.738C168.461,167.738 167.963,168.236 167.963,168.849L167.963,194.159C167.963,194.772 168.461,195.27 169.075,195.27C169.688,195.27 170.186,194.772 170.186,194.159ZM89.325,172.624C93.879,179.194 94.152,185.764 89.341,192.335C88.979,192.829 89.087,193.525 89.581,193.887C90.076,194.25 90.772,194.142 91.134,193.647C96.574,186.218 96.301,178.788 91.151,171.358C90.802,170.854 90.109,170.728 89.605,171.078C89.101,171.427 88.975,172.12 89.325,172.624ZM45.886,171.358C40.736,178.788 40.463,186.218 45.903,193.647C46.265,194.142 46.961,194.25 47.456,193.887C47.95,193.525 48.058,192.829 47.696,192.335C42.885,185.764 43.158,179.194 47.712,172.624C48.062,172.12 47.936,171.427 47.432,171.078C46.928,170.728 46.235,170.854 45.886,171.358ZM106.612,172.129L95.989,190.06C95.676,190.588 95.851,191.27 96.378,191.582C96.906,191.895 97.588,191.72 97.901,191.193L108.524,173.262C108.837,172.734 108.662,172.052 108.135,171.739C107.607,171.427 106.925,171.601 106.612,172.129ZM60.39,174.49L67.679,189.848C67.863,190.236 68.253,190.483 68.682,190.483C69.111,190.483 69.502,190.236 69.686,189.848L76.975,174.49C77.237,173.936 77.001,173.273 76.447,173.01C75.893,172.747 75.23,172.983 74.967,173.537L73.211,177.237L64.153,177.237L62.398,173.537C62.135,172.983 61.472,172.747 60.918,173.01C60.363,173.273 60.127,173.936 60.39,174.49ZM26.635,178.343C30.508,180.942 35.042,184.88 37.54,187.579C37.956,188.03 38.66,188.057 39.11,187.641C39.56,187.224 39.588,186.521 39.171,186.07C36.583,183.273 31.886,179.191 27.873,176.498C27.364,176.156 26.673,176.292 26.331,176.802C25.99,177.311 26.126,178.002 26.635,178.343ZM72.157,179.459L65.208,179.459L68.682,186.78L72.157,179.459ZM52.538,169.447C50.943,169.447 49.648,170.742 49.648,172.337C49.648,173.931 50.943,175.226 52.538,175.226C54.132,175.226 55.427,173.931 55.427,172.337C55.427,170.742 54.132,169.447 52.538,169.447ZM84.412,169.447C82.817,169.447 81.522,170.742 81.522,172.337C81.522,173.931 82.817,175.226 84.412,175.226C86.007,175.226 87.302,173.931 87.302,172.337C87.302,170.742 86.007,169.447 84.412,169.447ZM52.538,171.114C53.213,171.114 53.761,171.662 53.761,172.337C53.761,173.012 53.213,173.56 52.538,173.56C51.863,173.56 51.314,173.012 51.314,172.337C51.314,171.662 51.863,171.114 52.538,171.114ZM84.412,171.114C85.087,171.114 85.635,171.662 85.635,172.337C85.635,173.012 85.087,173.56 84.412,173.56C83.737,173.56 83.189,173.012 83.189,172.337C83.189,171.662 83.737,171.114 84.412,171.114ZM129.362,142.592C124.211,150.022 123.938,157.452 129.378,164.881C129.741,165.376 130.437,165.484 130.931,165.122C131.426,164.759 131.534,164.063 131.171,163.569C126.361,156.998 126.634,150.428 131.188,143.858C131.537,143.354 131.412,142.661 130.908,142.312C130.404,141.962 129.711,142.088 129.362,142.592ZM174.275,143.858C178.83,150.428 179.103,156.998 174.292,163.569C173.93,164.063 174.037,164.759 174.532,165.122C175.027,165.484 175.723,165.376 176.085,164.881C181.525,157.452 181.252,150.022 176.102,142.592C175.752,142.088 175.059,141.962 174.555,142.312C174.051,142.661 173.926,143.354 174.275,143.858ZM72.241,163.737L79.799,148.514L87.356,163.737C87.629,164.287 88.296,164.511 88.845,164.239C89.395,163.966 89.619,163.298 89.347,162.749L80.794,145.521C80.606,145.143 80.221,144.904 79.799,144.904C79.377,144.904 78.991,145.143 78.803,145.521L70.251,162.749C69.978,163.298 70.203,163.966 70.752,164.239C71.301,164.511 71.968,164.287 72.241,163.737ZM49.035,163.737L56.593,148.514L64.15,163.737C64.423,164.287 65.09,164.511 65.639,164.239C66.189,163.966 66.413,163.298 66.14,162.749L57.588,145.521C57.4,145.143 57.015,144.904 56.593,144.904C56.171,144.904 55.785,145.143 55.597,145.521L47.045,162.749C46.772,163.298 46.996,163.966 47.546,164.239C48.095,164.511 48.762,164.287 49.035,163.737ZM191.79,143.419L181.166,161.351C180.854,161.878 181.028,162.56 181.556,162.873C182.083,163.186 182.766,163.011 183.078,162.483L193.702,144.552C194.015,144.025 193.84,143.342 193.312,143.03C192.785,142.717 192.103,142.892 191.79,143.419ZM145.145,145.676L152.434,161.034C152.618,161.422 153.008,161.669 153.438,161.669C153.867,161.669 154.257,161.422 154.441,161.034L161.73,145.676C161.993,145.122 161.756,144.459 161.202,144.196C160.648,143.933 159.985,144.169 159.722,144.723L157.967,148.422L148.909,148.422L147.153,144.723C146.89,144.169 146.227,143.933 145.673,144.196C145.118,144.459 144.882,145.121 145.145,145.676ZM110.9,149.9C114.773,152.499 119.307,156.437 121.805,159.136C122.221,159.586 122.925,159.614 123.375,159.197C123.825,158.781 123.852,158.077 123.436,157.627C120.848,154.83 116.151,150.748 112.138,148.055C111.629,147.713 110.938,147.849 110.596,148.358C110.255,148.868 110.391,149.558 110.9,149.9ZM156.912,150.645L149.963,150.645L153.438,157.966L156.912,150.645ZM137.688,140.618C136.093,140.618 134.798,141.913 134.798,143.508C134.798,145.102 136.093,146.397 137.688,146.397C139.283,146.397 140.577,145.102 140.577,143.508C140.577,141.913 139.283,140.618 137.688,140.618ZM168.802,140.618C167.207,140.618 165.912,141.913 165.912,143.508C165.912,145.102 167.207,146.397 168.802,146.397C170.397,146.397 171.692,145.102 171.692,143.508C171.692,141.913 170.397,140.618 168.802,140.618ZM137.688,142.285C138.363,142.285 138.911,142.833 138.911,143.508C138.911,144.183 138.363,144.731 137.688,144.731C137.013,144.731 136.465,144.183 136.465,143.508C136.465,142.833 137.013,142.285 137.688,142.285ZM168.802,142.285C169.477,142.285 170.025,142.833 170.025,143.508C170.025,144.183 169.477,144.731 168.802,144.731C168.127,144.731 167.579,144.183 167.579,143.508C167.579,142.833 168.127,142.285 168.802,142.285ZM156.626,135.16L164.184,119.937L171.741,135.16C172.014,135.71 172.681,135.934 173.23,135.661C173.78,135.389 174.004,134.721 173.732,134.172L165.179,116.944C164.991,116.566 164.606,116.327 164.184,116.327C163.762,116.327 163.376,116.566 163.188,116.944L154.636,134.172C154.363,134.721 154.588,135.389 155.137,135.661C155.686,135.934 156.353,135.71 156.626,135.16ZM132.477,135.16L140.035,119.937L147.592,135.16C147.865,135.71 148.532,135.934 149.082,135.661C149.631,135.389 149.855,134.721 149.583,134.172L141.03,116.944C140.842,116.566 140.457,116.327 140.035,116.327C139.613,116.327 139.227,116.566 139.04,116.944L130.487,134.172C130.214,134.721 130.439,135.389 130.988,135.661C131.537,135.934 132.205,135.71 132.477,135.16ZM105.286,132.35L105.286,117.102C105.286,116.488 104.788,115.99 104.175,115.99C103.561,115.99 103.063,116.488 103.063,117.102L103.063,132.35C103.063,132.964 103.561,133.461 104.175,133.461C104.788,133.461 105.286,132.964 105.286,132.35ZM80.787,120.862L83.796,117.586C84.179,117.168 84.151,116.518 83.734,116.134C83.316,115.751 82.666,115.779 82.283,116.196L79.274,119.473C78.89,119.89 78.918,120.541 79.336,120.924C79.753,121.308 80.403,121.28 80.787,120.862ZM130.067,116.196L127.058,112.919C126.675,112.502 126.024,112.474 125.607,112.858C125.189,113.241 125.162,113.891 125.545,114.309L128.554,117.586C128.938,118.003 129.588,118.031 130.005,117.647C130.423,117.264 130.451,116.614 130.067,116.196ZM80.426,85.244C75.276,92.674 75.003,100.103 80.443,107.533C80.805,108.028 81.501,108.136 81.996,107.773C82.491,107.411 82.598,106.715 82.236,106.22C77.425,99.65 77.698,93.08 82.253,86.51C82.602,86.006 82.477,85.313 81.973,84.964C81.469,84.614 80.776,84.74 80.426,85.244ZM123.748,86.51C128.303,93.08 128.576,99.65 123.765,106.22C123.403,106.715 123.51,107.411 124.005,107.773C124.5,108.136 125.196,108.028 125.558,107.533C130.998,100.103 130.725,92.674 125.575,85.244C125.225,84.74 124.532,84.614 124.028,84.964C123.524,85.313 123.399,86.006 123.748,86.51ZM94.956,89.796L102.245,105.154C102.429,105.541 102.82,105.788 103.249,105.788C103.678,105.788 104.068,105.541 104.252,105.154L111.541,89.796C111.804,89.242 111.567,88.578 111.013,88.315C110.459,88.053 109.796,88.289 109.533,88.843L107.778,92.542L98.72,92.542L96.964,88.843C96.701,88.288 96.038,88.052 95.484,88.315C94.929,88.579 94.693,89.241 94.956,89.796ZM106.723,94.764L99.774,94.764L103.249,102.086L106.723,94.764ZM138.488,97.513L149.121,97.513C149.734,97.513 150.232,97.015 150.232,96.402C150.232,95.789 149.734,95.291 149.121,95.291L138.488,95.291C137.874,95.291 137.377,95.789 137.377,96.402C137.377,97.015 137.874,97.513 138.488,97.513ZM57.809,97.513L68.442,97.513C69.055,97.513 69.553,97.015 69.553,96.402C69.553,95.789 69.055,95.291 68.442,95.291L57.809,95.291C57.195,95.291 56.698,95.789 56.698,96.402C56.698,97.015 57.195,97.513 57.809,97.513ZM118.441,83.579C116.847,83.579 115.552,84.874 115.552,86.469C115.552,88.064 116.847,89.358 118.441,89.358C120.036,89.358 121.331,88.064 121.331,86.469C121.331,84.874 120.036,83.579 118.441,83.579ZM88.525,83.579C86.93,83.579 85.635,84.874 85.635,86.469C85.635,88.064 86.93,89.358 88.525,89.358C90.119,89.358 91.414,88.064 91.414,86.469C91.414,84.874 90.119,83.579 88.525,83.579ZM118.441,85.246C119.116,85.246 119.664,85.794 119.664,86.469C119.664,87.144 119.116,87.692 118.441,87.692C117.766,87.692 117.218,87.144 117.218,86.469C117.218,85.794 117.766,85.246 118.441,85.246ZM88.525,85.246C89.2,85.246 89.748,85.794 89.748,86.469C89.748,87.144 89.2,87.692 88.525,87.692C87.85,87.692 87.302,87.144 87.302,86.469C87.302,85.794 87.85,85.246 88.525,85.246ZM78.787,77.084L75.778,73.807C75.394,73.39 74.744,73.362 74.327,73.746C73.909,74.129 73.881,74.779 74.265,75.197L77.274,78.473C77.657,78.891 78.307,78.919 78.725,78.535C79.142,78.152 79.17,77.502 78.787,77.084ZM127.058,78.473L130.067,75.197C130.451,74.779 130.423,74.129 130.005,73.746C129.588,73.362 128.938,73.39 128.554,73.807L125.545,77.084C125.162,77.502 125.189,78.152 125.607,78.535C126.024,78.919 126.675,78.891 127.058,78.473ZM105.286,75.63L105.286,60.382C105.286,59.768 104.788,59.271 104.175,59.271C103.561,59.271 103.063,59.768 103.063,60.382L103.063,75.63C103.063,76.244 103.561,76.742 104.175,76.742C104.788,76.742 105.286,76.244 105.286,75.63Z"/>
    </g>
</svg>
