<?xml version="1.0" encoding="UTF-8" standalone="no"?>
<!DOCTYPE svg PUBLIC "-//W3C//DTD SVG 1.1//EN" "http://www.w3.org/Graphics/SVG/1.1/DTD/svg11.dtd">
<svg width="74px" height="27px" version="1.1" xmlns="http://www.w3.org/2000/svg" xmlns:xlink="http://www.w3.org/1999/xlink" xml:space="preserve" xmlns:serif="http://www.serif.com/" style="fill-rule:evenodd;clip-rule:evenodd;stroke-linejoin:round;stroke-miterlimit:2;">
    <g transform="matrix(0.687395,0,0,0.585163,-38.6133,-88.2057)">
        <path d="M75.971,196.878C73.608,196.877 71.296,196.075 69.312,194.566C64.508,190.861 62.312,183.739 62.312,178.322C62.312,163.097 83.68,150.737 110,150.737C136.32,150.737 157.688,163.097 157.688,178.322C157.688,179.761 157.497,181.299 157.129,182.851C155.142,191.141 148.705,196.868 141.373,196.868C127.935,196.878 83.944,196.878 75.971,196.878Z" style="fill:white;"/>
    </g>
    <g transform="matrix(0.557335,0,0,0.557335,-24.3069,-91.3927)">
        <path d="M162.804,183.556C165.727,187.213 167.312,190.853 167.353,194.511C167.394,198.147 165.898,201.765 162.829,205.401C162.309,206.018 162.387,206.942 163.003,207.462C163.62,207.983 164.544,207.905 165.064,207.288C168.664,203.024 170.326,198.742 170.278,194.478C170.23,190.234 168.48,185.974 165.089,181.73C164.585,181.1 163.664,180.997 163.034,181.501C162.403,182.005 162.3,182.926 162.804,183.556ZM54.911,181.73C51.52,185.974 49.77,190.234 49.722,194.478C49.674,198.742 51.336,203.024 54.936,207.288C55.456,207.905 56.38,207.983 56.997,207.462C57.613,206.942 57.691,206.018 57.171,205.401C54.102,201.765 52.606,198.147 52.647,194.511C52.688,190.853 54.273,187.213 57.196,183.556C57.7,182.926 57.597,182.005 56.966,181.501C56.336,180.997 55.415,181.1 54.911,181.73ZM128.272,187.827C127.813,188.234 127.734,188.925 128.093,189.426C128.094,189.426 128.094,189.427 128.094,189.427C128.378,189.821 128.621,190.203 128.821,190.574C129.566,191.993 129.935,193.696 129.935,195.68C129.935,197.986 129.473,199.844 128.535,201.25C128.534,201.251 128.534,201.252 128.533,201.252C127.759,202.435 126.857,203.044 125.805,203.044C124.208,203.044 123.246,201.711 122.805,199.132C123.636,197.445 124.049,195.793 124.049,194.176C124.049,193.127 123.91,192.396 123.662,191.977C123.449,191.618 123.158,191.449 122.803,191.449C122.403,191.449 121.996,191.697 121.618,192.248C120.784,193.455 120.355,195.246 120.355,197.628C120.355,197.951 120.368,198.332 120.393,198.772C119.114,201.594 117.65,203.044 115.925,203.044C115.106,203.044 114.515,202.543 114.122,201.58C114.122,201.579 114.121,201.578 114.121,201.578C113.842,200.909 113.706,200.088 113.706,199.118C113.706,195.664 115.213,192.579 118.217,189.859C118.797,189.334 118.858,188.444 118.356,187.844L118.331,187.817C118.063,187.512 117.684,187.325 117.278,187.3C116.86,187.274 116.45,187.42 116.143,187.705C115.092,188.68 114.226,189.632 113.545,190.559C111.589,193.216 110.612,196.098 110.612,199.206C110.612,201.065 110.989,202.598 111.731,203.807C111.731,203.807 111.732,203.807 111.732,203.808C112.707,205.384 114.052,206.167 115.762,206.167C117.815,206.167 119.602,204.909 121.087,202.347C122.016,204.906 123.609,206.167 125.832,206.167C127.998,206.167 129.792,205.06 131.198,202.821C132.415,200.882 133.028,198.522 133.028,195.739C133.028,192.859 132.283,190.328 130.812,188.136C130.811,188.134 130.81,188.133 130.809,188.131C130.532,187.738 130.103,187.478 129.626,187.416C129.148,187.353 128.667,187.494 128.298,187.803L128.272,187.827ZM96.87,190.577C98.48,190.577 99.787,191.884 99.787,193.494C99.787,195.104 98.48,196.411 96.87,196.411C95.26,196.411 93.953,195.104 93.953,193.494C93.953,191.884 95.26,190.577 96.87,190.577ZM142.915,190.577C144.524,190.577 145.831,191.884 145.831,193.494C145.831,195.104 144.524,196.411 142.915,196.411C141.305,196.411 139.998,195.104 139.998,193.494C139.998,191.884 141.305,190.577 142.915,190.577ZM77.346,181.623L81.333,185.707C81.897,186.284 82.823,186.296 83.401,185.732C83.978,185.168 83.99,184.241 83.426,183.664L79.439,179.58C78.875,179.002 77.949,178.991 77.371,179.555C76.794,180.119 76.782,181.046 77.346,181.623ZM155.85,179.58L151.864,183.664C151.3,184.241 151.311,185.168 151.889,185.732C152.466,186.296 153.393,186.284 153.957,185.707L157.943,181.623C158.507,181.046 158.496,180.119 157.918,179.555C157.341,178.991 156.414,179.002 155.85,179.58Z" style="fill-rule:nonzero;"/>
    </g>
</svg>
