<?xml version="1.0" encoding="UTF-8" standalone="no"?>
<!DOCTYPE svg PUBLIC "-//W3C//DTD SVG 1.1//EN" "http://www.w3.org/Graphics/SVG/1.1/DTD/svg11.dtd">
<svg width="71px" height="26px" version="1.1" xmlns="http://www.w3.org/2000/svg" xmlns:xlink="http://www.w3.org/1999/xlink" xml:space="preserve" xmlns:serif="http://www.serif.com/" style="fill-rule:evenodd;clip-rule:evenodd;stroke-linejoin:round;stroke-miterlimit:2;">
    <g transform="matrix(0.613652,0,0,0.56349,-31.9517,-84.9388)">
        <path d="M79.251,196.878C70.525,196.878 63.227,189.66 62.388,180.201C62.34,179.558 62.312,178.929 62.312,178.322C62.312,163.097 83.68,150.737 110,150.737C136.32,150.737 157.688,163.097 157.688,178.322C157.688,178.671 157.677,179.026 157.654,179.386C157.07,189.212 149.581,196.857 140.539,196.857C127.626,196.878 91.914,196.878 79.251,196.878Z" style="fill:white;"/>
    </g>
    <g transform="matrix(0.519059,0,0,0.519059,-21.5965,-85.1161)">
        <path d="M58.252,179.799C51.546,189.472 51.191,199.146 58.274,208.82C58.751,209.472 59.667,209.613 60.318,209.136C60.969,208.659 61.111,207.744 60.634,207.092C54.38,198.55 54.734,190.007 60.656,181.465C61.116,180.802 60.951,179.89 60.287,179.43C59.624,178.97 58.712,179.135 58.252,179.799ZM159.344,181.465C165.266,190.007 165.62,198.55 159.366,207.092C158.889,207.744 159.031,208.659 159.682,209.136C160.333,209.613 161.249,209.472 161.726,208.82C168.809,199.146 168.454,189.472 161.748,179.799C161.288,179.135 160.376,178.97 159.713,179.43C159.049,179.89 158.884,180.802 159.344,181.465ZM128.822,190.032L128.782,190.07C128.307,190.501 128.224,191.22 128.595,191.749L128.596,191.75C128.836,192.089 129.043,192.419 129.216,192.739C129.915,194.073 130.262,195.672 130.262,197.536C130.262,199.702 129.828,201.447 128.947,202.768C128.947,202.769 128.946,202.77 128.946,202.77C128.221,203.878 127.377,204.449 126.392,204.449C124.897,204.449 124,203.199 123.587,200.786C124.368,199.199 124.757,197.643 124.757,196.121C124.757,195.13 124.625,194.439 124.39,194.043C124.186,193.7 123.907,193.539 123.567,193.539C123.187,193.539 122.799,193.773 122.44,194.298C121.653,195.435 121.248,197.123 121.248,199.369C121.248,199.672 121.26,200.029 121.283,200.442C120.084,203.087 118.713,204.449 117.096,204.449C116.332,204.449 115.782,203.98 115.415,203.081C115.414,203.08 115.414,203.08 115.414,203.079C115.152,202.451 115.024,201.682 115.024,200.771C115.024,197.54 116.428,194.652 119.227,192.106C119.799,191.585 119.859,190.705 119.363,190.112L119.339,190.087C119.093,189.807 118.746,189.635 118.374,189.612C117.991,189.587 117.615,189.721 117.333,189.981C116.323,190.913 115.494,191.822 114.844,192.708C113.001,195.211 112.081,197.926 112.081,200.854C112.081,202.607 112.436,204.052 113.136,205.191C113.136,205.192 113.136,205.192 113.137,205.192C114.058,206.681 115.328,207.42 116.942,207.42C118.871,207.42 120.552,206.244 121.95,203.847C122.829,206.242 124.329,207.42 126.418,207.42C128.461,207.42 130.154,206.376 131.481,204.264C132.628,202.437 133.205,200.214 133.205,197.592C133.205,194.827 132.477,192.404 131.035,190.314C131.034,190.312 131.033,190.311 131.032,190.309C130.785,189.966 130.406,189.742 129.987,189.689C129.568,189.637 129.146,189.761 128.822,190.032ZM99.218,193.096C100.431,193.096 101.416,194.081 101.416,195.294C101.416,196.507 100.431,197.492 99.218,197.492C98.005,197.492 97.02,196.507 97.02,195.294C97.02,194.081 98.005,193.096 99.218,193.096ZM143.856,193.096C145.069,193.096 146.053,194.081 146.053,195.294C146.053,196.507 145.069,197.492 143.856,197.492C142.643,197.492 141.658,196.507 141.658,195.294C141.658,194.081 142.643,193.096 143.856,193.096ZM149.346,184.05L153.332,188.134C153.896,188.711 154.823,188.722 155.401,188.159C155.978,187.595 155.989,186.668 155.426,186.09L151.439,182.007C150.875,181.429 149.949,181.418 149.371,181.982C148.793,182.546 148.782,183.472 149.346,184.05ZM86.605,181.007L82.618,185.09C82.054,185.668 82.066,186.595 82.643,187.159C83.221,187.722 84.147,187.711 84.711,187.134L88.698,183.05C89.261,182.472 89.25,181.546 88.673,180.982C88.095,180.418 87.168,180.429 86.605,181.007Z" style="fill-rule:nonzero;"/>
    </g>
</svg>
