<?xml version="1.0" encoding="UTF-8" standalone="no"?>
<!DOCTYPE svg PUBLIC "-//W3C//DTD SVG 1.1//EN" "http://www.w3.org/Graphics/SVG/1.1/DTD/svg11.dtd">
<svg width="43px" height="85px" version="1.1" xmlns="http://www.w3.org/2000/svg" xmlns:xlink="http://www.w3.org/1999/xlink" xml:space="preserve" xmlns:serif="http://www.serif.com/" style="fill-rule:evenodd;clip-rule:evenodd;stroke-linejoin:round;stroke-miterlimit:2;">
    <g transform="matrix(0.60368,0,0,0.60368,-44.9864,-47.8063)">
        <path d="M114.275,211.474C113.656,213.173 113.293,214.031 112.049,215.731C110.803,217.199 107.873,218.661 105.871,218.533L84.875,218.533C83.15,218.703 81.178,217.921 79.621,216.572C74.496,209.573 74.009,202.573 78.862,195.573C80.445,193.49 81.901,191.334 82.297,188.573L82.297,163.573C82.35,162.488 81.395,160.671 80.054,158.573C74.929,151.573 75.769,144.573 80.621,137.573C82.685,135.102 82.515,132.78 80.621,130.573C75.496,123.573 74.768,117.475 79.621,110.474C82.683,105.536 85.474,100.85 85.621,98.572L85.621,90.054C85.621,88.335 86.304,86.687 87.52,85.471C88.735,84.256 90.383,83.573 92.102,83.573L92.635,83.573C96.015,83.573 98.828,86.17 99.097,89.539C99.399,93.332 99.097,97.533 99.097,97.533C99.381,98.906 101.195,99.427 102.871,99.533L114.356,99.533C115.712,99.257 118.427,99.1 118.621,97.533C118.621,97.533 117.726,93.273 118.078,89.459C118.386,86.124 121.183,83.573 124.532,83.573L125.341,83.573C128.842,83.573 131.709,86.351 131.82,89.849C131.95,93.959 132.096,98.572 132.096,98.572C132.084,102.961 132.268,106.959 133.143,109.572C137.996,116.573 137.746,123.573 132.621,130.573C134.838,131.975 139.77,137.709 140.379,139.085C143.829,146.872 144.504,151.573 139.379,158.573C136.294,161.057 133.118,163.415 128.371,163.573L128.371,188.573C132.521,189.503 136.566,191.435 140.379,195.573C145.232,202.573 145.504,208.731 140.379,215.731C138.864,217.8 135.667,218.533 133.447,218.533L120.267,218.533C116.805,218.898 111.283,216.797 114.275,211.474" style="fill:white;"/>
    </g>
    <g transform="matrix(0.60368,0,0,0.60368,-45.1052,-46.9444)">
        <path d="M106.203,215.643L84.953,215.643C84.145,215.643 83.49,216.298 83.49,217.105C83.49,217.912 84.145,218.567 84.953,218.567L106.203,218.567C107.01,218.567 107.665,217.912 107.665,217.105C107.665,216.298 107.01,215.643 106.203,215.643ZM118.953,218.567L134.695,218.567C135.502,218.567 136.158,217.912 136.158,217.105C136.158,216.298 135.502,215.643 134.695,215.643L118.953,215.643C118.145,215.643 117.49,216.298 117.49,217.105C117.49,217.912 118.145,218.567 118.953,218.567ZM139.509,194.938C143.969,201.372 144.242,207.807 139.531,214.241C139.054,214.892 139.196,215.808 139.847,216.285C140.498,216.762 141.414,216.62 141.891,215.969C147.431,208.403 147.158,200.838 141.913,193.272C141.453,192.608 140.541,192.443 139.878,192.903C139.214,193.363 139.049,194.275 139.509,194.938ZM110.614,194.938C115.074,201.372 115.347,207.807 110.636,214.241C110.159,214.892 110.301,215.808 110.952,216.285C111.603,216.762 112.519,216.62 112.996,215.969C118.536,208.403 118.263,200.838 113.018,193.272C112.558,192.608 111.646,192.443 110.983,192.903C110.319,193.363 110.154,194.275 110.614,194.938ZM78.751,193.272C73.506,200.838 73.233,208.403 78.773,215.969C79.25,216.62 80.166,216.762 80.817,216.285C81.468,215.808 81.61,214.892 81.133,214.241C76.422,207.807 76.695,201.372 81.155,194.938C81.615,194.275 81.45,193.363 80.786,192.903C80.123,192.443 79.211,192.608 78.751,193.272ZM127.241,162.105L127.241,187.105C127.241,187.912 127.896,188.567 128.703,188.567C129.51,188.567 130.165,187.912 130.165,187.105L130.165,162.105C130.165,161.298 129.51,160.643 128.703,160.643C127.896,160.643 127.241,161.298 127.241,162.105ZM81.491,162.105L81.491,187.105C81.491,187.912 82.146,188.567 82.953,188.567C83.76,188.567 84.415,187.912 84.415,187.105L84.415,162.105C84.415,161.298 83.76,160.643 82.953,160.643C82.146,160.643 81.491,161.298 81.491,162.105ZM105.741,162.105L105.741,187.105C105.741,187.912 106.396,188.567 107.203,188.567C108.01,188.567 108.665,187.912 108.665,187.105L108.665,162.105C108.665,161.298 108.01,160.643 107.203,160.643C106.396,160.643 105.741,161.298 105.741,162.105ZM138.509,136.938C142.969,143.372 143.242,149.807 138.531,156.241C138.054,156.892 138.196,157.808 138.847,158.285C139.498,158.762 140.414,158.62 140.891,157.969C146.431,150.403 146.158,142.838 140.913,135.272C140.453,134.608 139.541,134.443 138.878,134.903C138.214,135.363 138.049,136.275 138.509,136.938ZM79.751,135.272C74.506,142.838 74.233,150.403 79.773,157.969C80.25,158.62 81.166,158.762 81.817,158.285C82.468,157.808 82.61,156.892 82.133,156.241C77.422,149.807 77.695,143.372 82.155,136.938C82.615,136.275 82.45,135.363 81.786,134.903C81.123,134.443 80.211,134.608 79.751,135.272ZM131.751,108.938C136.211,115.372 136.484,121.807 131.773,128.241C131.296,128.892 131.438,129.808 132.089,130.285C132.74,130.762 133.656,130.62 134.133,129.969C139.673,122.403 139.4,114.838 134.155,107.272C133.695,106.608 132.783,106.443 132.12,106.903C131.456,107.363 131.291,108.275 131.751,108.938ZM79.751,107.272C74.506,114.838 74.233,122.403 79.773,129.969C80.25,130.62 81.166,130.762 81.817,130.285C82.468,129.808 82.61,128.892 82.133,128.241C77.422,121.807 77.695,115.372 82.155,108.938C82.615,108.275 82.45,107.363 81.786,106.903C81.123,106.443 80.211,106.608 79.751,107.272ZM102.203,120.068L115.558,120.068C116.365,120.068 117.021,119.412 117.021,118.605C117.021,117.798 116.365,117.143 115.558,117.143L102.203,117.143C101.396,117.143 100.74,117.798 100.74,118.605C100.74,119.412 101.396,120.068 102.203,120.068ZM118.919,108.14L122.919,112.14C123.49,112.71 124.416,112.71 124.987,112.14C125.558,111.568 125.558,110.642 124.987,110.071L120.987,106.071C120.416,105.5 119.49,105.5 118.919,106.071C118.348,106.642 118.348,107.568 118.919,108.14ZM93.419,106.071L89.419,110.071C88.848,110.642 88.848,111.568 89.419,112.14C89.99,112.71 90.916,112.71 91.487,112.14L95.487,108.14C96.058,107.568 96.058,106.642 95.487,106.071C94.916,105.5 93.99,105.5 93.419,106.071ZM103.203,99.568L114.687,99.568C115.495,99.568 116.15,98.912 116.15,98.105C116.15,97.298 115.495,96.643 114.687,96.643L103.203,96.643C102.395,96.643 101.74,97.298 101.74,98.105C101.74,98.912 102.395,99.568 103.203,99.568ZM87.342,97.105L87.342,88.765C87.342,87.368 87.897,86.026 88.886,85.038C89.874,84.049 91.215,83.494 92.613,83.494L92.615,83.494C95.348,83.494 97.564,85.71 97.564,88.443L97.564,97.105C97.564,97.871 98.186,98.494 98.953,98.494C99.72,98.494 100.342,97.871 100.342,97.105L100.342,88.443C100.342,84.175 96.882,80.716 92.615,80.716L92.613,80.716C90.478,80.716 88.431,81.564 86.922,83.074C85.412,84.583 84.564,86.63 84.564,88.765L84.564,97.105C84.564,97.871 85.186,98.494 85.953,98.494C86.72,98.494 87.342,97.871 87.342,97.105ZM120.342,97.105L120.342,88.765C120.342,87.368 120.897,86.026 121.886,85.038C122.874,84.049 124.215,83.494 125.613,83.494L125.615,83.494C128.348,83.494 130.564,85.71 130.564,88.443L130.564,97.105C130.564,97.871 131.186,98.494 131.953,98.494C132.72,98.494 133.342,97.871 133.342,97.105L133.342,88.443C133.342,84.175 129.882,80.716 125.615,80.716L125.613,80.716C123.478,80.716 121.431,81.564 119.922,83.074C118.412,84.583 117.564,86.63 117.564,88.765L117.564,97.105C117.564,97.871 118.186,98.494 118.953,98.494C119.72,98.494 120.342,97.871 120.342,97.105Z"/>
    </g>
</svg>
