<?xml version="1.0" encoding="UTF-8" standalone="no"?>
<!DOCTYPE svg PUBLIC "-//W3C//DTD SVG 1.1//EN" "http://www.w3.org/Graphics/SVG/1.1/DTD/svg11.dtd">
<svg width="106px" height="62px" version="1.1" xmlns="http://www.w3.org/2000/svg" xmlns:xlink="http://www.w3.org/1999/xlink" xml:space="preserve" xmlns:serif="http://www.serif.com/" style="fill-rule:evenodd;clip-rule:evenodd;stroke-linejoin:round;stroke-miterlimit:2;">
    <g transform="matrix(0.621031,0,0,0.621031,-16.2706,-73.5009)">
        <path d="M50.681,174.439L50.667,163.889C50.667,162.481 51.261,161.138 52.303,160.19C56.896,156.012 69.487,144.561 73.221,141.166C73.889,140.558 74.38,139.78 74.642,138.915C75.137,137.28 75.915,134.709 75.915,134.709L83.051,119.645L90.186,134.709C94.637,134.189 99.088,134.157 103.539,134.709L110.675,119.645L117.81,134.709L121.059,140.067L169.961,140.067C170.847,140.067 171.564,140.784 171.564,141.67L171.564,145.677C173.143,144.892 174.227,145.293 174.957,146.545C174.957,146.545 190.344,160.095 195.635,164.734C196.101,165.143 196.371,165.731 196.377,166.351C196.384,166.971 196.126,167.565 195.668,167.983C190.875,172.367 177.853,184.276 173.475,188.28C172.657,189.028 171.397,189.008 170.603,188.234C170.123,187.765 169.148,186.803 168.721,186.387C168.572,186.241 168.35,186.199 168.157,186.28C167.965,186.361 167.84,186.549 167.84,186.758L167.84,195.261C167.84,196.682 167.235,198.037 166.175,198.986C162.384,202.381 153.081,210.71 148.512,214.801C146.826,216.311 144.643,217.145 142.38,217.145L53.304,217.145C52.608,217.145 51.941,216.869 51.449,216.377C50.957,215.885 50.681,215.218 50.681,214.522L50.681,174.439Z" style="fill:white;"/>
    </g>
    <g transform="matrix(0.621031,0,0,0.621031,-16.2706,-73.5009)">
        <path d="M53.907,218.187L142.177,218.187C142.752,218.187 143.218,217.72 143.218,217.145C143.218,216.571 142.752,216.104 142.177,216.104L53.907,216.104C53.333,216.104 52.866,216.571 52.866,217.145C52.866,217.72 53.333,218.187 53.907,218.187ZM49.572,194.704L49.572,215.766C49.572,216.379 50.07,216.877 50.683,216.877C51.296,216.877 51.794,216.379 51.794,215.766L51.794,194.704C51.794,194.091 51.296,193.593 50.683,193.593C50.07,193.593 49.572,194.091 49.572,194.704ZM145.013,194.704L145.013,215.766C145.013,216.379 145.511,216.877 146.124,216.877C146.737,216.877 147.235,216.379 147.235,215.766L147.235,194.704C147.235,194.091 146.737,193.593 146.124,193.593C145.511,193.593 145.013,194.091 145.013,194.704ZM167.105,196.66L149.805,211.89C149.344,212.296 149.299,213 149.705,213.461C150.111,213.922 150.814,213.966 151.275,213.561L168.575,198.331C169.036,197.925 169.081,197.221 168.675,196.76C168.269,196.299 167.566,196.254 167.105,196.66ZM49.572,168.1L49.572,189.162C49.572,189.775 50.07,190.273 50.683,190.273C51.296,190.273 51.794,189.775 51.794,189.162L51.794,168.1C51.794,167.487 51.296,166.989 50.683,166.989C50.07,166.989 49.572,167.487 49.572,168.1ZM145.013,168.1L145.013,189.162C145.013,189.775 145.511,190.273 146.124,190.273C146.737,190.273 147.235,189.775 147.235,189.162L147.235,168.1C147.235,167.487 146.737,166.989 146.124,166.989C145.511,166.989 145.013,167.487 145.013,168.1ZM151.714,172.809L170.595,189.431C171.055,189.836 171.757,189.791 172.162,189.331C172.567,188.871 172.522,188.169 172.062,187.764L153.182,171.143C152.722,170.738 152.02,170.783 151.615,171.242C151.21,171.702 151.255,172.404 151.714,172.809ZM44.383,170.449L27.083,185.679C26.622,186.085 26.577,186.789 26.983,187.25C27.389,187.711 28.092,187.755 28.553,187.35L45.853,172.12C46.314,171.714 46.359,171.01 45.953,170.549C45.547,170.088 44.844,170.043 44.383,170.449ZM190.881,170.449L173.581,185.679C173.12,186.085 173.075,186.789 173.481,187.25C173.887,187.711 174.59,187.755 175.051,187.35L192.351,172.12C192.812,171.714 192.857,171.01 192.451,170.549C192.045,170.088 191.342,170.043 190.881,170.449ZM109.744,187.262L109.909,187.26C113.332,187.167 116.127,184.164 116.127,180.419L116.127,172.549C116.127,171.926 115.622,171.421 114.999,171.421C114.376,171.421 113.871,171.926 113.871,172.549L113.871,180.419C113.871,182.927 112.051,185.006 109.745,185.006L109.744,185.006C107.26,185.006 105.296,182.77 105.296,180.068L105.296,172.549C105.296,171.926 104.791,171.421 104.168,171.421C103.546,171.421 103.04,171.926 103.04,172.549L103.04,180.068C103.04,184.066 106.068,187.262 109.744,187.262ZM86.704,187.163L86.866,187.16C90.238,187.069 92.988,184.108 92.988,180.419L92.988,172.549C92.988,171.981 92.527,171.52 91.959,171.52C91.391,171.52 90.93,171.981 90.93,172.549L90.93,180.419C90.93,182.985 89.064,185.105 86.705,185.105L86.704,185.105C84.168,185.105 82.157,182.827 82.157,180.068L82.157,172.549C82.157,171.981 81.696,171.52 81.128,171.52C80.56,171.52 80.1,171.981 80.1,172.549L80.1,180.068C80.1,184.009 83.081,187.163 86.704,187.163ZM118.666,168.181L141.734,168.181C142.311,168.181 142.78,167.712 142.78,167.134C142.78,166.557 142.311,166.088 141.734,166.088L118.666,166.088C118.089,166.088 117.62,166.557 117.62,167.134C117.62,167.712 118.089,168.181 118.666,168.181ZM53.907,168.181L76.974,168.181C77.552,168.181 78.021,167.712 78.021,167.134C78.021,166.557 77.552,166.088 76.974,166.088L53.907,166.088C53.33,166.088 52.861,166.557 52.861,167.134C52.861,167.712 53.33,168.181 53.907,168.181ZM122.252,144.846C126.029,150.295 126.258,155.744 122.268,161.194C121.927,161.659 122.028,162.314 122.494,162.654C122.959,162.995 123.614,162.894 123.955,162.429C128.536,156.171 128.308,149.913 123.97,143.655C123.642,143.181 122.99,143.063 122.516,143.391C122.042,143.72 121.924,144.372 122.252,144.846ZM73.383,143.655C69.045,149.913 68.817,156.171 73.399,162.429C73.74,162.894 74.394,162.995 74.86,162.654C75.325,162.314 75.426,161.659 75.086,161.194C71.096,155.744 71.324,150.295 75.101,144.846C75.43,144.372 75.312,143.72 74.838,143.391C74.363,143.063 73.712,143.181 73.383,143.655ZM174.222,147.38L191.447,162.545C191.908,162.95 192.611,162.905 193.016,162.445C193.422,161.984 193.377,161.281 192.916,160.876L175.691,145.711C175.23,145.306 174.527,145.35 174.122,145.811C173.716,146.272 173.761,146.975 174.222,147.38ZM67.71,145.2L50.41,160.43C49.949,160.836 49.904,161.54 50.31,162.001C50.716,162.462 51.419,162.506 51.88,162.101L69.18,146.871C69.641,146.465 69.686,145.761 69.28,145.3C68.874,144.839 68.171,144.794 67.71,145.2ZM167.105,144.841L149.805,160.071C149.344,160.477 149.299,161.181 149.705,161.642C150.111,162.103 150.814,162.147 151.275,161.742L168.575,146.512C169.036,146.106 169.081,145.402 168.675,144.941C168.269,144.48 167.566,144.435 167.105,144.841ZM79.794,153.111L76.888,154.803C76.563,154.993 76.405,155.377 76.503,155.741C76.522,155.809 76.549,155.873 76.582,155.933L76.791,156.305C77.061,156.704 77.477,156.665 77.477,156.665C77.625,156.665 77.771,156.625 77.898,156.55L80.785,154.857L80.785,158.244C80.785,158.69 81.135,159.054 81.575,159.076L81.999,159.076C82.44,159.054 82.79,158.69 82.79,158.244L82.79,154.857L85.676,156.55C85.804,156.625 85.95,156.665 86.098,156.665C86.098,156.665 86.566,156.709 86.832,156.225L86.993,155.933C87.026,155.873 87.053,155.809 87.071,155.741C87.169,155.377 87.012,154.993 86.686,154.803L83.781,153.111L86.686,151.418C87.012,151.229 87.169,150.845 87.071,150.481C87.053,150.413 87.026,150.348 86.993,150.289L86.832,149.997C86.566,149.512 86.098,149.557 86.098,149.557C85.95,149.557 85.804,149.597 85.676,149.672L82.79,151.365L82.79,147.978C82.79,147.532 82.44,147.168 81.999,147.146L81.575,147.146C81.135,147.168 80.785,147.532 80.785,147.978L80.785,151.365L77.898,149.672C77.771,149.597 77.625,149.557 77.477,149.557C77.477,149.557 77.061,149.518 76.791,149.917L76.582,150.289C76.549,150.348 76.522,150.413 76.503,150.481C76.405,150.845 76.563,151.229 76.888,151.418L79.794,153.111ZM95.492,153.564L109.596,153.564C110.173,153.564 110.641,153.096 110.641,152.519C110.641,151.942 110.173,151.474 109.596,151.474L95.492,151.474C94.915,151.474 94.447,151.942 94.447,152.519C94.447,153.096 94.915,153.564 95.492,153.564ZM90.422,141.95C88.999,141.95 87.836,143.118 87.836,144.566C87.836,146.014 88.999,147.182 90.422,147.182C91.846,147.182 93.008,146.014 93.008,144.566C93.008,143.118 91.846,141.95 90.422,141.95ZM113.842,141.95C112.419,141.95 111.256,143.118 111.256,144.566C111.256,146.014 112.419,147.182 113.842,147.182C115.266,147.182 116.428,146.014 116.428,144.566C116.428,143.118 115.266,141.95 113.842,141.95ZM170.454,142.677L170.454,145.677C170.454,146.29 170.951,146.787 171.564,146.787C172.177,146.787 172.674,146.29 172.674,145.677L172.674,142.677C172.674,142.064 172.177,141.567 171.564,141.567C170.951,141.567 170.454,142.064 170.454,142.677ZM90.422,143.613C90.935,143.613 91.345,144.044 91.345,144.566C91.345,145.088 90.935,145.519 90.422,145.519C89.909,145.519 89.499,145.088 89.499,144.566C89.499,144.044 89.909,143.613 90.422,143.613ZM113.842,143.613C114.355,143.613 114.765,144.044 114.765,144.566C114.765,145.088 114.355,145.519 113.842,145.519C113.329,145.519 112.919,145.088 112.919,144.566C112.919,144.044 113.329,143.613 113.842,143.613ZM121.058,141.109L170.295,141.109C170.871,141.109 171.338,140.642 171.338,140.067C171.338,139.491 170.871,139.024 170.295,139.024L121.058,139.024C120.483,139.024 120.016,139.491 120.016,140.067C120.016,140.642 120.483,141.109 121.058,141.109ZM118.814,134.234L111.679,119.17C111.495,118.782 111.104,118.534 110.675,118.534C110.246,118.534 109.855,118.782 109.671,119.17L102.536,134.234C102.273,134.788 102.51,135.451 103.064,135.713C103.618,135.976 104.281,135.739 104.543,135.185L110.675,122.24L116.807,135.185C117.069,135.739 117.732,135.976 118.286,135.713C118.84,135.451 119.077,134.788 118.814,134.234ZM91.19,134.234L84.055,119.17C83.871,118.782 83.48,118.534 83.051,118.534C82.622,118.534 82.231,118.782 82.047,119.17L74.912,134.234C74.649,134.788 74.886,135.451 75.44,135.713C75.994,135.976 76.657,135.739 76.919,135.185L83.051,122.24L89.183,135.185C89.445,135.739 90.108,135.976 90.662,135.713C91.216,135.451 91.453,134.788 91.19,134.234Z"/>
    </g>
</svg>
