<?xml version="1.0" encoding="UTF-8" standalone="no"?>
<!DOCTYPE svg PUBLIC "-//W3C//DTD SVG 1.1//EN" "http://www.w3.org/Graphics/SVG/1.1/DTD/svg11.dtd">
<svg width="62px" height="135px" version="1.1" xmlns="http://www.w3.org/2000/svg" xmlns:xlink="http://www.w3.org/1999/xlink" xml:space="preserve" xmlns:serif="http://www.serif.com/" style="fill-rule:evenodd;clip-rule:evenodd;stroke-linejoin:round;stroke-miterlimit:2;">
    <g transform="matrix(0.624948,0,0,0.624948,-37.4837,-1.19799)">
        <path d="M88.093,59.254C88.971,59.176 89.668,59.097 89.913,59.038C92.497,58.414 94.242,55.887 93.807,54.087C93.372,52.287 90.921,51.333 88.337,51.957C87.786,52.09 84.997,52.705 83.019,53.235C82.706,52.758 82.4,52.268 82.105,51.766C79.884,47.99 78.229,43.538 77.853,38.851C77.79,37.905 78.392,37.042 79.301,36.775C91.189,33.474 85.838,20.484 75.529,28.034C73.622,25.288 73.078,11.256 73.078,8.047C73.078,5.32 70.997,3.11 68.43,3.11L68.429,3.11C65.704,3.11 63.495,5.456 63.495,8.35L63.495,14.845C62.765,24.798 63.707,32.222 64.573,39.861C64.949,41.479 66.334,51.995 67.076,57.73C67.377,59.908 69.142,61.59 71.331,61.787C73.896,62.019 76.823,62.281 76.823,62.281C81.56,63.464 81.059,71.749 72.97,71.19L66.171,71.19C63.445,71.19 61.234,73.272 61.234,75.839L61.234,75.84C61.234,78.565 63.58,80.774 66.474,80.774L72.97,80.774C77.992,80.992 79.89,84.441 79.652,90.101L79.652,107.39C79.84,108.988 80.735,110.585 82.126,112.182L82.126,175.397C82.195,185.253 81.497,189.744 80.682,193.413C79.899,196.193 83.455,196.717 84.615,194.2C86.871,192.256 88.637,192.758 90.013,195.217C91.549,199.492 94.538,203.283 99.598,206.383L99.598,212.199C99.598,214.79 101.529,216.89 103.911,216.89L103.912,216.89C106.156,216.89 107.975,214.911 107.975,212.47L107.975,206.383C112.669,207.146 117.363,207.123 122.057,206.383L122.057,212.199C122.057,214.79 123.988,216.89 126.369,216.89L126.371,216.89C128.615,216.89 130.434,214.911 130.434,212.47C130.434,209.597 130.465,205.663 130.465,205.663C133.176,202.391 134.873,199.292 135.982,196.128C139.305,192.185 140.184,188.171 140.709,182.871L140.606,175.397L140.606,157.156C140.476,154.522 141.101,151.873 142.162,150.556C145.266,146.316 144.332,140.929 141.834,136.37C141.537,135.827 141.479,135.185 141.674,134.598C141.869,134.01 142.289,133.504 142.863,133.274C145.867,132.068 147.975,130.601 149.344,128.859C152.95,123.934 152.758,119.009 149.344,114.084C148.45,112.621 147.418,111.042 145.766,108.946C145.592,108.724 145.545,108.429 145.64,108.164C145.734,107.899 145.959,107.701 146.234,107.64C156.568,105.176 159.394,89.052 152.039,83.738C152.039,83.738 142.408,75.613 138.224,72.084C137.069,71.11 136.416,69.665 136.449,68.153C136.688,57.09 136.239,10.35 135.853,8.047C135.402,5.358 133.772,3.11 131.204,3.11L131.203,3.11C128.478,3.11 126.269,5.456 126.269,8.35L126.269,14.845L126.226,25.844L119.978,25.844C117.251,25.844 115.041,27.925 115.041,30.492L115.041,30.494C115.041,33.218 117.387,35.427 120.281,35.427L126.777,35.427L126.777,52.867C124.252,52.089 122.22,54.038 122.174,56.513C122.159,57.323 122.546,59.713 125.269,60.403C127.864,61.061 126.725,62.774 125.118,62.423L101.8,62.423C101.8,62.423 96.453,62.478 94.09,62.503C93.257,62.512 92.434,62.312 91.698,61.922C90.545,61.277 89.32,60.373 88.093,59.254Z" style="fill:white;"/>
    </g>
    <g transform="matrix(0.624948,0,0,0.624948,-37.4837,-1.19799)">
        <path d="M120.801,206.383L120.801,212.199C120.801,215.39 123.225,217.935 126.159,217.935L126.16,217.935C128.956,217.935 131.268,215.511 131.268,212.47L131.268,206.383C131.268,205.807 130.799,205.339 130.223,205.339C129.646,205.339 129.178,205.807 129.178,206.383L129.178,212.47C129.178,214.311 127.852,215.845 126.16,215.845L126.159,215.845C124.328,215.845 122.891,214.19 122.891,212.199L122.891,206.383C122.891,205.807 122.423,205.339 121.846,205.339C121.269,205.339 120.801,205.807 120.801,206.383ZM98.343,206.383L98.343,212.199C98.343,215.39 100.766,217.935 103.7,217.935L103.701,217.935C106.497,217.935 108.809,215.511 108.809,212.47L108.809,206.383C108.809,205.807 108.341,205.339 107.764,205.339C107.188,205.339 106.72,205.807 106.72,206.383L106.72,212.47C106.72,214.311 105.394,215.845 103.701,215.845L103.7,215.845C101.87,215.845 100.432,214.19 100.432,212.199L100.432,206.383C100.432,205.807 99.964,205.339 99.387,205.339C98.811,205.339 98.343,205.807 98.343,206.383ZM113.824,202.183L111.926,205.967C111.668,206.483 111.877,207.111 112.392,207.37C112.907,207.628 113.536,207.419 113.794,206.904L115.692,203.12C115.95,202.605 115.742,201.976 115.226,201.718C114.711,201.459 114.083,201.668 113.824,202.183ZM117.933,202.183L116.035,205.967C115.777,206.483 115.985,207.111 116.501,207.37C117.016,207.628 117.644,207.419 117.903,206.904L119.801,203.12C120.059,202.605 119.85,201.976 119.335,201.718C118.82,201.459 118.191,201.668 117.933,202.183ZM111.117,198.958L128.085,198.958C128.661,198.958 129.13,198.49 129.13,197.913C129.13,197.337 128.661,196.869 128.085,196.869L111.117,196.869C110.54,196.869 110.072,197.337 110.072,197.913C110.072,198.49 110.54,198.958 111.117,198.958ZM102.758,195.347L102.758,197.525C102.758,198.044 103.18,198.465 103.699,198.465C104.217,198.465 104.639,198.044 104.639,197.525L104.639,195.347C104.639,194.828 104.217,194.407 103.699,194.407C103.18,194.407 102.758,194.828 102.758,195.347ZM131.045,195.347L131.045,197.525C131.045,198.044 131.466,198.465 131.985,198.465C132.504,198.465 132.925,198.044 132.925,197.525L132.925,195.347C132.925,194.828 132.504,194.407 131.985,194.407C131.466,194.407 131.045,194.828 131.045,195.347ZM106.906,195.347L106.906,197.525C106.906,198.044 107.327,198.465 107.846,198.465C108.365,198.465 108.786,198.044 108.786,197.525L108.786,195.347C108.786,194.828 108.365,194.407 107.846,194.407C107.327,194.407 106.906,194.828 106.906,195.347ZM81.025,186.108L79.457,193.161C78.984,194.884 79.693,196.011 80.696,196.54C82.078,197.268 84.358,196.796 85.353,194.637C85.594,194.114 85.365,193.493 84.842,193.251C84.318,193.01 83.697,193.239 83.456,193.763C83.159,194.405 82.627,194.751 82.12,194.777C81.895,194.788 81.672,194.742 81.534,194.588C81.362,194.396 81.366,194.09 81.477,193.697C81.482,193.678 81.487,193.659 81.491,193.64L83.064,186.561C83.189,185.998 82.834,185.44 82.271,185.315C81.708,185.189 81.15,185.545 81.025,186.108ZM139.355,182.758C138.856,187.796 137.675,191.17 134.517,194.917C134.108,195.402 134.17,196.128 134.655,196.537C135.14,196.945 135.865,196.883 136.274,196.398C139.761,192.261 141.091,188.547 141.642,182.984C141.704,182.353 141.243,181.79 140.611,181.728C139.98,181.665 139.417,182.127 139.355,182.758ZM89.927,194.177C90.574,194.177 91.1,194.703 91.1,195.35C91.1,195.997 90.574,196.522 89.927,196.522C89.28,196.522 88.755,195.997 88.755,195.35C88.755,194.703 89.28,194.177 89.927,194.177ZM97.096,187.127C98.06,187.127 98.843,187.91 98.843,188.874C98.843,189.838 98.06,190.62 97.096,190.62C96.132,190.62 95.349,189.838 95.349,188.874C95.349,187.91 96.132,187.127 97.096,187.127ZM80.662,157.156L80.662,175.397C80.662,176.089 81.224,176.65 81.915,176.65C82.607,176.65 83.169,176.089 83.169,175.397L83.169,157.156C83.169,156.464 82.607,155.902 81.915,155.902C81.224,155.902 80.662,156.464 80.662,157.156ZM139.141,157.156L139.141,175.397C139.141,176.089 139.703,176.65 140.395,176.65C141.087,176.65 141.648,176.089 141.648,175.397L141.648,157.156C141.648,156.464 141.087,155.902 140.395,155.902C139.703,155.902 139.141,156.464 139.141,157.156ZM119.216,167.526C119.399,167.526 119.555,167.593 119.683,167.727C119.811,167.861 119.875,168.02 119.875,168.203L119.875,168.861C119.875,168.922 119.905,168.953 119.966,168.953L122.819,168.953C123.002,168.953 123.161,169.017 123.295,169.145C123.429,169.273 123.496,169.428 123.496,169.611L123.496,169.776C123.496,169.959 123.429,170.117 123.295,170.251C123.161,170.385 123.002,170.452 122.819,170.452L119.966,170.452C119.905,170.452 119.875,170.477 119.875,170.525L119.875,172.629C119.875,172.677 119.905,172.702 119.966,172.702C121.356,172.434 122.344,172.232 122.929,172.098C123.087,172.062 123.234,172.095 123.368,172.199C123.502,172.303 123.569,172.44 123.569,172.61L123.569,172.921C123.569,173.348 123.356,173.616 122.929,173.726C120.795,174.25 118.735,174.634 116.747,174.878C116.564,174.903 116.397,174.854 116.244,174.732C116.092,174.61 116.01,174.458 115.997,174.275L115.979,173.964C115.955,173.781 115.997,173.616 116.107,173.47C116.217,173.324 116.369,173.244 116.564,173.232L117.845,173.049C117.918,173.049 117.96,173.013 117.973,172.94L117.973,168.203C117.973,168.02 118.034,167.861 118.155,167.727C118.277,167.593 118.43,167.526 118.613,167.526L119.216,167.526ZM114.278,174.677L113.711,174.037C113.431,173.708 113.376,173.336 113.547,172.921C114.229,171.166 114.571,168.514 114.571,164.966L114.571,160.064C114.571,159.881 114.638,159.726 114.772,159.598C114.906,159.47 115.065,159.406 115.248,159.406L121.429,159.406C121.478,159.406 121.502,159.375 121.502,159.314L121.502,158.51C121.502,158.327 121.569,158.171 121.704,158.043C121.838,157.915 121.996,157.851 122.179,157.851L122.911,157.851C123.094,157.851 123.249,157.912 123.377,158.034C123.505,158.156 123.569,158.314 123.569,158.51L123.569,159.314C123.569,159.375 123.6,159.406 123.66,159.406L129.806,159.406C129.989,159.406 130.144,159.467 130.272,159.589C130.4,159.711 130.464,159.869 130.464,160.064L130.464,160.32C130.464,160.503 130.4,160.659 130.272,160.787C130.144,160.915 129.989,160.979 129.806,160.979L125.581,160.979C125.52,160.979 125.489,161.009 125.489,161.07L125.489,162.259C125.489,162.32 125.52,162.35 125.581,162.35L129.184,162.35C129.367,162.35 129.522,162.411 129.65,162.533C129.778,162.655 129.842,162.814 129.842,163.009L129.842,166.41C129.842,166.593 129.778,166.752 129.65,166.886C129.522,167.02 129.367,167.087 129.184,167.087L116.583,167.087C116.522,167.087 116.491,167.112 116.491,167.16C116.418,170.184 115.924,172.659 115.01,174.586C114.949,174.72 114.836,174.799 114.671,174.823C114.507,174.848 114.376,174.799 114.278,174.677ZM130.171,171.074C130.354,171.086 130.507,171.169 130.629,171.321C130.751,171.473 130.799,171.641 130.775,171.824C130.738,172.36 130.702,172.775 130.665,173.068C130.629,173.36 130.549,173.635 130.427,173.891C130.306,174.147 130.196,174.32 130.098,174.412C130.001,174.503 129.796,174.589 129.486,174.668C129.175,174.747 128.882,174.79 128.608,174.796C128.333,174.802 127.904,174.805 127.318,174.805C126.696,174.805 126.212,174.796 125.864,174.778C125.517,174.759 125.218,174.729 124.968,174.686C124.718,174.644 124.551,174.564 124.465,174.448C124.38,174.333 124.322,174.211 124.291,174.083C124.261,173.955 124.246,173.757 124.246,173.488L124.246,168.203C124.246,168.02 124.307,167.861 124.429,167.727C124.551,167.593 124.703,167.526 124.886,167.526L125.489,167.526C125.672,167.526 125.828,167.593 125.956,167.727C126.084,167.861 126.148,168.02 126.148,168.203L126.148,169.245C126.148,169.27 126.157,169.291 126.175,169.309C126.194,169.328 126.209,169.331 126.221,169.318C127.196,169.001 128.312,168.55 129.568,167.965C129.726,167.892 129.894,167.886 130.071,167.947C130.248,168.008 130.379,168.117 130.464,168.276L130.555,168.495C130.629,168.654 130.635,168.822 130.574,168.998C130.513,169.175 130.397,169.3 130.226,169.373C128.836,170.019 127.501,170.519 126.221,170.873C126.172,170.885 126.148,170.922 126.148,170.983L126.148,172.738C126.148,172.97 126.203,173.107 126.312,173.15C126.422,173.193 126.794,173.214 127.428,173.214C128.135,173.214 128.571,173.141 128.736,172.995C128.9,172.848 129.007,172.391 129.056,171.623C129.068,171.452 129.144,171.306 129.284,171.184C129.425,171.062 129.586,171.013 129.769,171.038L130.171,171.074ZM110.936,170.654C111.583,170.654 112.108,171.18 112.108,171.827C112.108,172.474 111.583,172.999 110.936,172.999C110.289,172.999 109.763,172.474 109.763,171.827C109.763,171.18 110.289,170.654 110.936,170.654ZM98.551,165.465C99.198,165.465 99.724,165.991 99.724,166.638C99.724,167.285 99.198,167.81 98.551,167.81C97.904,167.81 97.379,167.285 97.379,166.638C97.379,165.991 97.904,165.465 98.551,165.465ZM89.927,165.465C90.574,165.465 91.1,165.991 91.1,166.638C91.1,167.285 90.574,167.81 89.927,167.81C89.28,167.81 88.755,167.285 88.755,166.638C88.755,165.991 89.28,165.465 89.927,165.465ZM125.489,163.795L125.489,165.587C125.489,165.636 125.52,165.661 125.581,165.661L127.977,165.661C128.025,165.661 128.05,165.636 128.05,165.587L128.05,163.795C128.05,163.746 128.025,163.716 127.977,163.704L125.581,163.704C125.52,163.716 125.489,163.746 125.489,163.795ZM120.99,163.795L120.99,165.587C120.99,165.636 121.027,165.661 121.1,165.661L123.496,165.661C123.545,165.661 123.569,165.636 123.569,165.587L123.569,163.795C123.569,163.746 123.545,163.716 123.496,163.704L121.1,163.704C121.027,163.716 120.99,163.746 120.99,163.795ZM116.509,163.795L116.509,165.587C116.509,165.636 116.54,165.661 116.601,165.661L118.997,165.661C119.046,165.661 119.07,165.636 119.07,165.587L119.07,163.795C119.07,163.746 119.046,163.716 118.997,163.704L116.601,163.704C116.54,163.716 116.509,163.746 116.509,163.795ZM120.99,161.07L120.99,162.259C120.99,162.32 121.027,162.35 121.1,162.35L123.496,162.35C123.545,162.35 123.569,162.32 123.569,162.259L123.569,161.07C123.569,161.009 123.545,160.979 123.496,160.979L121.1,160.979C121.027,160.979 120.99,161.009 120.99,161.07ZM116.509,161.07L116.509,162.259C116.509,162.32 116.54,162.35 116.601,162.35L118.997,162.35C119.046,162.35 119.07,162.32 119.07,162.259L119.07,161.07C119.07,161.009 119.046,160.979 118.997,160.979L116.601,160.979C116.54,160.979 116.509,161.009 116.509,161.07ZM80.662,134.669L80.662,152.91C80.662,153.602 81.224,154.164 81.915,154.164C82.607,154.164 83.169,153.602 83.169,152.91L83.169,134.669C83.169,133.977 82.607,133.415 81.915,133.415C81.224,133.415 80.662,133.977 80.662,134.669ZM135.362,133.299L135.362,151.54C135.362,152.232 135.924,152.794 136.616,152.794C137.308,152.794 137.87,152.232 137.87,151.54L137.87,133.299C137.87,132.607 137.308,132.046 136.616,132.046C135.924,132.046 135.362,132.607 135.362,133.299ZM94.739,135.589C91.045,140.918 90.853,146.247 94.755,151.576C95.095,152.042 95.75,152.143 96.215,151.802C96.68,151.461 96.781,150.807 96.44,150.342C93.13,145.821 93.322,141.3 96.456,136.78C96.785,136.306 96.667,135.654 96.193,135.326C95.719,134.997 95.068,135.115 94.739,135.589ZM140.689,136.78C143.823,141.3 144.015,145.821 140.705,150.342C140.364,150.807 140.465,151.461 140.93,151.802C141.396,152.143 142.05,152.042 142.39,151.576C146.292,146.247 146.1,140.918 142.406,135.589C142.078,135.115 141.426,134.997 140.952,135.326C140.478,135.654 140.36,136.306 140.689,136.78ZM105.223,137.204C104.308,142.184 102.851,145.448 99.392,148.92C98.945,149.37 98.946,150.098 99.396,150.546C99.845,150.993 100.573,150.992 101.021,150.542C104.839,146.708 106.473,143.117 107.484,137.62C107.598,136.996 107.185,136.397 106.561,136.282C105.938,136.167 105.338,136.581 105.223,137.204ZM80.662,112.182L80.662,130.423C80.662,131.115 81.224,131.677 81.915,131.677C82.607,131.677 83.169,131.115 83.169,130.423L83.169,112.182C83.169,111.49 82.607,110.929 81.915,110.929C81.224,110.929 80.662,111.49 80.662,112.182ZM112.222,127.716C112.734,128.454 112.775,129.192 112.235,129.93C111.962,130.302 112.043,130.825 112.415,131.098C112.788,131.37 113.311,131.289 113.583,130.917C114.597,129.532 114.556,128.148 113.596,126.763C113.333,126.384 112.812,126.29 112.433,126.553C112.054,126.815 111.96,127.336 112.222,127.716ZM116.345,127.716C116.857,128.454 116.898,129.192 116.358,129.93C116.085,130.302 116.166,130.825 116.538,131.098C116.91,131.37 117.434,131.289 117.706,130.917C118.72,129.532 118.678,128.148 117.719,126.763C117.456,126.384 116.935,126.29 116.556,126.553C116.177,126.815 116.082,127.336 116.345,127.716ZM138.977,130.808L139.062,130.808C139.33,130.802 139.557,130.708 139.747,130.53C139.949,130.339 140.049,130.107 140.049,129.835L140.049,126.902C140.049,126.633 139.951,126.399 139.752,126.202C139.555,126.008 139.317,125.91 139.036,125.91L138.396,125.91L138.396,114.437C138.396,114.165 138.296,113.932 138.093,113.742C137.898,113.557 137.662,113.464 137.383,113.464L130.439,113.464C130.156,113.464 129.921,113.56 129.733,113.747C129.541,113.936 129.445,114.166 129.445,114.437L129.445,115.042C129.445,116.896 129.432,118.301 129.406,119.259C129.381,120.215 129.345,121.091 129.3,121.889C129.256,122.654 129.167,123.246 129.024,123.667C128.881,124.088 128.727,124.454 128.559,124.764C128.395,125.067 128.147,125.448 127.814,125.91L127.561,125.91C127.28,125.91 127.041,126.008 126.845,126.202C126.645,126.399 126.547,126.633 126.547,126.902L126.547,129.835C126.547,130.107 126.647,130.339 126.85,130.53C127.045,130.714 127.282,130.808 127.561,130.808L127.645,130.808C127.913,130.802 128.141,130.708 128.33,130.53C128.532,130.339 128.633,130.107 128.633,129.835L128.633,127.802L137.964,127.802L137.964,129.835C137.964,130.107 138.064,130.339 138.266,130.53C138.462,130.714 138.698,130.808 138.977,130.808ZM148.274,114.679C151.408,119.2 151.6,123.721 148.29,128.242C147.949,128.707 148.051,129.361 148.516,129.702C148.981,130.042 149.635,129.941 149.976,129.476C153.878,124.147 153.686,118.818 149.991,113.489C149.663,113.015 149.012,112.897 148.538,113.226C148.064,113.554 147.946,114.205 148.274,114.679ZM108.591,113.489C104.897,118.818 104.705,124.147 108.607,129.476C108.947,129.941 109.602,130.042 110.067,129.702C110.532,129.361 110.633,128.707 110.293,128.242C106.983,123.721 107.174,119.2 110.308,114.679C110.637,114.205 110.519,113.554 110.045,113.226C109.571,112.897 108.92,113.015 108.591,113.489ZM130.385,125.91C130.952,124.918 131.293,123.938 131.412,122.971C131.54,121.928 131.606,119.39 131.608,115.355L136.175,115.355L136.175,125.91L130.385,125.91ZM88.022,120.705C88.669,120.705 89.194,121.231 89.194,121.878C89.194,122.525 88.669,123.05 88.022,123.05C87.375,123.05 86.849,122.525 86.849,121.878C86.849,121.231 87.375,120.705 88.022,120.705ZM121.265,111.925C119.841,111.925 118.677,113.095 118.677,114.543C118.677,115.992 119.841,117.161 121.265,117.161C122.69,117.161 123.853,115.992 123.853,114.543C123.853,113.095 122.69,111.925 121.265,111.925ZM143.618,111.925C142.194,111.925 141.03,113.095 141.03,114.543C141.03,115.992 142.194,117.161 143.618,117.161C145.043,117.161 146.206,115.992 146.206,114.543C146.206,113.095 145.043,111.925 143.618,111.925ZM143.618,113.592C144.131,113.592 144.54,114.022 144.54,114.543C144.54,115.064 144.131,115.494 143.618,115.494C143.106,115.494 142.697,115.064 142.697,114.543C142.697,114.022 143.106,113.592 143.618,113.592ZM121.265,113.592C121.778,113.592 122.187,114.022 122.187,114.543C122.187,115.064 121.778,115.494 121.265,115.494C120.753,115.494 120.344,115.064 120.344,114.543C120.344,114.022 120.753,113.592 121.265,113.592ZM78.187,90.101L78.187,107.39C78.187,108.082 78.749,108.644 79.441,108.644C80.133,108.644 80.694,108.082 80.694,107.39L80.694,90.101C80.694,89.409 80.133,88.848 79.441,88.848C78.749,88.848 78.187,89.409 78.187,90.101ZM95.508,108.502L133.186,108.502C133.763,108.502 134.231,108.034 134.231,107.457C134.231,106.88 133.763,106.412 133.186,106.412L95.508,106.412C94.931,106.412 94.463,106.88 94.463,107.457C94.463,108.034 94.931,108.502 95.508,108.502ZM135.307,104.047L135.307,106.225C135.307,106.744 135.728,107.166 136.247,107.166C136.766,107.166 137.187,106.744 137.187,106.225L137.187,104.047C137.187,103.528 136.766,103.107 136.247,103.107C135.728,103.107 135.307,103.528 135.307,104.047ZM139.455,104.047L139.455,106.225C139.455,106.744 139.876,107.166 140.395,107.166C140.914,107.166 141.335,106.744 141.335,106.225L141.335,104.047C141.335,103.528 140.914,103.107 140.395,103.107C139.876,103.107 139.455,103.528 139.455,104.047ZM158.664,92.82L145.878,92.82C145.673,92.82 145.521,92.914 145.427,93.107C145.342,93.281 145.344,93.459 145.436,93.641L151.816,105.548C151.915,105.742 152.07,105.836 152.271,105.836C152.473,105.836 152.627,105.742 152.728,105.544C152.726,105.548 159.103,93.648 159.103,93.648C159.211,93.461 159.214,93.279 159.119,93.101C159.019,92.911 158.865,92.82 158.664,92.82ZM135.371,71.358L151.087,84.616C151.572,85.025 152.298,84.963 152.706,84.479C153.115,83.994 153.054,83.268 152.569,82.859L136.852,69.602C136.368,69.193 135.642,69.254 135.233,69.739C134.824,70.224 134.886,70.95 135.371,71.358ZM84.693,69.723L77.582,82.423C77.272,82.977 77.47,83.678 78.023,83.987C78.576,84.297 79.277,84.1 79.587,83.546L86.698,70.846C87.008,70.293 86.81,69.592 86.257,69.282C85.704,68.972 85.003,69.17 84.693,69.723ZM72.759,79.729L66.264,79.729C63.963,79.729 62.068,78.006 62.068,75.84L62.068,75.839C62.068,73.831 63.828,72.235 65.96,72.235L72.759,72.235C73.336,72.235 73.804,71.767 73.804,71.19C73.804,70.614 73.336,70.146 72.759,70.146L65.96,70.146C62.64,70.146 59.979,72.713 59.979,75.839L59.979,75.84C59.979,79.124 62.776,81.818 66.264,81.818L72.759,81.818C73.336,81.818 73.804,81.35 73.804,80.774C73.804,80.197 73.336,79.729 72.759,79.729ZM110.337,73.978C111.301,73.978 112.083,74.76 112.083,75.724C112.083,76.688 111.301,77.471 110.337,77.471C109.373,77.471 108.59,76.688 108.59,75.724C108.59,74.76 109.373,73.978 110.337,73.978ZM101.59,63.468L119.009,63.468C119.585,63.468 120.053,63 120.053,62.423C120.053,61.847 119.585,61.378 119.009,61.378L101.59,61.378C101.013,61.378 100.545,61.847 100.545,62.423C100.545,63 101.013,63.468 101.59,63.468ZM76.107,59.504L76.107,61.683C76.107,62.202 76.528,62.623 77.047,62.623C77.566,62.623 77.987,62.202 77.987,61.683L77.987,59.504C77.987,58.986 77.566,58.564 77.047,58.564C76.528,58.564 76.107,58.986 76.107,59.504ZM130.739,59.314L130.739,61.492C130.739,62.011 131.16,62.432 131.679,62.432C132.198,62.432 132.619,62.011 132.619,61.492L132.619,59.314C132.619,58.795 132.198,58.374 131.679,58.374C131.16,58.374 130.739,58.795 130.739,59.314ZM134.886,59.594L134.886,60.25C134.886,60.863 135.384,61.361 135.997,61.361C136.611,61.361 137.109,60.863 137.109,60.25L137.109,59.594C137.109,58.98 136.611,58.482 135.997,58.482C135.384,58.482 134.886,58.98 134.886,59.594ZM65.598,59.594L65.598,60.25C65.598,60.863 66.095,61.361 66.709,61.361C67.322,61.361 67.82,60.863 67.82,60.25L67.82,59.594C67.82,58.98 67.322,58.482 66.709,58.482C66.095,58.482 65.598,58.98 65.598,59.594ZM121.078,56.28L121.078,56.222C121.078,54.717 121.57,53.509 122.41,52.668C123.251,51.828 124.458,51.336 125.964,51.336C126.885,51.336 127.754,51.544 128.571,51.944C128.956,52.132 129.161,52.56 129.064,52.978C129.046,53.053 129.021,53.124 128.987,53.189L128.862,53.44C128.58,54.002 128.035,53.956 128.035,53.956C127.892,53.956 127.751,53.922 127.623,53.858C127.106,53.599 126.552,53.471 125.964,53.471C125.117,53.471 124.415,53.707 123.934,54.185C123.454,54.663 123.213,55.364 123.213,56.222C123.213,56.516 123.246,56.793 123.309,57.051L123.299,57.051C123.408,57.537 123.62,57.946 123.934,58.258C124.415,58.736 125.117,58.973 125.964,58.973C126.552,58.973 127.106,58.844 127.623,58.586C127.751,58.522 127.892,58.489 128.035,58.489C128.035,58.489 128.58,58.441 128.862,59.003L128.987,59.254C129.021,59.32 129.046,59.391 129.064,59.466C129.161,59.883 128.956,60.312 128.571,60.501C127.754,60.9 126.885,61.108 125.964,61.108C124.458,61.108 123.251,60.617 122.41,59.776C121.581,58.945 121.091,57.759 121.078,56.28ZM84.331,54.021C85.92,53.527 87.299,52.768 88.578,52.357C89.486,52.066 90.33,51.968 91.176,52.61C91.788,53.075 92.08,53.662 92.197,54.239C92.437,55.416 91.837,56.603 90.748,57.109C89.942,57.475 89.044,57.831 87.844,57.922C87.211,57.969 86.737,58.522 86.784,59.154C86.832,59.786 87.384,60.261 88.016,60.213C89.539,60.099 90.682,59.663 91.704,59.199C91.706,59.198 91.709,59.196 91.711,59.195C93.768,58.243 94.901,56.002 94.449,53.78C94.233,52.718 93.694,51.636 92.565,50.779C91.032,49.617 89.522,49.641 87.876,50.169C86.603,50.578 85.23,51.335 83.649,51.826C83.043,52.015 82.704,52.659 82.893,53.265C83.081,53.87 83.725,54.209 84.331,54.021ZM65.598,47.621L65.598,55.76C65.598,56.373 66.095,56.871 66.709,56.871C67.322,56.871 67.82,56.373 67.82,55.76L67.82,47.621C67.82,47.008 67.322,46.51 66.709,46.51C66.095,46.51 65.598,47.008 65.598,47.621ZM134.886,47.621L134.886,55.76C134.886,56.373 135.384,56.871 135.997,56.871C136.611,56.871 137.109,56.373 137.109,55.76L137.109,47.621C137.109,47.008 136.611,46.51 135.997,46.51C135.384,46.51 134.886,47.008 134.886,47.621ZM79.343,48.083L79.343,50.261C79.343,50.78 79.764,51.202 80.283,51.202C80.802,51.202 81.223,50.78 81.223,50.261L81.223,48.083C81.223,47.564 80.802,47.143 80.283,47.143C79.764,47.143 79.343,47.564 79.343,48.083ZM134.687,21.895L134.687,39.755C134.687,40.447 135.248,41.009 135.94,41.009C136.632,41.009 137.194,40.447 137.194,39.755L137.194,21.895C137.194,21.203 136.632,20.641 135.94,20.641C135.248,20.641 134.687,21.203 134.687,21.895ZM62.352,21.895L62.352,39.755C62.352,40.447 62.914,41.009 63.606,41.009C64.298,41.009 64.859,40.447 64.859,39.755L64.859,21.895C64.859,21.203 64.298,20.641 63.606,20.641C62.914,20.641 62.352,21.203 62.352,21.895ZM74.346,29.66C76.352,29.037 78.093,28.078 79.709,27.56C80.953,27.161 82.106,27.047 83.265,27.926C84.106,28.565 84.507,29.372 84.668,30.164C84.999,31.788 84.171,33.427 82.668,34.124C81.622,34.6 80.455,35.061 78.896,35.178C78.263,35.226 77.789,35.778 77.836,36.41C77.884,37.043 78.436,37.518 79.068,37.47C80.95,37.328 82.362,36.788 83.624,36.214C83.626,36.213 83.629,36.212 83.631,36.211C86.102,35.067 87.464,32.374 86.92,29.705C86.66,28.428 86.012,27.126 84.654,26.096C82.809,24.695 80.988,24.736 79.006,25.371C77.397,25.888 75.663,26.845 73.664,27.466C73.058,27.654 72.719,28.299 72.908,28.904C73.096,29.51 73.74,29.849 74.346,29.66ZM126.566,34.383L120.07,34.383C117.77,34.383 115.875,32.659 115.875,30.494L115.875,30.492C115.875,28.484 117.634,26.889 119.767,26.889L126.566,26.889C127.142,26.889 127.61,26.421 127.61,25.844C127.61,25.267 127.142,24.799 126.566,24.799L119.767,24.799C116.447,24.799 113.786,27.366 113.786,30.492L113.786,30.494C113.786,33.778 116.582,36.472 120.07,36.472L126.566,36.472C127.142,36.472 127.61,36.004 127.61,35.427C127.61,34.851 127.142,34.383 126.566,34.383ZM64.329,14.845L64.329,8.35C64.329,6.05 66.052,4.155 68.218,4.155L68.219,4.155C70.227,4.155 71.823,5.914 71.823,8.047L71.823,14.845C71.823,15.422 72.291,15.89 72.867,15.89C73.444,15.89 73.912,15.422 73.912,14.845L73.912,8.047C73.912,4.726 71.345,2.065 68.219,2.065L68.218,2.065C64.934,2.065 62.239,4.862 62.239,8.35L62.239,14.845C62.239,15.422 62.708,15.89 63.284,15.89C63.861,15.89 64.329,15.422 64.329,14.845ZM127.103,14.845L127.103,8.35C127.103,6.05 128.826,4.155 130.992,4.155L130.993,4.155C133.002,4.155 134.597,5.914 134.597,8.047L134.597,14.845C134.597,15.422 135.065,15.89 135.642,15.89C136.218,15.89 136.686,15.422 136.686,14.845L136.686,8.047C136.686,4.726 134.12,2.065 130.993,2.065L130.992,2.065C127.708,2.065 125.014,4.862 125.014,8.35L125.014,14.845C125.014,15.422 125.482,15.89 126.058,15.89C126.635,15.89 127.103,15.422 127.103,14.845Z" style="fill-rule:nonzero;"/>
    </g>
</svg>
