<?xml version="1.0" encoding="UTF-8" standalone="no"?>
<!DOCTYPE svg PUBLIC "-//W3C//DTD SVG 1.1//EN" "http://www.w3.org/Graphics/SVG/1.1/DTD/svg11.dtd">
<svg width="98px" height="63px" version="1.1" xmlns="http://www.w3.org/2000/svg" xmlns:xlink="http://www.w3.org/1999/xlink" xml:space="preserve" xmlns:serif="http://www.serif.com/" style="fill-rule:evenodd;clip-rule:evenodd;stroke-linejoin:round;stroke-miterlimit:2;">
    <g transform="matrix(0.615305,0,0,0.615305,-18.6833,-71.1235)">
        <path d="M33.786,134.923C33.746,134.966 33.517,135.2 33.483,135.247C30.179,139.858 30.165,141.273 33.283,146.366C34.516,149.361 36.897,152.586 38.2,153.938L47.214,161.3C48.215,162.736 55.957,173.041 57.176,174.126L63.959,179.259C65.441,181.63 69.418,187.17 71.525,189.985L82.869,199.857C86.303,202.468 88.334,204.749 88.547,206.602L88.547,212.503C88.547,215.067 90.625,217.145 93.189,217.145L93.191,217.145C94.322,217.145 95.407,216.696 96.207,215.897C97.006,215.097 97.455,214.012 97.455,212.881L97.455,208.325C97.455,207.338 97.848,206.391 98.546,205.693C99.244,204.995 100.19,204.603 101.177,204.603L101.178,204.603C102.165,204.603 103.112,204.995 103.81,205.693C104.508,206.391 104.9,207.338 104.9,208.325L104.9,212.465C104.9,213.707 105.393,214.897 106.271,215.775C107.148,216.652 108.339,217.145 109.58,217.145L109.581,217.145C111.923,217.145 113.828,215.26 113.851,212.919C113.864,211.655 113.878,210.296 113.89,209.131C113.908,207.299 114.928,205.623 116.547,204.764C116.576,204.749 116.604,204.734 116.633,204.719C117.354,204.336 118.159,204.136 118.975,204.136L132.611,204.136C133.327,204.136 134.035,204.29 134.686,204.587C134.838,204.656 135.002,204.731 135.172,204.809C136.971,205.629 138.117,207.432 138.097,209.408C138.088,210.366 138.077,211.432 138.066,212.461C138.054,213.699 138.537,214.89 139.408,215.77C140.279,216.65 141.466,217.145 142.704,217.145L142.706,217.145C145.038,217.145 146.928,215.255 146.928,212.923L146.928,208.325C146.928,207.338 147.32,206.391 148.018,205.693C148.716,204.995 149.663,204.603 150.65,204.603C151.637,204.603 152.584,204.995 153.282,205.693C153.98,206.391 154.372,207.338 154.372,208.325L154.372,212.365C154.372,213.633 154.876,214.849 155.772,215.745C156.669,216.642 157.884,217.145 159.152,217.145L159.153,217.145C161.457,217.145 163.349,215.323 163.434,213.021C163.544,210.077 163.495,206.814 163.495,206.814C163.642,204.188 163.143,201.952 161.25,200.318L174.511,188.784C176.646,186.726 178.695,184.452 180.569,181.739L187.353,170.556C188.147,169.188 188.66,167.791 188.802,166.355C188.802,166.355 188.916,156.628 189.023,150.853C189.031,150.459 188.76,150.114 188.375,150.028C187.99,149.943 187.599,150.14 187.438,150.499C186.632,152.304 184.728,155.783 184.728,155.783L179.212,163.764C177.029,167.861 178.693,169.346 175.086,173.292L164.992,181.842C163.918,182.85 162.879,183.369 161.859,183.626L90.266,183.626C89.128,183.593 87.99,182.841 86.852,181.842L76.717,173.022L68.349,162.638L64.762,159.468L64.688,159.26L70.01,154.484C73.227,152.134 76.179,149.864 77.676,148.029C82.002,143.671 82.492,140.106 78.396,135.747C78.719,132.675 78.189,130.638 77.676,129.221L72.531,118.404L67.386,129.221C59.806,128.47 52.226,128.463 44.647,129.221L39.502,118.404L34.395,128.599C33.631,130.447 33.461,132.824 33.786,134.923ZM55.88,121.917C55.951,122.024 56.071,122.088 56.2,122.088C56.328,122.088 56.448,122.023 56.519,121.916C57.119,121.134 58.204,120.61 59.441,120.61C61.327,120.61 62.858,121.826 62.858,123.324C62.858,124.822 61.327,126.038 59.441,126.038C58.204,126.038 57.119,125.514 56.519,124.731C56.448,124.624 56.328,124.56 56.2,124.56C56.072,124.56 55.952,124.625 55.881,124.732C55.281,125.514 54.196,126.038 52.959,126.038C51.072,126.038 49.541,124.822 49.541,123.324C49.541,121.826 51.072,120.61 52.959,120.61C54.196,120.61 55.281,121.134 55.88,121.917Z" style="fill:white;"/>
    </g>
    <g transform="matrix(0.615305,0,0,0.615305,-18.6833,-71.1235)">
        <path d="M137.186,206.602L137.186,212.503C137.186,215.527 139.637,217.979 142.661,217.979L142.664,217.979C144.016,217.979 145.312,217.442 146.268,216.486C147.224,215.53 147.761,214.233 147.761,212.881L147.761,206.602C147.761,206.142 147.388,205.769 146.928,205.769C146.468,205.769 146.094,206.142 146.094,206.602L146.094,212.881C146.094,213.791 145.733,214.664 145.09,215.307C144.446,215.951 143.574,216.312 142.664,216.312L142.661,216.312C140.558,216.312 138.852,214.607 138.852,212.503L138.852,206.602C138.852,206.142 138.479,205.769 138.019,205.769C137.559,205.769 137.186,206.142 137.186,206.602ZM104.066,206.602L104.066,212.503C104.066,215.527 106.518,217.979 109.542,217.979L109.544,217.979C110.896,217.979 112.193,217.442 113.149,216.486C114.105,215.53 114.642,214.233 114.642,212.881L114.642,206.602C114.642,206.142 114.268,205.769 113.809,205.769C113.349,205.769 112.975,206.142 112.975,206.602L112.975,212.881C112.975,213.791 112.614,214.664 111.97,215.307C111.327,215.951 110.454,216.312 109.544,216.312L109.542,216.312C107.438,216.312 105.733,214.607 105.733,212.503L105.733,206.602C105.733,206.142 105.36,205.769 104.9,205.769C104.44,205.769 104.066,206.142 104.066,206.602ZM87.713,206.602L87.713,212.503C87.713,215.527 90.165,217.979 93.189,217.979L93.191,217.979C94.543,217.979 95.84,217.442 96.796,216.486C97.752,215.53 98.289,214.233 98.289,212.881L98.289,206.602C98.289,206.142 97.915,205.769 97.455,205.769C96.996,205.769 96.622,206.142 96.622,206.602L96.622,212.881C96.622,213.791 96.261,214.664 95.617,215.307C94.974,215.951 94.101,216.312 93.191,216.312L93.189,216.312C91.085,216.312 89.38,214.607 89.38,212.503L89.38,206.602C89.38,206.142 89.007,205.769 88.547,205.769C88.087,205.769 87.713,206.142 87.713,206.602ZM153.539,206.602L153.539,212.503C153.539,215.527 155.99,217.979 159.014,217.979L159.017,217.979C160.369,217.979 161.665,217.442 162.621,216.486C163.577,215.53 164.114,214.233 164.114,212.881L164.114,206.602C164.114,206.142 163.741,205.769 163.281,205.769C162.821,205.769 162.447,206.142 162.447,206.602L162.447,212.881C162.447,213.791 162.086,214.664 161.443,215.307C160.799,215.951 159.927,216.312 159.017,216.312L159.014,216.312C156.911,216.312 155.205,214.607 155.205,212.503L155.205,206.602C155.205,206.142 154.832,205.769 154.372,205.769C153.912,205.769 153.539,206.142 153.539,206.602ZM117.621,205.414L133.586,205.414C134.046,205.414 134.42,205.04 134.42,204.58C134.42,204.12 134.046,203.747 133.586,203.747L117.621,203.747C117.161,203.747 116.787,204.12 116.787,204.58C116.787,205.04 117.161,205.414 117.621,205.414ZM173.964,188.156L161.241,199.228C160.894,199.53 160.857,200.057 161.159,200.404C161.461,200.751 161.988,200.788 162.335,200.486L175.058,189.413C175.405,189.111 175.442,188.584 175.14,188.237C174.838,187.89 174.311,187.854 173.964,188.156ZM69.598,189.413L82.322,200.486C82.669,200.788 83.195,200.751 83.497,200.404C83.799,200.057 83.763,199.53 83.416,199.228L70.692,188.156C70.345,187.854 69.819,187.89 69.517,188.237C69.215,188.584 69.251,189.111 69.598,189.413ZM90.266,184.459L161.859,184.459C162.319,184.459 162.692,184.086 162.692,183.626C162.692,183.166 162.319,182.793 161.859,182.793L90.266,182.793C89.806,182.793 89.433,183.166 89.433,183.626C89.433,184.086 89.806,184.459 90.266,184.459ZM177.338,169.994L164.445,181.214C164.098,181.516 164.062,182.042 164.364,182.389C164.666,182.736 165.192,182.773 165.539,182.471L178.432,171.251C178.779,170.949 178.816,170.422 178.514,170.075C178.212,169.728 177.685,169.692 177.338,169.994ZM53.272,171.398L65.995,182.471C66.342,182.773 66.869,182.736 67.171,182.389C67.473,182.042 67.437,181.516 67.09,181.214L54.366,170.141C54.019,169.839 53.493,169.876 53.191,170.223C52.889,170.57 52.925,171.096 53.272,171.398ZM73.412,171.251L86.305,182.471C86.652,182.773 87.179,182.736 87.481,182.389C87.783,182.042 87.746,181.516 87.399,181.214L74.506,169.994C74.16,169.692 73.633,169.728 73.331,170.075C73.029,170.422 73.065,170.949 73.412,171.251ZM186.64,170.124L179.856,181.306C179.618,181.7 179.743,182.213 180.136,182.451C180.53,182.69 181.043,182.564 181.281,182.171L188.065,170.988C188.304,170.595 188.178,170.082 187.785,169.843C187.392,169.605 186.879,169.73 186.64,170.124ZM70.938,180.388C71.507,180.388 71.968,180.85 71.968,181.418C71.968,181.987 71.507,182.448 70.938,182.448C70.37,182.448 69.908,181.987 69.908,181.418C69.908,180.85 70.37,180.388 70.938,180.388ZM187.969,150.646L187.969,166.355C187.969,166.815 188.342,167.188 188.802,167.188C189.262,167.188 189.635,166.815 189.635,166.355L189.635,150.646C189.635,150.186 189.262,149.813 188.802,149.813C188.342,149.813 187.969,150.186 187.969,150.646ZM185.22,153.464L177.567,164.537C177.306,164.915 177.4,165.434 177.779,165.696C178.157,165.957 178.677,165.863 178.938,165.484L186.591,154.412C186.853,154.033 186.758,153.514 186.379,153.252C186.001,152.991 185.482,153.086 185.22,153.464ZM37.653,154.566L50.377,165.639C50.724,165.941 51.25,165.904 51.552,165.557C51.854,165.211 51.818,164.684 51.471,164.382L38.747,153.309C38.4,153.007 37.874,153.044 37.572,153.391C37.27,153.738 37.306,154.264 37.653,154.566ZM64.136,158.645C63.756,159.025 63.757,159.642 64.137,160.022C65.722,161.606 69.494,165.379 69.494,165.379C69.82,165.704 70.348,165.704 70.673,165.379C70.998,165.054 70.998,164.526 70.673,164.201L65.799,159.327L70.599,154.527C70.924,154.202 70.924,153.674 70.599,153.348C70.274,153.023 69.746,153.023 69.421,153.348C69.421,153.348 65.706,157.071 64.136,158.645ZM77.068,135.526C78.946,137.524 79.974,139.505 80.001,141.503C80.027,143.489 79.056,145.456 77.084,147.442C76.76,147.769 76.762,148.297 77.089,148.621C77.415,148.945 77.943,148.943 78.267,148.616C80.622,146.244 81.698,143.853 81.667,141.481C81.636,139.121 80.501,136.744 78.283,134.384C77.968,134.049 77.44,134.033 77.105,134.348C76.77,134.663 76.753,135.19 77.068,135.526ZM33.749,133.795C31.532,136.155 30.396,138.532 30.365,140.892C30.334,143.264 31.41,145.655 33.765,148.027C34.089,148.354 34.617,148.356 34.944,148.032C35.27,147.708 35.272,147.179 34.948,146.853C32.977,144.867 32.006,142.9 32.032,140.914C32.058,138.915 33.086,136.935 34.964,134.936C35.279,134.601 35.263,134.073 34.927,133.758C34.592,133.443 34.064,133.46 33.749,133.795ZM38.932,141.4L36.928,140.232C36.711,140.106 36.606,139.85 36.672,139.608C36.684,139.562 36.702,139.519 36.724,139.479L36.866,139.226C37.047,138.96 37.323,138.986 37.323,138.986C37.422,138.986 37.519,139.013 37.605,139.063L39.599,140.233L39.599,137.893C39.599,137.596 39.832,137.353 40.126,137.338L40.414,137.338C40.708,137.353 40.941,137.596 40.941,137.893L40.941,140.233L42.936,139.063C43.021,139.013 43.118,138.986 43.217,138.986C43.217,138.986 43.529,138.957 43.706,139.279L43.816,139.479C43.839,139.519 43.856,139.562 43.869,139.608C43.934,139.85 43.829,140.106 43.612,140.232L41.608,141.4L43.612,142.567C43.829,142.694 43.934,142.95 43.869,143.192C43.856,143.238 43.839,143.281 43.816,143.32L43.706,143.52C43.529,143.843 43.217,143.813 43.217,143.813C43.118,143.813 43.021,143.787 42.936,143.737L40.941,142.567L40.941,144.907C40.941,145.204 40.708,145.447 40.414,145.462L40.126,145.462C39.832,145.447 39.599,145.204 39.599,144.907L39.599,142.567L37.605,143.737C37.519,143.787 37.422,143.813 37.323,143.813C37.323,143.813 37.047,143.84 36.866,143.574L36.724,143.321C36.702,143.281 36.684,143.238 36.672,143.192C36.606,142.95 36.711,142.694 36.928,142.567L38.932,141.4ZM53.696,140.421L53.694,140.416L53.705,140.439C54.104,141.298 54.965,141.849 55.914,141.849L66.665,141.849C67.125,141.849 67.498,141.476 67.498,141.016C67.498,140.556 67.125,140.182 66.665,140.182L55.914,140.182C55.611,140.182 55.337,140.005 55.213,139.73C54.831,138.884 53.532,139.302 53.62,140.072C53.634,140.196 53.647,140.315 53.696,140.421ZM48.605,134.955L48.605,136.734C48.605,137.348 49.103,137.845 49.716,137.845C50.33,137.845 50.827,137.348 50.827,136.734L50.827,134.955C50.827,134.342 50.33,133.844 49.716,133.844C49.103,133.844 48.605,134.342 48.605,134.955ZM72.386,134.955L72.386,136.734C72.386,137.348 72.884,137.845 73.497,137.845C74.11,137.845 74.608,137.348 74.608,136.734L74.608,134.955C74.608,134.342 74.11,133.844 73.497,133.844C72.884,133.844 72.386,134.342 72.386,134.955ZM35.109,129.579L39.502,120.344L43.894,129.579C44.092,129.994 44.589,130.171 45.005,129.973C45.42,129.776 45.597,129.278 45.399,128.863L40.254,118.046C40.116,117.755 39.823,117.57 39.502,117.57C39.18,117.57 38.887,117.755 38.749,118.046L33.604,128.863C33.407,129.278 33.583,129.776 33.999,129.973C34.414,130.171 34.912,129.994 35.109,129.579ZM68.138,129.579L72.531,120.344L76.923,129.579C77.121,129.994 77.618,130.171 78.034,129.973C78.449,129.776 78.626,129.278 78.428,128.863L73.283,118.046C73.145,117.755 72.852,117.57 72.531,117.57C72.209,117.57 71.916,117.755 71.778,118.046L66.633,128.863C66.436,129.278 66.612,129.776 67.028,129.973C67.443,130.171 67.941,129.994 68.138,129.579ZM56.266,121.861C55.486,120.8 54.322,120.263 52.787,120.263C50.545,120.263 49.1,121.546 49.1,123.379C49.1,125.212 50.545,126.494 52.787,126.494C54.322,126.494 55.486,125.957 56.266,124.896C57.045,125.957 58.209,126.494 59.744,126.494C61.904,126.494 63.431,124.983 63.431,123.379C63.431,121.546 61.987,120.263 59.744,120.263C58.209,120.263 57.045,120.8 56.266,121.861ZM55.495,123.379C55.014,124.508 54.078,125.127 52.787,125.127C51.464,125.127 50.559,124.472 50.559,123.379C50.559,122.285 51.464,121.63 52.787,121.63C54.077,121.63 55.014,122.249 55.494,123.378L55.495,123.379ZM61.972,123.379C61.972,124.312 61.012,125.127 59.744,125.127C58.454,125.127 57.517,124.508 57.037,123.38C57.517,122.249 58.454,121.63 59.744,121.63C61.067,121.63 61.972,122.285 61.972,123.379Z" style="fill-rule:nonzero;"/>
    </g>
</svg>
