<?xml version="1.0" encoding="UTF-8" standalone="no"?>
<!DOCTYPE svg PUBLIC "-//W3C//DTD SVG 1.1//EN" "http://www.w3.org/Graphics/SVG/1.1/DTD/svg11.dtd">
<svg width="112px" height="68px" version="1.1" xmlns="http://www.w3.org/2000/svg" xmlns:xlink="http://www.w3.org/1999/xlink" xml:space="preserve" xmlns:serif="http://www.serif.com/" style="fill-rule:evenodd;clip-rule:evenodd;stroke-linejoin:round;stroke-miterlimit:2;">
    <g transform="matrix(-0.493942,-0.493942,-0.493942,0.493942,891.862,810.904)">
        <path d="M1708.05,85.459C1707.84,85.983 1707.73,86.541 1707.73,87.105C1707.8,101.924 1703.42,102.272 1691.95,103.793C1691.95,103.793 1671.19,102.454 1660.01,102.048C1656.72,101.928 1656.19,101.222 1655.34,101.415C1653.21,101.899 1648.15,104.016 1642.07,103.339L1630.46,102.686C1627.72,102.704 1622.57,101.388 1621.19,102.896C1621.19,102.896 1619.27,104.823 1617.49,106.596C1615.88,108.204 1613.28,108.204 1611.67,106.596L1611.67,106.595C1610.96,105.885 1610.56,104.924 1610.56,103.921C1610.56,102.918 1610.96,101.956 1611.67,101.247C1612.49,100.428 1613.39,99.521 1614.23,98.684C1615.02,97.898 1615.46,96.833 1615.46,95.723C1615.46,94.612 1615.02,93.547 1614.23,92.762C1613.45,91.977 1612.38,91.535 1611.27,91.535C1610.16,91.535 1609.1,91.977 1608.31,92.762C1607.55,93.519 1606.74,94.333 1605.98,95.089C1604.38,96.696 1601.77,96.696 1600.16,95.089L1600.16,95.086C1598.68,93.61 1598.68,91.216 1600.16,89.74C1601.01,88.894 1601.95,87.952 1602.82,87.077C1604.55,85.346 1604.55,82.539 1602.82,80.808C1598.62,76.609 1591.69,69.68 1591.69,69.68C1589.94,67.817 1588.44,67.502 1586.25,68.293C1586.25,68.293 1584.43,70.117 1582.72,71.824C1581.95,72.596 1580.9,73.029 1579.81,73.029C1578.72,73.029 1577.67,72.596 1576.9,71.824L1576.9,71.822C1576.19,71.113 1575.79,70.151 1575.79,69.148C1575.79,68.146 1576.19,67.184 1576.9,66.475C1577.73,65.64 1578.66,64.714 1579.51,63.86C1581.15,62.225 1581.15,59.574 1579.51,57.938C1577.88,56.303 1575.23,56.303 1573.59,57.938C1572.82,58.712 1571.98,59.545 1571.21,60.316C1569.6,61.923 1567,61.923 1565.39,60.316L1565.39,60.314C1564.68,59.605 1564.28,58.643 1564.28,57.641C1564.28,56.638 1564.68,55.676 1565.39,54.967C1567.22,53.133 1569.33,51.03 1569.33,51.03C1570.13,50.213 1572.55,48.061 1572.93,44.787L1571.94,28.72C1571.61,26.649 1571.56,24.468 1571.78,22.18L1574.38,9.49C1574.38,9.49 1574.47,9.012 1574.59,8.355C1575.03,5.929 1576.18,3.69 1577.91,1.93C1580.55,-0.762 1584.52,-4.803 1586.69,-7.02C1586.89,-7.229 1587.21,-7.279 1587.47,-7.141C1587.73,-7.004 1587.87,-6.712 1587.81,-6.425C1586.91,-1.934 1584.92,7.895 1584.92,7.895C1584.1,9.266 1583.12,11.692 1581.87,15.826L1582.55,30.38L1583.61,33.762L1593.06,45.203L1634.49,86.639C1635.47,87.391 1636.61,87.706 1637.99,87.628L1668.96,88.693L1669.15,88.602C1668.59,75.788 1673.42,78.929 1672.59,73.102C1672.14,69.957 1675.24,67.379 1680.67,66.616C1680.7,66.612 1681.43,66.624 1681.46,66.623C1682.73,64.324 1684.18,63.138 1685.59,62.413L1697.47,58.582L1693.29,70.271C1696.18,72.596 1698.87,75.068 1700.99,77.968L1712.68,73.794C1712.68,73.794 1709.14,82.704 1708.05,85.459Z" style="fill:white;"/>
    </g>
    <g transform="matrix(0.619419,0,0,0.619419,-12.1358,-66.9298)">
        <path d="M83.756,206.456L83.756,212.358C83.756,215.382 86.207,217.833 89.231,217.833L89.234,217.833C90.585,217.833 91.882,217.296 92.838,216.34C93.794,215.384 94.331,214.088 94.331,212.736L94.331,206.456C94.331,205.997 93.958,205.623 93.498,205.623C93.038,205.623 92.664,205.997 92.664,206.456L92.664,212.736C92.664,213.646 92.303,214.518 91.659,215.162C91.016,215.805 90.143,216.167 89.234,216.167L89.231,216.167C87.127,216.167 85.422,214.461 85.422,212.358L85.422,206.456C85.422,205.997 85.049,205.623 84.589,205.623C84.129,205.623 83.756,205.997 83.756,206.456ZM139.213,206.456L139.213,212.358C139.213,215.382 141.664,217.833 144.688,217.833L144.691,217.833C146.043,217.833 147.339,217.296 148.295,216.34C149.251,215.384 149.788,214.088 149.788,212.736L149.788,206.456C149.788,205.997 149.415,205.623 148.955,205.623C148.495,205.623 148.122,205.997 148.122,206.456L148.122,212.736C148.122,213.646 147.76,214.518 147.117,215.162C146.473,215.805 145.601,216.167 144.691,216.167L144.688,216.167C142.585,216.167 140.88,214.461 140.88,212.358L140.88,206.456C140.88,205.997 140.506,205.623 140.046,205.623C139.586,205.623 139.213,205.997 139.213,206.456ZM102.109,206.456L102.109,212.358C102.109,215.382 104.56,217.833 107.584,217.833L107.587,217.833C108.939,217.833 110.235,217.296 111.191,216.34C112.147,215.384 112.684,214.088 112.684,212.736L112.684,206.456C112.684,205.997 112.311,205.623 111.851,205.623C111.391,205.623 111.017,205.997 111.017,206.456L111.017,212.736C111.017,213.646 110.656,214.518 110.012,215.162C109.369,215.805 108.496,216.167 107.587,216.167L107.584,216.167C105.48,216.167 103.775,214.461 103.775,212.358L103.775,206.456C103.775,205.997 103.402,205.623 102.942,205.623C102.482,205.623 102.109,205.997 102.109,206.456ZM157.566,206.456L157.566,212.358C157.566,215.382 160.017,217.833 163.041,217.833L163.044,217.833C164.396,217.833 165.692,217.296 166.648,216.34C167.604,215.384 168.141,214.088 168.141,212.736L168.141,206.456C168.141,205.997 167.768,205.623 167.308,205.623C166.848,205.623 166.475,205.997 166.475,206.456L166.475,212.736C166.475,213.646 166.113,214.518 165.47,215.162C164.826,215.805 163.954,216.167 163.044,216.167L163.041,216.167C160.938,216.167 159.233,214.461 159.233,212.358L159.233,206.456C159.233,205.997 158.859,205.623 158.399,205.623C157.939,205.623 157.566,205.997 157.566,206.456ZM117.141,204.055L134.599,204.055C135.059,204.055 135.433,203.681 135.433,203.222C135.433,202.762 135.059,202.388 134.599,202.388L117.141,202.388C116.681,202.388 116.307,202.762 116.307,203.222C116.307,203.681 116.681,204.055 117.141,204.055ZM182.47,185.955L168.657,197.976C168.31,198.278 168.273,198.805 168.575,199.152C168.877,199.499 169.404,199.535 169.751,199.233L183.564,187.212C183.911,186.91 183.947,186.383 183.645,186.037C183.343,185.69 182.817,185.653 182.47,185.955ZM63.005,187.212L76.818,199.233C77.165,199.535 77.692,199.499 77.994,199.152C78.296,198.805 78.259,198.278 77.912,197.976L64.099,185.955C63.752,185.653 63.225,185.69 62.923,186.037C62.621,186.383 62.658,186.91 63.005,187.212ZM86.948,183.721L158.014,183.721C158.474,183.721 158.847,183.347 158.847,182.888C158.847,182.428 158.474,182.054 158.014,182.054L86.948,182.054C86.488,182.054 86.115,182.428 86.115,182.888C86.115,183.347 86.488,183.721 86.948,183.721ZM160.376,182.689L169.331,182.689C169.791,182.689 170.165,182.315 170.165,181.855C170.165,181.396 169.791,181.022 169.331,181.022L160.376,181.022C159.916,181.022 159.543,181.396 159.543,181.855C159.543,182.315 159.916,182.689 160.376,182.689ZM195.431,168.22L187.642,181.059C187.403,181.453 187.529,181.966 187.922,182.204C188.315,182.443 188.828,182.317 189.067,181.924L196.856,169.084C197.095,168.691 196.969,168.178 196.576,167.94C196.183,167.701 195.67,167.827 195.431,168.22ZM69.013,169.497L82.826,181.518C83.173,181.82 83.7,181.784 84.001,181.437C84.303,181.09 84.267,180.563 83.92,180.261L70.107,168.24C69.76,167.938 69.233,167.974 68.931,168.321C68.629,168.668 68.666,169.195 69.013,169.497ZM64.613,178.44C65.182,178.44 65.643,178.902 65.643,179.47C65.643,180.039 65.182,180.5 64.613,180.5C64.045,180.5 63.583,180.039 63.583,179.47C63.583,178.902 64.045,178.44 64.613,178.44ZM186.496,166.796L172.683,178.817C172.336,179.119 172.299,179.646 172.601,179.993C172.903,180.34 173.43,180.376 173.777,180.075L187.59,168.053C187.937,167.751 187.974,167.225 187.672,166.878C187.37,166.531 186.843,166.494 186.496,166.796ZM45.519,167.994L59.333,180.015C59.68,180.317 60.206,180.28 60.508,179.933C60.81,179.586 60.774,179.06 60.427,178.758L46.614,166.737C46.267,166.435 45.74,166.471 45.438,166.818C45.136,167.165 45.172,167.692 45.519,167.994ZM198.741,146.185L198.741,164.724C198.741,165.184 199.114,165.557 199.574,165.557C200.034,165.557 200.407,165.184 200.407,164.724L200.407,146.185C200.407,145.725 200.034,145.352 199.574,145.352C199.114,145.352 198.741,145.725 198.741,146.185ZM195.458,149.397L186.358,162.564C186.096,162.942 186.191,163.462 186.569,163.723C186.948,163.985 187.467,163.89 187.729,163.512L196.829,150.345C197.091,149.967 196.996,149.447 196.617,149.186C196.239,148.924 195.72,149.019 195.458,149.397ZM26.9,151.375L40.714,163.396C41.061,163.698 41.587,163.661 41.889,163.315C42.191,162.968 42.155,162.441 41.808,162.139L27.995,150.118C27.648,149.816 27.121,149.852 26.819,150.199C26.517,150.546 26.554,151.073 26.9,151.375ZM57.261,156.119C57.244,156.134 57.227,156.149 57.211,156.166C57.195,156.182 57.179,156.199 57.164,156.216L57.154,156.226L57.155,156.227C56.812,156.629 56.831,157.235 57.211,157.616C57.241,157.646 57.272,157.673 57.304,157.698L62.963,163.357C63.288,163.682 63.816,163.682 64.141,163.357C64.466,163.031 64.466,162.503 64.141,162.178L58.85,156.887L64.062,151.675C64.387,151.35 64.387,150.822 64.062,150.497C63.737,150.172 63.208,150.172 62.883,150.497L57.261,156.119ZM23.285,129.926C20.868,132.498 19.627,135.088 19.593,137.66C19.559,140.244 20.735,142.847 23.301,145.431C23.625,145.758 24.153,145.76 24.479,145.436C24.806,145.112 24.808,144.584 24.484,144.257C22.302,142.059 21.231,139.88 21.26,137.682C21.289,135.471 22.422,133.278 24.499,131.068C24.814,130.733 24.798,130.205 24.463,129.89C24.128,129.575 23.6,129.591 23.285,129.926ZM64.486,130.068C66.564,132.278 67.697,134.471 67.726,136.682C67.755,138.88 66.684,141.059 64.502,143.257C64.178,143.584 64.18,144.112 64.506,144.436C64.833,144.76 65.361,144.758 65.685,144.431C68.25,141.847 69.426,139.244 69.392,136.66C69.358,134.088 68.118,131.498 65.701,128.926C65.386,128.591 64.858,128.575 64.523,128.89C64.188,129.205 64.171,129.733 64.486,130.068ZM41.805,137.422L52.835,137.422C53.295,137.422 53.669,137.049 53.669,136.589C53.669,136.129 53.295,135.755 52.835,135.755L41.805,135.755C41.345,135.755 40.972,136.129 40.972,136.589C40.972,137.049 41.345,137.422 41.805,137.422ZM36.177,128.394L33.754,130.877C33.433,131.206 33.439,131.734 33.768,132.055C34.097,132.376 34.625,132.37 34.946,132.041L37.37,129.558C37.691,129.229 37.685,128.701 37.356,128.38C37.027,128.058 36.499,128.065 36.177,128.394ZM56.889,129.558L59.313,132.041C59.634,132.37 60.162,132.376 60.491,132.055C60.82,131.734 60.827,131.206 60.505,130.877L58.082,128.394C57.761,128.065 57.233,128.058 56.903,128.38C56.574,128.701 56.568,129.229 56.889,129.558ZM29.602,123.301L34.841,112.241L40.08,123.301C40.277,123.717 40.774,123.894 41.19,123.698C41.605,123.501 41.783,123.003 41.586,122.588L35.594,109.938C35.456,109.647 35.163,109.461 34.841,109.461C34.519,109.461 34.226,109.647 34.088,109.938L28.096,122.588C27.899,123.003 28.077,123.501 28.492,123.698C28.908,123.894 29.405,123.717 29.602,123.301ZM53.862,123.301L59.101,112.241L64.34,123.301C64.537,123.717 65.034,123.894 65.45,123.698C65.866,123.501 66.043,123.003 65.846,122.588L59.854,109.938C59.717,109.647 59.423,109.461 59.101,109.461C58.779,109.461 58.486,109.647 58.348,109.938L52.356,122.588C52.159,123.003 52.337,123.501 52.753,123.698C53.168,123.894 53.666,123.717 53.862,123.301Z"/>
    </g>
</svg>
