<?xml version="1.0" encoding="UTF-8" standalone="no"?>
<svg xmlns:xlink="http://www.w3.org/1999/xlink" height="59.45px" width="35.05px" xmlns="http://www.w3.org/2000/svg">
  <g transform="matrix(1.0, 0.0, 0.0, 1.0, 17.5, 58.95)">
    <path d="M0.0 -28.85 Q6.4 -28.9 10.9 -25.15 15.4 -21.35 15.4 -15.1 15.4 -12.85 14.8 -10.9 13.7 -7.5 9.8 -4.75 5.95 -2.0 -0.85 -2.0 -7.6 -2.05 -11.5 -5.4 -15.4 -8.85 -15.35 -13.7 -15.35 -18.55 -14.0 -21.2 -12.9 -23.4 -10.85 -25.05 -6.4 -28.8 0.0 -28.85" fill="#ffffff" fill-rule="evenodd" stroke="none"/>
    <path d="M0.0 -28.85 Q6.4 -28.9 10.9 -25.15 15.4 -21.35 15.4 -15.1 15.4 -12.85 14.8 -10.9 13.7 -7.5 9.8 -4.75 5.95 -2.0 -0.85 -2.0 -7.6 -2.05 -11.5 -5.4 -15.4 -8.85 -15.35 -13.7 -15.35 -18.55 -14.0 -21.2 -12.9 -23.4 -10.85 -25.05 -6.4 -28.8 0.0 -28.85 Z" fill="none" stroke="#8f7c3f" stroke-linecap="round" stroke-linejoin="round" stroke-width="1.0"/>
    <path d="M8.5 -29.85 Q4.8 -26.95 -0.15 -26.8 -5.1 -26.7 -8.5 -29.75 -11.95 -32.85 -11.95 -37.55 -12.0 -42.4 -8.45 -45.8 -4.85 -49.1 0.15 -49.1 5.1 -49.1 8.65 -45.8 12.15 -42.4 12.2 -37.55 12.15 -32.85 8.5 -29.85" fill="#ffffff" fill-rule="evenodd" stroke="none"/>
    <path d="M8.5 -29.85 Q4.8 -26.95 -0.15 -26.8 -5.1 -26.7 -8.5 -29.75 -11.95 -32.85 -11.95 -37.55 -12.0 -42.4 -8.45 -45.8 -4.85 -49.1 0.15 -49.1 5.1 -49.1 8.65 -45.8 12.15 -42.4 12.2 -37.55 12.15 -32.85 8.5 -29.85 Z" fill="none" stroke="#8f7c3f" stroke-linecap="round" stroke-linejoin="round" stroke-width="1.0"/>
    <path d="M-1.15 -39.0 Q0.3 -36.35 -2.65 -36.05 -5.65 -35.75 -8.05 -38.2 L-1.15 -39.0" fill="#fee5cb" fill-rule="evenodd" stroke="none"/>
    <path d="M11.55 -54.15 Q11.85 -52.5 11.4 -50.3 L10.75 -47.25 10.6 -46.6 Q10.2 -45.2 10.15 -43.75 5.45 -46.55 1.9 -47.95 L-1.6 -48.9 Q1.5 -50.9 4.5 -51.85 7.35 -52.85 9.75 -54.5 L10.65 -55.05 11.55 -54.15 M10.1 -46.8 Q8.45 -47.25 7.45 -48.35 8.45 -47.25 10.1 -46.8 M10.5 -48.5 L9.0 -49.6 10.5 -48.5 M-1.1 -14.8 Q-1.85 -15.35 -1.35 -16.2 0.65 -19.55 2.15 -23.35 L-2.8 -23.35 Q-5.95 -23.35 -8.5 -24.7 -11.1 -26.15 -7.95 -29.15 L2.2 -28.8 8.85 -29.25 Q10.85 -24.65 7.6 -23.95 7.85 -20.3 6.75 -18.25 L4.9 -14.6 Q4.45 -13.65 3.15 -13.65 L1.6 -13.9 -1.1 -14.8 M2.15 -23.35 L6.1 -23.6 7.6 -23.95 6.1 -23.6 2.15 -23.35" fill="#e2d5c0" fill-rule="evenodd" stroke="none"/>
    <path d="M10.65 -55.05 Q9.2 -56.65 11.6 -58.15 13.05 -59.0 13.7 -57.35 15.15 -53.65 11.6 -54.15 L11.55 -54.15 10.65 -55.05" fill="#ffffff" fill-rule="evenodd" stroke="none"/>
    <path d="M11.55 -54.15 Q11.85 -52.5 11.4 -50.3 L10.75 -47.25 10.6 -46.6 Q10.2 -45.2 10.15 -43.75 5.45 -46.55 1.9 -47.95 L-1.6 -48.9 Q1.5 -50.9 4.5 -51.85 7.35 -52.85 9.75 -54.5 L10.65 -55.05 Q9.2 -56.65 11.6 -58.15 13.05 -59.0 13.7 -57.35 15.15 -53.65 11.6 -54.15 L11.55 -54.15 10.65 -55.05 M11.6 -54.15 L11.55 -54.15 M7.85 -37.9 L6.25 -36.55 M-1.15 -39.0 L-8.05 -38.2 Q-5.65 -35.75 -2.65 -36.05 0.3 -36.35 -1.15 -39.0 M-5.45 -33.8 Q-4.4 -31.05 -2.5 -34.55 -1.7 -31.6 0.3 -32.5 2.25 -33.35 2.15 -34.45 M5.3 -38.25 L3.45 -36.4 M-1.1 -41.1 L5.75 -41.1 M-7.65 -41.4 L-2.8 -41.1" fill="none" stroke="#8f7c3f" stroke-linecap="round" stroke-linejoin="round" stroke-width="1.0"/>
    <path d="M9.0 -49.6 L10.5 -48.5 M7.45 -48.35 Q8.45 -47.25 10.1 -46.8" fill="none" stroke="#8f7c3f" stroke-linecap="round" stroke-linejoin="round" stroke-width="0.5"/>
    <path d="M-1.1 -14.8 Q-1.85 -15.35 -1.35 -16.2 0.65 -19.55 2.15 -23.35 L-2.8 -23.35 Q-5.95 -23.35 -8.5 -24.7 -11.1 -26.15 -7.95 -29.15 L2.2 -28.8 8.85 -29.25 Q10.85 -24.65 7.6 -23.95 7.85 -20.3 6.75 -18.25 L4.9 -14.6 Q4.45 -13.65 3.15 -13.65 L2.0 -10.2 M7.6 -23.95 L6.1 -23.6 2.15 -23.35 M-1.1 -14.8 L1.6 -13.9 3.15 -13.65 M-0.15 -10.45 L1.5 -13.2 M-3.0 -12.45 L-1.1 -14.8 M-1.7 -10.9 L-0.2 -13.4" fill="none" stroke="#8f7c3f" stroke-linecap="round" stroke-linejoin="round" stroke-width="1.0"/>
    <path d="M-11.5 0.0 Q-14.9 0.25 -15.95 -2.0 L-16.3 -2.9 -16.4 -3.05 -16.9 -4.15 Q-17.45 -6.35 -14.65 -4.35 -14.3 -3.8 -10.45 -3.0 L-3.35 -2.5 2.45 -3.0 6.65 -3.15 9.7 -3.15 12.6 -3.3 16.85 -3.0 Q17.5 -1.5 16.1 -0.95 L13.3 -0.65 8.6 -0.8 1.7 -0.5 -5.0 -0.3 -11.5 0.0" fill="#e2d5c0" fill-rule="evenodd" stroke="none"/>
    <path d="M-11.5 0.0 L-5.0 -0.3 1.7 -0.5 8.6 -0.8 13.3 -0.65 16.1 -0.95 Q17.5 -1.5 16.85 -3.0 L12.6 -3.3 9.7 -3.15 6.65 -3.15 2.45 -3.0 -3.35 -2.5 -10.45 -3.0 Q-14.3 -3.8 -14.65 -4.35 -17.45 -6.35 -16.9 -4.15 L-16.4 -3.05 -16.3 -2.9 -15.95 -2.0 Q-14.9 0.25 -11.5 0.0 Z" fill="none" stroke="#8f7c3f" stroke-linecap="round" stroke-linejoin="round" stroke-width="1.0"/>
  </g>
</svg>
