<?xml version="1.0" encoding="UTF-8" standalone="no"?>
<!DOCTYPE svg PUBLIC "-//W3C//DTD SVG 1.1//EN" "http://www.w3.org/Graphics/SVG/1.1/DTD/svg11.dtd">
<svg width="66px" height="72px" version="1.1" xmlns="http://www.w3.org/2000/svg" xmlns:xlink="http://www.w3.org/1999/xlink" xml:space="preserve" xmlns:serif="http://www.serif.com/" style="fill-rule:evenodd;clip-rule:evenodd;stroke-linejoin:round;stroke-miterlimit:2;">
    <g transform="matrix(0.550564,0,0,0.550564,-27.5704,-48.4983)">
        <path d="M106.576,201.125L106.285,201.178C105.598,208.123 103.555,212.3 97.904,215.951C97.356,217.449 92.645,219.157 88.82,218.064C93.356,211.87 93.351,205.011 89.057,198.817C86.096,196.012 83.289,193.052 80.63,189.946C76.094,183.751 76.237,176.417 80.532,170.222C80.461,171.06 89.245,152.951 96.426,142.514C99.067,138.675 101.881,136.201 103.622,135.914C99.225,129.909 97.55,123.171 101.713,117.166C104.061,113.451 107.344,110.162 110.32,107.326L117.789,91.558C117.789,91.558 121.635,100.043 123.807,104.836C124.694,106.791 126.73,107.962 128.866,107.745C131.878,107.589 135.884,107.595 138.876,107.725C141.002,107.941 143.028,106.776 143.91,104.83C146.105,100.048 149.954,91.558 149.954,91.558L157.423,107.326C162.592,112.532 173.589,122.787 165.186,135.087C162.738,138.67 154.13,142.329 148.101,143.298C143.909,143.972 142.472,146.78 142.896,149.424C148.008,147.962 148.393,147.245 152.287,149.108C153.794,149.829 154.512,150.948 154.796,152.131C155.411,154.734 154.084,157.406 151.639,158.49C150.075,159.192 148.334,159.878 145.934,160.044L145.804,160.285C144.162,160.734 142.102,161.401 140.003,162.416L140.04,162.436C138.403,163.307 137.031,164.69 136.195,166.489C134.719,169.664 135.385,174.851 137.486,177.422C140.141,179.243 140.916,180.348 142.483,181.902C145.133,183.646 146.902,186.781 146.902,190.355C146.902,194.402 144.634,197.886 141.387,199.424C140.226,200.277 138.872,201.034 138.601,202.343L138.407,211.047C138.382,212.173 137.655,213.162 136.589,213.523C135.522,213.885 134.344,213.54 133.64,212.661C132.934,211.779 132.435,211.156 132.435,211.156C130.887,207.136 127.915,204.212 124.69,201.481L124.792,201.389L121.802,198.4L121.309,198.488C119.947,196.693 116.718,195.823 113.237,196.501C109.888,197.153 107.293,199.045 106.576,201.125Z" style="fill:white;"/>
    </g>
    <g transform="matrix(0.550564,0,0,0.550564,-27.5704,-48.4983)">
        <path d="M87.919,199.65C91.821,205.279 92.063,210.908 87.941,216.537C87.464,217.188 87.606,218.104 88.257,218.581C88.909,219.058 89.824,218.916 90.301,218.265C95.251,211.504 95.01,204.744 90.323,197.984C89.863,197.32 88.952,197.155 88.288,197.615C87.625,198.075 87.46,198.987 87.919,199.65ZM105.205,201.065C104.559,207.602 102.664,211.549 97.345,214.986C96.812,215.33 96.659,216.042 97.003,216.575C97.348,217.108 98.06,217.261 98.592,216.916C104.575,213.051 106.766,208.644 107.493,201.291C107.555,200.66 107.093,200.097 106.462,200.034C105.831,199.972 105.268,200.434 105.205,201.065ZM139.914,202.325L139.914,210.713C139.914,211.831 139.615,212.774 139.017,213.541C138.299,214.472 137.235,214.937 135.827,214.937C134.533,214.937 133.484,214.475 132.68,213.55C132.053,212.829 131.74,212.1 131.74,211.363C131.74,210.97 131.869,210.666 132.128,210.449C132.358,210.256 132.631,210.159 132.947,210.159C133.355,210.159 133.657,210.312 133.852,210.616C133.893,210.681 133.976,210.891 134.102,211.248C134.436,212.197 135.013,212.671 135.835,212.671C136.52,212.671 136.997,212.373 137.267,211.775C137.399,211.477 137.465,211.117 137.465,210.695L137.465,202.325C137.465,201.927 137.646,201.637 138.008,201.455C138.215,201.356 138.439,201.306 138.681,201.306C139.009,201.306 139.29,201.391 139.526,201.561C139.785,201.742 139.914,201.997 139.914,202.325ZM120.833,199.434L123.878,202.48C124.449,203.051 125.376,203.051 125.947,202.48C126.518,201.909 126.518,200.983 125.947,200.412L122.901,197.366C122.33,196.795 121.404,196.795 120.833,197.366C120.262,197.937 120.262,198.864 120.833,199.434ZM84.338,192.885L107.213,192.885C107.79,192.885 108.258,192.417 108.258,191.84C108.258,191.264 107.79,190.796 107.213,190.796L84.338,190.796C83.761,190.796 83.293,191.264 83.293,191.84C83.293,192.417 83.761,192.885 84.338,192.885ZM79.492,170.529C74.806,177.289 74.564,184.05 79.514,190.81C79.991,191.462 80.907,191.603 81.558,191.126C82.209,190.649 82.351,189.734 81.874,189.082C77.752,183.453 77.994,177.824 81.896,172.195C82.356,171.532 82.191,170.62 81.527,170.16C80.864,169.7 79.952,169.866 79.492,170.529ZM135.943,178.378C139.58,180.872 143.839,184.652 146.184,187.243C146.698,187.811 147.577,187.855 148.146,187.34C148.714,186.826 148.758,185.947 148.243,185.379C145.786,182.664 141.325,178.701 137.514,176.087C136.882,175.654 136.017,175.815 135.583,176.447C135.15,177.079 135.311,177.945 135.943,178.378ZM50.513,182.294L50.563,182.357C50.61,182.416 50.66,182.458 50.709,182.489C50.963,182.676 51.255,182.753 51.583,182.72C51.922,182.684 52.209,182.54 52.443,182.282C52.445,182.28 52.447,182.279 52.448,182.277C53.405,181.197 54.503,180.644 55.754,180.644C56.762,180.644 57.755,181.12 58.75,182.029C58.751,182.029 58.751,182.03 58.751,182.03C60.214,183.359 61.822,184.014 63.569,184.015C65.755,184.029 67.553,183.191 68.96,181.499C68.966,181.491 68.972,181.484 68.978,181.477C69.186,181.199 69.276,180.881 69.241,180.521C69.207,180.163 69.053,179.867 68.78,179.634L68.655,179.532C68.389,179.316 68.076,179.221 67.713,179.257C67.361,179.292 67.065,179.447 66.83,179.727C66.325,180.292 65.813,180.704 65.288,180.951C64.773,181.193 64.2,181.312 63.571,181.312L63.564,181.312C62.558,181.324 61.568,180.855 60.575,179.947C60.574,179.947 60.574,179.947 60.574,179.946C59.111,178.618 57.502,177.962 55.756,177.962C53.57,177.947 51.772,178.786 50.365,180.478C50.364,180.479 50.363,180.48 50.362,180.481C50.145,180.746 50.048,181.062 50.084,181.435C50.117,181.779 50.26,182.065 50.513,182.294ZM51.532,182.166C51.529,182.177 51.526,182.188 51.522,182.199C51.443,182.42 51.233,182.567 50.998,182.567C50.998,182.567 51.325,182.411 51.471,182.171C51.489,182.17 51.507,182.169 51.526,182.167L51.532,182.166ZM50.666,182.457L50.647,182.442C50.653,182.447 50.66,182.452 50.666,182.457ZM132.04,174.249C124.475,169.004 116.909,168.731 109.343,174.271C108.692,174.748 108.55,175.663 109.027,176.315C109.504,176.966 110.42,177.108 111.071,176.631C117.505,171.92 123.94,172.192 130.374,176.653C131.037,177.113 131.949,176.947 132.409,176.284C132.869,175.621 132.704,174.709 132.04,174.249ZM93.404,144.369L83.617,161.371C83.3,161.92 83.49,162.624 84.039,162.94C84.589,163.256 85.292,163.067 85.609,162.517L95.396,145.515C95.712,144.966 95.523,144.263 94.973,143.946C94.423,143.63 93.72,143.819 93.404,144.369ZM80.013,159.023C80.917,159.023 81.651,159.757 81.651,160.662C81.651,161.566 80.917,162.3 80.013,162.3C79.109,162.3 78.375,161.566 78.375,160.662C78.375,159.757 79.109,159.023 80.013,159.023ZM140.027,152.266C142.587,151.534 144.809,150.408 146.871,149.799C148.51,149.315 150.029,149.181 151.556,150.247C152.745,151.077 153.246,152.148 153.398,153.169C153.399,153.174 153.4,153.179 153.4,153.184C153.664,154.832 152.789,156.451 151.266,157.133C151.257,157.137 151.249,157.141 151.24,157.145C149.786,157.831 148.165,158.502 145.902,158.659C145.138,158.712 144.56,159.376 144.613,160.141C144.666,160.905 145.33,161.483 146.094,161.43C148.775,161.244 150.702,160.47 152.425,159.657C155.074,158.465 156.603,155.633 156.144,152.752C155.894,151.083 155.089,149.325 153.146,147.969C150.839,146.358 148.561,146.404 146.084,147.135C144.029,147.742 141.815,148.866 139.264,149.595C138.527,149.806 138.099,150.575 138.31,151.312C138.521,152.049 139.29,152.477 140.027,152.266ZM105.094,152.266C107.654,151.534 109.875,150.408 111.937,149.799C113.577,149.315 115.095,149.181 116.623,150.247C117.812,151.077 118.312,152.148 118.464,153.169C118.465,153.174 118.466,153.179 118.467,153.184C118.731,154.832 117.855,156.451 116.332,157.133C116.324,157.137 116.315,157.141 116.307,157.145C114.852,157.831 113.231,158.502 110.969,158.659C110.204,158.712 109.626,159.376 109.679,160.141C109.732,160.905 110.396,161.483 111.161,161.43C113.842,161.244 115.768,160.47 117.491,159.657C120.14,158.465 121.669,155.633 121.211,152.752C120.96,151.083 120.155,149.325 118.213,147.969C115.905,146.358 113.628,146.404 111.151,147.135C109.096,147.742 106.882,148.866 104.33,149.595C103.593,149.806 103.166,150.575 103.376,151.312C103.587,152.049 104.357,152.477 105.094,152.266ZM150.687,137.527L150.804,137.525C151.109,137.512 151.369,137.401 151.587,137.195C151.832,136.965 151.952,136.684 151.952,136.354L151.952,133.612C151.952,133.289 151.836,133.008 151.596,132.771C151.361,132.539 151.077,132.422 150.742,132.422L150.406,132.422L150.406,121.957C150.406,121.628 150.286,121.347 150.041,121.116C149.809,120.897 149.528,120.785 149.196,120.785L142.704,120.785C142.365,120.785 142.085,120.902 141.859,121.125C141.628,121.354 141.512,121.631 141.512,121.957L141.512,122.523C141.512,124.253 141.5,125.565 141.476,126.458C141.452,127.349 141.419,128.167 141.377,128.91C141.338,129.595 141.26,130.126 141.132,130.503C141.004,130.881 140.866,131.21 140.715,131.488C140.579,131.739 140.379,132.05 140.115,132.422L140.013,132.422C139.678,132.422 139.393,132.539 139.159,132.771C138.919,133.008 138.803,133.289 138.803,133.612L138.803,136.354C138.803,136.684 138.923,136.965 139.168,137.195C139.4,137.414 139.681,137.527 140.013,137.527L140.129,137.525C140.434,137.512 140.694,137.401 140.912,137.195C141.157,136.965 141.278,136.684 141.278,136.354L141.278,134.716L149.477,134.716L149.477,136.354C149.477,136.684 149.598,136.965 149.843,137.195C150.075,137.414 150.356,137.527 150.687,137.527ZM101.14,116.239C96.585,122.81 96.351,129.38 101.162,135.951C101.639,136.603 102.555,136.744 103.206,136.267C103.858,135.791 103.999,134.875 103.522,134.223C99.54,128.784 99.774,123.344 103.544,117.905C104.004,117.242 103.839,116.33 103.176,115.87C102.512,115.41 101.6,115.575 101.14,116.239ZM164.048,117.905C167.819,123.344 168.053,128.784 164.07,134.223C163.593,134.875 163.735,135.791 164.386,136.267C165.038,136.744 165.953,136.603 166.43,135.951C171.241,129.38 171.007,122.81 166.452,116.239C165.992,115.575 165.081,115.41 164.417,115.87C163.754,116.33 163.589,117.242 164.048,117.905ZM119.766,132.151C120.052,132.512 120.234,132.859 120.238,133.22C120.242,133.564 120.074,133.896 119.785,134.24C119.391,134.71 119.452,135.411 119.922,135.805C120.392,136.199 121.094,136.138 121.488,135.668C122.175,134.848 122.469,134.015 122.46,133.195C122.451,132.391 122.145,131.574 121.507,130.77C121.125,130.289 120.426,130.209 119.945,130.59C119.465,130.972 119.385,131.671 119.766,132.151ZM143.094,132.422C143.516,131.595 143.775,130.777 143.874,129.969C143.991,129.012 144.055,126.715 144.059,123.078L147.804,123.078L147.804,132.422L143.094,132.422ZM120.608,122.064C121.512,122.064 122.246,122.798 122.246,123.702C122.246,124.606 121.512,125.34 120.608,125.34C119.704,125.34 118.97,124.606 118.97,123.702C118.97,122.798 119.704,122.064 120.608,122.064ZM129.904,113.431C127.854,113.431 126.189,115.096 126.189,117.146C126.189,119.196 127.854,120.86 129.904,120.86C131.954,120.86 133.618,119.196 133.618,117.146C133.618,115.096 131.954,113.431 129.904,113.431ZM158.537,113.431C156.487,113.431 154.823,115.096 154.823,117.146C154.823,119.196 156.487,120.86 158.537,120.86C160.587,120.86 162.252,119.196 162.252,117.146C162.252,115.096 160.587,113.431 158.537,113.431ZM129.904,115.73C130.685,115.73 131.32,116.364 131.32,117.146C131.32,117.927 130.685,118.562 129.904,118.562C129.122,118.562 128.488,117.927 128.488,117.146C128.488,116.364 129.122,115.73 129.904,115.73ZM158.537,115.73C159.319,115.73 159.954,116.364 159.954,117.146C159.954,117.927 159.319,118.562 158.537,118.562C157.756,118.562 157.121,117.927 157.121,117.146C157.121,116.364 157.756,115.73 158.537,115.73ZM111.706,107.952L117.854,94.974L124.001,107.952C124.347,108.682 125.219,108.993 125.949,108.648C126.678,108.302 126.99,107.43 126.644,106.7L119.175,90.932C118.933,90.421 118.419,90.095 117.854,90.095C117.288,90.095 116.774,90.421 116.532,90.932L109.063,106.7C108.717,107.43 109.029,108.302 109.758,108.648C110.488,108.993 111.361,108.682 111.706,107.952ZM143.871,107.952L150.018,94.974L156.166,107.952C156.511,108.682 157.384,108.993 158.113,108.648C158.843,108.302 159.155,107.43 158.809,106.7L151.34,90.932C151.098,90.421 150.583,90.095 150.018,90.095C149.453,90.095 148.938,90.421 148.696,90.932L141.227,106.7C140.882,107.43 141.193,108.302 141.923,108.648C142.652,108.993 143.525,108.682 143.871,107.952Z"/>
    </g>
</svg>
