<?xml version="1.0" encoding="UTF-8" standalone="no"?>
<svg xmlns:xlink="http://www.w3.org/1999/xlink" height="37.45px" width="39.3px" xmlns="http://www.w3.org/2000/svg">
  <g transform="matrix(1.0, 0.0, 0.0, 1.0, 19.65, 36.95)">
    <path d="M-2.45 -34.8 Q-2.55 -37.25 0.35 -36.1 L2.55 -35.55 1.45 -33.95 Q-0.75 -34.2 -2.45 -34.8" fill="#e2f5ec" fill-rule="evenodd" stroke="none"/>
    <path d="M1.45 -33.95 Q-0.75 -34.2 -2.45 -34.8" fill="none" stroke="#8f7c3f" stroke-linecap="round" stroke-linejoin="round" stroke-width="1.0"/>
    <path d="M-2.45 -34.8 Q-2.55 -37.25 0.35 -36.1 L2.55 -35.55 1.45 -33.95 Z" fill="none" stroke="#8f7c3f" stroke-linecap="round" stroke-linejoin="round" stroke-width="1.0"/>
    <path d="M13.55 -5.05 Q7.95 0.0 0.0 0.0 -7.95 0.0 -13.55 -5.05 -19.15 -10.1 -19.15 -17.25 -19.15 -24.4 -13.55 -29.45 -7.95 -34.5 0.0 -34.5 7.95 -34.5 13.55 -29.45 19.15 -24.4 19.15 -17.25 19.15 -10.1 13.55 -5.05" fill="#e2f5ec" fill-rule="evenodd" stroke="none"/>
    <path d="M13.55 -5.05 Q7.95 0.0 0.0 0.0 -7.95 0.0 -13.55 -5.05 -19.15 -10.1 -19.15 -17.25 -19.15 -24.4 -13.55 -29.45 -7.95 -34.5 0.0 -34.5 7.95 -34.5 13.55 -29.45 19.15 -24.4 19.15 -17.25 19.15 -10.1 13.55 -5.05 Z" fill="none" stroke="#8f7c3f" stroke-linecap="round" stroke-linejoin="round" stroke-width="1.0"/>
    <path d="M-5.0 -27.6 L-7.75 -25.5 -5.7 -22.05 -8.65 -19.05 -5.95 -14.5 -9.2 -10.6 -8.1 -7.4 -9.85 -2.75 -13.05 -11.7 -10.3 -13.8 -12.1 -18.1 -9.8 -22.25 -10.2 -25.75 -8.15 -27.5 -8.0 -31.35 -5.05 -33.85 -5.0 -27.6 M-12.5 -30.0 L-12.45 -25.85 -14.25 -24.5 -12.9 -22.2 -14.85 -20.2 -13.05 -17.15 -15.25 -14.6 -14.5 -12.5 -16.4 -8.15 -17.75 -15.3 -15.95 -16.7 -17.15 -19.55 -15.6 -22.3 -15.85 -24.6 -14.55 -25.8 -14.45 -28.35 -12.5 -30.0 M1.4 -26.95 L-0.75 -23.95 2.05 -20.7 -0.15 -16.65 3.65 -12.3 1.35 -7.2 3.2 -4.0 -2.05 -0.15 -0.8 -4.2 -2.65 -7.45 -0.5 -10.45 -3.25 -14.75 -2.0 -19.85 -2.8 -23.05 -1.65 -26.1 -2.4 -30.3 0.8 -34.25 0.55 -30.15 1.4 -26.95 M12.65 -23.75 L11.6 -25.5 11.95 -27.55 9.3 -32.55 13.85 -28.65 12.85 -26.45 15.25 -24.95 14.4 -22.1 17.55 -20.1 16.8 -16.6 18.55 -14.95 17.45 -10.1 14.1 -16.0 15.1 -18.25 12.6 -20.35 12.65 -23.75 M9.25 -27.6 L7.2 -24.9 10.05 -22.3 8.0 -18.75 11.85 -15.3 9.7 -10.85 11.65 -8.25 8.6 -2.1 5.75 -10.75 7.8 -13.45 4.95 -16.9 6.1 -21.35 5.2 -23.95 6.25 -26.6 4.1 -33.9 9.25 -27.6" fill="#8f7c3f" fill-rule="evenodd" stroke="none"/>
  </g>
</svg>
