<?xml version="1.0" encoding="UTF-8" standalone="no"?>
<!DOCTYPE svg PUBLIC "-//W3C//DTD SVG 1.1//EN" "http://www.w3.org/Graphics/SVG/1.1/DTD/svg11.dtd">
<svg width="73px" height="98px" version="1.1" xmlns="http://www.w3.org/2000/svg" xmlns:xlink="http://www.w3.org/1999/xlink" xml:space="preserve" xmlns:serif="http://www.serif.com/" style="fill-rule:evenodd;clip-rule:evenodd;stroke-linejoin:round;stroke-miterlimit:2;">
    <g transform="matrix(0.536747,0,0,0.536747,-35.9264,53.3037)">
        <path d="M151.064,-95.759C151.051,-95.76 151.039,-95.76 151.026,-95.76L93.173,-95.76C91.04,-95.266 89.342,-88.986 95.975,-87.848C90.968,-84.249 93.382,-81.667 100.336,-82.864C88.429,-80.064 83.467,-70.008 95.897,-69.692C98.348,-68.952 97.596,-67.033 91.204,-66.532C84.886,-66.037 69.149,-50.317 80.782,-36.03C74.076,-29.248 66.767,-17.469 75.421,-7.774C76.607,-4.854 74.944,-1.839 71.678,1.938C64.179,10.61 70.676,23.866 77.834,29.006L77.834,52.363C77.791,56.066 77.684,59.542 77,61C72.9,66.915 72.069,72.83 75.003,78.745C75.951,80.705 77.937,81.949 80.114,81.949C84.993,82 93.891,82 93.891,82L140.421,82C142.378,82 144.199,81.001 145.251,79.351C145.678,78.683 146.017,78.151 146.017,78.151C146.017,78.151 146.177,78.445 146.407,78.867C147.405,80.694 149.316,81.836 151.398,81.85C158.603,81.896 174.839,82 174.839,82L183.922,82C190.629,81.566 197.537,79.906 202.513,76.872C200.064,74.227 194.769,69.521 190.971,66.975C185.854,58.53 180.738,52.066 175.621,46.117C173.172,43.472 168.725,39.613 164.926,37.067C158.153,31.653 153.145,21.879 157.67,18.645C160.78,17.575 164.512,16.16 167.709,16.338C162.132,13.293 159.595,8.699 157.976,3.603C156.508,-1.016 152.303,-4.864 145.737,-7.774C153.421,-16.973 148.669,-35.522 128.214,-36.604C133.339,-43.604 133.066,-50.604 128.214,-57.604C126.164,-60.56 131.2,-63.295 138.691,-66.593C140.78,-67.672 142.151,-70.15 142.624,-74.376L144.726,-75.933L148.075,-69.314L153.604,-88.861L163.339,-89.017L163.34,-89.017C163.571,-89.02 163.775,-89.169 163.847,-89.388C163.92,-89.608 163.845,-89.849 163.662,-89.989C159.38,-93.259 155.152,-95.655 151.064,-95.759Z" style="fill:white;"/>
    </g>
    <g transform="matrix(0.614965,0,0,0.614965,-31.1389,-36.9959)">
        <path d="M144.816,217.296L133.668,217.296C133.055,217.296 132.557,217.794 132.557,218.407C132.557,219.02 133.055,219.518 133.668,219.518L144.816,219.518C145.429,219.518 145.927,219.02 145.927,218.407C145.927,217.794 145.429,217.296 144.816,217.296ZM114.039,217.296L81.153,217.296C80.54,217.296 80.042,217.794 80.042,218.407C80.042,219.02 80.54,219.518 81.153,219.518L114.039,219.518C114.652,219.518 115.15,219.02 115.15,218.407C115.15,217.794 114.652,217.296 114.039,217.296ZM67.114,217.296L63.486,217.296C62.872,217.296 62.375,217.794 62.375,218.407C62.375,219.02 62.872,219.518 63.486,219.518L67.114,219.518C67.727,219.518 68.225,219.02 68.225,218.407C68.225,217.794 67.727,217.296 67.114,217.296ZM76.793,199.445C72.26,205.984 72.022,212.524 76.81,219.063C77.172,219.558 77.868,219.666 78.363,219.303C78.858,218.941 78.965,218.245 78.603,217.751C74.444,212.071 74.682,206.391 78.62,200.711C78.969,200.207 78.843,199.514 78.339,199.165C77.835,198.815 77.143,198.941 76.793,199.445ZM116.604,200.711C120.542,206.391 120.78,212.071 116.621,217.751C116.259,218.245 116.366,218.941 116.861,219.303C117.356,219.666 118.052,219.558 118.414,219.063C123.202,212.524 122.964,205.984 118.431,199.445C118.081,198.941 117.388,198.815 116.884,199.165C116.38,199.514 116.255,200.207 116.604,200.711ZM58.508,199.445C53.975,205.984 53.737,212.524 58.525,219.063C58.887,219.558 59.583,219.666 60.078,219.303C60.572,218.941 60.68,218.245 60.318,217.751C56.159,212.071 56.397,206.391 60.334,200.711C60.684,200.207 60.558,199.514 60.054,199.165C59.55,198.815 58.857,198.941 58.508,199.445ZM152.131,215.54C152.428,215.86 152.619,216.164 152.623,216.485C152.627,216.793 152.448,217.084 152.147,217.392C151.826,217.721 151.832,218.249 152.161,218.57C152.49,218.892 153.018,218.885 153.34,218.556C154.015,217.864 154.298,217.155 154.289,216.463C154.281,215.784 153.983,215.088 153.355,214.408C153.043,214.071 152.516,214.05 152.178,214.362C151.84,214.674 151.819,215.202 152.131,215.54ZM128.536,215.54C128.832,215.86 129.023,216.164 129.027,216.485C129.031,216.793 128.852,217.084 128.551,217.392C128.23,217.721 128.236,218.249 128.565,218.57C128.895,218.892 129.423,218.885 129.744,218.556C130.419,217.864 130.703,217.155 130.694,216.463C130.685,215.784 130.388,215.088 129.76,214.408C129.447,214.071 128.92,214.05 128.582,214.362C128.244,214.674 128.223,215.202 128.536,215.54ZM70.889,214.29C71.492,214.29 71.981,214.779 71.981,215.382C71.981,215.985 71.492,216.474 70.889,216.474C70.286,216.474 69.797,215.985 69.797,215.382C69.797,214.779 70.286,214.29 70.889,214.29ZM125.124,214.29C125.726,214.29 126.216,214.779 126.216,215.382C126.216,215.985 125.726,216.474 125.124,216.474C124.521,216.474 124.032,215.985 124.032,215.382C124.032,214.779 124.521,214.29 125.124,214.29ZM148.719,214.29C149.322,214.29 149.811,214.779 149.811,215.382C149.811,215.985 149.322,216.474 148.719,216.474C148.117,216.474 147.627,215.985 147.627,215.382C147.627,214.779 148.117,214.29 148.719,214.29ZM158.277,206.216C161.522,208.391 165.322,211.687 167.415,213.947C167.832,214.397 168.535,214.424 168.985,214.007C169.435,213.59 169.462,212.887 169.046,212.437C166.862,210.08 162.9,206.639 159.514,204.37C159.005,204.029 158.314,204.165 157.973,204.675C157.631,205.184 157.768,205.875 158.277,206.216ZM59.038,172.154L59.038,192.54C59.038,193.153 59.536,193.651 60.149,193.651C60.762,193.651 61.26,193.153 61.26,192.54L61.26,172.154C61.26,171.54 60.762,171.042 60.149,171.042C59.536,171.042 59.038,171.54 59.038,172.154ZM119.514,172.154L119.514,192.54C119.514,193.153 120.012,193.651 120.625,193.651C121.238,193.651 121.736,193.153 121.736,192.54L121.736,172.154C121.736,171.54 121.238,171.042 120.625,171.042C120.012,171.042 119.514,171.54 119.514,172.154ZM73.963,174.459L73.963,190.234C73.963,190.848 74.46,191.345 75.074,191.345L90.594,191.345C91.207,191.345 91.705,190.848 91.705,190.234L91.705,174.459C91.705,173.846 91.207,173.348 90.594,173.348C89.981,173.348 89.483,173.846 89.483,174.459L89.483,189.123L76.185,189.123L76.185,174.459C76.185,173.846 75.687,173.348 75.074,173.348C74.46,173.348 73.963,173.846 73.963,174.459ZM135.545,180.112C138.791,182.287 142.591,185.583 144.683,187.843C145.1,188.293 145.804,188.32 146.254,187.903C146.704,187.486 146.731,186.783 146.314,186.333C144.131,183.976 140.168,180.535 136.783,178.266C136.273,177.925 135.583,178.061 135.241,178.571C134.9,179.08 135.036,179.771 135.545,180.112ZM89.181,148.951L92.3,148.951L92.3,165.633L89.181,165.633C88.568,165.633 88.07,166.131 88.07,166.744C88.07,167.357 88.568,167.855 89.181,167.855L93.412,167.855C94.025,167.855 94.523,167.358 94.523,166.744L94.523,147.84C94.523,147.227 94.025,146.729 93.412,146.729L89.181,146.729C88.568,146.729 88.07,147.227 88.07,147.84C88.07,148.453 88.568,148.951 89.181,148.951ZM64.379,146.729L60.149,146.729C59.536,146.729 59.038,147.227 59.038,147.84L59.038,166.744C59.038,167.358 59.536,167.855 60.149,167.855L64.379,167.855C64.993,167.855 65.491,167.357 65.491,166.744C65.491,166.131 64.993,165.633 64.379,165.633L61.26,165.633L61.26,148.951L64.379,148.951C64.993,148.951 65.491,148.453 65.491,147.84C65.491,147.227 64.993,146.729 64.379,146.729ZM53.863,147.895C49.667,153.949 49.447,160.003 53.88,166.056C54.242,166.551 54.938,166.659 55.433,166.296C55.928,165.934 56.035,165.238 55.673,164.744C51.87,159.549 52.089,154.355 55.69,149.161C56.039,148.657 55.913,147.964 55.409,147.615C54.905,147.265 54.213,147.391 53.863,147.895ZM119.507,149.161C123.108,154.355 123.327,159.549 119.523,164.744C119.161,165.238 119.269,165.934 119.764,166.296C120.258,166.659 120.954,166.551 121.316,166.056C125.749,160.003 125.53,153.949 121.333,147.895C120.984,147.391 120.291,147.265 119.787,147.615C119.283,147.964 119.157,148.657 119.507,149.161ZM80.069,166.092L80.261,166.091C80.518,166.085 80.737,165.988 80.918,165.798C81.103,165.604 81.195,165.375 81.195,165.111L81.195,161.068L85.51,161.068C85.758,161.068 85.98,160.977 86.175,160.791C86.372,160.603 86.469,160.378 86.469,160.119C86.469,159.856 86.371,159.634 86.171,159.453C85.978,159.277 85.757,159.191 85.51,159.191L81.195,159.191L81.195,155.585L85.531,155.585C85.781,155.585 86.001,155.493 86.189,155.305C86.379,155.116 86.469,154.902 86.469,154.667C86.469,154.413 86.371,154.194 86.171,154.012C85.976,153.835 85.762,153.75 85.531,153.75L81.195,153.75L81.195,150.29L86.114,150.29C86.35,150.29 86.56,150.202 86.742,150.02C86.922,149.84 87.011,149.624 87.011,149.372C87.011,149.122 86.926,148.907 86.756,148.728C86.583,148.546 86.369,148.455 86.114,148.455L79.447,148.455L79.669,147.498C79.723,147.246 79.671,147.006 79.509,146.78C79.348,146.556 79.14,146.429 78.889,146.393L78.889,146.404C78.873,146.395 78.854,146.391 78.83,146.391L78.79,146.391C78.552,146.361 78.321,146.415 78.099,146.56C77.869,146.711 77.729,146.912 77.676,147.161C77.238,149.214 76.598,151.138 75.754,152.934L75.754,151.936C75.754,151.67 75.661,151.444 75.474,151.257C75.288,151.071 75.061,150.977 74.795,150.977L73.544,150.977L73.544,149.123L75.024,149.123C75.26,149.123 75.47,149.035 75.651,148.853C75.831,148.673 75.921,148.457 75.921,148.205C75.921,147.969 75.833,147.759 75.651,147.578C75.47,147.396 75.26,147.308 75.024,147.308L67.624,147.308C67.35,147.308 67.132,147.403 66.968,147.586C66.807,147.765 66.727,147.972 66.727,148.205C66.727,148.476 66.82,148.696 67,148.867C67.181,149.039 67.389,149.123 67.624,149.123L69.312,149.123L69.312,150.977L68.103,150.977C67.837,150.977 67.61,151.071 67.424,151.257C67.237,151.444 67.144,151.67 67.144,151.936L67.144,164.924C67.144,165.173 67.238,165.397 67.434,165.593C67.629,165.788 67.856,165.883 68.114,165.883C68.373,165.883 68.598,165.786 68.786,165.589C68.972,165.394 69.062,165.172 69.062,164.924L69.062,164.82L73.898,164.82L73.898,164.945C73.898,165.177 73.987,165.393 74.175,165.589C74.363,165.787 74.585,165.883 74.836,165.883C75.071,165.883 75.285,165.792 75.474,165.603C75.662,165.415 75.754,165.195 75.754,164.945L75.754,155.845C75.904,155.896 76.062,155.901 76.23,155.861C76.492,155.797 76.687,155.648 76.813,155.413C76.814,155.412 76.814,155.411 76.815,155.41C77.658,153.793 78.358,152.086 78.914,150.291L79.11,150.29L79.11,165.111C79.11,165.394 79.204,165.626 79.39,165.812C79.576,165.998 79.802,166.092 80.069,166.092ZM74.139,165.147L74.141,165.151C74.13,165.153 74.118,165.154 74.107,165.154C74.107,165.154 74.12,165.152 74.139,165.147ZM128.751,150.246C129.693,154.086 131.758,157.52 135.176,160.186C133.223,160.48 131.236,161.034 129.469,161.642C128.889,161.841 128.58,162.474 128.78,163.054C128.979,163.634 129.612,163.943 130.192,163.743C132.776,162.854 135.874,162.058 138.531,162.206C139.05,162.235 139.519,161.901 139.662,161.402C139.804,160.902 139.581,160.371 139.126,160.122C134.566,157.632 131.951,153.962 130.909,149.717C130.763,149.122 130.161,148.757 129.566,148.903C128.97,149.049 128.605,149.651 128.751,150.246ZM69.062,161.422L69.062,163.026L73.898,163.026L73.898,161.422L69.062,161.422ZM71.709,152.75L71.709,156.231C71.709,156.907 71.798,157.339 71.936,157.531C72.007,157.629 72.116,157.712 72.272,157.771C72.454,157.84 72.711,157.878 73.044,157.878L73.898,157.878L73.898,159.691L69.062,159.691L69.062,159.194C69.14,159.215 69.215,159.22 69.286,159.211C69.447,159.191 69.599,159.1 69.729,158.921C70.361,158.088 70.767,157.277 70.954,156.487C71.134,155.725 71.228,154.48 71.23,152.75L71.709,152.75ZM69.603,152.75C69.6,154.032 69.543,154.985 69.43,155.61C69.356,156.015 69.234,156.393 69.062,156.742L69.062,152.75L69.603,152.75ZM73.898,156.189L73.627,156.189C73.506,156.189 73.384,156.176 73.319,156.168C73.31,156.097 73.294,155.957 73.294,155.814L73.294,152.75L73.898,152.75L73.898,156.189ZM98.956,152.448C104.151,148.847 109.345,148.628 114.539,152.431C115.034,152.793 115.73,152.686 116.092,152.191C116.454,151.696 116.347,151 115.852,150.638C109.798,146.206 103.744,146.425 97.69,150.621C97.186,150.971 97.061,151.664 97.41,152.168C97.76,152.672 98.452,152.797 98.956,152.448ZM71.21,149.123L71.21,150.977L71.709,150.977L71.709,149.123L71.21,149.123ZM90.617,141.629L90.723,141.629C91.037,141.622 91.304,141.517 91.525,141.316C91.764,141.099 91.882,140.835 91.882,140.525L91.882,136.853C91.882,136.547 91.767,136.28 91.53,136.055C91.3,135.837 91.021,135.727 90.693,135.727L89.73,135.727L89.73,121.249C89.73,120.939 89.612,120.675 89.373,120.458C89.144,120.251 88.867,120.145 88.54,120.145L79.5,120.145C79.17,120.145 78.896,120.253 78.676,120.463C78.449,120.679 78.336,120.941 78.336,121.249L78.336,122.006C78.336,124.328 78.319,126.089 78.286,127.288C78.252,128.486 78.206,129.584 78.147,130.584C78.09,131.553 77.97,132.304 77.782,132.837C77.594,133.371 77.39,133.834 77.169,134.227C76.948,134.621 76.609,135.12 76.152,135.727L75.753,135.727C75.424,135.727 75.145,135.837 74.916,136.055C74.679,136.28 74.563,136.547 74.563,136.853L74.563,140.525C74.563,140.835 74.681,141.099 74.92,141.316C75.149,141.523 75.426,141.629 75.753,141.629L75.859,141.629C76.172,141.622 76.439,141.517 76.661,141.316C76.9,141.099 77.018,140.835 77.018,140.525L77.018,137.865L89.427,137.865L89.427,140.525C89.427,140.835 89.545,141.099 89.785,141.316C90.013,141.523 90.29,141.629 90.617,141.629ZM110.878,138.034C111.174,138.355 111.365,138.659 111.369,138.98C111.373,139.288 111.195,139.578 110.894,139.887C110.572,140.216 110.579,140.744 110.908,141.065C111.237,141.386 111.765,141.38 112.086,141.051C112.762,140.359 113.045,139.65 113.036,138.958C113.027,138.278 112.73,137.583 112.102,136.903C111.79,136.565 111.262,136.545 110.924,136.857C110.587,137.169 110.566,137.697 110.878,138.034ZM118.502,122.356C122.439,128.035 122.677,133.715 118.519,139.395C118.156,139.89 118.264,140.586 118.759,140.948C119.253,141.31 119.949,141.203 120.312,140.708C125.1,134.168 124.861,127.629 120.328,121.09C119.979,120.586 119.286,120.46 118.782,120.809C118.278,121.159 118.152,121.852 118.502,122.356ZM57.13,121.09C52.596,127.629 52.358,134.168 57.146,140.708C57.509,141.203 58.204,141.31 58.699,140.948C59.194,140.586 59.302,139.89 58.939,139.395C54.781,133.715 55.019,128.035 58.956,122.356C59.305,121.852 59.18,121.159 58.676,120.809C58.172,120.46 57.479,120.586 57.13,121.09ZM79.213,135.727C80.004,134.442 80.477,133.172 80.637,131.92C80.804,130.606 80.89,127.394 80.892,122.284L87.098,122.284L87.098,135.727L79.213,135.727ZM111.49,128.103C112.184,128.103 112.747,128.667 112.747,129.361C112.747,130.054 112.184,130.618 111.49,130.618C110.796,130.618 110.233,130.054 110.233,129.361C110.233,128.667 110.796,128.103 111.49,128.103ZM98.415,122.283L100.839,124.765C101.267,125.204 101.971,125.213 102.41,124.784C102.849,124.356 102.857,123.652 102.429,123.213L100.006,120.731C99.577,120.292 98.873,120.283 98.434,120.712C97.995,121.14 97.987,121.844 98.415,122.283ZM67.363,120.731L64.94,123.213C64.511,123.652 64.52,124.356 64.959,124.784C65.398,125.213 66.102,125.204 66.53,124.765L68.953,122.283C69.382,121.844 69.373,121.14 68.934,120.712C68.496,120.283 67.792,120.292 67.363,120.731ZM61.396,95.927C56.863,102.466 56.625,109.006 61.413,115.545C61.775,116.04 62.471,116.148 62.966,115.785C63.46,115.423 63.568,114.727 63.206,114.232C59.047,108.553 59.285,102.873 63.222,97.193C63.572,96.689 63.446,95.996 62.942,95.647C62.438,95.297 61.745,95.423 61.396,95.927ZM103.208,97.193C107.145,102.873 107.383,108.553 103.224,114.232C102.862,114.727 102.97,115.423 103.464,115.785C103.959,116.148 104.655,116.04 105.017,115.545C109.805,109.006 109.567,102.466 105.034,95.927C104.685,95.423 103.992,95.297 103.488,95.647C102.984,95.996 102.858,96.689 103.208,97.193ZM83.173,94.453C82.888,94.453 82.657,94.55 82.479,94.737C82.302,94.923 82.213,95.148 82.213,95.413L82.213,97.247L72.291,97.247C72.039,97.247 71.828,97.33 71.657,97.492C71.482,97.657 71.394,97.864 71.394,98.112C71.394,98.359 71.485,98.57 71.667,98.743C71.848,98.915 72.056,98.999 72.291,98.999L82.213,98.999L82.213,100.736C81.436,100.203 80.561,99.936 79.587,99.936C78.347,99.936 77.312,100.343 76.481,101.152C75.648,101.964 75.23,102.976 75.23,104.189C75.23,105.402 75.647,106.417 76.48,107.236C77.312,108.053 78.347,108.463 79.587,108.463C80.927,108.463 81.937,108.097 82.626,107.381C82.508,108.431 82.093,109.278 81.376,109.923C80.572,110.646 79.323,111.149 77.635,111.446C77.366,111.483 77.16,111.612 77.016,111.828C76.875,112.039 76.822,112.271 76.858,112.525C76.894,112.787 77.028,112.997 77.263,113.151C77.49,113.299 77.726,113.353 77.97,113.318C77.972,113.318 77.974,113.318 77.975,113.317C80.297,112.918 81.974,112.14 83.014,111.001C84.06,109.855 84.591,108.253 84.591,106.19C84.591,105.252 84.469,104.398 84.228,103.63C84.207,103.557 84.194,103.501 84.194,103.46L84.194,98.999L89.135,98.999C89.388,98.999 89.6,98.912 89.772,98.74C89.945,98.567 90.031,98.358 90.031,98.112C90.031,97.863 89.939,97.655 89.754,97.488C89.574,97.327 89.368,97.247 89.135,97.247L84.194,97.247L84.194,95.413C84.194,95.146 84.101,94.92 83.914,94.734C83.728,94.547 83.501,94.453 83.235,94.453L83.173,94.453ZM81.641,105.915C81.146,106.391 80.537,106.628 79.816,106.628C79.095,106.628 78.487,106.391 77.991,105.915C77.499,105.442 77.253,104.867 77.253,104.189C77.253,103.512 77.498,102.941 77.99,102.475C78.486,102.005 79.095,101.771 79.816,101.771C80.537,101.771 81.147,102.005 81.642,102.475C82.134,102.941 82.38,103.512 82.38,104.189C82.38,104.867 82.134,105.442 81.641,105.915ZM113.265,87.602L87.222,87.602C86.609,87.602 86.111,88.1 86.111,88.713C86.111,89.327 86.609,89.825 87.222,89.825L113.265,89.825C113.878,89.825 114.376,89.327 114.376,88.713C114.376,88.1 113.878,87.602 113.265,87.602ZM72.041,86.154L74.628,86.655C75.189,86.757 75.599,86.927 75.853,87.181C75.917,87.245 75.959,87.303 75.959,87.367C75.959,87.431 75.917,87.489 75.853,87.553C75.784,87.622 75.671,87.671 75.519,87.712C75.239,87.789 74.843,87.825 74.333,87.825C73.743,87.825 73.126,87.717 72.481,87.502C72.481,87.502 72.462,87.495 72.428,87.483C72.176,87.393 71.897,87.419 71.665,87.553C71.434,87.688 71.273,87.918 71.227,88.181C71.226,88.187 71.225,88.193 71.224,88.198C71.147,88.633 71.394,89.06 71.808,89.211C71.969,89.269 72.094,89.314 72.094,89.314C72.725,89.544 73.499,89.66 74.417,89.66C75.712,89.66 76.619,89.379 77.149,88.849C77.637,88.361 77.878,87.81 77.878,87.2C77.878,86.64 77.689,86.175 77.316,85.802C76.846,85.331 76.201,85.004 75.378,84.828L72.125,84.161C71.404,84.006 70.935,83.84 70.729,83.634C70.537,83.442 70.456,83.127 70.456,82.697C70.456,81.901 70.921,80.977 71.823,79.915C72.917,78.657 74.527,77.292 76.652,75.817C77.844,75.781 78.76,75.674 79.401,75.501C79.873,75.373 80.204,75.204 80.401,75.007C80.61,74.798 80.713,74.554 80.713,74.275C80.713,74.049 80.635,73.861 80.485,73.711C80.208,73.434 79.808,73.275 79.28,73.249C78.567,73.216 77.601,73.428 76.384,73.898C75.642,73.842 75.115,73.678 74.814,73.377C74.64,73.202 74.542,73.033 74.542,72.858C74.542,72.634 74.635,72.434 74.814,72.255C75.191,71.879 75.783,71.505 76.59,71.129C76.59,71.129 76.7,71.079 76.853,71.01C77.074,70.91 77.237,70.714 77.295,70.479C77.353,70.243 77.299,69.994 77.149,69.804L77.149,69.803C76.817,69.381 76.239,69.242 75.752,69.466C75.599,69.536 75.486,69.588 75.486,69.588C74.63,70.045 73.975,70.503 73.518,70.959C72.917,71.561 72.623,72.196 72.623,72.858C72.623,73.468 72.864,74.018 73.352,74.506C73.666,74.821 74.032,75.068 74.45,75.246C72.751,76.366 71.298,77.608 70.091,78.973L70.09,78.974C68.937,80.3 68.371,81.544 68.371,82.697C68.371,83.705 68.673,84.504 69.266,85.096C69.671,85.502 70.592,85.865 72.041,86.154ZM126.588,71.126C126.689,70.763 127.02,70.513 127.396,70.513L134.455,70.513C134.735,70.513 135.004,70.401 135.202,70.203C135.4,70.005 135.511,69.737 135.511,69.457L135.511,69.455C135.511,69.176 135.4,68.907 135.202,68.709C135.004,68.511 134.735,68.4 134.455,68.4L125.892,68.4C125.516,68.4 125.186,68.65 125.084,69.012C124.284,71.858 120.968,83.654 120.968,83.654C120.968,83.654 119.652,80.982 119.079,79.82C119.015,79.69 118.896,79.596 118.755,79.563C118.614,79.531 118.466,79.564 118.351,79.653C117.707,80.154 116.552,81.052 115.911,81.55C115.637,81.764 115.532,82.129 115.65,82.456C115.651,82.456 115.651,82.456 115.651,82.457C115.738,82.697 115.934,82.881 116.18,82.953C116.425,83.025 116.689,82.976 116.893,82.821C117.353,82.47 117.825,82.111 117.825,82.111C117.825,82.111 119.963,86.283 120.979,88.267C121.064,88.433 121.241,88.529 121.426,88.511C121.61,88.492 121.765,88.362 121.815,88.183C122.8,84.664 125.833,73.824 126.588,71.126ZM124.032,62.145L73.537,62.145C72.924,62.145 72.426,62.643 72.426,63.256C72.426,63.87 72.924,64.368 73.537,64.368L124.032,64.368C124.645,64.368 125.143,63.87 125.143,63.256C125.143,62.643 124.645,62.145 124.032,62.145Z"/>
    </g>
</svg>
