<?xml version="1.0" encoding="UTF-8" standalone="no"?>
<!DOCTYPE svg PUBLIC "-//W3C//DTD SVG 1.1//EN" "http://www.w3.org/Graphics/SVG/1.1/DTD/svg11.dtd">
<svg width="68px" height="64px" version="1.1" xmlns="http://www.w3.org/2000/svg" xmlns:xlink="http://www.w3.org/1999/xlink" xml:space="preserve" xmlns:serif="http://www.serif.com/" style="fill-rule:evenodd;clip-rule:evenodd;stroke-linejoin:round;stroke-miterlimit:2;">
    <g transform="matrix(0.624921,0,0,0.624921,-34.9582,-71.8706)">
        <path d="M123.974,134.737L124.073,134.737L132.012,117.977L139.951,134.737C139.951,134.737 143.068,140.84 144.064,144.085C144.45,145.342 145.305,149.218 145.41,149.88L145.423,149.964C148.583,149.225 151.729,148.318 154.937,147.213L154.95,147.282C155.169,147.237 155.394,147.213 155.625,147.213C157.486,147.213 158.997,148.748 158.997,150.638C158.997,151.499 158.683,152.287 158.166,152.889C159.325,153.572 160.104,154.833 160.104,156.274C160.104,157.976 159.02,159.426 157.505,159.97L157.507,159.983C153.472,162.429 148.198,164.111 143.607,164.91C143.473,165.724 141.997,168.332 140.6,169.063L140.6,169.816C142.734,170.017 144.061,170.388 145.728,170.975C147.896,171.695 149.077,174.021 148.364,176.164C148.009,177.235 147.248,178.059 146.305,178.526C148.114,179.517 149.02,181.673 148.353,183.679C147.626,185.866 145.295,187.077 143.074,186.466C142.26,186.319 142.431,186.348 141.588,186.209C140.773,196.78 144.493,200.843 148.394,201.693L157.492,202.079C160.812,202.079 163.504,204.553 163.504,207.605L163.504,207.607C163.504,210.846 160.647,213.798 157.123,213.798L149.914,213.798C145.039,213.878 138.163,213.574 135.341,212.346C134.349,213.95 132.451,215.409 130.539,215.409L130.537,215.409C127.298,215.409 124.672,212.552 124.672,209.028L124.672,208.935C122.844,208.255 120.923,208.256 118.912,209.082L118.912,209.397C118.912,212.718 116.438,215.409 113.386,215.409L113.384,215.409C111.733,215.409 108.331,213.632 107.902,209.775C107.082,209.716 103.56,210.14 101.91,211.96C98.578,215.635 96.544,216.115 92.732,216.437C87.086,216.914 81.076,216.18 78.316,214.936C76.446,214.45 75.006,212.301 75.006,210.299C75.006,208.818 75.762,207.51 76.912,206.733C76.019,205.982 75.452,204.863 75.452,203.614C75.452,201.355 77.307,199.521 79.591,199.521C79.992,199.521 80.38,199.577 80.748,199.683C81.366,199.78 82.012,199.896 82.679,200.03C82.743,194.833 83.509,191.161 85.524,185.302C83.391,185.02 81.743,183.211 81.743,181.025C81.743,179.283 82.788,177.781 84.292,177.1C83.461,176.351 82.94,175.272 82.94,174.075C82.94,171.816 84.794,169.982 87.079,169.982C87.161,169.982 87.268,169.162 87.371,168.114C87.627,165.544 85.884,163.203 83.35,162.71C81.846,162.422 80.331,162.169 78.796,161.95L78.799,161.913C76.66,161.636 75.006,159.825 75.006,157.634C75.006,155.937 75.998,154.468 77.439,153.763C76.573,153.013 76.026,151.911 76.026,150.684C76.026,148.425 77.881,146.591 80.165,146.591C80.566,146.591 80.954,146.647 81.322,146.753C81.962,146.853 82.631,146.974 83.323,147.115C84.259,142.587 85.01,138.657 87.055,134.605L87.058,134.616L95.522,117.977L103.461,134.737L103.511,134.737C103.666,133.179 105.283,131.952 107.252,131.952C108.881,131.952 110.27,132.793 110.788,133.966C111.198,132.8 112.441,131.952 113.908,131.952C115.228,131.952 116.365,132.638 116.88,133.623C117.497,132.632 118.768,131.952 120.234,131.952C122.203,131.952 123.819,133.179 123.974,134.737Z" style="fill:white;"/>
    </g>
    <g transform="matrix(0.624921,0,0,0.624921,-34.9582,-71.8706)">
        <path d="M75.889,214.429C75.853,214.775 75.948,215.081 76.173,215.347C76.397,215.612 76.67,215.764 76.99,215.81C76.994,215.81 76.998,215.811 77.002,215.811C79.211,216.059 81.383,216.57 83.52,217.345C83.865,217.476 84.178,217.435 84.462,217.235C84.725,217.05 84.877,216.791 84.908,216.451L84.931,216.338C84.971,215.971 84.901,215.649 84.732,215.368C84.556,215.078 84.312,214.879 84.003,214.767C81.733,213.939 79.461,213.405 77.189,213.165C76.863,213.118 76.562,213.212 76.294,213.464C76.047,213.696 75.911,213.985 75.89,214.332L75.889,214.429ZM95.436,198.932C90.53,198.932 86.547,202.915 86.547,207.821C86.547,212.727 90.53,216.71 95.436,216.71C100.342,216.71 104.325,212.727 104.325,207.821C104.325,202.915 100.342,198.932 95.436,198.932ZM106.268,201.16L106.268,209.07C106.268,213.312 109.484,216.701 113.384,216.701L113.386,216.701C117.098,216.701 120.162,213.478 120.162,209.439L120.162,201.16C120.162,200.47 119.602,199.91 118.912,199.91C118.222,199.91 117.662,200.47 117.662,201.16L117.662,209.439C117.662,212.041 115.778,214.201 113.386,214.201L113.384,214.201C110.805,214.201 108.768,211.876 108.768,209.07L108.768,201.16C108.768,200.47 108.208,199.91 107.518,199.91C106.829,199.91 106.268,200.47 106.268,201.16ZM123.422,201.16L123.422,209.07C123.422,213.312 126.638,216.701 130.537,216.701L130.539,216.701C134.251,216.701 137.315,213.478 137.315,209.439L137.315,201.16C137.315,200.47 136.755,199.91 136.065,199.91C135.376,199.91 134.815,200.47 134.815,201.16L134.815,209.439C134.815,212.041 132.931,214.201 130.539,214.201L130.538,214.201C127.958,214.201 125.922,211.876 125.922,209.07L125.922,201.16C125.922,200.47 125.362,199.91 124.672,199.91C123.982,199.91 123.422,200.47 123.422,201.16ZM149.213,214.764L157.123,214.764C161.365,214.764 164.754,211.548 164.754,207.649L164.754,207.647C164.754,203.935 161.531,200.871 157.492,200.871L149.213,200.871C148.523,200.871 147.963,201.431 147.963,202.121C147.963,202.81 148.523,203.371 149.213,203.371L157.492,203.371C160.094,203.371 162.254,205.255 162.254,207.647L162.254,207.648C162.254,210.228 159.929,212.264 157.123,212.264L149.213,212.264C148.523,212.264 147.963,212.824 147.963,213.514C147.963,214.204 148.523,214.764 149.213,214.764ZM95.436,201.71C98.809,201.71 101.547,204.448 101.547,207.821C101.547,211.194 98.809,213.932 95.436,213.932C92.063,213.932 89.325,211.194 89.325,207.821C89.325,204.448 92.063,201.71 95.436,201.71ZM56.356,209.453L56.401,209.509C56.449,209.569 56.5,209.613 56.55,209.644C56.793,209.82 57.07,209.893 57.383,209.861C57.708,209.827 57.983,209.688 58.207,209.442C58.209,209.44 58.211,209.438 58.212,209.437C59.092,208.443 60.102,207.934 61.253,207.934C62.18,207.934 63.092,208.373 64.008,209.209C64.008,209.21 64.009,209.21 64.009,209.21C65.375,210.451 66.878,211.063 68.509,211.064C70.552,211.077 72.231,210.294 73.546,208.713C73.552,208.706 73.558,208.698 73.564,208.691C73.763,208.425 73.849,208.12 73.816,207.776C73.783,207.433 73.636,207.15 73.375,206.927L73.257,206.831C73.001,206.623 72.701,206.531 72.353,206.566C72.017,206.6 71.734,206.748 71.508,207.015C71.043,207.536 70.572,207.915 70.089,208.143C69.616,208.365 69.089,208.474 68.511,208.474L68.504,208.474C67.579,208.485 66.669,208.052 65.756,207.218C65.755,207.217 65.755,207.217 65.754,207.217C64.388,205.976 62.886,205.364 61.254,205.363C59.212,205.35 57.532,206.133 56.217,207.714C56.216,207.715 56.215,207.717 56.214,207.718C56.007,207.971 55.913,208.275 55.947,208.632C55.979,208.961 56.115,209.234 56.356,209.453ZM56.504,209.609L56.484,209.594C56.491,209.599 56.497,209.604 56.504,209.609ZM76.828,206.671C76.791,207.045 76.895,207.353 77.125,207.601C77.345,207.839 77.613,207.98 77.928,208.026C77.931,208.026 77.935,208.027 77.938,208.027C79.467,208.212 81.032,208.583 82.632,209.139C82.637,209.141 82.641,209.142 82.646,209.144C82.979,209.246 83.282,209.203 83.556,209.023C83.824,208.846 83.981,208.589 84.013,208.243L84.036,208.132C84.076,207.787 84.01,207.469 83.84,207.178C83.661,206.87 83.411,206.672 83.096,206.578C81.394,205.971 79.722,205.573 78.08,205.381C78.075,205.38 78.069,205.38 78.064,205.379C77.734,205.354 77.444,205.463 77.197,205.717C76.973,205.947 76.85,206.224 76.829,206.547L76.828,206.671ZM76.431,199.396C76.477,199.132 76.599,198.901 76.8,198.704C77.055,198.454 77.347,198.349 77.671,198.374L77.677,198.374C79.566,198.55 81.544,198.948 83.61,199.569C83.919,199.659 84.175,199.846 84.371,200.137C84.564,200.422 84.643,200.739 84.605,201.09L84.602,201.168L84.604,201.149C84.576,201.499 84.418,201.766 84.138,201.955C83.855,202.146 83.549,202.193 83.219,202.092C81.309,201.534 79.42,201.161 77.553,200.975C77.547,200.975 77.541,200.974 77.535,200.973C77.225,200.928 76.955,200.79 76.727,200.555C76.529,200.351 76.416,200.105 76.393,199.814C76.389,199.775 76.387,199.736 76.387,199.696C76.387,199.588 76.403,199.486 76.431,199.396ZM84.111,201.386L84.188,201.473L84.108,201.392C84.109,201.39 84.11,201.388 84.111,201.386ZM83.219,184.903C83.183,185.249 83.278,185.555 83.504,185.821C83.727,186.086 84,186.238 84.32,186.284C84.324,186.284 84.328,186.285 84.333,186.285C86.541,186.533 88.714,187.044 90.85,187.819C91.195,187.95 91.509,187.909 91.792,187.709C92.055,187.524 92.207,187.265 92.238,186.925L92.262,186.811C92.302,186.445 92.231,186.123 92.062,185.842C91.886,185.552 91.643,185.352 91.333,185.241C89.063,184.413 86.791,183.879 84.519,183.639C84.193,183.592 83.893,183.685 83.624,183.938C83.377,184.17 83.241,184.459 83.22,184.806L83.219,184.903ZM138.083,184.903C138.047,185.249 138.142,185.555 138.367,185.821C138.591,186.086 138.864,186.238 139.183,186.284C139.188,186.284 139.192,186.285 139.196,186.285C141.405,186.533 143.577,187.044 145.714,187.819C146.059,187.95 146.372,187.909 146.656,187.709C146.918,187.524 147.07,187.265 147.102,186.925L147.125,186.811C147.165,186.445 147.095,186.123 146.925,185.842C146.75,185.552 146.506,185.352 146.196,185.241C143.926,184.413 141.655,183.879 139.383,183.639C139.056,183.592 138.756,183.685 138.487,183.938C138.241,184.17 138.105,184.459 138.083,184.806L138.083,184.903ZM139.022,177.145C138.984,177.519 139.089,177.827 139.318,178.075C139.539,178.313 139.807,178.454 140.122,178.5C140.125,178.5 140.128,178.5 140.131,178.501C141.661,178.686 143.225,179.057 144.826,179.613C144.831,179.615 144.835,179.616 144.84,179.617C145.173,179.72 145.476,179.677 145.749,179.497C146.018,179.32 146.175,179.063 146.207,178.717L146.23,178.606C146.27,178.261 146.203,177.943 146.034,177.651C145.854,177.344 145.604,177.146 145.29,177.052C143.588,176.445 141.916,176.047 140.274,175.855C140.268,175.854 140.263,175.854 140.258,175.853C139.928,175.828 139.638,175.937 139.391,176.191C139.167,176.421 139.044,176.698 139.022,177.021L139.022,177.145ZM84.158,177.145C84.121,177.519 84.226,177.827 84.455,178.075C84.675,178.313 84.944,178.454 85.259,178.5C85.262,178.5 85.265,178.5 85.268,178.501C86.797,178.686 88.362,179.057 89.963,179.613C89.967,179.615 89.972,179.616 89.976,179.617C90.31,179.72 90.612,179.677 90.886,179.497C91.154,179.32 91.311,179.063 91.343,178.717L91.366,178.606C91.406,178.261 91.34,177.943 91.17,177.651C90.991,177.344 90.741,177.146 90.426,177.052C88.725,176.445 87.053,176.047 85.41,175.855C85.405,175.854 85.399,175.854 85.394,175.853C85.065,175.828 84.774,175.937 84.527,176.191C84.303,176.421 84.18,176.698 84.159,177.021L84.158,177.145ZM138.617,169.92C138.656,169.635 138.781,169.388 138.994,169.178C139.248,168.928 139.54,168.823 139.865,168.848L139.871,168.848C141.76,169.023 143.737,169.421 145.803,170.043C146.113,170.133 146.368,170.32 146.565,170.61C146.758,170.896 146.837,171.213 146.799,171.564L146.795,171.642L146.798,171.623C146.769,171.973 146.612,172.24 146.332,172.429C146.049,172.62 145.743,172.667 145.413,172.566C143.503,172.008 141.614,171.635 139.747,171.449C139.741,171.448 139.735,171.448 139.729,171.447C139.419,171.402 139.149,171.264 138.921,171.029C138.708,170.809 138.592,170.541 138.584,170.22C138.581,170.196 138.58,170.172 138.58,170.148C138.58,170.068 138.593,169.991 138.617,169.92ZM83.754,169.92C83.792,169.635 83.917,169.388 84.13,169.178C84.385,168.928 84.677,168.823 85.001,168.848L85.008,168.848C86.896,169.023 88.874,169.421 90.94,170.043C91.249,170.133 91.505,170.32 91.701,170.61C91.894,170.896 91.973,171.213 91.935,171.564L91.932,171.642L91.934,171.623C91.906,171.973 91.749,172.24 91.469,172.429C91.186,172.62 90.879,172.667 90.549,172.566C88.639,172.008 86.751,171.635 84.884,171.449C84.878,171.448 84.872,171.448 84.866,171.447C84.555,171.402 84.285,171.264 84.058,171.029C83.845,170.81 83.729,170.541 83.72,170.22C83.718,170.196 83.717,170.172 83.717,170.148C83.717,170.068 83.73,169.991 83.754,169.92ZM126.472,168.164L126.582,168.163C126.964,168.154 127.291,168.009 127.561,167.723C127.829,167.44 127.966,167.097 127.966,166.693L127.966,162.627C127.966,162.23 127.834,161.886 127.57,161.594C127.289,161.283 126.946,161.132 126.545,161.132L125.921,161.132L125.921,145.348C125.921,144.943 125.785,144.601 125.517,144.318C125.238,144.023 124.898,143.877 124.5,143.877L115.912,143.877C115.506,143.877 115.168,144.028 114.898,144.328C114.645,144.608 114.514,144.947 114.514,145.348L114.514,146.186C114.514,148.755 114.498,150.703 114.466,152.03C114.435,153.355 114.391,154.57 114.335,155.675C114.282,156.727 114.172,157.543 113.997,158.121C113.822,158.7 113.632,159.203 113.427,159.629C113.234,160.029 112.945,160.53 112.56,161.132L112.352,161.133L112.352,161.132C111.95,161.132 111.607,161.283 111.326,161.594C111.063,161.886 110.93,162.23 110.93,162.627L110.93,166.693C110.93,167.097 111.067,167.44 111.335,167.723C111.614,168.018 111.953,168.164 112.352,168.164L112.461,168.163C112.844,168.154 113.171,168.009 113.441,167.723C113.709,167.44 113.845,167.097 113.845,166.693L113.845,163.996L125.051,163.996L125.051,166.693C125.051,167.097 125.188,167.44 125.456,167.723C125.735,168.018 126.074,168.164 126.472,168.164ZM92.28,162.324C92.906,163.227 92.953,164.13 92.292,165.033C92.02,165.405 92.101,165.928 92.473,166.201C92.845,166.473 93.368,166.392 93.641,166.02C94.775,164.471 94.727,162.922 93.653,161.372C93.391,160.993 92.869,160.899 92.49,161.161C92.111,161.424 92.017,161.945 92.28,162.324ZM97.043,162.324C97.668,163.227 97.716,164.13 97.055,165.033C96.783,165.405 96.864,165.928 97.236,166.201C97.608,166.473 98.131,166.392 98.404,166.02C99.538,164.471 99.49,162.922 98.416,161.372C98.153,160.993 97.632,160.899 97.253,161.161C96.874,161.424 96.78,161.945 97.043,162.324ZM142.176,164.593C142.177,164.648 142.187,164.696 142.203,164.737C142.302,165.069 142.467,165.305 142.68,165.46C142.909,165.628 143.199,165.708 143.558,165.675C143.563,165.675 143.568,165.674 143.574,165.674C150.089,164.834 155.208,162.998 158.936,160.185C159.187,160.002 159.342,159.739 159.384,159.386C159.423,159.052 159.35,158.757 159.171,158.499C158.983,158.228 158.732,158.066 158.419,158.009C158.099,157.952 157.812,158.017 157.556,158.202C157.554,158.203 157.552,158.204 157.551,158.205C154.028,160.83 149.204,162.514 143.086,163.274C143.082,163.275 143.078,163.275 143.074,163.276C142.769,163.323 142.52,163.482 142.335,163.765C142.161,164.031 142.111,164.307 142.176,164.593ZM76.099,161.633C76.05,161.995 76.172,162.321 76.487,162.601C76.755,162.838 77.079,162.981 77.462,163.022C77.466,163.022 77.469,163.023 77.472,163.023C80.437,163.272 83.354,163.787 86.223,164.566C86.607,164.676 86.956,164.641 87.272,164.474C87.621,164.289 87.808,164.021 87.852,163.683L87.884,163.563C87.94,163.174 87.846,162.831 87.606,162.533C87.388,162.263 87.09,162.071 86.705,161.967C83.692,161.144 80.678,160.612 77.663,160.374C77.289,160.333 76.948,160.421 76.64,160.637C76.303,160.875 76.13,161.178 76.1,161.534L76.099,161.633ZM116.083,161.132C116.742,159.801 117.14,158.485 117.282,157.186C117.439,155.75 117.522,152.268 117.526,146.742L122.838,146.742L122.838,161.132L116.083,161.132ZM142.633,157.6C142.712,157.915 142.883,158.167 143.145,158.356C143.422,158.556 143.715,158.628 144.023,158.583C149.578,157.802 153.973,156.268 157.214,153.996C157.216,153.995 157.218,153.994 157.219,153.993C157.466,153.815 157.626,153.562 157.688,153.228C157.748,152.901 157.693,152.607 157.532,152.344C157.359,152.064 157.111,151.894 156.787,151.836C156.467,151.778 156.18,151.844 155.924,152.028C152.952,154.059 148.814,155.448 143.521,156.207C143.52,156.208 143.518,156.208 143.517,156.208C143.211,156.255 142.959,156.419 142.774,156.715C142.592,157.004 142.549,157.3 142.633,157.6ZM85.5,153.78C83.246,153.177 81.031,152.781 78.855,152.59C78.85,152.59 78.846,152.589 78.842,152.589C78.464,152.567 78.133,152.669 77.849,152.888C77.541,153.125 77.382,153.416 77.353,153.748L77.352,153.874C77.301,154.266 77.433,154.593 77.754,154.853C78.018,155.066 78.338,155.197 78.715,155.238C78.717,155.238 78.72,155.239 78.722,155.239C80.778,155.425 82.882,155.799 85.034,156.359C85.038,156.36 85.042,156.361 85.045,156.362C85.42,156.449 85.76,156.41 86.067,156.259C86.422,156.084 86.613,155.818 86.657,155.475L86.689,155.358C86.745,154.991 86.657,154.652 86.416,154.342C86.194,154.057 85.891,153.866 85.5,153.78ZM144.063,151.865C144.064,151.864 144.065,151.864 144.066,151.864C149.123,151.099 153.063,149.878 155.892,148.215C156.186,148.053 156.373,147.803 156.447,147.46C156.517,147.132 156.469,146.832 156.307,146.559C156.143,146.282 155.907,146.099 155.6,146.011C155.282,145.919 154.985,145.956 154.71,146.116C152.047,147.666 148.302,148.793 143.479,149.511C143.476,149.511 143.474,149.511 143.472,149.512C143.176,149.561 142.936,149.725 142.766,150.021C142.609,150.291 142.57,150.584 142.652,150.9C142.732,151.222 142.912,151.475 143.19,151.658C143.471,151.843 143.763,151.908 144.063,151.865ZM76.817,146.622C76.872,146.338 77.033,146.086 77.318,145.877C77.611,145.661 77.944,145.562 78.318,145.584L78.323,145.584C80.829,145.758 83.452,146.154 86.193,146.773C86.574,146.855 86.883,147.034 87.125,147.301C87.397,147.603 87.501,147.942 87.448,148.313L87.444,148.394L87.446,148.377C87.407,148.725 87.215,149.004 86.843,149.192C86.524,149.354 86.179,149.395 85.807,149.31C83.244,148.748 80.71,148.374 78.204,148.187C78.2,148.186 78.195,148.186 78.191,148.185C77.818,148.145 77.496,148.017 77.223,147.806C76.903,147.559 76.755,147.248 76.767,146.879C76.768,146.787 76.785,146.701 76.817,146.622ZM102.829,141.763C100.88,141.763 99.297,143.345 99.297,145.294C99.297,147.243 100.88,148.826 102.829,148.826C104.778,148.826 106.36,147.243 106.36,145.294C106.36,143.345 104.778,141.763 102.829,141.763ZM134.655,141.763C132.706,141.763 131.124,143.345 131.124,145.294C131.124,147.243 132.706,148.826 134.655,148.826C136.604,148.826 138.186,147.243 138.186,145.294C138.186,143.345 136.604,141.763 134.655,141.763ZM134.655,144.061C135.336,144.061 135.888,144.614 135.888,145.294C135.888,145.975 135.336,146.527 134.655,146.527C133.975,146.527 133.422,145.975 133.422,145.294C133.422,144.614 133.975,144.061 134.655,144.061ZM102.829,144.061C103.509,144.061 104.062,144.614 104.062,145.294C104.062,145.975 103.509,146.527 102.829,146.527C102.148,146.527 101.596,145.975 101.596,145.294C101.596,144.614 102.148,144.061 102.829,144.061ZM115.31,132.934L115.31,135.934C115.31,136.547 115.808,137.045 116.421,137.045C117.034,137.045 117.532,136.547 117.532,135.934L117.532,132.934C117.532,132.321 117.034,131.823 116.421,131.823C115.808,131.823 115.31,132.321 115.31,132.934ZM110.126,132.934L110.126,135.934C110.126,136.547 110.623,137.045 111.237,137.045C111.85,137.045 112.348,136.547 112.348,135.934L112.348,132.934C112.348,132.321 111.85,131.823 111.237,131.823C110.623,131.823 110.126,132.321 110.126,132.934ZM88.904,135.405L95.522,121.435L102.139,135.405C102.485,136.135 103.358,136.446 104.087,136.101C104.816,135.755 105.128,134.882 104.783,134.153L96.843,117.393C96.602,116.882 96.087,116.556 95.522,116.556C94.957,116.556 94.442,116.882 94.2,117.393L86.261,134.153C85.915,134.882 86.227,135.755 86.957,136.101C87.686,136.446 88.559,136.135 88.904,135.405ZM125.395,135.405L132.012,121.435L138.63,135.405C138.975,136.135 139.848,136.446 140.577,136.101C141.307,135.755 141.619,134.882 141.273,134.153L133.334,117.393C133.092,116.882 132.577,116.556 132.012,116.556C131.447,116.556 130.933,116.882 130.691,117.393L122.751,134.153C122.406,134.882 122.718,135.755 123.447,136.101C124.177,136.446 125.049,136.135 125.395,135.405Z" style="fill-rule:nonzero;"/>
    </g>
</svg>
