<?xml version="1.0" encoding="UTF-8" standalone="no"?>
<!DOCTYPE svg PUBLIC "-//W3C//DTD SVG 1.1//EN" "http://www.w3.org/Graphics/SVG/1.1/DTD/svg11.dtd">
<svg width="68px" height="102px" version="1.1" xmlns="http://www.w3.org/2000/svg" xmlns:xlink="http://www.w3.org/1999/xlink" xml:space="preserve" xmlns:serif="http://www.serif.com/" style="fill-rule:evenodd;clip-rule:evenodd;stroke-linejoin:round;stroke-miterlimit:2;">
    <g transform="matrix(0.616688,0,0,0.616688,-33.5881,-32.8896)">
        <path d="M148.075,196.534L148.075,175.746C148.216,173.52 149.046,171.772 150.429,170.405C155.02,164.966 154.775,159.527 150.429,154.088C151.88,151.153 151.661,148.372 149.934,145.73L141.735,131.486C139.551,125.51 135.107,121.854 129.294,119.603C127.481,119.471 126.095,118.66 125.144,117.277C124.55,116.436 124.231,115.431 124.231,114.401C124.219,111.713 124.219,104.376 124.219,104.376C124.396,101.759 123.499,99.32 121.577,97.053C126.168,91.614 125.923,86.175 121.577,80.736C119.854,76.999 121.214,72.843 119.532,70.506C115.939,66.48 114.808,58.945 108.462,58.949C103.023,54.603 97.584,54.358 92.145,58.949C89.648,59.794 87.152,60.639 84.656,61.484C83.822,61.767 82.077,63.041 80.325,64.486C77.662,66.676 76.278,70.058 76.642,73.486C77.047,77.339 77.537,81.953 77.537,81.953C78.567,87.555 80.219,91.221 84.11,95.127C80.003,97.121 79.64,102.201 80.918,104.673C85.265,110.112 84.493,114.872 80.918,120.99C76.948,127.785 64.512,138.946 62.688,141.043C60.107,144.01 59.992,152.758 58.929,154.088C54.582,159.527 54.337,164.966 58.929,170.405C61.116,173.213 64.01,175.804 67.903,178.088C63.556,183.527 63.311,188.966 67.903,194.405C69.239,195.3 70.695,195.537 72.2,195.508L83.861,195.508C78.538,202.194 76.043,208.881 76.571,215.567C76.698,217.079 77.962,218.241 79.479,218.241C87.413,218.257 111.698,218.257 119.014,218.257C120.178,218.257 121.122,217.313 121.122,216.149L121.122,210.577L121.122,216.149C121.122,217.313 122.066,218.257 123.23,218.257L161.797,218.257C162.6,218.257 163.369,217.928 163.923,217.346C164.477,216.764 164.768,215.981 164.728,215.178C164.302,204.148 147.806,199.499 148.075,196.534ZM127.474,193.288C127.045,190.033 124.262,185.348 123.613,180.747C123.536,178.924 122.035,177.486 120.211,177.486L120.211,177.417C118.285,177.417 116.704,178.942 116.636,180.867C116.259,185.877 114.214,191.058 113.115,193.288C111.549,196.466 113.916,200.407 115.459,203.289C116.912,206.001 121.122,210.577 121.122,210.577C121.122,210.577 125.237,205.263 126.43,202.428C127.644,199.546 127.916,196.636 127.474,193.288Z" style="fill:white;"/>
    </g>
    <g transform="matrix(0.616688,0,0,0.616688,-33.4932,-32.768)">
        <path d="M136.326,217.138C137.267,216.21 137.745,214.959 137.745,213.378C137.745,211.797 137.267,210.543 136.327,209.61C135.386,208.677 134.136,208.203 132.571,208.203C131.006,208.203 129.756,208.677 128.815,209.61C127.875,210.543 127.397,211.797 127.397,213.378C127.397,214.959 127.875,216.21 128.816,217.138C129.756,218.064 131.006,218.535 132.571,218.535C134.136,218.535 135.386,218.064 136.326,217.138ZM104.737,217.138C105.677,218.064 106.927,218.535 108.492,218.535C110.057,218.535 111.307,218.064 112.247,217.138C113.188,216.21 113.666,214.959 113.666,213.378C113.666,211.797 113.188,210.543 112.248,209.61C111.307,208.677 110.057,208.203 108.492,208.203C106.927,208.203 105.677,208.677 104.736,209.61C103.796,210.543 103.318,211.797 103.318,213.378C103.318,214.959 103.796,216.21 104.737,217.138ZM94.7,218.358L94.745,218.358C95.001,218.353 95.218,218.27 95.399,218.114C95.598,217.942 95.7,217.719 95.7,217.444L95.7,212.476C95.7,211.473 95.825,210.771 96.114,210.378C96.381,210.016 96.838,209.855 97.47,209.855C97.992,209.855 98.46,210.145 98.89,210.694C99.347,211.277 99.573,211.978 99.573,212.794L99.573,217.444C99.573,217.701 99.67,217.92 99.869,218.1C100.057,218.271 100.284,218.358 100.553,218.358L100.611,218.358C100.878,218.358 101.103,218.275 101.29,218.114C101.489,217.942 101.591,217.719 101.591,217.444L101.591,209.294C101.591,209.052 101.496,208.837 101.295,208.655C101.106,208.484 100.882,208.398 100.621,208.398C100.367,208.398 100.138,208.48 99.937,208.647C99.715,208.831 99.612,209.049 99.612,209.294L99.612,209.435C98.909,208.62 98.076,208.214 97.122,208.203L97.119,208.203C95.83,208.203 94.886,208.729 94.285,209.779C93.545,208.739 92.538,208.215 91.27,208.203L91.267,208.203C90.09,208.203 89.232,208.535 88.679,209.164C88.137,209.781 87.849,210.758 87.849,212.105L87.849,217.444C87.849,217.701 87.946,217.92 88.145,218.1C88.333,218.271 88.56,218.358 88.829,218.358L88.893,218.358C89.149,218.353 89.366,218.27 89.547,218.114C89.746,217.942 89.848,217.719 89.848,217.444L89.848,212.476C89.848,211.461 89.97,210.756 90.253,210.369C90.513,210.012 90.967,209.855 91.599,209.855C92.156,209.855 92.637,210.115 93.052,210.62C93.487,211.149 93.701,211.798 93.701,212.565L93.701,217.444C93.701,217.702 93.802,217.923 94.012,218.104C94.206,218.273 94.435,218.358 94.7,218.358ZM163.523,218.358L163.593,218.358C163.85,218.352 164.069,218.265 164.251,218.1C164.45,217.92 164.548,217.701 164.548,217.444L164.548,212.6C164.548,211.09 164.231,209.989 163.632,209.29C163.019,208.576 162.085,208.203 160.817,208.203C160.069,208.203 159.362,208.379 158.697,208.731C158.239,208.973 157.839,209.276 157.499,209.638L157.486,209.287C157.484,209.047 157.388,208.835 157.19,208.655C157.001,208.484 156.777,208.398 156.516,208.398C156.255,208.398 156.03,208.484 155.842,208.655C155.641,208.837 155.545,209.052 155.545,209.294L155.545,217.444C155.545,217.719 155.647,217.942 155.847,218.114C156.033,218.275 156.259,218.358 156.525,218.358L156.609,218.358C156.867,218.352 157.086,218.265 157.268,218.1C157.467,217.92 157.564,217.701 157.564,217.444L157.564,213.042C157.564,212.205 157.859,211.467 158.447,210.826C159.024,210.196 159.655,209.873 160.349,209.873C161.153,209.873 161.728,210.05 162.055,210.451C162.398,210.871 162.548,211.626 162.548,212.706L162.548,217.444C162.548,217.72 162.654,217.945 162.864,218.118C163.051,218.272 163.271,218.353 163.523,218.358ZM152.17,218.358L152.259,218.358C152.517,218.352 152.736,218.265 152.918,218.1C153.117,217.92 153.214,217.701 153.214,217.444L153.214,212.105C153.214,210.758 152.926,209.781 152.384,209.164C151.831,208.535 150.972,208.203 149.796,208.203L149.793,208.203C148.524,208.215 147.518,208.739 146.778,209.779C146.177,208.729 145.232,208.203 143.943,208.203L143.94,208.203C142.986,208.214 142.154,208.62 141.451,209.435L141.451,209.294C141.451,209.049 141.348,208.831 141.126,208.647C140.925,208.48 140.696,208.398 140.442,208.398C140.181,208.398 139.957,208.484 139.768,208.655C139.567,208.837 139.472,209.052 139.472,209.294L139.472,217.444C139.472,217.719 139.573,217.942 139.773,218.114C139.959,218.275 140.185,218.358 140.452,218.358L140.535,218.358C140.793,218.352 141.012,218.265 141.194,218.1C141.393,217.92 141.49,217.701 141.49,217.444L141.49,212.794C141.49,211.978 141.716,211.277 142.172,210.694C142.603,210.145 143.071,209.855 143.592,209.855C144.225,209.855 144.682,210.016 144.949,210.378C145.238,210.771 145.363,211.473 145.363,212.476L145.363,217.444C145.363,217.719 145.465,217.942 145.664,218.114C145.845,218.27 146.062,218.353 146.318,218.358L146.387,218.358C146.642,218.352 146.863,218.267 147.051,218.104C147.26,217.923 147.362,217.702 147.362,217.444L147.362,212.565C147.362,211.798 147.576,211.149 148.011,210.62C148.425,210.115 148.907,209.855 149.464,209.855C150.095,209.855 150.55,210.012 150.81,210.369C151.093,210.756 151.215,211.461 151.215,212.476L151.215,217.444C151.215,217.719 151.317,217.942 151.516,218.114C151.697,218.27 151.914,218.353 152.17,218.358ZM77.495,218.358L77.539,218.358C77.792,218.353 78.012,218.272 78.199,218.118C78.409,217.945 78.514,217.72 78.514,217.444L78.514,212.706C78.514,211.626 78.665,210.871 79.008,210.451C79.335,210.05 79.909,209.873 80.714,209.873C81.408,209.873 82.039,210.196 82.616,210.826C83.204,211.467 83.499,212.205 83.499,213.042L83.499,217.444C83.499,217.701 83.596,217.92 83.795,218.1C83.983,218.271 84.21,218.358 84.479,218.358L84.537,218.358C84.804,218.358 85.03,218.275 85.216,218.114C85.416,217.942 85.517,217.719 85.517,217.444L85.517,209.294C85.517,209.052 85.422,208.837 85.221,208.655C85.032,208.484 84.808,208.398 84.547,208.398C84.286,208.398 84.062,208.484 83.873,208.655C83.674,208.835 83.579,209.047 83.577,209.287L83.564,209.638C83.224,209.276 82.824,208.973 82.365,208.731C81.7,208.379 80.994,208.203 80.246,208.203C78.978,208.203 78.043,208.576 77.431,209.29C76.831,209.989 76.515,211.09 76.515,212.6L76.515,217.444C76.515,217.701 76.613,217.92 76.811,218.1C76.999,218.271 77.227,218.358 77.495,218.358ZM126.705,201.983L126.652,201.981C126.314,201.974 125.977,202.122 125.753,202.41L120.968,208.569L116.183,202.41C115.807,201.926 115.108,201.838 114.624,202.214C114.139,202.59 114.052,203.289 114.428,203.773L119.857,210.761L119.857,216.823C119.857,217.437 120.355,217.934 120.968,217.934C121.581,217.934 122.079,217.437 122.079,216.823L122.079,210.761L127.508,203.773C127.885,203.289 127.797,202.591 127.312,202.214C127.131,202.073 126.919,201.997 126.705,201.983ZM134.852,210.763C135.416,211.383 135.687,212.254 135.687,213.369C135.687,214.484 135.415,215.359 134.852,215.985C134.298,216.6 133.536,216.901 132.571,216.901C131.606,216.901 130.844,216.6 130.29,215.985C129.726,215.359 129.454,214.484 129.454,213.369C129.454,212.254 129.726,211.383 130.289,210.763C130.843,210.153 131.606,209.855 132.571,209.855C133.536,209.855 134.298,210.153 134.852,210.763ZM106.21,210.763C106.764,210.153 107.527,209.855 108.492,209.855C109.457,209.855 110.219,210.153 110.773,210.763C111.337,211.383 111.608,212.254 111.608,213.369C111.608,214.484 111.337,215.359 110.773,215.985C110.219,216.6 109.457,216.901 108.492,216.901C107.527,216.901 106.765,216.6 106.211,215.985C105.647,215.359 105.375,214.484 105.375,213.369C105.375,212.254 105.647,211.383 106.21,210.763ZM146.81,175.549L146.81,196.337C146.81,196.95 147.308,197.448 147.921,197.448C148.534,197.448 149.032,196.95 149.032,196.337L149.032,175.549C149.032,174.936 148.534,174.438 147.921,174.438C147.308,174.438 146.81,174.936 146.81,175.549ZM83.707,194.2L72.046,194.2C71.433,194.2 70.935,194.698 70.935,195.311C70.935,195.924 71.433,196.422 72.046,196.422L83.707,196.422C84.32,196.422 84.818,195.924 84.818,195.311C84.818,194.698 84.32,194.2 83.707,194.2ZM66.881,177.197C64.529,180.139 63.319,183.095 63.286,186.037C63.253,188.995 64.402,191.966 66.899,194.925C67.295,195.393 67.997,195.452 68.465,195.057C68.934,194.661 68.993,193.96 68.598,193.491C66.503,191.01 65.48,188.543 65.508,186.062C65.536,183.565 66.621,181.081 68.617,178.584C68.999,178.105 68.921,177.406 68.442,177.023C67.963,176.64 67.263,176.718 66.881,177.197ZM115.379,178.745C115.134,184.312 114.038,188.091 110.792,192.4C110.41,192.906 110.512,193.627 111.018,194.009C111.525,194.39 112.246,194.289 112.627,193.782C116.18,189.066 117.406,184.939 117.675,178.846C117.703,178.212 117.212,177.675 116.578,177.647C115.944,177.619 115.407,178.111 115.379,178.745ZM122.281,178.846C122.55,184.939 123.776,189.066 127.329,193.782C127.711,194.289 128.432,194.39 128.939,194.009C129.445,193.627 129.547,192.906 129.165,192.4C125.919,188.091 124.823,184.312 124.577,178.745C124.549,178.111 124.012,177.619 123.379,177.647C122.745,177.675 122.253,178.212 122.281,178.846ZM85.028,179.649C86.106,185.51 87.846,189.338 91.917,193.426C92.365,193.875 93.093,193.877 93.542,193.429C93.992,192.981 93.993,192.253 93.546,191.804C89.834,188.078 88.271,184.576 87.288,179.233C87.173,178.609 86.574,178.196 85.95,178.311C85.326,178.425 84.913,179.025 85.028,179.649ZM101.91,166.675L104.668,166.271C105.122,166.189 105.437,166.098 105.589,165.934C105.715,165.798 105.762,165.605 105.762,165.368C105.762,165.059 105.654,164.79 105.44,164.559C104.758,163.821 103.486,163.302 101.646,162.95C100.986,163.155 100.28,163.258 99.525,163.258C98.869,163.258 98.386,163.057 98.057,162.702C97.812,162.436 97.708,162.161 97.708,161.895C97.708,161.628 97.812,161.354 98.057,161.088C98.203,160.93 98.424,160.792 98.733,160.697C99.082,160.59 99.57,160.531 100.196,160.531C101.036,160.531 101.682,160.472 102.135,160.345C102.351,160.284 102.513,160.219 102.606,160.118C102.868,159.835 103.002,159.513 103.002,159.149C103.002,158.831 102.863,158.538 102.606,158.26C102.189,157.807 101.523,157.525 100.626,157.377C99.813,157.694 99.098,157.847 98.481,157.847C97.595,157.847 97.043,157.645 96.79,157.371C96.544,157.105 96.44,156.83 96.44,156.564C96.44,156.273 96.536,156.032 96.715,155.838C97.126,155.393 97.904,155.119 99.078,155.119C99.514,155.119 99.863,155.097 100.127,155.047C100.278,155.018 100.391,155.006 100.444,154.949C100.463,154.928 100.467,154.9 100.467,154.868C100.467,154.798 100.476,154.741 100.444,154.706C100.389,154.646 100.279,154.619 100.134,154.581C99.895,154.52 99.583,154.479 99.197,154.454C99.197,154.454 98.747,154.446 98.244,154.438C97.908,154.432 97.593,154.277 97.384,154.015C97.174,153.754 97.092,153.413 97.159,153.084C97.169,153.035 97.179,152.986 97.189,152.937C97.298,152.409 97.766,152.031 98.306,152.037C98.895,152.044 99.548,152.051 99.548,152.051C100.838,152.112 101.812,152.524 102.485,153.253C102.742,153.532 102.909,154.009 102.909,154.706C102.909,155.107 102.815,155.461 102.625,155.77C103.549,156.102 104.246,156.533 104.722,157.049C105.2,157.567 105.445,158.211 105.445,158.987C105.445,159.998 105.13,160.805 104.505,161.411C105.793,161.887 106.757,162.484 107.407,163.187C107.872,163.692 108.129,164.44 108.129,165.448C108.129,166.276 107.861,166.975 107.332,167.548C106.879,168.038 106.125,168.398 105.049,168.582L102.128,169.069C101.823,169.106 101.614,169.137 101.515,169.244C101.462,169.301 101.418,169.349 101.418,169.406C101.418,169.475 101.409,169.533 101.441,169.568C101.489,169.62 101.572,169.646 101.675,169.672C101.855,169.718 102.083,169.738 102.359,169.738C102.995,169.738 103.652,169.588 104.333,169.293L104.333,169.292C104.63,169.173 104.963,169.185 105.249,169.327C105.535,169.47 105.747,169.727 105.83,170.035C105.831,170.036 105.831,170.037 105.831,170.038C106.001,170.663 105.669,171.315 105.065,171.546L105.064,171.546C104.155,171.893 103.352,172.062 102.657,172.062C101.242,172.062 100.264,171.715 99.698,171.101C99.217,170.58 98.975,169.961 98.975,169.244C98.975,168.639 99.189,168.1 99.623,167.63C100.021,167.199 100.774,166.86 101.91,166.675ZM113.25,154.585C115.246,157.081 116.331,159.565 116.359,162.062C116.387,164.543 115.364,167.01 113.269,169.491C112.874,169.96 112.933,170.661 113.402,171.057C113.87,171.453 114.572,171.393 114.968,170.925C117.465,167.966 118.614,164.995 118.581,162.037C118.548,159.095 117.338,156.139 114.986,153.197C114.604,152.718 113.904,152.64 113.425,153.023C112.946,153.406 112.868,154.105 113.25,154.585ZM57.907,153.197C55.555,156.139 54.345,159.095 54.312,162.037C54.279,164.995 55.429,167.966 57.926,170.925C58.321,171.393 59.023,171.453 59.491,171.057C59.96,170.661 60.019,169.96 59.624,169.491C57.53,167.01 56.506,164.543 56.534,162.062C56.562,159.565 57.647,157.081 59.643,154.585C60.026,154.105 59.947,153.406 59.468,153.023C58.989,152.64 58.29,152.718 57.907,153.197ZM149.407,154.585C151.402,157.081 152.487,159.565 152.515,162.062C152.543,164.543 151.52,167.01 149.426,169.491C149.03,169.96 149.089,170.661 149.558,171.057C150.027,171.453 150.728,171.393 151.124,170.925C153.621,167.966 154.771,164.995 154.738,162.037C154.704,159.095 153.494,156.139 151.143,153.197C150.76,152.718 150.06,152.64 149.581,153.023C149.102,153.406 149.024,154.105 149.407,154.585ZM87.646,153.197C85.294,156.139 84.084,159.095 84.051,162.037C84.018,164.995 85.168,167.966 87.665,170.925C88.06,171.393 88.762,171.453 89.23,171.057C89.699,170.661 89.758,169.96 89.363,169.491C87.269,167.01 86.245,164.543 86.273,162.062C86.301,159.565 87.386,157.081 89.382,154.585C89.764,154.105 89.686,153.406 89.207,153.023C88.728,152.64 88.029,152.718 87.646,153.197ZM137.88,168.351C138.227,168.351 138.523,168.221 138.766,167.955C138.995,167.705 139.109,167.411 139.109,167.073C139.109,166.716 138.983,166.425 138.741,166.194C138.504,165.969 138.218,165.854 137.88,165.854L121.944,165.854C121.607,165.854 121.32,165.969 121.084,166.194C120.842,166.425 120.716,166.716 120.716,167.073C120.716,167.411 120.83,167.705 121.058,167.955C121.301,168.221 121.597,168.351 121.944,168.351L137.88,168.351ZM81.478,168.351C81.825,168.351 82.121,168.221 82.364,167.955C82.592,167.705 82.706,167.411 82.706,167.073C82.706,166.716 82.58,166.425 82.338,166.194C82.102,165.969 81.816,165.854 81.478,165.854L65.542,165.854C65.204,165.854 64.918,165.969 64.681,166.194C64.439,166.425 64.313,166.716 64.313,167.073C64.313,167.411 64.427,167.705 64.656,167.955C64.899,168.221 65.195,168.351 65.542,168.351L81.478,168.351ZM79.535,153.549L67.485,153.549C67.141,153.549 66.847,153.674 66.607,153.927C66.372,154.172 66.256,154.463 66.256,154.797C66.256,155.129 66.367,155.416 66.588,155.659C66.819,155.913 67.116,156.046 67.485,156.046L79.535,156.046C79.879,156.046 80.172,155.921 80.413,155.668C80.647,155.423 80.764,155.132 80.764,154.797C80.764,154.463 80.647,154.172 80.413,153.927C80.172,153.674 79.879,153.549 79.535,153.549ZM135.937,153.549L123.887,153.549C123.543,153.549 123.25,153.674 123.009,153.927C122.775,154.172 122.659,154.463 122.659,154.797C122.659,155.129 122.77,155.416 122.991,155.659C123.221,155.913 123.518,156.046 123.887,156.046L135.937,156.046C136.282,156.046 136.575,155.921 136.816,155.668C137.05,155.423 137.166,155.132 137.166,154.797C137.166,154.463 137.05,154.172 136.816,153.927C136.575,153.674 136.282,153.549 135.937,153.549ZM140.585,131.862L148.784,146.106C149.1,146.656 149.803,146.845 150.353,146.529C150.903,146.212 151.092,145.509 150.776,144.96L142.577,130.716C142.26,130.166 141.557,129.977 141.007,130.293C140.458,130.609 140.268,131.312 140.585,131.862ZM103.985,135.799L108.766,129.646C109.142,129.162 109.84,129.074 110.325,129.45C110.807,129.826 110.896,130.521 110.524,131.005L110.53,131.01L105.101,137.997L105.101,144.06C105.101,144.673 104.603,145.171 103.99,145.171L103.98,145.171C103.367,145.171 102.869,144.673 102.869,144.06L102.869,137.997L97.44,131.01L97.446,131.005C97.074,130.521 97.162,129.826 97.645,129.45C98.13,129.074 98.828,129.162 99.204,129.646L103.985,135.799ZM70.034,133.053C67.081,135.033 63.624,138.034 61.719,140.091C61.302,140.541 61.329,141.244 61.779,141.661C62.229,142.078 62.932,142.051 63.349,141.601C65.164,139.642 68.458,136.785 71.272,134.899C71.781,134.557 71.918,133.867 71.576,133.357C71.235,132.848 70.544,132.711 70.034,133.053ZM136.966,131.136C134.024,128.785 131.069,127.574 128.127,127.541C125.168,127.508 122.197,128.658 119.239,131.155C118.77,131.551 118.711,132.252 119.107,132.721C119.502,133.189 120.204,133.249 120.672,132.853C123.153,130.759 125.621,129.735 128.102,129.763C130.599,129.791 133.082,130.877 135.579,132.872C136.058,133.255 136.758,133.177 137.141,132.698C137.524,132.219 137.445,131.519 136.966,131.136ZM94.69,131.136C91.747,128.785 88.792,127.574 85.85,127.541C82.892,127.508 79.92,128.658 76.962,131.155C76.494,131.551 76.434,132.252 76.83,132.721C77.225,133.189 77.927,133.249 78.396,132.853C80.877,130.759 83.344,129.735 85.825,129.763C88.322,129.791 90.806,130.877 93.302,132.872C93.781,133.255 94.481,133.177 94.864,132.698C95.247,132.219 95.169,131.519 94.69,131.136ZM97.268,117.527L96.408,117.527C96.1,117.527 95.84,117.631 95.624,117.835C95.402,118.046 95.294,118.296 95.294,118.583L95.294,121.95C95.294,122.241 95.404,122.489 95.629,122.692C95.843,122.886 96.102,122.985 96.408,122.985L96.477,122.985C96.783,122.985 97.042,122.886 97.256,122.692C97.481,122.489 97.591,122.241 97.591,121.95L97.591,119.535L108.924,119.535L108.924,121.95C108.924,122.241 109.034,122.489 109.259,122.692C109.473,122.886 109.732,122.985 110.037,122.985L110.107,122.985C110.413,122.985 110.672,122.886 110.886,122.692C111.11,122.489 111.221,122.241 111.221,121.95L111.221,118.583C111.221,118.296 111.112,118.046 110.89,117.835C110.675,117.631 110.414,117.527 110.107,117.527L109.751,117.527C109.338,116.976 109.03,116.522 108.828,116.164C108.626,115.805 108.44,115.381 108.268,114.893C108.096,114.406 107.987,113.719 107.935,112.833C107.881,111.917 107.838,110.91 107.807,109.812C107.777,108.712 107.761,107.098 107.761,104.97L107.761,104.275C107.761,103.986 107.655,103.74 107.443,103.537C107.236,103.341 106.98,103.24 106.671,103.24L98.381,103.24C98.076,103.24 97.817,103.339 97.603,103.533C97.378,103.736 97.268,103.984 97.268,104.275L97.268,117.527ZM79.896,105.17C81.892,107.667 82.977,110.15 83.005,112.647C83.033,115.128 82.009,117.596 79.915,120.077C79.52,120.545 79.579,121.247 80.047,121.642C80.516,122.038 81.218,121.979 81.613,121.51C84.11,118.552 85.26,115.58 85.227,112.622C85.194,109.68 83.984,106.725 81.632,103.783C81.249,103.303 80.55,103.225 80.07,103.608C79.591,103.991 79.513,104.691 79.896,105.17ZM122.954,104.179L122.954,114.204C122.954,115.465 123.344,116.696 124.071,117.727C125.225,119.376 126.885,120.356 129.06,120.514C129.671,120.559 130.204,120.098 130.249,119.486C130.293,118.875 129.833,118.342 129.221,118.298C127.771,118.192 126.659,117.55 125.89,116.451C125.889,116.449 125.888,116.448 125.887,116.447C125.424,115.791 125.176,115.007 125.176,114.204L125.176,104.179C125.176,103.566 124.678,103.068 124.065,103.068C123.452,103.068 122.954,103.566 122.954,104.179ZM105.371,105.247C105.373,109.921 105.452,112.86 105.606,114.063C105.751,115.202 106.179,116.358 106.893,117.527L99.727,117.527L99.727,105.247L105.371,105.247ZM120.555,81.232C122.55,83.729 123.635,86.213 123.663,88.71C123.691,91.191 122.668,93.658 120.574,96.139C120.178,96.608 120.237,97.309 120.706,97.705C121.175,98.1 121.876,98.041 122.272,97.572C124.769,94.614 125.919,91.643 125.886,88.685C125.852,85.742 124.642,82.787 122.291,79.845C121.908,79.366 121.208,79.288 120.729,79.671C120.25,80.054 120.172,80.753 120.555,81.232ZM76.253,81.964C77.331,87.825 79.071,91.654 83.142,95.741C83.59,96.191 84.318,96.192 84.767,95.744C85.217,95.297 85.218,94.569 84.771,94.119C81.059,90.393 79.496,86.891 78.513,81.548C78.398,80.925 77.799,80.511 77.175,80.626C76.551,80.741 76.138,81.34 76.253,81.964ZM88.393,77.705C87.033,77.705 85.928,78.81 85.928,80.17C85.928,81.53 87.033,82.635 88.393,82.635C89.753,82.635 90.858,81.53 90.858,80.17C90.858,78.81 89.753,77.705 88.393,77.705ZM115.747,77.705C114.387,77.705 113.282,78.81 113.282,80.17C113.282,81.53 114.387,82.635 115.747,82.635C117.107,82.635 118.212,81.53 118.212,80.17C118.212,78.81 117.107,77.705 115.747,77.705ZM115.747,79.372C116.188,79.372 116.545,79.73 116.545,80.17C116.545,80.611 116.188,80.968 115.747,80.968C115.307,80.968 114.949,80.611 114.949,80.17C114.949,79.73 115.307,79.372 115.747,79.372ZM88.393,79.372C88.834,79.372 89.191,79.73 89.191,80.17C89.191,80.611 88.834,80.968 88.393,80.968C87.953,80.968 87.595,80.611 87.595,80.17C87.595,79.73 87.953,79.372 88.393,79.372ZM112.227,77.088L91.923,77.088C91.463,77.088 91.089,77.461 91.089,77.921C91.089,78.381 91.463,78.755 91.923,78.755L112.227,78.755C112.687,78.755 113.061,78.381 113.061,77.921C113.061,77.461 112.687,77.088 112.227,77.088ZM111.674,57.343C112.752,63.204 114.493,67.033 118.564,71.12C119.011,71.569 119.74,71.571 120.189,71.123C120.638,70.676 120.64,69.948 120.192,69.498C116.481,65.772 114.917,62.27 113.935,56.927C113.82,56.304 113.22,55.89 112.597,56.005C111.973,56.12 111.56,56.719 111.674,57.343ZM83.883,60.364C80.93,62.344 77.473,65.346 75.568,67.402C75.151,67.852 75.178,68.556 75.628,68.972C76.078,69.389 76.781,69.362 77.198,68.912C79.012,66.953 82.307,64.096 85.121,62.21C85.63,61.869 85.766,61.178 85.425,60.668C85.084,60.159 84.393,60.023 83.883,60.364ZM109.001,57.884C106.059,55.533 103.104,54.323 100.162,54.29C97.203,54.256 94.232,55.406 91.274,57.903C90.805,58.299 90.746,59 91.142,59.469C91.537,59.938 92.239,59.997 92.707,59.601C95.188,57.507 97.656,56.484 100.137,56.512C102.633,56.54 105.117,57.625 107.614,59.62C108.093,60.003 108.793,59.925 109.176,59.446C109.559,58.967 109.48,58.267 109.001,57.884Z" style="fill-opacity:0.9;"/>
    </g>
</svg>
