<?xml version="1.0" encoding="UTF-8" standalone="no"?>
<!DOCTYPE svg PUBLIC "-//W3C//DTD SVG 1.1//EN" "http://www.w3.org/Graphics/SVG/1.1/DTD/svg11.dtd">
<svg width="45px" height="85px" version="1.1" xmlns="http://www.w3.org/2000/svg" xmlns:xlink="http://www.w3.org/1999/xlink" xml:space="preserve" xmlns:serif="http://www.serif.com/" style="fill-rule:evenodd;clip-rule:evenodd;stroke-linejoin:round;stroke-miterlimit:2;">
    <g transform="matrix(0.597002,0,0,0.597002,-710.463,-220.03)">
        <path d="M1201.37,482.357L1201.37,457.507C1198.28,454.594 1196.68,452.698 1195.56,451.132C1190.16,443.763 1190.45,436.394 1195.56,429.025C1197.83,426.841 1197.82,424.048 1195.56,421.159C1190.16,413.79 1189.78,406.421 1194.88,399.052L1199,389L1208,370L1217,389C1220.73,388.67 1223.81,388.723 1226.53,389L1235.53,370L1244.53,389L1249.09,399.052C1254.19,406.421 1253.77,413.79 1248.38,421.159C1246.96,422.522 1245.61,423.697 1244.31,424.741C1243.51,425.371 1243.37,426.522 1243.99,427.325C1249.12,434.107 1250.86,443.753 1244.27,450.721C1244.27,450.721 1242,453.232 1240.47,454.923C1239.59,455.891 1239.1,457.15 1239.1,458.456L1239.1,482.357L1239.24,493.422L1239.24,502.807C1239.24,506.571 1236.43,509.622 1232.97,509.622C1229.3,509.622 1226.32,506.383 1226.32,502.388L1226.32,495.458C1226.32,492.551 1223.96,490.195 1221.06,490.195L1220.95,490.195C1219.55,490.195 1218.21,490.749 1217.23,491.736C1216.24,492.724 1215.68,494.062 1215.68,495.458L1215.68,502.807C1215.68,506.571 1212.88,509.622 1209.42,509.622C1205.75,509.622 1202.51,506.383 1202.51,502.388L1202.51,496.816C1202.36,493.676 1202.12,486.711 1201.37,482.357Z" style="fill:white;"/>
    </g>
    <g transform="matrix(0.628461,0,0,0.628461,-46.3369,-52.252)">
        <path d="M92.133,218.394L92.318,218.392C96.182,218.287 99.335,214.897 99.335,210.671L99.335,201.755C99.335,201.066 98.775,200.506 98.085,200.506C97.396,200.506 96.836,201.066 96.836,201.755L96.836,210.671C96.836,213.528 94.761,215.895 92.134,215.895L92.127,215.895C89.304,215.895 87.066,213.35 87.066,210.273L87.066,201.755C87.066,201.066 86.506,200.506 85.816,200.506C85.126,200.506 84.566,201.066 84.566,201.755L84.566,210.273C84.566,214.786 87.983,218.394 92.133,218.394ZM114.505,218.394L114.691,218.392C118.554,218.287 121.708,214.897 121.708,210.671L121.708,201.755C121.708,201.066 121.148,200.506 120.458,200.506C119.768,200.506 119.208,201.066 119.208,201.755L119.208,210.671C119.208,213.528 117.133,215.895 114.506,215.895L114.505,215.895C111.676,215.895 109.438,213.35 109.438,210.273L109.438,201.755C109.438,201.066 108.878,200.506 108.188,200.506C107.499,200.506 106.939,201.066 106.939,201.755L106.939,210.273C106.939,214.786 110.356,218.394 114.505,218.394ZM121.479,191.246L121.479,167.639C121.479,167.006 120.965,166.492 120.332,166.492C119.699,166.492 119.185,167.006 119.185,167.639L119.185,191.246C119.185,191.879 119.699,192.393 120.332,192.393C120.965,192.393 121.479,191.879 121.479,191.246ZM85.634,191.246L85.634,167.639C85.634,167.006 85.119,166.492 84.486,166.492C83.853,166.492 83.339,167.006 83.339,167.639L83.339,191.246C83.339,191.879 83.853,192.393 84.486,192.393C85.119,192.393 85.634,191.879 85.634,191.246ZM126.598,182.115L126.649,182.177C126.696,182.236 126.746,182.279 126.794,182.31C127.049,182.496 127.34,182.574 127.669,182.54C128.008,182.505 128.295,182.36 128.529,182.103C128.531,182.101 128.533,182.099 128.534,182.098C129.491,181.018 130.589,180.465 131.84,180.465C132.848,180.465 133.84,180.94 134.836,181.85L134.837,181.851C136.3,183.179 137.908,183.835 139.655,183.836C141.841,183.85 143.638,183.012 145.046,181.319C145.052,181.312 145.058,181.305 145.064,181.297C145.272,181.019 145.362,180.701 145.327,180.342C145.293,179.984 145.139,179.688 144.866,179.454L144.741,179.353C144.474,179.136 144.161,179.041 143.799,179.077C143.446,179.112 143.151,179.267 142.915,179.547C142.411,180.112 141.899,180.524 141.374,180.771C140.859,181.013 140.286,181.132 139.656,181.132L139.65,181.132C138.644,181.144 137.654,180.675 136.661,179.768L136.66,179.767C135.197,178.438 133.588,177.782 131.842,177.782C129.655,177.768 127.858,178.606 126.45,180.298C126.449,180.299 126.448,180.301 126.447,180.302C126.231,180.566 126.133,180.883 126.169,181.255C126.202,181.599 126.345,181.886 126.598,182.115ZM126.752,182.278L126.732,182.262C126.739,182.268 126.745,182.273 126.752,182.278ZM121.479,162.69L121.479,139.083C121.479,138.45 120.965,137.936 120.332,137.936C119.699,137.936 119.185,138.45 119.185,139.083L119.185,162.69C119.185,163.323 119.699,163.837 120.332,163.837C120.965,163.837 121.479,163.323 121.479,162.69ZM85.634,162.69L85.634,139.083C85.634,138.45 85.119,137.936 84.486,137.936C83.853,137.936 83.339,138.45 83.339,139.083L83.339,162.69C83.339,163.323 83.853,163.837 84.486,163.837C85.119,163.837 85.634,163.323 85.634,162.69ZM77.764,139.751C72.52,147.316 72.247,154.881 77.786,162.446C78.262,163.096 79.176,163.237 79.826,162.761C80.476,162.285 80.618,161.371 80.142,160.721C75.43,154.285 75.703,147.85 80.164,141.415C80.623,140.753 80.458,139.842 79.796,139.383C79.133,138.924 78.223,139.089 77.764,139.751ZM124.039,141.025C128.5,147.46 128.773,153.895 124.061,160.331C123.585,160.981 123.726,161.895 124.377,162.371C125.027,162.847 125.941,162.706 126.417,162.056C131.955,154.491 131.682,146.926 126.439,139.361C125.98,138.699 125.07,138.534 124.407,138.993C123.745,139.452 123.58,140.363 124.039,141.025ZM109.078,136.389L109.233,136.389C109.634,136.38 109.976,136.227 110.259,135.928C110.54,135.631 110.683,135.272 110.683,134.848L110.683,130.47C110.683,130.053 110.544,129.691 110.267,129.385C109.973,129.06 109.614,128.901 109.194,128.901L108.481,128.901L108.481,111.862C108.481,111.437 108.338,111.078 108.057,110.782C107.765,110.473 107.409,110.32 106.992,110.32L97.744,110.32C97.32,110.32 96.967,110.477 96.684,110.791C96.418,111.085 96.281,111.441 96.281,111.862L96.281,112.764C96.281,115.532 96.264,117.63 96.23,119.059C96.196,120.486 96.148,121.794 96.088,122.985C96.03,124.122 95.911,125.004 95.722,125.629C95.533,126.255 95.328,126.798 95.106,127.259C94.896,127.695 94.579,128.242 94.158,128.901L93.91,128.901C93.49,128.901 93.131,129.06 92.837,129.385C92.561,129.691 92.422,130.053 92.422,130.47L92.422,134.848C92.422,135.272 92.565,135.631 92.846,135.928C93.129,136.227 93.471,136.38 93.871,136.389L94.027,136.389C94.427,136.38 94.769,136.227 95.052,135.928C95.333,135.631 95.476,135.272 95.476,134.848L95.476,131.901L107.628,131.901L107.628,134.848C107.628,135.272 107.771,135.631 108.052,135.928C108.335,136.227 108.677,136.38 109.078,136.389ZM127.94,112.942C132.401,119.378 132.674,125.813 127.962,132.248C127.486,132.898 127.627,133.813 128.278,134.289C128.928,134.765 129.842,134.623 130.318,133.973C135.856,126.408 135.583,118.844 130.34,111.279C129.881,110.617 128.971,110.452 128.308,110.911C127.646,111.37 127.481,112.28 127.94,112.942ZM77.764,111.279C72.52,118.844 72.247,126.408 77.786,133.973C78.262,134.623 79.176,134.765 79.826,134.289C80.476,133.813 80.618,132.898 80.142,132.248C75.43,125.813 75.703,119.378 80.164,112.942C80.623,112.28 80.458,111.37 79.796,110.911C79.133,110.452 78.223,110.617 77.764,111.279ZM97.86,128.901C98.585,127.452 99.023,126.019 99.178,124.606C99.347,123.055 99.436,119.294 99.44,113.321L105.245,113.321L105.245,128.901L97.86,128.901ZM117.51,108.897C115.496,108.897 113.86,110.533 113.86,112.547C113.86,114.561 115.496,116.197 117.51,116.197C119.524,116.197 121.16,114.561 121.16,112.547C121.16,110.533 119.524,108.897 117.51,108.897ZM86.37,108.897C84.356,108.897 82.72,110.533 82.72,112.547C82.72,114.561 84.356,116.197 86.37,116.197C88.384,116.197 90.02,114.561 90.02,112.547C90.02,110.533 88.384,108.897 86.37,108.897ZM117.51,111.197C118.255,111.197 118.86,111.802 118.86,112.547C118.86,113.292 118.255,113.897 117.51,113.897C116.765,113.897 116.16,113.292 116.16,112.547C116.16,111.802 116.765,111.197 117.51,111.197ZM86.37,111.197C87.115,111.197 87.72,111.802 87.72,112.547C87.72,113.292 87.115,113.897 86.37,113.897C85.625,113.897 85.02,113.292 85.02,112.547C85.02,111.802 85.625,111.197 86.37,111.197ZM109.704,103.188L116.931,87.93L124.159,103.188C124.504,103.918 125.377,104.23 126.107,103.884C126.837,103.538 127.148,102.665 126.803,101.936L118.253,83.887C118.011,83.376 117.496,83.05 116.931,83.05C116.366,83.05 115.851,83.376 115.609,83.887L107.06,101.936C106.714,102.665 107.026,103.538 107.755,103.884C108.485,104.23 109.358,103.918 109.704,103.188ZM83.554,103.188L90.781,87.93L98.009,103.188C98.354,103.918 99.227,104.23 99.957,103.884C100.687,103.538 100.998,102.665 100.653,101.936L92.103,83.887C91.861,83.376 91.346,83.05 90.781,83.05C90.216,83.05 89.701,83.376 89.459,83.887L80.91,101.936C80.564,102.665 80.876,103.538 81.605,103.884C82.335,104.23 83.208,103.918 83.554,103.188Z"/>
    </g>
</svg>
