<?xml version="1.0" encoding="UTF-8" standalone="no"?>
<!DOCTYPE svg PUBLIC "-//W3C//DTD SVG 1.1//EN" "http://www.w3.org/Graphics/SVG/1.1/DTD/svg11.dtd">
<svg width="79px" height="31px" version="1.1" xmlns="http://www.w3.org/2000/svg" xmlns:xlink="http://www.w3.org/1999/xlink" xml:space="preserve" xmlns:serif="http://www.serif.com/" style="fill-rule:evenodd;clip-rule:evenodd;stroke-linejoin:round;stroke-miterlimit:2;">
    <g transform="matrix(0.62025,0,0,0.62025,-28.7275,-105.346)">
        <path d="M93.491,209.528C93.491,214.444 89.5,218.436 84.583,218.436C79.667,218.436 75.676,214.444 75.676,209.528L47.732,209.528L47.439,209.388L47.439,198.308L47.149,193.027L66.725,193.027L89.269,173.18L92.811,170.76L139.713,170.76L142.596,173.18L161.477,189.802L165.262,192.635L172.502,192.635L172.851,198.308L172.851,209.388L172.557,209.528L142.485,209.528C142.485,214.444 138.494,218.436 133.578,218.436C128.662,218.436 124.67,214.444 124.67,209.528L93.491,209.528Z" style="fill:white;"/>
    </g>
    <g transform="matrix(0.62025,0,0,0.62025,-28.7275,-105.346)">
        <path d="M84.378,199.232C78.695,199.232 74.082,203.845 74.082,209.528C74.082,215.211 78.695,219.825 84.378,219.825C90.061,219.825 94.675,215.211 94.675,209.528C94.675,203.845 90.061,199.232 84.378,199.232ZM133.55,199.232C127.868,199.232 123.254,203.845 123.254,209.528C123.254,215.211 127.868,219.825 133.55,219.825C139.233,219.825 143.847,215.211 143.847,209.528C143.847,203.845 139.233,199.232 133.55,199.232ZM84.378,202.009C88.528,202.009 91.897,205.378 91.897,209.528C91.897,213.678 88.528,217.047 84.378,217.047C80.228,217.047 76.859,213.678 76.859,209.528C76.859,205.378 80.228,202.009 84.378,202.009ZM133.55,202.009C137.7,202.009 141.069,205.378 141.069,209.528C141.069,213.678 137.7,217.047 133.55,217.047C129.401,217.047 126.032,213.678 126.032,209.528C126.032,205.378 129.401,202.009 133.55,202.009ZM47.089,210.145L47.367,210.277C47.586,210.381 47.732,210.361 47.732,210.361L58.813,210.361C59.273,210.361 59.647,209.988 59.647,209.528C59.647,209.068 59.273,208.695 58.813,208.695L48.273,208.695L48.273,198.308C48.273,197.848 47.899,197.474 47.439,197.474C46.979,197.474 46.606,197.848 46.606,198.308L46.606,209.388C46.606,209.724 46.804,210.013 47.089,210.145ZM172.017,208.695L161.477,208.695C161.017,208.695 160.643,209.068 160.643,209.528C160.643,209.988 161.017,210.361 161.477,210.361L172.557,210.361C172.557,210.361 172.704,210.381 172.923,210.277L173.201,210.145C173.486,210.013 173.684,209.724 173.684,209.388L173.684,198.308C173.684,197.848 173.311,197.474 172.851,197.474C172.391,197.474 172.017,197.848 172.017,198.308L172.017,208.695ZM71.366,208.695L61.652,208.695C61.192,208.695 60.818,209.068 60.818,209.528C60.818,209.988 61.192,210.361 61.652,210.361L71.366,210.361C71.826,210.361 72.2,209.988 72.2,209.528C72.2,209.068 71.826,208.695 71.366,208.695ZM106.976,208.695L97.262,208.695C96.802,208.695 96.428,209.068 96.428,209.528C96.428,209.988 96.802,210.361 97.262,210.361L106.976,210.361C107.436,210.361 107.81,209.988 107.81,209.528C107.81,209.068 107.436,208.695 106.976,208.695ZM120.667,208.695L110.952,208.695C110.492,208.695 110.119,209.068 110.119,209.528C110.119,209.988 110.492,210.361 110.952,210.361L120.667,210.361C121.127,210.361 121.5,209.988 121.5,209.528C121.5,209.068 121.127,208.695 120.667,208.695ZM156.825,208.695L147.11,208.695C146.65,208.695 146.277,209.068 146.277,209.528C146.277,209.988 146.65,210.361 147.11,210.361L156.825,210.361C157.285,210.361 157.658,209.988 157.658,209.528C157.658,209.068 157.285,208.695 156.825,208.695ZM69.938,192.193L47.149,192.193C46.689,192.193 46.316,192.567 46.316,193.027C46.316,193.487 46.689,193.86 47.149,193.86L69.938,193.86C70.398,193.86 70.771,193.487 70.771,193.027C70.771,192.567 70.398,192.193 69.938,192.193ZM172.502,191.802L165.262,191.802C164.802,191.802 164.429,192.175 164.429,192.635C164.429,193.095 164.802,193.468 165.262,193.468L172.502,193.468C172.962,193.468 173.335,193.095 173.335,192.635C173.335,192.175 172.962,191.802 172.502,191.802ZM88.534,172.346L69.654,188.968C69.194,189.373 69.149,190.076 69.554,190.536C69.96,190.996 70.662,191.041 71.122,190.636L90.003,174.014C90.463,173.609 90.508,172.906 90.103,172.446C89.697,171.986 88.995,171.941 88.534,172.346ZM141.862,174.014L160.742,190.636C161.203,191.041 161.905,190.996 162.311,190.536C162.716,190.076 162.671,189.373 162.211,188.968L143.331,172.346C142.87,171.941 142.168,171.986 141.762,172.446C141.357,172.906 141.402,173.609 141.862,174.014ZM139.713,169.927L92.811,169.927C92.351,169.927 91.978,170.301 91.978,170.76C91.978,171.22 92.351,171.594 92.811,171.594L139.713,171.594C140.173,171.594 140.547,171.22 140.547,170.76C140.547,170.301 140.173,169.927 139.713,169.927Z"/>
    </g>
</svg>
