<?xml version="1.0" encoding="UTF-8" standalone="no"?>
<svg xmlns:xlink="http://www.w3.org/1999/xlink" height="23.6px" width="44.1px" xmlns="http://www.w3.org/2000/svg">
  <g transform="matrix(1.0, 0.0, 0.0, 1.0, 27.05, 6.5)">
    <path d="M12.35 -1.0 Q14.15 -0.35 15.5 1.65 16.7 3.5 16.5 5.2 16.3 7.0 14.5 7.3 10.45 20.45 -3.4 13.65 -9.75 17.5 -15.0 16.35 -20.15 15.25 -20.35 10.25 L-20.4 10.25 Q-24.15 8.95 -25.2 8.3 -26.7 7.45 -26.55 4.0 -26.5 1.95 -24.35 1.1 -22.5 0.3 -21.05 0.75 -17.2 -9.4 -9.05 -0.75 2.7 -11.45 8.2 -0.3 10.15 -1.8 12.35 -1.0 M-9.05 3.15 L-13.45 3.25 -9.05 3.15 M-16.9 4.1 L-18.1 4.55 -16.9 4.1 M-16.65 5.2 Q-17.25 5.8 -17.9 5.95 -17.25 5.8 -16.65 5.2 M-5.4 7.2 L-5.65 8.05 -5.95 8.6 -7.25 9.7 Q-8.05 10.1 -8.6 9.7 -9.2 9.25 -9.55 8.05 L-9.7 7.4 -10.2 8.05 -11.1 8.8 Q-12.2 9.35 -12.3 6.85 L-12.35 6.0 -12.3 6.85 Q-12.2 9.35 -11.1 8.8 L-10.2 8.05 -9.7 7.4 -9.55 8.05 Q-9.2 9.25 -8.6 9.7 -8.05 10.1 -7.25 9.7 L-5.95 8.6 -5.65 8.05 -5.4 7.2 M-1.35 3.85 L-6.65 3.4 -1.35 3.85 M1.95 5.2 L0.5 5.95 1.95 5.2 M2.9 6.2 L2.1 6.65 2.9 6.2" fill="#ffffff" fill-rule="evenodd" stroke="none"/>
    <path d="M12.35 -1.0 Q14.15 -0.35 15.5 1.65 16.7 3.5 16.5 5.2 16.3 7.0 14.5 7.3 10.45 20.45 -3.4 13.65 -9.75 17.5 -15.0 16.35 -20.15 15.25 -20.35 10.25 L-20.4 10.25 Q-24.15 8.95 -25.2 8.3 -26.7 7.45 -26.55 4.0 -26.5 1.95 -24.35 1.1 -22.5 0.3 -21.05 0.75 -17.2 -9.4 -9.05 -0.75 2.7 -11.45 8.2 -0.3 10.15 -1.8 12.35 -1.0 M2.1 6.65 L2.9 6.2 M0.5 5.95 L1.95 5.2 M-6.65 3.4 L-1.35 3.85 M-12.35 6.0 L-12.3 6.85 Q-12.2 9.35 -11.1 8.8 L-10.2 8.05 -9.7 7.4 -9.55 8.05 Q-9.2 9.25 -8.6 9.7 -8.05 10.1 -7.25 9.7 L-5.95 8.6 -5.65 8.05 -5.4 7.2 M-17.9 5.95 Q-17.25 5.8 -16.65 5.2 M-18.1 4.55 L-16.9 4.1 M-13.45 3.25 L-9.05 3.15" fill="none" stroke="#8f7c3f" stroke-linecap="round" stroke-linejoin="round" stroke-width="1.0"/>
  </g>
</svg>
