<?xml version="1.0" encoding="UTF-8" standalone="no"?>
<svg xmlns:xlink="http://www.w3.org/1999/xlink" height="67.05px" width="45.0px" xmlns="http://www.w3.org/2000/svg">
  <g transform="matrix(1.0, 0.0, 0.0, 1.0, 29.75, 23.2)">
    <path d="M-8.05 -12.9 L-11.6 -12.3 Q-13.8 -11.85 -13.9 -13.35 -14.9 -16.1 -16.25 -18.55 -12.6 -16.4 -10.15 -20.6 -7.75 -17.05 -4.35 -19.3 -4.5 -17.45 -6.4 -13.75 -6.85 -13.05 -8.05 -12.9 M-10.4 -21.45 Q-12.0 -23.4 -9.5 -22.35 -9.95 -20.9 -10.4 -21.45" fill="#ffcc66" fill-rule="evenodd" stroke="none"/>
    <path d="M-4.5 26.4 Q-0.9 25.9 -2.55 33.95 -5.5 33.55 -4.5 26.4 M-8.2 28.05 Q-7.35 30.1 -8.25 32.05 -10.4 36.4 -10.65 29.5 L-10.1 27.65 Q-9.65 24.65 -8.2 28.05" fill="#ffffff" fill-rule="evenodd" stroke="none"/>
    <path d="M-12.1 40.65 L-11.0 40.6 -3.05 40.45 Q1.05 40.45 4.4 42.2 -0.5 43.95 -5.15 43.5 L-11.0 43.15 -11.5 43.1 -12.4 42.85 Q-17.75 41.05 -12.1 40.65" fill="#8f7c3f" fill-rule="evenodd" stroke="none"/>
    <path d="M-8.05 -12.9 L-11.6 -12.3 Q-13.8 -11.85 -13.9 -13.35 -14.9 -16.1 -16.25 -18.55 -12.6 -16.4 -10.15 -20.6 -7.75 -17.05 -4.35 -19.3 -4.5 -17.45 -6.4 -13.75 -6.85 -13.05 -8.05 -12.9 M-4.35 -19.35 Q-4.45 -22.05 -3.6 -19.5 L-4.35 -19.35 M-17.25 -19.6 L-18.0 -20.25 Q-16.2 -21.35 -17.25 -19.6 M-10.4 -21.45 Q-12.0 -23.4 -9.5 -22.35 -9.95 -20.9 -10.4 -21.45 M-21.45 6.1 Q-23.85 13.3 -29.25 10.6 -29.4 2.55 -25.7 7.2 -24.75 8.45 -27.25 8.75 M-8.2 28.05 Q-9.65 24.65 -10.1 27.65 L-10.65 29.5 Q-10.4 36.4 -8.25 32.05 -7.35 30.1 -8.2 28.05 M-4.5 26.4 Q-5.5 33.55 -2.55 33.95 -0.9 25.9 -4.5 26.4" fill="none" stroke="#8f7c3f" stroke-linecap="round" stroke-linejoin="round" stroke-width="1.0"/>
    <path d="M7.15 6.3 Q7.1 12.6 11.95 10.2 16.7 7.8 13.35 4.85 7.95 6.25 11.9 7.95" fill="none" stroke="#8f7c3f" stroke-linecap="round" stroke-linejoin="round" stroke-width="1.0"/>
    <path d="M-12.1 40.65 L-11.0 40.6 -3.05 40.45 Q1.05 40.45 4.4 42.2 -0.5 43.95 -5.15 43.5 L-11.0 43.15 -11.5 43.1 -12.4 42.85 Q-17.75 41.05 -12.1 40.65" fill="none" stroke="#8f7c3f" stroke-linecap="round" stroke-linejoin="round" stroke-width="0.5"/>
    <path d="M-6.0 12.35 L-5.1 13.1 Q-3.4 14.85 -2.0 16.95 L0.7 21.0 Q1.7 22.55 1.75 24.25 1.7 26.65 -1.55 26.8 L-6.7 27.35 -11.85 28.1 Q-15.5 28.5 -15.2 25.7 -15.0 23.25 -14.15 20.95 -13.3 18.7 -11.9 16.7 L-9.35 13.1 -9.1 12.7 -8.7 12.35 -6.0 12.35" fill="#e2d5c0" fill-rule="evenodd" stroke="none"/>
    <path d="M-6.0 12.35 L-5.1 13.1 Q-3.4 14.85 -2.0 16.95 L0.7 21.0 Q1.7 22.55 1.75 24.25 1.7 26.65 -1.55 26.8 L-6.7 27.35 -11.85 28.1 Q-15.5 28.5 -15.2 25.7 -15.0 23.25 -14.15 20.95 -13.3 18.7 -11.9 16.7 L-9.35 13.1 -9.1 12.7 -8.7 12.35" fill="none" stroke="#8f7c3f" stroke-linecap="round" stroke-linejoin="round" stroke-width="1.0"/>
    <path d="M-5.75 3.05 L-9.75 3.05 Q-7.9 1.45 -5.75 3.05" fill="#ffffff" fill-rule="evenodd" stroke="none"/>
    <path d="M-5.75 3.05 Q-7.9 1.45 -9.75 3.05" fill="none" stroke="#8f7c3f" stroke-linecap="round" stroke-linejoin="round" stroke-width="1.0"/>
    <path d="M-18.15 16.25 L-17.35 16.1 -10.95 14.4 Q-14.45 23.0 -20.25 16.55 L-18.15 16.25" fill="#ffffff" fill-rule="evenodd" stroke="none"/>
    <path d="M-18.15 16.25 L-20.25 16.55 Q-14.45 23.0 -10.95 14.4 L-17.35 16.1 -18.15 16.25 Z" fill="none" stroke="#8f7c3f" stroke-linecap="round" stroke-linejoin="round" stroke-width="1.0"/>
    <path d="M3.6 15.9 L2.8 15.75 Q-0.4 15.15 -3.6 14.05 -0.1 22.65 5.7 16.2 L3.6 15.9" fill="#ffffff" fill-rule="evenodd" stroke="none"/>
    <path d="M3.6 15.9 L5.7 16.2 Q-0.1 22.65 -3.6 14.05 -0.4 15.15 2.8 15.75 L3.6 15.9 Z" fill="none" stroke="#8f7c3f" stroke-linecap="round" stroke-linejoin="round" stroke-width="1.0"/>
    <path d="M-12.75 -13.65 Q-1.1 -15.55 5.55 -7.05 12.9 2.4 3.7 9.35 -1.55 13.3 -12.2 12.55 -24.0 11.4 -24.8 -0.2 L-24.85 -0.95 Q-25.2 -10.75 -14.75 -13.3 L-12.75 -13.65" fill="#ffffff" fill-rule="evenodd" stroke="none"/>
    <path d="M-12.75 -13.65 Q-1.1 -15.55 5.55 -7.05 12.9 2.4 3.7 9.35 -1.55 13.3 -12.2 12.55 -24.0 11.4 -24.8 -0.2 L-24.85 -0.95 Q-25.2 -10.75 -14.75 -13.3 L-12.75 -13.65 Z" fill="none" stroke="#8f7c3f" stroke-linecap="round" stroke-linejoin="round" stroke-width="1.0"/>
    <path d="M-21.1 1.0 Q-20.45 -0.15 -19.35 -0.25 M-2.2 2.15 Q-3.35 3.65 -4.4 4.0 L-6.55 3.8 Q-7.55 3.35 -8.05 1.4 L-8.8 1.2 Q-9.2 3.35 -9.65 3.75 L-10.5 4.25 -11.05 4.35 -11.35 4.25 Q-12.75 3.8 -13.5 1.8 M-18.9 1.4 L-18.45 0.75 -17.55 0.45 M-8.05 1.4 L-8.5 -1.2 -8.8 1.2 Q-9.6 0.65 -8.5 -1.2 -7.05 0.55 -8.05 1.4 M-7.2 -3.4 L-4.1 -3.2 -0.85 -3.2" fill="none" stroke="#8f7c3f" stroke-linecap="round" stroke-linejoin="round" stroke-width="1.0"/>
    <path d="M0.6 0.5 L1.95 -0.3 M2.55 0.9 Q2.7 0.4 3.3 0.15 M-10.95 -3.2 L-14.05 -3.15 -15.75 -3.1" fill="none" stroke="#8f7c3f" stroke-linecap="round" stroke-linejoin="round" stroke-width="1.0"/>
  </g>
</svg>
