<?xml version="1.0" encoding="UTF-8" standalone="no"?>
<!DOCTYPE svg PUBLIC "-//W3C//DTD SVG 1.1//EN" "http://www.w3.org/Graphics/SVG/1.1/DTD/svg11.dtd">
<svg width="59px" height="51px" version="1.1" xmlns="http://www.w3.org/2000/svg" xmlns:xlink="http://www.w3.org/1999/xlink" xml:space="preserve" xmlns:serif="http://www.serif.com/" style="fill-rule:evenodd;clip-rule:evenodd;stroke-linejoin:round;stroke-miterlimit:2;">
    <g transform="matrix(0.542725,0,0,0.542725,-645.177,-198.625)">
        <path d="M1201.25,458.258C1199.05,458.258 1197.04,457.014 1196.07,455.045C1192.58,447.999 1194.09,440.979 1198.95,433.959C1200.28,430.79 1198.23,427.622 1194.83,424.454C1188.9,416.354 1188.74,409.978 1194.36,401.879C1196.5,396.293 1197.67,392.102 1199,389L1208,370L1217,389C1222.99,388.498 1227.99,388.613 1232.56,389L1241.56,370L1250.56,389C1257.16,390.461 1262.2,394.631 1266.71,400.155C1272.32,408.255 1272.64,416.354 1266.71,424.454C1262.41,427.119 1260.4,430.182 1262.49,433.959C1267.42,441.069 1267.62,448.179 1263.59,455.289C1262.57,457.101 1260.65,458.222 1258.57,458.222C1247.82,458.258 1212.07,458.258 1201.25,458.258Z" style="fill:white;"/>
    </g>
    <g transform="matrix(0.627987,0,0,0.627987,-39.2851,-86.2811)">
        <path d="M70.155,195.313C64.912,202.878 64.639,210.443 70.177,218.007C70.653,218.658 71.568,218.799 72.218,218.323C72.868,217.847 73.009,216.933 72.533,216.283C67.822,209.847 68.095,203.412 72.555,196.977C73.014,196.314 72.849,195.404 72.187,194.945C71.525,194.486 70.614,194.651 70.155,195.313ZM125.066,196.977C129.527,203.412 129.8,209.847 125.088,216.283C124.612,216.933 124.753,217.847 125.404,218.323C126.054,218.799 126.968,218.658 127.444,218.007C132.982,210.443 132.709,202.878 127.466,195.313C127.007,194.651 126.097,194.486 125.434,194.945C124.772,195.404 124.607,196.314 125.066,196.977ZM107.475,217.843L120.99,217.843C121.566,217.843 122.034,217.375 122.034,216.799C122.034,216.223 121.566,215.755 120.99,215.755L107.475,215.755C106.898,215.755 106.431,216.223 106.431,216.799C106.431,217.375 106.898,217.843 107.475,217.843ZM103.901,204.328L103.847,204.329L103.847,204.327C103.43,204.327 103.088,204.434 102.815,204.624C102.455,204.875 102.293,205.198 102.293,205.574L102.293,210.491C102.293,211.37 101.91,212.124 101.165,212.764C100.392,213.428 99.543,213.765 98.612,213.765C97.654,213.765 96.955,213.619 96.537,213.252C96.136,212.9 95.984,212.273 95.984,211.399L95.984,205.574C95.984,205.2 95.827,204.881 95.486,204.632C95.218,204.436 94.886,204.327 94.484,204.327L94.457,204.327C94.04,204.327 93.697,204.434 93.424,204.624C93.064,204.875 92.903,205.198 92.903,205.574L92.903,211.537C92.903,213.158 93.36,214.319 94.201,215.047C95.019,215.755 96.276,216.14 97.992,216.14C99.041,216.14 100.023,215.944 100.936,215.553C101.468,215.325 101.948,215.047 102.375,214.721C102.388,215.05 102.544,215.359 102.899,215.618C103.191,215.833 103.529,215.943 103.915,215.943C104.301,215.943 104.638,215.833 104.931,215.619C105.301,215.347 105.455,215.022 105.455,214.676L105.455,205.574C105.455,205.197 105.289,204.869 104.911,204.618L104.91,204.618C104.625,204.428 104.29,204.327 103.901,204.327L103.901,204.328ZM87.73,204.328L87.676,204.329L87.676,204.327C87.259,204.327 86.917,204.434 86.643,204.624C86.284,204.875 86.122,205.198 86.122,205.574L86.122,210.491C86.122,211.37 85.739,212.124 84.993,212.764C84.221,213.428 83.372,213.765 82.441,213.765C81.482,213.765 80.784,213.619 80.366,213.252C79.965,212.9 79.813,212.273 79.813,211.399L79.813,205.574C79.813,205.2 79.656,204.881 79.315,204.632C79.047,204.436 78.715,204.327 78.313,204.327L78.286,204.327C77.868,204.327 77.526,204.434 77.253,204.624C76.893,204.875 76.731,205.198 76.731,205.574L76.731,211.537C76.731,213.158 77.189,214.319 78.03,215.047C78.848,215.755 80.105,216.14 81.82,216.14C82.87,216.14 83.851,215.944 84.765,215.553C85.297,215.325 85.776,215.047 86.204,214.721C86.217,215.05 86.373,215.359 86.727,215.618C87.02,215.833 87.358,215.943 87.744,215.943C88.129,215.943 88.467,215.833 88.76,215.619C89.13,215.347 89.284,215.022 89.284,214.676L89.284,205.574C89.284,205.197 89.118,204.869 88.74,204.618L88.739,204.618C88.454,204.428 88.119,204.327 87.73,204.327L87.73,204.328ZM138.484,207.933L138.529,207.989C138.577,208.049 138.628,208.093 138.677,208.124C138.921,208.3 139.198,208.373 139.511,208.341C139.836,208.307 140.111,208.168 140.335,207.922C140.337,207.92 140.338,207.918 140.34,207.916C141.22,206.923 142.229,206.414 143.38,206.414C144.308,206.414 145.22,206.853 146.136,207.689C146.136,207.69 146.136,207.69 146.137,207.69C147.503,208.931 149.006,209.543 150.637,209.544C152.68,209.557 154.359,208.774 155.674,207.193C155.68,207.186 155.686,207.178 155.691,207.171C155.891,206.904 155.977,206.6 155.944,206.256C155.911,205.913 155.764,205.63 155.503,205.407L155.385,205.311C155.129,205.103 154.829,205.011 154.481,205.046C154.144,205.08 153.862,205.228 153.636,205.495C153.171,206.016 152.7,206.395 152.217,206.623C151.744,206.845 151.217,206.954 150.639,206.954L150.632,206.954C149.707,206.965 148.797,206.532 147.884,205.698C147.883,205.697 147.883,205.697 147.882,205.696C146.516,204.456 145.013,203.844 143.382,203.843C141.34,203.83 139.66,204.613 138.345,206.194C138.344,206.195 138.343,206.196 138.342,206.198C138.135,206.451 138.04,206.754 138.075,207.112C138.107,207.44 138.243,207.714 138.484,207.933ZM139.502,207.781C139.498,207.798 139.493,207.814 139.487,207.831C139.408,208.052 139.199,208.199 138.964,208.199C138.964,208.199 139.304,208.037 139.445,207.789L139.454,207.788C139.47,207.786 139.486,207.784 139.502,207.781ZM138.632,208.089L138.612,208.074C138.619,208.079 138.625,208.084 138.632,208.089ZM67.147,166.099C61.904,173.664 61.631,181.229 67.169,188.793C67.645,189.444 68.56,189.585 69.21,189.109C69.86,188.633 70.001,187.719 69.525,187.069C64.814,180.633 65.087,174.198 69.547,167.763C70.006,167.1 69.841,166.19 69.179,165.731C68.517,165.272 67.606,165.437 67.147,166.099ZM128.713,167.763C133.174,174.198 133.447,180.633 128.735,187.069C128.259,187.719 128.4,188.633 129.051,189.109C129.701,189.585 130.615,189.444 131.091,188.793C136.629,181.229 136.356,173.664 131.113,166.099C130.654,165.437 129.744,165.272 129.081,165.731C128.419,166.19 128.254,167.1 128.713,167.763ZM90.431,188.239L90.374,188.239C90.04,188.239 89.758,188.131 89.523,187.925C89.261,187.694 89.136,187.411 89.136,187.081L89.136,184.405C89.136,184.081 89.257,183.798 89.514,183.561C89.75,183.343 90.036,183.23 90.374,183.23L90.374,183.244C90.405,183.235 90.441,183.23 90.505,183.23C90.783,182.864 90.994,182.558 91.137,182.311C91.293,182.041 91.437,181.722 91.57,181.354C91.702,180.99 91.782,180.475 91.823,179.812C91.867,179.087 91.901,178.29 91.926,177.421C91.951,176.549 91.964,175.269 91.964,173.58L91.964,173.028C91.964,172.702 92.085,172.423 92.332,172.194C92.56,171.983 92.842,171.871 93.184,171.871L99.96,171.871C100.295,171.871 100.577,171.979 100.812,172.185C101.073,172.416 101.199,172.699 101.199,173.028L101.199,183.23L101.574,183.23C101.912,183.23 102.198,183.343 102.434,183.562C102.691,183.798 102.812,184.082 102.812,184.405L102.812,187.081C102.812,187.411 102.687,187.694 102.425,187.924C102.205,188.118 101.943,188.225 101.636,188.238L101.574,188.239L101.455,188.238C101.147,188.225 100.885,188.118 100.665,187.924C100.404,187.694 100.278,187.411 100.278,187.081L100.278,185.495L91.67,185.495L91.67,187.081C91.67,187.411 91.545,187.694 91.282,187.925C91.063,188.118 90.801,188.225 90.494,188.238L90.431,188.239ZM118.996,184.652C119.508,185.39 119.549,186.129 119.009,186.867C118.736,187.239 118.817,187.762 119.189,188.034C119.561,188.307 120.084,188.226 120.357,187.854C121.37,186.469 121.329,185.085 120.369,183.7C120.107,183.322 119.586,183.227 119.207,183.49C118.828,183.752 118.734,184.273 118.996,184.652ZM123.119,184.652C123.631,185.39 123.672,186.129 123.132,186.867C122.859,187.239 122.94,187.762 123.312,188.034C123.684,188.307 124.207,188.226 124.48,187.854C125.493,186.469 125.452,185.085 124.492,183.7C124.23,183.322 123.709,183.227 123.33,183.49C122.951,183.752 122.857,184.273 123.119,184.652ZM93.58,183.23C94.012,182.43 94.277,181.637 94.38,180.855C94.502,179.921 94.569,177.681 94.574,174.136L98.532,174.136L98.532,183.23L93.58,183.23ZM76.057,174.416C77.336,174.416 78.374,175.455 78.374,176.734C78.374,178.013 77.336,179.051 76.057,179.051C74.778,179.051 73.739,178.013 73.739,176.734C73.739,175.455 74.778,174.416 76.057,174.416ZM114.507,174.416C115.786,174.416 116.824,175.455 116.824,176.734C116.824,178.013 115.786,179.051 114.507,179.051C113.228,179.051 112.189,178.013 112.189,176.734C112.189,175.455 113.228,174.416 114.507,174.416ZM101.715,157.916L108.173,144.282L114.631,157.916C114.976,158.644 115.848,158.956 116.576,158.61C117.305,158.265 117.616,157.394 117.271,156.665L109.493,140.245C109.251,139.735 108.737,139.41 108.173,139.41C107.608,139.41 107.095,139.735 106.853,140.245L99.075,156.665C98.73,157.394 99.041,158.265 99.77,158.61C100.498,158.956 101.37,158.644 101.715,157.916ZM72.716,157.916L79.174,144.282L85.632,157.916C85.977,158.644 86.849,158.956 87.577,158.61C88.306,158.265 88.617,157.394 88.272,156.665L80.494,140.245C80.252,139.735 79.738,139.41 79.174,139.41C78.609,139.41 78.096,139.735 77.854,140.245L70.076,156.665C69.731,157.394 70.042,158.265 70.771,158.61C71.499,158.956 72.371,158.644 72.716,157.916Z"/>
    </g>
</svg>
