<?xml version="1.0" encoding="UTF-8" standalone="no"?>
<!DOCTYPE svg PUBLIC "-//W3C//DTD SVG 1.1//EN" "http://www.w3.org/Graphics/SVG/1.1/DTD/svg11.dtd">
<svg width="69px" height="39px" version="1.1" xmlns="http://www.w3.org/2000/svg" xmlns:xlink="http://www.w3.org/1999/xlink" xml:space="preserve" xmlns:serif="http://www.serif.com/" style="fill-rule:evenodd;clip-rule:evenodd;stroke-linejoin:round;stroke-miterlimit:2;">
    <g transform="matrix(0.63429,0,0,0.63429,-32.9731,-99.4968)">
        <path d="M85.346,179.39L90.661,163.972C91.13,162.613 92.406,161.7 93.843,161.694C95.28,161.689 96.563,162.594 97.041,163.949L101.939,178.623C103.376,181.058 104.847,184.634 105.9,187.183C106.14,187.727 106.589,188.151 107.146,188.359C107.704,188.567 108.321,188.541 108.859,188.287C114.368,185.959 124.583,187.546 128.686,194.111C134.127,202.818 133.218,208.854 128.113,215.111C123.263,217.769 117.759,217.257 111.292,215.012C109.998,214.564 108.578,214.667 107.362,215.296C95.12,220.439 58.294,218.38 56.651,214.305C50.334,207.262 53.087,198.467 56.651,194.111C57.437,191.092 59.573,185.624 62.557,178.623L68.003,163.972C68.471,162.613 69.748,161.7 71.185,161.694C72.622,161.689 73.905,162.594 74.383,163.949L79.856,179.463C81.706,179.348 83.536,179.324 85.346,179.39Z" style="fill:white;"/>
    </g>
    <g transform="matrix(0.63429,0,0,0.63429,-32.9731,-99.4968)">
        <path d="M120.358,213.539C121.051,214.539 121.105,215.539 120.373,216.539C120.038,216.996 120.138,217.639 120.595,217.974C121.052,218.309 121.695,218.209 122.03,217.752C123.343,215.958 123.289,214.164 122.045,212.37C121.722,211.904 121.082,211.788 120.616,212.111C120.151,212.433 120.035,213.074 120.358,213.539ZM114.931,213.539C115.624,214.539 115.678,215.539 114.946,216.539C114.611,216.996 114.711,217.639 115.168,217.974C115.625,218.309 116.268,218.209 116.603,217.752C117.916,215.958 117.862,214.164 116.618,212.37C116.295,211.904 115.655,211.788 115.189,212.111C114.724,212.433 114.608,213.074 114.931,213.539ZM56.017,193.279C50.774,200.844 50.5,208.409 56.039,215.973C56.515,216.624 57.429,216.765 58.079,216.289C58.73,215.813 58.871,214.899 58.395,214.249C53.683,207.813 53.956,201.378 58.417,194.943C58.876,194.28 58.711,193.37 58.049,192.911C57.386,192.452 56.476,192.617 56.017,193.279ZM107.6,194.943C112.061,201.378 112.334,207.813 107.622,214.249C107.146,214.899 107.287,215.813 107.938,216.289C108.588,216.765 109.502,216.624 109.978,215.973C115.516,208.409 115.243,200.844 110,193.279C109.541,192.617 108.631,192.452 107.968,192.911C107.306,193.37 107.141,194.28 107.6,194.943ZM126.913,194.943C131.374,201.378 131.647,207.813 126.935,214.249C126.459,214.899 126.6,215.813 127.251,216.289C127.901,216.765 128.815,216.624 129.291,215.973C134.829,208.409 134.556,200.844 129.313,193.279C128.854,192.617 127.944,192.452 127.281,192.911C126.619,193.37 126.454,194.28 126.913,194.943ZM96.271,203.639L92.935,205.544C92.49,205.798 92.272,206.32 92.403,206.815C92.429,206.912 92.467,207.003 92.516,207.087L92.712,207.439C92.731,207.473 92.752,207.506 92.774,207.538C93.141,208.078 93.701,208.023 93.701,208.023C93.899,208.023 94.093,207.971 94.265,207.873L97.625,205.94L97.625,209.78C97.625,210.384 98.099,210.877 98.696,210.908L99.225,210.908C99.822,210.877 100.297,210.384 100.297,209.78L100.297,205.94L103.657,207.873C103.828,207.971 104.022,208.023 104.22,208.023C104.22,208.023 104.848,208.085 105.21,207.437L105.406,207.087C105.454,207.003 105.492,206.912 105.518,206.815C105.649,206.32 105.431,205.798 104.986,205.544L101.651,203.639L104.987,201.734C105.431,201.48 105.649,200.958 105.518,200.463C105.492,200.366 105.454,200.275 105.406,200.191L105.21,199.841C104.848,199.193 104.22,199.255 104.22,199.255C104.022,199.255 103.828,199.307 103.657,199.405L100.297,201.338L100.297,197.498C100.297,196.894 99.822,196.4 99.225,196.37L98.696,196.37C98.099,196.4 97.625,196.894 97.625,197.498L97.625,201.338L94.265,199.405C94.093,199.307 93.899,199.255 93.701,199.255C93.701,199.255 93.141,199.2 92.774,199.74L92.711,199.841L92.516,200.191C92.467,200.275 92.429,200.366 92.403,200.463C92.272,200.958 92.49,201.48 92.935,201.734L96.271,203.639ZM138.338,205.438L138.404,205.521C138.449,205.578 138.497,205.619 138.543,205.65C138.831,205.865 139.161,205.956 139.534,205.917C139.915,205.878 140.238,205.715 140.5,205.426C140.502,205.424 140.503,205.423 140.505,205.421C141.685,204.089 143.041,203.41 144.584,203.41C145.827,203.41 147.053,203.991 148.28,205.113C148.281,205.113 148.281,205.114 148.282,205.114C150.025,206.697 151.941,207.481 154.023,207.481C156.627,207.498 158.769,206.5 160.445,204.484C160.451,204.476 160.457,204.469 160.463,204.462C160.697,204.149 160.798,203.792 160.759,203.388C160.719,202.979 160.541,202.642 160.224,202.378L160.093,202.273C159.795,202.03 159.445,201.924 159.039,201.964C158.643,202.004 158.312,202.179 158.048,202.493C157.426,203.189 156.795,203.696 156.148,204C155.511,204.3 154.803,204.447 154.025,204.447L154.018,204.447C152.777,204.462 151.554,203.888 150.329,202.769C150.328,202.769 150.328,202.768 150.327,202.768C148.584,201.184 146.668,200.401 144.586,200.401C141.982,200.384 139.841,201.382 138.164,203.398C138.163,203.399 138.162,203.401 138.161,203.402C137.918,203.698 137.81,204.052 137.85,204.469C137.888,204.858 138.05,205.181 138.338,205.438ZM138.508,205.622L138.489,205.607C138.495,205.612 138.501,205.617 138.508,205.622ZM68.996,204.432L85.401,204.432C85.978,204.432 86.446,203.963 86.446,203.386C86.446,202.809 85.978,202.341 85.401,202.341L68.996,202.341C68.419,202.341 67.951,202.809 67.951,203.386C67.951,203.963 68.419,204.432 68.996,204.432ZM64.367,189.459C62.419,189.459 60.837,191.041 60.837,192.99C60.837,194.938 62.419,196.52 64.367,196.52C66.316,196.52 67.898,194.938 67.898,192.99C67.898,191.041 66.316,189.459 64.367,189.459ZM89.887,189.459C87.939,189.459 86.357,191.041 86.357,192.99C86.357,194.938 87.939,196.52 89.887,196.52C91.836,196.52 93.418,194.938 93.418,192.99C93.418,191.041 91.836,189.459 89.887,189.459ZM64.367,191.756C65.049,191.756 65.601,192.309 65.601,192.99C65.601,193.671 65.049,194.224 64.367,194.224C63.686,194.224 63.134,193.671 63.134,192.99C63.134,192.309 63.686,191.756 64.367,191.756ZM89.887,191.756C90.569,191.756 91.121,192.309 91.121,192.99C91.121,193.671 90.569,194.224 89.887,194.224C89.206,194.224 88.654,193.671 88.654,192.99C88.654,192.309 89.206,191.756 89.887,191.756ZM96.388,163.612L96.339,163.629L96.19,163.687C95.88,163.795 95.647,164.009 95.502,164.341C95.362,164.661 95.352,164.981 95.469,165.301C95.471,165.305 95.472,165.31 95.474,165.315C97.097,169.425 98.521,174.031 99.748,179.131C99.749,179.136 99.75,179.141 99.751,179.146C99.841,179.478 100.031,179.739 100.323,179.929C100.632,180.13 100.954,180.186 101.286,180.11L101.163,180.124L101.514,180.049L101.517,180.049L101.537,180.044L101.536,180.044C101.882,179.967 102.148,179.775 102.335,179.468L102.335,179.467C102.522,179.158 102.569,178.831 102.478,178.486C101.225,173.36 99.738,168.671 98.018,164.419C98.016,164.413 98.014,164.408 98.012,164.403C97.859,164.056 97.627,163.821 97.332,163.683C97.023,163.537 96.708,163.515 96.388,163.612ZM73.993,163.612L73.944,163.629L73.795,163.687C73.485,163.795 73.252,164.009 73.107,164.341C72.967,164.661 72.957,164.981 73.074,165.301C73.075,165.305 73.077,165.31 73.079,165.315C74.701,169.425 76.126,174.031 77.353,179.131C77.354,179.136 77.355,179.141 77.356,179.146C77.446,179.478 77.636,179.739 77.928,179.929C78.237,180.13 78.56,180.173 78.892,180.097L78.768,180.124L79.119,180.049L79.122,180.049L79.142,180.044L79.141,180.044C79.487,179.967 79.753,179.775 79.94,179.468L79.94,179.467C80.127,179.158 80.174,178.831 80.083,178.486C78.83,173.36 77.343,168.671 75.623,164.419C75.621,164.413 75.619,164.408 75.617,164.403C75.464,164.056 75.232,163.821 74.937,163.683C74.628,163.537 74.313,163.515 73.993,163.612ZM62.68,179.684L62.894,179.797L62.889,179.795L62.9,179.8C63.191,179.939 63.504,179.967 63.84,179.872L63.841,179.872C64.196,179.771 64.456,179.558 64.622,179.232C64.622,179.232 64.623,179.232 64.623,179.231C66.88,174.789 68.311,170.063 68.916,165.052C68.961,164.709 68.874,164.388 68.642,164.094C68.407,163.796 68.119,163.643 67.792,163.613L67.586,163.589C67.213,163.564 66.893,163.677 66.626,163.923C66.372,164.156 66.226,164.437 66.182,164.763L66.182,164.766C65.58,169.41 64.232,173.798 62.139,177.93C61.981,178.24 61.95,178.568 62.052,178.916C62.159,179.279 62.373,179.532 62.68,179.684ZM85.075,179.684L85.289,179.797L85.284,179.795L85.295,179.8C85.586,179.939 85.899,179.967 86.235,179.872L86.236,179.872C86.591,179.771 86.851,179.558 87.017,179.232C87.017,179.232 87.018,179.232 87.018,179.231C89.275,174.789 90.706,170.063 91.311,165.052C91.356,164.709 91.269,164.388 91.037,164.094C90.802,163.796 90.514,163.643 90.187,163.613L89.981,163.589C89.608,163.564 89.288,163.677 89.021,163.923C88.767,164.156 88.621,164.437 88.577,164.763L88.577,164.766C87.975,169.41 86.627,173.798 84.534,177.93C84.376,178.24 84.345,178.568 84.447,178.916C84.554,179.279 84.768,179.532 85.075,179.684Z" style="fill-rule:nonzero;"/>
    </g>
</svg>
