<?xml version="1.0" encoding="UTF-8" standalone="no"?>
<!DOCTYPE svg PUBLIC "-//W3C//DTD SVG 1.1//EN" "http://www.w3.org/Graphics/SVG/1.1/DTD/svg11.dtd">
<svg width="71px" height="48px" version="1.1" xmlns="http://www.w3.org/2000/svg" xmlns:xlink="http://www.w3.org/1999/xlink" xml:space="preserve" xmlns:serif="http://www.serif.com/" style="fill-rule:evenodd;clip-rule:evenodd;stroke-linejoin:round;stroke-miterlimit:2;">
    <g transform="matrix(0.618121,0,0,0.618121,-32.7838,-86.9086)">
        <path d="M83.772,169.936C85.244,166.862 90.485,162.802 93.035,161.068L100.172,144.845L107.666,160.666C113.048,160.175 118.355,160.209 123.602,160.666L131.096,144.845L138.59,160.666C144.101,163.721 147.952,166.843 150.246,170.76C151.352,172.64 153.555,173.581 155.678,173.078C157.594,172.609 159.459,171.941 161.271,171.057C163.123,170.221 164.971,170.262 165.808,172.115C166.517,173.684 166.034,175.491 164.743,176.515C165.946,176.69 167.038,177.456 167.575,178.645C168.412,180.497 167.587,182.681 165.735,183.518C161.177,185.921 156.425,187.405 151.122,188.316C150.793,189.207 150.952,190.595 150.581,192.699C150.24,194.628 149.895,195.211 149.881,196.306C149.875,196.751 149.866,197.193 150.187,197.501C150.508,197.808 150.975,197.907 151.393,197.755L151.394,197.755C153.246,197.248 154.851,198.224 155.359,199.252C156.121,200.796 155.584,202.628 154.294,203.653C155.497,203.827 156.588,204.593 157.125,205.782C157.962,207.635 157.138,209.818 155.285,210.655L149.665,213.549C148.571,214.043 145.793,214.759 142.656,215.63C140.479,216.235 138.364,216.946 136.548,217.145C127.181,218.173 90.705,217.145 90.705,217.145C89.93,216.816 87.764,216.058 86.954,215.002L77.8,213.288C75.488,212.96 73.877,210.817 74.205,208.505C74.426,206.95 75.468,205.712 76.83,205.168C75.32,204.35 74.4,202.653 74.655,200.853C74.983,198.541 77.775,197.446 77.775,197.446L80.211,197.793C79.847,194.061 79.032,189.996 79.546,186.166L77.779,185.546C75.468,185.218 73.857,183.075 74.185,180.764C74.406,179.209 75.448,177.971 76.81,177.427C75.299,176.608 74.38,174.911 74.635,173.111C74.963,170.8 77.106,169.189 79.418,169.517L83.772,169.936Z" style="fill:white;"/>
    </g>
    <g transform="matrix(0.618121,0,0,0.618121,-32.7838,-86.9086)">
        <path d="M90.229,218.256L127.263,218.256C127.873,218.252 128.367,217.756 128.367,217.145C128.367,216.532 127.869,216.035 127.256,216.035L90.229,216.035C89.616,216.035 89.118,216.532 89.118,217.145C89.118,217.758 89.616,218.256 90.229,218.256ZM138.849,215.656C138.85,215.712 138.86,215.759 138.877,215.801C138.975,216.132 139.141,216.369 139.353,216.524C139.582,216.691 139.873,216.771 140.231,216.739C140.236,216.738 140.241,216.738 140.247,216.737C146.763,215.897 151.881,214.062 155.609,211.248C155.86,211.065 156.015,210.802 156.057,210.45C156.097,210.116 156.023,209.821 155.844,209.563C155.657,209.291 155.405,209.129 155.092,209.073C154.772,209.015 154.485,209.081 154.229,209.265C154.227,209.266 154.226,209.268 154.224,209.269C150.701,211.894 145.878,213.577 139.759,214.338C139.755,214.338 139.751,214.339 139.747,214.339C139.442,214.386 139.193,214.546 139.008,214.829C138.834,215.094 138.784,215.37 138.849,215.656ZM75.596,212.846C75.547,213.208 75.668,213.534 75.984,213.814C76.252,214.051 76.576,214.194 76.959,214.235C76.962,214.235 76.966,214.236 76.969,214.236C79.934,214.485 82.851,215 85.719,215.779C86.103,215.889 86.453,215.854 86.768,215.687C87.118,215.502 87.304,215.234 87.348,214.897L87.38,214.776C87.437,214.387 87.343,214.044 87.102,213.746C86.884,213.476 86.586,213.284 86.202,213.18C83.189,212.357 80.174,211.826 77.16,211.587C76.786,211.546 76.445,211.634 76.137,211.85C75.8,212.088 75.626,212.391 75.597,212.748L75.596,212.846ZM139.306,208.664C139.385,208.978 139.556,209.23 139.818,209.419C140.095,209.619 140.389,209.691 140.696,209.647C146.251,208.865 150.647,207.331 153.888,205.06C153.889,205.059 153.891,205.058 153.892,205.056C154.139,204.878 154.299,204.626 154.361,204.292C154.421,203.964 154.366,203.67 154.205,203.408C154.032,203.127 153.784,202.958 153.46,202.9L153.46,202.899C153.141,202.842 152.853,202.907 152.598,203.092C149.626,205.122 145.487,206.511 140.194,207.271C140.193,207.271 140.191,207.271 140.19,207.272C139.884,207.319 139.633,207.483 139.447,207.779C139.265,208.068 139.223,208.363 139.306,208.664ZM53.454,207.616L53.498,207.672C53.547,207.732 53.598,207.776 53.647,207.807C53.89,207.983 54.168,208.056 54.481,208.024C54.806,207.99 55.081,207.851 55.305,207.605C55.307,207.603 55.308,207.601 55.31,207.599C56.19,206.606 57.199,206.097 58.35,206.097C59.277,206.097 60.189,206.536 61.105,207.372L61.106,207.373C62.473,208.614 63.975,209.226 65.607,209.227C67.649,209.24 69.329,208.457 70.644,206.876C70.65,206.869 70.656,206.861 70.661,206.854C70.861,206.587 70.947,206.283 70.914,205.939C70.881,205.596 70.734,205.313 70.473,205.09L70.354,204.994C70.099,204.786 69.799,204.694 69.451,204.729C69.114,204.763 68.831,204.911 68.606,205.178C68.141,205.699 67.67,206.078 67.186,206.306C66.713,206.528 66.187,206.637 65.608,206.637L65.602,206.637C64.677,206.648 63.767,206.215 62.853,205.381C62.853,205.38 62.852,205.38 62.852,205.379C61.486,204.139 59.983,203.527 58.352,203.526C56.309,203.513 54.63,204.296 53.315,205.877C53.314,205.878 53.313,205.879 53.312,205.881C53.104,206.134 53.01,206.437 53.045,206.795C53.077,207.123 53.213,207.397 53.454,207.616ZM53.601,207.772L53.582,207.757C53.588,207.762 53.595,207.767 53.601,207.772ZM84.997,204.993C82.743,204.39 80.527,203.994 78.351,203.803C78.347,203.803 78.343,203.802 78.339,203.802C77.96,203.78 77.63,203.882 77.346,204.101C77.038,204.338 76.879,204.629 76.85,204.961L77.266,205.416L76.848,205.001L76.848,205.087C76.798,205.479 76.93,205.806 77.251,206.066C77.515,206.279 77.834,206.41 78.212,206.451C78.214,206.451 78.216,206.452 78.219,206.452C80.275,206.639 82.379,207.012 84.531,207.572C84.535,207.573 84.538,207.574 84.542,207.575C84.916,207.661 85.256,207.623 85.564,207.472C85.919,207.297 86.109,207.031 86.154,206.688L86.185,206.571C86.242,206.204 86.154,205.865 85.913,205.555C85.691,205.27 85.387,205.079 84.997,204.993ZM84.997,204.993L84.995,204.992L84.997,204.993ZM140.736,202.928L140.739,202.928C145.796,202.162 149.736,200.941 152.565,199.279C152.859,199.117 153.046,198.867 153.12,198.523C153.19,198.196 153.142,197.896 152.98,197.623C152.816,197.345 152.581,197.163 152.273,197.074C151.955,196.982 151.659,197.019 151.383,197.18C148.72,198.73 144.975,199.857 140.152,200.574C140.15,200.575 140.147,200.575 140.145,200.575C139.849,200.625 139.609,200.788 139.439,201.084C139.283,201.355 139.243,201.648 139.325,201.963C139.406,202.286 139.585,202.539 139.863,202.722C140.144,202.906 140.436,202.971 140.736,202.928ZM76.298,197.903L76.298,197.902L76.305,197.885C76.35,197.58 76.513,197.311 76.814,197.09C77.108,196.874 77.441,196.775 77.814,196.797L77.819,196.797C80.325,196.971 82.949,197.367 85.689,197.986C86.07,198.068 86.38,198.247 86.621,198.514C86.894,198.816 86.998,199.155 86.945,199.526L86.94,199.607L86.943,199.59C86.904,199.938 86.712,200.217 86.34,200.405C86.021,200.567 85.675,200.608 85.303,200.523C82.74,199.961 80.206,199.587 77.701,199.4C77.696,199.399 77.692,199.399 77.687,199.398C77.315,199.358 76.993,199.23 76.719,199.019C76.383,198.759 76.236,198.427 76.267,198.031C76.265,198.052 76.265,198.073 76.267,198.094C76.266,198.088 76.266,198.083 76.266,198.077C76.266,198.016 76.278,197.957 76.298,197.903ZM129.398,192.985L129.544,192.985C129.927,192.976 130.254,192.83 130.524,192.544C130.792,192.262 130.929,191.919 130.929,191.514L130.929,187.449C130.929,187.051 130.797,186.707 130.533,186.415C130.252,186.104 129.909,185.952 129.507,185.952L128.884,185.952L128.884,170.169C128.884,169.764 128.747,169.422 128.48,169.139C128.2,168.844 127.861,168.698 127.462,168.698L118.874,168.698C118.469,168.698 118.131,168.848 117.86,169.149C117.607,169.429 117.477,169.768 117.477,170.169L117.477,171.007C117.477,173.577 117.461,175.524 117.429,176.851C117.397,178.176 117.353,179.391 117.297,180.496C117.244,181.548 117.134,182.364 116.959,182.942C116.784,183.521 116.595,184.024 116.389,184.45C116.196,184.85 115.907,185.35 115.522,185.952L115.314,185.952C114.913,185.952 114.57,186.104 114.288,186.415C114.025,186.707 113.892,187.051 113.892,187.449L113.892,191.514C113.892,191.919 114.029,192.262 114.297,192.545C114.568,192.83 114.894,192.976 115.277,192.985L115.424,192.985C115.806,192.976 116.133,192.83 116.403,192.545C116.672,192.262 116.808,191.919 116.808,191.514L116.808,188.818L128.013,188.818L128.013,191.514C128.013,191.919 128.15,192.262 128.418,192.544C128.688,192.83 129.015,192.976 129.398,192.985ZM94.265,185.902C94.891,186.805 94.939,187.708 94.278,188.61C94.005,188.983 94.086,189.506 94.458,189.778C94.83,190.051 95.353,189.97 95.626,189.598C96.76,188.048 96.712,186.499 95.638,184.95C95.376,184.571 94.855,184.476 94.476,184.739C94.097,185.002 94.002,185.523 94.265,185.902ZM89.502,185.902C90.128,186.805 90.176,187.708 89.515,188.61C89.242,188.983 89.323,189.506 89.695,189.778C90.067,190.051 90.59,189.97 90.863,189.598C91.997,188.048 91.949,186.499 90.875,184.95C90.613,184.571 90.092,184.476 89.713,184.739C89.334,185.002 89.239,185.523 89.502,185.902ZM149.608,188.118C149.54,187.83 149.59,187.552 149.765,187.285C149.95,187.002 150.199,186.842 150.504,186.795C150.508,186.795 150.512,186.794 150.516,186.794C156.635,186.033 161.458,184.35 164.981,181.725C164.983,181.724 164.984,181.722 164.986,181.721C165.242,181.537 165.529,181.471 165.849,181.529C166.162,181.585 166.414,181.747 166.601,182.019C166.78,182.277 166.854,182.572 166.814,182.906C166.772,183.258 166.617,183.521 166.366,183.704C162.638,186.518 157.52,188.353 151.004,189.193C150.998,189.194 150.993,189.194 150.988,189.195C150.63,189.227 150.339,189.147 150.11,188.98C149.888,188.818 149.717,188.567 149.621,188.212C149.624,188.225 149.628,188.237 149.632,188.249C149.618,188.207 149.61,188.163 149.608,188.118ZM75.596,185.121C75.547,185.483 75.668,185.809 75.984,186.089C76.252,186.327 76.576,186.469 76.959,186.51C76.962,186.511 76.966,186.511 76.969,186.511C79.934,186.761 82.851,187.275 85.719,188.054C86.103,188.164 86.453,188.129 86.768,187.962C87.118,187.778 87.304,187.509 87.348,187.172L87.38,187.051C87.437,186.662 87.343,186.319 87.102,186.021C86.884,185.751 86.586,185.559 86.202,185.456C83.189,184.632 80.174,184.101 77.16,183.863C76.786,183.821 76.445,183.909 76.137,184.126C75.8,184.363 75.626,184.666 75.597,185.023L75.596,185.121ZM115.699,185.959L115.699,185.952C115.686,185.952 115.672,185.953 115.659,185.954L115.699,185.959ZM119.046,185.952C119.705,184.621 120.103,183.306 120.245,182.007C120.402,180.571 120.485,177.089 120.488,171.563L125.8,171.563L125.8,185.952L119.046,185.952ZM150.063,181.12C150.142,181.434 150.313,181.686 150.575,181.875C150.852,182.075 151.146,182.147 151.453,182.103C157.008,181.321 161.404,179.787 164.645,177.516C164.646,177.515 164.648,177.514 164.649,177.512C164.896,177.334 165.056,177.082 165.118,176.748C165.178,176.42 165.123,176.126 164.962,175.864C164.789,175.583 164.541,175.414 164.217,175.356L164.217,175.355C163.898,175.298 163.61,175.363 163.355,175.548C160.383,177.578 156.244,178.967 150.951,179.727C150.95,179.727 150.948,179.727 150.947,179.728C150.641,179.775 150.39,179.939 150.204,180.235C150.022,180.524 149.98,180.819 150.063,181.12ZM140.908,175.506C142.187,175.506 143.225,176.545 143.225,177.824C143.225,179.103 142.187,180.141 140.908,180.141C139.629,180.141 138.59,179.103 138.59,177.824C138.59,176.545 139.629,175.506 140.908,175.506ZM104.202,175.506C105.481,175.506 106.519,176.545 106.519,177.824C106.519,179.103 105.481,180.141 104.202,180.141C102.923,180.141 101.884,179.103 101.884,177.824C101.884,176.545 102.923,175.506 104.202,175.506ZM84.997,177.268C82.743,176.665 80.527,176.269 78.351,176.078C78.347,176.078 78.343,176.078 78.339,176.077C77.96,176.056 77.63,176.157 77.346,176.376C77.038,176.613 76.879,176.904 76.85,177.236L77.266,177.691L76.848,177.276L76.848,177.362C76.798,177.754 76.93,178.081 77.251,178.341C77.515,178.555 77.834,178.686 78.212,178.726C78.214,178.727 78.216,178.727 78.219,178.727C80.275,178.914 82.379,179.287 84.531,179.847C84.535,179.848 84.538,179.849 84.542,179.85C84.916,179.937 85.256,179.899 85.564,179.747C85.919,179.572 86.109,179.306 86.154,178.963L86.185,178.846C86.242,178.479 86.154,178.14 85.913,177.83C85.691,177.545 85.387,177.354 84.997,177.268ZM84.997,177.268L84.995,177.267L84.997,177.268ZM151.493,175.384L151.496,175.384C156.553,174.618 160.493,173.397 163.322,171.735C163.616,171.573 163.803,171.323 163.877,170.979C163.947,170.652 163.899,170.352 163.737,170.079C163.573,169.801 163.338,169.619 163.03,169.53C162.712,169.438 162.416,169.475 162.14,169.636C159.477,171.186 155.732,172.313 150.909,173.03C150.907,173.031 150.904,173.031 150.902,173.031C150.606,173.081 150.366,173.244 150.196,173.54C150.04,173.811 150,174.104 150.082,174.419C150.163,174.742 150.342,174.995 150.62,175.178C150.901,175.362 151.193,175.427 151.493,175.384ZM76.298,170.178L76.298,170.177L76.305,170.16C76.35,169.856 76.513,169.586 76.814,169.365C77.108,169.149 77.441,169.05 77.814,169.072L77.819,169.072C80.325,169.247 82.949,169.643 85.689,170.261C86.07,170.344 86.38,170.522 86.621,170.789C86.894,171.092 86.998,171.43 86.945,171.801L86.94,171.882L86.943,171.866C86.904,172.214 86.712,172.492 86.34,172.681C86.021,172.842 85.675,172.884 85.303,172.798C82.74,172.237 80.206,171.862 77.701,171.675C77.696,171.674 77.692,171.674 77.687,171.673C77.315,171.633 76.993,171.505 76.719,171.294C76.383,171.034 76.236,170.702 76.267,170.306C76.265,170.328 76.265,170.35 76.267,170.371C76.267,170.364 76.266,170.357 76.266,170.35C76.266,170.289 76.278,170.231 76.298,170.178ZM86.433,172.075L86.439,172.066L86.53,172.171L86.433,172.075ZM93.999,161.292L100.172,148.259L106.346,161.292C106.691,162.021 107.563,162.332 108.292,161.987C109.021,161.642 109.333,160.77 108.987,160.041L101.493,144.22C101.251,143.709 100.737,143.384 100.172,143.384C99.607,143.384 99.093,143.709 98.852,144.22L91.357,160.041C91.012,160.77 91.323,161.642 92.052,161.987C92.781,162.332 93.653,162.021 93.999,161.292ZM124.923,161.292L131.096,148.259L137.27,161.292C137.615,162.021 138.487,162.332 139.216,161.987C139.945,161.642 140.257,160.77 139.911,160.041L132.417,144.22C132.175,143.709 131.661,143.384 131.096,143.384C130.531,143.384 130.017,143.709 129.776,144.22L122.281,160.041C121.936,160.77 122.247,161.642 122.976,161.987C123.705,162.332 124.577,162.021 124.923,161.292Z" style="fill-rule:nonzero;"/>
    </g>
</svg>
