<?xml version="1.0" encoding="UTF-8" standalone="no"?>
<!DOCTYPE svg PUBLIC "-//W3C//DTD SVG 1.1//EN" "http://www.w3.org/Graphics/SVG/1.1/DTD/svg11.dtd">
<svg width="52px" height="45px" version="1.1" xmlns="http://www.w3.org/2000/svg" xmlns:xlink="http://www.w3.org/1999/xlink" xml:space="preserve" xmlns:serif="http://www.serif.com/" style="fill-rule:evenodd;clip-rule:evenodd;stroke-linejoin:round;stroke-miterlimit:2;">
    <g transform="matrix(-0.69311,0,0,0.807813,406.179,-358.742)">
        <path d="M577.838,457.925L571.402,446.265L564.965,457.925C560.949,457.585 556.934,457.535 552.919,457.925L546.482,446.265L539.878,457.686C538.067,460.532 536.49,462.945 535.125,464.984C530.758,469.672 530.911,474.662 535.523,479.35L523.763,479.375L515.364,466.856C515.364,466.856 514.406,465.466 513.512,464.17C513.325,463.899 512.951,463.769 512.598,463.852C512.245,463.935 512,464.211 512,464.525L512,481C511.9,481.028 512.251,491.32 512.444,494.132C512.627,496.779 514.573,498.936 517.199,498.936L517.2,498.936C519.674,498.936 521.68,496.91 521.68,494.41L521.68,489.102C521.68,488.599 521.913,488.116 522.328,487.76C522.742,487.404 523.305,487.204 523.892,487.204L523.893,487.204C524.48,487.204 525.042,487.404 525.457,487.76C525.872,488.116 526.105,488.599 526.105,489.102L526.105,494.132C526.105,496.785 528.234,498.936 530.86,498.936L530.861,498.936C533.335,498.936 535.341,496.91 535.341,494.41L535.341,491.256C535.341,490.066 535.892,488.925 536.873,488.083C537.853,487.241 539.184,486.769 540.571,486.769L540.572,486.769C541.959,486.769 543.289,487.241 544.27,488.083C545.251,488.925 545.802,490.066 545.802,491.256L545.802,494.132C545.802,496.785 547.931,498.936 550.557,498.936L550.558,498.936C553.032,498.936 555.038,496.91 555.038,494.41L555.038,489.102C555.038,488.599 555.271,488.116 555.685,487.76C556.1,487.404 556.663,487.204 557.25,487.204L557.251,487.204C557.838,487.204 558.4,487.404 558.815,487.76C559.23,488.116 559.463,488.599 559.463,489.102L559.463,494.132C559.463,496.785 561.592,498.936 564.218,498.936L564.219,498.936C566.693,498.936 568.698,496.91 568.698,494.41L568.698,488.855C568.699,487.208 569.914,485.742 571.727,485.201C575.214,484.166 579.753,482.276 582.631,479.031C586.845,473.783 585.394,469.433 582.151,464.962C581.38,463.802 580.284,462.064 577.838,457.925Z" style="fill:white;"/>
    </g>
    <g transform="matrix(0.625257,0,0,0.625257,-42.7784,-91.4836)">
        <path d="M148.868,203.272L148.868,210.966C148.868,213.736 147.06,216.062 144.709,216.062L144.708,216.062C142.525,216.062 140.853,213.896 140.853,211.326L140.853,203.272C140.853,202.659 140.355,202.161 139.742,202.161C139.129,202.161 138.631,202.659 138.631,203.272L138.631,211.325C138.631,215.215 141.405,218.284 144.708,218.284L144.709,218.284C148.18,218.284 151.091,215.054 151.091,210.966L151.091,203.272C151.091,202.659 150.593,202.161 149.98,202.161C149.366,202.161 148.868,202.659 148.868,203.272ZM96.747,203.272L96.747,210.966C96.747,213.736 94.939,216.062 92.588,216.062L92.586,216.062C90.403,216.062 88.732,213.896 88.732,211.326L88.732,203.272C88.732,202.659 88.234,202.161 87.621,202.161C87.007,202.161 86.509,202.659 86.509,203.272L86.509,211.325C86.509,215.215 89.284,218.284 92.586,218.284L92.588,218.284C96.059,218.284 98.969,215.054 98.969,210.966L98.969,203.272C98.969,202.659 98.471,202.161 97.858,202.161C97.245,202.161 96.747,202.659 96.747,203.272ZM111.89,203.272L111.89,210.966C111.89,213.736 110.082,216.062 107.731,216.062L107.73,216.062C105.547,216.062 103.875,213.896 103.875,211.326L103.875,203.272C103.875,202.659 103.377,202.161 102.764,202.161C102.151,202.161 101.653,202.659 101.653,203.272L101.653,211.325C101.653,215.215 104.427,218.284 107.73,218.284L107.731,218.284C111.202,218.284 114.113,215.054 114.113,210.966L114.113,203.272C114.113,202.659 113.615,202.161 113.002,202.161C112.388,202.161 111.89,202.659 111.89,203.272ZM133.725,203.272L133.725,210.966C133.725,213.736 131.917,216.062 129.566,216.062L129.564,216.062C127.381,216.062 125.71,213.896 125.71,211.326L125.71,203.272C125.71,202.659 125.212,202.161 124.599,202.161C123.985,202.161 123.487,202.659 123.487,203.272L123.487,211.325C123.487,215.215 126.262,218.284 129.564,218.284L129.566,218.284C133.037,218.284 135.947,215.054 135.947,210.966L135.947,203.272C135.947,202.659 135.449,202.161 134.836,202.161C134.223,202.161 133.725,202.659 133.725,203.272ZM149.361,172.037L149.361,194C149.361,194.614 149.859,195.112 150.472,195.112C151.085,195.112 151.583,194.614 151.583,194L151.583,172.037C151.583,171.424 151.085,170.926 150.472,170.926C149.859,170.926 149.361,171.424 149.361,172.037ZM128.363,193.352L134.207,193.352C134.784,193.352 135.252,192.884 135.252,192.308C135.252,191.731 134.784,191.263 134.207,191.263L128.363,191.263C127.786,191.263 127.318,191.731 127.318,192.308C127.318,192.884 127.786,193.352 128.363,193.352ZM72.393,173.005C69.795,176.256 68.454,179.52 68.418,182.771C68.381,186.038 69.654,189.319 72.412,192.586C72.808,193.055 73.509,193.114 73.978,192.718C74.446,192.323 74.506,191.621 74.11,191.153C71.755,188.363 70.608,185.586 70.64,182.796C70.671,179.991 71.887,177.198 74.129,174.392C74.512,173.913 74.434,173.213 73.955,172.83C73.476,172.448 72.776,172.526 72.393,173.005ZM123.528,174.392C125.77,177.198 126.986,179.991 127.018,182.796C127.049,185.586 125.902,188.363 123.547,191.153C123.152,191.621 123.211,192.323 123.679,192.718C124.148,193.114 124.85,193.055 125.245,192.586C128.003,189.319 129.276,186.038 129.24,182.771C129.203,179.52 127.862,176.256 125.264,173.005C124.881,172.526 124.182,172.448 123.702,172.83C123.223,173.213 123.145,173.913 123.528,174.392ZM145.747,175.153L136.72,190.836C136.403,191.386 136.593,192.089 137.142,192.405C137.692,192.722 138.395,192.532 138.712,191.983L147.739,176.3C148.055,175.75 147.866,175.047 147.316,174.73C146.767,174.414 146.063,174.603 145.747,175.153ZM88.886,181.443C88.884,181.655 88.986,181.906 89.02,181.972C89.586,183.077 90.746,183.786 92.012,183.786L108.101,183.786C108.714,183.786 109.212,183.288 109.212,182.675C109.212,182.062 108.714,181.564 108.101,181.564L92.012,181.564C91.589,181.564 91.201,181.332 91,180.962C90.995,180.954 90.991,180.945 90.986,180.937C90.413,179.818 88.895,180.252 88.886,181.443ZM83.518,172.922L81.094,175.405C80.666,175.844 80.674,176.548 81.113,176.976C81.552,177.404 82.256,177.396 82.684,176.957L85.108,174.475C85.536,174.036 85.528,173.332 85.089,172.903C84.65,172.475 83.946,172.483 83.518,172.922ZM113.302,173.475L115.725,175.957C116.153,176.396 116.857,176.404 117.296,175.976C117.735,175.548 117.744,174.844 117.315,174.405L114.892,171.922C114.463,171.483 113.759,171.475 113.321,171.903C112.882,172.332 112.873,173.036 113.302,173.475ZM84.624,148.013C84.464,148.013 84.302,148.047 84.148,148.12C84.031,148.176 83.928,148.25 83.84,148.337L83.836,148.341C83.749,148.428 83.676,148.531 83.62,148.649L76.484,163.713C76.222,164.267 76.459,164.93 77.013,165.192C77.567,165.455 78.23,165.218 78.493,164.664L84.624,151.72L90.756,164.664C91.018,165.218 91.681,165.455 92.235,165.192C92.79,164.93 93.026,164.267 92.764,163.713L85.628,148.649C85.573,148.531 85.499,148.428 85.412,148.341L85.408,148.337C85.321,148.25 85.217,148.176 85.1,148.12C84.946,148.047 84.784,148.013 84.624,148.013ZM112.248,148.013C112.088,148.013 111.926,148.047 111.773,148.12C111.655,148.176 111.552,148.25 111.464,148.337L111.46,148.341C111.373,148.428 111.3,148.531 111.244,148.649L104.108,163.713C103.846,164.267 104.083,164.93 104.637,165.192C105.191,165.455 105.854,165.218 106.117,164.664L112.248,151.72L118.38,164.664C118.642,165.218 119.305,165.455 119.859,165.192C120.414,164.93 120.65,164.267 120.388,163.713L113.252,148.649C113.197,148.531 113.123,148.428 113.036,148.341L113.032,148.337C112.945,148.25 112.841,148.176 112.724,148.12C112.57,148.047 112.408,148.013 112.248,148.013Z"/>
    </g>
</svg>
