<?xml version="1.0" encoding="UTF-8" standalone="no"?>
<!DOCTYPE svg PUBLIC "-//W3C//DTD SVG 1.1//EN" "http://www.w3.org/Graphics/SVG/1.1/DTD/svg11.dtd">
<svg width="71px" height="103px" version="1.1" xmlns="http://www.w3.org/2000/svg" xmlns:xlink="http://www.w3.org/1999/xlink" xml:space="preserve" xmlns:serif="http://www.serif.com/" style="fill-rule:evenodd;clip-rule:evenodd;stroke-linejoin:round;stroke-miterlimit:2;">
    <g transform="matrix(0.622898,0,0,0.622898,-41.4153,-19.5684)">
        <path d="M74.683,175.525C74.46,164.762 84.13,166.437 84.13,166.437C79.517,159.964 79.763,152.995 84.13,146.523C79.856,145.308 75.866,143.098 72.13,139.998C67.517,133.525 67.763,127.053 72.13,120.581C77.163,115.407 78.824,114.63 84.13,111.94C79.517,105.467 79.763,98.995 84.13,92.523C79.177,91.235 74.821,88.754 71.13,84.94C66.517,78.467 66.763,71.995 71.13,65.523C72.751,63.121 75.258,60.858 77.762,59.523L77.762,36.521C77.762,34.313 79.552,32.523 81.76,32.523L131.331,32.523C134.224,32.523 136.853,34.203 138.069,36.828C138.431,37.609 138.696,38.182 138.696,38.182L156.973,54.772C165.15,56.225 172.877,61.248 175.762,65.523C180.13,71.995 180.375,78.467 175.762,84.94C171.456,90.662 166.017,95.636 148.17,97.523L148.171,97.523C151.341,97.523 153.911,100.093 153.911,103.263C153.911,106.689 154.356,110 154.356,110C152.849,112.148 151.343,117.612 151.06,120.581C151.06,120.581 150.454,129.117 150.454,131.957C150.454,132.853 150.213,133.733 149.756,134.505C148.665,136.345 147.005,137.435 144.762,137.598C142.341,138.406 140.647,138.846 139.396,139.378C135.865,140.879 134.974,145.835 134.108,150.523C133.55,158.325 131.322,162.961 124.889,166.881C123.652,167.462 122.953,168.72 123.834,169.95C124.796,171.294 126.229,173.177 127.628,175.602C131.996,182.074 132.824,188.181 128.21,194.654C127.416,195.768 125.441,196.074 123.834,195.943L102.015,195.943C100.141,196.133 97.865,195.671 96.54,194.654C91.927,188.181 91.022,184.426 95.39,177.954C93.119,177.758 92.613,177.255 90.581,177.954C88.419,178.698 87.862,183.691 86.926,185.233C83.342,194.474 72.255,196.047 74.683,175.525Z" style="fill:white;"/>
    </g>
    <g transform="matrix(0.622898,0,0,0.622898,-33.0397,-33.6384)">
        <path d="M88.569,219.359L110.388,219.359C111.077,219.359 111.636,218.8 111.636,218.111C111.636,217.422 111.077,216.863 110.388,216.863L88.569,216.863C87.88,216.863 87.321,217.422 87.321,218.111C87.321,218.8 87.88,219.359 88.569,219.359ZM82.313,197.49C77.625,204.438 77.379,211.385 82.331,218.332C82.731,218.894 83.512,219.025 84.074,218.625C84.636,218.224 84.767,217.443 84.367,216.881C80.092,210.884 80.338,204.886 84.385,198.889C84.771,198.317 84.62,197.539 84.048,197.153C83.476,196.768 82.698,196.919 82.313,197.49ZM113.146,198.889C117.193,204.886 117.439,210.884 113.164,216.881C112.764,217.443 112.895,218.224 113.457,218.625C114.019,219.025 114.8,218.894 115.2,218.332C120.152,211.385 119.906,204.438 115.218,197.49C114.833,196.919 114.055,196.768 113.483,197.153C112.911,197.539 112.76,198.317 113.146,198.889ZM73.277,207.028L73.263,207.023C72.956,206.911 72.649,206.922 72.342,207.061C72.038,207.198 71.819,207.424 71.689,207.744C71.688,207.745 71.688,207.746 71.687,207.747C70.968,209.542 70.095,210.91 69.052,211.84C68.064,212.721 66.99,213.17 65.822,213.17C65.153,213.17 64.613,213.104 64.203,212.958C63.836,212.828 63.514,212.577 63.229,212.218C62.921,211.829 62.715,211.272 62.586,210.553C62.443,209.756 62.373,208.731 62.373,207.477C62.373,205.103 62.437,202.245 62.565,198.905C62.585,198.574 62.477,198.276 62.23,198.015C61.998,197.771 61.731,197.643 61.438,197.614L61.273,197.591C60.922,197.567 60.616,197.684 60.359,197.954C60.13,198.195 60.007,198.479 59.986,198.806C59.986,198.811 59.985,198.815 59.985,198.82C59.857,202.231 59.793,205.117 59.793,207.477C59.793,210.548 60.25,212.66 61.091,213.827C61.972,215.051 63.537,215.709 65.822,215.709C67.598,215.709 69.197,215.101 70.615,213.877C71.988,212.692 73.129,210.955 74.022,208.655C74.023,208.652 74.025,208.649 74.026,208.646C74.132,208.354 74.132,208.052 74.015,207.738C73.888,207.399 73.661,207.172 73.339,207.05L73.372,207.064L73.277,207.028ZM119.414,173.022C118.89,180.347 116.831,184.72 110.791,188.4C110.201,188.759 110.014,189.53 110.373,190.121C110.733,190.711 111.504,190.898 112.094,190.538C118.92,186.38 121.319,181.479 121.911,173.2C121.96,172.511 121.441,171.912 120.752,171.862C120.062,171.813 119.463,172.333 119.414,173.022ZM69.648,168.412C64.96,175.359 64.715,182.306 69.666,189.253C70.067,189.815 70.848,189.946 71.41,189.546C71.972,189.145 72.103,188.364 71.702,187.802C67.428,181.805 67.674,175.807 71.721,169.81C72.106,169.238 71.955,168.461 71.384,168.075C70.812,167.689 70.034,167.84 69.648,168.412ZM94.621,176.993C98.248,179.425 102.496,183.109 104.835,185.634C105.303,186.14 106.093,186.17 106.599,185.702C107.104,185.234 107.135,184.444 106.667,183.938C104.226,181.303 99.796,177.457 96.011,174.92C95.439,174.536 94.663,174.689 94.279,175.262C93.895,175.834 94.049,176.61 94.621,176.993ZM57.648,142.47C52.96,149.417 52.715,156.364 57.666,163.311C58.067,163.873 58.848,164.004 59.41,163.604C59.972,163.203 60.103,162.422 59.702,161.86C55.428,155.863 55.674,149.865 59.721,143.868C60.106,143.296 59.955,142.519 59.384,142.133C58.812,141.747 58.034,141.898 57.648,142.47ZM135.857,143.111L135.857,154.545C135.857,155.235 135.675,155.913 135.324,156.508C134.431,158.013 133.064,158.905 131.232,159.039C130.599,159.085 130.122,159.637 130.168,160.27C130.214,160.903 130.766,161.38 131.399,161.334C134.044,161.141 136.016,159.853 137.305,157.68C137.305,157.679 137.305,157.679 137.306,157.678C137.866,156.729 138.158,155.647 138.158,154.545L138.158,143.111C138.158,142.476 137.642,141.96 137.007,141.96C136.372,141.96 135.857,142.476 135.857,143.111ZM65.659,151.321C68.334,150.559 70.656,149.388 72.81,148.754C74.586,148.232 76.229,148.098 77.882,149.247C79.04,150.053 79.601,151.066 79.823,152.065C80.26,154.031 79.247,156.032 77.404,156.845C77.403,156.846 77.401,156.847 77.4,156.847C75.883,157.524 74.196,158.193 71.87,158.353C71.181,158.401 70.66,158.999 70.707,159.689C70.755,160.378 71.353,160.899 72.043,160.852C74.722,160.667 76.672,159.914 78.42,159.135C81.351,157.842 82.964,154.654 82.268,151.522C81.927,149.99 81.087,148.425 79.312,147.191C76.957,145.554 74.632,145.608 72.104,146.351C69.955,146.983 67.641,148.152 64.973,148.912C64.308,149.101 63.922,149.795 64.112,150.459C64.301,151.124 64.994,151.51 65.659,151.321ZM69.648,114.412C64.96,121.359 64.715,128.306 69.666,135.253C70.067,135.815 70.848,135.946 71.41,135.546C71.972,135.145 72.103,134.364 71.702,133.802C67.428,127.805 67.674,121.807 71.721,115.81C72.106,115.238 71.955,114.461 71.384,114.075C70.812,113.689 70.034,113.84 69.648,114.412ZM134.725,118.86L134.724,118.86C131.046,118.86 128.064,121.842 128.064,125.52L128.064,132.968C128.064,133.658 128.625,134.219 129.316,134.219C130.007,134.219 130.568,133.658 130.568,132.968L130.568,125.52C130.568,123.225 132.428,121.364 134.724,121.364L134.725,121.364C137.204,121.364 139.213,123.374 139.213,125.852L139.213,132.968C139.213,133.658 139.774,134.219 140.465,134.219C141.156,134.219 141.717,133.658 141.717,132.968L141.717,125.852C141.717,121.991 138.587,118.86 134.725,118.86ZM102.346,120.039L92.999,120.039L91.203,116.448C90.894,115.83 90.141,115.579 89.523,115.888C88.904,116.197 88.654,116.95 88.963,117.568L96.552,132.746C96.764,133.17 97.198,133.438 97.672,133.438C98.146,133.438 98.58,133.17 98.792,132.746L106.381,117.568C106.69,116.95 106.439,116.197 105.821,115.888C105.203,115.579 104.45,115.83 104.141,116.448L102.346,120.039ZM101.093,122.543L94.251,122.543L97.672,129.386L101.093,122.543ZM111.018,115.995L114.812,119.789C115.3,120.277 116.092,120.277 116.58,119.789C117.068,119.301 117.068,118.509 116.58,118.022L112.785,114.227C112.297,113.739 111.505,113.739 111.018,114.227C110.53,114.715 110.53,115.507 111.018,115.995ZM79.713,114.227L75.918,118.022C75.43,118.509 75.43,119.301 75.918,119.789C76.406,120.277 77.198,120.277 77.686,119.789L81.48,115.995C81.968,115.507 81.968,114.715 81.48,114.227C80.992,113.739 80.2,113.739 79.713,114.227ZM93.204,86.11L93.204,109.11C93.204,109.724 93.702,110.222 94.316,110.222C94.93,110.222 95.428,109.724 95.428,109.11L95.428,86.11C95.428,85.496 94.93,84.998 94.316,84.998C93.702,84.998 93.204,85.496 93.204,86.11ZM148.204,86.11L148.204,109.11C148.204,109.724 148.702,110.222 149.316,110.222C149.93,110.222 150.428,109.724 150.428,109.11L150.428,86.11C150.428,85.496 149.93,84.998 149.316,84.998C148.702,84.998 148.204,85.496 148.204,86.11ZM145.316,108.005L98.316,108.005C97.706,108.005 97.211,108.5 97.211,109.11C97.211,109.719 97.706,110.214 98.316,110.214L145.316,110.214C145.926,110.214 146.42,109.719 146.42,109.11C146.42,108.5 145.926,108.005 145.316,108.005ZM56.648,87.412C51.96,94.359 51.715,101.306 56.666,108.253C57.067,108.815 57.848,108.946 58.41,108.546C58.972,108.145 59.103,107.364 58.702,106.802C54.428,100.805 54.674,94.807 58.721,88.81C59.106,88.238 58.955,87.461 58.384,87.075C57.812,86.689 57.034,86.84 56.648,87.412ZM161.279,88.81C165.326,94.807 165.572,100.805 161.297,106.802C160.897,107.364 161.028,108.145 161.59,108.546C162.152,108.946 162.933,108.815 163.333,108.253C168.285,101.306 168.039,94.359 163.351,87.412C162.966,86.84 162.188,86.689 161.616,87.075C161.044,87.461 160.893,88.238 161.279,88.81ZM67.584,89.95L87.584,107.383C88.047,107.787 88.751,107.738 89.155,107.275C89.558,106.812 89.51,106.109 89.047,105.705L69.047,88.272C68.584,87.868 67.88,87.917 67.477,88.38C67.073,88.843 67.121,89.546 67.584,89.95ZM63.204,59.11L63.204,82.11C63.204,82.724 63.702,83.222 64.316,83.222C64.93,83.222 65.428,82.724 65.428,82.11L65.428,59.11C65.428,58.496 64.93,57.998 64.316,57.998C63.702,57.998 63.204,58.496 63.204,59.11ZM123.316,81.009L99.316,81.009C98.708,81.009 98.214,81.503 98.214,82.111C98.214,82.719 98.708,83.213 99.316,83.213L123.316,83.213C123.924,83.213 124.418,82.719 124.418,82.111C124.418,81.503 123.924,81.009 123.316,81.009ZM67.584,61.95L87.584,79.383C88.047,79.787 88.751,79.738 89.155,79.275C89.558,78.812 89.51,78.109 89.047,77.705L69.047,60.272C68.584,59.868 67.88,59.917 67.477,60.38C67.073,60.843 67.121,61.546 67.584,61.95ZM123.584,61.95L143.584,79.383C144.047,79.787 144.751,79.738 145.155,79.275C145.558,78.812 145.51,78.109 145.047,77.705L125.047,60.272C124.584,59.868 123.88,59.917 123.477,60.38C123.073,60.843 123.121,61.546 123.584,61.95ZM121.316,54.003L72.316,54.003C71.705,54.003 71.21,54.499 71.21,55.109C71.21,55.72 71.705,56.216 72.316,56.216L121.316,56.216C121.926,56.216 122.422,55.72 122.422,55.109C122.422,54.499 121.926,54.003 121.316,54.003Z"/>
    </g>
</svg>
