<?xml version="1.0" encoding="UTF-8" standalone="no"?>
<!DOCTYPE svg PUBLIC "-//W3C//DTD SVG 1.1//EN" "http://www.w3.org/Graphics/SVG/1.1/DTD/svg11.dtd">
<svg width="70px" height="111px" version="1.1" xmlns="http://www.w3.org/2000/svg" xmlns:xlink="http://www.w3.org/1999/xlink" xml:space="preserve" xmlns:serif="http://www.serif.com/" style="fill-rule:evenodd;clip-rule:evenodd;stroke-linejoin:round;stroke-miterlimit:2;">
    <g transform="matrix(-0.432285,0,0,0.432285,87.4399,20.8522)">
        <path d="M87.419,192.119L87.419,200.77C87.419,204.24 90.005,207.052 93.195,207.052L93.196,207.052C96.582,207.052 99.326,204.067 99.326,200.384L99.326,192.119C102.175,189.484 108.707,189.238 111.946,189.069C115.223,188.898 125.779,189.691 127.107,192.119L127.107,200.77C127.107,204.24 129.692,207.052 132.882,207.052L132.883,207.052C136.269,207.052 138.761,204.058 139.013,200.384C139.22,197.369 140.23,181.026 139.918,179.572L161.763,179.496L161.763,59.331L176.302,49.615L199.11,30.376L200.492,18.981L200.492,-5.473L198.832,-14.46L176.025,-33.699L163.921,-43.151L82.561,-43.151L70.404,-32.59L47.596,-13.351L42.125,-5.473L42.125,18.981L47.319,30.376L74.575,53.368C77.412,54.722 78.839,58.347 77,61C72.148,68 71.875,75 77,82C80.658,85.74 81.251,89.558 78.011,93.47C73.585,99.856 73.175,111.603 82.736,118.315C84.579,119.612 85.685,121.717 85.708,123.97C85.947,137.205 86.375,179.884 86.375,179.884C87.206,184.121 87.368,188.082 87.419,192.119Z" style="fill:white;"/>
    </g>
    <g transform="matrix(0.614423,0,0,0.614423,-32.5865,-23.2797)">
        <path d="M124.422,206.994L124.422,212.81C124.422,216.001 126.845,218.546 129.779,218.546L129.78,218.546C132.576,218.546 134.888,216.122 134.888,213.081L134.888,206.994C134.888,206.418 134.42,205.95 133.843,205.95C133.267,205.95 132.799,206.418 132.799,206.994L132.799,213.081C132.798,214.922 131.472,216.456 129.78,216.456L129.779,216.456C127.949,216.456 126.511,214.801 126.511,212.81L126.511,206.994C126.511,206.418 126.043,205.95 125.466,205.95C124.89,205.95 124.422,206.418 124.422,206.994ZM96.499,206.994L96.499,212.81C96.499,216.001 98.923,218.546 101.856,218.546L101.858,218.546C104.653,218.546 106.965,216.122 106.965,213.081L106.965,206.994C106.965,206.418 106.497,205.95 105.921,205.95C105.344,205.95 104.876,206.418 104.876,206.994L104.876,213.081C104.876,214.922 103.55,216.456 101.858,216.456L101.856,216.456C100.026,216.456 98.588,214.801 98.588,212.81L98.588,206.994C98.588,206.418 98.12,205.95 97.544,205.95C96.967,205.95 96.499,206.418 96.499,206.994ZM115.68,203.204L113.782,206.988C113.523,207.504 113.732,208.132 114.247,208.39C114.763,208.649 115.391,208.44 115.649,207.925L117.547,204.141C117.806,203.625 117.597,202.997 117.082,202.739C116.566,202.48 115.938,202.689 115.68,203.204ZM111.571,203.204L109.673,206.988C109.415,207.504 109.623,208.132 110.139,208.39C110.654,208.649 111.282,208.44 111.541,207.925L113.439,204.141C113.697,203.625 113.488,202.997 112.973,202.739C112.458,202.48 111.829,202.689 111.571,203.204ZM81.546,179.655L81.538,179.655C80.846,179.655 80.284,180.216 80.284,180.908L80.284,198.113C80.284,198.805 80.846,199.367 81.538,199.367L81.546,199.367C82.234,199.363 82.791,198.803 82.791,198.113L82.791,180.908C82.791,180.219 82.234,179.659 81.546,179.655ZM108.722,199.29L134.129,199.29C134.705,199.29 135.174,198.821 135.174,198.245C135.174,197.668 134.705,197.2 134.129,197.2L108.722,197.2C108.145,197.2 107.677,197.668 107.677,198.245C107.677,198.821 108.145,199.29 108.722,199.29ZM85.166,199.29L102.914,199.29C103.49,199.29 103.958,198.821 103.958,198.245C103.958,197.668 103.49,197.2 102.914,197.2L85.166,197.2C84.589,197.2 84.121,197.668 84.121,198.245C84.121,198.821 84.589,199.29 85.166,199.29ZM106.767,195.232L106.767,187.674C106.767,187.061 106.269,186.563 105.656,186.563C105.043,186.563 104.545,187.061 104.545,187.674L104.545,195.232C104.545,195.845 105.043,196.343 105.656,196.343C106.269,196.343 106.767,195.845 106.767,195.232ZM135.774,195.232L135.774,187.674C135.774,187.061 135.277,186.563 134.663,186.563C134.05,186.563 133.552,187.061 133.552,187.674L133.552,195.232C133.552,195.845 134.05,196.343 134.663,196.343C135.277,196.343 135.774,195.845 135.774,195.232ZM106.767,184.115L106.767,183.505C106.767,182.892 106.269,182.394 105.656,182.394C105.043,182.394 104.545,182.892 104.545,183.505L104.545,184.115C104.545,184.728 105.043,185.226 105.656,185.226C106.269,185.226 106.767,184.728 106.767,184.115ZM135.774,184.115L135.774,183.505C135.774,182.892 135.277,182.394 134.663,182.394C134.05,182.394 133.552,182.892 133.552,183.505L133.552,184.115C133.552,184.728 134.05,185.226 134.663,185.226C135.277,185.226 135.774,184.728 135.774,184.115ZM81.546,157.209L81.538,157.209C80.846,157.209 80.284,157.77 80.284,158.462L80.284,175.667C80.284,176.359 80.846,176.921 81.538,176.921L81.546,176.921C82.234,176.916 82.791,176.356 82.791,175.667L82.791,158.462C82.791,157.773 82.234,157.213 81.546,157.209ZM106.767,172.389L106.767,164.832C106.767,164.218 106.269,163.721 105.656,163.721C105.043,163.721 104.545,164.218 104.545,164.832L104.545,172.389C104.545,173.003 105.043,173.5 105.656,173.5C106.269,173.5 106.767,173.003 106.767,172.389ZM135.774,172.389L135.774,164.832C135.774,164.218 135.277,163.721 134.663,163.721C134.05,163.721 133.552,164.218 133.552,164.832L133.552,172.389C133.552,173.003 134.05,173.5 134.663,173.5C135.277,173.5 135.774,173.003 135.774,172.389ZM135.774,161.272L135.774,160.663C135.774,160.05 135.277,159.552 134.663,159.552C134.05,159.552 133.552,160.05 133.552,160.663L133.552,161.272C133.552,161.886 134.05,162.383 134.663,162.383C135.277,162.383 135.774,161.886 135.774,161.272ZM106.767,161.272L106.767,160.663C106.767,160.05 106.269,159.552 105.656,159.552C105.043,159.552 104.545,160.05 104.545,160.663L104.545,161.272C104.545,161.886 105.043,162.383 105.656,162.383C106.269,162.383 106.767,161.886 106.767,161.272ZM134.489,135.712L134.489,153.953C134.489,154.645 135.051,155.207 135.743,155.207C136.435,155.207 136.996,154.645 136.996,153.953L136.996,135.712C136.996,135.02 136.435,134.458 135.743,134.458C135.051,134.458 134.489,135.02 134.489,135.712ZM81.546,134.417L81.538,134.417C80.846,134.417 80.284,134.979 80.284,135.671L80.284,152.876C80.284,153.568 80.846,154.129 81.538,154.129L81.546,154.129C82.234,154.125 82.791,153.565 82.791,152.876L82.791,135.671C82.791,134.981 82.234,134.421 81.546,134.417ZM90.425,137.425C86.731,142.754 86.539,148.084 90.441,153.413C90.782,153.878 91.436,153.979 91.901,153.638C92.366,153.298 92.467,152.643 92.127,152.178C88.817,147.657 89.008,143.137 92.142,138.616C92.471,138.142 92.353,137.491 91.879,137.162C91.405,136.834 90.754,136.952 90.425,137.425ZM139.604,138.184C142.738,142.705 142.929,147.226 139.619,151.747C139.279,152.212 139.38,152.866 139.845,153.207C140.31,153.547 140.964,153.446 141.305,152.981C145.207,147.652 145.015,142.323 141.321,136.994C140.992,136.52 140.341,136.402 139.867,136.73C139.393,137.059 139.275,137.71 139.604,138.184ZM100.71,138.288C99.782,143.334 98.307,146.641 94.802,150.159C94.354,150.609 94.356,151.337 94.805,151.784C95.255,152.232 95.983,152.23 96.43,151.781C100.295,147.901 101.947,144.267 102.97,138.704C103.085,138.08 102.672,137.481 102.048,137.366C101.424,137.251 100.825,137.665 100.71,138.288ZM106.767,150.807L106.767,143.249C106.767,142.636 106.269,142.138 105.656,142.138C105.043,142.138 104.545,142.636 104.545,143.249L104.545,150.807C104.545,151.42 105.043,151.918 105.656,151.918C106.269,151.918 106.767,151.42 106.767,150.807ZM106.767,139.689L106.767,139.08C106.767,138.467 106.269,137.969 105.656,137.969C105.043,137.969 104.545,138.467 104.545,139.08L104.545,139.689C104.545,140.303 105.043,140.801 105.656,140.801C106.269,140.801 106.767,140.303 106.767,139.689ZM80.284,113.57L80.284,130.775C80.284,131.467 80.846,132.029 81.538,132.029C82.23,132.029 82.791,131.467 82.791,130.775L82.791,113.57C82.791,112.878 82.23,112.316 81.538,112.316C80.846,112.316 80.284,112.878 80.284,113.57ZM108.386,128.375C108.898,129.113 108.939,129.851 108.399,130.589C108.126,130.962 108.207,131.485 108.579,131.757C108.951,132.03 109.475,131.949 109.747,131.577C110.761,130.192 110.719,128.808 109.76,127.423C109.497,127.044 108.976,126.95 108.597,127.212C108.218,127.475 108.123,127.996 108.386,128.375ZM104.263,128.375C104.775,129.113 104.816,129.851 104.276,130.589C104.003,130.962 104.084,131.485 104.456,131.757C104.829,132.03 105.352,131.949 105.624,131.577C106.638,130.192 106.597,128.808 105.637,127.423C105.374,127.044 104.853,126.95 104.474,127.212C104.095,127.475 104.001,127.996 104.263,128.375ZM131.018,131.468L131.103,131.468C131.371,131.462 131.598,131.368 131.788,131.19C131.99,130.999 132.09,130.767 132.09,130.494L132.09,127.562C132.09,127.293 131.992,127.059 131.793,126.862C131.596,126.668 131.358,126.57 131.077,126.57L130.437,126.57L130.437,115.097C130.437,114.824 130.337,114.592 130.134,114.401C129.939,114.217 129.703,114.124 129.424,114.124L122.48,114.124C122.197,114.124 121.962,114.22 121.774,114.407C121.582,114.596 121.486,114.826 121.486,115.097L121.486,115.702C121.486,117.556 121.473,118.961 121.447,119.919C121.421,120.874 121.386,121.751 121.341,122.549C121.297,123.313 121.208,123.906 121.065,124.327C120.922,124.748 120.768,125.114 120.6,125.424C120.436,125.726 120.188,126.108 119.855,126.57L119.602,126.57C119.321,126.57 119.082,126.668 118.886,126.862C118.686,127.059 118.588,127.293 118.588,127.562L118.588,130.494C118.588,130.767 118.688,130.999 118.891,131.19C119.086,131.374 119.323,131.468 119.602,131.468L119.686,131.468C119.954,131.462 120.182,131.368 120.371,131.19C120.573,130.999 120.674,130.767 120.674,130.494L120.674,128.462L130.005,128.462L130.005,130.494C130.005,130.767 130.105,130.999 130.307,131.19C130.503,131.374 130.739,131.468 131.018,131.468ZM101.034,114.149C97.34,119.478 97.148,124.807 101.05,130.136C101.39,130.601 102.045,130.702 102.51,130.362C102.975,130.021 103.076,129.367 102.736,128.902C99.425,124.381 99.617,119.86 102.751,115.339C103.08,114.865 102.962,114.214 102.488,113.885C102.014,113.557 101.363,113.675 101.034,114.149ZM140.315,115.339C143.449,119.86 143.641,124.381 140.331,128.902C139.99,129.367 140.092,130.021 140.557,130.362C141.022,130.702 141.676,130.601 142.017,130.136C145.919,124.807 145.727,119.478 142.032,114.149C141.704,113.675 141.053,113.557 140.579,113.885C140.105,114.214 139.987,114.865 140.315,115.339ZM122.426,126.57C122.993,125.578 123.334,124.598 123.453,123.631C123.581,122.588 123.647,120.049 123.649,116.015L128.215,116.015L128.215,126.57L122.426,126.57ZM135.659,112.585C134.235,112.585 133.071,113.754 133.071,115.203C133.071,116.652 134.235,117.821 135.659,117.821C137.084,117.821 138.247,116.652 138.247,115.203C138.247,113.754 137.084,112.585 135.659,112.585ZM113.306,112.585C111.882,112.585 110.718,113.754 110.718,115.203C110.718,116.652 111.882,117.821 113.306,117.821C114.731,117.821 115.894,116.652 115.894,115.203C115.894,113.754 114.731,112.585 113.306,112.585ZM113.306,114.252C113.819,114.252 114.227,114.682 114.227,115.203C114.227,115.724 113.819,116.154 113.306,116.154C112.794,116.154 112.385,115.724 112.385,115.203C112.385,114.682 112.794,114.252 113.306,114.252ZM135.659,114.252C136.172,114.252 136.581,114.682 136.581,115.203C136.581,115.724 136.172,116.154 135.659,116.154C135.147,116.154 134.738,115.724 134.738,115.203C134.738,114.682 135.147,114.252 135.659,114.252ZM105.878,110.085L143.604,110.085C144.181,110.085 144.649,109.617 144.649,109.04C144.649,108.464 144.181,107.996 143.604,107.996L105.878,107.996C105.302,107.996 104.833,108.464 104.833,109.04C104.833,109.617 105.302,110.085 105.878,110.085ZM161.316,92.32L145.269,105.856C144.784,106.265 144.723,106.99 145.132,107.475C145.541,107.96 146.266,108.021 146.751,107.612L162.797,94.077C163.282,93.668 163.344,92.942 162.935,92.457C162.526,91.973 161.8,91.911 161.316,92.32ZM87.307,94.077L103.354,107.612C103.839,108.021 104.564,107.96 104.973,107.475C105.382,106.99 105.321,106.265 104.836,105.856L88.789,92.32C88.304,91.911 87.579,91.973 87.17,92.457C86.761,92.942 86.823,93.668 87.307,94.077ZM54.521,94.077L70.568,107.612C71.052,108.021 71.778,107.96 72.187,107.475C72.596,106.99 72.534,106.265 72.049,105.856L56.003,92.32C55.518,91.911 54.793,91.973 54.384,92.457C53.975,92.942 54.036,93.668 54.521,94.077ZM164.457,67.976L164.457,85.181C164.457,85.873 165.019,86.435 165.711,86.435C166.403,86.435 166.964,85.873 166.964,85.181L166.964,67.976C166.964,67.284 166.403,66.723 165.711,66.723C165.019,66.723 164.457,67.284 164.457,67.976ZM84.87,67.976L84.87,85.181C84.87,85.873 85.432,86.435 86.124,86.435C86.816,86.435 87.378,85.873 87.378,85.181L87.378,67.976C87.378,67.284 86.816,66.723 86.124,66.723C85.432,66.723 84.87,67.284 84.87,67.976ZM53.036,67.976L53.036,85.181C53.036,85.873 53.597,86.435 54.289,86.435C54.981,86.435 55.543,85.873 55.543,85.181L55.543,67.976C55.543,67.284 54.981,66.723 54.289,66.723C53.597,66.723 53.036,67.284 53.036,67.976ZM145.074,49.776L161.121,63.312C161.605,63.721 162.331,63.659 162.74,63.174C163.149,62.69 163.087,61.964 162.602,61.555L146.556,48.019C146.071,47.61 145.345,47.672 144.936,48.157C144.528,48.641 144.589,49.367 145.074,49.776ZM102.964,47.239L86.917,60.775C86.432,61.183 86.371,61.909 86.78,62.394C87.189,62.879 87.914,62.94 88.399,62.531L104.446,48.995C104.93,48.586 104.992,47.861 104.583,47.376C104.174,46.891 103.448,46.83 102.964,47.239ZM70.763,47.239L54.716,60.775C54.231,61.183 54.17,61.909 54.579,62.394C54.988,62.879 55.713,62.94 56.198,62.531L72.245,48.995C72.729,48.586 72.791,47.861 72.382,47.376C71.973,46.891 71.248,46.83 70.763,47.239ZM80.02,42.512L137.261,42.512C137.838,42.512 138.306,42.044 138.306,41.467C138.306,40.891 137.838,40.422 137.261,40.422L80.02,40.422C79.443,40.422 78.975,40.891 78.975,41.467C78.975,42.044 79.443,42.512 80.02,42.512Z"/>
    </g>
</svg>
