<?xml version="1.0" encoding="UTF-8" standalone="no"?>
<svg xmlns:ffdec="https://www.free-decompiler.com/flash" xmlns:xlink="http://www.w3.org/1999/xlink" ffdec:objectType="shape" height="103.15px" width="101.65px" xmlns="http://www.w3.org/2000/svg">
  <g transform="matrix(1.0, 0.0, 0.0, 1.0, 40.4, 103.8)">
    <path d="M4.75 -55.75 L4.65 -55.7 4.95 -55.25 5.2 -54.55 5.65 -52.7 6.05 -51.0 6.05 -50.95 8.45 -50.3 Q9.2 -50.0 9.6 -48.6 L15.55 -48.3 Q19.75 -47.95 23.75 -47.0 27.9 -46.05 31.9 -44.35 L35.45 -42.75 Q38.55 -41.35 41.6 -39.6 L39.4 -38.15 38.65 -39.35 39.35 -38.1 Q34.65 -35.1 29.7 -32.7 28.6 -32.15 27.45 -31.75 21.2 -29.5 14.85 -27.8 15.25 -26.9 14.8 -24.95 L14.15 -24.6 Q16.0 -23.75 18.1 -23.25 L22.4 -22.8 31.35 -23.35 32.45 -23.45 36.5 -24.0 Q40.75 -25.1 45.05 -26.5 49.2 -27.9 53.7 -27.8 L59.9 -27.15 Q61.55 -26.85 61.15 -25.1 61.05 -24.65 60.75 -24.5 59.75 -23.95 58.7 -23.7 L53.7 -23.1 Q49.25 -23.1 45.05 -21.7 L43.65 -21.4 40.7 -20.95 32.0 -19.8 23.55 -20.3 Q21.95 -20.6 20.4 -21.2 L17.7 -22.1 12.15 -23.35 Q11.5 -22.35 10.3 -21.8 L8.1 -20.9 7.15 -20.6 8.65 -19.65 Q9.35 -19.0 9.75 -16.65 10.1 -14.35 12.7 -12.1 L14.35 -10.35 Q16.15 -8.05 15.3 -5.25 L14.6 -5.85 Q13.55 -6.65 13.4 -8.05 13.3 -9.55 13.5 -10.3 L12.2 -11.2 12.0 -11.35 10.65 -12.65 Q7.2 -15.9 6.1 -20.35 L3.9 -19.95 Q3.7 -17.55 4.05 -15.5 4.2 -14.35 4.6 -13.3 L5.6 -11.35 5.75 -11.05 Q7.8 -9.8 7.4 -6.95 7.25 -5.85 6.1 -6.05 5.5 -7.7 5.75 -9.4 4.85 -9.65 4.3 -10.55 L3.2 -12.85 Q2.15 -15.85 2.2 -19.8 L1.85 -19.8 Q-2.85 -19.65 -6.6 -22.05 L-10.7 -22.0 Q-11.15 -22.0 -11.35 -22.25 -12.75 -23.95 -13.85 -26.35 L-17.8 -26.95 Q-23.85 -27.9 -29.5 -29.9 L-31.05 -30.35 Q-36.15 -31.45 -39.6 -35.5 L-38.85 -36.6 -30.6 -35.9 -22.6 -36.15 -14.8 -36.35 -9.25 -36.35 -13.9 -37.85 Q-16.35 -38.55 -17.85 -40.75 L-19.0 -42.9 -17.85 -40.75 Q-16.35 -38.55 -13.9 -37.85 L-9.25 -36.35 -6.2 -36.35 -9.25 -36.35 -14.8 -36.35 -22.6 -36.15 -30.6 -35.9 -38.85 -36.6 -39.55 -37.3 -39.5 -37.35 Q-37.1 -39.9 -33.8 -41.6 L-29.8 -43.35 -32.2 -48.25 Q-35.85 -47.85 -35.85 -51.9 -35.9 -53.65 -34.7 -53.95 -31.15 -54.9 -28.75 -52.65 L-28.35 -51.9 Q-28.2 -50.95 -28.4 -50.25 L-28.35 -50.25 -26.5 -50.25 Q-26.3 -51.75 -25.0 -52.75 -24.35 -53.3 -23.5 -53.2 -21.9 -53.0 -20.9 -52.15 -17.1 -52.9 -15.0 -55.55 -14.3 -57.2 -14.6 -58.15 L-13.5 -58.25 -13.75 -62.45 Q-13.9 -66.75 -10.85 -69.1 -5.75 -69.9 -1.95 -66.65 L0.1 -63.75 Q2.95 -60.1 4.75 -55.75 M4.65 -55.7 Q2.9 -58.4 0.75 -60.5 -1.4 -62.65 -3.85 -61.85 L-4.55 -60.95 Q-3.15 -59.8 -3.25 -57.45 L-3.3 -56.4 Q-3.5 -53.35 -6.35 -52.3 L-7.1 -51.95 Q-9.75 -50.6 -12.65 -50.25 -12.55 -51.35 -12.8 -52.9 L-13.5 -58.25 -12.8 -52.9 Q-12.55 -51.35 -12.65 -50.25 -9.75 -50.6 -7.1 -51.95 L-6.35 -52.3 Q-3.5 -53.35 -3.3 -56.4 L-3.25 -57.45 Q-3.15 -59.8 -4.55 -60.95 L-3.85 -61.85 Q-1.4 -62.65 0.75 -60.5 2.9 -58.4 4.65 -55.7 M38.65 -39.35 L33.6 -38.95 28.15 -38.2 19.25 -37.4 10.3 -36.75 1.6 -36.45 -5.95 -36.35 1.6 -36.45 10.3 -36.75 19.25 -37.4 28.15 -38.2 33.6 -38.95 38.65 -39.35 M5.7 -50.15 L6.05 -50.95 6.9 -48.65 7.15 -46.65 Q7.15 -43.9 4.65 -41.8 L1.95 -39.7 Q-1.75 -37.25 -5.95 -36.4 -1.75 -37.25 1.95 -39.7 L4.65 -41.8 Q7.15 -43.9 7.15 -46.65 L6.9 -48.65 6.05 -50.95 5.7 -50.15 M5.75 -11.05 Q5.95 -10.45 5.75 -9.4 5.95 -10.45 5.75 -11.05 M3.9 -19.95 L2.2 -19.8 3.9 -19.95 M7.15 -20.6 L6.1 -20.35 7.15 -20.6 M12.45 -24.0 L12.15 -23.35 12.45 -24.0 11.4 -23.7 3.0 -22.55 -2.0 -22.25 -6.6 -22.05 -2.0 -22.25 3.0 -22.55 11.4 -23.7 12.45 -24.0 14.15 -24.6 12.45 -24.0 M-13.85 -26.35 L-5.7 -25.55 Q3.35 -24.9 12.15 -27.1 L14.85 -27.8 12.15 -27.1 Q3.35 -24.9 -5.7 -25.55 L-13.85 -26.35 M9.6 -48.6 L6.9 -48.65 9.6 -48.6 10.0 -47.35 9.6 -48.6 M14.35 -10.35 Q14.4 -10.05 13.85 -10.2 L13.5 -10.3 13.85 -10.2 Q14.4 -10.05 14.35 -10.35 M-20.55 -46.3 L-20.95 -47.6 -19.9 -48.45 Q-19.35 -49.0 -19.55 -49.85 -19.95 -51.3 -20.9 -52.15 -19.95 -51.3 -19.55 -49.85 -19.35 -49.0 -19.9 -48.45 L-20.95 -47.6 -20.55 -46.3 -19.55 -42.75 -19.0 -42.9 -19.6 -45.35 -19.65 -46.35 -19.65 -46.85 -20.55 -46.3 M-18.95 -47.4 L-19.65 -46.85 Q-19.5 -48.15 -18.7 -48.95 L-18.1 -49.45 Q-16.9 -50.25 -15.75 -50.15 L-12.65 -50.25 -15.75 -50.15 Q-16.9 -50.25 -18.1 -49.45 L-18.7 -48.95 Q-19.5 -48.15 -19.65 -46.85 L-18.95 -47.4 M-5.95 -36.4 L-6.2 -36.35 -5.95 -36.35 -5.95 -36.4 M-22.85 -45.4 Q-22.0 -42.85 -20.55 -40.85 -22.0 -42.85 -22.85 -45.4 L-24.45 -45.0 -28.7 -43.8 -29.3 -47.15 Q-29.5 -48.3 -29.95 -48.7 -29.5 -48.3 -29.3 -47.15 L-28.7 -43.8 -24.45 -45.0 -22.85 -45.4 -22.85 -45.45 Q-23.25 -46.65 -23.5 -46.65 L-23.55 -46.65 Q-25.65 -45.9 -26.25 -47.65 -26.7 -49.1 -26.5 -50.25 -26.7 -49.1 -26.25 -47.65 -25.65 -45.9 -23.55 -46.65 L-23.5 -46.65 Q-23.25 -46.65 -22.85 -45.45 L-22.85 -45.4 M-28.7 -43.8 L-29.8 -43.35 -28.7 -43.8 M-23.5 -46.65 Q-22.1 -46.85 -20.95 -47.6 -22.1 -46.85 -23.5 -46.65 M-20.25 -39.8 L-19.65 -39.85 Q-18.9 -39.65 -18.85 -40.35 L-18.9 -40.45 -19.55 -42.75 -18.9 -40.45 -18.85 -40.35 Q-18.9 -39.65 -19.65 -39.85 L-20.25 -39.8 M-29.95 -48.7 Q-30.7 -49.3 -32.2 -48.25 -30.7 -49.3 -29.95 -48.7 -28.7 -49.15 -28.4 -50.25 -29.75 -49.8 -29.95 -48.7 L-30.8 -48.15 -29.95 -48.7" fill="#ffffff" fill-rule="evenodd" stroke="none"/>
    <path d="M7.15 -20.6 L8.65 -19.65 Q9.35 -19.0 9.75 -16.65 10.1 -14.35 12.7 -12.1 L14.35 -10.35 Q16.15 -8.05 15.3 -5.25 L14.6 -5.85 Q13.55 -6.65 13.4 -8.05 13.3 -9.55 13.5 -10.3 L12.2 -11.2 12.0 -11.35 10.65 -12.65 Q7.2 -15.9 6.1 -20.35 M13.5 -10.3 L13.85 -10.2 Q14.4 -10.05 14.35 -10.35 M-20.35 -1.25 Q-15.35 -1.05 -10.55 -1.45 L-5.05 -1.75 -0.2 -1.45 9.55 -0.85 19.05 -0.65 23.85 -0.85" fill="none" stroke="#000000" stroke-linecap="round" stroke-linejoin="round" stroke-width="0.05"/>
    <path d="M4.65 -55.7 L4.95 -55.25 5.2 -54.55 4.75 -55.75 Q2.95 -60.1 0.1 -63.75 L-1.95 -66.65 Q-5.75 -69.9 -10.85 -69.1 -13.9 -66.75 -13.75 -62.45 L-13.5 -58.25 -12.8 -52.9 Q-12.55 -51.35 -12.65 -50.25 -9.75 -50.6 -7.1 -51.95 L-6.35 -52.3 Q-3.5 -53.35 -3.3 -56.4 L-3.25 -57.45 Q-3.15 -59.8 -4.55 -60.95 L-3.85 -61.85 Q-1.4 -62.65 0.75 -60.5 2.9 -58.4 4.65 -55.7 M6.05 -51.0 L5.2 -54.55 5.65 -52.7 6.05 -51.0 6.05 -50.95 8.45 -50.3 Q9.2 -50.0 9.6 -48.6 L15.55 -48.3 Q19.75 -47.95 23.75 -47.0 27.9 -46.05 31.9 -44.35 L35.45 -42.75 Q38.55 -41.35 41.6 -39.6 L39.4 -38.15 39.35 -38.1 Q34.65 -35.1 29.7 -32.7 28.6 -32.15 27.45 -31.75 21.2 -29.5 14.85 -27.8 15.25 -26.9 14.8 -24.95 L14.15 -24.6 Q16.0 -23.75 18.1 -23.25 L22.4 -22.8 31.35 -23.35 32.45 -23.45 36.5 -24.0 Q40.75 -25.1 45.05 -26.5 49.2 -27.9 53.7 -27.8 L59.9 -27.15 Q61.55 -26.85 61.15 -25.1 61.05 -24.65 60.75 -24.5 59.75 -23.95 58.7 -23.7 L53.7 -23.1 Q49.25 -23.1 45.05 -21.7 L43.65 -21.4 40.7 -20.95 32.0 -19.8 23.55 -20.3 Q21.95 -20.6 20.4 -21.2 L17.7 -22.1 12.15 -23.35 Q11.5 -22.35 10.3 -21.8 L8.1 -20.9 7.15 -20.6 6.1 -20.35 3.9 -19.95 Q3.7 -17.55 4.05 -15.5 4.2 -14.35 4.6 -13.3 L5.6 -11.35 5.75 -11.05 Q7.8 -9.8 7.4 -6.95 7.25 -5.85 6.1 -6.05 5.5 -7.7 5.75 -9.4 4.85 -9.65 4.3 -10.55 L3.2 -12.85 Q2.15 -15.85 2.2 -19.8 L1.85 -19.8 Q-2.85 -19.65 -6.6 -22.05 L-10.7 -22.0 Q-11.15 -22.0 -11.35 -22.25 -12.75 -23.95 -13.85 -26.35 L-17.8 -26.95 Q-23.85 -27.9 -29.5 -29.9 L-31.05 -30.35 Q-36.15 -31.45 -39.6 -35.5 L-40.4 -36.35 -39.6 -37.25 -39.55 -37.3 -39.5 -37.35 Q-37.1 -39.9 -33.8 -41.6 L-29.8 -43.35 -32.2 -48.25 Q-35.85 -47.85 -35.85 -51.9 -35.9 -53.65 -34.7 -53.95 -31.15 -54.9 -28.75 -52.65 L-28.35 -51.9 Q-28.2 -50.95 -28.4 -50.25 L-28.35 -50.25 -26.5 -50.25 Q-26.3 -51.75 -25.0 -52.75 -24.35 -53.3 -23.5 -53.2 -21.9 -53.0 -20.9 -52.15 -17.1 -52.9 -15.0 -55.55 -14.3 -57.2 -14.6 -58.15 M-5.95 -36.4 Q-1.75 -37.25 1.95 -39.7 L4.65 -41.8 Q7.15 -43.9 7.15 -46.65 L6.9 -48.65 6.05 -50.95 5.7 -50.15 M-5.95 -36.35 L1.6 -36.45 10.3 -36.75 19.25 -37.4 28.15 -38.2 33.6 -38.95 38.65 -39.35 M9.6 -48.6 L10.0 -47.35 M6.9 -48.65 L9.6 -48.6 M14.85 -27.8 L12.15 -27.1 Q3.35 -24.9 -5.7 -25.55 L-13.85 -26.35 M-6.6 -22.05 L-2.0 -22.25 3.0 -22.55 11.4 -23.7 12.45 -24.0 14.15 -24.6 M12.15 -23.35 L12.45 -24.0 M2.2 -19.8 L3.9 -19.95 M5.75 -9.4 Q5.95 -10.45 5.75 -11.05 M-12.65 -50.25 L-15.75 -50.15 Q-16.9 -50.25 -18.1 -49.45 L-18.7 -48.95 Q-19.5 -48.15 -19.65 -46.85 L-18.95 -47.4 M-20.9 -52.15 Q-19.95 -51.3 -19.55 -49.85 -19.35 -49.0 -19.9 -48.45 L-20.95 -47.6 -20.55 -46.3 -19.65 -46.85 -19.65 -46.35 -19.6 -45.35 -19.0 -42.9 -17.85 -40.75 Q-16.35 -38.55 -13.9 -37.85 L-9.25 -36.35 -6.2 -36.35 -5.95 -36.4 M-5.95 -36.35 L-6.2 -36.35 M-19.55 -42.75 L-18.9 -40.45 -18.85 -40.35 Q-18.9 -39.65 -19.65 -39.85 L-20.25 -39.8 M-38.85 -36.6 L-30.6 -35.9 -22.6 -36.15 -14.8 -36.35 -9.25 -36.35 M-29.95 -48.7 Q-29.5 -48.3 -29.3 -47.15 L-28.7 -43.8 -24.45 -45.0 -22.85 -45.4 -22.85 -45.45 Q-23.25 -46.65 -23.5 -46.65 L-23.55 -46.65 Q-25.65 -45.9 -26.25 -47.65 -26.7 -49.1 -26.5 -50.25 M-20.95 -47.6 Q-22.1 -46.85 -23.5 -46.65 M-29.8 -43.35 L-28.7 -43.8 M-20.55 -40.85 Q-22.0 -42.85 -22.85 -45.4 M-32.2 -48.25 Q-30.7 -49.3 -29.95 -48.7 -29.75 -49.8 -28.4 -50.25 -28.7 -49.15 -29.95 -48.7 L-30.8 -48.15 M-20.55 -46.3 L-19.55 -42.75" fill="none" stroke="#000000" stroke-linecap="round" stroke-linejoin="round" stroke-width="0.05"/>
    <path d="M2.7 -96.8 Q2.3 -99.6 2.7 -102.4 2.9 -104.2 4.65 -103.65 5.95 -103.25 6.45 -101.8 L7.1 -99.9 Q9.25 -101.4 11.4 -100.5 L12.15 -99.45 Q12.4 -98.4 11.55 -97.9 11.55 -97.65 12.95 -97.0 14.5 -96.3 13.95 -94.7 13.4 -93.55 12.1 -93.35 L7.15 -92.6 Q6.8 -90.95 6.05 -89.45 L6.0 -89.35 Q5.05 -87.65 3.45 -86.2 L3.1 -85.9 Q1.5 -84.6 0.15 -84.2 L0.35 -83.75 Q1.65 -81.05 2.15 -78.15 5.55 -79.2 7.1 -75.7 7.35 -75.2 7.05 -74.6 6.4 -73.4 8.3 -72.4 9.1 -71.9 9.55 -71.05 10.5 -69.45 8.65 -68.3 L5.5 -66.75 2.95 -66.7 3.0 -66.45 1.85 -66.2 Q-0.05 -65.95 -1.1 -67.0 L-1.45 -66.7 -4.3 -64.0 -8.0 -60.4 Q-9.15 -60.5 -10.65 -59.55 -12.1 -58.6 -12.95 -58.65 -14.4 -57.9 -16.7 -58.15 L-22.0 -59.2 -29.05 -62.3 Q-32.35 -63.8 -33.3 -68.15 -34.3 -72.55 -29.9 -75.55 L-21.45 -81.15 -20.3 -80.5 Q-19.85 -81.4 -18.6 -82.1 L-18.95 -82.7 -21.3 -81.25 -21.3 -81.3 Q-23.45 -83.65 -21.1 -85.55 L-20.0 -86.65 Q-19.75 -86.95 -19.75 -87.45 -19.75 -90.4 -17.1 -90.25 -13.25 -90.15 -11.5 -86.8 -8.15 -89.35 -3.65 -88.2 -2.5 -87.9 -1.65 -87.1 L-0.25 -89.0 2.1 -92.85 3.2 -95.35 3.65 -96.15 2.7 -96.8 M-0.85 -74.9 L0.3 -76.35 Q1.65 -77.2 2.3 -77.2 L2.15 -78.15 2.3 -77.2 Q1.65 -77.2 0.3 -76.35 L-0.85 -74.9 -1.65 -75.4 -2.2 -74.3 Q-3.25 -72.9 -5.15 -73.25 -8.05 -73.85 -8.55 -76.5 -8.9 -78.35 -7.55 -79.55 -6.35 -80.55 -5.4 -79.15 -4.3 -77.45 -6.3 -76.6 -4.3 -77.45 -5.4 -79.15 -6.35 -80.55 -7.55 -79.55 -8.9 -78.35 -8.55 -76.5 -8.05 -73.85 -5.15 -73.25 -3.25 -72.9 -2.2 -74.3 L-1.5 -73.9 -0.85 -74.9 M-0.7 -84.35 Q-0.8 -83.9 0.15 -84.2 -0.8 -83.9 -0.7 -84.35 M5.35 -89.8 Q4.9 -91.95 3.0 -92.35 4.9 -91.95 5.35 -89.8 M7.15 -92.6 L7.35 -94.55 7.25 -95.35 Q6.7 -96.7 4.45 -96.95 L3.65 -96.15 4.45 -96.95 Q6.7 -96.7 7.25 -95.35 L7.35 -94.55 7.15 -92.6 M1.95 -67.2 Q2.45 -66.9 2.95 -66.7 2.45 -66.9 1.95 -67.2 M-1.1 -67.0 Q-2.05 -67.95 -2.35 -69.9 -2.65 -72.05 -1.5 -73.9 -2.65 -72.05 -2.35 -69.9 -2.05 -67.95 -1.1 -67.0 M-26.35 -74.55 L-25.65 -71.85 Q-25.4 -70.95 -24.6 -70.65 -22.25 -69.75 -20.8 -72.25 -23.4 -73.8 -26.35 -74.55 -23.4 -73.8 -20.8 -72.25 -22.25 -69.75 -24.6 -70.65 -25.4 -70.95 -25.65 -71.85 L-26.35 -74.55 M-20.5 -65.75 Q-21.05 -64.8 -21.75 -63.8 L-22.85 -65.3 -23.05 -65.0 -23.85 -63.15 -25.5 -66.55 -25.55 -66.25 -26.5 -63.45 -26.55 -63.5 -27.35 -65.5 -27.65 -66.8 Q-27.7 -67.65 -27.9 -68.4 -27.7 -67.65 -27.65 -66.8 L-27.35 -65.5 -26.55 -63.5 -26.5 -63.45 -25.55 -66.25 -25.5 -66.55 -23.85 -63.15 -23.05 -65.0 -22.85 -65.3 -21.75 -63.8 Q-21.05 -64.8 -20.5 -65.75 M-18.7 -66.9 Q-21.1 -65.7 -23.0 -66.05 -24.9 -66.4 -25.05 -66.85 L-25.8 -68.35 -27.9 -68.4 Q-29.0 -68.95 -29.25 -70.65 -29.0 -68.95 -27.9 -68.4 L-25.8 -68.35 -25.05 -66.85 Q-24.9 -66.4 -23.0 -66.05 -21.1 -65.7 -18.7 -66.9 M-21.75 -63.8 L-22.55 -62.85 Q-22.9 -62.35 -23.4 -62.4 -25.1 -62.45 -26.5 -63.45 L-26.55 -63.45 -26.55 -63.5 -26.75 -63.65 -28.1 -65.25 Q-29.1 -66.95 -28.95 -69.0 -29.1 -66.95 -28.1 -65.25 L-26.75 -63.65 -26.55 -63.5 -26.55 -63.45 -26.5 -63.45 Q-25.1 -62.45 -23.4 -62.4 -22.9 -62.35 -22.55 -62.85 L-21.75 -63.8 M0.15 -84.2 L-0.1 -84.8 Q-0.7 -86.25 -1.65 -87.1 -0.7 -86.25 -0.1 -84.8 L0.15 -84.2 M-12.15 -86.25 Q-11.2 -86.2 -11.5 -86.75 L-11.5 -86.8 -12.15 -86.25 -13.5 -85.8 -18.95 -82.7 -13.5 -85.8 -12.15 -86.25 M-1.65 -75.4 Q-0.45 -78.7 -3.2 -80.9 -7.25 -84.25 -10.8 -80.6 -12.1 -79.15 -12.0 -77.25 -11.7 -71.45 -6.05 -70.95 -11.7 -71.45 -12.0 -77.25 -12.1 -79.15 -10.8 -80.6 -7.25 -84.25 -3.2 -80.9 -0.45 -78.7 -1.65 -75.4 M-16.5 -79.0 L-15.75 -79.65 -15.7 -80.15 -15.95 -80.45 Q-18.05 -81.35 -18.0 -78.7 -18.0 -77.45 -16.85 -77.4 -13.75 -77.4 -14.25 -80.3 L-14.25 -80.45 -14.25 -80.5 Q-14.75 -83.2 -17.25 -82.65 L-18.6 -82.1 -17.25 -82.65 Q-14.75 -83.2 -14.25 -80.5 L-14.25 -80.45 -14.25 -80.3 Q-13.75 -77.4 -16.85 -77.4 -18.0 -77.45 -18.0 -78.7 -18.05 -81.35 -15.95 -80.45 L-15.7 -80.15 -15.75 -79.65 -16.5 -79.0 M2.25 -87.05 Q1.3 -88.2 -0.25 -89.0 1.3 -88.2 2.25 -87.05 M-20.3 -80.5 Q-21.05 -79.15 -19.65 -77.45 -21.05 -79.15 -20.3 -80.5" fill="#ffffff" fill-rule="evenodd" stroke="none"/>
    <path d="M2.7 -96.8 Q2.3 -99.6 2.7 -102.4 2.9 -104.2 4.65 -103.65 5.95 -103.25 6.45 -101.8 L7.1 -99.9 Q9.25 -101.4 11.4 -100.5 L12.15 -99.45 Q12.4 -98.4 11.55 -97.9 11.55 -97.65 12.95 -97.0 14.5 -96.3 13.95 -94.7 13.4 -93.55 12.1 -93.35 L7.15 -92.6 Q6.8 -90.95 6.05 -89.45 L6.0 -89.35 Q5.05 -87.65 3.45 -86.2 L3.1 -85.9 Q1.5 -84.6 0.15 -84.2 L0.35 -83.75 Q1.65 -81.05 2.15 -78.15 5.55 -79.2 7.1 -75.7 7.35 -75.2 7.05 -74.6 6.4 -73.4 8.3 -72.4 9.1 -71.9 9.55 -71.05 10.5 -69.45 8.65 -68.3 L5.5 -66.75 2.95 -66.7 3.0 -66.45 1.85 -66.2 Q-0.05 -65.95 -1.1 -67.0 L-1.45 -66.7 -4.3 -64.0 -8.0 -60.4 Q-9.15 -60.5 -10.65 -59.55 -12.1 -58.6 -12.95 -58.65 -14.4 -57.9 -16.7 -58.15 L-22.0 -59.2 -29.05 -62.3 Q-32.35 -63.8 -33.3 -68.15 -34.3 -72.55 -29.9 -75.55 L-21.45 -81.15 -21.3 -81.25 -21.3 -81.3 Q-23.45 -83.65 -21.1 -85.55 L-20.0 -86.65 Q-19.75 -86.95 -19.75 -87.45 -19.75 -90.4 -17.1 -90.25 -13.25 -90.15 -11.5 -86.8 -8.15 -89.35 -3.65 -88.2 -2.5 -87.9 -1.65 -87.1 L-0.25 -89.0 2.1 -92.85 3.2 -95.35 3.65 -96.15 4.45 -96.95 Q6.7 -96.7 7.25 -95.35 L7.35 -94.55 7.15 -92.6 M3.0 -92.35 Q4.9 -91.95 5.35 -89.8 M0.15 -84.2 Q-0.8 -83.9 -0.7 -84.35 M2.15 -78.15 L2.3 -77.2 Q1.65 -77.2 0.3 -76.35 L-0.85 -74.9 -1.5 -73.9 Q-2.65 -72.05 -2.35 -69.9 -2.05 -67.95 -1.1 -67.0 M2.95 -66.7 Q2.45 -66.9 1.95 -67.2 M-20.3 -80.5 Q-19.85 -81.4 -18.6 -82.1 L-17.25 -82.65 Q-14.75 -83.2 -14.25 -80.5 L-14.25 -80.45 -14.25 -80.3 Q-13.75 -77.4 -16.85 -77.4 -18.0 -77.45 -18.0 -78.7 -18.05 -81.35 -15.95 -80.45 L-15.7 -80.15 -15.75 -79.65 -16.5 -79.0 M-18.95 -82.7 L-21.3 -81.25 M-26.35 -74.55 Q-23.4 -73.8 -20.8 -72.25 -22.25 -69.75 -24.6 -70.65 -25.4 -70.95 -25.65 -71.85 L-26.35 -74.55 M-29.25 -70.65 Q-29.0 -68.95 -27.9 -68.4 L-25.8 -68.35 -25.05 -66.85 Q-24.9 -66.4 -23.0 -66.05 -21.1 -65.7 -18.7 -66.9 M-2.2 -74.3 Q-3.25 -72.9 -5.15 -73.25 -8.05 -73.85 -8.55 -76.5 -8.9 -78.35 -7.55 -79.55 -6.35 -80.55 -5.4 -79.15 -4.3 -77.45 -6.3 -76.6 M-1.65 -87.1 Q-0.7 -86.25 -0.1 -84.8 L0.15 -84.2 M-11.5 -86.8 L-11.5 -86.75 Q-11.2 -86.2 -12.15 -86.25 L-13.5 -85.8 -18.95 -82.7 M-12.15 -86.25 L-11.5 -86.8 M-6.05 -70.95 Q-11.7 -71.45 -12.0 -77.25 -12.1 -79.15 -10.8 -80.6 -7.25 -84.25 -3.2 -80.9 -0.45 -78.7 -1.65 -75.4 L-2.2 -74.3 M-19.65 -77.45 Q-21.05 -79.15 -20.3 -80.5 M-0.25 -89.0 Q1.3 -88.2 2.25 -87.05" fill="none" stroke="#000000" stroke-linecap="round" stroke-linejoin="round" stroke-width="0.05"/>
    <path d="M-27.9 -68.4 Q-27.7 -67.65 -27.65 -66.8 L-27.35 -65.5 -26.55 -63.5 -26.5 -63.45 -25.55 -66.25 -25.5 -66.55 -23.85 -63.15 -23.05 -65.0 -22.85 -65.3 -21.75 -63.8 Q-21.05 -64.8 -20.5 -65.75 M-28.95 -69.0 Q-29.1 -66.95 -28.1 -65.25 L-26.75 -63.65 -26.55 -63.5 -26.55 -63.45 -26.5 -63.45 Q-25.1 -62.45 -23.4 -62.4 -22.9 -62.35 -22.55 -62.85 L-21.75 -63.8" fill="none" stroke="#000000" stroke-linecap="round" stroke-linejoin="round" stroke-width="0.05"/>
  </g>
</svg>
