<?xml version="1.0" encoding="UTF-8" standalone="no"?>
<svg xmlns:xlink="http://www.w3.org/1999/xlink" height="36.0px" width="40.2px" xmlns="http://www.w3.org/2000/svg">
  <g transform="matrix(1.0, 0.0, 0.0, 1.0, 20.1, 18.35)">
    <path d="M3.85 16.5 L1.45 10.65 M-2.6 11.0 L-3.9 14.65 -4.75 17.15" fill="none" stroke="#8f7c3f" stroke-linecap="round" stroke-linejoin="round" stroke-width="1.0"/>
    <path d="M18.45 -4.6 L19.3 -4.0 Q17.05 2.15 11.8 6.3 6.55 10.4 4.25 5.45 2.8 -0.3 6.35 -3.35 9.85 -6.45 14.3 -7.15 18.75 -7.9 19.45 -6.5 L19.25 -6.35 18.9 -6.2 Q18.65 -6.1 18.45 -7.0 L18.8 -5.1 18.45 -4.6 Q16.35 -2.1 13.6 -0.05 16.35 -2.1 18.45 -4.6 M10.5 -2.7 L18.45 -7.0 10.5 -2.7" fill="#e2d5c0" fill-rule="evenodd" stroke="none"/>
    <path d="M19.3 -4.0 L19.6 -5.55 19.45 -6.5 Q18.75 -7.9 14.3 -7.15 9.85 -6.45 6.35 -3.35 2.8 -0.3 4.25 5.45 6.55 10.4 11.8 6.3 17.05 2.15 19.3 -4.0 M19.25 -6.35 L18.9 -6.2 Q18.65 -6.1 18.45 -7.0 L10.5 -2.7 M18.8 -5.1 L19.1 -5.6 M18.45 -4.6 L18.8 -5.1 M13.6 -0.05 Q16.35 -2.1 18.45 -4.6" fill="none" stroke="#8f7c3f" stroke-linecap="round" stroke-linejoin="round" stroke-width="1.0"/>
    <path d="M-7.35 -17.2 Q-6.5 -16.85 -5.4 -15.65 L-3.8 -13.45 Q-2.95 -14.6 0.7 -17.25 L0.75 -17.3 Q4.7 -16.25 6.7 -13.05 8.9 -9.55 9.55 -5.2 10.2 -1.05 9.4 2.75 8.75 5.65 7.5 7.7 L6.15 9.3 4.35 10.4 3.0 10.8 -0.45 11.45 Q-3.2 11.7 -6.15 10.0 -9.15 8.3 -10.85 5.4 L-11.45 4.25 -12.85 0.65 -13.45 -2.95 Q-13.75 -5.3 -13.3 -8.4 L-12.85 -10.35 -12.2 -12.2 -11.7 -13.2 -10.7 -14.65 Q-9.3 -16.4 -7.35 -17.2" fill="#ffffff" fill-rule="evenodd" stroke="none"/>
    <path d="M0.75 -17.3 L0.7 -17.25 Q-2.95 -14.6 -3.8 -13.45 L-5.4 -15.65 Q-6.5 -16.85 -7.35 -17.2 L-4.0 -17.85 0.3 -17.45 0.85 -17.35 0.75 -17.3" fill="#8f7c3f" fill-rule="evenodd" stroke="none"/>
    <path d="M0.85 -17.35 L0.3 -17.45 -4.0 -17.85 -7.35 -17.2 Q-9.3 -16.4 -10.7 -14.65 L-11.7 -13.2 -12.2 -12.2 -12.85 -10.35 -13.3 -8.4 Q-13.75 -5.3 -13.45 -2.95 L-12.85 0.65 -11.45 4.25 -10.85 5.4 Q-9.15 8.3 -6.15 10.0 -3.2 11.7 -0.45 11.45" fill="none" stroke="#8f7c3f" stroke-linecap="round" stroke-linejoin="round" stroke-width="1.0"/>
    <path d="M-0.45 11.45 L3.0 10.8 4.35 10.4 6.15 9.3 7.5 7.7 Q8.75 5.65 9.4 2.75 10.2 -1.05 9.55 -5.2 8.9 -9.55 6.7 -13.05 4.7 -16.25 0.75 -17.3" fill="none" stroke="#8f7c3f" stroke-linecap="round" stroke-linejoin="round" stroke-width="1.0"/>
    <path d="M2.45 -4.6 L2.3 -4.65 2.0 -4.7 0.8 -4.95 -0.75 -4.95 -2.65 -5.0 -4.8 -4.8 -2.65 -5.0 -0.75 -4.95 0.8 -4.95 2.0 -4.7 2.3 -4.65 2.45 -4.6 Q2.0 -3.3 1.05 -2.6 L-0.65 -1.55 Q-1.35 -1.15 -1.85 -1.7 L-3.2 -3.2 -4.8 -4.8 -3.6 -6.15 -1.9 -7.8 -1.4 -7.85 0.4 -6.6 2.05 -5.05 2.45 -4.6" fill="#e2d5c0" fill-rule="evenodd" stroke="none"/>
    <path d="M-4.8 -4.8 L-2.65 -5.0 -0.75 -4.95 0.8 -4.95 2.0 -4.7 2.3 -4.65 2.45 -4.6 2.05 -5.05 0.4 -6.6 -1.4 -7.85 -1.9 -7.8 -3.6 -6.15 -4.8 -4.8 -3.2 -3.2 -1.85 -1.7 Q-1.35 -1.15 -0.65 -1.55 L1.05 -2.6 Q2.0 -3.3 2.45 -4.6" fill="none" stroke="#8f7c3f" stroke-linecap="round" stroke-linejoin="round" stroke-width="1.0"/>
    <path d="M-8.2 -9.65 L-3.45 -9.65 M-0.6 -9.75 L3.95 -9.95" fill="none" stroke="#8f7c3f" stroke-linecap="round" stroke-linejoin="round" stroke-width="1.0"/>
    <path d="M3.7 -6.5 L5.05 -7.4 M6.2 -6.15 Q7.4 -6.8 8.65 -7.25 M-7.45 -5.65 L-5.9 -6.65 M-10.3 -5.65 L-7.75 -7.1" fill="none" stroke="#8f7c3f" stroke-linecap="round" stroke-linejoin="round" stroke-width="0.75"/>
    <path d="M-5.85 6.0 L-5.05 5.4 Q-7.15 -0.35 -12.1 -4.25 -17.0 -8.1 -19.2 -3.45 -20.55 1.95 -17.2 4.8 -13.9 7.75 -9.75 8.4 -5.55 9.1 -4.9 7.75 L-5.1 7.65 -5.4 7.5 Q-5.65 7.4 -5.85 8.25 L-5.5 6.45 -5.85 6.0 Q-7.8 3.65 -10.4 1.7 -7.8 3.65 -5.85 6.0 M-13.3 4.2 L-5.85 8.25 -13.3 4.2" fill="#e2d5c0" fill-rule="evenodd" stroke="none"/>
    <path d="M-5.05 5.4 L-4.75 6.9 Q-4.75 7.4 -4.9 7.75 -5.55 9.1 -9.75 8.4 -13.9 7.75 -17.2 4.8 -20.55 1.95 -19.2 -3.45 -17.0 -8.1 -12.1 -4.25 -7.15 -0.35 -5.05 5.4 M-5.1 7.65 L-5.4 7.5 Q-5.65 7.4 -5.85 8.25 L-13.3 4.2 M-5.5 6.45 L-5.25 6.95 M-5.85 6.0 L-5.5 6.45 M-10.4 1.7 Q-7.8 3.65 -5.85 6.0" fill="none" stroke="#8f7c3f" stroke-linecap="round" stroke-linejoin="round" stroke-width="1.0"/>
  </g>
</svg>
