<?xml version="1.0" encoding="UTF-8" standalone="no"?>
<svg xmlns:xlink="http://www.w3.org/1999/xlink" height="27.3px" width="37.1px" xmlns="http://www.w3.org/2000/svg">
  <g transform="matrix(1.0, 0.0, 0.0, 1.0, 18.55, 13.65)">
    <path d="M-13.35 -0.75 Q-16.25 -1.5 -18.05 -3.55 -15.95 -5.0 -13.6 -5.95 -12.5 -4.25 -12.75 -2.1 -12.9 -1.35 -13.35 -0.75" fill="#e2d5c0" fill-rule="evenodd" stroke="none"/>
    <path d="M-13.35 -0.75 Q-16.25 -1.5 -18.05 -3.55 -15.95 -5.0 -13.6 -5.95" fill="none" stroke="#8f7c3f" stroke-linecap="round" stroke-linejoin="round" stroke-width="1.0"/>
    <path d="M-13.6 -5.95 Q-12.5 -4.25 -12.75 -2.1 -12.9 -1.35 -13.35 -0.75 Z" fill="none" stroke="#8f7c3f" stroke-linecap="round" stroke-linejoin="round" stroke-width="1.0"/>
    <path d="M-10.05 7.45 Q-14.1 1.2 -13.5 -4.2 -12.95 -9.6 -10.1 -11.75 -7.35 -13.95 -3.05 -12.7 1.25 -11.45 2.2 -7.25 2.6 -5.0 2.5 -2.1 L10.95 -1.6 18.05 -1.3 Q17.7 5.05 16.3 7.45 14.9 9.85 10.35 11.6 5.75 13.3 0.6 13.15 -4.6 13.0 -10.05 7.45 M-8.35 -6.5 L-8.2 -7.25 -8.1 -8.1 -8.2 -7.25 -8.35 -6.5" fill="#fefefe" fill-rule="evenodd" stroke="none"/>
    <path d="M-10.05 7.45 Q-4.6 13.0 0.6 13.15 5.75 13.3 10.35 11.6 14.9 9.85 16.3 7.45 17.7 5.05 18.05 -1.3 L10.95 -1.6 2.5 -2.1 Q2.6 -5.0 2.2 -7.25 1.25 -11.45 -3.05 -12.7 -7.35 -13.95 -10.1 -11.75 -12.95 -9.6 -13.5 -4.2 -14.1 1.2 -10.05 7.45" fill="none" stroke="#8f7c3f" stroke-linecap="round" stroke-linejoin="round" stroke-width="1.0"/>
    <path d="M-8.1 -8.1 L-8.2 -7.25 -8.35 -6.5" fill="none" stroke="#8f7c3f" stroke-linecap="round" stroke-linejoin="round" stroke-width="1.75"/>
  </g>
</svg>
