<?xml version="1.0" encoding="UTF-8" standalone="no"?>
<!DOCTYPE svg PUBLIC "-//W3C//DTD SVG 1.1//EN" "http://www.w3.org/Graphics/SVG/1.1/DTD/svg11.dtd">
<svg width="85px" height="49px" version="1.1" xmlns="http://www.w3.org/2000/svg" xmlns:xlink="http://www.w3.org/1999/xlink" xml:space="preserve" xmlns:serif="http://www.serif.com/" style="fill-rule:evenodd;clip-rule:evenodd;stroke-linejoin:round;stroke-miterlimit:2;">
    <g transform="matrix(-0.492888,0,0,0.492888,97.3524,-58.5433)">
        <path d="M50.681,214.522L50.655,164.193C50.655,162.785 50.927,161.442 51.969,160.494C55.871,156.945 70.952,143.678 70.952,143.678C72.12,142.011 72.705,140.779 73.317,139.714C74.306,137.993 74.986,136.59 75.869,134.595L83.051,119.645L90.688,135.327C95.139,134.807 99.59,134.775 104.041,135.327L110.675,119.645L118.625,134.595L121.88,140.067L169.961,140.067C170.847,140.067 171.564,140.784 171.564,141.67L171.564,145.677C173.143,144.892 174.227,145.293 174.957,146.545C174.957,146.545 190.344,160.095 195.635,164.734C196.101,165.143 196.371,165.731 196.377,166.351C196.384,166.971 196.126,167.565 195.668,167.983C190.875,172.367 177.853,184.276 173.475,188.28C172.657,189.028 171.397,189.008 170.603,188.234C170.123,187.765 169.148,186.803 168.721,186.387C168.572,186.241 168.35,186.199 168.157,186.28C167.965,186.361 167.84,186.549 167.84,186.758L167.84,195.261C167.84,196.682 167.235,198.037 166.175,198.986C162.384,202.381 153.081,210.71 148.512,214.801C146.826,216.311 144.643,217.145 142.38,217.145L53.304,217.145C52.608,217.145 51.941,216.869 51.449,216.377C50.957,215.885 50.681,215.218 50.681,214.522Z" style="fill:white;"/>
    </g>
    <g transform="matrix(0.492888,0,0,0.492888,-12.606,-58.5433)">
        <path d="M80.317,218.19L103.384,218.19C103.961,218.19 104.429,217.722 104.429,217.145C104.429,216.568 103.961,216.1 103.384,216.1L80.317,216.1C79.741,216.1 79.273,216.568 79.273,217.145C79.273,217.722 79.741,218.19 80.317,218.19ZM146.225,218.19L169.292,218.19C169.868,218.19 170.336,217.722 170.336,217.145C170.336,216.568 169.868,216.1 169.292,216.1L146.225,216.1C145.648,216.1 145.18,216.568 145.18,217.145C145.18,217.722 145.648,218.19 146.225,218.19ZM75.809,194.903L75.809,215.965C75.809,216.578 76.307,217.076 76.92,217.076C77.533,217.076 78.031,216.578 78.031,215.965L78.031,194.903C78.031,194.29 77.533,193.792 76.92,193.792C76.307,193.792 75.809,194.29 75.809,194.903ZM171.377,193.903L171.377,214.965C171.377,215.578 171.875,216.076 172.488,216.076C173.101,216.076 173.599,215.578 173.599,214.965L173.599,193.903C173.599,193.29 173.101,192.792 172.488,192.792C171.875,192.792 171.377,193.29 171.377,193.903ZM52.425,197.186L71.306,213.808C71.766,214.213 72.469,214.168 72.874,213.708C73.279,213.248 73.235,212.545 72.774,212.14L53.894,195.518C53.434,195.113 52.731,195.157 52.326,195.618C51.92,196.078 51.965,196.781 52.425,197.186ZM143.343,208.692L131.703,208.692C131.011,208.692 130.45,209.254 130.45,209.946C130.45,210.637 131.011,211.199 131.703,211.199L143.343,211.199C144.035,211.199 144.596,210.637 144.596,209.946C144.596,209.254 144.035,208.692 143.343,208.692ZM118.377,208.692L106.738,208.692C106.046,208.692 105.484,209.254 105.484,209.946C105.484,210.637 106.046,211.199 106.738,211.199L118.377,211.199C119.069,211.199 119.631,210.637 119.631,209.946C119.631,209.254 119.069,208.692 118.377,208.692ZM143.343,200.671L131.703,200.671C131.011,200.671 130.45,201.232 130.45,201.924C130.45,202.616 131.011,203.178 131.703,203.178L143.343,203.178C144.035,203.178 144.596,202.616 144.596,201.924C144.596,201.232 144.035,200.671 143.343,200.671ZM118.377,200.671L106.738,200.671C106.046,200.671 105.484,201.232 105.484,201.924C105.484,202.616 106.046,203.178 106.738,203.178L118.377,203.178C119.069,203.178 119.631,202.616 119.631,201.924C119.631,201.232 119.069,200.671 118.377,200.671ZM75.809,168.299L75.809,189.36C75.809,189.974 76.307,190.472 76.92,190.472C77.533,190.472 78.031,189.974 78.031,189.36L78.031,168.299C78.031,167.685 77.533,167.187 76.92,167.187C76.307,167.187 75.809,167.685 75.809,168.299ZM70.288,170.486L50.671,187.755C50.211,188.161 50.166,188.863 50.571,189.324C50.977,189.784 51.679,189.829 52.14,189.423L71.756,172.154C72.216,171.748 72.261,171.046 71.856,170.585C71.451,170.125 70.748,170.08 70.288,170.486ZM171.377,167.299L171.377,188.36C171.377,188.974 171.875,189.472 172.488,189.472C173.101,189.472 173.599,188.974 173.599,188.36L173.599,167.299C173.599,166.685 173.101,166.187 172.488,166.187C171.875,166.187 171.377,166.685 171.377,167.299ZM29.397,171.005L48.277,187.627C48.738,188.032 49.44,187.988 49.846,187.527C50.251,187.067 50.206,186.364 49.746,185.959L30.865,169.338C30.405,168.932 29.702,168.977 29.297,169.437C28.892,169.898 28.937,170.6 29.397,171.005ZM177.532,172.154L195.047,187.573C195.507,187.978 196.21,187.934 196.615,187.473C197.02,187.013 196.975,186.31 196.515,185.905L179.001,170.486C178.54,170.08 177.838,170.125 177.432,170.585C177.027,171.046 177.072,171.748 177.532,172.154ZM106.452,171.794L106.452,179.348C106.452,183.314 109.453,186.486 113.098,186.486L113.1,186.486C116.566,186.486 119.422,183.472 119.422,179.701L119.422,171.794C119.422,171.218 118.954,170.75 118.377,170.75C117.801,170.75 117.333,171.218 117.333,171.794L117.333,179.701C117.333,182.271 115.463,184.397 113.1,184.397L113.098,184.397C110.556,184.397 108.541,182.113 108.541,179.348L108.541,171.794C108.541,171.218 108.073,170.75 107.496,170.75C106.92,170.75 106.452,171.218 106.452,171.794ZM129.78,171.298L129.78,178.852C129.78,182.817 132.781,185.99 136.426,185.99L136.427,185.99C139.894,185.99 142.75,182.975 142.75,179.204L142.75,171.298C142.75,170.721 142.282,170.253 141.705,170.253C141.129,170.253 140.661,170.721 140.661,171.298L140.661,179.204C140.66,181.775 138.791,183.901 136.427,183.901L136.426,183.901C133.884,183.901 131.869,181.617 131.869,178.852L131.869,171.298C131.869,170.721 131.401,170.253 130.824,170.253C130.248,170.253 129.78,170.721 129.78,171.298ZM80.325,168.343L106.183,168.343C106.76,168.343 107.228,167.875 107.228,167.299C107.228,166.722 106.76,166.254 106.183,166.254L80.325,166.254C79.749,166.254 79.281,166.722 79.281,167.299C79.281,167.875 79.749,168.343 80.325,168.343ZM145.735,168.343L168.924,168.343C169.501,168.343 169.969,167.875 169.969,167.299C169.969,166.722 169.501,166.254 168.924,166.254L145.735,166.254C145.159,166.254 144.691,166.722 144.691,167.299C144.691,167.875 145.159,168.343 145.735,168.343ZM98.46,144.02C94.122,150.278 93.894,156.536 98.476,162.793C98.816,163.259 99.471,163.36 99.936,163.019C100.401,162.679 100.502,162.024 100.161,161.559C96.171,156.11 96.4,150.66 100.177,145.211C100.506,144.737 100.388,144.085 99.914,143.757C99.44,143.428 98.789,143.546 98.46,144.02ZM151.487,144.895C155.264,150.344 155.492,155.794 151.502,161.243C151.162,161.709 151.263,162.363 151.728,162.703C152.193,163.044 152.847,162.943 153.188,162.478C157.77,156.22 157.542,149.962 153.204,143.705C152.875,143.231 152.224,143.113 151.75,143.441C151.276,143.77 151.158,144.421 151.487,144.895ZM132.977,161.45L140.102,146.436C140.365,145.882 140.129,145.218 139.575,144.955C139.021,144.692 138.357,144.929 138.094,145.483L136.385,149.085L127.561,149.085L125.851,145.483C125.588,144.928 124.926,144.692 124.371,144.955C123.817,145.218 123.581,145.881 123.844,146.436L130.969,161.45C131.153,161.838 131.544,162.085 131.973,162.085C132.402,162.085 132.793,161.838 132.977,161.45ZM159.197,151.196L171.123,161.695C171.583,162.1 172.286,162.055 172.691,161.595C173.096,161.135 173.051,160.432 172.591,160.027L160.666,149.528C160.205,149.123 159.503,149.167 159.097,149.628C158.692,150.088 158.737,150.791 159.197,151.196ZM46.912,145.81L30.763,160.027C30.302,160.432 30.258,161.135 30.663,161.595C31.068,162.055 31.771,162.1 32.231,161.695L48.38,147.477C48.84,147.072 48.885,146.37 48.48,145.909C48.075,145.449 47.372,145.404 46.912,145.81ZM53.97,146.275L71.484,161.695C71.945,162.1 72.647,162.055 73.052,161.595C73.458,161.135 73.413,160.432 72.953,160.027L55.438,144.607C54.978,144.202 54.275,144.247 53.87,144.707C53.465,145.167 53.509,145.87 53.97,146.275ZM105.871,153.476L102.965,155.168C102.64,155.358 102.482,155.742 102.58,156.106C102.599,156.174 102.626,156.238 102.659,156.298L102.868,156.67C103.138,157.069 103.554,157.03 103.554,157.03C103.702,157.03 103.848,156.99 103.975,156.915L106.862,155.222L106.862,158.609C106.862,159.055 107.212,159.419 107.652,159.441L108.076,159.441C108.517,159.419 108.867,159.055 108.867,158.609L108.867,155.222L111.753,156.915C111.881,156.99 112.027,157.03 112.175,157.03C112.175,157.03 112.643,157.074 112.909,156.59L113.07,156.298C113.103,156.238 113.13,156.174 113.148,156.106C113.246,155.742 113.089,155.358 112.763,155.168L109.858,153.476L112.763,151.783C113.089,151.594 113.246,151.21 113.148,150.846C113.13,150.778 113.103,150.713 113.07,150.654L112.909,150.362C112.643,149.877 112.175,149.922 112.175,149.922C112.027,149.922 111.881,149.962 111.753,150.037L108.867,151.73L108.867,148.343C108.867,147.897 108.517,147.533 108.076,147.511L107.652,147.511C107.212,147.533 106.862,147.897 106.862,148.343L106.862,151.73L103.975,150.037C103.848,149.962 103.702,149.922 103.554,149.922C103.554,149.922 103.138,149.883 102.868,150.282L102.659,150.654C102.626,150.713 102.599,150.778 102.58,150.846C102.482,151.21 102.64,151.594 102.965,151.783L105.871,153.476ZM135.33,151.307L128.616,151.307L131.973,158.382L135.33,151.307ZM146.076,140.998C144.651,140.998 143.488,142.167 143.488,143.615C143.488,145.064 144.651,146.233 146.076,146.233C147.5,146.233 148.664,145.064 148.664,143.615C148.664,142.167 147.5,140.998 146.076,140.998ZM116.656,140.998C115.232,140.998 114.068,142.167 114.068,143.615C114.068,145.064 115.232,146.233 116.656,146.233C118.08,146.233 119.244,145.064 119.244,143.615C119.244,142.167 118.08,140.998 116.656,140.998ZM50.062,141.879L50.062,144.879C50.062,145.492 50.56,145.99 51.173,145.99C51.787,145.99 52.284,145.492 52.284,144.879L52.284,141.879C52.284,141.266 51.787,140.768 51.173,140.768C50.56,140.768 50.062,141.266 50.062,141.879ZM146.076,142.664C146.588,142.664 146.997,143.094 146.997,143.615C146.997,144.137 146.588,144.567 146.076,144.567C145.563,144.567 145.155,144.137 145.155,143.615C145.155,143.094 145.563,142.664 146.076,142.664ZM116.656,142.664C117.168,142.664 117.577,143.094 117.577,143.615C117.577,144.137 117.168,144.567 116.656,144.567C116.144,144.567 115.735,144.137 115.735,143.615C115.735,143.094 116.144,142.664 116.656,142.664ZM53.309,140.758L101.207,140.758C101.783,140.758 102.251,140.29 102.251,139.714C102.251,139.137 101.783,138.669 101.207,138.669L53.309,138.669C52.733,138.669 52.265,139.137 52.265,139.714C52.265,140.29 52.733,140.758 53.309,140.758ZM120.455,134.476L113.32,119.412C113.136,119.024 112.745,118.776 112.316,118.776C111.887,118.776 111.496,119.024 111.312,119.412L104.177,134.476C103.914,135.03 104.151,135.693 104.705,135.955C105.259,136.218 105.922,135.981 106.184,135.427L112.316,122.482L118.448,135.427C118.71,135.981 119.373,136.218 119.927,135.955C120.481,135.693 120.718,135.03 120.455,134.476ZM148.556,134.476L141.421,119.412C141.237,119.024 140.846,118.776 140.417,118.776C139.988,118.776 139.597,119.024 139.413,119.412L132.278,134.476C132.015,135.03 132.252,135.693 132.806,135.955C133.36,136.218 134.023,135.981 134.285,135.427L140.417,122.482L146.549,135.427C146.811,135.981 147.474,136.218 148.028,135.955C148.582,135.693 148.819,135.03 148.556,134.476Z"/>
    </g>
</svg>
