<?xml version="1.0" encoding="UTF-8" standalone="no"?>
<svg xmlns:ffdec="https://www.free-decompiler.com/flash" xmlns:xlink="http://www.w3.org/1999/xlink" ffdec:objectType="shape" height="80.65px" width="43.1px" xmlns="http://www.w3.org/2000/svg">
  <g transform="matrix(1.0, 0.0, 0.0, 1.0, 24.1, 81.3)">
    <path d="M10.55 -46.4 Q11.35 -46.3 12.15 -45.8 10.15 -44.05 7.6 -44.9 L3.65 -45.55 Q0.4 -46.0 -2.5 -45.0 L-6.35 -43.8 -7.45 -43.5 -7.5 -44.95 Q-5.65 -46.35 -3.65 -46.6 L5.8 -47.05 7.25 -46.85 10.05 -46.5 10.55 -46.4" fill="#ffffff" fill-rule="evenodd" stroke="none"/>
    <path d="M10.55 -46.4 Q11.35 -46.3 12.15 -45.8 10.15 -44.05 7.6 -44.9 L3.65 -45.55 Q0.4 -46.0 -2.5 -45.0 L-6.35 -43.8 -7.45 -43.5 -7.5 -44.95 Q-5.65 -46.35 -3.65 -46.6 L5.8 -47.05 7.25 -46.85 10.05 -46.5 10.55 -46.4 Z" fill="none" stroke="#000000" stroke-linecap="round" stroke-linejoin="round" stroke-width="0.05"/>
    <path d="M-3.05 -61.15 Q-3.9 -62.0 -1.05 -64.55 2.15 -65.45 5.15 -64.0 L5.85 -63.35 Q6.4 -60.85 4.7 -59.3 L4.4 -59.0 Q0.95 -55.05 -2.55 -59.25 0.95 -55.05 4.4 -59.0 L4.7 -59.3 Q6.4 -60.85 5.85 -63.35 L5.15 -64.0 Q2.15 -65.45 -1.05 -64.55 -3.9 -62.0 -3.05 -61.15 M-9.05 -51.25 Q-11.1 -54.95 -11.65 -58.85 -12.1 -62.4 -11.35 -66.15 -10.9 -68.35 -9.25 -69.95 -5.35 -73.7 -0.45 -75.35 L1.65 -75.6 Q5.75 -75.4 9.55 -73.95 11.1 -73.4 12.2 -72.1 13.85 -70.3 14.75 -68.0 15.1 -67.15 15.05 -66.3 14.5 -58.0 8.4 -52.7 L4.25 -49.05 Q5.0 -45.15 7.7 -42.35 10.35 -39.55 11.55 -36.0 12.7 -32.45 13.0 -28.7 13.05 -27.75 12.7 -26.9 12.1 -25.75 10.8 -25.05 L10.25 -24.75 10.85 -24.9 Q11.55 -23.25 10.8 -21.25 L10.4 -20.25 Q9.25 -17.55 9.05 -14.0 8.8 -10.05 9.7 -6.5 L10.0 -4.7 Q10.35 -2.6 8.95 -1.9 5.8 -0.45 1.8 -0.65 -0.2 -0.7 -1.9 -1.25 -2.85 -1.55 -2.1 -2.7 L-1.2 -3.65 -3.85 -3.6 -5.45 -3.85 Q-6.3 -4.05 -6.8 -4.55 L-6.95 -5.1 Q-6.5 -5.65 -5.65 -5.9 -2.75 -6.9 -1.1 -9.1 -0.65 -9.7 -0.55 -10.1 0.3 -13.35 0.35 -16.45 L0.2 -18.2 0.05 -18.9 Q-0.4 -20.25 -1.2 -21.7 -2.95 -24.8 -1.85 -28.8 L-1.85 -28.85 Q-2.3 -29.5 -2.1 -30.05 -1.5 -31.55 -1.45 -33.25 L-1.2 -36.15 -8.0 -36.9 Q-10.1 -37.3 -11.35 -38.55 -12.65 -39.65 -13.25 -41.2 L-15.0 -46.4 -15.1 -47.1 Q-15.0 -48.2 -15.3 -48.8 -15.8 -48.15 -16.85 -48.3 L-17.85 -48.6 Q-20.8 -49.95 -19.95 -53.75 -21.05 -54.25 -22.5 -54.3 -24.9 -54.45 -23.75 -56.7 L-20.05 -57.3 -16.95 -57.55 Q-13.65 -57.55 -12.35 -54.85 -11.8 -53.75 -11.5 -52.05 -10.85 -48.7 -9.4 -45.1 L-8.8 -43.4 Q-8.3 -42.15 -6.6 -41.5 L-3.4 -41.2 Q-2.05 -41.5 1.45 -43.45 2.2 -45.05 2.0 -47.5 -0.3 -46.5 -2.85 -46.6 L-4.5 -46.7 Q-6.45 -47.8 -7.85 -49.65 -8.55 -50.55 -8.3 -50.8 L-9.05 -51.25 M2.0 -47.5 L3.15 -48.1 4.25 -49.05 3.15 -48.1 2.0 -47.5 M-1.2 -36.15 L-1.15 -36.45 -0.25 -39.75 -0.1 -40.1 0.1 -40.6 0.7 -42.35 1.45 -43.45 0.7 -42.35 0.1 -40.6 -0.1 -40.1 -0.25 -39.75 -1.15 -36.45 -1.2 -36.15 M-0.2 -29.1 L0.15 -28.85 Q0.95 -28.25 1.0 -28.3 0.4 -28.9 -0.2 -29.1 L-1.75 -29.25 -1.85 -28.85 -1.75 -29.25 -0.2 -29.1 Q-1.05 -30.0 -0.15 -30.75 L0.5 -31.0 Q2.1 -31.1 2.95 -29.7 4.15 -27.65 7.0 -28.1 8.2 -28.3 8.3 -29.9 8.5 -32.9 8.0 -35.65 L7.85 -36.4 8.0 -35.65 Q8.5 -32.9 8.3 -29.9 8.2 -28.3 7.0 -28.1 4.15 -27.65 2.95 -29.7 2.1 -31.1 0.5 -31.0 L-0.15 -30.75 Q-1.05 -30.0 -0.2 -29.1 M-5.45 -51.1 Q-3.3 -51.1 -2.65 -51.55 L-2.9 -52.25 -4.15 -53.45 -5.8 -53.25 -4.15 -53.45 -2.9 -52.25 -2.65 -51.55 Q-3.3 -51.1 -5.45 -51.1 M-10.8 -58.9 Q-10.05 -58.25 -8.8 -57.8 -8.2 -57.95 -7.6 -58.45 L-7.3 -62.05 Q-7.75 -63.45 -8.7 -63.95 L-10.1 -64.75 -8.7 -63.95 Q-7.75 -63.45 -7.3 -62.05 L-7.6 -58.45 Q-8.2 -57.95 -8.8 -57.8 -10.05 -58.25 -10.8 -58.9 M-1.85 -28.8 Q-2.15 -27.0 -0.55 -25.5 0.85 -24.25 2.9 -23.9 6.9 -23.3 10.25 -24.75 6.9 -23.3 2.9 -23.9 0.85 -24.25 -0.55 -25.5 -2.15 -27.0 -1.85 -28.8 M3.55 -19.5 L4.0 -18.2 4.15 -16.45 Q4.45 -12.65 4.2 -8.75 L3.95 -7.5 Q3.25 -5.7 1.25 -4.85 L0.1 -4.4 -1.2 -3.65 0.1 -4.4 1.25 -4.85 Q3.25 -5.7 3.95 -7.5 L4.2 -8.75 Q4.45 -12.65 4.15 -16.45 L4.0 -18.2 3.55 -19.5" fill="#ffffff" fill-rule="evenodd" stroke="none"/>
    <path d="M-2.55 -59.25 Q0.95 -55.05 4.4 -59.0 L4.7 -59.3 Q6.4 -60.85 5.85 -63.35 L5.15 -64.0 Q2.15 -65.45 -1.05 -64.55 -3.9 -62.0 -3.05 -61.15 M-9.05 -51.25 Q-11.1 -54.95 -11.65 -58.85 -12.1 -62.4 -11.35 -66.15 -10.9 -68.35 -9.25 -69.95 -5.35 -73.7 -0.45 -75.35 L1.65 -75.6 Q5.75 -75.4 9.55 -73.95 11.1 -73.4 12.2 -72.1 13.85 -70.3 14.75 -68.0 15.1 -67.15 15.05 -66.3 14.5 -58.0 8.4 -52.7 L4.25 -49.05 Q5.0 -45.15 7.7 -42.35 10.35 -39.55 11.55 -36.0 12.7 -32.45 13.0 -28.7 13.05 -27.75 12.7 -26.9 12.1 -25.75 10.8 -25.05 L10.85 -24.9 Q11.55 -23.25 10.8 -21.25 L10.4 -20.25 Q9.25 -17.55 9.05 -14.0 8.8 -10.05 9.7 -6.5 L10.0 -4.7 Q10.35 -2.6 8.95 -1.9 5.8 -0.45 1.8 -0.65 -0.2 -0.7 -1.9 -1.25 -2.85 -1.55 -2.1 -2.7 L-1.2 -3.65 -3.85 -3.6 -5.45 -3.85 Q-6.3 -4.05 -6.8 -4.55 L-6.95 -5.1 Q-6.5 -5.65 -5.65 -5.9 -2.75 -6.9 -1.1 -9.1 -0.65 -9.7 -0.55 -10.1 0.3 -13.35 0.35 -16.45 L0.2 -18.2 0.05 -18.9 Q-0.4 -20.25 -1.2 -21.7 -2.95 -24.8 -1.85 -28.8 L-1.85 -28.85 Q-2.3 -29.5 -2.1 -30.05 -1.5 -31.55 -1.45 -33.25 L-1.2 -36.15 -8.0 -36.9 Q-10.1 -37.3 -11.35 -38.55 -12.65 -39.65 -13.25 -41.2 L-15.0 -46.4 -15.1 -47.1 Q-15.0 -48.2 -15.3 -48.8 -15.8 -48.15 -16.85 -48.3 L-17.85 -48.6 Q-20.8 -49.95 -19.95 -53.75 -21.05 -54.25 -22.5 -54.3 -24.9 -54.45 -23.75 -56.7 L-20.05 -57.3 -16.95 -57.55 Q-13.65 -57.55 -12.35 -54.85 -11.8 -53.75 -11.5 -52.05 -10.85 -48.7 -9.4 -45.1 L-8.8 -43.4 Q-8.3 -42.15 -6.6 -41.5 L-3.4 -41.2 Q-2.05 -41.5 1.45 -43.45 2.2 -45.05 2.0 -47.5 -0.3 -46.5 -2.85 -46.6 L-4.5 -46.7 Q-6.45 -47.8 -7.85 -49.65 -8.55 -50.55 -8.3 -50.8 M1.45 -43.45 L0.7 -42.35 0.1 -40.6 -0.1 -40.1 -0.25 -39.75 -1.15 -36.45 -1.2 -36.15 M4.25 -49.05 L3.15 -48.1 2.0 -47.5 M-0.2 -29.1 Q0.4 -28.9 1.0 -28.3 0.95 -28.25 0.15 -28.85 L-0.2 -29.1 -1.75 -29.25 -1.85 -28.85 M-0.2 -29.1 Q-1.05 -30.0 -0.15 -30.75 L0.5 -31.0 Q2.1 -31.1 2.95 -29.7 4.15 -27.65 7.0 -28.1 8.2 -28.3 8.3 -29.9 8.5 -32.9 8.0 -35.65 L7.85 -36.4 M10.8 -25.05 L10.25 -24.75 Q6.9 -23.3 2.9 -23.9 0.85 -24.25 -0.55 -25.5 -2.15 -27.0 -1.85 -28.8 M-1.2 -3.65 L0.1 -4.4 1.25 -4.85 Q3.25 -5.7 3.95 -7.5 L4.2 -8.75 Q4.45 -12.65 4.15 -16.45 L4.0 -18.2 3.55 -19.5 M-10.1 -64.75 L-8.7 -63.95 Q-7.75 -63.45 -7.3 -62.05 L-7.6 -58.45 Q-8.2 -57.95 -8.8 -57.8 -10.05 -58.25 -10.8 -58.9 M-5.8 -53.25 L-4.15 -53.45 -2.9 -52.25 -2.65 -51.55 Q-3.3 -51.1 -5.45 -51.1" fill="none" stroke="#000000" stroke-linecap="round" stroke-linejoin="round" stroke-width="0.05"/>
    <path d="M11.5 -46.35 Q12.2 -46.15 12.45 -45.4 12.45 -44.5 12.15 -43.95 10.9 -43.15 9.6 -42.7 0.85 -39.75 -7.45 -43.5 L-7.4 -44.7 Q-11.75 -47.1 -13.95 -51.6 -16.15 -56.1 -17.0 -62.1 -17.9 -68.15 -14.55 -72.95 -11.25 -77.8 -4.75 -79.8 L0.2 -81.3 7.3 -80.4 Q14.6 -79.45 16.65 -74.8 18.7 -70.2 18.95 -66.1 19.7 -54.35 11.5 -46.35 L10.1 -46.45 11.5 -46.35 M10.05 -46.45 L10.1 -46.45 Q11.3 -47.85 12.5 -49.8 14.45 -52.85 15.5 -56.2 L15.95 -57.65 16.85 -61.85 17.15 -64.8 Q17.35 -68.25 15.9 -71.2 14.5 -74.1 11.75 -75.75 5.95 -79.3 -0.4 -77.3 -1.05 -77.15 -1.5 -76.65 -2.95 -75.3 -4.7 -74.85 -2.6 -73.7 -1.2 -71.75 -0.85 -70.85 -0.85 -69.9 L-0.95 -67.6 Q-1.15 -65.2 -2.95 -63.7 L-5.8 -62.9 Q-7.5 -63.15 -8.75 -63.95 -11.8 -65.8 -11.4 -69.35 -13.05 -66.55 -12.85 -62.8 L-12.7 -59.85 Q-12.3 -53.95 -9.4 -48.95 -7.8 -46.2 -5.6 -44.6 L-4.25 -44.5 -4.2 -44.55 -0.55 -43.75 2.05 -43.75 Q5.5 -43.95 8.05 -45.05 L8.85 -45.45 10.0 -45.35 10.05 -46.45" fill="#ffffff" fill-rule="evenodd" stroke="none"/>
    <path d="M11.5 -46.35 Q19.7 -54.35 18.95 -66.1 18.7 -70.2 16.65 -74.8 14.6 -79.45 7.3 -80.4 L0.2 -81.3 -4.75 -79.8 Q-11.25 -77.8 -14.55 -72.95 -17.9 -68.15 -17.0 -62.1 -16.15 -56.1 -13.95 -51.6 -11.75 -47.1 -7.4 -44.7 L-7.45 -43.5 Q0.85 -39.75 9.6 -42.7 10.9 -43.15 12.15 -43.95 12.45 -44.5 12.45 -45.4 12.2 -46.15 11.5 -46.35 L10.1 -46.45 10.05 -46.45 M8.85 -45.45 L8.05 -45.05 Q5.5 -43.95 2.05 -43.75 L-0.55 -43.75 -4.2 -44.55" fill="none" stroke="#000000" stroke-linecap="round" stroke-linejoin="round" stroke-width="0.05"/>
  </g>
</svg>
