<?xml version="1.0" encoding="UTF-8" standalone="no"?>
<svg xmlns:ffdec="https://www.free-decompiler.com/flash" xmlns:xlink="http://www.w3.org/1999/xlink" ffdec:objectType="shape" height="86.55px" width="56.75px" xmlns="http://www.w3.org/2000/svg">
  <g transform="matrix(1.0, 0.0, 0.0, 1.0, 24.1, 87.2)">
    <path d="M11.25 -87.15 L11.7 -87.05 11.95 -85.95 Q12.4 -86.65 13.35 -86.6 13.95 -86.6 14.35 -86.1 L14.4 -85.95 14.3 -85.0 Q14.8 -85.05 15.15 -84.6 L15.55 -84.2 Q16.05 -83.75 16.0 -83.1 L15.9 -82.85 Q15.65 -82.45 15.2 -82.45 15.1 -82.3 15.4 -82.25 L15.75 -82.1 Q16.45 -81.75 16.4 -81.0 L16.15 -80.65 Q15.75 -80.4 15.35 -80.25 L13.85 -80.15 13.45 -80.3 12.85 -80.35 12.6 -80.0 12.35 -79.75 11.75 -78.85 10.8 -77.15 9.8 -75.55 9.1 -74.6 Q8.55 -73.9 7.45 -73.9 L6.1 -74.2 5.9 -74.35 5.35 -75.0 5.8 -75.6 7.0 -77.0 8.0 -78.5 8.8 -80.1 8.95 -80.45 9.0 -80.75 9.15 -81.05 9.65 -81.9 9.75 -82.05 9.4 -83.8 9.35 -84.35 Q9.45 -85.3 10.0 -86.05 L10.8 -86.85 11.25 -87.15 M12.85 -80.35 Q13.25 -81.05 12.95 -81.8 L12.8 -81.95 Q12.1 -82.55 11.05 -82.8 L10.05 -82.45 9.95 -82.35 9.75 -82.05 9.95 -82.35 10.05 -82.45 11.05 -82.8 Q12.1 -82.55 12.8 -81.95 L12.95 -81.8 Q13.25 -81.05 12.85 -80.35 M-8.3 -64.6 Q-7.8 -64.1 -7.65 -63.4 -7.4 -62.15 -7.45 -60.85 L-7.55 -59.45 -7.7 -58.7 -8.15 -56.75 Q-8.3 -56.1 -8.85 -55.75 L-9.25 -55.65 Q-9.9 -55.55 -10.35 -56.0 L-10.95 -55.95 Q-12.2 -55.8 -13.05 -56.6 L-13.65 -57.1 Q-14.3 -57.55 -14.3 -58.3 -14.35 -58.8 -13.95 -59.0 L-14.3 -59.75 Q-14.75 -60.25 -14.85 -60.85 -15.05 -61.7 -14.85 -62.6 L-14.25 -64.05 -14.05 -64.25 -13.7 -64.4 Q-13.45 -64.4 -13.45 -64.5 L-13.35 -64.85 Q-13.1 -65.8 -12.05 -66.0 -11.15 -66.15 -10.5 -65.65 L-10.35 -65.5 -10.35 -65.7 -9.9 -65.8 -9.4 -65.7 -8.3 -64.6" fill="#ffffff" fill-rule="evenodd" stroke="none"/>
    <path d="M-8.3 -64.6 L-9.4 -65.7 -9.9 -65.8 -10.35 -65.7 -10.35 -65.5 -10.5 -65.65 Q-11.15 -66.15 -12.05 -66.0 -13.1 -65.8 -13.35 -64.85 L-13.45 -64.5 Q-13.45 -64.4 -13.7 -64.4 L-14.05 -64.25 -14.25 -64.05 -14.85 -62.6 Q-15.05 -61.7 -14.85 -60.85 -14.75 -60.25 -14.3 -59.75 L-13.95 -59.0 Q-14.35 -58.8 -14.3 -58.3 -14.3 -57.55 -13.65 -57.1 L-13.05 -56.6 Q-12.2 -55.8 -10.95 -55.95 L-10.35 -56.0 Q-9.9 -55.55 -9.25 -55.65 L-8.85 -55.75 Q-8.3 -56.1 -8.15 -56.75 L-7.7 -58.7 -7.55 -59.45 -7.45 -60.85 Q-7.4 -62.15 -7.65 -63.4 -7.8 -64.1 -8.3 -64.6" fill="none" stroke="#000000" stroke-linecap="round" stroke-linejoin="round" stroke-width="0.05"/>
    <path d="M11.25 -87.15 L11.7 -87.05 11.95 -85.95 Q12.4 -86.65 13.35 -86.6 13.95 -86.6 14.35 -86.1 L14.4 -85.95 14.3 -85.0 Q14.8 -85.05 15.15 -84.6 L15.55 -84.2 Q16.05 -83.75 16.0 -83.1 L15.9 -82.85 Q15.65 -82.45 15.2 -82.45 15.1 -82.3 15.4 -82.25 L15.75 -82.1 Q16.45 -81.75 16.4 -81.0 L16.15 -80.65 Q15.75 -80.4 15.35 -80.25 L13.85 -80.15 13.45 -80.3 12.85 -80.35 12.6 -80.0 12.35 -79.75 11.75 -78.85 10.8 -77.15 9.8 -75.55 9.1 -74.6 Q8.55 -73.9 7.45 -73.9 L6.1 -74.2 5.9 -74.35 5.35 -75.0 5.8 -75.6 7.0 -77.0 8.0 -78.5 8.8 -80.1 8.95 -80.45 9.0 -80.75 9.15 -81.05 9.65 -81.9 9.75 -82.05 9.4 -83.8 9.35 -84.35 Q9.45 -85.3 10.0 -86.05 L10.8 -86.85 11.25 -87.15 M9.75 -82.05 L9.95 -82.35 10.05 -82.45 11.05 -82.8 Q12.1 -82.55 12.8 -81.95 L12.95 -81.8 Q13.25 -81.05 12.85 -80.35" fill="none" stroke="#000000" stroke-linecap="round" stroke-linejoin="round" stroke-width="0.05"/>
    <path d="M-9.05 -51.25 Q-11.1 -54.95 -11.65 -58.85 -12.1 -62.4 -11.35 -66.15 -10.9 -68.35 -9.25 -69.95 -5.35 -73.7 -0.45 -75.35 L1.65 -75.6 Q5.75 -75.4 9.55 -73.95 11.1 -73.4 12.2 -72.1 13.85 -70.3 14.75 -68.0 15.1 -67.15 15.05 -66.3 14.5 -58.0 8.4 -52.7 L4.25 -49.05 Q4.95 -45.6 7.15 -42.95 L7.5 -43.5 9.85 -42.35 9.9 -41.55 9.9 -41.5 Q14.15 -35.95 14.1 -29.2 L13.6 -28.3 12.7 -26.9 12.65 -26.85 12.6 -26.75 11.95 -25.9 12.1 -25.5 12.65 -24.0 32.65 -17.05 32.35 -15.85 Q32.35 -15.3 32.1 -15.3 L13.15 -20.8 16.05 -7.15 12.95 -6.45 9.8 -6.1 10.0 -4.7 Q10.35 -2.6 8.95 -1.9 5.8 -0.45 1.8 -0.65 -0.2 -0.7 -1.9 -1.25 -2.85 -1.55 -2.1 -2.7 L-1.2 -3.65 -3.85 -3.6 -5.45 -3.85 Q-6.3 -4.05 -6.8 -4.55 L-6.95 -5.1 Q-6.5 -5.65 -5.65 -5.9 -2.75 -6.9 -1.1 -9.1 L-0.95 -9.25 -1.0 -9.3 Q-2.0 -9.6 -2.9 -10.25 L-2.15 -24.3 -2.25 -25.0 Q-3.2 -25.15 -3.3 -25.55 L-2.2 -26.85 -2.15 -27.2 -3.1 -27.45 Q-3.85 -28.8 -2.0 -29.1 -2.25 -29.65 -2.1 -30.05 L-1.75 -31.0 -7.75 -27.1 -9.2 -27.3 -9.2 -37.25 Q-10.5 -37.7 -11.35 -38.55 -12.65 -39.65 -13.25 -41.2 L-15.0 -46.4 -15.1 -47.1 Q-15.0 -48.2 -15.3 -48.8 -15.8 -48.15 -16.85 -48.3 L-17.85 -48.6 Q-20.8 -49.95 -19.95 -53.75 -21.05 -54.25 -22.5 -54.3 -24.9 -54.45 -23.75 -56.7 L-20.05 -57.3 -16.95 -57.55 Q-13.65 -57.55 -12.35 -54.85 -11.8 -53.75 -11.5 -52.05 -10.85 -48.7 -9.4 -45.1 L-8.25 -45.15 -7.9 -44.1 -7.75 -43.5 -5.65 -43.45 -3.5 -42.55 0.5 -42.95 0.5 -42.9 1.45 -43.45 Q2.2 -45.05 2.0 -47.5 -0.3 -46.5 -2.85 -46.6 L-4.5 -46.7 Q-6.45 -47.8 -7.85 -49.65 -8.55 -50.55 -8.3 -50.8 L-9.05 -51.25 M2.0 -47.5 L3.15 -48.1 4.25 -49.05 3.15 -48.1 2.0 -47.5 M-3.05 -61.15 Q-3.9 -62.0 -1.05 -64.55 2.15 -65.45 5.15 -64.0 L5.85 -63.35 Q6.4 -60.85 4.7 -59.3 L4.4 -59.0 Q0.95 -55.05 -2.55 -59.25 0.95 -55.05 4.4 -59.0 L4.7 -59.3 Q6.4 -60.85 5.85 -63.35 L5.15 -64.0 Q2.15 -65.45 -1.05 -64.55 -3.9 -62.0 -3.05 -61.15 M1.45 -43.45 L0.7 -42.35 0.1 -40.6 0.0 -40.4 0.0 -40.5 Q0.0 -42.0 0.5 -42.9 0.0 -42.0 0.0 -40.5 L0.0 -40.4 0.1 -40.6 0.7 -42.35 1.45 -43.45 M-1.75 -31.0 L-1.75 -31.05 Q-1.35 -30.4 -0.35 -30.65 4.95 -33.1 9.25 -39.1 L9.6 -39.95 9.9 -41.5 9.6 -39.95 9.25 -39.1 Q4.95 -33.1 -0.35 -30.65 -1.35 -30.4 -1.75 -31.05 L-1.75 -31.0 -1.5 -32.8 -1.45 -33.25 -1.2 -36.15 -1.15 -36.45 -0.25 -39.75 -0.1 -40.1 0.0 -40.4 Q0.1 -37.2 1.35 -34.65 L7.15 -42.95 1.35 -34.65 Q0.1 -37.2 0.0 -40.4 L-0.1 -40.1 -0.25 -39.75 -1.15 -36.45 -1.2 -36.15 -1.45 -33.25 -1.5 -32.8 -1.75 -31.0 M7.85 -36.4 Q7.3 -35.65 7.3 -35.0 7.35 -30.55 4.25 -28.35 L4.15 -27.5 4.1 -26.5 Q4.15 -23.8 5.1 -21.5 L0.75 -21.5 0.15 -22.05 Q-0.45 -23.5 -0.1 -24.7 L0.15 -25.35 1.5 -26.05 0.15 -25.35 -0.1 -24.7 Q-0.45 -23.5 0.15 -22.05 L0.75 -21.5 5.1 -21.5 Q4.15 -23.8 4.1 -26.5 L4.15 -27.5 3.15 -26.95 1.5 -26.05 -2.15 -27.2 1.5 -26.05 3.15 -26.95 4.15 -27.5 4.25 -28.35 Q7.35 -30.55 7.3 -35.0 7.3 -35.65 7.85 -36.4 M10.85 -24.9 L10.8 -25.05 10.3 -24.8 10.85 -24.9 M12.65 -24.0 L11.65 -24.3 11.9 -25.05 12.1 -25.5 11.9 -25.05 11.65 -24.3 12.65 -24.0 M9.8 -6.1 Q6.55 -5.95 3.6 -6.8 L2.5 -7.15 2.3 -9.05 0.75 -21.5 2.3 -9.05 2.5 -7.15 3.6 -6.8 Q6.55 -5.95 9.8 -6.1 M5.1 -21.5 L5.95 -19.75 6.85 -18.2 8.55 -19.55 10.25 -21.6 10.8 -22.55 11.65 -24.3 10.8 -22.55 10.25 -21.6 13.15 -20.8 10.25 -21.6 8.55 -19.55 6.85 -18.2 5.95 -19.75 5.1 -21.5 M13.6 -28.3 L12.65 -26.85 13.6 -28.3 M-9.2 -44.6 L-9.4 -45.1 -9.2 -44.6 -9.2 -37.25 -9.2 -44.6 M-5.45 -51.1 Q-3.3 -51.1 -2.65 -51.55 L-2.9 -52.25 -4.15 -53.45 -5.8 -53.25 -4.15 -53.45 -2.9 -52.25 -2.65 -51.55 Q-3.3 -51.1 -5.45 -51.1 M-10.8 -58.9 Q-10.05 -58.25 -8.8 -57.8 -8.2 -57.95 -7.6 -58.45 L-7.3 -62.05 Q-7.75 -63.45 -8.7 -63.95 L-10.1 -64.75 -8.7 -63.95 Q-7.75 -63.45 -7.3 -62.05 L-7.6 -58.45 Q-8.2 -57.95 -8.8 -57.8 -10.05 -58.25 -10.8 -58.9 M3.6 -6.8 Q2.85 -5.5 1.25 -4.85 L0.1 -4.4 -1.2 -3.65 0.1 -4.4 1.25 -4.85 Q2.85 -5.5 3.6 -6.8 M2.3 -9.05 L-0.95 -9.25 2.3 -9.05 M-0.1 -24.7 L-0.7 -24.7 Q-0.85 -24.4 -1.55 -24.55 -2.25 -24.65 -2.2 -25.0 L-2.25 -25.0 -2.2 -25.0 Q-2.25 -24.65 -1.55 -24.55 -0.85 -24.4 -0.7 -24.7 L-0.1 -24.7 M-2.0 -29.1 L-1.2 -29.0 3.15 -26.95 -1.2 -29.0 -2.0 -29.1 M-1.5 -32.8 L-0.35 -33.6 1.35 -34.65 -0.35 -33.6 -1.5 -32.8" fill="#ffffff" fill-rule="evenodd" stroke="none"/>
    <path d="M-9.05 -51.25 Q-11.1 -54.95 -11.65 -58.85 -12.1 -62.4 -11.35 -66.15 -10.9 -68.35 -9.25 -69.95 -5.35 -73.7 -0.45 -75.35 L1.65 -75.6 Q5.75 -75.4 9.55 -73.95 11.1 -73.4 12.2 -72.1 13.85 -70.3 14.75 -68.0 15.1 -67.15 15.05 -66.3 14.5 -58.0 8.4 -52.7 L4.25 -49.05 Q4.95 -45.6 7.15 -42.95 L7.5 -43.5 M9.8 -6.1 L10.0 -4.7 Q10.35 -2.6 8.95 -1.9 5.8 -0.45 1.8 -0.65 -0.2 -0.7 -1.9 -1.25 -2.85 -1.55 -2.1 -2.7 L-1.2 -3.65 -3.85 -3.6 -5.45 -3.85 Q-6.3 -4.05 -6.8 -4.55 L-6.95 -5.1 Q-6.5 -5.65 -5.65 -5.9 -2.75 -6.9 -1.1 -9.1 L-0.95 -9.25 M-2.15 -24.3 L-2.25 -25.0 M-2.2 -26.85 L-2.15 -27.2 M-2.0 -29.1 Q-2.25 -29.65 -2.1 -30.05 L-1.75 -31.0 -1.5 -32.8 -1.45 -33.25 -1.2 -36.15 -1.15 -36.45 -0.25 -39.75 -0.1 -40.1 0.0 -40.4 Q0.1 -37.2 1.35 -34.65 L7.15 -42.95 M-9.2 -37.25 Q-10.5 -37.7 -11.35 -38.55 -12.65 -39.65 -13.25 -41.2 L-15.0 -46.4 -15.1 -47.1 Q-15.0 -48.2 -15.3 -48.8 -15.8 -48.15 -16.85 -48.3 L-17.85 -48.6 Q-20.8 -49.95 -19.95 -53.75 -21.05 -54.25 -22.5 -54.3 -24.9 -54.45 -23.75 -56.7 L-20.05 -57.3 -16.95 -57.55 Q-13.65 -57.55 -12.35 -54.85 -11.8 -53.75 -11.5 -52.05 -10.85 -48.7 -9.4 -45.1 L-9.2 -44.6 M0.5 -42.95 L0.5 -42.9 1.45 -43.45 Q2.2 -45.05 2.0 -47.5 -0.3 -46.5 -2.85 -46.6 L-4.5 -46.7 Q-6.45 -47.8 -7.85 -49.65 -8.55 -50.55 -8.3 -50.8 M-2.55 -59.25 Q0.95 -55.05 4.4 -59.0 L4.7 -59.3 Q6.4 -60.85 5.85 -63.35 L5.15 -64.0 Q2.15 -65.45 -1.05 -64.55 -3.9 -62.0 -3.05 -61.15 M4.25 -49.05 L3.15 -48.1 2.0 -47.5 M0.5 -42.9 Q0.0 -42.0 0.0 -40.5 L0.0 -40.4 0.1 -40.6 0.7 -42.35 1.45 -43.45 M-1.2 -3.65 L0.1 -4.4 1.25 -4.85 Q2.85 -5.5 3.6 -6.8 M-10.1 -64.75 L-8.7 -63.95 Q-7.75 -63.45 -7.3 -62.05 L-7.6 -58.45 Q-8.2 -57.95 -8.8 -57.8 -10.05 -58.25 -10.8 -58.9 M-5.8 -53.25 L-4.15 -53.45 -2.9 -52.25 -2.65 -51.55 Q-3.3 -51.1 -5.45 -51.1" fill="none" stroke="#000000" stroke-linecap="round" stroke-linejoin="round" stroke-width="0.05"/>
    <path d="M7.5 -43.5 L9.85 -42.35 9.9 -41.55 9.9 -41.5 Q14.15 -35.95 14.1 -29.2 L13.6 -28.3 12.7 -26.9 12.65 -26.85 12.6 -26.75 12.1 -25.5 12.65 -24.0 32.65 -17.05 32.35 -15.85 Q32.35 -15.3 32.1 -15.3 L13.15 -20.8 16.05 -7.15 12.95 -6.45 9.8 -6.1 Q6.55 -5.95 3.6 -6.8 L2.5 -7.15 2.3 -9.05 0.75 -21.5 5.1 -21.5 Q4.15 -23.8 4.1 -26.5 L4.15 -27.5 3.15 -26.95 1.5 -26.05 -2.15 -27.2 -3.1 -27.45 Q-3.85 -28.8 -2.0 -29.1 L-1.2 -29.0 3.15 -26.95 M-0.95 -9.25 L-1.0 -9.3 Q-2.0 -9.6 -2.9 -10.25 L-2.15 -24.3 M-2.25 -25.0 Q-3.2 -25.15 -3.3 -25.55 L-2.2 -26.85 M-1.75 -31.0 L-7.75 -27.1 -9.2 -27.3 -9.2 -37.25 -9.2 -44.6 M-9.4 -45.1 L-8.25 -45.15 -7.9 -44.1 -7.75 -43.5 -5.65 -43.45 -3.5 -42.55 0.5 -42.95 M9.9 -41.5 L9.6 -39.95 9.25 -39.1 Q4.95 -33.1 -0.35 -30.65 -1.35 -30.4 -1.75 -31.05 L-1.75 -31.0 M1.5 -26.05 L0.15 -25.35 -0.1 -24.7 Q-0.45 -23.5 0.15 -22.05 L0.75 -21.5 M4.15 -27.5 L4.25 -28.35 Q7.35 -30.55 7.3 -35.0 7.3 -35.65 7.85 -36.4 M12.1 -25.5 L11.9 -25.05 11.65 -24.3 12.65 -24.0 M12.65 -26.85 L13.6 -28.3 M11.65 -24.3 L10.8 -22.55 10.25 -21.6 13.15 -20.8 M10.25 -21.6 L8.55 -19.55 6.85 -18.2 5.95 -19.75 5.1 -21.5 M1.35 -34.65 L-0.35 -33.6 -1.5 -32.8 M-2.25 -25.0 L-2.2 -25.0 Q-2.25 -24.65 -1.55 -24.55 -0.85 -24.4 -0.7 -24.7 L-0.1 -24.7 M-0.95 -9.25 L2.3 -9.05" fill="none" stroke="#000000" stroke-linecap="round" stroke-linejoin="round" stroke-width="0.05"/>
    <path d="M11.05 -64.65 Q11.8 -65.25 12.75 -65.0 13.75 -64.7 14.2 -63.8 14.3 -64.1 14.75 -64.05 L15.4 -64.05 17.4 -63.7 18.1 -63.35 Q18.75 -62.9 18.7 -62.2 L18.45 -61.8 18.4 -61.55 Q18.7 -60.85 18.6 -60.05 18.5 -59.05 17.85 -58.3 L17.4 -57.95 16.75 -57.8 16.3 -57.6 16.15 -57.35 Q16.0 -56.45 15.3 -55.8 L13.7 -54.65 12.55 -54.15 11.75 -54.2 11.25 -54.45 10.85 -54.75 10.45 -54.7 9.95 -54.65 Q9.1 -54.6 8.6 -55.3 8.05 -56.15 7.95 -57.2 L8.05 -57.65 8.1 -57.95 8.05 -58.3 7.55 -59.1 7.45 -59.6 Q7.35 -60.7 7.9 -61.65 L8.25 -62.05 Q8.5 -62.3 8.25 -62.6 L8.1 -63.0 8.35 -63.5 8.35 -63.55 Q8.35 -64.45 9.3 -64.6 L9.85 -64.65 10.4 -64.55 11.05 -64.65" fill="#ffffff" fill-rule="evenodd" stroke="none"/>
    <path d="M11.05 -64.65 Q11.8 -65.25 12.75 -65.0 13.75 -64.7 14.2 -63.8 14.3 -64.1 14.75 -64.05 L15.4 -64.05 17.4 -63.7 18.1 -63.35 Q18.75 -62.9 18.7 -62.2 L18.45 -61.8 18.4 -61.55 Q18.7 -60.85 18.6 -60.05 18.5 -59.05 17.85 -58.3 L17.4 -57.95 16.75 -57.8 16.3 -57.6 16.15 -57.35 Q16.0 -56.45 15.3 -55.8 L13.7 -54.65 12.55 -54.15 11.75 -54.2 11.25 -54.45 10.85 -54.75 10.45 -54.7 9.95 -54.65 Q9.1 -54.6 8.6 -55.3 8.05 -56.15 7.95 -57.2 L8.05 -57.65 8.1 -57.95 8.05 -58.3 7.55 -59.1 7.45 -59.6 Q7.35 -60.7 7.9 -61.65 L8.25 -62.05 Q8.5 -62.3 8.25 -62.6 L8.1 -63.0 8.35 -63.5 8.35 -63.55 Q8.35 -64.45 9.3 -64.6 L9.85 -64.65 10.4 -64.55 11.05 -64.65 Z" fill="none" stroke="#000000" stroke-linecap="round" stroke-linejoin="round" stroke-width="0.05"/>
  </g>
</svg>
