<?xml version="1.0" encoding="UTF-8" standalone="no"?>
<!DOCTYPE svg PUBLIC "-//W3C//DTD SVG 1.1//EN" "http://www.w3.org/Graphics/SVG/1.1/DTD/svg11.dtd">
<svg width="53px" height="109px" version="1.1" xmlns="http://www.w3.org/2000/svg" xmlns:xlink="http://www.w3.org/1999/xlink" xml:space="preserve" xmlns:serif="http://www.serif.com/" style="fill-rule:evenodd;clip-rule:evenodd;stroke-linejoin:round;stroke-miterlimit:2;">
    <g transform="matrix(-0.423632,0,0,0.423632,77.4199,21.3676)">
        <path d="M102.146,-2.31C102.142,-2.307 102.138,-2.303 102.135,-2.3C101.795,-2.002 86.385,11.534 79.802,16.538C74.221,20.781 65.826,23.289 62.963,28.639C58.111,35.639 57.838,42.639 62.963,49.639C64.598,51.718 66.535,52.287 68.609,52.17L87.073,52.17C76.034,55.408 68.672,70.415 76.33,81.591C77.595,83.438 79.588,84.71 81.573,85.576C82.503,85.99 83.157,86.85 83.307,87.857C83.457,88.863 83.081,89.877 82.312,90.543C75.557,96.411 71.124,109.253 87.513,120.785C87.513,120.785 87.477,142.208 86.944,148.134C86.638,151.537 84.554,155.684 84.791,158.893C85.306,165.878 88.085,172.539 90.663,175.31C93.798,182.186 97.799,185.921 102.365,189.323C102.365,189.323 102.289,195.118 102.289,199.201C102.289,202.671 104.874,205.483 108.064,205.483L108.065,205.483C111.451,205.483 114.195,202.498 114.195,198.815L114.195,190.396C120.867,191.529 127.538,191.511 134.21,190.396L134.21,199.201C134.21,202.671 136.796,205.483 139.985,205.483L139.987,205.483C143.372,205.483 146.117,202.498 146.117,198.815L146.117,188.304C146.117,188.008 146.25,187.727 146.48,187.539C149.703,184.889 152.524,182.04 154.864,177.809C161.113,172.365 163.999,166.289 164.884,156.396L164.884,122.5C165.898,120.196 166.429,117.772 166.3,115.183L166.3,-5.46C166.565,-7.409 164.127,-12.459 160.506,-16.237L153.017,-31.767L144.584,-13.966C141.968,-12.631 139.5,-12.97 137.219,-15.429C132.823,-19.842 130.577,-26.211 129.162,-32.594C129.036,-33.166 128.58,-33.606 128.004,-33.712C127.428,-33.817 126.845,-33.567 126.525,-33.077C121.78,-25.456 119.417,-17.129 115.154,-13.221C115.154,-13.221 102.449,-2.564 102.146,-2.31Z" style="fill:white;"/>
    </g>
    <g transform="matrix(0.602123,0,0,0.602123,-39.8972,-22.3725)">
        <path d="M91.035,206.63L91.035,212.446C91.035,215.637 93.458,218.182 96.392,218.182L96.393,218.182C99.189,218.182 101.501,215.759 101.501,212.717L101.501,206.63C101.501,206.054 101.033,205.586 100.456,205.586C99.88,205.586 99.412,206.054 99.412,206.63L99.412,212.717C99.412,214.559 98.085,216.093 96.393,216.093L96.392,216.093C94.562,216.093 93.124,214.437 93.124,212.446L93.124,206.63C93.124,206.054 92.656,205.586 92.079,205.586C91.503,205.586 91.035,206.054 91.035,206.63ZM113.493,206.63L113.493,212.446C113.493,215.637 115.917,218.182 118.851,218.182L118.852,218.182C121.648,218.182 123.96,215.759 123.96,212.717L123.96,206.63C123.96,206.054 123.491,205.586 122.915,205.586C122.338,205.586 121.87,206.054 121.87,206.63L121.87,212.717C121.87,214.559 120.544,216.093 118.852,216.093L118.851,216.093C117.02,216.093 115.583,214.437 115.583,212.446L115.583,206.63C115.583,206.054 115.114,205.586 114.538,205.586C113.961,205.586 113.493,206.054 113.493,206.63ZM106.106,202.84L104.209,206.625C103.95,207.14 104.159,207.768 104.674,208.027C105.189,208.285 105.818,208.077 106.076,207.561L107.974,203.777C108.233,203.262 108.024,202.633 107.509,202.375C106.993,202.117 106.365,202.325 106.106,202.84ZM110.215,202.84L108.317,206.625C108.059,207.14 108.267,207.768 108.783,208.027C109.298,208.285 109.926,208.077 110.185,207.561L112.083,203.777C112.341,203.262 112.133,202.633 111.617,202.375C111.102,202.117 110.474,202.325 110.215,202.84ZM97.898,199.729L114.866,199.729C115.442,199.729 115.91,199.261 115.91,198.685C115.91,198.108 115.442,197.64 114.866,197.64L97.898,197.64C97.321,197.64 96.853,198.108 96.853,198.685C96.853,199.261 97.321,199.729 97.898,199.729ZM126.141,196.038L126.141,198.217C126.141,198.736 126.563,199.157 127.082,199.157C127.601,199.157 128.022,198.736 128.022,198.217L128.022,196.038C128.022,195.519 127.601,195.098 127.082,195.098C126.563,195.098 126.141,195.519 126.141,196.038ZM117.846,196.038L117.846,198.217C117.846,198.736 118.267,199.157 118.786,199.157C119.305,199.157 119.726,198.736 119.726,198.217L119.726,196.038C119.726,195.519 119.305,195.098 118.786,195.098C118.267,195.098 117.846,195.519 117.846,196.038ZM121.994,196.038L121.994,198.217C121.994,198.736 122.415,199.157 122.934,199.157C123.453,199.157 123.874,198.736 123.874,198.217L123.874,196.038C123.874,195.519 123.453,195.098 122.934,195.098C122.415,195.098 121.994,195.519 121.994,196.038ZM78.957,181.615L78.781,181.615C78.451,181.615 78.171,181.731 77.939,181.962C77.708,182.193 77.592,182.474 77.592,182.804L77.592,184.265C77.592,186.849 77.008,189.169 75.834,191.224C74.666,193.269 73.036,194.865 70.945,196.011C70.941,196.013 70.937,196.016 70.932,196.018C70.659,196.178 70.482,196.412 70.402,196.72C70.323,197.022 70.365,197.31 70.534,197.58L70.608,197.711C70.78,197.97 71.025,198.138 71.345,198.211C71.657,198.281 71.954,198.245 72.235,198.104C72.24,198.102 72.244,198.1 72.248,198.097C73.921,197.206 75.391,195.964 76.655,194.37C77.601,193.178 78.36,191.877 78.931,190.469C79.497,191.867 80.242,193.163 81.167,194.357C82.408,195.958 83.855,197.203 85.505,198.096C85.514,198.101 85.524,198.106 85.534,198.11C85.834,198.25 86.129,198.279 86.419,198.209C86.725,198.135 86.965,197.966 87.139,197.699L87.125,197.719L87.185,197.613C87.388,197.327 87.435,197.022 87.34,196.701C87.251,196.401 87.073,196.174 86.806,196.018C86.802,196.016 86.799,196.014 86.795,196.012C84.704,194.854 83.073,193.252 81.904,191.206C80.73,189.152 80.146,186.838 80.146,184.265L80.146,182.804C80.146,182.474 80.03,182.193 79.799,181.962C79.568,181.731 79.287,181.615 78.957,181.615ZM135.054,183.008C134.555,188.046 133.374,191.42 130.216,195.168C129.807,195.653 129.869,196.378 130.354,196.787C130.839,197.196 131.564,197.134 131.973,196.649C135.46,192.511 136.79,188.797 137.341,183.235C137.403,182.604 136.942,182.041 136.311,181.978C135.679,181.915 135.116,182.377 135.054,183.008ZM94.768,194.571C95.395,194.571 95.903,195.08 95.903,195.707C95.903,196.333 95.395,196.842 94.768,196.842C94.141,196.842 93.632,196.333 93.632,195.707C93.632,195.08 94.141,194.571 94.768,194.571ZM90.62,194.571C91.247,194.571 91.756,195.08 91.756,195.707C91.756,196.333 91.247,196.842 90.62,196.842C89.993,196.842 89.484,196.333 89.484,195.707C89.484,195.08 89.993,194.571 90.62,194.571ZM77.621,158.753L77.621,176.994C77.621,177.686 78.183,178.248 78.875,178.248C79.567,178.248 80.129,177.686 80.129,176.994L80.129,158.753C80.129,158.061 79.567,157.5 78.875,157.5C78.183,157.5 77.621,158.061 77.621,158.753ZM132.016,158.753L132.016,176.994C132.016,177.686 132.577,178.248 133.269,178.248C133.961,178.248 134.523,177.686 134.523,176.994L134.523,158.753C134.523,158.061 133.961,157.5 133.269,157.5C132.577,157.5 132.016,158.061 132.016,158.753ZM123.786,167.907C123.98,167.907 124.145,167.974 124.28,168.11C124.416,168.246 124.484,168.417 124.484,168.623L124.484,169.359C124.484,171.038 124.406,172.313 124.251,173.185C124.096,174.057 123.851,174.654 123.515,174.977C123.179,175.3 122.695,175.461 122.062,175.461C121.585,175.461 120.848,175.429 119.854,175.364C119.66,175.352 119.492,175.271 119.35,175.122C119.208,174.974 119.131,174.803 119.118,174.609L119.099,174.202C119.086,174.021 119.144,173.87 119.273,173.747C119.402,173.624 119.557,173.569 119.738,173.582C120.396,173.647 120.887,173.679 121.21,173.679C121.52,173.679 121.746,173.598 121.888,173.437C122.03,173.276 122.15,172.908 122.246,172.333C122.343,171.758 122.398,170.89 122.411,169.727C122.411,169.676 122.372,169.65 122.295,169.65L109.413,169.65C109.219,169.65 109.055,169.582 108.919,169.447C108.783,169.311 108.716,169.146 108.716,168.953L108.716,158.938C108.716,158.744 108.78,158.579 108.909,158.444C109.038,158.308 109.206,158.24 109.413,158.24L123.031,158.24C123.225,158.24 123.389,158.308 123.525,158.444C123.66,158.579 123.728,158.744 123.728,158.938L123.728,159.267C123.728,159.461 123.664,159.629 123.535,159.771C123.405,159.913 123.238,159.984 123.031,159.984L117.549,159.984C117.484,159.984 117.452,160.01 117.452,160.061L117.452,161.417C117.452,161.482 117.484,161.514 117.549,161.514L122.45,161.514C122.643,161.514 122.805,161.582 122.934,161.717C123.063,161.853 123.128,162.018 123.128,162.211L123.128,162.405C123.128,162.599 123.063,162.764 122.934,162.899C122.805,163.035 122.643,163.102 122.45,163.102L117.549,163.102C117.484,163.102 117.452,163.135 117.452,163.199L117.452,164.594C117.452,164.659 117.484,164.691 117.549,164.691L122.45,164.691C122.643,164.691 122.805,164.756 122.934,164.885C123.063,165.014 123.128,165.182 123.128,165.388L123.128,165.582C123.128,165.776 123.063,165.94 122.934,166.076C122.805,166.212 122.643,166.279 122.45,166.279L117.549,166.279C117.484,166.279 117.452,166.312 117.452,166.376L117.452,167.829C117.452,167.881 117.484,167.907 117.549,167.907L123.786,167.907ZM107.592,175.035C107.424,174.958 107.302,174.828 107.224,174.648C107.147,174.467 107.147,174.286 107.224,174.105C107.637,173.124 108.018,172.091 108.367,171.006C108.432,170.825 108.548,170.686 108.716,170.589C108.884,170.493 109.064,170.47 109.258,170.522L109.723,170.657C109.904,170.709 110.046,170.825 110.149,171.006C110.252,171.187 110.278,171.368 110.227,171.548C109.942,172.543 109.542,173.66 109.026,174.9C108.948,175.067 108.819,175.19 108.638,175.268C108.457,175.345 108.277,175.345 108.096,175.268L107.592,175.035ZM112.88,174.861C112.7,174.887 112.532,174.845 112.377,174.735C112.222,174.625 112.131,174.48 112.106,174.299C112.002,173.46 111.847,172.517 111.641,171.471C111.602,171.29 111.637,171.112 111.747,170.938C111.857,170.764 112.002,170.664 112.183,170.638L112.532,170.58C112.725,170.554 112.906,170.593 113.074,170.696C113.242,170.799 113.345,170.954 113.384,171.161C113.617,172.246 113.784,173.188 113.888,173.989C113.914,174.183 113.868,174.36 113.752,174.522C113.636,174.683 113.481,174.777 113.287,174.803L112.88,174.861ZM116.832,174.144C116.651,174.183 116.474,174.15 116.299,174.047C116.125,173.944 116.019,173.802 115.98,173.621C115.812,172.872 115.605,172.091 115.36,171.277C115.308,171.096 115.331,170.922 115.428,170.754C115.525,170.586 115.67,170.483 115.864,170.444L116.135,170.367C116.328,170.315 116.509,170.341 116.677,170.444C116.845,170.547 116.961,170.696 117.026,170.89C117.31,171.858 117.523,172.646 117.665,173.253C117.704,173.434 117.672,173.608 117.568,173.776C117.465,173.944 117.316,174.047 117.123,174.086L116.832,174.144ZM120.455,173.156C120.274,173.221 120.093,173.208 119.912,173.117C119.731,173.027 119.615,172.891 119.563,172.711C119.408,172.233 119.157,171.561 118.808,170.696C118.743,170.515 118.75,170.338 118.827,170.163C118.905,169.989 119.034,169.876 119.215,169.824L119.447,169.766C119.628,169.702 119.812,169.711 119.999,169.795C120.187,169.879 120.312,170.018 120.377,170.212C120.558,170.677 120.81,171.342 121.133,172.207C121.197,172.388 121.184,172.565 121.094,172.74C121.003,172.914 120.861,173.027 120.668,173.079L120.455,173.156ZM115.321,167.829L115.321,166.376C115.321,166.312 115.289,166.279 115.224,166.279L110.943,166.279C110.879,166.279 110.846,166.312 110.846,166.376L110.846,167.829C110.846,167.881 110.879,167.907 110.943,167.907L115.224,167.907C115.289,167.907 115.321,167.881 115.321,167.829ZM115.321,164.594L115.321,163.199C115.321,163.135 115.289,163.102 115.224,163.102L110.943,163.102C110.879,163.102 110.846,163.135 110.846,163.199L110.846,164.594C110.846,164.659 110.879,164.691 110.943,164.691L115.224,164.691C115.289,164.691 115.321,164.659 115.321,164.594ZM115.321,161.417L115.321,160.061C115.321,160.01 115.289,159.984 115.224,159.984L110.943,159.984C110.879,159.984 110.846,160.01 110.846,160.061L110.846,161.417C110.846,161.482 110.879,161.514 110.943,161.514L115.224,161.514C115.289,161.514 115.321,161.482 115.321,161.417ZM76.625,135.641L76.625,153.882C76.625,154.574 77.187,155.135 77.879,155.135C78.571,155.135 79.132,154.574 79.132,153.882L79.132,135.641C79.132,134.949 78.571,134.387 77.879,134.387C77.187,134.387 76.625,134.949 76.625,135.641ZM132.016,135.057L132.016,153.298C132.016,153.99 132.577,154.551 133.269,154.551C133.961,154.551 134.523,153.99 134.523,153.298L134.523,135.057C134.523,134.365 133.961,133.803 133.269,133.803C132.577,133.803 132.016,134.365 132.016,135.057ZM137.342,138.537C140.476,143.058 140.668,147.579 137.358,152.099C137.017,152.565 137.118,153.219 137.584,153.559C138.049,153.9 138.703,153.799 139.043,153.334C142.945,148.005 142.753,142.676 139.059,137.347C138.731,136.873 138.079,136.755 137.605,137.083C137.132,137.412 137.014,138.063 137.342,138.537ZM91.392,137.347C87.698,142.676 87.506,148.005 91.408,153.334C91.748,153.799 92.403,153.9 92.868,153.559C93.333,153.219 93.434,152.565 93.094,152.099C89.784,147.579 89.975,143.058 93.109,138.537C93.438,138.063 93.32,137.412 92.846,137.083C92.372,136.755 91.721,136.873 91.392,137.347ZM101.876,138.962C100.961,143.941 99.504,147.205 96.046,150.678C95.598,151.127 95.599,151.855 96.049,152.303C96.498,152.751 97.226,152.749 97.674,152.3C101.493,148.466 103.126,144.875 104.137,139.377C104.251,138.754 103.838,138.154 103.214,138.039C102.591,137.925 101.991,138.338 101.876,138.962ZM76.625,113.336L76.625,131.577C76.625,132.269 77.187,132.83 77.879,132.83C78.571,132.83 79.132,132.269 79.132,131.577L79.132,113.336C79.132,112.644 78.571,112.082 77.879,112.082C77.187,112.082 76.625,112.644 76.625,113.336ZM107.919,129.116C108.431,129.854 108.472,130.592 107.932,131.33C107.659,131.702 107.74,132.225 108.112,132.498C108.485,132.77 109.008,132.689 109.28,132.317C110.294,130.933 110.253,129.548 109.293,128.164C109.03,127.784 108.509,127.69 108.13,127.953C107.751,128.216 107.657,128.737 107.919,129.116ZM103.797,129.116C104.308,129.854 104.35,130.592 103.809,131.33C103.537,131.702 103.618,132.225 103.99,132.498C104.362,132.77 104.885,132.689 105.158,132.317C106.171,130.933 106.13,129.548 105.17,128.164C104.907,127.784 104.386,127.69 104.007,127.953C103.628,128.216 103.534,128.737 103.797,129.116ZM130.552,132.208L130.636,132.208C130.904,132.202 131.132,132.109 131.321,131.93C131.523,131.74 131.624,131.507 131.624,131.235L131.624,128.302C131.624,128.033 131.526,127.799 131.326,127.602C131.129,127.408 130.891,127.31 130.61,127.31L129.97,127.31L129.97,115.837C129.97,115.565 129.87,115.333 129.668,115.142C129.472,114.958 129.236,114.864 128.957,114.864L122.013,114.864C121.73,114.864 121.496,114.96 121.307,115.147C121.115,115.337 121.019,115.567 121.019,115.837L121.019,116.442C121.019,118.296 121.006,119.702 120.981,120.659C120.955,121.615 120.919,122.492 120.874,123.289C120.831,124.054 120.741,124.647 120.598,125.067C120.456,125.488 120.301,125.854 120.133,126.164C119.97,126.467 119.721,126.849 119.389,127.31L119.135,127.31C118.854,127.31 118.616,127.408 118.419,127.602C118.219,127.799 118.121,128.033 118.121,128.302L118.121,131.235C118.121,131.507 118.222,131.74 118.424,131.93C118.619,132.114 118.856,132.208 119.135,132.208L119.219,132.208C119.487,132.202 119.715,132.109 119.904,131.93C120.107,131.74 120.207,131.507 120.207,131.235L120.207,129.202L129.538,129.202L129.538,131.235C129.538,131.507 129.638,131.74 129.841,131.93C130.036,132.114 130.273,132.208 130.552,132.208ZM139.849,116.079C142.982,120.6 143.174,125.121 139.864,129.642C139.524,130.107 139.625,130.761 140.09,131.102C140.555,131.443 141.209,131.341 141.55,130.876C145.452,125.547 145.26,120.218 141.566,114.889C141.237,114.415 140.586,114.297 140.112,114.626C139.638,114.954 139.52,115.606 139.849,116.079ZM100.165,114.889C96.471,120.218 96.279,125.547 100.181,130.876C100.522,131.341 101.176,131.443 101.641,131.102C102.106,130.761 102.207,130.107 101.867,129.642C98.557,125.121 98.749,120.6 101.883,116.079C102.211,115.606 102.093,114.954 101.619,114.626C101.145,114.297 100.494,114.415 100.165,114.889ZM66.269,127.318L66.262,127.495C66.256,127.774 66.353,128.025 66.554,128.246C66.765,128.476 67.022,128.61 67.322,128.65C67.327,128.651 67.332,128.651 67.338,128.652C69.116,128.837 70.865,129.218 72.586,129.795C72.681,129.829 72.775,129.849 72.866,129.857L72.96,129.861C73.148,129.859 73.325,129.802 73.491,129.694C73.743,129.529 73.893,129.301 73.937,129.007L73.963,128.866L73.97,128.593L73.939,128.388L73.861,128.16L73.739,127.948L73.702,127.897C73.543,127.692 73.335,127.545 73.079,127.46C72.112,127.134 71.145,126.868 70.177,126.662L70.162,126.659C69.282,126.473 68.403,126.337 67.523,126.251C67.211,126.21 66.925,126.294 66.668,126.517C66.423,126.73 66.29,126.998 66.269,127.318ZM82.086,127.504C82.713,127.504 83.222,128.013 83.222,128.64C83.222,129.266 82.713,129.775 82.086,129.775C81.459,129.775 80.95,129.266 80.95,128.64C80.95,128.013 81.459,127.504 82.086,127.504ZM121.959,127.31C122.526,126.319 122.867,125.339 122.986,124.372C123.114,123.328 123.18,120.79 123.182,116.756L127.749,116.756L127.749,127.31L121.959,127.31ZM67.03,121.476L67.023,121.664C67.014,121.972 67.121,122.229 67.332,122.44C67.538,122.647 67.789,122.77 68.083,122.81C68.087,122.81 68.091,122.811 68.094,122.811C69.324,122.949 70.582,123.225 71.869,123.639C71.874,123.64 71.88,123.642 71.885,123.644C72.202,123.734 72.491,123.693 72.751,123.535C73.023,123.369 73.181,123.128 73.217,122.806L73.237,122.711C73.246,122.637 73.25,122.564 73.247,122.493C73.24,122.263 73.173,122.047 73.046,121.846C72.874,121.572 72.636,121.396 72.334,121.313L72.339,121.314L72.306,121.303C70.928,120.851 69.574,120.554 68.244,120.41C68.238,120.409 68.231,120.409 68.225,120.408C67.909,120.386 67.631,120.484 67.394,120.71C67.171,120.923 67.051,121.178 67.03,121.476ZM135.192,113.326C133.768,113.326 132.605,114.495 132.605,115.943C132.605,117.392 133.768,118.561 135.192,118.561C136.617,118.561 137.78,117.392 137.78,115.943C137.78,114.495 136.617,113.326 135.192,113.326ZM112.839,113.326C111.415,113.326 110.252,114.495 110.252,115.943C110.252,117.392 111.415,118.561 112.839,118.561C114.264,118.561 115.427,117.392 115.427,115.943C115.427,114.495 114.264,113.326 112.839,113.326ZM67.261,115.306C67.457,115.185 67.673,115.135 67.907,115.152L67.914,115.152C68.704,115.22 69.513,115.332 70.341,115.489L70.39,115.498C70.782,115.573 71.177,115.657 71.577,115.752L72.404,115.96L72.747,116.053L72.99,116.143L73.131,116.224C73.258,116.309 73.371,116.417 73.468,116.55C73.661,116.815 73.741,117.111 73.7,117.437L73.668,117.646L73.633,117.754C73.613,117.806 73.589,117.856 73.56,117.903L73.506,117.981C73.433,118.076 73.34,118.159 73.226,118.231L73.138,118.28C72.894,118.407 72.632,118.432 72.351,118.354L71.37,118.106C70.164,117.825 68.97,117.63 67.786,117.52C67.779,117.52 67.772,117.519 67.765,117.518C67.476,117.479 67.225,117.359 67.013,117.157L66.867,116.989L66.767,116.817L66.703,116.628L66.67,116.375L66.676,116.277L66.675,116.287L66.742,115.956L66.826,115.758L66.955,115.571L67.076,115.446L67.261,115.306ZM135.192,114.992C135.705,114.992 136.114,115.422 136.114,115.943C136.114,116.465 135.705,116.895 135.192,116.895C134.68,116.895 134.271,116.465 134.271,115.943C134.271,115.422 134.68,114.992 135.192,114.992ZM112.839,114.992C113.352,114.992 113.761,115.422 113.761,115.943C113.761,116.465 113.352,116.895 112.839,116.895C112.327,116.895 111.918,116.465 111.918,115.943C111.918,115.422 112.327,114.992 112.839,114.992ZM76.625,91.031L76.625,109.272C76.625,109.964 77.187,110.525 77.879,110.525C78.571,110.525 79.132,109.964 79.132,109.272L79.132,91.031C79.132,90.339 78.571,89.777 77.879,89.777C77.187,89.777 76.625,90.339 76.625,91.031ZM128.398,110.317L146.611,110.317C147.187,110.317 147.655,109.848 147.655,109.272C147.655,108.695 147.187,108.227 146.611,108.227L128.398,108.227C127.822,108.227 127.353,108.695 127.353,109.272C127.353,109.848 127.822,110.317 128.398,110.317ZM149.724,93.312C152.858,97.833 153.05,102.353 149.74,106.874C149.399,107.34 149.501,107.994 149.966,108.334C150.431,108.675 151.085,108.574 151.426,108.109C155.328,102.78 155.136,97.451 151.441,92.121C151.113,91.648 150.462,91.53 149.988,91.858C149.514,92.187 149.396,92.838 149.724,93.312ZM67.379,104.315L67.372,104.315C67.303,104.315 67.236,104.322 67.17,104.335L67.163,104.336C66.988,104.373 66.823,104.457 66.668,104.591C66.423,104.805 66.29,105.073 66.269,105.393L66.262,105.562C66.258,105.69 66.276,105.812 66.316,105.928C66.364,106.067 66.443,106.198 66.554,106.32C66.765,106.551 67.022,106.684 67.322,106.724C67.327,106.725 67.332,106.726 67.338,106.726C69.116,106.911 70.865,107.292 72.586,107.869C72.917,107.985 73.218,107.946 73.491,107.768C73.755,107.595 73.907,107.353 73.943,107.039L73.963,106.94C74.002,106.608 73.933,106.316 73.766,106.062C73.751,106.038 73.734,106.015 73.718,105.992C73.557,105.776 73.344,105.623 73.079,105.534C71.228,104.909 69.376,104.506 67.523,104.325C67.474,104.319 67.426,104.315 67.379,104.315ZM116.376,104.816L116.419,104.817C116.549,104.823 116.674,104.851 116.789,104.897L116.988,105L117.02,105.022C117.081,105.065 117.137,105.113 117.188,105.167L117.301,105.304C117.356,105.383 117.401,105.469 117.434,105.56L117.49,105.772C117.499,105.831 117.504,105.891 117.504,105.952C117.504,106.579 116.995,107.088 116.368,107.088L116.23,107.079L116.017,107.032L115.813,106.943L115.744,106.901C115.677,106.856 115.615,106.805 115.558,106.748L115.529,106.717C115.474,106.657 115.426,106.591 115.385,106.52L115.329,106.411C115.297,106.339 115.273,106.263 115.256,106.183L115.242,106.103C115.236,106.054 115.232,106.003 115.232,105.952C115.232,105.325 115.741,104.816 116.368,104.816L116.376,104.816ZM112.044,104.816C112.671,104.816 113.18,105.325 113.18,105.952C113.18,106.579 112.671,107.088 112.044,107.088C111.418,107.088 110.909,106.579 110.909,105.952C110.909,105.325 111.418,104.816 112.044,104.816ZM107.721,104.816C108.347,104.816 108.856,105.325 108.856,105.952C108.856,106.579 108.347,107.088 107.721,107.088C107.094,107.088 106.585,106.579 106.585,105.952C106.585,105.325 107.094,104.816 107.721,104.816ZM68.144,98.479L68.137,98.479C67.857,98.479 67.609,98.58 67.394,98.784C67.319,98.856 67.256,98.932 67.204,99.013L67.2,99.019C67.1,99.178 67.044,99.355 67.03,99.55L67.026,99.682C67.001,100.015 67.108,100.291 67.332,100.514L67.484,100.646C67.658,100.774 67.858,100.854 68.083,100.884C68.087,100.884 68.091,100.885 68.094,100.885C69.324,101.023 70.582,101.299 71.869,101.713L71.953,101.735C72.041,101.755 72.126,101.765 72.209,101.765L72.223,101.765C72.41,101.763 72.586,101.709 72.751,101.609C73.023,101.443 73.181,101.202 73.217,100.88L73.237,100.785C73.25,100.685 73.251,100.587 73.243,100.492C73.225,100.29 73.159,100.099 73.046,99.92C73.013,99.868 72.978,99.82 72.941,99.775C72.781,99.583 72.579,99.454 72.334,99.387L72.339,99.388C70.95,98.93 69.585,98.629 68.244,98.484L68.144,98.479ZM73.198,100.951L73.208,100.918L73.198,100.951ZM124.694,94.369L124.694,96.547C124.694,97.066 125.115,97.487 125.634,97.487C126.153,97.487 126.574,97.066 126.574,96.547L126.574,94.369C126.574,93.85 126.153,93.429 125.634,93.429C125.115,93.429 124.694,93.85 124.694,94.369ZM67.827,93.223L67.914,93.227C68.365,93.265 68.822,93.318 69.286,93.386L69.921,93.487C70.351,93.561 70.786,93.647 71.226,93.745L71.88,93.899L72.272,93.999L72.825,94.15L73.029,94.237L73.217,94.361L73.409,94.55L73.468,94.625C73.661,94.889 73.741,95.185 73.7,95.511L73.667,95.723L73.618,95.865L73.573,95.954C73.523,96.042 73.458,96.121 73.379,96.191L73.226,96.305C73.123,96.369 73.017,96.415 72.908,96.442L72.873,96.45L72.695,96.472L72.497,96.46L71.38,96.183L70.852,96.065L70.067,95.909C69.885,95.876 69.704,95.845 69.523,95.815L68.827,95.712L68.122,95.628L67.645,95.571L67.405,95.494L67.194,95.377L66.983,95.201L66.846,95.033L66.753,94.857L66.693,94.658L66.67,94.45L66.676,94.352L66.675,94.361L66.742,94.03L66.826,93.833L66.955,93.645L67.141,93.464L67.28,93.368L67.46,93.284L67.596,93.246L67.815,93.223L67.827,93.223ZM76.625,68.726L76.625,86.967C76.625,87.659 77.187,88.221 77.879,88.221C78.571,88.221 79.132,87.659 79.132,86.967L79.132,68.726C79.132,68.034 78.571,67.472 77.879,67.472C77.187,67.472 76.625,68.034 76.625,68.726ZM66.269,83.564L66.267,83.643C66.235,83.961 66.329,84.245 66.554,84.491C66.765,84.722 67.022,84.855 67.322,84.895C67.327,84.896 67.332,84.897 67.338,84.897C69.116,85.082 70.865,85.463 72.586,86.04C72.917,86.157 73.218,86.117 73.491,85.939C73.755,85.767 73.907,85.524 73.943,85.21L73.963,85.111C74.002,84.779 73.933,84.487 73.766,84.234C73.6,83.98 73.372,83.803 73.079,83.705C71.228,83.08 69.376,82.677 67.523,82.496C67.211,82.455 66.925,82.539 66.668,82.762C66.423,82.976 66.29,83.244 66.269,83.564ZM121.743,72.235L137.46,85.493C137.944,85.902 138.67,85.84 139.079,85.355C139.488,84.87 139.426,84.145 138.942,83.736L123.225,70.479C122.74,70.07 122.015,70.131 121.606,70.616C121.197,71.101 121.258,71.826 121.743,72.235ZM73.933,85.248L73.924,85.282C73.927,85.271 73.93,85.26 73.933,85.248ZM67.028,77.819C66.994,78.167 67.101,78.454 67.332,78.685C67.538,78.892 67.789,79.016 68.083,79.055C68.087,79.056 68.091,79.056 68.094,79.056C69.324,79.194 70.582,79.47 71.869,79.884C71.874,79.886 71.88,79.887 71.885,79.889C72.202,79.98 72.491,79.939 72.751,79.78C73.023,79.615 73.181,79.373 73.217,79.051L73.237,78.956C73.276,78.643 73.212,78.355 73.046,78.091C72.874,77.818 72.636,77.641 72.334,77.558L72.339,77.559C70.95,77.101 69.585,76.8 68.244,76.655C68.238,76.655 68.231,76.654 68.225,76.654C67.909,76.631 67.631,76.73 67.394,76.956C67.171,77.168 67.051,77.424 67.03,77.721L67.028,77.819ZM97.273,75.867C98.237,75.867 99.02,76.649 99.02,77.613C99.02,78.577 98.237,79.36 97.273,79.36C96.309,79.36 95.527,78.577 95.527,77.613C95.527,76.649 96.309,75.867 97.273,75.867ZM73.208,79.089L73.198,79.123C73.202,79.112 73.205,79.101 73.208,79.089ZM66.676,72.523L66.675,72.533C66.68,72.49 66.688,72.449 66.699,72.41C66.731,72.133 66.854,71.892 67.076,71.691C67.319,71.47 67.597,71.375 67.907,71.397C67.909,71.397 67.912,71.397 67.914,71.398C69.455,71.53 71.068,71.83 72.747,72.298C73.041,72.377 73.282,72.541 73.468,72.796C73.661,73.061 73.741,73.356 73.7,73.682L73.7,73.69C73.676,74.031 73.518,74.293 73.226,74.476C72.956,74.644 72.665,74.687 72.351,74.599C70.812,74.182 69.29,73.904 67.786,73.766C67.779,73.765 67.772,73.764 67.765,73.763C67.476,73.725 67.225,73.604 67.013,73.402C66.826,73.224 66.714,73.01 66.682,72.761C66.674,72.716 66.67,72.669 66.67,72.621L66.676,72.523ZM82.33,63.233L87.225,52.901L92.119,63.233C92.39,63.806 93.076,64.051 93.649,63.78C94.222,63.508 94.467,62.822 94.196,62.249L88.263,49.725C88.073,49.323 87.669,49.068 87.225,49.068C86.781,49.068 86.376,49.323 86.186,49.725L80.254,62.249C79.982,62.822 80.227,63.508 80.8,63.78C81.373,64.051 82.059,63.806 82.33,63.233ZM103.356,49.185C102.44,54.164 100.984,57.428 97.525,60.901C97.078,61.35 97.079,62.078 97.528,62.526C97.978,62.973 98.706,62.972 99.154,62.523C102.972,58.689 104.606,55.098 105.616,49.6C105.731,48.977 105.318,48.377 104.694,48.262C104.07,48.148 103.471,48.561 103.356,49.185ZM107.037,48.768C107.079,48.811 107.157,48.895 107.279,48.958C107.425,49.033 107.625,49.083 107.761,49.066C107.991,49.036 108.192,48.925 108.35,48.71C108.352,48.708 108.353,48.706 108.354,48.705C108.679,48.252 109.034,47.996 109.458,47.996C109.798,47.996 110.115,48.22 110.451,48.6C110.451,48.6 110.452,48.6 110.452,48.601C111.139,49.373 111.904,49.738 112.725,49.738C113.746,49.747 114.599,49.278 115.26,48.296C115.265,48.288 115.27,48.281 115.274,48.274C115.385,48.091 115.436,47.884 115.418,47.648C115.398,47.401 115.305,47.199 115.152,47.039L115.181,47.072L115.095,46.982C114.902,46.789 114.673,46.712 114.411,46.745C114.174,46.774 113.967,46.89 113.808,47.121C113.628,47.371 113.45,47.557 113.262,47.666C113.101,47.759 112.922,47.804 112.725,47.804L112.716,47.804C112.379,47.809 112.065,47.587 111.732,47.211C111.732,47.211 111.732,47.21 111.731,47.21C111.044,46.438 110.279,46.072 109.458,46.072C108.437,46.064 107.584,46.533 106.923,47.515C106.922,47.516 106.922,47.518 106.921,47.519C106.804,47.695 106.746,47.904 106.765,48.152C106.785,48.403 106.88,48.606 107.037,48.768Z" style="fill-rule:nonzero;"/>
    </g>
</svg>
