<?xml version="1.0" encoding="UTF-8" standalone="no"?>
<!DOCTYPE svg PUBLIC "-//W3C//DTD SVG 1.1//EN" "http://www.w3.org/Graphics/SVG/1.1/DTD/svg11.dtd">
<svg width="43px" height="80px" version="1.1" xmlns="http://www.w3.org/2000/svg" xmlns:xlink="http://www.w3.org/1999/xlink" xml:space="preserve" xmlns:serif="http://www.serif.com/" style="fill-rule:evenodd;clip-rule:evenodd;stroke-linejoin:round;stroke-miterlimit:2;">
    <g transform="matrix(0.614971,0,0,0.614971,-2774.83,-1074.28)">
        <rect x="4514.37" y="1749.75" width="66.577" height="32.237" style="fill:white;"/>
    </g>
    <g transform="matrix(0.614971,0,0,0.614971,-46.1468,-55.0353)">
        <path d="M110,209.71C94.887,209.71 82.051,210.848 77.52,212.385C76.479,212.738 75.801,213.161 75.47,213.543C75.161,213.901 75.039,214.278 75.039,214.645C75.039,215.012 75.161,215.389 75.47,215.747C75.801,216.129 76.479,216.552 77.52,216.905C82.051,218.441 94.887,219.58 110,219.58C125.113,219.58 137.949,218.441 142.48,216.905C143.521,216.552 144.199,216.129 144.53,215.747C144.839,215.389 144.961,215.012 144.961,214.645C144.961,214.278 144.839,213.901 144.53,213.543C144.199,213.161 143.521,212.738 142.48,212.385C137.949,210.848 125.113,209.71 110,209.71ZM144.961,92.374C144.961,91.76 144.464,91.263 143.85,91.263L77.273,91.263C76.659,91.263 76.162,91.76 76.162,92.374L76.162,124.611C76.162,125.225 76.659,125.722 77.273,125.722L143.85,125.722C144.464,125.722 144.961,125.225 144.961,124.611L144.961,92.374ZM142.739,93.485L142.739,123.5L78.384,123.5L78.384,93.485L142.739,93.485ZM96.896,119.748L97.115,119.748C97.4,119.741 97.643,119.637 97.845,119.436C98.053,119.228 98.157,118.975 98.157,118.678L98.157,103.709C98.157,103.68 98.153,103.656 98.167,103.642C98.175,103.635 98.181,103.627 98.187,103.619C98.796,102.802 99.388,101.93 99.965,101.001L106.604,101.001C106.903,101.001 107.151,100.9 107.35,100.701C107.549,100.501 107.65,100.257 107.65,99.967C107.65,99.676 107.545,99.43 107.334,99.23C107.126,99.031 106.882,98.933 106.604,98.933L87.403,98.933C87.107,98.933 86.856,99.033 86.649,99.23C86.438,99.43 86.333,99.676 86.333,99.967C86.333,100.259 86.443,100.506 86.664,100.707C86.881,100.904 87.127,101.001 87.403,101.001L97.33,101.001C94.842,104.813 91.172,108.432 86.326,111.86C86.073,112.035 85.917,112.27 85.859,112.564C85.801,112.85 85.847,113.118 85.995,113.367L86.036,113.469C86.044,113.489 86.054,113.506 86.065,113.521C86.223,113.752 86.447,113.899 86.74,113.957C87.037,114.017 87.305,113.965 87.542,113.807C87.544,113.806 87.546,113.804 87.547,113.803C90.814,111.488 93.573,109.04 95.826,106.46L95.826,118.678C95.826,118.975 95.93,119.228 96.138,119.436C96.346,119.644 96.599,119.748 96.896,119.748ZM119.556,119.292C119.774,119.504 120.035,119.6 120.34,119.58C120.639,119.561 120.895,119.445 121.108,119.233C121.108,119.232 121.109,119.231 121.11,119.231C122.939,117.353 124.093,115.055 124.572,112.335L130.531,112.335L130.531,116.407C130.531,116.814 130.517,117.12 130.486,117.324C130.473,117.414 130.464,117.478 130.442,117.511C130.437,117.514 130.413,117.528 130.396,117.534C130.362,117.547 130.321,117.558 130.273,117.568C130.129,117.596 129.934,117.609 129.688,117.609C129.276,117.609 128.634,117.585 127.763,117.537C127.479,117.518 127.23,117.612 127.017,117.825C126.802,118.041 126.709,118.283 126.73,118.55C126.749,118.822 126.863,119.067 127.077,119.28C127.291,119.494 127.536,119.609 127.808,119.628L127.814,119.628C128.966,119.676 129.837,119.7 130.429,119.7C131.072,119.7 131.563,119.637 131.905,119.516C132.172,119.422 132.356,119.29 132.465,119.133C132.567,118.989 132.654,118.747 132.714,118.403C132.796,117.939 132.838,117.274 132.838,116.407L132.838,99.549C132.838,99.254 132.735,98.999 132.529,98.783C132.32,98.564 132.067,98.455 131.768,98.455L123.734,98.455C123.435,98.455 123.182,98.564 122.973,98.783C122.767,98.999 122.664,99.254 122.664,99.549L122.664,107.368C122.664,109.956 122.425,112.024 121.944,113.571C121.467,115.103 120.626,116.493 119.423,117.744C119.224,117.944 119.127,118.194 119.137,118.494C119.147,118.796 119.256,119.035 119.457,119.216L119.597,119.27L119.474,119.23L119.556,119.292ZM113.523,115.635L113.404,115.635C113.105,115.635 112.852,115.526 112.643,115.307C112.437,115.091 112.334,114.836 112.334,114.542L112.334,99.955C112.334,99.658 112.438,99.406 112.646,99.198C112.854,98.99 113.107,98.885 113.404,98.885L119.788,98.885C120.081,98.885 120.335,98.983 120.55,99.179C120.77,99.378 120.882,99.636 120.882,99.955L120.882,112.987C120.882,113.284 120.778,113.537 120.57,113.745C120.363,113.951 120.103,114.057 119.788,114.057L114.593,114.057L114.593,114.542C114.593,114.836 114.49,115.091 114.284,115.307C114.082,115.519 113.837,115.628 113.551,115.635M107.787,113.583L107.889,113.48C108.085,113.244 108.171,112.983 108.152,112.698C108.132,112.411 108.014,112.169 107.797,111.972C105.242,109.577 102.845,107.547 100.607,105.885L100.608,105.886C100.371,105.708 100.105,105.639 99.809,105.678C99.519,105.717 99.278,105.843 99.085,106.056C99.082,106.058 99.08,106.061 99.078,106.064C98.896,106.286 98.825,106.542 98.865,106.834C98.904,107.121 99.033,107.352 99.25,107.53C99.252,107.531 99.253,107.532 99.254,107.533C101.545,109.314 103.899,111.358 106.317,113.664C106.32,113.668 106.323,113.671 106.327,113.674C106.564,113.871 106.821,113.957 107.097,113.937C107.376,113.917 107.606,113.799 107.787,113.583ZM107.78,113.589C107.777,113.593 107.773,113.596 107.77,113.599C107.767,113.602 107.763,113.604 107.76,113.607C107.767,113.602 107.774,113.596 107.78,113.589ZM86.354,113.54C86.358,113.544 86.363,113.548 86.367,113.552C86.33,113.584 86.282,113.603 86.231,113.603C86.231,113.603 86.296,113.584 86.354,113.54ZM114.593,107.338L114.593,112.037L118.695,112.037L118.695,107.338L114.593,107.338ZM124.808,110.315C124.853,109.649 124.875,108.945 124.875,108.205L124.875,106.238L130.531,106.238L130.531,110.315L124.808,110.315ZM114.593,100.953L114.593,105.294L118.695,105.294L118.695,100.953L114.593,100.953ZM124.875,100.523L130.531,100.523L130.531,104.218L124.875,104.218L124.875,100.523Z" style="fill-rule:nonzero;"/>
    </g>
</svg>
