<?xml version="1.0" encoding="UTF-8" standalone="no"?>
<!DOCTYPE svg PUBLIC "-//W3C//DTD SVG 1.1//EN" "http://www.w3.org/Graphics/SVG/1.1/DTD/svg11.dtd">
<svg width="77px" height="70px" version="1.1" xmlns="http://www.w3.org/2000/svg" xmlns:xlink="http://www.w3.org/1999/xlink" xml:space="preserve" xmlns:serif="http://www.serif.com/" style="fill-rule:evenodd;clip-rule:evenodd;stroke-linejoin:round;stroke-miterlimit:2;">
    <g transform="matrix(0.616655,0,0,0.616655,-29.3321,-64.0705)">
        <path d="M93.515,155.221C93.73,155.504 93.813,155.866 93.742,156.214C93.672,156.563 93.454,156.864 93.146,157.04C86.458,160.91 82.254,166.494 82.254,172.699C82.254,176.131 83.565,179.503 86.056,182.526C77.716,187.432 72.49,194.456 72.49,202.252L72.49,202.253C72.49,210.204 78.936,216.649 86.887,216.649L142.273,216.649C150.223,216.649 156.668,210.204 156.669,202.253C156.67,202.253 156.67,202.252 156.67,202.252C156.67,194.798 151.893,188.05 144.183,183.184C147.041,179.996 148.551,176.382 148.551,172.699C148.551,165.419 143.185,158.995 134.389,155.194C136.67,152.06 138.159,147.989 138.339,144.486C138.522,140.936 136.672,137.123 134.605,134.29C128.316,125.671 116.837,124.468 113.768,108.88L113.732,108.696C110.714,124.459 99.592,125.637 93.279,134.29C91.212,137.123 89.362,140.936 89.545,144.486C89.725,148 91.223,152.084 93.515,155.221Z" style="fill:white;"/>
    </g>
    <g transform="matrix(0.616655,0,0,0.616655,-29.3321,-64.0705)">
        <path d="M80.481,217.416L147.959,217.416C148.535,217.416 149.004,216.948 149.004,216.371C149.004,215.794 148.535,215.326 147.959,215.326L80.481,215.326C79.905,215.326 79.437,215.794 79.437,216.371C79.437,216.948 79.905,217.416 80.481,217.416ZM152.002,194.074C156.088,199.969 156.34,205.863 152.024,211.758C151.547,212.409 151.688,213.325 152.34,213.802C152.991,214.278 153.907,214.137 154.384,213.486C159.528,206.46 159.276,199.434 154.406,192.408C153.946,191.745 153.034,191.579 152.371,192.039C151.707,192.499 151.542,193.411 152.002,194.074ZM74.742,192.016C69.871,199.042 69.619,206.067 74.763,213.093C75.24,213.744 76.156,213.886 76.807,213.409C77.459,212.932 77.6,212.017 77.123,211.365C72.808,205.471 73.059,199.577 77.145,193.682C77.605,193.019 77.44,192.107 76.777,191.647C76.113,191.187 75.201,191.352 74.742,192.016ZM112.096,196.015L119.666,211.156C119.914,211.651 120.42,211.964 120.974,211.964C121.528,211.964 122.034,211.651 122.282,211.156L129.852,196.015C130.213,195.293 129.92,194.414 129.198,194.053C128.476,193.692 127.597,193.985 127.236,194.707L125.504,198.171L116.444,198.171L114.712,194.707C114.351,193.985 113.472,193.692 112.75,194.053C112.027,194.414 111.735,195.293 112.096,196.015ZM124.042,201.096L117.907,201.096L120.974,207.231L124.042,201.096ZM101.314,200.478C102.452,200.478 103.375,201.402 103.375,202.539C103.375,203.676 102.452,204.6 101.314,204.6C100.177,204.6 99.254,203.676 99.254,202.539C99.254,201.402 100.177,200.478 101.314,200.478ZM140.209,200.478C141.346,200.478 142.269,201.402 142.269,202.539C142.269,203.676 141.346,204.6 140.209,204.6C139.071,204.6 138.148,203.676 138.148,202.539C138.148,201.402 139.071,200.478 140.209,200.478ZM90.473,186.466L140.331,186.466C140.908,186.466 141.376,185.998 141.376,185.421C141.376,184.845 140.908,184.377 140.331,184.377L90.473,184.377C89.897,184.377 89.428,184.845 89.428,185.421C89.428,185.998 89.897,186.466 90.473,186.466ZM47.943,165.004L69.254,183.765C69.714,184.17 70.417,184.125 70.822,183.665C71.227,183.205 71.182,182.502 70.722,182.097L49.412,163.336C48.951,162.931 48.249,162.975 47.843,163.435C47.438,163.896 47.483,164.598 47.943,165.004ZM143.303,163.588C147.389,169.482 147.641,175.377 143.325,181.271C142.848,181.922 142.99,182.838 143.641,183.315C144.292,183.792 145.208,183.65 145.685,182.999C150.829,175.973 150.578,168.947 145.707,161.921C145.247,161.258 144.335,161.093 143.672,161.553C143.009,162.013 142.843,162.925 143.303,163.588ZM84.54,161.921C79.669,168.947 79.417,175.973 84.562,182.999C85.038,183.65 85.954,183.792 86.606,183.315C87.257,182.838 87.398,181.922 86.922,181.271C82.606,175.377 82.858,169.482 86.944,163.588C87.403,162.925 87.238,162.013 86.575,161.553C85.911,161.093 85,161.258 84.54,161.921ZM170.588,163.336L149.941,181.513C149.481,181.918 149.436,182.621 149.842,183.081C150.247,183.541 150.949,183.586 151.41,183.181L172.057,165.004C172.517,164.598 172.562,163.896 172.157,163.435C171.751,162.975 171.049,162.931 170.588,163.336ZM98.101,157.694L121.364,157.694C121.941,157.694 122.409,157.226 122.409,156.649C122.409,156.073 121.941,155.604 121.364,155.604L98.101,155.604C97.524,155.604 97.056,156.073 97.056,156.649C97.056,157.226 97.524,157.694 98.101,157.694ZM124.724,156.252L130.569,156.252C131.146,156.252 131.614,155.784 131.614,155.207C131.614,154.631 131.146,154.163 130.569,154.163L124.724,154.163C124.148,154.163 123.68,154.631 123.68,155.207C123.68,155.784 124.148,156.252 124.724,156.252ZM134.205,135.66C138.291,141.554 138.543,147.449 134.227,153.343C133.75,153.994 133.892,154.91 134.543,155.387C135.194,155.864 136.11,155.722 136.587,155.071C141.731,148.045 141.479,141.02 136.609,133.994C136.149,133.33 135.237,133.165 134.574,133.625C133.91,134.085 133.745,134.997 134.205,135.66ZM92.54,133.994C87.669,141.02 87.417,148.045 92.562,155.071C93.038,155.722 93.954,155.864 94.606,155.387C95.257,154.91 95.398,153.994 94.922,153.343C90.606,147.449 90.858,141.554 94.944,135.66C95.403,134.997 95.238,134.085 94.575,133.625C93.911,133.165 93,133.33 92.54,133.994ZM113.786,105.084C114.121,105.084 114.14,105.084 113.833,105.084C114.203,105.084 114.517,105.215 114.776,105.473C115.034,105.732 115.165,106.046 115.165,106.416L115.165,108.206C115.165,111.381 115.886,114.236 117.334,116.771C118.778,119.297 120.791,121.275 123.374,122.705C123.377,122.707 123.381,122.709 123.385,122.712C123.683,122.886 123.883,123.14 123.982,123.476C124.088,123.831 124.034,124.169 123.808,124.486L123.74,124.609L123.753,124.591C123.558,124.892 123.288,125.082 122.944,125.165C122.616,125.244 122.282,125.212 121.943,125.053C121.933,125.049 121.923,125.044 121.913,125.038C119.907,123.953 118.148,122.439 116.639,120.491C115.449,118.956 114.503,117.28 113.801,115.465C113.094,117.293 112.132,118.974 110.915,120.507C109.378,122.446 107.591,123.956 105.556,125.04C105.551,125.042 105.547,125.045 105.543,125.047C105.224,125.206 104.889,125.247 104.536,125.167C104.174,125.086 103.898,124.895 103.704,124.601L103.623,124.455C103.434,124.153 103.386,123.832 103.474,123.494C103.563,123.15 103.76,122.89 104.066,122.712C104.07,122.709 104.074,122.707 104.079,122.704C106.66,121.289 108.673,119.318 110.116,116.792C111.565,114.258 112.286,111.395 112.286,108.206L112.286,106.416C112.286,106.046 112.416,105.732 112.675,105.473C112.934,105.215 113.248,105.084 113.617,105.084L113.786,105.084Z"/>
    </g>
</svg>
