<?xml version="1.0" encoding="UTF-8" standalone="no"?>
<!DOCTYPE svg PUBLIC "-//W3C//DTD SVG 1.1//EN" "http://www.w3.org/Graphics/SVG/1.1/DTD/svg11.dtd">
<svg width="52px" height="81px" version="1.1" xmlns="http://www.w3.org/2000/svg" xmlns:xlink="http://www.w3.org/1999/xlink" xml:space="preserve" xmlns:serif="http://www.serif.com/" style="fill-rule:evenodd;clip-rule:evenodd;stroke-linejoin:round;stroke-miterlimit:2;">
    <g transform="matrix(0.506225,0,0,0.506225,-32.8378,-14.8071)">
        <path d="M80,51L89,32L98,51C99.051,52.984 100.678,53.381 103,53.333L128,53.333C130.479,53.494 132.16,52.459 133.115,50.333L142.115,32L151.115,51C153.188,56.666 154.917,60.955 156.482,64.588C161.733,72.163 162.028,79.737 156.482,87.312C153.981,90.642 153.902,93.971 156.482,97.301C161.733,104.876 162.028,112.45 156.482,120.025L152,126.893L152,153.945C155.463,155.965 158.784,158.548 161.739,162.602C166.99,170.176 167.285,177.751 161.739,185.326C160.486,186.46 158.598,187.118 156.328,187.49L129.276,187.49C124.158,187.037 121.709,183.566 121.266,177.828C121.266,177.828 123.198,177.751 117.652,185.326C116.512,186.541 114.789,187.29 112.379,187.49L77.21,187.49C75.007,187.357 73.365,186.476 71.925,185.326C66.379,177.751 66.674,170.176 71.925,162.602C73.981,159.824 75.403,156.976 75.171,153.945L75.171,126.893L70.718,120.025C65.172,112.45 65.467,104.876 70.718,97.301C73.36,93.971 73.665,90.642 70.718,87.312C65.172,79.737 65.467,72.163 70.718,64.588C75.158,59.164 78.61,54.391 80,51Z" style="fill:white;"/>
    </g>
    <g transform="matrix(0.611098,0,0,0.611098,-41.2208,-52.5922)">
        <path d="M106.811,215.681L77.678,215.681C76.87,215.681 76.214,216.337 76.214,217.145C76.214,217.954 76.87,218.61 77.678,218.61L106.811,218.61C107.619,218.61 108.275,217.954 108.275,217.145C108.275,216.337 107.619,215.681 106.811,215.681ZM120.808,218.606L143.218,218.606C144.025,218.606 144.679,217.952 144.679,217.145C144.679,216.339 144.025,215.684 143.218,215.684L120.808,215.684C120.002,215.684 119.347,216.339 119.347,217.145C119.347,217.952 120.002,218.606 120.808,218.606ZM72.099,195.696C67.358,202.536 67.113,209.376 72.121,216.216C72.597,216.866 73.512,217.008 74.163,216.531C74.813,216.055 74.955,215.14 74.479,214.489C70.298,208.78 70.543,203.07 74.5,197.361C74.96,196.698 74.795,195.787 74.132,195.327C73.469,194.868 72.558,195.033 72.099,195.696ZM109.978,197.361C113.936,203.07 114.18,208.78 110,214.489C109.524,215.14 109.665,216.055 110.316,216.531C110.966,217.008 111.881,216.866 112.358,216.216C117.366,209.376 117.121,202.536 112.38,195.696C111.92,195.033 111.009,194.868 110.346,195.327C109.684,195.787 109.519,196.698 109.978,197.361ZM146.499,197.361C150.457,203.07 150.701,208.78 146.521,214.489C146.045,215.14 146.186,216.055 146.837,216.531C147.487,217.008 148.402,216.866 148.879,216.216C153.887,209.376 153.642,202.536 148.901,195.696C148.441,195.033 147.53,194.868 146.867,195.327C146.205,195.787 146.04,196.698 146.499,197.361ZM74.528,166.947L74.528,189.357C74.528,190.164 75.182,190.818 75.989,190.818C76.795,190.818 77.45,190.164 77.45,189.357L77.45,166.947C77.45,166.141 76.795,165.486 75.989,165.486C75.182,165.486 74.528,166.141 74.528,166.947ZM137.172,166.947L137.172,189.357C137.172,190.164 137.826,190.818 138.633,190.818C139.439,190.818 140.094,190.164 140.094,189.357L140.094,166.947C140.094,166.141 139.439,165.486 138.633,165.486C137.826,165.486 137.172,166.141 137.172,166.947ZM106.35,166.947L106.35,189.357C106.35,190.164 107.004,190.818 107.811,190.818C108.617,190.818 109.272,190.164 109.272,189.357L109.272,166.947C109.272,166.141 108.617,165.486 107.811,165.486C107.004,165.486 106.35,166.141 106.35,166.947ZM140.145,143.266C144.103,148.976 144.347,154.685 140.167,160.395C139.691,161.046 139.832,161.961 140.483,162.437C141.133,162.913 142.048,162.772 142.525,162.121C147.533,155.281 147.288,148.441 142.547,141.602C142.087,140.939 141.176,140.774 140.513,141.233C139.851,141.692 139.686,142.604 140.145,143.266ZM71.099,141.602C66.358,148.441 66.113,155.281 71.121,162.121C71.597,162.772 72.512,162.913 73.163,162.437C73.813,161.961 73.955,161.046 73.479,160.395C69.298,154.685 69.543,148.976 73.5,143.266C73.96,142.604 73.795,141.692 73.132,141.233C72.469,140.774 71.558,140.939 71.099,141.602ZM78.65,149.42C81.248,148.678 83.502,147.536 85.594,146.919C87.265,146.426 88.813,146.29 90.369,147.375C91.453,148.132 91.978,149.082 92.185,150.021C92.593,151.861 91.646,153.732 89.923,154.494C89.921,154.495 89.92,154.495 89.918,154.496C88.465,155.145 86.847,155.789 84.621,155.942C83.857,155.995 83.279,156.658 83.332,157.422C83.385,158.186 84.048,158.763 84.812,158.71C87.431,158.53 89.34,157.793 91.05,157.029C93.977,155.735 95.587,152.551 94.894,149.421C94.556,147.893 93.722,146.332 91.957,145.1C89.622,143.472 87.316,143.519 84.81,144.258C82.724,144.873 80.477,146.013 77.888,146.752C77.152,146.962 76.725,147.731 76.935,148.467C77.145,149.203 77.914,149.63 78.65,149.42ZM71.099,114.503C66.358,121.343 66.113,128.182 71.121,135.022C71.597,135.673 72.512,135.815 73.163,135.338C73.813,134.862 73.955,133.947 73.479,133.296C69.298,127.587 69.543,121.877 73.5,116.167C73.96,115.505 73.795,114.594 73.132,114.134C72.469,113.675 71.558,113.84 71.099,114.503ZM142.145,116.167C146.103,121.877 146.347,127.587 142.167,133.296C141.691,133.947 141.832,134.862 142.483,135.338C143.133,135.815 144.048,135.673 144.525,135.022C149.533,128.182 149.288,121.343 144.547,114.503C144.087,113.84 143.176,113.675 142.513,114.134C141.851,114.594 141.686,115.505 142.145,116.167ZM120.621,119.664L112.389,119.664L110.882,116.648C110.521,115.926 109.642,115.633 108.92,115.994C108.198,116.355 107.905,117.235 108.266,117.956L110.185,121.795L115.04,131.506C115.321,132.067 115.915,132.369 116.505,132.306C117.095,132.369 117.69,132.067 117.971,131.506L124.745,117.956C125.106,117.235 124.813,116.355 124.091,115.994C123.369,115.633 122.49,115.926 122.129,116.648L120.621,119.664ZM113.852,122.589L116.505,127.896L119.159,122.589L113.852,122.589ZM97.737,121.506C99.002,121.506 100.029,122.533 100.029,123.798C100.029,125.063 99.002,126.09 97.737,126.09C96.472,126.09 95.445,125.063 95.445,123.798C95.445,122.533 96.472,121.506 97.737,121.506ZM135.153,121.506C136.418,121.506 137.445,122.533 137.445,123.798C137.445,125.063 136.418,126.09 135.153,126.09C133.888,126.09 132.861,125.063 132.861,123.798C132.861,122.533 133.888,121.506 135.153,121.506ZM99.042,108.026L119.751,108.026C120.558,108.026 121.213,107.371 121.213,106.564C121.213,105.757 120.558,105.102 119.751,105.102L99.042,105.102C98.235,105.102 97.58,105.757 97.58,106.564C97.58,107.371 98.235,108.026 99.042,108.026ZM131.444,86.877C131.234,86.877 131.021,86.922 130.818,87.018C130.663,87.091 130.527,87.188 130.412,87.303L130.407,87.308C130.293,87.423 130.196,87.559 130.123,87.714L122.667,103.453C122.322,104.182 122.633,105.055 123.363,105.401C124.092,105.746 124.965,105.434 125.311,104.705L127.089,100.951L135.8,100.951L137.578,104.705C137.924,105.434 138.796,105.746 139.526,105.401C140.255,105.055 140.567,104.182 140.221,103.453L132.766,87.714C132.693,87.559 132.596,87.423 132.481,87.308L132.476,87.303C132.361,87.188 132.225,87.091 132.07,87.018C131.868,86.922 131.654,86.877 131.444,86.877ZM87.444,86.877C87.234,86.877 87.021,86.922 86.818,87.018C86.663,87.091 86.527,87.188 86.412,87.303L86.407,87.308C86.293,87.423 86.196,87.559 86.123,87.714L78.667,103.453C78.322,104.182 78.633,105.055 79.363,105.401C80.092,105.746 80.965,105.434 81.311,104.705L83.089,100.951L91.8,100.951L93.578,104.705C93.924,105.434 94.796,105.746 95.526,105.401C96.255,105.055 96.567,104.182 96.221,103.453L88.766,87.714C88.693,87.559 88.596,87.423 88.481,87.308L88.476,87.303C88.361,87.188 88.225,87.091 88.07,87.018C87.868,86.922 87.654,86.877 87.444,86.877ZM131.444,91.756L128.141,98.728L134.747,98.728L131.444,91.756ZM87.444,91.756L84.141,98.728L90.747,98.728L87.444,91.756Z"/>
    </g>
</svg>
