<?xml version="1.0" encoding="UTF-8" standalone="no"?>
<svg xmlns:xlink="http://www.w3.org/1999/xlink" height="65.45px" width="37.2px" xmlns="http://www.w3.org/2000/svg">
  <g transform="matrix(1.0, 0.0, 0.0, 1.0, 26.65, 34.7)">
    <path d="M4.5 21.0 Q8.3 19.2 8.5 22.8 8.65 25.1 6.4 26.3 L4.25 27.5 Q-1.2 23.65 4.5 21.0" fill="#ffffff" fill-rule="evenodd" stroke="none"/>
    <path d="M4.5 21.0 Q8.3 19.2 8.5 22.8 8.65 25.1 6.4 26.3 L4.25 27.5 Q-1.2 23.65 4.5 21.0 Z" fill="none" stroke="#8f7c3f" stroke-linecap="round" stroke-linejoin="round" stroke-width="1.0"/>
    <path d="M-12.25 -14.25 L-12.25 -14.5 -12.25 -14.55 Q-12.45 -16.5 -13.05 -17.5 L-14.45 -20.4 -16.35 -23.95 Q-17.5 -25.8 -18.9 -26.25 -20.35 -26.75 -20.65 -26.05 -20.95 -25.35 -20.25 -22.9 -19.55 -20.5 -18.15 -18.95 L-15.4 -16.1 -16.0 -15.1 Q-17.4 -15.95 -19.0 -17.65 -23.1 -22.0 -24.75 -24.95 -26.4 -27.9 -26.1 -31.65 -25.85 -35.4 -21.5 -32.6 -17.2 -29.85 -15.45 -26.65 -13.75 -23.45 -13.0 -20.65 -12.3 -17.85 -12.25 -14.5 L-12.25 -14.25" fill="#ffffff" fill-rule="evenodd" stroke="none"/>
    <path d="M-15.4 -16.1 L-18.15 -18.95 Q-19.55 -20.5 -20.25 -22.9 -20.95 -25.35 -20.65 -26.05 -20.35 -26.75 -18.9 -26.25 -17.5 -25.8 -16.35 -23.95 L-14.45 -20.4 -13.05 -17.5 Q-12.45 -16.5 -12.25 -14.55 L-12.25 -14.5 -12.25 -14.25 -12.85 -14.15 -15.4 -16.1" fill="#e2d5c0" fill-rule="evenodd" stroke="none"/>
    <path d="M-12.25 -14.25 L-12.25 -14.5 Q-12.3 -17.85 -13.0 -20.65 -13.75 -23.45 -15.45 -26.65 -17.2 -29.85 -21.5 -32.6 -25.85 -35.4 -26.1 -31.65 -26.4 -27.9 -24.75 -24.95 -23.1 -22.0 -19.0 -17.65 -17.4 -15.95 -16.0 -15.1 -14.3 -14.05 -12.85 -14.15 L-12.25 -14.25 -12.2 -14.25 -12.0 -15.1 -11.95 -14.3 -12.2 -14.25 -12.25 -14.15" fill="none" stroke="#8f7c3f" stroke-linecap="round" stroke-linejoin="round" stroke-width="1.0"/>
    <path d="M-15.4 -16.1 L-18.15 -18.95 Q-19.55 -20.5 -20.25 -22.9 -20.95 -25.35 -20.65 -26.05 -20.35 -26.75 -18.9 -26.25 -17.5 -25.8 -16.35 -23.95 L-14.45 -20.4 -13.05 -17.5 Q-12.45 -16.5 -12.25 -14.55 L-12.25 -14.5 -12.25 -14.25 -12.25 -14.15 M-15.4 -16.1 L-12.85 -14.15" fill="none" stroke="#8f7c3f" stroke-linecap="round" stroke-linejoin="round" stroke-width="1.0"/>
    <path d="M-5.45 -13.6 L-5.45 -13.85 Q-5.4 -17.2 -4.95 -20.0 -4.35 -23.6 -3.1 -26.2 -0.6 -31.4 4.2 -33.5 8.95 -35.6 8.2 -31.5 7.45 -27.4 6.45 -24.35 5.4 -21.35 1.3 -17.0 -0.3 -15.3 -1.7 -14.45 L-2.3 -15.45 0.5 -18.3 Q1.85 -19.85 3.05 -22.25 4.2 -24.75 3.45 -25.55 2.7 -26.4 1.25 -26.1 -0.25 -25.85 -1.35 -23.65 L-3.2 -19.75 Q-3.95 -18.0 -4.65 -16.85 -5.25 -15.85 -5.4 -13.9 L-5.4 -13.85 -5.45 -13.6" fill="#ffffff" fill-rule="evenodd" stroke="none"/>
    <path d="M-5.45 -13.6 L-5.4 -13.85 -5.4 -13.9 Q-5.25 -15.85 -4.65 -16.85 -3.95 -18.0 -3.2 -19.75 L-1.35 -23.65 Q-0.25 -25.85 1.25 -26.1 2.7 -26.4 3.45 -25.55 4.2 -24.75 3.05 -22.25 1.85 -19.85 0.5 -18.3 L-2.3 -15.45 -4.8 -13.5 -5.45 -13.6" fill="#e2d5c0" fill-rule="evenodd" stroke="none"/>
    <path d="M-1.7 -14.45 Q-0.3 -15.3 1.3 -17.0 5.4 -21.35 6.45 -24.35 7.45 -27.4 8.2 -31.5 8.95 -35.6 4.2 -33.5 -0.6 -31.4 -3.1 -26.2 -4.35 -23.6 -4.95 -20.0 -5.4 -17.2 -5.45 -13.85 L-5.45 -13.6 -5.7 -13.65 -5.7 -14.45 -5.45 -13.6 -4.8 -13.5 Q-3.4 -13.4 -1.7 -14.45 M-5.45 -13.5 L-5.45 -13.6" fill="none" stroke="#8f7c3f" stroke-linecap="round" stroke-linejoin="round" stroke-width="1.0"/>
    <path d="M-5.45 -13.6 L-5.4 -13.85 -5.4 -13.9 Q-5.25 -15.85 -4.65 -16.85 -3.95 -18.0 -3.2 -19.75 L-1.35 -23.65 Q-0.25 -25.85 1.25 -26.1 2.7 -26.4 3.45 -25.55 4.2 -24.75 3.05 -22.25 1.85 -19.85 0.5 -18.3 L-2.3 -15.45 -4.8 -13.5 M-5.45 -13.6 L-5.45 -13.5" fill="none" stroke="#8f7c3f" stroke-linecap="round" stroke-linejoin="round" stroke-width="1.0"/>
    <path d="M-5.15 9.8 L-4.05 10.75 Q-1.8 13.05 0.0 15.75 L3.5 21.0 Q4.8 23.0 4.85 25.25 4.8 28.3 0.55 28.55 L-6.15 29.25 -12.8 30.2 Q-17.5 30.7 -17.15 27.1 -16.9 23.95 -15.75 20.9 -14.65 18.05 -12.9 15.45 L-9.55 10.75 -9.2 10.25 -8.7 9.8 -5.15 9.8" fill="#e2d5c0" fill-rule="evenodd" stroke="none"/>
    <path d="M-5.15 9.8 L-4.05 10.75 Q-1.8 13.05 0.0 15.75 L3.5 21.0 Q4.8 23.0 4.85 25.25 4.8 28.3 0.55 28.55 L-6.15 29.25 -12.8 30.2 Q-17.5 30.7 -17.15 27.1 -16.9 23.95 -15.75 20.9 -14.65 18.05 -12.9 15.45 L-9.55 10.75 -9.2 10.25 -8.7 9.8" fill="none" stroke="#8f7c3f" stroke-linecap="round" stroke-linejoin="round" stroke-width="1.0"/>
    <path d="M-6.55 15.15 Q-9.35 13.1 -6.45 13.55 -6.15 14.75 -6.55 15.15" fill="#d0bc9b" fill-rule="evenodd" stroke="none"/>
    <path d="M-6.55 15.15 Q-9.35 13.1 -6.45 13.55 -6.15 14.75 -6.55 15.15 Z" fill="none" stroke="#8f7c3f" stroke-linecap="round" stroke-linejoin="round" stroke-width="1.0"/>
    <path d="M-15.95 19.35 L-11.45 18.85 -8.6 18.65 Q-9.2 21.4 -9.45 21.65 L-9.95 22.95 Q-10.45 23.6 -12.35 23.75 -13.9 23.8 -15.15 21.9 -16.9 19.5 -15.95 19.35" fill="#8f7c3f" fill-rule="evenodd" stroke="none"/>
    <path d="M-15.95 19.35 L-11.45 18.85 -8.6 18.65 Q-9.2 21.4 -9.45 21.65 L-9.95 22.95 Q-10.45 23.6 -12.35 23.75 -13.9 23.8 -15.15 21.9 -16.9 19.5 -15.95 19.35 Z" fill="none" stroke="#8f7c3f" stroke-linecap="round" stroke-linejoin="round" stroke-width="1.0"/>
    <path d="M-3.25 21.45 Q-4.85 18.95 -3.95 18.9 L0.6 18.65 3.45 18.6 2.45 21.55 1.85 22.85 Q1.35 23.45 -0.6 23.5 -2.15 23.45 -3.25 21.45" fill="#8f7c3f" fill-rule="evenodd" stroke="none"/>
    <path d="M-3.25 21.45 Q-4.85 18.95 -3.95 18.9 L0.6 18.65 3.45 18.6 2.45 21.55 1.85 22.85 Q1.35 23.45 -0.6 23.5 -2.15 23.45 -3.25 21.45 Z" fill="none" stroke="#8f7c3f" stroke-linecap="round" stroke-linejoin="round" stroke-width="1.0"/>
    <path d="M-18.05 14.0 L-17.85 13.95 -12.85 12.75 -10.6 12.0 Q-14.6 21.75 -21.15 14.45 L-18.75 14.1 -18.05 14.0" fill="#ffffff" fill-rule="evenodd" stroke="none"/>
    <path d="M-18.05 14.0 L-18.75 14.1 -21.15 14.45 Q-14.6 21.75 -10.6 12.0 L-12.85 12.75 -17.85 13.95 -18.05 14.0 Z" fill="none" stroke="#8f7c3f" stroke-linecap="round" stroke-linejoin="round" stroke-width="1.0"/>
    <path d="M5.7 13.65 L4.85 13.5 Q1.25 12.8 -2.4 11.55 1.55 21.3 8.1 14.0 L5.7 13.65" fill="#ffffff" fill-rule="evenodd" stroke="none"/>
    <path d="M5.7 13.65 L8.1 14.0 Q1.55 21.3 -2.4 11.55 1.25 12.8 4.85 13.5 L5.7 13.65 Z" fill="none" stroke="#8f7c3f" stroke-linecap="round" stroke-linejoin="round" stroke-width="1.0"/>
    <path d="M-12.25 -17.3 Q-0.15 -19.25 6.7 -10.4 14.3 -0.6 4.75 6.6 -0.65 10.7 -11.75 9.9 -23.95 8.7 -24.8 -3.35 L-24.85 -4.1 Q-25.2 -14.2 -14.35 -16.85 L-12.25 -17.3" fill="#ffffff" fill-rule="evenodd" stroke="none"/>
    <path d="M-12.25 -17.3 Q-0.15 -19.25 6.7 -10.4 14.3 -0.6 4.75 6.6 -0.65 10.7 -11.75 9.9 -23.95 8.7 -24.8 -3.35 L-24.85 -4.1 Q-25.2 -14.2 -14.35 -16.85 L-12.25 -17.3 Z" fill="none" stroke="#8f7c3f" stroke-linecap="round" stroke-linejoin="round" stroke-width="1.0"/>
    <path d="M-1.2 -1.5 Q-1.85 -0.3 -2.9 0.45 -3.95 1.15 -5.45 0.45 -6.9 -0.25 -7.4 -2.4 L-7.75 -2.4 Q-8.15 -0.05 -8.7 0.35 L-10.8 0.55 Q-11.8 0.3 -12.3 -1.85 M-5.35 -6.65 L-2.25 -6.5 0.65 -6.45 M-16.4 -6.95 L-13.4 -6.6 -10.3 -6.55 M-19.7 -2.25 L-19.15 -3.0 -18.25 -3.55 -17.95 -3.6 M-16.1 -2.85 L-17.0 -2.55 -17.0 -2.2 -17.35 -1.9 -17.5 -1.9 -17.3 -2.2 -17.0 -2.55 M-7.75 -2.4 L-8.15 -2.6 Q-9.0 -3.2 -7.8 -5.05 -6.25 -3.2 -7.4 -2.4 L-7.8 -5.05 -8.15 -2.6" fill="none" stroke="#8f7c3f" stroke-linecap="round" stroke-linejoin="round" stroke-width="1.0"/>
    <path d="M0.85 -2.6 Q1.4 -2.65 1.9 -3.1 L2.95 -3.85 M3.05 -1.8 L4.05 -2.25 Q4.5 -2.4 4.85 -2.65" fill="none" stroke="#8f7c3f" stroke-linecap="round" stroke-linejoin="round" stroke-width="1.0"/>
  </g>
</svg>
