<?xml version="1.0" encoding="UTF-8" standalone="no"?>
<svg xmlns:xlink="http://www.w3.org/1999/xlink" height="73.75px" width="49.45px" xmlns="http://www.w3.org/2000/svg">
  <g transform="matrix(1.0, 0.0, 0.0, 1.0, 31.0, 42.95)">
    <path d="M9.45 17.65 Q13.4 16.5 13.85 20.65 14.2 23.55 11.15 23.95 9.55 24.1 8.9 23.5 3.35 19.4 9.45 17.65" fill="#ffffff" fill-rule="evenodd" stroke="none"/>
    <path d="M9.45 17.65 Q13.4 16.5 13.85 20.65 14.2 23.55 11.15 23.95 9.55 24.1 8.9 23.5 3.35 19.4 9.45 17.65 Z" fill="none" stroke="#8f7c3f" stroke-linecap="round" stroke-linejoin="round" stroke-width="1.0"/>
    <path d="M-16.4 -20.2 Q-21.95 -24.25 -26.6 -29.55 -31.3 -34.85 -30.35 -38.1 -29.45 -41.3 -26.75 -41.9 -24.0 -42.5 -21.0 -39.6 -18.0 -36.7 -17.15 -35.4 L-14.75 -31.15 Q-13.15 -28.2 -12.6 -19.9 -16.05 -27.75 -19.05 -32.35 -20.0 -33.85 -21.4 -34.4 -25.45 -36.0 -22.45 -30.7 L-16.4 -20.2" fill="#ffffff" fill-rule="evenodd" stroke="none"/>
    <path d="M-16.4 -20.2 L-22.45 -30.7 Q-25.45 -36.0 -21.4 -34.4 -20.0 -33.85 -19.05 -32.35 -16.05 -27.75 -12.6 -19.9 -14.05 -18.8 -14.1 -19.35 L-16.55 -20.05 Q-16.9 -20.3 -16.4 -20.2" fill="#e2d5c0" fill-rule="evenodd" stroke="none"/>
    <path d="M-12.6 -19.9 Q-13.15 -28.2 -14.75 -31.15 L-17.15 -35.4 Q-18.0 -36.7 -21.0 -39.6 -24.0 -42.5 -26.75 -41.9 -29.45 -41.3 -30.35 -38.1 -31.3 -34.85 -26.6 -29.55 -21.95 -24.25 -16.4 -20.2 L-22.45 -30.7 Q-25.45 -36.0 -21.4 -34.4 -20.0 -33.85 -19.05 -32.35 -16.05 -27.75 -12.6 -19.9 -14.05 -18.8 -14.1 -19.35 L-16.55 -20.05 Q-16.9 -20.3 -16.4 -20.2" fill="none" stroke="#8f7c3f" stroke-linecap="round" stroke-linejoin="round" stroke-width="1.0"/>
    <path d="M1.85 -20.35 Q0.9 -28.6 3.35 -35.05 6.05 -42.15 13.2 -42.45 17.75 -42.65 17.95 -37.7 18.15 -30.55 12.55 -25.55 8.6 -22.1 5.8 -19.05 5.2 -18.55 4.65 -18.35 5.35 -18.9 6.05 -20.45 7.5 -23.75 9.6 -27.3 L12.95 -32.5 Q9.1 -36.7 5.95 -31.0 2.65 -25.25 3.15 -18.45 2.4 -18.9 1.85 -20.35" fill="#ffffff" fill-rule="evenodd" stroke="none"/>
    <path d="M3.15 -18.45 Q2.65 -25.25 5.95 -31.0 9.1 -36.7 12.95 -32.5 L9.6 -27.3 Q7.5 -23.75 6.05 -20.45 5.35 -18.9 4.65 -18.35 L3.15 -18.45" fill="#e2d5c0" fill-rule="evenodd" stroke="none"/>
    <path d="M1.85 -20.35 Q2.4 -18.9 3.15 -18.45 2.65 -25.25 5.95 -31.0 9.1 -36.7 12.95 -32.5 L9.6 -27.3 Q7.5 -23.75 6.05 -20.45 5.35 -18.9 4.65 -18.35 5.2 -18.55 5.8 -19.05 M4.65 -18.35 Q3.9 -17.75 3.15 -18.35 L3.15 -18.45 4.65 -18.35" fill="none" stroke="#8f7c3f" stroke-linecap="round" stroke-linejoin="round" stroke-width="1.0"/>
    <path d="M5.8 -19.05 Q8.6 -22.1 12.55 -25.55 18.15 -30.55 17.95 -37.7 17.75 -42.65 13.2 -42.45 6.05 -42.15 3.35 -35.05 0.9 -28.6 1.85 -20.35 Z" fill="none" stroke="#8f7c3f" stroke-linecap="round" stroke-linejoin="round" stroke-width="1.0"/>
    <path d="M-1.75 6.8 L-0.45 7.85 Q2.1 10.5 4.2 13.6 L8.2 19.65 Q9.7 21.95 9.75 24.5 9.7 28.05 4.8 28.3 L-2.85 29.1 -10.5 30.2 Q-15.9 30.8 -15.5 26.65 -15.2 23.0 -13.9 19.55 -12.65 16.25 -10.6 13.25 L-6.75 7.85 -6.4 7.3 -5.8 6.8 -1.75 6.8" fill="#e2d5c0" fill-rule="evenodd" stroke="none"/>
    <path d="M-1.75 6.8 L-0.45 7.85 Q2.1 10.5 4.2 13.6 L8.2 19.65 Q9.7 21.95 9.75 24.5 9.7 28.05 4.8 28.3 L-2.85 29.1 -10.5 30.2 Q-15.9 30.8 -15.5 26.65 -15.2 23.0 -13.9 19.55 -12.65 16.25 -10.6 13.25 L-6.75 7.85 -6.4 7.3 -5.8 6.8" fill="none" stroke="#8f7c3f" stroke-linecap="round" stroke-linejoin="round" stroke-width="1.0"/>
    <path d="M-3.35 12.9 Q-6.55 10.55 -3.2 11.1 -2.9 12.45 -3.35 12.9" fill="#d0bc9b" fill-rule="evenodd" stroke="none"/>
    <path d="M2.55 20.8 L1.5 22.7 Q0.65 23.6 -2.95 23.75 -5.75 23.85 -8.15 21.1 -11.35 17.65 -9.7 17.45 L-1.25 16.7 4.05 16.5 Q2.9 20.45 2.55 20.8" fill="#ffffff" fill-rule="evenodd" stroke="none"/>
    <path d="M2.55 20.8 L1.5 22.7 Q0.65 23.6 -2.95 23.75 -5.75 23.85 -8.15 21.1 -11.35 17.65 -9.7 17.45 L-1.25 16.7 4.05 16.5 Q2.9 20.45 2.55 20.8 M-3.35 12.9 Q-6.55 10.55 -3.2 11.1 -2.9 12.45 -3.35 12.9" fill="none" stroke="#8f7c3f" stroke-linecap="round" stroke-linejoin="round" stroke-width="1.0"/>
    <path d="M-6.55 -5.4 Q-4.15 -7.45 -1.35 -5.4 L-6.55 -5.4" fill="#ffffff" fill-rule="evenodd" stroke="none"/>
    <path d="M-1.35 -5.4 Q-4.15 -7.45 -6.55 -5.4" fill="none" stroke="#8f7c3f" stroke-linecap="round" stroke-linejoin="round" stroke-width="1.0"/>
    <path d="M-17.35 11.7 L-16.35 11.55 Q-12.2 10.75 -8.0 9.3 -12.55 20.5 -20.1 12.1 L-17.35 11.7" fill="#ffffff" fill-rule="evenodd" stroke="none"/>
    <path d="M-17.35 11.7 L-20.1 12.1 Q-12.55 20.5 -8.0 9.3 -12.2 10.75 -16.35 11.55 L-17.35 11.7 Z" fill="none" stroke="#8f7c3f" stroke-linecap="round" stroke-linejoin="round" stroke-width="1.0"/>
    <path d="M10.8 11.2 L13.6 11.6 Q6.0 20.0 1.45 8.8 5.65 10.25 9.8 11.05 L10.8 11.2" fill="#ffffff" fill-rule="evenodd" stroke="none"/>
    <path d="M10.8 11.2 L13.6 11.6 Q6.0 20.0 1.45 8.8 5.65 10.25 9.8 11.05 L10.8 11.2 Z" fill="none" stroke="#8f7c3f" stroke-linecap="round" stroke-linejoin="round" stroke-width="1.0"/>
    <path d="M-10.3 -24.6 Q3.75 -26.9 11.7 -16.6 20.55 -5.25 9.5 3.1 3.15 7.85 -9.7 6.95 -23.85 5.55 -24.85 -8.45 L-24.9 -9.3 Q-25.3 -21.05 -12.7 -24.1 L-10.3 -24.6" fill="#ffffff" fill-rule="evenodd" stroke="none"/>
    <path d="M-10.3 -24.6 Q3.75 -26.9 11.7 -16.6 20.55 -5.25 9.5 3.1 3.15 7.85 -9.7 6.95 -23.85 5.55 -24.85 -8.45 L-24.9 -9.3 Q-25.3 -21.05 -12.7 -24.1 L-10.3 -24.6 Z" fill="none" stroke="#8f7c3f" stroke-linecap="round" stroke-linejoin="round" stroke-width="1.0"/>
    <path d="M-9.3 -13.8 Q-9.55 -14.8 -9.4 -15.5 L-8.25 -15.5 Q-7.4 -14.6 -7.75 -13.55 -8.65 -12.7 -9.1 -13.05 L-9.3 -13.8 M-0.8 -12.8 Q-1.7 -12.15 -1.9 -13.3 -2.15 -14.5 -1.75 -15.35 -0.85 -15.5 -0.35 -14.5 0.1 -13.5 -0.8 -12.8" fill="#8f7c3f" fill-rule="evenodd" stroke="none"/>
    <path d="M3.45 -6.45 Q2.1 -4.7 0.75 -4.1 L-2.2 -4.2 Q-3.75 -4.9 -4.3 -7.55 L-5.25 -7.85 Q-5.75 -5.0 -6.25 -4.25 L-6.75 -3.85 -8.2 -3.8 -8.5 -3.85 Q-10.35 -4.45 -10.9 -7.3 M8.15 -8.8 L9.65 -9.2 Q10.05 -9.4 10.45 -9.55 M5.1 -9.55 Q5.8 -9.6 6.4 -10.15 L7.75 -11.1 M-9.3 -13.8 Q-9.55 -14.8 -9.4 -15.5 L-8.25 -15.5 Q-7.4 -14.6 -7.75 -13.55 -8.65 -12.7 -9.1 -13.05 L-9.3 -13.8 M-18.35 -7.6 L-17.75 -8.4 -16.6 -8.8 M-5.25 -7.85 Q-6.3 -8.55 -4.8 -10.9 -2.9 -8.6 -4.3 -7.55 L-4.8 -10.9 -5.25 -7.85 M-21.15 -8.05 Q-20.35 -9.55 -18.9 -9.7" fill="none" stroke="#8f7c3f" stroke-linecap="round" stroke-linejoin="round" stroke-width="1.0"/>
    <path d="M-0.8 -12.8 Q0.1 -13.5 -0.35 -14.5 -0.85 -15.5 -1.75 -15.35 -2.15 -14.5 -1.9 -13.3 -1.7 -12.15 -0.8 -12.8" fill="none" stroke="#8f7c3f" stroke-linecap="round" stroke-linejoin="round" stroke-width="1.0"/>
  </g>
</svg>
