<?xml version="1.0" encoding="UTF-8" standalone="no"?>
<!DOCTYPE svg PUBLIC "-//W3C//DTD SVG 1.1//EN" "http://www.w3.org/Graphics/SVG/1.1/DTD/svg11.dtd">
<svg width="76px" height="107px" version="1.1" xmlns="http://www.w3.org/2000/svg" xmlns:xlink="http://www.w3.org/1999/xlink" xml:space="preserve" xmlns:serif="http://www.serif.com/" style="fill-rule:evenodd;clip-rule:evenodd;stroke-linejoin:round;stroke-miterlimit:2;">
    <g transform="matrix(0.621522,0,0,0.621522,-30.3747,-28.6105)">
        <path d="M139.37,183.81L131.606,197.299C130.188,199.834 127.928,202.931 124.753,206.638L124.753,212.726C124.753,215.166 122.933,217.145 120.69,217.145L120.688,217.145C118.307,217.145 116.376,215.045 116.376,212.454L116.376,206.638C116.08,203.728 102.02,204.08 102.294,206.638L102.294,212.726C102.294,215.166 100.475,217.145 98.23,217.145C95.848,217.145 93.917,215.045 93.917,212.454L93.917,208.116C93.917,207.158 93.602,206.226 93.021,205.464C90.54,202.216 83.771,193.351 83.771,193.351C82.848,192.329 81.543,191.072 80.112,189.826C77.359,187.411 75.72,183.972 75.578,180.312C75.451,178.044 75.373,176.011 75.373,176.011L75.373,161.71C75.373,161.071 75.335,160.434 75.259,159.801C75.014,157.753 74.439,152.951 74.202,150.971C74.131,150.387 74.096,149.799 74.096,149.211L74.096,134.924C74.096,134.924 74.209,133.58 74.325,132.198C74.488,130.244 75.08,128.351 76.058,126.652C78.312,122.736 82.337,115.743 82.337,115.743L87.666,106.416L87.666,93.854C87.666,92.32 86.961,90.871 85.755,89.923C83.338,88.065 81.585,86.19 80.375,84.317C76.865,79.524 76.953,74.73 80.107,69.937C80.275,69.683 80.498,69.47 80.759,69.315C80.758,69.313 80.758,69.313 80.759,69.312C81.658,68.775 82.817,68.998 83.454,69.83C85.464,72.457 89.48,77.709 89.48,77.709C94.146,72.469 96.903,67.287 97.119,61.054L97.119,54.277C97.119,51.257 99.369,48.809 102.144,48.809L102.146,48.809C104.761,48.809 106.881,51.116 106.881,53.96L106.881,61.054C114.236,59.975 121.505,59.749 128.621,61.054L128.621,54.277C128.621,51.257 130.872,48.809 133.647,48.809L133.648,48.809C136.264,48.809 138.383,51.116 138.383,53.96L138.383,61.054C138.383,61.054 138.414,64.77 138.442,68.222C138.47,71.704 139.993,75.006 142.624,77.287C144.148,78.556 145.523,79.876 146.486,80.94C146.486,80.94 147.343,81.546 148.354,82.262C150.577,83.834 153.649,83.34 155.265,81.15C157.339,78.37 158.37,74.919 158.917,71.11C159.103,69.82 160.054,68.772 161.32,68.459C161.319,68.455 161.32,68.455 161.32,68.455C163.073,68.022 164.883,68.916 165.605,70.571C167.849,75.69 167.705,80.822 164.327,84.317C163.322,85.388 161.795,86.758 159.12,88.784C159.12,88.784 158.516,89.343 157.674,90.123C156.445,91.263 155.752,92.868 155.764,94.545C155.778,96.22 156.496,97.814 157.743,98.934C159.427,100.346 161.042,101.95 162.284,103.6C164.679,106.782 174.299,121.984 167.453,129.908C164.577,133.13 160.383,135.579 154.952,137.009C158.365,141.934 158.557,146.859 154.952,151.784L151.581,160.752C150.438,163.029 151.405,164.416 154.952,164.543C158.956,163.299 161.093,161.005 164.097,163.285C165.197,164.119 165.722,165.173 165.932,166.208C166.369,168.355 165.274,170.521 163.286,171.442C162.132,171.967 160.842,172.468 159.12,172.598C154.128,174.119 149.045,174.818 143.858,174.581L139.37,183.81Z" style="fill:white;"/>
    </g>
    <g transform="matrix(0.621522,0,0,0.621522,-30.3747,-28.6105)">
        <path d="M98.229,218.191L98.361,218.189C101.098,218.115 103.339,215.72 103.339,212.726L103.339,206.639C103.339,206.062 102.871,205.593 102.294,205.593C101.716,205.593 101.248,206.062 101.248,206.639L101.248,212.726C101.248,214.566 99.922,216.1 98.23,216.1L98.229,216.1C96.399,216.1 94.962,214.445 94.962,212.454L94.962,206.639C94.962,206.062 94.494,205.593 93.917,205.593C93.34,205.593 92.871,206.062 92.871,206.639L92.871,212.454C92.871,215.646 95.295,218.191 98.229,218.191ZM120.688,218.191L120.819,218.189C123.557,218.115 125.798,215.72 125.798,212.726L125.798,206.639C125.798,206.062 125.329,205.593 124.752,205.593C124.175,205.593 123.707,206.062 123.707,206.639L123.707,212.726C123.707,214.566 122.381,216.1 120.689,216.1L120.688,216.1C118.858,216.1 117.421,214.445 117.421,212.454L117.421,206.639C117.421,206.062 116.952,205.593 116.375,205.593C115.798,205.593 115.33,206.062 115.33,206.639L115.33,212.454C115.33,215.646 117.753,218.191 120.688,218.191ZM112.053,202.849L110.155,206.633C109.897,207.147 110.106,207.775 110.62,208.033C111.135,208.291 111.763,208.083 112.021,207.568L113.919,203.784C114.177,203.269 113.969,202.642 113.454,202.384C112.939,202.125 112.311,202.334 112.053,202.849ZM107.945,202.849L106.047,206.633C105.789,207.147 105.998,207.775 106.512,208.033C107.027,208.291 107.655,208.083 107.913,207.568L109.811,203.784C110.069,203.269 109.861,202.642 109.346,202.384C108.831,202.125 108.203,202.334 107.945,202.849ZM138.466,183.289L130.701,196.778C130.414,197.277 130.586,197.916 131.085,198.203C131.584,198.49 132.223,198.318 132.51,197.819L140.274,184.33C140.562,183.831 140.39,183.193 139.89,182.905C139.391,182.618 138.753,182.79 138.466,183.289ZM123.455,195.191L123.455,197.369C123.455,197.889 123.876,198.31 124.395,198.31C124.914,198.31 125.336,197.889 125.336,197.369L125.336,195.191C125.336,194.672 124.914,194.251 124.395,194.251C123.876,194.251 123.455,194.672 123.455,195.191ZM94.421,195.191L94.421,197.369C94.421,197.889 94.842,198.31 95.361,198.31C95.88,198.31 96.301,197.889 96.301,197.369L96.301,195.191C96.301,194.672 95.88,194.251 95.361,194.251C94.842,194.251 94.421,194.672 94.421,195.191ZM119.307,195.191L119.307,197.369C119.307,197.889 119.728,198.31 120.247,198.31C120.766,198.31 121.188,197.889 121.188,197.369L121.188,195.191C121.188,194.672 120.766,194.251 120.247,194.251C119.728,194.251 119.307,194.672 119.307,195.191ZM102.716,195.191L102.716,197.369C102.716,197.889 103.137,198.31 103.656,198.31C104.175,198.31 104.597,197.889 104.597,197.369L104.597,195.191C104.597,194.672 104.175,194.251 103.656,194.251C103.137,194.251 102.716,194.672 102.716,195.191ZM98.568,195.191L98.568,197.369C98.568,197.889 98.99,198.31 99.509,198.31C100.028,198.31 100.449,197.889 100.449,197.369L100.449,195.191C100.449,194.672 100.028,194.251 99.509,194.251C98.99,194.251 98.568,194.672 98.568,195.191ZM115.159,195.191L115.159,197.369C115.159,197.889 115.581,198.31 116.1,198.31C116.619,198.31 117.04,197.889 117.04,197.369L117.04,195.191C117.04,194.672 116.619,194.251 116.1,194.251C115.581,194.251 115.159,194.672 115.159,195.191ZM106.864,195.191L106.864,197.369C106.864,197.889 107.285,198.31 107.804,198.31C108.323,198.31 108.745,197.889 108.745,197.369L108.745,195.191C108.745,194.672 108.323,194.251 107.804,194.251C107.285,194.251 106.864,194.672 106.864,195.191ZM111.011,195.191L111.011,197.369C111.011,197.889 111.433,198.31 111.952,198.31C112.471,198.31 112.892,197.889 112.892,197.369L112.892,195.191C112.892,194.672 112.471,194.251 111.952,194.251C111.433,194.251 111.011,194.672 111.011,195.191ZM127.602,195.191L127.602,197.369C127.602,197.889 128.024,198.31 128.543,198.31C129.062,198.31 129.483,197.889 129.483,197.369L129.483,195.191C129.483,194.672 129.062,194.251 128.543,194.251C128.024,194.251 127.602,194.672 127.602,195.191ZM88.211,194.385C88.849,194.385 89.367,194.903 89.367,195.541C89.367,196.18 88.849,196.698 88.211,196.698C87.572,196.698 87.054,196.18 87.054,195.541C87.054,194.903 87.572,194.385 88.211,194.385ZM91.753,194.385C92.391,194.385 92.909,194.903 92.909,195.541C92.909,196.18 92.391,196.698 91.753,196.698C91.114,196.698 90.596,196.18 90.596,195.541C90.596,194.903 91.114,194.385 91.753,194.385ZM75.124,187.374C77.893,189.272 81.135,192.149 82.92,194.121C83.345,194.591 84.072,194.628 84.542,194.202C85.012,193.777 85.048,193.05 84.623,192.58C82.745,190.505 79.336,187.477 76.423,185.48C75.901,185.121 75.185,185.254 74.827,185.777C74.468,186.3 74.602,187.015 75.124,187.374ZM95.272,187.33C95.91,187.33 96.429,187.848 96.429,188.486C96.429,189.125 95.91,189.643 95.272,189.643C94.634,189.643 94.115,189.125 94.115,188.486C94.115,187.848 94.634,187.33 95.272,187.33ZM120.16,187.33C120.799,187.33 121.317,187.848 121.317,188.486C121.317,189.125 120.799,189.643 120.16,189.643C119.522,189.643 119.004,189.125 119.004,188.486C119.004,187.848 119.522,187.33 120.16,187.33ZM107.716,187.33C108.355,187.33 108.873,187.848 108.873,188.486C108.873,189.125 108.355,189.643 107.716,189.643C107.078,189.643 106.559,189.125 106.559,188.486C106.559,187.848 107.078,187.33 107.716,187.33ZM103.568,187.33C104.207,187.33 104.725,187.848 104.725,188.486C104.725,189.125 104.207,189.643 103.568,189.643C102.93,189.643 102.411,189.125 102.411,188.486C102.411,187.848 102.93,187.33 103.568,187.33ZM116.012,187.33C116.651,187.33 117.169,187.848 117.169,188.486C117.169,189.125 116.651,189.643 116.012,189.643C115.374,189.643 114.855,189.125 114.855,188.486C114.855,187.848 115.374,187.33 116.012,187.33ZM128.446,187.33C129.084,187.33 129.603,187.848 129.603,188.486C129.603,189.125 129.084,189.643 128.446,189.643C127.807,189.643 127.289,189.125 127.289,188.486C127.289,187.848 127.807,187.33 128.446,187.33ZM99.42,187.33C100.059,187.33 100.577,187.848 100.577,188.486C100.577,189.125 100.059,189.643 99.42,189.643C98.782,189.643 98.263,189.125 98.263,188.486C98.263,187.848 98.782,187.33 99.42,187.33ZM124.308,187.33C124.947,187.33 125.465,187.848 125.465,188.486C125.465,189.125 124.947,189.643 124.308,189.643C123.67,189.643 123.152,189.125 123.152,188.486C123.152,187.848 123.67,187.33 124.308,187.33ZM111.864,187.33C112.503,187.33 113.021,187.848 113.021,188.486C113.021,189.125 112.503,189.643 111.864,189.643C111.226,189.643 110.707,189.125 110.707,188.486C110.707,187.848 111.226,187.33 111.864,187.33ZM74.119,158.159L74.119,176.011C74.119,176.703 74.681,177.265 75.373,177.265C76.065,177.265 76.627,176.703 76.627,176.011L76.627,158.159C76.627,157.467 76.065,156.905 75.373,156.905C74.681,156.905 74.119,157.467 74.119,158.159ZM135.22,172.968L135.22,175.146C135.22,175.666 135.641,176.087 136.16,176.087C136.679,176.087 137.101,175.666 137.101,175.146L137.101,172.968C137.101,172.449 136.679,172.028 136.16,172.028C135.641,172.028 135.22,172.449 135.22,172.968ZM106.686,172.968L106.686,175.146C106.686,175.666 107.108,176.087 107.627,176.087C108.146,176.087 108.567,175.666 108.567,175.146L108.567,172.968C108.567,172.449 108.146,172.028 107.627,172.028C107.108,172.028 106.686,172.449 106.686,172.968ZM139.368,172.968L139.368,175.146C139.368,175.666 139.789,176.087 140.308,176.087C140.827,176.087 141.249,175.666 141.249,175.146L141.249,172.968C141.249,172.449 140.827,172.028 140.308,172.028C139.789,172.028 139.368,172.449 139.368,172.968ZM94.243,172.968L94.243,175.146C94.243,175.666 94.664,176.087 95.184,176.087C95.703,176.087 96.124,175.666 96.124,175.146L96.124,172.968C96.124,172.449 95.703,172.028 95.184,172.028C94.664,172.028 94.243,172.449 94.243,172.968ZM131.072,172.968L131.072,175.146C131.072,175.666 131.494,176.087 132.013,176.087C132.532,176.087 132.953,175.666 132.953,175.146L132.953,172.968C132.953,172.449 132.532,172.028 132.013,172.028C131.494,172.028 131.072,172.449 131.072,172.968ZM102.538,172.968L102.538,175.146C102.538,175.666 102.96,176.087 103.479,176.087C103.998,176.087 104.419,175.666 104.419,175.146L104.419,172.968C104.419,172.449 103.998,172.028 103.479,172.028C102.96,172.028 102.538,172.449 102.538,172.968ZM85.948,172.968L85.948,175.146C85.948,175.666 86.369,176.087 86.888,176.087C87.407,176.087 87.828,175.666 87.828,175.146L87.828,172.968C87.828,172.449 87.407,172.028 86.888,172.028C86.369,172.028 85.948,172.449 85.948,172.968ZM90.095,172.968L90.095,175.146C90.095,175.666 90.517,176.087 91.036,176.087C91.555,176.087 91.976,175.666 91.976,175.146L91.976,172.968C91.976,172.449 91.555,172.028 91.036,172.028C90.517,172.028 90.095,172.449 90.095,172.968ZM98.391,172.968L98.391,175.146C98.391,175.666 98.812,176.087 99.331,176.087C99.85,176.087 100.272,175.666 100.272,175.146L100.272,172.968C100.272,172.449 99.85,172.028 99.331,172.028C98.812,172.028 98.391,172.449 98.391,172.968ZM81.8,172.968L81.8,175.146C81.8,175.666 82.221,176.087 82.74,176.087C83.259,176.087 83.681,175.666 83.681,175.146L83.681,172.968C83.681,172.449 83.259,172.028 82.74,172.028C82.221,172.028 81.8,172.449 81.8,172.968ZM77.652,172.968L77.652,175.146C77.652,175.666 78.073,176.087 78.593,176.087C79.112,176.087 79.533,175.666 79.533,175.146L79.533,172.968C79.533,172.449 79.112,172.028 78.593,172.028C78.073,172.028 77.652,172.449 77.652,172.968ZM150.738,160.147L142.973,173.636C142.686,174.135 142.858,174.774 143.357,175.061C143.856,175.348 144.495,175.176 144.782,174.677L152.546,161.188C152.834,160.689 152.662,160.051 152.163,159.763C151.664,159.476 151.025,159.648 150.738,160.147ZM61.936,163.508L60.369,170.561C59.895,172.286 60.605,173.413 61.608,173.942C62.99,174.671 65.272,174.199 66.267,172.039C66.509,171.514 66.28,170.893 65.755,170.651C65.231,170.409 64.609,170.639 64.367,171.163C64.071,171.805 63.54,172.151 63.033,172.177C62.808,172.188 62.586,172.142 62.448,171.988C62.277,171.796 62.281,171.491 62.391,171.098C62.397,171.079 62.401,171.06 62.406,171.041L63.979,163.962C64.104,163.399 63.748,162.839 63.185,162.714C62.621,162.589 62.062,162.945 61.936,163.508ZM154.484,165.936C156.49,165.313 158.231,164.354 159.847,163.835C161.09,163.436 162.243,163.323 163.401,164.201C164.242,164.84 164.643,165.646 164.804,166.438C165.135,168.061 164.307,169.699 162.805,170.396C161.759,170.872 160.592,171.332 159.033,171.45C158.4,171.498 157.924,172.051 157.972,172.684C158.02,173.317 158.573,173.793 159.206,173.745C161.088,173.604 162.5,173.064 163.762,172.49C163.764,172.489 163.767,172.488 163.769,172.486C166.242,171.342 167.603,168.648 167.06,165.978C166.799,164.701 166.15,163.399 164.793,162.368L164.793,162.367C162.947,160.967 161.125,161.008 159.143,161.643C157.534,162.16 155.799,163.117 153.801,163.738C153.194,163.926 152.855,164.572 153.043,165.178C153.232,165.785 153.878,166.124 154.484,165.936ZM111.697,165.936C113.703,165.313 115.444,164.354 117.059,163.835C118.303,163.436 119.456,163.323 120.614,164.201C121.454,164.84 121.856,165.646 122.017,166.438C122.347,168.061 121.52,169.699 120.017,170.396C118.971,170.872 117.805,171.332 116.246,171.45C115.613,171.498 115.137,172.051 115.185,172.684C115.232,173.317 115.785,173.793 116.419,173.745C118.3,173.604 119.713,173.064 120.975,172.49C120.977,172.489 120.98,172.488 120.982,172.486C123.454,171.342 124.816,168.648 124.272,165.978C124.012,164.701 123.363,163.399 122.006,162.368C122.006,162.368 122.005,162.368 122.005,162.367C120.159,160.967 118.338,161.008 116.356,161.643C114.746,162.16 113.012,163.117 111.014,163.738C110.407,163.926 110.068,164.572 110.256,165.178C110.445,165.785 111.09,166.124 111.697,165.936ZM131.94,165.106C132.579,165.106 133.097,165.624 133.097,166.262C133.097,166.901 132.579,167.419 131.94,167.419C131.302,167.419 130.783,166.901 130.783,166.262C130.783,165.624 131.302,165.106 131.94,165.106ZM140.236,165.106C140.874,165.106 141.392,165.624 141.392,166.262C141.392,166.901 140.874,167.419 140.236,167.419C139.597,167.419 139.079,166.901 139.079,166.262C139.079,165.624 139.597,165.106 140.236,165.106ZM136.088,165.106C136.726,165.106 137.245,165.624 137.245,166.262C137.245,166.901 136.726,167.419 136.088,167.419C135.449,167.419 134.931,166.901 134.931,166.262C134.931,165.624 135.449,165.106 136.088,165.106ZM90.92,165.104C91.558,165.104 92.076,165.622 92.076,166.261C92.076,166.899 91.558,167.418 90.92,167.418C90.281,167.418 89.763,166.899 89.763,166.261C89.763,165.622 90.281,165.104 90.92,165.104ZM78.475,165.104C79.114,165.104 79.632,165.622 79.632,166.261C79.632,166.899 79.114,167.418 78.475,167.418C77.837,167.418 77.319,166.899 77.319,166.261C77.319,165.622 77.837,165.104 78.475,165.104ZM103.364,165.104C104.002,165.104 104.52,165.622 104.52,166.261C104.52,166.899 104.002,167.418 103.364,167.418C102.725,167.418 102.207,166.899 102.207,166.261C102.207,165.622 102.725,165.104 103.364,165.104ZM99.216,165.104C99.854,165.104 100.372,165.622 100.372,166.261C100.372,166.899 99.854,167.418 99.216,167.418C98.577,167.418 98.059,166.899 98.059,166.261C98.059,165.622 98.577,165.104 99.216,165.104ZM95.068,165.104C95.706,165.104 96.224,165.622 96.224,166.261C96.224,166.899 95.706,167.418 95.068,167.418C94.429,167.418 93.911,166.899 93.911,166.261C93.911,165.622 94.429,165.104 95.068,165.104ZM86.772,165.104C87.41,165.104 87.928,165.622 87.928,166.261C87.928,166.899 87.41,167.418 86.772,167.418C86.133,167.418 85.615,166.899 85.615,166.261C85.615,165.622 86.133,165.104 86.772,165.104ZM82.623,165.104C83.262,165.104 83.78,165.622 83.78,166.261C83.78,166.899 83.262,167.418 82.623,167.418C81.985,167.418 81.467,166.899 81.467,166.261C81.467,165.622 81.985,165.104 82.623,165.104ZM107.512,165.104C108.15,165.104 108.668,165.622 108.668,166.261C108.668,166.899 108.15,167.418 107.512,167.418C106.873,167.418 106.355,166.899 106.355,166.261C106.355,165.622 106.873,165.104 107.512,165.104ZM122.164,150.64C122.675,151.378 122.717,152.116 122.176,152.854C121.904,153.226 121.985,153.749 122.357,154.022C122.729,154.294 123.252,154.213 123.524,153.841C124.538,152.457 124.496,151.072 123.537,149.688C123.274,149.309 122.753,149.215 122.374,149.477C121.995,149.74 121.901,150.261 122.164,150.64ZM118.041,150.64C118.552,151.378 118.594,152.116 118.053,152.854C117.781,153.226 117.862,153.749 118.234,154.022C118.606,154.294 119.129,154.213 119.401,153.841C120.415,152.457 120.373,151.072 119.414,149.688C119.151,149.309 118.63,149.215 118.251,149.477C117.872,149.74 117.778,150.261 118.041,150.64ZM72.842,134.924L72.842,152.776C72.842,153.468 73.404,154.03 74.096,154.03C74.788,154.03 75.35,153.468 75.35,152.776L75.35,134.924C75.35,134.232 74.788,133.671 74.096,133.671C73.404,133.671 72.842,134.232 72.842,134.924ZM133.594,153.404C133.557,153.526 133.486,153.652 133.454,153.706L133.438,153.732L133.379,153.732C133.1,153.732 132.864,153.639 132.668,153.455C132.466,153.264 132.366,153.032 132.366,152.759L132.366,149.826C132.366,149.558 132.463,149.324 132.663,149.127C132.86,148.932 133.098,148.835 133.379,148.835L133.379,148.836L133.633,148.835C133.965,148.373 134.214,147.991 134.377,147.688L134.378,147.688C134.545,147.378 134.7,147.012 134.843,146.591C134.985,146.171 135.075,145.578 135.118,144.814C135.164,144.016 135.199,143.139 135.225,142.183C135.251,141.226 135.264,139.82 135.264,137.966L135.264,137.362C135.264,137.091 135.36,136.861 135.551,136.671C135.74,136.485 135.975,136.388 136.258,136.388L143.201,136.388C143.48,136.388 143.717,136.482 143.912,136.666C144.114,136.857 144.215,137.089 144.215,137.362L144.215,148.835L144.854,148.835C145.135,148.835 145.374,148.933 145.57,149.127C145.77,149.324 145.868,149.558 145.868,149.826L145.868,152.759C145.868,153.032 145.768,153.264 145.565,153.455C145.376,153.633 145.148,153.727 144.88,153.732L144.854,153.732L144.86,153.732C145.031,153.729 145.168,153.59 145.168,153.419C145.168,153.397 145.165,153.376 145.161,153.355C145.107,153.38 145.049,153.398 144.988,153.408C144.957,153.529 144.896,153.653 144.869,153.706L144.854,153.732L144.796,153.732C144.517,153.732 144.28,153.639 144.085,153.455C143.883,153.264 143.782,153.032 143.782,152.759L143.782,150.726L134.451,150.726L134.451,152.759C134.451,153.032 134.351,153.264 134.148,153.455C133.959,153.633 133.731,153.727 133.464,153.732L133.438,153.732L133.444,153.732C133.614,153.729 133.751,153.59 133.751,153.419C133.751,153.397 133.749,153.376 133.745,153.355C133.697,153.377 133.647,153.393 133.594,153.404ZM105.153,150.018L105.153,152.196C105.153,152.716 105.574,153.137 106.093,153.137C106.612,153.137 107.034,152.716 107.034,152.196L107.034,150.018C107.034,149.499 106.612,149.078 106.093,149.078C105.574,149.078 105.153,149.499 105.153,150.018ZM96.858,150.018L96.858,152.196C96.858,152.716 97.279,153.137 97.798,153.137C98.317,153.137 98.738,152.716 98.738,152.196L98.738,150.018C98.738,149.499 98.317,149.078 97.798,149.078C97.279,149.078 96.858,149.499 96.858,150.018ZM80.267,150.018L80.267,152.196C80.267,152.716 80.688,153.137 81.207,153.137C81.726,153.137 82.148,152.716 82.148,152.196L82.148,150.018C82.148,149.499 81.726,149.078 81.207,149.078C80.688,149.078 80.267,149.499 80.267,150.018ZM92.71,150.018L92.71,152.196C92.71,152.716 93.131,153.137 93.65,153.137C94.169,153.137 94.591,152.716 94.591,152.196L94.591,150.018C94.591,149.499 94.169,149.078 93.65,149.078C93.131,149.078 92.71,149.499 92.71,150.018ZM84.414,150.018L84.414,152.196C84.414,152.716 84.836,153.137 85.355,153.137C85.874,153.137 86.295,152.716 86.295,152.196L86.295,150.018C86.295,149.499 85.874,149.078 85.355,149.078C84.836,149.078 84.414,149.499 84.414,150.018ZM88.562,150.018L88.562,152.196C88.562,152.716 88.983,153.137 89.503,153.137C90.022,153.137 90.443,152.716 90.443,152.196L90.443,150.018C90.443,149.499 90.022,149.078 89.503,149.078C88.983,149.078 88.562,149.499 88.562,150.018ZM109.301,150.018L109.301,152.196C109.301,152.716 109.722,153.137 110.241,153.137C110.76,153.137 111.182,152.716 111.182,152.196L111.182,150.018C111.182,149.499 110.76,149.078 110.241,149.078C109.722,149.078 109.301,149.499 109.301,150.018ZM101.005,150.018L101.005,152.196C101.005,152.716 101.427,153.137 101.946,153.137C102.465,153.137 102.886,152.716 102.886,152.196L102.886,150.018C102.886,149.499 102.465,149.078 101.946,149.078C101.427,149.078 101.005,149.499 101.005,150.018ZM76.119,150.018L76.119,152.196C76.119,152.716 76.54,153.137 77.059,153.137C77.578,153.137 78,152.716 78,152.196L78,150.018C78,149.499 77.578,149.078 77.059,149.078C76.54,149.078 76.119,149.499 76.119,150.018ZM114.811,136.414C111.118,141.743 110.926,147.072 114.827,152.401C115.168,152.866 115.822,152.967 116.287,152.627C116.753,152.286 116.854,151.632 116.513,151.166C113.203,146.646 113.395,142.125 116.529,137.604C116.857,137.13 116.739,136.479 116.265,136.15C115.791,135.822 115.14,135.94 114.811,136.414ZM154.092,137.604C157.226,142.125 157.418,146.646 154.108,151.166C153.768,151.632 153.869,152.286 154.334,152.627C154.799,152.967 155.454,152.866 155.794,152.401C159.696,147.072 159.504,141.743 155.81,136.414C155.481,135.94 154.83,135.822 154.356,136.15C153.882,136.479 153.764,137.13 154.092,137.604ZM62.543,137.604C65.677,142.125 65.869,146.646 62.559,151.166C62.219,151.632 62.32,152.286 62.785,152.627C63.25,152.967 63.905,152.866 64.245,152.401C68.147,147.072 67.955,141.743 64.261,136.414C63.932,135.94 63.281,135.822 62.807,136.15C62.333,136.479 62.215,137.13 62.543,137.604ZM69.708,149.338C70.347,149.338 70.865,149.856 70.865,150.494C70.865,151.133 70.347,151.651 69.708,151.651C69.07,151.651 68.551,151.133 68.551,150.494C68.551,149.856 69.07,149.338 69.708,149.338ZM136.204,148.835C136.771,147.843 137.111,146.863 137.23,145.896C137.358,144.853 137.424,142.314 137.427,138.28L141.993,138.28L141.993,148.835L136.204,148.835ZM110.169,142.157C110.807,142.157 111.325,142.675 111.325,143.313C111.325,143.952 110.807,144.47 110.169,144.47C109.53,144.47 109.012,143.952 109.012,143.313C109.012,142.675 109.53,142.157 110.169,142.157ZM101.858,142.157C102.496,142.157 103.014,142.675 103.014,143.313C103.014,143.952 102.496,144.47 101.858,144.47C101.219,144.47 100.701,143.952 100.701,143.313C100.701,142.675 101.219,142.157 101.858,142.157ZM81.118,142.157C81.756,142.157 82.274,142.675 82.274,143.313C82.274,143.952 81.756,144.47 81.118,144.47C80.479,144.47 79.961,143.952 79.961,143.313C79.961,142.675 80.479,142.157 81.118,142.157ZM97.71,142.157C98.348,142.157 98.866,142.675 98.866,143.313C98.866,143.952 98.348,144.47 97.71,144.47C97.071,144.47 96.553,143.952 96.553,143.313C96.553,142.675 97.071,142.157 97.71,142.157ZM89.414,142.157C90.052,142.157 90.57,142.675 90.57,143.313C90.57,143.952 90.052,144.47 89.414,144.47C88.775,144.47 88.257,143.952 88.257,143.313C88.257,142.675 88.775,142.157 89.414,142.157ZM106.006,142.157C106.644,142.157 107.163,142.675 107.163,143.313C107.163,143.952 106.644,144.47 106.006,144.47C105.367,144.47 104.849,143.952 104.849,143.313C104.849,142.675 105.367,142.157 106.006,142.157ZM76.97,142.157C77.608,142.157 78.126,142.675 78.126,143.313C78.126,143.952 77.608,144.47 76.97,144.47C76.331,144.47 75.813,143.952 75.813,143.313C75.813,142.675 76.331,142.157 76.97,142.157ZM93.562,142.157C94.2,142.157 94.718,142.675 94.718,143.313C94.718,143.952 94.2,144.47 93.562,144.47C92.923,144.47 92.405,143.952 92.405,143.313C92.405,142.675 92.923,142.157 93.562,142.157ZM85.266,142.157C85.904,142.157 86.422,142.675 86.422,143.313C86.422,143.952 85.904,144.47 85.266,144.47C84.627,144.47 84.109,143.952 84.109,143.313C84.109,142.675 84.627,142.157 85.266,142.157ZM149.437,134.851C148.013,134.851 146.85,136.02 146.85,137.467C146.85,138.915 148.013,140.084 149.437,140.084C150.86,140.084 152.023,138.915 152.023,137.467C152.023,136.02 150.86,134.851 149.437,134.851ZM127.084,134.851C125.66,134.851 124.497,136.02 124.497,137.467C124.497,138.915 125.66,140.084 127.084,140.084C128.507,140.084 129.67,138.915 129.67,137.467C129.67,136.02 128.507,134.851 127.084,134.851ZM127.084,136.515C127.597,136.515 128.006,136.945 128.006,137.467C128.006,137.99 127.597,138.42 127.084,138.42C126.57,138.42 126.161,137.99 126.161,137.467C126.161,136.945 126.57,136.515 127.084,136.515ZM149.437,136.515C149.95,136.515 150.359,136.945 150.359,137.467C150.359,137.99 149.95,138.42 149.437,138.42C148.923,138.42 148.514,137.99 148.514,137.467C148.514,136.945 148.923,136.515 149.437,136.515ZM166.593,115.728C169.727,120.249 169.919,124.769 166.609,129.29C166.269,129.756 166.37,130.41 166.835,130.75C167.3,131.091 167.955,130.99 168.295,130.525C172.197,125.196 172.005,119.867 168.311,114.537C167.982,114.064 167.331,113.945 166.857,114.274C166.383,114.602 166.265,115.254 166.593,115.728ZM131.589,127.65L131.589,129.828C131.589,130.347 132.01,130.768 132.529,130.768C133.048,130.768 133.47,130.347 133.47,129.828L133.47,127.65C133.47,127.131 133.048,126.709 132.529,126.709C132.01,126.709 131.589,127.131 131.589,127.65ZM104.298,127.65L104.298,129.828C104.298,130.347 104.719,130.768 105.238,130.768C105.757,130.768 106.179,130.347 106.179,129.828L106.179,127.65C106.179,127.131 105.757,126.709 105.238,126.709C104.719,126.709 104.298,127.131 104.298,127.65ZM83.559,127.65L83.559,129.828C83.559,130.347 83.98,130.768 84.499,130.768C85.018,130.768 85.44,130.347 85.44,129.828L85.44,127.65C85.44,127.131 85.018,126.709 84.499,126.709C83.98,126.709 83.559,127.131 83.559,127.65ZM139.884,127.65L139.884,129.828C139.884,130.347 140.306,130.768 140.825,130.768C141.344,130.768 141.765,130.347 141.765,129.828L141.765,127.65C141.765,127.131 141.344,126.709 140.825,126.709C140.306,126.709 139.884,127.131 139.884,127.65ZM91.854,127.65L91.854,129.828C91.854,130.347 92.276,130.768 92.795,130.768C93.314,130.768 93.735,130.347 93.735,129.828L93.735,127.65C93.735,127.131 93.314,126.709 92.795,126.709C92.276,126.709 91.854,127.131 91.854,127.65ZM127.441,127.65L127.441,129.828C127.441,130.347 127.862,130.768 128.381,130.768C128.9,130.768 129.322,130.347 129.322,129.828L129.322,127.65C129.322,127.131 128.9,126.709 128.381,126.709C127.862,126.709 127.441,127.131 127.441,127.65ZM135.736,127.65L135.736,129.828C135.736,130.347 136.158,130.768 136.677,130.768C137.196,130.768 137.617,130.347 137.617,129.828L137.617,127.65C137.617,127.131 137.196,126.709 136.677,126.709C136.158,126.709 135.736,127.131 135.736,127.65ZM96.002,127.65L96.002,129.828C96.002,130.347 96.424,130.768 96.943,130.768C97.462,130.768 97.883,130.347 97.883,129.828L97.883,127.65C97.883,127.131 97.462,126.709 96.943,126.709C96.424,126.709 96.002,127.131 96.002,127.65ZM100.15,127.65L100.15,129.828C100.15,130.347 100.571,130.768 101.09,130.768C101.609,130.768 102.031,130.347 102.031,129.828L102.031,127.65C102.031,127.131 101.609,126.709 101.09,126.709C100.571,126.709 100.15,127.131 100.15,127.65ZM87.707,127.65L87.707,129.828C87.707,130.347 88.128,130.768 88.647,130.768C89.166,130.768 89.588,130.347 89.588,129.828L89.588,127.65C89.588,127.131 89.166,126.709 88.647,126.709C88.128,126.709 87.707,127.131 87.707,127.65ZM54.989,125.113L53.091,128.897C52.833,129.412 53.042,130.039 53.556,130.298C54.071,130.556 54.699,130.347 54.957,129.833L56.855,126.049C57.113,125.534 56.905,124.906 56.39,124.648C55.875,124.39 55.247,124.598 54.989,125.113ZM50.88,125.113L48.982,128.897C48.724,129.412 48.933,130.039 49.447,130.298C49.962,130.556 50.59,130.347 50.848,129.833L52.746,126.049C53.004,125.534 52.796,124.906 52.281,124.648C51.766,124.39 51.138,124.598 50.88,125.113ZM81.432,115.222L73.668,128.711C73.381,129.21 73.553,129.849 74.052,130.136C74.551,130.423 75.19,130.251 75.477,129.752L83.241,116.263C83.528,115.764 83.356,115.126 82.857,114.838C82.358,114.551 81.72,114.723 81.432,115.222ZM108.69,117.311L123.342,129.798C123.781,130.172 124.441,130.12 124.816,129.681C125.19,129.242 125.137,128.581 124.698,128.207L110.046,115.72C109.607,115.345 108.947,115.398 108.573,115.837C108.198,116.276 108.251,116.937 108.69,117.311ZM140.743,119.786C141.381,119.786 141.9,120.304 141.9,120.943C141.9,121.581 141.381,122.1 140.743,122.1C140.104,122.1 139.586,121.581 139.586,120.943C139.586,120.304 140.104,119.786 140.743,119.786ZM96.874,119.786C97.513,119.786 98.031,120.304 98.031,120.943C98.031,121.581 97.513,122.1 96.874,122.1C96.236,122.1 95.718,121.581 95.718,120.943C95.718,120.304 96.236,119.786 96.874,119.786ZM128.299,119.786C128.937,119.786 129.456,120.304 129.456,120.943C129.456,121.581 128.937,122.1 128.299,122.1C127.66,122.1 127.142,121.581 127.142,120.943C127.142,120.304 127.66,119.786 128.299,119.786ZM84.43,119.786C85.069,119.786 85.587,120.304 85.587,120.943C85.587,121.581 85.069,122.1 84.43,122.1C83.792,122.1 83.274,121.581 83.274,120.943C83.274,120.304 83.792,119.786 84.43,119.786ZM88.578,119.786C89.217,119.786 89.735,120.304 89.735,120.943C89.735,121.581 89.217,122.1 88.578,122.1C87.94,122.1 87.422,121.581 87.422,120.943C87.422,120.304 87.94,119.786 88.578,119.786ZM101.022,119.786C101.661,119.786 102.179,120.304 102.179,120.943C102.179,121.581 101.661,122.1 101.022,122.1C100.384,122.1 99.866,121.581 99.866,120.943C99.866,120.304 100.384,119.786 101.022,119.786ZM92.726,119.786C93.365,119.786 93.883,120.304 93.883,120.943C93.883,121.581 93.365,122.1 92.726,122.1C92.088,122.1 91.57,121.581 91.57,120.943C91.57,120.304 92.088,119.786 92.726,119.786ZM132.447,119.786C133.085,119.786 133.604,120.304 133.604,120.943C133.604,121.581 133.085,122.1 132.447,122.1C131.808,122.1 131.29,121.581 131.29,120.943C131.29,120.304 131.808,119.786 132.447,119.786ZM136.595,119.786C137.233,119.786 137.752,120.304 137.752,120.943C137.752,121.581 137.233,122.1 136.595,122.1C135.956,122.1 135.438,121.581 135.438,120.943C135.438,120.304 135.956,119.786 136.595,119.786ZM105.17,119.786C105.809,119.786 106.327,120.304 106.327,120.943C106.327,121.581 105.809,122.1 105.17,122.1C104.532,122.1 104.014,121.581 104.014,120.943C104.014,120.304 104.532,119.786 105.17,119.786ZM143.661,116.097L143.661,118.275C143.661,118.794 144.082,119.216 144.601,119.216C145.12,119.216 145.542,118.794 145.542,118.275L145.542,116.097C145.542,115.578 145.12,115.157 144.601,115.157C144.082,115.157 143.661,115.578 143.661,116.097ZM149.518,118.625C154.039,115.491 158.56,115.299 163.08,118.609C163.546,118.95 164.2,118.849 164.541,118.383C164.881,117.918 164.78,117.264 164.315,116.923C158.986,113.022 153.657,113.214 148.328,116.907C147.854,117.236 147.736,117.887 148.064,118.361C148.393,118.835 149.044,118.953 149.518,118.625ZM111.528,104.99L111.528,107.169C111.528,107.688 111.949,108.109 112.468,108.109C112.987,108.109 113.409,107.688 113.409,107.169L113.409,104.99C113.409,104.471 112.987,104.05 112.468,104.05C111.949,104.05 111.528,104.471 111.528,104.99ZM115.676,104.99L115.676,107.169C115.676,107.688 116.097,108.109 116.616,108.109C117.135,108.109 117.557,107.688 117.557,107.169L117.557,104.99C117.557,104.471 117.135,104.05 116.616,104.05C116.097,104.05 115.676,104.471 115.676,104.99ZM90.789,104.99L90.789,107.169C90.789,107.688 91.211,108.109 91.73,108.109C92.249,108.109 92.67,107.688 92.67,107.169L92.67,104.99C92.67,104.471 92.249,104.05 91.73,104.05C91.211,104.05 90.789,104.471 90.789,104.99ZM128.119,104.99L128.119,107.169C128.119,107.688 128.54,108.109 129.059,108.109C129.578,108.109 130,107.688 130,107.169L130,104.99C130,104.471 129.578,104.05 129.059,104.05C128.54,104.05 128.119,104.471 128.119,104.99ZM143.661,104.99L143.661,107.169C143.661,107.688 144.082,108.109 144.601,108.109C145.12,108.109 145.542,107.688 145.542,107.169L145.542,104.99C145.542,104.471 145.12,104.05 144.601,104.05C144.082,104.05 143.661,104.471 143.661,104.99ZM135.236,104.99L135.236,107.169C135.236,107.688 135.658,108.109 136.177,108.109C136.696,108.109 137.117,107.688 137.117,107.169L137.117,104.99C137.117,104.471 136.696,104.05 136.177,104.05C135.658,104.05 135.236,104.471 135.236,104.99ZM107.38,104.99L107.38,107.169C107.38,107.688 107.802,108.109 108.321,108.109C108.84,108.109 109.261,107.688 109.261,107.169L109.261,104.99C109.261,104.471 108.84,104.05 108.321,104.05C107.802,104.05 107.38,104.471 107.38,104.99ZM94.937,104.99L94.937,107.169C94.937,107.688 95.358,108.109 95.877,108.109C96.396,108.109 96.818,107.688 96.818,107.169L96.818,104.99C96.818,104.471 96.396,104.05 95.877,104.05C95.358,104.05 94.937,104.471 94.937,104.99ZM139.448,104.99L139.448,107.169C139.448,107.688 139.87,108.109 140.389,108.109C140.908,108.109 141.329,107.688 141.329,107.169L141.329,104.99C141.329,104.471 140.908,104.05 140.389,104.05C139.87,104.05 139.448,104.471 139.448,104.99ZM119.823,104.99L119.823,107.169C119.823,107.688 120.245,108.109 120.764,108.109C121.283,108.109 121.704,107.688 121.704,107.169L121.704,104.99C121.704,104.471 121.283,104.05 120.764,104.05C120.245,104.05 119.823,104.471 119.823,104.99ZM99.085,104.99L99.085,107.169C99.085,107.688 99.506,108.109 100.025,108.109C100.544,108.109 100.966,107.688 100.966,107.169L100.966,104.99C100.966,104.471 100.544,104.05 100.025,104.05C99.506,104.05 99.085,104.471 99.085,104.99ZM103.232,104.99L103.232,107.169C103.232,107.688 103.654,108.109 104.173,108.109C104.692,108.109 105.113,107.688 105.113,107.169L105.113,104.99C105.113,104.471 104.692,104.05 104.173,104.05C103.654,104.05 103.232,104.471 103.232,104.99ZM123.971,104.99L123.971,107.169C123.971,107.688 124.392,108.109 124.912,108.109C125.431,108.109 125.852,107.688 125.852,107.169L125.852,104.99C125.852,104.471 125.431,104.05 124.912,104.05C124.392,104.05 123.971,104.471 123.971,104.99ZM88.778,106.416L88.778,98.276C88.778,97.663 88.28,97.165 87.666,97.165C87.052,97.165 86.554,97.663 86.554,98.276L86.554,106.416C86.554,107.029 87.052,107.527 87.666,107.527C88.28,107.527 88.778,107.029 88.778,106.416ZM153.636,97.623C156.405,99.522 159.647,102.398 161.432,104.37C161.857,104.84 162.584,104.877 163.054,104.451C163.524,104.026 163.56,103.299 163.135,102.829C161.257,100.754 157.848,97.726 154.935,95.729C154.413,95.37 153.697,95.504 153.339,96.026C152.98,96.549 153.114,97.264 153.636,97.623ZM91.635,97.127C92.274,97.127 92.792,97.645 92.792,98.284C92.792,98.922 92.274,99.44 91.635,99.44C90.997,99.44 90.479,98.922 90.479,98.284C90.479,97.645 90.997,97.127 91.635,97.127ZM104.079,97.127C104.718,97.127 105.236,97.645 105.236,98.284C105.236,98.922 104.718,99.44 104.079,99.44C103.441,99.44 102.923,98.922 102.923,98.284C102.923,97.645 103.441,97.127 104.079,97.127ZM116.524,97.127C117.162,97.127 117.68,97.645 117.68,98.284C117.68,98.922 117.162,99.44 116.524,99.44C115.885,99.44 115.367,98.922 115.367,98.284C115.367,97.645 115.885,97.127 116.524,97.127ZM144.529,97.127C145.167,97.127 145.685,97.645 145.685,98.284C145.685,98.922 145.167,99.44 144.529,99.44C143.89,99.44 143.372,98.922 143.372,98.284C143.372,97.645 143.89,97.127 144.529,97.127ZM140.316,97.127C140.955,97.127 141.473,97.645 141.473,98.284C141.473,98.922 140.955,99.44 140.316,99.44C139.678,99.44 139.16,98.922 139.16,98.284C139.16,97.645 139.678,97.127 140.316,97.127ZM99.931,97.127C100.57,97.127 101.088,97.645 101.088,98.284C101.088,98.922 100.57,99.44 99.931,99.44C99.293,99.44 98.775,98.922 98.775,98.284C98.775,97.645 99.293,97.127 99.931,97.127ZM112.376,97.127C113.014,97.127 113.532,97.645 113.532,98.284C113.532,98.922 113.014,99.44 112.376,99.44C111.737,99.44 111.219,98.922 111.219,98.284C111.219,97.645 111.737,97.127 112.376,97.127ZM120.672,97.127C121.31,97.127 121.828,97.645 121.828,98.284C121.828,98.922 121.31,99.44 120.672,99.44C120.033,99.44 119.515,98.922 119.515,98.284C119.515,97.645 120.033,97.127 120.672,97.127ZM108.227,97.127C108.866,97.127 109.384,97.645 109.384,98.284C109.384,98.922 108.866,99.44 108.227,99.44C107.589,99.44 107.071,98.922 107.071,98.284C107.071,97.645 107.589,97.127 108.227,97.127ZM136.104,97.127C136.742,97.127 137.261,97.645 137.261,98.284C137.261,98.922 136.742,99.44 136.104,99.44C135.466,99.44 134.947,98.922 134.947,98.284C134.947,97.645 135.466,97.127 136.104,97.127ZM95.783,97.127C96.422,97.127 96.94,97.645 96.94,98.284C96.94,98.922 96.422,99.44 95.783,99.44C95.145,99.44 94.627,98.922 94.627,98.284C94.627,97.645 95.145,97.127 95.783,97.127ZM128.987,97.127C129.625,97.127 130.143,97.645 130.143,98.284C130.143,98.922 129.625,99.44 128.987,99.44C128.348,99.44 127.83,98.922 127.83,98.284C127.83,97.645 128.348,97.127 128.987,97.127ZM124.82,97.127C125.458,97.127 125.976,97.645 125.976,98.284C125.976,98.922 125.458,99.44 124.82,99.44C124.181,99.44 123.663,98.922 123.663,98.284C123.663,97.645 124.181,97.127 124.82,97.127ZM88.777,94.443L88.777,93.787C88.777,93.174 88.279,92.676 87.666,92.676C87.053,92.676 86.555,93.174 86.555,93.787L86.555,94.443C86.555,95.057 87.053,95.555 87.666,95.555C88.279,95.555 88.777,95.057 88.777,94.443ZM132.14,89.353C130.716,89.353 129.553,90.522 129.553,91.969C129.553,93.417 130.716,94.586 132.14,94.586C133.563,94.586 134.726,93.417 134.726,91.969C134.726,90.522 133.563,89.353 132.14,89.353ZM148.532,89.353C147.108,89.353 145.945,90.522 145.945,91.969C145.945,93.417 147.108,94.586 148.532,94.586C149.955,94.586 151.118,93.417 151.118,91.969C151.118,90.522 149.955,89.353 148.532,89.353ZM132.14,91.017C132.653,91.017 133.062,91.447 133.062,91.969C133.062,92.492 132.653,92.922 132.14,92.922C131.626,92.922 131.217,92.492 131.217,91.969C131.217,91.447 131.626,91.017 132.14,91.017ZM148.532,91.017C149.045,91.017 149.454,91.447 149.454,91.969C149.454,92.492 149.045,92.922 148.532,92.922C148.018,92.922 147.609,92.492 147.609,91.969C147.609,91.447 148.018,91.017 148.532,91.017ZM95.728,82.767L95.728,84.945C95.728,85.464 96.149,85.886 96.668,85.886C97.187,85.886 97.609,85.464 97.609,84.945L97.609,82.767C97.609,82.248 97.187,81.827 96.668,81.827C96.149,81.827 95.728,82.248 95.728,82.767ZM112.319,82.767L112.319,84.945C112.319,85.464 112.74,85.886 113.259,85.886C113.778,85.886 114.2,85.464 114.2,84.945L114.2,82.767C114.2,82.248 113.778,81.827 113.259,81.827C112.74,81.827 112.319,82.248 112.319,82.767ZM124.762,82.767L124.762,84.945C124.762,85.464 125.183,85.886 125.702,85.886C126.221,85.886 126.643,85.464 126.643,84.945L126.643,82.767C126.643,82.248 126.221,81.827 125.702,81.827C125.183,81.827 124.762,82.248 124.762,82.767ZM108.171,82.767L108.171,84.945C108.171,85.464 108.592,85.886 109.111,85.886C109.63,85.886 110.052,85.464 110.052,84.945L110.052,82.767C110.052,82.248 109.63,81.827 109.111,81.827C108.592,81.827 108.171,82.248 108.171,82.767ZM104.023,82.767L104.023,84.945C104.023,85.464 104.445,85.886 104.964,85.886C105.483,85.886 105.904,85.464 105.904,84.945L105.904,82.767C105.904,82.248 105.483,81.827 104.964,81.827C104.445,81.827 104.023,82.248 104.023,82.767ZM116.466,82.767L116.466,84.945C116.466,85.464 116.888,85.886 117.407,85.886C117.926,85.886 118.347,85.464 118.347,84.945L118.347,82.767C118.347,82.248 117.926,81.827 117.407,81.827C116.888,81.827 116.466,82.248 116.466,82.767ZM128.91,82.767L128.91,84.945C128.91,85.464 129.331,85.886 129.85,85.886C130.369,85.886 130.791,85.464 130.791,84.945L130.791,82.767C130.791,82.248 130.369,81.827 129.85,81.827C129.331,81.827 128.91,82.248 128.91,82.767ZM133.057,82.767L133.057,84.945C133.057,85.464 133.479,85.886 133.998,85.886C134.517,85.886 134.938,85.464 134.938,84.945L134.938,82.767C134.938,82.248 134.517,81.827 133.998,81.827C133.479,81.827 133.057,82.248 133.057,82.767ZM99.876,82.767L99.876,84.945C99.876,85.464 100.297,85.886 100.816,85.886C101.335,85.886 101.756,85.464 101.756,84.945L101.756,82.767C101.756,82.248 101.335,81.827 100.816,81.827C100.297,81.827 99.876,82.248 99.876,82.767ZM120.614,82.767L120.614,84.945C120.614,85.464 121.036,85.886 121.555,85.886C122.074,85.886 122.495,85.464 122.495,84.945L122.495,82.767C122.495,82.248 122.074,81.827 121.555,81.827C121.036,81.827 120.614,82.248 120.614,82.767ZM158.256,70.644C157.656,76.717 155.897,80.385 150.956,83.578C150.423,83.922 150.27,84.635 150.614,85.169C150.959,85.702 151.672,85.855 152.205,85.511C157.811,81.889 159.866,77.761 160.547,70.871C160.609,70.239 160.147,69.675 159.515,69.612C158.883,69.55 158.319,70.012 158.256,70.644ZM79.515,68.947C75.822,74.276 75.629,79.605 79.531,84.934C79.872,85.399 80.526,85.5 80.991,85.16C81.457,84.819 81.558,84.165 81.217,83.699C77.907,79.179 78.099,74.658 81.233,70.137C81.561,69.663 81.443,69.012 80.969,68.683C80.495,68.355 79.844,68.473 79.515,68.947ZM163.468,70.137C166.602,74.658 166.794,79.179 163.484,83.699C163.144,84.165 163.245,84.819 163.71,85.16C164.175,85.5 164.83,85.399 165.17,84.934C169.072,79.605 168.88,74.276 165.186,68.947C164.857,68.473 164.206,68.355 163.732,68.683C163.258,69.012 163.14,69.663 163.468,70.137ZM88.404,78.41L88.404,83.149C88.404,83.473 88.494,83.711 88.641,83.873C88.797,84.045 89.026,84.146 89.339,84.146C89.651,84.146 89.88,84.045 90.036,83.873C90.184,83.711 90.273,83.473 90.273,83.149L90.273,78.41L95.055,72.218C95.059,72.212 95.063,72.206 95.067,72.2C95.238,71.945 95.304,71.706 95.29,71.493C95.275,71.259 95.167,71.044 94.948,70.857C94.941,70.851 94.934,70.845 94.927,70.84C94.707,70.683 94.485,70.629 94.265,70.66C94.063,70.689 93.855,70.795 93.653,70.997C93.643,71.008 93.633,71.019 93.624,71.03L89.339,76.725L85.053,71.03C85.044,71.019 85.034,71.008 85.024,70.997C84.822,70.795 84.614,70.689 84.412,70.66C84.192,70.629 83.97,70.683 83.75,70.84C83.743,70.845 83.736,70.851 83.729,70.857C83.51,71.044 83.402,71.259 83.387,71.493C83.373,71.706 83.439,71.945 83.61,72.2C83.614,72.206 83.618,72.212 83.622,72.218L88.404,78.41ZM137.838,74.963C140.607,76.861 143.849,79.738 145.634,81.71C146.059,82.18 146.786,82.217 147.256,81.791C147.726,81.366 147.762,80.639 147.337,80.169C145.459,78.094 142.05,75.066 139.137,73.069C138.615,72.71 137.899,72.843 137.541,73.366C137.182,73.889 137.316,74.604 137.838,74.963ZM109.037,74.898C109.675,74.898 110.194,75.416 110.194,76.055C110.194,76.693 109.675,77.211 109.037,77.211C108.399,77.211 107.88,76.693 107.88,76.055C107.88,75.416 108.399,74.898 109.037,74.898ZM100.741,74.898C101.379,74.898 101.898,75.416 101.898,76.055C101.898,76.693 101.379,77.211 100.741,77.211C100.103,77.211 99.584,76.693 99.584,76.055C99.584,75.416 100.103,74.898 100.741,74.898ZM96.593,74.898C97.231,74.898 97.75,75.416 97.75,76.055C97.75,76.693 97.231,77.211 96.593,77.211C95.955,77.211 95.436,76.693 95.436,76.055C95.436,75.416 95.955,74.898 96.593,74.898ZM113.185,74.898C113.823,74.898 114.342,75.416 114.342,76.055C114.342,76.693 113.823,77.211 113.185,77.211C112.547,77.211 112.028,76.693 112.028,76.055C112.028,75.416 112.547,74.898 113.185,74.898ZM125.629,74.898C126.268,74.898 126.786,75.416 126.786,76.055C126.786,76.693 126.268,77.211 125.629,77.211C124.991,77.211 124.472,76.693 124.472,76.055C124.472,75.416 124.991,74.898 125.629,74.898ZM129.777,74.898C130.416,74.898 130.934,75.416 130.934,76.055C130.934,76.693 130.416,77.211 129.777,77.211C129.139,77.211 128.62,76.693 128.62,76.055C128.62,75.416 129.139,74.898 129.777,74.898ZM117.333,74.898C117.972,74.898 118.49,75.416 118.49,76.055C118.49,76.693 117.972,77.211 117.333,77.211C116.695,77.211 116.176,76.693 116.176,76.055C116.176,75.416 116.695,74.898 117.333,74.898ZM133.925,74.898C134.564,74.898 135.082,75.416 135.082,76.055C135.082,76.693 134.564,77.211 133.925,77.211C133.287,77.211 132.768,76.693 132.768,76.055C132.768,75.416 133.287,74.898 133.925,74.898ZM121.481,74.898C122.12,74.898 122.638,75.416 122.638,76.055C122.638,76.693 122.12,77.211 121.481,77.211C120.843,77.211 120.324,76.693 120.324,76.055C120.324,75.416 120.843,74.898 121.481,74.898ZM104.889,74.898C105.527,74.898 106.046,75.416 106.046,76.055C106.046,76.693 105.527,77.211 104.889,77.211C104.251,77.211 103.732,76.693 103.732,76.055C103.732,75.416 104.251,74.898 104.889,74.898ZM116.83,59.89L116.83,62.068C116.83,62.587 117.251,63.009 117.77,63.009C118.289,63.009 118.71,62.587 118.71,62.068L118.71,59.89C118.71,59.371 118.289,58.95 117.77,58.95C117.251,58.95 116.83,59.371 116.83,59.89ZM120.977,59.89L120.977,62.068C120.977,62.587 121.399,63.009 121.918,63.009C122.437,63.009 122.858,62.587 122.858,62.068L122.858,59.89C122.858,59.371 122.437,58.95 121.918,58.95C121.399,58.95 120.977,59.371 120.977,59.89ZM112.682,59.89L112.682,62.068C112.682,62.587 113.103,63.009 113.622,63.009C114.141,63.009 114.563,62.587 114.563,62.068L114.563,59.89C114.563,59.371 114.141,58.95 113.622,58.95C113.103,58.95 112.682,59.371 112.682,59.89ZM102.145,47.766L102.144,47.766C98.817,47.766 96.074,50.658 96.074,54.277L96.074,61.054C96.074,61.63 96.542,62.098 97.118,62.098C97.694,62.098 98.162,61.63 98.162,61.054L98.162,54.277C98.162,51.857 99.919,49.853 102.144,49.853L102.145,49.853C104.21,49.853 105.837,51.715 105.837,53.96L105.837,61.054C105.837,61.63 106.305,62.098 106.881,62.098C107.457,62.098 107.925,61.63 107.925,61.054L107.925,53.96C107.925,50.516 105.312,47.766 102.145,47.766ZM133.648,47.766L133.647,47.766C130.319,47.766 127.577,50.658 127.577,54.277L127.577,61.054C127.577,61.63 128.045,62.098 128.621,62.098C129.197,62.098 129.664,61.63 129.664,61.054L129.664,54.277C129.664,51.857 131.422,49.853 133.647,49.853L133.648,49.853C135.712,49.853 137.34,51.715 137.34,53.96L137.34,61.054C137.34,61.63 137.807,62.098 138.383,62.098C138.959,62.098 139.427,61.63 139.427,61.054L139.427,53.96C139.427,50.516 136.815,47.766 133.648,47.766ZM117.697,52.028C118.336,52.028 118.854,52.546 118.854,53.185C118.854,53.823 118.336,54.341 117.697,54.341C117.059,54.341 116.541,53.823 116.541,53.185C116.541,52.546 117.059,52.028 117.697,52.028ZM121.845,52.028C122.484,52.028 123.002,52.546 123.002,53.185C123.002,53.823 122.484,54.341 121.845,54.341C121.207,54.341 120.688,53.823 120.688,53.185C120.688,52.546 121.207,52.028 121.845,52.028ZM113.55,52.028C114.188,52.028 114.706,52.546 114.706,53.185C114.706,53.823 114.188,54.341 113.55,54.341C112.911,54.341 112.393,53.823 112.393,53.185C112.393,52.546 112.911,52.028 113.55,52.028Z"/>
    </g>
</svg>
