<?xml version="1.0" encoding="UTF-8" standalone="no"?>
<!DOCTYPE svg PUBLIC "-//W3C//DTD SVG 1.1//EN" "http://www.w3.org/Graphics/SVG/1.1/DTD/svg11.dtd">
<svg width="52px" height="68px" version="1.1" xmlns="http://www.w3.org/2000/svg" xmlns:xlink="http://www.w3.org/1999/xlink" xml:space="preserve" xmlns:serif="http://www.serif.com/" style="fill-rule:evenodd;clip-rule:evenodd;stroke-linejoin:round;stroke-miterlimit:2;">
    <g transform="matrix(-0.547861,0,0,0.547861,61.1946,-298.851)">
        <path d="M79.349,546.497C83.565,546.388 87.582,548.286 90.175,551.611C94.862,557.619 101.87,566.604 101.87,566.604C105.271,572.055 105.468,580.952 105.468,580.952C105.468,580.952 109.543,583.525 109.779,585.821C111.742,604.907 107.382,611.249 101.87,618.238C97.456,621.197 92.288,625.682 89.441,628.755C84.855,634.056 84.096,638.81 86.612,643.096C91.746,650.501 92.034,657.907 86.612,665.312C85.176,666.88 83.487,667.771 81.532,667.954L64.584,667.954C63.384,668.248 60.598,667.448 59.495,665.312C59.023,667.191 57.002,667.89 55.544,667.954L38.596,667.954C36.361,667.862 34.981,666.845 34.076,665.312C28.654,657.907 28.943,650.501 34.076,643.096C36.18,639.383 35.915,635.552 32.607,631.569C28.041,627.708 26.184,622.53 25.461,613.935C27.665,610.691 27.134,606.39 22.777,602.037C17.355,594.632 17.644,587.227 22.777,579.822C26.153,573.745 31.061,568.216 37.466,563.221C39.864,560.632 49.385,553.034 54.966,548.934C56.697,547.714 58.75,547.035 60.866,546.98C65.348,546.856 73.528,546.646 79.349,546.497Z" style="fill:white;"/>
    </g>
    <g transform="matrix(0.619026,0,0,0.619026,-42.2564,-67.2925)">
        <path d="M94.96,218.557L109.96,218.557C110.768,218.557 111.424,217.901 111.424,217.094C111.424,216.286 110.768,215.63 109.96,215.63L94.96,215.63C94.152,215.63 93.496,216.286 93.496,217.094C93.496,217.901 94.152,218.557 94.96,218.557ZM117.96,218.557L132.96,218.557C133.768,218.557 134.424,217.901 134.424,217.094C134.424,216.286 133.768,215.63 132.96,215.63L117.96,215.63C117.152,215.63 116.496,216.286 116.496,217.094C116.496,217.901 117.152,218.557 117.96,218.557ZM89.263,194.262C84.329,201.381 84.073,208.499 89.285,215.618C89.761,216.269 90.676,216.41 91.327,215.934C91.977,215.458 92.118,214.543 91.642,213.893C87.257,207.904 87.513,201.915 91.664,195.926C92.123,195.263 91.958,194.353 91.296,193.893C90.633,193.434 89.723,193.599 89.263,194.262ZM113.263,194.262C108.329,201.381 108.073,208.499 113.285,215.618C113.761,216.269 114.676,216.41 115.327,215.934C115.977,215.458 116.118,214.543 115.642,213.893C111.257,207.904 111.513,201.915 115.664,195.926C116.123,195.263 115.958,194.353 115.296,193.893C114.633,193.434 113.723,193.599 113.263,194.262ZM135.76,195.926C139.911,201.915 140.166,207.904 135.782,213.893C135.306,214.543 135.447,215.458 136.097,215.934C136.748,216.41 137.662,216.269 138.139,215.618C143.351,208.499 143.095,201.381 138.161,194.262C137.701,193.599 136.791,193.434 136.128,193.893C135.466,194.353 135.301,195.263 135.76,195.926ZM143.335,169.18C142.731,176.355 141.262,180.711 137.45,183.933C136.921,184.38 136.854,185.173 137.302,185.702C137.749,186.23 138.541,186.297 139.07,185.85C143.341,182.239 145.159,177.429 145.835,169.39C145.893,168.7 145.38,168.093 144.69,168.035C144,167.977 143.393,168.49 143.335,169.18ZM128.96,181.707L120.62,181.707C119.221,181.707 117.88,181.151 116.892,180.162L116.891,180.162C115.901,179.173 115.346,177.832 115.346,176.434L115.346,176.432C115.346,173.697 117.563,171.48 120.297,171.48L128.96,171.48C129.725,171.48 130.346,170.859 130.346,170.093C130.346,169.328 129.725,168.707 128.96,168.707L120.297,168.707C116.032,168.707 112.573,172.166 112.573,176.432L112.573,176.434C112.573,178.567 113.42,180.614 114.931,182.123C116.439,183.632 118.486,184.48 120.62,184.48L128.96,184.48C129.725,184.48 130.346,183.859 130.346,183.093C130.346,182.328 129.725,181.707 128.96,181.707ZM76.187,174.246C80.006,176.806 84.479,180.685 86.941,183.344C87.462,183.906 88.34,183.94 88.902,183.419C89.464,182.899 89.498,182.02 88.978,181.458C86.402,178.677 81.726,174.618 77.732,171.941C77.096,171.514 76.233,171.685 75.807,172.321C75.38,172.957 75.551,173.82 76.187,174.246ZM130.938,160.647L131.115,160.647C131.423,160.633 131.688,160.511 131.907,160.28C132.131,160.044 132.246,159.759 132.246,159.422L132.246,156.44C132.246,156.11 132.136,155.824 131.916,155.582C131.68,155.322 131.391,155.195 131.053,155.195L130.74,155.195L130.74,143.764C130.74,143.427 130.625,143.142 130.401,142.907C130.167,142.66 129.881,142.538 129.547,142.538L123.22,142.538C122.879,142.538 122.594,142.664 122.366,142.916C122.155,143.149 122.045,143.431 122.045,143.764L122.045,144.379C122.045,146.262 122.033,147.69 122.01,148.663C121.986,149.633 121.954,150.523 121.913,151.332C121.874,152.088 121.796,152.675 121.67,153.091C121.544,153.507 121.407,153.869 121.259,154.175C121.126,154.45 120.93,154.789 120.672,155.195L120.598,155.195C120.26,155.195 119.971,155.321 119.735,155.582C119.515,155.824 119.405,156.11 119.405,156.44L119.405,159.422C119.405,159.759 119.519,160.045 119.744,160.28C119.963,160.511 120.228,160.633 120.536,160.647L120.713,160.647C121.021,160.633 121.285,160.511 121.505,160.28C121.729,160.045 121.844,159.759 121.844,159.422L121.844,157.591L129.807,157.591L129.807,159.422C129.807,159.759 129.922,160.044 130.146,160.28C130.365,160.511 130.63,160.633 130.938,160.647ZM145.76,139.926C149.911,145.914 150.166,151.903 145.782,157.892C145.306,158.543 145.447,159.457 146.097,159.934C146.748,160.41 147.662,160.268 148.139,159.618C153.351,152.499 153.095,145.38 148.161,138.261C147.701,137.599 146.791,137.434 146.128,137.893C145.466,138.352 145.301,139.263 145.76,139.926ZM91.047,155.727C91.673,156.63 91.725,157.534 91.063,158.437C90.701,158.932 90.809,159.628 91.304,159.99C91.798,160.353 92.495,160.245 92.857,159.75C94.148,157.987 94.096,156.224 92.874,154.46C92.524,153.956 91.831,153.831 91.327,154.18C90.823,154.53 90.697,155.223 91.047,155.727ZM95.047,155.727C95.673,156.63 95.725,157.534 95.063,158.437C94.701,158.932 94.809,159.628 95.304,159.99C95.798,160.353 96.495,160.245 96.857,159.75C98.148,157.987 98.096,156.224 96.874,154.46C96.524,153.956 95.831,153.831 95.327,154.18C94.823,154.53 94.697,155.223 95.047,155.727ZM71.346,155.094L71.346,146.753C71.346,145.355 71.902,144.014 72.891,143.025L72.892,143.025C73.881,142.035 75.222,141.48 76.62,141.48L76.622,141.48C79.356,141.48 81.573,143.697 81.573,146.431L81.573,155.093C81.573,155.859 82.195,156.48 82.96,156.48C83.725,156.48 84.346,155.859 84.346,155.094L84.346,146.431C84.346,142.165 80.888,138.707 76.622,138.707L76.62,138.707C74.486,138.707 72.439,139.554 70.93,141.064C69.421,142.573 68.573,144.62 68.573,146.753L68.573,155.093C68.573,155.859 69.195,156.48 69.96,156.48C70.725,156.48 71.346,155.859 71.346,155.094ZM120.881,155.199L120.881,155.195C120.871,155.195 120.862,155.195 120.852,155.196L120.881,155.199ZM123.58,155.195C124.012,154.275 124.276,153.364 124.375,152.465C124.49,151.421 124.551,148.911 124.555,144.935L128.176,144.935L128.176,155.195L123.58,155.195ZM106.278,145.094C107.557,145.094 108.595,146.132 108.595,147.411C108.595,148.69 107.557,149.729 106.278,149.729C104.999,149.729 103.96,148.69 103.96,147.411C103.96,146.132 104.999,145.094 106.278,145.094ZM141.277,145.094C142.556,145.094 143.595,146.132 143.595,147.411C143.595,148.69 142.556,149.729 141.277,149.729C139.998,149.729 138.96,148.69 138.96,147.411C138.96,146.132 139.998,145.094 141.277,145.094ZM90.096,109.395L75.097,127.932C74.711,128.408 74.785,129.108 75.261,129.494C75.738,129.88 76.438,129.806 76.823,129.329L91.823,110.792C92.209,110.316 92.135,109.616 91.658,109.23C91.182,108.844 90.482,108.918 90.096,109.395ZM116.347,110.094C116.347,109.328 115.726,108.707 114.96,108.707L97.96,108.707C97.194,108.707 96.574,109.328 96.574,110.094L96.574,127.094C96.574,127.86 97.194,128.481 97.96,128.481L114.96,128.481C115.726,128.481 116.347,127.86 116.347,127.094L116.347,110.094ZM122.187,116.246C126.006,118.806 130.479,122.685 132.941,125.344C133.462,125.906 134.34,125.94 134.902,125.419C135.464,124.899 135.498,124.02 134.978,123.458C132.402,120.677 127.726,116.618 123.732,113.941C123.096,113.514 122.233,113.685 121.807,114.321C121.38,114.957 121.551,115.82 122.187,116.246Z"/>
    </g>
</svg>
