<?xml version="1.0" encoding="UTF-8" standalone="no"?>
<svg xmlns:ffdec="https://www.free-decompiler.com/flash" xmlns:xlink="http://www.w3.org/1999/xlink" ffdec:objectType="shape" height="55.4px" width="92.65px" xmlns="http://www.w3.org/2000/svg">
  <g transform="matrix(1.0, 0.0, 0.0, 1.0, 42.1, 55.75)">
    <path d="M4.2 -37.35 Q-3.1 -39.85 -3.45 -47.5 -3.65 -52.3 0.15 -54.9 1.05 -55.5 2.3 -55.65 7.8 -56.45 9.15 -50.75 9.85 -47.95 8.95 -45.15 L8.6 -44.2 Q8.2 -39.2 4.2 -37.35 M20.15 -33.1 Q15.2 -34.3 14.2 -39.9 L14.1 -41.7 Q14.25 -49.45 21.7 -51.3 27.4 -52.75 31.5 -48.25 36.2 -43.15 32.85 -36.3 31.55 -35.55 30.3 -35.15 26.15 -32.65 20.15 -33.1 M18.15 -8.05 L19.95 -7.95 22.65 -1.9 19.95 -7.95 18.15 -8.05 11.2 -8.25 Q10.6 4.95 3.55 -6.4 3.05 -7.25 3.0 -8.3 L3.0 -8.35 3.0 -8.3 Q3.0 -3.1 -1.75 -0.9 L-3.0 -0.45 -4.3 -1.4 Q-4.7 -5.45 -2.5 -8.95 L3.0 -8.35 11.2 -8.25 3.0 -8.35 -2.5 -8.95 Q-20.2 -3.7 -36.35 -10.75 -39.55 -12.2 -41.9 -14.65 L-41.4 -17.2 -41.45 -17.25 -40.7 -20.7 -40.4 -33.0 -42.1 -35.45 -41.9 -37.6 Q-44.3 -49.75 -16.5 -40.75 11.25 -31.8 24.75 -29.8 33.4 -28.2 35.9 -19.95 43.8 -20.8 50.55 -25.15 L50.5 -24.1 Q48.15 -12.95 35.15 -13.05 L35.9 -19.95 35.15 -13.05 Q35.0 -10.95 32.95 -9.6 30.85 -8.3 28.05 -8.55 33.05 2.35 23.45 -1.2 L22.65 -1.9 Q16.85 2.05 17.8 -6.75 L18.15 -8.05 M1.65 -21.8 Q2.5 -20.75 1.05 -19.75 L-2.95 -17.45 -7.05 -23.2 -7.85 -22.15 Q-9.8 -19.95 -10.15 -16.85 L-10.2 -16.85 Q-13.15 -19.85 -15.45 -23.85 -17.05 -23.6 -18.55 -21.4 -20.7 -18.25 -23.0 -16.65 L-25.0 -21.55 Q-26.1 -24.6 -27.65 -26.9 L-29.4 -24.35 Q-31.25 -21.95 -31.7 -19.05 -31.9 -18.1 -32.25 -17.4 L-34.1 -17.55 -36.1 -21.9 Q-38.75 -27.15 -40.4 -32.95 -32.3 -27.2 -2.85 -23.55 0.75 -22.9 1.65 -21.8 0.75 -22.9 -2.85 -23.55 -32.3 -27.2 -40.4 -32.95 -38.75 -27.15 -36.1 -21.9 L-34.1 -17.55 -32.25 -17.4 Q-31.9 -18.1 -31.7 -19.05 -31.25 -21.95 -29.4 -24.35 L-27.65 -26.9 Q-26.1 -24.6 -25.0 -21.55 L-23.0 -16.65 Q-20.7 -18.25 -18.55 -21.4 -17.05 -23.6 -15.45 -23.85 -13.15 -19.85 -10.2 -16.85 L-10.15 -16.85 Q-9.8 -19.95 -7.85 -22.15 L-7.05 -23.2 -2.95 -17.45 1.05 -19.75 Q2.5 -20.75 1.65 -21.8 M4.9 -46.15 Q6.35 -45.85 6.6 -47.2 7.2 -49.85 4.4 -49.75 3.6 -49.8 3.15 -49.15 0.55 -45.5 3.3 -42.05 3.9 -41.3 4.85 -41.45 7.5 -41.85 8.6 -44.2 7.5 -41.85 4.85 -41.45 3.9 -41.3 3.3 -42.05 0.55 -45.5 3.15 -49.15 3.6 -49.8 4.4 -49.75 7.2 -49.85 6.6 -47.2 6.35 -45.85 4.9 -46.15 M23.25 -39.55 Q24.65 -38.45 26.3 -39.05 28.45 -39.85 27.75 -42.8 27.3 -44.5 25.9 -45.05 21.3 -46.85 19.9 -41.95 19.15 -39.65 20.35 -37.65 21.4 -35.9 22.7 -35.4 L30.3 -35.15 22.7 -35.4 Q21.4 -35.9 20.35 -37.65 19.15 -39.65 19.9 -41.95 21.3 -46.85 25.9 -45.05 27.3 -44.5 27.75 -42.8 28.45 -39.85 26.3 -39.05 24.65 -38.45 23.25 -39.55 M19.95 -7.95 L21.65 -7.8 28.05 -8.55 21.65 -7.8 19.95 -7.95 M-40.4 -32.95 L-40.4 -33.0 -40.4 -32.95 M-41.0 -18.95 L-40.7 -20.7 -41.0 -18.95 -41.4 -17.2 -41.4 -16.95 -41.2 -18.1 -41.0 -18.95 M-3.65 -17.4 L-2.95 -17.45 -3.65 -17.4 -10.15 -16.85 -10.15 -16.8 -10.2 -16.85 -17.45 -16.25 -23.0 -16.65 -32.25 -17.4 Q-32.55 -16.85 -33.0 -16.45 -33.35 -17.4 -34.1 -17.55 L-41.2 -18.1 -34.1 -17.55 Q-33.35 -17.4 -33.0 -16.45 -32.55 -16.85 -32.25 -17.4 L-23.0 -16.65 -17.45 -16.25 -10.2 -16.85 -10.15 -16.8 -10.15 -16.85 -3.65 -17.4 -2.95 -17.45 -3.65 -17.4" fill="#ffffff" fill-rule="evenodd" stroke="none"/>
    <path d="M3.0 -8.35 L3.0 -8.3" fill="none" stroke="#000000" stroke-linecap="round" stroke-linejoin="round" stroke-width="1.0"/>
    <path d="M4.2 -37.35 Q-3.1 -39.85 -3.45 -47.5 -3.65 -52.3 0.15 -54.9 1.05 -55.5 2.3 -55.65 7.8 -56.45 9.15 -50.75 9.85 -47.95 8.95 -45.15 L8.6 -44.2 Q7.5 -41.85 4.85 -41.45 3.9 -41.3 3.3 -42.05 0.55 -45.5 3.15 -49.15 3.6 -49.8 4.4 -49.75 7.2 -49.85 6.6 -47.2 6.35 -45.85 4.9 -46.15 M20.15 -33.1 Q15.2 -34.3 14.2 -39.9 L14.1 -41.7 Q14.25 -49.45 21.7 -51.3 27.4 -52.75 31.5 -48.25 36.2 -43.15 32.85 -36.3 31.55 -35.55 30.3 -35.15 L22.7 -35.4 Q21.4 -35.9 20.35 -37.65 19.15 -39.65 19.9 -41.95 21.3 -46.85 25.9 -45.05 27.3 -44.5 27.75 -42.8 28.45 -39.85 26.3 -39.05 24.65 -38.45 23.25 -39.55 M1.65 -21.8 Q0.75 -22.9 -2.85 -23.55 -32.3 -27.2 -40.4 -32.95 -38.75 -27.15 -36.1 -21.9 L-34.1 -17.55 -32.25 -17.4 Q-31.9 -18.1 -31.7 -19.05 -31.25 -21.95 -29.4 -24.35 L-27.65 -26.9 Q-26.1 -24.6 -25.0 -21.55 L-23.0 -16.65 Q-20.7 -18.25 -18.55 -21.4 -17.05 -23.6 -15.45 -23.85 -13.15 -19.85 -10.2 -16.85 L-10.15 -16.85 Q-9.8 -19.95 -7.85 -22.15 L-7.05 -23.2 -2.95 -17.45 1.05 -19.75 Q2.5 -20.75 1.65 -21.8 M22.65 -1.9 L19.95 -7.95 18.15 -8.05 17.8 -6.75 Q16.85 2.05 22.65 -1.9 L23.45 -1.2 Q33.05 2.35 28.05 -8.55 L21.65 -7.8 19.95 -7.95 M3.0 -8.3 Q3.05 -7.25 3.55 -6.4 10.6 4.95 11.2 -8.25 L3.0 -8.35 -2.5 -8.95 Q-4.7 -5.45 -4.3 -1.4 L-3.0 -0.45 -1.75 -0.9 Q3.0 -3.1 3.0 -8.3 M18.15 -8.05 L11.2 -8.25 M35.9 -19.95 L35.15 -13.05 Q48.15 -12.95 50.5 -24.1 L50.55 -25.15 Q43.8 -20.8 35.9 -19.95 33.4 -28.2 24.75 -29.8 11.25 -31.8 -16.5 -40.75 -44.3 -49.75 -41.9 -37.6 L-42.1 -35.45 -40.4 -33.0 -40.4 -32.95 M35.15 -13.05 Q35.0 -10.95 32.95 -9.6 30.85 -8.3 28.05 -8.55 M-41.45 -17.25 L-40.7 -20.7 -40.4 -33.0 M-2.5 -8.95 Q-20.2 -3.7 -36.35 -10.75 -39.55 -12.2 -41.9 -14.65 L-41.4 -17.2 -41.0 -18.95 -41.2 -18.1 -34.1 -17.55 Q-33.35 -17.4 -33.0 -16.45 -32.55 -16.85 -32.25 -17.4 L-23.0 -16.65 -17.45 -16.25 -10.2 -16.85 -10.15 -16.8 -10.15 -16.85 -3.65 -17.4 -2.95 -17.45 -3.65 -17.4 M-40.7 -20.7 L-41.0 -18.95 M-41.2 -18.1 L-41.4 -16.95 -41.4 -17.2" fill="none" stroke="#000000" stroke-linecap="round" stroke-linejoin="round" stroke-width="0.05"/>
  </g>
</svg>
