<?xml version="1.0" encoding="UTF-8" standalone="no"?>
<!DOCTYPE svg PUBLIC "-//W3C//DTD SVG 1.1//EN" "http://www.w3.org/Graphics/SVG/1.1/DTD/svg11.dtd">
<svg width="82px" height="75px" version="1.1" xmlns="http://www.w3.org/2000/svg" xmlns:xlink="http://www.w3.org/1999/xlink" xml:space="preserve" xmlns:serif="http://www.serif.com/" style="fill-rule:evenodd;clip-rule:evenodd;stroke-linejoin:round;stroke-miterlimit:2;">
    <g transform="matrix(0.625779,0,0,0.625779,-27.8284,-62.1126)">
        <path d="M151.357,151.261C146.202,157.886 135.919,162.783 125.368,162.33C125.481,170.77 123.509,176.96 116.951,181.763C113.939,184.693 116.015,187.449 119.337,194.082C124.592,201.662 124.887,209.242 119.337,216.822C118.037,217.864 115.995,218.238 113.577,218.274L55.114,218.274C52.848,218.429 50.922,218.097 49.657,216.822C44.107,209.242 44.402,201.662 49.657,194.082C47.045,189.56 47.483,186.235 48.754,182.651L60.256,163.238C61.494,158.901 60.901,155.087 58.321,151.841C47.405,139.201 59.343,126.038 66.451,116.729L74.594,100.445L83.071,116.446C83.693,118.741 83.734,119.746 85.74,121.335L108.569,121.335C110.122,121.335 111.543,120.463 112.246,119.079C114.992,113.677 121.72,100.445 121.72,100.445L130.356,117.717C144.383,119.793 151.881,128.361 154.416,139.396C156.267,139.756 158.037,139.881 159.205,139.273C164.317,137.812 168.077,134.978 171.911,137.655C173.229,138.575 173.891,139.718 174.178,140.853C174.787,143.321 173.662,145.889 171.436,147.116C164.816,150.737 158.434,151.451 151.357,151.261Z" style="fill:white;"/>
    </g>
    <g transform="matrix(0.625779,0,0,0.625779,-27.8284,-62.1126)">
        <path d="M60.82,217.441L55.114,217.441C54.654,217.441 54.281,217.814 54.281,218.274C54.281,218.734 54.654,219.107 55.114,219.107L60.82,219.107C61.28,219.107 61.654,218.734 61.654,218.274C61.654,217.814 61.28,217.441 60.82,217.441ZM102.649,217.327L87.939,217.327C87.479,217.327 87.105,217.7 87.105,218.16C87.105,218.62 87.479,218.993 87.939,218.993L102.649,218.993C103.109,218.993 103.482,218.62 103.482,218.16C103.482,217.7 103.109,217.327 102.649,217.327ZM111.79,214.482C112.017,214.769 112.168,215.042 112.171,215.328C112.174,215.599 112.035,215.856 111.808,216.127C111.414,216.597 111.476,217.298 111.946,217.692C112.416,218.086 113.117,218.024 113.511,217.554C114.137,216.808 114.401,216.05 114.393,215.304C114.385,214.573 114.11,213.831 113.53,213.101C113.149,212.62 112.449,212.54 111.969,212.921C111.489,213.302 111.408,214.002 111.79,214.482ZM64.49,214.482C64.717,214.769 64.868,215.042 64.871,215.328C64.874,215.599 64.736,215.856 64.509,216.127C64.115,216.597 64.176,217.298 64.646,217.692C65.116,218.086 65.818,218.024 66.212,217.554C66.837,216.808 67.102,216.05 67.093,215.304C67.085,214.573 66.81,213.831 66.23,213.101C65.849,212.62 65.15,212.54 64.669,212.921C64.189,213.302 64.109,214.002 64.49,214.482ZM106.547,214.482C106.774,214.769 106.925,215.042 106.928,215.328C106.931,215.599 106.792,215.856 106.566,216.127C106.172,216.597 106.233,217.298 106.703,217.692C107.173,218.086 107.874,218.024 108.268,217.554C108.894,216.808 109.158,216.05 109.15,215.304C109.142,214.573 108.867,213.831 108.287,213.101C107.906,212.62 107.207,212.54 106.726,212.921C106.246,213.302 106.165,214.002 106.547,214.482ZM118.424,194.715C123.38,201.865 123.676,209.015 118.441,216.165C118.078,216.66 118.186,217.356 118.681,217.718C119.175,218.08 119.871,217.973 120.234,217.478C126.098,209.468 125.803,201.458 120.25,193.449C119.901,192.945 119.208,192.819 118.704,193.169C118.2,193.518 118.074,194.211 118.424,194.715ZM48.744,193.449C43.191,201.458 42.896,209.468 48.76,217.478C49.123,217.973 49.819,218.08 50.313,217.718C50.808,217.356 50.916,216.66 50.553,216.165C45.318,209.015 45.614,201.865 50.57,194.715C50.919,194.211 50.794,193.518 50.29,193.169C49.786,192.819 49.093,192.945 48.744,193.449ZM82.698,196.648L82.698,206.459C82.698,210.165 80.323,213.263 77.252,213.263L77.25,213.263C74.389,213.263 72.184,210.37 72.184,206.917L72.184,196.648C72.184,196.035 71.686,195.537 71.073,195.537C70.46,195.537 69.962,196.035 69.962,196.648L69.962,206.917C69.962,211.701 73.287,215.485 77.25,215.485L77.252,215.485C81.425,215.485 84.92,211.496 84.92,206.459L84.92,196.648C84.92,196.035 84.422,195.537 83.809,195.537C83.196,195.537 82.698,196.035 82.698,196.648ZM59.3,162.672L47.798,182.085C47.486,182.612 47.66,183.294 48.188,183.607C48.716,183.92 49.398,183.745 49.71,183.217L61.212,163.804C61.524,163.277 61.35,162.595 60.822,162.282C60.295,161.97 59.613,162.144 59.3,162.672ZM124.257,163.345C124.365,171.362 122.523,176.305 116.294,180.867C115.799,181.229 115.692,181.925 116.054,182.42C116.416,182.914 117.112,183.022 117.607,182.66C124.495,177.615 126.598,172.18 126.479,163.316C126.47,162.702 125.966,162.211 125.353,162.219C124.74,162.228 124.248,162.732 124.257,163.345ZM88.652,171.56L83.326,166.103C83.154,165.919 83.068,165.709 83.068,165.475C83.068,165.089 83.256,164.792 83.632,164.582C83.923,164.414 84.219,164.33 84.52,164.33C84.918,164.33 85.257,164.481 85.537,164.783L91.461,171.246L97.384,164.783C97.664,164.481 98.003,164.33 98.401,164.33C98.703,164.33 98.998,164.414 99.289,164.582C99.666,164.792 99.854,165.089 99.854,165.475C99.854,165.718 99.768,165.927 99.596,166.103L94.269,171.56L98.998,171.56C99.257,171.56 99.483,171.623 99.676,171.749C99.935,171.925 100.064,172.164 100.064,172.465C100.064,172.834 99.886,173.103 99.531,173.27C99.38,173.346 99.203,173.383 98.998,173.383L92.817,173.383L92.817,175.81L98.998,175.81C99.246,175.81 99.461,175.869 99.644,175.986C99.924,176.179 100.064,176.43 100.064,176.74C100.064,177.093 99.886,177.361 99.531,177.545C99.38,177.621 99.203,177.658 98.998,177.658L92.817,177.658L92.817,181.782C92.817,182.059 92.687,182.292 92.429,182.48C92.171,182.669 91.848,182.763 91.461,182.763C90.966,182.763 90.584,182.621 90.315,182.336C90.175,182.185 90.105,182 90.105,181.782L90.105,177.658L83.923,177.658C83.665,177.658 83.45,177.6 83.277,177.482C82.998,177.29 82.858,177.042 82.858,176.74C82.858,176.372 83.03,176.099 83.374,175.923C83.536,175.848 83.719,175.81 83.923,175.81L90.105,175.81L90.105,173.383L83.923,173.383C83.632,173.383 83.39,173.308 83.197,173.157C82.971,172.973 82.858,172.742 82.858,172.465C82.858,172.13 83.019,171.875 83.342,171.699C83.503,171.606 83.697,171.56 83.923,171.56L88.652,171.56ZM64.179,164.173C64.406,164.459 64.557,164.733 64.56,165.019C64.563,165.29 64.424,165.547 64.198,165.817C63.804,166.287 63.865,166.989 64.335,167.383C64.805,167.777 65.507,167.715 65.901,167.245C66.526,166.499 66.79,165.74 66.782,164.994C66.774,164.264 66.499,163.521 65.919,162.791C65.538,162.311 64.839,162.231 64.358,162.612C63.878,162.993 63.798,163.693 64.179,164.173ZM149.556,129.734C154.512,136.884 154.808,144.035 149.572,151.185C149.21,151.68 149.318,152.375 149.812,152.738C150.307,153.1 151.003,152.992 151.365,152.498C157.23,144.488 156.935,136.478 151.382,128.468C151.033,127.964 150.34,127.839 149.836,128.188C149.332,128.537 149.206,129.23 149.556,129.734ZM57.408,128.468C51.855,136.478 51.56,144.488 57.425,152.498C57.787,152.992 58.483,153.1 58.977,152.738C59.472,152.375 59.58,151.68 59.218,151.185C53.982,144.035 54.278,136.884 59.234,129.734C59.584,129.23 59.458,128.537 58.954,128.188C58.45,127.839 57.757,127.964 57.408,128.468ZM133.519,128.206C140.279,128.206 145.766,133.694 145.766,140.453C145.766,147.213 140.279,152.701 133.519,152.701C126.76,152.701 121.272,147.213 121.272,140.453C121.272,133.694 126.76,128.206 133.519,128.206ZM76.5,128.206C83.26,128.206 88.748,133.694 88.748,140.453C88.748,147.213 83.26,152.701 76.5,152.701C69.741,152.701 64.253,147.213 64.253,140.453C64.253,133.694 69.741,128.206 76.5,128.206ZM110.317,135.337C109.819,135.784 109.725,136.534 110.105,137.092C110.106,137.092 110.106,137.093 110.106,137.093C110.294,137.365 110.458,137.631 110.597,137.889C111.233,139.1 111.547,140.553 111.547,142.247C111.547,144.214 111.154,145.799 110.354,146.999C110.354,146.999 110.353,147 110.353,147.001C109.698,148.001 108.937,148.519 108.048,148.519C106.698,148.519 105.892,147.388 105.518,145.212C106.229,143.764 106.583,142.346 106.583,140.957C106.583,140.049 106.461,139.416 106.245,139.053C106.054,138.731 105.793,138.581 105.475,138.581C105.122,138.581 104.76,138.796 104.427,139.283C103.709,140.322 103.338,141.865 103.338,143.916C103.338,144.191 103.348,144.515 103.369,144.889C102.283,147.282 101.045,148.519 99.581,148.519C98.894,148.519 98.402,148.095 98.072,147.288C98.072,147.287 98.071,147.287 98.071,147.286C97.834,146.717 97.718,146.019 97.718,145.193C97.718,142.257 98.994,139.633 101.538,137.319C102.069,136.835 102.124,136.019 101.663,135.468L101.64,135.442C101.412,135.184 101.09,135.026 100.746,135.004C100.39,134.981 100.041,135.105 99.779,135.347C98.858,136.197 98.102,137.026 97.509,137.834C95.827,140.118 94.987,142.597 94.987,145.269C94.987,146.871 95.313,148.191 95.952,149.232L95.953,149.233C96.797,150.597 97.961,151.274 99.44,151.274C101.193,151.274 102.723,150.215 103.996,148.053C104.804,150.213 106.173,151.274 108.071,151.274C109.941,151.274 111.49,150.32 112.704,148.388C113.75,146.72 114.278,144.691 114.278,142.298C114.278,139.717 113.583,137.462 112.204,135.527C112.203,135.526 112.202,135.525 112.201,135.523C111.991,135.24 111.674,135.056 111.323,135.014C110.973,134.973 110.622,135.077 110.351,135.304L110.317,135.337ZM159.51,140.815C162.07,140.083 164.291,138.957 166.352,138.349C168.075,137.84 169.67,137.714 171.275,138.834C172.54,139.717 173.07,140.857 173.232,141.944C173.233,141.948 173.233,141.952 173.234,141.956C173.518,143.728 172.577,145.469 170.939,146.202C170.932,146.205 170.925,146.208 170.918,146.212C169.437,146.91 167.786,147.592 165.481,147.752C164.869,147.794 164.407,148.325 164.449,148.937C164.492,149.549 165.023,150.011 165.635,149.969C168.269,149.786 170.164,149.024 171.858,148.226C174.405,147.08 175.869,144.369 175.429,141.61C175.188,140.005 174.414,138.316 172.547,137.012C170.318,135.456 168.116,135.511 165.722,136.217C163.667,136.824 161.452,137.948 158.9,138.678C158.31,138.847 157.968,139.462 158.137,140.052C158.305,140.641 158.921,140.983 159.51,140.815ZM110.751,135.349L110.765,135.37L110.766,135.37C110.762,135.364 110.758,135.358 110.753,135.352C110.752,135.351 110.752,135.35 110.751,135.349ZM109.788,120.501L86.354,120.501C85.894,120.501 85.521,120.875 85.521,121.335C85.521,121.795 85.894,122.168 86.354,122.168L109.788,122.168C110.248,122.168 110.621,121.795 110.621,121.335C110.621,120.875 110.248,120.501 109.788,120.501ZM59.95,117.557C60.177,117.843 60.328,118.117 60.331,118.403C60.334,118.674 60.196,118.931 59.969,119.201C59.575,119.671 59.636,120.373 60.106,120.767C60.576,121.161 61.278,121.099 61.672,120.629C62.297,119.883 62.562,119.124 62.553,118.378C62.545,117.648 62.27,116.906 61.69,116.175C61.309,115.695 60.61,115.615 60.129,115.996C59.649,116.377 59.569,117.077 59.95,117.557ZM112.583,116.233C112.309,116.781 112.531,117.449 113.08,117.723C113.629,117.998 114.297,117.775 114.571,117.226L116.562,113.245L126.877,113.245L128.868,117.226C129.142,117.775 129.81,117.998 130.359,117.723C130.907,117.449 131.13,116.781 130.856,116.233L122.713,99.948C122.525,99.571 122.14,99.334 121.72,99.334C121.299,99.334 120.914,99.571 120.726,99.948L112.583,116.233ZM65.516,116.233C65.242,116.781 65.464,117.449 66.013,117.723C66.562,117.998 67.23,117.775 67.504,117.226L69.495,113.245L79.81,113.245L81.801,117.226C82.075,117.775 82.743,117.998 83.292,117.723C83.84,117.449 84.063,116.781 83.789,116.233L75.646,99.948C75.458,99.571 75.073,99.334 74.653,99.334C74.232,99.334 73.847,99.571 73.659,99.948L65.516,116.233ZM117.673,111.023L125.766,111.023L121.72,102.929L117.673,111.023ZM70.606,111.023L78.699,111.023L74.653,102.929L70.606,111.023Z"/>
    </g>
</svg>
