<?xml version="1.0" encoding="UTF-8" standalone="no"?>
<!DOCTYPE svg PUBLIC "-//W3C//DTD SVG 1.1//EN" "http://www.w3.org/Graphics/SVG/1.1/DTD/svg11.dtd">
<svg width="63px" height="64px" version="1.1" xmlns="http://www.w3.org/2000/svg" xmlns:xlink="http://www.w3.org/1999/xlink" xml:space="preserve" xmlns:serif="http://www.serif.com/" style="fill-rule:evenodd;clip-rule:evenodd;stroke-linejoin:round;stroke-miterlimit:2;">
    <g transform="matrix(0.614262,0,0,0.614262,-34.4782,-34.3047)">
        <path d="M66.697,142.579L66.634,142.54C66.634,142.54 64.748,136.813 63.677,133.562C63.22,132.174 62.177,131.055 60.825,130.5C59.326,129.886 57.588,129.173 57.588,129.173L57.588,113.962L63.137,111.78L71.495,111.78C73.363,113.832 74.72,113.343 75.443,111.824C76.519,109.567 75.737,105.348 73.583,102.406C69.231,96.463 68.614,90.115 72.734,84.172L76.13,75.681L83.772,59.549L91.413,75.075C91.99,76.171 93.33,76.739 95.658,76.622L116.884,76.622C118.883,76.706 120.654,76.338 121.979,75.075L129.62,59.549L137.262,75.681L141.564,84.172C145.684,90.115 143.823,97.005 140.79,103.188C139.614,105.586 141.146,108.749 143.198,109.251C144.764,109.634 152.244,111.312 152.244,111.312L157.443,113.962L157.443,129.173L151.856,131.775L151.856,140.541L151.685,141.198C154.655,142.79 156.674,145.903 156.674,149.479C156.674,154.674 152.412,158.892 147.163,158.892C142.94,158.892 139.356,156.162 138.116,152.39L82.674,152.39L82.285,152.151C81.12,156.046 77.475,158.892 73.163,158.892C67.914,158.892 63.652,154.674 63.652,149.479C63.652,146.754 64.825,144.298 66.697,142.579Z" style="fill:white;"/>
    </g>
    <g transform="matrix(0.614262,0,0,0.614262,-36.0686,-69.7249)">
        <path d="M68.087,199.671C65.973,201.735 64.917,204.221 64.917,207.129C64.917,210.037 65.972,212.527 68.086,214.599C70.195,216.665 72.75,217.7 75.752,217.7C78.755,217.7 81.31,216.665 83.418,214.599C85.532,212.527 86.588,210.037 86.588,207.129C86.588,204.221 85.532,201.735 83.418,199.671C81.309,197.613 78.754,196.583 75.752,196.583C72.75,196.583 70.196,197.613 68.087,199.671ZM142.087,199.671C139.973,201.735 138.917,204.221 138.917,207.129C138.917,210.037 139.972,212.527 142.086,214.599C144.195,216.665 146.75,217.7 149.752,217.7C152.754,217.7 155.309,216.665 157.418,214.599C159.532,212.527 160.587,210.037 160.587,207.129C160.587,204.221 159.532,201.735 157.417,199.671C155.309,197.613 152.754,196.583 149.752,196.583C146.75,196.583 144.195,197.613 142.087,199.671ZM143.74,212.975C142.08,211.362 141.249,209.418 141.249,207.141C141.249,204.865 142.08,202.921 143.74,201.308C145.405,199.689 147.409,198.881 149.752,198.881C152.095,198.881 154.099,199.689 155.764,201.308C157.424,202.921 158.255,204.865 158.255,207.141C158.255,209.418 157.424,211.362 155.764,212.975C154.099,214.594 152.095,215.402 149.752,215.402C147.409,215.402 145.405,214.594 143.74,212.975ZM69.74,212.975C68.08,211.362 67.249,209.418 67.249,207.141C67.249,204.865 68.08,202.921 69.74,201.308C71.405,199.689 73.41,198.881 75.752,198.881C78.095,198.881 80.099,199.689 81.765,201.308C83.424,202.921 84.255,204.865 84.255,207.141C84.255,209.418 83.424,211.362 81.765,212.975C80.099,214.594 78.095,215.402 75.752,215.402C73.41,215.402 71.405,214.594 69.74,212.975ZM70.861,202.354C69.492,203.684 68.81,205.281 68.81,207.141C68.81,209.003 69.493,210.596 70.863,211.918C72.226,213.234 73.855,213.892 75.752,213.892C77.649,213.892 79.279,213.234 80.642,211.918C82.012,210.596 82.694,209.003 82.694,207.141C82.694,205.281 82.012,203.684 80.643,202.354C79.28,201.029 77.65,200.366 75.752,200.366C73.855,200.366 72.225,201.029 70.861,202.354ZM144.861,202.354C143.492,203.684 142.81,205.281 142.81,207.141C142.81,209.003 143.493,210.596 144.863,211.918C146.225,213.234 147.855,213.892 149.752,213.892C151.649,213.892 153.279,213.234 154.642,211.918C156.011,210.596 156.694,209.003 156.694,207.141C156.694,205.281 156.012,203.684 154.643,202.354C153.28,201.029 151.65,200.366 149.752,200.366C147.855,200.366 146.224,201.029 144.861,202.354ZM146.488,210.28C145.592,209.409 145.142,208.359 145.142,207.129C145.142,205.899 145.592,204.85 146.488,203.979C147.39,203.102 148.478,202.664 149.752,202.664C151.026,202.664 152.114,203.102 153.016,203.979C153.913,204.85 154.362,205.899 154.362,207.129C154.362,208.359 153.913,209.409 153.016,210.28C152.114,211.156 151.026,211.594 149.752,211.594C148.478,211.594 147.39,211.156 146.488,210.28ZM72.488,210.279C71.592,209.409 71.142,208.359 71.142,207.129C71.142,205.899 71.592,204.85 72.488,203.979C73.39,203.102 74.479,202.664 75.752,202.664C77.026,202.664 78.114,203.102 79.017,203.979C79.913,204.85 80.362,205.899 80.362,207.129C80.362,208.359 79.913,209.409 79.017,210.28C78.114,211.156 77.026,211.594 75.752,211.594C74.479,211.594 73.39,211.156 72.488,210.28L72.488,210.279ZM135.17,208.939L90.525,208.939C89.911,208.939 89.411,209.438 89.411,210.053C89.411,210.668 89.911,211.167 90.525,211.167L135.17,211.167C135.785,211.167 136.284,210.668 136.284,210.053C136.284,209.438 135.785,208.939 135.17,208.939ZM61.182,185.798L61.182,172.681L65.4,170.914C65.959,170.683 66.281,170.208 66.281,169.443C66.281,169.108 66.156,168.835 65.909,168.622C65.604,168.357 65.28,168.317 64.944,168.466C64.95,168.463 59.677,170.623 59.677,170.623C59.673,170.624 59.669,170.626 59.665,170.628C59.055,170.894 58.719,171.408 58.719,172.207L58.719,186.269C58.704,187.069 59.04,187.587 59.671,187.854L64.957,190.019C65.318,190.168 65.642,190.11 65.929,189.849C66.16,189.637 66.281,189.368 66.281,189.037C66.281,188.271 65.959,187.797 65.397,187.565L61.182,185.798ZM158.817,172.681L158.817,185.798L154.599,187.566C154.04,187.797 153.718,188.271 153.718,189.037C153.718,189.368 153.839,189.637 154.07,189.849L154.071,189.849C154.357,190.11 154.682,190.168 155.044,190.019C155.043,190.019 160.322,187.857 160.322,187.857C160.325,187.856 160.327,187.855 160.329,187.854C160.96,187.587 161.296,187.069 161.28,186.269L161.28,172.207C161.28,171.408 160.944,170.894 160.334,170.628L155.049,168.463C154.715,168.317 154.394,168.359 154.09,168.622C153.844,168.835 153.718,169.108 153.718,169.443C153.718,170.208 154.04,170.683 154.602,170.915L158.817,172.681ZM91.447,188.299L91.636,188.296C93.558,188.249 95.39,187.465 96.754,186.102C98.16,184.695 98.951,182.787 98.951,180.798L98.951,173.285C98.951,172.477 98.295,171.822 97.488,171.822C96.68,171.822 96.025,172.477 96.025,173.285L96.025,180.798C96.025,182.011 95.543,183.175 94.685,184.033C93.826,184.892 92.663,185.373 91.449,185.373L91.441,185.373C90.315,185.371 89.237,184.924 88.442,184.129C87.645,183.332 87.197,182.251 87.197,181.124L87.197,173.285C87.197,172.477 86.542,171.822 85.735,171.822C84.927,171.822 84.272,172.477 84.272,173.285L84.272,181.124C84.272,183.026 85.028,184.851 86.372,186.197L86.373,186.198C87.719,187.543 89.544,188.299 91.447,188.299ZM69.61,171.055L69.625,171.078C69.668,171.145 69.717,171.195 69.766,171.232C69.955,171.391 70.172,171.45 70.412,171.419C70.653,171.389 70.864,171.272 71.03,171.046C71.031,171.044 71.032,171.042 71.033,171.041C71.417,170.505 71.842,170.207 72.344,170.207C72.747,170.207 73.126,170.466 73.524,170.916C73.524,170.916 73.525,170.916 73.525,170.917C74.288,171.774 75.135,172.181 76.045,172.181C77.178,172.191 78.123,171.668 78.856,170.579C78.86,170.572 78.865,170.564 78.87,170.557C78.987,170.363 79.041,170.143 79.022,169.893C79.001,169.63 78.903,169.416 78.74,169.246L78.769,169.279L78.679,169.185C78.477,168.983 78.238,168.903 77.964,168.936C77.716,168.967 77.499,169.09 77.332,169.333C77.121,169.625 76.911,169.842 76.691,169.971C76.497,170.083 76.282,170.137 76.045,170.137L76.037,170.137C75.637,170.143 75.26,169.887 74.865,169.441C74.865,169.44 74.864,169.44 74.864,169.439C74.101,168.583 73.254,168.175 72.344,168.175C71.211,168.166 70.266,168.688 69.533,169.777C69.533,169.778 69.532,169.78 69.531,169.781C69.408,169.967 69.347,170.189 69.367,170.451L69.367,170.452C69.386,170.693 69.47,170.892 69.61,171.055ZM150.17,166.669L102.525,166.669C101.762,166.669 101.142,167.289 101.142,168.053C101.142,168.817 101.762,169.437 102.525,169.437L150.17,169.437C150.933,169.437 151.554,168.817 151.554,168.053C151.554,167.289 150.933,166.669 150.17,166.669ZM142.262,142.669C145.989,148.046 146.22,153.423 142.284,158.799C141.806,159.452 141.948,160.369 142.6,160.846C143.253,161.324 144.17,161.182 144.647,160.53C149.413,154.02 149.181,147.51 144.669,141C144.209,140.336 143.296,140.17 142.631,140.631C141.967,141.091 141.801,142.005 142.262,142.669ZM74.968,141C70.456,147.51 70.224,154.02 74.99,160.53C75.468,161.182 76.385,161.324 77.037,160.846C77.69,160.369 77.831,159.452 77.354,158.799C73.417,153.423 73.649,148.046 77.376,142.669C77.836,142.005 77.671,141.091 77.007,140.631C76.342,140.17 75.429,140.336 74.968,141ZM119.736,144.744L116.324,141.331C115.753,140.761 114.828,140.761 114.258,141.331L110.845,144.743C110.275,145.313 110.275,146.239 110.845,146.809C111.415,147.38 112.341,147.38 112.911,146.81L115.291,144.43L117.67,146.81C118.24,147.38 119.166,147.38 119.736,146.81C120.306,146.239 120.306,145.314 119.736,144.744ZM133.736,144.744L130.324,141.331C129.753,140.761 128.828,140.761 128.258,141.331L124.845,144.743C124.275,145.313 124.275,146.239 124.845,146.809C125.415,147.38 126.341,147.38 126.911,146.81L129.291,144.43L131.67,146.81C132.24,147.38 133.166,147.38 133.736,146.81C134.306,146.239 134.306,145.314 133.736,144.744ZM98.247,136.356L119.474,136.356C120.282,136.356 120.938,135.7 120.938,134.891C120.938,134.083 120.282,133.427 119.474,133.427L98.247,133.427C97.439,133.427 96.783,134.083 96.783,134.891C96.783,135.7 97.439,136.356 98.247,136.356ZM130.878,116.601L123.244,132.717C122.898,133.448 123.21,134.322 123.941,134.668C124.671,135.014 125.545,134.702 125.891,133.971L132.209,120.634L138.527,133.971C138.873,134.702 139.747,135.014 140.477,134.668C141.208,134.322 141.52,133.448 141.174,132.717L133.533,116.585C133.533,116.585 133.278,115.748 132.209,115.748C131.707,115.748 131.24,116.005 130.971,116.429C130.936,116.485 130.905,116.542 130.878,116.601ZM86.361,115.748C85.291,115.748 85.037,116.585 85.037,116.585L77.396,132.717C77.05,133.448 77.362,134.322 78.092,134.668C78.823,135.014 79.697,134.702 80.043,133.971L86.361,120.633L92.679,133.971C93.025,134.702 93.899,135.014 94.629,134.668C95.36,134.322 95.672,133.448 95.326,132.717L87.685,116.585C87.442,116.074 86.927,115.748 86.361,115.748Z"/>
    </g>
</svg>
