<?xml version="1.0" encoding="UTF-8" standalone="no"?>
<!DOCTYPE svg PUBLIC "-//W3C//DTD SVG 1.1//EN" "http://www.w3.org/Graphics/SVG/1.1/DTD/svg11.dtd">
<svg width="52px" height="82px" version="1.1" xmlns="http://www.w3.org/2000/svg" xmlns:xlink="http://www.w3.org/1999/xlink" xml:space="preserve" xmlns:serif="http://www.serif.com/" style="fill-rule:evenodd;clip-rule:evenodd;stroke-linejoin:round;stroke-miterlimit:2;">
    <g transform="matrix(0.554961,0,0,0.554961,-39.763,-13.261)">
        <path d="M119.258,168.079C118.454,169.354 116.939,170.075 114.5,170.079L82,170.079C79.855,170.081 78.236,169.349 77,168.079C71.875,161.079 71.296,154.079 76.148,147.079C77.153,145.235 79.39,143.219 82.157,140.157L82.157,115.157L77,110C71.875,103 72.148,96 77,89C78.597,86.667 78.81,84.333 77,82C71.875,75 71.296,68 76.148,61L80,51L89,32L97.894,50.574C99.054,52.1 100.597,52.958 102.894,52.495L127.894,52.495C130.319,52.707 132.319,52.066 133.894,50.574L143,32L152,51L156.868,61C161.721,68 161.383,75 156.258,82C154.216,84.479 154.324,86.805 156.258,89C161.11,96 161.383,103 156.258,110L151,115.157L151,140.712C155.209,141.775 158.339,144.184 160.681,147.079C166.04,153.699 165.125,161.079 160,168.079C158.896,169.401 157.195,170.028 155,170.079L130,170.079C124.849,168.3 123.125,164.725 122.746,160.446" style="fill:white;"/>
    </g>
    <g transform="matrix(0.598659,0,0,0.598659,-39.8525,-48.8699)">
        <path d="M120.661,218.605L143.836,218.605C144.642,218.605 145.296,217.951 145.296,217.145C145.296,216.339 144.642,215.685 143.836,215.685L120.661,215.685C119.855,215.685 119.201,216.339 119.201,217.145C119.201,217.951 119.855,218.605 120.661,218.605ZM106.292,215.685L76.164,215.685C75.358,215.685 74.704,216.339 74.704,217.145C74.704,217.951 75.358,218.605 76.164,218.605L106.292,218.605C107.098,218.605 107.752,217.951 107.752,217.145C107.752,216.339 107.098,215.685 106.292,215.685ZM109.502,196.656C113.61,202.58 113.862,208.504 109.524,214.428C109.048,215.079 109.189,215.993 109.839,216.469C110.49,216.945 111.404,216.804 111.88,216.154C117.046,209.1 116.792,202.046 111.902,194.992C111.443,194.33 110.532,194.165 109.87,194.624C109.208,195.083 109.043,195.994 109.502,196.656ZM147.271,196.656C151.378,202.58 151.631,208.504 147.293,214.429C146.817,215.079 146.958,215.993 147.609,216.469C148.259,216.945 149.173,216.804 149.649,216.153C154.813,209.1 154.56,202.046 149.671,194.992C149.212,194.33 148.302,194.165 147.639,194.624C146.977,195.083 146.812,195.993 147.271,196.656ZM70.329,194.992C65.44,202.046 65.187,209.1 70.351,216.153C70.827,216.804 71.741,216.945 72.391,216.469C73.042,215.993 73.183,215.079 72.707,214.429C68.369,208.504 68.622,202.58 72.729,196.656C73.188,195.993 73.023,195.083 72.361,194.624C71.698,194.165 70.788,194.33 70.329,194.992ZM74.85,166.233L74.85,189.408C74.85,190.214 75.504,190.868 76.31,190.868C77.116,190.868 77.77,190.214 77.77,189.408L77.77,166.233C77.77,165.427 77.116,164.773 76.31,164.773C75.504,164.773 74.85,165.427 74.85,166.233ZM105.759,166.233L105.759,189.408C105.759,190.214 106.413,190.868 107.219,190.868C108.025,190.868 108.679,190.214 108.679,189.408L108.679,166.233C108.679,165.427 108.025,164.773 107.219,164.773C106.413,164.773 105.759,165.427 105.759,166.233ZM138.668,166.233L138.668,189.408C138.668,190.214 139.322,190.868 140.128,190.868C140.934,190.868 141.588,190.214 141.588,189.408L141.588,166.233C141.588,165.427 140.934,164.773 140.128,164.773C139.322,164.773 138.668,165.427 138.668,166.233ZM70.329,141.153C65.44,148.207 65.187,155.261 70.351,162.314C70.827,162.965 71.741,163.106 72.391,162.63C73.042,162.154 73.183,161.24 72.707,160.59C68.369,154.665 68.622,148.741 72.729,142.817C73.188,142.154 73.023,141.244 72.361,140.785C71.698,140.326 70.788,140.491 70.329,141.153ZM143.802,142.817C147.909,148.741 148.162,154.665 143.824,160.59C143.348,161.24 143.489,162.154 144.14,162.63C144.79,163.106 145.704,162.965 146.18,162.314C151.344,155.261 151.091,148.207 146.202,141.153C145.743,140.491 144.833,140.326 144.17,140.785C143.508,141.244 143.343,142.154 143.802,142.817ZM70.329,115.197C65.44,122.251 65.187,129.305 70.351,136.358C70.827,137.009 71.741,137.15 72.391,136.674C73.042,136.198 73.183,135.284 72.707,134.634C68.369,128.709 68.622,122.785 72.729,116.861C73.188,116.198 73.023,115.288 72.361,114.829C71.698,114.37 70.788,114.535 70.329,115.197ZM143.802,116.861C147.909,122.785 148.162,128.709 143.824,134.634C143.348,135.284 143.489,136.198 144.14,136.674C144.79,137.15 145.704,137.009 146.18,136.358C151.344,129.305 151.091,122.251 146.202,115.197C145.743,114.535 144.833,114.37 144.17,114.829C143.508,115.288 143.343,116.198 143.802,116.861ZM117.989,119.033L114.577,115.621C114.007,115.051 113.083,115.05 112.513,115.62L109.1,119.032C108.53,119.602 108.53,120.527 109.099,121.097C109.669,121.667 110.594,121.667 111.164,121.098L113.545,118.718L115.925,121.097C116.494,121.667 117.42,121.667 117.989,121.097C118.559,120.528 118.559,119.602 117.989,119.033ZM131.989,119.033L128.577,115.621C128.007,115.051 127.083,115.05 126.513,115.62L123.1,119.032C122.53,119.602 122.53,120.527 123.099,121.097C123.669,121.667 124.594,121.667 125.164,121.098L127.545,118.718L129.925,121.097C130.494,121.667 131.42,121.667 131.989,121.097C132.559,120.528 132.559,119.602 131.989,119.033ZM95.631,110L118.807,110C119.613,110 120.267,109.346 120.267,108.54C120.267,107.734 119.613,107.08 118.807,107.08L95.631,107.08C94.825,107.08 94.171,107.734 94.171,108.54C94.171,109.346 94.825,110 95.631,110ZM75.706,107.311L82.693,92.562L89.679,107.311C90.025,108.041 90.898,108.352 91.627,108.007C92.357,107.661 92.668,106.788 92.323,106.059L84.015,88.519C83.773,88.009 83.258,87.683 82.693,87.683C82.128,87.683 81.613,88.009 81.371,88.519L73.063,106.059C72.717,106.788 73.029,107.661 73.759,108.007C74.488,108.352 75.361,108.041 75.706,107.311ZM125.558,107.311L132.545,92.562L139.531,107.311C139.877,108.041 140.75,108.352 141.479,108.007C142.208,107.661 142.52,106.788 142.175,106.059L133.866,88.519C133.624,88.009 133.11,87.683 132.545,87.683C131.98,87.683 131.465,88.009 131.223,88.519L122.915,106.059C122.569,106.788 122.881,107.661 123.61,108.007C124.34,108.352 125.213,108.041 125.558,107.311Z"/>
    </g>
</svg>
