<?xml version="1.0" encoding="UTF-8" standalone="no"?><!DOCTYPE svg PUBLIC "-//W3C//DTD SVG 1.1//EN" "http://www.w3.org/Graphics/SVG/1.1/DTD/svg11.dtd"><svg width="44px" height="43px" version="1.1" xmlns="http://www.w3.org/2000/svg" xmlns:xlink="http://www.w3.org/1999/xlink" xml:space="preserve" xmlns:serif="http://www.serif.com/" style="fill-rule:evenodd;clip-rule:evenodd;stroke-linejoin:round;stroke-miterlimit:2;"><g transform="matrix(1.01349,0,0,1.01349,-2.25041e-16,-0.574097)"><path d="M35.598,3.606C35.598,2.393 34.613,1.408 33.399,1.408L11.308,1.408C10.094,1.408 9.109,2.393 9.109,3.606L9.109,26.986C9.109,28.199 10.094,29.185 11.308,29.185L33.399,29.185C34.613,29.185 35.598,28.199 35.598,26.986L35.598,3.606Z" style="fill:white;"/></g><g transform="matrix(0.613571,0,0,0.613571,-45.4928,-91.7469)"><path d="M100.475,201.167L100.475,218.5C100.475,219.113 100.973,219.611 101.586,219.611C102.199,219.611 102.697,219.113 102.697,218.5L102.697,201.167C102.697,200.554 102.199,200.056 101.586,200.056C100.973,200.056 100.475,200.554 100.475,201.167ZM120.315,201.167L120.315,218.5C120.315,219.113 120.813,219.611 121.426,219.611C122.04,219.611 122.537,219.113 122.537,218.5L122.537,201.167C122.537,200.554 122.04,200.056 121.426,200.056C120.813,200.056 120.315,200.554 120.315,201.167ZM130.063,195.511L92.402,195.511C91.789,195.511 91.291,196.009 91.291,196.622C91.291,197.235 91.789,197.733 92.402,197.733L130.063,197.733C130.676,197.733 131.174,197.235 131.174,196.622C131.174,196.009 130.676,195.511 130.063,195.511ZM131.962,178.234L131.962,195.567C131.962,196.18 132.46,196.678 133.073,196.678C133.686,196.678 134.184,196.18 134.184,195.567L134.184,178.234C134.184,177.621 133.686,177.123 133.073,177.123C132.46,177.123 131.962,177.621 131.962,178.234ZM88.013,178.234L88.013,195.567C88.013,196.18 88.511,196.678 89.124,196.678C89.738,196.678 90.236,196.18 90.236,195.567L90.236,178.234C90.236,177.621 89.738,177.123 89.124,177.123C88.511,177.123 88.013,177.621 88.013,178.234ZM131.962,155.848L131.962,173.181C131.962,173.794 132.46,174.292 133.073,174.292C133.686,174.292 134.184,173.794 134.184,173.181L134.184,155.848C134.184,155.235 133.686,154.737 133.073,154.737C132.46,154.737 131.962,155.235 131.962,155.848ZM88.013,155.848L88.013,173.181C88.013,173.794 88.511,174.292 89.124,174.292C89.738,174.292 90.236,173.794 90.236,173.181L90.236,155.848C90.236,155.235 89.738,154.737 89.124,154.737C88.511,154.737 88.013,155.235 88.013,155.848ZM143.636,158.667C143.241,164.194 141.693,167.495 137.136,170.272C136.612,170.591 136.446,171.275 136.765,171.799C137.084,172.322 137.768,172.489 138.292,172.169C143.546,168.968 145.397,165.198 145.853,158.825C145.896,158.214 145.435,157.682 144.824,157.638C144.212,157.594 143.68,158.055 143.636,158.667ZM111.257,172.137L111.275,172.138C111.663,172.116 112.013,171.892 112.195,171.546L118.68,159.201C118.965,158.658 118.756,157.986 118.213,157.701C117.67,157.416 116.998,157.625 116.713,158.168L115.195,161.057L107.356,161.057L105.838,158.168C105.552,157.625 104.88,157.416 104.337,157.701C103.794,157.986 103.585,158.658 103.87,159.201L110.355,171.546C110.535,171.887 110.877,172.109 111.257,172.137ZM74.637,162.588C77.465,164.486 80.778,167.362 82.602,169.334C83.019,169.784 83.722,169.812 84.172,169.395C84.622,168.979 84.65,168.275 84.233,167.825C82.319,165.756 78.844,162.735 75.875,160.743C75.366,160.401 74.675,160.537 74.333,161.046C73.991,161.556 74.127,162.246 74.637,162.588ZM108.523,163.279L111.275,168.518L114.028,163.279L108.523,163.279ZM96.421,167.094C97.586,167.094 98.532,166.148 98.532,164.983C98.532,163.818 97.586,162.873 96.421,162.873C95.256,162.873 94.31,163.818 94.31,164.983C94.31,166.148 95.256,167.094 96.421,167.094ZM125.466,167.094C126.631,167.094 127.576,166.148 127.576,164.983C127.576,163.818 126.631,162.873 125.466,162.873C124.301,162.873 123.355,163.818 123.355,164.983C123.355,166.148 124.301,167.094 125.466,167.094ZM130.063,149.988L92.402,149.988C91.789,149.988 91.291,150.486 91.291,151.099C91.291,151.713 91.789,152.21 92.402,152.21L130.063,152.21C130.676,152.21 131.174,151.713 131.174,151.099C131.174,150.486 130.676,149.988 130.063,149.988Z"/></g></svg>