<?xml version="1.0" encoding="UTF-8" standalone="no"?>
<svg xmlns:ffdec="https://www.free-decompiler.com/flash" xmlns:xlink="http://www.w3.org/1999/xlink" ffdec:objectType="shape" height="92.1px" width="49.65px" xmlns="http://www.w3.org/2000/svg">
  <g transform="matrix(1.0, 0.0, 0.0, 1.0, 24.4, 93.0)">
    <path d="M-9.75 -89.65 Q-2.75 -92.65 2.25 -92.95 6.3 -93.2 9.8 -91.6 12.6 -90.35 14.4 -88.4 15.9 -86.8 16.7 -84.75 18.45 -80.45 18.15 -75.75 L17.4 -66.25 Q16.9 -61.4 16.75 -56.5 16.6 -52.25 17.55 -48.3 16.65 -47.65 16.65 -47.25 L16.5 -43.5 15.85 -44.2 14.75 -44.9 15.85 -40.25 Q17.25 -35.2 14.6 -30.85 L13.9 -29.65 Q11.2 -25.45 13.6 -21.05 14.7 -19.05 16.2 -17.0 L16.75 -15.8 Q16.9 -15.0 17.35 -14.3 18.6 -12.55 20.75 -12.05 L25.25 -10.75 19.1 -10.5 17.65 -11.05 Q14.2 -12.7 11.2 -14.65 8.25 -15.8 5.9 -16.85 L3.75 -17.45 2.55 -17.8 -5.65 -22.2 Q-7.3 -23.1 -8.2 -24.8 -9.5 -27.25 -10.5 -30.7 L-11.0 -27.75 Q-13.6 -30.2 -15.6 -33.7 L-15.25 -35.2 Q-16.5 -39.8 -13.7 -43.7 -14.6 -46.95 -10.2 -52.5 -12.55 -55.2 -15.4 -57.35 L-19.75 -57.9 -19.55 -59.15 -19.9 -61.25 -20.0 -63.05 -20.4 -65.25 -20.9 -68.1 Q-21.65 -71.25 -22.8 -74.2 -24.55 -78.55 -24.4 -80.8 -24.25 -83.1 -23.75 -84.75 -23.3 -86.4 -21.6 -88.65 -19.9 -90.95 -14.6 -88.4 L-13.45 -90.25 Q-12.3 -92.0 -10.6 -90.4 L-9.8 -89.65 -9.7 -89.55 Q-6.15 -86.15 -3.45 -82.25 L-2.55 -80.7 -0.75 -80.7 Q2.35 -80.65 5.1 -79.15 L6.25 -78.75 14.2 -76.9 6.25 -78.75 5.1 -79.15 Q2.35 -80.65 -0.75 -80.7 L-2.55 -80.7 -3.45 -82.25 Q-6.15 -86.15 -9.7 -89.55 L-9.75 -89.65 M14.75 -44.9 Q12.35 -46.75 11.15 -49.7 10.9 -50.35 10.3 -50.65 9.0 -51.35 8.9 -49.25 L8.75 -43.0 Q7.0 -46.05 5.5 -49.25 3.6 -53.45 3.05 -57.75 3.6 -53.45 5.5 -49.25 7.0 -46.05 8.75 -43.0 L8.9 -49.25 Q9.0 -51.35 10.3 -50.65 10.9 -50.35 11.15 -49.7 12.35 -46.75 14.75 -44.9 M-3.25 -68.5 Q-1.2 -69.2 -2.6 -70.9 -3.0 -71.45 -3.75 -71.5 -5.35 -71.65 -5.35 -70.25 -5.45 -66.75 -1.95 -65.65 L-0.35 -65.6 Q1.9 -66.3 2.15 -69.0 2.35 -70.8 1.4 -72.15 L0.1 -73.55 Q-2.05 -75.25 -5.25 -74.35 -9.1 -73.2 -10.05 -69.45 -10.15 -71.8 -12.55 -72.9 L-15.0 -73.5 Q-16.7 -73.6 -17.8 -72.95 -18.9 -72.25 -19.45 -70.75 -19.9 -69.5 -19.75 -68.3 -19.6 -67.15 -18.85 -66.1 L-16.0 -62.5 -18.85 -66.1 Q-19.6 -67.15 -19.75 -68.3 -19.9 -69.5 -19.45 -70.75 -18.9 -72.25 -17.8 -72.95 -16.7 -73.6 -15.0 -73.5 L-12.55 -72.9 Q-10.15 -71.8 -10.05 -69.45 -9.1 -73.2 -5.25 -74.35 -2.05 -75.25 0.1 -73.55 L1.4 -72.15 Q2.35 -70.8 2.15 -69.0 1.9 -66.3 -0.35 -65.6 L-1.95 -65.65 Q-5.45 -66.75 -5.35 -70.25 -5.35 -71.65 -3.75 -71.5 -3.0 -71.45 -2.6 -70.9 -1.2 -69.2 -3.25 -68.5 M1.75 -57.5 L1.15 -56.3 Q-0.7 -52.8 -3.45 -49.7 -4.3 -48.7 -5.5 -48.85 -7.45 -49.1 -8.65 -50.65 L-10.2 -52.5 -8.65 -50.65 Q-7.45 -49.1 -5.5 -48.85 -4.3 -48.7 -3.45 -49.7 -0.7 -52.8 1.15 -56.3 L1.75 -57.5 M1.0 -74.5 Q1.15 -74.95 -0.25 -75.5 -4.7 -77.2 -9.0 -79.0 -4.7 -77.2 -0.25 -75.5 1.15 -74.95 1.0 -74.5 M-1.0 -79.25 Q-1.45 -80.45 -2.55 -80.7 L-10.25 -80.75 -12.45 -80.55 Q-17.05 -79.75 -21.25 -77.5 -19.1 -79.3 -17.95 -81.95 -16.45 -85.4 -14.6 -88.4 -16.45 -85.4 -17.95 -81.95 -19.1 -79.3 -21.25 -77.5 -17.05 -79.75 -12.45 -80.55 L-10.25 -80.75 -2.55 -80.7 Q-1.45 -80.45 -1.0 -79.25 M-10.0 -68.1 L-10.1 -68.45 -10.05 -69.45 -10.8 -68.3 -10.4 -68.35 -10.0 -68.1 Q-8.3 -63.45 -3.5 -62.25 -8.3 -63.45 -10.0 -68.1 M-19.55 -59.15 L-15.65 -62.05 -15.6 -62.05 Q-14.25 -63.2 -13.0 -64.5 -14.25 -63.2 -15.6 -62.05 L-15.65 -62.05 -19.55 -59.15 M-15.25 -67.75 L-15.1 -68.8 Q-14.2 -69.9 -15.55 -70.35 -17.1 -70.95 -17.3 -69.7 -17.55 -67.8 -15.9 -66.9 L-15.7 -66.8 -15.55 -66.75 Q-12.9 -65.5 -10.8 -68.3 -12.9 -65.5 -15.55 -66.75 L-15.7 -66.8 -15.9 -66.9 Q-17.55 -67.8 -17.3 -69.7 -17.1 -70.95 -15.55 -70.35 -14.2 -69.9 -15.1 -68.8 L-15.25 -67.75 M-14.6 -76.25 L-18.3 -73.65 -20.25 -72.25 -18.3 -73.65 -14.6 -76.25 M-10.05 -54.7 Q-8.35 -53.2 -6.2 -52.45 -5.0 -52.0 -4.5 -52.75 -2.85 -55.15 -3.75 -57.35 -6.9 -56.8 -9.75 -55.75 -6.9 -56.8 -3.75 -57.35 -2.85 -55.15 -4.5 -52.75 -5.0 -52.0 -6.2 -52.45 -8.35 -53.2 -10.05 -54.7 M-8.0 -58.1 Q-11.7 -57.25 -15.4 -57.35 -11.7 -57.25 -8.0 -58.1 M-6.5 -37.2 Q-6.75 -37.0 -6.6 -36.65 L-6.45 -37.2 -6.5 -37.2 M-15.25 -35.2 L-15.0 -38.0 -15.25 -35.2 M-13.5 -37.75 L-11.25 -37.8 Q-9.2 -37.3 -8.85 -35.25 -8.75 -34.75 -8.95 -34.4 -9.95 -32.65 -10.5 -30.7 -9.95 -32.65 -8.95 -34.4 -8.75 -34.75 -8.85 -35.25 -9.2 -37.3 -11.25 -37.8 L-13.5 -37.75 M-6.45 -37.2 L-5.35 -38.1 Q-2.6 -40.0 -1.45 -37.0 -1.25 -36.5 -0.85 -36.35 0.45 -35.75 0.6 -33.85 -0.7 -31.55 -2.65 -29.65 L-4.75 -27.0 Q-4.75 -27.6 -5.05 -28.1 -7.75 -32.15 -6.6 -36.65 -7.75 -32.15 -5.05 -28.1 -4.75 -27.6 -4.75 -27.0 L-2.65 -29.65 Q-0.7 -31.55 0.6 -33.85 0.45 -35.75 -0.85 -36.35 -1.25 -36.5 -1.45 -37.0 -2.6 -40.0 -5.35 -38.1 L-6.45 -37.2" fill="#ffffff" fill-rule="evenodd" stroke="none"/>
    <path d="M-9.75 -89.65 Q-2.75 -92.65 2.25 -92.95 6.3 -93.2 9.8 -91.6 12.6 -90.35 14.4 -88.4 15.9 -86.8 16.7 -84.75 18.45 -80.45 18.15 -75.75 L17.4 -66.25 Q16.9 -61.4 16.75 -56.5 16.6 -52.25 17.55 -48.3 L17.85 -47.0 Q18.1 -46.05 17.25 -45.75 M-9.7 -89.55 Q-6.15 -86.15 -3.45 -82.25 L-2.55 -80.7 -0.75 -80.7 Q2.35 -80.65 5.1 -79.15 L6.25 -78.75 14.2 -76.9 M-10.2 -52.5 L-8.65 -50.65 Q-7.45 -49.1 -5.5 -48.85 -4.3 -48.7 -3.45 -49.7 -0.7 -52.8 1.15 -56.3 L1.75 -57.5 M-16.0 -62.5 L-18.85 -66.1 Q-19.6 -67.15 -19.75 -68.3 -19.9 -69.5 -19.45 -70.75 -18.9 -72.25 -17.8 -72.95 -16.7 -73.6 -15.0 -73.5 L-12.55 -72.9 Q-10.15 -71.8 -10.05 -69.45 -9.1 -73.2 -5.25 -74.35 -2.05 -75.25 0.1 -73.55 L1.4 -72.15 Q2.35 -70.8 2.15 -69.0 1.9 -66.3 -0.35 -65.6 L-1.95 -65.65 Q-5.45 -66.75 -5.35 -70.25 -5.35 -71.65 -3.75 -71.5 -3.0 -71.45 -2.6 -70.9 -1.2 -69.2 -3.25 -68.5 M3.05 -57.75 Q3.6 -53.45 5.5 -49.25 7.0 -46.05 8.75 -43.0 L8.9 -49.25 Q9.0 -51.35 10.3 -50.65 10.9 -50.35 11.15 -49.7 12.35 -46.75 14.75 -44.9 L15.85 -44.2 16.5 -43.5 16.65 -47.25 Q16.65 -47.65 17.55 -48.3 M14.75 -44.9 L15.85 -40.25 Q17.25 -35.2 14.6 -30.85 L13.9 -29.65 Q11.2 -25.45 13.6 -21.05 14.7 -19.05 16.2 -17.0 L16.75 -15.8 Q16.9 -15.0 17.35 -14.3 18.6 -12.55 20.75 -12.05 L25.25 -10.75 19.1 -10.5 17.65 -11.05 Q14.2 -12.7 11.2 -14.65 8.25 -15.8 5.9 -16.85 L3.75 -17.45 2.55 -17.8 -5.65 -22.2 Q-7.3 -23.1 -8.2 -24.8 -9.5 -27.25 -10.5 -30.7 L-11.0 -27.75 Q-13.6 -30.2 -15.6 -33.7 L-15.25 -35.2 Q-16.5 -39.8 -13.7 -43.7 -14.6 -46.95 -10.2 -52.5 -12.55 -55.2 -15.4 -57.35 L-19.75 -57.9 -19.8 -57.9 -21.25 -58.25 -20.55 -58.55 -19.55 -59.15 -19.9 -61.25 -20.0 -63.05 -20.4 -65.25 -20.9 -68.1 Q-21.65 -71.25 -22.8 -74.2 -24.55 -78.55 -24.4 -80.8 -24.25 -83.1 -23.75 -84.75 -23.3 -86.4 -21.6 -88.65 -19.9 -90.95 -14.6 -88.4 L-13.45 -90.25 Q-12.3 -92.0 -10.6 -90.4 L-9.8 -89.65 -9.75 -89.65 M-9.7 -89.55 L-9.8 -89.65 M-8.3 -0.9 L1.15 -1.35 2.3 -1.35 12.0 -1.7 15.25 -1.4 19.85 -1.15 M-14.6 -88.4 Q-16.45 -85.4 -17.95 -81.95 -19.1 -79.3 -21.25 -77.5 -17.05 -79.75 -12.45 -80.55 L-10.25 -80.75 -2.55 -80.7 Q-1.45 -80.45 -1.0 -79.25 M-9.0 -79.0 Q-4.7 -77.2 -0.25 -75.5 1.15 -74.95 1.0 -74.5 M-10.0 -68.1 L-10.1 -68.45 -10.05 -69.45 -10.6 -68.5 -10.8 -68.3 Q-12.9 -65.5 -15.55 -66.75 L-15.7 -66.8 -15.9 -66.9 Q-17.55 -67.8 -17.3 -69.7 -17.1 -70.95 -15.55 -70.35 -14.2 -69.9 -15.1 -68.8 L-15.25 -67.75 M-10.0 -68.1 Q-8.3 -63.45 -3.5 -62.25 M-20.25 -72.25 L-18.3 -73.65 -14.6 -76.25 M-13.0 -64.5 Q-14.25 -63.2 -15.6 -62.05 L-15.65 -62.05 -19.55 -59.15 M-9.75 -55.75 Q-6.9 -56.8 -3.75 -57.35 -2.85 -55.15 -4.5 -52.75 -5.0 -52.0 -6.2 -52.45 -8.35 -53.2 -10.05 -54.7 M-15.4 -57.35 Q-11.7 -57.25 -8.0 -58.1 M-6.5 -37.2 Q-6.75 -37.0 -6.6 -36.65 L-6.45 -37.2 -6.5 -37.2 M-6.6 -36.65 Q-7.75 -32.15 -5.05 -28.1 -4.75 -27.6 -4.75 -27.0 L-2.65 -29.65 Q-0.7 -31.55 0.6 -33.85 0.45 -35.75 -0.85 -36.35 -1.25 -36.5 -1.45 -37.0 -2.6 -40.0 -5.35 -38.1 L-6.45 -37.2 M-10.5 -30.7 Q-9.95 -32.65 -8.95 -34.4 -8.75 -34.75 -8.85 -35.25 -9.2 -37.3 -11.25 -37.8 L-13.5 -37.75 M-15.0 -38.0 L-15.25 -35.2" fill="none" stroke="#000000" stroke-linecap="round" stroke-linejoin="round" stroke-width="0.05"/>
  </g>
</svg>
