<?xml version="1.0" encoding="UTF-8" standalone="no"?>
<!DOCTYPE svg PUBLIC "-//W3C//DTD SVG 1.1//EN" "http://www.w3.org/Graphics/SVG/1.1/DTD/svg11.dtd">
<svg width="93px" height="101px" version="1.1" xmlns="http://www.w3.org/2000/svg" xmlns:xlink="http://www.w3.org/1999/xlink" xml:space="preserve" xmlns:serif="http://www.serif.com/" style="fill-rule:evenodd;clip-rule:evenodd;stroke-linejoin:round;stroke-miterlimit:2;">
    <g transform="matrix(-0.389373,-0.0737889,0.0745263,0.412309,35.945,-149.907)">
        <path d="M195.171,572.426C197.871,570.196 198.954,566.562 198.156,562.41C194.09,541.253 181.284,474.611 177.145,453.073C176.333,448.845 173.647,444.477 169.764,441.069C163.851,435.979 155.285,428.488 151.825,424.963C148.234,421.304 146.417,416.124 142.737,412.555C137.924,407.886 123.92,396.199 116.611,390.148C113.712,387.728 110.335,386.085 107.064,385.502C89.78,382.417 32.363,372.186 11.285,368.43C6.253,367.533 1.776,368.525 -1.197,371.194C-4.967,374.58 -10.229,379.306 -13.803,382.515C-16.188,384.658 -17.468,387.761 -17.462,391.388C-17.194,402.603 -21.757,405.166 -26.792,408.573L-30.058,411.733L-38.444,419.193L-56.824,434.576L-51.922,460.185C-51.922,460.185 -53.037,462.098 -54.022,463.788C-54.987,465.443 -55.27,467.536 -54.835,469.805C-53.725,475.603 -51.618,486.612 -51.618,486.612C-46.318,496.194 -35.194,500.612 -27.903,499.813C-24.102,507.951 -20.066,514.481 -13.007,520.839L-6.207,526.071C-6.207,526.071 50.712,537.07 68.3,540.469C71.587,541.104 74.957,542.887 77.729,545.457C82.582,549.956 90.534,557.328 96.264,562.641C100.703,566.756 103.763,571.875 104.75,576.839C106.547,585.867 109.269,599.548 109.269,599.548C104.98,602.027 102.637,603.975 101.757,605.525C98.077,611.417 99.095,618.15 105.652,625.874L191.421,641.223C198.861,632.025 187.807,618.59 180.985,612.382C180.985,612.382 178.881,601.136 177.527,593.895C176.814,590.087 177.818,586.759 180.296,584.713C184.421,581.306 190.918,575.939 195.171,572.426Z" style="fill:white;"/>
    </g>
    <g transform="matrix(0.621799,0,0,0.621799,-21.8979,-35.3307)">
        <path d="M83.058,219.252L98.077,219.252C98.654,219.252 99.122,218.784 99.122,218.208C99.122,217.631 98.654,217.163 98.077,217.163L83.058,217.163C82.482,217.163 82.014,217.631 82.014,218.208C82.014,218.784 82.482,219.252 83.058,219.252ZM53.797,219.252L74.028,219.252C74.604,219.252 75.072,218.784 75.072,218.208C75.072,217.631 74.604,217.163 74.028,217.163L53.797,217.163C53.22,217.163 52.752,217.631 52.752,218.208C52.752,218.784 53.22,219.252 53.797,219.252ZM49.152,204.581C45.861,209.329 45.692,214.077 49.168,218.825C49.509,219.29 50.163,219.391 50.628,219.05C51.093,218.71 51.194,218.056 50.854,217.59C47.969,213.651 48.138,209.711 50.869,205.772C51.198,205.298 51.08,204.646 50.606,204.318C50.132,203.99 49.481,204.108 49.152,204.581ZM101.022,205.772C103.753,209.711 103.922,213.651 101.037,217.59C100.697,218.056 100.798,218.71 101.263,219.05C101.728,219.391 102.382,219.29 102.723,218.825C106.199,214.077 106.03,209.329 102.739,204.581C102.41,204.108 101.759,203.99 101.285,204.318C100.811,204.646 100.693,205.298 101.022,205.772ZM76.251,205.772C78.982,209.711 79.152,213.651 76.267,217.59C75.927,218.056 76.028,218.71 76.493,219.05C76.958,219.391 77.612,219.29 77.953,218.825C81.429,214.077 81.26,209.329 77.969,204.581C77.64,204.108 76.989,203.99 76.515,204.318C76.041,204.646 75.923,205.298 76.251,205.772ZM73.543,185.645L73.543,200.322C73.543,200.935 74.041,201.433 74.654,201.433C75.267,201.433 75.765,200.935 75.765,200.322L75.765,185.645C75.765,185.031 75.267,184.534 74.654,184.534C74.041,184.534 73.543,185.031 73.543,185.645ZM95.349,185.645L95.349,200.322C95.349,200.935 95.847,201.433 96.46,201.433C97.073,201.433 97.571,200.935 97.571,200.322L97.571,185.645C97.571,185.031 97.073,184.534 96.46,184.534C95.847,184.534 95.349,185.031 95.349,185.645ZM51.979,185.645L51.979,200.322C51.979,200.935 52.476,201.433 53.09,201.433C53.703,201.433 54.201,200.935 54.201,200.322L54.201,185.645C54.201,185.031 53.703,184.534 53.09,184.534C52.476,184.534 51.979,185.031 51.979,185.645ZM35.995,170.539L47.856,180.981C48.316,181.386 49.019,181.341 49.424,180.881C49.829,180.421 49.784,179.718 49.324,179.313L37.464,168.871C37.003,168.466 36.301,168.511 35.895,168.971C35.49,169.431 35.535,170.134 35.995,170.539ZM107.731,168.871L95.87,179.313C95.41,179.718 95.365,180.421 95.77,180.881C96.176,181.341 96.878,181.386 97.339,180.981L109.199,170.539C109.659,170.134 109.704,169.431 109.299,168.971C108.894,168.511 108.191,168.466 107.731,168.871ZM111.827,166.348L159.965,166.348C160.542,166.348 161.01,165.88 161.01,165.304C161.01,164.727 160.542,164.259 159.965,164.259L111.827,164.259C111.251,164.259 110.783,164.727 110.783,165.304C110.783,165.88 111.251,166.348 111.827,166.348ZM35.217,149.906L35.217,164.583C35.217,165.197 35.715,165.695 36.328,165.695C36.941,165.695 37.439,165.197 37.439,164.583L37.439,149.906C37.439,149.293 36.941,148.795 36.328,148.795C35.715,148.795 35.217,149.293 35.217,149.906ZM169.298,150.79C167.959,155.506 166.305,158.576 162.816,161.797C162.351,162.228 162.322,162.955 162.752,163.421C163.182,163.887 163.91,163.916 164.376,163.486C168.204,159.95 170.039,156.593 171.509,151.418C171.682,150.808 171.328,150.172 170.718,149.999C170.108,149.826 169.472,150.18 169.298,150.79ZM182.561,131.537L182.561,146.521C182.561,147.135 183.059,147.633 183.672,147.633C184.285,147.633 184.783,147.135 184.783,146.521L184.783,131.537C184.783,130.923 184.285,130.425 183.672,130.425C183.059,130.425 182.561,130.923 182.561,131.537ZM35.217,131.589L35.217,146.266C35.217,146.879 35.715,147.377 36.328,147.377C36.941,147.377 37.439,146.879 37.439,146.266L37.439,131.589C37.439,130.976 36.941,130.478 36.328,130.478C35.715,130.478 35.217,130.976 35.217,131.589ZM145.144,147.119L159.965,147.119C160.542,147.119 161.01,146.651 161.01,146.074C161.01,145.498 160.542,145.029 159.965,145.029L145.144,145.029C144.567,145.029 144.099,145.498 144.099,146.074C144.099,146.651 144.567,147.119 145.144,147.119ZM178.459,142.651L178.459,145.003C178.459,145.617 178.957,146.115 179.57,146.115C180.183,146.115 180.681,145.617 180.681,145.003L180.681,142.651C180.681,142.038 180.183,141.54 179.57,141.54C178.957,141.54 178.459,142.038 178.459,142.651ZM169.554,132.004C169.315,132.004 169.112,132.082 168.945,132.233C168.767,132.395 168.68,132.592 168.68,132.822L168.68,134.069C168.68,136.307 168.12,138.316 166.998,140.095C165.876,141.875 164.31,143.263 162.303,144.26C162.301,144.261 162.298,144.262 162.296,144.264C162.092,144.372 161.962,144.532 161.902,144.741C161.841,144.955 161.874,145.158 162.009,145.348L162.05,145.421L162.055,145.428C162.183,145.61 162.367,145.73 162.611,145.78C162.842,145.827 163.062,145.803 163.27,145.708C163.272,145.708 163.274,145.707 163.276,145.706C164.824,144.958 166.182,143.917 167.351,142.581C168.364,141.425 169.145,140.147 169.695,138.748C170.243,140.137 171.012,141.412 172.004,142.572C173.151,143.913 174.487,144.957 176.013,145.705C176.017,145.707 176.022,145.709 176.027,145.711C176.249,145.805 176.468,145.826 176.683,145.779C176.912,145.729 177.089,145.612 177.217,145.43L177.216,145.431L177.262,145.355C177.414,145.159 177.449,144.95 177.377,144.731C177.31,144.526 177.178,144.37 176.978,144.264C176.976,144.263 176.974,144.262 176.972,144.261C174.964,143.253 173.398,141.86 172.276,140.08C171.154,138.301 170.594,136.297 170.594,134.069L170.594,132.822C170.594,132.592 170.507,132.395 170.329,132.233C170.162,132.082 169.959,132.004 169.72,132.004L169.72,132.006L169.554,132.004ZM162.457,145.43C162.466,145.435 162.475,145.44 162.484,145.445C162.432,145.503 162.357,145.538 162.277,145.538C162.277,145.538 162.378,145.501 162.457,145.43ZM176.954,145.316L177.03,145.478L176.942,145.33C176.946,145.325 176.95,145.321 176.954,145.316ZM73.658,132.873L61.798,143.314C61.337,143.72 61.293,144.422 61.698,144.882C62.103,145.343 62.806,145.387 63.266,144.982L75.126,134.541C75.587,134.135 75.631,133.433 75.226,132.973C74.821,132.512 74.118,132.468 73.658,132.873ZM44.213,134.541L56.073,144.982C56.534,145.387 57.236,145.343 57.642,144.882C58.047,144.422 58.002,143.72 57.542,143.314L45.681,132.873C45.221,132.468 44.518,132.512 44.113,132.973C43.708,133.433 43.753,134.135 44.213,134.541ZM179.584,113.177L179.584,128.161C179.584,128.775 180.082,129.273 180.695,129.273C181.308,129.273 181.806,128.775 181.806,128.161L181.806,113.177C181.806,112.563 181.308,112.065 180.695,112.065C180.082,112.065 179.584,112.563 179.584,113.177ZM35.217,113.446L35.217,128.123C35.217,128.736 35.715,129.234 36.328,129.234C36.941,129.234 37.439,128.736 37.439,128.123L37.439,113.446C37.439,112.833 36.941,112.335 36.328,112.335C35.715,112.335 35.217,112.833 35.217,113.446ZM43.92,112.295L43.92,128.123C43.92,128.736 44.418,129.234 45.031,129.234C45.644,129.234 46.142,128.736 46.142,128.123L46.142,112.295C46.142,111.681 45.644,111.184 45.031,111.184C44.418,111.184 43.92,111.681 43.92,112.295ZM75.687,112.295L75.687,128.123C75.687,128.736 76.185,129.234 76.799,129.234C77.412,129.234 77.91,128.736 77.91,128.123L77.91,112.295C77.91,111.681 77.412,111.184 76.799,111.184C76.185,111.184 75.687,111.681 75.687,112.295ZM164.62,126.642C164.739,126.837 164.915,126.936 165.151,126.936C165.387,126.936 165.563,126.837 165.681,126.642L172.611,115.756C172.757,115.544 172.758,115.337 172.631,115.135C172.513,114.948 172.338,114.85 172.102,114.85L158.2,114.85C157.958,114.85 157.784,114.952 157.673,115.144C157.56,115.34 157.561,115.54 157.684,115.745L164.62,126.642ZM165.679,126.645L165.683,126.639L165.679,126.645ZM164.618,126.639L164.622,126.645L164.618,126.639ZM35.217,94.88L35.217,109.557C35.217,110.171 35.715,110.668 36.328,110.668C36.941,110.668 37.439,110.171 37.439,109.557L37.439,94.88C37.439,94.267 36.941,93.769 36.328,93.769C35.715,93.769 35.217,94.267 35.217,94.88ZM166.608,99.093L178.468,109.535C178.928,109.94 179.631,109.895 180.036,109.435C180.441,108.975 180.397,108.272 179.936,107.867L168.076,97.425C167.616,97.02 166.913,97.065 166.508,97.525C166.103,97.986 166.147,98.688 166.608,99.093ZM74.743,103.567L74.743,107.259C74.743,107.872 75.241,108.37 75.854,108.37C76.467,108.37 76.965,107.872 76.965,107.259L76.965,103.567L80.311,99.261L78.556,97.897L75.854,101.375L73.152,97.897C72.776,97.413 72.077,97.326 71.593,97.702C71.109,98.078 71.021,98.777 71.397,99.261L74.743,103.567ZM43.222,103.567L43.222,107.259C43.222,107.872 43.72,108.37 44.333,108.37C44.946,108.37 45.444,107.872 45.444,107.259L45.444,103.567L48.79,99.261L47.035,97.897L44.333,101.375L41.631,97.897C41.255,97.413 40.556,97.326 40.072,97.702C39.588,98.078 39.5,98.777 39.876,99.261L43.222,103.567ZM157.978,90.611L160.401,93.094C160.829,93.532 161.533,93.541 161.972,93.113C162.411,92.684 162.42,91.98 161.991,91.541L159.568,89.059C159.139,88.62 158.435,88.611 157.997,89.04C157.558,89.468 157.549,90.172 157.978,90.611ZM141.975,84.866C141.975,86.78 142.654,88.419 144.013,89.783C145.371,91.147 147.018,91.829 148.952,91.829C150.887,91.829 152.533,91.147 153.892,89.783C155.251,88.419 155.93,86.78 155.93,84.866C155.93,82.952 155.251,81.316 153.892,79.957C152.533,78.599 150.887,77.92 148.952,77.92C147.018,77.92 145.372,78.599 144.013,79.957C142.654,81.316 141.975,82.952 141.975,84.866ZM103.142,84.866C103.142,86.78 103.821,88.419 105.18,89.783C106.539,91.147 108.185,91.829 110.119,91.829C112.054,91.829 113.7,91.147 115.059,89.783C116.418,88.419 117.097,86.78 117.097,84.866C117.097,82.952 116.418,81.316 115.059,79.957C113.7,78.599 112.054,77.92 110.119,77.92C108.185,77.92 106.539,78.599 105.18,79.957C103.821,81.316 103.142,82.952 103.142,84.866ZM48.152,78.672L36.291,89.114C35.831,89.519 35.786,90.221 36.192,90.682C36.597,91.142 37.299,91.187 37.76,90.781L49.62,80.34C50.08,79.935 50.125,79.232 49.72,78.772C49.315,78.311 48.612,78.267 48.152,78.672ZM136.854,62.749L148.714,73.191C149.175,73.596 149.877,73.551 150.283,73.091C150.688,72.631 150.643,71.928 150.183,71.523L138.322,61.081C137.862,60.676 137.159,60.721 136.754,61.181C136.349,61.641 136.394,62.344 136.854,62.749ZM64.216,61.081L52.355,71.523C51.895,71.928 51.85,72.631 52.256,73.091C52.661,73.551 53.364,73.596 53.824,73.191L65.684,62.749C66.144,62.344 66.189,61.641 65.784,61.181C65.379,60.721 64.676,60.676 64.216,61.081ZM69.17,59.691L134.251,59.691C134.828,59.691 135.296,59.223 135.296,58.646C135.296,58.069 134.828,57.601 134.251,57.601L69.17,57.601C68.593,57.601 68.125,58.069 68.125,58.646C68.125,59.223 68.593,59.691 69.17,59.691Z"/>
    </g>
</svg>
