<?xml version="1.0" encoding="UTF-8" standalone="no"?>
<svg xmlns:xlink="http://www.w3.org/1999/xlink" height="27.15px" width="43.95px" xmlns="http://www.w3.org/2000/svg">
  <g transform="matrix(1.0, 0.0, 0.0, 1.0, 22.2, 13.55)">
    <path d="M0.55 -2.15 L0.45 0.1 Q0.3 2.2 2.05 3.05 3.7 3.85 5.7 3.8 7.75 3.75 8.2 1.8 8.6 -0.05 8.65 -2.05 8.65 -4.0 8.0 -5.7 7.3 -7.5 5.45 -8.1 L1.7 -8.55 5.45 -8.1 Q7.3 -7.5 8.0 -5.7 8.65 -4.0 8.65 -2.05 8.6 -0.05 8.2 1.8 7.75 3.75 5.7 3.8 3.7 3.85 2.05 3.05 0.3 2.2 0.45 0.1 L0.55 -2.15 M-15.05 -9.25 Q-14.3 -8.25 -14.25 -5.45 -14.2 -2.5 -11.0 -3.2 -11.7 -4.6 -11.1 -6.65 -10.55 -8.75 -9.35 -10.35 -8.15 -11.95 -5.0 -12.55 L-3.45 -12.8 -1.05 -13.05 2.6 -12.65 7.25 -12.05 11.2 -11.05 12.7 -10.45 Q14.65 -9.55 15.35 -8.35 19.85 -8.6 20.45 -6.55 21.05 -4.55 21.25 -1.3 21.4 1.9 20.35 2.55 19.25 3.2 16.3 3.6 16.65 6.25 16.1 9.55 15.55 12.8 14.7 12.7 L11.25 13.0 Q9.15 13.3 8.65 11.95 L8.55 11.15 Q8.5 8.95 6.1 9.2 L0.05 9.45 Q-0.4 11.05 -1.2 11.95 -2.1 12.9 -3.45 13.1 L-5.9 12.75 Q-7.5 12.4 -8.2 11.05 -8.9 9.7 -9.0 7.7 -9.1 5.7 -9.8 4.55 -10.55 3.35 -12.35 3.0 -14.15 2.6 -16.1 1.6 -18.05 0.55 -18.8 -0.85 -19.6 -2.3 -19.9 -5.15 -20.2 -7.7 -19.75 -8.25 L-21.7 -10.65 -16.9 -11.95 -14.15 -12.35 Q-13.55 -12.15 -13.95 -11.0 -14.35 -9.9 -15.05 -9.25 M16.0 -5.15 L16.25 -1.0 Q16.4 0.4 17.45 0.35 18.45 0.25 18.25 -2.5 18.0 -5.3 16.0 -5.15 M-7.3 -2.6 Q-6.6 -1.9 -5.1 -1.95 L-3.45 -3.3 Q-2.15 -4.9 -3.45 -6.45 L-3.75 -6.85 Q-6.25 -9.35 -7.4 -7.75 -8.55 -6.15 -7.9 -6.1 -8.55 -6.15 -7.4 -7.75 -6.25 -9.35 -3.75 -6.85 L-3.45 -6.45 Q-2.15 -4.9 -3.45 -3.3 L-5.1 -1.95 Q-6.6 -1.9 -7.3 -2.6 L-6.65 -3.2 Q-4.9 -5.5 -7.9 -6.1 L-7.95 -3.95 Q-7.8 -3.1 -7.3 -2.6" fill="#fefefe" fill-rule="evenodd" stroke="none"/>
    <path d="M-7.95 -3.95 L-7.9 -6.1 Q-4.9 -5.5 -6.65 -3.2 L-7.95 -3.95" fill="#8f7c3f" fill-rule="evenodd" stroke="none"/>
    <path d="M1.7 -8.55 L5.45 -8.1 Q7.3 -7.5 8.0 -5.7 8.65 -4.0 8.65 -2.05 8.6 -0.05 8.2 1.8 7.75 3.75 5.7 3.8 3.7 3.85 2.05 3.05 0.3 2.2 0.45 0.1 L0.55 -2.15 M-19.75 -8.25 L-21.7 -10.65 -16.9 -11.95 -14.15 -12.35 Q-13.55 -12.15 -13.95 -11.0 -14.35 -9.9 -15.05 -9.25" fill="none" stroke="#8f7c3f" stroke-linecap="round" stroke-linejoin="round" stroke-width="1.0"/>
    <path d="M-15.05 -9.25 Q-14.3 -8.25 -14.25 -5.45 -14.2 -2.5 -11.0 -3.2 -11.7 -4.6 -11.1 -6.65 -10.55 -8.75 -9.35 -10.35 -8.15 -11.95 -5.0 -12.55 L-3.45 -12.8 -1.05 -13.05 2.6 -12.65 7.25 -12.05 11.2 -11.05 12.7 -10.45 Q14.65 -9.55 15.35 -8.35 19.85 -8.6 20.45 -6.55 21.05 -4.55 21.25 -1.3 21.4 1.9 20.35 2.55 19.25 3.2 16.3 3.6 16.65 6.25 16.1 9.55 15.55 12.8 14.7 12.7 L11.25 13.0 Q9.15 13.3 8.65 11.95 L8.55 11.15 Q8.5 8.95 6.1 9.2 L0.05 9.45 Q-0.4 11.05 -1.2 11.95 -2.1 12.9 -3.45 13.1 L-5.9 12.75 Q-7.5 12.4 -8.2 11.05 -8.9 9.7 -9.0 7.7 -9.1 5.7 -9.8 4.55 -10.55 3.35 -12.35 3.0 -14.15 2.6 -16.1 1.6 -18.05 0.55 -18.8 -0.85 -19.6 -2.3 -19.9 -5.15 -20.2 -7.7 -19.75 -8.25 M16.0 -5.15 Q18.0 -5.3 18.25 -2.5 18.45 0.25 17.45 0.35 16.4 0.4 16.25 -1.0 L16.0 -5.15 M-7.9 -6.1 Q-8.55 -6.15 -7.4 -7.75 -6.25 -9.35 -3.75 -6.85 L-3.45 -6.45 Q-2.15 -4.9 -3.45 -3.3 L-5.1 -1.95 Q-6.6 -1.9 -7.3 -2.6 -7.8 -3.1 -7.95 -3.95 L-7.9 -6.1 Q-4.9 -5.5 -6.65 -3.2 L-7.95 -3.95" fill="none" stroke="#8f7c3f" stroke-linecap="round" stroke-linejoin="round" stroke-width="1.0"/>
  </g>
</svg>
