<?xml version="1.0" encoding="UTF-8" standalone="no"?>
<!DOCTYPE svg PUBLIC "-//W3C//DTD SVG 1.1//EN" "http://www.w3.org/Graphics/SVG/1.1/DTD/svg11.dtd">
<svg width="101px" height="40px" version="1.1" xmlns="http://www.w3.org/2000/svg" xmlns:xlink="http://www.w3.org/1999/xlink" xml:space="preserve" xmlns:serif="http://www.serif.com/" style="fill-rule:evenodd;clip-rule:evenodd;stroke-linejoin:round;stroke-miterlimit:2;">
    <g transform="matrix(0.617554,0,0,0.617554,-17.4743,-94.8772)">
        <path d="M55.549,195.089C55.549,195.089 56.8,193.036 57.98,191.334L62.682,178.441L71.232,160.393L79.781,178.441L90.578,179.107L99.127,161.058L107.145,177.984C107.145,177.984 110.618,183.939 112.828,185.936C116.306,189.078 126.496,192.421 133.511,190.213C140.511,185.087 147.626,185.965 154.626,190.818C161.752,189.137 166.624,194.376 170.079,197.769C171.513,199.112 173.602,199.49 175.416,198.732C179.969,196.78 184.181,194.451 187.691,197.288C189.659,198.88 190.327,201.001 190.439,202.922C190.622,205.53 189.266,208.004 186.969,209.252C185.261,210.232 183.321,211.122 180.643,211.337C154.25,219.522 124.048,220.397 109.183,215.005C108.203,214.63 107.13,214.572 106.116,214.842C92.683,218.161 64.057,218.273 58.796,212.094C58.079,211.115 56.428,208.046 56.428,208.046C56.321,209.336 41.034,210.326 36.801,209.157C32.938,208.09 29.544,206.17 29.544,202.486L29.544,202.485C29.544,199.013 32.683,195.435 36.381,196.199C40.825,197.119 52.706,196.272 55.549,195.089Z" style="fill:white;"/>
    </g>
    <g transform="matrix(0.617554,0,0,0.617554,-17.4743,-94.8772)">
        <path d="M89.749,217.701L89.904,217.701C90.305,217.692 90.647,217.539 90.93,217.24C91.211,216.944 91.354,216.584 91.354,216.16L91.354,211.782C91.354,211.365 91.215,211.004 90.938,210.698C90.644,210.372 90.285,210.214 89.865,210.214L89.152,210.214L89.152,193.174C89.152,192.75 89.009,192.391 88.728,192.094C88.436,191.785 88.08,191.633 87.663,191.633L78.415,191.633C77.991,191.633 77.638,191.79 77.355,192.104C77.089,192.398 76.952,192.754 76.952,193.174L76.952,194.077C76.952,196.844 76.935,198.942 76.901,200.371C76.867,201.798 76.819,203.107 76.759,204.297C76.701,205.435 76.582,206.316 76.393,206.942C76.204,207.567 75.999,208.111 75.777,208.571C75.567,209.008 75.25,209.555 74.829,210.214L74.581,210.215L74.581,210.214C74.161,210.214 73.802,210.372 73.508,210.698C73.232,211.004 73.093,211.365 73.093,211.782L73.093,216.16C73.093,216.585 73.236,216.944 73.517,217.241C73.8,217.539 74.142,217.692 74.542,217.701L74.698,217.701C75.098,217.692 75.44,217.539 75.723,217.241C76.004,216.944 76.147,216.585 76.147,216.16L76.147,213.214L88.299,213.214L88.299,216.16C88.299,216.584 88.442,216.944 88.723,217.24C89.006,217.539 89.348,217.692 89.749,217.701ZM57.596,190.262C52.353,197.827 52.08,205.392 57.618,212.956C58.094,213.607 59.009,213.748 59.659,213.272C60.309,212.796 60.45,211.882 59.974,211.232C55.263,204.796 55.536,198.361 59.996,191.926C60.455,191.263 60.29,190.353 59.628,189.894C58.966,189.435 58.055,189.6 57.596,190.262ZM174.033,200.948C176.873,200.008 179.337,198.562 181.625,197.78C183.442,197.158 185.127,197 186.819,198.368C188.435,199.675 188.961,201.426 189.054,203.004C189.054,203.01 189.055,203.015 189.055,203.02C189.2,205.085 188.125,207.044 186.307,208.033C186.297,208.038 186.288,208.043 186.279,208.048C184.727,208.939 182.966,209.758 180.533,209.953C179.77,210.015 179.199,210.685 179.261,211.448C179.322,212.212 179.992,212.782 180.756,212.721C183.67,212.487 185.787,211.531 187.647,210.464C190.41,208.955 192.043,205.975 191.825,202.834C191.691,200.569 190.882,198.083 188.565,196.209C186.004,194.139 183.476,194.213 180.727,195.153C178.447,195.932 175.991,197.375 173.16,198.312C172.433,198.553 172.038,199.339 172.279,200.066C172.52,200.794 173.306,201.189 174.033,200.948ZM106.178,202.486C106.178,202.486 106.178,203.6 106.178,202.486C106.178,206.831 109.958,210.406 114.683,210.406L123.678,210.406C124.367,210.406 124.927,209.846 124.927,209.157C124.927,208.468 124.367,207.909 123.678,207.909L114.683,207.909C111.392,207.909 108.675,205.512 108.675,202.486L108.675,202.485C108.675,199.673 111.204,197.448 114.263,197.448L123.678,197.448C124.367,197.448 124.927,196.889 124.927,196.2C124.927,195.511 124.367,194.951 123.678,194.951L114.263,194.951C109.77,194.951 106.178,198.354 106.178,202.485L106.178,202.486ZM28.296,202.486C28.296,202.486 28.296,203.11 28.296,202.957L28.296,202.486C28.296,206.831 32.076,210.406 36.801,210.406L45.796,210.406C46.485,210.406 47.045,209.846 47.045,209.157C47.045,208.468 46.485,207.909 45.796,207.909L36.801,207.909C33.51,207.909 30.793,205.512 30.793,202.486L30.793,202.485C30.793,199.673 33.322,197.448 36.381,197.448L45.796,197.448C46.485,197.448 47.045,196.889 47.045,196.2C47.045,195.511 46.485,194.951 45.796,194.951L36.381,194.951C31.888,194.951 28.296,198.354 28.296,202.485L28.296,202.486ZM78.531,210.214C79.256,208.764 79.694,207.332 79.849,205.918C80.018,204.368 80.107,200.606 80.111,194.633L85.916,194.633L85.916,210.214L78.531,210.214ZM160.07,191.567L164.07,195.567C164.641,196.138 165.568,196.138 166.138,195.567C166.709,194.996 166.709,194.07 166.138,193.499L162.138,189.499C161.568,188.928 160.641,188.928 160.07,189.499C159.499,190.07 159.499,190.996 160.07,191.567ZM99.785,188.089C97.735,188.089 96.071,189.754 96.071,191.804C96.071,193.854 97.735,195.519 99.785,195.519C101.836,195.519 103.5,193.854 103.5,191.804C103.5,189.754 101.836,188.089 99.785,188.089ZM66.755,188.089C64.705,188.089 63.041,189.754 63.041,191.804C63.041,193.854 64.705,195.519 66.755,195.519C68.806,195.519 70.47,193.854 70.47,191.804C70.47,189.754 68.806,188.089 66.755,188.089ZM99.785,190.388C100.567,190.388 101.202,191.022 101.202,191.804C101.202,192.585 100.567,193.22 99.785,193.22C99.004,193.22 98.369,192.585 98.369,191.804C98.369,191.022 99.004,190.388 99.785,190.388ZM66.755,190.388C67.537,190.388 68.172,191.022 68.172,191.804C68.172,192.585 67.537,193.22 66.755,193.22C65.974,193.22 65.339,192.585 65.339,191.804C65.339,191.022 65.974,190.388 66.755,190.388ZM155.458,189.618C147.893,184.375 140.328,184.102 132.764,189.64C132.113,190.116 131.972,191.03 132.448,191.68C132.924,192.331 133.838,192.472 134.488,191.996C140.924,187.284 147.359,187.557 153.794,192.018C154.457,192.477 155.367,192.312 155.826,191.65C156.285,190.987 156.12,190.077 155.458,189.618ZM169.845,160.141C174.306,166.576 174.579,173.011 169.867,179.446C169.391,180.096 169.532,181.011 170.183,181.487C170.833,181.963 171.747,181.821 172.223,181.171C177.761,173.607 177.488,166.042 172.245,158.477C171.786,157.815 170.876,157.65 170.213,158.109C169.551,158.568 169.386,159.478 169.845,160.141ZM109,178.481L100.451,160.432C100.209,159.921 99.694,159.595 99.129,159.595C98.564,159.595 98.049,159.921 97.807,160.432L89.257,178.481C88.912,179.21 89.223,180.083 89.953,180.429C90.683,180.775 91.556,180.463 91.901,179.733L99.129,164.475L106.356,179.733C106.702,180.463 107.575,180.775 108.305,180.429C109.034,180.083 109.346,179.21 109,178.481ZM81.1,177.815L72.551,159.766C72.309,159.255 71.794,158.929 71.229,158.929C70.664,158.929 70.149,159.255 69.907,159.766L61.357,177.815C61.012,178.544 61.323,179.417 62.053,179.763C62.783,180.109 63.656,179.797 64.001,179.067L71.229,163.809L78.456,179.067C78.802,179.797 79.675,180.109 80.405,179.763C81.134,179.417 81.446,178.544 81.1,177.815Z"/>
    </g>
</svg>
