<?xml version="1.0" encoding="UTF-8" standalone="no"?>
<svg xmlns:xlink="http://www.w3.org/1999/xlink" height="31.5px" width="31.75px" xmlns="http://www.w3.org/2000/svg">
  <g transform="matrix(1.0, 0.0, 0.0, 1.0, 15.75, 15.7)">
    <use height="30.65" transform="matrix(1.0, 0.0, 0.0, 1.0, -13.7, -15.3)" width="27.45" xlink:href="#shape0"/>
  </g>
  <defs>
    <g id="shape0" transform="matrix(1.0, 0.0, 0.0, 1.0, 13.7, 15.3)">
      <path d="M-3.15 -7.35 Q2.7 -8.0 7.7 -5.45 L7.65 -5.45 Q13.35 -2.6 13.7 3.0 L13.7 3.05 Q14.1 8.55 8.8 12.35 4.15 15.8 -4.7 15.3 -5.7 15.25 -6.3 14.5 -6.95 13.8 -6.9 12.85 -6.85 11.9 -6.15 11.25 -5.45 10.6 -4.45 10.7 2.45 11.1 6.1 8.6 9.15 6.4 9.05 3.3 8.75 0.25 5.6 -1.35 L5.55 -1.35 Q1.65 -3.3 -2.9 -2.75 L-3.15 -2.75 -3.15 5.75 -13.7 -4.8 -3.15 -15.3 -3.15 -7.35" fill="#ffffff" fill-rule="evenodd" stroke="none"/>
      <path d="M-3.15 -7.35 L-3.15 -15.3 -13.7 -4.8 -3.15 5.75 -3.15 -2.75 -2.9 -2.75 Q1.65 -3.3 5.55 -1.35 L5.6 -1.35 Q8.75 0.25 9.05 3.3 9.15 6.4 6.1 8.6 2.45 11.1 -4.45 10.7 -5.45 10.6 -6.15 11.25 -6.85 11.9 -6.9 12.85 -6.95 13.8 -6.3 14.5 -5.7 15.25 -4.7 15.3 4.15 15.8 8.8 12.35 14.1 8.55 13.7 3.05 L13.7 3.0 Q13.35 -2.6 7.65 -5.45 L7.7 -5.45 Q2.7 -8.0 -3.15 -7.35 Z" fill="none" stroke="#000000" stroke-linecap="round" stroke-linejoin="round" stroke-width="0.5"/>
      <!-- stroke-witdhを0.05から０.5に変更-->
    </g>
  </defs>
</svg>
